<?xml version="1.0" encoding="UTF-8" standalone="no"?>
<!DOCTYPE svg PUBLIC "-//W3C//DTD SVG 1.1//EN"
"http://www.w3.org/Graphics/SVG/1.1/DTD/svg11.dtd">
<svg viewBox="0 0 1818 1286" version="1.1" xmlns="http://www.w3.org/2000/svg" xmlns:xlink="http://www.w3.org/1999/xlink">
<defs>
<clipPath id="c0_6"><path d="M86.1,1109.6v-78h99.8v78Z"/></clipPath>
<clipPath id="c1_6"><path d="M909.4,1286.2V819.1h909.5v467.1Z"/></clipPath>
<clipPath id="c2_6"><path d="M0,1286.2V0H1818.9V1286.2Z"/></clipPath>
<clipPath id="c3_6"><path d="M340.2,1098.2v-54.7h192v54.7Z"/></clipPath>
<clipPath id="c4_6"><path d="M909.4,596.1V145.3h909.5V596.1Z"/></clipPath>
<clipPath id="c5_6"><path d="M1593.1,757.1c-2.8,0,-5.1,-3.3,-5.4,-4.8c-.4,-1.8,.9,-4.1,4.8,-5.9c0,0,2.7,-1.2,6.7,-3.8c5.9,-3.7,7.8,-5.8,11.7,-9.1c1,-.8,2.2,-1.1,3.5,-1.1c2.2,0,4.4,.9,5.3,1.7c1.3,1.4,.9,4,-.9,5.9c0,0,-8.9,9.3,-18,14c-3.6,1.8,-6.3,2.8,-6.3,2.8c-.5,.2,-1,.3,-1.4,.3Z"/></clipPath>
<clipPath id="c6_6"><path d="M1444.9,534.4c-5.3,0,-9.1,-5.4,-11.4,-11.4c-3.5,-9.1,-5.2,-29.7,6.9,-55c10.8,-25.4,21.6,-40.3,21.6,-40.3c0,0,-7.4,-8.2,-9.9,-12.1c-1.7,0,16,-29.5,16,-29.5l40.3,5.6c0,0,-21.7,91.9,-22.1,92.7c-.4,.9,-21.7,34.7,-32,45.1c-3.6,3.5,-6.7,4.9,-9.4,4.9Z"/></clipPath>
<clipPath id="c7_6"><path d="M1070.8,889C990,889,924.5,823.5,924.5,742.7c0,-80.8,65.5,-146.3,146.3,-146.3c80.8,0,146.3,65.5,146.3,146.3c0,80.8,-65.5,146.3,-146.3,146.3Z"/></clipPath>
<clipPath id="c8_6"><path d="M745.2,1005.8c-80.8,0,-146.3,-65.5,-146.3,-146.3c0,-80.8,65.5,-146.3,146.3,-146.3c80.8,0,146.3,65.5,146.3,146.3c0,80.8,-65.5,146.3,-146.3,146.3Z"/></clipPath>
<style type="text/css"><![CDATA[
.g0_6{
fill: #1C77BC;
}
.g1_6{
fill: none;
stroke: #D8D8D8;
stroke-width: 1.527;
}
.g2_6{
fill: #FFF;
}
.g3_6{
fill: #000;
}
.g4_6{
fill: none;
stroke: #0080B5;
stroke-width: 0.763;
stroke-miterlimit: 10;
}
.g5_6{
fill: none;
stroke: #000;
stroke-width: 3.765;
}
.g6_6{
fill: #004A83;
}
.g7_6{
fill: #006D55;
}
.g8_6{
fill: none;
stroke: #FFF;
stroke-width: 0.534;
stroke-miterlimit: 10;
}
.g9_6{
fill: #252123;
}
.ga_6{
fill: #6F6F6F;
}
.gb_6{
fill: #3C3C3B;
}
.gc_6{
fill: #8D8E8E;
}
.gd_6{
fill: none;
stroke: #000;
stroke-width: 0.47;
}
.ge_6{
fill: none;
stroke: #000;
stroke-width: 0.763;
}
]]></style>
</defs>
<path d="M909.4,1286.2h909.5V819.1H909.4v467.1Z" class="g0_6"/>
<image clip-path="url(#c1_6)" preserveAspectRatio="none" x="909" y="819" width="910" height="467" xlink:href="img/1.jpg"/>
<g clip-path="url(#c2_6)">
<path d="M909.4,1326.8h956.4V819.1H909.4v507.7Z" class="g1_6"/>
<g opacity="0.41">
<image preserveAspectRatio="none" x="44" y="985" width="501" height="43" xlink:href="img/2.png"/>
</g>
</g>
<path d="M60.6,1008H532.2V861.2H60.6V1008Z" class="g2_6"/>
<path d="M0,145.3H1818.9v-39H0v39Z" class="g3_6"/>
<path d="M0,837.8H1818.9V798.9H0v38.9Z" class="g3_6"/>
<image clip-path="url(#c3_6)" preserveAspectRatio="none" x="340" y="1042" width="192" height="58" xlink:href="img/3.png"/>
<path d="M78.1,194.2H457M78.1,698.6H457M487.3,245.5H866.1M487.3,370.2H866.1M487.3,494.8H866.1M487.3,556.2H866.1" class="g4_6"/>
<g clip-path="url(#c2_6)" style="mix-blend-mode: multiply;">
<image clip-path="url(#c0_6)" preserveAspectRatio="none" x="86" y="1032" width="100" height="78" xlink:href="img/4.jpg"/>
</g>
<path d="M745.2,1022.6c90,0,163,-72.9,163,-163c0,-90,-73,-162.9,-163,-162.9c-90,0,-163,72.9,-163,162.9c0,90.1,73,163,163,163Z" class="g2_6"/>
<path d="M745.2,1022.6c90,0,163,-72.9,163,-163c0,-90,-73,-162.9,-163,-162.9c-90,0,-163,72.9,-163,162.9c0,90.1,73,163,163,163Z" class="g5_6"/>
<image clip-path="url(#c4_6)" preserveAspectRatio="none" x="909" y="145" width="910" height="451" xlink:href="img/5.jpg"/>
<g clip-path="url(#c2_6)">
<g opacity="0.53">
<path d="M948.9,577.9h251.6V471.4H948.9V577.9Z" class="g6_6"/>
</g>
<g opacity="0.53">
<image x="948" y="338" width="519" height="127" xlink:href="shade/1.png"/>
</g>
</g>
<path d="M966.4,506.3h109.5m0,0h109.2M966.4,526.4h109.5m0,0h109.2M966.4,546.5h109.5m0,0h109.2" class="g8_6"/>
<g clip-path="url(#c2_6)" opacity="0.53">
<path d="M948.9,328.9h517.2V282.2H948.9v46.7Z" class="g7_6"/>
</g>
<image x="1582" y="724" width="49" height="48" xlink:href="shade/2.png"/>
<image x="1588" y="729" width="18" height="15" xlink:href="shade/3.png"/>
<path clip-path="url(#c5_6)" d="M1586.5,730.9h33.6v25.9h-33.6V730.9Z" class="g9_6"/>
<image x="1594" y="745" width="32" height="21" xlink:href="shade/4.png"/>
<image x="1604" y="760" width="17" height="7" xlink:href="shade/5.png"/>
<path d="M1643.3,757.7c1.2,0,2,.5,2.3,.8v.2l-.1,.1h-.2c-.3,-.2,-1,-.7,-2,-.7c-1.8,0,-3,1.3,-3,3.1c0,1.8,1.2,3.2,3,3.2c1.1,0,1.9,-.6,2.2,-.8h.3l-.1,.2c-.2,.3,-1.1,1,-2.4,1c-2,0,-3.4,-1.6,-3.4,-3.6c0,-2,1.4,-3.5,3.4,-3.5Z" class="ga_6"/>
<path d="M1648.9,764.4c1.2,0,2.1,-1,2.1,-2.2c0,-1.2,-.9,-2.1,-2.1,-2.1c-1.1,0,-2.1,.9,-2.1,2.1c0,1.2,1,2.2,2.1,2.2m0,-4.7c1.4,0,2.5,1.1,2.5,2.5c0,1.4,-1.1,2.6,-2.5,2.6c-1.4,0,-2.5,-1.2,-2.5,-2.6c0,-1.4,1.1,-2.5,2.5,-2.5Z" class="ga_6"/>
<path d="M1652.5,760l.1,-.2h.1l.2,.2v.7c0,.2,-.1,.4,-.1,.4c.3,-.7,.9,-1.3,1.7,-1.3l.2,.1v.1l-.2,.2c-1.1,0,-1.6,1.3,-1.6,2.3v2l-.2,.1h-.1l-.1,-.1Z" class="ga_6"/>
<path d="M1655.3,760l.2,-.2h.1l.1,.2v.7c0,.2,0,.4,0,.4c.3,-.7,.8,-1.3,1.7,-1.3l.2,.1v.1l-.3,.2c-1,0,-1.6,1.3,-1.6,2.3v2l-.1,.1h-.1l-.2,-.1Z" class="ga_6"/>
<path d="M1661.6,761.8c0,-1.2,-.7,-1.8,-1.5,-1.8c-.9,0,-1.8,.6,-1.9,1.8Zm-1.5,-2.1c1.2,0,2,.9,2,2.3l-.2,.1h-3.8c0,1.5,1,2.3,2.1,2.3c.7,0,1.2,-.3,1.4,-.5h.2l.1,.1l-.1,.2c-.2,.2,-.8,.6,-1.6,.6c-1.4,0,-2.5,-1,-2.5,-2.6c0,-1.6,1.1,-2.5,2.4,-2.5Z" class="ga_6"/>
<path d="M1664.9,764.4c.9,0,1.7,-.7,1.7,-2.2c0,-1.1,-.6,-2.1,-1.7,-2.1c-.9,0,-1.7,.8,-1.7,2.1c0,1.3,.7,2.2,1.7,2.2m0,-4.7c1.2,0,1.7,1.1,1.7,1.1c0,0,0,-.2,0,-.4V758l.2,-.2l.2,.2v6.5l-.2,.1l-.2,-.1V764c0,-.2,0,-.3,0,-.3c0,0,-.4,1.1,-1.8,1.1c-1.3,0,-2.1,-1.1,-2.1,-2.6c0,-1.5,1,-2.5,2.2,-2.5Z" class="ga_6"/>
<path d="M1668.3,760l.2,-.2h.1l.1,.2v2.7c0,.9,.1,1.7,1.2,1.7c1.2,0,2,-1.1,2,-2.2V760l.2,-.2h.1l.1,.2v4.5l-.1,.1h-.1l-.2,-.1v-.7c0,-.2,0,-.4,0,-.4c-.1,.4,-.8,1.4,-2,1.4c-1.2,0,-1.6,-.7,-1.6,-1.9Z" class="ga_6"/>
<path d="M1673.7,760l.2,-.2l.2,.2v.7c0,.2,0,.4,0,.4c.2,-.7,.8,-1.3,1.6,-1.3l.2,.1v.1l-.2,.2c-1.1,0,-1.6,1.3,-1.6,2.3v2l-.2,.1l-.2,-.1Z" class="ga_6"/>
<path d="M1677.3,757.8l-.1,.2l-.5,.7l.1,.2h.1l.2,-.1l.5,-.8l-.1,-.2Zm-.6,2l-.1,.2v4.5l.1,.1h.1l.2,-.1V760l-.2,-.2Z" class="ga_6"/>
<path d="M1679.6,764.4c1.1,0,1.7,-1.1,1.7,-2.1v-.2h-.3c-.9,0,-2.6,0,-2.6,1.2c0,.5,.4,1.1,1.2,1.1m1.3,-2.7h.4v-.2c0,-1.1,-.6,-1.4,-1.4,-1.4c-.6,0,-1,.2,-1.2,.3h-.2l-.1,-.1v-.2c.3,-.1,.8,-.4,1.6,-.4c1.1,0,1.7,.6,1.7,1.8v3l-.2,.1h-.1l-.1,-.1V764c0,-.3,0,-.4,0,-.4c0,0,-.4,1.2,-1.7,1.2c-.8,0,-1.7,-.5,-1.7,-1.4c0,-1.7,2.2,-1.7,3,-1.7Z" class="ga_6"/>
<path d="M1687,764.4c.9,0,1.7,-.7,1.7,-2.2c0,-1.1,-.6,-2.1,-1.7,-2.1c-1,0,-1.7,.8,-1.7,2.1c0,1.3,.7,2.2,1.7,2.2m0,-4.7c1.2,0,1.7,1.1,1.7,1.1c0,0,0,-.2,0,-.4V758l.1,-.2h.1l.2,.2v6.5l-.2,.1h-.1l-.1,-.1V764c0,-.2,0,-.3,0,-.3c0,0,-.4,1.1,-1.8,1.1c-1.3,0,-2.1,-1.1,-2.1,-2.6c0,-1.5,.9,-2.5,2.2,-2.5Z" class="ga_6"/>
<path d="M1694,761.8c0,-1.2,-.7,-1.8,-1.5,-1.8c-.9,0,-1.7,.6,-1.9,1.8Zm-1.5,-2.1c1.3,0,2,.9,2,2.3l-.2,.1h-3.7c0,1.5,.9,2.3,2,2.3c.7,0,1.2,-.3,1.4,-.5h.2l.1,.1v.2c-.3,.2,-.9,.6,-1.7,.6c-1.3,0,-2.5,-1,-2.5,-2.6c0,-1.6,1.1,-2.5,2.4,-2.5Z" class="ga_6"/>
<path d="M1697.4,763.5l.2,-.3c.1,-.2,.3,-.2,.5,-.1c.3,.2,.8,.5,1.4,.5c.7,0,1.1,-.3,1.1,-.8c0,-1.3,-3.2,-1,-3.2,-3.2c0,-1.2,1,-2,2.3,-2c.8,0,1.5,.3,1.7,.6c.3,.1,.3,.3,.2,.5l-.2,.3c-.1,.3,-.3,.3,-.6,.2c-.2,-.2,-.6,-.4,-1.1,-.4c-.7,0,-1.1,.3,-1.1,.8c0,1.3,3.2,.9,3.2,3.1c0,1.1,-.8,2.1,-2.3,2.1c-.9,0,-1.7,-.5,-2.1,-.7c-.1,-.2,-.2,-.3,0,-.6Z" class="ga_6"/>
<path d="M1705.7,761.6c0,-.7,-.4,-1.1,-1,-1.1c-.6,0,-1,.4,-1.1,1.1Zm-.9,-2c1.4,0,2.2,1,2.2,2.3c0,.2,-.2,.5,-.5,.5h-3c.1,.8,.8,1.3,1.5,1.3c.5,0,.8,-.2,1.1,-.3c.2,-.1,.4,-.1,.5,.1l.1,.2c.2,.2,.1,.4,-.1,.6c-.3,.2,-.9,.5,-1.7,.5c-1.6,0,-2.6,-1.2,-2.6,-2.6c0,-1.6,1,-2.6,2.5,-2.6Z" class="ga_6"/>
<path d="M1711,762.1c0,-1.2,-.6,-1.5,-1.2,-1.5c-.8,0,-1.2,.6,-1.2,1.4c0,.9,.4,1.5,1.2,1.5c.6,0,1.2,-.3,1.2,-1.4m-2.5,3.3c.3,.1,.6,.2,1,.2c.8,0,1.4,-.3,1.4,-1.2v-.3l.1,-.3h-.1c-.2,.5,-.7,.7,-1.3,.7c-1.5,0,-2.3,-1.1,-2.3,-2.5c0,-1.3,.8,-2.4,2.3,-2.4c1.1,0,1.4,.7,1.4,.7h.1V760c0,-.2,.1,-.3,.4,-.3h.3c.2,0,.4,.1,.4,.4v4.2c0,1.7,-1.4,2.4,-2.6,2.4c-.5,0,-1.1,-.1,-1.4,-.3c-.3,-.1,-.4,-.3,-.2,-.5v-.2c.1,-.3,.3,-.3,.5,-.3Z" class="ga_6"/>
<path d="M1713.1,760.1c0,-.3,.1,-.4,.4,-.4h.4c.3,0,.4,.1,.4,.4v2.5c0,.6,.2,1,.8,1c.9,0,1.4,-.8,1.4,-1.6v-1.9c0,-.3,.1,-.4,.4,-.4h.4c.3,0,.4,.1,.4,.4v4.1c0,.3,-.1,.4,-.4,.4h-.4c-.2,0,-.4,-.1,-.4,-.4v-.3l.1,-.2h-.1c-.2,.5,-.8,1.1,-1.7,1.1c-1,0,-1.7,-.6,-1.7,-1.9Z" class="ga_6"/>
<path d="M1718.7,760.1c0,-.3,.1,-.4,.4,-.4h.4c.2,0,.4,.1,.4,.4v.5c0,.1,-.1,.3,-.1,.3c.2,-.6,.8,-1.2,1.5,-1.2c.3,0,.4,.1,.4,.4v.3c0,.3,-.2,.4,-.5,.4c-.9,0,-1.3,.9,-1.3,1.8v1.6c0,.3,-.1,.4,-.4,.4h-.4c-.3,0,-.4,-.1,-.4,-.4Z" class="ga_6"/>
<path d="M1724.3,763.7c.8,0,1.5,-.6,1.5,-1.5c0,-.9,-.7,-1.6,-1.5,-1.6c-.8,0,-1.5,.7,-1.5,1.6c0,.9,.7,1.5,1.5,1.5m0,-4.1c1.5,0,2.7,1.1,2.7,2.6c0,1.5,-1.2,2.6,-2.7,2.6c-1.5,0,-2.7,-1.1,-2.7,-2.6c0,-1.5,1.2,-2.6,2.7,-2.6Z" class="ga_6"/>
<path d="M1727.5,763.7l.1,-.2c.1,-.2,.3,-.2,.5,-.1c.3,.2,.6,.4,1.2,.4c.4,0,.6,-.2,.6,-.5c0,-.8,-2.4,-.5,-2.4,-2.2c0,-1,.8,-1.5,1.9,-1.5c.6,0,1.1,.2,1.4,.3c.2,.1,.2,.4,.1,.6l-.1,.2c-.1,.2,-.3,.2,-.5,.1c-.3,-.1,-.6,-.2,-1,-.2c-.4,0,-.7,.1,-.7,.5c0,.8,2.5,.4,2.5,2.1c0,.9,-.7,1.6,-1.9,1.6c-.8,0,-1.3,-.3,-1.6,-.5c-.3,-.2,-.3,-.4,-.1,-.6Z" class="ga_6"/>
<path d="M1639.9,734.6c0,-.5,.2,-.7,.6,-.7h.6c.4,0,.6,.2,.6,.7v17.6c0,.4,-.2,.6,-.6,.6h-.6c-.4,0,-.6,-.2,-.6,-.6Z" class="gb_6"/>
<path d="M1644.7,740c0,-.5,.3,-.7,.7,-.7h.5c.4,0,.6,.2,.6,.7v1.5c0,.6,-.1,1,-.1,1h.1c.5,-1.2,2.3,-3.5,5.4,-3.5c3.4,0,4.6,1.9,4.6,5.2v8c0,.4,-.3,.6,-.7,.6h-.5c-.4,0,-.7,-.2,-.7,-.6v-7.5c0,-2.1,-.3,-4,-2.9,-4c-2.9,0,-5.2,2.4,-5.2,5.5v6c0,.4,-.2,.6,-.6,.6h-.5c-.4,0,-.7,-.2,-.7,-.6Z" class="gb_6"/>
<path d="M1659.3,740.9h-1.2c-.4,0,-.6,-.2,-.6,-.6v-.2c0,-.5,.2,-.7,.6,-.7h1.2v-3.2c0,-.4,.2,-.7,.7,-.7h.5c.4,0,.6,.3,.6,.7v3.2h2.7c.5,0,.7,.2,.7,.7v.2c0,.4,-.2,.6,-.7,.6h-2.7v6.8c0,3.1,1.9,3.5,3,3.6c.5,0,.7,.2,.7,.6v.4c0,.4,-.2,.6,-.8,.6c-2.9,0,-4.7,-1.8,-4.7,-4.9Z" class="gb_6"/>
<path d="M1675.3,744.7c-.1,-2.8,-1.9,-4.2,-3.9,-4.2c-2.2,0,-4.2,1.5,-4.6,4.2Zm-3.8,-5.7c3.6,0,5.6,2.6,5.6,6.4c0,.4,-.3,.7,-.7,.7h-9.7c.1,3.4,2.4,5.4,5.2,5.4c1.7,0,3,-.7,3.6,-1.2c.4,-.3,.7,-.2,.9,.1l.2,.4c.2,.3,.1,.6,-.2,.8c-.7,.6,-2.3,1.5,-4.5,1.5c-4.1,0,-7.1,-2.9,-7.1,-7c0,-4.5,3,-7.1,6.7,-7.1Z" class="gb_6"/>
<path d="M1678.8,740c0,-.5,.2,-.7,.6,-.7h.5c.4,0,.7,.2,.7,.7v1.8c0,.6,-.1,1.1,-.1,1.1c.7,-2,2.2,-3.7,4.4,-3.7c.5,0,.7,.2,.7,.7v.4c0,.5,-.3,.7,-.8,.7c-2.8,0,-4.2,3.3,-4.2,6.1v5.1c0,.4,-.2,.6,-.6,.6h-.6c-.4,0,-.6,-.2,-.6,-.6Z" class="gb_6"/>
<path d="M1687.2,734.8c.1,-.7,.4,-1.1,1.1,-1.1h1.7c.7,0,1.1,.3,1.3,.9l3.4,8.6c.5,1.1,1,2.8,1,2.8c0,0,.6,-1.7,1,-2.8l3.4,-8.6c.2,-.6,.6,-.9,1.3,-.9h1.7c.7,0,1.1,.4,1.1,1.1l1.4,16.9c.1,.7,-.3,1.1,-1.1,1.1h-1.2c-.7,0,-1.1,-.4,-1.1,-1.1l-.8,-9.6c-.1,-1.2,0,-2.9,0,-2.9h-.1c0,0,-.5,1.8,-1,2.9l-2.8,6.6c-.2,.5,-.6,.8,-1.2,.8h-1.1c-.7,0,-1.1,-.3,-1.3,-.8l-2.8,-6.6c-.4,-1.1,-1,-2.9,-1,-2.9h-.1c0,0,.1,1.7,0,2.9l-.7,9.6c-.1,.7,-.5,1.1,-1.2,1.1h-1.2c-.8,0,-1.1,-.4,-1.1,-1.1Z" class="gb_6"/>
<path d="M1707,740.2c0,-.7,.4,-1.1,1.1,-1.1h1.2c.7,0,1.1,.4,1.1,1.1v7c0,1.7,.4,2.8,2.1,2.8c2.5,0,3.9,-2.2,3.9,-4.6v-5.2c0,-.7,.4,-1.1,1.1,-1.1h1.2c.7,0,1.1,.4,1.1,1.1v11.5c0,.7,-.4,1.1,-1.1,1.1h-1.1c-.7,0,-1.1,-.4,-1.1,-1.1v-.8c0,-.3,.1,-.6,.1,-.6h-.1c-.6,1.4,-2.4,2.8,-4.8,2.8c-2.9,0,-4.7,-1.4,-4.7,-5.2Z" class="gb_6"/>
<path d="M1721.6,740.2c0,-.7,.4,-1.1,1.1,-1.1h1c.8,0,1.1,.4,1.1,1.1v.9c0,.3,0,.6,0,.6c.6,-1.2,2.1,-2.9,4.9,-2.9c3.1,0,4.8,1.6,4.8,5.2v7.7c0,.7,-.4,1.1,-1.1,1.1h-1.2c-.7,0,-1.1,-.4,-1.1,-1.1v-7c0,-1.7,-.4,-2.8,-2.2,-2.8c-2.4,0,-3.9,2,-3.9,4.5v5.3c0,.7,-.4,1.1,-1.1,1.1h-1.2c-.7,0,-1.1,-.4,-1.1,-1.1Z" class="gb_6"/>
<path d="M1742.2,750.3c1.8,0,3.5,-1.3,3.5,-4.4c0,-2.1,-1.1,-4.2,-3.5,-4.2c-1.8,0,-3.4,1.5,-3.4,4.3c0,2.6,1.4,4.3,3.4,4.3m-.6,-11.5c3,0,4,1.9,4,1.9c0,0,0,-.3,0,-.7v-5.2c0,-.7,.4,-1.1,1.1,-1.1h1.2c.7,0,1.1,.4,1.1,1.1v16.9c0,.7,-.4,1.1,-1.1,1.1h-1c-.8,0,-1.1,-.3,-1.1,-1v-.5c0,-.3,0,-.5,0,-.5c0,0,-1.2,2.3,-4.3,2.3c-3.8,0,-6.1,-2.9,-6.1,-7.1c0,-4.4,2.5,-7.2,6.2,-7.2Z" class="gb_6"/>
<path d="M1750.8,740.2c0,-.7,.4,-1.1,1.1,-1.1h1.2c.7,0,1.1,.4,1.1,1.1v11.5c0,.7,-.4,1.1,-1.1,1.1h-1.2c-.7,0,-1.1,-.4,-1.1,-1.1Zm0,-4.5v-.9c0,-.7,.4,-1.1,1.1,-1.1h1.2c.7,0,1.2,.4,1.2,1.1v.9c0,.7,-.5,1.1,-1.2,1.1h-1.2c-.7,0,-1.1,-.4,-1.1,-1.1Z" class="gb_6"/>
<path d="M1760.5,750.5c1.9,0,3.1,-1.9,3.1,-3.6v-.5h-.5c-1.8,0,-4.7,.3,-4.7,2.3c0,1,.7,1.8,2.1,1.8m2.5,-6.2h.6V744c0,-1.8,-1.2,-2.4,-2.6,-2.4c-1.1,0,-2.2,.4,-2.8,.8c-.7,.3,-1.2,.2,-1.5,-.5l-.3,-.5c-.3,-.6,-.2,-1.1,.4,-1.5c.9,-.5,2.5,-1.1,4.5,-1.1c3.6,0,5.7,2,5.7,5.4v7.5c0,.7,-.4,1.1,-1.1,1.1h-.9c-.8,0,-1.1,-.4,-1.1,-1.1v-.5c0,-.4,0,-.6,0,-.6c0,0,-1.3,2.5,-4.3,2.5c-2.5,0,-4.6,-1.6,-4.6,-4.1c0,-4,5,-4.7,8,-4.7Z" class="gb_6"/>
<path d="M1768.6,734.8c0,-.7,.4,-1.1,1.1,-1.1h1.2c.7,0,1.1,.4,1.1,1.1v13.5c0,1.3,.6,1.6,1.1,1.6c.5,.1,.8,.4,.8,1v.9c0,.7,-.3,1.2,-1.1,1.2c-1.9,0,-4.2,-.5,-4.2,-4.5Z" class="gb_6"/>
<path d="M1666.5,722c0,0,.8,.9,2,.9c.8,0,1.4,-.5,1.4,-1.3c0,-1.9,-3.7,-1.5,-3.7,-3.8c0,-1.1,.9,-2,2.3,-2c.8,0,2.1,.3,2.1,1.3v.6h-.7v-.4c0,-.4,-.7,-.8,-1.4,-.8c-.9,0,-1.5,.6,-1.5,1.2c0,1.8,3.7,1.3,3.7,3.8c0,1.2,-.8,2.1,-2.3,2.1c-1.5,0,-2.3,-1.1,-2.3,-1.1Z" class="g3_6"/>
<path d="M1674.3,718c1.5,0,2.3,1.1,2.3,2.4c0,.2,-.1,.4,-.1,.4h-4.1c0,1.4,1,2.2,2.1,2.2c1,0,1.6,-.7,1.6,-.7l.4,.5c0,0,-.8,.8,-2,.8c-1.6,0,-2.9,-1.2,-2.9,-2.8c0,-1.8,1.2,-2.8,2.7,-2.8m1.5,2.2c0,-1.1,-.7,-1.6,-1.5,-1.6c-.9,0,-1.7,.6,-1.9,1.6Z" class="g3_6"/>
<path d="M1679.9,718c1.4,0,1.7,.9,1.7,.9h.1v-.2c0,-.4,.1,-.6,.6,-.6h.7v.6h-.4c-.2,0,-.3,.1,-.3,.3v4.3c0,1.8,-1.2,2.4,-2.5,2.4c-.7,0,-1.3,-.1,-1.8,-.4l.3,-.6c0,0,.6,.4,1.4,.4c1.1,0,1.9,-.5,1.9,-1.7v-.5c0,-.2,0,-.4,0,-.4c-.3,.6,-.8,.9,-1.7,.9c-1.4,0,-2.4,-1.1,-2.4,-2.7c0,-1.6,.9,-2.7,2.4,-2.7m1.7,2.7c0,-1.6,-.7,-2.1,-1.7,-2.1c-1,0,-1.6,.8,-1.6,2.1c0,1.3,.7,2.1,1.7,2.1c.9,0,1.6,-.5,1.6,-2.1Z" class="g3_6"/>
<path d="M1684.2,719c0,-.2,-.1,-.3,-.3,-.3h-.4v-.6h.7c.5,0,.7,.2,.7,.6v2.6c0,.9,.1,1.6,1.2,1.6c1.2,0,1.9,-1.1,1.9,-2.2v-2.6h.8v4.5c0,.2,.1,.2,.2,.2h.5v.7h-.8c-.4,0,-.6,-.2,-.6,-.6v-.3c0,-.2,0,-.4,0,-.4c-.2,.6,-1,1.4,-2.1,1.4c-1.3,0,-1.8,-.7,-1.8,-2.1Z" class="g3_6"/>
<path d="M1690.6,719c0,-.2,0,-.3,-.2,-.3h-.4v-.6h.7c.5,0,.7,.2,.7,.6v.4c0,.2,-.1,.4,-.1,.4h.1c.2,-.8,.8,-1.5,1.7,-1.5c.1,0,.2,.1,.2,.1v.7c0,0,-.1,0,-.2,0c-.8,0,-1.3,.6,-1.6,1.4c-.1,.3,-.1,.7,-.1,1v2.3h-.8Z" class="g3_6"/>
<path d="M1696.6,718c1.6,0,2.9,1.2,2.9,2.8c0,1.6,-1.3,2.8,-2.8,2.8c-1.6,0,-2.9,-1.2,-2.9,-2.8c0,-1.6,1.3,-2.8,2.8,-2.8m.1,5c1.1,0,2,-1,2,-2.2c0,-1.3,-.9,-2.2,-2,-2.2c-1.2,0,-2.1,.9,-2.1,2.2c0,1.2,.9,2.2,2.1,2.2Z" class="g3_6"/>
<path d="M1700.6,722.2c0,0,.6,.8,1.7,.8c.6,0,1.1,-.3,1.1,-.9c0,-1.2,-3,-.9,-3,-2.7c0,-1,.9,-1.4,1.9,-1.4c.6,0,1.7,.2,1.7,.9v.5h-.7v-.3c0,-.4,-.6,-.5,-.9,-.5c-.8,0,-1.2,.3,-1.2,.8c0,1.2,3,.9,3,2.7c0,.9,-.8,1.5,-1.9,1.5c-1.4,0,-2.1,-.9,-2.1,-.9Z" class="g3_6"/>
<path d="M1710.4,718c1.3,0,1.7,1,1.7,1h.1c0,0,-.1,-.2,-.1,-.4v-1.8c0,-.1,0,-.2,-.2,-.2h-.4V716h.7c.5,0,.7,.1,.7,.6v6c0,.2,.1,.2,.2,.2h.5v.7h-.8c-.4,0,-.6,-.2,-.6,-.6c0,-.2,0,-.4,0,-.4c0,0,-.5,1.1,-1.9,1.1c-1.4,0,-2.3,-1.2,-2.3,-2.8c0,-1.7,1,-2.8,2.4,-2.8m1.8,2.8c0,-1.1,-.6,-2.2,-1.7,-2.2c-1,0,-1.8,.8,-1.8,2.2c0,1.3,.7,2.2,1.7,2.2c.9,0,1.8,-.7,1.8,-2.2Z" class="g3_6"/>
<path d="M1714.8,719c0,-.2,-.1,-.3,-.2,-.3h-.5v-.6h.8c.4,0,.6,.2,.6,.6v3.9c0,.2,.1,.2,.3,.2h.4v.7h-.8c-.4,0,-.6,-.2,-.6,-.7Zm0,-3h.7v.9h-.7V716Z" class="g3_6"/>
<path d="M1717.2,722.2c0,0,.6,.8,1.7,.8c.6,0,1.1,-.3,1.1,-.9c0,-1.2,-3,-.9,-3,-2.7c0,-1,.8,-1.4,1.9,-1.4c.6,0,1.6,.2,1.6,.9v.5h-.6v-.3c0,-.4,-.6,-.5,-1,-.5c-.7,0,-1.2,.3,-1.2,.8c0,1.2,3.1,.9,3.1,2.7c0,.9,-.9,1.5,-1.9,1.5c-1.4,0,-2.1,-.9,-2.1,-.9Z" class="g3_6"/>
<path d="M1724.3,718c1.5,0,2.2,1.1,2.2,2.4c0,.2,0,.4,0,.4h-4.1c0,1.4,1,2.2,2.1,2.2c1,0,1.6,-.7,1.6,-.7l.3,.5c0,0,-.7,.8,-2,.8c-1.6,0,-2.8,-1.2,-2.8,-2.8c0,-1.8,1.2,-2.8,2.7,-2.8m1.5,2.2c-.1,-1.1,-.7,-1.6,-1.5,-1.6c-.9,0,-1.7,.6,-1.9,1.6Z" class="g3_6"/>
<path d="M1728,719c0,-.2,-.1,-.3,-.2,-.3h-.5v-.6h.8c.4,0,.6,.2,.6,.6v.2c0,.3,0,.4,0,.4c.2,-.5,.9,-1.3,2.2,-1.3c1.3,0,1.8,.7,1.8,2.1v2.5q0,.2,.2,.2h.4v.7h-.7c-.5,0,-.7,-.2,-.7,-.7v-2.6c0,-.8,-.1,-1.6,-1.1,-1.6c-1,0,-1.7,.7,-2,1.6c-.1,.2,-.1,.4,-.1,.7v2.6h-.7Zm1.8,-3.1c.7,0,.8,.8,1.3,.8c.4,0,.4,-.4,.4,-.7h.6c0,.8,-.3,1.2,-1,1.2c-.7,0,-.9,-.7,-1.4,-.7c-.3,0,-.4,.4,-.4,.7h-.5c0,-.8,.3,-1.3,1,-1.3Z" class="g3_6"/>
<path d="M1737.3,720.2h.3v-.1c0,-1.1,-.4,-1.5,-1.4,-1.5c-.3,0,-1.1,0,-1.1,.4v.4h-.7v-.5c0,-.8,1.3,-.9,1.8,-.9c1.7,0,2.1,.9,2.1,2v2.6c0,.2,.1,.2,.2,.2h.5v.7h-.7c-.5,0,-.7,-.2,-.7,-.7c0,-.2,0,-.4,0,-.4c0,0,-.4,1.2,-1.8,1.2c-.9,0,-1.8,-.5,-1.8,-1.6c0,-1.8,2.4,-1.8,3.3,-1.8m-1.4,2.8c1.1,0,1.7,-1.1,1.7,-2v-.3h-.3c-.9,0,-2.6,.1,-2.6,1.3c0,.5,.4,1,1.2,1Z" class="g3_6"/>
<path d="M1742.1,718c1.3,0,1.7,1,1.7,1h.1c0,0,-.1,-.2,-.1,-.4v-1.8c0,-.1,0,-.2,-.2,-.2h-.4V716h.7c.5,0,.7,.1,.7,.6v6c0,.2,.1,.2,.2,.2h.5v.7h-.8c-.4,0,-.6,-.2,-.6,-.6c0,-.2,0,-.4,0,-.4c0,0,-.5,1.1,-1.9,1.1c-1.4,0,-2.3,-1.2,-2.3,-2.8c0,-1.7,1,-2.8,2.4,-2.8m1.8,2.8c0,-1.1,-.6,-2.2,-1.7,-2.2c-1,0,-1.8,.8,-1.8,2.2c0,1.3,.7,2.2,1.7,2.2c.9,0,1.8,-.7,1.8,-2.2Z" class="g3_6"/>
<path d="M1748.8,718c1.5,0,2.8,1.2,2.8,2.8c0,1.6,-1.3,2.8,-2.8,2.8c-1.6,0,-2.9,-1.2,-2.9,-2.8c0,-1.6,1.3,-2.8,2.9,-2.8m0,5c1.1,0,2.1,-1,2.1,-2.2c0,-1.3,-1,-2.2,-2.1,-2.2c-1.2,0,-2.1,.9,-2.1,2.2c0,1.2,.9,2.2,2.1,2.2Z" class="g3_6"/>
<path d="M1752.8,722.2c0,0,.6,.8,1.6,.8c.6,0,1.2,-.3,1.2,-.9c0,-1.2,-3.1,-.9,-3.1,-2.7c0,-1,.9,-1.4,2,-1.4c.5,0,1.6,.2,1.6,.9v.5h-.7v-.3c0,-.4,-.6,-.5,-.9,-.5c-.8,0,-1.2,.3,-1.2,.8c0,1.2,3,.9,3,2.7c0,.9,-.8,1.5,-1.9,1.5c-1.4,0,-2,-.9,-2,-.9Z" class="g3_6"/>
<path d="M1760.6,719c0,-.2,-.1,-.3,-.2,-.3h-.5v-.6h.7c.5,0,.7,.2,.7,.6c0,.2,0,.3,0,.3c0,0,.4,-1,1.9,-1c1.4,0,2.3,1.1,2.3,2.8c0,1.7,-1,2.8,-2.4,2.8c-1.3,0,-1.8,-1,-1.8,-1c0,0,0,.2,0,.5v2.5h-.7Zm2.4,4c1,0,1.7,-.8,1.7,-2.2c0,-1.3,-.6,-2.2,-1.7,-2.2c-.9,0,-1.7,.7,-1.7,2.2c0,1.1,.6,2.2,1.7,2.2Z" class="g3_6"/>
<path d="M1769.2,718c1.6,0,2.8,1.2,2.8,2.8c0,1.6,-1.2,2.8,-2.8,2.8c-1.6,0,-2.8,-1.2,-2.8,-2.8c0,-1.6,1.2,-2.8,2.8,-2.8m0,5c1.2,0,2.1,-1,2.1,-2.2c0,-1.3,-.9,-2.2,-2.1,-2.2c-1.1,0,-2.1,.9,-2.1,2.2c0,1.2,1,2.2,2.1,2.2Z" class="g3_6"/>
<path d="M1773.4,719c0,-.2,-.1,-.3,-.2,-.3h-.5v-.6h.8c.4,0,.6,.2,.6,.6v.4c0,.2,0,.4,0,.4c.3,-.8,.9,-1.5,1.7,-1.5c.2,0,.3,.1,.3,.1v.7c0,0,-.1,0,-.3,0c-.7,0,-1.3,.6,-1.5,1.4c-.1,.3,-.2,.7,-.2,1v2.3h-.7Z" class="g3_6"/>
<path d="M1468.1,386.1c0,0,-17.7,29.5,-16,29.5c2.5,3.9,9.9,12.1,9.9,12.1c0,0,-10.8,14.9,-21.6,40.3c-12.1,25.3,-10.4,45.9,-6.9,55c3.4,9.1,10.4,16.9,20.8,6.5c10.3,-10.4,31.6,-44.2,32,-45.1c.4,-.8,22.1,-92.7,22.1,-92.7Z" class="gc_6"/>
<image clip-path="url(#c6_6)" preserveAspectRatio="none" x="1427" y="385" width="82" height="155" xlink:href="img/6.jpg"/>
<path d="M1070.8,905.8c90,0,163,-73,163,-163c0,-90,-73,-163,-163,-163c-90,0,-163,73,-163,163c0,90,73,163,163,163Z" class="g2_6"/>
<path d="M1070.8,905.8c90,0,163,-73,163,-163c0,-90,-73,-163,-163,-163c-90,0,-163,73,-163,163c0,90,73,163,163,163Z" class="g5_6"/>
<image clip-path="url(#c7_6)" preserveAspectRatio="none" x="924" y="596" width="293" height="293" xlink:href="img/7.jpg"/>
<path d="M1070.8,889c80.8,0,146.3,-65.5,146.3,-146.3c0,-80.8,-65.5,-146.3,-146.3,-146.3c-80.8,0,-146.3,65.5,-146.3,146.3c0,80.8,65.5,146.3,146.3,146.3Z" class="gd_6"/>
<image clip-path="url(#c8_6)" preserveAspectRatio="none" x="598" y="713" width="294" height="293" xlink:href="img/8.jpg"/>
<path d="M745.2,1005.8c80.8,0,146.3,-65.5,146.3,-146.3C891.5,778.7,826,713.2,745.2,713.2c-80.8,0,-146.3,65.5,-146.3,146.3c0,80.8,65.5,146.3,146.3,146.3Z" class="ge_6"/>
<path d="M606.4,916c3.4,0,6.1,-2.7,6.1,-6.1c0,-3.3,-2.7,-6.1,-6.1,-6.1c-3.3,0,-6.1,2.8,-6.1,6.1c0,3.4,2.8,6.1,6.1,6.1Z" class="g3_6"/>
<path d="M1215.1,742.7c3.4,0,6.1,-2.7,6.1,-6.1c0,-3.4,-2.7,-6.1,-6.1,-6.1c-3.3,0,-6.1,2.7,-6.1,6.1c0,3.4,2.8,6.1,6.1,6.1Z" class="g3_6"/>
</svg>