<?xml version="1.0" encoding="UTF-8" standalone="no"?>
<!DOCTYPE svg PUBLIC "-//W3C//DTD SVG 1.1//EN"
"http://www.w3.org/Graphics/SVG/1.1/DTD/svg11.dtd">
<svg viewBox="0 0 909 1286" version="1.1" xmlns="http://www.w3.org/2000/svg" xmlns:xlink="http://www.w3.org/1999/xlink">
<defs>
<clipPath id="c0_34"><path d="M867.8,55.4V42.8H829.9V55.4Zm-543,252.3V0H909.4V307.7H866.8V235.5H505.1v72.2Z"/></clipPath>
<clipPath id="c1_34"><path d="M829.9,55.4V42.8h37.9V55.4Z"/></clipPath>
<clipPath id="c2_34"><path d="M505.1,336.7v-5.2h88.1v5.2Zm0,-7.5V307.7h88.1v21.5Z"/></clipPath>
<clipPath id="c3_34"><path d="M505.1,307.7V235.5h88.1v72.2Z"/></clipPath>
<clipPath id="c4_34"><path d="M505.1,331.5v-2.3h88.1v2.3Z"/></clipPath>
<clipPath id="c5_34"><path d="M778.7,336.7v-5.2h87.4v-2.3h-11V307.7h11.7v29Z"/></clipPath>
<clipPath id="c6_34"><path d="M855.1,307.7V266.5c0,-3.9,-1.2,-7.5,-3.3,-10.4v-2.7h-2.2c-3.3,-3.2,-7.8,-5.2,-12.8,-5.2H794.4c-5,0,-9.5,2,-12.8,5.2h-2.5v3.1c-.2,.2,-.3,.4,-.4,.6V235.5h88.1v72.2Z"/></clipPath>
<clipPath id="c7_34"><path d="M855.1,331.5v-2.3h11v2.3Z"/></clipPath>
<clipPath id="c8_34"><path d="M779.1,256.5v-3.1h2.5c-1,1,-1.8,2,-2.5,3.1Zm72.7,-.4c-.6,-1,-1.4,-1.9,-2.2,-2.7h2.2v2.7Z"/></clipPath>
<clipPath id="c9_34"><path d="M690.6,336.7v-5.2h78.8v5.2ZM767,329.2V307.7h2.4v21.5Z"/></clipPath>
<clipPath id="ca_34"><path d="M767,307.7V266.5c0,-10.1,-8.2,-18.3,-18.3,-18.3H706.3c-6.7,0,-12.5,3.6,-15.7,8.9V235.5h78.8v72.2Z"/></clipPath>
<clipPath id="cb_34"><path d="M767,331.5v-2.3h2.4v2.3Z"/></clipPath>
<clipPath id="cc_34"><path d="M769.4,336.7v-5.2h9.3v5.2Zm0,-7.5V307.7h6.7v16.7H776v4.8Z"/></clipPath>
<clipPath id="cd_34"><path d="M769.4,307.7V235.5h9.3v21.6c-1.7,2.8,-2.6,6,-2.6,9.4v41.2Z"/></clipPath>
<clipPath id="ce_34"><path d="M769.4,331.5v-2.3H776v2.3Z"/></clipPath>
<clipPath id="cf_34"><path d="M776.1,324.4V266.5c0,-3.4,.9,-6.6,2.6,-9.4v67.3Z"/></clipPath>
<clipPath id="cg_34"><path d="M776,331.5v-7.1h2.7v7.1Z"/></clipPath>
<clipPath id="ch_34"><path d="M602.4,336.7v-5.2h78.9v5.2Zm0,-7.5V307.7h78.9v21.5Z"/></clipPath>
<clipPath id="ci_34"><path d="M602.4,307.7V235.5h78.9v72.2Z"/></clipPath>
<clipPath id="cj_34"><path d="M602.4,331.5v-2.3h78.9v2.3Z"/></clipPath>
<clipPath id="ck_34"><path d="M593.2,336.7v-5.2h9.2v5.2Zm0,-7.5V307.7h9.2v21.5Z"/></clipPath>
<clipPath id="cl_34"><path d="M593.2,307.7V235.5h9.2v72.2Z"/></clipPath>
<clipPath id="cm_34"><path d="M593.2,331.5v-2.3h9.2v2.3Z"/></clipPath>
<clipPath id="cn_34"><path d="M681.3,336.7v-5.2h9.3v5.2Zm0,-7.5V307.7H688v16.7h-.1v4.8Z"/></clipPath>
<clipPath id="co_34"><path d="M681.3,307.7V235.5h9.3v21.6c-1.7,2.8,-2.6,6,-2.6,9.4v41.2Z"/></clipPath>
<clipPath id="cp_34"><path d="M681.3,331.5v-2.3h6.6v2.3Z"/></clipPath>
<clipPath id="cq_34"><path d="M688,324.4V266.5c0,-3.4,.9,-6.6,2.6,-9.4v67.3Z"/></clipPath>
<clipPath id="cr_34"><path d="M687.9,331.5v-7.1h2.7v7.1Z"/></clipPath>
<style type="text/css"><![CDATA[
.g0_34{
fill: #E7E8E8;
}
.g1_34{
fill: #1B1661;
}
.g2_34{
fill: #DCDDDE;
}
.g3_34{
fill: #FFF;
}
.g4_34{
fill: #D1232A;
}
.g5_34{
fill: #CFCBCA;
}
.g6_34{
fill: #FCB61D;
}
.g7_34{
fill: #FEE6BB;
}
.g8_34{
fill: #5AC4C1;
}
.g9_34{
fill: #09B795;
}
.ga_34{
fill: #F37537;
}
.gb_34{
fill: #5180C1;
}
]]></style>
</defs>
<image clip-path="url(#c0_34)" preserveAspectRatio="none" x="325" y="0" width="585" height="308" xlink:href="img/1.jpg"/>
<image clip-path="url(#c1_34)" preserveAspectRatio="none" x="830" y="43" width="38" height="13" xlink:href="img/2.jpg"/>
<path d="M43.3,1242.7H303.1V933.9H43.3v308.8Z" class="g0_34"/>
<path d="M43.3,933.9H303.2v27.7H43.3V933.9Z" class="g1_34"/>
<path d="M43.3,1002.9H303.1V961.6H43.3v41.3Zm0,239.8H303.1v-37.6H43.3v37.6Z" class="g2_34"/>
<path d="M43.3,1003.3H303.1v-.8H43.3v.8Z" class="g3_34"/>
<path d="M43.3,1205.5H303.1v-.8H43.3v.8Z" class="g3_34"/>
<path d="M62.4,945.5l-1,-.6c-.2,-.2,-.6,-.1,-.8,.1l-4.7,7l-2.1,-2.2c-.2,-.2,-.6,-.2,-.8,0l-.9,.8c-.2,.2,-.2,.6,0,.8l3.4,3.4c.1,.1,.4,.3,.7,.3c.3,0,.5,-.2,.7,-.4l5.7,-8.4c.1,-.2,.1,-.6,-.2,-.8Z" class="g3_34"/>
<path d="M324.8,1242.7H584.6V1083.1H324.8v159.6Z" class="g0_34"/>
<path d="M324.8,1083.1H584.6v26.2H324.8v-26.2Z" class="g1_34"/>
<path d="M324.8,1109.3H511.6v37.5H324.8v-37.5Zm186.8,0h73v37.5h-73v-37.5Zm-186.8,74.9H511.6v37.4H324.8v-37.4Zm186.8,0h73v37.4h-73v-37.4Z" class="g2_34"/>
<path d="M324.8,1222.4H511.6v-1.5H324.8Z" class="g3_34"/>
<path d="M511.6,1222.4h73v-1.5h-73Z" class="g3_34"/>
<path d="M343.9,1093.3l-1,-.7c-.2,-.2,-.6,-.1,-.8,.2l-4.7,6.9l-2.1,-2.2c-.3,-.2,-.6,-.2,-.8,0l-.9,.9c-.2,.2,-.2,.6,0,.8l3.4,3.3c.1,.2,.4,.3,.7,.3c.3,0,.5,-.1,.7,-.4l5.7,-8.3c.1,-.3,.1,-.7,-.2,-.8Z" class="g3_34"/>
<path d="M607.1,879h-.8v363.7H866.1V878.3H606.3v.7h.8v.8H864.6v361.3H607.8V879h-.7v.8Z" class="g1_34"/>
<path d="M651.3,885H821.1V871.2H651.3Z" class="g3_34"/>
<path d="M607.1,572.3h-.8v27.6H866.1V571.5H606.3v.8h.8v.8H864.6v25.3H607.8V572.3h-.7v.8Z" class="g4_34"/>
<path d="M627.5,594.7c-5.3,0,-9.7,-4.3,-9.6,-9.7c0,-5.3,4.3,-9.6,9.7,-9.6c5.3,0,9.6,4.4,9.6,9.7c-.1,5.3,-4.4,9.6,-9.7,9.6m0,-1.4c4.6,0,8.3,-3.7,8.3,-8.2c0,-4.6,-3.8,-8.3,-8.3,-8.3c-4.5,0,-8.2,3.7,-8.3,8.2c0,4.6,3.7,8.3,8.3,8.3Z" class="g4_34"/>
<path d="M614.2,580.5c.5,.2,.6,0,.6,-.3c0,-1.3,0,-2.5,0,-3.7c0,-.2,-.1,-.5,0,-.6c.2,-.2,.4,-.5,.6,-.5c.3,0,.5,.3,.7,.5c.1,.1,.1,.4,.1,.6c0,1.3,0,2.7,0,4.1h.4c0,-1,0,-1.9,0,-2.7c0,-.7,-.1,-1.3,-.1,-1.9c0,-.4,.3,-.6,.7,-.7c.4,0,.7,.3,.7,.7c.1,1.8,.2,3.6,.2,5.5c0,.8,-.4,1.4,-1.1,1.9c-.3,.2,-.4,.4,-.4,.8c.1,3.5,.1,7,.2,10.5c0,.6,-.2,1,-.8,1.3c-.5,.2,-1,.2,-1.4,-.2c-.2,-.3,-.4,-.8,-.4,-1.2c0,-2.3,0,-4.6,0,-6.9c.1,-1.2,.1,-2.4,.1,-3.6c0,-.2,-.2,-.5,-.4,-.6c-.7,-.6,-1.1,-1.4,-1.1,-2.4c.1,-1.6,.1,-3.3,.2,-5c0,-.4,.2,-.7,.7,-.8c.4,0,.7,.3,.7,.9c0,1.2,-.1,2.5,-.2,3.8c0,.1,0,.3,0,.5m2.2,1.5h-1.9c.7,.7,1.3,.7,1.9,0Z" class="g4_34"/>
<path d="M637.9,585.8c0,-2.9,0,-5.7,0,-8.6c0,-.7,.3,-1.3,.8,-1.6c1,-.6,2.2,-.1,2.5,1c.5,2.3,.8,4.6,.5,6.9c-.1,1.1,-.3,2.2,-.5,3.3c0,.2,0,.5,0,.7c-.1,2.4,0,4.8,-.1,7.2c0,.9,-.6,1.4,-1.6,1.4c-.9,0,-1.5,-.5,-1.6,-1.5c0,-.1,0,-.3,0,-.4c0,-2.8,0,-5.6,0,-8.4m1.4,.4q.6,.1,.7,-.3c.5,-2.3,.5,-4.7,.2,-7c-.1,-.6,-.2,-1.2,-.4,-1.8l-.2,-.3l-.3,.3v.3c0,2.8,0,5.5,0,8.3Z" class="g4_34"/>
<path d="M627.5,578.3v.7c3.3,0,6,2.8,6,6v.1c0,3.2,-2.7,6,-5.9,6h-.1c-1.6,0,-3.1,-.7,-4.2,-1.8c-1.1,-1.1,-1.8,-2.6,-1.8,-4.2c0,-3.3,2.7,-6,6,-6.1v-1.5c-4.1,0,-7.5,3.4,-7.5,7.6c0,4.1,3.4,7.5,7.5,7.5h.1c4.1,0,7.5,-3.4,7.5,-7.5V585c-.1,-4.1,-3.4,-7.5,-7.6,-7.5Z" class="g4_34"/>
<path d="M325.6,923.2h-.8v27.6H584.6V922.4H324.8v.8h.8v.8H583.1v25.3H326.3V923.2h-.7v.8Z" class="g4_34"/>
<path d="M346,945.6c-5.3,0,-9.7,-4.3,-9.6,-9.7c0,-5.3,4.3,-9.6,9.7,-9.6c5.3,0,9.6,4.4,9.6,9.7c0,5.3,-4.4,9.7,-9.7,9.6m0,-1.4c4.6,0,8.3,-3.6,8.3,-8.2c0,-4.6,-3.7,-8.3,-8.3,-8.3c-4.5,0,-8.2,3.7,-8.2,8.3c-.1,4.5,3.6,8.2,8.2,8.2Z" class="g4_34"/>
<path d="M332.8,931.5c.4,.1,.5,-.1,.5,-.4c0,-1.2,0,-2.5,0,-3.7c0,-.2,-.1,-.5,0,-.6c.2,-.2,.4,-.5,.6,-.5c.3,0,.5,.3,.7,.5c.1,.1,.1,.4,.1,.6c0,1.4,0,2.7,0,4.1h.4c0,-.9,0,-1.8,0,-2.7c0,-.6,-.1,-1.2,-.1,-1.8c0,-.5,.3,-.7,.7,-.8c.4,0,.7,.3,.7,.7c.1,1.8,.2,3.7,.2,5.5c0,.8,-.4,1.5,-1.1,1.9c-.3,.2,-.4,.5,-.4,.8c.1,3.5,.1,7,.2,10.5c0,.6,-.2,1,-.8,1.3c-.5,.2,-1,.2,-1.4,-.2c-.2,-.3,-.4,-.8,-.4,-1.2c0,-2.3,0,-4.6,.1,-6.9c0,-1.2,0,-2.4,0,-3.6c0,-.2,-.2,-.5,-.4,-.6c-.7,-.6,-1.1,-1.4,-1.1,-2.4c.1,-1.6,.2,-3.3,.2,-4.9c0,-.5,.2,-.8,.7,-.9c.4,0,.7,.4,.7,.9c0,1.3,-.1,2.5,-.1,3.8c-.1,.2,0,.3,0,.6m2.1,1.5H333c.7,.6,1.3,.6,1.9,0Z" class="g4_34"/>
<path d="M356.5,936.7c0,-2.8,0,-5.7,0,-8.6c0,-.7,.2,-1.2,.8,-1.6c.9,-.6,2.1,-.1,2.4,1c.5,2.3,.8,4.6,.5,6.9c-.1,1.1,-.3,2.2,-.5,3.3c0,.3,0,.5,0,.7c0,2.4,0,4.8,-.1,7.2c0,.9,-.6,1.5,-1.6,1.4c-.9,0,-1.5,-.5,-1.5,-1.4c-.1,-.2,0,-.3,0,-.5c0,-2.8,0,-5.6,0,-8.4m1.3,.5q.6,0,.7,-.4c.5,-2.3,.5,-4.7,.2,-7c-.1,-.6,-.2,-1.2,-.3,-1.8l-.3,-.3l-.3,.4v.2c0,2.8,0,5.6,0,8.3Z" class="g4_34"/>
<path d="M346,929.2v.8h.1c3.2,0,5.9,2.7,5.9,6c.1,3.3,-2.7,6,-5.9,6H346c-1.6,0,-3.1,-.7,-4.2,-1.8C340.7,939.1,340,937.6,340,936c0,-3.3,2.7,-6,6,-6v-1.6c-4.1,.1,-7.5,3.4,-7.5,7.6c0,4.1,3.4,7.5,7.5,7.5h.1c4.1,0,7.5,-3.4,7.5,-7.5c0,-4.2,-3.4,-7.6,-7.5,-7.6H346Z" class="g4_34"/>
<path d="M43.3,902.6H303.2V901H43.3Z" class="g5_34"/>
<path d="M303.2,310.1V289.7h-.8v20.4Z" class="g3_34"/>
<path d="M303.2,335V310.1h-.8V335Z" class="g3_34"/>
<path d="M179.4,354.5V335h-.8v19.5Z" class="g3_34"/>
<path d="M230.8,354.5V335H230v19.5Z" class="g3_34"/>
<path d="M303.2,354.5V335h-.8v19.5Z" class="g3_34"/>
<path d="M179.4,374V354.5h-.8V374Z" class="g3_34"/>
<path d="M230.8,374V354.5H230V374Z" class="g3_34"/>
<path d="M303.2,374V354.5h-.8V374Z" class="g3_34"/>
<path d="M179.4,393.6V374h-.8v19.6Z" class="g3_34"/>
<path d="M230.8,393.6V374H230v19.6Z" class="g3_34"/>
<path d="M303.2,393.6V374h-.8v19.6Z" class="g3_34"/>
<path d="M179.4,413.1V393.6h-.8v19.5Z" class="g3_34"/>
<path d="M230.8,413.1V393.6H230v19.5Z" class="g3_34"/>
<path d="M303.2,413.1V393.6h-.8v19.5Z" class="g3_34"/>
<path d="M179.4,432.6V413.1h-.8v19.5Z" class="g3_34"/>
<path d="M230.8,432.6V413.1H230v19.5Z" class="g3_34"/>
<path d="M303.2,432.6V413.1h-.8v19.5Z" class="g3_34"/>
<path d="M179.4,452.2V432.6h-.8v19.6Z" class="g3_34"/>
<path d="M230.8,452.2V432.6H230v19.6Z" class="g3_34"/>
<path d="M303.2,452.2V432.6h-.8v19.6Z" class="g3_34"/>
<path d="M179.4,471.7V452.2h-.8v19.5Z" class="g3_34"/>
<path d="M230.8,471.7V452.2H230v19.5Z" class="g3_34"/>
<path d="M303.2,471.7V452.2h-.8v19.5Z" class="g3_34"/>
<path d="M179.4,491.2V471.7h-.8v19.5Z" class="g3_34"/>
<path d="M230.8,491.2V471.7H230v19.5Z" class="g3_34"/>
<path d="M303.2,491.2V471.7h-.8v19.5Z" class="g3_34"/>
<path d="M179.4,510.8V491.2h-.8v19.6Z" class="g3_34"/>
<path d="M230.8,510.8V491.2H230v19.6Z" class="g3_34"/>
<path d="M303.2,510.8V491.2h-.8v19.6Z" class="g3_34"/>
<path d="M179.4,530.3V510.8h-.8v19.5Z" class="g3_34"/>
<path d="M230.8,530.3V510.8H230v19.5Z" class="g3_34"/>
<path d="M303.2,530.3V510.8h-.8v19.5Z" class="g3_34"/>
<path d="M179.4,549.8V530.3h-.8v19.5Z" class="g3_34"/>
<path d="M230.8,549.8V530.3H230v19.5Z" class="g3_34"/>
<path d="M303.2,549.8V530.3h-.8v19.5Z" class="g3_34"/>
<path d="M179.4,569.4V549.8h-.8v19.6Z" class="g3_34"/>
<path d="M230.8,569.4V549.8H230v19.6Z" class="g3_34"/>
<path d="M303.2,569.4V549.8h-.8v19.6Z" class="g3_34"/>
<path d="M179.4,588.9V569.4h-.8v19.5Z" class="g3_34"/>
<path d="M230.8,588.9V569.4H230v19.5Z" class="g3_34"/>
<path d="M303.2,588.9V569.4h-.8v19.5Z" class="g3_34"/>
<path d="M78,310.9H179v-1.5H78Z" class="g6_34"/>
<path d="M179,310.9h51.4v-1.5H179Z" class="g6_34"/>
<path d="M230.4,310.9h72v-1.5h-72Z" class="g6_34"/>
<path d="M61.2,328.7c9.8,0,17.8,-8,17.8,-17.9C79,301,71,293,61.2,293c-9.9,0,-17.9,8,-17.9,17.8c0,9.9,8,17.9,17.9,17.9Z" class="g6_34"/>
<path d="M71.6,312.6c0,.7,.2,1.5,.2,2.2c0,2,-1,3.5,-2.7,4.6c-1.3,.9,-2.8,1.3,-4.3,1.3c-2.4,.1,-4.8,.1,-7.2,0c-1.7,0,-3.2,-.4,-4.5,-1.3c-2,-1.4,-2.8,-3.3,-2.5,-5.7c.2,-1.9,.3,-3.9,.4,-5.8c0,-1.8,0,-3.7,-.1,-5.5c0,-2.1,.9,-3.7,2.5,-4.9c1.5,-1.1,3.2,-1.6,5,-1.6c1.9,0,3.8,0,5.7,0c1.6,0,3.2,.5,4.6,1.4c1.9,1.4,2.9,3.2,2.7,5.6c-.1,1.2,0,2.4,0,3.6c-.1,0,.1,4.1,.2,6.1M61.2,297.1v0c-1,0,-1.9,-.1,-2.9,0c-1.3,0,-2.5,.3,-3.6,1c-1.6,.9,-2.7,2.2,-2.6,4.1c.1,.9,.3,1.7,.6,2.6c.4,1.3,1.1,2.5,2.2,3.5c.2,.2,.2,.5,-.1,.8c-.6,.7,-1.3,1.3,-2.1,1.5c-.6,.2,-.7,.5,-.7,1.1c-.1,.4,.1,.8,.4,1.1c.8,.8,1.7,1.4,2.7,1.8c1.8,.8,3.7,1,5.6,1.1c2,0,4.1,-.2,6,-.9c1.4,-.4,2.6,-1.1,3.5,-2.3c0,-.1,.1,-.2,.1,-.4c0,-.3,0,-.7,0,-1l-.2,-.3c-1,-.3,-1.9,-.9,-2.6,-1.7c-.3,-.3,-.3,-.6,0,-.9c.4,-.5,.9,-.9,1.2,-1.5c.8,-1.2,1.2,-2.6,1.4,-4c.2,-1.1,0,-2.2,-.7,-3.1c-1.2,-1.5,-2.8,-2.3,-4.7,-2.5c-1.1,-.1,-2.3,0,-3.5,0m-9.4,16.5c-.3,1.6,0,3.1,1.3,4.2c1.3,1.2,2.8,1.7,4.6,1.7c2.3,.1,4.6,0,6.9,0c.8,0,1.6,-.1,2.4,-.3c1.4,-.5,2.5,-1.3,3.2,-2.7c.5,-.9,.5,-1.9,.3,-2.9h-.1c-1.1,1.4,-2.6,2.2,-4.3,2.7c-2.9,.7,-5.7,.7,-8.6,.3c-1.4,-.3,-2.8,-.7,-3.9,-1.5c-.7,-.4,-1.2,-1,-1.8,-1.5Z" class="g7_34"/>
<path d="M55.8,321.1c-.5,.4,-1,.8,-1.5,1.2c-.5,.4,-1.7,1.4,-2.2,1.8c-.3,.2,-.6,.2,-.8,.1l-.3,-.3c-.1,-.3,0,-.5,.2,-.7c.3,-.2,1.4,-1.1,1.7,-1.4c.4,-.3,.9,-.6,1.3,-.9l.4,-.1c.4,.1,.8,.2,1.2,.3Z" class="g7_34"/>
<path d="M66.5,321.1c.5,-.1,.9,-.2,1.3,-.3l.3,.1c.7,.5,2.3,1.7,3,2.3c.1,.1,.3,.2,.3,.4c.1,.2,.1,.5,-.2,.6c-.2,0,-.5,.1,-.7,0c-1.1,-.8,-2.9,-2.2,-4,-3.1Z" class="g7_34"/>
<path d="M61.1,307.8c-1.1,0,-2.1,0,-3.2,0c-2,-.2,-3.5,-1.6,-3.9,-3.6c-.1,-.4,-.2,-.9,-.3,-1.4c-.3,-1.9,1,-3.6,3,-3.6c3,0,6,0,9,0c1.8,0,3.1,1.5,2.9,3.3c-.1,1.1,-.2,2.2,-.8,3.1c-.9,1.4,-2.2,2.2,-3.9,2.2c-.9,0,-1.8,0,-2.8,0Z" class="g7_34"/>
<path d="M65.7,310.5c.3,0,.5,0,.8,0c.4,0,.7,.3,.6,.6c-.5,.9,-1,1.7,-1.5,2.6c-.1,.1,-.3,.2,-.6,.2c-.5,0,-1.1,0,-1.6,0c-.5,0,-.7,-.3,-.5,-.6c.4,-.8,.9,-1.7,1.4,-2.5c.1,-.2,.3,-.3,.7,-.3c.2,0,.5,0,.7,0Z" class="g7_34"/>
<path d="M58.1,313.9c-.2,0,-.5,0,-.7,0c-.3,.1,-.6,-.1,-.7,-.3c-.5,-.8,-.9,-1.6,-1.4,-2.4c-.2,-.4,0,-.7,.6,-.7c.5,0,1,0,1.5,0c.3,0,.5,.1,.6,.3c.5,.8,1,1.7,1.5,2.5c.2,.3,-.1,.6,-.6,.6c-.2,0,-.5,0,-.8,0Z" class="g7_34"/>
<path d="M62.2,318.3c0,.5,-.5,1,-1,1c-.6,0,-1.1,-.4,-1.1,-1c0,-.6,.5,-1.1,1,-1.1c.6,0,1.1,.5,1.1,1.1Z" class="g7_34"/>
<path d="M303.2,617.9V597.6h-.8v20.3Z" class="g3_34"/>
<path d="M303.2,642.8V617.9h-.8v24.9Z" class="g3_34"/>
<path d="M180.3,662.3V642.8h-.8v19.5Z" class="g3_34"/>
<path d="M229.9,662.3V642.8h-.8v19.5Z" class="g3_34"/>
<path d="M303.2,662.3V642.8h-.8v19.5Z" class="g3_34"/>
<path d="M180.3,681.8V662.3h-.8v19.5Z" class="g3_34"/>
<path d="M229.9,681.8V662.3h-.8v19.5Z" class="g3_34"/>
<path d="M303.2,681.8V662.3h-.8v19.5Z" class="g3_34"/>
<path d="M180.3,701.4V681.8h-.8v19.6Z" class="g3_34"/>
<path d="M229.9,701.4V681.8h-.8v19.6Z" class="g3_34"/>
<path d="M303.2,701.4V681.8h-.8v19.6Z" class="g3_34"/>
<path d="M180.3,720.9V701.4h-.8v19.5Z" class="g3_34"/>
<path d="M229.9,720.9V701.4h-.8v19.5Z" class="g3_34"/>
<path d="M303.2,720.9V701.4h-.8v19.5Z" class="g3_34"/>
<path d="M180.3,740.4V720.9h-.8v19.5Z" class="g3_34"/>
<path d="M229.9,740.4V720.9h-.8v19.5Z" class="g3_34"/>
<path d="M303.2,740.4V720.9h-.8v19.5Z" class="g3_34"/>
<path d="M180.3,760V740.4h-.8V760Z" class="g3_34"/>
<path d="M229.9,760V740.4h-.8V760Z" class="g3_34"/>
<path d="M303.2,760V740.4h-.8V760Z" class="g3_34"/>
<path d="M180.3,779.5V760h-.8v19.5Z" class="g3_34"/>
<path d="M229.9,779.5V760h-.8v19.5Z" class="g3_34"/>
<path d="M303.2,779.5V760h-.8v19.5Z" class="g3_34"/>
<path d="M180.3,799V779.5h-.8V799Z" class="g3_34"/>
<path d="M229.9,799V779.5h-.8V799Z" class="g3_34"/>
<path d="M303.2,799V779.5h-.8V799Z" class="g3_34"/>
<path d="M180.3,818.6V799h-.8v19.6Z" class="g3_34"/>
<path d="M229.9,818.6V799h-.8v19.6Z" class="g3_34"/>
<path d="M303.2,818.6V799h-.8v19.6Z" class="g3_34"/>
<path d="M180.3,838.1V818.6h-.8v19.5Z" class="g3_34"/>
<path d="M229.9,838.1V818.6h-.8v19.5Z" class="g3_34"/>
<path d="M303.2,838.1V818.6h-.8v19.5Z" class="g3_34"/>
<path d="M180.3,857.6V838.1h-.8v19.5Z" class="g3_34"/>
<path d="M229.9,857.6V838.1h-.8v19.5Z" class="g3_34"/>
<path d="M303.2,857.6V838.1h-.8v19.5Z" class="g3_34"/>
<path d="M180.3,877.2V857.6h-.8v19.6Z" class="g3_34"/>
<path d="M229.9,877.2V857.6h-.8v19.6Z" class="g3_34"/>
<path d="M303.2,877.2V857.6h-.8v19.6Z" class="g3_34"/>
<path d="M180.3,896.7V877.2h-.8v19.5Z" class="g3_34"/>
<path d="M229.9,896.7V877.2h-.8v19.5Z" class="g3_34"/>
<path d="M303.2,896.7V877.2h-.8v19.5Z" class="g3_34"/>
<path d="M78,618.7H179.9v-1.5H78Z" class="g6_34"/>
<path d="M179.9,618.7h49.6v-1.5H179.9Z" class="g6_34"/>
<path d="M229.5,618.7h72.9v-1.5H229.5Z" class="g6_34"/>
<path d="M61.2,636.5c9.8,0,17.8,-8,17.8,-17.9c0,-9.8,-8,-17.8,-17.8,-17.8c-9.9,0,-17.9,8,-17.9,17.8c0,9.9,8,17.9,17.9,17.9Z" class="g6_34"/>
<path d="M71.6,620.4c0,.7,.2,1.5,.2,2.2c0,2,-1,3.6,-2.7,4.7c-1.3,.8,-2.8,1.2,-4.3,1.2c-2.4,.1,-4.8,.1,-7.2,.1c-1.7,-.1,-3.2,-.5,-4.5,-1.4c-2,-1.4,-2.8,-3.2,-2.5,-5.7c.2,-1.9,.3,-3.9,.4,-5.8c0,-1.8,0,-3.6,-.1,-5.5c0,-2.1,.9,-3.7,2.5,-4.9c1.5,-1.1,3.2,-1.6,5,-1.6c1.9,0,3.8,0,5.7,0c1.6,0,3.2,.5,4.6,1.4c1.9,1.4,2.9,3.2,2.7,5.6c-.1,1.2,0,2.4,0,3.6c-.1,0,.1,4.1,.2,6.1M61.2,604.9v0c-1,0,-1.9,0,-2.9,0c-1.3,0,-2.5,.3,-3.6,1c-1.6,.9,-2.7,2.2,-2.6,4.1c.1,.9,.3,1.7,.6,2.6c.4,1.3,1.1,2.5,2.2,3.5c.2,.2,.2,.6,-.1,.9c-.6,.6,-1.3,1.2,-2.1,1.5c-.6,.1,-.7,.5,-.7,1c-.1,.5,.1,.8,.4,1.2c.8,.8,1.7,1.3,2.7,1.8c1.8,.7,3.7,1,5.6,1c2,0,4.1,-.1,6,-.8c1.4,-.5,2.6,-1.2,3.5,-2.3c0,-.2,.1,-.3,.1,-.5c0,-.3,0,-.7,0,-1l-.2,-.3c-1,-.3,-1.9,-.9,-2.6,-1.6c-.3,-.4,-.3,-.7,0,-1c.4,-.5,.9,-.9,1.2,-1.5c.8,-1.2,1.2,-2.5,1.4,-3.9c.2,-1.2,0,-2.3,-.7,-3.2c-1.2,-1.5,-2.8,-2.3,-4.7,-2.4c-1.1,-.2,-2.3,-.1,-3.5,-.1m-9.4,16.6c-.3,1.6,0,3,1.3,4.2c1.3,1.2,2.8,1.6,4.6,1.7c2.3,0,4.6,0,6.9,0c.8,0,1.6,-.2,2.4,-.4c1.4,-.5,2.5,-1.3,3.2,-2.6c.5,-1,.5,-2,.3,-3h-.1c-1.1,1.4,-2.6,2.2,-4.3,2.7c-2.9,.8,-5.7,.8,-8.6,.3c-1.4,-.3,-2.8,-.7,-3.9,-1.5c-.7,-.4,-1.2,-1,-1.8,-1.4Z" class="g7_34"/>
<path d="M55.8,629c-.5,.4,-1,.7,-1.5,1.1c-.5,.4,-1.7,1.4,-2.2,1.8c-.3,.2,-.6,.2,-.8,.1l-.3,-.3c-.1,-.3,0,-.5,.2,-.7c.3,-.2,1.4,-1.1,1.7,-1.3c.4,-.4,.9,-.7,1.3,-1l.4,-.1c.4,.1,.8,.2,1.2,.4Z" class="g7_34"/>
<path d="M66.5,629c.5,-.2,.9,-.3,1.3,-.4l.3,.1c.7,.5,2.3,1.7,3,2.3c.1,.1,.3,.2,.3,.4c.1,.2,.1,.5,-.2,.6c-.2,.1,-.5,.1,-.7,0c-1.1,-.8,-2.9,-2.2,-4,-3Z" class="g7_34"/>
<path d="M61.1,615.6c-1.1,0,-2.1,.1,-3.2,0c-2,-.2,-3.5,-1.6,-3.9,-3.5c-.1,-.5,-.2,-1,-.3,-1.5c-.3,-1.9,1,-3.6,3,-3.6c3,0,6,0,9,0c1.8,0,3.1,1.5,2.9,3.3c-.1,1.1,-.2,2.2,-.8,3.2c-.9,1.4,-2.2,2.1,-3.9,2.1c-.9,0,-1.8,0,-2.8,0Z" class="g7_34"/>
<path d="M65.7,618.3c.3,0,.5,0,.8,0c.4,0,.7,.3,.6,.6c-.5,.9,-1,1.7,-1.5,2.6c-.1,.2,-.3,.3,-.6,.3c-.5,0,-1.1,0,-1.6,0c-.5,-.1,-.7,-.4,-.5,-.7c.4,-.8,.9,-1.7,1.4,-2.5c.1,-.2,.3,-.3,.7,-.3c.2,0,.5,0,.7,0Z" class="g7_34"/>
<path d="M58.1,621.8c-.2,0,-.5,0,-.7,0c-.3,0,-.6,-.1,-.7,-.4c-.5,-.8,-.9,-1.6,-1.4,-2.4c-.2,-.4,0,-.7,.6,-.7c.5,0,1,0,1.5,0c.3,0,.5,.1,.6,.3c.5,.9,1,1.7,1.5,2.5c.2,.3,-.1,.6,-.6,.7c-.2,0,-.5,0,-.8,0Z" class="g7_34"/>
<path d="M62.2,626.1c0,.5,-.5,1,-1,1c-.6,0,-1.1,-.4,-1.1,-1c0,-.5,.5,-1,1,-1c.6,-.1,1.1,.4,1.1,1Z" class="g7_34"/>
<path d="M218.9,288.5V234.1h-3v54.4Z" class="g3_34"/>
<path d="M43.3,180.6H78v40.5H43.3V180.6Z" class="g3_34"/>
<image x="77" y="180" width="226" height="42" xlink:href="shade/1.png"/>
<path d="M78,201.8H302.8v-1.5H78Z" class="g6_34"/>
<path d="M61.2,219.6c9.8,0,17.8,-8,17.8,-17.9c0,-9.8,-8,-17.8,-17.8,-17.8c-9.9,0,-17.9,8,-17.9,17.8c0,9.9,8,17.9,17.9,17.9Z" class="g6_34"/>
<path d="M71.6,203.5c0,.7,.2,1.5,.2,2.2c0,2,-1,3.5,-2.7,4.6c-1.3,.9,-2.8,1.3,-4.3,1.3c-2.4,.1,-4.8,.1,-7.2,0c-1.7,0,-3.2,-.4,-4.5,-1.3c-2,-1.4,-2.8,-3.3,-2.5,-5.7c.2,-1.9,.3,-3.9,.4,-5.8c0,-1.8,0,-3.7,-.1,-5.5c0,-2.1,.9,-3.7,2.5,-4.9c1.5,-1.1,3.2,-1.6,5,-1.6c1.9,0,3.8,-.1,5.7,0c1.6,0,3.2,.5,4.6,1.4c1.9,1.4,2.9,3.2,2.7,5.6c-.1,1.2,0,2.4,0,3.6c-.1,0,.1,4.1,.2,6.1M61.2,188v0c-1,0,-1.9,-.1,-2.9,0c-1.3,0,-2.5,.3,-3.6,1c-1.6,.9,-2.7,2.2,-2.6,4.1c.1,.9,.3,1.7,.6,2.6c.4,1.3,1.1,2.5,2.2,3.5c.2,.2,.2,.5,-.1,.8c-.6,.7,-1.3,1.3,-2.1,1.5c-.6,.2,-.7,.5,-.7,1.1c-.1,.4,.1,.8,.4,1.1c.8,.8,1.7,1.4,2.7,1.8c1.8,.8,3.7,1,5.6,1.1c2,0,4.1,-.2,6,-.9c1.4,-.4,2.6,-1.1,3.5,-2.3c0,-.1,.1,-.2,.1,-.4c0,-.3,0,-.7,0,-1l-.2,-.3c-1.1,-.3,-1.9,-.9,-2.6,-1.7c-.3,-.3,-.3,-.6,0,-.9c.4,-.5,.9,-.9,1.2,-1.5c.8,-1.2,1.2,-2.6,1.4,-4c.2,-1.1,0,-2.2,-.7,-3.1C68.2,189,66.6,188.2,64.7,188c-1.1,-.1,-2.3,0,-3.5,0m-9.4,16.5c-.3,1.6,0,3.1,1.3,4.2c1.3,1.2,2.8,1.7,4.6,1.7c2.3,.1,4.6,0,6.9,0c.8,0,1.6,-.1,2.4,-.3c1.4,-.5,2.5,-1.3,3.2,-2.7c.5,-.9,.5,-1.9,.3,-2.9h-.1c-1.1,1.4,-2.6,2.2,-4.3,2.7c-2.9,.7,-5.7,.7,-8.6,.3c-1.4,-.3,-2.8,-.7,-3.9,-1.5c-.7,-.4,-1.2,-1,-1.8,-1.5Z" class="g7_34"/>
<path d="M55.8,212c-.5,.4,-1,.8,-1.5,1.2c-.5,.4,-1.7,1.4,-2.2,1.8c-.3,.2,-.6,.2,-.8,.1l-.3,-.3c-.1,-.3,0,-.5,.2,-.7c.3,-.2,1.4,-1.1,1.7,-1.4c.4,-.3,.9,-.6,1.3,-.9l.4,-.1c.4,.1,.8,.2,1.2,.3Z" class="g7_34"/>
<path d="M66.5,212c.5,-.1,.9,-.2,1.3,-.3l.3,.1c.7,.5,2.3,1.7,3,2.3c.1,.1,.3,.2,.3,.4c.1,.2,.1,.5,-.2,.6c-.2,0,-.5,.1,-.7,0c-1.1,-.8,-2.9,-2.2,-4,-3.1Z" class="g7_34"/>
<path d="M61.1,198.7c-1.1,0,-2.1,0,-3.2,0c-2,-.2,-3.5,-1.6,-3.9,-3.6c-.1,-.4,-.2,-.9,-.3,-1.4c-.3,-1.9,1,-3.6,3,-3.6c3,0,6,0,9,0c1.8,0,3.1,1.5,2.9,3.3c-.1,1.1,-.2,2.2,-.8,3.1c-.9,1.4,-2.2,2.2,-3.9,2.2c-.9,0,-1.8,0,-2.8,0Z" class="g7_34"/>
<path d="M65.7,201.4c.3,0,.5,0,.8,0c.4,0,.7,.3,.6,.6c-.5,.9,-1,1.7,-1.5,2.6c-.1,.1,-.3,.2,-.6,.2c-.5,0,-1.1,0,-1.6,0c-.5,0,-.7,-.3,-.5,-.6c.4,-.8,.9,-1.7,1.4,-2.5c.1,-.2,.3,-.3,.7,-.3c.2,0,.5,0,.7,0Z" class="g7_34"/>
<path d="M58.1,204.8c-.2,0,-.5,0,-.7,0c-.3,.1,-.6,-.1,-.7,-.3c-.5,-.8,-.9,-1.6,-1.4,-2.4c-.2,-.4,0,-.7,.6,-.7c.5,0,1,0,1.5,0c.3,0,.5,.1,.6,.3c.5,.8,1,1.7,1.5,2.5c.2,.3,-.1,.6,-.6,.6c-.2,0,-.5,0,-.8,0Z" class="g7_34"/>
<path d="M62.2,209.2c0,.5,-.5,1,-1,1c-.6,0,-1.1,-.4,-1.1,-1c0,-.6,.5,-1.1,1,-1.1c.6,0,1.1,.5,1.1,1.1Z" class="g7_34"/>
<path d="M324.8,331.5H866.1v-2.3H324.8v2.3Z" class="g8_34"/>
<image clip-path="url(#c2_34)" preserveAspectRatio="none" x="505" y="307" width="98" height="30" xlink:href="img/3.jpg"/>
<image clip-path="url(#c3_34)" preserveAspectRatio="none" x="505" y="235" width="89" height="73" xlink:href="img/4.jpg"/>
<image clip-path="url(#c4_34)" preserveAspectRatio="none" x="505" y="328" width="89" height="4" xlink:href="img/5.jpg"/>
<path d="M530.1,248.2c-10.1,0,-18.3,8.2,-18.3,18.3v64.2h79V266.5c0,-10.1,-8.2,-18.3,-18.4,-18.3Z" class="g3_34"/>
<path d="M511.7,331.5h79.1v-7.1H511.7v7.1Z" class="g8_34"/>
<path d="M517.9,274.4h2.6c.2,0,.3,-.2,.3,-.4c0,-.2,-.1,-.4,-.3,-.4h-2.6c-.2,0,-.4,.2,-.4,.4c0,.2,.2,.4,.4,.4m4.3,0h2.6c.2,0,.4,-.2,.4,-.4c0,-.2,-.2,-.4,-.4,-.4h-2.6c-.2,0,-.3,.2,-.3,.4c0,.2,.1,.4,.3,.4m4.3,0h2.6c.2,0,.4,-.2,.4,-.4c0,-.2,-.2,-.4,-.4,-.4h-2.6c-.2,0,-.3,.2,-.3,.4c0,.2,.1,.4,.3,.4m4.4,0h2.5c.2,0,.4,-.2,.4,-.4c0,-.2,-.2,-.4,-.4,-.4h-2.5c-.3,0,-.4,.2,-.4,.4c0,.2,.1,.4,.4,.4Z" class="g6_34"/>
<path d="M569.4,306.6h2.3c.2,0,.3,-.2,.3,-.4c0,-.2,-.1,-.4,-.3,-.4h-2.3c-.2,0,-.3,.2,-.3,.4c0,.2,.1,.4,.3,.4m3.7,0h2.2c.2,0,.4,-.2,.4,-.4c0,-.2,-.2,-.4,-.4,-.4h-2.2c-.2,0,-.4,.2,-.4,.4c0,.2,.2,.4,.4,.4m3.6,0h2.2c.3,0,.4,-.2,.4,-.4c0,-.2,-.1,-.4,-.4,-.4h-2.2c-.2,0,-.3,.2,-.3,.4c0,.2,.1,.4,.3,.4m3.7,0h2.2c.2,0,.4,-.2,.4,-.4c0,-.2,-.2,-.4,-.4,-.4h-2.2c-.2,0,-.4,.2,-.4,.4c0,.2,.2,.4,.4,.4m3.6,0h2.2c.2,0,.4,-.2,.4,-.4c0,-.2,-.2,-.4,-.4,-.4H584c-.2,0,-.3,.2,-.3,.4c0,.2,.1,.4,.3,.4Z" class="g6_34"/>
<path d="M568.6,274.4h2.3c.2,0,.4,-.2,.4,-.4c0,-.2,-.2,-.4,-.4,-.4h-2.3c-.2,0,-.4,.2,-.4,.4c0,.2,.2,.4,.4,.4m3.8,0h2.3c.2,0,.4,-.2,.4,-.4c0,-.2,-.2,-.4,-.4,-.4h-2.3c-.2,0,-.4,.2,-.4,.4c0,.2,.2,.4,.4,.4m3.9,0h2.3c.2,0,.3,-.2,.3,-.4c0,-.2,-.1,-.4,-.3,-.4h-2.3c-.3,0,-.4,.2,-.4,.4c0,.2,.1,.4,.4,.4m3.8,0h2.3c.2,0,.4,-.2,.4,-.4c0,-.2,-.2,-.4,-.4,-.4h-2.3c-.2,0,-.4,.2,-.4,.4c0,.2,.2,.4,.4,.4m3.8,0h2.3c.2,0,.4,-.2,.4,-.4c0,-.2,-.2,-.4,-.4,-.4h-2.3c-.2,0,-.3,.2,-.3,.4c0,.2,.1,.4,.3,.4Z" class="g6_34"/>
<path d="M564.7,291.7c.1,1,.3,1.9,.3,2.8c-.1,2.7,-1.3,4.6,-3.5,6c-1.7,1.2,-3.6,1.7,-5.6,1.7c-3.1,0,-6.2,.1,-9.3,0c-2.1,0,-4.1,-.5,-5.8,-1.7c-2.5,-1.8,-3.6,-4.2,-3.2,-7.3c.3,-2.5,.4,-5.1,.5,-7.6c0,-2.3,0,-4.7,-.1,-7c0,-2.7,1.1,-4.8,3.3,-6.4c1.8,-1.4,4,-2,6.3,-2.1c2.5,0,4.9,0,7.4,0c2.1,.1,4.2,.7,5.9,1.9c2.6,1.7,3.8,4.1,3.5,7.2c-.1,1.6,0,3.1,0,4.7c0,0,.1,5.2,.3,7.8m-13.4,-20v0c-1.3,0,-2.5,-.1,-3.7,0c-1.7,0,-3.3,.4,-4.7,1.3c-2,1.2,-3.4,2.9,-3.3,5.3c.1,1.1,.4,2.2,.7,3.3c.6,1.7,1.4,3.3,2.8,4.5c.4,.4,.3,.8,0,1.1c-.8,.9,-1.7,1.7,-2.8,2c-.7,.2,-.9,.6,-.9,1.3c-.1,.6,.1,1.1,.5,1.5c1,1.1,2.2,1.8,3.5,2.4c2.3,.9,4.7,1.2,7.2,1.3c2.7,0,5.3,-.2,7.8,-1.1c1.7,-.6,3.3,-1.5,4.4,-3c.2,-.1,.3,-.3,.3,-.5c0,-.5,0,-.9,-.1,-1.3l-.3,-.4c-1.3,-.4,-2.4,-1.2,-3.3,-2.2c-.4,-.3,-.3,-.8,0,-1.2c.6,-.6,1.2,-1.2,1.6,-1.9c1,-1.5,1.5,-3.3,1.8,-5.1c.3,-1.5,-.1,-2.9,-1,-4.1c-1.5,-2,-3.6,-2.9,-5.9,-3.1c-1.6,-.2,-3.1,-.1,-4.6,-.1m-12.1,21.4c-.5,2,0,3.9,1.6,5.4c1.7,1.5,3.7,2.2,5.9,2.2c3,0,6,0,9,0c1,0,2,-.2,3,-.5c1.8,-.6,3.3,-1.6,4.2,-3.4c.6,-1.2,.6,-2.5,.3,-3.8h-.1c-1.4,1.9,-3.3,2.9,-5.5,3.5c-3.7,.9,-7.4,.9,-11.1,.3c-1.8,-.3,-3.6,-.8,-5.1,-1.9c-.8,-.5,-1.5,-1.2,-2.2,-1.8Z" class="g6_34"/>
<path d="M544.3,302.8c-.7,.5,-1.3,.9,-1.9,1.4c-.6,.5,-2.3,1.8,-2.9,2.3c-.3,.3,-.7,.3,-1,.2c-.2,0,-.4,-.3,-.4,-.4c-.1,-.4,0,-.7,.3,-.9c.4,-.3,1.8,-1.4,2.2,-1.7c.5,-.5,1.1,-.9,1.7,-1.3c.1,-.1,.3,-.1,.5,-.1c.5,.1,1,.3,1.5,.5Z" class="g6_34"/>
<path d="M558.1,302.8c.7,-.2,1.2,-.4,1.7,-.6l.4,.2c1,.7,3,2.2,3.9,3c.2,.1,.3,.3,.4,.5c.1,.3,0,.6,-.3,.7c-.2,.1,-.7,.2,-.9,.1c-1.4,-1,-3.7,-2.9,-5.2,-3.9Z" class="g6_34"/>
<path d="M551.2,285.5c-1.4,0,-2.8,.1,-4.2,0c-2.5,-.2,-4.5,-2,-5,-4.6c-.1,-.6,-.2,-1.2,-.3,-1.8c-.5,-2.5,1.2,-4.7,3.7,-4.7c3.9,0,7.8,0,11.6,0c2.4,0,4.2,1.9,3.8,4.3c-.1,1.4,-.3,2.8,-1,4c-1.2,1.9,-2.8,2.8,-5,2.8c-1.2,0,-2.4,0,-3.6,0Z" class="g6_34"/>
<path d="M557.1,289c.3,0,.7,0,1,0c.6,0,1,.4,.7,.8c-.6,1.1,-1.2,2.2,-1.9,3.3c-.1,.2,-.4,.3,-.7,.3c-.7,.1,-1.4,.1,-2.1,0c-.6,0,-.9,-.3,-.7,-.8c.6,-1.1,1.2,-2.1,1.9,-3.2c.1,-.3,.4,-.4,.8,-.4c.4,0,.7,0,1,0Z" class="g6_34"/>
<path d="M547.3,293.5c-.3,0,-.6,-.1,-.9,0c-.5,0,-.8,-.2,-.9,-.5c-.6,-1,-1.2,-2.1,-1.8,-3.1c-.3,-.5,0,-.9,.7,-.9c.7,0,1.3,0,1.9,0c.5,0,.7,.1,.9,.4c.6,1.1,1.2,2.1,1.9,3.2c.2,.4,-.1,.8,-.7,.8c-.4,.1,-.7,0,-1.1,0Z" class="g6_34"/>
<path d="M552.6,299c0,.8,-.6,1.4,-1.4,1.4c-.7,0,-1.3,-.6,-1.3,-1.3c0,-.7,.6,-1.4,1.3,-1.4c.7,0,1.4,.6,1.4,1.3Z" class="g6_34"/>
<path d="M517.9,306.6h2.2c.2,0,.4,-.2,.4,-.4c0,-.2,-.2,-.4,-.4,-.4h-2.2c-.2,0,-.4,.2,-.4,.4c0,.2,.2,.4,.4,.4m3.7,0h2.2c.2,0,.4,-.2,.4,-.4c0,-.2,-.2,-.4,-.4,-.4h-2.2c-.2,0,-.4,.2,-.4,.4c0,.2,.2,.4,.4,.4m3.6,0h2.2c.2,0,.4,-.2,.4,-.4c0,-.2,-.2,-.4,-.4,-.4h-2.2c-.2,0,-.4,.2,-.4,.4c0,.2,.2,.4,.4,.4m3.7,0h2.2c.2,0,.3,-.2,.3,-.4c0,-.2,-.1,-.4,-.3,-.4h-2.2c-.3,0,-.4,.2,-.4,.4c0,.2,.1,.4,.4,.4m3.6,0h2.2c.2,0,.4,-.2,.4,-.4c0,-.2,-.2,-.4,-.4,-.4h-2.2c-.2,0,-.4,.2,-.4,.4c0,.2,.2,.4,.4,.4Z" class="g6_34"/>
<image clip-path="url(#c5_34)" preserveAspectRatio="none" x="769" y="307" width="98" height="30" xlink:href="img/6.jpg"/>
<image clip-path="url(#c6_34)" preserveAspectRatio="none" x="778" y="235" width="89" height="73" xlink:href="img/7.jpg"/>
<image clip-path="url(#c7_34)" preserveAspectRatio="none" x="778" y="328" width="89" height="4" xlink:href="img/8.jpg"/>
<image clip-path="url(#c8_34)" preserveAspectRatio="none" x="779" y="253" width="73" height="4" xlink:href="img/9.jpg"/>
<path d="M794.4,248.2c-10.1,0,-18.3,8.2,-18.3,18.3v64.2h79V266.5c0,-10.1,-8.2,-18.3,-18.3,-18.3Z" class="g3_34"/>
<path d="M776,331.5h79.1v-7.1H776v7.1Z" class="g8_34"/>
<path d="M781.4,306.6h2.4c.2,0,.3,-.2,.3,-.4c0,-.2,-.1,-.4,-.3,-.4h-2.4c-.2,0,-.3,.2,-.3,.4c0,.2,.1,.4,.3,.4m3.9,0h2.3c.3,0,.4,-.2,.4,-.4c0,-.2,-.1,-.4,-.4,-.4h-2.3c-.2,0,-.4,.2,-.4,.4c0,.2,.2,.4,.4,.4m3.9,0h2.3c.2,0,.4,-.2,.4,-.4c0,-.2,-.2,-.4,-.4,-.4h-2.3c-.2,0,-.4,.2,-.4,.4c0,.2,.2,.4,.4,.4m3.9,0h2.3c.2,0,.4,-.2,.4,-.4c0,-.2,-.2,-.4,-.4,-.4h-2.3c-.2,0,-.4,.2,-.4,.4c0,.2,.2,.4,.4,.4m3.9,0h2.3c.2,0,.4,-.2,.4,-.4c0,-.2,-.2,-.4,-.4,-.4H797c-.2,0,-.4,.2,-.4,.4c0,.2,.2,.4,.4,.4m3.8,0h2.4c.2,0,.4,-.2,.4,-.4c0,-.2,-.2,-.4,-.4,-.4h-2.4c-.2,0,-.3,.2,-.3,.4c0,.2,.1,.4,.3,.4m3.9,0h2.4c.2,0,.3,-.2,.3,-.4c0,-.2,-.1,-.4,-.3,-.4h-2.4c-.2,0,-.4,.2,-.4,.4c0,.2,.2,.4,.4,.4m3.9,0h2.3c.2,0,.4,-.2,.4,-.4c0,-.2,-.2,-.4,-.4,-.4h-2.3c-.2,0,-.4,.2,-.4,.4c0,.2,.2,.4,.4,.4m3.9,0h2.3c.2,0,.4,-.2,.4,-.4c0,-.2,-.2,-.4,-.4,-.4h-2.3c-.2,0,-.4,.2,-.4,.4c0,.2,.2,.4,.4,.4m3.9,0h2.3c.2,0,.4,-.2,.4,-.4c0,-.2,-.2,-.4,-.4,-.4h-2.3c-.2,0,-.4,.2,-.4,.4c0,.2,.2,.4,.4,.4m3.9,0h2.3c.2,0,.4,-.2,.4,-.4c0,-.2,-.2,-.4,-.4,-.4h-2.3c-.3,0,-.4,.2,-.4,.4c0,.2,.1,.4,.4,.4m3.8,0h2.4c.2,0,.3,-.2,.3,-.4c0,-.2,-.1,-.4,-.3,-.4h-2.4c-.2,0,-.3,.2,-.3,.4c0,.2,.1,.4,.3,.4m3.9,0h2.3c.3,0,.4,-.2,.4,-.4c0,-.2,-.1,-.4,-.4,-.4H828c-.2,0,-.4,.2,-.4,.4c0,.2,.2,.4,.4,.4m3.9,0h2.3c.2,0,.4,-.2,.4,-.4c0,-.2,-.2,-.4,-.4,-.4h-2.3c-.2,0,-.4,.2,-.4,.4c0,.2,.2,.4,.4,.4m3.9,0h2.3c.2,0,.4,-.2,.4,-.4c0,-.2,-.2,-.4,-.4,-.4h-2.3c-.2,0,-.4,.2,-.4,.4c0,.2,.2,.4,.4,.4m3.9,0H842c.2,0,.4,-.2,.4,-.4c0,-.2,-.2,-.4,-.4,-.4h-2.3c-.2,0,-.4,.2,-.4,.4c0,.2,.2,.4,.4,.4m3.8,0h2.4c.2,0,.4,-.2,.4,-.4c0,-.2,-.2,-.4,-.4,-.4h-2.4c-.2,0,-.3,.2,-.3,.4c0,.2,.1,.4,.3,.4m3.9,0h2.4c.2,0,.3,-.2,.3,-.4c0,-.2,-.1,-.4,-.3,-.4h-2.4c-.2,0,-.4,.2,-.4,.4c0,.2,.2,.4,.4,.4Z" class="g9_34"/>
<path d="M780.8,270.2h2.3c.2,0,.4,-.2,.4,-.4c0,-.2,-.2,-.4,-.4,-.4h-2.3c-.2,0,-.4,.2,-.4,.4c0,.2,.2,.4,.4,.4m3.9,0H787c.2,0,.4,-.2,.4,-.4c0,-.2,-.2,-.4,-.4,-.4h-2.3c-.2,0,-.4,.2,-.4,.4c0,.2,.2,.4,.4,.4m3.9,0h2.3c.2,0,.4,-.2,.4,-.4c0,-.2,-.2,-.4,-.4,-.4h-2.3c-.3,0,-.4,.2,-.4,.4c0,.2,.1,.4,.4,.4m3.8,0h2.4c.2,0,.3,-.2,.3,-.4c0,-.2,-.1,-.4,-.3,-.4h-2.4c-.2,0,-.3,.2,-.3,.4c0,.2,.1,.4,.3,.4m3.9,0h2.3c.2,0,.4,-.2,.4,-.4c0,-.2,-.2,-.4,-.4,-.4h-2.3c-.2,0,-.4,.2,-.4,.4c0,.2,.2,.4,.4,.4m3.9,0h2.3c.2,0,.4,-.2,.4,-.4c0,-.2,-.2,-.4,-.4,-.4h-2.3c-.2,0,-.4,.2,-.4,.4c0,.2,.2,.4,.4,.4m3.9,0h2.3c.2,0,.4,-.2,.4,-.4c0,-.2,-.2,-.4,-.4,-.4h-2.3c-.2,0,-.4,.2,-.4,.4c0,.2,.2,.4,.4,.4m3.9,0h2.3c.2,0,.4,-.2,.4,-.4c0,-.2,-.2,-.4,-.4,-.4H808c-.2,0,-.4,.2,-.4,.4c0,.2,.2,.4,.4,.4m3.8,0h2.4c.2,0,.3,-.2,.3,-.4c0,-.2,-.1,-.4,-.3,-.4h-2.4c-.2,0,-.3,.2,-.3,.4c0,.2,.1,.4,.3,.4m3.9,0H818c.3,0,.4,-.2,.4,-.4c0,-.2,-.1,-.4,-.4,-.4h-2.3c-.2,0,-.4,.2,-.4,.4c0,.2,.2,.4,.4,.4m3.9,0h2.3c.2,0,.4,-.2,.4,-.4c0,-.2,-.2,-.4,-.4,-.4h-2.3c-.2,0,-.4,.2,-.4,.4c0,.2,.2,.4,.4,.4m3.9,0h2.3c.2,0,.4,-.2,.4,-.4c0,-.2,-.2,-.4,-.4,-.4h-2.3c-.2,0,-.4,.2,-.4,.4c0,.2,.2,.4,.4,.4m3.9,0h2.3c.2,0,.4,-.2,.4,-.4c0,-.2,-.2,-.4,-.4,-.4h-2.3c-.2,0,-.4,.2,-.4,.4c0,.2,.2,.4,.4,.4m3.9,0h2.3c.2,0,.4,-.2,.4,-.4c0,-.2,-.2,-.4,-.4,-.4h-2.3c-.3,0,-.4,.2,-.4,.4c0,.2,.1,.4,.4,.4m3.8,0h2.4c.2,0,.3,-.2,.3,-.4c0,-.2,-.1,-.4,-.3,-.4h-2.4c-.2,0,-.3,.2,-.3,.4c0,.2,.1,.4,.3,.4m3.9,0h2.3c.3,0,.4,-.2,.4,-.4c0,-.2,-.1,-.4,-.4,-.4H839c-.2,0,-.4,.2,-.4,.4c0,.2,.2,.4,.4,.4m3.9,0h2.3c.2,0,.4,-.2,.4,-.4c0,-.2,-.2,-.4,-.4,-.4h-2.3c-.2,0,-.4,.2,-.4,.4c0,.2,.2,.4,.4,.4m3.9,0h2.3c.2,0,.4,-.2,.4,-.4c0,-.2,-.2,-.4,-.4,-.4h-2.3c-.2,0,-.4,.2,-.4,.4c0,.2,.2,.4,.4,.4Z" class="g9_34"/>
<path d="M829.5,287v.7h4.6c1.1,0,2,-.9,2,-2v-.4c0,-1.2,-.9,-2.1,-2,-2.1h-4.6c-.5,0,-1,.2,-1.4,.6c-.1,.1,-.2,.3,-.2,.5v.2c0,.2,-.1,.4,-.2,.5c-.2,.1,-.3,.3,-.3,.5v.2c0,1.1,1,2,2.1,2v-1.4c-.4,0,-.7,-.3,-.7,-.6v-.2h-.7l.5,.5c.4,-.3,.7,-.9,.7,-1.5v-.2h-.7l.4,.5c.2,-.1,.3,-.2,.5,-.2h4.6c.3,0,.6,.3,.6,.7v.4c0,.3,-.3,.6,-.6,.6h-4.6Z" class="g9_34"/>
<path d="M828.6,277.7l-.5,.5c.4,.3,.9,.5,1.4,.5h4.6c1.1,0,2,-.9,2,-2v-.4c0,-1.1,-.9,-2,-2,-2h-4.6c-1.1,0,-2.1,.9,-2.1,2v.2c0,.1,.1,.3,.3,.5c.1,.1,.2,.3,.2,.5v.2c0,.2,.1,.4,.2,.5l.5,-.5h.7v-.2c0,-.6,-.3,-1.2,-.7,-1.6l-.5,.6h.7v-.2c0,-.4,.3,-.7,.7,-.7h4.6c.3,0,.6,.3,.6,.7v.4c0,.4,-.3,.7,-.6,.7h-4.6c-.2,0,-.3,-.1,-.5,-.2l-.4,.5h.7Z" class="g9_34"/>
<path d="M835.1,286.5v.7H837c1,0,1.8,-.8,1.8,-1.8v-8.8c0,-1,-.8,-1.8,-1.8,-1.8h-1.8c-.3,0,-.5,.2,-.7,.4c-.1,.2,-.1,.5,.1,.7c.1,.1,.1,.2,.1,.4v.4c0,.4,-.3,.7,-.6,.7h-4.6c-.2,0,-.3,-.1,-.5,-.2c-.2,-.2,-.4,-.3,-.7,-.1c-.2,.1,-.4,.3,-.4,.6v6.6c0,.2,.2,.5,.4,.6c.3,.1,.5,.1,.7,-.1c.2,-.1,.3,-.2,.5,-.2h4.6c.3,0,.6,.3,.6,.7v.4c0,.1,0,.2,-.1,.4c-.2,.2,-.2,.5,-.1,.7c.1,.2,.3,.4,.6,.4v-.7l.5,.4c.3,-.3,.5,-.8,.5,-1.2v-.4c0,-1.2,-.9,-2.1,-2,-2.1h-4.6c-.5,0,-1,.2,-1.4,.6l.5,.5h.7v-6.6h-.7l-.5,.5c.4,.3,.9,.5,1.4,.5h4.6c1.1,0,2,-.9,2,-2v-.4c0,-.5,-.2,-.9,-.4,-1.2l-.5,.4v.7H837c.2,0,.4,.2,.4,.4v8.8c0,.2,-.2,.4,-.4,.4h-1.9v.7l.5,.4Z" class="g9_34"/>
<path d="M828.6,277.5h.7c0,-1.2,-.9,-2.1,-2.1,-2.1h-.7c-1.1,0,-2,.9,-2,2.1v7c0,1.2,.9,2.1,2,2.1h.7c1.2,0,2.1,-.9,2.1,-2.1v-7h-1.4v7c0,.4,-.3,.7,-.7,.7h-.7c-.3,0,-.6,-.3,-.6,-.7v-7c0,-.4,.3,-.7,.6,-.7h.7c.4,0,.7,.3,.7,.7Z" class="g9_34"/>
<path d="M829.5,299.8v.7h4.6c1.1,0,2,-.9,2,-2.1V298c0,-1.1,-.9,-2,-2,-2h-4.6c-.5,0,-1,.2,-1.4,.5c-.1,.2,-.2,.3,-.2,.5v.3c0,.2,-.1,.4,-.2,.5c-.2,.1,-.3,.3,-.3,.5v.1c0,1.2,1,2.1,2.1,2.1v-1.4c-.4,0,-.7,-.3,-.7,-.7v-.1h-.7l.5,.5c.4,-.4,.7,-.9,.7,-1.5V297h-.7l.4,.6c.2,-.2,.3,-.2,.5,-.2h4.6c.3,0,.6,.3,.6,.6v.4c0,.4,-.3,.7,-.6,.7h-4.6Z" class="g9_34"/>
<path d="M828.6,290.5l-.5,.5c.4,.3,.9,.5,1.4,.5h4.6c1.1,0,2,-.9,2,-2v-.4c0,-1.2,-.9,-2.1,-2,-2.1h-4.6c-1.1,0,-2.1,.9,-2.1,2.1v.1c0,.2,.1,.4,.3,.5c.1,.2,.2,.3,.2,.5v.3c0,.2,.1,.3,.2,.5l.5,-.5h.7v-.3c0,-.6,-.3,-1.1,-.7,-1.5l-.5,.5h.7v-.1c0,-.4,.3,-.7,.7,-.7h4.6c.3,0,.6,.3,.6,.7v.4c0,.3,-.3,.6,-.6,.6h-4.6c-.2,0,-.3,0,-.5,-.1l-.4,.5h.7Z" class="g9_34"/>
<path d="M835.1,299.3v.7H837c1,0,1.8,-.8,1.8,-1.8v-8.8c0,-1,-.8,-1.8,-1.8,-1.8h-1.8c-.3,0,-.5,.1,-.7,.4c-.1,.2,-.1,.5,.1,.7c.1,.1,.1,.2,.1,.4v.4c0,.3,-.3,.6,-.6,.6h-4.6c-.2,0,-.3,0,-.5,-.1c-.2,-.2,-.4,-.3,-.7,-.2c-.2,.1,-.4,.4,-.4,.7V297c0,.3,.2,.6,.4,.7c.3,.1,.5,0,.7,-.1c.2,-.2,.3,-.2,.5,-.2h4.6c.3,0,.6,.3,.6,.6v.4c0,.2,0,.3,-.1,.5c-.2,.2,-.2,.4,-.1,.7c.1,.2,.3,.4,.6,.4v-.7l.5,.4c.3,-.3,.5,-.8,.5,-1.3V298c0,-1.1,-.9,-2,-2,-2h-4.6c-.5,0,-1,.2,-1.4,.5l.5,.5h.7v-6.5h-.7l-.5,.5c.4,.3,.9,.5,1.4,.5h4.6c1.1,0,2,-.9,2,-2v-.4c0,-.5,-.2,-.9,-.4,-1.2l-.5,.4v.7H837c.2,0,.4,.2,.4,.4v8.8c0,.2,-.2,.4,-.4,.4h-1.9v.7l.5,.4Z" class="g9_34"/>
<path d="M828.6,290.2h.7c0,-1.1,-.9,-2,-2.1,-2h-.7c-1.1,0,-2,.9,-2,2v7.1c0,1.1,.9,2,2,2h.7c1.2,0,2.1,-.9,2.1,-2v-7.1h-1.4v7.1c0,.4,-.3,.7,-.7,.7h-.7c-.3,0,-.6,-.3,-.6,-.7v-7.1c0,-.3,.3,-.6,.6,-.6h.7c.4,0,.7,.3,.7,.6Z" class="g9_34"/>
<path d="M814.2,286.2h3.2c.5,0,.9,-.3,.9,-.6v-.2c0,-.3,-.4,-.5,-.9,-.5h-3.2c-.2,0,-.5,0,-.6,.1v.1c0,.2,-.2,.4,-.3,.5c0,.3,.4,.6,.9,.6Z" class="g9_34"/>
<path d="M813.7,276.3c.2,.1,.4,.2,.6,.2h3.4c.5,0,.9,-.3,.9,-.6v-.2c0,-.3,-.4,-.6,-.9,-.6h-3.4c-.5,0,-.9,.3,-.9,.6v.1c.2,.1,.3,.3,.3,.4Z" class="g9_34"/>
<path d="M819.5,286.2h1.8c.6,0,1.1,-.5,1.1,-1.1v-8.8c0,-.6,-.5,-1.1,-1.1,-1.1h-1.7c.1,.2,.2,.5,.2,.8v.4c0,.7,-.6,1.3,-1.3,1.3h-4.3c-.4,0,-.7,-.1,-.9,-.3V284c.2,-.3,.5,-.4,.9,-.4h4.3c.7,0,1.3,.6,1.3,1.4v.4c0,.3,-.1,.6,-.3,.8Z" class="g9_34"/>
<path d="M812,277.9c0,-.6,-.5,-1.1,-1.1,-1.1c-.6,0,-1.1,.5,-1.1,1.1v5.6c0,.6,.5,1,1.1,1c.6,0,1.1,-.4,1.1,-1Z" class="g9_34"/>
<path d="M813.8,299.8v.7h4.5c1.1,0,2.1,-.9,2.1,-2.1V298c0,-1.1,-1,-2,-2.1,-2h-4.5c-.6,0,-1.1,.2,-1.4,.5c-.2,.2,-.2,.3,-.2,.5v.3c0,.2,-.1,.4,-.3,.5c-.1,.1,-.2,.3,-.2,.5v.1c0,1.2,.9,2.1,2.1,2.1v-1.4c-.4,0,-.7,-.3,-.7,-.7v-.1h-.7l.5,.5c.4,-.4,.6,-.9,.6,-1.5V297h-.7l.5,.6c.1,-.2,.3,-.2,.5,-.2h4.5c.4,0,.7,.3,.7,.6v.4c0,.4,-.3,.7,-.7,.7h-4.5Z" class="g9_34"/>
<path d="M812.8,290.5l-.4,.5c.3,.3,.8,.5,1.4,.5h4.5c1.1,0,2.1,-.9,2.1,-2v-.4c0,-1.2,-1,-2.1,-2.1,-2.1h-4.5c-1.2,0,-2.1,.9,-2.1,2.1v.1c0,.2,.1,.4,.2,.5c.2,.2,.3,.3,.3,.5v.3c0,.2,0,.3,.2,.5l.4,-.5h.7v-.3c0,-.6,-.2,-1.1,-.6,-1.5l-.5,.5h.7v-.1c0,-.4,.3,-.7,.7,-.7h4.5c.4,0,.7,.3,.7,.7v.4c0,.3,-.3,.6,-.7,.6h-4.5c-.2,0,-.4,0,-.5,-.1l-.5,.5h.7Z" class="g9_34"/>
<path d="M819.4,299.3v.7h1.9c1,0,1.8,-.8,1.8,-1.8v-8.8c0,-1,-.8,-1.8,-1.8,-1.8h-1.9c-.2,0,-.5,.1,-.6,.4c-.1,.2,-.1,.5,.1,.7c0,.1,.1,.2,.1,.4v.4c0,.3,-.3,.6,-.7,.6h-4.5c-.2,0,-.4,0,-.5,-.1c-.2,-.2,-.5,-.3,-.7,-.2c-.3,.1,-.4,.4,-.4,.7V297c0,.3,.1,.6,.4,.7c.2,.1,.5,0,.7,-.1c.1,-.2,.3,-.2,.5,-.2h4.5c.4,0,.7,.3,.7,.6v.4c0,.2,-.1,.3,-.2,.5c-.1,.2,-.2,.4,-.1,.7c.2,.2,.4,.4,.7,.4v-.7l.5,.4c.3,-.3,.5,-.8,.5,-1.3V298c0,-1.1,-1,-2,-2.1,-2h-4.5c-.6,0,-1.1,.2,-1.4,.5l.4,.5h.7v-6.5h-.7l-.4,.5c.3,.3,.8,.5,1.4,.5h4.5c1.1,0,2.1,-.9,2.1,-2v-.4c0,-.5,-.2,-.9,-.4,-1.2l-.6,.4v.7h1.9c.2,0,.4,.2,.4,.4v8.8c0,.2,-.2,.4,-.4,.4h-1.9v.7l.5,.4Z" class="g9_34"/>
<path d="M812.8,290.2h.7c0,-1.1,-.9,-2,-2,-2h-.7c-1.1,0,-2,.9,-2,2v7.1c0,1.1,.9,2,2,2h.7c1.1,0,2,-.9,2,-2v-7.1h-1.3v7.1c0,.4,-.3,.7,-.7,.7h-.7c-.4,0,-.7,-.3,-.7,-.7v-7.1c0,-.3,.3,-.6,.7,-.6h.7c.4,0,.7,.3,.7,.6Z" class="g9_34"/>
<path d="M798,287v.7h4.6c1.1,0,2,-.9,2,-2v-.4c0,-1.2,-.9,-2.1,-2,-2.1H798c-.5,0,-1,.2,-1.4,.6c-.1,.1,-.2,.3,-.2,.5v.2c0,.2,-.1,.4,-.2,.5c-.1,.1,-.2,.3,-.2,.5v.2c0,1.1,.9,2,2,2v-1.4c-.4,0,-.7,-.3,-.7,-.6v-.2h-.6l.4,.5c.4,-.3,.7,-.9,.7,-1.5v-.2h-.7l.5,.5c.1,-.1,.2,-.2,.4,-.2h4.6c.3,0,.6,.3,.6,.7v.4c0,.3,-.3,.6,-.6,.6H798Z" class="g9_34"/>
<path d="M797.1,277.7l-.5,.5c.4,.3,.9,.5,1.4,.5h4.6c1.1,0,2,-.9,2,-2v-.4c0,-1.1,-.9,-2,-2,-2H798c-1.1,0,-2,.9,-2,2v.2c0,.1,.1,.3,.2,.5c.1,.1,.2,.3,.2,.5v.2c0,.2,.1,.4,.2,.5l.5,-.5h.7v-.2c0,-.6,-.3,-1.2,-.7,-1.6l-.4,.6h.6v-.2c0,-.4,.3,-.7,.7,-.7h4.6c.3,0,.6,.3,.6,.7v.4c0,.4,-.3,.7,-.6,.7H798c-.2,0,-.3,-.1,-.4,-.2l-.5,.5h.7Z" class="g9_34"/>
<path d="M803.6,286.5v.7h1.9c1,0,1.8,-.8,1.8,-1.8v-8.8c0,-1,-.8,-1.8,-1.8,-1.8h-1.8c-.3,0,-.5,.2,-.6,.4c-.2,.2,-.1,.5,0,.7c.1,.1,.1,.2,.1,.4v.4c0,.4,-.3,.7,-.6,.7H798c-.2,0,-.3,-.1,-.4,-.2c-.2,-.2,-.5,-.3,-.8,-.1c-.2,.1,-.4,.3,-.4,.6v6.6c0,.2,.2,.5,.4,.6c.3,.1,.6,.1,.8,-.1c.1,-.1,.2,-.2,.4,-.2h4.6c.3,0,.6,.3,.6,.7v.4c0,.1,0,.2,-.1,.4c-.2,.2,-.2,.5,-.1,.7c.1,.2,.4,.4,.6,.4v-.7l.6,.4c.2,-.3,.4,-.8,.4,-1.2v-.4c0,-1.2,-.9,-2.1,-2,-2.1H798c-.5,0,-1,.2,-1.4,.6l.5,.5h.7v-6.6h-.7l-.5,.5c.4,.3,.9,.5,1.4,.5h4.6c1.1,0,2,-.9,2,-2v-.4c0,-.5,-.1,-.9,-.4,-1.2l-.5,.4v.7h1.8c.3,0,.5,.2,.5,.4v8.8c0,.2,-.2,.4,-.5,.4h-1.9v.7l.6,.4Z" class="g9_34"/>
<path d="M797.1,277.5h.7c0,-1.2,-.9,-2.1,-2,-2.1h-.7c-1.2,0,-2.1,.9,-2.1,2.1v7c0,1.2,.9,2.1,2.1,2.1h.7c1.1,0,2,-.9,2,-2.1v-7h-1.4v7c0,.4,-.3,.7,-.6,.7h-.7c-.4,0,-.7,-.3,-.7,-.7v-7c0,-.4,.3,-.7,.7,-.7h.7c.3,0,.6,.3,.6,.7Z" class="g9_34"/>
<path d="M798,299.8v.7h4.6c1.1,0,2,-.9,2,-2.1V298c0,-1.1,-.9,-2,-2,-2H798c-.5,0,-1,.2,-1.4,.5c-.1,.2,-.2,.3,-.2,.5v.3c0,.2,-.1,.4,-.2,.5c-.1,.1,-.2,.3,-.2,.5v.1c0,1.2,.9,2.1,2,2.1v-1.4c-.4,0,-.7,-.3,-.7,-.7v-.1h-.6l.4,.5c.4,-.4,.7,-.9,.7,-1.5V297h-.7l.5,.6c.1,-.2,.2,-.2,.4,-.2h4.6c.3,0,.6,.3,.6,.6v.4c0,.4,-.3,.7,-.6,.7H798Z" class="g9_34"/>
<path d="M797.1,290.5l-.5,.5c.4,.3,.9,.5,1.4,.5h4.6c1.1,0,2,-.9,2,-2v-.4c0,-1.2,-.9,-2.1,-2,-2.1H798c-1.1,0,-2,.9,-2,2.1v.1c0,.2,.1,.4,.2,.5c.1,.2,.2,.3,.2,.5v.3c0,.2,.1,.3,.2,.5l.5,-.5h.7v-.3c0,-.6,-.3,-1.1,-.7,-1.5l-.4,.5h.6v-.1c0,-.4,.3,-.7,.7,-.7h4.6c.3,0,.6,.3,.6,.7v.4c0,.3,-.3,.6,-.6,.6H798c-.2,0,-.3,0,-.4,-.1l-.5,.5h.7Z" class="g9_34"/>
<path d="M803.6,299.3v.7h1.9c1,0,1.8,-.8,1.8,-1.8v-8.8c0,-1,-.8,-1.8,-1.8,-1.8h-1.8c-.3,0,-.5,.1,-.6,.4c-.2,.2,-.1,.5,0,.7c.1,.1,.1,.2,.1,.4v.4c0,.3,-.3,.6,-.6,.6H798c-.2,0,-.3,0,-.4,-.1c-.2,-.2,-.5,-.3,-.8,-.2c-.2,.1,-.4,.4,-.4,.7V297c0,.3,.2,.6,.4,.7c.3,.1,.6,0,.8,-.1c.1,-.2,.2,-.2,.4,-.2h4.6c.3,0,.6,.3,.6,.6v.4c0,.2,0,.3,-.1,.5c-.2,.2,-.2,.4,-.1,.7c.1,.2,.4,.4,.6,.4v-.7l.6,.4c.2,-.3,.4,-.8,.4,-1.3V298c0,-1.1,-.9,-2,-2,-2H798c-.5,0,-1,.2,-1.4,.5l.5,.5h.7v-6.5h-.7l-.5,.5c.4,.3,.9,.5,1.4,.5h4.6c1.1,0,2,-.9,2,-2v-.4c0,-.5,-.1,-.9,-.4,-1.2l-.5,.4v.7h1.8c.3,0,.5,.2,.5,.4v8.8c0,.2,-.2,.4,-.5,.4h-1.9v.7l.6,.4Z" class="g9_34"/>
<path d="M797.1,290.2h.7c0,-1.1,-.9,-2,-2,-2h-.7c-1.2,0,-2.1,.9,-2.1,2v7.1c0,1.1,.9,2,2.1,2h.7c1.1,0,2,-.9,2,-2v-7.1h-1.4v7.1c0,.4,-.3,.7,-.6,.7h-.7c-.4,0,-.7,-.3,-.7,-.7v-7.1c0,-.3,.3,-.6,.7,-.6h.7c.3,0,.6,.3,.6,.6Z" class="g9_34"/>
<image clip-path="url(#c9_34)" preserveAspectRatio="none" x="681" y="307" width="89" height="30" xlink:href="img/10.jpg"/>
<image clip-path="url(#ca_34)" preserveAspectRatio="none" x="690" y="235" width="89" height="73" xlink:href="img/11.jpg"/>
<image clip-path="url(#cb_34)" preserveAspectRatio="none" x="690" y="328" width="80" height="4" xlink:href="img/12.jpg"/>
<image clip-path="url(#cc_34)" preserveAspectRatio="none" x="768" y="307" width="11" height="30" xlink:href="img/13.jpg"/>
<image clip-path="url(#cd_34)" preserveAspectRatio="none" x="769" y="235" width="10" height="73" xlink:href="img/14.jpg"/>
<image clip-path="url(#ce_34)" preserveAspectRatio="none" x="768" y="329" width="11" height="4" xlink:href="img/15.jpg"/>
<image clip-path="url(#cf_34)" preserveAspectRatio="none" x="775" y="256" width="4" height="69" xlink:href="img/16.jpg"/>
<image clip-path="url(#cg_34)" preserveAspectRatio="none" x="775" y="324" width="4" height="8" xlink:href="img/17.jpg"/>
<path d="M706.3,248.2c-10.1,0,-18.3,8.2,-18.3,18.3v64.2h79V266.5c0,-10.1,-8.2,-18.3,-18.3,-18.3Z" class="g3_34"/>
<path d="M687.9,331.5H767v-7.1H687.9v7.1Z" class="g8_34"/>
<path d="M693.3,306.6h2.4c.2,0,.3,-.2,.3,-.4c0,-.2,-.1,-.4,-.3,-.4h-2.4c-.2,0,-.3,.2,-.3,.4c0,.2,.1,.4,.3,.4m3.9,0h2.3c.3,0,.4,-.2,.4,-.4c0,-.2,-.1,-.4,-.4,-.4h-2.3c-.2,0,-.4,.2,-.4,.4c0,.2,.2,.4,.4,.4m3.9,0h2.3c.2,0,.4,-.2,.4,-.4c0,-.2,-.2,-.4,-.4,-.4h-2.3c-.2,0,-.4,.2,-.4,.4c0,.2,.2,.4,.4,.4m3.9,0h2.3c.2,0,.4,-.2,.4,-.4c0,-.2,-.2,-.4,-.4,-.4H705c-.2,0,-.4,.2,-.4,.4c0,.2,.2,.4,.4,.4m3.9,0h2.3c.2,0,.4,-.2,.4,-.4c0,-.2,-.2,-.4,-.4,-.4h-2.3c-.2,0,-.4,.2,-.4,.4c0,.2,.2,.4,.4,.4m3.9,0h2.3c.2,0,.4,-.2,.4,-.4c0,-.2,-.2,-.4,-.4,-.4h-2.3c-.3,0,-.4,.2,-.4,.4c0,.2,.1,.4,.4,.4m3.8,0H719c.2,0,.3,-.2,.3,-.4c0,-.2,-.1,-.4,-.3,-.4h-2.4c-.2,0,-.3,.2,-.3,.4c0,.2,.1,.4,.3,.4m3.9,0h2.3c.2,0,.4,-.2,.4,-.4c0,-.2,-.2,-.4,-.4,-.4h-2.3c-.2,0,-.4,.2,-.4,.4c0,.2,.2,.4,.4,.4m3.9,0h2.3c.2,0,.4,-.2,.4,-.4c0,-.2,-.2,-.4,-.4,-.4h-2.3c-.2,0,-.4,.2,-.4,.4c0,.2,.2,.4,.4,.4m3.9,0h2.3c.2,0,.4,-.2,.4,-.4c0,-.2,-.2,-.4,-.4,-.4h-2.3c-.2,0,-.4,.2,-.4,.4c0,.2,.2,.4,.4,.4m3.9,0h2.3c.2,0,.4,-.2,.4,-.4c0,-.2,-.2,-.4,-.4,-.4h-2.3c-.3,0,-.4,.2,-.4,.4c0,.2,.1,.4,.4,.4m3.8,0h2.4c.2,0,.3,-.2,.3,-.4c0,-.2,-.1,-.4,-.3,-.4H736c-.2,0,-.3,.2,-.3,.4c0,.2,.1,.4,.3,.4m3.9,0h2.3c.3,0,.4,-.2,.4,-.4c0,-.2,-.1,-.4,-.4,-.4h-2.3c-.2,0,-.4,.2,-.4,.4c0,.2,.2,.4,.4,.4m3.9,0h2.3c.2,0,.4,-.2,.4,-.4c0,-.2,-.2,-.4,-.4,-.4h-2.3c-.2,0,-.4,.2,-.4,.4c0,.2,.2,.4,.4,.4m3.9,0H750c.2,0,.4,-.2,.4,-.4c0,-.2,-.2,-.4,-.4,-.4h-2.3c-.2,0,-.4,.2,-.4,.4c0,.2,.2,.4,.4,.4m3.9,0h2.3c.2,0,.4,-.2,.4,-.4c0,-.2,-.2,-.4,-.4,-.4h-2.3c-.2,0,-.4,.2,-.4,.4c0,.2,.2,.4,.4,.4m3.9,0h2.3c.2,0,.4,-.2,.4,-.4c0,-.2,-.2,-.4,-.4,-.4h-2.3c-.3,0,-.4,.2,-.4,.4c0,.2,.1,.4,.4,.4m3.8,0h2.4c.2,0,.3,-.2,.3,-.4c0,-.2,-.1,-.4,-.3,-.4h-2.4c-.2,0,-.3,.2,-.3,.4c0,.2,.1,.4,.3,.4Z" class="ga_34"/>
<path d="M740.8,270.2H743c.2,0,.4,-.2,.4,-.4c0,-.2,-.2,-.4,-.4,-.4h-2.2c-.2,0,-.4,.2,-.4,.4c0,.2,.2,.4,.4,.4m3.7,0h2.2c.3,0,.4,-.2,.4,-.4c0,-.2,-.1,-.4,-.4,-.4h-2.2c-.2,0,-.4,.2,-.4,.4c0,.2,.2,.4,.4,.4m3.7,0h2.3c.2,0,.4,-.2,.4,-.4c0,-.2,-.2,-.4,-.4,-.4h-2.3c-.2,0,-.4,.2,-.4,.4c0,.2,.2,.4,.4,.4m3.7,0h2.3c.2,0,.4,-.2,.4,-.4c0,-.2,-.2,-.4,-.4,-.4h-2.3c-.2,0,-.3,.2,-.3,.4c0,.2,.1,.4,.3,.4m3.8,0h2.2c.2,0,.4,-.2,.4,-.4c0,-.2,-.2,-.4,-.4,-.4h-2.2c-.2,0,-.4,.2,-.4,.4c0,.2,.2,.4,.4,.4m3.7,0h2.2c.2,0,.4,-.2,.4,-.4c0,-.2,-.2,-.4,-.4,-.4h-2.2c-.2,0,-.4,.2,-.4,.4c0,.2,.2,.4,.4,.4Z" class="ga_34"/>
<path d="M693.4,270.2h2.2c.2,0,.4,-.2,.4,-.4c0,-.2,-.2,-.4,-.4,-.4h-2.2c-.2,0,-.4,.2,-.4,.4c0,.2,.2,.4,.4,.4m3.7,0h2.2c.2,0,.4,-.2,.4,-.4c0,-.2,-.2,-.4,-.4,-.4h-2.2c-.2,0,-.4,.2,-.4,.4c0,.2,.2,.4,.4,.4m3.7,0h2.3c.2,0,.3,-.2,.3,-.4c0,-.2,-.1,-.4,-.3,-.4h-2.3c-.2,0,-.4,.2,-.4,.4c0,.2,.2,.4,.4,.4m3.7,0h2.3c.2,0,.4,-.2,.4,-.4c0,-.2,-.2,-.4,-.4,-.4h-2.3c-.2,0,-.4,.2,-.4,.4c0,.2,.2,.4,.4,.4m3.7,0h2.3c.2,0,.4,-.2,.4,-.4c0,-.2,-.2,-.4,-.4,-.4h-2.3c-.2,0,-.3,.2,-.3,.4c0,.2,.1,.4,.3,.4m3.8,0h2.2c.2,0,.4,-.2,.4,-.4c0,-.2,-.2,-.4,-.4,-.4H712c-.2,0,-.4,.2,-.4,.4c0,.2,.2,.4,.4,.4Z" class="ga_34"/>
<path d="M718.2,272.8v-.7c-1.1,0,-2,.9,-2,2v29.4h22.9V274.1c0,-1.1,-.9,-2,-2.1,-2H718.2v1.5H737c.3,0,.6,.2,.6,.5V302H717.7V274.1c0,-.3,.2,-.5,.5,-.5Z" class="ga_34"/>
<path d="M720.2,267.8v-.4c-.5,.1,-1,.5,-1,1.1v4.6h16.9v-4.6c0,-.6,-.5,-1,-1,-1.1H720.2v.7h14.9c.1,0,.3,.2,.3,.4v3.9H719.9v-3.9c0,-.2,.1,-.4,.3,-.4Z" class="ga_34"/>
<path d="M725.1,294.9h-.4v7.6l.1,.3l.3,.1h5.2l.2,-.1l.1,-.3v-7.6l-.1,-.3l-.2,-.1h-5.2l-.3,.1l-.1,.3h.4v.4h4.8v6.9h-4.5v-7.3h-.3v.4Z" class="ga_34"/>
<path d="M732,294.9h-.4V299l.1,.3l.3,.1h4.1l.3,-.1l.1,-.3v-4.1l-.1,-.3l-.3,-.1H732l-.3,.1l-.1,.3h.4v.4h3.8v3.3h-3.4v-3.7H732v.4Z" class="ga_34"/>
<path d="M719.2,294.9h-.4V299l.1,.3l.3,.1h4.1l.3,-.1l.1,-.3v-4.1l-.1,-.3l-.3,-.1h-4.1l-.3,.1l-.1,.3h.4v.4h3.7v3.3h-3.3v-3.7h-.4v.4Z" class="ga_34"/>
<path d="M727.3,298.9h.8v-1h-.8v1Z" class="ga_34"/>
<path d="M732,288.6h-.4v4.1l.1,.3l.3,.1h4.1l.3,-.1l.1,-.3v-4.1l-.1,-.3l-.3,-.1H732l-.3,.1l-.1,.3h.4v.4h3.8v3.3h-3.4v-3.7H732v.4Z" class="ga_34"/>
<path d="M725.6,288.6h-.4v4.1l.1,.3l.3,.1h4.1l.3,-.1l.1,-.3v-4.1l-.1,-.3l-.3,-.1h-4.1l-.3,.1l-.1,.3h.4v.4h3.8v3.3H726v-3.7h-.4v.4Z" class="ga_34"/>
<path d="M719.2,288.6h-.4v4.1l.1,.3l.3,.1h4.1l.3,-.1l.1,-.3v-4.1l-.1,-.3l-.3,-.1h-4.1l-.3,.1l-.1,.3h.4v.4h3.7v3.3h-3.3v-3.7h-.4v.4Z" class="ga_34"/>
<path d="M732,282.3h-.4v4.1l.1,.2l.3,.2h4.1l.3,-.2l.1,-.2v-4.1l-.1,-.3l-.3,-.1H732l-.3,.1l-.1,.3h.4v.3h3.8V286h-3.4v-3.7H732v.3Z" class="ga_34"/>
<path d="M725.6,282.3h-.4v4.1l.1,.2l.3,.2h4.1l.3,-.2l.1,-.2v-4.1L730,282l-.3,-.1h-4.1l-.3,.1l-.1,.3h.4v.3h3.8V286H726v-3.7h-.4v.3Z" class="ga_34"/>
<path d="M719.2,282.3h-.4v4.1l.1,.2l.3,.2h4.1l.3,-.2l.1,-.2v-4.1l-.1,-.3l-.3,-.1h-4.1l-.3,.1l-.1,.3h.4v.3h3.7V286h-3.3v-3.7h-.4v.3Z" class="ga_34"/>
<path d="M732,276h-.4v4.1l.1,.2l.3,.1h4.1l.3,-.1l.1,-.2V276l-.1,-.3l-.3,-.1H732l-.3,.1l-.1,.3h.4v.3h3.8v3.4h-3.4V276H732v.3Z" class="ga_34"/>
<path d="M725.6,276h-.4v4.1l.1,.2l.3,.1h4.1l.3,-.1l.1,-.2V276l-.1,-.3l-.3,-.1h-4.1l-.3,.1l-.1,.3h.4v.3h3.8v3.4H726V276h-.4v.3Z" class="ga_34"/>
<path d="M719.2,276h-.4v4.1l.1,.2l.3,.1h4.1l.3,-.1l.1,-.2V276l-.1,-.3l-.3,-.1h-4.1l-.3,.1l-.1,.3h.4v.3h3.7v3.4h-3.3V276h-.4v.3Z" class="ga_34"/>
<path d="M722.8,268.9l-.2,-.2l-.5,.8l-.8,.2l-.2,.1l.1,.2l.5,.7v.8l.1,.2h.2l.8,-.3l.7,.3h.3l.1,-.2l-.1,-.8l.5,-.7l.1,-.2l-.2,-.1l-.8,-.2l-.4,-.8l-.2,-.1l-.2,.1l.2,.2l-.2,.1l.4,.8l.2,.1l.5,.1l-.3,.4l-.1,.2l.1,.6l-.6,-.2h-.1l-.6,.2l.1,-.6l-.1,-.2l-.3,-.4l.5,-.1l.2,-.1l.5,-.8l-.2,-.1l-.2,.1Z" class="ga_34"/>
<path d="M727.6,268.9l-.2,-.2l-.4,.8l-.8,.2l-.2,.1l.1,.2l.5,.7l-.1,.8l.1,.2h.3l.7,-.3l.8,.3h.2l.1,-.2v-.8l.5,-.7l.1,-.2l-.2,-.1l-.8,-.2l-.5,-.8l-.2,-.1l-.2,.1l.2,.2l-.2,.1l.5,.8l.2,.1l.5,.1l-.4,.4v.8l-.5,-.2h-.2l-.5,.2l.1,-.6l-.1,-.2l-.4,-.4l.6,-.1l.1,-.1l.5,-.8l-.2,-.1l-.2,.1Z" class="ga_34"/>
<path d="M732.5,268.9l-.2,-.2l-.4,.8l-.9,.2l-.1,.1v.2l.6,.7l-.1,.8l.1,.2h.2l.8,-.3l.8,.3h.2l.1,-.2l-.1,-.8l.6,-.7v-.2l-.1,-.1l-.9,-.2l-.4,-.8l-.2,-.1l-.2,.1l.2,.2l-.2,.1l.5,.8l.1,.1l.6,.1l-.4,.4v.8l-.5,-.2h-.2l-.5,.2v-.8l-.4,-.4l.6,-.1l.1,-.1l.5,-.8l-.2,-.1l-.2,.1Z" class="ga_34"/>
<path d="M715.2,303.8h24.6c.5,0,.9,-.4,.9,-.9c0,-.6,-.4,-1,-.9,-1H715.2c-.5,0,-1,.4,-1,1c0,.5,.5,.9,1,.9Z" class="ga_34"/>
<path d="M727.5,294.8v7.4h.3v-7.4Z" class="ga_34"/>
<image clip-path="url(#ch_34)" preserveAspectRatio="none" x="602" y="307" width="80" height="30" xlink:href="img/18.jpg"/>
<image clip-path="url(#ci_34)" preserveAspectRatio="none" x="593" y="235" width="98" height="73" xlink:href="img/19.jpg"/>
<image clip-path="url(#cj_34)" preserveAspectRatio="none" x="602" y="328" width="80" height="4" xlink:href="img/20.jpg"/>
<image clip-path="url(#ck_34)" preserveAspectRatio="none" x="592" y="307" width="11" height="30" xlink:href="img/21.jpg"/>
<image clip-path="url(#cl_34)" preserveAspectRatio="none" x="593" y="235" width="10" height="73" xlink:href="img/22.jpg"/>
<image clip-path="url(#cm_34)" preserveAspectRatio="none" x="592" y="329" width="11" height="4" xlink:href="img/23.jpg"/>
<image clip-path="url(#cn_34)" preserveAspectRatio="none" x="680" y="307" width="11" height="30" xlink:href="img/24.jpg"/>
<image clip-path="url(#co_34)" preserveAspectRatio="none" x="681" y="235" width="10" height="73" xlink:href="img/25.jpg"/>
<image clip-path="url(#cp_34)" preserveAspectRatio="none" x="680" y="329" width="11" height="4" xlink:href="img/26.jpg"/>
<image clip-path="url(#cq_34)" preserveAspectRatio="none" x="687" y="256" width="4" height="69" xlink:href="img/27.jpg"/>
<image clip-path="url(#cr_34)" preserveAspectRatio="none" x="687" y="324" width="4" height="8" xlink:href="img/28.jpg"/>
<path d="M618.2,248.2c-10.1,0,-18.3,8.2,-18.3,18.3v64.2h79V266.5c0,-10.1,-8.2,-18.3,-18.3,-18.3Z" class="g3_34"/>
<path d="M599.8,331.5h79.1v-7.1H599.8v7.1Z" class="g8_34"/>
<path d="M606,274.4h2.2c.2,0,.4,-.2,.4,-.4c0,-.2,-.2,-.4,-.4,-.4H606c-.2,0,-.3,.2,-.3,.4c0,.2,.1,.4,.3,.4m3.6,0h2.2c.2,0,.3,-.2,.3,-.4c0,-.2,-.1,-.4,-.3,-.4h-2.2c-.2,0,-.4,.2,-.4,.4c0,.2,.2,.4,.4,.4m3.5,0h2.2c.2,0,.4,-.2,.4,-.4c0,-.2,-.2,-.4,-.4,-.4h-2.2c-.2,0,-.3,.2,-.3,.4c0,.2,.1,.4,.3,.4m3.6,0h2.2c.2,0,.3,-.2,.3,-.4c0,-.2,-.1,-.4,-.3,-.4h-2.2c-.2,0,-.4,.2,-.4,.4c0,.2,.2,.4,.4,.4m3.6,0h2.1c.2,0,.4,-.2,.4,-.4c0,-.2,-.2,-.4,-.4,-.4h-2.1c-.3,0,-.4,.2,-.4,.4c0,.2,.1,.4,.4,.4m3.5,0H626c.2,0,.4,-.2,.4,-.4c0,-.2,-.2,-.4,-.4,-.4h-2.2c-.2,0,-.4,.2,-.4,.4c0,.2,.2,.4,.4,.4m3.6,0h2.1c.2,0,.4,-.2,.4,-.4c0,-.2,-.2,-.4,-.4,-.4h-2.1c-.2,0,-.4,.2,-.4,.4c0,.2,.2,.4,.4,.4Z" class="gb_34"/>
<path d="M606,306.6h2.4c.2,0,.3,-.2,.3,-.4c0,-.2,-.1,-.4,-.3,-.4H606c-.2,0,-.3,.2,-.3,.4c0,.2,.1,.4,.3,.4m3.9,0h2.3c.3,0,.4,-.2,.4,-.4c0,-.2,-.1,-.4,-.4,-.4h-2.3c-.2,0,-.4,.2,-.4,.4c0,.2,.2,.4,.4,.4m3.9,0h2.3c.2,0,.4,-.2,.4,-.4c0,-.2,-.2,-.4,-.4,-.4h-2.3c-.2,0,-.4,.2,-.4,.4c0,.2,.2,.4,.4,.4m3.9,0H620c.2,0,.4,-.2,.4,-.4c0,-.2,-.2,-.4,-.4,-.4h-2.3c-.2,0,-.4,.2,-.4,.4c0,.2,.2,.4,.4,.4m3.9,0h2.3c.2,0,.4,-.2,.4,-.4c0,-.2,-.2,-.4,-.4,-.4h-2.3c-.2,0,-.4,.2,-.4,.4c0,.2,.2,.4,.4,.4m3.9,0h2.3c.2,0,.4,-.2,.4,-.4c0,-.2,-.2,-.4,-.4,-.4h-2.3c-.3,0,-.4,.2,-.4,.4c0,.2,.1,.4,.4,.4m3.8,0h2.4c.2,0,.3,-.2,.3,-.4c0,-.2,-.1,-.4,-.3,-.4h-2.4c-.2,0,-.3,.2,-.3,.4c0,.2,.1,.4,.3,.4m3.9,0h2.3c.2,0,.4,-.2,.4,-.4c0,-.2,-.2,-.4,-.4,-.4h-2.3c-.2,0,-.4,.2,-.4,.4c0,.2,.2,.4,.4,.4m3.9,0h2.3c.2,0,.4,-.2,.4,-.4c0,-.2,-.2,-.4,-.4,-.4h-2.3c-.2,0,-.4,.2,-.4,.4c0,.2,.2,.4,.4,.4m3.9,0h2.3c.2,0,.4,-.2,.4,-.4c0,-.2,-.2,-.4,-.4,-.4H641c-.2,0,-.4,.2,-.4,.4c0,.2,.2,.4,.4,.4m3.9,0h2.3c.2,0,.4,-.2,.4,-.4c0,-.2,-.2,-.4,-.4,-.4h-2.3c-.2,0,-.4,.2,-.4,.4c0,.2,.2,.4,.4,.4m3.8,0h2.4c.2,0,.3,-.2,.3,-.4c0,-.2,-.1,-.4,-.3,-.4h-2.4c-.2,0,-.3,.2,-.3,.4c0,.2,.1,.4,.3,.4m3.9,0h2.3c.3,0,.4,-.2,.4,-.4c0,-.2,-.1,-.4,-.4,-.4h-2.3c-.2,0,-.4,.2,-.4,.4c0,.2,.2,.4,.4,.4m3.9,0h2.3c.2,0,.4,-.2,.4,-.4c0,-.2,-.2,-.4,-.4,-.4h-2.3c-.2,0,-.4,.2,-.4,.4c0,.2,.2,.4,.4,.4m3.9,0h2.3c.2,0,.4,-.2,.4,-.4c0,-.2,-.2,-.4,-.4,-.4h-2.3c-.2,0,-.4,.2,-.4,.4c0,.2,.2,.4,.4,.4m3.9,0h2.3c.2,0,.4,-.2,.4,-.4c0,-.2,-.2,-.4,-.4,-.4h-2.3c-.2,0,-.4,.2,-.4,.4c0,.2,.2,.4,.4,.4m3.9,0h2.3c.2,0,.4,-.2,.4,-.4c0,-.2,-.2,-.4,-.4,-.4h-2.3c-.3,0,-.4,.2,-.4,.4c0,.2,.1,.4,.4,.4m3.8,0h2.4c.2,0,.3,-.2,.3,-.4c0,-.2,-.1,-.4,-.3,-.4H672c-.2,0,-.3,.2,-.3,.4c0,.2,.1,.4,.3,.4Z" class="gb_34"/>
<path d="M652.8,274.4h2.3c.2,0,.4,-.2,.4,-.4c0,-.2,-.2,-.4,-.4,-.4h-2.3c-.2,0,-.4,.2,-.4,.4c0,.2,.2,.4,.4,.4m3.9,0H659c.2,0,.4,-.2,.4,-.4c0,-.2,-.2,-.4,-.4,-.4h-2.3c-.2,0,-.4,.2,-.4,.4c0,.2,.2,.4,.4,.4m3.8,0h2.3c.2,0,.4,-.2,.4,-.4c0,-.2,-.2,-.4,-.4,-.4h-2.3c-.2,0,-.4,.2,-.4,.4c0,.2,.2,.4,.4,.4m3.9,0h2.3c.2,0,.3,-.2,.3,-.4c0,-.2,-.1,-.4,-.3,-.4h-2.3c-.3,0,-.4,.2,-.4,.4c0,.2,.1,.4,.4,.4m3.8,0h2.3c.2,0,.4,-.2,.4,-.4c0,-.2,-.2,-.4,-.4,-.4h-2.3c-.2,0,-.4,.2,-.4,.4c0,.2,.2,.4,.4,.4m3.9,0h2.3c.2,0,.3,-.2,.3,-.4c0,-.2,-.1,-.4,-.3,-.4h-2.3c-.3,0,-.4,.2,-.4,.4c0,.2,.1,.4,.4,.4Z" class="gb_34"/>
<path d="M649.4,286c0,3.4,-.1,6.8,0,10.2c.1,3.1,-1.4,5.3,-4.5,6.7c-3.3,1.4,-6.5,1.2,-9.5,-.7c-.4,-.2,-.9,-.5,-1.1,-.9c-.2,-.2,-.1,-.7,0,-.9c.2,-.1,.7,-.1,1,0c.2,.1,.4,.3,.6,.5c3.1,2.2,8,1.9,10.5,-.7c1.1,-1.2,1.5,-2.5,1.5,-3.9c0,-6.8,-.1,-13.6,0,-20.4c0,-2.5,-1.1,-4.4,-3.6,-5.5c-2.6,-1.2,-5.3,-1.1,-7.8,.4c-.3,.2,-.6,.4,-.9,.6c-.4,.4,-.9,.5,-1.2,.1c-.2,-.3,-.1,-.9,.2,-1.1c1.1,-1,2.5,-1.6,4.1,-1.9c4.7,-1,9.6,1.5,10.5,5.4c.2,.6,.2,1.1,.2,1.7c0,3.5,0,6.9,0,10.4Z" class="gb_34"/>
<path d="M634.3,278.1c-1.7,-.2,-2.2,-1.4,-1.5,-2.9c.5,-1.1,1.3,-1.5,2.4,-1.8c1.5,-.5,3.2,-.6,4.7,-.1c2,.6,3.2,2.5,3,4.5c-.2,1.9,-1.8,3.6,-3.7,3.9c-2.1,.2,-4,-.9,-4.7,-2.9c-.1,-.2,-.1,-.4,-.2,-.7m7.1,.1c-1.4,-.5,-1.6,-.6,-2.3,-1.9c-.1,-.3,-.3,-.6,-.4,-.8c-.7,-1,-1.4,-1,-2.2,-.2c-.9,.8,-1.1,2.1,-.6,3.2c.5,1.2,1.5,1.8,2.8,1.8c1.3,0,2.2,-.8,2.7,-2.1m.1,-1.7c.1,-1,-1.8,-1.6,-1.8,-1.6c.5,1.8,1.7,2.2,1.8,1.6M635,274.8c-1.9,.8,-.9,2.3,-.8,1.9c0,0,.2,-1.2,.8,-1.9Z" class="gb_34"/>
<path d="M634.3,287.5c-1.7,-.3,-2.2,-1.5,-1.5,-3c.5,-1,1.3,-1.5,2.4,-1.8c1.5,-.5,3.2,-.6,4.7,-.1c2,.6,3.2,2.5,3,4.5c-.2,2,-1.8,3.7,-3.7,3.9c-2.1,.2,-4,-.9,-4.7,-2.8c-.1,-.3,-.1,-.5,-.2,-.7m7.1,0c-1.4,-.5,-1.6,-.6,-2.3,-1.9c-.1,-.3,-.3,-.5,-.4,-.8c-.7,-1,-1.4,-1,-2.2,-.2c-.9,.8,-1.1,2.2,-.6,3.2c.5,1.2,1.5,1.8,2.8,1.8c1.3,0,2.2,-.7,2.7,-2.1m.1,-1.7c.1,-.9,-1.8,-1.6,-1.8,-1.6c.5,1.8,1.7,2.2,1.8,1.6M635,284.2c-1.9,.8,-.9,2.2,-.8,1.8c0,0,.2,-1.2,.8,-1.8Z" class="gb_34"/>
<path d="M634.3,296.6c-1.7,-.3,-2.2,-1.4,-1.5,-3c.5,-1,1.3,-1.5,2.4,-1.8c1.5,-.5,3.2,-.6,4.7,-.1c2,.6,3.2,2.5,3,4.5c-.2,2,-1.8,3.7,-3.7,3.9c-2.1,.2,-4,-.9,-4.7,-2.8c-.1,-.2,-.1,-.5,-.2,-.7m7.1,0c-1.4,-.5,-1.6,-.6,-2.3,-1.9c-.1,-.3,-.3,-.5,-.4,-.8c-.7,-1,-1.4,-1,-2.2,-.2c-.9,.8,-1.1,2.2,-.6,3.2c.5,1.2,1.5,1.9,2.8,1.8c1.3,0,2.2,-.7,2.7,-2.1m.1,-1.7c.1,-.9,-1.8,-1.6,-1.8,-1.6c.5,1.8,1.7,2.2,1.8,1.6M635,293.3c-1.9,.8,-.9,2.2,-.8,1.9c0,0,.2,-1.3,.8,-1.9Z" class="gb_34"/>
<path d="M630.5,291.1l-5.3,-5.5c-.2,-.3,-.6,-.3,-.9,-.1c-.2,.3,-.3,.7,0,.9l5.3,5.5c.2,.3,.6,.3,.8,.1c.3,-.3,.3,-.7,.1,-.9Z" class="gb_34"/>
<path d="M630.5,298.7l-5.3,5.6c-.2,.2,-.6,.2,-.9,0c-.2,-.3,-.3,-.6,0,-.9l5.3,-5.5c.2,-.3,.6,-.3,.8,-.1c.3,.3,.3,.7,.1,.9Z" class="gb_34"/>
<path d="M629.3,293.1L622,291.7c-.3,-.1,-.7,.1,-.7,.5c-.1,.3,.1,.6,.5,.7l7.2,1.4c.4,.1,.7,-.1,.7,-.5c.1,-.3,-.1,-.7,-.4,-.7Z" class="gb_34"/>
<path d="M629.3,296.7l-7.3,1.4c-.3,.1,-.7,-.1,-.7,-.5c-.1,-.3,.1,-.6,.5,-.7l7.2,-1.4c.3,-.1,.7,.2,.7,.5c.1,.3,-.1,.7,-.4,.7Z" class="gb_34"/>
<path d="M890,1286.2h19.4V0H890V1286.2Z" class="g3_34"/>
</svg>