<?xml version="1.0" encoding="UTF-8" standalone="no"?>
<!DOCTYPE svg PUBLIC "-//W3C//DTD SVG 1.1//EN"
"http://www.w3.org/Graphics/SVG/1.1/DTD/svg11.dtd">
<svg viewBox="0 0 909 1286" version="1.1" xmlns="http://www.w3.org/2000/svg" xmlns:xlink="http://www.w3.org/1999/xlink">
<defs>
<clipPath id="c0_21"><path d="M0,94.4V0H106.3V42.8H43.2V55.4h63.1v39Z"/></clipPath>
<clipPath id="c1_21"><path d="M106.1,94.4v-39h27.8V42.8H106.1V0H212.7V94.4Z"/></clipPath>
<clipPath id="c2_21"><path d="M212.5,94.4V0H319V94.4Z"/></clipPath>
<clipPath id="c3_21"><path d="M318.8,94.4V0H425.3V94.4Z"/></clipPath>
<clipPath id="c4_21"><path d="M425.1,94.4V0H531.7V94.4Z"/></clipPath>
<clipPath id="c5_21"><path d="M531.5,188.7V0h53.1V188.7Z"/></clipPath>
<clipPath id="c6_21"><path d="M0,188.7V94.2H106.3v94.5Z"/></clipPath>
<clipPath id="c7_21"><path d="M106.1,188.7V94.2H212.7v94.5Z"/></clipPath>
<clipPath id="c8_21"><path d="M212.5,188.7V94.2H319v94.5Z"/></clipPath>
<clipPath id="c9_21"><path d="M318.8,188.7V94.2H425.3v94.5Z"/></clipPath>
<clipPath id="ca_21"><path d="M0,283.1V188.5H106.3v94.6Z"/></clipPath>
<clipPath id="cb_21"><path d="M106.1,283.1V188.5H212.7v68.6H135.5v26Z"/></clipPath>
<clipPath id="cc_21"><path d="M212.5,257.1V188.5H319v68.6Z"/></clipPath>
<clipPath id="cd_21"><path d="M318.8,257.1V188.5H425.3v68.6Z"/></clipPath>
<clipPath id="ce_21"><path d="M425.1,257.1V188.5H531.7v68.6Z"/></clipPath>
<clipPath id="cf_21"><path d="M531.5,257.1V188.5h53.1v68.6Z"/></clipPath>
<clipPath id="cg_21"><path d="M0,330.1V282.8H135.5v47.3Z"/></clipPath>
<clipPath id="ch_21"><path d="M43.2,55.4V42.8h90.7V55.4Z"/></clipPath>
<clipPath id="ci_21"><path d="M135.5,358.3v-5.1h88.1v5.1Zm0,-7.4V330.1h88.1v20.8Z"/></clipPath>
<clipPath id="cj_21"><path d="M135.5,330.1v-73h88.1v73Z"/></clipPath>
<clipPath id="ck_21"><path d="M135.5,353.2v-2.3h88.1v2.3Z"/></clipPath>
<clipPath id="cl_21"><path d="M232.8,358.3v-5.1h78.9v5.1Zm0,-7.4V330.1h78.9v20.8Z"/></clipPath>
<clipPath id="cm_21"><path d="M232.8,330.1v-73h78.9v73Z"/></clipPath>
<clipPath id="cn_21"><path d="M232.8,353.2v-2.3h78.9v2.3Z"/></clipPath>
<clipPath id="co_21"><path d="M223.6,358.3v-5.1h9.2v5.1Zm0,-7.4V330.1h9.2v20.8Z"/></clipPath>
<clipPath id="cp_21"><path d="M223.6,330.1v-73h9.2v73Z"/></clipPath>
<clipPath id="cq_21"><path d="M223.6,353.2v-2.3h9.2v2.3Z"/></clipPath>
<clipPath id="cr_21"><path d="M497.2,358.3v-5.1h87.4v-2.3h-11V330.1h11v-73h.7V358.3Z"/></clipPath>
<clipPath id="cs_21"><path d="M573.6,330.1V288.2c0,-3.9,-1.2,-7.5,-3.3,-10.5v-2.6h-2.2c-3.3,-3.3,-7.8,-5.3,-12.8,-5.3H512.9c-5,0,-9.5,2,-12.8,5.3h-2.5v3.1c-.2,.2,-.3,.4,-.4,.6V257.1h87.4v73Z"/></clipPath>
<clipPath id="ct_21"><path d="M573.6,353.2v-2.3h11v2.3Z"/></clipPath>
<clipPath id="cu_21"><path d="M497.6,278.2v-3.1h2.5c-1,.9,-1.8,1.9,-2.5,3.1Zm72.7,-.5c-.6,-.9,-1.3,-1.8,-2.2,-2.6h2.2v2.6Z"/></clipPath>
<clipPath id="cv_21"><path d="M409.1,358.3v-5.1h78.8v5.1Zm76.4,-7.4V330.1h2.4v20.8Z"/></clipPath>
<clipPath id="cw_21"><path d="M485.5,330.1V288.2c0,-10.2,-8.2,-18.4,-18.3,-18.4H424.8c-6.7,0,-12.5,3.6,-15.7,9V257.1h78.8v73Z"/></clipPath>
<clipPath id="cx_21"><path d="M485.5,353.2v-2.3h2.4v2.3Z"/></clipPath>
<clipPath id="cy_21"><path d="M487.9,358.3v-5.1h9.3v5.1Zm0,-7.4V330.1h6.7V346h-.1v4.9Z"/></clipPath>
<clipPath id="cz_21"><path d="M487.9,330.1v-73h9.3v21.7c-1.7,2.7,-2.6,5.9,-2.6,9.4v41.9Z"/></clipPath>
<clipPath id="c10_21"><path d="M487.9,353.2v-2.3h6.6v2.3Z"/></clipPath>
<clipPath id="c11_21"><path d="M494.6,346V288.2c0,-3.5,.9,-6.7,2.6,-9.4V346Z"/></clipPath>
<clipPath id="c12_21"><path d="M494.5,353.2V346h2.7v7.2Z"/></clipPath>
<clipPath id="c13_21"><path d="M321,358.3v-5.1h78.8v5.1Zm0,-7.4V330.1h78.8v20.8Z"/></clipPath>
<clipPath id="c14_21"><path d="M321,330.1v-73h78.8v73Z"/></clipPath>
<clipPath id="c15_21"><path d="M321,353.2v-2.3h78.8v2.3Z"/></clipPath>
<clipPath id="c16_21"><path d="M311.7,358.3v-5.1H321v5.1Zm0,-7.4V330.1H321v20.8Z"/></clipPath>
<clipPath id="c17_21"><path d="M311.7,330.1v-73H321v73Z"/></clipPath>
<clipPath id="c18_21"><path d="M311.7,353.2v-2.3H321v2.3Z"/></clipPath>
<clipPath id="c19_21"><path d="M399.8,358.3v-5.1h9.3v5.1Zm0,-7.4V330.1h6.7V346h-.1v4.9Z"/></clipPath>
<clipPath id="c1a_21"><path d="M399.8,330.1v-73h9.3v21.7c-1.7,2.7,-2.6,5.9,-2.6,9.4v41.9Z"/></clipPath>
<clipPath id="c1b_21"><path d="M399.8,353.2v-2.3h6.6v2.3Z"/></clipPath>
<clipPath id="c1c_21"><path d="M406.5,346V288.2c0,-3.5,.9,-6.7,2.6,-9.4V346Z"/></clipPath>
<clipPath id="c1d_21"><path d="M406.4,353.2V346h2.7v7.2Z"/></clipPath>
<style type="text/css"><![CDATA[
.g0_21{
fill: #E7E8E8;
}
.g1_21{
fill: #1B1661;
}
.g2_21{
fill: #DCDDDE;
}
.g3_21{
fill: #FFF;
}
.g4_21{
fill: #ED1A40;
}
.g5_21{
fill: #D1232A;
}
.g6_21{
fill: #FCB61D;
}
.g7_21{
fill: #FEE6BB;
}
.g8_21{
fill: #CFCBCA;
}
.g9_21{
fill: #5AC4C1;
}
.ga_21{
fill: #09B795;
}
.gb_21{
fill: #F37537;
}
.gc_21{
fill: #5180C1;
}
]]></style>
</defs>
<image clip-path="url(#c0_21)" preserveAspectRatio="none" x="0" y="0" width="106" height="94" xlink:href="img/1.jpg"/>
<image clip-path="url(#c1_21)" preserveAspectRatio="none" x="106" y="0" width="107" height="94" xlink:href="img/2.jpg"/>
<image clip-path="url(#c2_21)" preserveAspectRatio="none" x="212" y="0" width="107" height="94" xlink:href="img/3.jpg"/>
<image clip-path="url(#c3_21)" preserveAspectRatio="none" x="319" y="0" width="106" height="94" xlink:href="img/4.jpg"/>
<image clip-path="url(#c4_21)" preserveAspectRatio="none" x="425" y="0" width="107" height="94" xlink:href="img/5.jpg"/>
<image clip-path="url(#c5_21)" preserveAspectRatio="none" x="531" y="0" width="54" height="189" xlink:href="img/6.jpg"/>
<image clip-path="url(#c6_21)" preserveAspectRatio="none" x="0" y="94" width="106" height="95" xlink:href="img/7.jpg"/>
<image clip-path="url(#c7_21)" preserveAspectRatio="none" x="106" y="94" width="107" height="95" xlink:href="img/8.jpg"/>
<image clip-path="url(#c8_21)" preserveAspectRatio="none" x="212" y="94" width="107" height="95" xlink:href="img/9.jpg"/>
<image clip-path="url(#c9_21)" preserveAspectRatio="none" x="319" y="94" width="106" height="95" xlink:href="img/10.jpg"/>
<image preserveAspectRatio="none" x="425" y="94" width="107" height="95" xlink:href="img/11.jpg"/>
<image clip-path="url(#ca_21)" preserveAspectRatio="none" x="0" y="189" width="106" height="94" xlink:href="img/12.jpg"/>
<image clip-path="url(#cb_21)" preserveAspectRatio="none" x="106" y="189" width="107" height="94" xlink:href="img/13.jpg"/>
<image clip-path="url(#cc_21)" preserveAspectRatio="none" x="212" y="189" width="107" height="94" xlink:href="img/14.jpg"/>
<image clip-path="url(#cd_21)" preserveAspectRatio="none" x="319" y="189" width="106" height="94" xlink:href="img/15.jpg"/>
<image clip-path="url(#ce_21)" preserveAspectRatio="none" x="425" y="189" width="107" height="94" xlink:href="img/16.jpg"/>
<image clip-path="url(#cf_21)" preserveAspectRatio="none" x="531" y="189" width="54" height="94" xlink:href="img/17.jpg"/>
<image clip-path="url(#cg_21)" preserveAspectRatio="none" x="0" y="283" width="160" height="47" xlink:href="img/18.jpg"/>
<image clip-path="url(#ch_21)" preserveAspectRatio="none" x="43" y="43" width="91" height="13" xlink:href="img/19.jpg"/>
<path d="M606.3,1242.6H866.1v-292H606.3v292Z" class="g0_21"/>
<path d="M606.3,950.6H866.1v27.7H606.3V950.6Z" class="g1_21"/>
<path d="M606.3,1006.1H866.1V978.3H606.3v27.8Zm0,236.5H866.1v-36.9H606.3v36.9Z" class="g2_21"/>
<path d="M606.3,1006.5H866.1v-.8H606.3v.8Z" class="g3_21"/>
<path d="M606.3,1206.1H866.1v-.7H606.3v.7Z" class="g3_21"/>
<path d="M625.4,962.2l-1,-.6c-.2,-.2,-.6,-.2,-.8,.1l-4.7,6.9l-2.1,-2.1c-.3,-.2,-.6,-.2,-.8,0l-.9,.8c-.2,.2,-.2,.6,0,.8l3.4,3.3c.1,.2,.4,.4,.7,.4c.3,0,.5,-.2,.7,-.4l5.6,-8.4c.2,-.2,.2,-.6,-.1,-.8Z" class="g3_21"/>
<path d="M325.6,704.6h-.8v372.3H584.6V703.8H324.8v.8h.8v.8H583.1v370H326.3V704.6h-.7v.8Z" class="g1_21"/>
<path d="M369.8,710.5H539.6V696.8H369.8Z" class="g3_21"/>
<path d="M610.6,237.3c-2.4,0,-4.3,2,-4.3,4.4v35.6c0,2.3,1.9,4.3,4.3,4.3H861.8c2.4,0,4.3,-2,4.3,-4.3V241.7c0,-2.4,-1.9,-4.4,-4.3,-4.4Z" class="g4_21"/>
<path d="M727.1,265.8h69.7v-.9H727.1Z" class="g3_21"/>
<path d="M324.8,1242.6H584.6V1089.9H324.8v152.7Z" class="g0_21"/>
<path d="M324.8,1089.9H584.6v26.3H324.8v-26.3Z" class="g1_21"/>
<path d="M324.8,1138.3H511.6v22.2H324.8v-22.2Zm186.8,0h73v22.2h-73v-22.2Zm-186.8,61.2H511.6v22.1H324.8v-22.1Zm186.8,0h73v22.1h-73v-22.1Z" class="g2_21"/>
<path d="M324.8,1222.4H511.6v-1.5H324.8Z" class="g3_21"/>
<path d="M511.6,1222.4h73v-1.5h-73Z" class="g3_21"/>
<path d="M343.9,1100.1l-1,-.6c-.2,-.2,-.6,-.1,-.8,.1l-4.7,6.9l-2.1,-2.1c-.3,-.2,-.6,-.2,-.8,0l-.9,.8c-.2,.2,-.2,.6,0,.8l3.4,3.3c.1,.2,.4,.4,.7,.4c.3,0,.5,-.2,.7,-.4l5.7,-8.4c.1,-.2,.1,-.6,-.2,-.8Z" class="g3_21"/>
<path d="M44.1,829.2h-.8v34.6H303.1V828.5H43.3v.7h.8v.8H301.6v32.2H44.8v-33h-.7v.8Z" class="g5_21"/>
<path d="M64.5,854.3c-5.3,0,-9.6,-4.4,-9.6,-9.7c0,-5.4,4.4,-9.7,9.7,-9.6c5.3,0,9.6,4.3,9.6,9.6c0,5.4,-4.4,9.7,-9.7,9.7m0,-1.4c4.6,0,8.3,-3.7,8.3,-8.3c0,-4.5,-3.7,-8.3,-8.3,-8.3c-4.5,0,-8.2,3.8,-8.2,8.3c-.1,4.5,3.6,8.3,8.2,8.3Z" class="g5_21"/>
<path d="M51.3,840.1c.4,.1,.5,0,.5,-.4c0,-1.2,0,-2.5,0,-3.7c0,-.2,-.1,-.4,0,-.6c.2,-.2,.4,-.5,.6,-.5c.3,0,.5,.3,.7,.5c.1,.2,.1,.4,.1,.6c0,1.4,0,2.7,0,4.1h.4c0,-.9,0,-1.8,0,-2.7c0,-.6,-.1,-1.2,-.1,-1.8c0,-.4,.3,-.7,.7,-.7c.4,0,.7,.2,.7,.6c.1,1.9,.2,3.7,.2,5.5c0,.8,-.4,1.5,-1.1,1.9c-.3,.2,-.4,.5,-.4,.9c.1,3.4,.1,6.9,.2,10.4c0,.6,-.2,1.1,-.8,1.3c-.5,.3,-1,.2,-1.4,-.2c-.2,-.3,-.4,-.8,-.4,-1.1c0,-2.3,0,-4.6,.1,-6.9c0,-1.3,0,-2.5,0,-3.7c0,-.2,-.2,-.5,-.3,-.6c-.8,-.6,-1.2,-1.4,-1.2,-2.3c.1,-1.7,.2,-3.4,.2,-5c0,-.5,.2,-.8,.7,-.8c.4,-.1,.7,.3,.7,.8c0,1.3,-.1,2.5,-.1,3.8c0,.2,0,.4,0,.6m2.1,1.5H51.5c.7,.6,1.3,.6,1.9,0Z" class="g5_21"/>
<path d="M75,845.4c0,-2.9,0,-5.8,0,-8.7c0,-.7,.2,-1.2,.8,-1.6c.9,-.6,2.1,-.1,2.4,1.1c.5,2.2,.8,4.5,.5,6.9c-.1,1.1,-.3,2.1,-.5,3.2c0,.3,0,.5,0,.8c0,2.3,0,4.7,0,7.1c-.1,1,-.7,1.5,-1.7,1.5c-.9,0,-1.5,-.6,-1.5,-1.5c0,-.2,0,-.3,0,-.5c0,-2.8,0,-5.5,0,-8.3m1.3,.4q.6,.1,.7,-.4c.5,-2.3,.5,-4.6,.2,-7c-.1,-.6,-.2,-1.2,-.3,-1.7l-.3,-.4l-.2,.4l-.1,.3c0,2.7,0,5.5,0,8.2Z" class="g5_21"/>
<path d="M64.5,837.8v.8h.1c3.2,0,5.9,2.7,6,6c0,3.3,-2.7,6,-6,6h-.1c-1.6,0,-3.1,-.7,-4.2,-1.7c-1.1,-1.1,-1.8,-2.6,-1.8,-4.3c0,-3.3,2.7,-6,6,-6v-1.5c-4.1,0,-7.5,3.4,-7.5,7.5c0,4.2,3.4,7.5,7.5,7.5h.1c4.1,0,7.5,-3.4,7.5,-7.5c0,-4.2,-3.4,-7.5,-7.5,-7.5h-.1Z" class="g5_21"/>
<path d="M866.1,345.1V324.7h-.7v20.4Z" class="g3_21"/>
<path d="M866.1,369.9V345.1h-.7v24.8Z" class="g3_21"/>
<path d="M781.4,390.3V369.9h-.8v20.4Z" class="g3_21"/>
<path d="M866.1,390.3V369.9h-.7v20.4Z" class="g3_21"/>
<path d="M781.4,410.7V390.3h-.8v20.4Z" class="g3_21"/>
<path d="M866.1,410.7V390.3h-.7v20.4Z" class="g3_21"/>
<path d="M781.4,431.1V410.7h-.8v20.4Z" class="g3_21"/>
<path d="M866.1,431.1V410.7h-.7v20.4Z" class="g3_21"/>
<path d="M781.4,451.5V431.1h-.8v20.4Z" class="g3_21"/>
<path d="M866.1,451.5V431.1h-.7v20.4Z" class="g3_21"/>
<path d="M781.4,471.9V451.5h-.8v20.4Z" class="g3_21"/>
<path d="M866.1,471.9V451.5h-.7v20.4Z" class="g3_21"/>
<path d="M781.4,492.3V471.9h-.8v20.4Z" class="g3_21"/>
<path d="M866.1,492.3V471.9h-.7v20.4Z" class="g3_21"/>
<path d="M781.4,512.7V492.3h-.8v20.4Z" class="g3_21"/>
<path d="M866.1,512.7V492.3h-.7v20.4Z" class="g3_21"/>
<path d="M781.4,533.1V512.7h-.8v20.4Z" class="g3_21"/>
<path d="M866.1,533.1V512.7h-.7v20.4Z" class="g3_21"/>
<path d="M781.4,553.5V533.1h-.8v20.4Z" class="g3_21"/>
<path d="M866.1,553.5V533.1h-.7v20.4Z" class="g3_21"/>
<path d="M781.4,573.9V553.5h-.8v20.4Z" class="g3_21"/>
<path d="M866.1,573.9V553.5h-.7v20.4Z" class="g3_21"/>
<path d="M781.4,594.3V573.9h-.8v20.4Z" class="g3_21"/>
<path d="M866.1,594.3V573.9h-.7v20.4Z" class="g3_21"/>
<path d="M781.4,614.7V594.3h-.8v20.4Z" class="g3_21"/>
<path d="M866.1,614.7V594.3h-.7v20.4Z" class="g3_21"/>
<path d="M640.9,345.9H781v-1.6H640.9Z" class="g6_21"/>
<path d="M781,345.9h84.4v-1.6H781Z" class="g6_21"/>
<path d="M624.1,363.6c9.9,0,17.9,-8,17.9,-17.8c0,-9.9,-8,-17.9,-17.9,-17.9c-9.8,0,-17.8,8,-17.8,17.9c0,9.8,8,17.8,17.8,17.8Z" class="g6_21"/>
<path d="M634.6,347.6c0,.7,.2,1.4,.2,2.1c0,2.1,-1,3.6,-2.7,4.7c-1.3,.9,-2.8,1.3,-4.3,1.3c-2.4,0,-4.8,0,-7.2,0c-1.7,0,-3.2,-.4,-4.5,-1.4c-2,-1.3,-2.8,-3.2,-2.5,-5.6c.2,-2,.3,-3.9,.4,-5.9c0,-1.8,-.1,-3.6,-.1,-5.4c0,-2.1,.9,-3.7,2.5,-5c1.5,-1.1,3.1,-1.5,4.9,-1.6c1.9,0,3.9,0,5.8,0c1.6,.1,3.2,.5,4.6,1.5c1.9,1.3,2.8,3.2,2.7,5.6c-.1,1.2,0,2.4,0,3.6c-.1,0,.1,4,.2,6.1M624.2,332.1V332c-1,0,-1.9,0,-2.9,0c-1.3,.1,-2.5,.3,-3.6,1c-1.6,1,-2.7,2.3,-2.6,4.2c.1,.8,.3,1.7,.6,2.5c.4,1.4,1,2.6,2.1,3.5c.3,.3,.3,.6,0,.9c-.6,.6,-1.3,1.2,-2.1,1.5c-.6,.2,-.7,.5,-.7,1c-.1,.5,.1,.9,.4,1.2c.7,.8,1.7,1.4,2.7,1.8c1.8,.8,3.7,1,5.6,1c2,.1,4.1,-.1,6,-.8c1.4,-.5,2.6,-1.2,3.4,-2.3c.1,-.1,.2,-.3,.2,-.4c0,-.4,0,-.7,0,-1.1l-.3,-.2c-1,-.4,-1.8,-1,-2.5,-1.7c-.3,-.3,-.3,-.6,0,-.9c.4,-.5,.9,-1,1.2,-1.5c.8,-1.2,1.2,-2.6,1.4,-4c.2,-1.2,-.1,-2.2,-.8,-3.1c-1.1,-1.6,-2.7,-2.3,-4.6,-2.5c-1.1,-.1,-2.3,0,-3.5,0m-9.4,16.5c-.3,1.6,0,3,1.3,4.2c1.3,1.2,2.8,1.7,4.6,1.7c2.3,0,4.6,0,6.9,0c.8,0,1.6,-.1,2.4,-.4c1.3,-.5,2.5,-1.2,3.2,-2.6c.5,-.9,.5,-1.9,.3,-3l-.1,.1c-1.1,1.4,-2.6,2.2,-4.3,2.6c-2.9,.8,-5.7,.8,-8.6,.3c-1.4,-.2,-2.8,-.6,-3.9,-1.5c-.7,-.4,-1.2,-.9,-1.8,-1.4Z" class="g7_21"/>
<path d="M618.8,356.1c-.5,.4,-1,.8,-1.5,1.1c-.5,.4,-1.7,1.4,-2.3,1.8c-.2,.2,-.5,.2,-.7,.2l-.3,-.4c-.1,-.2,0,-.4,.2,-.6c.3,-.3,1.4,-1.1,1.7,-1.4c.4,-.3,.9,-.7,1.3,-1h.4c.4,0,.8,.2,1.2,.3Z" class="g7_21"/>
<path d="M629.5,356.1c.5,-.1,.9,-.3,1.3,-.4l.3,.1c.7,.6,2.3,1.8,3,2.3c.1,.1,.3,.3,.3,.4c.1,.2,.1,.5,-.2,.6c-.2,.1,-.5,.2,-.7,0c-1.1,-.7,-2.9,-2.2,-4,-3Z" class="g7_21"/>
<path d="M624.1,342.7c-1.1,0,-2.1,.1,-3.2,0c-2,-.1,-3.5,-1.5,-3.9,-3.5c-.1,-.5,-.2,-1,-.3,-1.5c-.4,-1.9,1,-3.5,3,-3.5c3,0,5.9,0,8.9,0c1.9,0,3.2,1.4,3,3.3c-.1,1.1,-.3,2.2,-.8,3.1c-.9,1.4,-2.2,2.2,-3.9,2.2c-.9,0,-1.9,0,-2.8,0Z" class="g7_21"/>
<path d="M628.7,345.4c.3,0,.5,0,.8,0c.4,.1,.7,.3,.5,.7c-.4,.8,-.9,1.7,-1.4,2.5c-.1,.2,-.3,.3,-.6,.3c-.5,0,-1.1,0,-1.6,0c-.5,0,-.7,-.3,-.6,-.6c.5,-.9,1,-1.7,1.5,-2.5c.1,-.3,.3,-.4,.6,-.4c.3,.1,.5,0,.8,0Z" class="g7_21"/>
<path d="M621.1,348.9c-.2,0,-.5,0,-.7,0c-.3,0,-.6,-.1,-.7,-.3c-.5,-.8,-1,-1.7,-1.4,-2.5c-.2,-.4,0,-.6,.6,-.7c.5,0,1,0,1.5,0c.3,0,.5,.1,.6,.4c.5,.8,1,1.6,1.5,2.5c.2,.3,-.1,.6,-.6,.6c-.2,0,-.5,0,-.8,0Z" class="g7_21"/>
<path d="M625.2,353.2c0,.6,-.5,1.1,-1,1.1c-.6,0,-1.1,-.5,-1.1,-1c0,-.6,.5,-1.1,1,-1.1c.6,0,1.1,.5,1.1,1Z" class="g7_21"/>
<path d="M606.3,919.3H866.1v-1.6H606.3Z" class="g8_21"/>
<path d="M866.1,643.8V623.4h-.7v20.4Z" class="g3_21"/>
<path d="M866.1,668.6V643.8h-.7v24.8Z" class="g3_21"/>
<path d="M781.4,689V668.6h-.8V689Z" class="g3_21"/>
<path d="M866.1,689V668.6h-.7V689Z" class="g3_21"/>
<path d="M781.4,709.4V689h-.8v20.4Z" class="g3_21"/>
<path d="M866.1,709.4V689h-.7v20.4Z" class="g3_21"/>
<path d="M781.4,729.8V709.4h-.8v20.4Z" class="g3_21"/>
<path d="M866.1,729.8V709.4h-.7v20.4Z" class="g3_21"/>
<path d="M781.4,750.2V729.8h-.8v20.4Z" class="g3_21"/>
<path d="M866.1,750.2V729.8h-.7v20.4Z" class="g3_21"/>
<path d="M781.4,770.6V750.2h-.8v20.4Z" class="g3_21"/>
<path d="M866.1,770.6V750.2h-.7v20.4Z" class="g3_21"/>
<path d="M781.4,791V770.6h-.8V791Z" class="g3_21"/>
<path d="M866.1,791V770.6h-.7V791Z" class="g3_21"/>
<path d="M781.4,811.4V791h-.8v20.4Z" class="g3_21"/>
<path d="M866.1,811.4V791h-.7v20.4Z" class="g3_21"/>
<path d="M781.4,831.8V811.4h-.8v20.4Z" class="g3_21"/>
<path d="M866.1,831.8V811.4h-.7v20.4Z" class="g3_21"/>
<path d="M781.4,852.2V831.8h-.8v20.4Z" class="g3_21"/>
<path d="M866.1,852.2V831.8h-.7v20.4Z" class="g3_21"/>
<path d="M781.4,872.6V852.2h-.8v20.4Z" class="g3_21"/>
<path d="M866.1,872.6V852.2h-.7v20.4Z" class="g3_21"/>
<path d="M781.4,893V872.6h-.8V893Z" class="g3_21"/>
<path d="M866.1,893V872.6h-.7V893Z" class="g3_21"/>
<path d="M781.4,913.4V893h-.8v20.4Z" class="g3_21"/>
<path d="M866.1,913.4V893h-.7v20.4Z" class="g3_21"/>
<path d="M640.9,644.5H781V643H640.9Z" class="g6_21"/>
<path d="M781,644.5h84.4V643H781Z" class="g6_21"/>
<path d="M624.1,662.3c9.9,0,17.9,-8,17.9,-17.8c0,-9.9,-8,-17.9,-17.9,-17.9c-9.8,0,-17.8,8,-17.8,17.9c0,9.8,8,17.8,17.8,17.8Z" class="g6_21"/>
<path d="M634.6,646.2c0,.8,.2,1.5,.2,2.2c0,2,-1,3.6,-2.7,4.7c-1.3,.9,-2.8,1.2,-4.3,1.3c-2.4,0,-4.8,0,-7.2,0c-1.7,0,-3.2,-.5,-4.5,-1.4c-2,-1.4,-2.8,-3.2,-2.5,-5.6c.2,-2,.3,-3.9,.4,-5.9c0,-1.8,-.1,-3.6,-.1,-5.4c0,-2.1,.9,-3.8,2.5,-5c1.5,-1.1,3.1,-1.6,4.9,-1.6c1.9,0,3.9,0,5.8,0c1.6,0,3.2,.5,4.6,1.4c1.9,1.4,2.8,3.2,2.7,5.7c-.1,1.2,0,2.4,0,3.6c-.1,0,.1,4,.2,6M624.2,630.8v-.1c-1,0,-1.9,0,-2.9,0c-1.3,0,-2.5,.3,-3.6,1c-1.6,1,-2.7,2.3,-2.6,4.2c.1,.8,.3,1.7,.6,2.5c.4,1.3,1,2.6,2.1,3.5c.3,.3,.3,.6,0,.9c-.6,.6,-1.3,1.2,-2.1,1.5c-.6,.2,-.7,.5,-.7,1c-.1,.5,.1,.8,.4,1.2c.7,.8,1.7,1.4,2.7,1.8c1.8,.7,3.7,1,5.6,1c2,.1,4.1,-.1,6,-.8c1.4,-.5,2.6,-1.2,3.4,-2.3c.1,-.1,.2,-.3,.2,-.4c0,-.4,0,-.7,0,-1.1l-.3,-.2c-1,-.4,-1.8,-1,-2.5,-1.7c-.3,-.3,-.3,-.6,0,-1c.4,-.4,.9,-.9,1.2,-1.4c.8,-1.3,1.2,-2.6,1.4,-4c.2,-1.2,-.1,-2.2,-.8,-3.2c-1.1,-1.5,-2.7,-2.2,-4.6,-2.4c-1.1,-.1,-2.3,0,-3.5,0m-9.4,16.5c-.3,1.6,0,3,1.3,4.2c1.3,1.2,2.8,1.7,4.6,1.7c2.3,0,4.6,0,6.9,0c.8,0,1.6,-.1,2.4,-.4c1.3,-.5,2.5,-1.3,3.2,-2.6c.5,-1,.5,-2,.3,-3l-.1,.1c-1.1,1.4,-2.6,2.2,-4.3,2.6c-2.9,.8,-5.7,.8,-8.6,.3c-1.4,-.2,-2.8,-.7,-3.9,-1.5c-.7,-.4,-1.2,-.9,-1.8,-1.4Z" class="g7_21"/>
<path d="M618.8,654.8c-.5,.4,-1,.7,-1.5,1.1c-.5,.4,-1.7,1.4,-2.3,1.8c-.2,.2,-.5,.2,-.7,.1l-.3,-.3c-.1,-.2,0,-.5,.2,-.6c.3,-.3,1.4,-1.2,1.7,-1.4c.4,-.3,.9,-.7,1.3,-1l.4,-.1c.4,.1,.8,.3,1.2,.4Z" class="g7_21"/>
<path d="M629.5,654.8c.5,-.2,.9,-.3,1.3,-.4l.3,.1c.7,.6,2.3,1.8,3,2.3c.1,.1,.3,.3,.3,.4c.1,.2,.1,.5,-.2,.6c-.2,.1,-.5,.1,-.7,0c-1.1,-.7,-2.9,-2.2,-4,-3Z" class="g7_21"/>
<path d="M624.1,641.4c-1.1,0,-2.1,.1,-3.2,0c-2,-.1,-3.5,-1.6,-3.9,-3.5c-.1,-.5,-.2,-1,-.3,-1.5c-.4,-1.9,1,-3.6,3,-3.6c3,0,5.9,0,8.9,0c1.9,.1,3.2,1.5,3,3.4c-.1,1,-.3,2.1,-.8,3.1c-.9,1.4,-2.2,2.2,-3.9,2.1c-.9,0,-1.9,0,-2.8,0Z" class="g7_21"/>
<path d="M628.7,644.1c.3,0,.5,0,.8,0c.4,0,.7,.3,.5,.6c-.4,.9,-.9,1.8,-1.4,2.6c-.1,.2,-.3,.3,-.6,.3c-.5,0,-1.1,0,-1.6,0c-.5,0,-.7,-.3,-.6,-.7c.5,-.8,1,-1.6,1.5,-2.5c.1,-.2,.3,-.3,.6,-.3c.3,0,.5,0,.8,0Z" class="g7_21"/>
<path d="M621.1,647.6c-.2,0,-.5,0,-.7,0c-.3,0,-.6,-.1,-.7,-.3c-.5,-.9,-1,-1.7,-1.4,-2.5c-.2,-.4,0,-.7,.6,-.7c.5,0,1,0,1.5,0c.3,0,.5,.1,.6,.3c.5,.9,1,1.7,1.5,2.5c.2,.4,-.1,.7,-.6,.7c-.2,0,-.5,0,-.8,0Z" class="g7_21"/>
<path d="M625.2,651.9c0,.6,-.5,1.1,-1,1.1c-.6,0,-1.1,-.5,-1.1,-1.1c0,-.5,.5,-1,1,-1c.6,0,1.1,.4,1.1,1Z" class="g7_21"/>
<path d="M782.5,324.5V294.6h-3.1v29.9Z" class="g3_21"/>
<path d="M606.7,183.9h34.6v40.4H606.7V183.9Z" class="g3_21"/>
<image x="641" y="183" width="226" height="42" xlink:href="shade/1.png"/>
<path d="M641.3,205H866.1v-1.5H641.3Z" class="g6_21"/>
<path d="M624.5,222.8c9.9,0,17.9,-8,17.9,-17.8c0,-9.9,-8,-17.9,-17.9,-17.9c-9.8,0,-17.8,8,-17.8,17.9c0,9.8,8,17.8,17.8,17.8Z" class="g6_21"/>
<path d="M635,206.8c0,.7,.2,1.4,.2,2.1c-.1,2.1,-1,3.6,-2.7,4.7c-1.3,.9,-2.8,1.3,-4.4,1.3c-2.4,0,-4.8,0,-7.2,0c-1.6,0,-3.1,-.4,-4.5,-1.4c-1.9,-1.4,-2.7,-3.2,-2.5,-5.6c.3,-2,.4,-3.9,.4,-5.9c.1,-1.8,0,-3.6,0,-5.4c-.1,-2.1,.8,-3.8,2.5,-5c1.5,-1.1,3.1,-1.6,4.9,-1.6c1.9,0,3.8,0,5.7,0c1.7,.1,3.3,.5,4.7,1.5c1.9,1.3,2.8,3.2,2.7,5.6c-.1,1.2,-.1,2.4,-.1,3.6c0,0,.1,4,.3,6.1M624.5,191.3v-.1c-.9,0,-1.8,0,-2.8,0c-1.3,0,-2.5,.3,-3.7,1c-1.5,1,-2.6,2.3,-2.5,4.2c.1,.8,.3,1.7,.6,2.5c.4,1.3,1,2.6,2.1,3.5c.3,.3,.3,.6,0,.9c-.6,.6,-1.3,1.2,-2.1,1.5c-.6,.2,-.7,.5,-.7,1c-.1,.5,0,.9,.4,1.2c.7,.8,1.6,1.4,2.6,1.8c1.8,.7,3.7,1,5.7,1c2,.1,4,-.1,6,-.8c1.3,-.5,2.5,-1.2,3.4,-2.3c.1,-.1,.2,-.3,.2,-.4c0,-.4,0,-.7,-.1,-1.1l-.2,-.2c-1,-.4,-1.8,-1,-2.6,-1.7c-.3,-.3,-.2,-.6,.1,-1c.4,-.4,.9,-.9,1.2,-1.4c.7,-1.2,1.2,-2.6,1.4,-4c.2,-1.2,-.1,-2.2,-.8,-3.2c-1.1,-1.5,-2.7,-2.2,-4.6,-2.4c-1.2,-.1,-2.4,0,-3.6,0m-9.3,16.5c-.3,1.6,0,3,1.3,4.2c1.2,1.2,2.8,1.7,4.5,1.7c2.3,0,4.7,0,7,0c.8,0,1.6,-.1,2.3,-.4c1.4,-.5,2.6,-1.2,3.3,-2.6c.4,-1,.5,-2,.2,-3l-.1,.1c-1.1,1.4,-2.5,2.2,-4.2,2.6c-2.9,.8,-5.8,.8,-8.7,.3c-1.4,-.2,-2.7,-.7,-3.9,-1.5c-.6,-.4,-1.1,-.9,-1.7,-1.4Z" class="g7_21"/>
<path d="M619.2,215.3c-.5,.4,-1,.8,-1.5,1.1c-.5,.4,-1.8,1.4,-2.3,1.8c-.2,.2,-.5,.2,-.8,.2l-.3,-.4c0,-.2,0,-.5,.3,-.6c.3,-.3,1.3,-1.2,1.7,-1.4c.4,-.3,.8,-.7,1.3,-1l.4,-.1c.4,.1,.7,.3,1.2,.4Z" class="g7_21"/>
<path d="M629.9,215.3c.5,-.2,.9,-.3,1.3,-.4l.3,.1c.7,.6,2.3,1.8,3,2.3c.1,.1,.2,.3,.3,.4c.1,.2,0,.5,-.2,.6c-.2,.1,-.5,.1,-.7,0c-1.1,-.7,-2.9,-2.2,-4,-3Z" class="g7_21"/>
<path d="M624.5,201.9c-1.1,0,-2.2,.1,-3.2,0c-2,-.1,-3.5,-1.6,-3.9,-3.5c-.1,-.5,-.2,-1,-.3,-1.5c-.4,-1.9,1,-3.5,2.9,-3.5c3,-.1,6,-.1,9,0c1.9,0,3.2,1.4,3,3.3c-.2,1,-.3,2.1,-.9,3.1c-.8,1.4,-2.1,2.2,-3.8,2.2c-.9,-.1,-1.9,0,-2.8,0Z" class="g7_21"/>
<path d="M629.1,204.6c.2,0,.5,0,.8,0c.4,0,.7,.3,.5,.7c-.4,.8,-1,1.7,-1.5,2.5c-.1,.2,-.3,.3,-.5,.3c-.6,0,-1.1,0,-1.6,0c-.5,0,-.8,-.3,-.6,-.7c.5,-.8,1,-1.6,1.5,-2.5c.1,-.2,.3,-.3,.6,-.3c.3,0,.5,0,.8,0Z" class="g7_21"/>
<path d="M621.5,208.1c-.3,0,-.5,0,-.7,0c-.4,0,-.6,-.1,-.7,-.3c-.5,-.9,-1,-1.7,-1.4,-2.5c-.3,-.4,0,-.7,.6,-.7c.4,0,.9,0,1.4,0c.4,0,.6,.1,.7,.4c.5,.8,1,1.6,1.5,2.4c.1,.4,-.1,.7,-.6,.7c-.3,0,-.5,0,-.8,0Z" class="g7_21"/>
<path d="M625.6,212.4c0,.6,-.5,1.1,-1.1,1.1c-.5,0,-1,-.5,-1,-1.1c0,-.5,.4,-1,1,-1c.6,0,1.1,.5,1.1,1Z" class="g7_21"/>
<path d="M43.3,353.2H584.6v-2.3H43.3v2.3Z" class="g9_21"/>
<image clip-path="url(#ci_21)" preserveAspectRatio="none" x="135" y="330" width="98" height="29" xlink:href="img/20.jpg"/>
<image clip-path="url(#cj_21)" preserveAspectRatio="none" x="135" y="257" width="89" height="73" xlink:href="img/21.jpg"/>
<image clip-path="url(#ck_21)" preserveAspectRatio="none" x="135" y="350" width="89" height="4" xlink:href="img/22.jpg"/>
<path d="M160.5,269.8c-10.2,0,-18.4,8.2,-18.4,18.4v64.1h79.1V288.2c0,-10.2,-8.2,-18.4,-18.4,-18.4Z" class="g3_21"/>
<path d="M148.3,296h2.3c.2,0,.4,-.2,.4,-.4c0,-.2,-.2,-.4,-.4,-.4h-2.3c-.2,0,-.4,.2,-.4,.4c0,.2,.2,.4,.4,.4m3.9,0h2.3c.2,0,.4,-.2,.4,-.4c0,-.2,-.2,-.4,-.4,-.4h-2.3c-.2,0,-.4,.2,-.4,.4c0,.2,.2,.4,.4,.4m3.9,0h2.3c.2,0,.4,-.2,.4,-.4c0,-.2,-.2,-.4,-.4,-.4h-2.3c-.2,0,-.4,.2,-.4,.4c0,.2,.2,.4,.4,.4m3.8,0h2.4c.2,0,.4,-.2,.4,-.4c0,-.2,-.2,-.4,-.4,-.4h-2.4c-.2,0,-.3,.2,-.3,.4c0,.2,.1,.4,.3,.4m3.9,0h2.4c.2,0,.3,-.2,.3,-.4c0,-.2,-.1,-.4,-.3,-.4h-2.4c-.2,0,-.4,.2,-.4,.4c0,.2,.2,.4,.4,.4m3.9,0H170c.2,0,.4,-.2,.4,-.4c0,-.2,-.2,-.4,-.4,-.4h-2.3c-.2,0,-.4,.2,-.4,.4c0,.2,.2,.4,.4,.4m3.9,0h2.3c.2,0,.4,-.2,.4,-.4c0,-.2,-.2,-.4,-.4,-.4h-2.3c-.2,0,-.4,.2,-.4,.4c0,.2,.2,.4,.4,.4m3.9,0h2.3c.2,0,.4,-.2,.4,-.4c0,-.2,-.2,-.4,-.4,-.4h-2.3c-.2,0,-.4,.2,-.4,.4c0,.2,.2,.4,.4,.4m3.9,0h2.3c.2,0,.4,-.2,.4,-.4c0,-.2,-.2,-.4,-.4,-.4h-2.3c-.3,0,-.4,.2,-.4,.4c0,.2,.1,.4,.4,.4m3.8,0h2.4c.2,0,.3,-.2,.3,-.4c0,-.2,-.1,-.4,-.3,-.4h-2.4c-.2,0,-.3,.2,-.3,.4c0,.2,.1,.4,.3,.4m3.9,0h2.3c.3,0,.4,-.2,.4,-.4c0,-.2,-.1,-.4,-.4,-.4h-2.3c-.2,0,-.4,.2,-.4,.4c0,.2,.2,.4,.4,.4m3.9,0h2.3c.2,0,.4,-.2,.4,-.4c0,-.2,-.2,-.4,-.4,-.4H191c-.2,0,-.4,.2,-.4,.4c0,.2,.2,.4,.4,.4m3.9,0h2.3c.2,0,.4,-.2,.4,-.4c0,-.2,-.2,-.4,-.4,-.4h-2.3c-.2,0,-.4,.2,-.4,.4c0,.2,.2,.4,.4,.4m3.9,0h2.3c.2,0,.4,-.2,.4,-.4c0,-.2,-.2,-.4,-.4,-.4h-2.3c-.2,0,-.4,.2,-.4,.4c0,.2,.2,.4,.4,.4m3.8,0H205c.2,0,.4,-.2,.4,-.4c0,-.2,-.2,-.4,-.4,-.4h-2.4c-.2,0,-.3,.2,-.3,.4c0,.2,.1,.4,.3,.4m3.9,0h2.4c.2,0,.3,-.2,.3,-.4c0,-.2,-.1,-.4,-.3,-.4h-2.4c-.2,0,-.4,.2,-.4,.4c0,.2,.2,.4,.4,.4m3.9,0h2.3c.2,0,.4,-.2,.4,-.4c0,-.2,-.2,-.4,-.4,-.4h-2.3c-.2,0,-.4,.2,-.4,.4c0,.2,.2,.4,.4,.4m3.9,0h2.3c.2,0,.4,-.2,.4,-.4c0,-.2,-.2,-.4,-.4,-.4h-2.3c-.2,0,-.4,.2,-.4,.4c0,.2,.2,.4,.4,.4Z" class="g4_21"/>
<path d="M148.3,328.3h2.3c.2,0,.4,-.2,.4,-.4c0,-.2,-.2,-.4,-.4,-.4h-2.3c-.2,0,-.4,.2,-.4,.4c0,.2,.2,.4,.4,.4m3.9,0h2.3c.2,0,.4,-.2,.4,-.4c0,-.2,-.2,-.4,-.4,-.4h-2.3c-.2,0,-.4,.2,-.4,.4c0,.2,.2,.4,.4,.4m3.9,0h2.3c.2,0,.4,-.2,.4,-.4c0,-.2,-.2,-.4,-.4,-.4h-2.3c-.2,0,-.4,.2,-.4,.4c0,.2,.2,.4,.4,.4m3.8,0h2.4c.2,0,.4,-.2,.4,-.4c0,-.2,-.2,-.4,-.4,-.4h-2.4c-.2,0,-.3,.2,-.3,.4c0,.2,.1,.4,.3,.4m3.9,0h2.4c.2,0,.3,-.2,.3,-.4c0,-.2,-.1,-.4,-.3,-.4h-2.4c-.2,0,-.4,.2,-.4,.4c0,.2,.2,.4,.4,.4m3.9,0H170c.2,0,.4,-.2,.4,-.4c0,-.2,-.2,-.4,-.4,-.4h-2.3c-.2,0,-.4,.2,-.4,.4c0,.2,.2,.4,.4,.4m3.9,0h2.3c.2,0,.4,-.2,.4,-.4c0,-.2,-.2,-.4,-.4,-.4h-2.3c-.2,0,-.4,.2,-.4,.4c0,.2,.2,.4,.4,.4m3.9,0h2.3c.2,0,.4,-.2,.4,-.4c0,-.2,-.2,-.4,-.4,-.4h-2.3c-.2,0,-.4,.2,-.4,.4c0,.2,.2,.4,.4,.4m3.9,0h2.3c.2,0,.4,-.2,.4,-.4c0,-.2,-.2,-.4,-.4,-.4h-2.3c-.3,0,-.4,.2,-.4,.4c0,.2,.1,.4,.4,.4m3.8,0h2.4c.2,0,.3,-.2,.3,-.4c0,-.2,-.1,-.4,-.3,-.4h-2.4c-.2,0,-.3,.2,-.3,.4c0,.2,.1,.4,.3,.4m3.9,0h2.3c.3,0,.4,-.2,.4,-.4c0,-.2,-.1,-.4,-.4,-.4h-2.3c-.2,0,-.4,.2,-.4,.4c0,.2,.2,.4,.4,.4m3.9,0h2.3c.2,0,.4,-.2,.4,-.4c0,-.2,-.2,-.4,-.4,-.4H191c-.2,0,-.4,.2,-.4,.4c0,.2,.2,.4,.4,.4m3.9,0h2.3c.2,0,.4,-.2,.4,-.4c0,-.2,-.2,-.4,-.4,-.4h-2.3c-.2,0,-.4,.2,-.4,.4c0,.2,.2,.4,.4,.4m3.9,0h2.3c.2,0,.4,-.2,.4,-.4c0,-.2,-.2,-.4,-.4,-.4h-2.3c-.2,0,-.4,.2,-.4,.4c0,.2,.2,.4,.4,.4m3.8,0H205c.2,0,.4,-.2,.4,-.4c0,-.2,-.2,-.4,-.4,-.4h-2.4c-.2,0,-.3,.2,-.3,.4c0,.2,.1,.4,.3,.4m3.9,0h2.4c.2,0,.3,-.2,.3,-.4c0,-.2,-.1,-.4,-.3,-.4h-2.4c-.2,0,-.4,.2,-.4,.4c0,.2,.2,.4,.4,.4m3.9,0h2.3c.2,0,.4,-.2,.4,-.4c0,-.2,-.2,-.4,-.4,-.4h-2.3c-.2,0,-.4,.2,-.4,.4c0,.2,.2,.4,.4,.4m3.9,0h2.3c.2,0,.4,-.2,.4,-.4c0,-.2,-.2,-.4,-.4,-.4h-2.3c-.2,0,-.4,.2,-.4,.4c0,.2,.2,.4,.4,.4Z" class="g4_21"/>
<path d="M142.1,353.2h79v-6.7h-79v6.7Z" class="g9_21"/>
<image clip-path="url(#cl_21)" preserveAspectRatio="none" x="232" y="330" width="90" height="29" xlink:href="img/23.jpg"/>
<image clip-path="url(#cm_21)" preserveAspectRatio="none" x="223" y="257" width="89" height="73" xlink:href="img/24.jpg"/>
<image clip-path="url(#cn_21)" preserveAspectRatio="none" x="232" y="350" width="80" height="4" xlink:href="img/25.jpg"/>
<image clip-path="url(#co_21)" preserveAspectRatio="none" x="223" y="329" width="11" height="30" xlink:href="img/26.jpg"/>
<image clip-path="url(#cp_21)" preserveAspectRatio="none" x="223" y="257" width="10" height="73" xlink:href="img/27.jpg"/>
<image clip-path="url(#cq_21)" preserveAspectRatio="none" x="223" y="350" width="11" height="4" xlink:href="img/28.jpg"/>
<path d="M248.6,269.8c-10.1,0,-18.3,8.2,-18.3,18.4v64.1h79V288.2c0,-10.2,-8.2,-18.4,-18.3,-18.4Z" class="g3_21"/>
<path d="M230.2,353.2h79.1V346H230.2v7.2Z" class="g9_21"/>
<path d="M236.4,296H239c.2,0,.3,-.2,.3,-.4c0,-.2,-.1,-.4,-.3,-.4h-2.6c-.2,0,-.4,.2,-.4,.4c0,.2,.2,.4,.4,.4m4.3,0h2.6c.2,0,.4,-.2,.4,-.4c0,-.2,-.2,-.4,-.4,-.4h-2.6c-.2,0,-.3,.2,-.3,.4c0,.2,.1,.4,.3,.4m4.3,0h2.6c.2,0,.4,-.2,.4,-.4c0,-.2,-.2,-.4,-.4,-.4H245c-.2,0,-.3,.2,-.3,.4c0,.2,.1,.4,.3,.4m4.4,0h2.5c.2,0,.4,-.2,.4,-.4c0,-.2,-.2,-.4,-.4,-.4h-2.5c-.3,0,-.4,.2,-.4,.4c0,.2,.1,.4,.4,.4Z" class="g6_21"/>
<path d="M288,328.3h2.2c.2,0,.3,-.2,.3,-.4c0,-.2,-.1,-.4,-.3,-.4H288c-.3,0,-.4,.2,-.4,.4c0,.2,.1,.4,.4,.4m3.6,0h2.2c.2,0,.4,-.2,.4,-.4c0,-.2,-.2,-.4,-.4,-.4h-2.2c-.2,0,-.4,.2,-.4,.4c0,.2,.2,.4,.4,.4m3.6,0h2.3c.2,0,.3,-.2,.3,-.4c0,-.2,-.1,-.4,-.3,-.4h-2.3c-.2,0,-.3,.2,-.3,.4c0,.2,.1,.4,.3,.4m3.7,0h2.2c.2,0,.4,-.2,.4,-.4c0,-.2,-.2,-.4,-.4,-.4h-2.2c-.2,0,-.4,.2,-.4,.4c0,.2,.2,.4,.4,.4m3.6,0h2.2c.3,0,.4,-.2,.4,-.4c0,-.2,-.1,-.4,-.4,-.4h-2.2c-.2,0,-.3,.2,-.3,.4c0,.2,.1,.4,.3,.4Z" class="g6_21"/>
<path d="M287.1,296h2.3c.2,0,.4,-.2,.4,-.4c0,-.2,-.2,-.4,-.4,-.4h-2.3c-.2,0,-.4,.2,-.4,.4c0,.2,.2,.4,.4,.4m3.8,0h2.3c.2,0,.4,-.2,.4,-.4c0,-.2,-.2,-.4,-.4,-.4h-2.3c-.2,0,-.4,.2,-.4,.4c0,.2,.2,.4,.4,.4m3.9,0h2.3c.2,0,.3,-.2,.3,-.4c0,-.2,-.1,-.4,-.3,-.4h-2.3c-.2,0,-.4,.2,-.4,.4c0,.2,.2,.4,.4,.4m3.8,0h2.3c.2,0,.4,-.2,.4,-.4c0,-.2,-.2,-.4,-.4,-.4h-2.3c-.2,0,-.4,.2,-.4,.4c0,.2,.2,.4,.4,.4m3.8,0h2.3c.3,0,.4,-.2,.4,-.4c0,-.2,-.1,-.4,-.4,-.4h-2.3c-.2,0,-.3,.2,-.3,.4c0,.2,.1,.4,.3,.4Z" class="g6_21"/>
<path d="M283.2,313.4c.1,.9,.3,1.8,.3,2.8c-.1,2.6,-1.3,4.6,-3.5,6c-1.7,1.1,-3.6,1.6,-5.6,1.7c-3.1,0,-6.2,0,-9.3,0c-2.1,-.1,-4.1,-.6,-5.8,-1.8c-2.5,-1.8,-3.6,-4.2,-3.2,-7.3c.3,-2.5,.4,-5,.5,-7.5c0,-2.4,0,-4.7,-.1,-7.1c0,-2.7,1.1,-4.8,3.3,-6.4c1.8,-1.4,4,-2,6.3,-2c2.5,0,4.9,0,7.4,0c2.1,0,4.2,.6,5.9,1.8c2.6,1.8,3.8,4.2,3.5,7.3c-.1,1.5,0,3.1,0,4.6c0,0,.2,5.3,.3,7.9m-13.4,-20v-.1c-1.3,0,-2.5,0,-3.7,0c-1.7,.1,-3.3,.4,-4.7,1.3c-2,1.2,-3.4,2.9,-3.3,5.4c.1,1.1,.4,2.2,.7,3.2c.6,1.8,1.4,3.4,2.8,4.6c.4,.3,.4,.7,0,1.1c-.8,.8,-1.7,1.6,-2.8,2c-.7,.2,-.9,.6,-.9,1.3c-.1,.6,.1,1.1,.5,1.5c1,1,2.2,1.8,3.5,2.3c2.3,1,4.7,1.3,7.2,1.3c2.7,.1,5.3,-.1,7.8,-1c1.7,-.7,3.3,-1.5,4.4,-3c.2,-.2,.3,-.4,.3,-.6c0,-.4,0,-.8,-.1,-1.3l-.3,-.3c-1.3,-.5,-2.4,-1.2,-3.3,-2.2c-.4,-.4,-.3,-.8,0,-1.2c.6,-.6,1.2,-1.2,1.6,-1.9c1,-1.6,1.5,-3.3,1.8,-5.1c.3,-1.5,-.1,-2.9,-1,-4.1c-1.5,-2,-3.5,-3,-5.9,-3.2c-1.6,-.1,-3.1,0,-4.6,0m-12.1,21.3c-.5,2.1,0,3.9,1.6,5.4c1.7,1.6,3.7,2.2,5.9,2.2c3,0,6,0,9,0c1,0,2,-.1,3,-.4c1.8,-.7,3.3,-1.7,4.2,-3.4c.6,-1.3,.6,-2.5,.3,-3.9l-.1,.1c-1.4,1.8,-3.3,2.8,-5.5,3.4c-3.7,1,-7.4,1,-11.1,.4c-1.8,-.3,-3.5,-.9,-5.1,-1.9c-.8,-.6,-1.5,-1.3,-2.2,-1.9Z" class="g6_21"/>
<path d="M262.8,324.4c-.6,.5,-1.3,1,-1.9,1.5c-.6,.5,-2.3,1.8,-2.9,2.3c-.3,.2,-.7,.2,-1,.1c-.2,0,-.4,-.2,-.4,-.4c-.1,-.3,0,-.6,.3,-.8c.4,-.3,1.8,-1.5,2.2,-1.8c.6,-.4,1.1,-.9,1.7,-1.3c.1,0,.4,-.1,.5,0c.5,.1,1,.2,1.5,.4Z" class="g6_21"/>
<path d="M276.6,324.4c.7,-.2,1.2,-.4,1.7,-.5l.4,.1c1,.8,3,2.3,3.9,3c.2,.2,.3,.3,.4,.5c.1,.3,0,.7,-.2,.8c-.3,.1,-.8,.2,-1,0c-1.4,-1,-3.7,-2.8,-5.2,-3.9Z" class="g6_21"/>
<path d="M269.7,307.2c-1.4,0,-2.8,0,-4.2,-.1c-2.5,-.1,-4.5,-2,-5,-4.5c-.1,-.6,-.2,-1.3,-.3,-1.9c-.5,-2.5,1.2,-4.6,3.7,-4.6c3.9,0,7.8,0,11.6,0c2.5,0,4.2,1.9,3.8,4.3c-.1,1.4,-.3,2.8,-1,4c-1.2,1.8,-2.8,2.8,-5,2.8c-1.2,0,-2.4,0,-3.6,0Z" class="g6_21"/>
<path d="M275.6,310.6c.3,0,.7,0,1,0c.6,.1,1,.4,.8,.8c-.7,1.2,-1.3,2.3,-2,3.4c-.1,.2,-.4,.3,-.7,.3c-.7,0,-1.4,0,-2,0c-.7,0,-1,-.4,-.8,-.8c.6,-1.1,1.3,-2.2,1.9,-3.3c.1,-.2,.4,-.4,.8,-.4c.4,.1,.7,0,1,0Z" class="g6_21"/>
<path d="M265.8,315.1c-.3,0,-.6,0,-.9,0c-.4,0,-.7,-.1,-.9,-.4c-.6,-1.1,-1.2,-2.1,-1.8,-3.2c-.3,-.5,0,-.8,.7,-.9c.7,0,1.3,0,2,0c.4,0,.6,.2,.8,.5c.6,1,1.3,2.1,1.9,3.2c.2,.4,-.1,.8,-.7,.8c-.4,0,-.7,0,-1.1,0Z" class="g6_21"/>
<path d="M271.1,320.7c0,.7,-.6,1.3,-1.3,1.3c-.8,0,-1.4,-.6,-1.4,-1.3c0,-.7,.6,-1.3,1.3,-1.3c.7,-.1,1.4,.6,1.4,1.3Z" class="g6_21"/>
<path d="M236.4,328.3h2.2c.2,0,.4,-.2,.4,-.4c0,-.2,-.2,-.4,-.4,-.4h-2.2c-.2,0,-.4,.2,-.4,.4c0,.2,.2,.4,.4,.4m3.7,0h2.2c.2,0,.4,-.2,.4,-.4c0,-.2,-.2,-.4,-.4,-.4h-2.2c-.2,0,-.4,.2,-.4,.4c0,.2,.2,.4,.4,.4m3.6,0h2.2c.2,0,.4,-.2,.4,-.4c0,-.2,-.2,-.4,-.4,-.4h-2.2c-.2,0,-.4,.2,-.4,.4c0,.2,.2,.4,.4,.4m3.7,0h2.2c.2,0,.4,-.2,.4,-.4c0,-.2,-.2,-.4,-.4,-.4h-2.2c-.2,0,-.4,.2,-.4,.4c0,.2,.2,.4,.4,.4m3.6,0h2.2c.2,0,.4,-.2,.4,-.4c0,-.2,-.2,-.4,-.4,-.4H251c-.2,0,-.4,.2,-.4,.4c0,.2,.2,.4,.4,.4Z" class="g6_21"/>
<image clip-path="url(#cr_21)" preserveAspectRatio="none" x="487" y="257" width="99" height="102" xlink:href="img/29.jpg"/>
<image clip-path="url(#cs_21)" preserveAspectRatio="none" x="497" y="257" width="88" height="73" xlink:href="img/30.jpg"/>
<image clip-path="url(#ct_21)" preserveAspectRatio="none" x="497" y="350" width="88" height="4" xlink:href="img/31.jpg"/>
<image clip-path="url(#cu_21)" preserveAspectRatio="none" x="497" y="275" width="73" height="3" xlink:href="img/32.jpg"/>
<path d="M512.9,269.8c-10.1,0,-18.3,8.2,-18.3,18.4v64.1h79V288.2c0,-10.2,-8.2,-18.4,-18.3,-18.4Z" class="g3_21"/>
<path d="M494.5,353.2h79.1V346H494.5v7.2Z" class="g9_21"/>
<path d="M499.9,328.3h2.4c.2,0,.3,-.2,.3,-.4c0,-.2,-.1,-.4,-.3,-.4h-2.4c-.2,0,-.3,.2,-.3,.4c0,.2,.1,.4,.3,.4m3.9,0h2.3c.3,0,.4,-.2,.4,-.4c0,-.2,-.1,-.4,-.4,-.4h-2.3c-.2,0,-.4,.2,-.4,.4c0,.2,.2,.4,.4,.4m3.9,0H510c.2,0,.4,-.2,.4,-.4c0,-.2,-.2,-.4,-.4,-.4h-2.3c-.2,0,-.4,.2,-.4,.4c0,.2,.2,.4,.4,.4m3.9,0h2.3c.2,0,.4,-.2,.4,-.4c0,-.2,-.2,-.4,-.4,-.4h-2.3c-.2,0,-.4,.2,-.4,.4c0,.2,.2,.4,.4,.4m3.9,0h2.3c.2,0,.4,-.2,.4,-.4c0,-.2,-.2,-.4,-.4,-.4h-2.3c-.2,0,-.4,.2,-.4,.4c0,.2,.2,.4,.4,.4m3.9,0h2.3c.2,0,.4,-.2,.4,-.4c0,-.2,-.2,-.4,-.4,-.4h-2.3c-.3,0,-.4,.2,-.4,.4c0,.2,.1,.4,.4,.4m3.8,0h2.4c.2,0,.3,-.2,.3,-.4c0,-.2,-.1,-.4,-.3,-.4h-2.4c-.2,0,-.3,.2,-.3,.4c0,.2,.1,.4,.3,.4m3.9,0h2.3c.2,0,.4,-.2,.4,-.4c0,-.2,-.2,-.4,-.4,-.4h-2.3c-.2,0,-.4,.2,-.4,.4c0,.2,.2,.4,.4,.4m3.9,0h2.3c.2,0,.4,-.2,.4,-.4c0,-.2,-.2,-.4,-.4,-.4H531c-.2,0,-.4,.2,-.4,.4c0,.2,.2,.4,.4,.4m3.9,0h2.3c.2,0,.4,-.2,.4,-.4c0,-.2,-.2,-.4,-.4,-.4h-2.3c-.2,0,-.4,.2,-.4,.4c0,.2,.2,.4,.4,.4m3.9,0h2.3c.2,0,.4,-.2,.4,-.4c0,-.2,-.2,-.4,-.4,-.4h-2.3c-.2,0,-.4,.2,-.4,.4c0,.2,.2,.4,.4,.4m3.8,0H545c.2,0,.3,-.2,.3,-.4c0,-.2,-.1,-.4,-.3,-.4h-2.4c-.2,0,-.3,.2,-.3,.4c0,.2,.1,.4,.3,.4m3.9,0h2.3c.3,0,.4,-.2,.4,-.4c0,-.2,-.1,-.4,-.4,-.4h-2.3c-.2,0,-.4,.2,-.4,.4c0,.2,.2,.4,.4,.4m3.9,0h2.3c.2,0,.4,-.2,.4,-.4c0,-.2,-.2,-.4,-.4,-.4h-2.3c-.2,0,-.4,.2,-.4,.4c0,.2,.2,.4,.4,.4m3.9,0h2.3c.2,0,.4,-.2,.4,-.4c0,-.2,-.2,-.4,-.4,-.4h-2.3c-.2,0,-.4,.2,-.4,.4c0,.2,.2,.4,.4,.4m3.9,0h2.3c.2,0,.4,-.2,.4,-.4c0,-.2,-.2,-.4,-.4,-.4h-2.3c-.2,0,-.4,.2,-.4,.4c0,.2,.2,.4,.4,.4m3.9,0h2.3c.2,0,.4,-.2,.4,-.4c0,-.2,-.2,-.4,-.4,-.4h-2.3c-.3,0,-.4,.2,-.4,.4c0,.2,.1,.4,.4,.4m3.8,0h2.4c.2,0,.3,-.2,.3,-.4c0,-.2,-.1,-.4,-.3,-.4h-2.4c-.2,0,-.3,.2,-.3,.4c0,.2,.1,.4,.3,.4Z" class="ga_21"/>
<path d="M499.3,291.9h2.3c.2,0,.4,-.2,.4,-.4c0,-.2,-.2,-.4,-.4,-.4h-2.3c-.2,0,-.4,.2,-.4,.4c0,.2,.2,.4,.4,.4m3.9,0h2.3c.2,0,.4,-.2,.4,-.4c0,-.2,-.2,-.4,-.4,-.4h-2.3c-.2,0,-.4,.2,-.4,.4c0,.2,.2,.4,.4,.4m3.9,0h2.3c.2,0,.4,-.2,.4,-.4c0,-.2,-.2,-.4,-.4,-.4h-2.3c-.3,0,-.4,.2,-.4,.4c0,.2,.1,.4,.4,.4m3.8,0h2.4c.2,0,.3,-.2,.3,-.4c0,-.2,-.1,-.4,-.3,-.4h-2.4c-.2,0,-.3,.2,-.3,.4c0,.2,.1,.4,.3,.4m3.9,0h2.3c.3,0,.4,-.2,.4,-.4c0,-.2,-.1,-.4,-.4,-.4h-2.3c-.2,0,-.4,.2,-.4,.4c0,.2,.2,.4,.4,.4m3.9,0H521c.2,0,.4,-.2,.4,-.4c0,-.2,-.2,-.4,-.4,-.4h-2.3c-.2,0,-.4,.2,-.4,.4c0,.2,.2,.4,.4,.4m3.9,0h2.3c.2,0,.4,-.2,.4,-.4c0,-.2,-.2,-.4,-.4,-.4h-2.3c-.2,0,-.4,.2,-.4,.4c0,.2,.2,.4,.4,.4m3.9,0h2.3c.2,0,.4,-.2,.4,-.4c0,-.2,-.2,-.4,-.4,-.4h-2.3c-.2,0,-.4,.2,-.4,.4c0,.2,.2,.4,.4,.4m3.8,0h2.4c.2,0,.4,-.2,.4,-.4c0,-.2,-.2,-.4,-.4,-.4h-2.4c-.2,0,-.3,.2,-.3,.4c0,.2,.1,.4,.3,.4m3.9,0h2.4c.2,0,.3,-.2,.3,-.4c0,-.2,-.1,-.4,-.3,-.4h-2.4c-.2,0,-.4,.2,-.4,.4c0,.2,.2,.4,.4,.4m3.9,0h2.3c.2,0,.4,-.2,.4,-.4c0,-.2,-.2,-.4,-.4,-.4h-2.3c-.2,0,-.4,.2,-.4,.4c0,.2,.2,.4,.4,.4m3.9,0h2.3c.2,0,.4,-.2,.4,-.4c0,-.2,-.2,-.4,-.4,-.4H542c-.2,0,-.4,.2,-.4,.4c0,.2,.2,.4,.4,.4m3.9,0h2.3c.2,0,.4,-.2,.4,-.4c0,-.2,-.2,-.4,-.4,-.4h-2.3c-.2,0,-.4,.2,-.4,.4c0,.2,.2,.4,.4,.4m3.9,0h2.3c.2,0,.4,-.2,.4,-.4c0,-.2,-.2,-.4,-.4,-.4h-2.3c-.3,0,-.4,.2,-.4,.4c0,.2,.1,.4,.4,.4m3.8,0H556c.2,0,.3,-.2,.3,-.4c0,-.2,-.1,-.4,-.3,-.4h-2.4c-.2,0,-.3,.2,-.3,.4c0,.2,.1,.4,.3,.4m3.9,0h2.3c.3,0,.4,-.2,.4,-.4c0,-.2,-.1,-.4,-.4,-.4h-2.3c-.2,0,-.4,.2,-.4,.4c0,.2,.2,.4,.4,.4m3.9,0h2.3c.2,0,.4,-.2,.4,-.4c0,-.2,-.2,-.4,-.4,-.4h-2.3c-.2,0,-.4,.2,-.4,.4c0,.2,.2,.4,.4,.4m3.9,0h2.3c.2,0,.4,-.2,.4,-.4c0,-.2,-.2,-.4,-.4,-.4h-2.3c-.2,0,-.4,.2,-.4,.4c0,.2,.2,.4,.4,.4Z" class="ga_21"/>
<path d="M548,308.7v.7h4.6c1.1,0,2,-1,2,-2.1v-.4c0,-1.1,-.9,-2,-2,-2H548c-.5,0,-1,.2,-1.4,.5c-.1,.1,-.2,.3,-.2,.5v.3c0,.2,-.1,.3,-.2,.5c-.2,.1,-.2,.3,-.2,.5v.1c0,1.1,.9,2.1,2,2.1V308c-.4,0,-.7,-.3,-.7,-.7v-.1h-.7l.5,.5c.4,-.4,.7,-.9,.7,-1.5v-.3h-.7l.4,.5c.2,-.1,.3,-.1,.5,-.1h4.6c.3,0,.6,.3,.6,.6v.4c0,.4,-.3,.7,-.6,.7H548Z" class="ga_21"/>
<path d="M547.1,299.3l-.5,.5c.4,.4,.9,.6,1.4,.6h4.6c1.1,0,2,-.9,2,-2.1v-.4c0,-1.1,-.9,-2,-2,-2H548c-1.1,0,-2,.9,-2,2v.2c0,.2,0,.4,.2,.5c.1,.1,.2,.3,.2,.5v.2c0,.2,.1,.4,.2,.5l.5,-.5h.7v-.2c0,-.6,-.3,-1.1,-.7,-1.5l-.5,.5h.7v-.2c0,-.3,.3,-.6,.7,-.6h4.6c.3,0,.6,.3,.6,.6v.4c0,.4,-.3,.7,-.6,.7H548c-.2,0,-.3,-.1,-.5,-.2l-.4,.5h.7Z" class="ga_21"/>
<path d="M553.6,308.2v.6h1.9c1,0,1.8,-.8,1.8,-1.8v-8.7c0,-1,-.8,-1.8,-1.8,-1.8h-1.8c-.3,0,-.5,.1,-.7,.3c-.1,.3,-.1,.5,.1,.8c.1,.1,.1,.2,.1,.3v.4c0,.4,-.3,.7,-.6,.7H548c-.2,0,-.3,-.1,-.5,-.2c-.2,-.2,-.4,-.2,-.7,-.1c-.2,.1,-.4,.4,-.4,.6v6.6c0,.3,.2,.5,.4,.6c.3,.2,.5,.1,.7,-.1c.2,-.1,.3,-.1,.5,-.1h4.6c.3,0,.6,.3,.6,.6v.4c0,.2,0,.3,-.1,.4c-.2,.2,-.2,.5,-.1,.8c.1,.2,.3,.3,.6,.3v-.6l.5,.4c.3,-.4,.5,-.8,.5,-1.3v-.4c0,-1.1,-.9,-2,-2,-2H548c-.5,0,-1,.2,-1.4,.5l.5,.5h.7v-6.6h-.7l-.5,.5c.4,.4,.9,.6,1.4,.6h4.6c1.1,0,2,-.9,2,-2.1v-.4c0,-.4,-.1,-.8,-.4,-1.1l-.5,.4v.6h1.8c.2,0,.4,.2,.4,.5V307c0,.3,-.2,.5,-.4,.5h-1.9v.7l.5,.4Z" class="ga_21"/>
<path d="M547.1,299.1h.7c0,-1.1,-.9,-2,-2.1,-2h-.6c-1.2,0,-2.1,.9,-2.1,2v7.1c0,1.1,.9,2,2.1,2h.6c1.2,0,2.1,-.9,2.1,-2v-7.1h-1.4v7.1c0,.3,-.3,.6,-.7,.6h-.6c-.4,0,-.7,-.3,-.7,-.6v-7.1c0,-.4,.3,-.7,.7,-.7h.6c.4,0,.7,.3,.7,.7Z" class="ga_21"/>
<path d="M548,321.4v.7h4.6c1.1,0,2,-.9,2,-2v-.4c0,-1.1,-.9,-2,-2,-2H548c-.5,0,-1,.2,-1.4,.5c-.1,.1,-.2,.3,-.2,.5v.3c0,.1,-.1,.3,-.2,.4c-.2,.2,-.2,.4,-.2,.6v.1c0,1.1,.9,2,2,2v-1.3c-.4,0,-.7,-.3,-.7,-.7V320h-.7l.5,.5c.4,-.4,.7,-.9,.7,-1.5v-.3h-.7l.4,.5c.2,-.1,.3,-.2,.5,-.2h4.6c.3,0,.6,.3,.6,.7v.4c0,.4,-.3,.7,-.6,.7H548Z" class="ga_21"/>
<path d="M547.1,312.1l-.5,.5c.4,.4,.9,.6,1.4,.6h4.6c1.1,0,2,-1,2,-2.1v-.4c0,-1.1,-.9,-2,-2,-2H548c-1.1,0,-2,.9,-2,2v.2c0,.2,0,.4,.2,.5c.1,.1,.2,.3,.2,.5v.2c0,.2,.1,.4,.2,.5l.5,-.5h.7v-.2c0,-.6,-.3,-1.2,-.7,-1.5l-.5,.5h.7v-.2c0,-.3,.3,-.6,.7,-.6h4.6c.3,0,.6,.3,.6,.6v.4c0,.4,-.3,.7,-.6,.7H548c-.2,0,-.3,-.1,-.5,-.2l-.4,.5h.7Z" class="ga_21"/>
<path d="M553.6,320.9v.7h1.9c1,0,1.8,-.8,1.8,-1.8v-8.7c0,-1,-.8,-1.9,-1.8,-1.9h-1.8c-.3,0,-.5,.2,-.7,.4c-.1,.3,-.1,.5,.1,.7c.1,.2,.1,.3,.1,.4v.4c0,.4,-.3,.7,-.6,.7H548c-.2,0,-.3,-.1,-.5,-.2c-.2,-.2,-.4,-.2,-.7,-.1c-.2,.1,-.4,.3,-.4,.6v6.6c0,.3,.2,.5,.4,.6c.3,.1,.5,.1,.7,-.1c.2,-.1,.3,-.2,.5,-.2h4.6c.3,0,.6,.3,.6,.7v.4c0,.1,0,.3,-.1,.4c-.2,.2,-.2,.5,-.1,.7c.1,.3,.3,.4,.6,.4v-.7l.5,.5c.3,-.4,.5,-.8,.5,-1.3v-.4c0,-1.1,-.9,-2,-2,-2H548c-.5,0,-1,.2,-1.4,.5l.5,.5h.7v-6.6h-.7l-.5,.5c.4,.3,.9,.6,1.4,.6h4.6c1.1,0,2,-1,2,-2.1v-.4c0,-.4,-.1,-.8,-.4,-1.2l-.5,.4v.7h1.8c.2,0,.4,.2,.4,.5v8.7c0,.3,-.2,.4,-.4,.4h-1.9v.7l.5,.5Z" class="ga_21"/>
<path d="M547.1,311.9h.7c0,-1.1,-.9,-2.1,-2.1,-2.1h-.6c-1.2,0,-2.1,1,-2.1,2.1V319c0,1.1,.9,2,2.1,2h.6c1.2,0,2.1,-.9,2.1,-2v-7.1h-1.4V319c0,.3,-.3,.6,-.7,.6h-.6c-.4,0,-.7,-.3,-.7,-.6v-7.1c0,-.4,.3,-.7,.7,-.7h.6c.4,0,.7,.3,.7,.7Z" class="ga_21"/>
<path d="M532.7,307.8h3.2c.5,0,.9,-.2,.9,-.5v-.2c0,-.3,-.4,-.6,-.9,-.6h-3.2c-.2,0,-.5,.1,-.6,.2v.1c0,.2,-.1,.3,-.3,.4v.1c0,.3,.4,.5,.9,.5Z" class="ga_21"/>
<path d="M532.2,298c.2,.1,.4,.2,.7,.2h3.3c.5,0,.9,-.3,.9,-.6v-.2c0,-.4,-.4,-.6,-.9,-.6h-3.3c-.6,0,-1,.2,-1,.6v.1c.2,.1,.3,.2,.3,.4Z" class="ga_21"/>
<path d="M538,307.9h1.8c.6,0,1.1,-.6,1.1,-1.2V298c0,-.6,-.5,-1.1,-1.1,-1.1h-1.7c.1,.2,.2,.4,.2,.7v.4c0,.8,-.6,1.4,-1.3,1.4h-4.3c-.4,0,-.7,-.1,-.9,-.4v6.6c.2,-.2,.5,-.3,.9,-.3H537c.7,0,1.3,.6,1.3,1.3v.4c0,.3,-.1,.6,-.3,.9Z" class="ga_21"/>
<path d="M530.5,299.5c0,-.5,-.5,-1,-1.1,-1c-.6,0,-1.1,.5,-1.1,1v5.6c0,.6,.5,1.1,1.1,1.1c.6,0,1.1,-.5,1.1,-1.1Z" class="ga_21"/>
<path d="M532.3,321.4v.7h4.5c1.2,0,2.1,-.9,2.1,-2v-.4c0,-1.1,-.9,-2,-2.1,-2h-4.5c-.6,0,-1.1,.2,-1.4,.5c-.2,.1,-.2,.3,-.2,.5v.3c0,.1,-.1,.3,-.3,.4c-.1,.2,-.2,.4,-.2,.6v.1c0,1.1,.9,2,2.1,2v-1.3c-.4,0,-.7,-.3,-.7,-.7V320h-.7l.5,.5c.4,-.4,.6,-.9,.6,-1.5v-.3h-.6l.4,.5c.1,-.1,.3,-.2,.5,-.2h4.5c.4,0,.7,.3,.7,.7v.4c0,.4,-.3,.7,-.7,.7h-4.5Z" class="ga_21"/>
<path d="M531.4,312.1l-.5,.5c.3,.4,.8,.6,1.4,.6h4.5c1.2,0,2.1,-1,2.1,-2.1v-.4c0,-1.1,-.9,-2,-2.1,-2h-4.5c-1.2,0,-2.1,.9,-2.1,2v.2c0,.2,.1,.4,.2,.5c.2,.1,.3,.3,.3,.5v.2c0,.2,0,.4,.2,.5l.5,-.5h.6v-.2c0,-.6,-.2,-1.2,-.6,-1.5l-.5,.5h.7v-.2c0,-.3,.3,-.6,.7,-.6h4.5c.4,0,.7,.3,.7,.6v.4c0,.4,-.3,.7,-.7,.7h-4.5c-.2,0,-.4,-.1,-.5,-.2l-.4,.5h.6Z" class="ga_21"/>
<path d="M537.9,320.9v.7h1.9c1,0,1.8,-.8,1.8,-1.8v-8.7c0,-1,-.8,-1.9,-1.8,-1.9h-1.9c-.2,0,-.5,.2,-.6,.4c-.1,.3,-.1,.5,.1,.7c0,.2,.1,.3,.1,.4v.4c0,.4,-.3,.7,-.7,.7h-4.5c-.2,0,-.4,-.1,-.5,-.2c-.2,-.2,-.5,-.2,-.7,-.1c-.3,.1,-.4,.3,-.4,.6v6.6c0,.3,.1,.5,.4,.6c.2,.1,.5,.1,.7,-.1c.1,-.1,.3,-.2,.5,-.2h4.5c.4,0,.7,.3,.7,.7v.4c0,.1,-.1,.3,-.2,.4c-.1,.2,-.2,.5,0,.7c.1,.3,.3,.4,.6,.4v-.7l.5,.5c.3,-.4,.5,-.8,.5,-1.3v-.4c0,-1.1,-.9,-2,-2.1,-2h-4.5c-.6,0,-1.1,.2,-1.4,.5l.5,.5h.6v-6.6h-.6l-.5,.5c.3,.3,.8,.6,1.4,.6h4.5c1.2,0,2.1,-1,2.1,-2.1v-.4c0,-.4,-.2,-.8,-.4,-1.2l-.6,.4v.7h1.9c.2,0,.4,.2,.4,.5v8.7c0,.3,-.2,.4,-.4,.4h-1.9v.7l.5,.5Z" class="ga_21"/>
<path d="M531.4,311.9h.6c0,-1.1,-.9,-2.1,-2,-2.1h-.7c-1.1,0,-2,1,-2,2.1V319c0,1.1,.9,2,2,2h.7c1.1,0,2,-.9,2,-2v-7.1h-1.3V319c0,.3,-.3,.6,-.7,.6h-.7c-.3,0,-.6,-.3,-.6,-.6v-7.1c0,-.4,.3,-.7,.6,-.7h.7c.4,0,.7,.3,.7,.7Z" class="ga_21"/>
<path d="M516.5,308.7v.7h4.6c1.1,0,2,-1,2,-2.1v-.4c0,-1.1,-.9,-2,-2,-2h-4.6c-.5,0,-1,.2,-1.3,.5c-.2,.1,-.3,.3,-.3,.5v.3c0,.2,-.1,.3,-.2,.5c-.1,.1,-.2,.3,-.2,.5v.1c0,1.1,.9,2.1,2,2.1V308c-.3,0,-.6,-.3,-.6,-.7v-.1h-.7l.4,.5c.4,-.4,.7,-.9,.7,-1.5v-.3h-.7l.5,.5c.1,-.1,.2,-.1,.4,-.1h4.6c.4,0,.7,.3,.7,.6v.4c0,.4,-.3,.7,-.7,.7h-4.6Z" class="ga_21"/>
<path d="M515.6,299.3l-.4,.5c.3,.4,.8,.6,1.3,.6h4.6c1.1,0,2,-.9,2,-2.1v-.4c0,-1.1,-.9,-2,-2,-2h-4.6c-1.1,0,-2,.9,-2,2v.2c0,.2,.1,.4,.2,.5c.1,.1,.2,.3,.2,.5v.2c0,.2,.1,.4,.3,.5l.4,-.5h.7v-.2c0,-.6,-.3,-1.1,-.7,-1.5l-.4,.5h.7v-.2c0,-.3,.3,-.6,.6,-.6h4.6c.4,0,.7,.3,.7,.6v.4c0,.4,-.3,.7,-.7,.7h-4.6c-.2,0,-.3,-.1,-.4,-.2l-.5,.5h.7Z" class="ga_21"/>
<path d="M522.1,308.2v.6H524c1,0,1.8,-.8,1.8,-1.8v-8.7c0,-1,-.8,-1.8,-1.8,-1.8h-1.8c-.3,0,-.5,.1,-.6,.3c-.1,.3,-.1,.5,0,.8c.1,.1,.2,.2,.2,.3v.4c0,.4,-.3,.7,-.7,.7h-4.6c-.2,0,-.3,-.1,-.4,-.2c-.2,-.2,-.5,-.2,-.8,-.1c-.2,.1,-.4,.4,-.4,.6v6.6c0,.3,.2,.5,.4,.6c.3,.2,.6,.1,.8,-.1c.1,-.1,.2,-.1,.4,-.1h4.6c.4,0,.7,.3,.7,.6v.4c0,.2,-.1,.3,-.2,.4c-.2,.2,-.2,.5,-.1,.8c.1,.2,.4,.3,.6,.3v-.6l.6,.4c.2,-.4,.4,-.8,.4,-1.3v-.4c0,-1.1,-.9,-2,-2,-2h-4.6c-.5,0,-1,.2,-1.3,.5l.4,.5h.7v-6.6h-.7l-.4,.5c.3,.4,.8,.6,1.3,.6h4.6c1.1,0,2,-.9,2,-2.1v-.4c0,-.4,-.1,-.8,-.4,-1.1l-.5,.4v.6H524c.3,0,.5,.2,.5,.5V307c0,.3,-.2,.5,-.5,.5h-1.9v.7l.6,.4Z" class="ga_21"/>
<path d="M515.6,299.1h.7c0,-1.1,-.9,-2,-2,-2h-.7c-1.1,0,-2.1,.9,-2.1,2v7.1c0,1.1,1,2,2.1,2h.7c1.1,0,2,-.9,2,-2v-7.1h-1.4v7.1c0,.3,-.3,.6,-.6,.6h-.7c-.4,0,-.7,-.3,-.7,-.6v-7.1c0,-.4,.3,-.7,.7,-.7h.7c.3,0,.6,.3,.6,.7Z" class="ga_21"/>
<path d="M516.5,321.4v.7h4.6c1.1,0,2,-.9,2,-2v-.4c0,-1.1,-.9,-2,-2,-2h-4.6c-.5,0,-1,.2,-1.3,.5c-.2,.1,-.3,.3,-.3,.5v.3c0,.1,-.1,.3,-.2,.4c-.1,.2,-.2,.4,-.2,.6v.1c0,1.1,.9,2,2,2v-1.3c-.3,0,-.6,-.3,-.6,-.7V320h-.7l.4,.5c.4,-.4,.7,-.9,.7,-1.5v-.3h-.7l.5,.5c.1,-.1,.2,-.2,.4,-.2h4.6c.4,0,.7,.3,.7,.7v.4c0,.4,-.3,.7,-.7,.7h-4.6Z" class="ga_21"/>
<path d="M515.6,312.1l-.4,.5c.3,.4,.8,.6,1.3,.6h4.6c1.1,0,2,-1,2,-2.1v-.4c0,-1.1,-.9,-2,-2,-2h-4.6c-1.1,0,-2,.9,-2,2v.2c0,.2,.1,.4,.2,.5c.1,.1,.2,.3,.2,.5v.2c0,.2,.1,.4,.3,.5l.4,-.5h.7v-.2c0,-.6,-.3,-1.2,-.7,-1.5l-.4,.5h.7v-.2c0,-.3,.3,-.6,.6,-.6h4.6c.4,0,.7,.3,.7,.6v.4c0,.4,-.3,.7,-.7,.7h-4.6c-.2,0,-.3,-.1,-.4,-.2l-.5,.5h.7Z" class="ga_21"/>
<path d="M522.1,320.9v.7H524c1,0,1.8,-.8,1.8,-1.8v-8.7c0,-1,-.8,-1.9,-1.8,-1.9h-1.8c-.3,0,-.5,.2,-.6,.4c-.1,.3,-.1,.5,0,.7c.1,.2,.2,.3,.2,.4v.4c0,.4,-.3,.7,-.7,.7h-4.6c-.2,0,-.3,-.1,-.4,-.2c-.2,-.2,-.5,-.2,-.8,-.1c-.2,.1,-.4,.3,-.4,.6v6.6c0,.3,.2,.5,.4,.6c.3,.1,.6,.1,.8,-.1c.1,-.1,.2,-.2,.4,-.2h4.6c.4,0,.7,.3,.7,.7v.4c0,.1,-.1,.3,-.2,.4c-.2,.2,-.2,.5,-.1,.7c.1,.3,.4,.4,.6,.4v-.7l.6,.5c.2,-.4,.4,-.8,.4,-1.3v-.4c0,-1.1,-.9,-2,-2,-2h-4.6c-.5,0,-1,.2,-1.3,.5l.4,.5h.7v-6.6h-.7l-.4,.5c.3,.3,.8,.6,1.3,.6h4.6c1.1,0,2,-1,2,-2.1v-.4c0,-.4,-.1,-.8,-.4,-1.2l-.5,.4v.7H524c.3,0,.5,.2,.5,.5v8.7c0,.3,-.2,.4,-.5,.4h-1.9v.7l.6,.5Z" class="ga_21"/>
<path d="M515.6,311.9h.7c0,-1.1,-.9,-2.1,-2,-2.1h-.7c-1.1,0,-2.1,1,-2.1,2.1V319c0,1.1,1,2,2.1,2h.7c1.1,0,2,-.9,2,-2v-7.1h-1.4V319c0,.3,-.3,.6,-.6,.6h-.7c-.4,0,-.7,-.3,-.7,-.6v-7.1c0,-.4,.3,-.7,.7,-.7h.7c.3,0,.6,.3,.6,.7Z" class="ga_21"/>
<image clip-path="url(#cv_21)" preserveAspectRatio="none" x="399" y="330" width="89" height="29" xlink:href="img/33.jpg"/>
<image clip-path="url(#cw_21)" preserveAspectRatio="none" x="409" y="257" width="88" height="73" xlink:href="img/34.jpg"/>
<image clip-path="url(#cx_21)" preserveAspectRatio="none" x="409" y="350" width="79" height="4" xlink:href="img/35.jpg"/>
<image clip-path="url(#cy_21)" preserveAspectRatio="none" x="487" y="329" width="11" height="30" xlink:href="img/36.jpg"/>
<image clip-path="url(#cz_21)" preserveAspectRatio="none" x="488" y="257" width="9" height="73" xlink:href="img/37.jpg"/>
<image clip-path="url(#c10_21)" preserveAspectRatio="none" x="487" y="350" width="11" height="4" xlink:href="img/38.jpg"/>
<image clip-path="url(#c11_21)" preserveAspectRatio="none" x="494" y="278" width="4" height="69" xlink:href="img/39.jpg"/>
<image clip-path="url(#c12_21)" preserveAspectRatio="none" x="494" y="346" width="4" height="8" xlink:href="img/40.jpg"/>
<path d="M424.8,269.8c-10.1,0,-18.3,8.2,-18.3,18.4v64.1h79V288.2c0,-10.2,-8.2,-18.4,-18.3,-18.4Z" class="g3_21"/>
<path d="M406.4,353.2h79.1V346H406.4v7.2Z" class="g9_21"/>
<path d="M411.8,328.3h2.4c.2,0,.4,-.2,.4,-.4c0,-.2,-.2,-.4,-.4,-.4h-2.4c-.2,0,-.3,.2,-.3,.4c0,.2,.1,.4,.3,.4m3.9,0h2.4c.2,0,.3,-.2,.3,-.4c0,-.2,-.1,-.4,-.3,-.4h-2.4c-.2,0,-.4,.2,-.4,.4c0,.2,.2,.4,.4,.4m3.9,0h2.3c.2,0,.4,-.2,.4,-.4c0,-.2,-.2,-.4,-.4,-.4h-2.3c-.2,0,-.4,.2,-.4,.4c0,.2,.2,.4,.4,.4m3.9,0h2.3c.2,0,.4,-.2,.4,-.4c0,-.2,-.2,-.4,-.4,-.4h-2.3c-.2,0,-.4,.2,-.4,.4c0,.2,.2,.4,.4,.4m3.9,0h2.3c.2,0,.4,-.2,.4,-.4c0,-.2,-.2,-.4,-.4,-.4h-2.3c-.2,0,-.4,.2,-.4,.4c0,.2,.2,.4,.4,.4m3.9,0h2.3c.2,0,.4,-.2,.4,-.4c0,-.2,-.2,-.4,-.4,-.4h-2.3c-.3,0,-.4,.2,-.4,.4c0,.2,.1,.4,.4,.4m3.8,0h2.4c.2,0,.3,-.2,.3,-.4c0,-.2,-.1,-.4,-.3,-.4h-2.4c-.2,0,-.3,.2,-.3,.4c0,.2,.1,.4,.3,.4m3.9,0h2.3c.3,0,.4,-.2,.4,-.4c0,-.2,-.1,-.4,-.4,-.4H439c-.2,0,-.4,.2,-.4,.4c0,.2,.2,.4,.4,.4m3.9,0h2.3c.2,0,.4,-.2,.4,-.4c0,-.2,-.2,-.4,-.4,-.4h-2.3c-.2,0,-.4,.2,-.4,.4c0,.2,.2,.4,.4,.4m3.9,0h2.3c.2,0,.4,-.2,.4,-.4c0,-.2,-.2,-.4,-.4,-.4h-2.3c-.2,0,-.4,.2,-.4,.4c0,.2,.2,.4,.4,.4m3.9,0H453c.2,0,.4,-.2,.4,-.4c0,-.2,-.2,-.4,-.4,-.4h-2.3c-.2,0,-.4,.2,-.4,.4c0,.2,.2,.4,.4,.4m3.8,0h2.4c.2,0,.4,-.2,.4,-.4c0,-.2,-.2,-.4,-.4,-.4h-2.4c-.2,0,-.3,.2,-.3,.4c0,.2,.1,.4,.3,.4m3.9,0h2.4c.2,0,.3,-.2,.3,-.4c0,-.2,-.1,-.4,-.3,-.4h-2.4c-.2,0,-.4,.2,-.4,.4c0,.2,.2,.4,.4,.4m3.9,0h2.3c.2,0,.4,-.2,.4,-.4c0,-.2,-.2,-.4,-.4,-.4h-2.3c-.2,0,-.4,.2,-.4,.4c0,.2,.2,.4,.4,.4m3.9,0h2.3c.2,0,.4,-.2,.4,-.4c0,-.2,-.2,-.4,-.4,-.4h-2.3c-.2,0,-.4,.2,-.4,.4c0,.2,.2,.4,.4,.4m3.9,0h2.3c.2,0,.4,-.2,.4,-.4c0,-.2,-.2,-.4,-.4,-.4h-2.3c-.2,0,-.4,.2,-.4,.4c0,.2,.2,.4,.4,.4m3.9,0h2.3c.2,0,.4,-.2,.4,-.4c0,-.2,-.2,-.4,-.4,-.4H474c-.3,0,-.4,.2,-.4,.4c0,.2,.1,.4,.4,.4m3.8,0h2.4c.2,0,.3,-.2,.3,-.4c0,-.2,-.1,-.4,-.3,-.4h-2.4c-.2,0,-.3,.2,-.3,.4c0,.2,.1,.4,.3,.4Z" class="gb_21"/>
<path d="M459.3,291.9h2.2c.2,0,.4,-.2,.4,-.4c0,-.2,-.2,-.4,-.4,-.4h-2.2c-.2,0,-.4,.2,-.4,.4c0,.2,.2,.4,.4,.4m3.7,0h2.3c.2,0,.3,-.2,.3,-.4c0,-.2,-.1,-.4,-.3,-.4H463c-.2,0,-.4,.2,-.4,.4c0,.2,.2,.4,.4,.4m3.7,0H469c.2,0,.4,-.2,.4,-.4c0,-.2,-.2,-.4,-.4,-.4h-2.3c-.2,0,-.3,.2,-.3,.4c0,.2,.1,.4,.3,.4m3.8,0h2.2c.2,0,.4,-.2,.4,-.4c0,-.2,-.2,-.4,-.4,-.4h-2.2c-.3,0,-.4,.2,-.4,.4c0,.2,.1,.4,.4,.4m3.7,0h2.2c.2,0,.4,-.2,.4,-.4c0,-.2,-.2,-.4,-.4,-.4h-2.2c-.2,0,-.4,.2,-.4,.4c0,.2,.2,.4,.4,.4m3.7,0h2.2c.2,0,.4,-.2,.4,-.4c0,-.2,-.2,-.4,-.4,-.4h-2.2c-.2,0,-.4,.2,-.4,.4c0,.2,.2,.4,.4,.4Z" class="gb_21"/>
<path d="M411.9,291.9h2.2c.2,0,.4,-.2,.4,-.4c0,-.2,-.2,-.4,-.4,-.4h-2.2c-.2,0,-.4,.2,-.4,.4c0,.2,.2,.4,.4,.4m3.7,0h2.2c.2,0,.4,-.2,.4,-.4c0,-.2,-.2,-.4,-.4,-.4h-2.2c-.2,0,-.4,.2,-.4,.4c0,.2,.2,.4,.4,.4m3.7,0h2.3c.2,0,.3,-.2,.3,-.4c0,-.2,-.1,-.4,-.3,-.4h-2.3c-.2,0,-.4,.2,-.4,.4c0,.2,.2,.4,.4,.4m3.7,0h2.3c.2,0,.4,-.2,.4,-.4c0,-.2,-.2,-.4,-.4,-.4H423c-.2,0,-.3,.2,-.3,.4c0,.2,.1,.4,.3,.4m3.8,0H429c.2,0,.4,-.2,.4,-.4c0,-.2,-.2,-.4,-.4,-.4h-2.2c-.3,0,-.4,.2,-.4,.4c0,.2,.1,.4,.4,.4m3.7,0h2.2c.2,0,.4,-.2,.4,-.4c0,-.2,-.2,-.4,-.4,-.4h-2.2c-.2,0,-.4,.2,-.4,.4c0,.2,.2,.4,.4,.4Z" class="gb_21"/>
<path d="M436.7,294.5v-.8c-1.1,0,-2,1,-2,2.1v29.3h22.9V295.8c0,-1.1,-.9,-2.1,-2.1,-2.1H436.7v1.5h18.8c.3,0,.6,.3,.6,.6v27.8H436.2V295.8c0,-.3,.2,-.6,.5,-.6Z" class="gb_21"/>
<path d="M438.7,289.5v-.4c-.5,0,-1,.5,-1,1v4.6h16.9v-4.6c0,-.5,-.5,-1,-1,-1H438.7v.7h14.9c.1,0,.3,.1,.3,.3v4H438.4v-4c0,-.2,.1,-.3,.3,-.3Z" class="gb_21"/>
<path d="M443.6,316.6h-.4v7.6l.1,.3l.3,.1h5.2l.2,-.1l.1,-.3v-7.6l-.1,-.3l-.2,-.1h-5.2l-.3,.1l-.1,.3h.4v.3h4.8v6.9H444v-7.2h-.4v.3Z" class="gb_21"/>
<path d="M450.5,316.6h-.4v4.1l.1,.2l.3,.1h4.1l.3,-.1l.1,-.2v-4.1l-.1,-.3l-.3,-.1h-4.1l-.3,.1l-.1,.3h.4v.3h3.8v3.4h-3.4v-3.7h-.4v.3Z" class="gb_21"/>
<path d="M437.7,316.6h-.4v4.1l.1,.2l.3,.1h4.1l.3,-.1l.1,-.2v-4.1l-.1,-.3l-.3,-.1h-4.1l-.3,.1l-.1,.3h.4v.3h3.8v3.4h-3.4v-3.7h-.4v.3Z" class="gb_21"/>
<path d="M445.8,320.5h.8v-1h-.8v1Z" class="gb_21"/>
<path d="M450.5,310.2h-.4v4.1l.1,.3l.3,.1h4.1l.3,-.1l.1,-.3v-4.1l-.1,-.2l-.3,-.1h-4.1l-.3,.1l-.1,.2h.4v.4h3.8V314h-3.4v-3.8h-.4v.4Z" class="gb_21"/>
<path d="M444.1,310.2h-.4v4.1l.1,.3l.3,.1h4.1l.3,-.1l.1,-.3v-4.1l-.1,-.2l-.3,-.1h-4.1l-.3,.1l-.1,.2h.4v.4h3.8V314h-3.4v-3.8h-.4v.4Z" class="gb_21"/>
<path d="M437.7,310.2h-.4v4.1l.1,.3l.3,.1h4.1l.3,-.1l.1,-.3v-4.1l-.1,-.2l-.3,-.1h-4.1l-.3,.1l-.1,.2h.4v.4h3.8V314h-3.4v-3.8h-.4v.4Z" class="gb_21"/>
<path d="M450.5,303.9h-.4V308l.1,.3l.3,.1h4.1l.3,-.1l.1,-.3v-4.1l-.1,-.2l-.3,-.2h-4.1l-.3,.2l-.1,.2h.4v.4h3.8v3.4h-3.4v-3.8h-.4v.4Z" class="gb_21"/>
<path d="M444.1,303.9h-.4V308l.1,.3l.3,.1h4.1l.3,-.1l.1,-.3v-4.1l-.1,-.2l-.3,-.2h-4.1l-.3,.2l-.1,.2h.4v.4h3.8v3.4h-3.4v-3.8h-.4v.4Z" class="gb_21"/>
<path d="M437.7,303.9h-.4V308l.1,.3l.3,.1h4.1l.3,-.1l.1,-.3v-4.1l-.1,-.2l-.3,-.2h-4.1l-.3,.2l-.1,.2h.4v.4h3.8v3.4h-3.4v-3.8h-.4v.4Z" class="gb_21"/>
<path d="M450.5,297.6h-.4v4.1l.1,.3l.3,.1h4.1l.3,-.1l.1,-.3v-4.1l-.1,-.3l-.3,-.1h-4.1l-.3,.1l-.1,.3h.4v.4h3.8v3.3h-3.4v-3.7h-.4v.4Z" class="gb_21"/>
<path d="M444.1,297.6h-.4v4.1l.1,.3l.3,.1h4.1l.3,-.1l.1,-.3v-4.1l-.1,-.3l-.3,-.1h-4.1l-.3,.1l-.1,.3h.4v.4h3.8v3.3h-3.4v-3.7h-.4v.4Z" class="gb_21"/>
<path d="M437.7,297.6h-.4v4.1l.1,.3l.3,.1h4.1l.3,-.1l.1,-.3v-4.1l-.1,-.3l-.3,-.1h-4.1l-.3,.1l-.1,.3h.4v.4h3.8v3.3h-3.4v-3.7h-.4v.4Z" class="gb_21"/>
<path d="M441.3,290.5l-.2,-.1l-.5,.7l-.8,.2l-.2,.2l.1,.2l.5,.6v.9l.1,.2h.2l.8,-.3l.7,.3h.3l.1,-.2l-.1,-.9l.5,-.6l.1,-.2l-.2,-.2l-.8,-.2l-.4,-.7l-.2,-.1l-.2,.1l.2,.1l-.2,.1l.5,.8l.1,.1l.5,.2l-.3,.4l-.1,.2l.1,.5l-.6,-.2h-.1l-.5,.2v-.5l-.1,-.2l-.3,-.4l.5,-.2l.2,-.1l.5,-.8l-.2,-.1l-.2,.1Z" class="gb_21"/>
<path d="M446.1,290.5l-.2,-.1l-.4,.7l-.8,.2l-.2,.2l.1,.2l.5,.6l-.1,.9l.1,.2h.3l.7,-.3l.8,.3h.2l.1,-.2v-.9l.5,-.6l.1,-.2l-.2,-.2l-.8,-.2l-.5,-.7l-.2,-.1l-.2,.1l.2,.1l-.2,.1l.5,.8l.2,.1l.5,.2l-.3,.4l-.1,.2v.5l-.5,-.2H446l-.5,.2l.1,-.5l-.1,-.2l-.3,-.4l.5,-.2l.1,-.1l.5,-.8l-.2,-.1l-.2,.1Z" class="gb_21"/>
<path d="M451,290.5l-.2,-.1l-.4,.7l-.8,.2l-.2,.2v.2l.6,.6l-.1,.9l.1,.2h.2l.8,-.3l.8,.3h.2l.1,-.2l-.1,-.9l.6,-.6v-.2l-.1,-.2l-.8,-.2l-.5,-.7l-.2,-.1l-.2,.1l.2,.1l-.2,.1l.5,.8l.1,.1l.6,.2l-.4,.4v.7l-.5,-.2h-.2l-.5,.2v-.7l-.4,-.4l.6,-.2l.1,-.1l.5,-.8l-.2,-.1l-.2,.1Z" class="gb_21"/>
<path d="M433.7,325.4h24.6c.5,0,1,-.4,1,-.9c0,-.5,-.5,-.9,-1,-.9H433.7c-.5,0,-.9,.4,-.9,.9c0,.5,.4,.9,.9,.9Z" class="gb_21"/>
<path d="M446,316.5v7.3h.3v-7.3Z" class="gb_21"/>
<image clip-path="url(#c13_21)" preserveAspectRatio="none" x="321" y="330" width="79" height="29" xlink:href="img/41.jpg"/>
<image clip-path="url(#c14_21)" preserveAspectRatio="none" x="312" y="257" width="97" height="73" xlink:href="img/42.jpg"/>
<image clip-path="url(#c15_21)" preserveAspectRatio="none" x="321" y="350" width="79" height="4" xlink:href="img/43.jpg"/>
<image clip-path="url(#c16_21)" preserveAspectRatio="none" x="311" y="329" width="11" height="30" xlink:href="img/44.jpg"/>
<image clip-path="url(#c17_21)" preserveAspectRatio="none" x="312" y="257" width="9" height="73" xlink:href="img/45.jpg"/>
<image clip-path="url(#c18_21)" preserveAspectRatio="none" x="311" y="350" width="11" height="4" xlink:href="img/46.jpg"/>
<image clip-path="url(#c19_21)" preserveAspectRatio="none" x="399" y="329" width="11" height="30" xlink:href="img/47.jpg"/>
<image clip-path="url(#c1a_21)" preserveAspectRatio="none" x="400" y="257" width="9" height="73" xlink:href="img/48.jpg"/>
<image clip-path="url(#c1b_21)" preserveAspectRatio="none" x="399" y="350" width="11" height="4" xlink:href="img/49.jpg"/>
<image clip-path="url(#c1c_21)" preserveAspectRatio="none" x="406" y="278" width="4" height="69" xlink:href="img/50.jpg"/>
<image clip-path="url(#c1d_21)" preserveAspectRatio="none" x="406" y="346" width="4" height="8" xlink:href="img/51.jpg"/>
<path d="M336.7,269.8c-10.1,0,-18.3,8.2,-18.3,18.4v64.1h79V288.2c0,-10.2,-8.2,-18.4,-18.3,-18.4Z" class="g3_21"/>
<path d="M318.3,353.2h79.1V346H318.3v7.2Z" class="g9_21"/>
<path d="M324.5,296h2.2c.2,0,.4,-.2,.4,-.4c0,-.2,-.2,-.4,-.4,-.4h-2.2c-.2,0,-.3,.2,-.3,.4c0,.2,.1,.4,.3,.4m3.6,0h2.2c.2,0,.3,-.2,.3,-.4c0,-.2,-.1,-.4,-.3,-.4h-2.2c-.2,0,-.4,.2,-.4,.4c0,.2,.2,.4,.4,.4m3.6,0h2.1c.2,0,.4,-.2,.4,-.4c0,-.2,-.2,-.4,-.4,-.4h-2.1c-.3,0,-.4,.2,-.4,.4c0,.2,.1,.4,.4,.4m3.5,0h2.2c.2,0,.3,-.2,.3,-.4c0,-.2,-.1,-.4,-.3,-.4h-2.2c-.2,0,-.4,.2,-.4,.4c0,.2,.2,.4,.4,.4m3.6,0h2.1c.2,0,.4,-.2,.4,-.4c0,-.2,-.2,-.4,-.4,-.4h-2.1c-.2,0,-.4,.2,-.4,.4c0,.2,.2,.4,.4,.4m3.5,0h2.2c.2,0,.4,-.2,.4,-.4c0,-.2,-.2,-.4,-.4,-.4h-2.2c-.2,0,-.4,.2,-.4,.4c0,.2,.2,.4,.4,.4m3.6,0H348c.2,0,.4,-.2,.4,-.4c0,-.2,-.2,-.4,-.4,-.4h-2.1c-.2,0,-.4,.2,-.4,.4c0,.2,.2,.4,.4,.4Z" class="gc_21"/>
<path d="M324.5,328.3h2.4c.2,0,.4,-.2,.4,-.4c0,-.2,-.2,-.4,-.4,-.4h-2.4c-.2,0,-.3,.2,-.3,.4c0,.2,.1,.4,.3,.4m3.9,0h2.4c.2,0,.3,-.2,.3,-.4c0,-.2,-.1,-.4,-.3,-.4h-2.4c-.2,0,-.4,.2,-.4,.4c0,.2,.2,.4,.4,.4m3.9,0h2.3c.2,0,.4,-.2,.4,-.4c0,-.2,-.2,-.4,-.4,-.4h-2.3c-.2,0,-.4,.2,-.4,.4c0,.2,.2,.4,.4,.4m3.9,0h2.3c.2,0,.4,-.2,.4,-.4c0,-.2,-.2,-.4,-.4,-.4h-2.3c-.2,0,-.4,.2,-.4,.4c0,.2,.2,.4,.4,.4m3.9,0h2.3c.2,0,.4,-.2,.4,-.4c0,-.2,-.2,-.4,-.4,-.4h-2.3c-.2,0,-.4,.2,-.4,.4c0,.2,.2,.4,.4,.4m3.9,0h2.3c.2,0,.4,-.2,.4,-.4c0,-.2,-.2,-.4,-.4,-.4H344c-.3,0,-.4,.2,-.4,.4c0,.2,.1,.4,.4,.4m3.8,0h2.4c.2,0,.3,-.2,.3,-.4c0,-.2,-.1,-.4,-.3,-.4h-2.4c-.2,0,-.3,.2,-.3,.4c0,.2,.1,.4,.3,.4m3.9,0H354c.3,0,.4,-.2,.4,-.4c0,-.2,-.1,-.4,-.4,-.4h-2.3c-.2,0,-.4,.2,-.4,.4c0,.2,.2,.4,.4,.4m3.9,0h2.3c.2,0,.4,-.2,.4,-.4c0,-.2,-.2,-.4,-.4,-.4h-2.3c-.2,0,-.4,.2,-.4,.4c0,.2,.2,.4,.4,.4m3.9,0h2.3c.2,0,.4,-.2,.4,-.4c0,-.2,-.2,-.4,-.4,-.4h-2.3c-.2,0,-.4,.2,-.4,.4c0,.2,.2,.4,.4,.4m3.9,0h2.3c.2,0,.4,-.2,.4,-.4c0,-.2,-.2,-.4,-.4,-.4h-2.3c-.2,0,-.4,.2,-.4,.4c0,.2,.2,.4,.4,.4m3.8,0h2.4c.2,0,.4,-.2,.4,-.4c0,-.2,-.2,-.4,-.4,-.4h-2.4c-.2,0,-.3,.2,-.3,.4c0,.2,.1,.4,.3,.4m3.9,0h2.4c.2,0,.3,-.2,.3,-.4c0,-.2,-.1,-.4,-.3,-.4h-2.4c-.2,0,-.4,.2,-.4,.4c0,.2,.2,.4,.4,.4m3.9,0h2.3c.2,0,.4,-.2,.4,-.4c0,-.2,-.2,-.4,-.4,-.4H375c-.2,0,-.4,.2,-.4,.4c0,.2,.2,.4,.4,.4m3.9,0h2.3c.2,0,.4,-.2,.4,-.4c0,-.2,-.2,-.4,-.4,-.4h-2.3c-.2,0,-.4,.2,-.4,.4c0,.2,.2,.4,.4,.4m3.9,0h2.3c.2,0,.4,-.2,.4,-.4c0,-.2,-.2,-.4,-.4,-.4h-2.3c-.2,0,-.4,.2,-.4,.4c0,.2,.2,.4,.4,.4m3.9,0H389c.2,0,.4,-.2,.4,-.4c0,-.2,-.2,-.4,-.4,-.4h-2.3c-.3,0,-.4,.2,-.4,.4c0,.2,.1,.4,.4,.4m3.8,0h2.4c.2,0,.3,-.2,.3,-.4c0,-.2,-.1,-.4,-.3,-.4h-2.4c-.2,0,-.3,.2,-.3,.4c0,.2,.1,.4,.3,.4Z" class="gc_21"/>
<path d="M371.3,296h2.3c.2,0,.4,-.2,.4,-.4c0,-.2,-.2,-.4,-.4,-.4h-2.3c-.2,0,-.4,.2,-.4,.4c0,.2,.2,.4,.4,.4m3.9,0h2.3c.2,0,.4,-.2,.4,-.4c0,-.2,-.2,-.4,-.4,-.4h-2.3c-.2,0,-.4,.2,-.4,.4c0,.2,.2,.4,.4,.4m3.8,0h2.3c.2,0,.4,-.2,.4,-.4c0,-.2,-.2,-.4,-.4,-.4H379c-.2,0,-.4,.2,-.4,.4c0,.2,.2,.4,.4,.4m3.9,0h2.3c.2,0,.4,-.2,.4,-.4c0,-.2,-.2,-.4,-.4,-.4h-2.3c-.2,0,-.4,.2,-.4,.4c0,.2,.2,.4,.4,.4m3.8,0H389c.2,0,.4,-.2,.4,-.4c0,-.2,-.2,-.4,-.4,-.4h-2.3c-.2,0,-.4,.2,-.4,.4c0,.2,.2,.4,.4,.4m3.9,0h2.3c.2,0,.3,-.2,.3,-.4c0,-.2,-.1,-.4,-.3,-.4h-2.3c-.3,0,-.4,.2,-.4,.4c0,.2,.1,.4,.4,.4Z" class="gc_21"/>
<path d="M367.9,307.7c0,3.4,-.1,6.8,0,10.1c.1,3.1,-1.4,5.4,-4.5,6.8c-3.3,1.4,-6.5,1.1,-9.5,-.7c-.4,-.3,-.9,-.5,-1.1,-.9c-.2,-.2,-.1,-.7,0,-.9c.2,-.2,.7,-.1,1,0c.2,0,.4,.3,.6,.4c3.1,2.3,8,2,10.5,-.7c1.1,-1.1,1.5,-2.4,1.5,-3.8c0,-6.8,-.1,-13.6,0,-20.4c0,-2.5,-1.1,-4.4,-3.6,-5.5c-2.6,-1.2,-5.3,-1.1,-7.8,.3c-.3,.2,-.6,.4,-.9,.7c-.4,.3,-.9,.5,-1.2,0c-.2,-.2,-.1,-.8,.2,-1c1.1,-1,2.5,-1.7,4.1,-2c4.7,-1,9.6,1.5,10.5,5.5c.2,.5,.2,1.1,.2,1.7c0,3.4,0,6.9,0,10.4Z" class="gc_21"/>
<path d="M352.8,299.8c-1.7,-.3,-2.2,-1.4,-1.5,-3c.5,-1,1.4,-1.5,2.4,-1.8c1.5,-.5,3.2,-.5,4.7,-.1c2,.7,3.2,2.5,3,4.5c-.2,2,-1.8,3.7,-3.7,3.9c-2.1,.2,-3.9,-.8,-4.7,-2.8c-.1,-.2,-.1,-.4,-.2,-.7m7.1,0c-1.4,-.4,-1.6,-.6,-2.3,-1.8c-.1,-.3,-.3,-.6,-.4,-.9c-.7,-.9,-1.4,-1,-2.2,-.2c-.8,.9,-1.1,2.2,-.6,3.3c.5,1.1,1.5,1.8,2.8,1.7c1.3,0,2.2,-.7,2.7,-2.1m.1,-1.6c.1,-1,-1.8,-1.6,-1.8,-1.6c.5,1.7,1.7,2.1,1.8,1.6m-6.5,-1.7c-1.9,.8,-.9,2.3,-.8,1.9c0,0,.2,-1.2,.8,-1.9Z" class="gc_21"/>
<path d="M352.8,309.1c-1.7,-.3,-2.2,-1.4,-1.5,-3c.5,-1,1.4,-1.5,2.4,-1.8c1.5,-.5,3.2,-.5,4.7,0c2,.6,3.2,2.4,3,4.5c-.2,1.9,-1.8,3.6,-3.7,3.8c-2.1,.3,-3.9,-.8,-4.7,-2.8c-.1,-.2,-.1,-.4,-.2,-.7m7.1,0c-1.4,-.4,-1.6,-.6,-2.3,-1.8c-.1,-.3,-.3,-.6,-.4,-.9c-.7,-.9,-1.4,-1,-2.2,-.1c-.8,.8,-1.1,2.1,-.6,3.2c.5,1.1,1.5,1.8,2.8,1.8c1.3,-.1,2.2,-.8,2.7,-2.2m.1,-1.6c.1,-1,-1.8,-1.6,-1.8,-1.6c.5,1.7,1.7,2.2,1.8,1.6m-6.5,-1.7c-1.9,.8,-.9,2.3,-.8,1.9c0,0,.2,-1.2,.8,-1.9Z" class="gc_21"/>
<path d="M352.8,318.2c-1.7,-.2,-2.2,-1.4,-1.5,-3c.5,-1,1.4,-1.5,2.4,-1.8c1.5,-.5,3.2,-.5,4.7,0c2,.6,3.2,2.5,3,4.5c-.2,1.9,-1.8,3.6,-3.7,3.8c-2.1,.3,-3.9,-.8,-4.7,-2.8c-.1,-.2,-.1,-.4,-.2,-.7m7.1,0c-1.4,-.4,-1.6,-.6,-2.3,-1.8c-.1,-.3,-.3,-.6,-.4,-.9c-.7,-.9,-1.4,-1,-2.2,-.1c-.8,.8,-1.1,2.1,-.6,3.2c.5,1.1,1.5,1.8,2.8,1.8c1.3,-.1,2.2,-.8,2.7,-2.2m.1,-1.6c.1,-1,-1.8,-1.6,-1.8,-1.6c.5,1.7,1.7,2.2,1.8,1.6m-6.5,-1.7c-1.9,.8,-.9,2.3,-.8,1.9c0,0,.2,-1.2,.8,-1.9Z" class="gc_21"/>
<path d="M349,312.7l-5.3,-5.5c-.2,-.2,-.6,-.3,-.9,0c-.2,.2,-.2,.6,0,.9l5.3,5.5c.2,.2,.6,.3,.8,0c.3,-.2,.3,-.6,.1,-.9Z" class="gc_21"/>
<path d="M349,320.4l-5.3,5.5c-.2,.3,-.6,.3,-.9,0c-.2,-.2,-.2,-.6,0,-.8l5.3,-5.6c.2,-.2,.6,-.2,.8,0c.3,.2,.3,.6,.1,.9Z" class="gc_21"/>
<path d="M347.8,314.7l-7.3,-1.4c-.3,0,-.6,.2,-.7,.5c-.1,.4,.1,.7,.5,.8l7.2,1.4c.4,0,.7,-.2,.8,-.5c0,-.4,-.2,-.7,-.5,-.8Z" class="gc_21"/>
<path d="M347.8,318.4l-7.3,1.4c-.3,.1,-.6,-.2,-.7,-.5c-.1,-.3,.1,-.7,.5,-.7l7.2,-1.4c.4,-.1,.7,.1,.8,.5c0,.3,-.2,.6,-.5,.7Z" class="gc_21"/>
<path d="M0,0V1286.2Z" class="g3_21"/>
<path d="M0,1286.2H19.5V0H0V1286.2Z" class="g3_21"/>
</svg>