<?xml version="1.0" encoding="UTF-8" standalone="no"?>
<!DOCTYPE svg PUBLIC "-//W3C//DTD SVG 1.1//EN"
"http://www.w3.org/Graphics/SVG/1.1/DTD/svg11.dtd">
<svg viewBox="0 0 909 1286" version="1.1" xmlns="http://www.w3.org/2000/svg" xmlns:xlink="http://www.w3.org/1999/xlink">
<defs>
<clipPath id="c0_10"><path d="M5.8,1072.4v-38H28.6v38Z"/></clipPath>
<clipPath id="c1_10"><path d="M307.2,443.1V422.2H186.7v20.9ZM39,446.1V147.2H308.1V446.1Z"/></clipPath>
<clipPath id="c2_10"><path d="M322.2,446.1V147.2H530.1V446.1Z"/></clipPath>
<clipPath id="c3_10"><path d="M186.7,443.1V422.2H307.2v20.9Z"/></clipPath>
<clipPath id="c4_10"><path d="M870.5,446.1V294.4V446.1ZM530.1,147.2V117.5h2.5V100.7h-2.5V0H870.5V26.2L867,22.5c0,0,-3.1,1.2,-5,2.2c-1.6,.7,-4,1.6,-6.8,1.6c-.8,0,-1.6,0,-2.4,-.2c-3.9,-.7,-13.5,-3.9,-17.6,-4.8c-3.8,-.9,-12.1,-2,-16.9,-2c-.4,0,-.8,0,-1.2,0c-2.2,.2,-4.4,.4,-6.3,.4c-1.8,0,-3.2,-.2,-3.8,-1.1C805.7,16.9,803.8,15,803.8,15c0,0,-.3,0,-.9,0c-.8,0,-2,.1,-3.2,.5c-1.9,.7,-6.3,1.4,-6.3,1.4l-12.5,1.5c0,0,-7.2,.2,-10.1,.2c-2.9,0,-17.9,-.9,-17.9,-.9L736,15.2L723.5,11.9L717.7,9.5L716,8.7l-3.4,.5l-2.9,2.4l-5.8,1H668.7l-7.7,-1l-3.4,-1.2L649.4,3.7l-4.3,-1l-5.6,.5L629.4,7l-5.8,3.4L620,15l3.6,4.1l1.7,3.4l-4.6,.9l-4.1,-.7l-5.5,.5L606,26.3c0,0,-1.3,.4,-2.4,.4c-.4,0,-.7,0,-1,-.1c-.6,-.4,-1.4,-.8,-2.3,-.8c-.4,0,-.8,.1,-1.3,.3c-1.4,.7,-9.2,7.7,-9.2,7.7c0,0,-6.7,5.1,-7.9,6.5c-1.2,1.5,-2.2,4.4,-1,5.8c1.2,1.5,5.1,4.6,5.1,4.6l5.8,7.5l2.9,5l1.4,2.5l.7,4.5l4.9,3.9l-.8,4.3l-1.4,5.4L599,97.5c0,0,-.2,10.6,.5,14.2c.7,3.7,2.9,7.3,2.9,10.2c0,2.9,-.5,7,.5,11.3c.9,4.3,2.6,13,2.6,13c0,0,0,.4,0,1Z"/></clipPath>
<clipPath id="c5_10"><path d="M829.7,128.2V99H787.9v29.2ZM734,126.8V98.7h-7.4c-.6,-.2,-1.3,-.3,-2,-.3c-.8,0,-1.5,.1,-2.1,.3H643.3v28.1Zm37.2,-11.4V102.7c2.2,-.1,3.9,-1.9,3.9,-4.2c0,-2.4,-1.9,-4.3,-4.2,-4.3c-2.4,0,-4.3,1.9,-4.3,4.3c0,1,.4,1.9,.9,2.6h-1.2l.3,-6.8l-11.8,-.7l-.4,7.1l7.3,.4H751.6c1.6,-.5,2.8,-2.1,2.8,-4c0,-2.3,-1.9,-4.3,-4.3,-4.3c-2.3,0,-4.2,2,-4.2,4.3c0,1.9,1.2,3.5,2.8,4h-8.9v14.3Zm6.1,-14l11.3,-3.9l-2.4,-6.7L775,94.6l2.3,6.8Zm14.4,-4.1c2.4,0,4.3,-1.9,4.3,-4.2c0,-2.4,-1.9,-4.3,-4.3,-4.3c-2.3,0,-4.2,1.9,-4.2,4.3c0,2.3,1.9,4.2,4.2,4.2Zm5.9,-2.1l11.3,-3.9l-2.4,-6.7l-11.2,3.9l2.3,6.7ZM815.4,91c-2.6,0,-4.6,-2,-4.6,-4.6c0,-2.5,2,-4.6,4.6,-4.6c2.5,0,4.6,2.1,4.6,4.6c0,2.6,-2.1,4.6,-4.6,4.6Zm0,3c4.2,0,7.6,-3.4,7.6,-7.6c0,-4.2,-3.4,-7.6,-7.6,-7.6c-4.2,0,-7.6,3.4,-7.6,7.6c0,4.2,3.4,7.6,7.6,7.6ZM745.6,91.5V77.2H704.9V91.5Zm43.2,-4.4V72.8H753.6V87.1Zm43.5,-13V59.8h-33V74.1Zm38.2,220.3V147.2h-265c0,-.6,0,-1,0,-1c0,0,-1.7,-8.7,-2.6,-13c-1,-4.3,-.5,-8.4,-.5,-11.3c0,-2.9,-2.2,-6.5,-2.9,-10.2c-.7,-3.6,-.5,-14.2,-.5,-14.2l.5,-13.7l1.4,-5.4l.8,-4.3l-4.9,-3.9l-.7,-4.5l-1.4,-2.5l-2.9,-5L586,50.7c0,0,-3.9,-3.1,-5.1,-4.6c-1.2,-1.4,-.2,-4.3,1,-5.8c1.2,-1.4,7.9,-6.5,7.9,-6.5c0,0,7.8,-7,9.2,-7.7c.5,-.2,.9,-.3,1.3,-.3c.9,0,1.7,.4,2.3,.8c.3,.1,.6,.1,1,.1c1.1,0,2.4,-.4,2.4,-.4l5.1,-3.1l5.5,-.5l4.1,.7l4.6,-.9l-1.7,-3.4L620,15l3.6,-4.6L629.4,7L639.5,3.2l5.6,-.5l4.3,1l8.2,6.7l3.4,1.2l7.7,1h35.2l5.8,-1l2.9,-2.4L716,8.7l1.7,.8l5.8,2.4L736,15.2l16.9,2.5c0,0,15,.9,17.9,.9c2.9,0,10.1,-.2,10.1,-.2l12.5,-1.5c0,0,4.4,-.7,6.3,-1.4c1.2,-.4,2.4,-.5,3.2,-.5c.6,0,.9,0,.9,0c0,0,1.9,1.9,3.2,3.6c.6,.9,2,1.1,3.8,1.1c1.9,0,4.1,-.2,6.3,-.4c.4,0,.8,0,1.2,0c4.8,0,13.1,1.1,16.9,2c4.1,.9,13.7,4.1,17.6,4.8c.8,.2,1.6,.2,2.4,.2c2.8,0,5.2,-.9,6.8,-1.6c1.9,-1,5,-2.2,5,-2.2l3.5,3.7V294.4Z"/></clipPath>
<clipPath id="c6_10"><path d="M868.2,440.4V422.2H783v18.2Zm-338.1,5.7V147.2H870.5V446.1Z"/></clipPath>
<clipPath id="c7_10"><path d="M783,440.4V422.2h85.2v18.2Z"/></clipPath>
<clipPath id="c8_10"><path d="M643.3,126.8V98.7h79.2c-3.2,.9,-5.5,3.9,-5.5,7.3c0,4.2,3.4,7.6,7.6,7.6c4.1,0,7.5,-3.4,7.5,-7.6c0,-3.4,-2.3,-6.4,-5.5,-7.3H734v28.1Z"/></clipPath>
<clipPath id="c9_10"><path d="M724.6,110.6c-2.6,0,-4.6,-2,-4.6,-4.6c0,-2.5,2,-4.6,4.6,-4.6c2.5,0,4.6,2.1,4.6,4.6c0,2.6,-2.1,4.6,-4.6,4.6Z"/></clipPath>
<clipPath id="ca_10"><path d="M724.6,110.6c2.5,0,4.6,-2,4.6,-4.6c0,-2.5,-2.1,-4.6,-4.6,-4.6c-2.6,0,-4.6,2.1,-4.6,4.6c0,2.6,2,4.6,4.6,4.6Zm0,3c-4.2,0,-7.6,-3.4,-7.6,-7.6c0,-3.4,2.3,-6.4,5.5,-7.3h4.1c3.2,.9,5.5,3.9,5.5,7.3c0,4.2,-3.4,7.6,-7.5,7.6Z"/></clipPath>
<clipPath id="cb_10"><path d="M799.3,74.1V59.8h33V74.1Z"/></clipPath>
<clipPath id="cc_10"><path d="M753.6,87.1V72.8h35.2V87.1Z"/></clipPath>
<clipPath id="cd_10"><path d="M739.8,115.4V101.1h8.9c.5,.2,1,.3,1.4,.3c.5,0,1,-.1,1.5,-.3h10.1l4.6,.3v-.3h1.2c.8,1,2,1.7,3.4,1.7c.1,0,.2,0,.3,-.1v12.7Z"/></clipPath>
<clipPath id="ce_10"><path d="M770.9,102.8c-1.4,0,-2.6,-.7,-3.4,-1.7h3.7v1.6c-.1,.1,-.2,.1,-.3,.1Z"/></clipPath>
<clipPath id="cf_10"><path d="M750.1,101.4c-.4,0,-.9,-.1,-1.4,-.3h2.9c-.5,.2,-1,.3,-1.5,.3Z"/></clipPath>
<clipPath id="cg_10"><path d="M704.9,91.5V77.2h40.7V91.5Z"/></clipPath>
<clipPath id="ch_10"><path d="M797.6,95.2l-2.3,-6.7l11.2,-3.9l2.4,6.7l-11.3,3.9Z"/></clipPath>
<clipPath id="ci_10"><path d="M312.2,116.8V100h11.9v16.8Z"/></clipPath>
<clipPath id="cj_10"><path d="M387.6,116.8V100h11.8v16.8Z"/></clipPath>
<clipPath id="ck_10"><path d="M472.6,117.5V100.7h11.8v16.8Z"/></clipPath>
<clipPath id="cl_10"><path d="M520.7,117.5V100.7h9.4v16.8Z"/></clipPath>
<clipPath id="cm_10"><path d="M530.1,117.5V100.7h2.5v16.8Z"/></clipPath>
<clipPath id="cn_10"><path d="M431.2,117.5V100.7H443v16.8Z"/></clipPath>
<clipPath id="co_10"><path d="M777.3,101.4L775,94.6l11.2,-3.8l2.4,6.7l-11.3,3.9Z"/></clipPath>
<clipPath id="cp_10"><path d="M787.9,128.2V99h41.8v29.2Z"/></clipPath>
<clipPath id="cq_10"><path d="M761.7,101.1l-7.3,-.4l.4,-7.1l11.8,.7l-.3,6.8Z"/></clipPath>
<style type="text/css"><![CDATA[
.g0_10{
fill: #4BC0B5;
}
.g1_10{
fill: #DCDDDE;
}
.g2_10{
fill: #8FD3D3;
}
.g3_10{
fill: #4D4D4F;
}
.g4_10{
fill: #5AC4C1;
}
.g5_10{
fill: #58595B;
}
.g6_10{
fill: #DEF1F0;
}
.g7_10{
fill: #949698;
}
]]></style>
</defs>
<path d="M0,1286.2H29.9V1029H0v257.2Z" class="g0_10"/>
<image clip-path="url(#c0_10)" preserveAspectRatio="none" x="6" y="1034" width="23" height="39" xlink:href="img/1.jpg"/>
<path d="M39,1247.2H308.1V147.2H39v1100Z" class="g1_10"/>
<path d="M39,446.1H308.1V147.2H39V446.1Z" class="g2_10"/>
<image clip-path="url(#c1_10)" preserveAspectRatio="none" x="39" y="147" width="269" height="299" xlink:href="img/2.jpg"/>
<path d="M322.2,446.1H870.5V147.2H322.2V446.1Z" class="g2_10"/>
<image clip-path="url(#c2_10)" preserveAspectRatio="none" x="322" y="147" width="548" height="299" xlink:href="img/3.jpg"/>
<image clip-path="url(#c3_10)" preserveAspectRatio="none" x="187" y="422" width="120" height="21" xlink:href="img/4.jpg"/>
<image clip-path="url(#c4_10)" preserveAspectRatio="none" x="529" y="0" width="342" height="447" xlink:href="img/5.jpg"/>
<image clip-path="url(#c5_10)" preserveAspectRatio="none" x="579" y="2" width="292" height="293" xlink:href="img/6.jpg"/>
<image clip-path="url(#c6_10)" preserveAspectRatio="none" x="529" y="147" width="342" height="300" xlink:href="img/7.jpg"/>
<image clip-path="url(#c7_10)" preserveAspectRatio="none" x="782" y="422" width="87" height="19" xlink:href="img/8.jpg"/>
<path d="M39,79H67.8V48.9H39V79Z" class="g3_10"/>
<path d="M724.6,112.1c3.3,0,6,-2.7,6,-6.1c0,-3.3,-2.7,-6.1,-6,-6.1c-3.4,0,-6.1,2.8,-6.1,6.1c0,3.4,2.7,6.1,6.1,6.1Z" class="g2_10"/>
<path d="M724.6,112.1v1.5c4.1,0,7.5,-3.4,7.5,-7.6c0,-4.2,-3.4,-7.5,-7.5,-7.6c-4.2,.1,-7.6,3.4,-7.6,7.6c0,4.2,3.4,7.6,7.6,7.6v-3c-2.6,0,-4.6,-2,-4.6,-4.6c0,-2.5,2,-4.6,4.6,-4.6c2.5,0,4.6,2.1,4.6,4.6c0,2.6,-2.1,4.6,-4.6,4.6Z" class="g4_10"/>
<path d="M42.8,869.8v0c.4,0,.7,-.4,.7,-.8c0,-.4,-.3,-.8,-.7,-.8c-.4,0,-.8,.4,-.8,.8c0,.4,.4,.8,.8,.8m3,0v0c.4,0,.8,-.4,.8,-.8c0,-.4,-.4,-.8,-.8,-.8c-.4,0,-.7,.4,-.7,.8c0,.4,.3,.8,.7,.8m3.1,0v0c.4,0,.7,-.4,.7,-.8c0,-.4,-.3,-.8,-.7,-.8c-.5,0,-.8,.4,-.8,.8c0,.4,.3,.8,.8,.8m3,0v0c.4,0,.8,-.4,.8,-.8c0,-.4,-.4,-.8,-.8,-.8c-.4,0,-.8,.4,-.8,.8c0,.4,.4,.8,.8,.8m3,0v0c.5,0,.8,-.4,.8,-.8c0,-.4,-.3,-.8,-.8,-.8c-.4,0,-.7,.4,-.7,.8c0,.4,.3,.8,.7,.8m3.1,0v0c.4,0,.8,-.4,.8,-.8c0,-.4,-.4,-.8,-.8,-.8c-.4,0,-.8,.4,-.8,.8c0,.4,.4,.8,.8,.8m3,0v0c.5,0,.8,-.4,.8,-.8c0,-.4,-.3,-.8,-.8,-.8c-.4,0,-.7,.4,-.7,.8c0,.4,.3,.8,.7,.8m3.1,0v0c.4,0,.7,-.4,.7,-.8c0,-.4,-.3,-.8,-.7,-.8c-.5,0,-.8,.4,-.8,.8c0,.4,.3,.8,.8,.8m3,0v0c.4,0,.8,-.4,.8,-.8c0,-.4,-.4,-.8,-.8,-.8c-.4,0,-.8,.4,-.8,.8c0,.4,.4,.8,.8,.8m3.1,0v0c.4,0,.7,-.4,.7,-.8c0,-.4,-.3,-.8,-.7,-.8c-.5,0,-.8,.4,-.8,.8c0,.4,.3,.8,.8,.8m3,0v0c.4,0,.8,-.4,.8,-.8c0,-.4,-.4,-.8,-.8,-.8c-.4,0,-.8,.4,-.8,.8c0,.4,.4,.8,.8,.8m3,0v0c.5,0,.8,-.4,.8,-.8c0,-.4,-.3,-.8,-.8,-.8c-.4,0,-.7,.4,-.7,.8c0,.4,.3,.8,.7,.8m3.1,0v0c.4,0,.7,-.4,.7,-.8c0,-.4,-.3,-.8,-.7,-.8c-.4,0,-.8,.4,-.8,.8c0,.4,.4,.8,.8,.8m3,0v0c.4,0,.8,-.4,.8,-.8c0,-.4,-.4,-.8,-.8,-.8c-.4,0,-.7,.4,-.7,.8c0,.4,.3,.8,.7,.8m3.1,0v0c.4,0,.7,-.4,.7,-.8c0,-.4,-.3,-.8,-.7,-.8c-.5,0,-.8,.4,-.8,.8c0,.4,.3,.8,.8,.8m3,0v0c.4,0,.8,-.4,.8,-.8c0,-.4,-.4,-.8,-.8,-.8c-.4,0,-.8,.4,-.8,.8c0,.4,.4,.8,.8,.8m3,0v0c.5,0,.8,-.4,.8,-.8c0,-.4,-.3,-.8,-.8,-.8c-.4,0,-.7,.4,-.7,.8c0,.4,.3,.8,.7,.8m3.1,0v0c.4,0,.7,-.4,.7,-.8c0,-.4,-.3,-.8,-.7,-.8c-.4,0,-.8,.4,-.8,.8c0,.4,.4,.8,.8,.8m3,0v0c.4,0,.8,-.4,.8,-.8c0,-.4,-.4,-.8,-.8,-.8c-.4,0,-.7,.4,-.7,.8c0,.4,.3,.8,.7,.8m3.1,0v0c.4,0,.7,-.4,.7,-.8c0,-.4,-.3,-.8,-.7,-.8c-.5,0,-.8,.4,-.8,.8c0,.4,.3,.8,.8,.8m3,0v0c.4,0,.8,-.4,.8,-.8c0,-.4,-.4,-.8,-.8,-.8c-.4,0,-.8,.4,-.8,.8c0,.4,.4,.8,.8,.8m3,0v0c.5,0,.8,-.4,.8,-.8c0,-.4,-.3,-.8,-.8,-.8c-.4,0,-.7,.4,-.7,.8c0,.4,.3,.8,.7,.8m3.1,0v0c.4,0,.8,-.4,.8,-.8c0,-.4,-.4,-.8,-.8,-.8c-.4,0,-.8,.4,-.8,.8c0,.4,.4,.8,.8,.8m3,0v0c.5,0,.8,-.4,.8,-.8c0,-.4,-.3,-.8,-.8,-.8c-.4,0,-.7,.4,-.7,.8c0,.4,.3,.8,.7,.8m3.1,0v0c.4,0,.7,-.4,.7,-.8c0,-.4,-.3,-.8,-.7,-.8c-.5,0,-.8,.4,-.8,.8c0,.4,.3,.8,.8,.8m3,0v0c.4,0,.8,-.4,.8,-.8c0,-.4,-.4,-.8,-.8,-.8c-.4,0,-.8,.4,-.8,.8c0,.4,.4,.8,.8,.8m3.1,0v0c.4,0,.7,-.4,.7,-.8c0,-.4,-.3,-.8,-.7,-.8c-.5,0,-.8,.4,-.8,.8c0,.4,.3,.8,.8,.8m3,0v0c.4,0,.8,-.4,.8,-.8c0,-.4,-.4,-.8,-.8,-.8c-.4,0,-.8,.4,-.8,.8c0,.4,.4,.8,.8,.8m3,0v0c.5,0,.8,-.4,.8,-.8c0,-.4,-.3,-.8,-.8,-.8c-.4,0,-.7,.4,-.7,.8c0,.4,.3,.8,.7,.8m3.1,0v0c.4,0,.7,-.4,.7,-.8c0,-.4,-.3,-.8,-.7,-.8c-.4,0,-.8,.4,-.8,.8c0,.4,.4,.8,.8,.8m3,0v0c.4,0,.8,-.4,.8,-.8c0,-.4,-.4,-.8,-.8,-.8c-.4,0,-.7,.4,-.7,.8c0,.4,.3,.8,.7,.8m3.1,0v0c.4,0,.7,-.4,.7,-.8c0,-.4,-.3,-.8,-.7,-.8c-.5,0,-.8,.4,-.8,.8c0,.4,.3,.8,.8,.8m3,0v0c.4,0,.8,-.4,.8,-.8c0,-.4,-.4,-.8,-.8,-.8c-.4,0,-.8,.4,-.8,.8c0,.4,.4,.8,.8,.8m3,0v0c.5,0,.8,-.4,.8,-.8c0,-.4,-.3,-.8,-.8,-.8c-.4,0,-.7,.4,-.7,.8c0,.4,.3,.8,.7,.8m3.1,0v0c.4,0,.7,-.4,.7,-.8c0,-.4,-.3,-.8,-.7,-.8c-.4,0,-.8,.4,-.8,.8c0,.4,.4,.8,.8,.8m3,0v0c.4,0,.8,-.4,.8,-.8c0,-.4,-.4,-.8,-.8,-.8c-.4,0,-.7,.4,-.7,.8c0,.4,.3,.8,.7,.8m3.1,0v0c.4,0,.7,-.4,.7,-.8c0,-.4,-.3,-.8,-.7,-.8c-.5,0,-.8,.4,-.8,.8c0,.4,.3,.8,.8,.8m3,0v0c.4,0,.8,-.4,.8,-.8c0,-.4,-.4,-.8,-.8,-.8c-.4,0,-.8,.4,-.8,.8c0,.4,.4,.8,.8,.8m3,0v0c.5,0,.8,-.4,.8,-.8c0,-.4,-.3,-.8,-.8,-.8c-.4,0,-.7,.4,-.7,.8c0,.4,.3,.8,.7,.8m3.1,0v0c.4,0,.8,-.4,.8,-.8c0,-.4,-.4,-.8,-.8,-.8c-.4,0,-.8,.4,-.8,.8c0,.4,.4,.8,.8,.8m3,0v0c.5,0,.8,-.4,.8,-.8c0,-.4,-.3,-.8,-.8,-.8c-.4,0,-.7,.4,-.7,.8c0,.4,.3,.8,.7,.8m3.1,0v0c.4,0,.7,-.4,.7,-.8c0,-.4,-.3,-.8,-.7,-.8c-.5,0,-.8,.4,-.8,.8c0,.4,.3,.8,.8,.8m3,0v0c.4,0,.8,-.4,.8,-.8c0,-.4,-.4,-.8,-.8,-.8c-.4,0,-.8,.4,-.8,.8c0,.4,.4,.8,.8,.8m3.1,0v0c.4,0,.7,-.4,.7,-.8c0,-.4,-.3,-.8,-.7,-.8c-.5,0,-.8,.4,-.8,.8c0,.4,.3,.8,.8,.8m3,0v0c.4,0,.8,-.4,.8,-.8c0,-.4,-.4,-.8,-.8,-.8c-.4,0,-.8,.4,-.8,.8c0,.4,.4,.8,.8,.8m3,0v0c.5,0,.8,-.4,.8,-.8c0,-.4,-.3,-.8,-.8,-.8c-.4,0,-.7,.4,-.7,.8c0,.4,.3,.8,.7,.8m3.1,0v0c.4,0,.7,-.4,.7,-.8c0,-.4,-.3,-.8,-.7,-.8c-.4,0,-.8,.4,-.8,.8c0,.4,.4,.8,.8,.8m3,0v0c.4,0,.8,-.4,.8,-.8c0,-.4,-.4,-.8,-.8,-.8c-.4,0,-.7,.4,-.7,.8c0,.4,.3,.8,.7,.8m3.1,0v0c.4,0,.7,-.4,.7,-.8c0,-.4,-.3,-.8,-.7,-.8c-.5,0,-.8,.4,-.8,.8c0,.4,.3,.8,.8,.8m3,0v0c.4,0,.8,-.4,.8,-.8c0,-.4,-.4,-.8,-.8,-.8c-.4,0,-.8,.4,-.8,.8c0,.4,.4,.8,.8,.8m3,0v0c.5,0,.8,-.4,.8,-.8c0,-.4,-.3,-.8,-.8,-.8c-.4,0,-.7,.4,-.7,.8c0,.4,.3,.8,.7,.8m3.1,0v0c.4,0,.7,-.4,.7,-.8c0,-.4,-.3,-.8,-.7,-.8c-.4,0,-.8,.4,-.8,.8c0,.4,.4,.8,.8,.8m3,0v0c.4,0,.8,-.4,.8,-.8c0,-.4,-.4,-.8,-.8,-.8c-.4,0,-.7,.4,-.7,.8c0,.4,.3,.8,.7,.8m3.1,0v0c.4,0,.7,-.4,.7,-.8c0,-.4,-.3,-.8,-.7,-.8c-.5,0,-.8,.4,-.8,.8c0,.4,.3,.8,.8,.8m3,0v0c.4,0,.8,-.4,.8,-.8c0,-.4,-.4,-.8,-.8,-.8c-.4,0,-.8,.4,-.8,.8c0,.4,.4,.8,.8,.8m3,0v0c.5,0,.8,-.4,.8,-.8c0,-.4,-.3,-.8,-.8,-.8c-.4,0,-.7,.4,-.7,.8c0,.4,.3,.8,.7,.8m3.1,0v0c.4,0,.8,-.4,.8,-.8c0,-.4,-.4,-.8,-.8,-.8c-.4,0,-.8,.4,-.8,.8c0,.4,.4,.8,.8,.8m3,0v0c.5,0,.8,-.4,.8,-.8c0,-.4,-.3,-.8,-.8,-.8c-.4,0,-.7,.4,-.7,.8c0,.4,.3,.8,.7,.8m3.1,0v0c.4,0,.7,-.4,.7,-.8c0,-.4,-.3,-.8,-.7,-.8c-.5,0,-.8,.4,-.8,.8c0,.4,.3,.8,.8,.8m3,0v0c.4,0,.8,-.4,.8,-.8c0,-.4,-.4,-.8,-.8,-.8c-.4,0,-.8,.4,-.8,.8c0,.4,.4,.8,.8,.8m3.1,0v0c.4,0,.7,-.4,.7,-.8c0,-.4,-.3,-.8,-.7,-.8c-.5,0,-.8,.4,-.8,.8c0,.4,.3,.8,.8,.8m3,0v0c.4,0,.8,-.4,.8,-.8c0,-.4,-.4,-.8,-.8,-.8c-.4,0,-.8,.4,-.8,.8c0,.4,.4,.8,.8,.8m3,0v0c.5,0,.8,-.4,.8,-.8c0,-.4,-.3,-.8,-.8,-.8c-.4,0,-.7,.4,-.7,.8c0,.4,.3,.8,.7,.8m3.1,0v0c.4,0,.7,-.4,.7,-.8c0,-.4,-.3,-.8,-.7,-.8c-.4,0,-.8,.4,-.8,.8c0,.4,.4,.8,.8,.8m3,0v0c.4,0,.8,-.4,.8,-.8c0,-.4,-.4,-.8,-.8,-.8c-.4,0,-.7,.4,-.7,.8c0,.4,.3,.8,.7,.8m3.1,0v0c.4,0,.7,-.4,.7,-.8c0,-.4,-.3,-.8,-.7,-.8c-.5,0,-.8,.4,-.8,.8c0,.4,.3,.8,.8,.8m3,0v0c.4,0,.8,-.4,.8,-.8c0,-.4,-.4,-.8,-.8,-.8c-.4,0,-.8,.4,-.8,.8c0,.4,.4,.8,.8,.8m3,0v0c.5,0,.8,-.4,.8,-.8c0,-.4,-.3,-.8,-.8,-.8c-.4,0,-.7,.4,-.7,.8c0,.4,.3,.8,.7,.8m3.1,0v0c.4,0,.7,-.4,.7,-.8c0,-.4,-.3,-.8,-.7,-.8c-.4,0,-.8,.4,-.8,.8c0,.4,.4,.8,.8,.8m3,0v0c.4,0,.8,-.4,.8,-.8c0,-.4,-.4,-.8,-.8,-.8c-.4,0,-.7,.4,-.7,.8c0,.4,.3,.8,.7,.8m3.1,0v0c.4,0,.7,-.4,.7,-.8c0,-.4,-.3,-.8,-.7,-.8c-.5,0,-.8,.4,-.8,.8c0,.4,.3,.8,.8,.8m3,0v0c.4,0,.8,-.4,.8,-.8c0,-.4,-.4,-.8,-.8,-.8c-.4,0,-.8,.4,-.8,.8c0,.4,.4,.8,.8,.8m3,0v0c.5,0,.8,-.4,.8,-.8c0,-.4,-.3,-.8,-.8,-.8c-.4,0,-.7,.4,-.7,.8c0,.4,.3,.8,.7,.8m3.1,0v0c.4,0,.8,-.4,.8,-.8c0,-.4,-.4,-.8,-.8,-.8c-.4,0,-.8,.4,-.8,.8c0,.4,.4,.8,.8,.8m3,0v0c.5,0,.8,-.4,.8,-.8c0,-.4,-.3,-.8,-.8,-.8c-.4,0,-.7,.4,-.7,.8c0,.4,.3,.8,.7,.8m3.1,0v0c.4,0,.7,-.4,.7,-.8c0,-.4,-.3,-.8,-.7,-.8c-.5,0,-.8,.4,-.8,.8c0,.4,.3,.8,.8,.8m3,0v0c.4,0,.8,-.4,.8,-.8c0,-.4,-.4,-.8,-.8,-.8c-.4,0,-.8,.4,-.8,.8c0,.4,.4,.8,.8,.8m3.1,0v0c.4,0,.7,-.4,.7,-.8c0,-.4,-.3,-.8,-.7,-.8c-.5,0,-.8,.4,-.8,.8c0,.4,.3,.8,.8,.8m3,0v0c.4,0,.8,-.4,.8,-.8c0,-.4,-.4,-.8,-.8,-.8c-.4,0,-.8,.4,-.8,.8c0,.4,.4,.8,.8,.8m3,0v0c.5,0,.8,-.4,.8,-.8c0,-.4,-.3,-.8,-.8,-.8c-.4,0,-.7,.4,-.7,.8c0,.4,.3,.8,.7,.8m3.1,0v0c.4,0,.7,-.4,.7,-.8c0,-.4,-.3,-.8,-.7,-.8c-.4,0,-.8,.4,-.8,.8c0,.4,.4,.8,.8,.8m3,0v0c.4,0,.8,-.4,.8,-.8c0,-.4,-.4,-.8,-.8,-.8c-.4,0,-.7,.4,-.7,.8c0,.4,.3,.8,.7,.8m3.1,0v0c.4,0,.7,-.4,.7,-.8c0,-.4,-.3,-.8,-.7,-.8c-.5,0,-.8,.4,-.8,.8c0,.4,.3,.8,.8,.8m3,0v0c.4,0,.8,-.4,.8,-.8c0,-.4,-.4,-.8,-.8,-.8c-.4,0,-.8,.4,-.8,.8c0,.4,.4,.8,.8,.8m3,0v0c.5,0,.8,-.4,.8,-.8c0,-.4,-.3,-.8,-.8,-.8c-.4,0,-.7,.4,-.7,.8c0,.4,.3,.8,.7,.8m3.1,0v0c.4,0,.7,-.4,.7,-.8c0,-.4,-.3,-.8,-.7,-.8c-.4,0,-.8,.4,-.8,.8c0,.4,.4,.8,.8,.8m3,0v0c.4,0,.8,-.4,.8,-.8c0,-.4,-.4,-.8,-.8,-.8c-.4,0,-.7,.4,-.7,.8c0,.4,.3,.8,.7,.8Z" class="g5_10"/>
<path d="M39.7,869.8c.2,0,.4,-.1,.6,-.3c.1,-.1,.2,-.3,.2,-.5c0,-.2,-.1,-.4,-.2,-.5c-.2,-.2,-.4,-.3,-.6,-.3c-.2,0,-.4,.1,-.5,.3c-.1,.1,-.2,.3,-.2,.5c0,.2,.1,.4,.2,.5c.1,.2,.3,.3,.5,.3m267.7,0c.2,0,.4,-.1,.5,-.3c.1,-.1,.2,-.3,.2,-.5c0,-.2,-.1,-.4,-.2,-.5c-.1,-.2,-.3,-.3,-.5,-.3c-.2,0,-.4,.1,-.6,.3c-.1,.1,-.2,.3,-.2,.5c0,.2,.1,.4,.2,.5c.2,.2,.4,.3,.6,.3Z" class="g5_10"/>
<path d="M39,893.8H308.1v-1.5H39Z" class="g5_10"/>
<path d="M39,672.7H308.1v-2.3H39Z" class="g5_10"/>
<path d="M40.9,992.6v0c.2,0,.4,-.2,.4,-.4c0,-.2,-.2,-.4,-.4,-.4c-.2,0,-.4,.2,-.4,.4c0,.2,.2,.4,.4,.4m1.5,0v0c.2,0,.4,-.2,.4,-.4c0,-.2,-.2,-.4,-.4,-.4c-.2,0,-.4,.2,-.4,.4c0,.2,.2,.4,.4,.4m1.6,0v0c.2,0,.3,-.2,.3,-.4c0,-.2,-.1,-.4,-.3,-.4c-.3,0,-.4,.2,-.4,.4c0,.2,.1,.4,.4,.4m1.5,0v0c.2,0,.4,-.2,.4,-.4c0,-.2,-.2,-.4,-.4,-.4c-.2,0,-.4,.2,-.4,.4c0,.2,.2,.4,.4,.4m1.5,0v0c.2,0,.4,-.2,.4,-.4c0,-.2,-.2,-.4,-.4,-.4c-.2,0,-.4,.2,-.4,.4c0,.2,.2,.4,.4,.4m1.6,0v0c.2,0,.3,-.2,.3,-.4c0,-.2,-.1,-.4,-.3,-.4c-.3,0,-.4,.2,-.4,.4c0,.2,.1,.4,.4,.4m1.5,0v0c.2,0,.4,-.2,.4,-.4c0,-.2,-.2,-.4,-.4,-.4c-.2,0,-.4,.2,-.4,.4c0,.2,.2,.4,.4,.4m1.5,0v0c.2,0,.4,-.2,.4,-.4c0,-.2,-.2,-.4,-.4,-.4c-.2,0,-.4,.2,-.4,.4c0,.2,.2,.4,.4,.4m1.6,0v0c.2,0,.3,-.2,.3,-.4c0,-.2,-.1,-.4,-.3,-.4c-.3,0,-.4,.2,-.4,.4c0,.2,.1,.4,.4,.4m1.5,0v0c.2,0,.4,-.2,.4,-.4c0,-.2,-.2,-.4,-.4,-.4c-.2,0,-.4,.2,-.4,.4c0,.2,.2,.4,.4,.4m1.5,0v0c.2,0,.4,-.2,.4,-.4c0,-.2,-.2,-.4,-.4,-.4c-.2,0,-.4,.2,-.4,.4c0,.2,.2,.4,.4,.4m1.6,0v0c.2,0,.3,-.2,.3,-.4c0,-.2,-.1,-.4,-.3,-.4c-.3,0,-.4,.2,-.4,.4c0,.2,.1,.4,.4,.4m1.5,0v0c.2,0,.4,-.2,.4,-.4c0,-.2,-.2,-.4,-.4,-.4c-.2,0,-.4,.2,-.4,.4c0,.2,.2,.4,.4,.4m1.5,0v0c.2,0,.4,-.2,.4,-.4c0,-.2,-.2,-.4,-.4,-.4c-.2,0,-.4,.2,-.4,.4c0,.2,.2,.4,.4,.4m1.6,0v0c.2,0,.3,-.2,.3,-.4c0,-.2,-.1,-.4,-.3,-.4c-.3,0,-.4,.2,-.4,.4c0,.2,.1,.4,.4,.4m1.5,0v0c.2,0,.4,-.2,.4,-.4c0,-.2,-.2,-.4,-.4,-.4c-.2,0,-.4,.2,-.4,.4c0,.2,.2,.4,.4,.4m1.5,0v0c.2,0,.4,-.2,.4,-.4c0,-.2,-.2,-.4,-.4,-.4c-.2,0,-.4,.2,-.4,.4c0,.2,.2,.4,.4,.4m1.6,0v0c.2,0,.3,-.2,.3,-.4c0,-.2,-.1,-.4,-.3,-.4c-.3,0,-.4,.2,-.4,.4c0,.2,.1,.4,.4,.4m1.5,0v0c.2,0,.4,-.2,.4,-.4c0,-.2,-.2,-.4,-.4,-.4c-.2,0,-.4,.2,-.4,.4c0,.2,.2,.4,.4,.4m1.5,0v0c.2,0,.4,-.2,.4,-.4c0,-.2,-.2,-.4,-.4,-.4c-.2,0,-.4,.2,-.4,.4c0,.2,.2,.4,.4,.4m1.6,0v0c.2,0,.3,-.2,.3,-.4c0,-.2,-.1,-.4,-.3,-.4c-.3,0,-.4,.2,-.4,.4c0,.2,.1,.4,.4,.4m1.5,0v0c.2,0,.4,-.2,.4,-.4c0,-.2,-.2,-.4,-.4,-.4c-.2,0,-.4,.2,-.4,.4c0,.2,.2,.4,.4,.4m1.5,0v0c.2,0,.4,-.2,.4,-.4c0,-.2,-.2,-.4,-.4,-.4c-.2,0,-.4,.2,-.4,.4c0,.2,.2,.4,.4,.4m1.6,0v0c.2,0,.3,-.2,.3,-.4c0,-.2,-.1,-.4,-.3,-.4c-.3,0,-.4,.2,-.4,.4c0,.2,.1,.4,.4,.4m1.5,0v0c.2,0,.4,-.2,.4,-.4c0,-.2,-.2,-.4,-.4,-.4c-.2,0,-.4,.2,-.4,.4c0,.2,.2,.4,.4,.4m1.5,0v0c.2,0,.4,-.2,.4,-.4c0,-.2,-.2,-.4,-.4,-.4c-.2,0,-.4,.2,-.4,.4c0,.2,.2,.4,.4,.4m1.5,0v0c.3,0,.4,-.2,.4,-.4c0,-.2,-.1,-.4,-.4,-.4c-.2,0,-.3,.2,-.3,.4c0,.2,.1,.4,.3,.4m1.6,0v0c.2,0,.4,-.2,.4,-.4c0,-.2,-.2,-.4,-.4,-.4c-.2,0,-.4,.2,-.4,.4c0,.2,.2,.4,.4,.4m1.5,0v0c.2,0,.4,-.2,.4,-.4c0,-.2,-.2,-.4,-.4,-.4c-.2,0,-.4,.2,-.4,.4c0,.2,.2,.4,.4,.4m1.5,0v0c.3,0,.4,-.2,.4,-.4c0,-.2,-.1,-.4,-.4,-.4c-.2,0,-.3,.2,-.3,.4c0,.2,.1,.4,.3,.4m1.6,0v0c.2,0,.4,-.2,.4,-.4c0,-.2,-.2,-.4,-.4,-.4c-.2,0,-.4,.2,-.4,.4c0,.2,.2,.4,.4,.4m1.5,0v0c.2,0,.4,-.2,.4,-.4c0,-.2,-.2,-.4,-.4,-.4c-.2,0,-.4,.2,-.4,.4c0,.2,.2,.4,.4,.4m1.5,0v0c.3,0,.4,-.2,.4,-.4c0,-.2,-.1,-.4,-.4,-.4c-.2,0,-.3,.2,-.3,.4c0,.2,.1,.4,.3,.4m1.6,0v0c.2,0,.4,-.2,.4,-.4c0,-.2,-.2,-.4,-.4,-.4c-.2,0,-.4,.2,-.4,.4c0,.2,.2,.4,.4,.4m1.5,0v0c.2,0,.4,-.2,.4,-.4c0,-.2,-.2,-.4,-.4,-.4c-.2,0,-.4,.2,-.4,.4c0,.2,.2,.4,.4,.4m1.5,0v0c.3,0,.4,-.2,.4,-.4c0,-.2,-.1,-.4,-.4,-.4c-.2,0,-.3,.2,-.3,.4c0,.2,.1,.4,.3,.4m1.6,0v0c.2,0,.4,-.2,.4,-.4c0,-.2,-.2,-.4,-.4,-.4c-.2,0,-.4,.2,-.4,.4c0,.2,.2,.4,.4,.4m1.5,0v0c.2,0,.4,-.2,.4,-.4c0,-.2,-.2,-.4,-.4,-.4c-.2,0,-.4,.2,-.4,.4c0,.2,.2,.4,.4,.4m1.5,0v0c.3,0,.4,-.2,.4,-.4c0,-.2,-.1,-.4,-.4,-.4c-.2,0,-.3,.2,-.3,.4c0,.2,.1,.4,.3,.4m1.6,0v0c.2,0,.4,-.2,.4,-.4c0,-.2,-.2,-.4,-.4,-.4c-.2,0,-.4,.2,-.4,.4c0,.2,.2,.4,.4,.4m1.5,0v0c.2,0,.4,-.2,.4,-.4c0,-.2,-.2,-.4,-.4,-.4c-.2,0,-.4,.2,-.4,.4c0,.2,.2,.4,.4,.4m1.5,0v0c.3,0,.4,-.2,.4,-.4c0,-.2,-.1,-.4,-.4,-.4c-.2,0,-.3,.2,-.3,.4c0,.2,.1,.4,.3,.4m1.6,0v0c.2,0,.4,-.2,.4,-.4c0,-.2,-.2,-.4,-.4,-.4c-.2,0,-.4,.2,-.4,.4c0,.2,.2,.4,.4,.4m1.5,0v0c.2,0,.4,-.2,.4,-.4c0,-.2,-.2,-.4,-.4,-.4c-.2,0,-.4,.2,-.4,.4c0,.2,.2,.4,.4,.4m1.5,0v0c.3,0,.4,-.2,.4,-.4c0,-.2,-.1,-.4,-.4,-.4c-.2,0,-.3,.2,-.3,.4c0,.2,.1,.4,.3,.4m1.6,0v0c.2,0,.4,-.2,.4,-.4c0,-.2,-.2,-.4,-.4,-.4c-.2,0,-.4,.2,-.4,.4c0,.2,.2,.4,.4,.4m1.5,0v0c.2,0,.4,-.2,.4,-.4c0,-.2,-.2,-.4,-.4,-.4c-.2,0,-.4,.2,-.4,.4c0,.2,.2,.4,.4,.4m1.5,0v0c.3,0,.4,-.2,.4,-.4c0,-.2,-.1,-.4,-.4,-.4c-.2,0,-.3,.2,-.3,.4c0,.2,.1,.4,.3,.4m1.6,0v0c.2,0,.4,-.2,.4,-.4c0,-.2,-.2,-.4,-.4,-.4c-.2,0,-.4,.2,-.4,.4c0,.2,.2,.4,.4,.4m1.5,0v0c.2,0,.4,-.2,.4,-.4c0,-.2,-.2,-.4,-.4,-.4c-.2,0,-.4,.2,-.4,.4c0,.2,.2,.4,.4,.4m1.5,0v0c.3,0,.4,-.2,.4,-.4c0,-.2,-.1,-.4,-.4,-.4c-.2,0,-.3,.2,-.3,.4c0,.2,.1,.4,.3,.4m1.6,0v0c.2,0,.4,-.2,.4,-.4c0,-.2,-.2,-.4,-.4,-.4c-.2,0,-.4,.2,-.4,.4c0,.2,.2,.4,.4,.4m1.5,0v0c.2,0,.4,-.2,.4,-.4c0,-.2,-.2,-.4,-.4,-.4c-.2,0,-.4,.2,-.4,.4c0,.2,.2,.4,.4,.4m1.5,0v0c.3,0,.4,-.2,.4,-.4c0,-.2,-.1,-.4,-.4,-.4c-.2,0,-.3,.2,-.3,.4c0,.2,.1,.4,.3,.4m1.6,0v0c.2,0,.4,-.2,.4,-.4c0,-.2,-.2,-.4,-.4,-.4c-.2,0,-.4,.2,-.4,.4c0,.2,.2,.4,.4,.4m1.5,0v0c.2,0,.4,-.2,.4,-.4c0,-.2,-.2,-.4,-.4,-.4c-.2,0,-.4,.2,-.4,.4c0,.2,.2,.4,.4,.4m1.5,0v0c.3,0,.4,-.2,.4,-.4c0,-.2,-.1,-.4,-.4,-.4c-.2,0,-.3,.2,-.3,.4c0,.2,.1,.4,.3,.4m1.6,0v0c.2,0,.4,-.2,.4,-.4c0,-.2,-.2,-.4,-.4,-.4c-.2,0,-.4,.2,-.4,.4c0,.2,.2,.4,.4,.4m1.5,0v0c.2,0,.4,-.2,.4,-.4c0,-.2,-.2,-.4,-.4,-.4c-.2,0,-.4,.2,-.4,.4c0,.2,.2,.4,.4,.4m1.5,0v0c.2,0,.4,-.2,.4,-.4c0,-.2,-.2,-.4,-.4,-.4c-.2,0,-.3,.2,-.3,.4c0,.2,.1,.4,.3,.4m1.6,0v0c.2,0,.4,-.2,.4,-.4c0,-.2,-.2,-.4,-.4,-.4c-.2,0,-.4,.2,-.4,.4c0,.2,.2,.4,.4,.4m1.5,0v0c.2,0,.4,-.2,.4,-.4c0,-.2,-.2,-.4,-.4,-.4c-.2,0,-.4,.2,-.4,.4c0,.2,.2,.4,.4,.4m1.5,0v0c.2,0,.4,-.2,.4,-.4c0,-.2,-.2,-.4,-.4,-.4c-.2,0,-.3,.2,-.3,.4c0,.2,.1,.4,.3,.4m1.6,0v0c.2,0,.4,-.2,.4,-.4c0,-.2,-.2,-.4,-.4,-.4c-.2,0,-.4,.2,-.4,.4c0,.2,.2,.4,.4,.4m1.5,0v0c.2,0,.4,-.2,.4,-.4c0,-.2,-.2,-.4,-.4,-.4c-.2,0,-.4,.2,-.4,.4c0,.2,.2,.4,.4,.4m1.5,0v0c.2,0,.4,-.2,.4,-.4c0,-.2,-.2,-.4,-.4,-.4c-.2,0,-.3,.2,-.3,.4c0,.2,.1,.4,.3,.4m1.6,0v0c.2,0,.4,-.2,.4,-.4c0,-.2,-.2,-.4,-.4,-.4c-.2,0,-.4,.2,-.4,.4c0,.2,.2,.4,.4,.4m1.5,0v0c.2,0,.4,-.2,.4,-.4c0,-.2,-.2,-.4,-.4,-.4c-.2,0,-.4,.2,-.4,.4c0,.2,.2,.4,.4,.4m1.5,0v0c.2,0,.4,-.2,.4,-.4c0,-.2,-.2,-.4,-.4,-.4c-.2,0,-.3,.2,-.3,.4c0,.2,.1,.4,.3,.4m1.6,0v0c.2,0,.4,-.2,.4,-.4c0,-.2,-.2,-.4,-.4,-.4c-.2,0,-.4,.2,-.4,.4c0,.2,.2,.4,.4,.4m1.5,0v0c.2,0,.4,-.2,.4,-.4c0,-.2,-.2,-.4,-.4,-.4c-.2,0,-.4,.2,-.4,.4c0,.2,.2,.4,.4,.4m1.5,0v0c.2,0,.4,-.2,.4,-.4c0,-.2,-.2,-.4,-.4,-.4c-.2,0,-.3,.2,-.3,.4c0,.2,.1,.4,.3,.4m1.6,0v0c.2,0,.3,-.2,.3,-.4c0,-.2,-.1,-.4,-.3,-.4c-.2,0,-.4,.2,-.4,.4c0,.2,.2,.4,.4,.4m1.5,0v0c.2,0,.4,-.2,.4,-.4c0,-.2,-.2,-.4,-.4,-.4c-.2,0,-.4,.2,-.4,.4c0,.2,.2,.4,.4,.4m1.5,0v0c.2,0,.4,-.2,.4,-.4c0,-.2,-.2,-.4,-.4,-.4c-.2,0,-.3,.2,-.3,.4c0,.2,.1,.4,.3,.4m1.6,0v0c.2,0,.3,-.2,.3,-.4c0,-.2,-.1,-.4,-.3,-.4c-.2,0,-.4,.2,-.4,.4c0,.2,.2,.4,.4,.4m1.5,0v0c.2,0,.4,-.2,.4,-.4c0,-.2,-.2,-.4,-.4,-.4c-.2,0,-.4,.2,-.4,.4c0,.2,.2,.4,.4,.4m1.5,0v0c.2,0,.4,-.2,.4,-.4c0,-.2,-.2,-.4,-.4,-.4c-.2,0,-.3,.2,-.3,.4c0,.2,.1,.4,.3,.4m1.6,0v0c.2,0,.3,-.2,.3,-.4c0,-.2,-.1,-.4,-.3,-.4c-.2,0,-.4,.2,-.4,.4c0,.2,.2,.4,.4,.4m1.5,0v0c.2,0,.4,-.2,.4,-.4c0,-.2,-.2,-.4,-.4,-.4c-.2,0,-.4,.2,-.4,.4c0,.2,.2,.4,.4,.4m1.5,0v0c.2,0,.4,-.2,.4,-.4c0,-.2,-.2,-.4,-.4,-.4c-.2,0,-.4,.2,-.4,.4c0,.2,.2,.4,.4,.4m1.6,0v0c.2,0,.3,-.2,.3,-.4c0,-.2,-.1,-.4,-.3,-.4c-.2,0,-.4,.2,-.4,.4c0,.2,.2,.4,.4,.4m1.5,0v0c.2,0,.4,-.2,.4,-.4c0,-.2,-.2,-.4,-.4,-.4c-.2,0,-.4,.2,-.4,.4c0,.2,.2,.4,.4,.4m1.5,0v0c.2,0,.4,-.2,.4,-.4c0,-.2,-.2,-.4,-.4,-.4c-.2,0,-.4,.2,-.4,.4c0,.2,.2,.4,.4,.4m1.6,0v0c.2,0,.3,-.2,.3,-.4c0,-.2,-.1,-.4,-.3,-.4c-.2,0,-.4,.2,-.4,.4c0,.2,.2,.4,.4,.4m1.5,0v0c.2,0,.4,-.2,.4,-.4c0,-.2,-.2,-.4,-.4,-.4c-.2,0,-.4,.2,-.4,.4c0,.2,.2,.4,.4,.4m1.5,0v0c.2,0,.4,-.2,.4,-.4c0,-.2,-.2,-.4,-.4,-.4c-.2,0,-.4,.2,-.4,.4c0,.2,.2,.4,.4,.4m1.6,0v0c.2,0,.3,-.2,.3,-.4c0,-.2,-.1,-.4,-.3,-.4c-.2,0,-.4,.2,-.4,.4c0,.2,.2,.4,.4,.4m1.5,0v0c.2,0,.4,-.2,.4,-.4c0,-.2,-.2,-.4,-.4,-.4c-.2,0,-.4,.2,-.4,.4c0,.2,.2,.4,.4,.4m1.5,0v0c.2,0,.4,-.2,.4,-.4c0,-.2,-.2,-.4,-.4,-.4c-.2,0,-.4,.2,-.4,.4c0,.2,.2,.4,.4,.4m1.6,0v0c.2,0,.3,-.2,.3,-.4c0,-.2,-.1,-.4,-.3,-.4c-.2,0,-.4,.2,-.4,.4c0,.2,.2,.4,.4,.4m1.5,0v0c.2,0,.4,-.2,.4,-.4c0,-.2,-.2,-.4,-.4,-.4c-.2,0,-.4,.2,-.4,.4c0,.2,.2,.4,.4,.4m1.5,0v0c.2,0,.4,-.2,.4,-.4c0,-.2,-.2,-.4,-.4,-.4c-.2,0,-.4,.2,-.4,.4c0,.2,.2,.4,.4,.4m1.6,0v0c.2,0,.3,-.2,.3,-.4c0,-.2,-.1,-.4,-.3,-.4c-.3,0,-.4,.2,-.4,.4c0,.2,.1,.4,.4,.4m1.5,0v0c.2,0,.4,-.2,.4,-.4c0,-.2,-.2,-.4,-.4,-.4c-.2,0,-.4,.2,-.4,.4c0,.2,.2,.4,.4,.4m1.5,0v0c.2,0,.4,-.2,.4,-.4c0,-.2,-.2,-.4,-.4,-.4c-.2,0,-.4,.2,-.4,.4c0,.2,.2,.4,.4,.4m1.6,0v0c.2,0,.3,-.2,.3,-.4c0,-.2,-.1,-.4,-.3,-.4c-.3,0,-.4,.2,-.4,.4c0,.2,.1,.4,.4,.4m1.5,0v0c.2,0,.4,-.2,.4,-.4c0,-.2,-.2,-.4,-.4,-.4c-.2,0,-.4,.2,-.4,.4c0,.2,.2,.4,.4,.4m1.5,0v0c.2,0,.4,-.2,.4,-.4c0,-.2,-.2,-.4,-.4,-.4c-.2,0,-.4,.2,-.4,.4c0,.2,.2,.4,.4,.4m1.6,0v0c.2,0,.3,-.2,.3,-.4c0,-.2,-.1,-.4,-.3,-.4c-.3,0,-.4,.2,-.4,.4c0,.2,.1,.4,.4,.4m1.5,0v0c.2,0,.4,-.2,.4,-.4c0,-.2,-.2,-.4,-.4,-.4c-.2,0,-.4,.2,-.4,.4c0,.2,.2,.4,.4,.4m1.5,0v0c.2,0,.4,-.2,.4,-.4c0,-.2,-.2,-.4,-.4,-.4c-.2,0,-.4,.2,-.4,.4c0,.2,.2,.4,.4,.4m1.6,0v0c.2,0,.3,-.2,.3,-.4c0,-.2,-.1,-.4,-.3,-.4c-.3,0,-.4,.2,-.4,.4c0,.2,.1,.4,.4,.4m1.5,0v0c.2,0,.4,-.2,.4,-.4c0,-.2,-.2,-.4,-.4,-.4c-.2,0,-.4,.2,-.4,.4c0,.2,.2,.4,.4,.4m1.5,0v0c.2,0,.4,-.2,.4,-.4c0,-.2,-.2,-.4,-.4,-.4c-.2,0,-.4,.2,-.4,.4c0,.2,.2,.4,.4,.4m1.6,0v0c.2,0,.3,-.2,.3,-.4c0,-.2,-.1,-.4,-.3,-.4c-.3,0,-.4,.2,-.4,.4c0,.2,.1,.4,.4,.4m1.5,0v0c.2,0,.4,-.2,.4,-.4c0,-.2,-.2,-.4,-.4,-.4c-.2,0,-.4,.2,-.4,.4c0,.2,.2,.4,.4,.4m1.5,0v0c.2,0,.4,-.2,.4,-.4c0,-.2,-.2,-.4,-.4,-.4c-.2,0,-.4,.2,-.4,.4c0,.2,.2,.4,.4,.4m1.6,0v0c.2,0,.3,-.2,.3,-.4c0,-.2,-.1,-.4,-.3,-.4c-.3,0,-.4,.2,-.4,.4c0,.2,.1,.4,.4,.4m1.5,0v0c.2,0,.4,-.2,.4,-.4c0,-.2,-.2,-.4,-.4,-.4c-.2,0,-.4,.2,-.4,.4c0,.2,.2,.4,.4,.4m1.5,0v0c.2,0,.4,-.2,.4,-.4c0,-.2,-.2,-.4,-.4,-.4c-.2,0,-.4,.2,-.4,.4c0,.2,.2,.4,.4,.4m1.6,0v0c.2,0,.3,-.2,.3,-.4c0,-.2,-.1,-.4,-.3,-.4c-.3,0,-.4,.2,-.4,.4c0,.2,.1,.4,.4,.4m1.5,0v0c.2,0,.4,-.2,.4,-.4c0,-.2,-.2,-.4,-.4,-.4c-.2,0,-.4,.2,-.4,.4c0,.2,.2,.4,.4,.4m1.5,0v0c.2,0,.4,-.2,.4,-.4c0,-.2,-.2,-.4,-.4,-.4c-.2,0,-.4,.2,-.4,.4c0,.2,.2,.4,.4,.4m1.6,0v0c.2,0,.3,-.2,.3,-.4c0,-.2,-.1,-.4,-.3,-.4c-.3,0,-.4,.2,-.4,.4c0,.2,.1,.4,.4,.4m1.5,0v0c.2,0,.4,-.2,.4,-.4c0,-.2,-.2,-.4,-.4,-.4c-.2,0,-.4,.2,-.4,.4c0,.2,.2,.4,.4,.4m1.5,0v0c.2,0,.4,-.2,.4,-.4c0,-.2,-.2,-.4,-.4,-.4c-.2,0,-.4,.2,-.4,.4c0,.2,.2,.4,.4,.4m1.6,0v0c.2,0,.3,-.2,.3,-.4c0,-.2,-.1,-.4,-.3,-.4c-.3,0,-.4,.2,-.4,.4c0,.2,.1,.4,.4,.4m1.5,0v0c.2,0,.4,-.2,.4,-.4c0,-.2,-.2,-.4,-.4,-.4c-.2,0,-.4,.2,-.4,.4c0,.2,.2,.4,.4,.4m1.5,0v0c.2,0,.4,-.2,.4,-.4c0,-.2,-.2,-.4,-.4,-.4c-.2,0,-.4,.2,-.4,.4c0,.2,.2,.4,.4,.4m1.6,0v0c.2,0,.3,-.2,.3,-.4c0,-.2,-.1,-.4,-.3,-.4c-.3,0,-.4,.2,-.4,.4c0,.2,.1,.4,.4,.4m1.5,0v0c.2,0,.4,-.2,.4,-.4c0,-.2,-.2,-.4,-.4,-.4c-.2,0,-.4,.2,-.4,.4c0,.2,.2,.4,.4,.4m1.5,0v0c.2,0,.4,-.2,.4,-.4c0,-.2,-.2,-.4,-.4,-.4c-.2,0,-.4,.2,-.4,.4c0,.2,.2,.4,.4,.4m1.5,0v0c.3,0,.4,-.2,.4,-.4c0,-.2,-.1,-.4,-.4,-.4c-.2,0,-.3,.2,-.3,.4c0,.2,.1,.4,.3,.4m1.6,0v0c.2,0,.4,-.2,.4,-.4c0,-.2,-.2,-.4,-.4,-.4c-.2,0,-.4,.2,-.4,.4c0,.2,.2,.4,.4,.4m1.5,0v0c.2,0,.4,-.2,.4,-.4c0,-.2,-.2,-.4,-.4,-.4c-.2,0,-.4,.2,-.4,.4c0,.2,.2,.4,.4,.4m1.5,0v0c.3,0,.4,-.2,.4,-.4c0,-.2,-.1,-.4,-.4,-.4c-.2,0,-.3,.2,-.3,.4c0,.2,.1,.4,.3,.4m1.6,0v0c.2,0,.4,-.2,.4,-.4c0,-.2,-.2,-.4,-.4,-.4c-.2,0,-.4,.2,-.4,.4c0,.2,.2,.4,.4,.4m1.5,0v0c.2,0,.4,-.2,.4,-.4c0,-.2,-.2,-.4,-.4,-.4c-.2,0,-.4,.2,-.4,.4c0,.2,.2,.4,.4,.4m1.5,0v0c.3,0,.4,-.2,.4,-.4c0,-.2,-.1,-.4,-.4,-.4c-.2,0,-.3,.2,-.3,.4c0,.2,.1,.4,.3,.4m1.6,0v0c.2,0,.4,-.2,.4,-.4c0,-.2,-.2,-.4,-.4,-.4c-.2,0,-.4,.2,-.4,.4c0,.2,.2,.4,.4,.4m1.5,0v0c.2,0,.4,-.2,.4,-.4c0,-.2,-.2,-.4,-.4,-.4c-.2,0,-.4,.2,-.4,.4c0,.2,.2,.4,.4,.4m1.5,0v0c.3,0,.4,-.2,.4,-.4c0,-.2,-.1,-.4,-.4,-.4c-.2,0,-.3,.2,-.3,.4c0,.2,.1,.4,.3,.4m1.6,0v0c.2,0,.4,-.2,.4,-.4c0,-.2,-.2,-.4,-.4,-.4c-.2,0,-.4,.2,-.4,.4c0,.2,.2,.4,.4,.4m1.5,0v0c.2,0,.4,-.2,.4,-.4c0,-.2,-.2,-.4,-.4,-.4c-.2,0,-.4,.2,-.4,.4c0,.2,.2,.4,.4,.4m1.5,0v0c.3,0,.4,-.2,.4,-.4c0,-.2,-.1,-.4,-.4,-.4c-.2,0,-.3,.2,-.3,.4c0,.2,.1,.4,.3,.4m1.6,0v0c.2,0,.4,-.2,.4,-.4c0,-.2,-.2,-.4,-.4,-.4c-.2,0,-.4,.2,-.4,.4c0,.2,.2,.4,.4,.4m1.5,0v0c.2,0,.4,-.2,.4,-.4c0,-.2,-.2,-.4,-.4,-.4c-.2,0,-.4,.2,-.4,.4c0,.2,.2,.4,.4,.4m1.5,0v0c.3,0,.4,-.2,.4,-.4c0,-.2,-.1,-.4,-.4,-.4c-.2,0,-.3,.2,-.3,.4c0,.2,.1,.4,.3,.4m1.6,0v0c.2,0,.4,-.2,.4,-.4c0,-.2,-.2,-.4,-.4,-.4c-.2,0,-.4,.2,-.4,.4c0,.2,.2,.4,.4,.4Z" class="g5_10"/>
<path d="M39.4,992.6l.2,-.1l.1,-.3l-.1,-.2l-.2,-.2l-.3,.2l-.1,.2l.1,.3Zm216.1,0l.3,-.1l.1,-.3l-.1,-.2l-.3,-.2l-.3,.2l-.1,.2l.1,.3Z" class="g5_10"/>
<path d="M257,992.6v0c.3,0,.4,-.2,.4,-.4c0,-.2,-.1,-.4,-.4,-.4c-.2,0,-.3,.2,-.3,.4c0,.2,.1,.4,.3,.4m1.6,0v0c.2,0,.4,-.2,.4,-.4c0,-.2,-.2,-.4,-.4,-.4c-.2,0,-.4,.2,-.4,.4c0,.2,.2,.4,.4,.4m1.5,0v0c.2,0,.4,-.2,.4,-.4c0,-.2,-.2,-.4,-.4,-.4c-.2,0,-.4,.2,-.4,.4c0,.2,.2,.4,.4,.4m1.6,0v0c.2,0,.3,-.2,.3,-.4c0,-.2,-.1,-.4,-.3,-.4c-.3,0,-.4,.2,-.4,.4c0,.2,.1,.4,.4,.4m1.5,0v0c.2,0,.4,-.2,.4,-.4c0,-.2,-.2,-.4,-.4,-.4c-.2,0,-.4,.2,-.4,.4c0,.2,.2,.4,.4,.4m1.5,0v0c.2,0,.4,-.2,.4,-.4c0,-.2,-.2,-.4,-.4,-.4c-.2,0,-.4,.2,-.4,.4c0,.2,.2,.4,.4,.4m1.6,0v0c.2,0,.3,-.2,.3,-.4c0,-.2,-.1,-.4,-.3,-.4c-.2,0,-.4,.2,-.4,.4c0,.2,.2,.4,.4,.4m1.5,0v0c.2,0,.4,-.2,.4,-.4c0,-.2,-.2,-.4,-.4,-.4c-.2,0,-.4,.2,-.4,.4c0,.2,.2,.4,.4,.4m1.5,0v0c.2,0,.4,-.2,.4,-.4c0,-.2,-.2,-.4,-.4,-.4c-.2,0,-.3,.2,-.3,.4c0,.2,.1,.4,.3,.4m1.6,0v0c.2,0,.4,-.2,.4,-.4c0,-.2,-.2,-.4,-.4,-.4c-.2,0,-.4,.2,-.4,.4c0,.2,.2,.4,.4,.4m1.5,0v0c.2,0,.4,-.2,.4,-.4c0,-.2,-.2,-.4,-.4,-.4c-.2,0,-.4,.2,-.4,.4c0,.2,.2,.4,.4,.4m1.5,0v0c.3,0,.4,-.2,.4,-.4c0,-.2,-.1,-.4,-.4,-.4c-.2,0,-.3,.2,-.3,.4c0,.2,.1,.4,.3,.4m1.6,0v0c.2,0,.4,-.2,.4,-.4c0,-.2,-.2,-.4,-.4,-.4c-.2,0,-.4,.2,-.4,.4c0,.2,.2,.4,.4,.4m1.5,0v0c.2,0,.4,-.2,.4,-.4c0,-.2,-.2,-.4,-.4,-.4c-.2,0,-.4,.2,-.4,.4c0,.2,.2,.4,.4,.4m1.6,0v0c.2,0,.3,-.2,.3,-.4c0,-.2,-.1,-.4,-.3,-.4c-.3,0,-.4,.2,-.4,.4c0,.2,.1,.4,.4,.4m1.5,0v0c.2,0,.4,-.2,.4,-.4c0,-.2,-.2,-.4,-.4,-.4c-.2,0,-.4,.2,-.4,.4c0,.2,.2,.4,.4,.4m1.5,0v0c.2,0,.4,-.2,.4,-.4c0,-.2,-.2,-.4,-.4,-.4c-.2,0,-.4,.2,-.4,.4c0,.2,.2,.4,.4,.4m1.6,0v0c.2,0,.3,-.2,.3,-.4c0,-.2,-.1,-.4,-.3,-.4c-.2,0,-.4,.2,-.4,.4c0,.2,.2,.4,.4,.4m1.5,0v0c.2,0,.4,-.2,.4,-.4c0,-.2,-.2,-.4,-.4,-.4c-.2,0,-.4,.2,-.4,.4c0,.2,.2,.4,.4,.4m1.5,0v0c.3,0,.4,-.2,.4,-.4c0,-.2,-.1,-.4,-.4,-.4c-.2,0,-.3,.2,-.3,.4c0,.2,.1,.4,.3,.4m1.6,0v0c.2,0,.4,-.2,.4,-.4c0,-.2,-.2,-.4,-.4,-.4c-.2,0,-.4,.2,-.4,.4c0,.2,.2,.4,.4,.4m1.5,0v0c.2,0,.4,-.2,.4,-.4c0,-.2,-.2,-.4,-.4,-.4c-.2,0,-.4,.2,-.4,.4c0,.2,.2,.4,.4,.4m1.5,0v0c.3,0,.4,-.2,.4,-.4c0,-.2,-.1,-.4,-.4,-.4c-.2,0,-.3,.2,-.3,.4c0,.2,.1,.4,.3,.4m1.6,0v0c.2,0,.4,-.2,.4,-.4c0,-.2,-.2,-.4,-.4,-.4c-.2,0,-.4,.2,-.4,.4c0,.2,.2,.4,.4,.4m1.5,0v0c.2,0,.4,-.2,.4,-.4c0,-.2,-.2,-.4,-.4,-.4c-.2,0,-.4,.2,-.4,.4c0,.2,.2,.4,.4,.4m1.6,0v0c.2,0,.3,-.2,.3,-.4c0,-.2,-.1,-.4,-.3,-.4c-.3,0,-.4,.2,-.4,.4c0,.2,.1,.4,.4,.4m1.5,0v0c.2,0,.4,-.2,.4,-.4c0,-.2,-.2,-.4,-.4,-.4c-.2,0,-.4,.2,-.4,.4c0,.2,.2,.4,.4,.4m1.5,0v0c.2,0,.4,-.2,.4,-.4c0,-.2,-.2,-.4,-.4,-.4c-.2,0,-.4,.2,-.4,.4c0,.2,.2,.4,.4,.4m1.6,0v0c.2,0,.3,-.2,.3,-.4c0,-.2,-.1,-.4,-.3,-.4c-.2,0,-.4,.2,-.4,.4c0,.2,.2,.4,.4,.4m1.5,0v0c.2,0,.4,-.2,.4,-.4c0,-.2,-.2,-.4,-.4,-.4c-.2,0,-.4,.2,-.4,.4c0,.2,.2,.4,.4,.4m1.5,0v0c.3,0,.4,-.2,.4,-.4c0,-.2,-.1,-.4,-.4,-.4c-.2,0,-.3,.2,-.3,.4c0,.2,.1,.4,.3,.4m1.6,0v0c.2,0,.4,-.2,.4,-.4c0,-.2,-.2,-.4,-.4,-.4c-.2,0,-.4,.2,-.4,.4c0,.2,.2,.4,.4,.4m1.5,0v0c.2,0,.4,-.2,.4,-.4c0,-.2,-.2,-.4,-.4,-.4c-.2,0,-.4,.2,-.4,.4c0,.2,.2,.4,.4,.4Z" class="g5_10"/>
<path d="M255.5,992.6l.3,-.1l.1,-.3l-.1,-.2l-.3,-.2l-.3,.2l-.1,.2l.1,.3Zm52.2,0l.3,-.1l.1,-.3L308,992l-.3,-.2l-.2,.2l-.1,.2l.1,.3Z" class="g5_10"/>
<path d="M39,957.8H255.5v-2.2H39Z" class="g5_10"/>
<path d="M255.5,957.8h52.6v-2.2H255.5Z" class="g5_10"/>
<path d="M40.9,1097.5v0c.2,0,.4,-.2,.4,-.4c0,-.2,-.2,-.4,-.4,-.4c-.2,0,-.4,.2,-.4,.4c0,.2,.2,.4,.4,.4m1.5,0v0c.2,0,.4,-.2,.4,-.4c0,-.2,-.2,-.4,-.4,-.4c-.2,0,-.4,.2,-.4,.4c0,.2,.2,.4,.4,.4m1.6,0v0c.2,0,.3,-.2,.3,-.4c0,-.2,-.1,-.4,-.3,-.4c-.3,0,-.4,.2,-.4,.4c0,.2,.1,.4,.4,.4m1.5,0v0c.2,0,.4,-.2,.4,-.4c0,-.2,-.2,-.4,-.4,-.4c-.2,0,-.4,.2,-.4,.4c0,.2,.2,.4,.4,.4m1.5,0v0c.2,0,.4,-.2,.4,-.4c0,-.2,-.2,-.4,-.4,-.4c-.2,0,-.4,.2,-.4,.4c0,.2,.2,.4,.4,.4m1.6,0v0c.2,0,.3,-.2,.3,-.4c0,-.2,-.1,-.4,-.3,-.4c-.3,0,-.4,.2,-.4,.4c0,.2,.1,.4,.4,.4m1.5,0v0c.2,0,.4,-.2,.4,-.4c0,-.2,-.2,-.4,-.4,-.4c-.2,0,-.4,.2,-.4,.4c0,.2,.2,.4,.4,.4m1.5,0v0c.2,0,.4,-.2,.4,-.4c0,-.2,-.2,-.4,-.4,-.4c-.2,0,-.4,.2,-.4,.4c0,.2,.2,.4,.4,.4m1.6,0v0c.2,0,.3,-.2,.3,-.4c0,-.2,-.1,-.4,-.3,-.4c-.3,0,-.4,.2,-.4,.4c0,.2,.1,.4,.4,.4m1.5,0v0c.2,0,.4,-.2,.4,-.4c0,-.2,-.2,-.4,-.4,-.4c-.2,0,-.4,.2,-.4,.4c0,.2,.2,.4,.4,.4m1.5,0v0c.2,0,.4,-.2,.4,-.4c0,-.2,-.2,-.4,-.4,-.4c-.2,0,-.4,.2,-.4,.4c0,.2,.2,.4,.4,.4m1.6,0v0c.2,0,.3,-.2,.3,-.4c0,-.2,-.1,-.4,-.3,-.4c-.3,0,-.4,.2,-.4,.4c0,.2,.1,.4,.4,.4m1.5,0v0c.2,0,.4,-.2,.4,-.4c0,-.2,-.2,-.4,-.4,-.4c-.2,0,-.4,.2,-.4,.4c0,.2,.2,.4,.4,.4m1.5,0v0c.2,0,.4,-.2,.4,-.4c0,-.2,-.2,-.4,-.4,-.4c-.2,0,-.4,.2,-.4,.4c0,.2,.2,.4,.4,.4m1.6,0v0c.2,0,.3,-.2,.3,-.4c0,-.2,-.1,-.4,-.3,-.4c-.3,0,-.4,.2,-.4,.4c0,.2,.1,.4,.4,.4m1.5,0v0c.2,0,.4,-.2,.4,-.4c0,-.2,-.2,-.4,-.4,-.4c-.2,0,-.4,.2,-.4,.4c0,.2,.2,.4,.4,.4m1.5,0v0c.2,0,.4,-.2,.4,-.4c0,-.2,-.2,-.4,-.4,-.4c-.2,0,-.4,.2,-.4,.4c0,.2,.2,.4,.4,.4m1.6,0v0c.2,0,.3,-.2,.3,-.4c0,-.2,-.1,-.4,-.3,-.4c-.3,0,-.4,.2,-.4,.4c0,.2,.1,.4,.4,.4m1.5,0v0c.2,0,.4,-.2,.4,-.4c0,-.2,-.2,-.4,-.4,-.4c-.2,0,-.4,.2,-.4,.4c0,.2,.2,.4,.4,.4m1.5,0v0c.2,0,.4,-.2,.4,-.4c0,-.2,-.2,-.4,-.4,-.4c-.2,0,-.4,.2,-.4,.4c0,.2,.2,.4,.4,.4m1.6,0v0c.2,0,.3,-.2,.3,-.4c0,-.2,-.1,-.4,-.3,-.4c-.3,0,-.4,.2,-.4,.4c0,.2,.1,.4,.4,.4m1.5,0v0c.2,0,.4,-.2,.4,-.4c0,-.2,-.2,-.4,-.4,-.4c-.2,0,-.4,.2,-.4,.4c0,.2,.2,.4,.4,.4m1.5,0v0c.2,0,.4,-.2,.4,-.4c0,-.2,-.2,-.4,-.4,-.4c-.2,0,-.4,.2,-.4,.4c0,.2,.2,.4,.4,.4m1.6,0v0c.2,0,.3,-.2,.3,-.4c0,-.2,-.1,-.4,-.3,-.4c-.3,0,-.4,.2,-.4,.4c0,.2,.1,.4,.4,.4m1.5,0v0c.2,0,.4,-.2,.4,-.4c0,-.2,-.2,-.4,-.4,-.4c-.2,0,-.4,.2,-.4,.4c0,.2,.2,.4,.4,.4m1.5,0v0c.2,0,.4,-.2,.4,-.4c0,-.2,-.2,-.4,-.4,-.4c-.2,0,-.4,.2,-.4,.4c0,.2,.2,.4,.4,.4m1.5,0v0c.3,0,.4,-.2,.4,-.4c0,-.2,-.1,-.4,-.4,-.4c-.2,0,-.3,.2,-.3,.4c0,.2,.1,.4,.3,.4m1.6,0v0c.2,0,.4,-.2,.4,-.4c0,-.2,-.2,-.4,-.4,-.4c-.2,0,-.4,.2,-.4,.4c0,.2,.2,.4,.4,.4m1.5,0v0c.2,0,.4,-.2,.4,-.4c0,-.2,-.2,-.4,-.4,-.4c-.2,0,-.4,.2,-.4,.4c0,.2,.2,.4,.4,.4m1.5,0v0c.3,0,.4,-.2,.4,-.4c0,-.2,-.1,-.4,-.4,-.4c-.2,0,-.3,.2,-.3,.4c0,.2,.1,.4,.3,.4m1.6,0v0c.2,0,.4,-.2,.4,-.4c0,-.2,-.2,-.4,-.4,-.4c-.2,0,-.4,.2,-.4,.4c0,.2,.2,.4,.4,.4m1.5,0v0c.2,0,.4,-.2,.4,-.4c0,-.2,-.2,-.4,-.4,-.4c-.2,0,-.4,.2,-.4,.4c0,.2,.2,.4,.4,.4m1.5,0v0c.3,0,.4,-.2,.4,-.4c0,-.2,-.1,-.4,-.4,-.4c-.2,0,-.3,.2,-.3,.4c0,.2,.1,.4,.3,.4m1.6,0v0c.2,0,.4,-.2,.4,-.4c0,-.2,-.2,-.4,-.4,-.4c-.2,0,-.4,.2,-.4,.4c0,.2,.2,.4,.4,.4m1.5,0v0c.2,0,.4,-.2,.4,-.4c0,-.2,-.2,-.4,-.4,-.4c-.2,0,-.4,.2,-.4,.4c0,.2,.2,.4,.4,.4m1.5,0v0c.3,0,.4,-.2,.4,-.4c0,-.2,-.1,-.4,-.4,-.4c-.2,0,-.3,.2,-.3,.4c0,.2,.1,.4,.3,.4m1.6,0v0c.2,0,.4,-.2,.4,-.4c0,-.2,-.2,-.4,-.4,-.4c-.2,0,-.4,.2,-.4,.4c0,.2,.2,.4,.4,.4m1.5,0v0c.2,0,.4,-.2,.4,-.4c0,-.2,-.2,-.4,-.4,-.4c-.2,0,-.4,.2,-.4,.4c0,.2,.2,.4,.4,.4m1.5,0v0c.3,0,.4,-.2,.4,-.4c0,-.2,-.1,-.4,-.4,-.4c-.2,0,-.3,.2,-.3,.4c0,.2,.1,.4,.3,.4m1.6,0v0c.2,0,.4,-.2,.4,-.4c0,-.2,-.2,-.4,-.4,-.4c-.2,0,-.4,.2,-.4,.4c0,.2,.2,.4,.4,.4m1.5,0v0c.2,0,.4,-.2,.4,-.4c0,-.2,-.2,-.4,-.4,-.4c-.2,0,-.4,.2,-.4,.4c0,.2,.2,.4,.4,.4m1.5,0v0c.3,0,.4,-.2,.4,-.4c0,-.2,-.1,-.4,-.4,-.4c-.2,0,-.3,.2,-.3,.4c0,.2,.1,.4,.3,.4m1.6,0v0c.2,0,.4,-.2,.4,-.4c0,-.2,-.2,-.4,-.4,-.4c-.2,0,-.4,.2,-.4,.4c0,.2,.2,.4,.4,.4m1.5,0v0c.2,0,.4,-.2,.4,-.4c0,-.2,-.2,-.4,-.4,-.4c-.2,0,-.4,.2,-.4,.4c0,.2,.2,.4,.4,.4m1.5,0v0c.3,0,.4,-.2,.4,-.4c0,-.2,-.1,-.4,-.4,-.4c-.2,0,-.3,.2,-.3,.4c0,.2,.1,.4,.3,.4m1.6,0v0c.2,0,.4,-.2,.4,-.4c0,-.2,-.2,-.4,-.4,-.4c-.2,0,-.4,.2,-.4,.4c0,.2,.2,.4,.4,.4m1.5,0v0c.2,0,.4,-.2,.4,-.4c0,-.2,-.2,-.4,-.4,-.4c-.2,0,-.4,.2,-.4,.4c0,.2,.2,.4,.4,.4m1.5,0v0c.3,0,.4,-.2,.4,-.4c0,-.2,-.1,-.4,-.4,-.4c-.2,0,-.3,.2,-.3,.4c0,.2,.1,.4,.3,.4m1.6,0v0c.2,0,.4,-.2,.4,-.4c0,-.2,-.2,-.4,-.4,-.4c-.2,0,-.4,.2,-.4,.4c0,.2,.2,.4,.4,.4m1.5,0v0c.2,0,.4,-.2,.4,-.4c0,-.2,-.2,-.4,-.4,-.4c-.2,0,-.4,.2,-.4,.4c0,.2,.2,.4,.4,.4m1.5,0v0c.3,0,.4,-.2,.4,-.4c0,-.2,-.1,-.4,-.4,-.4c-.2,0,-.3,.2,-.3,.4c0,.2,.1,.4,.3,.4m1.6,0v0c.2,0,.4,-.2,.4,-.4c0,-.2,-.2,-.4,-.4,-.4c-.2,0,-.4,.2,-.4,.4c0,.2,.2,.4,.4,.4m1.5,0v0c.2,0,.4,-.2,.4,-.4c0,-.2,-.2,-.4,-.4,-.4c-.2,0,-.4,.2,-.4,.4c0,.2,.2,.4,.4,.4m1.5,0v0c.3,0,.4,-.2,.4,-.4c0,-.2,-.1,-.4,-.4,-.4c-.2,0,-.3,.2,-.3,.4c0,.2,.1,.4,.3,.4m1.6,0v0c.2,0,.4,-.2,.4,-.4c0,-.2,-.2,-.4,-.4,-.4c-.2,0,-.4,.2,-.4,.4c0,.2,.2,.4,.4,.4m1.5,0v0c.2,0,.4,-.2,.4,-.4c0,-.2,-.2,-.4,-.4,-.4c-.2,0,-.4,.2,-.4,.4c0,.2,.2,.4,.4,.4m1.5,0v0c.3,0,.4,-.2,.4,-.4c0,-.2,-.1,-.4,-.4,-.4c-.2,0,-.3,.2,-.3,.4c0,.2,.1,.4,.3,.4m1.6,0v0c.2,0,.4,-.2,.4,-.4c0,-.2,-.2,-.4,-.4,-.4c-.2,0,-.4,.2,-.4,.4c0,.2,.2,.4,.4,.4m1.5,0v0c.2,0,.4,-.2,.4,-.4c0,-.2,-.2,-.4,-.4,-.4c-.2,0,-.4,.2,-.4,.4c0,.2,.2,.4,.4,.4m1.5,0v0c.2,0,.4,-.2,.4,-.4c0,-.2,-.2,-.4,-.4,-.4c-.2,0,-.3,.2,-.3,.4c0,.2,.1,.4,.3,.4m1.6,0v0c.2,0,.4,-.2,.4,-.4c0,-.2,-.2,-.4,-.4,-.4c-.2,0,-.4,.2,-.4,.4c0,.2,.2,.4,.4,.4m1.5,0v0c.2,0,.4,-.2,.4,-.4c0,-.2,-.2,-.4,-.4,-.4c-.2,0,-.4,.2,-.4,.4c0,.2,.2,.4,.4,.4m1.5,0v0c.2,0,.4,-.2,.4,-.4c0,-.2,-.2,-.4,-.4,-.4c-.2,0,-.3,.2,-.3,.4c0,.2,.1,.4,.3,.4m1.6,0v0c.2,0,.4,-.2,.4,-.4c0,-.2,-.2,-.4,-.4,-.4c-.2,0,-.4,.2,-.4,.4c0,.2,.2,.4,.4,.4m1.5,0v0c.2,0,.4,-.2,.4,-.4c0,-.2,-.2,-.4,-.4,-.4c-.2,0,-.4,.2,-.4,.4c0,.2,.2,.4,.4,.4m1.5,0v0c.2,0,.4,-.2,.4,-.4c0,-.2,-.2,-.4,-.4,-.4c-.2,0,-.3,.2,-.3,.4c0,.2,.1,.4,.3,.4m1.6,0v0c.2,0,.4,-.2,.4,-.4c0,-.2,-.2,-.4,-.4,-.4c-.2,0,-.4,.2,-.4,.4c0,.2,.2,.4,.4,.4m1.5,0v0c.2,0,.4,-.2,.4,-.4c0,-.2,-.2,-.4,-.4,-.4c-.2,0,-.4,.2,-.4,.4c0,.2,.2,.4,.4,.4m1.5,0v0c.2,0,.4,-.2,.4,-.4c0,-.2,-.2,-.4,-.4,-.4c-.2,0,-.3,.2,-.3,.4c0,.2,.1,.4,.3,.4m1.6,0v0c.2,0,.4,-.2,.4,-.4c0,-.2,-.2,-.4,-.4,-.4c-.2,0,-.4,.2,-.4,.4c0,.2,.2,.4,.4,.4m1.5,0v0c.2,0,.4,-.2,.4,-.4c0,-.2,-.2,-.4,-.4,-.4c-.2,0,-.4,.2,-.4,.4c0,.2,.2,.4,.4,.4m1.5,0v0c.2,0,.4,-.2,.4,-.4c0,-.2,-.2,-.4,-.4,-.4c-.2,0,-.3,.2,-.3,.4c0,.2,.1,.4,.3,.4m1.6,0v0c.2,0,.3,-.2,.3,-.4c0,-.2,-.1,-.4,-.3,-.4c-.2,0,-.4,.2,-.4,.4c0,.2,.2,.4,.4,.4m1.5,0v0c.2,0,.4,-.2,.4,-.4c0,-.2,-.2,-.4,-.4,-.4c-.2,0,-.4,.2,-.4,.4c0,.2,.2,.4,.4,.4m1.5,0v0c.2,0,.4,-.2,.4,-.4c0,-.2,-.2,-.4,-.4,-.4c-.2,0,-.3,.2,-.3,.4c0,.2,.1,.4,.3,.4m1.6,0v0c.2,0,.3,-.2,.3,-.4c0,-.2,-.1,-.4,-.3,-.4c-.2,0,-.4,.2,-.4,.4c0,.2,.2,.4,.4,.4m1.5,0v0c.2,0,.4,-.2,.4,-.4c0,-.2,-.2,-.4,-.4,-.4c-.2,0,-.4,.2,-.4,.4c0,.2,.2,.4,.4,.4m1.5,0v0c.2,0,.4,-.2,.4,-.4c0,-.2,-.2,-.4,-.4,-.4c-.2,0,-.3,.2,-.3,.4c0,.2,.1,.4,.3,.4m1.6,0v0c.2,0,.3,-.2,.3,-.4c0,-.2,-.1,-.4,-.3,-.4c-.2,0,-.4,.2,-.4,.4c0,.2,.2,.4,.4,.4m1.5,0v0c.2,0,.4,-.2,.4,-.4c0,-.2,-.2,-.4,-.4,-.4c-.2,0,-.4,.2,-.4,.4c0,.2,.2,.4,.4,.4m1.5,0v0c.2,0,.4,-.2,.4,-.4c0,-.2,-.2,-.4,-.4,-.4c-.2,0,-.4,.2,-.4,.4c0,.2,.2,.4,.4,.4m1.6,0v0c.2,0,.3,-.2,.3,-.4c0,-.2,-.1,-.4,-.3,-.4c-.2,0,-.4,.2,-.4,.4c0,.2,.2,.4,.4,.4m1.5,0v0c.2,0,.4,-.2,.4,-.4c0,-.2,-.2,-.4,-.4,-.4c-.2,0,-.4,.2,-.4,.4c0,.2,.2,.4,.4,.4m1.5,0v0c.2,0,.4,-.2,.4,-.4c0,-.2,-.2,-.4,-.4,-.4c-.2,0,-.4,.2,-.4,.4c0,.2,.2,.4,.4,.4m1.6,0v0c.2,0,.3,-.2,.3,-.4c0,-.2,-.1,-.4,-.3,-.4c-.2,0,-.4,.2,-.4,.4c0,.2,.2,.4,.4,.4m1.5,0v0c.2,0,.4,-.2,.4,-.4c0,-.2,-.2,-.4,-.4,-.4c-.2,0,-.4,.2,-.4,.4c0,.2,.2,.4,.4,.4m1.5,0v0c.2,0,.4,-.2,.4,-.4c0,-.2,-.2,-.4,-.4,-.4c-.2,0,-.4,.2,-.4,.4c0,.2,.2,.4,.4,.4m1.6,0v0c.2,0,.3,-.2,.3,-.4c0,-.2,-.1,-.4,-.3,-.4c-.2,0,-.4,.2,-.4,.4c0,.2,.2,.4,.4,.4m1.5,0v0c.2,0,.4,-.2,.4,-.4c0,-.2,-.2,-.4,-.4,-.4c-.2,0,-.4,.2,-.4,.4c0,.2,.2,.4,.4,.4m1.5,0v0c.2,0,.4,-.2,.4,-.4c0,-.2,-.2,-.4,-.4,-.4c-.2,0,-.4,.2,-.4,.4c0,.2,.2,.4,.4,.4m1.6,0v0c.2,0,.3,-.2,.3,-.4c0,-.2,-.1,-.4,-.3,-.4c-.2,0,-.4,.2,-.4,.4c0,.2,.2,.4,.4,.4m1.5,0v0c.2,0,.4,-.2,.4,-.4c0,-.2,-.2,-.4,-.4,-.4c-.2,0,-.4,.2,-.4,.4c0,.2,.2,.4,.4,.4m1.5,0v0c.2,0,.4,-.2,.4,-.4c0,-.2,-.2,-.4,-.4,-.4c-.2,0,-.4,.2,-.4,.4c0,.2,.2,.4,.4,.4m1.6,0v0c.2,0,.3,-.2,.3,-.4c0,-.2,-.1,-.4,-.3,-.4c-.3,0,-.4,.2,-.4,.4c0,.2,.1,.4,.4,.4m1.5,0v0c.2,0,.4,-.2,.4,-.4c0,-.2,-.2,-.4,-.4,-.4c-.2,0,-.4,.2,-.4,.4c0,.2,.2,.4,.4,.4m1.5,0v0c.2,0,.4,-.2,.4,-.4c0,-.2,-.2,-.4,-.4,-.4c-.2,0,-.4,.2,-.4,.4c0,.2,.2,.4,.4,.4m1.6,0v0c.2,0,.3,-.2,.3,-.4c0,-.2,-.1,-.4,-.3,-.4c-.3,0,-.4,.2,-.4,.4c0,.2,.1,.4,.4,.4m1.5,0v0c.2,0,.4,-.2,.4,-.4c0,-.2,-.2,-.4,-.4,-.4c-.2,0,-.4,.2,-.4,.4c0,.2,.2,.4,.4,.4m1.5,0v0c.2,0,.4,-.2,.4,-.4c0,-.2,-.2,-.4,-.4,-.4c-.2,0,-.4,.2,-.4,.4c0,.2,.2,.4,.4,.4m1.6,0v0c.2,0,.3,-.2,.3,-.4c0,-.2,-.1,-.4,-.3,-.4c-.3,0,-.4,.2,-.4,.4c0,.2,.1,.4,.4,.4m1.5,0v0c.2,0,.4,-.2,.4,-.4c0,-.2,-.2,-.4,-.4,-.4c-.2,0,-.4,.2,-.4,.4c0,.2,.2,.4,.4,.4m1.5,0v0c.2,0,.4,-.2,.4,-.4c0,-.2,-.2,-.4,-.4,-.4c-.2,0,-.4,.2,-.4,.4c0,.2,.2,.4,.4,.4m1.6,0v0c.2,0,.3,-.2,.3,-.4c0,-.2,-.1,-.4,-.3,-.4c-.3,0,-.4,.2,-.4,.4c0,.2,.1,.4,.4,.4m1.5,0v0c.2,0,.4,-.2,.4,-.4c0,-.2,-.2,-.4,-.4,-.4c-.2,0,-.4,.2,-.4,.4c0,.2,.2,.4,.4,.4m1.5,0v0c.2,0,.4,-.2,.4,-.4c0,-.2,-.2,-.4,-.4,-.4c-.2,0,-.4,.2,-.4,.4c0,.2,.2,.4,.4,.4m1.6,0v0c.2,0,.3,-.2,.3,-.4c0,-.2,-.1,-.4,-.3,-.4c-.3,0,-.4,.2,-.4,.4c0,.2,.1,.4,.4,.4m1.5,0v0c.2,0,.4,-.2,.4,-.4c0,-.2,-.2,-.4,-.4,-.4c-.2,0,-.4,.2,-.4,.4c0,.2,.2,.4,.4,.4m1.5,0v0c.2,0,.4,-.2,.4,-.4c0,-.2,-.2,-.4,-.4,-.4c-.2,0,-.4,.2,-.4,.4c0,.2,.2,.4,.4,.4m1.6,0v0c.2,0,.3,-.2,.3,-.4c0,-.2,-.1,-.4,-.3,-.4c-.3,0,-.4,.2,-.4,.4c0,.2,.1,.4,.4,.4m1.5,0v0c.2,0,.4,-.2,.4,-.4c0,-.2,-.2,-.4,-.4,-.4c-.2,0,-.4,.2,-.4,.4c0,.2,.2,.4,.4,.4m1.5,0v0c.2,0,.4,-.2,.4,-.4c0,-.2,-.2,-.4,-.4,-.4c-.2,0,-.4,.2,-.4,.4c0,.2,.2,.4,.4,.4m1.6,0v0c.2,0,.3,-.2,.3,-.4c0,-.2,-.1,-.4,-.3,-.4c-.3,0,-.4,.2,-.4,.4c0,.2,.1,.4,.4,.4m1.5,0v0c.2,0,.4,-.2,.4,-.4c0,-.2,-.2,-.4,-.4,-.4c-.2,0,-.4,.2,-.4,.4c0,.2,.2,.4,.4,.4m1.5,0v0c.2,0,.4,-.2,.4,-.4c0,-.2,-.2,-.4,-.4,-.4c-.2,0,-.4,.2,-.4,.4c0,.2,.2,.4,.4,.4m1.6,0v0c.2,0,.3,-.2,.3,-.4c0,-.2,-.1,-.4,-.3,-.4c-.3,0,-.4,.2,-.4,.4c0,.2,.1,.4,.4,.4m1.5,0v0c.2,0,.4,-.2,.4,-.4c0,-.2,-.2,-.4,-.4,-.4c-.2,0,-.4,.2,-.4,.4c0,.2,.2,.4,.4,.4m1.5,0v0c.2,0,.4,-.2,.4,-.4c0,-.2,-.2,-.4,-.4,-.4c-.2,0,-.4,.2,-.4,.4c0,.2,.2,.4,.4,.4m1.6,0v0c.2,0,.3,-.2,.3,-.4c0,-.2,-.1,-.4,-.3,-.4c-.3,0,-.4,.2,-.4,.4c0,.2,.1,.4,.4,.4m1.5,0v0c.2,0,.4,-.2,.4,-.4c0,-.2,-.2,-.4,-.4,-.4c-.2,0,-.4,.2,-.4,.4c0,.2,.2,.4,.4,.4m1.5,0v0c.2,0,.4,-.2,.4,-.4c0,-.2,-.2,-.4,-.4,-.4c-.2,0,-.4,.2,-.4,.4c0,.2,.2,.4,.4,.4m1.6,0v0c.2,0,.3,-.2,.3,-.4c0,-.2,-.1,-.4,-.3,-.4c-.3,0,-.4,.2,-.4,.4c0,.2,.1,.4,.4,.4m1.5,0v0c.2,0,.4,-.2,.4,-.4c0,-.2,-.2,-.4,-.4,-.4c-.2,0,-.4,.2,-.4,.4c0,.2,.2,.4,.4,.4m1.5,0v0c.2,0,.4,-.2,.4,-.4c0,-.2,-.2,-.4,-.4,-.4c-.2,0,-.4,.2,-.4,.4c0,.2,.2,.4,.4,.4m1.5,0v0c.3,0,.4,-.2,.4,-.4c0,-.2,-.1,-.4,-.4,-.4c-.2,0,-.3,.2,-.3,.4c0,.2,.1,.4,.3,.4m1.6,0v0c.2,0,.4,-.2,.4,-.4c0,-.2,-.2,-.4,-.4,-.4c-.2,0,-.4,.2,-.4,.4c0,.2,.2,.4,.4,.4m1.5,0v0c.2,0,.4,-.2,.4,-.4c0,-.2,-.2,-.4,-.4,-.4c-.2,0,-.4,.2,-.4,.4c0,.2,.2,.4,.4,.4m1.5,0v0c.3,0,.4,-.2,.4,-.4c0,-.2,-.1,-.4,-.4,-.4c-.2,0,-.3,.2,-.3,.4c0,.2,.1,.4,.3,.4m1.6,0v0c.2,0,.4,-.2,.4,-.4c0,-.2,-.2,-.4,-.4,-.4c-.2,0,-.4,.2,-.4,.4c0,.2,.2,.4,.4,.4m1.5,0v0c.2,0,.4,-.2,.4,-.4c0,-.2,-.2,-.4,-.4,-.4c-.2,0,-.4,.2,-.4,.4c0,.2,.2,.4,.4,.4m1.5,0v0c.3,0,.4,-.2,.4,-.4c0,-.2,-.1,-.4,-.4,-.4c-.2,0,-.3,.2,-.3,.4c0,.2,.1,.4,.3,.4m1.6,0v0c.2,0,.4,-.2,.4,-.4c0,-.2,-.2,-.4,-.4,-.4c-.2,0,-.4,.2,-.4,.4c0,.2,.2,.4,.4,.4m1.5,0v0c.2,0,.4,-.2,.4,-.4c0,-.2,-.2,-.4,-.4,-.4c-.2,0,-.4,.2,-.4,.4c0,.2,.2,.4,.4,.4m1.5,0v0c.3,0,.4,-.2,.4,-.4c0,-.2,-.1,-.4,-.4,-.4c-.2,0,-.3,.2,-.3,.4c0,.2,.1,.4,.3,.4m1.6,0v0c.2,0,.4,-.2,.4,-.4c0,-.2,-.2,-.4,-.4,-.4c-.2,0,-.4,.2,-.4,.4c0,.2,.2,.4,.4,.4m1.5,0v0c.2,0,.4,-.2,.4,-.4c0,-.2,-.2,-.4,-.4,-.4c-.2,0,-.4,.2,-.4,.4c0,.2,.2,.4,.4,.4m1.5,0v0c.3,0,.4,-.2,.4,-.4c0,-.2,-.1,-.4,-.4,-.4c-.2,0,-.3,.2,-.3,.4c0,.2,.1,.4,.3,.4m1.6,0v0c.2,0,.4,-.2,.4,-.4c0,-.2,-.2,-.4,-.4,-.4c-.2,0,-.4,.2,-.4,.4c0,.2,.2,.4,.4,.4m1.5,0v0c.2,0,.4,-.2,.4,-.4c0,-.2,-.2,-.4,-.4,-.4c-.2,0,-.4,.2,-.4,.4c0,.2,.2,.4,.4,.4m1.5,0v0c.3,0,.4,-.2,.4,-.4c0,-.2,-.1,-.4,-.4,-.4c-.2,0,-.3,.2,-.3,.4c0,.2,.1,.4,.3,.4m1.6,0v0c.2,0,.4,-.2,.4,-.4c0,-.2,-.2,-.4,-.4,-.4c-.2,0,-.4,.2,-.4,.4c0,.2,.2,.4,.4,.4Z" class="g5_10"/>
<path d="M39.4,1097.5l.2,-.2l.1,-.2l-.1,-.3l-.2,-.1l-.3,.1l-.1,.3l.1,.2Zm216.1,0l.3,-.2l.1,-.2l-.1,-.3l-.3,-.1l-.3,.1l-.1,.3l.1,.2Z" class="g5_10"/>
<path d="M257,1097.5v0c.3,0,.4,-.2,.4,-.4c0,-.2,-.1,-.4,-.4,-.4c-.2,0,-.3,.2,-.3,.4c0,.2,.1,.4,.3,.4m1.6,0v0c.2,0,.4,-.2,.4,-.4c0,-.2,-.2,-.4,-.4,-.4c-.2,0,-.4,.2,-.4,.4c0,.2,.2,.4,.4,.4m1.5,0v0c.2,0,.4,-.2,.4,-.4c0,-.2,-.2,-.4,-.4,-.4c-.2,0,-.4,.2,-.4,.4c0,.2,.2,.4,.4,.4m1.6,0v0c.2,0,.3,-.2,.3,-.4c0,-.2,-.1,-.4,-.3,-.4c-.3,0,-.4,.2,-.4,.4c0,.2,.1,.4,.4,.4m1.5,0v0c.2,0,.4,-.2,.4,-.4c0,-.2,-.2,-.4,-.4,-.4c-.2,0,-.4,.2,-.4,.4c0,.2,.2,.4,.4,.4m1.5,0v0c.2,0,.4,-.2,.4,-.4c0,-.2,-.2,-.4,-.4,-.4c-.2,0,-.4,.2,-.4,.4c0,.2,.2,.4,.4,.4m1.6,0v0c.2,0,.3,-.2,.3,-.4c0,-.2,-.1,-.4,-.3,-.4c-.2,0,-.4,.2,-.4,.4c0,.2,.2,.4,.4,.4m1.5,0v0c.2,0,.4,-.2,.4,-.4c0,-.2,-.2,-.4,-.4,-.4c-.2,0,-.4,.2,-.4,.4c0,.2,.2,.4,.4,.4m1.5,0v0c.2,0,.4,-.2,.4,-.4c0,-.2,-.2,-.4,-.4,-.4c-.2,0,-.3,.2,-.3,.4c0,.2,.1,.4,.3,.4m1.6,0v0c.2,0,.4,-.2,.4,-.4c0,-.2,-.2,-.4,-.4,-.4c-.2,0,-.4,.2,-.4,.4c0,.2,.2,.4,.4,.4m1.5,0v0c.2,0,.4,-.2,.4,-.4c0,-.2,-.2,-.4,-.4,-.4c-.2,0,-.4,.2,-.4,.4c0,.2,.2,.4,.4,.4m1.5,0v0c.3,0,.4,-.2,.4,-.4c0,-.2,-.1,-.4,-.4,-.4c-.2,0,-.3,.2,-.3,.4c0,.2,.1,.4,.3,.4m1.6,0v0c.2,0,.4,-.2,.4,-.4c0,-.2,-.2,-.4,-.4,-.4c-.2,0,-.4,.2,-.4,.4c0,.2,.2,.4,.4,.4m1.5,0v0c.2,0,.4,-.2,.4,-.4c0,-.2,-.2,-.4,-.4,-.4c-.2,0,-.4,.2,-.4,.4c0,.2,.2,.4,.4,.4m1.6,0v0c.2,0,.3,-.2,.3,-.4c0,-.2,-.1,-.4,-.3,-.4c-.3,0,-.4,.2,-.4,.4c0,.2,.1,.4,.4,.4m1.5,0v0c.2,0,.4,-.2,.4,-.4c0,-.2,-.2,-.4,-.4,-.4c-.2,0,-.4,.2,-.4,.4c0,.2,.2,.4,.4,.4m1.5,0v0c.2,0,.4,-.2,.4,-.4c0,-.2,-.2,-.4,-.4,-.4c-.2,0,-.4,.2,-.4,.4c0,.2,.2,.4,.4,.4m1.6,0v0c.2,0,.3,-.2,.3,-.4c0,-.2,-.1,-.4,-.3,-.4c-.2,0,-.4,.2,-.4,.4c0,.2,.2,.4,.4,.4m1.5,0v0c.2,0,.4,-.2,.4,-.4c0,-.2,-.2,-.4,-.4,-.4c-.2,0,-.4,.2,-.4,.4c0,.2,.2,.4,.4,.4m1.5,0v0c.3,0,.4,-.2,.4,-.4c0,-.2,-.1,-.4,-.4,-.4c-.2,0,-.3,.2,-.3,.4c0,.2,.1,.4,.3,.4m1.6,0v0c.2,0,.4,-.2,.4,-.4c0,-.2,-.2,-.4,-.4,-.4c-.2,0,-.4,.2,-.4,.4c0,.2,.2,.4,.4,.4m1.5,0v0c.2,0,.4,-.2,.4,-.4c0,-.2,-.2,-.4,-.4,-.4c-.2,0,-.4,.2,-.4,.4c0,.2,.2,.4,.4,.4m1.5,0v0c.3,0,.4,-.2,.4,-.4c0,-.2,-.1,-.4,-.4,-.4c-.2,0,-.3,.2,-.3,.4c0,.2,.1,.4,.3,.4m1.6,0v0c.2,0,.4,-.2,.4,-.4c0,-.2,-.2,-.4,-.4,-.4c-.2,0,-.4,.2,-.4,.4c0,.2,.2,.4,.4,.4m1.5,0v0c.2,0,.4,-.2,.4,-.4c0,-.2,-.2,-.4,-.4,-.4c-.2,0,-.4,.2,-.4,.4c0,.2,.2,.4,.4,.4m1.6,0v0c.2,0,.3,-.2,.3,-.4c0,-.2,-.1,-.4,-.3,-.4c-.3,0,-.4,.2,-.4,.4c0,.2,.1,.4,.4,.4m1.5,0v0c.2,0,.4,-.2,.4,-.4c0,-.2,-.2,-.4,-.4,-.4c-.2,0,-.4,.2,-.4,.4c0,.2,.2,.4,.4,.4m1.5,0v0c.2,0,.4,-.2,.4,-.4c0,-.2,-.2,-.4,-.4,-.4c-.2,0,-.4,.2,-.4,.4c0,.2,.2,.4,.4,.4m1.6,0v0c.2,0,.3,-.2,.3,-.4c0,-.2,-.1,-.4,-.3,-.4c-.2,0,-.4,.2,-.4,.4c0,.2,.2,.4,.4,.4m1.5,0v0c.2,0,.4,-.2,.4,-.4c0,-.2,-.2,-.4,-.4,-.4c-.2,0,-.4,.2,-.4,.4c0,.2,.2,.4,.4,.4m1.5,0v0c.3,0,.4,-.2,.4,-.4c0,-.2,-.1,-.4,-.4,-.4c-.2,0,-.3,.2,-.3,.4c0,.2,.1,.4,.3,.4m1.6,0v0c.2,0,.4,-.2,.4,-.4c0,-.2,-.2,-.4,-.4,-.4c-.2,0,-.4,.2,-.4,.4c0,.2,.2,.4,.4,.4m1.5,0v0c.2,0,.4,-.2,.4,-.4c0,-.2,-.2,-.4,-.4,-.4c-.2,0,-.4,.2,-.4,.4c0,.2,.2,.4,.4,.4Z" class="g5_10"/>
<path d="M255.5,1097.5l.3,-.2l.1,-.2l-.1,-.3l-.3,-.1l-.3,.1l-.1,.3l.1,.2Zm52.2,0l.3,-.2l.1,-.2l-.1,-.3l-.3,-.1l-.2,.1l-.1,.3l.1,.2Z" class="g5_10"/>
<path d="M40.9,1061.9v0c.2,0,.4,-.1,.4,-.4c0,-.2,-.2,-.3,-.4,-.3c-.2,0,-.4,.1,-.4,.3c0,.3,.2,.4,.4,.4m1.5,0v0c.2,0,.4,-.1,.4,-.4c0,-.2,-.2,-.3,-.4,-.3c-.2,0,-.4,.1,-.4,.3c0,.3,.2,.4,.4,.4m1.6,0v0c.2,0,.3,-.1,.3,-.4c0,-.2,-.1,-.3,-.3,-.3c-.3,0,-.4,.1,-.4,.3c0,.3,.1,.4,.4,.4m1.5,0v0c.2,0,.4,-.1,.4,-.4c0,-.2,-.2,-.3,-.4,-.3c-.2,0,-.4,.1,-.4,.3c0,.3,.2,.4,.4,.4m1.5,0v0c.2,0,.4,-.1,.4,-.4c0,-.2,-.2,-.3,-.4,-.3c-.2,0,-.4,.1,-.4,.3c0,.3,.2,.4,.4,.4m1.6,0v0c.2,0,.3,-.1,.3,-.4c0,-.2,-.1,-.3,-.3,-.3c-.3,0,-.4,.1,-.4,.3c0,.3,.1,.4,.4,.4m1.5,0v0c.2,0,.4,-.1,.4,-.4c0,-.2,-.2,-.3,-.4,-.3c-.2,0,-.4,.1,-.4,.3c0,.3,.2,.4,.4,.4m1.5,0v0c.2,0,.4,-.1,.4,-.4c0,-.2,-.2,-.3,-.4,-.3c-.2,0,-.4,.1,-.4,.3c0,.3,.2,.4,.4,.4m1.6,0v0c.2,0,.3,-.1,.3,-.4c0,-.2,-.1,-.3,-.3,-.3c-.3,0,-.4,.1,-.4,.3c0,.3,.1,.4,.4,.4m1.5,0v0c.2,0,.4,-.1,.4,-.4c0,-.2,-.2,-.3,-.4,-.3c-.2,0,-.4,.1,-.4,.3c0,.3,.2,.4,.4,.4m1.5,0v0c.2,0,.4,-.1,.4,-.4c0,-.2,-.2,-.3,-.4,-.3c-.2,0,-.4,.1,-.4,.3c0,.3,.2,.4,.4,.4m1.6,0v0c.2,0,.3,-.1,.3,-.4c0,-.2,-.1,-.3,-.3,-.3c-.3,0,-.4,.1,-.4,.3c0,.3,.1,.4,.4,.4m1.5,0v0c.2,0,.4,-.1,.4,-.4c0,-.2,-.2,-.3,-.4,-.3c-.2,0,-.4,.1,-.4,.3c0,.3,.2,.4,.4,.4m1.5,0v0c.2,0,.4,-.1,.4,-.4c0,-.2,-.2,-.3,-.4,-.3c-.2,0,-.4,.1,-.4,.3c0,.3,.2,.4,.4,.4m1.6,0v0c.2,0,.3,-.1,.3,-.4c0,-.2,-.1,-.3,-.3,-.3c-.3,0,-.4,.1,-.4,.3c0,.3,.1,.4,.4,.4m1.5,0v0c.2,0,.4,-.1,.4,-.4c0,-.2,-.2,-.3,-.4,-.3c-.2,0,-.4,.1,-.4,.3c0,.3,.2,.4,.4,.4m1.5,0v0c.2,0,.4,-.1,.4,-.4c0,-.2,-.2,-.3,-.4,-.3c-.2,0,-.4,.1,-.4,.3c0,.3,.2,.4,.4,.4m1.6,0v0c.2,0,.3,-.1,.3,-.4c0,-.2,-.1,-.3,-.3,-.3c-.3,0,-.4,.1,-.4,.3c0,.3,.1,.4,.4,.4m1.5,0v0c.2,0,.4,-.1,.4,-.4c0,-.2,-.2,-.3,-.4,-.3c-.2,0,-.4,.1,-.4,.3c0,.3,.2,.4,.4,.4m1.5,0v0c.2,0,.4,-.1,.4,-.4c0,-.2,-.2,-.3,-.4,-.3c-.2,0,-.4,.1,-.4,.3c0,.3,.2,.4,.4,.4m1.6,0v0c.2,0,.3,-.1,.3,-.4c0,-.2,-.1,-.3,-.3,-.3c-.3,0,-.4,.1,-.4,.3c0,.3,.1,.4,.4,.4m1.5,0v0c.2,0,.4,-.1,.4,-.4c0,-.2,-.2,-.3,-.4,-.3c-.2,0,-.4,.1,-.4,.3c0,.3,.2,.4,.4,.4m1.5,0v0c.2,0,.4,-.1,.4,-.4c0,-.2,-.2,-.3,-.4,-.3c-.2,0,-.4,.1,-.4,.3c0,.3,.2,.4,.4,.4m1.6,0v0c.2,0,.3,-.1,.3,-.4c0,-.2,-.1,-.3,-.3,-.3c-.3,0,-.4,.1,-.4,.3c0,.3,.1,.4,.4,.4m1.5,0v0c.2,0,.4,-.1,.4,-.4c0,-.2,-.2,-.3,-.4,-.3c-.2,0,-.4,.1,-.4,.3c0,.3,.2,.4,.4,.4m1.5,0v0c.2,0,.4,-.1,.4,-.4c0,-.2,-.2,-.3,-.4,-.3c-.2,0,-.4,.1,-.4,.3c0,.3,.2,.4,.4,.4m1.5,0v0c.3,0,.4,-.1,.4,-.4c0,-.2,-.1,-.3,-.4,-.3c-.2,0,-.3,.1,-.3,.3c0,.3,.1,.4,.3,.4m1.6,0v0c.2,0,.4,-.1,.4,-.4c0,-.2,-.2,-.3,-.4,-.3c-.2,0,-.4,.1,-.4,.3c0,.3,.2,.4,.4,.4m1.5,0v0c.2,0,.4,-.1,.4,-.4c0,-.2,-.2,-.3,-.4,-.3c-.2,0,-.4,.1,-.4,.3c0,.3,.2,.4,.4,.4m1.5,0v0c.3,0,.4,-.1,.4,-.4c0,-.2,-.1,-.3,-.4,-.3c-.2,0,-.3,.1,-.3,.3c0,.3,.1,.4,.3,.4m1.6,0v0c.2,0,.4,-.1,.4,-.4c0,-.2,-.2,-.3,-.4,-.3c-.2,0,-.4,.1,-.4,.3c0,.3,.2,.4,.4,.4m1.5,0v0c.2,0,.4,-.1,.4,-.4c0,-.2,-.2,-.3,-.4,-.3c-.2,0,-.4,.1,-.4,.3c0,.3,.2,.4,.4,.4m1.5,0v0c.3,0,.4,-.1,.4,-.4c0,-.2,-.1,-.3,-.4,-.3c-.2,0,-.3,.1,-.3,.3c0,.3,.1,.4,.3,.4m1.6,0v0c.2,0,.4,-.1,.4,-.4c0,-.2,-.2,-.3,-.4,-.3c-.2,0,-.4,.1,-.4,.3c0,.3,.2,.4,.4,.4m1.5,0v0c.2,0,.4,-.1,.4,-.4c0,-.2,-.2,-.3,-.4,-.3c-.2,0,-.4,.1,-.4,.3c0,.3,.2,.4,.4,.4m1.5,0v0c.3,0,.4,-.1,.4,-.4c0,-.2,-.1,-.3,-.4,-.3c-.2,0,-.3,.1,-.3,.3c0,.3,.1,.4,.3,.4m1.6,0v0c.2,0,.4,-.1,.4,-.4c0,-.2,-.2,-.3,-.4,-.3c-.2,0,-.4,.1,-.4,.3c0,.3,.2,.4,.4,.4m1.5,0v0c.2,0,.4,-.1,.4,-.4c0,-.2,-.2,-.3,-.4,-.3c-.2,0,-.4,.1,-.4,.3c0,.3,.2,.4,.4,.4m1.5,0v0c.3,0,.4,-.1,.4,-.4c0,-.2,-.1,-.3,-.4,-.3c-.2,0,-.3,.1,-.3,.3c0,.3,.1,.4,.3,.4m1.6,0v0c.2,0,.4,-.1,.4,-.4c0,-.2,-.2,-.3,-.4,-.3c-.2,0,-.4,.1,-.4,.3c0,.3,.2,.4,.4,.4m1.5,0v0c.2,0,.4,-.1,.4,-.4c0,-.2,-.2,-.3,-.4,-.3c-.2,0,-.4,.1,-.4,.3c0,.3,.2,.4,.4,.4m1.5,0v0c.3,0,.4,-.1,.4,-.4c0,-.2,-.1,-.3,-.4,-.3c-.2,0,-.3,.1,-.3,.3c0,.3,.1,.4,.3,.4m1.6,0v0c.2,0,.4,-.1,.4,-.4c0,-.2,-.2,-.3,-.4,-.3c-.2,0,-.4,.1,-.4,.3c0,.3,.2,.4,.4,.4m1.5,0v0c.2,0,.4,-.1,.4,-.4c0,-.2,-.2,-.3,-.4,-.3c-.2,0,-.4,.1,-.4,.3c0,.3,.2,.4,.4,.4m1.5,0v0c.3,0,.4,-.1,.4,-.4c0,-.2,-.1,-.3,-.4,-.3c-.2,0,-.3,.1,-.3,.3c0,.3,.1,.4,.3,.4m1.6,0v0c.2,0,.4,-.1,.4,-.4c0,-.2,-.2,-.3,-.4,-.3c-.2,0,-.4,.1,-.4,.3c0,.3,.2,.4,.4,.4m1.5,0v0c.2,0,.4,-.1,.4,-.4c0,-.2,-.2,-.3,-.4,-.3c-.2,0,-.4,.1,-.4,.3c0,.3,.2,.4,.4,.4m1.5,0v0c.3,0,.4,-.1,.4,-.4c0,-.2,-.1,-.3,-.4,-.3c-.2,0,-.3,.1,-.3,.3c0,.3,.1,.4,.3,.4m1.6,0v0c.2,0,.4,-.1,.4,-.4c0,-.2,-.2,-.3,-.4,-.3c-.2,0,-.4,.1,-.4,.3c0,.3,.2,.4,.4,.4m1.5,0v0c.2,0,.4,-.1,.4,-.4c0,-.2,-.2,-.3,-.4,-.3c-.2,0,-.4,.1,-.4,.3c0,.3,.2,.4,.4,.4m1.5,0v0c.3,0,.4,-.1,.4,-.4c0,-.2,-.1,-.3,-.4,-.3c-.2,0,-.3,.1,-.3,.3c0,.3,.1,.4,.3,.4m1.6,0v0c.2,0,.4,-.1,.4,-.4c0,-.2,-.2,-.3,-.4,-.3c-.2,0,-.4,.1,-.4,.3c0,.3,.2,.4,.4,.4m1.5,0v0c.2,0,.4,-.1,.4,-.4c0,-.2,-.2,-.3,-.4,-.3c-.2,0,-.4,.1,-.4,.3c0,.3,.2,.4,.4,.4m1.5,0v0c.3,0,.4,-.1,.4,-.4c0,-.2,-.1,-.3,-.4,-.3c-.2,0,-.3,.1,-.3,.3c0,.3,.1,.4,.3,.4m1.6,0v0c.2,0,.4,-.1,.4,-.4c0,-.2,-.2,-.3,-.4,-.3c-.2,0,-.4,.1,-.4,.3c0,.3,.2,.4,.4,.4m1.5,0v0c.2,0,.4,-.1,.4,-.4c0,-.2,-.2,-.3,-.4,-.3c-.2,0,-.4,.1,-.4,.3c0,.3,.2,.4,.4,.4m1.5,0v0c.3,0,.4,-.1,.4,-.4c0,-.2,-.1,-.3,-.4,-.3c-.2,0,-.3,.1,-.3,.3c0,.3,.1,.4,.3,.4m1.6,0v0c.2,0,.4,-.1,.4,-.4c0,-.2,-.2,-.3,-.4,-.3c-.2,0,-.4,.1,-.4,.3c0,.3,.2,.4,.4,.4m1.5,0v0c.2,0,.4,-.1,.4,-.4c0,-.2,-.2,-.3,-.4,-.3c-.2,0,-.4,.1,-.4,.3c0,.3,.2,.4,.4,.4m1.5,0v0c.2,0,.4,-.1,.4,-.4c0,-.2,-.2,-.3,-.4,-.3c-.2,0,-.3,.1,-.3,.3c0,.3,.1,.4,.3,.4m1.6,0v0c.2,0,.4,-.1,.4,-.4c0,-.2,-.2,-.3,-.4,-.3c-.2,0,-.4,.1,-.4,.3c0,.3,.2,.4,.4,.4m1.5,0v0c.2,0,.4,-.1,.4,-.4c0,-.2,-.2,-.3,-.4,-.3c-.2,0,-.4,.1,-.4,.3c0,.3,.2,.4,.4,.4m1.5,0v0c.2,0,.4,-.1,.4,-.4c0,-.2,-.2,-.3,-.4,-.3c-.2,0,-.3,.1,-.3,.3c0,.3,.1,.4,.3,.4m1.6,0v0c.2,0,.4,-.1,.4,-.4c0,-.2,-.2,-.3,-.4,-.3c-.2,0,-.4,.1,-.4,.3c0,.3,.2,.4,.4,.4m1.5,0v0c.2,0,.4,-.1,.4,-.4c0,-.2,-.2,-.3,-.4,-.3c-.2,0,-.4,.1,-.4,.3c0,.3,.2,.4,.4,.4m1.5,0v0c.2,0,.4,-.1,.4,-.4c0,-.2,-.2,-.3,-.4,-.3c-.2,0,-.3,.1,-.3,.3c0,.3,.1,.4,.3,.4m1.6,0v0c.2,0,.4,-.1,.4,-.4c0,-.2,-.2,-.3,-.4,-.3c-.2,0,-.4,.1,-.4,.3c0,.3,.2,.4,.4,.4m1.5,0v0c.2,0,.4,-.1,.4,-.4c0,-.2,-.2,-.3,-.4,-.3c-.2,0,-.4,.1,-.4,.3c0,.3,.2,.4,.4,.4m1.5,0v0c.2,0,.4,-.1,.4,-.4c0,-.2,-.2,-.3,-.4,-.3c-.2,0,-.3,.1,-.3,.3c0,.3,.1,.4,.3,.4m1.6,0v0c.2,0,.4,-.1,.4,-.4c0,-.2,-.2,-.3,-.4,-.3c-.2,0,-.4,.1,-.4,.3c0,.3,.2,.4,.4,.4m1.5,0v0c.2,0,.4,-.1,.4,-.4c0,-.2,-.2,-.3,-.4,-.3c-.2,0,-.4,.1,-.4,.3c0,.3,.2,.4,.4,.4m1.5,0v0c.2,0,.4,-.1,.4,-.4c0,-.2,-.2,-.3,-.4,-.3c-.2,0,-.3,.1,-.3,.3c0,.3,.1,.4,.3,.4m1.6,0v0c.2,0,.3,-.1,.3,-.4c0,-.2,-.1,-.3,-.3,-.3c-.2,0,-.4,.1,-.4,.3c0,.3,.2,.4,.4,.4m1.5,0v0c.2,0,.4,-.1,.4,-.4c0,-.2,-.2,-.3,-.4,-.3c-.2,0,-.4,.1,-.4,.3c0,.3,.2,.4,.4,.4m1.5,0v0c.2,0,.4,-.1,.4,-.4c0,-.2,-.2,-.3,-.4,-.3c-.2,0,-.3,.1,-.3,.3c0,.3,.1,.4,.3,.4m1.6,0v0c.2,0,.3,-.1,.3,-.4c0,-.2,-.1,-.3,-.3,-.3c-.2,0,-.4,.1,-.4,.3c0,.3,.2,.4,.4,.4m1.5,0v0c.2,0,.4,-.1,.4,-.4c0,-.2,-.2,-.3,-.4,-.3c-.2,0,-.4,.1,-.4,.3c0,.3,.2,.4,.4,.4m1.5,0v0c.2,0,.4,-.1,.4,-.4c0,-.2,-.2,-.3,-.4,-.3c-.2,0,-.3,.1,-.3,.3c0,.3,.1,.4,.3,.4m1.6,0v0c.2,0,.3,-.1,.3,-.4c0,-.2,-.1,-.3,-.3,-.3c-.2,0,-.4,.1,-.4,.3c0,.3,.2,.4,.4,.4m1.5,0v0c.2,0,.4,-.1,.4,-.4c0,-.2,-.2,-.3,-.4,-.3c-.2,0,-.4,.1,-.4,.3c0,.3,.2,.4,.4,.4m1.5,0v0c.2,0,.4,-.1,.4,-.4c0,-.2,-.2,-.3,-.4,-.3c-.2,0,-.4,.1,-.4,.3c0,.3,.2,.4,.4,.4m1.6,0v0c.2,0,.3,-.1,.3,-.4c0,-.2,-.1,-.3,-.3,-.3c-.2,0,-.4,.1,-.4,.3c0,.3,.2,.4,.4,.4m1.5,0v0c.2,0,.4,-.1,.4,-.4c0,-.2,-.2,-.3,-.4,-.3c-.2,0,-.4,.1,-.4,.3c0,.3,.2,.4,.4,.4m1.5,0v0c.2,0,.4,-.1,.4,-.4c0,-.2,-.2,-.3,-.4,-.3c-.2,0,-.4,.1,-.4,.3c0,.3,.2,.4,.4,.4m1.6,0v0c.2,0,.3,-.1,.3,-.4c0,-.2,-.1,-.3,-.3,-.3c-.2,0,-.4,.1,-.4,.3c0,.3,.2,.4,.4,.4m1.5,0v0c.2,0,.4,-.1,.4,-.4c0,-.2,-.2,-.3,-.4,-.3c-.2,0,-.4,.1,-.4,.3c0,.3,.2,.4,.4,.4m1.5,0v0c.2,0,.4,-.1,.4,-.4c0,-.2,-.2,-.3,-.4,-.3c-.2,0,-.4,.1,-.4,.3c0,.3,.2,.4,.4,.4m1.6,0v0c.2,0,.3,-.1,.3,-.4c0,-.2,-.1,-.3,-.3,-.3c-.2,0,-.4,.1,-.4,.3c0,.3,.2,.4,.4,.4m1.5,0v0c.2,0,.4,-.1,.4,-.4c0,-.2,-.2,-.3,-.4,-.3c-.2,0,-.4,.1,-.4,.3c0,.3,.2,.4,.4,.4m1.5,0v0c.2,0,.4,-.1,.4,-.4c0,-.2,-.2,-.3,-.4,-.3c-.2,0,-.4,.1,-.4,.3c0,.3,.2,.4,.4,.4m1.6,0v0c.2,0,.3,-.1,.3,-.4c0,-.2,-.1,-.3,-.3,-.3c-.2,0,-.4,.1,-.4,.3c0,.3,.2,.4,.4,.4m1.5,0v0c.2,0,.4,-.1,.4,-.4c0,-.2,-.2,-.3,-.4,-.3c-.2,0,-.4,.1,-.4,.3c0,.3,.2,.4,.4,.4m1.5,0v0c.2,0,.4,-.1,.4,-.4c0,-.2,-.2,-.3,-.4,-.3c-.2,0,-.4,.1,-.4,.3c0,.3,.2,.4,.4,.4m1.6,0v0c.2,0,.3,-.1,.3,-.4c0,-.2,-.1,-.3,-.3,-.3c-.3,0,-.4,.1,-.4,.3c0,.3,.1,.4,.4,.4m1.5,0v0c.2,0,.4,-.1,.4,-.4c0,-.2,-.2,-.3,-.4,-.3c-.2,0,-.4,.1,-.4,.3c0,.3,.2,.4,.4,.4m1.5,0v0c.2,0,.4,-.1,.4,-.4c0,-.2,-.2,-.3,-.4,-.3c-.2,0,-.4,.1,-.4,.3c0,.3,.2,.4,.4,.4m1.6,0v0c.2,0,.3,-.1,.3,-.4c0,-.2,-.1,-.3,-.3,-.3c-.3,0,-.4,.1,-.4,.3c0,.3,.1,.4,.4,.4m1.5,0v0c.2,0,.4,-.1,.4,-.4c0,-.2,-.2,-.3,-.4,-.3c-.2,0,-.4,.1,-.4,.3c0,.3,.2,.4,.4,.4m1.5,0v0c.2,0,.4,-.1,.4,-.4c0,-.2,-.2,-.3,-.4,-.3c-.2,0,-.4,.1,-.4,.3c0,.3,.2,.4,.4,.4m1.6,0v0c.2,0,.3,-.1,.3,-.4c0,-.2,-.1,-.3,-.3,-.3c-.3,0,-.4,.1,-.4,.3c0,.3,.1,.4,.4,.4m1.5,0v0c.2,0,.4,-.1,.4,-.4c0,-.2,-.2,-.3,-.4,-.3c-.2,0,-.4,.1,-.4,.3c0,.3,.2,.4,.4,.4m1.5,0v0c.2,0,.4,-.1,.4,-.4c0,-.2,-.2,-.3,-.4,-.3c-.2,0,-.4,.1,-.4,.3c0,.3,.2,.4,.4,.4m1.6,0v0c.2,0,.3,-.1,.3,-.4c0,-.2,-.1,-.3,-.3,-.3c-.3,0,-.4,.1,-.4,.3c0,.3,.1,.4,.4,.4m1.5,0v0c.2,0,.4,-.1,.4,-.4c0,-.2,-.2,-.3,-.4,-.3c-.2,0,-.4,.1,-.4,.3c0,.3,.2,.4,.4,.4m1.5,0v0c.2,0,.4,-.1,.4,-.4c0,-.2,-.2,-.3,-.4,-.3c-.2,0,-.4,.1,-.4,.3c0,.3,.2,.4,.4,.4m1.6,0v0c.2,0,.3,-.1,.3,-.4c0,-.2,-.1,-.3,-.3,-.3c-.3,0,-.4,.1,-.4,.3c0,.3,.1,.4,.4,.4m1.5,0v0c.2,0,.4,-.1,.4,-.4c0,-.2,-.2,-.3,-.4,-.3c-.2,0,-.4,.1,-.4,.3c0,.3,.2,.4,.4,.4m1.5,0v0c.2,0,.4,-.1,.4,-.4c0,-.2,-.2,-.3,-.4,-.3c-.2,0,-.4,.1,-.4,.3c0,.3,.2,.4,.4,.4m1.6,0v0c.2,0,.3,-.1,.3,-.4c0,-.2,-.1,-.3,-.3,-.3c-.3,0,-.4,.1,-.4,.3c0,.3,.1,.4,.4,.4m1.5,0v0c.2,0,.4,-.1,.4,-.4c0,-.2,-.2,-.3,-.4,-.3c-.2,0,-.4,.1,-.4,.3c0,.3,.2,.4,.4,.4m1.5,0v0c.2,0,.4,-.1,.4,-.4c0,-.2,-.2,-.3,-.4,-.3c-.2,0,-.4,.1,-.4,.3c0,.3,.2,.4,.4,.4m1.6,0v0c.2,0,.3,-.1,.3,-.4c0,-.2,-.1,-.3,-.3,-.3c-.3,0,-.4,.1,-.4,.3c0,.3,.1,.4,.4,.4m1.5,0v0c.2,0,.4,-.1,.4,-.4c0,-.2,-.2,-.3,-.4,-.3c-.2,0,-.4,.1,-.4,.3c0,.3,.2,.4,.4,.4m1.5,0v0c.2,0,.4,-.1,.4,-.4c0,-.2,-.2,-.3,-.4,-.3c-.2,0,-.4,.1,-.4,.3c0,.3,.2,.4,.4,.4m1.6,0v0c.2,0,.3,-.1,.3,-.4c0,-.2,-.1,-.3,-.3,-.3c-.3,0,-.4,.1,-.4,.3c0,.3,.1,.4,.4,.4m1.5,0v0c.2,0,.4,-.1,.4,-.4c0,-.2,-.2,-.3,-.4,-.3c-.2,0,-.4,.1,-.4,.3c0,.3,.2,.4,.4,.4m1.5,0v0c.2,0,.4,-.1,.4,-.4c0,-.2,-.2,-.3,-.4,-.3c-.2,0,-.4,.1,-.4,.3c0,.3,.2,.4,.4,.4m1.6,0v0c.2,0,.3,-.1,.3,-.4c0,-.2,-.1,-.3,-.3,-.3c-.3,0,-.4,.1,-.4,.3c0,.3,.1,.4,.4,.4m1.5,0v0c.2,0,.4,-.1,.4,-.4c0,-.2,-.2,-.3,-.4,-.3c-.2,0,-.4,.1,-.4,.3c0,.3,.2,.4,.4,.4m1.5,0v0c.2,0,.4,-.1,.4,-.4c0,-.2,-.2,-.3,-.4,-.3c-.2,0,-.4,.1,-.4,.3c0,.3,.2,.4,.4,.4m1.6,0v0c.2,0,.3,-.1,.3,-.4c0,-.2,-.1,-.3,-.3,-.3c-.3,0,-.4,.1,-.4,.3c0,.3,.1,.4,.4,.4m1.5,0v0c.2,0,.4,-.1,.4,-.4c0,-.2,-.2,-.3,-.4,-.3c-.2,0,-.4,.1,-.4,.3c0,.3,.2,.4,.4,.4m1.5,0v0c.2,0,.4,-.1,.4,-.4c0,-.2,-.2,-.3,-.4,-.3c-.2,0,-.4,.1,-.4,.3c0,.3,.2,.4,.4,.4m1.5,0v0c.3,0,.4,-.1,.4,-.4c0,-.2,-.1,-.3,-.4,-.3c-.2,0,-.3,.1,-.3,.3c0,.3,.1,.4,.3,.4m1.6,0v0c.2,0,.4,-.1,.4,-.4c0,-.2,-.2,-.3,-.4,-.3c-.2,0,-.4,.1,-.4,.3c0,.3,.2,.4,.4,.4m1.5,0v0c.2,0,.4,-.1,.4,-.4c0,-.2,-.2,-.3,-.4,-.3c-.2,0,-.4,.1,-.4,.3c0,.3,.2,.4,.4,.4m1.5,0v0c.3,0,.4,-.1,.4,-.4c0,-.2,-.1,-.3,-.4,-.3c-.2,0,-.3,.1,-.3,.3c0,.3,.1,.4,.3,.4m1.6,0v0c.2,0,.4,-.1,.4,-.4c0,-.2,-.2,-.3,-.4,-.3c-.2,0,-.4,.1,-.4,.3c0,.3,.2,.4,.4,.4m1.5,0v0c.2,0,.4,-.1,.4,-.4c0,-.2,-.2,-.3,-.4,-.3c-.2,0,-.4,.1,-.4,.3c0,.3,.2,.4,.4,.4m1.5,0v0c.3,0,.4,-.1,.4,-.4c0,-.2,-.1,-.3,-.4,-.3c-.2,0,-.3,.1,-.3,.3c0,.3,.1,.4,.3,.4m1.6,0v0c.2,0,.4,-.1,.4,-.4c0,-.2,-.2,-.3,-.4,-.3c-.2,0,-.4,.1,-.4,.3c0,.3,.2,.4,.4,.4m1.5,0v0c.2,0,.4,-.1,.4,-.4c0,-.2,-.2,-.3,-.4,-.3c-.2,0,-.4,.1,-.4,.3c0,.3,.2,.4,.4,.4m1.5,0v0c.3,0,.4,-.1,.4,-.4c0,-.2,-.1,-.3,-.4,-.3c-.2,0,-.3,.1,-.3,.3c0,.3,.1,.4,.3,.4m1.6,0v0c.2,0,.4,-.1,.4,-.4c0,-.2,-.2,-.3,-.4,-.3c-.2,0,-.4,.1,-.4,.3c0,.3,.2,.4,.4,.4m1.5,0v0c.2,0,.4,-.1,.4,-.4c0,-.2,-.2,-.3,-.4,-.3c-.2,0,-.4,.1,-.4,.3c0,.3,.2,.4,.4,.4m1.5,0v0c.3,0,.4,-.1,.4,-.4c0,-.2,-.1,-.3,-.4,-.3c-.2,0,-.3,.1,-.3,.3c0,.3,.1,.4,.3,.4m1.6,0v0c.2,0,.4,-.1,.4,-.4c0,-.2,-.2,-.3,-.4,-.3c-.2,0,-.4,.1,-.4,.3c0,.3,.2,.4,.4,.4m1.5,0v0c.2,0,.4,-.1,.4,-.4c0,-.2,-.2,-.3,-.4,-.3c-.2,0,-.4,.1,-.4,.3c0,.3,.2,.4,.4,.4m1.5,0v0c.3,0,.4,-.1,.4,-.4c0,-.2,-.1,-.3,-.4,-.3c-.2,0,-.3,.1,-.3,.3c0,.3,.1,.4,.3,.4m1.6,0v0c.2,0,.4,-.1,.4,-.4c0,-.2,-.2,-.3,-.4,-.3c-.2,0,-.4,.1,-.4,.3c0,.3,.2,.4,.4,.4Z" class="g5_10"/>
<path d="M39.4,1061.9l.2,-.1l.1,-.3l-.1,-.2l-.2,-.1l-.3,.1l-.1,.2l.1,.3Zm216.1,0l.3,-.1l.1,-.3l-.1,-.2l-.3,-.1l-.3,.1l-.1,.2l.1,.3Z" class="g5_10"/>
<path d="M257,1061.9v0c.3,0,.4,-.1,.4,-.4c0,-.2,-.1,-.3,-.4,-.3c-.2,0,-.3,.1,-.3,.3c0,.3,.1,.4,.3,.4m1.6,0v0c.2,0,.4,-.1,.4,-.4c0,-.2,-.2,-.3,-.4,-.3c-.2,0,-.4,.1,-.4,.3c0,.3,.2,.4,.4,.4m1.5,0v0c.2,0,.4,-.1,.4,-.4c0,-.2,-.2,-.3,-.4,-.3c-.2,0,-.4,.1,-.4,.3c0,.3,.2,.4,.4,.4m1.6,0v0c.2,0,.3,-.1,.3,-.4c0,-.2,-.1,-.3,-.3,-.3c-.3,0,-.4,.1,-.4,.3c0,.3,.1,.4,.4,.4m1.5,0v0c.2,0,.4,-.1,.4,-.4c0,-.2,-.2,-.3,-.4,-.3c-.2,0,-.4,.1,-.4,.3c0,.3,.2,.4,.4,.4m1.5,0v0c.2,0,.4,-.1,.4,-.4c0,-.2,-.2,-.3,-.4,-.3c-.2,0,-.4,.1,-.4,.3c0,.3,.2,.4,.4,.4m1.6,0v0c.2,0,.3,-.1,.3,-.4c0,-.2,-.1,-.3,-.3,-.3c-.2,0,-.4,.1,-.4,.3c0,.3,.2,.4,.4,.4m1.5,0v0c.2,0,.4,-.1,.4,-.4c0,-.2,-.2,-.3,-.4,-.3c-.2,0,-.4,.1,-.4,.3c0,.3,.2,.4,.4,.4m1.5,0v0c.2,0,.4,-.1,.4,-.4c0,-.2,-.2,-.3,-.4,-.3c-.2,0,-.3,.1,-.3,.3c0,.3,.1,.4,.3,.4m1.6,0v0c.2,0,.4,-.1,.4,-.4c0,-.2,-.2,-.3,-.4,-.3c-.2,0,-.4,.1,-.4,.3c0,.3,.2,.4,.4,.4m1.5,0v0c.2,0,.4,-.1,.4,-.4c0,-.2,-.2,-.3,-.4,-.3c-.2,0,-.4,.1,-.4,.3c0,.3,.2,.4,.4,.4m1.5,0v0c.3,0,.4,-.1,.4,-.4c0,-.2,-.1,-.3,-.4,-.3c-.2,0,-.3,.1,-.3,.3c0,.3,.1,.4,.3,.4m1.6,0v0c.2,0,.4,-.1,.4,-.4c0,-.2,-.2,-.3,-.4,-.3c-.2,0,-.4,.1,-.4,.3c0,.3,.2,.4,.4,.4m1.5,0v0c.2,0,.4,-.1,.4,-.4c0,-.2,-.2,-.3,-.4,-.3c-.2,0,-.4,.1,-.4,.3c0,.3,.2,.4,.4,.4m1.6,0v0c.2,0,.3,-.1,.3,-.4c0,-.2,-.1,-.3,-.3,-.3c-.3,0,-.4,.1,-.4,.3c0,.3,.1,.4,.4,.4m1.5,0v0c.2,0,.4,-.1,.4,-.4c0,-.2,-.2,-.3,-.4,-.3c-.2,0,-.4,.1,-.4,.3c0,.3,.2,.4,.4,.4m1.5,0v0c.2,0,.4,-.1,.4,-.4c0,-.2,-.2,-.3,-.4,-.3c-.2,0,-.4,.1,-.4,.3c0,.3,.2,.4,.4,.4m1.6,0v0c.2,0,.3,-.1,.3,-.4c0,-.2,-.1,-.3,-.3,-.3c-.2,0,-.4,.1,-.4,.3c0,.3,.2,.4,.4,.4m1.5,0v0c.2,0,.4,-.1,.4,-.4c0,-.2,-.2,-.3,-.4,-.3c-.2,0,-.4,.1,-.4,.3c0,.3,.2,.4,.4,.4m1.5,0v0c.3,0,.4,-.1,.4,-.4c0,-.2,-.1,-.3,-.4,-.3c-.2,0,-.3,.1,-.3,.3c0,.3,.1,.4,.3,.4m1.6,0v0c.2,0,.4,-.1,.4,-.4c0,-.2,-.2,-.3,-.4,-.3c-.2,0,-.4,.1,-.4,.3c0,.3,.2,.4,.4,.4m1.5,0v0c.2,0,.4,-.1,.4,-.4c0,-.2,-.2,-.3,-.4,-.3c-.2,0,-.4,.1,-.4,.3c0,.3,.2,.4,.4,.4m1.5,0v0c.3,0,.4,-.1,.4,-.4c0,-.2,-.1,-.3,-.4,-.3c-.2,0,-.3,.1,-.3,.3c0,.3,.1,.4,.3,.4m1.6,0v0c.2,0,.4,-.1,.4,-.4c0,-.2,-.2,-.3,-.4,-.3c-.2,0,-.4,.1,-.4,.3c0,.3,.2,.4,.4,.4m1.5,0v0c.2,0,.4,-.1,.4,-.4c0,-.2,-.2,-.3,-.4,-.3c-.2,0,-.4,.1,-.4,.3c0,.3,.2,.4,.4,.4m1.6,0v0c.2,0,.3,-.1,.3,-.4c0,-.2,-.1,-.3,-.3,-.3c-.3,0,-.4,.1,-.4,.3c0,.3,.1,.4,.4,.4m1.5,0v0c.2,0,.4,-.1,.4,-.4c0,-.2,-.2,-.3,-.4,-.3c-.2,0,-.4,.1,-.4,.3c0,.3,.2,.4,.4,.4m1.5,0v0c.2,0,.4,-.1,.4,-.4c0,-.2,-.2,-.3,-.4,-.3c-.2,0,-.4,.1,-.4,.3c0,.3,.2,.4,.4,.4m1.6,0v0c.2,0,.3,-.1,.3,-.4c0,-.2,-.1,-.3,-.3,-.3c-.2,0,-.4,.1,-.4,.3c0,.3,.2,.4,.4,.4m1.5,0v0c.2,0,.4,-.1,.4,-.4c0,-.2,-.2,-.3,-.4,-.3c-.2,0,-.4,.1,-.4,.3c0,.3,.2,.4,.4,.4m1.5,0v0c.3,0,.4,-.1,.4,-.4c0,-.2,-.1,-.3,-.4,-.3c-.2,0,-.3,.1,-.3,.3c0,.3,.1,.4,.3,.4m1.6,0v0c.2,0,.4,-.1,.4,-.4c0,-.2,-.2,-.3,-.4,-.3c-.2,0,-.4,.1,-.4,.3c0,.3,.2,.4,.4,.4m1.5,0v0c.2,0,.4,-.1,.4,-.4c0,-.2,-.2,-.3,-.4,-.3c-.2,0,-.4,.1,-.4,.3c0,.3,.2,.4,.4,.4Z" class="g5_10"/>
<path d="M255.5,1061.9l.3,-.1l.1,-.3l-.1,-.2l-.3,-.1l-.3,.1l-.1,.2l.1,.3Zm52.2,0l.3,-.1l.1,-.3l-.1,-.2l-.3,-.1l-.2,.1l-.1,.2l.1,.3Z" class="g5_10"/>
<path d="M40.9,1028.1v0c.2,0,.4,-.1,.4,-.3c0,-.3,-.2,-.4,-.4,-.4c-.2,0,-.4,.1,-.4,.4c0,.2,.2,.3,.4,.3m1.5,0v0c.2,0,.4,-.1,.4,-.3c0,-.3,-.2,-.4,-.4,-.4c-.2,0,-.4,.1,-.4,.4c0,.2,.2,.3,.4,.3m1.6,0v0c.2,0,.3,-.1,.3,-.3c0,-.3,-.1,-.4,-.3,-.4c-.3,0,-.4,.1,-.4,.4c0,.2,.1,.3,.4,.3m1.5,0v0c.2,0,.4,-.1,.4,-.3c0,-.3,-.2,-.4,-.4,-.4c-.2,0,-.4,.1,-.4,.4c0,.2,.2,.3,.4,.3m1.5,0v0c.2,0,.4,-.1,.4,-.3c0,-.3,-.2,-.4,-.4,-.4c-.2,0,-.4,.1,-.4,.4c0,.2,.2,.3,.4,.3m1.6,0v0c.2,0,.3,-.1,.3,-.3c0,-.3,-.1,-.4,-.3,-.4c-.3,0,-.4,.1,-.4,.4c0,.2,.1,.3,.4,.3m1.5,0v0c.2,0,.4,-.1,.4,-.3c0,-.3,-.2,-.4,-.4,-.4c-.2,0,-.4,.1,-.4,.4c0,.2,.2,.3,.4,.3m1.5,0v0c.2,0,.4,-.1,.4,-.3c0,-.3,-.2,-.4,-.4,-.4c-.2,0,-.4,.1,-.4,.4c0,.2,.2,.3,.4,.3m1.6,0v0c.2,0,.3,-.1,.3,-.3c0,-.3,-.1,-.4,-.3,-.4c-.3,0,-.4,.1,-.4,.4c0,.2,.1,.3,.4,.3m1.5,0v0c.2,0,.4,-.1,.4,-.3c0,-.3,-.2,-.4,-.4,-.4c-.2,0,-.4,.1,-.4,.4c0,.2,.2,.3,.4,.3m1.5,0v0c.2,0,.4,-.1,.4,-.3c0,-.3,-.2,-.4,-.4,-.4c-.2,0,-.4,.1,-.4,.4c0,.2,.2,.3,.4,.3m1.6,0v0c.2,0,.3,-.1,.3,-.3c0,-.3,-.1,-.4,-.3,-.4c-.3,0,-.4,.1,-.4,.4c0,.2,.1,.3,.4,.3m1.5,0v0c.2,0,.4,-.1,.4,-.3c0,-.3,-.2,-.4,-.4,-.4c-.2,0,-.4,.1,-.4,.4c0,.2,.2,.3,.4,.3m1.5,0v0c.2,0,.4,-.1,.4,-.3c0,-.3,-.2,-.4,-.4,-.4c-.2,0,-.4,.1,-.4,.4c0,.2,.2,.3,.4,.3m1.6,0v0c.2,0,.3,-.1,.3,-.3c0,-.3,-.1,-.4,-.3,-.4c-.3,0,-.4,.1,-.4,.4c0,.2,.1,.3,.4,.3m1.5,0v0c.2,0,.4,-.1,.4,-.3c0,-.3,-.2,-.4,-.4,-.4c-.2,0,-.4,.1,-.4,.4c0,.2,.2,.3,.4,.3m1.5,0v0c.2,0,.4,-.1,.4,-.3c0,-.3,-.2,-.4,-.4,-.4c-.2,0,-.4,.1,-.4,.4c0,.2,.2,.3,.4,.3m1.6,0v0c.2,0,.3,-.1,.3,-.3c0,-.3,-.1,-.4,-.3,-.4c-.3,0,-.4,.1,-.4,.4c0,.2,.1,.3,.4,.3m1.5,0v0c.2,0,.4,-.1,.4,-.3c0,-.3,-.2,-.4,-.4,-.4c-.2,0,-.4,.1,-.4,.4c0,.2,.2,.3,.4,.3m1.5,0v0c.2,0,.4,-.1,.4,-.3c0,-.3,-.2,-.4,-.4,-.4c-.2,0,-.4,.1,-.4,.4c0,.2,.2,.3,.4,.3m1.6,0v0c.2,0,.3,-.1,.3,-.3c0,-.3,-.1,-.4,-.3,-.4c-.3,0,-.4,.1,-.4,.4c0,.2,.1,.3,.4,.3m1.5,0v0c.2,0,.4,-.1,.4,-.3c0,-.3,-.2,-.4,-.4,-.4c-.2,0,-.4,.1,-.4,.4c0,.2,.2,.3,.4,.3m1.5,0v0c.2,0,.4,-.1,.4,-.3c0,-.3,-.2,-.4,-.4,-.4c-.2,0,-.4,.1,-.4,.4c0,.2,.2,.3,.4,.3m1.6,0v0c.2,0,.3,-.1,.3,-.3c0,-.3,-.1,-.4,-.3,-.4c-.3,0,-.4,.1,-.4,.4c0,.2,.1,.3,.4,.3m1.5,0v0c.2,0,.4,-.1,.4,-.3c0,-.3,-.2,-.4,-.4,-.4c-.2,0,-.4,.1,-.4,.4c0,.2,.2,.3,.4,.3m1.5,0v0c.2,0,.4,-.1,.4,-.3c0,-.3,-.2,-.4,-.4,-.4c-.2,0,-.4,.1,-.4,.4c0,.2,.2,.3,.4,.3m1.5,0v0c.3,0,.4,-.1,.4,-.3c0,-.3,-.1,-.4,-.4,-.4c-.2,0,-.3,.1,-.3,.4c0,.2,.1,.3,.3,.3m1.6,0v0c.2,0,.4,-.1,.4,-.3c0,-.3,-.2,-.4,-.4,-.4c-.2,0,-.4,.1,-.4,.4c0,.2,.2,.3,.4,.3m1.5,0v0c.2,0,.4,-.1,.4,-.3c0,-.3,-.2,-.4,-.4,-.4c-.2,0,-.4,.1,-.4,.4c0,.2,.2,.3,.4,.3m1.5,0v0c.3,0,.4,-.1,.4,-.3c0,-.3,-.1,-.4,-.4,-.4c-.2,0,-.3,.1,-.3,.4c0,.2,.1,.3,.3,.3m1.6,0v0c.2,0,.4,-.1,.4,-.3c0,-.3,-.2,-.4,-.4,-.4c-.2,0,-.4,.1,-.4,.4c0,.2,.2,.3,.4,.3m1.5,0v0c.2,0,.4,-.1,.4,-.3c0,-.3,-.2,-.4,-.4,-.4c-.2,0,-.4,.1,-.4,.4c0,.2,.2,.3,.4,.3m1.5,0v0c.3,0,.4,-.1,.4,-.3c0,-.3,-.1,-.4,-.4,-.4c-.2,0,-.3,.1,-.3,.4c0,.2,.1,.3,.3,.3m1.6,0v0c.2,0,.4,-.1,.4,-.3c0,-.3,-.2,-.4,-.4,-.4c-.2,0,-.4,.1,-.4,.4c0,.2,.2,.3,.4,.3m1.5,0v0c.2,0,.4,-.1,.4,-.3c0,-.3,-.2,-.4,-.4,-.4c-.2,0,-.4,.1,-.4,.4c0,.2,.2,.3,.4,.3m1.5,0v0c.3,0,.4,-.1,.4,-.3c0,-.3,-.1,-.4,-.4,-.4c-.2,0,-.3,.1,-.3,.4c0,.2,.1,.3,.3,.3m1.6,0v0c.2,0,.4,-.1,.4,-.3c0,-.3,-.2,-.4,-.4,-.4c-.2,0,-.4,.1,-.4,.4c0,.2,.2,.3,.4,.3m1.5,0v0c.2,0,.4,-.1,.4,-.3c0,-.3,-.2,-.4,-.4,-.4c-.2,0,-.4,.1,-.4,.4c0,.2,.2,.3,.4,.3m1.5,0v0c.3,0,.4,-.1,.4,-.3c0,-.3,-.1,-.4,-.4,-.4c-.2,0,-.3,.1,-.3,.4c0,.2,.1,.3,.3,.3m1.6,0v0c.2,0,.4,-.1,.4,-.3c0,-.3,-.2,-.4,-.4,-.4c-.2,0,-.4,.1,-.4,.4c0,.2,.2,.3,.4,.3m1.5,0v0c.2,0,.4,-.1,.4,-.3c0,-.3,-.2,-.4,-.4,-.4c-.2,0,-.4,.1,-.4,.4c0,.2,.2,.3,.4,.3m1.5,0v0c.3,0,.4,-.1,.4,-.3c0,-.3,-.1,-.4,-.4,-.4c-.2,0,-.3,.1,-.3,.4c0,.2,.1,.3,.3,.3m1.6,0v0c.2,0,.4,-.1,.4,-.3c0,-.3,-.2,-.4,-.4,-.4c-.2,0,-.4,.1,-.4,.4c0,.2,.2,.3,.4,.3m1.5,0v0c.2,0,.4,-.1,.4,-.3c0,-.3,-.2,-.4,-.4,-.4c-.2,0,-.4,.1,-.4,.4c0,.2,.2,.3,.4,.3m1.5,0v0c.3,0,.4,-.1,.4,-.3c0,-.3,-.1,-.4,-.4,-.4c-.2,0,-.3,.1,-.3,.4c0,.2,.1,.3,.3,.3m1.6,0v0c.2,0,.4,-.1,.4,-.3c0,-.3,-.2,-.4,-.4,-.4c-.2,0,-.4,.1,-.4,.4c0,.2,.2,.3,.4,.3m1.5,0v0c.2,0,.4,-.1,.4,-.3c0,-.3,-.2,-.4,-.4,-.4c-.2,0,-.4,.1,-.4,.4c0,.2,.2,.3,.4,.3m1.5,0v0c.3,0,.4,-.1,.4,-.3c0,-.3,-.1,-.4,-.4,-.4c-.2,0,-.3,.1,-.3,.4c0,.2,.1,.3,.3,.3m1.6,0v0c.2,0,.4,-.1,.4,-.3c0,-.3,-.2,-.4,-.4,-.4c-.2,0,-.4,.1,-.4,.4c0,.2,.2,.3,.4,.3m1.5,0v0c.2,0,.4,-.1,.4,-.3c0,-.3,-.2,-.4,-.4,-.4c-.2,0,-.4,.1,-.4,.4c0,.2,.2,.3,.4,.3m1.5,0v0c.3,0,.4,-.1,.4,-.3c0,-.3,-.1,-.4,-.4,-.4c-.2,0,-.3,.1,-.3,.4c0,.2,.1,.3,.3,.3m1.6,0v0c.2,0,.4,-.1,.4,-.3c0,-.3,-.2,-.4,-.4,-.4c-.2,0,-.4,.1,-.4,.4c0,.2,.2,.3,.4,.3m1.5,0v0c.2,0,.4,-.1,.4,-.3c0,-.3,-.2,-.4,-.4,-.4c-.2,0,-.4,.1,-.4,.4c0,.2,.2,.3,.4,.3m1.5,0v0c.3,0,.4,-.1,.4,-.3c0,-.3,-.1,-.4,-.4,-.4c-.2,0,-.3,.1,-.3,.4c0,.2,.1,.3,.3,.3m1.6,0v0c.2,0,.4,-.1,.4,-.3c0,-.3,-.2,-.4,-.4,-.4c-.2,0,-.4,.1,-.4,.4c0,.2,.2,.3,.4,.3m1.5,0v0c.2,0,.4,-.1,.4,-.3c0,-.3,-.2,-.4,-.4,-.4c-.2,0,-.4,.1,-.4,.4c0,.2,.2,.3,.4,.3m1.5,0v0c.3,0,.4,-.1,.4,-.3c0,-.3,-.1,-.4,-.4,-.4c-.2,0,-.3,.1,-.3,.4c0,.2,.1,.3,.3,.3m1.6,0v0c.2,0,.4,-.1,.4,-.3c0,-.3,-.2,-.4,-.4,-.4c-.2,0,-.4,.1,-.4,.4c0,.2,.2,.3,.4,.3m1.5,0v0c.2,0,.4,-.1,.4,-.3c0,-.3,-.2,-.4,-.4,-.4c-.2,0,-.4,.1,-.4,.4c0,.2,.2,.3,.4,.3m1.5,0v0c.2,0,.4,-.1,.4,-.3c0,-.3,-.2,-.4,-.4,-.4c-.2,0,-.3,.1,-.3,.4c0,.2,.1,.3,.3,.3m1.6,0v0c.2,0,.4,-.1,.4,-.3c0,-.3,-.2,-.4,-.4,-.4c-.2,0,-.4,.1,-.4,.4c0,.2,.2,.3,.4,.3m1.5,0v0c.2,0,.4,-.1,.4,-.3c0,-.3,-.2,-.4,-.4,-.4c-.2,0,-.4,.1,-.4,.4c0,.2,.2,.3,.4,.3m1.5,0v0c.2,0,.4,-.1,.4,-.3c0,-.3,-.2,-.4,-.4,-.4c-.2,0,-.3,.1,-.3,.4c0,.2,.1,.3,.3,.3m1.6,0v0c.2,0,.4,-.1,.4,-.3c0,-.3,-.2,-.4,-.4,-.4c-.2,0,-.4,.1,-.4,.4c0,.2,.2,.3,.4,.3m1.5,0v0c.2,0,.4,-.1,.4,-.3c0,-.3,-.2,-.4,-.4,-.4c-.2,0,-.4,.1,-.4,.4c0,.2,.2,.3,.4,.3m1.5,0v0c.2,0,.4,-.1,.4,-.3c0,-.3,-.2,-.4,-.4,-.4c-.2,0,-.3,.1,-.3,.4c0,.2,.1,.3,.3,.3m1.6,0v0c.2,0,.4,-.1,.4,-.3c0,-.3,-.2,-.4,-.4,-.4c-.2,0,-.4,.1,-.4,.4c0,.2,.2,.3,.4,.3m1.5,0v0c.2,0,.4,-.1,.4,-.3c0,-.3,-.2,-.4,-.4,-.4c-.2,0,-.4,.1,-.4,.4c0,.2,.2,.3,.4,.3m1.5,0v0c.2,0,.4,-.1,.4,-.3c0,-.3,-.2,-.4,-.4,-.4c-.2,0,-.3,.1,-.3,.4c0,.2,.1,.3,.3,.3m1.6,0v0c.2,0,.4,-.1,.4,-.3c0,-.3,-.2,-.4,-.4,-.4c-.2,0,-.4,.1,-.4,.4c0,.2,.2,.3,.4,.3m1.5,0v0c.2,0,.4,-.1,.4,-.3c0,-.3,-.2,-.4,-.4,-.4c-.2,0,-.4,.1,-.4,.4c0,.2,.2,.3,.4,.3m1.5,0v0c.2,0,.4,-.1,.4,-.3c0,-.3,-.2,-.4,-.4,-.4c-.2,0,-.3,.1,-.3,.4c0,.2,.1,.3,.3,.3m1.6,0v0c.2,0,.3,-.1,.3,-.3c0,-.3,-.1,-.4,-.3,-.4c-.2,0,-.4,.1,-.4,.4c0,.2,.2,.3,.4,.3m1.5,0v0c.2,0,.4,-.1,.4,-.3c0,-.3,-.2,-.4,-.4,-.4c-.2,0,-.4,.1,-.4,.4c0,.2,.2,.3,.4,.3m1.5,0v0c.2,0,.4,-.1,.4,-.3c0,-.3,-.2,-.4,-.4,-.4c-.2,0,-.3,.1,-.3,.4c0,.2,.1,.3,.3,.3m1.6,0v0c.2,0,.3,-.1,.3,-.3c0,-.3,-.1,-.4,-.3,-.4c-.2,0,-.4,.1,-.4,.4c0,.2,.2,.3,.4,.3m1.5,0v0c.2,0,.4,-.1,.4,-.3c0,-.3,-.2,-.4,-.4,-.4c-.2,0,-.4,.1,-.4,.4c0,.2,.2,.3,.4,.3m1.5,0v0c.2,0,.4,-.1,.4,-.3c0,-.3,-.2,-.4,-.4,-.4c-.2,0,-.3,.1,-.3,.4c0,.2,.1,.3,.3,.3m1.6,0v0c.2,0,.3,-.1,.3,-.3c0,-.3,-.1,-.4,-.3,-.4c-.2,0,-.4,.1,-.4,.4c0,.2,.2,.3,.4,.3m1.5,0v0c.2,0,.4,-.1,.4,-.3c0,-.3,-.2,-.4,-.4,-.4c-.2,0,-.4,.1,-.4,.4c0,.2,.2,.3,.4,.3m1.5,0v0c.2,0,.4,-.1,.4,-.3c0,-.3,-.2,-.4,-.4,-.4c-.2,0,-.4,.1,-.4,.4c0,.2,.2,.3,.4,.3m1.6,0v0c.2,0,.3,-.1,.3,-.3c0,-.3,-.1,-.4,-.3,-.4c-.2,0,-.4,.1,-.4,.4c0,.2,.2,.3,.4,.3m1.5,0v0c.2,0,.4,-.1,.4,-.3c0,-.3,-.2,-.4,-.4,-.4c-.2,0,-.4,.1,-.4,.4c0,.2,.2,.3,.4,.3m1.5,0v0c.2,0,.4,-.1,.4,-.3c0,-.3,-.2,-.4,-.4,-.4c-.2,0,-.4,.1,-.4,.4c0,.2,.2,.3,.4,.3m1.6,0v0c.2,0,.3,-.1,.3,-.3c0,-.3,-.1,-.4,-.3,-.4c-.2,0,-.4,.1,-.4,.4c0,.2,.2,.3,.4,.3m1.5,0v0c.2,0,.4,-.1,.4,-.3c0,-.3,-.2,-.4,-.4,-.4c-.2,0,-.4,.1,-.4,.4c0,.2,.2,.3,.4,.3m1.5,0v0c.2,0,.4,-.1,.4,-.3c0,-.3,-.2,-.4,-.4,-.4c-.2,0,-.4,.1,-.4,.4c0,.2,.2,.3,.4,.3m1.6,0v0c.2,0,.3,-.1,.3,-.3c0,-.3,-.1,-.4,-.3,-.4c-.2,0,-.4,.1,-.4,.4c0,.2,.2,.3,.4,.3m1.5,0v0c.2,0,.4,-.1,.4,-.3c0,-.3,-.2,-.4,-.4,-.4c-.2,0,-.4,.1,-.4,.4c0,.2,.2,.3,.4,.3m1.5,0v0c.2,0,.4,-.1,.4,-.3c0,-.3,-.2,-.4,-.4,-.4c-.2,0,-.4,.1,-.4,.4c0,.2,.2,.3,.4,.3m1.6,0v0c.2,0,.3,-.1,.3,-.3c0,-.3,-.1,-.4,-.3,-.4c-.2,0,-.4,.1,-.4,.4c0,.2,.2,.3,.4,.3m1.5,0v0c.2,0,.4,-.1,.4,-.3c0,-.3,-.2,-.4,-.4,-.4c-.2,0,-.4,.1,-.4,.4c0,.2,.2,.3,.4,.3m1.5,0v0c.2,0,.4,-.1,.4,-.3c0,-.3,-.2,-.4,-.4,-.4c-.2,0,-.4,.1,-.4,.4c0,.2,.2,.3,.4,.3m1.6,0v0c.2,0,.3,-.1,.3,-.3c0,-.3,-.1,-.4,-.3,-.4c-.3,0,-.4,.1,-.4,.4c0,.2,.1,.3,.4,.3m1.5,0v0c.2,0,.4,-.1,.4,-.3c0,-.3,-.2,-.4,-.4,-.4c-.2,0,-.4,.1,-.4,.4c0,.2,.2,.3,.4,.3m1.5,0v0c.2,0,.4,-.1,.4,-.3c0,-.3,-.2,-.4,-.4,-.4c-.2,0,-.4,.1,-.4,.4c0,.2,.2,.3,.4,.3m1.6,0v0c.2,0,.3,-.1,.3,-.3c0,-.3,-.1,-.4,-.3,-.4c-.3,0,-.4,.1,-.4,.4c0,.2,.1,.3,.4,.3m1.5,0v0c.2,0,.4,-.1,.4,-.3c0,-.3,-.2,-.4,-.4,-.4c-.2,0,-.4,.1,-.4,.4c0,.2,.2,.3,.4,.3m1.5,0v0c.2,0,.4,-.1,.4,-.3c0,-.3,-.2,-.4,-.4,-.4c-.2,0,-.4,.1,-.4,.4c0,.2,.2,.3,.4,.3m1.6,0v0c.2,0,.3,-.1,.3,-.3c0,-.3,-.1,-.4,-.3,-.4c-.3,0,-.4,.1,-.4,.4c0,.2,.1,.3,.4,.3m1.5,0v0c.2,0,.4,-.1,.4,-.3c0,-.3,-.2,-.4,-.4,-.4c-.2,0,-.4,.1,-.4,.4c0,.2,.2,.3,.4,.3m1.5,0v0c.2,0,.4,-.1,.4,-.3c0,-.3,-.2,-.4,-.4,-.4c-.2,0,-.4,.1,-.4,.4c0,.2,.2,.3,.4,.3m1.6,0v0c.2,0,.3,-.1,.3,-.3c0,-.3,-.1,-.4,-.3,-.4c-.3,0,-.4,.1,-.4,.4c0,.2,.1,.3,.4,.3m1.5,0v0c.2,0,.4,-.1,.4,-.3c0,-.3,-.2,-.4,-.4,-.4c-.2,0,-.4,.1,-.4,.4c0,.2,.2,.3,.4,.3m1.5,0v0c.2,0,.4,-.1,.4,-.3c0,-.3,-.2,-.4,-.4,-.4c-.2,0,-.4,.1,-.4,.4c0,.2,.2,.3,.4,.3m1.6,0v0c.2,0,.3,-.1,.3,-.3c0,-.3,-.1,-.4,-.3,-.4c-.3,0,-.4,.1,-.4,.4c0,.2,.1,.3,.4,.3m1.5,0v0c.2,0,.4,-.1,.4,-.3c0,-.3,-.2,-.4,-.4,-.4c-.2,0,-.4,.1,-.4,.4c0,.2,.2,.3,.4,.3m1.5,0v0c.2,0,.4,-.1,.4,-.3c0,-.3,-.2,-.4,-.4,-.4c-.2,0,-.4,.1,-.4,.4c0,.2,.2,.3,.4,.3m1.6,0v0c.2,0,.3,-.1,.3,-.3c0,-.3,-.1,-.4,-.3,-.4c-.3,0,-.4,.1,-.4,.4c0,.2,.1,.3,.4,.3m1.5,0v0c.2,0,.4,-.1,.4,-.3c0,-.3,-.2,-.4,-.4,-.4c-.2,0,-.4,.1,-.4,.4c0,.2,.2,.3,.4,.3m1.5,0v0c.2,0,.4,-.1,.4,-.3c0,-.3,-.2,-.4,-.4,-.4c-.2,0,-.4,.1,-.4,.4c0,.2,.2,.3,.4,.3m1.6,0v0c.2,0,.3,-.1,.3,-.3c0,-.3,-.1,-.4,-.3,-.4c-.3,0,-.4,.1,-.4,.4c0,.2,.1,.3,.4,.3m1.5,0v0c.2,0,.4,-.1,.4,-.3c0,-.3,-.2,-.4,-.4,-.4c-.2,0,-.4,.1,-.4,.4c0,.2,.2,.3,.4,.3m1.5,0v0c.2,0,.4,-.1,.4,-.3c0,-.3,-.2,-.4,-.4,-.4c-.2,0,-.4,.1,-.4,.4c0,.2,.2,.3,.4,.3m1.6,0v0c.2,0,.3,-.1,.3,-.3c0,-.3,-.1,-.4,-.3,-.4c-.3,0,-.4,.1,-.4,.4c0,.2,.1,.3,.4,.3m1.5,0v0c.2,0,.4,-.1,.4,-.3c0,-.3,-.2,-.4,-.4,-.4c-.2,0,-.4,.1,-.4,.4c0,.2,.2,.3,.4,.3m1.5,0v0c.2,0,.4,-.1,.4,-.3c0,-.3,-.2,-.4,-.4,-.4c-.2,0,-.4,.1,-.4,.4c0,.2,.2,.3,.4,.3m1.6,0v0c.2,0,.3,-.1,.3,-.3c0,-.3,-.1,-.4,-.3,-.4c-.3,0,-.4,.1,-.4,.4c0,.2,.1,.3,.4,.3m1.5,0v0c.2,0,.4,-.1,.4,-.3c0,-.3,-.2,-.4,-.4,-.4c-.2,0,-.4,.1,-.4,.4c0,.2,.2,.3,.4,.3m1.5,0v0c.2,0,.4,-.1,.4,-.3c0,-.3,-.2,-.4,-.4,-.4c-.2,0,-.4,.1,-.4,.4c0,.2,.2,.3,.4,.3m1.6,0v0c.2,0,.3,-.1,.3,-.3c0,-.3,-.1,-.4,-.3,-.4c-.3,0,-.4,.1,-.4,.4c0,.2,.1,.3,.4,.3m1.5,0v0c.2,0,.4,-.1,.4,-.3c0,-.3,-.2,-.4,-.4,-.4c-.2,0,-.4,.1,-.4,.4c0,.2,.2,.3,.4,.3m1.5,0v0c.2,0,.4,-.1,.4,-.3c0,-.3,-.2,-.4,-.4,-.4c-.2,0,-.4,.1,-.4,.4c0,.2,.2,.3,.4,.3m1.5,0v0c.3,0,.4,-.1,.4,-.3c0,-.3,-.1,-.4,-.4,-.4c-.2,0,-.3,.1,-.3,.4c0,.2,.1,.3,.3,.3m1.6,0v0c.2,0,.4,-.1,.4,-.3c0,-.3,-.2,-.4,-.4,-.4c-.2,0,-.4,.1,-.4,.4c0,.2,.2,.3,.4,.3m1.5,0v0c.2,0,.4,-.1,.4,-.3c0,-.3,-.2,-.4,-.4,-.4c-.2,0,-.4,.1,-.4,.4c0,.2,.2,.3,.4,.3m1.5,0v0c.3,0,.4,-.1,.4,-.3c0,-.3,-.1,-.4,-.4,-.4c-.2,0,-.3,.1,-.3,.4c0,.2,.1,.3,.3,.3m1.6,0v0c.2,0,.4,-.1,.4,-.3c0,-.3,-.2,-.4,-.4,-.4c-.2,0,-.4,.1,-.4,.4c0,.2,.2,.3,.4,.3m1.5,0v0c.2,0,.4,-.1,.4,-.3c0,-.3,-.2,-.4,-.4,-.4c-.2,0,-.4,.1,-.4,.4c0,.2,.2,.3,.4,.3m1.5,0v0c.3,0,.4,-.1,.4,-.3c0,-.3,-.1,-.4,-.4,-.4c-.2,0,-.3,.1,-.3,.4c0,.2,.1,.3,.3,.3m1.6,0v0c.2,0,.4,-.1,.4,-.3c0,-.3,-.2,-.4,-.4,-.4c-.2,0,-.4,.1,-.4,.4c0,.2,.2,.3,.4,.3m1.5,0v0c.2,0,.4,-.1,.4,-.3c0,-.3,-.2,-.4,-.4,-.4c-.2,0,-.4,.1,-.4,.4c0,.2,.2,.3,.4,.3m1.5,0v0c.3,0,.4,-.1,.4,-.3c0,-.3,-.1,-.4,-.4,-.4c-.2,0,-.3,.1,-.3,.4c0,.2,.1,.3,.3,.3m1.6,0v0c.2,0,.4,-.1,.4,-.3c0,-.3,-.2,-.4,-.4,-.4c-.2,0,-.4,.1,-.4,.4c0,.2,.2,.3,.4,.3m1.5,0v0c.2,0,.4,-.1,.4,-.3c0,-.3,-.2,-.4,-.4,-.4c-.2,0,-.4,.1,-.4,.4c0,.2,.2,.3,.4,.3m1.5,0v0c.3,0,.4,-.1,.4,-.3c0,-.3,-.1,-.4,-.4,-.4c-.2,0,-.3,.1,-.3,.4c0,.2,.1,.3,.3,.3m1.6,0v0c.2,0,.4,-.1,.4,-.3c0,-.3,-.2,-.4,-.4,-.4c-.2,0,-.4,.1,-.4,.4c0,.2,.2,.3,.4,.3m1.5,0v0c.2,0,.4,-.1,.4,-.3c0,-.3,-.2,-.4,-.4,-.4c-.2,0,-.4,.1,-.4,.4c0,.2,.2,.3,.4,.3m1.5,0v0c.3,0,.4,-.1,.4,-.3c0,-.3,-.1,-.4,-.4,-.4c-.2,0,-.3,.1,-.3,.4c0,.2,.1,.3,.3,.3m1.6,0v0c.2,0,.4,-.1,.4,-.3c0,-.3,-.2,-.4,-.4,-.4c-.2,0,-.4,.1,-.4,.4c0,.2,.2,.3,.4,.3Z" class="g5_10"/>
<path d="M39.4,1028.1l.2,-.1l.1,-.2l-.1,-.3l-.2,-.1l-.3,.1l-.1,.3l.1,.2Zm216.1,0l.3,-.1l.1,-.2l-.1,-.3l-.3,-.1l-.3,.1l-.1,.3l.1,.2Z" class="g5_10"/>
<path d="M257,1028.1v0c.3,0,.4,-.1,.4,-.3c0,-.3,-.1,-.4,-.4,-.4c-.2,0,-.3,.1,-.3,.4c0,.2,.1,.3,.3,.3m1.6,0v0c.2,0,.4,-.1,.4,-.3c0,-.3,-.2,-.4,-.4,-.4c-.2,0,-.4,.1,-.4,.4c0,.2,.2,.3,.4,.3m1.5,0v0c.2,0,.4,-.1,.4,-.3c0,-.3,-.2,-.4,-.4,-.4c-.2,0,-.4,.1,-.4,.4c0,.2,.2,.3,.4,.3m1.6,0v0c.2,0,.3,-.1,.3,-.3c0,-.3,-.1,-.4,-.3,-.4c-.3,0,-.4,.1,-.4,.4c0,.2,.1,.3,.4,.3m1.5,0v0c.2,0,.4,-.1,.4,-.3c0,-.3,-.2,-.4,-.4,-.4c-.2,0,-.4,.1,-.4,.4c0,.2,.2,.3,.4,.3m1.5,0v0c.2,0,.4,-.1,.4,-.3c0,-.3,-.2,-.4,-.4,-.4c-.2,0,-.4,.1,-.4,.4c0,.2,.2,.3,.4,.3m1.6,0v0c.2,0,.3,-.1,.3,-.3c0,-.3,-.1,-.4,-.3,-.4c-.2,0,-.4,.1,-.4,.4c0,.2,.2,.3,.4,.3m1.5,0v0c.2,0,.4,-.1,.4,-.3c0,-.3,-.2,-.4,-.4,-.4c-.2,0,-.4,.1,-.4,.4c0,.2,.2,.3,.4,.3m1.5,0v0c.2,0,.4,-.1,.4,-.3c0,-.3,-.2,-.4,-.4,-.4c-.2,0,-.3,.1,-.3,.4c0,.2,.1,.3,.3,.3m1.6,0v0c.2,0,.4,-.1,.4,-.3c0,-.3,-.2,-.4,-.4,-.4c-.2,0,-.4,.1,-.4,.4c0,.2,.2,.3,.4,.3m1.5,0v0c.2,0,.4,-.1,.4,-.3c0,-.3,-.2,-.4,-.4,-.4c-.2,0,-.4,.1,-.4,.4c0,.2,.2,.3,.4,.3m1.5,0v0c.3,0,.4,-.1,.4,-.3c0,-.3,-.1,-.4,-.4,-.4c-.2,0,-.3,.1,-.3,.4c0,.2,.1,.3,.3,.3m1.6,0v0c.2,0,.4,-.1,.4,-.3c0,-.3,-.2,-.4,-.4,-.4c-.2,0,-.4,.1,-.4,.4c0,.2,.2,.3,.4,.3m1.5,0v0c.2,0,.4,-.1,.4,-.3c0,-.3,-.2,-.4,-.4,-.4c-.2,0,-.4,.1,-.4,.4c0,.2,.2,.3,.4,.3m1.6,0v0c.2,0,.3,-.1,.3,-.3c0,-.3,-.1,-.4,-.3,-.4c-.3,0,-.4,.1,-.4,.4c0,.2,.1,.3,.4,.3m1.5,0v0c.2,0,.4,-.1,.4,-.3c0,-.3,-.2,-.4,-.4,-.4c-.2,0,-.4,.1,-.4,.4c0,.2,.2,.3,.4,.3m1.5,0v0c.2,0,.4,-.1,.4,-.3c0,-.3,-.2,-.4,-.4,-.4c-.2,0,-.4,.1,-.4,.4c0,.2,.2,.3,.4,.3m1.6,0v0c.2,0,.3,-.1,.3,-.3c0,-.3,-.1,-.4,-.3,-.4c-.2,0,-.4,.1,-.4,.4c0,.2,.2,.3,.4,.3m1.5,0v0c.2,0,.4,-.1,.4,-.3c0,-.3,-.2,-.4,-.4,-.4c-.2,0,-.4,.1,-.4,.4c0,.2,.2,.3,.4,.3m1.5,0v0c.3,0,.4,-.1,.4,-.3c0,-.3,-.1,-.4,-.4,-.4c-.2,0,-.3,.1,-.3,.4c0,.2,.1,.3,.3,.3m1.6,0v0c.2,0,.4,-.1,.4,-.3c0,-.3,-.2,-.4,-.4,-.4c-.2,0,-.4,.1,-.4,.4c0,.2,.2,.3,.4,.3m1.5,0v0c.2,0,.4,-.1,.4,-.3c0,-.3,-.2,-.4,-.4,-.4c-.2,0,-.4,.1,-.4,.4c0,.2,.2,.3,.4,.3m1.5,0v0c.3,0,.4,-.1,.4,-.3c0,-.3,-.1,-.4,-.4,-.4c-.2,0,-.3,.1,-.3,.4c0,.2,.1,.3,.3,.3m1.6,0v0c.2,0,.4,-.1,.4,-.3c0,-.3,-.2,-.4,-.4,-.4c-.2,0,-.4,.1,-.4,.4c0,.2,.2,.3,.4,.3m1.5,0v0c.2,0,.4,-.1,.4,-.3c0,-.3,-.2,-.4,-.4,-.4c-.2,0,-.4,.1,-.4,.4c0,.2,.2,.3,.4,.3m1.6,0v0c.2,0,.3,-.1,.3,-.3c0,-.3,-.1,-.4,-.3,-.4c-.3,0,-.4,.1,-.4,.4c0,.2,.1,.3,.4,.3m1.5,0v0c.2,0,.4,-.1,.4,-.3c0,-.3,-.2,-.4,-.4,-.4c-.2,0,-.4,.1,-.4,.4c0,.2,.2,.3,.4,.3m1.5,0v0c.2,0,.4,-.1,.4,-.3c0,-.3,-.2,-.4,-.4,-.4c-.2,0,-.4,.1,-.4,.4c0,.2,.2,.3,.4,.3m1.6,0v0c.2,0,.3,-.1,.3,-.3c0,-.3,-.1,-.4,-.3,-.4c-.2,0,-.4,.1,-.4,.4c0,.2,.2,.3,.4,.3m1.5,0v0c.2,0,.4,-.1,.4,-.3c0,-.3,-.2,-.4,-.4,-.4c-.2,0,-.4,.1,-.4,.4c0,.2,.2,.3,.4,.3m1.5,0v0c.3,0,.4,-.1,.4,-.3c0,-.3,-.1,-.4,-.4,-.4c-.2,0,-.3,.1,-.3,.4c0,.2,.1,.3,.3,.3m1.6,0v0c.2,0,.4,-.1,.4,-.3c0,-.3,-.2,-.4,-.4,-.4c-.2,0,-.4,.1,-.4,.4c0,.2,.2,.3,.4,.3m1.5,0v0c.2,0,.4,-.1,.4,-.3c0,-.3,-.2,-.4,-.4,-.4c-.2,0,-.4,.1,-.4,.4c0,.2,.2,.3,.4,.3Z" class="g5_10"/>
<path d="M255.5,1028.1l.3,-.1l.1,-.2l-.1,-.3l-.3,-.1l-.3,.1l-.1,.3l.1,.2Zm52.2,0l.3,-.1l.1,-.2l-.1,-.3l-.3,-.1l-.2,.1l-.1,.3l.1,.2Z" class="g5_10"/>
<path d="M39,487.1H308.1v-2.3H39Z" class="g5_10"/>
<image clip-path="url(#c8_10)" preserveAspectRatio="none" x="643" y="98" width="91" height="29" xlink:href="img/9.jpg"/>
<image clip-path="url(#c9_10)" preserveAspectRatio="none" x="719" y="101" width="11" height="10" xlink:href="img/10.jpg"/>
<image clip-path="url(#ca_10)" preserveAspectRatio="none" x="716" y="98" width="17" height="16" xlink:href="img/11.jpg"/>
<path d="M791.7,97.3c2.4,0,4.3,-1.9,4.3,-4.2c0,-2.4,-1.9,-4.3,-4.3,-4.3c-2.3,0,-4.2,1.9,-4.2,4.3c0,2.3,1.9,4.2,4.2,4.2Z" class="g4_10"/>
<path d="M815.4,92.5c3.3,0,6.1,-2.7,6.1,-6.1c0,-3.3,-2.8,-6.1,-6.1,-6.1c-3.4,0,-6.1,2.8,-6.1,6.1c0,3.4,2.7,6.1,6.1,6.1Z" class="g2_10"/>
<path d="M815.4,92.5V94c4.2,0,7.6,-3.4,7.6,-7.6c0,-4.2,-3.4,-7.6,-7.6,-7.6c-4.2,0,-7.6,3.4,-7.6,7.6c0,4.2,3.4,7.6,7.6,7.6V91c-2.6,0,-4.6,-2,-4.6,-4.6c0,-2.5,2,-4.6,4.6,-4.6c2.5,0,4.6,2.1,4.6,4.6c0,2.6,-2.1,4.6,-4.6,4.6Z" class="g4_10"/>
<image clip-path="url(#cb_10)" preserveAspectRatio="none" x="799" y="59" width="34" height="15" xlink:href="img/12.jpg"/>
<path d="M770.9,102.8c2.3,0,4.2,-2,4.2,-4.3c0,-2.4,-1.9,-4.3,-4.2,-4.3c-2.4,0,-4.3,1.9,-4.3,4.3c0,2.3,1.9,4.3,4.3,4.3Z" class="g4_10"/>
<image clip-path="url(#cc_10)" preserveAspectRatio="none" x="753" y="72" width="36" height="16" xlink:href="img/13.jpg"/>
<path d="M750.1,101.4c2.4,0,4.3,-1.9,4.3,-4.3c0,-2.3,-1.9,-4.3,-4.3,-4.3c-2.3,0,-4.2,2,-4.2,4.3c0,2.4,1.9,4.3,4.2,4.3Z" class="g4_10"/>
<image clip-path="url(#cd_10)" preserveAspectRatio="none" x="739" y="101" width="33" height="15" xlink:href="img/14.jpg"/>
<image clip-path="url(#ce_10)" preserveAspectRatio="none" x="767" y="101" width="5" height="2" xlink:href="img/15.jpg"/>
<image clip-path="url(#cf_10)" preserveAspectRatio="none" x="748" y="101" width="4" height="1" xlink:href="img/16.jpg"/>
<path d="M737.4,103.8c2.3,0,4.2,-1.9,4.2,-4.2c0,-2.4,-1.9,-4.3,-4.2,-4.3c-2.4,0,-4.3,1.9,-4.3,4.3c0,2.3,1.9,4.2,4.3,4.2Z" class="g4_10"/>
<image clip-path="url(#cg_10)" preserveAspectRatio="none" x="704" y="77" width="42" height="15" xlink:href="img/17.jpg"/>
<image clip-path="url(#ch_10)" preserveAspectRatio="none" x="795" y="84" width="14" height="11" xlink:href="img/18.png"/>
<path d="M298.3,126.1c2,0,3.7,-1.6,3.7,-3.7c0,-2.1,-1.7,-3.8,-3.7,-3.8c-2.1,0,-3.8,1.7,-3.8,3.8c0,2.1,1.7,3.7,3.8,3.7Z" class="g6_10"/>
<path d="M298.3,126.1v.6c2.4,0,4.3,-1.9,4.3,-4.3c0,-2.4,-1.9,-4.3,-4.3,-4.3c-2.4,0,-4.4,1.9,-4.4,4.3c0,2.4,2,4.3,4.4,4.3v-1.1c-1.8,0,-3.2,-1.4,-3.2,-3.2c0,-1.8,1.4,-3.2,3.2,-3.2c1.7,0,3.2,1.4,3.2,3.2c0,1.8,-1.5,3.2,-3.2,3.2Z" class="g4_10"/>
<path d="M305.7,123.4h41.4v-1.6H305.7Z" class="g4_10"/>
<image clip-path="url(#ci_10)" preserveAspectRatio="none" x="312" y="100" width="12" height="17" xlink:href="img/19.jpg"/>
<path d="M355.2,126.1c2.1,0,3.7,-1.6,3.7,-3.7c0,-2.1,-1.6,-3.8,-3.7,-3.8c-2.1,0,-3.8,1.7,-3.8,3.8c0,2.1,1.7,3.7,3.8,3.7Z" class="g6_10"/>
<path d="M355.2,126.1v.6c2.4,0,4.3,-1.9,4.3,-4.3c0,-2.4,-1.9,-4.3,-4.3,-4.3c-2.4,0,-4.4,1.9,-4.4,4.3c0,2.4,2,4.3,4.4,4.3v-1.1c-1.8,0,-3.2,-1.4,-3.2,-3.2c0,-1.8,1.4,-3.2,3.2,-3.2c1.7,0,3.2,1.4,3.2,3.2c0,1.8,-1.5,3.2,-3.2,3.2Z" class="g4_10"/>
<image clip-path="url(#cj_10)" preserveAspectRatio="none" x="387" y="100" width="13" height="17" xlink:href="img/20.jpg"/>
<path d="M362.7,123.4h43.8v-1.6H362.7Z" class="g4_10"/>
<path d="M457.9,126.1c2.1,0,3.8,-1.6,3.8,-3.7c0,-2.1,-1.7,-3.8,-3.8,-3.8c-2,0,-3.7,1.7,-3.7,3.8c0,2.1,1.7,3.7,3.7,3.7Z" class="g6_10"/>
<path d="M457.9,126.1v.6c2.4,0,4.4,-1.9,4.4,-4.3c0,-2.4,-2,-4.3,-4.4,-4.3c-2.3,0,-4.3,1.9,-4.3,4.3c0,2.4,2,4.3,4.3,4.3v-1.1c-1.7,0,-3.2,-1.5,-3.2,-3.2c0,-1.8,1.5,-3.2,3.2,-3.2c1.8,0,3.3,1.4,3.3,3.2c0,1.7,-1.5,3.2,-3.3,3.2Z" class="g4_10"/>
<image clip-path="url(#ck_10)" preserveAspectRatio="none" x="472" y="100" width="13" height="18" xlink:href="img/21.jpg"/>
<path d="M465.6,123.4h29.9v-1.6H465.6Z" class="g4_10"/>
<path d="M503.2,126.1c2.1,0,3.8,-1.6,3.8,-3.7c0,-2.1,-1.7,-3.8,-3.8,-3.8c-2.1,0,-3.7,1.7,-3.7,3.8c0,2.1,1.6,3.7,3.7,3.7Z" class="g6_10"/>
<path d="M503.2,126.1v.6c2.4,0,4.3,-1.9,4.3,-4.3c0,-2.4,-1.9,-4.3,-4.3,-4.3c-2.4,0,-4.3,1.9,-4.3,4.3c0,2.4,1.9,4.3,4.3,4.3v-1.1c-1.8,0,-3.2,-1.4,-3.2,-3.2c0,-1.8,1.4,-3.2,3.2,-3.2c1.8,0,3.2,1.4,3.2,3.2c0,1.8,-1.4,3.2,-3.2,3.2Z" class="g4_10"/>
<image clip-path="url(#cl_10)" preserveAspectRatio="none" x="520" y="100" width="10" height="18" xlink:href="img/22.jpg"/>
<image clip-path="url(#cm_10)" preserveAspectRatio="none" x="530" y="100" width="3" height="18" xlink:href="img/23.jpg"/>
<path d="M511.3,123.4h61.9v-1.6H511.3Z" class="g4_10"/>
<path d="M580.5,126.1c2.1,0,3.8,-1.6,3.8,-3.7c0,-2.1,-1.7,-3.8,-3.8,-3.8c-2.1,0,-3.8,1.7,-3.8,3.8c0,2.1,1.7,3.7,3.8,3.7Z" class="g6_10"/>
<path d="M580.5,126.1v.6c2.4,0,4.3,-1.9,4.3,-4.3c0,-2.4,-1.9,-4.3,-4.3,-4.3c-2.4,0,-4.3,1.9,-4.3,4.3c0,2.4,1.9,4.3,4.3,4.3v-1.1c-1.8,0,-3.2,-1.4,-3.2,-3.2c0,-1.8,1.4,-3.2,3.2,-3.2c1.8,0,3.2,1.4,3.2,3.2c0,1.8,-1.4,3.2,-3.2,3.2Z" class="g4_10"/>
<path d="M414.4,126.1c2.1,0,3.8,-1.6,3.8,-3.7c0,-2.1,-1.7,-3.8,-3.8,-3.8c-2.1,0,-3.8,1.7,-3.8,3.8c0,2.1,1.7,3.7,3.8,3.7Z" class="g6_10"/>
<path d="M414.4,126.1v.6c2.4,0,4.3,-1.9,4.3,-4.3c0,-2.4,-1.9,-4.3,-4.3,-4.3c-2.4,0,-4.3,1.9,-4.3,4.3c0,2.4,1.9,4.3,4.3,4.3v-1.1c-1.8,0,-3.2,-1.5,-3.2,-3.2c0,-1.8,1.4,-3.2,3.2,-3.2c1.8,0,3.2,1.4,3.2,3.2c0,1.7,-1.4,3.2,-3.2,3.2Z" class="g4_10"/>
<image clip-path="url(#cn_10)" preserveAspectRatio="none" x="431" y="100" width="12" height="18" xlink:href="img/24.jpg"/>
<path d="M421.8,123.4h28.6v-1.6H421.8Z" class="g4_10"/>
<image clip-path="url(#co_10)" preserveAspectRatio="none" x="775" y="91" width="14" height="10" xlink:href="img/25.png"/>
<image clip-path="url(#cp_10)" preserveAspectRatio="none" x="787" y="99" width="43" height="29" xlink:href="img/26.jpg"/>
<image clip-path="url(#cq_10)" preserveAspectRatio="none" x="754" y="94" width="13" height="7" xlink:href="img/27.png"/>
<path d="M243.3,1191.1V1163h-.8v28.1Z" class="g7_10"/>
<path d="M177.9,1162.2v-23.3h-.7v23.3Z" class="g7_10"/>
<path d="M177.9,1191.1v-28.9h-.7v28.9Z" class="g7_10"/>
<path d="M39.9,1213.6v0l.2,-.2l-.2,-.2l-.2,.2Zm.8,0v0l.2,-.2l-.2,-.2l-.2,.2Zm.8,0v0l.2,-.2l-.2,-.2l-.2,.2Zm.7,0v0l.2,-.2l-.2,-.2l-.2,.2Zm.8,0v0l.2,-.2l-.2,-.2l-.2,.2Zm.8,0v0l.1,-.2l-.1,-.2l-.2,.2Zm.7,0v0l.2,-.2l-.2,-.2l-.2,.2Zm.8,0v0l.2,-.2l-.2,-.2l-.2,.2Zm.7,0v0l.2,-.2l-.2,-.2l-.1,.2Zm.8,0v0l.2,-.2l-.2,-.2l-.2,.2Zm.8,0v0l.2,-.2l-.2,-.2l-.2,.2Zm.7,0v0l.2,-.2l-.2,-.2l-.1,.2Zm.8,0v0l.2,-.2l-.2,-.2l-.2,.2Zm.8,0v0l.2,-.2l-.2,-.2l-.2,.2Zm.7,0v0l.2,-.2l-.2,-.2l-.2,.2Zm.8,0v0l.2,-.2l-.2,-.2l-.2,.2Zm.8,0v0l.2,-.2l-.2,-.2l-.2,.2Zm.7,0v0l.2,-.2l-.2,-.2l-.2,.2Zm.8,0v0l.2,-.2l-.2,-.2l-.2,.2Zm.8,0v0l.2,-.2l-.2,-.2l-.2,.2Zm.7,0v0l.2,-.2l-.2,-.2l-.2,.2Zm.8,0v0l.2,-.2l-.2,-.2l-.2,.2Zm.8,0v0l.1,-.2l-.1,-.2l-.2,.2Zm.7,0v0l.2,-.2l-.2,-.2l-.2,.2Zm.8,0v0l.2,-.2l-.2,-.2l-.2,.2Zm.7,0v0l.2,-.2l-.2,-.2l-.1,.2Zm.8,0v0l.2,-.2l-.2,-.2l-.2,.2Zm.8,0v0l.2,-.2l-.2,-.2l-.2,.2Zm.7,0v0l.2,-.2l-.2,-.2l-.2,.2Zm.8,0v0l.2,-.2l-.2,-.2l-.2,.2Zm.8,0v0l.2,-.2l-.2,-.2l-.2,.2Zm.7,0v0l.2,-.2l-.2,-.2l-.2,.2Zm.8,0v0l.2,-.2l-.2,-.2l-.2,.2Zm.8,0v0l.2,-.2l-.2,-.2l-.2,.2Zm.7,0v0l.2,-.2l-.2,-.2l-.2,.2Zm.8,0v0l.2,-.2l-.2,-.2l-.2,.2Zm.8,0v0l.1,-.2l-.1,-.2l-.2,.2Zm.7,0v0l.2,-.2l-.2,-.2l-.2,.2Zm.8,0v0l.2,-.2l-.2,-.2l-.2,.2Zm.8,0v0l.1,-.2l-.1,-.2l-.2,.2Zm.7,0v0l.2,-.2l-.2,-.2l-.2,.2Zm.8,0v0l.2,-.2l-.2,-.2l-.2,.2Zm.7,0v0l.2,-.2l-.2,-.2l-.1,.2Zm.8,0v0l.2,-.2l-.2,-.2l-.2,.2Zm.8,0v0l.2,-.2l-.2,-.2l-.2,.2Zm.7,0v0l.2,-.2l-.2,-.2l-.2,.2Zm.8,0v0l.2,-.2l-.2,-.2l-.2,.2Zm.8,0v0l.2,-.2l-.2,-.2l-.2,.2Zm.7,0v0l.2,-.2l-.2,-.2l-.2,.2Zm.8,0v0l.2,-.2l-.2,-.2l-.2,.2Zm.8,0v0l.2,-.2l-.2,-.2l-.2,.2Zm.7,0v0l.2,-.2l-.2,-.2l-.2,.2Zm.8,0v0l.2,-.2l-.2,-.2l-.2,.2Zm.8,0v0l.1,-.2l-.1,-.2l-.2,.2Zm.7,0v0l.2,-.2l-.2,-.2l-.2,.2Zm.8,0v0l.2,-.2l-.2,-.2l-.2,.2Zm.7,0v0l.2,-.2l-.2,-.2l-.1,.2Zm.8,0v0l.2,-.2l-.2,-.2l-.2,.2Zm.8,0v0l.2,-.2l-.2,-.2l-.2,.2Zm.7,0v0l.2,-.2l-.2,-.2l-.1,.2Zm.8,0v0l.2,-.2l-.2,-.2l-.2,.2Zm.8,0v0l.2,-.2l-.2,-.2l-.2,.2Zm.7,0v0l.2,-.2l-.2,-.2l-.2,.2Zm.8,0v0l.2,-.2l-.2,-.2l-.2,.2Zm.8,0v0l.2,-.2l-.2,-.2l-.2,.2Zm.7,0v0l.2,-.2l-.2,-.2l-.2,.2Zm.8,0v0l.2,-.2l-.2,-.2l-.2,.2Zm.8,0v0l.2,-.2l-.2,-.2l-.2,.2Zm.7,0v0l.2,-.2l-.2,-.2l-.2,.2Zm.8,0v0l.2,-.2l-.2,-.2l-.2,.2Zm.8,0v0l.1,-.2l-.1,-.2l-.2,.2Zm.7,0v0l.2,-.2l-.2,-.2l-.2,.2Zm.8,0v0l.2,-.2l-.2,-.2l-.2,.2Zm.7,0v0l.2,-.2l-.2,-.2l-.1,.2Zm.8,0v0l.2,-.2l-.2,-.2l-.2,.2Zm.8,0v0l.2,-.2l-.2,-.2l-.2,.2Zm.7,0v0l.2,-.2l-.2,-.2l-.2,.2Zm.8,0v0l.2,-.2l-.2,-.2l-.2,.2Zm.8,0v0l.2,-.2l-.2,-.2l-.2,.2Zm.7,0v0l.2,-.2l-.2,-.2l-.2,.2Zm.8,0v0l.2,-.2l-.2,-.2l-.2,.2Zm.8,0v0l.2,-.2l-.2,-.2l-.2,.2Zm.7,0v0l.2,-.2l-.2,-.2l-.2,.2Zm.8,0v0l.2,-.2l-.2,-.2l-.2,.2Zm.8,0v0l.1,-.2l-.1,-.2l-.2,.2Zm.7,0v0l.2,-.2l-.2,-.2l-.2,.2Zm.8,0v0l.2,-.2l-.2,-.2l-.2,.2Zm.8,0v0l.1,-.2l-.1,-.2l-.2,.2Zm.7,0v0l.2,-.2l-.2,-.2l-.2,.2Zm.8,0v0l.2,-.2l-.2,-.2l-.2,.2Zm.7,0v0l.2,-.2l-.2,-.2l-.1,.2Zm.8,0v0l.2,-.2l-.2,-.2l-.2,.2Zm.8,0v0l.2,-.2l-.2,-.2l-.2,.2Zm.7,0v0l.2,-.2l-.2,-.2l-.2,.2Zm.8,0v0l.2,-.2l-.2,-.2l-.2,.2Zm.8,0v0l.2,-.2l-.2,-.2l-.2,.2Zm.7,0v0l.2,-.2l-.2,-.2l-.2,.2Zm.8,0v0l.2,-.2l-.2,-.2l-.2,.2Zm.8,0v0l.2,-.2l-.2,-.2l-.2,.2Zm.7,0v0l.2,-.2l-.2,-.2l-.2,.2Zm.8,0v0l.2,-.2l-.2,-.2l-.2,.2Zm.8,0v0l.1,-.2l-.1,-.2l-.2,.2Zm.7,0v0l.2,-.2l-.2,-.2l-.2,.2Zm.8,0v0l.2,-.2l-.2,-.2l-.2,.2Zm.7,0v0l.2,-.2l-.2,-.2l-.1,.2Zm.8,0v0l.2,-.2l-.2,-.2l-.2,.2Zm.8,0v0l.2,-.2l-.2,-.2l-.2,.2Zm.7,0v0l.2,-.2l-.2,-.2l-.1,.2Zm.8,0v0l.2,-.2l-.2,-.2l-.2,.2Zm.8,0v0l.2,-.2l-.2,-.2l-.2,.2Zm.7,0v0l.2,-.2l-.2,-.2l-.2,.2Zm.8,0v0l.2,-.2l-.2,-.2l-.2,.2Zm.8,0v0l.2,-.2l-.2,-.2l-.2,.2Zm.7,0v0l.2,-.2l-.2,-.2l-.2,.2Zm.8,0v0l.2,-.2l-.2,-.2l-.2,.2Zm.8,0v0l.2,-.2l-.2,-.2l-.2,.2Zm.7,0v0l.2,-.2l-.2,-.2l-.2,.2Zm.8,0v0l.2,-.2l-.2,-.2l-.2,.2Zm.8,0v0l.1,-.2l-.1,-.2l-.2,.2Zm.7,0v0l.2,-.2l-.2,-.2l-.2,.2Zm.8,0v0l.2,-.2l-.2,-.2l-.2,.2Zm.7,0v0l.2,-.2l-.2,-.2l-.1,.2Zm.8,0v0l.2,-.2l-.2,-.2l-.2,.2Zm.8,0v0l.2,-.2l-.2,-.2l-.2,.2Zm.7,0v0l.2,-.2l-.2,-.2l-.1,.2Zm.8,0v0l.2,-.2l-.2,-.2l-.2,.2Zm.8,0v0l.2,-.2l-.2,-.2l-.2,.2Zm.7,0v0l.2,-.2l-.2,-.2l-.2,.2Zm.8,0v0l.2,-.2l-.2,-.2l-.2,.2Zm.8,0v0l.2,-.2l-.2,-.2l-.2,.2Zm.7,0v0l.2,-.2l-.2,-.2l-.2,.2Zm.8,0v0l.2,-.2l-.2,-.2l-.2,.2Zm.8,0v0l.1,-.2l-.1,-.2l-.2,.2Zm.7,0v0l.2,-.2l-.2,-.2l-.2,.2Zm.8,0v0l.2,-.2l-.2,-.2l-.2,.2Zm.8,0v0l.1,-.2l-.1,-.2l-.2,.2Zm.7,0v0l.2,-.2l-.2,-.2l-.2,.2Zm.8,0v0l.2,-.2l-.2,-.2l-.2,.2Zm.7,0v0l.2,-.2l-.2,-.2l-.1,.2Zm.8,0v0l.2,-.2l-.2,-.2l-.2,.2Zm.8,0v0l.2,-.2l-.2,-.2l-.2,.2Zm.7,0v0l.2,-.2l-.2,-.2l-.2,.2Zm.8,0v0l.2,-.2l-.2,-.2l-.2,.2Zm.8,0v0l.2,-.2l-.2,-.2l-.2,.2Zm.7,0v0l.2,-.2l-.2,-.2l-.2,.2Zm.8,0v0l.2,-.2l-.2,-.2l-.2,.2Zm.8,0v0l.2,-.2l-.2,-.2l-.2,.2Zm.7,0v0l.2,-.2l-.2,-.2l-.2,.2Zm.8,0v0l.2,-.2l-.2,-.2l-.2,.2Zm.8,0v0l.1,-.2l-.1,-.2l-.2,.2Zm.7,0v0l.2,-.2l-.2,-.2l-.2,.2Zm.8,0v0l.2,-.2l-.2,-.2l-.2,.2Zm.7,0v0l.2,-.2l-.2,-.2l-.1,.2Zm.8,0v0l.2,-.2l-.2,-.2l-.2,.2Zm.8,0v0l.2,-.2l-.2,-.2l-.2,.2Zm.7,0v0l.2,-.2l-.2,-.2l-.1,.2Zm.8,0v0l.2,-.2l-.2,-.2l-.2,.2Zm.8,0v0l.2,-.2l-.2,-.2l-.2,.2Zm.7,0v0l.2,-.2l-.2,-.2l-.2,.2Zm.8,0v0l.2,-.2l-.2,-.2l-.2,.2Zm.8,0v0l.2,-.2l-.2,-.2l-.2,.2Zm.7,0v0l.2,-.2l-.2,-.2l-.2,.2Zm.8,0v0l.2,-.2l-.2,-.2l-.2,.2Zm.8,0v0l.2,-.2l-.2,-.2l-.2,.2Zm.7,0v0l.2,-.2l-.2,-.2l-.2,.2Zm.8,0v0l.2,-.2l-.2,-.2l-.2,.2Zm.8,0v0l.1,-.2l-.1,-.2l-.2,.2Zm.7,0v0l.2,-.2l-.2,-.2l-.2,.2Zm.8,0v0l.2,-.2l-.2,-.2l-.2,.2Zm.7,0v0l.2,-.2l-.2,-.2l-.1,.2Zm.8,0v0l.2,-.2l-.2,-.2l-.2,.2Zm.8,0v0l.2,-.2l-.2,-.2l-.2,.2Zm.7,0v0l.2,-.2l-.2,-.2l-.1,.2Zm.8,0v0l.2,-.2l-.2,-.2l-.2,.2Zm.8,0v0l.2,-.2l-.2,-.2l-.2,.2Zm.7,0v0l.2,-.2l-.2,-.2l-.2,.2Zm.8,0v0l.2,-.2l-.2,-.2l-.2,.2Zm.8,0v0l.2,-.2l-.2,-.2l-.2,.2Zm.7,0v0l.2,-.2l-.2,-.2l-.2,.2Zm.8,0v0l.2,-.2l-.2,-.2l-.2,.2Z" class="g3_10"/>
<path d="M39.2,1213.6l.1,-.1l.1,-.1l-.1,-.1l-.1,-.1l-.2,.1v.2Zm138.4,0l.1,-.1l.1,-.1l-.1,-.1l-.1,-.1l-.2,.1v.2Z" class="g3_10"/>
<path d="M177.9,1213.2v-19.8h-.7v19.8Z" class="g7_10"/>
<path d="M177.9,1246.9v-33.3h-.7v33.3Z" class="g7_10"/>
<path d="M177.9,1163h65v-1.6h-65Z" class="g5_10"/>
<path d="M242.9,1163h65.3v-1.6H242.9Z" class="g5_10"/>
<path d="M178.3,1213.6v0l.2,-.2l-.2,-.2l-.2,.2Zm.8,0v0l.2,-.2l-.2,-.2l-.2,.2Zm.7,0v0l.2,-.2l-.2,-.2l-.2,.2Zm.8,0v0l.2,-.2l-.2,-.2l-.2,.2Zm.8,0v0l.1,-.2l-.1,-.2l-.2,.2Zm.7,0v0l.2,-.2l-.2,-.2l-.2,.2Zm.8,0v0l.2,-.2l-.2,-.2l-.2,.2Zm.7,0v0l.2,-.2l-.2,-.2l-.2,.2Zm.8,0v0l.2,-.2l-.2,-.2l-.2,.2Zm.8,0v0l.1,-.2l-.1,-.2l-.2,.2Zm.7,0v0l.2,-.2l-.2,-.2l-.2,.2Zm.8,0v0l.2,-.2l-.2,-.2l-.2,.2Zm.7,0v0l.2,-.2l-.2,-.2l-.2,.2Zm.8,0v0l.2,-.2l-.2,-.2l-.2,.2Zm.8,0v0l.1,-.2l-.1,-.2l-.2,.2Zm.7,0v0l.2,-.2l-.2,-.2l-.2,.2Zm.8,0v0l.2,-.2l-.2,-.2l-.2,.2Zm.7,0v0l.2,-.2l-.2,-.2l-.2,.2Zm.8,0v0l.2,-.2l-.2,-.2l-.2,.2Zm.8,0v0l.1,-.2l-.1,-.2l-.2,.2Zm.7,0v0l.2,-.2l-.2,-.2l-.2,.2Zm.8,0v0l.2,-.2l-.2,-.2l-.2,.2Zm.7,0v0l.2,-.2l-.2,-.2l-.2,.2Zm.8,0v0l.2,-.2l-.2,-.2l-.2,.2Zm.8,0v0l.1,-.2l-.1,-.2l-.2,.2Zm.7,0v0l.2,-.2l-.2,-.2l-.2,.2Zm.8,0v0l.2,-.2l-.2,-.2l-.2,.2Zm.7,0v0l.2,-.2l-.2,-.2l-.2,.2Zm.8,0v0l.2,-.2l-.2,-.2l-.2,.2Zm.8,0v0l.1,-.2l-.1,-.2l-.2,.2Zm.7,0v0l.2,-.2l-.2,-.2l-.2,.2Zm.8,0v0l.2,-.2l-.2,-.2l-.2,.2Zm.7,0v0l.2,-.2l-.2,-.2l-.2,.2Zm.8,0v0l.2,-.2l-.2,-.2l-.2,.2Zm.8,0v0l.1,-.2l-.1,-.2l-.2,.2Zm.7,0v0l.2,-.2l-.2,-.2l-.2,.2Zm.8,0v0l.2,-.2l-.2,-.2l-.2,.2Zm.7,0v0l.2,-.2l-.2,-.2l-.2,.2Zm.8,0v0l.2,-.2l-.2,-.2l-.2,.2Zm.8,0v0l.1,-.2l-.1,-.2l-.2,.2Zm.7,0v0l.2,-.2l-.2,-.2l-.2,.2Zm.8,0v0l.2,-.2l-.2,-.2l-.2,.2Zm.7,0v0l.2,-.2l-.2,-.2l-.2,.2Zm.8,0v0l.2,-.2l-.2,-.2l-.2,.2Zm.7,0v0l.2,-.2l-.2,-.2l-.1,.2Zm.8,0v0l.2,-.2l-.2,-.2l-.2,.2Zm.8,0v0l.2,-.2l-.2,-.2l-.2,.2Zm.7,0v0l.2,-.2l-.2,-.2l-.2,.2Zm.8,0v0l.2,-.2l-.2,-.2l-.2,.2Zm.7,0v0l.2,-.2l-.2,-.2l-.1,.2Zm.8,0v0l.2,-.2l-.2,-.2l-.2,.2Zm.8,0v0l.2,-.2l-.2,-.2l-.2,.2Zm.7,0v0l.2,-.2l-.2,-.2l-.2,.2Zm.8,0v0l.2,-.2l-.2,-.2l-.2,.2Zm.7,0v0l.2,-.2l-.2,-.2l-.1,.2Zm.8,0v0l.2,-.2l-.2,-.2l-.2,.2Zm.8,0v0l.2,-.2l-.2,-.2l-.2,.2Zm.7,0v0l.2,-.2l-.2,-.2l-.2,.2Zm.8,0v0l.2,-.2l-.2,-.2l-.2,.2Zm.7,0v0l.2,-.2l-.2,-.2l-.1,.2Zm.8,0v0l.2,-.2l-.2,-.2l-.2,.2Zm.8,0v0l.2,-.2l-.2,-.2l-.2,.2Zm.7,0v0l.2,-.2l-.2,-.2l-.2,.2Zm.8,0v0l.2,-.2l-.2,-.2l-.2,.2Zm.7,0v0l.2,-.2l-.2,-.2l-.1,.2Zm.8,0v0l.2,-.2l-.2,-.2l-.2,.2Zm.8,0v0l.2,-.2l-.2,-.2l-.2,.2Zm.7,0v0l.2,-.2l-.2,-.2l-.2,.2Zm.8,0v0l.2,-.2l-.2,-.2l-.2,.2Zm.7,0v0l.2,-.2l-.2,-.2l-.1,.2Zm.8,0v0l.2,-.2l-.2,-.2l-.2,.2Zm.8,0v0l.2,-.2l-.2,-.2l-.2,.2Zm.7,0v0l.2,-.2l-.2,-.2l-.2,.2Zm.8,0v0l.2,-.2l-.2,-.2l-.2,.2Zm.7,0v0l.2,-.2l-.2,-.2l-.1,.2Zm.8,0v0l.2,-.2l-.2,-.2l-.2,.2Zm.8,0v0l.2,-.2l-.2,-.2l-.2,.2Zm.7,0v0l.2,-.2l-.2,-.2l-.2,.2Zm.8,0v0l.2,-.2l-.2,-.2l-.2,.2Zm.7,0v0l.2,-.2l-.2,-.2l-.1,.2Zm.8,0v0l.2,-.2l-.2,-.2l-.2,.2Zm.8,0v0l.2,-.2l-.2,-.2l-.2,.2Zm.7,0v0l.2,-.2l-.2,-.2l-.2,.2Zm.8,0v0l.2,-.2l-.2,-.2l-.2,.2Zm.7,0v0l.2,-.2l-.2,-.2l-.1,.2Z" class="g3_10"/>
<path d="M177.6,1213.6l.1,-.1v-.2l-.1,-.1l-.2,.1v.2Zm65.3,0l.1,-.1l.1,-.1l-.1,-.1l-.1,-.1l-.1,.1l-.1,.1l.1,.1Z" class="g3_10"/>
<path d="M243.7,1213.6v0l.2,-.2l-.2,-.2l-.2,.2Zm.7,0v0l.2,-.2l-.2,-.2l-.2,.2Zm.8,0v0l.2,-.2l-.2,-.2l-.2,.2Zm.8,0v0l.2,-.2l-.2,-.2l-.2,.2Zm.7,0v0l.2,-.2l-.2,-.2l-.2,.2Zm.8,0v0l.2,-.2l-.2,-.2l-.2,.2Zm.8,0v0l.2,-.2l-.2,-.2l-.2,.2Zm.7,0v0l.2,-.2l-.2,-.2l-.2,.2Zm.8,0v0l.2,-.2l-.2,-.2l-.2,.2Zm.8,0v0l.2,-.2l-.2,-.2l-.2,.2Zm.7,0v0l.2,-.2l-.2,-.2l-.2,.2Zm.8,0v0l.2,-.2l-.2,-.2l-.2,.2Zm.8,0v0l.2,-.2l-.2,-.2l-.2,.2Zm.7,0v0l.2,-.2l-.2,-.2l-.2,.2Zm.8,0v0l.2,-.2l-.2,-.2l-.2,.2Zm.8,0v0l.2,-.2l-.2,-.2l-.2,.2Zm.7,0v0l.2,-.2l-.2,-.2l-.2,.2Zm.8,0v0l.2,-.2l-.2,-.2l-.2,.2Zm.8,0v0l.2,-.2l-.2,-.2l-.2,.2Zm.7,0v0l.2,-.2l-.2,-.2l-.2,.2Zm.8,0v0l.2,-.2l-.2,-.2l-.2,.2Zm.8,0v0l.2,-.2l-.2,-.2l-.2,.2Zm.7,0v0l.2,-.2l-.2,-.2l-.2,.2Zm.8,0v0l.2,-.2l-.2,-.2l-.2,.2Zm.8,0v0l.2,-.2l-.2,-.2l-.2,.2Zm.7,0v0l.2,-.2l-.2,-.2l-.2,.2Zm.8,0v0l.2,-.2l-.2,-.2l-.2,.2Zm.8,0v0l.2,-.2l-.2,-.2l-.2,.2Zm.7,0v0l.2,-.2l-.2,-.2l-.2,.2Zm.8,0v0l.2,-.2l-.2,-.2l-.2,.2Zm.8,0v0l.2,-.2l-.2,-.2l-.2,.2Zm.7,0v0l.2,-.2l-.2,-.2l-.2,.2Zm.8,0v0l.2,-.2l-.2,-.2l-.2,.2Zm.8,0v0l.2,-.2l-.2,-.2l-.2,.2Zm.7,0v0l.2,-.2l-.2,-.2l-.2,.2Zm.8,0v0l.2,-.2l-.2,-.2l-.2,.2Zm.8,0v0l.2,-.2l-.2,-.2l-.2,.2Zm.7,0v0l.2,-.2l-.2,-.2l-.2,.2Zm.8,0v0l.2,-.2l-.2,-.2l-.2,.2Zm.8,0v0l.2,-.2l-.2,-.2l-.2,.2Zm.7,0v0l.2,-.2l-.2,-.2l-.2,.2Zm.8,0v0l.2,-.2l-.2,-.2l-.2,.2Zm.8,0v0l.2,-.2l-.2,-.2l-.2,.2Zm.7,0v0l.2,-.2l-.2,-.2l-.2,.2Zm.8,0v0l.2,-.2l-.2,-.2l-.2,.2Zm.8,0v0l.2,-.2l-.2,-.2l-.2,.2Zm.7,0v0l.2,-.2l-.2,-.2l-.2,.2Zm.8,0v0l.2,-.2l-.2,-.2l-.2,.2Zm.8,0v0l.2,-.2l-.2,-.2l-.2,.2Zm.7,0v0l.2,-.2l-.2,-.2l-.2,.2Zm.8,0v0l.2,-.2l-.2,-.2l-.2,.2Zm.8,0v0l.2,-.2l-.2,-.2l-.2,.2Zm.7,0v0l.2,-.2l-.2,-.2l-.2,.2Zm.8,0v0l.2,-.2l-.2,-.2l-.2,.2Zm.8,0v0l.1,-.2l-.1,-.2l-.2,.2Zm.7,0v0l.2,-.2l-.2,-.2l-.2,.2Zm.8,0v0l.2,-.2l-.2,-.2l-.2,.2Zm.8,0v0l.1,-.2l-.1,-.2l-.2,.2Zm.7,0v0l.2,-.2l-.2,-.2l-.2,.2Zm.8,0v0l.2,-.2l-.2,-.2l-.2,.2Zm.8,0v0l.1,-.2l-.1,-.2l-.2,.2Zm.7,0v0l.2,-.2l-.2,-.2l-.2,.2Zm.8,0v0l.2,-.2l-.2,-.2l-.2,.2Zm.8,0v0l.1,-.2l-.1,-.2l-.2,.2Zm.7,0v0l.2,-.2l-.2,-.2l-.2,.2Zm.8,0v0l.2,-.2l-.2,-.2l-.2,.2Zm.8,0v0l.1,-.2l-.1,-.2l-.2,.2Zm.7,0v0l.2,-.2l-.2,-.2l-.2,.2Zm.8,0v0l.2,-.2l-.2,-.2l-.2,.2Zm.8,0v0l.1,-.2l-.1,-.2l-.2,.2Zm.7,0v0l.2,-.2l-.2,-.2l-.2,.2Zm.8,0v0l.2,-.2l-.2,-.2l-.2,.2Zm.8,0v0l.1,-.2l-.1,-.2l-.2,.2Zm.7,0v0l.2,-.2l-.2,-.2l-.2,.2Zm.8,0v0l.2,-.2l-.2,-.2l-.2,.2Zm.8,0v0l.1,-.2l-.1,-.2l-.2,.2Zm.7,0v0l.2,-.2l-.2,-.2l-.2,.2Zm.8,0v0l.2,-.2l-.2,-.2l-.2,.2Zm.8,0v0l.1,-.2l-.1,-.2l-.2,.2Zm.7,0v0l.2,-.2l-.2,-.2l-.2,.2Zm.8,0v0l.2,-.2l-.2,-.2l-.2,.2Zm.8,0v0l.1,-.2l-.1,-.2l-.2,.2Zm.7,0v0l.2,-.2l-.2,-.2l-.2,.2Zm.8,0v0l.2,-.2l-.2,-.2l-.2,.2Z" class="g3_10"/>
<path d="M242.9,1213.6l.1,-.1l.1,-.1l-.1,-.1l-.1,-.1l-.1,.1l-.1,.1l.1,.1Zm65.2,0l.1,-.1v-.2l-.1,-.1l-.2,.1v.2Z" class="g3_10"/>
<path d="M39,1193.4H177.6v-2.3H39Z" class="g5_10"/>
<path d="M177.6,1193.4h65.3v-2.3H177.6Z" class="g5_10"/>
<path d="M242.9,1193.4h65.3v-2.3H242.9Z" class="g5_10"/>
<path d="M243.3,1161.4v-22.5h-.8v22.5Z" class="g7_10"/>
</svg>