<?xml version="1.0" encoding="UTF-8" standalone="no"?>
<!DOCTYPE svg PUBLIC "-//W3C//DTD SVG 1.1//EN"
"http://www.w3.org/Graphics/SVG/1.1/DTD/svg11.dtd">
<svg viewBox="0 0 909 1286" version="1.1" xmlns="http://www.w3.org/2000/svg" xmlns:xlink="http://www.w3.org/1999/xlink">
<defs>
<clipPath id="c0_1"><path d="M809.4,1084.8l81.9,-122c5.6,-8.3,11.7,-16.2,18.1,-23.7v71.7l-49.7,74Zm-83,-315.5c5.3,0,10.7,-2,14.8,-6.1c8.1,-8.1,8.1,-21.4,0,-29.5c-4.1,-4.1,-9.5,-6.1,-14.8,-6.1c-5.4,0,-10.7,2,-14.8,6.1c-8.1,8.1,-8.1,21.4,0,29.5c4.1,4.1,9.4,6.1,14.8,6.1ZM0,1286.2V0H909.4V880.2c-19.9,17.1,-37.7,37,-52.7,59.4l-84.6,125.8l-.1,.1v.1c-5.1,7.4,-11.1,13.9,-18,19.2H651.5c-19.6,-15.3,-32.3,-39.1,-32.3,-65.9c0,-22.3,8.7,-43.3,24.4,-59.1c4.1,-4.1,6.2,-9.4,6.2,-14.7c0,-5.4,-2.1,-10.7,-6.2,-14.8c-4,-4.1,-9.4,-6.1,-14.7,-6.1c-5.4,0,-10.7,2,-14.8,6.1c-23.7,23.7,-36.7,55.1,-36.7,88.6c0,24.2,6.9,46.8,18.8,65.9h-47c-8.9,-20.7,-13.6,-43.1,-13.6,-65.9c0,-92.1,75,-167.1,167.1,-167.1c19,0,37.6,3.2,55.3,9.4c2.3,.8,4.6,1.2,6.9,1.2c8.6,0,16.7,-5.4,19.7,-14c3.8,-10.9,-1.9,-22.8,-12.8,-26.6C749.6,814,726.4,810.1,702.7,810.1c-115.1,0,-208.8,93.7,-208.8,208.8c0,22.6,3.6,44.8,10.6,65.9H460.9c-5.7,-21,-8.8,-43.1,-8.8,-65.9c0,-122,87.1,-225.8,207.1,-246.8c11.3,-2,18.9,-12.8,16.9,-24.2c-1.8,-10.2,-10.6,-17.3,-20.6,-17.3c-1.2,0,-2.3,.1,-3.5,.3c-140,24.5,-241.6,145.7,-241.6,288c0,38.9,7.6,76.1,21.5,110.1v157.2Z"/></clipPath>
<clipPath id="c1_1"><path d="M545.4,901.8V881.7C583.7,837.8,640,810.1,702.7,810.1c23.7,0,46.9,3.9,69.1,11.7c10.9,3.8,16.6,15.7,12.8,26.6c-3,8.6,-11.1,14,-19.7,14c-2.3,0,-4.6,-.4,-6.9,-1.2c-17.7,-6.2,-36.3,-9.4,-55.3,-9.4c-46.5,0,-88.7,19.2,-119,50Z"/></clipPath>
<clipPath id="c2_1"><path d="M504.5,1084.8c-7,-21.1,-10.6,-43.3,-10.6,-65.9c0,-52.8,19.7,-101,52.1,-137.8v80c-6.7,18,-10.4,37.5,-10.4,57.8c0,19.9,3.6,39.5,10.4,57.9v8Z"/></clipPath>
<clipPath id="c3_1"><path d="M545.4,962.6V901.2h38.8c-17.1,17.2,-30.4,38.1,-38.8,61.4Z"/></clipPath>
<clipPath id="c4_1"><path d="M859.7,1084.8l49.7,-74v74Z"/></clipPath>
<clipPath id="c5_1"><path d="M545.4,1084.8v-9.5c1.2,3.2,2.4,6.4,3.8,9.5Z"/></clipPath>
<clipPath id="c6_1"><path d="M506.8,828.1V801.6C546.4,765.9,596.1,740.7,652,730.9c.3,0,.7,-.1,1,-.1v42.4c-43,8.7,-81.5,28,-113.1,54.9Z"/></clipPath>
<clipPath id="c7_1"><path d="M652.5,773.4V730.9c1,-.2,2,-.3,3,-.3c10,0,18.8,7.1,20.6,17.3c2,11.4,-5.6,22.2,-16.9,24.2c-2.3,.4,-4.5,.8,-6.7,1.3Zm73.9,-4.1c-5.4,0,-10.7,-2,-14.8,-6.1c-8.1,-8.1,-8.1,-21.4,0,-29.5c4.1,-4.1,9.4,-6.1,14.8,-6.1c5.3,0,10.7,2,14.8,6.1c8.1,8.1,8.1,21.4,0,29.5c-4.1,4.1,-9.5,6.1,-14.8,6.1Z"/></clipPath>
<clipPath id="c8_1"><path d="M458.3,963.1v-105c13.8,-21.1,30.3,-40.2,49,-57v60.5c-23.5,29.3,-40.5,63.9,-49,101.5Z"/></clipPath>
<clipPath id="c9_1"><path d="M431.9,1129C418,1095,410.4,1057.8,410.4,1018.9c0,-59.4,17.7,-115.1,48.5,-161.7V960.8c-4.4,18.7,-6.8,38.1,-6.8,58.1c0,19.9,2.4,39.3,6.8,57.9v8h-27V1129Z"/></clipPath>
<clipPath id="ca_1"><path d="M506.8,862.3V827.6h33.8c-12.4,10.4,-23.7,22.1,-33.8,34.7Z"/></clipPath>
<clipPath id="cb_1"><path d="M458.3,1084.8v-10.4c.8,3.5,1.7,7,2.6,10.4Z"/></clipPath>
<clipPath id="cc_1"><path d="M596.2,1084.8c-11.9,-19.1,-18.8,-41.7,-18.8,-65.9c0,-33.5,13,-64.9,36.7,-88.6c4.1,-4.1,9.4,-6.1,14.8,-6.1c5.3,0,10.7,2,14.7,6.1c4.1,4.1,6.2,9.4,6.2,14.8c0,5.3,-2.1,10.6,-6.2,14.7c-15.7,15.8,-24.4,36.8,-24.4,59.1c0,26.8,12.7,50.6,32.3,65.9Zm157.8,0c6.9,-5.3,12.9,-11.8,18,-19.2v-.1l.1,-.1L856.7,939.6c15,-22.4,32.8,-42.3,52.7,-59.4v58.9c-6.4,7.5,-12.5,15.4,-18.1,23.7l-81.9,122Z"/></clipPath>
<clipPath id="cd_1"><path d="M431.9,1286.2V1129c28.5,70,83.5,126.6,152.4,157.2Zm270.8,-16.7c-115.3,0,-212.7,-78.4,-241.8,-184.7h43.6c5.3,15.9,12.5,31.2,21.6,45.5c4,6.3,10.7,9.8,17.7,9.8c3.8,0,7.6,-1.1,11.1,-3.3c9.7,-6.1,12.7,-19,6.5,-28.8c-4.7,-7.4,-8.8,-15.2,-12.2,-23.2h47c22.1,35.6,61.6,59.4,106.5,59.4c40,0,77.3,-19,100.9,-51V1152c-28.6,21.8,-63.9,33.9,-100.9,33.9c-31.7,0,-62.5,-8.8,-89.1,-25.7c-3.5,-2.2,-7.3,-3.2,-11.2,-3.2c-6.9,0,-13.7,3.4,-17.6,9.7c-6.2,9.8,-3.3,22.7,6.5,28.8c33.3,21.1,71.8,32.2,111.4,32.2c35.9,0,70.5,-9.2,100.9,-26v46.6c-31.3,13.8,-65.6,21.2,-100.9,21.2Zm0,-167.1c-19.3,0,-37,-6.5,-51.2,-17.6H754c-14.5,11.3,-32.5,17.6,-51.3,17.6Z"/></clipPath>
<clipPath id="ce_1"><path d="M821.2,1286.2c32.7,-14.5,62.7,-35,88.2,-60.6v60.6Zm-18.1,-37.7V1202c28.9,-15.8,54.1,-38.5,73.1,-66.8l33.2,-49.6v75c-27,39.3,-64,69.4,-106.3,87.9Zm0,-96v-58.6c1.2,-1.6,2.4,-3.3,3.5,-4.9l.1,-.2l.1,-.1l2.6,-3.9h50.3l-18.2,27.1c-10.6,15.8,-23.7,29.5,-38.4,40.6Z"/></clipPath>
<clipPath id="cf_1"><path d="M543.8,1140.1c-7,0,-13.7,-3.5,-17.7,-9.8C517,1116,509.8,1100.7,504.5,1084.8h44.7c3.4,8,7.5,15.8,12.2,23.2c6.2,9.8,3.2,22.7,-6.5,28.8c-3.5,2.2,-7.3,3.3,-11.1,3.3Zm158.9,87.6c-39.6,0,-78.1,-11.1,-111.4,-32.2c-9.8,-6.1,-12.7,-19,-6.5,-28.8c3.9,-6.3,10.7,-9.7,17.6,-9.7c3.9,0,7.7,1,11.2,3.2c26.6,16.9,57.4,25.7,89.1,25.7c55.8,0,107.6,-27.6,138.8,-74l18.2,-27.1h49.7v.8l-33.2,49.6c-39,57.9,-103.8,92.5,-173.5,92.5Z"/></clipPath>
<clipPath id="cg_1"><path d="M484.9,1213.7c-22.2,-24.8,-40.3,-53.4,-53,-84.7v-44.2h29c5.6,20.5,13.7,39.9,24,57.9v71Z"/></clipPath>
<clipPath id="ch_1"><path d="M538,1260.3c-19.7,-13.5,-37.8,-29.4,-53.7,-47.2v-71.4c14.1,24.9,32.3,47.2,53.7,65.9v52.7Z"/></clipPath>
<clipPath id="ci_1"><path d="M856.2,1267.8V1217c20.3,-15.7,38.3,-34.7,53.2,-56.4v65c-16.1,16.2,-34,30.3,-53.2,42.2Z"/></clipPath>
<clipPath id="cj_1"><path d="M584.3,1286.2c-16.4,-7.3,-32.1,-16.1,-46.8,-26.2v-52.9c16.2,14.2,34.2,26.4,53.6,36.1v43Z"/></clipPath>
<clipPath id="ck_1"><path d="M803.1,1286.2v-37.7c19.1,-8.3,37.1,-19,53.6,-31.9v50.8c-11.4,7.1,-23.2,13.4,-35.5,18.8Z"/></clipPath>
<clipPath id="cl_1"><path d="M590.6,1286.2V1243c33.7,16.9,71.8,26.5,112.1,26.5c35.3,0,69.6,-7.4,100.9,-21.2v37.9Z"/></clipPath>
<clipPath id="cm_1"><path d="M702.7,1144.2c-44.9,0,-84.4,-23.8,-106.5,-59.4h55.3c14.2,11.1,31.9,17.6,51.2,17.6c18.8,0,36.8,-6.3,51.3,-17.6h55.4l-2.6,3.9l-.1,.1l-.1,.2c-23.4,34.5,-62.2,55.2,-103.9,55.2Z"/></clipPath>
<clipPath id="cn_1"><path d="M70.4,1242.6c-10.2,0,-18.4,-8.3,-18.4,-18.4v-94c0,-10.2,8.2,-18.4,18.4,-18.4h94c10.1,0,18.4,8.2,18.4,18.4v94c0,10.1,-8.3,18.4,-18.4,18.4Z"/></clipPath>
<style type="text/css"><![CDATA[
.g0_1{
fill: #5AC4C1;
}
.g1_1{
fill: #FFF;
}
]]></style>
</defs>
<image clip-path="url(#c0_1)" preserveAspectRatio="none" x="0" y="0" width="910" height="1286" xlink:href="img/1.jpg"/>
<image clip-path="url(#c1_1)" preserveAspectRatio="none" x="545" y="809" width="261" height="93" xlink:href="img/2.jpg"/>
<image clip-path="url(#c2_1)" preserveAspectRatio="none" x="493" y="855" width="53" height="230" xlink:href="img/3.jpg"/>
<image clip-path="url(#c3_1)" preserveAspectRatio="none" x="545" y="901" width="53" height="93" xlink:href="img/4.jpg"/>
<image clip-path="url(#c4_1)" preserveAspectRatio="none" x="857" y="993" width="53" height="92" xlink:href="img/5.jpg"/>
<image clip-path="url(#c5_1)" preserveAspectRatio="none" x="545" y="1039" width="53" height="46" xlink:href="img/6.jpg"/>
<image clip-path="url(#c6_1)" preserveAspectRatio="none" x="507" y="727" width="146" height="101" xlink:href="img/7.jpg"/>
<image clip-path="url(#c7_1)" preserveAspectRatio="none" x="652" y="727" width="98" height="51" xlink:href="img/8.jpg"/>
<image clip-path="url(#c8_1)" preserveAspectRatio="none" x="458" y="777" width="49" height="202" xlink:href="img/9.jpg"/>
<image clip-path="url(#c9_1)" preserveAspectRatio="none" x="410" y="828" width="49" height="302" xlink:href="img/10.jpg"/>
<image clip-path="url(#ca_1)" preserveAspectRatio="none" x="507" y="828" width="49" height="50" xlink:href="img/11.jpg"/>
<image clip-path="url(#cb_1)" preserveAspectRatio="none" x="458" y="1029" width="49" height="101" xlink:href="img/12.jpg"/>
<image clip-path="url(#cc_1)" preserveAspectRatio="none" x="577" y="880" width="333" height="205" xlink:href="img/13.jpg"/>
<image clip-path="url(#cd_1)" preserveAspectRatio="none" x="431" y="1084" width="373" height="203" xlink:href="img/14.jpg"/>
<image clip-path="url(#ce_1)" preserveAspectRatio="none" x="803" y="1084" width="107" height="203" xlink:href="img/15.jpg"/>
<image clip-path="url(#cf_1)" preserveAspectRatio="none" x="504" y="1085" width="406" height="143" xlink:href="img/16.jpg"/>
<image clip-path="url(#cg_1)" preserveAspectRatio="none" x="431" y="1084" width="54" height="152" xlink:href="img/17.jpg"/>
<image clip-path="url(#ch_1)" preserveAspectRatio="none" x="484" y="1135" width="54" height="152" xlink:href="img/18.jpg"/>
<image clip-path="url(#ci_1)" preserveAspectRatio="none" x="856" y="1135" width="54" height="152" xlink:href="img/19.jpg"/>
<image clip-path="url(#cj_1)" preserveAspectRatio="none" x="537" y="1185" width="54" height="102" xlink:href="img/20.jpg"/>
<image clip-path="url(#ck_1)" preserveAspectRatio="none" x="803" y="1185" width="54" height="102" xlink:href="img/21.jpg"/>
<image clip-path="url(#cl_1)" preserveAspectRatio="none" x="591" y="1236" width="213" height="51" xlink:href="img/22.jpg"/>
<image clip-path="url(#cm_1)" preserveAspectRatio="none" x="596" y="1085" width="214" height="59" xlink:href="img/23.jpg"/>
<path d="M60.6,404.7C55.8,404.7,52,400.8,52,396V323.7H504.6V396c0,4.8,-3.9,8.7,-8.7,8.7Z" class="g0_1"/>
<path d="M60.6,43.3C55.8,43.3,52,47.2,52,52V224H504.6V52c0,-4.8,-3.9,-8.7,-8.7,-8.7Z" class="g0_1"/>
<path d="M52,316.9H504.6V231H52v85.9Z" class="g1_1"/>
<path d="M272.4,246.3v55.2h1.2V246.3Z" class="g0_1"/>
<path d="M259.2,1111.8c-10.1,0,-18.3,8.2,-18.3,18.3v94.5c0,10.1,8.2,18.3,18.3,18.3h74.7c10.1,0,18.3,-8.2,18.3,-18.3v-94.5c0,-10.1,-8.2,-18.3,-18.3,-18.3Z" class="g0_1"/>
<path d="M264.4,1226.6h1.9c2.6,0,4,-2,4,-4.7c0,-2.8,-1.5,-4.8,-4,-4.8h-1.9c-.5,0,-.8,.2,-.8,.7v8.1c0,.5,.3,.7,.8,.7m.6,-1.2v-7.1h1.3c1.7,0,2.6,1.5,2.6,3.6c0,2,-.9,3.5,-2.6,3.5Zm7.6,1.2h3.8c.3,0,.6,-.2,.6,-.6c0,-.3,-.3,-.6,-.6,-.6h-3.2v-3h3.1c.3,0,.6,-.3,.6,-.6c0,-.4,-.3,-.6,-.6,-.6h-3.1v-2.9h3.2c.3,0,.6,-.3,.6,-.6c0,-.3,-.3,-.6,-.6,-.6h-3.8c-.5,0,-.8,.2,-.8,.7v8.1c0,.5,.3,.7,.8,.7m5.7,-.6c.7,.5,1.5,.8,2.6,.8c2,0,3,-1.2,3,-2.7c0,-1.8,-1.4,-2.5,-2.6,-3c-.9,-.5,-1.7,-.8,-1.7,-1.7c0,-.7,.6,-1.3,1.5,-1.3c.5,0,1,.2,1.5,.5l.4,.1c.3,0,.6,-.2,.6,-.6c0,-.2,-.1,-.4,-.3,-.5c-.7,-.4,-1.4,-.7,-2.2,-.7c-1.8,0,-2.9,1.1,-2.9,2.6c0,1.8,1.3,2.3,2.5,2.9c.9,.4,1.8,.8,1.8,1.8c0,.7,-.5,1.4,-1.6,1.4c-.7,0,-1.4,-.3,-1.9,-.7c-.1,0,-.2,-.1,-.3,-.1c-.4,0,-.6,.3,-.6,.7c0,.2,.1,.3,.2,.5m10.5,.8c1.3,0,2.1,-.7,2.6,-1.6l.1,-.3c0,-.3,-.3,-.6,-.6,-.6c-.2,0,-.4,.1,-.5,.3c-.4,.6,-.9,1,-1.6,1c-1.5,0,-2.4,-1.6,-2.4,-3.7c0,-2.2,.9,-3.8,2.4,-3.8c.6,0,1.2,.4,1.6,.9c.1,.2,.2,.3,.5,.3c.3,0,.6,-.3,.6,-.6l-.1,-.3c-.6,-.9,-1.4,-1.5,-2.6,-1.5c-2.3,0,-3.8,2.1,-3.8,5c0,2.8,1.5,4.9,3.8,4.9m4.1,-3.3c0,2.1,1.2,3.3,3.2,3.3c1.9,0,3.1,-1.2,3.1,-3.3v-5.8c0,-.4,-.3,-.7,-.6,-.7c-.4,0,-.7,.3,-.7,.7v5.8c0,1.4,-.7,2.1,-1.8,2.1c-1.2,0,-1.9,-.7,-1.9,-2.1v-5.8c0,-.4,-.3,-.7,-.6,-.7c-.4,0,-.7,.3,-.7,.7Zm9,3.1h3.8c.3,0,.6,-.2,.6,-.6c0,-.3,-.3,-.6,-.6,-.6h-3.2v-3h3.1c.3,0,.6,-.3,.6,-.6c0,-.4,-.3,-.6,-.6,-.6h-3.1v-2.9h3.2c.3,0,.6,-.3,.6,-.6c0,-.3,-.3,-.6,-.6,-.6h-3.8c-.5,0,-.7,.2,-.7,.7v8.1c0,.5,.2,.7,.7,.7m11.6,.1c.4,0,.7,-.4,.7,-.8v-8.2c0,-.4,-.3,-.7,-.6,-.7c-.4,0,-.7,.3,-.7,.7v6.2l-3.5,-6.4c-.1,-.3,-.4,-.5,-.7,-.5c-.5,0,-.9,.4,-.9,.9v8.1c0,.4,.3,.7,.7,.7c.4,0,.7,-.3,.7,-.7v-6.3l3.6,6.6c.1,.2,.3,.4,.7,.4m4.9,0c.4,0,.7,-.3,.7,-.7v-7.7h1.7c.3,0,.6,-.3,.6,-.6c0,-.3,-.3,-.6,-.6,-.6h-4.7c-.3,0,-.6,.3,-.6,.6c0,.3,.3,.6,.6,.6h1.7v7.7c0,.4,.3,.7,.6,.7m3.7,-4.8c0,2.8,1.3,4.9,3.7,4.9c2.3,0,3.7,-2.1,3.7,-4.9c0,-2.8,-1.4,-5,-3.7,-5c-2.4,0,-3.7,2.2,-3.7,5m6,0c0,2,-.8,3.7,-2.3,3.7c-1.5,0,-2.4,-1.7,-2.4,-3.7c0,-2.1,.9,-3.8,2.4,-3.8c1.5,0,2.3,1.7,2.3,3.8Z" class="g1_1"/>
<path d="M264.1,1146.4c1.2,1,2.8,1.5,4.7,1.5c3.7,0,5.5,-2.2,5.5,-4.8c0,-3.3,-2.5,-4.4,-4.7,-5.4c-1.7,-.8,-3.2,-1.5,-3.2,-2.9c0,-1.4,1.1,-2.3,2.7,-2.3c1,0,2,.3,2.9,.9c.2,.1,.4,.1,.6,.1c.6,0,1.1,-.5,1.1,-1.1c0,-.4,-.2,-.7,-.5,-.9c-1.2,-.8,-2.5,-1.2,-4,-1.2c-3.2,0,-5.3,2,-5.3,4.6c0,3.1,2.4,4.1,4.5,5.1c1.8,.8,3.4,1.5,3.4,3.2c0,1.4,-1,2.5,-3,2.5c-1.3,0,-2.4,-.4,-3.4,-1.1c-.1,-.2,-.4,-.2,-.6,-.2c-.7,0,-1.2,.5,-1.2,1.1c0,.4,.2,.7,.5,.9M277,1142c0,3.8,2.2,5.9,5.8,5.9c3.7,0,5.9,-2.1,5.9,-5.9v-10.3c0,-.7,-.6,-1.2,-1.3,-1.2c-.7,0,-1.2,.5,-1.2,1.2V1142c0,2.5,-1.3,3.8,-3.4,3.8c-2.1,0,-3.3,-1.3,-3.3,-3.8v-10.3c0,-.7,-.6,-1.2,-1.3,-1.2c-.7,0,-1.2,.5,-1.2,1.2Zm16.4,5.7c.7,0,1.3,-.5,1.3,-1.2V1141h3.1c3.3,0,5,-2.4,5,-5.2c0,-2.8,-1.7,-5.2,-5,-5.2h-4.3c-.9,0,-1.3,.4,-1.3,1.3v14.6c0,.7,.5,1.2,1.2,1.2m6.8,-11.9c0,1.8,-1,3.1,-2.7,3.1h-2.8v-6.2h2.8c1.7,0,2.7,1.3,2.7,3.1m6.4,11.8h7c.5,0,1.1,-.5,1.1,-1.1c0,-.6,-.6,-1,-1.1,-1h-5.8V1140h5.6c.6,0,1.1,-.5,1.1,-1.1c0,-.6,-.5,-1,-1.1,-1h-5.6v-5.2h5.8c.5,0,1.1,-.5,1.1,-1c0,-.6,-.6,-1.1,-1.1,-1.1h-7c-.9,0,-1.3,.4,-1.3,1.3v14.4c0,.9,.4,1.3,1.3,1.3m21.4,-1.7l-3,-5.4c1.6,-.4,3.1,-1.9,3.1,-4.7c0,-3.2,-2,-5.2,-4.9,-5.2h-4.4c-.9,0,-1.3,.4,-1.3,1.3v14.6c0,.7,.5,1.2,1.2,1.2c.7,0,1.3,-.5,1.3,-1.2V1141h2.6l3.2,6.1c.2,.4,.7,.6,1.2,.6c.7,0,1.2,-.6,1.2,-1.1c0,-.3,-.1,-.5,-.2,-.7m-8,-13.2h2.8c1.7,0,2.7,1.3,2.7,3.1c0,1.8,-1,3.1,-2.7,3.1H320Z" class="g1_1"/>
<path d="M264.8,1168.3c.6,0,1,-.5,1,-1.1v-4.9h2.9c2.9,0,4.4,-2.1,4.4,-4.6c0,-2.5,-1.5,-4.6,-4.4,-4.6h-3.9c-.7,0,-1.2,.4,-1.2,1.1v13c0,.6,.5,1.1,1.2,1.1m6,-10.6c0,1.6,-.9,2.7,-2.4,2.7h-2.6V1155h2.6c1.5,0,2.4,1.1,2.4,2.7m13.9,9l-2.7,-4.8c1.4,-.4,2.8,-1.7,2.8,-4.2c0,-2.8,-1.8,-4.6,-4.4,-4.6h-3.9c-.8,0,-1.2,.4,-1.2,1.1v13c0,.6,.5,1.1,1.1,1.1c.6,0,1.1,-.5,1.1,-1.1v-4.9h2.3l3,5.4c.1,.4,.5,.6,1,.6c.6,0,1,-.5,1,-1c0,-.3,0,-.4,-.1,-.6M277.5,1155h2.6c1.5,0,2.4,1.1,2.4,2.7c0,1.6,-.9,2.7,-2.4,2.7h-2.6Zm9.4,5.7c0,4.4,2.2,7.8,6.1,7.8c3.8,0,6,-3.4,6,-7.8c0,-4.5,-2.2,-7.9,-6,-7.9c-3.9,0,-6.1,3.4,-6.1,7.9m9.9,0c0,3.2,-1.4,5.9,-3.8,5.9c-2.5,0,-3.8,-2.7,-3.8,-5.9c0,-3.4,1.3,-6,3.8,-6c2.4,0,3.8,2.6,3.8,6m16.9,7.6c.6,0,1.1,-.5,1.1,-1v-12.7c0,-.9,-.8,-1.7,-1.7,-1.7c-.8,0,-1.5,.5,-1.7,1.2l-3.2,9.6l-3.2,-9.6c-.2,-.7,-.9,-1.2,-1.6,-1.2c-1,0,-1.8,.8,-1.8,1.7v12.6c0,.6,.5,1.1,1.1,1.1c.6,0,1.1,-.5,1.1,-1.1v-10.5l3.7,11c.2,.4,.4,.6,.7,.6c.3,0,.5,-.2,.7,-.6l3.7,-11v10.6c0,.5,.5,1,1.1,1m3.7,-7.6c0,4.4,2.1,7.8,6,7.8c3.9,0,6.1,-3.4,6.1,-7.8c0,-4.5,-2.2,-7.9,-6.1,-7.9c-3.9,0,-6,3.4,-6,7.9m9.8,0c0,3.2,-1.3,5.9,-3.8,5.9c-2.5,0,-3.8,-2.7,-3.8,-5.9c0,-3.4,1.3,-6,3.8,-6c2.5,0,3.8,2.6,3.8,6Z" class="g1_1"/>
<path d="M318.8,1183.7c2,0,3.4,-1.4,3.4,-3.3c0,-1.8,-1.4,-3.3,-3.4,-3.3c-2.1,0,-3.4,1.5,-3.4,3.3c0,1.9,1.3,3.3,3.4,3.3m-.3,7c.3,0,.5,-.1,.6,-.3l7.9,-12.3l.1,-.3c0,-.4,-.3,-.7,-.7,-.7c-.2,0,-.4,.2,-.5,.3l-7.9,12.4l-.1,.3c0,.3,.3,.6,.6,.6m.3,-8.4c-.9,0,-1.6,-.7,-1.6,-1.9c0,-1.2,.7,-1.9,1.6,-1.9c.9,0,1.6,.7,1.6,1.9c0,1.2,-.7,1.9,-1.6,1.9m7.3,8.5c2,0,3.4,-1.4,3.4,-3.3c0,-1.8,-1.4,-3.3,-3.4,-3.3c-2,0,-3.4,1.5,-3.4,3.3c0,1.9,1.4,3.3,3.4,3.3m0,-1.4c-.9,0,-1.6,-.7,-1.6,-1.9c0,-1.2,.7,-1.9,1.6,-1.9c.9,0,1.6,.7,1.6,1.9c0,1.2,-.7,1.9,-1.6,1.9Z" class="g1_1"/>
<path d="M276.6,1211.7c2.1,0,3.8,-1.7,3.8,-3.7v-28c0,-2.4,-2,-4.4,-4.4,-4.4c-1.2,0,-2.3,.5,-3.1,1.3l-8.4,8.4c-.5,.6,-.9,1.3,-.9,2.2c0,1.7,1.4,3.1,3.2,3.1c.8,0,1.6,-.3,2.2,-.9l3.9,-4V1208c0,2,1.6,3.7,3.7,3.7m9.1,-18c0,9.1,4.5,18.3,14.6,18.3c10.1,0,14.6,-9.2,14.6,-18.3c0,-9.1,-4.5,-18.2,-14.6,-18.2c-10.1,0,-14.6,9.1,-14.6,18.2m21.5,0c0,6.5,-1.9,11.6,-6.9,11.6c-5.1,0,-7,-5.1,-7,-11.6c0,-6.5,1.9,-11.6,7,-11.6c5,0,6.9,5.1,6.9,11.6Z" class="g1_1"/>
<path d="M70.4,1111.8c-10.2,0,-18.4,8.2,-18.4,18.4v94c0,10.1,8.2,18.4,18.4,18.4h94c10.1,0,18.4,-8.3,18.4,-18.4v-94c0,-10.2,-8.3,-18.4,-18.4,-18.4Z" class="g1_1"/>
<g clip-path="url(#cn_1)">
<path d="M63.6,1123.4h2.9v20.4H63.6v-20.4Z" class="g0_1"/>
<path d="M63.6,1146.7h2.9v5.8H63.6v-5.8Z" class="g0_1"/>
<path d="M63.6,1164.1h2.9v5.8H63.6v-5.8Z" class="g0_1"/>
<path d="M63.6,1175.7h2.9v8.7H63.6v-8.7Z" class="g0_1"/>
<path d="M63.6,1187.3h2.9v5.9H63.6v-5.9Z" class="g0_1"/>
<path d="M63.6,1196.1h2.9v11.6H63.6v-11.6Z" class="g0_1"/>
<path d="M63.6,1210.6h2.9v20.3H63.6v-20.3Z" class="g0_1"/>
<path d="M66.5,1123.4h2.9v2.9H66.5v-2.9Z" class="g0_1"/>
<path d="M66.5,1140.8h2.9v3H66.5v-3Z" class="g0_1"/>
<path d="M66.5,1149.6h2.9v8.7H66.5v-8.7Z" class="g0_1"/>
<path d="M66.5,1161.2h2.9v2.9H66.5v-2.9Z" class="g0_1"/>
<path d="M66.5,1167h2.9v8.7H66.5V1167Z" class="g0_1"/>
<path d="M66.5,1181.5h2.9v2.9H66.5v-2.9Z" class="g0_1"/>
<path d="M66.5,1187.3h2.9v3H66.5v-3Z" class="g0_1"/>
<path d="M66.5,1199h2.9v2.9H66.5V1199Z" class="g0_1"/>
<path d="M66.5,1210.6h2.9v2.9H66.5v-2.9Z" class="g0_1"/>
<path d="M66.5,1228h2.9v2.9H66.5V1228Z" class="g0_1"/>
<path d="M69.4,1123.4h2.9v2.9H69.4v-2.9Z" class="g0_1"/>
<path d="M69.4,1129.2h2.9v8.7H69.4v-8.7Z" class="g0_1"/>
<path d="M69.4,1140.8h2.9v3H69.4v-3Z" class="g0_1"/>
<path d="M69.4,1149.6h2.9v2.9H69.4v-2.9Z" class="g0_1"/>
<path d="M69.4,1167h2.9v2.9H69.4V1167Z" class="g0_1"/>
<path d="M69.4,1172.8h2.9v5.8H69.4v-5.8Z" class="g0_1"/>
<path d="M69.4,1181.5h2.9v2.9H69.4v-2.9Z" class="g0_1"/>
<path d="M69.4,1187.3h2.9v5.9H69.4v-5.9Z" class="g0_1"/>
<path d="M69.4,1196.1h2.9v2.9H69.4v-2.9Z" class="g0_1"/>
<path d="M69.4,1204.8h2.9v2.9H69.4v-2.9Z" class="g0_1"/>
<path d="M69.4,1210.6h2.9v2.9H69.4v-2.9Z" class="g0_1"/>
<path d="M69.4,1216.4h2.9v8.7H69.4v-8.7Z" class="g0_1"/>
<path d="M69.4,1228h2.9v2.9H69.4V1228Z" class="g0_1"/>
<path d="M72.3,1123.4h2.9v2.9H72.3v-2.9Z" class="g0_1"/>
<path d="M72.3,1129.2h2.9v8.7H72.3v-8.7Z" class="g0_1"/>
<path d="M72.3,1140.8h2.9v3H72.3v-3Z" class="g0_1"/>
<path d="M72.3,1146.7h2.9v5.8H72.3v-5.8Z" class="g0_1"/>
<path d="M72.3,1155.4h2.9v2.9H72.3v-2.9Z" class="g0_1"/>
<path d="M72.3,1161.2h2.9v5.8H72.3v-5.8Z" class="g0_1"/>
<path d="M72.3,1169.9h2.9v5.8H72.3v-5.8Z" class="g0_1"/>
<path d="M72.3,1178.6h2.9v5.8H72.3v-5.8Z" class="g0_1"/>
<path d="M72.3,1193.2h2.9v2.9H72.3v-2.9Z" class="g0_1"/>
<path d="M72.3,1201.9h2.9v2.9H72.3v-2.9Z" class="g0_1"/>
<path d="M72.3,1210.6h2.9v2.9H72.3v-2.9Z" class="g0_1"/>
<path d="M72.3,1216.4h2.9v8.7H72.3v-8.7Z" class="g0_1"/>
<path d="M72.3,1228h2.9v2.9H72.3V1228Z" class="g0_1"/>
<path d="M75.2,1123.4h2.9v2.9H75.2v-2.9Z" class="g0_1"/>
<path d="M75.2,1129.2h2.9v8.7H75.2v-8.7Z" class="g0_1"/>
<path d="M75.2,1140.8h2.9v3H75.2v-3Z" class="g0_1"/>
<path d="M75.2,1146.7h2.9v5.8H75.2v-5.8Z" class="g0_1"/>
<path d="M75.2,1155.4h2.9v5.8H75.2v-5.8Z" class="g0_1"/>
<path d="M75.2,1164.1h2.9v2.9H75.2v-2.9Z" class="g0_1"/>
<path d="M75.2,1169.9h2.9v8.7H75.2v-8.7Z" class="g0_1"/>
<path d="M75.2,1187.3h2.9v3H75.2v-3Z" class="g0_1"/>
<path d="M75.2,1201.9h2.9v5.8H75.2v-5.8Z" class="g0_1"/>
<path d="M75.2,1210.6h2.9v2.9H75.2v-2.9Z" class="g0_1"/>
<path d="M75.2,1216.4h2.9v8.7H75.2v-8.7Z" class="g0_1"/>
<path d="M75.2,1228h2.9v2.9H75.2V1228Z" class="g0_1"/>
<path d="M78.1,1123.4H81v2.9H78.1v-2.9Z" class="g0_1"/>
<path d="M78.1,1140.8H81v3H78.1v-3Z" class="g0_1"/>
<path d="M78.1,1146.7H81v8.7H78.1v-8.7Z" class="g0_1"/>
<path d="M78.1,1161.2H81v2.9H78.1v-2.9Z" class="g0_1"/>
<path d="M78.1,1167H81v8.7H78.1V1167Z" class="g0_1"/>
<path d="M78.1,1178.6H81V1199H78.1v-20.4Z" class="g0_1"/>
<path d="M78.1,1204.8H81v2.9H78.1v-2.9Z" class="g0_1"/>
<path d="M78.1,1210.6H81v2.9H78.1v-2.9Z" class="g0_1"/>
<path d="M78.1,1228H81v2.9H78.1V1228Z" class="g0_1"/>
<path d="M81,1123.4h2.9v20.4H81v-20.4Z" class="g0_1"/>
<path d="M81,1146.7h2.9v2.9H81v-2.9Z" class="g0_1"/>
<path d="M81,1152.5h2.9v2.9H81v-2.9Z" class="g0_1"/>
<path d="M81,1158.3h2.9v2.9H81v-2.9Z" class="g0_1"/>
<path d="M81,1164.1h2.9v2.9H81v-2.9Z" class="g0_1"/>
<path d="M81,1169.9h2.9v2.9H81v-2.9Z" class="g0_1"/>
<path d="M81,1175.7h2.9v2.9H81v-2.9Z" class="g0_1"/>
<path d="M81,1181.5h2.9v2.9H81v-2.9Z" class="g0_1"/>
<path d="M81,1187.3h2.9v3H81v-3Z" class="g0_1"/>
<path d="M81,1193.2h2.9v2.9H81v-2.9Z" class="g0_1"/>
<path d="M81,1199h2.9v2.9H81V1199Z" class="g0_1"/>
<path d="M81,1204.8h2.9v2.9H81v-2.9Z" class="g0_1"/>
<path d="M81,1210.6h2.9v20.3H81v-20.3Z" class="g0_1"/>
<path d="M83.9,1146.7h2.9v2.9H83.9v-2.9Z" class="g0_1"/>
<path d="M83.9,1158.3h2.9v2.9H83.9v-2.9Z" class="g0_1"/>
<path d="M83.9,1167h2.9v5.8H83.9V1167Z" class="g0_1"/>
<path d="M83.9,1175.7h2.9v2.9H83.9v-2.9Z" class="g0_1"/>
<path d="M83.9,1184.4h2.9v2.9H83.9v-2.9Z" class="g0_1"/>
<path d="M83.9,1193.2h2.9v5.8H83.9v-5.8Z" class="g0_1"/>
<path d="M83.9,1201.9h2.9v5.8H83.9v-5.8Z" class="g0_1"/>
<path d="M86.8,1123.4h3v8.7h-3v-8.7Z" class="g0_1"/>
<path d="M86.8,1135h3v2.9h-3V1135Z" class="g0_1"/>
<path d="M86.8,1140.8h3v3h-3v-3Z" class="g0_1"/>
<path d="M86.8,1146.7h3v8.7h-3v-8.7Z" class="g0_1"/>
<path d="M86.8,1161.2h3v5.8h-3v-5.8Z" class="g0_1"/>
<path d="M86.8,1169.9h3v2.9h-3v-2.9Z" class="g0_1"/>
<path d="M86.8,1175.7h3v2.9h-3v-2.9Z" class="g0_1"/>
<path d="M86.8,1184.4h3v2.9h-3v-2.9Z" class="g0_1"/>
<path d="M86.8,1190.3h3v8.7h-3v-8.7Z" class="g0_1"/>
<path d="M86.8,1207.7h3v14.5h-3v-14.5Z" class="g0_1"/>
<path d="M86.8,1228h3v2.9h-3V1228Z" class="g0_1"/>
<path d="M89.8,1129.2h2.9v2.9H89.8v-2.9Z" class="g0_1"/>
<path d="M89.8,1135h2.9v2.9H89.8V1135Z" class="g0_1"/>
<path d="M89.8,1146.7h2.9v5.8H89.8v-5.8Z" class="g0_1"/>
<path d="M89.8,1164.1h2.9v5.8H89.8v-5.8Z" class="g0_1"/>
<path d="M89.8,1175.7h2.9v2.9H89.8v-2.9Z" class="g0_1"/>
<path d="M89.8,1196.1h2.9v8.7H89.8v-8.7Z" class="g0_1"/>
<path d="M89.8,1207.7h2.9v2.9H89.8v-2.9Z" class="g0_1"/>
<path d="M89.8,1213.5h2.9v11.6H89.8v-11.6Z" class="g0_1"/>
<path d="M92.7,1126.3h2.9v2.9H92.7v-2.9Z" class="g0_1"/>
<path d="M92.7,1135h2.9v11.7H92.7V1135Z" class="g0_1"/>
<path d="M92.7,1149.6h2.9v2.9H92.7v-2.9Z" class="g0_1"/>
<path d="M92.7,1158.3h2.9v8.7H92.7v-8.7Z" class="g0_1"/>
<path d="M92.7,1169.9h2.9v11.6H92.7v-11.6Z" class="g0_1"/>
<path d="M92.7,1184.4h2.9V1199H92.7v-14.6Z" class="g0_1"/>
<path d="M92.7,1201.9h2.9v2.9H92.7v-2.9Z" class="g0_1"/>
<path d="M92.7,1210.6h2.9v2.9H92.7v-2.9Z" class="g0_1"/>
<path d="M92.7,1216.4h2.9v2.9H92.7v-2.9Z" class="g0_1"/>
<path d="M92.7,1228h2.9v2.9H92.7V1228Z" class="g0_1"/>
<path d="M95.6,1137.9h2.9v2.9H95.6v-2.9Z" class="g0_1"/>
<path d="M95.6,1143.8h2.9v8.7H95.6v-8.7Z" class="g0_1"/>
<path d="M95.6,1158.3h2.9v8.7H95.6v-8.7Z" class="g0_1"/>
<path d="M95.6,1172.8h2.9v8.7H95.6v-8.7Z" class="g0_1"/>
<path d="M95.6,1193.2h2.9v2.9H95.6v-2.9Z" class="g0_1"/>
<path d="M95.6,1201.9h2.9v5.8H95.6v-5.8Z" class="g0_1"/>
<path d="M95.6,1210.6h2.9v2.9H95.6v-2.9Z" class="g0_1"/>
<path d="M95.6,1216.4h2.9v2.9H95.6v-2.9Z" class="g0_1"/>
<path d="M95.6,1228h2.9v2.9H95.6V1228Z" class="g0_1"/>
<path d="M98.5,1123.4h2.9v2.9H98.5v-2.9Z" class="g0_1"/>
<path d="M98.5,1135h2.9v11.7H98.5V1135Z" class="g0_1"/>
<path d="M98.5,1149.6h2.9v5.8H98.5v-5.8Z" class="g0_1"/>
<path d="M98.5,1158.3h2.9v2.9H98.5v-2.9Z" class="g0_1"/>
<path d="M98.5,1169.9h2.9v2.9H98.5v-2.9Z" class="g0_1"/>
<path d="M98.5,1175.7h2.9v8.7H98.5v-8.7Z" class="g0_1"/>
<path d="M98.5,1187.3h2.9v5.9H98.5v-5.9Z" class="g0_1"/>
<path d="M98.5,1196.1h2.9v11.6H98.5v-11.6Z" class="g0_1"/>
<path d="M98.5,1210.6h2.9v5.8H98.5v-5.8Z" class="g0_1"/>
<path d="M98.5,1219.3h2.9v5.8H98.5v-5.8Z" class="g0_1"/>
<path d="M98.5,1228h2.9v2.9H98.5V1228Z" class="g0_1"/>
<path d="M101.4,1123.4h2.9v8.7h-2.9v-8.7Z" class="g0_1"/>
<path d="M101.4,1135h2.9v5.8h-2.9V1135Z" class="g0_1"/>
<path d="M101.4,1149.6h2.9v5.8h-2.9v-5.8Z" class="g0_1"/>
<path d="M101.4,1164.1h2.9v2.9h-2.9v-2.9Z" class="g0_1"/>
<path d="M101.4,1172.8h2.9v17.5h-2.9v-17.5Z" class="g0_1"/>
<path d="M101.4,1207.7h2.9v5.8h-2.9v-5.8Z" class="g0_1"/>
<path d="M101.4,1216.4h2.9v2.9h-2.9v-2.9Z" class="g0_1"/>
<path d="M101.4,1225.1h2.9v2.9h-2.9v-2.9Z" class="g0_1"/>
<path d="M104.3,1126.3h2.9v2.9h-2.9v-2.9Z" class="g0_1"/>
<path d="M104.3,1132.1h2.9v17.5h-2.9v-17.5Z" class="g0_1"/>
<path d="M104.3,1161.2h2.9v2.9h-2.9v-2.9Z" class="g0_1"/>
<path d="M104.3,1169.9h2.9v5.8h-2.9v-5.8Z" class="g0_1"/>
<path d="M104.3,1187.3h2.9v5.9h-2.9v-5.9Z" class="g0_1"/>
<path d="M104.3,1196.1h2.9v2.9h-2.9v-2.9Z" class="g0_1"/>
<path d="M104.3,1216.4h2.9v5.8h-2.9v-5.8Z" class="g0_1"/>
<path d="M107.2,1123.4h2.9v2.9h-2.9v-2.9Z" class="g0_1"/>
<path d="M107.2,1132.1h2.9v2.9h-2.9v-2.9Z" class="g0_1"/>
<path d="M107.2,1152.5h2.9v2.9h-2.9v-2.9Z" class="g0_1"/>
<path d="M107.2,1158.3h2.9v14.5h-2.9v-14.5Z" class="g0_1"/>
<path d="M107.2,1178.6h2.9v2.9h-2.9v-2.9Z" class="g0_1"/>
<path d="M107.2,1184.4h2.9v11.7h-2.9v-11.7Z" class="g0_1"/>
<path d="M107.2,1199h2.9v2.9h-2.9V1199Z" class="g0_1"/>
<path d="M107.2,1204.8h2.9v8.7h-2.9v-8.7Z" class="g0_1"/>
<path d="M107.2,1225.1h2.9v2.9h-2.9v-2.9Z" class="g0_1"/>
<path d="M110.1,1135H113v2.9h-2.9V1135Z" class="g0_1"/>
<path d="M110.1,1140.8H113v3h-2.9v-3Z" class="g0_1"/>
<path d="M110.1,1149.6H113v8.7h-2.9v-8.7Z" class="g0_1"/>
<path d="M110.1,1161.2H113v2.9h-2.9v-2.9Z" class="g0_1"/>
<path d="M110.1,1167H113v2.9h-2.9V1167Z" class="g0_1"/>
<path d="M110.1,1175.7H113v8.7h-2.9v-8.7Z" class="g0_1"/>
<path d="M110.1,1190.3H113v2.9h-2.9v-2.9Z" class="g0_1"/>
<path d="M110.1,1201.9H113v5.8h-2.9v-5.8Z" class="g0_1"/>
<path d="M110.1,1216.4H113v2.9h-2.9v-2.9Z" class="g0_1"/>
<path d="M110.1,1228H113v2.9h-2.9V1228Z" class="g0_1"/>
<path d="M113,1123.4h2.9v5.8H113v-5.8Z" class="g0_1"/>
<path d="M113,1132.1h2.9v2.9H113v-2.9Z" class="g0_1"/>
<path d="M113,1143.8h2.9v2.9H113v-2.9Z" class="g0_1"/>
<path d="M113,1149.6h2.9v2.9H113v-2.9Z" class="g0_1"/>
<path d="M113,1155.4h2.9v2.9H113v-2.9Z" class="g0_1"/>
<path d="M113,1169.9h2.9v5.8H113v-5.8Z" class="g0_1"/>
<path d="M113,1181.5h2.9v5.8H113v-5.8Z" class="g0_1"/>
<path d="M113,1193.2h2.9v8.7H113v-8.7Z" class="g0_1"/>
<path d="M113,1204.8h2.9v8.7H113v-8.7Z" class="g0_1"/>
<path d="M113,1225.1h2.9v2.9H113v-2.9Z" class="g0_1"/>
<path d="M115.9,1135h2.9v2.9h-2.9V1135Z" class="g0_1"/>
<path d="M115.9,1140.8h2.9v5.9h-2.9v-5.9Z" class="g0_1"/>
<path d="M115.9,1149.6h2.9v2.9h-2.9v-2.9Z" class="g0_1"/>
<path d="M115.9,1164.1h2.9v2.9h-2.9v-2.9Z" class="g0_1"/>
<path d="M115.9,1169.9h2.9v2.9h-2.9v-2.9Z" class="g0_1"/>
<path d="M115.9,1175.7h2.9v2.9h-2.9v-2.9Z" class="g0_1"/>
<path d="M115.9,1181.5h2.9v5.8h-2.9v-5.8Z" class="g0_1"/>
<path d="M115.9,1190.3h2.9v2.9h-2.9v-2.9Z" class="g0_1"/>
<path d="M115.9,1196.1h2.9v2.9h-2.9v-2.9Z" class="g0_1"/>
<path d="M115.9,1207.7h2.9v5.8h-2.9v-5.8Z" class="g0_1"/>
<path d="M115.9,1216.4h2.9v2.9h-2.9v-2.9Z" class="g0_1"/>
<path d="M115.9,1222.2h2.9v2.9h-2.9v-2.9Z" class="g0_1"/>
<path d="M118.8,1123.4h2.9v8.7h-2.9v-8.7Z" class="g0_1"/>
<path d="M118.8,1135h2.9v2.9h-2.9V1135Z" class="g0_1"/>
<path d="M118.8,1152.5h2.9v5.8h-2.9v-5.8Z" class="g0_1"/>
<path d="M118.8,1164.1h2.9v2.9h-2.9v-2.9Z" class="g0_1"/>
<path d="M118.8,1169.9h2.9v2.9h-2.9v-2.9Z" class="g0_1"/>
<path d="M118.8,1175.7h2.9v11.6h-2.9v-11.6Z" class="g0_1"/>
<path d="M118.8,1193.2h2.9v5.8h-2.9v-5.8Z" class="g0_1"/>
<path d="M118.8,1201.9h2.9v17.4h-2.9v-17.4Z" class="g0_1"/>
<path d="M118.8,1228h2.9v2.9h-2.9V1228Z" class="g0_1"/>
<path d="M121.7,1123.4h2.9v2.9h-2.9v-2.9Z" class="g0_1"/>
<path d="M121.7,1132.1h2.9v2.9h-2.9v-2.9Z" class="g0_1"/>
<path d="M121.7,1137.9h2.9v5.9h-2.9v-5.9Z" class="g0_1"/>
<path d="M121.7,1152.5h2.9v8.7h-2.9v-8.7Z" class="g0_1"/>
<path d="M121.7,1178.6h2.9v2.9h-2.9v-2.9Z" class="g0_1"/>
<path d="M121.7,1193.2h2.9v2.9h-2.9v-2.9Z" class="g0_1"/>
<path d="M121.7,1204.8h2.9v8.7h-2.9v-8.7Z" class="g0_1"/>
<path d="M121.7,1216.4h2.9v5.8h-2.9v-5.8Z" class="g0_1"/>
<path d="M124.6,1123.4h2.9v2.9h-2.9v-2.9Z" class="g0_1"/>
<path d="M124.6,1129.2h2.9v5.8h-2.9v-5.8Z" class="g0_1"/>
<path d="M124.6,1146.7h2.9v2.9h-2.9v-2.9Z" class="g0_1"/>
<path d="M124.6,1152.5h2.9v2.9h-2.9v-2.9Z" class="g0_1"/>
<path d="M124.6,1161.2h2.9v2.9h-2.9v-2.9Z" class="g0_1"/>
<path d="M124.6,1167h2.9v8.7h-2.9V1167Z" class="g0_1"/>
<path d="M124.6,1187.3h2.9v3h-2.9v-3Z" class="g0_1"/>
<path d="M124.6,1193.2h2.9v2.9h-2.9v-2.9Z" class="g0_1"/>
<path d="M124.6,1207.7h2.9v2.9h-2.9v-2.9Z" class="g0_1"/>
<path d="M124.6,1213.5h2.9v5.8h-2.9v-5.8Z" class="g0_1"/>
<path d="M124.6,1222.2h2.9v2.9h-2.9v-2.9Z" class="g0_1"/>
<path d="M127.5,1123.4h2.9v2.9h-2.9v-2.9Z" class="g0_1"/>
<path d="M127.5,1129.2h2.9v8.7h-2.9v-8.7Z" class="g0_1"/>
<path d="M127.5,1140.8h2.9v3h-2.9v-3Z" class="g0_1"/>
<path d="M127.5,1146.7h2.9v5.8h-2.9v-5.8Z" class="g0_1"/>
<path d="M127.5,1158.3h2.9v2.9h-2.9v-2.9Z" class="g0_1"/>
<path d="M127.5,1167h2.9v8.7h-2.9V1167Z" class="g0_1"/>
<path d="M127.5,1178.6h2.9v2.9h-2.9v-2.9Z" class="g0_1"/>
<path d="M127.5,1184.4h2.9v2.9h-2.9v-2.9Z" class="g0_1"/>
<path d="M127.5,1193.2h2.9v8.7h-2.9v-8.7Z" class="g0_1"/>
<path d="M127.5,1204.8h2.9v5.8h-2.9v-5.8Z" class="g0_1"/>
<path d="M127.5,1219.3h2.9v2.9h-2.9v-2.9Z" class="g0_1"/>
<path d="M130.4,1132.1h2.9v2.9h-2.9v-2.9Z" class="g0_1"/>
<path d="M130.4,1137.9h2.9v2.9h-2.9v-2.9Z" class="g0_1"/>
<path d="M130.4,1143.8h2.9v20.3h-2.9v-20.3Z" class="g0_1"/>
<path d="M130.4,1167h2.9v5.8h-2.9V1167Z" class="g0_1"/>
<path d="M130.4,1175.7h2.9v2.9h-2.9v-2.9Z" class="g0_1"/>
<path d="M130.4,1181.5h2.9V1199h-2.9v-17.5Z" class="g0_1"/>
<path d="M130.4,1201.9h2.9v2.9h-2.9v-2.9Z" class="g0_1"/>
<path d="M130.4,1210.6h2.9V1228h-2.9v-17.4Z" class="g0_1"/>
<path d="M133.3,1135h3v2.9h-3V1135Z" class="g0_1"/>
<path d="M133.3,1140.8h3v3h-3v-3Z" class="g0_1"/>
<path d="M133.3,1146.7h3v2.9h-3v-2.9Z" class="g0_1"/>
<path d="M133.3,1152.5h3v2.9h-3v-2.9Z" class="g0_1"/>
<path d="M133.3,1158.3h3v5.8h-3v-5.8Z" class="g0_1"/>
<path d="M133.3,1167h3v2.9h-3V1167Z" class="g0_1"/>
<path d="M133.3,1175.7h3v5.8h-3v-5.8Z" class="g0_1"/>
<path d="M133.3,1193.2h3v2.9h-3v-2.9Z" class="g0_1"/>
<path d="M133.3,1199h3v2.9h-3V1199Z" class="g0_1"/>
<path d="M133.3,1204.8h3v2.9h-3v-2.9Z" class="g0_1"/>
<path d="M133.3,1210.6h3v2.9h-3v-2.9Z" class="g0_1"/>
<path d="M133.3,1216.4h3v14.5h-3v-14.5Z" class="g0_1"/>
<path d="M136.3,1123.4h2.9v2.9h-2.9v-2.9Z" class="g0_1"/>
<path d="M136.3,1129.2h2.9v8.7h-2.9v-8.7Z" class="g0_1"/>
<path d="M136.3,1143.8h2.9v2.9h-2.9v-2.9Z" class="g0_1"/>
<path d="M136.3,1169.9h2.9v2.9h-2.9v-2.9Z" class="g0_1"/>
<path d="M136.3,1178.6h2.9v2.9h-2.9v-2.9Z" class="g0_1"/>
<path d="M136.3,1196.1h2.9v5.8h-2.9v-5.8Z" class="g0_1"/>
<path d="M136.3,1204.8h2.9v2.9h-2.9v-2.9Z" class="g0_1"/>
<path d="M136.3,1210.6h2.9v5.8h-2.9v-5.8Z" class="g0_1"/>
<path d="M136.3,1219.3h2.9v2.9h-2.9v-2.9Z" class="g0_1"/>
<path d="M139.2,1123.4h2.9v5.8h-2.9v-5.8Z" class="g0_1"/>
<path d="M139.2,1135h2.9v2.9h-2.9V1135Z" class="g0_1"/>
<path d="M139.2,1140.8h2.9v3h-2.9v-3Z" class="g0_1"/>
<path d="M139.2,1146.7h2.9v11.6h-2.9v-11.6Z" class="g0_1"/>
<path d="M139.2,1164.1h2.9v5.8h-2.9v-5.8Z" class="g0_1"/>
<path d="M139.2,1178.6h2.9v8.7h-2.9v-8.7Z" class="g0_1"/>
<path d="M139.2,1196.1h2.9v5.8h-2.9v-5.8Z" class="g0_1"/>
<path d="M139.2,1216.4h2.9v2.9h-2.9v-2.9Z" class="g0_1"/>
<path d="M139.2,1228h2.9v2.9h-2.9V1228Z" class="g0_1"/>
<path d="M142.1,1132.1H145v2.9h-2.9v-2.9Z" class="g0_1"/>
<path d="M142.1,1146.7H145v23.2h-2.9v-23.2Z" class="g0_1"/>
<path d="M142.1,1172.8H145v29.1h-2.9v-29.1Z" class="g0_1"/>
<path d="M142.1,1204.8H145v2.9h-2.9v-2.9Z" class="g0_1"/>
<path d="M142.1,1213.5H145v5.8h-2.9v-5.8Z" class="g0_1"/>
<path d="M145,1126.3h2.9v2.9H145v-2.9Z" class="g0_1"/>
<path d="M145,1135h2.9v23.3H145V1135Z" class="g0_1"/>
<path d="M145,1161.2h2.9v5.8H145v-5.8Z" class="g0_1"/>
<path d="M145,1169.9h2.9v8.7H145v-8.7Z" class="g0_1"/>
<path d="M145,1181.5h2.9v2.9H145v-2.9Z" class="g0_1"/>
<path d="M145,1187.3h2.9v5.9H145v-5.9Z" class="g0_1"/>
<path d="M145,1201.9h2.9v17.4H145v-17.4Z" class="g0_1"/>
<path d="M145,1222.2h2.9v2.9H145v-2.9Z" class="g0_1"/>
<path d="M145,1228h2.9v2.9H145V1228Z" class="g0_1"/>
<path d="M147.9,1146.7h2.9v2.9h-2.9v-2.9Z" class="g0_1"/>
<path d="M147.9,1161.2h2.9v5.8h-2.9v-5.8Z" class="g0_1"/>
<path d="M147.9,1178.6h2.9v8.7h-2.9v-8.7Z" class="g0_1"/>
<path d="M147.9,1199h2.9v8.7h-2.9V1199Z" class="g0_1"/>
<path d="M147.9,1216.4h2.9v2.9h-2.9v-2.9Z" class="g0_1"/>
<path d="M147.9,1222.2h2.9v2.9h-2.9v-2.9Z" class="g0_1"/>
<path d="M147.9,1228h2.9v2.9h-2.9V1228Z" class="g0_1"/>
<path d="M150.8,1123.4h2.9v20.4h-2.9v-20.4Z" class="g0_1"/>
<path d="M150.8,1152.5h2.9v2.9h-2.9v-2.9Z" class="g0_1"/>
<path d="M150.8,1158.3h2.9v2.9h-2.9v-2.9Z" class="g0_1"/>
<path d="M150.8,1167h2.9v5.8h-2.9V1167Z" class="g0_1"/>
<path d="M150.8,1175.7h2.9v2.9h-2.9v-2.9Z" class="g0_1"/>
<path d="M150.8,1181.5h2.9v2.9h-2.9v-2.9Z" class="g0_1"/>
<path d="M150.8,1187.3h2.9v8.8h-2.9v-8.8Z" class="g0_1"/>
<path d="M150.8,1199h2.9v2.9h-2.9V1199Z" class="g0_1"/>
<path d="M150.8,1204.8h2.9v2.9h-2.9v-2.9Z" class="g0_1"/>
<path d="M150.8,1210.6h2.9v2.9h-2.9v-2.9Z" class="g0_1"/>
<path d="M150.8,1216.4h2.9v5.8h-2.9v-5.8Z" class="g0_1"/>
<path d="M153.7,1123.4h2.9v2.9h-2.9v-2.9Z" class="g0_1"/>
<path d="M153.7,1140.8h2.9v3h-2.9v-3Z" class="g0_1"/>
<path d="M153.7,1149.6h2.9v5.8h-2.9v-5.8Z" class="g0_1"/>
<path d="M153.7,1167h2.9v2.9h-2.9V1167Z" class="g0_1"/>
<path d="M153.7,1172.8h2.9v5.8h-2.9v-5.8Z" class="g0_1"/>
<path d="M153.7,1181.5h2.9v2.9h-2.9v-2.9Z" class="g0_1"/>
<path d="M153.7,1187.3h2.9v5.9h-2.9v-5.9Z" class="g0_1"/>
<path d="M153.7,1204.8h2.9v2.9h-2.9v-2.9Z" class="g0_1"/>
<path d="M153.7,1216.4h2.9v2.9h-2.9v-2.9Z" class="g0_1"/>
<path d="M153.7,1228h2.9v2.9h-2.9V1228Z" class="g0_1"/>
<path d="M156.6,1123.4h2.9v2.9h-2.9v-2.9Z" class="g0_1"/>
<path d="M156.6,1129.2h2.9v8.7h-2.9v-8.7Z" class="g0_1"/>
<path d="M156.6,1140.8h2.9v3h-2.9v-3Z" class="g0_1"/>
<path d="M156.6,1146.7h2.9v8.7h-2.9v-8.7Z" class="g0_1"/>
<path d="M156.6,1161.2h2.9v5.8h-2.9v-5.8Z" class="g0_1"/>
<path d="M156.6,1175.7h2.9v11.6h-2.9v-11.6Z" class="g0_1"/>
<path d="M156.6,1190.3h2.9v2.9h-2.9v-2.9Z" class="g0_1"/>
<path d="M156.6,1196.1h2.9v2.9h-2.9v-2.9Z" class="g0_1"/>
<path d="M156.6,1201.9h2.9v17.4h-2.9v-17.4Z" class="g0_1"/>
<path d="M156.6,1222.2h2.9v5.8h-2.9v-5.8Z" class="g0_1"/>
<path d="M159.5,1123.4h2.9v2.9h-2.9v-2.9Z" class="g0_1"/>
<path d="M159.5,1129.2h2.9v8.7h-2.9v-8.7Z" class="g0_1"/>
<path d="M159.5,1140.8h2.9v3h-2.9v-3Z" class="g0_1"/>
<path d="M159.5,1149.6h2.9v2.9h-2.9v-2.9Z" class="g0_1"/>
<path d="M159.5,1155.4h2.9v2.9h-2.9v-2.9Z" class="g0_1"/>
<path d="M159.5,1161.2h2.9v8.7h-2.9v-8.7Z" class="g0_1"/>
<path d="M159.5,1181.5h2.9v2.9h-2.9v-2.9Z" class="g0_1"/>
<path d="M159.5,1187.3h2.9v5.9h-2.9v-5.9Z" class="g0_1"/>
<path d="M159.5,1196.1h2.9v2.9h-2.9v-2.9Z" class="g0_1"/>
<path d="M159.5,1201.9h2.9v5.8h-2.9v-5.8Z" class="g0_1"/>
<path d="M159.5,1225.1h2.9v5.8h-2.9v-5.8Z" class="g0_1"/>
<path d="M162.4,1123.4h2.9v2.9h-2.9v-2.9Z" class="g0_1"/>
<path d="M162.4,1129.2h2.9v8.7h-2.9v-8.7Z" class="g0_1"/>
<path d="M162.4,1140.8h2.9v3h-2.9v-3Z" class="g0_1"/>
<path d="M162.4,1146.7h2.9v2.9h-2.9v-2.9Z" class="g0_1"/>
<path d="M162.4,1152.5h2.9v5.8h-2.9v-5.8Z" class="g0_1"/>
<path d="M162.4,1164.1h2.9v11.6h-2.9v-11.6Z" class="g0_1"/>
<path d="M162.4,1184.4h2.9v2.9h-2.9v-2.9Z" class="g0_1"/>
<path d="M162.4,1190.3h2.9v2.9h-2.9v-2.9Z" class="g0_1"/>
<path d="M162.4,1196.1h2.9v2.9h-2.9v-2.9Z" class="g0_1"/>
<path d="M162.4,1201.9h2.9v2.9h-2.9v-2.9Z" class="g0_1"/>
<path d="M162.4,1207.7h2.9v2.9h-2.9v-2.9Z" class="g0_1"/>
<path d="M162.4,1219.3h2.9v8.7h-2.9v-8.7Z" class="g0_1"/>
<path d="M165.3,1123.4h2.9v2.9h-2.9v-2.9Z" class="g0_1"/>
<path d="M165.3,1140.8h2.9v3h-2.9v-3Z" class="g0_1"/>
<path d="M165.3,1146.7h2.9v5.8h-2.9v-5.8Z" class="g0_1"/>
<path d="M165.3,1155.4h2.9v2.9h-2.9v-2.9Z" class="g0_1"/>
<path d="M165.3,1164.1h2.9v2.9h-2.9v-2.9Z" class="g0_1"/>
<path d="M165.3,1184.4h2.9v2.9h-2.9v-2.9Z" class="g0_1"/>
<path d="M165.3,1193.2h2.9v2.9h-2.9v-2.9Z" class="g0_1"/>
<path d="M165.3,1199h2.9v2.9h-2.9V1199Z" class="g0_1"/>
<path d="M165.3,1207.7h2.9v2.9h-2.9v-2.9Z" class="g0_1"/>
<path d="M165.3,1213.5h2.9v5.8h-2.9v-5.8Z" class="g0_1"/>
<path d="M165.3,1225.1h2.9v2.9h-2.9v-2.9Z" class="g0_1"/>
<path d="M168.2,1123.4h2.9v20.4h-2.9v-20.4Z" class="g0_1"/>
<path d="M168.2,1146.7h2.9v2.9h-2.9v-2.9Z" class="g0_1"/>
<path d="M168.2,1152.5h2.9v8.7h-2.9v-8.7Z" class="g0_1"/>
<path d="M168.2,1164.1h2.9v8.7h-2.9v-8.7Z" class="g0_1"/>
<path d="M168.2,1175.7h2.9v5.8h-2.9v-5.8Z" class="g0_1"/>
<path d="M168.2,1187.3h2.9v5.9h-2.9v-5.9Z" class="g0_1"/>
<path d="M168.2,1199h2.9v8.7h-2.9V1199Z" class="g0_1"/>
<path d="M168.2,1210.6h2.9v20.3h-2.9v-20.3Z" class="g0_1"/>
</g>
<path d="M616.4,1224.3c0,-5.9,4.8,-10.6,10.7,-10.6c1.2,0,2.4,.2,3.5,.6c.7,.2,1.4,-.2,1.7,-.9c.2,-.6,-.1,-1.4,-.8,-1.7c-1.4,-.4,-2.9,-.7,-4.4,-.7c-7.4,0,-13.3,6,-13.3,13.3c0,2.5,.7,5,2,7.1c.3,.4,.7,.6,1.2,.6c.2,0,.4,-.1,.7,-.2c.6,-.4,.8,-1.2,.4,-1.8c-1.1,-1.7,-1.7,-3.7,-1.7,-5.7m50.1,10.8l-1,-7.7c-.2,-.7,-.8,-1.2,-1.6,-1.1c-.7,.1,-1.2,.8,-1.1,1.5l1.1,7.6c.1,.7,.7,1.2,1.3,1.2h.2c.7,-.1,1.3,-.8,1.1,-1.5m-3.3,-13.2c-2.5,-3.5,-6.6,-5.6,-10.9,-5.6c-4.4,0,-8.5,2.2,-11,5.9l-5.4,8c-2,3,-5.3,4.7,-8.8,4.7c-2,0,-4,-.5,-5.7,-1.6c-.6,-.4,-1.4,-.2,-1.8,.4c-.4,.6,-.2,1.5,.4,1.8c2.1,1.4,4.6,2.1,7.1,2.1c4.4,0,8.5,-2.2,11,-5.9l5.4,-8c2,-3,5.3,-4.7,8.8,-4.7c3.5,0,6.7,1.7,8.7,4.5c.4,.6,1.3,.7,1.9,.3c.6,-.4,.7,-1.3,.3,-1.9Z" class="g1_1"/>
<path d="M661.5,1237.5l-1.3,-9c-.2,-1.7,-1,-3.3,-2.2,-4.5c-.5,-.5,-1.4,-.5,-1.9,0c-.5,.5,-.5,1.3,0,1.9c.8,.8,1.3,1.8,1.5,3l1.3,9c.1,.7,.7,1.1,1.3,1.1h.2c.7,-.1,1.2,-.7,1.1,-1.5m-9.2,-15.9c-2.6,0,-5.1,1.4,-6.6,3.6l-5.4,8c-2.9,4.4,-7.9,7.1,-13.2,7.1c-8.8,0,-16,-7.2,-16,-16c0,-7.8,5.6,-14.4,13.2,-15.7c.7,-.1,1.2,-.8,1.1,-1.6c-.1,-.7,-.8,-1.2,-1.6,-1c-8.9,1.5,-15.3,9.2,-15.3,18.3c0,10.3,8.3,18.6,18.6,18.6c6.2,0,12,-3.1,15.4,-8.2l5.4,-8c1,-1.5,2.7,-2.4,4.4,-2.4c.8,0,1.4,-.6,1.4,-1.3c0,-.8,-.6,-1.4,-1.4,-1.4M629.5,1208v0c.5,-.5,.5,-1.3,0,-1.9c-.5,-.5,-1.3,-.5,-1.9,0c-.5,.6,-.5,1.4,0,1.9c.6,.5,1.4,.5,1.9,0Z" class="g1_1"/>
<path d="M669.8,1229.6c.7,-.1,1.2,-.8,1.1,-1.5l-.1,-1.1c-1.3,-9.1,-9.3,-16,-18.5,-16c-6.2,0,-12,3.1,-15.4,8.2l-5.4,8.1c-1,1.4,-2.7,2.3,-4.4,2.3c-3,0,-5.3,-2.4,-5.3,-5.3c0,-1.4,.5,-2.8,1.5,-3.8c.5,-.5,.5,-1.3,0,-1.8c-.5,-.6,-1.3,-.6,-1.9,0c-1.5,1.5,-2.3,3.5,-2.3,5.6c0,4.4,3.6,8,8,8c2.6,0,5.1,-1.3,6.6,-3.5v-.1l5.4,-8c3,-4.4,7.9,-7,13.2,-7c7.9,0,14.7,5.8,15.8,13.6l.2,1.2c.1,.6,.7,1.1,1.3,1.1Zm1.4,2.2c-.5,-.5,-1.4,-.5,-1.9,0c-.5,.6,-.5,1.4,0,1.9c.5,.5,1.4,.5,1.9,0c.5,-.5,.5,-1.3,0,-1.9Z" class="g1_1"/>
<path d="M696.4,1214.7c3.9,0,6.5,1.4,8,2.4c1,.7,1,1.7,.3,2.7l-.6,.9c-.7,1.1,-1.5,1.1,-2.6,.6c-1,-.7,-2.6,-1.5,-4.7,-1.5c-4.5,0,-7.4,3.4,-7.4,7.5c0,4.1,2.9,7.6,7.6,7.6c2.3,0,4.2,-1.1,5.4,-1.9c1.2,-.6,2.1,-.5,2.7,.7l.5,.9c.5,1,.4,2,-.6,2.6c-1.4,1.1,-4.4,2.8,-8.6,2.8c-8,0,-13.1,-5.6,-13.1,-12.7c0,-6.8,5.1,-12.6,13.1,-12.6Z" class="g1_1"/>
<path d="M710,1217.2c0,-1.2,.6,-2,1.9,-2h1.9c1.2,0,1.9,.8,1.9,2v1.5c0,.5,-.1,1.1,-.1,1.1h.1c1.1,-2,3.7,-5.1,8.6,-5.1c5.4,0,8.5,2.8,8.5,9.2v13.6c0,1.3,-.7,1.9,-2,1.9h-2.1c-1.3,0,-2,-.6,-2,-1.9v-12.4c0,-2.9,-.7,-4.9,-3.8,-4.9c-4.2,0,-7,3.5,-7,7.9v9.4c0,1.3,-.6,1.9,-1.9,1.9h-2.1c-1.3,0,-1.9,-.6,-1.9,-1.9Z" class="g1_1"/>
<path d="M739.5,1220.4h-1.3c-1.3,0,-1.9,-.7,-1.9,-2v-.8c0,-1.3,.6,-2,2,-2h1.3v-5c0,-1.2,.7,-2,2,-2h1.9c1.3,0,2,.8,2,2v5H749c1.3,0,2,.7,2,2v.8c0,1.3,-.7,2,-1.9,2h-3.6v9.4c0,3.6,2.2,4.3,3.9,4.5c1.5,.1,2,.6,2,1.9v1.5c0,1.4,-.8,2,-2.5,2c-4.3,0,-9.4,-2.3,-9.4,-8.9Z" class="g1_1"/>
<path d="M755.4,1217.2c0,-1.2,.7,-2,2,-2h1.8c1.3,0,2,.8,2,2v2.3c0,.9,-.1,1.7,-.1,1.7h.1c.9,-2.9,3.6,-6.1,7,-6.1c1.3,0,1.8,.6,1.8,1.9v1.9c0,1.3,-.8,2,-2,2c-4.4,0,-6.6,4.4,-6.6,8.8v7.8c0,1.3,-.6,1.9,-1.9,1.9h-2.1c-1.3,0,-2,-.6,-2,-1.9Z" class="g1_1"/>
<path d="M785.3,1224.5h1v-.6c0,-3.2,-2.1,-4.2,-4.5,-4.2c-2.1,0,-3.9,.7,-5.1,1.3c-1.1,.6,-2,.4,-2.6,-.8l-.5,-.9c-.6,-1.1,-.4,-2,.8,-2.6c1.5,-.8,4.3,-2,7.9,-2c6.3,0,10,3.5,10,9.6v13.2c0,1.3,-.6,1.9,-2,1.9h-1.6c-1.3,0,-1.9,-.6,-1.9,-1.9v-1c0,-.7,.1,-1,.1,-1h-.1c0,0,-2.3,4.5,-7.6,4.5c-4.4,0,-8.1,-2.8,-8.1,-7.2c0,-7.1,8.8,-8.3,14.2,-8.3m-4.5,10.9c3.4,0,5.5,-3.4,5.5,-6.3v-.9h-1c-3,0,-8.2,.4,-8.2,4c0,1.6,1.3,3.2,3.7,3.2Z" class="g1_1"/>
<path d="M795.6,1217.5c-.5,-1.4,.1,-2.3,1.6,-2.3h2.2c1.1,0,1.9,.6,2.2,1.7l4.5,13.3c.5,1.5,.9,3.7,.9,3.7h.1c0,0,.4,-2.2,.9,-3.7l4.5,-13.3c.3,-1.1,1.1,-1.7,2.2,-1.7h2.2c1.5,0,2.1,.9,1.7,2.3l-7.3,20.3c-.4,1.2,-1.1,1.6,-2.3,1.6h-3.8c-1.1,0,-1.9,-.4,-2.2,-1.6Z" class="g1_1"/>
<path d="M833.1,1214.7c6.9,0,10.7,4.9,10.7,11.5c0,1.1,-.9,2,-2.1,2H827c.3,4.4,3.6,6.7,7.2,6.7c2.3,0,4.1,-.9,5.2,-1.6c1.2,-.5,2.1,-.4,2.7,.7l.6,.9c.5,1.1,.4,2.1,-.7,2.7c-1.6,1,-4.4,2.4,-8.2,2.4c-8,0,-13,-5.8,-13,-12.7c0,-7.4,5,-12.6,12.3,-12.6m4.7,9.9c-.1,-3.4,-2.1,-5.4,-4.9,-5.4c-3,0,-5.2,2.2,-5.8,5.4Z" class="g1_1"/>
<path d="M848.1,1207.7c0,-1.2,.7,-1.9,2,-1.9h2.1c1.2,0,1.9,.7,1.9,1.9v23.7c0,2.4,1,2.8,1.9,2.9c.9,.1,1.5,.6,1.5,1.7v1.6c0,1.3,-.6,2.1,-2,2.1c-3.2,0,-7.4,-.9,-7.4,-7.8Z" class="g1_1"/>
</svg>