<?xml version="1.0" encoding="UTF-8" standalone="no"?>
<!DOCTYPE svg PUBLIC "-//W3C//DTD SVG 1.1//EN"
"http://www.w3.org/Graphics/SVG/1.1/DTD/svg11.dtd">
<svg viewBox="0 0 909 1286" version="1.1" xmlns="http://www.w3.org/2000/svg" xmlns:xlink="http://www.w3.org/1999/xlink">
<defs>
<clipPath id="c0_1"><path d="M640.7,1214.3V979.5H311.6v234.8ZM777.3,359.1V235.2H151V359.1ZM0,1286.2V0H909.4V1286.2Z"/></clipPath>
<clipPath id="c1_1"><path d="M311.6,1073.5v-94H531.2v94Z"/></clipPath>
<clipPath id="c2_1"><path d="M530.9,1167.6V979.5H640.7v188.1Z"/></clipPath>
<clipPath id="c3_1"><path d="M311.6,1167.6v-94.4H531.2v94.4Z"/></clipPath>
<clipPath id="c4_1"><path d="M311.6,1214.3v-46.9H640.7v46.9Z"/></clipPath>
<clipPath id="c5_1"><path d="M151,359.1V235.2H777.3V359.1Z"/></clipPath>
<style type="text/css"><![CDATA[
.g0_1{
fill: #FFF;
}
]]></style>
</defs>
<image clip-path="url(#c0_1)" preserveAspectRatio="none" x="0" y="0" width="910" height="1286" xlink:href="img/1.jpg"/>
<image clip-path="url(#c1_1)" preserveAspectRatio="none" x="311" y="979" width="220" height="95" xlink:href="img/2.jpg"/>
<image clip-path="url(#c2_1)" preserveAspectRatio="none" x="531" y="979" width="110" height="189" xlink:href="img/3.jpg"/>
<image clip-path="url(#c3_1)" preserveAspectRatio="none" x="311" y="1073" width="220" height="95" xlink:href="img/4.jpg"/>
<image clip-path="url(#c4_1)" preserveAspectRatio="none" x="311" y="1167" width="330" height="48" xlink:href="img/5.jpg"/>
<image clip-path="url(#c5_1)" preserveAspectRatio="none" x="151" y="235" width="627" height="124" xlink:href="img/6.jpg"/>
<path d="M363.6,1242.9c0,-5.7,4.6,-10.3,10.2,-10.3c1.2,0,2.4,.2,3.4,.6c.7,.2,1.4,-.1,1.7,-.8c.2,-.7,-.1,-1.4,-.8,-1.6c-1.4,-.5,-2.8,-.8,-4.3,-.8c-7,0,-12.8,5.8,-12.8,12.9c0,2.4,.7,4.8,2,6.8c.2,.4,.6,.6,1.1,.6c.2,0,.4,0,.6,-.2c.6,-.3,.8,-1.1,.4,-1.7c-1,-1.7,-1.5,-3.6,-1.5,-5.5m48.4,10.4l-1.1,-7.4c-.1,-.7,-.7,-1.2,-1.4,-1.1c-.7,.1,-1.2,.8,-1.1,1.5l1,7.3c.1,.7,.7,1.1,1.3,1.1h.2c.7,-.1,1.2,-.7,1.1,-1.4m-3.3,-12.7c-2.4,-3.4,-6.3,-5.4,-10.4,-5.4c-4.3,0,-8.3,2.1,-10.7,5.7l-5.2,7.7c-1.9,2.9,-5.1,4.6,-8.6,4.6c-1.9,0,-3.8,-.6,-5.4,-1.6c-.6,-.4,-1.4,-.2,-1.8,.4c-.4,.6,-.2,1.4,.4,1.8c2,1.2,4.4,1.9,6.8,1.9c4.3,0,8.3,-2.1,10.7,-5.7l5.2,-7.7c1.9,-2.9,5.1,-4.6,8.6,-4.6c3.3,0,6.4,1.7,8.3,4.4c.5,.6,1.3,.7,1.8,.3c.6,-.4,.8,-1.2,.3,-1.8Z" class="g0_1"/>
<path d="M407.1,1255.7l-1.2,-8.8c-.2,-1.6,-1,-3.1,-2.2,-4.3c-.5,-.5,-1.3,-.5,-1.8,0c-.5,.5,-.5,1.3,0,1.8c.8,.8,1.3,1.8,1.4,2.9l1.3,8.7c.1,.7,.6,1.1,1.3,1.1h.1c.7,-.1,1.2,-.7,1.1,-1.4m-8.8,-15.4c-2.6,0,-5,1.3,-6.4,3.4l-5.2,7.8c-2.9,4.2,-7.7,6.8,-12.9,6.8c-8.5,0,-15.4,-6.9,-15.4,-15.4c0,-7.5,5.4,-13.9,12.8,-15.2c.7,-.1,1.1,-.8,1,-1.5c-.1,-.7,-.8,-1.2,-1.5,-1c-8.6,1.5,-14.8,8.9,-14.8,17.7c0,9.9,8,18,17.9,18c6,0,11.6,-3,15,-8l5.2,-7.7c.9,-1.5,2.5,-2.3,4.3,-2.3c.7,0,1.2,-.6,1.2,-1.3c0,-.7,-.5,-1.3,-1.2,-1.3m-22.1,-13.2v0c.5,-.5,.5,-1.3,0,-1.8c-.5,-.5,-1.3,-.5,-1.8,0c-.5,.5,-.5,1.3,0,1.8c.5,.6,1.3,.6,1.8,0Z" class="g0_1"/>
<path d="M415.1,1248c.7,-.1,1.2,-.7,1.1,-1.4l-.1,-1.1c-1.3,-8.8,-8.9,-15.5,-17.8,-15.5c-6,0,-11.6,3,-15,8l-5.2,7.7v.1c-1,1.4,-2.5,2.2,-4.3,2.2c-2.8,0,-5.1,-2.3,-5.1,-5.1c0,-1.4,.5,-2.7,1.5,-3.7c.5,-.5,.5,-1.3,0,-1.8c-.5,-.5,-1.3,-.5,-1.8,0c-1.5,1.5,-2.3,3.4,-2.3,5.5c0,4.2,3.5,7.7,7.7,7.7c2.6,0,5,-1.3,6.4,-3.4l5.2,-7.8c2.9,-4.2,7.7,-6.8,12.9,-6.8c7.6,0,14.1,5.7,15.2,13.2l.2,1.1c.1,.7,.6,1.1,1.2,1.1Zm1.4,2.2c-.5,-.5,-1.3,-.5,-1.8,0c-.5,.5,-.5,1.3,0,1.8c.5,.5,1.3,.5,1.8,0c.5,-.5,.5,-1.3,0,-1.8Z" class="g0_1"/>
<path d="M440.9,1233.6c3.7,0,6.3,1.4,7.6,2.3c1,.7,1,1.6,.4,2.6l-.6,1c-.7,1,-1.5,1,-2.6,.5c-.9,-.7,-2.5,-1.5,-4.5,-1.5c-4.3,0,-7.1,3.3,-7.1,7.3c0,3.9,2.8,7.3,7.3,7.3c2.3,0,4.1,-1,5.2,-1.8c1.2,-.6,2,-.5,2.6,.6l.5,.9c.5,1,.4,1.9,-.5,2.6c-1.4,1,-4.3,2.7,-8.3,2.7c-7.8,0,-12.7,-5.5,-12.7,-12.3c0,-6.6,4.9,-12.2,12.7,-12.2Z" class="g0_1"/>
<path d="M454,1236.1c0,-1.3,.6,-2,1.8,-2h1.8c1.3,0,1.9,.7,1.9,2v1.4c0,.5,-.1,1,-.1,1h.1c1,-1.9,3.6,-4.9,8.3,-4.9c5.2,0,8.2,2.7,8.2,8.9v13.1c0,1.3,-.7,1.9,-2,1.9h-1.9c-1.3,0,-2,-.6,-2,-1.9v-11.9c0,-2.9,-.7,-4.8,-3.6,-4.8c-4.2,0,-6.8,3.4,-6.8,7.7v9c0,1.3,-.6,1.9,-1.8,1.9h-2.1c-1.2,0,-1.8,-.6,-1.8,-1.9Z" class="g0_1"/>
<path d="M482.5,1239.1h-1.3c-1.2,0,-1.8,-.7,-1.8,-1.9v-.8c0,-1.3,.6,-1.9,1.9,-1.9h1.3v-4.8c0,-1.3,.7,-1.9,1.9,-1.9h1.9c1.2,0,1.9,.6,1.9,1.9v4.8h3.4c1.2,0,1.9,.6,1.9,1.9v.8c0,1.2,-.7,1.9,-1.9,1.9h-3.4v9.1c0,3.5,2.2,4.1,3.8,4.3c1.4,.2,1.9,.6,1.9,1.9v1.4c0,1.4,-.8,2,-2.4,2c-4.2,0,-9.1,-2.3,-9.1,-8.6Z" class="g0_1"/>
<path d="M497.9,1236.1c0,-1.3,.6,-2,1.9,-2h1.8c1.2,0,1.9,.7,1.9,2v2.2c0,.8,-.1,1.6,-.1,1.6c1,-2.8,3.5,-6,6.8,-6c1.3,0,1.8,.7,1.8,2v1.8c0,1.2,-.8,1.9,-2,1.9c-4.3,0,-6.3,4.2,-6.3,8.5v7.5c0,1.3,-.7,1.9,-1.9,1.9h-2c-1.3,0,-1.9,-.6,-1.9,-1.9Z" class="g0_1"/>
<path d="M526.7,1243.1h1v-.6c0,-3,-2,-4.1,-4.4,-4.1c-1.9,0,-3.7,.7,-4.8,1.3c-1.2,.5,-2,.3,-2.6,-.8l-.4,-.8c-.6,-1.1,-.4,-2,.7,-2.6c1.5,-.8,4.2,-1.9,7.7,-1.9c6,0,9.6,3.4,9.6,9.3v12.7c0,1.3,-.6,1.9,-1.9,1.9H530c-1.2,0,-1.8,-.6,-1.8,-1.9v-.9c0,-.7,.1,-1,.1,-1h-.1c0,0,-2.2,4.4,-7.4,4.4c-4.2,0,-7.7,-2.8,-7.7,-7c0,-6.9,8.4,-8,13.6,-8m-4.3,10.5c3.2,0,5.4,-3.3,5.4,-6.1v-.9h-1c-2.9,0,-7.9,.5,-7.9,3.9c0,1.6,1.1,3.1,3.5,3.1Z" class="g0_1"/>
<path d="M536.7,1236.3c-.5,-1.3,.1,-2.2,1.5,-2.2h2.2c1.1,0,1.8,.5,2.1,1.6l4.4,12.9c.4,1.4,.8,3.6,.8,3.6h.1c0,0,.4,-2.2,.9,-3.6l4.3,-12.9c.3,-1.1,1.1,-1.6,2.2,-1.6h2.1c1.5,0,2.1,.9,1.6,2.2l-7.1,19.7c-.3,1.1,-1,1.5,-2.1,1.5H546c-1.1,0,-1.8,-.4,-2.1,-1.5Z" class="g0_1"/>
<path d="M572.9,1233.6c6.7,0,10.4,4.7,10.4,11.1c0,1,-.9,2,-2,2H567c.4,4.2,3.5,6.4,7,6.4c2.2,0,4,-.8,5.1,-1.5c1.1,-.5,1.9,-.4,2.5,.6l.6,1c.5,1,.4,1.9,-.6,2.5c-1.6,1,-4.3,2.4,-8,2.4c-7.7,0,-12.5,-5.6,-12.5,-12.3c0,-7.2,4.8,-12.2,11.8,-12.2m4.6,9.6c-.1,-3.3,-2,-5.2,-4.7,-5.2c-3,0,-5.1,2,-5.6,5.2Z" class="g0_1"/>
<path d="M587.5,1226.9c0,-1.3,.6,-1.9,1.9,-1.9h2c1.2,0,1.8,.6,1.8,1.9v22.9c0,2.3,1,2.7,1.9,2.8c.8,.1,1.4,.6,1.4,1.6v1.6c0,1.2,-.5,2,-1.9,2c-3.1,0,-7.1,-.9,-7.1,-7.6Z" class="g0_1"/>
</svg>