<?xml version="1.0" encoding="UTF-8" standalone="no"?>
<!DOCTYPE svg PUBLIC "-//W3C//DTD SVG 1.1//EN"
"http://www.w3.org/Graphics/SVG/1.1/DTD/svg11.dtd">
<svg viewBox="0 0 909 1286" version="1.1" xmlns="http://www.w3.org/2000/svg" xmlns:xlink="http://www.w3.org/1999/xlink">
<defs>
<clipPath id="c0"><path d="M0,1286.2V0H909.4V1286.2Z"/></clipPath>
<clipPath id="c1"><path d="M343.2,1211.3v-23.8h223v23.8Z"/></clipPath>
<style type="text/css"><![CDATA[
.g0{
fill: #F8FCFC;
}
.g1{
fill: #FAFDFD;
}
.g2{
fill: #FBFDFD;
}
.g3{
fill: #5AC4C1;
}
.g4{
fill: #FFF;
}
.g5{
fill: #1B1661;
}
]]></style>
</defs>
<g clip-path="url(#c0)">
<path d="M197.8,822.3c-69.7,0,-134.5,34.6,-173.5,92.5L0,951v74.8L59,938.1C90.1,891.7,142,864,197.8,864c54,0,105,26.4,136.3,70.5c4.1,5.8,10.5,8.8,17,8.8c4.2,0,8.4,-1.2,12.1,-3.8c9.4,-6.7,11.6,-19.8,5,-29.2C329,855.2,265.3,822.3,197.8,822.3M383,978.6c-1,0,-1.9,.1,-2.9,.2c-11.4,1.7,-19.3,12.3,-17.7,23.7l17.2,119.9c1.5,10.5,10.4,18,20.6,18c1,0,2,-.1,3,-.2c11.5,-1.7,19.4,-12.3,17.7,-23.7l-17.2,-120C402.3,986.1,393.3,978.6,383,978.6Z" class="g0"/>
<path d="M197.8,905.8c-41.8,0,-80.7,20.7,-104,55.5h-.1L9.2,1087.1v.1c-3,4.3,-6,8.6,-9.2,12.7v61.9c16.4,-15.2,31.1,-32.4,43.8,-51.4L128.4,984.6c15.6,-23.2,41.5,-37,69.4,-37c11.5,0,20.9,-9.4,20.9,-20.9c0,-11.5,-9.4,-20.9,-20.9,-20.9m73.7,30.5c-5.3,0,-10.7,2.1,-14.7,6.2c-8.2,8.1,-8.2,21.3,0,29.5c12.9,12.9,21.1,29.2,23.7,47.2l20.3,142c1.4,10.4,10.4,17.9,20.6,17.9c1,0,2,0,3,-.1c11.4,-1.7,19.3,-12.3,17.7,-23.7L321.8,1013.2c-3.9,-27,-16.1,-51.4,-35.5,-70.8c-4.1,-4,-9.4,-6.1,-14.8,-6.1Z" class="g0"/>
<path d="M197.8,780.5C120.1,780.5,47.4,816.4,0,877.2C47.4,816.4,120.1,780.5,197.8,780.5c123.9,0,230.5,92.4,248,214.8l2.6,17.9c1.5,10.4,10.4,17.9,20.6,17.9c1,0,2,-.1,3,-.2c10.4,-1.5,17.9,-10.4,17.9,-20.6c0,10.2,-7.5,19.1,-17.9,20.6c-1,.1,-2,.2,-3,.2c-10.2,0,-19.1,-7.5,-20.6,-17.9l-2.6,-17.9C428.3,872.9,321.7,780.5,197.8,780.5M500,1080.7c0,5.4,-2,10.7,-6.1,14.8c-4.1,4.1,-9.4,6.1,-14.8,6.1c-5.3,0,-10.7,-2,-14.8,-6.1c-4,-4.1,-6.1,-9.4,-6.1,-14.8c0,5.4,2.1,10.7,6.1,14.8c4.1,4.1,9.5,6.1,14.8,6.1c5.4,0,10.7,-2,14.8,-6.1c4.1,-4.1,6.1,-9.4,6.1,-14.8Z" class="g1"/>
<path d="M197.8,738.8c-74.2,0,-144.4,27.9,-197.8,77c53.4,-49.1,123.6,-77,197.8,-77c144.5,0,269,107.7,289.4,250.6l2.5,17.9c.2,1,.2,2,.2,3c0,-1,0,-2,-.2,-3l-2.5,-17.9C466.8,846.5,342.3,738.8,197.8,738.8Z" class="g2"/>
<path d="M197.8,738.8c-74.2,0,-144.4,27.9,-197.8,77v61.4C47.4,816.4,120.1,780.5,197.8,780.5c123.9,0,230.5,92.4,248,214.8l2.6,17.9c1.5,10.4,10.4,17.9,20.6,17.9c1,0,2,-.1,3,-.2c10.4,-1.5,17.9,-10.4,17.9,-20.6c0,-1,0,-2,-.2,-3l-2.5,-17.9C466.8,846.5,342.3,738.8,197.8,738.8m281.3,321c-5.3,0,-10.7,2.1,-14.8,6.1c-4,4.1,-6.1,9.5,-6.1,14.8c0,5.4,2.1,10.7,6.1,14.8c4.1,4.1,9.5,6.1,14.8,6.1c5.4,0,10.7,-2,14.8,-6.1c4.1,-4.1,6.1,-9.4,6.1,-14.8c0,-5.3,-2,-10.7,-6.1,-14.8c-4.1,-4,-9.4,-6.1,-14.8,-6.1Z" class="g0"/>
</g>
<path d="M237.1,337.3c-4.8,0,-8.7,3.9,-8.7,8.6v68.6c0,4.8,3.9,8.7,8.7,8.7H672.4c4.7,0,8.6,-3.9,8.6,-8.7V345.9c0,-4.7,-3.9,-8.6,-8.6,-8.6Z" class="g3"/>
<path d="M448.8,352.6v55.3h1.3V352.6Z" class="g4"/>
<path d="M338.2,614c0,-5.8,4.8,-10.6,10.6,-10.6c1.2,0,2.4,.2,3.5,.6c.7,.2,1.5,-.1,1.7,-.8c.3,-.7,-.1,-1.5,-.8,-1.7c-1.4,-.5,-2.9,-.8,-4.4,-.8c-7.3,0,-13.3,6,-13.3,13.3c0,2.5,.7,5,2.1,7.1c.2,.4,.7,.6,1.1,.6c.3,0,.5,0,.7,-.2c.6,-.4,.8,-1.2,.4,-1.8c-1,-1.7,-1.6,-3.7,-1.6,-5.7m50.1,10.8l-1.1,-7.7c-.1,-.7,-.8,-1.2,-1.5,-1.1c-.7,.1,-1.2,.8,-1.1,1.5l1.1,7.7c.1,.6,.6,1.1,1.3,1.1h.2c.7,-.1,1.2,-.8,1.1,-1.5m-3.4,-13.2c-2.5,-3.5,-6.5,-5.6,-10.8,-5.6c-4.4,0,-8.6,2.2,-11.1,5.9l-5.3,8c-2,3,-5.3,4.8,-8.9,4.8c-2,0,-3.9,-.6,-5.6,-1.7c-.7,-.4,-1.5,-.2,-1.9,.4c-.4,.7,-.2,1.5,.4,1.9c2.2,1.3,4.6,2,7.1,2c4.5,0,8.6,-2.2,11.1,-5.9l5.4,-8c1.9,-2.9,5.2,-4.7,8.8,-4.7c3.4,0,6.7,1.7,8.7,4.5c.4,.6,1.2,.7,1.8,.3c.6,-.4,.8,-1.3,.3,-1.9Z" class="g3"/>
<path d="M383.3,627.2l-1.3,-9c-.3,-1.7,-1,-3.3,-2.3,-4.5c-.5,-.5,-1.3,-.5,-1.9,0c-.5,.5,-.5,1.4,0,1.9c.9,.8,1.4,1.8,1.6,3l1.2,9c.1,.7,.7,1.2,1.4,1.2h.2c.7,-.2,1.2,-.8,1.1,-1.6m-9.2,-15.8c-2.7,0,-5.1,1.3,-6.6,3.5l-5.4,8c-3,4.4,-7.9,7.1,-13.3,7.1c-8.8,0,-15.9,-7.2,-15.9,-16c0,-7.7,5.5,-14.4,13.2,-15.7c.7,-.1,1.2,-.8,1,-1.5c-.1,-.8,-.8,-1.2,-1.5,-1.1c-8.9,1.5,-15.4,9.3,-15.4,18.3c0,10.3,8.4,18.6,18.6,18.6c6.2,0,12,-3,15.5,-8.2l5.4,-8c1,-1.5,2.6,-2.4,4.4,-2.4c.7,0,1.3,-.6,1.3,-1.3c0,-.7,-.6,-1.3,-1.3,-1.3M351.3,597.7v0c.5,-.5,.5,-1.3,0,-1.8c-.5,-.6,-1.4,-.6,-1.9,0c-.5,.5,-.5,1.3,0,1.8c.5,.6,1.4,.6,1.9,0Z" class="g3"/>
<path d="M391.6,619.3c.7,-.1,1.2,-.8,1.1,-1.5l-.2,-1.1c-1.3,-9.1,-9.2,-16,-18.4,-16c-6.2,0,-12,3.1,-15.5,8.3l-5.4,8c-1,1.5,-2.6,2.3,-4.4,2.3c-2.9,0,-5.3,-2.3,-5.3,-5.3c0,-1.4,.6,-2.7,1.6,-3.7c.5,-.6,.5,-1.4,0,-1.9c-.5,-.5,-1.4,-.5,-1.9,0c-1.5,1.5,-2.3,3.5,-2.3,5.6c0,4.4,3.5,8,7.9,8c2.7,0,5.2,-1.3,6.6,-3.5h.1l5.3,-8c3,-4.5,8,-7.1,13.3,-7.1c7.9,0,14.7,5.9,15.8,13.7l.1,1.1c.1,.7,.7,1.1,1.4,1.1Zm1.3,2.3c-.5,-.6,-1.3,-.6,-1.8,0c-.6,.5,-.6,1.3,0,1.8c.5,.6,1.3,.6,1.8,0c.6,-.5,.6,-1.3,0,-1.8Z" class="g3"/>
<path d="M418.2,604.4c3.9,0,6.5,1.4,7.9,2.4c1,.7,1.1,1.7,.4,2.7l-.6,1c-.7,1.1,-1.5,1.1,-2.7,.5c-1,-.7,-2.6,-1.5,-4.7,-1.5c-4.4,0,-7.3,3.4,-7.3,7.5c0,4.1,2.9,7.6,7.5,7.6c2.4,0,4.3,-1,5.4,-1.8c1.2,-.7,2.1,-.6,2.7,.6l.5,.9c.6,1,.4,2,-.5,2.6c-1.5,1.1,-4.4,2.8,-8.6,2.8c-8,0,-13.2,-5.6,-13.2,-12.6c0,-6.9,5.2,-12.7,13.2,-12.7Z" class="g5"/>
<path d="M431.7,607c0,-1.3,.7,-2,2,-2h1.8c1.3,0,2,.7,2,2v1.4c0,.6,-.1,1.1,-.1,1.1h.1c1,-2,3.7,-5.1,8.6,-5.1c5.3,0,8.4,2.8,8.4,9.2v13.6c0,1.3,-.7,2,-2,2h-2c-1.3,0,-2,-.7,-2,-2V614.8c0,-2.9,-.8,-4.9,-3.8,-4.9c-4.3,0,-7,3.6,-7,7.9v9.4c0,1.3,-.7,2,-1.9,2h-2.1c-1.3,0,-2,-.7,-2,-2Z" class="g5"/>
<path d="M461.2,610.1H460c-1.3,0,-2,-.7,-2,-2v-.8c0,-1.3,.7,-2,2,-2h1.4v-4.9c0,-1.3,.7,-2,2,-2h1.9c1.3,0,2,.7,2,2v4.9h3.5c1.3,0,2,.7,2,2v.8c0,1.3,-.7,2,-2,2h-3.5v9.4c0,3.6,2.2,4.3,3.9,4.5c1.4,.1,2,.6,2,1.9v1.5c0,1.4,-.9,2,-2.5,2c-4.3,0,-9.5,-2.3,-9.5,-8.9Z" class="g5"/>
<path d="M477.2,607c0,-1.3,.7,-2,1.9,-2H481c1.3,0,2,.7,2,2v2.2c0,.9,-.2,1.7,-.2,1.7h.1c1,-2.9,3.6,-6.1,7.1,-6.1c1.3,0,1.8,.6,1.8,2v1.8c0,1.3,-.8,2,-2.1,2c-4.4,0,-6.5,4.4,-6.5,8.8v7.8c0,1.3,-.7,2,-2,2h-2.1c-1.2,0,-1.9,-.7,-1.9,-2Z" class="g5"/>
<path d="M507,614.2h1v-.6c0,-3.1,-2,-4.2,-4.5,-4.2c-2,0,-3.9,.7,-5,1.4c-1.2,.5,-2.1,.3,-2.7,-.9l-.4,-.9c-.6,-1,-.4,-2,.7,-2.6c1.6,-.8,4.3,-2,8,-2c6.2,0,10,3.5,10,9.6v13.2c0,1.3,-.7,2,-2,2h-1.6c-1.3,0,-2,-.7,-2,-2v-1c0,-.6,.1,-1,.1,-1h-.1c0,0,-2.3,4.5,-7.6,4.5c-4.4,0,-8,-2.8,-8,-7.2c0,-7.1,8.7,-8.3,14.1,-8.3m-4.5,10.9c3.4,0,5.6,-3.4,5.6,-6.3v-.9h-1c-3,0,-8.2,.4,-8.2,4.1c0,1.6,1.2,3.1,3.6,3.1Z" class="g5"/>
<path d="M517.3,607.2c-.4,-1.3,.1,-2.2,1.6,-2.2h2.2c1.2,0,1.9,.5,2.3,1.6l4.5,13.4c.5,1.4,.9,3.6,.9,3.6h.1c0,0,.4,-2.2,.8,-3.6l4.5,-13.4c.4,-1.1,1.1,-1.6,2.3,-1.6h2.2c1.5,0,2.1,.9,1.6,2.2L533,627.6c-.4,1.1,-1.1,1.6,-2.2,1.6H527c-1.2,0,-1.9,-.5,-2.3,-1.6Z" class="g5"/>
<path d="M554.8,604.4c6.9,0,10.8,4.9,10.8,11.5c0,1.1,-.9,2.1,-2.1,2.1H548.7c.4,4.3,3.6,6.6,7.3,6.6c2.2,0,4.1,-.8,5.2,-1.6c1.2,-.5,2,-.4,2.7,.7l.5,1c.6,1.1,.4,2,-.6,2.6c-1.6,1,-4.5,2.4,-8.3,2.4c-8,0,-13,-5.8,-13,-12.6c0,-7.5,5.1,-12.7,12.3,-12.7m4.8,9.9c-.1,-3.4,-2.2,-5.3,-4.9,-5.3c-3.1,0,-5.3,2.1,-5.8,5.3Z" class="g5"/>
<path d="M569.9,597.5c0,-1.3,.6,-2,1.9,-2h2.1c1.3,0,2,.7,2,2v23.6c0,2.4,1,2.8,1.9,2.9c.8,.1,1.4,.7,1.4,1.8v1.6c0,1.2,-.5,2,-2,2c-3.2,0,-7.3,-.8,-7.3,-7.8Z" class="g5"/>
<image clip-path="url(#c1)" preserveAspectRatio="none" x="343" y="1187" width="223" height="24" xlink:href="img/1.jpg"/>
<path d="M229.3,1140.1v16.8c0,3.4,1.4,6.5,3.6,8.8c2.3,2.2,5.5,3.6,8.9,3.6h16.9c.5,0,.8,-.3,.8,-.8c0,-.4,-.3,-.7,-.8,-.7H241.8c-3,0,-5.8,-1.3,-7.8,-3.2c-2,-2,-3.2,-4.7,-3.2,-7.7v-16.8c0,-.4,-.4,-.8,-.8,-.8c-.4,0,-.7,.4,-.7,.8ZM680.2,946.4V929.6c0,-3.4,-1.4,-6.5,-3.7,-8.7c-2.3,-2.3,-5.4,-3.7,-8.9,-3.7H650.7c-.4,0,-.8,.4,-.8,.8c0,.4,.4,.7,.8,.7h16.9c3.1,0,5.8,1.3,7.8,3.2c2,2,3.3,4.7,3.3,7.7v16.8c0,.4,.3,.7,.7,.7c.4,0,.8,-.3,.8,-.7ZM258.7,917.2H241.8c-3.4,0,-6.6,1.4,-8.9,3.7c-2.2,2.2,-3.6,5.3,-3.6,8.7v16.8c0,.4,.3,.7,.7,.7c.4,0,.8,-.3,.8,-.7V929.6c0,-3,1.2,-5.7,3.2,-7.7c2,-1.9,4.8,-3.2,7.8,-3.2h16.9c.5,0,.8,-.3,.8,-.7c0,-.4,-.3,-.8,-.8,-.8Zm392,252.1h16.9c3.5,0,6.6,-1.4,8.9,-3.6c2.3,-2.3,3.7,-5.4,3.7,-8.8v-16.8c0,-.4,-.4,-.7,-.8,-.7c-.4,0,-.7,.3,-.7,.7v16.8c0,3,-1.3,5.7,-3.3,7.7c-2,1.9,-4.7,3.2,-7.8,3.2H650.7c-.4,0,-.8,.3,-.8,.7c0,.5,.4,.8,.8,.8Z" class="g3"/>
</svg>