<?xml version="1.0" encoding="UTF-8" standalone="no"?>
<!DOCTYPE svg PUBLIC "-//W3C//DTD SVG 1.1//EN"
"http://www.w3.org/Graphics/SVG/1.1/DTD/svg11.dtd">
<svg viewBox="0 0 909 1286" version="1.1" xmlns="http://www.w3.org/2000/svg" xmlns:xlink="http://www.w3.org/1999/xlink">
<defs>
<clipPath id="c0_31"><path d="M0,51.7V0H159.6V51.7H139.4V42.8H42.6v8.9Z"/></clipPath>
<clipPath id="c1_31"><path d="M159.3,51.7V0H319V51.7Z"/></clipPath>
<clipPath id="c2_31"><path d="M318.8,51.7V0H478.5V51.7Z"/></clipPath>
<clipPath id="c3_31"><path d="M478.3,51.7V0H584.6V51.7Z"/></clipPath>
<clipPath id="c4_31"><path d="M0,103.4V51.5H42.6v5.6h96.8V51.5h20.2v51.9Z"/></clipPath>
<clipPath id="c5_31"><path d="M478.3,103.4V51.5H584.6v51.9Z"/></clipPath>
<clipPath id="c6_31"><path d="M0,155.1V103.2H159.6v51.9Z"/></clipPath>
<clipPath id="c7_31"><path d="M478.3,155.1V103.2H584.6v51.9Z"/></clipPath>
<clipPath id="c8_31"><path d="M0,206.9v-52H159.6v52Z"/></clipPath>
<clipPath id="c9_31"><path d="M478.3,206.9v-52H584.6v52Z"/></clipPath>
<clipPath id="ca_31"><path d="M0,258.6V206.7H159.6v51.9Z"/></clipPath>
<clipPath id="cb_31"><path d="M478.3,258.6V206.7H584.6v51.9Z"/></clipPath>
<clipPath id="cc_31"><path d="M0,310.3V258.4H159.6v31.2H135.5v20.7Z"/></clipPath>
<clipPath id="cd_31"><path d="M159.3,289.6V258.4H319v31.2Z"/></clipPath>
<clipPath id="ce_31"><path d="M318.8,289.6V258.4H478.5v31.2Z"/></clipPath>
<clipPath id="cf_31"><path d="M478.3,289.6V258.4H584.6v31.2Z"/></clipPath>
<clipPath id="cg_31"><path d="M0,361.9V310.1H135.5v51.8Z"/></clipPath>
<clipPath id="ch_31"><path d="M42.6,57.1V42.8h96.8V57.1Z"/></clipPath>
<clipPath id="ci_31"><path d="M135.5,390.8v-5.1h88.1v5.1Zm0,-7.4V361.9h88.1v21.5Z"/></clipPath>
<clipPath id="cj_31"><path d="M135.5,361.9V289.6h88.1v72.3Z"/></clipPath>
<clipPath id="ck_31"><path d="M135.5,385.7v-2.3h88.1v2.3Z"/></clipPath>
<clipPath id="cl_31"><path d="M232.8,390.8v-5.1h78.9v5.1Zm0,-7.4V361.9h78.9v21.5Z"/></clipPath>
<clipPath id="cm_31"><path d="M232.8,361.9V289.6h78.9v72.3Z"/></clipPath>
<clipPath id="cn_31"><path d="M232.8,385.7v-2.3h78.9v2.3Z"/></clipPath>
<clipPath id="co_31"><path d="M223.6,390.8v-5.1h9.2v5.1Zm0,-7.4V361.9h9.2v21.5Z"/></clipPath>
<clipPath id="cp_31"><path d="M223.6,361.9V289.6h9.2v72.3Z"/></clipPath>
<clipPath id="cq_31"><path d="M223.6,385.7v-2.3h9.2v2.3Z"/></clipPath>
<clipPath id="cr_31"><path d="M497.2,390.8v-5.1h87.4v-2.3h-11V361.9h11V289.6h.7V390.8Z"/></clipPath>
<clipPath id="cs_31"><path d="M573.6,361.9V320.6c0,-3.8,-1.2,-7.4,-3.3,-10.4v-2.6h-2.2c-3.3,-3.3,-7.8,-5.3,-12.8,-5.3H512.9c-5,0,-9.5,2,-12.8,5.3h-2.5v3c-.2,.2,-.3,.4,-.4,.6V289.6h87.4v72.3Z"/></clipPath>
<clipPath id="ct_31"><path d="M573.6,385.7v-2.3h11v2.3Z"/></clipPath>
<clipPath id="cu_31"><path d="M497.6,310.6v-3h2.5c-1,.9,-1.8,1.9,-2.5,3Zm72.7,-.4c-.6,-.9,-1.3,-1.8,-2.2,-2.6h2.2v2.6Z"/></clipPath>
<clipPath id="cv_31"><path d="M409.1,390.8v-5.1h78.8v5.1Zm76.4,-7.4V361.9h2.4v21.5Z"/></clipPath>
<clipPath id="cw_31"><path d="M485.5,361.9V320.6c0,-10.1,-8.2,-18.3,-18.3,-18.3H424.8c-6.7,0,-12.5,3.6,-15.7,9V289.6h78.8v72.3Z"/></clipPath>
<clipPath id="cx_31"><path d="M485.5,385.7v-2.3h2.4v2.3Z"/></clipPath>
<clipPath id="cy_31"><path d="M487.9,390.8v-5.1h9.3v5.1Zm0,-7.4V361.9h6.7v16.6h-.1v4.9Z"/></clipPath>
<clipPath id="cz_31"><path d="M487.9,361.9V289.6h9.3v21.6c-1.7,2.8,-2.6,6,-2.6,9.4v41.3Z"/></clipPath>
<clipPath id="c10_31"><path d="M487.9,385.7v-2.3h6.6v2.3Z"/></clipPath>
<clipPath id="c11_31"><path d="M494.6,378.5V320.6c0,-3.4,.9,-6.6,2.6,-9.4v67.3Z"/></clipPath>
<clipPath id="c12_31"><path d="M494.5,385.7v-7.2h2.7v7.2Z"/></clipPath>
<clipPath id="c13_31"><path d="M321,390.8v-5.1h78.8v5.1Zm0,-7.4V361.9h78.8v21.5Z"/></clipPath>
<clipPath id="c14_31"><path d="M321,361.9V289.6h78.8v72.3Z"/></clipPath>
<clipPath id="c15_31"><path d="M321,385.7v-2.3h78.8v2.3Z"/></clipPath>
<clipPath id="c16_31"><path d="M311.7,390.8v-5.1H321v5.1Zm0,-7.4V361.9H321v21.5Z"/></clipPath>
<clipPath id="c17_31"><path d="M311.7,361.9V289.6H321v72.3Z"/></clipPath>
<clipPath id="c18_31"><path d="M311.7,385.7v-2.3H321v2.3Z"/></clipPath>
<clipPath id="c19_31"><path d="M399.8,390.8v-5.1h9.3v5.1Zm0,-7.4V361.9h6.7v16.6h-.1v4.9Z"/></clipPath>
<clipPath id="c1a_31"><path d="M399.8,361.9V289.6h9.3v21.7c-1.7,2.7,-2.6,5.9,-2.6,9.3v41.3Z"/></clipPath>
<clipPath id="c1b_31"><path d="M399.8,385.7v-2.3h6.6v2.3Z"/></clipPath>
<clipPath id="c1c_31"><path d="M406.5,378.5V320.6c0,-3.4,.9,-6.6,2.6,-9.3v67.2Z"/></clipPath>
<clipPath id="c1d_31"><path d="M406.4,385.7v-7.2h2.7v7.2Z"/></clipPath>
<style type="text/css"><![CDATA[
.g0_31{
fill: #E7E8E8;
}
.g1_31{
fill: #1B1661;
}
.g2_31{
fill: #DCDDDE;
}
.g3_31{
fill: #FFF;
}
.g4_31{
fill: #ED1A40;
}
.g5_31{
fill: #D1232A;
}
.g6_31{
fill: #FCB61D;
}
.g7_31{
fill: #FEE6BB;
}
.g8_31{
fill: #CFCBCA;
}
.g9_31{
fill: #5AC4C1;
}
.ga_31{
fill: #09B795;
}
.gb_31{
fill: #F37537;
}
.gc_31{
fill: #5180C1;
}
]]></style>
</defs>
<path d="M324.8,1241.7H584.6v-181H324.8v181Z" class="g0_31"/>
<path d="M324.8,1060.7H584.6V1087H324.8v-26.3Z" class="g1_31"/>
<path d="M324.8,1127.8H511.6v40.8H324.8v-40.8Zm186.8,0h73v40.8h-73v-40.8Zm-186.8,65.5H511.6v24.8H324.8v-24.8Zm186.8,0h73v24.8h-73v-24.8Z" class="g2_31"/>
<path d="M324.8,1218.9H511.6v-1.6H324.8v1.6Z" class="g3_31"/>
<path d="M511.6,1218.9h73v-1.6h-73v1.6Z" class="g3_31"/>
<path d="M343.9,1070.9l-1,-.6c-.2,-.2,-.6,-.1,-.8,.1l-4.7,7l-2.1,-2.2c-.3,-.2,-.6,-.2,-.8,0l-.9,.8c-.2,.2,-.2,.6,0,.8l3.4,3.4c.1,.2,.4,.3,.7,.3c.3,0,.5,-.2,.7,-.4l5.7,-8.4c.1,-.2,.1,-.6,-.2,-.8Z" class="g3_31"/>
<path d="M606.3,1241.7H866.1V961.4H606.3v280.3Z" class="g0_31"/>
<path d="M606.3,961.4H866.1V989H606.3V961.4Z" class="g1_31"/>
<path d="M606.3,989H866.1v27H606.3V989Zm0,215.2H866.1v37.5H606.3v-37.5Z" class="g2_31"/>
<path d="M606.3,1016.4H866.1v-.8H606.3Z" class="g3_31"/>
<path d="M606.3,1204.6H866.1v-.8H606.3Z" class="g3_31"/>
<path d="M625.4,973l-1,-.7c-.2,-.2,-.6,-.1,-.8,.2l-4.7,6.9l-2.1,-2.2c-.3,-.2,-.6,-.2,-.8,0l-.9,.8c-.2,.3,-.2,.6,0,.9l3.4,3.3c.1,.2,.4,.3,.7,.3c.3,0,.5,-.1,.7,-.4l5.6,-8.3c.2,-.3,.2,-.7,-.1,-.8Z" class="g3_31"/>
<path d="M610.6,249.2c-2.4,0,-4.3,2,-4.3,4.4v39.7c0,2.4,1.9,4.3,4.3,4.3H861.8c2.4,0,4.3,-1.9,4.3,-4.3V253.6c0,-2.4,-1.9,-4.4,-4.3,-4.4Z" class="g4_31"/>
<path d="M727.1,279.8h69.7v-.9H727.1Z" class="g3_31"/>
<image clip-path="url(#c0_31)" preserveAspectRatio="none" x="0" y="0" width="160" height="52" xlink:href="img/1.jpg"/>
<image clip-path="url(#c1_31)" preserveAspectRatio="none" x="159" y="0" width="160" height="52" xlink:href="img/2.jpg"/>
<image clip-path="url(#c2_31)" preserveAspectRatio="none" x="319" y="0" width="160" height="52" xlink:href="img/3.jpg"/>
<image clip-path="url(#c3_31)" preserveAspectRatio="none" x="478" y="0" width="107" height="52" xlink:href="img/4.jpg"/>
<image clip-path="url(#c4_31)" preserveAspectRatio="none" x="0" y="52" width="160" height="51" xlink:href="img/5.jpg"/>
<image preserveAspectRatio="none" x="159" y="52" width="160" height="51" xlink:href="img/6.jpg"/>
<image preserveAspectRatio="none" x="319" y="52" width="160" height="51" xlink:href="img/7.jpg"/>
<image clip-path="url(#c5_31)" preserveAspectRatio="none" x="478" y="52" width="107" height="51" xlink:href="img/8.jpg"/>
<image clip-path="url(#c6_31)" preserveAspectRatio="none" x="0" y="103" width="160" height="52" xlink:href="img/9.jpg"/>
<image preserveAspectRatio="none" x="159" y="103" width="160" height="52" xlink:href="img/10.jpg"/>
<image preserveAspectRatio="none" x="319" y="103" width="160" height="52" xlink:href="img/11.jpg"/>
<image clip-path="url(#c7_31)" preserveAspectRatio="none" x="478" y="103" width="107" height="52" xlink:href="img/12.jpg"/>
<image clip-path="url(#c8_31)" preserveAspectRatio="none" x="0" y="155" width="160" height="52" xlink:href="img/13.jpg"/>
<image preserveAspectRatio="none" x="159" y="155" width="160" height="52" xlink:href="img/14.jpg"/>
<image preserveAspectRatio="none" x="319" y="155" width="160" height="52" xlink:href="img/15.jpg"/>
<image clip-path="url(#c9_31)" preserveAspectRatio="none" x="478" y="155" width="107" height="52" xlink:href="img/16.jpg"/>
<image clip-path="url(#ca_31)" preserveAspectRatio="none" x="0" y="207" width="160" height="52" xlink:href="img/17.jpg"/>
<image preserveAspectRatio="none" x="159" y="207" width="160" height="52" xlink:href="img/18.jpg"/>
<image preserveAspectRatio="none" x="319" y="207" width="160" height="52" xlink:href="img/19.jpg"/>
<image clip-path="url(#cb_31)" preserveAspectRatio="none" x="478" y="207" width="107" height="52" xlink:href="img/20.jpg"/>
<image clip-path="url(#cc_31)" preserveAspectRatio="none" x="0" y="258" width="160" height="52" xlink:href="img/21.jpg"/>
<image clip-path="url(#cd_31)" preserveAspectRatio="none" x="159" y="258" width="160" height="52" xlink:href="img/22.jpg"/>
<image clip-path="url(#ce_31)" preserveAspectRatio="none" x="319" y="258" width="160" height="52" xlink:href="img/23.jpg"/>
<image clip-path="url(#cf_31)" preserveAspectRatio="none" x="478" y="258" width="107" height="52" xlink:href="img/24.jpg"/>
<image clip-path="url(#cg_31)" preserveAspectRatio="none" x="0" y="310" width="160" height="52" xlink:href="img/25.jpg"/>
<image clip-path="url(#ch_31)" preserveAspectRatio="none" x="43" y="43" width="96" height="14" xlink:href="img/26.jpg"/>
<path d="M325.6,757.1h-.8v288.5H584.6V756.3H324.8v.8h.8v.7H583.1V1044H326.3V757.1h-.7v.7Z" class="g1_31"/>
<path d="M369.8,763.6H539.6V749.8H369.8Z" class="g3_31"/>
<path d="M44.1,1058.8h-.8v38.1H303.1V1058H43.3v.8h.8v.7H301.6v35.9H44.8v-36.6h-.7v.7Z" class="g5_31"/>
<path d="M64.5,1085.2c-5.3,0,-9.6,-4.4,-9.6,-9.7c0,-5.4,4.4,-9.7,9.7,-9.6c5.3,0,9.6,4.3,9.6,9.6c0,5.4,-4.4,9.7,-9.7,9.7m0,-1.4c4.6,0,8.3,-3.7,8.3,-8.3c0,-4.5,-3.7,-8.3,-8.3,-8.3c-4.5,.1,-8.2,3.8,-8.2,8.3c-.1,4.6,3.6,8.3,8.2,8.3Z" class="g5_31"/>
<path d="M51.3,1071c.4,.1,.5,0,.5,-.4c0,-1.2,0,-2.4,0,-3.7c0,-.2,-.1,-.4,0,-.5c.2,-.3,.4,-.6,.6,-.6c.3,0,.5,.3,.7,.5c.1,.2,.1,.4,.1,.7c0,1.3,0,2.7,0,4h.4c0,-.9,0,-1.8,0,-2.7c0,-.6,-.1,-1.2,-.1,-1.8c0,-.4,.3,-.7,.7,-.7c.4,0,.7,.2,.7,.7c.1,1.8,.2,3.6,.2,5.4c0,.8,-.4,1.5,-1.1,1.9c-.3,.3,-.4,.5,-.4,.9c.1,3.5,.1,6.9,.2,10.4c0,.6,-.2,1.1,-.8,1.3c-.5,.3,-1,.2,-1.4,-.2c-.2,-.3,-.4,-.7,-.4,-1.1c0,-2.3,0,-4.6,.1,-6.9c0,-1.2,0,-2.4,0,-3.7c0,-.2,-.2,-.4,-.3,-.6c-.8,-.6,-1.2,-1.3,-1.2,-2.3c.1,-1.7,.2,-3.3,.2,-5c0,-.4,.2,-.8,.7,-.8c.4,-.1,.7,.3,.7,.8c0,1.3,-.1,2.6,-.1,3.8c0,.2,0,.4,0,.6m2.1,1.5H51.5c.7,.7,1.3,.7,1.9,0Z" class="g5_31"/>
<path d="M75,1076.3c0,-2.9,0,-5.8,0,-8.7c0,-.6,.2,-1.2,.8,-1.6c.9,-.5,2.1,0,2.4,1.1c.5,2.2,.8,4.5,.5,6.9c-.1,1.1,-.3,2.2,-.5,3.3c0,.2,0,.4,0,.7c0,2.4,0,4.7,0,7.1c-.1,1,-.7,1.5,-1.7,1.5c-.9,0,-1.5,-.6,-1.5,-1.5c0,-.1,0,-.3,0,-.4c0,-2.8,0,-5.6,0,-8.4m1.3,.4q.6,.1,.7,-.4c.5,-2.3,.5,-4.6,.2,-7c-.1,-.6,-.2,-1.1,-.3,-1.7l-.3,-.4l-.2,.4l-.1,.3c0,2.7,0,5.5,0,8.2Z" class="g5_31"/>
<path d="M64.5,1068.7v.8h.1c3.2,0,5.9,2.7,6,6c0,3.3,-2.7,6,-6,6h-.1c-1.6,0,-3.1,-.6,-4.2,-1.7c-1.1,-1.1,-1.8,-2.6,-1.8,-4.3c0,-3.3,2.7,-6,6,-6V1068c-4.1,0,-7.5,3.4,-7.5,7.5c0,4.2,3.4,7.6,7.5,7.6h.1c4.1,-.1,7.5,-3.4,7.5,-7.6c0,-4.1,-3.4,-7.5,-7.5,-7.5h-.1Z" class="g5_31"/>
<path d="M606.7,193.6h34.6v40.5H606.7V193.6Z" class="g3_31"/>
<image x="641" y="193" width="226" height="42" xlink:href="shade/1.png"/>
<path d="M641.3,214.8H866.1v-1.5H641.3Z" class="g6_31"/>
<path d="M624.5,232.6c9.9,0,17.9,-8,17.9,-17.9c0,-9.8,-8,-17.8,-17.9,-17.8c-9.8,0,-17.8,8,-17.8,17.8c0,9.9,8,17.9,17.8,17.9Z" class="g6_31"/>
<path d="M635,216.5c0,.7,.2,1.4,.2,2.2c-.1,2,-1,3.5,-2.7,4.6c-1.3,.9,-2.8,1.3,-4.4,1.3c-2.4,0,-4.8,.1,-7.2,0c-1.6,0,-3.1,-.4,-4.5,-1.3c-1.9,-1.4,-2.7,-3.3,-2.5,-5.7c.3,-1.9,.4,-3.9,.4,-5.8c.1,-1.8,0,-3.7,0,-5.5c-.1,-2.1,.8,-3.7,2.5,-4.9c1.5,-1.1,3.1,-1.6,4.9,-1.6c1.9,-.1,3.8,-.1,5.7,0c1.7,0,3.3,.4,4.7,1.4c1.9,1.4,2.8,3.2,2.7,5.6c-.1,1.2,-.1,2.4,-.1,3.6c0,0,.1,4.1,.3,6.1M624.5,201v-.1c-.9,0,-1.8,0,-2.8,.1c-1.3,0,-2.5,.3,-3.7,1c-1.5,.9,-2.6,2.2,-2.5,4.1c.1,.9,.3,1.7,.6,2.5c.4,1.4,1,2.6,2.1,3.6c.3,.2,.3,.5,0,.8c-.6,.7,-1.3,1.3,-2.1,1.5c-.6,.2,-.7,.5,-.7,1c-.1,.5,0,.9,.4,1.2c.7,.8,1.6,1.4,2.6,1.8c1.8,.8,3.7,1,5.7,1.1c2,0,4,-.2,6,-.9c1.3,-.4,2.5,-1.1,3.4,-2.3c.1,-.1,.2,-.3,.2,-.4c0,-.3,0,-.7,-.1,-1l-.2,-.3c-1,-.3,-1.8,-.9,-2.6,-1.7c-.3,-.3,-.2,-.6,.1,-.9c.4,-.5,.9,-.9,1.2,-1.5c.7,-1.2,1.2,-2.6,1.4,-4c.2,-1.1,-.1,-2.2,-.8,-3.1c-1.1,-1.6,-2.7,-2.3,-4.6,-2.5c-1.2,-.1,-2.4,0,-3.6,0m-9.3,16.5c-.3,1.6,0,3.1,1.3,4.2c1.2,1.2,2.8,1.7,4.5,1.7c2.3,0,4.7,0,7,0c.8,0,1.6,-.1,2.3,-.3c1.4,-.5,2.6,-1.3,3.3,-2.7c.4,-.9,.5,-1.9,.2,-2.9h-.1c-1.1,1.4,-2.5,2.2,-4.2,2.7c-2.9,.7,-5.8,.7,-8.7,.3c-1.4,-.3,-2.7,-.7,-3.9,-1.5c-.6,-.4,-1.1,-1,-1.7,-1.5Z" class="g7_31"/>
<path d="M619.2,225c-.5,.4,-1,.8,-1.5,1.2c-.5,.4,-1.8,1.4,-2.3,1.8c-.2,.2,-.5,.2,-.8,.1l-.3,-.3c0,-.3,0,-.5,.3,-.7c.3,-.2,1.3,-1.1,1.7,-1.4c.4,-.3,.8,-.6,1.3,-.9l.4,-.1c.4,.1,.7,.2,1.2,.3Z" class="g7_31"/>
<path d="M629.9,225c.5,-.1,.9,-.2,1.3,-.4l.3,.2c.7,.5,2.3,1.7,3,2.3c.1,.1,.2,.2,.3,.4c.1,.2,0,.5,-.2,.5c-.2,.1,-.5,.2,-.7,.1c-1.1,-.8,-2.9,-2.2,-4,-3.1Z" class="g7_31"/>
<path d="M624.5,211.7c-1.1,0,-2.2,0,-3.2,0c-2,-.2,-3.5,-1.6,-3.9,-3.6c-.1,-.4,-.2,-.9,-.3,-1.4c-.4,-1.9,1,-3.6,2.9,-3.6c3,0,6,0,9,0c1.9,0,3.2,1.5,3,3.3c-.2,1.1,-.3,2.2,-.9,3.1c-.8,1.4,-2.1,2.2,-3.8,2.2c-.9,0,-1.9,0,-2.8,0Z" class="g7_31"/>
<path d="M629.1,214.4c.2,0,.5,0,.8,0c.4,0,.7,.3,.5,.6c-.4,.9,-1,1.7,-1.5,2.6c-.1,.1,-.3,.2,-.5,.2c-.6,0,-1.1,0,-1.6,0c-.5,0,-.8,-.3,-.6,-.6c.5,-.9,1,-1.7,1.5,-2.5c.1,-.2,.3,-.3,.6,-.3c.3,0,.5,0,.8,0Z" class="g7_31"/>
<path d="M621.5,217.8c-.3,0,-.5,0,-.7,0c-.4,0,-.6,-.1,-.7,-.3c-.5,-.8,-1,-1.6,-1.4,-2.4c-.3,-.4,0,-.7,.6,-.7c.4,0,.9,0,1.4,0c.4,0,.6,.1,.7,.3c.5,.8,1,1.7,1.5,2.5c.1,.3,-.1,.6,-.6,.6c-.3,0,-.5,0,-.8,0Z" class="g7_31"/>
<path d="M625.6,222.2c0,.5,-.5,1,-1.1,1c-.5,0,-1,-.5,-1,-1c0,-.6,.4,-1.1,1,-1.1c.6,0,1.1,.5,1.1,1.1Z" class="g7_31"/>
<path d="M768.4,358V312.8h-3V358Z" class="g3_31"/>
<path d="M866.5,375.4V355h-.7v20.4Z" class="g3_31"/>
<path d="M866.5,400.3V375.4h-.7v24.9Z" class="g3_31"/>
<path d="M781,421.5V400.3h-.8v21.2Z" class="g3_31"/>
<path d="M866.5,421.5V400.3h-.7v21.2Z" class="g3_31"/>
<path d="M781,442.8V421.5h-.8v21.3Z" class="g3_31"/>
<path d="M866.5,442.8V421.5h-.7v21.3Z" class="g3_31"/>
<path d="M781,464V442.8h-.8V464Z" class="g3_31"/>
<path d="M866.5,464V442.8h-.7V464Z" class="g3_31"/>
<path d="M781,485.3V464h-.8v21.3Z" class="g3_31"/>
<path d="M866.5,485.3V464h-.7v21.3Z" class="g3_31"/>
<path d="M781,506.6V485.3h-.8v21.3Z" class="g3_31"/>
<path d="M866.5,506.6V485.3h-.7v21.3Z" class="g3_31"/>
<path d="M781,527.8V506.6h-.8v21.2Z" class="g3_31"/>
<path d="M866.5,527.8V506.6h-.7v21.2Z" class="g3_31"/>
<path d="M781,549.1V527.8h-.8v21.3Z" class="g3_31"/>
<path d="M866.5,549.1V527.8h-.7v21.3Z" class="g3_31"/>
<path d="M781,570.4V549.1h-.8v21.3Z" class="g3_31"/>
<path d="M866.5,570.4V549.1h-.7v21.3Z" class="g3_31"/>
<path d="M781,591.6V570.4h-.8v21.2Z" class="g3_31"/>
<path d="M866.5,591.6V570.4h-.7v21.2Z" class="g3_31"/>
<path d="M781,612.9V591.6h-.8v21.3Z" class="g3_31"/>
<path d="M866.5,612.9V591.6h-.7v21.3Z" class="g3_31"/>
<path d="M781,634.2V612.9h-.8v21.3Z" class="g3_31"/>
<path d="M866.5,634.2V612.9h-.7v21.3Z" class="g3_31"/>
<path d="M641.3,376.2H780.6v-1.5H641.3Z" class="g6_31"/>
<path d="M780.6,376.2h85.2v-1.5H780.6Z" class="g6_31"/>
<path d="M624.5,394c9.9,0,17.9,-8,17.9,-17.9c0,-9.8,-8,-17.8,-17.9,-17.8c-9.8,0,-17.8,8,-17.8,17.8c0,9.9,8,17.9,17.8,17.9Z" class="g6_31"/>
<path d="M635,377.9c0,.7,.2,1.4,.2,2.2c-.1,2,-1,3.5,-2.7,4.6c-1.3,.9,-2.8,1.3,-4.4,1.3c-2.4,0,-4.8,0,-7.2,0c-1.6,0,-3.1,-.4,-4.5,-1.3c-1.9,-1.4,-2.7,-3.3,-2.5,-5.7c.3,-1.9,.4,-3.9,.4,-5.8c.1,-1.9,0,-3.7,0,-5.5c-.1,-2.1,.8,-3.7,2.5,-5c1.5,-1,3.1,-1.5,4.9,-1.5c1.9,-.1,3.8,-.1,5.7,0c1.7,0,3.3,.4,4.7,1.4c1.9,1.3,2.8,3.2,2.7,5.6c-.1,1.2,-.1,2.4,-.1,3.6c0,0,.1,4.1,.3,6.1M624.5,362.4v-.1c-.9,0,-1.8,0,-2.8,0c-1.3,.1,-2.5,.4,-3.7,1.1c-1.5,.9,-2.6,2.2,-2.5,4.1c.1,.9,.3,1.7,.6,2.5c.4,1.4,1,2.6,2.1,3.6c.3,.2,.3,.5,0,.8c-.6,.7,-1.3,1.3,-2.1,1.5c-.6,.2,-.7,.5,-.8,1c0,.5,.1,.9,.5,1.2c.7,.8,1.6,1.4,2.6,1.8c1.8,.8,3.7,1,5.7,1.1c2,0,4,-.2,6,-.9c1.3,-.5,2.5,-1.1,3.4,-2.3c.1,-.1,.2,-.3,.2,-.4c0,-.3,0,-.7,-.1,-1l-.2,-.3c-1,-.3,-1.8,-.9,-2.6,-1.7c-.3,-.3,-.2,-.6,.1,-.9c.4,-.5,.9,-1,1.2,-1.5c.7,-1.2,1.2,-2.6,1.4,-4c.2,-1.1,-.1,-2.2,-.8,-3.1c-1.1,-1.6,-2.7,-2.3,-4.6,-2.5c-1.2,-.1,-2.4,0,-3.6,0m-9.3,16.5c-.3,1.6,0,3.1,1.3,4.2c1.2,1.2,2.8,1.7,4.5,1.7c2.3,0,4.7,0,7,0c.8,0,1.6,-.1,2.3,-.3c1.4,-.5,2.6,-1.3,3.3,-2.7c.4,-.9,.5,-1.9,.2,-2.9h-.1c-1.1,1.4,-2.5,2.2,-4.2,2.7c-2.9,.7,-5.8,.7,-8.7,.2c-1.4,-.2,-2.7,-.6,-3.9,-1.4c-.6,-.4,-1.1,-1,-1.7,-1.5Z" class="g7_31"/>
<path d="M619.2,386.4c-.5,.4,-1,.8,-1.5,1.2c-.5,.4,-1.8,1.3,-2.3,1.8c-.2,.2,-.5,.1,-.8,.1l-.3,-.4c0,-.2,0,-.4,.3,-.6c.3,-.2,1.3,-1.1,1.7,-1.4c.4,-.3,.8,-.6,1.3,-.9l.4,-.1c.4,.1,.7,.2,1.2,.3Z" class="g7_31"/>
<path d="M629.9,386.4c.5,-.1,.9,-.3,1.3,-.4l.3,.1c.7,.6,2.3,1.8,3,2.4c.1,.1,.2,.2,.3,.3c.1,.3,0,.6,-.2,.6c-.2,.1,-.5,.2,-.7,.1c-1.1,-.8,-2.9,-2.2,-4,-3.1Z" class="g7_31"/>
<path d="M624.5,373.1c-1.1,0,-2.2,0,-3.2,0c-2,-.2,-3.5,-1.6,-3.9,-3.6c-.1,-.5,-.2,-.9,-.3,-1.4c-.4,-1.9,1,-3.6,2.9,-3.6c3,0,6,0,9,0c1.9,0,3.2,1.5,3,3.3c-.2,1.1,-.3,2.2,-.9,3.1c-.8,1.4,-2.1,2.2,-3.8,2.2c-.9,0,-1.9,0,-2.8,0Z" class="g7_31"/>
<path d="M629.1,375.8c.2,0,.5,0,.8,0c.4,0,.7,.3,.5,.6c-.4,.9,-1,1.7,-1.5,2.6c-.1,.1,-.3,.2,-.5,.2c-.6,0,-1.1,0,-1.6,0c-.5,0,-.8,-.3,-.6,-.6c.5,-.9,1,-1.7,1.5,-2.5c.1,-.2,.3,-.3,.6,-.3c.3,0,.5,0,.8,0Z" class="g7_31"/>
<path d="M621.5,379.2c-.3,0,-.5,0,-.7,0c-.4,0,-.6,-.1,-.7,-.3c-.5,-.8,-1,-1.6,-1.4,-2.4c-.3,-.4,0,-.7,.6,-.7c.4,0,.9,0,1.4,0c.4,0,.6,.1,.7,.3c.5,.8,1,1.6,1.5,2.5c.1,.3,-.1,.6,-.6,.6c-.3,0,-.5,0,-.8,0Z" class="g7_31"/>
<path d="M625.6,383.6c0,.5,-.5,1,-1.1,1c-.5,0,-1,-.5,-1,-1c0,-.6,.4,-1.1,1,-1.1c.6,0,1.1,.5,1.1,1.1Z" class="g7_31"/>
<path d="M866.5,663.2V642.8h-.7v20.4Z" class="g3_31"/>
<path d="M866.5,688.1V663.2h-.7v24.9Z" class="g3_31"/>
<path d="M781,709.3V688.1h-.8v21.2Z" class="g3_31"/>
<path d="M866.5,709.3V688.1h-.7v21.2Z" class="g3_31"/>
<path d="M781,730.6V709.3h-.8v21.3Z" class="g3_31"/>
<path d="M866.5,730.6V709.3h-.7v21.3Z" class="g3_31"/>
<path d="M781,751.9V730.6h-.8v21.3Z" class="g3_31"/>
<path d="M866.5,751.9V730.6h-.7v21.3Z" class="g3_31"/>
<path d="M781,773.1V751.9h-.8v21.2Z" class="g3_31"/>
<path d="M866.5,773.1V751.9h-.7v21.2Z" class="g3_31"/>
<path d="M781,794.4V773.1h-.8v21.3Z" class="g3_31"/>
<path d="M866.5,794.4V773.1h-.7v21.3Z" class="g3_31"/>
<path d="M781,815.6V794.4h-.8v21.2Z" class="g3_31"/>
<path d="M866.5,815.6V794.4h-.7v21.2Z" class="g3_31"/>
<path d="M781,836.9V815.7h-.8v21.2Z" class="g3_31"/>
<path d="M866.5,836.9V815.7h-.7v21.2Z" class="g3_31"/>
<path d="M781,858.2V836.9h-.8v21.3Z" class="g3_31"/>
<path d="M866.5,858.2V836.9h-.7v21.3Z" class="g3_31"/>
<path d="M781,879.4V858.2h-.8v21.2Z" class="g3_31"/>
<path d="M866.5,879.4V858.2h-.7v21.2Z" class="g3_31"/>
<path d="M781,900.7V879.4h-.8v21.3Z" class="g3_31"/>
<path d="M866.5,900.7V879.4h-.7v21.3Z" class="g3_31"/>
<path d="M781,922V900.7h-.8V922Z" class="g3_31"/>
<path d="M866.5,922V900.7h-.7V922Z" class="g3_31"/>
<path d="M641.3,664H780.6v-1.5H641.3Z" class="g6_31"/>
<path d="M780.6,664h85.2v-1.5H780.6Z" class="g6_31"/>
<path d="M624.5,681.8c9.9,0,17.9,-8,17.9,-17.9c0,-9.8,-8,-17.8,-17.9,-17.8c-9.8,0,-17.8,8,-17.8,17.8c0,9.9,8,17.9,17.8,17.9Z" class="g6_31"/>
<path d="M635,665.7c0,.7,.2,1.4,.2,2.2c-.1,2,-1,3.5,-2.7,4.6c-1.3,.9,-2.8,1.3,-4.4,1.3c-2.4,0,-4.8,.1,-7.2,0c-1.6,0,-3.1,-.4,-4.5,-1.3c-1.9,-1.4,-2.7,-3.3,-2.5,-5.7c.3,-1.9,.4,-3.9,.4,-5.8c.1,-1.8,0,-3.7,0,-5.5c-.1,-2.1,.8,-3.7,2.5,-4.9c1.5,-1.1,3.1,-1.6,4.9,-1.6c1.9,-.1,3.8,-.1,5.7,0c1.7,0,3.3,.4,4.7,1.4c1.9,1.4,2.8,3.2,2.7,5.6c-.1,1.2,-.1,2.4,-.1,3.6c0,0,.1,4.1,.3,6.1M624.5,650.2v-.1c-.9,0,-1.8,0,-2.8,.1c-1.3,0,-2.5,.3,-3.7,1c-1.5,.9,-2.6,2.2,-2.5,4.1c.1,.9,.3,1.7,.6,2.5c.4,1.4,1,2.6,2.1,3.6c.3,.2,.3,.5,0,.8c-.6,.7,-1.3,1.3,-2.1,1.5c-.6,.2,-.7,.5,-.8,1c0,.5,.1,.9,.5,1.2c.7,.8,1.6,1.4,2.6,1.8c1.8,.8,3.7,1,5.7,1.1c2,0,4,-.2,6,-.9c1.3,-.4,2.5,-1.1,3.4,-2.3c.1,-.1,.2,-.3,.2,-.4c0,-.3,0,-.7,-.1,-1l-.2,-.3c-1,-.3,-1.8,-.9,-2.6,-1.7c-.3,-.3,-.2,-.6,.1,-.9c.4,-.5,.9,-.9,1.2,-1.5c.7,-1.2,1.2,-2.6,1.4,-4c.2,-1.1,-.1,-2.2,-.8,-3.1c-1.1,-1.6,-2.7,-2.3,-4.6,-2.5c-1.2,-.1,-2.4,0,-3.6,0m-9.3,16.5c-.3,1.6,0,3.1,1.3,4.2c1.2,1.2,2.8,1.7,4.5,1.7c2.3,0,4.7,0,7,0c.8,0,1.6,-.1,2.3,-.3c1.4,-.5,2.6,-1.3,3.3,-2.7c.4,-.9,.5,-1.9,.2,-2.9h-.1c-1.1,1.4,-2.5,2.2,-4.2,2.7c-2.9,.7,-5.8,.7,-8.7,.3c-1.4,-.3,-2.7,-.7,-3.9,-1.5c-.6,-.4,-1.1,-1,-1.7,-1.5Z" class="g7_31"/>
<path d="M619.2,674.2c-.5,.4,-1,.8,-1.5,1.2c-.5,.4,-1.8,1.4,-2.3,1.8c-.2,.2,-.5,.2,-.8,.1l-.3,-.3c0,-.3,0,-.5,.3,-.7c.3,-.2,1.3,-1.1,1.7,-1.4c.4,-.3,.8,-.6,1.3,-.9l.4,-.1c.4,.1,.7,.2,1.2,.3Z" class="g7_31"/>
<path d="M629.9,674.2c.5,-.1,.9,-.2,1.3,-.4l.3,.2c.7,.5,2.3,1.7,3,2.3c.1,.1,.2,.2,.3,.4c.1,.2,0,.5,-.2,.5c-.2,.1,-.5,.2,-.7,.1c-1.1,-.8,-2.9,-2.2,-4,-3.1Z" class="g7_31"/>
<path d="M624.5,660.9c-1.1,0,-2.2,0,-3.2,0c-2,-.2,-3.5,-1.6,-3.9,-3.6c-.1,-.4,-.2,-.9,-.3,-1.4c-.4,-1.9,1,-3.6,2.9,-3.6c3,0,6,0,9,0c1.9,0,3.2,1.5,3,3.3c-.2,1.1,-.3,2.2,-.9,3.1c-.8,1.4,-2.1,2.2,-3.8,2.2c-.9,0,-1.9,0,-2.8,0Z" class="g7_31"/>
<path d="M629.1,663.6c.2,0,.5,0,.8,0c.4,0,.7,.3,.5,.6c-.4,.9,-1,1.7,-1.5,2.6c-.1,.1,-.3,.2,-.5,.2c-.6,0,-1.1,0,-1.6,0c-.5,0,-.8,-.3,-.6,-.6c.5,-.9,1,-1.7,1.5,-2.5c.1,-.2,.3,-.3,.6,-.3c.3,0,.5,0,.8,0Z" class="g7_31"/>
<path d="M621.5,667c-.3,0,-.5,0,-.7,0c-.4,0,-.6,-.1,-.7,-.3c-.5,-.8,-1,-1.6,-1.4,-2.4c-.3,-.4,0,-.7,.6,-.7c.4,0,.9,0,1.4,0c.4,0,.6,.1,.7,.3c.5,.8,1,1.7,1.5,2.5c.1,.3,-.1,.6,-.6,.6c-.3,0,-.5,0,-.8,0Z" class="g7_31"/>
<path d="M625.6,671.4c0,.5,-.5,1,-1.1,1c-.5,0,-1,-.5,-1,-1c0,-.6,.4,-1.1,1,-1.1c.6,0,1.1,.5,1.1,1.1Z" class="g7_31"/>
<path d="M606.7,927.8H866.5v-1.5H606.7Z" class="g8_31"/>
<path d="M43.3,385.7H584.6v-2.3H43.3v2.3Z" class="g9_31"/>
<image clip-path="url(#ci_31)" preserveAspectRatio="none" x="135" y="361" width="98" height="30" xlink:href="img/27.jpg"/>
<image clip-path="url(#cj_31)" preserveAspectRatio="none" x="135" y="290" width="89" height="72" xlink:href="img/28.jpg"/>
<image clip-path="url(#ck_31)" preserveAspectRatio="none" x="135" y="383" width="89" height="3" xlink:href="img/29.jpg"/>
<path d="M160.5,302.3c-10.2,0,-18.4,8.2,-18.4,18.3v64.2h79.1V320.6c0,-10.1,-8.2,-18.3,-18.4,-18.3Z" class="g3_31"/>
<path d="M148.3,328.5h2.3c.2,0,.4,-.2,.4,-.4c0,-.2,-.2,-.4,-.4,-.4h-2.3c-.2,0,-.4,.2,-.4,.4c0,.2,.2,.4,.4,.4m3.9,0h2.3c.2,0,.4,-.2,.4,-.4c0,-.2,-.2,-.4,-.4,-.4h-2.3c-.2,0,-.4,.2,-.4,.4c0,.2,.2,.4,.4,.4m3.9,0h2.3c.2,0,.4,-.2,.4,-.4c0,-.2,-.2,-.4,-.4,-.4h-2.3c-.2,0,-.4,.2,-.4,.4c0,.2,.2,.4,.4,.4m3.8,0h2.4c.2,0,.4,-.2,.4,-.4c0,-.2,-.2,-.4,-.4,-.4h-2.4c-.2,0,-.3,.2,-.3,.4c0,.2,.1,.4,.3,.4m3.9,0h2.4c.2,0,.3,-.2,.3,-.4c0,-.2,-.1,-.4,-.3,-.4h-2.4c-.2,0,-.4,.2,-.4,.4c0,.2,.2,.4,.4,.4m3.9,0H170c.2,0,.4,-.2,.4,-.4c0,-.2,-.2,-.4,-.4,-.4h-2.3c-.2,0,-.4,.2,-.4,.4c0,.2,.2,.4,.4,.4m3.9,0h2.3c.2,0,.4,-.2,.4,-.4c0,-.2,-.2,-.4,-.4,-.4h-2.3c-.2,0,-.4,.2,-.4,.4c0,.2,.2,.4,.4,.4m3.9,0h2.3c.2,0,.4,-.2,.4,-.4c0,-.2,-.2,-.4,-.4,-.4h-2.3c-.2,0,-.4,.2,-.4,.4c0,.2,.2,.4,.4,.4m3.9,0h2.3c.2,0,.4,-.2,.4,-.4c0,-.2,-.2,-.4,-.4,-.4h-2.3c-.3,0,-.4,.2,-.4,.4c0,.2,.1,.4,.4,.4m3.8,0h2.4c.2,0,.3,-.2,.3,-.4c0,-.2,-.1,-.4,-.3,-.4h-2.4c-.2,0,-.3,.2,-.3,.4c0,.2,.1,.4,.3,.4m3.9,0h2.3c.3,0,.4,-.2,.4,-.4c0,-.2,-.1,-.4,-.4,-.4h-2.3c-.2,0,-.4,.2,-.4,.4c0,.2,.2,.4,.4,.4m3.9,0h2.3c.2,0,.4,-.2,.4,-.4c0,-.2,-.2,-.4,-.4,-.4H191c-.2,0,-.4,.2,-.4,.4c0,.2,.2,.4,.4,.4m3.9,0h2.3c.2,0,.4,-.2,.4,-.4c0,-.2,-.2,-.4,-.4,-.4h-2.3c-.2,0,-.4,.2,-.4,.4c0,.2,.2,.4,.4,.4m3.9,0h2.3c.2,0,.4,-.2,.4,-.4c0,-.2,-.2,-.4,-.4,-.4h-2.3c-.2,0,-.4,.2,-.4,.4c0,.2,.2,.4,.4,.4m3.8,0H205c.2,0,.4,-.2,.4,-.4c0,-.2,-.2,-.4,-.4,-.4h-2.4c-.2,0,-.3,.2,-.3,.4c0,.2,.1,.4,.3,.4m3.9,0h2.4c.2,0,.3,-.2,.3,-.4c0,-.2,-.1,-.4,-.3,-.4h-2.4c-.2,0,-.4,.2,-.4,.4c0,.2,.2,.4,.4,.4m3.9,0h2.3c.2,0,.4,-.2,.4,-.4c0,-.2,-.2,-.4,-.4,-.4h-2.3c-.2,0,-.4,.2,-.4,.4c0,.2,.2,.4,.4,.4m3.9,0h2.3c.2,0,.4,-.2,.4,-.4c0,-.2,-.2,-.4,-.4,-.4h-2.3c-.2,0,-.4,.2,-.4,.4c0,.2,.2,.4,.4,.4Z" class="g4_31"/>
<path d="M148.3,360.7h2.3c.2,0,.4,-.1,.4,-.3c0,-.2,-.2,-.4,-.4,-.4h-2.3c-.2,0,-.4,.2,-.4,.4c0,.2,.2,.3,.4,.3m3.9,0h2.3c.2,0,.4,-.1,.4,-.3c0,-.2,-.2,-.4,-.4,-.4h-2.3c-.2,0,-.4,.2,-.4,.4c0,.2,.2,.3,.4,.3m3.9,0h2.3c.2,0,.4,-.1,.4,-.3c0,-.2,-.2,-.4,-.4,-.4h-2.3c-.2,0,-.4,.2,-.4,.4c0,.2,.2,.3,.4,.3m3.8,0h2.4c.2,0,.4,-.1,.4,-.3c0,-.2,-.2,-.4,-.4,-.4h-2.4c-.2,0,-.3,.2,-.3,.4c0,.2,.1,.3,.3,.3m3.9,0h2.4c.2,0,.3,-.1,.3,-.3c0,-.2,-.1,-.4,-.3,-.4h-2.4c-.2,0,-.4,.2,-.4,.4c0,.2,.2,.3,.4,.3m3.9,0H170c.2,0,.4,-.1,.4,-.3c0,-.2,-.2,-.4,-.4,-.4h-2.3c-.2,0,-.4,.2,-.4,.4c0,.2,.2,.3,.4,.3m3.9,0h2.3c.2,0,.4,-.1,.4,-.3c0,-.2,-.2,-.4,-.4,-.4h-2.3c-.2,0,-.4,.2,-.4,.4c0,.2,.2,.3,.4,.3m3.9,0h2.3c.2,0,.4,-.1,.4,-.3c0,-.2,-.2,-.4,-.4,-.4h-2.3c-.2,0,-.4,.2,-.4,.4c0,.2,.2,.3,.4,.3m3.9,0h2.3c.2,0,.4,-.1,.4,-.3c0,-.2,-.2,-.4,-.4,-.4h-2.3c-.3,0,-.4,.2,-.4,.4c0,.2,.1,.3,.4,.3m3.8,0h2.4c.2,0,.3,-.1,.3,-.3c0,-.2,-.1,-.4,-.3,-.4h-2.4c-.2,0,-.3,.2,-.3,.4c0,.2,.1,.3,.3,.3m3.9,0h2.3c.3,0,.4,-.1,.4,-.3c0,-.2,-.1,-.4,-.4,-.4h-2.3c-.2,0,-.4,.2,-.4,.4c0,.2,.2,.3,.4,.3m3.9,0h2.3c.2,0,.4,-.1,.4,-.3c0,-.2,-.2,-.4,-.4,-.4H191c-.2,0,-.4,.2,-.4,.4c0,.2,.2,.3,.4,.3m3.9,0h2.3c.2,0,.4,-.1,.4,-.3c0,-.2,-.2,-.4,-.4,-.4h-2.3c-.2,0,-.4,.2,-.4,.4c0,.2,.2,.3,.4,.3m3.9,0h2.3c.2,0,.4,-.1,.4,-.3c0,-.2,-.2,-.4,-.4,-.4h-2.3c-.2,0,-.4,.2,-.4,.4c0,.2,.2,.3,.4,.3m3.8,0H205c.2,0,.4,-.1,.4,-.3c0,-.2,-.2,-.4,-.4,-.4h-2.4c-.2,0,-.3,.2,-.3,.4c0,.2,.1,.3,.3,.3m3.9,0h2.4c.2,0,.3,-.1,.3,-.3c0,-.2,-.1,-.4,-.3,-.4h-2.4c-.2,0,-.4,.2,-.4,.4c0,.2,.2,.3,.4,.3m3.9,0h2.3c.2,0,.4,-.1,.4,-.3c0,-.2,-.2,-.4,-.4,-.4h-2.3c-.2,0,-.4,.2,-.4,.4c0,.2,.2,.3,.4,.3m3.9,0h2.3c.2,0,.4,-.1,.4,-.3c0,-.2,-.2,-.4,-.4,-.4h-2.3c-.2,0,-.4,.2,-.4,.4c0,.2,.2,.3,.4,.3Z" class="g4_31"/>
<path d="M142.1,385.7h79v-6.8h-79v6.8Z" class="g9_31"/>
<image clip-path="url(#cl_31)" preserveAspectRatio="none" x="232" y="361" width="90" height="30" xlink:href="img/30.jpg"/>
<image clip-path="url(#cm_31)" preserveAspectRatio="none" x="224" y="290" width="88" height="72" xlink:href="img/31.jpg"/>
<image clip-path="url(#cn_31)" preserveAspectRatio="none" x="232" y="383" width="80" height="3" xlink:href="img/32.jpg"/>
<image clip-path="url(#co_31)" preserveAspectRatio="none" x="223" y="361" width="11" height="31" xlink:href="img/33.jpg"/>
<image clip-path="url(#cp_31)" preserveAspectRatio="none" x="224" y="290" width="9" height="72" xlink:href="img/34.jpg"/>
<image clip-path="url(#cq_31)" preserveAspectRatio="none" x="223" y="383" width="11" height="3" xlink:href="img/35.jpg"/>
<path d="M248.6,302.3c-10.1,0,-18.3,8.2,-18.3,18.3v64.2h79V320.6c0,-10.1,-8.2,-18.3,-18.3,-18.3Z" class="g3_31"/>
<path d="M230.2,385.7h79.1v-7.2H230.2v7.2Z" class="g9_31"/>
<path d="M236.4,328.5H239c.2,0,.3,-.2,.3,-.4c0,-.2,-.1,-.4,-.3,-.4h-2.6c-.2,0,-.4,.2,-.4,.4c0,.2,.2,.4,.4,.4m4.3,0h2.6c.2,0,.4,-.2,.4,-.4c0,-.2,-.2,-.4,-.4,-.4h-2.6c-.2,0,-.3,.2,-.3,.4c0,.2,.1,.4,.3,.4m4.3,0h2.6c.2,0,.4,-.2,.4,-.4c0,-.2,-.2,-.4,-.4,-.4H245c-.2,0,-.3,.2,-.3,.4c0,.2,.1,.4,.3,.4m4.4,0h2.5c.2,0,.4,-.2,.4,-.4c0,-.2,-.2,-.4,-.4,-.4h-2.5c-.3,0,-.4,.2,-.4,.4c0,.2,.1,.4,.4,.4Z" class="g6_31"/>
<path d="M288,360.7h2.2c.2,0,.3,-.1,.3,-.3c0,-.2,-.1,-.4,-.3,-.4H288c-.3,0,-.4,.2,-.4,.4c0,.2,.1,.3,.4,.3m3.6,0h2.2c.2,0,.4,-.1,.4,-.3c0,-.2,-.2,-.4,-.4,-.4h-2.2c-.2,0,-.4,.2,-.4,.4c0,.2,.2,.3,.4,.3m3.6,0h2.3c.2,0,.3,-.1,.3,-.3c0,-.2,-.1,-.4,-.3,-.4h-2.3c-.2,0,-.3,.2,-.3,.4c0,.2,.1,.3,.3,.3m3.7,0h2.2c.2,0,.4,-.1,.4,-.3c0,-.2,-.2,-.4,-.4,-.4h-2.2c-.2,0,-.4,.2,-.4,.4c0,.2,.2,.3,.4,.3m3.6,0h2.2c.3,0,.4,-.1,.4,-.3c0,-.2,-.1,-.4,-.4,-.4h-2.2c-.2,0,-.3,.2,-.3,.4c0,.2,.1,.3,.3,.3Z" class="g6_31"/>
<path d="M287.1,328.5h2.3c.2,0,.4,-.2,.4,-.4c0,-.2,-.2,-.4,-.4,-.4h-2.3c-.2,0,-.4,.2,-.4,.4c0,.2,.2,.4,.4,.4m3.8,0h2.3c.2,0,.4,-.2,.4,-.4c0,-.2,-.2,-.4,-.4,-.4h-2.3c-.2,0,-.4,.2,-.4,.4c0,.2,.2,.4,.4,.4m3.9,0h2.3c.2,0,.3,-.2,.3,-.4c0,-.2,-.1,-.4,-.3,-.4h-2.3c-.2,0,-.4,.2,-.4,.4c0,.2,.2,.4,.4,.4m3.8,0h2.3c.2,0,.4,-.2,.4,-.4c0,-.2,-.2,-.4,-.4,-.4h-2.3c-.2,0,-.4,.2,-.4,.4c0,.2,.2,.4,.4,.4m3.8,0h2.3c.3,0,.4,-.2,.4,-.4c0,-.2,-.1,-.4,-.4,-.4h-2.3c-.2,0,-.3,.2,-.3,.4c0,.2,.1,.4,.3,.4Z" class="g6_31"/>
<path d="M283.2,345.9c.1,.9,.3,1.8,.3,2.8c-.1,2.6,-1.3,4.6,-3.5,6c-1.7,1.1,-3.6,1.6,-5.6,1.6c-3.1,.1,-6.2,.1,-9.3,0c-2.1,0,-4.1,-.5,-5.8,-1.7c-2.5,-1.8,-3.6,-4.2,-3.2,-7.3c.3,-2.5,.4,-5,.5,-7.5c0,-2.4,0,-4.7,-.1,-7.1c0,-2.7,1.1,-4.8,3.3,-6.4c1.8,-1.4,4,-2,6.3,-2c2.5,-.1,4.9,-.1,7.4,0c2.1,0,4.2,.6,5.9,1.8c2.6,1.8,3.8,4.2,3.5,7.3c-.1,1.5,0,3.1,0,4.6c0,0,.2,5.2,.3,7.9m-13.4,-20v-.1c-1.3,0,-2.5,0,-3.7,0c-1.7,0,-3.3,.4,-4.7,1.3c-2,1.2,-3.4,2.9,-3.3,5.4c.1,1.1,.4,2.2,.7,3.2c.6,1.8,1.4,3.4,2.8,4.6c.4,.3,.4,.7,0,1.1c-.8,.8,-1.7,1.6,-2.8,1.9c-.7,.3,-.9,.7,-.9,1.3c-.1,.7,.1,1.1,.5,1.6c1,1,2.2,1.7,3.5,2.3c2.3,1,4.7,1.3,7.2,1.3c2.7,.1,5.3,-.2,7.8,-1.1c1.7,-.6,3.3,-1.5,4.4,-2.9c.2,-.2,.3,-.4,.3,-.6c0,-.4,0,-.9,-.1,-1.3l-.3,-.3c-1.3,-.5,-2.4,-1.3,-3.3,-2.2c-.4,-.4,-.3,-.8,0,-1.2c.6,-.6,1.2,-1.2,1.6,-1.9c1,-1.6,1.5,-3.4,1.8,-5.2c.3,-1.5,-.1,-2.8,-1,-4c-1.5,-2,-3.5,-3,-5.9,-3.2c-1.6,-.1,-3.1,0,-4.6,0m-12.1,21.3c-.5,2.1,0,3.9,1.6,5.4c1.7,1.6,3.7,2.2,5.9,2.2c3,0,6,0,9,0c1,0,2,-.1,3,-.5c1.8,-.6,3.3,-1.6,4.2,-3.4c.6,-1.2,.6,-2.5,.3,-3.8l-.1,.1c-1.4,1.8,-3.3,2.8,-5.5,3.4c-3.7,1,-7.4,1,-11.1,.4c-1.8,-.3,-3.5,-.9,-5.1,-1.9c-.8,-.6,-1.5,-1.3,-2.2,-1.9Z" class="g6_31"/>
<path d="M262.8,356.9c-.6,.5,-1.3,1,-1.9,1.4c-.6,.5,-2.3,1.8,-2.9,2.4c-.3,.2,-.7,.2,-1,.1c-.2,0,-.4,-.2,-.4,-.4c-.1,-.3,0,-.6,.3,-.8c.4,-.4,1.8,-1.5,2.2,-1.8c.6,-.4,1.1,-.9,1.7,-1.3c.1,-.1,.4,-.1,.5,-.1c.5,.1,1,.3,1.5,.5Z" class="g6_31"/>
<path d="M276.6,356.9c.7,-.2,1.2,-.4,1.7,-.5l.4,.1c1,.7,3,2.3,3.9,3c.2,.1,.3,.3,.4,.5c.1,.3,0,.7,-.2,.8c-.3,.1,-.8,.1,-1,0c-1.4,-1,-3.7,-2.8,-5.2,-3.9Z" class="g6_31"/>
<path d="M269.7,339.6c-1.4,0,-2.8,.1,-4.2,0c-2.5,-.2,-4.5,-2,-5,-4.5c-.1,-.7,-.2,-1.3,-.3,-1.9c-.5,-2.5,1.2,-4.6,3.7,-4.6c3.9,0,7.8,0,11.6,0c2.5,0,4.2,1.9,3.8,4.3c-.1,1.3,-.3,2.8,-1,4c-1.2,1.8,-2.8,2.8,-5,2.8c-1.2,0,-2.4,0,-3.6,0Z" class="g6_31"/>
<path d="M275.6,343.1c.3,0,.7,0,1,0c.6,0,1,.4,.8,.8c-.7,1.1,-1.3,2.2,-2,3.3c-.1,.3,-.4,.4,-.7,.4c-.7,0,-1.4,0,-2,0c-.7,0,-1,-.4,-.8,-.9c.6,-1,1.3,-2.1,1.9,-3.2c.1,-.3,.4,-.4,.8,-.4c.4,0,.7,0,1,0Z" class="g6_31"/>
<path d="M265.8,347.6c-.3,0,-.6,0,-.9,0c-.4,0,-.7,-.1,-.9,-.4c-.6,-1.1,-1.2,-2.1,-1.8,-3.2c-.3,-.5,0,-.9,.7,-.9c.7,0,1.3,0,2,0c.4,0,.6,.2,.8,.4c.6,1.1,1.3,2.2,1.9,3.3c.2,.4,-.1,.8,-.7,.8c-.4,0,-.7,0,-1.1,0Z" class="g6_31"/>
<path d="M271.1,353.2c0,.7,-.6,1.3,-1.3,1.3c-.8,0,-1.4,-.6,-1.4,-1.3c0,-.7,.6,-1.4,1.3,-1.4c.7,0,1.4,.6,1.4,1.4Z" class="g6_31"/>
<path d="M236.4,360.7h2.2c.2,0,.4,-.1,.4,-.3c0,-.2,-.2,-.4,-.4,-.4h-2.2c-.2,0,-.4,.2,-.4,.4c0,.2,.2,.3,.4,.3m3.7,0h2.2c.2,0,.4,-.1,.4,-.3c0,-.2,-.2,-.4,-.4,-.4h-2.2c-.2,0,-.4,.2,-.4,.4c0,.2,.2,.3,.4,.3m3.6,0h2.2c.2,0,.4,-.1,.4,-.3c0,-.2,-.2,-.4,-.4,-.4h-2.2c-.2,0,-.4,.2,-.4,.4c0,.2,.2,.3,.4,.3m3.7,0h2.2c.2,0,.4,-.1,.4,-.3c0,-.2,-.2,-.4,-.4,-.4h-2.2c-.2,0,-.4,.2,-.4,.4c0,.2,.2,.3,.4,.3m3.6,0h2.2c.2,0,.4,-.1,.4,-.3c0,-.2,-.2,-.4,-.4,-.4H251c-.2,0,-.4,.2,-.4,.4c0,.2,.2,.3,.4,.3Z" class="g6_31"/>
<image clip-path="url(#cr_31)" preserveAspectRatio="none" x="487" y="289" width="99" height="102" xlink:href="img/36.jpg"/>
<image clip-path="url(#cs_31)" preserveAspectRatio="none" x="497" y="290" width="88" height="72" xlink:href="img/37.jpg"/>
<image clip-path="url(#ct_31)" preserveAspectRatio="none" x="497" y="383" width="88" height="3" xlink:href="img/38.jpg"/>
<image clip-path="url(#cu_31)" preserveAspectRatio="none" x="497" y="308" width="73" height="3" xlink:href="img/39.jpg"/>
<path d="M512.9,302.3c-10.1,0,-18.3,8.2,-18.3,18.3v64.2h79V320.6c0,-10.1,-8.2,-18.3,-18.3,-18.3Z" class="g3_31"/>
<path d="M494.5,385.7h79.1v-7.2H494.5v7.2Z" class="g9_31"/>
<path d="M499.9,360.7h2.4c.2,0,.3,-.1,.3,-.3c0,-.2,-.1,-.4,-.3,-.4h-2.4c-.2,0,-.3,.2,-.3,.4c0,.2,.1,.3,.3,.3m3.9,0h2.3c.3,0,.4,-.1,.4,-.3c0,-.2,-.1,-.4,-.4,-.4h-2.3c-.2,0,-.4,.2,-.4,.4c0,.2,.2,.3,.4,.3m3.9,0H510c.2,0,.4,-.1,.4,-.3c0,-.2,-.2,-.4,-.4,-.4h-2.3c-.2,0,-.4,.2,-.4,.4c0,.2,.2,.3,.4,.3m3.9,0h2.3c.2,0,.4,-.1,.4,-.3c0,-.2,-.2,-.4,-.4,-.4h-2.3c-.2,0,-.4,.2,-.4,.4c0,.2,.2,.3,.4,.3m3.9,0h2.3c.2,0,.4,-.1,.4,-.3c0,-.2,-.2,-.4,-.4,-.4h-2.3c-.2,0,-.4,.2,-.4,.4c0,.2,.2,.3,.4,.3m3.9,0h2.3c.2,0,.4,-.1,.4,-.3c0,-.2,-.2,-.4,-.4,-.4h-2.3c-.3,0,-.4,.2,-.4,.4c0,.2,.1,.3,.4,.3m3.8,0h2.4c.2,0,.3,-.1,.3,-.3c0,-.2,-.1,-.4,-.3,-.4h-2.4c-.2,0,-.3,.2,-.3,.4c0,.2,.1,.3,.3,.3m3.9,0h2.3c.2,0,.4,-.1,.4,-.3c0,-.2,-.2,-.4,-.4,-.4h-2.3c-.2,0,-.4,.2,-.4,.4c0,.2,.2,.3,.4,.3m3.9,0h2.3c.2,0,.4,-.1,.4,-.3c0,-.2,-.2,-.4,-.4,-.4H531c-.2,0,-.4,.2,-.4,.4c0,.2,.2,.3,.4,.3m3.9,0h2.3c.2,0,.4,-.1,.4,-.3c0,-.2,-.2,-.4,-.4,-.4h-2.3c-.2,0,-.4,.2,-.4,.4c0,.2,.2,.3,.4,.3m3.9,0h2.3c.2,0,.4,-.1,.4,-.3c0,-.2,-.2,-.4,-.4,-.4h-2.3c-.2,0,-.4,.2,-.4,.4c0,.2,.2,.3,.4,.3m3.8,0H545c.2,0,.3,-.1,.3,-.3c0,-.2,-.1,-.4,-.3,-.4h-2.4c-.2,0,-.3,.2,-.3,.4c0,.2,.1,.3,.3,.3m3.9,0h2.3c.3,0,.4,-.1,.4,-.3c0,-.2,-.1,-.4,-.4,-.4h-2.3c-.2,0,-.4,.2,-.4,.4c0,.2,.2,.3,.4,.3m3.9,0h2.3c.2,0,.4,-.1,.4,-.3c0,-.2,-.2,-.4,-.4,-.4h-2.3c-.2,0,-.4,.2,-.4,.4c0,.2,.2,.3,.4,.3m3.9,0h2.3c.2,0,.4,-.1,.4,-.3c0,-.2,-.2,-.4,-.4,-.4h-2.3c-.2,0,-.4,.2,-.4,.4c0,.2,.2,.3,.4,.3m3.9,0h2.3c.2,0,.4,-.1,.4,-.3c0,-.2,-.2,-.4,-.4,-.4h-2.3c-.2,0,-.4,.2,-.4,.4c0,.2,.2,.3,.4,.3m3.9,0h2.3c.2,0,.4,-.1,.4,-.3c0,-.2,-.2,-.4,-.4,-.4h-2.3c-.3,0,-.4,.2,-.4,.4c0,.2,.1,.3,.4,.3m3.8,0h2.4c.2,0,.3,-.1,.3,-.3c0,-.2,-.1,-.4,-.3,-.4h-2.4c-.2,0,-.3,.2,-.3,.4c0,.2,.1,.3,.3,.3Z" class="ga_31"/>
<path d="M499.3,324.3h2.3c.2,0,.4,-.1,.4,-.3c0,-.2,-.2,-.4,-.4,-.4h-2.3c-.2,0,-.4,.2,-.4,.4c0,.2,.2,.3,.4,.3m3.9,0h2.3c.2,0,.4,-.1,.4,-.3c0,-.2,-.2,-.4,-.4,-.4h-2.3c-.2,0,-.4,.2,-.4,.4c0,.2,.2,.3,.4,.3m3.9,0h2.3c.2,0,.4,-.1,.4,-.3c0,-.2,-.2,-.4,-.4,-.4h-2.3c-.3,0,-.4,.2,-.4,.4c0,.2,.1,.3,.4,.3m3.8,0h2.4c.2,0,.3,-.1,.3,-.3c0,-.2,-.1,-.4,-.3,-.4h-2.4c-.2,0,-.3,.2,-.3,.4c0,.2,.1,.3,.3,.3m3.9,0h2.3c.3,0,.4,-.1,.4,-.3c0,-.2,-.1,-.4,-.4,-.4h-2.3c-.2,0,-.4,.2,-.4,.4c0,.2,.2,.3,.4,.3m3.9,0H521c.2,0,.4,-.1,.4,-.3c0,-.2,-.2,-.4,-.4,-.4h-2.3c-.2,0,-.4,.2,-.4,.4c0,.2,.2,.3,.4,.3m3.9,0h2.3c.2,0,.4,-.1,.4,-.3c0,-.2,-.2,-.4,-.4,-.4h-2.3c-.2,0,-.4,.2,-.4,.4c0,.2,.2,.3,.4,.3m3.9,0h2.3c.2,0,.4,-.1,.4,-.3c0,-.2,-.2,-.4,-.4,-.4h-2.3c-.2,0,-.4,.2,-.4,.4c0,.2,.2,.3,.4,.3m3.8,0h2.4c.2,0,.4,-.1,.4,-.3c0,-.2,-.2,-.4,-.4,-.4h-2.4c-.2,0,-.3,.2,-.3,.4c0,.2,.1,.3,.3,.3m3.9,0h2.4c.2,0,.3,-.1,.3,-.3c0,-.2,-.1,-.4,-.3,-.4h-2.4c-.2,0,-.4,.2,-.4,.4c0,.2,.2,.3,.4,.3m3.9,0h2.3c.2,0,.4,-.1,.4,-.3c0,-.2,-.2,-.4,-.4,-.4h-2.3c-.2,0,-.4,.2,-.4,.4c0,.2,.2,.3,.4,.3m3.9,0h2.3c.2,0,.4,-.1,.4,-.3c0,-.2,-.2,-.4,-.4,-.4H542c-.2,0,-.4,.2,-.4,.4c0,.2,.2,.3,.4,.3m3.9,0h2.3c.2,0,.4,-.1,.4,-.3c0,-.2,-.2,-.4,-.4,-.4h-2.3c-.2,0,-.4,.2,-.4,.4c0,.2,.2,.3,.4,.3m3.9,0h2.3c.2,0,.4,-.1,.4,-.3c0,-.2,-.2,-.4,-.4,-.4h-2.3c-.3,0,-.4,.2,-.4,.4c0,.2,.1,.3,.4,.3m3.8,0H556c.2,0,.3,-.1,.3,-.3c0,-.2,-.1,-.4,-.3,-.4h-2.4c-.2,0,-.3,.2,-.3,.4c0,.2,.1,.3,.3,.3m3.9,0h2.3c.3,0,.4,-.1,.4,-.3c0,-.2,-.1,-.4,-.4,-.4h-2.3c-.2,0,-.4,.2,-.4,.4c0,.2,.2,.3,.4,.3m3.9,0h2.3c.2,0,.4,-.1,.4,-.3c0,-.2,-.2,-.4,-.4,-.4h-2.3c-.2,0,-.4,.2,-.4,.4c0,.2,.2,.3,.4,.3m3.9,0h2.3c.2,0,.4,-.1,.4,-.3c0,-.2,-.2,-.4,-.4,-.4h-2.3c-.2,0,-.4,.2,-.4,.4c0,.2,.2,.3,.4,.3Z" class="ga_31"/>
<path d="M548,341.1v.7h4.6c1.1,0,2,-.9,2,-2v-.4c0,-1.1,-.9,-2,-2,-2H548c-.5,0,-1,.2,-1.4,.5c-.1,.1,-.2,.3,-.2,.5v.3c0,.2,-.1,.3,-.2,.4c-.2,.2,-.2,.4,-.2,.6v.1c0,1.1,.9,2,2,2v-1.3c-.4,0,-.7,-.3,-.7,-.7v-.1h-.7l.5,.5c.4,-.4,.7,-.9,.7,-1.5v-.3h-.7l.4,.5c.2,-.1,.3,-.2,.5,-.2h4.6c.3,0,.6,.3,.6,.7v.4c0,.4,-.3,.7,-.6,.7H548Z" class="ga_31"/>
<path d="M547.1,331.8l-.5,.5c.4,.4,.9,.6,1.4,.6h4.6c1.1,0,2,-1,2,-2.1v-.4c0,-1.1,-.9,-2,-2,-2H548c-1.1,0,-2,.9,-2,2v.2c0,.2,0,.4,.2,.5c.1,.1,.2,.3,.2,.5v.2c0,.2,.1,.4,.2,.5l.5,-.5h.7v-.2c0,-.6,-.3,-1.2,-.7,-1.5l-.5,.5h.7v-.2c0,-.3,.3,-.6,.7,-.6h4.6c.3,0,.6,.3,.6,.6v.4c0,.4,-.3,.7,-.6,.7H548c-.2,0,-.3,-.1,-.5,-.2l-.4,.5h.7Z" class="ga_31"/>
<path d="M553.6,340.6v.7h1.9c1,0,1.8,-.8,1.8,-1.8v-8.7c0,-1,-.8,-1.9,-1.8,-1.9h-1.8c-.3,0,-.5,.2,-.7,.4c-.1,.3,-.1,.5,.1,.7c.1,.2,.1,.3,.1,.4v.4c0,.4,-.3,.7,-.6,.7H548c-.2,0,-.3,-.1,-.5,-.2c-.2,-.2,-.4,-.2,-.7,-.1c-.2,.1,-.4,.3,-.4,.6v6.6c0,.3,.2,.5,.4,.6c.3,.1,.5,.1,.7,-.1c.2,-.1,.3,-.2,.5,-.2h4.6c.3,0,.6,.3,.6,.7v.4c0,.1,0,.3,-.1,.4c-.2,.2,-.2,.5,-.1,.7c.1,.3,.3,.4,.6,.4v-.7l.5,.5c.3,-.4,.5,-.8,.5,-1.3v-.4c0,-1.1,-.9,-2,-2,-2H548c-.5,0,-1,.2,-1.4,.5l.5,.5h.7v-6.6h-.7l-.5,.5c.4,.4,.9,.6,1.4,.6h4.6c1.1,0,2,-1,2,-2.1v-.4c0,-.4,-.1,-.8,-.4,-1.2l-.5,.4v.7h1.8c.2,0,.4,.2,.4,.5v8.7c0,.3,-.2,.4,-.4,.4h-1.9v.7l.5,.5Z" class="ga_31"/>
<path d="M547.1,331.6h.7c0,-1.1,-.9,-2.1,-2.1,-2.1h-.6c-1.2,0,-2.1,1,-2.1,2.1v7.1c0,1.1,.9,2,2.1,2h.6c1.2,0,2.1,-.9,2.1,-2v-7.1h-1.4v7.1c0,.3,-.3,.6,-.7,.6h-.6c-.4,0,-.7,-.3,-.7,-.6v-7.1c0,-.4,.3,-.7,.7,-.7h.6c.4,0,.7,.3,.7,.7Z" class="ga_31"/>
<path d="M548,353.9v.7h4.6c1.1,0,2,-.9,2,-2v-.4c0,-1.1,-.9,-2.1,-2,-2.1H548c-.5,0,-1,.2,-1.4,.6c-.1,.1,-.2,.3,-.2,.5v.2c0,.2,-.1,.4,-.2,.5c-.2,.2,-.2,.3,-.2,.5v.2c0,1.1,.9,2,2,2v-1.4c-.4,0,-.7,-.3,-.7,-.6v-.2h-.7l.5,.5c.4,-.3,.7,-.9,.7,-1.5v-.2h-.7l.4,.5c.2,-.1,.3,-.2,.5,-.2h4.6c.3,0,.6,.3,.6,.7v.4c0,.3,-.3,.6,-.6,.6H548Z" class="ga_31"/>
<path d="M547.1,344.6l-.5,.5c.4,.3,.9,.5,1.4,.5h4.6c1.1,0,2,-.9,2,-2v-.4c0,-1.1,-.9,-2,-2,-2H548c-1.1,0,-2,.9,-2,2v.2c0,.2,0,.3,.2,.5c.1,.1,.2,.3,.2,.5v.2c0,.2,.1,.4,.2,.5l.5,-.5h.7v-.2c0,-.6,-.3,-1.2,-.7,-1.5l-.5,.5h.7v-.2c0,-.4,.3,-.7,.7,-.7h4.6c.3,0,.6,.3,.6,.7v.4c0,.4,-.3,.7,-.6,.7H548c-.2,0,-.3,-.1,-.5,-.2l-.4,.5h.7Z" class="ga_31"/>
<path d="M553.6,353.4v.7h1.9c1,0,1.8,-.8,1.8,-1.8v-8.8c0,-1,-.8,-1.8,-1.8,-1.8h-1.8c-.3,0,-.5,.2,-.7,.4c-.1,.2,-.1,.5,.1,.7c.1,.1,.1,.3,.1,.4v.4c0,.4,-.3,.7,-.6,.7H548c-.2,0,-.3,-.1,-.5,-.2c-.2,-.2,-.4,-.2,-.7,-.1c-.2,.1,-.4,.3,-.4,.6v6.6c0,.3,.2,.5,.4,.6c.3,.1,.5,.1,.7,-.1c.2,-.1,.3,-.2,.5,-.2h4.6c.3,0,.6,.3,.6,.7v.4c0,.1,0,.3,-.1,.4c-.2,.2,-.2,.5,-.1,.7c.1,.3,.3,.4,.6,.4v-.7l.5,.4c.3,-.3,.5,-.7,.5,-1.2v-.4c0,-1.1,-.9,-2.1,-2,-2.1H548c-.5,0,-1,.2,-1.4,.6l.5,.5h.7v-6.6h-.7l-.5,.5c.4,.3,.9,.5,1.4,.5h4.6c1.1,0,2,-.9,2,-2v-.4c0,-.4,-.1,-.9,-.4,-1.2l-.5,.4v.7h1.8c.2,0,.4,.2,.4,.4v8.8c0,.2,-.2,.4,-.4,.4h-1.9v.7l.5,.4Z" class="ga_31"/>
<path d="M547.1,344.4h.7c0,-1.2,-.9,-2.1,-2.1,-2.1h-.6c-1.2,0,-2.1,.9,-2.1,2.1v7c0,1.2,.9,2.1,2.1,2.1h.6c1.2,0,2.1,-.9,2.1,-2.1v-7h-1.4v7c0,.4,-.3,.7,-.7,.7h-.6c-.4,0,-.7,-.3,-.7,-.7v-7c0,-.4,.3,-.7,.7,-.7h.6c.4,0,.7,.3,.7,.7Z" class="ga_31"/>
<path d="M532.7,340.3h3.2c.5,0,.9,-.2,.9,-.6v-.1c0,-.3,-.4,-.6,-.9,-.6h-3.2c-.2,0,-.5,.1,-.6,.2v.1c0,.1,-.1,.3,-.3,.4c0,.4,.4,.6,.9,.6Z" class="ga_31"/>
<path d="M532.2,330.5c.2,.1,.4,.1,.7,.1h3.3c.5,0,.9,-.2,.9,-.6v-.1c0,-.4,-.4,-.7,-.9,-.7h-3.3c-.6,0,-1,.3,-1,.7c.2,.1,.3,.3,.3,.5Z" class="ga_31"/>
<path d="M538,340.3h1.8c.6,0,1.1,-.5,1.1,-1.1v-8.7c0,-.7,-.5,-1.2,-1.1,-1.2h-1.7c.1,.3,.2,.5,.2,.8v.4c0,.8,-.6,1.4,-1.3,1.4h-4.3c-.4,0,-.7,-.2,-.9,-.4v6.6c.2,-.2,.5,-.4,.9,-.4H537c.7,0,1.3,.6,1.3,1.4v.4c0,.3,-.1,.6,-.3,.8Z" class="ga_31"/>
<path d="M530.5,332c0,-.6,-.5,-1,-1.1,-1c-.6,0,-1.1,.4,-1.1,1v5.6c0,.6,.5,1.1,1.1,1.1c.6,0,1.1,-.5,1.1,-1.1Z" class="ga_31"/>
<path d="M532.3,353.9v.7h4.5c1.2,0,2.1,-.9,2.1,-2v-.4c0,-1.1,-.9,-2.1,-2.1,-2.1h-4.5c-.6,0,-1.1,.2,-1.4,.6c-.2,.1,-.2,.3,-.2,.5v.2c0,.2,-.1,.4,-.3,.5c-.1,.2,-.2,.3,-.2,.5v.2c0,1.1,.9,2,2.1,2v-1.4c-.4,0,-.7,-.3,-.7,-.6v-.2h-.7l.5,.5c.4,-.3,.6,-.9,.6,-1.5v-.2h-.6l.4,.5c.1,-.1,.3,-.2,.5,-.2h4.5c.4,0,.7,.3,.7,.7v.4c0,.3,-.3,.6,-.7,.6h-4.5Z" class="ga_31"/>
<path d="M531.4,344.6l-.5,.5c.3,.3,.8,.5,1.4,.5h4.5c1.2,0,2.1,-.9,2.1,-2v-.4c0,-1.1,-.9,-2,-2.1,-2h-4.5c-1.2,0,-2.1,.9,-2.1,2v.2c0,.2,.1,.3,.2,.5c.2,.1,.3,.3,.3,.5v.2c0,.2,0,.4,.2,.5l.5,-.5h.6v-.2c0,-.6,-.2,-1.2,-.6,-1.5l-.5,.5h.7v-.2c0,-.4,.3,-.7,.7,-.7h4.5c.4,0,.7,.3,.7,.7v.4c0,.4,-.3,.7,-.7,.7h-4.5c-.2,0,-.4,-.1,-.5,-.2l-.4,.5h.6Z" class="ga_31"/>
<path d="M537.9,353.4v.7h1.9c1,0,1.8,-.8,1.8,-1.8v-8.8c0,-1,-.8,-1.8,-1.8,-1.8h-1.9c-.2,0,-.5,.2,-.6,.4c-.1,.2,-.1,.5,.1,.7c0,.1,.1,.3,.1,.4v.4c0,.4,-.3,.7,-.7,.7h-4.5c-.2,0,-.4,-.1,-.5,-.2c-.2,-.2,-.5,-.2,-.7,-.1c-.3,.1,-.4,.3,-.4,.6v6.6c0,.3,.1,.5,.4,.6c.2,.1,.5,.1,.7,-.1c.1,-.1,.3,-.2,.5,-.2h4.5c.4,0,.7,.3,.7,.7v.4c0,.1,-.1,.3,-.2,.4c-.1,.2,-.2,.5,0,.7c.1,.3,.3,.4,.6,.4v-.7l.5,.4c.3,-.3,.5,-.7,.5,-1.2v-.4c0,-1.1,-.9,-2.1,-2.1,-2.1h-4.5c-.6,0,-1.1,.2,-1.4,.6l.5,.5h.6v-6.6h-.6l-.5,.5c.3,.3,.8,.5,1.4,.5h4.5c1.2,0,2.1,-.9,2.1,-2v-.4c0,-.4,-.2,-.9,-.4,-1.2l-.6,.4v.7h1.9c.2,0,.4,.2,.4,.4v8.8c0,.2,-.2,.4,-.4,.4h-1.9v.7l.5,.4Z" class="ga_31"/>
<path d="M531.4,344.4h.6c0,-1.2,-.9,-2.1,-2,-2.1h-.7c-1.1,0,-2,.9,-2,2.1v7c0,1.2,.9,2.1,2,2.1h.7c1.1,0,2,-.9,2,-2.1v-7h-1.3v7c0,.4,-.3,.7,-.7,.7h-.7c-.3,0,-.6,-.3,-.6,-.7v-7c0,-.4,.3,-.7,.6,-.7h.7c.4,0,.7,.3,.7,.7Z" class="ga_31"/>
<path d="M516.5,341.1v.7h4.6c1.1,0,2,-.9,2,-2v-.4c0,-1.1,-.9,-2,-2,-2h-4.6c-.5,0,-1,.2,-1.3,.5c-.2,.1,-.3,.3,-.3,.5v.3c0,.2,-.1,.3,-.2,.4c-.1,.2,-.2,.4,-.2,.6v.1c0,1.1,.9,2,2,2v-1.3c-.3,0,-.6,-.3,-.6,-.7v-.1h-.7l.4,.5c.4,-.4,.7,-.9,.7,-1.5v-.3h-.7l.5,.5c.1,-.1,.2,-.2,.4,-.2h4.6c.4,0,.7,.3,.7,.7v.4c0,.4,-.3,.7,-.7,.7h-4.6Z" class="ga_31"/>
<path d="M515.6,331.8l-.4,.5c.3,.4,.8,.6,1.3,.6h4.6c1.1,0,2,-1,2,-2.1v-.4c0,-1.1,-.9,-2,-2,-2h-4.6c-1.1,0,-2,.9,-2,2v.2c0,.2,.1,.4,.2,.5c.1,.1,.2,.3,.2,.5v.2c0,.2,.1,.4,.3,.5l.4,-.5h.7v-.2c0,-.6,-.3,-1.2,-.7,-1.5l-.4,.5h.7v-.2c0,-.3,.3,-.6,.6,-.6h4.6c.4,0,.7,.3,.7,.6v.4c0,.4,-.3,.7,-.7,.7h-4.6c-.2,0,-.3,-.1,-.4,-.2l-.5,.5h.7Z" class="ga_31"/>
<path d="M522.1,340.6v.7H524c1,0,1.8,-.8,1.8,-1.8v-8.7c0,-1,-.8,-1.9,-1.8,-1.9h-1.8c-.3,0,-.5,.2,-.6,.4c-.1,.3,-.1,.5,0,.7c.1,.2,.2,.3,.2,.4v.4c0,.4,-.3,.7,-.7,.7h-4.6c-.2,0,-.3,-.1,-.4,-.2c-.2,-.2,-.5,-.2,-.8,-.1c-.2,.1,-.4,.3,-.4,.6v6.6c0,.3,.2,.5,.4,.6c.3,.1,.6,.1,.8,-.1c.1,-.1,.2,-.2,.4,-.2h4.6c.4,0,.7,.3,.7,.7v.4c0,.1,-.1,.3,-.2,.4c-.2,.2,-.2,.5,-.1,.7c.1,.3,.4,.4,.6,.4v-.7l.6,.5c.2,-.4,.4,-.8,.4,-1.3v-.4c0,-1.1,-.9,-2,-2,-2h-4.6c-.5,0,-1,.2,-1.3,.5l.4,.5h.7v-6.6h-.7l-.4,.5c.3,.4,.8,.6,1.3,.6h4.6c1.1,0,2,-1,2,-2.1v-.4c0,-.4,-.1,-.8,-.4,-1.2l-.5,.4v.7H524c.3,0,.5,.2,.5,.5v8.7c0,.3,-.2,.4,-.5,.4h-1.9v.7l.6,.5Z" class="ga_31"/>
<path d="M515.6,331.6h.7c0,-1.1,-.9,-2.1,-2,-2.1h-.7c-1.1,0,-2.1,1,-2.1,2.1v7.1c0,1.1,1,2,2.1,2h.7c1.1,0,2,-.9,2,-2v-7.1h-1.4v7.1c0,.3,-.3,.6,-.6,.6h-.7c-.4,0,-.7,-.3,-.7,-.6v-7.1c0,-.4,.3,-.7,.7,-.7h.7c.3,0,.6,.3,.6,.7Z" class="ga_31"/>
<path d="M516.5,353.9v.7h4.6c1.1,0,2,-.9,2,-2v-.4c0,-1.1,-.9,-2.1,-2,-2.1h-4.6c-.5,0,-1,.2,-1.3,.6c-.2,.1,-.3,.3,-.3,.5v.2c0,.2,-.1,.4,-.2,.5c-.1,.2,-.2,.3,-.2,.5v.2c0,1.1,.9,2,2,2v-1.4c-.3,0,-.6,-.3,-.6,-.6v-.2h-.7l.4,.5c.4,-.3,.7,-.9,.7,-1.5v-.2h-.7l.5,.5c.1,-.1,.2,-.2,.4,-.2h4.6c.4,0,.7,.3,.7,.7v.4c0,.3,-.3,.6,-.7,.6h-4.6Z" class="ga_31"/>
<path d="M515.6,344.6l-.4,.5c.3,.3,.8,.5,1.3,.5h4.6c1.1,0,2,-.9,2,-2v-.4c0,-1.1,-.9,-2,-2,-2h-4.6c-1.1,0,-2,.9,-2,2v.2c0,.2,.1,.3,.2,.5c.1,.1,.2,.3,.2,.5v.2c0,.2,.1,.4,.3,.5l.4,-.5h.7v-.2c0,-.6,-.3,-1.2,-.7,-1.5l-.4,.5h.7v-.2c0,-.4,.3,-.7,.6,-.7h4.6c.4,0,.7,.3,.7,.7v.4c0,.4,-.3,.7,-.7,.7h-4.6c-.2,0,-.3,-.1,-.4,-.2l-.5,.5h.7Z" class="ga_31"/>
<path d="M522.1,353.4v.7H524c1,0,1.8,-.8,1.8,-1.8v-8.8c0,-1,-.8,-1.8,-1.8,-1.8h-1.8c-.3,0,-.5,.2,-.6,.4c-.1,.2,-.1,.5,0,.7c.1,.1,.2,.3,.2,.4v.4c0,.4,-.3,.7,-.7,.7h-4.6c-.2,0,-.3,-.1,-.4,-.2c-.2,-.2,-.5,-.2,-.8,-.1c-.2,.1,-.4,.3,-.4,.6v6.6c0,.3,.2,.5,.4,.6c.3,.1,.6,.1,.8,-.1c.1,-.1,.2,-.2,.4,-.2h4.6c.4,0,.7,.3,.7,.7v.4c0,.1,-.1,.3,-.2,.4c-.2,.2,-.2,.5,-.1,.7c.1,.3,.4,.4,.6,.4v-.7l.6,.4c.2,-.3,.4,-.7,.4,-1.2v-.4c0,-1.1,-.9,-2.1,-2,-2.1h-4.6c-.5,0,-1,.2,-1.3,.6l.4,.5h.7v-6.6h-.7l-.4,.5c.3,.3,.8,.5,1.3,.5h4.6c1.1,0,2,-.9,2,-2v-.4c0,-.4,-.1,-.9,-.4,-1.2l-.5,.4v.7H524c.3,0,.5,.2,.5,.4v8.8c0,.2,-.2,.4,-.5,.4h-1.9v.7l.6,.4Z" class="ga_31"/>
<path d="M515.6,344.4h.7c0,-1.2,-.9,-2.1,-2,-2.1h-.7c-1.1,0,-2.1,.9,-2.1,2.1v7c0,1.2,1,2.1,2.1,2.1h.7c1.1,0,2,-.9,2,-2.1v-7h-1.4v7c0,.4,-.3,.7,-.6,.7h-.7c-.4,0,-.7,-.3,-.7,-.7v-7c0,-.4,.3,-.7,.7,-.7h.7c.3,0,.6,.3,.6,.7Z" class="ga_31"/>
<image clip-path="url(#cv_31)" preserveAspectRatio="none" x="399" y="361" width="89" height="30" xlink:href="img/40.jpg"/>
<image clip-path="url(#cw_31)" preserveAspectRatio="none" x="409" y="290" width="88" height="72" xlink:href="img/41.jpg"/>
<image clip-path="url(#cx_31)" preserveAspectRatio="none" x="409" y="383" width="79" height="3" xlink:href="img/42.jpg"/>
<image clip-path="url(#cy_31)" preserveAspectRatio="none" x="487" y="361" width="11" height="31" xlink:href="img/43.jpg"/>
<image clip-path="url(#cz_31)" preserveAspectRatio="none" x="488" y="290" width="9" height="72" xlink:href="img/44.jpg"/>
<image clip-path="url(#c10_31)" preserveAspectRatio="none" x="487" y="383" width="11" height="3" xlink:href="img/45.jpg"/>
<image clip-path="url(#c11_31)" preserveAspectRatio="none" x="494" y="311" width="4" height="68" xlink:href="img/46.jpg"/>
<image clip-path="url(#c12_31)" preserveAspectRatio="none" x="494" y="378" width="4" height="8" xlink:href="img/47.jpg"/>
<path d="M424.8,302.3c-10.1,0,-18.3,8.2,-18.3,18.3v64.2h79V320.6c0,-10.1,-8.2,-18.3,-18.3,-18.3Z" class="g3_31"/>
<path d="M406.4,385.7h79.1v-7.2H406.4v7.2Z" class="g9_31"/>
<path d="M411.8,360.7h2.4c.2,0,.4,-.1,.4,-.3c0,-.2,-.2,-.4,-.4,-.4h-2.4c-.2,0,-.3,.2,-.3,.4c0,.2,.1,.3,.3,.3m3.9,0h2.4c.2,0,.3,-.1,.3,-.3c0,-.2,-.1,-.4,-.3,-.4h-2.4c-.2,0,-.4,.2,-.4,.4c0,.2,.2,.3,.4,.3m3.9,0h2.3c.2,0,.4,-.1,.4,-.3c0,-.2,-.2,-.4,-.4,-.4h-2.3c-.2,0,-.4,.2,-.4,.4c0,.2,.2,.3,.4,.3m3.9,0h2.3c.2,0,.4,-.1,.4,-.3c0,-.2,-.2,-.4,-.4,-.4h-2.3c-.2,0,-.4,.2,-.4,.4c0,.2,.2,.3,.4,.3m3.9,0h2.3c.2,0,.4,-.1,.4,-.3c0,-.2,-.2,-.4,-.4,-.4h-2.3c-.2,0,-.4,.2,-.4,.4c0,.2,.2,.3,.4,.3m3.9,0h2.3c.2,0,.4,-.1,.4,-.3c0,-.2,-.2,-.4,-.4,-.4h-2.3c-.3,0,-.4,.2,-.4,.4c0,.2,.1,.3,.4,.3m3.8,0h2.4c.2,0,.3,-.1,.3,-.3c0,-.2,-.1,-.4,-.3,-.4h-2.4c-.2,0,-.3,.2,-.3,.4c0,.2,.1,.3,.3,.3m3.9,0h2.3c.3,0,.4,-.1,.4,-.3c0,-.2,-.1,-.4,-.4,-.4H439c-.2,0,-.4,.2,-.4,.4c0,.2,.2,.3,.4,.3m3.9,0h2.3c.2,0,.4,-.1,.4,-.3c0,-.2,-.2,-.4,-.4,-.4h-2.3c-.2,0,-.4,.2,-.4,.4c0,.2,.2,.3,.4,.3m3.9,0h2.3c.2,0,.4,-.1,.4,-.3c0,-.2,-.2,-.4,-.4,-.4h-2.3c-.2,0,-.4,.2,-.4,.4c0,.2,.2,.3,.4,.3m3.9,0H453c.2,0,.4,-.1,.4,-.3c0,-.2,-.2,-.4,-.4,-.4h-2.3c-.2,0,-.4,.2,-.4,.4c0,.2,.2,.3,.4,.3m3.8,0h2.4c.2,0,.4,-.1,.4,-.3c0,-.2,-.2,-.4,-.4,-.4h-2.4c-.2,0,-.3,.2,-.3,.4c0,.2,.1,.3,.3,.3m3.9,0h2.4c.2,0,.3,-.1,.3,-.3c0,-.2,-.1,-.4,-.3,-.4h-2.4c-.2,0,-.4,.2,-.4,.4c0,.2,.2,.3,.4,.3m3.9,0h2.3c.2,0,.4,-.1,.4,-.3c0,-.2,-.2,-.4,-.4,-.4h-2.3c-.2,0,-.4,.2,-.4,.4c0,.2,.2,.3,.4,.3m3.9,0h2.3c.2,0,.4,-.1,.4,-.3c0,-.2,-.2,-.4,-.4,-.4h-2.3c-.2,0,-.4,.2,-.4,.4c0,.2,.2,.3,.4,.3m3.9,0h2.3c.2,0,.4,-.1,.4,-.3c0,-.2,-.2,-.4,-.4,-.4h-2.3c-.2,0,-.4,.2,-.4,.4c0,.2,.2,.3,.4,.3m3.9,0h2.3c.2,0,.4,-.1,.4,-.3c0,-.2,-.2,-.4,-.4,-.4H474c-.3,0,-.4,.2,-.4,.4c0,.2,.1,.3,.4,.3m3.8,0h2.4c.2,0,.3,-.1,.3,-.3c0,-.2,-.1,-.4,-.3,-.4h-2.4c-.2,0,-.3,.2,-.3,.4c0,.2,.1,.3,.3,.3Z" class="gb_31"/>
<path d="M459.3,324.3h2.2c.2,0,.4,-.1,.4,-.3c0,-.2,-.2,-.4,-.4,-.4h-2.2c-.2,0,-.4,.2,-.4,.4c0,.2,.2,.3,.4,.3m3.7,0h2.3c.2,0,.3,-.1,.3,-.3c0,-.2,-.1,-.4,-.3,-.4H463c-.2,0,-.4,.2,-.4,.4c0,.2,.2,.3,.4,.3m3.7,0H469c.2,0,.4,-.1,.4,-.3c0,-.2,-.2,-.4,-.4,-.4h-2.3c-.2,0,-.3,.2,-.3,.4c0,.2,.1,.3,.3,.3m3.8,0h2.2c.2,0,.4,-.1,.4,-.3c0,-.2,-.2,-.4,-.4,-.4h-2.2c-.3,0,-.4,.2,-.4,.4c0,.2,.1,.3,.4,.3m3.7,0h2.2c.2,0,.4,-.1,.4,-.3c0,-.2,-.2,-.4,-.4,-.4h-2.2c-.2,0,-.4,.2,-.4,.4c0,.2,.2,.3,.4,.3m3.7,0h2.2c.2,0,.4,-.1,.4,-.3c0,-.2,-.2,-.4,-.4,-.4h-2.2c-.2,0,-.4,.2,-.4,.4c0,.2,.2,.3,.4,.3Z" class="gb_31"/>
<path d="M411.9,324.3h2.2c.2,0,.4,-.1,.4,-.3c0,-.2,-.2,-.4,-.4,-.4h-2.2c-.2,0,-.4,.2,-.4,.4c0,.2,.2,.3,.4,.3m3.7,0h2.2c.2,0,.4,-.1,.4,-.3c0,-.2,-.2,-.4,-.4,-.4h-2.2c-.2,0,-.4,.2,-.4,.4c0,.2,.2,.3,.4,.3m3.7,0h2.3c.2,0,.3,-.1,.3,-.3c0,-.2,-.1,-.4,-.3,-.4h-2.3c-.2,0,-.4,.2,-.4,.4c0,.2,.2,.3,.4,.3m3.7,0h2.3c.2,0,.4,-.1,.4,-.3c0,-.2,-.2,-.4,-.4,-.4H423c-.2,0,-.3,.2,-.3,.4c0,.2,.1,.3,.3,.3m3.8,0H429c.2,0,.4,-.1,.4,-.3c0,-.2,-.2,-.4,-.4,-.4h-2.2c-.3,0,-.4,.2,-.4,.4c0,.2,.1,.3,.4,.3m3.7,0h2.2c.2,0,.4,-.1,.4,-.3c0,-.2,-.2,-.4,-.4,-.4h-2.2c-.2,0,-.4,.2,-.4,.4c0,.2,.2,.3,.4,.3Z" class="gb_31"/>
<path d="M436.7,327v-.8c-1.1,0,-2,.9,-2,2.1v29.3h22.9V328.3c0,-1.2,-.9,-2.1,-2.1,-2.1H436.7v1.5h18.8c.3,0,.6,.3,.6,.6v27.8H436.2V328.3c0,-.3,.2,-.6,.5,-.6Z" class="gb_31"/>
<path d="M438.7,321.9v-.3c-.5,0,-1,.4,-1,1v4.6h16.9v-4.6c0,-.6,-.5,-1,-1,-1H438.7v.7h14.9c.1,0,.3,.1,.3,.3v3.9H438.4v-3.9c0,-.2,.1,-.3,.3,-.3Z" class="gb_31"/>
<path d="M443.6,349h-.4v7.7l.1,.2l.3,.1h5.2l.2,-.1l.1,-.2V349l-.1,-.2l-.2,-.1h-5.2l-.3,.1l-.1,.2h.4v.4h4.8v6.9H444V349h-.4v.4Z" class="gb_31"/>
<path d="M450.5,349h-.4v4.1l.1,.3l.3,.1h4.1l.3,-.1l.1,-.3V349l-.1,-.2l-.3,-.1h-4.1l-.3,.1l-.1,.2h.4v.4h3.8v3.4h-3.4V349h-.4v.4Z" class="gb_31"/>
<path d="M437.7,349h-.4v4.1l.1,.3l.3,.1h4.1l.3,-.1l.1,-.3V349l-.1,-.2l-.3,-.1h-4.1l-.3,.1l-.1,.2h.4v.4h3.8v3.4h-3.4V349h-.4v.4Z" class="gb_31"/>
<path d="M445.8,353h.8v-1h-.8v1Z" class="gb_31"/>
<path d="M450.5,342.7h-.4v4.1l.1,.3l.3,.1h4.1l.3,-.1l.1,-.3v-4.1l-.1,-.2l-.3,-.2h-4.1l-.3,.2l-.1,.2h.4v.4h3.8v3.3h-3.4v-3.7h-.4v.4Z" class="gb_31"/>
<path d="M444.1,342.7h-.4v4.1l.1,.3l.3,.1h4.1l.3,-.1l.1,-.3v-4.1l-.1,-.2l-.3,-.2h-4.1l-.3,.2l-.1,.2h.4v.4h3.8v3.3h-3.4v-3.7h-.4v.4Z" class="gb_31"/>
<path d="M437.7,342.7h-.4v4.1l.1,.3l.3,.1h4.1l.3,-.1l.1,-.3v-4.1l-.1,-.2l-.3,-.2h-4.1l-.3,.2l-.1,.2h.4v.4h3.8v3.3h-3.4v-3.7h-.4v.4Z" class="gb_31"/>
<path d="M450.5,336.4h-.4v4.1l.1,.3l.3,.1h4.1l.3,-.1l.1,-.3v-4.1l-.1,-.3l-.3,-.1h-4.1l-.3,.1l-.1,.3h.4v.4h3.8v3.3h-3.4v-3.7h-.4v.4Z" class="gb_31"/>
<path d="M444.1,336.4h-.4v4.1l.1,.3l.3,.1h4.1l.3,-.1l.1,-.3v-4.1l-.1,-.3l-.3,-.1h-4.1l-.3,.1l-.1,.3h.4v.4h3.8v3.3h-3.4v-3.7h-.4v.4Z" class="gb_31"/>
<path d="M437.7,336.4h-.4v4.1l.1,.3l.3,.1h4.1l.3,-.1l.1,-.3v-4.1l-.1,-.3l-.3,-.1h-4.1l-.3,.1l-.1,.3h.4v.4h3.8v3.3h-3.4v-3.7h-.4v.4Z" class="gb_31"/>
<path d="M450.5,330.1h-.4v4.1l.1,.3l.3,.1h4.1l.3,-.1l.1,-.3v-4.1l-.1,-.3l-.3,-.1h-4.1l-.3,.1l-.1,.3h.4v.4h3.8v3.3h-3.4v-3.7h-.4v.4Z" class="gb_31"/>
<path d="M444.1,330.1h-.4v4.1l.1,.3l.3,.1h4.1l.3,-.1l.1,-.3v-4.1l-.1,-.3l-.3,-.1h-4.1l-.3,.1l-.1,.3h.4v.4h3.8v3.3h-3.4v-3.7h-.4v.4Z" class="gb_31"/>
<path d="M437.7,330.1h-.4v4.1l.1,.3l.3,.1h4.1l.3,-.1l.1,-.3v-4.1l-.1,-.3l-.3,-.1h-4.1l-.3,.1l-.1,.3h.4v.4h3.8v3.3h-3.4v-3.7h-.4v.4Z" class="gb_31"/>
<path d="M441.3,323l-.2,-.1l-.5,.7l-.8,.2l-.2,.1l.1,.3l.5,.6v.8l.1,.3h.2l.8,-.3l.7,.3h.3l.1,-.3l-.1,-.8l.5,-.6l.1,-.3l-.2,-.1l-.8,-.2l-.4,-.7l-.2,-.1l-.2,.1l.2,.1l-.2,.1l.5,.8l.1,.1l.5,.2l-.3,.4l-.1,.1l.1,.6l-.6,-.2h-.1l-.5,.2v-.6l-.1,-.1l-.3,-.4l.5,-.2l.2,-.1l.5,-.8l-.2,-.1l-.2,.1Z" class="gb_31"/>
<path d="M446.1,323l-.2,-.1l-.4,.7l-.8,.2l-.2,.1l.1,.3l.5,.6l-.1,.8l.1,.3h.3l.7,-.3l.8,.3h.2l.1,-.3v-.8l.5,-.6l.1,-.3l-.2,-.1l-.8,-.2l-.5,-.7l-.2,-.1l-.2,.1l.2,.1l-.2,.1l.5,.8l.2,.1l.5,.2l-.3,.4l-.1,.1v.6l-.5,-.2H446l-.5,.2l.1,-.6l-.1,-.1l-.3,-.4l.5,-.2l.1,-.1l.5,-.8l-.2,-.1l-.2,.1Z" class="gb_31"/>
<path d="M451,323l-.2,-.1l-.4,.7l-.8,.2l-.2,.1v.3l.6,.6l-.1,.8l.1,.3h.2l.8,-.3l.8,.3h.2l.1,-.3l-.1,-.8l.6,-.6v-.3l-.1,-.1l-.8,-.2l-.5,-.7l-.2,-.1l-.2,.1l.2,.1l-.2,.1l.5,.8l.1,.1l.6,.2l-.4,.4v.7l-.5,-.2h-.2l-.5,.2v-.7l-.4,-.4l.6,-.2l.1,-.1l.5,-.8L451,323l-.2,.1Z" class="gb_31"/>
<path d="M433.7,357.9h24.6c.5,0,1,-.4,1,-.9c0,-.5,-.5,-.9,-1,-.9H433.7c-.5,0,-.9,.4,-.9,.9c0,.5,.4,.9,.9,.9Z" class="gb_31"/>
<path d="M446,349v7.3h.3V349Z" class="gb_31"/>
<image clip-path="url(#c13_31)" preserveAspectRatio="none" x="321" y="361" width="79" height="30" xlink:href="img/48.jpg"/>
<image clip-path="url(#c14_31)" preserveAspectRatio="none" x="312" y="290" width="97" height="72" xlink:href="img/49.jpg"/>
<image clip-path="url(#c15_31)" preserveAspectRatio="none" x="321" y="383" width="79" height="3" xlink:href="img/50.jpg"/>
<image clip-path="url(#c16_31)" preserveAspectRatio="none" x="311" y="361" width="11" height="31" xlink:href="img/51.jpg"/>
<image clip-path="url(#c17_31)" preserveAspectRatio="none" x="312" y="290" width="9" height="72" xlink:href="img/52.jpg"/>
<image clip-path="url(#c18_31)" preserveAspectRatio="none" x="311" y="383" width="11" height="3" xlink:href="img/53.jpg"/>
<image clip-path="url(#c19_31)" preserveAspectRatio="none" x="399" y="361" width="11" height="31" xlink:href="img/54.jpg"/>
<image clip-path="url(#c1a_31)" preserveAspectRatio="none" x="400" y="290" width="9" height="72" xlink:href="img/55.jpg"/>
<image clip-path="url(#c1b_31)" preserveAspectRatio="none" x="399" y="383" width="11" height="3" xlink:href="img/56.jpg"/>
<image clip-path="url(#c1c_31)" preserveAspectRatio="none" x="406" y="311" width="4" height="68" xlink:href="img/57.jpg"/>
<image clip-path="url(#c1d_31)" preserveAspectRatio="none" x="406" y="378" width="4" height="8" xlink:href="img/58.jpg"/>
<path d="M336.7,302.3c-10.1,0,-18.3,8.2,-18.3,18.3v64.2h79V320.6c0,-10.1,-8.2,-18.3,-18.3,-18.3Z" class="g3_31"/>
<path d="M318.3,385.7h79.1v-7.2H318.3v7.2Z" class="g9_31"/>
<path d="M324.5,328.5h2.2c.2,0,.4,-.2,.4,-.4c0,-.2,-.2,-.4,-.4,-.4h-2.2c-.2,0,-.3,.2,-.3,.4c0,.2,.1,.4,.3,.4m3.6,0h2.2c.2,0,.3,-.2,.3,-.4c0,-.2,-.1,-.4,-.3,-.4h-2.2c-.2,0,-.4,.2,-.4,.4c0,.2,.2,.4,.4,.4m3.6,0h2.1c.2,0,.4,-.2,.4,-.4c0,-.2,-.2,-.4,-.4,-.4h-2.1c-.3,0,-.4,.2,-.4,.4c0,.2,.1,.4,.4,.4m3.5,0h2.2c.2,0,.3,-.2,.3,-.4c0,-.2,-.1,-.4,-.3,-.4h-2.2c-.2,0,-.4,.2,-.4,.4c0,.2,.2,.4,.4,.4m3.6,0h2.1c.2,0,.4,-.2,.4,-.4c0,-.2,-.2,-.4,-.4,-.4h-2.1c-.2,0,-.4,.2,-.4,.4c0,.2,.2,.4,.4,.4m3.5,0h2.2c.2,0,.4,-.2,.4,-.4c0,-.2,-.2,-.4,-.4,-.4h-2.2c-.2,0,-.4,.2,-.4,.4c0,.2,.2,.4,.4,.4m3.6,0H348c.2,0,.4,-.2,.4,-.4c0,-.2,-.2,-.4,-.4,-.4h-2.1c-.2,0,-.4,.2,-.4,.4c0,.2,.2,.4,.4,.4Z" class="gc_31"/>
<path d="M324.5,360.7h2.4c.2,0,.4,-.1,.4,-.3c0,-.2,-.2,-.4,-.4,-.4h-2.4c-.2,0,-.3,.2,-.3,.4c0,.2,.1,.3,.3,.3m3.9,0h2.4c.2,0,.3,-.1,.3,-.3c0,-.2,-.1,-.4,-.3,-.4h-2.4c-.2,0,-.4,.2,-.4,.4c0,.2,.2,.3,.4,.3m3.9,0h2.3c.2,0,.4,-.1,.4,-.3c0,-.2,-.2,-.4,-.4,-.4h-2.3c-.2,0,-.4,.2,-.4,.4c0,.2,.2,.3,.4,.3m3.9,0h2.3c.2,0,.4,-.1,.4,-.3c0,-.2,-.2,-.4,-.4,-.4h-2.3c-.2,0,-.4,.2,-.4,.4c0,.2,.2,.3,.4,.3m3.9,0h2.3c.2,0,.4,-.1,.4,-.3c0,-.2,-.2,-.4,-.4,-.4h-2.3c-.2,0,-.4,.2,-.4,.4c0,.2,.2,.3,.4,.3m3.9,0h2.3c.2,0,.4,-.1,.4,-.3c0,-.2,-.2,-.4,-.4,-.4H344c-.3,0,-.4,.2,-.4,.4c0,.2,.1,.3,.4,.3m3.8,0h2.4c.2,0,.3,-.1,.3,-.3c0,-.2,-.1,-.4,-.3,-.4h-2.4c-.2,0,-.3,.2,-.3,.4c0,.2,.1,.3,.3,.3m3.9,0H354c.3,0,.4,-.1,.4,-.3c0,-.2,-.1,-.4,-.4,-.4h-2.3c-.2,0,-.4,.2,-.4,.4c0,.2,.2,.3,.4,.3m3.9,0h2.3c.2,0,.4,-.1,.4,-.3c0,-.2,-.2,-.4,-.4,-.4h-2.3c-.2,0,-.4,.2,-.4,.4c0,.2,.2,.3,.4,.3m3.9,0h2.3c.2,0,.4,-.1,.4,-.3c0,-.2,-.2,-.4,-.4,-.4h-2.3c-.2,0,-.4,.2,-.4,.4c0,.2,.2,.3,.4,.3m3.9,0h2.3c.2,0,.4,-.1,.4,-.3c0,-.2,-.2,-.4,-.4,-.4h-2.3c-.2,0,-.4,.2,-.4,.4c0,.2,.2,.3,.4,.3m3.8,0h2.4c.2,0,.4,-.1,.4,-.3c0,-.2,-.2,-.4,-.4,-.4h-2.4c-.2,0,-.3,.2,-.3,.4c0,.2,.1,.3,.3,.3m3.9,0h2.4c.2,0,.3,-.1,.3,-.3c0,-.2,-.1,-.4,-.3,-.4h-2.4c-.2,0,-.4,.2,-.4,.4c0,.2,.2,.3,.4,.3m3.9,0h2.3c.2,0,.4,-.1,.4,-.3c0,-.2,-.2,-.4,-.4,-.4H375c-.2,0,-.4,.2,-.4,.4c0,.2,.2,.3,.4,.3m3.9,0h2.3c.2,0,.4,-.1,.4,-.3c0,-.2,-.2,-.4,-.4,-.4h-2.3c-.2,0,-.4,.2,-.4,.4c0,.2,.2,.3,.4,.3m3.9,0h2.3c.2,0,.4,-.1,.4,-.3c0,-.2,-.2,-.4,-.4,-.4h-2.3c-.2,0,-.4,.2,-.4,.4c0,.2,.2,.3,.4,.3m3.9,0H389c.2,0,.4,-.1,.4,-.3c0,-.2,-.2,-.4,-.4,-.4h-2.3c-.3,0,-.4,.2,-.4,.4c0,.2,.1,.3,.4,.3m3.8,0h2.4c.2,0,.3,-.1,.3,-.3c0,-.2,-.1,-.4,-.3,-.4h-2.4c-.2,0,-.3,.2,-.3,.4c0,.2,.1,.3,.3,.3Z" class="gc_31"/>
<path d="M371.3,328.5h2.3c.2,0,.4,-.2,.4,-.4c0,-.2,-.2,-.4,-.4,-.4h-2.3c-.2,0,-.4,.2,-.4,.4c0,.2,.2,.4,.4,.4m3.9,0h2.3c.2,0,.4,-.2,.4,-.4c0,-.2,-.2,-.4,-.4,-.4h-2.3c-.2,0,-.4,.2,-.4,.4c0,.2,.2,.4,.4,.4m3.8,0h2.3c.2,0,.4,-.2,.4,-.4c0,-.2,-.2,-.4,-.4,-.4H379c-.2,0,-.4,.2,-.4,.4c0,.2,.2,.4,.4,.4m3.9,0h2.3c.2,0,.4,-.2,.4,-.4c0,-.2,-.2,-.4,-.4,-.4h-2.3c-.2,0,-.4,.2,-.4,.4c0,.2,.2,.4,.4,.4m3.8,0H389c.2,0,.4,-.2,.4,-.4c0,-.2,-.2,-.4,-.4,-.4h-2.3c-.2,0,-.4,.2,-.4,.4c0,.2,.2,.4,.4,.4m3.9,0h2.3c.2,0,.3,-.2,.3,-.4c0,-.2,-.1,-.4,-.3,-.4h-2.3c-.3,0,-.4,.2,-.4,.4c0,.2,.1,.4,.4,.4Z" class="gc_31"/>
<path d="M367.9,340.2c0,3.3,-.1,6.7,0,10.1c.1,3.1,-1.4,5.4,-4.5,6.7c-3.3,1.5,-6.5,1.2,-9.5,-.6c-.4,-.3,-.9,-.6,-1.1,-.9c-.2,-.2,-.1,-.7,0,-.9c.2,-.2,.7,-.1,1,-.1c.2,.1,.4,.3,.6,.5c3.1,2.3,8,2,10.5,-.7c1.1,-1.1,1.5,-2.4,1.5,-3.9c0,-6.8,-.1,-13.6,0,-20.4c0,-2.4,-1.1,-4.3,-3.6,-5.5c-2.6,-1.2,-5.3,-1,-7.8,.4c-.3,.2,-.6,.4,-.9,.7c-.4,.3,-.9,.4,-1.2,0c-.2,-.3,-.1,-.8,.2,-1.1c1.1,-1,2.5,-1.6,4.1,-1.9c4.7,-1,9.6,1.5,10.5,5.5c.2,.5,.2,1.1,.2,1.6c0,3.5,0,7,0,10.5Z" class="gc_31"/>
<path d="M352.8,332.3c-1.7,-.3,-2.2,-1.4,-1.5,-3c.5,-1,1.4,-1.5,2.4,-1.8c1.5,-.5,3.2,-.6,4.7,-.1c2,.6,3.2,2.5,3,4.5c-.2,2,-1.8,3.7,-3.7,3.9c-2.1,.2,-3.9,-.9,-4.7,-2.8c-.1,-.2,-.1,-.5,-.2,-.7m7.1,0c-1.4,-.5,-1.6,-.6,-2.3,-1.9c-.1,-.2,-.3,-.5,-.4,-.8c-.7,-.9,-1.4,-1,-2.2,-.2c-.8,.9,-1.1,2.2,-.6,3.3c.5,1.1,1.5,1.8,2.8,1.7c1.3,0,2.2,-.7,2.7,-2.1m.1,-1.6c.1,-1,-1.8,-1.7,-1.8,-1.7c.5,1.8,1.7,2.2,1.8,1.7M353.5,329c-1.9,.8,-.9,2.2,-.8,1.9c0,0,.2,-1.2,.8,-1.9Z" class="gc_31"/>
<path d="M352.8,341.6c-1.7,-.3,-2.2,-1.4,-1.5,-3c.5,-1,1.4,-1.5,2.4,-1.8c1.5,-.5,3.2,-.5,4.7,0c2,.6,3.2,2.4,3,4.5c-.2,1.9,-1.8,3.6,-3.7,3.8c-2.1,.3,-3.9,-.8,-4.7,-2.8c-.1,-.2,-.1,-.4,-.2,-.7m7.1,0c-1.4,-.4,-1.6,-.6,-2.3,-1.8c-.1,-.3,-.3,-.6,-.4,-.9c-.7,-.9,-1.4,-1,-2.2,-.2c-.8,.9,-1.1,2.2,-.6,3.3c.5,1.1,1.5,1.8,2.8,1.8c1.3,-.1,2.2,-.8,2.7,-2.2M360,340c.1,-1,-1.8,-1.6,-1.8,-1.6c.5,1.7,1.7,2.2,1.8,1.6m-6.5,-1.7c-1.9,.8,-.9,2.3,-.8,1.9c0,0,.2,-1.2,.8,-1.9Z" class="gc_31"/>
<path d="M352.8,350.7c-1.7,-.3,-2.2,-1.4,-1.5,-3c.5,-1,1.4,-1.5,2.4,-1.8c1.5,-.5,3.2,-.5,4.7,0c2,.6,3.2,2.4,3,4.5c-.2,1.9,-1.8,3.6,-3.7,3.8c-2.1,.3,-3.9,-.8,-4.7,-2.8c-.1,-.2,-.1,-.4,-.2,-.7m7.1,0c-1.4,-.4,-1.6,-.6,-2.3,-1.8c-.1,-.3,-.3,-.6,-.4,-.9c-.7,-.9,-1.4,-1,-2.2,-.2c-.8,.9,-1.1,2.2,-.6,3.3c.5,1.1,1.5,1.8,2.8,1.8c1.3,-.1,2.2,-.8,2.7,-2.2m.1,-1.6c.1,-1,-1.8,-1.6,-1.8,-1.6c.5,1.7,1.7,2.2,1.8,1.6m-6.5,-1.7c-1.9,.8,-.9,2.3,-.8,1.9c0,0,.2,-1.2,.8,-1.9Z" class="gc_31"/>
<path d="M349,345.2l-5.3,-5.5c-.2,-.3,-.6,-.3,-.9,0c-.2,.2,-.2,.6,0,.8l5.3,5.6c.2,.2,.6,.2,.8,0c.3,-.2,.3,-.6,.1,-.9Z" class="gc_31"/>
<path d="M349,352.9l-5.3,5.5c-.2,.2,-.6,.3,-.9,0c-.2,-.2,-.2,-.6,0,-.9l5.3,-5.5c.2,-.3,.6,-.3,.8,0c.3,.2,.3,.6,.1,.9Z" class="gc_31"/>
<path d="M347.8,347.2l-7.3,-1.4c-.3,-.1,-.6,.2,-.7,.5c-.1,.3,.1,.7,.5,.7l7.2,1.4c.4,.1,.7,-.1,.8,-.5c0,-.3,-.2,-.6,-.5,-.7Z" class="gc_31"/>
<path d="M347.8,350.9l-7.3,1.4c-.3,0,-.6,-.2,-.7,-.5c-.1,-.4,.1,-.7,.5,-.8l7.2,-1.4c.4,0,.7,.2,.8,.5c0,.4,-.2,.7,-.5,.8Z" class="gc_31"/>
<path d="M0,0V1286.2Z" class="g3_31"/>
<path d="M0,1286.2H19.5V0H0V1286.2Z" class="g3_31"/>
</svg>