<?xml version="1.0" encoding="UTF-8" standalone="no"?>
<!DOCTYPE svg PUBLIC "-//W3C//DTD SVG 1.1//EN"
"http://www.w3.org/Graphics/SVG/1.1/DTD/svg11.dtd">
<svg viewBox="0 0 909 1286" version="1.1" xmlns="http://www.w3.org/2000/svg" xmlns:xlink="http://www.w3.org/1999/xlink">
<defs>
<clipPath id="c0_16"><path d="M5.8,1072.4v-38H28.6v38Z"/></clipPath>
<clipPath id="c1_16"><path d="M603.5,528.3V147.2H909.4V528.3Z"/></clipPath>
<clipPath id="c2_16"><path d="M583.6,519.5V501.9H540.7v17.6ZM39,528.3V147.2H589.7V528.3Z"/></clipPath>
<clipPath id="c3_16"><path d="M540.7,519.5V501.9h42.9v17.6Z"/></clipPath>
<clipPath id="c4_16"><path d="M39,1247.2V0H909.4V1247.2Z"/></clipPath>
<clipPath id="c5_16"><path d="M469.8,121.1V104.4h11.9v16.7Z"/></clipPath>
<clipPath id="c6_16"><path d="M510.2,121.1V104.4h11.9v16.7Z"/></clipPath>
<clipPath id="c7_16"><path d="M549.6,121.1V104.4h11.8v16.7Z"/></clipPath>
<clipPath id="c8_16"><path d="M665.7,121.8V105.1h11.9v16.7Z"/></clipPath>
<clipPath id="c9_16"><path d="M715.9,121.8V105.1h11.9v16.7Z"/></clipPath>
<clipPath id="ca_16"><path d="M589.3,121.8V105.1h11.8v16.7Z"/></clipPath>
<clipPath id="cb_16"><path d="M804.1,121.8V105.1H816v16.7Z"/></clipPath>
<clipPath id="cc_16"><path d="M804.1,117.8V109v8.8Z"/></clipPath>
<clipPath id="cd_16"><path d="M740.1,117.3c1.1,0,1.6,-1.4,1.6,-2.4v-.5h-.4c-.7,0,-2.2,0,-2.2,1.5c0,.8,.4,1.4,1,1.4Zm15.5,0c1.1,0,1.6,-1.4,1.6,-2.4v-.5h-.4c-.7,0,-2.2,0,-2.2,1.5c0,.8,.4,1.4,1,1.4Zm28.4,0c1.1,0,1.6,-1.4,1.6,-2.4v-.5h-.4c-.7,0,-2.2,0,-2.2,1.5c0,.8,.4,1.4,1,1.4Zm-33.1,0c.9,0,1.6,-.8,1.6,-2.7c0,-1.4,-.4,-2.7,-1.6,-2.7c-1,0,-1.6,1,-1.6,2.7c0,1.7,.5,2.7,1.6,2.7Zm16.3,0c.9,0,1.5,-.8,1.5,-2.7c0,-1.4,-.3,-2.7,-1.5,-2.7c-1,0,-1.6,1,-1.6,2.7c0,1.7,.5,2.7,1.6,2.7Zm6.9,-3.3c0,-1.5,-.6,-2.1,-1.4,-2.1c-.9,0,-1.6,.7,-1.7,2.1Zm29.5,0c0,-1.5,-.5,-2.1,-1.4,-2.1c-.9,0,-1.5,.7,-1.7,2.1Zm-13.8,3.7v-6.2h.5v6.2Zm-53.9,0v-6.2h.4v1c0,.3,0,.5,0,.5c.2,-.8,.8,-1.5,1.5,-1.5c.1,0,.2,0,.3,0v.5c-.1,0,-.2,0,-.3,0c-1,0,-1.5,1.8,-1.5,2.9v2.8Zm4.2,.1c-.7,0,-1.6,-.5,-1.6,-1.8c0,-2,2,-2.1,2.8,-2.1h.4v-.2c0,-1.4,-.5,-1.8,-1.2,-1.8c-.5,0,-1,.1,-1.4,.4l-.2,-.4c.5,-.3,1.1,-.5,1.6,-.5c1.1,0,1.7,.7,1.7,2.3v4h-.5v-.6c0,-.4,0,-.6,0,-.6c-.3,.6,-.7,1.3,-1.6,1.3Zm3.6,-.1v-6.2h.5v.8c0,.2,-.1,.3,-.1,.3h.1c.1,-.4,.7,-1.2,1.9,-1.2c1.2,0,1.5,.8,1.5,1.9v4.4h-.5v-4.3c0,-.7,-.1,-1.5,-1.1,-1.5c-1,0,-1.8,.9,-1.8,2v3.8Zm11.9,.1c-.7,0,-1.6,-.5,-1.6,-1.8c0,-2,2,-2.1,2.8,-2.1h.4v-.2c0,-1.4,-.5,-1.8,-1.2,-1.8c-.5,0,-1,.1,-1.4,.4l-.2,-.4c.5,-.3,1.1,-.5,1.6,-.5c1.1,0,1.7,.7,1.7,2.3v4h-.5v-.6c0,-.4,0,-.6,0,-.6c-.3,.6,-.7,1.3,-1.6,1.3Zm4.7,0c-.6,0,-1.2,-.2,-1.6,-.7l.3,-.4c.2,.2,.7,.6,1.3,.6c.7,0,1.2,-.4,1.2,-1.1c0,-1.7,-2.6,-1.2,-2.6,-3.2c0,-.9,.6,-1.6,1.7,-1.6c.4,0,.9,.1,1.2,.4l-.2,.5c-.3,-.2,-.7,-.4,-1.1,-.4c-.6,0,-1.1,.4,-1.1,1.1c0,1.7,2.6,1.1,2.6,3.1c0,.9,-.6,1.7,-1.7,1.7Zm12.5,0c-1.4,0,-2.4,-1.2,-2.4,-3.3c0,-1.9,1,-3.1,2.3,-3.1c1.4,0,1.9,1.3,1.9,2.7c0,.1,0,.3,0,.4H771c0,1.9,.8,2.8,1.8,2.8c.6,0,1.1,-.2,1.5,-.7l.2,.5c-.4,.4,-1,.7,-1.7,.7Zm11.2,0c-.7,0,-1.6,-.5,-1.6,-1.8c0,-2,2,-2.1,2.8,-2.1h.4v-.2c0,-1.4,-.5,-1.8,-1.2,-1.8c-.5,0,-1,.1,-1.4,.4l-.2,-.4c.5,-.3,1.1,-.5,1.6,-.5c1.1,0,1.7,.7,1.7,2.3v4h-.5v-.6c0,-.4,0,-.6,0,-.6c-.3,.6,-.7,1.3,-1.6,1.3Zm7.8,-.1v-6.2h.5v.8c0,.2,0,.3,0,.3c.1,-.4,.6,-1.2,1.8,-1.2c.9,0,1.3,.5,1.4,1.2c.2,-.4,.7,-1.2,1.8,-1.2c1.1,0,1.5,.8,1.5,1.9v4.4h-.5v-4.3c0,-.7,-.1,-1.5,-1,-1.5c-1,0,-1.8,.9,-1.8,2v3.8H795v-4.3c0,-.7,-.1,-1.5,-1,-1.5c-.9,0,-1.7,.9,-1.7,2v3.8Zm10.5,.1c-1.4,0,-2.3,-1.2,-2.3,-3.3c0,-1.9,.9,-3.1,2.2,-3.1c1.4,0,2,1.3,2,2.7c0,.1,-.1,.3,-.1,.4h-3.6c0,1.9,.8,2.8,1.9,2.8c.5,0,1.1,-.2,1.5,-.7l.1,.5c-.3,.4,-1,.7,-1.7,.7Zm-51.5,0c-1.4,0,-2,-1.3,-2,-3.2c0,-1.9,.8,-3.2,2.1,-3.2c.8,0,1.3,.4,1.6,1.1c0,0,-.1,-.2,-.1,-.5v-2.9h.5v8.6h-.5v-.6c0,-.3,.1,-.5,.1,-.5c-.2,.6,-.7,1.2,-1.7,1.2Zm16.3,0c-1.4,0,-2,-1.3,-2,-3.2c0,-1.9,.7,-3.2,2.1,-3.2c.8,0,1.3,.4,1.5,1.1h.1c0,0,-.1,-.2,-.1,-.5v-2.9h.5v8.6h-.5v-.6c0,-.3,.1,-.5,.1,-.5h-.1c-.2,.6,-.7,1.2,-1.6,1.2Zm21.5,-.1c-.4,0,-1,-.1,-1,-1.3v-7.3h.5v7.2c0,.8,.3,.9,.5,.9q.1,0,.2,0v.5q-.1,0,-.2,0Zm1.1,-7.7v-.9h.6v.9ZM732,117.8c-1.8,0,-3.4,-1.7,-3.4,-4.4c0,-2.8,1.4,-4.4,3.5,-4.4c.7,0,1.5,.2,2.1,.7l-.3,.4c-.4,-.4,-1.1,-.7,-1.9,-.7c-1.7,0,-2.9,1.5,-2.9,4c0,2.5,1.3,3.9,2.9,3.9c.8,0,1.6,-.3,2,-1v-2.1h-1.1v-.4h1.6v3.9H734v-.4c0,-.2,0,-.4,0,-.4c-.3,.5,-1.1,.9,-2,.9Zm47.6,0c-.7,0,-1.4,-.3,-1.9,-.8l.3,-.4c.4,.4,1,.7,1.6,.7c.9,0,1.5,-.6,1.5,-1.7c0,-2.3,-3.2,-2,-3.2,-4.5c0,-1.2,.7,-2.1,2.1,-2.1c.6,0,1.1,.1,1.6,.5l-.2,.4c-.4,-.2,-.9,-.4,-1.4,-.4c-1.1,0,-1.6,.7,-1.6,1.6c0,2.2,3.2,1.9,3.2,4.5c0,1.3,-.7,2.2,-2,2.2Z"/></clipPath>
<style type="text/css"><![CDATA[
.g0_16{
fill: #4BC0B5;
}
.g1_16{
fill: #DCDDDE;
}
.g2_16{
fill: #8FD3D3;
}
.g3_16{
fill: #4D4D4F;
}
.g4_16{
fill: #58595B;
}
.g5_16{
fill: #DEF1F0;
}
.g6_16{
fill: #5AC4C1;
}
.g7_16{
fill: #949698;
}
]]></style>
</defs>
<path d="M0,1286.2H29.9V1029H0v257.2Z" class="g0_16"/>
<image clip-path="url(#c0_16)" preserveAspectRatio="none" x="6" y="1034" width="23" height="39" xlink:href="img/1.jpg"/>
<path d="M39,1247.2H308.2V148.8H39V1247.2Z" class="g1_16"/>
<path d="M603.5,528.3H909.4V147.2H603.5V528.3Z" class="g2_16"/>
<image clip-path="url(#c1_16)" preserveAspectRatio="none" x="601" y="147" width="617" height="381" xlink:href="img/2.jpg"/>
<path d="M39,528.3H589.7V147.2H39V528.3Z" class="g2_16"/>
<image clip-path="url(#c2_16)" preserveAspectRatio="none" x="39" y="147" width="551" height="381" xlink:href="img/3.jpg"/>
<image clip-path="url(#c3_16)" preserveAspectRatio="none" x="541" y="502" width="43" height="18" xlink:href="img/4.jpg"/>
<path clip-path="url(#c4_16)" d="M68.8,54.3h-30V84.4h30V54.3Z" class="g3_16"/>
<path d="M39,569.4H308.2v-2.3H39Z" class="g4_16"/>
<path d="M454,130.5c2,0,3.7,-1.7,3.7,-3.8c0,-2.1,-1.7,-3.8,-3.7,-3.8c-2.1,0,-3.8,1.7,-3.8,3.8c0,2.1,1.7,3.8,3.8,3.8Z" class="g5_16"/>
<path d="M454,130.5v.5c2.3,0,4.3,-1.9,4.3,-4.3c0,-2.4,-2,-4.3,-4.3,-4.3c-2.4,0,-4.4,1.9,-4.4,4.3c0,2.4,2,4.3,4.4,4.3v-1.1c-1.8,0,-3.3,-1.4,-3.3,-3.2c0,-1.8,1.5,-3.2,3.3,-3.2c1.7,0,3.2,1.4,3.2,3.2c0,1.8,-1.5,3.2,-3.2,3.2Z" class="g6_16"/>
<path d="M460.6,127.7h26.6v-1.6H460.6Z" class="g6_16"/>
<image clip-path="url(#c5_16)" preserveAspectRatio="none" x="469" y="104" width="13" height="17" xlink:href="img/5.jpg"/>
<path d="M494.4,130.5c2.1,0,3.8,-1.7,3.8,-3.8c0,-2.1,-1.7,-3.8,-3.8,-3.8c-2.1,0,-3.8,1.7,-3.8,3.8c0,2.1,1.7,3.8,3.8,3.8Z" class="g5_16"/>
<path d="M494.4,130.5v.5c2.4,0,4.3,-1.9,4.3,-4.3c0,-2.4,-1.9,-4.3,-4.3,-4.3c-2.4,0,-4.3,1.9,-4.3,4.3c0,2.4,1.9,4.3,4.3,4.3v-1.1c-1.8,0,-3.2,-1.4,-3.2,-3.2c0,-1.8,1.4,-3.2,3.2,-3.2c1.8,0,3.2,1.4,3.2,3.2c0,1.8,-1.4,3.2,-3.2,3.2Z" class="g6_16"/>
<path d="M501.8,127.7h26.6v-1.6H501.8Z" class="g6_16"/>
<image clip-path="url(#c6_16)" preserveAspectRatio="none" x="510" y="104" width="12" height="17" xlink:href="img/6.jpg"/>
<path d="M535.8,130.5c2.1,0,3.8,-1.7,3.8,-3.8c0,-2.1,-1.7,-3.8,-3.8,-3.8c-2.1,0,-3.8,1.7,-3.8,3.8c0,2.1,1.7,3.8,3.8,3.8Z" class="g5_16"/>
<path d="M535.8,130.5v.5c2.4,0,4.3,-1.9,4.3,-4.3c0,-2.4,-1.9,-4.3,-4.3,-4.3c-2.4,0,-4.3,1.9,-4.3,4.3c0,2.4,1.9,4.3,4.3,4.3v-1.1c-1.8,0,-3.2,-1.4,-3.2,-3.2c0,-1.8,1.4,-3.2,3.2,-3.2c1.8,0,3.2,1.4,3.2,3.2c0,1.8,-1.4,3.2,-3.2,3.2Z" class="g6_16"/>
<image clip-path="url(#c7_16)" preserveAspectRatio="none" x="549" y="104" width="13" height="17" xlink:href="img/7.jpg"/>
<path d="M542.8,127.7h24.6v-1.6H542.8Z" class="g6_16"/>
<path d="M634,130.5c2.1,0,3.8,-1.7,3.8,-3.8c0,-2.1,-1.7,-3.8,-3.8,-3.8c-2,0,-3.7,1.7,-3.7,3.8c0,2.1,1.7,3.8,3.7,3.8Z" class="g5_16"/>
<path d="M634,130.5v.5c2.4,0,4.4,-1.9,4.4,-4.3c0,-2.4,-2,-4.3,-4.4,-4.3c-2.3,0,-4.3,1.9,-4.3,4.3c0,2.4,2,4.3,4.3,4.3v-1.1c-1.7,0,-3.2,-1.4,-3.2,-3.2c0,-1.8,1.5,-3.2,3.2,-3.2c1.8,0,3.3,1.4,3.3,3.2c0,1.8,-1.5,3.2,-3.3,3.2Z" class="g6_16"/>
<image clip-path="url(#c8_16)" preserveAspectRatio="none" x="665" y="105" width="13" height="17" xlink:href="img/8.jpg"/>
<path d="M642.3,127.7h46.4v-1.6H642.3Z" class="g6_16"/>
<path d="M696.8,130.5c2.1,0,3.8,-1.7,3.8,-3.8c0,-2.1,-1.7,-3.8,-3.8,-3.8c-2.1,0,-3.8,1.7,-3.8,3.8c0,2.1,1.7,3.8,3.8,3.8Z" class="g5_16"/>
<path d="M696.8,130.5v.5c2.4,0,4.3,-1.9,4.3,-4.3c0,-2.4,-1.9,-4.3,-4.3,-4.3c-2.4,0,-4.3,1.9,-4.3,4.3c0,2.4,1.9,4.3,4.3,4.3v-1.1c-1.8,0,-3.2,-1.4,-3.2,-3.2c0,-1.8,1.4,-3.2,3.2,-3.2c1.8,0,3.2,1.4,3.2,3.2c0,1.8,-1.4,3.2,-3.2,3.2Z" class="g6_16"/>
<image clip-path="url(#c9_16)" preserveAspectRatio="none" x="716" y="105" width="12" height="17" xlink:href="img/9.jpg"/>
<path d="M705,127.7h55.1v-1.6H705Z" class="g6_16"/>
<path d="M767.4,130.5c2.1,0,3.8,-1.7,3.8,-3.8c0,-2.1,-1.7,-3.8,-3.8,-3.8c-2.1,0,-3.7,1.7,-3.7,3.8c0,2.1,1.6,3.8,3.7,3.8Z" class="g5_16"/>
<path d="M767.4,130.5v.5c2.4,0,4.4,-1.9,4.4,-4.3c0,-2.4,-2,-4.3,-4.4,-4.3c-2.4,0,-4.3,1.9,-4.3,4.3c0,2.4,1.9,4.3,4.3,4.3v-1.1c-1.7,0,-3.2,-1.4,-3.2,-3.2c0,-1.8,1.5,-3.2,3.2,-3.2c1.8,0,3.2,1.4,3.2,3.2c0,1.8,-1.4,3.2,-3.2,3.2Z" class="g6_16"/>
<path d="M574.7,130.5c2.1,0,3.8,-1.7,3.8,-3.8c0,-2.1,-1.7,-3.8,-3.8,-3.8c-2.1,0,-3.8,1.7,-3.8,3.8c0,2.1,1.7,3.8,3.8,3.8Z" class="g5_16"/>
<path d="M574.7,130.5v.5c2.4,0,4.3,-1.9,4.3,-4.3c0,-2.4,-1.9,-4.3,-4.3,-4.3c-2.4,0,-4.3,1.9,-4.3,4.3c0,2.4,1.9,4.3,4.3,4.3v-1.1c-1.8,0,-3.2,-1.4,-3.2,-3.2c0,-1.8,1.4,-3.2,3.2,-3.2c1.8,0,3.2,1.4,3.2,3.2c0,1.8,-1.4,3.2,-3.2,3.2Z" class="g6_16"/>
<image clip-path="url(#ca_16)" preserveAspectRatio="none" x="589" y="105" width="13" height="17" xlink:href="img/10.jpg"/>
<path d="M581.8,127.7h44.5v-1.6H581.8Z" class="g6_16"/>
<image clip-path="url(#cb_16)" preserveAspectRatio="none" x="804" y="105" width="12" height="17" xlink:href="img/11.jpg"/>
<image clip-path="url(#cc_16)" preserveAspectRatio="none" x="804" y="108" width="1" height="10" xlink:href="img/12.jpg"/>
<image clip-path="url(#cd_16)" preserveAspectRatio="none" x="804" y="108" width="1" height="10" xlink:href="img/13.jpg"/>
<path d="M774.7,127.7h63.1v-1.6H774.7Z" class="g6_16"/>
<path d="M846,130.5c2.1,0,3.7,-1.7,3.7,-3.8c0,-2.1,-1.6,-3.8,-3.7,-3.8c-2.1,0,-3.8,1.7,-3.8,3.8c0,2.1,1.7,3.8,3.8,3.8Z" class="g5_16"/>
<path d="M846,130.5v.5c2.4,0,4.3,-1.9,4.3,-4.3c0,-2.4,-1.9,-4.3,-4.3,-4.3c-2.4,0,-4.3,1.9,-4.3,4.3c0,2.4,1.9,4.3,4.3,4.3v-1.1c-1.8,0,-3.2,-1.4,-3.2,-3.2c0,-1.8,1.4,-3.2,3.2,-3.2c1.8,0,3.2,1.4,3.2,3.2c0,1.8,-1.4,3.2,-3.2,3.2Z" class="g6_16"/>
<path d="M42.8,938.4v0c.4,0,.7,-.3,.7,-.7c0,-.5,-.3,-.8,-.7,-.8c-.4,0,-.8,.3,-.8,.8c0,.4,.4,.7,.8,.7m3,0v0c.4,0,.8,-.3,.8,-.7c0,-.5,-.4,-.8,-.8,-.8c-.4,0,-.7,.3,-.7,.8c0,.4,.3,.7,.7,.7m3.1,0v0c.4,0,.7,-.3,.7,-.7c0,-.5,-.3,-.8,-.7,-.8c-.5,0,-.8,.3,-.8,.8c0,.4,.3,.7,.8,.7m3,0v0c.4,0,.8,-.3,.8,-.7c0,-.5,-.4,-.8,-.8,-.8c-.4,0,-.8,.3,-.8,.8c0,.4,.4,.7,.8,.7m3,0v0c.5,0,.8,-.3,.8,-.7c0,-.5,-.3,-.8,-.8,-.8c-.4,0,-.7,.3,-.7,.8c0,.4,.3,.7,.7,.7m3.1,0v0c.4,0,.8,-.3,.8,-.7c0,-.5,-.4,-.8,-.8,-.8c-.4,0,-.8,.3,-.8,.8c0,.4,.4,.7,.8,.7m3,0v0c.5,0,.8,-.3,.8,-.7c0,-.5,-.3,-.8,-.8,-.8c-.4,0,-.7,.3,-.7,.8c0,.4,.3,.7,.7,.7m3.1,0v0c.4,0,.7,-.3,.7,-.7c0,-.5,-.3,-.8,-.7,-.8c-.5,0,-.8,.3,-.8,.8c0,.4,.3,.7,.8,.7m3,0v0c.4,0,.8,-.3,.8,-.7c0,-.5,-.4,-.8,-.8,-.8c-.4,0,-.8,.3,-.8,.8c0,.4,.4,.7,.8,.7m3.1,0v0c.4,0,.7,-.3,.7,-.7c0,-.5,-.3,-.8,-.7,-.8c-.5,0,-.8,.3,-.8,.8c0,.4,.3,.7,.8,.7m3,0v0c.4,0,.8,-.3,.8,-.7c0,-.5,-.4,-.8,-.8,-.8c-.4,0,-.8,.3,-.8,.8c0,.4,.4,.7,.8,.7m3,0v0c.5,0,.8,-.3,.8,-.7c0,-.5,-.3,-.8,-.8,-.8c-.4,0,-.7,.3,-.7,.8c0,.4,.3,.7,.7,.7m3.1,0v0c.4,0,.7,-.3,.7,-.7c0,-.5,-.3,-.8,-.7,-.8c-.4,0,-.8,.3,-.8,.8c0,.4,.4,.7,.8,.7m3,0v0c.4,0,.8,-.3,.8,-.7c0,-.5,-.4,-.8,-.8,-.8c-.4,0,-.7,.3,-.7,.8c0,.4,.3,.7,.7,.7m3.1,0v0c.4,0,.7,-.3,.7,-.7c0,-.5,-.3,-.8,-.7,-.8c-.5,0,-.8,.3,-.8,.8c0,.4,.3,.7,.8,.7m3,0v0c.4,0,.8,-.3,.8,-.7c0,-.5,-.4,-.8,-.8,-.8c-.4,0,-.8,.3,-.8,.8c0,.4,.4,.7,.8,.7m3,0v0c.5,0,.8,-.3,.8,-.7c0,-.5,-.3,-.8,-.8,-.8c-.4,0,-.7,.3,-.7,.8c0,.4,.3,.7,.7,.7m3.1,0v0c.4,0,.7,-.3,.7,-.7c0,-.5,-.3,-.8,-.7,-.8c-.4,0,-.8,.3,-.8,.8c0,.4,.4,.7,.8,.7m3,0v0c.4,0,.8,-.3,.8,-.7c0,-.5,-.4,-.8,-.8,-.8c-.4,0,-.7,.3,-.7,.8c0,.4,.3,.7,.7,.7m3.1,0v0c.4,0,.7,-.3,.7,-.7c0,-.5,-.3,-.8,-.7,-.8c-.5,0,-.8,.3,-.8,.8c0,.4,.3,.7,.8,.7m3,0v0c.4,0,.8,-.3,.8,-.7c0,-.5,-.4,-.8,-.8,-.8c-.4,0,-.8,.3,-.8,.8c0,.4,.4,.7,.8,.7m3,0v0c.5,0,.8,-.3,.8,-.7c0,-.5,-.3,-.8,-.8,-.8c-.4,0,-.7,.3,-.7,.8c0,.4,.3,.7,.7,.7m3.1,0v0c.4,0,.8,-.3,.8,-.7c0,-.5,-.4,-.8,-.8,-.8c-.4,0,-.8,.3,-.8,.8c0,.4,.4,.7,.8,.7m3,0v0c.5,0,.8,-.3,.8,-.7c0,-.5,-.3,-.8,-.8,-.8c-.4,0,-.7,.3,-.7,.8c0,.4,.3,.7,.7,.7m3.1,0v0c.4,0,.7,-.3,.7,-.7c0,-.5,-.3,-.8,-.7,-.8c-.5,0,-.8,.3,-.8,.8c0,.4,.3,.7,.8,.7m3,0v0c.4,0,.8,-.3,.8,-.7c0,-.5,-.4,-.8,-.8,-.8c-.4,0,-.8,.3,-.8,.8c0,.4,.4,.7,.8,.7m3.1,0v0c.4,0,.7,-.3,.7,-.7c0,-.5,-.3,-.8,-.7,-.8c-.5,0,-.8,.3,-.8,.8c0,.4,.3,.7,.8,.7m3,0v0c.4,0,.8,-.3,.8,-.7c0,-.5,-.4,-.8,-.8,-.8c-.4,0,-.8,.3,-.8,.8c0,.4,.4,.7,.8,.7m3,0v0c.5,0,.8,-.3,.8,-.7c0,-.5,-.3,-.8,-.8,-.8c-.4,0,-.7,.3,-.7,.8c0,.4,.3,.7,.7,.7m3.1,0v0c.4,0,.7,-.3,.7,-.7c0,-.5,-.3,-.8,-.7,-.8c-.4,0,-.8,.3,-.8,.8c0,.4,.4,.7,.8,.7m3,0v0c.4,0,.8,-.3,.8,-.7c0,-.5,-.4,-.8,-.8,-.8c-.4,0,-.7,.3,-.7,.8c0,.4,.3,.7,.7,.7m3.1,0v0c.4,0,.7,-.3,.7,-.7c0,-.5,-.3,-.8,-.7,-.8c-.5,0,-.8,.3,-.8,.8c0,.4,.3,.7,.8,.7m3,0v0c.4,0,.8,-.3,.8,-.7c0,-.5,-.4,-.8,-.8,-.8c-.4,0,-.8,.3,-.8,.8c0,.4,.4,.7,.8,.7m3,0v0c.5,0,.8,-.3,.8,-.7c0,-.5,-.3,-.8,-.8,-.8c-.4,0,-.7,.3,-.7,.8c0,.4,.3,.7,.7,.7m3.1,0v0c.4,0,.7,-.3,.7,-.7c0,-.5,-.3,-.8,-.7,-.8c-.4,0,-.8,.3,-.8,.8c0,.4,.4,.7,.8,.7m3,0v0c.4,0,.8,-.3,.8,-.7c0,-.5,-.4,-.8,-.8,-.8c-.4,0,-.7,.3,-.7,.8c0,.4,.3,.7,.7,.7m3.1,0v0c.4,0,.7,-.3,.7,-.7c0,-.5,-.3,-.8,-.7,-.8c-.5,0,-.8,.3,-.8,.8c0,.4,.3,.7,.8,.7m3,0v0c.4,0,.8,-.3,.8,-.7c0,-.5,-.4,-.8,-.8,-.8c-.4,0,-.8,.3,-.8,.8c0,.4,.4,.7,.8,.7m3,0v0c.5,0,.8,-.3,.8,-.7c0,-.5,-.3,-.8,-.8,-.8c-.4,0,-.7,.3,-.7,.8c0,.4,.3,.7,.7,.7m3.1,0v0c.4,0,.8,-.3,.8,-.7c0,-.5,-.4,-.8,-.8,-.8c-.4,0,-.8,.3,-.8,.8c0,.4,.4,.7,.8,.7m3,0v0c.5,0,.8,-.3,.8,-.7c0,-.5,-.3,-.8,-.8,-.8c-.4,0,-.7,.3,-.7,.8c0,.4,.3,.7,.7,.7m3.1,0v0c.4,0,.7,-.3,.7,-.7c0,-.5,-.3,-.8,-.7,-.8c-.5,0,-.8,.3,-.8,.8c0,.4,.3,.7,.8,.7m3,0v0c.4,0,.8,-.3,.8,-.7c0,-.5,-.4,-.8,-.8,-.8c-.4,0,-.8,.3,-.8,.8c0,.4,.4,.7,.8,.7m3.1,0v0c.4,0,.7,-.3,.7,-.7c0,-.5,-.3,-.8,-.7,-.8c-.5,0,-.8,.3,-.8,.8c0,.4,.3,.7,.8,.7m3,0v0c.4,0,.8,-.3,.8,-.7c0,-.5,-.4,-.8,-.8,-.8c-.4,0,-.8,.3,-.8,.8c0,.4,.4,.7,.8,.7m3,0v0c.5,0,.8,-.3,.8,-.7c0,-.5,-.3,-.8,-.8,-.8c-.4,0,-.7,.3,-.7,.8c0,.4,.3,.7,.7,.7m3.1,0v0c.4,0,.7,-.3,.7,-.7c0,-.5,-.3,-.8,-.7,-.8c-.4,0,-.8,.3,-.8,.8c0,.4,.4,.7,.8,.7m3,0v0c.4,0,.8,-.3,.8,-.7c0,-.5,-.4,-.8,-.8,-.8c-.4,0,-.7,.3,-.7,.8c0,.4,.3,.7,.7,.7m3.1,0v0c.4,0,.7,-.3,.7,-.7c0,-.5,-.3,-.8,-.7,-.8c-.5,0,-.8,.3,-.8,.8c0,.4,.3,.7,.8,.7m3,0v0c.4,0,.8,-.3,.8,-.7c0,-.5,-.4,-.8,-.8,-.8c-.4,0,-.8,.3,-.8,.8c0,.4,.4,.7,.8,.7m3,0v0c.5,0,.8,-.3,.8,-.7c0,-.5,-.3,-.8,-.8,-.8c-.4,0,-.7,.3,-.7,.8c0,.4,.3,.7,.7,.7m3.1,0v0c.4,0,.7,-.3,.7,-.7c0,-.5,-.3,-.8,-.7,-.8c-.4,0,-.8,.3,-.8,.8c0,.4,.4,.7,.8,.7m3,0v0c.4,0,.8,-.3,.8,-.7c0,-.5,-.4,-.8,-.8,-.8c-.4,0,-.7,.3,-.7,.8c0,.4,.3,.7,.7,.7m3.1,0v0c.4,0,.7,-.3,.7,-.7c0,-.5,-.3,-.8,-.7,-.8c-.5,0,-.8,.3,-.8,.8c0,.4,.3,.7,.8,.7m3,0v0c.4,0,.8,-.3,.8,-.7c0,-.5,-.4,-.8,-.8,-.8c-.4,0,-.8,.3,-.8,.8c0,.4,.4,.7,.8,.7m3,0v0c.5,0,.8,-.3,.8,-.7c0,-.5,-.3,-.8,-.8,-.8c-.4,0,-.7,.3,-.7,.8c0,.4,.3,.7,.7,.7m3.1,0v0c.4,0,.8,-.3,.8,-.7c0,-.5,-.4,-.8,-.8,-.8c-.4,0,-.8,.3,-.8,.8c0,.4,.4,.7,.8,.7m3,0v0c.5,0,.8,-.3,.8,-.7c0,-.5,-.3,-.8,-.8,-.8c-.4,0,-.7,.3,-.7,.8c0,.4,.3,.7,.7,.7m3.1,0v0c.4,0,.7,-.3,.7,-.7c0,-.5,-.3,-.8,-.7,-.8c-.5,0,-.8,.3,-.8,.8c0,.4,.3,.7,.8,.7m3,0v0c.4,0,.8,-.3,.8,-.7c0,-.5,-.4,-.8,-.8,-.8c-.4,0,-.8,.3,-.8,.8c0,.4,.4,.7,.8,.7m3.1,0v0c.4,0,.7,-.3,.7,-.7c0,-.5,-.3,-.8,-.7,-.8c-.5,0,-.8,.3,-.8,.8c0,.4,.3,.7,.8,.7m3,0v0c.4,0,.8,-.3,.8,-.7c0,-.5,-.4,-.8,-.8,-.8c-.4,0,-.8,.3,-.8,.8c0,.4,.4,.7,.8,.7m3,0v0c.5,0,.8,-.3,.8,-.7c0,-.5,-.3,-.8,-.8,-.8c-.4,0,-.7,.3,-.7,.8c0,.4,.3,.7,.7,.7m3.1,0v0c.4,0,.7,-.3,.7,-.7c0,-.5,-.3,-.8,-.7,-.8c-.4,0,-.8,.3,-.8,.8c0,.4,.4,.7,.8,.7m3,0v0c.4,0,.8,-.3,.8,-.7c0,-.5,-.4,-.8,-.8,-.8c-.4,0,-.7,.3,-.7,.8c0,.4,.3,.7,.7,.7m3.1,0v0c.4,0,.7,-.3,.7,-.7c0,-.5,-.3,-.8,-.7,-.8c-.5,0,-.8,.3,-.8,.8c0,.4,.3,.7,.8,.7m3,0v0c.4,0,.8,-.3,.8,-.7c0,-.5,-.4,-.8,-.8,-.8c-.4,0,-.8,.3,-.8,.8c0,.4,.4,.7,.8,.7m3,0v0c.5,0,.8,-.3,.8,-.7c0,-.5,-.3,-.8,-.8,-.8c-.4,0,-.7,.3,-.7,.8c0,.4,.3,.7,.7,.7m3.1,0v0c.4,0,.7,-.3,.7,-.7c0,-.5,-.3,-.8,-.7,-.8c-.4,0,-.8,.3,-.8,.8c0,.4,.4,.7,.8,.7m3,0v0c.4,0,.8,-.3,.8,-.7c0,-.5,-.4,-.8,-.8,-.8c-.4,0,-.7,.3,-.7,.8c0,.4,.3,.7,.7,.7m3.1,0v0c.4,0,.7,-.3,.7,-.7c0,-.5,-.3,-.8,-.7,-.8c-.5,0,-.8,.3,-.8,.8c0,.4,.3,.7,.8,.7m3,0v0c.4,0,.8,-.3,.8,-.7c0,-.5,-.4,-.8,-.8,-.8c-.4,0,-.8,.3,-.8,.8c0,.4,.4,.7,.8,.7m3,0v0c.5,0,.8,-.3,.8,-.7c0,-.5,-.3,-.8,-.8,-.8c-.4,0,-.7,.3,-.7,.8c0,.4,.3,.7,.7,.7m3.1,0v0c.4,0,.8,-.3,.8,-.7c0,-.5,-.4,-.8,-.8,-.8c-.4,0,-.8,.3,-.8,.8c0,.4,.4,.7,.8,.7m3,0v0c.5,0,.8,-.3,.8,-.7c0,-.5,-.3,-.8,-.8,-.8c-.4,0,-.7,.3,-.7,.8c0,.4,.3,.7,.7,.7m3.1,0v0c.4,0,.7,-.3,.7,-.7c0,-.5,-.3,-.8,-.7,-.8c-.5,0,-.8,.3,-.8,.8c0,.4,.3,.7,.8,.7m3,0v0c.4,0,.8,-.3,.8,-.7c0,-.5,-.4,-.8,-.8,-.8c-.4,0,-.8,.3,-.8,.8c0,.4,.4,.7,.8,.7m3.1,0v0c.4,0,.7,-.3,.7,-.7c0,-.5,-.3,-.8,-.7,-.8c-.5,0,-.8,.3,-.8,.8c0,.4,.3,.7,.8,.7m3,0v0c.4,0,.8,-.3,.8,-.7c0,-.5,-.4,-.8,-.8,-.8c-.4,0,-.8,.3,-.8,.8c0,.4,.4,.7,.8,.7m3,0v0c.5,0,.8,-.3,.8,-.7c0,-.5,-.3,-.8,-.8,-.8c-.4,0,-.7,.3,-.7,.8c0,.4,.3,.7,.7,.7m3.1,0v0c.4,0,.7,-.3,.7,-.7c0,-.5,-.3,-.8,-.7,-.8c-.4,0,-.8,.3,-.8,.8c0,.4,.4,.7,.8,.7m3,0v0c.4,0,.8,-.3,.8,-.7c0,-.5,-.4,-.8,-.8,-.8c-.4,0,-.7,.3,-.7,.8c0,.4,.3,.7,.7,.7m3.1,0v0c.4,0,.7,-.3,.7,-.7c0,-.5,-.3,-.8,-.7,-.8c-.5,0,-.8,.3,-.8,.8c0,.4,.3,.7,.8,.7m3,0v0c.4,0,.8,-.3,.8,-.7c0,-.5,-.4,-.8,-.8,-.8c-.4,0,-.8,.3,-.8,.8c0,.4,.4,.7,.8,.7m3,0v0c.5,0,.8,-.3,.8,-.7c0,-.5,-.3,-.8,-.8,-.8c-.4,0,-.7,.3,-.7,.8c0,.4,.3,.7,.7,.7m3.1,0v0c.4,0,.7,-.3,.7,-.7c0,-.5,-.3,-.8,-.7,-.8c-.4,0,-.8,.3,-.8,.8c0,.4,.4,.7,.8,.7m3,0v0c.4,0,.8,-.3,.8,-.7c0,-.5,-.4,-.8,-.8,-.8c-.4,0,-.7,.3,-.7,.8c0,.4,.3,.7,.7,.7Z" class="g4_16"/>
<path d="M39.7,938.4c.2,0,.4,-.1,.6,-.2c.1,-.1,.2,-.3,.2,-.5c0,-.2,-.1,-.4,-.2,-.6c-.2,-.1,-.4,-.2,-.6,-.2c-.2,0,-.4,.1,-.5,.2c-.1,.2,-.2,.4,-.2,.6c0,.2,.1,.4,.2,.5c.1,.1,.3,.2,.5,.2m267.7,0c.2,0,.4,-.1,.5,-.2c.1,-.1,.2,-.3,.2,-.5c0,-.2,-.1,-.4,-.2,-.6c-.1,-.1,-.3,-.2,-.5,-.2c-.2,0,-.4,.1,-.6,.2c-.1,.2,-.2,.4,-.2,.6c0,.2,.1,.4,.2,.5c.2,.1,.4,.2,.6,.2Z" class="g4_16"/>
<path d="M39,961.2H308.1v-1.5H39Z" class="g4_16"/>
<path d="M39,739.5H308.1v-2.3H39Z" class="g4_16"/>
<path d="M40.9,1053.9v0c.2,0,.4,-.2,.4,-.4c0,-.2,-.2,-.4,-.4,-.4c-.2,0,-.4,.2,-.4,.4c0,.2,.2,.4,.4,.4m1.5,0v0c.2,0,.4,-.2,.4,-.4c0,-.2,-.2,-.4,-.4,-.4c-.2,0,-.4,.2,-.4,.4c0,.2,.2,.4,.4,.4m1.5,0v0c.2,0,.4,-.2,.4,-.4c0,-.2,-.2,-.4,-.4,-.4c-.2,0,-.3,.2,-.3,.4c0,.2,.1,.4,.3,.4m1.6,0v0c.2,0,.3,-.2,.3,-.4c0,-.2,-.1,-.4,-.3,-.4c-.3,0,-.4,.2,-.4,.4c0,.2,.1,.4,.4,.4m1.5,0v0c.2,0,.4,-.2,.4,-.4c0,-.2,-.2,-.4,-.4,-.4c-.2,0,-.4,.2,-.4,.4c0,.2,.2,.4,.4,.4m1.5,0v0c.2,0,.4,-.2,.4,-.4c0,-.2,-.2,-.4,-.4,-.4c-.2,0,-.4,.2,-.4,.4c0,.2,.2,.4,.4,.4m1.5,0v0c.2,0,.4,-.2,.4,-.4c0,-.2,-.2,-.4,-.4,-.4c-.2,0,-.3,.2,-.3,.4c0,.2,.1,.4,.3,.4m1.6,0v0c.2,0,.3,-.2,.3,-.4c0,-.2,-.1,-.4,-.3,-.4c-.3,0,-.4,.2,-.4,.4c0,.2,.1,.4,.4,.4m1.5,0v0c.2,0,.4,-.2,.4,-.4c0,-.2,-.2,-.4,-.4,-.4c-.2,0,-.4,.2,-.4,.4c0,.2,.2,.4,.4,.4m1.5,0v0c.2,0,.4,-.2,.4,-.4c0,-.2,-.2,-.4,-.4,-.4c-.2,0,-.4,.2,-.4,.4c0,.2,.2,.4,.4,.4m1.5,0v0c.2,0,.4,-.2,.4,-.4c0,-.2,-.2,-.4,-.4,-.4c-.2,0,-.3,.2,-.3,.4c0,.2,.1,.4,.3,.4m1.6,0v0c.2,0,.3,-.2,.3,-.4c0,-.2,-.1,-.4,-.3,-.4c-.3,0,-.4,.2,-.4,.4c0,.2,.1,.4,.4,.4m1.5,0v0c.2,0,.4,-.2,.4,-.4c0,-.2,-.2,-.4,-.4,-.4c-.2,0,-.4,.2,-.4,.4c0,.2,.2,.4,.4,.4m1.5,0v0c.2,0,.4,-.2,.4,-.4c0,-.2,-.2,-.4,-.4,-.4c-.2,0,-.4,.2,-.4,.4c0,.2,.2,.4,.4,.4m1.5,0v0c.2,0,.4,-.2,.4,-.4c0,-.2,-.2,-.4,-.4,-.4c-.2,0,-.3,.2,-.3,.4c0,.2,.1,.4,.3,.4m1.6,0v0c.2,0,.3,-.2,.3,-.4c0,-.2,-.1,-.4,-.3,-.4c-.3,0,-.4,.2,-.4,.4c0,.2,.1,.4,.4,.4m1.5,0v0c.2,0,.4,-.2,.4,-.4c0,-.2,-.2,-.4,-.4,-.4c-.2,0,-.4,.2,-.4,.4c0,.2,.2,.4,.4,.4m1.5,0v0c.2,0,.4,-.2,.4,-.4c0,-.2,-.2,-.4,-.4,-.4c-.2,0,-.4,.2,-.4,.4c0,.2,.2,.4,.4,.4m1.5,0v0c.2,0,.4,-.2,.4,-.4c0,-.2,-.2,-.4,-.4,-.4c-.2,0,-.3,.2,-.3,.4c0,.2,.1,.4,.3,.4m1.6,0v0c.2,0,.3,-.2,.3,-.4c0,-.2,-.1,-.4,-.3,-.4c-.3,0,-.4,.2,-.4,.4c0,.2,.1,.4,.4,.4m1.5,0v0c.2,0,.4,-.2,.4,-.4c0,-.2,-.2,-.4,-.4,-.4c-.2,0,-.4,.2,-.4,.4c0,.2,.2,.4,.4,.4m1.5,0v0c.2,0,.4,-.2,.4,-.4c0,-.2,-.2,-.4,-.4,-.4c-.2,0,-.4,.2,-.4,.4c0,.2,.2,.4,.4,.4m1.5,0v0c.2,0,.4,-.2,.4,-.4c0,-.2,-.2,-.4,-.4,-.4c-.2,0,-.3,.2,-.3,.4c0,.2,.1,.4,.3,.4m1.6,0v0c.2,0,.3,-.2,.3,-.4c0,-.2,-.1,-.4,-.3,-.4c-.3,0,-.4,.2,-.4,.4c0,.2,.1,.4,.4,.4m1.5,0v0c.2,0,.4,-.2,.4,-.4c0,-.2,-.2,-.4,-.4,-.4c-.2,0,-.4,.2,-.4,.4c0,.2,.2,.4,.4,.4m1.5,0v0c.2,0,.4,-.2,.4,-.4c0,-.2,-.2,-.4,-.4,-.4c-.2,0,-.4,.2,-.4,.4c0,.2,.2,.4,.4,.4m1.5,0v0c.2,0,.4,-.2,.4,-.4c0,-.2,-.2,-.4,-.4,-.4c-.2,0,-.3,.2,-.3,.4c0,.2,.1,.4,.3,.4m1.6,0v0c.2,0,.3,-.2,.3,-.4c0,-.2,-.1,-.4,-.3,-.4c-.3,0,-.4,.2,-.4,.4c0,.2,.1,.4,.4,.4m1.5,0v0c.2,0,.4,-.2,.4,-.4c0,-.2,-.2,-.4,-.4,-.4c-.2,0,-.4,.2,-.4,.4c0,.2,.2,.4,.4,.4m1.5,0v0c.2,0,.4,-.2,.4,-.4c0,-.2,-.2,-.4,-.4,-.4c-.2,0,-.4,.2,-.4,.4c0,.2,.2,.4,.4,.4m1.5,0v0c.2,0,.4,-.2,.4,-.4c0,-.2,-.2,-.4,-.4,-.4c-.2,0,-.3,.2,-.3,.4c0,.2,.1,.4,.3,.4m1.6,0v0c.2,0,.3,-.2,.3,-.4c0,-.2,-.1,-.4,-.3,-.4c-.3,0,-.4,.2,-.4,.4c0,.2,.1,.4,.4,.4m1.5,0v0c.2,0,.4,-.2,.4,-.4c0,-.2,-.2,-.4,-.4,-.4c-.2,0,-.4,.2,-.4,.4c0,.2,.2,.4,.4,.4m1.5,0v0c.2,0,.4,-.2,.4,-.4c0,-.2,-.2,-.4,-.4,-.4c-.2,0,-.4,.2,-.4,.4c0,.2,.2,.4,.4,.4m1.5,0v0c.2,0,.4,-.2,.4,-.4c0,-.2,-.2,-.4,-.4,-.4c-.2,0,-.3,.2,-.3,.4c0,.2,.1,.4,.3,.4m1.6,0v0c.2,0,.3,-.2,.3,-.4c0,-.2,-.1,-.4,-.3,-.4c-.3,0,-.4,.2,-.4,.4c0,.2,.1,.4,.4,.4m1.5,0v0c.2,0,.4,-.2,.4,-.4c0,-.2,-.2,-.4,-.4,-.4c-.2,0,-.4,.2,-.4,.4c0,.2,.2,.4,.4,.4m1.5,0v0c.2,0,.4,-.2,.4,-.4c0,-.2,-.2,-.4,-.4,-.4c-.2,0,-.4,.2,-.4,.4c0,.2,.2,.4,.4,.4m1.5,0v0c.2,0,.4,-.2,.4,-.4c0,-.2,-.2,-.4,-.4,-.4c-.2,0,-.3,.2,-.3,.4c0,.2,.1,.4,.3,.4m1.6,0v0c.2,0,.3,-.2,.3,-.4c0,-.2,-.1,-.4,-.3,-.4c-.3,0,-.4,.2,-.4,.4c0,.2,.1,.4,.4,.4m1.5,0v0c.2,0,.4,-.2,.4,-.4c0,-.2,-.2,-.4,-.4,-.4c-.2,0,-.4,.2,-.4,.4c0,.2,.2,.4,.4,.4m1.5,0v0c.2,0,.4,-.2,.4,-.4c0,-.2,-.2,-.4,-.4,-.4c-.2,0,-.4,.2,-.4,.4c0,.2,.2,.4,.4,.4m1.5,0v0c.2,0,.4,-.2,.4,-.4c0,-.2,-.2,-.4,-.4,-.4c-.2,0,-.3,.2,-.3,.4c0,.2,.1,.4,.3,.4m1.6,0v0c.2,0,.3,-.2,.3,-.4c0,-.2,-.1,-.4,-.3,-.4c-.3,0,-.4,.2,-.4,.4c0,.2,.1,.4,.4,.4m1.5,0v0c.2,0,.4,-.2,.4,-.4c0,-.2,-.2,-.4,-.4,-.4c-.2,0,-.4,.2,-.4,.4c0,.2,.2,.4,.4,.4m1.5,0v0c.2,0,.4,-.2,.4,-.4c0,-.2,-.2,-.4,-.4,-.4c-.2,0,-.4,.2,-.4,.4c0,.2,.2,.4,.4,.4m1.5,0v0c.2,0,.4,-.2,.4,-.4c0,-.2,-.2,-.4,-.4,-.4c-.2,0,-.3,.2,-.3,.4c0,.2,.1,.4,.3,.4m1.6,0v0c.2,0,.3,-.2,.3,-.4c0,-.2,-.1,-.4,-.3,-.4c-.3,0,-.4,.2,-.4,.4c0,.2,.1,.4,.4,.4m1.5,0v0c.2,0,.4,-.2,.4,-.4c0,-.2,-.2,-.4,-.4,-.4c-.2,0,-.4,.2,-.4,.4c0,.2,.2,.4,.4,.4m1.5,0v0c.2,0,.4,-.2,.4,-.4c0,-.2,-.2,-.4,-.4,-.4c-.2,0,-.4,.2,-.4,.4c0,.2,.2,.4,.4,.4m1.5,0v0c.2,0,.4,-.2,.4,-.4c0,-.2,-.2,-.4,-.4,-.4c-.2,0,-.3,.2,-.3,.4c0,.2,.1,.4,.3,.4m1.6,0v0c.2,0,.3,-.2,.3,-.4c0,-.2,-.1,-.4,-.3,-.4c-.3,0,-.4,.2,-.4,.4c0,.2,.1,.4,.4,.4m1.5,0v0c.2,0,.4,-.2,.4,-.4c0,-.2,-.2,-.4,-.4,-.4c-.2,0,-.4,.2,-.4,.4c0,.2,.2,.4,.4,.4m1.5,0v0c.2,0,.4,-.2,.4,-.4c0,-.2,-.2,-.4,-.4,-.4c-.2,0,-.4,.2,-.4,.4c0,.2,.2,.4,.4,.4m1.5,0v0c.2,0,.4,-.2,.4,-.4c0,-.2,-.2,-.4,-.4,-.4c-.2,0,-.3,.2,-.3,.4c0,.2,.1,.4,.3,.4m1.6,0v0c.2,0,.3,-.2,.3,-.4c0,-.2,-.1,-.4,-.3,-.4c-.3,0,-.4,.2,-.4,.4c0,.2,.1,.4,.4,.4m1.5,0v0c.2,0,.4,-.2,.4,-.4c0,-.2,-.2,-.4,-.4,-.4c-.2,0,-.4,.2,-.4,.4c0,.2,.2,.4,.4,.4m1.5,0v0c.2,0,.4,-.2,.4,-.4c0,-.2,-.2,-.4,-.4,-.4c-.2,0,-.4,.2,-.4,.4c0,.2,.2,.4,.4,.4m1.5,0v0c.2,0,.4,-.2,.4,-.4c0,-.2,-.2,-.4,-.4,-.4c-.2,0,-.3,.2,-.3,.4c0,.2,.1,.4,.3,.4m1.6,0v0c.2,0,.3,-.2,.3,-.4c0,-.2,-.1,-.4,-.3,-.4c-.3,0,-.4,.2,-.4,.4c0,.2,.1,.4,.4,.4m1.5,0v0c.2,0,.4,-.2,.4,-.4c0,-.2,-.2,-.4,-.4,-.4c-.2,0,-.4,.2,-.4,.4c0,.2,.2,.4,.4,.4m1.5,0v0c.2,0,.4,-.2,.4,-.4c0,-.2,-.2,-.4,-.4,-.4c-.2,0,-.4,.2,-.4,.4c0,.2,.2,.4,.4,.4m1.5,0v0c.2,0,.4,-.2,.4,-.4c0,-.2,-.2,-.4,-.4,-.4c-.2,0,-.3,.2,-.3,.4c0,.2,.1,.4,.3,.4m1.6,0v0c.2,0,.3,-.2,.3,-.4c0,-.2,-.1,-.4,-.3,-.4c-.3,0,-.4,.2,-.4,.4c0,.2,.1,.4,.4,.4m1.5,0v0c.2,0,.4,-.2,.4,-.4c0,-.2,-.2,-.4,-.4,-.4c-.2,0,-.4,.2,-.4,.4c0,.2,.2,.4,.4,.4m1.5,0v0c.2,0,.4,-.2,.4,-.4c0,-.2,-.2,-.4,-.4,-.4c-.2,0,-.4,.2,-.4,.4c0,.2,.2,.4,.4,.4m1.5,0v0c.2,0,.4,-.2,.4,-.4c0,-.2,-.2,-.4,-.4,-.4c-.2,0,-.3,.2,-.3,.4c0,.2,.1,.4,.3,.4m1.6,0v0c.2,0,.3,-.2,.3,-.4c0,-.2,-.1,-.4,-.3,-.4c-.3,0,-.4,.2,-.4,.4c0,.2,.1,.4,.4,.4m1.5,0v0c.2,0,.4,-.2,.4,-.4c0,-.2,-.2,-.4,-.4,-.4c-.2,0,-.4,.2,-.4,.4c0,.2,.2,.4,.4,.4m1.5,0v0c.2,0,.4,-.2,.4,-.4c0,-.2,-.2,-.4,-.4,-.4c-.2,0,-.4,.2,-.4,.4c0,.2,.2,.4,.4,.4m1.5,0v0c.2,0,.4,-.2,.4,-.4c0,-.2,-.2,-.4,-.4,-.4c-.2,0,-.3,.2,-.3,.4c0,.2,.1,.4,.3,.4m1.6,0v0c.2,0,.3,-.2,.3,-.4c0,-.2,-.1,-.4,-.3,-.4c-.3,0,-.4,.2,-.4,.4c0,.2,.1,.4,.4,.4m1.5,0v0c.2,0,.4,-.2,.4,-.4c0,-.2,-.2,-.4,-.4,-.4c-.2,0,-.4,.2,-.4,.4c0,.2,.2,.4,.4,.4m1.5,0v0c.2,0,.4,-.2,.4,-.4c0,-.2,-.2,-.4,-.4,-.4c-.2,0,-.4,.2,-.4,.4c0,.2,.2,.4,.4,.4m1.5,0v0c.2,0,.4,-.2,.4,-.4c0,-.2,-.2,-.4,-.4,-.4c-.2,0,-.3,.2,-.3,.4c0,.2,.1,.4,.3,.4m1.6,0v0c.2,0,.3,-.2,.3,-.4c0,-.2,-.1,-.4,-.3,-.4c-.3,0,-.4,.2,-.4,.4c0,.2,.1,.4,.4,.4m1.5,0v0c.2,0,.4,-.2,.4,-.4c0,-.2,-.2,-.4,-.4,-.4c-.2,0,-.4,.2,-.4,.4c0,.2,.2,.4,.4,.4m1.5,0v0c.2,0,.4,-.2,.4,-.4c0,-.2,-.2,-.4,-.4,-.4c-.2,0,-.4,.2,-.4,.4c0,.2,.2,.4,.4,.4m1.5,0v0c.2,0,.4,-.2,.4,-.4c0,-.2,-.2,-.4,-.4,-.4c-.2,0,-.3,.2,-.3,.4c0,.2,.1,.4,.3,.4m1.6,0v0c.2,0,.3,-.2,.3,-.4c0,-.2,-.1,-.4,-.3,-.4c-.3,0,-.4,.2,-.4,.4c0,.2,.1,.4,.4,.4m1.5,0v0c.2,0,.4,-.2,.4,-.4c0,-.2,-.2,-.4,-.4,-.4c-.2,0,-.4,.2,-.4,.4c0,.2,.2,.4,.4,.4m1.5,0v0c.2,0,.4,-.2,.4,-.4c0,-.2,-.2,-.4,-.4,-.4c-.2,0,-.4,.2,-.4,.4c0,.2,.2,.4,.4,.4m1.5,0v0c.2,0,.4,-.2,.4,-.4c0,-.2,-.2,-.4,-.4,-.4c-.2,0,-.3,.2,-.3,.4c0,.2,.1,.4,.3,.4m1.6,0v0c.2,0,.3,-.2,.3,-.4c0,-.2,-.1,-.4,-.3,-.4c-.3,0,-.4,.2,-.4,.4c0,.2,.1,.4,.4,.4m1.5,0v0c.2,0,.4,-.2,.4,-.4c0,-.2,-.2,-.4,-.4,-.4c-.2,0,-.4,.2,-.4,.4c0,.2,.2,.4,.4,.4m1.5,0v0c.2,0,.4,-.2,.4,-.4c0,-.2,-.2,-.4,-.4,-.4c-.2,0,-.4,.2,-.4,.4c0,.2,.2,.4,.4,.4m1.5,0v0c.2,0,.4,-.2,.4,-.4c0,-.2,-.2,-.4,-.4,-.4c-.2,0,-.3,.2,-.3,.4c0,.2,.1,.4,.3,.4m1.6,0v0c.2,0,.3,-.2,.3,-.4c0,-.2,-.1,-.4,-.3,-.4c-.3,0,-.4,.2,-.4,.4c0,.2,.1,.4,.4,.4m1.5,0v0c.2,0,.4,-.2,.4,-.4c0,-.2,-.2,-.4,-.4,-.4c-.2,0,-.4,.2,-.4,.4c0,.2,.2,.4,.4,.4m1.5,0v0c.2,0,.4,-.2,.4,-.4c0,-.2,-.2,-.4,-.4,-.4c-.2,0,-.4,.2,-.4,.4c0,.2,.2,.4,.4,.4m1.5,0v0c.2,0,.4,-.2,.4,-.4c0,-.2,-.2,-.4,-.4,-.4c-.2,0,-.3,.2,-.3,.4c0,.2,.1,.4,.3,.4m1.6,0v0c.2,0,.3,-.2,.3,-.4c0,-.2,-.1,-.4,-.3,-.4c-.3,0,-.4,.2,-.4,.4c0,.2,.1,.4,.4,.4m1.5,0v0c.2,0,.4,-.2,.4,-.4c0,-.2,-.2,-.4,-.4,-.4c-.2,0,-.4,.2,-.4,.4c0,.2,.2,.4,.4,.4m1.5,0v0c.2,0,.4,-.2,.4,-.4c0,-.2,-.2,-.4,-.4,-.4c-.2,0,-.4,.2,-.4,.4c0,.2,.2,.4,.4,.4m1.5,0v0c.2,0,.4,-.2,.4,-.4c0,-.2,-.2,-.4,-.4,-.4c-.2,0,-.3,.2,-.3,.4c0,.2,.1,.4,.3,.4m1.6,0v0c.2,0,.3,-.2,.3,-.4c0,-.2,-.1,-.4,-.3,-.4c-.3,0,-.4,.2,-.4,.4c0,.2,.1,.4,.4,.4m1.5,0v0c.2,0,.4,-.2,.4,-.4c0,-.2,-.2,-.4,-.4,-.4c-.2,0,-.4,.2,-.4,.4c0,.2,.2,.4,.4,.4m1.5,0v0c.2,0,.4,-.2,.4,-.4c0,-.2,-.2,-.4,-.4,-.4c-.2,0,-.4,.2,-.4,.4c0,.2,.2,.4,.4,.4m1.5,0v0c.2,0,.4,-.2,.4,-.4c0,-.2,-.2,-.4,-.4,-.4c-.2,0,-.3,.2,-.3,.4c0,.2,.1,.4,.3,.4m1.6,0v0c.2,0,.3,-.2,.3,-.4c0,-.2,-.1,-.4,-.3,-.4c-.3,0,-.4,.2,-.4,.4c0,.2,.1,.4,.4,.4m1.5,0v0c.2,0,.4,-.2,.4,-.4c0,-.2,-.2,-.4,-.4,-.4c-.2,0,-.4,.2,-.4,.4c0,.2,.2,.4,.4,.4m1.5,0v0c.2,0,.4,-.2,.4,-.4c0,-.2,-.2,-.4,-.4,-.4c-.2,0,-.4,.2,-.4,.4c0,.2,.2,.4,.4,.4m1.5,0v0c.2,0,.4,-.2,.4,-.4c0,-.2,-.2,-.4,-.4,-.4c-.2,0,-.3,.2,-.3,.4c0,.2,.1,.4,.3,.4m1.6,0v0c.2,0,.3,-.2,.3,-.4c0,-.2,-.1,-.4,-.3,-.4c-.3,0,-.4,.2,-.4,.4c0,.2,.1,.4,.4,.4m1.5,0v0c.2,0,.4,-.2,.4,-.4c0,-.2,-.2,-.4,-.4,-.4c-.2,0,-.4,.2,-.4,.4c0,.2,.2,.4,.4,.4m1.5,0v0c.2,0,.4,-.2,.4,-.4c0,-.2,-.2,-.4,-.4,-.4c-.2,0,-.4,.2,-.4,.4c0,.2,.2,.4,.4,.4m1.5,0v0c.2,0,.4,-.2,.4,-.4c0,-.2,-.2,-.4,-.4,-.4c-.2,0,-.3,.2,-.3,.4c0,.2,.1,.4,.3,.4m1.6,0v0c.2,0,.3,-.2,.3,-.4c0,-.2,-.1,-.4,-.3,-.4c-.3,0,-.4,.2,-.4,.4c0,.2,.1,.4,.4,.4m1.5,0v0c.2,0,.4,-.2,.4,-.4c0,-.2,-.2,-.4,-.4,-.4c-.2,0,-.4,.2,-.4,.4c0,.2,.2,.4,.4,.4m1.5,0v0c.2,0,.4,-.2,.4,-.4c0,-.2,-.2,-.4,-.4,-.4c-.2,0,-.4,.2,-.4,.4c0,.2,.2,.4,.4,.4m1.5,0v0c.2,0,.4,-.2,.4,-.4c0,-.2,-.2,-.4,-.4,-.4c-.2,0,-.4,.2,-.4,.4c0,.2,.2,.4,.4,.4m1.6,0v0c.2,0,.3,-.2,.3,-.4c0,-.2,-.1,-.4,-.3,-.4c-.3,0,-.4,.2,-.4,.4c0,.2,.1,.4,.4,.4m1.5,0v0c.2,0,.4,-.2,.4,-.4c0,-.2,-.2,-.4,-.4,-.4c-.2,0,-.4,.2,-.4,.4c0,.2,.2,.4,.4,.4m1.5,0v0c.2,0,.4,-.2,.4,-.4c0,-.2,-.2,-.4,-.4,-.4c-.2,0,-.4,.2,-.4,.4c0,.2,.2,.4,.4,.4m1.5,0v0c.2,0,.4,-.2,.4,-.4c0,-.2,-.2,-.4,-.4,-.4c-.2,0,-.3,.2,-.3,.4c0,.2,.1,.4,.3,.4m1.6,0v0c.2,0,.3,-.2,.3,-.4c0,-.2,-.1,-.4,-.3,-.4c-.3,0,-.4,.2,-.4,.4c0,.2,.1,.4,.4,.4m1.5,0v0c.2,0,.4,-.2,.4,-.4c0,-.2,-.2,-.4,-.4,-.4c-.2,0,-.4,.2,-.4,.4c0,.2,.2,.4,.4,.4m1.5,0v0c.2,0,.4,-.2,.4,-.4c0,-.2,-.2,-.4,-.4,-.4c-.2,0,-.4,.2,-.4,.4c0,.2,.2,.4,.4,.4m1.5,0v0c.2,0,.4,-.2,.4,-.4c0,-.2,-.2,-.4,-.4,-.4c-.2,0,-.3,.2,-.3,.4c0,.2,.1,.4,.3,.4m1.6,0v0c.2,0,.3,-.2,.3,-.4c0,-.2,-.1,-.4,-.3,-.4c-.3,0,-.4,.2,-.4,.4c0,.2,.1,.4,.4,.4m1.5,0v0c.2,0,.4,-.2,.4,-.4c0,-.2,-.2,-.4,-.4,-.4c-.2,0,-.4,.2,-.4,.4c0,.2,.2,.4,.4,.4m1.5,0v0c.2,0,.4,-.2,.4,-.4c0,-.2,-.2,-.4,-.4,-.4c-.2,0,-.4,.2,-.4,.4c0,.2,.2,.4,.4,.4m1.5,0v0c.2,0,.4,-.2,.4,-.4c0,-.2,-.2,-.4,-.4,-.4c-.2,0,-.3,.2,-.3,.4c0,.2,.1,.4,.3,.4m1.6,0v0c.2,0,.3,-.2,.3,-.4c0,-.2,-.1,-.4,-.3,-.4c-.3,0,-.4,.2,-.4,.4c0,.2,.1,.4,.4,.4m1.5,0v0c.2,0,.4,-.2,.4,-.4c0,-.2,-.2,-.4,-.4,-.4c-.2,0,-.4,.2,-.4,.4c0,.2,.2,.4,.4,.4m1.5,0v0c.2,0,.4,-.2,.4,-.4c0,-.2,-.2,-.4,-.4,-.4c-.2,0,-.4,.2,-.4,.4c0,.2,.2,.4,.4,.4m1.5,0v0c.2,0,.4,-.2,.4,-.4c0,-.2,-.2,-.4,-.4,-.4c-.2,0,-.3,.2,-.3,.4c0,.2,.1,.4,.3,.4m1.6,0v0c.2,0,.3,-.2,.3,-.4c0,-.2,-.1,-.4,-.3,-.4c-.3,0,-.4,.2,-.4,.4c0,.2,.1,.4,.4,.4m1.5,0v0c.2,0,.4,-.2,.4,-.4c0,-.2,-.2,-.4,-.4,-.4c-.2,0,-.4,.2,-.4,.4c0,.2,.2,.4,.4,.4m1.5,0v0c.2,0,.4,-.2,.4,-.4c0,-.2,-.2,-.4,-.4,-.4c-.2,0,-.4,.2,-.4,.4c0,.2,.2,.4,.4,.4m1.5,0v0c.2,0,.4,-.2,.4,-.4c0,-.2,-.2,-.4,-.4,-.4c-.2,0,-.3,.2,-.3,.4c0,.2,.1,.4,.3,.4m1.6,0v0c.2,0,.3,-.2,.3,-.4c0,-.2,-.1,-.4,-.3,-.4c-.3,0,-.4,.2,-.4,.4c0,.2,.1,.4,.4,.4m1.5,0v0c.2,0,.4,-.2,.4,-.4c0,-.2,-.2,-.4,-.4,-.4c-.2,0,-.4,.2,-.4,.4c0,.2,.2,.4,.4,.4m1.5,0v0c.2,0,.4,-.2,.4,-.4c0,-.2,-.2,-.4,-.4,-.4c-.2,0,-.4,.2,-.4,.4c0,.2,.2,.4,.4,.4m1.5,0v0c.2,0,.4,-.2,.4,-.4c0,-.2,-.2,-.4,-.4,-.4c-.2,0,-.3,.2,-.3,.4c0,.2,.1,.4,.3,.4m1.6,0v0c.2,0,.3,-.2,.3,-.4c0,-.2,-.1,-.4,-.3,-.4c-.3,0,-.4,.2,-.4,.4c0,.2,.1,.4,.4,.4m1.5,0v0c.2,0,.4,-.2,.4,-.4c0,-.2,-.2,-.4,-.4,-.4c-.2,0,-.4,.2,-.4,.4c0,.2,.2,.4,.4,.4m1.5,0v0c.2,0,.4,-.2,.4,-.4c0,-.2,-.2,-.4,-.4,-.4c-.2,0,-.4,.2,-.4,.4c0,.2,.2,.4,.4,.4m1.5,0v0c.2,0,.4,-.2,.4,-.4c0,-.2,-.2,-.4,-.4,-.4c-.2,0,-.4,.2,-.4,.4c0,.2,.2,.4,.4,.4m1.6,0v0c.2,0,.3,-.2,.3,-.4c0,-.2,-.1,-.4,-.3,-.4c-.3,0,-.4,.2,-.4,.4c0,.2,.1,.4,.4,.4m1.5,0v0c.2,0,.4,-.2,.4,-.4c0,-.2,-.2,-.4,-.4,-.4c-.2,0,-.4,.2,-.4,.4c0,.2,.2,.4,.4,.4m1.5,0v0c.2,0,.4,-.2,.4,-.4c0,-.2,-.2,-.4,-.4,-.4c-.2,0,-.4,.2,-.4,.4c0,.2,.2,.4,.4,.4m1.5,0v0c.2,0,.4,-.2,.4,-.4c0,-.2,-.2,-.4,-.4,-.4c-.2,0,-.3,.2,-.3,.4c0,.2,.1,.4,.3,.4m1.6,0v0c.2,0,.3,-.2,.3,-.4c0,-.2,-.1,-.4,-.3,-.4c-.3,0,-.4,.2,-.4,.4c0,.2,.1,.4,.4,.4m1.5,0v0c.2,0,.4,-.2,.4,-.4c0,-.2,-.2,-.4,-.4,-.4c-.2,0,-.4,.2,-.4,.4c0,.2,.2,.4,.4,.4Z" class="g4_16"/>
<path d="M39.4,1053.9l.2,-.1l.1,-.3l-.1,-.3l-.2,-.1l-.3,.1l-.1,.3l.1,.3Zm222.6,0l.3,-.1l.1,-.3l-.1,-.3l-.3,-.1l-.3,.1l-.1,.3l.1,.3Z" class="g4_16"/>
<path d="M263.5,1053.9v0c.2,0,.4,-.2,.4,-.4c0,-.2,-.2,-.4,-.4,-.4c-.2,0,-.3,.2,-.3,.4c0,.2,.1,.4,.3,.4m1.6,0v0c.2,0,.3,-.2,.3,-.4c0,-.2,-.1,-.4,-.3,-.4c-.2,0,-.4,.2,-.4,.4c0,.2,.2,.4,.4,.4m1.5,0v0c.2,0,.4,-.2,.4,-.4c0,-.2,-.2,-.4,-.4,-.4c-.2,0,-.4,.2,-.4,.4c0,.2,.2,.4,.4,.4m1.5,0v0c.2,0,.4,-.2,.4,-.4c0,-.2,-.2,-.4,-.4,-.4c-.2,0,-.4,.2,-.4,.4c0,.2,.2,.4,.4,.4m1.6,0v0c.2,0,.3,-.2,.3,-.4c0,-.2,-.1,-.4,-.3,-.4c-.3,0,-.4,.2,-.4,.4c0,.2,.1,.4,.4,.4m1.5,0v0c.2,0,.4,-.2,.4,-.4c0,-.2,-.2,-.4,-.4,-.4c-.2,0,-.4,.2,-.4,.4c0,.2,.2,.4,.4,.4m1.5,0v0c.2,0,.4,-.2,.4,-.4c0,-.2,-.2,-.4,-.4,-.4c-.2,0,-.4,.2,-.4,.4c0,.2,.2,.4,.4,.4m1.5,0v0c.2,0,.4,-.2,.4,-.4c0,-.2,-.2,-.4,-.4,-.4c-.2,0,-.3,.2,-.3,.4c0,.2,.1,.4,.3,.4m1.6,0v0c.2,0,.3,-.2,.3,-.4c0,-.2,-.1,-.4,-.3,-.4c-.2,0,-.4,.2,-.4,.4c0,.2,.2,.4,.4,.4m1.5,0v0c.2,0,.4,-.2,.4,-.4c0,-.2,-.2,-.4,-.4,-.4c-.2,0,-.4,.2,-.4,.4c0,.2,.2,.4,.4,.4m1.5,0v0c.2,0,.4,-.2,.4,-.4c0,-.2,-.2,-.4,-.4,-.4c-.2,0,-.4,.2,-.4,.4c0,.2,.2,.4,.4,.4m1.5,0v0c.3,0,.4,-.2,.4,-.4c0,-.2,-.1,-.4,-.4,-.4c-.2,0,-.3,.2,-.3,.4c0,.2,.1,.4,.3,.4m1.6,0v0c.2,0,.4,-.2,.4,-.4c0,-.2,-.2,-.4,-.4,-.4c-.2,0,-.4,.2,-.4,.4c0,.2,.2,.4,.4,.4m1.5,0v0c.2,0,.4,-.2,.4,-.4c0,-.2,-.2,-.4,-.4,-.4c-.2,0,-.4,.2,-.4,.4c0,.2,.2,.4,.4,.4m1.5,0v0c.2,0,.4,-.2,.4,-.4c0,-.2,-.2,-.4,-.4,-.4c-.2,0,-.3,.2,-.3,.4c0,.2,.1,.4,.3,.4m1.6,0v0c.2,0,.3,-.2,.3,-.4c0,-.2,-.1,-.4,-.3,-.4c-.2,0,-.4,.2,-.4,.4c0,.2,.2,.4,.4,.4m1.5,0v0c.2,0,.4,-.2,.4,-.4c0,-.2,-.2,-.4,-.4,-.4c-.2,0,-.4,.2,-.4,.4c0,.2,.2,.4,.4,.4m1.5,0v0c.2,0,.4,-.2,.4,-.4c0,-.2,-.2,-.4,-.4,-.4c-.2,0,-.4,.2,-.4,.4c0,.2,.2,.4,.4,.4m1.5,0v0c.3,0,.4,-.2,.4,-.4c0,-.2,-.1,-.4,-.4,-.4c-.2,0,-.3,.2,-.3,.4c0,.2,.1,.4,.3,.4m1.6,0v0c.2,0,.4,-.2,.4,-.4c0,-.2,-.2,-.4,-.4,-.4c-.2,0,-.4,.2,-.4,.4c0,.2,.2,.4,.4,.4m1.5,0v0c.2,0,.4,-.2,.4,-.4c0,-.2,-.2,-.4,-.4,-.4c-.2,0,-.4,.2,-.4,.4c0,.2,.2,.4,.4,.4m1.5,0v0c.2,0,.4,-.2,.4,-.4c0,-.2,-.2,-.4,-.4,-.4c-.2,0,-.3,.2,-.3,.4c0,.2,.1,.4,.3,.4m1.6,0v0c.2,0,.3,-.2,.3,-.4c0,-.2,-.1,-.4,-.3,-.4c-.2,0,-.4,.2,-.4,.4c0,.2,.2,.4,.4,.4m1.5,0v0c.2,0,.4,-.2,.4,-.4c0,-.2,-.2,-.4,-.4,-.4c-.2,0,-.4,.2,-.4,.4c0,.2,.2,.4,.4,.4m1.5,0v0c.2,0,.4,-.2,.4,-.4c0,-.2,-.2,-.4,-.4,-.4c-.2,0,-.4,.2,-.4,.4c0,.2,.2,.4,.4,.4m1.5,0v0c.3,0,.4,-.2,.4,-.4c0,-.2,-.1,-.4,-.4,-.4c-.2,0,-.3,.2,-.3,.4c0,.2,.1,.4,.3,.4m1.6,0v0c.2,0,.4,-.2,.4,-.4c0,-.2,-.2,-.4,-.4,-.4c-.2,0,-.4,.2,-.4,.4c0,.2,.2,.4,.4,.4m1.5,0v0c.2,0,.4,-.2,.4,-.4c0,-.2,-.2,-.4,-.4,-.4c-.2,0,-.4,.2,-.4,.4c0,.2,.2,.4,.4,.4m1.5,0v0c.2,0,.4,-.2,.4,-.4c0,-.2,-.2,-.4,-.4,-.4c-.2,0,-.3,.2,-.3,.4c0,.2,.1,.4,.3,.4Z" class="g4_16"/>
<path d="M262,1053.9l.3,-.1l.1,-.3l-.1,-.3l-.3,-.1l-.3,.1l-.1,.3l.1,.3Zm45.9,0l.2,-.1l.1,-.3l-.1,-.3l-.2,-.1l-.3,.1l-.1,.3l.1,.3Z" class="g4_16"/>
<path d="M39,1018.3H262V1016H39Z" class="g4_16"/>
<path d="M262,1018.3h46.2V1016H262Z" class="g4_16"/>
<path d="M40.9,1090.3v0c.2,0,.4,-.2,.4,-.4c0,-.2,-.2,-.4,-.4,-.4c-.2,0,-.4,.2,-.4,.4c0,.2,.2,.4,.4,.4m1.5,0v0c.2,0,.4,-.2,.4,-.4c0,-.2,-.2,-.4,-.4,-.4c-.2,0,-.4,.2,-.4,.4c0,.2,.2,.4,.4,.4m1.5,0v0c.2,0,.4,-.2,.4,-.4c0,-.2,-.2,-.4,-.4,-.4c-.2,0,-.3,.2,-.3,.4c0,.2,.1,.4,.3,.4m1.6,0v0c.2,0,.3,-.2,.3,-.4c0,-.2,-.1,-.4,-.3,-.4c-.3,0,-.4,.2,-.4,.4c0,.2,.1,.4,.4,.4m1.5,0v0c.2,0,.4,-.2,.4,-.4c0,-.2,-.2,-.4,-.4,-.4c-.2,0,-.4,.2,-.4,.4c0,.2,.2,.4,.4,.4m1.5,0v0c.2,0,.4,-.2,.4,-.4c0,-.2,-.2,-.4,-.4,-.4c-.2,0,-.4,.2,-.4,.4c0,.2,.2,.4,.4,.4m1.5,0v0c.2,0,.4,-.2,.4,-.4c0,-.2,-.2,-.4,-.4,-.4c-.2,0,-.3,.2,-.3,.4c0,.2,.1,.4,.3,.4m1.6,0v0c.2,0,.3,-.2,.3,-.4c0,-.2,-.1,-.4,-.3,-.4c-.3,0,-.4,.2,-.4,.4c0,.2,.1,.4,.4,.4m1.5,0v0c.2,0,.4,-.2,.4,-.4c0,-.2,-.2,-.4,-.4,-.4c-.2,0,-.4,.2,-.4,.4c0,.2,.2,.4,.4,.4m1.5,0v0c.2,0,.4,-.2,.4,-.4c0,-.2,-.2,-.4,-.4,-.4c-.2,0,-.4,.2,-.4,.4c0,.2,.2,.4,.4,.4m1.5,0v0c.2,0,.4,-.2,.4,-.4c0,-.2,-.2,-.4,-.4,-.4c-.2,0,-.3,.2,-.3,.4c0,.2,.1,.4,.3,.4m1.6,0v0c.2,0,.3,-.2,.3,-.4c0,-.2,-.1,-.4,-.3,-.4c-.3,0,-.4,.2,-.4,.4c0,.2,.1,.4,.4,.4m1.5,0v0c.2,0,.4,-.2,.4,-.4c0,-.2,-.2,-.4,-.4,-.4c-.2,0,-.4,.2,-.4,.4c0,.2,.2,.4,.4,.4m1.5,0v0c.2,0,.4,-.2,.4,-.4c0,-.2,-.2,-.4,-.4,-.4c-.2,0,-.4,.2,-.4,.4c0,.2,.2,.4,.4,.4m1.5,0v0c.2,0,.4,-.2,.4,-.4c0,-.2,-.2,-.4,-.4,-.4c-.2,0,-.3,.2,-.3,.4c0,.2,.1,.4,.3,.4m1.6,0v0c.2,0,.3,-.2,.3,-.4c0,-.2,-.1,-.4,-.3,-.4c-.3,0,-.4,.2,-.4,.4c0,.2,.1,.4,.4,.4m1.5,0v0c.2,0,.4,-.2,.4,-.4c0,-.2,-.2,-.4,-.4,-.4c-.2,0,-.4,.2,-.4,.4c0,.2,.2,.4,.4,.4m1.5,0v0c.2,0,.4,-.2,.4,-.4c0,-.2,-.2,-.4,-.4,-.4c-.2,0,-.4,.2,-.4,.4c0,.2,.2,.4,.4,.4m1.5,0v0c.2,0,.4,-.2,.4,-.4c0,-.2,-.2,-.4,-.4,-.4c-.2,0,-.3,.2,-.3,.4c0,.2,.1,.4,.3,.4m1.6,0v0c.2,0,.3,-.2,.3,-.4c0,-.2,-.1,-.4,-.3,-.4c-.3,0,-.4,.2,-.4,.4c0,.2,.1,.4,.4,.4m1.5,0v0c.2,0,.4,-.2,.4,-.4c0,-.2,-.2,-.4,-.4,-.4c-.2,0,-.4,.2,-.4,.4c0,.2,.2,.4,.4,.4m1.5,0v0c.2,0,.4,-.2,.4,-.4c0,-.2,-.2,-.4,-.4,-.4c-.2,0,-.4,.2,-.4,.4c0,.2,.2,.4,.4,.4m1.5,0v0c.2,0,.4,-.2,.4,-.4c0,-.2,-.2,-.4,-.4,-.4c-.2,0,-.3,.2,-.3,.4c0,.2,.1,.4,.3,.4m1.6,0v0c.2,0,.3,-.2,.3,-.4c0,-.2,-.1,-.4,-.3,-.4c-.3,0,-.4,.2,-.4,.4c0,.2,.1,.4,.4,.4m1.5,0v0c.2,0,.4,-.2,.4,-.4c0,-.2,-.2,-.4,-.4,-.4c-.2,0,-.4,.2,-.4,.4c0,.2,.2,.4,.4,.4m1.5,0v0c.2,0,.4,-.2,.4,-.4c0,-.2,-.2,-.4,-.4,-.4c-.2,0,-.4,.2,-.4,.4c0,.2,.2,.4,.4,.4m1.5,0v0c.2,0,.4,-.2,.4,-.4c0,-.2,-.2,-.4,-.4,-.4c-.2,0,-.3,.2,-.3,.4c0,.2,.1,.4,.3,.4m1.6,0v0c.2,0,.3,-.2,.3,-.4c0,-.2,-.1,-.4,-.3,-.4c-.3,0,-.4,.2,-.4,.4c0,.2,.1,.4,.4,.4m1.5,0v0c.2,0,.4,-.2,.4,-.4c0,-.2,-.2,-.4,-.4,-.4c-.2,0,-.4,.2,-.4,.4c0,.2,.2,.4,.4,.4m1.5,0v0c.2,0,.4,-.2,.4,-.4c0,-.2,-.2,-.4,-.4,-.4c-.2,0,-.4,.2,-.4,.4c0,.2,.2,.4,.4,.4m1.5,0v0c.2,0,.4,-.2,.4,-.4c0,-.2,-.2,-.4,-.4,-.4c-.2,0,-.3,.2,-.3,.4c0,.2,.1,.4,.3,.4m1.6,0v0c.2,0,.3,-.2,.3,-.4c0,-.2,-.1,-.4,-.3,-.4c-.3,0,-.4,.2,-.4,.4c0,.2,.1,.4,.4,.4m1.5,0v0c.2,0,.4,-.2,.4,-.4c0,-.2,-.2,-.4,-.4,-.4c-.2,0,-.4,.2,-.4,.4c0,.2,.2,.4,.4,.4m1.5,0v0c.2,0,.4,-.2,.4,-.4c0,-.2,-.2,-.4,-.4,-.4c-.2,0,-.4,.2,-.4,.4c0,.2,.2,.4,.4,.4m1.5,0v0c.2,0,.4,-.2,.4,-.4c0,-.2,-.2,-.4,-.4,-.4c-.2,0,-.3,.2,-.3,.4c0,.2,.1,.4,.3,.4m1.6,0v0c.2,0,.3,-.2,.3,-.4c0,-.2,-.1,-.4,-.3,-.4c-.3,0,-.4,.2,-.4,.4c0,.2,.1,.4,.4,.4m1.5,0v0c.2,0,.4,-.2,.4,-.4c0,-.2,-.2,-.4,-.4,-.4c-.2,0,-.4,.2,-.4,.4c0,.2,.2,.4,.4,.4m1.5,0v0c.2,0,.4,-.2,.4,-.4c0,-.2,-.2,-.4,-.4,-.4c-.2,0,-.4,.2,-.4,.4c0,.2,.2,.4,.4,.4m1.5,0v0c.2,0,.4,-.2,.4,-.4c0,-.2,-.2,-.4,-.4,-.4c-.2,0,-.3,.2,-.3,.4c0,.2,.1,.4,.3,.4m1.6,0v0c.2,0,.3,-.2,.3,-.4c0,-.2,-.1,-.4,-.3,-.4c-.3,0,-.4,.2,-.4,.4c0,.2,.1,.4,.4,.4m1.5,0v0c.2,0,.4,-.2,.4,-.4c0,-.2,-.2,-.4,-.4,-.4c-.2,0,-.4,.2,-.4,.4c0,.2,.2,.4,.4,.4m1.5,0v0c.2,0,.4,-.2,.4,-.4c0,-.2,-.2,-.4,-.4,-.4c-.2,0,-.4,.2,-.4,.4c0,.2,.2,.4,.4,.4m1.5,0v0c.2,0,.4,-.2,.4,-.4c0,-.2,-.2,-.4,-.4,-.4c-.2,0,-.3,.2,-.3,.4c0,.2,.1,.4,.3,.4m1.6,0v0c.2,0,.3,-.2,.3,-.4c0,-.2,-.1,-.4,-.3,-.4c-.3,0,-.4,.2,-.4,.4c0,.2,.1,.4,.4,.4m1.5,0v0c.2,0,.4,-.2,.4,-.4c0,-.2,-.2,-.4,-.4,-.4c-.2,0,-.4,.2,-.4,.4c0,.2,.2,.4,.4,.4m1.5,0v0c.2,0,.4,-.2,.4,-.4c0,-.2,-.2,-.4,-.4,-.4c-.2,0,-.4,.2,-.4,.4c0,.2,.2,.4,.4,.4m1.5,0v0c.2,0,.4,-.2,.4,-.4c0,-.2,-.2,-.4,-.4,-.4c-.2,0,-.3,.2,-.3,.4c0,.2,.1,.4,.3,.4m1.6,0v0c.2,0,.3,-.2,.3,-.4c0,-.2,-.1,-.4,-.3,-.4c-.3,0,-.4,.2,-.4,.4c0,.2,.1,.4,.4,.4m1.5,0v0c.2,0,.4,-.2,.4,-.4c0,-.2,-.2,-.4,-.4,-.4c-.2,0,-.4,.2,-.4,.4c0,.2,.2,.4,.4,.4m1.5,0v0c.2,0,.4,-.2,.4,-.4c0,-.2,-.2,-.4,-.4,-.4c-.2,0,-.4,.2,-.4,.4c0,.2,.2,.4,.4,.4m1.5,0v0c.2,0,.4,-.2,.4,-.4c0,-.2,-.2,-.4,-.4,-.4c-.2,0,-.3,.2,-.3,.4c0,.2,.1,.4,.3,.4m1.6,0v0c.2,0,.3,-.2,.3,-.4c0,-.2,-.1,-.4,-.3,-.4c-.3,0,-.4,.2,-.4,.4c0,.2,.1,.4,.4,.4m1.5,0v0c.2,0,.4,-.2,.4,-.4c0,-.2,-.2,-.4,-.4,-.4c-.2,0,-.4,.2,-.4,.4c0,.2,.2,.4,.4,.4m1.5,0v0c.2,0,.4,-.2,.4,-.4c0,-.2,-.2,-.4,-.4,-.4c-.2,0,-.4,.2,-.4,.4c0,.2,.2,.4,.4,.4m1.5,0v0c.2,0,.4,-.2,.4,-.4c0,-.2,-.2,-.4,-.4,-.4c-.2,0,-.3,.2,-.3,.4c0,.2,.1,.4,.3,.4m1.6,0v0c.2,0,.3,-.2,.3,-.4c0,-.2,-.1,-.4,-.3,-.4c-.3,0,-.4,.2,-.4,.4c0,.2,.1,.4,.4,.4m1.5,0v0c.2,0,.4,-.2,.4,-.4c0,-.2,-.2,-.4,-.4,-.4c-.2,0,-.4,.2,-.4,.4c0,.2,.2,.4,.4,.4m1.5,0v0c.2,0,.4,-.2,.4,-.4c0,-.2,-.2,-.4,-.4,-.4c-.2,0,-.4,.2,-.4,.4c0,.2,.2,.4,.4,.4m1.5,0v0c.2,0,.4,-.2,.4,-.4c0,-.2,-.2,-.4,-.4,-.4c-.2,0,-.3,.2,-.3,.4c0,.2,.1,.4,.3,.4m1.6,0v0c.2,0,.3,-.2,.3,-.4c0,-.2,-.1,-.4,-.3,-.4c-.3,0,-.4,.2,-.4,.4c0,.2,.1,.4,.4,.4m1.5,0v0c.2,0,.4,-.2,.4,-.4c0,-.2,-.2,-.4,-.4,-.4c-.2,0,-.4,.2,-.4,.4c0,.2,.2,.4,.4,.4m1.5,0v0c.2,0,.4,-.2,.4,-.4c0,-.2,-.2,-.4,-.4,-.4c-.2,0,-.4,.2,-.4,.4c0,.2,.2,.4,.4,.4m1.5,0v0c.2,0,.4,-.2,.4,-.4c0,-.2,-.2,-.4,-.4,-.4c-.2,0,-.3,.2,-.3,.4c0,.2,.1,.4,.3,.4m1.6,0v0c.2,0,.3,-.2,.3,-.4c0,-.2,-.1,-.4,-.3,-.4c-.3,0,-.4,.2,-.4,.4c0,.2,.1,.4,.4,.4m1.5,0v0c.2,0,.4,-.2,.4,-.4c0,-.2,-.2,-.4,-.4,-.4c-.2,0,-.4,.2,-.4,.4c0,.2,.2,.4,.4,.4m1.5,0v0c.2,0,.4,-.2,.4,-.4c0,-.2,-.2,-.4,-.4,-.4c-.2,0,-.4,.2,-.4,.4c0,.2,.2,.4,.4,.4m1.5,0v0c.2,0,.4,-.2,.4,-.4c0,-.2,-.2,-.4,-.4,-.4c-.2,0,-.3,.2,-.3,.4c0,.2,.1,.4,.3,.4m1.6,0v0c.2,0,.3,-.2,.3,-.4c0,-.2,-.1,-.4,-.3,-.4c-.3,0,-.4,.2,-.4,.4c0,.2,.1,.4,.4,.4m1.5,0v0c.2,0,.4,-.2,.4,-.4c0,-.2,-.2,-.4,-.4,-.4c-.2,0,-.4,.2,-.4,.4c0,.2,.2,.4,.4,.4m1.5,0v0c.2,0,.4,-.2,.4,-.4c0,-.2,-.2,-.4,-.4,-.4c-.2,0,-.4,.2,-.4,.4c0,.2,.2,.4,.4,.4m1.5,0v0c.2,0,.4,-.2,.4,-.4c0,-.2,-.2,-.4,-.4,-.4c-.2,0,-.3,.2,-.3,.4c0,.2,.1,.4,.3,.4m1.6,0v0c.2,0,.3,-.2,.3,-.4c0,-.2,-.1,-.4,-.3,-.4c-.3,0,-.4,.2,-.4,.4c0,.2,.1,.4,.4,.4m1.5,0v0c.2,0,.4,-.2,.4,-.4c0,-.2,-.2,-.4,-.4,-.4c-.2,0,-.4,.2,-.4,.4c0,.2,.2,.4,.4,.4m1.5,0v0c.2,0,.4,-.2,.4,-.4c0,-.2,-.2,-.4,-.4,-.4c-.2,0,-.4,.2,-.4,.4c0,.2,.2,.4,.4,.4m1.5,0v0c.2,0,.4,-.2,.4,-.4c0,-.2,-.2,-.4,-.4,-.4c-.2,0,-.3,.2,-.3,.4c0,.2,.1,.4,.3,.4m1.6,0v0c.2,0,.3,-.2,.3,-.4c0,-.2,-.1,-.4,-.3,-.4c-.3,0,-.4,.2,-.4,.4c0,.2,.1,.4,.4,.4m1.5,0v0c.2,0,.4,-.2,.4,-.4c0,-.2,-.2,-.4,-.4,-.4c-.2,0,-.4,.2,-.4,.4c0,.2,.2,.4,.4,.4m1.5,0v0c.2,0,.4,-.2,.4,-.4c0,-.2,-.2,-.4,-.4,-.4c-.2,0,-.4,.2,-.4,.4c0,.2,.2,.4,.4,.4m1.5,0v0c.2,0,.4,-.2,.4,-.4c0,-.2,-.2,-.4,-.4,-.4c-.2,0,-.3,.2,-.3,.4c0,.2,.1,.4,.3,.4m1.6,0v0c.2,0,.3,-.2,.3,-.4c0,-.2,-.1,-.4,-.3,-.4c-.3,0,-.4,.2,-.4,.4c0,.2,.1,.4,.4,.4m1.5,0v0c.2,0,.4,-.2,.4,-.4c0,-.2,-.2,-.4,-.4,-.4c-.2,0,-.4,.2,-.4,.4c0,.2,.2,.4,.4,.4m1.5,0v0c.2,0,.4,-.2,.4,-.4c0,-.2,-.2,-.4,-.4,-.4c-.2,0,-.4,.2,-.4,.4c0,.2,.2,.4,.4,.4m1.5,0v0c.2,0,.4,-.2,.4,-.4c0,-.2,-.2,-.4,-.4,-.4c-.2,0,-.3,.2,-.3,.4c0,.2,.1,.4,.3,.4m1.6,0v0c.2,0,.3,-.2,.3,-.4c0,-.2,-.1,-.4,-.3,-.4c-.3,0,-.4,.2,-.4,.4c0,.2,.1,.4,.4,.4m1.5,0v0c.2,0,.4,-.2,.4,-.4c0,-.2,-.2,-.4,-.4,-.4c-.2,0,-.4,.2,-.4,.4c0,.2,.2,.4,.4,.4m1.5,0v0c.2,0,.4,-.2,.4,-.4c0,-.2,-.2,-.4,-.4,-.4c-.2,0,-.4,.2,-.4,.4c0,.2,.2,.4,.4,.4m1.5,0v0c.2,0,.4,-.2,.4,-.4c0,-.2,-.2,-.4,-.4,-.4c-.2,0,-.3,.2,-.3,.4c0,.2,.1,.4,.3,.4m1.6,0v0c.2,0,.3,-.2,.3,-.4c0,-.2,-.1,-.4,-.3,-.4c-.3,0,-.4,.2,-.4,.4c0,.2,.1,.4,.4,.4m1.5,0v0c.2,0,.4,-.2,.4,-.4c0,-.2,-.2,-.4,-.4,-.4c-.2,0,-.4,.2,-.4,.4c0,.2,.2,.4,.4,.4m1.5,0v0c.2,0,.4,-.2,.4,-.4c0,-.2,-.2,-.4,-.4,-.4c-.2,0,-.4,.2,-.4,.4c0,.2,.2,.4,.4,.4m1.5,0v0c.2,0,.4,-.2,.4,-.4c0,-.2,-.2,-.4,-.4,-.4c-.2,0,-.3,.2,-.3,.4c0,.2,.1,.4,.3,.4m1.6,0v0c.2,0,.3,-.2,.3,-.4c0,-.2,-.1,-.4,-.3,-.4c-.3,0,-.4,.2,-.4,.4c0,.2,.1,.4,.4,.4m1.5,0v0c.2,0,.4,-.2,.4,-.4c0,-.2,-.2,-.4,-.4,-.4c-.2,0,-.4,.2,-.4,.4c0,.2,.2,.4,.4,.4m1.5,0v0c.2,0,.4,-.2,.4,-.4c0,-.2,-.2,-.4,-.4,-.4c-.2,0,-.4,.2,-.4,.4c0,.2,.2,.4,.4,.4m1.5,0v0c.2,0,.4,-.2,.4,-.4c0,-.2,-.2,-.4,-.4,-.4c-.2,0,-.3,.2,-.3,.4c0,.2,.1,.4,.3,.4m1.6,0v0c.2,0,.3,-.2,.3,-.4c0,-.2,-.1,-.4,-.3,-.4c-.3,0,-.4,.2,-.4,.4c0,.2,.1,.4,.4,.4m1.5,0v0c.2,0,.4,-.2,.4,-.4c0,-.2,-.2,-.4,-.4,-.4c-.2,0,-.4,.2,-.4,.4c0,.2,.2,.4,.4,.4m1.5,0v0c.2,0,.4,-.2,.4,-.4c0,-.2,-.2,-.4,-.4,-.4c-.2,0,-.4,.2,-.4,.4c0,.2,.2,.4,.4,.4m1.5,0v0c.2,0,.4,-.2,.4,-.4c0,-.2,-.2,-.4,-.4,-.4c-.2,0,-.3,.2,-.3,.4c0,.2,.1,.4,.3,.4m1.6,0v0c.2,0,.3,-.2,.3,-.4c0,-.2,-.1,-.4,-.3,-.4c-.3,0,-.4,.2,-.4,.4c0,.2,.1,.4,.4,.4m1.5,0v0c.2,0,.4,-.2,.4,-.4c0,-.2,-.2,-.4,-.4,-.4c-.2,0,-.4,.2,-.4,.4c0,.2,.2,.4,.4,.4m1.5,0v0c.2,0,.4,-.2,.4,-.4c0,-.2,-.2,-.4,-.4,-.4c-.2,0,-.4,.2,-.4,.4c0,.2,.2,.4,.4,.4m1.5,0v0c.2,0,.4,-.2,.4,-.4c0,-.2,-.2,-.4,-.4,-.4c-.2,0,-.3,.2,-.3,.4c0,.2,.1,.4,.3,.4m1.6,0v0c.2,0,.3,-.2,.3,-.4c0,-.2,-.1,-.4,-.3,-.4c-.3,0,-.4,.2,-.4,.4c0,.2,.1,.4,.4,.4m1.5,0v0c.2,0,.4,-.2,.4,-.4c0,-.2,-.2,-.4,-.4,-.4c-.2,0,-.4,.2,-.4,.4c0,.2,.2,.4,.4,.4m1.5,0v0c.2,0,.4,-.2,.4,-.4c0,-.2,-.2,-.4,-.4,-.4c-.2,0,-.4,.2,-.4,.4c0,.2,.2,.4,.4,.4m1.5,0v0c.2,0,.4,-.2,.4,-.4c0,-.2,-.2,-.4,-.4,-.4c-.2,0,-.3,.2,-.3,.4c0,.2,.1,.4,.3,.4m1.6,0v0c.2,0,.3,-.2,.3,-.4c0,-.2,-.1,-.4,-.3,-.4c-.3,0,-.4,.2,-.4,.4c0,.2,.1,.4,.4,.4m1.5,0v0c.2,0,.4,-.2,.4,-.4c0,-.2,-.2,-.4,-.4,-.4c-.2,0,-.4,.2,-.4,.4c0,.2,.2,.4,.4,.4m1.5,0v0c.2,0,.4,-.2,.4,-.4c0,-.2,-.2,-.4,-.4,-.4c-.2,0,-.4,.2,-.4,.4c0,.2,.2,.4,.4,.4m1.5,0v0c.2,0,.4,-.2,.4,-.4c0,-.2,-.2,-.4,-.4,-.4c-.2,0,-.4,.2,-.4,.4c0,.2,.2,.4,.4,.4m1.6,0v0c.2,0,.3,-.2,.3,-.4c0,-.2,-.1,-.4,-.3,-.4c-.3,0,-.4,.2,-.4,.4c0,.2,.1,.4,.4,.4m1.5,0v0c.2,0,.4,-.2,.4,-.4c0,-.2,-.2,-.4,-.4,-.4c-.2,0,-.4,.2,-.4,.4c0,.2,.2,.4,.4,.4m1.5,0v0c.2,0,.4,-.2,.4,-.4c0,-.2,-.2,-.4,-.4,-.4c-.2,0,-.4,.2,-.4,.4c0,.2,.2,.4,.4,.4m1.5,0v0c.2,0,.4,-.2,.4,-.4c0,-.2,-.2,-.4,-.4,-.4c-.2,0,-.3,.2,-.3,.4c0,.2,.1,.4,.3,.4m1.6,0v0c.2,0,.3,-.2,.3,-.4c0,-.2,-.1,-.4,-.3,-.4c-.3,0,-.4,.2,-.4,.4c0,.2,.1,.4,.4,.4m1.5,0v0c.2,0,.4,-.2,.4,-.4c0,-.2,-.2,-.4,-.4,-.4c-.2,0,-.4,.2,-.4,.4c0,.2,.2,.4,.4,.4m1.5,0v0c.2,0,.4,-.2,.4,-.4c0,-.2,-.2,-.4,-.4,-.4c-.2,0,-.4,.2,-.4,.4c0,.2,.2,.4,.4,.4m1.5,0v0c.2,0,.4,-.2,.4,-.4c0,-.2,-.2,-.4,-.4,-.4c-.2,0,-.3,.2,-.3,.4c0,.2,.1,.4,.3,.4m1.6,0v0c.2,0,.3,-.2,.3,-.4c0,-.2,-.1,-.4,-.3,-.4c-.3,0,-.4,.2,-.4,.4c0,.2,.1,.4,.4,.4m1.5,0v0c.2,0,.4,-.2,.4,-.4c0,-.2,-.2,-.4,-.4,-.4c-.2,0,-.4,.2,-.4,.4c0,.2,.2,.4,.4,.4m1.5,0v0c.2,0,.4,-.2,.4,-.4c0,-.2,-.2,-.4,-.4,-.4c-.2,0,-.4,.2,-.4,.4c0,.2,.2,.4,.4,.4m1.5,0v0c.2,0,.4,-.2,.4,-.4c0,-.2,-.2,-.4,-.4,-.4c-.2,0,-.3,.2,-.3,.4c0,.2,.1,.4,.3,.4m1.6,0v0c.2,0,.3,-.2,.3,-.4c0,-.2,-.1,-.4,-.3,-.4c-.3,0,-.4,.2,-.4,.4c0,.2,.1,.4,.4,.4m1.5,0v0c.2,0,.4,-.2,.4,-.4c0,-.2,-.2,-.4,-.4,-.4c-.2,0,-.4,.2,-.4,.4c0,.2,.2,.4,.4,.4m1.5,0v0c.2,0,.4,-.2,.4,-.4c0,-.2,-.2,-.4,-.4,-.4c-.2,0,-.4,.2,-.4,.4c0,.2,.2,.4,.4,.4m1.5,0v0c.2,0,.4,-.2,.4,-.4c0,-.2,-.2,-.4,-.4,-.4c-.2,0,-.3,.2,-.3,.4c0,.2,.1,.4,.3,.4m1.6,0v0c.2,0,.3,-.2,.3,-.4c0,-.2,-.1,-.4,-.3,-.4c-.3,0,-.4,.2,-.4,.4c0,.2,.1,.4,.4,.4m1.5,0v0c.2,0,.4,-.2,.4,-.4c0,-.2,-.2,-.4,-.4,-.4c-.2,0,-.4,.2,-.4,.4c0,.2,.2,.4,.4,.4m1.5,0v0c.2,0,.4,-.2,.4,-.4c0,-.2,-.2,-.4,-.4,-.4c-.2,0,-.4,.2,-.4,.4c0,.2,.2,.4,.4,.4m1.5,0v0c.2,0,.4,-.2,.4,-.4c0,-.2,-.2,-.4,-.4,-.4c-.2,0,-.3,.2,-.3,.4c0,.2,.1,.4,.3,.4m1.6,0v0c.2,0,.3,-.2,.3,-.4c0,-.2,-.1,-.4,-.3,-.4c-.3,0,-.4,.2,-.4,.4c0,.2,.1,.4,.4,.4m1.5,0v0c.2,0,.4,-.2,.4,-.4c0,-.2,-.2,-.4,-.4,-.4c-.2,0,-.4,.2,-.4,.4c0,.2,.2,.4,.4,.4m1.5,0v0c.2,0,.4,-.2,.4,-.4c0,-.2,-.2,-.4,-.4,-.4c-.2,0,-.4,.2,-.4,.4c0,.2,.2,.4,.4,.4m1.5,0v0c.2,0,.4,-.2,.4,-.4c0,-.2,-.2,-.4,-.4,-.4c-.2,0,-.3,.2,-.3,.4c0,.2,.1,.4,.3,.4m1.6,0v0c.2,0,.3,-.2,.3,-.4c0,-.2,-.1,-.4,-.3,-.4c-.3,0,-.4,.2,-.4,.4c0,.2,.1,.4,.4,.4m1.5,0v0c.2,0,.4,-.2,.4,-.4c0,-.2,-.2,-.4,-.4,-.4c-.2,0,-.4,.2,-.4,.4c0,.2,.2,.4,.4,.4m1.5,0v0c.2,0,.4,-.2,.4,-.4c0,-.2,-.2,-.4,-.4,-.4c-.2,0,-.4,.2,-.4,.4c0,.2,.2,.4,.4,.4m1.5,0v0c.2,0,.4,-.2,.4,-.4c0,-.2,-.2,-.4,-.4,-.4c-.2,0,-.4,.2,-.4,.4c0,.2,.2,.4,.4,.4m1.6,0v0c.2,0,.3,-.2,.3,-.4c0,-.2,-.1,-.4,-.3,-.4c-.3,0,-.4,.2,-.4,.4c0,.2,.1,.4,.4,.4m1.5,0v0c.2,0,.4,-.2,.4,-.4c0,-.2,-.2,-.4,-.4,-.4c-.2,0,-.4,.2,-.4,.4c0,.2,.2,.4,.4,.4m1.5,0v0c.2,0,.4,-.2,.4,-.4c0,-.2,-.2,-.4,-.4,-.4c-.2,0,-.4,.2,-.4,.4c0,.2,.2,.4,.4,.4m1.5,0v0c.2,0,.4,-.2,.4,-.4c0,-.2,-.2,-.4,-.4,-.4c-.2,0,-.3,.2,-.3,.4c0,.2,.1,.4,.3,.4m1.6,0v0c.2,0,.3,-.2,.3,-.4c0,-.2,-.1,-.4,-.3,-.4c-.3,0,-.4,.2,-.4,.4c0,.2,.1,.4,.4,.4m1.5,0v0c.2,0,.4,-.2,.4,-.4c0,-.2,-.2,-.4,-.4,-.4c-.2,0,-.4,.2,-.4,.4c0,.2,.2,.4,.4,.4Z" class="g4_16"/>
<path d="M39.4,1090.3l.2,-.1l.1,-.3l-.1,-.3l-.2,-.1l-.3,.1l-.1,.3l.1,.3Zm222.6,0l.3,-.1l.1,-.3l-.1,-.3l-.3,-.1l-.3,.1l-.1,.3l.1,.3Z" class="g4_16"/>
<path d="M263.5,1090.3v0c.2,0,.4,-.2,.4,-.4c0,-.2,-.2,-.4,-.4,-.4c-.2,0,-.3,.2,-.3,.4c0,.2,.1,.4,.3,.4m1.6,0v0c.2,0,.3,-.2,.3,-.4c0,-.2,-.1,-.4,-.3,-.4c-.2,0,-.4,.2,-.4,.4c0,.2,.2,.4,.4,.4m1.5,0v0c.2,0,.4,-.2,.4,-.4c0,-.2,-.2,-.4,-.4,-.4c-.2,0,-.4,.2,-.4,.4c0,.2,.2,.4,.4,.4m1.5,0v0c.2,0,.4,-.2,.4,-.4c0,-.2,-.2,-.4,-.4,-.4c-.2,0,-.4,.2,-.4,.4c0,.2,.2,.4,.4,.4m1.6,0v0c.2,0,.3,-.2,.3,-.4c0,-.2,-.1,-.4,-.3,-.4c-.3,0,-.4,.2,-.4,.4c0,.2,.1,.4,.4,.4m1.5,0v0c.2,0,.4,-.2,.4,-.4c0,-.2,-.2,-.4,-.4,-.4c-.2,0,-.4,.2,-.4,.4c0,.2,.2,.4,.4,.4m1.5,0v0c.2,0,.4,-.2,.4,-.4c0,-.2,-.2,-.4,-.4,-.4c-.2,0,-.4,.2,-.4,.4c0,.2,.2,.4,.4,.4m1.5,0v0c.2,0,.4,-.2,.4,-.4c0,-.2,-.2,-.4,-.4,-.4c-.2,0,-.3,.2,-.3,.4c0,.2,.1,.4,.3,.4m1.6,0v0c.2,0,.3,-.2,.3,-.4c0,-.2,-.1,-.4,-.3,-.4c-.2,0,-.4,.2,-.4,.4c0,.2,.2,.4,.4,.4m1.5,0v0c.2,0,.4,-.2,.4,-.4c0,-.2,-.2,-.4,-.4,-.4c-.2,0,-.4,.2,-.4,.4c0,.2,.2,.4,.4,.4m1.5,0v0c.2,0,.4,-.2,.4,-.4c0,-.2,-.2,-.4,-.4,-.4c-.2,0,-.4,.2,-.4,.4c0,.2,.2,.4,.4,.4m1.5,0v0c.3,0,.4,-.2,.4,-.4c0,-.2,-.1,-.4,-.4,-.4c-.2,0,-.3,.2,-.3,.4c0,.2,.1,.4,.3,.4m1.6,0v0c.2,0,.4,-.2,.4,-.4c0,-.2,-.2,-.4,-.4,-.4c-.2,0,-.4,.2,-.4,.4c0,.2,.2,.4,.4,.4m1.5,0v0c.2,0,.4,-.2,.4,-.4c0,-.2,-.2,-.4,-.4,-.4c-.2,0,-.4,.2,-.4,.4c0,.2,.2,.4,.4,.4m1.5,0v0c.2,0,.4,-.2,.4,-.4c0,-.2,-.2,-.4,-.4,-.4c-.2,0,-.3,.2,-.3,.4c0,.2,.1,.4,.3,.4m1.6,0v0c.2,0,.3,-.2,.3,-.4c0,-.2,-.1,-.4,-.3,-.4c-.2,0,-.4,.2,-.4,.4c0,.2,.2,.4,.4,.4m1.5,0v0c.2,0,.4,-.2,.4,-.4c0,-.2,-.2,-.4,-.4,-.4c-.2,0,-.4,.2,-.4,.4c0,.2,.2,.4,.4,.4m1.5,0v0c.2,0,.4,-.2,.4,-.4c0,-.2,-.2,-.4,-.4,-.4c-.2,0,-.4,.2,-.4,.4c0,.2,.2,.4,.4,.4m1.5,0v0c.3,0,.4,-.2,.4,-.4c0,-.2,-.1,-.4,-.4,-.4c-.2,0,-.3,.2,-.3,.4c0,.2,.1,.4,.3,.4m1.6,0v0c.2,0,.4,-.2,.4,-.4c0,-.2,-.2,-.4,-.4,-.4c-.2,0,-.4,.2,-.4,.4c0,.2,.2,.4,.4,.4m1.5,0v0c.2,0,.4,-.2,.4,-.4c0,-.2,-.2,-.4,-.4,-.4c-.2,0,-.4,.2,-.4,.4c0,.2,.2,.4,.4,.4m1.5,0v0c.2,0,.4,-.2,.4,-.4c0,-.2,-.2,-.4,-.4,-.4c-.2,0,-.3,.2,-.3,.4c0,.2,.1,.4,.3,.4m1.6,0v0c.2,0,.3,-.2,.3,-.4c0,-.2,-.1,-.4,-.3,-.4c-.2,0,-.4,.2,-.4,.4c0,.2,.2,.4,.4,.4m1.5,0v0c.2,0,.4,-.2,.4,-.4c0,-.2,-.2,-.4,-.4,-.4c-.2,0,-.4,.2,-.4,.4c0,.2,.2,.4,.4,.4m1.5,0v0c.2,0,.4,-.2,.4,-.4c0,-.2,-.2,-.4,-.4,-.4c-.2,0,-.4,.2,-.4,.4c0,.2,.2,.4,.4,.4m1.5,0v0c.3,0,.4,-.2,.4,-.4c0,-.2,-.1,-.4,-.4,-.4c-.2,0,-.3,.2,-.3,.4c0,.2,.1,.4,.3,.4m1.6,0v0c.2,0,.4,-.2,.4,-.4c0,-.2,-.2,-.4,-.4,-.4c-.2,0,-.4,.2,-.4,.4c0,.2,.2,.4,.4,.4m1.5,0v0c.2,0,.4,-.2,.4,-.4c0,-.2,-.2,-.4,-.4,-.4c-.2,0,-.4,.2,-.4,.4c0,.2,.2,.4,.4,.4m1.5,0v0c.2,0,.4,-.2,.4,-.4c0,-.2,-.2,-.4,-.4,-.4c-.2,0,-.3,.2,-.3,.4c0,.2,.1,.4,.3,.4Z" class="g4_16"/>
<path d="M262,1090.3l.3,-.1l.1,-.3l-.1,-.3l-.3,-.1l-.3,.1l-.1,.3l.1,.3Zm45.9,0l.2,-.1l.1,-.3l-.1,-.3l-.2,-.1l-.3,.1l-.1,.3l.1,.3Z" class="g4_16"/>
<path d="M40.9,1111.9v0c.2,0,.4,-.2,.4,-.4c0,-.2,-.2,-.4,-.4,-.4c-.2,0,-.4,.2,-.4,.4c0,.2,.2,.4,.4,.4m1.5,0v0c.2,0,.4,-.2,.4,-.4c0,-.2,-.2,-.4,-.4,-.4c-.2,0,-.4,.2,-.4,.4c0,.2,.2,.4,.4,.4m1.5,0v0c.2,0,.4,-.2,.4,-.4c0,-.2,-.2,-.4,-.4,-.4c-.2,0,-.3,.2,-.3,.4c0,.2,.1,.4,.3,.4m1.6,0v0c.2,0,.3,-.2,.3,-.4c0,-.2,-.1,-.4,-.3,-.4c-.3,0,-.4,.2,-.4,.4c0,.2,.1,.4,.4,.4m1.5,0v0c.2,0,.4,-.2,.4,-.4c0,-.2,-.2,-.4,-.4,-.4c-.2,0,-.4,.2,-.4,.4c0,.2,.2,.4,.4,.4m1.5,0v0c.2,0,.4,-.2,.4,-.4c0,-.2,-.2,-.4,-.4,-.4c-.2,0,-.4,.2,-.4,.4c0,.2,.2,.4,.4,.4m1.5,0v0c.2,0,.4,-.2,.4,-.4c0,-.2,-.2,-.4,-.4,-.4c-.2,0,-.3,.2,-.3,.4c0,.2,.1,.4,.3,.4m1.6,0v0c.2,0,.3,-.2,.3,-.4c0,-.2,-.1,-.4,-.3,-.4c-.3,0,-.4,.2,-.4,.4c0,.2,.1,.4,.4,.4m1.5,0v0c.2,0,.4,-.2,.4,-.4c0,-.2,-.2,-.4,-.4,-.4c-.2,0,-.4,.2,-.4,.4c0,.2,.2,.4,.4,.4m1.5,0v0c.2,0,.4,-.2,.4,-.4c0,-.2,-.2,-.4,-.4,-.4c-.2,0,-.4,.2,-.4,.4c0,.2,.2,.4,.4,.4m1.5,0v0c.2,0,.4,-.2,.4,-.4c0,-.2,-.2,-.4,-.4,-.4c-.2,0,-.3,.2,-.3,.4c0,.2,.1,.4,.3,.4m1.6,0v0c.2,0,.3,-.2,.3,-.4c0,-.2,-.1,-.4,-.3,-.4c-.3,0,-.4,.2,-.4,.4c0,.2,.1,.4,.4,.4m1.5,0v0c.2,0,.4,-.2,.4,-.4c0,-.2,-.2,-.4,-.4,-.4c-.2,0,-.4,.2,-.4,.4c0,.2,.2,.4,.4,.4m1.5,0v0c.2,0,.4,-.2,.4,-.4c0,-.2,-.2,-.4,-.4,-.4c-.2,0,-.4,.2,-.4,.4c0,.2,.2,.4,.4,.4m1.5,0v0c.2,0,.4,-.2,.4,-.4c0,-.2,-.2,-.4,-.4,-.4c-.2,0,-.3,.2,-.3,.4c0,.2,.1,.4,.3,.4m1.6,0v0c.2,0,.3,-.2,.3,-.4c0,-.2,-.1,-.4,-.3,-.4c-.3,0,-.4,.2,-.4,.4c0,.2,.1,.4,.4,.4m1.5,0v0c.2,0,.4,-.2,.4,-.4c0,-.2,-.2,-.4,-.4,-.4c-.2,0,-.4,.2,-.4,.4c0,.2,.2,.4,.4,.4m1.5,0v0c.2,0,.4,-.2,.4,-.4c0,-.2,-.2,-.4,-.4,-.4c-.2,0,-.4,.2,-.4,.4c0,.2,.2,.4,.4,.4m1.5,0v0c.2,0,.4,-.2,.4,-.4c0,-.2,-.2,-.4,-.4,-.4c-.2,0,-.3,.2,-.3,.4c0,.2,.1,.4,.3,.4m1.6,0v0c.2,0,.3,-.2,.3,-.4c0,-.2,-.1,-.4,-.3,-.4c-.3,0,-.4,.2,-.4,.4c0,.2,.1,.4,.4,.4m1.5,0v0c.2,0,.4,-.2,.4,-.4c0,-.2,-.2,-.4,-.4,-.4c-.2,0,-.4,.2,-.4,.4c0,.2,.2,.4,.4,.4m1.5,0v0c.2,0,.4,-.2,.4,-.4c0,-.2,-.2,-.4,-.4,-.4c-.2,0,-.4,.2,-.4,.4c0,.2,.2,.4,.4,.4m1.5,0v0c.2,0,.4,-.2,.4,-.4c0,-.2,-.2,-.4,-.4,-.4c-.2,0,-.3,.2,-.3,.4c0,.2,.1,.4,.3,.4m1.6,0v0c.2,0,.3,-.2,.3,-.4c0,-.2,-.1,-.4,-.3,-.4c-.3,0,-.4,.2,-.4,.4c0,.2,.1,.4,.4,.4m1.5,0v0c.2,0,.4,-.2,.4,-.4c0,-.2,-.2,-.4,-.4,-.4c-.2,0,-.4,.2,-.4,.4c0,.2,.2,.4,.4,.4m1.5,0v0c.2,0,.4,-.2,.4,-.4c0,-.2,-.2,-.4,-.4,-.4c-.2,0,-.4,.2,-.4,.4c0,.2,.2,.4,.4,.4m1.5,0v0c.2,0,.4,-.2,.4,-.4c0,-.2,-.2,-.4,-.4,-.4c-.2,0,-.3,.2,-.3,.4c0,.2,.1,.4,.3,.4m1.6,0v0c.2,0,.3,-.2,.3,-.4c0,-.2,-.1,-.4,-.3,-.4c-.3,0,-.4,.2,-.4,.4c0,.2,.1,.4,.4,.4m1.5,0v0c.2,0,.4,-.2,.4,-.4c0,-.2,-.2,-.4,-.4,-.4c-.2,0,-.4,.2,-.4,.4c0,.2,.2,.4,.4,.4m1.5,0v0c.2,0,.4,-.2,.4,-.4c0,-.2,-.2,-.4,-.4,-.4c-.2,0,-.4,.2,-.4,.4c0,.2,.2,.4,.4,.4m1.5,0v0c.2,0,.4,-.2,.4,-.4c0,-.2,-.2,-.4,-.4,-.4c-.2,0,-.3,.2,-.3,.4c0,.2,.1,.4,.3,.4m1.6,0v0c.2,0,.3,-.2,.3,-.4c0,-.2,-.1,-.4,-.3,-.4c-.3,0,-.4,.2,-.4,.4c0,.2,.1,.4,.4,.4m1.5,0v0c.2,0,.4,-.2,.4,-.4c0,-.2,-.2,-.4,-.4,-.4c-.2,0,-.4,.2,-.4,.4c0,.2,.2,.4,.4,.4m1.5,0v0c.2,0,.4,-.2,.4,-.4c0,-.2,-.2,-.4,-.4,-.4c-.2,0,-.4,.2,-.4,.4c0,.2,.2,.4,.4,.4m1.5,0v0c.2,0,.4,-.2,.4,-.4c0,-.2,-.2,-.4,-.4,-.4c-.2,0,-.3,.2,-.3,.4c0,.2,.1,.4,.3,.4m1.6,0v0c.2,0,.3,-.2,.3,-.4c0,-.2,-.1,-.4,-.3,-.4c-.3,0,-.4,.2,-.4,.4c0,.2,.1,.4,.4,.4m1.5,0v0c.2,0,.4,-.2,.4,-.4c0,-.2,-.2,-.4,-.4,-.4c-.2,0,-.4,.2,-.4,.4c0,.2,.2,.4,.4,.4m1.5,0v0c.2,0,.4,-.2,.4,-.4c0,-.2,-.2,-.4,-.4,-.4c-.2,0,-.4,.2,-.4,.4c0,.2,.2,.4,.4,.4m1.5,0v0c.2,0,.4,-.2,.4,-.4c0,-.2,-.2,-.4,-.4,-.4c-.2,0,-.3,.2,-.3,.4c0,.2,.1,.4,.3,.4m1.6,0v0c.2,0,.3,-.2,.3,-.4c0,-.2,-.1,-.4,-.3,-.4c-.3,0,-.4,.2,-.4,.4c0,.2,.1,.4,.4,.4m1.5,0v0c.2,0,.4,-.2,.4,-.4c0,-.2,-.2,-.4,-.4,-.4c-.2,0,-.4,.2,-.4,.4c0,.2,.2,.4,.4,.4m1.5,0v0c.2,0,.4,-.2,.4,-.4c0,-.2,-.2,-.4,-.4,-.4c-.2,0,-.4,.2,-.4,.4c0,.2,.2,.4,.4,.4m1.5,0v0c.2,0,.4,-.2,.4,-.4c0,-.2,-.2,-.4,-.4,-.4c-.2,0,-.3,.2,-.3,.4c0,.2,.1,.4,.3,.4m1.6,0v0c.2,0,.3,-.2,.3,-.4c0,-.2,-.1,-.4,-.3,-.4c-.3,0,-.4,.2,-.4,.4c0,.2,.1,.4,.4,.4m1.5,0v0c.2,0,.4,-.2,.4,-.4c0,-.2,-.2,-.4,-.4,-.4c-.2,0,-.4,.2,-.4,.4c0,.2,.2,.4,.4,.4m1.5,0v0c.2,0,.4,-.2,.4,-.4c0,-.2,-.2,-.4,-.4,-.4c-.2,0,-.4,.2,-.4,.4c0,.2,.2,.4,.4,.4m1.5,0v0c.2,0,.4,-.2,.4,-.4c0,-.2,-.2,-.4,-.4,-.4c-.2,0,-.3,.2,-.3,.4c0,.2,.1,.4,.3,.4m1.6,0v0c.2,0,.3,-.2,.3,-.4c0,-.2,-.1,-.4,-.3,-.4c-.3,0,-.4,.2,-.4,.4c0,.2,.1,.4,.4,.4m1.5,0v0c.2,0,.4,-.2,.4,-.4c0,-.2,-.2,-.4,-.4,-.4c-.2,0,-.4,.2,-.4,.4c0,.2,.2,.4,.4,.4m1.5,0v0c.2,0,.4,-.2,.4,-.4c0,-.2,-.2,-.4,-.4,-.4c-.2,0,-.4,.2,-.4,.4c0,.2,.2,.4,.4,.4m1.5,0v0c.2,0,.4,-.2,.4,-.4c0,-.2,-.2,-.4,-.4,-.4c-.2,0,-.3,.2,-.3,.4c0,.2,.1,.4,.3,.4m1.6,0v0c.2,0,.3,-.2,.3,-.4c0,-.2,-.1,-.4,-.3,-.4c-.3,0,-.4,.2,-.4,.4c0,.2,.1,.4,.4,.4m1.5,0v0c.2,0,.4,-.2,.4,-.4c0,-.2,-.2,-.4,-.4,-.4c-.2,0,-.4,.2,-.4,.4c0,.2,.2,.4,.4,.4m1.5,0v0c.2,0,.4,-.2,.4,-.4c0,-.2,-.2,-.4,-.4,-.4c-.2,0,-.4,.2,-.4,.4c0,.2,.2,.4,.4,.4m1.5,0v0c.2,0,.4,-.2,.4,-.4c0,-.2,-.2,-.4,-.4,-.4c-.2,0,-.3,.2,-.3,.4c0,.2,.1,.4,.3,.4m1.6,0v0c.2,0,.3,-.2,.3,-.4c0,-.2,-.1,-.4,-.3,-.4c-.3,0,-.4,.2,-.4,.4c0,.2,.1,.4,.4,.4m1.5,0v0c.2,0,.4,-.2,.4,-.4c0,-.2,-.2,-.4,-.4,-.4c-.2,0,-.4,.2,-.4,.4c0,.2,.2,.4,.4,.4m1.5,0v0c.2,0,.4,-.2,.4,-.4c0,-.2,-.2,-.4,-.4,-.4c-.2,0,-.4,.2,-.4,.4c0,.2,.2,.4,.4,.4m1.5,0v0c.2,0,.4,-.2,.4,-.4c0,-.2,-.2,-.4,-.4,-.4c-.2,0,-.3,.2,-.3,.4c0,.2,.1,.4,.3,.4m1.6,0v0c.2,0,.3,-.2,.3,-.4c0,-.2,-.1,-.4,-.3,-.4c-.3,0,-.4,.2,-.4,.4c0,.2,.1,.4,.4,.4m1.5,0v0c.2,0,.4,-.2,.4,-.4c0,-.2,-.2,-.4,-.4,-.4c-.2,0,-.4,.2,-.4,.4c0,.2,.2,.4,.4,.4m1.5,0v0c.2,0,.4,-.2,.4,-.4c0,-.2,-.2,-.4,-.4,-.4c-.2,0,-.4,.2,-.4,.4c0,.2,.2,.4,.4,.4m1.5,0v0c.2,0,.4,-.2,.4,-.4c0,-.2,-.2,-.4,-.4,-.4c-.2,0,-.3,.2,-.3,.4c0,.2,.1,.4,.3,.4m1.6,0v0c.2,0,.3,-.2,.3,-.4c0,-.2,-.1,-.4,-.3,-.4c-.3,0,-.4,.2,-.4,.4c0,.2,.1,.4,.4,.4m1.5,0v0c.2,0,.4,-.2,.4,-.4c0,-.2,-.2,-.4,-.4,-.4c-.2,0,-.4,.2,-.4,.4c0,.2,.2,.4,.4,.4m1.5,0v0c.2,0,.4,-.2,.4,-.4c0,-.2,-.2,-.4,-.4,-.4c-.2,0,-.4,.2,-.4,.4c0,.2,.2,.4,.4,.4m1.5,0v0c.2,0,.4,-.2,.4,-.4c0,-.2,-.2,-.4,-.4,-.4c-.2,0,-.3,.2,-.3,.4c0,.2,.1,.4,.3,.4m1.6,0v0c.2,0,.3,-.2,.3,-.4c0,-.2,-.1,-.4,-.3,-.4c-.3,0,-.4,.2,-.4,.4c0,.2,.1,.4,.4,.4m1.5,0v0c.2,0,.4,-.2,.4,-.4c0,-.2,-.2,-.4,-.4,-.4c-.2,0,-.4,.2,-.4,.4c0,.2,.2,.4,.4,.4m1.5,0v0c.2,0,.4,-.2,.4,-.4c0,-.2,-.2,-.4,-.4,-.4c-.2,0,-.4,.2,-.4,.4c0,.2,.2,.4,.4,.4m1.5,0v0c.2,0,.4,-.2,.4,-.4c0,-.2,-.2,-.4,-.4,-.4c-.2,0,-.3,.2,-.3,.4c0,.2,.1,.4,.3,.4m1.6,0v0c.2,0,.3,-.2,.3,-.4c0,-.2,-.1,-.4,-.3,-.4c-.3,0,-.4,.2,-.4,.4c0,.2,.1,.4,.4,.4m1.5,0v0c.2,0,.4,-.2,.4,-.4c0,-.2,-.2,-.4,-.4,-.4c-.2,0,-.4,.2,-.4,.4c0,.2,.2,.4,.4,.4m1.5,0v0c.2,0,.4,-.2,.4,-.4c0,-.2,-.2,-.4,-.4,-.4c-.2,0,-.4,.2,-.4,.4c0,.2,.2,.4,.4,.4m1.5,0v0c.2,0,.4,-.2,.4,-.4c0,-.2,-.2,-.4,-.4,-.4c-.2,0,-.3,.2,-.3,.4c0,.2,.1,.4,.3,.4m1.6,0v0c.2,0,.3,-.2,.3,-.4c0,-.2,-.1,-.4,-.3,-.4c-.3,0,-.4,.2,-.4,.4c0,.2,.1,.4,.4,.4m1.5,0v0c.2,0,.4,-.2,.4,-.4c0,-.2,-.2,-.4,-.4,-.4c-.2,0,-.4,.2,-.4,.4c0,.2,.2,.4,.4,.4m1.5,0v0c.2,0,.4,-.2,.4,-.4c0,-.2,-.2,-.4,-.4,-.4c-.2,0,-.4,.2,-.4,.4c0,.2,.2,.4,.4,.4m1.5,0v0c.2,0,.4,-.2,.4,-.4c0,-.2,-.2,-.4,-.4,-.4c-.2,0,-.3,.2,-.3,.4c0,.2,.1,.4,.3,.4m1.6,0v0c.2,0,.3,-.2,.3,-.4c0,-.2,-.1,-.4,-.3,-.4c-.3,0,-.4,.2,-.4,.4c0,.2,.1,.4,.4,.4m1.5,0v0c.2,0,.4,-.2,.4,-.4c0,-.2,-.2,-.4,-.4,-.4c-.2,0,-.4,.2,-.4,.4c0,.2,.2,.4,.4,.4m1.5,0v0c.2,0,.4,-.2,.4,-.4c0,-.2,-.2,-.4,-.4,-.4c-.2,0,-.4,.2,-.4,.4c0,.2,.2,.4,.4,.4m1.5,0v0c.2,0,.4,-.2,.4,-.4c0,-.2,-.2,-.4,-.4,-.4c-.2,0,-.3,.2,-.3,.4c0,.2,.1,.4,.3,.4m1.6,0v0c.2,0,.3,-.2,.3,-.4c0,-.2,-.1,-.4,-.3,-.4c-.3,0,-.4,.2,-.4,.4c0,.2,.1,.4,.4,.4m1.5,0v0c.2,0,.4,-.2,.4,-.4c0,-.2,-.2,-.4,-.4,-.4c-.2,0,-.4,.2,-.4,.4c0,.2,.2,.4,.4,.4m1.5,0v0c.2,0,.4,-.2,.4,-.4c0,-.2,-.2,-.4,-.4,-.4c-.2,0,-.4,.2,-.4,.4c0,.2,.2,.4,.4,.4m1.5,0v0c.2,0,.4,-.2,.4,-.4c0,-.2,-.2,-.4,-.4,-.4c-.2,0,-.3,.2,-.3,.4c0,.2,.1,.4,.3,.4m1.6,0v0c.2,0,.3,-.2,.3,-.4c0,-.2,-.1,-.4,-.3,-.4c-.3,0,-.4,.2,-.4,.4c0,.2,.1,.4,.4,.4m1.5,0v0c.2,0,.4,-.2,.4,-.4c0,-.2,-.2,-.4,-.4,-.4c-.2,0,-.4,.2,-.4,.4c0,.2,.2,.4,.4,.4m1.5,0v0c.2,0,.4,-.2,.4,-.4c0,-.2,-.2,-.4,-.4,-.4c-.2,0,-.4,.2,-.4,.4c0,.2,.2,.4,.4,.4m1.5,0v0c.2,0,.4,-.2,.4,-.4c0,-.2,-.2,-.4,-.4,-.4c-.2,0,-.3,.2,-.3,.4c0,.2,.1,.4,.3,.4m1.6,0v0c.2,0,.3,-.2,.3,-.4c0,-.2,-.1,-.4,-.3,-.4c-.3,0,-.4,.2,-.4,.4c0,.2,.1,.4,.4,.4m1.5,0v0c.2,0,.4,-.2,.4,-.4c0,-.2,-.2,-.4,-.4,-.4c-.2,0,-.4,.2,-.4,.4c0,.2,.2,.4,.4,.4m1.5,0v0c.2,0,.4,-.2,.4,-.4c0,-.2,-.2,-.4,-.4,-.4c-.2,0,-.4,.2,-.4,.4c0,.2,.2,.4,.4,.4m1.5,0v0c.2,0,.4,-.2,.4,-.4c0,-.2,-.2,-.4,-.4,-.4c-.2,0,-.3,.2,-.3,.4c0,.2,.1,.4,.3,.4m1.6,0v0c.2,0,.3,-.2,.3,-.4c0,-.2,-.1,-.4,-.3,-.4c-.3,0,-.4,.2,-.4,.4c0,.2,.1,.4,.4,.4m1.5,0v0c.2,0,.4,-.2,.4,-.4c0,-.2,-.2,-.4,-.4,-.4c-.2,0,-.4,.2,-.4,.4c0,.2,.2,.4,.4,.4m1.5,0v0c.2,0,.4,-.2,.4,-.4c0,-.2,-.2,-.4,-.4,-.4c-.2,0,-.4,.2,-.4,.4c0,.2,.2,.4,.4,.4m1.5,0v0c.2,0,.4,-.2,.4,-.4c0,-.2,-.2,-.4,-.4,-.4c-.2,0,-.3,.2,-.3,.4c0,.2,.1,.4,.3,.4m1.6,0v0c.2,0,.3,-.2,.3,-.4c0,-.2,-.1,-.4,-.3,-.4c-.3,0,-.4,.2,-.4,.4c0,.2,.1,.4,.4,.4m1.5,0v0c.2,0,.4,-.2,.4,-.4c0,-.2,-.2,-.4,-.4,-.4c-.2,0,-.4,.2,-.4,.4c0,.2,.2,.4,.4,.4m1.5,0v0c.2,0,.4,-.2,.4,-.4c0,-.2,-.2,-.4,-.4,-.4c-.2,0,-.4,.2,-.4,.4c0,.2,.2,.4,.4,.4m1.5,0v0c.2,0,.4,-.2,.4,-.4c0,-.2,-.2,-.4,-.4,-.4c-.2,0,-.3,.2,-.3,.4c0,.2,.1,.4,.3,.4m1.6,0v0c.2,0,.3,-.2,.3,-.4c0,-.2,-.1,-.4,-.3,-.4c-.3,0,-.4,.2,-.4,.4c0,.2,.1,.4,.4,.4m1.5,0v0c.2,0,.4,-.2,.4,-.4c0,-.2,-.2,-.4,-.4,-.4c-.2,0,-.4,.2,-.4,.4c0,.2,.2,.4,.4,.4m1.5,0v0c.2,0,.4,-.2,.4,-.4c0,-.2,-.2,-.4,-.4,-.4c-.2,0,-.4,.2,-.4,.4c0,.2,.2,.4,.4,.4m1.5,0v0c.2,0,.4,-.2,.4,-.4c0,-.2,-.2,-.4,-.4,-.4c-.2,0,-.3,.2,-.3,.4c0,.2,.1,.4,.3,.4m1.6,0v0c.2,0,.3,-.2,.3,-.4c0,-.2,-.1,-.4,-.3,-.4c-.3,0,-.4,.2,-.4,.4c0,.2,.1,.4,.4,.4m1.5,0v0c.2,0,.4,-.2,.4,-.4c0,-.2,-.2,-.4,-.4,-.4c-.2,0,-.4,.2,-.4,.4c0,.2,.2,.4,.4,.4m1.5,0v0c.2,0,.4,-.2,.4,-.4c0,-.2,-.2,-.4,-.4,-.4c-.2,0,-.4,.2,-.4,.4c0,.2,.2,.4,.4,.4m1.5,0v0c.2,0,.4,-.2,.4,-.4c0,-.2,-.2,-.4,-.4,-.4c-.2,0,-.4,.2,-.4,.4c0,.2,.2,.4,.4,.4m1.6,0v0c.2,0,.3,-.2,.3,-.4c0,-.2,-.1,-.4,-.3,-.4c-.3,0,-.4,.2,-.4,.4c0,.2,.1,.4,.4,.4m1.5,0v0c.2,0,.4,-.2,.4,-.4c0,-.2,-.2,-.4,-.4,-.4c-.2,0,-.4,.2,-.4,.4c0,.2,.2,.4,.4,.4m1.5,0v0c.2,0,.4,-.2,.4,-.4c0,-.2,-.2,-.4,-.4,-.4c-.2,0,-.4,.2,-.4,.4c0,.2,.2,.4,.4,.4m1.5,0v0c.2,0,.4,-.2,.4,-.4c0,-.2,-.2,-.4,-.4,-.4c-.2,0,-.3,.2,-.3,.4c0,.2,.1,.4,.3,.4m1.6,0v0c.2,0,.3,-.2,.3,-.4c0,-.2,-.1,-.4,-.3,-.4c-.3,0,-.4,.2,-.4,.4c0,.2,.1,.4,.4,.4m1.5,0v0c.2,0,.4,-.2,.4,-.4c0,-.2,-.2,-.4,-.4,-.4c-.2,0,-.4,.2,-.4,.4c0,.2,.2,.4,.4,.4m1.5,0v0c.2,0,.4,-.2,.4,-.4c0,-.2,-.2,-.4,-.4,-.4c-.2,0,-.4,.2,-.4,.4c0,.2,.2,.4,.4,.4m1.5,0v0c.2,0,.4,-.2,.4,-.4c0,-.2,-.2,-.4,-.4,-.4c-.2,0,-.3,.2,-.3,.4c0,.2,.1,.4,.3,.4m1.6,0v0c.2,0,.3,-.2,.3,-.4c0,-.2,-.1,-.4,-.3,-.4c-.3,0,-.4,.2,-.4,.4c0,.2,.1,.4,.4,.4m1.5,0v0c.2,0,.4,-.2,.4,-.4c0,-.2,-.2,-.4,-.4,-.4c-.2,0,-.4,.2,-.4,.4c0,.2,.2,.4,.4,.4m1.5,0v0c.2,0,.4,-.2,.4,-.4c0,-.2,-.2,-.4,-.4,-.4c-.2,0,-.4,.2,-.4,.4c0,.2,.2,.4,.4,.4m1.5,0v0c.2,0,.4,-.2,.4,-.4c0,-.2,-.2,-.4,-.4,-.4c-.2,0,-.3,.2,-.3,.4c0,.2,.1,.4,.3,.4m1.6,0v0c.2,0,.3,-.2,.3,-.4c0,-.2,-.1,-.4,-.3,-.4c-.3,0,-.4,.2,-.4,.4c0,.2,.1,.4,.4,.4m1.5,0v0c.2,0,.4,-.2,.4,-.4c0,-.2,-.2,-.4,-.4,-.4c-.2,0,-.4,.2,-.4,.4c0,.2,.2,.4,.4,.4m1.5,0v0c.2,0,.4,-.2,.4,-.4c0,-.2,-.2,-.4,-.4,-.4c-.2,0,-.4,.2,-.4,.4c0,.2,.2,.4,.4,.4m1.5,0v0c.2,0,.4,-.2,.4,-.4c0,-.2,-.2,-.4,-.4,-.4c-.2,0,-.3,.2,-.3,.4c0,.2,.1,.4,.3,.4m1.6,0v0c.2,0,.3,-.2,.3,-.4c0,-.2,-.1,-.4,-.3,-.4c-.3,0,-.4,.2,-.4,.4c0,.2,.1,.4,.4,.4m1.5,0v0c.2,0,.4,-.2,.4,-.4c0,-.2,-.2,-.4,-.4,-.4c-.2,0,-.4,.2,-.4,.4c0,.2,.2,.4,.4,.4m1.5,0v0c.2,0,.4,-.2,.4,-.4c0,-.2,-.2,-.4,-.4,-.4c-.2,0,-.4,.2,-.4,.4c0,.2,.2,.4,.4,.4m1.5,0v0c.2,0,.4,-.2,.4,-.4c0,-.2,-.2,-.4,-.4,-.4c-.2,0,-.3,.2,-.3,.4c0,.2,.1,.4,.3,.4m1.6,0v0c.2,0,.3,-.2,.3,-.4c0,-.2,-.1,-.4,-.3,-.4c-.3,0,-.4,.2,-.4,.4c0,.2,.1,.4,.4,.4m1.5,0v0c.2,0,.4,-.2,.4,-.4c0,-.2,-.2,-.4,-.4,-.4c-.2,0,-.4,.2,-.4,.4c0,.2,.2,.4,.4,.4m1.5,0v0c.2,0,.4,-.2,.4,-.4c0,-.2,-.2,-.4,-.4,-.4c-.2,0,-.4,.2,-.4,.4c0,.2,.2,.4,.4,.4m1.5,0v0c.2,0,.4,-.2,.4,-.4c0,-.2,-.2,-.4,-.4,-.4c-.2,0,-.3,.2,-.3,.4c0,.2,.1,.4,.3,.4m1.6,0v0c.2,0,.3,-.2,.3,-.4c0,-.2,-.1,-.4,-.3,-.4c-.3,0,-.4,.2,-.4,.4c0,.2,.1,.4,.4,.4m1.5,0v0c.2,0,.4,-.2,.4,-.4c0,-.2,-.2,-.4,-.4,-.4c-.2,0,-.4,.2,-.4,.4c0,.2,.2,.4,.4,.4m1.5,0v0c.2,0,.4,-.2,.4,-.4c0,-.2,-.2,-.4,-.4,-.4c-.2,0,-.4,.2,-.4,.4c0,.2,.2,.4,.4,.4m1.5,0v0c.2,0,.4,-.2,.4,-.4c0,-.2,-.2,-.4,-.4,-.4c-.2,0,-.4,.2,-.4,.4c0,.2,.2,.4,.4,.4m1.6,0v0c.2,0,.3,-.2,.3,-.4c0,-.2,-.1,-.4,-.3,-.4c-.3,0,-.4,.2,-.4,.4c0,.2,.1,.4,.4,.4m1.5,0v0c.2,0,.4,-.2,.4,-.4c0,-.2,-.2,-.4,-.4,-.4c-.2,0,-.4,.2,-.4,.4c0,.2,.2,.4,.4,.4m1.5,0v0c.2,0,.4,-.2,.4,-.4c0,-.2,-.2,-.4,-.4,-.4c-.2,0,-.4,.2,-.4,.4c0,.2,.2,.4,.4,.4m1.5,0v0c.2,0,.4,-.2,.4,-.4c0,-.2,-.2,-.4,-.4,-.4c-.2,0,-.3,.2,-.3,.4c0,.2,.1,.4,.3,.4m1.6,0v0c.2,0,.3,-.2,.3,-.4c0,-.2,-.1,-.4,-.3,-.4c-.3,0,-.4,.2,-.4,.4c0,.2,.1,.4,.4,.4m1.5,0v0c.2,0,.4,-.2,.4,-.4c0,-.2,-.2,-.4,-.4,-.4c-.2,0,-.4,.2,-.4,.4c0,.2,.2,.4,.4,.4Z" class="g4_16"/>
<path d="M39.4,1111.9l.2,-.2l.1,-.2l-.1,-.3l-.2,-.1l-.3,.1l-.1,.3l.1,.2Zm222.6,0l.3,-.2l.1,-.2l-.1,-.3l-.3,-.1l-.3,.1l-.1,.3l.1,.2Z" class="g4_16"/>
<path d="M263.5,1111.9v0c.2,0,.4,-.2,.4,-.4c0,-.2,-.2,-.4,-.4,-.4c-.2,0,-.3,.2,-.3,.4c0,.2,.1,.4,.3,.4m1.6,0v0c.2,0,.3,-.2,.3,-.4c0,-.2,-.1,-.4,-.3,-.4c-.2,0,-.4,.2,-.4,.4c0,.2,.2,.4,.4,.4m1.5,0v0c.2,0,.4,-.2,.4,-.4c0,-.2,-.2,-.4,-.4,-.4c-.2,0,-.4,.2,-.4,.4c0,.2,.2,.4,.4,.4m1.5,0v0c.2,0,.4,-.2,.4,-.4c0,-.2,-.2,-.4,-.4,-.4c-.2,0,-.4,.2,-.4,.4c0,.2,.2,.4,.4,.4m1.6,0v0c.2,0,.3,-.2,.3,-.4c0,-.2,-.1,-.4,-.3,-.4c-.3,0,-.4,.2,-.4,.4c0,.2,.1,.4,.4,.4m1.5,0v0c.2,0,.4,-.2,.4,-.4c0,-.2,-.2,-.4,-.4,-.4c-.2,0,-.4,.2,-.4,.4c0,.2,.2,.4,.4,.4m1.5,0v0c.2,0,.4,-.2,.4,-.4c0,-.2,-.2,-.4,-.4,-.4c-.2,0,-.4,.2,-.4,.4c0,.2,.2,.4,.4,.4m1.5,0v0c.2,0,.4,-.2,.4,-.4c0,-.2,-.2,-.4,-.4,-.4c-.2,0,-.3,.2,-.3,.4c0,.2,.1,.4,.3,.4m1.6,0v0c.2,0,.3,-.2,.3,-.4c0,-.2,-.1,-.4,-.3,-.4c-.2,0,-.4,.2,-.4,.4c0,.2,.2,.4,.4,.4m1.5,0v0c.2,0,.4,-.2,.4,-.4c0,-.2,-.2,-.4,-.4,-.4c-.2,0,-.4,.2,-.4,.4c0,.2,.2,.4,.4,.4m1.5,0v0c.2,0,.4,-.2,.4,-.4c0,-.2,-.2,-.4,-.4,-.4c-.2,0,-.4,.2,-.4,.4c0,.2,.2,.4,.4,.4m1.5,0v0c.3,0,.4,-.2,.4,-.4c0,-.2,-.1,-.4,-.4,-.4c-.2,0,-.3,.2,-.3,.4c0,.2,.1,.4,.3,.4m1.6,0v0c.2,0,.4,-.2,.4,-.4c0,-.2,-.2,-.4,-.4,-.4c-.2,0,-.4,.2,-.4,.4c0,.2,.2,.4,.4,.4m1.5,0v0c.2,0,.4,-.2,.4,-.4c0,-.2,-.2,-.4,-.4,-.4c-.2,0,-.4,.2,-.4,.4c0,.2,.2,.4,.4,.4m1.5,0v0c.2,0,.4,-.2,.4,-.4c0,-.2,-.2,-.4,-.4,-.4c-.2,0,-.3,.2,-.3,.4c0,.2,.1,.4,.3,.4m1.6,0v0c.2,0,.3,-.2,.3,-.4c0,-.2,-.1,-.4,-.3,-.4c-.2,0,-.4,.2,-.4,.4c0,.2,.2,.4,.4,.4m1.5,0v0c.2,0,.4,-.2,.4,-.4c0,-.2,-.2,-.4,-.4,-.4c-.2,0,-.4,.2,-.4,.4c0,.2,.2,.4,.4,.4m1.5,0v0c.2,0,.4,-.2,.4,-.4c0,-.2,-.2,-.4,-.4,-.4c-.2,0,-.4,.2,-.4,.4c0,.2,.2,.4,.4,.4m1.5,0v0c.3,0,.4,-.2,.4,-.4c0,-.2,-.1,-.4,-.4,-.4c-.2,0,-.3,.2,-.3,.4c0,.2,.1,.4,.3,.4m1.6,0v0c.2,0,.4,-.2,.4,-.4c0,-.2,-.2,-.4,-.4,-.4c-.2,0,-.4,.2,-.4,.4c0,.2,.2,.4,.4,.4m1.5,0v0c.2,0,.4,-.2,.4,-.4c0,-.2,-.2,-.4,-.4,-.4c-.2,0,-.4,.2,-.4,.4c0,.2,.2,.4,.4,.4m1.5,0v0c.2,0,.4,-.2,.4,-.4c0,-.2,-.2,-.4,-.4,-.4c-.2,0,-.3,.2,-.3,.4c0,.2,.1,.4,.3,.4m1.6,0v0c.2,0,.3,-.2,.3,-.4c0,-.2,-.1,-.4,-.3,-.4c-.2,0,-.4,.2,-.4,.4c0,.2,.2,.4,.4,.4m1.5,0v0c.2,0,.4,-.2,.4,-.4c0,-.2,-.2,-.4,-.4,-.4c-.2,0,-.4,.2,-.4,.4c0,.2,.2,.4,.4,.4m1.5,0v0c.2,0,.4,-.2,.4,-.4c0,-.2,-.2,-.4,-.4,-.4c-.2,0,-.4,.2,-.4,.4c0,.2,.2,.4,.4,.4m1.5,0v0c.3,0,.4,-.2,.4,-.4c0,-.2,-.1,-.4,-.4,-.4c-.2,0,-.3,.2,-.3,.4c0,.2,.1,.4,.3,.4m1.6,0v0c.2,0,.4,-.2,.4,-.4c0,-.2,-.2,-.4,-.4,-.4c-.2,0,-.4,.2,-.4,.4c0,.2,.2,.4,.4,.4m1.5,0v0c.2,0,.4,-.2,.4,-.4c0,-.2,-.2,-.4,-.4,-.4c-.2,0,-.4,.2,-.4,.4c0,.2,.2,.4,.4,.4m1.5,0v0c.2,0,.4,-.2,.4,-.4c0,-.2,-.2,-.4,-.4,-.4c-.2,0,-.3,.2,-.3,.4c0,.2,.1,.4,.3,.4Z" class="g4_16"/>
<path d="M262,1111.9l.3,-.2l.1,-.2l-.1,-.3l-.3,-.1l-.3,.1l-.1,.3l.1,.2Zm45.9,0l.2,-.2l.1,-.2l-.1,-.3l-.2,-.1l-.3,.1l-.1,.3l.1,.2Z" class="g4_16"/>
<path d="M243.9,1193.5v-25.1h-.7v25.1Z" class="g7_16"/>
<path d="M179.2,1167.6v-22.4h-.7v22.4Z" class="g7_16"/>
<path d="M179.2,1193.5v-25.9h-.7v25.9Z" class="g7_16"/>
<path d="M179.2,1213.4v-17.6h-.7v17.6Z" class="g7_16"/>
<path d="M179.6,1213.8v0l.2,-.2l-.2,-.2l-.2,.2Zm.8,0v0l.2,-.2l-.2,-.2l-.2,.2Zm.7,0v0l.2,-.2l-.2,-.2l-.1,.2Zm.8,0v0l.2,-.2l-.2,-.2l-.2,.2Zm.8,0v0l.2,-.2l-.2,-.2l-.2,.2Zm.7,0v0l.2,-.2l-.2,-.2l-.2,.2Zm.8,0v0l.2,-.2l-.2,-.2l-.2,.2Zm.7,0v0l.2,-.2l-.2,-.2l-.1,.2Zm.8,0v0l.2,-.2l-.2,-.2l-.2,.2Zm.8,0v0l.2,-.2l-.2,-.2l-.2,.2Zm.7,0v0l.2,-.2l-.2,-.2l-.2,.2Zm.8,0v0l.2,-.2l-.2,-.2l-.2,.2Zm.8,0v0l.1,-.2l-.1,-.2l-.2,.2Zm.7,0v0l.2,-.2l-.2,-.2l-.2,.2Zm.8,0v0l.2,-.2l-.2,-.2l-.2,.2Zm.7,0v0l.2,-.2l-.2,-.2l-.2,.2Zm.8,0v0l.2,-.2l-.2,-.2l-.2,.2Zm.8,0v0l.1,-.2l-.1,-.2l-.2,.2Zm.7,0v0l.2,-.2l-.2,-.2l-.2,.2Zm.8,0v0l.2,-.2l-.2,-.2l-.2,.2Zm.7,0v0l.2,-.2l-.2,-.2l-.2,.2Zm.8,0v0l.2,-.2l-.2,-.2l-.2,.2Zm.8,0v0l.2,-.2l-.2,-.2l-.2,.2Zm.7,0v0l.2,-.2l-.2,-.2l-.2,.2Zm.8,0v0l.2,-.2l-.2,-.2l-.2,.2Zm.7,0v0l.2,-.2l-.2,-.2l-.1,.2Zm.8,0v0l.2,-.2l-.2,-.2l-.2,.2Zm.8,0v0l.2,-.2l-.2,-.2l-.2,.2Zm.7,0v0l.2,-.2l-.2,-.2l-.2,.2Zm.8,0v0l.2,-.2l-.2,-.2l-.2,.2Zm.8,0v0l.1,-.2l-.1,-.2l-.2,.2Zm.7,0v0l.2,-.2l-.2,-.2l-.2,.2Zm.8,0v0l.2,-.2l-.2,-.2l-.2,.2Zm.7,0v0l.2,-.2l-.2,-.2l-.2,.2Zm.8,0v0l.2,-.2l-.2,-.2l-.2,.2Zm.8,0v0l.1,-.2l-.1,-.2l-.2,.2Zm.7,0v0l.2,-.2l-.2,-.2l-.2,.2Zm.8,0v0l.2,-.2l-.2,-.2l-.2,.2Zm.7,0v0l.2,-.2l-.2,-.2l-.2,.2Zm.8,0v0l.2,-.2l-.2,-.2l-.2,.2Zm.8,0v0l.2,-.2l-.2,-.2l-.2,.2Zm.7,0v0l.2,-.2l-.2,-.2l-.2,.2Zm.8,0v0l.2,-.2l-.2,-.2l-.2,.2Zm.7,0v0l.2,-.2l-.2,-.2l-.1,.2Zm.8,0v0l.2,-.2l-.2,-.2l-.2,.2Zm.8,0v0l.2,-.2l-.2,-.2l-.2,.2Zm.7,0v0l.2,-.2l-.2,-.2l-.2,.2Zm.8,0v0l.2,-.2l-.2,-.2l-.2,.2Zm.7,0v0l.2,-.2l-.2,-.2l-.1,.2Zm.8,0v0l.2,-.2l-.2,-.2l-.2,.2Zm.8,0v0l.2,-.2l-.2,-.2l-.2,.2Zm.7,0v0l.2,-.2l-.2,-.2l-.2,.2Zm.8,0v0l.2,-.2l-.2,-.2l-.2,.2Zm.8,0v0l.1,-.2l-.1,-.2l-.2,.2Zm.7,0v0l.2,-.2l-.2,-.2l-.2,.2Zm.8,0v0l.2,-.2l-.2,-.2l-.2,.2Zm.7,0v0l.2,-.2l-.2,-.2l-.2,.2Zm.8,0v0l.2,-.2l-.2,-.2l-.2,.2Zm.8,0v0l.2,-.2l-.2,-.2l-.2,.2Zm.7,0v0l.2,-.2l-.2,-.2l-.2,.2Zm.8,0v0l.2,-.2l-.2,-.2l-.2,.2Zm.7,0v0l.2,-.2l-.2,-.2l-.1,.2Zm.8,0v0l.2,-.2l-.2,-.2l-.2,.2Zm.8,0v0l.2,-.2l-.2,-.2l-.2,.2Zm.7,0v0l.2,-.2l-.2,-.2l-.2,.2Zm.8,0v0l.2,-.2l-.2,-.2l-.2,.2Zm.7,0v0l.2,-.2l-.2,-.2l-.1,.2Zm.8,0v0l.2,-.2l-.2,-.2l-.2,.2Zm.8,0v0l.2,-.2l-.2,-.2l-.2,.2Zm.7,0v0l.2,-.2l-.2,-.2l-.2,.2Zm.8,0v0l.2,-.2l-.2,-.2l-.2,.2Zm.8,0v0l.1,-.2l-.1,-.2l-.2,.2Zm.7,0v0l.2,-.2l-.2,-.2l-.2,.2Zm.8,0v0l.2,-.2l-.2,-.2l-.2,.2Zm.7,0v0l.2,-.2l-.2,-.2l-.2,.2Zm.8,0v0l.2,-.2l-.2,-.2l-.2,.2Zm.8,0v0l.2,-.2l-.2,-.2l-.2,.2Zm.7,0v0l.2,-.2l-.2,-.2l-.2,.2Zm.8,0v0l.2,-.2l-.2,-.2l-.2,.2Zm.7,0v0l.2,-.2l-.2,-.2l-.1,.2Zm.8,0v0l.2,-.2l-.2,-.2l-.2,.2Zm.8,0v0l.2,-.2l-.2,-.2l-.2,.2Zm.7,0v0l.2,-.2l-.2,-.2l-.2,.2Zm.8,0v0l.2,-.2l-.2,-.2l-.2,.2Z" class="g3_16"/>
<path d="M178.9,1213.8l.1,-.1v-.2l-.1,-.1l-.2,.1v.2Zm64.6,0l.2,-.1v-.2l-.2,-.1l-.1,.1v.2Z" class="g3_16"/>
<path d="M244.3,1213.8v0l.2,-.2l-.2,-.2l-.2,.2Zm.8,0v0l.2,-.2l-.2,-.2l-.2,.2Zm.8,0v0l.1,-.2l-.1,-.2l-.2,.2Zm.7,0v0l.2,-.2l-.2,-.2l-.2,.2Zm.8,0v0l.2,-.2l-.2,-.2l-.2,.2Zm.8,0v0l.1,-.2l-.1,-.2l-.2,.2Zm.7,0v0l.2,-.2l-.2,-.2l-.2,.2Zm.8,0v0l.2,-.2l-.2,-.2l-.2,.2Zm.8,0v0l.2,-.2l-.2,-.2l-.2,.2Zm.7,0v0l.2,-.2l-.2,-.2l-.2,.2Zm.8,0v0l.2,-.2l-.2,-.2l-.2,.2Zm.8,0v0l.2,-.2l-.2,-.2l-.2,.2Zm.7,0v0l.2,-.2l-.2,-.2l-.2,.2Zm.8,0v0l.2,-.2l-.2,-.2l-.2,.2Zm.8,0v0l.2,-.2l-.2,-.2l-.2,.2Zm.7,0v0l.2,-.2l-.2,-.2l-.2,.2Zm.8,0v0l.2,-.2l-.2,-.2l-.2,.2Zm.8,0v0l.2,-.2l-.2,-.2l-.2,.2Zm.7,0v0l.2,-.2l-.2,-.2l-.2,.2Zm.8,0v0l.2,-.2l-.2,-.2l-.2,.2Zm.8,0v0l.2,-.2l-.2,-.2l-.2,.2Zm.7,0v0l.2,-.2l-.2,-.2l-.1,.2Zm.8,0v0l.2,-.2l-.2,-.2l-.2,.2Zm.8,0v0l.2,-.2l-.2,-.2l-.2,.2Zm.7,0v0l.2,-.2l-.2,-.2l-.1,.2Zm.8,0v0l.2,-.2l-.2,-.2l-.2,.2Zm.8,0v0l.2,-.2l-.2,-.2l-.2,.2Zm.7,0v0l.2,-.2l-.2,-.2l-.1,.2Zm.8,0v0l.2,-.2l-.2,-.2l-.2,.2Zm.8,0v0l.2,-.2l-.2,-.2l-.2,.2Zm.8,0v0l.1,-.2l-.1,-.2l-.2,.2Zm.7,0v0l.2,-.2l-.2,-.2l-.2,.2Zm.8,0v0l.2,-.2l-.2,-.2l-.2,.2Zm.8,0v0l.1,-.2l-.1,-.2l-.2,.2Zm.7,0v0l.2,-.2l-.2,-.2l-.2,.2Zm.8,0v0l.2,-.2l-.2,-.2l-.2,.2Zm.8,0v0l.2,-.2l-.2,-.2l-.2,.2Zm.7,0v0l.2,-.2l-.2,-.2l-.2,.2Zm.8,0v0l.2,-.2l-.2,-.2l-.2,.2Zm.8,0v0l.2,-.2l-.2,-.2l-.2,.2Zm.7,0v0l.2,-.2l-.2,-.2l-.2,.2Zm.8,0v0l.2,-.2l-.2,-.2l-.2,.2Zm.8,0v0l.2,-.2l-.2,-.2l-.2,.2Zm.7,0v0l.2,-.2l-.2,-.2l-.2,.2Zm.8,0v0l.2,-.2l-.2,-.2l-.2,.2Zm.8,0v0l.2,-.2l-.2,-.2l-.2,.2Zm.7,0v0l.2,-.2l-.2,-.2l-.2,.2Zm.8,0v0l.2,-.2l-.2,-.2l-.2,.2Zm.8,0v0l.2,-.2l-.2,-.2l-.2,.2Zm.7,0v0l.2,-.2l-.2,-.2l-.1,.2Zm.8,0v0l.2,-.2l-.2,-.2l-.2,.2Zm.8,0v0l.2,-.2l-.2,-.2l-.2,.2Zm.7,0v0l.2,-.2l-.2,-.2l-.1,.2Zm.8,0v0l.2,-.2l-.2,-.2l-.2,.2Zm.8,0v0l.2,-.2l-.2,-.2l-.2,.2Zm.7,0v0l.2,-.2l-.2,-.2l-.1,.2Zm.8,0v0l.2,-.2l-.2,-.2l-.2,.2Zm.8,0v0l.2,-.2l-.2,-.2l-.2,.2Zm.8,0v0l.1,-.2l-.1,-.2l-.2,.2Zm.7,0v0l.2,-.2l-.2,-.2l-.2,.2Zm.8,0v0l.2,-.2l-.2,-.2l-.2,.2Zm.8,0v0l.1,-.2l-.1,-.2l-.2,.2Zm.7,0v0l.2,-.2l-.2,-.2l-.2,.2Zm.8,0v0l.2,-.2l-.2,-.2l-.2,.2Zm.8,0v0l.2,-.2l-.2,-.2l-.2,.2Zm.7,0v0l.2,-.2l-.2,-.2l-.2,.2Zm.8,0v0l.2,-.2l-.2,-.2l-.2,.2Zm.8,0v0l.2,-.2l-.2,-.2l-.2,.2Zm.7,0v0l.2,-.2l-.2,-.2l-.2,.2Zm.8,0v0l.2,-.2l-.2,-.2l-.2,.2Zm.8,0v0l.2,-.2l-.2,-.2l-.2,.2Zm.7,0v0l.2,-.2l-.2,-.2l-.2,.2Zm.8,0v0l.2,-.2l-.2,-.2l-.2,.2Zm.8,0v0l.2,-.2l-.2,-.2l-.2,.2Zm.7,0v0l.2,-.2l-.2,-.2l-.2,.2Zm.8,0v0l.2,-.2l-.2,-.2l-.2,.2Zm.8,0v0l.2,-.2l-.2,-.2l-.2,.2Zm.7,0v0l.2,-.2l-.2,-.2l-.1,.2Zm.8,0v0l.2,-.2l-.2,-.2l-.2,.2Zm.8,0v0l.2,-.2l-.2,-.2l-.2,.2Zm.7,0v0l.2,-.2l-.2,-.2l-.1,.2Zm.8,0v0l.2,-.2l-.2,-.2l-.2,.2Zm.8,0v0l.2,-.2l-.2,-.2l-.2,.2Z" class="g3_16"/>
<path d="M243.5,1213.8l.2,-.1v-.2l-.2,-.1l-.1,.1v.2Zm64.5,0l.2,-.1v-.2l-.2,-.1l-.1,.1v.2Z" class="g3_16"/>
<path d="M179.2,1244.6v-30.8h-.7v30.8Z" class="g7_16"/>
<path d="M39.9,1213.8v0l.2,-.2l-.2,-.2l-.2,.2Zm.8,0v0l.2,-.2l-.2,-.2l-.2,.2Zm.8,0v0l.1,-.2l-.1,-.2l-.2,.2Zm.7,0v0l.2,-.2l-.2,-.2l-.2,.2Zm.8,0v0l.2,-.2l-.2,-.2l-.2,.2Zm.7,0v0l.2,-.2l-.2,-.2l-.1,.2Zm.8,0v0l.2,-.2l-.2,-.2l-.2,.2Zm.8,0v0l.2,-.2l-.2,-.2l-.2,.2Zm.7,0v0l.2,-.2l-.2,-.2l-.2,.2Zm.8,0v0l.2,-.2l-.2,-.2l-.2,.2Zm.8,0v0l.2,-.2l-.2,-.2l-.2,.2Zm.7,0v0l.2,-.2l-.2,-.2l-.2,.2Zm.8,0v0l.2,-.2l-.2,-.2l-.2,.2Zm.8,0v0l.1,-.2l-.1,-.2l-.2,.2Zm.7,0v0l.2,-.2l-.2,-.2l-.2,.2Zm.8,0v0l.2,-.2l-.2,-.2l-.2,.2Zm.7,0v0l.2,-.2l-.2,-.2l-.2,.2Zm.8,0v0l.2,-.2l-.2,-.2l-.2,.2Zm.8,0v0l.2,-.2l-.2,-.2l-.2,.2Zm.7,0v0l.2,-.2l-.2,-.2l-.2,.2Zm.8,0v0l.2,-.2l-.2,-.2l-.2,.2Zm.8,0v0l.1,-.2l-.1,-.2l-.2,.2Zm.7,0v0l.2,-.2l-.2,-.2l-.2,.2Zm.8,0v0l.2,-.2l-.2,-.2l-.2,.2Zm.7,0v0l.2,-.2l-.2,-.2l-.1,.2Zm.8,0v0l.2,-.2l-.2,-.2l-.2,.2Zm.8,0v0l.2,-.2l-.2,-.2l-.2,.2Zm.7,0v0l.2,-.2l-.2,-.2l-.2,.2Zm.8,0v0l.2,-.2l-.2,-.2l-.2,.2Zm.8,0v0l.2,-.2l-.2,-.2l-.2,.2Zm.7,0v0l.2,-.2l-.2,-.2l-.2,.2Zm.8,0v0l.2,-.2l-.2,-.2l-.2,.2Zm.8,0v0l.1,-.2l-.1,-.2l-.2,.2Zm.7,0v0l.2,-.2l-.2,-.2l-.2,.2Zm.8,0v0l.2,-.2l-.2,-.2l-.2,.2Zm.7,0v0l.2,-.2l-.2,-.2l-.1,.2Zm.8,0v0l.2,-.2l-.2,-.2l-.2,.2Zm.8,0v0l.2,-.2l-.2,-.2l-.2,.2Zm.7,0v0l.2,-.2l-.2,-.2l-.2,.2Zm.8,0v0l.2,-.2l-.2,-.2l-.2,.2Zm.8,0v0l.2,-.2l-.2,-.2l-.2,.2Zm.7,0v0l.2,-.2l-.2,-.2l-.2,.2Zm.8,0v0l.2,-.2l-.2,-.2l-.2,.2Zm.8,0v0l.1,-.2l-.1,-.2l-.2,.2Zm.7,0v0l.2,-.2l-.2,-.2l-.2,.2Zm.8,0v0l.2,-.2l-.2,-.2l-.2,.2Zm.7,0v0l.2,-.2l-.2,-.2l-.1,.2Zm.8,0v0l.2,-.2l-.2,-.2l-.2,.2Zm.8,0v0l.2,-.2l-.2,-.2l-.2,.2Zm.7,0v0l.2,-.2l-.2,-.2l-.2,.2Zm.8,0v0l.2,-.2l-.2,-.2l-.2,.2Zm.8,0v0l.1,-.2l-.1,-.2l-.2,.2Zm.7,0v0l.2,-.2l-.2,-.2l-.2,.2Zm.8,0v0l.2,-.2l-.2,-.2l-.2,.2Zm.7,0v0l.2,-.2l-.2,-.2l-.1,.2Zm.8,0v0l.2,-.2l-.2,-.2l-.2,.2Zm.8,0v0l.2,-.2l-.2,-.2l-.2,.2Zm.7,0v0l.2,-.2l-.2,-.2l-.2,.2Zm.8,0v0l.2,-.2l-.2,-.2l-.2,.2Zm.8,0v0l.2,-.2l-.2,-.2l-.2,.2Zm.7,0v0l.2,-.2l-.2,-.2l-.2,.2Zm.8,0v0l.2,-.2l-.2,-.2l-.2,.2Zm.8,0v0l.1,-.2l-.1,-.2l-.2,.2Zm.7,0v0l.2,-.2l-.2,-.2l-.2,.2Zm.8,0v0l.2,-.2l-.2,-.2l-.2,.2Zm.7,0v0l.2,-.2l-.2,-.2l-.1,.2Zm.8,0v0l.2,-.2l-.2,-.2l-.2,.2Zm.8,0v0l.2,-.2l-.2,-.2l-.2,.2Zm.7,0v0l.2,-.2l-.2,-.2l-.2,.2Zm.8,0v0l.2,-.2l-.2,-.2l-.2,.2Zm.8,0v0l.2,-.2l-.2,-.2l-.2,.2Zm.7,0v0l.2,-.2l-.2,-.2l-.2,.2Zm.8,0v0l.2,-.2l-.2,-.2l-.2,.2Zm.8,0v0l.1,-.2l-.1,-.2l-.2,.2Zm.7,0v0l.2,-.2l-.2,-.2l-.2,.2Zm.8,0v0l.2,-.2l-.2,-.2l-.2,.2Zm.7,0v0l.2,-.2l-.2,-.2l-.1,.2Zm.8,0v0l.2,-.2l-.2,-.2l-.2,.2Zm.8,0v0l.2,-.2l-.2,-.2l-.2,.2Zm.7,0v0l.2,-.2l-.2,-.2l-.2,.2Zm.8,0v0l.2,-.2l-.2,-.2l-.2,.2Zm.8,0v0l.2,-.2l-.2,-.2l-.2,.2Zm.7,0v0l.2,-.2l-.2,-.2l-.2,.2Zm.8,0v0l.2,-.2l-.2,-.2l-.2,.2Zm.7,0v0l.2,-.2l-.2,-.2l-.1,.2Zm.8,0v0l.2,-.2l-.2,-.2l-.2,.2Zm.8,0v0l.2,-.2l-.2,-.2l-.2,.2Zm.7,0v0l.2,-.2l-.2,-.2l-.2,.2Zm.8,0v0l.2,-.2l-.2,-.2l-.2,.2Zm.8,0v0l.2,-.2l-.2,-.2l-.2,.2Zm.7,0v0l.2,-.2l-.2,-.2l-.2,.2Zm.8,0v0l.2,-.2l-.2,-.2l-.2,.2Zm.8,0v0l.1,-.2l-.1,-.2l-.2,.2Zm.7,0v0l.2,-.2l-.2,-.2l-.2,.2Zm.8,0v0l.2,-.2l-.2,-.2l-.2,.2Zm.7,0v0l.2,-.2l-.2,-.2l-.1,.2Zm.8,0v0l.2,-.2l-.2,-.2l-.2,.2Zm.8,0v0l.2,-.2l-.2,-.2l-.2,.2Zm.7,0v0l.2,-.2l-.2,-.2l-.2,.2Zm.8,0v0l.2,-.2l-.2,-.2l-.2,.2Zm.8,0v0l.2,-.2l-.2,-.2l-.2,.2Zm.7,0v0l.2,-.2l-.2,-.2l-.2,.2Zm.8,0v0l.2,-.2l-.2,-.2l-.2,.2Zm.8,0v0l.1,-.2l-.1,-.2l-.2,.2Zm.7,0v0l.2,-.2l-.2,-.2l-.2,.2Zm.8,0v0l.2,-.2l-.2,-.2l-.2,.2Zm.7,0v0l.2,-.2l-.2,-.2l-.1,.2Zm.8,0v0l.2,-.2l-.2,-.2l-.2,.2Zm.8,0v0l.2,-.2l-.2,-.2l-.2,.2Zm.7,0v0l.2,-.2l-.2,-.2l-.2,.2Zm.8,0v0l.2,-.2l-.2,-.2l-.2,.2Zm.8,0v0l.2,-.2l-.2,-.2l-.2,.2Zm.7,0v0l.2,-.2l-.2,-.2l-.2,.2Zm.8,0v0l.2,-.2l-.2,-.2l-.2,.2Zm.7,0v0l.2,-.2l-.2,-.2l-.1,.2Zm.8,0v0l.2,-.2l-.2,-.2l-.2,.2Zm.8,0v0l.2,-.2l-.2,-.2l-.2,.2Zm.7,0v0l.2,-.2l-.2,-.2l-.2,.2Zm.8,0v0l.2,-.2l-.2,-.2l-.2,.2Zm.8,0v0l.2,-.2l-.2,-.2l-.2,.2Zm.7,0v0l.2,-.2l-.2,-.2l-.2,.2Zm.8,0v0l.2,-.2l-.2,-.2l-.2,.2Zm.8,0v0l.1,-.2l-.1,-.2l-.2,.2Zm.7,0v0l.2,-.2l-.2,-.2l-.2,.2Zm.8,0v0l.2,-.2l-.2,-.2l-.2,.2Zm.7,0v0l.2,-.2l-.2,-.2l-.1,.2Zm.8,0v0l.2,-.2l-.2,-.2l-.2,.2Zm.8,0v0l.2,-.2l-.2,-.2l-.2,.2Zm.7,0v0l.2,-.2l-.2,-.2l-.2,.2Zm.8,0v0l.2,-.2l-.2,-.2l-.2,.2Zm.8,0v0l.2,-.2l-.2,-.2l-.2,.2Zm.7,0v0l.2,-.2l-.2,-.2l-.2,.2Zm.8,0v0l.2,-.2l-.2,-.2l-.2,.2Zm.8,0v0l.1,-.2l-.1,-.2l-.2,.2Zm.7,0v0l.2,-.2l-.2,-.2l-.2,.2Zm.8,0v0l.2,-.2l-.2,-.2l-.2,.2Zm.7,0v0l.2,-.2l-.2,-.2l-.1,.2Zm.8,0v0l.2,-.2l-.2,-.2l-.2,.2Zm.8,0v0l.2,-.2l-.2,-.2l-.2,.2Zm.7,0v0l.2,-.2l-.2,-.2l-.2,.2Zm.8,0v0l.2,-.2l-.2,-.2l-.2,.2Zm.8,0v0l.2,-.2l-.2,-.2l-.2,.2Zm.7,0v0l.2,-.2l-.2,-.2l-.2,.2Zm.8,0v0l.2,-.2l-.2,-.2l-.2,.2Zm.8,0v0l.1,-.2l-.1,-.2l-.2,.2Zm.7,0v0l.2,-.2l-.2,-.2l-.2,.2Zm.8,0v0l.2,-.2l-.2,-.2l-.2,.2Zm.7,0v0l.2,-.2l-.2,-.2l-.1,.2Zm.8,0v0l.2,-.2l-.2,-.2l-.2,.2Zm.8,0v0l.2,-.2l-.2,-.2l-.2,.2Zm.7,0v0l.2,-.2l-.2,-.2l-.2,.2Zm.8,0v0l.2,-.2l-.2,-.2l-.2,.2Zm.8,0v0l.1,-.2l-.1,-.2l-.2,.2Zm.7,0v0l.2,-.2l-.2,-.2l-.2,.2Zm.8,0v0l.2,-.2l-.2,-.2l-.2,.2Zm.7,0v0l.2,-.2l-.2,-.2l-.1,.2Zm.8,0v0l.2,-.2l-.2,-.2l-.2,.2Zm.8,0v0l.2,-.2l-.2,-.2l-.2,.2Zm.7,0v0l.2,-.2l-.2,-.2l-.2,.2Zm.8,0v0l.2,-.2l-.2,-.2l-.2,.2Zm.8,0v0l.2,-.2l-.2,-.2l-.2,.2Zm.7,0v0l.2,-.2l-.2,-.2l-.2,.2Zm.8,0v0l.2,-.2l-.2,-.2l-.2,.2Zm.8,0v0l.1,-.2l-.1,-.2l-.2,.2Zm.7,0v0l.2,-.2l-.2,-.2l-.2,.2Zm.8,0v0l.2,-.2l-.2,-.2l-.2,.2Zm.7,0v0l.2,-.2l-.2,-.2l-.1,.2Zm.8,0v0l.2,-.2l-.2,-.2l-.2,.2Zm.8,0v0l.2,-.2l-.2,-.2l-.2,.2Zm.7,0v0l.2,-.2l-.2,-.2l-.2,.2Zm.8,0v0l.2,-.2l-.2,-.2l-.2,.2Zm.8,0v0l.2,-.2l-.2,-.2l-.2,.2Zm.7,0v0l.2,-.2l-.2,-.2l-.2,.2Zm.8,0v0l.2,-.2l-.2,-.2l-.2,.2Zm.8,0v0l.1,-.2l-.1,-.2l-.2,.2Zm.7,0v0l.2,-.2l-.2,-.2l-.2,.2Zm.8,0v0l.2,-.2l-.2,-.2l-.2,.2Zm.7,0v0l.2,-.2l-.2,-.2l-.2,.2Zm.8,0v0l.2,-.2l-.2,-.2l-.2,.2Zm.8,0v0l.2,-.2l-.2,-.2l-.2,.2Zm.7,0v0l.2,-.2l-.2,-.2l-.2,.2Zm.8,0v0l.2,-.2l-.2,-.2l-.2,.2Z" class="g3_16"/>
<g clip-path="url(#c4_16)">
<path d="M39.2,1213.8l.1,-.1l.1,-.1l-.1,-.1l-.1,-.1l-.2,.1v.2Zm139.7,0l.1,-.1v-.2l-.1,-.1l-.2,.1v.2Z" class="g3_16"/>
<path d="M39,1195.8H178.9v-2.3H39Z" class="g3_16"/>
</g>
<path d="M178.9,1195.8h64.6v-2.3H178.9Z" class="g3_16"/>
<path d="M243.5,1195.8h64.7v-2.3H243.5Z" class="g3_16"/>
<path d="M179.2,1168.4h64.3v-1.6H179.2Z" class="g4_16"/>
<path d="M243.5,1168.4h64.7v-1.6H243.5Z" class="g4_16"/>
<path d="M243.9,1166.8v-21.6h-.7v21.6Z" class="g7_16"/>
</svg>