<?xml version="1.0" encoding="UTF-8" standalone="no"?>
<!DOCTYPE svg PUBLIC "-//W3C//DTD SVG 1.1//EN"
"http://www.w3.org/Graphics/SVG/1.1/DTD/svg11.dtd">
<svg viewBox="0 0 1818 1286" version="1.1" xmlns="http://www.w3.org/2000/svg" xmlns:xlink="http://www.w3.org/1999/xlink">
<defs>
<clipPath id="c0_2"><path d="M909.4,1286.2V0h909.5V1286.2Z"/></clipPath>
<clipPath id="c1_2"><path d="M264.8,322.1C184,322.1,118.5,256.6,118.5,175.8C118.5,95,184,29.5,264.8,29.5c80.8,0,146.3,65.5,146.3,146.3c0,80.8,-65.5,146.3,-146.3,146.3Z"/></clipPath>
<style type="text/css"><![CDATA[
.g0_2{
fill: #252123;
}
.g1_2{
fill: #FFF;
}
.g2_2{
fill: none;
stroke: #000;
stroke-width: 0.47;
}
.g3_2{
fill: none;
stroke: #FFF;
stroke-width: 0.47;
}
.g4_2{
fill: #59B1E4;
}
.g5_2{
fill: none;
stroke: #000;
stroke-width: 3.765;
}
.g6_2{
fill: none;
stroke: #FFF;
stroke-width: 3.765;
}
.g7_2{
fill: none;
stroke: #009BCE;
stroke-width: 3.101;
}
.g8_2{
fill: none;
stroke: #FFF;
stroke-width: 1.527;
}
]]></style>
</defs>
<path d="M909.4,1286.2h909.5V0H909.4V1286.2Z" class="g0_2"/>
<image clip-path="url(#c0_2)" preserveAspectRatio="none" x="909" y="0" width="910" height="1286" xlink:href="img/1.jpg"/>
<path d="M0,1286.2H909.4V0H0V1286.2Z" class="g0_2"/>
<path d="M62.7,1286.2H466.9V0H62.7V1286.2Z" class="g1_2"/>
<image clip-path="url(#c1_2)" preserveAspectRatio="none" x="118" y="29" width="293" height="293" xlink:href="img/2.jpg"/>
<path d="M264.8,322.1c80.8,0,146.3,-65.5,146.3,-146.3C411.1,95,345.6,29.5,264.8,29.5C184,29.5,118.5,95,118.5,175.8c0,80.8,65.5,146.3,146.3,146.3Z" class="g2_2"/>
<path d="M727.9,423.7c80.8,0,146.3,-65.5,146.3,-146.3c0,-80.8,-65.5,-146.3,-146.3,-146.3c-80.8,0,-146.3,65.5,-146.3,146.3c0,80.8,65.5,146.3,146.3,146.3Z" class="g3_2"/>
<path d="M654.7,769.4C735.5,769.4,801,703.9,801,623.1C801,542.3,735.5,476.8,654.7,476.8c-80.8,0,-146.3,65.5,-146.3,146.3c0,80.8,65.5,146.3,146.3,146.3Z" class="g4_2"/>
<path d="M264.8,338.9c90,0,163,-73,163,-163c0,-90,-73,-163,-163,-163c-90,0,-163,73,-163,163c0,90,73,163,163,163Z" class="g5_2"/>
<path d="M727.9,440.5c90,0,163,-73,163,-163c0,-90,-73,-163,-163,-163c-90.1,0,-163,73,-163,163c0,90,72.9,163,163,163ZM654.7,786.2c90,0,163,-73,163,-163c0,-90,-73,-163,-163,-163c-90.1,0,-163,73,-163,163c0,90,72.9,163,163,163Z" class="g6_2"/>
<path d="M656.2,903.8v80.7" class="g7_2"/>
<path d="M520.2,866.9H865.6M520.7,1016.6H866.1" class="g8_2"/>
</svg>