<?xml version="1.0" encoding="UTF-8" standalone="no"?>
<!DOCTYPE svg PUBLIC "-//W3C//DTD SVG 1.1//EN"
"http://www.w3.org/Graphics/SVG/1.1/DTD/svg11.dtd">
<svg viewBox="0 0 909 1286" version="1.1" xmlns="http://www.w3.org/2000/svg" xmlns:xlink="http://www.w3.org/1999/xlink">
<defs>
<clipPath id="c0"><path d="M679.2,214.4V183.8H603.6V0H909.4V214.4Z"/></clipPath>
<clipPath id="c1"><path d="M654,750.6v-481h25.2V213.7H909.4V750.6Z"/></clipPath>
<clipPath id="c2"><path d="M603.6,1286.2V269.6h51.1V1286.2Z"/></clipPath>
<clipPath id="c3"><path d="M654,1286.2V749.9H909.4v536.3Z"/></clipPath>
<clipPath id="c4"><path d="M240.7,269.6V183.8H603.6v85.8Z"/></clipPath>
<clipPath id="c5"><path d="M603.6,269.6V183.8h75.6v85.8Z"/></clipPath>
<style type="text/css"><![CDATA[
.g0{
fill: #FCB334;
}
.g1{
fill: #4BC0B5;
}
.g2{
fill: #211D51;
}
]]></style>
</defs>
<image clip-path="url(#c0)" preserveAspectRatio="none" x="603" y="0" width="307" height="214" xlink:href="img/1.jpg"/>
<image clip-path="url(#c1)" preserveAspectRatio="none" x="654" y="214" width="256" height="537" xlink:href="img/2.jpg"/>
<image clip-path="url(#c2)" preserveAspectRatio="none" x="603" y="267" width="52" height="1020" xlink:href="img/3.jpg"/>
<image clip-path="url(#c3)" preserveAspectRatio="none" x="654" y="750" width="256" height="537" xlink:href="img/4.jpg"/>
<path d="M384.7,714.3L381,707.8c-.3,-.5,-.1,-.8,.5,-.8h1c.4,0,.7,.1,.8,.5l1.7,3.2c.4,.8,.8,1.7,.8,1.7c0,0,.4,-.9,.8,-1.7l1.7,-3.2c.2,-.4,.5,-.5,.9,-.5h1c.5,0,.8,.3,.5,.8l-3.7,6.5v4.5c0,.5,-.3,.8,-.8,.8h-.8c-.5,0,-.7,-.3,-.7,-.8Z" class="g0"/>
<path d="M397.8,706.7c3.9,0,6.6,2.9,6.6,6.5c0,3.7,-2.7,6.6,-6.6,6.6c-3.8,0,-6.5,-2.9,-6.5,-6.6c0,-3.6,2.7,-6.5,6.5,-6.5m0,11c2.5,0,4.2,-2,4.2,-4.5c0,-2.5,-1.7,-4.4,-4.2,-4.4c-2.4,0,-4.1,1.9,-4.1,4.4c0,2.5,1.7,4.5,4.1,4.5Z" class="g0"/>
<path d="M406.4,707.7c0,-.5,.3,-.7,.7,-.7h.8c.5,0,.8,.2,.8,.7V715c0,1.7,1.1,2.7,2.8,2.7c1.7,0,2.8,-1,2.8,-2.7v-7.3c0,-.5,.2,-.7,.7,-.7h.8c.5,0,.8,.2,.8,.7v7.4c0,2.8,-2.1,4.7,-5.1,4.7c-3.1,0,-5.1,-1.9,-5.1,-4.7Z" class="g0"/>
<path d="M418.6,710.1l.6,-2.7c.1,-.4,.4,-.7,.8,-.7h.5c.6,0,.8,.4,.7,.9l-1,2.7c-.1,.4,-.4,.6,-.8,.6h-.2c-.5,0,-.7,-.3,-.6,-.8Z" class="g0"/>
<path d="M423.2,707.7c0,-.5,.2,-.7,.7,-.7h3.4c1.3,0,1.9,.1,2.4,.3c1.3,.5,2.1,1.7,2.1,3.4c0,1.5,-.8,3,-2.1,3.5c0,0,.2,.2,.4,.7l2.1,3.8c.3,.5,.1,.9,-.5,.9h-1c-.4,0,-.6,-.2,-.8,-.5l-2.3,-4.2h-2.2v3.9c0,.5,-.2,.8,-.7,.8h-.8c-.5,0,-.7,-.3,-.7,-.8Zm4.3,5.2c1.2,0,2,-.8,2,-2c0,-.8,-.3,-1.5,-1,-1.8c-.3,-.1,-.7,-.2,-1.4,-.2h-1.7v4Z" class="g0"/>
<path d="M434.3,707.7c0,-.5,.3,-.7,.7,-.7h6.1c.5,0,.8,.2,.8,.7v.5c0,.5,-.3,.7,-.8,.7h-4.5v3.3h3.5c.5,0,.8,.3,.8,.8v.5c0,.5,-.3,.7,-.8,.7h-3.5v3.4h4.8c.5,0,.8,.3,.8,.7v.5c0,.5,-.3,.8,-.8,.8H435c-.4,0,-.7,-.3,-.7,-.8Z" class="g0"/>
<path d="M446.6,713c-.1,-.4,.1,-.6,.5,-.6h.7c.3,0,.6,.1,.6,.5l1.2,4.2c.1,.4,.1,.8,.1,.8h.1c0,0,0,-.4,.1,-.8l1.2,-4.2c.1,-.4,.3,-.5,.7,-.5h.5c.4,0,.6,.1,.7,.5l1.2,4.2c.1,.4,.1,.8,.1,.8h.1c0,0,0,-.4,.1,-.8l1.2,-4.2c.1,-.4,.3,-.5,.6,-.5h.7c.4,0,.6,.2,.5,.6l-1.9,6.1c-.1,.3,-.3,.5,-.6,.5h-1c-.4,0,-.6,-.2,-.7,-.5l-1.1,-3.6c-.1,-.4,-.1,-.8,-.1,-.8H452c0,0,0,.4,-.1,.8l-1.1,3.6c-.1,.3,-.3,.5,-.7,.5h-1c-.3,0,-.5,-.2,-.6,-.5Z" class="g0"/>
<path d="M461.9,712.2c2,0,3.2,1.4,3.2,3.4c0,.3,-.3,.6,-.6,.6H460c.2,1.3,1.1,2,2.2,2c.7,0,1.2,-.2,1.6,-.4c.3,-.2,.6,-.2,.8,.2l.1,.2c.2,.4,.2,.6,-.2,.8c-.4,.3,-1.3,.8,-2.4,.8c-2.4,0,-3.9,-1.8,-3.9,-3.8c0,-2.3,1.5,-3.8,3.7,-3.8m1.4,2.9c0,-1,-.6,-1.6,-1.5,-1.6c-.9,0,-1.5,.7,-1.7,1.6Z" class="g0"/>
<path d="M466.4,710.1c0,-.4,.2,-.6,.6,-.6h.6c.4,0,.6,.2,.6,.6v7.1c0,.7,.3,.8,.5,.9c.3,0,.5,.1,.5,.5v.4c0,.4,-.2,.7,-.6,.7c-1,0,-2.2,-.3,-2.2,-2.4Z" class="g0"/>
<path d="M473.8,712.2c1.1,0,1.9,.4,2.3,.7c.3,.2,.4,.5,.2,.8l-.2,.3c-.2,.3,-.5,.3,-.8,.2c-.3,-.2,-.8,-.5,-1.4,-.5c-1.4,0,-2.2,1,-2.2,2.3c0,1.2,.8,2.2,2.2,2.2c.7,0,1.3,-.3,1.7,-.5c.3,-.2,.6,-.2,.8,.2l.1,.2c.2,.3,.1,.6,-.2,.8c-.4,.3,-1.3,.9,-2.5,.9c-2.4,0,-4,-1.7,-4,-3.8c0,-2.1,1.6,-3.8,4,-3.8Z" class="g0"/>
<path d="M481.3,712.2c2.2,0,3.9,1.6,3.9,3.8c0,2.2,-1.7,3.8,-3.9,3.8c-2.2,0,-4,-1.6,-4,-3.8c0,-2.2,1.8,-3.8,4,-3.8m0,6c1.1,0,2.1,-.9,2.1,-2.2c0,-1.4,-1,-2.3,-2.1,-2.3c-1.2,0,-2.2,.9,-2.2,2.3c0,1.3,1,2.2,2.2,2.2Z" class="g0"/>
<path d="M486.6,712.9c0,-.3,.2,-.5,.5,-.5h.6c.4,0,.6,.2,.6,.5v.5c0,.1,-.1,.3,-.1,.3h.1c.3,-.7,1.2,-1.5,2.3,-1.5c1.1,0,1.9,.5,2.2,1.5c.4,-.8,1.3,-1.5,2.5,-1.5c1.5,0,2.3,.8,2.3,2.7V719c0,.4,-.2,.6,-.6,.6h-.6c-.4,0,-.6,-.2,-.6,-.6v-3.7c0,-.8,-.1,-1.5,-1,-1.5c-1.2,0,-1.8,1.3,-1.8,2.5V719c0,.4,-.2,.6,-.6,.6h-.6c-.4,0,-.6,-.2,-.6,-.6v-3.7c0,-.8,-.1,-1.5,-1,-1.5c-1.3,0,-1.9,1.3,-1.9,2.5V719c0,.4,-.2,.6,-.5,.6h-.7c-.3,0,-.5,-.2,-.5,-.6Z" class="g0"/>
<path d="M502.5,712.2c2.1,0,3.2,1.4,3.2,3.4c0,.3,-.2,.6,-.6,.6h-4.4c.1,1.3,1.1,2,2.2,2c.6,0,1.2,-.2,1.5,-.4c.4,-.2,.6,-.2,.8,.2l.2,.2c.2,.4,.1,.6,-.2,.8c-.5,.3,-1.3,.8,-2.5,.8c-2.4,0,-3.8,-1.8,-3.8,-3.8c0,-2.3,1.5,-3.8,3.6,-3.8m1.4,2.9c0,-1,-.6,-1.6,-1.4,-1.6c-.9,0,-1.6,.7,-1.8,1.6Z" class="g0"/>
<path d="M507.3,716.1l-.2,-6c0,-.4,.2,-.6,.6,-.6h.7c.4,0,.6,.2,.6,.6l-.1,6c0,.4,-.3,.6,-.6,.6h-.5c-.3,0,-.5,-.2,-.5,-.6m-.1,2.4c0,-.4,.2,-.6,.6,-.6h.5c.4,0,.6,.2,.6,.6v.5c0,.4,-.2,.6,-.6,.6h-.5c-.4,0,-.6,-.2,-.6,-.6Z" class="g0"/>
<path d="M397.6,603.7c0,-11.8,9.6,-21.4,21.4,-21.4c2.4,0,4.8,.4,7.1,1.2c1.3,.5,2.9,-.2,3.4,-1.6c.4,-1.4,-.3,-2.9,-1.7,-3.4C425,577.5,422,577,419,577c-14.7,0,-26.7,12,-26.7,26.7c0,5,1.4,10,4.1,14.2c.5,.8,1.4,1.3,2.3,1.3c.4,0,.9,-.2,1.4,-.4c1.2,-.8,1.6,-2.5,.8,-3.7c-2.1,-3.4,-3.3,-7.4,-3.3,-11.4m100.7,21.6l-2.2,-15.4c-.3,-1.4,-1.6,-2.4,-3.1,-2.2c-1.4,.2,-2.4,1.5,-2.2,3L493,626c.2,1.4,1.3,2.3,2.6,2.3h.4c1.4,-.2,2.5,-1.6,2.3,-3m-6.8,-26.4c-5,-7,-13.2,-11.2,-21.8,-11.2c-8.9,0,-17.2,4.4,-22.2,11.8l-10.8,16.1c-4,5.9,-10.6,9.4,-17.7,9.4c-4.1,0,-8,-1.1,-11.4,-3.3c-1.3,-.7,-2.9,-.4,-3.7,.9c-.8,1.2,-.4,2.9,.8,3.7c4.3,2.6,9.2,4.1,14.3,4.1c8.9,0,17.2,-4.5,22.2,-11.9l10.8,-16c4,-6,10.6,-9.5,17.7,-9.5c6.9,0,13.4,3.4,17.4,9c.9,1.2,2.6,1.5,3.8,.6c1.2,-.8,1.5,-2.5,.6,-3.7Z" class="g1"/>
<path d="M488.2,630.2l-2.6,-18.1c-.5,-3.5,-2.1,-6.6,-4.6,-9.1c-1,-1,-2.7,-1,-3.7,0c-1.1,1.1,-1.1,2.8,0,3.8c1.6,1.6,2.7,3.7,3,6l2.6,18.2c.2,1.3,1.3,2.3,2.6,2.3h.4c1.5,-.3,2.5,-1.6,2.3,-3.1M469.7,598.3c-5.3,0,-10.3,2.7,-13.3,7.1l-10.8,16.1c-6,8.9,-15.9,14.2,-26.6,14.2c-17.7,0,-32.1,-14.4,-32.1,-32c0,-15.6,11.2,-28.9,26.5,-31.6c1.5,-.2,2.4,-1.6,2.2,-3.1c-.3,-1.4,-1.7,-2.4,-3.1,-2.1c-17.9,3.1,-30.9,18.6,-30.9,36.8c0,20.6,16.8,37.4,37.4,37.4c12.5,0,24.1,-6.2,31,-16.6l10.8,-16.1c2,-3,5.4,-4.7,8.9,-4.7c1.5,0,2.7,-1.2,2.7,-2.7c0,-1.5,-1.2,-2.7,-2.7,-2.7M423.9,571v0c1,-1.1,1,-2.8,0,-3.8c-1,-1,-2.7,-1,-3.8,0c-1,1,-1,2.7,0,3.8c1.1,1,2.8,1,3.8,0Z" class="g1"/>
<path d="M504.8,614.3c1.4,-.2,2.5,-1.5,2.2,-3l-.3,-2.3c-2.6,-18.2,-18.5,-32,-37,-32c-12.5,0,-24.1,6.2,-31,16.5l-10.8,16.1h-.1c-2,3,-5.3,4.8,-8.8,4.8c-5.9,0,-10.7,-4.8,-10.7,-10.7c0,-2.9,1.1,-5.6,3.1,-7.6c1.1,-1,1.1,-2.7,0,-3.8c-1,-1,-2.7,-1,-3.7,0c-3.1,3.1,-4.7,7.1,-4.7,11.4c0,8.8,7.2,16,16,16c5.3,0,10.3,-2.6,13.3,-7.1l10.8,-16.1c6,-8.9,15.9,-14.2,26.6,-14.2c15.9,0,29.5,11.8,31.7,27.5l.4,2.3c.1,1.3,1.3,2.3,2.6,2.3l.4,-.1m2.8,4.5c-1.1,-1,-2.8,-1,-3.8,0c-1,1,-1,2.7,0,3.8c1,1,2.7,1,3.8,0c1,-1.1,1,-2.8,0,-3.8Z" class="g1"/>
<path d="M421.1,684.7c-1.9,-.2,-4.5,-1,-4.5,-5.1V668.9h4.1c1.4,0,2.2,-.8,2.2,-2.3v-.9c0,-1.5,-.8,-2.3,-2.3,-2.3h-4v-5.6c0,-1.5,-.8,-2.3,-2.3,-2.3h-2.1c-1.5,0,-2.3,.8,-2.3,2.3v5.6h-1.6c-1.5,0,-2.2,.8,-2.2,2.3v.9c0,1.5,.7,2.3,2.2,2.3h1.4v11.9c0,7.5,5.9,10.1,10.8,10.1c1.9,0,2.8,-.6,2.8,-2.3V687c0,-1.6,-.6,-2.1,-2.2,-2.3m21.4,-21.9c-3.9,0,-6.9,3.7,-8,7h-.1c0,0,.1,-.9,.1,-1.9v-2.6c0,-1.5,-.8,-2.3,-2.2,-2.3h-2.2c-1.4,0,-2.2,.8,-2.2,2.3v23.1c0,1.5,.8,2.2,2.2,2.2h2.4c1.5,0,2.2,-.7,2.2,-2.2v-8.9c0,-5,2.5,-10,7.5,-10c1.5,0,2.3,-.8,2.3,-2.3v-2.1c0,-1.5,-.5,-2.3,-2,-2.3m16.1,-.4c-4.1,0,-7.3,1.3,-9.1,2.3c-1.3,.7,-1.5,1.7,-.8,3l.5,1c.7,1.3,1.7,1.5,3,.9c1.3,-.7,3.5,-1.5,5.8,-1.5c2.8,0,5.1,1.2,5.1,4.8v.7H462c-6.2,0,-16.2,1.3,-16.2,9.4c0,5,4.2,8.3,9.2,8.3c6.1,0,8.7,-5.2,8.7,-5.2h.1c0,0,-.1,.4,-.1,1.2v1.1c0,1.5,.7,2.2,2.2,2.2h1.8c1.5,0,2.3,-.7,2.3,-2.2v-15c0,-7,-4.3,-11,-11.4,-11m4.6,16.4c0,3.3,-2.5,7.2,-6.4,7.2c-2.7,0,-4.1,-1.7,-4.1,-3.6c0,-4.1,5.9,-4.6,9.3,-4.6h1.2ZM498.1,663h-2.5c-1.3,0,-2.2,.6,-2.6,1.9l-5.1,15.2c-.6,1.7,-1,4.2,-1,4.2h-.1c0,0,-.5,-2.5,-1,-4.2l-5.2,-15.2c-.4,-1.3,-1.2,-1.9,-2.5,-1.9h-2.6c-1.7,0,-2.3,1.1,-1.8,2.6l8.5,23.2c.4,1.3,1.2,1.8,2.5,1.8h4.4c1.3,0,2.1,-.5,2.5,-1.8l8.3,-23.2c.6,-1.5,-.1,-2.6,-1.8,-2.6m18.4,-.6c-8.3,0,-14,5.9,-14,14.4c0,7.9,5.7,14.5,14.8,14.5c4.4,0,7.6,-1.6,9.4,-2.8c1.2,-.7,1.4,-1.7,.7,-3l-.6,-1.1c-.7,-1.2,-1.7,-1.4,-3,-.7c-1.3,.8,-3.4,1.7,-6,1.7c-4.2,0,-7.8,-2.5,-8.3,-7.5h16.9c1.3,0,2.3,-1.2,2.3,-2.4c0,-7.5,-4.3,-13.1,-12.2,-13.1m-6.8,11.3c.6,-3.7,3.1,-6.1,6.6,-6.1c3.2,0,5.5,2.3,5.6,6.1Zm33,11.1c-1.1,-.1,-2.2,-.6,-2.2,-3.3v-27c0,-1.5,-.8,-2.3,-2.2,-2.3h-2.4c-1.5,0,-2.2,.8,-2.2,2.3V682c0,7.9,4.7,8.9,8.4,8.9c1.6,0,2.2,-.9,2.2,-2.3v-1.8c0,-1.3,-.7,-1.9,-1.6,-2Z" class="g2"/>
<path d="M370.5,684c-.7,-1.3,-1.8,-1.4,-3.1,-.7c-1.3,1,-3.5,2.1,-6.2,2.1c-5.3,0,-8.6,-4,-8.6,-8.6c0,-4.7,3.3,-8.6,8.4,-8.6c2.4,0,4.2,.9,5.4,1.7c1.3,.7,2.2,.7,3,-.6l.7,-1.1c.8,-1.2,.7,-2.3,-.4,-3.1c-1.7,-1.1,-4.6,-2.7,-9.1,-2.7c-9.1,0,-15,6.6,-15,14.4c0,8.1,5.9,14.5,15,14.5c4.8,0,8.1,-2,9.8,-3.2c1.1,-.8,1.3,-1.8,.6,-3Z" class="g2"/>
<path d="M392.4,662.4c-5.6,0,-8.6,3.5,-9.8,5.8h-.1c0,0,.1,-.6,.1,-1.2v-1.7c0,-1.5,-.8,-2.3,-2.2,-2.3h-2.1c-1.5,0,-2.2,.8,-2.2,2.3v23.1c0,1.5,.7,2.2,2.2,2.2h2.4c1.4,0,2.2,-.7,2.2,-2.2V677.7c0,-5,3.1,-9,7.9,-9c3.5,0,4.4,2.2,4.4,5.6v14.1c0,1.5,.8,2.2,2.2,2.2h2.4c1.5,0,2.2,-.7,2.2,-2.2V672.9c0,-7.3,-3.5,-10.5,-9.6,-10.5Z" class="g2"/>
<image clip-path="url(#c4)" preserveAspectRatio="none" x="240" y="183" width="364" height="87" xlink:href="img/5.jpg"/>
<image clip-path="url(#c5)" preserveAspectRatio="none" x="603" y="184" width="77" height="86" xlink:href="img/6.jpg"/>
</svg>