<?xml version="1.0" encoding="UTF-8" standalone="no"?>
<!DOCTYPE svg PUBLIC "-//W3C//DTD SVG 1.1//EN"
"http://www.w3.org/Graphics/SVG/1.1/DTD/svg11.dtd">
<svg viewBox="0 0 909 1286" version="1.1" xmlns="http://www.w3.org/2000/svg" xmlns:xlink="http://www.w3.org/1999/xlink">
<defs>
<clipPath id="c0_15"><path d="M0,1242.9V0H909.4V1242.9Z"/></clipPath>
<clipPath id="c1_15"><path d="M80.6,55.4V42.8H43.2V55.4ZM0,220V0H212.7V220Z"/></clipPath>
<clipPath id="c2_15"><path d="M212.3,220V0H425.5V220Z"/></clipPath>
<clipPath id="c3_15"><path d="M425.1,257.1V0H584.6V257.1Z"/></clipPath>
<clipPath id="c4_15"><path d="M0,329.4V219.5H266v37.6H223.6v72.3Z"/></clipPath>
<clipPath id="c5_15"><path d="M265.6,257.1V219.5H425.5v37.6Z"/></clipPath>
<clipPath id="c6_15"><path d="M43.2,55.4V42.8H80.6V55.4Z"/></clipPath>
<clipPath id="c7_15"><path d="M497.2,358.3v-5.1h87.4v-2.3h-11V329.4h11V257.1h.7V358.3Z"/></clipPath>
<clipPath id="c8_15"><path d="M573.6,329.4V288.2c0,-3.9,-1.2,-7.5,-3.3,-10.5v-2.6h-2.2c-3.3,-3.3,-7.8,-5.3,-12.8,-5.3H512.9c-5,0,-9.5,2,-12.8,5.3h-2.5v3.1c-.2,.2,-.3,.4,-.4,.6V257.1h87.4v72.3Z"/></clipPath>
<clipPath id="c9_15"><path d="M573.6,353.2v-2.3h11v2.3Z"/></clipPath>
<clipPath id="ca_15"><path d="M497.6,278.2v-3.1h2.5c-1,.9,-1.8,1.9,-2.5,3.1Zm72.7,-.5c-.6,-.9,-1.3,-1.8,-2.2,-2.6h2.2v2.6Z"/></clipPath>
<clipPath id="cb_15"><path d="M409.1,358.3v-5.1h78.8v5.1Zm76.4,-7.4V329.4h2.4v21.5Z"/></clipPath>
<clipPath id="cc_15"><path d="M485.5,329.4V288.2c0,-10.2,-8.2,-18.4,-18.3,-18.4H424.8c-6.7,0,-12.5,3.6,-15.7,9V257.1h78.8v72.3Z"/></clipPath>
<clipPath id="cd_15"><path d="M485.5,353.2v-2.3h2.4v2.3Z"/></clipPath>
<clipPath id="ce_15"><path d="M487.9,358.3v-5.1h9.3v5.1Zm0,-7.4V329.4h6.7V346h-.1v4.9Z"/></clipPath>
<clipPath id="cf_15"><path d="M487.9,329.4V257.1h9.3v21.7c-1.7,2.7,-2.6,5.9,-2.6,9.4v41.2Z"/></clipPath>
<clipPath id="cg_15"><path d="M487.9,353.2v-2.3h6.6v2.3Z"/></clipPath>
<clipPath id="ch_15"><path d="M494.6,346V288.2c0,-3.5,.9,-6.7,2.6,-9.4V346Z"/></clipPath>
<clipPath id="ci_15"><path d="M494.5,353.2V346h2.7v7.2Z"/></clipPath>
<clipPath id="cj_15"><path d="M321,358.3v-5.1h78.8v5.1Zm76.4,-7.4V329.4h2.4v21.5Z"/></clipPath>
<clipPath id="ck_15"><path d="M397.4,329.4V288.2c0,-10.2,-8.2,-18.4,-18.3,-18.4H336.7c-6.7,0,-12.5,3.6,-15.7,9V257.1h78.8v72.3Z"/></clipPath>
<clipPath id="cl_15"><path d="M397.4,353.2v-2.3h2.4v2.3Z"/></clipPath>
<clipPath id="cm_15"><path d="M399.8,358.3v-5.1h9.3v5.1Zm0,-7.4V329.4h6.7V346h-.1v4.9Z"/></clipPath>
<clipPath id="cn_15"><path d="M399.8,329.4V257.1h9.3v21.7c-1.7,2.7,-2.6,5.9,-2.6,9.4v41.2Z"/></clipPath>
<clipPath id="co_15"><path d="M399.8,353.2v-2.3h6.6v2.3Z"/></clipPath>
<clipPath id="cp_15"><path d="M406.5,346V288.2c0,-3.5,.9,-6.7,2.6,-9.4V346Z"/></clipPath>
<clipPath id="cq_15"><path d="M406.4,353.2V346h2.7v7.2Z"/></clipPath>
<clipPath id="cr_15"><path d="M223.6,358.3v-5.1h88.1v5.1Zm0,-7.4V329.4h88.1v21.5Z"/></clipPath>
<clipPath id="cs_15"><path d="M223.6,329.4V257.1h88.1v72.3Z"/></clipPath>
<clipPath id="ct_15"><path d="M223.6,353.2v-2.3h88.1v2.3Z"/></clipPath>
<clipPath id="cu_15"><path d="M311.7,358.3v-5.1H321v5.1Zm0,-7.4V329.4h6.7V346h-.1v4.9Z"/></clipPath>
<clipPath id="cv_15"><path d="M311.7,329.4V257.1H321v21.7c-1.7,2.7,-2.6,5.9,-2.6,9.4v41.2Z"/></clipPath>
<clipPath id="cw_15"><path d="M311.7,353.2v-2.3h6.6v2.3Z"/></clipPath>
<clipPath id="cx_15"><path d="M318.4,346V288.2c0,-3.5,.9,-6.7,2.6,-9.4V346Z"/></clipPath>
<clipPath id="cy_15"><path d="M318.3,353.2V346H321v7.2Z"/></clipPath>
<style type="text/css"><![CDATA[
.g0_15{
fill: #E7E8E8;
}
.g1_15{
fill: #1B1661;
}
.g2_15{
fill: #DCDDDE;
}
.g3_15{
fill: #FFF;
}
.g4_15{
fill: #D1232A;
}
.g5_15{
fill: #FCB61D;
}
.g6_15{
fill: #FEE6BB;
}
.g7_15{
fill: #CFCBCA;
}
.g8_15{
fill: #5AC4C1;
}
.g9_15{
fill: #09B795;
}
.ga_15{
fill: #F37537;
}
.gb_15{
fill: #5180C1;
}
]]></style>
</defs>
<path d="M324.8,1241.8H584.6V1075.3H324.8v166.5Z" class="g0_15"/>
<path d="M324.8,1075.3H584.6v26.3H324.8v-26.3Z" class="g1_15"/>
<path d="M324.8,1101.6H511.6v39.1H324.8v-39.1Zm186.8,0h73v39.1h-73v-39.1Zm-186.8,78.3H511.6v39.2H324.8v-39.2Zm186.8,0h73v39.2h-73v-39.2Z" class="g2_15"/>
<path d="M324.8,1219.8H511.6v-1.5H324.8v1.5Z" class="g3_15"/>
<path d="M511.6,1219.8h73v-1.5h-73v1.5Z" class="g3_15"/>
<path d="M343.9,1085.5l-1,-.6c-.2,-.2,-.6,-.1,-.8,.1l-4.7,7l-2.1,-2.2c-.3,-.2,-.6,-.2,-.8,0l-.9,.8c-.2,.2,-.2,.6,0,.8l3.4,3.4c.1,.1,.4,.3,.7,.3c.3,0,.5,-.2,.7,-.4l5.7,-8.4c.1,-.2,.1,-.6,-.2,-.8Z" class="g3_15"/>
<path clip-path="url(#c0_15)" d="M606.3,1243.1H866.1V936.2H606.3v306.9Z" class="g0_15"/>
<path d="M606.3,936.2H866.1v27.7H606.3V936.2Z" class="g1_15"/>
<path clip-path="url(#c0_15)" d="M606.3,963.9H866.1v25.2H606.3V963.9Zm0,241.8H866.1v37.4H606.3v-37.4Z" class="g2_15"/>
<path d="M606.3,989.5H866.1v-.8H606.3Z" class="g3_15"/>
<path d="M606.3,1206.1H866.1v-.7H606.3Z" class="g3_15"/>
<path d="M625.4,947.8l-1,-.6c-.2,-.2,-.6,-.1,-.8,.1l-4.7,6.9l-2.1,-2.1c-.3,-.2,-.6,-.2,-.8,0l-.9,.8c-.2,.2,-.2,.6,0,.8l3.4,3.3c.1,.2,.4,.4,.7,.4c.3,0,.5,-.2,.7,-.4l5.6,-8.4c.2,-.2,.2,-.6,-.1,-.8Z" class="g3_15"/>
<image clip-path="url(#c1_15)" preserveAspectRatio="none" x="0" y="0" width="213" height="220" xlink:href="img/1.jpg"/>
<image clip-path="url(#c2_15)" preserveAspectRatio="none" x="212" y="0" width="214" height="220" xlink:href="img/2.jpg"/>
<image clip-path="url(#c3_15)" preserveAspectRatio="none" x="425" y="0" width="160" height="275" xlink:href="img/3.jpg"/>
<image clip-path="url(#c4_15)" preserveAspectRatio="none" x="0" y="220" width="266" height="110" xlink:href="img/4.jpg"/>
<image clip-path="url(#c5_15)" preserveAspectRatio="none" x="266" y="220" width="160" height="55" xlink:href="img/5.jpg"/>
<image clip-path="url(#c6_15)" preserveAspectRatio="none" x="43" y="43" width="38" height="13" xlink:href="img/6.jpg"/>
<path d="M44.1,1031.2h-.8v27.7H303.1v-28.4H43.3v.7h.8v.8H301.6v25.3H44.8v-26.1h-.7v.8Z" class="g4_15"/>
<path d="M64.5,1053.7c-5.3,-.1,-9.6,-4.4,-9.6,-9.7c0,-5.4,4.4,-9.7,9.7,-9.7c5.3,.1,9.6,4.4,9.6,9.7c0,5.3,-4.4,9.7,-9.7,9.7m0,-1.4c4.6,0,8.3,-3.7,8.3,-8.3c0,-4.6,-3.7,-8.3,-8.3,-8.3c-4.5,0,-8.2,3.7,-8.2,8.3c-.1,4.5,3.6,8.2,8.2,8.3Z" class="g4_15"/>
<path d="M51.3,1039.5c.4,.1,.5,0,.5,-.4c0,-1.2,0,-2.5,0,-3.7c0,-.2,-.1,-.4,0,-.6c.2,-.2,.4,-.5,.6,-.5c.3,0,.5,.3,.7,.5c.1,.2,.1,.4,.1,.6c0,1.4,0,2.7,0,4.1h.4c0,-.9,0,-1.8,0,-2.7c0,-.6,-.1,-1.2,-.1,-1.8c0,-.5,.3,-.7,.7,-.7c.4,-.1,.7,.2,.7,.6c.1,1.9,.2,3.7,.2,5.5c0,.8,-.4,1.5,-1.1,1.9c-.3,.2,-.4,.5,-.4,.8c.1,3.5,.1,7,.2,10.5c0,.6,-.2,1.1,-.8,1.3c-.5,.3,-1,.2,-1.4,-.2c-.2,-.3,-.4,-.8,-.4,-1.2c0,-2.3,0,-4.6,.1,-6.9c0,-1.2,0,-2.4,0,-3.6c0,-.2,-.2,-.5,-.3,-.6c-.8,-.6,-1.2,-1.4,-1.2,-2.3c.1,-1.7,.2,-3.4,.2,-5c0,-.5,.2,-.8,.7,-.8c.4,-.1,.7,.3,.7,.8c0,1.3,-.1,2.5,-.1,3.8c0,.2,0,.4,0,.6m2.1,1.5H51.5c.7,.6,1.3,.6,1.9,0Z" class="g4_15"/>
<path d="M75,1044.8c0,-2.9,0,-5.8,0,-8.7c0,-.7,.2,-1.2,.8,-1.6c.9,-.6,2.1,-.1,2.4,1c.5,2.3,.8,4.6,.5,6.9c-.1,1.1,-.3,2.2,-.5,3.3c0,.3,0,.5,0,.8c0,2.3,0,4.7,0,7.1c-.1,1,-.7,1.5,-1.7,1.5c-.9,-.1,-1.5,-.6,-1.5,-1.5c0,-.2,0,-.3,0,-.5c0,-2.8,0,-5.6,0,-8.3m1.3,.4q.6,.1,.7,-.4c.5,-2.3,.5,-4.7,.2,-7c-.1,-.6,-.2,-1.2,-.3,-1.7l-.3,-.4l-.2,.4l-.1,.3c0,2.7,0,5.5,0,8.2Z" class="g4_15"/>
<path d="M64.5,1037.2v.8h.1c3.2,0,5.9,2.7,6,6c0,3.3,-2.7,6,-6,6h-.1c-1.6,0,-3.1,-.7,-4.2,-1.8c-1.1,-1,-1.8,-2.5,-1.8,-4.2c0,-3.3,2.7,-6,6,-6v-1.5c-4.1,0,-7.5,3.4,-7.5,7.5c0,4.2,3.4,7.5,7.5,7.5h.1c4.1,0,7.5,-3.4,7.5,-7.5c0,-4.2,-3.4,-7.5,-7.5,-7.5h-.1Z" class="g4_15"/>
<path d="M325.6,746h-.8v316.3H584.6v-317H324.8v.7h.8v.8H583.1v314H326.3V746h-.7v.8Z" class="g1_15"/>
<path d="M369.8,751.5H539.6V737.7H369.8Z" class="g3_15"/>
<path d="M866.1,301.2V280.8h-.7v20.4Z" class="g3_15"/>
<path d="M866.1,326V301.2h-.7V326Z" class="g3_15"/>
<path d="M736.6,346V326h-.8v20Z" class="g3_15"/>
<path d="M801.4,346V326h-.8v20Z" class="g3_15"/>
<path d="M866.1,346V326h-.7v20Z" class="g3_15"/>
<path d="M736.6,365.9V346h-.8v19.9Z" class="g3_15"/>
<path d="M801.4,365.9V346h-.8v19.9Z" class="g3_15"/>
<path d="M866.1,365.9V346h-.7v19.9Z" class="g3_15"/>
<path d="M736.6,385.9v-20h-.8v20Z" class="g3_15"/>
<path d="M801.4,385.9v-20h-.8v20Z" class="g3_15"/>
<path d="M866.1,385.9v-20h-.7v20Z" class="g3_15"/>
<path d="M736.6,405.9v-20h-.8v20Z" class="g3_15"/>
<path d="M801.4,405.9v-20h-.8v20Z" class="g3_15"/>
<path d="M866.1,405.9v-20h-.7v20Z" class="g3_15"/>
<path d="M736.6,425.8V405.9h-.8v19.9Z" class="g3_15"/>
<path d="M801.4,425.8V405.9h-.8v19.9Z" class="g3_15"/>
<path d="M866.1,425.8V405.9h-.7v19.9Z" class="g3_15"/>
<path d="M736.6,445.8v-20h-.8v20Z" class="g3_15"/>
<path d="M801.4,445.8v-20h-.8v20Z" class="g3_15"/>
<path d="M866.1,445.8v-20h-.7v20Z" class="g3_15"/>
<path d="M736.6,465.8v-20h-.8v20Z" class="g3_15"/>
<path d="M801.4,465.8v-20h-.8v20Z" class="g3_15"/>
<path d="M866.1,465.8v-20h-.7v20Z" class="g3_15"/>
<path d="M736.6,485.7V465.8h-.8v19.9Z" class="g3_15"/>
<path d="M801.4,485.7V465.8h-.8v19.9Z" class="g3_15"/>
<path d="M866.1,485.7V465.8h-.7v19.9Z" class="g3_15"/>
<path d="M736.6,505.7v-20h-.8v20Z" class="g3_15"/>
<path d="M801.4,505.7v-20h-.8v20Z" class="g3_15"/>
<path d="M866.1,505.7v-20h-.7v20Z" class="g3_15"/>
<path d="M736.6,525.7v-20h-.8v20Z" class="g3_15"/>
<path d="M801.4,525.7v-20h-.8v20Z" class="g3_15"/>
<path d="M866.1,525.7v-20h-.7v20Z" class="g3_15"/>
<path d="M736.6,545.6V525.7h-.8v19.9Z" class="g3_15"/>
<path d="M801.4,545.6V525.7h-.8v19.9Z" class="g3_15"/>
<path d="M866.1,545.6V525.7h-.7v19.9Z" class="g3_15"/>
<path d="M736.6,565.6v-20h-.8v20Z" class="g3_15"/>
<path d="M801.4,565.6v-20h-.8v20Z" class="g3_15"/>
<path d="M866.1,565.6v-20h-.7v20Z" class="g3_15"/>
<path d="M736.6,585.6v-20h-.8v20Z" class="g3_15"/>
<path d="M801.4,585.6v-20h-.8v20Z" class="g3_15"/>
<path d="M866.1,585.6v-20h-.7v20Z" class="g3_15"/>
<path d="M640.9,301.9h95.3v-1.5H640.9Z" class="g5_15"/>
<path d="M736.2,301.9H801v-1.5H736.2Z" class="g5_15"/>
<path d="M801,301.9h64.4v-1.5H801Z" class="g5_15"/>
<path d="M624.1,319.7c9.9,0,17.9,-8,17.9,-17.8C642,292,634,284,624.1,284c-9.8,0,-17.8,8,-17.8,17.9c0,9.8,8,17.8,17.8,17.8Z" class="g5_15"/>
<path d="M634.6,303.6c0,.8,.2,1.5,.2,2.2c0,2,-1,3.6,-2.7,4.7c-1.3,.8,-2.8,1.2,-4.3,1.3c-2.4,0,-4.8,0,-7.2,0c-1.7,-.1,-3.2,-.5,-4.5,-1.4c-2,-1.4,-2.8,-3.2,-2.5,-5.6c.2,-2,.3,-3.9,.4,-5.9c0,-1.8,-.1,-3.6,-.1,-5.4c0,-2.2,.9,-3.8,2.5,-5c1.5,-1.1,3.1,-1.6,4.9,-1.6c1.9,0,3.9,0,5.8,0c1.6,0,3.2,.5,4.6,1.4c1.9,1.4,2.8,3.2,2.7,5.6c-.1,1.2,0,2.4,0,3.6c-.1,0,.1,4.1,.2,6.1M624.2,288.1v0c-1,0,-1.9,0,-2.9,0c-1.3,0,-2.5,.3,-3.6,1c-1.6,.9,-2.7,2.2,-2.6,4.2c.1,.8,.3,1.7,.6,2.5c.4,1.3,1,2.6,2.1,3.5c.3,.2,.3,.6,0,.9c-.6,.6,-1.3,1.2,-2.1,1.5c-.6,.2,-.7,.5,-.7,1c-.1,.5,.1,.8,.4,1.2c.8,.8,1.7,1.3,2.7,1.8c1.8,.7,3.7,1,5.6,1c2,0,4.1,-.1,6,-.8c1.4,-.5,2.6,-1.2,3.4,-2.3c.1,-.2,.2,-.3,.2,-.5c0,-.3,0,-.7,0,-1l-.2,-.3c-1.1,-.3,-1.9,-.9,-2.6,-1.6c-.3,-.3,-.3,-.7,0,-1c.4,-.4,.9,-.9,1.2,-1.4c.8,-1.3,1.2,-2.6,1.4,-4c.2,-1.2,0,-2.2,-.8,-3.2c-1.1,-1.5,-2.7,-2.3,-4.6,-2.4c-1.1,-.1,-2.3,-.1,-3.5,-.1m-9.4,16.6c-.3,1.6,0,3,1.3,4.2c1.3,1.2,2.8,1.6,4.6,1.7c2.3,0,4.6,0,6.9,0c.8,0,1.6,-.1,2.4,-.4c1.4,-.5,2.5,-1.3,3.2,-2.6c.5,-1,.5,-2,.3,-3h-.1c-1.1,1.5,-2.6,2.2,-4.3,2.7c-2.9,.8,-5.7,.8,-8.6,.3c-1.4,-.2,-2.8,-.7,-3.9,-1.5c-.7,-.4,-1.2,-.9,-1.8,-1.4Z" class="g6_15"/>
<path d="M618.8,312.2c-.5,.4,-1,.7,-1.5,1.1c-.5,.4,-1.7,1.4,-2.3,1.8c-.2,.2,-.5,.2,-.7,.1l-.3,-.3c-.1,-.3,0,-.5,.2,-.6c.3,-.3,1.4,-1.2,1.7,-1.4c.4,-.4,.9,-.7,1.3,-1l.4,-.1c.4,.1,.8,.2,1.2,.4Z" class="g6_15"/>
<path d="M629.5,312.2c.5,-.2,.9,-.3,1.3,-.4l.3,.1c.7,.5,2.3,1.7,3,2.3c.1,.1,.3,.2,.3,.4c.1,.2,.1,.5,-.2,.6c-.2,.1,-.5,.1,-.7,0c-1.1,-.7,-2.9,-2.2,-4,-3Z" class="g6_15"/>
<path d="M624.1,298.8c-1.1,0,-2.1,.1,-3.2,0c-2,-.1,-3.5,-1.6,-3.9,-3.5c-.1,-.5,-.2,-1,-.3,-1.5c-.4,-1.9,1,-3.6,3,-3.6c3,0,5.9,0,8.9,0c1.9,0,3.2,1.5,3,3.4c-.1,1,-.2,2.1,-.8,3.1c-.9,1.4,-2.2,2.1,-3.9,2.1c-.9,0,-1.9,0,-2.8,0Z" class="g6_15"/>
<path d="M628.7,301.5c.3,0,.5,0,.8,0c.4,0,.7,.3,.5,.6c-.4,.9,-.9,1.7,-1.4,2.6c-.1,.2,-.3,.3,-.6,.3c-.5,0,-1.1,0,-1.6,0c-.5,0,-.7,-.3,-.6,-.7c.5,-.8,1,-1.6,1.5,-2.5c.1,-.2,.3,-.3,.6,-.3c.3,0,.5,0,.8,0Z" class="g6_15"/>
<path d="M621.1,305c-.2,0,-.5,0,-.7,0c-.3,0,-.6,-.1,-.7,-.4c-.5,-.8,-1,-1.6,-1.4,-2.4c-.2,-.4,0,-.7,.6,-.7c.5,0,1,0,1.5,0c.3,0,.5,.1,.6,.3c.5,.9,1,1.7,1.5,2.5c.2,.3,-.1,.6,-.6,.7c-.2,0,-.5,0,-.8,0Z" class="g6_15"/>
<path d="M625.2,309.3c0,.6,-.5,1,-1,1c-.6,0,-1.1,-.4,-1.1,-1c0,-.5,.5,-1,1,-1c.6,-.1,1.1,.4,1.1,1Z" class="g6_15"/>
<path d="M606.3,904.9H866.1v-1.6H606.3Z" class="g7_15"/>
<path d="M866.1,614.6V594.2h-.7v20.4Z" class="g3_15"/>
<path d="M866.1,639.4V614.6h-.7v24.8Z" class="g3_15"/>
<path d="M736.6,659.4v-20h-.8v20Z" class="g3_15"/>
<path d="M801.4,659.4v-20h-.8v20Z" class="g3_15"/>
<path d="M866.1,659.4v-20h-.7v20Z" class="g3_15"/>
<path d="M736.6,679.4v-20h-.8v20Z" class="g3_15"/>
<path d="M801.4,679.4v-20h-.8v20Z" class="g3_15"/>
<path d="M866.1,679.4v-20h-.7v20Z" class="g3_15"/>
<path d="M736.6,699.3V679.4h-.8v19.9Z" class="g3_15"/>
<path d="M801.4,699.3V679.4h-.8v19.9Z" class="g3_15"/>
<path d="M866.1,699.3V679.4h-.7v19.9Z" class="g3_15"/>
<path d="M736.6,719.3v-20h-.8v20Z" class="g3_15"/>
<path d="M801.4,719.3v-20h-.8v20Z" class="g3_15"/>
<path d="M866.1,719.3v-20h-.7v20Z" class="g3_15"/>
<path d="M736.6,739.3v-20h-.8v20Z" class="g3_15"/>
<path d="M801.4,739.3v-20h-.8v20Z" class="g3_15"/>
<path d="M866.1,739.3v-20h-.7v20Z" class="g3_15"/>
<path d="M736.6,759.2V739.3h-.8v19.9Z" class="g3_15"/>
<path d="M801.4,759.2V739.3h-.8v19.9Z" class="g3_15"/>
<path d="M866.1,759.2V739.3h-.7v19.9Z" class="g3_15"/>
<path d="M736.6,779.2v-20h-.8v20Z" class="g3_15"/>
<path d="M801.4,779.2v-20h-.8v20Z" class="g3_15"/>
<path d="M866.1,779.2v-20h-.7v20Z" class="g3_15"/>
<path d="M736.6,799.2v-20h-.8v20Z" class="g3_15"/>
<path d="M801.4,799.2v-20h-.8v20Z" class="g3_15"/>
<path d="M866.1,799.2v-20h-.7v20Z" class="g3_15"/>
<path d="M736.6,819.1V799.2h-.8v19.9Z" class="g3_15"/>
<path d="M801.4,819.1V799.2h-.8v19.9Z" class="g3_15"/>
<path d="M866.1,819.1V799.2h-.7v19.9Z" class="g3_15"/>
<path d="M736.6,839.1v-20h-.8v20Z" class="g3_15"/>
<path d="M801.4,839.1v-20h-.8v20Z" class="g3_15"/>
<path d="M866.1,839.1v-20h-.7v20Z" class="g3_15"/>
<path d="M736.6,859.1v-20h-.8v20Z" class="g3_15"/>
<path d="M801.4,859.1v-20h-.8v20Z" class="g3_15"/>
<path d="M866.1,859.1v-20h-.7v20Z" class="g3_15"/>
<path d="M736.6,879V859.1h-.8V879Z" class="g3_15"/>
<path d="M801.4,879V859.1h-.8V879Z" class="g3_15"/>
<path d="M866.1,879V859.1h-.7V879Z" class="g3_15"/>
<path d="M736.6,899V879h-.8v20Z" class="g3_15"/>
<path d="M801.4,899V879h-.8v20Z" class="g3_15"/>
<path d="M866.1,899V879h-.7v20Z" class="g3_15"/>
<path d="M640.9,615.4h95.3v-1.6H640.9Z" class="g5_15"/>
<path d="M736.2,615.4H801v-1.6H736.2Z" class="g5_15"/>
<path d="M801,615.4h64.4v-1.6H801Z" class="g5_15"/>
<path d="M624.1,633.1c9.9,0,17.9,-7.9,17.9,-17.8c0,-9.9,-8,-17.8,-17.9,-17.8c-9.8,0,-17.8,7.9,-17.8,17.8c0,9.9,8,17.8,17.8,17.8Z" class="g5_15"/>
<path d="M634.6,617.1c0,.7,.2,1.4,.2,2.1c0,2.1,-1,3.6,-2.7,4.7c-1.3,.9,-2.8,1.3,-4.3,1.3c-2.4,0,-4.8,0,-7.2,0c-1.7,0,-3.2,-.4,-4.5,-1.4c-2,-1.3,-2.8,-3.2,-2.5,-5.6c.2,-1.9,.3,-3.9,.4,-5.9c0,-1.8,-.1,-3.6,-.1,-5.4c0,-2.1,.9,-3.7,2.5,-5c1.5,-1,3.1,-1.5,4.9,-1.5c1.9,-.1,3.9,-.1,5.8,0c1.6,0,3.2,.4,4.6,1.4c1.9,1.3,2.8,3.2,2.7,5.6c-.1,1.2,0,2.4,0,3.6c-.1,0,.1,4.1,.2,6.1M624.2,601.6v-.1c-1,0,-1.9,0,-2.9,0c-1.3,.1,-2.5,.4,-3.6,1c-1.6,1,-2.7,2.3,-2.6,4.2c.1,.8,.3,1.7,.6,2.5c.4,1.4,1,2.6,2.1,3.6c.3,.2,.3,.5,0,.8c-.6,.7,-1.3,1.3,-2.1,1.5c-.6,.2,-.7,.5,-.7,1c-.1,.5,.1,.9,.4,1.2c.8,.8,1.7,1.4,2.7,1.8c1.8,.8,3.7,1,5.6,1.1c2,0,4.1,-.2,6,-.9c1.4,-.5,2.6,-1.1,3.4,-2.3c.1,-.1,.2,-.3,.2,-.4c0,-.4,0,-.7,0,-1l-.2,-.3c-1.1,-.3,-1.9,-.9,-2.6,-1.7c-.3,-.3,-.3,-.6,0,-.9c.4,-.5,.9,-1,1.2,-1.5c.8,-1.2,1.2,-2.6,1.4,-4c.2,-1.1,0,-2.2,-.8,-3.1c-1.1,-1.6,-2.7,-2.3,-4.6,-2.5c-1.1,-.1,-2.3,0,-3.5,0m-9.4,16.5c-.3,1.6,0,3.1,1.3,4.2c1.3,1.2,2.8,1.7,4.6,1.7c2.3,0,4.6,0,6.9,0c.8,0,1.6,-.1,2.4,-.4c1.4,-.4,2.5,-1.2,3.2,-2.6c.5,-.9,.5,-1.9,.3,-2.9h-.1c-1.1,1.4,-2.6,2.2,-4.3,2.6c-2.9,.8,-5.7,.8,-8.6,.3c-1.4,-.2,-2.8,-.6,-3.9,-1.4c-.7,-.5,-1.2,-1,-1.8,-1.5Z" class="g6_15"/>
<path d="M618.8,625.6c-.5,.4,-1,.8,-1.5,1.1c-.5,.4,-1.7,1.4,-2.3,1.8c-.2,.3,-.5,.2,-.7,.2l-.3,-.4c-.1,-.2,0,-.4,.2,-.6c.3,-.3,1.4,-1.1,1.7,-1.4c.4,-.3,.9,-.6,1.3,-1h.4c.4,.1,.8,.2,1.2,.3Z" class="g6_15"/>
<path d="M629.5,625.6c.5,-.1,.9,-.3,1.3,-.4l.3,.1c.7,.6,2.3,1.8,3,2.4c.1,.1,.3,.2,.3,.3c.1,.3,.1,.5,-.2,.6c-.2,.1,-.5,.2,-.7,.1c-1.1,-.8,-2.9,-2.2,-4,-3.1Z" class="g6_15"/>
<path d="M624.1,612.3c-1.1,0,-2.1,0,-3.2,-.1c-2,-.1,-3.5,-1.5,-3.9,-3.5c-.1,-.5,-.2,-1,-.3,-1.4c-.4,-2,1,-3.6,3,-3.6c3,0,5.9,0,8.9,0c1.9,0,3.2,1.4,3,3.3c-.1,1.1,-.2,2.2,-.8,3.1c-.9,1.4,-2.2,2.2,-3.9,2.2c-.9,0,-1.9,0,-2.8,0Z" class="g6_15"/>
<path d="M628.7,615c.3,0,.5,-.1,.8,0c.4,0,.7,.3,.5,.6c-.4,.8,-.9,1.7,-1.4,2.5c-.1,.2,-.3,.3,-.6,.3c-.5,0,-1.1,0,-1.6,0c-.5,0,-.7,-.3,-.6,-.6c.5,-.9,1,-1.7,1.5,-2.5c.1,-.2,.3,-.3,.6,-.3c.3,0,.5,0,.8,0Z" class="g6_15"/>
<path d="M621.1,618.4c-.2,0,-.5,0,-.7,0c-.3,0,-.6,-.1,-.7,-.3c-.5,-.8,-1,-1.6,-1.4,-2.5c-.2,-.3,0,-.6,.6,-.6c.5,0,1,0,1.5,0c.3,0,.5,.1,.6,.3c.5,.8,1,1.6,1.5,2.5c.2,.3,-.1,.6,-.6,.6c-.2,0,-.5,0,-.8,0Z" class="g6_15"/>
<path d="M625.2,622.7c0,.6,-.5,1.1,-1,1.1c-.6,0,-1.1,-.5,-1.1,-1c0,-.6,.5,-1.1,1,-1.1c.6,0,1.1,.5,1.1,1Z" class="g6_15"/>
<path d="M606.3,185h34.6v40.4H606.3V185Z" class="g3_15"/>
<image x="640" y="184" width="226" height="42" xlink:href="shade/1.png"/>
<path d="M640.9,206.1H865.8v-1.5H640.9Z" class="g5_15"/>
<path d="M624.1,223.9c9.9,0,17.9,-8,17.9,-17.8c0,-9.9,-8,-17.9,-17.9,-17.9c-9.8,0,-17.8,8,-17.8,17.9c0,9.8,8,17.8,17.8,17.8Z" class="g5_15"/>
<path d="M634.6,207.8c0,.8,.2,1.5,.2,2.2c0,2,-1,3.6,-2.7,4.7c-1.3,.8,-2.8,1.2,-4.3,1.3c-2.4,0,-4.8,0,-7.2,0c-1.7,-.1,-3.2,-.5,-4.5,-1.4c-2,-1.4,-2.8,-3.2,-2.5,-5.6c.2,-2,.3,-3.9,.4,-5.9c0,-1.8,-.1,-3.6,-.1,-5.4c0,-2.2,.9,-3.8,2.5,-5c1.5,-1.1,3.1,-1.6,4.9,-1.6c1.9,0,3.9,0,5.8,0c1.6,0,3.2,.5,4.6,1.4c1.9,1.4,2.8,3.2,2.7,5.6c-.1,1.2,0,2.4,0,3.6c-.1,.1,.1,4.1,.2,6.1M624.2,192.4v-.1c-1,0,-1.9,0,-2.9,0c-1.3,0,-2.5,.3,-3.6,1c-1.6,.9,-2.7,2.2,-2.6,4.2c.1,.8,.3,1.7,.6,2.5c.4,1.3,1,2.6,2.1,3.5c.3,.2,.3,.6,0,.9c-.6,.6,-1.3,1.2,-2.1,1.5c-.6,.2,-.7,.5,-.7,1c-.1,.5,.1,.8,.4,1.2c.7,.8,1.7,1.4,2.7,1.8c1.8,.7,3.7,1,5.6,1c2,0,4.1,-.1,6,-.8c1.4,-.5,2.6,-1.2,3.4,-2.3c.1,-.2,.2,-.3,.2,-.5c0,-.3,0,-.6,0,-1l-.3,-.2c-1,-.4,-1.8,-1,-2.5,-1.7c-.3,-.3,-.3,-.7,0,-1c.4,-.4,.9,-.9,1.2,-1.4c.8,-1.3,1.2,-2.6,1.4,-4c.2,-1.2,-.1,-2.2,-.8,-3.2c-1.1,-1.5,-2.7,-2.3,-4.6,-2.4c-1.2,-.1,-2.3,0,-3.5,0m-9.4,16.5c-.3,1.6,0,3,1.3,4.2c1.3,1.2,2.8,1.7,4.5,1.7c2.4,0,4.7,0,7,0c.8,0,1.6,-.1,2.4,-.4c1.3,-.5,2.5,-1.3,3.2,-2.6c.5,-1,.5,-2,.3,-3l-.1,.1c-1.1,1.4,-2.6,2.1,-4.3,2.6c-2.9,.8,-5.7,.8,-8.6,.3c-1.4,-.2,-2.8,-.7,-3.9,-1.5c-.7,-.4,-1.2,-.9,-1.8,-1.4Z" class="g6_15"/>
<path d="M618.8,216.4c-.5,.4,-1,.7,-1.5,1.1c-.5,.4,-1.8,1.4,-2.3,1.8c-.2,.2,-.5,.2,-.7,.1l-.3,-.3c-.1,-.3,0,-.5,.2,-.6c.3,-.3,1.4,-1.2,1.7,-1.4c.4,-.4,.9,-.7,1.3,-1l.4,-.1c.4,.1,.8,.2,1.2,.4Z" class="g6_15"/>
<path d="M629.5,216.4c.5,-.2,.9,-.3,1.3,-.4l.3,.1c.7,.6,2.3,1.7,3,2.3c.1,.1,.3,.3,.3,.4c.1,.2,.1,.5,-.2,.6c-.2,.1,-.5,.1,-.7,0c-1.1,-.7,-2.9,-2.2,-4,-3Z" class="g6_15"/>
<path d="M624.1,203c-1.1,0,-2.1,.1,-3.2,0c-2,-.1,-3.5,-1.6,-3.9,-3.5c-.1,-.5,-.2,-1,-.3,-1.5c-.4,-1.9,1,-3.6,3,-3.6c2.9,0,5.9,0,8.9,0c1.9,0,3.2,1.5,3,3.4c-.1,1,-.3,2.1,-.8,3.1c-.9,1.4,-2.2,2.1,-3.9,2.1c-.9,0,-1.9,0,-2.8,0Z" class="g6_15"/>
<path d="M628.7,205.7c.3,0,.5,0,.8,0c.4,0,.7,.3,.5,.6c-.4,.9,-.9,1.7,-1.4,2.6c-.1,.2,-.3,.3,-.6,.3c-.5,0,-1.1,0,-1.6,0c-.5,0,-.7,-.3,-.6,-.7c.5,-.8,1,-1.6,1.5,-2.5c.1,-.2,.3,-.3,.6,-.3c.3,0,.5,0,.8,0Z" class="g6_15"/>
<path d="M621.1,209.2c-.2,0,-.5,0,-.7,0c-.3,0,-.6,-.1,-.7,-.4c-.5,-.8,-1,-1.6,-1.4,-2.4c-.2,-.4,0,-.7,.6,-.7c.5,0,1,0,1.5,0c.3,0,.5,.1,.6,.3c.5,.9,1,1.7,1.5,2.5c.2,.3,-.1,.6,-.6,.7c-.2,0,-.5,0,-.8,0Z" class="g6_15"/>
<path d="M625.2,213.5c0,.6,-.5,1,-1,1c-.6,0,-1.1,-.4,-1.1,-1c0,-.5,.5,-1,1,-1c.6,0,1.1,.4,1.1,1Z" class="g6_15"/>
<path d="M43.3,353.2H584.6v-2.3H43.3v2.3Z" class="g8_15"/>
<image clip-path="url(#c7_15)" preserveAspectRatio="none" x="487" y="257" width="99" height="102" xlink:href="img/7.jpg"/>
<image clip-path="url(#c8_15)" preserveAspectRatio="none" x="497" y="257" width="88" height="73" xlink:href="img/8.jpg"/>
<image clip-path="url(#c9_15)" preserveAspectRatio="none" x="497" y="350" width="88" height="4" xlink:href="img/9.jpg"/>
<image clip-path="url(#ca_15)" preserveAspectRatio="none" x="497" y="275" width="74" height="3" xlink:href="img/10.jpg"/>
<path d="M512.9,269.8c-10.1,0,-18.3,8.2,-18.3,18.4v64.1h79V288.2c0,-10.2,-8.2,-18.4,-18.3,-18.4Z" class="g3_15"/>
<path d="M494.5,353.2h79.1V346H494.5v7.2Z" class="g8_15"/>
<path d="M499.9,328.3h2.4c.2,0,.3,-.2,.3,-.4c0,-.2,-.1,-.4,-.3,-.4h-2.4c-.2,0,-.3,.2,-.3,.4c0,.2,.1,.4,.3,.4m3.9,0h2.3c.3,0,.4,-.2,.4,-.4c0,-.2,-.1,-.4,-.4,-.4h-2.3c-.2,0,-.4,.2,-.4,.4c0,.2,.2,.4,.4,.4m3.9,0H510c.2,0,.4,-.2,.4,-.4c0,-.2,-.2,-.4,-.4,-.4h-2.3c-.2,0,-.4,.2,-.4,.4c0,.2,.2,.4,.4,.4m3.9,0h2.3c.2,0,.4,-.2,.4,-.4c0,-.2,-.2,-.4,-.4,-.4h-2.3c-.2,0,-.4,.2,-.4,.4c0,.2,.2,.4,.4,.4m3.9,0h2.3c.2,0,.4,-.2,.4,-.4c0,-.2,-.2,-.4,-.4,-.4h-2.3c-.2,0,-.4,.2,-.4,.4c0,.2,.2,.4,.4,.4m3.9,0h2.3c.2,0,.4,-.2,.4,-.4c0,-.2,-.2,-.4,-.4,-.4h-2.3c-.3,0,-.4,.2,-.4,.4c0,.2,.1,.4,.4,.4m3.8,0h2.4c.2,0,.3,-.2,.3,-.4c0,-.2,-.1,-.4,-.3,-.4h-2.4c-.2,0,-.3,.2,-.3,.4c0,.2,.1,.4,.3,.4m3.9,0h2.3c.3,0,.4,-.2,.4,-.4c0,-.2,-.1,-.4,-.4,-.4h-2.3c-.2,0,-.4,.2,-.4,.4c0,.2,.2,.4,.4,.4m3.9,0h2.3c.2,0,.4,-.2,.4,-.4c0,-.2,-.2,-.4,-.4,-.4H531c-.2,0,-.4,.2,-.4,.4c0,.2,.2,.4,.4,.4m3.9,0h2.3c.2,0,.4,-.2,.4,-.4c0,-.2,-.2,-.4,-.4,-.4h-2.3c-.2,0,-.4,.2,-.4,.4c0,.2,.2,.4,.4,.4m3.9,0h2.3c.2,0,.4,-.2,.4,-.4c0,-.2,-.2,-.4,-.4,-.4h-2.3c-.2,0,-.4,.2,-.4,.4c0,.2,.2,.4,.4,.4m3.8,0H545c.2,0,.3,-.2,.3,-.4c0,-.2,-.1,-.4,-.3,-.4h-2.4c-.2,0,-.3,.2,-.3,.4c0,.2,.1,.4,.3,.4m3.9,0h2.3c.3,0,.4,-.2,.4,-.4c0,-.2,-.1,-.4,-.4,-.4h-2.3c-.2,0,-.4,.2,-.4,.4c0,.2,.2,.4,.4,.4m3.9,0h2.3c.2,0,.4,-.2,.4,-.4c0,-.2,-.2,-.4,-.4,-.4h-2.3c-.2,0,-.4,.2,-.4,.4c0,.2,.2,.4,.4,.4m3.9,0h2.3c.2,0,.4,-.2,.4,-.4c0,-.2,-.2,-.4,-.4,-.4h-2.3c-.2,0,-.4,.2,-.4,.4c0,.2,.2,.4,.4,.4m3.9,0h2.3c.2,0,.4,-.2,.4,-.4c0,-.2,-.2,-.4,-.4,-.4h-2.3c-.2,0,-.4,.2,-.4,.4c0,.2,.2,.4,.4,.4m3.9,0h2.3c.2,0,.4,-.2,.4,-.4c0,-.2,-.2,-.4,-.4,-.4h-2.3c-.3,0,-.4,.2,-.4,.4c0,.2,.1,.4,.4,.4m3.8,0h2.4c.2,0,.3,-.2,.3,-.4c0,-.2,-.1,-.4,-.3,-.4h-2.4c-.2,0,-.3,.2,-.3,.4c0,.2,.1,.4,.3,.4Z" class="g9_15"/>
<path d="M499.3,291.9h2.3c.2,0,.4,-.2,.4,-.4c0,-.2,-.2,-.4,-.4,-.4h-2.3c-.2,0,-.4,.2,-.4,.4c0,.2,.2,.4,.4,.4m3.9,0h2.3c.2,0,.4,-.2,.4,-.4c0,-.2,-.2,-.4,-.4,-.4h-2.3c-.2,0,-.4,.2,-.4,.4c0,.2,.2,.4,.4,.4m3.9,0h2.3c.2,0,.4,-.2,.4,-.4c0,-.2,-.2,-.4,-.4,-.4h-2.3c-.3,0,-.4,.2,-.4,.4c0,.2,.1,.4,.4,.4m3.8,0h2.4c.2,0,.3,-.2,.3,-.4c0,-.2,-.1,-.4,-.3,-.4h-2.4c-.2,0,-.3,.2,-.3,.4c0,.2,.1,.4,.3,.4m3.9,0h2.3c.3,0,.4,-.2,.4,-.4c0,-.2,-.1,-.4,-.4,-.4h-2.3c-.2,0,-.4,.2,-.4,.4c0,.2,.2,.4,.4,.4m3.9,0H521c.2,0,.4,-.2,.4,-.4c0,-.2,-.2,-.4,-.4,-.4h-2.3c-.2,0,-.4,.2,-.4,.4c0,.2,.2,.4,.4,.4m3.9,0h2.3c.2,0,.4,-.2,.4,-.4c0,-.2,-.2,-.4,-.4,-.4h-2.3c-.2,0,-.4,.2,-.4,.4c0,.2,.2,.4,.4,.4m3.9,0h2.3c.2,0,.4,-.2,.4,-.4c0,-.2,-.2,-.4,-.4,-.4h-2.3c-.2,0,-.4,.2,-.4,.4c0,.2,.2,.4,.4,.4m3.8,0h2.4c.2,0,.4,-.2,.4,-.4c0,-.2,-.2,-.4,-.4,-.4h-2.4c-.2,0,-.3,.2,-.3,.4c0,.2,.1,.4,.3,.4m3.9,0h2.4c.2,0,.3,-.2,.3,-.4c0,-.2,-.1,-.4,-.3,-.4h-2.4c-.2,0,-.4,.2,-.4,.4c0,.2,.2,.4,.4,.4m3.9,0h2.3c.2,0,.4,-.2,.4,-.4c0,-.2,-.2,-.4,-.4,-.4h-2.3c-.2,0,-.4,.2,-.4,.4c0,.2,.2,.4,.4,.4m3.9,0h2.3c.2,0,.4,-.2,.4,-.4c0,-.2,-.2,-.4,-.4,-.4H542c-.2,0,-.4,.2,-.4,.4c0,.2,.2,.4,.4,.4m3.9,0h2.3c.2,0,.4,-.2,.4,-.4c0,-.2,-.2,-.4,-.4,-.4h-2.3c-.2,0,-.4,.2,-.4,.4c0,.2,.2,.4,.4,.4m3.9,0h2.3c.2,0,.4,-.2,.4,-.4c0,-.2,-.2,-.4,-.4,-.4h-2.3c-.3,0,-.4,.2,-.4,.4c0,.2,.1,.4,.4,.4m3.8,0H556c.2,0,.3,-.2,.3,-.4c0,-.2,-.1,-.4,-.3,-.4h-2.4c-.2,0,-.3,.2,-.3,.4c0,.2,.1,.4,.3,.4m3.9,0h2.3c.3,0,.4,-.2,.4,-.4c0,-.2,-.1,-.4,-.4,-.4h-2.3c-.2,0,-.4,.2,-.4,.4c0,.2,.2,.4,.4,.4m3.9,0h2.3c.2,0,.4,-.2,.4,-.4c0,-.2,-.2,-.4,-.4,-.4h-2.3c-.2,0,-.4,.2,-.4,.4c0,.2,.2,.4,.4,.4m3.9,0h2.3c.2,0,.4,-.2,.4,-.4c0,-.2,-.2,-.4,-.4,-.4h-2.3c-.2,0,-.4,.2,-.4,.4c0,.2,.2,.4,.4,.4Z" class="g9_15"/>
<path d="M548,308.7v.7h4.6c1.1,0,2,-1,2,-2.1v-.4c0,-1.1,-.9,-2,-2,-2H548c-.5,0,-1,.2,-1.4,.5c-.1,.1,-.2,.3,-.2,.5v.3c0,.2,-.1,.3,-.2,.5c-.2,.1,-.2,.3,-.2,.5v.1c0,1.1,.9,2.1,2,2.1V308c-.4,0,-.7,-.3,-.7,-.7v-.1h-.7l.5,.5c.4,-.4,.7,-.9,.7,-1.5v-.3h-.7l.4,.5c.2,-.1,.3,-.1,.5,-.1h4.6c.3,0,.6,.3,.6,.6v.4c0,.4,-.3,.7,-.6,.7H548Z" class="g9_15"/>
<path d="M547.1,299.3l-.5,.5c.4,.4,.9,.6,1.4,.6h4.6c1.1,0,2,-.9,2,-2.1v-.4c0,-1.1,-.9,-2,-2,-2H548c-1.1,0,-2,.9,-2,2v.2c0,.2,0,.4,.2,.5c.1,.1,.2,.3,.2,.5v.2c0,.2,.1,.4,.2,.5l.5,-.5h.7v-.2c0,-.6,-.3,-1.1,-.7,-1.5l-.5,.5h.7v-.2c0,-.3,.3,-.6,.7,-.6h4.6c.3,0,.6,.3,.6,.6v.4c0,.4,-.3,.7,-.6,.7H548c-.2,0,-.3,-.1,-.5,-.2l-.4,.5h.7Z" class="g9_15"/>
<path d="M553.6,308.2v.6h1.9c1,0,1.8,-.8,1.8,-1.8v-8.7c0,-1,-.8,-1.8,-1.8,-1.8h-1.8c-.3,0,-.5,.1,-.7,.3c-.1,.3,-.1,.5,.1,.8c.1,.1,.1,.2,.1,.3v.4c0,.4,-.3,.7,-.6,.7H548c-.2,0,-.3,-.1,-.5,-.2c-.2,-.2,-.4,-.2,-.7,-.1c-.2,.1,-.4,.4,-.4,.6v6.6c0,.3,.2,.5,.4,.6c.3,.2,.5,.1,.7,-.1c.2,-.1,.3,-.1,.5,-.1h4.6c.3,0,.6,.3,.6,.6v.4c0,.2,0,.3,-.1,.4c-.2,.2,-.2,.5,-.1,.8c.1,.2,.3,.3,.6,.3v-.6l.5,.4c.3,-.4,.5,-.8,.5,-1.3v-.4c0,-1.1,-.9,-2,-2,-2H548c-.5,0,-1,.2,-1.4,.5l.5,.5h.7v-6.6h-.7l-.5,.5c.4,.4,.9,.6,1.4,.6h4.6c1.1,0,2,-.9,2,-2.1v-.4c0,-.4,-.1,-.8,-.4,-1.1l-.5,.4v.6h1.8c.2,0,.4,.2,.4,.5V307c0,.3,-.2,.5,-.4,.5h-1.9v.7l.5,.4Z" class="g9_15"/>
<path d="M547.1,299.1h.7c0,-1.1,-.9,-2,-2.1,-2h-.6c-1.2,0,-2.1,.9,-2.1,2v7.1c0,1.1,.9,2,2.1,2h.6c1.2,0,2.1,-.9,2.1,-2v-7.1h-1.4v7.1c0,.3,-.3,.6,-.7,.6h-.6c-.4,0,-.7,-.3,-.7,-.6v-7.1c0,-.4,.3,-.7,.7,-.7h.6c.4,0,.7,.3,.7,.7Z" class="g9_15"/>
<path d="M548,321.4v.7h4.6c1.1,0,2,-.9,2,-2v-.4c0,-1.1,-.9,-2,-2,-2H548c-.5,0,-1,.2,-1.4,.5c-.1,.1,-.2,.3,-.2,.5v.3c0,.1,-.1,.3,-.2,.4c-.2,.2,-.2,.4,-.2,.6v.1c0,1.1,.9,2,2,2v-1.3c-.4,0,-.7,-.3,-.7,-.7V320h-.7l.5,.5c.4,-.4,.7,-.9,.7,-1.5v-.3h-.7l.4,.5c.2,-.1,.3,-.2,.5,-.2h4.6c.3,0,.6,.3,.6,.7v.4c0,.4,-.3,.7,-.6,.7H548Z" class="g9_15"/>
<path d="M547.1,312.1l-.5,.5c.4,.4,.9,.6,1.4,.6h4.6c1.1,0,2,-1,2,-2.1v-.4c0,-1.1,-.9,-2,-2,-2H548c-1.1,0,-2,.9,-2,2v.2c0,.2,0,.4,.2,.5c.1,.1,.2,.3,.2,.5v.2c0,.2,.1,.4,.2,.5l.5,-.5h.7v-.2c0,-.6,-.3,-1.2,-.7,-1.5l-.5,.5h.7v-.2c0,-.3,.3,-.6,.7,-.6h4.6c.3,0,.6,.3,.6,.6v.4c0,.4,-.3,.7,-.6,.7H548c-.2,0,-.3,-.1,-.5,-.2l-.4,.5h.7Z" class="g9_15"/>
<path d="M553.6,320.9v.7h1.9c1,0,1.8,-.8,1.8,-1.8v-8.7c0,-1,-.8,-1.9,-1.8,-1.9h-1.8c-.3,0,-.5,.2,-.7,.4c-.1,.3,-.1,.5,.1,.7c.1,.2,.1,.3,.1,.4v.4c0,.4,-.3,.7,-.6,.7H548c-.2,0,-.3,-.1,-.5,-.2c-.2,-.2,-.4,-.2,-.7,-.1c-.2,.1,-.4,.3,-.4,.6v6.6c0,.3,.2,.5,.4,.6c.3,.1,.5,.1,.7,-.1c.2,-.1,.3,-.2,.5,-.2h4.6c.3,0,.6,.3,.6,.7v.4c0,.1,0,.3,-.1,.4c-.2,.2,-.2,.5,-.1,.7c.1,.3,.3,.4,.6,.4v-.7l.5,.5c.3,-.4,.5,-.8,.5,-1.3v-.4c0,-1.1,-.9,-2,-2,-2H548c-.5,0,-1,.2,-1.4,.5l.5,.5h.7v-6.6h-.7l-.5,.5c.4,.3,.9,.6,1.4,.6h4.6c1.1,0,2,-1,2,-2.1v-.4c0,-.4,-.1,-.8,-.4,-1.2l-.5,.4v.7h1.8c.2,0,.4,.2,.4,.5v8.7c0,.3,-.2,.4,-.4,.4h-1.9v.7l.5,.5Z" class="g9_15"/>
<path d="M547.1,311.9h.7c0,-1.1,-.9,-2.1,-2.1,-2.1h-.6c-1.2,0,-2.1,1,-2.1,2.1V319c0,1.1,.9,2,2.1,2h.6c1.2,0,2.1,-.9,2.1,-2v-7.1h-1.4V319c0,.3,-.3,.6,-.7,.6h-.6c-.4,0,-.7,-.3,-.7,-.6v-7.1c0,-.4,.3,-.7,.7,-.7h.6c.4,0,.7,.3,.7,.7Z" class="g9_15"/>
<path d="M532.7,307.8h3.2c.5,0,.9,-.2,.9,-.5v-.2c0,-.3,-.4,-.6,-.9,-.6h-3.2c-.2,0,-.5,.1,-.6,.2v.1c0,.2,-.1,.3,-.3,.4v.1c0,.3,.4,.5,.9,.5Z" class="g9_15"/>
<path d="M532.2,298c.2,.1,.4,.2,.7,.2h3.3c.5,0,.9,-.3,.9,-.6v-.2c0,-.4,-.4,-.6,-.9,-.6h-3.3c-.6,0,-1,.2,-1,.6v.1c.2,.1,.3,.2,.3,.4Z" class="g9_15"/>
<path d="M538,307.9h1.8c.6,0,1.1,-.6,1.1,-1.2V298c0,-.6,-.5,-1.1,-1.1,-1.1h-1.7c.1,.2,.2,.4,.2,.7v.4c0,.8,-.6,1.4,-1.3,1.4h-4.3c-.4,0,-.7,-.1,-.9,-.4v6.6c.2,-.2,.5,-.3,.9,-.3H537c.7,0,1.3,.6,1.3,1.3v.4c0,.3,-.1,.6,-.3,.9Z" class="g9_15"/>
<path d="M530.5,299.5c0,-.5,-.5,-1,-1.1,-1c-.6,0,-1.1,.5,-1.1,1v5.6c0,.6,.5,1.1,1.1,1.1c.6,0,1.1,-.5,1.1,-1.1Z" class="g9_15"/>
<path d="M532.3,321.4v.7h4.5c1.2,0,2.1,-.9,2.1,-2v-.4c0,-1.1,-.9,-2,-2.1,-2h-4.5c-.6,0,-1.1,.2,-1.4,.5c-.2,.1,-.2,.3,-.2,.5v.3c0,.1,-.1,.3,-.3,.4c-.1,.2,-.2,.4,-.2,.6v.1c0,1.1,.9,2,2.1,2v-1.3c-.4,0,-.7,-.3,-.7,-.7V320h-.7l.5,.5c.4,-.4,.6,-.9,.6,-1.5v-.3h-.6l.4,.5c.1,-.1,.3,-.2,.5,-.2h4.5c.4,0,.7,.3,.7,.7v.4c0,.4,-.3,.7,-.7,.7h-4.5Z" class="g9_15"/>
<path d="M531.4,312.1l-.5,.5c.3,.4,.8,.6,1.4,.6h4.5c1.2,0,2.1,-1,2.1,-2.1v-.4c0,-1.1,-.9,-2,-2.1,-2h-4.5c-1.2,0,-2.1,.9,-2.1,2v.2c0,.2,.1,.4,.2,.5c.2,.1,.3,.3,.3,.5v.2c0,.2,0,.4,.2,.5l.5,-.5h.6v-.2c0,-.6,-.2,-1.2,-.6,-1.5l-.5,.5h.7v-.2c0,-.3,.3,-.6,.7,-.6h4.5c.4,0,.7,.3,.7,.6v.4c0,.4,-.3,.7,-.7,.7h-4.5c-.2,0,-.4,-.1,-.5,-.2l-.4,.5h.6Z" class="g9_15"/>
<path d="M537.9,320.9v.7h1.9c1,0,1.8,-.8,1.8,-1.8v-8.7c0,-1,-.8,-1.9,-1.8,-1.9h-1.9c-.2,0,-.5,.2,-.6,.4c-.1,.3,-.1,.5,.1,.7c0,.2,.1,.3,.1,.4v.4c0,.4,-.3,.7,-.7,.7h-4.5c-.2,0,-.4,-.1,-.5,-.2c-.2,-.2,-.5,-.2,-.7,-.1c-.3,.1,-.4,.3,-.4,.6v6.6c0,.3,.1,.5,.4,.6c.2,.1,.5,.1,.7,-.1c.1,-.1,.3,-.2,.5,-.2h4.5c.4,0,.7,.3,.7,.7v.4c0,.1,-.1,.3,-.2,.4c-.1,.2,-.2,.5,0,.7c.1,.3,.3,.4,.6,.4v-.7l.5,.5c.3,-.4,.5,-.8,.5,-1.3v-.4c0,-1.1,-.9,-2,-2.1,-2h-4.5c-.6,0,-1.1,.2,-1.4,.5l.5,.5h.6v-6.6h-.6l-.5,.5c.3,.3,.8,.6,1.4,.6h4.5c1.2,0,2.1,-1,2.1,-2.1v-.4c0,-.4,-.2,-.8,-.4,-1.2l-.6,.4v.7h1.9c.2,0,.4,.2,.4,.5v8.7c0,.3,-.2,.4,-.4,.4h-1.9v.7l.5,.5Z" class="g9_15"/>
<path d="M531.4,311.9h.6c0,-1.1,-.9,-2.1,-2,-2.1h-.7c-1.1,0,-2,1,-2,2.1V319c0,1.1,.9,2,2,2h.7c1.1,0,2,-.9,2,-2v-7.1h-1.3V319c0,.3,-.3,.6,-.7,.6h-.7c-.3,0,-.6,-.3,-.6,-.6v-7.1c0,-.4,.3,-.7,.6,-.7h.7c.4,0,.7,.3,.7,.7Z" class="g9_15"/>
<path d="M516.5,308.7v.7h4.6c1.1,0,2,-1,2,-2.1v-.4c0,-1.1,-.9,-2,-2,-2h-4.6c-.5,0,-1,.2,-1.3,.5c-.2,.1,-.3,.3,-.3,.5v.3c0,.2,-.1,.3,-.2,.5c-.1,.1,-.2,.3,-.2,.5v.1c0,1.1,.9,2.1,2,2.1V308c-.3,0,-.6,-.3,-.6,-.7v-.1h-.7l.4,.5c.4,-.4,.7,-.9,.7,-1.5v-.3h-.7l.5,.5c.1,-.1,.2,-.1,.4,-.1h4.6c.4,0,.7,.3,.7,.6v.4c0,.4,-.3,.7,-.7,.7h-4.6Z" class="g9_15"/>
<path d="M515.6,299.3l-.4,.5c.3,.4,.8,.6,1.3,.6h4.6c1.1,0,2,-.9,2,-2.1v-.4c0,-1.1,-.9,-2,-2,-2h-4.6c-1.1,0,-2,.9,-2,2v.2c0,.2,.1,.4,.2,.5c.1,.1,.2,.3,.2,.5v.2c0,.2,.1,.4,.3,.5l.4,-.5h.7v-.2c0,-.6,-.3,-1.1,-.7,-1.5l-.4,.5h.7v-.2c0,-.3,.3,-.6,.6,-.6h4.6c.4,0,.7,.3,.7,.6v.4c0,.4,-.3,.7,-.7,.7h-4.6c-.2,0,-.3,-.1,-.4,-.2l-.5,.5h.7Z" class="g9_15"/>
<path d="M522.1,308.2v.6H524c1,0,1.8,-.8,1.8,-1.8v-8.7c0,-1,-.8,-1.8,-1.8,-1.8h-1.8c-.3,0,-.5,.1,-.6,.3c-.1,.3,-.1,.5,0,.8c.1,.1,.2,.2,.2,.3v.4c0,.4,-.3,.7,-.7,.7h-4.6c-.2,0,-.3,-.1,-.4,-.2c-.2,-.2,-.5,-.2,-.8,-.1c-.2,.1,-.4,.4,-.4,.6v6.6c0,.3,.2,.5,.4,.6c.3,.2,.6,.1,.8,-.1c.1,-.1,.2,-.1,.4,-.1h4.6c.4,0,.7,.3,.7,.6v.4c0,.2,-.1,.3,-.2,.4c-.2,.2,-.2,.5,-.1,.8c.1,.2,.4,.3,.6,.3v-.6l.6,.4c.2,-.4,.4,-.8,.4,-1.3v-.4c0,-1.1,-.9,-2,-2,-2h-4.6c-.5,0,-1,.2,-1.3,.5l.4,.5h.7v-6.6h-.7l-.4,.5c.3,.4,.8,.6,1.3,.6h4.6c1.1,0,2,-.9,2,-2.1v-.4c0,-.4,-.1,-.8,-.4,-1.1l-.5,.4v.6H524c.3,0,.5,.2,.5,.5V307c0,.3,-.2,.5,-.5,.5h-1.9v.7l.6,.4Z" class="g9_15"/>
<path d="M515.6,299.1h.7c0,-1.1,-.9,-2,-2,-2h-.7c-1.1,0,-2.1,.9,-2.1,2v7.1c0,1.1,1,2,2.1,2h.7c1.1,0,2,-.9,2,-2v-7.1h-1.4v7.1c0,.3,-.3,.6,-.6,.6h-.7c-.4,0,-.7,-.3,-.7,-.6v-7.1c0,-.4,.3,-.7,.7,-.7h.7c.3,0,.6,.3,.6,.7Z" class="g9_15"/>
<path d="M516.5,321.4v.7h4.6c1.1,0,2,-.9,2,-2v-.4c0,-1.1,-.9,-2,-2,-2h-4.6c-.5,0,-1,.2,-1.3,.5c-.2,.1,-.3,.3,-.3,.5v.3c0,.1,-.1,.3,-.2,.4c-.1,.2,-.2,.4,-.2,.6v.1c0,1.1,.9,2,2,2v-1.3c-.3,0,-.6,-.3,-.6,-.7V320h-.7l.4,.5c.4,-.4,.7,-.9,.7,-1.5v-.3h-.7l.5,.5c.1,-.1,.2,-.2,.4,-.2h4.6c.4,0,.7,.3,.7,.7v.4c0,.4,-.3,.7,-.7,.7h-4.6Z" class="g9_15"/>
<path d="M515.6,312.1l-.4,.5c.3,.4,.8,.6,1.3,.6h4.6c1.1,0,2,-1,2,-2.1v-.4c0,-1.1,-.9,-2,-2,-2h-4.6c-1.1,0,-2,.9,-2,2v.2c0,.2,.1,.4,.2,.5c.1,.1,.2,.3,.2,.5v.2c0,.2,.1,.4,.3,.5l.4,-.5h.7v-.2c0,-.6,-.3,-1.2,-.7,-1.5l-.4,.5h.7v-.2c0,-.3,.3,-.6,.6,-.6h4.6c.4,0,.7,.3,.7,.6v.4c0,.4,-.3,.7,-.7,.7h-4.6c-.2,0,-.3,-.1,-.4,-.2l-.5,.5h.7Z" class="g9_15"/>
<path d="M522.1,320.9v.7H524c1,0,1.8,-.8,1.8,-1.8v-8.7c0,-1,-.8,-1.9,-1.8,-1.9h-1.8c-.3,0,-.5,.2,-.6,.4c-.1,.3,-.1,.5,0,.7c.1,.2,.2,.3,.2,.4v.4c0,.4,-.3,.7,-.7,.7h-4.6c-.2,0,-.3,-.1,-.4,-.2c-.2,-.2,-.5,-.2,-.8,-.1c-.2,.1,-.4,.3,-.4,.6v6.6c0,.3,.2,.5,.4,.6c.3,.1,.6,.1,.8,-.1c.1,-.1,.2,-.2,.4,-.2h4.6c.4,0,.7,.3,.7,.7v.4c0,.1,-.1,.3,-.2,.4c-.2,.2,-.2,.5,-.1,.7c.1,.3,.4,.4,.6,.4v-.7l.6,.5c.2,-.4,.4,-.8,.4,-1.3v-.4c0,-1.1,-.9,-2,-2,-2h-4.6c-.5,0,-1,.2,-1.3,.5l.4,.5h.7v-6.6h-.7l-.4,.5c.3,.3,.8,.6,1.3,.6h4.6c1.1,0,2,-1,2,-2.1v-.4c0,-.4,-.1,-.8,-.4,-1.2l-.5,.4v.7H524c.3,0,.5,.2,.5,.5v8.7c0,.3,-.2,.4,-.5,.4h-1.9v.7l.6,.5Z" class="g9_15"/>
<path d="M515.6,311.9h.7c0,-1.1,-.9,-2.1,-2,-2.1h-.7c-1.1,0,-2.1,1,-2.1,2.1V319c0,1.1,1,2,2.1,2h.7c1.1,0,2,-.9,2,-2v-7.1h-1.4V319c0,.3,-.3,.6,-.6,.6h-.7c-.4,0,-.7,-.3,-.7,-.6v-7.1c0,-.4,.3,-.7,.7,-.7h.7c.3,0,.6,.3,.6,.7Z" class="g9_15"/>
<image clip-path="url(#cb_15)" preserveAspectRatio="none" x="399" y="329" width="89" height="30" xlink:href="img/11.jpg"/>
<image clip-path="url(#cc_15)" preserveAspectRatio="none" x="409" y="257" width="88" height="73" xlink:href="img/12.jpg"/>
<image clip-path="url(#cd_15)" preserveAspectRatio="none" x="409" y="350" width="79" height="4" xlink:href="img/13.jpg"/>
<image clip-path="url(#ce_15)" preserveAspectRatio="none" x="487" y="329" width="11" height="30" xlink:href="img/14.jpg"/>
<image clip-path="url(#cf_15)" preserveAspectRatio="none" x="488" y="257" width="9" height="73" xlink:href="img/15.jpg"/>
<image clip-path="url(#cg_15)" preserveAspectRatio="none" x="487" y="350" width="11" height="4" xlink:href="img/16.jpg"/>
<image clip-path="url(#ch_15)" preserveAspectRatio="none" x="494" y="278" width="4" height="69" xlink:href="img/17.jpg"/>
<image clip-path="url(#ci_15)" preserveAspectRatio="none" x="494" y="346" width="4" height="8" xlink:href="img/18.jpg"/>
<path d="M424.8,269.8c-10.1,0,-18.3,8.2,-18.3,18.4v64.1h79V288.2c0,-10.2,-8.2,-18.4,-18.3,-18.4Z" class="g3_15"/>
<path d="M406.4,353.2h79.1V346H406.4v7.2Z" class="g8_15"/>
<path d="M411.8,328.3h2.4c.2,0,.4,-.2,.4,-.4c0,-.2,-.2,-.4,-.4,-.4h-2.4c-.2,0,-.3,.2,-.3,.4c0,.2,.1,.4,.3,.4m3.9,0h2.4c.2,0,.3,-.2,.3,-.4c0,-.2,-.1,-.4,-.3,-.4h-2.4c-.2,0,-.4,.2,-.4,.4c0,.2,.2,.4,.4,.4m3.9,0h2.3c.2,0,.4,-.2,.4,-.4c0,-.2,-.2,-.4,-.4,-.4h-2.3c-.2,0,-.4,.2,-.4,.4c0,.2,.2,.4,.4,.4m3.9,0h2.3c.2,0,.4,-.2,.4,-.4c0,-.2,-.2,-.4,-.4,-.4h-2.3c-.2,0,-.4,.2,-.4,.4c0,.2,.2,.4,.4,.4m3.9,0h2.3c.2,0,.4,-.2,.4,-.4c0,-.2,-.2,-.4,-.4,-.4h-2.3c-.2,0,-.4,.2,-.4,.4c0,.2,.2,.4,.4,.4m3.9,0h2.3c.2,0,.4,-.2,.4,-.4c0,-.2,-.2,-.4,-.4,-.4h-2.3c-.3,0,-.4,.2,-.4,.4c0,.2,.1,.4,.4,.4m3.8,0h2.4c.2,0,.3,-.2,.3,-.4c0,-.2,-.1,-.4,-.3,-.4h-2.4c-.2,0,-.3,.2,-.3,.4c0,.2,.1,.4,.3,.4m3.9,0h2.3c.3,0,.4,-.2,.4,-.4c0,-.2,-.1,-.4,-.4,-.4H439c-.2,0,-.4,.2,-.4,.4c0,.2,.2,.4,.4,.4m3.9,0h2.3c.2,0,.4,-.2,.4,-.4c0,-.2,-.2,-.4,-.4,-.4h-2.3c-.2,0,-.4,.2,-.4,.4c0,.2,.2,.4,.4,.4m3.9,0h2.3c.2,0,.4,-.2,.4,-.4c0,-.2,-.2,-.4,-.4,-.4h-2.3c-.2,0,-.4,.2,-.4,.4c0,.2,.2,.4,.4,.4m3.9,0H453c.2,0,.4,-.2,.4,-.4c0,-.2,-.2,-.4,-.4,-.4h-2.3c-.2,0,-.4,.2,-.4,.4c0,.2,.2,.4,.4,.4m3.8,0h2.4c.2,0,.4,-.2,.4,-.4c0,-.2,-.2,-.4,-.4,-.4h-2.4c-.2,0,-.3,.2,-.3,.4c0,.2,.1,.4,.3,.4m3.9,0h2.4c.2,0,.3,-.2,.3,-.4c0,-.2,-.1,-.4,-.3,-.4h-2.4c-.2,0,-.4,.2,-.4,.4c0,.2,.2,.4,.4,.4m3.9,0h2.3c.2,0,.4,-.2,.4,-.4c0,-.2,-.2,-.4,-.4,-.4h-2.3c-.2,0,-.4,.2,-.4,.4c0,.2,.2,.4,.4,.4m3.9,0h2.3c.2,0,.4,-.2,.4,-.4c0,-.2,-.2,-.4,-.4,-.4h-2.3c-.2,0,-.4,.2,-.4,.4c0,.2,.2,.4,.4,.4m3.9,0h2.3c.2,0,.4,-.2,.4,-.4c0,-.2,-.2,-.4,-.4,-.4h-2.3c-.2,0,-.4,.2,-.4,.4c0,.2,.2,.4,.4,.4m3.9,0h2.3c.2,0,.4,-.2,.4,-.4c0,-.2,-.2,-.4,-.4,-.4H474c-.3,0,-.4,.2,-.4,.4c0,.2,.1,.4,.4,.4m3.8,0h2.4c.2,0,.3,-.2,.3,-.4c0,-.2,-.1,-.4,-.3,-.4h-2.4c-.2,0,-.3,.2,-.3,.4c0,.2,.1,.4,.3,.4Z" class="ga_15"/>
<path d="M459.3,291.9h2.2c.2,0,.4,-.2,.4,-.4c0,-.2,-.2,-.4,-.4,-.4h-2.2c-.2,0,-.4,.2,-.4,.4c0,.2,.2,.4,.4,.4m3.7,0h2.3c.2,0,.3,-.2,.3,-.4c0,-.2,-.1,-.4,-.3,-.4H463c-.2,0,-.4,.2,-.4,.4c0,.2,.2,.4,.4,.4m3.7,0H469c.2,0,.4,-.2,.4,-.4c0,-.2,-.2,-.4,-.4,-.4h-2.3c-.2,0,-.3,.2,-.3,.4c0,.2,.1,.4,.3,.4m3.8,0h2.2c.2,0,.4,-.2,.4,-.4c0,-.2,-.2,-.4,-.4,-.4h-2.2c-.3,0,-.4,.2,-.4,.4c0,.2,.1,.4,.4,.4m3.7,0h2.2c.2,0,.4,-.2,.4,-.4c0,-.2,-.2,-.4,-.4,-.4h-2.2c-.2,0,-.4,.2,-.4,.4c0,.2,.2,.4,.4,.4m3.7,0h2.2c.2,0,.4,-.2,.4,-.4c0,-.2,-.2,-.4,-.4,-.4h-2.2c-.2,0,-.4,.2,-.4,.4c0,.2,.2,.4,.4,.4Z" class="ga_15"/>
<path d="M411.9,291.9h2.2c.2,0,.4,-.2,.4,-.4c0,-.2,-.2,-.4,-.4,-.4h-2.2c-.2,0,-.4,.2,-.4,.4c0,.2,.2,.4,.4,.4m3.7,0h2.2c.2,0,.4,-.2,.4,-.4c0,-.2,-.2,-.4,-.4,-.4h-2.2c-.2,0,-.4,.2,-.4,.4c0,.2,.2,.4,.4,.4m3.7,0h2.3c.2,0,.3,-.2,.3,-.4c0,-.2,-.1,-.4,-.3,-.4h-2.3c-.2,0,-.4,.2,-.4,.4c0,.2,.2,.4,.4,.4m3.7,0h2.3c.2,0,.4,-.2,.4,-.4c0,-.2,-.2,-.4,-.4,-.4H423c-.2,0,-.3,.2,-.3,.4c0,.2,.1,.4,.3,.4m3.8,0H429c.2,0,.4,-.2,.4,-.4c0,-.2,-.2,-.4,-.4,-.4h-2.2c-.3,0,-.4,.2,-.4,.4c0,.2,.1,.4,.4,.4m3.7,0h2.2c.2,0,.4,-.2,.4,-.4c0,-.2,-.2,-.4,-.4,-.4h-2.2c-.2,0,-.4,.2,-.4,.4c0,.2,.2,.4,.4,.4Z" class="ga_15"/>
<path d="M436.7,294.5v-.8c-1.1,0,-2,1,-2,2.1v29.3h22.9V295.8c0,-1.1,-.9,-2.1,-2.1,-2.1H436.7v1.5h18.8c.3,0,.6,.3,.6,.6v27.8H436.2V295.8c0,-.3,.2,-.6,.5,-.6Z" class="ga_15"/>
<path d="M438.7,289.5v-.4c-.5,0,-1,.5,-1,1v4.6h16.9v-4.6c0,-.5,-.5,-1,-1,-1H438.7v.7h14.9c.1,0,.3,.1,.3,.3v4H438.4v-4c0,-.2,.1,-.3,.3,-.3Z" class="ga_15"/>
<path d="M443.6,316.6h-.4v7.6l.1,.3l.3,.1h5.2l.2,-.1l.1,-.3v-7.6l-.1,-.3l-.2,-.1h-5.2l-.3,.1l-.1,.3h.4v.3h4.8v6.9H444v-7.2h-.4v.3Z" class="ga_15"/>
<path d="M450.5,316.6h-.4v4.1l.1,.2l.3,.1h4.1l.3,-.1l.1,-.2v-4.1l-.1,-.3l-.3,-.1h-4.1l-.3,.1l-.1,.3h.4v.3h3.8v3.4h-3.4v-3.7h-.4v.3Z" class="ga_15"/>
<path d="M437.7,316.6h-.4v4.1l.1,.2l.3,.1h4.1l.3,-.1l.1,-.2v-4.1l-.1,-.3l-.3,-.1h-4.1l-.3,.1l-.1,.3h.4v.3h3.8v3.4h-3.4v-3.7h-.4v.3Z" class="ga_15"/>
<path d="M445.8,320.5h.8v-1h-.8v1Z" class="ga_15"/>
<path d="M450.5,310.2h-.4v4.1l.1,.3l.3,.1h4.1l.3,-.1l.1,-.3v-4.1l-.1,-.2l-.3,-.1h-4.1l-.3,.1l-.1,.2h.4v.4h3.8V314h-3.4v-3.8h-.4v.4Z" class="ga_15"/>
<path d="M444.1,310.2h-.4v4.1l.1,.3l.3,.1h4.1l.3,-.1l.1,-.3v-4.1l-.1,-.2l-.3,-.1h-4.1l-.3,.1l-.1,.2h.4v.4h3.8V314h-3.4v-3.8h-.4v.4Z" class="ga_15"/>
<path d="M437.7,310.2h-.4v4.1l.1,.3l.3,.1h4.1l.3,-.1l.1,-.3v-4.1l-.1,-.2l-.3,-.1h-4.1l-.3,.1l-.1,.2h.4v.4h3.8V314h-3.4v-3.8h-.4v.4Z" class="ga_15"/>
<path d="M450.5,303.9h-.4V308l.1,.3l.3,.1h4.1l.3,-.1l.1,-.3v-4.1l-.1,-.2l-.3,-.2h-4.1l-.3,.2l-.1,.2h.4v.4h3.8v3.4h-3.4v-3.8h-.4v.4Z" class="ga_15"/>
<path d="M444.1,303.9h-.4V308l.1,.3l.3,.1h4.1l.3,-.1l.1,-.3v-4.1l-.1,-.2l-.3,-.2h-4.1l-.3,.2l-.1,.2h.4v.4h3.8v3.4h-3.4v-3.8h-.4v.4Z" class="ga_15"/>
<path d="M437.7,303.9h-.4V308l.1,.3l.3,.1h4.1l.3,-.1l.1,-.3v-4.1l-.1,-.2l-.3,-.2h-4.1l-.3,.2l-.1,.2h.4v.4h3.8v3.4h-3.4v-3.8h-.4v.4Z" class="ga_15"/>
<path d="M450.5,297.6h-.4v4.1l.1,.3l.3,.1h4.1l.3,-.1l.1,-.3v-4.1l-.1,-.3l-.3,-.1h-4.1l-.3,.1l-.1,.3h.4v.4h3.8v3.3h-3.4v-3.7h-.4v.4Z" class="ga_15"/>
<path d="M444.1,297.6h-.4v4.1l.1,.3l.3,.1h4.1l.3,-.1l.1,-.3v-4.1l-.1,-.3l-.3,-.1h-4.1l-.3,.1l-.1,.3h.4v.4h3.8v3.3h-3.4v-3.7h-.4v.4Z" class="ga_15"/>
<path d="M437.7,297.6h-.4v4.1l.1,.3l.3,.1h4.1l.3,-.1l.1,-.3v-4.1l-.1,-.3l-.3,-.1h-4.1l-.3,.1l-.1,.3h.4v.4h3.8v3.3h-3.4v-3.7h-.4v.4Z" class="ga_15"/>
<path d="M441.3,290.5l-.2,-.1l-.5,.7l-.8,.2l-.2,.2l.1,.2l.5,.6v.9l.1,.2h.2l.8,-.3l.7,.3h.3l.1,-.2l-.1,-.9l.5,-.6l.1,-.2l-.2,-.2l-.8,-.2l-.4,-.7l-.2,-.1l-.2,.1l.2,.1l-.2,.1l.5,.8l.1,.1l.5,.2l-.3,.4l-.1,.2l.1,.5l-.6,-.2h-.1l-.5,.2v-.5l-.1,-.2l-.3,-.4l.5,-.2l.2,-.1l.5,-.8l-.2,-.1l-.2,.1Z" class="ga_15"/>
<path d="M446.1,290.5l-.2,-.1l-.4,.7l-.8,.2l-.2,.2l.1,.2l.5,.6l-.1,.9l.1,.2h.3l.7,-.3l.8,.3h.2l.1,-.2v-.9l.5,-.6l.1,-.2l-.2,-.2l-.8,-.2l-.5,-.7l-.2,-.1l-.2,.1l.2,.1l-.2,.1l.5,.8l.2,.1l.5,.2l-.3,.4l-.1,.2v.5l-.5,-.2H446l-.5,.2l.1,-.5l-.1,-.2l-.3,-.4l.5,-.2l.1,-.1l.5,-.8l-.2,-.1l-.2,.1Z" class="ga_15"/>
<path d="M451,290.5l-.2,-.1l-.4,.7l-.8,.2l-.2,.2v.2l.6,.6l-.1,.9l.1,.2h.2l.8,-.3l.8,.3h.2l.1,-.2l-.1,-.9l.6,-.6v-.2l-.1,-.2l-.8,-.2l-.5,-.7l-.2,-.1l-.2,.1l.2,.1l-.2,.1l.5,.8l.1,.1l.6,.2l-.4,.4v.7l-.5,-.2h-.2l-.5,.2v-.7l-.4,-.4l.6,-.2l.1,-.1l.5,-.8l-.2,-.1l-.2,.1Z" class="ga_15"/>
<path d="M433.7,325.4h24.6c.5,0,1,-.4,1,-.9c0,-.5,-.5,-.9,-1,-.9H433.7c-.5,0,-.9,.4,-.9,.9c0,.5,.4,.9,.9,.9Z" class="ga_15"/>
<path d="M446,316.5v7.3h.3v-7.3Z" class="ga_15"/>
<image clip-path="url(#cj_15)" preserveAspectRatio="none" x="311" y="329" width="89" height="30" xlink:href="img/19.jpg"/>
<image clip-path="url(#ck_15)" preserveAspectRatio="none" x="321" y="257" width="88" height="73" xlink:href="img/20.jpg"/>
<image clip-path="url(#cl_15)" preserveAspectRatio="none" x="321" y="350" width="79" height="4" xlink:href="img/21.jpg"/>
<image clip-path="url(#cm_15)" preserveAspectRatio="none" x="399" y="329" width="11" height="30" xlink:href="img/22.jpg"/>
<image clip-path="url(#cn_15)" preserveAspectRatio="none" x="400" y="257" width="9" height="73" xlink:href="img/23.jpg"/>
<image clip-path="url(#co_15)" preserveAspectRatio="none" x="399" y="350" width="11" height="4" xlink:href="img/24.jpg"/>
<image clip-path="url(#cp_15)" preserveAspectRatio="none" x="406" y="278" width="4" height="69" xlink:href="img/25.jpg"/>
<image clip-path="url(#cq_15)" preserveAspectRatio="none" x="406" y="346" width="4" height="8" xlink:href="img/26.jpg"/>
<path d="M336.7,269.8c-10.1,0,-18.3,8.2,-18.3,18.4v64.1h79V288.2c0,-10.2,-8.2,-18.4,-18.3,-18.4Z" class="g3_15"/>
<path d="M318.3,353.2h79.1V346H318.3v7.2Z" class="g8_15"/>
<path d="M324.5,296h2.2c.2,0,.4,-.2,.4,-.4c0,-.2,-.2,-.4,-.4,-.4h-2.2c-.2,0,-.3,.2,-.3,.4c0,.2,.1,.4,.3,.4m3.6,0h2.2c.2,0,.3,-.2,.3,-.4c0,-.2,-.1,-.4,-.3,-.4h-2.2c-.2,0,-.4,.2,-.4,.4c0,.2,.2,.4,.4,.4m3.6,0h2.1c.2,0,.4,-.2,.4,-.4c0,-.2,-.2,-.4,-.4,-.4h-2.1c-.3,0,-.4,.2,-.4,.4c0,.2,.1,.4,.4,.4m3.5,0h2.2c.2,0,.3,-.2,.3,-.4c0,-.2,-.1,-.4,-.3,-.4h-2.2c-.2,0,-.4,.2,-.4,.4c0,.2,.2,.4,.4,.4m3.6,0h2.1c.2,0,.4,-.2,.4,-.4c0,-.2,-.2,-.4,-.4,-.4h-2.1c-.2,0,-.4,.2,-.4,.4c0,.2,.2,.4,.4,.4m3.5,0h2.2c.2,0,.4,-.2,.4,-.4c0,-.2,-.2,-.4,-.4,-.4h-2.2c-.2,0,-.4,.2,-.4,.4c0,.2,.2,.4,.4,.4m3.6,0H348c.2,0,.4,-.2,.4,-.4c0,-.2,-.2,-.4,-.4,-.4h-2.1c-.2,0,-.4,.2,-.4,.4c0,.2,.2,.4,.4,.4Z" class="gb_15"/>
<path d="M324.5,328.3h2.4c.2,0,.4,-.2,.4,-.4c0,-.2,-.2,-.4,-.4,-.4h-2.4c-.2,0,-.3,.2,-.3,.4c0,.2,.1,.4,.3,.4m3.9,0h2.4c.2,0,.3,-.2,.3,-.4c0,-.2,-.1,-.4,-.3,-.4h-2.4c-.2,0,-.4,.2,-.4,.4c0,.2,.2,.4,.4,.4m3.9,0h2.3c.2,0,.4,-.2,.4,-.4c0,-.2,-.2,-.4,-.4,-.4h-2.3c-.2,0,-.4,.2,-.4,.4c0,.2,.2,.4,.4,.4m3.9,0h2.3c.2,0,.4,-.2,.4,-.4c0,-.2,-.2,-.4,-.4,-.4h-2.3c-.2,0,-.4,.2,-.4,.4c0,.2,.2,.4,.4,.4m3.9,0h2.3c.2,0,.4,-.2,.4,-.4c0,-.2,-.2,-.4,-.4,-.4h-2.3c-.2,0,-.4,.2,-.4,.4c0,.2,.2,.4,.4,.4m3.9,0h2.3c.2,0,.4,-.2,.4,-.4c0,-.2,-.2,-.4,-.4,-.4H344c-.3,0,-.4,.2,-.4,.4c0,.2,.1,.4,.4,.4m3.8,0h2.4c.2,0,.3,-.2,.3,-.4c0,-.2,-.1,-.4,-.3,-.4h-2.4c-.2,0,-.3,.2,-.3,.4c0,.2,.1,.4,.3,.4m3.9,0H354c.3,0,.4,-.2,.4,-.4c0,-.2,-.1,-.4,-.4,-.4h-2.3c-.2,0,-.4,.2,-.4,.4c0,.2,.2,.4,.4,.4m3.9,0h2.3c.2,0,.4,-.2,.4,-.4c0,-.2,-.2,-.4,-.4,-.4h-2.3c-.2,0,-.4,.2,-.4,.4c0,.2,.2,.4,.4,.4m3.9,0h2.3c.2,0,.4,-.2,.4,-.4c0,-.2,-.2,-.4,-.4,-.4h-2.3c-.2,0,-.4,.2,-.4,.4c0,.2,.2,.4,.4,.4m3.9,0h2.3c.2,0,.4,-.2,.4,-.4c0,-.2,-.2,-.4,-.4,-.4h-2.3c-.2,0,-.4,.2,-.4,.4c0,.2,.2,.4,.4,.4m3.8,0h2.4c.2,0,.4,-.2,.4,-.4c0,-.2,-.2,-.4,-.4,-.4h-2.4c-.2,0,-.3,.2,-.3,.4c0,.2,.1,.4,.3,.4m3.9,0h2.4c.2,0,.3,-.2,.3,-.4c0,-.2,-.1,-.4,-.3,-.4h-2.4c-.2,0,-.4,.2,-.4,.4c0,.2,.2,.4,.4,.4m3.9,0h2.3c.2,0,.4,-.2,.4,-.4c0,-.2,-.2,-.4,-.4,-.4H375c-.2,0,-.4,.2,-.4,.4c0,.2,.2,.4,.4,.4m3.9,0h2.3c.2,0,.4,-.2,.4,-.4c0,-.2,-.2,-.4,-.4,-.4h-2.3c-.2,0,-.4,.2,-.4,.4c0,.2,.2,.4,.4,.4m3.9,0h2.3c.2,0,.4,-.2,.4,-.4c0,-.2,-.2,-.4,-.4,-.4h-2.3c-.2,0,-.4,.2,-.4,.4c0,.2,.2,.4,.4,.4m3.9,0H389c.2,0,.4,-.2,.4,-.4c0,-.2,-.2,-.4,-.4,-.4h-2.3c-.3,0,-.4,.2,-.4,.4c0,.2,.1,.4,.4,.4m3.8,0h2.4c.2,0,.3,-.2,.3,-.4c0,-.2,-.1,-.4,-.3,-.4h-2.4c-.2,0,-.3,.2,-.3,.4c0,.2,.1,.4,.3,.4Z" class="gb_15"/>
<path d="M371.3,296h2.3c.2,0,.4,-.2,.4,-.4c0,-.2,-.2,-.4,-.4,-.4h-2.3c-.2,0,-.4,.2,-.4,.4c0,.2,.2,.4,.4,.4m3.9,0h2.3c.2,0,.4,-.2,.4,-.4c0,-.2,-.2,-.4,-.4,-.4h-2.3c-.2,0,-.4,.2,-.4,.4c0,.2,.2,.4,.4,.4m3.8,0h2.3c.2,0,.4,-.2,.4,-.4c0,-.2,-.2,-.4,-.4,-.4H379c-.2,0,-.4,.2,-.4,.4c0,.2,.2,.4,.4,.4m3.9,0h2.3c.2,0,.4,-.2,.4,-.4c0,-.2,-.2,-.4,-.4,-.4h-2.3c-.2,0,-.4,.2,-.4,.4c0,.2,.2,.4,.4,.4m3.8,0H389c.2,0,.4,-.2,.4,-.4c0,-.2,-.2,-.4,-.4,-.4h-2.3c-.2,0,-.4,.2,-.4,.4c0,.2,.2,.4,.4,.4m3.9,0h2.3c.2,0,.3,-.2,.3,-.4c0,-.2,-.1,-.4,-.3,-.4h-2.3c-.3,0,-.4,.2,-.4,.4c0,.2,.1,.4,.4,.4Z" class="gb_15"/>
<path d="M367.9,307.7c0,3.4,-.1,6.8,0,10.1c.1,3.1,-1.4,5.4,-4.5,6.8c-3.3,1.4,-6.5,1.1,-9.5,-.7c-.4,-.3,-.9,-.5,-1.1,-.9c-.2,-.2,-.1,-.7,0,-.9c.2,-.2,.7,-.1,1,0c.2,0,.4,.3,.6,.4c3.1,2.3,8,2,10.5,-.7c1.1,-1.1,1.5,-2.4,1.5,-3.8c0,-6.8,-.1,-13.6,0,-20.4c0,-2.5,-1.1,-4.4,-3.6,-5.5c-2.6,-1.2,-5.3,-1.1,-7.8,.3c-.3,.2,-.6,.4,-.9,.7c-.4,.3,-.9,.5,-1.2,0c-.2,-.2,-.1,-.8,.2,-1c1.1,-1,2.5,-1.7,4.1,-2c4.7,-1,9.6,1.5,10.5,5.5c.2,.5,.2,1.1,.2,1.7c0,3.4,0,6.9,0,10.4Z" class="gb_15"/>
<path d="M352.8,299.8c-1.7,-.3,-2.2,-1.4,-1.5,-3c.5,-1,1.4,-1.5,2.4,-1.8c1.5,-.5,3.2,-.5,4.7,-.1c2,.7,3.2,2.5,3,4.5c-.2,2,-1.8,3.7,-3.7,3.9c-2.1,.2,-3.9,-.8,-4.7,-2.8c-.1,-.2,-.1,-.4,-.2,-.7m7.1,0c-1.4,-.4,-1.6,-.6,-2.3,-1.8c-.1,-.3,-.3,-.6,-.4,-.9c-.7,-.9,-1.4,-1,-2.2,-.2c-.8,.9,-1.1,2.2,-.6,3.3c.5,1.1,1.5,1.8,2.8,1.7c1.3,0,2.2,-.7,2.7,-2.1m.1,-1.6c.1,-1,-1.8,-1.6,-1.8,-1.6c.5,1.7,1.7,2.1,1.8,1.6m-6.5,-1.7c-1.9,.8,-.9,2.3,-.8,1.9c0,0,.2,-1.2,.8,-1.9Z" class="gb_15"/>
<path d="M352.8,309.1c-1.7,-.3,-2.2,-1.4,-1.5,-3c.5,-1,1.4,-1.5,2.4,-1.8c1.5,-.5,3.2,-.5,4.7,0c2,.6,3.2,2.4,3,4.5c-.2,1.9,-1.8,3.6,-3.7,3.8c-2.1,.3,-3.9,-.8,-4.7,-2.8c-.1,-.2,-.1,-.4,-.2,-.7m7.1,0c-1.4,-.4,-1.6,-.6,-2.3,-1.8c-.1,-.3,-.3,-.6,-.4,-.9c-.7,-.9,-1.4,-1,-2.2,-.1c-.8,.8,-1.1,2.1,-.6,3.2c.5,1.1,1.5,1.8,2.8,1.8c1.3,-.1,2.2,-.8,2.7,-2.2m.1,-1.6c.1,-1,-1.8,-1.6,-1.8,-1.6c.5,1.7,1.7,2.2,1.8,1.6m-6.5,-1.7c-1.9,.8,-.9,2.3,-.8,1.9c0,0,.2,-1.2,.8,-1.9Z" class="gb_15"/>
<path d="M352.8,318.2c-1.7,-.2,-2.2,-1.4,-1.5,-3c.5,-1,1.4,-1.5,2.4,-1.8c1.5,-.5,3.2,-.5,4.7,0c2,.6,3.2,2.5,3,4.5c-.2,1.9,-1.8,3.6,-3.7,3.8c-2.1,.3,-3.9,-.8,-4.7,-2.8c-.1,-.2,-.1,-.4,-.2,-.7m7.1,0c-1.4,-.4,-1.6,-.6,-2.3,-1.8c-.1,-.3,-.3,-.6,-.4,-.9c-.7,-.9,-1.4,-1,-2.2,-.1c-.8,.8,-1.1,2.1,-.6,3.2c.5,1.1,1.5,1.8,2.8,1.8c1.3,-.1,2.2,-.8,2.7,-2.2m.1,-1.6c.1,-1,-1.8,-1.6,-1.8,-1.6c.5,1.7,1.7,2.2,1.8,1.6m-6.5,-1.7c-1.9,.8,-.9,2.3,-.8,1.9c0,0,.2,-1.2,.8,-1.9Z" class="gb_15"/>
<path d="M349,312.7l-5.3,-5.5c-.2,-.2,-.6,-.3,-.9,0c-.2,.2,-.2,.6,0,.9l5.3,5.5c.2,.2,.6,.3,.8,0c.3,-.2,.3,-.6,.1,-.9Z" class="gb_15"/>
<path d="M349,320.4l-5.3,5.5c-.2,.3,-.6,.3,-.9,0c-.2,-.2,-.2,-.6,0,-.8l5.3,-5.6c.2,-.2,.6,-.2,.8,0c.3,.2,.3,.6,.1,.9Z" class="gb_15"/>
<path d="M347.8,314.7l-7.3,-1.4c-.3,0,-.6,.2,-.7,.5c-.1,.4,.1,.7,.5,.8l7.2,1.4c.4,0,.7,-.2,.8,-.5c0,-.4,-.2,-.7,-.5,-.8Z" class="gb_15"/>
<path d="M347.8,318.4l-7.3,1.4c-.3,.1,-.6,-.2,-.7,-.5c-.1,-.3,.1,-.7,.5,-.7l7.2,-1.4c.4,-.1,.7,.1,.8,.5c0,.3,-.2,.6,-.5,.7Z" class="gb_15"/>
<image clip-path="url(#cr_15)" preserveAspectRatio="none" x="223" y="329" width="89" height="30" xlink:href="img/27.jpg"/>
<image clip-path="url(#cs_15)" preserveAspectRatio="none" x="223" y="257" width="98" height="73" xlink:href="img/28.jpg"/>
<image clip-path="url(#ct_15)" preserveAspectRatio="none" x="223" y="350" width="89" height="4" xlink:href="img/29.jpg"/>
<image clip-path="url(#cu_15)" preserveAspectRatio="none" x="311" y="329" width="11" height="30" xlink:href="img/30.jpg"/>
<image clip-path="url(#cv_15)" preserveAspectRatio="none" x="312" y="257" width="9" height="73" xlink:href="img/31.jpg"/>
<image clip-path="url(#cw_15)" preserveAspectRatio="none" x="311" y="350" width="11" height="4" xlink:href="img/32.jpg"/>
<image clip-path="url(#cx_15)" preserveAspectRatio="none" x="318" y="278" width="4" height="69" xlink:href="img/33.jpg"/>
<image clip-path="url(#cy_15)" preserveAspectRatio="none" x="318" y="346" width="4" height="8" xlink:href="img/34.jpg"/>
<path d="M248.6,269.8c-10.1,0,-18.3,8.2,-18.3,18.4v64.1h79V288.2c0,-10.2,-8.2,-18.4,-18.3,-18.4Z" class="g3_15"/>
<path d="M230.2,353.2h79.1V346H230.2v7.2Z" class="g8_15"/>
<path d="M236.4,296H239c.2,0,.3,-.2,.3,-.4c0,-.2,-.1,-.4,-.3,-.4h-2.6c-.2,0,-.4,.2,-.4,.4c0,.2,.2,.4,.4,.4m4.3,0h2.6c.2,0,.4,-.2,.4,-.4c0,-.2,-.2,-.4,-.4,-.4h-2.6c-.2,0,-.3,.2,-.3,.4c0,.2,.1,.4,.3,.4m4.3,0h2.6c.2,0,.4,-.2,.4,-.4c0,-.2,-.2,-.4,-.4,-.4H245c-.2,0,-.3,.2,-.3,.4c0,.2,.1,.4,.3,.4m4.4,0h2.5c.2,0,.4,-.2,.4,-.4c0,-.2,-.2,-.4,-.4,-.4h-2.5c-.3,0,-.4,.2,-.4,.4c0,.2,.1,.4,.4,.4Z" class="g5_15"/>
<path d="M288,328.3h2.2c.2,0,.3,-.2,.3,-.4c0,-.2,-.1,-.4,-.3,-.4H288c-.3,0,-.4,.2,-.4,.4c0,.2,.1,.4,.4,.4m3.6,0h2.2c.2,0,.4,-.2,.4,-.4c0,-.2,-.2,-.4,-.4,-.4h-2.2c-.2,0,-.4,.2,-.4,.4c0,.2,.2,.4,.4,.4m3.6,0h2.3c.2,0,.3,-.2,.3,-.4c0,-.2,-.1,-.4,-.3,-.4h-2.3c-.2,0,-.3,.2,-.3,.4c0,.2,.1,.4,.3,.4m3.7,0h2.2c.2,0,.4,-.2,.4,-.4c0,-.2,-.2,-.4,-.4,-.4h-2.2c-.2,0,-.4,.2,-.4,.4c0,.2,.2,.4,.4,.4m3.6,0h2.2c.3,0,.4,-.2,.4,-.4c0,-.2,-.1,-.4,-.4,-.4h-2.2c-.2,0,-.3,.2,-.3,.4c0,.2,.1,.4,.3,.4Z" class="g5_15"/>
<path d="M287.1,296h2.3c.2,0,.4,-.2,.4,-.4c0,-.2,-.2,-.4,-.4,-.4h-2.3c-.2,0,-.4,.2,-.4,.4c0,.2,.2,.4,.4,.4m3.8,0h2.3c.2,0,.4,-.2,.4,-.4c0,-.2,-.2,-.4,-.4,-.4h-2.3c-.2,0,-.4,.2,-.4,.4c0,.2,.2,.4,.4,.4m3.9,0h2.3c.2,0,.3,-.2,.3,-.4c0,-.2,-.1,-.4,-.3,-.4h-2.3c-.2,0,-.4,.2,-.4,.4c0,.2,.2,.4,.4,.4m3.8,0h2.3c.2,0,.4,-.2,.4,-.4c0,-.2,-.2,-.4,-.4,-.4h-2.3c-.2,0,-.4,.2,-.4,.4c0,.2,.2,.4,.4,.4m3.8,0h2.3c.3,0,.4,-.2,.4,-.4c0,-.2,-.1,-.4,-.4,-.4h-2.3c-.2,0,-.3,.2,-.3,.4c0,.2,.1,.4,.3,.4Z" class="g5_15"/>
<path d="M283.2,313.4c.1,.9,.3,1.8,.3,2.8c-.1,2.6,-1.3,4.6,-3.5,6c-1.7,1.1,-3.6,1.6,-5.6,1.7c-3.1,0,-6.2,0,-9.3,0c-2.1,-.1,-4.1,-.6,-5.8,-1.8c-2.5,-1.8,-3.6,-4.2,-3.2,-7.3c.3,-2.5,.4,-5,.5,-7.5c0,-2.4,0,-4.7,-.1,-7.1c0,-2.7,1.1,-4.8,3.3,-6.4c1.8,-1.4,4,-2,6.3,-2c2.5,0,4.9,0,7.4,0c2.1,0,4.2,.6,5.9,1.8c2.6,1.8,3.8,4.2,3.5,7.3c-.1,1.5,0,3.1,0,4.6c0,0,.2,5.3,.3,7.9m-13.4,-20v-.1c-1.3,0,-2.5,0,-3.7,0c-1.7,.1,-3.3,.4,-4.7,1.3c-2,1.2,-3.4,2.9,-3.3,5.4c.1,1.1,.4,2.2,.7,3.2c.6,1.8,1.4,3.4,2.8,4.6c.4,.3,.4,.7,0,1.1c-.8,.8,-1.7,1.6,-2.8,2c-.7,.2,-.9,.6,-.9,1.3c-.1,.6,.1,1.1,.5,1.5c1,1,2.2,1.8,3.5,2.3c2.3,1,4.7,1.3,7.2,1.3c2.7,.1,5.3,-.1,7.8,-1c1.7,-.7,3.3,-1.5,4.4,-3c.2,-.2,.3,-.4,.3,-.6c0,-.4,0,-.8,-.1,-1.3l-.3,-.3c-1.3,-.5,-2.4,-1.2,-3.3,-2.2c-.4,-.4,-.3,-.8,0,-1.2c.6,-.6,1.2,-1.2,1.6,-1.9c1,-1.6,1.5,-3.3,1.8,-5.1c.3,-1.5,-.1,-2.9,-1,-4.1c-1.5,-2,-3.5,-3,-5.9,-3.2c-1.6,-.1,-3.1,0,-4.6,0m-12.1,21.3c-.5,2.1,0,3.9,1.6,5.4c1.7,1.6,3.7,2.2,5.9,2.2c3,0,6,0,9,0c1,0,2,-.1,3,-.4c1.8,-.7,3.3,-1.7,4.2,-3.4c.6,-1.3,.6,-2.5,.3,-3.9l-.1,.1c-1.4,1.8,-3.3,2.8,-5.5,3.4c-3.7,1,-7.4,1,-11.1,.4c-1.8,-.3,-3.5,-.9,-5.1,-1.9c-.8,-.6,-1.5,-1.3,-2.2,-1.9Z" class="g5_15"/>
<path d="M262.8,324.4c-.6,.5,-1.3,1,-1.9,1.5c-.6,.5,-2.3,1.8,-2.9,2.3c-.3,.2,-.7,.2,-1,.1c-.2,0,-.4,-.2,-.4,-.4c-.1,-.3,0,-.6,.3,-.8c.4,-.3,1.8,-1.5,2.2,-1.8c.6,-.4,1.1,-.9,1.7,-1.3c.1,0,.4,-.1,.5,0c.5,.1,1,.2,1.5,.4Z" class="g5_15"/>
<path d="M276.6,324.4c.7,-.2,1.2,-.4,1.7,-.5l.4,.1c1,.8,3,2.3,3.9,3c.2,.2,.3,.3,.4,.5c.1,.3,0,.7,-.2,.8c-.3,.1,-.8,.2,-1,0c-1.4,-1,-3.7,-2.8,-5.2,-3.9Z" class="g5_15"/>
<path d="M269.7,307.2c-1.4,0,-2.8,0,-4.2,-.1c-2.5,-.1,-4.5,-2,-5,-4.5c-.1,-.6,-.2,-1.3,-.3,-1.9c-.5,-2.5,1.2,-4.6,3.7,-4.6c3.9,0,7.8,0,11.6,0c2.5,0,4.2,1.9,3.8,4.3c-.1,1.4,-.3,2.8,-1,4c-1.2,1.8,-2.8,2.8,-5,2.8c-1.2,0,-2.4,0,-3.6,0Z" class="g5_15"/>
<path d="M275.6,310.6c.3,0,.7,0,1,0c.6,.1,1,.4,.8,.8c-.7,1.2,-1.3,2.3,-2,3.4c-.1,.2,-.4,.3,-.7,.3c-.7,0,-1.4,0,-2,0c-.7,0,-1,-.4,-.8,-.8c.6,-1.1,1.3,-2.2,1.9,-3.3c.1,-.2,.4,-.4,.8,-.4c.4,.1,.7,0,1,0Z" class="g5_15"/>
<path d="M265.8,315.1c-.3,0,-.6,0,-.9,0c-.4,0,-.7,-.1,-.9,-.4c-.6,-1.1,-1.2,-2.1,-1.8,-3.2c-.3,-.5,0,-.8,.7,-.9c.7,0,1.3,0,2,0c.4,0,.6,.2,.8,.5c.6,1,1.3,2.1,1.9,3.2c.2,.4,-.1,.8,-.7,.8c-.4,0,-.7,0,-1.1,0Z" class="g5_15"/>
<path d="M271.1,320.7c0,.7,-.6,1.3,-1.3,1.3c-.8,0,-1.4,-.6,-1.4,-1.3c0,-.7,.6,-1.3,1.3,-1.3c.7,-.1,1.4,.6,1.4,1.3Z" class="g5_15"/>
<path d="M236.4,328.3h2.2c.2,0,.4,-.2,.4,-.4c0,-.2,-.2,-.4,-.4,-.4h-2.2c-.2,0,-.4,.2,-.4,.4c0,.2,.2,.4,.4,.4m3.7,0h2.2c.2,0,.4,-.2,.4,-.4c0,-.2,-.2,-.4,-.4,-.4h-2.2c-.2,0,-.4,.2,-.4,.4c0,.2,.2,.4,.4,.4m3.6,0h2.2c.2,0,.4,-.2,.4,-.4c0,-.2,-.2,-.4,-.4,-.4h-2.2c-.2,0,-.4,.2,-.4,.4c0,.2,.2,.4,.4,.4m3.7,0h2.2c.2,0,.4,-.2,.4,-.4c0,-.2,-.2,-.4,-.4,-.4h-2.2c-.2,0,-.4,.2,-.4,.4c0,.2,.2,.4,.4,.4m3.6,0h2.2c.2,0,.4,-.2,.4,-.4c0,-.2,-.2,-.4,-.4,-.4H251c-.2,0,-.4,.2,-.4,.4c0,.2,.2,.4,.4,.4Z" class="g5_15"/>
<path d="M0,0V1286.2Z" class="g3_15"/>
<path d="M0,1286.2H19.5V0H0V1286.2Z" class="g3_15"/>
</svg>