<?xml version="1.0" encoding="UTF-8" standalone="no"?>
<!DOCTYPE svg PUBLIC "-//W3C//DTD SVG 1.1//EN"
"http://www.w3.org/Graphics/SVG/1.1/DTD/svg11.dtd">
<svg viewBox="0 0 909 1286" version="1.1" xmlns="http://www.w3.org/2000/svg" xmlns:xlink="http://www.w3.org/1999/xlink">
<defs>
<clipPath id="c0_17"><path d="M881.7,1072.4v-38h22.8v38Z"/></clipPath>
<clipPath id="c1_17"><path d="M434.5,134.8l1.7,-6.1l1.2,-7.2l-8,-6.3l-1.2,-7.6l-2.4,-4L421,95.2L411.4,82.8c0,0,-6.4,-5.2,-8.3,-7.6c-.7,-.8,-1,-1.8,-1,-2.9c0,-2.4,1.2,-5,2.5,-6.7c2,-2.4,13.2,-10.7,13.2,-10.7c0,0,12.8,-11.6,15.2,-12.8c.7,-.4,1.4,-.5,2.1,-.5c.9,0,1.8,.3,2.7,.7c.4,.2,.8,.4,1.2,.6c.1,0,.3,.1,.4,.1q.1,0,.1,0c.3,.1,.6,.2,1,.2c.8,0,1.7,-.2,2.4,-.3q.1,0,.1,0c.9,-.2,1.6,-.4,1.6,-.4L453,37.3l9.1,-.8l6.8,1.2l7.5,-1.6v98.7Zm41.9,-99l-2.7,-5.3l-6,-6.8l6,-7.6l2.7,-1.5V35.8Z"/></clipPath>
<clipPath id="c2_17"><path d="M299.5,522.3V501.9H227.4v20.4ZM0,528.3V147.2H306.7V528.3Z"/></clipPath>
<clipPath id="c3_17"><path d="M320.5,528.3V147.2H426.7v1.9h49.7V528.3Z"/></clipPath>
<clipPath id="c4_17"><path d="M227.4,522.3V501.9h72.1v20.4Z"/></clipPath>
<clipPath id="c5_17"><path d="M476.4,36.1v-.3l.1,.3h-.1ZM857,42.4c-1.3,0,-2.6,-.1,-3.9,-.3c-6.4,-1.2,-22.4,-6.4,-29.2,-8c-6.2,-1.5,-20,-3.2,-27.9,-3.2c-.2,0,-.4,0,-.6,0V29.6H777.1c-2,-2.8,-5.1,-5.9,-5.1,-5.9c0,0,-.6,0,-1.5,0c-1.3,0,-3.4,.1,-5.3,.8c-3.2,1.2,-10.4,2.4,-10.4,2.4l-20.7,2.4c0,0,-12,.4,-16.8,.4c-4.8,0,-29.6,-1.6,-29.6,-1.6l-27.9,-4L639,18.5l-9.5,-4l-2.8,-1.2l-5.6,.8l-4.8,4l-9.6,1.6H548.4L535.6,18.1l-5.6,-2L516.5,4.9L509.3,3.4l-9.2,.8l-16.8,6.3l-6.9,4.1V0H870.5V38.6c-.8,.4,-1.6,.7,-2.3,1.1c-2.5,1.2,-6.5,2.7,-11.2,2.7Z"/></clipPath>
<clipPath id="c6_17"><path d="M597.4,133.6V119.3h-4c1.6,-.6,2.7,-2.2,2.7,-3.9c0,-2.4,-1.9,-4.3,-4.3,-4.3c-2.3,0,-4.3,1.9,-4.3,4.3c0,1.7,1.1,3.3,2.7,3.9H566v14.3Zm54.2,9.9V115.4H612.1c.9,-.7,1.6,-2,1.6,-3.3c0,-2.3,-1.9,-4.3,-4.3,-4.3c-2.3,0,-4.2,2,-4.2,4.3c0,2.4,1.9,4.3,4.2,4.3c.1,0,.3,0,.4,-.1v27.2ZM615.3,114.2l11.2,-3.9l-2.3,-6.7L613,107.5l2.3,6.7Zm18.9,-3.1c-2.6,0,-4.6,-2,-4.7,-4.6c.1,-2.5,2.1,-4.6,4.7,-4.6c2.5,0,4.6,2.1,4.6,4.6c0,2.6,-2.1,4.6,-4.6,4.6Zm19.4,-1.9l.4,-7.1l-11.9,-.6l-.3,7.1l11.8,.6Zm-19.4,4.9c4.1,0,7.5,-3.4,7.5,-7.6c0,-4.2,-3.4,-7.6,-7.5,-7.6c-4.2,0,-7.6,3.4,-7.6,7.6c0,4.2,3.4,7.6,7.6,7.6Zm-73.8,-4.3V95.5H519.7v14.3Zm41.4,-1.3V94.2H566.6v14.3Zm47.7,-9.8V84.4h-33V98.7Zm65,24.4V109.2h32.8V92.1H680.6l7.6,-6.6l-4.6,-5.4l-9,7.8l3.7,4.2H678v1.3c-.5,-1.8,-2.1,-3.1,-4.1,-3.1c-2.3,0,-4.2,1.9,-4.2,4.3c0,2.3,1.9,4.3,4.2,4.3c2,0,3.6,-1.3,4.1,-3.1v13H663c.4,-.7,.6,-1.4,.6,-2.2c0,-.9,-.3,-1.8,-.8,-2.5l7.6,-6.5l-4.6,-5.4l-9,7.8l2.1,2.4c-2.2,.2,-3.8,2,-3.8,4.2c0,2.3,1.9,4.2,4.2,4.2c.9,0,1.7,-.2,2.4,-.7v13Zm-24,-38.6c2.3,0,4.2,-2,4.2,-4.3c0,-2.4,-1.9,-4.3,-4.2,-4.3c-2.4,0,-4.3,1.9,-4.3,4.3c0,2.3,1.9,4.3,4.3,4.3Zm137,-.7V69.5H783V83.8Zm-78.1,6.9V76.4H715.9l4.4,-2.1l-3,-6.4l-10.8,5l1.7,3.5h-.6V90.7ZM682.1,80.8V66.5H586.4V80.8ZM722,70.8c2.4,0,4.3,-1.9,4.3,-4.2c0,-2.4,-1.9,-4.3,-4.3,-4.3c-2.3,0,-4.3,1.9,-4.3,4.3c0,2.3,2,4.2,4.3,4.2Zm71.7,-9.4l1.9,-6.9l-11.5,-3l-1.8,6.8l11.4,3.1Zm-21,12.7V59.8H746.6l5.3,-2.5l-3,-6.4l-10.7,5l3,6.4l3.5,-1.6V74.1Zm-1,-16l.6,-7.1L760.5,50l-.6,7l11.8,1.1ZM755.1,56.3c2.3,0,4.3,-1.9,4.3,-4.3c0,-2.3,-2,-4.2,-4.3,-4.2c-2.4,0,-4.3,1.9,-4.3,4.2c0,2.4,1.9,4.3,4.3,4.3Zm-40.7,8.5v-14h28.1V36.5H710.1v14H635.2V64.8ZM575.2,147.2V134.8H476.4V36.1h.1l-.1,-.3V14.6l6.9,-4.1L500.1,4.2l9.2,-.8l7.2,1.5L530,16.1l5.6,2l12.8,1.6h58.3l9.6,-1.6l4.8,-4l5.6,-.8l2.8,1.2l9.5,4l20.8,5.6l27.9,4c0,0,24.8,1.6,29.6,1.6c4.8,0,16.8,-.4,16.8,-.4l20.7,-2.4c0,0,7.2,-1.2,10.4,-2.4c1.9,-.7,4,-.8,5.3,-.8c.9,0,1.5,0,1.5,0c0,0,3.1,3.1,5.1,5.9H761.3V43.9h34.1v-13c.2,0,.4,0,.6,0c7.9,0,21.7,1.7,27.9,3.2c6.8,1.6,22.8,6.8,29.2,8c1.3,.2,2.6,.3,3.9,.3c4.7,0,8.7,-1.5,11.2,-2.7c.7,-.4,1.5,-.7,2.3,-1.1V147.2Z"/></clipPath>
<clipPath id="c7_17"><path d="M476.4,256.2V149.1h98.8v-1.9h49v109Z"/></clipPath>
<clipPath id="c8_17"><path d="M623.9,256.2v-109H772.1v109Z"/></clipPath>
<clipPath id="c9_17"><path d="M771.9,310.8V147.2h98.6V310.8Z"/></clipPath>
<clipPath id="ca_17"><path d="M476.4,365.2V256H624.2V365.2Z"/></clipPath>
<clipPath id="cb_17"><path d="M623.9,365.2V256H772.1V365.2Z"/></clipPath>
<clipPath id="cc_17"><path d="M771.9,474.1V310.5h98.6V474.1Z"/></clipPath>
<clipPath id="cd_17"><path d="M476.4,474.1V364.9H624.2V474.1Z"/></clipPath>
<clipPath id="ce_17"><path d="M623.9,474.1V364.9H772.1V474.1Z"/></clipPath>
<clipPath id="cf_17"><path d="M476.4,528.3V473.9H772.1v54.4Z"/></clipPath>
<clipPath id="cg_17"><path d="M869.1,522.3V501.9H838.3v20.4Zm-97.2,6V473.9h98.6v54.4Z"/></clipPath>
<clipPath id="ch_17"><path d="M714.4,50.8v-.3h-4.3v-14h32.4V50.8Z"/></clipPath>
<clipPath id="ci_17"><path d="M426.7,147.2V134.8h7.8l-.7,2.7l-.3,9.7Z"/></clipPath>
<clipPath id="cj_17"><path d="M433.5,147.2l.3,-9.7l.7,-2.7h41.9v12.4Z"/></clipPath>
<clipPath id="ck_17"><path d="M426.7,149.1v-1.9h49.7v1.9Z"/></clipPath>
<clipPath id="cl_17"><path d="M476.4,147.2V134.8h98.8v12.4Z"/></clipPath>
<clipPath id="cm_17"><path d="M476.4,149.1v-1.9h98.8v1.9Z"/></clipPath>
<clipPath id="cn_17"><path d="M783.6,31.5c-3,0,-5.4,-.4,-6.4,-1.8c0,0,-.1,-.1,-.1,-.1h18.3v1.3c-.5,0,-1,0,-1.4,0c-3.6,.2,-7.3,.6,-10.4,.6Z"/></clipPath>
<clipPath id="co_17"><path d="M761.3,43.9V29.6h15.8c0,0,.1,.1,.1,.1c1,1.4,3.4,1.8,6.4,1.8c3.1,0,6.8,-.4,10.4,-.6c.4,0,.9,0,1.4,0v13Z"/></clipPath>
<clipPath id="cp_17"><path d="M744.7,74.1V60.7l1.9,-.9h26.1V74.1Z"/></clipPath>
<clipPath id="cq_17"><path d="M783,83.8V69.5h44.5V83.8Z"/></clipPath>
<clipPath id="cr_17"><path d="M707.6,90.7V76.4h.6l1.3,3l.2,-.1v9.3h4.5v-.1h1.6c.2,.1,.5,.2,.8,.2c.3,0,.6,-.1,.8,-.2h.8v.1h1v-.1h4.3v.1h1v-.1h5.7v.1h1v-.1h3c.3,.1,.6,.2,1,.2c.4,0,.8,-.1,1.2,-.2h2.8c.3,.1,.7,.2,1.1,.2c.4,0,.7,-.1,1,-.2h3c.3,.1,.5,.2,.8,.2c.3,0,.6,-.1,.8,-.2h.8v.1h1V83.9c0,-.6,-.1,-1.1,-.2,-1.5V78.7H730.6v-.2h-1l-.1,.2h-4.3l-.1,-.2h-1v.2H710.9l5,-2.3h33.5V90.7Z"/></clipPath>
<clipPath id="cs_17"><path d="M716.6,88.7c-.3,0,-.6,-.1,-.8,-.2h1.6c-.2,.1,-.5,.2,-.8,.2Zm1.6,-.1v-.1h1v.1Zm5.3,0v-.1h1v.1Zm6.7,0v-.1h1v.1Zm5,.1c-.4,0,-.7,-.1,-1,-.2h2.2c-.4,.1,-.8,.2,-1.2,.2Zm5.1,0c-.4,0,-.8,-.1,-1.1,-.2h2.1c-.3,.1,-.6,.2,-1,.2Zm4.8,0c-.3,0,-.5,-.1,-.8,-.2h1.6c-.2,.1,-.5,.2,-.8,.2Zm1.6,-.1v-.1h.8V82.4c.1,.4,.2,.9,.2,1.5v4.7Zm-37,0V79.3l.2,-.1v9.3h4.3v.1Zm14.4,-9.9v-.2h1l.1,.2Zm5.4,0l.1,-.2h1v.2Z"/></clipPath>
<clipPath id="ct_17"><path d="M793.7,61.4L782.3,58.3l1.8,-6.8l11.5,3l-1.9,6.9Z"/></clipPath>
<clipPath id="cu_17"><path d="M586.4,80.8V66.5h95.7V80.8Z"/></clipPath>
<clipPath id="cv_17"><path d="M771.7,58.1L759.9,57l.6,-7l11.8,1l-.6,7.1Z"/></clipPath>
<clipPath id="cw_17"><path d="M635.2,64.8V50.5h74.9v.3h4.3v14Z"/></clipPath>
<clipPath id="cx_17"><path d="M710.1,50.8v-.3h4.3v.3Z"/></clipPath>
<clipPath id="cy_17"><path d="M708.2,76.4l-1.7,-3.5l10.8,-5l3,6.4l-4.4,2.1Z"/></clipPath>
<clipPath id="cz_17"><path d="M709.5,79.4l-1.3,-3h7.7L712.6,78l-1.7,.7h-.2v-.2h-1v.8l-.2,.1Z"/></clipPath>
<clipPath id="c10_17"><path d="M709.7,79.3v-.8h1v.2h-.8v.5l-.1,.1h-.1Z"/></clipPath>
<clipPath id="c11_17"><path d="M726.4,104.3V101c0,-.6,.1,-1.4,.4,-2.1c.2,-.6,.6,-1,1.1,-1h.2l.2,.1V97h-.1l-.4,-.1c-.6,0,-1.1,.4,-1.4,.9V97h-1v7.3Zm-28.7,.1c1.9,0,3,-1.7,3,-3.8c0,-2.1,-1.1,-3.8,-3,-3.8c-1.8,0,-2.9,1.7,-2.9,3.8c0,2.1,1.1,3.8,2.9,3.8Zm9.2,-.1V99.2c0,-1.3,-.4,-2.4,-1.9,-2.4c-1,0,-1.6,.4,-2,.8V97h-1v7.3h1V99.9c0,-1.2,.8,-2.1,1.9,-2.1c1,0,1,.7,1,1.5v5Zm3.1,.1c1.4,0,2.2,-1,2.2,-2.1c-.1,-2.4,-3.1,-1.9,-2.9,-3.5c0,-.7,.4,-1,1,-1c.4,0,.8,.2,1.1,.4l.2,.2l.3,-.8l.1,-.1l-.1,-.2c-.4,-.3,-1,-.5,-1.6,-.5c-1.3,0,-2.1,.9,-2.1,2c.2,2.6,3.1,2,2.9,3.6c0,.7,-.4,1.1,-1.1,1.1c-.6,0,-1.1,-.4,-1.3,-.6l-.3,-.2l-.4,.7v.1l.1,.1c.5,.5,1.2,.8,1.9,.8Zm4.9,0c.7,0,1.2,-.4,1.6,-.8v.7h.9V99.6c0,-1.8,-.7,-2.8,-2.1,-2.8c-.7,0,-1.4,.2,-1.9,.6l-.2,.1l.3,.7l.1,.2l.2,-.2c.4,-.2,1,-.4,1.5,-.4c.7,0,1.1,.2,1.1,1.8h-.1c-1,0,-3.4,.1,-3.5,2.6c0,1.5,1.1,2.2,2.1,2.2Zm6.1,2.8c1.4,0,2.7,-1,2.7,-3.2V97h-.9v.5c-.4,-.4,-1,-.7,-1.6,-.7c-1.6,0,-2.5,1.5,-2.5,3.7c0,2.2,1,3.8,2.5,3.8h.1c.6,0,1.1,-.3,1.4,-.7v.4c0,1.6,-.7,2.1,-1.7,2.2c-.4,0,-.9,-.2,-1.3,-.5l-.2,-.1l-.1,.2l-.3,.5v.2l.1,.1c.6,.4,1.2,.6,1.8,.6Zm9.7,-2.8c.8,0,1.3,-.4,1.7,-.8v.7h.9V99.6c0,-1.8,-.7,-2.8,-2.1,-2.8c-.7,0,-1.4,.2,-1.9,.6l-.2,.1l.3,.7l.1,.2l.2,-.2c.4,-.2,1,-.4,1.5,-.4c.7,0,1.1,.2,1.1,1.8h-.1c-1,0,-3.4,.1,-3.5,2.6c0,1.5,1.1,2.2,2,2.2Zm12.1,0c.8,0,1.3,-.4,1.7,-.8v.7h.9V99.6c0,-1.8,-.7,-2.8,-2.1,-2.8c-.7,0,-1.4,.2,-1.9,.6l-.2,.1l.3,.7l.1,.2l.2,-.2c.4,-.2,1,-.4,1.5,-.4c.7,0,1.1,.2,1.1,1.8h-.1c-1,0,-3.4,.1,-3.5,2.6c0,1.5,1.1,2.2,2,2.2Zm-56.4,-.1L683.5,94.2h-.9l-2.9,10.1h1.1l.9,-3.4h2.7l.9,3.4Zm4.6,0V99.8h2.8v-1H691V95.2h3.2v-1H690v10.1Zm46.1,.1c.7,0,1.3,-.2,1.6,-.7v.6h1V94.2h-1v3.3c-.3,-.5,-.9,-.7,-1.5,-.7c-1.7,0,-2.6,1.6,-2.6,3.8c0,2.2,.7,3.8,2.5,3.8Zm-22.6,4.8v-.4H678v-13c.1,-.4,.2,-.8,.2,-1.2c0,-.4,-.1,-.8,-.2,-1.2V92.1h.3l1,1.2l1.3,-1.2h66.7v17.1Z"/></clipPath>
<clipPath id="c12_17"><path d="M678,95.8V93.4c.1,.4,.2,.8,.2,1.2c0,.4,-.1,.8,-.2,1.2Z"/></clipPath>
<clipPath id="c13_17"><path d="M714.9,103.4c-.5,0,-1,-.5,-1,-1.3c0,-1.4,1.5,-1.5,2.4,-1.5h.1v.4c0,1,-.6,2.4,-1.5,2.4Zm15.9,0c-.5,0,-1,-.5,-1,-1.3c0,-1.4,1.5,-1.5,2.4,-1.5h.1v.4c0,1,-.6,2.4,-1.5,2.4Zm12.1,0c-.5,0,-1,-.5,-1,-1.3c0,-1.4,1.5,-1.5,2.4,-1.5h.1v.4c0,1,-.6,2.4,-1.5,2.4Zm-21.6,-.1c-.9,0,-1.6,-1,-1.6,-2.8c0,-1.8,.6,-2.7,1.5,-2.7c.9,0,1.5,.5,1.6,2.7c-.1,2.2,-.8,2.8,-1.5,2.8Zm-23.6,.2c-1.1,0,-1.9,-1.2,-1.9,-2.9c0,-1.7,.8,-2.8,1.9,-2.8c1.2,0,2,1.1,2,2.8c0,1.7,-.8,2.9,-2,2.9Zm39.4,0c-.9,0,-1.5,-1,-1.5,-2.9c0,-1.9,.6,-2.8,1.6,-2.8c1.1,0,1.5,1.3,1.5,2.8c0,2.2,-.6,2.9,-1.6,2.9Zm-34.7,.3V97.4h.2V98c0,.2,-.1,.4,-.1,.4v.2h.4c-.2,.4,-.3,.8,-.3,1.3v3.9Zm18.6,2.9c-.4,0,-.9,-.1,-1.4,-.4l.1,-.1c.4,.3,.9,.4,1.3,.4c1.2,0,2.2,-.8,2.2,-2.6v-.7c0,-.3,0,-.5,0,-.5v-.3h-.3c.2,-.5,.3,-1.1,.3,-2c0,-.8,-.1,-1.5,-.3,-2h.3V97.4h.1V104c0,2,-1.1,2.7,-2.3,2.7Zm4.8,-2.9V97.4h.1v.9c0,.3,0,.5,0,.5V99h.4c-.3,.7,-.4,1.4,-.4,2v2.8Zm.7,-5.4c.3,-.6,.8,-1.1,1.3,-1.1l.1,.1v.1c-.6,0,-1.1,.4,-1.4,.9Zm-28.8,5.5c1.6,0,2.5,-1.5,2.5,-3.3c0,-1.8,-.9,-3.3,-2.5,-3.3c-1.5,0,-2.3,1.5,-2.3,3.3c0,1.8,.8,3.3,2.3,3.3Zm0,.1c-1.5,0,-2.5,-1.4,-2.5,-3.4c0,-2,1,-3.4,2.5,-3.4c1.6,0,2.6,1.4,2.6,3.4c0,2,-1,3.4,-2.6,3.4Zm12.3,0c-.5,0,-1.1,-.2,-1.5,-.6h.1c.3,.2,.8,.5,1.4,.5c.9,0,1.6,-.6,1.6,-1.5c-.2,-2.1,-3,-1.5,-2.9,-3.6c0,-.9,.5,-1.5,1.6,-1.6c.4,0,.9,.2,1.2,.4l-.1,.1c-.3,-.2,-.7,-.4,-1.1,-.4c-.8,0,-1.5,.6,-1.5,1.5c.2,2.2,3,1.6,2.9,3.5c0,1,-.5,1.7,-1.7,1.7Zm4.9,0c-.8,-.1,-1.6,-.5,-1.6,-1.8c0,-2.1,2,-2.1,3,-2.1h.6v-.5c0,-.8,-.2,-1.4,-.4,-1.7c-.3,-.4,-.8,-.6,-1.2,-.6c-.5,0,-1,.2,-1.5,.4c.4,-.3,1,-.5,1.5,-.5c1.2,.1,1.7,.7,1.7,2.4v4.2h-.1v-.4c0,-.4,0,-.6,0,-.6v-.3h-.3c.2,-.5,.3,-1,.3,-1.5v-.8h-.6c-.9,0,-2.8,0,-2.9,1.9c0,1,.7,1.8,1.5,1.8c.6,0,1,-.4,1.4,-.8c-.3,.5,-.8,.9,-1.4,.9Zm6.3,-.2c-1.2,0,-2.1,-1.2,-2.1,-3.3c0,-2.1,.8,-3.3,2.1,-3.3c.7,0,1.2,.4,1.5,1c-.4,-.6,-.9,-.8,-1.5,-.8c-1.3,0,-1.9,1.2,-1.9,3.1c0,1.9,.7,3.2,2,3.2c.5,0,.9,-.2,1.2,-.6c-.3,.5,-.7,.7,-1.3,.7Zm9.5,.2c-.7,-.1,-1.5,-.5,-1.5,-1.8c0,-2.1,2,-2.1,3,-2.1h.6v-.5c0,-.8,-.2,-1.4,-.4,-1.7c-.3,-.4,-.8,-.6,-1.2,-.6c-.5,0,-1.1,.2,-1.5,.4c.4,-.3,1,-.5,1.5,-.5c1.2,.1,1.7,.7,1.7,2.4v4.2h-.1v-.4c0,-.4,0,-.6,0,-.6v-.3h-.4c.3,-.5,.4,-1,.4,-1.5v-.8h-.6c-.9,0,-2.8,0,-2.9,1.9c0,1,.7,1.8,1.5,1.8c.6,0,1,-.4,1.4,-.8c-.3,.5,-.8,.9,-1.4,.9Zm12.1,0c-.7,-.1,-1.5,-.5,-1.5,-1.8c0,-2.1,2,-2.1,3,-2.1h.6v-.5c0,-.8,-.2,-1.4,-.4,-1.7c-.3,-.4,-.8,-.6,-1.2,-.6c-.5,0,-1.1,.2,-1.5,.4c.4,-.3,1,-.5,1.5,-.5c1.2,.1,1.7,.7,1.7,2.4v4.2h-.1v-.4c0,-.4,0,-.6,0,-.6v-.3h-.4c.3,-.5,.4,-1,.4,-1.5v-.8h-.6c-.9,0,-2.8,0,-2.9,1.9c0,1,.7,1.8,1.5,1.8c.6,0,1,-.4,1.4,-.8c-.3,.5,-.8,.9,-1.4,.9Zm-36.4,-.2V99.3c0,-.8,-.2,-2,-1.5,-2c-.8,0,-1.4,.4,-1.9,1c.3,-.4,.8,-1.1,2,-1.1c1.2,.1,1.5,.8,1.5,2v4.6ZM682,100l1,-3.7c0,0,0,-.1,0,-.2c.1,.1,.1,.2,.1,.2l1,3.7Zm2.7,.4l-1.2,-4.2c-.1,-.4,-.2,-1.1,-.2,-1.1l-.1,-.2h-.3l-.1,.2c0,0,-.1,.7,-.2,1.1l-1.2,4.2Zm-4.4,3.4l2.6,-9.1h.3l2.6,9.1h-.1l-1,-3.3h-3.3l-1,3.3Zm10.1,0V94.7h3.4h-3.3v4.5h2.8v.1h-2.8v4.5Zm46.7,.2c-1.4,0,-2.1,-1.3,-2.1,-3.4c0,-2.1,.8,-3.4,2.2,-3.4c.8,0,1.3,.5,1.6,1.1v.2h.4v-.3c0,0,0,-.2,0,-.5v-3h.1v9.1h-.1v-.4c0,-.3,0,-.5,0,-.5v-.2h-.3c.2,-.6,.3,-1.2,.3,-2.1c0,-1.5,-.4,-3.2,-2,-3.3c-1.3,0,-2.1,1.4,-2.1,3.3c0,1.9,.7,3.3,2,3.3c.7,0,1.2,-.3,1.5,-.8c-.2,.5,-.7,.9,-1.5,.9Z"/></clipPath>
<clipPath id="c14_17"><path d="M714.9,103.4c.9,0,1.5,-1.4,1.5,-2.4v-.4h-.1c-.9,0,-2.4,.1,-2.4,1.5c0,.8,.5,1.3,1,1.3Zm15.9,0c.9,0,1.5,-1.4,1.5,-2.4v-.4h-.1c-.9,0,-2.4,.1,-2.4,1.5c0,.8,.5,1.3,1,1.3Zm12.1,0c.9,0,1.5,-1.4,1.5,-2.4v-.4h-.1c-.9,0,-2.4,.1,-2.4,1.5c0,.8,.5,1.3,1,1.3Zm-21.6,-.1c.7,0,1.4,-.6,1.5,-2.8c-.1,-2.2,-.7,-2.7,-1.6,-2.7c-.9,0,-1.5,.9,-1.5,2.7c0,1.8,.7,2.8,1.6,2.8Zm-23.6,.2c1.2,0,2,-1.2,2,-2.9c0,-1.7,-.8,-2.8,-2,-2.8c-1.1,0,-1.9,1.1,-1.9,2.8c0,1.7,.8,2.9,1.9,2.9Zm39.4,0c1,0,1.6,-.7,1.6,-2.9c0,-1.5,-.4,-2.8,-1.5,-2.8c-1,0,-1.6,.9,-1.6,2.8c0,1.9,.6,2.9,1.5,2.9Zm-34.5,.3V99.9c0,-.5,.1,-.9,.3,-1.3h-.4v-.2c0,0,.1,-.2,.1,-.4v-.6h-.2v6.4Zm18.4,2.9c1.2,0,2.3,-.7,2.3,-2.7V97.4h-.1v1.1h-.3c.2,.5,.3,1.2,.3,2c0,.9,-.1,1.5,-.3,2h.3v.3c0,0,0,.2,0,.5v.7c0,1.8,-1,2.6,-2.2,2.6c-.4,0,-.9,-.1,-1.3,-.4l-.1,.1c.5,.3,1,.4,1.4,.4Zm4.9,-2.9V101c0,-.6,.1,-1.3,.4,-2h-.4v-.2c0,0,0,-.2,0,-.5v-.9h-.1v6.4Zm.6,-5.4c.3,-.5,.8,-.9,1.4,-.9v-.1l-.1,-.1c-.5,0,-1,.5,-1.3,1.1Zm-28.8,5.5c-1.5,0,-2.3,-1.5,-2.3,-3.3c0,-1.8,.8,-3.3,2.3,-3.3c1.6,0,2.5,1.5,2.5,3.3c0,1.8,-.9,3.3,-2.5,3.3Zm0,.1c1.6,0,2.6,-1.4,2.6,-3.4c0,-2,-1,-3.4,-2.6,-3.4c-1.5,0,-2.5,1.4,-2.5,3.4c0,2,1,3.4,2.5,3.4Zm12.3,0c1.2,0,1.7,-.7,1.7,-1.7c.1,-1.9,-2.7,-1.3,-2.9,-3.5c0,-.9,.7,-1.5,1.5,-1.5c.4,0,.8,.2,1.1,.4l.1,-.1c-.3,-.2,-.8,-.4,-1.2,-.4c-1.1,.1,-1.6,.7,-1.6,1.6c-.1,2.1,2.7,1.5,2.9,3.6c0,.9,-.7,1.5,-1.6,1.5c-.6,0,-1.1,-.3,-1.4,-.5h-.1c.4,.4,1,.6,1.5,.6Zm4.9,0c.6,0,1.1,-.4,1.4,-.9c-.4,.4,-.8,.8,-1.4,.8c-.8,0,-1.5,-.8,-1.5,-1.8c.1,-1.9,2,-1.9,2.9,-1.9h.6v.8c0,.5,-.1,1,-.3,1.5h.3v.3c0,0,0,.2,0,.6v.4h.1V99.6c0,-1.7,-.5,-2.3,-1.7,-2.4c-.5,0,-1.1,.2,-1.5,.5c.5,-.2,1,-.4,1.5,-.4c.4,0,.9,.2,1.2,.6c.2,.3,.4,.9,.4,1.7v.5h-.6c-1,0,-3,0,-3,2.1c0,1.3,.8,1.7,1.6,1.8Zm6.3,-.2c.6,0,1,-.2,1.3,-.7c-.3,.4,-.7,.6,-1.2,.6c-1.3,0,-2,-1.3,-2,-3.2c0,-1.9,.6,-3.1,1.9,-3.1c.6,0,1.1,.2,1.5,.8c-.3,-.6,-.8,-1,-1.5,-1c-1.3,0,-2.1,1.2,-2.1,3.3c0,2.1,.9,3.3,2.1,3.3Zm9.6,.2c.6,0,1.1,-.4,1.4,-.9c-.4,.4,-.8,.8,-1.4,.8c-.8,0,-1.5,-.8,-1.5,-1.8c.1,-1.9,2,-1.9,2.9,-1.9h.6v.8c0,.5,-.1,1,-.4,1.5h.4v.3c0,0,0,.2,0,.6v.4h.1V99.6c0,-1.7,-.5,-2.3,-1.7,-2.4c-.5,0,-1.1,.2,-1.5,.5c.4,-.2,1,-.4,1.5,-.4c.4,0,.9,.2,1.2,.6c.2,.3,.4,.9,.4,1.7v.5h-.6c-1,0,-3,0,-3,2.1c0,1.3,.8,1.7,1.5,1.8Zm12.1,0c.6,0,1.1,-.4,1.4,-.9c-.4,.4,-.8,.8,-1.4,.8c-.8,0,-1.5,-.8,-1.5,-1.8c.1,-1.9,2,-1.9,2.9,-1.9h.6v.8c0,.5,-.1,1,-.4,1.5h.4v.3c0,0,0,.2,0,.6v.4h.1V99.6c0,-1.7,-.5,-2.3,-1.7,-2.4c-.5,0,-1.1,.2,-1.5,.5c.4,-.2,1,-.4,1.5,-.4c.4,0,.9,.2,1.2,.6c.2,.3,.4,.9,.4,1.7v.5h-.6c-1,0,-3,0,-3,2.1c0,1.3,.8,1.7,1.5,1.8Zm-36.4,-.2V99.2c0,-1.2,-.3,-1.9,-1.5,-2c-1.2,0,-1.7,.7,-2,1.1c.5,-.6,1.1,-1,1.9,-1c1.3,0,1.5,1.2,1.5,2v4.5Zm18.9,.5V97h1v.8c.3,-.5,.8,-.9,1.4,-.9l.4,.1h.1v1l-.2,-.1h-.2c-.5,0,-.9,.4,-1.1,1c-.3,.7,-.4,1.5,-.4,2.1v3.3Zm-27.7,.1c-1.8,0,-2.9,-1.7,-2.9,-3.8c0,-2.1,1.1,-3.8,2.9,-3.8c1.9,0,3,1.7,3,3.8c0,2.1,-1.1,3.8,-3,3.8Zm4.3,-.1V97h1v.6c.4,-.4,1,-.8,2,-.8c1.5,0,1.9,1.1,1.9,2.4v5.1h-1v-5c0,-.8,0,-1.5,-1,-1.5c-1.1,0,-1.9,.9,-1.9,2.1v4.4Zm8,.1c-.7,0,-1.4,-.3,-1.9,-.8l-.1,-.1v-.1l.4,-.7l.3,.2c.2,.2,.7,.6,1.3,.6c.7,0,1.1,-.4,1.1,-1.1c.2,-1.6,-2.7,-1,-2.9,-3.6c0,-1.1,.8,-2,2.1,-2c.6,0,1.2,.2,1.6,.5l.1,.2l-.1,.1l-.3,.8l-.2,-.2c-.3,-.2,-.7,-.4,-1.1,-.4c-.6,0,-1,.3,-1,1c-.2,1.6,2.8,1.1,2.9,3.5c0,1.1,-.8,2.1,-2.2,2.1Zm4.9,0c-1,0,-2.1,-.7,-2.1,-2.2c.1,-2.5,2.5,-2.6,3.5,-2.6h.1c0,-1.6,-.4,-1.8,-1.1,-1.8c-.5,0,-1.1,.2,-1.5,.4l-.2,.2l-.1,-.2l-.3,-.7l.2,-.1c.5,-.4,1.2,-.6,1.9,-.6c1.4,0,2.1,1,2.1,2.8v4.7h-.9v-.7c-.4,.4,-.9,.8,-1.6,.8Zm6.1,2.8c-.6,0,-1.2,-.2,-1.8,-.6l-.1,-.1v-.2l.3,-.5l.1,-.2l.2,.1c.4,.3,.9,.5,1.3,.5c1,-.1,1.7,-.6,1.7,-2.2v-.4c-.3,.4,-.8,.7,-1.4,.7h-.1c-1.5,0,-2.5,-1.6,-2.5,-3.8c0,-2.2,.9,-3.7,2.5,-3.7c.6,0,1.2,.3,1.6,.7V97h.9v7c0,2.2,-1.3,3.2,-2.7,3.2Zm9.7,-2.8c-.9,0,-2,-.7,-2,-2.2c.1,-2.5,2.5,-2.6,3.5,-2.6h.1c0,-1.6,-.4,-1.8,-1.1,-1.8c-.5,0,-1.1,.2,-1.5,.4l-.2,.2l-.1,-.2l-.3,-.7l.2,-.1c.5,-.4,1.2,-.6,1.9,-.6c1.4,0,2.1,1,2.1,2.8v4.7h-.9v-.7c-.4,.4,-.9,.8,-1.7,.8Zm12.1,0c-.9,0,-2,-.7,-2,-2.2c.1,-2.5,2.5,-2.6,3.5,-2.6h.1c0,-1.6,-.4,-1.8,-1.1,-1.8c-.5,0,-1.1,.2,-1.5,.4l-.2,.2l-.1,-.2l-.3,-.7l.2,-.1c.5,-.4,1.2,-.6,1.9,-.6c1.4,0,2.1,1,2.1,2.8v4.7h-.9v-.7c-.4,.4,-.9,.8,-1.7,.8ZM684.1,100l-1,-3.7c0,0,0,-.1,-.1,-.2c0,.1,0,.2,0,.2l-1,3.7Zm-2.7,.4l1.2,-4.2c.1,-.4,.2,-1.1,.2,-1.1l.1,-.2h.3l.1,.2c0,0,.1,.7,.2,1.1l1.2,4.2Zm4.4,3.4l-2.6,-9.1h-.3l-2.6,9.1h.1l1,-3.3h3.3l1,3.3Zm4.7,0V99.3h2.8v-.1h-2.8V94.7h3.3h-3.4v9.1Zm46.6,.2c.8,0,1.3,-.4,1.5,-.9c-.3,.5,-.8,.8,-1.5,.8c-1.3,0,-2,-1.4,-2,-3.3c0,-1.9,.8,-3.3,2.1,-3.3c1.6,.1,2,1.8,2,3.3c0,.9,-.1,1.5,-.3,2.1h.3v.2c0,0,0,.2,0,.5v.4h.1V94.7h-.1v3c0,.3,0,.5,0,.5v.3h-.4v-.2c-.3,-.6,-.8,-1.1,-1.6,-1.1c-1.4,0,-2.2,1.3,-2.2,3.4c0,2.1,.7,3.4,2.1,3.4Zm-57.4,.3l2.9,-10.1h.9l2.9,10.1h-1.1l-.9,-3.4h-2.7l-.9,3.4Zm10.3,0V94.2h4.2v1H691v3.6h2.8v1H691v4.5Zm47.1,.1c-1.8,0,-2.5,-1.6,-2.5,-3.8c0,-2.2,.9,-3.8,2.6,-3.8c.6,0,1.2,.2,1.5,.7V94.2h1v10.1h-1v-.6c-.3,.5,-.9,.7,-1.6,.7Z"/></clipPath>
<clipPath id="c15_17"><path d="M661.7,123.1v-13c.5,-.3,1,-.8,1.3,-1.3h15v.4h36.5v13.9Z"/></clipPath>
<clipPath id="c16_17"><path d="M678,109.2v-.4h36.5v.4Z"/></clipPath>
<clipPath id="c17_17"><path d="M661.7,110.1v-1.3H663c-.3,.5,-.8,1,-1.3,1.3Z"/></clipPath>
<clipPath id="c18_17"><path d="M616.5,98.7V84.4h33V98.7Z"/></clipPath>
<clipPath id="c19_17"><path d="M653.6,109.2l-11.8,-.6l.3,-7.1l11.9,.6l-.4,7.1Z"/></clipPath>
<clipPath id="c1a_17"><path d="M662.8,104.1c-.7,-1.1,-2,-1.8,-3.5,-1.8c-.1,0,-.3,0,-.4,.1L656.8,100l9,-7.8l4.6,5.4l-7.6,6.5Z"/></clipPath>
<clipPath id="c1b_17"><path d="M661.5,105.3l-2.6,-2.9c.1,-.1,.3,-.1,.4,-.1c1.5,0,2.8,.7,3.5,1.8l-1.3,1.2Z"/></clipPath>
<clipPath id="c1c_17"><path d="M609.8,143.5V116.3c.9,0,1.6,-.4,2.3,-.9h39.5v28.1Z"/></clipPath>
<clipPath id="c1d_17"><path d="M609.8,116.3v-.9h2.3c-.7,.5,-1.4,.9,-2.3,.9Z"/></clipPath>
<clipPath id="c1e_17"><path d="M566.6,108.5V94.2h35.2v14.3Z"/></clipPath>
<clipPath id="c1f_17"><path d="M566,133.6V119.3h24.2c.5,.2,1,.3,1.6,.3c.6,0,1.1,-.1,1.6,-.3h4v14.3Z"/></clipPath>
<clipPath id="c1g_17"><path d="M591.8,119.6c-.6,0,-1.1,-.1,-1.6,-.3h3.2c-.5,.2,-1,.3,-1.6,.3Z"/></clipPath>
<clipPath id="c1h_17"><path d="M519.7,109.8V95.5h40.7v14.3Z"/></clipPath>
<clipPath id="c1i_17"><path d="M678.3,92.1l-3.7,-4.2l9,-7.8l4.6,5.4l-7.6,6.6Z"/></clipPath>
<clipPath id="c1j_17"><path d="M679.3,93.3l-1,-1.2h2.3l-1.3,1.2Z"/></clipPath>
<clipPath id="c1k_17"><path d="M615.3,114.2L613,107.5l11.2,-3.9l2.3,6.7l-11.2,3.9Z"/></clipPath>
<clipPath id="c1l_17"><path d="M838.3,522.3V501.9h30.8v20.4Z"/></clipPath>
<clipPath id="c1m_17"><path d="M78.9,121.1V104.4H90.8v16.7Z"/></clipPath>
<clipPath id="c1n_17"><path d="M117.5,121.1V104.4h11.9v16.7Z"/></clipPath>
<clipPath id="c1o_17"><path d="M192.9,121.1V104.4h11.8v16.7Z"/></clipPath>
<clipPath id="c1p_17"><path d="M277.8,121.8V105.1h11.9v16.7Z"/></clipPath>
<clipPath id="c1q_17"><path d="M326,121.8V105.1h11.9v16.7Z"/></clipPath>
<clipPath id="c1r_17"><path d="M236.5,121.8V105.1h11.8v16.7Z"/></clipPath>
<clipPath id="c1s_17"><path d="M0,1286.2V0H909.4V1286.2Z"/></clipPath>
<clipPath id="c1t_17"><path d="M709.9,88.5V78.7h37.6v9.8ZM722,70.8c-2.3,0,-4.3,-1.9,-4.3,-4.2c0,-2.4,2,-4.3,4.3,-4.3c2.4,0,4.3,1.9,4.3,4.3c0,2.3,-1.9,4.2,-4.3,4.2Zm19.2,-8.5l-3,-6.4l10.7,-5l3,6.4l-10.7,5Zm13.9,-6c-2.4,0,-4.3,-1.9,-4.3,-4.3c0,-2.3,1.9,-4.2,4.3,-4.2c2.3,0,4.3,1.9,4.3,4.2c0,2.4,-2,4.3,-4.3,4.3Z"/></clipPath>
<style type="text/css"><![CDATA[
.g0_17{
fill: #4BC0B5;
}
.g1_17{
fill: #8FD3D3;
}
.g2_17{
fill: #5AC4C1;
}
.g3_17{
fill: #231F20;
}
.g4_17{
fill: #DEF1F0;
}
.g5_17{
fill: #7C7C65;
}
]]></style>
</defs>
<path d="M879.6,1286.2h29.8V1029H879.6v257.2Z" class="g0_17"/>
<image clip-path="url(#c0_17)" preserveAspectRatio="none" x="881" y="1034" width="24" height="39" xlink:href="img/1.jpg"/>
<image clip-path="url(#c1_17)" preserveAspectRatio="none" x="399" y="13" width="78" height="123" xlink:href="img/2.jpg"/>
<path d="M0,528.3H306.7V147.2H0V528.3Z" class="g1_17"/>
<image clip-path="url(#c2_17)" preserveAspectRatio="none" x="0" y="147" width="307" height="381" xlink:href="img/3.jpg"/>
<path d="M320.5,528.3h550V147.2h-550V528.3Z" class="g1_17"/>
<image clip-path="url(#c3_17)" preserveAspectRatio="none" x="320" y="147" width="550" height="381" xlink:href="img/4.jpg"/>
<image clip-path="url(#c4_17)" preserveAspectRatio="none" x="227" y="502" width="73" height="20" xlink:href="img/5.jpg"/>
<image clip-path="url(#c5_17)" preserveAspectRatio="none" x="476" y="0" width="395" height="43" xlink:href="img/6.jpg"/>
<image clip-path="url(#c6_17)" preserveAspectRatio="none" x="476" y="3" width="395" height="145" xlink:href="img/7.jpg"/>
<image clip-path="url(#c7_17)" preserveAspectRatio="none" x="476" y="147" width="148" height="109" xlink:href="img/8.jpg"/>
<image clip-path="url(#c8_17)" preserveAspectRatio="none" x="624" y="147" width="148" height="109" xlink:href="img/9.jpg"/>
<image clip-path="url(#c9_17)" preserveAspectRatio="none" x="772" y="147" width="99" height="164" xlink:href="img/10.jpg"/>
<image clip-path="url(#ca_17)" preserveAspectRatio="none" x="476" y="256" width="148" height="109" xlink:href="img/11.jpg"/>
<image clip-path="url(#cb_17)" preserveAspectRatio="none" x="624" y="256" width="148" height="109" xlink:href="img/12.jpg"/>
<image clip-path="url(#cc_17)" preserveAspectRatio="none" x="772" y="311" width="99" height="163" xlink:href="img/13.jpg"/>
<image clip-path="url(#cd_17)" preserveAspectRatio="none" x="476" y="365" width="148" height="109" xlink:href="img/14.jpg"/>
<image clip-path="url(#ce_17)" preserveAspectRatio="none" x="624" y="365" width="148" height="109" xlink:href="img/15.jpg"/>
<image clip-path="url(#cf_17)" preserveAspectRatio="none" x="476" y="474" width="296" height="55" xlink:href="img/16.jpg"/>
<image clip-path="url(#cg_17)" preserveAspectRatio="none" x="772" y="474" width="99" height="55" xlink:href="img/17.jpg"/>
<path d="M702.3,83.4c2.3,0,4.2,-1.9,4.2,-4.3c0,-2.3,-1.9,-4.3,-4.2,-4.3c-2.4,0,-4.3,2,-4.3,4.3c0,2.4,1.9,4.3,4.3,4.3Z" class="g2_17"/>
<path d="M548.6,130.1c3.4,0,6.1,-2.7,6.1,-6.1c0,-3.4,-2.7,-6.1,-6.1,-6.1c-3.3,0,-6.1,2.7,-6.1,6.1c0,3.4,2.8,6.1,6.1,6.1Z" class="g1_17"/>
<path d="M548.6,130.1v1.5c4.2,0,7.6,-3.4,7.6,-7.6c0,-4.2,-3.4,-7.6,-7.6,-7.6c-4.2,0,-7.5,3.4,-7.5,7.6c0,4.2,3.3,7.6,7.5,7.6v-3c-2.5,0,-4.6,-2.1,-4.6,-4.6c0,-2.5,2.1,-4.6,4.6,-4.6c2.6,0,4.6,2.1,4.6,4.6c0,2.5,-2,4.6,-4.6,4.6Z" class="g2_17"/>
<image clip-path="url(#ch_17)" preserveAspectRatio="none" x="710" y="36" width="33" height="15" xlink:href="img/18.jpg"/>
<image clip-path="url(#ci_17)" preserveAspectRatio="none" x="426" y="134" width="9" height="14" xlink:href="img/19.jpg"/>
<image clip-path="url(#cj_17)" preserveAspectRatio="none" x="433" y="134" width="44" height="14" xlink:href="img/20.jpg"/>
<image clip-path="url(#ck_17)" preserveAspectRatio="none" x="427" y="147" width="50" height="2" xlink:href="img/21.jpg"/>
<image clip-path="url(#cl_17)" preserveAspectRatio="none" x="476" y="135" width="100" height="13" xlink:href="img/22.jpg"/>
<image clip-path="url(#cm_17)" preserveAspectRatio="none" x="476" y="147" width="99" height="2" xlink:href="img/23.jpg"/>
<path d="M733.6,64c2.4,0,4.3,-1.9,4.3,-4.2c0,-2.4,-1.9,-4.3,-4.3,-4.3c-2.3,0,-4.2,1.9,-4.2,4.3c0,2.3,1.9,4.2,4.2,4.2Z" class="g2_17"/>
<image clip-path="url(#cn_17)" preserveAspectRatio="none" x="777" y="29" width="19" height="3" xlink:href="img/24.jpg"/>
<image clip-path="url(#co_17)" preserveAspectRatio="none" x="761" y="29" width="35" height="15" xlink:href="img/25.jpg"/>
<image clip-path="url(#cp_17)" preserveAspectRatio="none" x="744" y="59" width="29" height="15" xlink:href="img/26.jpg"/>
<image clip-path="url(#cq_17)" preserveAspectRatio="none" x="783" y="69" width="45" height="15" xlink:href="img/27.jpg"/>
<path d="M777.6,58.7c2.4,0,4.3,-1.9,4.3,-4.2c0,-2.4,-1.9,-4.3,-4.3,-4.3c-2.3,0,-4.2,1.9,-4.2,4.3c0,2.3,1.9,4.2,4.2,4.2Z" class="g2_17"/>
<image clip-path="url(#cr_17)" preserveAspectRatio="none" x="707" y="76" width="43" height="15" xlink:href="img/28.jpg"/>
<image clip-path="url(#cs_17)" preserveAspectRatio="none" x="709" y="78" width="39" height="11" xlink:href="img/29.jpg"/>
<path d="M709.9,88.3v.3h4.3v-1h-3.5V78.5h-1V88.6h.2v-.3h.2V78.9h.2V88h3.5v.1h-3.9v.2h.2h-.2m4.9,-1.9h-.2c0,1.6,1.1,2.3,2,2.3c1.1,0,1.7,-.9,2,-1.6l-.2,-.1v.3V87h-.2c0,0,0,.3,0,.7v.9h1V83.9c0,-1.8,-.7,-2.8,-2.2,-2.8c-.6,0,-1.3,.2,-1.9,.6l-.1,.1l.3,.6l.1,.3l.2,-.2c.4,-.3,1,-.5,1.4,-.4c.8,0,1.1,.2,1.2,1.8H718c-.9,0,-3.4,.1,-3.4,2.5h.4c0,-2,2,-2,3,-2h.6v-.5c0,-.8,-.1,-1.4,-.4,-1.8c-.3,-.4,-.7,-.5,-1.2,-.5c-.5,0,-1.2,.2,-1.7,.6l.2,.1h.2l-.2,-.5l-.2,.1l.1,.1c.4,-.3,1.1,-.5,1.6,-.5c1.2,0,1.7,.7,1.7,2.4v4.2h-.1v-.4c0,-.4,.1,-.6,.1,-.6v-.3h-.4l-.1,.2c-.3,.6,-.7,1.2,-1.6,1.2c-.7,0,-1.6,-.4,-1.6,-1.8h-.2m.6,0h.2c0,-1.5,1.5,-1.5,2.4,-1.5h.2v.4c0,1,-.6,2.4,-1.6,2.4c-.5,0,-1,-.5,-1,-1.3h-.4c0,1,.6,1.8,1.4,1.8c1.5,-.1,2,-1.8,2,-2.9v-.8H718c-.8,0,-2.8,0,-2.8,1.9h.2m8.3,1.9v.3h.8l.4,-7.6c.1,-.5,.1,-1.3,.1,-1.3h-.2v.2v-.2l-.2,.1c0,0,.2,.9,.4,1.4l.2,-.1l-.2,.1l1.9,5.5h.9l1.9,-5.5l-.2,-.1l.2,.1c.2,-.5,.4,-1.4,.4,-1.4l-.2,-.1V80v-.3h-.2c0,0,0,.8,0,1.3l.5,7.6h1l-.6,-10.1h-1l-2.1,6c-.2,.5,-.4,1.2,-.4,1.2l.3,.1v-.2h-.1v.2l.2,-.1c0,0,-.2,-.7,-.3,-1.2l-2.1,-6h-1l-.6,10.1h.2v-.3l.2,.1l.6,-9.5h.3l2,5.8l.2,-.1l-.2,.1c.1,.4,.3,1.2,.3,1.2l.1,.1h.3l.1,-.1c0,0,.2,-.8,.3,-1.2l-.2,-.1l.2,.1l2,-5.8h.2l.6,9.2h-.1L730.2,81c-.1,-.5,-.1,-1.3,-.1,-1.3v-.2h-.4v.2c0,0,-.2,.9,-.4,1.4l-1.8,5.2h-.3l-1.8,-5.2c-.2,-.5,-.4,-1.4,-.4,-1.4v-.2h-.4l-.1,.2c0,0,0,.8,0,1.3l-.4,7.1h-.4v.2l.2,.1l-.2,-.1m8.8,-3.5h-.2c0,2.4,1.2,3.9,2.9,3.9c.9,0,1.7,-.4,2.1,-.9l.1,-.1l-.2,-.6l-.1,-.3l-.3,.2c-.4,.5,-.9,.7,-1.5,.7c-1.1,0,-1.9,-.8,-2,-2.9h-.2V85h4.4v-.2c0,-.1,0,-.3,0,-.5c0,-1.5,-.6,-3.2,-2.4,-3.2c-1.7,0,-2.8,1.5,-2.8,3.7h.5c0,-2.1,.9,-3.3,2.3,-3.3c1.4,0,2,1.3,2,2.8c0,.1,0,.3,0,.5h.2v-.2h-4.4v.2c0,2.2,1,3.4,2.4,3.4c.7,0,1.4,-.3,1.8,-.9l-.1,-.1l-.2,.1l.2,.5l.2,-.1l-.2,-.2c-.3,.4,-1,.8,-1.8,.8c-1.4,0,-2.4,-1.3,-2.4,-3.5h-.3m.7,-.5h.2c.2,-1.6,.8,-2.2,1.7,-2.2c.8,0,1.4,.5,1.4,2.2h.2V84h-3.5v.3h.2h-.2v.2H737v-.2c-.1,-1.7,-.8,-2.7,-1.9,-2.7c-1.2,0,-2,1,-2.2,2.6v.3h.3v-.2m5.3,3.5l-.2,.1c.5,.5,1.2,.8,2,.8c1.4,0,2.1,-1,2.1,-2.1c-.1,-2.5,-3,-1.9,-2.9,-3.5c.1,-.7,.4,-1,1.1,-1c.3,-.1,.8,.1,1,.4l.3,.1l.3,-.7l.1,-.2l-.1,-.1c-.5,-.3,-1.1,-.5,-1.6,-.5c-1.3,0,-2.1,.8,-2.1,2c.1,2.5,3.1,2,2.9,3.6c0,.7,-.4,1,-1.1,1c-.6,.1,-1.1,-.3,-1.4,-.6l-.2,-.2l-.4,.8l-.1,.1l.1,.1l.2,-.1l.2,.1l.3,-.5l-.2,-.1l-.2,.2c.3,.2,.9,.7,1.7,.7c.9,0,1.5,-.6,1.5,-1.5c-.1,-2.2,-3,-1.5,-2.9,-3.6c.1,-1,.6,-1.6,1.7,-1.6c.4,0,.9,.2,1.3,.5l.1,-.2l-.2,-.1l-.2,.5l.2,.1l.1,-.2c-.3,-.3,-.8,-.5,-1.3,-.5c-.8,0,-1.5,.5,-1.5,1.5c.1,2.2,3,1.5,2.9,3.5c0,.9,-.5,1.7,-1.7,1.7c-.6,0,-1.2,-.3,-1.6,-.7l-.2,.2l.2,.1l-.2,-.1m4.8,-1.4h-.2c0,1.6,1.1,2.3,2,2.3c1.1,0,1.8,-.9,2,-1.6l-.2,-.1v.3h.1V87h-.3c0,0,0,.3,0,.7v.9h1V83.9c0,-1.8,-.7,-2.8,-2.2,-2.8c-.6,0,-1.3,.2,-1.9,.6l-.1,.1l.3,.6l.1,.3l.2,-.2c.4,-.3,1,-.5,1.4,-.4c.8,0,1.2,.2,1.2,1.8h-.2c-.9,0,-3.4,.1,-3.4,2.5h.4c.1,-2,2.1,-2,3,-2h.6v-.5c0,-.8,-.1,-1.4,-.4,-1.8c-.3,-.4,-.7,-.5,-1.2,-.5c-.5,0,-1.2,.2,-1.7,.6l.2,.1h.2l-.2,-.5l-.2,.1l.1,.1c.5,-.3,1.1,-.5,1.6,-.5c1.2,0,1.7,.7,1.8,2.4v4.2h-.1v-.4c0,-.4,0,-.6,0,-.6v-.3h-.4l-.1,.2c-.2,.6,-.7,1.2,-1.6,1.2c-.7,0,-1.5,-.4,-1.6,-1.8h-.2m.6,0h.2c0,-1.5,1.5,-1.5,2.4,-1.5h.2v.4c0,1,-.6,2.4,-1.5,2.4c-.6,0,-1.1,-.5,-1.1,-1.3h-.4c0,1,.6,1.8,1.5,1.8c1.4,-.1,1.9,-1.8,1.9,-2.9v-.8h-.6c-.8,0,-2.8,0,-2.8,1.9Z" class="g3_17"/>
<path d="M804.3,64.7c3.4,0,6.1,-2.7,6.1,-6.1c0,-3.4,-2.7,-6.1,-6.1,-6.1c-3.3,0,-6,2.7,-6,6.1c0,3.4,2.7,6.1,6,6.1Z" class="g1_17"/>
<path d="M804.3,64.7v1.5c4.2,0,7.6,-3.4,7.6,-7.6c0,-4.2,-3.4,-7.6,-7.6,-7.6c-4.1,0,-7.5,3.4,-7.5,7.6c0,4.2,3.4,7.6,7.5,7.6v-3c-2.5,0,-4.6,-2,-4.6,-4.6c0,-2.5,2.1,-4.6,4.6,-4.6c2.6,0,4.6,2.1,4.6,4.6c0,2.6,-2,4.6,-4.6,4.6Z" class="g2_17"/>
<image clip-path="url(#ct_17)" preserveAspectRatio="none" x="782" y="51" width="14" height="10" xlink:href="img/30.png"/>
<path d="M673.9,98.9c2.4,0,4.3,-2,4.3,-4.3c0,-2.4,-1.9,-4.3,-4.3,-4.3c-2.3,0,-4.2,1.9,-4.2,4.3c0,2.3,1.9,4.3,4.2,4.3Z" class="g2_17"/>
<image clip-path="url(#cu_17)" preserveAspectRatio="none" x="586" y="66" width="97" height="15" xlink:href="img/31.jpg"/>
<image clip-path="url(#cv_17)" preserveAspectRatio="none" x="760" y="50" width="12" height="8" xlink:href="img/32.png"/>
<image clip-path="url(#cw_17)" preserveAspectRatio="none" x="635" y="50" width="80" height="15" xlink:href="img/33.jpg"/>
<image clip-path="url(#cx_17)" preserveAspectRatio="none" x="710" y="50" width="5" height="1" xlink:href="img/34.jpg"/>
<image clip-path="url(#cy_17)" preserveAspectRatio="none" x="706" y="68" width="14" height="11" xlink:href="img/35.png"/>
<image clip-path="url(#cz_17)" preserveAspectRatio="none" x="708" y="73" width="8" height="6" xlink:href="img/36.png"/>
<image clip-path="url(#c10_17)" preserveAspectRatio="none" x="709" y="78" width="2" height="1" xlink:href="img/37.png"/>
<path d="M690.5,84.5c2.3,0,4.2,-2,4.2,-4.3c0,-2.4,-1.9,-4.3,-4.2,-4.3c-2.4,0,-4.3,1.9,-4.3,4.3c0,2.3,1.9,4.3,4.3,4.3Z" class="g2_17"/>
<image clip-path="url(#c11_17)" preserveAspectRatio="none" x="678" y="92" width="70" height="18" xlink:href="img/38.jpg"/>
<image clip-path="url(#c12_17)" preserveAspectRatio="none" x="677" y="93" width="2" height="4" xlink:href="img/39.jpg"/>
<image clip-path="url(#c13_17)" preserveAspectRatio="none" x="680" y="94" width="65" height="13" xlink:href="img/40.jpg"/>
<image clip-path="url(#c14_17)" preserveAspectRatio="none" x="679" y="94" width="67" height="13" xlink:href="img/41.jpg"/>
<path d="M680,104.1v.2h.8l.9,-3.4h2.7l.9,3.4h1.1L683.5,94.2h-.9l-2.9,10.1h.3v-.2h.2l2.7,-9.4h.3l2.6,9.1h-.1l-1,-3.3h-3.3l-1,3.3H680v.3h.2H680m1.7,-3.9h.2L683,96.3h-.2h.2c.1,-.4,.3,-1.1,.3,-1.1l-.3,-.1v.2h.1v-.2l-.3,.1c0,0,.2,.7,.3,1.1h.2h-.2l1,3.7h-2.4v.2h.2h-.2v.2h3l-1.2,-4.2c-.1,-.4,-.2,-1.1,-.2,-1.1l-.1,-.2h-.3l-.1,.2c0,0,-.1,.7,-.2,1.1l-1.2,4.2h.3v-.2m8.5,3.9v.2h.8V99.8h2.8v-1H691V95.2h3.2v-1H690v10.1h.2v-.2h.2V94.7h3.4h-3.3v4.5h2.8v.1h-2.8v4.5h-.3v.3h.2h-.2m4.8,-3.5h-.2c0,2.1,1.1,3.8,2.9,3.8c1.9,0,3,-1.7,3,-3.8c0,-2.1,-1.1,-3.8,-3,-3.8c-1.8,0,-2.9,1.7,-2.9,3.8h.4c0,-2,1,-3.4,2.5,-3.4c1.6,0,2.6,1.4,2.6,3.4c0,1.9,-1,3.4,-2.6,3.4c-1.5,0,-2.5,-1.4,-2.5,-3.4H695m.6,0h.2c0,-1.7,.8,-2.8,1.9,-2.8c1.2,0,2,1.1,2,2.8c0,1.7,-.8,2.9,-2,2.9c-1.1,0,-1.9,-1.2,-1.9,-2.9h-.4c0,1.8,.8,3.3,2.3,3.3c1.6,0,2.5,-1.5,2.5,-3.3c0,-1.8,-.9,-3.3,-2.5,-3.3c-1.5,0,-2.3,1.5,-2.3,3.3h.2m6.6,3.5v.2h.8V99.9c0,-1.2,.8,-2.1,1.9,-2.1c1,0,1,.7,1,1.5v5h1V99.2c0,-1.3,-.4,-2.4,-1.9,-2.4c-1.5,0,-2.2,1,-2.4,1.5l.2,.1v-.2h-.1v.2l.3,.1c0,0,0,-.2,0,-.5V97h-1v7.3h.2v-.2h.2V97.4h.2V98c0,.2,-.1,.4,-.1,.4v.2h.4l.1,-.1c.1,-.4,.7,-1.3,2,-1.3c1.2,.1,1.5,.8,1.5,2v4.6h-.1V99.3c0,-.8,-.2,-2,-1.5,-2c-1.4,0,-2.3,1.2,-2.3,2.6v3.9h-.4v.3h.2h-.2m6,-.6l-.1,.1c.5,.5,1.2,.8,1.9,.8c1.4,0,2.2,-1,2.2,-2.1c-.1,-2.4,-3.1,-1.9,-2.9,-3.5c0,-.7,.4,-1,1,-1c.4,0,.8,.2,1.1,.4l.2,.2l.3,-.8l.1,-.1l-.1,-.2c-.4,-.3,-1,-.5,-1.6,-.5c-1.3,0,-2.1,.9,-2.1,2c.2,2.6,3.1,2,2.9,3.6c0,.7,-.4,1,-1.1,1.1c-.6,0,-1.1,-.4,-1.3,-.6l-.3,-.2l-.4,.7v.1l.1,.1l.1,-.1l.2,.1l.3,-.5l-.2,-.1l-.2,.2c.3,.2,.9,.7,1.7,.7c.9,0,1.6,-.6,1.6,-1.5c-.2,-2.1,-3,-1.5,-2.9,-3.6c0,-.9,.5,-1.5,1.6,-1.6c.5,0,1,.2,1.3,.5l.1,-.2l-.2,-.1l-.2,.5l.2,.1l.2,-.2c-.4,-.2,-.9,-.5,-1.4,-.5c-.8,0,-1.5,.6,-1.5,1.5c.2,2.2,3.1,1.6,2.9,3.5c0,1,-.5,1.7,-1.7,1.7c-.6,0,-1.2,-.2,-1.6,-.7l-.2,.2l.2,.1l-.2,-.1m4.9,-1.3h-.3c0,1.5,1.1,2.2,2.1,2.2c1.1,0,1.7,-.9,2,-1.5l-.2,-.1v.2v-.2h-.2c0,0,0,.2,0,.6v.9h.9V99.6c0,-1.8,-.7,-2.8,-2.1,-2.8c-.7,0,-1.4,.2,-1.9,.6l-.2,.1l.3,.7l.1,.2l.2,-.2c.4,-.2,1,-.4,1.5,-.4c.7,0,1.1,.2,1.1,1.8h-.1c-1,0,-3.4,.1,-3.5,2.6h.5c0,-2.1,2,-2.1,3,-2.1h.6v-.5c0,-.8,-.2,-1.4,-.4,-1.7c-.3,-.4,-.8,-.6,-1.2,-.6c-.6,0,-1.2,.2,-1.7,.6l.1,.2l.2,-.1l-.2,-.5l-.2,.1l.1,.2c.5,-.4,1.1,-.6,1.7,-.6c1.2,.1,1.7,.7,1.7,2.4v4.2h-.1v-.4c0,-.4,0,-.6,0,-.6v-.3h-.4v.2c-.3,.6,-.8,1.3,-1.6,1.3c-.8,-.1,-1.6,-.5,-1.6,-1.8h-.2m.6,-.1h.2c0,-1.4,1.5,-1.5,2.4,-1.5h.1v.4c0,1,-.6,2.4,-1.5,2.4c-.5,0,-1,-.5,-1,-1.3h-.5c0,1,.7,1.8,1.5,1.8c1.4,-.1,2,-1.8,2,-2.9v-.8h-.6c-.9,0,-2.8,0,-2.9,1.9h.3m5.9,3.8l-.2,-.1l-.3,.5v.2l.1,.1c.6,.4,1.2,.6,1.8,.6c1.4,0,2.7,-1,2.7,-3.2V97h-.9v1.3h.2v-.2v.2l.2,-.1c-.3,-.9,-1.1,-1.4,-2,-1.4c-1.6,0,-2.5,1.5,-2.5,3.7c0,2.2,1,3.8,2.5,3.8c1,0,1.6,-.6,2,-1.5l-.2,-.1v.3v-.3h-.2c0,0,-.1,.3,-.1,.6v.7c0,1.6,-.7,2.1,-1.7,2.2c-.4,0,-.9,-.2,-1.3,-.5l-.2,-.1l-.1,.2l.2,.1l-.1,.2c.4,.3,1,.5,1.5,.5c1.2,0,2.2,-.8,2.2,-2.6v-.7c0,-.3,0,-.5,0,-.5v-.3h-.4v.2c-.3,.7,-.8,1.1,-1.6,1.1c-1.2,0,-2.1,-1.2,-2.1,-3.3c0,-2.1,.8,-3.3,2.1,-3.3c.8,0,1.3,.5,1.6,1.2v.1h.4V97.4h.1V104c0,2,-1.1,2.7,-2.3,2.7c-.5,0,-1,-.1,-1.5,-.5l-.2,.2l.2,.1l.3,-.5l-.2,-.1l-.1,.2l.1,-.2m1.7,-2.4v-.2c-.9,0,-1.6,-1,-1.6,-2.8c0,-1.8,.6,-2.7,1.5,-2.7c.9,0,1.5,.5,1.6,2.7c-.1,2.2,-.8,2.8,-1.5,2.8v.4c1.1,0,1.9,-.9,1.9,-3.2c0,-2.2,-.8,-3.1,-2,-3.1c-1.3,0,-1.9,1.2,-1.9,3.1c0,1.9,.7,3.2,2,3.2v-.2m4.3,.6v.2h.8V101c0,-.6,.1,-1.4,.4,-2.1c.2,-.6,.6,-1,1.1,-1h.2l.2,.1V97h-.1l-.4,-.1c-.9,0,-1.6,.9,-1.9,1.9h.3v-.2h-.1v.2h.2c0,0,.1,-.2,.1,-.5V97h-1v7.3h.2v-.2h.2V97.4h.1v.9c0,.3,0,.5,0,.5V99h.4l.1,-.1c.2,-.9,.8,-1.6,1.4,-1.6l.3,.1v-.2h-.2v.5h.2l.1,-.2h-.3c-1.5,.1,-1.9,2.1,-2,3.5v2.8h-.3v.3h.2h-.2m3.4,-1.9h-.3c0,1.5,1.1,2.2,2,2.2c1.2,0,1.8,-.9,2.1,-1.5l-.2,-.1v.2v-.2h-.2c0,0,0,.2,0,.6v.9h.9V99.6c0,-1.8,-.7,-2.8,-2.1,-2.8c-.7,0,-1.4,.2,-1.9,.6l-.2,.1l.3,.7l.1,.2l.2,-.2c.4,-.2,1,-.4,1.5,-.4c.7,0,1.1,.2,1.1,1.8h-.1c-1,0,-3.4,.1,-3.5,2.6h.5c0,-2.1,2,-2.1,3,-2.1h.6v-.5c0,-.8,-.2,-1.4,-.4,-1.7c-.3,-.4,-.8,-.6,-1.2,-.6c-.6,0,-1.2,.2,-1.7,.6l.1,.2l.2,-.1l-.2,-.5l-.2,.1l.1,.2c.5,-.4,1.1,-.6,1.7,-.6c1.2,.1,1.7,.7,1.7,2.4v4.2h-.1v-.4c0,-.4,0,-.6,0,-.6v-.3h-.4v.2c-.3,.6,-.8,1.3,-1.7,1.3c-.7,-.1,-1.5,-.5,-1.5,-1.8H729m.6,-.1h.2c0,-1.4,1.5,-1.5,2.4,-1.5h.1v.4c0,1,-.6,2.4,-1.5,2.4c-.6,0,-1,-.5,-1,-1.3h-.5c0,1,.7,1.8,1.5,1.8c1.4,-.1,2,-1.8,2,-2.9v-.8h-.6c-.9,0,-2.8,0,-2.9,1.9h.3m5.2,-1.5h-.2c0,2.2,.7,3.8,2.5,3.8c1.2,.1,1.8,-.7,2.1,-1.5H739v.2v-.2l-.2,-.1c0,0,-.1,.3,-.1,.6v.9h1V94.2h-1v3.5c0,.3,.1,.6,.1,.6h.2V98v.3l.2,-.1c-.3,-.8,-1,-1.4,-2,-1.4c-1.7,0,-2.6,1.6,-2.6,3.8h.4c0,-2.1,.8,-3.4,2.2,-3.4c.8,0,1.3,.5,1.6,1.1v.2h.4v-.3c0,0,0,-.2,0,-.5v-3h.1v9.1h-.1v-.4c0,-.3,0,-.5,0,-.5v-.2h-.4l-.1,.1c-.2,.7,-.6,1.2,-1.6,1.2c-1.4,0,-2.1,-1.3,-2.1,-3.4h-.2m.6,0h.2c0,-1.9,.6,-2.8,1.6,-2.8c1.1,0,1.5,1.3,1.5,2.8c0,2.2,-.6,2.9,-1.6,2.9c-.9,0,-1.5,-1,-1.5,-2.9h-.5c0,1.9,.7,3.3,2,3.3c1.3,0,2.1,-1.1,2.1,-3.3c0,-1.5,-.4,-3.2,-2,-3.3c-1.3,0,-2.1,1.4,-2.1,3.3h.3m5.7,1.6h-.3c0,1.5,1.1,2.2,2,2.2c1.2,0,1.8,-.9,2.1,-1.5l-.2,-.1v.2v-.2h-.2c0,0,0,.2,0,.6v.9h.9V99.6c0,-1.8,-.7,-2.8,-2.1,-2.8c-.7,0,-1.4,.2,-1.9,.6l-.2,.1l.3,.7l.1,.2l.2,-.2c.4,-.2,1,-.4,1.5,-.4c.7,0,1.1,.2,1.1,1.8h-.1c-1,0,-3.4,.1,-3.5,2.6h.5c0,-2.1,2,-2.1,3,-2.1h.6v-.5c0,-.8,-.2,-1.4,-.4,-1.7c-.3,-.4,-.8,-.6,-1.2,-.6c-.6,0,-1.2,.2,-1.7,.6l.1,.2l.2,-.1l-.2,-.5l-.2,.1l.1,.2c.5,-.4,1.1,-.6,1.7,-.6c1.2,.1,1.7,.7,1.7,2.4v4.2h-.1v-.4c0,-.4,0,-.6,0,-.6v-.3h-.4v.2c-.3,.6,-.8,1.3,-1.7,1.3c-.7,-.1,-1.5,-.5,-1.5,-1.8h-.2m.6,-.1h.2c0,-1.4,1.5,-1.5,2.4,-1.5h.1v.4c0,1,-.6,2.4,-1.5,2.4c-.6,0,-1,-.5,-1,-1.3h-.5c0,1,.7,1.8,1.5,1.8c1.4,-.1,2,-1.8,2,-2.9v-.8h-.6c-.9,0,-2.8,0,-2.9,1.9Z" class="g3_17"/>
<path d="M659.3,110.8c2.4,0,4.3,-1.9,4.3,-4.2c0,-2.4,-1.9,-4.3,-4.3,-4.3c-2.3,0,-4.2,1.9,-4.2,4.3c0,2.3,1.9,4.2,4.2,4.2Z" class="g2_17"/>
<image clip-path="url(#c15_17)" preserveAspectRatio="none" x="661" y="109" width="54" height="15" xlink:href="img/42.jpg"/>
<image clip-path="url(#c16_17)" preserveAspectRatio="none" x="678" y="109" width="37" height="1" xlink:href="img/43.jpg"/>
<image clip-path="url(#c17_17)" preserveAspectRatio="none" x="661" y="108" width="2" height="2" xlink:href="img/44.jpg"/>
<path d="M609.4,116.4c2.4,0,4.3,-1.9,4.3,-4.3c0,-2.3,-1.9,-4.3,-4.3,-4.3c-2.3,0,-4.2,2,-4.2,4.3c0,2.4,1.9,4.3,4.2,4.3Z" class="g2_17"/>
<path d="M634.2,112.6c3.3,0,6,-2.7,6,-6.1c0,-3.3,-2.7,-6.1,-6,-6.1c-3.4,0,-6.1,2.8,-6.1,6.1c0,3.4,2.7,6.1,6.1,6.1Z" class="g1_17"/>
<path d="M634.2,112.6v1.5c4.1,0,7.5,-3.4,7.5,-7.6c0,-4.2,-3.4,-7.6,-7.5,-7.6c-4.2,0,-7.6,3.4,-7.6,7.6c0,4.2,3.4,7.6,7.6,7.6v-3c-2.6,0,-4.6,-2,-4.7,-4.6c.1,-2.5,2.1,-4.6,4.7,-4.6c2.5,0,4.6,2.1,4.6,4.6c0,2.6,-2.1,4.6,-4.6,4.6Z" class="g2_17"/>
<image clip-path="url(#c18_17)" preserveAspectRatio="none" x="616" y="84" width="34" height="15" xlink:href="img/45.jpg"/>
<image clip-path="url(#c19_17)" preserveAspectRatio="none" x="642" y="101" width="12" height="8" xlink:href="img/46.png"/>
<image clip-path="url(#c1a_17)" preserveAspectRatio="none" x="657" y="92" width="14" height="13" xlink:href="img/47.png"/>
<image clip-path="url(#c1b_17)" preserveAspectRatio="none" x="659" y="101" width="4" height="4" xlink:href="img/48.png"/>
<image clip-path="url(#c1c_17)" preserveAspectRatio="none" x="610" y="115" width="42" height="29" xlink:href="img/49.jpg"/>
<image clip-path="url(#c1d_17)" preserveAspectRatio="none" x="609" y="115" width="4" height="2" xlink:href="img/50.jpg"/>
<path d="M591.8,119.6c2.4,0,4.3,-1.9,4.3,-4.2c0,-2.4,-1.9,-4.3,-4.3,-4.3c-2.3,0,-4.3,1.9,-4.3,4.3c0,2.3,2,4.2,4.3,4.2Z" class="g2_17"/>
<image clip-path="url(#c1e_17)" preserveAspectRatio="none" x="566" y="94" width="36" height="15" xlink:href="img/51.jpg"/>
<path d="M575.4,118.2c2.4,0,4.3,-1.9,4.3,-4.2c0,-2.4,-1.9,-4.3,-4.3,-4.3c-2.3,0,-4.2,1.9,-4.2,4.3c0,2.3,1.9,4.2,4.2,4.2Z" class="g2_17"/>
<image clip-path="url(#c1f_17)" preserveAspectRatio="none" x="566" y="119" width="32" height="15" xlink:href="img/52.jpg"/>
<image clip-path="url(#c1g_17)" preserveAspectRatio="none" x="590" y="119" width="4" height="1" xlink:href="img/53.jpg"/>
<path d="M562.6,120.7c2.4,0,4.3,-1.9,4.3,-4.3c0,-2.3,-1.9,-4.2,-4.3,-4.2c-2.3,0,-4.2,1.9,-4.2,4.2c0,2.4,1.9,4.3,4.2,4.3Z" class="g2_17"/>
<image clip-path="url(#c1h_17)" preserveAspectRatio="none" x="519" y="95" width="42" height="15" xlink:href="img/54.jpg"/>
<image clip-path="url(#c1i_17)" preserveAspectRatio="none" x="674" y="80" width="14" height="13" xlink:href="img/55.png"/>
<image clip-path="url(#c1j_17)" preserveAspectRatio="none" x="678" y="91" width="3" height="2" xlink:href="img/56.png"/>
<image clip-path="url(#c1k_17)" preserveAspectRatio="none" x="613" y="104" width="14" height="10" xlink:href="img/57.png"/>
<image clip-path="url(#c1l_17)" preserveAspectRatio="none" x="838" y="502" width="31" height="20" xlink:href="img/58.jpg"/>
<path d="M58,130.5c2.1,0,3.8,-1.7,3.8,-3.8c0,-2.1,-1.7,-3.8,-3.8,-3.8c-2.1,0,-3.7,1.7,-3.7,3.8c0,2.1,1.6,3.8,3.7,3.8Z" class="g4_17"/>
<path d="M58,130.5v.5c2.4,0,4.4,-1.9,4.4,-4.3c0,-2.4,-2,-4.3,-4.4,-4.3c-2.4,0,-4.3,1.9,-4.3,4.3c0,2.4,1.9,4.3,4.3,4.3v-1.1c-1.7,0,-3.2,-1.4,-3.2,-3.2c0,-1.8,1.5,-3.2,3.2,-3.2c1.8,0,3.2,1.4,3.2,3.2c0,1.8,-1.4,3.2,-3.2,3.2Z" class="g2_17"/>
<path d="M65.4,127.7H96.1v-1.6H65.4Z" class="g2_17"/>
<image clip-path="url(#c1m_17)" preserveAspectRatio="none" x="79" y="104" width="12" height="17" xlink:href="img/59.jpg"/>
<path d="M103.6,130.5c2,0,3.7,-1.7,3.7,-3.8c0,-2.1,-1.7,-3.8,-3.7,-3.8c-2.1,0,-3.8,1.7,-3.8,3.8c0,2.1,1.7,3.8,3.8,3.8Z" class="g4_17"/>
<path d="M103.6,130.5v.5c2.3,0,4.3,-1.9,4.3,-4.3c0,-2.4,-2,-4.3,-4.3,-4.3c-2.4,0,-4.4,1.9,-4.4,4.3c0,2.4,2,4.3,4.4,4.3v-1.1c-1.8,0,-3.3,-1.4,-3.3,-3.2c0,-1.8,1.5,-3.2,3.3,-3.2c1.7,0,3.2,1.4,3.2,3.2c0,1.8,-1.5,3.2,-3.2,3.2Z" class="g2_17"/>
<path d="M111,127.7h41.4v-1.6H111Z" class="g2_17"/>
<image clip-path="url(#c1n_17)" preserveAspectRatio="none" x="117" y="104" width="13" height="17" xlink:href="img/60.jpg"/>
<path d="M160.5,130.5c2,0,3.7,-1.7,3.7,-3.8c0,-2.1,-1.7,-3.8,-3.7,-3.8c-2.1,0,-3.8,1.7,-3.8,3.8c0,2.1,1.7,3.8,3.8,3.8Z" class="g4_17"/>
<path d="M160.5,130.5v.5c2.4,0,4.3,-1.9,4.3,-4.3c0,-2.4,-1.9,-4.3,-4.3,-4.3c-2.4,0,-4.4,1.9,-4.4,4.3c0,2.4,2,4.3,4.4,4.3v-1.1c-1.8,0,-3.2,-1.4,-3.2,-3.2c0,-1.8,1.4,-3.2,3.2,-3.2c1.7,0,3.2,1.4,3.2,3.2c0,1.8,-1.5,3.2,-3.2,3.2Z" class="g2_17"/>
<image clip-path="url(#c1o_17)" preserveAspectRatio="none" x="192" y="104" width="13" height="17" xlink:href="img/61.jpg"/>
<path d="M168,127.7h43.8v-1.6H168Z" class="g2_17"/>
<path d="M263.2,130.5c2.1,0,3.8,-1.7,3.8,-3.8c0,-2.1,-1.7,-3.8,-3.8,-3.8c-2,0,-3.7,1.7,-3.7,3.8c0,2.1,1.7,3.8,3.7,3.8Z" class="g4_17"/>
<path d="M263.2,130.5v.5c2.4,0,4.4,-1.9,4.4,-4.3c0,-2.4,-2,-4.3,-4.4,-4.3c-2.3,0,-4.3,1.9,-4.3,4.3c0,2.4,2,4.3,4.3,4.3v-1.1c-1.7,0,-3.2,-1.4,-3.2,-3.2c0,-1.8,1.5,-3.2,3.2,-3.2c1.8,0,3.2,1.4,3.3,3.2c-.1,1.8,-1.5,3.2,-3.3,3.2Z" class="g2_17"/>
<image clip-path="url(#c1p_17)" preserveAspectRatio="none" x="277" y="105" width="13" height="17" xlink:href="img/62.jpg"/>
<path d="M270.9,127.7h29.9v-1.6H270.9Z" class="g2_17"/>
<path d="M308.5,130.5c2.1,0,3.8,-1.7,3.8,-3.8c0,-2.1,-1.7,-3.8,-3.8,-3.8c-2.1,0,-3.8,1.7,-3.8,3.8c0,2.1,1.7,3.8,3.8,3.8Z" class="g4_17"/>
<path d="M308.5,130.5v.5c2.4,0,4.3,-1.9,4.3,-4.3c0,-2.4,-1.9,-4.3,-4.3,-4.3c-2.4,0,-4.3,1.9,-4.3,4.3c0,2.4,1.9,4.3,4.3,4.3v-1.1c-1.8,0,-3.2,-1.4,-3.2,-3.2c0,-1.8,1.4,-3.2,3.2,-3.2c1.8,0,3.2,1.4,3.2,3.2c0,1.8,-1.4,3.2,-3.2,3.2Z" class="g2_17"/>
<image clip-path="url(#c1q_17)" preserveAspectRatio="none" x="326" y="105" width="12" height="17" xlink:href="img/63.jpg"/>
<path d="M316.6,127.7h61.9v-1.6H316.6Z" class="g2_17"/>
<path d="M385.8,130.5c2.1,0,3.7,-1.7,3.7,-3.8c0,-2.1,-1.6,-3.8,-3.7,-3.8c-2.1,0,-3.8,1.7,-3.8,3.8c0,2.1,1.7,3.8,3.8,3.8Z" class="g4_17"/>
<path d="M385.8,130.5v.5c2.4,0,4.3,-1.9,4.3,-4.3c0,-2.4,-1.9,-4.3,-4.3,-4.3c-2.4,0,-4.3,1.9,-4.3,4.3c0,2.4,1.9,4.3,4.3,4.3v-1.1c-1.8,0,-3.2,-1.4,-3.2,-3.2c0,-1.8,1.4,-3.2,3.2,-3.2c1.8,0,3.2,1.4,3.2,3.2c0,1.8,-1.4,3.2,-3.2,3.2Z" class="g2_17"/>
<path d="M219.7,130.5c2.1,0,3.8,-1.7,3.8,-3.8c0,-2.1,-1.7,-3.8,-3.8,-3.8c-2.1,0,-3.8,1.7,-3.8,3.8c0,2.1,1.7,3.8,3.8,3.8Z" class="g4_17"/>
<path d="M219.7,130.5v.5c2.4,0,4.3,-1.9,4.3,-4.3c0,-2.4,-1.9,-4.3,-4.3,-4.3c-2.4,0,-4.3,1.9,-4.3,4.3c0,2.4,1.9,4.3,4.3,4.3v-1.1c-1.8,0,-3.2,-1.4,-3.2,-3.2c0,-1.8,1.4,-3.2,3.2,-3.2c1.8,0,3.2,1.4,3.2,3.2c0,1.8,-1.4,3.2,-3.2,3.2Z" class="g2_17"/>
<image clip-path="url(#c1r_17)" preserveAspectRatio="none" x="236" y="105" width="13" height="17" xlink:href="img/64.jpg"/>
<path d="M227.1,127.7h28.6v-1.6H227.1Z" class="g2_17"/>
<path clip-path="url(#c1s_17)" d="M853.6,71.6c1.7,-10.2,11.2,-28.6,23.8,-47c-16.5,15.1,-33.9,27,-43.1,30.3c-3.3,1.2,-7.6,2.3,-7.4,6.4c.3,4.4,5.1,9.6,8,12.4c3.6,3.4,8.2,6,12.8,6c4.6,0,5.3,-4.2,5.9,-8.1M820.5,20.9c7.2,1.4,28.2,-4,48.9,-13.7c0,0,-12,3.2,-19.8,2.5c-4.8,-.5,-13.2,-.9,-23,-5.2c-10.2,-4.5,-13,1,-13.1,5.2c0,3.1,-.8,9.7,7,11.2m5.3,30.7c4.2,1.1,25.4,-13.3,46.9,-35.2c0,0,-19.2,8.4,-35.9,10c-9.6,.9,-17.5,-.3,-19.6,3.6c-4.8,9,1.4,19.6,8.6,21.6m54.9,33.3c3.5,-2.6,1.2,-10.3,.7,-19.9c-.8,-16.8,4.8,-37,4.8,-37C867.6,52.5,856.4,75.5,858.1,79.5c3,6.9,14.4,11.5,22.6,5.4m8.5,-4.6c2.6,7.6,9.1,5.8,12.1,5.3c4.1,-.6,9.2,-4.2,3.3,-13.7c-5.7,-9.1,-7.9,-17.2,-8.5,-22c-1,-8.4,-.4,-19.9,-.4,-19.9c-6.6,21.9,-8.9,43.4,-6.5,50.3Z" class="g5_17"/>
<image clip-path="url(#c1t_17)" preserveAspectRatio="none" x="709" y="47" width="51" height="42" xlink:href="img/65.jpg"/>
</svg>