<?xml version="1.0" encoding="UTF-8" standalone="no"?>
<!DOCTYPE svg PUBLIC "-//W3C//DTD SVG 1.1//EN"
"http://www.w3.org/Graphics/SVG/1.1/DTD/svg11.dtd">
<svg viewBox="0 0 1818 1286" version="1.1" xmlns="http://www.w3.org/2000/svg" xmlns:xlink="http://www.w3.org/1999/xlink">
<defs>
<clipPath id="c0_3"><path d="M94.6,391.6c0,0,.1,0,0,0Zm253.5,11.8L94.8,397.6v-4.8c0,0,-1,-.4,-1,-.7c0,-.2,-.1,-.5,.4,-.5c0,0,.1,0,.1,0c.1,0,.2,0,.3,0l-.1,-.5c0,0,-.2,0,-.5,0c-.2,0,-.5,0,-.5,-.2c-.1,-.3,.4,-.2,.6,-.3c.3,-.1,.4,-.7,.2,-1c-.2,-.4,-1.1,-2.6,-.5,-3.4c-.8,-.1,-3.2,-.4,-3.2,-.4l-.2,-2.3l-.7,-.9c0,0,-.2,-.5,.4,-.5c.5,0,.5,-.2,.5,-.2v-1.8h.1c.1,0,.2,0,.4,-.2c.3,-.3,.3,-.7,.3,-.7V378c0,0,-1,-.5,0,-1c-.6,-.7,-1.3,-1.2,0,-3.2c.1,-2.2,0,-2.9,0,-2.9c0,0,-.8,-.4,0,-.7c.1,-.6,0,-1.2,0,-1.2c0,0,-.8,-.7,-1,-.8c-.2,-.2,-.2,-.9,.8,-1.1c1,-.1,1.6,-.1,1.7,-.1l.2,-1.2l.7,-.2c0,0,1,-.6,1.2,-1.2c.1,-.6,-.7,-1.2,-.7,-1.2c0,0,-.4,-.3,-1.2,-.6c-.8,-.4,.2,-.8,.5,-.9c.4,-.1,.7,-.3,.7,-.3c0,0,1,-1.7,1,-2.1c-.2,-.6,-.9,-.7,-.3,-1c.1,-.9,0,-1,0,-1c0,0,-.2,-.5,.2,-.5c0,-.8,-.2,-6,-.2,-6c0,0,-1.2,-2.9,.2,-3.4c.3,-.2,.5,-1,.5,-1l-.2,-1l-.5,-.5c0,0,-.9,-.7,0,-1c.5,-.2,.7,-.4,.7,-.4l.1,-3l-2.2,-1.4l-.1,-.3c0,0,-2.1,-.5,-2.4,-.6c-.4,0,-.2,-.8,-.2,-.8c0,0,-1.1,-1.1,.2,-1.4c1.2,-.3,2.6,-.6,2.9,-1c-.1,-1,0,-1,0,-1c0,0,.7,-.3,1.2,-.7c.4,-.4,1.9,-2.4,2,-3.4q-.7,-.5,-.7,-.5c0,0,1.5,-2.4,2.1,-3.2c.5,-.9,.6,-1.4,.6,-1.4c0,0,-.2,-.1,.5,-.8c.8,-.8,2.7,-2.2,3.1,-2.4c.3,-.1,.3,-.2,.3,-.2l-.1,-.5c0,0,1.8,-1,2.5,-1.2c.1,-.2,-.1,-.7,-.1,-.7l.3,-.5v-3.9l.3,-.3l.4,-.7h.1c.2,0,.6,-.1,1.1,-.5c.6,-.6,1.1,-2.4,.8,-2.7c-.3,-.4,-.7,-1.2,-.7,-1.2c0,0,-2,-.1,-2.2,-2.6c.3,-1.4,1.6,-1.5,2,-1.5c0,0,.1,0,.1,0c0,-.9,0,-1,0,-1c.2,0,.9,-.1,1.2,-.5c.3,-.6,.1,-1.2,.1,-1.2l-1,-.9l1,-1.3l.4,-3.1c0,0,-2.2,-.2,0,-1.4c.5,-.2,.5,-.8,.5,-.8l.8,-.7l.4,-.2l1.2,1.1v.6c0,0,1.7,.6,1.8,.9c.1,.3,.2,.5,-.9,.5c0,0,-.1,0,-.1,0c-.1,.8,0,3.2,0,3.2l.7,1.1c0,0,.3,-.3,.4,-.3q.1,0,-.1,.3c-.4,.6,-.7,.8,-.7,.8l-.1,.5c0,0,-.1,.8,0,1c.1,.2,1,.5,1,.5v.9c0,0,2.4,.6,2.2,2.2c-.1,1.3,-.7,1.8,-1.6,1.8c-.2,0,-.4,0,-.6,-.1c0,.6,0,.7,0,.7c0,0,-.2,.7,-.5,1.2c-.3,.4,-.1,2.1,1.2,2.9c.7,.4,.8,1,.8,1l.9,.2l.1,4.4l.2,.7l1.9,1.3c-.2,.6,0,.7,0,.7l3.7,3.4q-.3,.3,-.3,.3l.2,.7l2.2,3.8l.1,.3l-.6,.3l.5,1.2l.5,.5V325l.1,-11.6l.6,-18.5l.3,-6.8c0,0,-1.1,-.7,-.5,-.9c.2,-.6,-.2,-1.5,-.2,-1.5l-.7,-1l.9,-.5c-.2,-.5,-.9,-1,-.9,-1l-.5,-.5l-.3,-.7c0,0,-2.6,-1.5,-.5,-3.1c-.5,-.7,-.4,-.7,-.4,-.7l2.4,.2V277l-.5,-.6v-1.7l-.8,-1.2c-.5,-.5,.8,-.5,.8,-.5c0,0,-.1,-.3,-.5,-.7c-.4,-.4,-.7,-1.4,-.7,-1.4l-.2,-.7l-1.5,-.3l-1.2,-.5l.5,-4.8l-1.8,-1.8l-.4,-1.2c0,0,-.9,-1.3,-1,-1.6c-.1,-.2,-1.2,-1.7,-1.2,-1.7l.7,-.3v-1.5h.3l.2,-8.2l-.7,-.8h.5l.2,-1.1l-1.2,-1.5c0,0,-.1,-.3,.5,-.3q.1,0,.1,0c.6,0,.8,-.2,.8,-.2V243c0,0,1.8,-1.3,2.2,-2.3c.4,-1.1,-.2,-1.7,-.2,-1.7c0,0,-2.6,-1.8,-.7,-3.3c.8,-.1,.9,-.8,.9,-.8l.3,-1.7c0,0,-.9,-.6,-.1,-1c.2,-.6,.1,-1.6,.1,-1.6c0,0,.2,-.1,.4,-.1c.2,0,.3,0,.3,.3c.1,.7,.2,1.5,.2,1.5c0,0,1,.4,.7,.5c-.3,.2,-.6,.2,-.7,.4c-.1,.2,.1,2.2,.1,2.2c0,0,.9,.5,1.4,.7c.6,.1,1.1,2.3,-.5,2.7c-.5,.7,-.9,1.9,-.7,2.4c.2,.4,.9,1.2,.9,1.2l1,-.7l.5,-.2l.5,-1c0,0,.8,-.8,.3,-1.2c-.4,-.4,-.6,-.5,-.6,-.5l.5,-.7c0,0,.1,-1.6,.3,-1.7c.3,0,.5,1.5,.5,1.5l.5,1.1l-.5,.3l.2,1.4l.2,.8h.1c.4,0,1.2,0,1.4,-.2c.3,-.2,1.7,-1.1,1.7,-1.1l.8,-1.1c0,0,0,-.8,-.6,-1.2c-.7,-.4,-1.1,-.6,-1.1,-.6c0,0,-.2,-.3,.2,-.4c.4,-.1,1.2,-.5,1.2,-.5v-1.7c0,0,1.3,-1.2,1.7,-1.3c.4,-.2,.7,-.7,.7,-.7l.2,-1.4l.1,-.3l-.7,-1c0,0,-2.9,-.6,-1.7,-1.9c1.3,-1.3,1.6,-1,1.9,-1.2c.3,-.2,.7,-1,.7,-1c0,0,-.4,-1.6,-.3,-1.9c0,-.2,-.1,-.2,-.2,-.2c-.1,0,-.2,0,-.2,0l.7,-.5l-.2,-2c0,0,.1,-.7,.2,-1c.1,-.4,.9,-3.1,.8,-3.4c0,-.4,-.5,-1.5,-.3,-1.9c.2,-.4,.9,-2.4,.9,-2.4l.6,-1.9v-1.1l.9,-1.4l-.2,-1l.7,-1.2v-1.2l.9,-1.4c0,0,1,-3.1,1.1,-3.9c.1,-1.2,-.2,-2.7,1.9,-3.9c.7,-1.8,2.4,-4.4,2.4,-4.4l1.5,-3.1l.7,-1.2c0,0,.6,-1.7,1.4,-2.7c.7,-1,1.7,-2.4,1.7,-2.4c0,0,1.7,-2.3,2,-2.7c.3,-.4,1.9,-3,2.5,-3.5c.7,-.6,2.5,-2.9,3.1,-3.4c.6,-.6,2.2,-1.9,2.2,-1.9c0,0,.7,-1.2,1.9,-2.1c1.2,-.9,2,-2,2.4,-2.3c.4,-.4,.9,-.7,1.3,-1.1c.5,-.3,1.5,-1.8,2.9,-2.5c1.5,-1.4,3.2,-2.8,3.8,-3.1c.5,-.2,1.8,-1.3,3,-2c1.3,-.7,4.6,-2.9,6.3,-3.4c2.1,-1.1,3.2,-1.7,3.7,-1.9c.6,-.2,3.2,-1.5,3.4,-1.7c2.5,-1.3,6.3,-2.8,6.7,-3c.3,-.2,1.7,-.5,2.2,-.7c.5,-.2,2.4,-.6,2.9,-.9c.5,-.2,2.5,-.8,2.5,-.8l.9,-.9c0,0,-.5,-1,-.5,-1.3c0,-.4,-.4,-1.8,.1,-2.6c.6,-.7,1.4,-2.2,1.6,-2.5c.1,-.3,.2,-1.2,0,-1.4c-.3,-.2,.8,-1.2,.8,-1.5c-.1,-.7,-.6,-5.1,-.5,-7c.1,-1.9,1.7,-4,2.9,-4.2c.8,-.2,1.2,-.2,1.4,-.2q.1,0,.1,0l.2,-2.2l1,-.5c0,0,.8,-3,.9,-3.6c0,-.6,-.5,-19.4,-.5,-19.4c0,0,-.9,-.8,-.6,-1.2c.4,-.4,-.1,-1.5,-.1,-1.5c0,0,-1.7,-1.8,-1.9,-2.2c-.2,-.4,-.3,-1.4,-.3,-1.4c0,0,-1.5,-2.6,-1.6,-3c0,-.4,.5,-1.2,.5,-1.2c0,0,.5,-.4,1.1,-.9c.6,-.4,2.3,-1.8,2.3,-1.8c0,0,.9,-3.6,1.2,-4.6c.4,-1,3,-6.3,5,-8.4c1.9,-2,5.5,-5.1,6.1,-5.4c0,-2.5,.2,-5,.2,-5.4c0,-.5,1.5,-1.5,2.3,-1.9c.8,-.4,1.6,-1.5,1.7,-1.9c.2,-.3,-.5,-2.5,-.5,-2.5c0,0,-3.3,-2.5,-3.4,-5.8c1.1,-.6,2.1,-1.2,2.1,-1.2c0,0,1.7,-1.5,1.8,-1.9c.2,-.3,1.5,-3,1.6,-3.4c0,-.3,.4,-2,.1,-2.3c-.3,-.4,-1.1,-1.6,-1.2,-1.9c0,-.3,0,-.8,.6,-1c.5,-.2,1.2,-.2,1.5,-.5c.3,-.3,-.2,-.7,.2,-.7c0,0,.1,0,.1,0c.7,.1,1.2,.3,1.2,.3l.4,.5l1.8,1.2c0,0,.3,.5,-.7,1.9c-.4,2.4,.2,6.4,.6,6.8c.4,.4,2.2,2.2,2.2,2.2c1.5,.6,1.9,1.2,2,1.4c.1,.1,.3,1.7,0,2.2c-.3,.4,-.8,1.5,-2,2.2c-1.2,.6,-1.7,.7,-1.7,.7c0,0,.2,3.3,.3,3.5c.1,.2,4,3.1,3.9,4.3c0,1.2,-.2,5.1,-.2,5.1c0,0,2.9,2.8,4,3.4c1.1,.6,5.5,6.8,6.1,8.3c.6,1.5,1.9,7.1,2.5,7.8c.9,.7,2.6,1.9,2.6,1.9c0,0,1.2,.5,1.2,1c-.1,.5,-.4,1.2,-.4,1.2c0,0,-.2,1.6,-.3,1.9c-.2,.2,-.5,1.3,-.7,1.7c-.2,.3,-2.9,2.7,-2.9,2.7v.7l.9,1.3l-.7,.5c0,0,-.4,20.3,-.4,20.8c.3,.7,.7,1.8,1.1,1.9c.3,.1,.5,.1,.5,.1l.3,2.4c0,0,1.1,.1,1.5,.3c.5,.2,2.3,2.4,2.4,3.8c.2,1.4,.3,3.8,.2,4.6c-.1,.7,.2,2.6,-.5,3.5c.2,.9,1,2.4,1.2,2.6c.2,.2,2.7,2.3,2.4,3.6c-.4,1.3,-.4,2.5,-.4,2.5l-.5,1.2c0,0,6.1,2.2,7.5,2.7c1.4,.5,4.2,2.2,9.3,5.1c5.2,3,6.5,3.9,7,4.3c.5,.4,2.2,1.7,2.2,1.7c0,0,2.6,2,3.1,2.5c.4,.6,3.3,2.5,3.9,2.9c.6,.4,7.3,7.1,8,7.8c.7,.8,5.3,5.9,5.9,6.7c.6,.7,3.6,4.2,5.5,6.9c1.8,2.7,3.4,5.2,3.5,5.5c.2,.3,2.8,4.6,2.9,5.2c.2,.7,1.9,4.6,2.2,5.5c.4,.8,1.5,4.5,1.7,4.9c.3,.5,1.2,3.8,1.2,4.4c.1,.7,1.3,4.6,1.2,5.3c0,.7,1.1,2.8,1,3.4c0,.6,.5,3.1,.5,3.9c.1,.8,.4,4.4,.4,4.4v1.9c0,0,.1,6.3,.3,6.8c.3,.5,1.4,2.9,1.4,2.9c0,0,.5,1.3,.7,1.7c.1,.4,-.5,2.2,-.5,2.2c1.6,.9,4.4,3.1,4.4,3.1c0,0,.9,-1.7,1.2,-1.9c.2,-.2,.6,-.5,.6,-.5l.2,-1.9l-.5,-.3c0,0,.8,-.3,.7,-.7c-.1,-.4,0,-1.5,0,-1.5h1c0,0,.2,-.3,.5,-.5c.3,-.2,.8,-.9,.7,-1.4c-.1,-.5,-.3,-1.4,-.3,-1.4l.1,-.5l.2,-1.7c0,0,.9,.1,.8,.4c0,.4,-.1,1,-.1,1l.3,.5c0,0,.6,.3,.2,.5c-.4,.2,-.4,.9,-.4,.9c0,0,.3,1.6,.7,1.8c.4,.2,1.8,.8,.7,2.9c-1,1,-1.2,1.9,-1.2,1.9l.4,1.3l1.5,.7l.3,2.1l1,.5l-.5,1.5l-.8,.7l.3,.3c0,0,.7,0,-.1,1.2c0,.8,.1,7.8,.1,7.8l.4,1.4l.1,.3h.5l-1.8,3.4l-.5,.9c0,0,-.9,1.8,-1.2,2.2c-.3,.4,-.2,1.5,-.2,1.5c0,0,.6,1.5,.5,1.7c-.1,.3,-.7,1.4,-1.5,1.4c.1,.5,-.4,2.1,-1.4,2.4c.3,.6,-.6,1.8,-1,2.2c-.2,1.1,-.3,1.5,-.3,1.5l-.4,1.4l2.2,.1c0,0,0,1.2,0,1.9c.4,.7,-.6,1.7,-.6,1.7c0,0,.3,.6,0,.9c-.4,.2,-.9,.8,-.9,.8c0,0,.6,.4,.3,1c-.2,.6,-.6,2.1,-.6,2.1c0,0,.6,.6,-.2,1c-.1,1,.5,25.1,.5,25.1c0,0,1.1,-.3,.7,-1.1c-.4,-.9,-.2,-1.3,.2,-2.1c.4,-1.8,.6,-3,.6,-3l-.8,-.4c0,0,1.1,-.6,1.3,-1c.3,-.4,.6,-1.2,.6,-1.2l1.5,1.4l1.2,1l-1,.2l.1,2.5c0,0,1,1.4,.7,1.7c-.3,.3,-.7,1.2,-.7,1.2l1.2,1.5c0,0,2.2,1.5,1.9,2.1c-.2,.5,-.9,1.6,-1.7,1.6c-.1,0,-.2,0,-.4,-.1c-.7,1.8,-.5,2.2,-.5,2.2c0,0,1.4,2.5,1.6,2.7c1,.4,1,3.8,1,3.8l.2,.5v.5l2,1.3l3.1,3.3v.5l2,3.4l-.3,.7c0,0,.1,1.4,1.3,2.5c1.2,1.2,1.1,1.6,.9,1.9c.9,.8,1.2,.8,1.2,.8c0,0,2.4,.5,2,.9c-.4,.4,-.7,.7,-.7,.7c0,0,.4,.6,0,.6c-.4,.1,-1.7,.2,-1.7,.2l-1.2,1.2v3.1c0,0,1.3,.6,.2,1.7c0,1,.2,10,.2,10l-.2,2.9c0,0,.5,-.3,.5,-.5c0,-.3,.3,-1,.3,-1c0,0,-.7,-.7,-.3,-.9c.5,-.2,-.3,-1.2,.2,-1.2c.4,0,.5,.7,.5,.7l.3,.7l-.1,.5v1.3c0,0,.2,.5,.6,.9c.4,.3,1.5,1.4,.9,1.5c-.6,.1,-1.2,.2,-1.2,.2l.3,1.7c0,0,1.2,.6,1.2,2c.8,.5,-.1,2.1,-.1,2.1l.1,4.2l.2,2.6l-.2,1.8l.4,2.1v1.2l-.2,1.2l-.2,1.2l-2.4,.1c0,0,.8,.9,.4,2.4c-.2,1.6,-.2,2.2,-.2,2.2l.2,.4v.5l-.7,.6l.5,7.4Z"/></clipPath>
<clipPath id="c1_3"><path d="M0,615V0H909.4V615Z"/></clipPath>
<clipPath id="c2_3"><path d="M909.4,615V0h909.5V615Z"/></clipPath>
<clipPath id="c3_3"><path d="M1575.1,813.1V798.5h17.5v14.6Z"/></clipPath>
<style type="text/css"><![CDATA[
.g0_3{
fill: #252123;
}
.g1_3{
fill: #D8D8D8;
}
.g2_3{
fill: #E9E9E9;
}
.g3_3{
fill: none;
stroke: #00A1D6;
stroke-width: 1.045;
stroke-linecap: round;
stroke-linejoin: round;
}
.g4_3{
fill: #009BCE;
}
.g5_3{
fill: none;
stroke: #009BCE;
stroke-width: 1.069;
stroke-miterlimit: 10;
}
.g6_3{
fill: none;
stroke: #009BCE;
stroke-width: 1.122;
stroke-linecap: round;
stroke-linejoin: round;
}
.g7_3{
fill: none;
stroke: #FFF;
stroke-width: 1.527;
stroke-miterlimit: 10;
}
.g8_3{
fill: #FFF;
}
.g9_3{
fill: none;
stroke: #FFF;
stroke-width: 0.641;
stroke-miterlimit: 10;
}
]]></style>
</defs>
<path d="M1295.4,1286.2h523.5V0H1295.4V1286.2Z" class="g0_3"/>
<path d="M0,615H885.6V0H0V615Z" class="g1_3"/>
<image clip-path="url(#c0_3)" preserveAspectRatio="none" x="89" y="35" width="262" height="369" xlink:href="img/1.jpg"/>
<path d="M0,615H909.4V0H0V615Z" class="g1_3"/>
<image clip-path="url(#c1_3)" preserveAspectRatio="none" x="0" y="0" width="909" height="615" xlink:href="img/2.jpg"/>
<path d="M225.2,347.2H909.4V54.1H225.2V347.2Z" class="g0_3"/>
<image clip-path="url(#c0_3)" preserveAspectRatio="none" x="88" y="35" width="264" height="369" xlink:href="img/3.jpg"/>
<image clip-path="url(#c2_3)" preserveAspectRatio="none" x="909" y="0" width="910" height="615" xlink:href="img/4.jpg"/>
<path d="M534.1,804.9c14.1,0,25.6,-11.5,25.6,-25.6c0,-14.2,-11.5,-25.7,-25.6,-25.7c-14.2,0,-25.7,11.5,-25.7,25.7c0,14.1,11.5,25.6,25.7,25.6Z" class="g2_3"/>
<path d="M534.1,946.7c14.1,0,25.6,-11.5,25.6,-25.7c0,-14.1,-11.5,-25.6,-25.6,-25.6c-14.2,0,-25.7,11.5,-25.7,25.6c0,14.2,11.5,25.7,25.7,25.7Z" class="g2_3"/>
<path d="M534.1,1039.4c14.1,0,25.6,-11.5,25.6,-25.7c0,-14.1,-11.5,-25.6,-25.6,-25.6c-14.2,0,-25.7,11.5,-25.7,25.6c0,14.2,11.5,25.7,25.7,25.7Z" class="g2_3"/>
<path d="M534.1,1115.8c14.1,0,25.6,-11.5,25.6,-25.6c0,-14.2,-11.5,-25.7,-25.6,-25.7c-14.2,0,-25.7,11.5,-25.7,25.7c0,14.1,11.5,25.6,25.7,25.6Z" class="g2_3"/>
<path d="M94.5,798.4c14.2,0,25.7,-11.5,25.7,-25.7c0,-14.1,-11.5,-25.6,-25.7,-25.6c-14.2,0,-25.6,11.5,-25.6,25.6c0,14.2,11.4,25.7,25.6,25.7Z" class="g2_3"/>
<path d="M94.5,885c14.2,0,25.7,-11.5,25.7,-25.7c0,-14.1,-11.5,-25.6,-25.7,-25.6c-14.2,0,-25.6,11.5,-25.6,25.6c0,14.2,11.4,25.7,25.6,25.7Z" class="g2_3"/>
<path d="M94.5,980.7c14.2,0,25.7,-11.5,25.7,-25.7c0,-14.1,-11.5,-25.6,-25.7,-25.6c-14.2,0,-25.6,11.5,-25.6,25.6c0,14.2,11.4,25.7,25.6,25.7Z" class="g2_3"/>
<path d="M94.5,1104.8c14.2,0,25.7,-11.5,25.7,-25.7c0,-14.2,-11.5,-25.7,-25.7,-25.7c-14.2,0,-25.6,11.5,-25.6,25.7c0,14.2,11.4,25.7,25.6,25.7Z" class="g2_3"/>
<path d="M94.5,1176.9c14.2,0,25.7,-11.5,25.7,-25.7c0,-14.2,-11.5,-25.6,-25.7,-25.6c-14.2,0,-25.6,11.4,-25.6,25.6c0,14.2,11.4,25.7,25.6,25.7Z" class="g2_3"/>
<path d="M94.5,690.1c14.2,0,25.7,-11.5,25.7,-25.6c0,-14.2,-11.5,-25.7,-25.7,-25.7c-14.2,0,-25.6,11.5,-25.6,25.7c0,14.1,11.4,25.6,25.6,25.6Z" class="g2_3"/>
<path d="M89.1,667.3H84.8v-4.4h4.3v4.4Zm7.6,0H92.3v-4.4h4.4v4.4Zm7.6,0H99.9v-4.4h4.4v4.4Zm-15.2,7H84.8V670h4.3v4.3Zm7.6,0H92.3V670h4.4v4.3Zm7.6,0H99.9V670h4.4v4.3ZM107.1,657v3.3H82V657c0,-1.3,1,-2.3,2.3,-2.3h2.8v2.1c0,.4,.3,.7,.7,.7h1.7c.4,0,.7,-.3,.7,-.7v-2.1H93v2.1c0,.4,.3,.7,.7,.7h1.6c.4,0,.7,-.3,.7,-.7v-2.1h2.8v2.1c0,.4,.3,.7,.7,.7h1.7c.4,0,.7,-.3,.7,-.7v-2.1h2.8c1.3,0,2.4,1,2.4,2.3Zm0,3.3H82v14.3c0,1.3,1,2.4,2.3,2.4h20.4c1.3,0,2.4,-1.1,2.4,-2.4V660.3ZM90.2,652.6v4.2c0,.4,-.3,.7,-.7,.7H87.8c-.4,0,-.7,-.3,-.7,-.7v-4.2c0,-.4,.3,-.7,.7,-.7h1.7c.4,0,.7,.3,.7,.7Zm11.7,0v4.2c0,.4,-.3,.7,-.7,.7H99.5c-.4,0,-.7,-.3,-.7,-.7v-4.2c0,-.4,.3,-.7,.7,-.7h1.7c.4,0,.7,.3,.7,.7Zm-5.9,0v4.2c0,.4,-.3,.7,-.7,.7H93.7c-.4,0,-.7,-.3,-.7,-.7v-4.2c0,-.4,.3,-.7,.7,-.7h1.6c.4,0,.7,.3,.7,.7Z" class="g3_3"/>
<path d="M539.2,792.6c-.9,0,-1.6,-.7,-1.6,-1.6v-1h-7v1c0,.9,-.7,1.6,-1.6,1.6h-2.7c-.9,0,-1.6,-.7,-1.6,-1.6v-1.1c-.7,-.2,-1.1,-.8,-1.1,-1.5V773h-1.2c-.4,0,-.7,.3,-.7,.7v3.4h-1.2v-3.4c0,-1,.9,-1.9,1.9,-1.9h1.2v-3.6c0,-1.2,1,-2.2,2.2,-2.2h16.5c1.3,0,2.3,1,2.3,2.2v3.6h1.2c1,0,1.8,.9,1.8,1.9v3.4h-1.1v-3.4c0,-.4,-.3,-.7,-.7,-.7h-1.2v15.4c0,.7,-.5,1.3,-1.1,1.5l-.1,.1v1c0,.9,-.7,1.6,-1.5,1.6Zm-.5,-1.6c0,.2,.2,.4,.5,.4h2.7c.2,0,.4,-.2,.4,-.4v-1h-3.6Zm-12.9,0c0,.2,.2,.4,.5,.4H529c.2,0,.5,-.2,.5,-.4v-1h-3.7Zm-1.1,-2.6c0,.3,.2,.5,.4,.5H543c.3,0,.5,-.2,.5,-.5v-6.6H524.7Zm9.9,-7.7h8.9v-9.6h-8.9v9.6Zm-9.9,0h8.8v-9.6h-8.8v9.6Zm1.1,-13.6c-.6,0,-1.1,.5,-1.1,1.1V770h18.8v-1.8c0,-.6,-.5,-1.1,-1.2,-1.1Z" class="g4_3"/>
<path d="M528.3,787.3c-1.2,0,-2.1,-1,-2.1,-2.2c0,-1.1,.9,-2.1,2.1,-2.1c1.2,0,2.1,1,2.1,2.1c0,1.2,-.9,2.2,-2.1,2.2m0,-3.2c-.6,0,-1,.5,-1,1c0,.6,.4,1.1,1,1.1c.6,0,1,-.5,1,-1.1c0,-.5,-.4,-1,-1,-1Z" class="g4_3"/>
<path d="M539.9,787.3c-1.2,0,-2.2,-1,-2.2,-2.2c0,-1.1,1,-2.1,2.2,-2.1c1.1,0,2.1,1,2.1,2.1c0,1.2,-1,2.2,-2.1,2.2m0,-3.2c-.6,0,-1.1,.5,-1.1,1c0,.6,.5,1.1,1.1,1.1c.5,0,1,-.5,1,-1.1c0,-.5,-.5,-1,-1,-1Z" class="g4_3"/>
<path d="M114.5,855.4H77.3c-.7,0,-1.2,.5,-1.2,1.2v12.2c0,.6,.5,1.2,1.2,1.2H89.9c2.1,0,4.1,.8,5.6,2.4l.4,.4l.4,-.4c1.4,-1.6,3.4,-2.4,5.5,-2.4h12.7c.6,0,1.1,-.6,1.1,-1.2V856.6c0,-.7,-.5,-1.2,-1.1,-1.2m0,13.4H101.8c-2.2,0,-4.3,.9,-5.9,2.4c-1.6,-1.5,-3.7,-2.4,-6,-2.4H77.3V856.5l37.2,.1Z" class="g4_3"/>
<path d="M79.9,866.4c.1,0,.3,.1,.4,.1c.2,0,.3,-.1,.4,-.1c.1,-.1,.2,-.2,.2,-.3v-3.2h2.6v3.2c0,.1,0,.2,.2,.3c.1,0,.2,.1,.3,.1c.2,0,.3,-.1,.4,-.1c.1,-.1,.2,-.2,.2,-.3v-7c0,-.1,-.1,-.2,-.2,-.2c-.1,-.1,-.2,-.1,-.4,-.1c-.1,0,-.2,0,-.3,.1c-.2,0,-.2,.1,-.2,.2V862H80.9v-2.9c0,-.1,-.1,-.2,-.2,-.2c-.1,-.1,-.2,-.1,-.4,-.1c-.1,0,-.3,0,-.4,.1c-.1,0,-.1,.1,-.1,.2v7c0,.1,0,.2,.1,.3Z" class="g4_3"/>
<path d="M86.6,866c.2,.2,.4,.3,.7,.4c.3,.1,.6,.1,1,.1c.3,0,.6,0,.9,-.1c.3,-.1,.5,-.2,.7,-.4c.3,-.2,.4,-.4,.5,-.7c.2,-.3,.2,-.7,.2,-1.1v-3.1c0,-.4,0,-.8,-.2,-1.1c-.1,-.3,-.2,-.5,-.5,-.7c-.2,-.2,-.4,-.3,-.7,-.4c-.3,-.1,-.6,-.1,-.9,-.1c-.4,0,-.7,0,-1,.1c-.3,.1,-.5,.2,-.7,.4c-.2,.2,-.4,.4,-.5,.7c-.1,.3,-.2,.7,-.2,1.1v3.1c0,.4,.1,.8,.2,1.1c.1,.3,.3,.5,.5,.7m.4,-4.9c0,-.4,.1,-.8,.3,-1c.3,-.2,.6,-.3,1,-.3c.4,0,.7,.1,.9,.3c.2,.2,.3,.6,.3,1v3.1c0,.5,-.1,.8,-.3,1c-.2,.2,-.5,.3,-.9,.3c-.4,0,-.7,-.1,-1,-.3c-.2,-.2,-.3,-.5,-.3,-1Z" class="g4_3"/>
<path d="M92.2,866.1c.2,.1,.4,.3,.7,.3c.3,.1,.6,.2,1,.2c.3,0,.6,-.1,.9,-.2c.3,-.1,.6,-.2,.8,-.4c.2,-.2,.4,-.4,.5,-.7c.1,-.3,.2,-.6,.2,-1c0,-.4,-.1,-.8,-.3,-1.1c-.2,-.3,-.4,-.5,-.6,-.7c-.3,-.2,-.5,-.4,-.8,-.5c-.3,-.1,-.6,-.2,-.9,-.3c-.2,-.1,-.4,-.3,-.6,-.4c-.2,-.2,-.3,-.4,-.3,-.6c0,-.4,.2,-.6,.4,-.8c.3,-.1,.6,-.2,1,-.2c.2,0,.4,0,.5,.1c.2,0,.3,.1,.4,.1c.1,.1,.2,.1,.3,.1q.1,.1,.2,.1c.1,0,.2,0,.2,-.1q.1,0,.2,-.1q0,-.1,0,-.2q.1,-.1,.1,-.2c0,-.1,-.1,-.3,-.2,-.4c-.2,0,-.3,-.1,-.5,-.2c-.2,0,-.4,-.1,-.7,-.1c-.2,0,-.4,0,-.5,0c-.3,0,-.6,0,-.9,0c-.3,.1,-.5,.2,-.8,.4c-.2,.1,-.4,.3,-.5,.6c-.2,.3,-.3,.6,-.3,1c0,.4,.1,.7,.3,1c.2,.3,.4,.5,.6,.6c.3,.2,.5,.3,.8,.4c.3,.2,.6,.3,.9,.4c.2,.1,.4,.3,.6,.5c.2,.2,.2,.4,.2,.7c0,.4,-.1,.7,-.3,.9c-.3,.2,-.6,.2,-1,.2c-.3,0,-.5,0,-.7,-.1c-.2,-.1,-.3,-.2,-.5,-.3c-.1,-.1,-.2,-.2,-.3,-.3c-.1,0,-.2,-.1,-.3,-.1c0,0,-.1,0,-.2,.1c0,0,-.1,.1,-.1,.1q-.1,.1,-.1,.2c0,.1,-.1,.1,-.1,.2c0,.1,.1,.3,.2,.4c.1,.2,.3,.3,.5,.4Z" class="g4_3"/>
<path d="M97.1,859.8h1.7v6.3c0,.1,0,.2,.1,.3c.2,0,.3,.1,.4,.1c.2,0,.3,-.1,.4,-.1c.1,-.1,.2,-.2,.2,-.3v-6.3h1.6c.1,0,.2,0,.3,-.2c0,-.1,.1,-.2,.1,-.3c0,-.1,-.1,-.3,-.1,-.4c-.1,-.1,-.2,-.1,-.3,-.1H97.1c-.1,0,-.2,0,-.2,.1c-.1,.2,-.1,.3,-.1,.4c0,.1,0,.3,.1,.4c0,.1,.1,.1,.2,.1Z" class="g4_3"/>
<path d="M102.9,866.4c.1,0,.2,.1,.3,.1h3.7c.2,0,.3,-.1,.3,-.2c.1,-.1,.1,-.2,.1,-.3c0,-.2,0,-.3,-.1,-.4q-.1,-.1,-.3,-.1h-3.1v-2.4h1.6c.2,0,.3,-.1,.3,-.2c.1,-.1,.1,-.2,.1,-.3c0,-.1,0,-.2,-.1,-.3q-.1,-.1,-.3,-.1h-1.6v-2.4h3.1c.2,0,.2,-.1,.3,-.2c.1,-.1,.1,-.2,.1,-.3c0,-.1,0,-.3,-.1,-.4c0,-.1,-.1,-.1,-.3,-.1h-3.7c-.1,0,-.2,0,-.3,.1c-.1,0,-.2,.1,-.2,.3v6.9c0,.1,.1,.2,.2,.3Z" class="g4_3"/>
<path d="M108.4,866.4c.1,0,.2,.1,.3,.1H112c.2,0,.2,-.1,.3,-.2c.1,-.1,.1,-.2,.1,-.3c0,-.2,0,-.3,-.1,-.4q-.1,-.1,-.3,-.1h-2.7v-6.4c0,-.1,0,-.2,-.2,-.2c-.1,-.1,-.2,-.1,-.3,-.1c-.2,0,-.3,0,-.4,.1c-.1,0,-.2,.1,-.2,.2v7c0,.1,0,.2,.2,.3Z" class="g4_3"/>
<path d="M83,854.5h1v-5.8H83v5.8Z" class="g4_3"/>
<path d="M107.8,854.5h1v-5.8h-1v5.8Z" class="g4_3"/>
<path d="M79.8,846.3h32.1" class="g5_3"/>
<path d="M97.3,973.6H92.6V936.5h4.7v37.1Zm-3.5,-1.1h2.4V937.6H93.8v34.9Zm0,-23.9H81.9l-5,-3.8l5,-3.8H93.8ZM82.3,947.4H92.6v-5.3H82.3l-3.5,2.7Zm25.8,8.8H96.2v-7.5h11.9l4.9,3.8ZM97.3,955.1h10.4l3.5,-2.6l-3.5,-2.7H97.3Zm-3.5,7.6H81l-5,-3.8l5,-3.8H93.8ZM81.3,961.6H92.6v-5.4H81.3l-3.5,2.7Z" class="g4_3"/>
<path d="M94.5,1096.2c-.1,0,-.2,0,-.3,-.1l-7,-4c-3.4,-2,-5.4,-5.8,-5.2,-9.9l.4,-14c0,-.4,.3,-.6,.7,-.6h5.5l5.6,-3.4c.2,-.2,.4,-.2,.6,0l5.6,3.4H106c.3,0,.6,.2,.6,.6l.5,14c.1,4.1,-1.9,7.9,-5.3,9.9l-7,4c-.1,.1,-.2,.1,-.3,.1M83.7,1068.9l-.5,13.4c-.1,3.6,1.7,6.9,4.7,8.6l6.6,3.9l6.6,-3.9c3,-1.7,4.8,-5,4.7,-8.6l-.4,-13.4h-5.2c-.1,0,-.2,-.1,-.3,-.1l-5.4,-3.3l-5.4,3.3c-.1,0,-.2,.1,-.3,.1Z" class="g4_3"/>
<path d="M94.5,1092.7c-.1,0,-.2,0,-.3,-.1l-5.4,-3.1c-2.5,-1.5,-3.9,-4.2,-3.8,-7.2l.3,-11.1c0,-.3,.3,-.6,.7,-.6h3.6l4.6,-2.7c.2,-.1,.4,-.1,.6,0l4.6,2.7h3.7c.3,0,.6,.3,.6,.6l.4,11.1c.1,3,-1.4,5.7,-3.8,7.2l-5.5,3.1c-.1,.1,-.2,.1,-.3,.1m-7.9,-20.8l-.4,10.5c0,2.5,1.2,4.8,3.2,5.9l5.1,3l5.1,-3c2.1,-1.1,3.3,-3.4,3.2,-5.9l-.4,-10.5H99.2c-.1,0,-.2,-.1,-.3,-.1l-4.4,-2.6l-4.4,2.6c-.1,0,-.2,.1,-.3,.1Z" class="g4_3"/>
<path d="M94.8,1081.8c-.1,.1,-.3,.2,-.5,.2c-.2,0,-.3,-.1,-.5,-.2l-2.6,-2.6c-.3,-.2,-.3,-.6,0,-.9c.2,-.2,.6,-.2,.9,0l2.2,2.1l3.2,-3.5c.2,-.3,.6,-.3,.9,0c.2,.2,.2,.6,0,.9Z" class="g4_3"/>
<path d="M94.2,1136.6L91,1148.2l-11.4,-.4l9.5,6.7l-4,11.3l9.1,-7.4l9,7.4l-4,-11.3l9.6,-6.7l-11.5,.4l-3.1,-11.6Z" class="g6_3"/>
<path d="M534.1,690.1c14.1,0,25.6,-11.5,25.6,-25.6c0,-14.2,-11.5,-25.7,-25.6,-25.7c-14.2,0,-25.7,11.5,-25.7,25.7c0,14.1,11.5,25.6,25.7,25.6Z" class="g2_3"/>
<path d="M520.6,660.3c.1,-.9,.2,-1.8,.4,-2.7c0,-.4,.8,-.4,.7,0c-.1,1,-.3,2,-.4,2.9c-.1,.5,-.8,.3,-.7,-.2m.9,-3.7c.5,0,.5,-.7,0,-.7c-.4,0,-.4,.7,0,.7m11.4,24.9c-.2,1,-2.3,1.3,-3,1.5c-1.8,.3,-3.7,.4,-5.6,.3c-1.1,-.1,-5.8,-.1,-6,-1.8c-.3,-2.1,5.1,-2.1,6.3,-2.1c0,-2.2,0,-4.4,0,-6.6q0,-.1,0,-.1c-2.8,-.5,-5.1,-2.4,-5.8,-5.2c-1.1,-4.1,.5,-8.7,1.3,-12.7c.1,-.1,.1,-.2,.2,-.2c.1,0,.1,-.1,.1,-.1q.1,0,.1,0c3.4,.2,6.9,.2,10.3,0c.2,0,.3,.1,.4,.3c2,5.7,4,17.2,-4.5,18c0,2.1,0,4.3,0,6.5c1.3,0,6.8,.1,6.2,2.2m-13.6,-18c1.7,-.5,3.4,-.7,5.2,-.3c2.8,.5,4.9,.8,7.5,-.5q.1,0,.2,0c-.2,-2.7,-1,-5.5,-1.7,-7.5c-3.2,.2,-6.5,.2,-9.7,.1c-.6,2.7,-1.3,5.4,-1.5,8.2m6.8,8.6c5,-.2,6.3,-4.3,6.1,-8.7c-1.8,.8,-3.5,1.3,-5.5,1c-1.1,-.2,-2.3,-.6,-3.4,-.7c-1.4,-.1,-2.8,.2,-4.1,.6c0,.4,0,.7,0,1.1c.2,3.9,2.9,6.9,6.9,6.7m5.6,8.8c-.2,-.3,-1.1,-.4,-1.4,-.5c-1.2,-.3,-2.4,-.3,-3.6,-.4c0,.3,0,.6,0,.9c-.1,.5,-.8,.5,-.8,0c.1,-2.7,.1,-5.4,0,-8.1c-.2,0,-.4,0,-.6,0c0,2.7,0,5.4,0,8.1c0,.5,-.8,.5,-.8,0c0,-.3,0,-.5,.1,-.8c-1.3,0,-2.5,.1,-3.7,.3c-.7,.2,-2.4,.7,-1.2,1.5c1.2,.6,3.3,.6,4.6,.7c2.1,.1,4.4,.1,6.4,-.5c.4,-.2,1.6,-.4,1,-1.2m18,-.4c-.5,3.3,-5.3,2.5,-7.7,2.5c-2.7,.1,-6,.3,-6.1,-3.3c-.2,-4.7,-.2,-9.5,0,-14.2c.1,-1.3,.3,-2.7,1,-3.9c.5,-1,1.3,-1.2,1.4,-2.3c.6,-3.1,1.2,-6.1,1.5,-9.2q0,-.1,0,-.1c-.1,0,-.2,-.1,-.3,-.2c-.1,-.1,-.2,-.2,-.3,-.4c-.2,-.3,0,-.8,.2,-1.1q-.1,0,-.2,0h-.1c-.2,0,-.3,0,-.4,-.2c-.1,-.1,-.1,-.2,-.1,-.3c.2,-.7,.5,-1.6,1.1,-1.9c.8,-.5,2.5,-.3,3.3,-.2c.9,0,2.4,-.2,3.1,.3c.5,.4,.7,1.2,.8,1.8c.1,.3,-.1,.6,-.4,.6c-.1,0,-.3,0,-.4,0c.3,.3,.4,.6,.2,1c-.1,.2,-.4,.4,-.6,.6c.2,1.7,.5,3.3,.8,5c.2,1.4,.2,3.6,.8,4.9c.4,.9,1.5,1.5,2,2.6c.4,1.1,.5,2.3,.5,3.5c.1,2.4,0,4.8,0,7.2c-.1,2.4,.2,5,-.1,7.3m-3.7,-23c-.2,-1.3,-.5,-2.7,-.7,-4.1c-1.7,.2,-3.4,.3,-5.1,.1c-.2,1.8,-.6,3.5,-.9,5.3c2.3,.1,4.6,.1,6.8,-.2c0,-.4,0,-.7,-.1,-1.1m-5.7,-9.2c0,.2,-.1,.4,-.2,.6q0,.1,-.1,.1q0,.1,0,.1c.1,0,.2,.1,.3,.2c1.6,.2,3.3,.2,5,-.1c0,0,.1,-.1,.2,-.1q0,-.1,0,-.1c-.1,-.1,-.2,-.3,-.3,-.5c-.1,.1,-.2,.1,-.4,.1c-.2,0,-.4,-.2,-.5,-.2c0,0,-.3,-.1,-.4,-.1c-.1,0,-.6,.2,-.8,.2c-.3,.1,-.6,-.1,-.9,-.1c-.2,-.1,-.4,.1,-.9,.1c-.3,0,-.7,-.1,-1,-.2m.1,4.3c1.6,.2,3.2,.1,4.8,-.1c-.2,-.8,-.3,-1.6,-.3,-2.4c-1.4,.2,-2.8,.2,-4.2,.1c-.1,.8,-.2,1.6,-.3,2.4m-.6,-5.3c.2,-.1,.4,-.1,.5,-.1c.3,.1,.7,.4,.9,.4c.1,0,.6,-.2,.9,-.2c.3,0,.8,.3,.9,.3c.2,0,.7,-.4,1,-.4c.4,.1,.7,.3,1,.4l.1,-.1c.1,0,.2,-.1,.3,-.2c.2,0,.3,0,.5,0c-.1,-.3,-.3,-.6,-.8,-.8c-.6,-.1,-1.4,0,-2.1,-.1c-1.2,0,-2.5,-.1,-3.2,.8m8.9,16.4c-.1,-.6,-.3,-1.2,-.7,-1.7c-.4,-.6,-1,-.7,-1.4,-1.2c-.1,-.1,0,-.3,-.1,-.4c-.1,-.2,-.2,-.6,-.3,-.9c-2.3,.3,-4.6,.3,-7,.1c0,.4,-.1,.8,-.4,1.1c-.7,1.1,-1.5,1.7,-1.8,3.1c-.1,.7,-.2,1.4,-.2,2.1c-.1,4.3,0,8.6,0,13c0,1.5,0,2.6,1.9,3.1c1.9,.6,4.4,.1,6.3,.1c1.8,-.1,3.6,-.3,3.8,-2.3c.1,-1.1,0,-2.1,0,-3.2c.1,-2.7,.1,-5.4,.1,-8.1c0,-1.6,.2,-3.3,-.2,-4.8m-5.5,14.9c-6.8,.9,-6.8,-12.3,-.7,-13.2q.1,0,.1,0h.1c6.6,-.1,6.9,12.3,.5,13.2m-.5,-12.3c-5,.8,-5.2,11.9,.3,11.4c5.3,-.5,5.2,-11.4,-.3,-11.4m-4,-.4c.2,-1,.6,-1.9,1.3,-2.6c.4,-.4,-.2,-1.1,-.6,-.7c-.8,.8,-1.4,1.9,-1.6,3c-.1,.6,.8,.8,.9,.3m1.7,-3.6c.6,0,.6,-.9,0,-.9c-.5,0,-.5,.9,0,.9Z" class="g4_3"/>
<path d="M514.1,934v-1h.6V918.7c0,-.3,.2,-.5,.5,-.5h2.7c.3,0,.5,.2,.5,.5v3.6h1v-7.6c0,-3.3,2.7,-5.9,5.9,-5.9c3.3,0,5.9,2.6,5.9,5.9v7.6h1v-3.6c0,-.3,.3,-.5,.5,-.5h2.7c.3,0,.5,.2,.5,.5v3.6H537v-7.6c0,-3.3,2.6,-5.9,5.8,-5.9c3.3,0,5.9,2.6,5.9,5.9v7.6h1.1v-3.6c0,-.3,.2,-.5,.4,-.5h2.7c.3,0,.5,.2,.5,.5V933h.7v1Zm36.6,-1h1.8V919.2h-1.8V933Zm-14.8,0h13.9v-6.4H535.9V933Zm-2.7,0h1.7V919.2h-1.7V933Zm-14.8,0h13.8v-6.4H518.4V933Zm-2.7,0h1.7V919.2h-1.7V933Zm20.2,-7.4h13.9v-2.4H535.9v2.4Zm-17.5,0h13.8v-2.4H518.4v2.4Zm24.4,-15.8c-2.7,0,-4.9,2.2,-4.9,4.9v7.6h9.8v-7.6c0,-2.7,-2.2,-4.9,-4.9,-4.9m-17.5,0c-2.7,0,-4.9,2.2,-4.9,4.9v7.6h9.8v-7.6c0,-2.7,-2.2,-4.9,-4.9,-4.9Z" class="g4_3"/>
<path d="M525.6,1018.2c-2.3,0,-4.1,-1.9,-4.1,-4.1c0,-2.3,1.8,-4.1,4.1,-4.1c2.2,0,4.1,1.8,4.1,4.1c0,2.2,-1.9,4.1,-4.1,4.1m0,-7.2c-1.7,0,-3.1,1.4,-3.1,3.1c0,1.7,1.4,3,3.1,3c1.7,0,3,-1.3,3,-3c0,-1.7,-1.3,-3.1,-3,-3.1Z" class="g4_3"/>
<path d="M546.9,1002.7c-1.3,0,-2.3,-1,-2.3,-2.3c0,-1.3,1,-2.3,2.3,-2.3c1.2,0,2.3,1,2.3,2.3c0,1.3,-1.1,2.3,-2.3,2.3m0,-3.6c-.7,0,-1.3,.6,-1.3,1.3c0,.7,.6,1.3,1.3,1.3c.7,0,1.2,-.6,1.2,-1.3c0,-.7,-.5,-1.3,-1.2,-1.3Z" class="g4_3"/>
<path d="M525.6,1031.7c-3.4,0,-6.1,-1.5,-6.1,-3.5c0,-1.4,1.3,-2.6,3.5,-3.2h.1l-.1,-.2c-2.2,-3.5,-4.9,-8.2,-4.9,-10.7c0,-4.2,3.3,-7.6,7.5,-7.6c4.1,0,7.5,3.4,7.5,7.6c0,2.5,-2.7,7.2,-5,10.7l-.1,.2h.2c1.8,.5,3,1.5,3.4,2.6v.1h9.5c1.5,0,2.7,-1.2,2.7,-2.7c0,-1.4,-1.2,-2.6,-2.7,-2.6h-.2c-1.9,0,-3.5,-1.6,-3.5,-3.5c0,-2,1.6,-3.5,3.5,-3.5h2.4c1.7,0,3,-1.4,3,-3.1V1011h-.1c-1.8,-.2,-3.1,-1.1,-3.1,-2.3c0,-.8,.7,-1.6,1.8,-2h.2l-.1,-.2c-1,-1.6,-2.8,-4.5,-2.8,-6.1c0,-2.6,2.1,-4.6,4.7,-4.6c2.5,0,4.6,2,4.6,4.6c0,1.2,-1,3.3,-2.8,6.1l-.1,.2h.2c1.2,.4,1.9,1.2,1.9,2c0,1.2,-1.3,2.1,-3.2,2.3h-.1v1.3c0,2.2,-1.9,4.1,-4.1,4.1h-2.4c-1.3,0,-2.4,1.1,-2.4,2.5c0,1.3,1.1,2.4,2.4,2.4h.2c2,0,3.7,1.7,3.7,3.7c0,2.1,-1.7,3.7,-3.7,3.7h-9.5v.1c-.5,1.7,-3,2.9,-6,2.9m-1.9,-5.8c-1.9,.4,-3.2,1.3,-3.2,2.3c0,1.2,2.1,2.5,5.1,2.5c2.9,0,5,-1.3,5,-2.5c0,-1,-1.3,-1.9,-3.1,-2.3h-.1v.1c-.7,.9,-1.2,1.6,-1.3,1.9H526c-.1,.2,-.3,.2,-.4,.2c-.2,0,-.3,0,-.4,-.2l-.1,-.1c-.2,-.2,-.7,-.9,-1.3,-1.8l-.1,-.1Zm1.9,-18.3c-3.6,0,-6.5,2.9,-6.5,6.5c0,2.4,3.2,7.7,5.1,10.6c.3,.4,.6,.8,.8,1.2l.6,.8l.5,-.8c.3,-.4,.6,-.8,.9,-1.2c1.9,-2.9,5,-8.2,5,-10.6c0,-3.6,-2.9,-6.5,-6.4,-6.5m20,0c-.9,.2,-1.5,.7,-1.5,1.1c0,.6,1.2,1.3,2.8,1.3c1.5,0,2.7,-.7,2.7,-1.3c0,-.4,-.6,-.9,-1.5,-1.1H548v.1c-.4,.5,-.6,.8,-.7,1c-.1,.1,-.3,.2,-.4,.2c-.2,0,-.4,-.1,-.5,-.2c-.1,-.2,-.3,-.5,-.7,-1v-.1Zm1.3,-10.8c-2,0,-3.6,1.6,-3.6,3.6c0,1.4,1.8,4.3,2.8,6c.3,.3,.5,.6,.7,.9l.1,.2l.1,-.2c.2,-.3,.4,-.6,.6,-.9c1.1,-1.7,2.9,-4.6,2.9,-6c0,-2,-1.7,-3.6,-3.6,-3.6Z" class="g4_3"/>
<path d="M544.3,1086.3c-.2,0,-.4,-.2,-.4,-.4c-.7,-4.9,-4.9,-8.5,-9.8,-8.5c-4.9,0,-9.1,3.6,-9.8,8.5c0,.2,-.2,.4,-.4,.4q-.2,-.1,-.3,-.2c-.1,-.1,-.1,-.2,-.1,-.3c.4,-2.5,1.6,-4.9,3.5,-6.6c2,-1.7,4.5,-2.6,7.1,-2.6c2.6,0,5.1,.9,7,2.6c2,1.7,3.2,4.1,3.5,6.6c.1,.2,-.1,.4,-.3,.5Z" class="g4_3"/>
<path d="M534.1,1097.9c-5.4,0,-9.9,-4,-10.6,-9.3c0,-.3,.1,-.5,.3,-.5q.1,0,.1,0c.2,0,.4,.2,.4,.4c.6,4.9,4.8,8.6,9.8,8.6c5,0,9.2,-3.7,9.8,-8.6c0,-.2,.2,-.4,.4,-.4c.1,0,.2,.1,.3,.2c0,.1,.1,.2,.1,.3c-.7,5.3,-5.2,9.3,-10.6,9.3Z" class="g4_3"/>
<path d="M527.1,1111.3q-.1,0,-.1,0c-.3,-.1,-.5,-.3,-.6,-.5l-1.8,-4.9l-5.1,.5c0,0,-.1,0,-.1,0c-.2,0,-.5,-.2,-.6,-.4c-.2,-.2,-.1,-.5,0,-.8l5.3,-8.2h-.3c-.5,-.1,-1,-.4,-1.3,-.9c-.4,-.5,-.6,-1.1,-.5,-1.8c.2,-.6,-.2,-1.3,-.7,-1.6c-.6,-.2,-1,-.8,-1.2,-1.4c-.2,-.6,-.1,-1.2,.2,-1.8c.4,-.5,.3,-1.3,-.1,-1.8c-.5,-.4,-.7,-1.1,-.6,-1.7c0,-.6,.4,-1.2,.9,-1.6c.5,-.4,.7,-1.1,.5,-1.7c-.3,-.6,-.2,-1.3,.1,-1.8c.2,-.6,.8,-1,1.4,-1.2c.6,-.2,1,-.8,1,-1.4c0,-.7,.3,-1.3,.8,-1.7c.4,-.4,.9,-.6,1.5,-.6q.1,0,.2,0q.1,0,.1,0c.7,0,1.2,-.4,1.4,-.9c.3,-.6,.7,-1.1,1.3,-1.3c.3,-.1,.6,-.2,.8,-.2c.4,0,.7,.1,1.1,.3c.2,.1,.4,.1,.6,.1c.4,0,.8,-.2,1.1,-.5c.4,-.4,1,-.7,1.7,-.7c.6,0,1.2,.3,1.7,.7c.2,.3,.6,.5,1.1,.5c.2,0,.4,0,.6,-.1c.3,-.2,.7,-.3,1,-.3c.3,0,.6,.1,.8,.2c.6,.2,1.1,.7,1.3,1.3c.3,.5,.8,.9,1.4,.9q.1,0,.1,0c.1,0,.2,0,.3,0c.5,0,1.1,.2,1.5,.6c.5,.4,.7,1,.7,1.7c0,.6,.5,1.2,1.1,1.4c.6,.2,1.1,.6,1.4,1.2c.3,.5,.3,1.2,.1,1.8c-.2,.6,0,1.3,.5,1.7c.5,.4,.8,1,.9,1.6c0,.6,-.2,1.3,-.6,1.7c-.5,.5,-.5,1.3,-.2,1.8c.4,.6,.4,1.2,.3,1.8c-.2,.6,-.6,1.2,-1.2,1.4c-.6,.3,-.9,1,-.8,1.6c.1,.7,0,1.3,-.4,1.8c-.3,.5,-.8,.8,-1.4,.9h-.2l5.3,8.2c.1,.3,.1,.6,0,.8c-.2,.2,-.4,.4,-.7,.4l-5.2,-.5l-1.7,4.9c-.1,.2,-.3,.4,-.6,.5q-.1,0,-.1,0c-.3,0,-.5,-.2,-.6,-.4l-6.4,-10l-6.4,10c-.1,.2,-.4,.4,-.6,.4m-1.1,-3.8l1.1,2.9l5.6,-8.9l-.4,.1c-.1,.1,-.3,.1,-.5,.1c-.1,0,-.3,0,-.4,0c-.4,-.1,-.8,-.3,-1.1,-.6l-.1,-.1Zm15.1,2.9l1,-2.9L538,1101l-.1,.1c-.4,.3,-.7,.5,-1.1,.6c-.2,0,-.3,0,-.5,0c-.1,0,-.3,0,-.5,-.1l-.4,-.1Zm-1.6,-10.5c-.3,0,-.6,.1,-.9,.3l-.1,.1l4,6.3l.3,-1c.1,-.3,.4,-.5,.7,-.5h.1l1.1,.1l-3.3,-5.3h-.2c-.2,.1,-.4,.2,-.7,.2c-.2,0,-.4,-.1,-.6,-.1c-.1,-.1,-.2,-.1,-.4,-.1m-14.8,5.2c.3,0,.6,.2,.7,.5l.3,1l3.9,-6.3l-.1,-.1c-.2,-.2,-.6,-.3,-.9,-.3c-.1,0,-.2,0,-.4,.1c-.2,0,-.4,.1,-.6,.1c-.2,0,-.5,-.1,-.7,-.2h-.1l-3.4,5.3l1.2,-.1h.1m18.5,-7.7c-.2,.3,-.4,.5,-.4,.8c-.1,.5,-.3,.9,-.7,1.2l-.1,.1l3.7,5.8l2.9,.3l-5.3,-8.3Zm-23.7,8.2l2.9,-.3l3.7,-5.8l-.1,-.1c-.3,-.3,-.5,-.7,-.6,-1.2c-.1,-.3,-.2,-.5,-.4,-.8l-.2,-.1Zm14.6,-5.5q.1,0,.2,.1c0,0,.1,0,.1,0c.4,0,.7,.2,1,.4c.3,.2,.6,.3,.9,.3c.1,0,.2,0,.3,0c.4,-.1,.8,-.3,1,-.7c0,-.1,.1,-.1,.1,-.2c.5,-.6,1.1,-.9,1.8,-.9c.2,0,.4,.1,.6,.1c.2,0,.3,.1,.4,.1c.3,0,.6,-.1,.8,-.3c.4,-.2,.6,-.5,.7,-.9c.1,-.7,.6,-1.4,1.3,-1.7h.1c.2,-.1,.4,-.2,.6,-.2c.4,0,.8,-.2,1.1,-.6c.2,-.3,.3,-.7,.2,-1.1c-.2,-1,.3,-2,1.3,-2.5c.3,-.2,.6,-.5,.7,-.9c.1,-.4,.1,-.8,-.2,-1.2c-.5,-.8,-.4,-1.9,.3,-2.7c.3,-.3,.4,-.7,.4,-1.1c-.1,-.4,-.3,-.8,-.6,-1.1c-.8,-.6,-1.1,-1.7,-.7,-2.6c.1,-.4,.1,-.8,-.1,-1.2c-.2,-.4,-.5,-.6,-.9,-.7c-1,-.3,-1.7,-1.2,-1.7,-2.2c0,-.5,-.1,-.8,-.5,-1.1c-.2,-.3,-.6,-.4,-.9,-.4q-.1,0,-.2,0q-.1,0,-.2,0c-.9,0,-1.8,-.6,-2.1,-1.4c-.2,-.4,-.5,-.7,-.9,-.9c-.1,-.1,-.3,-.1,-.5,-.1c-.2,0,-.4,.1,-.6,.2c-.4,.1,-.7,.2,-1,.2c-.7,0,-1.3,-.3,-1.7,-.7c-.3,-.3,-.7,-.5,-1.1,-.5c-.4,0,-.8,.2,-1.1,.5c-.4,.4,-1.1,.7,-1.7,.7c-.3,0,-.7,-.1,-1,-.2c-.2,-.1,-.4,-.2,-.7,-.2c-.1,0,-.3,0,-.5,.1c-.4,.2,-.7,.5,-.8,.9c-.4,.8,-1.2,1.4,-2.2,1.4c0,0,-.1,0,-.2,0c0,0,-.1,0,-.1,0c-.4,0,-.7,.1,-1,.4c-.3,.3,-.5,.6,-.5,1.1c0,1,-.6,1.9,-1.6,2.2c-.4,.1,-.8,.3,-.9,.7c-.2,.4,-.2,.8,-.1,1.2c.4,.9,.1,2,-.7,2.6c-.4,.3,-.6,.7,-.6,1.1c-.1,.4,.1,.8,.4,1.1c.6,.8,.7,1.9,.2,2.7c-.2,.4,-.3,.8,-.2,1.2c.2,.4,.4,.7,.8,.9c.9,.5,1.4,1.5,1.2,2.5c-.1,.4,0,.8,.3,1.1c.3,.4,.6,.6,1,.6c.3,0,.5,.1,.7,.2c0,0,.1,0,.1,0c.7,.3,1.1,1,1.3,1.7c0,.4,.3,.7,.6,.9c.3,.2,.5,.3,.8,.3c.1,0,.3,-.1,.4,-.1c.2,0,.4,-.1,.6,-.1c.7,0,1.4,.4,1.8,.9h.1q0,.1,.1,.2c.2,.4,.5,.6,1,.7c0,0,.1,0,.2,0c.3,0,.7,-.1,.9,-.3c.3,-.2,.7,-.4,1,-.4h.2c0,-.1,.1,-.1,.2,-.1Z" class="g4_3"/>
<path d="M530.1,1093.5c-.1,0,-.2,0,-.3,-.1q-.1,0,-.1,0c0,-.1,-.1,-.1,-.1,-.1v-.2h-.1v-.1q0,-.1,0,-.1v-.1l.7,-4.1l-2.9,-2.9c-.2,-.1,-.3,-.4,-.2,-.6c0,-.1,.1,-.1,.1,-.2h.1q0,-.1,0,-.1q.1,0,.1,0h.1q0,-.1,0,-.1q.1,0,.1,0l4.1,-.6l1.9,-3.7c.1,-.2,.3,-.3,.5,-.3c.2,0,.4,.1,.5,.3l1.9,3.7l4.1,.6c.2,.1,.4,.2,.5,.4c0,.1,0,.2,0,.3v.1c0,0,-.1,0,-.1,0c0,0,0,.1,0,.1v.1q-.1,0,-.1,0l-3,2.9l.7,4.1c.1,.3,0,.5,-.2,.6c0,0,-.1,0,-.1,.1c0,0,-.1,0,-.1,0q-.1,0,-.1,0c0,0,-.1,0,-.1,0h-.2l-3.7,-2l-3.7,2c-.1,0,-.2,0,-.3,0m2.2,-8.7c0,.1,-.1,.2,-.3,.2l-3.9,.5l2.8,2.8c.1,.1,.2,.2,.2,.4l-.7,3.9l3.5,-1.9q.1,0,.2,0c0,0,.1,0,.2,0l3.5,1.9l-.7,-3.9c0,-.2,0,-.3,.1,-.4l2.8,-2.8l-3.9,-.5c-.1,0,-.2,-.1,-.3,-.2l-1.7,-3.6Z" class="g4_3"/>
<path d="M110.9,772.3c0,.6,-.4,1.1,-1.1,1.1c-.6,0,-1.1,-.5,-1.1,-1.1c0,-.6,.5,-1.1,1.1,-1.1c.7,0,1.1,.5,1.1,1.1Z" class="g4_3"/>
<path d="M108,768.9c0,.6,-.5,1.1,-1.1,1.1c-.6,0,-1,-.5,-1,-1.1c0,-.6,.4,-1,1,-1c.6,0,1.1,.4,1.1,1Z" class="g4_3"/>
<path d="M108,772.3c0,.6,-.5,1.1,-1.1,1.1c-.6,0,-1,-.5,-1,-1.1c0,-.6,.4,-1,1,-1c.6,0,1.1,.4,1.1,1Z" class="g4_3"/>
<path d="M108,775.7c0,.6,-.5,1.1,-1.1,1.1c-.6,0,-1,-.5,-1,-1.1c0,-.6,.4,-1,1,-1c.6,0,1.1,.4,1.1,1Z" class="g4_3"/>
<path d="M105,765.5c0,.6,-.4,1,-1,1c-.5,0,-1,-.4,-1,-1c0,-.5,.5,-1,1,-1c.6,0,1,.5,1,1Z" class="g4_3"/>
<path d="M105,768.9c0,.6,-.4,1,-1,1c-.5,0,-1,-.4,-1,-1c0,-.5,.5,-1,1,-1c.6,0,1,.5,1,1Z" class="g4_3"/>
<path d="M105,772.3c0,.6,-.4,1,-1,1c-.5,0,-1,-.4,-1,-1c0,-.5,.5,-1,1,-1c.6,0,1,.5,1,1Z" class="g4_3"/>
<path d="M105,775.7c0,.6,-.4,1,-1,1c-.5,0,-1,-.4,-1,-1c0,-.5,.5,-1,1,-1c.6,0,1,.5,1,1Z" class="g4_3"/>
<path d="M105,779.1c0,.6,-.4,1,-1,1c-.5,0,-1,-.4,-1,-1c0,-.5,.5,-1,1,-1c.6,0,1,.5,1,1Z" class="g4_3"/>
<path d="M102,762.1c0,.6,-.4,1,-.9,1c-.5,0,-1,-.4,-1,-1c0,-.5,.5,-.9,1,-.9c.5,0,.9,.4,.9,.9Z" class="g4_3"/>
<path d="M102,765.5c0,.6,-.4,1,-.9,1c-.5,0,-1,-.4,-1,-1c0,-.5,.5,-.9,1,-.9c.5,0,.9,.4,.9,.9Z" class="g4_3"/>
<path d="M102,768.9c0,.6,-.4,1,-.9,1c-.5,0,-1,-.4,-1,-1c0,-.5,.5,-.9,1,-.9c.5,0,.9,.4,.9,.9Z" class="g4_3"/>
<path d="M102,772.3c0,.6,-.4,1,-.9,1c-.5,0,-1,-.4,-1,-1c0,-.5,.5,-.9,1,-.9c.5,0,.9,.4,.9,.9Z" class="g4_3"/>
<path d="M102,775.7c0,.6,-.4,1,-.9,1c-.5,0,-1,-.4,-1,-1c0,-.5,.5,-.9,1,-.9c.5,0,.9,.4,.9,.9Z" class="g4_3"/>
<path d="M102,779.1c0,.6,-.4,1,-.9,1c-.5,0,-1,-.4,-1,-1c0,-.5,.5,-.9,1,-.9c.5,0,.9,.4,.9,.9Z" class="g4_3"/>
<path d="M102,782.5c0,.6,-.4,1,-.9,1c-.5,0,-1,-.4,-1,-1c0,-.5,.5,-.9,1,-.9c.5,0,.9,.4,.9,.9Z" class="g4_3"/>
<path d="M99.1,762.1c0,.5,-.4,.9,-.9,.9c-.5,0,-.9,-.4,-.9,-.9c0,-.5,.4,-.9,.9,-.9c.5,0,.9,.4,.9,.9Z" class="g4_3"/>
<path d="M99.1,765.5c0,.5,-.4,.9,-.9,.9c-.5,0,-.9,-.4,-.9,-.9c0,-.5,.4,-.9,.9,-.9c.5,0,.9,.4,.9,.9Z" class="g4_3"/>
<path d="M99.1,768.9c0,.5,-.4,.9,-.9,.9c-.5,0,-.9,-.4,-.9,-.9c0,-.5,.4,-.9,.9,-.9c.5,0,.9,.4,.9,.9Z" class="g4_3"/>
<path d="M99.1,772.3c0,.5,-.4,.9,-.9,.9c-.5,0,-.9,-.4,-.9,-.9c0,-.5,.4,-.9,.9,-.9c.5,0,.9,.4,.9,.9Z" class="g4_3"/>
<path d="M99.1,775.7c0,.5,-.4,.9,-.9,.9c-.5,0,-.9,-.4,-.9,-.9c0,-.5,.4,-.9,.9,-.9c.5,0,.9,.4,.9,.9Z" class="g4_3"/>
<path d="M99.1,779.1c0,.5,-.4,.9,-.9,.9c-.5,0,-.9,-.4,-.9,-.9c0,-.5,.4,-.9,.9,-.9c.5,0,.9,.4,.9,.9Z" class="g4_3"/>
<path d="M99.1,782.5c0,.5,-.4,.9,-.9,.9c-.5,0,-.9,-.4,-.9,-.9c0,-.5,.4,-.9,.9,-.9c.5,0,.9,.4,.9,.9Z" class="g4_3"/>
<path d="M99.1,785.9c0,.5,-.4,.9,-.9,.9c-.5,0,-.9,-.4,-.9,-.9c0,-.5,.4,-.9,.9,-.9c.5,0,.9,.4,.9,.9Z" class="g4_3"/>
<path d="M96.1,762.1c0,.5,-.4,.9,-.8,.9c-.5,0,-.9,-.4,-.9,-.9c0,-.4,.4,-.8,.9,-.8c.4,0,.8,.4,.8,.8Z" class="g4_3"/>
<path d="M96.1,765.5c0,.5,-.4,.9,-.8,.9c-.5,0,-.9,-.4,-.9,-.9c0,-.4,.4,-.8,.9,-.8c.4,0,.8,.4,.8,.8Z" class="g4_3"/>
<path d="M96.1,768.9c0,.5,-.4,.9,-.8,.9c-.5,0,-.9,-.4,-.9,-.9c0,-.4,.4,-.8,.9,-.8c.4,0,.8,.4,.8,.8Z" class="g4_3"/>
<path d="M96.1,772.3c0,.5,-.4,.9,-.8,.9c-.5,0,-.9,-.4,-.9,-.9c0,-.4,.4,-.8,.9,-.8c.4,0,.8,.4,.8,.8Z" class="g4_3"/>
<path d="M96.1,775.7c0,.5,-.4,.9,-.8,.9c-.5,0,-.9,-.4,-.9,-.9c0,-.4,.4,-.8,.9,-.8c.4,0,.8,.4,.8,.8Z" class="g4_3"/>
<path d="M96.1,779.1c0,.5,-.4,.9,-.8,.9c-.5,0,-.9,-.4,-.9,-.9c0,-.4,.4,-.8,.9,-.8c.4,0,.8,.4,.8,.8Z" class="g4_3"/>
<path d="M96.1,782.5c0,.5,-.4,.9,-.8,.9c-.5,0,-.9,-.4,-.9,-.9c0,-.4,.4,-.8,.9,-.8c.4,0,.8,.4,.8,.8Z" class="g4_3"/>
<path d="M96.1,785.9c0,.5,-.4,.9,-.8,.9c-.5,0,-.9,-.4,-.9,-.9c0,-.4,.4,-.8,.9,-.8c.4,0,.8,.4,.8,.8Z" class="g4_3"/>
<path d="M96.1,789.3c0,.5,-.4,.9,-.8,.9c-.5,0,-.9,-.4,-.9,-.9c0,-.4,.4,-.8,.9,-.8c.4,0,.8,.4,.8,.8Z" class="g4_3"/>
<path d="M93.1,765.5c0,.5,-.3,.8,-.8,.8c-.4,0,-.7,-.3,-.7,-.8c0,-.4,.3,-.8,.7,-.8c.5,0,.8,.4,.8,.8Z" class="g4_3"/>
<path d="M93.1,768.9c0,.5,-.3,.8,-.8,.8c-.4,0,-.7,-.3,-.7,-.8c0,-.4,.3,-.8,.7,-.8c.5,0,.8,.4,.8,.8Z" class="g4_3"/>
<path d="M93.1,772.3c0,.5,-.3,.8,-.8,.8c-.4,0,-.7,-.3,-.7,-.8c0,-.4,.3,-.8,.7,-.8c.5,0,.8,.4,.8,.8Z" class="g4_3"/>
<path d="M93.1,775.7c0,.5,-.3,.8,-.8,.8c-.4,0,-.7,-.3,-.7,-.8c0,-.4,.3,-.8,.7,-.8c.5,0,.8,.4,.8,.8Z" class="g4_3"/>
<path d="M93.1,779.1c0,.5,-.3,.8,-.8,.8c-.4,0,-.7,-.3,-.7,-.8c0,-.4,.3,-.8,.7,-.8c.5,0,.8,.4,.8,.8Z" class="g4_3"/>
<path d="M90.2,765.5c0,.4,-.4,.8,-.8,.8c-.4,0,-.7,-.4,-.7,-.8c0,-.4,.3,-.7,.7,-.7c.4,0,.8,.3,.8,.7Z" class="g4_3"/>
<path d="M90.2,768.9c0,.4,-.4,.8,-.8,.8c-.4,0,-.7,-.4,-.7,-.8c0,-.4,.3,-.7,.7,-.7c.4,0,.8,.3,.8,.7Z" class="g4_3"/>
<path d="M90.2,772.3c0,.4,-.4,.8,-.8,.8c-.4,0,-.7,-.4,-.7,-.8c0,-.4,.3,-.7,.7,-.7c.4,0,.8,.3,.8,.7Z" class="g4_3"/>
<path d="M90.2,775.7c0,.4,-.4,.8,-.8,.8c-.4,0,-.7,-.4,-.7,-.8c0,-.4,.3,-.7,.7,-.7c.4,0,.8,.3,.8,.7Z" class="g4_3"/>
<path d="M90.2,779.1c0,.4,-.4,.8,-.8,.8c-.4,0,-.7,-.4,-.7,-.8c0,-.4,.3,-.7,.7,-.7c.4,0,.8,.3,.8,.7Z" class="g4_3"/>
<path d="M87.2,765.5c0,.4,-.3,.7,-.7,.7c-.4,0,-.7,-.3,-.7,-.7c0,-.4,.3,-.7,.7,-.7c.4,0,.7,.3,.7,.7Z" class="g4_3"/>
<path d="M87.2,768.9c0,.4,-.3,.7,-.7,.7c-.4,0,-.7,-.3,-.7,-.7c0,-.4,.3,-.7,.7,-.7c.4,0,.7,.3,.7,.7Z" class="g4_3"/>
<path d="M87.2,772.3c0,.4,-.3,.7,-.7,.7c-.4,0,-.7,-.3,-.7,-.7c0,-.4,.3,-.7,.7,-.7c.4,0,.7,.3,.7,.7Z" class="g4_3"/>
<path d="M87.2,775.7c0,.4,-.3,.7,-.7,.7c-.4,0,-.7,-.3,-.7,-.7c0,-.4,.3,-.7,.7,-.7c.4,0,.7,.3,.7,.7Z" class="g4_3"/>
<path d="M87.2,779.1c0,.4,-.3,.7,-.7,.7c-.4,0,-.7,-.3,-.7,-.7c0,-.4,.3,-.7,.7,-.7c.4,0,.7,.3,.7,.7Z" class="g4_3"/>
<path d="M84.2,765.5c0,.4,-.2,.7,-.6,.7c-.3,0,-.6,-.3,-.6,-.7c0,-.3,.3,-.6,.6,-.6c.4,0,.6,.3,.6,.6Z" class="g4_3"/>
<path d="M84.2,768.9c0,.4,-.2,.7,-.6,.7c-.3,0,-.6,-.3,-.6,-.7c0,-.3,.3,-.6,.6,-.6c.4,0,.6,.3,.6,.6Z" class="g4_3"/>
<path d="M84.2,772.3c0,.4,-.2,.7,-.6,.7c-.3,0,-.6,-.3,-.6,-.7c0,-.3,.3,-.6,.6,-.6c.4,0,.6,.3,.6,.6Z" class="g4_3"/>
<path d="M84.2,775.7c0,.4,-.2,.7,-.6,.7c-.3,0,-.6,-.3,-.6,-.7c0,-.3,.3,-.6,.6,-.6c.4,0,.6,.3,.6,.6Z" class="g4_3"/>
<path d="M84.2,779.1c0,.4,-.2,.7,-.6,.7c-.3,0,-.6,-.3,-.6,-.7c0,-.3,.3,-.6,.6,-.6c.4,0,.6,.3,.6,.6Z" class="g4_3"/>
<path d="M81.3,765.5c0,.4,-.3,.6,-.6,.6c-.3,0,-.6,-.2,-.6,-.6c0,-.3,.3,-.6,.6,-.6c.3,0,.6,.3,.6,.6Z" class="g4_3"/>
<path d="M81.3,768.9c0,.4,-.3,.6,-.6,.6c-.3,0,-.6,-.2,-.6,-.6c0,-.3,.3,-.6,.6,-.6c.3,0,.6,.3,.6,.6Z" class="g4_3"/>
<path d="M81.3,772.3c0,.4,-.3,.6,-.6,.6c-.3,0,-.6,-.2,-.6,-.6c0,-.3,.3,-.6,.6,-.6c.3,0,.6,.3,.6,.6Z" class="g4_3"/>
<path d="M81.3,775.7c0,.4,-.3,.6,-.6,.6c-.3,0,-.6,-.2,-.6,-.6c0,-.3,.3,-.6,.6,-.6c.3,0,.6,.3,.6,.6Z" class="g4_3"/>
<path d="M81.3,779.1c0,.4,-.3,.6,-.6,.6c-.3,0,-.6,-.2,-.6,-.6c0,-.3,.3,-.6,.6,-.6c.3,0,.6,.3,.6,.6Z" class="g4_3"/>
<path d="M99.1,759.1c0,.5,-.4,.9,-.9,.9c-.5,0,-.9,-.4,-.9,-.9c0,-.5,.4,-.9,.9,-.9c.5,0,.9,.4,.9,.9Z" class="g4_3"/>
<path d="M96.1,759.1c0,.4,-.4,.8,-.8,.8c-.5,0,-.9,-.4,-.9,-.8c0,-.5,.4,-.9,.9,-.9c.4,0,.8,.4,.8,.9Z" class="g4_3"/>
<path d="M96.1,756.1c0,.5,-.4,.9,-.8,.9c-.5,0,-.9,-.4,-.9,-.9c0,-.5,.4,-.8,.9,-.8c.4,0,.8,.3,.8,.8Z" class="g4_3"/>
<path d="M1082.8,822.1h3.5V795.3h-3.5v26.8Zm1,-25.8h1.5v24.8h-1.5V796.3Z" class="g4_3"/>
<path d="M1139.1,822.1h3.3V788.5h-3.3v33.6Zm2.4,-1h-1.4V789.5h1.4v31.6Z" class="g4_3"/>
<path d="M1087.2,803.4h51v-.9h-51v.9Z" class="g4_3"/>
<path d="M1127.3,795.4h-.3c-5.8,.1,-10.3,4.3,-10.5,4.5l-.5,.4l.6,.4c0,0,.2,.1,.5,.2c.3,.2,.7,.4,1.2,.6h2.9c-.6,-.2,-1.1,-.4,-1.5,-.5c-.4,-.1,-.7,-.3,-1,-.4c-.4,-.2,-.7,-.3,-1,-.5c1.3,-1,5,-3.7,9.3,-3.8h.3c4.2,0,7.9,2.5,9.2,3.4c-.8,.5,-2.2,1.2,-4,1.8h2.7c.9,-.4,1.5,-.8,2,-1c.3,-.2,.4,-.3,.4,-.3l.6,-.4l-.5,-.4c-.2,-.1,-4.8,-4,-10.4,-4Z" class="g4_3"/>
<path d="M1087.2,814.1h51v-1h-51v1Z" class="g4_3"/>
<path d="M1087.2,810h51v-.9h-51v.9Z" class="g4_3"/>
<path d="M1091.9,801.7h12.8c.3,0,.6,-.3,.6,-.6c0,-.3,-.3,-.5,-.6,-.5h-12.8c-.3,0,-.5,.2,-.5,.5c0,.3,.2,.6,.5,.6Z" class="g4_3"/>
<path d="M1091.9,799.8h12.8c.3,0,.6,-.3,.6,-.6c0,-.3,-.3,-.5,-.6,-.5h-12.8c-.3,0,-.5,.2,-.5,.5c0,.3,.2,.6,.5,.6Z" class="g4_3"/>
<path d="M1091.9,797.9h12.8c.3,0,.6,-.3,.6,-.6c0,-.3,-.3,-.5,-.6,-.5h-12.8c-.3,0,-.5,.2,-.5,.5c0,.3,.2,.6,.5,.6Z" class="g4_3"/>
<path d="M1125.1,947.7h-25c-3.4,0,-6.2,-2.8,-6.2,-6.3V912.9c0,-3.4,2.8,-6.2,6.2,-6.2h7.9v-2.8h-2.3c-.6,0,-1.2,-.5,-1.2,-1.1v-.9c0,-.6,.6,-1.1,1.2,-1.1h13.8c.7,0,1.2,.5,1.2,1.1v.9c0,.6,-.5,1.1,-1.2,1.1h-2.3v2.8h7.9c3.5,0,6.3,2.8,6.3,6.2v28.5c0,3.5,-2.8,6.3,-6.3,6.3m-25,-39.7c-2.7,0,-4.9,2.2,-4.9,4.9v28.5c0,2.7,2.2,4.9,4.9,4.9h25c2.7,0,4.9,-2.2,4.9,-4.9V912.9c0,-2.7,-2.2,-4.9,-4.9,-4.9h-9.2v-4.3c0,-.7,.6,-1.2,1.2,-1.2h2.3v-.4h-13.6v.4h2.3c.7,0,1.2,.5,1.2,1.2V908Zm21.5,35.5c-1.8,0,-3.3,-1.5,-3.3,-3.3c0,-1.8,1.5,-3.2,3.3,-3.2c1.8,0,3.2,1.4,3.2,3.2c0,1.8,-1.4,3.3,-3.2,3.3m0,-5.2c-1.1,0,-2,.8,-2,1.9c0,1.1,.9,2,2,2c1,0,1.9,-.9,1.9,-2c0,-1.1,-.9,-1.9,-1.9,-1.9m-17.9,5.2c-1.8,0,-3.3,-1.5,-3.3,-3.3c0,-1.8,1.5,-3.2,3.3,-3.2c1.8,0,3.3,1.4,3.3,3.2c0,1.8,-1.5,3.3,-3.3,3.3m0,-5.2c-1.1,0,-2,.8,-2,1.9c0,1.1,.9,2,2,2c1.1,0,1.9,-.9,1.9,-2c0,-1.1,-.8,-1.9,-1.9,-1.9m19.3,-6.8h-20.7c-3,0,-5.3,-1.6,-5.3,-3.6V913.1c0,-2,2.3,-3.6,5.3,-3.6H1123c3,0,5.3,1.6,5.3,3.6v14.8c0,2,-2.3,3.6,-5.3,3.6m-20.7,-20.6c-2.2,0,-4,1,-4,2.2v14.8c0,1.2,1.8,2.2,4,2.2H1123c2.1,0,4,-1,4,-2.2V913.1c0,-1.2,-1.9,-2.2,-4,-2.2Zm13.2,-2.9h-5.7v-4.3c0,-.7,.5,-1.2,1.2,-1.2h3.3c.6,0,1.2,.5,1.2,1.2Zm-4.4,-1.3h3.1v-2.8h-3.1Z" class="g4_3"/>
<path d="M1098,958.1c-.3,0,-.7,-.1,-1,-.2c-.4,-.3,-.7,-.7,-.9,-1.2c-.1,-.5,0,-1,.2,-1.4l.1,-.1l6,-7.5h4.6l-7.4,9.5c-.3,.6,-.9,.9,-1.6,.9m-.6,-2.1c0,.2,0,.3,0,.4c0,.1,.1,.2,.3,.3c.3,.1,.7,0,.8,-.2l.1,-.1l5.7,-7.4h-1.2Z" class="g4_3"/>
<path d="M1127.3,958.1c-.7,0,-1.3,-.3,-1.7,-.9l-7.4,-9.5h4.6l6.1,7.6c.3,.4,.4,.9,.2,1.4c-.1,.5,-.4,.9,-.9,1.2c-.3,.1,-.6,.2,-.9,.2m-6.4,-9.1l5.8,7.5c.2,.2,.6,.3,.9,.2c.1,-.1,.2,-.2,.3,-.3c0,-.1,0,-.2,-.1,-.4l-5.6,-7Z" class="g4_3"/>
<path d="M1082.8,1088.7h3.5v-26.8h-3.5v26.8Zm1,-25.8h1.5v24.8h-1.5v-24.8Z" class="g4_3"/>
<path d="M1139.1,1088.7h3.3v-33.6h-3.3v33.6Zm2.4,-1h-1.4v-31.6h1.4v31.6Z" class="g4_3"/>
<path d="M1087.2,1070h51v-1h-51v1Z" class="g4_3"/>
<path d="M1127.3,1061.9h-.3c-5.8,.2,-10.3,4.4,-10.5,4.6l-.5,.4l.6,.3c0,0,.2,.1,.5,.3c.3,.2,.7,.3,1.2,.6h2.9c-.6,-.2,-1.1,-.4,-1.5,-.5c-.4,-.2,-.7,-.3,-1,-.4c-.4,-.2,-.7,-.4,-1,-.5c1.3,-1.1,5,-3.7,9.3,-3.8h.3c4.2,0,7.9,2.4,9.2,3.4c-.8,.5,-2.2,1.2,-4,1.8h2.7c.9,-.4,1.5,-.8,2,-1c.3,-.2,.4,-.3,.4,-.3l.6,-.4l-.5,-.4c-.2,-.2,-4.8,-4.1,-10.4,-4.1Z" class="g4_3"/>
<path d="M1087.2,1080.7h51v-1h-51v1Z" class="g4_3"/>
<path d="M1087.2,1076.6h51v-1h-51v1Z" class="g4_3"/>
<path d="M1091.9,1068.3h12.8c.3,0,.6,-.3,.6,-.6c0,-.3,-.3,-.5,-.6,-.5h-12.8c-.3,0,-.5,.2,-.5,.5c0,.3,.2,.6,.5,.6Z" class="g4_3"/>
<path d="M1091.9,1066.4h12.8c.3,0,.6,-.3,.6,-.6c0,-.3,-.3,-.5,-.6,-.5h-12.8c-.3,0,-.5,.2,-.5,.5c0,.3,.2,.6,.5,.6Z" class="g4_3"/>
<path d="M1091.9,1064.4h12.8c.3,0,.6,-.2,.6,-.5c0,-.3,-.3,-.6,-.6,-.6h-12.8c-.3,0,-.5,.3,-.5,.6c0,.3,.2,.5,.5,.5Z" class="g4_3"/>
<path d="M1129.9,1203.6H1126c-1.1,0,-2,-.9,-2,-2v-2.7h-22.7v2.7c0,1.1,-.9,2,-2,2h-3.9c-1.1,0,-2,-.9,-2,-2v-2.7h-.7c-1.8,0,-3.2,-1.4,-3.2,-3.3V1186c0,-1.6,.5,-4,1.2,-5.4l5.2,-10.5c.7,-1.5,2.7,-2.7,4.4,-2.7h24.2c1.7,0,3.7,1.2,4.5,2.7l5.5,10.6c.7,1.3,1.3,3.7,1.3,5.3v9.6c0,1.9,-1.5,3.3,-3.3,3.3h-.7v2.7c0,1.1,-.8,2,-1.9,2m-29.9,-5.9h25.3v3.9c0,.4,.3,.7,.7,.7h3.9c.4,0,.7,-.3,.7,-.7v-3.9h1.9c1.1,0,2.1,-.9,2.1,-2.1V1186c0,-1.4,-.6,-3.5,-1.2,-4.7l-5.5,-10.6c-.6,-1.1,-2.1,-2.1,-3.4,-2.1h-24.2c-1.2,0,-2.7,1,-3.3,2.1l-5.2,10.5c-.6,1.2,-1.1,3.4,-1.1,4.8v9.6c0,1.2,.9,2.1,2,2.1h2v3.9c0,.4,.3,.7,.7,.7h3.9c.4,0,.7,-.3,.7,-.7Zm-3.6,-3.1c-1.7,0,-3.1,-1.5,-3.1,-3.2c0,-1.7,1.4,-3.2,3.1,-3.2c1.7,0,3.1,1.5,3.1,3.2c0,1.7,-1.4,3.2,-3.1,3.2m0,-5.1c-1,0,-1.8,.8,-1.8,1.9c0,1,.8,1.9,1.8,1.9c1,0,1.9,-.9,1.9,-1.9c0,-1.1,-.9,-1.9,-1.9,-1.9m32.7,4.8c-1.8,0,-3.2,-1.4,-3.2,-3.1c0,-1.8,1.4,-3.2,3.2,-3.2c1.7,0,3.1,1.4,3.1,3.2c0,1.7,-1.4,3.1,-3.1,3.1m0,-5c-1.1,0,-1.9,.8,-1.9,1.9c0,1,.8,1.9,1.9,1.9c1,0,1.8,-.9,1.8,-1.9c0,-1.1,-.8,-1.9,-1.8,-1.9m-5.5,4.6h-21.9v-4.5h21.9v4.5Zm-20.7,-1.3h19.4v-2h-19.4v2Zm24.2,-11.6h-29c-.9,0,-1.6,-.4,-2,-1c-.4,-.7,-.4,-1.5,0,-2.4l2.2,-4.5c.8,-1.6,2.7,-2.8,4.4,-2.8h19.6c1.7,0,3.6,1.2,4.4,2.7l2.4,4.7c.4,.8,.5,1.6,.1,2.3c-.4,.6,-1.2,1,-2.1,1m-24.4,-9.4c-1.2,0,-2.7,.9,-3.3,2l-2.2,4.6c-.2,.4,-.2,.8,-.1,1.1c.2,.2,.6,.4,1,.4h29c.5,0,.8,-.2,1,-.4c.1,-.2,.1,-.6,-.1,-1.1l-2.4,-4.6c-.6,-1.1,-2.1,-2,-3.3,-2Z" class="g4_3"/>
<path d="M1068.6,802l4.7,6.4V795.6Z" class="g4_3"/>
<path d="M1072.6,799.6h5v4.9h-5v-4.9Z" class="g4_3"/>
<path d="M1156.4,1046.9l-4.8,-6.4v12.8Z" class="g4_3"/>
<path d="M1152.4,1049.4h-5v-5h5v5Z" class="g4_3"/>
<path d="M1367,747.1c19,0,34.5,-15.4,34.5,-34.4c0,-19,-15.5,-34.4,-34.5,-34.4c-19,0,-34.4,15.4,-34.4,34.4c0,19,15.4,34.4,34.4,34.4Z" class="g7_3"/>
<path d="M1379.5,722.6c-1.6,0,-3.1,-1,-3.8,-2.4l-.1,-.2h-15.2l-.1,.2c-.7,1.4,-2.2,2.4,-3.8,2.4c-1.6,0,-3.1,-1,-3.8,-2.4l-.1,-.2h-6.2c-.9,0,-1.6,-.7,-1.6,-1.6V704.5c.1,-2.3,2,-4.1,4.2,-4.1h36.5c2.2,0,3.7,1.7,3.7,4.2v13.8c0,.9,-.7,1.6,-1.5,1.6h-4.4v.2c-.7,1.4,-2.2,2.4,-3.8,2.4m0,-7.5c-1.8,0,-3.3,1.5,-3.3,3.3c0,1.8,1.5,3.3,3.3,3.3c1.8,0,3.3,-1.5,3.3,-3.3c0,-1.8,-1.5,-3.3,-3.3,-3.3m-23,0c-1.8,0,-3.3,1.5,-3.3,3.3c0,1.8,1.5,3.3,3.3,3.3c1.8,0,3.3,-1.5,3.3,-3.3c0,-1.8,-1.5,-3.3,-3.3,-3.3m23,-.9c2.3,0,4.2,1.9,4.2,4.2c0,.1,0,.3,0,.4l-.1,.3h4.1c.3,0,.7,-.3,.7,-.7v-4.6h-.3c-3.6,-1,-6.2,-2.1,-6.9,-2.8l-.2,-.1v-6h-5.1v4.9h2.1v.9h-29.5v-.9h2.2v-4.9h-5v13.5c0,.4,.3,.7,.7,.7h6l-.1,-.3c0,-.1,0,-.3,0,-.4c0,-2.3,1.9,-4.2,4.2,-4.2c2.3,0,4.2,1.9,4.2,4.2c0,.1,0,.3,0,.4l-.1,.3h14.7v-.3c0,-.1,0,-.3,0,-.4c0,-2.3,1.9,-4.2,4.2,-4.2m2.4,-3.7l.2,.1c.9,.7,3.8,1.6,5.9,2.2l.4,.1v-8h-6.5Zm-12.1,-.7h5.2v-4.9h-5.2v4.9Zm-6.1,0h5.2v-4.9h-5.2v4.9Zm-6.1,0h5.2v-4.9h-5.2v4.9Zm-6,0h5.1v-4.9h-5.1v4.9Zm-2.6,-8.5c-1.4,0,-2.7,.9,-3.1,2.4l-.2,.3h42.6v-.3c-.3,-1.6,-1.3,-2.4,-2.8,-2.4Z" class="g8_3"/>
<path d="M1588.4,747.1c19,0,34.5,-15.4,34.5,-34.4c0,-19,-15.5,-34.4,-34.5,-34.4c-19,0,-34.4,15.4,-34.4,34.4c0,19,15.4,34.4,34.4,34.4Z" class="g7_3"/>
<path d="M1600.8,728.2c0,0,7.3,-9.7,7.3,-13.1c0,-3.5,-3.3,-6.3,-7.3,-6.3c-4.1,0,-7.4,2.8,-7.4,6.3c0,3.4,7.4,13.1,7.4,13.1Z" class="g9_3"/>
<path d="M1599,696.9h-11.7c-.6,0,-1.1,.2,-1.5,.5c-1.4,-.8,-2.9,-1.2,-4.5,-1.2c-5.2,0,-9.4,4.2,-9.4,9.2v15c0,.1,.1,.3,.2,.3c-1.1,.8,-1.8,2,-1.8,3.4v4.7c0,.2,.2,.4,.4,.4c.2,0,.4,-.2,.4,-.4v-4.7c0,-1.9,1.5,-3.3,3.4,-3.3h1.7c.5,0,1,-.3,1.4,-.6c1,.8,2.3,1.3,3.7,1.3v7.3c0,.2,.2,.4,.4,.4c.2,0,.4,-.2,.4,-.4v-7.3c1.2,-.2,2.3,-.7,3.2,-1.5c.2,.4,.7,.8,1.3,.8h2.3c1.8,0,3.3,1.4,3.3,3.3v4.7c0,.2,.2,.4,.4,.4c.3,0,.4,-.2,.4,-.4v-4.7c0,-1.7,-.9,-3,-2.3,-3.7V706.9h8.3c1.2,0,2.2,-1,2.2,-2.1V699c0,-1.1,-1,-2.1,-2.2,-2.1m-17.3,20.5c-3.3,0,-5.9,-2.6,-5.9,-5.8v-3.1h3.5c.3,0,.4,-.2,.4,-.4v-1.9h5.4v3.7c0,.2,.1,.3,.2,.4c0,0,.1,0,.2,0c0,0,.1,0,.2,-.1l1.9,-1.4v2.8c0,3.2,-2.7,5.8,-5.9,5.8m-5.5,2.6h-1.7c-.7,0,-1.3,.2,-1.8,.4v-15c0,-4.6,3.8,-8.4,8.6,-8.4c1.4,0,2.8,.4,4.1,1c-.2,.3,-.3,.7,-.3,1v6.4h-5.8c-.2,0,-.4,.2,-.4,.4v1.9h-3.5c-.2,0,-.4,.2,-.4,.4v3.5c0,2,.9,3.8,2.4,5v2.2c0,.2,-.1,.4,-.2,.5q0,.1,-.1,.2c-.2,.3,-.5,.5,-.9,.5m5.1,.7c-1.2,0,-2.4,-.4,-3.3,-1.2c.1,-.2,.2,-.4,.2,-.7v-1.6c1,.6,2.2,1,3.5,1c1.3,0,2.5,-.4,3.5,-1V719q0,.1,-.1,.1c-.9,1,-2.3,1.6,-3.8,1.6m7.6,-.7h-2.3c-.4,0,-.6,-.3,-.6,-.6v-2.8c1.4,-1.2,2.3,-3,2.3,-5v-3.4l1.6,-1.2v13.1c-.3,-.1,-.7,-.1,-1,-.1m11.5,-15.2c0,.7,-.6,1.3,-1.4,1.3h-9.2c0,0,-.1,.1,-.2,.1l-3.7,2.9V699c0,-.7,.6,-1.3,1.4,-1.3H1599c.8,0,1.4,.6,1.4,1.3Z" class="g8_3"/>
<path d="M1597.4,700.4h-8.5c-.2,0,-.4,.2,-.4,.4c0,.2,.2,.4,.4,.4h8.5c.2,0,.4,-.2,.4,-.4c0,-.2,-.2,-.4,-.4,-.4Z" class="g8_3"/>
<path d="M1594.9,703.5h-6c-.2,0,-.4,.1,-.4,.4c0,.2,.2,.3,.4,.3h6c.3,0,.4,-.1,.4,-.3c0,-.3,-.1,-.4,-.4,-.4Z" class="g8_3"/>
<path d="M1584.4,713.4c-.7,.7,-1.6,1.1,-2.7,1.1c-1,0,-2.1,-.4,-2.8,-1.2c-.1,-.2,-.3,-.2,-.5,-.1c-.2,.2,-.2,.4,-.1,.6c.9,1,2.1,1.5,3.4,1.5c1.3,0,2.5,-.5,3.3,-1.4c.2,-.1,.2,-.4,0,-.5c-.2,-.2,-.4,-.2,-.6,0Z" class="g8_3"/>
<path d="M1588.4,943.5c19,0,34.5,-15.4,34.5,-34.4c0,-19,-15.5,-34.4,-34.5,-34.4c-19,0,-34.4,15.4,-34.4,34.4c0,19,15.4,34.4,34.4,34.4Z" class="g7_3"/>
<path d="M1589.2,922.6c-6.4,0,-11.5,-5.1,-11.5,-11.5c0,-6.4,5.1,-11.6,11.5,-11.6c6.3,0,11.5,5.2,11.5,11.6c0,6.4,-5.2,11.5,-11.5,11.5m0,-22.2c-5.9,0,-10.7,4.8,-10.7,10.7c0,5.9,4.8,10.7,10.7,10.7c5.8,0,10.6,-4.8,10.6,-10.7c0,-5.9,-4.8,-10.7,-10.6,-10.7Z" class="g8_3"/>
<path d="M1609.3,923.4c-.3,0,-.4,-.2,-.4,-.5V909.6h-4.4c-.2,0,-.4,-.2,-.4,-.4c0,-10.8,4.8,-14,5,-14.1c0,0,.1,-.1,.2,-.1c.1,0,.1,.1,.2,.1c.1,.1,.2,.2,.2,.4v27.4c0,.3,-.2,.5,-.4,.5m-.9,-26.5c-.4,.5,-.8,1.1,-1.2,1.7c-1,1.8,-2.2,4.9,-2.3,9.9v.2h4V896.4Z" class="g8_3"/>
<path d="M1572,923.4c-.2,0,-.4,-.2,-.4,-.5V905.5h-2c-.7,0,-1.3,-.6,-1.3,-1.4v-8.6c0,-.3,.1,-.5,.4,-.5c.2,0,.4,.2,.4,.5v8.6c0,.3,.2,.5,.5,.5h2v-9.1c0,-.3,.2,-.5,.4,-.5c.2,0,.4,.2,.4,.5v9.1h2c.2,0,.5,-.2,.5,-.5v-8.6c0,-.3,.2,-.5,.4,-.5c.2,0,.4,.2,.4,.5v8.6c0,.8,-.6,1.4,-1.3,1.4h-2v17.4c0,.3,-.2,.5,-.4,.5Z" class="g8_3"/>
<path d="M1367,943.5c19.1,0,34.5,-15.4,34.5,-34.4c0,-19,-15.4,-34.4,-34.5,-34.4c-19,0,-34.4,15.4,-34.4,34.4c0,19,15.4,34.4,34.4,34.4Z" class="g7_3"/>
<path d="M1383.3,922.7c-.2,0,-.4,-.1,-.4,-.4v-5.8c0,-.2,-.1,-.3,-.2,-.3h-31.3c-.1,0,-.2,.1,-.2,.3v5.8c0,.3,-.2,.4,-.4,.4c-.3,0,-.5,-.1,-.5,-.4V902.1c0,-.3,.2,-.5,.5,-.5c.2,0,.4,.2,.4,.5V910c0,.1,.1,.2,.2,.2h1.4c0,0,.1,0,.2,-.1c0,-.1,0,-.2,-.1,-.2c-.3,-.4,-.4,-.8,-.4,-1.2c0,-1.3,1.6,-2.3,3.6,-2.3c2,0,3.6,1,3.6,2.3c0,.4,-.2,.8,-.4,1.2c-.1,0,-.1,.1,-.1,.2q.1,.1,.2,.1h23.3c.1,0,.2,-.1,.2,-.2v-2.3c0,-.3,.2,-.4,.4,-.4c.2,0,.4,.1,.4,.4v14.6c0,.3,-.2,.4,-.4,.4m-31.9,-11.6c-.1,0,-.2,.1,-.2,.2v3.9c0,.1,.1,.2,.2,.2h31.3c.1,0,.2,-.1,.2,-.2v-3.9c0,-.1,-.1,-.2,-.2,-.2Zm4.7,-3.9c-1.7,0,-2.8,.8,-2.8,1.5c0,.8,1.1,1.5,2.8,1.5c1.6,0,2.8,-.7,2.8,-1.5c0,-.7,-1.2,-1.5,-2.8,-1.5Z" class="g8_3"/>
<path d="M1375.7,896c0,-1.6,-1.3,-2.8,-2.9,-2.8c-.3,0,-.7,0,-1,.2c1.1,.4,1.9,1.4,1.9,2.6c0,1.2,-.8,2.3,-1.9,2.7c.3,.1,.7,.2,1,.2c1.6,0,2.9,-1.3,2.9,-2.9Z" class="g8_3"/>
<path d="M1589.7,1139.9c19,0,34.4,-15.4,34.4,-34.5c0,-19,-15.4,-34.4,-34.4,-34.4c-19.1,0,-34.5,15.4,-34.5,34.4c0,19.1,15.4,34.5,34.5,34.5Z" class="g7_3"/>
<path d="M1605.3,1119c-1.4,0,-2.1,-.6,-2.7,-1c-.6,-.5,-1.1,-.9,-2.2,-.9c-1,0,-1.6,.4,-2.1,.9c-.7,.4,-1.4,1,-2.7,1c-1.4,0,-2.1,-.6,-2.7,-1c-.6,-.5,-1.1,-.9,-2.2,-.9c-1,0,-1.5,.4,-2.1,.9c-.6,.4,-1.3,1,-2.7,1c-1.3,0,-2.1,-.6,-2.7,-1c-.6,-.5,-1.1,-.9,-2.1,-.9c-1.1,0,-1.6,.4,-2.2,.9c-.6,.4,-1.3,1,-2.7,1c-1.3,0,-2,-.6,-2.7,-1c-.5,-.4,-1,-.8,-1.8,-.8v-.9c1.1,0,1.8,.5,2.4,1c.5,.4,1.1,.8,2.1,.8c1.1,0,1.6,-.4,2.2,-.8c.3,-.2,.5,-.4,.8,-.6l.2,-.1l-2.2,-10.2c0,-.2,.1,-.4,.3,-.5l3.8,-1.6l1.1,-9.4h3.2l.4,-3.5h2.2v-3.3h5v3.3h2.2l.4,3.5h3.2l1.1,9.4l3.8,1.6c.2,.1,.3,.3,.3,.5l-2.2,10.2l.2,.1c.4,.2,.6,.4,.9,.6c.6,.4,1.1,.8,2.2,.8c1,0,1.5,-.4,2.1,-.8c.6,-.5,1.3,-1,2.4,-1v.9c-.9,0,-1.3,.4,-1.9,.8c-.6,.4,-1.3,1,-2.6,1m-14.6,-2.7c1.4,0,2.1,.5,2.7,1c.6,.4,1.1,.8,2.2,.8c1.1,0,1.6,-.4,2.1,-.8c.7,-.5,1.4,-1,2.7,-1c.2,0,.4,0,.5,0h.3l2,-9.7l-12.1,-5.4v11.5h-.8v-11.5l-12.1,5.4l2,9.7h.3c.2,0,.4,0,.6,0c1.3,0,2,.5,2.6,1c.6,.4,1.1,.8,2.2,.8c1.1,0,1.6,-.4,2.2,-.8c.6,-.5,1.3,-1,2.6,-1m-8.5,-12.4l8.3,-3.7q.1,0,.1,-.1q.1,0,.1,0h.1q0,.1,.1,.1l8.3,3.7l-1,-8.1h-15Zm4.2,-9h8.5l-.3,-2.6h-2.3v-3.4h-3.2v3.4h-2.3Z" class="g8_3"/>
<path d="M1595.6,1122.8c-1.4,0,-2.1,-.5,-2.7,-1c-.6,-.4,-1.1,-.8,-2.1,-.8c-1.1,0,-1.6,.4,-2.2,.8c-.6,.5,-1.3,1,-2.7,1c-1.3,0,-2,-.5,-2.7,-1c-.6,-.4,-1.1,-.8,-2.1,-.8c-1.1,0,-1.6,.4,-2.2,.8c-.6,.5,-1.2,1,-2.4,1v-.9c.9,0,1.4,-.4,1.9,-.8c.6,-.4,1.3,-1,2.7,-1c1.3,0,2,.6,2.6,1c.6,.5,1.1,.9,2.2,.9c1.1,0,1.6,-.4,2.2,-.9c.6,-.4,1.3,-1,2.7,-1c1.3,0,2,.6,2.6,1c.6,.5,1.1,.9,2.2,.9c1.1,0,1.6,-.4,2.2,-.9c.6,-.4,1.3,-1,2.6,-1c1.4,0,2.1,.6,2.7,1c.5,.4,1,.8,1.9,.8v.9c-1.2,0,-1.8,-.5,-2.4,-1c-.6,-.4,-1.1,-.8,-2.2,-.8c-1,0,-1.5,.4,-2.1,.8c-.6,.5,-1.4,1,-2.7,1Z" class="g8_3"/>
<path d="M1371.7,1238.1c19.1,0,34.5,-15.5,34.5,-34.5c0,-19,-15.4,-34.4,-34.5,-34.4c-19,0,-34.4,15.4,-34.4,34.4c0,19,15.4,34.5,34.4,34.5Z" class="g7_3"/>
<path d="M1380.1,1219.3c-.1,0,-.3,0,-.3,-.2l-1.6,-2l-.2,.1q-.1,0,-.1,0h-12.4l-.2,-.1l-1.6,2c-.1,.2,-.2,.2,-.3,.2c-.1,0,-.2,0,-.3,-.1c-.1,-.1,-.2,-.2,-.2,-.3c0,-.1,0,-.2,.1,-.3l4,-4.9h-3.1c-2.5,0,-4.5,-2,-4.5,-4.5v-16.4c0,-3.3,4,-4.9,12.3,-4.9c8.3,0,12.4,1.6,12.4,4.9v16.4c0,2.5,-2,4.5,-4.5,4.5h-3.1l4,4.9c0,.1,.1,.2,.1,.3c0,.1,-.1,.2,-.2,.3c-.1,.1,-.2,.1,-.3,.1m-14.1,-3h11.5l-2.1,-2.6h-7.3Zm-5.7,-7.1c0,2,1.6,3.6,3.6,3.6h15.7c2,0,3.6,-1.6,3.6,-3.6V1204h-22.9Zm11.9,-6.1h11V1194h-11v9.1Zm-11.9,0h11V1194h-11v9.1Zm11.4,-14.3c-7.5,0,-11.4,1.4,-11.4,4v.3h22.9v-.3c0,-2.6,-3.9,-4,-11.5,-4Z" class="g8_3"/>
<path d="M1364.8,1210.4c-1.3,0,-2.3,-1,-2.3,-2.3c0,-1.3,1,-2.3,2.3,-2.3c1.3,0,2.4,1,2.4,2.3c0,1.3,-1.1,2.3,-2.4,2.3m0,-3.7c-.8,0,-1.4,.6,-1.4,1.4c0,.8,.6,1.4,1.4,1.4c.8,0,1.5,-.6,1.5,-1.4c0,-.8,-.7,-1.4,-1.5,-1.4Z" class="g8_3"/>
<path d="M1378.7,1210.4c-1.3,0,-2.4,-1,-2.4,-2.3c0,-1.3,1.1,-2.3,2.4,-2.3c1.2,0,2.3,1,2.3,2.3c0,1.3,-1.1,2.3,-2.3,2.3m0,-3.7c-.8,0,-1.5,.6,-1.5,1.4c0,.8,.7,1.4,1.5,1.4c.7,0,1.4,-.6,1.4,-1.4c0,-.8,-.7,-1.4,-1.4,-1.4Z" class="g8_3"/>
<path d="M1367,845.3c19,0,34.5,-15.4,34.5,-34.4c0,-19,-15.5,-34.4,-34.5,-34.4c-19,0,-34.4,15.4,-34.4,34.4c0,19,15.4,34.4,34.4,34.4Z" class="g7_3"/>
<path d="M1364.3,798.9c-.1,0,-.2,0,-.3,0c-1.7,-.2,-3,-1.7,-2.8,-3.5c.1,-1.6,1.5,-2.8,3.1,-2.8c.1,0,.2,0,.3,0c1.8,.2,3.1,1.7,2.9,3.5c-.2,1.6,-1.5,2.8,-3.2,2.8m0,-5.5c-.5,0,-1,.2,-1.4,.5c-.5,.4,-.8,1,-.9,1.6c0,.6,.1,1.2,.5,1.7c.4,.5,1,.8,1.6,.9c.1,0,.2,0,.2,0c1.2,0,2.2,-.9,2.3,-2.1c.1,-.6,-.1,-1.2,-.5,-1.7c-.4,-.5,-.9,-.8,-1.5,-.9c-.1,0,-.2,0,-.3,0Z" class="g8_3"/>
<path d="M1369.2,825.7c-.3,0,-.6,-.1,-.8,-.2c-.4,-.2,-.7,-.6,-.8,-1l-2.1,-6.4l-2.6,-3.1l-1.6,3.6q0,.1,-.1,.2l-6,5.2c-.3,.3,-.7,.5,-1.1,.5c-.5,0,-.9,-.2,-1.2,-.5c-.3,-.3,-.5,-.8,-.4,-1.2c0,-.4,.1,-.8,.5,-1.1l4.8,-5.1l1.8,-5.7l.6,-5.8l-2,1.7l-1.2,3.8c-.1,.4,-.5,.8,-.9,1c-.2,.2,-.5,.2,-.8,.2c-.2,0,-.4,0,-.6,-.1c-.8,-.3,-1.3,-1.3,-1,-2.2l1.4,-4.6c0,-.1,.1,-.2,.1,-.2l4.8,-3.9c.5,-.4,1.2,-.7,1.9,-.7c.1,0,.2,0,.3,0l3.6,.4c.6,.1,1.2,.3,1.6,.7l3.7,3l3.9,.4c1,.1,1.7,1,1.6,1.9c0,.5,-.2,.9,-.6,1.2c-.3,.3,-.7,.4,-1.1,.4q-.1,0,-.2,0l-4.9,-.5c-.1,0,-.1,-.1,-.2,-.1l-3,-2.5l-.7,6.4l3.5,4.6c0,0,0,.1,0,.2l1.4,7.5c.1,.5,0,.9,-.2,1.3c-.2,.3,-.6,.6,-1,.7c-.1,0,-.3,0,-.4,0m-8.5,-22c.1,0,.2,0,.2,.1c.2,.1,.3,.2,.2,.4l-.6,6.6l5.8,6.8c0,0,0,.1,0,.1l2.1,6.5q.1,0,.1,.1c0,.2,.1,.4,.3,.5c.1,0,.3,.1,.4,.1q.1,0,.2,0c.2,-.1,.4,-.2,.5,-.4c.1,-.2,.1,-.4,.1,-.6l-1.4,-7.5l-3.5,-4.6c0,-.1,0,-.2,0,-.3l.7,-7.4c0,-.1,.1,-.3,.3,-.3c0,-.1,.1,-.1,.1,-.1c.1,0,.2,.1,.3,.1l3.5,3l4.8,.4c0,0,.1,0,.1,0c.2,0,.4,0,.5,-.2c.2,-.1,.3,-.3,.4,-.6c0,-.5,-.4,-.9,-.9,-.9l-4,-.4c-.1,-.1,-.2,-.1,-.3,-.1l-3.7,-3.2c-.3,-.2,-.7,-.4,-1.2,-.4l-3.6,-.4q-.1,0,-.2,0c-.5,0,-1,.1,-1.4,.5l-4.6,3.8l-1.4,4.5c-.1,.4,.1,.9,.5,1.1c.1,0,.2,.1,.3,.1c.2,0,.3,-.1,.4,-.1c.2,-.1,.4,-.3,.5,-.6l1.2,-3.9c0,-.1,.1,-.2,.1,-.2l2.9,-2.4c.1,0,.2,-.1,.3,-.1m-2.1,13.3c-.1,0,-.1,.1,-.1,.1l-4.9,5.2h-.1c-.1,.1,-.2,.3,-.2,.5c0,.2,.1,.4,.2,.6c.2,.1,.4,.2,.6,.2c.2,0,.4,0,.5,-.2l6,-5.2l1.7,-4l-2.1,-2.4Z" class="g8_3"/>
<path d="M1374.7,799.1v-7.6c0,-.2,.2,-.3,.4,-.3c.2,0,.4,.1,.4,.3v.7c1.8,-2,3.5,-1.1,5.2,-.2c1.7,.9,3.3,1.8,5,-.8c.1,-.2,.3,-.2,.5,-.1c.1,.1,.2,.2,.2,.4l-.9,3.4l.8,2.1c.1,.2,.1,.3,0,.4c-2,3.2,-4,2.2,-5.9,1.1c-1.7,-.9,-3.3,-1.8,-4.9,.7v5.5c0,.2,-.2,.4,-.4,.4c-.2,0,-.4,-.2,-.4,-.4Zm.8,-5.7V798c1.8,-2,3.5,-1.1,5.2,-.2c1.6,.9,3.3,1.8,4.8,-.7l-.8,-2c0,0,0,-.1,0,-.2l.5,-1.9c-1.6,1.4,-3.2,.6,-4.8,-.3c-1.7,-.9,-3.3,-1.7,-4.9,.7Z" class="g8_3"/>
<path d="M1588.4,845.3c19,0,34.5,-15.4,34.5,-34.4c0,-19,-15.5,-34.4,-34.5,-34.4c-19,0,-34.4,15.4,-34.4,34.4c0,19,15.4,34.4,34.4,34.4Z" class="g7_3"/>
<path d="M1609.2,809.4c.2,0,.3,-.2,.3,-.4v-2c0,-.1,-.1,-.3,-.3,-.3h-9c-.5,-.3,-.7,-.7,-.7,-1.2c0,-.9,.6,-1.6,1.4,-1.6c.2,0,.4,-.1,.4,-.3v-2c0,-.2,-.2,-.4,-.4,-.4c-.8,0,-1.4,-.6,-1.4,-1.5c0,-.8,.6,-1.5,1.4,-1.5c.2,0,.4,-.2,.4,-.3v-2c0,-.2,-.2,-.4,-.4,-.4h-33.4c-.2,0,-.3,.2,-.3,.4v2c0,.1,.1,.3,.3,.3c.8,0,1.5,.7,1.5,1.5c0,.9,-.7,1.5,-1.5,1.5c-.2,0,-.3,.2,-.3,.4v2c0,.2,.1,.3,.3,.3c.8,0,1.5,.7,1.5,1.6c0,.8,-.7,1.5,-1.5,1.5c-.2,0,-.3,.1,-.3,.3v2c0,.2,.1,.4,.3,.4c.8,0,1.5,.6,1.5,1.5c0,.8,-.7,1.5,-1.5,1.5c-.2,0,-.3,.2,-.3,.3v2c0,.2,.1,.4,.3,.4h33.4c.2,0,.4,-.2,.4,-.4v-2c0,-.1,-.2,-.3,-.4,-.3c-.8,0,-1.4,-.7,-1.4,-1.5c0,-.9,.6,-1.5,1.4,-1.5c.2,0,.4,-.2,.4,-.4v-1.9h2v18.5h-22.9V815.4h-.6v10.5h-3.7v-1.4h.1c1,-.2,1.7,-1.1,1.7,-2.1c0,-1,-.7,-1.9,-1.7,-2.1l-.1,-.1v-1.4h.1c1,-.3,1.7,-1.2,1.7,-2.2c0,-.4,-.1,-.8,-.4,-1.2h-.9l.1,.1c.4,.3,.6,.7,.6,1.1c0,.9,-.7,1.6,-1.5,1.6c-.2,0,-.3,.1,-.3,.3v2c0,.2,.1,.3,.3,.3c.8,0,1.5,.7,1.5,1.6c0,.8,-.7,1.5,-1.5,1.5c-.2,0,-.3,.1,-.3,.3v2c0,.2,.1,.4,.3,.4h33.4c.2,0,.3,-.2,.3,-.4v-2q0,-.1,-.1,-.2c0,-.1,-.1,-.1,-.2,-.1c-.8,0,-1.5,-.7,-1.5,-1.5c0,-.5,.2,-.9,.5,-1.2c.3,-.2,.6,-.4,1,-.4c.2,0,.3,-.1,.3,-.3v-2c0,-.2,-.1,-.3,-.3,-.3c-.8,0,-1.5,-.7,-1.5,-1.6c0,-.4,.2,-.8,.5,-1.1c.3,-.2,.6,-.4,1,-.4c.2,0,.3,-.1,.3,-.3v-2.1c0,-.1,-.1,-.3,-.3,-.3c-.8,0,-1.5,-.7,-1.5,-1.5c0,-.8,.7,-1.5,1.5,-1.5m-2.1,1.5c0,1,.7,1.9,1.6,2.1l.2,.1v1.4h-.2c-.5,.1,-.9,.5,-1.2,.9c0,0,0,.1,-.1,.1c-.1,.1,-.2,.3,-.2,.5c-.1,.2,-.1,.4,-.1,.6c0,.4,.1,.8,.3,1.1c.2,.4,.6,.7,1,.9c.1,.1,.2,.1,.3,.2h.2v1.4l-.2,.1c-.9,.2,-1.6,1.1,-1.6,2.1c0,1,.7,1.9,1.6,2.1h.2v1.4h-5V807.4h5v1.3l-.2,.1c-.9,.2,-1.6,1.1,-1.6,2.1m-12.1,3.8h-22.8V796.2H1595v18.5Zm5,-7.3c.1,0,.3,.1,.5,.2h.1V809l-.1,.1c-1,.2,-1.7,1.1,-1.7,2.1c0,1,.7,1.9,1.7,2.1h.1v1.4h-5V796.2h5v1.4h-.1c-1,.2,-1.7,1.1,-1.7,2.1c0,1,.7,1.9,1.7,2.1l.1,.1v1.4h-.1c-1,.3,-1.7,1.1,-1.7,2.2c0,.8,.5,1.5,1.2,1.9Zm-30.4,3.8c0,-1,-.7,-1.9,-1.6,-2.1l-.2,-.1v-1.4h.2c.9,-.2,1.6,-1.1,1.6,-2.1c0,-1.1,-.7,-1.9,-1.6,-2.2h-.2v-1.4l.2,-.1c.9,-.2,1.6,-1.1,1.6,-2.1c0,-1,-.7,-1.9,-1.6,-2.1h-.2v-1.4h3.8v18.5h-3.8v-1.4h.2c.9,-.2,1.6,-1.1,1.6,-2.1Z" class="g8_3"/>
<path clip-path="url(#c3_3)" d="M1577.1,805.7h14.6v-1.4h-14.6v1.4Zm1.2,7h1.5v-6.5h-1.5v6.5Zm2,0h2.8v-6.5h-2.8v6.5Zm3.3,0h1.6v-6.5h-1.6v6.5Zm2.1,0h2.7v-6.5h-2.7v6.5Zm3.2,0h1.6v-6.5h-1.6v6.5Zm-12.3,.4c-.1,0,-.1,-.1,-.1,-.2c0,-.1,0,-.2,.1,-.2h1.2v-6.5h-.9c-.2,0,-.3,-.1,-.3,-.2v-1.7h-1.2c-.1,0,-.2,0,-.2,-.2c-.1,-.1,0,-.2,.1,-.2l9,-5.3c0,-.1,.1,-.1,.1,-.1q.1,0,.1,.1l3.5,2c.1,.1,.1,.2,.1,.3c-.1,.1,-.2,.1,-.3,.1h-.1l-3.3,-1.9l-8.1,4.7h16.2l-3.5,-2c-.1,-.1,-.1,-.2,-.1,-.4c.1,0,.2,-.1,.2,-.1q.1,0,.2,0l4.2,2.6c.1,0,.2,.1,.2,.2c-.1,.2,-.2,.2,-.3,.2h-1.2V806c0,.1,-.1,.2,-.3,.2h-.9v6.5h1c.1,0,.2,.1,.2,.2c0,.1,-.1,.2,-.2,.2Z" class="g8_3"/>
<path d="M1367.8,1041.7c19,0,34.4,-15.4,34.4,-34.4c0,-19.1,-15.4,-34.5,-34.4,-34.5c-19,0,-34.4,15.4,-34.4,34.5c0,19,15.4,34.4,34.4,34.4Z" class="g7_3"/>
<path d="M1353.8,1003c.1,-1,.2,-1.9,.4,-2.8c0,-.5,.8,-.5,.7,0c-.1,1,-.3,2,-.4,3c-.1,.5,-.8,.3,-.7,-.2m1,-3.9c.4,0,.4,-.7,0,-.7c-.5,0,-.5,.7,0,.7m11.8,25.9c-.3,1,-2.4,1.4,-3.2,1.5c-1.9,.3,-3.8,.5,-5.7,.4c-1.3,-.1,-6.1,-.1,-6.3,-1.9c-.3,-2.2,5.3,-2.2,6.5,-2.2c0,-2.3,0,-4.6,0,-6.9v-.1c-2.9,-.4,-5.3,-2.5,-6,-5.4c-1.1,-4.3,.5,-9,1.4,-13.2c0,-.1,.1,-.2,.2,-.2c0,0,.1,-.1,.1,-.1h.1c3.5,.2,7.1,.2,10.7,0c.2,0,.3,.1,.4,.3c2.1,5.9,4.1,17.9,-4.7,18.7c0,2.3,0,4.5,0,6.8c1.4,0,7.1,.1,6.5,2.3m-14.2,-18.7c1.8,-.6,3.5,-.8,5.4,-.4c2.9,.6,5.1,.8,7.9,-.5c0,0,.1,0,.1,0c-.2,-2.8,-.9,-5.7,-1.7,-7.7c-3.4,.2,-6.8,.1,-10.1,0c-.6,2.8,-1.4,5.7,-1.6,8.6m7.1,8.9c5.2,-.2,6.5,-4.5,6.4,-9c-1.9,.8,-3.7,1.3,-5.8,1c-1.2,-.2,-2.3,-.6,-3.5,-.7c-1.5,-.1,-2.9,.1,-4.3,.6c0,.4,0,.8,0,1.2c.2,4,3.1,7.1,7.2,6.9m5.9,9.2c-.2,-.3,-1.2,-.5,-1.5,-.5c-1.3,-.3,-2.5,-.4,-3.8,-.4c0,.3,0,.6,0,.9c0,.5,-.8,.5,-.8,0c.1,-2.8,.1,-5.6,0,-8.4c-.2,0,-.4,0,-.6,-.1c0,2.8,0,5.7,-.1,8.5c0,.5,-.7,.5,-.7,0c0,-.3,0,-.6,0,-.9c-1.3,0,-2.5,.1,-3.8,.4c-.8,.2,-2.5,.7,-1.2,1.5c1.2,.7,3.4,.6,4.8,.7c2.1,.1,4.5,.1,6.6,-.5c.4,-.2,1.7,-.4,1.1,-1.2m18.7,-.4c-.5,3.4,-5.6,2.5,-8,2.6c-2.9,0,-6.3,.3,-6.4,-3.4c-.2,-4.9,-.2,-9.9,0,-14.8c.1,-1.4,.3,-2.9,1,-4.1c.6,-1.1,1.3,-1.2,1.5,-2.4c.6,-3.2,1.3,-6.4,1.6,-9.6q-.1,0,-.1,-.1c-.1,0,-.1,-.1,-.2,-.2c-.1,-.1,-.3,-.2,-.4,-.4c-.2,-.4,.1,-.8,.2,-1.2c0,0,-.1,0,-.2,.1c-.2,0,-.4,-.1,-.5,-.2c0,-.1,-.1,-.2,0,-.4c.1,-.7,.4,-1.6,1,-2c.9,-.5,2.6,-.2,3.5,-.2c.9,0,2.4,-.2,3.2,.4c.5,.4,.7,1.2,.9,1.8c0,.3,-.2,.7,-.5,.6c-.1,0,-.2,0,-.3,0c.2,.3,.4,.7,.2,1c-.2,.3,-.5,.5,-.7,.7c.2,1.7,.5,3.5,.8,5.2c.2,1.5,.2,3.8,.9,5.2c.4,.8,1.6,1.4,2,2.6c.5,1.2,.6,2.4,.6,3.6c0,2.5,0,5,-.1,7.5c0,2.5,.3,5.2,0,7.7m-3.9,-23.9c-.2,-1.5,-.5,-2.9,-.7,-4.4c-1.8,.2,-3.5,.4,-5.3,.2c-.3,1.8,-.6,3.6,-.9,5.4c2.3,.2,4.7,.1,7,-.1c0,-.4,0,-.8,-.1,-1.1m-5.9,-9.6c-.1,.2,-.2,.4,-.2,.6c-.1,0,-.1,.1,-.1,.1c.1,.1,.2,.2,.3,.3c1.7,.2,3.4,.2,5.1,-.1c0,0,.1,0,.1,0c0,-.1,.1,-.1,.1,-.2c0,0,.1,0,.1,0c-.1,-.2,-.2,-.3,-.3,-.5c-.1,.1,-.2,.1,-.4,.1c-.2,-.1,-.4,-.2,-.6,-.3c0,0,-.2,0,-.3,-.1c-.2,.1,-.7,.3,-.9,.3c-.3,0,-.6,-.2,-1,-.2c-.2,0,-.4,.1,-.8,.1c-.4,0,-.8,-.1,-1.1,-.1m.1,4.4c1.6,.2,3.3,.1,4.9,-.1c-.1,-.8,-.2,-1.6,-.3,-2.4c-1.4,.2,-2.9,.2,-4.3,0c-.1,.9,-.2,1.7,-.3,2.5m-.6,-5.5c.2,-.1,.3,-.1,.5,0c.3,0,.7,.3,.9,.3c.2,0,.7,-.2,1,-.2c.2,0,.8,.3,.9,.3c.2,0,.7,-.4,1.1,-.3c.3,0,.6,.2,.9,.3q.1,0,.1,0c.2,-.1,.3,-.2,.4,-.3c.2,0,.3,0,.5,0c-.1,-.3,-.3,-.6,-.8,-.8c-.6,-.2,-1.5,-.1,-2.2,-.1c-1.2,0,-2.6,-.2,-3.3,.8m9.2,17c-.1,-.6,-.3,-1.2,-.7,-1.7c-.4,-.6,-1,-.7,-1.4,-1.3c-.1,-.1,-.1,-.2,-.2,-.3c-.1,-.3,-.2,-.6,-.2,-1c-2.5,.3,-4.9,.3,-7.4,.1c0,.5,-.1,.9,-.3,1.2c-.8,1.1,-1.6,1.7,-2,3.2c-.1,.7,-.2,1.4,-.2,2.2c-.1,4.5,0,9,0,13.4c0,1.6,.1,2.8,2,3.4c2,.5,4.6,0,6.6,0c1.9,0,3.8,-.3,3.9,-2.4c.1,-1.1,.1,-2.2,.1,-3.3c0,-2.8,0,-5.6,0,-8.5c.1,-1.6,.2,-3.4,-.2,-5m-5.8,15.6c-7,1,-7,-12.8,-.6,-13.7h.1c0,0,0,-.1,0,-.1c6.9,0,7.3,12.9,.5,13.8m-.4,-12.8c-5.3,.9,-5.5,12.4,.3,11.8c5.5,-.5,5.4,-11.8,-.3,-11.8m-4.2,-.5c.2,-1,.6,-1.9,1.4,-2.7c.4,-.4,-.2,-1.1,-.7,-.6c-.8,.8,-1.4,1.9,-1.6,3.1c-.1,.6,.8,.8,.9,.2m1.8,-3.7c.6,0,.6,-.9,0,-.9c-.6,0,-.6,.9,0,.9Z" class="g8_3"/>
<path d="M1589.7,1041.7c19,0,34.4,-15.4,34.4,-34.4c0,-19.1,-15.4,-34.5,-34.4,-34.5c-19.1,0,-34.5,15.4,-34.5,34.5c0,19,15.4,34.4,34.5,34.4Z" class="g7_3"/>
<path d="M1579.7,1022.6c-.3,0,-.5,-.2,-.5,-.5v-16.9c0,-.2,.2,-.4,.5,-.4h1.5c0,0,.1,-.1,.1,-.2v-5c0,-4.2,3.7,-7.6,8.3,-7.6c2.2,0,4.3,.8,5.8,2.2c1.6,1.5,2.5,3.4,2.5,5.4v5c0,.1,0,.2,.1,.2h1.5c.2,0,.4,.2,.4,.4v16.9c0,.3,-.2,.5,-.4,.5Zm.6,-17c-.1,0,-.2,.1,-.2,.1v15.9c0,.1,.1,.1,.2,.1h18.6q.1,0,.1,-.1v-15.9c0,0,0,-.1,-.1,-.1Zm9.3,-11.1c1.5,0,2.8,.6,3.9,1.5c1,1,1.6,2.3,1.6,3.6v5c0,.1,0,.2,.1,.2h1.6c.1,0,.2,-.1,.2,-.2v-5c0,-1.8,-.8,-3.5,-2.2,-4.8c-1.4,-1.3,-3.2,-2,-5.2,-2c-4.1,0,-7.4,3.1,-7.4,6.8v5c0,.1,.1,.2,.1,.2h1.6c.1,0,.2,-.1,.2,-.2v-5c0,-2.8,2.4,-5.1,5.5,-5.1m0,.9c-2.6,0,-4.6,1.9,-4.6,4.2v5c0,.1,0,.2,.1,.2h8.9c.1,0,.2,-.1,.2,-.2v-5c0,-1.1,-.5,-2.2,-1.4,-3c-.8,-.8,-2,-1.2,-3.2,-1.2Z" class="g8_3"/>
<path d="M1597.4,1020.7c-.2,0,-.4,-.1,-.4,-.4v-11.7c0,-.3,.2,-.4,.4,-.4c.3,0,.5,.1,.5,.4v11.7c0,.3,-.2,.4,-.5,.4Z" class="g8_3"/>
<path d="M1597.4,1007.4c-.2,0,-.3,-.1,-.4,-.2c-.1,-.2,0,-.4,.2,-.5c0,-.1,.1,-.1,.2,-.1c.1,0,.3,0,.3,.1c.1,.1,.2,.2,.2,.3c0,.1,-.1,.2,-.2,.3c0,.1,-.2,.1,-.3,.1Z" class="g8_3"/>
<path d="M1588.7,1017.1c-.2,0,-.3,0,-.4,-.1l-2.9,-2.7c-.1,-.1,-.1,-.2,-.1,-.3c0,-.1,0,-.2,.1,-.3c.1,-.1,.2,-.1,.3,-.1c.2,0,.3,0,.4,.1l2.4,2.3c0,0,.1,0,.1,0q.1,0,.1,0l4.4,-5c.1,-.1,.2,-.2,.3,-.2c.1,0,.2,0,.3,.1c.1,.1,.2,.2,.2,.3c0,.1,0,.2,-.1,.3l-4.8,5.5c-.1,.1,-.2,.1,-.3,.1Z" class="g8_3"/>
<path d="M1367.8,1139.9c19,0,34.4,-15.4,34.4,-34.5c0,-19,-15.4,-34.4,-34.4,-34.4c-19,0,-34.4,15.4,-34.4,34.4c0,19.1,15.4,34.5,34.4,34.5Z" class="g7_3"/>
<path d="M1351.1,1104.4c-.2,0,-.4,-.2,-.4,-.4c0,-.3,.2,-.4,.4,-.4h26.5c2,0,3.6,-1.8,3.6,-3.9c0,-1.3,-.6,-2.4,-1.5,-3.2l-5.5,-5.2q-.1,0,-.1,0c-3.5,-2.7,-7.7,-4.1,-12.1,-4.1h-10.9c-.2,0,-.4,-.2,-.4,-.4c0,-.3,.2,-.5,.4,-.5H1362c4.5,0,8.9,1.5,12.6,4.3c0,0,.1,0,.1,0l5.5,5.2c0,0,0,.1,0,.1c1.1,.8,1.8,2.3,1.8,3.8c0,2.6,-1.9,4.7,-4.4,4.7Z" class="g8_3"/>
<path d="M1378.3,1095.1h-.1l-15.8,-1.1c-.8,0,-1.5,-.7,-1.5,-1.5v-1.2c0,-.9,.7,-1.6,1.5,-1.6h10.8c.2,0,.4,.2,.4,.5c0,.2,-.2,.4,-.4,.4h-10.8c-.4,0,-.6,.3,-.6,.7v1.2c0,.3,.2,.6,.6,.6l15.9,1.1c.1,0,.2,.1,.3,.1c0,.1,.1,.2,.1,.4c0,.2,-.2,.4,-.4,.4Z" class="g8_3"/>
<path d="M1357.5,1094c-.9,0,-1.6,-.8,-1.6,-1.7v-.9c0,-.9,.7,-1.7,1.6,-1.7h.8c.8,0,1.6,.8,1.6,1.7v.9c0,.9,-.8,1.7,-1.6,1.7Zm0,-3.4c-.5,0,-.8,.4,-.8,.8v.9c0,.4,.3,.8,.8,.8h.8c.4,0,.8,-.4,.8,-.8v-.9c0,-.4,-.4,-.8,-.8,-.8Z" class="g8_3"/>
<path d="M1352.6,1094c-.9,0,-1.6,-.8,-1.6,-1.7v-.9c0,-.9,.7,-1.7,1.6,-1.7h.7c.9,0,1.6,.8,1.6,1.7v.9c0,.9,-.7,1.7,-1.6,1.7Zm0,-3.4c-.5,0,-.8,.4,-.8,.8v.9c0,.4,.3,.8,.8,.8h.7c.5,0,.8,-.4,.8,-.8v-.9c0,-.4,-.3,-.8,-.8,-.8Z" class="g8_3"/>
<path d="M1351,1110c-.2,0,-.4,-.2,-.4,-.4c0,-.3,.2,-.5,.4,-.5h29.3c.2,0,.4,.2,.4,.5c0,.2,-.2,.4,-.4,.4Z" class="g8_3"/>
<path d="M1355.5,1106.3c-.9,0,-1.7,-1,-1.7,-2.3c0,-.3,.2,-.4,.4,-.4c.2,0,.4,.1,.4,.4c0,.8,.4,1.4,.9,1.4h7.9c.5,0,.9,-.6,.9,-1.4c0,-.3,.2,-.4,.4,-.4c.3,0,.4,.1,.4,.4c0,1.3,-.7,2.3,-1.7,2.3Z" class="g8_3"/>
<path d="M1366.1,1106.3c-1,0,-1.8,-1,-1.8,-2.3c0,-.3,.2,-.4,.4,-.4c.3,0,.4,.1,.4,.4c0,.8,.5,1.4,1,1.4h7.9c.5,0,.9,-.6,.9,-1.4c0,-.3,.2,-.4,.4,-.4c.2,0,.4,.1,.4,.4c0,1.3,-.8,2.3,-1.7,2.3Z" class="g8_3"/>
</svg>