<?xml version="1.0" encoding="UTF-8" standalone="no"?>
<!DOCTYPE svg PUBLIC "-//W3C//DTD SVG 1.1//EN"
"http://www.w3.org/Graphics/SVG/1.1/DTD/svg11.dtd">
<svg viewBox="0 0 909 1286" version="1.1" xmlns="http://www.w3.org/2000/svg" xmlns:xlink="http://www.w3.org/1999/xlink">
<defs>
<clipPath id="c0_2"><path d="M30,1255.1c-1.4,0,-2.8,-.4,-4,-1.1c-2.2,-1.2,-3.6,-3.6,-3.6,-6.2v-307c0,-4,3.3,-7.3,7.3,-7.3H879c4,0,7.3,3.3,7.3,7.3v307c0,4,-3.2,7.2,-7.1,7.3Z"/></clipPath>
<clipPath id="c1_2"><path d="M720.3,705.1V30.3H879.4c4.8,0,8.7,3.9,8.7,8.7V705.1Z"/></clipPath>
<clipPath id="c2_2"><path d="M584.4,82.3C579.9,73.9,574.2,65.9,567.1,58.8C552.1,43.7,533.6,34.2,514.2,30.3H720.3v52Z"/></clipPath>
<clipPath id="c3_2"><path d="M625.4,186C613.5,156.4,602,126.5,591,96.4l-.2,.1c-1.8,-5,-4,-9.8,-6.5,-14.5h136V186Z"/></clipPath>
<clipPath id="c4_2"><path d="M669.2,290C654,255.5,639.3,220.7,625.3,185.7h95V290Z"/></clipPath>
<clipPath id="c5_2"><path d="M668.8,705.1V452.4c5.6,-12.7,11.4,-25.3,17.2,-38h-.2c6.1,-13.2,9.8,-27.9,9.8,-43.4c0,-15.6,-3.6,-30.3,-9.7,-43.5l.2,-.1c-5.7,-12.6,-11.4,-25.1,-17,-37.7h51.2V705.1Z"/></clipPath>
<clipPath id="c6_2"><path d="M617.1,705.1v-130c16.5,-41.5,33.8,-82.6,52,-123.4V705.1Z"/></clipPath>
<clipPath id="c7_2"><path d="M565.6,705.1V683.4c.2,-.2,.5,-.5,.7,-.7c11,-11,18.8,-23.9,23.8,-37.6l.2,.1c8.8,-23.7,17.8,-47.3,27.1,-70.8V705.1Z"/></clipPath>
<clipPath id="c8_2"><path d="M532.9,705.1c12,-5,23.2,-12.3,33,-22v22Z"/></clipPath>
<clipPath id="c9_2"><path d="M21.4,713.8V39c0,-4.8,3.8,-8.7,8.6,-8.7H720.3V713.8Z"/></clipPath>
<clipPath id="ca_2"><path d="M720.3,712.3V708H888.1v4.3Z"/></clipPath>
<clipPath id="cb_2"><path d="M372.5,713.8v-1.1H485c2.7,.2,5.4,.3,8,.3c4.2,0,8.4,-.2,12.5,-.7H720.3v1.5Z"/></clipPath>
<clipPath id="cc_2"><path d="M505.5,712.3c6.6,-.8,13.1,-2.2,19.5,-4.3H720.3v4.3Z"/></clipPath>
<clipPath id="cd_2"><path d="M720.3,708v-2.9H888.1V708Z"/></clipPath>
<clipPath id="ce_2"><path d="M525,708c2.7,-.9,5.3,-1.8,7.9,-2.9H720.3V708Z"/></clipPath>
<clipPath id="cf_2"><path d="M30,1255.1c-4.8,0,-8.6,-3.9,-8.6,-8.7V39c0,-4.8,3.8,-8.7,8.6,-8.7H879.4c4.7,0,8.6,3.8,8.7,8.5V1246.5c-.1,4.8,-4,8.6,-8.7,8.6Z"/></clipPath>
<clipPath id="cg_2"><path d="M77.1,740.3V716.4H243.6v23.9Z"/></clipPath>
<clipPath id="ch_2"><path d="M607.8,741.1c1.9,0,3,-.4,3.2,-.6l2.4,-2.2c.2,-.3,.4,-.5,.4,-.9c0,-.3,-.1,-.6,-.3,-.8l-3.8,-3.2h-.1c-.2,-.2,-.5,-.4,-.8,-.4c-.3,0,-.6,.1,-.8,.3l-2,1.9c-.4,.3,-.4,1,-.4,1.1l-.1,.2l-.3,.1c-.1,0,-3.4,-.3,-5.9,-3c-2.4,-2.6,-2.6,-5.9,-2.6,-6.1l.1,-.3l.3,-.1l.3,.1c0,0,.1,0,.1,0c.3,0,.6,-.1,.8,-.3l2,-1.9c.2,-.2,.3,-.5,.3,-.8c0,-.3,-.1,-.6,-.3,-.8v-.1l-2.8,-4.1c-.3,-.2,-.5,-.3,-.8,-.3q-.1,0,-.1,0c-.3,0,-.6,.1,-.8,.3l-2.5,2.3c-.5,.7,-1.9,8.3,3.8,14.4c3.9,4.2,7.7,5.1,10.3,5.2c.1,0,.3,0,.4,0Zm0,.7c-.2,0,-.3,0,-.4,0c-2.7,-.1,-6.8,-1.1,-10.8,-5.4c-3.2,-3.4,-4.2,-7.2,-4.5,-9.8c-.3,-2.8,.2,-5.1,.7,-5.6l2.5,-2.3c.2,-.2,.4,-.4,.7,-.4h1.4c.2,.1,.4,.3,.6,.4v.1l2.8,4.1c.4,.4,.6,.9,.5,1.4c0,.5,-.2,.9,-.6,1.3l-1.9,1.8c-.4,.3,-.8,.5,-1.3,.5c0,0,-.1,0,-.1,0c.2,1,.7,3.4,2.5,5.3c1.8,1.9,4.1,2.5,5,2.7c.1,-.4,.2,-.9,.6,-1.3l2,-1.8c.3,-.3,.8,-.5,1.3,-.5c.5,0,1,.2,1.3,.6l3.9,3.2c.2,.3,.4,.5,.4,.9v1c-.1,.3,-.3,.6,-.5,.8l-2.4,2.2c-.4,.4,-1.9,.8,-3.7,.8Z"/></clipPath>
<clipPath id="ci_2"><path d="M607,738.5l-.3,-.2L605,736.5c-.1,-.1,-.1,-.4,0,-.5c.1,-.1,.2,-.1,.3,-.1c.1,0,.2,.1,.2,.1l1.7,1.9c.2,.1,.2,.3,0,.5l-.2,.1Z"/></clipPath>
<clipPath id="cj_2"><path d="M597,727.8l-.2,-.1l-1.7,-1.8c-.1,-.2,-.1,-.4,0,-.5c.1,-.1,.2,-.1,.3,-.1q.1,0,.2,.1l1.7,1.8c.1,.1,.1,.4,0,.5l-.3,.1Z"/></clipPath>
<clipPath id="ck_2"><path d="M611.9,732.3c-.2,0,-.3,-.1,-.3,-.3c-.1,-.2,.1,-.4,.3,-.4c3.9,-.5,6.9,-3.6,7.1,-7.6c.1,-2.1,-.6,-4.2,-2.1,-5.8c-1.4,-1.6,-3.4,-2.5,-5.5,-2.6c-.1,0,-.3,-.1,-.4,-.1c-4.3,0,-7.8,3.4,-8.1,7.7c0,.2,-.1,.3,-.3,.3c-.2,0,-.4,-.2,-.4,-.4c.1,-1.7,.7,-3.4,1.7,-4.7l2.7,-2.4c1.3,-.7,2.8,-1.2,4.4,-1.2c.1,0,.3,0,.4,0c2.4,.2,4.5,1.2,6.1,2.9c1.5,1.8,2.3,4,2.2,6.3c-.1,2.4,-1.2,4.6,-2.9,6.1c-1.3,1.2,-3,2,-4.8,2.2q-.1,0,-.1,0Z"/></clipPath>
<clipPath id="cl_2"><path d="M611.5,725.7l-.2,-.1l-3,-1.5c-.1,-.1,-.2,-.3,-.1,-.5c0,-.1,.2,-.2,.3,-.2c0,0,.1,0,.2,.1l2.5,1.3l1.4,-3.5c.1,-.1,.2,-.2,.4,-.2c0,0,.1,0,.1,0c.2,.1,.3,.3,.2,.5l-1.5,3.9l-.2,.2h-.1Z"/></clipPath>
<clipPath id="cm_2"><path d="M611,730.4c-.3,0,-.5,0,-.8,-.1c-.2,0,-.3,-.2,-.3,-.4c0,-.2,.1,-.3,.3,-.3c0,0,.1,0,.1,0c.2,0,.4,.1,.7,.1c1.5,0,2.9,-.6,4,-1.6c2.5,-2.2,2.7,-6.1,.5,-8.6c-1.2,-1.3,-2.9,-2,-4.5,-2c-1.5,0,-2.9,.5,-4.1,1.6c-1.1,.9,-1.7,2.3,-1.9,3.7c-.1,.2,-.2,.3,-.4,.3c-.2,0,-.4,-.2,-.3,-.4c.2,-1.6,.9,-3.1,2.1,-4.2c1.3,-1.1,3,-1.7,4.6,-1.7c1.8,0,3.7,.8,5,2.2c2.5,2.8,2.3,7.1,-.5,9.6c-1.2,1.2,-2.9,1.8,-4.5,1.8Z"/></clipPath>
<style type="text/css"><![CDATA[
.g0_2{
fill: #FFF;
}
.g1_2{
fill: none;
stroke: #5AC4C1;
stroke-width: 0.785;
}
.g2_2{
fill: none;
stroke: #5AC4C1;
stroke-width: 0.391;
}
.g3_2{
fill: none;
stroke: #FFF;
stroke-width: 0.294;
stroke-miterlimit: 10;
}
.g4_2{
fill: none;
stroke: #CD7726;
stroke-width: 1.572;
stroke-linecap: round;
stroke-linejoin: round;
}
]]></style>
</defs>
<image clip-path="url(#c0_2)" preserveAspectRatio="none" x="22" y="932" width="864" height="325" xlink:href="img/1.jpg"/>
<image clip-path="url(#c1_2)" preserveAspectRatio="none" x="720" y="30" width="168" height="675" xlink:href="img/2.jpg"/>
<image clip-path="url(#c2_2)" preserveAspectRatio="none" x="514" y="30" width="207" height="52" xlink:href="img/3.jpg"/>
<image clip-path="url(#c3_2)" preserveAspectRatio="none" x="566" y="82" width="155" height="104" xlink:href="img/4.jpg"/>
<image clip-path="url(#c4_2)" preserveAspectRatio="none" x="617" y="186" width="104" height="104" xlink:href="img/5.jpg"/>
<image clip-path="url(#c5_2)" preserveAspectRatio="none" x="669" y="290" width="52" height="415" xlink:href="img/6.jpg"/>
<image clip-path="url(#c6_2)" preserveAspectRatio="none" x="617" y="445" width="52" height="260" xlink:href="img/7.jpg"/>
<image clip-path="url(#c7_2)" preserveAspectRatio="none" x="566" y="549" width="51" height="156" xlink:href="img/8.jpg"/>
<image clip-path="url(#c8_2)" preserveAspectRatio="none" x="514" y="653" width="52" height="52" xlink:href="img/9.jpg"/>
<g clip-path="url(#c9_2)">
<path fill-rule="evenodd" d="M399.5,175.6c29.4,64.1,56.1,129.2,81.1,195.1C455.4,436.4,428.5,501.5,399,565.5l.3,.1c-17.7,38.3,-11.2,85.2,20.4,116.9c40.4,40.6,106,40.7,146.6,.2c11,-11,18.8,-23.9,23.8,-37.6l.2,.1C619.2,567,651.1,490.1,686,414.4h-.2c6.1,-13.3,9.8,-27.9,9.8,-43.4c0,-15.6,-3.6,-30.3,-9.7,-43.5l.2,-.1C651.4,251.7,619.6,174.6,591,96.4l-.2,.1C585.8,82.8,578.1,69.8,567.1,58.8C526.7,18.2,461,18.1,420.5,58.6c-31.6,31.6,-38.3,78.5,-20.7,116.9Z" class="g0_2"/>
<path fill-rule="evenodd" d="M21.4,28.7H492.7v684H21.4V28.7Z" class="g0_2"/>
</g>
<image x="21" y="712" width="868" height="36" xlink:href="shade/1.png"/>
<image clip-path="url(#ca_2)" preserveAspectRatio="none" x="720" y="708" width="168" height="5" xlink:href="img/10.jpg"/>
<image clip-path="url(#cb_2)" preserveAspectRatio="none" x="372" y="712" width="348" height="2" xlink:href="img/11.jpg"/>
<image clip-path="url(#cc_2)" preserveAspectRatio="none" x="505" y="708" width="215" height="4" xlink:href="img/12.jpg"/>
<image x="484" y="708" width="42" height="6" xlink:href="shade/2.png"/>
<image x="21" y="708" width="472" height="5" xlink:href="shade/3.png"/>
<image x="21" y="747" width="868" height="4" xlink:href="shade/4.png"/>
<image clip-path="url(#cd_2)" preserveAspectRatio="none" x="720" y="705" width="168" height="3" xlink:href="img/13.jpg"/>
<image clip-path="url(#ce_2)" preserveAspectRatio="none" x="525" y="705" width="195" height="3" xlink:href="img/14.jpg"/>
<image x="492" y="705" width="41" height="3" xlink:href="shade/5.png"/>
<image x="21" y="705" width="472" height="3" xlink:href="shade/6.png"/>
<g clip-path="url(#cf_2)">
<path d="M74.1,143.8H542.7" class="g1_2"/>
<path d="M74.1,175.4H542.7" class="g2_2"/>
<path d="M71.6,706.9c-4.6,0,-8.3,3.7,-8.3,8.3v25.2c0,4.5,3.7,8.2,8.3,8.2H247.3c4.6,0,8.3,-3.7,8.3,-8.2V715.2c0,-4.6,-3.7,-8.3,-8.3,-8.3Z" class="g0_2"/>
</g>
<image clip-path="url(#cg_2)" preserveAspectRatio="none" x="77" y="716" width="167" height="24" xlink:href="img/15.jpg"/>
<path clip-path="url(#ch_2)" d="M591.4,741.3l.8,-23.2l22.9,.8l-.8,23.2Z" class="g0_2"/>
<path clip-path="url(#cf_2)" d="M607.4,741.8c-2.7,-.1,-6.8,-1.1,-10.8,-5.4c-3.2,-3.4,-4.2,-7.2,-4.5,-9.8c-.3,-2.8,.2,-5.1,.7,-5.6l2.5,-2.3c.4,-.4,.9,-.6,1.4,-.6c.5,.1,1,.3,1.3,.6v.1l2.8,4.1c.4,.4,.6,.9,.5,1.4c0,.5,-.2,.9,-.6,1.3l-1.9,1.8c-.4,.4,-.9,.5,-1.4,.5c.2,1,.7,3.4,2.5,5.3c1.8,1.9,4.1,2.5,5,2.7c.1,-.4,.2,-.9,.6,-1.3l2,-1.8c.3,-.3,.8,-.5,1.3,-.5c.5,0,1,.2,1.3,.6l3.9,3.2c.3,.4,.5,.9,.5,1.4c0,.5,-.2,.9,-.6,1.3l-2.4,2.2c-.4,.4,-2.1,.9,-4.1,.8ZM596.7,718.9c-.4,0,-.7,.1,-.9,.3l-2.5,2.3c-.5,.7,-1.9,8.3,3.8,14.4c3.9,4.2,7.7,5.1,10.3,5.2c2.1,.1,3.4,-.4,3.6,-.6l2.4,-2.2c.2,-.3,.4,-.5,.4,-.9c0,-.3,-.1,-.6,-.3,-.8l-3.8,-3.2h-.1c-.2,-.2,-.5,-.4,-.8,-.4c-.3,0,-.6,.1,-.8,.3l-2,1.9c-.4,.3,-.4,1,-.4,1.1l-.1,.2l-.3,.1c-.1,0,-3.4,-.3,-5.9,-3c-2.4,-2.6,-2.6,-5.9,-2.6,-6.1l.1,-.3l.3,-.1l.3,.1c.3,0,.6,-.1,.9,-.3l1.9,-1.8c.3,-.3,.4,-.6,.4,-.9c0,-.3,-.1,-.6,-.3,-.8v-.1l-2.8,-4.1c-.3,-.2,-.5,-.3,-.8,-.3Z" class="g3_2"/>
<path clip-path="url(#ci_2)" d="M604.8,738.4l.1,-2.5l2.5,.1v2.5Z" class="g0_2"/>
<path clip-path="url(#cf_2)" d="M607,738.5l-.3,-.2L605,736.5c-.1,-.1,-.1,-.4,0,-.5c.2,-.1,.4,-.1,.5,0l1.7,1.8c.2,.2,.2,.4,0,.6l-.2,.1Z" class="g3_2"/>
<path clip-path="url(#cj_2)" d="M594.9,727.7l.1,-2.5l2.5,.1l-.1,2.5Z" class="g0_2"/>
<path clip-path="url(#cf_2)" d="M597,727.8l-.2,-.1l-1.7,-1.8c-.1,-.2,-.1,-.4,0,-.5c.2,-.2,.4,-.2,.5,0l1.7,1.8c.1,.1,.1,.4,0,.5l-.3,.1Z" class="g3_2"/>
<path clip-path="url(#ck_2)" d="M613.1,734L601.3,720.8l11.1,-10l11.9,13.1Z" class="g0_2"/>
<path clip-path="url(#cf_2)" d="M616.8,730.1c-1.3,1.2,-3,2,-4.8,2.2c-.2,0,-.4,-.1,-.4,-.3c-.1,-.2,.1,-.4,.3,-.4c3.9,-.5,6.9,-3.6,7.1,-7.6c.1,-2.1,-.6,-4.2,-2.1,-5.8c-1.4,-1.6,-3.4,-2.5,-5.5,-2.6c-4.4,-.3,-8.2,3.1,-8.5,7.6c0,.2,-.1,.3,-.3,.3c-.2,0,-.4,-.2,-.4,-.4c.3,-4.8,4.4,-8.5,9.2,-8.3c2.4,.2,4.5,1.2,6.1,2.9c1.5,1.8,2.3,4,2.2,6.3c-.1,2.4,-1.2,4.6,-2.9,6.1Z" class="g3_2"/>
<path clip-path="url(#cl_2)" d="M608.6,726.2l-.9,-4.2l5.6,-1l.8,4.2Z" class="g0_2"/>
<path clip-path="url(#cf_2)" d="M611.5,725.7l-.2,-.1l-3,-1.5c-.1,-.1,-.2,-.3,-.1,-.5c.1,-.2,.3,-.2,.5,-.2l2.5,1.4l1.4,-3.5c.1,-.2,.3,-.3,.5,-.2c.2,.1,.3,.3,.2,.5l-1.5,3.9l-.2,.2h-.1Z" class="g3_2"/>
<path clip-path="url(#cm_2)" d="M611.6,732.1l-9,-10.1l8.9,-8l9.1,10.1Z" class="g0_2"/>
<g clip-path="url(#cf_2)">
<path d="M615.5,728.6c-1.4,1.3,-3.4,1.9,-5.3,1.7c-.2,0,-.3,-.2,-.3,-.4c0,-.2,.2,-.3,.4,-.3c1.7,.2,3.4,-.3,4.7,-1.5c2.5,-2.2,2.7,-6.1,.5,-8.6c-2.3,-2.5,-6.1,-2.7,-8.6,-.4c-1.1,.9,-1.7,2.3,-1.9,3.7c-.1,.2,-.2,.3,-.4,.3c-.2,0,-.4,-.2,-.3,-.4c.2,-1.6,.9,-3.1,2.1,-4.2c2.8,-2.5,7.1,-2.2,9.6,.5c2.5,2.8,2.3,7.1,-.5,9.6Z" class="g3_2"/>
<path d="M634.2,131.6v11.9c0,1.9,1.5,3.4,3.4,3.4h11.9M843.1,80.3v-12c0,-1.8,-1.5,-3.3,-3.3,-3.3H827.9M649.5,65H637.6c-1.9,0,-3.4,1.5,-3.4,3.3v12m193.7,66.6h11.9c1.8,0,3.3,-1.5,3.3,-3.4V131.6" class="g4_2"/>
<path d="M74.1,809.8H832.6" class="g1_2"/>
</g>
</svg>