<?xml version="1.0" encoding="UTF-8" standalone="no"?>
<!DOCTYPE svg PUBLIC "-//W3C//DTD SVG 1.1//EN"
"http://www.w3.org/Graphics/SVG/1.1/DTD/svg11.dtd">
<svg viewBox="0 0 909 1286" version="1.1" xmlns="http://www.w3.org/2000/svg" xmlns:xlink="http://www.w3.org/1999/xlink">
<defs>
<clipPath id="c0_18"><path d="M327,51.8V0H485.9V51.8Z"/></clipPath>
<clipPath id="c1_18"><path d="M485.7,51.8V0H644.8V51.8Z"/></clipPath>
<clipPath id="c2_18"><path d="M644.6,51.8V0H803.7V42.8H704.4v9Z"/></clipPath>
<clipPath id="c3_18"><path d="M870,51.8v-9H803.5V0H909.4V51.8Z"/></clipPath>
<clipPath id="c4_18"><path d="M327,103.5V51.6H485.9v51.9Z"/></clipPath>
<clipPath id="c5_18"><path d="M644.6,103.5V51.6h59.8v5.5h99.3v46.4Z"/></clipPath>
<clipPath id="c6_18"><path d="M803.5,103.5V57.1H870V51.6h39.4v51.9Z"/></clipPath>
<clipPath id="c7_18"><path d="M327,155.2V103.3H485.9v51.9Z"/></clipPath>
<clipPath id="c8_18"><path d="M803.5,155.2V103.3H909.4v51.9Z"/></clipPath>
<clipPath id="c9_18"><path d="M327,206.9V155H485.9v51.9Z"/></clipPath>
<clipPath id="ca_18"><path d="M803.5,206.9V155H909.4v51.9Z"/></clipPath>
<clipPath id="cb_18"><path d="M327,258.6V206.7H485.9v51.9Z"/></clipPath>
<clipPath id="cc_18"><path d="M485.7,258.6V206.7H644.8v51.9Z"/></clipPath>
<clipPath id="cd_18"><path d="M644.6,258.6V206.7H803.7v51.9Z"/></clipPath>
<clipPath id="ce_18"><path d="M803.5,258.6V206.7H909.4v51.9Z"/></clipPath>
<clipPath id="cf_18"><path d="M327,310.4v-52H485.9v31.2H419.1v20.8Z"/></clipPath>
<clipPath id="cg_18"><path d="M485.7,289.6V258.4H644.8v31.2Z"/></clipPath>
<clipPath id="ch_18"><path d="M644.6,289.6V258.4H803.7v31.2Z"/></clipPath>
<clipPath id="ci_18"><path d="M868.9,310.4V289.6H803.5V258.4H909.4v52Z"/></clipPath>
<clipPath id="cj_18"><path d="M327,361.9V310.2h92.1v51.7Z"/></clipPath>
<clipPath id="ck_18"><path d="M868.9,361.9V310.2h40.5v51.7Z"/></clipPath>
<clipPath id="cl_18"><path d="M704.4,57.1V42.8H870V57.1Z"/></clipPath>
<clipPath id="cm_18"><path d="M419.1,390.8v-5.1h88.2v5.1Zm0,-7.4V361.9h88.2v21.5Z"/></clipPath>
<clipPath id="cn_18"><path d="M419.1,361.9V289.6h88.2v72.3Z"/></clipPath>
<clipPath id="co_18"><path d="M419.1,385.7v-2.3h88.2v2.3Z"/></clipPath>
<clipPath id="cp_18"><path d="M516.5,390.8v-5.1h78.9v5.1Zm0,-7.4V361.9h78.9v21.5Z"/></clipPath>
<clipPath id="cq_18"><path d="M516.5,361.9V289.6h78.9v72.3Z"/></clipPath>
<clipPath id="cr_18"><path d="M516.5,385.7v-2.3h78.9v2.3Z"/></clipPath>
<clipPath id="cs_18"><path d="M507.3,390.8v-5.1h9.2v5.1Zm0,-7.4V361.9h9.2v21.5Z"/></clipPath>
<clipPath id="ct_18"><path d="M507.3,361.9V289.6h9.2v72.3Z"/></clipPath>
<clipPath id="cu_18"><path d="M507.3,385.7v-2.3h9.2v2.3Z"/></clipPath>
<clipPath id="cv_18"><path d="M780.8,390.8v-5.1h87.5v-2.3h-11V361.9h11.6v28.9Z"/></clipPath>
<clipPath id="cw_18"><path d="M857.3,361.9V320.6c0,-3.8,-1.2,-7.4,-3.3,-10.4v-2.6h-2.2c-3.3,-3.3,-7.9,-5.3,-12.9,-5.3H796.6c-5,0,-9.6,2,-12.9,5.3h-2.5v3c-.1,.2,-.2,.4,-.4,.6V289.6h88.1v72.3Z"/></clipPath>
<clipPath id="cx_18"><path d="M857.3,385.7v-2.3h11v2.3Z"/></clipPath>
<clipPath id="cy_18"><path d="M781.2,310.6v-3h2.5c-.9,.9,-1.8,1.9,-2.5,3Zm72.8,-.4c-.6,-.9,-1.4,-1.8,-2.2,-2.6H854v2.6Z"/></clipPath>
<clipPath id="cz_18"><path d="M692.7,390.8v-5.1h78.9v5.1Zm76.5,-7.4V361.9h2.4v21.5Z"/></clipPath>
<clipPath id="c10_18"><path d="M769.2,361.9V320.6c0,-10.1,-8.2,-18.3,-18.4,-18.3H708.5c-6.7,0,-12.6,3.6,-15.8,9V289.6h78.9v72.3Z"/></clipPath>
<clipPath id="c11_18"><path d="M769.2,385.7v-2.3h2.4v2.3Z"/></clipPath>
<clipPath id="c12_18"><path d="M771.6,390.8v-5.1h9.2v5.1Zm0,-7.4V361.9h6.6v21.5Z"/></clipPath>
<clipPath id="c13_18"><path d="M771.6,361.9V289.6h9.2v21.6c-1.6,2.8,-2.6,6,-2.6,9.4v41.3Z"/></clipPath>
<clipPath id="c14_18"><path d="M771.6,385.7v-2.3h6.6v2.3Z"/></clipPath>
<clipPath id="c15_18"><path d="M778.2,378.5V320.6c0,-3.4,1,-6.6,2.6,-9.4v67.3Z"/></clipPath>
<clipPath id="c16_18"><path d="M778.2,385.7v-7.2h2.6v7.2Z"/></clipPath>
<clipPath id="c17_18"><path d="M604.6,390.8v-5.1h78.9v5.1Zm0,-7.4V361.9h78.9v21.5Z"/></clipPath>
<clipPath id="c18_18"><path d="M604.6,361.9V289.6h78.9v72.3Z"/></clipPath>
<clipPath id="c19_18"><path d="M604.6,385.7v-2.3h78.9v2.3Z"/></clipPath>
<clipPath id="c1a_18"><path d="M595.4,390.8v-5.1h9.2v5.1Zm0,-7.4V361.9h9.2v21.5Z"/></clipPath>
<clipPath id="c1b_18"><path d="M595.4,361.9V289.6h9.2v72.3Z"/></clipPath>
<clipPath id="c1c_18"><path d="M595.4,385.7v-2.3h9.2v2.3Z"/></clipPath>
<clipPath id="c1d_18"><path d="M683.5,390.8v-5.1h9.2v5.1Zm0,-7.4V361.9h6.7v16.6h-.1v4.9Z"/></clipPath>
<clipPath id="c1e_18"><path d="M683.5,361.9V289.6h9.2v21.7c-1.6,2.7,-2.5,5.9,-2.5,9.3v41.3Z"/></clipPath>
<clipPath id="c1f_18"><path d="M683.5,385.7v-2.3h6.6v2.3Z"/></clipPath>
<clipPath id="c1g_18"><path d="M690.2,378.5V320.6c0,-3.4,.9,-6.6,2.5,-9.3v67.2Z"/></clipPath>
<clipPath id="c1h_18"><path d="M690.1,385.7v-7.2h2.6v7.2Z"/></clipPath>
<style type="text/css"><![CDATA[
.g0_18{
fill: #1B1661;
}
.g1_18{
fill: #FFF;
}
.g2_18{
fill: #E7E8E8;
}
.g3_18{
fill: #DCDDDE;
}
.g4_18{
fill: #ED1A40;
}
.g5_18{
fill: #D1232A;
}
.g6_18{
fill: #CFCBCA;
}
.g7_18{
fill: #FCB61D;
}
.g8_18{
fill: #FEE6BB;
}
.g9_18{
fill: #5AC4C1;
}
.ga_18{
fill: #09B795;
}
.gb_18{
fill: #F37537;
}
.gc_18{
fill: #5180C1;
}
]]></style>
</defs>
<image clip-path="url(#c0_18)" preserveAspectRatio="none" x="327" y="0" width="159" height="52" xlink:href="img/1.jpg"/>
<image clip-path="url(#c1_18)" preserveAspectRatio="none" x="486" y="0" width="159" height="52" xlink:href="img/2.jpg"/>
<image clip-path="url(#c2_18)" preserveAspectRatio="none" x="645" y="0" width="159" height="52" xlink:href="img/3.jpg"/>
<image clip-path="url(#c3_18)" preserveAspectRatio="none" x="804" y="0" width="106" height="52" xlink:href="img/4.jpg"/>
<image clip-path="url(#c4_18)" preserveAspectRatio="none" x="327" y="52" width="159" height="52" xlink:href="img/5.jpg"/>
<image preserveAspectRatio="none" x="486" y="52" width="159" height="52" xlink:href="img/6.jpg"/>
<image clip-path="url(#c5_18)" preserveAspectRatio="none" x="645" y="52" width="159" height="52" xlink:href="img/7.jpg"/>
<image clip-path="url(#c6_18)" preserveAspectRatio="none" x="804" y="52" width="106" height="52" xlink:href="img/8.jpg"/>
<image clip-path="url(#c7_18)" preserveAspectRatio="none" x="327" y="103" width="159" height="52" xlink:href="img/9.jpg"/>
<image preserveAspectRatio="none" x="486" y="103" width="159" height="52" xlink:href="img/10.jpg"/>
<image preserveAspectRatio="none" x="645" y="103" width="159" height="52" xlink:href="img/11.jpg"/>
<image clip-path="url(#c8_18)" preserveAspectRatio="none" x="804" y="103" width="106" height="52" xlink:href="img/12.jpg"/>
<image clip-path="url(#c9_18)" preserveAspectRatio="none" x="327" y="155" width="159" height="52" xlink:href="img/13.jpg"/>
<image preserveAspectRatio="none" x="486" y="155" width="159" height="52" xlink:href="img/14.jpg"/>
<image preserveAspectRatio="none" x="645" y="155" width="159" height="52" xlink:href="img/15.jpg"/>
<image clip-path="url(#ca_18)" preserveAspectRatio="none" x="804" y="155" width="106" height="52" xlink:href="img/16.jpg"/>
<image clip-path="url(#cb_18)" preserveAspectRatio="none" x="327" y="207" width="159" height="52" xlink:href="img/17.jpg"/>
<image clip-path="url(#cc_18)" preserveAspectRatio="none" x="486" y="207" width="159" height="52" xlink:href="img/18.jpg"/>
<image clip-path="url(#cd_18)" preserveAspectRatio="none" x="645" y="207" width="159" height="52" xlink:href="img/19.jpg"/>
<image clip-path="url(#ce_18)" preserveAspectRatio="none" x="804" y="207" width="106" height="52" xlink:href="img/20.jpg"/>
<image clip-path="url(#cf_18)" preserveAspectRatio="none" x="327" y="258" width="159" height="52" xlink:href="img/21.jpg"/>
<image clip-path="url(#cg_18)" preserveAspectRatio="none" x="486" y="258" width="159" height="52" xlink:href="img/22.jpg"/>
<image clip-path="url(#ch_18)" preserveAspectRatio="none" x="645" y="258" width="159" height="52" xlink:href="img/23.jpg"/>
<image clip-path="url(#ci_18)" preserveAspectRatio="none" x="804" y="258" width="106" height="52" xlink:href="img/24.jpg"/>
<image clip-path="url(#cj_18)" preserveAspectRatio="none" x="327" y="310" width="106" height="52" xlink:href="img/25.jpg"/>
<image clip-path="url(#ck_18)" preserveAspectRatio="none" x="856" y="310" width="54" height="52" xlink:href="img/26.jpg"/>
<path d="M608.5,945.6v.7h.7h-.7v296.6H868.3V945.6Zm258.3,1.5v294.3H610V947.1Z" class="g0_18"/>
<path d="M649.2,951.9H818.9V938.1H649.2Z" class="g1_18"/>
<path d="M45.5,1242.9H305.3V940.6H45.5v302.3Z" class="g2_18"/>
<path d="M45.5,940.6H305.3v27.7H45.5V940.6Z" class="g0_18"/>
<path d="M45.5,992.6H305.3V968.3H45.5v24.3Zm0,250.3H305.3v-36.7H45.5v36.7Z" class="g3_18"/>
<path d="M45.5,993H305.3v-.7H45.5v.7Z" class="g1_18"/>
<path d="M45.5,1206.6H305.3v-.7H45.5v.7Z" class="g1_18"/>
<path d="M64.6,952.2l-1,-.7c-.3,-.1,-.6,-.1,-.8,.2l-4.7,6.9l-2.2,-2.1c-.2,-.3,-.5,-.3,-.8,0l-.8,.8c-.2,.2,-.2,.6,0,.8l3.3,3.3c.2,.2,.5,.4,.8,.4c.2,0,.5,-.2,.7,-.5L64.7,953c.2,-.3,.1,-.6,-.1,-.8Z" class="g1_18"/>
<path d="M49.8,240.6c-2.4,0,-4.3,1.9,-4.3,4.3v35.5c0,2.4,1.9,4.4,4.3,4.4H301c2.4,0,4.3,-2,4.3,-4.4V244.9c0,-2.4,-1.9,-4.3,-4.3,-4.3Z" class="g4_18"/>
<path d="M166.2,269H236v-.8H166.2Z" class="g1_18"/>
<path d="M327,1242.9H586.8V1063.6H327v179.3Z" class="g2_18"/>
<path d="M327,1063.6H586.8v26.3H327v-26.3Z" class="g0_18"/>
<path d="M327,1089.9H513.7v23H327v-23Zm186.7,0h73.1v23H513.7v-23Zm-186.7,46H513.7v23H327v-23Zm186.7,0h73.1v23H513.7v-23ZM327,1182H513.7v39H327v-39Zm186.7,0h73.1v39H513.7v-39Z" class="g3_18"/>
<path d="M327,1221.8H513.7v-1.5H327Z" class="g1_18"/>
<path d="M513.7,1221.8h73.1v-1.5H513.7Z" class="g1_18"/>
<path d="M346.1,1073.8l-1,-.6c-.3,-.2,-.6,-.2,-.8,.1l-4.7,6.9l-2.2,-2.1c-.2,-.2,-.6,-.2,-.8,0l-.8,.8c-.2,.2,-.2,.6,0,.8l3.3,3.3c.2,.2,.5,.4,.8,.4c.2,0,.5,-.2,.7,-.4l5.6,-8.4c.2,-.2,.1,-.6,-.1,-.8Z" class="g1_18"/>
<image clip-path="url(#cl_18)" preserveAspectRatio="none" x="704" y="43" width="166" height="14" xlink:href="img/27.jpg"/>
<path d="M609.2,638.5h-.7v30.6H868.3V637.7H608.5v.8h.7v.8H866.8v28.3H610V638.5h-.8v.8Z" class="g5_18"/>
<path d="M629.7,662.4c-5.4,0,-9.7,-4.4,-9.7,-9.7c.1,-5.3,4.4,-9.6,9.7,-9.6c5.3,0,9.7,4.4,9.6,9.7c0,5.3,-4.3,9.6,-9.6,9.6m0,-1.4c4.5,0,8.3,-3.7,8.3,-8.2c0,-4.6,-3.8,-8.3,-8.3,-8.3c-4.6,0,-8.3,3.7,-8.3,8.2c0,4.6,3.7,8.3,8.3,8.3Z" class="g5_18"/>
<path d="M616.4,648.2c.4,.2,.5,0,.5,-.3c0,-1.3,0,-2.5,0,-3.8c0,-.1,0,-.4,.1,-.5c.1,-.2,.4,-.6,.6,-.5c.2,0,.5,.2,.7,.5c.1,.1,0,.4,0,.6c0,1.3,0,2.7,0,4.1h.5c0,-1,0,-1.9,0,-2.8c-.1,-.6,-.1,-1.2,-.1,-1.8c0,-.4,.2,-.7,.6,-.7c.5,0,.7,.3,.7,.7c.1,1.8,.2,3.6,.3,5.5c0,.8,-.4,1.4,-1.1,1.9c-.3,.2,-.4,.4,-.4,.8c0,3.5,.1,7,.1,10.5c0,.6,-.2,1,-.7,1.3c-.5,.2,-1.1,.2,-1.4,-.2c-.3,-.3,-.4,-.8,-.4,-1.2c-.1,-2.3,0,-4.6,0,-6.9c0,-1.2,0,-2.4,0,-3.6c0,-.2,-.1,-.5,-.3,-.7c-.8,-.6,-1.2,-1.3,-1.1,-2.3c0,-1.7,.1,-3.3,.2,-5c0,-.4,.2,-.7,.7,-.8c.4,0,.7,.3,.7,.9c-.1,1.2,-.1,2.5,-.2,3.7c0,.2,0,.4,0,.6m2.2,1.5h-2c.7,.7,1.3,.7,2,0Z" class="g5_18"/>
<path d="M640.1,653.5c0,-2.9,0,-5.8,0,-8.6c0,-.7,.2,-1.3,.8,-1.6c.9,-.6,2.2,-.1,2.4,1c.5,2.3,.8,4.6,.6,6.9c-.1,1.1,-.3,2.2,-.5,3.3c-.1,.2,-.1,.5,-.1,.7c0,2.4,0,4.8,0,7.1c0,1,-.6,1.5,-1.6,1.5c-1,0,-1.5,-.5,-1.6,-1.5c0,-.1,0,-.3,0,-.4c0,-2.8,0,-5.6,0,-8.4m1.4,.4q.6,.1,.7,-.3c.4,-2.4,.5,-4.7,.1,-7.1c-.1,-.5,-.2,-1.1,-.3,-1.7l-.3,-.4l-.2,.4v.3c0,2.8,0,5.5,0,8.3Z" class="g5_18"/>
<path d="M629.7,646v.7c3.3,0,6,2.8,6,6v.1c0,3.2,-2.7,5.9,-6,6c-1.7,0,-3.2,-.7,-4.3,-1.8c-1.1,-1.1,-1.7,-2.6,-1.7,-4.3c0,-3.2,2.7,-5.9,6,-6v-1.5c-4.2,0,-7.6,3.4,-7.6,7.5v.1c0,4.1,3.4,7.5,7.6,7.5c4.2,0,7.5,-3.4,7.5,-7.5v-.1c0,-4.1,-3.4,-7.5,-7.5,-7.5Z" class="g5_18"/>
<path d="M45.5,909.2H305.3v-1.5H45.5Z" class="g6_18"/>
<path d="M305.3,345.5V325.1h-.7v20.4Z" class="g1_18"/>
<path d="M305.3,370.3V345.5h-.7v24.8Z" class="g1_18"/>
<path d="M216.6,390.3v-20h-.8v20Z" class="g1_18"/>
<path d="M305.3,390.3v-20h-.7v20Z" class="g1_18"/>
<path d="M216.6,410.2V390.3h-.8v19.9Z" class="g1_18"/>
<path d="M305.3,410.2V390.3h-.7v19.9Z" class="g1_18"/>
<path d="M216.6,430.2v-20h-.8v20Z" class="g1_18"/>
<path d="M305.3,430.2v-20h-.7v20Z" class="g1_18"/>
<path d="M216.6,450.2v-20h-.8v20Z" class="g1_18"/>
<path d="M305.3,450.2v-20h-.7v20Z" class="g1_18"/>
<path d="M216.6,470.1V450.2h-.8v19.9Z" class="g1_18"/>
<path d="M305.3,470.1V450.2h-.7v19.9Z" class="g1_18"/>
<path d="M216.6,490.1v-20h-.8v20Z" class="g1_18"/>
<path d="M305.3,490.1v-20h-.7v20Z" class="g1_18"/>
<path d="M216.6,510.1v-20h-.8v20Z" class="g1_18"/>
<path d="M305.3,510.1v-20h-.7v20Z" class="g1_18"/>
<path d="M216.6,530V510.1h-.8V530Z" class="g1_18"/>
<path d="M305.3,530V510.1h-.7V530Z" class="g1_18"/>
<path d="M216.6,550V530h-.8v20Z" class="g1_18"/>
<path d="M305.3,550V530h-.7v20Z" class="g1_18"/>
<path d="M216.6,570V550h-.8v20Z" class="g1_18"/>
<path d="M305.3,570V550h-.7v20Z" class="g1_18"/>
<path d="M216.6,589.9V570h-.8v19.9Z" class="g1_18"/>
<path d="M305.3,589.9V570h-.7v19.9Z" class="g1_18"/>
<path d="M216.6,609.9v-20h-.8v20Z" class="g1_18"/>
<path d="M305.3,609.9v-20h-.7v20Z" class="g1_18"/>
<path d="M80.1,346.2H216.2v-1.5H80.1Z" class="g7_18"/>
<path d="M216.2,346.2h88.4v-1.5H216.2Z" class="g7_18"/>
<path d="M63.3,364c9.9,0,17.9,-8,17.9,-17.8c0,-9.9,-8,-17.9,-17.9,-17.9c-9.8,0,-17.8,8,-17.8,17.9c0,9.8,8,17.8,17.8,17.8Z" class="g7_18"/>
<path d="M73.8,347.9c0,.8,.2,1.5,.2,2.2c-.1,2.1,-1,3.6,-2.7,4.7c-1.3,.9,-2.8,1.3,-4.4,1.3c-2.4,0,-4.8,0,-7.2,0c-1.6,0,-3.1,-.5,-4.5,-1.4c-1.9,-1.4,-2.7,-3.2,-2.5,-5.6c.3,-2,.4,-3.9,.4,-5.9c.1,-1.8,0,-3.6,0,-5.4c-.1,-2.1,.8,-3.8,2.5,-5c1.5,-1.1,3.1,-1.6,4.9,-1.6c1.9,0,3.8,0,5.7,0c1.7,0,3.3,.5,4.6,1.4c2,1.4,2.9,3.2,2.7,5.7c0,1.2,0,2.4,0,3.6c0,0,.1,4,.3,6M63.3,332.5v-.1c-.9,0,-1.8,0,-2.8,0c-1.3,0,-2.5,.3,-3.7,1c-1.5,1,-2.6,2.3,-2.5,4.2c.1,.8,.3,1.7,.6,2.5c.4,1.3,1,2.6,2.1,3.5c.3,.3,.3,.6,0,.9c-.6,.6,-1.3,1.2,-2.1,1.5c-.6,.2,-.7,.5,-.8,1c0,.5,.1,.8,.5,1.2c.7,.8,1.6,1.4,2.6,1.8c1.8,.7,3.7,1,5.7,1c2,.1,4,-.1,6,-.8c1.3,-.5,2.5,-1.2,3.4,-2.3c.1,-.1,.2,-.3,.2,-.4c0,-.4,0,-.7,-.1,-1.1l-.2,-.2c-1,-.4,-1.8,-1,-2.6,-1.7c-.3,-.3,-.2,-.6,.1,-1c.4,-.4,.9,-.9,1.2,-1.4c.7,-1.3,1.1,-2.6,1.4,-4c.2,-1.2,-.1,-2.2,-.8,-3.2c-1.1,-1.5,-2.7,-2.2,-4.6,-2.4c-1.2,-.1,-2.4,0,-3.6,0M54,349c-.4,1.6,0,3,1.2,4.2c1.3,1.2,2.9,1.7,4.6,1.7c2.3,0,4.7,0,7,0c.8,0,1.6,-.1,2.3,-.4c1.4,-.5,2.6,-1.3,3.3,-2.6c.4,-1,.5,-2,.2,-3l-.1,.1c-1.1,1.4,-2.6,2.2,-4.2,2.6c-2.9,.8,-5.8,.8,-8.7,.3c-1.4,-.2,-2.7,-.7,-3.9,-1.5C55.1,350,54.6,349.5,54,349Z" class="g8_18"/>
<path d="M58,356.5c-.6,.4,-1,.8,-1.5,1.1c-.5,.4,-1.8,1.4,-2.3,1.8c-.2,.2,-.5,.2,-.8,.1l-.3,-.3c0,-.2,0,-.5,.2,-.6c.4,-.3,1.4,-1.2,1.8,-1.4c.4,-.3,.8,-.7,1.3,-1l.4,-.1c.4,.1,.7,.3,1.2,.4Z" class="g8_18"/>
<path d="M68.7,356.5c.5,-.2,.9,-.3,1.3,-.4l.3,.1c.7,.6,2.3,1.8,3,2.3c.1,.1,.2,.3,.3,.4c.1,.2,0,.5,-.2,.6c-.2,.1,-.6,.1,-.7,0c-1.1,-.7,-2.9,-2.2,-4,-3Z" class="g8_18"/>
<path d="M63.3,343.1c-1.1,0,-2.2,.1,-3.2,0c-2,-.1,-3.5,-1.6,-3.9,-3.5c-.1,-.5,-.2,-1,-.3,-1.5c-.4,-1.9,1,-3.6,2.9,-3.6c3,0,6,0,9,0c1.9,.1,3.2,1.5,3,3.4c-.2,1,-.3,2.1,-.9,3.1c-.9,1.4,-2.1,2.2,-3.8,2.1c-1,0,-1.9,0,-2.8,0Z" class="g8_18"/>
<path d="M67.9,345.8c.2,0,.5,0,.7,0c.5,0,.8,.3,.6,.6c-.5,.9,-1,1.8,-1.5,2.6c-.1,.2,-.3,.3,-.5,.3c-.6,0,-1.1,0,-1.6,0c-.5,0,-.8,-.3,-.6,-.7c.5,-.8,1,-1.6,1.5,-2.5c.1,-.2,.3,-.3,.6,-.3c.3,0,.5,0,.8,0Z" class="g8_18"/>
<path d="M60.3,349.3c-.3,0,-.5,0,-.7,0c-.4,0,-.6,-.1,-.7,-.3c-.5,-.9,-1,-1.7,-1.4,-2.5c-.3,-.4,0,-.7,.5,-.7c.5,0,1,0,1.5,0c.4,0,.6,.1,.7,.3c.5,.9,1,1.7,1.4,2.5c.2,.4,0,.7,-.5,.7c-.3,0,-.6,0,-.8,0Z" class="g8_18"/>
<path d="M64.4,353.6c0,.6,-.5,1.1,-1.1,1.1c-.5,0,-1,-.5,-1,-1.1c0,-.5,.4,-1,1,-1c.6,0,1.1,.4,1.1,1Z" class="g8_18"/>
<path d="M305.3,639V618.6h-.7V639Z" class="g1_18"/>
<path d="M305.3,663.8V639h-.7v24.8Z" class="g1_18"/>
<path d="M219.1,683.8v-20h-.8v20Z" class="g1_18"/>
<path d="M305.3,683.8v-20h-.7v20Z" class="g1_18"/>
<path d="M219.1,703.7V683.8h-.8v19.9Z" class="g1_18"/>
<path d="M305.3,703.7V683.8h-.7v19.9Z" class="g1_18"/>
<path d="M219.1,723.7v-20h-.8v20Z" class="g1_18"/>
<path d="M305.3,723.7v-20h-.7v20Z" class="g1_18"/>
<path d="M219.1,743.7v-20h-.8v20Z" class="g1_18"/>
<path d="M305.3,743.7v-20h-.7v20Z" class="g1_18"/>
<path d="M219.1,763.6V743.7h-.8v19.9Z" class="g1_18"/>
<path d="M305.3,763.6V743.7h-.7v19.9Z" class="g1_18"/>
<path d="M219.1,783.6v-20h-.8v20Z" class="g1_18"/>
<path d="M305.3,783.6v-20h-.7v20Z" class="g1_18"/>
<path d="M219.1,803.5V783.6h-.8v19.9Z" class="g1_18"/>
<path d="M305.3,803.5V783.6h-.7v19.9Z" class="g1_18"/>
<path d="M219.1,823.5v-20h-.8v20Z" class="g1_18"/>
<path d="M305.3,823.5v-20h-.7v20Z" class="g1_18"/>
<path d="M219.1,843.5v-20h-.8v20Z" class="g1_18"/>
<path d="M305.3,843.5v-20h-.7v20Z" class="g1_18"/>
<path d="M219.1,863.4V843.5h-.8v19.9Z" class="g1_18"/>
<path d="M305.3,863.4V843.5h-.7v19.9Z" class="g1_18"/>
<path d="M219.1,883.4v-20h-.8v20Z" class="g1_18"/>
<path d="M305.3,883.4v-20h-.7v20Z" class="g1_18"/>
<path d="M219.1,903.4v-20h-.8v20Z" class="g1_18"/>
<path d="M305.3,903.4v-20h-.7v20Z" class="g1_18"/>
<path d="M80.6,639.7H218.7v-1.5H80.6Z" class="g7_18"/>
<path d="M218.7,639.7h85.9v-1.5H218.7Z" class="g7_18"/>
<path d="M63.3,657.5c9.9,0,17.9,-8,17.9,-17.9c0,-9.8,-8,-17.8,-17.9,-17.8c-9.8,0,-17.8,8,-17.8,17.8c0,9.9,8,17.9,17.8,17.9Z" class="g7_18"/>
<path d="M73.8,641.4c0,.8,.2,1.5,.2,2.2c-.1,2,-1,3.6,-2.7,4.7c-1.3,.8,-2.8,1.2,-4.4,1.2c-2.4,.1,-4.8,.1,-7.2,.1c-1.6,-.1,-3.1,-.5,-4.5,-1.4c-1.9,-1.4,-2.7,-3.2,-2.5,-5.6c.3,-2,.4,-3.9,.4,-5.9c.1,-1.8,0,-3.6,0,-5.5c-.1,-2.1,.8,-3.7,2.5,-4.9c1.5,-1.1,3.1,-1.6,4.9,-1.6c1.9,0,3.8,0,5.7,0c1.7,0,3.3,.5,4.6,1.4c2,1.4,2.9,3.2,2.7,5.6c0,1.2,0,2.4,0,3.6c0,0,.1,4.1,.3,6.1M63.3,625.9v0c-.9,0,-1.8,0,-2.8,0c-1.3,0,-2.5,.3,-3.7,1c-1.5,.9,-2.6,2.2,-2.5,4.1c.1,.9,.3,1.8,.6,2.6c.4,1.3,1,2.6,2.1,3.5c.3,.2,.3,.6,0,.9c-.6,.6,-1.3,1.2,-2.1,1.5c-.6,.1,-.7,.5,-.8,1c0,.5,.1,.8,.5,1.2c.7,.8,1.6,1.3,2.6,1.8c1.8,.7,3.7,1,5.7,1c2,0,4,-.1,6,-.8c1.3,-.5,2.5,-1.2,3.4,-2.3c.1,-.2,.2,-.3,.2,-.5c0,-.3,0,-.7,-.1,-1l-.2,-.3c-1,-.3,-1.8,-.9,-2.6,-1.6c-.3,-.3,-.2,-.7,.1,-1c.4,-.5,.9,-.9,1.2,-1.5c.7,-1.2,1.1,-2.5,1.4,-3.9c.2,-1.2,-.1,-2.3,-.8,-3.2c-1.1,-1.5,-2.7,-2.3,-4.6,-2.4c-1.2,-.1,-2.4,-.1,-3.6,-.1M54,642.5c-.4,1.6,0,3,1.2,4.2c1.3,1.2,2.9,1.6,4.6,1.7c2.3,0,4.7,0,7,0c.8,0,1.6,-.1,2.3,-.4c1.4,-.5,2.6,-1.3,3.3,-2.6c.4,-1,.5,-2,.2,-3h-.1c-1.1,1.4,-2.6,2.2,-4.2,2.7c-2.9,.8,-5.8,.8,-8.7,.3c-1.4,-.3,-2.7,-.7,-3.9,-1.5c-.6,-.4,-1.1,-1,-1.7,-1.4Z" class="g8_18"/>
<path d="M58,650c-.6,.4,-1,.7,-1.5,1.1c-.5,.4,-1.8,1.4,-2.3,1.8c-.2,.2,-.5,.2,-.8,.1l-.3,-.3c0,-.3,0,-.5,.2,-.7c.4,-.2,1.4,-1.1,1.8,-1.3c.4,-.4,.8,-.7,1.3,-1l.4,-.1c.4,.1,.7,.2,1.2,.4Z" class="g8_18"/>
<path d="M68.7,650c.5,-.2,.9,-.3,1.3,-.4l.3,.1c.7,.5,2.3,1.7,3,2.3c.1,.1,.2,.2,.3,.4c.1,.2,0,.5,-.2,.6c-.2,.1,-.6,.1,-.7,0c-1.1,-.8,-2.9,-2.2,-4,-3Z" class="g8_18"/>
<path d="M63.3,636.6c-1.1,0,-2.2,.1,-3.2,0c-2,-.2,-3.5,-1.6,-3.9,-3.5c-.1,-.5,-.2,-1,-.3,-1.5c-.4,-1.9,1,-3.6,2.9,-3.6c3,0,6,0,9,0c1.9,0,3.2,1.5,3,3.3c-.2,1.1,-.3,2.2,-.9,3.2c-.9,1.4,-2.1,2.1,-3.8,2.1c-1,0,-1.9,0,-2.8,0Z" class="g8_18"/>
<path d="M67.9,639.3c.2,0,.5,0,.7,0c.5,0,.8,.3,.6,.6c-.5,.9,-1,1.7,-1.5,2.6c-.1,.2,-.3,.3,-.5,.3c-.6,0,-1.1,0,-1.6,0c-.5,0,-.8,-.3,-.6,-.7c.5,-.8,1,-1.7,1.5,-2.5c.1,-.2,.3,-.3,.6,-.3c.3,0,.5,0,.8,0Z" class="g8_18"/>
<path d="M60.3,642.8c-.3,0,-.5,0,-.7,0c-.4,0,-.6,-.1,-.7,-.4c-.5,-.8,-1,-1.6,-1.4,-2.4c-.3,-.4,0,-.7,.5,-.7c.5,0,1,0,1.5,0c.4,0,.6,.1,.7,.3c.5,.9,1,1.7,1.4,2.5c.2,.3,0,.6,-.5,.7c-.3,0,-.6,0,-.8,0Z" class="g8_18"/>
<path d="M64.4,647.1c0,.6,-.5,1,-1.1,1c-.5,0,-1,-.4,-1,-1c0,-.5,.4,-1,1,-1c.6,-.1,1.1,.4,1.1,1Z" class="g8_18"/>
<path d="M220.2,329.2V297.8h-3v31.4Z" class="g1_18"/>
<path d="M45.5,187.1H80.1v40.5H45.5V187.1Z" class="g1_18"/>
<image x="80" y="187" width="225" height="41" xlink:href="shade/1.png"/>
<path d="M80.1,208.3H304.9v-1.5H80.1Z" class="g7_18"/>
<path d="M63.3,226.1c9.9,0,17.9,-8,17.9,-17.9c0,-9.8,-8,-17.8,-17.9,-17.8c-9.8,0,-17.8,8,-17.8,17.8c0,9.9,8,17.9,17.8,17.9Z" class="g7_18"/>
<path d="M73.8,210c0,.7,.2,1.4,.2,2.2c-.1,2,-1,3.5,-2.7,4.6c-1.3,.9,-2.8,1.3,-4.4,1.3c-2.4,.1,-4.8,.1,-7.2,0c-1.6,0,-3.1,-.4,-4.5,-1.3c-1.9,-1.4,-2.7,-3.3,-2.5,-5.7c.3,-1.9,.4,-3.9,.4,-5.8c.1,-1.8,0,-3.7,0,-5.5c-.1,-2.1,.8,-3.7,2.5,-4.9c1.5,-1.1,3.1,-1.6,4.9,-1.6c1.9,0,3.8,-.1,5.7,0c1.7,0,3.3,.4,4.6,1.4c2,1.4,2.9,3.2,2.7,5.6c0,1.2,0,2.4,0,3.6c0,0,.1,4.1,.3,6.1M63.3,194.5v0c-.9,0,-1.8,-.1,-2.8,0c-1.3,0,-2.5,.3,-3.7,1c-1.5,.9,-2.6,2.2,-2.5,4.1c.1,.9,.3,1.7,.6,2.5c.4,1.4,1,2.6,2.1,3.6c.3,.2,.3,.5,0,.8c-.6,.7,-1.3,1.3,-2.1,1.5c-.6,.2,-.7,.5,-.8,1.1c0,.4,.1,.8,.5,1.1c.7,.8,1.6,1.4,2.6,1.8c1.8,.8,3.7,1,5.7,1.1c2,0,4,-.2,6,-.9c1.3,-.4,2.5,-1.1,3.4,-2.3c.1,-.1,.2,-.2,.2,-.4c0,-.3,0,-.7,-.1,-1l-.2,-.3c-1,-.3,-1.8,-.9,-2.6,-1.7c-.3,-.3,-.2,-.6,.1,-.9c.4,-.5,.9,-.9,1.2,-1.5c.7,-1.2,1.1,-2.6,1.4,-4c.2,-1.1,-.1,-2.2,-.8,-3.1c-1.1,-1.6,-2.7,-2.3,-4.6,-2.5c-1.2,-.1,-2.4,0,-3.6,0M54,211c-.4,1.6,0,3.1,1.2,4.2c1.3,1.2,2.9,1.7,4.6,1.7c2.3,0,4.7,0,7,0c.8,0,1.6,-.1,2.3,-.3c1.4,-.5,2.6,-1.3,3.3,-2.7c.4,-.9,.5,-1.9,.2,-2.9h-.1c-1.1,1.4,-2.6,2.2,-4.2,2.7c-2.9,.7,-5.8,.7,-8.7,.3c-1.4,-.3,-2.7,-.7,-3.9,-1.5c-.6,-.4,-1.1,-1,-1.7,-1.5Z" class="g8_18"/>
<path d="M58,218.5c-.6,.4,-1,.8,-1.5,1.2c-.5,.4,-1.8,1.4,-2.3,1.8c-.2,.2,-.5,.2,-.8,.1l-.3,-.3c-.1,-.3,0,-.5,.2,-.7c.4,-.2,1.4,-1.1,1.8,-1.4c.4,-.3,.8,-.6,1.3,-.9l.4,-.1c.4,.1,.7,.2,1.2,.3Z" class="g8_18"/>
<path d="M68.7,218.5c.5,-.1,.9,-.2,1.3,-.3l.3,.1c.7,.5,2.3,1.7,3,2.3c.1,.1,.2,.2,.3,.4c.1,.2,0,.5,-.2,.6c-.2,0,-.6,.1,-.7,0c-1.1,-.8,-2.9,-2.2,-4,-3.1Z" class="g8_18"/>
<path d="M63.3,205.2c-1.1,0,-2.2,0,-3.2,0c-2,-.2,-3.5,-1.6,-3.9,-3.6c-.1,-.4,-.2,-.9,-.3,-1.4c-.4,-1.9,1,-3.6,2.9,-3.6c3,0,6,0,9,0c1.9,0,3.2,1.5,3,3.3c-.2,1.1,-.3,2.2,-.9,3.1c-.9,1.4,-2.1,2.2,-3.8,2.2c-1,0,-1.9,0,-2.8,0Z" class="g8_18"/>
<path d="M67.9,207.9c.2,0,.5,0,.7,0c.5,0,.8,.3,.6,.6c-.5,.9,-1,1.7,-1.5,2.6c-.1,.1,-.3,.2,-.5,.2c-.6,0,-1.1,0,-1.6,0c-.5,0,-.8,-.3,-.6,-.6c.5,-.8,1,-1.7,1.5,-2.5c.1,-.2,.3,-.3,.6,-.3c.3,0,.5,0,.8,0Z" class="g8_18"/>
<path d="M60.3,211.3c-.3,0,-.5,0,-.7,0c-.4,0,-.6,-.1,-.7,-.3c-.5,-.8,-1,-1.6,-1.4,-2.4c-.3,-.4,0,-.7,.5,-.7c.5,0,1,0,1.5,0c.4,0,.6,.1,.7,.3c.5,.8,1,1.7,1.4,2.5c.2,.3,0,.6,-.5,.6c-.3,0,-.6,0,-.8,0Z" class="g8_18"/>
<path d="M64.4,215.7c0,.5,-.5,1,-1.1,1c-.5,0,-1,-.5,-1,-1c0,-.6,.4,-1.1,1,-1.1c.6,0,1.1,.5,1.1,1.1Z" class="g8_18"/>
<path d="M327,385.7H868.3v-2.3H327v2.3Z" class="g9_18"/>
<image clip-path="url(#cm_18)" preserveAspectRatio="none" x="419" y="361" width="98" height="30" xlink:href="img/28.jpg"/>
<image clip-path="url(#cn_18)" preserveAspectRatio="none" x="419" y="290" width="88" height="72" xlink:href="img/29.jpg"/>
<image clip-path="url(#co_18)" preserveAspectRatio="none" x="419" y="383" width="89" height="3" xlink:href="img/30.jpg"/>
<path d="M444.1,302.3c-10.1,0,-18.3,8.2,-18.3,18.3v64.2h79V320.6c0,-10.1,-8.2,-18.3,-18.3,-18.3Z" class="g1_18"/>
<path d="M432,328.5h2.3c.2,0,.4,-.2,.4,-.4c0,-.2,-.2,-.4,-.4,-.4H432c-.2,0,-.4,.2,-.4,.4c0,.2,.2,.4,.4,.4m3.8,0h2.4c.2,0,.3,-.2,.3,-.4c0,-.2,-.1,-.4,-.3,-.4h-2.4c-.2,0,-.3,.2,-.3,.4c0,.2,.1,.4,.3,.4m3.9,0H442c.3,0,.4,-.2,.4,-.4c0,-.2,-.1,-.4,-.4,-.4h-2.3c-.2,0,-.4,.2,-.4,.4c0,.2,.2,.4,.4,.4m3.9,0h2.3c.2,0,.4,-.2,.4,-.4c0,-.2,-.2,-.4,-.4,-.4h-2.3c-.2,0,-.4,.2,-.4,.4c0,.2,.2,.4,.4,.4m3.9,0h2.3c.2,0,.4,-.2,.4,-.4c0,-.2,-.2,-.4,-.4,-.4h-2.3c-.2,0,-.4,.2,-.4,.4c0,.2,.2,.4,.4,.4m3.9,0h2.3c.2,0,.4,-.2,.4,-.4c0,-.2,-.2,-.4,-.4,-.4h-2.3c-.2,0,-.4,.2,-.4,.4c0,.2,.2,.4,.4,.4m3.9,0h2.3c.2,0,.4,-.2,.4,-.4c0,-.2,-.2,-.4,-.4,-.4h-2.3c-.3,0,-.4,.2,-.4,.4c0,.2,.1,.4,.4,.4m3.8,0h2.4c.2,0,.3,-.2,.3,-.4c0,-.2,-.1,-.4,-.3,-.4h-2.4c-.2,0,-.3,.2,-.3,.4c0,.2,.1,.4,.3,.4m3.9,0h2.3c.3,0,.4,-.2,.4,-.4c0,-.2,-.1,-.4,-.4,-.4H463c-.2,0,-.4,.2,-.4,.4c0,.2,.2,.4,.4,.4m3.9,0h2.3c.2,0,.4,-.2,.4,-.4c0,-.2,-.2,-.4,-.4,-.4h-2.3c-.2,0,-.4,.2,-.4,.4c0,.2,.2,.4,.4,.4m3.9,0h2.3c.2,0,.4,-.2,.4,-.4c0,-.2,-.2,-.4,-.4,-.4h-2.3c-.2,0,-.4,.2,-.4,.4c0,.2,.2,.4,.4,.4m3.9,0H477c.2,0,.4,-.2,.4,-.4c0,-.2,-.2,-.4,-.4,-.4h-2.3c-.2,0,-.4,.2,-.4,.4c0,.2,.2,.4,.4,.4m3.8,0h2.4c.2,0,.4,-.2,.4,-.4c0,-.2,-.2,-.4,-.4,-.4h-2.4c-.2,0,-.3,.2,-.3,.4c0,.2,.1,.4,.3,.4m3.9,0h2.4c.2,0,.3,-.2,.3,-.4c0,-.2,-.1,-.4,-.3,-.4h-2.4c-.2,0,-.4,.2,-.4,.4c0,.2,.2,.4,.4,.4m3.9,0h2.3c.2,0,.4,-.2,.4,-.4c0,-.2,-.2,-.4,-.4,-.4h-2.3c-.2,0,-.4,.2,-.4,.4c0,.2,.2,.4,.4,.4m3.9,0h2.3c.2,0,.4,-.2,.4,-.4c0,-.2,-.2,-.4,-.4,-.4h-2.3c-.2,0,-.4,.2,-.4,.4c0,.2,.2,.4,.4,.4m3.9,0h2.3c.2,0,.4,-.2,.4,-.4c0,-.2,-.2,-.4,-.4,-.4h-2.3c-.2,0,-.4,.2,-.4,.4c0,.2,.2,.4,.4,.4m3.9,0h2.3c.2,0,.4,-.2,.4,-.4c0,-.2,-.2,-.4,-.4,-.4H498c-.3,0,-.4,.2,-.4,.4c0,.2,.1,.4,.4,.4Z" class="g4_18"/>
<path d="M432,360.7h2.3c.2,0,.4,-.1,.4,-.3c0,-.2,-.2,-.4,-.4,-.4H432c-.2,0,-.4,.2,-.4,.4c0,.2,.2,.3,.4,.3m3.8,0h2.4c.2,0,.3,-.1,.3,-.3c0,-.2,-.1,-.4,-.3,-.4h-2.4c-.2,0,-.3,.2,-.3,.4c0,.2,.1,.3,.3,.3m3.9,0H442c.3,0,.4,-.1,.4,-.3c0,-.2,-.1,-.4,-.4,-.4h-2.3c-.2,0,-.4,.2,-.4,.4c0,.2,.2,.3,.4,.3m3.9,0h2.3c.2,0,.4,-.1,.4,-.3c0,-.2,-.2,-.4,-.4,-.4h-2.3c-.2,0,-.4,.2,-.4,.4c0,.2,.2,.3,.4,.3m3.9,0h2.3c.2,0,.4,-.1,.4,-.3c0,-.2,-.2,-.4,-.4,-.4h-2.3c-.2,0,-.4,.2,-.4,.4c0,.2,.2,.3,.4,.3m3.9,0h2.3c.2,0,.4,-.1,.4,-.3c0,-.2,-.2,-.4,-.4,-.4h-2.3c-.2,0,-.4,.2,-.4,.4c0,.2,.2,.3,.4,.3m3.9,0h2.3c.2,0,.4,-.1,.4,-.3c0,-.2,-.2,-.4,-.4,-.4h-2.3c-.3,0,-.4,.2,-.4,.4c0,.2,.1,.3,.4,.3m3.8,0h2.4c.2,0,.3,-.1,.3,-.3c0,-.2,-.1,-.4,-.3,-.4h-2.4c-.2,0,-.3,.2,-.3,.4c0,.2,.1,.3,.3,.3m3.9,0h2.3c.3,0,.4,-.1,.4,-.3c0,-.2,-.1,-.4,-.4,-.4H463c-.2,0,-.4,.2,-.4,.4c0,.2,.2,.3,.4,.3m3.9,0h2.3c.2,0,.4,-.1,.4,-.3c0,-.2,-.2,-.4,-.4,-.4h-2.3c-.2,0,-.4,.2,-.4,.4c0,.2,.2,.3,.4,.3m3.9,0h2.3c.2,0,.4,-.1,.4,-.3c0,-.2,-.2,-.4,-.4,-.4h-2.3c-.2,0,-.4,.2,-.4,.4c0,.2,.2,.3,.4,.3m3.9,0H477c.2,0,.4,-.1,.4,-.3c0,-.2,-.2,-.4,-.4,-.4h-2.3c-.2,0,-.4,.2,-.4,.4c0,.2,.2,.3,.4,.3m3.8,0h2.4c.2,0,.4,-.1,.4,-.3c0,-.2,-.2,-.4,-.4,-.4h-2.4c-.2,0,-.3,.2,-.3,.4c0,.2,.1,.3,.3,.3m3.9,0h2.4c.2,0,.3,-.1,.3,-.3c0,-.2,-.1,-.4,-.3,-.4h-2.4c-.2,0,-.4,.2,-.4,.4c0,.2,.2,.3,.4,.3m3.9,0h2.3c.2,0,.4,-.1,.4,-.3c0,-.2,-.2,-.4,-.4,-.4h-2.3c-.2,0,-.4,.2,-.4,.4c0,.2,.2,.3,.4,.3m3.9,0h2.3c.2,0,.4,-.1,.4,-.3c0,-.2,-.2,-.4,-.4,-.4h-2.3c-.2,0,-.4,.2,-.4,.4c0,.2,.2,.3,.4,.3m3.9,0h2.3c.2,0,.4,-.1,.4,-.3c0,-.2,-.2,-.4,-.4,-.4h-2.3c-.2,0,-.4,.2,-.4,.4c0,.2,.2,.3,.4,.3m3.9,0h2.3c.2,0,.4,-.1,.4,-.3c0,-.2,-.2,-.4,-.4,-.4H498c-.3,0,-.4,.2,-.4,.4c0,.2,.1,.3,.4,.3Z" class="g4_18"/>
<path d="M425.7,385.7h79.1v-6.8H425.7v6.8Z" class="g9_18"/>
<image clip-path="url(#cp_18)" preserveAspectRatio="none" x="516" y="361" width="89" height="30" xlink:href="img/31.jpg"/>
<image clip-path="url(#cq_18)" preserveAspectRatio="none" x="507" y="290" width="88" height="72" xlink:href="img/32.jpg"/>
<image clip-path="url(#cr_18)" preserveAspectRatio="none" x="516" y="383" width="80" height="3" xlink:href="img/33.jpg"/>
<image clip-path="url(#cs_18)" preserveAspectRatio="none" x="507" y="361" width="11" height="31" xlink:href="img/34.jpg"/>
<image clip-path="url(#ct_18)" preserveAspectRatio="none" x="507" y="290" width="10" height="72" xlink:href="img/35.jpg"/>
<image clip-path="url(#cu_18)" preserveAspectRatio="none" x="507" y="383" width="11" height="3" xlink:href="img/36.jpg"/>
<path d="M532.3,302.3c-10.2,0,-18.4,8.2,-18.4,18.3v64.2h79V320.6c0,-10.1,-8.2,-18.3,-18.3,-18.3Z" class="g1_18"/>
<path d="M513.8,385.7h79.1v-7.2H513.8v7.2Z" class="g9_18"/>
<path d="M520.1,328.5h2.5c.2,0,.4,-.2,.4,-.4c0,-.2,-.2,-.4,-.4,-.4h-2.5c-.2,0,-.4,.2,-.4,.4c0,.2,.2,.4,.4,.4m4.3,0h2.5c.2,0,.4,-.2,.4,-.4c0,-.2,-.2,-.4,-.4,-.4h-2.5c-.2,0,-.4,.2,-.4,.4c0,.2,.2,.4,.4,.4m4.3,0h2.5c.3,0,.4,-.2,.4,-.4c0,-.2,-.1,-.4,-.4,-.4h-2.5c-.2,0,-.4,.2,-.4,.4c0,.2,.2,.4,.4,.4m4.3,0h2.6c.2,0,.3,-.2,.3,-.4c0,-.2,-.1,-.4,-.3,-.4H533c-.2,0,-.4,.2,-.4,.4c0,.2,.2,.4,.4,.4Z" class="g7_18"/>
<path d="M571.6,360.7h2.2c.2,0,.4,-.1,.4,-.3c0,-.2,-.2,-.4,-.4,-.4h-2.2c-.2,0,-.4,.2,-.4,.4c0,.2,.2,.3,.4,.3m3.7,0h2.2c.2,0,.3,-.1,.3,-.3c0,-.2,-.1,-.4,-.3,-.4h-2.2c-.3,0,-.4,.2,-.4,.4c0,.2,.1,.3,.4,.3m3.6,0h2.2c.2,0,.4,-.1,.4,-.3c0,-.2,-.2,-.4,-.4,-.4h-2.2c-.2,0,-.4,.2,-.4,.4c0,.2,.2,.3,.4,.3m3.7,0h2.2c.2,0,.3,-.1,.3,-.3c0,-.2,-.1,-.4,-.3,-.4h-2.2c-.3,0,-.4,.2,-.4,.4c0,.2,.1,.3,.4,.3m3.6,0h2.2c.2,0,.4,-.1,.4,-.3c0,-.2,-.2,-.4,-.4,-.4h-2.2c-.2,0,-.4,.2,-.4,.4c0,.2,.2,.3,.4,.3Z" class="g7_18"/>
<path d="M570.7,328.5H573c.3,0,.4,-.2,.4,-.4c0,-.2,-.1,-.4,-.4,-.4h-2.3c-.2,0,-.3,.2,-.3,.4c0,.2,.1,.4,.3,.4m3.9,0h2.3c.2,0,.4,-.2,.4,-.4c0,-.2,-.2,-.4,-.4,-.4h-2.3c-.2,0,-.4,.2,-.4,.4c0,.2,.2,.4,.4,.4m3.8,0h2.3c.2,0,.4,-.2,.4,-.4c0,-.2,-.2,-.4,-.4,-.4h-2.3c-.2,0,-.4,.2,-.4,.4c0,.2,.2,.4,.4,.4m3.9,0h2.3c.2,0,.3,-.2,.3,-.4c0,-.2,-.1,-.4,-.3,-.4h-2.3c-.2,0,-.4,.2,-.4,.4c0,.2,.2,.4,.4,.4m3.8,0h2.3c.2,0,.4,-.2,.4,-.4c0,-.2,-.2,-.4,-.4,-.4h-2.3c-.2,0,-.4,.2,-.4,.4c0,.2,.2,.4,.4,.4Z" class="g7_18"/>
<path d="M566.9,345.9c0,.9,.2,1.8,.2,2.8c0,2.6,-1.3,4.6,-3.4,6c-1.7,1.1,-3.6,1.6,-5.6,1.6c-3.1,.1,-6.2,.1,-9.3,0c-2.1,0,-4.1,-.5,-5.8,-1.7c-2.6,-1.8,-3.6,-4.2,-3.3,-7.3c.3,-2.5,.5,-5,.5,-7.5c.1,-2.4,0,-4.7,0,-7.1c-.1,-2.7,1.1,-4.8,3.2,-6.4c1.9,-1.4,4.1,-2,6.4,-2c2.4,-.1,4.9,-.1,7.3,0c2.2,0,4.2,.6,6,1.8c2.5,1.8,3.7,4.2,3.5,7.3c-.1,1.5,0,3.1,0,4.6c-.1,0,.1,5.2,.3,7.9m-13.5,-20v-.1c-1.2,0,-2.4,0,-3.6,0c-1.7,0,-3.3,.4,-4.8,1.3c-2,1.2,-3.4,2.9,-3.2,5.4c0,1.1,.3,2.2,.7,3.2c.5,1.8,1.3,3.4,2.8,4.6c.3,.3,.3,.7,0,1.1c-.8,.8,-1.7,1.6,-2.8,1.9c-.8,.3,-.9,.7,-1,1.3c0,.7,.2,1.1,.6,1.6c1,1,2.1,1.7,3.4,2.3c2.4,1,4.8,1.3,7.3,1.3c2.6,.1,5.3,-.2,7.8,-1.1c1.7,-.6,3.3,-1.5,4.4,-2.9c.1,-.2,.2,-.4,.3,-.6c0,-.4,-.1,-.9,-.1,-1.3l-.3,-.3c-1.3,-.5,-2.4,-1.3,-3.4,-2.2c-.3,-.4,-.3,-.8,.1,-1.2c.6,-.6,1.1,-1.2,1.6,-1.9c.9,-1.6,1.5,-3.4,1.8,-5.2c.2,-1.5,-.1,-2.8,-1,-4c-1.5,-2,-3.6,-3,-6,-3.2c-1.5,-.1,-3,0,-4.6,0m-12,21.3c-.5,2.1,0,3.9,1.6,5.4c1.6,1.6,3.7,2.2,5.9,2.2c3,0,6,0,8.9,0c1.1,0,2.1,-.1,3.1,-.5c1.8,-.6,3.3,-1.6,4.2,-3.4c.6,-1.2,.6,-2.5,.3,-3.8l-.1,.1c-1.4,1.8,-3.4,2.8,-5.5,3.4c-3.7,1,-7.4,1,-11.2,.4c-1.8,-.3,-3.5,-.9,-5,-1.9c-.8,-.6,-1.5,-1.3,-2.2,-1.9Z" class="g7_18"/>
<path d="M546.5,356.9c-.7,.5,-1.3,1,-1.9,1.4c-.7,.5,-2.3,1.8,-2.9,2.4c-.4,.2,-.7,.2,-1.1,.1c-.1,0,-.3,-.2,-.4,-.4c-.1,-.3,0,-.6,.3,-.8c.5,-.4,1.8,-1.5,2.3,-1.8c.5,-.4,1.1,-.9,1.6,-1.3c.2,-.1,.4,-.1,.6,-.1c.5,.1,.9,.3,1.5,.5Z" class="g7_18"/>
<path d="M560.3,356.9c.6,-.2,1.2,-.4,1.7,-.5l.4,.1c.9,.7,2.9,2.3,3.9,3c.1,.1,.3,.3,.3,.5c.1,.3,.1,.7,-.2,.8c-.3,.1,-.7,.1,-.9,0c-1.4,-1,-3.8,-2.8,-5.2,-3.9Z" class="g7_18"/>
<path d="M553.4,339.6c-1.4,0,-2.8,.1,-4.2,0c-2.5,-.2,-4.5,-2,-5,-4.5c-.1,-.7,-.3,-1.3,-.4,-1.9c-.5,-2.5,1.3,-4.6,3.8,-4.6c3.9,0,7.7,0,11.6,0c2.4,0,4.1,1.9,3.8,4.3c-.2,1.3,-.3,2.8,-1.1,4c-1.1,1.8,-2.8,2.8,-4.9,2.8c-1.2,0,-2.4,0,-3.6,0Z" class="g7_18"/>
<path d="M559.3,343.1c.3,0,.6,0,1,0c.6,0,.9,.4,.7,.8c-.6,1.1,-1.3,2.2,-1.9,3.3c-.1,.3,-.4,.4,-.7,.4c-.7,0,-1.4,0,-2.1,0c-.6,0,-1,-.4,-.7,-.9c.6,-1,1.2,-2.1,1.8,-3.2c.2,-.3,.5,-.4,.9,-.4c.3,0,.6,0,1,0Z" class="g7_18"/>
<path d="M549.5,347.6c-.4,0,-.7,0,-1,0c-.4,0,-.7,-.1,-.9,-.4c-.6,-1.1,-1.2,-2.1,-1.8,-3.2c-.3,-.5,.1,-.9,.8,-.9c.6,0,1.3,0,1.9,0c.4,0,.7,.2,.9,.4c.6,1.1,1.2,2.2,1.8,3.3c.3,.4,-.1,.8,-.7,.8c-.3,0,-.7,0,-1,0Z" class="g7_18"/>
<path d="M554.7,353.2c0,.7,-.6,1.3,-1.3,1.3c-.7,0,-1.3,-.6,-1.3,-1.3c-.1,-.7,.5,-1.4,1.3,-1.4c.7,0,1.3,.6,1.3,1.4Z" class="g7_18"/>
<path d="M520.1,360.7h2.2c.2,0,.4,-.1,.4,-.3c0,-.2,-.2,-.4,-.4,-.4h-2.2c-.2,0,-.4,.2,-.4,.4c0,.2,.2,.3,.4,.3m3.6,0h2.2c.2,0,.4,-.1,.4,-.3c0,-.2,-.2,-.4,-.4,-.4h-2.2c-.2,0,-.4,.2,-.4,.4c0,.2,.2,.3,.4,.3m3.7,0h2.2c.2,0,.4,-.1,.4,-.3c0,-.2,-.2,-.4,-.4,-.4h-2.2c-.2,0,-.4,.2,-.4,.4c0,.2,.2,.3,.4,.3m3.6,0h2.2c.2,0,.4,-.1,.4,-.3c0,-.2,-.2,-.4,-.4,-.4H531c-.2,0,-.4,.2,-.4,.4c0,.2,.2,.3,.4,.3m3.7,0h2.2c.2,0,.4,-.1,.4,-.3c0,-.2,-.2,-.4,-.4,-.4h-2.2c-.2,0,-.4,.2,-.4,.4c0,.2,.2,.3,.4,.3Z" class="g7_18"/>
<image clip-path="url(#cv_18)" preserveAspectRatio="none" x="771" y="361" width="98" height="30" xlink:href="img/37.jpg"/>
<image clip-path="url(#cw_18)" preserveAspectRatio="none" x="781" y="290" width="88" height="72" xlink:href="img/38.jpg"/>
<image clip-path="url(#cx_18)" preserveAspectRatio="none" x="780" y="383" width="89" height="3" xlink:href="img/39.jpg"/>
<image clip-path="url(#cy_18)" preserveAspectRatio="none" x="781" y="307" width="73" height="4" xlink:href="img/40.jpg"/>
<path d="M796.6,302.3c-10.1,0,-18.4,8.2,-18.4,18.3v64.2h79.1V320.6c0,-10.1,-8.2,-18.3,-18.4,-18.3Z" class="g1_18"/>
<path d="M778.2,385.7h79.1v-7.2H778.2v7.2Z" class="g9_18"/>
<path d="M783.6,360.7h2.3c.2,0,.4,-.1,.4,-.3c0,-.2,-.2,-.4,-.4,-.4h-2.3c-.2,0,-.4,.2,-.4,.4c0,.2,.2,.3,.4,.3m3.9,0h2.3c.2,0,.4,-.1,.4,-.3c0,-.2,-.2,-.4,-.4,-.4h-2.3c-.2,0,-.4,.2,-.4,.4c0,.2,.2,.3,.4,.3m3.9,0h2.3c.2,0,.4,-.1,.4,-.3c0,-.2,-.2,-.4,-.4,-.4h-2.3c-.2,0,-.4,.2,-.4,.4c0,.2,.2,.3,.4,.3m3.8,0h2.4c.2,0,.4,-.1,.4,-.3c0,-.2,-.2,-.4,-.4,-.4h-2.4c-.2,0,-.3,.2,-.3,.4c0,.2,.1,.3,.3,.3m3.9,0h2.4c.2,0,.3,-.1,.3,-.3c0,-.2,-.1,-.4,-.3,-.4h-2.4c-.2,0,-.4,.2,-.4,.4c0,.2,.2,.3,.4,.3m3.9,0h2.3c.2,0,.4,-.1,.4,-.3c0,-.2,-.2,-.4,-.4,-.4H803c-.2,0,-.4,.2,-.4,.4c0,.2,.2,.3,.4,.3m3.9,0h2.3c.2,0,.4,-.1,.4,-.3c0,-.2,-.2,-.4,-.4,-.4h-2.3c-.2,0,-.4,.2,-.4,.4c0,.2,.2,.3,.4,.3m3.9,0h2.3c.2,0,.4,-.1,.4,-.3c0,-.2,-.2,-.4,-.4,-.4h-2.3c-.2,0,-.4,.2,-.4,.4c0,.2,.2,.3,.4,.3m3.9,0H817c.2,0,.4,-.1,.4,-.3c0,-.2,-.2,-.4,-.4,-.4h-2.3c-.3,0,-.4,.2,-.4,.4c0,.2,.1,.3,.4,.3m3.8,0h2.4c.2,0,.3,-.1,.3,-.3c0,-.2,-.1,-.4,-.3,-.4h-2.4c-.2,0,-.3,.2,-.3,.4c0,.2,.1,.3,.3,.3m3.9,0h2.3c.3,0,.4,-.1,.4,-.3c0,-.2,-.1,-.4,-.4,-.4h-2.3c-.2,0,-.4,.2,-.4,.4c0,.2,.2,.3,.4,.3m3.9,0h2.3c.2,0,.4,-.1,.4,-.3c0,-.2,-.2,-.4,-.4,-.4h-2.3c-.2,0,-.4,.2,-.4,.4c0,.2,.2,.3,.4,.3m3.9,0h2.3c.2,0,.4,-.1,.4,-.3c0,-.2,-.2,-.4,-.4,-.4h-2.3c-.2,0,-.4,.2,-.4,.4c0,.2,.2,.3,.4,.3m3.9,0h2.3c.2,0,.4,-.1,.4,-.3c0,-.2,-.2,-.4,-.4,-.4h-2.3c-.2,0,-.4,.2,-.4,.4c0,.2,.2,.3,.4,.3m3.8,0h2.4c.2,0,.4,-.1,.4,-.3c0,-.2,-.2,-.4,-.4,-.4h-2.4c-.2,0,-.3,.2,-.3,.4c0,.2,.1,.3,.3,.3m3.9,0h2.4c.2,0,.3,-.1,.3,-.3c0,-.2,-.1,-.4,-.3,-.4h-2.4c-.2,0,-.3,.2,-.3,.4c0,.2,.1,.3,.3,.3m3.9,0H848c.2,0,.4,-.1,.4,-.3c0,-.2,-.2,-.4,-.4,-.4h-2.3c-.2,0,-.4,.2,-.4,.4c0,.2,.2,.3,.4,.3m3.9,0h2.3c.2,0,.4,-.1,.4,-.3c0,-.2,-.2,-.4,-.4,-.4h-2.3c-.2,0,-.4,.2,-.4,.4c0,.2,.2,.3,.4,.3Z" class="ga_18"/>
<path d="M783,324.3h2.3c.2,0,.4,-.1,.4,-.3c0,-.2,-.2,-.4,-.4,-.4H783c-.3,0,-.4,.2,-.4,.4c0,.2,.1,.3,.4,.3m3.8,0h2.4c.2,0,.3,-.1,.3,-.3c0,-.2,-.1,-.4,-.3,-.4h-2.4c-.2,0,-.3,.2,-.3,.4c0,.2,.1,.3,.3,.3m3.9,0H793c.2,0,.4,-.1,.4,-.3c0,-.2,-.2,-.4,-.4,-.4h-2.3c-.2,0,-.4,.2,-.4,.4c0,.2,.2,.3,.4,.3m3.9,0h2.3c.2,0,.4,-.1,.4,-.3c0,-.2,-.2,-.4,-.4,-.4h-2.3c-.2,0,-.4,.2,-.4,.4c0,.2,.2,.3,.4,.3m3.9,0h2.3c.2,0,.4,-.1,.4,-.3c0,-.2,-.2,-.4,-.4,-.4h-2.3c-.2,0,-.4,.2,-.4,.4c0,.2,.2,.3,.4,.3m3.9,0h2.3c.2,0,.4,-.1,.4,-.3c0,-.2,-.2,-.4,-.4,-.4h-2.3c-.2,0,-.4,.2,-.4,.4c0,.2,.2,.3,.4,.3m3.8,0h2.4c.2,0,.3,-.1,.3,-.3c0,-.2,-.1,-.4,-.3,-.4h-2.4c-.2,0,-.3,.2,-.3,.4c0,.2,.1,.3,.3,.3m3.9,0h2.3c.3,0,.4,-.1,.4,-.3c0,-.2,-.1,-.4,-.4,-.4h-2.3c-.2,0,-.4,.2,-.4,.4c0,.2,.2,.3,.4,.3m3.9,0h2.3c.2,0,.4,-.1,.4,-.3c0,-.2,-.2,-.4,-.4,-.4H814c-.2,0,-.4,.2,-.4,.4c0,.2,.2,.3,.4,.3m3.9,0h2.3c.2,0,.4,-.1,.4,-.3c0,-.2,-.2,-.4,-.4,-.4h-2.3c-.2,0,-.4,.2,-.4,.4c0,.2,.2,.3,.4,.3m3.9,0h2.3c.2,0,.4,-.1,.4,-.3c0,-.2,-.2,-.4,-.4,-.4h-2.3c-.2,0,-.4,.2,-.4,.4c0,.2,.2,.3,.4,.3m3.9,0H828c.2,0,.4,-.1,.4,-.3c0,-.2,-.2,-.4,-.4,-.4h-2.3c-.3,0,-.4,.2,-.4,.4c0,.2,.1,.3,.4,.3m3.8,0h2.4c.2,0,.3,-.1,.3,-.3c0,-.2,-.1,-.4,-.3,-.4h-2.4c-.2,0,-.3,.2,-.3,.4c0,.2,.1,.3,.3,.3m3.9,0h2.3c.3,0,.4,-.1,.4,-.3c0,-.2,-.1,-.4,-.4,-.4h-2.3c-.2,0,-.4,.2,-.4,.4c0,.2,.2,.3,.4,.3m3.9,0h2.3c.2,0,.4,-.1,.4,-.3c0,-.2,-.2,-.4,-.4,-.4h-2.3c-.2,0,-.4,.2,-.4,.4c0,.2,.2,.3,.4,.3m3.9,0h2.3c.2,0,.4,-.1,.4,-.3c0,-.2,-.2,-.4,-.4,-.4h-2.3c-.2,0,-.4,.2,-.4,.4c0,.2,.2,.3,.4,.3m3.9,0h2.3c.2,0,.4,-.1,.4,-.3c0,-.2,-.2,-.4,-.4,-.4h-2.3c-.2,0,-.4,.2,-.4,.4c0,.2,.2,.3,.4,.3m3.8,0h2.4c.2,0,.4,-.1,.4,-.3c0,-.2,-.2,-.4,-.4,-.4h-2.4c-.2,0,-.3,.2,-.3,.4c0,.2,.1,.3,.3,.3Z" class="ga_18"/>
<path d="M831.7,341.1v.7h4.5c1.1,0,2.1,-.9,2.1,-2v-.4c0,-1.1,-1,-2,-2.1,-2h-4.5c-.6,0,-1.1,.2,-1.4,.5c-.2,.1,-.2,.3,-.2,.5v.3c0,.2,-.1,.3,-.3,.4c-.1,.2,-.2,.4,-.2,.6v.1c0,1.1,.9,2,2.1,2v-1.3c-.4,0,-.7,-.3,-.7,-.7v-.1h-.7l.5,.5c.4,-.4,.6,-.9,.6,-1.5v-.3h-.7l.5,.5c.1,-.1,.3,-.2,.5,-.2h4.5c.4,0,.7,.3,.7,.7v.4c0,.4,-.3,.7,-.7,.7h-4.5Z" class="ga_18"/>
<path d="M830.7,331.8l-.4,.5c.3,.4,.8,.6,1.4,.6h4.5c1.1,0,2.1,-1,2.1,-2.1v-.4c0,-1.1,-1,-2,-2.1,-2h-4.5c-1.2,0,-2.1,.9,-2.1,2v.2c0,.2,.1,.4,.2,.5c.2,.1,.3,.3,.3,.5v.2c0,.2,0,.4,.2,.5l.4,-.5h.7v-.2c0,-.6,-.2,-1.2,-.6,-1.5l-.5,.5h.7v-.2c0,-.3,.3,-.6,.7,-.6h4.5c.4,0,.7,.3,.7,.6v.4c0,.4,-.3,.7,-.7,.7h-4.5c-.2,0,-.4,-.1,-.5,-.2l-.5,.5h.7Z" class="ga_18"/>
<path d="M837.3,340.6v.7h1.9c1,0,1.8,-.8,1.8,-1.8v-8.7c0,-1,-.8,-1.9,-1.8,-1.9h-1.9c-.2,0,-.5,.2,-.6,.4c-.1,.3,-.1,.5,.1,.7c0,.2,.1,.3,.1,.4v.4c0,.4,-.3,.7,-.7,.7h-4.5c-.2,0,-.4,-.1,-.5,-.2c-.2,-.2,-.5,-.2,-.7,-.1c-.3,.1,-.4,.3,-.4,.6v6.6c0,.3,.1,.5,.4,.6c.2,.1,.5,.1,.7,-.1c.1,-.1,.3,-.2,.5,-.2h4.5c.4,0,.7,.3,.7,.7v.4c0,.1,-.1,.3,-.2,.4c-.1,.2,-.2,.5,0,.7c.1,.3,.3,.4,.6,.4v-.7l.5,.5c.3,-.4,.5,-.8,.5,-1.3v-.4c0,-1.1,-1,-2,-2.1,-2h-4.5c-.6,0,-1.1,.2,-1.4,.5l.4,.5h.7v-6.6h-.7l-.4,.5c.3,.4,.8,.6,1.4,.6h4.5c1.1,0,2.1,-1,2.1,-2.1v-.4c0,-.4,-.2,-.8,-.4,-1.2l-.6,.4v.7h1.9c.2,0,.4,.2,.4,.5v8.7c0,.3,-.2,.4,-.4,.4h-1.9v.7l.5,.5Z" class="ga_18"/>
<path d="M830.7,331.6h.7c0,-1.1,-.9,-2.1,-2,-2.1h-.7c-1.1,0,-2,1,-2,2.1v7.1c0,1.1,.9,2,2,2h.7c1.1,0,2,-.9,2,-2v-7.1h-1.3v7.1c0,.3,-.3,.6,-.7,.6h-.7c-.4,0,-.7,-.3,-.7,-.6v-7.1c0,-.4,.3,-.7,.7,-.7h.7c.4,0,.7,.3,.7,.7Z" class="ga_18"/>
<path d="M831.7,353.9v.7h4.5c1.1,0,2.1,-.9,2.1,-2v-.4c0,-1.1,-1,-2.1,-2.1,-2.1h-4.5c-.6,0,-1.1,.2,-1.4,.6c-.2,.1,-.2,.3,-.2,.5v.2c0,.2,-.1,.4,-.3,.5c-.1,.2,-.2,.3,-.2,.5v.2c0,1.1,.9,2,2.1,2v-1.4c-.4,0,-.7,-.3,-.7,-.6v-.2h-.7l.5,.5c.4,-.3,.6,-.9,.6,-1.5v-.2h-.7l.5,.5c.1,-.1,.3,-.2,.5,-.2h4.5c.4,0,.7,.3,.7,.7v.4c0,.3,-.3,.6,-.7,.6h-4.5Z" class="ga_18"/>
<path d="M830.7,344.6l-.4,.5c.3,.3,.8,.5,1.4,.5h4.5c1.1,0,2.1,-.9,2.1,-2v-.4c0,-1.1,-1,-2,-2.1,-2h-4.5c-1.2,0,-2.1,.9,-2.1,2v.2c0,.2,.1,.3,.2,.5c.2,.1,.3,.3,.3,.5v.2c0,.2,0,.4,.2,.5l.4,-.5h.7v-.2c0,-.6,-.2,-1.2,-.6,-1.5l-.5,.5h.7v-.2c0,-.4,.3,-.7,.7,-.7h4.5c.4,0,.7,.3,.7,.7v.4c0,.4,-.3,.7,-.7,.7h-4.5c-.2,0,-.4,-.1,-.5,-.2l-.5,.5h.7Z" class="ga_18"/>
<path d="M837.3,353.4v.7h1.9c1,0,1.8,-.8,1.8,-1.8v-8.8c0,-1,-.8,-1.8,-1.8,-1.8h-1.9c-.2,0,-.5,.2,-.6,.4c-.1,.2,-.1,.5,.1,.7c0,.1,.1,.3,.1,.4v.4c0,.4,-.3,.7,-.7,.7h-4.5c-.2,0,-.4,-.1,-.5,-.2c-.2,-.2,-.5,-.2,-.7,-.1c-.3,.1,-.4,.3,-.4,.6v6.6c0,.3,.1,.5,.4,.6c.2,.1,.5,.1,.7,-.1c.1,-.1,.3,-.2,.5,-.2h4.5c.4,0,.7,.3,.7,.7v.4c0,.1,-.1,.3,-.2,.4c-.1,.2,-.2,.5,0,.7c.1,.3,.3,.4,.6,.4v-.7l.5,.4c.3,-.3,.5,-.7,.5,-1.2v-.4c0,-1.1,-1,-2.1,-2.1,-2.1h-4.5c-.6,0,-1.1,.2,-1.4,.6l.4,.5h.7v-6.6h-.7l-.4,.5c.3,.3,.8,.5,1.4,.5h4.5c1.1,0,2.1,-.9,2.1,-2v-.4c0,-.4,-.2,-.9,-.4,-1.2l-.6,.4v.7h1.9c.2,0,.4,.2,.4,.4v8.8c0,.2,-.2,.4,-.4,.4h-1.9v.7l.5,.4Z" class="ga_18"/>
<path d="M830.7,344.4h.7c0,-1.2,-.9,-2.1,-2,-2.1h-.7c-1.1,0,-2,.9,-2,2.1v7c0,1.2,.9,2.1,2,2.1h.7c1.1,0,2,-.9,2,-2.1v-7h-1.3v7c0,.4,-.3,.7,-.7,.7h-.7c-.4,0,-.7,-.3,-.7,-.7v-7c0,-.4,.3,-.7,.7,-.7h.7c.4,0,.7,.3,.7,.7Z" class="ga_18"/>
<path d="M816.4,340.3h3.2c.5,0,.9,-.2,.9,-.6v-.1c0,-.3,-.4,-.6,-.9,-.6h-3.2c-.3,0,-.5,.1,-.7,.2v.1c0,.1,-.1,.3,-.3,.4c0,.4,.4,.6,1,.6Z" class="ga_18"/>
<path d="M815.9,330.5c.1,.1,.4,.1,.6,.1h3.3c.6,0,1,-.2,1,-.6v-.1c0,-.4,-.4,-.7,-1,-.7h-3.3c-.5,0,-1,.3,-1,.7c.2,.1,.4,.3,.4,.5Z" class="ga_18"/>
<path d="M821.7,340.3h1.8c.6,0,1,-.5,1,-1.1v-8.7c0,-.7,-.4,-1.2,-1,-1.2h-1.8c.2,.3,.3,.5,.3,.8v.4c0,.8,-.6,1.4,-1.3,1.4h-4.4c-.3,0,-.6,-.2,-.8,-.4v6.6c.2,-.2,.5,-.4,.8,-.4h4.4c.7,0,1.3,.6,1.3,1.4v.4c0,.3,-.1,.6,-.3,.8Z" class="ga_18"/>
<path d="M814.1,332c0,-.6,-.5,-1,-1,-1H813c-.5,0,-1,.4,-1,1v5.6c0,.6,.5,1.1,1,1.1h.1c.5,0,1,-.5,1,-1.1Z" class="ga_18"/>
<path d="M815.9,353.9v.7h4.6c1.1,0,2,-.9,2,-2v-.4c0,-1.1,-.9,-2.1,-2,-2.1h-4.6c-.5,0,-1,.2,-1.4,.6c-.1,.1,-.2,.3,-.2,.5v.2c0,.2,-.1,.4,-.2,.5c-.1,.2,-.2,.3,-.2,.5v.2c0,1.1,.9,2,2,2v-1.4c-.4,0,-.6,-.3,-.6,-.6v-.2h-.7l.4,.5c.4,-.3,.7,-.9,.7,-1.5v-.2H815l.5,.5c.1,-.1,.2,-.2,.4,-.2h4.6c.4,0,.7,.3,.7,.7v.4c0,.3,-.3,.6,-.7,.6h-4.6Z" class="ga_18"/>
<path d="M815,344.6l-.5,.5c.4,.3,.9,.5,1.4,.5h4.6c1.1,0,2,-.9,2,-2v-.4c0,-1.1,-.9,-2,-2,-2h-4.6c-1.1,0,-2,.9,-2,2v.2c0,.2,.1,.3,.2,.5c.1,.1,.2,.3,.2,.5v.2c0,.2,.1,.4,.2,.5l.5,-.5h.7v-.2c0,-.6,-.3,-1.2,-.7,-1.5l-.4,.5h.6v-.2c0,-.4,.3,-.7,.7,-.7h4.6c.4,0,.7,.3,.7,.7v.4c0,.4,-.3,.7,-.7,.7h-4.6c-.2,0,-.3,-.1,-.4,-.2l-.5,.5h.7Z" class="ga_18"/>
<path d="M821.5,353.4v.7h1.9c1,0,1.8,-.8,1.8,-1.8v-8.8c0,-1,-.8,-1.8,-1.8,-1.8h-1.8c-.3,0,-.5,.2,-.6,.4c-.1,.2,-.1,.5,0,.7c.1,.1,.1,.3,.2,.4v.4c-.1,.4,-.3,.7,-.7,.7h-4.6c-.2,0,-.3,-.1,-.4,-.2c-.2,-.2,-.5,-.2,-.8,-.1c-.2,.1,-.4,.3,-.4,.6v6.6c0,.3,.2,.5,.4,.6c.3,.1,.6,.1,.8,-.1c.1,-.1,.2,-.2,.4,-.2h4.6c.4,0,.6,.3,.7,.7v.4c-.1,.1,-.1,.3,-.2,.4c-.2,.2,-.2,.5,-.1,.7c.1,.3,.4,.4,.6,.4v-.7l.6,.4c.2,-.3,.4,-.7,.4,-1.2v-.4c0,-1.1,-.9,-2.1,-2,-2.1h-4.6c-.5,0,-1,.2,-1.4,.6l.5,.5h.7v-6.6H815l-.5,.5c.4,.3,.9,.5,1.4,.5h4.6c1.1,0,2,-.9,2,-2v-.4c0,-.4,-.1,-.9,-.4,-1.2l-.5,.4v.7h1.8c.3,0,.5,.2,.5,.4v8.8c0,.2,-.2,.4,-.5,.4h-1.9v.7l.6,.4Z" class="ga_18"/>
<path d="M815,344.4h.7c0,-1.2,-.9,-2.1,-2,-2.1H813c-1.1,0,-2.1,.9,-2.1,2.1v7c0,1.2,1,2.1,2.1,2.1h.7c1.1,0,2,-.9,2,-2.1v-7h-1.4v7c0,.4,-.3,.7,-.6,.7H813c-.4,0,-.7,-.3,-.7,-.7v-7c0,-.4,.3,-.7,.7,-.7h.7c.3,0,.6,.3,.6,.7Z" class="ga_18"/>
<path d="M800.2,341.1v.7h4.5c1.2,0,2.1,-.9,2.1,-2v-.4c0,-1.1,-.9,-2,-2.1,-2h-4.5c-.6,0,-1,.2,-1.4,.5c-.1,.1,-.2,.3,-.2,.5v.3c0,.2,-.1,.3,-.2,.4c-.2,.2,-.3,.4,-.3,.6v.1c0,1.1,1,2,2.1,2v-1.3c-.4,0,-.7,-.3,-.7,-.7v-.1h-.7l.5,.5c.4,-.4,.7,-.9,.7,-1.5v-.3h-.7l.4,.5c.2,-.1,.3,-.2,.5,-.2h4.5c.4,0,.7,.3,.7,.7v.4c0,.4,-.3,.7,-.7,.7h-4.5Z" class="ga_18"/>
<path d="M799.3,331.8l-.5,.5c.4,.4,.8,.6,1.4,.6h4.5c1.2,0,2.1,-1,2.1,-2.1v-.4c0,-1.1,-.9,-2,-2.1,-2h-4.5c-1.1,0,-2.1,.9,-2.1,2v.2c0,.2,.1,.4,.3,.5c.1,.1,.2,.3,.2,.5v.2c0,.2,.1,.4,.2,.5l.5,-.5h.7v-.2c0,-.6,-.3,-1.2,-.7,-1.5l-.5,.5h.7v-.2c0,-.3,.3,-.6,.7,-.6h4.5c.4,0,.7,.3,.7,.6v.4c0,.4,-.3,.7,-.7,.7h-4.5c-.2,0,-.3,-.1,-.5,-.2l-.4,.5h.7Z" class="ga_18"/>
<path d="M805.8,340.6v.7h1.9c1,0,1.8,-.8,1.8,-1.8v-8.7c0,-1,-.8,-1.9,-1.8,-1.9h-1.9c-.2,0,-.5,.2,-.6,.4c-.1,.3,-.1,.5,.1,.7c.1,.2,.1,.3,.1,.4v.4c0,.4,-.3,.7,-.7,.7h-4.5c-.2,0,-.3,-.1,-.5,-.2c-.2,-.2,-.5,-.2,-.7,-.1c-.3,.1,-.4,.3,-.4,.6v6.6c0,.3,.1,.5,.4,.6c.2,.1,.5,.1,.7,-.1c.2,-.1,.3,-.2,.5,-.2h4.5c.4,0,.7,.3,.7,.7v.4c0,.1,0,.3,-.1,.4c-.2,.2,-.2,.5,-.1,.7c.1,.3,.3,.4,.6,.4v-.7l.5,.5c.3,-.4,.5,-.8,.5,-1.3v-.4c0,-1.1,-.9,-2,-2.1,-2h-4.5c-.6,0,-1,.2,-1.4,.5l.5,.5h.7v-6.6h-.7l-.5,.5c.4,.4,.8,.6,1.4,.6h4.5c1.2,0,2.1,-1,2.1,-2.1v-.4c0,-.4,-.2,-.8,-.4,-1.2l-.6,.4v.7h1.9c.2,0,.4,.2,.4,.5v8.7c0,.3,-.2,.4,-.4,.4h-1.9v.7l.5,.5Z" class="ga_18"/>
<path d="M799.3,331.6h.7c0,-1.1,-1,-2.1,-2.1,-2.1h-.7c-1.1,0,-2,1,-2,2.1v7.1c0,1.1,.9,2,2,2h.7c1.1,0,2.1,-.9,2.1,-2v-7.1h-1.4v7.1c0,.3,-.3,.6,-.7,.6h-.7c-.3,0,-.6,-.3,-.6,-.6v-7.1c0,-.4,.3,-.7,.6,-.7h.7c.4,0,.7,.3,.7,.7Z" class="ga_18"/>
<path d="M800.2,353.9v.7h4.5c1.2,0,2.1,-.9,2.1,-2v-.4c0,-1.1,-.9,-2.1,-2.1,-2.1h-4.5c-.6,0,-1,.2,-1.4,.6c-.1,.1,-.2,.3,-.2,.5v.2c0,.2,-.1,.4,-.2,.5c-.2,.2,-.3,.3,-.3,.5v.2c0,1.1,1,2,2.1,2v-1.4c-.4,0,-.7,-.3,-.7,-.6v-.2h-.7l.5,.5c.4,-.3,.7,-.9,.7,-1.5v-.2h-.7l.4,.5c.2,-.1,.3,-.2,.5,-.2h4.5c.4,0,.7,.3,.7,.7v.4c0,.3,-.3,.6,-.7,.6h-4.5Z" class="ga_18"/>
<path d="M799.3,344.6l-.5,.5c.4,.3,.8,.5,1.4,.5h4.5c1.2,0,2.1,-.9,2.1,-2v-.4c0,-1.1,-.9,-2,-2.1,-2h-4.5c-1.1,0,-2.1,.9,-2.1,2v.2c0,.2,.1,.3,.3,.5c.1,.1,.2,.3,.2,.5v.2c0,.2,.1,.4,.2,.5l.5,-.5h.7v-.2c0,-.6,-.3,-1.2,-.7,-1.5l-.5,.5h.7v-.2c0,-.4,.3,-.7,.7,-.7h4.5c.4,0,.7,.3,.7,.7v.4c0,.4,-.3,.7,-.7,.7h-4.5c-.2,0,-.3,-.1,-.5,-.2l-.4,.5h.7Z" class="ga_18"/>
<path d="M805.8,353.4v.7h1.9c1,0,1.8,-.8,1.8,-1.8v-8.8c0,-1,-.8,-1.8,-1.8,-1.8h-1.9c-.2,0,-.5,.2,-.6,.4c-.1,.2,-.1,.5,.1,.7c.1,.1,.1,.3,.1,.4v.4c0,.4,-.3,.7,-.7,.7h-4.5c-.2,0,-.3,-.1,-.5,-.2c-.2,-.2,-.5,-.2,-.7,-.1c-.3,.1,-.4,.3,-.4,.6v6.6c0,.3,.1,.5,.4,.6c.2,.1,.5,.1,.7,-.1c.2,-.1,.3,-.2,.5,-.2h4.5c.4,0,.7,.3,.7,.7v.4c0,.1,0,.3,-.1,.4c-.2,.2,-.2,.5,-.1,.7c.1,.3,.3,.4,.6,.4v-.7l.5,.4c.3,-.3,.5,-.7,.5,-1.2v-.4c0,-1.1,-.9,-2.1,-2.1,-2.1h-4.5c-.6,0,-1,.2,-1.4,.6l.5,.5h.7v-6.6h-.7l-.5,.5c.4,.3,.8,.5,1.4,.5h4.5c1.2,0,2.1,-.9,2.1,-2v-.4c0,-.4,-.2,-.9,-.4,-1.2l-.6,.4v.7h1.9c.2,0,.4,.2,.4,.4v8.8c0,.2,-.2,.4,-.4,.4h-1.9v.7l.5,.4Z" class="ga_18"/>
<path d="M799.3,344.4h.7c0,-1.2,-1,-2.1,-2.1,-2.1h-.7c-1.1,0,-2,.9,-2,2.1v7c0,1.2,.9,2.1,2,2.1h.7c1.1,0,2.1,-.9,2.1,-2.1v-7h-1.4v7c0,.4,-.3,.7,-.7,.7h-.7c-.3,0,-.6,-.3,-.6,-.7v-7c0,-.4,.3,-.7,.6,-.7h.7c.4,0,.7,.3,.7,.7Z" class="ga_18"/>
<image clip-path="url(#cz_18)" preserveAspectRatio="none" x="683" y="361" width="89" height="30" xlink:href="img/41.jpg"/>
<image clip-path="url(#c10_18)" preserveAspectRatio="none" x="693" y="290" width="88" height="72" xlink:href="img/42.jpg"/>
<image clip-path="url(#c11_18)" preserveAspectRatio="none" x="692" y="383" width="80" height="3" xlink:href="img/43.jpg"/>
<image clip-path="url(#c12_18)" preserveAspectRatio="none" x="771" y="361" width="11" height="31" xlink:href="img/44.jpg"/>
<image clip-path="url(#c13_18)" preserveAspectRatio="none" x="771" y="290" width="10" height="72" xlink:href="img/45.jpg"/>
<image clip-path="url(#c14_18)" preserveAspectRatio="none" x="771" y="383" width="11" height="3" xlink:href="img/46.jpg"/>
<image clip-path="url(#c15_18)" preserveAspectRatio="none" x="778" y="311" width="3" height="68" xlink:href="img/47.jpg"/>
<image clip-path="url(#c16_18)" preserveAspectRatio="none" x="778" y="378" width="3" height="8" xlink:href="img/48.jpg"/>
<path d="M708.5,302.3c-10.1,0,-18.3,8.2,-18.3,18.3v64.2h79V320.6c0,-10.1,-8.2,-18.3,-18.4,-18.3Z" class="g1_18"/>
<path d="M690.1,385.7h79.1v-7.2H690.1v7.2Z" class="g9_18"/>
<path d="M695.5,360.7h2.3c.2,0,.4,-.1,.4,-.3c0,-.2,-.2,-.4,-.4,-.4h-2.3c-.2,0,-.4,.2,-.4,.4c0,.2,.2,.3,.4,.3m3.9,0h2.3c.2,0,.4,-.1,.4,-.3c0,-.2,-.2,-.4,-.4,-.4h-2.3c-.2,0,-.4,.2,-.4,.4c0,.2,.2,.3,.4,.3m3.9,0h2.3c.2,0,.4,-.1,.4,-.3c0,-.2,-.2,-.4,-.4,-.4h-2.3c-.2,0,-.4,.2,-.4,.4c0,.2,.2,.3,.4,.3m3.9,0h2.3c.2,0,.4,-.1,.4,-.3c0,-.2,-.2,-.4,-.4,-.4h-2.3c-.3,0,-.4,.2,-.4,.4c0,.2,.1,.3,.4,.3m3.8,0h2.4c.2,0,.3,-.1,.3,-.3c0,-.2,-.1,-.4,-.3,-.4H711c-.2,0,-.3,.2,-.3,.4c0,.2,.1,.3,.3,.3m3.9,0h2.3c.2,0,.4,-.1,.4,-.3c0,-.2,-.2,-.4,-.4,-.4h-2.3c-.2,0,-.4,.2,-.4,.4c0,.2,.2,.3,.4,.3m3.9,0h2.3c.2,0,.4,-.1,.4,-.3c0,-.2,-.2,-.4,-.4,-.4h-2.3c-.2,0,-.4,.2,-.4,.4c0,.2,.2,.3,.4,.3m3.9,0H725c.2,0,.4,-.1,.4,-.3c0,-.2,-.2,-.4,-.4,-.4h-2.3c-.2,0,-.4,.2,-.4,.4c0,.2,.2,.3,.4,.3m3.9,0h2.3c.2,0,.4,-.1,.4,-.3c0,-.2,-.2,-.4,-.4,-.4h-2.3c-.2,0,-.4,.2,-.4,.4c0,.2,.2,.3,.4,.3m3.8,0h2.4c.2,0,.3,-.1,.3,-.3c0,-.2,-.1,-.4,-.3,-.4h-2.4c-.2,0,-.3,.2,-.3,.4c0,.2,.1,.3,.3,.3m3.9,0h2.3c.3,0,.4,-.1,.4,-.3c0,-.2,-.1,-.4,-.4,-.4h-2.3c-.2,0,-.4,.2,-.4,.4c0,.2,.2,.3,.4,.3m3.9,0h2.3c.2,0,.4,-.1,.4,-.3c0,-.2,-.2,-.4,-.4,-.4h-2.3c-.2,0,-.4,.2,-.4,.4c0,.2,.2,.3,.4,.3m3.9,0h2.3c.2,0,.4,-.1,.4,-.3c0,-.2,-.2,-.4,-.4,-.4h-2.3c-.2,0,-.4,.2,-.4,.4c0,.2,.2,.3,.4,.3m3.9,0h2.3c.2,0,.4,-.1,.4,-.3c0,-.2,-.2,-.4,-.4,-.4H746c-.2,0,-.4,.2,-.4,.4c0,.2,.2,.3,.4,.3m3.9,0h2.3c.2,0,.4,-.1,.4,-.3c0,-.2,-.2,-.4,-.4,-.4h-2.3c-.3,0,-.4,.2,-.4,.4c0,.2,.1,.3,.4,.3m3.8,0h2.4c.2,0,.3,-.1,.3,-.3c0,-.2,-.1,-.4,-.3,-.4h-2.4c-.2,0,-.3,.2,-.3,.4c0,.2,.1,.3,.3,.3m3.9,0h2.3c.3,0,.4,-.1,.4,-.3c0,-.2,-.1,-.4,-.4,-.4h-2.3c-.2,0,-.4,.2,-.4,.4c0,.2,.2,.3,.4,.3m3.9,0h2.3c.2,0,.4,-.1,.4,-.3c0,-.2,-.2,-.4,-.4,-.4h-2.3c-.2,0,-.4,.2,-.4,.4c0,.2,.2,.3,.4,.3Z" class="gb_18"/>
<path d="M743,324.3h2.2c.2,0,.4,-.1,.4,-.3c0,-.2,-.2,-.4,-.4,-.4H743c-.3,0,-.4,.2,-.4,.4c0,.2,.1,.3,.4,.3m3.7,0h2.2c.2,0,.4,-.1,.4,-.3c0,-.2,-.2,-.4,-.4,-.4h-2.2c-.2,0,-.4,.2,-.4,.4c0,.2,.2,.3,.4,.3m3.7,0h2.2c.2,0,.4,-.1,.4,-.3c0,-.2,-.2,-.4,-.4,-.4h-2.2c-.2,0,-.4,.2,-.4,.4c0,.2,.2,.3,.4,.3m3.7,0h2.3c.2,0,.3,-.1,.3,-.3c0,-.2,-.1,-.4,-.3,-.4h-2.3c-.2,0,-.4,.2,-.4,.4c0,.2,.2,.3,.4,.3m3.7,0h2.3c.2,0,.4,-.1,.4,-.3c0,-.2,-.2,-.4,-.4,-.4h-2.3c-.2,0,-.3,.2,-.3,.4c0,.2,.1,.3,.3,.3m3.8,0h2.2c.2,0,.4,-.1,.4,-.3c0,-.2,-.2,-.4,-.4,-.4h-2.2c-.3,0,-.4,.2,-.4,.4c0,.2,.1,.3,.4,.3Z" class="gb_18"/>
<path d="M695.5,324.3h2.3c.2,0,.4,-.1,.4,-.3c0,-.2,-.2,-.4,-.4,-.4h-2.3c-.2,0,-.3,.2,-.3,.4c0,.2,.1,.3,.3,.3m3.8,0h2.2c.2,0,.4,-.1,.4,-.3c0,-.2,-.2,-.4,-.4,-.4h-2.2c-.3,0,-.4,.2,-.4,.4c0,.2,.1,.3,.4,.3m3.7,0h2.2c.2,0,.4,-.1,.4,-.3c0,-.2,-.2,-.4,-.4,-.4H703c-.2,0,-.4,.2,-.4,.4c0,.2,.2,.3,.4,.3m3.7,0h2.2c.2,0,.4,-.1,.4,-.3c0,-.2,-.2,-.4,-.4,-.4h-2.2c-.2,0,-.4,.2,-.4,.4c0,.2,.2,.3,.4,.3m3.7,0h2.3c.2,0,.3,-.1,.3,-.3c0,-.2,-.1,-.4,-.3,-.4h-2.3c-.2,0,-.4,.2,-.4,.4c0,.2,.2,.3,.4,.3m3.7,0h2.3c.2,0,.4,-.1,.4,-.3c0,-.2,-.2,-.4,-.4,-.4h-2.3c-.2,0,-.3,.2,-.3,.4c0,.2,.1,.3,.3,.3Z" class="gb_18"/>
<path d="M720.4,327v-.8c-1.1,0,-2.1,.9,-2.1,2.1v29.3h23V328.3c0,-1.2,-1,-2.1,-2.1,-2.1H720.4v1.5h18.8c.3,0,.5,.3,.6,.6v27.8h-20V328.3c0,-.3,.3,-.6,.6,-.6Z" class="gb_18"/>
<path d="M722.4,321.9v-.3c-.6,0,-1,.4,-1,1v4.6h16.8v-4.6c0,-.6,-.4,-1,-1,-1H722.4v.7h14.8c.2,0,.3,.1,.3,.3v3.9H722.1v-3.9c0,-.2,.1,-.3,.3,-.3Z" class="gb_18"/>
<path d="M727.2,349h-.3v7.7l.1,.2l.2,.1h5.2l.3,-.1l.1,-.2V349l-.1,-.2l-.3,-.1h-5.2l-.2,.1l-.1,.2h.3v.4H732v6.9h-4.4V349h-.4v.4Z" class="gb_18"/>
<path d="M734.2,349h-.4v4.1l.1,.3l.3,.1h4.1l.3,-.1l.1,-.3V349l-.1,-.2l-.3,-.1h-4.1l-.3,.1l-.1,.2h.4v.4h3.7v3.4h-3.4V349h-.3v.4Z" class="gb_18"/>
<path d="M721.4,349H721v4.1l.1,.3l.3,.1h4.1l.3,-.1l.1,-.3V349l-.1,-.2l-.3,-.1h-4.1l-.3,.1l-.1,.2h.4v.4h3.7v3.4h-3.4V349h-.3v.4Z" class="gb_18"/>
<path d="M729.4,353h.8v-1h-.8v1Z" class="gb_18"/>
<path d="M734.2,342.7h-.4v4.1l.1,.3l.3,.1h4.1l.3,-.1l.1,-.3v-4.1l-.1,-.2l-.3,-.2h-4.1l-.3,.2l-.1,.2h.4v.4h3.7v3.3h-3.4v-3.7h-.3v.4Z" class="gb_18"/>
<path d="M727.8,342.7h-.4v4.1l.1,.3l.3,.1h4.1l.3,-.1l.1,-.3v-4.1l-.1,-.2l-.3,-.2h-4.1l-.3,.2l-.1,.2h.4v.4h3.7v3.3h-3.4v-3.7h-.3v.4Z" class="gb_18"/>
<path d="M721.4,342.7H721v4.1l.1,.3l.3,.1h4.1l.3,-.1l.1,-.3v-4.1l-.1,-.2l-.3,-.2h-4.1l-.3,.2l-.1,.2h.4v.4h3.7v3.3h-3.4v-3.7h-.3v.4Z" class="gb_18"/>
<path d="M734.2,336.4h-.4v4.1l.1,.3l.3,.1h4.1l.3,-.1l.1,-.3v-4.1l-.1,-.3l-.3,-.1h-4.1l-.3,.1l-.1,.3h.4v.4h3.7v3.3h-3.4v-3.7h-.3v.4Z" class="gb_18"/>
<path d="M727.8,336.4h-.4v4.1l.1,.3l.3,.1h4.1l.3,-.1l.1,-.3v-4.1l-.1,-.3l-.3,-.1h-4.1l-.3,.1l-.1,.3h.4v.4h3.7v3.3h-3.4v-3.7h-.3v.4Z" class="gb_18"/>
<path d="M721.4,336.4H721v4.1l.1,.3l.3,.1h4.1l.3,-.1l.1,-.3v-4.1l-.1,-.3l-.3,-.1h-4.1l-.3,.1l-.1,.3h.4v.4h3.7v3.3h-3.4v-3.7h-.3v.4Z" class="gb_18"/>
<path d="M734.2,330.1h-.4v4.1l.1,.3l.3,.1h4.1l.3,-.1l.1,-.3v-4.1l-.1,-.3l-.3,-.1h-4.1l-.3,.1l-.1,.3h.4v.4h3.7v3.3h-3.4v-3.7h-.3v.4Z" class="gb_18"/>
<path d="M727.8,330.1h-.4v4.1l.1,.3l.3,.1h4.1l.3,-.1l.1,-.3v-4.1l-.1,-.3l-.3,-.1h-4.1l-.3,.1l-.1,.3h.4v.4h3.7v3.3h-3.4v-3.7h-.3v.4Z" class="gb_18"/>
<path d="M721.4,330.1H721v4.1l.1,.3l.3,.1h4.1l.3,-.1l.1,-.3v-4.1l-.1,-.3l-.3,-.1h-4.1l-.3,.1l-.1,.3h.4v.4h3.7v3.3h-3.4v-3.7h-.3v.4Z" class="gb_18"/>
<path d="M724.9,323l-.2,-.1l-.4,.7l-.8,.2l-.2,.1v.3l.6,.6l-.1,.8l.1,.3h.2l.8,-.3l.8,.3h.2l.1,-.3v-.8l.5,-.6v-.3l-.1,-.1l-.8,-.2l-.5,-.7l-.2,-.1l-.2,.1l.2,.1l-.2,.1l.5,.8l.2,.1l.5,.2l-.4,.4v.7l-.5,-.2h-.2l-.5,.2l.1,-.6l-.1,-.1l-.4,-.4l.6,-.2l.1,-.1l.5,-.8l-.2,-.1l-.2,.1Z" class="gb_18"/>
<path d="M729.8,323l-.2,-.1l-.4,.7l-.9,.2l-.1,.1v.3l.6,.6l-.1,.8l.1,.3h.2l.8,-.3l.8,.3h.2l.1,-.3l-.1,-.8l.6,-.6v-.3l-.1,-.1l-.9,-.2l-.4,-.7l-.2,-.1l-.2,.1l.2,.1l-.2,.1l.5,.8l.1,.1l.6,.2l-.4,.4v.7l-.5,-.2h-.2l-.5,.2v-.7l-.4,-.4l.6,-.2l.1,-.1l.5,-.8l-.2,-.1l-.2,.1Z" class="gb_18"/>
<path d="M734.7,323l-.2,-.1l-.5,.7l-.8,.2l-.2,.1l.1,.3l.5,.6v.8l.1,.3h.2l.8,-.3l.8,.3h.2l.1,-.3l-.1,-.8l.6,-.6v-.3l-.2,-.1l-.8,-.2l-.4,-.7l-.2,-.1l-.2,.1l.2,.1l-.2,.1l.5,.8l.1,.1l.6,.2l-.4,.4l-.1,.1l.1,.6l-.5,-.2h-.2l-.5,.2v-.7l-.4,-.4l.5,-.2l.2,-.1l.5,-.8l-.2,-.1l-.2,.1Z" class="gb_18"/>
<path d="M717.3,357.9H742c.5,0,.9,-.4,.9,-.9c0,-.5,-.4,-.9,-.9,-.9H717.3c-.5,0,-.9,.4,-.9,.9c0,.5,.4,.9,.9,.9Z" class="gb_18"/>
<path d="M729.7,349v7.3h.3V349Z" class="gb_18"/>
<image clip-path="url(#c17_18)" preserveAspectRatio="none" x="604" y="361" width="80" height="30" xlink:href="img/49.jpg"/>
<image clip-path="url(#c18_18)" preserveAspectRatio="none" x="595" y="290" width="98" height="72" xlink:href="img/50.jpg"/>
<image clip-path="url(#c19_18)" preserveAspectRatio="none" x="604" y="383" width="80" height="3" xlink:href="img/51.jpg"/>
<image clip-path="url(#c1a_18)" preserveAspectRatio="none" x="595" y="361" width="11" height="31" xlink:href="img/52.jpg"/>
<image clip-path="url(#c1b_18)" preserveAspectRatio="none" x="595" y="290" width="10" height="72" xlink:href="img/53.jpg"/>
<image clip-path="url(#c1c_18)" preserveAspectRatio="none" x="595" y="383" width="11" height="3" xlink:href="img/54.jpg"/>
<image clip-path="url(#c1d_18)" preserveAspectRatio="none" x="683" y="361" width="11" height="31" xlink:href="img/55.jpg"/>
<image clip-path="url(#c1e_18)" preserveAspectRatio="none" x="683" y="290" width="10" height="72" xlink:href="img/56.jpg"/>
<image clip-path="url(#c1f_18)" preserveAspectRatio="none" x="683" y="383" width="11" height="3" xlink:href="img/57.jpg"/>
<image clip-path="url(#c1g_18)" preserveAspectRatio="none" x="689" y="311" width="4" height="68" xlink:href="img/58.jpg"/>
<image clip-path="url(#c1h_18)" preserveAspectRatio="none" x="689" y="378" width="4" height="8" xlink:href="img/59.jpg"/>
<path d="M620.4,302.3c-10.1,0,-18.4,8.2,-18.4,18.3v64.2h79.1V320.6c0,-10.1,-8.2,-18.3,-18.4,-18.3Z" class="g1_18"/>
<path d="M602,385.7h79.1v-7.2H602v7.2Z" class="g9_18"/>
<path d="M608.2,328.5h2.2c.2,0,.3,-.2,.3,-.4c0,-.2,-.1,-.4,-.3,-.4h-2.2c-.2,0,-.4,.2,-.4,.4c0,.2,.2,.4,.4,.4m3.6,0h2.1c.2,0,.4,-.2,.4,-.4c0,-.2,-.2,-.4,-.4,-.4h-2.1c-.2,0,-.4,.2,-.4,.4c0,.2,.2,.4,.4,.4m3.5,0h2.2c.2,0,.4,-.2,.4,-.4c0,-.2,-.2,-.4,-.4,-.4h-2.2c-.2,0,-.4,.2,-.4,.4c0,.2,.2,.4,.4,.4m3.6,0H621c.2,0,.4,-.2,.4,-.4c0,-.2,-.2,-.4,-.4,-.4h-2.1c-.2,0,-.4,.2,-.4,.4c0,.2,.2,.4,.4,.4m3.5,0h2.2c.2,0,.4,-.2,.4,-.4c0,-.2,-.2,-.4,-.4,-.4h-2.2c-.2,0,-.4,.2,-.4,.4c0,.2,.2,.4,.4,.4m3.6,0h2.1c.2,0,.4,-.2,.4,-.4c0,-.2,-.2,-.4,-.4,-.4H626c-.2,0,-.4,.2,-.4,.4c0,.2,.2,.4,.4,.4m3.5,0h2.2c.2,0,.4,-.2,.4,-.4c0,-.2,-.2,-.4,-.4,-.4h-2.2c-.2,0,-.4,.2,-.4,.4c0,.2,.2,.4,.4,.4Z" class="gc_18"/>
<path d="M608.2,360.7h2.3c.2,0,.4,-.1,.4,-.3c0,-.2,-.2,-.4,-.4,-.4h-2.3c-.2,0,-.4,.2,-.4,.4c0,.2,.2,.3,.4,.3m3.9,0h2.3c.2,0,.4,-.1,.4,-.3c0,-.2,-.2,-.4,-.4,-.4h-2.3c-.2,0,-.4,.2,-.4,.4c0,.2,.2,.3,.4,.3m3.9,0h2.3c.2,0,.4,-.1,.4,-.3c0,-.2,-.2,-.4,-.4,-.4H616c-.2,0,-.4,.2,-.4,.4c0,.2,.2,.3,.4,.3m3.9,0h2.3c.2,0,.4,-.1,.4,-.3c0,-.2,-.2,-.4,-.4,-.4h-2.3c-.3,0,-.4,.2,-.4,.4c0,.2,.1,.3,.4,.3m3.8,0h2.4c.2,0,.3,-.1,.3,-.3c0,-.2,-.1,-.4,-.3,-.4h-2.4c-.2,0,-.3,.2,-.3,.4c0,.2,.1,.3,.3,.3m3.9,0h2.3c.3,0,.4,-.1,.4,-.3c0,-.2,-.1,-.4,-.4,-.4h-2.3c-.2,0,-.4,.2,-.4,.4c0,.2,.2,.3,.4,.3m3.9,0h2.3c.2,0,.4,-.1,.4,-.3c0,-.2,-.2,-.4,-.4,-.4h-2.3c-.2,0,-.4,.2,-.4,.4c0,.2,.2,.3,.4,.3m3.9,0h2.3c.2,0,.4,-.1,.4,-.3c0,-.2,-.2,-.4,-.4,-.4h-2.3c-.2,0,-.4,.2,-.4,.4c0,.2,.2,.3,.4,.3m3.9,0h2.3c.2,0,.4,-.1,.4,-.3c0,-.2,-.2,-.4,-.4,-.4h-2.3c-.2,0,-.4,.2,-.4,.4c0,.2,.2,.3,.4,.3m3.8,0h2.4c.2,0,.4,-.1,.4,-.3c0,-.2,-.2,-.4,-.4,-.4h-2.4c-.2,0,-.3,.2,-.3,.4c0,.2,.1,.3,.3,.3m3.9,0h2.4c.2,0,.3,-.1,.3,-.3c0,-.2,-.1,-.4,-.3,-.4H647c-.2,0,-.4,.2,-.4,.4c0,.2,.2,.3,.4,.3m3.9,0h2.3c.2,0,.4,-.1,.4,-.3c0,-.2,-.2,-.4,-.4,-.4h-2.3c-.2,0,-.4,.2,-.4,.4c0,.2,.2,.3,.4,.3m3.9,0h2.3c.2,0,.4,-.1,.4,-.3c0,-.2,-.2,-.4,-.4,-.4h-2.3c-.2,0,-.4,.2,-.4,.4c0,.2,.2,.3,.4,.3m3.9,0H661c.2,0,.4,-.1,.4,-.3c0,-.2,-.2,-.4,-.4,-.4h-2.3c-.2,0,-.4,.2,-.4,.4c0,.2,.2,.3,.4,.3m3.9,0h2.3c.2,0,.4,-.1,.4,-.3c0,-.2,-.2,-.4,-.4,-.4h-2.3c-.3,0,-.4,.2,-.4,.4c0,.2,.1,.3,.4,.3m3.8,0h2.4c.2,0,.3,-.1,.3,-.3c0,-.2,-.1,-.4,-.3,-.4h-2.4c-.2,0,-.3,.2,-.3,.4c0,.2,.1,.3,.3,.3m3.9,0h2.3c.3,0,.4,-.1,.4,-.3c0,-.2,-.1,-.4,-.4,-.4h-2.3c-.2,0,-.4,.2,-.4,.4c0,.2,.2,.3,.4,.3m3.9,0h2.3c.2,0,.4,-.1,.4,-.3c0,-.2,-.2,-.4,-.4,-.4h-2.3c-.2,0,-.4,.2,-.4,.4c0,.2,.2,.3,.4,.3Z" class="gc_18"/>
<path d="M655,328.5h2.3c.2,0,.4,-.2,.4,-.4c0,-.2,-.2,-.4,-.4,-.4H655c-.2,0,-.4,.2,-.4,.4c0,.2,.2,.4,.4,.4m3.8,0h2.3c.3,0,.4,-.2,.4,-.4c0,-.2,-.1,-.4,-.4,-.4h-2.3c-.2,0,-.3,.2,-.3,.4c0,.2,.1,.4,.3,.4m3.9,0H665c.2,0,.4,-.2,.4,-.4c0,-.2,-.2,-.4,-.4,-.4h-2.3c-.2,0,-.4,.2,-.4,.4c0,.2,.2,.4,.4,.4m3.8,0h2.3c.2,0,.4,-.2,.4,-.4c0,-.2,-.2,-.4,-.4,-.4h-2.3c-.2,0,-.4,.2,-.4,.4c0,.2,.2,.4,.4,.4m3.9,0h2.3c.2,0,.4,-.2,.4,-.4c0,-.2,-.2,-.4,-.4,-.4h-2.3c-.2,0,-.4,.2,-.4,.4c0,.2,.2,.4,.4,.4m3.8,0h2.3c.2,0,.4,-.2,.4,-.4c0,-.2,-.2,-.4,-.4,-.4h-2.3c-.2,0,-.4,.2,-.4,.4c0,.2,.2,.4,.4,.4Z" class="gc_18"/>
<path d="M651.5,340.2c0,3.3,0,6.7,.1,10.1c0,3.1,-1.4,5.4,-4.6,6.7c-3.2,1.5,-6.4,1.2,-9.5,-.6c-.4,-.3,-.8,-.6,-1.1,-.9c-.1,-.2,-.1,-.7,.1,-.9c.1,-.2,.7,-.1,1,-.1c.2,.1,.4,.3,.6,.5c3.1,2.3,7.9,2,10.5,-.7c1,-1.1,1.4,-2.4,1.4,-3.9c0,-6.8,0,-13.6,0,-20.4c.1,-2.4,-1,-4.3,-3.5,-5.5c-2.7,-1.2,-5.3,-1,-7.8,.4c-.4,.2,-.7,.4,-1,.7c-.4,.3,-.9,.4,-1.2,0c-.1,-.3,0,-.8,.2,-1.1c1.1,-1,2.6,-1.6,4.1,-1.9c4.8,-1,9.6,1.5,10.6,5.5c.1,.5,.1,1.1,.1,1.6c.1,3.5,0,7,0,10.5Z" class="gc_18"/>
<path d="M636.5,332.3c-1.7,-.3,-2.3,-1.4,-1.6,-3c.5,-1,1.4,-1.5,2.4,-1.8c1.6,-.5,3.2,-.6,4.8,-.1c2,.6,3.1,2.5,2.9,4.5c-.1,2,-1.7,3.7,-3.6,3.9c-2.2,.2,-4,-.9,-4.7,-2.8c-.1,-.2,-.2,-.5,-.2,-.7m7.1,0c-1.4,-.5,-1.6,-.6,-2.3,-1.9c-.1,-.2,-.3,-.5,-.5,-.8c-.6,-.9,-1.3,-1,-2.1,-.2c-.9,.9,-1.1,2.2,-.7,3.3c.5,1.1,1.6,1.8,2.8,1.7c1.3,0,2.3,-.7,2.8,-2.1m0,-1.6c.2,-1,-1.7,-1.7,-1.7,-1.7c.4,1.8,1.7,2.2,1.7,1.7M637.2,329c-1.9,.8,-.9,2.2,-.8,1.9c0,0,.2,-1.2,.8,-1.9Z" class="gc_18"/>
<path d="M636.5,341.6c-1.7,-.3,-2.3,-1.4,-1.6,-3c.5,-1,1.4,-1.5,2.4,-1.8c1.6,-.5,3.2,-.5,4.8,0c2,.6,3.1,2.4,2.9,4.5c-.1,1.9,-1.7,3.6,-3.6,3.8c-2.2,.3,-4,-.8,-4.7,-2.8c-.1,-.2,-.2,-.4,-.2,-.7m7.1,0c-1.4,-.4,-1.6,-.6,-2.3,-1.8c-.1,-.3,-.3,-.6,-.5,-.9c-.6,-.9,-1.3,-1,-2.1,-.2c-.9,.9,-1.1,2.2,-.7,3.3c.5,1.1,1.6,1.8,2.8,1.8c1.3,-.1,2.3,-.8,2.8,-2.2m0,-1.6c.2,-1,-1.7,-1.6,-1.7,-1.6c.4,1.7,1.7,2.2,1.7,1.6m-6.4,-1.7c-1.9,.8,-.9,2.3,-.8,1.9c0,0,.2,-1.2,.8,-1.9Z" class="gc_18"/>
<path d="M636.5,350.7c-1.7,-.3,-2.3,-1.4,-1.6,-3c.5,-1,1.4,-1.5,2.4,-1.8c1.6,-.5,3.2,-.5,4.8,0c2,.6,3.1,2.4,2.9,4.5c-.1,1.9,-1.7,3.6,-3.6,3.8c-2.2,.3,-4,-.8,-4.7,-2.8c-.1,-.2,-.2,-.4,-.2,-.7m7.1,0c-1.4,-.4,-1.6,-.6,-2.3,-1.8c-.1,-.3,-.3,-.6,-.5,-.9c-.6,-.9,-1.3,-1,-2.1,-.2c-.9,.9,-1.1,2.2,-.7,3.3c.5,1.1,1.6,1.8,2.8,1.8c1.3,-.1,2.3,-.8,2.8,-2.2m0,-1.6c.2,-1,-1.7,-1.6,-1.7,-1.6c.4,1.7,1.7,2.2,1.7,1.6m-6.4,-1.7c-1.9,.8,-.9,2.3,-.8,1.9c0,0,.2,-1.2,.8,-1.9Z" class="gc_18"/>
<path d="M632.6,345.2l-5.2,-5.5c-.3,-.3,-.7,-.3,-.9,0c-.3,.2,-.3,.6,0,.8l5.2,5.6c.3,.2,.7,.2,.9,0c.3,-.2,.3,-.6,0,-.9Z" class="gc_18"/>
<path d="M632.6,352.9l-5.2,5.5c-.3,.2,-.7,.3,-.9,0c-.3,-.2,-.3,-.6,0,-.9l5.2,-5.5c.3,-.3,.7,-.3,.9,0c.3,.2,.3,.6,0,.9Z" class="gc_18"/>
<path d="M631.4,347.2l-7.2,-1.4c-.4,-.1,-.7,.2,-.8,.5c0,.3,.2,.7,.5,.7l7.3,1.4c.3,.1,.6,-.1,.7,-.5c.1,-.3,-.1,-.6,-.5,-.7Z" class="gc_18"/>
<path d="M631.4,350.9l-7.2,1.4c-.4,0,-.7,-.2,-.8,-.5c0,-.4,.2,-.7,.5,-.8l7.3,-1.4c.3,0,.6,.2,.7,.5c.1,.4,-.1,.7,-.5,.8Z" class="gc_18"/>
<path d="M890,1286.2h19.4V0H890V1286.2Z" class="g1_18"/>
</svg>