<?xml version="1.0" encoding="UTF-8" standalone="no"?>
<!DOCTYPE svg PUBLIC "-//W3C//DTD SVG 1.1//EN"
"http://www.w3.org/Graphics/SVG/1.1/DTD/svg11.dtd">
<svg viewBox="0 0 909 1286" version="1.1" xmlns="http://www.w3.org/2000/svg" xmlns:xlink="http://www.w3.org/1999/xlink">
<defs>
<clipPath id="c0_23"><path d="M0,47.4V0H159.4V47.4H92.1V42.8H43.2v4.6Z"/></clipPath>
<clipPath id="c1_23"><path d="M159.3,47.4V0H319V47.4Z"/></clipPath>
<clipPath id="c2_23"><path d="M318.8,47.4V0H478.5V47.4Z"/></clipPath>
<clipPath id="c3_23"><path d="M478.3,47.4V0H584.6V47.4Z"/></clipPath>
<clipPath id="c4_23"><path d="M0,94.8V47.2H43.2v8.2H92.1V47.2h67.3V94.8Z"/></clipPath>
<clipPath id="c5_23"><path d="M478.3,94.8V47.2H584.6V94.8Z"/></clipPath>
<clipPath id="c6_23"><path d="M0,142.1V94.6H159.4v47.5Z"/></clipPath>
<clipPath id="c7_23"><path d="M478.3,142.1V94.6H584.6v47.5Z"/></clipPath>
<clipPath id="c8_23"><path d="M0,189.6V142H159.4v47.6Z"/></clipPath>
<clipPath id="c9_23"><path d="M478.3,189.6V142H584.6v47.6Z"/></clipPath>
<clipPath id="ca_23"><path d="M0,236.9V189.4H159.4v47.5Z"/></clipPath>
<clipPath id="cb_23"><path d="M478.3,236.9V189.4H584.6v47.5Z"/></clipPath>
<clipPath id="cc_23"><path d="M0,284.4V236.7H159.4v22.6H135.5v25.1Z"/></clipPath>
<clipPath id="cd_23"><path d="M159.3,259.3V236.7H319v22.6Z"/></clipPath>
<clipPath id="ce_23"><path d="M318.8,259.3V236.7H478.5v22.6Z"/></clipPath>
<clipPath id="cf_23"><path d="M478.3,259.3V236.7H584.6v22.6Z"/></clipPath>
<clipPath id="cg_23"><path d="M0,331.5V284.2H135.5v47.3Z"/></clipPath>
<clipPath id="ch_23"><path d="M43.2,55.4V42.8H92.1V55.4Z"/></clipPath>
<clipPath id="ci_23"><path d="M135.5,360.5v-5.1h88.1v5.1Zm0,-7.4V331.5h88.1v21.6Z"/></clipPath>
<clipPath id="cj_23"><path d="M135.5,331.5V259.3h88.1v72.2Z"/></clipPath>
<clipPath id="ck_23"><path d="M135.5,355.4v-2.3h88.1v2.3Z"/></clipPath>
<clipPath id="cl_23"><path d="M232.8,360.5v-5.1h78.8v5.1Zm0,-7.4V331.5h78.8v21.6Z"/></clipPath>
<clipPath id="cm_23"><path d="M232.8,331.5V259.3h78.8v72.2Z"/></clipPath>
<clipPath id="cn_23"><path d="M232.8,355.4v-2.3h78.8v2.3Z"/></clipPath>
<clipPath id="co_23"><path d="M223.6,360.5v-5.1h9.2v5.1Zm0,-7.4V331.5h9.2v21.6Z"/></clipPath>
<clipPath id="cp_23"><path d="M223.6,331.5V259.3h9.2v72.2Z"/></clipPath>
<clipPath id="cq_23"><path d="M223.6,355.4v-2.3h9.2v2.3Z"/></clipPath>
<clipPath id="cr_23"><path d="M497.2,360.5v-5.1h87.4v-2.3h-11V331.5h11V259.3h.7V360.5Z"/></clipPath>
<clipPath id="cs_23"><path d="M573.6,331.5V290.3c0,-3.9,-1.2,-7.5,-3.3,-10.4v-2.6h-2.2C564.8,274,560.3,272,555.3,272H512.9c-5,0,-9.5,2,-12.8,5.3h-2.5v3c-.2,.2,-.3,.4,-.4,.6V259.3h87.4v72.2Z"/></clipPath>
<clipPath id="ct_23"><path d="M573.6,355.4v-2.3h11v2.3Z"/></clipPath>
<clipPath id="cu_23"><path d="M497.6,280.3v-3h2.5c-1,.9,-1.8,1.9,-2.5,3Zm72.7,-.4c-.6,-1,-1.3,-1.8,-2.2,-2.6h2.2v2.6Z"/></clipPath>
<clipPath id="cv_23"><path d="M409,360.5v-5.1h78.9v5.1Zm76.5,-7.4V331.5h2.4v21.6Z"/></clipPath>
<clipPath id="cw_23"><path d="M485.5,331.5V290.3c0,-10.1,-8.2,-18.3,-18.3,-18.3H424.8c-6.7,0,-12.6,3.7,-15.8,9.1V259.3h78.9v72.2Z"/></clipPath>
<clipPath id="cx_23"><path d="M485.5,355.4v-2.3h2.4v2.3Z"/></clipPath>
<clipPath id="cy_23"><path d="M487.9,360.5v-5.1h9.3v5.1Zm0,-7.4V331.5h6.7v16.7h-.1v4.9Z"/></clipPath>
<clipPath id="cz_23"><path d="M487.9,331.5V259.3h9.3v21.6c-1.7,2.8,-2.6,6,-2.6,9.4v41.2Z"/></clipPath>
<clipPath id="c10_23"><path d="M487.9,355.4v-2.3h6.6v2.3Z"/></clipPath>
<clipPath id="c11_23"><path d="M494.6,348.2V290.3c0,-3.4,.9,-6.6,2.6,-9.4v67.3Z"/></clipPath>
<clipPath id="c12_23"><path d="M494.5,355.4v-7.2h2.7v7.2Z"/></clipPath>
<clipPath id="c13_23"><path d="M321,360.5v-5.1h78.8v5.1Zm0,-7.4V331.5h78.8v21.6Z"/></clipPath>
<clipPath id="c14_23"><path d="M321,331.5V259.3h78.8v72.2Z"/></clipPath>
<clipPath id="c15_23"><path d="M321,355.4v-2.3h78.8v2.3Z"/></clipPath>
<clipPath id="c16_23"><path d="M311.6,360.5v-5.1H321v5.1Zm0,-7.4V331.5H321v21.6Z"/></clipPath>
<clipPath id="c17_23"><path d="M311.6,331.5V259.3H321v72.2Z"/></clipPath>
<clipPath id="c18_23"><path d="M311.6,355.4v-2.3H321v2.3Z"/></clipPath>
<clipPath id="c19_23"><path d="M399.8,360.5v-5.1H409v5.1Zm0,-7.4V331.5h6.7v16.7h-.1v4.9Z"/></clipPath>
<clipPath id="c1a_23"><path d="M399.8,331.5V259.3H409v21.8c-1.6,2.7,-2.5,5.9,-2.5,9.2v41.2Z"/></clipPath>
<clipPath id="c1b_23"><path d="M399.8,355.4v-2.3h6.6v2.3Z"/></clipPath>
<clipPath id="c1c_23"><path d="M406.5,348.2V290.3c0,-3.3,.9,-6.5,2.5,-9.2v67.1Z"/></clipPath>
<clipPath id="c1d_23"><path d="M406.4,355.4v-7.2H409v7.2Z"/></clipPath>
<style type="text/css"><![CDATA[
.g0_23{
fill: #E7E8E8;
}
.g1_23{
fill: #1B1661;
}
.g2_23{
fill: #DCDDDE;
}
.g3_23{
fill: #FFF;
}
.g4_23{
fill: #ED1A40;
}
.g5_23{
fill: #FCB61D;
}
.g6_23{
fill: #FEE6BB;
}
.g7_23{
fill: #CFCBCA;
}
.g8_23{
fill: #5AC4C1;
}
.g9_23{
fill: #09B795;
}
.ga_23{
fill: #F37537;
}
.gb_23{
fill: #5180C1;
}
]]></style>
</defs>
<image clip-path="url(#c0_23)" preserveAspectRatio="none" x="0" y="0" width="159" height="47" xlink:href="img/1.jpg"/>
<image clip-path="url(#c1_23)" preserveAspectRatio="none" x="159" y="0" width="160" height="47" xlink:href="img/2.jpg"/>
<image clip-path="url(#c2_23)" preserveAspectRatio="none" x="319" y="0" width="159" height="47" xlink:href="img/3.jpg"/>
<image clip-path="url(#c3_23)" preserveAspectRatio="none" x="478" y="0" width="107" height="47" xlink:href="img/4.jpg"/>
<image clip-path="url(#c4_23)" preserveAspectRatio="none" x="0" y="47" width="159" height="48" xlink:href="img/5.jpg"/>
<image preserveAspectRatio="none" x="159" y="47" width="160" height="48" xlink:href="img/6.jpg"/>
<image preserveAspectRatio="none" x="319" y="47" width="159" height="48" xlink:href="img/7.jpg"/>
<image clip-path="url(#c5_23)" preserveAspectRatio="none" x="478" y="47" width="107" height="48" xlink:href="img/8.jpg"/>
<image clip-path="url(#c6_23)" preserveAspectRatio="none" x="0" y="95" width="159" height="47" xlink:href="img/9.jpg"/>
<image preserveAspectRatio="none" x="159" y="95" width="160" height="47" xlink:href="img/10.jpg"/>
<image preserveAspectRatio="none" x="319" y="95" width="159" height="47" xlink:href="img/11.jpg"/>
<image clip-path="url(#c7_23)" preserveAspectRatio="none" x="478" y="95" width="107" height="47" xlink:href="img/12.jpg"/>
<image clip-path="url(#c8_23)" preserveAspectRatio="none" x="0" y="142" width="159" height="48" xlink:href="img/13.jpg"/>
<image preserveAspectRatio="none" x="159" y="142" width="160" height="48" xlink:href="img/14.jpg"/>
<image preserveAspectRatio="none" x="319" y="142" width="159" height="48" xlink:href="img/15.jpg"/>
<image clip-path="url(#c9_23)" preserveAspectRatio="none" x="478" y="142" width="107" height="48" xlink:href="img/16.jpg"/>
<image clip-path="url(#ca_23)" preserveAspectRatio="none" x="0" y="189" width="159" height="48" xlink:href="img/17.jpg"/>
<image preserveAspectRatio="none" x="159" y="189" width="160" height="48" xlink:href="img/18.jpg"/>
<image preserveAspectRatio="none" x="319" y="189" width="159" height="48" xlink:href="img/19.jpg"/>
<image clip-path="url(#cb_23)" preserveAspectRatio="none" x="478" y="189" width="107" height="48" xlink:href="img/20.jpg"/>
<image clip-path="url(#cc_23)" preserveAspectRatio="none" x="0" y="237" width="159" height="47" xlink:href="img/21.jpg"/>
<image clip-path="url(#cd_23)" preserveAspectRatio="none" x="159" y="237" width="160" height="47" xlink:href="img/22.jpg"/>
<image clip-path="url(#ce_23)" preserveAspectRatio="none" x="319" y="237" width="159" height="47" xlink:href="img/23.jpg"/>
<image clip-path="url(#cf_23)" preserveAspectRatio="none" x="478" y="237" width="107" height="47" xlink:href="img/24.jpg"/>
<image clip-path="url(#cg_23)" preserveAspectRatio="none" x="0" y="284" width="159" height="48" xlink:href="img/25.jpg"/>
<image clip-path="url(#ch_23)" preserveAspectRatio="none" x="43" y="43" width="49" height="13" xlink:href="img/26.jpg"/>
<path d="M606.3,1241.2H866.1V905.3H606.3v335.9Z" class="g0_23"/>
<path d="M606.3,905.3H866.1V933H606.3V905.3Z" class="g1_23"/>
<path d="M606.3,933H866.1v26.1H606.3V933Zm0,272H866.1v36.2H606.3V1205Z" class="g2_23"/>
<path d="M606.3,959.5H866.1v-.8H606.3v.8Z" class="g3_23"/>
<path d="M606.3,1205.4H866.1v-.8H606.3v.8Z" class="g3_23"/>
<path d="M625.4,916.9l-1,-.6c-.2,-.2,-.6,-.1,-.8,.1l-4.7,7l-2.1,-2.2c-.3,-.2,-.6,-.2,-.8,0l-.9,.8c-.2,.3,-.2,.6,0,.9l3.4,3.3c.1,.2,.4,.3,.7,.3c.3,0,.5,-.2,.7,-.4l5.6,-8.4c.2,-.2,.2,-.6,-.1,-.8Z" class="g3_23"/>
<path d="M325.6,691.3h-.8v364.3H584.6V690.5H324.8v.8h.8v.8H583.1v362H326.3V691.3h-.7v.8Z" class="g1_23"/>
<path d="M369.8,696.7H539.6V683H369.8Z" class="g3_23"/>
<path d="M610.6,237.3c-2.4,0,-4.3,2,-4.3,4.4V276c0,2.3,1.9,4.3,4.3,4.3H861.8c2.4,0,4.3,-2,4.3,-4.3V241.7c0,-2.4,-1.9,-4.4,-4.3,-4.4Z" class="g4_23"/>
<path d="M727.1,265.2h69.7v-.9H727.1Z" class="g3_23"/>
<path d="M324.8,1242H584.6V1068.6H324.8V1242Z" class="g0_23"/>
<path d="M324.8,1068.6H584.6v26.3H324.8v-26.3Z" class="g1_23"/>
<path d="M324.8,1094.9H511.6V1117H324.8v-22.1Zm186.8,0h73V1117h-73v-22.1Zm-186.8,44.3H511.6v37.4H324.8v-37.4Zm186.8,0h73v37.4h-73v-37.4Zm-186.8,59.6H511.6v22.1H324.8v-22.1Zm186.8,0h73v22.1h-73v-22.1Z" class="g2_23"/>
<path d="M324.8,1221.7H511.6v-1.5H324.8Z" class="g3_23"/>
<path d="M511.6,1221.7h73v-1.5h-73Z" class="g3_23"/>
<path d="M343.9,1078.8l-1,-.6c-.2,-.2,-.6,-.1,-.8,.1l-4.7,6.9l-2.1,-2.1c-.3,-.2,-.6,-.2,-.8,0l-.9,.8c-.2,.2,-.2,.6,0,.8l3.4,3.3c.1,.2,.4,.4,.7,.4c.3,0,.5,-.2,.7,-.4l5.7,-8.4c.1,-.2,.1,-.6,-.2,-.8Z" class="g3_23"/>
<path d="M606.7,183.9h34.6v35.7H606.7V183.9Z" class="g3_23"/>
<image x="641" y="183" width="226" height="37" xlink:href="shade/1.png"/>
<path d="M641.3,205H866.1v-1.5H641.3Z" class="g5_23"/>
<path d="M624.5,218.1c9.9,0,17.9,-8,17.9,-17.9c0,-9.8,-8,-17.8,-17.9,-17.8c-9.8,0,-17.8,8,-17.8,17.8c0,9.9,8,17.9,17.8,17.9Z" class="g5_23"/>
<path d="M635,202c0,.7,.2,1.4,.2,2.2c-.1,2,-1,3.5,-2.7,4.6c-1.3,.9,-2.8,1.3,-4.4,1.3c-2.4,0,-4.8,0,-7.2,0c-1.6,0,-3.1,-.4,-4.5,-1.4c-1.9,-1.3,-2.7,-3.2,-2.5,-5.6c.3,-1.9,.4,-3.9,.4,-5.8c.1,-1.9,0,-3.7,0,-5.5c-.1,-2.1,.8,-3.7,2.5,-5c1.5,-1,3.1,-1.5,4.9,-1.5c1.9,-.1,3.8,-.1,5.7,0c1.7,0,3.3,.4,4.7,1.4c1.9,1.3,2.8,3.2,2.7,5.6c-.1,1.2,-.1,2.4,-.1,3.6c0,0,.1,4.1,.3,6.1M624.5,186.5v-.1c-.9,0,-1.8,0,-2.8,0c-1.3,.1,-2.5,.4,-3.7,1.1c-1.5,.9,-2.6,2.2,-2.5,4.1c.1,.9,.3,1.7,.6,2.5c.4,1.4,1,2.6,2.1,3.6c.3,.2,.3,.5,0,.8c-.6,.7,-1.3,1.3,-2.1,1.5c-.6,.2,-.7,.5,-.8,1c0,.5,.1,.9,.5,1.2c.7,.8,1.6,1.4,2.6,1.8c1.8,.8,3.7,1,5.7,1.1c2,0,4,-.2,6,-.9c1.3,-.5,2.5,-1.1,3.4,-2.3c.1,-.1,.2,-.3,.2,-.4c0,-.3,0,-.7,-.1,-1l-.2,-.3c-1,-.3,-1.8,-.9,-2.6,-1.7c-.3,-.3,-.2,-.6,.1,-.9c.4,-.5,.9,-1,1.2,-1.5c.7,-1.2,1.2,-2.6,1.4,-4c.2,-1.1,-.1,-2.2,-.8,-3.1c-1.1,-1.6,-2.7,-2.3,-4.6,-2.5c-1.2,-.1,-2.4,0,-3.6,0M615.2,203c-.4,1.6,0,3.1,1.3,4.2c1.2,1.2,2.8,1.7,4.5,1.7c2.3,0,4.7,0,7,0c.8,0,1.6,-.1,2.3,-.3c1.4,-.5,2.6,-1.3,3.3,-2.7c.4,-.9,.5,-1.9,.2,-2.9h-.1c-1.1,1.4,-2.6,2.2,-4.2,2.6c-2.9,.8,-5.8,.8,-8.7,.3c-1.4,-.2,-2.7,-.6,-3.9,-1.4c-.6,-.5,-1.1,-1,-1.7,-1.5Z" class="g6_23"/>
<path d="M619.2,210.5c-.5,.4,-1,.8,-1.5,1.2c-.5,.4,-1.8,1.3,-2.3,1.8c-.2,.2,-.5,.1,-.8,.1l-.3,-.4c0,-.2,0,-.4,.3,-.6c.3,-.2,1.3,-1.1,1.7,-1.4c.4,-.3,.8,-.6,1.3,-.9l.4,-.1c.4,.1,.7,.2,1.2,.3Z" class="g6_23"/>
<path d="M629.9,210.5c.5,-.1,.9,-.3,1.3,-.4l.3,.1c.7,.6,2.3,1.8,3,2.4c.1,.1,.2,.2,.3,.3c.1,.3,0,.6,-.2,.6c-.2,.1,-.6,.2,-.7,.1c-1.1,-.8,-2.9,-2.2,-4,-3.1Z" class="g6_23"/>
<path d="M624.5,197.2c-1.1,0,-2.2,0,-3.2,0c-2,-.2,-3.5,-1.6,-3.9,-3.6c-.1,-.5,-.2,-.9,-.3,-1.4c-.4,-1.9,1,-3.6,2.9,-3.6c3,0,6,0,9,0c1.9,0,3.2,1.5,3,3.3c-.2,1.1,-.3,2.2,-.9,3.1c-.8,1.4,-2.1,2.2,-3.8,2.2c-.9,0,-1.9,0,-2.8,0Z" class="g6_23"/>
<path d="M629.1,199.9c.2,0,.5,0,.8,0c.4,0,.7,.3,.5,.6c-.4,.8,-1,1.7,-1.5,2.5c-.1,.2,-.3,.3,-.5,.3c-.6,0,-1.1,0,-1.6,0c-.5,0,-.8,-.3,-.6,-.6c.5,-.9,1,-1.7,1.5,-2.5c.1,-.2,.3,-.3,.6,-.3c.3,0,.5,0,.8,0Z" class="g6_23"/>
<path d="M621.5,203.3c-.3,0,-.5,0,-.7,0c-.4,0,-.6,-.1,-.7,-.3c-.5,-.8,-1,-1.6,-1.4,-2.5c-.3,-.3,0,-.6,.6,-.6c.4,0,.9,0,1.4,0c.4,0,.6,.1,.7,.3c.5,.8,1,1.6,1.5,2.5c.1,.3,-.1,.6,-.6,.6c-.3,0,-.5,0,-.8,0Z" class="g6_23"/>
<path d="M625.6,207.7c0,.5,-.5,1,-1.1,1c-.5,0,-1,-.5,-1,-1c0,-.6,.4,-1.1,1,-1.1c.6,0,1.1,.5,1.1,1.1Z" class="g6_23"/>
<path d="M606.3,874H866.1v-1.5H606.3Z" class="g7_23"/>
<path d="M782.1,374.2V354.7h-.8v19.5Z" class="g3_23"/>
<path d="M782.1,393.8V374.2h-.8v19.6Z" class="g3_23"/>
<path d="M782.1,413.3V393.8h-.8v19.5Z" class="g3_23"/>
<path d="M782.1,432.8V413.3h-.8v19.5Z" class="g3_23"/>
<path d="M782.1,452.4V432.8h-.8v19.6Z" class="g3_23"/>
<path d="M782.1,471.9V452.4h-.8v19.5Z" class="g3_23"/>
<path d="M782.1,491.4V471.9h-.8v19.5Z" class="g3_23"/>
<path d="M782.1,511V491.4h-.8V511Z" class="g3_23"/>
<path d="M782.1,530.5V511h-.8v19.5Z" class="g3_23"/>
<path d="M782.1,550V530.5h-.8V550Z" class="g3_23"/>
<path d="M782.1,569.6V550h-.8v19.6Z" class="g3_23"/>
<path d="M782.1,589.1V569.6h-.8v19.5Z" class="g3_23"/>
<path d="M640.9,337.4H781.7v-1.5H640.9Z" class="g5_23"/>
<path d="M781.7,337.4h84.4v-1.5H781.7Z" class="g5_23"/>
<path d="M624.1,352.4c9.9,0,17.9,-8,17.9,-17.8c0,-9.9,-8,-17.9,-17.9,-17.9c-9.8,0,-17.8,8,-17.8,17.9c0,9.8,8,17.8,17.8,17.8Z" class="g5_23"/>
<path d="M634.6,336.4c0,.7,.2,1.4,.2,2.1c0,2.1,-1,3.6,-2.7,4.7c-1.3,.9,-2.8,1.3,-4.3,1.3c-2.4,0,-4.8,0,-7.2,0c-1.7,0,-3.2,-.4,-4.5,-1.4c-2,-1.3,-2.8,-3.2,-2.5,-5.6c.2,-1.9,.3,-3.9,.4,-5.9c0,-1.8,-.1,-3.6,-.1,-5.4c0,-2.1,.9,-3.7,2.5,-5c1.5,-1.1,3.1,-1.5,4.9,-1.6c1.9,0,3.9,0,5.8,0c1.6,.1,3.2,.5,4.6,1.5c1.9,1.3,2.8,3.2,2.7,5.6c-.1,1.2,0,2.4,0,3.6c-.1,0,.1,4,.2,6.1M624.2,320.9v-.1c-1,0,-1.9,0,-2.9,0c-1.3,.1,-2.5,.4,-3.6,1c-1.6,1,-2.7,2.3,-2.6,4.2c.1,.8,.3,1.7,.6,2.5c.4,1.4,1,2.6,2.1,3.5c.3,.3,.3,.6,0,.9c-.6,.6,-1.3,1.2,-2.1,1.5c-.6,.2,-.7,.5,-.7,1c-.1,.5,.1,.9,.4,1.2c.7,.8,1.7,1.4,2.7,1.8c1.8,.8,3.7,1,5.6,1c2,.1,4.1,-.1,6,-.8c1.4,-.5,2.6,-1.2,3.4,-2.3c.1,-.1,.2,-.3,.2,-.4c0,-.4,0,-.7,0,-1.1l-.3,-.2c-1,-.4,-1.8,-1,-2.5,-1.7c-.3,-.3,-.3,-.6,0,-.9c.4,-.5,.9,-1,1.2,-1.5c.8,-1.2,1.2,-2.6,1.4,-4c.2,-1.2,-.1,-2.2,-.8,-3.1c-1.1,-1.6,-2.7,-2.3,-4.6,-2.5c-1.2,-.1,-2.3,0,-3.5,0m-9.4,16.5c-.3,1.6,0,3,1.3,4.2c1.3,1.2,2.8,1.7,4.5,1.7c2.4,0,4.7,0,7,0c.8,0,1.6,-.1,2.4,-.4c1.3,-.5,2.5,-1.2,3.2,-2.6c.5,-.9,.5,-1.9,.3,-3l-.1,.1c-1.1,1.4,-2.6,2.2,-4.3,2.6c-2.9,.8,-5.7,.8,-8.6,.3c-1.4,-.2,-2.8,-.6,-3.9,-1.4c-.7,-.5,-1.2,-1,-1.8,-1.5Z" class="g6_23"/>
<path d="M618.8,344.9c-.5,.4,-1,.8,-1.5,1.1c-.5,.4,-1.8,1.4,-2.3,1.8c-.2,.2,-.5,.2,-.7,.2l-.3,-.4c-.1,-.2,0,-.4,.2,-.6c.3,-.3,1.4,-1.1,1.7,-1.4c.4,-.3,.9,-.7,1.3,-1h.4c.4,0,.8,.2,1.2,.3Z" class="g6_23"/>
<path d="M629.5,344.9c.5,-.1,.9,-.3,1.3,-.4l.3,.1c.7,.6,2.3,1.8,3,2.4c.1,0,.3,.2,.3,.3c.1,.2,.1,.5,-.2,.6c-.2,.1,-.5,.2,-.7,0c-1.1,-.7,-2.9,-2.2,-4,-3Z" class="g6_23"/>
<path d="M624.1,331.5c-1.1,0,-2.1,.1,-3.2,0c-2,-.1,-3.5,-1.5,-3.9,-3.5c-.1,-.5,-.2,-1,-.3,-1.5c-.4,-1.9,1,-3.5,3,-3.5c2.9,0,5.9,0,8.9,0c1.9,0,3.2,1.4,3,3.3c-.1,1.1,-.3,2.2,-.8,3.1c-.9,1.4,-2.2,2.2,-3.9,2.2c-.9,0,-1.9,0,-2.8,0Z" class="g6_23"/>
<path d="M628.7,334.2c.3,0,.5,0,.8,0c.4,.1,.7,.3,.5,.7c-.4,.8,-.9,1.7,-1.4,2.5c-.1,.2,-.3,.3,-.6,.3c-.5,0,-1.1,0,-1.6,0c-.5,0,-.7,-.3,-.6,-.6c.5,-.9,1,-1.7,1.5,-2.5c.1,-.3,.3,-.4,.6,-.4c.3,.1,.5,0,.8,0Z" class="g6_23"/>
<path d="M621.1,337.7c-.2,0,-.5,0,-.7,0c-.4,0,-.6,-.1,-.7,-.3c-.5,-.8,-1,-1.7,-1.4,-2.5c-.2,-.4,0,-.6,.6,-.7c.5,0,1,0,1.5,0c.3,0,.5,.1,.6,.4c.5,.8,1,1.6,1.5,2.5c.2,.3,-.1,.6,-.6,.6c-.2,0,-.5,0,-.8,0Z" class="g6_23"/>
<path d="M625.2,342c0,.6,-.5,1.1,-1,1.1c-.6,0,-1.1,-.5,-1.1,-1c0,-.6,.5,-1.1,1,-1.1c.6,0,1.1,.5,1.1,1Z" class="g6_23"/>
<path d="M785.4,321.7V293.3h-3.1v28.4Z" class="g3_23"/>
<path d="M782.1,654.1V634.6h-.8v19.5Z" class="g3_23"/>
<path d="M782.1,673.7V654.1h-.8v19.6Z" class="g3_23"/>
<path d="M782.1,693.2V673.7h-.8v19.5Z" class="g3_23"/>
<path d="M782.1,712.7V693.2h-.8v19.5Z" class="g3_23"/>
<path d="M782.1,732.3V712.7h-.8v19.6Z" class="g3_23"/>
<path d="M782.1,751.8V732.3h-.8v19.5Z" class="g3_23"/>
<path d="M782.1,771.3V751.8h-.8v19.5Z" class="g3_23"/>
<path d="M782.1,790.9V771.3h-.8v19.6Z" class="g3_23"/>
<path d="M782.1,810.4V790.9h-.8v19.5Z" class="g3_23"/>
<path d="M782.1,829.9V810.4h-.8v19.5Z" class="g3_23"/>
<path d="M782.1,849.5V829.9h-.8v19.6Z" class="g3_23"/>
<path d="M782.1,869V849.5h-.8V869Z" class="g3_23"/>
<path d="M640.9,618H781.7v-1.5H640.9Z" class="g5_23"/>
<path d="M781.7,618h84.4v-1.5H781.7Z" class="g5_23"/>
<path d="M624.1,632.1c9.9,0,17.9,-8,17.9,-17.9c0,-9.8,-8,-17.8,-17.9,-17.8c-9.8,0,-17.8,8,-17.8,17.8c0,9.9,8,17.9,17.8,17.9Z" class="g5_23"/>
<path d="M634.6,616c0,.7,.2,1.4,.2,2.2c0,2,-1,3.5,-2.7,4.6c-1.3,.9,-2.8,1.3,-4.3,1.3c-2.4,0,-4.8,0,-7.2,0c-1.7,0,-3.2,-.4,-4.5,-1.3c-2,-1.4,-2.8,-3.3,-2.5,-5.7c.2,-1.9,.3,-3.9,.4,-5.8c0,-1.9,-.1,-3.7,-.1,-5.5c0,-2.1,.9,-3.7,2.5,-5c1.5,-1,3.1,-1.5,4.9,-1.5c1.9,-.1,3.9,-.1,5.8,0c1.6,0,3.2,.4,4.6,1.4c1.9,1.3,2.8,3.2,2.7,5.6c-.1,1.2,0,2.4,0,3.6c-.1,0,.1,4.1,.2,6.1M624.2,600.5v-.1c-1,0,-1.9,0,-2.9,0c-1.3,.1,-2.5,.4,-3.6,1.1c-1.6,.9,-2.7,2.2,-2.6,4.1c.1,.9,.3,1.7,.6,2.5c.4,1.4,1,2.6,2.1,3.6c.3,.2,.3,.5,0,.8c-.6,.7,-1.3,1.3,-2.1,1.5c-.6,.2,-.7,.5,-.7,1c-.1,.5,.1,.9,.4,1.2c.7,.8,1.7,1.4,2.7,1.8c1.8,.8,3.7,1,5.6,1.1c2,0,4.1,-.2,6,-.9c1.4,-.5,2.6,-1.1,3.4,-2.3c.1,-.1,.2,-.3,.2,-.4c0,-.3,0,-.7,0,-1l-.3,-.3c-1,-.3,-1.8,-.9,-2.5,-1.7c-.3,-.3,-.3,-.6,0,-.9c.4,-.5,.9,-1,1.2,-1.5c.8,-1.2,1.2,-2.6,1.4,-4c.2,-1.1,-.1,-2.2,-.8,-3.1c-1.1,-1.6,-2.7,-2.3,-4.6,-2.5c-1.2,-.1,-2.3,0,-3.5,0M614.8,617c-.3,1.6,0,3.1,1.3,4.2c1.3,1.2,2.8,1.7,4.5,1.7c2.4,0,4.7,0,7,0c.8,0,1.6,-.1,2.4,-.3c1.3,-.5,2.5,-1.3,3.2,-2.7c.5,-.9,.5,-1.9,.3,-2.9h-.1c-1.1,1.4,-2.6,2.2,-4.3,2.7c-2.9,.7,-5.7,.7,-8.6,.2c-1.4,-.2,-2.8,-.6,-3.9,-1.4c-.7,-.4,-1.2,-1,-1.8,-1.5Z" class="g6_23"/>
<path d="M618.8,624.5c-.5,.4,-1,.8,-1.5,1.2c-.5,.4,-1.8,1.3,-2.3,1.8c-.2,.2,-.5,.1,-.7,.1l-.3,-.4c-.1,-.2,0,-.4,.2,-.6c.3,-.2,1.4,-1.1,1.7,-1.4c.4,-.3,.9,-.6,1.3,-.9l.4,-.1c.4,.1,.8,.2,1.2,.3Z" class="g6_23"/>
<path d="M629.5,624.5c.5,-.1,.9,-.3,1.3,-.4l.3,.1c.7,.6,2.3,1.8,3,2.4c.1,.1,.3,.2,.3,.3c.1,.3,.1,.6,-.2,.6c-.2,.1,-.5,.2,-.7,.1c-1.1,-.8,-2.9,-2.2,-4,-3.1Z" class="g6_23"/>
<path d="M624.1,611.2c-1.1,0,-2.1,0,-3.2,0c-2,-.2,-3.5,-1.6,-3.9,-3.6c-.1,-.5,-.2,-.9,-.3,-1.4c-.4,-1.9,1,-3.6,3,-3.6c2.9,0,5.9,0,8.9,0c1.9,0,3.2,1.5,3,3.3c-.1,1.1,-.3,2.2,-.8,3.1c-.9,1.4,-2.2,2.2,-3.9,2.2c-.9,0,-1.9,0,-2.8,0Z" class="g6_23"/>
<path d="M628.7,613.9c.3,0,.5,0,.8,0c.4,0,.7,.3,.5,.6c-.4,.9,-.9,1.7,-1.4,2.6c-.1,.1,-.3,.2,-.6,.2c-.5,0,-1.1,0,-1.6,0c-.5,0,-.7,-.3,-.6,-.6c.5,-.9,1,-1.7,1.5,-2.5c.1,-.2,.3,-.3,.6,-.3c.3,0,.5,0,.8,0Z" class="g6_23"/>
<path d="M621.1,617.3c-.2,0,-.5,0,-.7,0c-.4,0,-.6,-.1,-.7,-.3c-.5,-.8,-1,-1.6,-1.4,-2.4c-.2,-.4,0,-.7,.6,-.7c.5,0,1,0,1.5,0c.3,0,.5,.1,.6,.3c.5,.8,1,1.6,1.5,2.5c.2,.3,-.1,.6,-.6,.6c-.2,0,-.5,0,-.8,0Z" class="g6_23"/>
<path d="M625.2,621.7c0,.5,-.5,1,-1,1c-.6,0,-1.1,-.5,-1.1,-1c0,-.6,.5,-1.1,1,-1.1c.6,0,1.1,.5,1.1,1.1Z" class="g6_23"/>
<path d="M43.3,355.4H584.6v-2.3H43.3v2.3Z" class="g8_23"/>
<image clip-path="url(#ci_23)" preserveAspectRatio="none" x="135" y="331" width="98" height="30" xlink:href="img/27.jpg"/>
<image clip-path="url(#cj_23)" preserveAspectRatio="none" x="135" y="259" width="89" height="73" xlink:href="img/28.jpg"/>
<image clip-path="url(#ck_23)" preserveAspectRatio="none" x="135" y="352" width="89" height="4" xlink:href="img/29.jpg"/>
<path d="M160.5,272c-10.2,0,-18.4,8.2,-18.4,18.3v64.2h79.1V290.3C221.2,280.2,213,272,202.8,272Z" class="g3_23"/>
<path d="M148.3,298.2h2.3c.2,0,.4,-.2,.4,-.4c0,-.2,-.2,-.4,-.4,-.4h-2.3c-.2,0,-.4,.2,-.4,.4c0,.2,.2,.4,.4,.4m3.9,0h2.3c.2,0,.4,-.2,.4,-.4c0,-.2,-.2,-.4,-.4,-.4h-2.3c-.2,0,-.4,.2,-.4,.4c0,.2,.2,.4,.4,.4m3.9,0h2.3c.2,0,.4,-.2,.4,-.4c0,-.2,-.2,-.4,-.4,-.4h-2.3c-.2,0,-.4,.2,-.4,.4c0,.2,.2,.4,.4,.4m3.8,0h2.4c.2,0,.4,-.2,.4,-.4c0,-.2,-.2,-.4,-.4,-.4h-2.4c-.2,0,-.3,.2,-.3,.4c0,.2,.1,.4,.3,.4m3.9,0h2.4c.2,0,.3,-.2,.3,-.4c0,-.2,-.1,-.4,-.3,-.4h-2.4c-.2,0,-.4,.2,-.4,.4c0,.2,.2,.4,.4,.4m3.9,0H170c.2,0,.4,-.2,.4,-.4c0,-.2,-.2,-.4,-.4,-.4h-2.3c-.2,0,-.4,.2,-.4,.4c0,.2,.2,.4,.4,.4m3.9,0h2.3c.2,0,.4,-.2,.4,-.4c0,-.2,-.2,-.4,-.4,-.4h-2.3c-.2,0,-.4,.2,-.4,.4c0,.2,.2,.4,.4,.4m3.9,0h2.3c.2,0,.4,-.2,.4,-.4c0,-.2,-.2,-.4,-.4,-.4h-2.3c-.2,0,-.4,.2,-.4,.4c0,.2,.2,.4,.4,.4m3.9,0h2.3c.2,0,.4,-.2,.4,-.4c0,-.2,-.2,-.4,-.4,-.4h-2.3c-.3,0,-.4,.2,-.4,.4c0,.2,.1,.4,.4,.4m3.8,0h2.4c.2,0,.3,-.2,.3,-.4c0,-.2,-.1,-.4,-.3,-.4h-2.4c-.2,0,-.3,.2,-.3,.4c0,.2,.1,.4,.3,.4m3.9,0h2.3c.3,0,.4,-.2,.4,-.4c0,-.2,-.1,-.4,-.4,-.4h-2.3c-.2,0,-.4,.2,-.4,.4c0,.2,.2,.4,.4,.4m3.9,0h2.3c.2,0,.4,-.2,.4,-.4c0,-.2,-.2,-.4,-.4,-.4H191c-.2,0,-.4,.2,-.4,.4c0,.2,.2,.4,.4,.4m3.9,0h2.3c.2,0,.4,-.2,.4,-.4c0,-.2,-.2,-.4,-.4,-.4h-2.3c-.2,0,-.4,.2,-.4,.4c0,.2,.2,.4,.4,.4m3.9,0h2.3c.2,0,.4,-.2,.4,-.4c0,-.2,-.2,-.4,-.4,-.4h-2.3c-.2,0,-.4,.2,-.4,.4c0,.2,.2,.4,.4,.4m3.8,0H205c.2,0,.4,-.2,.4,-.4c0,-.2,-.2,-.4,-.4,-.4h-2.4c-.2,0,-.3,.2,-.3,.4c0,.2,.1,.4,.3,.4m3.9,0h2.4c.2,0,.3,-.2,.3,-.4c0,-.2,-.1,-.4,-.3,-.4h-2.4c-.2,0,-.4,.2,-.4,.4c0,.2,.2,.4,.4,.4m3.9,0h2.3c.2,0,.4,-.2,.4,-.4c0,-.2,-.2,-.4,-.4,-.4h-2.3c-.2,0,-.4,.2,-.4,.4c0,.2,.2,.4,.4,.4m3.9,0h2.3c.2,0,.4,-.2,.4,-.4c0,-.2,-.2,-.4,-.4,-.4h-2.3c-.2,0,-.4,.2,-.4,.4c0,.2,.2,.4,.4,.4Z" class="g4_23"/>
<path d="M148.3,330.4h2.3c.2,0,.4,-.1,.4,-.4c0,-.2,-.2,-.3,-.4,-.3h-2.3c-.2,0,-.4,.1,-.4,.3c0,.3,.2,.4,.4,.4m3.9,0h2.3c.2,0,.4,-.1,.4,-.4c0,-.2,-.2,-.3,-.4,-.3h-2.3c-.2,0,-.4,.1,-.4,.3c0,.3,.2,.4,.4,.4m3.9,0h2.3c.2,0,.4,-.1,.4,-.4c0,-.2,-.2,-.3,-.4,-.3h-2.3c-.2,0,-.4,.1,-.4,.3c0,.3,.2,.4,.4,.4m3.8,0h2.4c.2,0,.4,-.1,.4,-.4c0,-.2,-.2,-.3,-.4,-.3h-2.4c-.2,0,-.3,.1,-.3,.3c0,.3,.1,.4,.3,.4m3.9,0h2.4c.2,0,.3,-.1,.3,-.4c0,-.2,-.1,-.3,-.3,-.3h-2.4c-.2,0,-.4,.1,-.4,.3c0,.3,.2,.4,.4,.4m3.9,0H170c.2,0,.4,-.1,.4,-.4c0,-.2,-.2,-.3,-.4,-.3h-2.3c-.2,0,-.4,.1,-.4,.3c0,.3,.2,.4,.4,.4m3.9,0h2.3c.2,0,.4,-.1,.4,-.4c0,-.2,-.2,-.3,-.4,-.3h-2.3c-.2,0,-.4,.1,-.4,.3c0,.3,.2,.4,.4,.4m3.9,0h2.3c.2,0,.4,-.1,.4,-.4c0,-.2,-.2,-.3,-.4,-.3h-2.3c-.2,0,-.4,.1,-.4,.3c0,.3,.2,.4,.4,.4m3.9,0h2.3c.2,0,.4,-.1,.4,-.4c0,-.2,-.2,-.3,-.4,-.3h-2.3c-.3,0,-.4,.1,-.4,.3c0,.3,.1,.4,.4,.4m3.8,0h2.4c.2,0,.3,-.1,.3,-.4c0,-.2,-.1,-.3,-.3,-.3h-2.4c-.2,0,-.3,.1,-.3,.3c0,.3,.1,.4,.3,.4m3.9,0h2.3c.3,0,.4,-.1,.4,-.4c0,-.2,-.1,-.3,-.4,-.3h-2.3c-.2,0,-.4,.1,-.4,.3c0,.3,.2,.4,.4,.4m3.9,0h2.3c.2,0,.4,-.1,.4,-.4c0,-.2,-.2,-.3,-.4,-.3H191c-.2,0,-.4,.1,-.4,.3c0,.3,.2,.4,.4,.4m3.9,0h2.3c.2,0,.4,-.1,.4,-.4c0,-.2,-.2,-.3,-.4,-.3h-2.3c-.2,0,-.4,.1,-.4,.3c0,.3,.2,.4,.4,.4m3.9,0h2.3c.2,0,.4,-.1,.4,-.4c0,-.2,-.2,-.3,-.4,-.3h-2.3c-.2,0,-.4,.1,-.4,.3c0,.3,.2,.4,.4,.4m3.8,0H205c.2,0,.4,-.1,.4,-.4c0,-.2,-.2,-.3,-.4,-.3h-2.4c-.2,0,-.3,.1,-.3,.3c0,.3,.1,.4,.3,.4m3.9,0h2.4c.2,0,.3,-.1,.3,-.4c0,-.2,-.1,-.3,-.3,-.3h-2.4c-.2,0,-.4,.1,-.4,.3c0,.3,.2,.4,.4,.4m3.9,0h2.3c.2,0,.4,-.1,.4,-.4c0,-.2,-.2,-.3,-.4,-.3h-2.3c-.2,0,-.4,.1,-.4,.3c0,.3,.2,.4,.4,.4m3.9,0h2.3c.2,0,.4,-.1,.4,-.4c0,-.2,-.2,-.3,-.4,-.3h-2.3c-.2,0,-.4,.1,-.4,.3c0,.3,.2,.4,.4,.4Z" class="g4_23"/>
<path d="M142.1,355.4h79v-6.8h-79v6.8Z" class="g8_23"/>
<image clip-path="url(#cl_23)" preserveAspectRatio="none" x="232" y="331" width="90" height="30" xlink:href="img/30.jpg"/>
<image clip-path="url(#cm_23)" preserveAspectRatio="none" x="224" y="259" width="88" height="73" xlink:href="img/31.jpg"/>
<image clip-path="url(#cn_23)" preserveAspectRatio="none" x="232" y="352" width="80" height="4" xlink:href="img/32.jpg"/>
<image clip-path="url(#co_23)" preserveAspectRatio="none" x="223" y="331" width="11" height="30" xlink:href="img/33.jpg"/>
<image clip-path="url(#cp_23)" preserveAspectRatio="none" x="224" y="259" width="9" height="73" xlink:href="img/34.jpg"/>
<image clip-path="url(#cq_23)" preserveAspectRatio="none" x="223" y="352" width="11" height="4" xlink:href="img/35.jpg"/>
<path d="M248.6,272c-10.1,0,-18.3,8.2,-18.3,18.3v64.2h79V290.3C309.3,280.2,301.1,272,291,272Z" class="g3_23"/>
<path d="M230.2,355.4h79.1v-7.2H230.2v7.2Z" class="g8_23"/>
<path d="M236.4,298.2H239c.2,0,.3,-.2,.3,-.4c0,-.2,-.1,-.4,-.3,-.4h-2.6c-.2,0,-.4,.2,-.4,.4c0,.2,.2,.4,.4,.4m4.3,0h2.6c.2,0,.4,-.2,.4,-.4c0,-.2,-.2,-.4,-.4,-.4h-2.6c-.2,0,-.3,.2,-.3,.4c0,.2,.1,.4,.3,.4m4.3,0h2.6c.2,0,.4,-.2,.4,-.4c0,-.2,-.2,-.4,-.4,-.4H245c-.2,0,-.3,.2,-.3,.4c0,.2,.1,.4,.3,.4m4.4,0h2.5c.2,0,.4,-.2,.4,-.4c0,-.2,-.2,-.4,-.4,-.4h-2.5c-.3,0,-.4,.2,-.4,.4c0,.2,.1,.4,.4,.4Z" class="g5_23"/>
<path d="M288,330.4h2.2c.2,0,.3,-.1,.3,-.4c0,-.2,-.1,-.3,-.3,-.3H288c-.3,0,-.4,.1,-.4,.3c0,.3,.1,.4,.4,.4m3.6,0h2.2c.2,0,.4,-.1,.4,-.4c0,-.2,-.2,-.3,-.4,-.3h-2.2c-.2,0,-.4,.1,-.4,.3c0,.3,.2,.4,.4,.4m3.6,0h2.3c.2,0,.3,-.1,.3,-.4c0,-.2,-.1,-.3,-.3,-.3h-2.3c-.2,0,-.3,.1,-.3,.3c0,.3,.1,.4,.3,.4m3.7,0h2.2c.2,0,.4,-.1,.4,-.4c0,-.2,-.2,-.3,-.4,-.3h-2.2c-.2,0,-.4,.1,-.4,.3c0,.3,.2,.4,.4,.4m3.6,0h2.2c.3,0,.4,-.1,.4,-.4c0,-.2,-.1,-.3,-.4,-.3h-2.2c-.2,0,-.3,.1,-.3,.3c0,.3,.1,.4,.3,.4Z" class="g5_23"/>
<path d="M287.1,298.2h2.3c.2,0,.4,-.2,.4,-.4c0,-.2,-.2,-.4,-.4,-.4h-2.3c-.2,0,-.4,.2,-.4,.4c0,.2,.2,.4,.4,.4m3.8,0h2.3c.2,0,.4,-.2,.4,-.4c0,-.2,-.2,-.4,-.4,-.4h-2.3c-.2,0,-.4,.2,-.4,.4c0,.2,.2,.4,.4,.4m3.9,0h2.3c.2,0,.3,-.2,.3,-.4c0,-.2,-.1,-.4,-.3,-.4h-2.3c-.2,0,-.4,.2,-.4,.4c0,.2,.2,.4,.4,.4m3.8,0h2.3c.2,0,.4,-.2,.4,-.4c0,-.2,-.2,-.4,-.4,-.4h-2.3c-.2,0,-.4,.2,-.4,.4c0,.2,.2,.4,.4,.4m3.8,0h2.3c.3,0,.4,-.2,.4,-.4c0,-.2,-.1,-.4,-.4,-.4h-2.3c-.2,0,-.3,.2,-.3,.4c0,.2,.1,.4,.3,.4Z" class="g5_23"/>
<path d="M283.2,315.6c.1,.9,.3,1.8,.3,2.7c-.1,2.7,-1.3,4.6,-3.5,6.1c-1.7,1.1,-3.6,1.6,-5.6,1.6c-3.1,.1,-6.2,.1,-9.3,0c-2.1,0,-4.1,-.5,-5.8,-1.7c-2.5,-1.8,-3.6,-4.2,-3.2,-7.3c.3,-2.5,.4,-5,.5,-7.6c0,-2.3,0,-4.6,-.1,-7c0,-2.7,1.1,-4.8,3.3,-6.4c1.8,-1.4,4,-2,6.3,-2c2.5,-.1,4.9,-.1,7.4,0c2.1,0,4.2,.6,5.9,1.8c2.6,1.8,3.8,4.1,3.5,7.2c-.1,1.6,0,3.1,0,4.7c0,0,.2,5.2,.3,7.9m-13.4,-20v-.1c-1.3,0,-2.5,0,-3.7,0c-1.7,0,-3.3,.4,-4.7,1.3c-2,1.2,-3.4,2.9,-3.3,5.4c.1,1.1,.4,2.2,.7,3.2c.6,1.7,1.4,3.3,2.8,4.6c.4,.3,.4,.7,0,1.1c-.8,.8,-1.7,1.6,-2.8,1.9c-.7,.2,-.9,.7,-.9,1.3c-.1,.7,.1,1.1,.5,1.6c1,1,2.2,1.7,3.5,2.3c2.3,.9,4.7,1.3,7.2,1.3c2.7,.1,5.3,-.2,7.8,-1.1c1.7,-.6,3.3,-1.5,4.4,-2.9c.2,-.2,.3,-.4,.3,-.6c0,-.4,0,-.9,-.1,-1.3l-.3,-.4c-1.3,-.4,-2.4,-1.2,-3.3,-2.1c-.4,-.4,-.3,-.8,0,-1.2c.6,-.6,1.2,-1.3,1.6,-1.9c1,-1.6,1.5,-3.4,1.8,-5.2c.3,-1.5,-.1,-2.8,-1,-4c-1.5,-2,-3.5,-3,-5.9,-3.2c-1.6,-.1,-3.1,0,-4.6,0m-12.1,21.3c-.5,2,0,3.9,1.6,5.4c1.7,1.6,3.7,2.2,5.9,2.2c3,0,6,0,9,0c1,0,2,-.1,3,-.5c1.8,-.6,3.3,-1.6,4.2,-3.4c.6,-1.2,.6,-2.5,.3,-3.8l-.1,.1c-1.4,1.8,-3.3,2.8,-5.5,3.4c-3.7,1,-7.4,1,-11.1,.3c-1.8,-.3,-3.5,-.8,-5.1,-1.9c-.8,-.5,-1.5,-1.2,-2.2,-1.8Z" class="g5_23"/>
<path d="M262.8,326.6c-.6,.5,-1.3,1,-1.9,1.4c-.6,.5,-2.3,1.8,-2.9,2.3c-.3,.3,-.7,.3,-1,.2c-.2,0,-.4,-.3,-.4,-.4c-.1,-.3,0,-.6,.3,-.8c.4,-.4,1.8,-1.5,2.2,-1.8c.6,-.5,1.1,-.9,1.7,-1.3c.1,-.1,.4,-.1,.5,-.1c.5,.1,1,.3,1.5,.5Z" class="g5_23"/>
<path d="M276.6,326.6c.7,-.2,1.2,-.4,1.7,-.5l.4,.1c1,.7,3,2.3,3.9,3c.2,.1,.3,.3,.4,.5c.1,.3,0,.6,-.2,.8c-.3,.1,-.8,.1,-1,0c-1.4,-1,-3.7,-2.8,-5.2,-3.9Z" class="g5_23"/>
<path d="M269.7,309.3c-1.4,0,-2.8,.1,-4.2,0c-2.5,-.2,-4.5,-2,-5,-4.5c-.1,-.7,-.2,-1.3,-.3,-1.9c-.5,-2.5,1.2,-4.6,3.7,-4.6c3.9,-.1,7.8,-.1,11.6,0c2.5,0,4.2,1.9,3.8,4.2c-.1,1.4,-.3,2.8,-1,4.1c-1.2,1.8,-2.8,2.8,-5,2.8c-1.2,-.1,-2.4,0,-3.6,0Z" class="g5_23"/>
<path d="M275.6,312.8c.3,0,.7,0,1,0c.6,0,1,.4,.8,.8c-.7,1.1,-1.3,2.2,-2,3.3c-.1,.3,-.4,.4,-.7,.4c-.7,0,-1.4,0,-2,0c-.7,0,-1,-.4,-.8,-.9c.6,-1,1.3,-2.1,1.9,-3.2c.1,-.3,.4,-.4,.8,-.4c.4,0,.7,0,1,0Z" class="g5_23"/>
<path d="M265.8,317.3c-.3,0,-.6,0,-.9,0c-.4,0,-.7,-.2,-.9,-.4c-.6,-1.1,-1.2,-2.2,-1.8,-3.2c-.3,-.5,0,-.9,.7,-.9c.7,0,1.3,0,2,0c.4,0,.6,.1,.8,.4c.6,1.1,1.3,2.2,1.9,3.2c.2,.5,-.1,.8,-.7,.9c-.4,0,-.7,0,-1.1,0Z" class="g5_23"/>
<path d="M271.1,322.9c0,.7,-.6,1.3,-1.3,1.3c-.8,0,-1.4,-.6,-1.4,-1.3c0,-.7,.6,-1.4,1.3,-1.4c.7,0,1.4,.6,1.4,1.4Z" class="g5_23"/>
<path d="M236.4,330.4h2.2c.2,0,.4,-.1,.4,-.4c0,-.2,-.2,-.3,-.4,-.3h-2.2c-.2,0,-.4,.1,-.4,.3c0,.3,.2,.4,.4,.4m3.7,0h2.2c.2,0,.4,-.1,.4,-.4c0,-.2,-.2,-.3,-.4,-.3h-2.2c-.2,0,-.4,.1,-.4,.3c0,.3,.2,.4,.4,.4m3.6,0h2.2c.2,0,.4,-.1,.4,-.4c0,-.2,-.2,-.3,-.4,-.3h-2.2c-.2,0,-.4,.1,-.4,.3c0,.3,.2,.4,.4,.4m3.7,0h2.2c.2,0,.4,-.1,.4,-.4c0,-.2,-.2,-.3,-.4,-.3h-2.2c-.2,0,-.4,.1,-.4,.3c0,.3,.2,.4,.4,.4m3.6,0h2.2c.2,0,.4,-.1,.4,-.4c0,-.2,-.2,-.3,-.4,-.3H251c-.2,0,-.4,.1,-.4,.3c0,.3,.2,.4,.4,.4Z" class="g5_23"/>
<image clip-path="url(#cr_23)" preserveAspectRatio="none" x="487" y="259" width="99" height="102" xlink:href="img/36.jpg"/>
<image clip-path="url(#cs_23)" preserveAspectRatio="none" x="497" y="259" width="88" height="73" xlink:href="img/37.jpg"/>
<image clip-path="url(#ct_23)" preserveAspectRatio="none" x="497" y="352" width="88" height="4" xlink:href="img/38.jpg"/>
<image clip-path="url(#cu_23)" preserveAspectRatio="none" x="497" y="277" width="73" height="3" xlink:href="img/39.jpg"/>
<path d="M512.9,272c-10.1,0,-18.3,8.2,-18.3,18.3v64.2h79V290.3c0,-10.1,-8.2,-18.3,-18.3,-18.3Z" class="g3_23"/>
<path d="M494.5,355.4h79.1v-7.2H494.5v7.2Z" class="g8_23"/>
<path d="M499.9,330.4h2.4c.2,0,.3,-.1,.3,-.4c0,-.2,-.1,-.3,-.3,-.3h-2.4c-.2,0,-.3,.1,-.3,.3c0,.3,.1,.4,.3,.4m3.9,0h2.3c.3,0,.4,-.1,.4,-.4c0,-.2,-.1,-.3,-.4,-.3h-2.3c-.2,0,-.4,.1,-.4,.3c0,.3,.2,.4,.4,.4m3.9,0H510c.2,0,.4,-.1,.4,-.4c0,-.2,-.2,-.3,-.4,-.3h-2.3c-.2,0,-.4,.1,-.4,.3c0,.3,.2,.4,.4,.4m3.9,0h2.3c.2,0,.4,-.1,.4,-.4c0,-.2,-.2,-.3,-.4,-.3h-2.3c-.2,0,-.4,.1,-.4,.3c0,.3,.2,.4,.4,.4m3.9,0h2.3c.2,0,.4,-.1,.4,-.4c0,-.2,-.2,-.3,-.4,-.3h-2.3c-.2,0,-.4,.1,-.4,.3c0,.3,.2,.4,.4,.4m3.9,0h2.3c.2,0,.4,-.1,.4,-.4c0,-.2,-.2,-.3,-.4,-.3h-2.3c-.3,0,-.4,.1,-.4,.3c0,.3,.1,.4,.4,.4m3.8,0h2.4c.2,0,.3,-.1,.3,-.4c0,-.2,-.1,-.3,-.3,-.3h-2.4c-.2,0,-.3,.1,-.3,.3c0,.3,.1,.4,.3,.4m3.9,0h2.3c.2,0,.4,-.1,.4,-.4c0,-.2,-.2,-.3,-.4,-.3h-2.3c-.2,0,-.4,.1,-.4,.3c0,.3,.2,.4,.4,.4m3.9,0h2.3c.2,0,.4,-.1,.4,-.4c0,-.2,-.2,-.3,-.4,-.3H531c-.2,0,-.4,.1,-.4,.3c0,.3,.2,.4,.4,.4m3.9,0h2.3c.2,0,.4,-.1,.4,-.4c0,-.2,-.2,-.3,-.4,-.3h-2.3c-.2,0,-.4,.1,-.4,.3c0,.3,.2,.4,.4,.4m3.9,0h2.3c.2,0,.4,-.1,.4,-.4c0,-.2,-.2,-.3,-.4,-.3h-2.3c-.2,0,-.4,.1,-.4,.3c0,.3,.2,.4,.4,.4m3.8,0H545c.2,0,.3,-.1,.3,-.4c0,-.2,-.1,-.3,-.3,-.3h-2.4c-.2,0,-.3,.1,-.3,.3c0,.3,.1,.4,.3,.4m3.9,0h2.3c.3,0,.4,-.1,.4,-.4c0,-.2,-.1,-.3,-.4,-.3h-2.3c-.2,0,-.4,.1,-.4,.3c0,.3,.2,.4,.4,.4m3.9,0h2.3c.2,0,.4,-.1,.4,-.4c0,-.2,-.2,-.3,-.4,-.3h-2.3c-.2,0,-.4,.1,-.4,.3c0,.3,.2,.4,.4,.4m3.9,0h2.3c.2,0,.4,-.1,.4,-.4c0,-.2,-.2,-.3,-.4,-.3h-2.3c-.2,0,-.4,.1,-.4,.3c0,.3,.2,.4,.4,.4m3.9,0h2.3c.2,0,.4,-.1,.4,-.4c0,-.2,-.2,-.3,-.4,-.3h-2.3c-.2,0,-.4,.1,-.4,.3c0,.3,.2,.4,.4,.4m3.9,0h2.3c.2,0,.4,-.1,.4,-.4c0,-.2,-.2,-.3,-.4,-.3h-2.3c-.3,0,-.4,.1,-.4,.3c0,.3,.1,.4,.4,.4m3.8,0h2.4c.2,0,.3,-.1,.3,-.4c0,-.2,-.1,-.3,-.3,-.3h-2.4c-.2,0,-.3,.1,-.3,.3c0,.3,.1,.4,.3,.4Z" class="g9_23"/>
<path d="M499.3,294h2.3c.2,0,.4,-.1,.4,-.4c0,-.2,-.2,-.3,-.4,-.3h-2.3c-.2,0,-.4,.1,-.4,.3c0,.3,.2,.4,.4,.4m3.9,0h2.3c.2,0,.4,-.1,.4,-.4c0,-.2,-.2,-.3,-.4,-.3h-2.3c-.2,0,-.4,.1,-.4,.3c0,.3,.2,.4,.4,.4m3.9,0h2.3c.2,0,.4,-.1,.4,-.4c0,-.2,-.2,-.3,-.4,-.3h-2.3c-.3,0,-.4,.1,-.4,.3c0,.3,.1,.4,.4,.4m3.8,0h2.4c.2,0,.3,-.1,.3,-.4c0,-.2,-.1,-.3,-.3,-.3h-2.4c-.2,0,-.3,.1,-.3,.3c0,.3,.1,.4,.3,.4m3.9,0h2.3c.3,0,.4,-.1,.4,-.4c0,-.2,-.1,-.3,-.4,-.3h-2.3c-.2,0,-.4,.1,-.4,.3c0,.3,.2,.4,.4,.4m3.9,0H521c.2,0,.4,-.1,.4,-.4c0,-.2,-.2,-.3,-.4,-.3h-2.3c-.2,0,-.4,.1,-.4,.3c0,.3,.2,.4,.4,.4m3.9,0h2.3c.2,0,.4,-.1,.4,-.4c0,-.2,-.2,-.3,-.4,-.3h-2.3c-.2,0,-.4,.1,-.4,.3c0,.3,.2,.4,.4,.4m3.9,0h2.3c.2,0,.4,-.1,.4,-.4c0,-.2,-.2,-.3,-.4,-.3h-2.3c-.2,0,-.4,.1,-.4,.3c0,.3,.2,.4,.4,.4m3.8,0h2.4c.2,0,.4,-.1,.4,-.4c0,-.2,-.2,-.3,-.4,-.3h-2.4c-.2,0,-.3,.1,-.3,.3c0,.3,.1,.4,.3,.4m3.9,0h2.4c.2,0,.3,-.1,.3,-.4c0,-.2,-.1,-.3,-.3,-.3h-2.4c-.2,0,-.4,.1,-.4,.3c0,.3,.2,.4,.4,.4m3.9,0h2.3c.2,0,.4,-.1,.4,-.4c0,-.2,-.2,-.3,-.4,-.3h-2.3c-.2,0,-.4,.1,-.4,.3c0,.3,.2,.4,.4,.4m3.9,0h2.3c.2,0,.4,-.1,.4,-.4c0,-.2,-.2,-.3,-.4,-.3H542c-.2,0,-.4,.1,-.4,.3c0,.3,.2,.4,.4,.4m3.9,0h2.3c.2,0,.4,-.1,.4,-.4c0,-.2,-.2,-.3,-.4,-.3h-2.3c-.2,0,-.4,.1,-.4,.3c0,.3,.2,.4,.4,.4m3.9,0h2.3c.2,0,.4,-.1,.4,-.4c0,-.2,-.2,-.3,-.4,-.3h-2.3c-.3,0,-.4,.1,-.4,.3c0,.3,.1,.4,.4,.4m3.8,0H556c.2,0,.3,-.1,.3,-.4c0,-.2,-.1,-.3,-.3,-.3h-2.4c-.2,0,-.3,.1,-.3,.3c0,.3,.1,.4,.3,.4m3.9,0h2.3c.3,0,.4,-.1,.4,-.4c0,-.2,-.1,-.3,-.4,-.3h-2.3c-.2,0,-.4,.1,-.4,.3c0,.3,.2,.4,.4,.4m3.9,0h2.3c.2,0,.4,-.1,.4,-.4c0,-.2,-.2,-.3,-.4,-.3h-2.3c-.2,0,-.4,.1,-.4,.3c0,.3,.2,.4,.4,.4m3.9,0h2.3c.2,0,.4,-.1,.4,-.4c0,-.2,-.2,-.3,-.4,-.3h-2.3c-.2,0,-.4,.1,-.4,.3c0,.3,.2,.4,.4,.4Z" class="g9_23"/>
<path d="M548,310.8v.7h4.6c1.1,0,2,-.9,2,-2v-.4c0,-1.1,-.9,-2.1,-2,-2.1H548c-.5,0,-1,.3,-1.4,.6c-.1,.1,-.2,.3,-.2,.5v.2c0,.2,-.1,.4,-.2,.5c-.2,.2,-.2,.3,-.2,.5v.2c0,1.1,.9,2,2,2v-1.4c-.4,0,-.7,-.3,-.7,-.6v-.2h-.7l.5,.6c.4,-.4,.7,-1,.7,-1.6v-.2h-.7l.4,.5c.2,-.1,.3,-.2,.5,-.2h4.6c.3,0,.6,.3,.6,.7v.4c0,.3,-.3,.6,-.6,.6H548Z" class="g9_23"/>
<path d="M547.1,301.5l-.5,.5c.4,.3,.9,.5,1.4,.5h4.6c1.1,0,2,-.9,2,-2v-.4c0,-1.1,-.9,-2,-2,-2H548c-1.1,0,-2,.9,-2,2v.2c0,.2,0,.4,.2,.5c.1,.1,.2,.3,.2,.5v.2c0,.2,.1,.4,.2,.5l.5,-.5h.7v-.2c0,-.6,-.3,-1.2,-.7,-1.5l-.5,.5h.7v-.2c0,-.4,.3,-.7,.7,-.7h4.6c.3,0,.6,.3,.6,.7v.4c0,.4,-.3,.7,-.6,.7H548c-.2,0,-.3,-.1,-.5,-.2l-.4,.5h.7Z" class="g9_23"/>
<path d="M553.6,310.3v.7h1.9c1,0,1.8,-.8,1.8,-1.8v-8.8c0,-1,-.8,-1.8,-1.8,-1.8h-1.8c-.3,0,-.5,.2,-.7,.4c-.1,.2,-.1,.5,.1,.7c.1,.1,.1,.3,.1,.4v.4c0,.4,-.3,.7,-.6,.7H548c-.2,0,-.3,-.1,-.5,-.2c-.2,-.2,-.4,-.2,-.7,-.1c-.2,.1,-.4,.3,-.4,.6v6.6c0,.3,.2,.5,.4,.6c.3,.1,.5,.1,.7,-.1c.2,-.1,.3,-.2,.5,-.2h4.6c.3,0,.6,.3,.6,.7v.4c0,.1,0,.3,-.1,.4c-.2,.2,-.2,.5,-.1,.7c.1,.3,.3,.4,.6,.4v-.7l.5,.5c.3,-.4,.5,-.8,.5,-1.3v-.4c0,-1.1,-.9,-2.1,-2,-2.1H548c-.5,0,-1,.3,-1.4,.6l.5,.5h.7v-6.6h-.7l-.5,.5c.4,.3,.9,.5,1.4,.5h4.6c1.1,0,2,-.9,2,-2v-.4c0,-.4,-.1,-.9,-.4,-1.2l-.5,.4v.7h1.8c.2,0,.4,.2,.4,.4v8.8c0,.2,-.2,.4,-.4,.4h-1.9v.7l.5,.5Z" class="g9_23"/>
<path d="M547.1,301.3h.7c0,-1.2,-.9,-2.1,-2.1,-2.1h-.6c-1.2,0,-2.1,.9,-2.1,2.1v7c0,1.2,.9,2.1,2.1,2.1h.6c1.2,0,2.1,-.9,2.1,-2.1v-7h-1.4v7c0,.4,-.3,.7,-.7,.7h-.6c-.4,0,-.7,-.3,-.7,-.7v-7c0,-.4,.3,-.7,.7,-.7h.6c.4,0,.7,.3,.7,.7Z" class="g9_23"/>
<path d="M548,323.6v.7h4.6c1.1,0,2,-.9,2,-2v-.4c0,-1.2,-.9,-2.1,-2,-2.1H548c-.5,0,-1,.2,-1.4,.6c-.1,.1,-.2,.3,-.2,.5v.2c0,.2,-.1,.4,-.2,.5c-.2,.1,-.2,.3,-.2,.5v.2c0,1.1,.9,2,2,2v-1.4c-.4,0,-.7,-.3,-.7,-.6v-.2h-.7l.5,.5c.4,-.3,.7,-.9,.7,-1.5v-.2h-.7l.4,.5c.2,-.1,.3,-.2,.5,-.2h4.6c.3,0,.6,.3,.6,.7v.4c0,.3,-.3,.6,-.6,.6H548Z" class="g9_23"/>
<path d="M547.1,314.3l-.5,.5c.4,.3,.9,.5,1.4,.5h4.6c1.1,0,2,-.9,2,-2v-.4c0,-1.1,-.9,-2,-2,-2.1H548c-1.1,.1,-2,1,-2,2.1v.2c0,.1,0,.3,.2,.5c.1,.1,.2,.3,.2,.5v.2c0,.2,.1,.4,.2,.5l.5,-.5h.7v-.2c0,-.6,-.3,-1.2,-.7,-1.6l-.5,.6h.7v-.2c0,-.4,.3,-.7,.7,-.7h4.6c.3,0,.6,.3,.6,.7v.4c0,.4,-.3,.6,-.6,.7H548c-.2,-.1,-.3,-.1,-.5,-.2l-.4,.5h.7Z" class="g9_23"/>
<path d="M553.6,323.1v.7h1.9c1,0,1.8,-.8,1.8,-1.8v-8.8c0,-1,-.8,-1.8,-1.8,-1.8h-1.8c-.3,0,-.5,.2,-.7,.4c-.1,.2,-.1,.5,.1,.7c.1,.1,.1,.2,.1,.4v.4c0,.4,-.3,.6,-.6,.7H548c-.2,-.1,-.3,-.1,-.5,-.2c-.2,-.2,-.4,-.3,-.7,-.1c-.2,.1,-.4,.3,-.4,.6v6.6c0,.2,.2,.5,.4,.6c.3,.1,.5,.1,.7,-.1c.2,-.1,.3,-.2,.5,-.2h4.6c.3,0,.6,.3,.6,.7v.4c0,.1,0,.2,-.1,.4c-.2,.2,-.2,.5,-.1,.7c.1,.2,.3,.4,.6,.4v-.7l.5,.4c.3,-.3,.5,-.8,.5,-1.2v-.4c0,-1.2,-.9,-2.1,-2,-2.1H548c-.5,0,-1,.2,-1.4,.6l.5,.5h.7v-6.6h-.7l-.5,.5c.4,.3,.9,.5,1.4,.5h4.6c1.1,0,2,-.9,2,-2v-.4c0,-.5,-.1,-.9,-.4,-1.2l-.5,.4v.7h1.8c.2,0,.4,.2,.4,.4V322c0,.2,-.2,.4,-.4,.4h-1.9v.7l.5,.4Z" class="g9_23"/>
<path d="M547.1,314.1h.7c0,-1.2,-.9,-2.1,-2.1,-2.1h-.6c-1.2,0,-2.1,.9,-2.1,2.1v7c0,1.1,.9,2.1,2.1,2.1h.6c1.2,0,2.1,-1,2.1,-2.1v-7h-1.4v7c0,.4,-.3,.7,-.7,.7h-.6c-.4,0,-.7,-.3,-.7,-.7v-7c0,-.4,.3,-.7,.7,-.7h.6c.4,0,.7,.3,.7,.7Z" class="g9_23"/>
<path d="M532.7,310h3.2c.5,0,.9,-.3,.9,-.6v-.1c0,-.4,-.4,-.6,-.9,-.6h-3.2c-.2,0,-.5,0,-.6,.1v.2c0,.1,-.1,.3,-.3,.4c0,.3,.4,.6,.9,.6Z" class="g9_23"/>
<path d="M532.2,300.2c.2,.1,.4,.1,.7,.1h3.3c.5,0,.9,-.2,.9,-.6v-.2c0,-.3,-.4,-.6,-.9,-.6h-3.3c-.6,0,-1,.3,-1,.6v.1c.2,.1,.3,.3,.3,.5Z" class="g9_23"/>
<path d="M538,310h1.8c.6,0,1.1,-.5,1.1,-1.1v-8.8c0,-.6,-.5,-1.1,-1.1,-1.1h-1.7c.1,.2,.2,.5,.2,.8v.4c0,.7,-.6,1.4,-1.3,1.4h-4.3c-.4,0,-.7,-.2,-.9,-.4v6.6c.2,-.2,.5,-.4,.9,-.4H537c.7,0,1.3,.6,1.3,1.4v.4c0,.3,-.1,.6,-.3,.8Z" class="g9_23"/>
<path d="M530.5,301.7c0,-.6,-.5,-1.1,-1.1,-1.1c-.6,0,-1.1,.5,-1.1,1.1v5.6c0,.6,.5,1.1,1.1,1.1c.6,0,1.1,-.5,1.1,-1.1Z" class="g9_23"/>
<path d="M532.3,323.6v.7h4.5c1.2,0,2.1,-.9,2.1,-2v-.4c0,-1.2,-.9,-2.1,-2.1,-2.1h-4.5c-.6,0,-1.1,.2,-1.4,.6c-.2,.1,-.2,.3,-.2,.5v.2c0,.2,-.1,.4,-.3,.5c-.1,.1,-.2,.3,-.2,.5v.2c0,1.1,.9,2,2.1,2v-1.4c-.4,0,-.7,-.3,-.7,-.6v-.2h-.7l.5,.5c.4,-.3,.6,-.9,.6,-1.5v-.2h-.6l.4,.5c.1,-.1,.3,-.2,.5,-.2h4.5c.4,0,.7,.3,.7,.7v.4c0,.3,-.3,.6,-.7,.6h-4.5Z" class="g9_23"/>
<path d="M531.4,314.3l-.5,.5c.3,.3,.8,.5,1.4,.5h4.5c1.2,0,2.1,-.9,2.1,-2v-.4c0,-1.1,-.9,-2,-2.1,-2.1h-4.5c-1.2,.1,-2.1,1,-2.1,2.1v.2c0,.1,.1,.3,.2,.5c.2,.1,.3,.3,.3,.5v.2c0,.2,0,.4,.2,.5l.5,-.5h.6v-.2c0,-.6,-.2,-1.2,-.6,-1.6l-.5,.6h.7v-.2c0,-.4,.3,-.7,.7,-.7h4.5c.4,0,.7,.3,.7,.7v.4c0,.4,-.3,.6,-.7,.7h-4.5c-.2,-.1,-.4,-.1,-.5,-.2l-.4,.5h.6Z" class="g9_23"/>
<path d="M537.9,323.1v.7h1.9c1,0,1.8,-.8,1.8,-1.8v-8.8c0,-1,-.8,-1.8,-1.8,-1.8h-1.9c-.2,0,-.5,.2,-.6,.4c-.1,.2,-.1,.5,.1,.7c0,.1,.1,.2,.1,.4v.4c0,.4,-.3,.6,-.7,.7h-4.5c-.2,-.1,-.4,-.1,-.5,-.2c-.2,-.2,-.5,-.3,-.7,-.1c-.3,.1,-.4,.3,-.4,.6v6.6c0,.2,.1,.5,.4,.6c.2,.1,.5,.1,.7,-.1c.1,-.1,.3,-.2,.5,-.2h4.5c.4,0,.7,.3,.7,.7v.4c0,.1,-.1,.2,-.2,.4c-.1,.2,-.2,.5,0,.7c.1,.2,.3,.4,.6,.4v-.7l.5,.4c.3,-.3,.5,-.8,.5,-1.2v-.4c0,-1.2,-.9,-2.1,-2.1,-2.1h-4.5c-.6,0,-1.1,.2,-1.4,.6l.5,.5h.6v-6.6h-.6l-.5,.5c.3,.3,.8,.5,1.4,.5h4.5c1.2,0,2.1,-.9,2.1,-2v-.4c0,-.5,-.2,-.9,-.4,-1.2l-.6,.4v.7h1.9c.2,0,.4,.2,.4,.4V322c0,.2,-.2,.4,-.4,.4h-1.9v.7l.5,.4Z" class="g9_23"/>
<path d="M531.4,314.1h.6c0,-1.2,-.9,-2.1,-2,-2.1h-.7c-1.1,0,-2,.9,-2,2.1v7c0,1.1,.9,2.1,2,2.1h.7c1.1,0,2,-1,2,-2.1v-7h-1.3v7c0,.4,-.3,.7,-.7,.7h-.7c-.3,0,-.6,-.3,-.6,-.7v-7c0,-.4,.3,-.7,.6,-.7h.7c.4,0,.7,.3,.7,.7Z" class="g9_23"/>
<path d="M516.5,310.8v.7h4.6c1.1,0,2,-.9,2,-2v-.4c0,-1.1,-.9,-2.1,-2,-2.1h-4.6c-.5,0,-1,.3,-1.3,.6c-.2,.1,-.3,.3,-.3,.5v.2c0,.2,-.1,.4,-.2,.5c-.1,.2,-.2,.3,-.2,.5v.2c0,1.1,.9,2,2,2v-1.4c-.3,0,-.6,-.3,-.6,-.6v-.2h-.7l.4,.6c.4,-.4,.7,-1,.7,-1.6v-.2h-.7l.5,.5c.1,-.1,.2,-.2,.4,-.2h4.6c.4,0,.7,.3,.7,.7v.4c0,.3,-.3,.6,-.7,.6h-4.6Z" class="g9_23"/>
<path d="M515.6,301.5l-.4,.5c.3,.3,.8,.5,1.3,.5h4.6c1.1,0,2,-.9,2,-2v-.4c0,-1.1,-.9,-2,-2,-2h-4.6c-1.1,0,-2,.9,-2,2v.2c0,.2,.1,.4,.2,.5c.1,.1,.2,.3,.2,.5v.2c0,.2,.1,.4,.3,.5l.4,-.5h.7v-.2c0,-.6,-.3,-1.2,-.7,-1.5l-.4,.5h.7v-.2c0,-.4,.3,-.7,.6,-.7h4.6c.4,0,.7,.3,.7,.7v.4c0,.4,-.3,.7,-.7,.7h-4.6c-.2,0,-.3,-.1,-.4,-.2l-.5,.5h.7Z" class="g9_23"/>
<path d="M522.1,310.3v.7H524c1,0,1.8,-.8,1.8,-1.8v-8.8c0,-1,-.8,-1.8,-1.8,-1.8h-1.8c-.3,0,-.5,.2,-.6,.4c-.1,.2,-.1,.5,0,.7c.1,.1,.2,.3,.2,.4v.4c0,.4,-.3,.7,-.7,.7h-4.6c-.2,0,-.3,-.1,-.4,-.2c-.2,-.2,-.5,-.2,-.8,-.1c-.2,.1,-.4,.3,-.4,.6v6.6c0,.3,.2,.5,.4,.6c.3,.1,.6,.1,.8,-.1c.1,-.1,.2,-.2,.4,-.2h4.6c.4,0,.7,.3,.7,.7v.4c0,.1,-.1,.3,-.2,.4c-.2,.2,-.2,.5,-.1,.7c.1,.3,.4,.4,.6,.4v-.7l.6,.5c.2,-.4,.4,-.8,.4,-1.3v-.4c0,-1.1,-.9,-2.1,-2,-2.1h-4.6c-.5,0,-1,.3,-1.3,.6l.4,.5h.7v-6.6h-.7l-.4,.5c.3,.3,.8,.5,1.3,.5h4.6c1.1,0,2,-.9,2,-2v-.4c0,-.4,-.1,-.9,-.4,-1.2l-.5,.4v.7H524c.3,0,.5,.2,.5,.4v8.8c0,.2,-.2,.4,-.5,.4h-1.9v.7l.6,.5Z" class="g9_23"/>
<path d="M515.6,301.3h.7c0,-1.2,-.9,-2.1,-2,-2.1h-.7c-1.1,0,-2.1,.9,-2.1,2.1v7c0,1.2,1,2.1,2.1,2.1h.7c1.1,0,2,-.9,2,-2.1v-7h-1.4v7c0,.4,-.3,.7,-.6,.7h-.7c-.4,0,-.7,-.3,-.7,-.7v-7c0,-.4,.3,-.7,.7,-.7h.7c.3,0,.6,.3,.6,.7Z" class="g9_23"/>
<path d="M516.5,323.6v.7h4.6c1.1,0,2,-.9,2,-2v-.4c0,-1.2,-.9,-2.1,-2,-2.1h-4.6c-.5,0,-1,.2,-1.3,.6c-.2,.1,-.3,.3,-.3,.5v.2c0,.2,-.1,.4,-.2,.5c-.1,.1,-.2,.3,-.2,.5v.2c0,1.1,.9,2,2,2v-1.4c-.3,0,-.6,-.3,-.6,-.6v-.2h-.7l.4,.5c.4,-.3,.7,-.9,.7,-1.5v-.2h-.7l.5,.5c.1,-.1,.2,-.2,.4,-.2h4.6c.4,0,.7,.3,.7,.7v.4c0,.3,-.3,.6,-.7,.6h-4.6Z" class="g9_23"/>
<path d="M515.6,314.3l-.4,.5c.3,.3,.8,.5,1.3,.5h4.6c1.1,0,2,-.9,2,-2v-.4c0,-1.1,-.9,-2,-2,-2.1h-4.6c-1.1,.1,-2,1,-2,2.1v.2c0,.1,.1,.3,.2,.5c.1,.1,.2,.3,.2,.5v.2c0,.2,.1,.4,.3,.5l.4,-.5h.7v-.2c0,-.6,-.3,-1.2,-.7,-1.6l-.4,.6h.7v-.2c0,-.4,.3,-.7,.6,-.7h4.6c.4,0,.7,.3,.7,.7v.4c0,.4,-.3,.6,-.7,.7h-4.6c-.2,-.1,-.3,-.1,-.4,-.2l-.5,.5h.7Z" class="g9_23"/>
<path d="M522.1,323.1v.7H524c1,0,1.8,-.8,1.8,-1.8v-8.8c0,-1,-.8,-1.8,-1.8,-1.8h-1.8c-.3,0,-.5,.2,-.6,.4c-.1,.2,-.1,.5,0,.7c.1,.1,.2,.2,.2,.4v.4c0,.4,-.3,.6,-.7,.7h-4.6c-.2,-.1,-.3,-.1,-.4,-.2c-.2,-.2,-.5,-.3,-.8,-.1c-.2,.1,-.4,.3,-.4,.6v6.6c0,.2,.2,.5,.4,.6c.3,.1,.6,.1,.8,-.1c.1,-.1,.2,-.2,.4,-.2h4.6c.4,0,.7,.3,.7,.7v.4c0,.1,-.1,.2,-.2,.4c-.2,.2,-.2,.5,-.1,.7c.1,.2,.4,.4,.6,.4v-.7l.6,.4c.2,-.3,.4,-.8,.4,-1.2v-.4c0,-1.2,-.9,-2.1,-2,-2.1h-4.6c-.5,0,-1,.2,-1.3,.6l.4,.5h.7v-6.6h-.7l-.4,.5c.3,.3,.8,.5,1.3,.5h4.6c1.1,0,2,-.9,2,-2v-.4c0,-.5,-.1,-.9,-.4,-1.2l-.5,.4v.7H524c.3,0,.5,.2,.5,.4V322c0,.2,-.2,.4,-.5,.4h-1.9v.7l.6,.4Z" class="g9_23"/>
<path d="M515.6,314.1h.7c0,-1.2,-.9,-2.1,-2,-2.1h-.7c-1.1,0,-2.1,.9,-2.1,2.1v7c0,1.1,1,2.1,2.1,2.1h.7c1.1,0,2,-1,2,-2.1v-7h-1.4v7c0,.4,-.3,.7,-.6,.7h-.7c-.4,0,-.7,-.3,-.7,-.7v-7c0,-.4,.3,-.7,.7,-.7h.7c.3,0,.6,.3,.6,.7Z" class="g9_23"/>
<image clip-path="url(#cv_23)" preserveAspectRatio="none" x="399" y="331" width="89" height="30" xlink:href="img/40.jpg"/>
<image clip-path="url(#cw_23)" preserveAspectRatio="none" x="409" y="259" width="88" height="73" xlink:href="img/41.jpg"/>
<image clip-path="url(#cx_23)" preserveAspectRatio="none" x="409" y="352" width="79" height="4" xlink:href="img/42.jpg"/>
<image clip-path="url(#cy_23)" preserveAspectRatio="none" x="487" y="331" width="11" height="30" xlink:href="img/43.jpg"/>
<image clip-path="url(#cz_23)" preserveAspectRatio="none" x="488" y="259" width="9" height="73" xlink:href="img/44.jpg"/>
<image clip-path="url(#c10_23)" preserveAspectRatio="none" x="487" y="352" width="11" height="4" xlink:href="img/45.jpg"/>
<image clip-path="url(#c11_23)" preserveAspectRatio="none" x="494" y="280" width="4" height="69" xlink:href="img/46.jpg"/>
<image clip-path="url(#c12_23)" preserveAspectRatio="none" x="494" y="348" width="4" height="8" xlink:href="img/47.jpg"/>
<path d="M424.8,272c-10.1,0,-18.3,8.2,-18.3,18.3v64.2h79V290.3c0,-10.1,-8.2,-18.3,-18.3,-18.3Z" class="g3_23"/>
<path d="M406.4,355.4h79.1v-7.2H406.4v7.2Z" class="g8_23"/>
<path d="M411.8,330.4h2.4c.2,0,.4,-.1,.4,-.4c0,-.2,-.2,-.3,-.4,-.3h-2.4c-.2,0,-.3,.1,-.3,.3c0,.3,.1,.4,.3,.4m3.9,0h2.4c.2,0,.3,-.1,.3,-.4c0,-.2,-.1,-.3,-.3,-.3h-2.4c-.2,0,-.4,.1,-.4,.3c0,.3,.2,.4,.4,.4m3.9,0h2.3c.2,0,.4,-.1,.4,-.4c0,-.2,-.2,-.3,-.4,-.3h-2.3c-.2,0,-.4,.1,-.4,.3c0,.3,.2,.4,.4,.4m3.9,0h2.3c.2,0,.4,-.1,.4,-.4c0,-.2,-.2,-.3,-.4,-.3h-2.3c-.2,0,-.4,.1,-.4,.3c0,.3,.2,.4,.4,.4m3.9,0h2.3c.2,0,.4,-.1,.4,-.4c0,-.2,-.2,-.3,-.4,-.3h-2.3c-.2,0,-.4,.1,-.4,.3c0,.3,.2,.4,.4,.4m3.9,0h2.3c.2,0,.4,-.1,.4,-.4c0,-.2,-.2,-.3,-.4,-.3h-2.3c-.3,0,-.4,.1,-.4,.3c0,.3,.1,.4,.4,.4m3.8,0h2.4c.2,0,.3,-.1,.3,-.4c0,-.2,-.1,-.3,-.3,-.3h-2.4c-.2,0,-.3,.1,-.3,.3c0,.3,.1,.4,.3,.4m3.9,0h2.3c.3,0,.4,-.1,.4,-.4c0,-.2,-.1,-.3,-.4,-.3H439c-.2,0,-.4,.1,-.4,.3c0,.3,.2,.4,.4,.4m3.9,0h2.3c.2,0,.4,-.1,.4,-.4c0,-.2,-.2,-.3,-.4,-.3h-2.3c-.2,0,-.4,.1,-.4,.3c0,.3,.2,.4,.4,.4m3.9,0h2.3c.2,0,.4,-.1,.4,-.4c0,-.2,-.2,-.3,-.4,-.3h-2.3c-.2,0,-.4,.1,-.4,.3c0,.3,.2,.4,.4,.4m3.9,0H453c.2,0,.4,-.1,.4,-.4c0,-.2,-.2,-.3,-.4,-.3h-2.3c-.2,0,-.4,.1,-.4,.3c0,.3,.2,.4,.4,.4m3.8,0h2.4c.2,0,.4,-.1,.4,-.4c0,-.2,-.2,-.3,-.4,-.3h-2.4c-.2,0,-.3,.1,-.3,.3c0,.3,.1,.4,.3,.4m3.9,0h2.4c.2,0,.3,-.1,.3,-.4c0,-.2,-.1,-.3,-.3,-.3h-2.4c-.2,0,-.4,.1,-.4,.3c0,.3,.2,.4,.4,.4m3.9,0h2.3c.2,0,.4,-.1,.4,-.4c0,-.2,-.2,-.3,-.4,-.3h-2.3c-.2,0,-.4,.1,-.4,.3c0,.3,.2,.4,.4,.4m3.9,0h2.3c.2,0,.4,-.1,.4,-.4c0,-.2,-.2,-.3,-.4,-.3h-2.3c-.2,0,-.4,.1,-.4,.3c0,.3,.2,.4,.4,.4m3.9,0h2.3c.2,0,.4,-.1,.4,-.4c0,-.2,-.2,-.3,-.4,-.3h-2.3c-.2,0,-.4,.1,-.4,.3c0,.3,.2,.4,.4,.4m3.9,0h2.3c.2,0,.4,-.1,.4,-.4c0,-.2,-.2,-.3,-.4,-.3H474c-.3,0,-.4,.1,-.4,.3c0,.3,.1,.4,.4,.4m3.8,0h2.4c.2,0,.3,-.1,.3,-.4c0,-.2,-.1,-.3,-.3,-.3h-2.4c-.2,0,-.3,.1,-.3,.3c0,.3,.1,.4,.3,.4Z" class="ga_23"/>
<path d="M459.3,294h2.2c.2,0,.4,-.1,.4,-.4c0,-.2,-.2,-.3,-.4,-.3h-2.2c-.2,0,-.4,.1,-.4,.3c0,.3,.2,.4,.4,.4m3.7,0h2.3c.2,0,.3,-.1,.3,-.4c0,-.2,-.1,-.3,-.3,-.3H463c-.2,0,-.4,.1,-.4,.3c0,.3,.2,.4,.4,.4m3.7,0H469c.2,0,.4,-.1,.4,-.4c0,-.2,-.2,-.3,-.4,-.3h-2.3c-.2,0,-.3,.1,-.3,.3c0,.3,.1,.4,.3,.4m3.8,0h2.2c.2,0,.4,-.1,.4,-.4c0,-.2,-.2,-.3,-.4,-.3h-2.2c-.3,0,-.4,.1,-.4,.3c0,.3,.1,.4,.4,.4m3.7,0h2.2c.2,0,.4,-.1,.4,-.4c0,-.2,-.2,-.3,-.4,-.3h-2.2c-.2,0,-.4,.1,-.4,.3c0,.3,.2,.4,.4,.4m3.7,0h2.2c.2,0,.4,-.1,.4,-.4c0,-.2,-.2,-.3,-.4,-.3h-2.2c-.2,0,-.4,.1,-.4,.3c0,.3,.2,.4,.4,.4Z" class="ga_23"/>
<path d="M411.9,294h2.2c.2,0,.4,-.1,.4,-.4c0,-.2,-.2,-.3,-.4,-.3h-2.2c-.2,0,-.4,.1,-.4,.3c0,.3,.2,.4,.4,.4m3.7,0h2.2c.2,0,.4,-.1,.4,-.4c0,-.2,-.2,-.3,-.4,-.3h-2.2c-.2,0,-.4,.1,-.4,.3c0,.3,.2,.4,.4,.4m3.7,0h2.3c.2,0,.3,-.1,.3,-.4c0,-.2,-.1,-.3,-.3,-.3h-2.3c-.2,0,-.4,.1,-.4,.3c0,.3,.2,.4,.4,.4m3.7,0h2.3c.2,0,.4,-.1,.4,-.4c0,-.2,-.2,-.3,-.4,-.3H423c-.2,0,-.3,.1,-.3,.3c0,.3,.1,.4,.3,.4m3.8,0H429c.2,0,.4,-.1,.4,-.4c0,-.2,-.2,-.3,-.4,-.3h-2.2c-.3,0,-.4,.1,-.4,.3c0,.3,.1,.4,.4,.4m3.7,0h2.2c.2,0,.4,-.1,.4,-.4c0,-.2,-.2,-.3,-.4,-.3h-2.2c-.2,0,-.4,.1,-.4,.3c0,.3,.2,.4,.4,.4Z" class="ga_23"/>
<path d="M436.7,296.6v-.7c-1.1,0,-2,.9,-2,2.1v29.3h22.9V298c0,-1.2,-.9,-2.1,-2.1,-2.1H436.7v1.5h18.8c.3,0,.6,.3,.6,.6v27.8H436.2V298c0,-.3,.2,-.6,.5,-.6Z" class="ga_23"/>
<path d="M438.7,291.6v-.3c-.5,0,-1,.4,-1,1v4.6h16.9v-4.6c0,-.6,-.5,-1,-1,-1H438.7v.7h14.9c.1,0,.3,.1,.3,.3v3.9H438.4v-3.9c0,-.2,.1,-.3,.3,-.3Z" class="ga_23"/>
<path d="M443.6,318.7h-.4v7.6l.1,.3l.3,.1h5.2l.2,-.1l.1,-.3v-7.6l-.1,-.2l-.2,-.2h-5.2l-.3,.2l-.1,.2h.4v.4h4.8V326H444v-7.3h-.4v.4Z" class="ga_23"/>
<path d="M450.5,318.7h-.4v4.1l.1,.3l.3,.1h4.1l.3,-.1l.1,-.3v-4.1l-.1,-.2l-.3,-.2h-4.1l-.3,.2l-.1,.2h.4v.4h3.8v3.4h-3.4v-3.8h-.4v.4Z" class="ga_23"/>
<path d="M437.7,318.7h-.4v4.1l.1,.3l.3,.1h4.1l.3,-.1l.1,-.3v-4.1l-.1,-.2l-.3,-.2h-4.1l-.3,.2l-.1,.2h.4v.4h3.8v3.4h-3.4v-3.8h-.4v.4Z" class="ga_23"/>
<path d="M445.8,322.7h.8v-1h-.8v1Z" class="ga_23"/>
<path d="M450.5,312.4h-.4v4.1l.1,.3l.3,.1h4.1l.3,-.1l.1,-.3v-4.1l-.1,-.3l-.3,-.1h-4.1l-.3,.1l-.1,.3h.4v.4h3.8v3.3h-3.4v-3.7h-.4v.4Z" class="ga_23"/>
<path d="M444.1,312.4h-.4v4.1l.1,.3l.3,.1h4.1l.3,-.1l.1,-.3v-4.1l-.1,-.3l-.3,-.1h-4.1l-.3,.1l-.1,.3h.4v.4h3.8v3.3h-3.4v-3.7h-.4v.4Z" class="ga_23"/>
<path d="M437.7,312.4h-.4v4.1l.1,.3l.3,.1h4.1l.3,-.1l.1,-.3v-4.1l-.1,-.3l-.3,-.1h-4.1l-.3,.1l-.1,.3h.4v.4h3.8v3.3h-3.4v-3.7h-.4v.4Z" class="ga_23"/>
<path d="M450.5,306.1h-.4v4.1l.1,.3l.3,.1h4.1l.3,-.1l.1,-.3v-4.1l-.1,-.3l-.3,-.1h-4.1l-.3,.1l-.1,.3h.4v.4h3.8v3.3h-3.4v-3.7h-.4v.4Z" class="ga_23"/>
<path d="M444.1,306.1h-.4v4.1l.1,.3l.3,.1h4.1l.3,-.1l.1,-.3v-4.1l-.1,-.3l-.3,-.1h-4.1l-.3,.1l-.1,.3h.4v.4h3.8v3.3h-3.4v-3.7h-.4v.4Z" class="ga_23"/>
<path d="M437.7,306.1h-.4v4.1l.1,.3l.3,.1h4.1l.3,-.1l.1,-.3v-4.1l-.1,-.3l-.3,-.1h-4.1l-.3,.1l-.1,.3h.4v.4h3.8v3.3h-3.4v-3.7h-.4v.4Z" class="ga_23"/>
<path d="M450.5,299.8h-.4v4.1l.1,.2l.3,.2h4.1l.3,-.2l.1,-.2v-4.1l-.1,-.3l-.3,-.1h-4.1l-.3,.1l-.1,.3h.4v.3h3.8v3.4h-3.4v-3.7h-.4v.3Z" class="ga_23"/>
<path d="M444.1,299.8h-.4v4.1l.1,.2l.3,.2h4.1l.3,-.2l.1,-.2v-4.1l-.1,-.3l-.3,-.1h-4.1l-.3,.1l-.1,.3h.4v.3h3.8v3.4h-3.4v-3.7h-.4v.3Z" class="ga_23"/>
<path d="M437.7,299.8h-.4v4.1l.1,.2l.3,.2h4.1l.3,-.2l.1,-.2v-4.1l-.1,-.3l-.3,-.1h-4.1l-.3,.1l-.1,.3h.4v.3h3.8v3.4h-3.4v-3.7h-.4v.3Z" class="ga_23"/>
<path d="M441.3,292.7l-.2,-.1l-.5,.7l-.8,.2l-.2,.1l.1,.3l.5,.6v.8l.1,.2l.2,.1l.8,-.4l.7,.4l.3,-.1l.1,-.2l-.1,-.8l.5,-.6l.1,-.3l-.2,-.1l-.8,-.2l-.4,-.7l-.2,-.2l-.2,.2l.2,.1l-.2,.1l.5,.8l.1,.1l.5,.1l-.3,.5l-.1,.1l.1,.6l-.6,-.2h-.1l-.5,.2v-.6l-.1,-.1l-.3,-.5l.5,-.1l.2,-.1l.5,-.8l-.2,-.1l-.2,.1Z" class="ga_23"/>
<path d="M446.1,292.7l-.2,-.1l-.4,.7l-.8,.2l-.2,.1l.1,.3l.5,.6l-.1,.8l.1,.2l.3,.1l.7,-.4l.8,.4l.2,-.1l.1,-.2v-.8l.5,-.6l.1,-.3l-.2,-.1l-.8,-.2l-.5,-.7l-.2,-.2l-.2,.2l.2,.1l-.2,.1l.5,.8l.2,.1l.5,.1l-.3,.5l-.1,.1v.6l-.5,-.2H446l-.5,.2l.1,-.6l-.1,-.1l-.3,-.5l.5,-.1l.1,-.1l.5,-.8l-.2,-.1l-.2,.1Z" class="ga_23"/>
<path d="M451,292.7l-.2,-.1l-.4,.7l-.8,.2l-.2,.1v.3l.6,.6l-.1,.8l.1,.2l.2,.1l.8,-.4l.8,.4l.2,-.1l.1,-.2l-.1,-.8l.6,-.6v-.3l-.1,-.1l-.8,-.2l-.5,-.7l-.2,-.2l-.2,.2l.2,.1l-.2,.1l.5,.8l.1,.1l.6,.1l-.4,.5v.7l-.5,-.2h-.2l-.5,.2v-.7l-.4,-.5l.6,-.1l.1,-.1l.5,-.8l-.2,-.1l-.2,.1Z" class="ga_23"/>
<path d="M433.7,327.6h24.6c.5,0,1,-.4,1,-.9c0,-.5,-.5,-.9,-1,-.9H433.7c-.5,0,-.9,.4,-.9,.9c0,.5,.4,.9,.9,.9Z" class="ga_23"/>
<path d="M446,318.7V326h.3v-7.3Z" class="ga_23"/>
<image clip-path="url(#c13_23)" preserveAspectRatio="none" x="320" y="331" width="80" height="30" xlink:href="img/48.jpg"/>
<image clip-path="url(#c14_23)" preserveAspectRatio="none" x="312" y="259" width="97" height="73" xlink:href="img/49.jpg"/>
<image clip-path="url(#c15_23)" preserveAspectRatio="none" x="320" y="352" width="80" height="4" xlink:href="img/50.jpg"/>
<image clip-path="url(#c16_23)" preserveAspectRatio="none" x="311" y="331" width="11" height="30" xlink:href="img/51.jpg"/>
<image clip-path="url(#c17_23)" preserveAspectRatio="none" x="312" y="259" width="9" height="73" xlink:href="img/52.jpg"/>
<image clip-path="url(#c18_23)" preserveAspectRatio="none" x="311" y="352" width="11" height="4" xlink:href="img/53.jpg"/>
<image clip-path="url(#c19_23)" preserveAspectRatio="none" x="399" y="331" width="11" height="30" xlink:href="img/54.jpg"/>
<image clip-path="url(#c1a_23)" preserveAspectRatio="none" x="400" y="259" width="9" height="73" xlink:href="img/55.jpg"/>
<image clip-path="url(#c1b_23)" preserveAspectRatio="none" x="399" y="352" width="11" height="4" xlink:href="img/56.jpg"/>
<image clip-path="url(#c1c_23)" preserveAspectRatio="none" x="406" y="281" width="4" height="68" xlink:href="img/57.jpg"/>
<image clip-path="url(#c1d_23)" preserveAspectRatio="none" x="406" y="348" width="4" height="8" xlink:href="img/58.jpg"/>
<path d="M336.6,272c-10.1,0,-18.3,8.2,-18.3,18.3v64.2h79V290.3C397.3,280.2,389.1,272,379,272Z" class="g3_23"/>
<path d="M318.2,355.4h79.1v-7.2H318.2v7.2Z" class="g8_23"/>
<path d="M324.5,298.2h2.1c.2,0,.4,-.2,.4,-.4c0,-.2,-.2,-.4,-.4,-.4h-2.1c-.3,0,-.4,.2,-.4,.4c0,.2,.1,.4,.4,.4m3.5,0h2.2c.2,0,.4,-.2,.4,-.4c0,-.2,-.2,-.4,-.4,-.4H328c-.2,0,-.4,.2,-.4,.4c0,.2,.2,.4,.4,.4m3.6,0h2.1c.2,0,.4,-.2,.4,-.4c0,-.2,-.2,-.4,-.4,-.4h-2.1c-.2,0,-.4,.2,-.4,.4c0,.2,.2,.4,.4,.4m3.5,0h2.2c.2,0,.4,-.2,.4,-.4c0,-.2,-.2,-.4,-.4,-.4h-2.2c-.2,0,-.4,.2,-.4,.4c0,.2,.2,.4,.4,.4m3.6,0h2.1c.2,0,.4,-.2,.4,-.4c0,-.2,-.2,-.4,-.4,-.4h-2.1c-.2,0,-.4,.2,-.4,.4c0,.2,.2,.4,.4,.4m3.5,0h2.2c.2,0,.4,-.2,.4,-.4c0,-.2,-.2,-.4,-.4,-.4h-2.2c-.2,0,-.4,.2,-.4,.4c0,.2,.2,.4,.4,.4m3.6,0h2.1c.3,0,.4,-.2,.4,-.4c0,-.2,-.1,-.4,-.4,-.4h-2.1c-.2,0,-.4,.2,-.4,.4c0,.2,.2,.4,.4,.4Z" class="gb_23"/>
<path d="M324.5,330.4h2.3c.2,0,.4,-.1,.4,-.4c0,-.2,-.2,-.3,-.4,-.3h-2.3c-.3,0,-.4,.1,-.4,.3c0,.3,.1,.4,.4,.4m3.8,0h2.4c.2,0,.3,-.1,.3,-.4c0,-.2,-.1,-.3,-.3,-.3h-2.4c-.2,0,-.3,.1,-.3,.3c0,.3,.1,.4,.3,.4m3.9,0h2.3c.3,0,.4,-.1,.4,-.4c0,-.2,-.1,-.3,-.4,-.3h-2.3c-.2,0,-.4,.1,-.4,.3c0,.3,.2,.4,.4,.4m3.9,0h2.3c.2,0,.4,-.1,.4,-.4c0,-.2,-.2,-.3,-.4,-.3h-2.3c-.2,0,-.4,.1,-.4,.3c0,.3,.2,.4,.4,.4m3.9,0h2.3c.2,0,.4,-.1,.4,-.4c0,-.2,-.2,-.3,-.4,-.3H340c-.2,0,-.4,.1,-.4,.3c0,.3,.2,.4,.4,.4m3.9,0h2.3c.2,0,.4,-.1,.4,-.4c0,-.2,-.2,-.3,-.4,-.3h-2.3c-.2,0,-.4,.1,-.4,.3c0,.3,.2,.4,.4,.4m3.9,0h2.3c.2,0,.4,-.1,.4,-.4c0,-.2,-.2,-.3,-.4,-.3h-2.3c-.3,0,-.4,.1,-.4,.3c0,.3,.1,.4,.4,.4m3.8,0H354c.2,0,.3,-.1,.3,-.4c0,-.2,-.1,-.3,-.3,-.3h-2.4c-.2,0,-.3,.1,-.3,.3c0,.3,.1,.4,.3,.4m3.9,0h2.3c.3,0,.4,-.1,.4,-.4c0,-.2,-.1,-.3,-.4,-.3h-2.3c-.2,0,-.4,.1,-.4,.3c0,.3,.2,.4,.4,.4m3.9,0h2.3c.2,0,.4,-.1,.4,-.4c0,-.2,-.2,-.3,-.4,-.3h-2.3c-.2,0,-.4,.1,-.4,.3c0,.3,.2,.4,.4,.4m3.9,0h2.3c.2,0,.4,-.1,.4,-.4c0,-.2,-.2,-.3,-.4,-.3h-2.3c-.2,0,-.4,.1,-.4,.3c0,.3,.2,.4,.4,.4m3.9,0h2.3c.2,0,.4,-.1,.4,-.4c0,-.2,-.2,-.3,-.4,-.3h-2.3c-.2,0,-.4,.1,-.4,.3c0,.3,.2,.4,.4,.4m3.8,0h2.4c.2,0,.3,-.1,.3,-.4c0,-.2,-.1,-.3,-.3,-.3H371c-.2,0,-.3,.1,-.3,.3c0,.3,.1,.4,.3,.4m3.9,0h2.3c.3,0,.4,-.1,.4,-.4c0,-.2,-.1,-.3,-.4,-.3h-2.3c-.2,0,-.4,.1,-.4,.3c0,.3,.2,.4,.4,.4m3.9,0h2.3c.2,0,.4,-.1,.4,-.4c0,-.2,-.2,-.3,-.4,-.3h-2.3c-.2,0,-.4,.1,-.4,.3c0,.3,.2,.4,.4,.4m3.9,0H385c.2,0,.4,-.1,.4,-.4c0,-.2,-.2,-.3,-.4,-.3h-2.3c-.2,0,-.4,.1,-.4,.3c0,.3,.2,.4,.4,.4m3.9,0h2.3c.2,0,.4,-.1,.4,-.4c0,-.2,-.2,-.3,-.4,-.3h-2.3c-.2,0,-.4,.1,-.4,.3c0,.3,.2,.4,.4,.4m3.9,0h2.3c.2,0,.4,-.1,.4,-.4c0,-.2,-.2,-.3,-.4,-.3h-2.3c-.3,0,-.4,.1,-.4,.3c0,.3,.1,.4,.4,.4Z" class="gb_23"/>
<path d="M371.2,298.2h2.3c.3,0,.4,-.2,.4,-.4c0,-.2,-.1,-.4,-.4,-.4h-2.3c-.2,0,-.3,.2,-.3,.4c0,.2,.1,.4,.3,.4m3.9,0h2.3c.2,0,.4,-.2,.4,-.4c0,-.2,-.2,-.4,-.4,-.4h-2.3c-.2,0,-.4,.2,-.4,.4c0,.2,.2,.4,.4,.4m3.8,0h2.3c.2,0,.4,-.2,.4,-.4c0,-.2,-.2,-.4,-.4,-.4h-2.3c-.2,0,-.3,.2,-.3,.4c0,.2,.1,.4,.3,.4m3.9,0h2.3c.2,0,.4,-.2,.4,-.4c0,-.2,-.2,-.4,-.4,-.4h-2.3c-.2,0,-.4,.2,-.4,.4c0,.2,.2,.4,.4,.4m3.8,0h2.3c.2,0,.4,-.2,.4,-.4c0,-.2,-.2,-.4,-.4,-.4h-2.3c-.2,0,-.4,.2,-.4,.4c0,.2,.2,.4,.4,.4m3.9,0h2.3c.2,0,.4,-.2,.4,-.4c0,-.2,-.2,-.4,-.4,-.4h-2.3c-.2,0,-.4,.2,-.4,.4c0,.2,.2,.4,.4,.4Z" class="gb_23"/>
<path d="M367.8,309.8c0,3.4,-.1,6.8,0,10.2c.1,3.1,-1.4,5.4,-4.5,6.7c-3.3,1.4,-6.5,1.2,-9.5,-.7c-.4,-.2,-.9,-.5,-1.1,-.8c-.2,-.3,-.1,-.7,.1,-.9c.1,-.2,.6,-.1,.9,-.1c.3,.1,.4,.3,.6,.5c3.1,2.3,8,1.9,10.5,-.7c1.1,-1.1,1.5,-2.4,1.5,-3.9c0,-6.8,-.1,-13.6,0,-20.4c0,-2.4,-1,-4.3,-3.6,-5.5c-2.6,-1.2,-5.3,-1,-7.8,.4c-.3,.2,-.6,.4,-.9,.6c-.4,.4,-.9,.5,-1.2,.1c-.2,-.3,-.1,-.9,.2,-1.1c1.1,-1,2.5,-1.6,4.1,-1.9c4.7,-1,9.6,1.5,10.6,5.5c.1,.5,.1,1.1,.1,1.6c0,3.5,0,7,0,10.4Z" class="gb_23"/>
<path d="M352.7,302c-1.7,-.3,-2.2,-1.5,-1.5,-3c.5,-1,1.4,-1.5,2.4,-1.8c1.6,-.5,3.2,-.6,4.7,-.1c2,.6,3.2,2.5,3,4.5c-.2,2,-1.8,3.6,-3.7,3.9c-2.1,.2,-3.9,-.9,-4.7,-2.8c0,-.3,-.1,-.5,-.2,-.7m7.1,0c-1.4,-.5,-1.6,-.6,-2.2,-1.9c-.2,-.3,-.3,-.6,-.5,-.8c-.7,-1,-1.4,-1,-2.2,-.2c-.8,.8,-1.1,2.2,-.6,3.2c.5,1.2,1.5,1.8,2.8,1.8c1.3,0,2.2,-.7,2.7,-2.1m.1,-1.7c.2,-.9,-1.7,-1.6,-1.7,-1.6c.4,1.8,1.6,2.2,1.7,1.6m-6.5,-1.6c-1.9,.8,-.9,2.2,-.8,1.8c0,0,.2,-1.2,.8,-1.8Z" class="gb_23"/>
<path d="M352.7,311.3c-1.7,-.3,-2.2,-1.4,-1.5,-3c.5,-1,1.4,-1.5,2.4,-1.8c1.6,-.5,3.2,-.6,4.7,-.1c2,.6,3.2,2.5,3,4.5c-.2,2,-1.8,3.7,-3.7,3.9c-2.1,.2,-3.9,-.9,-4.7,-2.8c0,-.2,-.1,-.5,-.2,-.7m7.1,0c-1.4,-.4,-1.6,-.6,-2.2,-1.9c-.2,-.2,-.3,-.5,-.5,-.8c-.7,-.9,-1.4,-1,-2.2,-.2c-.8,.9,-1.1,2.2,-.6,3.3c.5,1.1,1.5,1.8,2.8,1.7c1.3,0,2.2,-.7,2.7,-2.1m.1,-1.6c.2,-1,-1.7,-1.7,-1.7,-1.7c.4,1.8,1.6,2.2,1.7,1.7M353.4,308c-1.9,.8,-.9,2.2,-.8,1.9c0,0,.2,-1.2,.8,-1.9Z" class="gb_23"/>
<path d="M352.7,320.4c-1.7,-.3,-2.2,-1.4,-1.5,-3c.5,-1,1.4,-1.5,2.4,-1.8c1.6,-.5,3.2,-.5,4.7,-.1c2,.6,3.2,2.5,3,4.5c-.2,2,-1.8,3.7,-3.7,3.9c-2.1,.2,-3.9,-.9,-4.7,-2.8c0,-.2,-.1,-.5,-.2,-.7m7.1,0c-1.4,-.4,-1.6,-.6,-2.2,-1.9c-.2,-.2,-.3,-.5,-.5,-.8c-.7,-.9,-1.4,-1,-2.2,-.2c-.8,.9,-1.1,2.2,-.6,3.3c.5,1.1,1.5,1.8,2.8,1.7c1.3,0,2.2,-.7,2.7,-2.1m.1,-1.6c.2,-1,-1.7,-1.6,-1.7,-1.6c.4,1.7,1.6,2.1,1.7,1.6m-6.5,-1.7c-1.9,.8,-.9,2.2,-.8,1.9c0,0,.2,-1.2,.8,-1.9Z" class="gb_23"/>
<path d="M348.9,314.9l-5.3,-5.5c-.2,-.3,-.6,-.3,-.9,-.1c-.2,.3,-.2,.7,0,.9l5.3,5.6c.2,.2,.6,.2,.9,0c.2,-.2,.2,-.6,0,-.9Z" class="gb_23"/>
<path d="M348.9,322.5l-5.3,5.6c-.2,.2,-.6,.2,-.9,0c-.2,-.2,-.2,-.6,0,-.9l5.3,-5.5c.2,-.3,.6,-.3,.9,0c.2,.2,.2,.6,0,.8Z" class="gb_23"/>
<path d="M347.7,316.9l-7.3,-1.4c-.3,-.1,-.6,.1,-.7,.5c-.1,.3,.2,.7,.5,.7l7.2,1.4c.4,.1,.7,-.1,.8,-.5c0,-.3,-.2,-.6,-.5,-.7Z" class="gb_23"/>
<path d="M347.7,320.5l-7.3,1.5c-.3,0,-.6,-.2,-.7,-.5c-.1,-.4,.2,-.7,.5,-.8l7.2,-1.4c.4,0,.7,.2,.8,.5c0,.4,-.2,.7,-.5,.7Z" class="gb_23"/>
<path d="M0,0V1286.2Z" class="g3_23"/>
<path d="M0,1286.2H19.5V0H0V1286.2Z" class="g3_23"/>
</svg>