<?xml version="1.0" encoding="UTF-8" standalone="no"?>
<!DOCTYPE svg PUBLIC "-//W3C//DTD SVG 1.1//EN"
"http://www.w3.org/Graphics/SVG/1.1/DTD/svg11.dtd">
<svg viewBox="0 0 909 1286" version="1.1" xmlns="http://www.w3.org/2000/svg" xmlns:xlink="http://www.w3.org/1999/xlink">
<defs>
<clipPath id="c0_23"><path d="M880.7,1060.2V1036h1.1v22.4h23.5V1036h2.5v24.2Z"/></clipPath>
<clipPath id="c1_23"><path d="M881.8,1058.4V1036h23.5v22.4Z"/></clipPath>
<clipPath id="c2_23"><path d="M536.3,147.2c.7,-6,1,-12.8,1.1,-13.3v-.1c0,0,-1.6,-8,-2.5,-12v-.1c0,0,0,-.1,0,-.1q-.1,-.1,-.1,-.1q0,-.1,0,-.1v-.1c0,0,0,-.1,0,-.1v-.1c0,0,0,-.1,-.1,-.1v-.1c0,0,0,-.1,0,-.1v-.1c0,0,0,-.1,0,-.1v-.1c0,0,0,-.1,0,-.1q-.1,-.1,-.1,-.2c-.1,-.9,-.2,-1.7,-.2,-2.5h18v3.4h14.7v26.1Zm-3,-40.5c-.6,-1.5,-1.2,-3,-1.5,-4.6c-.4,-2,-.5,-6.4,-.5,-9.5c0,-2.1,.1,-3.6,.1,-3.6l.4,-12.7l1.3,-4.9l.7,-4l-4.4,-3.5l-.7,-4.2l-1.3,-2.3l-2.7,-4.6l-5.3,-6.9c0,0,-3.6,-2.9,-4.7,-4.2c-.4,-.5,-.5,-1,-.5,-1.7c0,-1.3,.6,-2.8,1.4,-3.7c1.1,-1.3,7.3,-5.9,7.3,-5.9c0,0,7.1,-6.5,8.5,-7.2c.4,-.2,.8,-.2,1.1,-.2c.4,0,.7,0,1.1,.2c.4,.1,.7,.3,1.1,.5c.2,.1,.5,.1,.7,.1q.1,0,.2,0c.9,0,2.2,-.3,2.2,-.3l4.7,-2.9l5.1,-.5l3.7,.7l4.3,-.9L554,16.8L550.7,13L554,8.8l5.3,-3.1l7.8,-3v99.1H552.4v4.7H533.3v.2Z"/></clipPath>
<clipPath id="c3_23"><path d="M534.4,117.7c-.1,-2.2,0,-4.2,.1,-5.8c0,0,0,-.1,0,-.1v-.1c0,0,0,-.1,0,-.1q0,-.1,0,-.1c0,0,0,-.1,0,-.1v-.1q0,-.1,0,-.1v-.1q0,-.1,0,-.1q0,-.1,0,-.1q-.1,0,-.1,0q0,-.1,0,-.1q0,-.1,0,-.1q0,-.1,0,-.1v-.1q0,-.1,0,-.1c0,0,0,-.1,0,-.1c0,-.1,-.1,-.3,-.1,-.4q0,-.1,0,-.1c0,0,0,-.1,0,-.1c-.3,-.9,-.6,-1.9,-1,-3v-.2h19.1v11.2Z"/></clipPath>
<clipPath id="c4_23"><path d="M307.5,443V425.4H226.1V443ZM39,446.1V147.2H308.1V446.1Z"/></clipPath>
<clipPath id="c5_23"><path d="M322.2,446.1V147.2H567.1V446.1Z"/></clipPath>
<clipPath id="c6_23"><path d="M226.1,443V425.4h81.4V443Z"/></clipPath>
<clipPath id="c7_23"><path d="M567.1,447.1v-1H870.5V147.2h-.4h.1l.3,-.3V447.1ZM865.6,43.2V28.9h-44V43.2ZM861,55.1L850.8,52.9h-9.6l-5.3,-4.6h-11l-7.8,-6.4l-8.6,-.3l-2.8,-1.1L802.2,37l-4.3,.7l-3.2,-2.1l2.5,-2.2l-4.3,-2.5l-1,-3.1l-6,.3L778,20c0,0,-2.8,1,-4.6,1.9c-1.4,.7,-3.6,1.5,-6.2,1.5c-.7,0,-1.5,0,-2.2,-.2c-3.6,-.6,-12.5,-3.5,-16.2,-4.4C745.3,18,737.6,17,733.3,17c-.4,0,-.8,0,-1.2,0c-2,.1,-4,.4,-5.7,.4c-1.7,0,-3.1,-.3,-3.6,-1C721.7,14.8,719.9,13,719.9,13c0,0,-.3,0,-.8,0c-.8,0,-1.9,.1,-3,.5c-1.8,.6,-5.8,1.3,-5.8,1.3l-11.5,1.3c0,0,-6.7,.3,-9.3,.3c-2.7,0,-16.5,-.9,-16.5,-.9L657.5,13.3L645.9,10.1L640.6,7.9l-1.5,-.6L636,7.7l-2.7,2.2l-5.3,.9H595.5l-7.1,-.9L585.3,8.8L577.8,2.6l-4,-.9l-5.1,.4l-1.6,.6V0H870.5V46.6h-3.4l-.7,5.3L861,55.1Z"/></clipPath>
<clipPath id="c8_23"><path d="M812.6,116.9V102.6H667.4v14.3Zm-191.3,4.2V101.8H601.2v19.3ZM843.2,96.9V79.8H775.6V96.9ZM730.5,80.3V66H695.3V80.3Zm123,-4.9V61.1H826V75.4Zm-82.2,-.2V60.9H738.9V75.2Zm43.6,-18V42.9H737.3V57.2Zm-247.8,90V121.1h5.4V101.8h-5.4V2.7l1.6,-.6l5.1,-.4l4,.9l7.5,6.2l3.1,1.1l7.1,.9H628l5.3,-.9L636,7.7l3.1,-.4l1.5,.6l5.3,2.2l11.6,3.2L673,15.5c0,0,13.8,.9,16.5,.9c2.6,0,9.3,-.3,9.3,-.3l11.5,-1.3c0,0,4,-.7,5.8,-1.3c1.1,-.4,2.2,-.5,3,-.5c.5,0,.8,0,.8,0c0,0,1.8,1.8,2.9,3.4c.5,.7,1.9,1,3.6,1c1.7,0,3.7,-.3,5.7,-.4c.4,0,.8,0,1.2,0c4.3,0,12,1,15.5,1.8c3.7,.9,12.6,3.8,16.2,4.4c.7,.2,1.5,.2,2.2,.2c2.6,0,4.8,-.8,6.2,-1.5C775.2,21,778,20,778,20l7.9,8.1l6,-.3l1,3.1l4.3,2.5l-2.5,2.2l3.2,2.1l4.3,-.7l3.5,3.5l2.8,1.1l8.6,.3l7.8,6.4h11l5.3,4.6h9.6L861,55.1l5.4,-3.2l.7,-5.3h3.4V146.9l-.3,.3h-.1Z"/></clipPath>
<clipPath id="c9_23"><path d="M567.1,396.8V147.2H820.3V396.8Z"/></clipPath>
<clipPath id="ca_23"><path d="M819.8,446.1v-.3h48.5V425.4H819.8V147.2h50.7V446.1Z"/></clipPath>
<clipPath id="cb_23"><path d="M567.1,446.1V396.2H820.3v29.2H580.1v20.4H820.3v.3Z"/></clipPath>
<clipPath id="cc_23"><path d="M580.1,445.8V425.4H868.3v20.4Z"/></clipPath>
<clipPath id="cd_23"><path d="M667.4,116.9V102.6H812.6v14.3Z"/></clipPath>
<clipPath id="ce_23"><path d="M826,75.4V61.1h27.5V75.4Z"/></clipPath>
<clipPath id="cf_23"><path d="M821.6,43.2V28.9h44V43.2Z"/></clipPath>
<clipPath id="cg_23"><path d="M737.3,57.2V42.9h77.6V57.2Z"/></clipPath>
<clipPath id="ch_23"><path d="M775.6,96.9V79.8h67.6V96.9Z"/></clipPath>
<clipPath id="ci_23"><path d="M738.9,75.2V60.9h32.4V75.2Z"/></clipPath>
<clipPath id="cj_23"><path d="M695.3,80.3V66h35.2V80.3Z"/></clipPath>
<clipPath id="ck_23"><path d="M601.2,121.1V101.8h20.1v19.3Z"/></clipPath>
<clipPath id="cl_23"><path d="M552.4,121.1v-3.4h.3V106.5h-.3v-4.7h14.7v19.3Z"/></clipPath>
<clipPath id="cm_23"><path d="M567.1,121.1V101.8h5.4v19.3Z"/></clipPath>
<clipPath id="cn_23"><path d="M552.4,117.7V106.5h.3v11.2Z"/></clipPath>
<clipPath id="co_23"><path d="M544.8,114.6c.7,0,1.4,-.7,1.4,-2.7c0,-1.9,-.7,-2.6,-1.5,-2.6c-1,0,-1.5,1,-1.5,2.6c0,1.7,.6,2.7,1.6,2.7Zm5.5,.2c1.2,0,1.9,-1.2,1.9,-2.8c0,-1.5,-.7,-2.7,-1.9,-2.7c-1.2,0,-1.9,1.2,-1.9,2.7c0,1.6,.7,2.8,1.9,2.8Zm-11.2,.4c-1.2,0,-1.5,-.8,-1.5,-1.9V109h.5v4.2c0,.7,.1,1.6,1.1,1.6c.9,0,1.7,-1,1.7,-2.1V109h.5v6.1h-.5v-.7c0,-.2,.1,-.4,.1,-.4c-.2,.5,-.8,1.2,-1.9,1.2Zm5.4,2.5c-.5,0,-1,-.2,-1.4,-.5l.2,-.5c.3,.3,.8,.5,1.2,.5c1,0,1.7,-.7,1.7,-2.1v-.7c0,-.3,0,-.5,0,-.5c-.3,.8,-.8,1.2,-1.5,1.2c-1.2,0,-2,-1.2,-2,-3.2c0,-1.9,.7,-3.1,1.9,-3.1c.8,0,1.4,.5,1.6,1.2c0,0,0,-.1,0,-.3V109h.5v6.1c0,1.8,-1.1,2.6,-2.2,2.6Zm5.8,-2.5c-1.5,0,-2.4,-1.4,-2.4,-3.2c0,-1.8,.9,-3.2,2.4,-3.2c1.4,0,2.4,1.4,2.4,3.2c0,1.8,-1,3.2,-2.4,3.2Zm-17,-.1v-8.6h.5v8.1h3v.5Z"/></clipPath>
<clipPath id="cp_23"><path d="M510.8,121.1V101.8h20.1v19.3Z"/></clipPath>
<clipPath id="cq_23"><path d="M436.4,121.1V101.8h20.1v19.3Z"/></clipPath>
<clipPath id="cr_23"><path d="M353.9,121.1V101.8H374v19.3Z"/></clipPath>
<clipPath id="cs_23"><path d="M309.9,121.1V101.8H330v19.3Z"/></clipPath>
<clipPath id="ct_23"><path d="M39,1247.2V0H870.5V1247.2Z"/></clipPath>
<style type="text/css"><![CDATA[
.g0_23{
fill: #9C1F5F;
}
.g1_23{
fill: #DCDDDE;
}
.g2_23{
fill: #8FD3D3;
}
.g3_23{
fill: #4D4D4F;
}
.g4_23{
fill: #5AC4C1;
}
.g5_23{
fill: #DEF1F0;
}
.g6_23{
fill: #58595B;
}
.g7_23{
fill: #FFF;
}
.g8_23{
fill: #949698;
}
]]></style>
</defs>
<path d="M879.6,1286.2h29.8V1029H879.6v257.2Z" class="g0_23"/>
<image clip-path="url(#c0_23)" preserveAspectRatio="none" x="880" y="1035" width="29" height="26" xlink:href="img/1.jpg"/>
<image clip-path="url(#c1_23)" preserveAspectRatio="none" x="882" y="1036" width="23" height="22" xlink:href="img/2.jpg"/>
<image clip-path="url(#c2_23)" preserveAspectRatio="none" x="513" y="2" width="55" height="146" xlink:href="img/3.jpg"/>
<image clip-path="url(#c3_23)" preserveAspectRatio="none" x="532" y="106" width="21" height="12" xlink:href="img/4.jpg"/>
<path d="M39,1247.2H308.1V147.2H39v1100Z" class="g1_23"/>
<image clip-path="url(#c4_23)" preserveAspectRatio="none" x="39" y="147" width="269" height="299" xlink:href="img/5.jpg"/>
<path d="M322.2,446.1H870.5V147.2H322.2V446.1Z" class="g2_23"/>
<image clip-path="url(#c5_23)" preserveAspectRatio="none" x="322" y="147" width="245" height="299" xlink:href="img/6.jpg"/>
<image clip-path="url(#c6_23)" preserveAspectRatio="none" x="226" y="425" width="82" height="18" xlink:href="img/7.jpg"/>
<image clip-path="url(#c7_23)" preserveAspectRatio="none" x="567" y="0" width="304" height="448" xlink:href="img/8.jpg"/>
<image clip-path="url(#c8_23)" preserveAspectRatio="none" x="567" y="1" width="304" height="147" xlink:href="img/9.jpg"/>
<image clip-path="url(#c9_23)" preserveAspectRatio="none" x="566" y="147" width="254" height="250" xlink:href="img/10.jpg"/>
<image clip-path="url(#ca_23)" preserveAspectRatio="none" x="820" y="147" width="51" height="300" xlink:href="img/11.jpg"/>
<image clip-path="url(#cb_23)" preserveAspectRatio="none" x="566" y="396" width="254" height="51" xlink:href="img/12.jpg"/>
<image clip-path="url(#cc_23)" preserveAspectRatio="none" x="580" y="425" width="289" height="21" xlink:href="img/13.jpg"/>
<path d="M39,79H69.1V48.9H39V79Z" class="g3_23"/>
<image clip-path="url(#cd_23)" preserveAspectRatio="none" x="667" y="102" width="146" height="15" xlink:href="img/14.jpg"/>
<image clip-path="url(#ce_23)" preserveAspectRatio="none" x="825" y="61" width="29" height="15" xlink:href="img/15.jpg"/>
<image clip-path="url(#cf_23)" preserveAspectRatio="none" x="821" y="28" width="45" height="16" xlink:href="img/16.jpg"/>
<image clip-path="url(#cg_23)" preserveAspectRatio="none" x="737" y="42" width="79" height="16" xlink:href="img/17.jpg"/>
<image clip-path="url(#ch_23)" preserveAspectRatio="none" x="775" y="79" width="69" height="19" xlink:href="img/18.jpg"/>
<image clip-path="url(#ci_23)" preserveAspectRatio="none" x="738" y="61" width="34" height="15" xlink:href="img/19.jpg"/>
<image clip-path="url(#cj_23)" preserveAspectRatio="none" x="695" y="65" width="36" height="16" xlink:href="img/20.jpg"/>
<path d="M858.8,56.8h1.5V55.3h-1.5v1.5Zm-3,0h1.5V55.3h-1.5v1.5Zm-3,0h1.5V55.3h-1.5v1.5Zm-3,0h1.5V55.3h-1.5v1.5Zm-3,0h1.5V55.3h-1.5v1.5Zm-3,0h1.5V55.3h-1.5v1.5Zm-3,0h1.5V55.3h-1.5v1.5Zm-3,0h1.5V55.3h-1.5v1.5Zm-3,0h1.5V55.3h-1.5v1.5Zm-3,0h1.5V55.3h-1.5v1.5Z" class="g2_23"/>
<path d="M831.5,54.6l-1.4,.6l.6,1.4l1.4,-.6Zm-2.8,1.2l-1.4,.6l.7,1.4l1.3,-.6ZM826,57.1l-1.4,.6l.6,1.4l1.4,-.6Zm-2.8,1.2l-1.4,.6l.7,1.4l1.3,-.6Zm-2.7,1.2l-1.4,.6l.6,1.4l1.4,-.6Zm-2.8,1.2l-1.4,.7l.7,1.4l1.3,-.7ZM815,62l-1.4,.6l.6,1.4l1.4,-.6Zm-2.8,1.2l-1.4,.6l.7,1.4l1.3,-.6Zm-2.7,1.2l-1.4,.7l.6,1.3l1.4,-.6Zm-2.8,1.3l-1.4,.6l.7,1.4l1.3,-.6Z" class="g2_23"/>
<path d="M809.4,63.6l-1.4,.5l.5,1.4l1.4,-.5Zm-2.8,1l-1.4,.5l.5,1.4l1.4,-.5Zm-2.8,1l-1.4,.5l.5,1.4l1.4,-.5Zm-2.8,1l-1.4,.5l.6,1.4l1.3,-.5Zm-2.8,1l-1.3,.5l.5,1.4l1.4,-.5Zm-2.7,1l-1.4,.5l.5,1.4L796,70Zm-2.8,1l-1.4,.5l.5,1.4l1.4,-.5Zm-2.8,1l-1.4,.5l.5,1.4l1.4,-.5Zm-2.8,1l-1.4,.5l.5,1.4l1.4,-.5Zm-2.8,1l-1.4,.5l.5,1.4l1.4,-.5Zm-2.8,1l-1.4,.5l.6,1.4L782,75Z" class="g2_23"/>
<path d="M779.9,74.1l-1.5,.5l.5,1.4l1.5,-.5Zm-3,1l-1.5,.5l.5,1.5l1.5,-.5Zm-3,1l-1.5,.5l.5,1.5l1.5,-.5Zm-3,1.1l-1.5,.5l.5,1.4l1.5,-.5Zm-3,1l-1.4,.5l.4,1.4l1.5,-.5Zm-2.9,1l-1.5,.5l.5,1.5l1.5,-.5Zm-3,1l-1.5,.6l.5,1.4l1.5,-.5Zm-3,1.1l-1.5,.5l.5,1.4l1.5,-.5Zm-3,1l-1.5,.5l.5,1.4l1.5,-.5Z" class="g2_23"/>
<path d="M754.7,82.8l-1.5,.1l.1,1.6l1.5,-.2Zm-3,.3l-1.5,.2l.2,1.5l1.5,-.2Zm-3,.3l-1.5,.2l.2,1.5l1.5,-.1Zm-3,.4l-1.5,.2l.2,1.5l1.5,-.2Zm-2.9,.3l-1.5,.2l.1,1.5l1.5,-.2Zm-3,.4l-1.5,.1l.2,1.6L740,86Zm-3,.3l-1.5,.2l.2,1.5l1.5,-.2Zm-3,.3l-1.5,.2l.2,1.5l1.5,-.1Zm-2.9,.4l-1.5,.2l.1,1.5L731,87Zm-3,.3l-1.5,.2l.2,1.5l1.4,-.2Zm-3,.4l-1.5,.1l.2,1.6l1.5,-.2Zm-3,.3l-1.5,.2l.2,1.5l1.5,-.2Zm-3,.3l-1.4,.2l.1,1.5l1.5,-.1Zm-2.9,.4l-1.5,.2l.2,1.5l1.4,-.2Z" class="g2_23"/>
<path d="M714.4,87.4l-1.5,.2l.3,1.5l1.4,-.2Zm-2.9,.5l-1.5,.2l.3,1.5l1.4,-.2Zm-2.9,.5l-1.5,.2l.3,1.5l1.4,-.2Zm-3,.5l-1.4,.2l.3,1.5l1.4,-.2Zm-2.9,.5l-1.4,.2l.3,1.5l1.4,-.2Zm-2.9,.5l-1.4,.2l.3,1.5l1.4,-.2Zm-2.9,.5l-1.4,.2l.3,1.5l1.4,-.2Zm-2.9,.5l-1.4,.2l.3,1.5l1.4,-.2Zm-2.9,.5l-1.4,.2l.3,1.5l1.4,-.2Z" class="g2_23"/>
<path d="M832.9,59.7c2.3,0,4.2,-1.9,4.2,-4.3c0,-2.3,-1.9,-4.3,-4.2,-4.3c-2.4,0,-4.3,2,-4.3,4.3c0,2.4,1.9,4.3,4.3,4.3Z" class="g4_23"/>
<path d="M689.8,99.6c3.4,0,6.1,-2.7,6.1,-6.1c0,-3.3,-2.7,-6.1,-6.1,-6.1c-3.3,0,-6.1,2.8,-6.1,6.1c0,3.4,2.8,6.1,6.1,6.1Z" class="g2_23"/>
<path d="M689.8,99.6v1.5c4.2,0,7.6,-3.4,7.6,-7.6c0,-4.2,-3.4,-7.6,-7.6,-7.6c-4.2,0,-7.5,3.4,-7.5,7.6c0,4.2,3.3,7.6,7.5,7.6v-3c-2.5,0,-4.6,-2,-4.6,-4.6c0,-2.5,2.1,-4.6,4.6,-4.6c2.6,0,4.6,2.1,4.6,4.6c0,2.6,-2,4.6,-4.6,4.6Z" class="g4_23"/>
<path d="M859.2,61.7c3.4,0,6.1,-2.7,6.1,-6c0,-3.4,-2.7,-6.1,-6.1,-6.1c-3.3,0,-6.1,2.7,-6.1,6.1c0,3.3,2.8,6,6.1,6Z" class="g2_23"/>
<path d="M859.2,61.7v1.5c4.2,0,7.6,-3.4,7.6,-7.5c0,-4.2,-3.4,-7.6,-7.6,-7.6c-4.1,0,-7.5,3.4,-7.5,7.6c0,4.1,3.4,7.5,7.5,7.5V60.3c-2.5,0,-4.6,-2.1,-4.6,-4.6c0,-2.6,2.1,-4.6,4.6,-4.7c2.6,.1,4.6,2.1,4.6,4.7c0,2.5,-2,4.6,-4.6,4.6Z" class="g4_23"/>
<path d="M781.5,79.2c2.4,0,4.3,-1.9,4.3,-4.3c0,-2.3,-1.9,-4.2,-4.3,-4.2c-2.3,0,-4.2,1.9,-4.2,4.2c0,2.4,1.9,4.3,4.2,4.3Z" class="g4_23"/>
<path d="M806.7,71.2c2.4,0,4.3,-1.9,4.3,-4.2c0,-2.4,-1.9,-4.3,-4.3,-4.3c-2.3,0,-4.2,1.9,-4.2,4.3c0,2.3,1.9,4.2,4.2,4.2Z" class="g4_23"/>
<path d="M754.8,91.9c3.3,0,6,-2.8,6,-6.1c0,-3.4,-2.7,-6.1,-6,-6.1c-3.4,0,-6.1,2.7,-6.1,6.1c0,3.3,2.7,6.1,6.1,6.1Z" class="g2_23"/>
<path d="M754.8,91.9v1.4c4.1,0,7.5,-3.3,7.5,-7.5c0,-4.2,-3.4,-7.6,-7.5,-7.6c-4.2,0,-7.6,3.4,-7.6,7.6c0,4.2,3.4,7.5,7.6,7.5V90.4c-2.6,0,-4.6,-2.1,-4.7,-4.6c.1,-2.6,2.1,-4.6,4.7,-4.6c2.5,0,4.5,2,4.6,4.6c-.1,2.5,-2.1,4.6,-4.6,4.6Z" class="g4_23"/>
<path d="M714.6,92.4c2.3,0,4.2,-1.9,4.2,-4.3c0,-2.3,-1.9,-4.3,-4.2,-4.3c-2.4,0,-4.3,2,-4.3,4.3c0,2.4,1.9,4.3,4.3,4.3Z" class="g4_23"/>
<path d="M294.6,127.9c2.1,0,3.8,-1.7,3.8,-3.7c0,-2.1,-1.7,-3.8,-3.8,-3.8c-2.1,0,-3.8,1.7,-3.8,3.8c0,2,1.7,3.7,3.8,3.7Z" class="g5_23"/>
<path d="M294.6,127.9v.6c2.4,0,4.3,-2,4.3,-4.3c0,-2.4,-1.9,-4.4,-4.3,-4.4c-2.4,0,-4.3,2,-4.3,4.4c0,2.3,1.9,4.3,4.3,4.3v-1.1c-1.8,0,-3.2,-1.5,-3.2,-3.2c0,-1.8,1.4,-3.3,3.2,-3.3c1.8,0,3.2,1.5,3.2,3.3c0,1.7,-1.4,3.2,-3.2,3.2Z" class="g4_23"/>
<path d="M301.2,125.2h35.7v-1.6H301.2Z" class="g4_23"/>
<path d="M343.9,127.9c2,0,3.7,-1.7,3.7,-3.7c0,-2.1,-1.7,-3.8,-3.7,-3.8c-2.1,0,-3.8,1.7,-3.8,3.8c0,2,1.7,3.7,3.8,3.7Z" class="g5_23"/>
<path d="M343.9,127.9v.6c2.3,0,4.3,-2,4.3,-4.3c0,-2.4,-2,-4.4,-4.3,-4.4c-2.4,0,-4.4,2,-4.4,4.4c0,2.3,2,4.3,4.4,4.3v-1.1c-1.8,0,-3.3,-1.5,-3.3,-3.2c0,-1.8,1.5,-3.3,3.3,-3.3c1.7,0,3.2,1.5,3.2,3.3c0,1.7,-1.5,3.2,-3.2,3.2Z" class="g4_23"/>
<path d="M351.2,125.2h46.4v-1.6H351.2Z" class="g4_23"/>
<path d="M404.6,127.9c2.1,0,3.8,-1.7,3.8,-3.7c0,-2.1,-1.7,-3.8,-3.8,-3.8c-2.1,0,-3.7,1.7,-3.7,3.8c0,2,1.6,3.7,3.7,3.7Z" class="g5_23"/>
<path d="M404.6,127.9v.6c2.4,0,4.4,-2,4.4,-4.3c0,-2.4,-2,-4.4,-4.4,-4.4c-2.4,0,-4.3,2,-4.3,4.4c0,2.3,1.9,4.3,4.3,4.3v-1.1c-1.7,0,-3.2,-1.5,-3.2,-3.2c0,-1.8,1.5,-3.3,3.2,-3.3c1.8,0,3.2,1.5,3.2,3.3c0,1.7,-1.4,3.2,-3.2,3.2Z" class="g4_23"/>
<path d="M411.4,125.2H477v-1.6H411.4Z" class="g4_23"/>
<path d="M542.7,127.9c2.1,0,3.8,-1.7,3.8,-3.7c0,-2.1,-1.7,-3.8,-3.8,-3.8c-2,0,-3.7,1.7,-3.7,3.8c0,2,1.7,3.7,3.7,3.7Z" class="g5_23"/>
<path d="M542.7,127.9v.6c2.4,0,4.4,-2,4.4,-4.3c0,-2.4,-2,-4.4,-4.4,-4.4c-2.3,0,-4.3,2,-4.3,4.4c0,2.3,2,4.3,4.3,4.3v-1.1c-1.7,0,-3.2,-1.5,-3.2,-3.2c0,-1.8,1.5,-3.3,3.2,-3.3c1.8,0,3.3,1.5,3.3,3.3c0,1.7,-1.5,3.2,-3.3,3.2Z" class="g4_23"/>
<path d="M550.2,125.2h29.9v-1.6H550.2Z" class="g4_23"/>
<path d="M586.7,127.9c2.1,0,3.8,-1.7,3.8,-3.7c0,-2.1,-1.7,-3.8,-3.8,-3.8c-2,0,-3.7,1.7,-3.7,3.8c0,2,1.7,3.7,3.7,3.7Z" class="g5_23"/>
<path d="M586.7,127.9v.6c2.4,0,4.4,-2,4.4,-4.3c0,-2.4,-2,-4.4,-4.4,-4.4c-2.4,0,-4.3,2,-4.3,4.4c0,2.3,1.9,4.3,4.3,4.3v-1.1c-1.7,0,-3.2,-1.5,-3.2,-3.2c0,-1.8,1.5,-3.3,3.2,-3.3c1.8,0,3.2,1.5,3.2,3.3c0,1.7,-1.4,3.2,-3.2,3.2Z" class="g4_23"/>
<image clip-path="url(#ck_23)" preserveAspectRatio="none" x="601" y="102" width="20" height="19" xlink:href="img/21.jpg"/>
<path d="M593.7,125.2h37.9v-1.6H593.7Z" class="g4_23"/>
<path d="M638.2,127.9c2.1,0,3.8,-1.7,3.8,-3.7c0,-2.1,-1.7,-3.8,-3.8,-3.8c-2.1,0,-3.8,1.7,-3.8,3.8c0,2,1.7,3.7,3.8,3.7Z" class="g5_23"/>
<path d="M638.2,127.9v.6c2.4,0,4.3,-2,4.3,-4.3c0,-2.4,-1.9,-4.4,-4.3,-4.4c-2.4,0,-4.3,2,-4.3,4.4c0,2.3,1.9,4.3,4.3,4.3v-1.1c-1.8,0,-3.2,-1.5,-3.2,-3.2c0,-1.8,1.4,-3.3,3.2,-3.3c1.8,0,3.2,1.5,3.2,3.3c0,1.7,-1.4,3.2,-3.2,3.2Z" class="g4_23"/>
<path d="M484,127.9c2.1,0,3.8,-1.7,3.8,-3.7c0,-2.1,-1.7,-3.8,-3.8,-3.8c-2,0,-3.7,1.7,-3.7,3.8c0,2,1.7,3.7,3.7,3.7Z" class="g5_23"/>
<path d="M484,127.9v.6c2.4,0,4.4,-2,4.4,-4.3c0,-2.4,-2,-4.4,-4.4,-4.4c-2.4,0,-4.3,2,-4.3,4.4c0,2.3,1.9,4.3,4.3,4.3v-1.1c-1.7,0,-3.2,-1.5,-3.2,-3.2c0,-1.8,1.5,-3.3,3.2,-3.3c1.8,0,3.2,1.5,3.2,3.3c0,1.7,-1.4,3.2,-3.2,3.2Z" class="g4_23"/>
<path d="M491.1,125.2h44.2v-1.6H491.1Z" class="g4_23"/>
<image clip-path="url(#cl_23)" preserveAspectRatio="none" x="552" y="102" width="15" height="19" xlink:href="img/22.jpg"/>
<image clip-path="url(#cm_23)" preserveAspectRatio="none" x="567" y="102" width="6" height="19" xlink:href="img/23.jpg"/>
<image clip-path="url(#cn_23)" preserveAspectRatio="none" x="552" y="107" width="1" height="11" xlink:href="img/24.jpg"/>
<image clip-path="url(#co_23)" preserveAspectRatio="none" x="552" y="107" width="1" height="11" xlink:href="img/25.jpg"/>
<image clip-path="url(#cp_23)" preserveAspectRatio="none" x="511" y="102" width="20" height="19" xlink:href="img/26.jpg"/>
<image clip-path="url(#cq_23)" preserveAspectRatio="none" x="436" y="102" width="21" height="19" xlink:href="img/27.jpg"/>
<image clip-path="url(#cr_23)" preserveAspectRatio="none" x="354" y="102" width="20" height="19" xlink:href="img/28.jpg"/>
<image clip-path="url(#cs_23)" preserveAspectRatio="none" x="310" y="102" width="20" height="19" xlink:href="img/29.jpg"/>
<path d="M42.8,662.8v0c.4,0,.7,-.4,.7,-.8c0,-.4,-.3,-.7,-.7,-.7c-.4,0,-.8,.3,-.8,.7c0,.4,.4,.8,.8,.8m3,0v0c.4,0,.8,-.4,.8,-.8c0,-.4,-.4,-.7,-.8,-.7c-.4,0,-.7,.3,-.7,.7c0,.4,.3,.8,.7,.8m3.1,0v0c.4,0,.7,-.4,.7,-.8c0,-.4,-.3,-.7,-.7,-.7c-.5,0,-.8,.3,-.8,.7c0,.4,.3,.8,.8,.8m3,0v0c.4,0,.8,-.4,.8,-.8c0,-.4,-.4,-.7,-.8,-.7c-.4,0,-.8,.3,-.8,.7c0,.4,.4,.8,.8,.8m3,0v0c.5,0,.8,-.4,.8,-.8c0,-.4,-.3,-.7,-.8,-.7c-.4,0,-.7,.3,-.7,.7c0,.4,.3,.8,.7,.8m3.1,0v0c.4,0,.8,-.4,.8,-.8c0,-.4,-.4,-.7,-.8,-.7c-.4,0,-.8,.3,-.8,.7c0,.4,.4,.8,.8,.8m3,0v0c.5,0,.8,-.4,.8,-.8c0,-.4,-.3,-.7,-.8,-.7c-.4,0,-.7,.3,-.7,.7c0,.4,.3,.8,.7,.8m3.1,0v0c.4,0,.7,-.4,.7,-.8c0,-.4,-.3,-.7,-.7,-.7c-.5,0,-.8,.3,-.8,.7c0,.4,.3,.8,.8,.8m3,0v0c.4,0,.8,-.4,.8,-.8c0,-.4,-.4,-.7,-.8,-.7c-.4,0,-.8,.3,-.8,.7c0,.4,.4,.8,.8,.8m3.1,0v0c.4,0,.7,-.4,.7,-.8c0,-.4,-.3,-.7,-.7,-.7c-.5,0,-.8,.3,-.8,.7c0,.4,.3,.8,.8,.8m3,0v0c.4,0,.8,-.4,.8,-.8c0,-.4,-.4,-.7,-.8,-.7c-.4,0,-.8,.3,-.8,.7c0,.4,.4,.8,.8,.8m3,0v0c.5,0,.8,-.4,.8,-.8c0,-.4,-.3,-.7,-.8,-.7c-.4,0,-.7,.3,-.7,.7c0,.4,.3,.8,.7,.8m3.1,0v0c.4,0,.7,-.4,.7,-.8c0,-.4,-.3,-.7,-.7,-.7c-.4,0,-.8,.3,-.8,.7c0,.4,.4,.8,.8,.8m3,0v0c.4,0,.8,-.4,.8,-.8c0,-.4,-.4,-.7,-.8,-.7c-.4,0,-.7,.3,-.7,.7c0,.4,.3,.8,.7,.8m3.1,0v0c.4,0,.7,-.4,.7,-.8c0,-.4,-.3,-.7,-.7,-.7c-.5,0,-.8,.3,-.8,.7c0,.4,.3,.8,.8,.8m3,0v0c.4,0,.8,-.4,.8,-.8c0,-.4,-.4,-.7,-.8,-.7c-.4,0,-.8,.3,-.8,.7c0,.4,.4,.8,.8,.8m3,0v0c.5,0,.8,-.4,.8,-.8c0,-.4,-.3,-.7,-.8,-.7c-.4,0,-.7,.3,-.7,.7c0,.4,.3,.8,.7,.8m3.1,0v0c.4,0,.7,-.4,.7,-.8c0,-.4,-.3,-.7,-.7,-.7c-.4,0,-.8,.3,-.8,.7c0,.4,.4,.8,.8,.8m3,0v0c.4,0,.8,-.4,.8,-.8c0,-.4,-.4,-.7,-.8,-.7c-.4,0,-.7,.3,-.7,.7c0,.4,.3,.8,.7,.8m3.1,0v0c.4,0,.7,-.4,.7,-.8c0,-.4,-.3,-.7,-.7,-.7c-.5,0,-.8,.3,-.8,.7c0,.4,.3,.8,.8,.8m3,0v0c.4,0,.8,-.4,.8,-.8c0,-.4,-.4,-.7,-.8,-.7c-.4,0,-.8,.3,-.8,.7c0,.4,.4,.8,.8,.8m3,0v0c.5,0,.8,-.4,.8,-.8c0,-.4,-.3,-.7,-.8,-.7c-.4,0,-.7,.3,-.7,.7c0,.4,.3,.8,.7,.8m3.1,0v0c.4,0,.8,-.4,.8,-.8c0,-.4,-.4,-.7,-.8,-.7c-.4,0,-.8,.3,-.8,.7c0,.4,.4,.8,.8,.8m3,0v0c.5,0,.8,-.4,.8,-.8c0,-.4,-.3,-.7,-.8,-.7c-.4,0,-.7,.3,-.7,.7c0,.4,.3,.8,.7,.8m3.1,0v0c.4,0,.7,-.4,.7,-.8c0,-.4,-.3,-.7,-.7,-.7c-.5,0,-.8,.3,-.8,.7c0,.4,.3,.8,.8,.8m3,0v0c.4,0,.8,-.4,.8,-.8c0,-.4,-.4,-.7,-.8,-.7c-.4,0,-.8,.3,-.8,.7c0,.4,.4,.8,.8,.8m3.1,0v0c.4,0,.7,-.4,.7,-.8c0,-.4,-.3,-.7,-.7,-.7c-.5,0,-.8,.3,-.8,.7c0,.4,.3,.8,.8,.8m3,0v0c.4,0,.8,-.4,.8,-.8c0,-.4,-.4,-.7,-.8,-.7c-.4,0,-.8,.3,-.8,.7c0,.4,.4,.8,.8,.8m3,0v0c.5,0,.8,-.4,.8,-.8c0,-.4,-.3,-.7,-.8,-.7c-.4,0,-.7,.3,-.7,.7c0,.4,.3,.8,.7,.8m3.1,0v0c.4,0,.7,-.4,.7,-.8c0,-.4,-.3,-.7,-.7,-.7c-.4,0,-.8,.3,-.8,.7c0,.4,.4,.8,.8,.8m3,0v0c.4,0,.8,-.4,.8,-.8c0,-.4,-.4,-.7,-.8,-.7c-.4,0,-.7,.3,-.7,.7c0,.4,.3,.8,.7,.8m3.1,0v0c.4,0,.7,-.4,.7,-.8c0,-.4,-.3,-.7,-.7,-.7c-.5,0,-.8,.3,-.8,.7c0,.4,.3,.8,.8,.8m3,0v0c.4,0,.8,-.4,.8,-.8c0,-.4,-.4,-.7,-.8,-.7c-.4,0,-.8,.3,-.8,.7c0,.4,.4,.8,.8,.8m3,0v0c.5,0,.8,-.4,.8,-.8c0,-.4,-.3,-.7,-.8,-.7c-.4,0,-.7,.3,-.7,.7c0,.4,.3,.8,.7,.8m3.1,0v0c.4,0,.7,-.4,.7,-.8c0,-.4,-.3,-.7,-.7,-.7c-.4,0,-.8,.3,-.8,.7c0,.4,.4,.8,.8,.8m3,0v0c.4,0,.8,-.4,.8,-.8c0,-.4,-.4,-.7,-.8,-.7c-.4,0,-.7,.3,-.7,.7c0,.4,.3,.8,.7,.8m3.1,0v0c.4,0,.7,-.4,.7,-.8c0,-.4,-.3,-.7,-.7,-.7c-.5,0,-.8,.3,-.8,.7c0,.4,.3,.8,.8,.8m3,0v0c.4,0,.8,-.4,.8,-.8c0,-.4,-.4,-.7,-.8,-.7c-.4,0,-.8,.3,-.8,.7c0,.4,.4,.8,.8,.8m3,0v0c.5,0,.8,-.4,.8,-.8c0,-.4,-.3,-.7,-.8,-.7c-.4,0,-.7,.3,-.7,.7c0,.4,.3,.8,.7,.8m3.1,0v0c.4,0,.8,-.4,.8,-.8c0,-.4,-.4,-.7,-.8,-.7c-.4,0,-.8,.3,-.8,.7c0,.4,.4,.8,.8,.8m3,0v0c.5,0,.8,-.4,.8,-.8c0,-.4,-.3,-.7,-.8,-.7c-.4,0,-.7,.3,-.7,.7c0,.4,.3,.8,.7,.8m3.1,0v0c.4,0,.7,-.4,.7,-.8c0,-.4,-.3,-.7,-.7,-.7c-.5,0,-.8,.3,-.8,.7c0,.4,.3,.8,.8,.8m3,0v0c.4,0,.8,-.4,.8,-.8c0,-.4,-.4,-.7,-.8,-.7c-.4,0,-.8,.3,-.8,.7c0,.4,.4,.8,.8,.8m3.1,0v0c.4,0,.7,-.4,.7,-.8c0,-.4,-.3,-.7,-.7,-.7c-.5,0,-.8,.3,-.8,.7c0,.4,.3,.8,.8,.8m3,0v0c.4,0,.8,-.4,.8,-.8c0,-.4,-.4,-.7,-.8,-.7c-.4,0,-.8,.3,-.8,.7c0,.4,.4,.8,.8,.8m3,0v0c.5,0,.8,-.4,.8,-.8c0,-.4,-.3,-.7,-.8,-.7c-.4,0,-.7,.3,-.7,.7c0,.4,.3,.8,.7,.8m3.1,0v0c.4,0,.7,-.4,.7,-.8c0,-.4,-.3,-.7,-.7,-.7c-.4,0,-.8,.3,-.8,.7c0,.4,.4,.8,.8,.8m3,0v0c.4,0,.8,-.4,.8,-.8c0,-.4,-.4,-.7,-.8,-.7c-.4,0,-.7,.3,-.7,.7c0,.4,.3,.8,.7,.8m3.1,0v0c.4,0,.7,-.4,.7,-.8c0,-.4,-.3,-.7,-.7,-.7c-.5,0,-.8,.3,-.8,.7c0,.4,.3,.8,.8,.8m3,0v0c.4,0,.8,-.4,.8,-.8c0,-.4,-.4,-.7,-.8,-.7c-.4,0,-.8,.3,-.8,.7c0,.4,.4,.8,.8,.8m3,0v0c.5,0,.8,-.4,.8,-.8c0,-.4,-.3,-.7,-.8,-.7c-.4,0,-.7,.3,-.7,.7c0,.4,.3,.8,.7,.8m3.1,0v0c.4,0,.7,-.4,.7,-.8c0,-.4,-.3,-.7,-.7,-.7c-.4,0,-.8,.3,-.8,.7c0,.4,.4,.8,.8,.8m3,0v0c.4,0,.8,-.4,.8,-.8c0,-.4,-.4,-.7,-.8,-.7c-.4,0,-.7,.3,-.7,.7c0,.4,.3,.8,.7,.8m3.1,0v0c.4,0,.7,-.4,.7,-.8c0,-.4,-.3,-.7,-.7,-.7c-.5,0,-.8,.3,-.8,.7c0,.4,.3,.8,.8,.8m3,0v0c.4,0,.8,-.4,.8,-.8c0,-.4,-.4,-.7,-.8,-.7c-.4,0,-.8,.3,-.8,.7c0,.4,.4,.8,.8,.8m3,0v0c.5,0,.8,-.4,.8,-.8c0,-.4,-.3,-.7,-.8,-.7c-.4,0,-.7,.3,-.7,.7c0,.4,.3,.8,.7,.8m3.1,0v0c.4,0,.8,-.4,.8,-.8c0,-.4,-.4,-.7,-.8,-.7c-.4,0,-.8,.3,-.8,.7c0,.4,.4,.8,.8,.8m3,0v0c.5,0,.8,-.4,.8,-.8c0,-.4,-.3,-.7,-.8,-.7c-.4,0,-.7,.3,-.7,.7c0,.4,.3,.8,.7,.8m3.1,0v0c.4,0,.7,-.4,.7,-.8c0,-.4,-.3,-.7,-.7,-.7c-.5,0,-.8,.3,-.8,.7c0,.4,.3,.8,.8,.8m3,0v0c.4,0,.8,-.4,.8,-.8c0,-.4,-.4,-.7,-.8,-.7c-.4,0,-.8,.3,-.8,.7c0,.4,.4,.8,.8,.8m3.1,0v0c.4,0,.7,-.4,.7,-.8c0,-.4,-.3,-.7,-.7,-.7c-.5,0,-.8,.3,-.8,.7c0,.4,.3,.8,.8,.8m3,0v0c.4,0,.8,-.4,.8,-.8c0,-.4,-.4,-.7,-.8,-.7c-.4,0,-.8,.3,-.8,.7c0,.4,.4,.8,.8,.8m3,0v0c.5,0,.8,-.4,.8,-.8c0,-.4,-.3,-.7,-.8,-.7c-.4,0,-.7,.3,-.7,.7c0,.4,.3,.8,.7,.8m3.1,0v0c.4,0,.7,-.4,.7,-.8c0,-.4,-.3,-.7,-.7,-.7c-.4,0,-.8,.3,-.8,.7c0,.4,.4,.8,.8,.8m3,0v0c.4,0,.8,-.4,.8,-.8c0,-.4,-.4,-.7,-.8,-.7c-.4,0,-.7,.3,-.7,.7c0,.4,.3,.8,.7,.8m3.1,0v0c.4,0,.7,-.4,.7,-.8c0,-.4,-.3,-.7,-.7,-.7c-.5,0,-.8,.3,-.8,.7c0,.4,.3,.8,.8,.8m3,0v0c.4,0,.8,-.4,.8,-.8c0,-.4,-.4,-.7,-.8,-.7c-.4,0,-.8,.3,-.8,.7c0,.4,.4,.8,.8,.8m3,0v0c.5,0,.8,-.4,.8,-.8c0,-.4,-.3,-.7,-.8,-.7c-.4,0,-.7,.3,-.7,.7c0,.4,.3,.8,.7,.8m3.1,0v0c.4,0,.7,-.4,.7,-.8c0,-.4,-.3,-.7,-.7,-.7c-.4,0,-.8,.3,-.8,.7c0,.4,.4,.8,.8,.8m3,0v0c.4,0,.8,-.4,.8,-.8c0,-.4,-.4,-.7,-.8,-.7c-.4,0,-.7,.3,-.7,.7c0,.4,.3,.8,.7,.8m3.1,0v0c.4,0,.7,-.4,.7,-.8c0,-.4,-.3,-.7,-.7,-.7c-.5,0,-.8,.3,-.8,.7c0,.4,.3,.8,.8,.8m3,0v0c.4,0,.8,-.4,.8,-.8c0,-.4,-.4,-.7,-.8,-.7c-.4,0,-.8,.3,-.8,.7c0,.4,.4,.8,.8,.8m3,0v0c.5,0,.8,-.4,.8,-.8c0,-.4,-.3,-.7,-.8,-.7c-.4,0,-.7,.3,-.7,.7c0,.4,.3,.8,.7,.8m3.1,0v0c.4,0,.8,-.4,.8,-.8c0,-.4,-.4,-.7,-.8,-.7c-.4,0,-.8,.3,-.8,.7c0,.4,.4,.8,.8,.8m3,0v0c.5,0,.8,-.4,.8,-.8c0,-.4,-.3,-.7,-.8,-.7c-.4,0,-.7,.3,-.7,.7c0,.4,.3,.8,.7,.8m3.1,0v0c.4,0,.7,-.4,.7,-.8c0,-.4,-.3,-.7,-.7,-.7c-.5,0,-.8,.3,-.8,.7c0,.4,.3,.8,.8,.8m3,0v0c.4,0,.8,-.4,.8,-.8c0,-.4,-.4,-.7,-.8,-.7c-.4,0,-.8,.3,-.8,.7c0,.4,.4,.8,.8,.8m3.1,0v0c.4,0,.7,-.4,.7,-.8c0,-.4,-.3,-.7,-.7,-.7c-.5,0,-.8,.3,-.8,.7c0,.4,.3,.8,.8,.8m3,0v0c.4,0,.8,-.4,.8,-.8c0,-.4,-.4,-.7,-.8,-.7c-.4,0,-.8,.3,-.8,.7c0,.4,.4,.8,.8,.8m3,0v0c.5,0,.8,-.4,.8,-.8c0,-.4,-.3,-.7,-.8,-.7c-.4,0,-.7,.3,-.7,.7c0,.4,.3,.8,.7,.8m3.1,0v0c.4,0,.7,-.4,.7,-.8c0,-.4,-.3,-.7,-.7,-.7c-.4,0,-.8,.3,-.8,.7c0,.4,.4,.8,.8,.8m3,0v0c.4,0,.8,-.4,.8,-.8c0,-.4,-.4,-.7,-.8,-.7c-.4,0,-.7,.3,-.7,.7c0,.4,.3,.8,.7,.8m3.1,0v0c.4,0,.7,-.4,.7,-.8c0,-.4,-.3,-.7,-.7,-.7c-.5,0,-.8,.3,-.8,.7c0,.4,.3,.8,.8,.8m3,0v0c.4,0,.8,-.4,.8,-.8c0,-.4,-.4,-.7,-.8,-.7c-.4,0,-.8,.3,-.8,.7c0,.4,.4,.8,.8,.8m3,0v0c.5,0,.8,-.4,.8,-.8c0,-.4,-.3,-.7,-.8,-.7c-.4,0,-.7,.3,-.7,.7c0,.4,.3,.8,.7,.8m3.1,0v0c.4,0,.7,-.4,.7,-.8c0,-.4,-.3,-.7,-.7,-.7c-.4,0,-.8,.3,-.8,.7c0,.4,.4,.8,.8,.8m3,0v0c.4,0,.8,-.4,.8,-.8c0,-.4,-.4,-.7,-.8,-.7c-.4,0,-.7,.3,-.7,.7c0,.4,.3,.8,.7,.8Z" class="g6_23"/>
<g clip-path="url(#ct_23)">
<path d="M39.7,662.8c.2,0,.4,-.1,.6,-.2c.1,-.2,.2,-.4,.2,-.6c0,-.2,-.1,-.4,-.2,-.5c-.2,-.2,-.4,-.2,-.6,-.2c-.2,0,-.4,0,-.5,.2c-.1,.1,-.2,.3,-.2,.5c0,.2,.1,.4,.2,.6c.1,.1,.3,.2,.5,.2m267.7,0c.2,0,.4,-.1,.5,-.2c.1,-.2,.2,-.4,.2,-.6c0,-.2,-.1,-.4,-.2,-.5c-.1,-.2,-.3,-.2,-.5,-.2c-.2,0,-.4,0,-.6,.2c-.1,.1,-.2,.3,-.2,.5c0,.2,.1,.4,.2,.6c.2,.1,.4,.2,.6,.2Z" class="g6_23"/>
<path d="M39,686.9H308.1v-1.6H39Z" class="g6_23"/>
<path d="M39,487.1H308.1v-2.3H39Z" class="g6_23"/>
</g>
<path d="M39,839.8H308.1v23.3H39V839.8Zm0,23.3H254.9V980.9H39V863.1Zm215.9,0h53.2V980.9H254.9V863.1Z" class="g4_23"/>
<path d="M40.9,784.8v0c.2,0,.4,-.2,.4,-.4c0,-.2,-.2,-.4,-.4,-.4c-.2,0,-.4,.2,-.4,.4c0,.2,.2,.4,.4,.4m1.5,0v0c.2,0,.4,-.2,.4,-.4c0,-.2,-.2,-.4,-.4,-.4c-.2,0,-.4,.2,-.4,.4c0,.2,.2,.4,.4,.4m1.5,0v0c.3,0,.4,-.2,.4,-.4c0,-.2,-.1,-.4,-.4,-.4c-.2,0,-.3,.2,-.3,.4c0,.2,.1,.4,.3,.4m1.6,0v0c.2,0,.4,-.2,.4,-.4c0,-.2,-.2,-.4,-.4,-.4c-.2,0,-.4,.2,-.4,.4c0,.2,.2,.4,.4,.4m1.5,0v0c.2,0,.4,-.2,.4,-.4c0,-.2,-.2,-.4,-.4,-.4c-.2,0,-.4,.2,-.4,.4c0,.2,.2,.4,.4,.4m1.5,0v0c.2,0,.4,-.2,.4,-.4c0,-.2,-.2,-.4,-.4,-.4c-.2,0,-.4,.2,-.4,.4c0,.2,.2,.4,.4,.4m1.6,0v0c.2,0,.3,-.2,.3,-.4c0,-.2,-.1,-.4,-.3,-.4c-.3,0,-.4,.2,-.4,.4c0,.2,.1,.4,.4,.4m1.5,0v0c.2,0,.4,-.2,.4,-.4c0,-.2,-.2,-.4,-.4,-.4c-.2,0,-.4,.2,-.4,.4c0,.2,.2,.4,.4,.4m1.5,0v0c.2,0,.4,-.2,.4,-.4c0,-.2,-.2,-.4,-.4,-.4c-.2,0,-.4,.2,-.4,.4c0,.2,.2,.4,.4,.4m1.5,0v0c.3,0,.4,-.2,.4,-.4c0,-.2,-.1,-.4,-.4,-.4c-.2,0,-.3,.2,-.3,.4c0,.2,.1,.4,.3,.4m1.6,0v0c.2,0,.4,-.2,.4,-.4c0,-.2,-.2,-.4,-.4,-.4c-.2,0,-.4,.2,-.4,.4c0,.2,.2,.4,.4,.4m1.5,0v0c.2,0,.4,-.2,.4,-.4c0,-.2,-.2,-.4,-.4,-.4c-.2,0,-.4,.2,-.4,.4c0,.2,.2,.4,.4,.4m1.5,0v0c.2,0,.4,-.2,.4,-.4c0,-.2,-.2,-.4,-.4,-.4c-.2,0,-.4,.2,-.4,.4c0,.2,.2,.4,.4,.4m1.6,0v0c.2,0,.3,-.2,.3,-.4c0,-.2,-.1,-.4,-.3,-.4c-.3,0,-.4,.2,-.4,.4c0,.2,.1,.4,.4,.4m1.5,0v0c.2,0,.4,-.2,.4,-.4c0,-.2,-.2,-.4,-.4,-.4c-.2,0,-.4,.2,-.4,.4c0,.2,.2,.4,.4,.4m1.5,0v0c.2,0,.4,-.2,.4,-.4c0,-.2,-.2,-.4,-.4,-.4c-.2,0,-.4,.2,-.4,.4c0,.2,.2,.4,.4,.4m1.5,0v0c.3,0,.4,-.2,.4,-.4c0,-.2,-.1,-.4,-.4,-.4c-.2,0,-.3,.2,-.3,.4c0,.2,.1,.4,.3,.4m1.6,0v0c.2,0,.4,-.2,.4,-.4c0,-.2,-.2,-.4,-.4,-.4c-.2,0,-.4,.2,-.4,.4c0,.2,.2,.4,.4,.4m1.5,0v0c.2,0,.4,-.2,.4,-.4c0,-.2,-.2,-.4,-.4,-.4c-.2,0,-.4,.2,-.4,.4c0,.2,.2,.4,.4,.4m1.5,0v0c.2,0,.4,-.2,.4,-.4c0,-.2,-.2,-.4,-.4,-.4c-.2,0,-.4,.2,-.4,.4c0,.2,.2,.4,.4,.4m1.6,0v0c.2,0,.3,-.2,.3,-.4c0,-.2,-.1,-.4,-.3,-.4c-.3,0,-.4,.2,-.4,.4c0,.2,.1,.4,.4,.4m1.5,0v0c.2,0,.4,-.2,.4,-.4c0,-.2,-.2,-.4,-.4,-.4c-.2,0,-.4,.2,-.4,.4c0,.2,.2,.4,.4,.4m1.5,0v0c.2,0,.4,-.2,.4,-.4c0,-.2,-.2,-.4,-.4,-.4c-.2,0,-.4,.2,-.4,.4c0,.2,.2,.4,.4,.4m1.5,0v0c.3,0,.4,-.2,.4,-.4c0,-.2,-.1,-.4,-.4,-.4c-.2,0,-.3,.2,-.3,.4c0,.2,.1,.4,.3,.4m1.6,0v0c.2,0,.4,-.2,.4,-.4c0,-.2,-.2,-.4,-.4,-.4c-.2,0,-.4,.2,-.4,.4c0,.2,.2,.4,.4,.4m1.5,0v0c.2,0,.4,-.2,.4,-.4c0,-.2,-.2,-.4,-.4,-.4c-.2,0,-.4,.2,-.4,.4c0,.2,.2,.4,.4,.4m1.5,0v0c.2,0,.4,-.2,.4,-.4c0,-.2,-.2,-.4,-.4,-.4c-.2,0,-.4,.2,-.4,.4c0,.2,.2,.4,.4,.4m1.6,0v0c.2,0,.3,-.2,.3,-.4c0,-.2,-.1,-.4,-.3,-.4c-.3,0,-.4,.2,-.4,.4c0,.2,.1,.4,.4,.4m1.5,0v0c.2,0,.4,-.2,.4,-.4c0,-.2,-.2,-.4,-.4,-.4c-.2,0,-.4,.2,-.4,.4c0,.2,.2,.4,.4,.4m1.5,0v0c.2,0,.4,-.2,.4,-.4c0,-.2,-.2,-.4,-.4,-.4c-.2,0,-.4,.2,-.4,.4c0,.2,.2,.4,.4,.4m1.5,0v0c.3,0,.4,-.2,.4,-.4c0,-.2,-.1,-.4,-.4,-.4c-.2,0,-.3,.2,-.3,.4c0,.2,.1,.4,.3,.4m1.6,0v0c.2,0,.4,-.2,.4,-.4c0,-.2,-.2,-.4,-.4,-.4c-.2,0,-.4,.2,-.4,.4c0,.2,.2,.4,.4,.4m1.5,0v0c.2,0,.4,-.2,.4,-.4c0,-.2,-.2,-.4,-.4,-.4c-.2,0,-.4,.2,-.4,.4c0,.2,.2,.4,.4,.4m1.5,0v0c.2,0,.4,-.2,.4,-.4c0,-.2,-.2,-.4,-.4,-.4c-.2,0,-.4,.2,-.4,.4c0,.2,.2,.4,.4,.4m1.6,0v0c.2,0,.3,-.2,.3,-.4c0,-.2,-.1,-.4,-.3,-.4c-.3,0,-.4,.2,-.4,.4c0,.2,.1,.4,.4,.4m1.5,0v0c.2,0,.4,-.2,.4,-.4c0,-.2,-.2,-.4,-.4,-.4c-.2,0,-.4,.2,-.4,.4c0,.2,.2,.4,.4,.4m1.5,0v0c.2,0,.4,-.2,.4,-.4c0,-.2,-.2,-.4,-.4,-.4c-.2,0,-.4,.2,-.4,.4c0,.2,.2,.4,.4,.4m1.5,0v0c.3,0,.4,-.2,.4,-.4c0,-.2,-.1,-.4,-.4,-.4c-.2,0,-.3,.2,-.3,.4c0,.2,.1,.4,.3,.4m1.6,0v0c.2,0,.4,-.2,.4,-.4c0,-.2,-.2,-.4,-.4,-.4c-.2,0,-.4,.2,-.4,.4c0,.2,.2,.4,.4,.4m1.5,0v0c.2,0,.4,-.2,.4,-.4c0,-.2,-.2,-.4,-.4,-.4c-.2,0,-.4,.2,-.4,.4c0,.2,.2,.4,.4,.4m1.5,0v0c.2,0,.4,-.2,.4,-.4c0,-.2,-.2,-.4,-.4,-.4c-.2,0,-.4,.2,-.4,.4c0,.2,.2,.4,.4,.4m1.6,0v0c.2,0,.3,-.2,.3,-.4c0,-.2,-.1,-.4,-.3,-.4c-.3,0,-.4,.2,-.4,.4c0,.2,.1,.4,.4,.4m1.5,0v0c.2,0,.4,-.2,.4,-.4c0,-.2,-.2,-.4,-.4,-.4c-.2,0,-.4,.2,-.4,.4c0,.2,.2,.4,.4,.4m1.5,0v0c.2,0,.4,-.2,.4,-.4c0,-.2,-.2,-.4,-.4,-.4c-.2,0,-.4,.2,-.4,.4c0,.2,.2,.4,.4,.4m1.5,0v0c.3,0,.4,-.2,.4,-.4c0,-.2,-.1,-.4,-.4,-.4c-.2,0,-.3,.2,-.3,.4c0,.2,.1,.4,.3,.4m1.6,0v0c.2,0,.4,-.2,.4,-.4c0,-.2,-.2,-.4,-.4,-.4c-.2,0,-.4,.2,-.4,.4c0,.2,.2,.4,.4,.4m1.5,0v0c.2,0,.4,-.2,.4,-.4c0,-.2,-.2,-.4,-.4,-.4c-.2,0,-.4,.2,-.4,.4c0,.2,.2,.4,.4,.4m1.5,0v0c.2,0,.4,-.2,.4,-.4c0,-.2,-.2,-.4,-.4,-.4c-.2,0,-.4,.2,-.4,.4c0,.2,.2,.4,.4,.4m1.6,0v0c.2,0,.3,-.2,.3,-.4c0,-.2,-.1,-.4,-.3,-.4c-.3,0,-.4,.2,-.4,.4c0,.2,.1,.4,.4,.4m1.5,0v0c.2,0,.4,-.2,.4,-.4c0,-.2,-.2,-.4,-.4,-.4c-.2,0,-.4,.2,-.4,.4c0,.2,.2,.4,.4,.4m1.5,0v0c.2,0,.4,-.2,.4,-.4c0,-.2,-.2,-.4,-.4,-.4c-.2,0,-.4,.2,-.4,.4c0,.2,.2,.4,.4,.4m1.5,0v0c.3,0,.4,-.2,.4,-.4c0,-.2,-.1,-.4,-.4,-.4c-.2,0,-.3,.2,-.3,.4c0,.2,.1,.4,.3,.4m1.6,0v0c.2,0,.4,-.2,.4,-.4c0,-.2,-.2,-.4,-.4,-.4c-.2,0,-.4,.2,-.4,.4c0,.2,.2,.4,.4,.4m1.5,0v0c.2,0,.4,-.2,.4,-.4c0,-.2,-.2,-.4,-.4,-.4c-.2,0,-.4,.2,-.4,.4c0,.2,.2,.4,.4,.4m1.5,0v0c.2,0,.4,-.2,.4,-.4c0,-.2,-.2,-.4,-.4,-.4c-.2,0,-.4,.2,-.4,.4c0,.2,.2,.4,.4,.4m1.6,0v0c.2,0,.3,-.2,.3,-.4c0,-.2,-.1,-.4,-.3,-.4c-.3,0,-.4,.2,-.4,.4c0,.2,.1,.4,.4,.4m1.5,0v0c.2,0,.4,-.2,.4,-.4c0,-.2,-.2,-.4,-.4,-.4c-.2,0,-.4,.2,-.4,.4c0,.2,.2,.4,.4,.4m1.5,0v0c.2,0,.4,-.2,.4,-.4c0,-.2,-.2,-.4,-.4,-.4c-.2,0,-.4,.2,-.4,.4c0,.2,.2,.4,.4,.4m1.5,0v0c.3,0,.4,-.2,.4,-.4c0,-.2,-.1,-.4,-.4,-.4c-.2,0,-.3,.2,-.3,.4c0,.2,.1,.4,.3,.4m1.6,0v0c.2,0,.4,-.2,.4,-.4c0,-.2,-.2,-.4,-.4,-.4c-.2,0,-.4,.2,-.4,.4c0,.2,.2,.4,.4,.4m1.5,0v0c.2,0,.4,-.2,.4,-.4c0,-.2,-.2,-.4,-.4,-.4c-.2,0,-.4,.2,-.4,.4c0,.2,.2,.4,.4,.4m1.5,0v0c.2,0,.4,-.2,.4,-.4c0,-.2,-.2,-.4,-.4,-.4c-.2,0,-.4,.2,-.4,.4c0,.2,.2,.4,.4,.4m1.6,0v0c.2,0,.3,-.2,.3,-.4c0,-.2,-.1,-.4,-.3,-.4c-.3,0,-.4,.2,-.4,.4c0,.2,.1,.4,.4,.4m1.5,0v0c.2,0,.4,-.2,.4,-.4c0,-.2,-.2,-.4,-.4,-.4c-.2,0,-.4,.2,-.4,.4c0,.2,.2,.4,.4,.4m1.5,0v0c.2,0,.4,-.2,.4,-.4c0,-.2,-.2,-.4,-.4,-.4c-.2,0,-.4,.2,-.4,.4c0,.2,.2,.4,.4,.4m1.5,0v0c.3,0,.4,-.2,.4,-.4c0,-.2,-.1,-.4,-.4,-.4c-.2,0,-.3,.2,-.3,.4c0,.2,.1,.4,.3,.4m1.6,0v0c.2,0,.4,-.2,.4,-.4c0,-.2,-.2,-.4,-.4,-.4c-.2,0,-.4,.2,-.4,.4c0,.2,.2,.4,.4,.4m1.5,0v0c.2,0,.4,-.2,.4,-.4c0,-.2,-.2,-.4,-.4,-.4c-.2,0,-.4,.2,-.4,.4c0,.2,.2,.4,.4,.4m1.5,0v0c.2,0,.4,-.2,.4,-.4c0,-.2,-.2,-.4,-.4,-.4c-.2,0,-.3,.2,-.3,.4c0,.2,.1,.4,.3,.4m1.6,0v0c.2,0,.3,-.2,.3,-.4c0,-.2,-.1,-.4,-.3,-.4c-.3,0,-.4,.2,-.4,.4c0,.2,.1,.4,.4,.4m1.5,0v0c.2,0,.4,-.2,.4,-.4c0,-.2,-.2,-.4,-.4,-.4c-.2,0,-.4,.2,-.4,.4c0,.2,.2,.4,.4,.4m1.5,0v0c.2,0,.4,-.2,.4,-.4c0,-.2,-.2,-.4,-.4,-.4c-.2,0,-.4,.2,-.4,.4c0,.2,.2,.4,.4,.4m1.5,0v0c.3,0,.4,-.2,.4,-.4c0,-.2,-.1,-.4,-.4,-.4c-.2,0,-.3,.2,-.3,.4c0,.2,.1,.4,.3,.4m1.6,0v0c.2,0,.4,-.2,.4,-.4c0,-.2,-.2,-.4,-.4,-.4c-.2,0,-.4,.2,-.4,.4c0,.2,.2,.4,.4,.4m1.5,0v0c.2,0,.4,-.2,.4,-.4c0,-.2,-.2,-.4,-.4,-.4c-.2,0,-.4,.2,-.4,.4c0,.2,.2,.4,.4,.4m1.5,0v0c.2,0,.4,-.2,.4,-.4c0,-.2,-.2,-.4,-.4,-.4c-.2,0,-.4,.2,-.4,.4c0,.2,.2,.4,.4,.4m1.6,0v0c.2,0,.3,-.2,.3,-.4c0,-.2,-.1,-.4,-.3,-.4c-.3,0,-.4,.2,-.4,.4c0,.2,.1,.4,.4,.4m1.5,0v0c.2,0,.4,-.2,.4,-.4c0,-.2,-.2,-.4,-.4,-.4c-.2,0,-.4,.2,-.4,.4c0,.2,.2,.4,.4,.4m1.5,0v0c.2,0,.4,-.2,.4,-.4c0,-.2,-.2,-.4,-.4,-.4c-.2,0,-.4,.2,-.4,.4c0,.2,.2,.4,.4,.4m1.5,0v0c.3,0,.4,-.2,.4,-.4c0,-.2,-.1,-.4,-.4,-.4c-.2,0,-.3,.2,-.3,.4c0,.2,.1,.4,.3,.4m1.6,0v0c.2,0,.4,-.2,.4,-.4c0,-.2,-.2,-.4,-.4,-.4c-.2,0,-.4,.2,-.4,.4c0,.2,.2,.4,.4,.4m1.5,0v0c.2,0,.4,-.2,.4,-.4c0,-.2,-.2,-.4,-.4,-.4c-.2,0,-.4,.2,-.4,.4c0,.2,.2,.4,.4,.4m1.5,0v0c.2,0,.4,-.2,.4,-.4c0,-.2,-.2,-.4,-.4,-.4c-.2,0,-.4,.2,-.4,.4c0,.2,.2,.4,.4,.4m1.6,0v0c.2,0,.3,-.2,.3,-.4c0,-.2,-.1,-.4,-.3,-.4c-.3,0,-.4,.2,-.4,.4c0,.2,.1,.4,.4,.4m1.5,0v0c.2,0,.4,-.2,.4,-.4c0,-.2,-.2,-.4,-.4,-.4c-.2,0,-.4,.2,-.4,.4c0,.2,.2,.4,.4,.4m1.5,0v0c.2,0,.4,-.2,.4,-.4c0,-.2,-.2,-.4,-.4,-.4c-.2,0,-.4,.2,-.4,.4c0,.2,.2,.4,.4,.4m1.5,0v0c.3,0,.4,-.2,.4,-.4c0,-.2,-.1,-.4,-.4,-.4c-.2,0,-.3,.2,-.3,.4c0,.2,.1,.4,.3,.4m1.6,0v0c.2,0,.4,-.2,.4,-.4c0,-.2,-.2,-.4,-.4,-.4c-.2,0,-.4,.2,-.4,.4c0,.2,.2,.4,.4,.4m1.5,0v0c.2,0,.4,-.2,.4,-.4c0,-.2,-.2,-.4,-.4,-.4c-.2,0,-.4,.2,-.4,.4c0,.2,.2,.4,.4,.4m1.5,0v0c.2,0,.4,-.2,.4,-.4c0,-.2,-.2,-.4,-.4,-.4c-.2,0,-.3,.2,-.3,.4c0,.2,.1,.4,.3,.4m1.6,0v0c.2,0,.3,-.2,.3,-.4c0,-.2,-.1,-.4,-.3,-.4c-.3,0,-.4,.2,-.4,.4c0,.2,.1,.4,.4,.4m1.5,0v0c.2,0,.4,-.2,.4,-.4c0,-.2,-.2,-.4,-.4,-.4c-.2,0,-.4,.2,-.4,.4c0,.2,.2,.4,.4,.4m1.5,0v0c.2,0,.4,-.2,.4,-.4c0,-.2,-.2,-.4,-.4,-.4c-.2,0,-.4,.2,-.4,.4c0,.2,.2,.4,.4,.4m1.5,0v0c.3,0,.4,-.2,.4,-.4c0,-.2,-.1,-.4,-.4,-.4c-.2,0,-.3,.2,-.3,.4c0,.2,.1,.4,.3,.4m1.6,0v0c.2,0,.4,-.2,.4,-.4c0,-.2,-.2,-.4,-.4,-.4c-.2,0,-.4,.2,-.4,.4c0,.2,.2,.4,.4,.4m1.5,0v0c.2,0,.4,-.2,.4,-.4c0,-.2,-.2,-.4,-.4,-.4c-.2,0,-.4,.2,-.4,.4c0,.2,.2,.4,.4,.4m1.5,0v0c.2,0,.4,-.2,.4,-.4c0,-.2,-.2,-.4,-.4,-.4c-.2,0,-.4,.2,-.4,.4c0,.2,.2,.4,.4,.4m1.6,0v0c.2,0,.3,-.2,.3,-.4c0,-.2,-.1,-.4,-.3,-.4c-.3,0,-.4,.2,-.4,.4c0,.2,.1,.4,.4,.4m1.5,0v0c.2,0,.4,-.2,.4,-.4c0,-.2,-.2,-.4,-.4,-.4c-.2,0,-.4,.2,-.4,.4c0,.2,.2,.4,.4,.4m1.5,0v0c.2,0,.4,-.2,.4,-.4c0,-.2,-.2,-.4,-.4,-.4c-.2,0,-.4,.2,-.4,.4c0,.2,.2,.4,.4,.4m1.5,0v0c.3,0,.4,-.2,.4,-.4c0,-.2,-.1,-.4,-.4,-.4c-.2,0,-.3,.2,-.3,.4c0,.2,.1,.4,.3,.4m1.6,0v0c.2,0,.4,-.2,.4,-.4c0,-.2,-.2,-.4,-.4,-.4c-.2,0,-.4,.2,-.4,.4c0,.2,.2,.4,.4,.4m1.5,0v0c.2,0,.4,-.2,.4,-.4c0,-.2,-.2,-.4,-.4,-.4c-.2,0,-.4,.2,-.4,.4c0,.2,.2,.4,.4,.4m1.5,0v0c.2,0,.4,-.2,.4,-.4c0,-.2,-.2,-.4,-.4,-.4c-.2,0,-.3,.2,-.3,.4c0,.2,.1,.4,.3,.4m1.6,0v0c.2,0,.3,-.2,.3,-.4c0,-.2,-.1,-.4,-.3,-.4c-.2,0,-.4,.2,-.4,.4c0,.2,.2,.4,.4,.4m1.5,0v0c.2,0,.4,-.2,.4,-.4c0,-.2,-.2,-.4,-.4,-.4c-.2,0,-.4,.2,-.4,.4c0,.2,.2,.4,.4,.4m1.5,0v0c.2,0,.4,-.2,.4,-.4c0,-.2,-.2,-.4,-.4,-.4c-.2,0,-.4,.2,-.4,.4c0,.2,.2,.4,.4,.4m1.5,0v0c.3,0,.4,-.2,.4,-.4c0,-.2,-.1,-.4,-.4,-.4c-.2,0,-.3,.2,-.3,.4c0,.2,.1,.4,.3,.4m1.6,0v0c.2,0,.4,-.2,.4,-.4c0,-.2,-.2,-.4,-.4,-.4c-.2,0,-.4,.2,-.4,.4c0,.2,.2,.4,.4,.4m1.5,0v0c.2,0,.4,-.2,.4,-.4c0,-.2,-.2,-.4,-.4,-.4c-.2,0,-.4,.2,-.4,.4c0,.2,.2,.4,.4,.4m1.5,0v0c.2,0,.4,-.2,.4,-.4c0,-.2,-.2,-.4,-.4,-.4c-.2,0,-.3,.2,-.3,.4c0,.2,.1,.4,.3,.4m1.6,0v0c.2,0,.3,-.2,.3,-.4c0,-.2,-.1,-.4,-.3,-.4c-.3,0,-.4,.2,-.4,.4c0,.2,.1,.4,.4,.4m1.5,0v0c.2,0,.4,-.2,.4,-.4c0,-.2,-.2,-.4,-.4,-.4c-.2,0,-.4,.2,-.4,.4c0,.2,.2,.4,.4,.4m1.5,0v0c.2,0,.4,-.2,.4,-.4c0,-.2,-.2,-.4,-.4,-.4c-.2,0,-.4,.2,-.4,.4c0,.2,.2,.4,.4,.4m1.5,0v0c.3,0,.4,-.2,.4,-.4c0,-.2,-.1,-.4,-.4,-.4c-.2,0,-.3,.2,-.3,.4c0,.2,.1,.4,.3,.4m1.6,0v0c.2,0,.4,-.2,.4,-.4c0,-.2,-.2,-.4,-.4,-.4c-.2,0,-.4,.2,-.4,.4c0,.2,.2,.4,.4,.4m1.5,0v0c.2,0,.4,-.2,.4,-.4c0,-.2,-.2,-.4,-.4,-.4c-.2,0,-.4,.2,-.4,.4c0,.2,.2,.4,.4,.4m1.5,0v0c.2,0,.4,-.2,.4,-.4c0,-.2,-.2,-.4,-.4,-.4c-.2,0,-.3,.2,-.3,.4c0,.2,.1,.4,.3,.4m1.6,0v0c.2,0,.3,-.2,.3,-.4c0,-.2,-.1,-.4,-.3,-.4c-.2,0,-.4,.2,-.4,.4c0,.2,.2,.4,.4,.4m1.5,0v0c.2,0,.4,-.2,.4,-.4c0,-.2,-.2,-.4,-.4,-.4c-.2,0,-.4,.2,-.4,.4c0,.2,.2,.4,.4,.4m1.5,0v0c.2,0,.4,-.2,.4,-.4c0,-.2,-.2,-.4,-.4,-.4c-.2,0,-.4,.2,-.4,.4c0,.2,.2,.4,.4,.4m1.5,0v0c.3,0,.4,-.2,.4,-.4c0,-.2,-.1,-.4,-.4,-.4c-.2,0,-.3,.2,-.3,.4c0,.2,.1,.4,.3,.4m1.6,0v0c.2,0,.4,-.2,.4,-.4c0,-.2,-.2,-.4,-.4,-.4c-.2,0,-.4,.2,-.4,.4c0,.2,.2,.4,.4,.4m1.5,0v0c.2,0,.4,-.2,.4,-.4c0,-.2,-.2,-.4,-.4,-.4c-.2,0,-.4,.2,-.4,.4c0,.2,.2,.4,.4,.4m1.5,0v0c.2,0,.4,-.2,.4,-.4c0,-.2,-.2,-.4,-.4,-.4c-.2,0,-.3,.2,-.3,.4c0,.2,.1,.4,.3,.4m1.6,0v0c.2,0,.3,-.2,.3,-.4c0,-.2,-.1,-.4,-.3,-.4c-.2,0,-.4,.2,-.4,.4c0,.2,.2,.4,.4,.4m1.5,0v0c.2,0,.4,-.2,.4,-.4c0,-.2,-.2,-.4,-.4,-.4c-.2,0,-.4,.2,-.4,.4c0,.2,.2,.4,.4,.4m1.5,0v0c.2,0,.4,-.2,.4,-.4c0,-.2,-.2,-.4,-.4,-.4c-.2,0,-.4,.2,-.4,.4c0,.2,.2,.4,.4,.4m1.5,0v0c.3,0,.4,-.2,.4,-.4c0,-.2,-.1,-.4,-.4,-.4c-.2,0,-.3,.2,-.3,.4c0,.2,.1,.4,.3,.4m1.6,0v0c.2,0,.4,-.2,.4,-.4c0,-.2,-.2,-.4,-.4,-.4c-.2,0,-.4,.2,-.4,.4c0,.2,.2,.4,.4,.4m1.5,0v0c.2,0,.4,-.2,.4,-.4c0,-.2,-.2,-.4,-.4,-.4c-.2,0,-.4,.2,-.4,.4c0,.2,.2,.4,.4,.4m1.5,0v0c.2,0,.4,-.2,.4,-.4c0,-.2,-.2,-.4,-.4,-.4c-.2,0,-.3,.2,-.3,.4c0,.2,.1,.4,.3,.4m1.6,0v0c.2,0,.3,-.2,.3,-.4c0,-.2,-.1,-.4,-.3,-.4c-.2,0,-.4,.2,-.4,.4c0,.2,.2,.4,.4,.4m1.5,0v0c.2,0,.4,-.2,.4,-.4c0,-.2,-.2,-.4,-.4,-.4c-.2,0,-.4,.2,-.4,.4c0,.2,.2,.4,.4,.4m1.5,0v0c.2,0,.4,-.2,.4,-.4c0,-.2,-.2,-.4,-.4,-.4c-.2,0,-.4,.2,-.4,.4c0,.2,.2,.4,.4,.4m1.5,0v0c.3,0,.4,-.2,.4,-.4c0,-.2,-.1,-.4,-.4,-.4c-.2,0,-.3,.2,-.3,.4c0,.2,.1,.4,.3,.4m1.6,0v0c.2,0,.4,-.2,.4,-.4c0,-.2,-.2,-.4,-.4,-.4c-.2,0,-.4,.2,-.4,.4c0,.2,.2,.4,.4,.4m1.5,0v0c.2,0,.4,-.2,.4,-.4c0,-.2,-.2,-.4,-.4,-.4c-.2,0,-.4,.2,-.4,.4c0,.2,.2,.4,.4,.4m1.5,0v0c.2,0,.4,-.2,.4,-.4c0,-.2,-.2,-.4,-.4,-.4c-.2,0,-.3,.2,-.3,.4c0,.2,.1,.4,.3,.4m1.6,0v0c.2,0,.3,-.2,.3,-.4c0,-.2,-.1,-.4,-.3,-.4c-.2,0,-.4,.2,-.4,.4c0,.2,.2,.4,.4,.4Z" class="g6_23"/>
<path clip-path="url(#ct_23)" d="M39.4,784.8l.2,-.1l.1,-.3l-.1,-.3l-.2,-.1l-.3,.1l-.1,.3l.1,.3Zm215.5,0l.3,-.1l.1,-.3l-.1,-.3l-.3,-.1l-.3,.1l-.1,.3l.1,.3Z" class="g6_23"/>
<path d="M256.4,784.8v0c.2,0,.4,-.2,.4,-.4c0,-.2,-.2,-.4,-.4,-.4c-.2,0,-.4,.2,-.4,.4c0,.2,.2,.4,.4,.4m1.5,0v0c.2,0,.4,-.2,.4,-.4c0,-.2,-.2,-.4,-.4,-.4c-.2,0,-.4,.2,-.4,.4c0,.2,.2,.4,.4,.4m1.5,0v0c.2,0,.4,-.2,.4,-.4c0,-.2,-.2,-.4,-.4,-.4c-.2,0,-.4,.2,-.4,.4c0,.2,.2,.4,.4,.4m1.5,0v0c.2,0,.4,-.2,.4,-.4c0,-.2,-.2,-.4,-.4,-.4c-.2,0,-.4,.2,-.4,.4c0,.2,.2,.4,.4,.4m1.5,0v0c.3,0,.4,-.2,.4,-.4c0,-.2,-.1,-.4,-.4,-.4c-.2,0,-.3,.2,-.3,.4c0,.2,.1,.4,.3,.4m1.6,0v0c.2,0,.3,-.2,.3,-.4c0,-.2,-.1,-.4,-.3,-.4c-.3,0,-.4,.2,-.4,.4c0,.2,.1,.4,.4,.4m1.5,0v0c.2,0,.3,-.2,.3,-.4c0,-.2,-.1,-.4,-.3,-.4c-.2,0,-.4,.2,-.4,.4c0,.2,.2,.4,.4,.4m1.5,0v0c.2,0,.4,-.2,.4,-.4c0,-.2,-.2,-.4,-.4,-.4c-.2,0,-.4,.2,-.4,.4c0,.2,.2,.4,.4,.4m1.5,0v0c.2,0,.4,-.2,.4,-.4c0,-.2,-.2,-.4,-.4,-.4c-.2,0,-.4,.2,-.4,.4c0,.2,.2,.4,.4,.4m1.5,0v0c.2,0,.4,-.2,.4,-.4c0,-.2,-.2,-.4,-.4,-.4c-.2,0,-.4,.2,-.4,.4c0,.2,.2,.4,.4,.4m1.5,0v0c.2,0,.4,-.2,.4,-.4c0,-.2,-.2,-.4,-.4,-.4c-.2,0,-.4,.2,-.4,.4c0,.2,.2,.4,.4,.4m1.5,0v0c.2,0,.4,-.2,.4,-.4c0,-.2,-.2,-.4,-.4,-.4c-.2,0,-.4,.2,-.4,.4c0,.2,.2,.4,.4,.4m1.5,0v0c.2,0,.4,-.2,.4,-.4c0,-.2,-.2,-.4,-.4,-.4c-.2,0,-.4,.2,-.4,.4c0,.2,.2,.4,.4,.4m1.5,0v0c.2,0,.4,-.2,.4,-.4c0,-.2,-.2,-.4,-.4,-.4c-.2,0,-.3,.2,-.3,.4c0,.2,.1,.4,.3,.4m1.5,0v0c.3,0,.4,-.2,.4,-.4c0,-.2,-.1,-.4,-.4,-.4c-.2,0,-.3,.2,-.3,.4c0,.2,.1,.4,.3,.4m1.6,0v0c.2,0,.3,-.2,.3,-.4c0,-.2,-.1,-.4,-.3,-.4c-.3,0,-.4,.2,-.4,.4c0,.2,.1,.4,.4,.4m1.5,0v0c.2,0,.3,-.2,.3,-.4c0,-.2,-.1,-.4,-.3,-.4c-.2,0,-.4,.2,-.4,.4c0,.2,.2,.4,.4,.4m1.5,0v0c.2,0,.4,-.2,.4,-.4c0,-.2,-.2,-.4,-.4,-.4c-.2,0,-.4,.2,-.4,.4c0,.2,.2,.4,.4,.4m1.5,0v0c.2,0,.4,-.2,.4,-.4c0,-.2,-.2,-.4,-.4,-.4c-.2,0,-.4,.2,-.4,.4c0,.2,.2,.4,.4,.4m1.5,0v0c.2,0,.4,-.2,.4,-.4c0,-.2,-.2,-.4,-.4,-.4c-.2,0,-.4,.2,-.4,.4c0,.2,.2,.4,.4,.4m1.5,0v0c.2,0,.4,-.2,.4,-.4c0,-.2,-.2,-.4,-.4,-.4c-.2,0,-.4,.2,-.4,.4c0,.2,.2,.4,.4,.4m1.5,0v0c.2,0,.4,-.2,.4,-.4c0,-.2,-.2,-.4,-.4,-.4c-.2,0,-.4,.2,-.4,.4c0,.2,.2,.4,.4,.4m1.5,0v0c.2,0,.4,-.2,.4,-.4c0,-.2,-.2,-.4,-.4,-.4c-.2,0,-.4,.2,-.4,.4c0,.2,.2,.4,.4,.4m1.5,0v0c.2,0,.4,-.2,.4,-.4c0,-.2,-.2,-.4,-.4,-.4c-.2,0,-.3,.2,-.3,.4c0,.2,.1,.4,.3,.4m1.5,0v0c.3,0,.4,-.2,.4,-.4c0,-.2,-.1,-.4,-.4,-.4c-.2,0,-.3,.2,-.3,.4c0,.2,.1,.4,.3,.4m1.6,0v0c.2,0,.3,-.2,.3,-.4c0,-.2,-.1,-.4,-.3,-.4c-.3,0,-.4,.2,-.4,.4c0,.2,.1,.4,.4,.4m1.5,0v0c.2,0,.3,-.2,.3,-.4c0,-.2,-.1,-.4,-.3,-.4c-.2,0,-.4,.2,-.4,.4c0,.2,.2,.4,.4,.4m1.5,0v0c.2,0,.4,-.2,.4,-.4c0,-.2,-.2,-.4,-.4,-.4c-.2,0,-.4,.2,-.4,.4c0,.2,.2,.4,.4,.4m1.5,0v0c.2,0,.4,-.2,.4,-.4c0,-.2,-.2,-.4,-.4,-.4c-.2,0,-.4,.2,-.4,.4c0,.2,.2,.4,.4,.4m1.5,0v0c.2,0,.4,-.2,.4,-.4c0,-.2,-.2,-.4,-.4,-.4c-.2,0,-.4,.2,-.4,.4c0,.2,.2,.4,.4,.4m1.5,0v0c.2,0,.4,-.2,.4,-.4c0,-.2,-.2,-.4,-.4,-.4c-.2,0,-.4,.2,-.4,.4c0,.2,.2,.4,.4,.4m1.5,0v0c.2,0,.4,-.2,.4,-.4c0,-.2,-.2,-.4,-.4,-.4c-.2,0,-.4,.2,-.4,.4c0,.2,.2,.4,.4,.4m1.5,0v0c.2,0,.4,-.2,.4,-.4c0,-.2,-.2,-.4,-.4,-.4c-.2,0,-.4,.2,-.4,.4c0,.2,.2,.4,.4,.4m1.5,0v0c.2,0,.4,-.2,.4,-.4c0,-.2,-.2,-.4,-.4,-.4c-.2,0,-.3,.2,-.3,.4c0,.2,.1,.4,.3,.4Z" class="g6_23"/>
<path d="M254.9,784.8l.3,-.1l.1,-.3l-.1,-.3l-.3,-.1l-.3,.1l-.1,.3l.1,.3Zm52.8,0l.3,-.1l.1,-.3l-.1,-.3l-.3,-.1l-.2,.1l-.1,.3l.1,.3Z" class="g6_23"/>
<path clip-path="url(#ct_23)" d="M39,750.5H254.9v-2.3H39Z" class="g6_23"/>
<path d="M254.9,750.5h53.2v-2.3H254.9Z" class="g6_23"/>
<path d="M40.9,819.9v0c.2,0,.4,-.2,.4,-.4c0,-.2,-.2,-.4,-.4,-.4c-.2,0,-.4,.2,-.4,.4c0,.2,.2,.4,.4,.4m1.5,0v0c.2,0,.4,-.2,.4,-.4c0,-.2,-.2,-.4,-.4,-.4c-.2,0,-.4,.2,-.4,.4c0,.2,.2,.4,.4,.4m1.5,0v0c.3,0,.4,-.2,.4,-.4c0,-.2,-.1,-.4,-.4,-.4c-.2,0,-.3,.2,-.3,.4c0,.2,.1,.4,.3,.4m1.6,0v0c.2,0,.4,-.2,.4,-.4c0,-.2,-.2,-.4,-.4,-.4c-.2,0,-.4,.2,-.4,.4c0,.2,.2,.4,.4,.4m1.5,0v0c.2,0,.4,-.2,.4,-.4c0,-.2,-.2,-.4,-.4,-.4c-.2,0,-.4,.2,-.4,.4c0,.2,.2,.4,.4,.4m1.5,0v0c.2,0,.4,-.2,.4,-.4c0,-.2,-.2,-.4,-.4,-.4c-.2,0,-.4,.2,-.4,.4c0,.2,.2,.4,.4,.4m1.6,0v0c.2,0,.3,-.2,.3,-.4c0,-.2,-.1,-.4,-.3,-.4c-.3,0,-.4,.2,-.4,.4c0,.2,.1,.4,.4,.4m1.5,0v0c.2,0,.4,-.2,.4,-.4c0,-.2,-.2,-.4,-.4,-.4c-.2,0,-.4,.2,-.4,.4c0,.2,.2,.4,.4,.4m1.5,0v0c.2,0,.4,-.2,.4,-.4c0,-.2,-.2,-.4,-.4,-.4c-.2,0,-.4,.2,-.4,.4c0,.2,.2,.4,.4,.4m1.5,0v0c.3,0,.4,-.2,.4,-.4c0,-.2,-.1,-.4,-.4,-.4c-.2,0,-.3,.2,-.3,.4c0,.2,.1,.4,.3,.4m1.6,0v0c.2,0,.4,-.2,.4,-.4c0,-.2,-.2,-.4,-.4,-.4c-.2,0,-.4,.2,-.4,.4c0,.2,.2,.4,.4,.4m1.5,0v0c.2,0,.4,-.2,.4,-.4c0,-.2,-.2,-.4,-.4,-.4c-.2,0,-.4,.2,-.4,.4c0,.2,.2,.4,.4,.4m1.5,0v0c.2,0,.4,-.2,.4,-.4c0,-.2,-.2,-.4,-.4,-.4c-.2,0,-.4,.2,-.4,.4c0,.2,.2,.4,.4,.4m1.6,0v0c.2,0,.3,-.2,.3,-.4c0,-.2,-.1,-.4,-.3,-.4c-.3,0,-.4,.2,-.4,.4c0,.2,.1,.4,.4,.4m1.5,0v0c.2,0,.4,-.2,.4,-.4c0,-.2,-.2,-.4,-.4,-.4c-.2,0,-.4,.2,-.4,.4c0,.2,.2,.4,.4,.4m1.5,0v0c.2,0,.4,-.2,.4,-.4c0,-.2,-.2,-.4,-.4,-.4c-.2,0,-.4,.2,-.4,.4c0,.2,.2,.4,.4,.4m1.5,0v0c.3,0,.4,-.2,.4,-.4c0,-.2,-.1,-.4,-.4,-.4c-.2,0,-.3,.2,-.3,.4c0,.2,.1,.4,.3,.4m1.6,0v0c.2,0,.4,-.2,.4,-.4c0,-.2,-.2,-.4,-.4,-.4c-.2,0,-.4,.2,-.4,.4c0,.2,.2,.4,.4,.4m1.5,0v0c.2,0,.4,-.2,.4,-.4c0,-.2,-.2,-.4,-.4,-.4c-.2,0,-.4,.2,-.4,.4c0,.2,.2,.4,.4,.4m1.5,0v0c.2,0,.4,-.2,.4,-.4c0,-.2,-.2,-.4,-.4,-.4c-.2,0,-.4,.2,-.4,.4c0,.2,.2,.4,.4,.4m1.6,0v0c.2,0,.3,-.2,.3,-.4c0,-.2,-.1,-.4,-.3,-.4c-.3,0,-.4,.2,-.4,.4c0,.2,.1,.4,.4,.4m1.5,0v0c.2,0,.4,-.2,.4,-.4c0,-.2,-.2,-.4,-.4,-.4c-.2,0,-.4,.2,-.4,.4c0,.2,.2,.4,.4,.4m1.5,0v0c.2,0,.4,-.2,.4,-.4c0,-.2,-.2,-.4,-.4,-.4c-.2,0,-.4,.2,-.4,.4c0,.2,.2,.4,.4,.4m1.5,0v0c.3,0,.4,-.2,.4,-.4c0,-.2,-.1,-.4,-.4,-.4c-.2,0,-.3,.2,-.3,.4c0,.2,.1,.4,.3,.4m1.6,0v0c.2,0,.4,-.2,.4,-.4c0,-.2,-.2,-.4,-.4,-.4c-.2,0,-.4,.2,-.4,.4c0,.2,.2,.4,.4,.4m1.5,0v0c.2,0,.4,-.2,.4,-.4c0,-.2,-.2,-.4,-.4,-.4c-.2,0,-.4,.2,-.4,.4c0,.2,.2,.4,.4,.4m1.5,0v0c.2,0,.4,-.2,.4,-.4c0,-.2,-.2,-.4,-.4,-.4c-.2,0,-.4,.2,-.4,.4c0,.2,.2,.4,.4,.4m1.6,0v0c.2,0,.3,-.2,.3,-.4c0,-.2,-.1,-.4,-.3,-.4c-.3,0,-.4,.2,-.4,.4c0,.2,.1,.4,.4,.4m1.5,0v0c.2,0,.4,-.2,.4,-.4c0,-.2,-.2,-.4,-.4,-.4c-.2,0,-.4,.2,-.4,.4c0,.2,.2,.4,.4,.4m1.5,0v0c.2,0,.4,-.2,.4,-.4c0,-.2,-.2,-.4,-.4,-.4c-.2,0,-.4,.2,-.4,.4c0,.2,.2,.4,.4,.4m1.5,0v0c.3,0,.4,-.2,.4,-.4c0,-.2,-.1,-.4,-.4,-.4c-.2,0,-.3,.2,-.3,.4c0,.2,.1,.4,.3,.4m1.6,0v0c.2,0,.4,-.2,.4,-.4c0,-.2,-.2,-.4,-.4,-.4c-.2,0,-.4,.2,-.4,.4c0,.2,.2,.4,.4,.4m1.5,0v0c.2,0,.4,-.2,.4,-.4c0,-.2,-.2,-.4,-.4,-.4c-.2,0,-.4,.2,-.4,.4c0,.2,.2,.4,.4,.4m1.5,0v0c.2,0,.4,-.2,.4,-.4c0,-.2,-.2,-.4,-.4,-.4c-.2,0,-.4,.2,-.4,.4c0,.2,.2,.4,.4,.4m1.6,0v0c.2,0,.3,-.2,.3,-.4c0,-.2,-.1,-.4,-.3,-.4c-.3,0,-.4,.2,-.4,.4c0,.2,.1,.4,.4,.4m1.5,0v0c.2,0,.4,-.2,.4,-.4c0,-.2,-.2,-.4,-.4,-.4c-.2,0,-.4,.2,-.4,.4c0,.2,.2,.4,.4,.4m1.5,0v0c.2,0,.4,-.2,.4,-.4c0,-.2,-.2,-.4,-.4,-.4c-.2,0,-.4,.2,-.4,.4c0,.2,.2,.4,.4,.4m1.5,0v0c.3,0,.4,-.2,.4,-.4c0,-.2,-.1,-.4,-.4,-.4c-.2,0,-.3,.2,-.3,.4c0,.2,.1,.4,.3,.4m1.6,0v0c.2,0,.4,-.2,.4,-.4c0,-.2,-.2,-.4,-.4,-.4c-.2,0,-.4,.2,-.4,.4c0,.2,.2,.4,.4,.4m1.5,0v0c.2,0,.4,-.2,.4,-.4c0,-.2,-.2,-.4,-.4,-.4c-.2,0,-.4,.2,-.4,.4c0,.2,.2,.4,.4,.4m1.5,0v0c.2,0,.4,-.2,.4,-.4c0,-.2,-.2,-.4,-.4,-.4c-.2,0,-.4,.2,-.4,.4c0,.2,.2,.4,.4,.4m1.6,0v0c.2,0,.3,-.2,.3,-.4c0,-.2,-.1,-.4,-.3,-.4c-.3,0,-.4,.2,-.4,.4c0,.2,.1,.4,.4,.4m1.5,0v0c.2,0,.4,-.2,.4,-.4c0,-.2,-.2,-.4,-.4,-.4c-.2,0,-.4,.2,-.4,.4c0,.2,.2,.4,.4,.4m1.5,0v0c.2,0,.4,-.2,.4,-.4c0,-.2,-.2,-.4,-.4,-.4c-.2,0,-.4,.2,-.4,.4c0,.2,.2,.4,.4,.4m1.5,0v0c.3,0,.4,-.2,.4,-.4c0,-.2,-.1,-.4,-.4,-.4c-.2,0,-.3,.2,-.3,.4c0,.2,.1,.4,.3,.4m1.6,0v0c.2,0,.4,-.2,.4,-.4c0,-.2,-.2,-.4,-.4,-.4c-.2,0,-.4,.2,-.4,.4c0,.2,.2,.4,.4,.4m1.5,0v0c.2,0,.4,-.2,.4,-.4c0,-.2,-.2,-.4,-.4,-.4c-.2,0,-.4,.2,-.4,.4c0,.2,.2,.4,.4,.4m1.5,0v0c.2,0,.4,-.2,.4,-.4c0,-.2,-.2,-.4,-.4,-.4c-.2,0,-.4,.2,-.4,.4c0,.2,.2,.4,.4,.4m1.6,0v0c.2,0,.3,-.2,.3,-.4c0,-.2,-.1,-.4,-.3,-.4c-.3,0,-.4,.2,-.4,.4c0,.2,.1,.4,.4,.4m1.5,0v0c.2,0,.4,-.2,.4,-.4c0,-.2,-.2,-.4,-.4,-.4c-.2,0,-.4,.2,-.4,.4c0,.2,.2,.4,.4,.4m1.5,0v0c.2,0,.4,-.2,.4,-.4c0,-.2,-.2,-.4,-.4,-.4c-.2,0,-.4,.2,-.4,.4c0,.2,.2,.4,.4,.4m1.5,0v0c.3,0,.4,-.2,.4,-.4c0,-.2,-.1,-.4,-.4,-.4c-.2,0,-.3,.2,-.3,.4c0,.2,.1,.4,.3,.4m1.6,0v0c.2,0,.4,-.2,.4,-.4c0,-.2,-.2,-.4,-.4,-.4c-.2,0,-.4,.2,-.4,.4c0,.2,.2,.4,.4,.4m1.5,0v0c.2,0,.4,-.2,.4,-.4c0,-.2,-.2,-.4,-.4,-.4c-.2,0,-.4,.2,-.4,.4c0,.2,.2,.4,.4,.4m1.5,0v0c.2,0,.4,-.2,.4,-.4c0,-.2,-.2,-.4,-.4,-.4c-.2,0,-.4,.2,-.4,.4c0,.2,.2,.4,.4,.4m1.6,0v0c.2,0,.3,-.2,.3,-.4c0,-.2,-.1,-.4,-.3,-.4c-.3,0,-.4,.2,-.4,.4c0,.2,.1,.4,.4,.4m1.5,0v0c.2,0,.4,-.2,.4,-.4c0,-.2,-.2,-.4,-.4,-.4c-.2,0,-.4,.2,-.4,.4c0,.2,.2,.4,.4,.4m1.5,0v0c.2,0,.4,-.2,.4,-.4c0,-.2,-.2,-.4,-.4,-.4c-.2,0,-.4,.2,-.4,.4c0,.2,.2,.4,.4,.4m1.5,0v0c.3,0,.4,-.2,.4,-.4c0,-.2,-.1,-.4,-.4,-.4c-.2,0,-.3,.2,-.3,.4c0,.2,.1,.4,.3,.4m1.6,0v0c.2,0,.4,-.2,.4,-.4c0,-.2,-.2,-.4,-.4,-.4c-.2,0,-.4,.2,-.4,.4c0,.2,.2,.4,.4,.4m1.5,0v0c.2,0,.4,-.2,.4,-.4c0,-.2,-.2,-.4,-.4,-.4c-.2,0,-.4,.2,-.4,.4c0,.2,.2,.4,.4,.4m1.5,0v0c.2,0,.4,-.2,.4,-.4c0,-.2,-.2,-.4,-.4,-.4c-.2,0,-.4,.2,-.4,.4c0,.2,.2,.4,.4,.4m1.6,0v0c.2,0,.3,-.2,.3,-.4c0,-.2,-.1,-.4,-.3,-.4c-.3,0,-.4,.2,-.4,.4c0,.2,.1,.4,.4,.4m1.5,0v0c.2,0,.4,-.2,.4,-.4c0,-.2,-.2,-.4,-.4,-.4c-.2,0,-.4,.2,-.4,.4c0,.2,.2,.4,.4,.4m1.5,0v0c.2,0,.4,-.2,.4,-.4c0,-.2,-.2,-.4,-.4,-.4c-.2,0,-.4,.2,-.4,.4c0,.2,.2,.4,.4,.4m1.5,0v0c.3,0,.4,-.2,.4,-.4c0,-.2,-.1,-.4,-.4,-.4c-.2,0,-.3,.2,-.3,.4c0,.2,.1,.4,.3,.4m1.6,0v0c.2,0,.4,-.2,.4,-.4c0,-.2,-.2,-.4,-.4,-.4c-.2,0,-.4,.2,-.4,.4c0,.2,.2,.4,.4,.4m1.5,0v0c.2,0,.4,-.2,.4,-.4c0,-.2,-.2,-.4,-.4,-.4c-.2,0,-.4,.2,-.4,.4c0,.2,.2,.4,.4,.4m1.5,0v0c.2,0,.4,-.2,.4,-.4c0,-.2,-.2,-.4,-.4,-.4c-.2,0,-.3,.2,-.3,.4c0,.2,.1,.4,.3,.4m1.6,0v0c.2,0,.3,-.2,.3,-.4c0,-.2,-.1,-.4,-.3,-.4c-.3,0,-.4,.2,-.4,.4c0,.2,.1,.4,.4,.4m1.5,0v0c.2,0,.4,-.2,.4,-.4c0,-.2,-.2,-.4,-.4,-.4c-.2,0,-.4,.2,-.4,.4c0,.2,.2,.4,.4,.4m1.5,0v0c.2,0,.4,-.2,.4,-.4c0,-.2,-.2,-.4,-.4,-.4c-.2,0,-.4,.2,-.4,.4c0,.2,.2,.4,.4,.4m1.5,0v0c.3,0,.4,-.2,.4,-.4c0,-.2,-.1,-.4,-.4,-.4c-.2,0,-.3,.2,-.3,.4c0,.2,.1,.4,.3,.4m1.6,0v0c.2,0,.4,-.2,.4,-.4c0,-.2,-.2,-.4,-.4,-.4c-.2,0,-.4,.2,-.4,.4c0,.2,.2,.4,.4,.4m1.5,0v0c.2,0,.4,-.2,.4,-.4c0,-.2,-.2,-.4,-.4,-.4c-.2,0,-.4,.2,-.4,.4c0,.2,.2,.4,.4,.4m1.5,0v0c.2,0,.4,-.2,.4,-.4c0,-.2,-.2,-.4,-.4,-.4c-.2,0,-.4,.2,-.4,.4c0,.2,.2,.4,.4,.4m1.6,0v0c.2,0,.3,-.2,.3,-.4c0,-.2,-.1,-.4,-.3,-.4c-.3,0,-.4,.2,-.4,.4c0,.2,.1,.4,.4,.4m1.5,0v0c.2,0,.4,-.2,.4,-.4c0,-.2,-.2,-.4,-.4,-.4c-.2,0,-.4,.2,-.4,.4c0,.2,.2,.4,.4,.4m1.5,0v0c.2,0,.4,-.2,.4,-.4c0,-.2,-.2,-.4,-.4,-.4c-.2,0,-.4,.2,-.4,.4c0,.2,.2,.4,.4,.4m1.5,0v0c.3,0,.4,-.2,.4,-.4c0,-.2,-.1,-.4,-.4,-.4c-.2,0,-.3,.2,-.3,.4c0,.2,.1,.4,.3,.4m1.6,0v0c.2,0,.4,-.2,.4,-.4c0,-.2,-.2,-.4,-.4,-.4c-.2,0,-.4,.2,-.4,.4c0,.2,.2,.4,.4,.4m1.5,0v0c.2,0,.4,-.2,.4,-.4c0,-.2,-.2,-.4,-.4,-.4c-.2,0,-.4,.2,-.4,.4c0,.2,.2,.4,.4,.4m1.5,0v0c.2,0,.4,-.2,.4,-.4c0,-.2,-.2,-.4,-.4,-.4c-.2,0,-.4,.2,-.4,.4c0,.2,.2,.4,.4,.4m1.6,0v0c.2,0,.3,-.2,.3,-.4c0,-.2,-.1,-.4,-.3,-.4c-.3,0,-.4,.2,-.4,.4c0,.2,.1,.4,.4,.4m1.5,0v0c.2,0,.4,-.2,.4,-.4c0,-.2,-.2,-.4,-.4,-.4c-.2,0,-.4,.2,-.4,.4c0,.2,.2,.4,.4,.4m1.5,0v0c.2,0,.4,-.2,.4,-.4c0,-.2,-.2,-.4,-.4,-.4c-.2,0,-.4,.2,-.4,.4c0,.2,.2,.4,.4,.4m1.5,0v0c.3,0,.4,-.2,.4,-.4c0,-.2,-.1,-.4,-.4,-.4c-.2,0,-.3,.2,-.3,.4c0,.2,.1,.4,.3,.4m1.6,0v0c.2,0,.4,-.2,.4,-.4c0,-.2,-.2,-.4,-.4,-.4c-.2,0,-.4,.2,-.4,.4c0,.2,.2,.4,.4,.4m1.5,0v0c.2,0,.4,-.2,.4,-.4c0,-.2,-.2,-.4,-.4,-.4c-.2,0,-.4,.2,-.4,.4c0,.2,.2,.4,.4,.4m1.5,0v0c.2,0,.4,-.2,.4,-.4c0,-.2,-.2,-.4,-.4,-.4c-.2,0,-.3,.2,-.3,.4c0,.2,.1,.4,.3,.4m1.6,0v0c.2,0,.3,-.2,.3,-.4c0,-.2,-.1,-.4,-.3,-.4c-.3,0,-.4,.2,-.4,.4c0,.2,.1,.4,.4,.4m1.5,0v0c.2,0,.4,-.2,.4,-.4c0,-.2,-.2,-.4,-.4,-.4c-.2,0,-.4,.2,-.4,.4c0,.2,.2,.4,.4,.4m1.5,0v0c.2,0,.4,-.2,.4,-.4c0,-.2,-.2,-.4,-.4,-.4c-.2,0,-.4,.2,-.4,.4c0,.2,.2,.4,.4,.4m1.5,0v0c.3,0,.4,-.2,.4,-.4c0,-.2,-.1,-.4,-.4,-.4c-.2,0,-.3,.2,-.3,.4c0,.2,.1,.4,.3,.4m1.6,0v0c.2,0,.4,-.2,.4,-.4c0,-.2,-.2,-.4,-.4,-.4c-.2,0,-.4,.2,-.4,.4c0,.2,.2,.4,.4,.4m1.5,0v0c.2,0,.4,-.2,.4,-.4c0,-.2,-.2,-.4,-.4,-.4c-.2,0,-.4,.2,-.4,.4c0,.2,.2,.4,.4,.4m1.5,0v0c.2,0,.4,-.2,.4,-.4c0,-.2,-.2,-.4,-.4,-.4c-.2,0,-.4,.2,-.4,.4c0,.2,.2,.4,.4,.4m1.6,0v0c.2,0,.3,-.2,.3,-.4c0,-.2,-.1,-.4,-.3,-.4c-.3,0,-.4,.2,-.4,.4c0,.2,.1,.4,.4,.4m1.5,0v0c.2,0,.4,-.2,.4,-.4c0,-.2,-.2,-.4,-.4,-.4c-.2,0,-.4,.2,-.4,.4c0,.2,.2,.4,.4,.4m1.5,0v0c.2,0,.4,-.2,.4,-.4c0,-.2,-.2,-.4,-.4,-.4c-.2,0,-.4,.2,-.4,.4c0,.2,.2,.4,.4,.4m1.5,0v0c.3,0,.4,-.2,.4,-.4c0,-.2,-.1,-.4,-.4,-.4c-.2,0,-.3,.2,-.3,.4c0,.2,.1,.4,.3,.4m1.6,0v0c.2,0,.4,-.2,.4,-.4c0,-.2,-.2,-.4,-.4,-.4c-.2,0,-.4,.2,-.4,.4c0,.2,.2,.4,.4,.4m1.5,0v0c.2,0,.4,-.2,.4,-.4c0,-.2,-.2,-.4,-.4,-.4c-.2,0,-.4,.2,-.4,.4c0,.2,.2,.4,.4,.4m1.5,0v0c.2,0,.4,-.2,.4,-.4c0,-.2,-.2,-.4,-.4,-.4c-.2,0,-.3,.2,-.3,.4c0,.2,.1,.4,.3,.4m1.6,0v0c.2,0,.3,-.2,.3,-.4c0,-.2,-.1,-.4,-.3,-.4c-.2,0,-.4,.2,-.4,.4c0,.2,.2,.4,.4,.4m1.5,0v0c.2,0,.4,-.2,.4,-.4c0,-.2,-.2,-.4,-.4,-.4c-.2,0,-.4,.2,-.4,.4c0,.2,.2,.4,.4,.4m1.5,0v0c.2,0,.4,-.2,.4,-.4c0,-.2,-.2,-.4,-.4,-.4c-.2,0,-.4,.2,-.4,.4c0,.2,.2,.4,.4,.4m1.5,0v0c.3,0,.4,-.2,.4,-.4c0,-.2,-.1,-.4,-.4,-.4c-.2,0,-.3,.2,-.3,.4c0,.2,.1,.4,.3,.4m1.6,0v0c.2,0,.4,-.2,.4,-.4c0,-.2,-.2,-.4,-.4,-.4c-.2,0,-.4,.2,-.4,.4c0,.2,.2,.4,.4,.4m1.5,0v0c.2,0,.4,-.2,.4,-.4c0,-.2,-.2,-.4,-.4,-.4c-.2,0,-.4,.2,-.4,.4c0,.2,.2,.4,.4,.4m1.5,0v0c.2,0,.4,-.2,.4,-.4c0,-.2,-.2,-.4,-.4,-.4c-.2,0,-.3,.2,-.3,.4c0,.2,.1,.4,.3,.4m1.6,0v0c.2,0,.3,-.2,.3,-.4c0,-.2,-.1,-.4,-.3,-.4c-.3,0,-.4,.2,-.4,.4c0,.2,.1,.4,.4,.4m1.5,0v0c.2,0,.4,-.2,.4,-.4c0,-.2,-.2,-.4,-.4,-.4c-.2,0,-.4,.2,-.4,.4c0,.2,.2,.4,.4,.4m1.5,0v0c.2,0,.4,-.2,.4,-.4c0,-.2,-.2,-.4,-.4,-.4c-.2,0,-.4,.2,-.4,.4c0,.2,.2,.4,.4,.4m1.5,0v0c.3,0,.4,-.2,.4,-.4c0,-.2,-.1,-.4,-.4,-.4c-.2,0,-.3,.2,-.3,.4c0,.2,.1,.4,.3,.4m1.6,0v0c.2,0,.4,-.2,.4,-.4c0,-.2,-.2,-.4,-.4,-.4c-.2,0,-.4,.2,-.4,.4c0,.2,.2,.4,.4,.4m1.5,0v0c.2,0,.4,-.2,.4,-.4c0,-.2,-.2,-.4,-.4,-.4c-.2,0,-.4,.2,-.4,.4c0,.2,.2,.4,.4,.4m1.5,0v0c.2,0,.4,-.2,.4,-.4c0,-.2,-.2,-.4,-.4,-.4c-.2,0,-.3,.2,-.3,.4c0,.2,.1,.4,.3,.4m1.6,0v0c.2,0,.3,-.2,.3,-.4c0,-.2,-.1,-.4,-.3,-.4c-.2,0,-.4,.2,-.4,.4c0,.2,.2,.4,.4,.4m1.5,0v0c.2,0,.4,-.2,.4,-.4c0,-.2,-.2,-.4,-.4,-.4c-.2,0,-.4,.2,-.4,.4c0,.2,.2,.4,.4,.4m1.5,0v0c.2,0,.4,-.2,.4,-.4c0,-.2,-.2,-.4,-.4,-.4c-.2,0,-.4,.2,-.4,.4c0,.2,.2,.4,.4,.4m1.5,0v0c.3,0,.4,-.2,.4,-.4c0,-.2,-.1,-.4,-.4,-.4c-.2,0,-.3,.2,-.3,.4c0,.2,.1,.4,.3,.4m1.6,0v0c.2,0,.4,-.2,.4,-.4c0,-.2,-.2,-.4,-.4,-.4c-.2,0,-.4,.2,-.4,.4c0,.2,.2,.4,.4,.4m1.5,0v0c.2,0,.4,-.2,.4,-.4c0,-.2,-.2,-.4,-.4,-.4c-.2,0,-.4,.2,-.4,.4c0,.2,.2,.4,.4,.4m1.5,0v0c.2,0,.4,-.2,.4,-.4c0,-.2,-.2,-.4,-.4,-.4c-.2,0,-.3,.2,-.3,.4c0,.2,.1,.4,.3,.4m1.6,0v0c.2,0,.3,-.2,.3,-.4c0,-.2,-.1,-.4,-.3,-.4c-.2,0,-.4,.2,-.4,.4c0,.2,.2,.4,.4,.4m1.5,0v0c.2,0,.4,-.2,.4,-.4c0,-.2,-.2,-.4,-.4,-.4c-.2,0,-.4,.2,-.4,.4c0,.2,.2,.4,.4,.4m1.5,0v0c.2,0,.4,-.2,.4,-.4c0,-.2,-.2,-.4,-.4,-.4c-.2,0,-.4,.2,-.4,.4c0,.2,.2,.4,.4,.4m1.5,0v0c.3,0,.4,-.2,.4,-.4c0,-.2,-.1,-.4,-.4,-.4c-.2,0,-.3,.2,-.3,.4c0,.2,.1,.4,.3,.4m1.6,0v0c.2,0,.4,-.2,.4,-.4c0,-.2,-.2,-.4,-.4,-.4c-.2,0,-.4,.2,-.4,.4c0,.2,.2,.4,.4,.4m1.5,0v0c.2,0,.4,-.2,.4,-.4c0,-.2,-.2,-.4,-.4,-.4c-.2,0,-.4,.2,-.4,.4c0,.2,.2,.4,.4,.4m1.5,0v0c.2,0,.4,-.2,.4,-.4c0,-.2,-.2,-.4,-.4,-.4c-.2,0,-.3,.2,-.3,.4c0,.2,.1,.4,.3,.4m1.6,0v0c.2,0,.3,-.2,.3,-.4c0,-.2,-.1,-.4,-.3,-.4c-.2,0,-.4,.2,-.4,.4c0,.2,.2,.4,.4,.4m1.5,0v0c.2,0,.4,-.2,.4,-.4c0,-.2,-.2,-.4,-.4,-.4c-.2,0,-.4,.2,-.4,.4c0,.2,.2,.4,.4,.4m1.5,0v0c.2,0,.4,-.2,.4,-.4c0,-.2,-.2,-.4,-.4,-.4c-.2,0,-.4,.2,-.4,.4c0,.2,.2,.4,.4,.4m1.5,0v0c.3,0,.4,-.2,.4,-.4c0,-.2,-.1,-.4,-.4,-.4c-.2,0,-.3,.2,-.3,.4c0,.2,.1,.4,.3,.4m1.6,0v0c.2,0,.4,-.2,.4,-.4c0,-.2,-.2,-.4,-.4,-.4c-.2,0,-.4,.2,-.4,.4c0,.2,.2,.4,.4,.4m1.5,0v0c.2,0,.4,-.2,.4,-.4c0,-.2,-.2,-.4,-.4,-.4c-.2,0,-.4,.2,-.4,.4c0,.2,.2,.4,.4,.4m1.5,0v0c.2,0,.4,-.2,.4,-.4c0,-.2,-.2,-.4,-.4,-.4c-.2,0,-.3,.2,-.3,.4c0,.2,.1,.4,.3,.4m1.6,0v0c.2,0,.3,-.2,.3,-.4c0,-.2,-.1,-.4,-.3,-.4c-.2,0,-.4,.2,-.4,.4c0,.2,.2,.4,.4,.4Z" class="g6_23"/>
<path clip-path="url(#ct_23)" d="M39.4,819.9l.2,-.1l.1,-.3l-.1,-.3l-.2,-.1l-.3,.1l-.1,.3l.1,.3Zm215.5,0l.3,-.1l.1,-.3l-.1,-.3l-.3,-.1l-.3,.1l-.1,.3l.1,.3Z" class="g6_23"/>
<path d="M256.4,819.9v0c.2,0,.4,-.2,.4,-.4c0,-.2,-.2,-.4,-.4,-.4c-.2,0,-.4,.2,-.4,.4c0,.2,.2,.4,.4,.4m1.5,0v0c.2,0,.4,-.2,.4,-.4c0,-.2,-.2,-.4,-.4,-.4c-.2,0,-.4,.2,-.4,.4c0,.2,.2,.4,.4,.4m1.5,0v0c.2,0,.4,-.2,.4,-.4c0,-.2,-.2,-.4,-.4,-.4c-.2,0,-.4,.2,-.4,.4c0,.2,.2,.4,.4,.4m1.5,0v0c.2,0,.4,-.2,.4,-.4c0,-.2,-.2,-.4,-.4,-.4c-.2,0,-.4,.2,-.4,.4c0,.2,.2,.4,.4,.4m1.5,0v0c.3,0,.4,-.2,.4,-.4c0,-.2,-.1,-.4,-.4,-.4c-.2,0,-.3,.2,-.3,.4c0,.2,.1,.4,.3,.4m1.6,0v0c.2,0,.3,-.2,.3,-.4c0,-.2,-.1,-.4,-.3,-.4c-.3,0,-.4,.2,-.4,.4c0,.2,.1,.4,.4,.4m1.5,0v0c.2,0,.3,-.2,.3,-.4c0,-.2,-.1,-.4,-.3,-.4c-.2,0,-.4,.2,-.4,.4c0,.2,.2,.4,.4,.4m1.5,0v0c.2,0,.4,-.2,.4,-.4c0,-.2,-.2,-.4,-.4,-.4c-.2,0,-.4,.2,-.4,.4c0,.2,.2,.4,.4,.4m1.5,0v0c.2,0,.4,-.2,.4,-.4c0,-.2,-.2,-.4,-.4,-.4c-.2,0,-.4,.2,-.4,.4c0,.2,.2,.4,.4,.4m1.5,0v0c.2,0,.4,-.2,.4,-.4c0,-.2,-.2,-.4,-.4,-.4c-.2,0,-.4,.2,-.4,.4c0,.2,.2,.4,.4,.4m1.5,0v0c.2,0,.4,-.2,.4,-.4c0,-.2,-.2,-.4,-.4,-.4c-.2,0,-.4,.2,-.4,.4c0,.2,.2,.4,.4,.4m1.5,0v0c.2,0,.4,-.2,.4,-.4c0,-.2,-.2,-.4,-.4,-.4c-.2,0,-.4,.2,-.4,.4c0,.2,.2,.4,.4,.4m1.5,0v0c.2,0,.4,-.2,.4,-.4c0,-.2,-.2,-.4,-.4,-.4c-.2,0,-.4,.2,-.4,.4c0,.2,.2,.4,.4,.4m1.5,0v0c.2,0,.4,-.2,.4,-.4c0,-.2,-.2,-.4,-.4,-.4c-.2,0,-.3,.2,-.3,.4c0,.2,.1,.4,.3,.4m1.5,0v0c.3,0,.4,-.2,.4,-.4c0,-.2,-.1,-.4,-.4,-.4c-.2,0,-.3,.2,-.3,.4c0,.2,.1,.4,.3,.4m1.6,0v0c.2,0,.3,-.2,.3,-.4c0,-.2,-.1,-.4,-.3,-.4c-.3,0,-.4,.2,-.4,.4c0,.2,.1,.4,.4,.4m1.5,0v0c.2,0,.3,-.2,.3,-.4c0,-.2,-.1,-.4,-.3,-.4c-.2,0,-.4,.2,-.4,.4c0,.2,.2,.4,.4,.4m1.5,0v0c.2,0,.4,-.2,.4,-.4c0,-.2,-.2,-.4,-.4,-.4c-.2,0,-.4,.2,-.4,.4c0,.2,.2,.4,.4,.4m1.5,0v0c.2,0,.4,-.2,.4,-.4c0,-.2,-.2,-.4,-.4,-.4c-.2,0,-.4,.2,-.4,.4c0,.2,.2,.4,.4,.4m1.5,0v0c.2,0,.4,-.2,.4,-.4c0,-.2,-.2,-.4,-.4,-.4c-.2,0,-.4,.2,-.4,.4c0,.2,.2,.4,.4,.4m1.5,0v0c.2,0,.4,-.2,.4,-.4c0,-.2,-.2,-.4,-.4,-.4c-.2,0,-.4,.2,-.4,.4c0,.2,.2,.4,.4,.4m1.5,0v0c.2,0,.4,-.2,.4,-.4c0,-.2,-.2,-.4,-.4,-.4c-.2,0,-.4,.2,-.4,.4c0,.2,.2,.4,.4,.4m1.5,0v0c.2,0,.4,-.2,.4,-.4c0,-.2,-.2,-.4,-.4,-.4c-.2,0,-.4,.2,-.4,.4c0,.2,.2,.4,.4,.4m1.5,0v0c.2,0,.4,-.2,.4,-.4c0,-.2,-.2,-.4,-.4,-.4c-.2,0,-.3,.2,-.3,.4c0,.2,.1,.4,.3,.4m1.5,0v0c.3,0,.4,-.2,.4,-.4c0,-.2,-.1,-.4,-.4,-.4c-.2,0,-.3,.2,-.3,.4c0,.2,.1,.4,.3,.4m1.6,0v0c.2,0,.3,-.2,.3,-.4c0,-.2,-.1,-.4,-.3,-.4c-.3,0,-.4,.2,-.4,.4c0,.2,.1,.4,.4,.4m1.5,0v0c.2,0,.3,-.2,.3,-.4c0,-.2,-.1,-.4,-.3,-.4c-.2,0,-.4,.2,-.4,.4c0,.2,.2,.4,.4,.4m1.5,0v0c.2,0,.4,-.2,.4,-.4c0,-.2,-.2,-.4,-.4,-.4c-.2,0,-.4,.2,-.4,.4c0,.2,.2,.4,.4,.4m1.5,0v0c.2,0,.4,-.2,.4,-.4c0,-.2,-.2,-.4,-.4,-.4c-.2,0,-.4,.2,-.4,.4c0,.2,.2,.4,.4,.4m1.5,0v0c.2,0,.4,-.2,.4,-.4c0,-.2,-.2,-.4,-.4,-.4c-.2,0,-.4,.2,-.4,.4c0,.2,.2,.4,.4,.4m1.5,0v0c.2,0,.4,-.2,.4,-.4c0,-.2,-.2,-.4,-.4,-.4c-.2,0,-.4,.2,-.4,.4c0,.2,.2,.4,.4,.4m1.5,0v0c.2,0,.4,-.2,.4,-.4c0,-.2,-.2,-.4,-.4,-.4c-.2,0,-.4,.2,-.4,.4c0,.2,.2,.4,.4,.4m1.5,0v0c.2,0,.4,-.2,.4,-.4c0,-.2,-.2,-.4,-.4,-.4c-.2,0,-.4,.2,-.4,.4c0,.2,.2,.4,.4,.4m1.5,0v0c.2,0,.4,-.2,.4,-.4c0,-.2,-.2,-.4,-.4,-.4c-.2,0,-.3,.2,-.3,.4c0,.2,.1,.4,.3,.4Z" class="g6_23"/>
<path d="M254.9,819.9l.3,-.1l.1,-.3l-.1,-.3l-.3,-.1l-.3,.1l-.1,.3l.1,.3Zm52.8,0l.3,-.1l.1,-.3l-.1,-.3l-.3,-.1l-.2,.1l-.1,.3l.1,.3Z" class="g6_23"/>
<path d="M40.9,863.5v0c.2,0,.4,-.2,.4,-.4c0,-.2,-.2,-.4,-.4,-.4c-.2,0,-.4,.2,-.4,.4c0,.2,.2,.4,.4,.4m1.5,0v0c.2,0,.4,-.2,.4,-.4c0,-.2,-.2,-.4,-.4,-.4c-.2,0,-.4,.2,-.4,.4c0,.2,.2,.4,.4,.4m1.5,0v0c.3,0,.4,-.2,.4,-.4c0,-.2,-.1,-.4,-.4,-.4c-.2,0,-.3,.2,-.3,.4c0,.2,.1,.4,.3,.4m1.6,0v0c.2,0,.4,-.2,.4,-.4c0,-.2,-.2,-.4,-.4,-.4c-.2,0,-.4,.2,-.4,.4c0,.2,.2,.4,.4,.4m1.5,0v0c.2,0,.4,-.2,.4,-.4c0,-.2,-.2,-.4,-.4,-.4c-.2,0,-.4,.2,-.4,.4c0,.2,.2,.4,.4,.4m1.5,0v0c.2,0,.4,-.2,.4,-.4c0,-.2,-.2,-.4,-.4,-.4c-.2,0,-.4,.2,-.4,.4c0,.2,.2,.4,.4,.4m1.6,0v0c.2,0,.3,-.2,.3,-.4c0,-.2,-.1,-.4,-.3,-.4c-.3,0,-.4,.2,-.4,.4c0,.2,.1,.4,.4,.4m1.5,0v0c.2,0,.4,-.2,.4,-.4c0,-.2,-.2,-.4,-.4,-.4c-.2,0,-.4,.2,-.4,.4c0,.2,.2,.4,.4,.4m1.5,0v0c.2,0,.4,-.2,.4,-.4c0,-.2,-.2,-.4,-.4,-.4c-.2,0,-.4,.2,-.4,.4c0,.2,.2,.4,.4,.4m1.5,0v0c.3,0,.4,-.2,.4,-.4c0,-.2,-.1,-.4,-.4,-.4c-.2,0,-.3,.2,-.3,.4c0,.2,.1,.4,.3,.4m1.6,0v0c.2,0,.4,-.2,.4,-.4c0,-.2,-.2,-.4,-.4,-.4c-.2,0,-.4,.2,-.4,.4c0,.2,.2,.4,.4,.4m1.5,0v0c.2,0,.4,-.2,.4,-.4c0,-.2,-.2,-.4,-.4,-.4c-.2,0,-.4,.2,-.4,.4c0,.2,.2,.4,.4,.4m1.5,0v0c.2,0,.4,-.2,.4,-.4c0,-.2,-.2,-.4,-.4,-.4c-.2,0,-.4,.2,-.4,.4c0,.2,.2,.4,.4,.4m1.6,0v0c.2,0,.3,-.2,.3,-.4c0,-.2,-.1,-.4,-.3,-.4c-.3,0,-.4,.2,-.4,.4c0,.2,.1,.4,.4,.4m1.5,0v0c.2,0,.4,-.2,.4,-.4c0,-.2,-.2,-.4,-.4,-.4c-.2,0,-.4,.2,-.4,.4c0,.2,.2,.4,.4,.4m1.5,0v0c.2,0,.4,-.2,.4,-.4c0,-.2,-.2,-.4,-.4,-.4c-.2,0,-.4,.2,-.4,.4c0,.2,.2,.4,.4,.4m1.5,0v0c.3,0,.4,-.2,.4,-.4c0,-.2,-.1,-.4,-.4,-.4c-.2,0,-.3,.2,-.3,.4c0,.2,.1,.4,.3,.4m1.6,0v0c.2,0,.4,-.2,.4,-.4c0,-.2,-.2,-.4,-.4,-.4c-.2,0,-.4,.2,-.4,.4c0,.2,.2,.4,.4,.4m1.5,0v0c.2,0,.4,-.2,.4,-.4c0,-.2,-.2,-.4,-.4,-.4c-.2,0,-.4,.2,-.4,.4c0,.2,.2,.4,.4,.4m1.5,0v0c.2,0,.4,-.2,.4,-.4c0,-.2,-.2,-.4,-.4,-.4c-.2,0,-.4,.2,-.4,.4c0,.2,.2,.4,.4,.4m1.6,0v0c.2,0,.3,-.2,.3,-.4c0,-.2,-.1,-.4,-.3,-.4c-.3,0,-.4,.2,-.4,.4c0,.2,.1,.4,.4,.4m1.5,0v0c.2,0,.4,-.2,.4,-.4c0,-.2,-.2,-.4,-.4,-.4c-.2,0,-.4,.2,-.4,.4c0,.2,.2,.4,.4,.4m1.5,0v0c.2,0,.4,-.2,.4,-.4c0,-.2,-.2,-.4,-.4,-.4c-.2,0,-.4,.2,-.4,.4c0,.2,.2,.4,.4,.4m1.5,0v0c.3,0,.4,-.2,.4,-.4c0,-.2,-.1,-.4,-.4,-.4c-.2,0,-.3,.2,-.3,.4c0,.2,.1,.4,.3,.4m1.6,0v0c.2,0,.4,-.2,.4,-.4c0,-.2,-.2,-.4,-.4,-.4c-.2,0,-.4,.2,-.4,.4c0,.2,.2,.4,.4,.4m1.5,0v0c.2,0,.4,-.2,.4,-.4c0,-.2,-.2,-.4,-.4,-.4c-.2,0,-.4,.2,-.4,.4c0,.2,.2,.4,.4,.4m1.5,0v0c.2,0,.4,-.2,.4,-.4c0,-.2,-.2,-.4,-.4,-.4c-.2,0,-.4,.2,-.4,.4c0,.2,.2,.4,.4,.4m1.6,0v0c.2,0,.3,-.2,.3,-.4c0,-.2,-.1,-.4,-.3,-.4c-.3,0,-.4,.2,-.4,.4c0,.2,.1,.4,.4,.4m1.5,0v0c.2,0,.4,-.2,.4,-.4c0,-.2,-.2,-.4,-.4,-.4c-.2,0,-.4,.2,-.4,.4c0,.2,.2,.4,.4,.4m1.5,0v0c.2,0,.4,-.2,.4,-.4c0,-.2,-.2,-.4,-.4,-.4c-.2,0,-.4,.2,-.4,.4c0,.2,.2,.4,.4,.4m1.5,0v0c.3,0,.4,-.2,.4,-.4c0,-.2,-.1,-.4,-.4,-.4c-.2,0,-.3,.2,-.3,.4c0,.2,.1,.4,.3,.4m1.6,0v0c.2,0,.4,-.2,.4,-.4c0,-.2,-.2,-.4,-.4,-.4c-.2,0,-.4,.2,-.4,.4c0,.2,.2,.4,.4,.4m1.5,0v0c.2,0,.4,-.2,.4,-.4c0,-.2,-.2,-.4,-.4,-.4c-.2,0,-.4,.2,-.4,.4c0,.2,.2,.4,.4,.4m1.5,0v0c.2,0,.4,-.2,.4,-.4c0,-.2,-.2,-.4,-.4,-.4c-.2,0,-.4,.2,-.4,.4c0,.2,.2,.4,.4,.4m1.6,0v0c.2,0,.3,-.2,.3,-.4c0,-.2,-.1,-.4,-.3,-.4c-.3,0,-.4,.2,-.4,.4c0,.2,.1,.4,.4,.4m1.5,0v0c.2,0,.4,-.2,.4,-.4c0,-.2,-.2,-.4,-.4,-.4c-.2,0,-.4,.2,-.4,.4c0,.2,.2,.4,.4,.4m1.5,0v0c.2,0,.4,-.2,.4,-.4c0,-.2,-.2,-.4,-.4,-.4c-.2,0,-.4,.2,-.4,.4c0,.2,.2,.4,.4,.4m1.5,0v0c.3,0,.4,-.2,.4,-.4c0,-.2,-.1,-.4,-.4,-.4c-.2,0,-.3,.2,-.3,.4c0,.2,.1,.4,.3,.4m1.6,0v0c.2,0,.4,-.2,.4,-.4c0,-.2,-.2,-.4,-.4,-.4c-.2,0,-.4,.2,-.4,.4c0,.2,.2,.4,.4,.4m1.5,0v0c.2,0,.4,-.2,.4,-.4c0,-.2,-.2,-.4,-.4,-.4c-.2,0,-.4,.2,-.4,.4c0,.2,.2,.4,.4,.4m1.5,0v0c.2,0,.4,-.2,.4,-.4c0,-.2,-.2,-.4,-.4,-.4c-.2,0,-.4,.2,-.4,.4c0,.2,.2,.4,.4,.4m1.6,0v0c.2,0,.3,-.2,.3,-.4c0,-.2,-.1,-.4,-.3,-.4c-.3,0,-.4,.2,-.4,.4c0,.2,.1,.4,.4,.4m1.5,0v0c.2,0,.4,-.2,.4,-.4c0,-.2,-.2,-.4,-.4,-.4c-.2,0,-.4,.2,-.4,.4c0,.2,.2,.4,.4,.4m1.5,0v0c.2,0,.4,-.2,.4,-.4c0,-.2,-.2,-.4,-.4,-.4c-.2,0,-.4,.2,-.4,.4c0,.2,.2,.4,.4,.4m1.5,0v0c.3,0,.4,-.2,.4,-.4c0,-.2,-.1,-.4,-.4,-.4c-.2,0,-.3,.2,-.3,.4c0,.2,.1,.4,.3,.4m1.6,0v0c.2,0,.4,-.2,.4,-.4c0,-.2,-.2,-.4,-.4,-.4c-.2,0,-.4,.2,-.4,.4c0,.2,.2,.4,.4,.4m1.5,0v0c.2,0,.4,-.2,.4,-.4c0,-.2,-.2,-.4,-.4,-.4c-.2,0,-.4,.2,-.4,.4c0,.2,.2,.4,.4,.4m1.5,0v0c.2,0,.4,-.2,.4,-.4c0,-.2,-.2,-.4,-.4,-.4c-.2,0,-.4,.2,-.4,.4c0,.2,.2,.4,.4,.4m1.6,0v0c.2,0,.3,-.2,.3,-.4c0,-.2,-.1,-.4,-.3,-.4c-.3,0,-.4,.2,-.4,.4c0,.2,.1,.4,.4,.4m1.5,0v0c.2,0,.4,-.2,.4,-.4c0,-.2,-.2,-.4,-.4,-.4c-.2,0,-.4,.2,-.4,.4c0,.2,.2,.4,.4,.4m1.5,0v0c.2,0,.4,-.2,.4,-.4c0,-.2,-.2,-.4,-.4,-.4c-.2,0,-.4,.2,-.4,.4c0,.2,.2,.4,.4,.4m1.5,0v0c.3,0,.4,-.2,.4,-.4c0,-.2,-.1,-.4,-.4,-.4c-.2,0,-.3,.2,-.3,.4c0,.2,.1,.4,.3,.4m1.6,0v0c.2,0,.4,-.2,.4,-.4c0,-.2,-.2,-.4,-.4,-.4c-.2,0,-.4,.2,-.4,.4c0,.2,.2,.4,.4,.4m1.5,0v0c.2,0,.4,-.2,.4,-.4c0,-.2,-.2,-.4,-.4,-.4c-.2,0,-.4,.2,-.4,.4c0,.2,.2,.4,.4,.4m1.5,0v0c.2,0,.4,-.2,.4,-.4c0,-.2,-.2,-.4,-.4,-.4c-.2,0,-.4,.2,-.4,.4c0,.2,.2,.4,.4,.4m1.6,0v0c.2,0,.3,-.2,.3,-.4c0,-.2,-.1,-.4,-.3,-.4c-.3,0,-.4,.2,-.4,.4c0,.2,.1,.4,.4,.4m1.5,0v0c.2,0,.4,-.2,.4,-.4c0,-.2,-.2,-.4,-.4,-.4c-.2,0,-.4,.2,-.4,.4c0,.2,.2,.4,.4,.4m1.5,0v0c.2,0,.4,-.2,.4,-.4c0,-.2,-.2,-.4,-.4,-.4c-.2,0,-.4,.2,-.4,.4c0,.2,.2,.4,.4,.4m1.5,0v0c.3,0,.4,-.2,.4,-.4c0,-.2,-.1,-.4,-.4,-.4c-.2,0,-.3,.2,-.3,.4c0,.2,.1,.4,.3,.4m1.6,0v0c.2,0,.4,-.2,.4,-.4c0,-.2,-.2,-.4,-.4,-.4c-.2,0,-.4,.2,-.4,.4c0,.2,.2,.4,.4,.4m1.5,0v0c.2,0,.4,-.2,.4,-.4c0,-.2,-.2,-.4,-.4,-.4c-.2,0,-.4,.2,-.4,.4c0,.2,.2,.4,.4,.4m1.5,0v0c.2,0,.4,-.2,.4,-.4c0,-.2,-.2,-.4,-.4,-.4c-.2,0,-.4,.2,-.4,.4c0,.2,.2,.4,.4,.4m1.6,0v0c.2,0,.3,-.2,.3,-.4c0,-.2,-.1,-.4,-.3,-.4c-.3,0,-.4,.2,-.4,.4c0,.2,.1,.4,.4,.4m1.5,0v0c.2,0,.4,-.2,.4,-.4c0,-.2,-.2,-.4,-.4,-.4c-.2,0,-.4,.2,-.4,.4c0,.2,.2,.4,.4,.4m1.5,0v0c.2,0,.4,-.2,.4,-.4c0,-.2,-.2,-.4,-.4,-.4c-.2,0,-.4,.2,-.4,.4c0,.2,.2,.4,.4,.4m1.5,0v0c.3,0,.4,-.2,.4,-.4c0,-.2,-.1,-.4,-.4,-.4c-.2,0,-.3,.2,-.3,.4c0,.2,.1,.4,.3,.4m1.6,0v0c.2,0,.4,-.2,.4,-.4c0,-.2,-.2,-.4,-.4,-.4c-.2,0,-.4,.2,-.4,.4c0,.2,.2,.4,.4,.4m1.5,0v0c.2,0,.4,-.2,.4,-.4c0,-.2,-.2,-.4,-.4,-.4c-.2,0,-.4,.2,-.4,.4c0,.2,.2,.4,.4,.4m1.5,0v0c.2,0,.4,-.2,.4,-.4c0,-.2,-.2,-.4,-.4,-.4c-.2,0,-.3,.2,-.3,.4c0,.2,.1,.4,.3,.4m1.6,0v0c.2,0,.3,-.2,.3,-.4c0,-.2,-.1,-.4,-.3,-.4c-.3,0,-.4,.2,-.4,.4c0,.2,.1,.4,.4,.4m1.5,0v0c.2,0,.4,-.2,.4,-.4c0,-.2,-.2,-.4,-.4,-.4c-.2,0,-.4,.2,-.4,.4c0,.2,.2,.4,.4,.4m1.5,0v0c.2,0,.4,-.2,.4,-.4c0,-.2,-.2,-.4,-.4,-.4c-.2,0,-.4,.2,-.4,.4c0,.2,.2,.4,.4,.4m1.5,0v0c.3,0,.4,-.2,.4,-.4c0,-.2,-.1,-.4,-.4,-.4c-.2,0,-.3,.2,-.3,.4c0,.2,.1,.4,.3,.4m1.6,0v0c.2,0,.4,-.2,.4,-.4c0,-.2,-.2,-.4,-.4,-.4c-.2,0,-.4,.2,-.4,.4c0,.2,.2,.4,.4,.4m1.5,0v0c.2,0,.4,-.2,.4,-.4c0,-.2,-.2,-.4,-.4,-.4c-.2,0,-.4,.2,-.4,.4c0,.2,.2,.4,.4,.4m1.5,0v0c.2,0,.4,-.2,.4,-.4c0,-.2,-.2,-.4,-.4,-.4c-.2,0,-.4,.2,-.4,.4c0,.2,.2,.4,.4,.4m1.6,0v0c.2,0,.3,-.2,.3,-.4c0,-.2,-.1,-.4,-.3,-.4c-.3,0,-.4,.2,-.4,.4c0,.2,.1,.4,.4,.4m1.5,0v0c.2,0,.4,-.2,.4,-.4c0,-.2,-.2,-.4,-.4,-.4c-.2,0,-.4,.2,-.4,.4c0,.2,.2,.4,.4,.4m1.5,0v0c.2,0,.4,-.2,.4,-.4c0,-.2,-.2,-.4,-.4,-.4c-.2,0,-.4,.2,-.4,.4c0,.2,.2,.4,.4,.4m1.5,0v0c.3,0,.4,-.2,.4,-.4c0,-.2,-.1,-.4,-.4,-.4c-.2,0,-.3,.2,-.3,.4c0,.2,.1,.4,.3,.4m1.6,0v0c.2,0,.4,-.2,.4,-.4c0,-.2,-.2,-.4,-.4,-.4c-.2,0,-.4,.2,-.4,.4c0,.2,.2,.4,.4,.4m1.5,0v0c.2,0,.4,-.2,.4,-.4c0,-.2,-.2,-.4,-.4,-.4c-.2,0,-.4,.2,-.4,.4c0,.2,.2,.4,.4,.4m1.5,0v0c.2,0,.4,-.2,.4,-.4c0,-.2,-.2,-.4,-.4,-.4c-.2,0,-.4,.2,-.4,.4c0,.2,.2,.4,.4,.4m1.6,0v0c.2,0,.3,-.2,.3,-.4c0,-.2,-.1,-.4,-.3,-.4c-.3,0,-.4,.2,-.4,.4c0,.2,.1,.4,.4,.4m1.5,0v0c.2,0,.4,-.2,.4,-.4c0,-.2,-.2,-.4,-.4,-.4c-.2,0,-.4,.2,-.4,.4c0,.2,.2,.4,.4,.4m1.5,0v0c.2,0,.4,-.2,.4,-.4c0,-.2,-.2,-.4,-.4,-.4c-.2,0,-.4,.2,-.4,.4c0,.2,.2,.4,.4,.4m1.5,0v0c.3,0,.4,-.2,.4,-.4c0,-.2,-.1,-.4,-.4,-.4c-.2,0,-.3,.2,-.3,.4c0,.2,.1,.4,.3,.4m1.6,0v0c.2,0,.4,-.2,.4,-.4c0,-.2,-.2,-.4,-.4,-.4c-.2,0,-.4,.2,-.4,.4c0,.2,.2,.4,.4,.4m1.5,0v0c.2,0,.4,-.2,.4,-.4c0,-.2,-.2,-.4,-.4,-.4c-.2,0,-.4,.2,-.4,.4c0,.2,.2,.4,.4,.4m1.5,0v0c.2,0,.4,-.2,.4,-.4c0,-.2,-.2,-.4,-.4,-.4c-.2,0,-.3,.2,-.3,.4c0,.2,.1,.4,.3,.4m1.6,0v0c.2,0,.3,-.2,.3,-.4c0,-.2,-.1,-.4,-.3,-.4c-.3,0,-.4,.2,-.4,.4c0,.2,.1,.4,.4,.4m1.5,0v0c.2,0,.4,-.2,.4,-.4c0,-.2,-.2,-.4,-.4,-.4c-.2,0,-.4,.2,-.4,.4c0,.2,.2,.4,.4,.4m1.5,0v0c.2,0,.4,-.2,.4,-.4c0,-.2,-.2,-.4,-.4,-.4c-.2,0,-.4,.2,-.4,.4c0,.2,.2,.4,.4,.4m1.5,0v0c.3,0,.4,-.2,.4,-.4c0,-.2,-.1,-.4,-.4,-.4c-.2,0,-.3,.2,-.3,.4c0,.2,.1,.4,.3,.4m1.6,0v0c.2,0,.4,-.2,.4,-.4c0,-.2,-.2,-.4,-.4,-.4c-.2,0,-.4,.2,-.4,.4c0,.2,.2,.4,.4,.4m1.5,0v0c.2,0,.4,-.2,.4,-.4c0,-.2,-.2,-.4,-.4,-.4c-.2,0,-.4,.2,-.4,.4c0,.2,.2,.4,.4,.4m1.5,0v0c.2,0,.4,-.2,.4,-.4c0,-.2,-.2,-.4,-.4,-.4c-.2,0,-.4,.2,-.4,.4c0,.2,.2,.4,.4,.4m1.6,0v0c.2,0,.3,-.2,.3,-.4c0,-.2,-.1,-.4,-.3,-.4c-.3,0,-.4,.2,-.4,.4c0,.2,.1,.4,.4,.4m1.5,0v0c.2,0,.4,-.2,.4,-.4c0,-.2,-.2,-.4,-.4,-.4c-.2,0,-.4,.2,-.4,.4c0,.2,.2,.4,.4,.4m1.5,0v0c.2,0,.4,-.2,.4,-.4c0,-.2,-.2,-.4,-.4,-.4c-.2,0,-.4,.2,-.4,.4c0,.2,.2,.4,.4,.4m1.5,0v0c.3,0,.4,-.2,.4,-.4c0,-.2,-.1,-.4,-.4,-.4c-.2,0,-.3,.2,-.3,.4c0,.2,.1,.4,.3,.4m1.6,0v0c.2,0,.4,-.2,.4,-.4c0,-.2,-.2,-.4,-.4,-.4c-.2,0,-.4,.2,-.4,.4c0,.2,.2,.4,.4,.4m1.5,0v0c.2,0,.4,-.2,.4,-.4c0,-.2,-.2,-.4,-.4,-.4c-.2,0,-.4,.2,-.4,.4c0,.2,.2,.4,.4,.4m1.5,0v0c.2,0,.4,-.2,.4,-.4c0,-.2,-.2,-.4,-.4,-.4c-.2,0,-.3,.2,-.3,.4c0,.2,.1,.4,.3,.4m1.6,0v0c.2,0,.3,-.2,.3,-.4c0,-.2,-.1,-.4,-.3,-.4c-.2,0,-.4,.2,-.4,.4c0,.2,.2,.4,.4,.4m1.5,0v0c.2,0,.4,-.2,.4,-.4c0,-.2,-.2,-.4,-.4,-.4c-.2,0,-.4,.2,-.4,.4c0,.2,.2,.4,.4,.4m1.5,0v0c.2,0,.4,-.2,.4,-.4c0,-.2,-.2,-.4,-.4,-.4c-.2,0,-.4,.2,-.4,.4c0,.2,.2,.4,.4,.4m1.5,0v0c.3,0,.4,-.2,.4,-.4c0,-.2,-.1,-.4,-.4,-.4c-.2,0,-.3,.2,-.3,.4c0,.2,.1,.4,.3,.4m1.6,0v0c.2,0,.4,-.2,.4,-.4c0,-.2,-.2,-.4,-.4,-.4c-.2,0,-.4,.2,-.4,.4c0,.2,.2,.4,.4,.4m1.5,0v0c.2,0,.4,-.2,.4,-.4c0,-.2,-.2,-.4,-.4,-.4c-.2,0,-.4,.2,-.4,.4c0,.2,.2,.4,.4,.4m1.5,0v0c.2,0,.4,-.2,.4,-.4c0,-.2,-.2,-.4,-.4,-.4c-.2,0,-.3,.2,-.3,.4c0,.2,.1,.4,.3,.4m1.6,0v0c.2,0,.3,-.2,.3,-.4c0,-.2,-.1,-.4,-.3,-.4c-.3,0,-.4,.2,-.4,.4c0,.2,.1,.4,.4,.4m1.5,0v0c.2,0,.4,-.2,.4,-.4c0,-.2,-.2,-.4,-.4,-.4c-.2,0,-.4,.2,-.4,.4c0,.2,.2,.4,.4,.4m1.5,0v0c.2,0,.4,-.2,.4,-.4c0,-.2,-.2,-.4,-.4,-.4c-.2,0,-.4,.2,-.4,.4c0,.2,.2,.4,.4,.4m1.5,0v0c.3,0,.4,-.2,.4,-.4c0,-.2,-.1,-.4,-.4,-.4c-.2,0,-.3,.2,-.3,.4c0,.2,.1,.4,.3,.4m1.6,0v0c.2,0,.4,-.2,.4,-.4c0,-.2,-.2,-.4,-.4,-.4c-.2,0,-.4,.2,-.4,.4c0,.2,.2,.4,.4,.4m1.5,0v0c.2,0,.4,-.2,.4,-.4c0,-.2,-.2,-.4,-.4,-.4c-.2,0,-.4,.2,-.4,.4c0,.2,.2,.4,.4,.4m1.5,0v0c.2,0,.4,-.2,.4,-.4c0,-.2,-.2,-.4,-.4,-.4c-.2,0,-.3,.2,-.3,.4c0,.2,.1,.4,.3,.4m1.6,0v0c.2,0,.3,-.2,.3,-.4c0,-.2,-.1,-.4,-.3,-.4c-.2,0,-.4,.2,-.4,.4c0,.2,.2,.4,.4,.4m1.5,0v0c.2,0,.4,-.2,.4,-.4c0,-.2,-.2,-.4,-.4,-.4c-.2,0,-.4,.2,-.4,.4c0,.2,.2,.4,.4,.4m1.5,0v0c.2,0,.4,-.2,.4,-.4c0,-.2,-.2,-.4,-.4,-.4c-.2,0,-.4,.2,-.4,.4c0,.2,.2,.4,.4,.4m1.5,0v0c.3,0,.4,-.2,.4,-.4c0,-.2,-.1,-.4,-.4,-.4c-.2,0,-.3,.2,-.3,.4c0,.2,.1,.4,.3,.4m1.6,0v0c.2,0,.4,-.2,.4,-.4c0,-.2,-.2,-.4,-.4,-.4c-.2,0,-.4,.2,-.4,.4c0,.2,.2,.4,.4,.4m1.5,0v0c.2,0,.4,-.2,.4,-.4c0,-.2,-.2,-.4,-.4,-.4c-.2,0,-.4,.2,-.4,.4c0,.2,.2,.4,.4,.4m1.5,0v0c.2,0,.4,-.2,.4,-.4c0,-.2,-.2,-.4,-.4,-.4c-.2,0,-.3,.2,-.3,.4c0,.2,.1,.4,.3,.4m1.6,0v0c.2,0,.3,-.2,.3,-.4c0,-.2,-.1,-.4,-.3,-.4c-.2,0,-.4,.2,-.4,.4c0,.2,.2,.4,.4,.4m1.5,0v0c.2,0,.4,-.2,.4,-.4c0,-.2,-.2,-.4,-.4,-.4c-.2,0,-.4,.2,-.4,.4c0,.2,.2,.4,.4,.4m1.5,0v0c.2,0,.4,-.2,.4,-.4c0,-.2,-.2,-.4,-.4,-.4c-.2,0,-.4,.2,-.4,.4c0,.2,.2,.4,.4,.4m1.5,0v0c.3,0,.4,-.2,.4,-.4c0,-.2,-.1,-.4,-.4,-.4c-.2,0,-.3,.2,-.3,.4c0,.2,.1,.4,.3,.4m1.6,0v0c.2,0,.4,-.2,.4,-.4c0,-.2,-.2,-.4,-.4,-.4c-.2,0,-.4,.2,-.4,.4c0,.2,.2,.4,.4,.4m1.5,0v0c.2,0,.4,-.2,.4,-.4c0,-.2,-.2,-.4,-.4,-.4c-.2,0,-.4,.2,-.4,.4c0,.2,.2,.4,.4,.4m1.5,0v0c.2,0,.4,-.2,.4,-.4c0,-.2,-.2,-.4,-.4,-.4c-.2,0,-.3,.2,-.3,.4c0,.2,.1,.4,.3,.4m1.6,0v0c.2,0,.3,-.2,.3,-.4c0,-.2,-.1,-.4,-.3,-.4c-.2,0,-.4,.2,-.4,.4c0,.2,.2,.4,.4,.4m1.5,0v0c.2,0,.4,-.2,.4,-.4c0,-.2,-.2,-.4,-.4,-.4c-.2,0,-.4,.2,-.4,.4c0,.2,.2,.4,.4,.4m1.5,0v0c.2,0,.4,-.2,.4,-.4c0,-.2,-.2,-.4,-.4,-.4c-.2,0,-.4,.2,-.4,.4c0,.2,.2,.4,.4,.4m1.5,0v0c.3,0,.4,-.2,.4,-.4c0,-.2,-.1,-.4,-.4,-.4c-.2,0,-.3,.2,-.3,.4c0,.2,.1,.4,.3,.4m1.6,0v0c.2,0,.4,-.2,.4,-.4c0,-.2,-.2,-.4,-.4,-.4c-.2,0,-.4,.2,-.4,.4c0,.2,.2,.4,.4,.4m1.5,0v0c.2,0,.4,-.2,.4,-.4c0,-.2,-.2,-.4,-.4,-.4c-.2,0,-.4,.2,-.4,.4c0,.2,.2,.4,.4,.4m1.5,0v0c.2,0,.4,-.2,.4,-.4c0,-.2,-.2,-.4,-.4,-.4c-.2,0,-.3,.2,-.3,.4c0,.2,.1,.4,.3,.4m1.6,0v0c.2,0,.3,-.2,.3,-.4c0,-.2,-.1,-.4,-.3,-.4c-.2,0,-.4,.2,-.4,.4c0,.2,.2,.4,.4,.4Z" class="g7_23"/>
<path clip-path="url(#ct_23)" d="M39.4,863.5l.2,-.1l.1,-.3l-.1,-.3l-.2,-.1l-.3,.1l-.1,.3l.1,.3Zm215.5,0l.3,-.1l.1,-.3l-.1,-.3l-.3,-.1l-.3,.1l-.1,.3l.1,.3Z" class="g7_23"/>
<path d="M256.4,863.5v0c.2,0,.4,-.2,.4,-.4c0,-.2,-.2,-.4,-.4,-.4c-.2,0,-.4,.2,-.4,.4c0,.2,.2,.4,.4,.4m1.5,0v0c.2,0,.4,-.2,.4,-.4c0,-.2,-.2,-.4,-.4,-.4c-.2,0,-.4,.2,-.4,.4c0,.2,.2,.4,.4,.4m1.5,0v0c.2,0,.4,-.2,.4,-.4c0,-.2,-.2,-.4,-.4,-.4c-.2,0,-.4,.2,-.4,.4c0,.2,.2,.4,.4,.4m1.5,0v0c.2,0,.4,-.2,.4,-.4c0,-.2,-.2,-.4,-.4,-.4c-.2,0,-.4,.2,-.4,.4c0,.2,.2,.4,.4,.4m1.5,0v0c.3,0,.4,-.2,.4,-.4c0,-.2,-.1,-.4,-.4,-.4c-.2,0,-.3,.2,-.3,.4c0,.2,.1,.4,.3,.4m1.6,0v0c.2,0,.3,-.2,.3,-.4c0,-.2,-.1,-.4,-.3,-.4c-.3,0,-.4,.2,-.4,.4c0,.2,.1,.4,.4,.4m1.5,0v0c.2,0,.3,-.2,.3,-.4c0,-.2,-.1,-.4,-.3,-.4c-.2,0,-.4,.2,-.4,.4c0,.2,.2,.4,.4,.4m1.5,0v0c.2,0,.4,-.2,.4,-.4c0,-.2,-.2,-.4,-.4,-.4c-.2,0,-.4,.2,-.4,.4c0,.2,.2,.4,.4,.4m1.5,0v0c.2,0,.4,-.2,.4,-.4c0,-.2,-.2,-.4,-.4,-.4c-.2,0,-.4,.2,-.4,.4c0,.2,.2,.4,.4,.4m1.5,0v0c.2,0,.4,-.2,.4,-.4c0,-.2,-.2,-.4,-.4,-.4c-.2,0,-.4,.2,-.4,.4c0,.2,.2,.4,.4,.4m1.5,0v0c.2,0,.4,-.2,.4,-.4c0,-.2,-.2,-.4,-.4,-.4c-.2,0,-.4,.2,-.4,.4c0,.2,.2,.4,.4,.4m1.5,0v0c.2,0,.4,-.2,.4,-.4c0,-.2,-.2,-.4,-.4,-.4c-.2,0,-.4,.2,-.4,.4c0,.2,.2,.4,.4,.4m1.5,0v0c.2,0,.4,-.2,.4,-.4c0,-.2,-.2,-.4,-.4,-.4c-.2,0,-.4,.2,-.4,.4c0,.2,.2,.4,.4,.4m1.5,0v0c.2,0,.4,-.2,.4,-.4c0,-.2,-.2,-.4,-.4,-.4c-.2,0,-.3,.2,-.3,.4c0,.2,.1,.4,.3,.4m1.5,0v0c.3,0,.4,-.2,.4,-.4c0,-.2,-.1,-.4,-.4,-.4c-.2,0,-.3,.2,-.3,.4c0,.2,.1,.4,.3,.4m1.6,0v0c.2,0,.3,-.2,.3,-.4c0,-.2,-.1,-.4,-.3,-.4c-.3,0,-.4,.2,-.4,.4c0,.2,.1,.4,.4,.4m1.5,0v0c.2,0,.3,-.2,.3,-.4c0,-.2,-.1,-.4,-.3,-.4c-.2,0,-.4,.2,-.4,.4c0,.2,.2,.4,.4,.4m1.5,0v0c.2,0,.4,-.2,.4,-.4c0,-.2,-.2,-.4,-.4,-.4c-.2,0,-.4,.2,-.4,.4c0,.2,.2,.4,.4,.4m1.5,0v0c.2,0,.4,-.2,.4,-.4c0,-.2,-.2,-.4,-.4,-.4c-.2,0,-.4,.2,-.4,.4c0,.2,.2,.4,.4,.4m1.5,0v0c.2,0,.4,-.2,.4,-.4c0,-.2,-.2,-.4,-.4,-.4c-.2,0,-.4,.2,-.4,.4c0,.2,.2,.4,.4,.4m1.5,0v0c.2,0,.4,-.2,.4,-.4c0,-.2,-.2,-.4,-.4,-.4c-.2,0,-.4,.2,-.4,.4c0,.2,.2,.4,.4,.4m1.5,0v0c.2,0,.4,-.2,.4,-.4c0,-.2,-.2,-.4,-.4,-.4c-.2,0,-.4,.2,-.4,.4c0,.2,.2,.4,.4,.4m1.5,0v0c.2,0,.4,-.2,.4,-.4c0,-.2,-.2,-.4,-.4,-.4c-.2,0,-.4,.2,-.4,.4c0,.2,.2,.4,.4,.4m1.5,0v0c.2,0,.4,-.2,.4,-.4c0,-.2,-.2,-.4,-.4,-.4c-.2,0,-.3,.2,-.3,.4c0,.2,.1,.4,.3,.4m1.5,0v0c.3,0,.4,-.2,.4,-.4c0,-.2,-.1,-.4,-.4,-.4c-.2,0,-.3,.2,-.3,.4c0,.2,.1,.4,.3,.4m1.6,0v0c.2,0,.3,-.2,.3,-.4c0,-.2,-.1,-.4,-.3,-.4c-.3,0,-.4,.2,-.4,.4c0,.2,.1,.4,.4,.4m1.5,0v0c.2,0,.3,-.2,.3,-.4c0,-.2,-.1,-.4,-.3,-.4c-.2,0,-.4,.2,-.4,.4c0,.2,.2,.4,.4,.4m1.5,0v0c.2,0,.4,-.2,.4,-.4c0,-.2,-.2,-.4,-.4,-.4c-.2,0,-.4,.2,-.4,.4c0,.2,.2,.4,.4,.4m1.5,0v0c.2,0,.4,-.2,.4,-.4c0,-.2,-.2,-.4,-.4,-.4c-.2,0,-.4,.2,-.4,.4c0,.2,.2,.4,.4,.4m1.5,0v0c.2,0,.4,-.2,.4,-.4c0,-.2,-.2,-.4,-.4,-.4c-.2,0,-.4,.2,-.4,.4c0,.2,.2,.4,.4,.4m1.5,0v0c.2,0,.4,-.2,.4,-.4c0,-.2,-.2,-.4,-.4,-.4c-.2,0,-.4,.2,-.4,.4c0,.2,.2,.4,.4,.4m1.5,0v0c.2,0,.4,-.2,.4,-.4c0,-.2,-.2,-.4,-.4,-.4c-.2,0,-.4,.2,-.4,.4c0,.2,.2,.4,.4,.4m1.5,0v0c.2,0,.4,-.2,.4,-.4c0,-.2,-.2,-.4,-.4,-.4c-.2,0,-.4,.2,-.4,.4c0,.2,.2,.4,.4,.4m1.5,0v0c.2,0,.4,-.2,.4,-.4c0,-.2,-.2,-.4,-.4,-.4c-.2,0,-.3,.2,-.3,.4c0,.2,.1,.4,.3,.4Z" class="g7_23"/>
<path d="M254.9,863.5l.3,-.1l.1,-.3l-.1,-.3l-.3,-.1l-.3,.1l-.1,.3l.1,.3Zm52.8,0l.3,-.1l.1,-.3l-.1,-.3l-.3,-.1l-.2,.1l-.1,.3l.1,.3Z" class="g7_23"/>
<path d="M42.8,981.7v0c.4,0,.8,-.4,.8,-.8c0,-.4,-.4,-.8,-.8,-.8c-.4,0,-.8,.4,-.8,.8c0,.4,.4,.8,.8,.8m3.1,0v0c.4,0,.8,-.4,.8,-.8c0,-.4,-.4,-.8,-.8,-.8c-.4,0,-.8,.4,-.8,.8c0,.4,.4,.8,.8,.8m3.1,0v0c.4,0,.7,-.4,.7,-.8c0,-.4,-.3,-.8,-.7,-.8c-.5,0,-.8,.4,-.8,.8c0,.4,.3,.8,.8,.8m3,0v0c.5,0,.8,-.4,.8,-.8c0,-.4,-.3,-.8,-.8,-.8c-.4,0,-.7,.4,-.7,.8c0,.4,.3,.8,.7,.8m3.1,0v0c.4,0,.8,-.4,.8,-.8c0,-.4,-.4,-.8,-.8,-.8c-.4,0,-.8,.4,-.8,.8c0,.4,.4,.8,.8,.8m3.1,0v0c.4,0,.7,-.4,.7,-.8c0,-.4,-.3,-.8,-.7,-.8c-.4,0,-.8,.4,-.8,.8c0,.4,.4,.8,.8,.8m3.1,0v0c.4,0,.7,-.4,.7,-.8c0,-.4,-.3,-.8,-.7,-.8c-.5,0,-.8,.4,-.8,.8c0,.4,.3,.8,.8,.8m3,0v0c.5,0,.8,-.4,.8,-.8c0,-.4,-.3,-.8,-.8,-.8c-.4,0,-.7,.4,-.7,.8c0,.4,.3,.8,.7,.8m3.1,0v0c.4,0,.8,-.4,.8,-.8c0,-.4,-.4,-.8,-.8,-.8c-.4,0,-.8,.4,-.8,.8c0,.4,.4,.8,.8,.8m3.1,0v0c.4,0,.7,-.4,.7,-.8c0,-.4,-.3,-.8,-.7,-.8c-.4,0,-.8,.4,-.8,.8c0,.4,.4,.8,.8,.8m3,0v0c.5,0,.8,-.4,.8,-.8c0,-.4,-.3,-.8,-.8,-.8c-.4,0,-.7,.4,-.7,.8c0,.4,.3,.8,.7,.8m3.1,0v0c.4,0,.8,-.4,.8,-.8c0,-.4,-.4,-.8,-.8,-.8c-.4,0,-.7,.4,-.7,.8c0,.4,.3,.8,.7,.8m3.1,0v0c.4,0,.8,-.4,.8,-.8c0,-.4,-.4,-.8,-.8,-.8c-.4,0,-.8,.4,-.8,.8c0,.4,.4,.8,.8,.8m3.1,0v0c.4,0,.7,-.4,.7,-.8c0,-.4,-.3,-.8,-.7,-.8c-.5,0,-.8,.4,-.8,.8c0,.4,.3,.8,.8,.8m3,0v0c.5,0,.8,-.4,.8,-.8c0,-.4,-.3,-.8,-.8,-.8c-.4,0,-.7,.4,-.7,.8c0,.4,.3,.8,.7,.8m3.1,0v0c.4,0,.8,-.4,.8,-.8c0,-.4,-.4,-.8,-.8,-.8c-.4,0,-.7,.4,-.7,.8c0,.4,.3,.8,.7,.8m3.1,0v0c.4,0,.8,-.4,.8,-.8c0,-.4,-.4,-.8,-.8,-.8c-.4,0,-.8,.4,-.8,.8c0,.4,.4,.8,.8,.8m3.1,0v0c.4,0,.7,-.4,.7,-.8c0,-.4,-.3,-.8,-.7,-.8c-.5,0,-.8,.4,-.8,.8c0,.4,.3,.8,.8,.8m3,0v0c.5,0,.8,-.4,.8,-.8c0,-.4,-.3,-.8,-.8,-.8c-.4,0,-.7,.4,-.7,.8c0,.4,.3,.8,.7,.8m3.1,0v0c.4,0,.8,-.4,.8,-.8c0,-.4,-.4,-.8,-.8,-.8c-.4,0,-.8,.4,-.8,.8c0,.4,.4,.8,.8,.8m3.1,0v0c.4,0,.7,-.4,.7,-.8c0,-.4,-.3,-.8,-.7,-.8c-.4,0,-.8,.4,-.8,.8c0,.4,.4,.8,.8,.8m3.1,0v0c.4,0,.7,-.4,.7,-.8c0,-.4,-.3,-.8,-.7,-.8c-.5,0,-.8,.4,-.8,.8c0,.4,.3,.8,.8,.8m3,0v0c.5,0,.8,-.4,.8,-.8c0,-.4,-.3,-.8,-.8,-.8c-.4,0,-.7,.4,-.7,.8c0,.4,.3,.8,.7,.8m3.1,0v0c.4,0,.8,-.4,.8,-.8c0,-.4,-.4,-.8,-.8,-.8c-.4,0,-.8,.4,-.8,.8c0,.4,.4,.8,.8,.8m3.1,0v0c.4,0,.7,-.4,.7,-.8c0,-.4,-.3,-.8,-.7,-.8c-.4,0,-.8,.4,-.8,.8c0,.4,.4,.8,.8,.8m3.1,0v0c.4,0,.7,-.4,.7,-.8c0,-.4,-.3,-.8,-.7,-.8c-.5,0,-.8,.4,-.8,.8c0,.4,.3,.8,.8,.8m3,0v0c.4,0,.8,-.4,.8,-.8c0,-.4,-.4,-.8,-.8,-.8c-.4,0,-.7,.4,-.7,.8c0,.4,.3,.8,.7,.8m3.1,0v0c.4,0,.8,-.4,.8,-.8c0,-.4,-.4,-.8,-.8,-.8c-.4,0,-.8,.4,-.8,.8c0,.4,.4,.8,.8,.8m3.1,0v0c.4,0,.7,-.4,.7,-.8c0,-.4,-.3,-.8,-.7,-.8c-.4,0,-.8,.4,-.8,.8c0,.4,.4,.8,.8,.8m3,0v0c.5,0,.8,-.4,.8,-.8c0,-.4,-.3,-.8,-.8,-.8c-.4,0,-.7,.4,-.7,.8c0,.4,.3,.8,.7,.8m3.1,0v0c.4,0,.8,-.4,.8,-.8c0,-.4,-.4,-.8,-.8,-.8c-.4,0,-.7,.4,-.7,.8c0,.4,.3,.8,.7,.8m3.1,0v0c.4,0,.8,-.4,.8,-.8c0,-.4,-.4,-.8,-.8,-.8c-.4,0,-.8,.4,-.8,.8c0,.4,.4,.8,.8,.8m3.1,0v0c.4,0,.7,-.4,.7,-.8c0,-.4,-.3,-.8,-.7,-.8c-.5,0,-.8,.4,-.8,.8c0,.4,.3,.8,.8,.8m3,0v0c.5,0,.8,-.4,.8,-.8c0,-.4,-.3,-.8,-.8,-.8c-.4,0,-.7,.4,-.7,.8c0,.4,.3,.8,.7,.8m3.1,0v0c.4,0,.8,-.4,.8,-.8c0,-.4,-.4,-.8,-.8,-.8c-.4,0,-.7,.4,-.7,.8c0,.4,.3,.8,.7,.8m3.1,0v0c.4,0,.8,-.4,.8,-.8c0,-.4,-.4,-.8,-.8,-.8c-.4,0,-.8,.4,-.8,.8c0,.4,.4,.8,.8,.8m3.1,0v0c.4,0,.7,-.4,.7,-.8c0,-.4,-.3,-.8,-.7,-.8c-.5,0,-.8,.4,-.8,.8c0,.4,.3,.8,.8,.8m3,0v0c.5,0,.8,-.4,.8,-.8c0,-.4,-.3,-.8,-.8,-.8c-.4,0,-.7,.4,-.7,.8c0,.4,.3,.8,.7,.8m3.1,0v0c.4,0,.8,-.4,.8,-.8c0,-.4,-.4,-.8,-.8,-.8c-.4,0,-.8,.4,-.8,.8c0,.4,.4,.8,.8,.8m3.1,0v0c.4,0,.7,-.4,.7,-.8c0,-.4,-.3,-.8,-.7,-.8c-.4,0,-.8,.4,-.8,.8c0,.4,.4,.8,.8,.8m3.1,0v0c.4,0,.7,-.4,.7,-.8c0,-.4,-.3,-.8,-.7,-.8c-.5,0,-.8,.4,-.8,.8c0,.4,.3,.8,.8,.8m3,0v0c.5,0,.8,-.4,.8,-.8c0,-.4,-.3,-.8,-.8,-.8c-.4,0,-.7,.4,-.7,.8c0,.4,.3,.8,.7,.8m3.1,0v0c.4,0,.8,-.4,.8,-.8c0,-.4,-.4,-.8,-.8,-.8c-.4,0,-.8,.4,-.8,.8c0,.4,.4,.8,.8,.8m3.1,0v0c.4,0,.7,-.4,.7,-.8c0,-.4,-.3,-.8,-.7,-.8c-.4,0,-.8,.4,-.8,.8c0,.4,.4,.8,.8,.8m3.1,0v0c.4,0,.7,-.4,.7,-.8c0,-.4,-.3,-.8,-.7,-.8c-.5,0,-.8,.4,-.8,.8c0,.4,.3,.8,.8,.8m3,0v0c.4,0,.8,-.4,.8,-.8c0,-.4,-.4,-.8,-.8,-.8c-.4,0,-.7,.4,-.7,.8c0,.4,.3,.8,.7,.8m3.1,0v0c.4,0,.8,-.4,.8,-.8c0,-.4,-.4,-.8,-.8,-.8c-.4,0,-.8,.4,-.8,.8c0,.4,.4,.8,.8,.8m3.1,0v0c.4,0,.7,-.4,.7,-.8c0,-.4,-.3,-.8,-.7,-.8c-.5,0,-.8,.4,-.8,.8c0,.4,.3,.8,.8,.8m3,0v0c.5,0,.8,-.4,.8,-.8c0,-.4,-.3,-.8,-.8,-.8c-.4,0,-.7,.4,-.7,.8c0,.4,.3,.8,.7,.8m3.1,0v0c.4,0,.8,-.4,.8,-.8c0,-.4,-.4,-.8,-.8,-.8c-.4,0,-.7,.4,-.7,.8c0,.4,.3,.8,.7,.8m3.1,0v0c.4,0,.8,-.4,.8,-.8c0,-.4,-.4,-.8,-.8,-.8c-.4,0,-.8,.4,-.8,.8c0,.4,.4,.8,.8,.8m3.1,0v0c.4,0,.7,-.4,.7,-.8c0,-.4,-.3,-.8,-.7,-.8c-.5,0,-.8,.4,-.8,.8c0,.4,.3,.8,.8,.8m3,0v0c.5,0,.8,-.4,.8,-.8c0,-.4,-.3,-.8,-.8,-.8c-.4,0,-.7,.4,-.7,.8c0,.4,.3,.8,.7,.8m3.1,0v0c.4,0,.8,-.4,.8,-.8c0,-.4,-.4,-.8,-.8,-.8c-.4,0,-.8,.4,-.8,.8c0,.4,.4,.8,.8,.8m3.1,0v0c.4,0,.8,-.4,.8,-.8c0,-.4,-.4,-.8,-.8,-.8c-.4,0,-.8,.4,-.8,.8c0,.4,.4,.8,.8,.8m3.1,0v0c.4,0,.7,-.4,.7,-.8c0,-.4,-.3,-.8,-.7,-.8c-.5,0,-.8,.4,-.8,.8c0,.4,.3,.8,.8,.8m3,0v0c.5,0,.8,-.4,.8,-.8c0,-.4,-.3,-.8,-.8,-.8c-.4,0,-.7,.4,-.7,.8c0,.4,.3,.8,.7,.8m3.1,0v0c.4,0,.8,-.4,.8,-.8c0,-.4,-.4,-.8,-.8,-.8c-.4,0,-.8,.4,-.8,.8c0,.4,.4,.8,.8,.8m3.1,0v0c.4,0,.7,-.4,.7,-.8c0,-.4,-.3,-.8,-.7,-.8c-.4,0,-.8,.4,-.8,.8c0,.4,.4,.8,.8,.8m3.1,0v0c.4,0,.7,-.4,.7,-.8c0,-.4,-.3,-.8,-.7,-.8c-.5,0,-.8,.4,-.8,.8c0,.4,.3,.8,.8,.8m3,0v0c.5,0,.8,-.4,.8,-.8c0,-.4,-.3,-.8,-.8,-.8c-.4,0,-.7,.4,-.7,.8c0,.4,.3,.8,.7,.8m3.1,0v0c.4,0,.8,-.4,.8,-.8c0,-.4,-.4,-.8,-.8,-.8c-.4,0,-.8,.4,-.8,.8c0,.4,.4,.8,.8,.8m3.1,0v0c.4,0,.7,-.4,.7,-.8c0,-.4,-.3,-.8,-.7,-.8c-.4,0,-.8,.4,-.8,.8c0,.4,.4,.8,.8,.8m3,0v0c.5,0,.8,-.4,.8,-.8c0,-.4,-.3,-.8,-.8,-.8c-.4,0,-.7,.4,-.7,.8c0,.4,.3,.8,.7,.8m3.1,0v0c.4,0,.8,-.4,.8,-.8c0,-.4,-.4,-.8,-.8,-.8c-.4,0,-.7,.4,-.7,.8c0,.4,.3,.8,.7,.8m3.1,0v0c.4,0,.8,-.4,.8,-.8c0,-.4,-.4,-.8,-.8,-.8c-.4,0,-.8,.4,-.8,.8c0,.4,.4,.8,.8,.8m3.1,0v0c.4,0,.7,-.4,.7,-.8c0,-.4,-.3,-.8,-.7,-.8c-.5,0,-.8,.4,-.8,.8c0,.4,.3,.8,.8,.8m3,0v0c.5,0,.8,-.4,.8,-.8c0,-.4,-.3,-.8,-.8,-.8c-.4,0,-.7,.4,-.7,.8c0,.4,.3,.8,.7,.8m3.1,0v0c.4,0,.8,-.4,.8,-.8c0,-.4,-.4,-.8,-.8,-.8c-.4,0,-.7,.4,-.7,.8c0,.4,.3,.8,.7,.8Z" class="g7_23"/>
<path clip-path="url(#ct_23)" d="M39.7,981.7c.2,0,.4,-.1,.6,-.2c.1,-.2,.2,-.4,.2,-.6c0,-.2,-.1,-.4,-.2,-.5c-.2,-.2,-.4,-.3,-.6,-.3c-.2,0,-.4,.1,-.5,.3c-.1,.1,-.2,.3,-.2,.5c0,.2,.1,.4,.2,.6c.1,.1,.3,.2,.5,.2m215.2,0c.2,0,.4,-.1,.5,-.2c.2,-.2,.3,-.4,.3,-.6c0,-.2,-.1,-.4,-.3,-.5c-.1,-.2,-.3,-.3,-.5,-.3c-.2,0,-.4,.1,-.5,.3c-.2,.1,-.3,.3,-.3,.5c0,.2,.1,.4,.3,.6c.1,.1,.3,.2,.5,.2Z" class="g7_23"/>
<path d="M258,981.7v0c.4,0,.7,-.4,.7,-.8c0,-.4,-.3,-.8,-.7,-.8c-.4,0,-.8,.4,-.8,.8c0,.4,.4,.8,.8,.8m3.1,0v0c.4,0,.7,-.4,.7,-.8c0,-.4,-.3,-.8,-.7,-.8c-.5,0,-.8,.4,-.8,.8c0,.4,.3,.8,.8,.8m3.1,0v0c.4,0,.7,-.4,.7,-.8c0,-.4,-.3,-.8,-.7,-.8c-.5,0,-.8,.4,-.8,.8c0,.4,.3,.8,.8,.8m3,0v0c.5,0,.8,-.4,.8,-.8c0,-.4,-.3,-.8,-.8,-.8c-.4,0,-.7,.4,-.7,.8c0,.4,.3,.8,.7,.8m3.1,0v0c.4,0,.8,-.4,.8,-.8c0,-.4,-.4,-.8,-.8,-.8c-.4,0,-.7,.4,-.7,.8c0,.4,.3,.8,.7,.8m3.1,0v0c.4,0,.8,-.4,.8,-.8c0,-.4,-.4,-.8,-.8,-.8c-.4,0,-.8,.4,-.8,.8c0,.4,.4,.8,.8,.8m3.1,0v0c.4,0,.8,-.4,.8,-.8c0,-.4,-.4,-.8,-.8,-.8c-.4,0,-.8,.4,-.8,.8c0,.4,.4,.8,.8,.8m3.1,0v0c.4,0,.7,-.4,.7,-.8c0,-.4,-.3,-.8,-.7,-.8c-.4,0,-.8,.4,-.8,.8c0,.4,.4,.8,.8,.8m3.1,0v0c.4,0,.7,-.4,.7,-.8c0,-.4,-.3,-.8,-.7,-.8c-.5,0,-.8,.4,-.8,.8c0,.4,.3,.8,.8,.8m3.1,0v0c.4,0,.7,-.4,.7,-.8c0,-.4,-.3,-.8,-.7,-.8c-.5,0,-.8,.4,-.8,.8c0,.4,.3,.8,.8,.8m3,0v0c.5,0,.8,-.4,.8,-.8c0,-.4,-.3,-.8,-.8,-.8c-.4,0,-.7,.4,-.7,.8c0,.4,.3,.8,.7,.8m3.1,0v0c.5,0,.8,-.4,.8,-.8c0,-.4,-.3,-.8,-.8,-.8c-.4,0,-.7,.4,-.7,.8c0,.4,.3,.8,.7,.8m3.1,0v0c.4,0,.8,-.4,.8,-.8c0,-.4,-.4,-.8,-.8,-.8c-.4,0,-.7,.4,-.7,.8c0,.4,.3,.8,.7,.8m3.1,0v0c.4,0,.8,-.4,.8,-.8c0,-.4,-.4,-.8,-.8,-.8c-.4,0,-.8,.4,-.8,.8c0,.4,.4,.8,.8,.8m3.1,0v0c.4,0,.8,-.4,.8,-.8c0,-.4,-.4,-.8,-.8,-.8c-.4,0,-.8,.4,-.8,.8c0,.4,.4,.8,.8,.8m3.1,0v0c.4,0,.7,-.4,.7,-.8c0,-.4,-.3,-.8,-.7,-.8c-.4,0,-.8,.4,-.8,.8c0,.4,.4,.8,.8,.8Z" class="g7_23"/>
<path d="M254.9,981.7c.2,0,.4,-.1,.5,-.2c.2,-.2,.3,-.4,.3,-.6c0,-.2,-.1,-.4,-.3,-.5c-.1,-.2,-.3,-.3,-.5,-.3c-.2,0,-.4,.1,-.5,.3c-.2,.1,-.3,.3,-.3,.5c0,.2,.1,.4,.3,.6c.1,.1,.3,.2,.5,.2m52.5,0c.2,0,.4,-.1,.5,-.2c.1,-.2,.2,-.4,.2,-.6c0,-.2,-.1,-.4,-.2,-.5c-.1,-.2,-.3,-.3,-.5,-.3c-.2,0,-.4,.1,-.6,.3c-.1,.1,-.2,.3,-.2,.5c0,.2,.1,.4,.2,.6c.2,.1,.4,.2,.6,.2Z" class="g7_23"/>
<path d="M249.4,1192.8v-24.2h-.8v24.2Z" class="g8_23"/>
<path d="M180.5,1167.8v-22.4h-.7v22.4Z" class="g8_23"/>
<path d="M180.5,1192.8v-25h-.7v25Z" class="g8_23"/>
<path d="M180.5,1212.8v-17.7h-.7v17.7Z" class="g8_23"/>
<path d="M180.9,1213.1v0l.2,-.1l-.2,-.2l-.2,.2Zm.8,0v0l.2,-.1l-.2,-.2l-.2,.2Zm.8,0v0l.1,-.1l-.1,-.2l-.2,.2Zm.7,0v0l.2,-.1l-.2,-.2l-.2,.2Zm.8,0v0l.2,-.1l-.2,-.2l-.2,.2Zm.7,0v0l.2,-.1l-.2,-.2l-.1,.2Zm.8,0v0l.2,-.1l-.2,-.2l-.2,.2Zm.8,0v0l.2,-.1l-.2,-.2l-.2,.2Zm.7,0v0l.2,-.1l-.2,-.2l-.1,.2Zm.8,0v0l.2,-.1l-.2,-.2l-.2,.2Zm.8,0v0l.2,-.1l-.2,-.2l-.2,.2Zm.7,0v0l.2,-.1l-.2,-.2l-.2,.2Zm.8,0v0l.2,-.1l-.2,-.2l-.2,.2Zm.8,0v0l.2,-.1l-.2,-.2l-.2,.2Zm.7,0v0l.2,-.1l-.2,-.2l-.2,.2Zm.8,0v0l.2,-.1l-.2,-.2l-.2,.2Zm.8,0v0l.2,-.1l-.2,-.2l-.2,.2Zm.7,0v0l.2,-.1l-.2,-.2l-.2,.2Zm.8,0v0l.2,-.1l-.2,-.2l-.2,.2Zm.8,0v0l.2,-.1l-.2,-.2l-.2,.2Zm.7,0v0l.2,-.1l-.2,-.2l-.2,.2Zm.8,0v0l.2,-.1l-.2,-.2l-.2,.2Zm.8,0v0l.1,-.1l-.1,-.2l-.2,.2Zm.7,0v0l.2,-.1l-.2,-.2l-.2,.2Zm.8,0v0l.2,-.1l-.2,-.2l-.2,.2Zm.8,0v0l.1,-.1l-.1,-.2l-.2,.2Zm.7,0v0l.2,-.1l-.2,-.2l-.2,.2Zm.8,0v0l.2,-.1l-.2,-.2l-.2,.2Zm.7,0v0l.2,-.1l-.2,-.2l-.1,.2Zm.8,0v0l.2,-.1l-.2,-.2l-.2,.2Zm.8,0v0l.2,-.1l-.2,-.2l-.2,.2Zm.7,0v0l.2,-.1l-.2,-.2l-.2,.2Zm.8,0v0l.2,-.1l-.2,-.2l-.2,.2Zm.8,0v0l.2,-.1l-.2,-.2l-.2,.2Zm.7,0v0l.2,-.1l-.2,-.2l-.2,.2Zm.8,0v0l.2,-.1l-.2,-.2l-.2,.2Zm.8,0v0l.2,-.1l-.2,-.2l-.2,.2Zm.7,0v0l.2,-.1l-.2,-.2l-.2,.2Zm.8,0v0l.2,-.1l-.2,-.2l-.2,.2Zm.8,0v0l.2,-.1l-.2,-.2l-.2,.2Zm.7,0v0l.2,-.1l-.2,-.2l-.2,.2Zm.8,0v0l.2,-.1l-.2,-.2l-.2,.2Zm.8,0v0l.1,-.1l-.1,-.2l-.2,.2Zm.7,0v0l.2,-.1l-.2,-.2l-.2,.2Zm.8,0v0l.2,-.1l-.2,-.2l-.2,.2Zm.8,0v0l.1,-.1l-.1,-.2l-.2,.2Zm.7,0v0l.2,-.1l-.2,-.2l-.2,.2Zm.8,0v0l.2,-.1l-.2,-.2l-.2,.2Zm.7,0v0l.2,-.1l-.2,-.2l-.1,.2Zm.8,0v0l.2,-.1l-.2,-.2l-.2,.2Zm.8,0v0l.2,-.1l-.2,-.2l-.2,.2Zm.7,0v0l.2,-.1l-.2,-.2l-.1,.2Zm.8,0v0l.2,-.1l-.2,-.2l-.2,.2Zm.8,0v0l.2,-.1l-.2,-.2l-.2,.2Zm.7,0v0l.2,-.1l-.2,-.2l-.2,.2Zm.8,0v0l.2,-.1l-.2,-.2l-.2,.2Zm.8,0v0l.2,-.1l-.2,-.2l-.2,.2Zm.7,0v0l.2,-.1l-.2,-.2l-.2,.2Zm.8,0v0l.2,-.1l-.2,-.2l-.2,.2Zm.8,0v0l.2,-.1l-.2,-.2l-.2,.2Zm.7,0v0l.2,-.1l-.2,-.2l-.2,.2Zm.8,0v0l.2,-.1l-.2,-.2l-.2,.2Zm.8,0v0l.1,-.1l-.1,-.2l-.2,.2Zm.7,0v0l.2,-.1l-.2,-.2l-.2,.2Zm.8,0v0l.2,-.1l-.2,-.2l-.2,.2Zm.8,0v0l.1,-.1l-.1,-.2l-.2,.2Zm.7,0v0l.2,-.1l-.2,-.2l-.2,.2Zm.8,0v0l.2,-.1l-.2,-.2l-.2,.2Zm.7,0v0l.2,-.1l-.2,-.2l-.1,.2Zm.8,0v0l.2,-.1l-.2,-.2l-.2,.2Zm.8,0v0l.2,-.1l-.2,-.2l-.2,.2Zm.7,0v0l.2,-.1l-.2,-.2l-.1,.2Zm.8,0v0l.2,-.1l-.2,-.2l-.2,.2Zm.8,0v0l.2,-.1l-.2,-.2l-.2,.2Zm.7,0v0l.2,-.1l-.2,-.2l-.2,.2Zm.8,0v0l.2,-.1l-.2,-.2l-.2,.2Zm.8,0v0l.2,-.1l-.2,-.2l-.2,.2Zm.7,0v0l.2,-.1l-.2,-.2l-.2,.2Zm.8,0v0l.2,-.1l-.2,-.2l-.2,.2Zm.8,0v0l.2,-.1l-.2,-.2l-.2,.2Zm.7,0v0l.2,-.1l-.2,-.2l-.2,.2Zm.8,0v0l.2,-.1l-.2,-.2l-.2,.2Zm.8,0v0l.2,-.1l-.2,-.2l-.2,.2Zm.7,0v0l.2,-.1l-.2,-.2l-.2,.2Zm.8,0v0l.2,-.1l-.2,-.2l-.2,.2Zm.8,0v0l.1,-.1l-.1,-.2l-.2,.2Zm.7,0v0l.2,-.1l-.2,-.2l-.2,.2Zm.8,0v0l.2,-.1l-.2,-.2l-.2,.2Zm.8,0v0l.1,-.1l-.1,-.2l-.2,.2Z" class="g3_23"/>
<path d="M180.2,1213.1h.1v-.3H180v.3Zm68.8,0h.2v-.3h-.3l-.1,.2l.1,.1Z" class="g3_23"/>
<path d="M249.8,1213.1v0l.2,-.1l-.2,-.2l-.2,.2Zm.7,0v0l.2,-.1l-.2,-.2l-.1,.2Zm.8,0v0l.2,-.1l-.2,-.2l-.2,.2Zm.8,0v0l.2,-.1l-.2,-.2l-.2,.2Zm.7,0v0l.2,-.1l-.2,-.2l-.1,.2Zm.8,0v0l.2,-.1l-.2,-.2l-.2,.2Zm.8,0v0l.2,-.1l-.2,-.2l-.2,.2Zm.7,0v0l.2,-.1l-.2,-.2l-.2,.2Zm.8,0v0l.2,-.1l-.2,-.2l-.2,.2Zm.8,0v0l.2,-.1l-.2,-.2l-.2,.2Zm.7,0v0l.2,-.1l-.2,-.2l-.2,.2Zm.8,0v0l.2,-.1l-.2,-.2l-.2,.2Zm.8,0v0l.2,-.1l-.2,-.2l-.2,.2Zm.7,0v0l.2,-.1l-.2,-.2l-.2,.2Zm.8,0v0l.2,-.1l-.2,-.2l-.2,.2Zm.8,0v0l.2,-.1l-.2,-.2l-.2,.2Zm.7,0v0l.2,-.1l-.2,-.2l-.2,.2Zm.8,0v0l.2,-.1l-.2,-.2l-.2,.2Zm.8,0v0l.1,-.1l-.1,-.2l-.2,.2Zm.7,0v0l.2,-.1l-.2,-.2l-.2,.2Zm.8,0v0l.2,-.1l-.2,-.2l-.2,.2Zm.8,0v0l.1,-.1l-.1,-.2l-.2,.2Zm.7,0v0l.2,-.1l-.2,-.2l-.2,.2Zm.8,0v0l.2,-.1l-.2,-.2l-.2,.2Zm.7,0v0l.2,-.1l-.2,-.2l-.1,.2Zm.8,0v0l.2,-.1l-.2,-.2l-.2,.2Zm.8,0v0l.2,-.1l-.2,-.2l-.2,.2Zm.7,0v0l.2,-.1l-.2,-.2l-.1,.2Zm.8,0v0l.2,-.1l-.2,-.2l-.2,.2Zm.8,0v0l.2,-.1l-.2,-.2l-.2,.2Zm.7,0v0l.2,-.1l-.2,-.2l-.2,.2Zm.8,0v0l.2,-.1l-.2,-.2l-.2,.2Zm.8,0v0l.2,-.1l-.2,-.2l-.2,.2Zm.7,0v0l.2,-.1l-.2,-.2l-.2,.2Zm.8,0v0l.2,-.1l-.2,-.2l-.2,.2Zm.8,0v0l.2,-.1l-.2,-.2l-.2,.2Zm.7,0v0l.2,-.1l-.2,-.2l-.2,.2Zm.8,0v0l.2,-.1l-.2,-.2l-.2,.2Zm.8,0v0l.2,-.1l-.2,-.2l-.2,.2Zm.7,0v0l.2,-.1l-.2,-.2l-.2,.2Zm.8,0v0l.2,-.1l-.2,-.2l-.2,.2Zm.8,0v0l.1,-.1l-.1,-.2l-.2,.2Zm.7,0v0l.2,-.1l-.2,-.2l-.2,.2Zm.8,0v0l.2,-.1l-.2,-.2l-.2,.2Zm.8,0v0l.1,-.1l-.1,-.2l-.2,.2Zm.7,0v0l.2,-.1l-.2,-.2l-.2,.2Zm.8,0v0l.2,-.1l-.2,-.2l-.2,.2Zm.7,0v0l.2,-.1l-.2,-.2l-.1,.2Zm.8,0v0l.2,-.1l-.2,-.2l-.2,.2Zm.8,0v0l.2,-.1l-.2,-.2l-.2,.2Zm.7,0v0l.2,-.1l-.2,-.2l-.1,.2Zm.8,0v0l.2,-.1l-.2,-.2l-.2,.2Zm.8,0v0l.2,-.1l-.2,-.2l-.2,.2Zm.7,0v0l.2,-.1l-.2,-.2l-.2,.2Zm.8,0v0l.2,-.1l-.2,-.2l-.2,.2Zm.8,0v0l.2,-.1l-.2,-.2l-.2,.2Zm.7,0v0l.2,-.1l-.2,-.2l-.2,.2Zm.8,0v0l.2,-.1l-.2,-.2l-.2,.2Zm.8,0v0l.2,-.1l-.2,-.2l-.2,.2Zm.7,0v0l.2,-.1l-.2,-.2l-.2,.2Zm.8,0v0l.2,-.1l-.2,-.2l-.2,.2Zm.8,0v0l.2,-.1l-.2,-.2l-.2,.2Zm.7,0v0l.2,-.1l-.2,-.2l-.2,.2Zm.8,0v0l.2,-.1l-.2,-.2l-.2,.2Zm.8,0v0l.1,-.1l-.1,-.2l-.2,.2Zm.7,0v0l.2,-.1l-.2,-.2l-.2,.2Zm.8,0v0l.2,-.1l-.2,-.2l-.2,.2Zm.8,0v0l.1,-.1l-.1,-.2l-.2,.2Zm.7,0v0l.2,-.1l-.2,-.2l-.2,.2Zm.8,0v0l.2,-.1l-.2,-.2l-.2,.2Zm.7,0v0l.2,-.1l-.2,-.2l-.1,.2Zm.8,0v0l.2,-.1l-.2,-.2l-.2,.2Zm.8,0v0l.2,-.1l-.2,-.2l-.2,.2Zm.7,0v0l.2,-.1l-.2,-.2l-.1,.2Zm.8,0v0l.2,-.1l-.2,-.2l-.2,.2Zm.8,0v0l.2,-.1l-.2,-.2l-.2,.2Z" class="g3_23"/>
<path d="M249,1213.1h.2v-.3h-.3l-.1,.2l.1,.1Zm58.9,0h.2v-.3h-.3l-.1,.2l.1,.1Z" class="g3_23"/>
<path d="M180.5,1246.4v-33.3h-.7v33.3Z" class="g8_23"/>
<path clip-path="url(#ct_23)" d="M38.9,1195.1H180.2v-2.3H38.9Z" class="g3_23"/>
<path d="M39.8,1213.1v0l.2,-.1l-.2,-.2l-.2,.2Zm.8,0v0l.2,-.1l-.2,-.2l-.2,.2Zm.7,0v0l.2,-.1l-.2,-.2l-.2,.2Zm.8,0v0l.2,-.1l-.2,-.2l-.2,.2Zm.8,0v0l.2,-.1l-.2,-.2l-.2,.2Zm.7,0v0l.2,-.1l-.2,-.2l-.2,.2Zm.8,0v0l.2,-.1l-.2,-.2l-.2,.2Zm.8,0v0l.1,-.1l-.1,-.2l-.2,.2Zm.7,0v0l.2,-.1l-.2,-.2l-.2,.2Zm.8,0v0l.2,-.1l-.2,-.2l-.2,.2Zm.7,0v0l.2,-.1l-.2,-.2l-.1,.2Zm.8,0v0l.2,-.1l-.2,-.2l-.2,.2Zm.8,0v0l.2,-.1l-.2,-.2l-.2,.2Zm.7,0v0l.2,-.1l-.2,-.2l-.2,.2Zm.8,0v0l.2,-.1l-.2,-.2l-.2,.2Zm.8,0v0l.1,-.1l-.1,-.2l-.2,.2Zm.7,0v0l.2,-.1l-.2,-.2l-.2,.2Zm.8,0v0l.2,-.1l-.2,-.2l-.2,.2Zm.7,0v0l.2,-.1l-.2,-.2l-.1,.2Zm.8,0v0l.2,-.1l-.2,-.2l-.2,.2Zm.8,0v0l.2,-.1l-.2,-.2l-.2,.2Zm.7,0v0l.2,-.1l-.2,-.2l-.2,.2Zm.8,0v0l.2,-.1l-.2,-.2l-.2,.2Zm.8,0v0l.1,-.1l-.1,-.2l-.2,.2Zm.7,0v0l.2,-.1l-.2,-.2l-.2,.2Zm.8,0v0l.2,-.1l-.2,-.2l-.2,.2Zm.7,0v0l.2,-.1l-.2,-.2l-.1,.2Zm.8,0v0l.2,-.1l-.2,-.2l-.2,.2Zm.8,0v0l.2,-.1l-.2,-.2l-.2,.2Zm.7,0v0l.2,-.1l-.2,-.2l-.2,.2Zm.8,0v0l.2,-.1l-.2,-.2l-.2,.2Zm.8,0v0l.2,-.1l-.2,-.2l-.2,.2Zm.7,0v0l.2,-.1l-.2,-.2l-.2,.2Zm.8,0v0l.2,-.1l-.2,-.2l-.2,.2Zm.7,0v0l.2,-.1l-.2,-.2l-.1,.2Zm.8,0v0l.2,-.1l-.2,-.2l-.2,.2Zm.8,0v0l.2,-.1l-.2,-.2l-.2,.2Zm.7,0v0l.2,-.1l-.2,-.2l-.2,.2Zm.8,0v0l.2,-.1l-.2,-.2l-.2,.2Zm.8,0v0l.2,-.1l-.2,-.2l-.2,.2Zm.7,0v0l.2,-.1l-.2,-.2l-.2,.2Zm.8,0v0l.2,-.1l-.2,-.2l-.2,.2Zm.8,0v0l.1,-.1l-.1,-.2l-.2,.2Zm.7,0v0l.2,-.1l-.2,-.2l-.2,.2Zm.8,0v0l.2,-.1l-.2,-.2l-.2,.2Zm.7,0v0l.2,-.1l-.2,-.2l-.2,.2Zm.8,0v0l.2,-.1l-.2,-.2l-.2,.2Zm.8,0v0l.2,-.1l-.2,-.2l-.2,.2Zm.7,0v0l.2,-.1l-.2,-.2l-.2,.2Zm.8,0v0l.2,-.1l-.2,-.2l-.2,.2Zm.8,0v0l.1,-.1l-.1,-.2l-.2,.2Zm.7,0v0l.2,-.1l-.2,-.2l-.2,.2Zm.8,0v0l.2,-.1l-.2,-.2l-.2,.2Zm.7,0v0l.2,-.1l-.2,-.2l-.2,.2Zm.8,0v0l.2,-.1l-.2,-.2l-.2,.2Zm.8,0v0l.2,-.1l-.2,-.2l-.2,.2Zm.7,0v0l.2,-.1l-.2,-.2l-.2,.2Zm.8,0v0l.2,-.1l-.2,-.2l-.2,.2Zm.8,0v0l.1,-.1l-.1,-.2l-.2,.2Zm.7,0v0l.2,-.1l-.2,-.2l-.2,.2Zm.8,0v0l.2,-.1l-.2,-.2l-.2,.2Zm.7,0v0l.2,-.1l-.2,-.2l-.1,.2Zm.8,0v0l.2,-.1l-.2,-.2l-.2,.2Zm.8,0v0l.2,-.1l-.2,-.2l-.2,.2Zm.7,0v0l.2,-.1l-.2,-.2l-.2,.2Zm.8,0v0l.2,-.1l-.2,-.2l-.2,.2Zm.8,0v0l.1,-.1l-.1,-.2l-.2,.2Zm.7,0v0l.2,-.1l-.2,-.2l-.2,.2Zm.8,0v0l.2,-.1l-.2,-.2l-.2,.2Zm.7,0v0l.2,-.1l-.2,-.2l-.1,.2Zm.8,0v0l.2,-.1l-.2,-.2l-.2,.2Zm.8,0v0l.2,-.1l-.2,-.2l-.2,.2Zm.7,0v0l.2,-.1l-.2,-.2l-.2,.2Zm.8,0v0l.2,-.1l-.2,-.2l-.2,.2Zm.8,0v0l.1,-.1l-.1,-.2l-.2,.2Zm.7,0v0l.2,-.1l-.2,-.2l-.2,.2Zm.8,0v0l.2,-.1l-.2,-.2l-.2,.2Zm.7,0v0l.2,-.1l-.2,-.2l-.1,.2Zm.8,0v0l.2,-.1l-.2,-.2l-.2,.2Zm.8,0v0l.2,-.1l-.2,-.2l-.2,.2Zm.7,0v0l.2,-.1l-.2,-.2l-.2,.2Zm.8,0v0l.2,-.1l-.2,-.2l-.2,.2Zm.8,0v0l.2,-.1l-.2,-.2l-.2,.2Zm.7,0v0l.2,-.1l-.2,-.2l-.2,.2Zm.8,0v0l.2,-.1l-.2,-.2l-.2,.2Zm.7,0v0l.2,-.1l-.2,-.2l-.1,.2Zm.8,0v0l.2,-.1l-.2,-.2l-.2,.2Zm.8,0v0l.2,-.1l-.2,-.2l-.2,.2Zm.7,0v0l.2,-.1l-.2,-.2l-.2,.2Zm.8,0v0l.2,-.1l-.2,-.2l-.2,.2Zm.8,0v0l.2,-.1l-.2,-.2l-.2,.2Zm.7,0v0l.2,-.1l-.2,-.2l-.2,.2Zm.8,0v0l.2,-.1l-.2,-.2l-.2,.2Zm.7,0v0l.2,-.1l-.2,-.2l-.1,.2Zm.8,0v0l.2,-.1l-.2,-.2l-.2,.2Zm.8,0v0l.2,-.1l-.2,-.2l-.2,.2Zm.7,0v0l.2,-.1l-.2,-.2l-.2,.2Zm.8,0v0l.2,-.1l-.2,-.2l-.2,.2Zm.8,0v0l.2,-.1l-.2,-.2l-.2,.2Zm.7,0v0l.2,-.1l-.2,-.2l-.2,.2Zm.8,0v0l.2,-.1l-.2,-.2l-.2,.2Zm.8,0v0l.1,-.1l-.1,-.2l-.2,.2Zm.7,0v0l.2,-.1l-.2,-.2l-.2,.2Zm.8,0v0l.2,-.1l-.2,-.2l-.2,.2Zm.7,0v0l.2,-.1l-.2,-.2l-.2,.2Zm.8,0v0l.2,-.1l-.2,-.2l-.2,.2Zm.8,0v0l.2,-.1l-.2,-.2l-.2,.2Zm.7,0v0l.2,-.1l-.2,-.2l-.2,.2Zm.8,0v0l.2,-.1l-.2,-.2l-.2,.2Zm.8,0v0l.1,-.1l-.1,-.2l-.2,.2Zm.7,0v0l.2,-.1l-.2,-.2l-.2,.2Zm.8,0v0l.2,-.1l-.2,-.2l-.2,.2Zm.7,0v0l.2,-.1l-.2,-.2l-.1,.2Zm.8,0v0l.2,-.1l-.2,-.2l-.2,.2Zm.8,0v0l.2,-.1l-.2,-.2l-.2,.2Zm.7,0v0l.2,-.1l-.2,-.2l-.2,.2Zm.8,0v0l.2,-.1l-.2,-.2l-.2,.2Zm.8,0v0l.1,-.1l-.1,-.2l-.2,.2Zm.7,0v0l.2,-.1l-.2,-.2l-.2,.2Zm.8,0v0l.2,-.1l-.2,-.2l-.2,.2Zm.7,0v0l.2,-.1l-.2,-.2l-.1,.2Zm.8,0v0l.2,-.1l-.2,-.2l-.2,.2Zm.8,0v0l.2,-.1l-.2,-.2l-.2,.2Zm.7,0v0l.2,-.1l-.2,-.2l-.2,.2Zm.8,0v0l.2,-.1l-.2,-.2l-.2,.2Zm.8,0v0l.1,-.1l-.1,-.2l-.2,.2Zm.7,0v0l.2,-.1l-.2,-.2l-.2,.2Zm.8,0v0l.2,-.1l-.2,-.2l-.2,.2Zm.7,0v0l.2,-.1l-.2,-.2l-.1,.2Zm.8,0v0l.2,-.1l-.2,-.2l-.2,.2Zm.8,0v0l.2,-.1l-.2,-.2l-.2,.2Zm.7,0v0l.2,-.1l-.2,-.2l-.2,.2Zm.8,0v0l.2,-.1l-.2,-.2l-.2,.2Zm.8,0v0l.1,-.1l-.1,-.2l-.2,.2Zm.7,0v0l.2,-.1l-.2,-.2l-.2,.2Zm.8,0v0l.2,-.1l-.2,-.2l-.2,.2Zm.7,0v0l.2,-.1l-.2,-.2l-.1,.2Zm.8,0v0l.2,-.1l-.2,-.2l-.2,.2Zm.8,0v0l.2,-.1l-.2,-.2l-.2,.2Zm.7,0v0l.2,-.1l-.2,-.2l-.2,.2Zm.8,0v0l.2,-.1l-.2,-.2l-.2,.2Zm.8,0v0l.2,-.1l-.2,-.2l-.2,.2Zm.7,0v0l.2,-.1l-.2,-.2l-.2,.2Zm.8,0v0l.2,-.1l-.2,-.2l-.2,.2Zm.7,0v0l.2,-.1l-.2,-.2l-.1,.2Zm.8,0v0l.2,-.1l-.2,-.2l-.2,.2Zm.8,0v0l.2,-.1l-.2,-.2l-.2,.2Zm.7,0v0l.2,-.1l-.2,-.2l-.2,.2Zm.8,0v0l.2,-.1l-.2,-.2l-.2,.2Zm.8,0v0l.2,-.1l-.2,-.2l-.2,.2Zm.7,0v0l.2,-.1l-.2,-.2l-.2,.2Zm.8,0v0l.2,-.1l-.2,-.2l-.2,.2Zm.7,0v0l.2,-.1l-.2,-.2l-.1,.2Zm.8,0v0l.2,-.1l-.2,-.2l-.2,.2Zm.8,0v0l.2,-.1l-.2,-.2l-.2,.2Zm.7,0v0l.2,-.1l-.2,-.2l-.2,.2Zm.8,0v0l.2,-.1l-.2,-.2l-.2,.2Zm.8,0v0l.2,-.1l-.2,-.2l-.2,.2Zm.7,0v0l.2,-.1l-.2,-.2l-.2,.2Zm.8,0v0l.2,-.1l-.2,-.2l-.2,.2Zm.8,0v0l.1,-.1l-.1,-.2l-.2,.2Zm.7,0v0l.2,-.1l-.2,-.2l-.2,.2Zm.8,0v0l.2,-.1l-.2,-.2l-.2,.2Zm.7,0v0l.2,-.1l-.2,-.2l-.2,.2Zm.8,0v0l.2,-.1l-.2,-.2l-.2,.2Zm.8,0v0l.2,-.1l-.2,-.2l-.2,.2Zm.7,0v0l.2,-.1l-.2,-.2l-.2,.2Zm.8,0v0l.2,-.1l-.2,-.2l-.2,.2Zm.8,0v0l.1,-.1l-.1,-.2l-.2,.2Zm.7,0v0l.2,-.1l-.2,-.2l-.2,.2Zm.8,0v0l.2,-.1l-.2,-.2l-.2,.2Zm.7,0v0l.2,-.1l-.2,-.2l-.1,.2Zm.8,0v0l.2,-.1l-.2,-.2l-.2,.2Zm.8,0v0l.2,-.1l-.2,-.2l-.2,.2Zm.7,0v0l.2,-.1l-.2,-.2l-.2,.2Zm.8,0v0l.2,-.1l-.2,-.2l-.2,.2Zm.8,0v0l.1,-.1l-.1,-.2l-.2,.2Zm.7,0v0l.2,-.1l-.2,-.2l-.2,.2Zm.8,0v0l.2,-.1l-.2,-.2l-.2,.2Zm.7,0v0l.2,-.1l-.2,-.2l-.1,.2Zm.8,0v0l.2,-.1l-.2,-.2l-.2,.2Zm.8,0v0l.2,-.1l-.2,-.2l-.2,.2Zm.7,0v0l.2,-.1l-.2,-.2l-.2,.2Zm.8,0v0l.2,-.1l-.2,-.2l-.2,.2Z" class="g3_23"/>
<path clip-path="url(#ct_23)" d="M39.1,1213.1h.1v-.3h-.3v.3Zm141.1,0h.1v-.3H180v.3Z" class="g3_23"/>
<path d="M180.2,1195.1H249v-2.3H180.2Z" class="g3_23"/>
<path d="M249,1195.1h59.1v-2.3H249Z" class="g3_23"/>
<path d="M180.5,1168.6H249v-1.5H180.5Z" class="g6_23"/>
<path d="M249,1168.6h59.1v-1.5H249Z" class="g6_23"/>
<path d="M249.4,1167.1v-21.7h-.8v21.7Z" class="g8_23"/>
</svg>