<?xml version="1.0" encoding="UTF-8" standalone="no"?>
<!DOCTYPE svg PUBLIC "-//W3C//DTD SVG 1.1//EN"
"http://www.w3.org/Graphics/SVG/1.1/DTD/svg11.dtd">
<svg viewBox="0 0 909 1286" version="1.1" xmlns="http://www.w3.org/2000/svg" xmlns:xlink="http://www.w3.org/1999/xlink">
<defs>
<clipPath id="c0_19"><path d="M0,148.6V0H159.6V42.8H43.2V56.5H159.6v92.1Z"/></clipPath>
<clipPath id="c1_19"><path d="M159.3,148.6V56.5h20.8V42.8H159.3V0H319.1V148.6Z"/></clipPath>
<clipPath id="c2_19"><path d="M318.7,148.6V0h160V148.6Z"/></clipPath>
<clipPath id="c3_19"><path d="M478.3,224.7V0H584.6V224.7Z"/></clipPath>
<clipPath id="c4_19"><path d="M0,296.9V148.3H159.6v76.4H135.5v72.2Z"/></clipPath>
<clipPath id="c5_19"><path d="M159.3,224.7V148.3H425.4v76.4Z"/></clipPath>
<clipPath id="c6_19"><path d="M425,224.7V148.3h53.7v76.4Z"/></clipPath>
<clipPath id="c7_19"><path d="M43.2,56.5V42.8H180.1V56.5Z"/></clipPath>
<clipPath id="c8_19"><path d="M135.5,318.4V296.9h88.1v21.5Z"/></clipPath>
<clipPath id="c9_19"><path d="M135.5,296.9V224.7h88.1v72.2Z"/></clipPath>
<clipPath id="ca_19"><path d="M135.5,325.9v-5.2h88.1v5.2Z"/></clipPath>
<clipPath id="cb_19"><path d="M135.5,320.7v-2.3h88.1v2.3Z"/></clipPath>
<clipPath id="cc_19"><path d="M497.2,325.9v-5.2h87.4v-2.3h-11V296.9h11V224.7h.7V325.9Z"/></clipPath>
<clipPath id="cd_19"><path d="M573.6,296.9V255.7c0,-3.9,-1.2,-7.5,-3.3,-10.5v-2.6h-2.2c-3.3,-3.2,-7.8,-5.2,-12.8,-5.2H512.9c-5,0,-9.5,2,-12.8,5.2h-2.5v3.1c-.2,.2,-.3,.4,-.4,.6V224.7h87.4v72.2Z"/></clipPath>
<clipPath id="ce_19"><path d="M573.6,320.7v-2.3h11v2.3Z"/></clipPath>
<clipPath id="cf_19"><path d="M497.6,245.7v-3.1h2.5c-1,.9,-1.8,2,-2.5,3.1Zm72.7,-.5c-.6,-.9,-1.3,-1.8,-2.2,-2.6h2.2v2.6Z"/></clipPath>
<clipPath id="cg_19"><path d="M409.1,325.9v-5.2h78.8v5.2Zm76.4,-7.5V296.9h2.4v21.5Z"/></clipPath>
<clipPath id="ch_19"><path d="M485.5,296.9V255.7c0,-10.1,-8.2,-18.3,-18.3,-18.3H424.8c-6.7,0,-12.5,3.5,-15.7,8.9V224.7h78.8v72.2Z"/></clipPath>
<clipPath id="ci_19"><path d="M485.5,320.7v-2.3h2.4v2.3Z"/></clipPath>
<clipPath id="cj_19"><path d="M487.9,325.9v-5.2h9.3v5.2Zm0,-7.5V296.9h6.7v16.6h-.1v4.9Z"/></clipPath>
<clipPath id="ck_19"><path d="M487.9,296.9V224.7h9.3v21.6c-1.7,2.7,-2.6,5.9,-2.6,9.4v41.2Z"/></clipPath>
<clipPath id="cl_19"><path d="M487.9,320.7v-2.3h6.6v2.3Z"/></clipPath>
<clipPath id="cm_19"><path d="M494.6,313.5V255.7c0,-3.5,.9,-6.7,2.6,-9.4v67.2Z"/></clipPath>
<clipPath id="cn_19"><path d="M494.5,320.7v-7.2h2.7v7.2Z"/></clipPath>
<clipPath id="co_19"><path d="M321,325.9v-5.2h78.8v5.2Zm76.4,-7.5V296.9h2.4v21.5Z"/></clipPath>
<clipPath id="cp_19"><path d="M397.4,296.9V255.7c0,-10.1,-8.2,-18.3,-18.3,-18.3H336.7c-6.7,0,-12.5,3.5,-15.7,8.9V224.7h78.8v72.2Z"/></clipPath>
<clipPath id="cq_19"><path d="M397.4,320.7v-2.3h2.4v2.3Z"/></clipPath>
<clipPath id="cr_19"><path d="M399.8,325.9v-5.2h9.3v5.2Zm0,-7.5V296.9h6.7v16.6h-.1v4.9Z"/></clipPath>
<clipPath id="cs_19"><path d="M399.8,296.9V224.7h9.3v21.6c-1.7,2.7,-2.6,6,-2.6,9.4v41.2Z"/></clipPath>
<clipPath id="ct_19"><path d="M399.8,320.7v-2.3h6.6v2.3Z"/></clipPath>
<clipPath id="cu_19"><path d="M406.5,313.5V255.7c0,-3.4,.9,-6.7,2.6,-9.4v67.2Z"/></clipPath>
<clipPath id="cv_19"><path d="M406.4,320.7v-7.2h2.7v7.2Z"/></clipPath>
<clipPath id="cw_19"><path d="M232.8,325.9v-5.2h78.9v5.2Zm0,-7.5V296.9h78.9v21.5Z"/></clipPath>
<clipPath id="cx_19"><path d="M232.8,296.9V224.7h78.9v72.2Z"/></clipPath>
<clipPath id="cy_19"><path d="M232.8,320.7v-2.3h78.9v2.3Z"/></clipPath>
<clipPath id="cz_19"><path d="M223.6,318.4V296.9h9.2v21.5Z"/></clipPath>
<clipPath id="c10_19"><path d="M223.6,296.9V224.7h9.2v72.2Z"/></clipPath>
<clipPath id="c11_19"><path d="M223.6,325.9v-5.2h9.2v5.2Z"/></clipPath>
<clipPath id="c12_19"><path d="M223.6,320.7v-2.3h9.2v2.3Z"/></clipPath>
<clipPath id="c13_19"><path d="M311.7,325.9v-5.2H321v5.2Zm0,-7.5V296.9h6.7v16.6h-.1v4.9Z"/></clipPath>
<clipPath id="c14_19"><path d="M311.7,296.9V224.7H321v21.6c-1.7,2.8,-2.6,6,-2.6,9.4v41.2Z"/></clipPath>
<clipPath id="c15_19"><path d="M311.7,320.7v-2.3h6.6v2.3Z"/></clipPath>
<clipPath id="c16_19"><path d="M318.4,313.5V255.7c0,-3.4,.9,-6.6,2.6,-9.4v67.2Z"/></clipPath>
<clipPath id="c17_19"><path d="M318.3,320.7v-7.2H321v7.2Z"/></clipPath>
<style type="text/css"><![CDATA[
.g0_19{
fill: #E7E8E8;
}
.g1_19{
fill: #1B1661;
}
.g2_19{
fill: #DCDDDE;
}
.g3_19{
fill: #FFF;
}
.g4_19{
fill: #ED1A40;
}
.g5_19{
fill: #D1232A;
}
.g6_19{
fill: #FCB61D;
}
.g7_19{
fill: #FEE6BB;
}
.g8_19{
fill: #CFCBCA;
}
.g9_19{
fill: #5AC4C1;
}
.ga_19{
fill: #09B795;
}
.gb_19{
fill: #F37537;
}
.gc_19{
fill: #5180C1;
}
]]></style>
</defs>
<image clip-path="url(#c0_19)" preserveAspectRatio="none" x="0" y="0" width="160" height="149" xlink:href="img/1.jpg"/>
<image clip-path="url(#c1_19)" preserveAspectRatio="none" x="159" y="0" width="160" height="149" xlink:href="img/2.jpg"/>
<image clip-path="url(#c2_19)" preserveAspectRatio="none" x="319" y="0" width="160" height="149" xlink:href="img/3.jpg"/>
<image clip-path="url(#c3_19)" preserveAspectRatio="none" x="478" y="0" width="107" height="248" xlink:href="img/4.jpg"/>
<image clip-path="url(#c4_19)" preserveAspectRatio="none" x="0" y="148" width="160" height="149" xlink:href="img/5.jpg"/>
<image clip-path="url(#c5_19)" preserveAspectRatio="none" x="159" y="148" width="266" height="100" xlink:href="img/6.jpg"/>
<image clip-path="url(#c6_19)" preserveAspectRatio="none" x="425" y="148" width="54" height="100" xlink:href="img/7.jpg"/>
<image clip-path="url(#c7_19)" preserveAspectRatio="none" x="43" y="43" width="137" height="14" xlink:href="img/8.jpg"/>
<path d="M606.3,1242.9H866.1V924.3H606.3v318.6Z" class="g0_19"/>
<path d="M606.3,924.3H866.1v27.6H606.3V924.3Z" class="g1_19"/>
<path d="M606.3,974.6H866.1V951.9H606.3v22.7Zm0,268.3H866.1v-34.7H606.3v34.7Z" class="g2_19"/>
<path d="M606.3,974.9H866.1v-.7H606.3v.7Z" class="g3_19"/>
<path d="M606.3,1208.6H866.1v-.8H606.3v.8Z" class="g3_19"/>
<path d="M625.4,935.9l-1,-.7c-.2,-.2,-.6,-.1,-.8,.2l-4.7,6.9l-2.1,-2.2c-.3,-.2,-.6,-.2,-.8,0l-.9,.8c-.2,.3,-.2,.6,0,.9l3.3,3.3c.2,.2,.5,.3,.8,.3c.3,0,.5,-.1,.7,-.4l5.6,-8.3c.2,-.3,.2,-.7,-.1,-.8Z" class="g3_19"/>
<path d="M325.6,753.1h-.8v316.6H584.6V752.4H324.8v.7h.8v.8H583.1v314.3H326.3V753.1h-.7v.8Z" class="g1_19"/>
<path d="M365.5,758.7H535.3V745H365.5Z" class="g3_19"/>
<path d="M610.6,225.5c-2.4,0,-4.3,1.9,-4.3,4.3v32.3c0,2.4,1.9,4.3,4.3,4.3H861.8c2.4,0,4.3,-1.9,4.3,-4.3V229.8c0,-2.4,-1.9,-4.3,-4.3,-4.3Z" class="g4_19"/>
<path d="M727.1,252.3h69.7v-.9H727.1Z" class="g3_19"/>
<path d="M44.1,962.2h-.8v25.9H303.1V961.4H43.3v.8h.8v.7H301.6v23.7H44.8V962.2h-.7v.7Z" class="g5_19"/>
<path d="M72.6,969.5v.7c.1,0,.2,0,.4,0h.1v-.7v.7c4.1,.1,7.7,.2,11.6,.2v-.7v.7c.8,.1,1.1,.3,1.2,.5c.2,.2,.3,.4,.3,.7l.7,-.1h-.7c0,.4,-.1,.6,-.4,.8c-.2,.2,-.5,.4,-.9,.4v.7v-.7c-.8,0,-2.1,.1,-3.2,.1c-.6,0,-1.1,.1,-1.5,.1c-.4,0,-.7,0,-.7,0H78.3l.6,1.1c.2,.3,.3,.6,.3,.9c0,.4,-.2,.8,-.7,1.1l-.6,.4l.4,.6c.1,.2,.2,.6,.2,.9c0,.2,0,.3,-.1,.5c-.1,.4,-.3,.6,-.7,.9l-.7,.3l.4,.7c.2,.3,.3,.5,.3,.8c0,.1,-.1,.3,-.1,.5c-.2,.3,-.3,.5,-.5,.6c-.2,.2,-.5,.2,-.8,.2c-.6,0,-1.1,0,-1.7,0c-1.3,0,-2.7,0,-4,0h-.3c-.5,0,-1.1,0,-1.7,.1h-.1c-.7,0,-1.3,-.2,-1.9,-.6c-.6,-.5,-1.3,-1,-2.1,-1.5c-.3,-.2,-.7,-.2,-1,-.2c-.8,0,-.9,0,-1,0c-.1,0,-.2,0,-.7,0h-.3l-.1,-.1l-.1,.2l.1,-.1v-.1l-.1,.2l.1,-.1l-.1,.2l.2,-.2h-.1l-.1,.2l.2,-.2l-.1,.1l.1,-.1l-.1,.1l.1,-.1v-.1h-.7h.7l-.1,-8.6h-.7h.7v-.2h.1l-.3,-.1l.1,.3l.2,-.2l-.3,-.1l.1,.3v-.2v.2v-.2v.2h.1c.8,0,1,0,1.2,0c.1,0,.2,0,1.3,0c.2,0,.5,0,.9,-.1c.1,0,.3,-.1,.5,-.2l.3,-.1c.1,-.1,.3,-.3,.3,-.6c0,-.2,.1,-.5,.2,-.9c0,-.2,.1,-.3,.3,-.4c.1,-.2,.4,-.3,.7,-.4c.8,-.4,1.6,-.8,2.5,-1.2c1.2,-.8,2,-1.9,2.6,-2.9l.1,-.1l-.1,-.1v.1h.1l-.1,-.1v.1h.1l.2,.1l.4,-.6l-.5,.6c.6,.5,.7,.9,.9,1.7l.7,-.1h-.7v.1c0,.9,-.4,1.6,-1,2.4c-.1,0,-.2,.1,-.3,.3l-1,1.1h1.6v-.7l.5,.5c.1,-.1,.2,-.2,.3,-.3c.7,-.9,1.3,-1.9,1.3,-3.3v-.2c-.2,-1,-.5,-1.9,-1.3,-2.6h-.1c-.3,-.3,-.6,-.4,-1.1,-.4c-.2,0,-.5,0,-.7,.2c-.2,.1,-.4,.3,-.5,.5c-.6,1.1,-1.2,1.9,-2.1,2.4c-.7,.4,-1.6,.8,-2.4,1.2c-.3,.1,-.7,.3,-1,.6c-.4,.3,-.7,.7,-.8,1.2c-.1,.3,-.2,.7,-.2,1.1H65l-.4,-.4c0,0,-.1,.2,-.1,.4H65l-.4,-.4l.3,.2l-.2,-.3l-.1,.1l.3,.2l-.2,-.3c0,.1,-.2,.1,-.3,.1c-.2,0,-.4,.1,-.5,.1Q62.8,970,62.6,970c-.2,0,-.4,0,-1.2,0c-.2,0,-.4,.1,-.6,.1c-.2,.1,-.5,.4,-.6,.6c-.1,.3,-.2,.5,-.2,.7l.1,8.7c0,.4,0,.8,.4,1.1c.1,.1,.3,.3,.5,.3c.2,.1,.4,.1,.5,.1h.3c.5,0,.6,0,.7,0c.1,0,.2,0,1,0h.3c.7,.5,1.3,.9,2,1.4c.8,.6,1.7,.9,2.7,.9h.2c.5,0,1.1,0,1.6,0h.3c1.3,0,2.7,0,4,0c.6,0,1.1,0,1.7,0c.6,0,1.1,-.2,1.6,-.5c.4,-.3,.7,-.7,1,-1.3c.1,-.3,.2,-.7,.2,-1c0,-.6,-.2,-1.1,-.5,-1.6l-.6,.4l.3,.6c.7,-.3,1.3,-1,1.5,-1.7c.1,-.3,.1,-.6,.1,-.9c0,-.6,-.1,-1.1,-.4,-1.6l-.6,.3l.3,.6c.9,-.5,1.4,-1.4,1.4,-2.3c0,-.6,-.2,-1.1,-.5,-1.7l-.6,.4v.7c.1,0,.3,0,.7,0c1.2,-.1,3.6,-.1,4.7,-.1H85c.7,-.1,1.3,-.4,1.8,-.8c.5,-.5,.8,-1.1,.8,-1.9v-.1c0,-.4,-.2,-1,-.6,-1.5c-.5,-.5,-1.2,-.8,-2.2,-.9h-.1c-3.8,0,-7.5,-.1,-11.5,-.2H73c-.2,0,-.3,0,-.4,0v.7l.5,.5Z" class="g5_19"/>
<path d="M59.9,971h.7c0,-.3,0,-.6,-.1,-.8v-.1l-.1,-.1c-.2,-.4,-.4,-.8,-.8,-1.1c-.4,-.3,-.9,-.5,-1.5,-.5v.7v-.7c-.7,0,-1.3,0,-1.9,0c-.7,0,-1.3,0,-2,0c-.4,0,-.8,0,-1.3,.1c-.6,0,-1.2,.1,-1.6,.5c-.5,.4,-.6,1,-.6,1.6v.4c.3,3.1,.7,6.3,1,9.4c0,.5,.1,1,.4,1.4c.2,.4,.6,.8,1.1,1v.1h.1c.4,.1,.8,.1,1.2,.1v-.2v.2v-.2v.2c.5,0,.9,0,1.3,0c.3,0,.7,0,1,0c.3,0,.7,0,1.1,0c.6,0,1.2,-.1,1.7,-.4c.5,-.4,.7,-.9,.9,-1.5l-.7,-.2l.5,.5c.2,-.2,.2,-.3,.2,-.3l.1,-.2c0,-.2,0,-.4,0,-.7c0,-.8,0,-2.4,0,-4.1c0,-1.6,0,-3.3,0,-4.6c0,-.2,0,-.4,0,-.5H59.2c0,.1,0,.3,0,.5c0,1.3,0,3,0,4.6c0,1.2,0,2.4,0,3.3c0,.4,0,.8,0,1v.3h.2h-.2h.2h-.2l.5,.1l-.5,-.2v.1l.5,.1l-.5,-.2l.6,.2l-.4,-.5l-.2,.3l.6,.2l-.4,-.5l-.2,.2v.1c-.2,.6,-.4,.8,-.5,.8c-.1,.1,-.3,.2,-.8,.2c-.4,0,-.8,0,-1.1,0c-.3,0,-.7,0,-1,0c-.4,0,-.8,0,-1.3,0v.7v-.7c-.3,0,-.6,0,-.8,-.1l-.2,.7l.3,-.6c-.2,-.2,-.4,-.3,-.5,-.5c-.1,-.2,-.2,-.5,-.2,-.8c-.3,-3.2,-.7,-6.3,-1,-9.5v-.2c0,-.3,.1,-.5,.2,-.5c0,-.1,.2,-.2,.6,-.2c.5,0,.9,0,1.3,0c.7,0,1.3,0,2,0c.6,0,1.2,0,1.9,0c.3,0,.4,0,.6,.2c.2,.1,.3,.3,.5,.6l.6,-.4l-.7,.1c.1,.3,.1,.4,.1,.6Zm-1.8,8.6h-.7c0,.2,-.1,.3,-.3,.4H57c-.1,0,-.3,-.2,-.3,-.4l.1,-.3l.2,-.1c.2,0,.4,.2,.4,.4h1.4c0,-1,-.8,-1.8,-1.8,-1.8c-.9,0,-1.7,.8,-1.7,1.8v.1c0,.9,.8,1.7,1.7,1.7h.1c1,0,1.7,-.8,1.7,-1.8Z" class="g5_19"/>
<path d="M324.8,1242.9H584.6V1082.3H324.8v160.6Z" class="g0_19"/>
<path d="M324.8,1082.3H584.6v26.3H324.8v-26.3Z" class="g1_19"/>
<path d="M324.8,1144.4H511.6v35.8H324.8v-35.8Zm186.8,0h73v35.8h-73v-35.8Zm-186.8,57.1H511.6v21.3H324.8v-21.3Zm186.8,0h73v21.3h-73v-21.3Z" class="g2_19"/>
<path d="M324.8,1223.5H511.6V1222H324.8Z" class="g3_19"/>
<path d="M511.6,1223.5h73V1222h-73Z" class="g3_19"/>
<path d="M343.9,1092.5l-1,-.6c-.2,-.2,-.6,-.2,-.8,.1l-4.7,6.9l-2.1,-2.1c-.3,-.2,-.6,-.2,-.8,0l-.9,.8c-.2,.2,-.2,.6,0,.8l3.4,3.3c.1,.2,.4,.4,.7,.4c.3,0,.5,-.2,.7,-.4l5.7,-8.4c.1,-.2,.1,-.6,-.2,-.8Z" class="g3_19"/>
<path d="M44.1,1127h-.8v25.4H303.1v-26.1H43.3v.7h.8v.8H301.6v23.1H44.8V1127h-.7v.8Z" class="g5_19"/>
<path d="M64.5,1148.3c-5.3,0,-9.6,-4.3,-9.6,-9.7c0,-5.3,4.4,-9.6,9.7,-9.6c5.3,0,9.6,4.4,9.6,9.7c0,5.3,-4.4,9.6,-9.7,9.6m0,-1.4c4.6,0,8.3,-3.7,8.3,-8.2c0,-4.6,-3.7,-8.3,-8.3,-8.3c-4.5,0,-8.2,3.7,-8.2,8.2c-.1,4.6,3.6,8.3,8.2,8.3Z" class="g5_19"/>
<path d="M51.3,1134.2c.4,.1,.5,-.1,.5,-.4c0,-1.3,0,-2.5,0,-3.7c0,-.2,-.1,-.5,0,-.6c.2,-.2,.4,-.5,.6,-.5c.3,0,.5,.3,.7,.5c.1,.1,.1,.4,.1,.6c0,1.4,0,2.7,0,4.1h.4c0,-.9,0,-1.8,0,-2.7c0,-.6,-.1,-1.3,-.1,-1.9c0,-.4,.3,-.6,.7,-.7c.4,0,.7,.3,.7,.7c.1,1.8,.2,3.7,.2,5.5c0,.8,-.4,1.4,-1.1,1.9c-.3,.2,-.4,.4,-.4,.8c.1,3.5,.1,7,.2,10.5c0,.6,-.2,1,-.8,1.3c-.5,.2,-1,.2,-1.4,-.2c-.2,-.3,-.4,-.8,-.4,-1.2c0,-2.3,0,-4.6,.1,-6.9c0,-1.2,0,-2.4,0,-3.6c0,-.2,-.2,-.5,-.3,-.6c-.8,-.6,-1.2,-1.4,-1.2,-2.4c.1,-1.6,.2,-3.3,.2,-4.9c0,-.5,.2,-.8,.7,-.9c.4,0,.7,.3,.7,.9c0,1.2,-.1,2.5,-.1,3.8c0,.2,0,.3,0,.6m2.1,1.4H51.5c.7,.7,1.3,.7,1.9,0Z" class="g5_19"/>
<path d="M75,1139.4c0,-2.9,0,-5.7,0,-8.6c0,-.7,.2,-1.3,.8,-1.6c.9,-.6,2.1,-.1,2.4,1c.5,2.3,.8,4.6,.5,6.9c-.1,1.1,-.3,2.2,-.5,3.3c0,.2,0,.5,0,.7c0,2.4,0,4.8,0,7.2c-.1,.9,-.7,1.4,-1.7,1.4c-.9,0,-1.5,-.5,-1.5,-1.4c0,-.2,0,-.4,0,-.5c0,-2.8,0,-5.6,0,-8.4m1.3,.4q.6,.1,.7,-.3c.5,-2.3,.5,-4.7,.2,-7c-.1,-.6,-.2,-1.2,-.3,-1.8l-.3,-.3l-.2,.4l-.1,.2c0,2.8,0,5.5,0,8.3Z" class="g5_19"/>
<path d="M64.5,1131.9v.8h.1c3.2,-.1,5.9,2.7,6,5.9v.1c0,3.2,-2.7,6,-6,6h-.1c-1.6,0,-3.1,-.7,-4.2,-1.8c-1.1,-1.1,-1.8,-2.6,-1.8,-4.2c0,-3.3,2.7,-6,6,-6v-1.6c-4.1,.1,-7.5,3.4,-7.5,7.6c0,4.1,3.4,7.5,7.5,7.5h.1c4.1,0,7.5,-3.4,7.5,-7.5v-.1c0,-4.1,-3.4,-7.5,-7.5,-7.5h-.1Z" class="g5_19"/>
<path d="M606.7,172.5h34.6v40.4H606.7V172.5Z" class="g3_19"/>
<image x="641" y="172" width="226" height="41" xlink:href="shade/1.png"/>
<path d="M641.3,193.6H866.1v-1.5H641.3Z" class="g6_19"/>
<path d="M624.5,211.4c9.9,0,17.9,-8,17.9,-17.9c0,-9.8,-8,-17.8,-17.9,-17.8c-9.8,0,-17.8,8,-17.8,17.8c0,9.9,8,17.9,17.8,17.9Z" class="g6_19"/>
<path d="M635,195.3c0,.8,.2,1.5,.2,2.2c-.1,2,-1,3.6,-2.7,4.7c-1.3,.8,-2.8,1.2,-4.4,1.3c-2.4,0,-4.8,0,-7.2,0c-1.6,-.1,-3.1,-.5,-4.5,-1.4c-1.9,-1.4,-2.7,-3.2,-2.5,-5.6c.3,-2,.4,-3.9,.4,-5.9c.1,-1.8,0,-3.6,0,-5.4c-.1,-2.2,.8,-3.8,2.5,-5c1.5,-1.1,3.1,-1.6,4.9,-1.6c1.9,0,3.8,0,5.7,0c1.7,0,3.3,.5,4.7,1.4c1.9,1.4,2.8,3.2,2.7,5.6c-.1,1.2,-.1,2.4,-.1,3.6c0,0,.1,4.1,.3,6.1M624.5,179.8v0c-.9,0,-1.8,0,-2.8,0c-1.3,0,-2.5,.3,-3.7,1c-1.5,.9,-2.6,2.2,-2.5,4.2c.1,.8,.3,1.7,.6,2.5c.4,1.3,1,2.6,2.1,3.5c.3,.2,.3,.6,0,.9c-.6,.6,-1.3,1.2,-2.1,1.5c-.6,.1,-.7,.5,-.8,1c0,.5,.1,.8,.5,1.2c.7,.8,1.6,1.3,2.6,1.8c1.8,.7,3.7,1,5.7,1c2,0,4,-.1,6,-.8c1.3,-.5,2.5,-1.2,3.4,-2.3c.1,-.2,.2,-.3,.2,-.5c0,-.3,0,-.7,-.1,-1l-.2,-.3c-1,-.3,-1.8,-.9,-2.6,-1.6c-.3,-.3,-.2,-.7,.1,-1c.4,-.4,.9,-.9,1.2,-1.5c.7,-1.2,1.2,-2.5,1.4,-3.9c.2,-1.2,-.1,-2.2,-.8,-3.2c-1.1,-1.5,-2.7,-2.3,-4.6,-2.4c-1.2,-.1,-2.4,-.1,-3.6,-.1m-9.3,16.6c-.4,1.6,0,3,1.3,4.2c1.2,1.2,2.8,1.6,4.5,1.7c2.3,0,4.7,0,7,0c.8,0,1.6,-.1,2.3,-.4c1.4,-.5,2.6,-1.3,3.3,-2.6c.4,-1,.5,-2,.2,-3h-.1c-1.1,1.5,-2.6,2.2,-4.2,2.7c-2.9,.8,-5.8,.8,-8.7,.3c-1.4,-.2,-2.7,-.7,-3.9,-1.5c-.6,-.4,-1.1,-.9,-1.7,-1.4Z" class="g7_19"/>
<path d="M619.2,203.9c-.5,.4,-1,.7,-1.5,1.1c-.5,.4,-1.8,1.4,-2.3,1.8c-.2,.2,-.5,.2,-.8,.1l-.3,-.3c0,-.3,0,-.5,.3,-.6c.3,-.3,1.3,-1.2,1.7,-1.4c.4,-.4,.8,-.7,1.3,-1l.4,-.1c.4,.1,.7,.2,1.2,.4Z" class="g7_19"/>
<path d="M629.9,203.9c.5,-.2,.9,-.3,1.3,-.4l.3,.1c.7,.5,2.3,1.7,3,2.3c.1,.1,.2,.2,.3,.4c.1,.2,0,.5,-.2,.6c-.2,.1,-.6,.1,-.7,0c-1.1,-.8,-2.9,-2.2,-4,-3Z" class="g7_19"/>
<path d="M624.5,190.5c-1.1,0,-2.2,.1,-3.2,0c-2,-.2,-3.5,-1.6,-3.9,-3.5c-.1,-.5,-.2,-1,-.3,-1.5c-.4,-1.9,1,-3.6,2.9,-3.6c3,0,6,0,9,0c1.9,0,3.2,1.5,3,3.4c-.2,1,-.3,2.1,-.9,3.1c-.8,1.4,-2.1,2.1,-3.8,2.1c-.9,0,-1.9,0,-2.8,0Z" class="g7_19"/>
<path d="M629.1,193.2c.2,0,.5,0,.8,0c.4,0,.7,.3,.5,.6c-.4,.9,-1,1.7,-1.5,2.6c-.1,.2,-.3,.3,-.5,.3c-.6,0,-1.1,0,-1.6,0c-.5,0,-.8,-.3,-.6,-.7c.5,-.8,1,-1.6,1.5,-2.5c.1,-.2,.3,-.3,.6,-.3c.3,0,.5,0,.8,0Z" class="g7_19"/>
<path d="M621.5,196.7c-.3,0,-.5,0,-.7,0c-.4,0,-.6,-.1,-.7,-.4c-.5,-.8,-1,-1.6,-1.4,-2.4c-.3,-.4,0,-.7,.6,-.7c.4,0,.9,0,1.4,0c.4,0,.6,.1,.7,.3c.5,.9,1,1.7,1.5,2.5c.1,.3,-.1,.6,-.6,.7c-.3,0,-.5,0,-.8,0Z" class="g7_19"/>
<path d="M625.6,201c0,.6,-.5,1,-1.1,1c-.5,0,-1,-.4,-1,-1c0,-.5,.4,-1,1,-1c.6,-.1,1.1,.4,1.1,1Z" class="g7_19"/>
<path d="M606.3,893.3H866.1v-1.5H606.3Z" class="g8_19"/>
<path d="M866.1,328.8V308.4h-.7v20.4Z" class="g3_19"/>
<path d="M866.1,353.7V328.8h-.7v24.9Z" class="g3_19"/>
<path d="M725.3,371.9V353.7h-.7v18.2Z" class="g3_19"/>
<path d="M790.1,371.9V353.7h-.8v18.2Z" class="g3_19"/>
<path d="M866.1,371.9V353.7h-.7v18.2Z" class="g3_19"/>
<path d="M725.3,390.1V371.9h-.7v18.2Z" class="g3_19"/>
<path d="M790.1,390.1V371.9h-.8v18.2Z" class="g3_19"/>
<path d="M866.1,390.1V371.9h-.7v18.2Z" class="g3_19"/>
<path d="M725.3,408.4V390.1h-.7v18.3Z" class="g3_19"/>
<path d="M790.1,408.4V390.1h-.8v18.3Z" class="g3_19"/>
<path d="M866.1,408.4V390.1h-.7v18.3Z" class="g3_19"/>
<path d="M725.3,426.6V408.4h-.7v18.2Z" class="g3_19"/>
<path d="M790.1,426.6V408.4h-.8v18.2Z" class="g3_19"/>
<path d="M866.1,426.6V408.4h-.7v18.2Z" class="g3_19"/>
<path d="M725.3,444.8V426.6h-.7v18.2Z" class="g3_19"/>
<path d="M790.1,444.8V426.6h-.8v18.2Z" class="g3_19"/>
<path d="M866.1,444.8V426.6h-.7v18.2Z" class="g3_19"/>
<path d="M725.3,463.1V444.8h-.7v18.3Z" class="g3_19"/>
<path d="M790.1,463.1V444.8h-.8v18.3Z" class="g3_19"/>
<path d="M866.1,463.1V444.8h-.7v18.3Z" class="g3_19"/>
<path d="M725.3,481.3V463.1h-.7v18.2Z" class="g3_19"/>
<path d="M790.1,481.3V463.1h-.8v18.2Z" class="g3_19"/>
<path d="M866.1,481.3V463.1h-.7v18.2Z" class="g3_19"/>
<path d="M725.3,499.5V481.3h-.7v18.2Z" class="g3_19"/>
<path d="M790.1,499.5V481.3h-.8v18.2Z" class="g3_19"/>
<path d="M866.1,499.5V481.3h-.7v18.2Z" class="g3_19"/>
<path d="M725.3,517.8V499.5h-.7v18.3Z" class="g3_19"/>
<path d="M790.1,517.8V499.5h-.8v18.3Z" class="g3_19"/>
<path d="M866.1,517.8V499.5h-.7v18.3Z" class="g3_19"/>
<path d="M725.3,536V517.8h-.7V536Z" class="g3_19"/>
<path d="M790.1,536V517.8h-.8V536Z" class="g3_19"/>
<path d="M866.1,536V517.8h-.7V536Z" class="g3_19"/>
<path d="M725.3,554.2V536h-.7v18.2Z" class="g3_19"/>
<path d="M790.1,554.2V536h-.8v18.2Z" class="g3_19"/>
<path d="M866.1,554.2V536h-.7v18.2Z" class="g3_19"/>
<path d="M725.3,573.3V554.2h-.7v19.1Z" class="g3_19"/>
<path d="M790.1,573.3V554.2h-.8v19.1Z" class="g3_19"/>
<path d="M866.1,573.3V554.2h-.7v19.1Z" class="g3_19"/>
<path d="M725.3,594V573.3h-.7V594Z" class="g3_19"/>
<path d="M790.1,594V573.3h-.8V594Z" class="g3_19"/>
<path d="M866.1,594V573.3h-.7V594Z" class="g3_19"/>
<path d="M640.9,329.6H725v-1.5H640.9Z" class="g6_19"/>
<path d="M725,329.6h64.7v-1.5H725Z" class="g6_19"/>
<path d="M789.7,329.6h75.7v-1.5H789.7Z" class="g6_19"/>
<path d="M624.1,347.4c9.9,0,17.9,-8,17.9,-17.9c0,-9.8,-8,-17.8,-17.9,-17.8c-9.8,0,-17.8,8,-17.8,17.8c0,9.9,8,17.9,17.8,17.9Z" class="g6_19"/>
<path d="M634.6,331.3c0,.7,.2,1.4,.2,2.2c0,2,-1,3.5,-2.7,4.6c-1.3,.9,-2.8,1.3,-4.3,1.3c-2.4,0,-4.8,.1,-7.2,0c-1.7,0,-3.2,-.4,-4.5,-1.3c-2,-1.4,-2.8,-3.3,-2.5,-5.7c.2,-1.9,.3,-3.9,.4,-5.8c0,-1.8,-.1,-3.7,-.1,-5.5c0,-2.1,.9,-3.7,2.5,-4.9c1.5,-1.1,3.1,-1.6,4.9,-1.6c1.9,0,3.9,-.1,5.8,0c1.6,0,3.2,.4,4.6,1.4c1.9,1.4,2.8,3.2,2.7,5.6c-.1,1.2,0,2.4,0,3.6c-.1,0,.1,4.1,.2,6.1M624.2,315.8v0c-1,0,-1.9,-.1,-2.9,0c-1.3,0,-2.5,.3,-3.6,1c-1.6,.9,-2.7,2.2,-2.6,4.1c.1,.9,.3,1.7,.6,2.5c.4,1.4,1,2.6,2.1,3.6c.3,.2,.3,.5,0,.8c-.6,.7,-1.3,1.3,-2.1,1.5c-.6,.2,-.7,.5,-.7,1.1c-.1,.4,.1,.8,.4,1.1c.7,.8,1.7,1.4,2.7,1.8c1.8,.8,3.7,1,5.6,1.1c2,0,4.1,-.2,6,-.9c1.4,-.4,2.6,-1.1,3.4,-2.3c.1,-.1,.2,-.2,.2,-.4c0,-.3,0,-.7,0,-1l-.3,-.3c-1,-.3,-1.8,-.9,-2.5,-1.7c-.3,-.3,-.3,-.6,0,-.9c.4,-.5,.9,-.9,1.2,-1.5c.8,-1.2,1.2,-2.6,1.4,-4c.2,-1.1,-.1,-2.2,-.8,-3.1c-1.1,-1.6,-2.7,-2.3,-4.6,-2.5c-1.2,-.1,-2.3,0,-3.5,0m-9.4,16.5c-.3,1.6,0,3.1,1.3,4.2c1.3,1.2,2.8,1.7,4.5,1.7c2.4,0,4.7,0,7,0c.8,0,1.6,-.1,2.4,-.3c1.3,-.5,2.5,-1.3,3.2,-2.7c.5,-.9,.5,-1.9,.3,-2.9h-.1c-1.1,1.4,-2.6,2.2,-4.3,2.7c-2.9,.7,-5.7,.7,-8.6,.3c-1.4,-.3,-2.8,-.7,-3.9,-1.5c-.7,-.4,-1.2,-1,-1.8,-1.5Z" class="g7_19"/>
<path d="M618.8,339.8c-.5,.4,-1,.8,-1.5,1.2c-.5,.4,-1.8,1.4,-2.3,1.8c-.2,.2,-.5,.2,-.7,.1l-.3,-.3c-.1,-.3,0,-.5,.2,-.7c.3,-.2,1.4,-1.1,1.7,-1.4c.4,-.3,.9,-.6,1.3,-.9l.4,-.1c.4,.1,.8,.2,1.2,.3Z" class="g7_19"/>
<path d="M629.5,339.8c.5,-.1,.9,-.2,1.3,-.3l.3,.1c.7,.5,2.3,1.7,3,2.3c.1,.1,.3,.2,.3,.4c.1,.2,.1,.5,-.2,.6c-.2,0,-.5,.1,-.7,0c-1.1,-.8,-2.9,-2.2,-4,-3.1Z" class="g7_19"/>
<path d="M624.1,326.5c-1.1,0,-2.1,0,-3.2,0c-2,-.2,-3.5,-1.6,-3.9,-3.6c-.1,-.4,-.2,-.9,-.3,-1.4c-.4,-1.9,1,-3.6,3,-3.6c2.9,0,5.9,0,8.9,0c1.9,0,3.2,1.5,3,3.3c-.1,1.1,-.3,2.2,-.8,3.1c-.9,1.4,-2.2,2.2,-3.9,2.2c-.9,0,-1.9,0,-2.8,0Z" class="g7_19"/>
<path d="M628.7,329.2c.3,0,.5,0,.8,0c.4,0,.7,.3,.5,.6c-.4,.9,-.9,1.7,-1.4,2.6c-.1,.1,-.3,.2,-.6,.2c-.5,0,-1.1,0,-1.6,0c-.5,0,-.7,-.3,-.6,-.6c.5,-.8,1,-1.7,1.5,-2.5c.1,-.2,.3,-.3,.6,-.3c.3,0,.5,0,.8,0Z" class="g7_19"/>
<path d="M621.1,332.6c-.2,0,-.5,0,-.7,0c-.4,0,-.6,-.1,-.7,-.3c-.5,-.8,-1,-1.6,-1.4,-2.4c-.2,-.4,0,-.7,.6,-.7c.5,0,1,0,1.5,0c.3,0,.5,.1,.6,.3c.5,.8,1,1.7,1.5,2.5c.2,.3,-.1,.6,-.6,.6c-.2,0,-.5,0,-.8,0Z" class="g7_19"/>
<path d="M625.2,337c0,.5,-.5,1,-1,1c-.6,0,-1.1,-.5,-1.1,-1c0,-.6,.5,-1.1,1,-1.1c.6,0,1.1,.5,1.1,1.1Z" class="g7_19"/>
<path d="M866.1,620.8V600.4h-.7v20.4Z" class="g3_19"/>
<path d="M866.1,645.7V620.8h-.7v24.9Z" class="g3_19"/>
<path d="M725.3,664.3V645.7h-.7v18.6Z" class="g3_19"/>
<path d="M790.1,664.3V645.7h-.8v18.6Z" class="g3_19"/>
<path d="M866.1,664.3V645.7h-.7v18.6Z" class="g3_19"/>
<path d="M725.3,683V664.3h-.7V683Z" class="g3_19"/>
<path d="M790.1,683V664.3h-.8V683Z" class="g3_19"/>
<path d="M866.1,683V664.3h-.7V683Z" class="g3_19"/>
<path d="M725.3,701.7V683h-.7v18.7Z" class="g3_19"/>
<path d="M790.1,701.7V683h-.8v18.7Z" class="g3_19"/>
<path d="M866.1,701.7V683h-.7v18.7Z" class="g3_19"/>
<path d="M725.3,720.3V701.7h-.7v18.6Z" class="g3_19"/>
<path d="M790.1,720.3V701.7h-.8v18.6Z" class="g3_19"/>
<path d="M866.1,720.3V701.7h-.7v18.6Z" class="g3_19"/>
<path d="M725.3,739V720.3h-.7V739Z" class="g3_19"/>
<path d="M790.1,739V720.3h-.8V739Z" class="g3_19"/>
<path d="M866.1,739V720.3h-.7V739Z" class="g3_19"/>
<path d="M725.3,757.7V739h-.7v18.7Z" class="g3_19"/>
<path d="M790.1,757.7V739h-.8v18.7Z" class="g3_19"/>
<path d="M866.1,757.7V739h-.7v18.7Z" class="g3_19"/>
<path d="M725.3,776.3V757.7h-.7v18.6Z" class="g3_19"/>
<path d="M790.1,776.3V757.7h-.8v18.6Z" class="g3_19"/>
<path d="M866.1,776.3V757.7h-.7v18.6Z" class="g3_19"/>
<path d="M725.3,795V776.3h-.7V795Z" class="g3_19"/>
<path d="M790.1,795V776.3h-.8V795Z" class="g3_19"/>
<path d="M866.1,795V776.3h-.7V795Z" class="g3_19"/>
<path d="M725.3,813.7V795h-.7v18.7Z" class="g3_19"/>
<path d="M790.1,813.7V795h-.8v18.7Z" class="g3_19"/>
<path d="M866.1,813.7V795h-.7v18.7Z" class="g3_19"/>
<path d="M725.3,832.3V813.7h-.7v18.6Z" class="g3_19"/>
<path d="M790.1,832.3V813.7h-.8v18.6Z" class="g3_19"/>
<path d="M866.1,832.3V813.7h-.7v18.6Z" class="g3_19"/>
<path d="M725.3,851V832.3h-.7V851Z" class="g3_19"/>
<path d="M790.1,851V832.3h-.8V851Z" class="g3_19"/>
<path d="M866.1,851V832.3h-.7V851Z" class="g3_19"/>
<path d="M725.3,870.1V851h-.7v19.1Z" class="g3_19"/>
<path d="M790.1,870.1V851h-.8v19.1Z" class="g3_19"/>
<path d="M866.1,870.1V851h-.7v19.1Z" class="g3_19"/>
<path d="M725.3,888.8V870.1h-.7v18.7Z" class="g3_19"/>
<path d="M790.1,888.8V870.1h-.8v18.7Z" class="g3_19"/>
<path d="M866.1,888.8V870.1h-.7v18.7Z" class="g3_19"/>
<path d="M640.4,621.6H725v-1.5H640.4Z" class="g6_19"/>
<path d="M725,621.6h64.7v-1.5H725Z" class="g6_19"/>
<path d="M789.7,621.6h75.7v-1.5H789.7Z" class="g6_19"/>
<path d="M624.1,639.4c9.9,0,17.9,-8,17.9,-17.9c0,-9.8,-8,-17.8,-17.9,-17.8c-9.8,0,-17.8,8,-17.8,17.8c0,9.9,8,17.9,17.8,17.9Z" class="g6_19"/>
<path d="M634.6,623.3c0,.7,.2,1.5,.2,2.2c0,2,-1,3.5,-2.7,4.6c-1.3,.9,-2.8,1.3,-4.3,1.3c-2.4,.1,-4.8,.1,-7.2,0c-1.7,0,-3.2,-.4,-4.5,-1.3c-2,-1.4,-2.8,-3.3,-2.5,-5.7c.2,-1.9,.3,-3.9,.4,-5.8c0,-1.8,-.1,-3.7,-.1,-5.5c0,-2.1,.9,-3.7,2.5,-4.9c1.5,-1.1,3.1,-1.6,4.9,-1.6c1.9,0,3.9,0,5.8,0c1.6,0,3.2,.5,4.6,1.4c1.9,1.4,2.8,3.2,2.7,5.6c-.1,1.2,0,2.4,0,3.6c-.1,0,.1,4.1,.2,6.1M624.2,607.8v0c-1,0,-1.9,-.1,-2.9,0c-1.3,0,-2.5,.3,-3.6,1c-1.6,.9,-2.7,2.2,-2.6,4.1c.1,.9,.3,1.7,.6,2.6c.4,1.3,1,2.5,2.1,3.5c.3,.2,.3,.6,0,.8c-.6,.7,-1.3,1.3,-2.1,1.6c-.6,.1,-.7,.4,-.7,1c-.1,.5,.1,.8,.4,1.2c.7,.8,1.7,1.3,2.7,1.7c1.8,.8,3.7,1,5.6,1.1c2,0,4.1,-.2,6,-.9c1.4,-.4,2.6,-1.1,3.4,-2.3c.1,-.1,.2,-.2,.2,-.4c0,-.3,0,-.7,0,-1l-.3,-.3c-1,-.3,-1.8,-.9,-2.5,-1.7c-.3,-.3,-.3,-.6,0,-.9c.4,-.5,.9,-.9,1.2,-1.5c.8,-1.2,1.2,-2.5,1.4,-4c.2,-1.1,-.1,-2.2,-.8,-3.1c-1.1,-1.5,-2.7,-2.3,-4.6,-2.5c-1.2,-.1,-2.3,0,-3.5,0m-9.4,16.5c-.3,1.6,0,3.1,1.3,4.3c1.3,1.1,2.8,1.6,4.5,1.6c2.4,.1,4.7,0,7,0c.8,0,1.6,-.1,2.4,-.3c1.3,-.5,2.5,-1.3,3.2,-2.7c.5,-.9,.5,-1.9,.3,-2.9h-.1c-1.1,1.4,-2.6,2.2,-4.3,2.7c-2.9,.7,-5.7,.7,-8.6,.3c-1.4,-.3,-2.8,-.7,-3.9,-1.5c-.7,-.4,-1.2,-1,-1.8,-1.5Z" class="g7_19"/>
<path d="M618.8,631.9c-.5,.3,-1,.7,-1.5,1.1c-.5,.4,-1.8,1.4,-2.3,1.8c-.2,.2,-.5,.2,-.7,.1l-.3,-.3c-.1,-.3,0,-.5,.2,-.7c.3,-.2,1.4,-1.1,1.7,-1.4c.4,-.3,.9,-.6,1.3,-.9l.4,-.1c.4,.1,.8,.2,1.2,.4Z" class="g7_19"/>
<path d="M629.5,631.9c.5,-.2,.9,-.3,1.3,-.4l.3,.1c.7,.5,2.3,1.7,3,2.3c.1,.1,.3,.2,.3,.4c.1,.2,.1,.5,-.2,.6c-.2,.1,-.5,.1,-.7,0c-1.1,-.8,-2.9,-2.2,-4,-3Z" class="g7_19"/>
<path d="M624.1,618.5c-1.1,0,-2.1,.1,-3.2,0c-2,-.2,-3.5,-1.6,-3.9,-3.5c-.1,-.5,-.2,-1,-.3,-1.5c-.4,-1.9,1,-3.6,3,-3.6c2.9,0,5.9,0,8.9,0c1.9,0,3.2,1.5,3,3.3c-.1,1.1,-.3,2.2,-.8,3.1c-.9,1.5,-2.2,2.2,-3.9,2.2c-.9,0,-1.9,0,-2.8,0Z" class="g7_19"/>
<path d="M628.7,621.2c.3,0,.5,0,.8,0c.4,0,.7,.3,.5,.6c-.4,.9,-.9,1.7,-1.4,2.6c-.1,.2,-.3,.2,-.6,.2c-.5,0,-1.1,.1,-1.6,0c-.5,0,-.7,-.3,-.6,-.6c.5,-.8,1,-1.7,1.5,-2.5c.1,-.2,.3,-.3,.6,-.3c.3,0,.5,0,.8,0Z" class="g7_19"/>
<path d="M621.1,624.6c-.2,0,-.5,0,-.7,0c-.4,.1,-.6,-.1,-.7,-.3c-.5,-.8,-1,-1.6,-1.4,-2.4c-.2,-.4,0,-.7,.6,-.7c.5,0,1,0,1.5,0c.3,0,.5,.1,.6,.3c.5,.8,1,1.7,1.5,2.5c.2,.3,-.1,.6,-.6,.6c-.2,.1,-.5,0,-.8,0Z" class="g7_19"/>
<path d="M625.2,629c0,.5,-.5,1,-1,1c-.6,0,-1.1,-.4,-1.1,-1c0,-.6,.5,-1.1,1,-1.1c.6,0,1.1,.5,1.1,1.1Z" class="g7_19"/>
<path d="M703.1,309.5V279H700v30.5Z" class="g3_19"/>
<path d="M43.3,320.7H584.6v-2.3H43.3v2.3Z" class="g9_19"/>
<image clip-path="url(#c8_19)" preserveAspectRatio="none" x="135" y="296" width="89" height="23" xlink:href="img/9.jpg"/>
<image clip-path="url(#c9_19)" preserveAspectRatio="none" x="135" y="224" width="89" height="73" xlink:href="img/10.jpg"/>
<image clip-path="url(#ca_19)" preserveAspectRatio="none" x="135" y="320" width="98" height="6" xlink:href="img/11.jpg"/>
<image clip-path="url(#cb_19)" preserveAspectRatio="none" x="135" y="318" width="89" height="3" xlink:href="img/12.jpg"/>
<path d="M160.5,237.4c-10.2,0,-18.4,8.2,-18.4,18.3v64.1h79.1V255.7c0,-10.1,-8.2,-18.3,-18.4,-18.3Z" class="g3_19"/>
<path d="M148.3,263.5h2.3c.2,0,.4,-.1,.4,-.3c0,-.3,-.2,-.4,-.4,-.4h-2.3c-.2,0,-.4,.1,-.4,.4c0,.2,.2,.3,.4,.3m3.9,0h2.3c.2,0,.4,-.1,.4,-.3c0,-.3,-.2,-.4,-.4,-.4h-2.3c-.2,0,-.4,.1,-.4,.4c0,.2,.2,.3,.4,.3m3.9,0h2.3c.2,0,.4,-.1,.4,-.3c0,-.3,-.2,-.4,-.4,-.4h-2.3c-.2,0,-.4,.1,-.4,.4c0,.2,.2,.3,.4,.3m3.8,0h2.4c.2,0,.4,-.1,.4,-.3c0,-.3,-.2,-.4,-.4,-.4h-2.4c-.2,0,-.3,.1,-.3,.4c0,.2,.1,.3,.3,.3m3.9,0h2.4c.2,0,.3,-.1,.3,-.3c0,-.3,-.1,-.4,-.3,-.4h-2.4c-.2,0,-.4,.1,-.4,.4c0,.2,.2,.3,.4,.3m3.9,0H170c.2,0,.4,-.1,.4,-.3c0,-.3,-.2,-.4,-.4,-.4h-2.3c-.2,0,-.4,.1,-.4,.4c0,.2,.2,.3,.4,.3m3.9,0h2.3c.2,0,.4,-.1,.4,-.3c0,-.3,-.2,-.4,-.4,-.4h-2.3c-.2,0,-.4,.1,-.4,.4c0,.2,.2,.3,.4,.3m3.9,0h2.3c.2,0,.4,-.1,.4,-.3c0,-.3,-.2,-.4,-.4,-.4h-2.3c-.2,0,-.4,.1,-.4,.4c0,.2,.2,.3,.4,.3m3.9,0h2.3c.2,0,.4,-.1,.4,-.3c0,-.3,-.2,-.4,-.4,-.4h-2.3c-.3,0,-.4,.1,-.4,.4c0,.2,.1,.3,.4,.3m3.8,0h2.4c.2,0,.3,-.1,.3,-.3c0,-.3,-.1,-.4,-.3,-.4h-2.4c-.2,0,-.3,.1,-.3,.4c0,.2,.1,.3,.3,.3m3.9,0h2.3c.3,0,.4,-.1,.4,-.3c0,-.3,-.1,-.4,-.4,-.4h-2.3c-.2,0,-.4,.1,-.4,.4c0,.2,.2,.3,.4,.3m3.9,0h2.3c.2,0,.4,-.1,.4,-.3c0,-.3,-.2,-.4,-.4,-.4H191c-.2,0,-.4,.1,-.4,.4c0,.2,.2,.3,.4,.3m3.9,0h2.3c.2,0,.4,-.1,.4,-.3c0,-.3,-.2,-.4,-.4,-.4h-2.3c-.2,0,-.4,.1,-.4,.4c0,.2,.2,.3,.4,.3m3.9,0h2.3c.2,0,.4,-.1,.4,-.3c0,-.3,-.2,-.4,-.4,-.4h-2.3c-.2,0,-.4,.1,-.4,.4c0,.2,.2,.3,.4,.3m3.8,0H205c.2,0,.4,-.1,.4,-.3c0,-.3,-.2,-.4,-.4,-.4h-2.4c-.2,0,-.3,.1,-.3,.4c0,.2,.1,.3,.3,.3m3.9,0h2.4c.2,0,.3,-.1,.3,-.3c0,-.3,-.1,-.4,-.3,-.4h-2.4c-.2,0,-.4,.1,-.4,.4c0,.2,.2,.3,.4,.3m3.9,0h2.3c.2,0,.4,-.1,.4,-.3c0,-.3,-.2,-.4,-.4,-.4h-2.3c-.2,0,-.4,.1,-.4,.4c0,.2,.2,.3,.4,.3m3.9,0h2.3c.2,0,.4,-.1,.4,-.3c0,-.3,-.2,-.4,-.4,-.4h-2.3c-.2,0,-.4,.1,-.4,.4c0,.2,.2,.3,.4,.3Z" class="g4_19"/>
<path d="M148.3,295.8h2.3c.2,0,.4,-.2,.4,-.4c0,-.2,-.2,-.4,-.4,-.4h-2.3c-.2,0,-.4,.2,-.4,.4c0,.2,.2,.4,.4,.4m3.9,0h2.3c.2,0,.4,-.2,.4,-.4c0,-.2,-.2,-.4,-.4,-.4h-2.3c-.2,0,-.4,.2,-.4,.4c0,.2,.2,.4,.4,.4m3.9,0h2.3c.2,0,.4,-.2,.4,-.4c0,-.2,-.2,-.4,-.4,-.4h-2.3c-.2,0,-.4,.2,-.4,.4c0,.2,.2,.4,.4,.4m3.8,0h2.4c.2,0,.4,-.2,.4,-.4c0,-.2,-.2,-.4,-.4,-.4h-2.4c-.2,0,-.3,.2,-.3,.4c0,.2,.1,.4,.3,.4m3.9,0h2.4c.2,0,.3,-.2,.3,-.4c0,-.2,-.1,-.4,-.3,-.4h-2.4c-.2,0,-.4,.2,-.4,.4c0,.2,.2,.4,.4,.4m3.9,0H170c.2,0,.4,-.2,.4,-.4c0,-.2,-.2,-.4,-.4,-.4h-2.3c-.2,0,-.4,.2,-.4,.4c0,.2,.2,.4,.4,.4m3.9,0h2.3c.2,0,.4,-.2,.4,-.4c0,-.2,-.2,-.4,-.4,-.4h-2.3c-.2,0,-.4,.2,-.4,.4c0,.2,.2,.4,.4,.4m3.9,0h2.3c.2,0,.4,-.2,.4,-.4c0,-.2,-.2,-.4,-.4,-.4h-2.3c-.2,0,-.4,.2,-.4,.4c0,.2,.2,.4,.4,.4m3.9,0h2.3c.2,0,.4,-.2,.4,-.4c0,-.2,-.2,-.4,-.4,-.4h-2.3c-.3,0,-.4,.2,-.4,.4c0,.2,.1,.4,.4,.4m3.8,0h2.4c.2,0,.3,-.2,.3,-.4c0,-.2,-.1,-.4,-.3,-.4h-2.4c-.2,0,-.3,.2,-.3,.4c0,.2,.1,.4,.3,.4m3.9,0h2.3c.3,0,.4,-.2,.4,-.4c0,-.2,-.1,-.4,-.4,-.4h-2.3c-.2,0,-.4,.2,-.4,.4c0,.2,.2,.4,.4,.4m3.9,0h2.3c.2,0,.4,-.2,.4,-.4c0,-.2,-.2,-.4,-.4,-.4H191c-.2,0,-.4,.2,-.4,.4c0,.2,.2,.4,.4,.4m3.9,0h2.3c.2,0,.4,-.2,.4,-.4c0,-.2,-.2,-.4,-.4,-.4h-2.3c-.2,0,-.4,.2,-.4,.4c0,.2,.2,.4,.4,.4m3.9,0h2.3c.2,0,.4,-.2,.4,-.4c0,-.2,-.2,-.4,-.4,-.4h-2.3c-.2,0,-.4,.2,-.4,.4c0,.2,.2,.4,.4,.4m3.8,0H205c.2,0,.4,-.2,.4,-.4c0,-.2,-.2,-.4,-.4,-.4h-2.4c-.2,0,-.3,.2,-.3,.4c0,.2,.1,.4,.3,.4m3.9,0h2.4c.2,0,.3,-.2,.3,-.4c0,-.2,-.1,-.4,-.3,-.4h-2.4c-.2,0,-.4,.2,-.4,.4c0,.2,.2,.4,.4,.4m3.9,0h2.3c.2,0,.4,-.2,.4,-.4c0,-.2,-.2,-.4,-.4,-.4h-2.3c-.2,0,-.4,.2,-.4,.4c0,.2,.2,.4,.4,.4m3.9,0h2.3c.2,0,.4,-.2,.4,-.4c0,-.2,-.2,-.4,-.4,-.4h-2.3c-.2,0,-.4,.2,-.4,.4c0,.2,.2,.4,.4,.4Z" class="g4_19"/>
<path d="M142.1,320.7h79V314h-79v6.7Z" class="g9_19"/>
<image clip-path="url(#cc_19)" preserveAspectRatio="none" x="487" y="224" width="99" height="102" xlink:href="img/13.jpg"/>
<image clip-path="url(#cd_19)" preserveAspectRatio="none" x="497" y="224" width="88" height="73" xlink:href="img/14.jpg"/>
<image clip-path="url(#ce_19)" preserveAspectRatio="none" x="497" y="318" width="88" height="3" xlink:href="img/15.jpg"/>
<image clip-path="url(#cf_19)" preserveAspectRatio="none" x="497" y="242" width="74" height="4" xlink:href="img/16.jpg"/>
<path d="M512.9,237.4c-10.1,0,-18.3,8.2,-18.3,18.3v64.1h79V255.7c0,-10.1,-8.2,-18.3,-18.3,-18.3Z" class="g3_19"/>
<path d="M494.5,320.7h79.1v-7.2H494.5v7.2Z" class="g9_19"/>
<path d="M499.9,295.8h2.4c.2,0,.3,-.2,.3,-.4c0,-.2,-.1,-.4,-.3,-.4h-2.4c-.2,0,-.3,.2,-.3,.4c0,.2,.1,.4,.3,.4m3.9,0h2.3c.3,0,.4,-.2,.4,-.4c0,-.2,-.1,-.4,-.4,-.4h-2.3c-.2,0,-.4,.2,-.4,.4c0,.2,.2,.4,.4,.4m3.9,0H510c.2,0,.4,-.2,.4,-.4c0,-.2,-.2,-.4,-.4,-.4h-2.3c-.2,0,-.4,.2,-.4,.4c0,.2,.2,.4,.4,.4m3.9,0h2.3c.2,0,.4,-.2,.4,-.4c0,-.2,-.2,-.4,-.4,-.4h-2.3c-.2,0,-.4,.2,-.4,.4c0,.2,.2,.4,.4,.4m3.9,0h2.3c.2,0,.4,-.2,.4,-.4c0,-.2,-.2,-.4,-.4,-.4h-2.3c-.2,0,-.4,.2,-.4,.4c0,.2,.2,.4,.4,.4m3.9,0h2.3c.2,0,.4,-.2,.4,-.4c0,-.2,-.2,-.4,-.4,-.4h-2.3c-.3,0,-.4,.2,-.4,.4c0,.2,.1,.4,.4,.4m3.8,0h2.4c.2,0,.3,-.2,.3,-.4c0,-.2,-.1,-.4,-.3,-.4h-2.4c-.2,0,-.3,.2,-.3,.4c0,.2,.1,.4,.3,.4m3.9,0h2.3c.2,0,.4,-.2,.4,-.4c0,-.2,-.2,-.4,-.4,-.4h-2.3c-.2,0,-.4,.2,-.4,.4c0,.2,.2,.4,.4,.4m3.9,0h2.3c.2,0,.4,-.2,.4,-.4c0,-.2,-.2,-.4,-.4,-.4H531c-.2,0,-.4,.2,-.4,.4c0,.2,.2,.4,.4,.4m3.9,0h2.3c.2,0,.4,-.2,.4,-.4c0,-.2,-.2,-.4,-.4,-.4h-2.3c-.2,0,-.4,.2,-.4,.4c0,.2,.2,.4,.4,.4m3.9,0h2.3c.2,0,.4,-.2,.4,-.4c0,-.2,-.2,-.4,-.4,-.4h-2.3c-.3,0,-.4,.2,-.4,.4c0,.2,.1,.4,.4,.4m3.8,0H545c.2,0,.3,-.2,.3,-.4c0,-.2,-.1,-.4,-.3,-.4h-2.4c-.2,0,-.3,.2,-.3,.4c0,.2,.1,.4,.3,.4m3.9,0h2.3c.3,0,.4,-.2,.4,-.4c0,-.2,-.1,-.4,-.4,-.4h-2.3c-.2,0,-.4,.2,-.4,.4c0,.2,.2,.4,.4,.4m3.9,0h2.3c.2,0,.4,-.2,.4,-.4c0,-.2,-.2,-.4,-.4,-.4h-2.3c-.2,0,-.4,.2,-.4,.4c0,.2,.2,.4,.4,.4m3.9,0h2.3c.2,0,.4,-.2,.4,-.4c0,-.2,-.2,-.4,-.4,-.4h-2.3c-.2,0,-.4,.2,-.4,.4c0,.2,.2,.4,.4,.4m3.9,0h2.3c.2,0,.4,-.2,.4,-.4c0,-.2,-.2,-.4,-.4,-.4h-2.3c-.2,0,-.4,.2,-.4,.4c0,.2,.2,.4,.4,.4m3.9,0h2.3c.2,0,.4,-.2,.4,-.4c0,-.2,-.2,-.4,-.4,-.4h-2.3c-.3,0,-.4,.2,-.4,.4c0,.2,.1,.4,.4,.4m3.8,0h2.4c.2,0,.3,-.2,.3,-.4c0,-.2,-.1,-.4,-.3,-.4h-2.4c-.2,0,-.3,.2,-.3,.4c0,.2,.1,.4,.3,.4Z" class="ga_19"/>
<path d="M499.3,259.4h2.3c.2,0,.4,-.2,.4,-.4c0,-.2,-.2,-.4,-.4,-.4h-2.3c-.2,0,-.4,.2,-.4,.4c0,.2,.2,.4,.4,.4m3.9,0h2.3c.2,0,.4,-.2,.4,-.4c0,-.2,-.2,-.4,-.4,-.4h-2.3c-.2,0,-.4,.2,-.4,.4c0,.2,.2,.4,.4,.4m3.9,0h2.3c.2,0,.4,-.2,.4,-.4c0,-.2,-.2,-.4,-.4,-.4h-2.3c-.3,0,-.4,.2,-.4,.4c0,.2,.1,.4,.4,.4m3.8,0h2.4c.2,0,.3,-.2,.3,-.4c0,-.2,-.1,-.4,-.3,-.4h-2.4c-.2,0,-.3,.2,-.3,.4c0,.2,.1,.4,.3,.4m3.9,0h2.3c.3,0,.4,-.2,.4,-.4c0,-.2,-.1,-.4,-.4,-.4h-2.3c-.2,0,-.4,.2,-.4,.4c0,.2,.2,.4,.4,.4m3.9,0H521c.2,0,.4,-.2,.4,-.4c0,-.2,-.2,-.4,-.4,-.4h-2.3c-.2,0,-.4,.2,-.4,.4c0,.2,.2,.4,.4,.4m3.9,0h2.3c.2,0,.4,-.2,.4,-.4c0,-.2,-.2,-.4,-.4,-.4h-2.3c-.2,0,-.4,.2,-.4,.4c0,.2,.2,.4,.4,.4m3.9,0h2.3c.2,0,.4,-.2,.4,-.4c0,-.2,-.2,-.4,-.4,-.4h-2.3c-.2,0,-.4,.2,-.4,.4c0,.2,.2,.4,.4,.4m3.8,0h2.4c.2,0,.4,-.2,.4,-.4c0,-.2,-.2,-.4,-.4,-.4h-2.4c-.2,0,-.3,.2,-.3,.4c0,.2,.1,.4,.3,.4m3.9,0h2.4c.2,0,.3,-.2,.3,-.4c0,-.2,-.1,-.4,-.3,-.4h-2.4c-.2,0,-.4,.2,-.4,.4c0,.2,.2,.4,.4,.4m3.9,0h2.3c.2,0,.4,-.2,.4,-.4c0,-.2,-.2,-.4,-.4,-.4h-2.3c-.2,0,-.4,.2,-.4,.4c0,.2,.2,.4,.4,.4m3.9,0h2.3c.2,0,.4,-.2,.4,-.4c0,-.2,-.2,-.4,-.4,-.4H542c-.2,0,-.4,.2,-.4,.4c0,.2,.2,.4,.4,.4m3.9,0h2.3c.2,0,.4,-.2,.4,-.4c0,-.2,-.2,-.4,-.4,-.4h-2.3c-.2,0,-.4,.2,-.4,.4c0,.2,.2,.4,.4,.4m3.9,0h2.3c.2,0,.4,-.2,.4,-.4c0,-.2,-.2,-.4,-.4,-.4h-2.3c-.3,0,-.4,.2,-.4,.4c0,.2,.1,.4,.4,.4m3.8,0H556c.2,0,.3,-.2,.3,-.4c0,-.2,-.1,-.4,-.3,-.4h-2.4c-.2,0,-.3,.2,-.3,.4c0,.2,.1,.4,.3,.4m3.9,0h2.3c.3,0,.4,-.2,.4,-.4c0,-.2,-.1,-.4,-.4,-.4h-2.3c-.2,0,-.4,.2,-.4,.4c0,.2,.2,.4,.4,.4m3.9,0h2.3c.2,0,.4,-.2,.4,-.4c0,-.2,-.2,-.4,-.4,-.4h-2.3c-.2,0,-.4,.2,-.4,.4c0,.2,.2,.4,.4,.4m3.9,0h2.3c.2,0,.4,-.2,.4,-.4c0,-.2,-.2,-.4,-.4,-.4h-2.3c-.2,0,-.4,.2,-.4,.4c0,.2,.2,.4,.4,.4Z" class="ga_19"/>
<path d="M548,276.2v.7h4.6c1.1,0,2,-.9,2,-2.1v-.4c0,-1.1,-.9,-2,-2,-2H548c-.5,0,-1,.2,-1.4,.5c-.1,.2,-.2,.3,-.2,.5v.3c0,.2,-.1,.4,-.2,.5c-.2,.1,-.2,.3,-.2,.5v.1c0,1.2,.9,2.1,2,2.1v-1.4c-.4,0,-.7,-.3,-.7,-.7v-.1h-.7l.5,.5c.4,-.4,.7,-.9,.7,-1.5v-.3h-.7l.4,.5c.2,-.1,.3,-.1,.5,-.1h4.6c.3,0,.6,.3,.6,.6v.4c0,.4,-.3,.7,-.6,.7H548Z" class="ga_19"/>
<path d="M547.1,266.9l-.5,.5c.4,.3,.9,.5,1.4,.5h4.6c1.1,0,2,-.9,2,-2v-.4c0,-1.2,-.9,-2.1,-2,-2.1H548c-1.1,0,-2,.9,-2,2.1v.1c0,.2,0,.4,.2,.5c.1,.2,.2,.3,.2,.5v.3c0,.2,.1,.3,.2,.5l.5,-.5h.7v-.3c0,-.6,-.3,-1.1,-.7,-1.5l-.5,.5h.7v-.1c0,-.4,.3,-.7,.7,-.7h4.6c.3,0,.6,.3,.6,.7v.4c0,.3,-.3,.6,-.6,.6H548c-.2,0,-.3,0,-.5,-.2l-.4,.6h.7Z" class="ga_19"/>
<path d="M553.6,275.7v.7h1.9c1,0,1.8,-.8,1.8,-1.9v-8.7c0,-1,-.8,-1.8,-1.8,-1.8h-1.8c-.3,0,-.5,.1,-.7,.4c-.1,.2,-.1,.5,.1,.7c.1,.1,.1,.2,.1,.4v.4c0,.3,-.3,.6,-.6,.6H548c-.2,0,-.3,0,-.5,-.2c-.2,-.1,-.4,-.2,-.7,-.1c-.2,.1,-.4,.4,-.4,.7v6.5c0,.3,.2,.6,.4,.7c.3,.1,.5,0,.7,-.2c.2,-.1,.3,-.1,.5,-.1h4.6c.3,0,.6,.3,.6,.6v.4c0,.2,0,.3,-.1,.4c-.2,.3,-.2,.5,-.1,.8c.1,.2,.3,.4,.6,.4v-.7l.5,.4c.3,-.3,.5,-.8,.5,-1.3v-.4c0,-1.1,-.9,-2,-2,-2H548c-.5,0,-1,.2,-1.4,.5l.5,.5h.7v-6.5h-.7l-.5,.5c.4,.3,.9,.5,1.4,.5h4.6c1.1,0,2,-.9,2,-2v-.4c0,-.5,-.1,-.9,-.4,-1.2l-.5,.4v.7h1.8c.2,0,.4,.2,.4,.4v8.7c0,.3,-.2,.5,-.4,.5h-1.9v.7l.5,.4Z" class="ga_19"/>
<path d="M547.1,266.6h.7c0,-1.1,-.9,-2,-2.1,-2h-.6c-1.2,0,-2.1,.9,-2.1,2v7.1c0,1.1,.9,2,2.1,2h.6c1.2,0,2.1,-.9,2.1,-2v-7.1h-1.4v7.1c0,.4,-.3,.7,-.7,.7h-.6c-.4,0,-.7,-.3,-.7,-.7v-7.1c0,-.3,.3,-.6,.7,-.6h.6c.4,0,.7,.3,.7,.6Z" class="ga_19"/>
<path d="M548,289v.7h4.6c1.1,0,2,-1,2,-2.1v-.4c0,-1.1,-.9,-2,-2,-2H548c-.5,0,-1,.2,-1.4,.5c-.1,.1,-.2,.3,-.2,.5v.3c0,.2,-.1,.3,-.2,.5c-.2,.1,-.2,.3,-.2,.5v.1c0,1.1,.9,2.1,2,2.1v-1.4c-.4,0,-.7,-.3,-.7,-.7v-.1h-.7l.5,.5c.4,-.4,.7,-.9,.7,-1.5v-.3h-.7l.4,.5c.2,-.1,.3,-.1,.5,-.1h4.6c.3,0,.6,.2,.6,.6v.4c0,.4,-.3,.7,-.6,.7H548Z" class="ga_19"/>
<path d="M547.1,279.6l-.5,.5c.4,.4,.9,.6,1.4,.6h4.6c1.1,0,2,-.9,2,-2.1v-.4c0,-1.1,-.9,-2,-2,-2H548c-1.1,0,-2,.9,-2,2v.2c0,.2,0,.4,.2,.5c.1,.1,.2,.3,.2,.5v.2c0,.2,.1,.4,.2,.5l.5,-.5h.7v-.2c0,-.6,-.3,-1.1,-.7,-1.5l-.5,.5h.7v-.2c0,-.3,.3,-.6,.7,-.6h4.6c.3,0,.6,.3,.6,.6v.4c0,.4,-.3,.7,-.6,.7H548c-.2,0,-.3,-.1,-.5,-.2l-.4,.5h.7Z" class="ga_19"/>
<path d="M553.6,288.5v.6h1.9c1,0,1.8,-.8,1.8,-1.8v-8.7c0,-1,-.8,-1.8,-1.8,-1.8h-1.8c-.3,0,-.5,.1,-.7,.3c-.1,.3,-.1,.5,.1,.8c.1,.1,.1,.2,.1,.3v.4c0,.4,-.3,.7,-.6,.7H548c-.2,0,-.3,-.1,-.5,-.2c-.2,-.2,-.4,-.2,-.7,-.1c-.2,.1,-.4,.4,-.4,.6v6.6c0,.3,.2,.5,.4,.6c.3,.2,.5,.1,.7,-.1c.2,-.1,.3,-.1,.5,-.1h4.6c.3,0,.6,.3,.6,.6v.4c0,.2,0,.3,-.1,.4c-.2,.2,-.2,.5,-.1,.8c.1,.2,.3,.3,.6,.3v-.6l.5,.4c.3,-.4,.5,-.8,.5,-1.3v-.4c0,-1.1,-.9,-2,-2,-2H548c-.5,0,-1,.2,-1.4,.5l.5,.5h.7v-6.6h-.7l-.5,.5c.4,.4,.9,.6,1.4,.6h4.6c1.1,0,2,-.9,2,-2.1v-.4c0,-.4,-.1,-.8,-.4,-1.1l-.5,.4v.6h1.8c.2,0,.4,.2,.4,.5v8.7c0,.3,-.2,.5,-.4,.5h-1.9v.7l.5,.4Z" class="ga_19"/>
<path d="M547.1,279.4h.7c0,-1.1,-.9,-2,-2.1,-2h-.6c-1.2,0,-2.1,.9,-2.1,2v7.1c0,1.1,.9,2,2.1,2h.6c1.2,0,2.1,-.9,2.1,-2v-7.1h-1.4v7.1c0,.3,-.3,.6,-.7,.6h-.6c-.4,0,-.7,-.3,-.7,-.6v-7.1c0,-.4,.3,-.7,.7,-.7h.6c.4,0,.7,.3,.7,.7Z" class="ga_19"/>
<path d="M532.7,275.4h3.2c.5,0,.9,-.3,.9,-.6v-.2c0,-.3,-.4,-.6,-.9,-.6h-3.2c-.2,0,-.5,.1,-.6,.2v.1c0,.2,-.1,.3,-.3,.4v.1c0,.3,.4,.6,.9,.6Z" class="ga_19"/>
<path d="M532.2,265.5c.2,.1,.4,.2,.7,.2h3.3c.5,0,.9,-.3,.9,-.6v-.2c0,-.3,-.4,-.6,-.9,-.6h-3.3c-.6,0,-1,.3,-1,.6v.1c.2,.1,.3,.2,.3,.4Z" class="ga_19"/>
<path d="M538,275.4h1.8c.6,0,1.1,-.5,1.1,-1.2v-8.7c0,-.6,-.5,-1.1,-1.1,-1.1h-1.7c.1,.2,.2,.5,.2,.8v.4c0,.7,-.6,1.3,-1.3,1.3h-4.3c-.4,0,-.7,-.1,-.9,-.3v6.5c.2,-.2,.5,-.3,.9,-.3H537c.7,0,1.3,.6,1.3,1.3v.4c0,.4,-.1,.6,-.3,.9Z" class="ga_19"/>
<path d="M530.5,267.1c0,-.6,-.5,-1.1,-1.1,-1.1c-.6,0,-1.1,.5,-1.1,1.1v5.6c0,.5,.5,1,1.1,1c.6,0,1.1,-.5,1.1,-1Z" class="ga_19"/>
<path d="M532.3,289v.7h4.5c1.2,0,2.1,-1,2.1,-2.1v-.4c0,-1.1,-.9,-2,-2.1,-2h-4.5c-.6,0,-1.1,.2,-1.4,.5c-.2,.1,-.2,.3,-.2,.5v.3c0,.2,-.1,.3,-.3,.5c-.1,.1,-.2,.3,-.2,.5v.1c0,1.1,.9,2.1,2.1,2.1v-1.4c-.4,0,-.7,-.3,-.7,-.7v-.1h-.7l.5,.5c.4,-.4,.6,-.9,.6,-1.5v-.3h-.7l.5,.5c.1,-.1,.3,-.1,.5,-.1h4.5c.4,0,.7,.2,.7,.6v.4c0,.4,-.3,.7,-.7,.7h-4.5Z" class="ga_19"/>
<path d="M531.3,279.6l-.4,.5c.3,.4,.8,.6,1.4,.6h4.5c1.2,0,2.1,-.9,2.1,-2.1v-.4c0,-1.1,-.9,-2,-2.1,-2h-4.5c-1.2,0,-2.1,.9,-2.1,2v.2c0,.2,.1,.4,.2,.5c.2,.1,.3,.3,.3,.5v.2c0,.2,0,.4,.2,.5l.4,-.5h.7v-.2c0,-.6,-.2,-1.1,-.6,-1.5l-.5,.5h.7v-.2c0,-.3,.3,-.6,.7,-.6h4.5c.4,0,.7,.3,.7,.6v.4c0,.4,-.3,.7,-.7,.7h-4.5c-.2,0,-.4,-.1,-.5,-.2l-.5,.5h.7Z" class="ga_19"/>
<path d="M537.9,288.5v.6h1.9c1,0,1.8,-.8,1.8,-1.8v-8.7c0,-1,-.8,-1.8,-1.8,-1.8h-1.9c-.2,0,-.5,.1,-.6,.3c-.1,.3,-.1,.5,.1,.8c0,.1,.1,.2,.1,.3v.4c0,.4,-.3,.7,-.7,.7h-4.5c-.2,0,-.4,-.1,-.5,-.2c-.2,-.2,-.5,-.2,-.7,-.1c-.3,.1,-.4,.4,-.4,.6v6.6c0,.3,.1,.5,.4,.6c.2,.2,.5,.1,.7,-.1c.1,-.1,.3,-.1,.5,-.1h4.5c.4,0,.7,.3,.7,.6v.4c0,.2,-.1,.3,-.2,.4c-.1,.2,-.2,.5,0,.8c.1,.2,.3,.3,.6,.3v-.6l.5,.4c.3,-.4,.5,-.8,.5,-1.3v-.4c0,-1.1,-1,-2,-2.1,-2h-4.5c-.6,0,-1.1,.2,-1.4,.5l.4,.5h.7v-6.6h-.7l-.4,.5c.3,.4,.8,.6,1.4,.6h4.5c1.1,0,2.1,-.9,2.1,-2.1v-.4c0,-.4,-.2,-.8,-.4,-1.1l-.6,.4v.6h1.9c.2,0,.4,.2,.4,.5v8.7c0,.3,-.2,.5,-.4,.5h-1.9v.7l.5,.4Z" class="ga_19"/>
<path d="M531.3,279.4h.7c0,-1.1,-.9,-2,-2,-2h-.7c-1.1,0,-2,.9,-2,2v7.1c0,1.1,.9,2,2,2h.7c1.1,0,2,-.9,2,-2v-7.1h-1.3v7.1c0,.3,-.3,.6,-.7,.6h-.7c-.3,0,-.6,-.3,-.6,-.6v-7.1c0,-.4,.3,-.7,.6,-.7h.7c.4,0,.7,.3,.7,.7Z" class="ga_19"/>
<path d="M516.5,276.2v.7h4.6c1.1,0,2,-.9,2,-2.1v-.4c0,-1.1,-.9,-2,-2,-2h-4.6c-.5,0,-1,.2,-1.3,.5c-.2,.2,-.3,.3,-.3,.5v.3c0,.2,-.1,.4,-.2,.5c-.1,.1,-.2,.3,-.2,.5v.1c0,1.2,.9,2.1,2,2.1v-1.4c-.4,0,-.6,-.3,-.6,-.7v-.1h-.7l.4,.5c.4,-.4,.7,-.9,.7,-1.5v-.3h-.7l.5,.5c.1,-.1,.2,-.1,.4,-.1h4.6c.4,0,.7,.3,.7,.6v.4c0,.4,-.3,.7,-.7,.7h-4.6Z" class="ga_19"/>
<path d="M515.6,266.9l-.4,.5c.3,.3,.8,.5,1.3,.5h4.6c1.1,0,2,-.9,2,-2v-.4c0,-1.2,-.9,-2.1,-2,-2.1h-4.6c-1.1,0,-2,.9,-2,2.1v.1c0,.2,.1,.4,.2,.5c.1,.2,.2,.3,.2,.5v.3c0,.2,.1,.3,.3,.5l.4,-.5h.7v-.3c0,-.6,-.3,-1.1,-.7,-1.5l-.4,.5h.7v-.1c0,-.4,.2,-.7,.6,-.7h4.6c.4,0,.7,.3,.7,.7v.4c0,.3,-.3,.6,-.7,.6h-4.6c-.2,0,-.3,0,-.4,-.2l-.5,.6h.7Z" class="ga_19"/>
<path d="M522.1,275.7v.7H524c1,0,1.8,-.8,1.8,-1.9v-8.7c0,-1,-.8,-1.8,-1.8,-1.8h-1.8c-.3,0,-.5,.1,-.6,.4c-.1,.2,-.1,.5,0,.7c.1,.1,.2,.2,.2,.4v.4c0,.3,-.3,.6,-.7,.6h-4.6c-.2,0,-.3,0,-.4,-.2c-.2,-.1,-.5,-.2,-.8,-.1c-.2,.1,-.4,.4,-.4,.7v6.5c0,.3,.2,.6,.4,.7c.3,.1,.6,0,.8,-.2c.1,-.1,.2,-.1,.4,-.1h4.6c.4,0,.7,.3,.7,.6v.4c0,.2,-.1,.3,-.2,.4c-.2,.3,-.2,.5,-.1,.8c.1,.2,.4,.4,.6,.4v-.7l.6,.4c.2,-.3,.4,-.8,.4,-1.3v-.4c0,-1.1,-.9,-2,-2,-2h-4.6c-.5,0,-1,.2,-1.4,.5l.5,.5h.7v-6.5h-.7l-.5,.5c.4,.3,.9,.5,1.4,.5h4.6c1.1,0,2,-.9,2,-2v-.4c0,-.5,-.1,-.9,-.4,-1.2l-.5,.4v.7H524c.3,0,.5,.2,.5,.4v8.7c0,.3,-.2,.5,-.5,.5h-1.9v.7l.6,.4Z" class="ga_19"/>
<path d="M515.6,266.6h.7c0,-1.1,-.9,-2,-2,-2h-.7c-1.1,0,-2.1,.9,-2.1,2v7.1c0,1.1,1,2,2.1,2h.7c1.1,0,2,-.9,2,-2v-7.1h-1.4v7.1c0,.4,-.3,.7,-.6,.7h-.7c-.4,0,-.7,-.3,-.7,-.7v-7.1c0,-.3,.3,-.6,.7,-.6h.7c.3,0,.6,.3,.6,.6Z" class="ga_19"/>
<path d="M516.5,289v.7h4.6c1.1,0,2,-1,2,-2.1v-.4c0,-1.1,-.9,-2,-2,-2h-4.6c-.5,0,-1,.2,-1.3,.5c-.2,.1,-.3,.3,-.3,.5v.3c0,.2,-.1,.3,-.2,.5c-.1,.1,-.2,.3,-.2,.5v.1c0,1.1,.9,2.1,2,2.1v-1.4c-.4,0,-.6,-.3,-.6,-.7v-.1h-.7l.4,.5c.4,-.4,.7,-.9,.7,-1.5v-.3h-.7l.5,.5c.1,-.1,.2,-.1,.4,-.1h4.6c.4,0,.7,.2,.7,.6v.4c0,.4,-.3,.7,-.7,.7h-4.6Z" class="ga_19"/>
<path d="M515.6,279.6l-.4,.5c.3,.4,.8,.6,1.3,.6h4.6c1.1,0,2,-.9,2,-2.1v-.4c0,-1.1,-.9,-2,-2,-2h-4.6c-1.1,0,-2,.9,-2,2v.2c0,.2,.1,.4,.2,.5c.1,.1,.2,.3,.2,.5v.2c0,.2,.1,.4,.3,.5l.4,-.5h.7v-.2c0,-.6,-.3,-1.1,-.7,-1.5l-.4,.5h.7v-.2c0,-.3,.2,-.6,.6,-.6h4.6c.4,0,.7,.3,.7,.6v.4c0,.4,-.3,.7,-.7,.7h-4.6c-.2,0,-.3,-.1,-.4,-.2l-.5,.5h.7Z" class="ga_19"/>
<path d="M522.1,288.5v.6H524c1,0,1.8,-.8,1.8,-1.8v-8.7c0,-1,-.8,-1.8,-1.8,-1.8h-1.8c-.3,0,-.5,.1,-.6,.3c-.1,.3,-.1,.5,0,.8c.1,.1,.2,.2,.2,.3v.4c0,.4,-.3,.7,-.7,.7h-4.6c-.2,0,-.3,-.1,-.4,-.2c-.2,-.2,-.5,-.2,-.8,-.1c-.2,.1,-.4,.4,-.4,.6v6.6c0,.3,.2,.5,.4,.6c.3,.2,.6,.1,.8,-.1c.1,-.1,.2,-.1,.4,-.1h4.6c.4,0,.7,.3,.7,.6v.4c0,.2,-.1,.3,-.2,.4c-.2,.2,-.2,.5,-.1,.8c.1,.2,.4,.3,.6,.3v-.6l.6,.4c.2,-.4,.4,-.8,.4,-1.3v-.4c0,-1.1,-.9,-2,-2,-2h-4.6c-.5,0,-1,.2,-1.4,.5l.5,.5h.7v-6.6h-.7l-.5,.5c.4,.4,.9,.6,1.4,.6h4.6c1.1,0,2,-.9,2,-2.1v-.4c0,-.4,-.1,-.8,-.4,-1.1l-.5,.4v.6H524c.3,0,.5,.2,.5,.5v8.7c0,.3,-.2,.5,-.5,.5h-1.9v.7l.6,.4Z" class="ga_19"/>
<path d="M515.6,279.4h.7c0,-1.1,-.9,-2,-2,-2h-.7c-1.1,0,-2.1,.9,-2.1,2v7.1c0,1.1,1,2,2.1,2h.7c1.1,0,2,-.9,2,-2v-7.1h-1.4v7.1c0,.3,-.3,.6,-.6,.6h-.7c-.4,0,-.7,-.3,-.7,-.6v-7.1c0,-.4,.3,-.7,.7,-.7h.7c.3,0,.6,.3,.6,.7Z" class="ga_19"/>
<image clip-path="url(#cg_19)" preserveAspectRatio="none" x="399" y="296" width="89" height="30" xlink:href="img/17.jpg"/>
<image clip-path="url(#ch_19)" preserveAspectRatio="none" x="409" y="224" width="88" height="73" xlink:href="img/18.jpg"/>
<image clip-path="url(#ci_19)" preserveAspectRatio="none" x="409" y="318" width="79" height="3" xlink:href="img/19.jpg"/>
<image clip-path="url(#cj_19)" preserveAspectRatio="none" x="487" y="296" width="11" height="30" xlink:href="img/20.jpg"/>
<image clip-path="url(#ck_19)" preserveAspectRatio="none" x="488" y="224" width="9" height="73" xlink:href="img/21.jpg"/>
<image clip-path="url(#cl_19)" preserveAspectRatio="none" x="487" y="318" width="11" height="4" xlink:href="img/22.jpg"/>
<image clip-path="url(#cm_19)" preserveAspectRatio="none" x="494" y="246" width="4" height="68" xlink:href="img/23.jpg"/>
<image clip-path="url(#cn_19)" preserveAspectRatio="none" x="494" y="313" width="4" height="8" xlink:href="img/24.jpg"/>
<path d="M424.8,237.4c-10.1,0,-18.3,8.2,-18.3,18.3v64.1h79V255.7c0,-10.1,-8.2,-18.3,-18.3,-18.3Z" class="g3_19"/>
<path d="M406.4,320.7h79.1v-7.2H406.4v7.2Z" class="g9_19"/>
<path d="M411.8,295.8h2.4c.2,0,.3,-.2,.3,-.4c0,-.2,-.1,-.4,-.3,-.4h-2.4c-.2,0,-.3,.2,-.3,.4c0,.2,.1,.4,.3,.4m3.9,0H418c.3,0,.4,-.2,.4,-.4c0,-.2,-.1,-.4,-.4,-.4h-2.3c-.2,0,-.4,.2,-.4,.4c0,.2,.2,.4,.4,.4m3.9,0h2.3c.2,0,.4,-.2,.4,-.4c0,-.2,-.2,-.4,-.4,-.4h-2.3c-.2,0,-.4,.2,-.4,.4c0,.2,.2,.4,.4,.4m3.9,0h2.3c.2,0,.4,-.2,.4,-.4c0,-.2,-.2,-.4,-.4,-.4h-2.3c-.2,0,-.4,.2,-.4,.4c0,.2,.2,.4,.4,.4m3.9,0h2.3c.2,0,.4,-.2,.4,-.4c0,-.2,-.2,-.4,-.4,-.4h-2.3c-.2,0,-.4,.2,-.4,.4c0,.2,.2,.4,.4,.4m3.9,0h2.3c.2,0,.4,-.2,.4,-.4c0,-.2,-.2,-.4,-.4,-.4h-2.3c-.3,0,-.4,.2,-.4,.4c0,.2,.1,.4,.4,.4m3.8,0h2.4c.2,0,.3,-.2,.3,-.4c0,-.2,-.1,-.4,-.3,-.4h-2.4c-.2,0,-.3,.2,-.3,.4c0,.2,.1,.4,.3,.4m3.9,0h2.3c.3,0,.4,-.2,.4,-.4c0,-.2,-.1,-.4,-.4,-.4H439c-.2,0,-.4,.2,-.4,.4c0,.2,.2,.4,.4,.4m3.9,0h2.3c.2,0,.4,-.2,.4,-.4c0,-.2,-.2,-.4,-.4,-.4h-2.3c-.2,0,-.4,.2,-.4,.4c0,.2,.2,.4,.4,.4m3.9,0h2.3c.2,0,.4,-.2,.4,-.4c0,-.2,-.2,-.4,-.4,-.4h-2.3c-.2,0,-.4,.2,-.4,.4c0,.2,.2,.4,.4,.4m3.9,0H453c.2,0,.4,-.2,.4,-.4c0,-.2,-.2,-.4,-.4,-.4h-2.3c-.2,0,-.4,.2,-.4,.4c0,.2,.2,.4,.4,.4m3.8,0h2.4c.2,0,.4,-.2,.4,-.4c0,-.2,-.2,-.4,-.4,-.4h-2.4c-.2,0,-.3,.2,-.3,.4c0,.2,.1,.4,.3,.4m3.9,0h2.4c.2,0,.3,-.2,.3,-.4c0,-.2,-.1,-.4,-.3,-.4h-2.4c-.2,0,-.4,.2,-.4,.4c0,.2,.2,.4,.4,.4m3.9,0h2.3c.2,0,.4,-.2,.4,-.4c0,-.2,-.2,-.4,-.4,-.4h-2.3c-.2,0,-.4,.2,-.4,.4c0,.2,.2,.4,.4,.4m3.9,0h2.3c.2,0,.4,-.2,.4,-.4c0,-.2,-.2,-.4,-.4,-.4h-2.3c-.2,0,-.4,.2,-.4,.4c0,.2,.2,.4,.4,.4m3.9,0h2.3c.2,0,.4,-.2,.4,-.4c0,-.2,-.2,-.4,-.4,-.4h-2.3c-.2,0,-.4,.2,-.4,.4c0,.2,.2,.4,.4,.4m3.9,0h2.3c.2,0,.4,-.2,.4,-.4c0,-.2,-.2,-.4,-.4,-.4H474c-.3,0,-.4,.2,-.4,.4c0,.2,.1,.4,.4,.4m3.8,0h2.4c.2,0,.3,-.2,.3,-.4c0,-.2,-.1,-.4,-.3,-.4h-2.4c-.2,0,-.3,.2,-.3,.4c0,.2,.1,.4,.3,.4Z" class="gb_19"/>
<path d="M459.3,259.4h2.2c.2,0,.4,-.2,.4,-.4c0,-.2,-.2,-.4,-.4,-.4h-2.2c-.2,0,-.4,.2,-.4,.4c0,.2,.2,.4,.4,.4m3.7,0h2.3c.2,0,.3,-.2,.3,-.4c0,-.2,-.1,-.4,-.3,-.4H463c-.2,0,-.4,.2,-.4,.4c0,.2,.2,.4,.4,.4m3.7,0H469c.2,0,.4,-.2,.4,-.4c0,-.2,-.2,-.4,-.4,-.4h-2.3c-.2,0,-.4,.2,-.4,.4c0,.2,.2,.4,.4,.4m3.8,0h2.2c.2,0,.4,-.2,.4,-.4c0,-.2,-.2,-.4,-.4,-.4h-2.2c-.3,0,-.4,.2,-.4,.4c0,.2,.1,.4,.4,.4m3.7,0h2.2c.2,0,.4,-.2,.4,-.4c0,-.2,-.2,-.4,-.4,-.4h-2.2c-.2,0,-.4,.2,-.4,.4c0,.2,.2,.4,.4,.4m3.7,0h2.2c.2,0,.4,-.2,.4,-.4c0,-.2,-.2,-.4,-.4,-.4h-2.2c-.2,0,-.4,.2,-.4,.4c0,.2,.2,.4,.4,.4Z" class="gb_19"/>
<path d="M411.9,259.4h2.2c.2,0,.4,-.2,.4,-.4c0,-.2,-.2,-.4,-.4,-.4h-2.2c-.2,0,-.4,.2,-.4,.4c0,.2,.2,.4,.4,.4m3.7,0h2.2c.2,0,.4,-.2,.4,-.4c0,-.2,-.2,-.4,-.4,-.4h-2.2c-.2,0,-.4,.2,-.4,.4c0,.2,.2,.4,.4,.4m3.7,0h2.3c.2,0,.3,-.2,.3,-.4c0,-.2,-.1,-.4,-.3,-.4h-2.3c-.2,0,-.4,.2,-.4,.4c0,.2,.2,.4,.4,.4m3.7,0h2.3c.2,0,.4,-.2,.4,-.4c0,-.2,-.2,-.4,-.4,-.4H423c-.2,0,-.3,.2,-.3,.4c0,.2,.1,.4,.3,.4m3.8,0H429c.2,0,.4,-.2,.4,-.4c0,-.2,-.2,-.4,-.4,-.4h-2.2c-.3,0,-.4,.2,-.4,.4c0,.2,.1,.4,.4,.4m3.7,0h2.2c.2,0,.4,-.2,.4,-.4c0,-.2,-.2,-.4,-.4,-.4h-2.2c-.2,0,-.4,.2,-.4,.4c0,.2,.2,.4,.4,.4Z" class="gb_19"/>
<path d="M436.7,262v-.8c-1.1,0,-2,1,-2,2.1v29.4h22.9V263.3c0,-1.1,-.9,-2.1,-2.1,-2.1H436.7v1.6h18.8c.3,0,.6,.2,.6,.5v27.8H436.2V263.3c0,-.3,.2,-.5,.5,-.5Z" class="gb_19"/>
<path d="M438.7,257v-.4c-.5,0,-1,.5,-1,1v4.7h16.9v-4.7c0,-.5,-.5,-1,-1,-1H438.7v.7h14.9c.1,0,.3,.2,.3,.3v4H438.4v-4c0,-.1,.1,-.3,.3,-.3Z" class="gb_19"/>
<path d="M443.6,284.1h-.4v7.6l.1,.3l.3,.1h5.2l.2,-.1l.1,-.3v-7.6l-.1,-.3l-.2,-.1h-5.2l-.3,.1l-.1,.3h.4v.4h4.8v6.8H444v-7.2h-.4v.4Z" class="gb_19"/>
<path d="M450.5,284.1h-.4v4.1l.1,.3l.3,.1h4.1l.3,-.1l.1,-.3v-4.1l-.1,-.3l-.3,-.1h-4.1l-.3,.1l-.1,.3h.4v.4h3.8v3.3h-3.4v-3.7h-.4v.4Z" class="gb_19"/>
<path d="M437.7,284.1h-.4v4.1l.1,.3l.3,.1h4.1l.3,-.1l.1,-.3v-4.1l-.1,-.3l-.3,-.1h-4.1l-.3,.1l-.1,.3h.4v.4h3.8v3.3h-3.4v-3.7h-.4v.4Z" class="gb_19"/>
<path d="M445.8,288h.8v-1h-.8v1Z" class="gb_19"/>
<path d="M450.5,277.8h-.4v4.1l.1,.2l.3,.1h4.1l.3,-.1l.1,-.2v-4.1l-.1,-.3l-.3,-.1h-4.1l-.3,.1l-.1,.3h.4v.3h3.8v3.4h-3.4v-3.7h-.4v.3Z" class="gb_19"/>
<path d="M444.1,277.8h-.4v4.1l.1,.2l.3,.1h4.1l.3,-.1l.1,-.2v-4.1l-.1,-.3l-.3,-.1h-4.1l-.3,.1l-.1,.3h.4v.3h3.8v3.4h-3.4v-3.7h-.4v.3Z" class="gb_19"/>
<path d="M437.7,277.8h-.4v4.1l.1,.2l.3,.1h4.1l.3,-.1l.1,-.2v-4.1l-.1,-.3l-.3,-.1h-4.1l-.3,.1l-.1,.3h.4v.3h3.8v3.4h-3.4v-3.7h-.4v.3Z" class="gb_19"/>
<path d="M450.5,271.4h-.4v4.1l.1,.3l.3,.1h4.1l.3,-.1l.1,-.3v-4.1l-.1,-.2l-.3,-.1h-4.1l-.3,.1l-.1,.2h.4v.4h3.8v3.4h-3.4v-3.8h-.4v.4Z" class="gb_19"/>
<path d="M444.1,271.4h-.4v4.1l.1,.3l.3,.1h4.1l.3,-.1l.1,-.3v-4.1l-.1,-.2l-.3,-.1h-4.1l-.3,.1l-.1,.2h.4v.4h3.8v3.4h-3.4v-3.8h-.4v.4Z" class="gb_19"/>
<path d="M437.7,271.4h-.4v4.1l.1,.3l.3,.1h4.1l.3,-.1l.1,-.3v-4.1l-.1,-.2l-.3,-.1h-4.1l-.3,.1l-.1,.2h.4v.4h3.8v3.4h-3.4v-3.8h-.4v.4Z" class="gb_19"/>
<path d="M450.5,265.1h-.4v4.1l.1,.3l.3,.1h4.1l.3,-.1l.1,-.3v-4.1l-.1,-.2l-.3,-.2h-4.1l-.3,.2l-.1,.2h.4v.4h3.8v3.4h-3.4v-3.8h-.4v.4Z" class="gb_19"/>
<path d="M444.1,265.1h-.4v4.1l.1,.3l.3,.1h4.1l.3,-.1l.1,-.3v-4.1l-.1,-.2l-.3,-.2h-4.1l-.3,.2l-.1,.2h.4v.4h3.8v3.4h-3.4v-3.8h-.4v.4Z" class="gb_19"/>
<path d="M437.7,265.1h-.4v4.1l.1,.3l.3,.1h4.1l.3,-.1l.1,-.3v-4.1l-.1,-.2l-.3,-.2h-4.1l-.3,.2l-.1,.2h.4v.4h3.8v3.4h-3.4v-3.8h-.4v.4Z" class="gb_19"/>
<path d="M441.3,258l-.2,-.1l-.5,.7l-.8,.2l-.2,.2l.1,.2l.5,.6v.9l.1,.2h.2l.8,-.3l.7,.3h.3l.1,-.2l-.1,-.9l.5,-.6l.1,-.2l-.2,-.2l-.8,-.2l-.4,-.7l-.2,-.1l-.2,.1l.2,.1l-.2,.2l.5,.8l.1,.1l.5,.1l-.3,.4l-.1,.2l.1,.5l-.6,-.2h-.1l-.5,.2v-.5l-.1,-.2l-.3,-.4l.5,-.1l.2,-.1l.5,-.8l-.2,-.2l-.2,.2Z" class="gb_19"/>
<path d="M446.1,258l-.2,-.1l-.4,.7l-.8,.2l-.2,.2l.1,.2l.5,.6l-.1,.9l.1,.2h.3l.7,-.3l.8,.3h.2l.1,-.2v-.9l.5,-.6l.1,-.2l-.2,-.2l-.8,-.2l-.5,-.7l-.2,-.1l-.2,.1l.2,.1l-.2,.2l.5,.8l.2,.1l.5,.1l-.3,.4l-.1,.2v.5l-.5,-.2H446l-.5,.2l.1,-.5l-.1,-.2l-.3,-.4l.5,-.1l.1,-.1l.5,-.8l-.2,-.2l-.2,.2Z" class="gb_19"/>
<path d="M451,258l-.2,-.1l-.4,.7l-.8,.2l-.2,.2v.2l.6,.6l-.1,.9l.1,.2h.2l.8,-.3l.8,.3h.2l.1,-.2l-.1,-.9l.6,-.6V259l-.1,-.2l-.8,-.2l-.5,-.7l-.2,-.1l-.2,.1l.2,.1l-.2,.2l.5,.8l.1,.1l.6,.1l-.4,.4v.7l-.5,-.2h-.2l-.5,.2v-.7l-.4,-.4l.6,-.1l.1,-.1l.5,-.8L451,258l-.2,.2Z" class="gb_19"/>
<path d="M433.7,293h24.6c.5,0,1,-.5,1,-1c0,-.5,-.5,-.9,-1,-.9H433.7c-.5,0,-.9,.4,-.9,.9c0,.5,.4,1,.9,1Z" class="gb_19"/>
<path d="M446,284v7.4h.3V284Z" class="gb_19"/>
<image clip-path="url(#co_19)" preserveAspectRatio="none" x="311" y="296" width="89" height="30" xlink:href="img/25.jpg"/>
<image clip-path="url(#cp_19)" preserveAspectRatio="none" x="321" y="224" width="88" height="73" xlink:href="img/26.jpg"/>
<image clip-path="url(#cq_19)" preserveAspectRatio="none" x="321" y="318" width="79" height="3" xlink:href="img/27.jpg"/>
<image clip-path="url(#cr_19)" preserveAspectRatio="none" x="399" y="296" width="11" height="30" xlink:href="img/28.jpg"/>
<image clip-path="url(#cs_19)" preserveAspectRatio="none" x="400" y="224" width="9" height="73" xlink:href="img/29.jpg"/>
<image clip-path="url(#ct_19)" preserveAspectRatio="none" x="399" y="318" width="11" height="4" xlink:href="img/30.jpg"/>
<image clip-path="url(#cu_19)" preserveAspectRatio="none" x="406" y="246" width="4" height="68" xlink:href="img/31.jpg"/>
<image clip-path="url(#cv_19)" preserveAspectRatio="none" x="406" y="313" width="4" height="8" xlink:href="img/32.jpg"/>
<path d="M336.7,237.4c-10.1,0,-18.3,8.2,-18.3,18.3v64.1h79V255.7c0,-10.1,-8.2,-18.3,-18.3,-18.3Z" class="g3_19"/>
<path d="M318.3,320.7h79.1v-7.2H318.3v7.2Z" class="g9_19"/>
<path d="M324.5,263.5h2.2c.2,0,.4,-.1,.4,-.3c0,-.3,-.2,-.4,-.4,-.4h-2.2c-.2,0,-.3,.1,-.3,.4c0,.2,.1,.3,.3,.3m3.6,0h2.2c.2,0,.3,-.1,.3,-.3c0,-.3,-.1,-.4,-.3,-.4h-2.2c-.2,0,-.4,.1,-.4,.4c0,.2,.2,.3,.4,.3m3.6,0h2.1c.2,0,.4,-.1,.4,-.3c0,-.3,-.2,-.4,-.4,-.4h-2.1c-.3,0,-.4,.1,-.4,.4c0,.2,.1,.3,.4,.3m3.5,0h2.2c.2,0,.3,-.1,.3,-.3c0,-.3,-.1,-.4,-.3,-.4h-2.2c-.2,0,-.4,.1,-.4,.4c0,.2,.2,.3,.4,.3m3.6,0h2.1c.2,0,.4,-.1,.4,-.3c0,-.3,-.2,-.4,-.4,-.4h-2.1c-.2,0,-.4,.1,-.4,.4c0,.2,.2,.3,.4,.3m3.5,0h2.2c.2,0,.4,-.1,.4,-.3c0,-.3,-.2,-.4,-.4,-.4h-2.2c-.2,0,-.4,.1,-.4,.4c0,.2,.2,.3,.4,.3m3.6,0H348c.2,0,.4,-.1,.4,-.3c0,-.3,-.2,-.4,-.4,-.4h-2.1c-.2,0,-.4,.1,-.4,.4c0,.2,.2,.3,.4,.3Z" class="gc_19"/>
<path d="M324.5,295.8h2.4c.2,0,.4,-.2,.4,-.4c0,-.2,-.2,-.4,-.4,-.4h-2.4c-.2,0,-.3,.2,-.3,.4c0,.2,.1,.4,.3,.4m3.9,0h2.4c.2,0,.3,-.2,.3,-.4c0,-.2,-.1,-.4,-.3,-.4h-2.4c-.2,0,-.4,.2,-.4,.4c0,.2,.2,.4,.4,.4m3.9,0h2.3c.2,0,.4,-.2,.4,-.4c0,-.2,-.2,-.4,-.4,-.4h-2.3c-.2,0,-.4,.2,-.4,.4c0,.2,.2,.4,.4,.4m3.9,0h2.3c.2,0,.4,-.2,.4,-.4c0,-.2,-.2,-.4,-.4,-.4h-2.3c-.2,0,-.4,.2,-.4,.4c0,.2,.2,.4,.4,.4m3.9,0h2.3c.2,0,.4,-.2,.4,-.4c0,-.2,-.2,-.4,-.4,-.4h-2.3c-.2,0,-.4,.2,-.4,.4c0,.2,.2,.4,.4,.4m3.9,0h2.3c.2,0,.4,-.2,.4,-.4c0,-.2,-.2,-.4,-.4,-.4H344c-.3,0,-.4,.2,-.4,.4c0,.2,.1,.4,.4,.4m3.8,0h2.4c.2,0,.3,-.2,.3,-.4c0,-.2,-.1,-.4,-.3,-.4h-2.4c-.2,0,-.3,.2,-.3,.4c0,.2,.1,.4,.3,.4m3.9,0H354c.3,0,.4,-.2,.4,-.4c0,-.2,-.1,-.4,-.4,-.4h-2.3c-.2,0,-.4,.2,-.4,.4c0,.2,.2,.4,.4,.4m3.9,0h2.3c.2,0,.4,-.2,.4,-.4c0,-.2,-.2,-.4,-.4,-.4h-2.3c-.2,0,-.4,.2,-.4,.4c0,.2,.2,.4,.4,.4m3.9,0h2.3c.2,0,.4,-.2,.4,-.4c0,-.2,-.2,-.4,-.4,-.4h-2.3c-.2,0,-.4,.2,-.4,.4c0,.2,.2,.4,.4,.4m3.9,0h2.3c.2,0,.4,-.2,.4,-.4c0,-.2,-.2,-.4,-.4,-.4h-2.3c-.2,0,-.4,.2,-.4,.4c0,.2,.2,.4,.4,.4m3.8,0h2.4c.2,0,.4,-.2,.4,-.4c0,-.2,-.2,-.4,-.4,-.4h-2.4c-.2,0,-.3,.2,-.3,.4c0,.2,.1,.4,.3,.4m3.9,0h2.4c.2,0,.3,-.2,.3,-.4c0,-.2,-.1,-.4,-.3,-.4h-2.4c-.2,0,-.4,.2,-.4,.4c0,.2,.2,.4,.4,.4m3.9,0h2.3c.2,0,.4,-.2,.4,-.4c0,-.2,-.2,-.4,-.4,-.4H375c-.2,0,-.4,.2,-.4,.4c0,.2,.2,.4,.4,.4m3.9,0h2.3c.2,0,.4,-.2,.4,-.4c0,-.2,-.2,-.4,-.4,-.4h-2.3c-.2,0,-.4,.2,-.4,.4c0,.2,.2,.4,.4,.4m3.9,0h2.3c.2,0,.4,-.2,.4,-.4c0,-.2,-.2,-.4,-.4,-.4h-2.3c-.2,0,-.4,.2,-.4,.4c0,.2,.2,.4,.4,.4m3.9,0H389c.2,0,.4,-.2,.4,-.4c0,-.2,-.2,-.4,-.4,-.4h-2.3c-.3,0,-.4,.2,-.4,.4c0,.2,.1,.4,.4,.4m3.8,0h2.4c.2,0,.3,-.2,.3,-.4c0,-.2,-.1,-.4,-.3,-.4h-2.4c-.2,0,-.3,.2,-.3,.4c0,.2,.1,.4,.3,.4Z" class="gc_19"/>
<path d="M371.3,263.5h2.3c.2,0,.4,-.1,.4,-.3c0,-.3,-.2,-.4,-.4,-.4h-2.3c-.2,0,-.4,.1,-.4,.4c0,.2,.2,.3,.4,.3m3.9,0h2.3c.2,0,.4,-.1,.4,-.3c0,-.3,-.2,-.4,-.4,-.4h-2.3c-.2,0,-.4,.1,-.4,.4c0,.2,.2,.3,.4,.3m3.8,0h2.3c.2,0,.4,-.1,.4,-.3c0,-.3,-.2,-.4,-.4,-.4H379c-.2,0,-.4,.1,-.4,.4c0,.2,.2,.3,.4,.3m3.9,0h2.3c.2,0,.4,-.1,.4,-.3c0,-.3,-.2,-.4,-.4,-.4h-2.3c-.2,0,-.4,.1,-.4,.4c0,.2,.2,.3,.4,.3m3.8,0H389c.2,0,.4,-.1,.4,-.3c0,-.3,-.2,-.4,-.4,-.4h-2.3c-.2,0,-.4,.1,-.4,.4c0,.2,.2,.3,.4,.3m3.9,0h2.3c.2,0,.3,-.1,.3,-.3c0,-.3,-.1,-.4,-.3,-.4h-2.3c-.3,0,-.4,.1,-.4,.4c0,.2,.1,.3,.4,.3Z" class="gc_19"/>
<path d="M367.9,275.2c0,3.4,-.1,6.8,0,10.2c.1,3,-1.4,5.3,-4.5,6.7c-3.3,1.4,-6.5,1.1,-9.5,-.7c-.4,-.2,-.9,-.5,-1.1,-.9c-.2,-.2,-.1,-.7,0,-.9c.2,-.1,.7,-.1,1,0c.2,0,.4,.3,.6,.4c3.1,2.3,8,2,10.5,-.7c1.1,-1.1,1.5,-2.4,1.5,-3.8c0,-6.8,-.1,-13.6,0,-20.4c0,-2.5,-1.1,-4.4,-3.6,-5.5c-2.6,-1.2,-5.3,-1.1,-7.8,.3c-.3,.2,-.6,.5,-.9,.7c-.4,.3,-.9,.5,-1.2,0c-.2,-.2,-.1,-.8,.2,-1c1.1,-1,2.5,-1.6,4.1,-2c4.7,-1,9.6,1.5,10.5,5.5c.2,.5,.2,1.1,.2,1.7c0,3.4,0,6.9,0,10.4Z" class="gc_19"/>
<path d="M352.8,267.3c-1.7,-.3,-2.2,-1.4,-1.5,-3c.5,-1,1.4,-1.5,2.4,-1.8c1.5,-.5,3.2,-.5,4.7,0c2,.6,3.2,2.4,3,4.5c-.2,1.9,-1.8,3.6,-3.7,3.8c-2.1,.3,-3.9,-.8,-4.7,-2.8c-.1,-.2,-.1,-.4,-.2,-.7m7.1,0c-1.4,-.4,-1.6,-.6,-2.3,-1.8c-.1,-.3,-.3,-.6,-.4,-.9c-.7,-.9,-1.4,-1,-2.2,-.2c-.8,.9,-1.1,2.2,-.6,3.3c.5,1.1,1.5,1.8,2.8,1.8c1.3,-.1,2.2,-.8,2.7,-2.2m.1,-1.6c.1,-1,-1.8,-1.6,-1.8,-1.6c.5,1.7,1.7,2.2,1.8,1.6M353.5,264c-1.9,.8,-.9,2.3,-.8,1.9c0,0,.2,-1.2,.8,-1.9Z" class="gc_19"/>
<path d="M352.8,276.6c-1.7,-.2,-2.2,-1.4,-1.5,-2.9c.5,-1.1,1.4,-1.5,2.4,-1.8c1.5,-.5,3.2,-.6,4.7,-.1c2,.6,3.2,2.5,3,4.5c-.2,1.9,-1.8,3.6,-3.7,3.8c-2.1,.3,-3.9,-.8,-4.7,-2.8c-.1,-.2,-.1,-.4,-.2,-.7m7.1,.1c-1.4,-.5,-1.6,-.6,-2.3,-1.9c-.1,-.3,-.3,-.6,-.4,-.8c-.7,-1,-1.4,-1,-2.2,-.2c-.8,.8,-1.1,2.1,-.6,3.2c.5,1.1,1.5,1.8,2.8,1.8c1.3,0,2.2,-.8,2.7,-2.1M360,275c.1,-1,-1.8,-1.6,-1.8,-1.6c.5,1.8,1.7,2.2,1.8,1.6m-6.5,-1.7c-1.9,.8,-.9,2.3,-.8,1.9c0,0,.2,-1.2,.8,-1.9Z" class="gc_19"/>
<path d="M352.8,285.7c-1.7,-.2,-2.2,-1.4,-1.5,-2.9c.5,-1.1,1.4,-1.5,2.4,-1.8c1.5,-.5,3.2,-.6,4.7,-.1c2,.6,3.2,2.5,3,4.5c-.2,1.9,-1.8,3.6,-3.7,3.9c-2.1,.2,-3.9,-.9,-4.7,-2.9c-.1,-.2,-.1,-.4,-.2,-.7m7.1,.1c-1.4,-.5,-1.6,-.6,-2.3,-1.9c-.1,-.3,-.3,-.6,-.4,-.8c-.7,-1,-1.4,-1,-2.2,-.2c-.8,.8,-1.1,2.1,-.6,3.2c.5,1.2,1.5,1.8,2.8,1.8c1.3,0,2.2,-.8,2.7,-2.1m.1,-1.7c.1,-1,-1.8,-1.6,-1.8,-1.6c.5,1.8,1.7,2.2,1.8,1.6m-6.5,-1.7c-1.9,.8,-.9,2.3,-.8,1.9c0,0,.2,-1.2,.8,-1.9Z" class="gc_19"/>
<path d="M349,280.3l-5.3,-5.6c-.2,-.2,-.6,-.2,-.9,0c-.2,.2,-.2,.6,0,.9l5.3,5.5c.2,.3,.6,.3,.8,0c.3,-.2,.3,-.6,.1,-.8Z" class="gc_19"/>
<path d="M349,287.9l-5.3,5.5c-.2,.3,-.6,.3,-.9,.1c-.2,-.3,-.2,-.7,0,-.9l5.3,-5.6c.2,-.2,.6,-.2,.8,0c.3,.3,.3,.6,.1,.9Z" class="gc_19"/>
<path d="M347.8,282.3l-7.3,-1.5c-.3,0,-.6,.2,-.7,.5c-.1,.4,.1,.7,.5,.8l7.2,1.4c.4,0,.7,-.2,.7,-.5c.1,-.4,-.1,-.7,-.4,-.7Z" class="gc_19"/>
<path d="M347.8,285.9l-7.3,1.4c-.3,.1,-.6,-.1,-.7,-.5c-.1,-.3,.1,-.6,.5,-.7l7.2,-1.4c.4,-.1,.7,.1,.7,.5c.1,.3,-.1,.6,-.4,.7Z" class="gc_19"/>
<image clip-path="url(#cw_19)" preserveAspectRatio="none" x="232" y="296" width="80" height="30" xlink:href="img/33.jpg"/>
<image clip-path="url(#cx_19)" preserveAspectRatio="none" x="223" y="224" width="98" height="73" xlink:href="img/34.jpg"/>
<image clip-path="url(#cy_19)" preserveAspectRatio="none" x="232" y="318" width="80" height="3" xlink:href="img/35.jpg"/>
<image clip-path="url(#cz_19)" preserveAspectRatio="none" x="223" y="296" width="11" height="23" xlink:href="img/36.jpg"/>
<image clip-path="url(#c10_19)" preserveAspectRatio="none" x="223" y="224" width="10" height="73" xlink:href="img/37.jpg"/>
<image clip-path="url(#c11_19)" preserveAspectRatio="none" x="223" y="320" width="11" height="6" xlink:href="img/38.jpg"/>
<image clip-path="url(#c12_19)" preserveAspectRatio="none" x="223" y="318" width="11" height="4" xlink:href="img/39.jpg"/>
<image clip-path="url(#c13_19)" preserveAspectRatio="none" x="311" y="296" width="11" height="30" xlink:href="img/40.jpg"/>
<image clip-path="url(#c14_19)" preserveAspectRatio="none" x="311" y="224" width="10" height="73" xlink:href="img/41.jpg"/>
<image clip-path="url(#c15_19)" preserveAspectRatio="none" x="311" y="318" width="11" height="4" xlink:href="img/42.jpg"/>
<image clip-path="url(#c16_19)" preserveAspectRatio="none" x="318" y="246" width="4" height="68" xlink:href="img/43.jpg"/>
<image clip-path="url(#c17_19)" preserveAspectRatio="none" x="318" y="313" width="4" height="8" xlink:href="img/44.jpg"/>
<path d="M248.6,237.4c-10.1,0,-18.3,8.2,-18.3,18.3v64.1h79V255.7c0,-10.1,-8.2,-18.3,-18.3,-18.3Z" class="g3_19"/>
<path d="M230.2,320.7h79.1v-7.2H230.2v7.2Z" class="g9_19"/>
<path d="M236.4,263.5H239c.2,0,.3,-.1,.3,-.3c0,-.3,-.1,-.4,-.3,-.4h-2.6c-.2,0,-.4,.1,-.4,.4c0,.2,.2,.3,.4,.3m4.3,0h2.6c.2,0,.4,-.1,.4,-.3c0,-.3,-.2,-.4,-.4,-.4h-2.6c-.2,0,-.3,.1,-.3,.4c0,.2,.1,.3,.3,.3m4.3,0h2.6c.2,0,.4,-.1,.4,-.3c0,-.3,-.2,-.4,-.4,-.4H245c-.2,0,-.3,.1,-.3,.4c0,.2,.1,.3,.3,.3m4.4,0h2.5c.2,0,.4,-.1,.4,-.3c0,-.3,-.2,-.4,-.4,-.4h-2.5c-.3,0,-.4,.1,-.4,.4c0,.2,.1,.3,.4,.3Z" class="g6_19"/>
<path d="M288,295.8h2.2c.2,0,.3,-.2,.3,-.4c0,-.2,-.1,-.4,-.3,-.4H288c-.3,0,-.4,.2,-.4,.4c0,.2,.1,.4,.4,.4m3.6,0h2.2c.2,0,.4,-.2,.4,-.4c0,-.2,-.2,-.4,-.4,-.4h-2.2c-.2,0,-.4,.2,-.4,.4c0,.2,.2,.4,.4,.4m3.6,0h2.3c.2,0,.3,-.2,.3,-.4c0,-.2,-.1,-.4,-.3,-.4h-2.3c-.2,0,-.3,.2,-.3,.4c0,.2,.1,.4,.3,.4m3.7,0h2.2c.2,0,.4,-.2,.4,-.4c0,-.2,-.2,-.4,-.4,-.4h-2.2c-.2,0,-.4,.2,-.4,.4c0,.2,.2,.4,.4,.4m3.6,0h2.2c.3,0,.4,-.2,.4,-.4c0,-.2,-.1,-.4,-.4,-.4h-2.2c-.2,0,-.3,.2,-.3,.4c0,.2,.1,.4,.3,.4Z" class="g6_19"/>
<path d="M287.1,263.5h2.3c.2,0,.4,-.1,.4,-.3c0,-.3,-.2,-.4,-.4,-.4h-2.3c-.2,0,-.4,.1,-.4,.4c0,.2,.2,.3,.4,.3m3.8,0h2.3c.2,0,.4,-.1,.4,-.3c0,-.3,-.2,-.4,-.4,-.4h-2.3c-.2,0,-.4,.1,-.4,.4c0,.2,.2,.3,.4,.3m3.9,0h2.3c.2,0,.3,-.1,.3,-.3c0,-.3,-.1,-.4,-.3,-.4h-2.3c-.2,0,-.4,.1,-.4,.4c0,.2,.2,.3,.4,.3m3.8,0h2.3c.2,0,.4,-.1,.4,-.3c0,-.3,-.2,-.4,-.4,-.4h-2.3c-.2,0,-.4,.1,-.4,.4c0,.2,.2,.3,.4,.3m3.8,0h2.3c.3,0,.4,-.1,.4,-.3c0,-.3,-.1,-.4,-.4,-.4h-2.3c-.2,0,-.3,.1,-.3,.4c0,.2,.1,.3,.3,.3Z" class="g6_19"/>
<path d="M283.2,280.9c.1,.9,.3,1.9,.3,2.8c-.1,2.6,-1.3,4.6,-3.5,6c-1.7,1.1,-3.6,1.7,-5.6,1.7c-3.1,0,-6.2,0,-9.3,0c-2.1,0,-4.1,-.6,-5.8,-1.8c-2.5,-1.7,-3.6,-4.1,-3.2,-7.2c.3,-2.6,.4,-5.1,.5,-7.6c0,-2.3,0,-4.7,-.1,-7c0,-2.8,1.1,-4.9,3.3,-6.4c1.8,-1.4,4,-2.1,6.3,-2.1c2.5,0,4.9,0,7.4,0c2.1,.1,4.2,.6,5.9,1.9c2.6,1.7,3.8,4.1,3.5,7.2c-.1,1.5,0,3.1,0,4.6c0,0,.2,5.3,.3,7.9m-13.4,-20v-.1c-1.3,0,-2.5,0,-3.7,0c-1.7,.1,-3.3,.5,-4.7,1.3c-2,1.3,-3.4,2.9,-3.3,5.4c.1,1.1,.4,2.2,.7,3.3c.6,1.7,1.4,3.3,2.8,4.5c.4,.3,.4,.7,0,1.1c-.8,.9,-1.7,1.6,-2.8,2c-.7,.2,-.9,.6,-.9,1.3c-.1,.6,.1,1.1,.5,1.5c1,1,2.2,1.8,3.5,2.3c2.3,1,4.7,1.3,7.2,1.4c2.7,0,5.3,-.2,7.8,-1.1c1.7,-.6,3.3,-1.5,4.4,-3c.2,-.1,.3,-.3,.3,-.5c0,-.5,0,-.9,-.1,-1.4l-.3,-.3c-1.3,-.4,-2.4,-1.2,-3.3,-2.2c-.4,-.4,-.3,-.8,0,-1.2c.6,-.6,1.2,-1.2,1.6,-1.9c1,-1.6,1.5,-3.3,1.8,-5.1c.3,-1.5,-.1,-2.9,-1,-4.1c-1.5,-2,-3.5,-2.9,-5.9,-3.2c-1.6,-.1,-3.1,0,-4.6,0m-12.1,21.3c-.5,2.1,0,4,1.6,5.5c1.7,1.5,3.7,2.1,5.9,2.1c3,.1,6,.1,9,.1c1,0,2,-.2,3,-.5c1.8,-.7,3.3,-1.7,4.2,-3.4c.6,-1.2,.6,-2.5,.3,-3.8h-.1c-1.4,1.8,-3.3,2.8,-5.5,3.4c-3.7,1,-7.4,1,-11.1,.4c-1.8,-.3,-3.5,-.9,-5.1,-1.9c-.8,-.5,-1.5,-1.2,-2.2,-1.9Z" class="g6_19"/>
<path d="M262.8,291.9c-.6,.5,-1.3,1,-1.9,1.5c-.6,.5,-2.3,1.8,-2.9,2.3c-.3,.3,-.7,.2,-1,.2c-.2,-.1,-.4,-.3,-.4,-.5c-.1,-.3,0,-.6,.3,-.8c.4,-.3,1.8,-1.4,2.2,-1.8c.5,-.4,1.1,-.8,1.7,-1.2c.1,-.1,.4,-.2,.5,-.1c.5,.1,1,.3,1.5,.4Z" class="g6_19"/>
<path d="M276.6,291.9c.7,-.2,1.2,-.3,1.7,-.5l.4,.2c1,.7,3,2.2,3.9,3c.2,.1,.3,.3,.4,.4c.1,.3,0,.7,-.2,.8c-.3,.1,-.8,.2,-1,0c-1.4,-.9,-3.7,-2.8,-5.2,-3.9Z" class="g6_19"/>
<path d="M269.7,274.7c-1.4,0,-2.8,.1,-4.2,0c-2.5,-.2,-4.5,-2.1,-5,-4.6c-.1,-.6,-.2,-1.2,-.3,-1.9c-.5,-2.4,1.2,-4.6,3.7,-4.6c3.9,0,7.8,0,11.6,0c2.4,0,4.2,1.9,3.8,4.3c-.1,1.4,-.3,2.8,-1,4c-1.2,1.8,-2.8,2.8,-5,2.8c-1.2,0,-2.4,0,-3.6,0Z" class="g6_19"/>
<path d="M275.6,278.2c.3,0,.7,0,1,0c.6,0,1,.4,.8,.8c-.7,1.1,-1.3,2.2,-2,3.3c-.1,.2,-.4,.3,-.7,.3c-.7,0,-1.4,0,-2,0c-.7,0,-1,-.4,-.8,-.8c.6,-1.1,1.3,-2.2,1.9,-3.2c.1,-.3,.4,-.4,.8,-.4c.4,0,.7,0,1,0Z" class="g6_19"/>
<path d="M265.8,282.6c-.3,0,-.6,0,-.9,0c-.4,0,-.7,-.1,-.9,-.4c-.6,-1,-1.2,-2.1,-1.8,-3.2c-.3,-.5,0,-.8,.7,-.8c.7,0,1.3,0,2,0c.4,0,.6,.1,.8,.4c.6,1,1.3,2.1,1.9,3.2c.2,.4,-.1,.8,-.7,.8c-.4,0,-.7,0,-1.1,0Z" class="g6_19"/>
<path d="M271.1,288.2c0,.7,-.6,1.4,-1.3,1.4c-.8,0,-1.4,-.6,-1.4,-1.4c0,-.7,.6,-1.3,1.3,-1.3c.7,0,1.4,.6,1.4,1.3Z" class="g6_19"/>
<path d="M236.4,295.8h2.2c.2,0,.4,-.2,.4,-.4c0,-.2,-.2,-.4,-.4,-.4h-2.2c-.2,0,-.4,.2,-.4,.4c0,.2,.2,.4,.4,.4m3.7,0h2.2c.2,0,.4,-.2,.4,-.4c0,-.2,-.2,-.4,-.4,-.4h-2.2c-.2,0,-.4,.2,-.4,.4c0,.2,.2,.4,.4,.4m3.6,0h2.2c.2,0,.4,-.2,.4,-.4c0,-.2,-.2,-.4,-.4,-.4h-2.2c-.2,0,-.4,.2,-.4,.4c0,.2,.2,.4,.4,.4m3.7,0h2.2c.2,0,.3,-.2,.3,-.4c0,-.2,-.1,-.4,-.3,-.4h-2.2c-.2,0,-.4,.2,-.4,.4c0,.2,.2,.4,.4,.4m3.6,0h2.2c.2,0,.4,-.2,.4,-.4c0,-.2,-.2,-.4,-.4,-.4H251c-.2,0,-.4,.2,-.4,.4c0,.2,.2,.4,.4,.4Z" class="g6_19"/>
<path d="M0,0V1286.2Z" class="g3_19"/>
<path d="M0,1286.2H19.5V0H0V1286.2Z" class="g3_19"/>
</svg>