<?xml version="1.0" encoding="UTF-8" standalone="no"?>
<!DOCTYPE svg PUBLIC "-//W3C//DTD SVG 1.1//EN"
"http://www.w3.org/Graphics/SVG/1.1/DTD/svg11.dtd">
<svg viewBox="0 0 909 1286" version="1.1" xmlns="http://www.w3.org/2000/svg" xmlns:xlink="http://www.w3.org/1999/xlink">
<defs>
<clipPath id="c0_32"><path d="M868.4,57.1V43.3H826.6V57.1ZM324.8,361.9V0H909.4V361.9H866.8V289.6H417v72.3Z"/></clipPath>
<clipPath id="c1_32"><path d="M826.6,57.1V43.3h41.8V57.1Z"/></clipPath>
<clipPath id="c2_32"><path d="M417,383.4V361.9h88.1v21.5Z"/></clipPath>
<clipPath id="c3_32"><path d="M417,361.9V289.6h88.1v72.3Z"/></clipPath>
<clipPath id="c4_32"><path d="M417,390.8v-5.1h88.1v5.1Z"/></clipPath>
<clipPath id="c5_32"><path d="M417,385.7v-2.3h88.1v2.3Z"/></clipPath>
<clipPath id="c6_32"><path d="M514.3,383.4V361.9h78.9v21.5Z"/></clipPath>
<clipPath id="c7_32"><path d="M514.3,361.9V289.6h78.9v72.3Z"/></clipPath>
<clipPath id="c8_32"><path d="M514.3,390.8v-5.1h78.9v5.1Z"/></clipPath>
<clipPath id="c9_32"><path d="M514.3,385.7v-2.3h78.9v2.3Z"/></clipPath>
<clipPath id="ca_32"><path d="M505.1,383.4V361.9h9.2v21.5Z"/></clipPath>
<clipPath id="cb_32"><path d="M505.1,361.9V289.6h9.2v72.3Z"/></clipPath>
<clipPath id="cc_32"><path d="M505.1,390.8v-5.1h9.2v5.1Z"/></clipPath>
<clipPath id="cd_32"><path d="M505.1,385.7v-2.3h9.2v2.3Z"/></clipPath>
<clipPath id="ce_32"><path d="M778.7,390.8v-5.1h87.4v-2.3h-11V361.9h11.7v28.9Z"/></clipPath>
<clipPath id="cf_32"><path d="M855.1,361.9V320.6c0,-3.8,-1.2,-7.4,-3.3,-10.4v-2.6h-2.2c-3.3,-3.3,-7.8,-5.3,-12.8,-5.3H794.4c-5,0,-9.5,2,-12.8,5.3h-2.5v3c-.2,.2,-.3,.4,-.4,.6V289.6h88.1v72.3Z"/></clipPath>
<clipPath id="cg_32"><path d="M855.1,385.7v-2.3h11v2.3Z"/></clipPath>
<clipPath id="ch_32"><path d="M779.1,310.6v-3h2.5c-1,.9,-1.8,1.9,-2.5,3Zm72.7,-.4c-.6,-.9,-1.4,-1.8,-2.2,-2.6h2.2v2.6Z"/></clipPath>
<clipPath id="ci_32"><path d="M690.6,390.8v-5.1h78.8v5.1ZM767,383.4V361.9h2.4v21.5Z"/></clipPath>
<clipPath id="cj_32"><path d="M767,361.9V320.6c0,-10.1,-8.2,-18.3,-18.3,-18.3H706.3c-6.7,0,-12.5,3.6,-15.7,9V289.6h78.8v72.3Z"/></clipPath>
<clipPath id="ck_32"><path d="M767,385.7v-2.3h2.4v2.3Z"/></clipPath>
<clipPath id="cl_32"><path d="M769.4,390.8v-5.1h9.3v5.1Zm0,-7.4V361.9h6.7v16.6H776v4.9Z"/></clipPath>
<clipPath id="cm_32"><path d="M769.4,361.9V289.6h9.3v21.6c-1.7,2.8,-2.6,6,-2.6,9.4v41.3Z"/></clipPath>
<clipPath id="cn_32"><path d="M769.4,385.7v-2.3H776v2.3Z"/></clipPath>
<clipPath id="co_32"><path d="M776.1,378.5V320.6c0,-3.4,.9,-6.6,2.6,-9.4v67.3Z"/></clipPath>
<clipPath id="cp_32"><path d="M776,385.7v-7.2h2.7v7.2Z"/></clipPath>
<clipPath id="cq_32"><path d="M602.5,390.8v-5.1h78.8v5.1Zm0,-7.4V361.9h78.8v21.5Z"/></clipPath>
<clipPath id="cr_32"><path d="M602.5,361.9V289.6h78.8v72.3Z"/></clipPath>
<clipPath id="cs_32"><path d="M602.5,385.7v-2.3h78.8v2.3Z"/></clipPath>
<clipPath id="ct_32"><path d="M593.2,383.4V361.9h9.3v21.5Z"/></clipPath>
<clipPath id="cu_32"><path d="M593.2,361.9V289.6h9.3v72.3Z"/></clipPath>
<clipPath id="cv_32"><path d="M593.2,390.8v-5.1h9.3v5.1Z"/></clipPath>
<clipPath id="cw_32"><path d="M593.2,385.7v-2.3h9.3v2.3Z"/></clipPath>
<clipPath id="cx_32"><path d="M681.3,390.8v-5.1h9.3v5.1Zm0,-7.4V361.9H688v16.6h-.1v4.9Z"/></clipPath>
<clipPath id="cy_32"><path d="M681.3,361.9V289.6h9.3v21.7c-1.7,2.7,-2.6,5.9,-2.6,9.3v41.3Z"/></clipPath>
<clipPath id="cz_32"><path d="M681.3,385.7v-2.3h6.6v2.3Z"/></clipPath>
<clipPath id="c10_32"><path d="M688,378.5V320.6c0,-3.4,.9,-6.6,2.6,-9.3v67.2Z"/></clipPath>
<clipPath id="c11_32"><path d="M687.9,385.7v-7.2h2.7v7.2Z"/></clipPath>
<style type="text/css"><![CDATA[
.g0_32{
fill: #E7E8E8;
}
.g1_32{
fill: #1B1661;
}
.g2_32{
fill: #DCDDDE;
}
.g3_32{
fill: #FFF;
}
.g4_32{
fill: #ED1A40;
}
.g5_32{
fill: #D1232A;
}
.g6_32{
fill: #FCB61D;
}
.g7_32{
fill: #FEE6BB;
}
.g8_32{
fill: #CFCBCA;
}
.g9_32{
fill: #5AC4C1;
}
.ga_32{
fill: #09B795;
}
.gb_32{
fill: #F37537;
}
.gc_32{
fill: #5180C1;
}
]]></style>
</defs>
<path d="M324.8,1240.8H584.6V1057H324.8v183.8Z" class="g0_32"/>
<path d="M324.8,1057H584.6v26.3H324.8V1057Z" class="g1_32"/>
<path d="M324.8,1083.3H511.6v39.2H324.8v-39.2Zm186.8,0h73v39.2h-73v-39.2Zm-186.8,63.1H511.6v23.9H324.8v-23.9Zm186.8,0h73v23.9h-73v-23.9Zm-186.8,47.8H511.6V1218H324.8v-23.8Zm186.8,0h73V1218h-73v-23.8Z" class="g2_32"/>
<path d="M324.8,1218.8H511.6v-1.5H324.8v1.5Z" class="g3_32"/>
<path d="M511.6,1218.8h73v-1.5h-73v1.5Z" class="g3_32"/>
<path d="M343.9,1067.3l-1,-.7c-.2,-.2,-.6,-.1,-.8,.2l-4.7,6.9l-2.1,-2.2c-.3,-.2,-.6,-.2,-.8,0l-.9,.8c-.2,.3,-.2,.6,0,.9l3.4,3.3c.1,.2,.4,.3,.7,.3c.3,0,.5,-.1,.7,-.4l5.7,-8.3c.1,-.3,.1,-.7,-.2,-.8Z" class="g3_32"/>
<path d="M43.3,1240.8H303.1V962.2H43.3v278.6Z" class="g0_32"/>
<path d="M43.3,962.2H303.1v27.6H43.3V962.2Z" class="g1_32"/>
<path d="M43.3,989.8H303.1v26.1H43.3V989.8Zm0,215.6H303.1v35.4H43.3v-35.4Z" class="g2_32"/>
<path d="M43.3,1016.3H303.1v-.7H43.3Z" class="g3_32"/>
<path d="M43.3,1205.8H303.1v-.8H43.3Z" class="g3_32"/>
<path d="M62.4,973.8l-1,-.7c-.2,-.2,-.6,-.1,-.8,.2l-4.7,6.9L53.8,978c-.2,-.2,-.6,-.2,-.8,0l-.9,.9c-.2,.2,-.2,.6,0,.8l3.4,3.3c.1,.2,.4,.3,.7,.3c.3,0,.5,-.1,.7,-.4l5.7,-8.3c.1,-.3,.1,-.7,-.2,-.8Z" class="g3_32"/>
<path d="M47.6,215.8c-2.4,0,-4.3,1.9,-4.3,4.3v39.7c0,2.4,1.9,4.4,4.3,4.4H298.8c2.4,0,4.3,-2,4.3,-4.4V220.1c0,-2.4,-1.9,-4.3,-4.3,-4.3Z" class="g4_32"/>
<path d="M164.1,246.3h69.7v-.8H164.1Z" class="g3_32"/>
<image clip-path="url(#c0_32)" preserveAspectRatio="none" x="325" y="0" width="585" height="362" xlink:href="img/1.jpg"/>
<image clip-path="url(#c1_32)" preserveAspectRatio="none" x="826" y="43" width="43" height="14" xlink:href="img/2.jpg"/>
<path d="M607.1,891.2h-.8v349.6H866.1V890.4H606.3v.8h.8v.7H864.6v347.4H607.8V891.2h-.7v.7Z" class="g1_32"/>
<path d="M647,898.1H816.8V884.3H647Z" class="g3_32"/>
<path d="M325.6,712.2h-.8v56.1H584.6V711.5H324.8v.7h.8v.8H583.1v53.8H326.3V712.2h-.7v.8Z" class="g5_32"/>
<path d="M354.1,720.5v.7c.1,0,.2,0,.3,0h.2v-.7v.7c4.1,0,7.7,.1,11.6,.2v-.7v.7c.8,0,1.1,.3,1.2,.4c.2,.2,.3,.4,.3,.8l.7,-.2h-.7c0,.4,-.1,.6,-.4,.9c-.2,.2,-.5,.3,-.9,.4v.7v-.7c-.8,0,-2.1,0,-3.2,0c-.6,.1,-1.1,.1,-1.5,.1c-.4,0,-.7,0,-.7,0h-1.2l.6,1.1c.2,.3,.3,.7,.3,.9c0,.4,-.2,.8,-.7,1.1l-.6,.4l.4,.6c.1,.2,.2,.6,.2,1c0,.1,0,.3,-.1,.4c-.1,.4,-.3,.7,-.7,.9l-.7,.3l.4,.7c.2,.3,.3,.6,.3,.8c0,.2,-.1,.3,-.1,.5c-.2,.3,-.3,.5,-.5,.7c-.2,.1,-.5,.2,-.8,.2c-.6,0,-1.1,0,-1.7,0c-1.3,0,-2.7,0,-4,0h-.3c-.5,0,-1.1,0,-1.7,0H350c-.7,0,-1.3,-.2,-1.9,-.6c-.6,-.5,-1.4,-1,-2.1,-1.4c-.3,-.3,-.7,-.3,-1,-.3c-.8,0,-.9,0,-1,0c-.1,0,-.2,0,-.7,0h-.4l-.1,.1l.1,-.1l-.1,.1l.1,-.1l-.1,.2l.2,-.1l-.1,-.1l-.1,.2l.2,-.1h-.1h.1h-.1h.1V731h-.7h.7l-.1,-8.6h-.7l.7,.1v-.2l-.2,-.2l.1,.3l.1,-.1l-.2,-.2l.1,.3v-.1v.1v-.1v.1h.1c.8,0,1,0,1.2,0c.1,0,.2,0,1.3,0c.2,0,.5,0,.9,-.1c.1,0,.3,0,.5,-.1l.3,-.2c.1,-.1,.3,-.3,.3,-.6c0,-.2,.1,-.5,.2,-.8c0,-.2,.1,-.4,.3,-.5c.1,-.1,.4,-.3,.7,-.4c.8,-.4,1.6,-.7,2.5,-1.2c1.2,-.7,2,-1.8,2.6,-2.9l.1,-.1l-.1,-.1v.1h.1l-.1,-.1v.1h.1l.2,.1l.4,-.5l-.5,.5c.6,.5,.7,.9,.9,1.8l.7,-.2l-.7,.1v.1c0,.8,-.4,1.5,-1,2.3c-.1,.1,-.2,.2,-.3,.3l-1,1.2h1.6v-.7l.5,.4c.1,-.1,.2,-.2,.3,-.3c.7,-.9,1.3,-1.9,1.3,-3.2v-.3c-.2,-1,-.5,-1.8,-1.3,-2.5v-.1h-.1c-.3,-.2,-.6,-.4,-1.1,-.4c-.2,0,-.5,.1,-.7,.2c-.2,.2,-.4,.4,-.5,.6c-.6,1,-1.2,1.8,-2.1,2.3c-.7,.5,-1.6,.8,-2.4,1.2c-.3,.1,-.7,.3,-1,.6c-.4,.3,-.7,.7,-.8,1.2c-.1,.3,-.2,.7,-.2,1.1l.5,.1l-.4,-.5c0,.1,-.1,.2,-.1,.4l.5,.1l-.4,-.5l.3,.3l-.2,-.3h-.1l.3,.3l-.2,-.3c0,0,-.2,0,-.3,0c-.2,.1,-.4,.1,-.5,.1q-1.1,0,-1.3,0c-.2,0,-.4,0,-1.2,0c-.2,0,-.4,0,-.6,0c-.2,.1,-.5,.4,-.6,.6c-.1,.3,-.2,.5,-.2,.7v.1l.1,8.6v.1c0,.3,0,.7,.4,1c.1,.2,.3,.3,.5,.3c.2,.1,.4,.1,.5,.1h.3c.5,0,.6,0,.7,0c.1,0,.2,0,1,0h.2l.1,.1c.7,.4,1.3,.9,2,1.3c.8,.6,1.7,.9,2.7,.9h.2c.5,0,1.1,0,1.6,0h.3c1.3,0,2.7,0,4,0c.6,0,1.1,0,1.7,0c.6,0,1.1,-.2,1.6,-.5c.4,-.3,.7,-.7,1,-1.2c.1,-.4,.2,-.7,.2,-1.1c0,-.6,-.2,-1.1,-.5,-1.6l-.6,.4l.3,.7c.7,-.4,1.3,-1,1.5,-1.8c.1,-.3,.1,-.6,.1,-.8c0,-.6,-.1,-1.2,-.4,-1.7l-.6,.3l.3,.6c.9,-.5,1.4,-1.4,1.4,-2.3c0,-.5,-.2,-1.1,-.5,-1.6l-.6,.3v.7c.1,0,.3,0,.7,0c1.2,0,3.6,-.1,4.7,-.1h.1c.7,-.1,1.3,-.3,1.8,-.8c.5,-.4,.8,-1.1,.8,-1.9v-.1c0,-.4,-.2,-1,-.6,-1.5c-.5,-.4,-1.2,-.7,-2.2,-.8v-.1h-.1c-3.8,0,-7.5,-.1,-11.5,-.1h-.3c-.1,0,-.2,0,-.3,0v.7l.5,.4Z" class="g5_32"/>
<path d="M341.4,721.9h.7c0,-.3,0,-.6,-.1,-.8V721l-.1,-.1c-.2,-.4,-.4,-.8,-.8,-1.1c-.4,-.3,-.9,-.4,-1.5,-.4v.7v-.7c-.7,0,-1.3,0,-1.9,0c-.7,0,-1.3,0,-2,0c-.4,0,-.8,0,-1.3,0c-.6,0,-1.2,.1,-1.6,.6c-.5,.4,-.6,.9,-.6,1.5v.4c.3,3.2,.7,6.3,1,9.4c0,.5,.1,1,.4,1.4c.2,.4,.6,.8,1.1,1v.1h.1c.4,.1,.8,.1,1.2,.1v-.2v.2v-.2v.2c.5,0,.9,0,1.3,0c.3,0,.7,0,1,0c.3,0,.7,0,1.1,0c.6,0,1.2,0,1.7,-.4c.5,-.4,.7,-.9,.9,-1.5l-.7,-.2l.5,.5c.2,-.2,.2,-.3,.2,-.3l.1,-.2c0,-.2,0,-.4,0,-.7c0,-.8,0,-2.4,0,-4.1c0,-1.6,0,-3.3,0,-4.6c0,-.2,0,-.3,0,-.5h-1.4c0,.2,0,.3,0,.5c0,1.3,0,3,0,4.6c0,1.3,0,2.4,0,3.3c0,.4,0,.8,0,1v.3h-.1h.3h-.3h.3h-.2l.5,.1l-.5,-.2v.1l.5,.1l-.5,-.2l.6,.3l-.5,-.5l-.1,.2l.6,.3l-.5,-.5l-.1,.1v.2c-.2,.5,-.4,.7,-.5,.8c-.1,0,-.3,.1,-.8,.1c-.4,0,-.8,0,-1.1,0c-.3,0,-.7,0,-1,0c-.4,0,-.8,0,-1.3,0v.7v-.7c-.3,0,-.6,0,-.8,-.1l-.2,.7l.3,-.6c-.2,-.1,-.4,-.3,-.5,-.5c-.1,-.2,-.2,-.4,-.2,-.8c-.3,-3.2,-.7,-6.3,-1,-9.5v-.2c0,-.3,.1,-.4,.2,-.5c0,-.1,.2,-.2,.6,-.2c.5,0,.9,0,1.3,0c.7,0,1.3,0,2,0c.6,0,1.2,0,1.9,0c.3,0,.4,.1,.6,.2c.2,.1,.3,.3,.5,.6l.6,-.3l-.7,.1c.1,.2,.1,.4,.1,.5Zm-1.8,8.6h-.7c0,.3,-.2,.4,-.3,.4h-.1c-.1,0,-.3,-.1,-.3,-.4l.1,-.2l.2,-.1c.2,0,.4,.1,.4,.3h1.4c0,-1,-.8,-1.8,-1.8,-1.8c-.9,.1,-1.7,.9,-1.7,1.8v.1c0,1,.8,1.7,1.7,1.7h.1c1,0,1.7,-.8,1.7,-1.8Z" class="g5_32"/>
<path d="M325.6,675.7h-.8v27.6H584.6V674.9H324.8v.8h.8v.8H583.1v25.3H326.3V675.7h-.7v.8Z" class="g5_32"/>
<path d="M346,698.1c-5.3,0,-9.7,-4.3,-9.6,-9.7c0,-5.3,4.3,-9.6,9.7,-9.6c5.3,0,9.6,4.4,9.6,9.7c0,5.3,-4.4,9.7,-9.7,9.6m0,-1.4c4.6,0,8.3,-3.6,8.3,-8.2c0,-4.6,-3.7,-8.3,-8.3,-8.3c-4.5,0,-8.2,3.7,-8.2,8.3c-.1,4.5,3.6,8.2,8.2,8.2Z" class="g5_32"/>
<path d="M332.8,684c.4,.1,.5,-.1,.5,-.4c0,-1.2,0,-2.5,0,-3.7c0,-.2,-.1,-.5,0,-.6c.2,-.2,.4,-.5,.6,-.5c.3,0,.5,.3,.7,.5c.1,.1,.1,.4,.1,.6c0,1.4,0,2.7,0,4.1h.4c0,-.9,0,-1.8,0,-2.7c0,-.6,-.1,-1.2,-.1,-1.8c0,-.5,.3,-.7,.7,-.8c.4,0,.7,.3,.7,.7c.1,1.8,.2,3.7,.2,5.5c0,.8,-.4,1.5,-1.1,1.9c-.3,.2,-.4,.5,-.4,.8c.1,3.5,.1,7,.2,10.5c0,.6,-.2,1,-.8,1.3c-.5,.2,-1,.2,-1.4,-.2c-.2,-.3,-.4,-.8,-.4,-1.2c0,-2.3,0,-4.6,.1,-6.9c0,-1.2,0,-2.4,0,-3.6c0,-.2,-.2,-.5,-.4,-.6c-.7,-.6,-1.1,-1.4,-1.1,-2.4c.1,-1.6,.2,-3.3,.2,-4.9c0,-.5,.2,-.8,.7,-.9c.4,0,.7,.4,.7,.9c0,1.3,-.1,2.5,-.1,3.8c-.1,.2,0,.3,0,.6m2.1,1.5H333c.7,.6,1.3,.6,1.9,0Z" class="g5_32"/>
<path d="M356.5,689.2c0,-2.8,0,-5.7,0,-8.6c0,-.7,.2,-1.2,.8,-1.6c.9,-.6,2.1,-.1,2.4,1c.5,2.3,.8,4.6,.5,6.9c-.1,1.1,-.3,2.2,-.5,3.3c0,.3,0,.5,0,.7c0,2.4,0,4.8,0,7.2c-.1,.9,-.7,1.5,-1.7,1.4c-.9,0,-1.5,-.5,-1.5,-1.4c0,-.2,0,-.3,0,-.5c0,-2.8,0,-5.6,0,-8.4m1.3,.5q.6,0,.7,-.4c.5,-2.3,.5,-4.7,.2,-7c-.1,-.6,-.2,-1.2,-.3,-1.8l-.3,-.3l-.3,.4v.2c0,2.8,0,5.6,0,8.3Z" class="g5_32"/>
<path d="M346,681.7v.8h.1c3.2,0,5.9,2.7,5.9,6c.1,3.3,-2.7,6,-5.9,6H346c-1.6,0,-3.1,-.7,-4.2,-1.8c-1.1,-1.1,-1.8,-2.6,-1.8,-4.2c0,-3.3,2.7,-6,6,-6v-1.6c-4.1,.1,-7.5,3.4,-7.5,7.6c0,4.1,3.4,7.5,7.5,7.5h.1c4.1,0,7.5,-3.4,7.5,-7.5v-.1v.1c0,-4.2,-3.4,-7.6,-7.5,-7.6H346Z" class="g5_32"/>
<path d="M43.3,162.3H78v40.5H43.3V162.3Z" class="g3_32"/>
<image x="77" y="162" width="226" height="41" xlink:href="shade/1.png"/>
<path d="M78,183.5H302.8V182H78Z" class="g6_32"/>
<path d="M61.2,201.3c9.8,0,17.8,-8,17.8,-17.9c0,-9.8,-8,-17.8,-17.8,-17.8c-9.9,0,-17.9,8,-17.9,17.8c0,9.9,8,17.9,17.9,17.9Z" class="g6_32"/>
<path d="M71.6,185.2c0,.7,.2,1.4,.2,2.2c0,2,-1,3.5,-2.7,4.6c-1.3,.9,-2.8,1.3,-4.3,1.3c-2.4,0,-4.8,0,-7.2,0c-1.7,0,-3.2,-.4,-4.5,-1.3c-2,-1.4,-2.8,-3.3,-2.5,-5.7c.2,-1.9,.3,-3.9,.4,-5.8c0,-1.9,0,-3.7,-.1,-5.5c0,-2.1,.9,-3.7,2.5,-5c1.5,-1,3.2,-1.5,4.9,-1.5c2,-.1,3.9,-.1,5.8,0c1.6,0,3.2,.4,4.6,1.4c1.9,1.3,2.9,3.2,2.7,5.6c-.1,1.2,0,2.4,0,3.6c-.1,0,.1,4.1,.2,6.1M61.2,169.7v-.1c-1,0,-1.9,0,-2.9,0c-1.3,.1,-2.5,.4,-3.6,1.1c-1.6,.9,-2.7,2.2,-2.6,4.1c.1,.9,.3,1.7,.6,2.5c.4,1.4,1.1,2.6,2.2,3.6c.2,.2,.2,.5,-.1,.8c-.6,.7,-1.3,1.3,-2.1,1.5c-.6,.2,-.7,.5,-.7,1c-.1,.5,.1,.9,.4,1.2c.8,.8,1.7,1.4,2.7,1.8c1.8,.8,3.7,1,5.6,1.1c2,0,4.1,-.2,6,-.9c1.4,-.5,2.6,-1.1,3.5,-2.3c0,-.1,.1,-.3,.1,-.4c0,-.3,0,-.7,0,-1l-.2,-.3c-1.1,-.3,-1.9,-.9,-2.6,-1.7c-.3,-.3,-.3,-.6,0,-.9c.4,-.5,.9,-1,1.2,-1.5c.8,-1.2,1.2,-2.6,1.4,-4c.2,-1.1,0,-2.2,-.7,-3.1c-1.2,-1.6,-2.8,-2.3,-4.7,-2.5c-1.1,-.1,-2.3,0,-3.5,0m-9.4,16.5c-.3,1.6,0,3.1,1.3,4.2c1.3,1.2,2.8,1.7,4.6,1.7c2.3,0,4.6,0,6.9,0c.8,0,1.6,-.1,2.4,-.3c1.4,-.5,2.5,-1.3,3.2,-2.7c.5,-.9,.5,-1.9,.3,-2.9h-.1c-1.1,1.4,-2.6,2.2,-4.3,2.7c-2.9,.7,-5.7,.7,-8.6,.2c-1.4,-.2,-2.8,-.6,-3.9,-1.4c-.7,-.5,-1.2,-1,-1.8,-1.5Z" class="g7_32"/>
<path d="M55.8,193.7c-.5,.4,-1,.8,-1.5,1.2c-.5,.4,-1.7,1.3,-2.2,1.8c-.3,.2,-.6,.1,-.8,.1l-.3,-.4c-.1,-.2,0,-.4,.2,-.6c.3,-.2,1.4,-1.1,1.7,-1.4c.4,-.3,.9,-.6,1.3,-.9l.4,-.1c.4,.1,.8,.2,1.2,.3Z" class="g7_32"/>
<path d="M66.5,193.7c.5,-.1,.9,-.3,1.3,-.4l.3,.1c.7,.6,2.3,1.8,3,2.4c.1,.1,.3,.2,.3,.3c.1,.3,.1,.6,-.2,.6c-.2,.1,-.5,.2,-.7,.1c-1.1,-.8,-2.9,-2.2,-4,-3.1Z" class="g7_32"/>
<path d="M61.1,180.4c-1.1,0,-2.1,0,-3.2,0c-2,-.2,-3.5,-1.6,-3.9,-3.6c-.1,-.5,-.2,-.9,-.3,-1.4c-.3,-1.9,1,-3.6,3,-3.6c3,0,6,0,9,0c1.8,0,3.1,1.5,2.9,3.3c-.1,1.1,-.2,2.2,-.8,3.1c-.9,1.4,-2.2,2.2,-3.9,2.2c-.9,0,-1.9,0,-2.8,0Z" class="g7_32"/>
<path d="M65.7,183.1c.3,0,.5,0,.8,0c.4,0,.7,.3,.6,.6c-.5,.9,-1,1.7,-1.5,2.6c-.1,.1,-.3,.2,-.6,.2c-.5,0,-1.1,0,-1.6,0c-.5,0,-.7,-.3,-.6,-.6c.5,-.9,1,-1.7,1.5,-2.5c.1,-.2,.3,-.3,.7,-.3c.2,0,.5,0,.7,0Z" class="g7_32"/>
<path d="M58.1,186.5c-.2,0,-.5,0,-.7,0c-.3,0,-.6,-.1,-.7,-.3c-.5,-.8,-1,-1.6,-1.4,-2.5c-.2,-.3,0,-.6,.6,-.6c.5,0,1,0,1.5,0c.3,0,.5,.1,.6,.3c.5,.8,1,1.6,1.5,2.5c.2,.3,-.1,.6,-.6,.6c-.2,0,-.5,0,-.8,0Z" class="g7_32"/>
<path d="M62.2,190.9c0,.5,-.5,1,-1,1c-.6,0,-1.1,-.5,-1.1,-1c0,-.6,.5,-1.1,1,-1.1c.6,0,1.1,.5,1.1,1.1Z" class="g7_32"/>
<path d="M218.1,310.8V279.3H215v31.5Z" class="g3_32"/>
<path d="M303.1,327.1V306.7h-.7v20.4Z" class="g3_32"/>
<path d="M303.1,351.9V327.1h-.7v24.8Z" class="g3_32"/>
<path d="M217.6,371.9v-20h-.7v20Z" class="g3_32"/>
<path d="M303.1,371.9v-20h-.7v20Z" class="g3_32"/>
<path d="M217.6,391.9v-20h-.7v20Z" class="g3_32"/>
<path d="M303.1,391.9v-20h-.7v20Z" class="g3_32"/>
<path d="M217.6,411.8V391.9h-.7v19.9Z" class="g3_32"/>
<path d="M303.1,411.8V391.9h-.7v19.9Z" class="g3_32"/>
<path d="M217.6,431.8v-20h-.7v20Z" class="g3_32"/>
<path d="M303.1,431.8v-20h-.7v20Z" class="g3_32"/>
<path d="M217.6,451.8v-20h-.7v20Z" class="g3_32"/>
<path d="M303.1,451.8v-20h-.7v20Z" class="g3_32"/>
<path d="M217.6,471.7V451.8h-.7v19.9Z" class="g3_32"/>
<path d="M303.1,471.7V451.8h-.7v19.9Z" class="g3_32"/>
<path d="M217.6,491.7v-20h-.7v20Z" class="g3_32"/>
<path d="M303.1,491.7v-20h-.7v20Z" class="g3_32"/>
<path d="M217.6,511.7v-20h-.7v20Z" class="g3_32"/>
<path d="M303.1,511.7v-20h-.7v20Z" class="g3_32"/>
<path d="M217.6,531.6V511.7h-.7v19.9Z" class="g3_32"/>
<path d="M303.1,531.6V511.7h-.7v19.9Z" class="g3_32"/>
<path d="M217.6,551.6v-20h-.7v20Z" class="g3_32"/>
<path d="M303.1,551.6v-20h-.7v20Z" class="g3_32"/>
<path d="M217.6,571.6v-20h-.7v20Z" class="g3_32"/>
<path d="M303.1,571.6v-20h-.7v20Z" class="g3_32"/>
<path d="M217.6,591.5V571.6h-.7v19.9Z" class="g3_32"/>
<path d="M303.1,591.5V571.6h-.7v19.9Z" class="g3_32"/>
<path d="M217.6,611.5v-20h-.7v20Z" class="g3_32"/>
<path d="M303.1,611.5v-20h-.7v20Z" class="g3_32"/>
<path d="M78,327.9H217.3v-1.6H78Z" class="g6_32"/>
<path d="M217.3,327.9h85.1v-1.6H217.3Z" class="g6_32"/>
<path d="M61.2,345.7c9.8,0,17.8,-8,17.8,-17.9C79,317.9,71,310,61.2,310c-9.9,0,-17.9,7.9,-17.9,17.8c0,9.9,8,17.9,17.9,17.9Z" class="g6_32"/>
<path d="M71.6,329.6c0,.7,.2,1.4,.2,2.2c0,2,-1,3.5,-2.7,4.6c-1.3,.9,-2.8,1.3,-4.3,1.3c-2.4,0,-4.8,0,-7.2,0c-1.7,0,-3.2,-.4,-4.5,-1.4c-2,-1.3,-2.8,-3.2,-2.5,-5.6c.2,-1.9,.3,-3.9,.4,-5.8c0,-1.9,0,-3.7,-.1,-5.5c0,-2.1,.9,-3.7,2.5,-5c1.5,-1,3.2,-1.5,5,-1.5c1.9,-.1,3.8,-.1,5.7,0c1.6,0,3.2,.4,4.6,1.4c1.9,1.3,2.9,3.2,2.7,5.6c-.1,1.2,0,2.4,0,3.6c-.1,0,.1,4.1,.2,6.1M61.2,314.1V314c-1,0,-1.9,0,-2.9,0c-1.3,.1,-2.5,.4,-3.6,1.1c-1.6,.9,-2.7,2.2,-2.6,4.1c.1,.9,.3,1.7,.6,2.5c.4,1.4,1.1,2.6,2.2,3.6c.2,.2,.2,.5,-.1,.8c-.6,.7,-1.3,1.3,-2.1,1.5c-.6,.2,-.7,.5,-.7,1c-.1,.5,.1,.9,.4,1.2c.8,.8,1.7,1.4,2.7,1.8c1.8,.8,3.7,1,5.6,1.1c2,0,4.1,-.2,6,-.9c1.4,-.5,2.6,-1.1,3.5,-2.3c0,-.1,.1,-.3,.1,-.4c0,-.4,0,-.7,0,-1l-.2,-.3c-1.1,-.3,-1.9,-.9,-2.6,-1.7c-.3,-.3,-.3,-.6,0,-.9c.4,-.5,.9,-1,1.2,-1.5c.8,-1.2,1.2,-2.6,1.4,-4c.2,-1.1,0,-2.2,-.7,-3.1c-1.2,-1.6,-2.8,-2.3,-4.7,-2.5c-1.1,-.1,-2.3,0,-3.5,0m-9.4,16.5c-.3,1.6,0,3.1,1.3,4.2c1.3,1.2,2.8,1.7,4.6,1.7c2.3,0,4.6,0,6.9,0c.8,0,1.6,-.1,2.4,-.4c1.4,-.4,2.5,-1.2,3.2,-2.6c.5,-.9,.5,-1.9,.3,-2.9h-.1c-1.1,1.4,-2.6,2.2,-4.3,2.6c-2.9,.8,-5.7,.8,-8.6,.3c-1.4,-.2,-2.8,-.6,-3.9,-1.4c-.7,-.5,-1.2,-1,-1.8,-1.5Z" class="g7_32"/>
<path d="M55.8,338.1c-.5,.4,-1,.8,-1.5,1.2c-.5,.3,-1.7,1.3,-2.2,1.8c-.3,.2,-.6,.1,-.8,.1l-.3,-.4c-.1,-.2,0,-.4,.2,-.6c.3,-.2,1.4,-1.1,1.7,-1.4c.4,-.3,.9,-.6,1.3,-.9l.4,-.1c.4,.1,.8,.2,1.2,.3Z" class="g7_32"/>
<path d="M66.5,338.1c.5,-.1,.9,-.3,1.3,-.4l.3,.1c.7,.6,2.3,1.8,3,2.4c.1,.1,.3,.2,.3,.3c.1,.3,.1,.5,-.2,.6c-.2,.1,-.5,.2,-.7,.1c-1.1,-.8,-2.9,-2.2,-4,-3.1Z" class="g7_32"/>
<path d="M61.1,324.8c-1.1,0,-2.1,0,-3.2,-.1c-2,-.1,-3.5,-1.5,-3.9,-3.5c-.1,-.5,-.2,-.9,-.3,-1.4c-.3,-2,1,-3.6,3,-3.6c3,0,6,0,9,0c1.8,0,3.1,1.5,2.9,3.3c-.1,1.1,-.2,2.2,-.8,3.1c-.9,1.4,-2.2,2.2,-3.9,2.2c-.9,0,-1.8,0,-2.8,0Z" class="g7_32"/>
<path d="M65.7,327.5c.3,0,.5,0,.8,0c.4,0,.7,.3,.6,.6c-.5,.8,-1,1.7,-1.5,2.5c-.1,.2,-.3,.3,-.6,.3c-.5,0,-1.1,0,-1.6,0c-.5,0,-.7,-.3,-.5,-.6c.4,-.9,.9,-1.7,1.4,-2.5c.1,-.2,.3,-.3,.7,-.3c.2,0,.5,0,.7,0Z" class="g7_32"/>
<path d="M58.1,330.9c-.2,0,-.5,0,-.7,0c-.3,0,-.6,-.1,-.7,-.3c-.5,-.8,-.9,-1.6,-1.4,-2.5c-.2,-.3,0,-.6,.6,-.6c.5,0,1,0,1.5,0c.3,0,.5,.1,.6,.3c.5,.8,1,1.6,1.5,2.5c.2,.3,-.1,.6,-.6,.6c-.2,0,-.5,0,-.8,0Z" class="g7_32"/>
<path d="M62.2,335.3c0,.5,-.5,1,-1,1c-.6,0,-1.1,-.5,-1.1,-1c0,-.6,.5,-1.1,1,-1.1c.6,0,1.1,.5,1.1,1.1Z" class="g7_32"/>
<path d="M303.1,640.6V620.2h-.7v20.4Z" class="g3_32"/>
<path d="M303.1,665.4V640.6h-.7v24.8Z" class="g3_32"/>
<path d="M217.6,685.4v-20h-.7v20Z" class="g3_32"/>
<path d="M303.1,685.4v-20h-.7v20Z" class="g3_32"/>
<path d="M217.6,705.3V685.4h-.7v19.9Z" class="g3_32"/>
<path d="M303.1,705.3V685.4h-.7v19.9Z" class="g3_32"/>
<path d="M217.6,725.3v-20h-.7v20Z" class="g3_32"/>
<path d="M303.1,725.3v-20h-.7v20Z" class="g3_32"/>
<path d="M217.6,745.3v-20h-.7v20Z" class="g3_32"/>
<path d="M303.1,745.3v-20h-.7v20Z" class="g3_32"/>
<path d="M217.6,765.2V745.3h-.7v19.9Z" class="g3_32"/>
<path d="M303.1,765.2V745.3h-.7v19.9Z" class="g3_32"/>
<path d="M217.6,785.2v-20h-.7v20Z" class="g3_32"/>
<path d="M303.1,785.2v-20h-.7v20Z" class="g3_32"/>
<path d="M217.6,805.2v-20h-.7v20Z" class="g3_32"/>
<path d="M303.1,805.2v-20h-.7v20Z" class="g3_32"/>
<path d="M217.6,825.1V805.2h-.7v19.9Z" class="g3_32"/>
<path d="M303.1,825.1V805.2h-.7v19.9Z" class="g3_32"/>
<path d="M217.6,845.1v-20h-.7v20Z" class="g3_32"/>
<path d="M303.1,845.1v-20h-.7v20Z" class="g3_32"/>
<path d="M217.6,865.1v-20h-.7v20Z" class="g3_32"/>
<path d="M303.1,865.1v-20h-.7v20Z" class="g3_32"/>
<path d="M217.6,885V865.1h-.7V885Z" class="g3_32"/>
<path d="M303.1,885V865.1h-.7V885Z" class="g3_32"/>
<path d="M217.6,905V885h-.7v20Z" class="g3_32"/>
<path d="M303.1,905V885h-.7v20Z" class="g3_32"/>
<path d="M217.6,925V905h-.7v20Z" class="g3_32"/>
<path d="M303.1,925V905h-.7v20Z" class="g3_32"/>
<path d="M78,641.3H217.3v-1.5H78Z" class="g6_32"/>
<path d="M217.3,641.3h85.1v-1.5H217.3Z" class="g6_32"/>
<path d="M61.2,659.1c9.8,0,17.8,-8,17.8,-17.8c0,-9.9,-8,-17.9,-17.8,-17.9c-9.9,0,-17.9,8,-17.9,17.9c0,9.8,8,17.8,17.9,17.8Z" class="g6_32"/>
<path d="M71.6,643c0,.8,.2,1.5,.2,2.2c0,2,-1,3.6,-2.7,4.7c-1.3,.8,-2.8,1.2,-4.3,1.3c-2.4,0,-4.8,0,-7.2,0c-1.7,-.1,-3.2,-.5,-4.5,-1.4c-2,-1.4,-2.8,-3.2,-2.5,-5.6c.2,-2,.3,-3.9,.4,-5.9c0,-1.8,0,-3.6,-.1,-5.4c0,-2.2,.9,-3.8,2.5,-5c1.5,-1.1,3.2,-1.6,5,-1.6c1.9,0,3.8,0,5.7,0c1.6,0,3.2,.5,4.6,1.4c1.9,1.4,2.9,3.2,2.7,5.6c-.1,1.2,0,2.4,0,3.6c-.1,0,.1,4.1,.2,6.1M61.2,627.5v0c-1,0,-1.9,0,-2.9,0c-1.3,0,-2.5,.3,-3.6,1c-1.6,.9,-2.7,2.2,-2.6,4.2c.1,.8,.3,1.7,.6,2.5c.4,1.3,1.1,2.6,2.2,3.5c.2,.2,.2,.6,-.1,.9c-.6,.6,-1.3,1.2,-2.1,1.5c-.6,.2,-.7,.5,-.7,1c-.1,.5,.1,.8,.4,1.2c.8,.8,1.7,1.3,2.7,1.8c1.8,.7,3.7,1,5.6,1c2,0,4.1,-.1,6,-.8c1.4,-.5,2.6,-1.2,3.5,-2.3c0,-.2,.1,-.3,.1,-.5c0,-.3,0,-.7,0,-1l-.2,-.3c-1.1,-.3,-1.9,-.9,-2.6,-1.6c-.3,-.3,-.3,-.7,0,-1c.4,-.4,.9,-.9,1.2,-1.4c.8,-1.3,1.2,-2.6,1.4,-4c.2,-1.2,0,-2.2,-.7,-3.2c-1.2,-1.5,-2.8,-2.3,-4.7,-2.4c-1.1,-.1,-2.3,-.1,-3.5,-.1m-9.4,16.6c-.3,1.6,0,3,1.3,4.2c1.3,1.2,2.8,1.6,4.6,1.7c2.3,0,4.6,0,6.9,0c.8,0,1.6,-.1,2.4,-.4c1.4,-.5,2.5,-1.3,3.2,-2.6c.5,-1,.5,-2,.3,-3h-.1c-1.1,1.5,-2.6,2.2,-4.3,2.7c-2.9,.8,-5.7,.8,-8.6,.3c-1.4,-.2,-2.8,-.7,-3.9,-1.5c-.7,-.4,-1.2,-.9,-1.8,-1.4Z" class="g7_32"/>
<path d="M55.8,651.6c-.5,.4,-1,.7,-1.5,1.1c-.5,.4,-1.7,1.4,-2.2,1.8c-.3,.2,-.6,.2,-.8,.1l-.3,-.3c-.1,-.3,0,-.5,.2,-.6c.3,-.3,1.4,-1.2,1.7,-1.4c.4,-.4,.9,-.7,1.3,-1l.4,-.1c.4,.1,.8,.2,1.2,.4Z" class="g7_32"/>
<path d="M66.5,651.6c.5,-.2,.9,-.3,1.3,-.4l.3,.1c.7,.5,2.3,1.7,3,2.3c.1,.1,.3,.2,.3,.4c.1,.2,.1,.5,-.2,.6c-.2,.1,-.5,.1,-.7,0c-1.1,-.7,-2.9,-2.2,-4,-3Z" class="g7_32"/>
<path d="M61.1,638.2c-1.1,0,-2.1,.1,-3.2,0c-2,-.1,-3.5,-1.6,-3.9,-3.5c-.1,-.5,-.2,-1,-.3,-1.5c-.3,-1.9,1,-3.6,3,-3.6c3,0,6,0,9,0c1.8,0,3.1,1.5,2.9,3.4c-.1,1,-.2,2.1,-.8,3.1c-.9,1.4,-2.2,2.1,-3.9,2.1c-.9,0,-1.8,0,-2.8,0Z" class="g7_32"/>
<path d="M65.7,640.9c.3,0,.5,0,.8,0c.4,0,.7,.3,.6,.6c-.5,.9,-1,1.7,-1.5,2.6c-.1,.2,-.3,.3,-.6,.3c-.5,0,-1.1,0,-1.6,0c-.5,0,-.7,-.3,-.5,-.7c.4,-.8,.9,-1.6,1.4,-2.5c.1,-.2,.3,-.3,.7,-.3c.2,0,.5,0,.7,0Z" class="g7_32"/>
<path d="M58.1,644.4c-.2,0,-.5,0,-.7,0c-.3,0,-.6,-.1,-.7,-.4c-.5,-.8,-.9,-1.6,-1.4,-2.4c-.2,-.4,0,-.7,.6,-.7c.5,0,1,0,1.5,0c.3,0,.5,.1,.6,.3c.5,.9,1,1.7,1.5,2.5c.2,.3,-.1,.6,-.6,.7c-.2,0,-.5,0,-.8,0Z" class="g7_32"/>
<path d="M62.2,648.7c0,.6,-.5,1,-1,1c-.6,0,-1.1,-.4,-1.1,-1c0,-.5,.5,-1,1,-1c.6,0,1.1,.4,1.1,1Z" class="g7_32"/>
<path d="M43.3,930.8H303.2v-1.5H43.3Z" class="g8_32"/>
<path d="M324.8,385.7H866.1v-2.3H324.8v2.3Z" class="g9_32"/>
<image clip-path="url(#c2_32)" preserveAspectRatio="none" x="416" y="361" width="90" height="23" xlink:href="img/3.jpg"/>
<image clip-path="url(#c3_32)" preserveAspectRatio="none" x="417" y="290" width="88" height="72" xlink:href="img/4.jpg"/>
<image clip-path="url(#c4_32)" preserveAspectRatio="none" x="416" y="385" width="99" height="6" xlink:href="img/5.jpg"/>
<image clip-path="url(#c5_32)" preserveAspectRatio="none" x="416" y="383" width="90" height="3" xlink:href="img/6.jpg"/>
<path d="M442,302.3c-10.2,0,-18.4,8.2,-18.4,18.3v64.2h79.1V320.6c0,-10.1,-8.3,-18.3,-18.4,-18.3Z" class="g3_32"/>
<path d="M429.8,328.5h2.3c.2,0,.4,-.2,.4,-.4c0,-.2,-.2,-.4,-.4,-.4h-2.3c-.2,0,-.4,.2,-.4,.4c0,.2,.2,.4,.4,.4m3.9,0H436c.2,0,.4,-.2,.4,-.4c0,-.2,-.2,-.4,-.4,-.4h-2.3c-.2,0,-.4,.2,-.4,.4c0,.2,.2,.4,.4,.4m3.9,0h2.3c.2,0,.4,-.2,.4,-.4c0,-.2,-.2,-.4,-.4,-.4h-2.3c-.2,0,-.4,.2,-.4,.4c0,.2,.2,.4,.4,.4m3.8,0h2.4c.2,0,.3,-.2,.3,-.4c0,-.2,-.1,-.4,-.3,-.4h-2.4c-.2,0,-.3,.2,-.3,.4c0,.2,.1,.4,.3,.4m3.9,0h2.3c.3,0,.4,-.2,.4,-.4c0,-.2,-.1,-.4,-.4,-.4h-2.3c-.2,0,-.4,.2,-.4,.4c0,.2,.2,.4,.4,.4m3.9,0h2.3c.2,0,.4,-.2,.4,-.4c0,-.2,-.2,-.4,-.4,-.4h-2.3c-.2,0,-.4,.2,-.4,.4c0,.2,.2,.4,.4,.4m3.9,0h2.3c.2,0,.4,-.2,.4,-.4c0,-.2,-.2,-.4,-.4,-.4h-2.3c-.2,0,-.4,.2,-.4,.4c0,.2,.2,.4,.4,.4m3.9,0h2.3c.2,0,.4,-.2,.4,-.4c0,-.2,-.2,-.4,-.4,-.4H457c-.2,0,-.4,.2,-.4,.4c0,.2,.2,.4,.4,.4m3.9,0h2.3c.2,0,.4,-.2,.4,-.4c0,-.2,-.2,-.4,-.4,-.4h-2.3c-.3,0,-.4,.2,-.4,.4c0,.2,.1,.4,.4,.4m3.8,0h2.4c.2,0,.3,-.2,.3,-.4c0,-.2,-.1,-.4,-.3,-.4h-2.4c-.2,0,-.3,.2,-.3,.4c0,.2,.1,.4,.3,.4m3.9,0h2.3c.3,0,.4,-.2,.4,-.4c0,-.2,-.1,-.4,-.4,-.4h-2.3c-.2,0,-.4,.2,-.4,.4c0,.2,.2,.4,.4,.4m3.9,0h2.3c.2,0,.4,-.2,.4,-.4c0,-.2,-.2,-.4,-.4,-.4h-2.3c-.2,0,-.4,.2,-.4,.4c0,.2,.2,.4,.4,.4m3.9,0h2.3c.2,0,.4,-.2,.4,-.4c0,-.2,-.2,-.4,-.4,-.4h-2.3c-.2,0,-.4,.2,-.4,.4c0,.2,.2,.4,.4,.4m3.9,0h2.3c.2,0,.4,-.2,.4,-.4c0,-.2,-.2,-.4,-.4,-.4h-2.3c-.2,0,-.4,.2,-.4,.4c0,.2,.2,.4,.4,.4m3.8,0h2.4c.2,0,.4,-.2,.4,-.4c0,-.2,-.2,-.4,-.4,-.4h-2.4c-.2,0,-.3,.2,-.3,.4c0,.2,.1,.4,.3,.4m3.9,0h2.4c.2,0,.3,-.2,.3,-.4c0,-.2,-.1,-.4,-.3,-.4H488c-.2,0,-.4,.2,-.4,.4c0,.2,.2,.4,.4,.4m3.9,0h2.3c.2,0,.4,-.2,.4,-.4c0,-.2,-.2,-.4,-.4,-.4h-2.3c-.2,0,-.4,.2,-.4,.4c0,.2,.2,.4,.4,.4m3.9,0h2.3c.2,0,.4,-.2,.4,-.4c0,-.2,-.2,-.4,-.4,-.4h-2.3c-.2,0,-.4,.2,-.4,.4c0,.2,.2,.4,.4,.4Z" class="g4_32"/>
<path d="M429.8,360.7h2.3c.2,0,.4,-.1,.4,-.3c0,-.2,-.2,-.4,-.4,-.4h-2.3c-.2,0,-.4,.2,-.4,.4c0,.2,.2,.3,.4,.3m3.9,0H436c.2,0,.4,-.1,.4,-.3c0,-.2,-.2,-.4,-.4,-.4h-2.3c-.2,0,-.4,.2,-.4,.4c0,.2,.2,.3,.4,.3m3.9,0h2.3c.2,0,.4,-.1,.4,-.3c0,-.2,-.2,-.4,-.4,-.4h-2.3c-.2,0,-.4,.2,-.4,.4c0,.2,.2,.3,.4,.3m3.8,0h2.4c.2,0,.3,-.1,.3,-.3c0,-.2,-.1,-.4,-.3,-.4h-2.4c-.2,0,-.3,.2,-.3,.4c0,.2,.1,.3,.3,.3m3.9,0h2.3c.3,0,.4,-.1,.4,-.3c0,-.2,-.1,-.4,-.4,-.4h-2.3c-.2,0,-.4,.2,-.4,.4c0,.2,.2,.3,.4,.3m3.9,0h2.3c.2,0,.4,-.1,.4,-.3c0,-.2,-.2,-.4,-.4,-.4h-2.3c-.2,0,-.4,.2,-.4,.4c0,.2,.2,.3,.4,.3m3.9,0h2.3c.2,0,.4,-.1,.4,-.3c0,-.2,-.2,-.4,-.4,-.4h-2.3c-.2,0,-.4,.2,-.4,.4c0,.2,.2,.3,.4,.3m3.9,0h2.3c.2,0,.4,-.1,.4,-.3c0,-.2,-.2,-.4,-.4,-.4H457c-.2,0,-.4,.2,-.4,.4c0,.2,.2,.3,.4,.3m3.9,0h2.3c.2,0,.4,-.1,.4,-.3c0,-.2,-.2,-.4,-.4,-.4h-2.3c-.3,0,-.4,.2,-.4,.4c0,.2,.1,.3,.4,.3m3.8,0h2.4c.2,0,.3,-.1,.3,-.3c0,-.2,-.1,-.4,-.3,-.4h-2.4c-.2,0,-.3,.2,-.3,.4c0,.2,.1,.3,.3,.3m3.9,0h2.3c.3,0,.4,-.1,.4,-.3c0,-.2,-.1,-.4,-.4,-.4h-2.3c-.2,0,-.4,.2,-.4,.4c0,.2,.2,.3,.4,.3m3.9,0h2.3c.2,0,.4,-.1,.4,-.3c0,-.2,-.2,-.4,-.4,-.4h-2.3c-.2,0,-.4,.2,-.4,.4c0,.2,.2,.3,.4,.3m3.9,0h2.3c.2,0,.4,-.1,.4,-.3c0,-.2,-.2,-.4,-.4,-.4h-2.3c-.2,0,-.4,.2,-.4,.4c0,.2,.2,.3,.4,.3m3.9,0h2.3c.2,0,.4,-.1,.4,-.3c0,-.2,-.2,-.4,-.4,-.4h-2.3c-.2,0,-.4,.2,-.4,.4c0,.2,.2,.3,.4,.3m3.8,0h2.4c.2,0,.4,-.1,.4,-.3c0,-.2,-.2,-.4,-.4,-.4h-2.4c-.2,0,-.3,.2,-.3,.4c0,.2,.1,.3,.3,.3m3.9,0h2.4c.2,0,.3,-.1,.3,-.3c0,-.2,-.1,-.4,-.3,-.4H488c-.2,0,-.4,.2,-.4,.4c0,.2,.2,.3,.4,.3m3.9,0h2.3c.2,0,.4,-.1,.4,-.3c0,-.2,-.2,-.4,-.4,-.4h-2.3c-.2,0,-.4,.2,-.4,.4c0,.2,.2,.3,.4,.3m3.9,0h2.3c.2,0,.4,-.1,.4,-.3c0,-.2,-.2,-.4,-.4,-.4h-2.3c-.2,0,-.4,.2,-.4,.4c0,.2,.2,.3,.4,.3Z" class="g4_32"/>
<path d="M423.6,385.7h79v-6.8h-79v6.8Z" class="g9_32"/>
<image clip-path="url(#c6_32)" preserveAspectRatio="none" x="514" y="361" width="80" height="23" xlink:href="img/7.jpg"/>
<image clip-path="url(#c7_32)" preserveAspectRatio="none" x="505" y="290" width="88" height="72" xlink:href="img/8.jpg"/>
<image clip-path="url(#c8_32)" preserveAspectRatio="none" x="514" y="385" width="89" height="6" xlink:href="img/9.jpg"/>
<image clip-path="url(#c9_32)" preserveAspectRatio="none" x="514" y="383" width="80" height="3" xlink:href="img/10.jpg"/>
<image clip-path="url(#ca_32)" preserveAspectRatio="none" x="504" y="361" width="11" height="23" xlink:href="img/11.jpg"/>
<image clip-path="url(#cb_32)" preserveAspectRatio="none" x="505" y="290" width="9" height="72" xlink:href="img/12.jpg"/>
<image clip-path="url(#cc_32)" preserveAspectRatio="none" x="504" y="385" width="11" height="7" xlink:href="img/13.jpg"/>
<image clip-path="url(#cd_32)" preserveAspectRatio="none" x="504" y="383" width="11" height="3" xlink:href="img/14.jpg"/>
<path d="M530.1,302.3c-10.1,0,-18.3,8.2,-18.3,18.3v64.2h79V320.6c0,-10.1,-8.2,-18.3,-18.4,-18.3Z" class="g3_32"/>
<path d="M511.7,385.7h79.1v-7.2H511.7v7.2Z" class="g9_32"/>
<path d="M517.9,328.5h2.6c.2,0,.3,-.2,.3,-.4c0,-.2,-.1,-.4,-.3,-.4h-2.6c-.2,0,-.4,.2,-.4,.4c0,.2,.2,.4,.4,.4m4.3,0h2.6c.2,0,.4,-.2,.4,-.4c0,-.2,-.2,-.4,-.4,-.4h-2.6c-.2,0,-.3,.2,-.3,.4c0,.2,.1,.4,.3,.4m4.3,0h2.6c.2,0,.4,-.2,.4,-.4c0,-.2,-.2,-.4,-.4,-.4h-2.6c-.2,0,-.3,.2,-.3,.4c0,.2,.1,.4,.3,.4m4.4,0h2.5c.2,0,.4,-.2,.4,-.4c0,-.2,-.2,-.4,-.4,-.4h-2.5c-.3,0,-.4,.2,-.4,.4c0,.2,.1,.4,.4,.4Z" class="g6_32"/>
<path d="M569.5,360.7h2.2c.2,0,.3,-.1,.3,-.3c0,-.2,-.1,-.4,-.3,-.4h-2.2c-.3,0,-.4,.2,-.4,.4c0,.2,.1,.3,.4,.3m3.6,0h2.2c.2,0,.4,-.1,.4,-.3c0,-.2,-.2,-.4,-.4,-.4h-2.2c-.2,0,-.4,.2,-.4,.4c0,.2,.2,.3,.4,.3m3.6,0h2.2c.3,0,.4,-.1,.4,-.3c0,-.2,-.1,-.4,-.4,-.4h-2.2c-.2,0,-.3,.2,-.3,.4c0,.2,.1,.3,.3,.3m3.7,0h2.2c.2,0,.4,-.1,.4,-.3c0,-.2,-.2,-.4,-.4,-.4h-2.2c-.2,0,-.4,.2,-.4,.4c0,.2,.2,.3,.4,.3m3.6,0h2.2c.3,0,.4,-.1,.4,-.3c0,-.2,-.1,-.4,-.4,-.4H584c-.2,0,-.3,.2,-.3,.4c0,.2,.1,.3,.3,.3Z" class="g6_32"/>
<path d="M568.6,328.5h2.3c.2,0,.4,-.2,.4,-.4c0,-.2,-.2,-.4,-.4,-.4h-2.3c-.2,0,-.4,.2,-.4,.4c0,.2,.2,.4,.4,.4m3.8,0h2.3c.2,0,.4,-.2,.4,-.4c0,-.2,-.2,-.4,-.4,-.4h-2.3c-.2,0,-.4,.2,-.4,.4c0,.2,.2,.4,.4,.4m3.9,0h2.3c.2,0,.3,-.2,.3,-.4c0,-.2,-.1,-.4,-.3,-.4h-2.3c-.2,0,-.4,.2,-.4,.4c0,.2,.2,.4,.4,.4m3.8,0h2.3c.2,0,.4,-.2,.4,-.4c0,-.2,-.2,-.4,-.4,-.4h-2.3c-.2,0,-.4,.2,-.4,.4c0,.2,.2,.4,.4,.4m3.8,0h2.3c.3,0,.4,-.2,.4,-.4c0,-.2,-.1,-.4,-.4,-.4h-2.3c-.2,0,-.3,.2,-.3,.4c0,.2,.1,.4,.3,.4Z" class="g6_32"/>
<path d="M564.7,345.9c.1,.9,.3,1.8,.3,2.8c-.1,2.6,-1.3,4.6,-3.5,6c-1.7,1.1,-3.6,1.6,-5.6,1.6c-3.1,.1,-6.2,.1,-9.3,0c-2.1,0,-4.1,-.5,-5.8,-1.7c-2.5,-1.8,-3.6,-4.2,-3.2,-7.3c.3,-2.5,.4,-5,.5,-7.5c0,-2.4,0,-4.7,-.1,-7.1c0,-2.7,1.1,-4.8,3.3,-6.4c1.8,-1.4,4,-2,6.3,-2c2.5,-.1,4.9,-.1,7.4,0c2.1,0,4.2,.6,5.9,1.8c2.6,1.8,3.8,4.2,3.5,7.3c-.1,1.5,0,3.1,0,4.6c0,0,.2,5.2,.3,7.9m-13.4,-20v-.1c-1.3,0,-2.5,0,-3.7,0c-1.7,0,-3.3,.4,-4.7,1.3c-2,1.2,-3.4,2.9,-3.3,5.4c.1,1.1,.4,2.2,.7,3.2c.6,1.8,1.4,3.4,2.8,4.6c.4,.3,.4,.7,0,1.1c-.8,.8,-1.7,1.6,-2.8,1.9c-.7,.3,-.9,.7,-.9,1.3c-.1,.7,.1,1.1,.5,1.6c1,1,2.2,1.7,3.5,2.3c2.3,1,4.7,1.3,7.2,1.3c2.7,.1,5.3,-.2,7.8,-1.1c1.7,-.6,3.3,-1.5,4.4,-2.9c.2,-.2,.3,-.4,.3,-.6c0,-.4,0,-.9,-.1,-1.3l-.3,-.3c-1.3,-.5,-2.4,-1.3,-3.3,-2.2c-.4,-.4,-.3,-.8,0,-1.2c.6,-.6,1.2,-1.2,1.6,-1.9c1,-1.6,1.5,-3.4,1.8,-5.2c.3,-1.5,-.1,-2.8,-1,-4c-1.5,-2,-3.6,-3,-5.9,-3.2c-1.6,-.1,-3.1,0,-4.6,0m-12.1,21.3c-.5,2.1,0,3.9,1.6,5.4c1.7,1.6,3.7,2.2,5.9,2.2c3,0,6,0,9,0c1,0,2,-.1,3,-.5c1.8,-.6,3.3,-1.6,4.2,-3.4c.6,-1.2,.6,-2.5,.3,-3.8l-.1,.1c-1.4,1.8,-3.3,2.8,-5.5,3.4c-3.7,1,-7.4,1,-11.1,.4c-1.8,-.3,-3.6,-.9,-5.1,-1.9c-.8,-.6,-1.5,-1.3,-2.2,-1.9Z" class="g6_32"/>
<path d="M544.3,356.9c-.7,.5,-1.3,1,-1.9,1.4c-.6,.5,-2.3,1.8,-2.9,2.4c-.3,.2,-.7,.2,-1,.1c-.2,0,-.4,-.2,-.4,-.4c-.1,-.3,0,-.6,.3,-.8c.4,-.4,1.8,-1.5,2.2,-1.8c.5,-.4,1.1,-.9,1.7,-1.3c.1,-.1,.3,-.1,.5,-.1c.5,.1,1,.3,1.5,.5Z" class="g6_32"/>
<path d="M558.1,356.9c.7,-.2,1.2,-.4,1.7,-.5l.4,.1c1,.7,3,2.3,3.9,3c.2,.1,.3,.3,.4,.5c.1,.3,0,.7,-.3,.8c-.2,.1,-.7,.1,-.9,0c-1.4,-1,-3.7,-2.8,-5.2,-3.9Z" class="g6_32"/>
<path d="M551.2,339.6c-1.4,0,-2.8,.1,-4.2,0c-2.5,-.2,-4.5,-2,-5,-4.5c-.1,-.7,-.2,-1.3,-.3,-1.9c-.5,-2.5,1.2,-4.6,3.7,-4.6c3.9,0,7.8,0,11.6,0c2.4,0,4.2,1.9,3.8,4.3c-.1,1.3,-.3,2.8,-1,4c-1.2,1.8,-2.8,2.8,-5,2.8c-1.2,0,-2.4,0,-3.6,0Z" class="g6_32"/>
<path d="M557.1,343.1c.3,0,.7,0,1,0c.6,0,1,.4,.7,.8c-.6,1.1,-1.2,2.2,-1.9,3.3c-.1,.3,-.4,.4,-.7,.4c-.7,0,-1.4,0,-2.1,0c-.6,0,-.9,-.4,-.7,-.9c.6,-1,1.3,-2.1,1.9,-3.2c.1,-.3,.4,-.4,.8,-.4c.4,0,.7,0,1,0Z" class="g6_32"/>
<path d="M547.3,347.6c-.3,0,-.6,0,-.9,0c-.5,0,-.8,-.1,-.9,-.4c-.6,-1.1,-1.2,-2.1,-1.8,-3.2c-.3,-.5,0,-.9,.7,-.9c.7,0,1.3,0,1.9,0c.5,0,.7,.2,.9,.4c.6,1.1,1.2,2.2,1.9,3.3c.2,.4,-.1,.8,-.7,.8c-.4,0,-.7,0,-1.1,0Z" class="g6_32"/>
<path d="M552.6,353.2c0,.7,-.6,1.3,-1.3,1.3c-.8,0,-1.4,-.6,-1.4,-1.3c0,-.7,.6,-1.4,1.3,-1.4c.7,0,1.4,.6,1.4,1.4Z" class="g6_32"/>
<path d="M517.9,360.7h2.2c.2,0,.4,-.1,.4,-.3c0,-.2,-.2,-.4,-.4,-.4h-2.2c-.2,0,-.4,.2,-.4,.4c0,.2,.2,.3,.4,.3m3.7,0h2.2c.2,0,.4,-.1,.4,-.3c0,-.2,-.2,-.4,-.4,-.4h-2.2c-.2,0,-.4,.2,-.4,.4c0,.2,.2,.3,.4,.3m3.6,0h2.2c.2,0,.4,-.1,.4,-.3c0,-.2,-.2,-.4,-.4,-.4h-2.2c-.2,0,-.4,.2,-.4,.4c0,.2,.2,.3,.4,.3m3.7,0h2.2c.2,0,.3,-.1,.3,-.3c0,-.2,-.1,-.4,-.3,-.4h-2.2c-.3,0,-.4,.2,-.4,.4c0,.2,.1,.3,.4,.3m3.6,0h2.2c.2,0,.4,-.1,.4,-.3c0,-.2,-.2,-.4,-.4,-.4h-2.2c-.2,0,-.4,.2,-.4,.4c0,.2,.2,.3,.4,.3Z" class="g6_32"/>
<image clip-path="url(#ce_32)" preserveAspectRatio="none" x="769" y="361" width="98" height="30" xlink:href="img/15.jpg"/>
<image clip-path="url(#cf_32)" preserveAspectRatio="none" x="779" y="290" width="88" height="72" xlink:href="img/16.jpg"/>
<image clip-path="url(#cg_32)" preserveAspectRatio="none" x="778" y="383" width="89" height="3" xlink:href="img/17.jpg"/>
<image clip-path="url(#ch_32)" preserveAspectRatio="none" x="779" y="307" width="73" height="4" xlink:href="img/18.jpg"/>
<path d="M794.4,302.3c-10.1,0,-18.3,8.2,-18.3,18.3v64.2h79V320.6c0,-10.1,-8.2,-18.3,-18.3,-18.3Z" class="g3_32"/>
<path d="M776,385.7h79.1v-7.2H776v7.2Z" class="g9_32"/>
<path d="M781.4,360.7h2.4c.2,0,.3,-.1,.3,-.3c0,-.2,-.1,-.4,-.3,-.4h-2.4c-.2,0,-.3,.2,-.3,.4c0,.2,.1,.3,.3,.3m3.9,0h2.3c.3,0,.4,-.1,.4,-.3c0,-.2,-.1,-.4,-.4,-.4h-2.3c-.2,0,-.4,.2,-.4,.4c0,.2,.2,.3,.4,.3m3.9,0h2.3c.2,0,.4,-.1,.4,-.3c0,-.2,-.2,-.4,-.4,-.4h-2.3c-.2,0,-.4,.2,-.4,.4c0,.2,.2,.3,.4,.3m3.9,0h2.3c.2,0,.4,-.1,.4,-.3c0,-.2,-.2,-.4,-.4,-.4h-2.3c-.2,0,-.4,.2,-.4,.4c0,.2,.2,.3,.4,.3m3.9,0h2.3c.2,0,.4,-.1,.4,-.3c0,-.2,-.2,-.4,-.4,-.4H797c-.2,0,-.4,.2,-.4,.4c0,.2,.2,.3,.4,.3m3.8,0h2.4c.2,0,.4,-.1,.4,-.3c0,-.2,-.2,-.4,-.4,-.4h-2.4c-.2,0,-.3,.2,-.3,.4c0,.2,.1,.3,.3,.3m3.9,0h2.4c.2,0,.3,-.1,.3,-.3c0,-.2,-.1,-.4,-.3,-.4h-2.4c-.2,0,-.4,.2,-.4,.4c0,.2,.2,.3,.4,.3m3.9,0h2.3c.2,0,.4,-.1,.4,-.3c0,-.2,-.2,-.4,-.4,-.4h-2.3c-.2,0,-.4,.2,-.4,.4c0,.2,.2,.3,.4,.3m3.9,0h2.3c.2,0,.4,-.1,.4,-.3c0,-.2,-.2,-.4,-.4,-.4h-2.3c-.2,0,-.4,.2,-.4,.4c0,.2,.2,.3,.4,.3m3.9,0h2.3c.2,0,.4,-.1,.4,-.3c0,-.2,-.2,-.4,-.4,-.4h-2.3c-.2,0,-.4,.2,-.4,.4c0,.2,.2,.3,.4,.3m3.9,0h2.3c.2,0,.4,-.1,.4,-.3c0,-.2,-.2,-.4,-.4,-.4h-2.3c-.3,0,-.4,.2,-.4,.4c0,.2,.1,.3,.4,.3m3.8,0h2.4c.2,0,.3,-.1,.3,-.3c0,-.2,-.1,-.4,-.3,-.4h-2.4c-.2,0,-.3,.2,-.3,.4c0,.2,.1,.3,.3,.3m3.9,0h2.3c.3,0,.4,-.1,.4,-.3c0,-.2,-.1,-.4,-.4,-.4H828c-.2,0,-.4,.2,-.4,.4c0,.2,.2,.3,.4,.3m3.9,0h2.3c.2,0,.4,-.1,.4,-.3c0,-.2,-.2,-.4,-.4,-.4h-2.3c-.2,0,-.4,.2,-.4,.4c0,.2,.2,.3,.4,.3m3.9,0h2.3c.2,0,.4,-.1,.4,-.3c0,-.2,-.2,-.4,-.4,-.4h-2.3c-.2,0,-.4,.2,-.4,.4c0,.2,.2,.3,.4,.3m3.9,0H842c.2,0,.4,-.1,.4,-.3c0,-.2,-.2,-.4,-.4,-.4h-2.3c-.2,0,-.4,.2,-.4,.4c0,.2,.2,.3,.4,.3m3.8,0h2.4c.2,0,.4,-.1,.4,-.3c0,-.2,-.2,-.4,-.4,-.4h-2.4c-.2,0,-.3,.2,-.3,.4c0,.2,.1,.3,.3,.3m3.9,0h2.4c.2,0,.3,-.1,.3,-.3c0,-.2,-.1,-.4,-.3,-.4h-2.4c-.2,0,-.4,.2,-.4,.4c0,.2,.2,.3,.4,.3Z" class="ga_32"/>
<path d="M780.8,324.3h2.3c.2,0,.4,-.1,.4,-.3c0,-.2,-.2,-.4,-.4,-.4h-2.3c-.2,0,-.4,.2,-.4,.4c0,.2,.2,.3,.4,.3m3.9,0H787c.2,0,.4,-.1,.4,-.3c0,-.2,-.2,-.4,-.4,-.4h-2.3c-.2,0,-.4,.2,-.4,.4c0,.2,.2,.3,.4,.3m3.9,0h2.3c.2,0,.4,-.1,.4,-.3c0,-.2,-.2,-.4,-.4,-.4h-2.3c-.3,0,-.4,.2,-.4,.4c0,.2,.1,.3,.4,.3m3.8,0h2.4c.2,0,.3,-.1,.3,-.3c0,-.2,-.1,-.4,-.3,-.4h-2.4c-.2,0,-.3,.2,-.3,.4c0,.2,.1,.3,.3,.3m3.9,0h2.3c.2,0,.4,-.1,.4,-.3c0,-.2,-.2,-.4,-.4,-.4h-2.3c-.2,0,-.4,.2,-.4,.4c0,.2,.2,.3,.4,.3m3.9,0h2.3c.2,0,.4,-.1,.4,-.3c0,-.2,-.2,-.4,-.4,-.4h-2.3c-.2,0,-.4,.2,-.4,.4c0,.2,.2,.3,.4,.3m3.9,0h2.3c.2,0,.4,-.1,.4,-.3c0,-.2,-.2,-.4,-.4,-.4h-2.3c-.2,0,-.4,.2,-.4,.4c0,.2,.2,.3,.4,.3m3.9,0h2.3c.2,0,.4,-.1,.4,-.3c0,-.2,-.2,-.4,-.4,-.4H808c-.2,0,-.4,.2,-.4,.4c0,.2,.2,.3,.4,.3m3.8,0h2.4c.2,0,.3,-.1,.3,-.3c0,-.2,-.1,-.4,-.3,-.4h-2.4c-.2,0,-.3,.2,-.3,.4c0,.2,.1,.3,.3,.3m3.9,0H818c.3,0,.4,-.1,.4,-.3c0,-.2,-.1,-.4,-.4,-.4h-2.3c-.2,0,-.4,.2,-.4,.4c0,.2,.2,.3,.4,.3m3.9,0h2.3c.2,0,.4,-.1,.4,-.3c0,-.2,-.2,-.4,-.4,-.4h-2.3c-.2,0,-.4,.2,-.4,.4c0,.2,.2,.3,.4,.3m3.9,0h2.3c.2,0,.4,-.1,.4,-.3c0,-.2,-.2,-.4,-.4,-.4h-2.3c-.2,0,-.4,.2,-.4,.4c0,.2,.2,.3,.4,.3m3.9,0h2.3c.2,0,.4,-.1,.4,-.3c0,-.2,-.2,-.4,-.4,-.4h-2.3c-.2,0,-.4,.2,-.4,.4c0,.2,.2,.3,.4,.3m3.9,0h2.3c.2,0,.4,-.1,.4,-.3c0,-.2,-.2,-.4,-.4,-.4h-2.3c-.3,0,-.4,.2,-.4,.4c0,.2,.1,.3,.4,.3m3.8,0h2.4c.2,0,.3,-.1,.3,-.3c0,-.2,-.1,-.4,-.3,-.4h-2.4c-.2,0,-.3,.2,-.3,.4c0,.2,.1,.3,.3,.3m3.9,0h2.3c.3,0,.4,-.1,.4,-.3c0,-.2,-.1,-.4,-.4,-.4H839c-.2,0,-.4,.2,-.4,.4c0,.2,.2,.3,.4,.3m3.9,0h2.3c.2,0,.4,-.1,.4,-.3c0,-.2,-.2,-.4,-.4,-.4h-2.3c-.2,0,-.4,.2,-.4,.4c0,.2,.2,.3,.4,.3m3.9,0h2.3c.2,0,.4,-.1,.4,-.3c0,-.2,-.2,-.4,-.4,-.4h-2.3c-.2,0,-.4,.2,-.4,.4c0,.2,.2,.3,.4,.3Z" class="ga_32"/>
<path d="M829.5,341.1v.7h4.6c1.1,0,2,-.9,2,-2v-.4c0,-1.1,-.9,-2,-2,-2h-4.6c-.5,0,-1,.2,-1.4,.5c-.1,.1,-.2,.3,-.2,.5v.3c0,.2,-.1,.3,-.2,.4c-.2,.2,-.3,.4,-.3,.6v.1c0,1.1,1,2,2.1,2v-1.3c-.4,0,-.7,-.3,-.7,-.7v-.1h-.7l.5,.5c.4,-.4,.7,-.9,.7,-1.5v-.3h-.7l.4,.5c.2,-.1,.3,-.2,.5,-.2h4.6c.3,0,.6,.3,.6,.7v.4c0,.4,-.3,.7,-.6,.7h-4.6Z" class="ga_32"/>
<path d="M828.6,331.8l-.5,.5c.4,.4,.9,.6,1.4,.6h4.6c1.1,0,2,-1,2,-2.1v-.4c0,-1.1,-.9,-2,-2,-2h-4.6c-1.1,0,-2.1,.9,-2.1,2v.2c0,.2,.1,.4,.3,.5c.1,.1,.2,.3,.2,.5v.2c0,.2,.1,.4,.2,.5l.5,-.5h.7v-.2c0,-.6,-.3,-1.2,-.7,-1.5l-.5,.5h.7v-.2c0,-.3,.3,-.6,.7,-.6h4.6c.3,0,.6,.3,.6,.6v.4c0,.4,-.3,.7,-.6,.7h-4.6c-.2,0,-.3,-.1,-.5,-.2l-.4,.5h.7Z" class="ga_32"/>
<path d="M835.1,340.6v.7H837c1,0,1.8,-.8,1.8,-1.8v-8.7c0,-1,-.8,-1.9,-1.8,-1.9h-1.8c-.3,0,-.5,.2,-.7,.4c-.1,.3,-.1,.5,.1,.7c.1,.2,.1,.3,.1,.4v.4c0,.4,-.3,.7,-.6,.7h-4.6c-.2,0,-.3,-.1,-.5,-.2c-.2,-.2,-.4,-.2,-.7,-.1c-.2,.1,-.4,.3,-.4,.6v6.6c0,.3,.2,.5,.4,.6c.3,.1,.5,.1,.7,-.1c.2,-.1,.3,-.2,.5,-.2h4.6c.3,0,.6,.3,.6,.7v.4c0,.1,0,.3,-.1,.4c-.2,.2,-.2,.5,-.1,.7c.1,.3,.3,.4,.6,.4v-.7l.5,.5c.3,-.4,.5,-.8,.5,-1.3v-.4c0,-1.1,-.9,-2,-2,-2h-4.6c-.5,0,-1,.2,-1.4,.5l.5,.5h.7v-6.6h-.7l-.5,.5c.4,.4,.9,.6,1.4,.6h4.6c1.1,0,2,-1,2,-2.1v-.4c0,-.4,-.2,-.8,-.4,-1.2l-.5,.4v.7H837c.2,0,.4,.2,.4,.5v8.7c0,.3,-.2,.4,-.4,.4h-1.9v.7l.5,.5Z" class="ga_32"/>
<path d="M828.6,331.6h.7c0,-1.1,-.9,-2.1,-2.1,-2.1h-.6c-1.2,0,-2.1,1,-2.1,2.1v7.1c0,1.1,.9,2,2.1,2h.6c1.2,0,2.1,-.9,2.1,-2v-7.1h-1.4v7.1c0,.3,-.3,.6,-.7,.6h-.6c-.4,0,-.7,-.3,-.7,-.6v-7.1c0,-.4,.3,-.7,.7,-.7h.6c.4,0,.7,.3,.7,.7Z" class="ga_32"/>
<path d="M829.5,353.9v.7h4.6c1.1,0,2,-.9,2,-2v-.4c0,-1.1,-.9,-2.1,-2,-2.1h-4.6c-.5,0,-1,.2,-1.4,.6c-.1,.1,-.2,.3,-.2,.5v.2c0,.2,-.1,.4,-.2,.5c-.2,.2,-.3,.3,-.3,.5v.2c0,1.1,1,2,2.1,2v-1.4c-.4,0,-.7,-.3,-.7,-.6v-.2h-.7l.5,.5c.4,-.3,.7,-.9,.7,-1.5v-.2h-.7l.4,.5c.2,-.1,.3,-.2,.5,-.2h4.6c.3,0,.6,.3,.6,.7v.4c0,.3,-.3,.6,-.6,.6h-4.6Z" class="ga_32"/>
<path d="M828.6,344.6l-.5,.5c.4,.3,.9,.5,1.4,.5h4.6c1.1,0,2,-.9,2,-2v-.4c0,-1.1,-.9,-2,-2,-2h-4.6c-1.1,0,-2.1,.9,-2.1,2v.2c0,.2,.1,.3,.3,.5c.1,.1,.2,.3,.2,.5v.2c0,.2,.1,.4,.2,.5l.5,-.5h.7v-.2c0,-.6,-.3,-1.2,-.7,-1.5l-.5,.5h.7v-.2c0,-.4,.3,-.7,.7,-.7h4.6c.3,0,.6,.3,.6,.7v.4c0,.4,-.3,.7,-.6,.7h-4.6c-.2,0,-.3,-.1,-.5,-.2l-.4,.5h.7Z" class="ga_32"/>
<path d="M835.1,353.4v.7H837c1,0,1.8,-.8,1.8,-1.8v-8.8c0,-1,-.8,-1.8,-1.8,-1.8h-1.8c-.3,0,-.5,.2,-.7,.4c-.1,.2,-.1,.5,.1,.7c.1,.1,.1,.3,.1,.4v.4c0,.4,-.3,.7,-.6,.7h-4.6c-.2,0,-.3,-.1,-.5,-.2c-.2,-.2,-.4,-.2,-.7,-.1c-.2,.1,-.4,.3,-.4,.6v6.6c0,.3,.2,.5,.4,.6c.3,.1,.5,.1,.7,-.1c.2,-.1,.3,-.2,.5,-.2h4.6c.3,0,.6,.3,.6,.7v.4c0,.1,0,.3,-.1,.4c-.2,.2,-.2,.5,-.1,.7c.1,.3,.3,.4,.6,.4v-.7l.5,.4c.3,-.3,.5,-.7,.5,-1.2v-.4c0,-1.1,-.9,-2.1,-2,-2.1h-4.6c-.5,0,-1,.2,-1.4,.6l.5,.5h.7v-6.6h-.7l-.5,.5c.4,.3,.9,.5,1.4,.5h4.6c1.1,0,2,-.9,2,-2v-.4c0,-.4,-.2,-.9,-.4,-1.2l-.5,.4v.7H837c.2,0,.4,.2,.4,.4v8.8c0,.2,-.2,.4,-.4,.4h-1.9v.7l.5,.4Z" class="ga_32"/>
<path d="M828.6,344.4h.7c0,-1.2,-.9,-2.1,-2.1,-2.1h-.6c-1.2,0,-2.1,.9,-2.1,2.1v7c0,1.2,.9,2.1,2.1,2.1h.6c1.2,0,2.1,-.9,2.1,-2.1v-7h-1.4v7c0,.4,-.3,.7,-.7,.7h-.6c-.4,0,-.7,-.3,-.7,-.7v-7c0,-.4,.3,-.7,.7,-.7h.6c.4,0,.7,.3,.7,.7Z" class="ga_32"/>
<path d="M814.2,340.3h3.2c.5,0,.9,-.2,.9,-.6v-.1c0,-.3,-.4,-.6,-.9,-.6h-3.2c-.2,0,-.5,.1,-.6,.2v.1c0,.1,-.2,.3,-.3,.4c0,.4,.4,.6,.9,.6Z" class="ga_32"/>
<path d="M813.7,330.5c.2,.1,.4,.1,.7,.1h3.3c.5,0,.9,-.2,.9,-.6v-.1c0,-.4,-.4,-.7,-.9,-.7h-3.3c-.6,0,-1,.3,-1,.7c.2,.1,.3,.3,.3,.5Z" class="ga_32"/>
<path d="M819.5,340.3h1.8c.6,0,1.1,-.5,1.1,-1.1v-8.7c0,-.7,-.5,-1.2,-1.1,-1.2h-1.7c.1,.3,.2,.5,.2,.8v.4c0,.8,-.6,1.4,-1.3,1.4h-4.3c-.4,0,-.7,-.2,-.9,-.4v6.6c.2,-.2,.5,-.4,.9,-.4h4.3c.7,0,1.3,.6,1.3,1.4v.4c0,.3,-.1,.6,-.3,.8Z" class="ga_32"/>
<path d="M812,332c0,-.6,-.5,-1,-1.1,-1c-.6,0,-1.1,.4,-1.1,1v5.6c0,.6,.5,1.1,1.1,1.1c.6,0,1.1,-.5,1.1,-1.1Z" class="ga_32"/>
<path d="M813.8,353.9v.7h4.5c1.1,0,2.1,-.9,2.1,-2v-.4c0,-1.1,-1,-2.1,-2.1,-2.1h-4.5c-.6,0,-1.1,.2,-1.4,.6c-.2,.1,-.2,.3,-.2,.5v.2c0,.2,-.1,.4,-.3,.5c-.1,.2,-.2,.3,-.2,.5v.2c0,1.1,.9,2,2.1,2v-1.4c-.4,0,-.7,-.3,-.7,-.6v-.2h-.7l.5,.5c.4,-.3,.6,-.9,.6,-1.5v-.2h-.7l.5,.5c.1,-.1,.3,-.2,.5,-.2h4.5c.4,0,.7,.3,.7,.7v.4c0,.3,-.3,.6,-.7,.6h-4.5Z" class="ga_32"/>
<path d="M812.8,344.6l-.4,.5c.3,.3,.8,.5,1.4,.5h4.5c1.1,0,2.1,-.9,2.1,-2v-.4c0,-1.1,-1,-2,-2.1,-2h-4.5c-1.2,0,-2.1,.9,-2.1,2v.2c0,.2,.1,.3,.2,.5c.2,.1,.3,.3,.3,.5v.2c0,.2,0,.4,.2,.5l.4,-.5h.7v-.2c0,-.6,-.2,-1.2,-.6,-1.5l-.5,.5h.7v-.2c0,-.4,.3,-.7,.7,-.7h4.5c.4,0,.7,.3,.7,.7v.4c0,.4,-.3,.7,-.7,.7h-4.5c-.2,0,-.4,-.1,-.5,-.2l-.5,.5h.7Z" class="ga_32"/>
<path d="M819.4,353.4v.7h1.9c1,0,1.8,-.8,1.8,-1.8v-8.8c0,-1,-.8,-1.8,-1.8,-1.8h-1.9c-.2,0,-.5,.2,-.6,.4c-.1,.2,-.1,.5,.1,.7c0,.1,.1,.3,.1,.4v.4c0,.4,-.3,.7,-.7,.7h-4.5c-.2,0,-.4,-.1,-.5,-.2c-.2,-.2,-.5,-.2,-.7,-.1c-.3,.1,-.4,.3,-.4,.6v6.6c0,.3,.1,.5,.4,.6c.2,.1,.5,.1,.7,-.1c.1,-.1,.3,-.2,.5,-.2h4.5c.4,0,.7,.3,.7,.7v.4c0,.1,-.1,.3,-.2,.4c-.1,.2,-.2,.5,-.1,.7c.2,.3,.4,.4,.7,.4v-.7l.5,.4c.3,-.3,.5,-.7,.5,-1.2v-.4c0,-1.1,-1,-2.1,-2.1,-2.1h-4.5c-.6,0,-1.1,.2,-1.4,.6l.4,.5h.7v-6.6h-.7l-.4,.5c.3,.3,.8,.5,1.4,.5h4.5c1.1,0,2.1,-.9,2.1,-2v-.4c0,-.4,-.2,-.9,-.4,-1.2l-.6,.4v.7h1.9c.2,0,.4,.2,.4,.4v8.8c0,.2,-.2,.4,-.4,.4h-1.9v.7l.5,.4Z" class="ga_32"/>
<path d="M812.8,344.4h.7c0,-1.2,-.9,-2.1,-2,-2.1h-.7c-1.1,0,-2,.9,-2,2.1v7c0,1.2,.9,2.1,2,2.1h.7c1.1,0,2,-.9,2,-2.1v-7h-1.3v7c0,.4,-.3,.7,-.7,.7h-.7c-.4,0,-.7,-.3,-.7,-.7v-7c0,-.4,.3,-.7,.7,-.7h.7c.4,0,.7,.3,.7,.7Z" class="ga_32"/>
<path d="M798,341.1v.7h4.6c1.1,0,2,-.9,2,-2v-.4c0,-1.1,-.9,-2,-2,-2H798c-.5,0,-1,.2,-1.4,.5c-.1,.1,-.2,.3,-.2,.5v.3c0,.2,-.1,.3,-.2,.4c-.1,.2,-.2,.4,-.2,.6v.1c0,1.1,.9,2,2,2v-1.3c-.4,0,-.7,-.3,-.7,-.7v-.1h-.6l.4,.5c.4,-.4,.7,-.9,.7,-1.5v-.3h-.7l.5,.5c.1,-.1,.2,-.2,.4,-.2h4.6c.3,0,.6,.3,.6,.7v.4c0,.4,-.3,.7,-.6,.7H798Z" class="ga_32"/>
<path d="M797.1,331.8l-.5,.5c.4,.4,.9,.6,1.4,.6h4.6c1.1,0,2,-1,2,-2.1v-.4c0,-1.1,-.9,-2,-2,-2H798c-1.1,0,-2,.9,-2,2v.2c0,.2,.1,.4,.2,.5c.1,.1,.2,.3,.2,.5v.2c0,.2,.1,.4,.2,.5l.5,-.5h.7v-.2c0,-.6,-.3,-1.2,-.7,-1.5l-.4,.5h.6v-.2c0,-.3,.3,-.6,.7,-.6h4.6c.3,0,.6,.3,.6,.6v.4c0,.4,-.3,.7,-.6,.7H798c-.2,0,-.3,-.1,-.4,-.2l-.5,.5h.7Z" class="ga_32"/>
<path d="M803.6,340.6v.7h1.9c1,0,1.8,-.8,1.8,-1.8v-8.7c0,-1,-.8,-1.9,-1.8,-1.9h-1.8c-.3,0,-.5,.2,-.6,.4c-.2,.3,-.1,.5,0,.7c.1,.2,.1,.3,.1,.4v.4c0,.4,-.3,.7,-.6,.7H798c-.2,0,-.3,-.1,-.4,-.2c-.2,-.2,-.5,-.2,-.8,-.1c-.2,.1,-.4,.3,-.4,.6v6.6c0,.3,.2,.5,.4,.6c.3,.1,.6,.1,.8,-.1c.1,-.1,.2,-.2,.4,-.2h4.6c.3,0,.6,.3,.6,.7v.4c0,.1,0,.3,-.1,.4c-.2,.2,-.2,.5,-.1,.7c.1,.3,.4,.4,.6,.4v-.7l.6,.5c.2,-.4,.4,-.8,.4,-1.3v-.4c0,-1.1,-.9,-2,-2,-2H798c-.5,0,-1,.2,-1.4,.5l.5,.5h.7v-6.6h-.7l-.5,.5c.4,.4,.9,.6,1.4,.6h4.6c1.1,0,2,-1,2,-2.1v-.4c0,-.4,-.1,-.8,-.4,-1.2l-.5,.4v.7h1.8c.3,0,.5,.2,.5,.5v8.7c0,.3,-.2,.4,-.5,.4h-1.9v.7l.6,.5Z" class="ga_32"/>
<path d="M797.1,331.6h.7c0,-1.1,-.9,-2.1,-2,-2.1h-.7c-1.2,0,-2.1,1,-2.1,2.1v7.1c0,1.1,.9,2,2.1,2h.7c1.1,0,2,-.9,2,-2v-7.1h-1.4v7.1c0,.3,-.3,.6,-.6,.6h-.7c-.4,0,-.7,-.3,-.7,-.6v-7.1c0,-.4,.3,-.7,.7,-.7h.7c.3,0,.6,.3,.6,.7Z" class="ga_32"/>
<path d="M798,353.9v.7h4.6c1.1,0,2,-.9,2,-2v-.4c0,-1.1,-.9,-2.1,-2,-2.1H798c-.5,0,-1,.2,-1.4,.6c-.1,.1,-.2,.3,-.2,.5v.2c0,.2,-.1,.4,-.2,.5c-.1,.2,-.2,.3,-.2,.5v.2c0,1.1,.9,2,2,2v-1.4c-.4,0,-.7,-.3,-.7,-.6v-.2h-.6l.4,.5c.4,-.3,.7,-.9,.7,-1.5v-.2h-.7l.5,.5c.1,-.1,.2,-.2,.4,-.2h4.6c.3,0,.6,.3,.6,.7v.4c0,.3,-.3,.6,-.6,.6H798Z" class="ga_32"/>
<path d="M797.1,344.6l-.5,.5c.4,.3,.9,.5,1.4,.5h4.6c1.1,0,2,-.9,2,-2v-.4c0,-1.1,-.9,-2,-2,-2H798c-1.1,0,-2,.9,-2,2v.2c0,.2,.1,.3,.2,.5c.1,.1,.2,.3,.2,.5v.2c0,.2,.1,.4,.2,.5l.5,-.5h.7v-.2c0,-.6,-.3,-1.2,-.7,-1.5l-.4,.5h.6v-.2c0,-.4,.3,-.7,.7,-.7h4.6c.3,0,.6,.3,.6,.7v.4c0,.4,-.3,.7,-.6,.7H798c-.2,0,-.3,-.1,-.4,-.2l-.5,.5h.7Z" class="ga_32"/>
<path d="M803.6,353.4v.7h1.9c1,0,1.8,-.8,1.8,-1.8v-8.8c0,-1,-.8,-1.8,-1.8,-1.8h-1.8c-.3,0,-.5,.2,-.6,.4c-.2,.2,-.1,.5,0,.7c.1,.1,.1,.3,.1,.4v.4c0,.4,-.3,.7,-.6,.7H798c-.2,0,-.3,-.1,-.4,-.2c-.2,-.2,-.5,-.2,-.8,-.1c-.2,.1,-.4,.3,-.4,.6v6.6c0,.3,.2,.5,.4,.6c.3,.1,.6,.1,.8,-.1c.1,-.1,.2,-.2,.4,-.2h4.6c.3,0,.6,.3,.6,.7v.4c0,.1,0,.3,-.1,.4c-.2,.2,-.2,.5,-.1,.7c.1,.3,.4,.4,.6,.4v-.7l.6,.4c.2,-.3,.4,-.7,.4,-1.2v-.4c0,-1.1,-.9,-2.1,-2,-2.1H798c-.5,0,-1,.2,-1.4,.6l.5,.5h.7v-6.6h-.7l-.5,.5c.4,.3,.9,.5,1.4,.5h4.6c1.1,0,2,-.9,2,-2v-.4c0,-.4,-.1,-.9,-.4,-1.2l-.5,.4v.7h1.8c.3,0,.5,.2,.5,.4v8.8c0,.2,-.2,.4,-.5,.4h-1.9v.7l.6,.4Z" class="ga_32"/>
<path d="M797.1,344.4h.7c0,-1.2,-.9,-2.1,-2,-2.1h-.7c-1.2,0,-2.1,.9,-2.1,2.1v7c0,1.2,.9,2.1,2.1,2.1h.7c1.1,0,2,-.9,2,-2.1v-7h-1.4v7c0,.4,-.3,.7,-.6,.7h-.7c-.4,0,-.7,-.3,-.7,-.7v-7c0,-.4,.3,-.7,.7,-.7h.7c.3,0,.6,.3,.6,.7Z" class="ga_32"/>
<image clip-path="url(#ci_32)" preserveAspectRatio="none" x="681" y="361" width="89" height="30" xlink:href="img/19.jpg"/>
<image clip-path="url(#cj_32)" preserveAspectRatio="none" x="690" y="290" width="89" height="72" xlink:href="img/20.jpg"/>
<image clip-path="url(#ck_32)" preserveAspectRatio="none" x="690" y="383" width="80" height="3" xlink:href="img/21.jpg"/>
<image clip-path="url(#cl_32)" preserveAspectRatio="none" x="768" y="361" width="11" height="31" xlink:href="img/22.jpg"/>
<image clip-path="url(#cm_32)" preserveAspectRatio="none" x="769" y="290" width="10" height="72" xlink:href="img/23.jpg"/>
<image clip-path="url(#cn_32)" preserveAspectRatio="none" x="768" y="383" width="11" height="3" xlink:href="img/24.jpg"/>
<image clip-path="url(#co_32)" preserveAspectRatio="none" x="775" y="311" width="4" height="68" xlink:href="img/25.jpg"/>
<image clip-path="url(#cp_32)" preserveAspectRatio="none" x="775" y="378" width="4" height="8" xlink:href="img/26.jpg"/>
<path d="M706.3,302.3c-10.1,0,-18.3,8.2,-18.3,18.3v64.2h79V320.6c0,-10.1,-8.2,-18.3,-18.3,-18.3Z" class="g3_32"/>
<path d="M687.9,385.7H767v-7.2H687.9v7.2Z" class="g9_32"/>
<path d="M693.3,360.7h2.4c.2,0,.3,-.1,.3,-.3c0,-.2,-.1,-.4,-.3,-.4h-2.4c-.2,0,-.3,.2,-.3,.4c0,.2,.1,.3,.3,.3m3.9,0h2.3c.3,0,.4,-.1,.4,-.3c0,-.2,-.1,-.4,-.4,-.4h-2.3c-.2,0,-.4,.2,-.4,.4c0,.2,.2,.3,.4,.3m3.9,0h2.3c.2,0,.4,-.1,.4,-.3c0,-.2,-.2,-.4,-.4,-.4h-2.3c-.2,0,-.4,.2,-.4,.4c0,.2,.2,.3,.4,.3m3.9,0h2.3c.2,0,.4,-.1,.4,-.3c0,-.2,-.2,-.4,-.4,-.4H705c-.2,0,-.4,.2,-.4,.4c0,.2,.2,.3,.4,.3m3.9,0h2.3c.2,0,.4,-.1,.4,-.3c0,-.2,-.2,-.4,-.4,-.4h-2.3c-.2,0,-.4,.2,-.4,.4c0,.2,.2,.3,.4,.3m3.9,0h2.3c.2,0,.4,-.1,.4,-.3c0,-.2,-.2,-.4,-.4,-.4h-2.3c-.3,0,-.4,.2,-.4,.4c0,.2,.1,.3,.4,.3m3.8,0H719c.2,0,.3,-.1,.3,-.3c0,-.2,-.1,-.4,-.3,-.4h-2.4c-.2,0,-.3,.2,-.3,.4c0,.2,.1,.3,.3,.3m3.9,0h2.3c.2,0,.4,-.1,.4,-.3c0,-.2,-.2,-.4,-.4,-.4h-2.3c-.2,0,-.4,.2,-.4,.4c0,.2,.2,.3,.4,.3m3.9,0h2.3c.2,0,.4,-.1,.4,-.3c0,-.2,-.2,-.4,-.4,-.4h-2.3c-.2,0,-.4,.2,-.4,.4c0,.2,.2,.3,.4,.3m3.9,0h2.3c.2,0,.4,-.1,.4,-.3c0,-.2,-.2,-.4,-.4,-.4h-2.3c-.2,0,-.4,.2,-.4,.4c0,.2,.2,.3,.4,.3m3.9,0h2.3c.2,0,.4,-.1,.4,-.3c0,-.2,-.2,-.4,-.4,-.4h-2.3c-.2,0,-.4,.2,-.4,.4c0,.2,.2,.3,.4,.3m3.8,0h2.4c.2,0,.3,-.1,.3,-.3c0,-.2,-.1,-.4,-.3,-.4H736c-.2,0,-.3,.2,-.3,.4c0,.2,.1,.3,.3,.3m3.9,0h2.3c.3,0,.4,-.1,.4,-.3c0,-.2,-.1,-.4,-.4,-.4h-2.3c-.2,0,-.4,.2,-.4,.4c0,.2,.2,.3,.4,.3m3.9,0h2.3c.2,0,.4,-.1,.4,-.3c0,-.2,-.2,-.4,-.4,-.4h-2.3c-.2,0,-.4,.2,-.4,.4c0,.2,.2,.3,.4,.3m3.9,0H750c.2,0,.4,-.1,.4,-.3c0,-.2,-.2,-.4,-.4,-.4h-2.3c-.2,0,-.4,.2,-.4,.4c0,.2,.2,.3,.4,.3m3.9,0h2.3c.2,0,.4,-.1,.4,-.3c0,-.2,-.2,-.4,-.4,-.4h-2.3c-.2,0,-.4,.2,-.4,.4c0,.2,.2,.3,.4,.3m3.9,0h2.3c.2,0,.4,-.1,.4,-.3c0,-.2,-.2,-.4,-.4,-.4h-2.3c-.3,0,-.4,.2,-.4,.4c0,.2,.1,.3,.4,.3m3.8,0h2.4c.2,0,.3,-.1,.3,-.3c0,-.2,-.1,-.4,-.3,-.4h-2.4c-.2,0,-.3,.2,-.3,.4c0,.2,.1,.3,.3,.3Z" class="gb_32"/>
<path d="M740.8,324.3H743c.2,0,.4,-.1,.4,-.3c0,-.2,-.2,-.4,-.4,-.4h-2.2c-.2,0,-.4,.2,-.4,.4c0,.2,.2,.3,.4,.3m3.7,0h2.3c.2,0,.3,-.1,.3,-.3c0,-.2,-.1,-.4,-.3,-.4h-2.3c-.2,0,-.4,.2,-.4,.4c0,.2,.2,.3,.4,.3m3.7,0h2.3c.2,0,.4,-.1,.4,-.3c0,-.2,-.2,-.4,-.4,-.4h-2.3c-.2,0,-.4,.2,-.4,.4c0,.2,.2,.3,.4,.3m3.7,0h2.3c.2,0,.4,-.1,.4,-.3c0,-.2,-.2,-.4,-.4,-.4h-2.3c-.2,0,-.3,.2,-.3,.4c0,.2,.1,.3,.3,.3m3.8,0h2.2c.2,0,.4,-.1,.4,-.3c0,-.2,-.2,-.4,-.4,-.4h-2.2c-.2,0,-.4,.2,-.4,.4c0,.2,.2,.3,.4,.3m3.7,0h2.2c.2,0,.4,-.1,.4,-.3c0,-.2,-.2,-.4,-.4,-.4h-2.2c-.2,0,-.4,.2,-.4,.4c0,.2,.2,.3,.4,.3Z" class="gb_32"/>
<path d="M693.4,324.3h2.2c.2,0,.4,-.1,.4,-.3c0,-.2,-.2,-.4,-.4,-.4h-2.2c-.2,0,-.4,.2,-.4,.4c0,.2,.2,.3,.4,.3m3.7,0h2.2c.2,0,.4,-.1,.4,-.3c0,-.2,-.2,-.4,-.4,-.4h-2.2c-.2,0,-.4,.2,-.4,.4c0,.2,.2,.3,.4,.3m3.7,0h2.3c.2,0,.3,-.1,.3,-.3c0,-.2,-.1,-.4,-.3,-.4h-2.3c-.2,0,-.4,.2,-.4,.4c0,.2,.2,.3,.4,.3m3.7,0h2.3c.2,0,.4,-.1,.4,-.3c0,-.2,-.2,-.4,-.4,-.4h-2.3c-.2,0,-.4,.2,-.4,.4c0,.2,.2,.3,.4,.3m3.8,0h2.2c.2,0,.4,-.1,.4,-.3c0,-.2,-.2,-.4,-.4,-.4h-2.2c-.3,0,-.4,.2,-.4,.4c0,.2,.1,.3,.4,.3m3.7,0h2.2c.2,0,.4,-.1,.4,-.3c0,-.2,-.2,-.4,-.4,-.4H712c-.2,0,-.4,.2,-.4,.4c0,.2,.2,.3,.4,.3Z" class="gb_32"/>
<path d="M718.2,327v-.8c-1.1,0,-2,.9,-2,2.1v29.3h22.9V328.3c0,-1.2,-.9,-2.1,-2.1,-2.1H718.2v1.5H737c.3,0,.6,.3,.6,.6v27.8H717.7V328.3c0,-.3,.2,-.6,.5,-.6Z" class="gb_32"/>
<path d="M720.2,321.9v-.3c-.5,0,-1,.4,-1,1v4.6h16.9v-4.6c0,-.6,-.5,-1,-1,-1H720.2v.7h14.9c.1,0,.3,.1,.3,.3v3.9H719.9v-3.9c0,-.2,.1,-.3,.3,-.3Z" class="gb_32"/>
<path d="M725.1,349h-.4v7.7l.1,.2l.3,.1h5.2l.2,-.1l.1,-.2V349l-.1,-.2l-.2,-.1h-5.2l-.3,.1l-.1,.2h.4v.4h4.8v6.9h-4.5V349h-.3v.4Z" class="gb_32"/>
<path d="M732,349h-.4v4.1l.1,.3l.3,.1h4.1l.3,-.1l.1,-.3V349l-.1,-.2l-.3,-.1H732l-.3,.1l-.1,.2h.4v.4h3.8v3.4h-3.4V349H732v.4Z" class="gb_32"/>
<path d="M719.2,349h-.4v4.1l.1,.3l.3,.1h4.1l.3,-.1l.1,-.3V349l-.1,-.2l-.3,-.1h-4.1l-.3,.1l-.1,.2h.4v.4H723v3.4h-3.4V349h-.4v.4Z" class="gb_32"/>
<path d="M727.3,353h.8v-1h-.8v1Z" class="gb_32"/>
<path d="M732,342.7h-.4v4.1l.1,.3l.3,.1h4.1l.3,-.1l.1,-.3v-4.1l-.1,-.2l-.3,-.2H732l-.3,.2l-.1,.2h.4v.4h3.8v3.3h-3.4v-3.7H732v.4Z" class="gb_32"/>
<path d="M725.6,342.7h-.4v4.1l.1,.3l.3,.1h4.1l.3,-.1l.1,-.3v-4.1l-.1,-.2l-.3,-.2h-4.1l-.3,.2l-.1,.2h.4v.4h3.8v3.3H726v-3.7h-.4v.4Z" class="gb_32"/>
<path d="M719.2,342.7h-.4v4.1l.1,.3l.3,.1h4.1l.3,-.1l.1,-.3v-4.1l-.1,-.2l-.3,-.2h-4.1l-.3,.2l-.1,.2h.4v.4H723v3.3h-3.4v-3.7h-.4v.4Z" class="gb_32"/>
<path d="M732,336.4h-.4v4.1l.1,.3l.3,.1h4.1l.3,-.1l.1,-.3v-4.1l-.1,-.3l-.3,-.1H732l-.3,.1l-.1,.3h.4v.4h3.8v3.3h-3.4v-3.7H732v.4Z" class="gb_32"/>
<path d="M725.6,336.4h-.4v4.1l.1,.3l.3,.1h4.1l.3,-.1l.1,-.3v-4.1l-.1,-.3l-.3,-.1h-4.1l-.3,.1l-.1,.3h.4v.4h3.8v3.3H726v-3.7h-.4v.4Z" class="gb_32"/>
<path d="M719.2,336.4h-.4v4.1l.1,.3l.3,.1h4.1l.3,-.1l.1,-.3v-4.1l-.1,-.3l-.3,-.1h-4.1l-.3,.1l-.1,.3h.4v.4H723v3.3h-3.4v-3.7h-.4v.4Z" class="gb_32"/>
<path d="M732,330.1h-.4v4.1l.1,.3l.3,.1h4.1l.3,-.1l.1,-.3v-4.1l-.1,-.3l-.3,-.1H732l-.3,.1l-.1,.3h.4v.4h3.8v3.3h-3.4v-3.7H732v.4Z" class="gb_32"/>
<path d="M725.6,330.1h-.4v4.1l.1,.3l.3,.1h4.1l.3,-.1l.1,-.3v-4.1l-.1,-.3l-.3,-.1h-4.1l-.3,.1l-.1,.3h.4v.4h3.8v3.3H726v-3.7h-.4v.4Z" class="gb_32"/>
<path d="M719.2,330.1h-.4v4.1l.1,.3l.3,.1h4.1l.3,-.1l.1,-.3v-4.1l-.1,-.3l-.3,-.1h-4.1l-.3,.1l-.1,.3h.4v.4H723v3.3h-3.4v-3.7h-.4v.4Z" class="gb_32"/>
<path d="M722.8,323l-.2,-.1l-.5,.7l-.8,.2l-.2,.1l.1,.3l.5,.6v.8l.1,.3h.2l.8,-.3l.7,.3h.3l.1,-.3l-.1,-.8l.5,-.6l.1,-.3l-.2,-.1l-.8,-.2l-.4,-.7l-.2,-.1l-.2,.1l.2,.1l-.2,.1l.4,.8l.2,.1l.5,.2l-.3,.4l-.1,.1l.1,.6l-.6,-.2h-.1l-.6,.2l.1,-.6l-.1,-.1l-.3,-.4l.5,-.2l.2,-.1l.5,-.8l-.2,-.1l-.2,.1Z" class="gb_32"/>
<path d="M727.6,323l-.2,-.1l-.4,.7l-.8,.2l-.2,.1l.1,.3l.5,.6l-.1,.8l.1,.3h.3l.7,-.3l.8,.3h.2l.1,-.3v-.8l.5,-.6l.1,-.3l-.2,-.1l-.8,-.2l-.5,-.7l-.2,-.1l-.2,.1l.2,.1l-.2,.1l.5,.8l.2,.1l.5,.2l-.3,.4l-.1,.1v.6l-.5,-.2h-.2l-.5,.2l.1,-.6l-.1,-.1l-.4,-.4l.6,-.2l.1,-.1l.5,-.8l-.2,-.1l-.2,.1Z" class="gb_32"/>
<path d="M732.5,323l-.2,-.1l-.4,.7l-.8,.2l-.2,.1v.3l.6,.6l-.1,.8l.1,.3h.2l.8,-.3l.8,.3h.2l.1,-.3l-.1,-.8l.6,-.6v-.3l-.1,-.1l-.9,-.2l-.4,-.7l-.2,-.1l-.2,.1l.2,.1l-.2,.1l.5,.8l.1,.1l.6,.2l-.4,.4v.7l-.5,-.2h-.2l-.5,.2v-.7l-.4,-.4l.6,-.2l.1,-.1l.5,-.8l-.2,-.1l-.2,.1Z" class="gb_32"/>
<path d="M715.2,357.9h24.6c.5,0,.9,-.4,.9,-.9c0,-.5,-.4,-.9,-.9,-.9H715.2c-.5,0,-.9,.4,-.9,.9c0,.5,.4,.9,.9,.9Z" class="gb_32"/>
<path d="M727.5,349v7.3h.3V349Z" class="gb_32"/>
<image clip-path="url(#cq_32)" preserveAspectRatio="none" x="602" y="361" width="80" height="30" xlink:href="img/27.jpg"/>
<image clip-path="url(#cr_32)" preserveAspectRatio="none" x="593" y="290" width="98" height="72" xlink:href="img/28.jpg"/>
<image clip-path="url(#cs_32)" preserveAspectRatio="none" x="602" y="383" width="80" height="3" xlink:href="img/29.jpg"/>
<image clip-path="url(#ct_32)" preserveAspectRatio="none" x="592" y="361" width="11" height="23" xlink:href="img/30.jpg"/>
<image clip-path="url(#cu_32)" preserveAspectRatio="none" x="593" y="290" width="10" height="72" xlink:href="img/31.jpg"/>
<image clip-path="url(#cv_32)" preserveAspectRatio="none" x="592" y="385" width="11" height="7" xlink:href="img/32.jpg"/>
<image clip-path="url(#cw_32)" preserveAspectRatio="none" x="592" y="383" width="11" height="3" xlink:href="img/33.jpg"/>
<image clip-path="url(#cx_32)" preserveAspectRatio="none" x="680" y="361" width="11" height="31" xlink:href="img/34.jpg"/>
<image clip-path="url(#cy_32)" preserveAspectRatio="none" x="681" y="290" width="10" height="72" xlink:href="img/35.jpg"/>
<image clip-path="url(#cz_32)" preserveAspectRatio="none" x="680" y="383" width="11" height="3" xlink:href="img/36.jpg"/>
<image clip-path="url(#c10_32)" preserveAspectRatio="none" x="687" y="311" width="4" height="68" xlink:href="img/37.jpg"/>
<image clip-path="url(#c11_32)" preserveAspectRatio="none" x="687" y="378" width="4" height="8" xlink:href="img/38.jpg"/>
<path d="M618.2,302.3c-10.1,0,-18.3,8.2,-18.3,18.3v64.2h79V320.6c0,-10.1,-8.2,-18.3,-18.3,-18.3Z" class="g3_32"/>
<path d="M599.8,385.7h79.1v-7.2H599.8v7.2Z" class="g9_32"/>
<path d="M606,328.5h2.2c.2,0,.4,-.2,.4,-.4c0,-.2,-.2,-.4,-.4,-.4H606c-.2,0,-.3,.2,-.3,.4c0,.2,.1,.4,.3,.4m3.6,0h2.2c.2,0,.3,-.2,.3,-.4c0,-.2,-.1,-.4,-.3,-.4h-2.2c-.2,0,-.4,.2,-.4,.4c0,.2,.2,.4,.4,.4m3.6,0h2.1c.2,0,.4,-.2,.4,-.4c0,-.2,-.2,-.4,-.4,-.4h-2.1c-.3,0,-.4,.2,-.4,.4c0,.2,.1,.4,.4,.4m3.5,0h2.2c.2,0,.3,-.2,.3,-.4c0,-.2,-.1,-.4,-.3,-.4h-2.2c-.2,0,-.4,.2,-.4,.4c0,.2,.2,.4,.4,.4m3.6,0h2.1c.2,0,.4,-.2,.4,-.4c0,-.2,-.2,-.4,-.4,-.4h-2.1c-.3,0,-.4,.2,-.4,.4c0,.2,.1,.4,.4,.4m3.5,0H626c.2,0,.4,-.2,.4,-.4c0,-.2,-.2,-.4,-.4,-.4h-2.2c-.2,0,-.4,.2,-.4,.4c0,.2,.2,.4,.4,.4m3.6,0h2.1c.2,0,.4,-.2,.4,-.4c0,-.2,-.2,-.4,-.4,-.4h-2.1c-.2,0,-.4,.2,-.4,.4c0,.2,.2,.4,.4,.4Z" class="gc_32"/>
<path d="M606,360.7h2.4c.2,0,.3,-.1,.3,-.3c0,-.2,-.1,-.4,-.3,-.4H606c-.2,0,-.3,.2,-.3,.4c0,.2,.1,.3,.3,.3m3.9,0h2.3c.3,0,.4,-.1,.4,-.3c0,-.2,-.1,-.4,-.4,-.4h-2.3c-.2,0,-.4,.2,-.4,.4c0,.2,.2,.3,.4,.3m3.9,0h2.3c.2,0,.4,-.1,.4,-.3c0,-.2,-.2,-.4,-.4,-.4h-2.3c-.2,0,-.4,.2,-.4,.4c0,.2,.2,.3,.4,.3m3.9,0H620c.2,0,.4,-.1,.4,-.3c0,-.2,-.2,-.4,-.4,-.4h-2.3c-.2,0,-.4,.2,-.4,.4c0,.2,.2,.3,.4,.3m3.9,0h2.3c.2,0,.4,-.1,.4,-.3c0,-.2,-.2,-.4,-.4,-.4h-2.3c-.2,0,-.4,.2,-.4,.4c0,.2,.2,.3,.4,.3m3.9,0h2.3c.2,0,.4,-.1,.4,-.3c0,-.2,-.2,-.4,-.4,-.4h-2.3c-.3,0,-.4,.2,-.4,.4c0,.2,.1,.3,.4,.3m3.8,0h2.4c.2,0,.3,-.1,.3,-.3c0,-.2,-.1,-.4,-.3,-.4h-2.4c-.2,0,-.3,.2,-.3,.4c0,.2,.1,.3,.3,.3m3.9,0h2.3c.3,0,.4,-.1,.4,-.3c0,-.2,-.1,-.4,-.4,-.4h-2.3c-.2,0,-.4,.2,-.4,.4c0,.2,.2,.3,.4,.3m3.9,0h2.3c.2,0,.4,-.1,.4,-.3c0,-.2,-.2,-.4,-.4,-.4h-2.3c-.2,0,-.4,.2,-.4,.4c0,.2,.2,.3,.4,.3m3.9,0h2.3c.2,0,.4,-.1,.4,-.3c0,-.2,-.2,-.4,-.4,-.4H641c-.2,0,-.4,.2,-.4,.4c0,.2,.2,.3,.4,.3m3.9,0h2.3c.2,0,.4,-.1,.4,-.3c0,-.2,-.2,-.4,-.4,-.4h-2.3c-.2,0,-.4,.2,-.4,.4c0,.2,.2,.3,.4,.3m3.8,0h2.4c.2,0,.4,-.1,.4,-.3c0,-.2,-.2,-.4,-.4,-.4h-2.4c-.2,0,-.3,.2,-.3,.4c0,.2,.1,.3,.3,.3m3.9,0H655c.2,0,.3,-.1,.3,-.3c0,-.2,-.1,-.4,-.3,-.4h-2.4c-.2,0,-.4,.2,-.4,.4c0,.2,.2,.3,.4,.3m3.9,0h2.3c.2,0,.4,-.1,.4,-.3c0,-.2,-.2,-.4,-.4,-.4h-2.3c-.2,0,-.4,.2,-.4,.4c0,.2,.2,.3,.4,.3m3.9,0h2.3c.2,0,.4,-.1,.4,-.3c0,-.2,-.2,-.4,-.4,-.4h-2.3c-.2,0,-.4,.2,-.4,.4c0,.2,.2,.3,.4,.3m3.9,0h2.3c.2,0,.4,-.1,.4,-.3c0,-.2,-.2,-.4,-.4,-.4h-2.3c-.2,0,-.4,.2,-.4,.4c0,.2,.2,.3,.4,.3m3.9,0h2.3c.2,0,.4,-.1,.4,-.3c0,-.2,-.2,-.4,-.4,-.4h-2.3c-.3,0,-.4,.2,-.4,.4c0,.2,.1,.3,.4,.3m3.8,0h2.4c.2,0,.3,-.1,.3,-.3c0,-.2,-.1,-.4,-.3,-.4H672c-.2,0,-.3,.2,-.3,.4c0,.2,.1,.3,.3,.3Z" class="gc_32"/>
<path d="M652.8,328.5h2.3c.2,0,.4,-.2,.4,-.4c0,-.2,-.2,-.4,-.4,-.4h-2.3c-.2,0,-.4,.2,-.4,.4c0,.2,.2,.4,.4,.4m3.9,0H659c.2,0,.4,-.2,.4,-.4c0,-.2,-.2,-.4,-.4,-.4h-2.3c-.2,0,-.4,.2,-.4,.4c0,.2,.2,.4,.4,.4m3.8,0h2.3c.2,0,.4,-.2,.4,-.4c0,-.2,-.2,-.4,-.4,-.4h-2.3c-.2,0,-.4,.2,-.4,.4c0,.2,.2,.4,.4,.4m3.9,0h2.3c.2,0,.3,-.2,.3,-.4c0,-.2,-.1,-.4,-.3,-.4h-2.3c-.2,0,-.4,.2,-.4,.4c0,.2,.2,.4,.4,.4m3.8,0h2.3c.2,0,.4,-.2,.4,-.4c0,-.2,-.2,-.4,-.4,-.4h-2.3c-.2,0,-.4,.2,-.4,.4c0,.2,.2,.4,.4,.4m3.9,0h2.3c.2,0,.3,-.2,.3,-.4c0,-.2,-.1,-.4,-.3,-.4h-2.3c-.3,0,-.4,.2,-.4,.4c0,.2,.1,.4,.4,.4Z" class="gc_32"/>
<path d="M649.4,340.2c0,3.3,-.1,6.7,0,10.1c.1,3.1,-1.4,5.4,-4.5,6.7c-3.3,1.5,-6.5,1.2,-9.5,-.6c-.4,-.3,-.9,-.6,-1.1,-.9c-.2,-.2,-.1,-.7,0,-.9c.2,-.2,.7,-.1,1,-.1c.2,.1,.4,.3,.6,.5c3.1,2.3,8,2,10.5,-.7c1.1,-1.1,1.5,-2.4,1.5,-3.9c0,-6.8,-.1,-13.6,0,-20.4c0,-2.4,-1.1,-4.3,-3.6,-5.5c-2.6,-1.2,-5.3,-1,-7.8,.4c-.3,.2,-.6,.4,-.9,.7c-.4,.3,-.9,.4,-1.2,0c-.2,-.3,-.1,-.8,.2,-1.1c1.1,-1,2.5,-1.6,4.1,-1.9c4.7,-1,9.6,1.5,10.5,5.5c.2,.5,.2,1.1,.2,1.6c0,3.5,0,7,0,10.5Z" class="gc_32"/>
<path d="M634.3,332.3c-1.7,-.3,-2.2,-1.4,-1.5,-3c.5,-1,1.3,-1.5,2.4,-1.8c1.5,-.5,3.2,-.6,4.7,-.1c2,.6,3.2,2.5,3,4.5c-.2,2,-1.8,3.7,-3.7,3.9c-2.1,.2,-3.9,-.9,-4.7,-2.8c-.1,-.2,-.1,-.5,-.2,-.7m7.1,0c-1.4,-.5,-1.6,-.6,-2.3,-1.9c-.1,-.2,-.3,-.5,-.4,-.8c-.7,-.9,-1.4,-1,-2.2,-.2c-.9,.9,-1.1,2.2,-.6,3.3c.5,1.1,1.5,1.8,2.8,1.7c1.3,0,2.2,-.7,2.7,-2.1m.1,-1.6c.1,-1,-1.8,-1.7,-1.8,-1.7c.5,1.8,1.7,2.2,1.8,1.7M635,329c-1.9,.8,-.9,2.2,-.8,1.9c0,0,.2,-1.2,.8,-1.9Z" class="gc_32"/>
<path d="M634.3,341.6c-1.7,-.3,-2.2,-1.4,-1.5,-3c.5,-1,1.3,-1.5,2.4,-1.8c1.5,-.5,3.2,-.5,4.7,0c2,.6,3.2,2.4,3,4.5c-.2,1.9,-1.8,3.6,-3.7,3.8c-2.1,.3,-3.9,-.8,-4.7,-2.8c-.1,-.2,-.1,-.4,-.2,-.7m7.1,0c-1.4,-.4,-1.6,-.6,-2.3,-1.8c-.1,-.3,-.3,-.6,-.4,-.9c-.7,-.9,-1.4,-1,-2.2,-.2c-.9,.9,-1.1,2.2,-.6,3.3c.5,1.1,1.5,1.8,2.8,1.8c1.3,-.1,2.2,-.8,2.7,-2.2m.1,-1.6c.1,-1,-1.8,-1.6,-1.8,-1.6c.5,1.7,1.7,2.2,1.8,1.6M635,338.3c-1.9,.8,-.9,2.3,-.8,1.9c0,0,.2,-1.2,.8,-1.9Z" class="gc_32"/>
<path d="M634.3,350.7c-1.7,-.3,-2.2,-1.4,-1.5,-3c.5,-1,1.3,-1.5,2.4,-1.8c1.5,-.5,3.2,-.5,4.7,0c2,.6,3.2,2.4,3,4.5c-.2,1.9,-1.8,3.6,-3.7,3.8c-2.1,.3,-3.9,-.8,-4.7,-2.8c-.1,-.2,-.1,-.4,-.2,-.7m7.1,0c-1.4,-.4,-1.6,-.6,-2.3,-1.8c-.1,-.3,-.3,-.6,-.4,-.9c-.7,-.9,-1.4,-1,-2.2,-.2c-.9,.9,-1.1,2.2,-.6,3.3c.5,1.1,1.5,1.8,2.8,1.8c1.3,-.1,2.2,-.8,2.7,-2.2m.1,-1.6c.1,-1,-1.8,-1.6,-1.8,-1.6c.5,1.7,1.7,2.2,1.8,1.6M635,347.4c-1.9,.8,-.9,2.3,-.8,1.9c0,0,.2,-1.2,.8,-1.9Z" class="gc_32"/>
<path d="M630.5,345.2l-5.3,-5.5c-.2,-.3,-.6,-.3,-.9,0c-.2,.2,-.2,.6,0,.8l5.3,5.6c.2,.2,.6,.2,.8,0c.3,-.2,.3,-.6,.1,-.9Z" class="gc_32"/>
<path d="M630.5,352.9l-5.3,5.5c-.2,.2,-.6,.3,-.9,0c-.2,-.2,-.2,-.6,0,-.9l5.3,-5.5c.2,-.3,.6,-.3,.8,0c.3,.2,.3,.6,.1,.9Z" class="gc_32"/>
<path d="M629.3,347.2L622,345.8c-.3,-.1,-.7,.2,-.7,.5c-.1,.3,.1,.7,.5,.7l7.2,1.4c.4,.1,.7,-.1,.7,-.5c.1,-.3,-.1,-.6,-.4,-.7Z" class="gc_32"/>
<path d="M629.3,350.9l-7.3,1.4c-.3,0,-.7,-.2,-.7,-.5c-.1,-.4,.1,-.7,.5,-.8l7.2,-1.4c.4,0,.7,.2,.7,.5c.1,.4,-.1,.7,-.4,.8Z" class="gc_32"/>
<path d="M890,1286.2h19.4V0H890V1286.2Z" class="g3_32"/>
</svg>