<?xml version="1.0" encoding="UTF-8" standalone="no"?>
<!DOCTYPE svg PUBLIC "-//W3C//DTD SVG 1.1//EN"
"http://www.w3.org/Graphics/SVG/1.1/DTD/svg11.dtd">
<svg viewBox="0 0 909 1286" version="1.1" xmlns="http://www.w3.org/2000/svg" xmlns:xlink="http://www.w3.org/1999/xlink">
<defs>
<clipPath id="c0_20"><path d="M324.8,106.3V0H431.1V106.3Z"/></clipPath>
<clipPath id="c1_20"><path d="M430.9,106.3V0H537.6V106.3Z"/></clipPath>
<clipPath id="c2_20"><path d="M537.3,106.3V0H643.9V106.3Z"/></clipPath>
<clipPath id="c3_20"><path d="M643.6,106.3V0H750.2V106.3Z"/></clipPath>
<clipPath id="c4_20"><path d="M749.9,106.3V0H856.6V42.2H838.7V54.9h17.9v51.4Z"/></clipPath>
<clipPath id="c5_20"><path d="M866.8,265.6V246.3H856.4V54.9h11.5V42.2H856.4V0h53V265.6Z"/></clipPath>
<clipPath id="c6_20"><path d="M324.8,212.5V106.1H431.1V212.5Z"/></clipPath>
<clipPath id="c7_20"><path d="M324.8,318.5V212.2H431.1v34.1H417v72.2Z"/></clipPath>
<clipPath id="c8_20"><path d="M430.9,246.3V212.2H697v34.1Z"/></clipPath>
<clipPath id="c9_20"><path d="M696.8,246.3V212.2H856.6v34.1Z"/></clipPath>
<clipPath id="ca_20"><path d="M866.8,318.5V265.4h42.6v53.1Z"/></clipPath>
<clipPath id="cb_20"><path d="M838.7,54.9V42.2h29.2V54.9Z"/></clipPath>
<clipPath id="cc_20"><path d="M0,1242.9V0H909.4V1242.9Z"/></clipPath>
<clipPath id="cd_20"><path d="M417,347.5v-5.1h88.1v5.1Zm0,-7.4V318.5h88.1v21.6Z"/></clipPath>
<clipPath id="ce_20"><path d="M417,318.5V246.3h88.1v72.2Z"/></clipPath>
<clipPath id="cf_20"><path d="M417,342.4v-2.3h88.1v2.3Z"/></clipPath>
<clipPath id="cg_20"><path d="M778.7,347.5v-5.1h87.4v-2.3h-11V318.5h11.7v29Z"/></clipPath>
<clipPath id="ch_20"><path d="M855.1,318.5V277.3c0,-3.8,-1.2,-7.4,-3.3,-10.4v-2.6h-2.2C846.3,261,841.8,259,836.8,259H794.4c-5,0,-9.5,2,-12.8,5.3h-2.5v3c-.2,.2,-.3,.4,-.4,.6V246.3h88.1v72.2Z"/></clipPath>
<clipPath id="ci_20"><path d="M855.1,342.4v-2.3h11v2.3Z"/></clipPath>
<clipPath id="cj_20"><path d="M779.1,267.3v-3h2.5c-1,.9,-1.8,1.9,-2.5,3Zm72.7,-.4c-.6,-1,-1.4,-1.8,-2.2,-2.6h2.2v2.6Z"/></clipPath>
<clipPath id="ck_20"><path d="M690.8,347.5v-5.1h78.6v5.1ZM767,340.1V318.5h2.4v21.6Z"/></clipPath>
<clipPath id="cl_20"><path d="M767,318.5V277.3C767,267.2,758.8,259,748.7,259H706.3c-6.5,0,-12.3,3.5,-15.5,8.7V246.3h78.6v72.2Z"/></clipPath>
<clipPath id="cm_20"><path d="M767,342.4v-2.3h2.4v2.3Z"/></clipPath>
<clipPath id="cn_20"><path d="M769.4,347.5v-5.1h9.3v5.1Zm0,-7.4V318.5h6.7v16.7H776v4.9Z"/></clipPath>
<clipPath id="co_20"><path d="M769.4,318.5V246.3h9.3v21.6c-1.7,2.8,-2.6,6,-2.6,9.4v41.2Z"/></clipPath>
<clipPath id="cp_20"><path d="M769.4,342.4v-2.3H776v2.3Z"/></clipPath>
<clipPath id="cq_20"><path d="M776.1,335.2V277.3c0,-3.4,.9,-6.6,2.6,-9.4v67.3Z"/></clipPath>
<clipPath id="cr_20"><path d="M776,342.4v-7.2h2.7v7.2Z"/></clipPath>
<clipPath id="cs_20"><path d="M602.5,347.5v-5.1h78.8v5.1Zm76.6,-7.4V318.5h2.2v21.6Z"/></clipPath>
<clipPath id="ct_20"><path d="M679.1,318.5V277.3c0,-10.1,-8.2,-18.3,-18.3,-18.3H618.4c-6.8,0,-12.8,3.7,-15.9,9.3v-22h78.8v72.2Z"/></clipPath>
<clipPath id="cu_20"><path d="M679.1,342.4v-2.3h2.2v2.3Z"/></clipPath>
<clipPath id="cv_20"><path d="M681.3,347.5v-5.1h9.5v5.1Zm0,-7.4V318.5H688v16.7h-.1v4.9Z"/></clipPath>
<clipPath id="cw_20"><path d="M681.3,318.5V246.3h9.5v21.4c-1.8,2.8,-2.8,6.1,-2.8,9.6v41.2Z"/></clipPath>
<clipPath id="cx_20"><path d="M681.3,342.4v-2.3h6.6v2.3Z"/></clipPath>
<clipPath id="cy_20"><path d="M688,335.2V277.3c0,-3.5,1,-6.8,2.8,-9.6v67.5Z"/></clipPath>
<clipPath id="cz_20"><path d="M687.9,342.4v-7.2h2.9v7.2Z"/></clipPath>
<clipPath id="c10_20"><path d="M514.3,347.5v-5.1h79.1v5.1Zm0,-7.4V318.5h79.1v21.6Z"/></clipPath>
<clipPath id="c11_20"><path d="M514.3,318.5V246.3h79.1v72.2Z"/></clipPath>
<clipPath id="c12_20"><path d="M514.3,342.4v-2.3h79.1v2.3Z"/></clipPath>
<clipPath id="c13_20"><path d="M505.1,347.5v-5.1h9.2v5.1Zm0,-7.4V318.5h9.2v21.6Z"/></clipPath>
<clipPath id="c14_20"><path d="M505.1,318.5V246.3h9.2v72.2Z"/></clipPath>
<clipPath id="c15_20"><path d="M505.1,342.4v-2.3h9.2v2.3Z"/></clipPath>
<clipPath id="c16_20"><path d="M593.4,347.5v-5.1h9v5.1Zm0,-7.4V318.5h6.7v16.7H600v4.9Z"/></clipPath>
<clipPath id="c17_20"><path d="M593.4,318.5V246.3h9.1v22c-1.6,2.7,-2.4,5.7,-2.4,9v41.2Z"/></clipPath>
<clipPath id="c18_20"><path d="M593.4,342.4v-2.3H600v2.3Z"/></clipPath>
<clipPath id="c19_20"><path d="M600.1,335.2V277.3c0,-3.3,.8,-6.3,2.4,-9v66.9Z"/></clipPath>
<clipPath id="c1a_20"><path d="M600,342.4v-7.2h2.5v7.2Z"/></clipPath>
<style type="text/css"><![CDATA[
.g0_20{
fill: #D1232A;
}
.g1_20{
fill: #E7E8E8;
}
.g2_20{
fill: #1B1661;
}
.g3_20{
fill: #DCDDDE;
}
.g4_20{
fill: #FFF;
}
.g5_20{
fill: #ED1A40;
}
.g6_20{
fill: #CFCBCA;
}
.g7_20{
fill: #FCB61D;
}
.g8_20{
fill: #FEE6BB;
}
.g9_20{
fill: #5AC4C1;
}
.ga_20{
fill: #09B795;
}
.gb_20{
fill: #F37537;
}
.gc_20{
fill: #5180C1;
}
]]></style>
</defs>
<image clip-path="url(#c0_20)" preserveAspectRatio="none" x="325" y="0" width="106" height="106" xlink:href="img/1.jpg"/>
<image clip-path="url(#c1_20)" preserveAspectRatio="none" x="431" y="0" width="107" height="106" xlink:href="img/2.jpg"/>
<image clip-path="url(#c2_20)" preserveAspectRatio="none" x="537" y="0" width="107" height="106" xlink:href="img/3.jpg"/>
<image clip-path="url(#c3_20)" preserveAspectRatio="none" x="644" y="0" width="106" height="106" xlink:href="img/4.jpg"/>
<image clip-path="url(#c4_20)" preserveAspectRatio="none" x="750" y="0" width="107" height="106" xlink:href="img/5.jpg"/>
<image clip-path="url(#c5_20)" preserveAspectRatio="none" x="856" y="0" width="54" height="266" xlink:href="img/6.jpg"/>
<image clip-path="url(#c6_20)" preserveAspectRatio="none" x="325" y="106" width="106" height="106" xlink:href="img/7.jpg"/>
<image preserveAspectRatio="none" x="431" y="106" width="107" height="106" xlink:href="img/8.jpg"/>
<image preserveAspectRatio="none" x="537" y="106" width="107" height="106" xlink:href="img/9.jpg"/>
<image preserveAspectRatio="none" x="644" y="106" width="106" height="106" xlink:href="img/10.jpg"/>
<image preserveAspectRatio="none" x="750" y="106" width="107" height="106" xlink:href="img/11.jpg"/>
<image clip-path="url(#c7_20)" preserveAspectRatio="none" x="325" y="212" width="106" height="107" xlink:href="img/12.jpg"/>
<image clip-path="url(#c8_20)" preserveAspectRatio="none" x="431" y="212" width="266" height="54" xlink:href="img/13.jpg"/>
<image clip-path="url(#c9_20)" preserveAspectRatio="none" x="697" y="212" width="160" height="54" xlink:href="img/14.jpg"/>
<image clip-path="url(#ca_20)" preserveAspectRatio="none" x="856" y="265" width="54" height="54" xlink:href="img/15.jpg"/>
<image clip-path="url(#cb_20)" preserveAspectRatio="none" x="839" y="42" width="29" height="13" xlink:href="img/16.jpg"/>
<path d="M607.1,552.1h-.8v99.7H866.1V551.3H606.3v.8h.8v.7H864.6v97.4H607.8V552.1h-.7v.7Z" class="g0_20"/>
<path d="M635.6,561.1v.8c.1,0,.2,0,.3,0h.2v-.8v.8c4.1,0,7.7,.1,11.6,.1v-.7l-.1,.7c.8,.1,1.2,.3,1.3,.5c.2,.2,.3,.4,.3,.7l.7,-.1h-.7c0,.4,-.1,.6,-.4,.8c-.2,.2,-.5,.4,-.9,.5v.7v-.8c-.8,0,-2.1,.1,-3.2,.1c-.6,0,-1.1,.1,-1.5,.1c-.4,0,-.7,0,-.7,0h-1.2l.6,1.1c.2,.3,.3,.6,.3,.9c0,.4,-.2,.8,-.7,1.1l-.6,.4l.3,.6c.2,.2,.3,.6,.3,.9c0,.2,0,.3,-.1,.5c-.1,.4,-.3,.6,-.7,.9l-.7,.3l.4,.7c.2,.3,.3,.6,.3,.8c0,.2,-.1,.3,-.1,.5c-.2,.3,-.4,.5,-.5,.6c-.2,.2,-.5,.2,-.8,.2c-.6,0,-1.1,0,-1.7,0c-1.3,0,-2.7,0,-4,0h-.3c-.5,0,-1.1,0,-1.7,.1h-.1c-.7,0,-1.3,-.2,-1.9,-.6c-.7,-.5,-1.4,-1,-2.1,-1.5c-.3,-.2,-.7,-.2,-1,-.2c-.8,0,-.9,0,-1,0c-.1,0,-.2,0,-.7,0h-.4l-.1,.1l.1,-.1l-.1,.1l.1,-.1l-.1,.2l.2,-.2h-.1l-.1,.2l.2,-.2l-.1,.1h.1v-.1l-.1,.1h.1v-.2h-.7h.7l-.1,-8.6h-.7h.7v-.2l-.2,-.1l.1,.3l.1,-.2l-.2,-.1l.1,.3l-.1,-.2l.1,.2l-.1,-.2l.1,.2h.1c.8,0,1,0,1.2,0q.1,0,1.3,0c.2,0,.5,0,.9,-.1c.1,0,.3,-.1,.5,-.1l.3,-.2c.1,-.1,.3,-.3,.3,-.6c0,-.2,.1,-.5,.2,-.8c0,-.3,.1,-.4,.3,-.5c.1,-.2,.4,-.3,.7,-.4c.8,-.4,1.6,-.8,2.5,-1.2c1.2,-.8,2,-1.9,2.6,-2.9l.1,-.1l-.1,-.1v.1h.1l-.1,-.1v.1h.1l.2,.1l.4,-.5l-.5,.5c.6,.5,.7,.9,.9,1.8l.7,-.2h-.7v.1c0,.9,-.4,1.6,-1,2.4c-.1,0,-.2,.1,-.3,.3l-1,1.2h1.6v-.8l.5,.5c.1,-.1,.2,-.2,.3,-.3c.7,-.9,1.3,-1.9,1.3,-3.3v-.2c-.2,-1,-.5,-1.9,-1.3,-2.6h-.1c-.3,-.2,-.6,-.4,-1.1,-.4c-.2,0,-.5,0,-.7,.2c-.2,.1,-.4,.3,-.5,.6c-.6,1,-1.3,1.8,-2.1,2.3c-.8,.4,-1.6,.8,-2.4,1.2c-.3,.1,-.7,.3,-1,.6c-.4,.3,-.7,.7,-.8,1.2c-.1,.3,-.2,.7,-.2,1.1h.5l-.4,-.4c0,.1,-.1,.2,-.1,.4h.5l-.4,-.4l.2,.2l-.1,-.2h-.1l.2,.2l-.1,-.2c0,0,-.2,0,-.4,0c-.1,.1,-.3,.1,-.4,.1q-1.1,0,-1.3,0c-.2,0,-.4,0,-1.2,0c-.2,0,-.4,0,-.6,0c-.2,.1,-.5,.4,-.6,.6c-.2,.3,-.2,.5,-.2,.7v8.7c.1,.4,.1,.8,.4,1.1c.2,.2,.4,.3,.6,.3c.2,.1,.4,.1,.5,.1h.3c.5,0,.6,0,.7,0c.1,0,.2,0,1,0h.3c.7,.5,1.3,.9,2,1.4c.8,.6,1.7,.9,2.7,.9h.2c.5,0,1.1,0,1.6,0h.3c1.3,0,2.7,0,4,0c.6,0,1.1,0,1.7,0c.6,0,1.1,-.2,1.6,-.5c.4,-.3,.7,-.7,1,-1.2c.1,-.4,.2,-.7,.2,-1.1c0,-.6,-.2,-1.1,-.5,-1.6l-.6,.4l.3,.6c.7,-.3,1.3,-1,1.5,-1.7c.1,-.3,.1,-.6,.1,-.9c0,-.6,-.1,-1.1,-.4,-1.6l-.6,.3l.3,.6c.9,-.5,1.4,-1.4,1.4,-2.3c0,-.6,-.2,-1.1,-.5,-1.6l-.6,.3v.7c.1,0,.3,0,.7,0c1.2,0,3.6,-.1,4.7,-.1h.1c.7,-.1,1.3,-.4,1.8,-.8c.5,-.4,.8,-1.1,.8,-1.9V563c-.1,-.4,-.2,-1,-.6,-1.5c-.5,-.5,-1.2,-.8,-2.2,-.9h-.1c-3.9,0,-7.5,-.1,-11.5,-.2h-.3c-.1,0,-.2,0,-.3,0v.7l.5,.5Z" class="g0_20"/>
<path d="M622.9,562.6h.7c0,-.3,0,-.6,-.1,-.8v-.1l-.1,-.1c-.2,-.4,-.4,-.8,-.8,-1.1c-.4,-.3,-.9,-.5,-1.5,-.5v.8V560c-.8,.1,-1.3,.1,-1.9,.1c-.7,0,-1.3,0,-2,0c-.4,0,-.8,0,-1.3,0c-.6,0,-1.2,.1,-1.6,.5c-.5,.4,-.6,1,-.6,1.6v.4c.3,3.1,.7,6.3,1,9.4c0,.5,.1,1,.4,1.4c.2,.4,.6,.8,1,1l.1,.1h.1c.4,.1,.8,.1,1.2,.1v-.2v.2v-.2v.2c.5,0,.9,0,1.3,0c.3,0,.7,0,1,0c.3,0,.7,0,1.1,0c.6,0,1.2,0,1.7,-.4c.5,-.4,.7,-.9,.9,-1.5l-.7,-.2l.5,.5c.2,-.2,.2,-.3,.2,-.3l.1,-.2c0,-.2,0,-.4,0,-.7c0,-.8,0,-2.4,0,-4.1c0,-1.6,0,-3.3,0,-4.6c0,-.2,0,-.4,0,-.5h-1.4c0,.1,0,.3,0,.5c0,1.3,0,3,0,4.6c0,1.3,0,2.4,0,3.3c0,.4,0,.8,0,1l-.1,.3h.3h-.3h.3h-.3l.6,.1l-.5,-.2l-.1,.1l.6,.1l-.5,-.2l.6,.2l-.5,-.5l-.1,.3l.6,.2l-.5,-.5l-.1,.2v.1c-.2,.6,-.4,.8,-.5,.9c-.1,0,-.3,.1,-.8,.1c-.4,0,-.8,0,-1.1,0c-.3,0,-.7,0,-1,0c-.4,0,-.8,0,-1.3,0v.7v-.7c-.3,0,-.6,0,-.8,-.1l-.2,.7l.3,-.6c-.2,-.2,-.4,-.3,-.5,-.5c-.1,-.2,-.2,-.5,-.2,-.8c-.3,-3.2,-.7,-6.3,-1,-9.5v-.2c0,-.3,.1,-.5,.2,-.5c0,-.1,.2,-.2,.6,-.2c.5,0,.9,0,1.3,0c.7,0,1.3,0,2,0c.6,0,1.2,0,1.9,0c.3,0,.4,0,.6,.2c.2,.1,.3,.3,.5,.6l.6,-.4l-.7,.2c.1,.2,.1,.4,.1,.5Zm-1.8,8.6h-.7c0,.2,-.2,.4,-.3,.4H620c-.1,0,-.3,-.2,-.3,-.4l.1,-.2l.2,-.2c.2,0,.4,.2,.4,.4h1.4c0,-1,-.8,-1.8,-1.8,-1.8c-1,0,-1.7,.8,-1.7,1.8v.1c0,.9,.8,1.7,1.7,1.7h.1c1,0,1.7,-.8,1.7,-1.8Z" class="g0_20"/>
<path d="M43.3,1242.9H303.1V842.6H43.3v400.3Z" class="g1_20"/>
<path d="M43.3,842.6H303.1v27.6H43.3V842.6Z" class="g2_20"/>
<path clip-path="url(#cc_20)" d="M43.3,870.2H303.1v40.6H43.3V870.2Zm0,333.7H303.1v39H43.3v-39Z" class="g3_20"/>
<path d="M43.3,911.1H303.1v-.7H43.3Z" class="g4_20"/>
<path d="M43.3,1204.2H303.1v-.7H43.3Z" class="g4_20"/>
<path d="M62.4,854.2l-1,-.7c-.2,-.2,-.6,-.1,-.8,.2l-4.7,6.9l-2.1,-2.2c-.3,-.2,-.6,-.2,-.8,0l-.9,.9c-.2,.2,-.2,.6,0,.8l3.4,3.3c.1,.2,.4,.3,.7,.3c.3,0,.5,-.1,.7,-.4L62.6,855c.1,-.3,.1,-.6,-.2,-.8Z" class="g4_20"/>
<path d="M607.1,945.7h-.8v297.2H866.1V945H606.3v.7h.8v.8H864.6v294.9H607.8V945.7h-.7v.8Z" class="g2_20"/>
<path d="M651.3,951H821.1V937.2H651.3Z" class="g4_20"/>
<path d="M47.6,211.6c-2.4,0,-4.3,2,-4.3,4.4v39.7c0,2.4,1.9,4.3,4.3,4.3H298.8c2.4,0,4.3,-1.9,4.3,-4.3V216c0,-2.4,-1.9,-4.4,-4.3,-4.4Z" class="g5_20"/>
<path d="M164.1,242.2h69.7v-.9H164.1Z" class="g4_20"/>
<path d="M324.8,1242.9H584.6V1075.5H324.8v167.4Z" class="g1_20"/>
<path d="M324.8,1075.5H584.6v26.3H324.8v-26.3Z" class="g2_20"/>
<path d="M324.8,1101.8H511.6v35.8H324.8v-35.8Zm186.8,0h73v35.8h-73v-35.8Zm-186.8,57.1H511.6v21.3H324.8v-21.3Zm186.8,0h73v21.3h-73v-21.3Zm-186.8,42.6H511.6v21.3H324.8v-21.3Zm186.8,0h73v21.3h-73v-21.3Z" class="g3_20"/>
<path d="M324.8,1223.5H511.6V1222H324.8Z" class="g4_20"/>
<path d="M511.6,1223.5h73V1222h-73Z" class="g4_20"/>
<path d="M343.9,1085.7l-1,-.6c-.2,-.2,-.6,-.1,-.8,.1l-4.7,7l-2.1,-2.2c-.3,-.2,-.6,-.2,-.8,0l-.9,.8c-.2,.2,-.2,.6,0,.8l3.4,3.4c.1,.2,.4,.3,.7,.3c.3,0,.5,-.2,.7,-.4l5.7,-8.4c.1,-.2,.1,-.6,-.2,-.8Z" class="g4_20"/>
<path d="M43.3,809.1H303.1v-1.6H43.3Z" class="g6_20"/>
<path d="M303.1,353.4V333h-.7v20.4Z" class="g4_20"/>
<path d="M303.1,378.2V353.4h-.7v24.8Z" class="g4_20"/>
<path d="M205.4,398.8V378.2h-.8v20.6Z" class="g4_20"/>
<path d="M303.1,398.8V378.2h-.7v20.6Z" class="g4_20"/>
<path d="M205.4,419.5V398.8h-.8v20.7Z" class="g4_20"/>
<path d="M303.1,419.5V398.8h-.7v20.7Z" class="g4_20"/>
<path d="M205.4,440.1V419.5h-.8v20.6Z" class="g4_20"/>
<path d="M303.1,440.1V419.5h-.7v20.6Z" class="g4_20"/>
<path d="M205.4,460.7V440.1h-.8v20.6Z" class="g4_20"/>
<path d="M303.1,460.7V440.1h-.7v20.6Z" class="g4_20"/>
<path d="M205.4,481.3V460.7h-.8v20.6Z" class="g4_20"/>
<path d="M303.1,481.3V460.7h-.7v20.6Z" class="g4_20"/>
<path d="M205.4,501.9V481.3h-.8v20.6Z" class="g4_20"/>
<path d="M303.1,501.9V481.3h-.7v20.6Z" class="g4_20"/>
<path d="M205.4,522.5V501.9h-.8v20.6Z" class="g4_20"/>
<path d="M303.1,522.5V501.9h-.7v20.6Z" class="g4_20"/>
<path d="M205.4,543.1V522.5h-.8v20.6Z" class="g4_20"/>
<path d="M303.1,543.1V522.5h-.7v20.6Z" class="g4_20"/>
<path d="M205.4,563.8V543.1h-.8v20.7Z" class="g4_20"/>
<path d="M303.1,563.8V543.1h-.7v20.7Z" class="g4_20"/>
<path d="M78,354.2H205v-1.6H78Z" class="g7_20"/>
<path d="M205,354.2h97.4v-1.6H205Z" class="g7_20"/>
<path d="M61.2,371.9c9.8,0,17.8,-8,17.8,-17.8c0,-9.9,-8,-17.9,-17.8,-17.9c-9.9,0,-17.9,8,-17.9,17.9c0,9.8,8,17.8,17.9,17.8Z" class="g7_20"/>
<path d="M71.6,355.9c0,.7,.2,1.4,.2,2.1c0,2.1,-1,3.6,-2.7,4.7c-1.3,.9,-2.8,1.3,-4.3,1.3c-2.4,0,-4.8,0,-7.2,0c-1.7,0,-3.2,-.4,-4.5,-1.4c-2,-1.3,-2.8,-3.2,-2.5,-5.6c.2,-2,.3,-3.9,.4,-5.9c0,-1.8,0,-3.6,-.1,-5.4c0,-2.1,.9,-3.8,2.5,-5c1.5,-1.1,3.2,-1.5,5,-1.6c1.9,0,3.8,0,5.7,0c1.6,.1,3.2,.5,4.6,1.5c1.9,1.3,2.9,3.2,2.7,5.6c-.1,1.2,0,2.4,0,3.6c-.1,0,.1,4,.2,6.1M61.2,340.4v-.1c-1,0,-1.9,0,-2.9,0c-1.3,0,-2.5,.3,-3.6,1c-1.6,1,-2.7,2.3,-2.6,4.2c.1,.8,.3,1.7,.6,2.5c.4,1.3,1.1,2.6,2.2,3.5c.2,.3,.2,.6,-.1,.9c-.6,.6,-1.3,1.2,-2.1,1.5c-.6,.2,-.7,.5,-.7,1c-.1,.5,.1,.9,.4,1.2c.8,.8,1.7,1.4,2.7,1.8c1.8,.7,3.7,1,5.6,1c2,.1,4.1,-.1,6,-.8c1.4,-.5,2.6,-1.2,3.5,-2.3c0,-.1,.1,-.3,.1,-.4c0,-.4,0,-.7,0,-1.1l-.2,-.2c-1.1,-.4,-1.9,-1,-2.6,-1.7c-.3,-.3,-.3,-.6,0,-.9c.4,-.5,.9,-1,1.2,-1.5c.8,-1.2,1.2,-2.6,1.4,-4c.2,-1.2,0,-2.2,-.7,-3.2c-1.2,-1.5,-2.8,-2.2,-4.7,-2.4c-1.1,-.1,-2.3,0,-3.5,0m-9.4,16.5c-.3,1.6,0,3,1.3,4.2c1.3,1.2,2.8,1.7,4.6,1.7c2.3,0,4.6,0,6.9,0c.8,0,1.6,-.1,2.4,-.4c1.4,-.5,2.5,-1.2,3.2,-2.6c.5,-1,.5,-1.9,.3,-3l-.1,.1c-1.1,1.4,-2.6,2.2,-4.3,2.6c-2.9,.8,-5.7,.8,-8.6,.3c-1.4,-.2,-2.8,-.6,-3.9,-1.5c-.7,-.4,-1.2,-.9,-1.8,-1.4Z" class="g8_20"/>
<path d="M55.8,364.4c-.5,.4,-1,.8,-1.5,1.1c-.5,.4,-1.7,1.4,-2.2,1.8c-.3,.2,-.6,.2,-.8,.2l-.3,-.4c-.1,-.2,0,-.5,.2,-.6c.3,-.3,1.4,-1.1,1.7,-1.4c.4,-.3,.9,-.7,1.3,-1h.4c.4,0,.8,.2,1.2,.3Z" class="g8_20"/>
<path d="M66.5,364.4c.5,-.1,.9,-.3,1.3,-.4l.3,.1c.7,.6,2.3,1.8,3,2.3c.1,.1,.3,.3,.3,.4c.1,.2,.1,.5,-.2,.6c-.2,.1,-.5,.2,-.7,0c-1.1,-.7,-2.9,-2.2,-4,-3Z" class="g8_20"/>
<path d="M61.1,351c-1.1,0,-2.1,.1,-3.2,0c-2,-.1,-3.5,-1.5,-3.9,-3.5c-.1,-.5,-.2,-1,-.3,-1.5c-.3,-1.9,1,-3.5,3,-3.5c3,0,6,0,9,0c1.8,0,3.1,1.4,2.9,3.3c-.1,1.1,-.2,2.2,-.8,3.1c-.9,1.4,-2.2,2.2,-3.9,2.2c-.9,0,-1.8,0,-2.8,0Z" class="g8_20"/>
<path d="M65.7,353.7c.3,0,.5,0,.8,0c.4,.1,.7,.3,.6,.7c-.5,.8,-1,1.7,-1.5,2.5c-.1,.2,-.3,.3,-.6,.3c-.5,0,-1.1,0,-1.6,0c-.5,0,-.7,-.3,-.5,-.6c.4,-.9,.9,-1.7,1.4,-2.5c.1,-.3,.3,-.4,.7,-.4c.2,0,.5,0,.7,0Z" class="g8_20"/>
<path d="M58.1,357.2c-.2,0,-.5,0,-.7,0c-.3,0,-.6,-.1,-.7,-.3c-.5,-.8,-.9,-1.7,-1.4,-2.5c-.2,-.4,0,-.7,.6,-.7c.5,0,1,0,1.5,0c.3,0,.5,.1,.6,.4c.5,.8,1,1.6,1.5,2.5c.2,.3,-.1,.6,-.6,.6c-.2,0,-.5,0,-.8,0Z" class="g8_20"/>
<path d="M62.2,361.5c0,.6,-.5,1.1,-1,1.1c-.6,0,-1.1,-.5,-1.1,-1c0,-.6,.5,-1.1,1,-1.1c.6,0,1.1,.5,1.1,1Z" class="g8_20"/>
<path d="M303.1,592.8V572.4h-.7v20.4Z" class="g4_20"/>
<path d="M303.1,617.6V592.8h-.7v24.8Z" class="g4_20"/>
<path d="M205.4,638.3V617.6h-.8v20.7Z" class="g4_20"/>
<path d="M303.1,638.3V617.6h-.7v20.7Z" class="g4_20"/>
<path d="M205.4,658.9V638.3h-.8v20.6Z" class="g4_20"/>
<path d="M303.1,658.9V638.3h-.7v20.6Z" class="g4_20"/>
<path d="M205.4,679.5V658.9h-.8v20.6Z" class="g4_20"/>
<path d="M303.1,679.5V658.9h-.7v20.6Z" class="g4_20"/>
<path d="M205.4,700.1V679.5h-.8v20.6Z" class="g4_20"/>
<path d="M303.1,700.1V679.5h-.7v20.6Z" class="g4_20"/>
<path d="M205.4,720.7V700.1h-.8v20.6Z" class="g4_20"/>
<path d="M303.1,720.7V700.1h-.7v20.6Z" class="g4_20"/>
<path d="M205.4,741.3V720.7h-.8v20.6Z" class="g4_20"/>
<path d="M303.1,741.3V720.7h-.7v20.6Z" class="g4_20"/>
<path d="M205.4,762V741.3h-.8V762Z" class="g4_20"/>
<path d="M303.1,762V741.3h-.7V762Z" class="g4_20"/>
<path d="M205.4,782.6V762h-.8v20.6Z" class="g4_20"/>
<path d="M303.1,782.6V762h-.7v20.6Z" class="g4_20"/>
<path d="M205.4,803.2V782.6h-.8v20.6Z" class="g4_20"/>
<path d="M303.1,803.2V782.6h-.7v20.6Z" class="g4_20"/>
<path d="M78,593.6H205v-1.5H78Z" class="g7_20"/>
<path d="M205,593.6h97.4v-1.5H205Z" class="g7_20"/>
<path d="M61.2,611.4c9.8,0,17.8,-8,17.8,-17.9c0,-9.8,-8,-17.8,-17.8,-17.8c-9.9,0,-17.9,8,-17.9,17.8c0,9.9,8,17.9,17.9,17.9Z" class="g7_20"/>
<path d="M71.6,595.3c0,.7,.2,1.4,.2,2.2c0,2,-1,3.5,-2.7,4.6c-1.3,.9,-2.8,1.3,-4.3,1.3c-2.4,0,-4.8,0,-7.2,0c-1.7,0,-3.2,-.4,-4.5,-1.3c-2,-1.4,-2.8,-3.3,-2.5,-5.7c.2,-1.9,.3,-3.9,.4,-5.8c0,-1.9,0,-3.7,-.1,-5.5c0,-2.1,.9,-3.7,2.5,-5c1.5,-1,3.2,-1.5,5,-1.5c1.9,-.1,3.8,-.1,5.7,0c1.6,0,3.2,.4,4.6,1.4c1.9,1.3,2.9,3.2,2.7,5.6c-.1,1.2,0,2.4,0,3.6c-.1,0,.1,4.1,.2,6.1M61.2,579.8v-.1c-1,0,-1.9,0,-2.9,0c-1.3,.1,-2.5,.4,-3.6,1.1c-1.6,.9,-2.7,2.2,-2.6,4.1c.1,.9,.3,1.7,.6,2.5c.4,1.4,1.1,2.6,2.2,3.6c.2,.2,.2,.5,-.1,.8c-.6,.7,-1.3,1.3,-2.1,1.5c-.6,.2,-.7,.5,-.7,1c-.1,.5,.1,.9,.4,1.2c.8,.8,1.7,1.4,2.7,1.8c1.8,.8,3.7,1,5.6,1.1c2,0,4.1,-.2,6,-.9c1.4,-.5,2.6,-1.1,3.5,-2.3c0,-.1,.1,-.3,.1,-.4c0,-.3,0,-.7,0,-1l-.2,-.3c-1.1,-.3,-1.9,-.9,-2.6,-1.7c-.3,-.3,-.3,-.6,0,-.9c.4,-.5,.9,-1,1.2,-1.5c.8,-1.2,1.2,-2.6,1.4,-4c.2,-1.1,0,-2.2,-.7,-3.1c-1.2,-1.6,-2.8,-2.3,-4.7,-2.5c-1.1,-.1,-2.3,0,-3.5,0m-9.4,16.5c-.3,1.6,0,3.1,1.3,4.2c1.3,1.2,2.8,1.7,4.6,1.7c2.3,0,4.6,0,6.9,0c.8,0,1.6,-.1,2.4,-.3c1.4,-.5,2.5,-1.3,3.2,-2.7c.5,-.9,.5,-1.9,.3,-2.9h-.1c-1.1,1.4,-2.6,2.2,-4.3,2.7c-2.9,.7,-5.7,.7,-8.6,.2c-1.4,-.2,-2.8,-.6,-3.9,-1.4c-.7,-.4,-1.2,-1,-1.8,-1.5Z" class="g8_20"/>
<path d="M55.8,603.8c-.5,.4,-1,.8,-1.5,1.2c-.5,.4,-1.7,1.3,-2.2,1.8c-.3,.2,-.6,.1,-.8,.1l-.3,-.4c-.1,-.2,0,-.4,.2,-.6c.3,-.2,1.4,-1.1,1.7,-1.4c.4,-.3,.9,-.6,1.3,-.9l.4,-.1c.4,.1,.8,.2,1.2,.3Z" class="g8_20"/>
<path d="M66.5,603.8c.5,-.1,.9,-.3,1.3,-.4l.3,.1c.7,.6,2.3,1.8,3,2.4c.1,.1,.3,.2,.3,.3c.1,.3,.1,.6,-.2,.6c-.2,.1,-.5,.2,-.7,.1c-1.1,-.8,-2.9,-2.2,-4,-3.1Z" class="g8_20"/>
<path d="M61.1,590.5c-1.1,0,-2.1,0,-3.2,0c-2,-.2,-3.5,-1.6,-3.9,-3.6c-.1,-.5,-.2,-.9,-.3,-1.4c-.3,-1.9,1,-3.6,3,-3.6c3,0,6,0,9,0c1.8,0,3.1,1.5,2.9,3.3c-.1,1.1,-.2,2.2,-.8,3.1c-.9,1.4,-2.2,2.2,-3.9,2.2c-.9,0,-1.8,0,-2.8,0Z" class="g8_20"/>
<path d="M65.7,593.2c.3,0,.5,0,.8,0c.4,0,.7,.3,.6,.6c-.5,.9,-1,1.7,-1.5,2.6c-.1,.1,-.3,.2,-.6,.2c-.5,0,-1.1,0,-1.6,0c-.5,0,-.7,-.3,-.5,-.6c.4,-.9,.9,-1.7,1.4,-2.5c.1,-.2,.3,-.3,.7,-.3c.2,0,.5,0,.7,0Z" class="g8_20"/>
<path d="M58.1,596.6c-.2,0,-.5,0,-.7,0c-.3,0,-.6,-.1,-.7,-.3c-.5,-.8,-.9,-1.6,-1.4,-2.4c-.2,-.4,0,-.7,.6,-.7c.5,0,1,0,1.5,0c.3,0,.5,.1,.6,.3c.5,.8,1,1.6,1.5,2.5c.2,.3,-.1,.6,-.6,.6c-.2,0,-.5,0,-.8,0Z" class="g8_20"/>
<path d="M62.2,601c0,.5,-.5,1,-1,1c-.6,0,-1.1,-.5,-1.1,-1c0,-.6,.5,-1.1,1,-1.1c.6,0,1.1,.5,1.1,1.1Z" class="g8_20"/>
<path d="M191.7,329.6V275.2h-3v54.4Z" class="g4_20"/>
<path d="M43.3,156H77.9v40.5H43.3V156Z" class="g4_20"/>
<image x="77" y="156" width="226" height="41" xlink:href="shade/1.png"/>
<path d="M77.9,177.2H302.8v-1.6H77.9Z" class="g7_20"/>
<path d="M61.2,194.9C71,194.9,79,187,79,177.1c0,-9.9,-8,-17.8,-17.8,-17.8c-9.9,0,-17.9,7.9,-17.9,17.8c0,9.9,8,17.8,17.9,17.8Z" class="g7_20"/>
<path d="M71.6,178.9c0,.7,.2,1.4,.2,2.1c0,2.1,-1,3.6,-2.7,4.7c-1.3,.9,-2.8,1.3,-4.3,1.3c-2.4,0,-4.8,0,-7.2,0c-1.7,0,-3.2,-.4,-4.5,-1.4c-2,-1.3,-2.8,-3.2,-2.5,-5.6c.2,-1.9,.3,-3.9,.4,-5.9c0,-1.8,-.1,-3.6,-.1,-5.4c0,-2.1,.9,-3.7,2.5,-5c1.5,-1,3.2,-1.5,4.9,-1.5c2,-.1,3.9,-.1,5.8,0c1.6,0,3.2,.4,4.6,1.4c1.9,1.3,2.8,3.2,2.7,5.6c-.1,1.2,0,2.4,0,3.6c-.1,0,.1,4.1,.2,6.1M61.2,163.4v-.1c-1,0,-1.9,0,-2.9,0c-1.3,.1,-2.5,.4,-3.6,1c-1.6,1,-2.7,2.3,-2.6,4.2c.1,.8,.3,1.7,.6,2.5c.4,1.4,1.1,2.6,2.2,3.6c.2,.2,.2,.5,-.1,.8c-.6,.7,-1.3,1.3,-2.1,1.5c-.6,.2,-.7,.5,-.7,1c-.1,.5,.1,.9,.4,1.2c.8,.8,1.7,1.4,2.7,1.8c1.8,.8,3.7,1,5.6,1.1c2,0,4.1,-.2,6,-.9c1.4,-.5,2.6,-1.1,3.4,-2.3c.1,-.1,.2,-.3,.2,-.4c0,-.4,0,-.7,0,-1l-.2,-.3c-1.1,-.3,-1.9,-.9,-2.6,-1.7c-.3,-.3,-.3,-.6,0,-.9c.4,-.5,.9,-1,1.2,-1.5c.8,-1.2,1.2,-2.6,1.4,-4c.2,-1.1,0,-2.2,-.7,-3.1c-1.2,-1.6,-2.8,-2.3,-4.7,-2.5c-1.1,-.1,-2.3,0,-3.5,0m-9.4,16.5c-.3,1.6,0,3.1,1.3,4.2c1.3,1.2,2.8,1.7,4.6,1.7c2.3,0,4.6,0,6.9,0c.8,0,1.6,-.1,2.4,-.4c1.4,-.4,2.5,-1.2,3.2,-2.6c.5,-.9,.5,-1.9,.3,-3l-.1,.1c-1.1,1.4,-2.6,2.2,-4.3,2.6c-2.9,.8,-5.7,.8,-8.6,.3c-1.4,-.2,-2.8,-.6,-3.9,-1.4c-.7,-.5,-1.2,-1,-1.8,-1.5Z" class="g8_20"/>
<path d="M55.8,187.4c-.5,.4,-1,.8,-1.5,1.1c-.5,.4,-1.7,1.4,-2.2,1.8c-.3,.3,-.6,.2,-.8,.2l-.3,-.4c-.1,-.2,0,-.4,.2,-.6c.3,-.3,1.4,-1.1,1.7,-1.4c.4,-.3,.9,-.6,1.3,-1h.4c.4,.1,.8,.2,1.2,.3Z" class="g8_20"/>
<path d="M66.5,187.4c.5,-.1,.9,-.3,1.3,-.4l.3,.1c.7,.6,2.3,1.8,3,2.4c.1,.1,.3,.2,.3,.3c.1,.3,.1,.5,-.2,.6c-.2,.1,-.5,.2,-.7,.1c-1.1,-.8,-2.9,-2.2,-4,-3.1Z" class="g8_20"/>
<path d="M61.1,174.1c-1.1,0,-2.1,0,-3.2,-.1c-2,-.1,-3.5,-1.5,-3.9,-3.5c-.1,-.5,-.2,-1,-.3,-1.4c-.3,-2,1,-3.6,3,-3.6c3,0,6,0,8.9,0c1.9,0,3.2,1.4,3,3.3c-.1,1.1,-.2,2.2,-.8,3.1c-.9,1.4,-2.2,2.2,-3.9,2.2c-.9,0,-1.9,0,-2.8,0Z" class="g8_20"/>
<path d="M65.7,176.8c.3,0,.5,-.1,.8,0c.4,0,.7,.3,.6,.6c-.5,.8,-1,1.7,-1.5,2.5c-.1,.2,-.3,.3,-.6,.3c-.5,0,-1.1,0,-1.6,0c-.5,0,-.7,-.3,-.6,-.6c.5,-.9,1,-1.7,1.5,-2.5c.1,-.2,.3,-.3,.7,-.3c.2,0,.4,0,.7,0Z" class="g8_20"/>
<path d="M58.1,180.2c-.2,0,-.5,0,-.7,0c-.3,0,-.6,-.1,-.7,-.3c-.5,-.8,-1,-1.6,-1.4,-2.5c-.2,-.3,0,-.6,.6,-.6c.5,0,1,0,1.5,0c.3,0,.5,.1,.6,.3c.5,.8,1,1.6,1.5,2.5c.2,.3,-.1,.6,-.6,.6c-.2,0,-.5,0,-.8,0Z" class="g8_20"/>
<path d="M62.2,184.5c0,.6,-.5,1.1,-1,1.1c-.6,0,-1.1,-.5,-1.1,-1c0,-.6,.5,-1.1,1,-1.1c.6,0,1.1,.5,1.1,1Z" class="g8_20"/>
<path d="M324.8,342.4H866.1v-2.3H324.8v2.3Z" class="g9_20"/>
<image clip-path="url(#cd_20)" preserveAspectRatio="none" x="416" y="318" width="99" height="30" xlink:href="img/17.jpg"/>
<image clip-path="url(#ce_20)" preserveAspectRatio="none" x="417" y="246" width="88" height="73" xlink:href="img/18.jpg"/>
<image clip-path="url(#cf_20)" preserveAspectRatio="none" x="416" y="339" width="90" height="4" xlink:href="img/19.jpg"/>
<path d="M442,259c-10.2,0,-18.4,8.2,-18.4,18.3v64.2h79.1V277.3c0,-10.1,-8.3,-18.3,-18.4,-18.3Z" class="g4_20"/>
<path d="M429.8,285.2h2.3c.2,0,.4,-.2,.4,-.4c0,-.2,-.2,-.4,-.4,-.4h-2.3c-.2,0,-.4,.2,-.4,.4c0,.2,.2,.4,.4,.4m3.9,0H436c.2,0,.4,-.2,.4,-.4c0,-.2,-.2,-.4,-.4,-.4h-2.3c-.2,0,-.4,.2,-.4,.4c0,.2,.2,.4,.4,.4m3.9,0h2.3c.2,0,.4,-.2,.4,-.4c0,-.2,-.2,-.4,-.4,-.4h-2.3c-.2,0,-.4,.2,-.4,.4c0,.2,.2,.4,.4,.4m3.8,0h2.4c.2,0,.3,-.2,.3,-.4c0,-.2,-.1,-.4,-.3,-.4h-2.4c-.2,0,-.3,.2,-.3,.4c0,.2,.1,.4,.3,.4m3.9,0h2.3c.3,0,.4,-.2,.4,-.4c0,-.2,-.1,-.4,-.4,-.4h-2.3c-.2,0,-.4,.2,-.4,.4c0,.2,.2,.4,.4,.4m3.9,0h2.3c.2,0,.4,-.2,.4,-.4c0,-.2,-.2,-.4,-.4,-.4h-2.3c-.2,0,-.4,.2,-.4,.4c0,.2,.2,.4,.4,.4m3.9,0h2.3c.2,0,.4,-.2,.4,-.4c0,-.2,-.2,-.4,-.4,-.4h-2.3c-.2,0,-.4,.2,-.4,.4c0,.2,.2,.4,.4,.4m3.9,0h2.3c.2,0,.4,-.2,.4,-.4c0,-.2,-.2,-.4,-.4,-.4H457c-.2,0,-.4,.2,-.4,.4c0,.2,.2,.4,.4,.4m3.9,0h2.3c.2,0,.4,-.2,.4,-.4c0,-.2,-.2,-.4,-.4,-.4h-2.3c-.3,0,-.4,.2,-.4,.4c0,.2,.1,.4,.4,.4m3.8,0h2.4c.2,0,.3,-.2,.3,-.4c0,-.2,-.1,-.4,-.3,-.4h-2.4c-.2,0,-.3,.2,-.3,.4c0,.2,.1,.4,.3,.4m3.9,0h2.3c.3,0,.4,-.2,.4,-.4c0,-.2,-.1,-.4,-.4,-.4h-2.3c-.2,0,-.4,.2,-.4,.4c0,.2,.2,.4,.4,.4m3.9,0h2.3c.2,0,.4,-.2,.4,-.4c0,-.2,-.2,-.4,-.4,-.4h-2.3c-.2,0,-.4,.2,-.4,.4c0,.2,.2,.4,.4,.4m3.9,0h2.3c.2,0,.4,-.2,.4,-.4c0,-.2,-.2,-.4,-.4,-.4h-2.3c-.2,0,-.4,.2,-.4,.4c0,.2,.2,.4,.4,.4m3.9,0h2.3c.2,0,.4,-.2,.4,-.4c0,-.2,-.2,-.4,-.4,-.4h-2.3c-.2,0,-.4,.2,-.4,.4c0,.2,.2,.4,.4,.4m3.8,0h2.4c.2,0,.4,-.2,.4,-.4c0,-.2,-.2,-.4,-.4,-.4h-2.4c-.2,0,-.3,.2,-.3,.4c0,.2,.1,.4,.3,.4m3.9,0h2.4c.2,0,.3,-.2,.3,-.4c0,-.2,-.1,-.4,-.3,-.4H488c-.2,0,-.4,.2,-.4,.4c0,.2,.2,.4,.4,.4m3.9,0h2.3c.2,0,.4,-.2,.4,-.4c0,-.2,-.2,-.4,-.4,-.4h-2.3c-.2,0,-.4,.2,-.4,.4c0,.2,.2,.4,.4,.4m3.9,0h2.3c.2,0,.4,-.2,.4,-.4c0,-.2,-.2,-.4,-.4,-.4h-2.3c-.2,0,-.4,.2,-.4,.4c0,.2,.2,.4,.4,.4Z" class="g5_20"/>
<path d="M429.8,317.4h2.3c.2,0,.4,-.1,.4,-.3c0,-.3,-.2,-.4,-.4,-.4h-2.3c-.2,0,-.4,.1,-.4,.4c0,.2,.2,.3,.4,.3m3.9,0H436c.2,0,.4,-.1,.4,-.3c0,-.3,-.2,-.4,-.4,-.4h-2.3c-.2,0,-.4,.1,-.4,.4c0,.2,.2,.3,.4,.3m3.9,0h2.3c.2,0,.4,-.1,.4,-.3c0,-.3,-.2,-.4,-.4,-.4h-2.3c-.2,0,-.4,.1,-.4,.4c0,.2,.2,.3,.4,.3m3.8,0h2.4c.2,0,.3,-.1,.3,-.3c0,-.3,-.1,-.4,-.3,-.4h-2.4c-.2,0,-.3,.1,-.3,.4c0,.2,.1,.3,.3,.3m3.9,0h2.3c.3,0,.4,-.1,.4,-.3c0,-.3,-.1,-.4,-.4,-.4h-2.3c-.2,0,-.4,.1,-.4,.4c0,.2,.2,.3,.4,.3m3.9,0h2.3c.2,0,.4,-.1,.4,-.3c0,-.3,-.2,-.4,-.4,-.4h-2.3c-.2,0,-.4,.1,-.4,.4c0,.2,.2,.3,.4,.3m3.9,0h2.3c.2,0,.4,-.1,.4,-.3c0,-.3,-.2,-.4,-.4,-.4h-2.3c-.2,0,-.4,.1,-.4,.4c0,.2,.2,.3,.4,.3m3.9,0h2.3c.2,0,.4,-.1,.4,-.3c0,-.3,-.2,-.4,-.4,-.4H457c-.2,0,-.4,.1,-.4,.4c0,.2,.2,.3,.4,.3m3.9,0h2.3c.2,0,.4,-.1,.4,-.3c0,-.3,-.2,-.4,-.4,-.4h-2.3c-.3,0,-.4,.1,-.4,.4c0,.2,.1,.3,.4,.3m3.8,0h2.4c.2,0,.3,-.1,.3,-.3c0,-.3,-.1,-.4,-.3,-.4h-2.4c-.2,0,-.3,.1,-.3,.4c0,.2,.1,.3,.3,.3m3.9,0h2.3c.3,0,.4,-.1,.4,-.3c0,-.3,-.1,-.4,-.4,-.4h-2.3c-.2,0,-.4,.1,-.4,.4c0,.2,.2,.3,.4,.3m3.9,0h2.3c.2,0,.4,-.1,.4,-.3c0,-.3,-.2,-.4,-.4,-.4h-2.3c-.2,0,-.4,.1,-.4,.4c0,.2,.2,.3,.4,.3m3.9,0h2.3c.2,0,.4,-.1,.4,-.3c0,-.3,-.2,-.4,-.4,-.4h-2.3c-.2,0,-.4,.1,-.4,.4c0,.2,.2,.3,.4,.3m3.9,0h2.3c.2,0,.4,-.1,.4,-.3c0,-.3,-.2,-.4,-.4,-.4h-2.3c-.2,0,-.4,.1,-.4,.4c0,.2,.2,.3,.4,.3m3.8,0h2.4c.2,0,.4,-.1,.4,-.3c0,-.3,-.2,-.4,-.4,-.4h-2.4c-.2,0,-.3,.1,-.3,.4c0,.2,.1,.3,.3,.3m3.9,0h2.4c.2,0,.3,-.1,.3,-.3c0,-.3,-.1,-.4,-.3,-.4H488c-.2,0,-.4,.1,-.4,.4c0,.2,.2,.3,.4,.3m3.9,0h2.3c.2,0,.4,-.1,.4,-.3c0,-.3,-.2,-.4,-.4,-.4h-2.3c-.2,0,-.4,.1,-.4,.4c0,.2,.2,.3,.4,.3m3.9,0h2.3c.2,0,.4,-.1,.4,-.3c0,-.3,-.2,-.4,-.4,-.4h-2.3c-.2,0,-.4,.1,-.4,.4c0,.2,.2,.3,.4,.3Z" class="g5_20"/>
<path d="M423.6,342.4h79v-6.8h-79v6.8Z" class="g9_20"/>
<image clip-path="url(#cg_20)" preserveAspectRatio="none" x="769" y="318" width="98" height="30" xlink:href="img/20.jpg"/>
<image clip-path="url(#ch_20)" preserveAspectRatio="none" x="779" y="246" width="88" height="73" xlink:href="img/21.jpg"/>
<image clip-path="url(#ci_20)" preserveAspectRatio="none" x="778" y="339" width="89" height="4" xlink:href="img/22.jpg"/>
<image clip-path="url(#cj_20)" preserveAspectRatio="none" x="779" y="264" width="73" height="3" xlink:href="img/23.jpg"/>
<path d="M794.4,259c-10.1,0,-18.3,8.2,-18.3,18.3v64.2h79V277.3c0,-10.1,-8.2,-18.3,-18.3,-18.3Z" class="g4_20"/>
<path d="M776,342.4h79.1v-7.2H776v7.2Z" class="g9_20"/>
<path d="M781.4,317.4h2.4c.2,0,.3,-.1,.3,-.3c0,-.3,-.1,-.4,-.3,-.4h-2.4c-.2,0,-.3,.1,-.3,.4c0,.2,.1,.3,.3,.3m3.9,0h2.3c.3,0,.4,-.1,.4,-.3c0,-.3,-.1,-.4,-.4,-.4h-2.3c-.2,0,-.4,.1,-.4,.4c0,.2,.2,.3,.4,.3m3.9,0h2.3c.2,0,.4,-.1,.4,-.3c0,-.3,-.2,-.4,-.4,-.4h-2.3c-.2,0,-.4,.1,-.4,.4c0,.2,.2,.3,.4,.3m3.9,0h2.3c.2,0,.4,-.1,.4,-.3c0,-.3,-.2,-.4,-.4,-.4h-2.3c-.2,0,-.4,.1,-.4,.4c0,.2,.2,.3,.4,.3m3.9,0h2.3c.2,0,.4,-.1,.4,-.3c0,-.3,-.2,-.4,-.4,-.4H797c-.2,0,-.4,.1,-.4,.4c0,.2,.2,.3,.4,.3m3.8,0h2.4c.2,0,.4,-.1,.4,-.3c0,-.3,-.2,-.4,-.4,-.4h-2.4c-.2,0,-.3,.1,-.3,.4c0,.2,.1,.3,.3,.3m3.9,0h2.4c.2,0,.3,-.1,.3,-.3c0,-.3,-.1,-.4,-.3,-.4h-2.4c-.2,0,-.4,.1,-.4,.4c0,.2,.2,.3,.4,.3m3.9,0h2.3c.2,0,.4,-.1,.4,-.3c0,-.3,-.2,-.4,-.4,-.4h-2.3c-.2,0,-.4,.1,-.4,.4c0,.2,.2,.3,.4,.3m3.9,0h2.3c.2,0,.4,-.1,.4,-.3c0,-.3,-.2,-.4,-.4,-.4h-2.3c-.2,0,-.4,.1,-.4,.4c0,.2,.2,.3,.4,.3m3.9,0h2.3c.2,0,.4,-.1,.4,-.3c0,-.3,-.2,-.4,-.4,-.4h-2.3c-.2,0,-.4,.1,-.4,.4c0,.2,.2,.3,.4,.3m3.9,0h2.3c.2,0,.4,-.1,.4,-.3c0,-.3,-.2,-.4,-.4,-.4h-2.3c-.3,0,-.4,.1,-.4,.4c0,.2,.1,.3,.4,.3m3.8,0h2.4c.2,0,.3,-.1,.3,-.3c0,-.3,-.1,-.4,-.3,-.4h-2.4c-.2,0,-.3,.1,-.3,.4c0,.2,.1,.3,.3,.3m3.9,0h2.3c.3,0,.4,-.1,.4,-.3c0,-.3,-.1,-.4,-.4,-.4H828c-.2,0,-.4,.1,-.4,.4c0,.2,.2,.3,.4,.3m3.9,0h2.3c.2,0,.4,-.1,.4,-.3c0,-.3,-.2,-.4,-.4,-.4h-2.3c-.2,0,-.4,.1,-.4,.4c0,.2,.2,.3,.4,.3m3.9,0h2.3c.2,0,.4,-.1,.4,-.3c0,-.3,-.2,-.4,-.4,-.4h-2.3c-.2,0,-.4,.1,-.4,.4c0,.2,.2,.3,.4,.3m3.9,0H842c.2,0,.4,-.1,.4,-.3c0,-.3,-.2,-.4,-.4,-.4h-2.3c-.2,0,-.4,.1,-.4,.4c0,.2,.2,.3,.4,.3m3.8,0h2.4c.2,0,.4,-.1,.4,-.3c0,-.3,-.2,-.4,-.4,-.4h-2.4c-.2,0,-.3,.1,-.3,.4c0,.2,.1,.3,.3,.3m3.9,0h2.4c.2,0,.3,-.1,.3,-.3c0,-.3,-.1,-.4,-.3,-.4h-2.4c-.2,0,-.4,.1,-.4,.4c0,.2,.2,.3,.4,.3Z" class="ga_20"/>
<path d="M780.8,281h2.3c.2,0,.4,-.1,.4,-.3c0,-.3,-.2,-.4,-.4,-.4h-2.3c-.2,0,-.4,.1,-.4,.4c0,.2,.2,.3,.4,.3m3.9,0H787c.2,0,.4,-.1,.4,-.3c0,-.3,-.2,-.4,-.4,-.4h-2.3c-.2,0,-.4,.1,-.4,.4c0,.2,.2,.3,.4,.3m3.9,0h2.3c.2,0,.4,-.1,.4,-.3c0,-.3,-.2,-.4,-.4,-.4h-2.3c-.3,0,-.4,.1,-.4,.4c0,.2,.1,.3,.4,.3m3.8,0h2.4c.2,0,.3,-.1,.3,-.3c0,-.3,-.1,-.4,-.3,-.4h-2.4c-.2,0,-.3,.1,-.3,.4c0,.2,.1,.3,.3,.3m3.9,0h2.3c.2,0,.4,-.1,.4,-.3c0,-.3,-.2,-.4,-.4,-.4h-2.3c-.2,0,-.4,.1,-.4,.4c0,.2,.2,.3,.4,.3m3.9,0h2.3c.2,0,.4,-.1,.4,-.3c0,-.3,-.2,-.4,-.4,-.4h-2.3c-.2,0,-.4,.1,-.4,.4c0,.2,.2,.3,.4,.3m3.9,0h2.3c.2,0,.4,-.1,.4,-.3c0,-.3,-.2,-.4,-.4,-.4h-2.3c-.2,0,-.4,.1,-.4,.4c0,.2,.2,.3,.4,.3m3.9,0h2.3c.2,0,.4,-.1,.4,-.3c0,-.3,-.2,-.4,-.4,-.4H808c-.2,0,-.4,.1,-.4,.4c0,.2,.2,.3,.4,.3m3.8,0h2.4c.2,0,.3,-.1,.3,-.3c0,-.3,-.1,-.4,-.3,-.4h-2.4c-.2,0,-.3,.1,-.3,.4c0,.2,.1,.3,.3,.3m3.9,0H818c.3,0,.4,-.1,.4,-.3c0,-.3,-.1,-.4,-.4,-.4h-2.3c-.2,0,-.4,.1,-.4,.4c0,.2,.2,.3,.4,.3m3.9,0h2.3c.2,0,.4,-.1,.4,-.3c0,-.3,-.2,-.4,-.4,-.4h-2.3c-.2,0,-.4,.1,-.4,.4c0,.2,.2,.3,.4,.3m3.9,0h2.3c.2,0,.4,-.1,.4,-.3c0,-.3,-.2,-.4,-.4,-.4h-2.3c-.2,0,-.4,.1,-.4,.4c0,.2,.2,.3,.4,.3m3.9,0h2.3c.2,0,.4,-.1,.4,-.3c0,-.3,-.2,-.4,-.4,-.4h-2.3c-.2,0,-.4,.1,-.4,.4c0,.2,.2,.3,.4,.3m3.9,0h2.3c.2,0,.4,-.1,.4,-.3c0,-.3,-.2,-.4,-.4,-.4h-2.3c-.3,0,-.4,.1,-.4,.4c0,.2,.1,.3,.4,.3m3.8,0h2.4c.2,0,.3,-.1,.3,-.3c0,-.3,-.1,-.4,-.3,-.4h-2.4c-.2,0,-.3,.1,-.3,.4c0,.2,.1,.3,.3,.3m3.9,0h2.3c.3,0,.4,-.1,.4,-.3c0,-.3,-.1,-.4,-.4,-.4H839c-.2,0,-.4,.1,-.4,.4c0,.2,.2,.3,.4,.3m3.9,0h2.3c.2,0,.4,-.1,.4,-.3c0,-.3,-.2,-.4,-.4,-.4h-2.3c-.2,0,-.4,.1,-.4,.4c0,.2,.2,.3,.4,.3m3.9,0h2.3c.2,0,.4,-.1,.4,-.3c0,-.3,-.2,-.4,-.4,-.4h-2.3c-.2,0,-.4,.1,-.4,.4c0,.2,.2,.3,.4,.3Z" class="ga_20"/>
<path d="M829.5,297.8v.7h4.6c1.1,0,2,-.9,2,-2v-.4c0,-1.1,-.9,-2,-2,-2h-4.6c-.5,-.1,-1,.2,-1.4,.5c-.1,.1,-.2,.3,-.2,.5v.3c0,.1,-.1,.3,-.2,.4c-.2,.2,-.3,.4,-.3,.6v.1c0,1.1,1,2,2.1,2v-1.3c-.4,0,-.7,-.3,-.7,-.7v-.1h-.7l.5,.5c.4,-.4,.7,-.9,.7,-1.5v-.3h-.7l.4,.5c.2,-.1,.3,-.2,.5,-.2h4.6c.3,0,.6,.3,.6,.7v.4c0,.4,-.3,.7,-.6,.7h-4.6Z" class="ga_20"/>
<path d="M828.6,288.5l-.5,.5c.4,.3,.9,.6,1.4,.6h4.6c1.1,0,2,-1,2,-2.1v-.4c0,-1.1,-.9,-2,-2,-2h-4.6c-1.1,0,-2.1,.9,-2.1,2v.2c0,.2,.1,.4,.3,.5c.1,.1,.2,.3,.2,.5v.2c0,.2,.1,.4,.2,.5l.5,-.5h.7v-.2c0,-.6,-.3,-1.2,-.7,-1.5l-.5,.5h.7v-.2c0,-.3,.3,-.6,.7,-.6h4.6c.3,0,.6,.3,.6,.6v.4c0,.4,-.3,.7,-.6,.7h-4.6c-.2,0,-.3,-.1,-.5,-.2l-.4,.5h.7Z" class="ga_20"/>
<path d="M835.1,297.3v.7H837c1,0,1.8,-.8,1.8,-1.8v-8.7c0,-1,-.8,-1.9,-1.8,-1.9h-1.8c-.3,0,-.5,.2,-.7,.4c-.1,.2,-.1,.5,.1,.7c.1,.1,.1,.3,.1,.4v.4c0,.4,-.3,.7,-.6,.7h-4.6c-.2,0,-.3,-.1,-.5,-.2c-.2,-.2,-.4,-.2,-.7,-.1c-.2,.1,-.4,.3,-.4,.6v6.6c0,.3,.2,.5,.4,.6c.3,.1,.5,.1,.7,-.1c.2,-.1,.3,-.2,.5,-.2h4.6c.3,0,.6,.3,.6,.7v.4c0,.1,0,.3,-.1,.4c-.2,.2,-.2,.5,-.1,.7c.1,.3,.3,.4,.6,.4v-.7l.5,.5c.3,-.4,.5,-.8,.5,-1.3v-.4c0,-1.1,-.9,-2,-2,-2h-4.6c-.5,0,-1,.2,-1.4,.5l.5,.5h.7v-6.6h-.7l-.5,.5c.4,.3,.9,.6,1.4,.6h4.6c1.1,0,2,-1,2,-2.1v-.4c0,-.4,-.2,-.8,-.4,-1.2l-.5,.4v.7H837c.2,0,.4,.2,.4,.5v8.7c0,.2,-.2,.4,-.4,.4h-1.9v.7l.5,.5Z" class="ga_20"/>
<path d="M828.6,288.3h.7c0,-1.1,-.9,-2.1,-2.1,-2.1h-.6c-1.2,0,-2.1,1,-2.1,2.1v7.1c0,1.1,.9,2,2.1,2h.6c1.2,0,2.1,-.9,2.1,-2v-7.1h-1.4v7.1c0,.3,-.3,.6,-.7,.6h-.6c-.4,0,-.7,-.3,-.7,-.6v-7.1c0,-.4,.3,-.7,.7,-.7h.6c.4,0,.7,.3,.7,.7Z" class="ga_20"/>
<path d="M829.5,310.6v.7h4.6c1.1,0,2,-.9,2,-2v-.4c0,-1.2,-.9,-2.1,-2,-2.1h-4.6c-.5,0,-1,.2,-1.4,.6c-.1,.1,-.2,.3,-.2,.5v.2c0,.2,-.1,.4,-.2,.5c-.2,.2,-.3,.3,-.3,.5v.2c0,1.1,1,2,2.1,2v-1.4c-.4,0,-.7,-.3,-.7,-.6v-.2h-.7l.5,.5c.4,-.3,.7,-.9,.7,-1.5v-.2h-.7l.4,.5c.2,-.1,.3,-.2,.5,-.2h4.6c.3,0,.6,.3,.6,.7v.4c0,.3,-.3,.6,-.6,.6h-4.6Z" class="ga_20"/>
<path d="M828.6,301.3l-.5,.5c.4,.3,.9,.5,1.4,.5h4.6c1.1,0,2,-.9,2,-2v-.4c0,-1.1,-.9,-2,-2,-2h-4.6c-1.1,0,-2.1,.9,-2.1,2v.2c0,.2,.1,.3,.3,.5c.1,.1,.2,.3,.2,.5v.2c0,.2,.1,.4,.2,.5l.5,-.5h.7v-.2c0,-.6,-.3,-1.2,-.7,-1.5l-.5,.5h.7v-.2c0,-.4,.3,-.7,.7,-.7h4.6c.3,0,.6,.3,.6,.7v.4c0,.4,-.3,.7,-.6,.7h-4.6c-.2,0,-.3,-.1,-.5,-.2l-.4,.5h.7Z" class="ga_20"/>
<path d="M835.1,310.1v.7H837c1,0,1.8,-.8,1.8,-1.8v-8.8c0,-1,-.8,-1.8,-1.8,-1.8h-1.8c-.3,0,-.5,.2,-.7,.4c-.1,.2,-.1,.5,.1,.7c.1,.1,.1,.3,.1,.4v.4c0,.4,-.3,.7,-.6,.7h-4.6c-.2,0,-.3,-.1,-.5,-.2c-.2,-.2,-.4,-.2,-.7,-.1c-.2,.1,-.4,.3,-.4,.6v6.6c0,.2,.2,.5,.4,.6c.3,.1,.5,.1,.7,-.1c.2,-.1,.3,-.2,.5,-.2h4.6c.3,0,.6,.3,.6,.7v.4c0,.1,0,.3,-.1,.4c-.2,.2,-.2,.5,-.1,.7c.1,.2,.3,.4,.6,.4v-.7l.5,.4c.3,-.3,.5,-.7,.5,-1.2v-.4c0,-1.2,-.9,-2.1,-2,-2.1h-4.6c-.5,0,-1,.2,-1.4,.6l.5,.5h.7v-6.6h-.7l-.5,.5c.4,.3,.9,.5,1.4,.5h4.6c1.1,0,2,-.9,2,-2v-.4c0,-.4,-.2,-.9,-.4,-1.2l-.5,.4v.7H837c.2,0,.4,.2,.4,.4V309c0,.2,-.2,.4,-.4,.4h-1.9v.7l.5,.4Z" class="ga_20"/>
<path d="M828.6,301.1h.7c0,-1.2,-.9,-2.1,-2.1,-2.1h-.6c-1.2,0,-2.1,.9,-2.1,2.1v7c0,1.2,.9,2.1,2.1,2.1h.6c1.2,0,2.1,-.9,2.1,-2.1v-7h-1.4v7c0,.4,-.3,.7,-.7,.7h-.6c-.4,0,-.7,-.3,-.7,-.7v-7c0,-.4,.3,-.7,.7,-.7h.6c.4,0,.7,.3,.7,.7Z" class="ga_20"/>
<path d="M814.2,297h3.2c.5,0,.9,-.2,.9,-.6v-.1c0,-.3,-.4,-.6,-.9,-.6h-3.2c-.2,0,-.5,.1,-.6,.2v.1c0,.1,-.2,.3,-.3,.4c0,.4,.4,.6,.9,.6Z" class="ga_20"/>
<path d="M813.7,287.2c.2,.1,.4,.1,.7,.1h3.3c.5,0,.9,-.2,.9,-.6v-.2c0,-.3,-.4,-.6,-.9,-.6h-3.3c-.6,0,-1,.3,-1,.6v.1c.2,.1,.3,.3,.3,.5Z" class="ga_20"/>
<path d="M819.5,297h1.8c.6,0,1.1,-.5,1.1,-1.1v-8.7c0,-.7,-.5,-1.2,-1.1,-1.2h-1.7c.1,.3,.2,.5,.2,.8v.4c0,.8,-.6,1.4,-1.3,1.4h-4.3c-.4,0,-.7,-.2,-.9,-.4v6.6c.2,-.2,.5,-.4,.9,-.4h4.3c.7,0,1.3,.6,1.3,1.4v.4c0,.3,-.1,.6,-.3,.8Z" class="ga_20"/>
<path d="M812,288.7c0,-.6,-.5,-1,-1.1,-1c-.6,0,-1.1,.4,-1.1,1v5.6c0,.6,.5,1.1,1.1,1.1c.6,0,1.1,-.5,1.1,-1.1Z" class="ga_20"/>
<path d="M813.8,310.6v.7h4.5c1.1,0,2.1,-.9,2.1,-2v-.4c0,-1.2,-1,-2.1,-2.1,-2.1h-4.5c-.6,0,-1.1,.2,-1.4,.6c-.2,.1,-.2,.3,-.2,.5v.2c0,.2,-.1,.4,-.3,.5c-.1,.2,-.2,.3,-.2,.5v.2c0,1.1,.9,2,2.1,2v-1.4c-.4,0,-.7,-.3,-.7,-.6v-.2h-.7l.5,.5c.4,-.3,.6,-.9,.6,-1.5v-.2h-.7l.5,.5c.1,-.1,.3,-.2,.5,-.2h4.5c.4,0,.7,.3,.7,.7v.4c0,.3,-.3,.6,-.7,.6h-4.5Z" class="ga_20"/>
<path d="M812.8,301.3l-.4,.5c.3,.3,.8,.5,1.4,.5h4.5c1.1,0,2.1,-.9,2.1,-2v-.4c0,-1.1,-1,-2,-2.1,-2h-4.5c-1.2,0,-2.1,.9,-2.1,2v.2c0,.2,.1,.3,.2,.5c.2,.1,.3,.3,.3,.5v.2c0,.2,0,.4,.2,.5l.4,-.5h.7v-.2c0,-.6,-.2,-1.2,-.6,-1.5l-.5,.5h.7v-.2c0,-.4,.3,-.7,.7,-.7h4.5c.4,0,.7,.3,.7,.7v.4c0,.4,-.3,.7,-.7,.7h-4.5c-.2,0,-.4,-.1,-.5,-.2l-.5,.5h.7Z" class="ga_20"/>
<path d="M819.4,310.1v.7h1.9c1,0,1.8,-.8,1.8,-1.8v-8.8c0,-1,-.8,-1.8,-1.8,-1.8h-1.9c-.2,0,-.5,.2,-.6,.4c-.1,.2,-.1,.5,.1,.7c0,.1,.1,.3,.1,.4v.4c0,.4,-.3,.7,-.7,.7h-4.5c-.2,0,-.4,-.1,-.5,-.2c-.2,-.2,-.5,-.2,-.7,-.1c-.3,.1,-.4,.3,-.4,.6v6.6c0,.2,.1,.5,.4,.6c.2,.1,.5,.1,.7,-.1c.1,-.1,.3,-.2,.5,-.2h4.5c.4,0,.7,.3,.7,.7v.4c0,.1,-.1,.3,-.2,.4c-.1,.2,-.2,.5,-.1,.7c.2,.2,.4,.4,.7,.4v-.7l.5,.4c.3,-.3,.5,-.7,.5,-1.2v-.4c0,-1.2,-1,-2.1,-2.1,-2.1h-4.5c-.6,0,-1.1,.2,-1.4,.6l.4,.5h.7v-6.6h-.7l-.4,.5c.3,.3,.8,.5,1.4,.5h4.5c1.1,0,2.1,-.9,2.1,-2v-.4c0,-.4,-.2,-.9,-.4,-1.2l-.6,.4v.7h1.9c.2,0,.4,.2,.4,.4V309c0,.2,-.2,.4,-.4,.4h-1.9v.7l.5,.4Z" class="ga_20"/>
<path d="M812.8,301.1h.7c0,-1.2,-.9,-2.1,-2,-2.1h-.7c-1.1,0,-2,.9,-2,2.1v7c0,1.2,.9,2.1,2,2.1h.7c1.1,0,2,-.9,2,-2.1v-7h-1.3v7c0,.4,-.3,.7,-.7,.7h-.7c-.4,0,-.7,-.3,-.7,-.7v-7c0,-.4,.3,-.7,.7,-.7h.7c.4,0,.7,.3,.7,.7Z" class="ga_20"/>
<path d="M798,297.8v.7h4.6c1.1,0,2,-.9,2,-2v-.4c0,-1.1,-.9,-2,-2,-2H798c-.5,-.1,-1,.2,-1.4,.5c-.1,.1,-.2,.3,-.2,.5v.3c0,.1,-.1,.3,-.2,.4c-.1,.2,-.2,.4,-.2,.6v.1c0,1.1,.9,2,2,2v-1.3c-.4,0,-.7,-.3,-.7,-.7v-.1h-.6l.4,.5c.4,-.4,.7,-.9,.7,-1.5v-.3h-.7l.5,.5c.1,-.1,.2,-.2,.4,-.2h4.6c.3,0,.6,.3,.6,.7v.4c0,.4,-.2,.7,-.6,.7H798Z" class="ga_20"/>
<path d="M797.1,288.5l-.5,.5c.4,.3,.9,.6,1.4,.6h4.6c1.1,0,2,-1,2,-2.1v-.4c0,-1.1,-.9,-2,-2,-2H798c-1.1,0,-2,.9,-2,2v.2c0,.2,.1,.4,.2,.5c.1,.1,.2,.3,.2,.5v.2c0,.2,.1,.4,.2,.5l.5,-.5h.7v-.2c0,-.6,-.3,-1.2,-.7,-1.5l-.4,.5h.6v-.2c0,-.3,.3,-.6,.7,-.6h4.6c.3,0,.6,.3,.6,.6v.4c0,.4,-.3,.7,-.6,.7H798c-.2,0,-.3,-.1,-.4,-.2l-.5,.5h.7Z" class="ga_20"/>
<path d="M803.6,297.3v.7h1.9c1,0,1.8,-.8,1.8,-1.8v-8.7c0,-1,-.8,-1.9,-1.8,-1.9h-1.8c-.3,0,-.5,.2,-.6,.4c-.2,.2,-.1,.5,0,.7c.1,.1,.1,.3,.1,.4v.4c0,.4,-.3,.7,-.6,.7H798c-.2,0,-.3,-.1,-.4,-.2c-.2,-.2,-.5,-.2,-.8,-.1c-.2,.1,-.4,.3,-.4,.6v6.6c0,.3,.2,.5,.4,.6c.3,.1,.6,.1,.8,-.1c.1,-.1,.2,-.2,.4,-.2h4.6c.3,0,.6,.3,.6,.7v.4c0,.1,0,.3,-.1,.4c-.2,.2,-.2,.5,-.1,.7c.1,.3,.4,.4,.6,.4v-.7l.6,.5c.2,-.4,.4,-.8,.4,-1.3v-.4c0,-1.1,-.9,-2,-2,-2H798c-.5,0,-1,.2,-1.4,.5l.5,.5h.7v-6.6h-.7l-.5,.5c.4,.3,.9,.6,1.4,.6h4.6c1.1,0,2,-1,2,-2.1v-.4c0,-.4,-.1,-.8,-.4,-1.2l-.5,.4v.7h1.8c.3,0,.5,.2,.5,.5v8.7c0,.2,-.2,.4,-.5,.4h-1.9v.7l.6,.5Z" class="ga_20"/>
<path d="M797.1,288.3h.7c0,-1.1,-.9,-2.1,-2,-2.1h-.7c-1.2,0,-2.1,1,-2.1,2.1v7.1c0,1.1,.9,2,2.1,2h.7c1.1,0,2,-.9,2,-2v-7.1h-1.4v7.1c0,.3,-.3,.6,-.6,.6h-.7c-.4,0,-.7,-.3,-.7,-.6v-7.1c0,-.4,.3,-.7,.7,-.7h.7c.3,0,.6,.3,.6,.7Z" class="ga_20"/>
<path d="M798,310.6v.7h4.6c1.1,0,2,-.9,2,-2v-.4c0,-1.2,-.9,-2.1,-2,-2.1H798c-.5,0,-1,.2,-1.4,.6c-.1,.1,-.2,.3,-.2,.5v.2c0,.2,-.1,.4,-.2,.5c-.1,.2,-.2,.3,-.2,.5v.2c0,1.1,.9,2,2,2v-1.4c-.4,0,-.7,-.3,-.7,-.6v-.2h-.6l.4,.5c.4,-.3,.7,-.9,.7,-1.5v-.2h-.7l.5,.5c.1,-.1,.2,-.2,.4,-.2h4.6c.4,0,.6,.3,.6,.7v.4c0,.3,-.2,.6,-.6,.6H798Z" class="ga_20"/>
<path d="M797.1,301.3l-.5,.5c.4,.3,.9,.5,1.4,.5h4.6c1.1,0,2,-.9,2,-2v-.4c0,-1.1,-.9,-2,-2,-2H798c-1.1,0,-2,.9,-2,2v.2c0,.2,.1,.3,.2,.5c.1,.1,.2,.3,.2,.5v.2c0,.2,.1,.4,.2,.5l.5,-.5h.7v-.2c0,-.6,-.3,-1.2,-.7,-1.5l-.4,.5h.6v-.2c0,-.4,.3,-.7,.7,-.7h4.6c.3,0,.6,.3,.6,.7v.4c0,.4,-.3,.7,-.6,.7H798c-.2,0,-.3,-.1,-.4,-.2l-.5,.5h.7Z" class="ga_20"/>
<path d="M803.6,310.1v.7h1.9c1,0,1.8,-.8,1.8,-1.8v-8.8c0,-1,-.8,-1.8,-1.8,-1.8h-1.8c-.3,0,-.5,.2,-.6,.4c-.2,.2,-.1,.5,0,.7c.1,.1,.1,.3,.1,.4v.4c0,.4,-.3,.7,-.6,.7H798c-.2,0,-.3,-.1,-.4,-.2c-.2,-.2,-.5,-.2,-.8,-.1c-.2,.1,-.4,.3,-.4,.6v6.6c0,.2,.2,.5,.4,.6c.3,.1,.6,.1,.8,-.1c.1,-.1,.2,-.2,.4,-.2h4.6c.3,0,.6,.3,.6,.7v.4c0,.1,0,.3,-.1,.4c-.2,.2,-.2,.5,-.1,.7c.1,.2,.4,.4,.6,.4v-.7l.6,.4c.2,-.3,.4,-.7,.4,-1.2v-.4c0,-1.2,-.9,-2.1,-2,-2.1H798c-.5,0,-1,.2,-1.4,.6l.5,.5h.7v-6.6h-.7l-.5,.5c.4,.3,.9,.5,1.4,.5h4.6c1.1,0,2,-.9,2,-2v-.4c0,-.4,-.1,-.9,-.4,-1.2l-.5,.4v.7h1.8c.3,0,.5,.2,.5,.4V309c0,.2,-.2,.4,-.5,.4h-1.9v.7l.6,.4Z" class="ga_20"/>
<path d="M797.1,301.1h.7c0,-1.2,-.9,-2.1,-2,-2.1h-.7c-1.2,0,-2.1,.9,-2.1,2.1v7c0,1.2,.9,2.1,2.1,2.1h.7c1.1,0,2,-.9,2,-2.1v-7h-1.4v7c0,.4,-.3,.7,-.6,.7h-.7c-.4,0,-.7,-.3,-.7,-.7v-7c0,-.4,.3,-.7,.7,-.7h.7c.3,0,.6,.3,.6,.7Z" class="ga_20"/>
<image clip-path="url(#ck_20)" preserveAspectRatio="none" x="681" y="318" width="89" height="30" xlink:href="img/24.jpg"/>
<image clip-path="url(#cl_20)" preserveAspectRatio="none" x="691" y="246" width="88" height="73" xlink:href="img/25.jpg"/>
<image clip-path="url(#cm_20)" preserveAspectRatio="none" x="690" y="339" width="80" height="4" xlink:href="img/26.jpg"/>
<image clip-path="url(#cn_20)" preserveAspectRatio="none" x="768" y="318" width="11" height="30" xlink:href="img/27.jpg"/>
<image clip-path="url(#co_20)" preserveAspectRatio="none" x="769" y="246" width="10" height="73" xlink:href="img/28.jpg"/>
<image clip-path="url(#cp_20)" preserveAspectRatio="none" x="768" y="339" width="11" height="4" xlink:href="img/29.jpg"/>
<image clip-path="url(#cq_20)" preserveAspectRatio="none" x="775" y="267" width="4" height="69" xlink:href="img/30.jpg"/>
<image clip-path="url(#cr_20)" preserveAspectRatio="none" x="775" y="335" width="4" height="8" xlink:href="img/31.jpg"/>
<path d="M706.3,259c-10.1,0,-18.3,8.2,-18.3,18.3v64.2h79V277.3C767,267.2,758.8,259,748.7,259Z" class="g4_20"/>
<path d="M687.9,342.4H767v-7.2H687.9v7.2Z" class="g9_20"/>
<path d="M693.3,317.4h2.4c.2,0,.3,-.1,.3,-.3c0,-.3,-.1,-.4,-.3,-.4h-2.4c-.2,0,-.3,.1,-.3,.4c0,.2,.1,.3,.3,.3m3.9,0h2.3c.3,0,.4,-.1,.4,-.3c0,-.3,-.1,-.4,-.4,-.4h-2.3c-.2,0,-.4,.1,-.4,.4c0,.2,.2,.3,.4,.3m3.9,0h2.3c.2,0,.4,-.1,.4,-.3c0,-.3,-.2,-.4,-.4,-.4h-2.3c-.2,0,-.4,.1,-.4,.4c0,.2,.2,.3,.4,.3m3.9,0h2.3c.2,0,.4,-.1,.4,-.3c0,-.3,-.2,-.4,-.4,-.4H705c-.2,0,-.4,.1,-.4,.4c0,.2,.2,.3,.4,.3m3.9,0h2.3c.2,0,.4,-.1,.4,-.3c0,-.3,-.2,-.4,-.4,-.4h-2.3c-.2,0,-.4,.1,-.4,.4c0,.2,.2,.3,.4,.3m3.9,0h2.3c.2,0,.4,-.1,.4,-.3c0,-.3,-.2,-.4,-.4,-.4h-2.3c-.3,0,-.4,.1,-.4,.4c0,.2,.1,.3,.4,.3m3.8,0H719c.2,0,.3,-.1,.3,-.3c0,-.3,-.1,-.4,-.3,-.4h-2.4c-.2,0,-.3,.1,-.3,.4c0,.2,.1,.3,.3,.3m3.9,0h2.3c.2,0,.4,-.1,.4,-.3c0,-.3,-.2,-.4,-.4,-.4h-2.3c-.2,0,-.4,.1,-.4,.4c0,.2,.2,.3,.4,.3m3.9,0h2.3c.2,0,.4,-.1,.4,-.3c0,-.3,-.2,-.4,-.4,-.4h-2.3c-.2,0,-.4,.1,-.4,.4c0,.2,.2,.3,.4,.3m3.9,0h2.3c.2,0,.4,-.1,.4,-.3c0,-.3,-.2,-.4,-.4,-.4h-2.3c-.2,0,-.4,.1,-.4,.4c0,.2,.2,.3,.4,.3m3.9,0h2.3c.2,0,.4,-.1,.4,-.3c0,-.3,-.2,-.4,-.4,-.4h-2.3c-.2,0,-.4,.1,-.4,.4c0,.2,.2,.3,.4,.3m3.8,0h2.4c.2,0,.3,-.1,.3,-.3c0,-.3,-.1,-.4,-.3,-.4H736c-.2,0,-.3,.1,-.3,.4c0,.2,.1,.3,.3,.3m3.9,0h2.3c.3,0,.4,-.1,.4,-.3c0,-.3,-.1,-.4,-.4,-.4h-2.3c-.2,0,-.4,.1,-.4,.4c0,.2,.2,.3,.4,.3m3.9,0h2.3c.2,0,.4,-.1,.4,-.3c0,-.3,-.2,-.4,-.4,-.4h-2.3c-.2,0,-.4,.1,-.4,.4c0,.2,.2,.3,.4,.3m3.9,0H750c.2,0,.4,-.1,.4,-.3c0,-.3,-.2,-.4,-.4,-.4h-2.3c-.2,0,-.4,.1,-.4,.4c0,.2,.2,.3,.4,.3m3.9,0h2.3c.2,0,.4,-.1,.4,-.3c0,-.3,-.2,-.4,-.4,-.4h-2.3c-.2,0,-.4,.1,-.4,.4c0,.2,.2,.3,.4,.3m3.9,0h2.3c.2,0,.4,-.1,.4,-.3c0,-.3,-.2,-.4,-.4,-.4h-2.3c-.3,0,-.4,.1,-.4,.4c0,.2,.1,.3,.4,.3m3.8,0h2.4c.2,0,.3,-.1,.3,-.3c0,-.3,-.1,-.4,-.3,-.4h-2.4c-.2,0,-.3,.1,-.3,.4c0,.2,.1,.3,.3,.3Z" class="gb_20"/>
<path d="M740.8,281H743c.2,0,.4,-.1,.4,-.3c0,-.3,-.2,-.4,-.4,-.4h-2.2c-.2,0,-.4,.1,-.4,.4c0,.2,.2,.3,.4,.3m3.7,0h2.3c.2,0,.3,-.1,.3,-.3c0,-.3,-.1,-.4,-.3,-.4h-2.3c-.2,0,-.4,.1,-.4,.4c0,.2,.2,.3,.4,.3m3.7,0h2.3c.2,0,.4,-.1,.4,-.3c0,-.3,-.2,-.4,-.4,-.4h-2.3c-.2,0,-.4,.1,-.4,.4c0,.2,.2,.3,.4,.3m3.7,0h2.3c.2,0,.4,-.1,.4,-.3c0,-.3,-.2,-.4,-.4,-.4h-2.3c-.2,0,-.3,.1,-.3,.4c0,.2,.1,.3,.3,.3m3.8,0h2.2c.2,0,.4,-.1,.4,-.3c0,-.3,-.2,-.4,-.4,-.4h-2.2c-.2,0,-.4,.1,-.4,.4c0,.2,.2,.3,.4,.3m3.7,0h2.2c.2,0,.4,-.1,.4,-.3c0,-.3,-.2,-.4,-.4,-.4h-2.2c-.2,0,-.4,.1,-.4,.4c0,.2,.2,.3,.4,.3Z" class="gb_20"/>
<path d="M693.4,281h2.2c.2,0,.4,-.1,.4,-.3c0,-.3,-.2,-.4,-.4,-.4h-2.2c-.2,0,-.4,.1,-.4,.4c0,.2,.2,.3,.4,.3m3.7,0h2.2c.2,0,.4,-.1,.4,-.3c0,-.3,-.2,-.4,-.4,-.4h-2.2c-.2,0,-.4,.1,-.4,.4c0,.2,.2,.3,.4,.3m3.7,0h2.3c.2,0,.3,-.1,.3,-.3c0,-.3,-.1,-.4,-.3,-.4h-2.3c-.2,0,-.4,.1,-.4,.4c0,.2,.2,.3,.4,.3m3.7,0h2.3c.2,0,.4,-.1,.4,-.3c0,-.3,-.2,-.4,-.4,-.4h-2.3c-.2,0,-.4,.1,-.4,.4c0,.2,.2,.3,.4,.3m3.8,0h2.2c.2,0,.4,-.1,.4,-.3c0,-.3,-.2,-.4,-.4,-.4h-2.2c-.3,0,-.4,.1,-.4,.4c0,.2,.1,.3,.4,.3m3.7,0h2.2c.2,0,.4,-.1,.4,-.3c0,-.3,-.2,-.4,-.4,-.4H712c-.2,0,-.4,.1,-.4,.4c0,.2,.2,.3,.4,.3Z" class="gb_20"/>
<path d="M718.2,283.7v-.8c-1.1,0,-2,.9,-2,2.1v29.3h22.9V285c0,-1.2,-.9,-2.1,-2.1,-2.1H718.2v1.5H737c.3,0,.6,.3,.6,.6v27.8H717.7V285c0,-.3,.2,-.6,.5,-.6Z" class="gb_20"/>
<path d="M720.2,278.6v-.3c-.5,0,-1,.4,-1,1v4.6h16.9v-4.6c0,-.6,-.5,-1,-1,-1H720.2v.7h14.9c.1,0,.3,.1,.3,.3v3.9H719.9v-3.9c0,-.2,.1,-.3,.3,-.3Z" class="gb_20"/>
<path d="M725.1,305.7h-.4v7.7l.1,.2l.3,.1h5.2l.2,-.1l.1,-.2v-7.7l-.1,-.2l-.2,-.1h-5.2l-.3,.1l-.1,.2h.4v.4h4.8V313h-4.5v-7.3h-.3v.4Z" class="gb_20"/>
<path d="M732,305.7h-.4v4.1l.1,.3l.3,.1h4.1l.3,-.1l.1,-.3v-4.1l-.1,-.2l-.3,-.1H732l-.3,.1l-.1,.2h.4v.4h3.8v3.4h-3.4v-3.8H732v.4Z" class="gb_20"/>
<path d="M719.2,305.7h-.4v4.1l.1,.3l.3,.1h4.1l.3,-.1l.1,-.3v-4.1l-.1,-.2l-.3,-.1h-4.1l-.3,.1l-.1,.2h.4v.4H723v3.4h-3.4v-3.8h-.4v.4Z" class="gb_20"/>
<path d="M727.3,309.7h.8v-1h-.8v1Z" class="gb_20"/>
<path d="M732,299.4h-.4v4.1l.1,.3l.3,.1h4.1l.3,-.1l.1,-.3v-4.1l-.1,-.3l-.3,-.1H732l-.3,.1l-.1,.3h.4v.4h3.8v3.3h-3.4v-3.7H732v.4Z" class="gb_20"/>
<path d="M725.6,299.4h-.4v4.1l.1,.3l.3,.1h4.1l.3,-.1l.1,-.3v-4.1l-.1,-.3l-.3,-.1h-4.1l-.3,.1l-.1,.3h.4v.4h3.8v3.3H726v-3.7h-.4v.4Z" class="gb_20"/>
<path d="M719.2,299.4h-.4v4.1l.1,.3l.3,.1h4.1l.3,-.1l.1,-.3v-4.1l-.1,-.3l-.3,-.1h-4.1l-.3,.1l-.1,.3h.4v.4H723v3.3h-3.4v-3.7h-.4v.4Z" class="gb_20"/>
<path d="M732,293.1h-.4v4.1l.1,.3l.3,.1h4.1l.3,-.1l.1,-.3v-4.1l-.1,-.3l-.3,-.1H732l-.3,.1l-.1,.3h.4v.4h3.8v3.3h-3.4v-3.7H732v.4Z" class="gb_20"/>
<path d="M725.6,293.1h-.4v4.1l.1,.3l.3,.1h4.1l.3,-.1l.1,-.3v-4.1l-.1,-.3l-.3,-.1h-4.1l-.3,.1l-.1,.3h.4v.4h3.8v3.3H726v-3.7h-.4v.4Z" class="gb_20"/>
<path d="M719.2,293.1h-.4v4.1l.1,.3l.3,.1h4.1l.3,-.1l.1,-.3v-4.1l-.1,-.3l-.3,-.1h-4.1l-.3,.1l-.1,.3h.4v.4H723v3.3h-3.4v-3.7h-.4v.4Z" class="gb_20"/>
<path d="M732,286.8h-.4v4.1l.1,.3l.3,.1h4.1l.3,-.1l.1,-.3v-4.1l-.1,-.3l-.3,-.1H732l-.3,.1l-.1,.3h.4v.4h3.8v3.3h-3.4v-3.7H732v.4Z" class="gb_20"/>
<path d="M725.6,286.8h-.4v4.1l.1,.3l.3,.1h4.1l.3,-.1l.1,-.3v-4.1l-.1,-.3l-.3,-.1h-4.1l-.3,.1l-.1,.3h.4v.4h3.8v3.3H726v-3.7h-.4v.4Z" class="gb_20"/>
<path d="M719.2,286.8h-.4v4.1l.1,.3l.3,.1h4.1l.3,-.1l.1,-.3v-4.1l-.1,-.3l-.3,-.1h-4.1l-.3,.1l-.1,.3h.4v.4H723v3.3h-3.4v-3.7h-.4v.4Z" class="gb_20"/>
<path d="M722.8,279.7l-.2,-.1l-.5,.7l-.8,.2l-.2,.1l.1,.3l.5,.6v.8l.1,.2l.2,.1l.8,-.3l.7,.3l.3,-.1l.1,-.2l-.1,-.8l.5,-.6l.1,-.3l-.2,-.1l-.8,-.2l-.4,-.7l-.2,-.1l-.2,.1l.2,.1l-.2,.1l.4,.8l.2,.1l.5,.1l-.3,.5l-.1,.1l.1,.6l-.6,-.2h-.1l-.6,.2l.1,-.6l-.1,-.1l-.3,-.5l.5,-.1l.2,-.1l.5,-.8l-.2,-.1l-.2,.1Z" class="gb_20"/>
<path d="M727.6,279.7l-.2,-.1l-.4,.7l-.8,.2l-.2,.1l.1,.3l.5,.6l-.1,.8l.1,.2l.3,.1l.7,-.3l.8,.3l.2,-.1l.1,-.2v-.8l.5,-.6l.1,-.3l-.2,-.1l-.8,-.2l-.5,-.7l-.2,-.1l-.2,.1l.2,.1l-.2,.1l.5,.8l.2,.1l.5,.1l-.3,.5l-.1,.1v.6l-.5,-.2h-.2l-.5,.2l.1,-.6l-.1,-.1l-.4,-.5l.6,-.1l.1,-.1l.5,-.8l-.2,-.1l-.2,.1Z" class="gb_20"/>
<path d="M732.5,279.7l-.2,-.1l-.4,.7l-.8,.2l-.2,.1v.3l.6,.6l-.1,.8l.1,.2l.2,.1l.8,-.3l.8,.3l.2,-.1l.1,-.2l-.1,-.8l.6,-.6v-.3l-.1,-.1l-.9,-.2l-.4,-.7l-.2,-.1l-.2,.1l.2,.1l-.2,.1l.5,.8l.1,.1l.6,.1l-.4,.5v.7l-.5,-.2h-.2l-.5,.2v-.7l-.4,-.5l.6,-.1l.1,-.1l.5,-.8l-.2,-.1l-.2,.1Z" class="gb_20"/>
<path d="M715.2,314.6h24.6c.5,0,.9,-.4,.9,-.9c0,-.5,-.4,-.9,-.9,-.9H715.2c-.5,0,-.9,.4,-.9,.9c0,.5,.4,.9,.9,.9Z" class="gb_20"/>
<path d="M727.5,305.7V313h.3v-7.3Z" class="gb_20"/>
<image clip-path="url(#cs_20)" preserveAspectRatio="none" x="593" y="318" width="89" height="30" xlink:href="img/32.jpg"/>
<image clip-path="url(#ct_20)" preserveAspectRatio="none" x="593" y="246" width="98" height="73" xlink:href="img/33.jpg"/>
<image clip-path="url(#cu_20)" preserveAspectRatio="none" x="602" y="339" width="80" height="4" xlink:href="img/34.jpg"/>
<image clip-path="url(#cv_20)" preserveAspectRatio="none" x="680" y="318" width="11" height="30" xlink:href="img/35.jpg"/>
<image clip-path="url(#cw_20)" preserveAspectRatio="none" x="681" y="246" width="10" height="73" xlink:href="img/36.jpg"/>
<image clip-path="url(#cx_20)" preserveAspectRatio="none" x="680" y="339" width="11" height="4" xlink:href="img/37.jpg"/>
<image clip-path="url(#cy_20)" preserveAspectRatio="none" x="687" y="267" width="4" height="69" xlink:href="img/38.jpg"/>
<image clip-path="url(#cz_20)" preserveAspectRatio="none" x="687" y="335" width="4" height="8" xlink:href="img/39.jpg"/>
<path d="M618.4,259c-10.1,0,-18.3,8.2,-18.3,18.3v64.2h79V277.3c0,-10.1,-8.2,-18.3,-18.3,-18.3Z" class="g4_20"/>
<path d="M600,342.4h79.1v-7.2H600v7.2Z" class="g9_20"/>
<path d="M606.2,285.2h2.2c.2,0,.4,-.2,.4,-.4c0,-.2,-.2,-.4,-.4,-.4h-2.2c-.2,0,-.4,.2,-.4,.4c0,.2,.2,.4,.4,.4m3.6,0h2.1c.2,0,.4,-.2,.4,-.4c0,-.2,-.2,-.4,-.4,-.4h-2.1c-.2,0,-.4,.2,-.4,.4c0,.2,.2,.4,.4,.4m3.5,0h2.2c.2,0,.4,-.2,.4,-.4c0,-.2,-.2,-.4,-.4,-.4h-2.2c-.2,0,-.3,.2,-.3,.4c0,.2,.1,.4,.3,.4m3.6,0H619c.3,0,.4,-.2,.4,-.4c0,-.2,-.1,-.4,-.4,-.4h-2.1c-.2,0,-.4,.2,-.4,.4c0,.2,.2,.4,.4,.4m3.5,0h2.2c.2,0,.4,-.2,.4,-.4c0,-.2,-.2,-.4,-.4,-.4h-2.2c-.2,0,-.3,.2,-.3,.4c0,.2,.1,.4,.3,.4m3.6,0h2.2c.2,0,.3,-.2,.3,-.4c0,-.2,-.1,-.4,-.3,-.4H624c-.2,0,-.4,.2,-.4,.4c0,.2,.2,.4,.4,.4m3.5,0h2.2c.2,0,.4,-.2,.4,-.4c0,-.2,-.2,-.4,-.4,-.4h-2.2c-.2,0,-.3,.2,-.3,.4c0,.2,.1,.4,.3,.4Z" class="gc_20"/>
<path d="M606.2,317.4h2.3c.3,0,.4,-.1,.4,-.3c0,-.3,-.1,-.4,-.4,-.4h-2.3c-.2,0,-.4,.1,-.4,.4c0,.2,.2,.3,.4,.3m3.9,0h2.3c.2,0,.4,-.1,.4,-.3c0,-.3,-.2,-.4,-.4,-.4h-2.3c-.2,0,-.4,.1,-.4,.4c0,.2,.2,.3,.4,.3m3.9,0h2.3c.2,0,.4,-.1,.4,-.3c0,-.3,-.2,-.4,-.4,-.4H614c-.2,0,-.4,.1,-.4,.4c0,.2,.2,.3,.4,.3m3.9,0h2.3c.2,0,.4,-.1,.4,-.3c0,-.3,-.2,-.4,-.4,-.4h-2.3c-.2,0,-.4,.1,-.4,.4c0,.2,.2,.3,.4,.3m3.9,0h2.3c.2,0,.4,-.1,.4,-.3c0,-.3,-.2,-.4,-.4,-.4h-2.3c-.3,0,-.4,.1,-.4,.4c0,.2,.1,.3,.4,.3m3.8,0H628c.2,0,.3,-.1,.3,-.3c0,-.3,-.1,-.4,-.3,-.4h-2.4c-.2,0,-.3,.1,-.3,.4c0,.2,.1,.3,.3,.3m3.9,0h2.3c.3,0,.4,-.1,.4,-.3c0,-.3,-.1,-.4,-.4,-.4h-2.3c-.2,0,-.4,.1,-.4,.4c0,.2,.2,.3,.4,.3m3.9,0h2.3c.2,0,.4,-.1,.4,-.3c0,-.3,-.2,-.4,-.4,-.4h-2.3c-.2,0,-.4,.1,-.4,.4c0,.2,.2,.3,.4,.3m3.9,0h2.3c.2,0,.4,-.1,.4,-.3c0,-.3,-.2,-.4,-.4,-.4h-2.3c-.2,0,-.4,.1,-.4,.4c0,.2,.2,.3,.4,.3m3.9,0h2.3c.2,0,.4,-.1,.4,-.3c0,-.3,-.2,-.4,-.4,-.4h-2.3c-.2,0,-.4,.1,-.4,.4c0,.2,.2,.3,.4,.3m3.8,0h2.4c.2,0,.4,-.1,.4,-.3c0,-.3,-.2,-.4,-.4,-.4H645c-.2,0,-.3,.1,-.3,.4c0,.2,.1,.3,.3,.3m3.9,0h2.4c.2,0,.3,-.1,.3,-.3c0,-.3,-.1,-.4,-.3,-.4h-2.4c-.2,0,-.4,.1,-.4,.4c0,.2,.2,.3,.4,.3m3.9,0h2.3c.2,0,.4,-.1,.4,-.3c0,-.3,-.2,-.4,-.4,-.4h-2.3c-.2,0,-.4,.1,-.4,.4c0,.2,.2,.3,.4,.3m3.9,0H659c.2,0,.4,-.1,.4,-.3c0,-.3,-.2,-.4,-.4,-.4h-2.3c-.2,0,-.4,.1,-.4,.4c0,.2,.2,.3,.4,.3m3.9,0h2.3c.2,0,.4,-.1,.4,-.3c0,-.3,-.2,-.4,-.4,-.4h-2.3c-.2,0,-.4,.1,-.4,.4c0,.2,.2,.3,.4,.3m3.9,0h2.3c.2,0,.4,-.1,.4,-.3c0,-.3,-.2,-.4,-.4,-.4h-2.3c-.3,0,-.4,.1,-.4,.4c0,.2,.1,.3,.4,.3m3.8,0h2.4c.2,0,.3,-.1,.3,-.3c0,-.3,-.1,-.4,-.3,-.4h-2.4c-.2,0,-.3,.1,-.3,.4c0,.2,.1,.3,.3,.3m3.9,0h2.3c.3,0,.4,-.1,.4,-.3c0,-.3,-.1,-.4,-.4,-.4h-2.3c-.2,0,-.4,.1,-.4,.4c0,.2,.2,.3,.4,.3Z" class="gc_20"/>
<path d="M653,285.2h2.3c.2,0,.4,-.2,.4,-.4c0,-.2,-.2,-.4,-.4,-.4H653c-.2,0,-.4,.2,-.4,.4c0,.2,.2,.4,.4,.4m3.9,0h2.3c.2,0,.3,-.2,.3,-.4c0,-.2,-.1,-.4,-.3,-.4h-2.3c-.3,0,-.4,.2,-.4,.4c0,.2,.1,.4,.4,.4m3.8,0H663c.2,0,.4,-.2,.4,-.4c0,-.2,-.2,-.4,-.4,-.4h-2.3c-.2,0,-.4,.2,-.4,.4c0,.2,.2,.4,.4,.4m3.8,0h2.4c.2,0,.3,-.2,.3,-.4c0,-.2,-.1,-.4,-.3,-.4h-2.4c-.2,0,-.3,.2,-.3,.4c0,.2,.1,.4,.3,.4m3.9,0h2.3c.2,0,.4,-.2,.4,-.4c0,-.2,-.2,-.4,-.4,-.4h-2.3c-.2,0,-.4,.2,-.4,.4c0,.2,.2,.4,.4,.4m3.8,0h2.3c.3,0,.4,-.2,.4,-.4c0,-.2,-.1,-.4,-.4,-.4h-2.3c-.2,0,-.3,.2,-.3,.4c0,.2,.1,.4,.3,.4Z" class="gc_20"/>
<path d="M649.6,296.9c0,3.3,-.1,6.7,0,10.1c.1,3.1,-1.4,5.4,-4.5,6.7c-3.3,1.4,-6.5,1.2,-9.5,-.6c-.5,-.3,-.9,-.6,-1.1,-.9c-.2,-.3,-.2,-.7,0,-.9c.1,-.2,.7,-.1,1,-.1c.2,.1,.4,.3,.6,.5c3.1,2.3,8,1.9,10.5,-.7c1.1,-1.1,1.5,-2.4,1.4,-3.9c0,-6.8,0,-13.6,.1,-20.4c0,-2.4,-1.1,-4.3,-3.6,-5.5c-2.6,-1.2,-5.3,-1,-7.8,.4c-.3,.2,-.7,.4,-1,.7c-.4,.3,-.9,.4,-1.1,0c-.2,-.3,-.1,-.8,.1,-1.1c1.2,-1,2.6,-1.6,4.1,-1.9c4.8,-1,9.7,1.5,10.6,5.5c.2,.5,.2,1.1,.2,1.6c0,3.5,0,7,0,10.5Z" class="gc_20"/>
<path d="M634.5,289c-1.7,-.3,-2.3,-1.5,-1.5,-3c.4,-1,1.3,-1.5,2.3,-1.8c1.6,-.5,3.2,-.6,4.8,-.1c2,.6,3.1,2.5,3,4.5c-.2,2,-1.8,3.7,-3.7,3.9c-2.1,.2,-4,-.9,-4.7,-2.8c-.1,-.2,-.1,-.5,-.2,-.7m7.1,0c-1.4,-.5,-1.6,-.6,-2.3,-1.9c-.1,-.3,-.3,-.5,-.5,-.8c-.6,-1,-1.3,-1,-2.1,-.2c-.9,.8,-1.1,2.2,-.7,3.2c.5,1.2,1.6,1.9,2.8,1.8c1.3,0,2.3,-.7,2.8,-2.1m.1,-1.7c.1,-.9,-1.8,-1.6,-1.8,-1.6c.5,1.8,1.7,2.2,1.8,1.6m-6.5,-1.6c-1.9,.8,-.9,2.2,-.8,1.9c0,0,.2,-1.3,.8,-1.9Z" class="gc_20"/>
<path d="M634.5,298.3c-1.7,-.3,-2.3,-1.4,-1.5,-3c.4,-1,1.3,-1.5,2.3,-1.8c1.6,-.5,3.2,-.5,4.8,-.1c2,.6,3.1,2.5,3,4.5c-.2,2,-1.8,3.7,-3.7,3.9c-2.1,.2,-4,-.8,-4.7,-2.8c-.1,-.2,-.1,-.4,-.2,-.7m7.1,0c-1.4,-.4,-1.6,-.6,-2.3,-1.8c-.1,-.3,-.3,-.6,-.5,-.9c-.6,-.9,-1.3,-1,-2.1,-.2c-.9,.9,-1.1,2.2,-.7,3.3c.5,1.1,1.6,1.8,2.8,1.7c1.3,0,2.3,-.7,2.8,-2.1m.1,-1.6c.1,-1,-1.8,-1.6,-1.8,-1.6c.5,1.7,1.7,2.1,1.8,1.6M635.2,295c-1.9,.8,-.9,2.3,-.8,1.9c0,0,.2,-1.2,.8,-1.9Z" class="gc_20"/>
<path d="M634.5,307.4c-1.7,-.3,-2.3,-1.4,-1.5,-3c.4,-1,1.3,-1.5,2.3,-1.8c1.6,-.5,3.2,-.5,4.8,-.1c2,.7,3.1,2.5,3,4.5c-.2,2,-1.8,3.7,-3.7,3.9c-2.1,.3,-4,-.8,-4.7,-2.8c-.1,-.2,-.1,-.4,-.2,-.7m7.1,0c-1.4,-.4,-1.6,-.6,-2.3,-1.8c-.1,-.3,-.3,-.6,-.5,-.9c-.6,-.9,-1.3,-1,-2.1,-.2c-.9,.9,-1.1,2.2,-.7,3.3c.5,1.1,1.6,1.8,2.8,1.7c1.3,0,2.3,-.7,2.8,-2.1m.1,-1.6c.1,-1,-1.8,-1.6,-1.8,-1.6c.5,1.7,1.7,2.1,1.8,1.6m-6.5,-1.7c-1.9,.8,-.9,2.3,-.8,1.9c0,0,.2,-1.2,.8,-1.9Z" class="gc_20"/>
<path d="M630.6,301.9l-5.2,-5.5c-.3,-.3,-.7,-.3,-.9,0c-.3,.2,-.3,.6,0,.8l5.2,5.6c.3,.2,.7,.2,.9,0c.3,-.2,.3,-.6,0,-.9Z" class="gc_20"/>
<path d="M630.6,309.6l-5.2,5.5c-.3,.2,-.7,.2,-.9,0c-.3,-.2,-.3,-.6,0,-.9l5.2,-5.5c.3,-.3,.7,-.3,.9,0c.3,.2,.3,.6,0,.9Z" class="gc_20"/>
<path d="M629.4,303.9l-7.2,-1.4c-.3,-.1,-.7,.2,-.7,.5c-.1,.3,.1,.7,.5,.7l7.2,1.4c.3,.1,.7,-.1,.7,-.5c.1,-.3,-.1,-.6,-.5,-.7Z" class="gc_20"/>
<path d="M629.4,307.6l-7.2,1.4c-.3,0,-.7,-.2,-.7,-.5c-.1,-.4,.1,-.7,.5,-.8l7.2,-1.4c.3,0,.7,.2,.7,.5c.1,.4,-.1,.7,-.5,.8Z" class="gc_20"/>
<image clip-path="url(#c10_20)" preserveAspectRatio="none" x="514" y="318" width="80" height="30" xlink:href="img/40.jpg"/>
<image clip-path="url(#c11_20)" preserveAspectRatio="none" x="505" y="246" width="89" height="73" xlink:href="img/41.jpg"/>
<image clip-path="url(#c12_20)" preserveAspectRatio="none" x="514" y="339" width="80" height="4" xlink:href="img/42.jpg"/>
<image clip-path="url(#c13_20)" preserveAspectRatio="none" x="504" y="318" width="11" height="30" xlink:href="img/43.jpg"/>
<image clip-path="url(#c14_20)" preserveAspectRatio="none" x="505" y="246" width="9" height="73" xlink:href="img/44.jpg"/>
<image clip-path="url(#c15_20)" preserveAspectRatio="none" x="504" y="339" width="11" height="4" xlink:href="img/45.jpg"/>
<image clip-path="url(#c16_20)" preserveAspectRatio="none" x="592" y="318" width="11" height="30" xlink:href="img/46.jpg"/>
<image clip-path="url(#c17_20)" preserveAspectRatio="none" x="593" y="246" width="10" height="73" xlink:href="img/47.jpg"/>
<image clip-path="url(#c18_20)" preserveAspectRatio="none" x="592" y="339" width="11" height="4" xlink:href="img/48.jpg"/>
<image clip-path="url(#c19_20)" preserveAspectRatio="none" x="600" y="268" width="3" height="68" xlink:href="img/49.jpg"/>
<image clip-path="url(#c1a_20)" preserveAspectRatio="none" x="600" y="335" width="3" height="8" xlink:href="img/50.jpg"/>
<path d="M530.1,259c-10.1,0,-18.3,8.2,-18.3,18.3v64.2h79V277.3c0,-10.1,-8.2,-18.3,-18.4,-18.3Z" class="g4_20"/>
<path d="M511.7,342.4h79.1v-7.2H511.7v7.2Z" class="g9_20"/>
<path d="M517.9,285.2h2.6c.2,0,.3,-.2,.3,-.4c0,-.2,-.1,-.4,-.3,-.4h-2.6c-.2,0,-.4,.2,-.4,.4c0,.2,.2,.4,.4,.4m4.3,0h2.6c.2,0,.4,-.2,.4,-.4c0,-.2,-.2,-.4,-.4,-.4h-2.6c-.2,0,-.3,.2,-.3,.4c0,.2,.1,.4,.3,.4m4.3,0h2.6c.2,0,.4,-.2,.4,-.4c0,-.2,-.2,-.4,-.4,-.4h-2.6c-.2,0,-.3,.2,-.3,.4c0,.2,.1,.4,.3,.4m4.4,0h2.5c.2,0,.4,-.2,.4,-.4c0,-.2,-.2,-.4,-.4,-.4h-2.5c-.3,0,-.4,.2,-.4,.4c0,.2,.1,.4,.4,.4Z" class="g7_20"/>
<path d="M569.5,317.4h2.2c.2,0,.3,-.1,.3,-.3c0,-.3,-.1,-.4,-.3,-.4h-2.2c-.3,0,-.4,.1,-.4,.4c0,.2,.1,.3,.4,.3m3.6,0h2.2c.2,0,.4,-.1,.4,-.3c0,-.3,-.2,-.4,-.4,-.4h-2.2c-.2,0,-.4,.1,-.4,.4c0,.2,.2,.3,.4,.3m3.6,0h2.2c.3,0,.4,-.1,.4,-.3c0,-.3,-.1,-.4,-.4,-.4h-2.2c-.2,0,-.3,.1,-.3,.4c0,.2,.1,.3,.3,.3m3.7,0h2.2c.2,0,.4,-.1,.4,-.3c0,-.3,-.2,-.4,-.4,-.4h-2.2c-.2,0,-.4,.1,-.4,.4c0,.2,.2,.3,.4,.3m3.6,0h2.2c.3,0,.4,-.1,.4,-.3c0,-.3,-.1,-.4,-.4,-.4H584c-.2,0,-.3,.1,-.3,.4c0,.2,.1,.3,.3,.3Z" class="g7_20"/>
<path d="M568.6,285.2h2.3c.2,0,.4,-.2,.4,-.4c0,-.2,-.2,-.4,-.4,-.4h-2.3c-.2,0,-.4,.2,-.4,.4c0,.2,.2,.4,.4,.4m3.8,0h2.3c.2,0,.4,-.2,.4,-.4c0,-.2,-.2,-.4,-.4,-.4h-2.3c-.2,0,-.4,.2,-.4,.4c0,.2,.2,.4,.4,.4m3.9,0h2.3c.2,0,.3,-.2,.3,-.4c0,-.2,-.1,-.4,-.3,-.4h-2.3c-.2,0,-.4,.2,-.4,.4c0,.2,.2,.4,.4,.4m3.8,0h2.3c.2,0,.4,-.2,.4,-.4c0,-.2,-.2,-.4,-.4,-.4h-2.3c-.2,0,-.4,.2,-.4,.4c0,.2,.2,.4,.4,.4m3.8,0h2.3c.3,0,.4,-.2,.4,-.4c0,-.2,-.1,-.4,-.4,-.4h-2.3c-.2,0,-.3,.2,-.3,.4c0,.2,.1,.4,.3,.4Z" class="g7_20"/>
<path d="M564.7,302.6c.1,.9,.3,1.8,.3,2.8c-.1,2.6,-1.3,4.5,-3.5,6c-1.7,1.1,-3.6,1.6,-5.6,1.6c-3.1,.1,-6.2,.1,-9.3,0c-2.1,0,-4.1,-.5,-5.8,-1.7c-2.5,-1.8,-3.6,-4.2,-3.2,-7.3c.3,-2.5,.4,-5,.5,-7.6c0,-2.3,0,-4.6,-.1,-7c0,-2.7,1.1,-4.8,3.3,-6.4c1.8,-1.4,4,-2,6.3,-2c2.5,-.1,4.9,-.1,7.4,0c2.1,0,4.2,.6,5.9,1.8c2.6,1.8,3.8,4.1,3.5,7.3c-.1,1.5,0,3.1,0,4.6c0,0,.2,5.2,.3,7.9m-13.4,-20v-.1c-1.3,0,-2.5,0,-3.7,0c-1.7,0,-3.3,.4,-4.7,1.3c-2,1.2,-3.4,2.9,-3.3,5.4c.1,1.1,.4,2.2,.7,3.2c.6,1.7,1.4,3.3,2.8,4.6c.4,.3,.4,.7,0,1.1c-.8,.8,-1.7,1.6,-2.8,1.9c-.7,.3,-.9,.7,-.9,1.3c-.1,.7,.1,1.1,.5,1.6c1,1,2.2,1.7,3.5,2.3c2.3,1,4.7,1.3,7.2,1.3c2.7,.1,5.3,-.2,7.8,-1.1c1.7,-.6,3.3,-1.5,4.4,-2.9c.2,-.2,.3,-.4,.3,-.6c0,-.4,0,-.9,-.1,-1.3l-.3,-.3c-1.3,-.5,-2.4,-1.3,-3.3,-2.2c-.4,-.4,-.3,-.8,0,-1.2c.6,-.6,1.2,-1.2,1.6,-1.9c1,-1.6,1.5,-3.4,1.8,-5.2c.3,-1.5,-.1,-2.8,-1,-4c-1.5,-2,-3.6,-3,-5.9,-3.2c-1.6,-.1,-3.1,0,-4.6,0m-12.1,21.3c-.5,2.1,0,3.9,1.6,5.4c1.7,1.6,3.7,2.2,5.9,2.2c3,0,6,0,9,0c1,0,2,-.1,3,-.5c1.8,-.6,3.3,-1.6,4.2,-3.4c.6,-1.2,.6,-2.5,.3,-3.8l-.1,.1c-1.4,1.8,-3.3,2.8,-5.5,3.4c-3.7,1,-7.4,1,-11.1,.4c-1.8,-.3,-3.6,-.9,-5.1,-1.9c-.8,-.6,-1.5,-1.3,-2.2,-1.9Z" class="g7_20"/>
<path d="M544.3,313.6c-.7,.5,-1.3,1,-1.9,1.4c-.6,.5,-2.3,1.8,-2.9,2.4c-.3,.2,-.7,.2,-1,.1c-.2,0,-.4,-.2,-.4,-.4c-.1,-.3,0,-.6,.3,-.8c.4,-.4,1.8,-1.5,2.2,-1.8c.5,-.4,1.1,-.9,1.7,-1.3c.1,-.1,.3,-.1,.5,-.1c.5,.1,1,.3,1.5,.5Z" class="g7_20"/>
<path d="M558.1,313.6c.7,-.2,1.2,-.4,1.7,-.5l.4,.1c1,.7,3,2.3,3.9,3c.2,.1,.3,.3,.4,.5c.1,.3,0,.6,-.3,.8c-.2,.1,-.7,.1,-.9,0c-1.4,-1,-3.7,-2.8,-5.2,-3.9Z" class="g7_20"/>
<path d="M551.2,296.3c-1.4,0,-2.8,.1,-4.2,0c-2.5,-.2,-4.5,-2,-5,-4.5c-.1,-.7,-.2,-1.3,-.3,-1.9c-.5,-2.5,1.2,-4.6,3.7,-4.6c3.9,-.1,7.8,0,11.6,0c2.4,0,4.2,1.9,3.8,4.3c-.1,1.3,-.3,2.7,-1,4c-1.2,1.8,-2.8,2.8,-5,2.8c-1.2,0,-2.4,0,-3.6,0Z" class="g7_20"/>
<path d="M557.1,299.8c.3,0,.7,0,1,0c.6,0,1,.4,.7,.8c-.6,1.1,-1.2,2.2,-1.9,3.3c-.1,.3,-.4,.4,-.7,.4c-.7,0,-1.4,0,-2.1,0c-.6,0,-.9,-.4,-.7,-.9c.6,-1,1.3,-2.1,1.9,-3.2c.1,-.3,.4,-.4,.8,-.4c.4,0,.7,0,1,0Z" class="g7_20"/>
<path d="M547.3,304.3c-.3,0,-.6,0,-.9,0c-.5,0,-.8,-.1,-.9,-.4c-.6,-1.1,-1.2,-2.1,-1.8,-3.2c-.3,-.5,0,-.9,.7,-.9c.7,0,1.3,0,1.9,0c.5,0,.7,.1,.9,.4c.6,1.1,1.2,2.2,1.9,3.2c.2,.5,-.1,.8,-.7,.9c-.4,0,-.7,0,-1.1,0Z" class="g7_20"/>
<path d="M552.6,309.9c0,.7,-.6,1.3,-1.3,1.3c-.8,0,-1.4,-.6,-1.4,-1.3c0,-.7,.6,-1.4,1.3,-1.4c.7,0,1.4,.6,1.4,1.4Z" class="g7_20"/>
<path d="M517.9,317.4h2.2c.2,0,.4,-.1,.4,-.3c0,-.3,-.2,-.4,-.4,-.4h-2.2c-.2,0,-.4,.1,-.4,.4c0,.2,.2,.3,.4,.3m3.7,0h2.2c.2,0,.4,-.1,.4,-.3c0,-.3,-.2,-.4,-.4,-.4h-2.2c-.2,0,-.4,.1,-.4,.4c0,.2,.2,.3,.4,.3m3.6,0h2.2c.2,0,.4,-.1,.4,-.3c0,-.3,-.2,-.4,-.4,-.4h-2.2c-.2,0,-.4,.1,-.4,.4c0,.2,.2,.3,.4,.3m3.7,0h2.2c.2,0,.3,-.1,.3,-.3c0,-.3,-.1,-.4,-.3,-.4h-2.2c-.3,0,-.4,.1,-.4,.4c0,.2,.1,.3,.4,.3m3.6,0h2.2c.2,0,.4,-.1,.4,-.3c0,-.3,-.2,-.4,-.4,-.4h-2.2c-.2,0,-.4,.1,-.4,.4c0,.2,.2,.3,.4,.3Z" class="g7_20"/>
<path d="M890,1286.2h19.4V0H890V1286.2Z" class="g4_20"/>
</svg>