<?xml version="1.0" encoding="UTF-8" standalone="no"?>
<!DOCTYPE svg PUBLIC "-//W3C//DTD SVG 1.1//EN"
"http://www.w3.org/Graphics/SVG/1.1/DTD/svg11.dtd">
<svg viewBox="0 0 1818 1286" version="1.1" xmlns="http://www.w3.org/2000/svg" xmlns:xlink="http://www.w3.org/1999/xlink">
<defs>
<clipPath id="c0_34"><path d="M909.4,351.4V0h909.5V351.4Z"/></clipPath>
<clipPath id="c1_34"><path d="M356.2,351.4V0H909.4V351.4Z"/></clipPath>
<clipPath id="c2_34"><path d="M0,1286.2V0H1818.9V1286.2Z"/></clipPath>
<clipPath id="c3_34"><path d="M296.3,285.6V271h17.5v14.6Z"/></clipPath>
<clipPath id="c4_34"><path d="M1497,556.4V407.1h262.4V556.4Z"/></clipPath>
<clipPath id="c5_34"><path d="M60.6,1242.9V903H866.1v339.9Z"/></clipPath>
<clipPath id="c6_34"><path d="M951.6,1242.9V903H1459v339.9Z"/></clipPath>
<style type="text/css"><![CDATA[
.g0_34{
fill: #B9D8F3;
}
.g1_34{
fill: #FFF;
}
.g2_34{
fill: none;
stroke: #59B1E4;
stroke-width: 0.152;
}
.g3_34{
fill: none;
stroke: #59B1E4;
stroke-width: 0.381;
}
.g4_34{
fill: #000;
}
.g5_34{
fill: #292223;
}
.g6_34{
fill: #D6E8F8;
}
.g7_34{
fill: none;
stroke: #FFF;
stroke-width: 0.763;
stroke-miterlimit: 10;
}
.g8_34{
fill: none;
stroke: #D9D7D6;
stroke-width: 0.763;
stroke-miterlimit: 10;
}
.g9_34{
fill: none;
stroke: #000;
stroke-width: 0.572;
stroke-miterlimit: 10;
}
.ga_34{
fill: #59B1E4;
}
]]></style>
</defs>
<path d="M909.4,55.6h340V-14.3h-340V55.6Z" class="g0_34"/>
<path d="M909.4,351.4h909.5V0H909.4V351.4Z" class="g0_34"/>
<image clip-path="url(#c0_34)" preserveAspectRatio="none" x="909" y="0" width="910" height="352" xlink:href="img/1.jpg"/>
<path d="M1497.4,381.3H1759V182.8H1497.4V381.3Z" class="g1_34"/>
<path d="M1497,182.8V381.6h262.3V182.5H1497v.3Z" class="g2_34"/>
<path d="M1497.6,381.1h261.2V183H1497.6V381.1Z" class="g3_34"/>
<path d="M356.2,351.4H909.4V0H356.2V351.4Z" class="g0_34"/>
<image clip-path="url(#c1_34)" preserveAspectRatio="none" x="356" y="0" width="553" height="351" xlink:href="img/2.jpg"/>
<g clip-path="url(#c2_34)" opacity="0.75">
<path d="M-5.7,167.8H909.4V55.8H-5.7v112Z" class="g1_34"/>
</g>
<path d="M0,55.6H356.6V0H0V55.6Z" class="g0_34"/>
<path d="M192.9,254.4c23.9,0,43.3,-19.4,43.3,-43.3c0,-23.9,-19.4,-43.3,-43.3,-43.3c-23.9,0,-43.3,19.4,-43.3,43.3c0,23.9,19.4,43.3,43.3,43.3Z" class="g4_34"/>
<path d="M1495.6,571.8h156.6v35.6H1495.6V571.8Zm156.6,0h103.5v35.6H1652.2V571.8Z" class="g5_34"/>
<path d="M1652.2,607.4h103.5v24.3H1652.2V607.4Zm0,24.3h103.5V656H1652.2V631.7Zm0,24.3h103.5v24.2H1652.2V656Zm0,24.2h103.5v24.3H1652.2V680.2Zm0,24.3h103.5v24.3H1652.2V704.5Zm0,24.3h103.5V753H1652.2V728.8Zm0,24.2h103.5v24.3H1652.2V753Zm0,24.3h103.5v24.3H1652.2V777.3Z" class="g6_34"/>
<path d="M1495.2,571.8h157M1495.6,607V572.2m156.6,-.4h103.9m-.4,35.2V572.2" class="g7_34"/>
<path d="M1652.2,607V572.2" class="g8_34"/>
<path d="M1652.6,607.4h103.5m-103.9,23.9V607.8m103.5,23.5V607.8m-103.9,23.9h104.3m-103.9,23.9V632.1m103.5,23.5V632.1M1651.8,656h104.3m-103.9,23.8V656.3m103.5,23.5V656.3m-103.9,23.9h104.3m-103.9,23.9V680.6m103.5,23.5V680.6m-103.9,23.9h104.3m-103.9,23.9V704.9m103.5,23.5V704.9m-103.9,23.9h104.3m-103.9,23.8V729.1m103.5,23.5V729.1M1651.8,753h104.3m-103.9,23.9V753.4m103.5,23.5V753.4m-103.9,23.9h104.3m-103.9,23.9V777.7m103.5,23.5V777.7" class="g7_34"/>
<path d="M1495.6,801.6h156.6m0,0h103.9M1495.2,607.4h157.3m-156.9,24.3h156.2M1495.6,656h156.2m-156.2,24.2h156.2m-156.2,24.3h156.2m-156.2,24.3h156.2M1495.6,753h156.2m-156.2,24.3h156.2" class="g8_34"/>
<path d="M180.7,342.4c-.3,0,-.4,-.2,-.4,-.4V327.3c0,-.2,.1,-.3,.4,-.3h1.2c.1,0,.2,-.1,.2,-.2v-4.3c0,-3.7,3.2,-6.7,7.2,-6.7c1.9,0,3.7,.7,5.1,2c1.3,1.2,2.1,2.9,2.1,4.7v4.3c0,.1,0,.2,.1,.2h1.3c.2,0,.4,.1,.4,.3V342c0,.2,-.2,.4,-.4,.4Zm.5,-14.7q-.1,0,-.1,.1v13.8c0,0,0,.1,.1,.1h16.2c0,0,.1,-.1,.1,-.1V327.8c0,-.1,-.1,-.1,-.1,-.1Zm8.1,-9.6c1.2,0,2.4,.4,3.4,1.2c.9,.9,1.4,2,1.4,3.2v4.3c0,.1,0,.2,.1,.2h1.4c0,0,.1,-.1,.1,-.2v-4.3c0,-1.6,-.7,-3.1,-1.9,-4.2c-1.2,-1.1,-2.8,-1.8,-4.5,-1.8c-3.6,0,-6.5,2.7,-6.5,6v4.3c0,.1,.1,.2,.2,.2h1.4c0,0,.1,-.1,.1,-.2v-4.3c0,-2.5,2.1,-4.4,4.8,-4.4m0,.7c-2.2,0,-4,1.6,-4,3.7v4.3c0,.1,0,.2,.1,.2h7.7c.1,0,.2,-.1,.2,-.2v-4.3c0,-1,-.5,-1.9,-1.2,-2.6c-.8,-.7,-1.8,-1.1,-2.8,-1.1Z" class="g4_34"/>
<path d="M196.1,340.8c-.2,0,-.4,-.1,-.4,-.3V330.3c0,-.2,.2,-.4,.4,-.4c.2,0,.4,.2,.4,.4v10.2c0,.2,-.2,.3,-.4,.3Z" class="g4_34"/>
<path d="M196.1,329.3c-.2,0,-.3,-.1,-.4,-.3c-.1,-.1,0,-.3,.2,-.4c0,-.1,.1,-.1,.2,-.1c.1,0,.2,.1,.3,.1c0,.1,.1,.2,.1,.3c0,.1,-.1,.2,-.1,.2c-.1,.1,-.2,.2,-.3,.2Z" class="g4_34"/>
<path d="M188.5,337.7c-.1,0,-.2,0,-.3,-.1l-2.6,-2.4c0,-.1,-.1,-.1,-.1,-.2c0,-.1,.1,-.2,.1,-.3c.1,-.1,.2,-.1,.3,-.1c.1,0,.2,0,.3,.1l2.1,2q.1,0,.1,0q.1,0,.1,0l3.8,-4.4c.1,-.1,.2,-.1,.3,-.1c.1,0,.2,0,.3,.1c0,0,.1,.1,.1,.2c0,.1,0,.2,-.1,.3l-4.1,4.8c-.1,0,-.2,.1,-.3,.1Z" class="g4_34"/>
<path d="M204.1,298.2c-.2,0,-.3,-.2,-.3,-.4v-5.2c0,-.1,-.1,-.2,-.2,-.2h-28c-.1,0,-.1,.1,-.1,.2v5.2c0,.2,-.2,.4,-.4,.4c-.2,0,-.4,-.2,-.4,-.4V279.7c0,-.2,.2,-.3,.4,-.3c.2,0,.4,.1,.4,.3v7.1c0,.1,0,.2,.1,.2h1.3c0,0,.1,0,.1,-.1q.1,-.1,0,-.2c-.2,-.3,-.4,-.6,-.4,-1c0,-1.2,1.4,-2.1,3.2,-2.1c1.8,0,3.3,.9,3.3,2.1c0,.4,-.2,.7,-.4,1q-.1,.1,-.1,.2q.1,.1,.2,.1h20.8c.1,0,.2,-.1,.2,-.2v-2.1c0,-.2,.1,-.3,.3,-.3c.3,0,.4,.1,.4,.3v13.1c0,.2,-.1,.4,-.4,.4M175.6,287.8c-.1,0,-.1,.1,-.1,.2v3.5q0,.1,.1,.1h28c.1,0,.2,0,.2,-.1V288c0,-.1,-.1,-.2,-.2,-.2Zm4.2,-3.4c-1.4,0,-2.4,.6,-2.4,1.3c0,.6,1,1.3,2.4,1.3c1.5,0,2.5,-.7,2.5,-1.3c0,-.7,-1,-1.3,-2.5,-1.3Z" class="g4_34"/>
<path d="M194.7,274.3c0,-1.4,-1.2,-2.5,-2.6,-2.5c-.3,0,-.6,.1,-.9,.2c1,.3,1.7,1.3,1.7,2.3c0,1.1,-.7,2.1,-1.7,2.4c.3,.1,.6,.2,.9,.2c1.4,0,2.6,-1.1,2.6,-2.6Z" class="g4_34"/>
<path d="M126.8,275.4c-.1,0,-.2,0,-.3,0c-1.5,-.2,-2.7,-1.6,-2.5,-3.1c.1,-1.5,1.4,-2.6,2.8,-2.6c.1,0,.2,0,.3,0c1.6,.2,2.7,1.6,2.5,3.1c-.1,1.5,-1.3,2.6,-2.8,2.6m0,-4.9c-.5,0,-.9,.1,-1.3,.4c-.4,.4,-.7,.9,-.7,1.4c-.1,.6,.1,1.1,.4,1.6c.4,.4,.9,.7,1.4,.7q.1,0,.2,0c1.1,0,2,-.8,2.1,-1.8c0,-.6,-.1,-1.1,-.5,-1.6c-.3,-.4,-.8,-.7,-1.4,-.7c0,0,-.1,0,-.2,0Z" class="g4_34"/>
<path d="M131.2,299.3c-.3,0,-.6,-.1,-.8,-.2c-.3,-.2,-.5,-.5,-.6,-.9l-1.9,-5.7l-2.4,-2.8l-1.3,3.3c-.1,0,-.1,.1,-.1,.1l-5.4,4.7c-.3,.3,-.7,.4,-1,.4c-.4,0,-.8,-.2,-1.1,-.4c-.2,-.3,-.4,-.7,-.4,-1.1c0,-.4,.2,-.7,.5,-1l4.3,-4.5l1.6,-5.2l.5,-5.1l-1.8,1.5l-1,3.4c-.2,.4,-.4,.8,-.8,.9c-.2,.1,-.5,.2,-.7,.2c-.2,0,-.4,0,-.6,-.1c-.7,-.3,-1.1,-1.1,-.9,-1.9l1.3,-4.2q0,-.1,.1,-.2l4.3,-3.4c.4,-.4,1,-.6,1.6,-.6c.1,0,.2,0,.3,0l3.2,.3c.6,0,1.1,.3,1.5,.6l3.3,2.7l3.5,.4c.8,.1,1.5,.8,1.4,1.6c0,.5,-.2,.8,-.6,1.1c-.2,.3,-.6,.4,-1,.4c0,0,-.1,0,-.1,0l-4.4,-.5c0,0,-.1,0,-.2,-.1l-2.7,-2.2l-.6,5.7l3.1,4.1c0,.1,.1,.1,.1,.2l1.2,6.7c.1,.4,0,.8,-.2,1.1c-.2,.4,-.5,.6,-.9,.7c-.1,0,-.2,0,-.3,0m-7.6,-19.6q.1,0,.2,0c.1,.1,.2,.2,.2,.4l-.6,5.9l5.1,6q.1,.1,.1,.2l1.9,5.8c.1,.2,.2,.4,.3,.5c.1,0,.3,.1,.4,.1c0,0,.1,-.1,.1,-.1c.2,0,.4,-.1,.5,-.3c.1,-.1,.1,-.3,.1,-.5L130.6,291l-3.1,-4.2c0,0,0,-.1,0,-.2l.6,-6.6c.1,-.1,.1,-.2,.3,-.3c0,0,.1,0,.1,0c.1,0,.2,0,.3,.1l3.1,2.6l4.3,.4c.2,0,.4,-.1,.5,-.2c.2,-.1,.3,-.3,.3,-.5c.1,-.4,-.3,-.8,-.7,-.9l-3.6,-.3c-.1,0,-.2,-.1,-.2,-.1L129.1,278c-.3,-.3,-.6,-.4,-1,-.4l-3.3,-.4c0,0,-.1,0,-.2,0c-.4,0,-.8,.2,-1.2,.4l-4.1,3.4l-1.3,4.1c-.1,.4,.1,.8,.5,1c.1,0,.2,0,.3,0c.1,0,.2,0,.3,0c.2,-.1,.4,-.3,.4,-.5l1.1,-3.5c0,-.1,.1,-.2,.1,-.2l2.7,-2.1c0,-.1,.1,-.1,.2,-.1m-1.9,11.8q-.1,.1,-.1,.1l-4.4,4.6v.1c-.1,.1,-.2,.3,-.2,.4c0,.2,0,.4,.2,.5c.1,.2,.3,.2,.5,.2c.2,0,.3,0,.4,-.1l5.4,-4.7L125,289l-1.9,-2.1Z" class="g4_34"/>
<path d="M136.1,275.6v-6.8c0,-.2,.2,-.3,.3,-.3c.2,0,.4,.1,.4,.3v.6c1.6,-1.8,3.1,-1,4.6,-.2c1.5,.8,3,1.6,4.5,-.7c.1,-.2,.3,-.2,.4,-.1c.2,.1,.2,.2,.2,.4l-.8,3l.8,1.9c0,.1,0,.3,-.1,.4c-1.8,2.8,-3.5,1.9,-5.3,.9c-1.4,-.8,-2.9,-1.6,-4.3,.7v4.9c0,.2,-.2,.3,-.4,.3c-.1,0,-.3,-.1,-.3,-.3Zm.7,-5.1v4c1.6,-1.7,3.1,-.9,4.6,-.1c1.5,.8,2.9,1.6,4.4,-.6L145,272q0,-.1,0,-.2l.4,-1.7c-1.4,1.3,-2.8,.5,-4.3,-.3c-1.4,-.7,-2.9,-1.5,-4.3,.7Z" class="g4_34"/>
<path d="M236.7,332.1c-.1,0,-.3,-.1,-.3,-.3c0,-.2,.2,-.3,.3,-.3h19.9c1.5,0,2.7,-1.3,2.7,-2.9c0,-1,-.4,-1.9,-1.1,-2.4L254,322.3c-2.7,-2.1,-5.8,-3.1,-9.1,-3.1h-8.2c-.1,0,-.3,-.2,-.3,-.4c0,-.1,.2,-.3,.3,-.3h8.2c3.4,0,6.7,1.1,9.5,3.2v.1l4.1,3.9c.9,.6,1.4,1.7,1.4,2.9c0,1.9,-1.4,3.5,-3.3,3.5Z" class="g4_34"/>
<path d="M257.1,325.1l-11.9,-.8c-.6,0,-1.1,-.5,-1.1,-1.2v-.9c0,-.6,.5,-1.1,1.1,-1.1h8.1c.2,0,.3,.1,.3,.3c0,.2,-.1,.3,-.3,.3h-8.1c-.3,0,-.5,.2,-.5,.5v.9c0,.3,.2,.5,.5,.5l11.9,.8c.1,0,.2,.1,.2,.1c.1,.1,.1,.2,.1,.3c0,.1,-.1,.3,-.3,.3Z" class="g4_34"/>
<path d="M241.5,324.3c-.7,0,-1.2,-.6,-1.2,-1.3v-.6c0,-.8,.5,-1.3,1.2,-1.3h.6c.7,0,1.2,.5,1.2,1.3v.6c0,.7,-.5,1.3,-1.2,1.3Zm0,-2.6c-.3,0,-.6,.3,-.6,.7v.6c0,.3,.3,.6,.6,.6h.6c.3,0,.6,-.3,.6,-.6v-.6c0,-.4,-.3,-.7,-.6,-.7Z" class="g4_34"/>
<path d="M237.8,324.3c-.7,0,-1.2,-.6,-1.2,-1.3v-.6c0,-.8,.5,-1.3,1.2,-1.3h.6c.7,0,1.2,.5,1.2,1.3v.6c0,.7,-.5,1.3,-1.2,1.3Zm0,-2.6c-.3,0,-.6,.3,-.6,.7v.6c0,.3,.3,.6,.6,.6h.6c.3,0,.6,-.3,.6,-.6v-.6c0,-.4,-.3,-.7,-.6,-.7Z" class="g4_34"/>
<path d="M236.6,336.3c-.1,0,-.3,-.1,-.3,-.3c0,-.2,.2,-.3,.3,-.3h22c.2,0,.3,.1,.3,.3c0,.2,-.1,.3,-.3,.3Z" class="g4_34"/>
<path d="M240,333.5c-.7,0,-1.3,-.8,-1.3,-1.7c0,-.2,.2,-.3,.3,-.3c.2,0,.3,.1,.3,.3c0,.6,.4,1.1,.7,1.1h6c.3,0,.6,-.5,.6,-1.1c0,-.2,.2,-.3,.4,-.3c.1,0,.3,.1,.3,.3c0,.9,-.6,1.7,-1.3,1.7Z" class="g4_34"/>
<path d="M247.9,333.5c-.7,0,-1.3,-.8,-1.3,-1.7c0,-.2,.2,-.3,.4,-.3c.1,0,.3,.1,.3,.3c0,.6,.3,1.1,.6,1.1h6c.4,0,.7,-.5,.7,-1.1c0,-.2,.1,-.3,.3,-.3c.1,0,.3,.1,.3,.3c0,.9,-.6,1.7,-1.3,1.7Z" class="g4_34"/>
<path d="M259.4,299.4c0,0,5.7,-8.6,5.7,-11.7c0,-3.1,-2.5,-5.6,-5.7,-5.6c-3.1,0,-5.7,2.5,-5.7,5.6c0,3.1,5.7,11.7,5.7,11.7Z" class="g9_34"/>
<path d="M258.7,271.5H248.2c-.5,0,-.9,.2,-1.3,.5q0,-.1,0,-.1c-1.2,-.6,-2.6,-1,-4,-1c-4.6,0,-8.4,3.7,-8.4,8.2v13.4c0,.1,.1,.2,.2,.3c-1,.6,-1.6,1.7,-1.6,3V300c0,.2,.2,.3,.3,.3c.2,0,.4,-.1,.4,-.3v-4.2c0,-1.7,1.3,-3,3,-3h1.5c.5,0,.9,-.2,1.3,-.5c.9,.7,2.1,1.2,3.3,1.2V300c0,.2,.1,.3,.3,.3c.2,0,.4,-.1,.4,-.3v-6.6c1.1,-.1,2.1,-.6,2.9,-1.3c.2,.4,.6,.7,1.1,.7h2c1.7,0,3.1,1.3,3.1,3V300c0,.2,.1,.3,.3,.3c.2,0,.4,-.1,.4,-.3v-4.2c0,-1.5,-.9,-2.7,-2.1,-3.3V280.4h7.4c1.1,0,2,-.8,2,-1.9v-5.1c0,-1,-.9,-1.9,-2,-1.9m-15.5,18.3c-2.9,0,-5.2,-2.3,-5.2,-5.1v-2.8h3.1c.2,0,.4,-.2,.4,-.4v-1.7h4.8v3.3c0,.2,0,.3,.2,.3c0,.1,.1,.1,.1,.1c.1,0,.2,-.1,.2,-.1l1.7,-1.3v2.6c0,2.8,-2.4,5.1,-5.3,5.1m-4.9,2.3h-1.5c-.6,0,-1.1,.2,-1.6,.4V279.1c0,-4.1,3.4,-7.5,7.7,-7.5c1.2,0,2.5,.3,3.6,.9c-.1,.3,-.2,.6,-.2,.9v5.7h-5.2c-.2,0,-.3,.2,-.3,.4v1.7h-3.2c-.2,0,-.3,.1,-.3,.3v3.2c0,1.7,.8,3.3,2.1,4.4v2c0,.1,-.1,.3,-.1,.4q-.1,.1,-.1,.2c-.2,.2,-.5,.4,-.9,.4m4.6,.7c-1.1,0,-2.1,-.4,-2.9,-1.1c0,-.2,.1,-.4,.1,-.6v-1.5c.9,.6,2,.9,3.1,.9c1.2,0,2.3,-.3,3.2,-.9v1.7c0,0,-.1,0,-.1,0c-.9,1,-2.1,1.5,-3.4,1.5m6.7,-.7h-2c-.3,0,-.5,-.2,-.5,-.5v-2.5c1.3,-1.1,2.1,-2.7,2.1,-4.4v-3.1l1.4,-1.1v11.7c-.3,0,-.6,-.1,-1,-.1M260,278.5c0,.7,-.6,1.3,-1.3,1.3h-8.2q-.1,0,-.2,0l-3.3,2.6v-9c0,-.7,.5,-1.2,1.2,-1.2h10.5c.7,0,1.3,.5,1.3,1.2Z" class="g4_34"/>
<path d="M257.2,274.6h-7.5c-.2,0,-.4,.2,-.4,.4c0,.2,.2,.3,.4,.3h7.5c.2,0,.4,-.1,.4,-.3c0,-.2,-.2,-.4,-.4,-.4Z" class="g4_34"/>
<path d="M255.1,277.4h-5.4c-.2,0,-.4,.1,-.4,.3c0,.2,.2,.4,.4,.4h5.4c.2,0,.3,-.2,.3,-.4c0,-.2,-.1,-.3,-.3,-.3Z" class="g4_34"/>
<path d="M245.7,286.2c-.6,.7,-1.5,1.1,-2.4,1.1c-1,0,-1.9,-.5,-2.5,-1.2c-.1,-.1,-.4,-.1,-.5,0c-.2,.1,-.2,.3,-.1,.5c.8,.8,1.9,1.3,3.1,1.3c1.1,0,2.1,-.4,2.9,-1.2c.1,-.1,.1,-.4,0,-.5c-.2,-.1,-.4,-.1,-.5,0Z" class="g4_34"/>
<path d="M83.3,294.6c-1.4,0,-2.7,-.8,-3.3,-2.1l-.1,-.1H66.3l-.1,.1c-.6,1.3,-1.9,2.1,-3.4,2.1c-1.4,0,-2.7,-.8,-3.4,-2.1v-.1H53.8c-.8,0,-1.4,-.7,-1.4,-1.4V278.5c.1,-2,1.7,-3.7,3.8,-3.7H88.7c2,0,3.4,1.6,3.4,3.8V291c0,.7,-.7,1.4,-1.5,1.4H86.8l-.1,.1c-.6,1.3,-1.9,2.1,-3.4,2.1m0,-6.6c-1.6,0,-2.9,1.3,-2.9,2.9c0,1.6,1.3,3,2.9,3c1.7,0,3,-1.4,3,-3c0,-1.6,-1.3,-2.9,-3,-2.9m-20.5,0c-1.6,0,-2.9,1.3,-2.9,2.9c0,1.6,1.3,3,2.9,3c1.7,0,3,-1.4,3,-3c0,-1.6,-1.3,-2.9,-3,-2.9m20.5,-.8c2.1,0,3.8,1.7,3.8,3.7c0,.1,0,.3,0,.4l-.1,.3h3.6c.4,0,.7,-.3,.7,-.6v-4.2h-.2c-3.3,-.9,-5.6,-1.8,-6.3,-2.5l-.1,-.1v-5.3H80.1v4.4H82v.8H55.7v-.8h1.9v-4.4H53.2V291c0,.3,.3,.6,.6,.6h5.3v-.3c0,-.1,0,-.3,0,-.4c0,-2,1.7,-3.7,3.7,-3.7c2.1,0,3.8,1.7,3.8,3.7c0,.1,0,.3,-.1,.4v.3H79.6v-.3c0,-.1,0,-.3,0,-.4c0,-2,1.7,-3.7,3.7,-3.7m2.2,-3.3h.1c.9,.6,3.4,1.5,5.3,2l.4,.1v-7.1H85.5Zm-10.8,-.6h4.6v-4.4H74.7v4.4Zm-5.4,0h4.6v-4.4H69.3v4.4Zm-5.5,0h4.7v-4.4H63.8v4.4Zm-5.4,0H63v-4.4H58.4v4.4Zm-2.2,-7.7c-1.3,0,-2.5,.9,-2.9,2.2l-.1,.3h38v-.3c-.3,-1.4,-1.2,-2.2,-2.5,-2.2Z" class="g4_34"/>
<path d="M61.6,331.1c.1,-.7,.2,-1.3,.3,-1.9c0,-.3,.5,-.3,.5,0c-.1,.7,-.2,1.3,-.3,2c-.1,.3,-.5,.2,-.5,-.1m.7,-2.5c.3,0,.3,-.5,0,-.5c-.4,0,-.4,.5,0,.5m7.6,16.7c-.2,.6,-1.6,.8,-2.1,.9c-1.2,.2,-2.4,.3,-3.7,.2c-.8,0,-3.9,0,-4,-1.2c-.2,-1.4,3.4,-1.4,4.2,-1.4c0,-1.5,0,-3,0,-4.4v-.1c-1.9,-.3,-3.4,-1.6,-3.9,-3.5c-.7,-2.7,.4,-5.8,.9,-8.5c0,0,.1,-.1,.1,-.1q.1,0,.1,0h.1c2.3,.1,4.6,.1,6.9,-.1c.1,0,.2,.1,.2,.2c1.4,3.8,2.7,11.5,-3,12.1c0,1.4,0,2.9,0,4.4c.9,0,4.5,0,4.2,1.5M60.7,333.2c1.2,-.4,2.3,-.5,3.5,-.3c1.9,.4,3.3,.6,5.1,-.3h.1c-.2,-1.8,-.6,-3.6,-1.1,-5c-2.2,.2,-4.4,.1,-6.6,.1c-.3,1.8,-.8,3.6,-1,5.5m4.6,5.7c3.4,-.1,4.2,-2.8,4.1,-5.8c-1.2,.5,-2.4,.9,-3.7,.7c-.8,-.2,-1.5,-.4,-2.3,-.5c-.9,-.1,-1.8,.1,-2.7,.4c0,.2,0,.5,0,.8c.1,2.5,1.9,4.5,4.6,4.4m3.8,5.9c-.2,-.2,-.8,-.3,-1,-.3c-.8,-.2,-1.6,-.2,-2.4,-.3c0,.2,0,.4,0,.6c0,.3,-.5,.3,-.5,0c0,-1.8,0,-3.6,0,-5.4c-.1,0,-.3,0,-.4,0c0,1.8,0,3.6,0,5.4c-.1,.3,-.5,.3,-.5,0c0,-.2,0,-.3,0,-.5c-.8,0,-1.7,0,-2.5,.2c-.5,.1,-1.6,.5,-.8,1c.8,.4,2.3,.4,3.1,.4c1.4,.1,3,.1,4.3,-.3c.3,-.1,1.1,-.2,.7,-.8m12,-.2c-.3,2.2,-3.5,1.6,-5.1,1.6c-1.9,.1,-4,.3,-4.1,-2.2c-.2,-3.1,-.2,-6.3,0,-9.5c0,-.9,.2,-1.8,.6,-2.6c.4,-.7,.9,-.8,1,-1.5c.4,-2.1,.8,-4.2,1,-6.2v-.1q-.1,0,-.2,-.1c-.1,-.1,-.2,-.2,-.2,-.3c-.1,-.2,0,-.5,.1,-.7c0,0,-.1,0,-.1,0H74c-.1,0,-.2,0,-.2,-.1c-.1,-.1,-.1,-.2,-.1,-.3c.1,-.4,.3,-1,.7,-1.2c.6,-.3,1.7,-.2,2.2,-.2c.6,0,1.6,-.1,2.1,.3c.3,.2,.5,.8,.5,1.2c.1,.1,0,.4,-.2,.3c-.1,0,-.2,0,-.3,0c.2,.2,.3,.5,.2,.7c-.1,.2,-.3,.3,-.4,.4c.1,1.1,.3,2.3,.5,3.4c.1,.9,.1,2.4,.5,3.3c.3,.5,1,.9,1.3,1.7c.3,.7,.4,1.5,.4,2.3c0,1.6,0,3.2,0,4.9c-.1,1.5,.1,3.3,-.1,4.9M78.6,329.2c-.1,-.9,-.3,-1.9,-.4,-2.8c-1.2,.1,-2.3,.2,-3.4,.1c-.2,1.1,-.4,2.3,-.6,3.5c1.5,.1,3,.1,4.5,-.1c0,-.2,0,-.5,-.1,-.7M74.8,323c0,.1,-.1,.3,-.1,.4c0,0,0,.1,0,.1q-.1,0,-.1,0c.1,0,.2,.1,.2,.1c1.1,.2,2.3,.2,3.3,0c0,0,.1,0,.1,0c0,0,0,-.1,.1,-.1v-.1c-.1,0,-.1,-.1,-.2,-.2q-.1,0,-.3,0c-.1,0,-.2,-.1,-.3,-.2c0,0,-.2,0,-.2,0c-.1,0,-.5,.1,-.6,.2c-.2,0,-.4,-.1,-.6,-.2c-.2,0,-.3,.1,-.6,.1c-.2,0,-.4,-.1,-.7,-.1m.1,2.9c1,.1,2.1,0,3.2,-.1c-.1,-.5,-.2,-1,-.2,-1.6c-.9,.2,-1.9,.2,-2.8,.1c-.1,.5,-.1,1,-.2,1.6m-.4,-3.6c.1,0,.2,0,.3,0c.2,0,.5,.2,.6,.2c.1,0,.4,-.1,.6,-.1c.2,0,.6,.2,.6,.2c.2,0,.5,-.3,.7,-.2c.2,0,.5,.1,.7,.2v-.1c.1,0,.2,-.1,.3,-.1c0,0,.2,0,.3,0c-.1,-.2,-.3,-.4,-.6,-.5c-.4,-.1,-.9,-.1,-1.4,-.1c-.8,0,-1.6,-.1,-2.1,.5m6,11c-.1,-.4,-.3,-.8,-.5,-1.1c-.3,-.4,-.7,-.5,-.9,-.9c-.1,0,-.1,-.1,-.1,-.2c-.1,-.2,-.2,-.4,-.2,-.6c-1.6,.2,-3.1,.2,-4.7,.1c-.1,.2,-.1,.5,-.3,.7c-.5,.7,-1,1.1,-1.2,2.1c-.1,.4,-.1,.9,-.1,1.4c-.1,2.9,0,5.8,0,8.7c0,1,0,1.7,1.3,2.1c1.2,.3,2.9,0,4.2,0c1.2,0,2.4,-.1,2.5,-1.5c.1,-.7,0,-1.4,0,-2.1c.1,-1.9,.1,-3.7,.1,-5.5c0,-1.1,.1,-2.2,-.1,-3.2m-3.8,10c-4.5,.6,-4.5,-8.3,-.4,-8.8c.1,0,.1,-.1,.1,-.1c4.4,0,4.7,8.3,.3,8.9M76.4,335c-3.4,.6,-3.5,8,.2,7.7c3.6,-.4,3.5,-7.7,-.2,-7.7m-2.7,-.3c.1,-.6,.4,-1.2,.9,-1.7c.3,-.3,-.1,-.7,-.4,-.4c-.5,.5,-.9,1.2,-1,2c-.1,.4,.5,.5,.5,.1m1.2,-2.3c.4,0,.4,-.6,0,-.6c-.4,0,-.4,.6,0,.6Z" class="g4_34"/>
<path d="M330.4,281.9c.2,0,.3,-.1,.3,-.3v-2c0,-.2,-.1,-.3,-.3,-.3h-9c-.4,-.3,-.7,-.7,-.7,-1.3c0,-.8,.7,-1.5,1.5,-1.5c.1,0,.3,-.2,.3,-.3v-2.1c0,-.1,-.2,-.3,-.3,-.3c-.8,0,-1.5,-.7,-1.5,-1.5c0,-.9,.7,-1.6,1.5,-1.6c.1,0,.3,-.1,.3,-.3v-2c0,-.2,-.2,-.3,-.3,-.3H288.8c-.2,0,-.4,.1,-.4,.3v2c0,.2,.2,.3,.4,.3c.8,0,1.4,.7,1.4,1.6c0,.8,-.6,1.5,-1.4,1.5c-.2,0,-.4,.2,-.4,.3v2.1c0,.1,.2,.3,.4,.3c.8,0,1.4,.7,1.4,1.5c0,.9,-.6,1.5,-1.4,1.5c-.2,0,-.4,.2,-.4,.4v2c0,.2,.2,.3,.4,.3c.8,0,1.4,.7,1.4,1.6c0,.8,-.6,1.5,-1.4,1.5c-.2,0,-.4,.1,-.4,.3v2c0,.2,.2,.3,.4,.3h33.4c.1,0,.3,-.1,.3,-.3v-2c0,-.2,-.2,-.3,-.3,-.3c-.8,0,-1.5,-.7,-1.5,-1.5c0,-.9,.7,-1.6,1.5,-1.6c.1,0,.3,-.1,.3,-.3v-2h2v18.6H301.7V288h-.6v10.5h-3.8v-1.4h.2c.9,-.3,1.6,-1.2,1.6,-2.2c0,-1,-.7,-1.9,-1.6,-2.1h-.2v-1.4l.2,-.1c.9,-.2,1.6,-1.1,1.6,-2.1c0,-.4,-.1,-.8,-.4,-1.2h-.8l.1,.1c.3,.3,.5,.7,.5,1.1c0,.8,-.7,1.5,-1.5,1.5c-.2,0,-.3,.2,-.3,.4v2c0,.2,.1,.3,.3,.3c.8,0,1.5,.7,1.5,1.5c0,.9,-.7,1.6,-1.5,1.6c-.2,0,-.3,.1,-.3,.3v2c0,.2,.1,.3,.3,.3h33.4c.2,0,.3,-.1,.3,-.3v-2c0,-.1,0,-.2,-.1,-.2c0,-.1,-.1,-.1,-.2,-.1c-.8,0,-1.5,-.7,-1.5,-1.6c0,-.4,.3,-.8,.6,-1.1c.2,-.2,.6,-.4,.9,-.4c.2,0,.3,-.1,.3,-.3v-2c0,-.2,-.1,-.4,-.3,-.4c-.8,0,-1.5,-.7,-1.5,-1.5c0,-.4,.2,-.8,.6,-1.1c.2,-.3,.6,-.4,.9,-.4c.2,0,.3,-.2,.3,-.4v-2c0,-.2,-.1,-.3,-.3,-.3c-.8,0,-1.5,-.7,-1.5,-1.5c0,-.9,.7,-1.6,1.5,-1.6m-2.1,1.6c0,1,.7,1.9,1.7,2.1h.1V287l-.1,.1c-.6,.1,-1,.4,-1.3,.9c-.1,.2,-.2,.4,-.3,.6c0,.2,-.1,.4,-.1,.6c0,.4,.1,.7,.3,1.1c.3,.4,.6,.7,1.1,.9c.1,0,.2,.1,.3,.1l.1,.1v1.4H330c-1,.2,-1.7,1.1,-1.7,2.1c0,1,.7,1.9,1.7,2.2h.1v1.4h-5V279.9h5v1.4H330c-1,.3,-1.7,1.2,-1.7,2.2m-12,3.8H293.4V268.7h22.9v18.6Zm4.9,-7.4c.2,.1,.3,.2,.5,.2l.2,.1v1.4h-.2c-.9,.3,-1.6,1.1,-1.6,2.2c0,1,.7,1.9,1.6,2.1h.2v1.4h-5V268.7h5v1.4l-.2,.1c-.9,.2,-1.6,1.1,-1.6,2.1c0,1,.7,1.9,1.6,2.1h.2v1.5h-.2c-.9,.2,-1.6,1.1,-1.6,2.1c0,.8,.4,1.5,1.1,1.9Zm-30.3,3.9c0,-1.1,-.7,-1.9,-1.7,-2.2h-.1v-1.4l.1,-.1c1,-.2,1.7,-1.1,1.7,-2.1c0,-1,-.7,-1.9,-1.7,-2.1h-.1v-1.5h.1c1,-.2,1.7,-1.1,1.7,-2.1c0,-1,-.7,-1.9,-1.7,-2.1l-.1,-.1v-1.4h3.7v18.6h-3.7v-1.4h.1c1,-.2,1.7,-1.1,1.7,-2.1Z" class="g4_34"/>
<g clip-path="url(#c3_34)">
<path d="M298.4,278.3h14.5v-1.4H298.4v1.4Zm1.1,7h1.6v-6.5h-1.6v6.5Zm2.1,0h2.7v-6.5h-2.7v6.5Zm3.2,0h1.6v-6.5h-1.6v6.5Zm2.1,0h2.7v-6.5h-2.7v6.5Zm3.2,0h1.6v-6.5h-1.6v6.5Zm-12.2,.4c-.1,0,-.2,-.1,-.2,-.2c0,-.1,.1,-.2,.2,-.2H299v-6.5h-.9c-.1,0,-.2,-.1,-.2,-.3v-1.6h-1.3c-.1,0,-.2,-.1,-.2,-.2c0,-.1,0,-.2,.1,-.3l9,-5.3q.1,0,.1,0q.1,0,.2,0l3.4,2c.1,.1,.2,.3,.1,.4c0,.1,-.1,.1,-.2,.1q-.1,0,-.1,0l-3.4,-2l-8.1,4.8h16.3l-3.5,-2.1c-.2,0,-.2,-.2,-.1,-.3c0,-.1,.1,-.1,.2,-.1c0,0,.1,0,.1,0l4.3,2.5c.1,.1,.1,.2,.1,.3c0,.1,-.1,.2,-.2,.2h-1.3v1.6c0,.2,-.1,.3,-.2,.3h-1v6.5h1c.1,0,.2,.1,.2,.2c0,.1,-.1,.2,-.2,.2Z" class="g4_34"/>
<path d="M313.2,285.7H297.9c-.2,0,-.3,-.1,-.3,-.2c0,-.2,.1,-.3,.3,-.3H299v-6.4h-.9c-.1,0,-.3,-.1,-.3,-.3v-1.6h-1.2c-.1,0,-.2,-.1,-.3,-.2c0,-.1,.1,-.2,.2,-.3l9,-5.3c.1,-.1,.2,-.1,.3,0l3.4,2c.2,.1,.2,.3,.1,.4c0,.1,-.2,.2,-.4,.1l-3.3,-1.9l-7.9,4.7h15.9l-3.4,-2c-.1,-.1,-.1,-.3,-.1,-.4c.1,-.2,.3,-.2,.4,-.1l4.3,2.5c.1,.1,.2,.2,.1,.3c0,.1,-.1,.2,-.2,.2h-1.2v1.6c0,.2,-.2,.3,-.3,.3h-1v6.4h1c.2,0,.3,.1,.3,.3c0,.1,-.1,.2,-.3,.2m-15.3,-.4c-.1,0,-.2,.1,-.2,.2c0,0,.1,.1,.2,.1h15.3c.1,0,.2,-.1,.2,-.1c0,-.1,-.1,-.2,-.2,-.2h-1v-6.6h1c.1,0,.2,-.1,.2,-.2v-1.7h1.3q.1,0,.2,-.1c0,-.1,-.1,-.2,-.1,-.2l-4.3,-2.6c-.1,0,-.2,0,-.3,.1c0,.1,0,.2,.1,.3l3.6,2.1H297.4h.1l8.1,-4.8h.1l3.3,1.9c.1,.1,.2,0,.3,0c0,-.1,0,-.3,-.1,-.3l-3.5,-2c0,-.1,-.1,-.1,-.2,0l-9,5.3c-.1,0,-.1,.1,-.1,.2q.1,.1,.2,.1h1.3v1.7c0,.1,.1,.2,.2,.2h1v6.6Zm13.9,0h-1.7v-6.6h1.7v6.6Zm-1.6,-.1h1.5v-6.4h-1.5v6.4Zm-.5,.1h-2.9v-6.6h2.9v6.6Zm-2.8,-.1h2.7v-6.4h-2.7v6.4Zm-.5,.1h-1.6v-6.6h1.6v6.6Zm-1.5,-.1h1.5v-6.4h-1.5v6.4Zm-.5,.1h-2.9v-6.6h2.9v6.6Zm-2.8,-.1h2.7v-6.4h-2.7v6.4Zm-.5,.1h-1.6v-6.6h1.6v6.6Zm-1.5,-.1H301v-6.4h-1.4v6.4ZM313,278.3H298.3v-1.5H313v1.5Zm-14.6,-.1h14.5v-1.3H298.4v1.3Z" class="g4_34"/>
</g>
<path d="M130.2,344.3C124.6,344.3,120,339.7,120,334c0,-5.7,4.6,-10.3,10.2,-10.3c5.7,0,10.3,4.6,10.3,10.3c0,5.7,-4.6,10.3,-10.3,10.3m0,-19.8c-5.2,0,-9.5,4.3,-9.5,9.5c0,5.3,4.3,9.6,9.5,9.6c5.3,0,9.5,-4.3,9.5,-9.6c0,-5.2,-4.2,-9.5,-9.5,-9.5Z" class="g4_34"/>
<path d="M148.2,345c-.2,0,-.4,-.2,-.4,-.4V332.7h-3.9c-.2,0,-.4,-.2,-.4,-.4c0,-9.6,4.3,-12.4,4.5,-12.5c0,-.1,.1,-.1,.2,-.1c0,0,.1,0,.2,0c.1,.1,.2,.2,.2,.4v24.5c0,.2,-.2,.4,-.4,.4m-.8,-23.6c-.4,.4,-.8,.9,-1.1,1.5c-.8,1.6,-1.9,4.4,-2,8.8v.2h3.5v-11Z" class="g4_34"/>
<path d="M114.9,345c-.2,0,-.4,-.2,-.4,-.4V329h-1.7c-.7,0,-1.2,-.5,-1.2,-1.2v-7.7c0,-.2,.1,-.4,.3,-.4c.2,0,.4,.2,.4,.4v7.7c0,.3,.2,.5,.5,.5h1.7v-8.2c0,-.2,.2,-.4,.4,-.4c.2,0,.4,.2,.4,.4v8.2H117c.3,0,.5,-.2,.5,-.5v-7.7c0,-.2,.1,-.4,.3,-.4c.3,0,.4,.2,.4,.4v7.7c0,.7,-.5,1.2,-1.2,1.2h-1.7v15.6c0,.2,-.2,.4,-.4,.4Z" class="g4_34"/>
<image clip-path="url(#c4_34)" preserveAspectRatio="none" x="1497" y="407" width="262" height="149" xlink:href="img/3.jpg"/>
<path d="M60.6,1242.9H866.1V903H60.6v339.9Z" class="g0_34"/>
<image clip-path="url(#c5_34)" preserveAspectRatio="none" x="61" y="903" width="805" height="340" xlink:href="img/4.jpg"/>
<path d="M951.6,1242.9H1459V903H951.6v339.9Z" class="g0_34"/>
<image clip-path="url(#c6_34)" preserveAspectRatio="none" x="952" y="903" width="507" height="340" xlink:href="img/5.jpg"/>
<path d="M97.5,420.6c.3,0,.6,0,.9,-.1c.2,-.1,.5,-.1,.7,-.3c.5,-.3,.9,-.7,1.2,-1.2c.3,-.5,.5,-1.1,.5,-1.7c0,-.6,-.2,-1.1,-.5,-1.6c-.3,-.5,-.7,-.9,-1.2,-1.2c-.3,-.2,-.5,-.3,-.8,-.3c-.2,-.1,-.5,-.1,-.8,-.1Z" class="ga_34"/>
<path d="M101.2,515.5c.3,0,.6,0,.9,-.1c.2,0,.5,-.1,.7,-.3c.5,-.3,.9,-.7,1.2,-1.2c.3,-.5,.5,-1.1,.5,-1.7c0,-.6,-.2,-1.1,-.5,-1.6c-.3,-.5,-.7,-.9,-1.2,-1.2c-.2,-.2,-.5,-.2,-.8,-.3c-.2,-.1,-.5,-.1,-.8,-.1Z" class="ga_34"/>
<path d="M101.2,757c.3,0,.6,-.1,.9,-.1c.2,-.1,.5,-.2,.7,-.3c.5,-.3,.9,-.7,1.2,-1.2c.3,-.5,.5,-1.1,.5,-1.7c0,-.6,-.2,-1.2,-.5,-1.7c-.3,-.5,-.7,-.9,-1.2,-1.2c-.2,-.1,-.5,-.2,-.8,-.3c-.2,0,-.5,-.1,-.8,-.1Z" class="ga_34"/>
<path d="M517.6,555.6c.3,0,.5,0,.8,-.1c.3,-.1,.5,-.2,.7,-.3c.6,-.3,1,-.7,1.3,-1.2c.3,-.5,.4,-1.1,.4,-1.7c0,-.6,-.1,-1.1,-.4,-1.7c-.3,-.5,-.7,-.9,-1.3,-1.2c-.2,-.1,-.5,-.2,-.7,-.2c-.3,-.1,-.6,-.1,-.8,-.2Z" class="ga_34"/>
<path d="M517.2,805.1c.3,0,.6,0,.8,-.1c.3,-.1,.5,-.1,.8,-.3c.5,-.3,.9,-.7,1.2,-1.2c.3,-.5,.5,-1.1,.5,-1.7c0,-.6,-.2,-1.1,-.5,-1.6c-.3,-.5,-.7,-.9,-1.2,-1.2c-.3,-.2,-.5,-.3,-.8,-.3c-.2,-.1,-.5,-.1,-.8,-.1Z" class="ga_34"/>
<path d="M1272.1,468.5c.3,0,.6,0,.9,-.1c.2,-.1,.5,-.2,.7,-.3c.5,-.3,1,-.7,1.3,-1.2c.3,-.5,.4,-1.1,.4,-1.7c0,-.6,-.1,-1.1,-.4,-1.7c-.3,-.5,-.8,-.9,-1.3,-1.2c-.2,-.1,-.5,-.2,-.7,-.2c-.3,-.1,-.6,-.2,-.9,-.2Z" class="ga_34"/>
<path d="M1257.6,773.5c.3,0,.6,0,.9,-.1c.2,0,.5,-.1,.7,-.2c.5,-.3,.9,-.8,1.2,-1.3c.3,-.5,.5,-1,.5,-1.6c0,-.6,-.2,-1.2,-.5,-1.7c-.3,-.5,-.7,-.9,-1.2,-1.2c-.2,-.1,-.5,-.2,-.8,-.3c-.2,-.1,-.5,-.1,-.8,-.1Z" class="ga_34"/>
</svg>