<?xml version="1.0" encoding="UTF-8" standalone="no"?>
<!DOCTYPE svg PUBLIC "-//W3C//DTD SVG 1.1//EN"
"http://www.w3.org/Graphics/SVG/1.1/DTD/svg11.dtd">
<svg viewBox="0 0 909 1286" version="1.1" xmlns="http://www.w3.org/2000/svg" xmlns:xlink="http://www.w3.org/1999/xlink">
<defs>
<style type="text/css"><![CDATA[
.g0_4{
fill: #78CDD0;
}
.g1_4{
fill: none;
stroke: #58595B;
stroke-width: 2.291;
stroke-miterlimit: 10;
}
.g2_4{
fill: none;
stroke: #FFF;
stroke-width: 2.763;
stroke-linecap: round;
stroke-linejoin: round;
}
.g3_4{
fill: #18BBAC;
}
.g4_4{
fill: #FFF;
}
.g5_4{
fill: none;
stroke: #FFF;
stroke-width: 1.356;
stroke-miterlimit: 10;
}
.g6_4{
fill: none;
stroke: #18BBAC;
stroke-width: 2.577;
stroke-miterlimit: 10;
}
.g7_4{
fill: none;
stroke: #FFF;
stroke-width: 3.055;
stroke-miterlimit: 10;
}
.g8_4{
fill: #4BC0B5;
}
]]></style>
</defs>
<path d="M71.5,142.7c15.5,0,28.1,-12.6,28.1,-28.2C99.6,99,87,86.4,71.5,86.4C55.9,86.4,43.3,99,43.3,114.5c0,15.6,12.6,28.2,28.2,28.2Z" class="g0_4"/>
<path d="M71.5,275.9c15.5,0,28.1,-12.6,28.1,-28.2C99.6,232.2,87,219.6,71.5,219.6c-15.6,0,-28.2,12.6,-28.2,28.1c0,15.6,12.6,28.2,28.2,28.2Z" class="g0_4"/>
<path d="M71.5,425C87,425,99.6,412.4,99.6,396.9C99.6,381.3,87,368.7,71.5,368.7c-15.6,0,-28.2,12.6,-28.2,28.2c0,15.5,12.6,28.1,28.2,28.1Z" class="g0_4"/>
<path d="M71.5,573.6C87,573.6,99.6,561,99.6,545.4C99.6,529.9,87,517.3,71.5,517.3c-15.6,0,-28.2,12.6,-28.2,28.1c0,15.6,12.6,28.2,28.2,28.2Z" class="g0_4"/>
<path d="M71.5,1032.9c15.5,0,28.1,-12.6,28.1,-28.2C99.6,989.2,87,976.6,71.5,976.6c-15.6,0,-28.2,12.6,-28.2,28.1c0,15.6,12.6,28.2,28.2,28.2Z" class="g0_4"/>
<path d="M43.3,65.1h821" class="g1_4"/>
<path d="M81.1,104.5c0,0,.9,.7,4.3,.7L75.3,126c0,0,-18.9,.8,-19.6,-5.2M83.2,109.7c0,0,1.8,.8,4.2,.8l-9.3,20.6c-2.8,-.2,-24.8,-1.7,-22.4,-10.3M65.9,101.1c0,0,9.5,1.2,17.4,-3.1l-9.4,21.6c-4.6,3.9,-18.2,1.2,-18.2,1.2L65.9,101.1Z" class="g2_4"/>
<path d="M66.7,109.6c.5,-.2,1.5,-.2,1.8,-.7c.1,-.4,.3,-.7,.1,-.8c-.3,-.3,-.6,-1,-.4,-1.6c.4,-.9,.8,-2.2,2.7,-2.3c1.7,-.1,2.6,.8,2,2.6c-.4,1.1,-.9,1.4,-1.2,1.6q-.3,.2,-.5,.7c-.2,.5,.9,.6,1.5,.6c1,0,1.3,.5,.9,1.7l-.8,1.3c-2.7,2.4,-7.6,1.8,-9.8,1.7c0,0,1,-2,1.6,-3c.6,-1.2,.8,-1.3,2.1,-1.8Z" class="g3_4"/>
<path d="M72.3,114.8c-.4,.2,-.8,.4,-1.2,.6c-.2,.1,-.5,.2,-.7,.4c-.1,.2,-.3,.4,-.6,.3c-.3,0,0,-.3,-.3,-.5c-.2,0,-.7,.1,-.9,.2c-.4,0,-.7,.1,-.9,.4c-.2,.4,-.5,1.1,-1,.8c-.4,-.2,.2,-.8,-.3,-1c-.3,-.2,-.9,-.1,-1.1,.2c-.3,.3,-.4,.9,-.9,1c-.5,.2,-.7,-.2,-.6,-.6c.1,-.3,.4,-.8,-.1,-.8c-.4,-.1,-1.1,-.4,-1.4,.1c-.1,.2,-.3,.6,-.4,.9c-.3,.5,-.6,1.1,-.8,1.6c0,0,.8,.2,.9,.2c.4,-.1,.6,-.4,.9,-.7c.3,-.2,.8,-.4,1.1,-.1c.3,.2,.1,.7,.5,.8c.5,.2,.7,-.2,.9,-.5c.2,-.3,.7,-.5,1,-.2c.2,.1,.1,.4,.3,.5c.1,.2,.3,.2,.5,.1c.5,0,.7,-.4,1,-.8c.2,-.2,.6,-.8,.9,-.6c.3,.2,.3,.6,.6,.7c.4,.1,.6,0,.9,-.1c.4,-.2,.4,-.3,.6,-.7c.3,-.7,.7,-1.4,1.1,-2.2Z" class="g3_4"/>
<path d="M76.1,254.1c0,0,-.4,1.3,-.7,3.4c-.4,3.6,.4,6,3.9,6.5c2.9,.5,4.8,-1.7,5.1,-5.3c.3,-2.1,.3,-3.5,.3,-3.5Zm9.7,-4.6c-.1,.5,-.4,1,-1,.8c-2.2,-.5,-5.6,-.6,-7.6,-.1c-.7,.1,-1.1,-.2,-1.4,-1.1c-.7,-2.2,-1.7,-4.8,-1.5,-8.2c.5,-7.6,3.6,-9.7,6,-9.5c2.4,.1,8.4,3.8,5.5,18.1Z" class="g4_4"/>
<path d="M58.2,255.2c0,0,0,1.4,.3,3.5c.4,3.6,2.2,5.8,5.2,5.3c3.4,-.5,4.2,-2.9,3.8,-6.5c-.2,-2.1,-.7,-3.4,-.7,-3.4Zm4.4,-23.8c2.4,-.2,5.5,1.9,6,9.5c.3,3.4,-.8,6,-1.5,8.2c-.3,.9,-.6,1.2,-1.4,1.1c-2,-.5,-5.4,-.4,-7.6,.1c-.6,.2,-.9,-.3,-1,-.8c-2.9,-14.3,3.1,-18,5.5,-18.1Z" class="g3_4"/>
<path d="M76.6,534.8c0,.7,-.6,1.3,-1.3,1.3H67.6c-.7,0,-1.3,-.6,-1.3,-1.3v-2.6c0,-.7,.6,-1.2,1.3,-1.2h2.6c0,0,-.1,-1.3,1.3,-1.3c1.3,0,1.2,1.3,1.2,1.3h2.6c.7,0,1.3,.5,1.3,1.2v2.6Z" class="g5_4"/>
<path d="M65,542.6H77.9M65,547.7h9m-9,5.2H77.9" class="g6_4"/>
<path d="M80.5,532.2H76.6v3.9h3.9V558H62.4V536.1h3.9v-3.9H62.4c-2.1,0,-3.8,1.8,-3.8,3.9V558c0,2.2,1.7,3.9,3.8,3.9H80.5c2.1,0,3.8,-1.7,3.8,-3.9V536.1c0,-2.1,-1.7,-3.9,-3.8,-3.9Z" class="g4_4"/>
<path d="M74,994c.5,-.8,1.3,-1.1,1.8,-.8l3.3,2.2c.5,.3,.3,1.6,0,2l-7.2,11.4c-.3,.5,-.7,.7,-1.1,.3l-2.2,-1.3c-2,-1.6,-1.6,-3.1,-.5,-4.9Z" class="g4_4"/>
<path d="M77.3,989.8c0,1.9,1.5,3.4,3.3,3.4c1.9,0,3.4,-1.5,3.4,-3.4c0,-1.8,-1.5,-3.3,-3.4,-3.3c-1.8,0,-3.3,1.5,-3.3,3.3Z" class="g3_4"/>
<path d="M75.3,993l-6,-1.3c-.5,-.1,-1,0,-1.4,.2l-5.6,3.8c-.8,.6,-1,1.7,-.5,2.5c.4,.5,.9,.7,1.5,.7c.3,0,.6,-.1,.9,-.3l5.1,-3.4l5.3,1.2c.9,.2,1.9,-.4,2.1,-1.3c.2,-1,-.4,-1.9,-1.4,-2.1Z" class="g4_4"/>
<path d="M65.9,1007.7l-2,2.8H56.6c-1.1,0,-2,.8,-2.1,2c0,1.1,1,2.1,2.1,2.1H65c.7,0,1.4,-.4,1.9,-1.1l2,-2.8c0,0,-2.8,-1.9,-3,-3Z" class="g4_4"/>
<path d="M79,1009.7l-6.1,-4.2c-1,-.6,-2.3,-.4,-2.9,.6c-.7,.9,-.4,2.2,.5,2.9l4.7,3.2l-3.5,7.8c-.5,1.1,0,2.3,1,2.8c.3,.1,.6,.2,.9,.2c.8,0,1.5,-.5,1.9,-1.3l4.2,-9.4c.4,-.9,.1,-2,-.7,-2.6Z" class="g4_4"/>
<path d="M86.8,1001.7l-5.1,-.7l-2.2,-5c-.4,-.9,-1.4,-1.3,-2.3,-.9c-.9,.4,-1.3,1.4,-.9,2.3l2.7,6c.2,.5,.7,.9,1.3,1l6.1,.7c.1,0,.2,0,.2,0c.9,0,1.6,-.6,1.8,-1.5c.1,-.9,-.6,-1.8,-1.6,-1.9Z" class="g4_4"/>
<path d="M71.5,386.2c-13.3,0,-19.3,7.9,-19.3,10.4V407c0,2.4,1.9,4.4,4.4,4.4H86.3c2.5,0,4.5,-2,4.5,-4.4V396.6c0,-2.5,-6.1,-10.4,-19.3,-10.4Zm0,2.9c10.8,0,15.8,5.9,16.3,7.6V407c0,.8,-.7,1.5,-1.5,1.5H56.6c-.8,0,-1.5,-.7,-1.5,-1.5V396.7c.5,-1.7,5.5,-7.6,16.4,-7.6Z" class="g4_4"/>
<path d="M81.5,390.1v-1.9c0,-1.7,-1,-7.1,-10,-7.1c-9.1,0,-10.1,5.4,-10.1,7.1v1.9" class="g7_4"/>
<path d="M75.6,397.4H67.3c0,-2.3,-2.3,-3.5,-2.3,-3.5c0,0,1.8,-1.2,6.5,-1.2c4.7,0,6.5,1.2,6.5,1.2c0,0,-2.4,1.2,-2.4,3.5Z" class="g3_4"/>
<path d="M110.8,114.6c0,-5.6,-1.9,-10.4,-6.4,-13.5l-.6,.7c3.1,2.5,4.8,7.5,4.8,12.7c0,5.3,-1.7,10.2,-4.8,12.7l.6,.8c4.5,-3.2,6.4,-7.9,6.4,-13.4m10.9,0c0,-5.6,-1.9,-10.4,-6.4,-13.5l-.6,.7c3,2.5,4.8,7.5,4.8,12.7c0,5.3,-1.7,10.2,-4.8,12.7l.6,.8c4.5,-3.2,6.4,-7.9,6.4,-13.4Z" class="g8_4"/>
<path d="M110.8,247.7c0,-5.5,-1.9,-10.3,-6.4,-13.4l-.6,.7c3.1,2.5,4.8,7.5,4.8,12.7c0,5.2,-1.7,10.2,-4.8,12.7l.6,.7c4.5,-3.1,6.4,-7.9,6.4,-13.4m10.9,0c0,-5.5,-1.9,-10.3,-6.4,-13.4l-.6,.7c3,2.5,4.8,7.5,4.8,12.7c0,5.2,-1.7,10.2,-4.8,12.7l.6,.7c4.5,-3.1,6.4,-7.9,6.4,-13.4Z" class="g8_4"/>
<path d="M110.8,396.9c0,-5.5,-1.9,-10.4,-6.4,-13.4l-.6,.7c3.1,2.5,4.8,7.4,4.8,12.7c0,5.2,-1.7,10.1,-4.8,12.7l.6,.7c4.5,-3.1,6.4,-7.9,6.4,-13.4m10.9,0c0,-5.5,-1.9,-10.4,-6.4,-13.4l-.6,.7c3,2.5,4.8,7.4,4.8,12.7c0,5.2,-1.7,10.1,-4.8,12.7l.6,.7c4.5,-3.1,6.4,-7.9,6.4,-13.4Z" class="g8_4"/>
<path d="M110.8,545.5c0,-5.6,-1.9,-10.4,-6.4,-13.5l-.6,.7c3.1,2.5,4.8,7.5,4.8,12.7c0,5.3,-1.7,10.2,-4.8,12.7l.6,.7c4.5,-3.1,6.4,-7.9,6.4,-13.3m10.9,0c0,-5.6,-1.9,-10.4,-6.4,-13.5l-.6,.7c3,2.5,4.8,7.5,4.8,12.7c0,5.3,-1.7,10.2,-4.8,12.7l.6,.7c4.5,-3.1,6.4,-7.9,6.4,-13.3Z" class="g8_4"/>
<path d="M110.8,1004.7c0,-5.5,-1.9,-10.3,-6.4,-13.4l-.6,.7c3.1,2.5,4.8,7.5,4.8,12.7c0,5.3,-1.7,10.2,-4.8,12.7l.6,.7c4.5,-3.1,6.4,-7.9,6.4,-13.4m10.9,0c0,-5.5,-1.9,-10.3,-6.4,-13.4l-.6,.7c3,2.5,4.8,7.5,4.8,12.7c0,5.3,-1.7,10.2,-4.8,12.7l.6,.7c4.5,-3.1,6.4,-7.9,6.4,-13.4Z" class="g8_4"/>
</svg>