<?xml version="1.0" encoding="UTF-8" standalone="no"?>
<!DOCTYPE svg PUBLIC "-//W3C//DTD SVG 1.1//EN"
"http://www.w3.org/Graphics/SVG/1.1/DTD/svg11.dtd">
<svg viewBox="0 0 1818 1286" version="1.1" xmlns="http://www.w3.org/2000/svg" xmlns:xlink="http://www.w3.org/1999/xlink">
<defs>
<clipPath id="c0_45"><path d="M909.4,351.4V0h604.5V351.4Z"/></clipPath>
<clipPath id="c1_45"><path d="M0,1286.2V0H1818.9V1286.2Z"/></clipPath>
<clipPath id="c2_45"><path d="M356.2,351.4V0H909.4V351.4Z"/></clipPath>
<clipPath id="c3_45"><path d="M58.5,332.2V317.7H76v14.5Z"/></clipPath>
<clipPath id="c4_45"><path d="M951.6,1242.9V835.8H1459v407.1Z"/></clipPath>
<clipPath id="c5_45"><path d="M60.6,1242.9V782.4H866.1v460.5Z"/></clipPath>
<style type="text/css"><![CDATA[
.g0_45{
fill: #FFF;
}
.g1_45{
fill: none;
stroke: #59B1E4;
stroke-width: 0.152;
}
.g2_45{
fill: none;
stroke: #59B1E4;
stroke-width: 0.381;
}
.g3_45{
fill: #B9D8F3;
}
.g4_45{
fill: #000;
}
.g5_45{
fill: #292223;
}
.g6_45{
fill: #D6E8F8;
}
.g7_45{
fill: none;
stroke: #FFF;
stroke-width: 0.763;
stroke-miterlimit: 10;
}
.g8_45{
fill: none;
stroke: #D9D7D6;
stroke-width: 0.763;
stroke-miterlimit: 10;
}
.g9_45{
fill: none;
stroke: #000;
stroke-width: 0.572;
stroke-miterlimit: 10;
}
]]></style>
</defs>
<image clip-path="url(#c0_45)" preserveAspectRatio="none" x="909" y="0" width="605" height="351" xlink:href="img/1.jpg"/>
<image clip-path="url(#c1_45)" preserveAspectRatio="none" x="1412" y="-28" width="515" height="381" xlink:href="img/2.png"/>
<path d="M1493.8,374.3h260.6V166.1H1493.8V374.3Z" class="g0_45"/>
<path d="M1493.5,166.1V374.7h261.2V165.8H1493.5v.3Z" class="g1_45"/>
<path d="M1494,374.1h260.2V166.3H1494V374.1Z" class="g2_45"/>
<path d="M356.2,351.4H909.4V0H356.2V351.4Z" class="g3_45"/>
<image clip-path="url(#c2_45)" preserveAspectRatio="none" x="355" y="0" width="556" height="351" xlink:href="img/3.jpg"/>
<g clip-path="url(#c1_45)" opacity="0.75">
<path d="M-5.7,144.5H909.4V55.8H-5.7v88.7Z" class="g0_45"/>
</g>
<path d="M0,55.6H356.6V0H0V55.6Z" class="g3_45"/>
<path d="M192.9,254.4c23.9,0,43.3,-19.4,43.3,-43.3c0,-23.9,-19.4,-43.3,-43.3,-43.3c-23.9,0,-43.3,19.4,-43.3,43.3c0,23.9,19.4,43.3,43.3,43.3Z" class="g4_45"/>
<path d="M1495.6,398.1h158.7v35.6H1495.6V398.1Zm158.7,0h103.6v35.6H1654.3V398.1Z" class="g5_45"/>
<path d="M1654.3,433.7h103.6v26H1654.3v-26Zm0,26h103.6v26H1654.3v-26Zm0,26h103.6v26H1654.3v-26Zm0,26h103.6v25.9H1654.3V511.7Zm0,25.9h103.6v26H1654.3v-26Z" class="g6_45"/>
<path d="M1495.2,398.1h159.1m-158.7,35.2V398.5m158.7,-.4h104m-.4,35.2V398.5m-103.2,35.2h103.6m-104.4,26h103.6m-103.6,26h103.6m-103.6,26h103.6m-103.6,25.9h103.6" class="g7_45"/>
<path d="M1654.3,433.3V398.5m0,165.1h104" class="g8_45"/>
<path d="M1654.3,459.3V434.1m0,51.2V460.1m0,51.2V486.1m0,51.2V512m0,51.2V538" class="g7_45"/>
<path d="M1495.2,433.7h159.5m-159.1,26h158.3m-158.3,26h158.3m-158.3,26h158.3m-158.3,25.9h158.3m-158.3,26h158.7" class="g8_45"/>
<path d="M216.6,275.4c-.1,0,-.2,0,-.3,0c-1.5,-.2,-2.7,-1.6,-2.5,-3.1c.1,-1.5,1.3,-2.6,2.8,-2.6c.1,0,.2,0,.3,0c1.5,.2,2.7,1.6,2.5,3.1c-.1,1.5,-1.3,2.6,-2.8,2.6m0,-4.9c-.5,0,-.9,.1,-1.3,.4c-.4,.4,-.7,.9,-.8,1.4c0,.6,.2,1.1,.5,1.6c.4,.4,.8,.7,1.4,.7q.1,0,.2,0c1.1,0,2,-.8,2.1,-1.8c0,-.6,-.1,-1.1,-.5,-1.6c-.3,-.4,-.8,-.7,-1.4,-.7q-.1,0,-.2,0Z" class="g4_45"/>
<path d="M221,299.3c-.3,0,-.6,-.1,-.8,-.2c-.3,-.2,-.6,-.5,-.6,-.9l-1.9,-5.7l-2.4,-2.8l-1.4,3.3c0,0,0,.1,-.1,.1l-5.3,4.7c-.3,.3,-.7,.4,-1,.4c-.4,0,-.8,-.2,-1.1,-.4c-.3,-.3,-.4,-.7,-.4,-1.1c0,-.4,.2,-.7,.5,-1l4.3,-4.5l1.6,-5.2l.5,-5.1l-1.8,1.5l-1,3.4c-.2,.4,-.5,.8,-.8,.9c-.3,.1,-.5,.2,-.7,.2c-.2,0,-.4,0,-.6,-.1c-.7,-.3,-1.2,-1.1,-.9,-1.9l1.3,-4.2q0,-.1,.1,-.2l4.2,-3.4c.5,-.4,1.1,-.6,1.7,-.6c.1,0,.2,0,.3,0l3.2,.3c.6,0,1.1,.3,1.5,.6l3.2,2.7l3.5,.4c.9,.1,1.5,.8,1.5,1.6c-.1,.5,-.3,.8,-.6,1.1c-.3,.3,-.6,.4,-1,.4c0,0,-.1,0,-.1,0l-4.4,-.5q-.1,0,-.2,-.1l-2.7,-2.2l-.6,5.7l3.1,4.1c0,.1,.1,.1,.1,.2l1.2,6.7c.1,.4,0,.8,-.2,1.1c-.2,.4,-.5,.6,-.9,.7c-.1,0,-.2,0,-.3,0m-7.6,-19.6c0,0,.1,0,.2,0c.1,.1,.2,.2,.2,.4l-.6,5.9l5.1,6q.1,.1,.1,.2l1.9,5.8c0,.2,.2,.4,.3,.5c.1,0,.2,.1,.4,.1c0,0,.1,-.1,.1,-.1c.2,0,.4,-.1,.5,-.3c.1,-.1,.1,-.3,0,-.5L220.4,291l-3.1,-4.2c0,0,0,-.1,0,-.2l.6,-6.6c0,-.1,.1,-.2,.3,-.3c0,0,.1,0,.1,0c.1,0,.2,0,.3,.1l3.1,2.6l4.3,.4c.2,0,.4,-.1,.5,-.2c.2,-.1,.3,-.3,.3,-.5c.1,-.4,-.3,-.8,-.7,-.9l-3.7,-.3c0,0,-.1,-.1,-.2,-.1L218.9,278c-.3,-.3,-.7,-.4,-1,-.4l-3.3,-.4c0,0,-.1,0,-.2,0c-.4,0,-.8,.2,-1.2,.4l-4.1,3.4l-1.3,4.1c-.1,.4,.1,.8,.5,1c.1,0,.2,0,.3,0c.1,0,.2,0,.3,0c.2,-.1,.4,-.3,.4,-.5l1.1,-3.5c0,-.1,.1,-.2,.1,-.2l2.6,-2.1c.1,-.1,.2,-.1,.3,-.1m-1.9,11.8q-.1,.1,-.1,.1l-4.4,4.6v.1c-.2,.1,-.2,.3,-.2,.4c0,.2,0,.4,.2,.5c.1,.2,.3,.2,.5,.2c.1,0,.3,0,.4,-.1l5.4,-4.7l1.5,-3.6l-1.9,-2.1Z" class="g4_45"/>
<path d="M225.9,275.6v-6.8c0,-.2,.2,-.3,.3,-.3c.2,0,.4,.1,.4,.3v.6c1.5,-1.8,3.1,-1,4.6,-.2c1.5,.8,3,1.6,4.5,-.7c0,-.2,.3,-.2,.4,-.1c.2,.1,.2,.2,.2,.4l-.8,3l.8,1.9c0,.1,0,.3,-.1,.4c-1.8,2.8,-3.5,1.9,-5.3,.9c-1.4,-.8,-2.9,-1.6,-4.3,.7v4.9c0,.2,-.2,.3,-.4,.3c-.1,0,-.3,-.1,-.3,-.3Zm.7,-5.1v4c1.5,-1.7,3.1,-.9,4.6,-.1c1.5,.8,2.9,1.6,4.4,-.6l-.8,-1.8q0,-.1,0,-.2l.4,-1.7c-1.4,1.3,-2.8,.5,-4.3,-.3c-1.4,-.7,-2.9,-1.5,-4.3,.7Z" class="g4_45"/>
<path d="M208.9,342.4c-.2,0,-.4,-.2,-.4,-.4V327.3c0,-.2,.2,-.3,.4,-.3h1.3c0,0,.1,-.1,.1,-.2v-4.3c0,-3.7,3.2,-6.7,7.2,-6.7c1.9,0,3.7,.7,5.1,2c1.4,1.2,2.1,2.9,2.1,4.7v4.3c0,.1,.1,.2,.1,.2h1.3c.2,0,.4,.1,.4,.3V342c0,.2,-.2,.4,-.4,.4Zm.5,-14.7q-.1,0,-.1,.1v13.8c0,0,0,.1,.1,.1h16.2c0,0,.1,-.1,.1,-.1V327.8c0,-.1,-.1,-.1,-.1,-.1Zm8.1,-9.6c1.3,0,2.5,.4,3.4,1.2c.9,.9,1.4,2,1.4,3.2v4.3c0,.1,0,.2,.1,.2h1.4c.1,0,.1,-.1,.1,-.2v-4.3c0,-1.6,-.7,-3.1,-1.9,-4.2c-1.2,-1.1,-2.8,-1.8,-4.5,-1.8c-3.5,0,-6.4,2.7,-6.4,6v4.3c0,.1,0,.2,.1,.2h1.4c.1,0,.1,-.1,.1,-.2v-4.3c0,-2.5,2.2,-4.4,4.8,-4.4m0,.7c-2.2,0,-4,1.6,-4,3.7v4.3c0,.1,0,.2,.1,.2h7.8c0,0,.1,-.1,.1,-.2v-4.3c0,-1,-.4,-1.9,-1.2,-2.6c-.7,-.7,-1.7,-1.1,-2.8,-1.1Z" class="g4_45"/>
<path d="M224.3,340.8c-.2,0,-.4,-.1,-.4,-.3V330.3c0,-.2,.2,-.4,.4,-.4c.2,0,.4,.2,.4,.4v10.2c0,.2,-.2,.3,-.4,.3Z" class="g4_45"/>
<path d="M224.3,329.3c-.1,0,-.3,-.1,-.4,-.3c0,-.1,0,-.3,.2,-.4q.1,-.1,.2,-.1c.1,0,.2,.1,.3,.1c.1,.1,.1,.2,.1,.3c0,.1,0,.2,-.1,.2c-.1,.1,-.2,.2,-.3,.2Z" class="g4_45"/>
<path d="M216.7,337.7c-.1,0,-.2,0,-.3,-.1l-2.5,-2.4q-.1,-.1,-.1,-.2c0,-.1,0,-.2,.1,-.3c0,-.1,.1,-.1,.2,-.1c.2,0,.3,0,.3,.1l2.2,2h.2l3.7,-4.4c.1,-.1,.2,-.1,.3,-.1c.1,0,.2,0,.3,.1c.1,0,.1,.1,.1,.2c0,.1,0,.2,0,.3l-4.2,4.8c-.1,0,-.2,.1,-.3,.1Z" class="g4_45"/>
<path d="M249.5,332.1c-.2,0,-.3,-.1,-.3,-.3c0,-.2,.1,-.3,.3,-.3h19.9c1.5,0,2.7,-1.3,2.7,-2.9c0,-1,-.4,-1.9,-1.1,-2.4h-.1l-4.1,-3.9c-2.7,-2.1,-5.8,-3.1,-9.1,-3.1h-8.2c-.2,0,-.3,-.2,-.3,-.4c0,-.1,.1,-.3,.3,-.3h8.2c3.4,0,6.7,1.1,9.5,3.2v.1l4.1,3.9c.9,.6,1.4,1.7,1.4,2.9c0,1.9,-1.5,3.5,-3.3,3.5Z" class="g4_45"/>
<path d="M269.9,325.1L258,324.3c-.6,0,-1.1,-.5,-1.1,-1.2v-.9c0,-.6,.5,-1.1,1.1,-1.1h8.1c.2,0,.3,.1,.3,.3c0,.2,-.1,.3,-.3,.3H258c-.3,0,-.5,.2,-.5,.5v.9c0,.3,.2,.5,.5,.5l11.9,.8c.1,0,.2,.1,.2,.1c.1,.1,.1,.2,.1,.3c0,.1,-.1,.3,-.3,.3Z" class="g4_45"/>
<path d="M254.3,324.3c-.7,0,-1.2,-.6,-1.2,-1.3v-.6c0,-.8,.5,-1.3,1.2,-1.3h.6c.6,0,1.2,.5,1.2,1.3v.6c0,.7,-.6,1.3,-1.2,1.3Zm0,-2.6c-.3,0,-.6,.3,-.6,.7v.6c0,.3,.3,.6,.6,.6h.6c.3,0,.6,-.3,.6,-.6v-.6c0,-.4,-.3,-.7,-.6,-.7Z" class="g4_45"/>
<path d="M250.6,324.3c-.7,0,-1.2,-.6,-1.2,-1.3v-.6c0,-.8,.5,-1.3,1.2,-1.3h.6c.6,0,1.2,.5,1.2,1.3v.6c0,.7,-.6,1.3,-1.2,1.3Zm0,-2.6c-.3,0,-.6,.3,-.6,.7v.6c0,.3,.3,.6,.6,.6h.6c.3,0,.6,-.3,.6,-.6v-.6c0,-.4,-.3,-.7,-.6,-.7Z" class="g4_45"/>
<path d="M249.4,336.3c-.1,0,-.3,-.1,-.3,-.3c0,-.2,.2,-.3,.3,-.3h22c.2,0,.3,.1,.3,.3c0,.2,-.1,.3,-.3,.3Z" class="g4_45"/>
<path d="M252.8,333.5c-.7,0,-1.3,-.8,-1.3,-1.7c0,-.2,.2,-.3,.3,-.3c.2,0,.3,.1,.3,.3c0,.6,.3,1.1,.7,1.1h6c.3,0,.6,-.5,.6,-1.1c0,-.2,.2,-.3,.3,-.3c.2,0,.3,.1,.3,.3c0,.9,-.5,1.7,-1.2,1.7Z" class="g4_45"/>
<path d="M260.7,333.5c-.7,0,-1.3,-.8,-1.3,-1.7c0,-.2,.2,-.3,.3,-.3c.2,0,.3,.1,.3,.3c0,.6,.4,1.1,.7,1.1h6c.3,0,.7,-.5,.7,-1.1c0,-.2,.1,-.3,.3,-.3c.1,0,.3,.1,.3,.3c0,.9,-.6,1.7,-1.3,1.7Z" class="g4_45"/>
<path d="M276.5,298.2c-.2,0,-.4,-.2,-.4,-.4v-5.2c0,-.1,-.1,-.2,-.2,-.2H248c-.1,0,-.2,.1,-.2,.2v5.2c0,.2,-.2,.4,-.4,.4c-.2,0,-.3,-.2,-.3,-.4V279.7c0,-.2,.1,-.3,.3,-.3c.2,0,.4,.1,.4,.3v7.1c0,.1,.1,.2,.2,.2h1.2c.1,0,.2,0,.2,-.1q0,-.1,0,-.2c-.3,-.3,-.4,-.6,-.4,-1c0,-1.2,1.4,-2.1,3.2,-2.1c1.8,0,3.2,.9,3.2,2.1c0,.4,-.1,.7,-.4,1q0,.1,0,.2c0,.1,.1,.1,.2,.1h20.7c.1,0,.2,-.1,.2,-.2v-2.1c0,-.2,.2,-.3,.4,-.3c.2,0,.4,.1,.4,.3v13.1c0,.2,-.2,.4,-.4,.4M248,287.8c-.1,0,-.2,.1,-.2,.2v3.5c0,.1,.1,.1,.2,.1h27.9c.1,0,.2,0,.2,-.1V288c0,-.1,-.1,-.2,-.2,-.2Zm4.2,-3.4c-1.5,0,-2.5,.6,-2.5,1.3c0,.6,1,1.3,2.5,1.3c1.5,0,2.5,-.7,2.5,-1.3c0,-.7,-1,-1.3,-2.5,-1.3Z" class="g4_45"/>
<path d="M267,274.3c0,-1.4,-1.1,-2.5,-2.5,-2.5c-.3,0,-.6,.1,-.9,.2c.9,.3,1.6,1.3,1.6,2.3c0,1.1,-.7,2.1,-1.6,2.4c.3,.1,.6,.2,.9,.2c1.4,0,2.5,-1.1,2.5,-2.6Z" class="g4_45"/>
<path d="M323.1,299.1c0,0,5.7,-8.6,5.7,-11.7c0,-3.1,-2.5,-5.6,-5.7,-5.6c-3.1,0,-5.7,2.5,-5.7,5.6c0,3.1,5.7,11.7,5.7,11.7Z" class="g9_45"/>
<path d="M322.4,271.2H311.9c-.5,0,-.9,.2,-1.3,.4c-1.2,-.7,-2.6,-1,-4,-1c-4.6,0,-8.4,3.7,-8.4,8.2v13.3c0,.2,.1,.3,.2,.3c-1,.7,-1.6,1.8,-1.6,3v4.3c0,.1,.2,.3,.3,.3c.2,0,.4,-.2,.4,-.3v-4.3c0,-1.6,1.3,-2.9,3,-2.9H302c.5,0,.9,-.2,1.3,-.5c.9,.7,2.1,1.1,3.3,1.2v6.5c0,.1,.1,.3,.3,.3c.2,0,.4,-.2,.4,-.3v-6.6c1.1,-.1,2.1,-.6,2.9,-1.3c.2,.4,.6,.7,1.1,.7h2c1.7,0,3.1,1.3,3.1,2.9v4.3c0,.1,.1,.3,.3,.3c.2,0,.4,-.2,.4,-.3v-4.3c0,-1.4,-.9,-2.6,-2.1,-3.2c0,0,0,-.1,0,-.1v-12h7.4c1.1,0,2,-.8,2,-1.9v-5.1c0,-1.1,-.9,-1.9,-2,-1.9m-15.5,18.3c-2.9,0,-5.2,-2.3,-5.2,-5.2v-2.8h3.1c.2,0,.4,-.1,.4,-.3v-1.7H310v3.3c0,.1,0,.2,.1,.3q.1,0,.2,0c.1,0,.2,0,.2,0l1.7,-1.3v2.5c0,2.9,-2.4,5.2,-5.3,5.2m-4.9,2.3h-1.5c-.6,0,-1.1,.1,-1.6,.4V278.8c0,-4.1,3.4,-7.5,7.7,-7.5c1.2,0,2.5,.3,3.6,.9c-.2,.2,-.2,.6,-.2,.9v5.7h-5.2c-.2,0,-.3,.2,-.3,.3v1.8h-3.2c-.2,0,-.3,.1,-.3,.3v3.1c0,1.8,.8,3.4,2.1,4.5v1.9c0,.2,-.1,.4,-.1,.5q-.1,.1,-.1,.2c-.2,.2,-.5,.4,-.9,.4m4.6,.7c-1.1,0,-2.1,-.4,-2.9,-1.1c0,-.2,.1,-.4,.1,-.7v-1.4c.9,.5,2,.9,3.1,.9c1.2,0,2.3,-.4,3.2,-.9V291q-.1,0,-.1,0c-.9,.9,-2.1,1.5,-3.4,1.5m6.7,-.7h-2c-.3,0,-.5,-.2,-.5,-.5v-2.5c1.2,-1.1,2.1,-2.7,2.1,-4.5v-3.1l1.4,-1v11.7c-.3,-.1,-.6,-.1,-1,-.1m10.4,-13.6c0,.7,-.6,1.2,-1.3,1.2h-8.2c-.1,0,-.1,.1,-.2,.1l-3.4,2.6v-9c0,-.7,.6,-1.2,1.3,-1.2h10.5c.7,0,1.3,.5,1.3,1.2Z" class="g4_45"/>
<path d="M320.9,274.3h-7.5c-.2,0,-.4,.2,-.4,.4c0,.1,.2,.3,.4,.3h7.5c.2,0,.4,-.2,.4,-.3c0,-.2,-.2,-.4,-.4,-.4Z" class="g4_45"/>
<path d="M318.8,277.1h-5.4c-.2,0,-.4,.1,-.4,.3c0,.2,.2,.3,.4,.3h5.4c.1,0,.3,-.1,.3,-.3c0,-.2,-.2,-.3,-.3,-.3Z" class="g4_45"/>
<path d="M309.4,285.9c-.6,.7,-1.5,1,-2.4,1c-1,0,-1.9,-.4,-2.5,-1.1c-.2,-.1,-.4,-.2,-.5,0c-.2,.1,-.2,.3,-.1,.5c.8,.8,1.9,1.3,3.1,1.3c1.1,0,2.1,-.4,2.9,-1.2c.1,-.2,.1,-.4,0,-.5c-.2,-.1,-.4,-.1,-.5,0Z" class="g4_45"/>
<path d="M170.6,344.3c-5.6,0,-10.2,-4.6,-10.2,-10.3c0,-5.7,4.6,-10.3,10.2,-10.3c5.7,0,10.3,4.6,10.3,10.3c0,5.7,-4.6,10.3,-10.3,10.3m0,-19.8c-5.2,0,-9.4,4.3,-9.4,9.5c0,5.3,4.2,9.6,9.4,9.6c5.3,0,9.5,-4.3,9.5,-9.6c0,-5.2,-4.2,-9.5,-9.5,-9.5Z" class="g4_45"/>
<path d="M188.6,345c-.2,0,-.4,-.2,-.4,-.4V332.7h-3.9c-.2,0,-.3,-.2,-.3,-.4c0,-9.6,4.2,-12.4,4.4,-12.5q.1,-.1,.2,-.1q.1,0,.2,0c.1,.1,.2,.2,.2,.4v24.5c0,.2,-.2,.4,-.4,.4m-.8,-23.6c-.4,.4,-.7,.9,-1.1,1.5c-.8,1.6,-1.9,4.4,-2,8.8v.2h3.5v-11Z" class="g4_45"/>
<path d="M155.3,345c-.2,0,-.4,-.2,-.4,-.4V329h-1.7c-.7,0,-1.2,-.5,-1.2,-1.2v-7.7c0,-.2,.1,-.4,.4,-.4c.2,0,.3,.2,.3,.4v7.7c0,.3,.2,.5,.5,.5h1.7v-8.2c0,-.2,.2,-.4,.4,-.4c.2,0,.4,.2,.4,.4v8.2h1.7c.3,0,.5,-.2,.5,-.5v-7.7c0,-.2,.1,-.4,.4,-.4c.2,0,.3,.2,.3,.4v7.7c0,.7,-.5,1.2,-1.2,1.2h-1.7v15.6c0,.2,-.2,.4,-.4,.4Z" class="g4_45"/>
<path d="M175.7,298.2c-.1,0,-.2,-.1,-.3,-.2l-1.3,-1.6l-.1,.1q-.1,0,-.1,0h-9.8c0,0,-.1,0,-.1,0l-.1,-.1l-1.3,1.6c-.1,.1,-.2,.2,-.3,.2c-.1,0,-.2,-.1,-.2,-.1c-.1,-.1,-.2,-.1,-.2,-.2c0,-.1,0,-.2,.1,-.3l3.2,-4h-2.5c-2,0,-3.6,-1.5,-3.6,-3.5V276.9c0,-2.6,3.2,-3.8,9.9,-3.8c6.6,0,9.9,1.2,9.9,3.8v13.2c0,2,-1.7,3.5,-3.6,3.5h-2.5l3.2,4c0,.1,.1,.2,0,.3q0,.1,-.1,.2c-.1,0,-.1,.1,-.2,.1m-11.3,-2.4h9.2l-1.7,-2.2h-5.8Zm-4.6,-5.7c0,1.6,1.3,2.8,2.9,2.8h12.6c1.5,0,2.8,-1.2,2.8,-2.8v-4.2H159.8Zm9.5,-4.9h8.8v-7.3h-8.8v7.3Zm-9.5,0h8.8v-7.3h-8.8v7.3ZM169,273.8c-6.1,0,-9.2,1,-9.2,3.1v.3h18.3v-.3c0,-2.1,-3.1,-3.1,-9.1,-3.1Z" class="g4_45"/>
<path d="M163.5,291c-1.1,0,-1.9,-.8,-1.9,-1.8c0,-1,.8,-1.8,1.9,-1.8c1,0,1.8,.8,1.8,1.8c0,1,-.8,1.8,-1.8,1.8m0,-2.9c-.7,0,-1.2,.5,-1.2,1.1c0,.6,.5,1.1,1.2,1.1c.6,0,1.1,-.5,1.1,-1.1c0,-.6,-.5,-1.1,-1.1,-1.1Z" class="g4_45"/>
<path d="M174.5,291c-1,0,-1.9,-.8,-1.9,-1.8c0,-1,.9,-1.8,1.9,-1.8c1,0,1.9,.8,1.9,1.8c0,1,-.9,1.8,-1.9,1.8m0,-2.9c-.6,0,-1.1,.5,-1.1,1.1c0,.6,.5,1.1,1.1,1.1c.6,0,1.2,-.5,1.2,-1.1c0,-.6,-.6,-1.1,-1.2,-1.1Z" class="g4_45"/>
<path d="M83.3,294.6c-1.4,0,-2.7,-.8,-3.3,-2.1l-.1,-.1H66.3l-.1,.1c-.6,1.3,-1.9,2.1,-3.4,2.1c-1.4,0,-2.7,-.8,-3.4,-2.1v-.1H53.8c-.8,0,-1.4,-.7,-1.4,-1.4V278.5c.1,-2,1.7,-3.7,3.8,-3.7H88.7c2,0,3.4,1.6,3.4,3.8V291c0,.7,-.7,1.4,-1.5,1.4H86.8l-.1,.1c-.6,1.3,-1.9,2.1,-3.4,2.1m0,-6.6c-1.6,0,-2.9,1.3,-2.9,2.9c0,1.6,1.3,3,2.9,3c1.7,0,3,-1.4,3,-3c0,-1.6,-1.3,-2.9,-3,-2.9m-20.5,0c-1.6,0,-2.9,1.3,-2.9,2.9c0,1.6,1.3,3,2.9,3c1.7,0,3,-1.4,3,-3c0,-1.6,-1.3,-2.9,-3,-2.9m20.5,-.8c2.1,0,3.8,1.7,3.8,3.7c0,.1,0,.3,0,.4l-.1,.3h3.6c.4,0,.7,-.3,.7,-.6v-4.2h-.2c-3.3,-.9,-5.6,-1.8,-6.3,-2.5l-.1,-.1v-5.3H80.1v4.4H82v.8H55.7v-.8h1.9v-4.4H53.2V291c0,.3,.3,.6,.6,.6h5.3v-.3c0,-.1,0,-.3,0,-.4c0,-2,1.7,-3.7,3.7,-3.7c2.1,0,3.8,1.7,3.8,3.7c0,.1,0,.3,-.1,.4v.3H79.6v-.3c0,-.1,0,-.3,0,-.4c0,-2,1.7,-3.7,3.7,-3.7m2.2,-3.3h.1c.9,.6,3.4,1.5,5.3,2l.4,.1v-7.1H85.5Zm-10.8,-.6h4.6v-4.4H74.7v4.4Zm-5.4,0h4.6v-4.4H69.3v4.4Zm-5.5,0h4.7v-4.4H63.8v4.4Zm-5.4,0H63v-4.4H58.4v4.4Zm-2.2,-7.7c-1.3,0,-2.5,.9,-2.9,2.2l-.1,.3h38v-.3c-.3,-1.4,-1.2,-2.2,-2.5,-2.2Z" class="g4_45"/>
<path d="M92.5,328.6c.2,0,.4,-.2,.4,-.4v-2c0,-.2,-.2,-.3,-.4,-.3h-9c-.4,-.3,-.7,-.7,-.7,-1.3c0,-.8,.7,-1.5,1.5,-1.5c.2,0,.3,-.1,.3,-.3v-2c0,-.2,-.1,-.4,-.3,-.4c-.8,0,-1.5,-.7,-1.5,-1.5c0,-.8,.7,-1.5,1.5,-1.5c.2,0,.3,-.2,.3,-.4v-2c0,-.1,-.1,-.3,-.3,-.3H50.9c-.2,0,-.3,.2,-.3,.3v2c0,.2,.1,.4,.3,.4c.8,0,1.5,.7,1.5,1.5c0,.8,-.7,1.5,-1.5,1.5c-.2,0,-.3,.2,-.3,.4v2c0,.2,.1,.3,.3,.3c.8,0,1.5,.7,1.5,1.5c0,.9,-.7,1.6,-1.5,1.6c-.2,0,-.3,.1,-.3,.3v2c0,.2,.1,.3,.3,.3c.8,0,1.5,.7,1.5,1.6c0,.8,-.7,1.5,-1.5,1.5c-.2,0,-.3,.2,-.3,.3v2c0,.2,.1,.4,.3,.4H84.3c.2,0,.3,-.2,.3,-.4v-2c0,-.1,-.1,-.3,-.3,-.3c-.8,0,-1.5,-.7,-1.5,-1.5c0,-.9,.7,-1.6,1.5,-1.6c.2,0,.3,-.1,.3,-.3v-2h2v18.6H63.8V334.6h-.6v10.5H59.4v-1.4h.2c.9,-.2,1.6,-1.1,1.6,-2.1c0,-1,-.7,-1.9,-1.6,-2.2h-.2V338l.2,-.1c.9,-.2,1.6,-1.1,1.6,-2.1c0,-.4,-.1,-.8,-.3,-1.2H60l.1,.1c.3,.3,.5,.7,.5,1.1c0,.9,-.7,1.6,-1.5,1.6c-.1,0,-.3,.1,-.3,.3v2c0,.2,.2,.3,.3,.3c.8,0,1.5,.7,1.5,1.6c0,.8,-.7,1.5,-1.5,1.5c-.1,0,-.3,.1,-.3,.3v2c0,.2,.2,.3,.3,.3H92.5c.2,0,.4,-.1,.4,-.3v-2c0,-.1,-.1,-.2,-.1,-.2c-.1,-.1,-.2,-.1,-.3,-.1c-.8,0,-1.4,-.7,-1.4,-1.5c0,-.5,.2,-.9,.5,-1.2c.3,-.2,.6,-.4,.9,-.4c.2,0,.4,-.1,.4,-.3v-2c0,-.2,-.2,-.3,-.4,-.3c-.8,0,-1.4,-.7,-1.4,-1.6c0,-.4,.1,-.8,.5,-1.1c.2,-.3,.6,-.4,.9,-.4c.2,0,.4,-.2,.4,-.3v-2.1c0,-.1,-.2,-.3,-.4,-.3c-.8,0,-1.4,-.7,-1.4,-1.5c0,-.9,.6,-1.5,1.4,-1.5m-2.1,1.5c0,1,.7,1.9,1.7,2.1h.1v1.5h-.1c-.5,.1,-1,.5,-1.3,.9v.1c-.1,.1,-.2,.3,-.3,.5c0,.2,-.1,.4,-.1,.6c0,.4,.2,.8,.3,1.1c.3,.4,.6,.7,1.1,.9c.1,.1,.2,.1,.3,.1l.1,.1v1.4h-.1c-1,.3,-1.7,1.2,-1.7,2.2c0,1,.7,1.9,1.7,2.1h.1v1.4H87.3V326.5h4.9v1.4l-.1,.1c-1,.2,-1.7,1.1,-1.7,2.1m-12,3.8H55.5V315.4H78.4v18.5Zm4.9,-7.4c.2,.1,.4,.2,.5,.3H84v1.4l-.2,.1c-.9,.2,-1.6,1.1,-1.6,2.1c0,1,.7,1.9,1.6,2.1H84v1.4H79V315.4h5v1.3l-.2,.1c-.9,.2,-1.6,1.1,-1.6,2.1c0,1,.7,1.9,1.6,2.1l.2,.1v1.4h-.2c-.9,.2,-1.6,1.1,-1.6,2.1c0,.9,.4,1.6,1.1,1.9ZM53,330.4c0,-1,-.7,-1.9,-1.7,-2.1l-.1,-.1v-1.4h.1c1,-.3,1.7,-1.2,1.7,-2.2c0,-1,-.7,-1.9,-1.7,-2.1h-.1v-1.4l.1,-.1c1,-.2,1.7,-1.1,1.7,-2.1c0,-1,-.7,-1.9,-1.7,-2.1l-.1,-.1v-1.3h3.7v18.5H51.2v-1.4h.1c1,-.2,1.7,-1.1,1.7,-2.1Z" class="g4_45"/>
<g clip-path="url(#c3_45)">
<path d="M60.5,324.9H75.1v-1.4H60.5v1.4Zm1.1,7h1.6v-6.5H61.6v6.5Zm2.1,0h2.8v-6.5H63.7v6.5Zm3.2,0h1.6v-6.5H66.9v6.5Zm2.1,0h2.8v-6.5H69v6.5Zm3.3,0h1.5v-6.5H72.3v6.5ZM60,332.3c-.1,0,-.2,-.1,-.2,-.2c0,-.1,.1,-.2,.2,-.2h1.1v-6.5h-.9c-.1,0,-.2,-.1,-.2,-.2v-1.7H58.7c-.1,0,-.2,-.1,-.2,-.2c0,-.1,0,-.2,.1,-.2l9,-5.4q.1,0,.2,0c0,0,.1,0,.1,0l3.4,2.1c.2,0,.2,.2,.1,.3c0,.1,-.1,.1,-.2,.1c0,0,-.1,0,-.1,0l-3.3,-2L59.6,323H75.9l-3.5,-2c-.1,-.1,-.2,-.3,-.1,-.4c0,-.1,.1,-.1,.2,-.1c0,0,.1,0,.1,0l4.3,2.6c.1,0,.2,.1,.1,.2c0,.1,-.1,.2,-.2,.2H75.5v1.7c0,.1,-.1,.2,-.2,.2h-1v6.5h1.1c.1,0,.2,.1,.2,.2c0,.1,-.1,.2,-.2,.2Z" class="g4_45"/>
<path d="M75.4,332.3H60c-.1,0,-.2,-.1,-.2,-.2c0,-.1,.1,-.3,.2,-.3h1.1v-6.4h-.9c-.1,0,-.3,-.1,-.3,-.2v-1.6H58.7c-.1,0,-.2,-.1,-.2,-.3c-.1,-.1,0,-.2,.1,-.3l9,-5.3c.1,0,.2,0,.3,0l3.5,2c.1,.1,.1,.3,.1,.4c-.1,.2,-.3,.2,-.4,.1l-3.3,-1.9l-8,4.7H75.7l-3.3,-2c-.2,-.1,-.2,-.3,-.1,-.4c0,-.1,.2,-.2,.4,-.1l4.2,2.5c.1,.1,.2,.2,.2,.3c-.1,.2,-.2,.3,-.3,.3H75.6v1.6c0,.1,-.1,.2,-.3,.2h-.9v6.4h1c.1,0,.2,.2,.2,.3c0,.1,-.1,.2,-.2,.2M60,331.9c-.1,0,-.1,.1,-.1,.2q0,.1,.1,.1H75.4c0,0,.1,0,.1,-.1c0,-.1,-.1,-.2,-.1,-.2H74.3v-6.5h1c.1,0,.2,-.1,.2,-.2v-1.7h1.3c.1,0,.2,-.1,.2,-.2c0,-.1,0,-.2,-.1,-.2l-4.3,-2.5c-.1,-.1,-.2,0,-.3,0c0,.1,0,.3,.1,.3l3.7,2.2H59.5l.1,-.1l8.2,-4.8l3.3,2c.1,0,.2,0,.3,-.1c0,-.1,0,-.2,-.1,-.3l-3.4,-2c-.1,-.1,-.2,0,-.2,0l-9.1,5.3c0,0,-.1,.1,0,.2c0,.1,.1,.2,.1,.2H60v1.7c0,.1,.1,.2,.2,.2h1v6.5Zm13.9,0H72.2v-6.5h1.7v6.5Zm-1.6,-.1h1.5v-6.4H72.3v6.4Zm-.5,.1H69v-6.5h2.8v6.5Zm-2.7,-.1h2.6v-6.4H69.1v6.4Zm-.5,.1H66.9v-6.5h1.7v6.5ZM67,331.8h1.5v-6.4H67v6.4Zm-.5,.1H63.7v-6.5h2.8v6.5Zm-2.7,-.1h2.6v-6.4H63.8v6.4Zm-.5,.1H61.6v-6.5h1.7v6.5Zm-1.6,-.1h1.5v-6.4H61.7v6.4ZM75.1,325H60.4v-1.5H75.1V325Zm-14.6,-.1H75v-1.3H60.5v1.3Z" class="g4_45"/>
</g>
<path d="M134.7,293.5c-1,0,-1.5,-.4,-1.9,-.7c-.5,-.3,-.8,-.6,-1.6,-.6c-.8,0,-1.1,.3,-1.6,.6c-.4,.3,-.9,.7,-1.9,.7c-1,0,-1.5,-.4,-1.9,-.7c-.4,-.3,-.8,-.6,-1.6,-.6c-.8,0,-1.1,.3,-1.5,.6c-.5,.3,-1,.7,-2,.7c-1,0,-1.5,-.4,-1.9,-.7c-.4,-.3,-.8,-.6,-1.6,-.6c-.7,0,-1.1,.3,-1.5,.6c-.5,.3,-1,.7,-2,.7c-.9,0,-1.5,-.4,-1.9,-.7c-.4,-.3,-.7,-.5,-1.4,-.6v-.6c.9,0,1.3,.4,1.8,.7c.4,.3,.8,.6,1.5,.6c.8,0,1.2,-.3,1.6,-.6c.2,-.1,.4,-.3,.6,-.4l.1,-.1l-1.5,-7.3c-.1,-.2,0,-.3,.1,-.4l2.8,-1.2l.8,-6.7h2.3l.3,-2.6h1.6v-2.4H126v2.4h1.6l.3,2.6h2.3l.8,6.7l2.7,1.2c.2,.1,.2,.2,.2,.4l-1.5,7.3l.1,.1c.2,.1,.4,.2,.6,.4c.5,.3,.8,.6,1.6,.6c.8,0,1.1,-.3,1.6,-.6c.4,-.3,.8,-.7,1.7,-.7v.6c-.6,.1,-1,.3,-1.4,.6c-.4,.3,-.9,.7,-1.9,.7m-10.5,-1.9c1,0,1.5,.4,1.9,.7c.5,.3,.8,.6,1.6,.6c.8,0,1.1,-.3,1.6,-.6c.4,-.3,.9,-.7,1.9,-.7c.1,0,.3,0,.4,0h.2l1.4,-7l-8.7,-3.9V289h-.6v-8.3l-8.8,3.9l1.5,7h.2c.2,0,.3,0,.4,0c1,0,1.5,.4,2,.7c.4,.3,.7,.6,1.5,.6c.8,0,1.2,-.3,1.6,-.6c.4,-.3,.9,-.7,1.9,-.7m-6.2,-9l6,-2.6l.1,-.1q.1,0,.1,0q.1,0,.1,.1l6,2.6l-.7,-5.8H118.8Zm3.1,-6.4h6.2l-.3,-1.9h-1.6v-2.5H123v2.5h-1.7Z" class="g4_45"/>
<path d="M127.7,296.3c-1,0,-1.5,-.4,-1.9,-.7c-.4,-.3,-.8,-.6,-1.6,-.6c-.8,0,-1.1,.3,-1.5,.6c-.5,.3,-1,.7,-2,.7c-1,0,-1.5,-.4,-1.9,-.7c-.4,-.3,-.8,-.6,-1.6,-.6c-.7,0,-1.1,.3,-1.5,.6c-.5,.3,-.9,.7,-1.8,.7v-.6c.7,-.1,1,-.3,1.4,-.6c.4,-.3,.9,-.7,1.9,-.7c1,0,1.5,.4,2,.7c.4,.3,.7,.6,1.5,.6c.8,0,1.2,-.3,1.6,-.6c.4,-.3,.9,-.7,1.9,-.7c1,0,1.5,.4,1.9,.7c.5,.3,.8,.6,1.6,.6c.8,0,1.1,-.3,1.6,-.6c.4,-.3,.9,-.7,1.9,-.7c1,0,1.5,.4,1.9,.7c.4,.3,.8,.5,1.4,.6v.6c-.8,0,-1.3,-.4,-1.7,-.7c-.5,-.3,-.8,-.6,-1.6,-.6c-.8,0,-1.1,.3,-1.6,.6c-.4,.3,-.9,.7,-1.9,.7Z" class="g4_45"/>
<g clip-path="url(#c1_45)" opacity="0.3">
<path d="M114.2,331.1c.1,-.7,.2,-1.3,.3,-1.9c0,-.3,.5,-.3,.5,0c-.1,.7,-.2,1.3,-.3,2c0,.3,-.5,.2,-.5,-.1m.7,-2.5c.3,0,.3,-.5,0,-.5c-.3,0,-.3,.5,0,.5m7.6,16.7c-.2,.6,-1.5,.8,-2,.9c-1.3,.2,-2.5,.3,-3.7,.2c-.8,0,-3.9,0,-4.1,-1.2c-.2,-1.4,3.4,-1.4,4.2,-1.4c0,-1.5,0,-3,0,-4.4v-.1c-1.8,-.3,-3.4,-1.6,-3.9,-3.5c-.7,-2.7,.4,-5.8,.9,-8.5c.1,0,.1,-.1,.2,-.1q.1,0,.1,0c2.3,.1,4.6,.1,6.9,-.1c.1,0,.2,.1,.2,.2c1.4,3.8,2.7,11.5,-3,12.1c.1,1.4,0,2.9,0,4.4c.9,0,4.6,0,4.2,1.5m-9.1,-12.1c1.1,-.4,2.3,-.5,3.5,-.3c1.8,.4,3.2,.6,5,-.3c0,0,.1,0,.1,0c-.1,-1.8,-.6,-3.6,-1.1,-5c-2.2,.2,-4.3,.1,-6.5,.1c-.4,1.8,-.9,3.6,-1,5.5m4.6,5.7c3.3,-.1,4.1,-2.8,4,-5.8c-1.1,.5,-2.3,.9,-3.6,.7c-.8,-.2,-1.6,-.4,-2.4,-.5c-.9,-.1,-1.8,.1,-2.7,.4c0,.2,0,.5,0,.8c.1,2.5,2,4.5,4.7,4.4m3.7,5.9c-.1,-.2,-.7,-.3,-.9,-.3c-.8,-.2,-1.7,-.2,-2.5,-.3c0,.2,0,.4,0,.6c0,.3,-.5,.3,-.5,0c.1,-1.8,.1,-3.6,0,-5.4c-.1,0,-.3,0,-.4,0c0,1.8,0,3.6,0,5.4c0,.3,-.5,.3,-.5,0c0,-.2,0,-.3,0,-.5c-.8,0,-1.6,0,-2.4,.2c-.5,.1,-1.6,.5,-.8,1c.8,.4,2.2,.4,3.1,.4c1.3,.1,2.9,.1,4.2,-.3c.3,-.1,1.1,-.2,.7,-.8m12,-.2c-.3,2.2,-3.5,1.6,-5.1,1.6c-1.8,.1,-4,.3,-4.1,-2.2c-.1,-3.1,-.1,-6.3,0,-9.5c0,-.9,.2,-1.8,.6,-2.6c.4,-.7,.9,-.8,1,-1.5c.4,-2.1,.8,-4.2,1,-6.2v-.1q-.1,0,-.2,-.1c0,-.1,-.1,-.2,-.2,-.3c-.1,-.2,0,-.5,.1,-.7h-.1c-.2,0,-.3,0,-.3,-.1c-.1,-.1,-.1,-.2,-.1,-.3c.1,-.4,.3,-1,.7,-1.2c.6,-.3,1.7,-.2,2.3,-.2c.5,0,1.5,-.1,2,.3c.4,.2,.5,.8,.6,1.2c0,.1,-.1,.4,-.3,.3c-.1,0,-.2,0,-.2,0c.1,.2,.2,.5,.1,.7c-.1,.2,-.3,.3,-.4,.4c.1,1.1,.3,2.3,.5,3.4c.1,.9,.1,2.4,.5,3.3c.3,.5,1.1,.9,1.4,1.7c.3,.7,.3,1.5,.3,2.3c.1,1.6,0,3.2,0,4.9c0,1.5,.2,3.3,-.1,4.9m-2.4,-15.4c-.2,-.9,-.4,-1.9,-.5,-2.8c-1.1,.1,-2.3,.2,-3.4,.1c-.2,1.1,-.4,2.3,-.6,3.5c1.5,.1,3,.1,4.6,-.1c-.1,-.2,-.1,-.5,-.1,-.7M127.5,323c-.1,.1,-.1,.3,-.2,.4c0,0,0,.1,0,.1c0,0,.1,.1,.1,.1c1.1,.2,2.3,.2,3.4,0c0,0,.1,-.1,.1,-.1v-.1c-.1,0,-.1,-.1,-.2,-.2c0,0,-.1,0,-.2,0c-.1,0,-.3,-.1,-.4,-.2c0,0,-.1,0,-.2,0c-.1,0,-.4,.1,-.5,.2c-.3,0,-.5,-.1,-.7,-.2c-.1,0,-.3,.1,-.6,.1c-.2,0,-.4,-.1,-.6,-.1m0,2.9c1.1,.1,2.1,0,3.2,-.1c-.1,-.5,-.1,-1,-.2,-1.6c-.9,.2,-1.9,.2,-2.8,.1c-.1,.5,-.1,1,-.2,1.6m-.4,-3.6c.1,0,.3,0,.3,0c.2,0,.5,.2,.6,.2c.1,0,.5,-.1,.7,-.1c.1,0,.5,.2,.6,.2c.1,0,.4,-.3,.7,-.2c.2,0,.4,.1,.6,.2v-.1c.1,0,.2,-.1,.3,-.1c.1,0,.2,0,.3,0c-.1,-.2,-.2,-.4,-.5,-.5c-.4,-.1,-1,-.1,-1.4,-.1c-.8,0,-1.7,-.1,-2.2,.5m6,11c-.1,-.4,-.2,-.8,-.5,-1.1c-.2,-.4,-.6,-.5,-.9,-.9c-.1,0,-.1,-.1,-.1,-.2c-.1,-.2,-.1,-.4,-.2,-.6c-1.5,.2,-3.1,.2,-4.7,.1c0,.2,-.1,.5,-.2,.7c-.5,.7,-1.1,1.1,-1.3,2.1c-.1,.4,-.1,.9,-.1,1.4c-.1,2.9,0,5.8,0,8.7c0,1,0,1.7,1.3,2.1c1.2,.3,2.9,0,4.2,0c1.2,0,2.4,-.1,2.6,-1.5c0,-.7,0,-1.4,0,-2.1c0,-1.9,0,-3.7,0,-5.5c0,-1.1,.1,-2.2,-.1,-3.2m-3.7,10c-4.5,.6,-4.6,-8.3,-.4,-8.8c0,0,0,-.1,0,-.1c4.5,0,4.7,8.3,.4,8.9m-.3,-8.3c-3.4,.6,-3.6,8,.2,7.7c3.5,-.4,3.4,-7.7,-.2,-7.7m-2.7,-.3c.1,-.6,.4,-1.2,.9,-1.7c.2,-.3,-.2,-.7,-.5,-.4c-.5,.5,-.9,1.2,-1,2c-.1,.4,.5,.5,.6,.1m1.1,-2.3c.4,0,.4,-.6,0,-.6c-.3,0,-.4,.6,0,.6Z" class="g4_45"/>
</g>
<path d="M951.6,1242.9H1459V835.8H951.6v407.1Z" class="g3_45"/>
<image clip-path="url(#c4_45)" preserveAspectRatio="none" x="952" y="836" width="507" height="407" xlink:href="img/4.jpg"/>
<path d="M60.6,1242.9H866.1V782.4H60.6v460.5Z" class="g3_45"/>
<image clip-path="url(#c5_45)" preserveAspectRatio="none" x="61" y="782" width="805" height="461" xlink:href="img/5.jpg"/>
</svg>