<?xml version="1.0" encoding="UTF-8" standalone="no"?>
<!DOCTYPE svg PUBLIC "-//W3C//DTD SVG 1.1//EN"
"http://www.w3.org/Graphics/SVG/1.1/DTD/svg11.dtd">
<svg viewBox="0 0 909 1286" version="1.1" xmlns="http://www.w3.org/2000/svg" xmlns:xlink="http://www.w3.org/1999/xlink">
<defs>
<clipPath id="c0_1"><path d="M0,1048V0H909.4V1048Z"/></clipPath>
<clipPath id="c1_1"><path d="M0,1286.2V0H909.4V1286.2Z"/></clipPath>
<style type="text/css"><![CDATA[
.g0_1{
fill: #252123;
}
.g1_1{
fill: #009BCE;
}
.g2_1{
fill: #000;
}
.g3_1{
fill: none;
stroke: #FFF;
stroke-width: 1.527;
}
.g4_1{
fill: #FFF;
}
.g5_1{
fill: #0080B5;
}
.g6_1{
fill: #95C11E;
}
.g7_1{
fill: #B0B0B0;
}
.g8_1{
fill: none;
stroke: #FFF;
stroke-width: 0.65;
}
.g9_1{
fill: none;
stroke: #000;
stroke-width: 0.65;
}
.ga_1{
fill: none;
stroke: #FFF;
stroke-width: 1.3;
stroke-linecap: round;
stroke-linejoin: round;
}
.gb_1{
fill: none;
stroke: #0080B5;
stroke-width: 1.527;
}
]]></style>
</defs>
<path d="M0,1286.2H909.4V0H0V1286.2Z" class="g0_1"/>
<path d="M0,1048H909.4V0H0V1048Z" class="g0_1"/>
<image clip-path="url(#c0_1)" preserveAspectRatio="none" x="0" y="0" width="909" height="1048" xlink:href="img/1.jpg"/>
<g clip-path="url(#c1_1)" opacity="0.6" style="mix-blend-mode: multiply;">
<path d="M87.7,1004.9c24.1,0,43.7,-19.6,43.7,-43.8c0,-24.1,-19.6,-43.7,-43.7,-43.7C63.5,917.4,44,937,44,961.1c0,24.2,19.5,43.8,43.7,43.8Z" class="g1_1"/>
</g>
<g clip-path="url(#c1_1)" opacity="0.56" style="mix-blend-mode: multiply;">
<path d="M446.1,515.8c112.9,0,204.5,-91.6,204.5,-204.6C650.6,198.3,559,106.7,446.1,106.7c-113,0,-204.6,91.6,-204.6,204.5c0,113,91.6,204.6,204.6,204.6Z" class="g2_1"/>
</g>
<g clip-path="url(#c1_1)" opacity="0.73" style="mix-blend-mode: multiply;">
<path d="M446.1,503.7c106.3,0,192.4,-86.2,192.4,-192.5C638.5,205,552.4,118.8,446.1,118.8C339.8,118.8,253.6,205,253.6,311.2c0,106.3,86.2,192.5,192.5,192.5Z" class="g2_1"/>
</g>
<path d="M446.1,491.8c99.7,0,180.5,-80.8,180.5,-180.6c0,-99.7,-80.8,-180.5,-180.5,-180.5c-99.8,0,-180.6,80.8,-180.6,180.5c0,99.8,80.8,180.6,180.6,180.6Z" class="g3_1"/>
<path d="M446.1,139c3.9,0,7,-3.1,7,-7c0,-4,-3.1,-7.1,-7,-7.1c-3.9,0,-7.1,3.1,-7.1,7.1c0,3.9,3.2,7,7.1,7Z" class="g4_1"/>
<path d="M786.3,1215c-.3,.3,-.7,.5,-1.1,.5h-4.6c-.4,0,-.8,-.2,-1.1,-.5c-.3,-.3,-.5,-.7,-.5,-1.2v-28.4c0,-.4,.2,-.8,.5,-1.1c.3,-.4,.7,-.5,1.1,-.5h4.6c.4,0,.8,.1,1.1,.5c.4,.3,.5,.7,.5,1.1v28.4c0,.5,-.1,.9,-.5,1.2M785,1173c.2,-.2,.5,-.2,.9,-.2h4.9c.3,0,.5,.1,.7,.3c.1,.2,.2,.4,.2,.7c0,.3,-.1,.5,-.2,.6l-6.3,5.2c-.3,.3,-.7,.6,-1,.7c-.3,.1,-.6,.2,-1.1,.2h-2.8c-.5,0,-.8,-.3,-.8,-.8c0,-.2,.1,-.4,.2,-.7l4.4,-5.2c.3,-.5,.6,-.7,.9,-.8Z" class="g5_1"/>
<path d="M814.4,1186.4c2.4,2.2,3.6,5.4,3.6,9.5v17.9c0,.5,-.1,.9,-.4,1.2c-.4,.3,-.7,.5,-1.2,.5h-4.6c-.4,0,-.8,-.2,-1.1,-.5c-.3,-.3,-.5,-.7,-.5,-1.2v-2c-.9,1.3,-2.2,2.4,-3.8,3.1c-1.6,.8,-3.6,1.2,-5.9,1.2c-3.3,0,-6,-.9,-8,-2.7c-1.9,-1.7,-2.9,-4,-2.9,-6.8c0,-2.7,.9,-4.9,2.8,-6.5c1.9,-1.6,4.6,-2.7,8,-3.3l9.8,-1.8c0,-1.5,-.5,-2.6,-1.5,-3.4c-1,-.8,-2.4,-1.1,-4.1,-1.1c-1,0,-1.7,.1,-2.3,.4c-.6,.2,-1.1,.6,-1.7,1.2c-.6,.5,-1.3,.8,-2,.8H793c-.4,0,-.7,-.1,-1,-.4c-.2,-.2,-.3,-.6,-.3,-.9c.2,-1.3,.9,-2.6,1.9,-3.9c1,-1.3,2.5,-2.4,4.3,-3.2c1.9,-.9,4.1,-1.3,6.7,-1.3c4.1,0,7.4,1,9.8,3.2m-4.2,14.9l-8.2,1.5c-1.6,.3,-2.7,.7,-3.5,1.2c-.7,.6,-1.1,1.3,-1.1,2.3c0,.8,.4,1.4,1.2,1.8c.9,.5,1.9,.7,3.1,.7c1.8,0,3.3,-.3,4.6,-1c1.3,-.7,2.3,-1.5,2.9,-2.5c.7,-1.1,1,-2.2,1,-3.4Z" class="g5_1"/>
<path d="M823.6,1199.3c-1.3,-1.6,-2,-3.7,-2,-6.3c0,-1.7,.5,-3.3,1.5,-4.8c1,-1.5,2.4,-2.7,4.3,-3.6c1.9,-1,4.1,-1.4,6.6,-1.4c2.5,0,4.7,.3,6.6,1.1c1.9,.7,3.4,1.7,4.4,2.9c1.1,1.2,1.7,2.5,1.7,3.8c.1,.5,-.1,.9,-.4,1.2c-.4,.3,-.7,.5,-1.2,.5h-4.6c-.5,0,-.9,-.1,-1.2,-.2c-.2,-.2,-.5,-.4,-.9,-.7c-.4,-.4,-1,-.7,-1.6,-1c-.6,-.2,-1.6,-.3,-2.8,-.3c-1.3,0,-2.4,.2,-3.3,.6c-.9,.4,-1.3,1,-1.3,1.9c0,.6,.2,1.1,.6,1.4c.5,.4,1.2,.7,2.2,.9c1.1,.3,3,.7,5.7,1.3c3.4,.8,5.9,1.9,7.5,3.6c1.5,1.6,2.2,3.7,2.2,6.2c0,1.7,-.5,3.2,-1.6,4.7c-1.1,1.5,-2.6,2.7,-4.6,3.6c-2.1,.9,-4.4,1.4,-7.1,1.4c-2.7,0,-5,-.4,-7,-1.3c-2,-.8,-3.5,-1.9,-4.6,-3.2c-1.1,-1.3,-1.6,-2.6,-1.7,-4c-.1,-.4,.1,-.8,.4,-1.1c.4,-.4,.8,-.5,1.2,-.5h4.6c.5,0,.8,.1,1.1,.2c.3,.2,.6,.4,.9,.7c.6,.6,1.2,1.1,1.9,1.4c.7,.3,1.7,.5,3.2,.5c1.4,0,2.7,-.2,3.8,-.6c1.2,-.4,1.7,-1,1.7,-1.8c0,-.5,-.2,-.9,-.6,-1.3c-.4,-.3,-1,-.5,-1.8,-.8c-.9,-.2,-2.3,-.6,-4.4,-1l-2.3,-.5c-3.4,-.8,-5.8,-2,-7.1,-3.5Z" class="g5_1"/>
<path d="M775.9,1213.5l-8.3,-15.1c2.6,-1,4.6,-2.6,5.9,-4.7c1.4,-2.1,2.1,-4.6,2.1,-7.6c0,-4.1,-1.3,-7.4,-4,-9.8c-2.6,-2.3,-6.4,-3.5,-11.4,-3.5H744.7c-.4,0,-.8,.1,-1.1,.5c-.3,.3,-.5,.7,-.5,1.1v6h16.8c2.5,0,4.4,.4,5.7,1.3c1.2,.8,1.9,2.3,1.9,4.4c0,2.2,-.7,3.7,-2,4.6c-1.3,.9,-3.1,1.3,-5.6,1.3H743.1v21.8c0,.5,.2,.9,.5,1.2c.3,.3,.7,.5,1.1,.5h4.9c.4,0,.8,-.2,1.1,-.5c.4,-.3,.5,-.7,.5,-1.2v-14.2h8l7.9,14.2c.6,1.1,1.4,1.7,2.6,1.7h5.1c.4,0,.7,-.1,.9,-.4c.3,-.3,.4,-.6,.4,-1c0,-.2,0,-.4,-.2,-.6Z" class="g5_1"/>
<path d="M663.7,1204.8c-.2,.2,-.4,.3,-.7,.3h-1.5c-.3,0,-.5,-.1,-.7,-.3c-.3,-.2,-.4,-.5,-.4,-.8v-18.7c0,-.3,.1,-.5,.4,-.8c.2,-.2,.4,-.3,.7,-.3H663c.3,0,.5,.1,.7,.3c.2,.3,.3,.5,.3,.8V1204c0,.3,-.1,.6,-.3,.8Z" class="g6_1"/>
<path d="M688,1204.8c-.3,.2,-.5,.3,-.8,.3h-1.5c-.2,0,-.5,-.1,-.7,-.3c-.2,-.2,-.3,-.5,-.3,-.8v-10.6c0,-2,-.5,-3.5,-1.5,-4.6c-1,-1,-2.3,-1.5,-4.1,-1.5c-1.7,0,-3,.5,-4,1.5c-1,1.1,-1.5,2.6,-1.5,4.6V1204c0,.3,-.1,.6,-.3,.8c-.2,.2,-.5,.3,-.8,.3h-1.4c-.3,0,-.6,-.1,-.8,-.3c-.2,-.2,-.3,-.5,-.3,-.8v-18.7c0,-.3,.1,-.5,.3,-.8c.2,-.2,.5,-.3,.8,-.3h1.4c.3,0,.6,.1,.8,.3c.2,.3,.3,.5,.3,.8v1.3c.6,-.8,1.4,-1.5,2.4,-2c1,-.5,2.2,-.8,3.7,-.8c1.7,0,3.2,.4,4.5,1.1c1.3,.7,2.3,1.8,3,3.1c.7,1.4,1.1,3,1.1,4.8V1204c0,.3,-.1,.6,-.3,.8Z" class="g6_1"/>
<path d="M699.8,1200.7c.4,.6,1.3,1,2.6,1h2.1c.3,0,.6,.1,.8,.3c.2,.2,.3,.4,.3,.7v1.3c0,.3,-.1,.6,-.3,.8c-.2,.2,-.5,.3,-.8,.3H702c-2.2,0,-3.9,-.6,-4.9,-1.8c-1.1,-1.2,-1.6,-2.9,-1.6,-5.2v-10.4h-2.9c-.3,0,-.6,-.1,-.8,-.3c-.2,-.3,-.3,-.5,-.3,-.8v-1.3c0,-.3,.1,-.5,.3,-.8c.2,-.2,.5,-.3,.8,-.3h2.9v-6.5c0,-.3,.1,-.6,.3,-.8c.2,-.2,.5,-.3,.8,-.3H698c.3,0,.6,.1,.8,.3c.2,.2,.3,.5,.3,.8v6.5h5c.3,0,.6,.1,.8,.3c.2,.3,.3,.5,.3,.8v1.3c0,.3,-.1,.5,-.3,.8c-.2,.2,-.5,.3,-.8,.3h-5v10.4c0,1.1,.2,2,.7,2.6Z" class="g6_1"/>
<path d="M724.4,1186.6c1.6,1.8,2.4,4.2,2.4,7.4v1.1c0,.3,-.1,.5,-.3,.7c-.2,.2,-.5,.4,-.8,.4H712.1v.2c.1,1.8,.6,3.1,1.6,4.1c1,1.1,2.3,1.6,4,1.6c1.3,0,2.3,-.2,3,-.6c.8,-.3,1.4,-.8,2,-1.5c.2,-.2,.4,-.3,.6,-.4c.1,-.1,.4,-.1,.7,-.1h1.1c.4,0,.6,.1,.8,.3c.2,.2,.3,.5,.3,.8c-.1,.7,-.5,1.4,-1.2,2.2c-.6,.8,-1.6,1.4,-2.8,1.9c-1.3,.5,-2.8,.8,-4.5,.8c-1.7,0,-3.2,-.4,-4.6,-1.2c-1.3,-.8,-2.3,-1.9,-3.1,-3.2c-.8,-1.4,-1.3,-3,-1.4,-4.7c-.1,-.9,-.1,-1.5,-.1,-1.9c0,-.4,0,-1,.1,-1.8c.1,-1.7,.6,-3.2,1.4,-4.5c.8,-1.4,1.8,-2.4,3.1,-3.2c1.3,-.8,2.8,-1.2,4.6,-1.2c2.8,0,5,.9,6.7,2.8m-1.2,6.2v-.1c0,-1.7,-.5,-3,-1.5,-4c-1,-.9,-2.4,-1.4,-4,-1.4c-1.6,0,-2.9,.5,-3.9,1.5c-1.1,1,-1.7,2.2,-1.7,3.9v.1Z" class="g6_1"/>
<path d="M742.8,1184.5c.2,.3,.3,.5,.3,.8v1.3c0,.3,-.1,.5,-.3,.8c-.2,.2,-.5,.3,-.7,.3h-2.3c-1.5,0,-2.7,.4,-3.4,1.2c-.8,.8,-1.2,1.9,-1.2,3.4V1204c0,.3,-.1,.6,-.3,.8c-.2,.2,-.5,.3,-.8,.3h-1.4c-.3,0,-.6,-.1,-.8,-.3c-.2,-.2,-.3,-.5,-.3,-.8v-18.7c0,-.3,.1,-.5,.3,-.8c.2,-.2,.5,-.3,.8,-.3h1.4c.3,0,.6,.1,.8,.3c.2,.3,.3,.5,.3,.8v1.3c.5,-.9,1.2,-1.4,1.9,-1.8c.7,-.4,1.7,-.6,2.9,-.6h2.1c.2,0,.5,.1,.7,.3Z" class="g6_1"/>
<path d="M706.1,1180.4h-.6c-.2,0,-.3,-.1,-.4,-.4l-2.9,-6.8v-.1q0,-.1,.1,-.2q.1,-.1,.2,-.1h.6c.2,0,.4,.1,.5,.3l2.2,5.4l2.2,-5.4c.1,-.2,.3,-.3,.4,-.3h.6c.1,0,.2,0,.3,.1q.1,.1,.1,.2q0,.1,0,.1l-2.9,6.8c-.1,.3,-.2,.4,-.4,.4Z" class="g7_1"/>
<path d="M712.4,1171.5c-.1,.1,-.2,.1,-.3,.1h-.8c-.1,0,-.2,0,-.3,-.1q-.1,-.1,-.1,-.3v-.8c0,-.1,0,-.2,.1,-.3c.1,0,.2,-.1,.3,-.1h.8c.1,0,.2,.1,.3,.1c.1,.1,.1,.2,.1,.3v.8q0,.2,-.1,.3m-.2,8.8c0,.1,-.1,.1,-.2,.1h-.6c-.1,0,-.2,0,-.2,-.1c-.1,-.1,-.2,-.2,-.2,-.3v-6.8c0,-.1,.1,-.2,.2,-.3c0,-.1,.1,-.1,.2,-.1h.6c.1,0,.2,0,.2,.1c.1,.1,.2,.2,.2,.3v6.8c0,.1,-.1,.2,-.2,.3Z" class="g7_1"/>
<path d="M719,1175.6v-.2c0,-.4,-.1,-.8,-.4,-1c-.3,-.3,-.7,-.4,-1.2,-.4c-.4,0,-.6,.1,-.9,.2c-.2,.1,-.4,.3,-.5,.6c-.1,0,-.2,.1,-.2,.1c-.1,0,-.2,.1,-.3,.1h-.4c-.1,0,-.2,-.1,-.3,-.2c-.1,0,-.1,-.1,-.1,-.2c0,-.3,.2,-.6,.4,-.9c.3,-.2,.6,-.5,1,-.7c.4,-.1,.8,-.2,1.3,-.2c.9,0,1.6,.2,2.1,.7c.5,.5,.8,1.2,.8,2.1v4.3c0,.1,0,.2,-.1,.3c-.1,0,-.2,.1,-.3,.1h-.5c-.1,0,-.2,-.1,-.2,-.1c-.1,-.1,-.2,-.2,-.2,-.3v-.6c-.1,.3,-.4,.6,-.9,.8c-.5,.2,-1,.3,-1.5,.3c-.4,0,-.8,-.1,-1.2,-.3c-.4,-.1,-.7,-.4,-.9,-.7c-.2,-.3,-.3,-.6,-.3,-1c0,-.7,.3,-1.2,.8,-1.6c.5,-.4,1.2,-.7,2.1,-.9Zm0,1.1l-1.6,.3c-.6,.1,-1.1,.3,-1.4,.5c-.3,.2,-.5,.5,-.5,.8c0,.2,.1,.4,.3,.6c.2,.2,.5,.3,1,.3c.7,0,1.2,-.2,1.6,-.6c.4,-.4,.6,-.9,.6,-1.5Z" class="g7_1"/>
<path d="M722.9,1172.9c.1,-.1,.2,-.1,.3,-.1h.5c.1,0,.2,0,.3,.1c.1,.1,.1,.2,.1,.3v7.4c0,.8,-.2,1.5,-.6,1.9c-.4,.4,-1,.6,-1.8,.6h-.3c-.1,0,-.2,0,-.2,-.1c-.1,0,-.1,-.1,-.1,-.2v-.5c0,-.1,0,-.2,.1,-.3c0,-.1,.1,-.1,.2,-.1h.2c.4,0,.8,-.1,.9,-.3c.2,-.3,.3,-.6,.3,-1v-7.4c0,-.1,0,-.2,.1,-.3m1.2,-1.4q-.1,.1,-.3,.1H723c-.1,0,-.2,0,-.2,-.1c-.1,-.1,-.2,-.2,-.2,-.3v-.8c0,-.1,.1,-.2,.2,-.3c0,0,.1,-.1,.2,-.1h.8c.2,0,.2,.1,.3,.1c.1,.1,.1,.2,.1,.3v.8c0,.1,0,.2,-.1,.3Z" class="g7_1"/>
<path d="M731.7,1173.7c.6,.7,.8,1.5,.8,2.6v.4c0,.1,0,.2,-.1,.3c0,.1,-.1,.1,-.2,.1h-4.8v.1c0,.6,.2,1.1,.6,1.4c.3,.4,.8,.6,1.3,.6c.5,0,.9,-.1,1.1,-.2c.3,-.1,.5,-.3,.7,-.5c.1,-.1,.1,-.2,.2,-.2q.1,0,.2,0h.5c.1,0,.2,0,.2,.1q.1,.1,.1,.2c0,.3,-.1,.6,-.4,.8c-.2,.3,-.5,.5,-1,.7c-.4,.2,-.9,.3,-1.6,.3c-.5,0,-1.1,-.2,-1.5,-.4c-.5,-.3,-.9,-.7,-1.1,-1.2c-.3,-.5,-.5,-1,-.5,-1.6c-.1,-.3,-.1,-.5,-.1,-.7c0,-.1,0,-.3,.1,-.6c0,-.6,.2,-1.1,.5,-1.6c.2,-.5,.6,-.8,1.1,-1.1c.4,-.3,.9,-.4,1.5,-.4c1,0,1.8,.3,2.4,.9m-.4,2.2v0c0,-.6,-.2,-1.1,-.5,-1.4c-.4,-.3,-.9,-.5,-1.5,-.5c-.5,0,-.9,.2,-1.3,.5c-.4,.4,-.6,.8,-.6,1.4Z" class="g7_1"/>
<path d="M734.3,1174.9c0,-.4,.1,-.7,.3,-1.1c.3,-.3,.6,-.5,1,-.7c.4,-.2,.9,-.3,1.4,-.3c.6,0,1.1,.1,1.5,.2c.4,.2,.8,.4,1,.7c.2,.2,.3,.5,.3,.7c0,.1,0,.2,-.1,.3c-.1,0,-.2,.1,-.3,.1H739c-.2,0,-.3,-.1,-.4,-.2c-.3,-.4,-.8,-.6,-1.6,-.6c-.4,0,-.7,.1,-1,.2c-.3,.2,-.4,.4,-.4,.7c0,.2,.1,.4,.2,.5c.1,.2,.3,.3,.6,.3c.2,.1,.7,.2,1.4,.4c.8,.1,1.4,.4,1.7,.8c.3,.4,.5,.8,.5,1.3c0,.4,-.1,.8,-.3,1.1c-.3,.3,-.6,.6,-1,.8c-.5,.2,-1,.3,-1.6,.3c-.6,0,-1.1,-.1,-1.5,-.3c-.5,-.2,-.8,-.4,-1,-.6c-.3,-.3,-.4,-.6,-.4,-.8c0,-.1,0,-.2,.1,-.2c.1,-.1,.2,-.1,.3,-.1h.5q.1,0,.2,0c.1,0,.1,.1,.2,.1c.3,.5,.8,.7,1.6,.7c.4,0,.8,-.1,1.2,-.3c.3,-.2,.5,-.4,.5,-.7c0,-.2,-.1,-.4,-.3,-.5c-.2,-.1,-.4,-.3,-.7,-.4c-.3,0,-.8,-.2,-1.4,-.3c-1.4,-.3,-2.1,-1,-2.1,-2.1Z" class="g7_1"/>
<path d="M662.2,1182.3c-3.1,0,-5.6,-2.6,-5.6,-5.7c0,-3.2,2.5,-5.7,5.6,-5.7c3.2,0,5.7,2.5,5.7,5.7c0,3.1,-2.5,5.7,-5.7,5.7m0,-8.4c-1.4,0,-2.6,1.2,-2.6,2.7c0,1.5,1.2,2.6,2.6,2.6c1.5,0,2.7,-1.1,2.7,-2.6c0,-1.5,-1.2,-2.7,-2.7,-2.7Z" class="g5_1"/>
<path d="M734,1211.6c-2,0,-3,-.7,-3.9,-1.3c-.8,-.5,-1.4,-.9,-2.7,-.9c-1.2,0,-1.8,.4,-2.6,.9c-.9,.6,-1.9,1.3,-3.9,1.3c-2,0,-3.1,-.7,-4,-1.3c-.7,-.5,-1.3,-.9,-2.6,-.9c-1.3,0,-1.9,.4,-2.7,.9c-.8,.6,-1.9,1.3,-3.9,1.3c-2,0,-3.1,-.7,-3.9,-1.3c-.8,-.5,-1.4,-.9,-2.7,-.9c-1.3,0,-1.9,.4,-2.6,.9c-.9,.6,-2,1.3,-4,1.3c-2,0,-3,-.7,-3.9,-1.3c-.8,-.5,-1.4,-.9,-2.7,-.9c-1.2,0,-1.8,.4,-2.6,.9c-.9,.6,-1.9,1.3,-3.9,1.3c-2,0,-3.1,-.7,-4,-1.3c-.7,-.5,-1.3,-.9,-2.6,-.9c-1.3,0,-1.9,.4,-2.7,.9c-.8,.6,-1.9,1.3,-3.9,1.3c-2,0,-3.1,-.7,-3.9,-1.3c-.8,-.5,-1.4,-.9,-2.7,-.9c-.6,0,-1.2,-.5,-1.2,-1.2c0,-.7,.6,-1.2,1.2,-1.2c2,0,3.1,.7,4,1.3c.7,.5,1.3,.9,2.6,.9c1.3,0,1.9,-.4,2.6,-.9c.9,-.6,2,-1.3,4,-1.3c2,0,3.1,.7,3.9,1.3c.8,.5,1.4,.9,2.7,.9c1.3,0,1.8,-.4,2.6,-.9c.9,-.6,1.9,-1.3,3.9,-1.3c2,0,3.1,.7,4,1.3c.7,.5,1.3,.9,2.6,.9c1.3,0,1.9,-.4,2.7,-.9c.8,-.6,1.9,-1.3,3.9,-1.3c2,0,3.1,.7,3.9,1.3c.8,.5,1.4,.9,2.7,.9c1.3,0,1.9,-.4,2.6,-.9c.9,-.6,2,-1.3,4,-1.3c2,0,3.1,.7,3.9,1.3c.8,.5,1.4,.9,2.7,.9c1.3,0,1.9,-.4,2.6,-.9c.9,-.6,1.9,-1.3,3.9,-1.3c2,0,3.1,.7,4,1.3c.7,.5,1.3,.9,2.6,.9c.7,0,1.2,.6,1.2,1.2c0,.7,-.5,1.2,-1.2,1.2Z" class="g5_1"/>
<path d="M734,1215.5c-2,0,-3,-.7,-3.9,-1.3c-.8,-.5,-1.4,-.9,-2.7,-.9c-1.2,0,-1.8,.4,-2.6,.9c-.9,.6,-1.9,1.3,-3.9,1.3c-2,0,-3.1,-.7,-4,-1.3c-.7,-.5,-1.3,-.9,-2.6,-.9c-1.3,0,-1.9,.4,-2.7,.9c-.8,.6,-1.9,1.3,-3.9,1.3c-2,0,-3.1,-.7,-3.9,-1.3c-.8,-.5,-1.4,-.9,-2.7,-.9c-1.3,0,-1.9,.4,-2.6,.9c-.9,.6,-2,1.3,-4,1.3c-2,0,-3,-.7,-3.9,-1.3c-.8,-.5,-1.4,-.9,-2.7,-.9c-1.2,0,-1.8,.4,-2.6,.9c-.9,.6,-1.9,1.3,-3.9,1.3c-2,0,-3.1,-.7,-4,-1.3c-.7,-.5,-1.3,-.9,-2.6,-.9c-1.3,0,-1.9,.4,-2.7,.9c-.8,.6,-1.9,1.3,-3.9,1.3c-2,0,-3.1,-.7,-3.9,-1.3c-.8,-.5,-1.4,-.9,-2.7,-.9c-.6,0,-1.2,-.6,-1.2,-1.2c0,-.7,.6,-1.2,1.2,-1.2c2,0,3.1,.7,4,1.3c.7,.5,1.3,.9,2.6,.9c1.3,0,1.9,-.4,2.6,-.9c.9,-.6,2,-1.3,4,-1.3c2,0,3.1,.7,3.9,1.3c.8,.5,1.4,.9,2.7,.9c1.3,0,1.8,-.4,2.6,-.9c.9,-.6,1.9,-1.3,3.9,-1.3c2,0,3.1,.7,4,1.3c.7,.5,1.3,.9,2.6,.9c1.3,0,1.9,-.4,2.7,-.9c.8,-.6,1.9,-1.3,3.9,-1.3c2,0,3.1,.7,3.9,1.3c.8,.5,1.4,.9,2.7,.9c1.3,0,1.9,-.4,2.6,-.9c.9,-.6,2,-1.3,4,-1.3c2,0,3.1,.7,3.9,1.3c.8,.5,1.4,.9,2.7,.9c1.3,0,1.9,-.4,2.6,-.9c.9,-.6,1.9,-1.3,3.9,-1.3c2,0,3.1,.7,4,1.3c.7,.5,1.3,.9,2.6,.9c.7,0,1.2,.5,1.2,1.2c0,.7,-.5,1.2,-1.2,1.2Z" class="g5_1"/>
<g clip-path="url(#c1_1)">
<image preserveAspectRatio="none" x="660" y="991" width="263" height="31" xlink:href="img/2.png"/>
<path d="M-1203.8,1048H948.4m-2152.2,59.7H948.4" class="g3_1"/>
</g>
<g clip-path="url(#c1_1)" opacity="0.73" style="mix-blend-mode: multiply;">
<path d="M212.4,1004.5c24.4,0,44.1,-19.7,44.1,-44.1c0,-24.4,-19.7,-44.2,-44.1,-44.2c-24.4,0,-44.2,19.8,-44.2,44.2c0,24.4,19.8,44.1,44.2,44.1Z" class="g2_1"/>
</g>
<path d="M218.3,959.9c-1,0,-1.8,-.8,-1.8,-1.9v-1.1h-8.2V958c0,1.1,-.8,1.9,-1.8,1.9h-3.1c-1,0,-1.9,-.8,-1.9,-1.9v-1.2c-.8,-.2,-1.3,-.9,-1.3,-1.7V937.2h-1.4c-.4,0,-.8,.3,-.8,.8v4h-1.3v-4c0,-1.2,1,-2.1,2.1,-2.1h1.4v-4.2c0,-1.5,1.2,-2.6,2.6,-2.6H222c1.4,0,2.6,1.1,2.6,2.6v4.2H226c1.1,0,2.1,.9,2.1,2.1v4h-1.3v-4c0,-.5,-.4,-.8,-.8,-.8h-1.4v17.9c0,.8,-.5,1.5,-1.3,1.7l-.1,.1V958c0,1.1,-.8,1.9,-1.8,1.9Zm-.6,-1.9c0,.3,.3,.6,.6,.6h3.1c.3,0,.6,-.3,.6,-.6v-1.1h-4.3Zm-14.9,0c0,.3,.3,.6,.6,.6h3.1c.3,0,.5,-.3,.5,-.6v-1.1h-4.2Zm-1.3,-2.9c0,.3,.2,.5,.5,.5h20.7c.3,0,.6,-.2,.6,-.5v-7.7H201.5Zm11.5,-9h10.3V935H213v11.1Zm-11.5,0h10.2V935H201.5v11.1Zm1.3,-15.8c-.7,0,-1.3,.6,-1.3,1.4v2h21.8v-2c0,-.8,-.6,-1.4,-1.3,-1.4Z" class="g4_1"/>
<path d="M205.7,953.7c-1.4,0,-2.5,-1.1,-2.5,-2.4c0,-1.4,1.1,-2.5,2.5,-2.5c1.4,0,2.5,1.1,2.5,2.5c0,1.3,-1.1,2.4,-2.5,2.4m0,-3.6c-.7,0,-1.2,.5,-1.2,1.2c0,.6,.5,1.2,1.2,1.2c.6,0,1.2,-.6,1.2,-1.2c0,-.7,-.6,-1.2,-1.2,-1.2Z" class="g4_1"/>
<path d="M219.1,953.7c-1.4,0,-2.5,-1.1,-2.5,-2.4c0,-1.4,1.1,-2.5,2.5,-2.5c1.3,0,2.5,1.1,2.5,2.5c0,1.3,-1.2,2.4,-2.5,2.4m0,-3.6c-.7,0,-1.2,.5,-1.2,1.2c0,.6,.5,1.2,1.2,1.2c.6,0,1.2,-.6,1.2,-1.2c0,-.7,-.6,-1.2,-1.2,-1.2Z" class="g4_1"/>
<g clip-path="url(#c1_1)" opacity="0.73">
<path d="M212.4,1004.5c24.4,0,44.1,-19.7,44.1,-44.1c0,-24.4,-19.7,-44.2,-44.1,-44.2c-24.4,0,-44.2,19.8,-44.2,44.2c0,24.4,19.8,44.1,44.2,44.1Z" class="g8_1"/>
</g>
<g clip-path="url(#c1_1)" opacity="0.73" style="mix-blend-mode: multiply;">
<path d="M337.4,1004.5c24.4,0,44.2,-19.7,44.2,-44.1c0,-24.4,-19.8,-44.2,-44.2,-44.2c-24.3,0,-44.1,19.8,-44.1,44.2c0,24.4,19.8,44.1,44.1,44.1Z" class="g2_1"/>
<path d="M337.4,1004.5c24.4,0,44.2,-19.7,44.2,-44.1c0,-24.4,-19.8,-44.2,-44.2,-44.2c-24.3,0,-44.1,19.8,-44.1,44.2c0,24.4,19.8,44.1,44.1,44.1Z" class="g9_1"/>
</g>
<path d="M330.7,948.8h-5.4v-5.4h5.4v5.4Zm9.4,0h-5.4v-5.4h5.4v5.4Zm9.5,0h-5.4v-5.4h5.4v5.4Zm-18.9,8.8h-5.4v-5.4h5.4v5.4Zm9.4,0h-5.4v-5.4h5.4v5.4Zm9.5,0h-5.4v-5.4h5.4v5.4ZM353,936v4.1H321.8V936c0,-1.5,1.3,-2.8,3,-2.8h3.4v2.6c0,.5,.4,.9,.9,.9h2.1c.5,0,.9,-.4,.9,-.9v-2.6h3.4v2.6c0,.5,.4,.9,.9,.9h2.1c.5,0,.9,-.4,.9,-.9v-2.6h3.4v2.6c0,.5,.4,.9,.9,.9h2c.5,0,.9,-.4,.9,-.9v-2.6h3.5c1.6,0,2.9,1.3,2.9,2.8Zm0,4.1H321.8V958c0,1.6,1.3,2.9,3,2.9h25.3c1.6,0,2.9,-1.3,2.9,-2.9V940.1Zm-20.9,-9.5v5.2c0,.5,-.4,.9,-.9,.9h-2.1c-.5,0,-.9,-.4,-.9,-.9v-5.2c0,-.5,.4,-.9,.9,-.9h2.1c.5,0,.9,.4,.9,.9Zm14.5,0v5.2c0,.5,-.4,.9,-.9,.9h-2c-.5,0,-.9,-.4,-.9,-.9v-5.2c0,-.5,.4,-.9,.9,-.9h2c.5,0,.9,.4,.9,.9Zm-7.2,0v5.2c0,.5,-.4,.9,-.9,.9h-2.1c-.5,0,-.9,-.4,-.9,-.9v-5.2c0,-.5,.4,-.9,.9,-.9h2.1c.5,0,.9,.4,.9,.9Z" class="ga_1"/>
<g clip-path="url(#c1_1)" opacity="0.73">
<path d="M337.4,1004.5c24.4,0,44.2,-19.7,44.2,-44.1c0,-24.4,-19.8,-44.2,-44.2,-44.2c-24.3,0,-44.1,19.8,-44.1,44.2c0,24.4,19.8,44.1,44.1,44.1Z" class="g8_1"/>
</g>
<g clip-path="url(#c1_1)" opacity="0.73" style="mix-blend-mode: multiply;">
<path d="M462.5,1003.7c24.1,0,43.7,-19.6,43.7,-43.7c0,-24.2,-19.6,-43.8,-43.7,-43.8c-24.2,0,-43.7,19.6,-43.7,43.8c0,24.1,19.5,43.7,43.7,43.7Z" class="g2_1"/>
<path d="M462.5,1003.7c24.1,0,43.7,-19.6,43.7,-43.7c0,-24.2,-19.6,-43.8,-43.7,-43.8c-24.2,0,-43.7,19.6,-43.7,43.8c0,24.1,19.5,43.7,43.7,43.7Z" class="g9_1"/>
</g>
<path d="M472.6,939.6c.2,-.7,.3,-1.4,.3,-2.2c0,-5.1,-4.7,-9.2,-10.4,-9.2c-5.7,0,-10.4,4.1,-10.4,9.2c0,.8,.1,1.5,.3,2.2c.3,1.5,.7,2.7,1.1,3.6c1.1,1.9,5.3,8.3,7.3,11.1c-2.6,.3,-3.9,1.4,-3.9,2.3c0,1.2,1.8,2.4,5.6,2.4c3.8,0,5.6,-1.2,5.6,-2.4c0,-.9,-1.3,-2,-3.9,-2.3c1.9,-2.8,6.2,-9.2,7.2,-11.1c.5,-.9,.9,-2.1,1.2,-3.6m-6.1,17c-.2,.3,-1.5,1,-4,1c-2.6,0,-3.9,-.7,-4,-1c.1,-.2,1.2,-.8,3.2,-.9c.1,0,.1,.1,.1,.1c.1,.2,.4,.3,.7,.3c.3,0,.5,-.1,.7,-.3c0,0,0,-.1,0,-.1c2.1,.1,3.2,.7,3.3,.9M455,942.6c-.4,-.7,-.8,-1.9,-1,-3.2c0,0,0,-.1,0,-.1c-.2,-.6,-.3,-1.2,-.3,-1.9c0,-4.3,3.9,-7.8,8.8,-7.8c4.8,0,8.8,3.5,8.8,7.8c0,.7,-.1,1.3,-.3,1.9c0,0,0,.1,0,.1c-.3,1.3,-.6,2.5,-1,3.2c-1,2,-5.7,8.8,-7.5,11.4c-1.8,-2.6,-6.5,-9.4,-7.5,-11.4Z" class="g4_1"/>
<path d="M462.5,932.2c-3.1,0,-5.6,2.2,-5.6,5c0,2.7,2.5,4.9,5.6,4.9c3.1,0,5.6,-2.2,5.6,-4.9c0,-2.8,-2.5,-5,-5.6,-5m-4,5c0,-2,1.8,-3.6,4,-3.6c2.2,0,4,1.6,4,3.6c0,1.9,-1.8,3.5,-4,3.5c-2.2,0,-4,-1.6,-4,-3.5Z" class="g4_1"/>
<g clip-path="url(#c1_1)" opacity="0.73">
<path d="M462.5,1003.7c24.1,0,43.7,-19.6,43.7,-43.7c0,-24.2,-19.6,-43.8,-43.7,-43.8c-24.2,0,-43.7,19.6,-43.7,43.8c0,24.1,19.5,43.7,43.7,43.7Z" class="g8_1"/>
</g>
<g clip-path="url(#c1_1)" opacity="0.73" style="mix-blend-mode: multiply;">
<path d="M587.5,1004.5c24.4,0,44.2,-19.7,44.2,-44.1c0,-24.4,-19.8,-44.2,-44.2,-44.2c-24.3,0,-44.1,19.8,-44.1,44.2c0,24.4,19.8,44.1,44.1,44.1Z" class="g2_1"/>
</g>
<path d="M590.9,956.3c-4.1,0,-8,-1.8,-10.6,-5c-.2,-.3,-.2,-.7,.1,-1c.3,-.2,.7,-.1,.9,.1c2.4,3,5.9,4.6,9.6,4.6c6.8,0,12.4,-5.5,12.4,-12.3c0,-6.8,-5.6,-12.3,-12.4,-12.3c-3.2,0,-6.3,1.2,-8.6,3.5c-.3,.3,-.7,.7,-1,1.1c-.2,.3,-.6,.3,-.9,.1c-.3,-.3,-.3,-.7,-.1,-.9c.3,-.5,.7,-.9,1.1,-1.3c2.6,-2.5,5.9,-3.8,9.5,-3.8c7.6,0,13.7,6.1,13.7,13.6c0,7.5,-6.1,13.6,-13.7,13.6Z" class="g4_1"/>
<path d="M590.9,937.6c-.3,0,-.6,-.3,-.6,-.6v-1.2c0,-.3,.3,-.6,.6,-.6c.4,0,.7,.3,.7,.6V937c0,.3,-.3,.6,-.7,.6Z" class="g4_1"/>
<path d="M590.9,948.9c-2,0,-3.7,-1.5,-3.7,-3.4c0,-.4,.3,-.7,.7,-.7c.4,0,.7,.3,.7,.7c0,1.2,1,2.1,2.3,2.1c1.3,0,2.4,-.9,2.4,-2.1c0,-1.2,-1.1,-2.2,-2.4,-2.2c-2,0,-3.7,-1.6,-3.7,-3.5c0,-1.9,1.7,-3.5,3.7,-3.5c2.1,0,3.7,1.6,3.7,3.5c0,.4,-.3,.7,-.6,.7c-.4,0,-.7,-.3,-.7,-.7c0,-1.2,-1.1,-2.2,-2.4,-2.2c-1.3,0,-2.3,1,-2.3,2.2c0,1.2,1,2.2,2.3,2.2c2.1,0,3.7,1.5,3.7,3.5c0,1.9,-1.6,3.4,-3.7,3.4Z" class="g4_1"/>
<path d="M590.9,950.2c-.3,0,-.6,-.3,-.6,-.6V937c0,-.4,.3,-.7,.6,-.7c.4,0,.7,.3,.7,.7v12.6c0,.3,-.3,.6,-.7,.6Z" class="g4_1"/>
<path d="M578.8,943.4h-15c-.4,0,-.7,-.3,-.7,-.7c0,-.4,.3,-.6,.7,-.6h15c.4,0,.7,.2,.7,.6c0,.4,-.3,.7,-.7,.7Z" class="g4_1"/>
<path d="M580.8,938.9H568c-.3,0,-.6,-.3,-.6,-.6c0,-.4,.3,-.7,.6,-.7h12.8c.4,0,.7,.3,.7,.7c0,.3,-.3,.6,-.7,.6Z" class="g4_1"/>
<path d="M580.8,947.8H568c-.3,0,-.6,-.3,-.6,-.6c0,-.4,.3,-.7,.6,-.7h12.8c.4,0,.7,.3,.7,.7c0,.3,-.3,.6,-.7,.6Z" class="g4_1"/>
<g clip-path="url(#c1_1)" opacity="0.73">
<path d="M587.5,1004.5c24.4,0,44.2,-19.7,44.2,-44.1c0,-24.4,-19.8,-44.2,-44.2,-44.2c-24.3,0,-44.1,19.8,-44.1,44.2c0,24.4,19.8,44.1,44.1,44.1Z" class="g8_1"/>
</g>
<g clip-path="url(#c1_1)" opacity="0.53" style="mix-blend-mode: screen;">
<path d="M87.3,1003.7c24.2,0,43.8,-19.6,43.8,-43.7c0,-24.2,-19.6,-43.8,-43.8,-43.8c-24.1,0,-43.7,19.6,-43.7,43.8c0,24.1,19.6,43.7,43.7,43.7Z" class="g5_1"/>
</g>
<path d="M71.2,950.9c-.3,0,-.5,-.3,-.5,-.6c0,-.3,.2,-.6,.5,-.6h28c2,0,3.7,-1.8,3.7,-3.9c0,-1.3,-.6,-2.5,-1.6,-3.3L95.5,937c-3.8,-2.8,-8.2,-4.3,-12.8,-4.3H71.2c-.3,0,-.5,-.3,-.5,-.6c0,-.3,.2,-.6,.5,-.6H82.7c4.9,0,9.5,1.6,13.4,4.6l5.9,5.5c1.2,1,2,2.5,2,4.2c0,2.8,-2.1,5.1,-4.8,5.1Z" class="g4_1"/>
<path d="M99.9,941v0L83.1,939.9c-.9,0,-1.6,-.8,-1.6,-1.8v-1.3c0,-.9,.7,-1.7,1.6,-1.7H94.5c.4,0,.6,.3,.6,.6c0,.3,-.2,.6,-.6,.6H83.1c-.3,0,-.5,.2,-.5,.5v1.3c0,.3,.2,.6,.5,.6h.1l16.7,1.1c.2,0,.3,.1,.4,.2c.1,.1,.2,.3,.2,.4c-.1,.4,-.3,.6,-.6,.6" class="g4_1"/>
<path d="M78,939.9c-1,0,-1.8,-.9,-1.8,-2V937c0,-1,.8,-1.9,1.8,-1.9h.8c1,0,1.8,.9,1.8,1.9v.9c0,1.1,-.8,2,-1.8,2Zm0,-3.6c-.4,0,-.7,.3,-.7,.7v.9c0,.4,.3,.8,.7,.8h.8c.4,0,.7,-.4,.7,-.8V937c0,-.4,-.3,-.7,-.7,-.7Z" class="g4_1"/>
<path d="M72.8,939.9c-1,0,-1.8,-.9,-1.8,-2V937c0,-1,.8,-1.9,1.8,-1.9h.8c1,0,1.8,.9,1.8,1.9v.9c0,1.1,-.8,2,-1.8,2Zm0,-3.6c-.4,0,-.7,.3,-.7,.7v.9c0,.4,.3,.8,.7,.8h.8c.4,0,.7,-.4,.7,-.8V937c0,-.4,-.3,-.7,-.7,-.7Z" class="g4_1"/>
<path d="M75.9,953.8c-1.1,0,-2,-1.2,-2,-2.6c0,-.3,.3,-.6,.6,-.6c.3,0,.6,.3,.6,.6c0,.7,.3,1.4,.8,1.4h8.3c.5,0,.9,-.7,.9,-1.4c0,-.3,.2,-.6,.5,-.6c.3,0,.6,.3,.6,.6c0,1.4,-.9,2.6,-2,2.6Z" class="g4_1"/>
<path d="M87,953.8c-1.1,0,-1.9,-1.2,-1.9,-2.6c0,-.3,.2,-.6,.5,-.6c.3,0,.6,.3,.6,.6c0,.7,.4,1.4,.8,1.4h8.4c.4,0,.8,-.7,.8,-1.4c0,-.3,.2,-.6,.5,-.6c.3,0,.6,.3,.6,.6c0,1.4,-.9,2.6,-1.9,2.6Z" class="g4_1"/>
<g clip-path="url(#c1_1)" opacity="0.73" style="mix-blend-mode: multiply;">
<path d="M674.7,997.9H869.6v-75H674.7v75Z" class="g0_1"/>
</g>
<path d="M750,939.8v39.7" class="gb_1"/>
<g clip-path="url(#c1_1)">
<image preserveAspectRatio="none" x="743" y="926" width="36" height="61" xlink:href="img/3.png"/>
<g opacity="0.73">
<path d="M87.3,1003.7c24.2,0,43.8,-19.6,43.8,-43.7c0,-24.2,-19.6,-43.8,-43.8,-43.8c-24.1,0,-43.7,19.6,-43.7,43.8c0,24.1,19.6,43.7,43.7,43.7Z" class="g8_1"/>
</g>
</g>
<path d="M71.9,958.3c-.3,0,-.6,-.3,-.6,-.7c0,-.3,.3,-.6,.6,-.6h30.9c.3,0,.6,.3,.6,.6c0,.4,-.3,.7,-.6,.7Z" class="g4_1"/>
</svg>