<?xml version="1.0" encoding="UTF-8" standalone="no"?>
<!DOCTYPE svg PUBLIC "-//W3C//DTD SVG 1.1//EN"
"http://www.w3.org/Graphics/SVG/1.1/DTD/svg11.dtd">
<svg viewBox="0 0 909 1286" version="1.1" xmlns="http://www.w3.org/2000/svg" xmlns:xlink="http://www.w3.org/1999/xlink">
<defs>
<clipPath id="c0_8"><path d="M868.6,57.1V42.8H620V57.1ZM324.8,318.3V0H909.4V318.3H867v-72H505.8v72Z"/></clipPath>
<clipPath id="c1_8"><path d="M620,57.1V42.8H868.6V57.1Z"/></clipPath>
<clipPath id="c2_8"><path d="M61.2,251.7c-9.9,0,-17.9,-8,-17.9,-17.8c0,-9.9,8,-17.9,17.9,-17.9C71,216,79,224,79,233.9c0,9.8,-8,17.8,-17.8,17.8Z"/></clipPath>
<clipPath id="c3_8"><path d="M102.4,1233.7v-12.1H51.8v12.1Zm-59.1,9.2V1131.4H303.1v111.5Z"/></clipPath>
<clipPath id="c4_8"><path d="M51.8,1233.7v-12.1h50.6v12.1Z"/></clipPath>
<clipPath id="c5_8"><path d="M779,347.5v-5.1h87.1v-2.3H855.3V318.3H867v29.2Z"/></clipPath>
<clipPath id="c6_8"><path d="M855.3,318.3v-41C855.3,267.2,847.1,259,837,259H794.6c-6.6,0,-12.3,3.5,-15.6,8.7V246.3h88v72Z"/></clipPath>
<clipPath id="c7_8"><path d="M855.3,342.4v-2.3h10.8v2.3Z"/></clipPath>
<clipPath id="c8_8"><path d="M691.1,347.5v-5.1h78.5v5.1Zm76.3,-7.4V318.3h2.2v21.8Z"/></clipPath>
<clipPath id="c9_8"><path d="M767.4,318.3v-41C767.4,267.2,759.2,259,749,259H706.7c-6.6,0,-12.4,3.5,-15.6,8.7V246.3h78.5v72Z"/></clipPath>
<clipPath id="ca_8"><path d="M767.4,342.4v-2.3h2.2v2.3Z"/></clipPath>
<clipPath id="cb_8"><path d="M769.6,347.5v-5.1H779v5.1Zm0,-7.4V318.3h6.7v16.9h-.1v4.9Z"/></clipPath>
<clipPath id="cc_8"><path d="M769.6,318.3v-72H779v21.4c-1.7,2.8,-2.7,6.1,-2.7,9.6v41Z"/></clipPath>
<clipPath id="cd_8"><path d="M769.6,342.4v-2.3h6.6v2.3Z"/></clipPath>
<clipPath id="ce_8"><path d="M776.3,335.2V277.3c0,-3.5,1,-6.8,2.7,-9.6v67.5Z"/></clipPath>
<clipPath id="cf_8"><path d="M776.2,342.4v-7.2H779v7.2Z"/></clipPath>
<clipPath id="cg_8"><path d="M603.1,347.5v-5.1h78.6v5.1Zm76.3,-7.4V318.3h2.3v21.8Z"/></clipPath>
<clipPath id="ch_8"><path d="M679.4,318.3v-41c0,-10.1,-8.2,-18.3,-18.3,-18.3H618.7c-6.6,0,-12.3,3.5,-15.6,8.7V246.3h78.6v72Z"/></clipPath>
<clipPath id="ci_8"><path d="M679.4,342.4v-2.3h2.3v2.3Z"/></clipPath>
<clipPath id="cj_8"><path d="M681.7,347.5v-5.1h9.4v5.1Zm0,-7.4V318.3h6.6v21.8Z"/></clipPath>
<clipPath id="ck_8"><path d="M681.7,318.3v-72h9.4v21.4c-1.8,2.8,-2.8,6.1,-2.8,9.6v41Z"/></clipPath>
<clipPath id="cl_8"><path d="M681.7,342.4v-2.3h6.6v2.3Z"/></clipPath>
<clipPath id="cm_8"><path d="M688.3,335.2V277.3c0,-3.5,1,-6.8,2.8,-9.6v67.5Z"/></clipPath>
<clipPath id="cn_8"><path d="M688.3,342.4v-7.2h2.8v7.2Z"/></clipPath>
<clipPath id="co_8"><path d="M505.8,347.5v-5.1h87.9v5.1Zm0,-7.4V318.3h87.9v21.8Z"/></clipPath>
<clipPath id="cp_8"><path d="M505.8,318.3v-72h87.9v72Z"/></clipPath>
<clipPath id="cq_8"><path d="M505.8,342.4v-2.3h87.9v2.3Z"/></clipPath>
<clipPath id="cr_8"><path d="M593.7,347.5v-5.1h9.4v5.1Zm0,-7.4V318.3h6.7v16.9h-.1v4.9Z"/></clipPath>
<clipPath id="cs_8"><path d="M593.7,318.3v-72h9.4v21.4c-1.7,2.8,-2.7,6.1,-2.7,9.6v41Z"/></clipPath>
<clipPath id="ct_8"><path d="M593.7,342.4v-2.3h6.6v2.3Z"/></clipPath>
<clipPath id="cu_8"><path d="M600.4,335.2V277.3c0,-3.5,1,-6.8,2.7,-9.6v67.5Z"/></clipPath>
<clipPath id="cv_8"><path d="M600.3,342.4v-7.2h2.8v7.2Z"/></clipPath>
<style type="text/css"><![CDATA[
.g0_8{
fill: #1B1661;
}
.g1_8{
fill: #FFF;
}
.g2_8{
fill: #E7E8E8;
}
.g3_8{
fill: #DCDDDE;
}
.g4_8{
fill: #72C161;
}
.g5_8{
fill: #D3E8CB;
}
.g6_8{
fill: #CFCBCA;
}
.g7_8{
fill: #FCB61D;
}
.g8_8{
fill: #FEE6BB;
}
.g9_8{
fill: #5AC4C1;
}
.ga_8{
fill: #F37537;
}
.gb_8{
fill: #5180C1;
}
]]></style>
</defs>
<image clip-path="url(#c0_8)" preserveAspectRatio="none" x="325" y="0" width="584" height="318" xlink:href="img/1.jpg"/>
<image clip-path="url(#c1_8)" preserveAspectRatio="none" x="620" y="43" width="249" height="14" xlink:href="img/2.jpg"/>
<path d="M606.3,1005.2v.8h.8h-.8v236.9H866.1V1005.2Zm258.3,1.5v234.7H607.8V1006.7Z" class="g0_8"/>
<path d="M651.3,1011.8H821.1V998H651.3Z" class="g1_8"/>
<path d="M43.3,1118.4H303.1V772.6H43.3v345.8Z" class="g2_8"/>
<path d="M43.3,772.6H303.1v27.7H43.3V772.6Z" class="g0_8"/>
<path d="M43.3,800.3H303.1v25.2H43.3V800.3Zm0,280.5H303.1v37.6H43.3v-37.6Z" class="g3_8"/>
<path d="M43.3,825.9H303.1v-.7H43.3v.7Z" class="g1_8"/>
<path d="M43.3,1081.2H303.1v-.7H43.3v.7Z" class="g1_8"/>
<path d="M62.4,784.2l-1,-.6c-.2,-.2,-.6,-.1,-.8,.1l-4.7,7l-2.1,-2.2c-.2,-.2,-.6,-.2,-.8,0l-.9,.8c-.2,.3,-.2,.6,0,.8l3.4,3.4c.1,.2,.4,.3,.7,.3c.3,0,.5,-.2,.7,-.4L62.6,785c.1,-.2,.1,-.6,-.2,-.8Z" class="g1_8"/>
<path d="M324.8,1240.7H584.6V1048H324.8v192.7Z" class="g2_8"/>
<path d="M324.8,1048H584.6v26.3H324.8V1048Z" class="g0_8"/>
<path d="M324.8,1114.2H526.6v40H324.8v-40Zm201.8,0h58v40h-58v-40Zm-201.8,63.9H526.6v39.1H324.8v-39.1Zm201.8,0h58v39.1h-58v-39.1Z" class="g3_8"/>
<path d="M324.8,1218H526.6v-1.5H324.8Z" class="g1_8"/>
<path d="M526.6,1218h58v-1.5h-58Z" class="g1_8"/>
<path d="M343.9,1058.3l-1,-.7c-.2,-.2,-.6,-.1,-.8,.2l-4.7,6.9l-2.1,-2.2c-.3,-.2,-.6,-.2,-.8,0l-.9,.8c-.2,.3,-.2,.6,0,.9l3.4,3.3c.1,.2,.4,.3,.7,.3c.3,0,.5,-.1,.7,-.4l5.7,-8.3c.1,-.3,.1,-.7,-.2,-.8Z" class="g1_8"/>
<path d="M74.5,231H302.3v-1.5H74.5Z" class="g4_8"/>
<path d="M61.2,251.7c9.8,0,17.8,-8,17.8,-17.8C79,224,71,216,61.2,216c-9.9,0,-17.9,8,-17.9,17.9c0,9.8,8,17.8,17.9,17.8Z" class="g4_8"/>
<path clip-path="url(#c2_8)" d="M60.2,238.1c-1.5,.6,-2.9,1.2,-4.4,1.8c-1.9,.7,-3.9,1.3,-5.9,1.4c-.5,0,-1,-.1,-1.5,-.2c-.7,-.2,-1.3,-.7,-1.6,-1.4c-.7,-1.5,-1.4,-3.1,-2.1,-4.6c-.4,-.9,-.3,-1.4,.1,-1.9c.6,-.5,1.7,-.6,2.4,-.2c.7,.5,1.4,1,2.1,1.5c.1,.1,.3,.2,.4,.3c.5,.6,1.1,.6,1.8,.2c1.4,-.7,2.9,-1.3,4.3,-1.9l.2,-.2c-1.1,-.6,-2,-1.2,-3,-1.8c-.6,-.3,-1.2,-.6,-1.7,-1c-.3,-.3,-.6,-.7,-.6,-1.1c-.1,-.4,.4,-.7,.7,-.9c1.4,-.7,2.7,-.6,4.1,-.2c2.2,.7,4.3,1.4,6.5,2c.3,.1,.7,.1,1,-.1c2.4,-1,4.8,-2.1,7.2,-3c1.6,-.7,3.4,-.7,5,0c.5,.3,1,.6,1.4,1c.8,.7,.8,1.4,0,2c-.9,.7,-1.9,1.3,-2.8,1.8c-1.8,1,-3.7,1.9,-5.5,2.8c-.3,.2,-.6,.4,-.7,.7C66,238.4,64.5,241.7,63,245c-.6,1.4,-1.6,2.4,-3.1,2.8c-.8,.3,-1.4,-.3,-1.3,-1.2c.2,-1.3,.5,-2.6,.7,-3.9c.3,-1.5,.6,-3,.9,-4.6m15.6,-9.2c-.6,-.7,-1.3,-1,-2,-1.1c-1.6,-.4,-3,0,-4.4,.7c-5.9,2.6,-11.8,5.2,-17.7,7.9c-1,.4,-1.8,.3,-2.6,-.3c-.7,-.6,-1.5,-1.2,-2.3,-1.7c-.2,-.2,-.6,-.3,-.9,-.4l-.1,.2c.7,1.6,1.4,3.2,2.1,4.8c.3,.6,.6,.9,1.2,.9c.6,0,1.2,0,1.8,-.1c3.1,-.4,5.9,-1.7,8.7,-2.9c.8,-.3,1.5,-.7,2.4,-1.1c-.7,3.6,-1.3,7,-2,10.5c.9,-.4,1.4,-1.1,1.7,-1.8c1.6,-3.5,3.2,-6.9,4.8,-10.4c.2,-.2,.4,-.5,.7,-.6c1.6,-.8,3.3,-1.6,4.9,-2.4c1.2,-.7,2.4,-1.5,3.7,-2.2m-15.1,2c-2.2,-.6,-4.1,-1.3,-6.1,-1.8c-.7,-.2,-1.5,-.3,-2.2,.1c1.7,1,3.3,2,4.9,3c.1,.1,.4,0,.5,0c.9,-.4,1.8,-.8,2.9,-1.3Z" class="g5_8"/>
<image clip-path="url(#c3_8)" preserveAspectRatio="none" x="43" y="1131" width="260" height="112" xlink:href="img/3.jpg"/>
<image clip-path="url(#c4_8)" preserveAspectRatio="none" x="52" y="1222" width="50" height="12" xlink:href="img/4.jpg"/>
<path d="M43.3,741.3H303.1v-1.6H43.3Z" class="g6_8"/>
<path d="M303.1,326.8V306.5h-.7v20.3Z" class="g1_8"/>
<path d="M303.1,351.7V326.8h-.7v24.9Z" class="g1_8"/>
<path d="M222.4,372.3V351.7h-.8v20.6Z" class="g1_8"/>
<path d="M303.1,372.3V351.7h-.7v20.6Z" class="g1_8"/>
<path d="M222.4,392.9V372.3h-.8v20.6Z" class="g1_8"/>
<path d="M303.1,392.9V372.3h-.7v20.6Z" class="g1_8"/>
<path d="M222.4,413.5V392.9h-.8v20.6Z" class="g1_8"/>
<path d="M303.1,413.5V392.9h-.7v20.6Z" class="g1_8"/>
<path d="M222.4,434.1V413.5h-.8v20.6Z" class="g1_8"/>
<path d="M303.1,434.1V413.5h-.7v20.6Z" class="g1_8"/>
<path d="M222.4,454.8V434.1h-.8v20.7Z" class="g1_8"/>
<path d="M303.1,454.8V434.1h-.7v20.7Z" class="g1_8"/>
<path d="M222.4,475.4V454.8h-.8v20.6Z" class="g1_8"/>
<path d="M303.1,475.4V454.8h-.7v20.6Z" class="g1_8"/>
<path d="M222.4,496V475.4h-.8V496Z" class="g1_8"/>
<path d="M303.1,496V475.4h-.7V496Z" class="g1_8"/>
<path d="M222.4,516.6V496h-.8v20.6Z" class="g1_8"/>
<path d="M303.1,516.6V496h-.7v20.6Z" class="g1_8"/>
<path d="M78,327.6H222v-1.5H78Z" class="g7_8"/>
<path d="M222,327.6h80.4v-1.5H222Z" class="g7_8"/>
<path d="M61.2,345.4c9.8,0,17.8,-8,17.8,-17.9c0,-9.8,-8,-17.8,-17.8,-17.8c-9.9,0,-17.9,8,-17.9,17.8c0,9.9,8,17.9,17.9,17.9Z" class="g7_8"/>
<path d="M71.6,329.3c0,.7,.2,1.5,.2,2.2c0,2,-1,3.5,-2.7,4.7c-1.3,.8,-2.8,1.2,-4.3,1.2c-2.4,.1,-4.8,.1,-7.2,0c-1.7,0,-3.2,-.4,-4.5,-1.3c-2,-1.4,-2.8,-3.2,-2.5,-5.7c.2,-1.9,.3,-3.9,.4,-5.8c0,-1.8,0,-3.6,-.1,-5.5c0,-2.1,.9,-3.7,2.5,-4.9c1.5,-1.1,3.2,-1.6,5,-1.6c1.9,0,3.8,0,5.7,0c1.6,0,3.2,.5,4.6,1.4c1.9,1.4,2.9,3.2,2.7,5.6c-.1,1.2,0,2.4,0,3.6c-.1,0,.1,4.1,.2,6.1M61.2,313.8v0c-1,0,-1.9,0,-2.9,0c-1.3,0,-2.5,.3,-3.6,1c-1.6,.9,-2.7,2.2,-2.6,4.1c.1,.9,.3,1.7,.6,2.6c.4,1.3,1.1,2.5,2.2,3.5c.2,.2,.2,.6,-.1,.9c-.6,.6,-1.3,1.2,-2.1,1.5c-.6,.1,-.7,.5,-.7,1c-.1,.5,.1,.8,.4,1.2c.8,.8,1.7,1.3,2.7,1.8c1.8,.7,3.7,1,5.6,1c2,0,4.1,-.1,6,-.8c1.4,-.5,2.6,-1.2,3.5,-2.3c0,-.2,.1,-.3,.1,-.5c0,-.3,0,-.7,0,-1l-.2,-.3c-1.1,-.3,-1.9,-.9,-2.6,-1.7c-.3,-.3,-.3,-.6,0,-.9c.4,-.5,.9,-.9,1.2,-1.5c.8,-1.2,1.2,-2.5,1.4,-3.9c.2,-1.2,0,-2.3,-.7,-3.2c-1.2,-1.5,-2.8,-2.3,-4.7,-2.4c-1.1,-.2,-2.3,-.1,-3.5,-.1m-9.4,16.6c-.3,1.6,0,3,1.3,4.2c1.3,1.2,2.8,1.6,4.6,1.6c2.3,.1,4.6,.1,6.9,.1c.8,0,1.6,-.2,2.4,-.4c1.4,-.5,2.5,-1.3,3.2,-2.6c.5,-1,.5,-2,.3,-3h-.1c-1.1,1.4,-2.6,2.2,-4.3,2.7c-2.9,.7,-5.7,.8,-8.6,.3c-1.4,-.3,-2.8,-.7,-3.9,-1.5c-.7,-.4,-1.2,-1,-1.8,-1.4Z" class="g8_8"/>
<path d="M55.8,337.9c-.5,.4,-1,.7,-1.5,1.1c-.5,.4,-1.7,1.4,-2.2,1.8c-.3,.2,-.6,.2,-.8,.1l-.3,-.3c-.1,-.3,0,-.5,.2,-.7c.3,-.2,1.4,-1.1,1.7,-1.3c.4,-.4,.9,-.7,1.3,-1l.4,-.1c.4,.1,.8,.2,1.2,.4Z" class="g8_8"/>
<path d="M66.5,337.9c.5,-.2,.9,-.3,1.3,-.4l.3,.1c.7,.5,2.3,1.7,3,2.3c.1,.1,.3,.2,.3,.4c.1,.2,.1,.5,-.2,.6c-.2,.1,-.5,.1,-.7,0c-1.1,-.8,-2.9,-2.2,-4,-3Z" class="g8_8"/>
<path d="M61.1,324.5c-1.1,0,-2.1,.1,-3.2,0c-2,-.2,-3.5,-1.6,-3.9,-3.5c-.1,-.5,-.2,-1,-.3,-1.5c-.3,-1.9,1,-3.6,3,-3.6c3,0,6,0,9,0c1.8,0,3.1,1.5,2.9,3.3c-.1,1.1,-.2,2.2,-.8,3.2c-.9,1.4,-2.2,2.1,-3.9,2.1c-.9,0,-1.8,0,-2.8,0Z" class="g8_8"/>
<path d="M65.7,327.2c.3,0,.5,0,.8,0c.4,0,.7,.3,.6,.6c-.5,.9,-1,1.7,-1.5,2.6c-.1,.2,-.3,.3,-.6,.3c-.5,0,-1.1,0,-1.6,0c-.5,-.1,-.7,-.4,-.5,-.7c.4,-.8,.9,-1.7,1.4,-2.5c.1,-.2,.3,-.3,.7,-.3c.2,0,.5,0,.7,0Z" class="g8_8"/>
<path d="M58.1,330.7c-.2,0,-.5,0,-.7,0c-.3,0,-.6,-.1,-.7,-.4c-.5,-.8,-.9,-1.6,-1.4,-2.4c-.2,-.4,0,-.7,.6,-.7c.5,0,1,0,1.5,0c.3,0,.5,.1,.6,.3c.5,.8,1,1.7,1.5,2.5c.2,.3,-.1,.6,-.6,.7c-.2,0,-.5,0,-.8,0Z" class="g8_8"/>
<path d="M62.2,335c0,.5,-.5,1,-1,1c-.6,0,-1.1,-.4,-1.1,-1c0,-.5,.5,-1,1,-1.1c.6,0,1.1,.5,1.1,1.1Z" class="g8_8"/>
<path d="M303.1,545.7V525.3h-.7v20.4Z" class="g1_8"/>
<path d="M303.1,570.5V545.7h-.7v24.8Z" class="g1_8"/>
<path d="M222.4,591.1V570.5h-.8v20.6Z" class="g1_8"/>
<path d="M303.1,591.1V570.5h-.7v20.6Z" class="g1_8"/>
<path d="M222.4,611.7V591.1h-.8v20.6Z" class="g1_8"/>
<path d="M303.1,611.7V591.1h-.7v20.6Z" class="g1_8"/>
<path d="M222.4,632.3V611.7h-.8v20.6Z" class="g1_8"/>
<path d="M303.1,632.3V611.7h-.7v20.6Z" class="g1_8"/>
<path d="M222.4,653V632.3h-.8V653Z" class="g1_8"/>
<path d="M303.1,653V632.3h-.7V653Z" class="g1_8"/>
<path d="M222.4,673.6V653h-.8v20.6Z" class="g1_8"/>
<path d="M303.1,673.6V653h-.7v20.6Z" class="g1_8"/>
<path d="M222.4,694.2V673.6h-.8v20.6Z" class="g1_8"/>
<path d="M303.1,694.2V673.6h-.7v20.6Z" class="g1_8"/>
<path d="M222.4,714.8V694.2h-.8v20.6Z" class="g1_8"/>
<path d="M303.1,714.8V694.2h-.7v20.6Z" class="g1_8"/>
<path d="M222.4,735.4V714.8h-.8v20.6Z" class="g1_8"/>
<path d="M303.1,735.4V714.8h-.7v20.6Z" class="g1_8"/>
<path d="M78,546.4H222v-1.5H78Z" class="g7_8"/>
<path d="M222,546.4h80.4v-1.5H222Z" class="g7_8"/>
<path d="M61.2,564.2c9.8,0,17.8,-8,17.8,-17.8c0,-9.9,-8,-17.9,-17.8,-17.9c-9.9,0,-17.9,8,-17.9,17.9c0,9.8,8,17.8,17.9,17.8Z" class="g7_8"/>
<path d="M71.6,548.1c0,.8,.2,1.5,.2,2.2c0,2,-1,3.6,-2.7,4.7c-1.3,.8,-2.8,1.2,-4.3,1.3c-2.4,0,-4.8,0,-7.2,0c-1.7,-.1,-3.2,-.5,-4.5,-1.4c-2,-1.4,-2.8,-3.2,-2.5,-5.6c.2,-2,.3,-3.9,.4,-5.9c0,-1.8,0,-3.6,-.1,-5.4c0,-2.2,.9,-3.8,2.5,-5c1.5,-1.1,3.2,-1.6,5,-1.6c1.9,0,3.8,0,5.7,0c1.6,0,3.2,.5,4.6,1.4c1.9,1.4,2.9,3.2,2.7,5.6c-.1,1.2,0,2.4,0,3.6c-.1,0,.1,4.1,.2,6.1M61.2,532.6v0c-1,0,-1.9,0,-2.9,0c-1.3,0,-2.5,.3,-3.6,1c-1.6,.9,-2.7,2.2,-2.6,4.2c.1,.8,.3,1.7,.6,2.5c.4,1.3,1.1,2.6,2.2,3.5c.2,.2,.2,.6,-.1,.9c-.6,.6,-1.3,1.2,-2.1,1.5c-.6,.2,-.7,.5,-.7,1c-.1,.5,.1,.8,.4,1.2c.8,.8,1.7,1.3,2.7,1.8c1.8,.7,3.7,1,5.6,1c2,0,4.1,-.1,6,-.8c1.4,-.5,2.6,-1.2,3.5,-2.3c0,-.2,.1,-.3,.1,-.5c0,-.3,0,-.7,0,-1l-.2,-.3c-1.1,-.3,-1.9,-.9,-2.6,-1.6c-.3,-.3,-.3,-.7,0,-1c.4,-.4,.9,-.9,1.2,-1.4c.8,-1.3,1.2,-2.6,1.4,-4c.2,-1.2,0,-2.2,-.7,-3.2c-1.2,-1.5,-2.8,-2.3,-4.7,-2.4c-1.1,-.1,-2.3,-.1,-3.5,-.1m-9.4,16.6c-.3,1.6,0,3,1.3,4.2c1.3,1.2,2.8,1.6,4.6,1.7c2.3,0,4.6,0,6.9,0c.8,0,1.6,-.1,2.4,-.4c1.4,-.5,2.5,-1.3,3.2,-2.6c.5,-1,.5,-2,.3,-3h-.1c-1.1,1.5,-2.6,2.2,-4.3,2.7c-2.9,.8,-5.7,.8,-8.6,.3c-1.4,-.2,-2.8,-.7,-3.9,-1.5c-.7,-.4,-1.2,-.9,-1.8,-1.4Z" class="g8_8"/>
<path d="M55.8,556.7c-.5,.4,-1,.7,-1.5,1.1c-.5,.4,-1.7,1.4,-2.2,1.8c-.3,.2,-.6,.2,-.8,.1l-.3,-.3c-.1,-.3,0,-.5,.2,-.6c.3,-.3,1.4,-1.2,1.7,-1.4c.4,-.4,.9,-.7,1.3,-1l.4,-.1c.4,.1,.8,.2,1.2,.4Z" class="g8_8"/>
<path d="M66.5,556.7c.5,-.2,.9,-.3,1.3,-.4l.3,.1c.7,.5,2.3,1.7,3,2.3c.1,.1,.3,.2,.3,.4c.1,.2,.1,.5,-.2,.6c-.2,.1,-.5,.1,-.7,0c-1.1,-.7,-2.9,-2.2,-4,-3Z" class="g8_8"/>
<path d="M61.1,543.3c-1.1,0,-2.1,.1,-3.2,0c-2,-.1,-3.5,-1.6,-3.9,-3.5c-.1,-.5,-.2,-1,-.3,-1.5c-.3,-1.9,1,-3.6,3,-3.6c3,0,6,0,9,0c1.8,0,3.1,1.5,2.9,3.4c-.1,1,-.2,2.1,-.8,3.1c-.9,1.4,-2.2,2.1,-3.9,2.1c-.9,0,-1.8,0,-2.8,0Z" class="g8_8"/>
<path d="M65.7,546c.3,0,.5,0,.8,0c.4,0,.7,.3,.6,.6c-.5,.9,-1,1.7,-1.5,2.6c-.1,.2,-.3,.3,-.6,.3c-.5,0,-1.1,0,-1.6,0c-.5,0,-.7,-.3,-.5,-.7c.4,-.8,.9,-1.6,1.4,-2.5c.1,-.2,.3,-.3,.7,-.3c.2,0,.5,0,.7,0Z" class="g8_8"/>
<path d="M58.1,549.5c-.2,0,-.5,0,-.7,0c-.3,0,-.6,-.1,-.7,-.4c-.5,-.8,-.9,-1.6,-1.4,-2.4c-.2,-.4,0,-.7,.6,-.7c.5,0,1,0,1.5,0c.3,0,.5,.1,.6,.3c.5,.9,1,1.7,1.5,2.5c.2,.3,-.1,.6,-.6,.7c-.2,0,-.5,0,-.8,0Z" class="g8_8"/>
<path d="M62.2,553.8c0,.6,-.5,1,-1,1c-.6,0,-1.1,-.4,-1.1,-1c0,-.5,.5,-1,1,-1c.6,-.1,1.1,.4,1.1,1Z" class="g8_8"/>
<path d="M209.7,303V273.1h-3.1V303Z" class="g1_8"/>
<path d="M43.7,157.3H78.3v40.4H43.7V157.3Z" class="g1_8"/>
<image x="78" y="157" width="226" height="41" xlink:href="shade/1.png"/>
<path d="M78.3,178.4H303.2v-1.5H78.3Z" class="g7_8"/>
<path d="M61.5,196.2c9.9,0,17.9,-8,17.9,-17.9c0,-9.8,-8,-17.8,-17.9,-17.8c-9.8,0,-17.8,8,-17.8,17.8c0,9.9,8,17.9,17.8,17.9Z" class="g7_8"/>
<path d="M72,180.1c0,.7,.2,1.5,.2,2.2c0,2,-1,3.6,-2.7,4.7c-1.3,.8,-2.8,1.2,-4.3,1.2c-2.4,.1,-4.9,.1,-7.3,.1c-1.6,-.1,-3.1,-.5,-4.4,-1.4c-2,-1.4,-2.8,-3.2,-2.5,-5.7c.2,-1.9,.3,-3.9,.3,-5.8c.1,-1.8,0,-3.6,0,-5.5c0,-2.1,.8,-3.7,2.5,-4.9c1.5,-1.1,3.1,-1.6,4.9,-1.6c1.9,0,3.8,0,5.7,0c1.7,0,3.3,.5,4.7,1.4c1.9,1.4,2.8,3.2,2.7,5.6c-.1,1.2,-.1,2.4,-.1,3.6c0,0,.2,4.1,.3,6.1M61.6,164.6v0c-1,0,-1.9,0,-2.9,0c-1.3,0,-2.5,.3,-3.7,1c-1.5,.9,-2.6,2.2,-2.5,4.1c.1,.9,.3,1.7,.6,2.6c.4,1.3,1,2.5,2.1,3.5c.3,.2,.3,.6,0,.9c-.6,.6,-1.3,1.2,-2.1,1.5c-.6,.1,-.7,.5,-.7,1c-.1,.5,.1,.8,.4,1.2c.7,.8,1.6,1.3,2.7,1.8c1.7,.7,3.6,1,5.6,1c2,0,4.1,-.1,6,-.8c1.3,-.5,2.5,-1.2,3.4,-2.3c.1,-.2,.2,-.3,.2,-.5c0,-.3,0,-.7,-.1,-1l-.2,-.3c-1,-.3,-1.8,-.9,-2.5,-1.6c-.3,-.4,-.3,-.7,0,-1c.4,-.5,.9,-.9,1.2,-1.5c.8,-1.2,1.2,-2.5,1.4,-3.9c.2,-1.2,-.1,-2.3,-.8,-3.2c-1.1,-1.5,-2.7,-2.3,-4.6,-2.4c-1.2,-.1,-2.4,-.1,-3.5,-.1m-9.4,16.6c-.3,1.6,0,3,1.3,4.2c1.2,1.2,2.8,1.6,4.5,1.7c2.4,0,4.7,0,7,0c.8,0,1.6,-.2,2.3,-.4c1.4,-.5,2.6,-1.3,3.3,-2.6c.5,-1,.5,-2,.2,-3c-1.1,1.4,-2.6,2.2,-4.3,2.7c-2.9,.8,-5.8,.8,-8.6,.3c-1.4,-.3,-2.8,-.7,-4,-1.5c-.6,-.4,-1.1,-1,-1.7,-1.4Z" class="g8_8"/>
<path d="M56.2,188.7c-.5,.4,-1,.7,-1.5,1.1c-.5,.4,-1.8,1.4,-2.3,1.8c-.2,.2,-.5,.2,-.8,.1l-.3,-.3c0,-.3,.1,-.5,.3,-.7c.3,-.2,1.4,-1.1,1.7,-1.3c.4,-.4,.8,-.7,1.3,-1l.4,-.1c.4,.1,.8,.2,1.2,.4Z" class="g8_8"/>
<path d="M66.9,188.7c.5,-.2,.9,-.3,1.3,-.4l.3,.1c.7,.5,2.3,1.7,3,2.3c.1,.1,.2,.2,.3,.4c.1,.2,0,.5,-.2,.6c-.2,.1,-.5,.1,-.7,0c-1.1,-.8,-2.9,-2.2,-4,-3Z" class="g8_8"/>
<path d="M61.5,175.3c-1.1,0,-2.1,.1,-3.2,0c-2,-.2,-3.5,-1.6,-3.9,-3.5c-.1,-.5,-.2,-1,-.3,-1.5c-.4,-1.9,1,-3.6,2.9,-3.6c3,0,6,0,9,0c1.9,0,3.2,1.5,3,3.3c-.2,1.1,-.3,2.2,-.9,3.2c-.8,1.4,-2.1,2.1,-3.8,2.1c-.9,0,-1.9,0,-2.8,0Z" class="g8_8"/>
<path d="M66.1,178c.2,0,.5,0,.8,0c.4,0,.7,.3,.5,.6c-.4,.9,-.9,1.7,-1.4,2.6c-.2,.2,-.4,.3,-.6,.3c-.5,0,-1.1,0,-1.6,0c-.5,-.1,-.8,-.3,-.6,-.7c.5,-.8,1,-1.7,1.5,-2.5c.1,-.2,.3,-.3,.6,-.3c.3,0,.5,0,.8,0Z" class="g8_8"/>
<path d="M58.5,181.5c-.3,0,-.5,0,-.7,0c-.4,0,-.6,-.1,-.7,-.4c-.5,-.8,-1,-1.6,-1.4,-2.4c-.2,-.4,0,-.7,.6,-.7c.5,0,1,0,1.5,0c.3,0,.5,.1,.6,.3c.5,.9,1,1.7,1.5,2.5c.1,.3,-.1,.6,-.6,.7c-.3,0,-.5,0,-.8,0Z" class="g8_8"/>
<path d="M62.6,185.8c0,.5,-.5,1,-1,1c-.6,0,-1.1,-.4,-1.1,-1c0,-.5,.5,-1,1,-1c.6,-.1,1.1,.4,1.1,1Z" class="g8_8"/>
<path d="M324.8,342.4H866.1v-2.3H324.8v2.3Z" class="g9_8"/>
<image clip-path="url(#c5_8)" preserveAspectRatio="none" x="769" y="318" width="99" height="30" xlink:href="img/5.jpg"/>
<image clip-path="url(#c6_8)" preserveAspectRatio="none" x="779" y="246" width="88" height="72" xlink:href="img/6.jpg"/>
<image clip-path="url(#c7_8)" preserveAspectRatio="none" x="778" y="339" width="88" height="4" xlink:href="img/7.jpg"/>
<path d="M794.6,259c-10.1,0,-18.3,8.2,-18.3,18.3v64.2h79V277.3C855.3,267.2,847.1,259,837,259Z" class="g1_8"/>
<path d="M776.2,342.4h79.1v-7.2H776.2v7.2Z" class="g9_8"/>
<path d="M781.6,317.4H784c.2,0,.3,-.1,.3,-.3c0,-.3,-.1,-.4,-.3,-.4h-2.4c-.2,0,-.3,.1,-.3,.4c0,.2,.1,.3,.3,.3m3.9,0h2.3c.3,0,.4,-.1,.4,-.3c0,-.3,-.1,-.4,-.4,-.4h-2.3c-.2,0,-.4,.1,-.4,.4c0,.2,.2,.3,.4,.3m3.9,0h2.3c.2,0,.4,-.1,.4,-.3c0,-.3,-.2,-.4,-.4,-.4h-2.3c-.2,0,-.4,.1,-.4,.4c0,.2,.2,.3,.4,.3m3.9,0h2.3c.2,0,.4,-.1,.4,-.3c0,-.3,-.2,-.4,-.4,-.4h-2.3c-.2,0,-.4,.1,-.4,.4c0,.2,.2,.3,.4,.3m3.9,0h2.3c.2,0,.4,-.1,.4,-.3c0,-.3,-.2,-.4,-.4,-.4h-2.3c-.2,0,-.4,.1,-.4,.4c0,.2,.2,.3,.4,.3m3.8,0h2.4c.2,0,.4,-.1,.4,-.3c0,-.3,-.2,-.4,-.4,-.4H801c-.2,0,-.3,.1,-.3,.4c0,.2,.1,.3,.3,.3m3.9,0h2.4c.2,0,.3,-.1,.3,-.3c0,-.3,-.1,-.4,-.3,-.4h-2.4c-.2,0,-.3,.1,-.3,.4c0,.2,.1,.3,.3,.3m3.9,0h2.3c.2,0,.4,-.1,.4,-.3c0,-.3,-.2,-.4,-.4,-.4h-2.3c-.2,0,-.4,.1,-.4,.4c0,.2,.2,.3,.4,.3m3.9,0H815c.2,0,.4,-.1,.4,-.3c0,-.3,-.2,-.4,-.4,-.4h-2.3c-.2,0,-.4,.1,-.4,.4c0,.2,.2,.3,.4,.3m3.9,0h2.3c.2,0,.4,-.1,.4,-.3c0,-.3,-.2,-.4,-.4,-.4h-2.3c-.2,0,-.4,.1,-.4,.4c0,.2,.2,.3,.4,.3m3.9,0h2.3c.2,0,.4,-.1,.4,-.3c0,-.3,-.2,-.4,-.4,-.4h-2.3c-.3,0,-.4,.1,-.4,.4c0,.2,.1,.3,.4,.3m3.8,0h2.4c.2,0,.3,-.1,.3,-.3c0,-.3,-.1,-.4,-.3,-.4h-2.4c-.2,0,-.3,.1,-.3,.4c0,.2,.1,.3,.3,.3m3.9,0h2.3c.3,0,.4,-.1,.4,-.3c0,-.3,-.1,-.4,-.4,-.4h-2.3c-.2,0,-.4,.1,-.4,.4c0,.2,.2,.3,.4,.3m3.9,0h2.3c.2,0,.4,-.1,.4,-.3c0,-.3,-.2,-.4,-.4,-.4h-2.3c-.2,0,-.4,.1,-.4,.4c0,.2,.2,.3,.4,.3m3.9,0h2.3c.2,0,.4,-.1,.4,-.3c0,-.3,-.2,-.4,-.4,-.4H836c-.2,0,-.4,.1,-.4,.4c0,.2,.2,.3,.4,.3m3.9,0h2.3c.2,0,.4,-.1,.4,-.3c0,-.3,-.2,-.4,-.4,-.4h-2.3c-.2,0,-.4,.1,-.4,.4c0,.2,.2,.3,.4,.3m3.9,0h2.3c.2,0,.4,-.1,.4,-.3c0,-.3,-.2,-.4,-.4,-.4h-2.3c-.3,0,-.4,.1,-.4,.4c0,.2,.1,.3,.4,.3m3.8,0H850c.2,0,.3,-.1,.3,-.3c0,-.3,-.1,-.4,-.3,-.4h-2.4c-.2,0,-.3,.1,-.3,.4c0,.2,.1,.3,.3,.3Z" class="ga_8"/>
<path d="M829.1,281h2.2c.2,0,.4,-.1,.4,-.3c0,-.3,-.2,-.4,-.4,-.4h-2.2c-.2,0,-.4,.1,-.4,.4c0,.2,.2,.3,.4,.3m3.7,0H835c.3,0,.4,-.1,.4,-.3c0,-.3,-.1,-.4,-.4,-.4h-2.2c-.2,0,-.4,.1,-.4,.4c0,.2,.2,.3,.4,.3m3.7,0h2.3c.2,0,.4,-.1,.4,-.3c0,-.3,-.2,-.4,-.4,-.4h-2.3c-.2,0,-.4,.1,-.4,.4c0,.2,.2,.3,.4,.3m3.7,0h2.3c.2,0,.4,-.1,.4,-.3c0,-.3,-.2,-.4,-.4,-.4h-2.3c-.2,0,-.3,.1,-.3,.4c0,.2,.1,.3,.3,.3m3.8,0h2.2c.2,0,.4,-.1,.4,-.3c0,-.3,-.2,-.4,-.4,-.4H844c-.2,0,-.4,.1,-.4,.4c0,.2,.2,.3,.4,.3m3.7,0h2.2c.2,0,.4,-.1,.4,-.3c0,-.3,-.2,-.4,-.4,-.4h-2.2c-.2,0,-.4,.1,-.4,.4c0,.2,.2,.3,.4,.3Z" class="ga_8"/>
<path d="M781.7,281h2.2c.2,0,.4,-.1,.4,-.3c0,-.3,-.2,-.4,-.4,-.4h-2.2c-.2,0,-.4,.1,-.4,.4c0,.2,.2,.3,.4,.3m3.7,0h2.2c.2,0,.4,-.1,.4,-.3c0,-.3,-.2,-.4,-.4,-.4h-2.2c-.2,0,-.4,.1,-.4,.4c0,.2,.2,.3,.4,.3m3.7,0h2.3c.2,0,.3,-.1,.3,-.3c0,-.3,-.1,-.4,-.3,-.4h-2.3c-.2,0,-.4,.1,-.4,.4c0,.2,.2,.3,.4,.3m3.7,0h2.3c.2,0,.4,-.1,.4,-.3c0,-.3,-.2,-.4,-.4,-.4h-2.3c-.2,0,-.4,.1,-.4,.4c0,.2,.2,.3,.4,.3m3.7,0h2.3c.2,0,.4,-.1,.4,-.3c0,-.3,-.2,-.4,-.4,-.4h-2.3c-.2,0,-.3,.1,-.3,.4c0,.2,.1,.3,.3,.3m3.8,0h2.2c.2,0,.4,-.1,.4,-.3c0,-.3,-.2,-.4,-.4,-.4h-2.2c-.2,0,-.4,.1,-.4,.4c0,.2,.2,.3,.4,.3Z" class="ga_8"/>
<path d="M806.5,283.7v-.8c-1.1,0,-2,.9,-2,2.1v29.3h22.9V285c0,-1.2,-.9,-2.1,-2.1,-2.1H806.5v1.5h18.8c.3,0,.6,.3,.6,.6v27.8H806V285c0,-.3,.2,-.6,.5,-.6Z" class="ga_8"/>
<path d="M808.5,278.6v-.3c-.5,0,-1,.4,-1,1v4.6h16.9v-4.6c0,-.6,-.5,-1,-1,-1H808.5v.7h14.9c.1,0,.3,.1,.3,.3v3.9H808.2v-3.9c0,-.2,.1,-.3,.3,-.3Z" class="ga_8"/>
<path d="M813.4,305.7H813v7.7l.1,.2l.3,.1h5.2l.2,-.1l.1,-.2v-7.7l-.1,-.2l-.2,-.1h-5.2l-.3,.1l-.1,.2h.4v.4h4.8V313h-4.5v-7.3h-.3v.4Z" class="ga_8"/>
<path d="M820.3,305.7h-.4v4.1l.1,.3l.3,.1h4.1l.3,-.1l.1,-.3v-4.1l-.1,-.2l-.3,-.1h-4.1l-.3,.1l-.1,.2h.4v.4h3.8v3.4h-3.4v-3.8h-.4v.4Z" class="ga_8"/>
<path d="M807.5,305.7h-.4v4.1l.1,.3l.3,.1h4.1l.3,-.1l.1,-.3v-4.1l-.1,-.2l-.3,-.1h-4.1l-.3,.1l-.1,.2h.4v.4h3.7v3.4h-3.3v-3.8h-.4v.4Z" class="ga_8"/>
<path d="M815.6,309.7h.8v-1h-.8v1Z" class="ga_8"/>
<path d="M820.3,299.4h-.4v4.1l.1,.3l.3,.1h4.1l.3,-.1l.1,-.3v-4.1l-.1,-.3l-.3,-.1h-4.1l-.3,.1l-.1,.3h.4v.4h3.8v3.3h-3.4v-3.7h-.4v.4Z" class="ga_8"/>
<path d="M813.9,299.4h-.4v4.1l.1,.3l.3,.1H818l.3,-.1l.1,-.3v-4.1l-.1,-.3L818,299h-4.1l-.3,.1l-.1,.3h.4v.4h3.8v3.3h-3.4v-3.7h-.4v.4Z" class="ga_8"/>
<path d="M807.5,299.4h-.4v4.1l.1,.3l.3,.1h4.1l.3,-.1l.1,-.3v-4.1l-.1,-.3l-.3,-.1h-4.1l-.3,.1l-.1,.3h.4v.4h3.7v3.3h-3.3v-3.7h-.4v.4Z" class="ga_8"/>
<path d="M820.3,293.1h-.4v4.1l.1,.3l.3,.1h4.1l.3,-.1l.1,-.3v-4.1l-.1,-.3l-.3,-.1h-4.1l-.3,.1l-.1,.3h.4v.4h3.8v3.3h-3.4v-3.7h-.4v.4Z" class="ga_8"/>
<path d="M813.9,293.1h-.4v4.1l.1,.3l.3,.1H818l.3,-.1l.1,-.3v-4.1l-.1,-.3l-.3,-.1h-4.1l-.3,.1l-.1,.3h.4v.4h3.8v3.3h-3.4v-3.7h-.4v.4Z" class="ga_8"/>
<path d="M807.5,293.1h-.4v4.1l.1,.3l.3,.1h4.1l.3,-.1l.1,-.3v-4.1l-.1,-.3l-.3,-.1h-4.1l-.3,.1l-.1,.3h.4v.4h3.7v3.3h-3.3v-3.7h-.4v.4Z" class="ga_8"/>
<path d="M820.3,286.8h-.4v4.1l.1,.3l.3,.1h4.1l.3,-.1l.1,-.3v-4.1l-.1,-.3l-.3,-.1h-4.1l-.3,.1l-.1,.3h.4v.4h3.8v3.3h-3.4v-3.7h-.4v.4Z" class="ga_8"/>
<path d="M813.9,286.8h-.4v4.1l.1,.3l.3,.1H818l.3,-.1l.1,-.3v-4.1l-.1,-.3l-.3,-.1h-4.1l-.3,.1l-.1,.3h.4v.4h3.8v3.3h-3.4v-3.7h-.4v.4Z" class="ga_8"/>
<path d="M807.5,286.8h-.4v4.1l.1,.3l.3,.1h4.1l.3,-.1l.1,-.3v-4.1l-.1,-.3l-.3,-.1h-4.1l-.3,.1l-.1,.3h.4v.4h3.7v3.3h-3.3v-3.7h-.4v.4Z" class="ga_8"/>
<path d="M811.1,279.7l-.2,-.1l-.5,.7l-.8,.2l-.2,.1l.1,.3l.5,.6v1l.3,.1l.8,-.3l.7,.3l.3,-.1l.1,-.2l-.1,-.8l.5,-.6l.1,-.3l-.2,-.1l-.8,-.2l-.4,-.7l-.2,-.1l-.2,.1l.2,.1l-.2,.1l.4,.8l.2,.1l.5,.1l-.3,.5l-.1,.1l.1,.6l-.6,-.2H811l-.6,.2l.1,-.6l-.1,-.1l-.3,-.5l.5,-.1l.2,-.1l.5,-.8l-.2,-.1l-.2,.1Z" class="ga_8"/>
<path d="M815.9,279.7l-.2,-.1l-.4,.7l-.8,.2l-.2,.1v.3l.6,.6l-.1,.8l.1,.2l.3,.1l.7,-.3l.8,.3l.2,-.1l.1,-.2v-.8l.5,-.6l.1,-.3l-.2,-.1l-.8,-.2l-.5,-.7l-.2,-.1l-.2,.1l.2,.1l-.2,.1l.5,.8l.2,.1l.5,.1l-.4,.5v.7l-.5,-.2h-.2l-.5,.2l.1,-.6l-.1,-.1l-.4,-.5l.6,-.1l.1,-.1l.5,-.8l-.2,-.1l-.2,.1Z" class="ga_8"/>
<path d="M820.8,279.7l-.2,-.1l-.4,.7l-.9,.2l-.1,.1v.3l.6,.6l-.1,.8l.1,.2l.2,.1l.8,-.3l.8,.3l.2,-.1l.1,-.2l-.1,-.8l.6,-.6v-.3l-.1,-.1l-.9,-.2l-.4,-.7l-.2,-.1l-.2,.1l.2,.1l-.2,.1l.5,.8l.1,.1l.6,.1l-.4,.5v.7l-.5,-.2h-.2l-.5,.2v-.7l-.4,-.5l.6,-.1l.1,-.1l.5,-.8l-.2,-.1l-.2,.1Z" class="ga_8"/>
<path d="M803.5,314.6h24.6c.5,0,.9,-.4,.9,-.9c0,-.5,-.4,-.9,-.9,-.9H803.5c-.5,0,-1,.4,-1,.9c0,.5,.5,.9,1,.9Z" class="ga_8"/>
<path d="M815.8,305.7V313h.3v-7.3Z" class="ga_8"/>
<image clip-path="url(#c8_8)" preserveAspectRatio="none" x="681" y="318" width="89" height="30" xlink:href="img/8.jpg"/>
<image clip-path="url(#c9_8)" preserveAspectRatio="none" x="691" y="246" width="88" height="72" xlink:href="img/9.jpg"/>
<image clip-path="url(#ca_8)" preserveAspectRatio="none" x="690" y="339" width="80" height="4" xlink:href="img/10.jpg"/>
<image clip-path="url(#cb_8)" preserveAspectRatio="none" x="769" y="318" width="11" height="30" xlink:href="img/11.jpg"/>
<image clip-path="url(#cc_8)" preserveAspectRatio="none" x="769" y="246" width="10" height="72" xlink:href="img/12.jpg"/>
<image clip-path="url(#cd_8)" preserveAspectRatio="none" x="769" y="339" width="11" height="4" xlink:href="img/13.jpg"/>
<image clip-path="url(#ce_8)" preserveAspectRatio="none" x="776" y="267" width="4" height="69" xlink:href="img/14.jpg"/>
<image clip-path="url(#cf_8)" preserveAspectRatio="none" x="776" y="335" width="4" height="8" xlink:href="img/15.jpg"/>
<path d="M706.7,259c-10.1,0,-18.4,8.2,-18.4,18.3v64.2h79.1V277.3C767.4,267.2,759.2,259,749,259Z" class="g1_8"/>
<path d="M688.3,342.4h79.1v-7.2H688.3v7.2Z" class="g9_8"/>
<path d="M694.5,285.2h2.2c.2,0,.4,-.2,.4,-.4c0,-.2,-.2,-.4,-.4,-.4h-2.2c-.2,0,-.4,.2,-.4,.4c0,.2,.2,.4,.4,.4m3.6,0h2.1c.2,0,.4,-.2,.4,-.4c0,-.2,-.2,-.4,-.4,-.4h-2.1c-.2,0,-.4,.2,-.4,.4c0,.2,.2,.4,.4,.4m3.5,0h2.2c.2,0,.4,-.2,.4,-.4c0,-.2,-.2,-.4,-.4,-.4h-2.2c-.2,0,-.4,.2,-.4,.4c0,.2,.2,.4,.4,.4m3.6,0h2.1c.2,0,.4,-.2,.4,-.4c0,-.2,-.2,-.4,-.4,-.4h-2.1c-.2,0,-.4,.2,-.4,.4c0,.2,.2,.4,.4,.4m3.5,0h2.2c.2,0,.4,-.2,.4,-.4c0,-.2,-.2,-.4,-.4,-.4h-2.2c-.2,0,-.4,.2,-.4,.4c0,.2,.2,.4,.4,.4m3.6,0h2.1c.3,0,.4,-.2,.4,-.4c0,-.2,-.1,-.4,-.4,-.4h-2.1c-.2,0,-.4,.2,-.4,.4c0,.2,.2,.4,.4,.4m3.5,0H718c.2,0,.4,-.2,.4,-.4c0,-.2,-.2,-.4,-.4,-.4h-2.2c-.2,0,-.3,.2,-.3,.4c0,.2,.1,.4,.3,.4Z" class="gb_8"/>
<path d="M694.5,317.4h2.3c.2,0,.4,-.1,.4,-.3c0,-.3,-.2,-.4,-.4,-.4h-2.3c-.2,0,-.4,.1,-.4,.4c0,.2,.2,.3,.4,.3m3.9,0h2.3c.2,0,.4,-.1,.4,-.3c0,-.3,-.2,-.4,-.4,-.4h-2.3c-.2,0,-.4,.1,-.4,.4c0,.2,.2,.3,.4,.3m3.9,0h2.3c.2,0,.4,-.1,.4,-.3c0,-.3,-.2,-.4,-.4,-.4h-2.3c-.2,0,-.4,.1,-.4,.4c0,.2,.2,.3,.4,.3m3.9,0h2.3c.2,0,.4,-.1,.4,-.3c0,-.3,-.2,-.4,-.4,-.4h-2.3c-.3,0,-.4,.1,-.4,.4c0,.2,.1,.3,.4,.3m3.8,0h2.4c.2,0,.3,-.1,.3,-.3c0,-.3,-.1,-.4,-.3,-.4H710c-.2,0,-.3,.1,-.3,.4c0,.2,.1,.3,.3,.3m3.9,0h2.3c.3,0,.4,-.1,.4,-.3c0,-.3,-.1,-.4,-.4,-.4h-2.3c-.2,0,-.4,.1,-.4,.4c0,.2,.2,.3,.4,.3m3.9,0h2.3c.2,0,.4,-.1,.4,-.3c0,-.3,-.2,-.4,-.4,-.4h-2.3c-.2,0,-.4,.1,-.4,.4c0,.2,.2,.3,.4,.3m3.9,0H724c.2,0,.4,-.1,.4,-.3c0,-.3,-.2,-.4,-.4,-.4h-2.3c-.2,0,-.4,.1,-.4,.4c0,.2,.2,.3,.4,.3m3.9,0h2.3c.2,0,.4,-.1,.4,-.3c0,-.3,-.2,-.4,-.4,-.4h-2.3c-.2,0,-.4,.1,-.4,.4c0,.2,.2,.3,.4,.3m3.8,0h2.4c.2,0,.4,-.1,.4,-.3c0,-.3,-.2,-.4,-.4,-.4h-2.4c-.2,0,-.3,.1,-.3,.4c0,.2,.1,.3,.3,.3m3.9,0h2.4c.2,0,.3,-.1,.3,-.3c0,-.3,-.1,-.4,-.3,-.4h-2.4c-.2,0,-.4,.1,-.4,.4c0,.2,.2,.3,.4,.3m3.9,0h2.3c.2,0,.4,-.1,.4,-.3c0,-.3,-.2,-.4,-.4,-.4h-2.3c-.2,0,-.4,.1,-.4,.4c0,.2,.2,.3,.4,.3m3.9,0h2.3c.2,0,.4,-.1,.4,-.3c0,-.3,-.2,-.4,-.4,-.4h-2.3c-.2,0,-.4,.1,-.4,.4c0,.2,.2,.3,.4,.3m3.9,0h2.3c.2,0,.4,-.1,.4,-.3c0,-.3,-.2,-.4,-.4,-.4H745c-.2,0,-.4,.1,-.4,.4c0,.2,.2,.3,.4,.3m3.9,0h2.3c.2,0,.4,-.1,.4,-.3c0,-.3,-.2,-.4,-.4,-.4h-2.3c-.3,0,-.4,.1,-.4,.4c0,.2,.1,.3,.4,.3m3.8,0h2.4c.2,0,.3,-.1,.3,-.3c0,-.3,-.1,-.4,-.3,-.4h-2.4c-.2,0,-.3,.1,-.3,.4c0,.2,.1,.3,.3,.3m3.9,0h2.3c.3,0,.4,-.1,.4,-.3c0,-.3,-.1,-.4,-.4,-.4h-2.3c-.2,0,-.4,.1,-.4,.4c0,.2,.2,.3,.4,.3m3.9,0h2.3c.2,0,.4,-.1,.4,-.3c0,-.3,-.2,-.4,-.4,-.4h-2.3c-.2,0,-.4,.1,-.4,.4c0,.2,.2,.3,.4,.3Z" class="gb_8"/>
<path d="M741.3,285.2h2.3c.2,0,.4,-.2,.4,-.4c0,-.2,-.2,-.4,-.4,-.4h-2.3c-.2,0,-.4,.2,-.4,.4c0,.2,.2,.4,.4,.4m3.8,0h2.3c.3,0,.4,-.2,.4,-.4c0,-.2,-.1,-.4,-.4,-.4h-2.3c-.2,0,-.3,.2,-.3,.4c0,.2,.1,.4,.3,.4m3.9,0h2.3c.2,0,.4,-.2,.4,-.4c0,-.2,-.2,-.4,-.4,-.4H749c-.2,0,-.4,.2,-.4,.4c0,.2,.2,.4,.4,.4m3.8,0h2.3c.2,0,.4,-.2,.4,-.4c0,-.2,-.2,-.4,-.4,-.4h-2.3c-.2,0,-.4,.2,-.4,.4c0,.2,.2,.4,.4,.4m3.9,0H759c.2,0,.4,-.2,.4,-.4c0,-.2,-.2,-.4,-.4,-.4h-2.3c-.2,0,-.4,.2,-.4,.4c0,.2,.2,.4,.4,.4m3.8,0h2.3c.2,0,.4,-.2,.4,-.4c0,-.2,-.2,-.4,-.4,-.4h-2.3c-.2,0,-.4,.2,-.4,.4c0,.2,.2,.4,.4,.4Z" class="gb_8"/>
<path d="M737.9,296.9c0,3.3,-.1,6.7,0,10.1c0,3.1,-1.4,5.4,-4.6,6.7c-3.2,1.4,-6.4,1.2,-9.5,-.6c-.4,-.3,-.8,-.6,-1.1,-.9c-.1,-.3,-.1,-.7,.1,-.9c.1,-.2,.7,-.1,1,-.1c.2,.1,.4,.3,.6,.5c3.1,2.3,7.9,1.9,10.5,-.7c1,-1.1,1.4,-2.4,1.4,-3.9c0,-6.8,0,-13.6,0,-20.4c.1,-2.4,-1,-4.3,-3.5,-5.5c-2.7,-1.2,-5.3,-1,-7.8,.4c-.4,.2,-.7,.4,-1,.7c-.4,.3,-.9,.4,-1.2,0c-.1,-.3,0,-.8,.2,-1.1c1.2,-1,2.6,-1.6,4.1,-1.9c4.8,-1,9.6,1.5,10.6,5.5c.1,.5,.1,1.1,.1,1.6c.1,3.5,.1,7,.1,10.5Z" class="gb_8"/>
<path d="M722.8,289c-1.7,-.3,-2.3,-1.5,-1.6,-3c.5,-1,1.4,-1.5,2.4,-1.8c1.6,-.5,3.2,-.6,4.8,-.1c2,.6,3.1,2.5,2.9,4.5c-.1,2,-1.7,3.7,-3.6,3.9c-2.2,.2,-4,-.9,-4.7,-2.8c-.1,-.2,-.2,-.5,-.2,-.7m7.1,0c-1.4,-.5,-1.6,-.6,-2.3,-1.9c-.1,-.3,-.3,-.5,-.5,-.8c-.6,-1,-1.3,-1,-2.1,-.2c-.9,.8,-1.1,2.2,-.7,3.2c.5,1.2,1.6,1.9,2.8,1.8c1.3,0,2.3,-.7,2.8,-2.1m0,-1.7c.2,-.9,-1.7,-1.6,-1.7,-1.6c.4,1.8,1.7,2.2,1.7,1.6m-6.4,-1.6c-1.9,.8,-.9,2.2,-.8,1.9c0,0,.2,-1.3,.8,-1.9Z" class="gb_8"/>
<path d="M722.8,298.3c-1.7,-.3,-2.3,-1.4,-1.6,-3c.5,-1,1.4,-1.5,2.4,-1.8c1.6,-.5,3.2,-.5,4.8,-.1c2,.6,3.1,2.5,2.9,4.5c-.1,2,-1.7,3.7,-3.6,3.9c-2.2,.2,-4,-.8,-4.7,-2.8c-.1,-.2,-.2,-.4,-.2,-.7m7.1,0c-1.4,-.4,-1.6,-.6,-2.3,-1.8c-.1,-.3,-.3,-.6,-.5,-.9c-.6,-.9,-1.3,-1,-2.1,-.2c-.9,.9,-1.1,2.2,-.7,3.3c.5,1.1,1.6,1.8,2.8,1.7c1.3,0,2.3,-.7,2.8,-2.1m0,-1.6c.2,-1,-1.7,-1.6,-1.7,-1.6c.4,1.7,1.7,2.1,1.7,1.6M723.5,295c-1.9,.8,-.9,2.3,-.8,1.9c0,0,.2,-1.2,.8,-1.9Z" class="gb_8"/>
<path d="M722.8,307.4c-1.7,-.3,-2.3,-1.4,-1.6,-3c.5,-1,1.4,-1.5,2.4,-1.8c1.6,-.5,3.2,-.5,4.8,-.1c2,.7,3.1,2.5,2.9,4.5c-.1,2,-1.7,3.7,-3.6,3.9c-2.2,.3,-4,-.8,-4.7,-2.8c-.1,-.2,-.2,-.4,-.2,-.7m7.1,0c-1.4,-.4,-1.6,-.6,-2.3,-1.8c-.1,-.3,-.3,-.6,-.5,-.9c-.6,-.9,-1.3,-1,-2.1,-.2c-.9,.9,-1.1,2.2,-.7,3.3c.5,1.1,1.6,1.8,2.8,1.7c1.3,0,2.3,-.7,2.8,-2.1m0,-1.6c.2,-1,-1.7,-1.6,-1.7,-1.6c.4,1.7,1.7,2.1,1.7,1.6m-6.4,-1.7c-1.9,.8,-.9,2.3,-.8,1.9c0,0,.2,-1.2,.8,-1.9Z" class="gb_8"/>
<path d="M718.9,301.9l-5.2,-5.5c-.3,-.3,-.7,-.3,-.9,0c-.3,.2,-.3,.6,0,.8l5.2,5.6c.3,.2,.7,.2,.9,0c.3,-.2,.3,-.6,0,-.9Z" class="gb_8"/>
<path d="M718.9,309.5l-5.2,5.6c-.3,.2,-.7,.2,-.9,0c-.3,-.2,-.3,-.6,0,-.9l5.2,-5.5c.3,-.3,.7,-.3,.9,0c.3,.2,.3,.6,0,.8Z" class="gb_8"/>
<path d="M717.7,303.9l-7.2,-1.4c-.4,-.1,-.7,.2,-.7,.5c-.1,.3,.1,.7,.4,.7l7.3,1.4c.3,.1,.6,-.1,.7,-.5c.1,-.3,-.1,-.6,-.5,-.7Z" class="gb_8"/>
<path d="M717.7,307.6l-7.2,1.4c-.4,0,-.7,-.2,-.7,-.5c-.1,-.4,.1,-.7,.4,-.8l7.3,-1.4c.3,0,.6,.2,.7,.5c.1,.4,-.1,.7,-.5,.8Z" class="gb_8"/>
<image clip-path="url(#cg_8)" preserveAspectRatio="none" x="593" y="318" width="89" height="30" xlink:href="img/16.jpg"/>
<image clip-path="url(#ch_8)" preserveAspectRatio="none" x="594" y="246" width="97" height="72" xlink:href="img/17.jpg"/>
<image clip-path="url(#ci_8)" preserveAspectRatio="none" x="603" y="339" width="79" height="4" xlink:href="img/18.jpg"/>
<image clip-path="url(#cj_8)" preserveAspectRatio="none" x="681" y="318" width="11" height="30" xlink:href="img/19.jpg"/>
<image clip-path="url(#ck_8)" preserveAspectRatio="none" x="682" y="246" width="9" height="72" xlink:href="img/20.jpg"/>
<image clip-path="url(#cl_8)" preserveAspectRatio="none" x="681" y="339" width="11" height="4" xlink:href="img/21.jpg"/>
<image clip-path="url(#cm_8)" preserveAspectRatio="none" x="688" y="267" width="4" height="69" xlink:href="img/22.jpg"/>
<image clip-path="url(#cn_8)" preserveAspectRatio="none" x="688" y="335" width="4" height="8" xlink:href="img/23.jpg"/>
<path d="M618.7,259c-10.1,0,-18.3,8.2,-18.3,18.3v64.2h79V277.3c0,-10.1,-8.2,-18.3,-18.3,-18.3Z" class="g1_8"/>
<path d="M600.3,342.4h79.1v-7.2H600.3v7.2Z" class="g9_8"/>
<path d="M606.6,317.4h2.3c.2,0,.4,-.1,.4,-.3c0,-.3,-.2,-.4,-.4,-.4h-2.3c-.3,0,-.4,.1,-.4,.4c0,.2,.1,.3,.4,.3m3.8,0h2.4c.2,0,.3,-.1,.3,-.3c0,-.3,-.1,-.4,-.3,-.4h-2.4c-.2,0,-.3,.1,-.3,.4c0,.2,.1,.3,.3,.3m3.9,0h2.3c.3,0,.4,-.1,.4,-.3c0,-.3,-.1,-.4,-.4,-.4h-2.3c-.2,0,-.4,.1,-.4,.4c0,.2,.2,.3,.4,.3m3.9,0h2.3c.2,0,.4,-.1,.4,-.3c0,-.3,-.2,-.4,-.4,-.4h-2.3c-.2,0,-.4,.1,-.4,.4c0,.2,.2,.3,.4,.3m3.9,0h2.3c.2,0,.4,-.1,.4,-.3c0,-.3,-.2,-.4,-.4,-.4h-2.3c-.2,0,-.4,.1,-.4,.4c0,.2,.2,.3,.4,.3m3.9,0h2.3c.2,0,.4,-.1,.4,-.3c0,-.3,-.2,-.4,-.4,-.4H626c-.2,0,-.4,.1,-.4,.4c0,.2,.2,.3,.4,.3m3.8,0h2.4c.2,0,.4,-.1,.4,-.3c0,-.3,-.2,-.4,-.4,-.4h-2.4c-.2,0,-.3,.1,-.3,.4c0,.2,.1,.3,.3,.3m3.9,0h2.4c.2,0,.3,-.1,.3,-.3c0,-.3,-.1,-.4,-.3,-.4h-2.4c-.2,0,-.4,.1,-.4,.4c0,.2,.2,.3,.4,.3m3.9,0h2.3c.2,0,.4,-.1,.4,-.3c0,-.3,-.2,-.4,-.4,-.4h-2.3c-.2,0,-.4,.1,-.4,.4c0,.2,.2,.3,.4,.3m3.9,0h2.3c.2,0,.4,-.1,.4,-.3c0,-.3,-.2,-.4,-.4,-.4h-2.3c-.2,0,-.4,.1,-.4,.4c0,.2,.2,.3,.4,.3m3.9,0h2.3c.2,0,.4,-.1,.4,-.3c0,-.3,-.2,-.4,-.4,-.4h-2.3c-.2,0,-.4,.1,-.4,.4c0,.2,.2,.3,.4,.3m3.9,0h2.3c.2,0,.4,-.1,.4,-.3c0,-.3,-.2,-.4,-.4,-.4h-2.3c-.3,0,-.4,.1,-.4,.4c0,.2,.1,.3,.4,.3m3.8,0h2.4c.2,0,.3,-.1,.3,-.3c0,-.3,-.1,-.4,-.3,-.4h-2.4c-.2,0,-.3,.1,-.3,.4c0,.2,.1,.3,.3,.3m3.9,0h2.3c.3,0,.4,-.1,.4,-.3c0,-.3,-.1,-.4,-.4,-.4H657c-.2,0,-.4,.1,-.4,.4c0,.2,.2,.3,.4,.3m3.9,0h2.3c.2,0,.4,-.1,.4,-.3c0,-.3,-.2,-.4,-.4,-.4h-2.3c-.2,0,-.4,.1,-.4,.4c0,.2,.2,.3,.4,.3m3.9,0h2.3c.2,0,.4,-.1,.4,-.3c0,-.3,-.2,-.4,-.4,-.4h-2.3c-.2,0,-.4,.1,-.4,.4c0,.2,.2,.3,.4,.3m3.9,0H671c.2,0,.4,-.1,.4,-.3c0,-.3,-.2,-.4,-.4,-.4h-2.3c-.2,0,-.4,.1,-.4,.4c0,.2,.2,.3,.4,.3m3.9,0h2.3c.2,0,.4,-.1,.4,-.3c0,-.3,-.2,-.4,-.4,-.4h-2.3c-.3,0,-.4,.1,-.4,.4c0,.2,.1,.3,.4,.3Z" class="g4_8"/>
<path d="M606.6,285.2h2.3c.3,0,.4,-.2,.4,-.4c0,-.2,-.1,-.4,-.4,-.4h-2.3c-.2,0,-.4,.2,-.4,.4c0,.2,.2,.4,.4,.4m3.9,0h2.3c.2,0,.4,-.2,.4,-.4c0,-.2,-.2,-.4,-.4,-.4h-2.3c-.2,0,-.4,.2,-.4,.4c0,.2,.2,.4,.4,.4m3.9,0h2.3c.2,0,.4,-.2,.4,-.4c0,-.2,-.2,-.4,-.4,-.4h-2.3c-.2,0,-.4,.2,-.4,.4c0,.2,.2,.4,.4,.4m3.9,0h2.3c.2,0,.4,-.2,.4,-.4c0,-.2,-.2,-.4,-.4,-.4h-2.3c-.2,0,-.4,.2,-.4,.4c0,.2,.2,.4,.4,.4m3.8,0h2.4c.2,0,.3,-.2,.3,-.4c0,-.2,-.1,-.4,-.3,-.4h-2.4c-.2,0,-.3,.2,-.3,.4c0,.2,.1,.4,.3,.4m3.9,0h2.3c.2,0,.4,-.2,.4,-.4c0,-.2,-.2,-.4,-.4,-.4H626c-.2,0,-.4,.2,-.4,.4c0,.2,.2,.4,.4,.4m3.9,0h2.3c.2,0,.4,-.2,.4,-.4c0,-.2,-.2,-.4,-.4,-.4h-2.3c-.2,0,-.4,.2,-.4,.4c0,.2,.2,.4,.4,.4m3.9,0h2.3c.2,0,.4,-.2,.4,-.4c0,-.2,-.2,-.4,-.4,-.4h-2.3c-.2,0,-.4,.2,-.4,.4c0,.2,.2,.4,.4,.4m3.9,0H640c.2,0,.4,-.2,.4,-.4c0,-.2,-.2,-.4,-.4,-.4h-2.3c-.3,0,-.4,.2,-.4,.4c0,.2,.1,.4,.4,.4m3.8,0h2.4c.2,0,.3,-.2,.3,-.4c0,-.2,-.1,-.4,-.3,-.4h-2.4c-.2,0,-.4,.2,-.4,.4c0,.2,.2,.4,.4,.4m3.9,0h2.3c.2,0,.4,-.2,.4,-.4c0,-.2,-.2,-.4,-.4,-.4h-2.3c-.2,0,-.4,.2,-.4,.4c0,.2,.2,.4,.4,.4m3.9,0h2.3c.2,0,.4,-.2,.4,-.4c0,-.2,-.2,-.4,-.4,-.4h-2.3c-.2,0,-.4,.2,-.4,.4c0,.2,.2,.4,.4,.4m3.9,0h2.3c.2,0,.4,-.2,.4,-.4c0,-.2,-.2,-.4,-.4,-.4h-2.3c-.2,0,-.4,.2,-.4,.4c0,.2,.2,.4,.4,.4m3.8,0h2.4c.2,0,.3,-.2,.3,-.4c0,-.2,-.1,-.4,-.3,-.4H657c-.2,0,-.3,.2,-.3,.4c0,.2,.1,.4,.3,.4m3.9,0h2.3c.3,0,.4,-.2,.4,-.4c0,-.2,-.1,-.4,-.4,-.4h-2.3c-.2,0,-.4,.2,-.4,.4c0,.2,.2,.4,.4,.4m3.9,0h2.3c.2,0,.4,-.2,.4,-.4c0,-.2,-.2,-.4,-.4,-.4h-2.3c-.2,0,-.4,.2,-.4,.4c0,.2,.2,.4,.4,.4m3.9,0H671c.2,0,.4,-.2,.4,-.4c0,-.2,-.2,-.4,-.4,-.4h-2.3c-.2,0,-.4,.2,-.4,.4c0,.2,.2,.4,.4,.4m3.9,0h2.3c.2,0,.4,-.2,.4,-.4c0,-.2,-.2,-.4,-.4,-.4h-2.3c-.3,0,-.4,.2,-.4,.4c0,.2,.1,.4,.4,.4Z" class="g4_8"/>
<path d="M639.9,302c-1.9,.7,-3.7,1.5,-5.5,2.2c-2.4,.9,-4.8,1.6,-7.4,1.7c-.6,0,-1.2,-.1,-1.8,-.2c-.9,-.3,-1.6,-.8,-2,-1.8c-.9,-1.9,-1.7,-3.8,-2.6,-5.7c-.5,-1.1,-.5,-1.8,.1,-2.4c.7,-.6,2.1,-.8,2.9,-.2c.9,.6,1.8,1.2,2.7,1.9c.2,.1,.4,.2,.5,.4c.7,.6,1.4,.7,2.2,.2c1.8,-.8,3.6,-1.6,5.4,-2.4l.2,-.2c-1.3,-.8,-2.5,-1.5,-3.7,-2.3c-.7,-.4,-1.5,-.8,-2.1,-1.3c-.4,-.3,-.7,-.8,-.8,-1.3c-.1,-.5,.5,-.8,1,-1.1c1.6,-.9,3.3,-.7,5,-.2c2.7,.8,5.4,1.7,8.1,2.4c.4,.2,.9,.1,1.3,0c3,-1.3,5.9,-2.7,8.9,-3.9c2.1,-.8,4.2,-.8,6.3,.1c.6,.3,1.2,.7,1.7,1.2c1,.9,1,1.8,0,2.5c-1.1,.9,-2.3,1.6,-3.5,2.3c-2.3,1.2,-4.6,2.3,-6.9,3.5c-.3,.1,-.7,.5,-.9,.8c-1.9,4.1,-3.8,8.2,-5.6,12.3c-.8,1.7,-2.1,3,-3.9,3.6c-1,.3,-1.8,-.4,-1.6,-1.6c.3,-1.6,.6,-3.2,.9,-4.8c.3,-1.9,.7,-3.8,1.1,-5.7m19.5,-11.5c-.9,-.9,-1.7,-1.2,-2.6,-1.4c-2,-.4,-3.7,.1,-5.5,.8c-7.3,3.3,-14.7,6.6,-22,9.9c-1.2,.6,-2.2,.4,-3.2,-.4c-.9,-.7,-1.9,-1.5,-2.9,-2.1c-.3,-.2,-.7,-.3,-1.1,-.4l-.2,.2c.9,2,1.8,4,2.7,6c.3,.7,.8,1,1.5,1.1c.7,0,1.5,0,2.2,-.1c3.9,-.6,7.3,-2.1,10.9,-3.7c.9,-.4,1.8,-.8,2.9,-1.3c-.8,4.4,-1.6,8.7,-2.5,13.1c1.2,-.5,1.7,-1.4,2.2,-2.3c2,-4.3,4,-8.6,6,-12.9c.1,-.3,.4,-.7,.8,-.8c2,-1,4,-2,6,-3c1.6,-.9,3.1,-1.8,4.8,-2.7M640.5,293c-2.7,-.8,-5.2,-1.6,-7.6,-2.3c-.9,-.2,-1.8,-.4,-2.7,.2c2,1.2,4.1,2.5,6.1,3.7c.1,.1,.4,0,.6,0c1.1,-.5,2.3,-1,3.6,-1.6Z" class="g4_8"/>
<image clip-path="url(#co_8)" preserveAspectRatio="none" x="505" y="318" width="89" height="30" xlink:href="img/24.jpg"/>
<image clip-path="url(#cp_8)" preserveAspectRatio="none" x="506" y="246" width="88" height="72" xlink:href="img/25.jpg"/>
<image clip-path="url(#cq_8)" preserveAspectRatio="none" x="505" y="339" width="89" height="4" xlink:href="img/26.jpg"/>
<image clip-path="url(#cr_8)" preserveAspectRatio="none" x="593" y="318" width="11" height="30" xlink:href="img/27.jpg"/>
<image clip-path="url(#cs_8)" preserveAspectRatio="none" x="594" y="246" width="9" height="72" xlink:href="img/28.jpg"/>
<image clip-path="url(#ct_8)" preserveAspectRatio="none" x="593" y="339" width="11" height="4" xlink:href="img/29.jpg"/>
<image clip-path="url(#cu_8)" preserveAspectRatio="none" x="600" y="267" width="4" height="69" xlink:href="img/30.jpg"/>
<image clip-path="url(#cv_8)" preserveAspectRatio="none" x="600" y="335" width="4" height="8" xlink:href="img/31.jpg"/>
<path d="M530.8,259c-10.2,0,-18.4,8.2,-18.4,18.3v64.2h79.1V277.3c0,-10.1,-8.2,-18.3,-18.4,-18.3Z" class="g1_8"/>
<path d="M512.4,342.4h79v-7.2h-79v7.2Z" class="g9_8"/>
<path d="M518.6,285.2h2.5c.2,0,.4,-.2,.4,-.4c0,-.2,-.2,-.4,-.4,-.4h-2.5c-.2,0,-.4,.2,-.4,.4c0,.2,.2,.4,.4,.4m4.3,0h2.5c.3,0,.4,-.2,.4,-.4c0,-.2,-.1,-.4,-.4,-.4h-2.5c-.2,0,-.4,.2,-.4,.4c0,.2,.2,.4,.4,.4m4.3,0h2.6c.2,0,.3,-.2,.3,-.4c0,-.2,-.1,-.4,-.3,-.4h-2.6c-.2,0,-.4,.2,-.4,.4c0,.2,.2,.4,.4,.4m4.3,0h2.6c.2,0,.4,-.2,.4,-.4c0,-.2,-.2,-.4,-.4,-.4h-2.6c-.2,0,-.3,.2,-.3,.4c0,.2,.1,.4,.3,.4Z" class="g7_8"/>
<path d="M570.1,317.4h2.2c.2,0,.4,-.1,.4,-.3c0,-.3,-.2,-.4,-.4,-.4h-2.2c-.2,0,-.4,.1,-.4,.4c0,.2,.2,.3,.4,.3m3.7,0H576c.2,0,.4,-.1,.4,-.3c0,-.3,-.2,-.4,-.4,-.4h-2.2c-.2,0,-.4,.1,-.4,.4c0,.2,.2,.3,.4,.3m3.6,0h2.2c.2,0,.4,-.1,.4,-.3c0,-.3,-.2,-.4,-.4,-.4h-2.2c-.2,0,-.4,.1,-.4,.4c0,.2,.2,.3,.4,.3m3.7,0h2.2c.2,0,.4,-.1,.4,-.3c0,-.3,-.2,-.4,-.4,-.4h-2.2c-.2,0,-.4,.1,-.4,.4c0,.2,.2,.3,.4,.3m3.6,0h2.2c.2,0,.4,-.1,.4,-.3c0,-.3,-.2,-.4,-.4,-.4h-2.2c-.2,0,-.4,.1,-.4,.4c0,.2,.2,.3,.4,.3Z" class="g7_8"/>
<path d="M569.3,285.2h2.3c.2,0,.3,-.2,.3,-.4c0,-.2,-.1,-.4,-.3,-.4h-2.3c-.2,0,-.4,.2,-.4,.4c0,.2,.2,.4,.4,.4m3.8,0h2.3c.2,0,.4,-.2,.4,-.4c0,-.2,-.2,-.4,-.4,-.4h-2.3c-.2,0,-.4,.2,-.4,.4c0,.2,.2,.4,.4,.4m3.8,0h2.3c.3,0,.4,-.2,.4,-.4c0,-.2,-.1,-.4,-.4,-.4h-2.3c-.2,0,-.3,.2,-.3,.4c0,.2,.1,.4,.3,.4m3.9,0h2.3c.2,0,.4,-.2,.4,-.4c0,-.2,-.2,-.4,-.4,-.4h-2.3c-.2,0,-.4,.2,-.4,.4c0,.2,.2,.4,.4,.4m3.8,0h2.3c.2,0,.4,-.2,.4,-.4c0,-.2,-.2,-.4,-.4,-.4h-2.3c-.2,0,-.4,.2,-.4,.4c0,.2,.2,.4,.4,.4Z" class="g7_8"/>
<path d="M565.4,302.6c.1,.9,.2,1.8,.2,2.8c0,2.6,-1.3,4.5,-3.4,6c-1.7,1.1,-3.6,1.6,-5.6,1.6c-3.1,.1,-6.2,.1,-9.3,0c-2.1,0,-4.1,-.5,-5.8,-1.7c-2.5,-1.8,-3.6,-4.2,-3.2,-7.3c.2,-2.5,.4,-5,.5,-7.6c0,-2.3,-.1,-4.6,-.1,-7c-.1,-2.7,1.1,-4.8,3.2,-6.4c1.9,-1.4,4.1,-2,6.4,-2c2.4,-.1,4.9,-.1,7.4,0c2.1,0,4.1,.6,5.9,1.8c2.5,1.8,3.7,4.1,3.5,7.3c-.1,1.5,0,3.1,0,4.6c-.1,0,.1,5.2,.3,7.9m-13.5,-20v-.1c-1.2,0,-2.4,0,-3.6,0c-1.7,0,-3.3,.4,-4.8,1.3c-2,1.2,-3.3,2.9,-3.2,5.4c0,1.1,.4,2.2,.7,3.2c.6,1.7,1.4,3.3,2.8,4.6c.3,.3,.3,.7,0,1.1c-.8,.8,-1.7,1.6,-2.8,1.9c-.8,.3,-.9,.7,-.9,1.3c-.1,.7,.1,1.1,.5,1.6c1,1,2.2,1.7,3.5,2.3c2.3,1,4.7,1.3,7.2,1.3c2.7,.1,5.3,-.2,7.8,-1.1c1.7,-.6,3.3,-1.5,4.4,-2.9c.1,-.2,.3,-.4,.3,-.6c0,-.4,-.1,-.9,-.1,-1.3l-.3,-.3c-1.3,-.5,-2.4,-1.3,-3.3,-2.2c-.4,-.4,-.4,-.8,0,-1.2c.6,-.6,1.1,-1.2,1.6,-1.9c.9,-1.6,1.5,-3.4,1.8,-5.2c.2,-1.5,-.1,-2.8,-1,-4c-1.5,-2,-3.6,-3,-6,-3.2c-1.5,-.1,-3,0,-4.6,0m-12,21.3c-.5,2.1,0,3.9,1.6,5.4c1.7,1.6,3.7,2.2,5.9,2.2c3,0,6,0,9,0c1,0,2,-.1,3,-.5c1.8,-.6,3.3,-1.6,4.2,-3.4c.6,-1.2,.6,-2.5,.3,-3.8l-.1,.1c-1.4,1.8,-3.3,2.8,-5.5,3.4c-3.7,1,-7.4,1,-11.1,.4c-1.8,-.3,-3.6,-.9,-5.1,-1.9c-.8,-.6,-1.5,-1.3,-2.2,-1.9Z" class="g7_8"/>
<path d="M545,313.6c-.7,.5,-1.3,1,-1.9,1.4c-.7,.5,-2.3,1.8,-2.9,2.4c-.4,.2,-.7,.2,-1.1,.1c-.1,0,-.3,-.2,-.3,-.4c-.1,-.3,0,-.6,.2,-.8c.5,-.4,1.8,-1.5,2.3,-1.8c.5,-.4,1.1,-.9,1.6,-1.3c.2,-.1,.4,-.1,.6,-.1c.5,.1,.9,.3,1.5,.5Z" class="g7_8"/>
<path d="M558.8,313.6c.6,-.2,1.2,-.4,1.7,-.5l.4,.1c.9,.7,2.9,2.3,3.9,3c.1,.1,.3,.3,.4,.5c.1,.3,0,.6,-.3,.8c-.3,.1,-.7,.1,-.9,0c-1.4,-1,-3.8,-2.8,-5.2,-3.9Z" class="g7_8"/>
<path d="M551.9,296.3c-1.4,0,-2.8,.1,-4.2,0c-2.5,-.2,-4.5,-2,-5,-4.5c-.1,-.7,-.2,-1.3,-.4,-1.9c-.5,-2.5,1.3,-4.6,3.8,-4.6c3.9,-.1,7.7,0,11.6,0c2.4,0,4.1,1.9,3.8,4.3c-.2,1.3,-.3,2.7,-1.1,4c-1.1,1.8,-2.7,2.8,-4.9,2.8c-1.2,0,-2.4,0,-3.6,0Z" class="g7_8"/>
<path d="M557.8,299.8c.3,0,.6,0,1,0c.6,0,1,.4,.7,.8c-.6,1.1,-1.2,2.2,-1.9,3.3c-.1,.3,-.4,.4,-.7,.4c-.7,0,-1.4,0,-2.1,0c-.6,0,-.9,-.4,-.7,-.9c.6,-1,1.2,-2.1,1.9,-3.2c.1,-.3,.4,-.4,.8,-.4c.3,0,.7,0,1,0Z" class="g7_8"/>
<path d="M548,304.3c-.3,0,-.6,0,-.9,0c-.5,0,-.8,-.1,-.9,-.4c-.6,-1.1,-1.3,-2.1,-1.9,-3.2c-.2,-.5,.1,-.9,.8,-.9c.6,0,1.3,0,1.9,0c.4,0,.7,.1,.9,.4c.6,1.1,1.2,2.2,1.8,3.2c.3,.5,0,.8,-.6,.9c-.4,0,-.8,0,-1.1,0Z" class="g7_8"/>
<path d="M553.3,309.9c0,.7,-.7,1.3,-1.4,1.3c-.7,0,-1.3,-.6,-1.3,-1.3c0,-.7,.6,-1.4,1.3,-1.4c.7,0,1.3,.6,1.4,1.4Z" class="g7_8"/>
<path d="M518.6,317.4h2.2c.2,0,.4,-.1,.4,-.3c0,-.3,-.2,-.4,-.4,-.4h-2.2c-.2,0,-.4,.1,-.4,.4c0,.2,.2,.3,.4,.3m3.6,0h2.3c.2,0,.3,-.1,.3,-.3c0,-.3,-.1,-.4,-.3,-.4h-2.3c-.2,0,-.3,.1,-.3,.4c0,.2,.1,.3,.3,.3m3.7,0h2.2c.2,0,.4,-.1,.4,-.3c0,-.3,-.2,-.4,-.4,-.4h-2.2c-.2,0,-.4,.1,-.4,.4c0,.2,.2,.3,.4,.3m3.6,0h2.2c.3,0,.4,-.1,.4,-.3c0,-.3,-.1,-.4,-.4,-.4h-2.2c-.2,0,-.3,.1,-.3,.4c0,.2,.1,.3,.3,.3m3.7,0h2.2c.2,0,.4,-.1,.4,-.3c0,-.3,-.2,-.4,-.4,-.4h-2.2c-.2,0,-.4,.1,-.4,.4c0,.2,.2,.3,.4,.3Z" class="g7_8"/>
<path d="M890,1286.2h19.4V0H890V1286.2Z" class="g1_8"/>
</svg>