<?xml version="1.0" encoding="UTF-8" standalone="no"?>
<!DOCTYPE svg PUBLIC "-//W3C//DTD SVG 1.1//EN"
"http://www.w3.org/Graphics/SVG/1.1/DTD/svg11.dtd">
<svg viewBox="0 0 909 1286" version="1.1" xmlns="http://www.w3.org/2000/svg" xmlns:xlink="http://www.w3.org/1999/xlink">
<defs>
<clipPath id="c0_16"><path d="M324.8,103.6V0H484.3V103.6Z"/></clipPath>
<clipPath id="c1_16"><path d="M484.1,103.6V0H643.9V103.6Z"/></clipPath>
<clipPath id="c2_16"><path d="M643.6,103.6V0H803.3V42.8h-3.1V55.4h3.1v48.2Z"/></clipPath>
<clipPath id="c3_16"><path d="M803,155.3V55.4h64.9V42.8H803V0H909.4V155.3Z"/></clipPath>
<clipPath id="c4_16"><path d="M324.8,206.9V103.3H484.3V206.9Z"/></clipPath>
<clipPath id="c5_16"><path d="M866.8,310.4V289.6H803V155H909.4V310.4Z"/></clipPath>
<clipPath id="c6_16"><path d="M324.8,310.4V206.6H484.3v83H417v20.8Z"/></clipPath>
<clipPath id="c7_16"><path d="M484.1,289.6v-83H643.9v83Z"/></clipPath>
<clipPath id="c8_16"><path d="M643.6,289.6v-83H803.3v83Z"/></clipPath>
<clipPath id="c9_16"><path d="M324.8,361.9V310.2H417v51.7Z"/></clipPath>
<clipPath id="ca_16"><path d="M866.8,361.9V310.2h42.6v51.7Z"/></clipPath>
<clipPath id="cb_16"><path d="M800.2,55.4V42.8h67.7V55.4Z"/></clipPath>
<clipPath id="cc_16"><path d="M417,390.8v-5.1h88.1v5.1Zm0,-7.4V361.9h88.1v21.5Z"/></clipPath>
<clipPath id="cd_16"><path d="M417,361.9V289.6h88.1v72.3Z"/></clipPath>
<clipPath id="ce_16"><path d="M417,385.7v-2.3h88.1v2.3Z"/></clipPath>
<clipPath id="cf_16"><path d="M778.7,390.8v-5.1h87.4v-2.3h-11V361.9h11.7v28.9Z"/></clipPath>
<clipPath id="cg_16"><path d="M855.1,361.9V320.6c0,-3.8,-1.2,-7.4,-3.3,-10.4v-2.6h-2.2c-3.3,-3.3,-7.8,-5.3,-12.8,-5.3H794.4c-5,0,-9.5,2,-12.8,5.3h-2.5v3c-.2,.2,-.3,.4,-.4,.6V289.6h88.1v72.3Z"/></clipPath>
<clipPath id="ch_16"><path d="M855.1,385.7v-2.3h11v2.3Z"/></clipPath>
<clipPath id="ci_16"><path d="M779.1,310.6v-3h2.5c-1,.9,-1.8,1.9,-2.5,3Zm72.7,-.4c-.6,-.9,-1.4,-1.8,-2.2,-2.6h2.2v2.6Z"/></clipPath>
<clipPath id="cj_16"><path d="M690.6,390.8v-5.1h78.8v5.1ZM767,383.4V361.9h2.4v21.5Z"/></clipPath>
<clipPath id="ck_16"><path d="M767,361.9V320.6c0,-10.1,-8.2,-18.3,-18.3,-18.3H706.3c-6.7,0,-12.5,3.6,-15.7,9V289.6h78.8v72.3Z"/></clipPath>
<clipPath id="cl_16"><path d="M767,385.7v-2.3h2.4v2.3Z"/></clipPath>
<clipPath id="cm_16"><path d="M769.4,390.8v-5.1h9.3v5.1Zm0,-7.4V361.9h6.7v16.6H776v4.9Z"/></clipPath>
<clipPath id="cn_16"><path d="M769.4,361.9V289.6h9.3v21.6c-1.7,2.8,-2.6,6,-2.6,9.4v41.3Z"/></clipPath>
<clipPath id="co_16"><path d="M769.4,385.7v-2.3H776v2.3Z"/></clipPath>
<clipPath id="cp_16"><path d="M776.1,378.5V320.6c0,-3.4,.9,-6.6,2.6,-9.4v67.3Z"/></clipPath>
<clipPath id="cq_16"><path d="M776,385.7v-7.2h2.7v7.2Z"/></clipPath>
<clipPath id="cr_16"><path d="M514.3,390.8v-5.1h78.9v5.1Zm0,-7.4V361.9h78.9v21.5Z"/></clipPath>
<clipPath id="cs_16"><path d="M514.3,361.9V289.6h78.9v72.3Z"/></clipPath>
<clipPath id="ct_16"><path d="M514.3,385.7v-2.3h78.9v2.3Z"/></clipPath>
<clipPath id="cu_16"><path d="M505.1,390.8v-5.1h9.2v5.1Zm0,-7.4V361.9h9.2v21.5Z"/></clipPath>
<clipPath id="cv_16"><path d="M505.1,361.9V289.6h9.2v72.3Z"/></clipPath>
<clipPath id="cw_16"><path d="M505.1,385.7v-2.3h9.2v2.3Z"/></clipPath>
<clipPath id="cx_16"><path d="M602.5,390.8v-5.1h78.8v5.1Zm0,-7.4V361.9h78.8v21.5Z"/></clipPath>
<clipPath id="cy_16"><path d="M602.5,361.9V289.6h78.8v72.3Z"/></clipPath>
<clipPath id="cz_16"><path d="M602.5,385.7v-2.3h78.8v2.3Z"/></clipPath>
<clipPath id="c10_16"><path d="M681.3,390.8v-5.1h9.3v5.1Zm0,-7.4V361.9H688v16.6h-.1v4.9Z"/></clipPath>
<clipPath id="c11_16"><path d="M681.3,361.9V289.6h9.3v21.7c-1.7,2.7,-2.6,5.9,-2.6,9.3v41.3Z"/></clipPath>
<clipPath id="c12_16"><path d="M681.3,385.7v-2.3h6.6v2.3Z"/></clipPath>
<clipPath id="c13_16"><path d="M688,378.5V320.6c0,-3.4,.9,-6.6,2.6,-9.3v67.2Z"/></clipPath>
<clipPath id="c14_16"><path d="M687.9,385.7v-7.2h2.7v7.2Z"/></clipPath>
<clipPath id="c15_16"><path d="M593.2,390.8v-5.1h9.3v5.1Zm0,-7.4V361.9h9.3v21.5Z"/></clipPath>
<clipPath id="c16_16"><path d="M593.2,361.9V289.6h9.3v72.3Z"/></clipPath>
<clipPath id="c17_16"><path d="M593.2,385.7v-2.3h9.3v2.3Z"/></clipPath>
<style type="text/css"><![CDATA[
.g0_16{
fill: #E7E8E8;
}
.g1_16{
fill: #1B1661;
}
.g2_16{
fill: #DCDDDE;
}
.g3_16{
fill: #FFF;
}
.g4_16{
fill: #ED1A40;
}
.g5_16{
fill: #D1232A;
}
.g6_16{
fill: #FCB61D;
}
.g7_16{
fill: #FEE6BB;
}
.g8_16{
fill: #CFCBCA;
}
.g9_16{
fill: #5AC4C1;
}
.ga_16{
fill: #09B795;
}
.gb_16{
fill: #F37537;
}
.gc_16{
fill: #5180C1;
}
]]></style>
</defs>
<path d="M324.8,1241.8H584.6V1062.3H324.8v179.5Z" class="g0_16"/>
<path d="M324.8,1062.3H584.6v26.3H324.8v-26.3Z" class="g1_16"/>
<path d="M324.8,1113.3H511.6v24.8H324.8v-24.8Zm186.8,0h73v24.8h-73v-24.8Zm-186.8,64.8H511.6v40.1H324.8v-40.1Zm186.8,0h73v40.1h-73v-40.1Z" class="g2_16"/>
<path d="M324.8,1218.9H511.6v-1.5H324.8v1.5Z" class="g3_16"/>
<path d="M511.6,1218.9h73v-1.5h-73v1.5Z" class="g3_16"/>
<path d="M343.9,1072.5l-1,-.6c-.2,-.2,-.6,-.1,-.8,.1l-4.7,7l-2.1,-2.2c-.3,-.2,-.6,-.2,-.8,0l-.9,.8c-.2,.3,-.2,.6,0,.9l3.4,3.3c.1,.2,.4,.3,.7,.3c.3,0,.5,-.2,.7,-.4l5.7,-8.4c.1,-.2,.1,-.6,-.2,-.8Z" class="g3_16"/>
<image clip-path="url(#c0_16)" preserveAspectRatio="none" x="325" y="0" width="159" height="104" xlink:href="img/1.jpg"/>
<image clip-path="url(#c1_16)" preserveAspectRatio="none" x="484" y="0" width="160" height="104" xlink:href="img/2.jpg"/>
<image clip-path="url(#c2_16)" preserveAspectRatio="none" x="644" y="0" width="159" height="104" xlink:href="img/3.jpg"/>
<image clip-path="url(#c3_16)" preserveAspectRatio="none" x="803" y="0" width="107" height="155" xlink:href="img/4.jpg"/>
<image clip-path="url(#c4_16)" preserveAspectRatio="none" x="325" y="103" width="159" height="104" xlink:href="img/5.jpg"/>
<image preserveAspectRatio="none" x="484" y="103" width="160" height="104" xlink:href="img/6.jpg"/>
<image preserveAspectRatio="none" x="644" y="103" width="159" height="104" xlink:href="img/7.jpg"/>
<image clip-path="url(#c5_16)" preserveAspectRatio="none" x="803" y="155" width="107" height="155" xlink:href="img/8.jpg"/>
<image clip-path="url(#c6_16)" preserveAspectRatio="none" x="325" y="207" width="159" height="103" xlink:href="img/9.jpg"/>
<image clip-path="url(#c7_16)" preserveAspectRatio="none" x="484" y="207" width="160" height="103" xlink:href="img/10.jpg"/>
<image clip-path="url(#c8_16)" preserveAspectRatio="none" x="644" y="207" width="159" height="103" xlink:href="img/11.jpg"/>
<image clip-path="url(#c9_16)" preserveAspectRatio="none" x="325" y="310" width="106" height="52" xlink:href="img/12.jpg"/>
<image clip-path="url(#ca_16)" preserveAspectRatio="none" x="856" y="310" width="54" height="52" xlink:href="img/13.jpg"/>
<image clip-path="url(#cb_16)" preserveAspectRatio="none" x="800" y="43" width="68" height="13" xlink:href="img/14.jpg"/>
<path d="M43.3,1241.4H303.1V974.7H43.3v266.7Z" class="g0_16"/>
<path d="M43.3,974.7H303.1v27.6H43.3V974.7Z" class="g1_16"/>
<path d="M43.3,1002.3H303.1v27.4H43.3v-27.4Zm0,200H303.1v39.1H43.3v-39.1Z" class="g2_16"/>
<path d="M43.3,1030.1H303.2v-.8H43.3Z" class="g3_16"/>
<path d="M43.3,1202.7H303.2v-.8H43.3Z" class="g3_16"/>
<path d="M62.4,986.3l-1,-.7c-.2,-.2,-.6,-.1,-.8,.2l-4.7,6.9l-2.1,-2.2c-.2,-.2,-.6,-.2,-.8,0l-.9,.9c-.2,.2,-.2,.5,0,.8l3.4,3.3c.1,.2,.4,.3,.7,.3c.3,0,.5,-.1,.7,-.4l5.7,-8.3c.1,-.3,.1,-.7,-.2,-.8Z" class="g3_16"/>
<path d="M47.6,244c-2.4,0,-4.3,1.9,-4.3,4.3v39.8c0,2.4,1.9,4.3,4.3,4.3H298.8c2.4,0,4.3,-1.9,4.3,-4.3V248.3c0,-2.4,-1.9,-4.3,-4.3,-4.3Z" class="g4_16"/>
<path d="M164.1,274.6h69.7v-.9H164.1Z" class="g3_16"/>
<path d="M607.1,969.4h-.8v272.4H866.1V968.6H606.3v.8h.8v.8H864.6v270.1H607.8V969.4h-.7v.8Z" class="g1_16"/>
<path d="M651.3,974.6H821.1V960.9H651.3Z" class="g3_16"/>
<path d="M607.1,400.7h-.8v27.7H866.1V400H606.3v.7h.8v.8H864.6v25.4H607.8V400.7h-.7v.8Z" class="g5_16"/>
<path d="M627.5,423.2c-5.3,0,-9.7,-4.4,-9.6,-9.7c0,-5.4,4.3,-9.7,9.7,-9.6c5.3,0,9.6,4.3,9.6,9.6c0,5.4,-4.4,9.7,-9.7,9.7m0,-1.4c4.6,0,8.3,-3.7,8.3,-8.3c0,-4.5,-3.7,-8.3,-8.3,-8.3c-4.5,.1,-8.2,3.8,-8.2,8.3c-.1,4.6,3.6,8.3,8.2,8.3Z" class="g5_16"/>
<path d="M614.2,409c.5,.1,.6,0,.6,-.4c0,-1.2,0,-2.4,0,-3.7c0,-.2,-.1,-.4,0,-.5c.2,-.3,.4,-.6,.6,-.6c.3,0,.5,.3,.7,.5c.1,.2,.1,.4,.1,.6c0,1.4,0,2.8,0,4.1h.4c0,-.9,0,-1.8,0,-2.7c0,-.6,-.1,-1.2,-.1,-1.8c0,-.4,.3,-.7,.7,-.7c.4,0,.7,.2,.7,.6c.1,1.9,.2,3.7,.2,5.5c0,.8,-.4,1.5,-1.1,1.9c-.3,.3,-.4,.5,-.4,.9c.1,3.5,.1,6.9,.2,10.4c0,.6,-.2,1.1,-.8,1.3c-.5,.3,-1,.2,-1.4,-.2c-.2,-.3,-.4,-.7,-.4,-1.1c0,-2.3,0,-4.6,.1,-6.9c0,-1.2,0,-2.5,0,-3.7c0,-.2,-.2,-.5,-.4,-.6c-.7,-.6,-1.1,-1.3,-1.1,-2.3c.1,-1.7,.1,-3.3,.2,-5c0,-.5,.2,-.8,.7,-.8c.4,-.1,.7,.3,.7,.8c0,1.3,-.1,2.6,-.2,3.8c0,.2,0,.4,0,.6m2.2,1.5h-1.9c.7,.7,1.3,.7,1.9,0Z" class="g5_16"/>
<path d="M637.9,414.3c0,-2.9,.1,-5.8,0,-8.7c0,-.7,.3,-1.2,.8,-1.6c1,-.5,2.2,0,2.5,1.1c.5,2.2,.8,4.5,.5,6.9c-.1,1.1,-.3,2.2,-.5,3.3c0,.2,0,.4,0,.7c0,2.4,0,4.7,-.1,7.1c0,1,-.6,1.5,-1.6,1.5c-.9,0,-1.5,-.6,-1.6,-1.5c0,-.1,0,-.3,0,-.4c0,-2.8,0,-5.6,0,-8.4m1.4,.4q.6,.1,.7,-.4c.5,-2.3,.5,-4.6,.2,-7c-.1,-.6,-.2,-1.1,-.4,-1.7l-.2,-.4l-.3,.4v.3c0,2.7,0,5.5,0,8.2Z" class="g5_16"/>
<path d="M627.5,406.7v.8c3.3,0,6,2.7,6,6c0,3.3,-2.7,6,-5.9,6h-.1c-1.6,0,-3.1,-.6,-4.2,-1.7c-1.1,-1.1,-1.8,-2.6,-1.8,-4.3c0,-3.3,2.7,-6,6,-6V406c-4.1,0,-7.5,3.4,-7.5,7.5c0,4.2,3.4,7.6,7.5,7.6h.1c4.1,-.1,7.5,-3.5,7.5,-7.6c-.1,-4.1,-3.4,-7.5,-7.6,-7.5Z" class="g5_16"/>
<path d="M43.7,188.4H78.3v40.4H43.7V188.4Z" class="g3_16"/>
<image x="78" y="188" width="226" height="41" xlink:href="shade/1.png"/>
<path d="M78.3,209.5H303.1V208H78.3Z" class="g6_16"/>
<path d="M61.5,227.3c9.9,0,17.9,-8,17.9,-17.8c0,-9.9,-8,-17.9,-17.9,-17.9c-9.8,0,-17.8,8,-17.8,17.9c0,9.8,8,17.8,17.8,17.8Z" class="g6_16"/>
<path d="M72,211.3c0,.7,.2,1.4,.2,2.1c0,2.1,-1,3.6,-2.7,4.7c-1.3,.9,-2.8,1.3,-4.3,1.3c-2.4,0,-4.9,0,-7.3,0c-1.6,0,-3.1,-.4,-4.5,-1.4c-1.9,-1.4,-2.7,-3.2,-2.4,-5.6c.2,-2,.3,-3.9,.3,-5.9c.1,-1.8,0,-3.6,0,-5.4c0,-2.1,.8,-3.8,2.5,-5c1.5,-1.1,3.1,-1.6,4.9,-1.6c1.9,0,3.8,0,5.7,0c1.7,.1,3.3,.5,4.7,1.5c1.9,1.3,2.8,3.2,2.7,5.6c-.1,1.2,-.1,2.4,-.1,3.6c0,0,.2,4,.3,6.1M61.6,195.8v-.1c-1,0,-1.9,0,-2.9,0c-1.3,0,-2.5,.3,-3.7,1c-1.5,1,-2.6,2.3,-2.5,4.2c.1,.8,.3,1.7,.6,2.5c.4,1.3,1,2.6,2.1,3.5c.3,.3,.3,.6,0,.9c-.6,.6,-1.3,1.2,-2.1,1.5c-.6,.2,-.7,.5,-.7,1c-.1,.5,.1,.9,.4,1.2c.7,.8,1.6,1.4,2.7,1.8c1.7,.7,3.6,1,5.6,1c2,.1,4.1,-.1,6,-.8c1.3,-.5,2.5,-1.2,3.4,-2.3c.1,-.1,.2,-.3,.2,-.4c0,-.4,0,-.7,-.1,-1.1l-.2,-.2c-1,-.4,-1.8,-1,-2.5,-1.7c-.3,-.3,-.3,-.6,0,-1c.4,-.4,.9,-.9,1.2,-1.4c.8,-1.2,1.2,-2.6,1.4,-4c.2,-1.2,-.1,-2.2,-.8,-3.2C68.6,196.7,67,196,65.1,195.8c-1.2,-.1,-2.4,0,-3.5,0m-9.4,16.5c-.3,1.6,0,3,1.3,4.2c1.2,1.2,2.8,1.7,4.5,1.7c2.4,0,4.7,0,7,0c.8,0,1.6,-.1,2.3,-.4c1.4,-.5,2.6,-1.2,3.3,-2.6c.4,-1,.5,-2,.2,-3v.1c-1.1,1.4,-2.6,2.2,-4.3,2.6c-2.9,.8,-5.8,.8,-8.6,.3c-1.4,-.2,-2.8,-.7,-4,-1.5c-.6,-.4,-1.1,-.9,-1.7,-1.4Z" class="g7_16"/>
<path d="M56.2,219.8c-.5,.4,-1,.8,-1.5,1.1c-.5,.4,-1.8,1.4,-2.3,1.8c-.2,.2,-.5,.2,-.8,.1l-.3,-.3c0,-.2,.1,-.5,.3,-.6c.3,-.3,1.4,-1.2,1.7,-1.4c.4,-.3,.8,-.7,1.3,-1l.4,-.1c.4,.1,.8,.3,1.2,.4Z" class="g7_16"/>
<path d="M66.9,219.8c.5,-.2,.9,-.3,1.3,-.4l.3,.1c.7,.6,2.3,1.8,3,2.3c.1,.1,.2,.3,.3,.4c.1,.2,0,.5,-.2,.6c-.2,.1,-.5,.1,-.7,0c-1.1,-.7,-2.9,-2.2,-4,-3Z" class="g7_16"/>
<path d="M61.5,206.4c-1.1,0,-2.1,.1,-3.2,0c-2,-.1,-3.5,-1.6,-3.9,-3.5c-.1,-.5,-.2,-1,-.3,-1.5c-.4,-1.9,1,-3.5,2.9,-3.6c3,0,6,0,9,.1c1.9,0,3.2,1.4,3,3.3c-.2,1,-.3,2.1,-.9,3.1c-.8,1.4,-2.1,2.2,-3.8,2.2c-.9,-.1,-1.9,-.1,-2.8,-.1Z" class="g7_16"/>
<path d="M66.1,209.1c.2,0,.5,0,.8,0c.4,0,.7,.3,.5,.7c-.4,.8,-.9,1.7,-1.4,2.5c-.2,.2,-.4,.3,-.6,.3c-.5,0,-1.1,0,-1.6,0c-.5,0,-.8,-.3,-.6,-.7c.5,-.8,1,-1.6,1.5,-2.5c.1,-.2,.3,-.3,.6,-.3c.3,0,.5,0,.8,0Z" class="g7_16"/>
<path d="M58.5,212.6c-.3,0,-.5,0,-.7,0c-.4,0,-.6,-.1,-.7,-.3c-.5,-.9,-1,-1.7,-1.4,-2.5c-.2,-.4,0,-.7,.6,-.7c.5,0,1,0,1.5,0c.3,0,.5,.1,.6,.3c.5,.9,1,1.7,1.5,2.5c.1,.4,-.1,.7,-.6,.7c-.3,0,-.5,0,-.8,0Z" class="g7_16"/>
<path d="M62.6,216.9c0,.6,-.5,1.1,-1,1.1c-.6,0,-1.1,-.5,-1.1,-1.1c0,-.5,.5,-1,1,-1c.6,0,1.1,.4,1.1,1Z" class="g7_16"/>
<path d="M43.3,941.1H303.1v-1.5H43.3Z" class="g8_16"/>
<path d="M205.4,421V399.3h-.8V421Z" class="g3_16"/>
<path d="M205.4,442.7V421h-.8v21.7Z" class="g3_16"/>
<path d="M205.4,464.4V442.7h-.8v21.7Z" class="g3_16"/>
<path d="M205.4,486.1V464.4h-.8v21.7Z" class="g3_16"/>
<path d="M205.4,507.8V486.1h-.8v21.7Z" class="g3_16"/>
<path d="M205.4,529.5V507.8h-.8v21.7Z" class="g3_16"/>
<path d="M205.4,551.2V529.5h-.8v21.7Z" class="g3_16"/>
<path d="M205.4,572.9V551.2h-.8v21.7Z" class="g3_16"/>
<path d="M205.4,594.5V572.9h-.8v21.6Z" class="g3_16"/>
<path d="M205.4,616.2V594.5h-.8v21.7Z" class="g3_16"/>
<path d="M205.4,637.9V616.2h-.8v21.7Z" class="g3_16"/>
<path d="M77.9,375.2H205v-1.5H77.9Z" class="g6_16"/>
<path d="M205,375.2h98.1v-1.5H205Z" class="g6_16"/>
<path d="M61.2,393C71,393,79,385,79,375.1c0,-9.8,-8,-17.8,-17.8,-17.8c-9.9,0,-17.9,8,-17.9,17.8c0,9.9,8,17.9,17.9,17.9Z" class="g6_16"/>
<path d="M71.6,376.9c0,.7,.2,1.4,.2,2.2c0,2,-1,3.5,-2.7,4.6c-1.3,.9,-2.8,1.3,-4.3,1.3c-2.4,.1,-4.8,.1,-7.2,0c-1.7,0,-3.2,-.4,-4.5,-1.3c-2,-1.4,-2.8,-3.3,-2.5,-5.7c.2,-1.9,.3,-3.9,.4,-5.8c0,-1.8,-.1,-3.7,-.1,-5.5c0,-2.1,.9,-3.7,2.5,-4.9c1.5,-1.1,3.2,-1.6,4.9,-1.6c2,0,3.9,-.1,5.8,0c1.6,0,3.2,.5,4.6,1.4c1.9,1.4,2.8,3.2,2.7,5.6c-.1,1.2,0,2.4,0,3.6c-.1,0,.1,4.1,.2,6.1M61.2,361.4v0c-1,0,-1.9,-.1,-2.9,0c-1.3,0,-2.5,.3,-3.6,1c-1.6,.9,-2.7,2.2,-2.6,4.1c.1,.9,.3,1.7,.6,2.5c.4,1.4,1.1,2.6,2.2,3.6c.2,.2,.2,.5,-.1,.8c-.6,.7,-1.3,1.3,-2.1,1.5c-.6,.2,-.7,.5,-.7,1.1c-.1,.4,.1,.8,.4,1.1c.8,.8,1.7,1.4,2.7,1.8c1.8,.8,3.7,1,5.6,1.1c2,0,4.1,-.2,6,-.9c1.4,-.4,2.6,-1.1,3.4,-2.3c.1,-.1,.2,-.2,.2,-.4c0,-.3,0,-.7,0,-1l-.2,-.3c-1.1,-.3,-1.9,-.9,-2.6,-1.7c-.3,-.3,-.3,-.6,0,-.9c.4,-.5,.9,-.9,1.2,-1.5c.8,-1.2,1.2,-2.6,1.4,-4c.2,-1.1,0,-2.2,-.7,-3.1c-1.2,-1.5,-2.8,-2.3,-4.7,-2.5c-1.1,-.1,-2.3,0,-3.5,0m-9.4,16.5c-.3,1.6,0,3.1,1.3,4.2c1.3,1.2,2.8,1.7,4.6,1.7c2.3,0,4.6,0,6.9,0c.8,0,1.6,-.1,2.4,-.3c1.4,-.5,2.5,-1.3,3.2,-2.7c.5,-.9,.5,-1.9,.3,-2.9h-.1c-1.1,1.4,-2.6,2.2,-4.3,2.7c-2.9,.7,-5.7,.7,-8.6,.3c-1.4,-.3,-2.8,-.7,-3.9,-1.5c-.7,-.4,-1.2,-1,-1.8,-1.5Z" class="g7_16"/>
<path d="M55.8,385.4c-.5,.4,-1,.8,-1.5,1.2c-.5,.4,-1.7,1.4,-2.2,1.8c-.3,.2,-.6,.2,-.8,.1l-.3,-.3c-.1,-.3,0,-.5,.2,-.7c.3,-.2,1.4,-1.1,1.7,-1.4c.4,-.3,.9,-.6,1.3,-.9l.4,-.1c.4,.1,.8,.2,1.2,.3Z" class="g7_16"/>
<path d="M66.5,385.4c.5,-.1,.9,-.2,1.3,-.3l.3,.1c.7,.5,2.3,1.7,3,2.3c.1,.1,.3,.2,.3,.4c.1,.2,.1,.5,-.2,.6c-.2,0,-.5,.1,-.7,0c-1.1,-.8,-2.9,-2.2,-4,-3.1Z" class="g7_16"/>
<path d="M61.1,372.1c-1.1,0,-2.1,0,-3.2,0c-2,-.2,-3.5,-1.6,-3.9,-3.6c-.1,-.4,-.2,-.9,-.3,-1.4c-.3,-1.9,1,-3.6,3,-3.6c3,0,6,0,8.9,0c1.9,0,3.2,1.5,3,3.3c-.1,1.1,-.2,2.2,-.8,3.1c-.9,1.4,-2.2,2.2,-3.9,2.2c-.9,0,-1.9,0,-2.8,0Z" class="g7_16"/>
<path d="M65.7,374.8c.3,0,.5,0,.8,0c.4,0,.7,.3,.6,.6c-.5,.9,-1,1.7,-1.5,2.6c-.1,.1,-.3,.2,-.6,.2c-.5,0,-1.1,0,-1.6,0c-.5,0,-.7,-.3,-.6,-.6c.5,-.8,1,-1.7,1.5,-2.5c.1,-.2,.3,-.3,.7,-.3c.2,0,.4,0,.7,0Z" class="g7_16"/>
<path d="M58.1,378.2c-.2,0,-.5,0,-.7,0c-.3,0,-.6,-.1,-.7,-.3c-.5,-.8,-1,-1.6,-1.4,-2.4c-.2,-.4,0,-.7,.6,-.7c.5,0,1,0,1.5,0c.3,0,.5,.1,.6,.3c.5,.8,1,1.7,1.5,2.5c.2,.3,-.1,.6,-.6,.6c-.2,0,-.5,0,-.8,0Z" class="g7_16"/>
<path d="M62.2,382.6c0,.5,-.5,1,-1,1c-.6,0,-1.1,-.5,-1.1,-1c0,-.6,.5,-1.1,1,-1.1c.6,0,1.1,.5,1.1,1.1Z" class="g7_16"/>
<path d="M213.7,352.8V307.6h-3v45.2Z" class="g3_16"/>
<path d="M205.4,714V691.8h-.8V714Z" class="g3_16"/>
<path d="M205.4,736.1V714h-.8v22.1Z" class="g3_16"/>
<path d="M205.4,758.2V736.1h-.8v22.1Z" class="g3_16"/>
<path d="M205.4,780.4V758.2h-.8v22.2Z" class="g3_16"/>
<path d="M205.4,802.5V780.4h-.8v22.1Z" class="g3_16"/>
<path d="M205.4,824.6V802.5h-.8v22.1Z" class="g3_16"/>
<path d="M205.4,846.8V824.6h-.8v22.2Z" class="g3_16"/>
<path d="M205.4,868.9V846.8h-.8v22.1Z" class="g3_16"/>
<path d="M205.4,891V868.9h-.8V891Z" class="g3_16"/>
<path d="M205.4,913.1V891h-.8v22.1Z" class="g3_16"/>
<path d="M205.4,935.3V913.1h-.8v22.2Z" class="g3_16"/>
<path d="M77.9,667.8H205v-1.6H77.9Z" class="g6_16"/>
<path d="M205,667.8h98.1v-1.6H205Z" class="g6_16"/>
<path d="M61.2,685.5c9.8,0,17.8,-8,17.8,-17.8c0,-9.9,-8,-17.9,-17.8,-17.9c-9.9,0,-17.9,8,-17.9,17.9c0,9.8,8,17.8,17.9,17.8Z" class="g6_16"/>
<path d="M71.6,669.5c0,.7,.2,1.4,.2,2.1c0,2.1,-1,3.6,-2.7,4.7c-1.3,.9,-2.8,1.3,-4.3,1.3c-2.4,0,-4.8,0,-7.2,0c-1.7,0,-3.2,-.4,-4.5,-1.4c-2,-1.3,-2.8,-3.2,-2.5,-5.6c.2,-1.9,.3,-3.9,.4,-5.9c0,-1.8,-.1,-3.6,-.1,-5.4c0,-2.1,.9,-3.7,2.5,-5c1.5,-1.1,3.2,-1.5,4.9,-1.6c2,0,3.9,0,5.8,0c1.6,.1,3.2,.5,4.6,1.5c1.9,1.3,2.8,3.2,2.7,5.6c-.1,1.2,0,2.4,0,3.6c-.1,0,.1,4,.2,6.1M61.2,654v-.1c-1,0,-1.9,0,-2.9,0c-1.3,.1,-2.5,.4,-3.6,1c-1.6,1,-2.7,2.3,-2.6,4.2c.1,.8,.3,1.7,.6,2.5c.4,1.4,1.1,2.6,2.2,3.5c.2,.3,.2,.6,-.1,.9c-.6,.6,-1.3,1.3,-2.1,1.5c-.6,.2,-.7,.5,-.7,1c-.1,.5,.1,.9,.4,1.2c.8,.8,1.7,1.4,2.7,1.8c1.8,.8,3.7,1,5.6,1c2,.1,4.1,-.1,6,-.8c1.4,-.5,2.6,-1.2,3.4,-2.3c.1,-.1,.2,-.3,.2,-.4c0,-.4,0,-.7,0,-1.1l-.2,-.2c-1.1,-.4,-1.9,-1,-2.6,-1.7c-.3,-.3,-.3,-.6,0,-.9c.4,-.5,.9,-1,1.2,-1.5c.8,-1.2,1.2,-2.6,1.4,-4c.2,-1.2,0,-2.2,-.7,-3.1c-1.2,-1.6,-2.8,-2.3,-4.7,-2.5c-1.1,-.1,-2.3,0,-3.5,0m-9.4,16.5c-.3,1.6,0,3,1.3,4.2c1.3,1.2,2.8,1.7,4.6,1.7c2.3,0,4.6,0,6.9,0c.8,0,1.6,-.1,2.4,-.4c1.4,-.4,2.5,-1.2,3.2,-2.6c.5,-.9,.5,-1.9,.3,-3l-.1,.1c-1.1,1.4,-2.6,2.2,-4.3,2.6c-2.9,.8,-5.7,.8,-8.6,.3c-1.4,-.2,-2.8,-.6,-3.9,-1.4c-.7,-.5,-1.2,-1,-1.8,-1.5Z" class="g7_16"/>
<path d="M55.8,678c-.5,.4,-1,.8,-1.5,1.1c-.5,.4,-1.7,1.4,-2.2,1.8c-.3,.2,-.6,.2,-.8,.2l-.3,-.4c-.1,-.2,0,-.4,.2,-.6c.3,-.3,1.4,-1.1,1.7,-1.4c.4,-.3,.9,-.7,1.3,-1h.4c.4,.1,.8,.2,1.2,.3Z" class="g7_16"/>
<path d="M66.5,678c.5,-.1,.9,-.3,1.3,-.4l.3,.1c.7,.6,2.3,1.8,3,2.4c.1,.1,.3,.2,.3,.3c.1,.3,.1,.5,-.2,.6c-.2,.1,-.5,.2,-.7,0c-1.1,-.7,-2.9,-2.1,-4,-3Z" class="g7_16"/>
<path d="M61.1,664.6c-1.1,0,-2.1,.1,-3.2,0c-2,-.1,-3.5,-1.5,-3.9,-3.5c-.1,-.5,-.2,-1,-.3,-1.4c-.3,-2,1,-3.6,3,-3.6c3,0,6,0,8.9,0c1.9,0,3.2,1.4,3,3.3c-.1,1.1,-.2,2.2,-.8,3.1c-.9,1.4,-2.2,2.2,-3.9,2.2c-.9,0,-1.9,0,-2.8,0Z" class="g7_16"/>
<path d="M65.7,667.3c.3,0,.5,0,.8,.1c.4,0,.7,.3,.6,.6c-.5,.8,-1,1.7,-1.5,2.5c-.1,.2,-.3,.3,-.6,.3c-.5,0,-1.1,0,-1.6,0c-.5,0,-.7,-.3,-.6,-.6c.5,-.9,1,-1.7,1.5,-2.5c.1,-.3,.3,-.4,.7,-.3c.2,0,.4,0,.7,0Z" class="g7_16"/>
<path d="M58.1,670.8c-.2,0,-.5,0,-.7,0c-.3,0,-.6,-.1,-.7,-.3c-.5,-.8,-1,-1.6,-1.4,-2.5c-.2,-.4,0,-.6,.6,-.6c.5,-.1,1,0,1.5,-.1c.3,0,.5,.2,.6,.4c.5,.8,1,1.6,1.5,2.5c.2,.3,-.1,.6,-.6,.6c-.2,0,-.5,0,-.8,0Z" class="g7_16"/>
<path d="M62.2,675.1c0,.6,-.5,1.1,-1,1.1c-.6,0,-1.1,-.5,-1.1,-1c0,-.6,.5,-1.1,1,-1.1c.6,0,1.1,.5,1.1,1Z" class="g7_16"/>
<path d="M324.8,385.7H866.1v-2.3H324.8v2.3Z" class="g9_16"/>
<image clip-path="url(#cc_16)" preserveAspectRatio="none" x="416" y="361" width="99" height="30" xlink:href="img/15.jpg"/>
<image clip-path="url(#cd_16)" preserveAspectRatio="none" x="417" y="289" width="88" height="73" xlink:href="img/16.jpg"/>
<image clip-path="url(#ce_16)" preserveAspectRatio="none" x="416" y="383" width="90" height="3" xlink:href="img/17.jpg"/>
<path d="M442,302.3c-10.2,0,-18.4,8.2,-18.4,18.3v64.2h79.1V320.6c0,-10.1,-8.3,-18.3,-18.4,-18.3Z" class="g3_16"/>
<path d="M429.8,328.5h2.3c.2,0,.4,-.2,.4,-.4c0,-.2,-.2,-.4,-.4,-.4h-2.3c-.2,0,-.4,.2,-.4,.4c0,.2,.2,.4,.4,.4m3.9,0H436c.2,0,.4,-.2,.4,-.4c0,-.2,-.2,-.4,-.4,-.4h-2.3c-.2,0,-.4,.2,-.4,.4c0,.2,.2,.4,.4,.4m3.9,0h2.3c.2,0,.4,-.2,.4,-.4c0,-.2,-.2,-.4,-.4,-.4h-2.3c-.2,0,-.4,.2,-.4,.4c0,.2,.2,.4,.4,.4m3.8,0h2.4c.2,0,.3,-.2,.3,-.4c0,-.2,-.1,-.4,-.3,-.4h-2.4c-.2,0,-.3,.2,-.3,.4c0,.2,.1,.4,.3,.4m3.9,0h2.3c.3,0,.4,-.2,.4,-.4c0,-.2,-.1,-.4,-.4,-.4h-2.3c-.2,0,-.4,.2,-.4,.4c0,.2,.2,.4,.4,.4m3.9,0h2.3c.2,0,.4,-.2,.4,-.4c0,-.2,-.2,-.4,-.4,-.4h-2.3c-.2,0,-.4,.2,-.4,.4c0,.2,.2,.4,.4,.4m3.9,0h2.3c.2,0,.4,-.2,.4,-.4c0,-.2,-.2,-.4,-.4,-.4h-2.3c-.2,0,-.4,.2,-.4,.4c0,.2,.2,.4,.4,.4m3.9,0h2.3c.2,0,.4,-.2,.4,-.4c0,-.2,-.2,-.4,-.4,-.4H457c-.2,0,-.4,.2,-.4,.4c0,.2,.2,.4,.4,.4m3.9,0h2.3c.2,0,.4,-.2,.4,-.4c0,-.2,-.2,-.4,-.4,-.4h-2.3c-.3,0,-.4,.2,-.4,.4c0,.2,.1,.4,.4,.4m3.8,0h2.4c.2,0,.3,-.2,.3,-.4c0,-.2,-.1,-.4,-.3,-.4h-2.4c-.2,0,-.3,.2,-.3,.4c0,.2,.1,.4,.3,.4m3.9,0h2.3c.3,0,.4,-.2,.4,-.4c0,-.2,-.1,-.4,-.4,-.4h-2.3c-.2,0,-.4,.2,-.4,.4c0,.2,.2,.4,.4,.4m3.9,0h2.3c.2,0,.4,-.2,.4,-.4c0,-.2,-.2,-.4,-.4,-.4h-2.3c-.2,0,-.4,.2,-.4,.4c0,.2,.2,.4,.4,.4m3.9,0h2.3c.2,0,.4,-.2,.4,-.4c0,-.2,-.2,-.4,-.4,-.4h-2.3c-.2,0,-.4,.2,-.4,.4c0,.2,.2,.4,.4,.4m3.9,0h2.3c.2,0,.4,-.2,.4,-.4c0,-.2,-.2,-.4,-.4,-.4h-2.3c-.2,0,-.4,.2,-.4,.4c0,.2,.2,.4,.4,.4m3.8,0h2.4c.2,0,.4,-.2,.4,-.4c0,-.2,-.2,-.4,-.4,-.4h-2.4c-.2,0,-.3,.2,-.3,.4c0,.2,.1,.4,.3,.4m3.9,0h2.4c.2,0,.3,-.2,.3,-.4c0,-.2,-.1,-.4,-.3,-.4H488c-.2,0,-.4,.2,-.4,.4c0,.2,.2,.4,.4,.4m3.9,0h2.3c.2,0,.4,-.2,.4,-.4c0,-.2,-.2,-.4,-.4,-.4h-2.3c-.2,0,-.4,.2,-.4,.4c0,.2,.2,.4,.4,.4m3.9,0h2.3c.2,0,.4,-.2,.4,-.4c0,-.2,-.2,-.4,-.4,-.4h-2.3c-.2,0,-.4,.2,-.4,.4c0,.2,.2,.4,.4,.4Z" class="g4_16"/>
<path d="M429.8,360.7h2.3c.2,0,.4,-.1,.4,-.3c0,-.2,-.2,-.4,-.4,-.4h-2.3c-.2,0,-.4,.2,-.4,.4c0,.2,.2,.3,.4,.3m3.9,0H436c.2,0,.4,-.1,.4,-.3c0,-.2,-.2,-.4,-.4,-.4h-2.3c-.2,0,-.4,.2,-.4,.4c0,.2,.2,.3,.4,.3m3.9,0h2.3c.2,0,.4,-.1,.4,-.3c0,-.2,-.2,-.4,-.4,-.4h-2.3c-.2,0,-.4,.2,-.4,.4c0,.2,.2,.3,.4,.3m3.8,0h2.4c.2,0,.3,-.1,.3,-.3c0,-.2,-.1,-.4,-.3,-.4h-2.4c-.2,0,-.3,.2,-.3,.4c0,.2,.1,.3,.3,.3m3.9,0h2.3c.3,0,.4,-.1,.4,-.3c0,-.2,-.1,-.4,-.4,-.4h-2.3c-.2,0,-.4,.2,-.4,.4c0,.2,.2,.3,.4,.3m3.9,0h2.3c.2,0,.4,-.1,.4,-.3c0,-.2,-.2,-.4,-.4,-.4h-2.3c-.2,0,-.4,.2,-.4,.4c0,.2,.2,.3,.4,.3m3.9,0h2.3c.2,0,.4,-.1,.4,-.3c0,-.2,-.2,-.4,-.4,-.4h-2.3c-.2,0,-.4,.2,-.4,.4c0,.2,.2,.3,.4,.3m3.9,0h2.3c.2,0,.4,-.1,.4,-.3c0,-.2,-.2,-.4,-.4,-.4H457c-.2,0,-.4,.2,-.4,.4c0,.2,.2,.3,.4,.3m3.9,0h2.3c.2,0,.4,-.1,.4,-.3c0,-.2,-.2,-.4,-.4,-.4h-2.3c-.3,0,-.4,.2,-.4,.4c0,.2,.1,.3,.4,.3m3.8,0h2.4c.2,0,.3,-.1,.3,-.3c0,-.2,-.1,-.4,-.3,-.4h-2.4c-.2,0,-.3,.2,-.3,.4c0,.2,.1,.3,.3,.3m3.9,0h2.3c.3,0,.4,-.1,.4,-.3c0,-.2,-.1,-.4,-.4,-.4h-2.3c-.2,0,-.4,.2,-.4,.4c0,.2,.2,.3,.4,.3m3.9,0h2.3c.2,0,.4,-.1,.4,-.3c0,-.2,-.2,-.4,-.4,-.4h-2.3c-.2,0,-.4,.2,-.4,.4c0,.2,.2,.3,.4,.3m3.9,0h2.3c.2,0,.4,-.1,.4,-.3c0,-.2,-.2,-.4,-.4,-.4h-2.3c-.2,0,-.4,.2,-.4,.4c0,.2,.2,.3,.4,.3m3.9,0h2.3c.2,0,.4,-.1,.4,-.3c0,-.2,-.2,-.4,-.4,-.4h-2.3c-.2,0,-.4,.2,-.4,.4c0,.2,.2,.3,.4,.3m3.8,0h2.4c.2,0,.4,-.1,.4,-.3c0,-.2,-.2,-.4,-.4,-.4h-2.4c-.2,0,-.3,.2,-.3,.4c0,.2,.1,.3,.3,.3m3.9,0h2.4c.2,0,.3,-.1,.3,-.3c0,-.2,-.1,-.4,-.3,-.4H488c-.2,0,-.4,.2,-.4,.4c0,.2,.2,.3,.4,.3m3.9,0h2.3c.2,0,.4,-.1,.4,-.3c0,-.2,-.2,-.4,-.4,-.4h-2.3c-.2,0,-.4,.2,-.4,.4c0,.2,.2,.3,.4,.3m3.9,0h2.3c.2,0,.4,-.1,.4,-.3c0,-.2,-.2,-.4,-.4,-.4h-2.3c-.2,0,-.4,.2,-.4,.4c0,.2,.2,.3,.4,.3Z" class="g4_16"/>
<path d="M423.6,385.7h79v-6.8h-79v6.8Z" class="g9_16"/>
<image clip-path="url(#cf_16)" preserveAspectRatio="none" x="769" y="361" width="98" height="30" xlink:href="img/18.jpg"/>
<image clip-path="url(#cg_16)" preserveAspectRatio="none" x="779" y="289" width="88" height="73" xlink:href="img/19.jpg"/>
<image clip-path="url(#ch_16)" preserveAspectRatio="none" x="778" y="383" width="89" height="3" xlink:href="img/20.jpg"/>
<image clip-path="url(#ci_16)" preserveAspectRatio="none" x="779" y="307" width="73" height="4" xlink:href="img/21.jpg"/>
<path d="M794.4,302.3c-10.1,0,-18.3,8.2,-18.3,18.3v64.2h79V320.6c0,-10.1,-8.2,-18.3,-18.3,-18.3Z" class="g3_16"/>
<path d="M776,385.7h79.1v-7.2H776v7.2Z" class="g9_16"/>
<path d="M781.4,360.7h2.4c.2,0,.3,-.1,.3,-.3c0,-.2,-.1,-.4,-.3,-.4h-2.4c-.2,0,-.3,.2,-.3,.4c0,.2,.1,.3,.3,.3m3.9,0h2.3c.3,0,.4,-.1,.4,-.3c0,-.2,-.1,-.4,-.4,-.4h-2.3c-.2,0,-.4,.2,-.4,.4c0,.2,.2,.3,.4,.3m3.9,0h2.3c.2,0,.4,-.1,.4,-.3c0,-.2,-.2,-.4,-.4,-.4h-2.3c-.2,0,-.4,.2,-.4,.4c0,.2,.2,.3,.4,.3m3.9,0h2.3c.2,0,.4,-.1,.4,-.3c0,-.2,-.2,-.4,-.4,-.4h-2.3c-.2,0,-.4,.2,-.4,.4c0,.2,.2,.3,.4,.3m3.9,0h2.3c.2,0,.4,-.1,.4,-.3c0,-.2,-.2,-.4,-.4,-.4H797c-.2,0,-.4,.2,-.4,.4c0,.2,.2,.3,.4,.3m3.8,0h2.4c.2,0,.4,-.1,.4,-.3c0,-.2,-.2,-.4,-.4,-.4h-2.4c-.2,0,-.3,.2,-.3,.4c0,.2,.1,.3,.3,.3m3.9,0h2.4c.2,0,.3,-.1,.3,-.3c0,-.2,-.1,-.4,-.3,-.4h-2.4c-.2,0,-.4,.2,-.4,.4c0,.2,.2,.3,.4,.3m3.9,0h2.3c.2,0,.4,-.1,.4,-.3c0,-.2,-.2,-.4,-.4,-.4h-2.3c-.2,0,-.4,.2,-.4,.4c0,.2,.2,.3,.4,.3m3.9,0h2.3c.2,0,.4,-.1,.4,-.3c0,-.2,-.2,-.4,-.4,-.4h-2.3c-.2,0,-.4,.2,-.4,.4c0,.2,.2,.3,.4,.3m3.9,0h2.3c.2,0,.4,-.1,.4,-.3c0,-.2,-.2,-.4,-.4,-.4h-2.3c-.2,0,-.4,.2,-.4,.4c0,.2,.2,.3,.4,.3m3.9,0h2.3c.2,0,.4,-.1,.4,-.3c0,-.2,-.2,-.4,-.4,-.4h-2.3c-.3,0,-.4,.2,-.4,.4c0,.2,.1,.3,.4,.3m3.8,0h2.4c.2,0,.3,-.1,.3,-.3c0,-.2,-.1,-.4,-.3,-.4h-2.4c-.2,0,-.3,.2,-.3,.4c0,.2,.1,.3,.3,.3m3.9,0h2.3c.3,0,.4,-.1,.4,-.3c0,-.2,-.1,-.4,-.4,-.4H828c-.2,0,-.4,.2,-.4,.4c0,.2,.2,.3,.4,.3m3.9,0h2.3c.2,0,.4,-.1,.4,-.3c0,-.2,-.2,-.4,-.4,-.4h-2.3c-.2,0,-.4,.2,-.4,.4c0,.2,.2,.3,.4,.3m3.9,0h2.3c.2,0,.4,-.1,.4,-.3c0,-.2,-.2,-.4,-.4,-.4h-2.3c-.2,0,-.4,.2,-.4,.4c0,.2,.2,.3,.4,.3m3.9,0H842c.2,0,.4,-.1,.4,-.3c0,-.2,-.2,-.4,-.4,-.4h-2.3c-.2,0,-.4,.2,-.4,.4c0,.2,.2,.3,.4,.3m3.9,0h2.3c.2,0,.4,-.1,.4,-.3c0,-.2,-.2,-.4,-.4,-.4h-2.3c-.3,0,-.4,.2,-.4,.4c0,.2,.1,.3,.4,.3m3.8,0h2.4c.2,0,.3,-.1,.3,-.3c0,-.2,-.1,-.4,-.3,-.4h-2.4c-.2,0,-.3,.2,-.3,.4c0,.2,.1,.3,.3,.3Z" class="ga_16"/>
<path d="M780.8,324.3h2.3c.2,0,.4,-.1,.4,-.3c0,-.2,-.2,-.4,-.4,-.4h-2.3c-.2,0,-.4,.2,-.4,.4c0,.2,.2,.3,.4,.3m3.9,0H787c.2,0,.4,-.1,.4,-.3c0,-.2,-.2,-.4,-.4,-.4h-2.3c-.2,0,-.4,.2,-.4,.4c0,.2,.2,.3,.4,.3m3.9,0h2.3c.2,0,.4,-.1,.4,-.3c0,-.2,-.2,-.4,-.4,-.4h-2.3c-.3,0,-.4,.2,-.4,.4c0,.2,.1,.3,.4,.3m3.8,0h2.4c.2,0,.3,-.1,.3,-.3c0,-.2,-.1,-.4,-.3,-.4h-2.4c-.2,0,-.3,.2,-.3,.4c0,.2,.1,.3,.3,.3m3.9,0h2.3c.2,0,.4,-.1,.4,-.3c0,-.2,-.2,-.4,-.4,-.4h-2.3c-.2,0,-.4,.2,-.4,.4c0,.2,.2,.3,.4,.3m3.9,0h2.3c.2,0,.4,-.1,.4,-.3c0,-.2,-.2,-.4,-.4,-.4h-2.3c-.2,0,-.4,.2,-.4,.4c0,.2,.2,.3,.4,.3m3.9,0h2.3c.2,0,.4,-.1,.4,-.3c0,-.2,-.2,-.4,-.4,-.4h-2.3c-.2,0,-.4,.2,-.4,.4c0,.2,.2,.3,.4,.3m3.9,0h2.3c.2,0,.4,-.1,.4,-.3c0,-.2,-.2,-.4,-.4,-.4H808c-.2,0,-.4,.2,-.4,.4c0,.2,.2,.3,.4,.3m3.8,0h2.4c.2,0,.3,-.1,.3,-.3c0,-.2,-.1,-.4,-.3,-.4h-2.4c-.2,0,-.3,.2,-.3,.4c0,.2,.1,.3,.3,.3m3.9,0H818c.3,0,.4,-.1,.4,-.3c0,-.2,-.1,-.4,-.4,-.4h-2.3c-.2,0,-.4,.2,-.4,.4c0,.2,.2,.3,.4,.3m3.9,0h2.3c.2,0,.4,-.1,.4,-.3c0,-.2,-.2,-.4,-.4,-.4h-2.3c-.2,0,-.4,.2,-.4,.4c0,.2,.2,.3,.4,.3m3.9,0h2.3c.2,0,.4,-.1,.4,-.3c0,-.2,-.2,-.4,-.4,-.4h-2.3c-.2,0,-.4,.2,-.4,.4c0,.2,.2,.3,.4,.3m3.9,0h2.3c.2,0,.4,-.1,.4,-.3c0,-.2,-.2,-.4,-.4,-.4h-2.3c-.2,0,-.4,.2,-.4,.4c0,.2,.2,.3,.4,.3m3.9,0h2.3c.2,0,.4,-.1,.4,-.3c0,-.2,-.2,-.4,-.4,-.4h-2.3c-.3,0,-.4,.2,-.4,.4c0,.2,.1,.3,.4,.3m3.8,0h2.4c.2,0,.3,-.1,.3,-.3c0,-.2,-.1,-.4,-.3,-.4h-2.4c-.2,0,-.3,.2,-.3,.4c0,.2,.1,.3,.3,.3m3.9,0h2.3c.3,0,.4,-.1,.4,-.3c0,-.2,-.1,-.4,-.4,-.4H839c-.2,0,-.4,.2,-.4,.4c0,.2,.2,.3,.4,.3m3.9,0h2.3c.2,0,.4,-.1,.4,-.3c0,-.2,-.2,-.4,-.4,-.4h-2.3c-.2,0,-.4,.2,-.4,.4c0,.2,.2,.3,.4,.3m3.9,0h2.3c.2,0,.4,-.1,.4,-.3c0,-.2,-.2,-.4,-.4,-.4h-2.3c-.2,0,-.4,.2,-.4,.4c0,.2,.2,.3,.4,.3Z" class="ga_16"/>
<path d="M829.5,341.1v.7h4.6c1.1,0,2,-.9,2,-2v-.4c0,-1.1,-.9,-2,-2,-2h-4.6c-.5,0,-1,.2,-1.4,.5c-.1,.1,-.2,.3,-.2,.5v.3c0,.2,-.1,.3,-.2,.4c-.2,.2,-.3,.4,-.3,.6v.1c0,1.1,1,2,2.1,2v-1.3c-.4,0,-.7,-.3,-.7,-.7v-.1h-.7l.5,.5c.4,-.4,.7,-.9,.7,-1.5v-.3h-.7l.4,.5c.2,-.1,.3,-.2,.5,-.2h4.6c.3,0,.6,.3,.6,.7v.4c0,.4,-.3,.7,-.6,.7h-4.6Z" class="ga_16"/>
<path d="M828.6,331.8l-.5,.5c.4,.4,.9,.6,1.4,.6h4.6c1.1,0,2,-1,2,-2.1v-.4c0,-1.1,-.9,-2,-2,-2h-4.6c-1.1,0,-2.1,.9,-2.1,2v.2c0,.2,.1,.4,.3,.5c.1,.1,.2,.3,.2,.5v.2c0,.2,.1,.4,.2,.5l.5,-.5h.7v-.2c0,-.6,-.3,-1.2,-.7,-1.5l-.5,.5h.7v-.2c0,-.3,.3,-.6,.7,-.6h4.6c.3,0,.6,.3,.6,.6v.4c0,.4,-.3,.7,-.6,.7h-4.6c-.2,0,-.3,-.1,-.5,-.2l-.4,.5h.7Z" class="ga_16"/>
<path d="M835.1,340.6v.7H837c1,0,1.8,-.8,1.8,-1.8v-8.7c0,-1,-.8,-1.9,-1.8,-1.9h-1.8c-.3,0,-.5,.2,-.7,.4c-.1,.3,-.1,.5,.1,.7c.1,.2,.1,.3,.1,.4v.4c0,.4,-.3,.7,-.6,.7h-4.6c-.2,0,-.3,-.1,-.5,-.2c-.2,-.2,-.4,-.2,-.7,-.1c-.2,.1,-.4,.3,-.4,.6v6.6c0,.3,.2,.5,.4,.6c.3,.1,.5,.1,.7,-.1c.2,-.1,.3,-.2,.5,-.2h4.6c.3,0,.6,.3,.6,.7v.4c0,.1,0,.3,-.1,.4c-.2,.2,-.2,.5,-.1,.7c.1,.3,.3,.4,.6,.4v-.7l.5,.5c.3,-.4,.5,-.8,.5,-1.3v-.4c0,-1.1,-.9,-2,-2,-2h-4.6c-.5,0,-1,.2,-1.4,.5l.5,.5h.7v-6.6h-.7l-.5,.5c.4,.4,.9,.6,1.4,.6h4.6c1.1,0,2,-1,2,-2.1v-.4c0,-.4,-.2,-.8,-.4,-1.2l-.5,.4v.7H837c.2,0,.4,.2,.4,.5v8.7c0,.3,-.2,.4,-.4,.4h-1.9v.7l.5,.5Z" class="ga_16"/>
<path d="M828.6,331.6h.7c0,-1.1,-.9,-2.1,-2.1,-2.1h-.6c-1.2,0,-2.1,1,-2.1,2.1v7.1c0,1.1,.9,2,2.1,2h.6c1.2,0,2.1,-.9,2.1,-2v-7.1h-1.4v7.1c0,.3,-.3,.6,-.7,.6h-.6c-.4,0,-.7,-.3,-.7,-.6v-7.1c0,-.4,.3,-.7,.7,-.7h.6c.4,0,.7,.3,.7,.7Z" class="ga_16"/>
<path d="M829.5,353.9v.7h4.6c1.1,0,2,-.9,2,-2v-.4c0,-1.1,-.9,-2.1,-2,-2.1h-4.6c-.5,0,-1,.2,-1.4,.6c-.1,.1,-.2,.3,-.2,.5v.2c0,.2,-.1,.4,-.2,.5c-.2,.2,-.3,.3,-.3,.5v.2c0,1.1,1,2,2.1,2v-1.4c-.4,0,-.7,-.3,-.7,-.6v-.2h-.7l.5,.5c.4,-.3,.7,-.9,.7,-1.5v-.2h-.7l.4,.5c.2,-.1,.3,-.2,.5,-.2h4.6c.3,0,.6,.3,.6,.7v.4c0,.3,-.3,.6,-.6,.6h-4.6Z" class="ga_16"/>
<path d="M828.6,344.6l-.5,.5c.4,.3,.9,.5,1.4,.5h4.6c1.1,0,2,-.9,2,-2v-.4c0,-1.1,-.9,-2,-2,-2h-4.6c-1.1,0,-2.1,.9,-2.1,2v.2c0,.2,.1,.3,.3,.5c.1,.1,.2,.3,.2,.5v.2c0,.2,.1,.4,.2,.5l.5,-.5h.7v-.2c0,-.6,-.3,-1.2,-.7,-1.5l-.5,.5h.7v-.2c0,-.4,.3,-.7,.7,-.7h4.6c.3,0,.6,.3,.6,.7v.4c0,.4,-.3,.7,-.6,.7h-4.6c-.2,0,-.3,-.1,-.5,-.2l-.4,.5h.7Z" class="ga_16"/>
<path d="M835.1,353.4v.7H837c1,0,1.8,-.8,1.8,-1.8v-8.8c0,-1,-.8,-1.8,-1.8,-1.8h-1.8c-.3,0,-.5,.2,-.7,.4c-.1,.2,-.1,.5,.1,.7c.1,.1,.1,.3,.1,.4v.4c0,.4,-.3,.7,-.6,.7h-4.6c-.2,0,-.3,-.1,-.5,-.2c-.2,-.2,-.4,-.2,-.7,-.1c-.2,.1,-.4,.3,-.4,.6v6.6c0,.3,.2,.5,.4,.6c.3,.1,.5,.1,.7,-.1c.2,-.1,.3,-.2,.5,-.2h4.6c.3,0,.6,.3,.6,.7v.4c0,.1,0,.3,-.1,.4c-.2,.2,-.2,.5,-.1,.7c.1,.3,.3,.4,.6,.4v-.7l.5,.4c.3,-.3,.5,-.7,.5,-1.2v-.4c0,-1.1,-.9,-2.1,-2,-2.1h-4.6c-.5,0,-1,.2,-1.4,.6l.5,.5h.7v-6.6h-.7l-.5,.5c.4,.3,.9,.5,1.4,.5h4.6c1.1,0,2,-.9,2,-2v-.4c0,-.4,-.2,-.9,-.4,-1.2l-.5,.4v.7H837c.2,0,.4,.2,.4,.4v8.8c0,.2,-.2,.4,-.4,.4h-1.9v.7l.5,.4Z" class="ga_16"/>
<path d="M828.6,344.4h.7c0,-1.2,-.9,-2.1,-2.1,-2.1h-.6c-1.2,0,-2.1,.9,-2.1,2.1v7c0,1.2,.9,2.1,2.1,2.1h.6c1.2,0,2.1,-.9,2.1,-2.1v-7h-1.4v7c0,.4,-.3,.7,-.7,.7h-.6c-.4,0,-.7,-.3,-.7,-.7v-7c0,-.4,.3,-.7,.7,-.7h.6c.4,0,.7,.3,.7,.7Z" class="ga_16"/>
<path d="M814.2,340.3h3.2c.5,0,.9,-.2,.9,-.6v-.1c0,-.3,-.4,-.6,-.9,-.6h-3.2c-.2,0,-.5,.1,-.6,.2v.1c0,.1,-.1,.3,-.3,.4c0,.4,.4,.6,.9,.6Z" class="ga_16"/>
<path d="M813.7,330.5c.2,.1,.4,.1,.7,.1h3.3c.5,0,.9,-.2,.9,-.6v-.1c0,-.4,-.4,-.7,-.9,-.7h-3.3c-.6,0,-1,.3,-1,.7c.2,.1,.3,.3,.3,.5Z" class="ga_16"/>
<path d="M819.5,340.3h1.8c.6,0,1.1,-.5,1.1,-1.1v-8.7c0,-.7,-.5,-1.2,-1.1,-1.2h-1.7c.1,.3,.2,.5,.2,.8v.4c0,.8,-.6,1.4,-1.3,1.4h-4.3c-.4,0,-.7,-.2,-.9,-.4v6.6c.2,-.2,.5,-.4,.9,-.4h4.3c.7,0,1.3,.6,1.3,1.4v.4c0,.3,-.1,.6,-.3,.8Z" class="ga_16"/>
<path d="M812,332c0,-.6,-.5,-1,-1.1,-1c-.6,0,-1.1,.4,-1.1,1v5.6c0,.6,.5,1.1,1.1,1.1c.6,0,1.1,-.5,1.1,-1.1Z" class="ga_16"/>
<path d="M813.8,353.9v.7h4.5c1.1,0,2.1,-.9,2.1,-2v-.4c0,-1.1,-1,-2.1,-2.1,-2.1h-4.5c-.6,0,-1.1,.2,-1.4,.6c-.2,.1,-.2,.3,-.2,.5v.2c0,.2,-.1,.4,-.3,.5c-.1,.2,-.2,.3,-.2,.5v.2c0,1.1,.9,2,2.1,2v-1.4c-.4,0,-.7,-.3,-.7,-.6v-.2h-.7l.5,.5c.4,-.3,.6,-.9,.6,-1.5v-.2h-.7l.5,.5c.1,-.1,.3,-.2,.5,-.2h4.5c.4,0,.7,.3,.7,.7v.4c0,.3,-.3,.6,-.7,.6h-4.5Z" class="ga_16"/>
<path d="M812.8,344.6l-.4,.5c.3,.3,.8,.5,1.4,.5h4.5c1.1,0,2.1,-.9,2.1,-2v-.4c0,-1.1,-1,-2,-2.1,-2h-4.5c-1.2,0,-2.1,.9,-2.1,2v.2c0,.2,.1,.3,.2,.5c.2,.1,.3,.3,.3,.5v.2c0,.2,0,.4,.2,.5l.4,-.5h.7v-.2c0,-.6,-.2,-1.2,-.6,-1.5l-.5,.5h.7v-.2c0,-.4,.3,-.7,.7,-.7h4.5c.4,0,.7,.3,.7,.7v.4c0,.4,-.3,.7,-.7,.7h-4.5c-.2,0,-.4,-.1,-.5,-.2l-.5,.5h.7Z" class="ga_16"/>
<path d="M819.4,353.4v.7h1.9c1,0,1.8,-.8,1.8,-1.8v-8.8c0,-1,-.8,-1.8,-1.8,-1.8h-1.9c-.2,0,-.5,.2,-.6,.4c-.1,.2,-.1,.5,.1,.7c0,.1,.1,.3,.1,.4v.4c0,.4,-.3,.7,-.7,.7h-4.5c-.2,0,-.4,-.1,-.5,-.2c-.2,-.2,-.5,-.2,-.7,-.1c-.3,.1,-.4,.3,-.4,.6v6.6c0,.3,.1,.5,.4,.6c.2,.1,.5,.1,.7,-.1c.1,-.1,.3,-.2,.5,-.2h4.5c.4,0,.7,.3,.7,.7v.4c0,.1,-.1,.3,-.2,.4c-.1,.2,-.2,.5,-.1,.7c.2,.3,.4,.4,.7,.4v-.7l.5,.4c.3,-.3,.5,-.7,.5,-1.2v-.4c0,-1.1,-1,-2.1,-2.1,-2.1h-4.5c-.6,0,-1.1,.2,-1.4,.6l.4,.5h.7v-6.6h-.7l-.4,.5c.3,.3,.8,.5,1.4,.5h4.5c1.1,0,2.1,-.9,2.1,-2v-.4c0,-.4,-.2,-.9,-.4,-1.2l-.6,.4v.7h1.9c.2,0,.4,.2,.4,.4v8.8c0,.2,-.2,.4,-.4,.4h-1.9v.7l.5,.4Z" class="ga_16"/>
<path d="M812.8,344.4h.7c0,-1.2,-.9,-2.1,-2,-2.1h-.7c-1.1,0,-2,.9,-2,2.1v7c0,1.2,.9,2.1,2,2.1h.7c1.1,0,2,-.9,2,-2.1v-7h-1.3v7c0,.4,-.3,.7,-.7,.7h-.7c-.4,0,-.7,-.3,-.7,-.7v-7c0,-.4,.3,-.7,.7,-.7h.7c.4,0,.7,.3,.7,.7Z" class="ga_16"/>
<path d="M798,341.1v.7h4.6c1.1,0,2,-.9,2,-2v-.4c0,-1.1,-.9,-2,-2,-2H798c-.5,0,-1,.2,-1.4,.5c-.1,.1,-.2,.3,-.2,.5v.3c0,.2,-.1,.3,-.2,.4c-.1,.2,-.2,.4,-.2,.6v.1c0,1.1,.9,2,2,2v-1.3c-.4,0,-.7,-.3,-.7,-.7v-.1h-.6l.4,.5c.4,-.4,.7,-.9,.7,-1.5v-.3h-.7l.5,.5c.1,-.1,.2,-.2,.4,-.2h4.6c.3,0,.6,.3,.6,.7v.4c0,.4,-.2,.7,-.6,.7H798Z" class="ga_16"/>
<path d="M797.1,331.8l-.5,.5c.4,.4,.9,.6,1.4,.6h4.6c1.1,0,2,-1,2,-2.1v-.4c0,-1.1,-.9,-2,-2,-2H798c-1.1,0,-2,.9,-2,2v.2c0,.2,.1,.4,.2,.5c.1,.1,.2,.3,.2,.5v.2c0,.2,.1,.4,.2,.5l.5,-.5h.7v-.2c0,-.6,-.3,-1.2,-.7,-1.5l-.4,.5h.6v-.2c0,-.3,.3,-.6,.7,-.6h4.6c.3,0,.6,.3,.6,.6v.4c0,.4,-.3,.7,-.6,.7H798c-.2,0,-.3,-.1,-.4,-.2l-.5,.5h.7Z" class="ga_16"/>
<path d="M803.6,340.6v.7h1.9c1,0,1.8,-.8,1.8,-1.8v-8.7c0,-1,-.8,-1.9,-1.8,-1.9h-1.8c-.3,0,-.5,.2,-.6,.4c-.2,.3,-.1,.5,0,.7c.1,.2,.1,.3,.1,.4v.4c0,.4,-.2,.7,-.6,.7H798c-.2,0,-.3,-.1,-.4,-.2c-.2,-.2,-.5,-.2,-.8,-.1c-.2,.1,-.4,.3,-.4,.6v6.6c0,.3,.2,.5,.4,.6c.3,.1,.6,.1,.8,-.1c.1,-.1,.2,-.2,.4,-.2h4.6c.4,0,.6,.3,.6,.7v.4c0,.1,0,.3,-.1,.4c-.2,.2,-.2,.5,-.1,.7c.1,.3,.4,.4,.6,.4v-.7l.6,.5c.2,-.4,.4,-.8,.4,-1.3v-.4c0,-1.1,-.9,-2,-2,-2H798c-.5,0,-1,.2,-1.4,.5l.5,.5h.7v-6.6h-.7l-.5,.5c.4,.4,.9,.6,1.4,.6h4.6c1.1,0,2,-1,2,-2.1v-.4c0,-.4,-.1,-.8,-.4,-1.2l-.5,.4v.7h1.8c.3,0,.5,.2,.5,.5v8.7c0,.3,-.2,.4,-.5,.4h-1.9v.7l.6,.5Z" class="ga_16"/>
<path d="M797.1,331.6h.7c0,-1.1,-.9,-2.1,-2,-2.1h-.7c-1.2,0,-2.1,1,-2.1,2.1v7.1c0,1.1,.9,2,2.1,2h.7c1.1,0,2,-.9,2,-2v-7.1h-1.4v7.1c0,.3,-.3,.6,-.6,.6h-.7c-.4,0,-.7,-.3,-.7,-.6v-7.1c0,-.4,.3,-.7,.7,-.7h.7c.3,0,.6,.3,.6,.7Z" class="ga_16"/>
<path d="M798,353.9v.7h4.6c1.1,0,2,-.9,2,-2v-.4c0,-1.1,-.9,-2.1,-2,-2.1H798c-.5,0,-1,.2,-1.4,.6c-.1,.1,-.2,.3,-.2,.5v.2c0,.2,-.1,.4,-.2,.5c-.1,.2,-.2,.3,-.2,.5v.2c0,1.1,.9,2,2,2v-1.4c-.4,0,-.7,-.3,-.7,-.6v-.2h-.6l.4,.5c.4,-.3,.7,-.9,.7,-1.5v-.2h-.7l.5,.5c.1,-.1,.2,-.2,.4,-.2h4.6c.4,0,.6,.3,.6,.7v.4c0,.3,-.2,.6,-.6,.6H798Z" class="ga_16"/>
<path d="M797.1,344.6l-.5,.5c.4,.3,.9,.5,1.4,.5h4.6c1.1,0,2,-.9,2,-2v-.4c0,-1.1,-.9,-2,-2,-2H798c-1.1,0,-2,.9,-2,2v.2c0,.2,.1,.3,.2,.5c.1,.1,.2,.3,.2,.5v.2c0,.2,.1,.4,.2,.5l.5,-.5h.7v-.2c0,-.6,-.3,-1.2,-.7,-1.5l-.4,.5h.6v-.2c0,-.4,.3,-.7,.7,-.7h4.6c.3,0,.6,.3,.6,.7v.4c0,.4,-.3,.7,-.6,.7H798c-.2,0,-.3,-.1,-.4,-.2l-.5,.5h.7Z" class="ga_16"/>
<path d="M803.6,353.4v.7h1.9c1,0,1.8,-.8,1.8,-1.8v-8.8c0,-1,-.8,-1.8,-1.8,-1.8h-1.8c-.3,0,-.5,.2,-.6,.4c-.2,.2,-.1,.5,0,.7c.1,.1,.1,.3,.1,.4v.4c0,.4,-.2,.7,-.6,.7H798c-.2,0,-.3,-.1,-.4,-.2c-.2,-.2,-.5,-.2,-.8,-.1c-.2,.1,-.4,.3,-.4,.6v6.6c0,.3,.2,.5,.4,.6c.3,.1,.6,.1,.8,-.1c.1,-.1,.2,-.2,.4,-.2h4.6c.4,0,.6,.3,.6,.7v.4c0,.1,0,.3,-.1,.4c-.2,.2,-.2,.5,-.1,.7c.1,.3,.4,.4,.6,.4v-.7l.6,.4c.2,-.3,.4,-.7,.4,-1.2v-.4c0,-1.1,-.9,-2.1,-2,-2.1H798c-.5,0,-1,.2,-1.4,.6l.5,.5h.7v-6.6h-.7l-.5,.5c.4,.3,.9,.5,1.4,.5h4.6c1.1,0,2,-.9,2,-2v-.4c0,-.4,-.1,-.9,-.4,-1.2l-.5,.4v.7h1.8c.3,0,.5,.2,.5,.4v8.8c0,.2,-.2,.4,-.5,.4h-1.9v.7l.6,.4Z" class="ga_16"/>
<path d="M797.1,344.4h.7c0,-1.2,-.9,-2.1,-2,-2.1h-.7c-1.2,0,-2.1,.9,-2.1,2.1v7c0,1.2,.9,2.1,2.1,2.1h.7c1.1,0,2,-.9,2,-2.1v-7h-1.4v7c0,.4,-.3,.7,-.6,.7h-.7c-.4,0,-.7,-.3,-.7,-.7v-7c0,-.4,.3,-.7,.7,-.7h.7c.3,0,.6,.3,.6,.7Z" class="ga_16"/>
<image clip-path="url(#cj_16)" preserveAspectRatio="none" x="681" y="361" width="89" height="30" xlink:href="img/22.jpg"/>
<image clip-path="url(#ck_16)" preserveAspectRatio="none" x="690" y="289" width="89" height="73" xlink:href="img/23.jpg"/>
<image clip-path="url(#cl_16)" preserveAspectRatio="none" x="690" y="383" width="80" height="3" xlink:href="img/24.jpg"/>
<image clip-path="url(#cm_16)" preserveAspectRatio="none" x="768" y="361" width="11" height="31" xlink:href="img/25.jpg"/>
<image clip-path="url(#cn_16)" preserveAspectRatio="none" x="769" y="289" width="10" height="73" xlink:href="img/26.jpg"/>
<image clip-path="url(#co_16)" preserveAspectRatio="none" x="768" y="383" width="11" height="3" xlink:href="img/27.jpg"/>
<image clip-path="url(#cp_16)" preserveAspectRatio="none" x="775" y="311" width="4" height="68" xlink:href="img/28.jpg"/>
<image clip-path="url(#cq_16)" preserveAspectRatio="none" x="775" y="378" width="4" height="8" xlink:href="img/29.jpg"/>
<path d="M706.3,302.3c-10.1,0,-18.3,8.2,-18.3,18.3v64.2h79V320.6c0,-10.1,-8.2,-18.3,-18.3,-18.3Z" class="g3_16"/>
<path d="M687.9,385.7H767v-7.2H687.9v7.2Z" class="g9_16"/>
<path d="M693.3,360.7h2.4c.2,0,.3,-.1,.3,-.3c0,-.2,-.1,-.4,-.3,-.4h-2.4c-.2,0,-.3,.2,-.3,.4c0,.2,.1,.3,.3,.3m3.9,0h2.3c.3,0,.4,-.1,.4,-.3c0,-.2,-.1,-.4,-.4,-.4h-2.3c-.2,0,-.4,.2,-.4,.4c0,.2,.2,.3,.4,.3m3.9,0h2.3c.2,0,.4,-.1,.4,-.3c0,-.2,-.2,-.4,-.4,-.4h-2.3c-.2,0,-.4,.2,-.4,.4c0,.2,.2,.3,.4,.3m3.9,0h2.3c.2,0,.4,-.1,.4,-.3c0,-.2,-.2,-.4,-.4,-.4H705c-.2,0,-.4,.2,-.4,.4c0,.2,.2,.3,.4,.3m3.9,0h2.3c.2,0,.4,-.1,.4,-.3c0,-.2,-.2,-.4,-.4,-.4h-2.3c-.2,0,-.4,.2,-.4,.4c0,.2,.2,.3,.4,.3m3.9,0h2.3c.2,0,.4,-.1,.4,-.3c0,-.2,-.2,-.4,-.4,-.4h-2.3c-.3,0,-.4,.2,-.4,.4c0,.2,.1,.3,.4,.3m3.8,0H719c.2,0,.3,-.1,.3,-.3c0,-.2,-.1,-.4,-.3,-.4h-2.4c-.2,0,-.3,.2,-.3,.4c0,.2,.1,.3,.3,.3m3.9,0h2.3c.3,0,.4,-.1,.4,-.3c0,-.2,-.1,-.4,-.4,-.4h-2.3c-.2,0,-.4,.2,-.4,.4c0,.2,.2,.3,.4,.3m3.9,0h2.3c.2,0,.4,-.1,.4,-.3c0,-.2,-.2,-.4,-.4,-.4h-2.3c-.2,0,-.4,.2,-.4,.4c0,.2,.2,.3,.4,.3m3.9,0h2.3c.2,0,.4,-.1,.4,-.3c0,-.2,-.2,-.4,-.4,-.4h-2.3c-.2,0,-.4,.2,-.4,.4c0,.2,.2,.3,.4,.3m3.9,0h2.3c.2,0,.4,-.1,.4,-.3c0,-.2,-.2,-.4,-.4,-.4h-2.3c-.2,0,-.4,.2,-.4,.4c0,.2,.2,.3,.4,.3m3.8,0h2.4c.2,0,.3,-.1,.3,-.3c0,-.2,-.1,-.4,-.3,-.4H736c-.2,0,-.3,.2,-.3,.4c0,.2,.1,.3,.3,.3m3.9,0h2.3c.3,0,.4,-.1,.4,-.3c0,-.2,-.1,-.4,-.4,-.4h-2.3c-.2,0,-.4,.2,-.4,.4c0,.2,.2,.3,.4,.3m3.9,0h2.3c.2,0,.4,-.1,.4,-.3c0,-.2,-.2,-.4,-.4,-.4h-2.3c-.2,0,-.4,.2,-.4,.4c0,.2,.2,.3,.4,.3m3.9,0H750c.2,0,.4,-.1,.4,-.3c0,-.2,-.2,-.4,-.4,-.4h-2.3c-.2,0,-.4,.2,-.4,.4c0,.2,.2,.3,.4,.3m3.9,0h2.3c.2,0,.4,-.1,.4,-.3c0,-.2,-.2,-.4,-.4,-.4h-2.3c-.2,0,-.4,.2,-.4,.4c0,.2,.2,.3,.4,.3m3.9,0h2.3c.2,0,.4,-.1,.4,-.3c0,-.2,-.2,-.4,-.4,-.4h-2.3c-.3,0,-.4,.2,-.4,.4c0,.2,.1,.3,.4,.3m3.8,0h2.4c.2,0,.3,-.1,.3,-.3c0,-.2,-.1,-.4,-.3,-.4h-2.4c-.2,0,-.3,.2,-.3,.4c0,.2,.1,.3,.3,.3Z" class="gb_16"/>
<path d="M740.8,324.3H743c.2,0,.4,-.1,.4,-.3c0,-.2,-.2,-.4,-.4,-.4h-2.2c-.2,0,-.4,.2,-.4,.4c0,.2,.2,.3,.4,.3m3.7,0h2.3c.2,0,.3,-.1,.3,-.3c0,-.2,-.1,-.4,-.3,-.4h-2.3c-.2,0,-.4,.2,-.4,.4c0,.2,.2,.3,.4,.3m3.7,0h2.3c.2,0,.4,-.1,.4,-.3c0,-.2,-.2,-.4,-.4,-.4h-2.3c-.2,0,-.4,.2,-.4,.4c0,.2,.2,.3,.4,.3m3.7,0h2.3c.2,0,.4,-.1,.4,-.3c0,-.2,-.2,-.4,-.4,-.4h-2.3c-.2,0,-.3,.2,-.3,.4c0,.2,.1,.3,.3,.3m3.8,0h2.2c.2,0,.4,-.1,.4,-.3c0,-.2,-.2,-.4,-.4,-.4h-2.2c-.2,0,-.4,.2,-.4,.4c0,.2,.2,.3,.4,.3m3.7,0h2.2c.2,0,.4,-.1,.4,-.3c0,-.2,-.2,-.4,-.4,-.4h-2.2c-.2,0,-.4,.2,-.4,.4c0,.2,.2,.3,.4,.3Z" class="gb_16"/>
<path d="M693.4,324.3h2.2c.2,0,.4,-.1,.4,-.3c0,-.2,-.2,-.4,-.4,-.4h-2.2c-.2,0,-.4,.2,-.4,.4c0,.2,.2,.3,.4,.3m3.7,0h2.2c.2,0,.4,-.1,.4,-.3c0,-.2,-.2,-.4,-.4,-.4h-2.2c-.2,0,-.4,.2,-.4,.4c0,.2,.2,.3,.4,.3m3.7,0h2.3c.2,0,.3,-.1,.3,-.3c0,-.2,-.1,-.4,-.3,-.4h-2.3c-.2,0,-.4,.2,-.4,.4c0,.2,.2,.3,.4,.3m3.7,0h2.3c.2,0,.4,-.1,.4,-.3c0,-.2,-.2,-.4,-.4,-.4h-2.3c-.2,0,-.4,.2,-.4,.4c0,.2,.2,.3,.4,.3m3.8,0h2.2c.2,0,.4,-.1,.4,-.3c0,-.2,-.2,-.4,-.4,-.4h-2.2c-.3,0,-.4,.2,-.4,.4c0,.2,.1,.3,.4,.3m3.7,0h2.2c.2,0,.4,-.1,.4,-.3c0,-.2,-.2,-.4,-.4,-.4H712c-.2,0,-.4,.2,-.4,.4c0,.2,.2,.3,.4,.3Z" class="gb_16"/>
<path d="M718.2,327v-.8c-1.1,0,-2,.9,-2,2.1v29.3h22.9V328.3c0,-1.2,-.9,-2.1,-2.1,-2.1H718.2v1.5H737c.3,0,.6,.3,.6,.6v27.8H717.7V328.3c0,-.3,.2,-.6,.5,-.6Z" class="gb_16"/>
<path d="M720.2,321.9v-.3c-.5,0,-1,.4,-1,1v4.6h16.9v-4.6c0,-.6,-.5,-1,-1,-1H720.2v.7h14.9c.1,0,.3,.1,.3,.3v3.9H719.9v-3.9c0,-.2,.1,-.3,.3,-.3Z" class="gb_16"/>
<path d="M725.1,349h-.4v7.7l.1,.2l.3,.1h5.2l.2,-.1l.1,-.2V349l-.1,-.2l-.2,-.1h-5.2l-.3,.1l-.1,.2h.4v.4h4.8v6.9h-4.5V349h-.3v.4Z" class="gb_16"/>
<path d="M732,349h-.4v4.1l.1,.3l.3,.1h4.1l.3,-.1l.1,-.3V349l-.1,-.2l-.3,-.1H732l-.3,.1l-.1,.2h.4v.4h3.8v3.4h-3.4V349H732v.4Z" class="gb_16"/>
<path d="M719.2,349h-.4v4.1l.1,.3l.3,.1h4.1l.3,-.1l.1,-.3V349l-.1,-.2l-.3,-.1h-4.1l-.3,.1l-.1,.2h.4v.4H723v3.4h-3.4V349h-.4v.4Z" class="gb_16"/>
<path d="M727.3,353h.8v-1h-.8v1Z" class="gb_16"/>
<path d="M732,342.7h-.4v4.1l.1,.3l.3,.1h4.1l.3,-.1l.1,-.3v-4.1l-.1,-.2l-.3,-.2H732l-.3,.2l-.1,.2h.4v.4h3.8v3.3h-3.4v-3.7H732v.4Z" class="gb_16"/>
<path d="M725.6,342.7h-.4v4.1l.1,.3l.3,.1h4.1l.3,-.1l.1,-.3v-4.1l-.1,-.2l-.3,-.2h-4.1l-.3,.2l-.1,.2h.4v.4h3.8v3.3H726v-3.7h-.4v.4Z" class="gb_16"/>
<path d="M719.2,342.7h-.4v4.1l.1,.3l.3,.1h4.1l.3,-.1l.1,-.3v-4.1l-.1,-.2l-.3,-.2h-4.1l-.3,.2l-.1,.2h.4v.4H723v3.3h-3.4v-3.7h-.4v.4Z" class="gb_16"/>
<path d="M732,336.4h-.4v4.1l.1,.3l.3,.1h4.1l.3,-.1l.1,-.3v-4.1l-.1,-.3l-.3,-.1H732l-.3,.1l-.1,.3h.4v.4h3.8v3.3h-3.4v-3.7H732v.4Z" class="gb_16"/>
<path d="M725.6,336.4h-.4v4.1l.1,.3l.3,.1h4.1l.3,-.1l.1,-.3v-4.1l-.1,-.3l-.3,-.1h-4.1l-.3,.1l-.1,.3h.4v.4h3.8v3.3H726v-3.7h-.4v.4Z" class="gb_16"/>
<path d="M719.2,336.4h-.4v4.1l.1,.3l.3,.1h4.1l.3,-.1l.1,-.3v-4.1l-.1,-.3l-.3,-.1h-4.1l-.3,.1l-.1,.3h.4v.4H723v3.3h-3.4v-3.7h-.4v.4Z" class="gb_16"/>
<path d="M732,330.1h-.4v4.1l.1,.3l.3,.1h4.1l.3,-.1l.1,-.3v-4.1l-.1,-.3l-.3,-.1H732l-.3,.1l-.1,.3h.4v.4h3.8v3.3h-3.4v-3.7H732v.4Z" class="gb_16"/>
<path d="M725.6,330.1h-.4v4.1l.1,.3l.3,.1h4.1l.3,-.1l.1,-.3v-4.1l-.1,-.3l-.3,-.1h-4.1l-.3,.1l-.1,.3h.4v.4h3.8v3.3H726v-3.7h-.4v.4Z" class="gb_16"/>
<path d="M719.2,330.1h-.4v4.1l.1,.3l.3,.1h4.1l.3,-.1l.1,-.3v-4.1l-.1,-.3l-.3,-.1h-4.1l-.3,.1l-.1,.3h.4v.4H723v3.3h-3.4v-3.7h-.4v.4Z" class="gb_16"/>
<path d="M722.8,323l-.2,-.1l-.5,.7l-.8,.2l-.2,.1l.1,.3l.5,.6v.8l.1,.3h.2l.8,-.3l.7,.3h.3l.1,-.3l-.1,-.8l.5,-.6l.1,-.3l-.2,-.1l-.8,-.2l-.4,-.7l-.2,-.1l-.2,.1l.2,.1l-.2,.1l.4,.8l.2,.1l.5,.2l-.3,.4l-.1,.1l.1,.6l-.6,-.2h-.1l-.6,.2l.1,-.6l-.1,-.1l-.3,-.4l.5,-.2l.2,-.1l.5,-.8l-.2,-.1l-.2,.1Z" class="gb_16"/>
<path d="M727.6,323l-.2,-.1l-.4,.7l-.8,.2l-.2,.1l.1,.3l.5,.6l-.1,.8l.1,.3h.3l.7,-.3l.8,.3h.2l.1,-.3v-.8l.5,-.6l.1,-.3l-.2,-.1l-.8,-.2l-.5,-.7l-.2,-.1l-.2,.1l.2,.1l-.2,.1l.5,.8l.2,.1l.5,.2l-.3,.4l-.1,.1v.6l-.5,-.2h-.2l-.5,.2l.1,-.6l-.1,-.1l-.3,-.4l.5,-.2l.1,-.1l.5,-.8l-.2,-.1l-.2,.1Z" class="gb_16"/>
<path d="M732.5,323l-.2,-.1l-.4,.7l-.8,.2l-.2,.1v.3l.6,.6l-.1,.8l.1,.3h.2l.8,-.3l.8,.3h.2l.1,-.3l-.1,-.8l.6,-.6v-.3l-.1,-.1l-.9,-.2l-.4,-.7l-.2,-.1l-.2,.1l.2,.1l-.2,.1l.5,.8l.1,.1l.6,.2l-.4,.4v.7l-.5,-.2h-.2l-.5,.2v-.7l-.4,-.4l.6,-.2l.1,-.1l.5,-.8l-.2,-.1l-.2,.1Z" class="gb_16"/>
<path d="M715.2,357.9h24.6c.5,0,1,-.4,1,-.9c0,-.5,-.5,-.9,-1,-.9H715.2c-.5,0,-.9,.4,-.9,.9c0,.5,.4,.9,.9,.9Z" class="gb_16"/>
<path d="M727.5,349v7.3h.3V349Z" class="gb_16"/>
<image clip-path="url(#cr_16)" preserveAspectRatio="none" x="514" y="361" width="89" height="30" xlink:href="img/30.jpg"/>
<image clip-path="url(#cs_16)" preserveAspectRatio="none" x="505" y="289" width="88" height="73" xlink:href="img/31.jpg"/>
<image clip-path="url(#ct_16)" preserveAspectRatio="none" x="514" y="383" width="80" height="3" xlink:href="img/32.jpg"/>
<image clip-path="url(#cu_16)" preserveAspectRatio="none" x="504" y="361" width="11" height="31" xlink:href="img/33.jpg"/>
<image clip-path="url(#cv_16)" preserveAspectRatio="none" x="505" y="289" width="9" height="73" xlink:href="img/34.jpg"/>
<image clip-path="url(#cw_16)" preserveAspectRatio="none" x="504" y="383" width="11" height="3" xlink:href="img/35.jpg"/>
<path d="M530.1,302.3c-10.1,0,-18.3,8.2,-18.3,18.3v64.2h79V320.6c0,-10.1,-8.2,-18.3,-18.4,-18.3Z" class="g3_16"/>
<path d="M511.7,385.7h79.1v-7.2H511.7v7.2Z" class="g9_16"/>
<path d="M517.9,328.5h2.6c.2,0,.3,-.2,.3,-.4c0,-.2,-.1,-.4,-.3,-.4h-2.6c-.2,0,-.4,.2,-.4,.4c0,.2,.2,.4,.4,.4m4.3,0h2.6c.2,0,.4,-.2,.4,-.4c0,-.2,-.2,-.4,-.4,-.4h-2.6c-.2,0,-.3,.2,-.3,.4c0,.2,.1,.4,.3,.4m4.3,0h2.6c.2,0,.4,-.2,.4,-.4c0,-.2,-.2,-.4,-.4,-.4h-2.6c-.2,0,-.3,.2,-.3,.4c0,.2,.1,.4,.3,.4m4.4,0h2.5c.2,0,.4,-.2,.4,-.4c0,-.2,-.2,-.4,-.4,-.4h-2.5c-.3,0,-.4,.2,-.4,.4c0,.2,.1,.4,.4,.4Z" class="g6_16"/>
<path d="M569.5,360.7h2.2c.2,0,.3,-.1,.3,-.3c0,-.2,-.1,-.4,-.3,-.4h-2.2c-.3,0,-.4,.2,-.4,.4c0,.2,.1,.3,.4,.3m3.6,0h2.2c.2,0,.4,-.1,.4,-.3c0,-.2,-.2,-.4,-.4,-.4h-2.2c-.2,0,-.4,.2,-.4,.4c0,.2,.2,.3,.4,.3m3.6,0h2.2c.3,0,.4,-.1,.4,-.3c0,-.2,-.1,-.4,-.4,-.4h-2.2c-.2,0,-.3,.2,-.3,.4c0,.2,.1,.3,.3,.3m3.7,0h2.2c.2,0,.4,-.1,.4,-.3c0,-.2,-.2,-.4,-.4,-.4h-2.2c-.2,0,-.4,.2,-.4,.4c0,.2,.2,.3,.4,.3m3.6,0h2.2c.3,0,.4,-.1,.4,-.3c0,-.2,-.1,-.4,-.4,-.4H584c-.2,0,-.3,.2,-.3,.4c0,.2,.1,.3,.3,.3Z" class="g6_16"/>
<path d="M568.6,328.5h2.3c.2,0,.4,-.2,.4,-.4c0,-.2,-.2,-.4,-.4,-.4h-2.3c-.2,0,-.4,.2,-.4,.4c0,.2,.2,.4,.4,.4m3.8,0h2.3c.2,0,.4,-.2,.4,-.4c0,-.2,-.2,-.4,-.4,-.4h-2.3c-.2,0,-.4,.2,-.4,.4c0,.2,.2,.4,.4,.4m3.9,0h2.3c.2,0,.3,-.2,.3,-.4c0,-.2,-.1,-.4,-.3,-.4h-2.3c-.2,0,-.4,.2,-.4,.4c0,.2,.2,.4,.4,.4m3.8,0h2.3c.2,0,.4,-.2,.4,-.4c0,-.2,-.2,-.4,-.4,-.4h-2.3c-.2,0,-.4,.2,-.4,.4c0,.2,.2,.4,.4,.4m3.8,0h2.3c.3,0,.4,-.2,.4,-.4c0,-.2,-.1,-.4,-.4,-.4h-2.3c-.2,0,-.3,.2,-.3,.4c0,.2,.1,.4,.3,.4Z" class="g6_16"/>
<path d="M564.7,345.9c.1,.9,.3,1.8,.3,2.8c-.1,2.6,-1.3,4.6,-3.5,6c-1.7,1.1,-3.6,1.6,-5.6,1.6c-3.1,.1,-6.2,.1,-9.3,0c-2.1,0,-4.1,-.5,-5.8,-1.7c-2.5,-1.8,-3.6,-4.2,-3.2,-7.3c.3,-2.5,.4,-5,.5,-7.5c0,-2.4,0,-4.7,-.1,-7.1c0,-2.7,1.1,-4.8,3.3,-6.4c1.8,-1.4,4,-2,6.3,-2c2.5,-.1,4.9,-.1,7.4,0c2.1,0,4.2,.6,5.9,1.8c2.6,1.8,3.8,4.2,3.5,7.3c-.1,1.5,0,3.1,0,4.6c0,0,.2,5.2,.3,7.9m-13.4,-20v-.1c-1.3,0,-2.5,0,-3.7,0c-1.7,0,-3.3,.4,-4.7,1.3c-2,1.2,-3.4,2.9,-3.3,5.4c.1,1.1,.4,2.2,.7,3.2c.6,1.8,1.4,3.4,2.8,4.6c.4,.3,.4,.7,0,1.1c-.8,.8,-1.7,1.6,-2.8,1.9c-.7,.3,-.9,.7,-.9,1.3c-.1,.7,.1,1.1,.5,1.6c1,1,2.2,1.7,3.5,2.3c2.3,1,4.7,1.3,7.2,1.3c2.7,.1,5.3,-.2,7.8,-1.1c1.7,-.6,3.3,-1.5,4.4,-2.9c.2,-.2,.3,-.4,.3,-.6c0,-.4,0,-.9,-.1,-1.3l-.3,-.3c-1.3,-.5,-2.4,-1.3,-3.3,-2.2c-.4,-.4,-.3,-.8,0,-1.2c.6,-.6,1.2,-1.2,1.6,-1.9c1,-1.6,1.5,-3.4,1.8,-5.2c.3,-1.5,-.1,-2.8,-1,-4c-1.5,-2,-3.6,-3,-5.9,-3.2c-1.6,-.1,-3.1,0,-4.6,0m-12.1,21.3c-.5,2.1,0,3.9,1.6,5.4c1.7,1.6,3.7,2.2,5.9,2.2c3,0,6,0,9,0c1,0,2,-.1,3,-.5c1.8,-.6,3.3,-1.6,4.2,-3.4c.6,-1.2,.6,-2.5,.3,-3.8l-.1,.1c-1.4,1.8,-3.3,2.8,-5.5,3.4c-3.7,1,-7.4,1,-11.1,.4c-1.8,-.3,-3.5,-.9,-5.1,-1.9c-.8,-.6,-1.5,-1.3,-2.2,-1.9Z" class="g6_16"/>
<path d="M544.3,356.9c-.7,.5,-1.3,1,-1.9,1.4c-.6,.5,-2.3,1.8,-2.9,2.4c-.3,.2,-.7,.2,-1,.1c-.2,0,-.4,-.2,-.4,-.4c-.1,-.3,0,-.6,.3,-.8c.4,-.4,1.8,-1.5,2.2,-1.8c.5,-.4,1.1,-.9,1.7,-1.3c.1,-.1,.3,-.1,.5,-.1c.5,.1,1,.3,1.5,.5Z" class="g6_16"/>
<path d="M558.1,356.9c.7,-.2,1.2,-.4,1.7,-.5l.4,.1c1,.7,3,2.3,3.9,3c.2,.1,.3,.3,.4,.5c.1,.3,0,.7,-.3,.8c-.2,.1,-.7,.1,-.9,0c-1.4,-1,-3.7,-2.8,-5.2,-3.9Z" class="g6_16"/>
<path d="M551.2,339.6c-1.4,0,-2.8,.1,-4.2,0c-2.5,-.2,-4.5,-2,-5,-4.5c-.1,-.7,-.2,-1.3,-.3,-1.9c-.5,-2.5,1.2,-4.6,3.7,-4.6c3.9,0,7.8,0,11.6,0c2.4,0,4.2,1.9,3.8,4.3c-.1,1.3,-.3,2.8,-1,4c-1.2,1.8,-2.8,2.8,-5,2.8c-1.2,0,-2.4,0,-3.6,0Z" class="g6_16"/>
<path d="M557.1,343.1c.3,0,.7,0,1,0c.6,0,1,.4,.7,.8c-.6,1.1,-1.2,2.2,-1.9,3.3c-.1,.3,-.4,.4,-.7,.4c-.7,0,-1.4,0,-2.1,0c-.6,0,-.9,-.4,-.7,-.9c.6,-1,1.3,-2.1,1.9,-3.2c.1,-.3,.4,-.4,.8,-.4c.4,0,.7,0,1,0Z" class="g6_16"/>
<path d="M547.3,347.6c-.3,0,-.6,0,-.9,0c-.5,0,-.8,-.1,-.9,-.4c-.6,-1.1,-1.2,-2.1,-1.8,-3.2c-.3,-.5,0,-.9,.7,-.9c.7,0,1.3,0,1.9,0c.5,0,.7,.2,.9,.4c.6,1.1,1.3,2.2,1.9,3.3c.2,.4,-.1,.8,-.7,.8c-.4,0,-.7,0,-1.1,0Z" class="g6_16"/>
<path d="M552.6,353.2c0,.7,-.6,1.3,-1.3,1.3c-.8,0,-1.4,-.6,-1.4,-1.3c0,-.7,.6,-1.4,1.3,-1.4c.7,0,1.4,.6,1.4,1.4Z" class="g6_16"/>
<path d="M517.9,360.7h2.2c.2,0,.4,-.1,.4,-.3c0,-.2,-.2,-.4,-.4,-.4h-2.2c-.2,0,-.4,.2,-.4,.4c0,.2,.2,.3,.4,.3m3.7,0h2.2c.2,0,.4,-.1,.4,-.3c0,-.2,-.2,-.4,-.4,-.4h-2.2c-.2,0,-.4,.2,-.4,.4c0,.2,.2,.3,.4,.3m3.6,0h2.2c.2,0,.4,-.1,.4,-.3c0,-.2,-.2,-.4,-.4,-.4h-2.2c-.2,0,-.4,.2,-.4,.4c0,.2,.2,.3,.4,.3m3.7,0h2.2c.2,0,.3,-.1,.3,-.3c0,-.2,-.1,-.4,-.3,-.4h-2.2c-.3,0,-.4,.2,-.4,.4c0,.2,.1,.3,.4,.3m3.6,0h2.2c.2,0,.4,-.1,.4,-.3c0,-.2,-.2,-.4,-.4,-.4h-2.2c-.2,0,-.4,.2,-.4,.4c0,.2,.2,.3,.4,.3Z" class="g6_16"/>
<image clip-path="url(#cx_16)" preserveAspectRatio="none" x="602" y="361" width="80" height="30" xlink:href="img/36.jpg"/>
<image clip-path="url(#cy_16)" preserveAspectRatio="none" x="593" y="289" width="98" height="73" xlink:href="img/37.jpg"/>
<image clip-path="url(#cz_16)" preserveAspectRatio="none" x="602" y="383" width="80" height="3" xlink:href="img/38.jpg"/>
<image clip-path="url(#c10_16)" preserveAspectRatio="none" x="680" y="361" width="11" height="31" xlink:href="img/39.jpg"/>
<image clip-path="url(#c11_16)" preserveAspectRatio="none" x="681" y="289" width="10" height="73" xlink:href="img/40.jpg"/>
<image clip-path="url(#c12_16)" preserveAspectRatio="none" x="680" y="383" width="11" height="3" xlink:href="img/41.jpg"/>
<image clip-path="url(#c13_16)" preserveAspectRatio="none" x="687" y="311" width="4" height="68" xlink:href="img/42.jpg"/>
<image clip-path="url(#c14_16)" preserveAspectRatio="none" x="687" y="378" width="4" height="8" xlink:href="img/43.jpg"/>
<image clip-path="url(#c15_16)" preserveAspectRatio="none" x="592" y="361" width="11" height="31" xlink:href="img/44.jpg"/>
<image clip-path="url(#c16_16)" preserveAspectRatio="none" x="593" y="289" width="10" height="73" xlink:href="img/45.jpg"/>
<image clip-path="url(#c17_16)" preserveAspectRatio="none" x="592" y="383" width="11" height="3" xlink:href="img/46.jpg"/>
<path d="M618.2,302.3c-10.1,0,-18.3,8.2,-18.3,18.3v64.2h79V320.6c0,-10.1,-8.2,-18.3,-18.3,-18.3Z" class="g3_16"/>
<path d="M599.8,385.7h79.1v-7.2H599.8v7.2Z" class="g9_16"/>
<path d="M606,328.5h2.2c.2,0,.4,-.2,.4,-.4c0,-.2,-.2,-.4,-.4,-.4H606c-.2,0,-.3,.2,-.3,.4c0,.2,.1,.4,.3,.4m3.6,0h2.2c.2,0,.3,-.2,.3,-.4c0,-.2,-.1,-.4,-.3,-.4h-2.2c-.2,0,-.4,.2,-.4,.4c0,.2,.2,.4,.4,.4m3.6,0h2.1c.2,0,.4,-.2,.4,-.4c0,-.2,-.2,-.4,-.4,-.4h-2.1c-.3,0,-.4,.2,-.4,.4c0,.2,.1,.4,.4,.4m3.5,0h2.2c.2,0,.3,-.2,.3,-.4c0,-.2,-.1,-.4,-.3,-.4h-2.2c-.2,0,-.4,.2,-.4,.4c0,.2,.2,.4,.4,.4m3.6,0h2.1c.2,0,.4,-.2,.4,-.4c0,-.2,-.2,-.4,-.4,-.4h-2.1c-.2,0,-.4,.2,-.4,.4c0,.2,.2,.4,.4,.4m3.5,0H626c.2,0,.4,-.2,.4,-.4c0,-.2,-.2,-.4,-.4,-.4h-2.2c-.2,0,-.4,.2,-.4,.4c0,.2,.2,.4,.4,.4m3.6,0h2.1c.2,0,.4,-.2,.4,-.4c0,-.2,-.2,-.4,-.4,-.4h-2.1c-.2,0,-.4,.2,-.4,.4c0,.2,.2,.4,.4,.4Z" class="gc_16"/>
<path d="M606,360.7h2.4c.2,0,.4,-.1,.4,-.3c0,-.2,-.2,-.4,-.4,-.4H606c-.2,0,-.3,.2,-.3,.4c0,.2,.1,.3,.3,.3m3.9,0h2.4c.2,0,.3,-.1,.3,-.3c0,-.2,-.1,-.4,-.3,-.4h-2.4c-.2,0,-.4,.2,-.4,.4c0,.2,.2,.3,.4,.3m3.9,0h2.3c.2,0,.4,-.1,.4,-.3c0,-.2,-.2,-.4,-.4,-.4h-2.3c-.2,0,-.4,.2,-.4,.4c0,.2,.2,.3,.4,.3m3.9,0H620c.2,0,.4,-.1,.4,-.3c0,-.2,-.2,-.4,-.4,-.4h-2.3c-.2,0,-.4,.2,-.4,.4c0,.2,.2,.3,.4,.3m3.9,0h2.3c.2,0,.4,-.1,.4,-.3c0,-.2,-.2,-.4,-.4,-.4h-2.3c-.2,0,-.4,.2,-.4,.4c0,.2,.2,.3,.4,.3m3.9,0h2.3c.2,0,.4,-.1,.4,-.3c0,-.2,-.2,-.4,-.4,-.4h-2.3c-.3,0,-.4,.2,-.4,.4c0,.2,.1,.3,.4,.3m3.8,0h2.4c.2,0,.3,-.1,.3,-.3c0,-.2,-.1,-.4,-.3,-.4h-2.4c-.2,0,-.3,.2,-.3,.4c0,.2,.1,.3,.3,.3m3.9,0h2.3c.3,0,.4,-.1,.4,-.3c0,-.2,-.1,-.4,-.4,-.4h-2.3c-.2,0,-.4,.2,-.4,.4c0,.2,.2,.3,.4,.3m3.9,0h2.3c.2,0,.4,-.1,.4,-.3c0,-.2,-.2,-.4,-.4,-.4h-2.3c-.2,0,-.4,.2,-.4,.4c0,.2,.2,.3,.4,.3m3.9,0h2.3c.2,0,.4,-.1,.4,-.3c0,-.2,-.2,-.4,-.4,-.4H641c-.2,0,-.4,.2,-.4,.4c0,.2,.2,.3,.4,.3m3.9,0h2.3c.2,0,.4,-.1,.4,-.3c0,-.2,-.2,-.4,-.4,-.4h-2.3c-.2,0,-.4,.2,-.4,.4c0,.2,.2,.3,.4,.3m3.8,0h2.4c.2,0,.4,-.1,.4,-.3c0,-.2,-.2,-.4,-.4,-.4h-2.4c-.2,0,-.3,.2,-.3,.4c0,.2,.1,.3,.3,.3m3.9,0H655c.2,0,.3,-.1,.3,-.3c0,-.2,-.1,-.4,-.3,-.4h-2.4c-.2,0,-.4,.2,-.4,.4c0,.2,.2,.3,.4,.3m3.9,0h2.3c.2,0,.4,-.1,.4,-.3c0,-.2,-.2,-.4,-.4,-.4h-2.3c-.2,0,-.4,.2,-.4,.4c0,.2,.2,.3,.4,.3m3.9,0h2.3c.2,0,.4,-.1,.4,-.3c0,-.2,-.2,-.4,-.4,-.4h-2.3c-.2,0,-.4,.2,-.4,.4c0,.2,.2,.3,.4,.3m3.9,0h2.3c.2,0,.4,-.1,.4,-.3c0,-.2,-.2,-.4,-.4,-.4h-2.3c-.2,0,-.4,.2,-.4,.4c0,.2,.2,.3,.4,.3m3.9,0h2.3c.2,0,.4,-.1,.4,-.3c0,-.2,-.2,-.4,-.4,-.4h-2.3c-.3,0,-.4,.2,-.4,.4c0,.2,.1,.3,.4,.3m3.8,0h2.4c.2,0,.3,-.1,.3,-.3c0,-.2,-.1,-.4,-.3,-.4H672c-.2,0,-.3,.2,-.3,.4c0,.2,.1,.3,.3,.3Z" class="gc_16"/>
<path d="M652.8,328.5h2.3c.2,0,.4,-.2,.4,-.4c0,-.2,-.2,-.4,-.4,-.4h-2.3c-.2,0,-.4,.2,-.4,.4c0,.2,.2,.4,.4,.4m3.9,0H659c.2,0,.4,-.2,.4,-.4c0,-.2,-.2,-.4,-.4,-.4h-2.3c-.2,0,-.4,.2,-.4,.4c0,.2,.2,.4,.4,.4m3.8,0h2.3c.2,0,.4,-.2,.4,-.4c0,-.2,-.2,-.4,-.4,-.4h-2.3c-.2,0,-.4,.2,-.4,.4c0,.2,.2,.4,.4,.4m3.9,0h2.3c.2,0,.4,-.2,.4,-.4c0,-.2,-.2,-.4,-.4,-.4h-2.3c-.2,0,-.4,.2,-.4,.4c0,.2,.2,.4,.4,.4m3.8,0h2.3c.2,0,.4,-.2,.4,-.4c0,-.2,-.2,-.4,-.4,-.4h-2.3c-.2,0,-.4,.2,-.4,.4c0,.2,.2,.4,.4,.4m3.9,0h2.3c.2,0,.3,-.2,.3,-.4c0,-.2,-.1,-.4,-.3,-.4h-2.3c-.3,0,-.4,.2,-.4,.4c0,.2,.1,.4,.4,.4Z" class="gc_16"/>
<path d="M649.4,340.2c0,3.3,-.1,6.7,0,10.1c.1,3.1,-1.4,5.4,-4.5,6.7c-3.3,1.5,-6.5,1.2,-9.5,-.6c-.4,-.3,-.9,-.6,-1.1,-.9c-.2,-.2,-.1,-.7,0,-.9c.2,-.2,.7,-.1,1,-.1c.2,.1,.4,.3,.6,.5c3.1,2.3,8,2,10.5,-.7c1.1,-1.1,1.5,-2.4,1.5,-3.9c0,-6.8,-.1,-13.6,0,-20.4c0,-2.4,-1.1,-4.3,-3.6,-5.5c-2.6,-1.2,-5.3,-1,-7.8,.4c-.3,.2,-.6,.4,-.9,.7c-.4,.3,-.9,.4,-1.2,0c-.2,-.3,-.1,-.8,.2,-1.1c1.1,-1,2.5,-1.6,4.1,-1.9c4.7,-1,9.6,1.5,10.5,5.5c.2,.5,.2,1.1,.2,1.6c0,3.5,0,7,0,10.5Z" class="gc_16"/>
<path d="M634.3,332.3c-1.7,-.3,-2.2,-1.4,-1.5,-3c.5,-1,1.4,-1.5,2.4,-1.8c1.5,-.5,3.2,-.6,4.7,-.1c2,.6,3.2,2.5,3,4.5c-.2,2,-1.8,3.7,-3.7,3.9c-2.1,.2,-3.9,-.9,-4.7,-2.8c-.1,-.2,-.1,-.5,-.2,-.7m7.1,0c-1.4,-.5,-1.6,-.6,-2.3,-1.9c-.1,-.2,-.3,-.5,-.4,-.8c-.7,-.9,-1.4,-1,-2.2,-.2c-.8,.9,-1.1,2.2,-.6,3.3c.5,1.1,1.5,1.8,2.8,1.7c1.3,0,2.2,-.7,2.7,-2.1m.1,-1.6c.1,-1,-1.8,-1.7,-1.8,-1.7c.5,1.8,1.7,2.2,1.8,1.7M635,329c-1.9,.8,-.9,2.2,-.8,1.9c0,0,.2,-1.2,.8,-1.9Z" class="gc_16"/>
<path d="M634.3,341.6c-1.7,-.3,-2.2,-1.4,-1.5,-3c.5,-1,1.4,-1.5,2.4,-1.8c1.5,-.5,3.2,-.5,4.7,0c2,.6,3.2,2.4,3,4.5c-.2,1.9,-1.8,3.6,-3.7,3.8c-2.1,.3,-3.9,-.8,-4.7,-2.8c-.1,-.2,-.1,-.4,-.2,-.7m7.1,0c-1.4,-.4,-1.6,-.6,-2.3,-1.8c-.1,-.3,-.3,-.6,-.4,-.9c-.7,-.9,-1.4,-1,-2.2,-.2c-.8,.9,-1.1,2.2,-.6,3.3c.5,1.1,1.5,1.8,2.8,1.8c1.3,-.1,2.2,-.8,2.7,-2.2m.1,-1.6c.1,-1,-1.8,-1.6,-1.8,-1.6c.5,1.7,1.7,2.2,1.8,1.6M635,338.3c-1.9,.8,-.9,2.3,-.8,1.9c0,0,.2,-1.2,.8,-1.9Z" class="gc_16"/>
<path d="M634.3,350.7c-1.7,-.3,-2.2,-1.4,-1.5,-3c.5,-1,1.4,-1.5,2.4,-1.8c1.5,-.5,3.2,-.5,4.7,0c2,.6,3.2,2.4,3,4.5c-.2,1.9,-1.8,3.6,-3.7,3.8c-2.1,.3,-3.9,-.8,-4.7,-2.8c-.1,-.2,-.1,-.4,-.2,-.7m7.1,0c-1.4,-.4,-1.6,-.6,-2.3,-1.8c-.1,-.3,-.3,-.6,-.4,-.9c-.7,-.9,-1.4,-1,-2.2,-.2c-.8,.9,-1.1,2.2,-.6,3.3c.5,1.1,1.5,1.8,2.8,1.8c1.3,-.1,2.2,-.8,2.7,-2.2m.1,-1.6c.1,-1,-1.8,-1.6,-1.8,-1.6c.5,1.7,1.7,2.2,1.8,1.6M635,347.4c-1.9,.8,-.9,2.3,-.8,1.9c0,0,.2,-1.2,.8,-1.9Z" class="gc_16"/>
<path d="M630.5,345.2l-5.3,-5.5c-.2,-.3,-.6,-.3,-.9,0c-.2,.2,-.2,.6,0,.8l5.3,5.6c.2,.2,.6,.2,.8,0c.3,-.2,.3,-.6,.1,-.9Z" class="gc_16"/>
<path d="M630.5,352.9l-5.3,5.5c-.2,.2,-.6,.3,-.9,0c-.2,-.2,-.2,-.6,0,-.9l5.3,-5.5c.2,-.3,.6,-.3,.8,0c.3,.2,.3,.6,.1,.9Z" class="gc_16"/>
<path d="M629.3,347.2L622,345.8c-.3,-.1,-.6,.2,-.7,.5c-.1,.3,.1,.7,.5,.7l7.2,1.4c.4,.1,.7,-.1,.7,-.5c.1,-.3,-.1,-.6,-.4,-.7Z" class="gc_16"/>
<path d="M629.3,350.9l-7.3,1.4c-.3,0,-.6,-.2,-.7,-.5c-.1,-.4,.1,-.7,.5,-.8l7.2,-1.4c.4,0,.7,.2,.7,.5c.1,.4,-.1,.7,-.4,.8Z" class="gc_16"/>
<path d="M890,1286.2h19.4V0H890V1286.2Z" class="g3_16"/>
</svg>