<?xml version="1.0" encoding="UTF-8" standalone="no"?>
<!DOCTYPE svg PUBLIC "-//W3C//DTD SVG 1.1//EN"
"http://www.w3.org/Graphics/SVG/1.1/DTD/svg11.dtd">
<svg viewBox="0 0 909 1286" version="1.1" xmlns="http://www.w3.org/2000/svg" xmlns:xlink="http://www.w3.org/1999/xlink">
<defs>
<clipPath id="c0_21"><path d="M880.7,1060.2V1036h1.1v22.4h23.5V1036h2.5v24.2Z"/></clipPath>
<clipPath id="c1_21"><path d="M881.8,1058.4V1036h23.5v22.4Z"/></clipPath>
<clipPath id="c2_21"><path d="M849,264.4V64.9H326.9v4.6H174.7v30.8H326.9V264.4ZM39,1247.2V36.8H870.5V1247.2Z"/></clipPath>
<clipPath id="c3_21"><path d="M326.9,264.4V100.3h4.7V249H836V66.3H331.6v3.2h-4.7V64.9H849V264.4Z"/></clipPath>
<clipPath id="c4_21"><path d="M331.6,249V100.3H744.5V69.5H331.6V66.3H836V249Z"/></clipPath>
<clipPath id="c5_21"><path d="M174.7,100.3V69.5H326.9v30.8Z"/></clipPath>
<clipPath id="c6_21"><path d="M326.9,100.3V69.5h4.7v30.8Z"/></clipPath>
<clipPath id="c7_21"><path d="M331.6,100.3V69.5H744.5v30.8Z"/></clipPath>
<clipPath id="c8_21"><path d="M685.3,244l1.6,-1l-1.6,-1.1V244ZM379.5,237v-1.3l-.5,.8l.5,.5Zm300.9,-2.3l2.8,-1.3l-1.8,-2.1l-1,1.5v1.9Zm1.3,-12l2.6,-1.3l-.8,-2.9l-1.8,1.8v2.4ZM368.3,216.4l1.8,-.5h-.5l-1.3,.5Zm371.4,0l1.4,-.3v-.2H741l-1.3,.5Zm-352.4,-.2l.8,-1.1h-.8v1.1Zm316.4,-2.9l-.4,-.7l-.3,.7ZM411.3,206.6v-2.1h-.8l-.5,.5l1.3,1.6ZM501,229.5l1.9,-.8l6,-8.9l1,-8.6l-2.9,-7l-2,-3.4l-3.4,-7l-1.9,-8.6l-2,2.4l-2.9,7.8l-1.3,5.9v13.6l2.6,8.8l.8,.8l2.1,4.2l2,.8ZM682.5,190.9l1.5,-4.6l-1,-1.4v-2l-1.6,1.5l1.1,6.5ZM413.1,181.3v-2.6h-.8l.8,2.6Zm-1.8,-3.6l1,-1.6h-1v1.6Zm-63.5,17.7l1.5,-2.9l1.8,-2.9l1.1,-2.6l1.8,-1.8v-.5l.5,-.5v-4.7l.5,1v-1.8l-1,-5.2l-2.3,-.8l-3.9,4.2l-3.9,12.5v4.9l1,1.1Zm371.3,0l1.6,-2.9l1.8,-2.9l1.1,-2.6l1.8,-1.8v-.5l.5,-.5v-4.7l.5,1v-1.8l-1,-5.2l-2.3,-.8l-4,4.2l-3.9,12.5v4.9l1.1,1.1Zm74.5,27.5l4.7,-5.4l1.3,-3.7l.5,-.5l2.3,-7v-1.6l3.2,-8v-2.6l1,-8.1V171.9l-.8,-2.6l-6,7.3l-3.4,6.8l-1.5,2.6l-1.8,5.2l-1.9,2.9l-1.8,9.6h-.5v1.5h.5l-1.3,1.6l1.8,1.1l-.5,3.1l.5,1.8l1.6,8.3l1.3,1.8ZM408.9,165.2l.5,-1.3v-2.4l-.7,-.8l-1.3,1.1l1,1.5l.5,1.9ZM702,160.5V160h-.6l.6,.5Zm-88.8,83.3l-.5,-.6h-1.6l-3.3,-1.3l-3.2,-2.8h-.5l-2.9,-2.9l-.7,-5.4l-.6,-1.3v-2.4l-.5,-.5l.5,-.5l-.5,-.8V224h-1.5l1.3,-11.2l.7,-1.3v-3.6l.6,-1.6v-5.5l.7,-2.3l.6,-8.3l2.3,-13.1l1.8,-4.9l.8,-.5l1.1,-2.4h1.5l1.1,-2.3h.7l.8,.5l-1,1.1l2.1,1l1,-1.8l2.1,2.1v2.3l-.8,1.8l-.5,7.8l-1.1,2.9v4.2l-1,2.3V198l-.8,7.8l-.8,2.1v11.7l.8,1.5v5.5l1.3,1h1.6l3.1,-1.8l2.9,-3.4l.5,-2.6l2.6,-1.8v-3.4h1l.8,-1.3l1.8,-1.5v-.6l-.7,-4.1l2,-12l.8,2.3h.5v-1l.8,-2.9l-.8,-.7l.6,-1.9v-5.4l3.1,-5.8l.5,-2l1.3,-1.1l.8,-4.7L640,166l4.7,-6l4.7,-5h1l1.1,-.8l4.9,1.1v1l3.7,1.1l1.3,1.3l1,.7V161l-.8,2.1l1.3,-1.1v12.3l-1.5,6.5l-2.6,6.2l-1.9,1.3l-.5,1.6l-1.5,1h-1.6l-1.6,-1.5h-2.3l-2.6,-2.6l-2.1,-5h-1.5l-1.6,2.1l-2.1,6.3l-1,.7l-.6,1.9l.6,.5v1.3l-.6,.5V198l-.7,3.1v6l-1.1,9.6l.5,5.2l2.6,2.3v2.1l1.1,1.1h1.3l2.3,.8l4.2,-2.4l2.1,-1l1.5,-2.9l3.7,-4.7l1.5,-.5l1.9,-3.6l.7,-.6l1.9,-5.4h1l.8,-5h3.4l1.3,-.5l1.8,1.8v1.3l2.1,1.1l-1.1,1.8v3.1l-2.8,6l-1.3,1v2.6l-1.6,3.4V225l-1,1.9l-.5,-.6l-1.1,1.1l-2.1,5.2l-1.5,.8l-1.9,3.6l-2,1.6h-1.3l-.8,2.3l-7.6,1.6l-1.3,-1.3h-3.6l-1.1,-1.1v-.8l-2,1.3l-4.2,-2V238l-.5,-.5V237l-.5,-.5v-1.3l-1.9,1l-1,-2.8L627,230.8v-3l-2.8,8.2l-2.9,2.3l-.5,-.5l-1.1,2.3l-3.9,.8l-1,1.8l-1.6,1.1ZM408.9,249l-2.6,-2.4H405L403.5,244v-.5h-.6v-2.6l.6,-1l-1.4,-3.4l-1.8,-.8v-6h1.3l.5,1.8l1.4,-10.1v-3.7l-1.1,-.7l1.6,-6.3v-6.2l1.8,-7.1v-7.8l1.6,-1.8v-3.6l1,-1.1v-6h.5l-1,-3.6l1,-1.3v-1l-1.5,-1.1l-1.1,1.1l-.5,1.8v2.3l-2.3,5l-1.9,.7v5.3l-1.3,2l-1,3.7v1.3l-1.6,3.1l-1,3.9l-1.1,1.8v1.8l-1.8,6.8l-.5,.5l-.5,2.4l-2.6,2.6v2.1l-1.1,2.3v.8l-1,2.8v6.6l-1.6,8.5l-1,.6l-.8,2.8l-1.5,1.8l-1.9,.6l-1.5,-1.3l-1.6,1.5l-2.6,-.8l-.8,-2.8l-1.3,-1.3V238l-1.8,-1.8l3.4,-17.7L374,216.7v-1.6l-.3,-.3l-1,1.6V218l-1,1.3l1,2.3l-2,3.7l-2.4,2.1l-.5,3.9l-3.1,2.1v2.8l-2.1,2.1H360l-.5,1.6l-2.9,2H354l-2.6,1.9H348l-1.5,-1.1h-1.6l-.5,-.8h-1.1l-1.8,-1.8l-1.6,.8l-4.4,-6.2l-1.3,-6l-1.5,-3.4V224l-1.1,-2.4l1.1,-2.3l.7,-1l-.7,-.8l.5,-2.4l-1.3,-2.6l1.3,-4.1v-3.9l.5,-2.6l.8,-16.7l1,-4.7l1.3,-1v-3.9l1.6,-1.3l3.1,-7.8l4.4,-6.8H347l.8,-1.8h1.5l2.4,-1.1h2.8l3.9,-1.5l2.1,2.1h2.6v.5l1.1,1v4.4l1,1.1v2.1l-1,1v10.2l-1.1,1v4.9l-.5,6l-2.1,4.7l-1,1.1v1.3l-2.4,4.1l-3.1,3.7l-.5,1.3L353,205l-1.1,1.6l-3.9,1.8h-3.1l-2.1,2.6v9.1l1.1,2.3V224h-.6v.5l1.6,.8l1,2.9h.6l.5,1.5l3.9,1.3l5.7,-2.8l3.9,-2.4v-2.3l3.1,-5l.6,-2.1l1.8,-1.8l2.1,-.8l1.5,-2.3h1.3l-1,-2.1l-.5,-3.4l1.8,-2.1l-.8,-.5v-2.3l.8,-1.3v-1.3l1.8,-5.2v-2.4l1,-4.1l.8,-.5v-1.9l1.6,-2.6v-2.3l2.1,-1.8l1.5,-3.2l-.5,-1.8l.5,-2.1h1.8V167h1.4v.8l2.3,-.8l-.5,-.5v-2.1h1.5l.8,2.1l.8,-2.4l2.1,1.1v1.3l2.6,1h.8l1.8,6l3.9,-4.2v-1.8l2.8,-3.1v-.5l1.4,-1.1h1.8v-1.3l-.5,-.5v-.5h.5l.5,-.5h1.6l1,-1.6h1v-2.1l-1,-1.3l2.1,-1.3l1.8,.8l1.3,-1.3l1.8,1.8l1.1,-.8l.5,.8l1.5,.5v1.9l2.1,2.6l-2.1,.5l1.1,1l-.5,1.8v12l-.6,.8v1.6l-.7,1l.7,2.9l-1.5,2.6h-1.6l2.4,.5v4.2l-1.3,2.6l.5,1.3l-1.1,5.2l-1,8.6l-1,-.8l-.8,3.6l.5,3.1v19h2.6l3.1,-4.4l1.3,-3.9l6.3,-12.5h2.8l2.4,2.4l1,3.1h1.6l.5,.5l-1.3,1.6l-1.3,.7l.8,.6v.5h1.3l.5,.5l-.5,.8h-1.3v3.4l-.8,.5v4.4l-2.3,6h-.6v-1.8l-.7,-1.8l1,-3.9l-2.1,2v6.3l-1.8,3.4l-4.4,4.4l-1.1,-.8l-1.8,3.1l-2.3,1.1l-1.1,1.3ZM510.2,139.9v-.5h-.6l.6,.5Zm38.7,-5.2l1.1,-.5h-.5l-.6,.5Zm75,0l1,-.5h-.5l-.5,.5Zm-84.1,5.7v-1.5l-.5,-1.1l.8,-4.4l-.8,-2.8l1,-3.4l1.3,-2.1l1.9,2.1l1,-3.2h3.9l1.6,.6v.5l-.5,.5l1.3,1.6V130h1v3.2L550,136l-1.3,4.2h-3.9l-1.1,-.8l-3.9,1Zm75,0v-1.5l-.5,-1.1l.7,-4.4l-.7,-2.8l1,-3.4l1.3,-2.1l1.8,2.1l1.1,-3.2h3.9l1.5,.6v.5l-.5,.5l1.3,1.6V130h1.1v3.2l-1.9,2.8l-1.3,4.2h-3.9l-1,-.8l-3.9,1Zm95.5,-3.9v-1.3h.8v-1l-.8,-1v-8.4l3.1,-10.9h.8v2.3l-.8,2.4v3.1l-1.3,1.3l1.8,1.3l-2.8,1.3l1,.8v1.8l.8,4.2l-1.3,4.1ZM720.7,98.3V97.2h-1.3v.6l1.3,.5ZM494,166.2l2.1,-1.3l3.4,-6.8l1,-8l1.3,-3.7v-2.3l1.1,-1.3v-2.9l2.1,-9.1V129l1.5,-7.3l1.8,-4.9v-2.6l.8,-2.6l1.1,-6l1.3,-1.1V99.8l.5,-.7l.8,-2.1H512l-1.3,-7.3l-1.3,-3.9H507l-2,2.3l-2.1,7.3l-3.4,19.3l-2.1,7.5h-1v8.1l-.6,4.7l-.5,1.3v5.2l-.5,1.3v6l-1.3,8.3l.5,4.2v4.9ZM710.3,75.4l1,-2.1h-1.5v2.1Zm11.4,-1.1V72h-1.8v1.3l1.3,1Zm-228.2,170l-3.1,-3.1l-1.1,-2.1l-2.6,-2.4l-.7,-3.6l-3.4,-6.5v-5.5l-.6,-1.8v-2.9l-.5,-1v-7l-1.3,-4.7V192.5l1.3,-3.1l-.8,-1.8v-4.2l.8,-1.8v-2.4l.5,-1.3l-.5,-.5v-8.8l1.9,-.8l-1.4,-.5v-3.7l1.4,-3.4v-2.1l-.8,-.5l.8,-2.8v-2.6l1.8,-5.2v-9.2l.5,-2.3v-19l1,-1.3v-1.6l.6,-1.3v-4.1l2,-7.3l1.1,-1.1V97.5l1.5,-7L494,85.3l2.1,-1.9l.8,-5.2L499,75.6l1.5,-3.3l1.9,-1.9h1.8l1.3,-1.3v-1h1v-1l1.1,-.6l2,1.6h1.9l.5,-1l2.3,2h.8l1,1.3l-.5,.8l1.8,2.1l1.1,2.3V87.9l-1.3,9.6l-1.1,1h1.3l-.7,4.5l-.6,.5v15.3l-3.1,18l-1.5,3.6l-1.1,3.2l-.8,1h-1.3L507,147v3.6l-.5,1v5l-1,2.3v1.3l-1.3,1.8l-1.3,6.8l-1.9,2.1l1.1,.8l-1.1,1.5v2.4l-1.3,7.8h.8l.5,-1.3h1.4L505,180l1,.5l6.5,1.1l1,1.3l-.5,1h1.1l1,3.7l1.6,.7v2.4l1.3,1l2.8,5l2.9,2.8l1.3,2.6l.5,.7v-2l.8,-2.3l.5,-8.3l2.4,-13.1l1.8,-4.9l.8,-.5l1,-2.4h1.6l1,-2.3h.8l.8,.5l-1.1,1.1l2.1,1l1,-1.8l2.1,2.1v2.3l-.8,1.8l-.5,7.8l-1,2.9v4.2l-1.1,2.3V198l-.7,7.8l-.8,2.1v11.7l.8,1.5v5.5l1.3,1h1.5l3.2,-1.8l2.8,-3.4l.5,-2.6l2.6,-1.8v-3.4H550l.8,-1.3l1.8,-1.5v-.6l-.8,-4.1l2.1,-12l.8,2.3h.5v-1l.8,-2.9l-.8,-.7l.5,-1.9v-5.4l3.1,-5.8l.5,-2l1.3,-1.1l.8,-4.7l3.7,-5.9l4.7,-6l4.6,-5h1.1l1,-.8l5,1.1v1l3.6,1.1l1.3,1.3l1.1,.7V161l-.8,2.1L588,162v12.3l-1.6,6.5l-2.6,6.2l-1.8,1.3l-.5,1.6l-1.6,1h-1.6l-1.5,-1.5h-2.4l-2.6,-2.6l-2,-5h-1.6l-1.6,2.1l-2,6.3l-1.1,.7l-.5,1.9l.5,.5v1.3l-.5,.5V198l-.8,3.1v6l-1,9.6l.5,5.2l2.6,2.3v2.1l1,1.1h1.3l2.4,.8l4.1,-2.4l2.1,-1l1.6,-2.9l3.6,-4.7l1.6,-.5l1.8,-3.6l.8,-.6l1.8,-5.4h1.1l.7,-5h3.4l1.3,-.5l1.8,1.8v1.3l2.1,1.1l-1,1.8v3.1l-2.9,6l-1.3,1v2.6l-1.5,3.4V225l-1.1,1.9l-.5,-.6l-1,1.1l-2.1,5.2l-1.6,.8L582,237l-2.1,1.6h-1.3l-.8,2.3l-7.5,1.6L569,241.2h-3.7l-1,-1.1v-.8l-2.1,1.3l-4.2,-2V238l-.5,-.5V237l-.5,-.5v-1.3l-1.8,1l-1.1,-2.8l-2,-2.6v-3l-2.9,8.2l-2.9,2.3l-.5,-.5l-1,2.3l-3.9,.8l-1.1,1.8l-1.5,1.1l-.6,-.6h-1.5l-3.4,-1.3l-3.1,-2.8h-.5l-2.9,-2.9l-.8,-5.4l-.5,-1.3v-2.4l-.5,-.5l.5,-.5l-.5,-.8V224h-1.6l1.3,-11.2l.8,-1.3v-2.9l-3.4,2.4l-2.6,1l-2.3,2.4l-1.1,17.4l-2.1,1.8h-.7l-2.6,4.7l-1.6,.8l-2.6,4.1h-2.6l-1.6,1.1ZM690,246.4l-7.5,-1.6V243l-2.7,-1.6v-1.3l-1,-2.1v-1l-.5,-.5v-1.8l-2.6,-3.2l1,-1.8l-1.5,-1.8l.5,-1l-1.1,-1.1l.6,-2.3h1v-2.1l-.8,-3.1l1.3,-1.6h-1.5v-1.8l.5,-1.1v-2.6l-.5,-1l.5,-1V190.4l1,-1l-.8,-1.3l.8,-5.2l1.1,-1.6v-3.4l1.5,-1.8v-1.8l.5,-1.6l-.5,-1l.5,-1.6V167l1.3,-.8l1.4,-9.6l-.8,-3.4l.8,-1.8v-4.7l1,-3.4v-4.9l1.8,-3.7l1.6,-1.5v-4.5l2.1,-7.8l1.8,-8.8l2.3,-2.4v-1.3l-1.5,1.1l1.5,-3.4v-1.3l5.7,-16.9l2.1,-2.4l1.9,-5.7l.5,-.8l2.3,-5.4L708,72.3l.7,-2.6h1.1l1.3,-.8h1l1.3,-1.1v-1h2.9l1.3,-.5l.8,.5v1.6l1.3,1.8l3.4,-1.8V72l.5,4.4v3.9l1.5,1.6l-.7,5.2l-.8,.5v2.9l-.5,.8v4.4l-.8,3.1l-.6,-.5v2.3h-.5l-1.3,1.3v2.4l-.5,.5l-.5,2.6l-1.3,1l.8,.6v.7l.5,.6v2.6l-.5,.5V117l-2.6,5.2v-1.3l.5,-1V117h-.5v-3.6l-.6,-3.7l1.3,-1.5l-.7,-8.6l-.6,-.8l1.1,-1.6l-.5,-1.5l-.6,-6.5l.6,-1.1v-1h-1.1l-.8,2.9l-2.3,.5L709,93.3l-2.9,8.1l-2,4.7v3.6l-1.3,1.1l-1.1,7.5l-3.4,10.4l-2.3,3.2v2.8l-.5,1.8v3.7l-1.3,13l1,2.3l2.9,-1.3L703,143.3l1.6,-.5v-2.9l2.8,-7.5l.8,1.3l.5,2.8l-2,3.7v6.5l-1.6,1.3v1.8l-1,1.1v7.5l-3.4,9.4h-1.6v2.3l-3.1,3.1v1.1l-.5,1l-.6,5.5l-.5,.5l-1.3,2.6l-1.3,1v1.9H690l-1.6,1.8v1.8l1.1,1.1v2.6l-1.3,3.9l-1.3,.7l1,.8l-1.5,1.1v2.6l-.6,1v6.5l.8,.8l-1.8,1l-1.3,-2.8h-1l-.8,1h-.8l1.6,3.1v2.9l.5,.5l1.5,-.5l-1.3,-1.6l1.6,-1.3l.5,.6v1l1.1,1.3l-.6,.5l.8,.8l-1,3.6l2.3,2.4v6.5l5.2,2.1l2.4,-4.7v-.5l.5,-.5l.5,1v-2.1l1.6,-3.1l1,-1.3v-2.1l1.8,-2.1l1.9,-1l-.8,-3.7l.8,-1.8h1l.8,-2.3v-3.9l.5,-2.6l.8,-16.7l1,-4.7l1.3,-1v-3.9l1.6,-1.3l3.1,-7.8l4.4,-6.8h1.1l.7,-1.8h1.6l2.4,-1.1h2.8l3.9,-1.5l2.1,2.1h2.6v.5l1,1v4.4l1.1,1.1v2.1l-1.1,1v10.2l-1,1v4.9l-.5,6l-2.1,4.7l-1,1.1v1.3l-2.4,4.1l-3.1,3.7l-.5,1.3l-.5,-.8l-1.1,1.6l-3.9,1.8h-3.1l-2.1,2.6v9.1l1,2.3V224h-.5v.5l1.6,.8l1,2.9h.5l.6,1.5l3.9,1.3l5.7,-2.8l3.9,-2.4v-2.3l3.1,-5l.5,-2.1l1.9,-1.8l2,-.8l1.6,-2.3h.5l.3,-1.9l-.5,-1.7l.7,-1.1h.1l.5,-4.7l2.3,-7l1.6,-2.3l-1.1,-2.9V187l1.3,-1.5v-5.8l1.9,-11.4l1.8,-.8v-2.9h-.8l.8,-3.3v-9.7l-1.8,-1.8l-2.4,-1.3L744.4,147h-.5l-3.7,-3.7l1.1,-.5l2.3,-2.1l-1,-1l.8,-.8l1,.8l.8,-1.9l6,-4.9l6.2,-9.6l1.8,-8.4l2.4,-2.8l-.8,-.8l3.4,-8.9h1V99.8h1.3v1.1l1.1,.5l2.3,-1.8l1.3,1.3v1l.5,.5l-.5,2.1l-1,1.1v1.3l.5,-.5h1l-1,14.8l-1.3,12.2l.8,.8h1l2.9,1.3l2,-1l3.2,2.3l1.5,-1.3h2.1l.8,1.8l2.6,.5l1,-1.5h2.6l1.1,1l-.5,1.6v6.7H777.7l-.5,.8h-6l-2.1,1.1l-5.4,9.1l-2.9,5.4l-1.3,8.1v2.6l-.8,2.6v18.2l-1.8,1.6h1v8.1l-.5,1v13.3l-.5,.5l1,2.3v5.5l1.6,1.1h2.1l5.7,-4l1.8,-2.6l1.1,-4.1v-1.8l1.5,-1.6l1.3,-2.1l.8,-.5l-1,-.8l1.5,-1.5v-3.2l1.1,-2.1l1,-3.1h1.3v1.1h2.1V200l.5,-1.3v-3.6l1.3,-1v-3.4l.5,-.8v-1.3l.6,-1v-2.4l3.1,-4.7v-2.8l3.1,-5h1.6l1.3,-3.9l.5,-.5v-1.6l1.3,-2.6l1.8,-.5l1.6,-3.9l2.6,-2.6l2.3,-1l1.8,-2.1h1.9l.5,.5h4.1l1.3,1.6l3.2,1.3v1.3l1.5,1.5h.5l1.9,2.9v6.5l-.6,2.1l.6,1.5l-.6,1.6l-.7,6.2l-.6,1.9v2.6l-1.5,2.6l-1.3,18.7v15.6l1.3,5.2h2.6l4.4,-7.8l1.1,-1.3l1.5,-3.1l1.6,-2.1l-.5,-.5l.5,-.8l1,-3.6l.8,-.5v-1.6l1.3,-1.6h2.3v-1.5h2.6l1.1,3.1l-.8,.5l.8,5.7l-.5,1.3l1,1.1v1.5l-1.6,1.6l.6,2.3l-2.1,3.7l-1.3,4.4L830,230v2.1l-4.7,6.2l-2,1.3l-1.9,3.1h-2.8l-4.5,1.3l-4.4,-1.3l-2.6,-2.6l-1.8,-5.4h-2.9l-2.8,3.6l-4.7,3.1l-3.1,1.3l-.6,.5h-1.8l-2.3,-2.3l-.8,2.3l-2.3,-.7l1.3,-1.1l-3.2,-2.3H780l-2,-4.4v-1.1h-1.1l-.5,-1.7l-1.3,3.8l-.8,-1l-1.3,.5v1.3l-2.1,4.4l-3.3,1.6l-1.3,1.5l-2.6,.8H761l-1,.5h-2.1l-1,-1H754l-7,-7l-2.1,-6.8h-.8l-.7,-5.5l-.4,-1.3l-1,1.6l-2.3,2.1l-.5,3.9l-3.1,2.1v2.8l-2.1,2.1h-2.6l-.5,1.6l-2.9,2h-2.6l-2.6,1.9h-3.4l-1.6,-1.1h-1.5l-.5,-.8h-1.1l-1.8,-1.8l-1.6,.8l-4.4,-6.2l-1.2,-5.6l-.1,.4l-1,-.8l-1.8,3.4v3.1l-1.9,1.8l-1,2.1l-3.9,2.6l-2.4,3.1l-3.6,1.6Z"/></clipPath>
<style type="text/css"><![CDATA[
.g0_21{
fill: #9C1F5F;
}
]]></style>
</defs>
<path d="M879.6,1286.2h29.8V1029H879.6v257.2Z" class="g0_21"/>
<image clip-path="url(#c0_21)" preserveAspectRatio="none" x="880" y="1035" width="29" height="26" xlink:href="img/1.jpg"/>
<image clip-path="url(#c1_21)" preserveAspectRatio="none" x="882" y="1036" width="23" height="22" xlink:href="img/2.jpg"/>
<image clip-path="url(#c2_21)" preserveAspectRatio="none" x="39" y="37" width="831" height="1210" xlink:href="img/3.jpg"/>
<image clip-path="url(#c3_21)" preserveAspectRatio="none" x="327" y="65" width="522" height="200" xlink:href="img/4.jpg"/>
<image clip-path="url(#c4_21)" preserveAspectRatio="none" x="331" y="66" width="505" height="183" xlink:href="img/5.jpg"/>
<image clip-path="url(#c5_21)" preserveAspectRatio="none" x="174" y="69" width="153" height="32" xlink:href="img/6.jpg"/>
<image clip-path="url(#c6_21)" preserveAspectRatio="none" x="327" y="69" width="5" height="32" xlink:href="img/7.jpg"/>
<image clip-path="url(#c7_21)" preserveAspectRatio="none" x="331" y="69" width="414" height="32" xlink:href="img/8.jpg"/>
<image clip-path="url(#c8_21)" preserveAspectRatio="none" x="331" y="69" width="414" height="32" xlink:href="img/9.jpg"/>
</svg>