<?xml version="1.0" encoding="UTF-8" standalone="no"?>
<!DOCTYPE svg PUBLIC "-//W3C//DTD SVG 1.1//EN"
"http://www.w3.org/Graphics/SVG/1.1/DTD/svg11.dtd">
<svg viewBox="0 0 1818 1286" version="1.1" xmlns="http://www.w3.org/2000/svg" xmlns:xlink="http://www.w3.org/1999/xlink">
<defs>
<style type="text/css"><![CDATA[
.g0_47{
fill: #000;
}
]]></style>
</defs>
<path d="M97.8,83H74.6C72.6,83,71,81.4,71,79.5V76.1c0,-.4,.3,-.7,.7,-.7H95.6c.2,0,.4,.1,.6,.3c.1,.2,.1,.4,.1,.6c-.7,1.8,-.8,3.2,-.3,4.1c.3,.6,1,1.1,2,1.3c.3,.1,.5,.4,.5,.7c-.1,.4,-.3,.6,-.7,.6M72.4,76.8v2.7c0,1.2,1,2.2,2.2,2.2H95.3c-.2,-.2,-.4,-.4,-.5,-.7c-.6,-1.1,-.6,-2.5,-.1,-4.2Z" class="g0_47"/>
<path d="M98.3,83H74.6c-.4,0,-.7,-.3,-.7,-.7c0,-.3,.3,-.6,.7,-.6H98.3c1.7,0,3.1,-1.4,3.1,-3.1V49.8c0,-1.1,.3,-2.1,.8,-2.8H78c-1.5,0,-2.7,1,-2.7,2.2v3.4c0,.4,-.3,.7,-.7,.7c-.4,0,-.7,-.3,-.7,-.7V49.2c0,-1.9,1.8,-3.5,4.1,-3.5h26.6c.4,0,.7,.3,.7,.7c0,.3,-.3,.6,-.7,.6c-1.3,0,-1.8,1.5,-1.8,2.8V78.6c0,2.4,-2,4.4,-4.5,4.4Z" class="g0_47"/>
<path d="M74.6,76.8c-.4,0,-.7,-.3,-.7,-.7V52.5c0,-.4,.3,-.7,.7,-.7c.4,0,.7,.3,.7,.7V76.1c0,.4,-.3,.7,-.7,.7Z" class="g0_47"/>
<path d="M107.6,53.5h-5.4c-.3,0,-.6,-.3,-.6,-.7c0,-.4,.3,-.7,.6,-.7h4.7V49.8c0,-.9,-.2,-1.7,-.5,-2.1c-.4,-.4,-1.1,-.7,-2.2,-.7c-.4,0,-.7,-.3,-.7,-.6c0,-.4,.3,-.7,.7,-.7c1.5,0,2.6,.4,3.3,1.2c.7,.9,.8,2.3,.8,2.9v3c0,.4,-.3,.7,-.7,.7Z" class="g0_47"/>
<path d="M96.8,55.3H87.6c-.4,0,-.7,-.3,-.7,-.6c0,-.4,.3,-.7,.7,-.7h9.2c.3,0,.6,.3,.6,.7c0,.3,-.3,.6,-.6,.6Z" class="g0_47"/>
<path d="M83.1,55.3H79.4c-.4,0,-.7,-.3,-.7,-.6c0,-.4,.3,-.7,.7,-.7h3.7c.4,0,.7,.3,.7,.7c0,.3,-.3,.6,-.7,.6Z" class="g0_47"/>
<path d="M96.8,60.6H93.6c-.4,0,-.7,-.3,-.7,-.6c0,-.4,.3,-.7,.7,-.7h3.2c.3,0,.6,.3,.6,.7c0,.3,-.3,.6,-.6,.6Z" class="g0_47"/>
<path d="M89.6,60.6H79.4c-.4,0,-.7,-.3,-.7,-.6c0,-.4,.3,-.7,.7,-.7H89.6c.4,0,.7,.3,.7,.7c0,.3,-.3,.6,-.7,.6Z" class="g0_47"/>
<path d="M96.8,65.9H90.1c-.4,0,-.7,-.3,-.7,-.7c0,-.3,.3,-.6,.7,-.6h6.7c.3,0,.6,.3,.6,.6c0,.4,-.3,.7,-.6,.7Z" class="g0_47"/>
<path d="M85.3,65.9H79.4c-.4,0,-.7,-.3,-.7,-.7c0,-.3,.3,-.6,.7,-.6h5.9c.4,0,.7,.3,.7,.6c0,.4,-.3,.7,-.7,.7Z" class="g0_47"/>
<path d="M96.8,71.2H79.4c-.4,0,-.7,-.3,-.7,-.7c0,-.3,.3,-.6,.7,-.6H96.8c.3,0,.6,.3,.6,.6c0,.4,-.3,.7,-.6,.7Z" class="g0_47"/>
</svg>