<?xml version="1.0" encoding="UTF-8" standalone="no"?>
<!DOCTYPE svg PUBLIC "-//W3C//DTD SVG 1.1//EN"
"http://www.w3.org/Graphics/SVG/1.1/DTD/svg11.dtd">
<svg viewBox="0 0 909 1286" version="1.1" xmlns="http://www.w3.org/2000/svg" xmlns:xlink="http://www.w3.org/1999/xlink">
<defs>
<clipPath id="c0_24"><path d="M324.8,54.9V0H431.1V54.9Z"/></clipPath>
<clipPath id="c1_24"><path d="M431,54.9V0H537.5V54.9Z"/></clipPath>
<clipPath id="c2_24"><path d="M537.3,54.9V0H643.8V54.9Z"/></clipPath>
<clipPath id="c3_24"><path d="M643.6,54.9V0H750.1V43.3H728.7V54.9Z"/></clipPath>
<clipPath id="c4_24"><path d="M750,43.3V0H856.5V43.3Z"/></clipPath>
<clipPath id="c5_24"><path d="M856.3,109.9V55.4h11.6V43.3H856.3V0h53.1V109.9Z"/></clipPath>
<clipPath id="c6_24"><path d="M324.8,109.9V54.8H431.1v55.1Z"/></clipPath>
<clipPath id="c7_24"><path d="M431,109.9V54.8H537.5v55.1Z"/></clipPath>
<clipPath id="c8_24"><path d="M643.6,109.9V54.8h85.1v.6h21.4v54.5Z"/></clipPath>
<clipPath id="c9_24"><path d="M750,109.9V55.4H856.5v54.5Z"/></clipPath>
<clipPath id="ca_24"><path d="M324.8,164.8V109.7H431.1v55.1Z"/></clipPath>
<clipPath id="cb_24"><path d="M431,164.8V109.7H537.5v55.1Z"/></clipPath>
<clipPath id="cc_24"><path d="M537.3,164.8V109.7H643.8v55.1Z"/></clipPath>
<clipPath id="cd_24"><path d="M643.6,164.8V109.7H750.1v55.1Z"/></clipPath>
<clipPath id="ce_24"><path d="M750,164.8V109.7H856.5v55.1Z"/></clipPath>
<clipPath id="cf_24"><path d="M856.3,219.7v-110h53.1v110Z"/></clipPath>
<clipPath id="cg_24"><path d="M324.8,219.7V164.6H431.1v55.1Z"/></clipPath>
<clipPath id="ch_24"><path d="M431,219.7V164.6H537.5v55.1Z"/></clipPath>
<clipPath id="ci_24"><path d="M643.6,219.7V164.6H750.1v55.1Z"/></clipPath>
<clipPath id="cj_24"><path d="M750,219.7V164.6H856.5v55.1Z"/></clipPath>
<clipPath id="ck_24"><path d="M324.8,274.7V219.5H431.1v55.2Z"/></clipPath>
<clipPath id="cl_24"><path d="M431,274.7V219.5H537.5v37.6H505.1v17.6Z"/></clipPath>
<clipPath id="cm_24"><path d="M537.3,257.1V219.5H643.8v37.6Z"/></clipPath>
<clipPath id="cn_24"><path d="M643.6,257.1V219.5H750.1v37.6Z"/></clipPath>
<clipPath id="co_24"><path d="M750,257.1V219.5H856.5v37.6Z"/></clipPath>
<clipPath id="cp_24"><path d="M866.8,329.4V257.1H856.3V219.5h53.1V329.4Z"/></clipPath>
<clipPath id="cq_24"><path d="M324.8,329.4V274.5H431.1v54.9Z"/></clipPath>
<clipPath id="cr_24"><path d="M431,329.4V274.5h74.1v54.9Z"/></clipPath>
<clipPath id="cs_24"><path d="M728.7,55.4V43.3H867.9V55.4Z"/></clipPath>
<clipPath id="ct_24"><path d="M293.9,1162.7v-12.6H235.6v12.6ZM43.3,1242.9V1142.7H303.1v100.2Z"/></clipPath>
<clipPath id="cu_24"><path d="M235.6,1162.7v-12.6h58.3v12.6Z"/></clipPath>
<clipPath id="cv_24"><path d="M778.7,358.3v-5.1h87.4v-2.3h-11V329.4h11.7v28.9Z"/></clipPath>
<clipPath id="cw_24"><path d="M855.1,329.4V288.2c0,-3.9,-1.2,-7.5,-3.3,-10.5v-2.6h-2.2c-3.3,-3.3,-7.8,-5.3,-12.8,-5.3H794.4c-5,0,-9.5,2,-12.8,5.3h-2.5v3.1c-.2,.2,-.3,.4,-.4,.6V257.1h88.1v72.3Z"/></clipPath>
<clipPath id="cx_24"><path d="M855.1,353.2v-2.3h11v2.3Z"/></clipPath>
<clipPath id="cy_24"><path d="M779.1,278.2v-3.1h2.5c-1,.9,-1.8,1.9,-2.5,3.1Zm72.7,-.5c-.6,-.9,-1.4,-1.8,-2.2,-2.6h2.2v2.6Z"/></clipPath>
<clipPath id="cz_24"><path d="M690.7,358.3v-5.1h78.7v5.1ZM767,350.9V329.4h2.4v21.5Z"/></clipPath>
<clipPath id="c10_24"><path d="M767,329.4V288.2c0,-10.2,-8.2,-18.4,-18.3,-18.4H706.3c-6.6,0,-12.3,3.5,-15.6,8.7V257.1h78.7v72.3Z"/></clipPath>
<clipPath id="c11_24"><path d="M767,353.2v-2.3h2.4v2.3Z"/></clipPath>
<clipPath id="c12_24"><path d="M769.4,358.3v-5.1h9.3v5.1Zm0,-7.4V329.4h6.7V346H776v4.9Z"/></clipPath>
<clipPath id="c13_24"><path d="M769.4,329.4V257.1h9.3v21.7c-1.7,2.7,-2.6,5.9,-2.6,9.4v41.2Z"/></clipPath>
<clipPath id="c14_24"><path d="M769.4,353.2v-2.3H776v2.3Z"/></clipPath>
<clipPath id="c15_24"><path d="M776.1,346V288.2c0,-3.5,.9,-6.7,2.6,-9.4V346Z"/></clipPath>
<clipPath id="c16_24"><path d="M776,353.2V346h2.7v7.2Z"/></clipPath>
<clipPath id="c17_24"><path d="M602.5,358.3v-5.1h78.8v5.1Zm76.6,-7.4V329.4h2.2v21.5Z"/></clipPath>
<clipPath id="c18_24"><path d="M679.1,329.4V288.2c0,-10.2,-8.2,-18.4,-18.4,-18.4H618.4c-6.8,0,-12.8,3.8,-15.9,9.3v-22h78.8v72.3Z"/></clipPath>
<clipPath id="c19_24"><path d="M679.1,353.2v-2.3h2.2v2.3Z"/></clipPath>
<clipPath id="c1a_24"><path d="M681.3,358.3v-5.1h9.4v5.1Zm0,-7.4V329.4H688V346h-.1v4.9Z"/></clipPath>
<clipPath id="c1b_24"><path d="M681.3,329.4V257.1h9.4v21.4c-1.7,2.8,-2.7,6.1,-2.7,9.7v41.2Z"/></clipPath>
<clipPath id="c1c_24"><path d="M681.3,353.2v-2.3h6.6v2.3Z"/></clipPath>
<clipPath id="c1d_24"><path d="M688,346V288.2c0,-3.6,1,-6.9,2.7,-9.7V346Z"/></clipPath>
<clipPath id="c1e_24"><path d="M687.9,353.2V346h2.8v7.2Z"/></clipPath>
<clipPath id="c1f_24"><path d="M505.1,358.3v-5.1h88.3v5.1Zm0,-7.4V329.4h88.3v21.5Z"/></clipPath>
<clipPath id="c1g_24"><path d="M505.1,329.4V257.1h88.3v72.3Z"/></clipPath>
<clipPath id="c1h_24"><path d="M505.1,353.2v-2.3h88.3v2.3Z"/></clipPath>
<clipPath id="c1i_24"><path d="M593.4,358.3v-5.1h9.1v5.1Zm0,-7.4V329.4h6.7V346H600v4.9Z"/></clipPath>
<clipPath id="c1j_24"><path d="M593.4,329.4V257.1h9.1v22c-1.6,2.7,-2.4,5.8,-2.4,9.1v41.2Z"/></clipPath>
<clipPath id="c1k_24"><path d="M593.4,353.2v-2.3H600v2.3Z"/></clipPath>
<clipPath id="c1l_24"><path d="M600.1,346V288.2c0,-3.3,.8,-6.4,2.4,-9.1V346Z"/></clipPath>
<clipPath id="c1m_24"><path d="M600,353.2V346h2.5v7.2Z"/></clipPath>
<style type="text/css"><![CDATA[
.g0_24{
fill: #E7E8E8;
}
.g1_24{
fill: #1B1661;
}
.g2_24{
fill: #DCDDDE;
}
.g3_24{
fill: #FFF;
}
.g4_24{
fill: #FCB61D;
}
.g5_24{
fill: #FEE6BB;
}
.g6_24{
fill: #CFCBCA;
}
.g7_24{
fill: #5AC4C1;
}
.g8_24{
fill: #09B795;
}
.g9_24{
fill: #F37537;
}
.ga_24{
fill: #5180C1;
}
]]></style>
</defs>
<image clip-path="url(#c0_24)" preserveAspectRatio="none" x="325" y="0" width="106" height="55" xlink:href="img/1.jpg"/>
<image clip-path="url(#c1_24)" preserveAspectRatio="none" x="431" y="0" width="106" height="55" xlink:href="img/2.jpg"/>
<image clip-path="url(#c2_24)" preserveAspectRatio="none" x="537" y="0" width="107" height="55" xlink:href="img/3.jpg"/>
<image clip-path="url(#c3_24)" preserveAspectRatio="none" x="644" y="0" width="106" height="55" xlink:href="img/4.jpg"/>
<image clip-path="url(#c4_24)" preserveAspectRatio="none" x="750" y="0" width="106" height="55" xlink:href="img/5.jpg"/>
<image clip-path="url(#c5_24)" preserveAspectRatio="none" x="856" y="0" width="54" height="110" xlink:href="img/6.jpg"/>
<image clip-path="url(#c6_24)" preserveAspectRatio="none" x="325" y="55" width="106" height="55" xlink:href="img/7.jpg"/>
<image clip-path="url(#c7_24)" preserveAspectRatio="none" x="431" y="55" width="106" height="55" xlink:href="img/8.jpg"/>
<image preserveAspectRatio="none" x="537" y="55" width="107" height="55" xlink:href="img/9.jpg"/>
<image clip-path="url(#c8_24)" preserveAspectRatio="none" x="644" y="55" width="106" height="55" xlink:href="img/10.jpg"/>
<image clip-path="url(#c9_24)" preserveAspectRatio="none" x="750" y="55" width="106" height="55" xlink:href="img/11.jpg"/>
<image clip-path="url(#ca_24)" preserveAspectRatio="none" x="325" y="110" width="106" height="55" xlink:href="img/12.jpg"/>
<image clip-path="url(#cb_24)" preserveAspectRatio="none" x="431" y="110" width="106" height="55" xlink:href="img/13.jpg"/>
<image clip-path="url(#cc_24)" preserveAspectRatio="none" x="537" y="110" width="107" height="55" xlink:href="img/14.jpg"/>
<image clip-path="url(#cd_24)" preserveAspectRatio="none" x="644" y="110" width="106" height="55" xlink:href="img/15.jpg"/>
<image clip-path="url(#ce_24)" preserveAspectRatio="none" x="750" y="110" width="106" height="55" xlink:href="img/16.jpg"/>
<image clip-path="url(#cf_24)" preserveAspectRatio="none" x="856" y="110" width="54" height="110" xlink:href="img/17.jpg"/>
<image clip-path="url(#cg_24)" preserveAspectRatio="none" x="325" y="165" width="106" height="55" xlink:href="img/18.jpg"/>
<image clip-path="url(#ch_24)" preserveAspectRatio="none" x="431" y="165" width="106" height="55" xlink:href="img/19.jpg"/>
<image preserveAspectRatio="none" x="537" y="165" width="107" height="55" xlink:href="img/20.jpg"/>
<image clip-path="url(#ci_24)" preserveAspectRatio="none" x="644" y="165" width="106" height="55" xlink:href="img/21.jpg"/>
<image clip-path="url(#cj_24)" preserveAspectRatio="none" x="750" y="165" width="106" height="55" xlink:href="img/22.jpg"/>
<image clip-path="url(#ck_24)" preserveAspectRatio="none" x="325" y="220" width="106" height="55" xlink:href="img/23.jpg"/>
<image clip-path="url(#cl_24)" preserveAspectRatio="none" x="431" y="220" width="106" height="55" xlink:href="img/24.jpg"/>
<image clip-path="url(#cm_24)" preserveAspectRatio="none" x="537" y="220" width="107" height="55" xlink:href="img/25.jpg"/>
<image clip-path="url(#cn_24)" preserveAspectRatio="none" x="644" y="220" width="106" height="55" xlink:href="img/26.jpg"/>
<image clip-path="url(#co_24)" preserveAspectRatio="none" x="750" y="220" width="106" height="55" xlink:href="img/27.jpg"/>
<image clip-path="url(#cp_24)" preserveAspectRatio="none" x="856" y="220" width="54" height="110" xlink:href="img/28.jpg"/>
<image clip-path="url(#cq_24)" preserveAspectRatio="none" x="325" y="275" width="106" height="55" xlink:href="img/29.jpg"/>
<image clip-path="url(#cr_24)" preserveAspectRatio="none" x="431" y="275" width="106" height="55" xlink:href="img/30.jpg"/>
<image clip-path="url(#cs_24)" preserveAspectRatio="none" x="729" y="43" width="139" height="13" xlink:href="img/31.jpg"/>
<path d="M43.3,1129.8H303.1V835.5H43.3v294.3Z" class="g0_24"/>
<path d="M43.3,835.5H303.1v27.7H43.3V835.5Z" class="g1_24"/>
<path d="M43.3,863.2H303.1v25.2H43.3V863.2Zm0,227.5H303.1v39.1H43.3v-39.1Z" class="g2_24"/>
<path d="M43.3,888.8H303.1v-.7H43.3v.7Z" class="g3_24"/>
<path d="M43.3,1091.1H303.1v-.8H43.3v.8Z" class="g3_24"/>
<path d="M62.4,847.1l-1,-.6c-.2,-.2,-.6,-.1,-.8,.1l-4.7,7l-2.1,-2.2c-.2,-.2,-.6,-.2,-.8,0l-.9,.8c-.2,.3,-.2,.6,0,.9l3.4,3.3c.1,.2,.4,.3,.7,.3c.3,0,.5,-.2,.7,-.4l5.7,-8.4c.1,-.2,.1,-.6,-.2,-.8Z" class="g3_24"/>
<path d="M607.1,974.3h-.8v267.5H866.1V973.5H606.3v.8h.8v.8H864.6v265.2H607.8v-266h-.7v.8Z" class="g1_24"/>
<path d="M651.3,979.7H821.1V966H651.3Z" class="g3_24"/>
<image clip-path="url(#ct_24)" preserveAspectRatio="none" x="43" y="1143" width="260" height="100" xlink:href="img/32.jpg"/>
<image clip-path="url(#cu_24)" preserveAspectRatio="none" x="236" y="1150" width="58" height="13" xlink:href="img/33.jpg"/>
<path d="M324.8,1242.9H584.6V1033.7H324.8v209.2Z" class="g0_24"/>
<path d="M324.8,1033.7H584.6v26.2H324.8v-26.2Z" class="g1_24"/>
<path d="M324.8,1082.1H511.6v22.1H324.8v-22.1Zm186.8,0h73v22.1h-73v-22.1Zm-186.8,58.8H511.6v22.2H324.8v-22.2Zm186.8,0h73v22.2h-73v-22.2Zm-186.8,44.3H511.6v36.7H324.8v-36.7Zm186.8,0h73v36.7h-73v-36.7Z" class="g2_24"/>
<path d="M324.8,1222.7H511.6v-1.6H324.8Z" class="g3_24"/>
<path d="M511.6,1222.7h73v-1.6h-73Z" class="g3_24"/>
<path d="M343.9,1043.9l-1,-.7c-.2,-.2,-.6,-.1,-.8,.2l-4.7,6.9l-2.1,-2.2c-.3,-.2,-.6,-.2,-.8,0l-.9,.9c-.2,.2,-.2,.5,0,.8l3.4,3.3c.1,.2,.4,.3,.7,.3c.3,0,.5,-.1,.7,-.4l5.7,-8.3c.1,-.3,.1,-.7,-.2,-.8Z" class="g3_24"/>
<path d="M43.3,164.5H78v40.4H43.3V164.5Z" class="g3_24"/>
<image x="77" y="164" width="227" height="41" xlink:href="shade/1.png"/>
<path d="M78,185.6H303.1v-1.5H78Z" class="g4_24"/>
<path d="M61.2,203.4c9.8,0,17.8,-8,17.8,-17.8c0,-9.9,-8,-17.9,-17.8,-17.9c-9.9,0,-17.9,8,-17.9,17.9c0,9.8,8,17.8,17.9,17.8Z" class="g4_24"/>
<path d="M71.6,187.3c0,.8,.2,1.5,.2,2.2c0,2,-1,3.6,-2.7,4.7c-1.3,.9,-2.8,1.2,-4.3,1.3c-2.4,0,-4.8,0,-7.2,0c-1.7,-.1,-3.2,-.5,-4.5,-1.4c-2,-1.4,-2.8,-3.2,-2.5,-5.6c.2,-2,.3,-3.9,.4,-5.9c0,-1.8,0,-3.6,-.1,-5.4c0,-2.1,.9,-3.8,2.5,-5c1.5,-1.1,3.2,-1.6,5,-1.6c1.9,0,3.8,0,5.7,0c1.6,0,3.2,.5,4.6,1.4c1.9,1.4,2.9,3.2,2.7,5.7c-.1,1.1,0,2.4,0,3.6c-.1,0,.1,4,.2,6M61.2,171.9v-.1c-1,0,-1.9,0,-2.9,0c-1.3,0,-2.5,.3,-3.6,1c-1.6,1,-2.7,2.3,-2.6,4.2c.1,.8,.3,1.7,.6,2.5c.4,1.3,1.1,2.6,2.2,3.5c.2,.3,.2,.6,-.1,.9c-.6,.6,-1.3,1.2,-2.1,1.5c-.6,.2,-.7,.5,-.7,1c-.1,.5,.1,.8,.4,1.2c.8,.8,1.7,1.4,2.7,1.8c1.8,.7,3.7,1,5.6,1c2,.1,4.1,-.1,6,-.8c1.4,-.5,2.6,-1.2,3.5,-2.3c0,-.1,.1,-.3,.1,-.5c0,-.3,0,-.6,0,-1l-.2,-.2c-1.1,-.4,-1.9,-1,-2.6,-1.7c-.3,-.3,-.3,-.6,0,-1c.4,-.4,.9,-.9,1.2,-1.4c.8,-1.3,1.2,-2.6,1.4,-4c.2,-1.2,0,-2.2,-.7,-3.2c-1.2,-1.5,-2.8,-2.3,-4.7,-2.4c-1.1,-.1,-2.3,0,-3.5,0m-9.4,16.5c-.3,1.6,0,3,1.3,4.2c1.3,1.2,2.8,1.7,4.6,1.7c2.3,0,4.6,0,6.9,0c.8,0,1.6,-.1,2.4,-.4c1.4,-.5,2.5,-1.3,3.2,-2.6c.5,-1,.5,-2,.3,-3l-.1,.1c-1.1,1.4,-2.6,2.1,-4.3,2.6c-2.9,.8,-5.7,.8,-8.6,.3c-1.4,-.2,-2.8,-.7,-3.9,-1.5c-.7,-.4,-1.2,-.9,-1.8,-1.4Z" class="g5_24"/>
<path d="M55.8,195.9c-.5,.4,-1,.7,-1.5,1.1c-.5,.4,-1.7,1.4,-2.2,1.8c-.3,.2,-.6,.2,-.8,.1l-.3,-.3c-.1,-.2,0,-.5,.2,-.6c.3,-.3,1.4,-1.2,1.7,-1.4c.4,-.3,.9,-.7,1.3,-1l.4,-.1c.4,.1,.8,.3,1.2,.4Z" class="g5_24"/>
<path d="M66.5,195.9c.5,-.2,.9,-.3,1.3,-.4l.3,.1c.7,.6,2.3,1.8,3,2.3c.1,.1,.3,.3,.3,.4c.1,.2,.1,.5,-.2,.6c-.2,.1,-.5,.1,-.7,0c-1.1,-.7,-2.9,-2.2,-4,-3Z" class="g5_24"/>
<path d="M61.1,182.5c-1.1,0,-2.1,.1,-3.2,0c-2,-.1,-3.5,-1.6,-3.9,-3.5c-.1,-.5,-.2,-1,-.3,-1.5c-.3,-1.9,1,-3.6,3,-3.6c3,0,6,0,9,0c1.8,.1,3.1,1.5,2.9,3.4c-.1,1,-.2,2.1,-.8,3.1c-.9,1.4,-2.2,2.2,-3.9,2.1c-.9,0,-1.8,0,-2.8,0Z" class="g5_24"/>
<path d="M65.7,185.2c.3,0,.5,0,.8,0c.4,0,.7,.3,.6,.6c-.5,.9,-1,1.8,-1.5,2.6c-.1,.2,-.3,.3,-.6,.3c-.5,0,-1.1,0,-1.6,0c-.5,0,-.7,-.3,-.5,-.7c.4,-.8,.9,-1.6,1.4,-2.5c.1,-.2,.3,-.3,.7,-.3c.2,0,.5,0,.7,0Z" class="g5_24"/>
<path d="M58.1,188.7c-.2,0,-.5,0,-.7,0c-.3,0,-.6,-.1,-.7,-.3c-.5,-.9,-.9,-1.7,-1.4,-2.5c-.2,-.4,0,-.7,.6,-.7c.5,0,1,0,1.5,0c.3,0,.5,.1,.6,.3c.5,.9,1,1.7,1.5,2.5c.2,.4,-.1,.7,-.6,.7c-.2,0,-.5,0,-.8,0Z" class="g5_24"/>
<path d="M62.2,193c0,.6,-.5,1.1,-1,1.1c-.6,0,-1.1,-.5,-1.1,-1.1c0,-.5,.5,-1,1,-1c.6,0,1.1,.4,1.1,1Z" class="g5_24"/>
<path d="M43.3,804.2H303.2v-1.5H43.3Z" class="g6_24"/>
<path d="M303.2,266.1V245.7h-.8v20.4Z" class="g3_24"/>
<path d="M303.2,290.9V266.1h-.8v24.8Z" class="g3_24"/>
<path d="M219.1,311.5V290.9h-.8v20.6Z" class="g3_24"/>
<path d="M303.2,311.5V290.9h-.8v20.6Z" class="g3_24"/>
<path d="M219.1,332.1V311.5h-.8v20.6Z" class="g3_24"/>
<path d="M303.2,332.1V311.5h-.8v20.6Z" class="g3_24"/>
<path d="M219.1,352.7V332.1h-.8v20.6Z" class="g3_24"/>
<path d="M303.2,352.7V332.1h-.8v20.6Z" class="g3_24"/>
<path d="M219.1,373.4V352.7h-.8v20.7Z" class="g3_24"/>
<path d="M303.2,373.4V352.7h-.8v20.7Z" class="g3_24"/>
<path d="M219.1,394V373.4h-.8V394Z" class="g3_24"/>
<path d="M303.2,394V373.4h-.8V394Z" class="g3_24"/>
<path d="M219.1,414.6V394h-.8v20.6Z" class="g3_24"/>
<path d="M303.2,414.6V394h-.8v20.6Z" class="g3_24"/>
<path d="M219.1,435.2V414.6h-.8v20.6Z" class="g3_24"/>
<path d="M303.2,435.2V414.6h-.8v20.6Z" class="g3_24"/>
<path d="M219.1,455.8V435.2h-.8v20.6Z" class="g3_24"/>
<path d="M303.2,455.8V435.2h-.8v20.6Z" class="g3_24"/>
<path d="M219.1,476.4V455.8h-.8v20.6Z" class="g3_24"/>
<path d="M303.2,476.4V455.8h-.8v20.6Z" class="g3_24"/>
<path d="M219.1,497.1V476.4h-.8v20.7Z" class="g3_24"/>
<path d="M303.2,497.1V476.4h-.8v20.7Z" class="g3_24"/>
<path d="M219.1,517.7V497.1h-.8v20.6Z" class="g3_24"/>
<path d="M303.2,517.7V497.1h-.8v20.6Z" class="g3_24"/>
<path d="M78,266.8H218.7v-1.5H78Z" class="g4_24"/>
<path d="M218.7,266.8h83.7v-1.5H218.7Z" class="g4_24"/>
<path d="M61.2,284.6c9.8,0,17.8,-8,17.8,-17.8c0,-9.9,-8,-17.9,-17.8,-17.9c-9.9,0,-17.9,8,-17.9,17.9c0,9.8,8,17.8,17.9,17.8Z" class="g4_24"/>
<path d="M71.6,268.5c0,.8,.2,1.5,.2,2.2c0,2,-1,3.6,-2.7,4.7c-1.3,.8,-2.8,1.2,-4.3,1.3c-2.4,0,-4.8,0,-7.2,0c-1.7,-.1,-3.2,-.5,-4.5,-1.4c-2,-1.4,-2.8,-3.2,-2.5,-5.6c.2,-2,.3,-3.9,.4,-5.9c0,-1.8,0,-3.6,-.1,-5.4c0,-2.2,.9,-3.8,2.5,-5c1.5,-1.1,3.2,-1.6,5,-1.6c1.9,0,3.8,0,5.7,0c1.6,0,3.2,.5,4.6,1.4c1.9,1.4,2.9,3.2,2.7,5.6c-.1,1.2,0,2.4,0,3.6c-.1,0,.1,4.1,.2,6.1M61.2,253v0c-1,0,-1.9,0,-2.9,0c-1.3,0,-2.5,.3,-3.6,1c-1.6,.9,-2.7,2.2,-2.6,4.2c.1,.8,.3,1.7,.6,2.5c.4,1.3,1.1,2.6,2.2,3.5c.2,.2,.2,.6,-.1,.9c-.6,.6,-1.3,1.2,-2.1,1.5c-.6,.2,-.7,.5,-.7,1c-.1,.5,.1,.8,.4,1.2c.8,.8,1.7,1.3,2.7,1.8c1.8,.7,3.7,1,5.6,1c2,0,4.1,-.1,6,-.8c1.4,-.5,2.6,-1.2,3.5,-2.3c0,-.2,.1,-.3,.1,-.5c0,-.3,0,-.7,0,-1l-.2,-.3c-1,-.3,-1.9,-.9,-2.6,-1.6c-.3,-.3,-.3,-.7,0,-1c.4,-.4,.9,-.9,1.2,-1.4c.8,-1.3,1.2,-2.6,1.4,-4c.2,-1.2,0,-2.2,-.7,-3.2c-1.2,-1.5,-2.8,-2.3,-4.7,-2.4C63.6,253,62.4,253,61.2,253m-9.4,16.6c-.3,1.6,0,3,1.3,4.2c1.3,1.2,2.8,1.6,4.6,1.7c2.3,0,4.6,0,6.9,0c.8,0,1.6,-.1,2.4,-.4c1.4,-.5,2.5,-1.3,3.2,-2.6c.5,-1,.5,-2,.3,-3h-.1c-1.1,1.5,-2.6,2.2,-4.3,2.7c-2.9,.8,-5.7,.8,-8.6,.3c-1.4,-.2,-2.8,-.7,-3.9,-1.5c-.7,-.4,-1.2,-.9,-1.8,-1.4Z" class="g5_24"/>
<path d="M55.8,277.1c-.5,.4,-1,.7,-1.5,1.1c-.5,.4,-1.7,1.4,-2.2,1.8c-.3,.2,-.6,.2,-.8,.1l-.3,-.3c-.1,-.3,0,-.5,.2,-.6c.3,-.3,1.4,-1.2,1.7,-1.4c.4,-.4,.9,-.7,1.3,-1l.4,-.1c.4,.1,.8,.2,1.2,.4Z" class="g5_24"/>
<path d="M66.5,277.1c.5,-.2,.9,-.3,1.3,-.4l.3,.1c.7,.5,2.3,1.7,3,2.3c.1,.1,.3,.2,.3,.4c.1,.2,.1,.5,-.2,.6c-.2,.1,-.5,.1,-.7,0c-1.1,-.7,-2.9,-2.2,-4,-3Z" class="g5_24"/>
<path d="M61.1,263.7c-1.1,0,-2.1,.1,-3.2,0c-2,-.1,-3.5,-1.6,-3.9,-3.5c-.1,-.5,-.2,-1,-.3,-1.5c-.3,-1.9,1,-3.6,3,-3.6c3,0,6,0,9,0c1.8,0,3.1,1.5,2.9,3.4c-.1,1,-.2,2.1,-.8,3.1c-.9,1.4,-2.2,2.1,-3.9,2.1c-.9,0,-1.8,0,-2.8,0Z" class="g5_24"/>
<path d="M65.7,266.4c.3,0,.5,0,.8,0c.4,0,.7,.3,.6,.6c-.5,.9,-1,1.7,-1.5,2.6c-.1,.2,-.3,.3,-.6,.3c-.5,0,-1.1,0,-1.6,0c-.5,0,-.7,-.3,-.5,-.7c.4,-.8,.9,-1.6,1.4,-2.5c.1,-.2,.3,-.3,.7,-.3c.2,0,.5,0,.7,0Z" class="g5_24"/>
<path d="M58.1,269.9c-.2,0,-.5,0,-.7,0c-.3,0,-.6,-.1,-.7,-.4c-.5,-.8,-.9,-1.6,-1.4,-2.4c-.2,-.4,0,-.7,.6,-.7c.5,0,1,0,1.5,0c.3,0,.5,.1,.6,.3c.5,.9,1,1.7,1.5,2.5c.2,.3,-.1,.6,-.6,.7c-.2,0,-.5,0,-.8,0Z" class="g5_24"/>
<path d="M62.2,274.2c0,.6,-.5,1,-1,1c-.6,0,-1.1,-.4,-1.1,-1c0,-.5,.5,-1,1,-1c.6,-.1,1.1,.4,1.1,1Z" class="g5_24"/>
<path d="M218.9,247.9v-30h-3v30Z" class="g3_24"/>
<path d="M303.1,546.7V526.3h-.7v20.4Z" class="g3_24"/>
<path d="M303.1,571.6V546.7h-.7v24.9Z" class="g3_24"/>
<path d="M219.1,592.2V571.6h-.8v20.6Z" class="g3_24"/>
<path d="M303.1,592.2V571.6h-.7v20.6Z" class="g3_24"/>
<path d="M219.1,612.8V592.2h-.8v20.6Z" class="g3_24"/>
<path d="M303.1,612.8V592.2h-.7v20.6Z" class="g3_24"/>
<path d="M219.1,633.4V612.8h-.8v20.6Z" class="g3_24"/>
<path d="M303.1,633.4V612.8h-.7v20.6Z" class="g3_24"/>
<path d="M219.1,654V633.4h-.8V654Z" class="g3_24"/>
<path d="M303.1,654V633.4h-.7V654Z" class="g3_24"/>
<path d="M219.1,674.6V654h-.8v20.6Z" class="g3_24"/>
<path d="M303.1,674.6V654h-.7v20.6Z" class="g3_24"/>
<path d="M219.1,695.2V674.6h-.8v20.6Z" class="g3_24"/>
<path d="M303.1,695.2V674.6h-.7v20.6Z" class="g3_24"/>
<path d="M219.1,715.9V695.2h-.8v20.7Z" class="g3_24"/>
<path d="M303.1,715.9V695.2h-.7v20.7Z" class="g3_24"/>
<path d="M219.1,736.5V715.9h-.8v20.6Z" class="g3_24"/>
<path d="M303.1,736.5V715.9h-.7v20.6Z" class="g3_24"/>
<path d="M219.1,757.1V736.5h-.8v20.6Z" class="g3_24"/>
<path d="M303.1,757.1V736.5h-.7v20.6Z" class="g3_24"/>
<path d="M219.1,777.7V757.1h-.8v20.6Z" class="g3_24"/>
<path d="M303.1,777.7V757.1h-.7v20.6Z" class="g3_24"/>
<path d="M219.1,798.3V777.7h-.8v20.6Z" class="g3_24"/>
<path d="M303.1,798.3V777.7h-.7v20.6Z" class="g3_24"/>
<path d="M78,547.5H218.7V546H78Z" class="g4_24"/>
<path d="M218.7,547.5h83.7V546H218.7Z" class="g4_24"/>
<path d="M61.2,565.3c9.8,0,17.8,-8,17.8,-17.9c0,-9.8,-8,-17.8,-17.8,-17.8c-9.9,0,-17.9,8,-17.9,17.8c0,9.9,8,17.9,17.9,17.9Z" class="g4_24"/>
<path d="M71.6,549.2c0,.7,.2,1.4,.2,2.2c0,2,-1,3.5,-2.7,4.6c-1.3,.9,-2.8,1.3,-4.3,1.3c-2.4,0,-4.8,0,-7.2,0c-1.7,0,-3.2,-.4,-4.5,-1.3c-2,-1.4,-2.8,-3.3,-2.5,-5.7c.2,-1.9,.3,-3.9,.4,-5.8c0,-1.9,0,-3.7,-.1,-5.5c0,-2.1,.9,-3.7,2.5,-5c1.5,-1,3.2,-1.5,5,-1.5c1.9,-.1,3.8,-.1,5.7,0c1.6,0,3.2,.4,4.6,1.4c1.9,1.3,2.9,3.2,2.7,5.6c-.1,1.2,0,2.4,0,3.6c-.1,0,.1,4.1,.2,6.1M61.2,533.7v-.1c-1,0,-1.9,0,-2.9,0c-1.3,.1,-2.5,.4,-3.6,1.1c-1.6,.9,-2.7,2.2,-2.6,4.1c.1,.9,.3,1.7,.6,2.5c.4,1.4,1.1,2.6,2.2,3.6c.2,.2,.2,.5,-.1,.8c-.6,.7,-1.3,1.3,-2.1,1.5c-.6,.2,-.7,.5,-.7,1c-.1,.5,.1,.9,.4,1.2c.8,.8,1.7,1.4,2.7,1.8c1.8,.8,3.7,1,5.6,1.1c2,0,4.1,-.2,6,-.9c1.4,-.5,2.6,-1.1,3.5,-2.3c0,-.1,.1,-.3,.1,-.4c0,-.3,0,-.7,0,-1l-.2,-.3c-1.1,-.3,-1.9,-.9,-2.6,-1.7c-.3,-.3,-.3,-.6,0,-.9c.4,-.5,.9,-1,1.2,-1.5c.8,-1.2,1.2,-2.6,1.4,-4c.2,-1.1,0,-2.2,-.7,-3.1c-1.2,-1.6,-2.8,-2.3,-4.7,-2.5c-1.1,-.1,-2.3,0,-3.5,0m-9.4,16.5c-.3,1.6,0,3.1,1.3,4.2c1.3,1.2,2.8,1.7,4.6,1.7c2.3,0,4.6,0,6.9,0c.8,0,1.6,-.1,2.4,-.3c1.4,-.5,2.5,-1.3,3.2,-2.7c.5,-.9,.5,-1.9,.3,-2.9h-.1c-1.1,1.4,-2.6,2.2,-4.3,2.7c-2.9,.7,-5.7,.7,-8.6,.2c-1.4,-.2,-2.8,-.6,-3.9,-1.4c-.7,-.4,-1.2,-1,-1.8,-1.5Z" class="g5_24"/>
<path d="M55.8,557.7c-.5,.4,-1,.8,-1.5,1.2c-.5,.4,-1.7,1.3,-2.2,1.8c-.3,.2,-.6,.1,-.8,.1l-.3,-.4c-.1,-.2,0,-.4,.2,-.6c.3,-.2,1.4,-1.1,1.7,-1.4c.4,-.3,.9,-.6,1.3,-.9l.4,-.1c.4,.1,.8,.2,1.2,.3Z" class="g5_24"/>
<path d="M66.5,557.7c.5,-.1,.9,-.3,1.3,-.4l.3,.1c.7,.6,2.3,1.8,3,2.4c.1,.1,.3,.2,.3,.3c.1,.3,.1,.6,-.2,.6c-.2,.1,-.5,.2,-.7,.1c-1.1,-.8,-2.9,-2.2,-4,-3.1Z" class="g5_24"/>
<path d="M61.1,544.4c-1.1,0,-2.1,0,-3.2,0c-2,-.2,-3.5,-1.6,-3.9,-3.6c-.1,-.5,-.2,-.9,-.3,-1.4c-.3,-1.9,1,-3.6,3,-3.6c3,0,6,0,9,0c1.8,0,3.1,1.5,2.9,3.3c-.1,1.1,-.2,2.2,-.8,3.1c-.9,1.4,-2.2,2.2,-3.9,2.2c-.9,0,-1.8,0,-2.8,0Z" class="g5_24"/>
<path d="M65.7,547.1c.3,0,.5,0,.8,0c.4,0,.7,.3,.6,.6c-.5,.9,-1,1.7,-1.5,2.6c-.1,.1,-.3,.2,-.6,.2c-.5,0,-1.1,0,-1.6,0c-.5,0,-.7,-.3,-.5,-.6c.4,-.9,.9,-1.7,1.4,-2.5c.1,-.2,.3,-.3,.7,-.3c.2,0,.5,0,.7,0Z" class="g5_24"/>
<path d="M58.1,550.5c-.2,0,-.5,0,-.7,0c-.3,0,-.6,-.1,-.7,-.3c-.5,-.8,-.9,-1.6,-1.4,-2.4c-.2,-.4,0,-.7,.6,-.7c.5,0,1,0,1.5,0c.3,0,.5,.1,.6,.3c.5,.8,1,1.7,1.5,2.5c.2,.3,-.1,.6,-.6,.6c-.2,0,-.5,0,-.8,0Z" class="g5_24"/>
<path d="M62.2,554.9c0,.5,-.5,1,-1,1c-.6,0,-1.1,-.5,-1.1,-1c0,-.6,.5,-1.1,1,-1.1c.6,0,1.1,.5,1.1,1.1Z" class="g5_24"/>
<path d="M324.8,353.2H866.1v-2.3H324.8v2.3Z" class="g7_24"/>
<image clip-path="url(#cv_24)" preserveAspectRatio="none" x="769" y="329" width="98" height="30" xlink:href="img/34.jpg"/>
<image clip-path="url(#cw_24)" preserveAspectRatio="none" x="779" y="257" width="88" height="72" xlink:href="img/35.jpg"/>
<image clip-path="url(#cx_24)" preserveAspectRatio="none" x="778" y="350" width="89" height="4" xlink:href="img/36.jpg"/>
<image clip-path="url(#cy_24)" preserveAspectRatio="none" x="779" y="275" width="73" height="3" xlink:href="img/37.jpg"/>
<path d="M794.4,269.8c-10.1,0,-18.3,8.2,-18.3,18.4v64.1h79V288.2c0,-10.2,-8.2,-18.4,-18.3,-18.4Z" class="g3_24"/>
<path d="M776,353.2h79.1V346H776v7.2Z" class="g7_24"/>
<path d="M781.4,328.3h2.4c.2,0,.3,-.2,.3,-.4c0,-.2,-.1,-.4,-.3,-.4h-2.4c-.2,0,-.3,.2,-.3,.4c0,.2,.1,.4,.3,.4m3.9,0h2.3c.3,0,.4,-.2,.4,-.4c0,-.2,-.1,-.4,-.4,-.4h-2.3c-.2,0,-.4,.2,-.4,.4c0,.2,.2,.4,.4,.4m3.9,0h2.3c.2,0,.4,-.2,.4,-.4c0,-.2,-.2,-.4,-.4,-.4h-2.3c-.2,0,-.4,.2,-.4,.4c0,.2,.2,.4,.4,.4m3.9,0h2.3c.2,0,.4,-.2,.4,-.4c0,-.2,-.2,-.4,-.4,-.4h-2.3c-.2,0,-.4,.2,-.4,.4c0,.2,.2,.4,.4,.4m3.9,0h2.3c.2,0,.4,-.2,.4,-.4c0,-.2,-.2,-.4,-.4,-.4H797c-.2,0,-.4,.2,-.4,.4c0,.2,.2,.4,.4,.4m3.8,0h2.4c.2,0,.4,-.2,.4,-.4c0,-.2,-.2,-.4,-.4,-.4h-2.4c-.2,0,-.3,.2,-.3,.4c0,.2,.1,.4,.3,.4m3.9,0h2.4c.2,0,.3,-.2,.3,-.4c0,-.2,-.1,-.4,-.3,-.4h-2.4c-.2,0,-.4,.2,-.4,.4c0,.2,.2,.4,.4,.4m3.9,0h2.3c.2,0,.4,-.2,.4,-.4c0,-.2,-.2,-.4,-.4,-.4h-2.3c-.2,0,-.4,.2,-.4,.4c0,.2,.2,.4,.4,.4m3.9,0h2.3c.2,0,.4,-.2,.4,-.4c0,-.2,-.2,-.4,-.4,-.4h-2.3c-.2,0,-.4,.2,-.4,.4c0,.2,.2,.4,.4,.4m3.9,0h2.3c.2,0,.4,-.2,.4,-.4c0,-.2,-.2,-.4,-.4,-.4h-2.3c-.2,0,-.4,.2,-.4,.4c0,.2,.2,.4,.4,.4m3.9,0h2.3c.2,0,.4,-.2,.4,-.4c0,-.2,-.2,-.4,-.4,-.4h-2.3c-.3,0,-.4,.2,-.4,.4c0,.2,.1,.4,.4,.4m3.8,0h2.4c.2,0,.3,-.2,.3,-.4c0,-.2,-.1,-.4,-.3,-.4h-2.4c-.2,0,-.3,.2,-.3,.4c0,.2,.1,.4,.3,.4m3.9,0h2.3c.3,0,.4,-.2,.4,-.4c0,-.2,-.1,-.4,-.4,-.4H828c-.2,0,-.4,.2,-.4,.4c0,.2,.2,.4,.4,.4m3.9,0h2.3c.2,0,.4,-.2,.4,-.4c0,-.2,-.2,-.4,-.4,-.4h-2.3c-.2,0,-.4,.2,-.4,.4c0,.2,.2,.4,.4,.4m3.9,0h2.3c.2,0,.4,-.2,.4,-.4c0,-.2,-.2,-.4,-.4,-.4h-2.3c-.2,0,-.4,.2,-.4,.4c0,.2,.2,.4,.4,.4m3.9,0H842c.2,0,.4,-.2,.4,-.4c0,-.2,-.2,-.4,-.4,-.4h-2.3c-.2,0,-.4,.2,-.4,.4c0,.2,.2,.4,.4,.4m3.9,0h2.3c.2,0,.4,-.2,.4,-.4c0,-.2,-.2,-.4,-.4,-.4h-2.3c-.3,0,-.4,.2,-.4,.4c0,.2,.1,.4,.4,.4m3.8,0h2.4c.2,0,.3,-.2,.3,-.4c0,-.2,-.1,-.4,-.3,-.4h-2.4c-.2,0,-.3,.2,-.3,.4c0,.2,.1,.4,.3,.4Z" class="g8_24"/>
<path d="M780.8,291.9h2.3c.2,0,.4,-.2,.4,-.4c0,-.2,-.2,-.4,-.4,-.4h-2.3c-.2,0,-.4,.2,-.4,.4c0,.2,.2,.4,.4,.4m3.9,0H787c.2,0,.4,-.2,.4,-.4c0,-.2,-.2,-.4,-.4,-.4h-2.3c-.2,0,-.4,.2,-.4,.4c0,.2,.2,.4,.4,.4m3.9,0h2.3c.2,0,.4,-.2,.4,-.4c0,-.2,-.2,-.4,-.4,-.4h-2.3c-.3,0,-.4,.2,-.4,.4c0,.2,.1,.4,.4,.4m3.8,0h2.4c.2,0,.3,-.2,.3,-.4c0,-.2,-.1,-.4,-.3,-.4h-2.4c-.2,0,-.3,.2,-.3,.4c0,.2,.1,.4,.3,.4m3.9,0h2.3c.2,0,.4,-.2,.4,-.4c0,-.2,-.2,-.4,-.4,-.4h-2.3c-.2,0,-.4,.2,-.4,.4c0,.2,.2,.4,.4,.4m3.9,0h2.3c.2,0,.4,-.2,.4,-.4c0,-.2,-.2,-.4,-.4,-.4h-2.3c-.2,0,-.4,.2,-.4,.4c0,.2,.2,.4,.4,.4m3.9,0h2.3c.2,0,.4,-.2,.4,-.4c0,-.2,-.2,-.4,-.4,-.4h-2.3c-.2,0,-.4,.2,-.4,.4c0,.2,.2,.4,.4,.4m3.9,0h2.3c.2,0,.4,-.2,.4,-.4c0,-.2,-.2,-.4,-.4,-.4H808c-.2,0,-.4,.2,-.4,.4c0,.2,.2,.4,.4,.4m3.8,0h2.4c.2,0,.3,-.2,.3,-.4c0,-.2,-.1,-.4,-.3,-.4h-2.4c-.2,0,-.3,.2,-.3,.4c0,.2,.1,.4,.3,.4m3.9,0H818c.3,0,.4,-.2,.4,-.4c0,-.2,-.1,-.4,-.4,-.4h-2.3c-.2,0,-.4,.2,-.4,.4c0,.2,.2,.4,.4,.4m3.9,0h2.3c.2,0,.4,-.2,.4,-.4c0,-.2,-.2,-.4,-.4,-.4h-2.3c-.2,0,-.4,.2,-.4,.4c0,.2,.2,.4,.4,.4m3.9,0h2.3c.2,0,.4,-.2,.4,-.4c0,-.2,-.2,-.4,-.4,-.4h-2.3c-.2,0,-.4,.2,-.4,.4c0,.2,.2,.4,.4,.4m3.9,0h2.3c.2,0,.4,-.2,.4,-.4c0,-.2,-.2,-.4,-.4,-.4h-2.3c-.2,0,-.4,.2,-.4,.4c0,.2,.2,.4,.4,.4m3.9,0h2.3c.2,0,.4,-.2,.4,-.4c0,-.2,-.2,-.4,-.4,-.4h-2.3c-.3,0,-.4,.2,-.4,.4c0,.2,.1,.4,.4,.4m3.8,0h2.4c.2,0,.3,-.2,.3,-.4c0,-.2,-.1,-.4,-.3,-.4h-2.4c-.2,0,-.3,.2,-.3,.4c0,.2,.1,.4,.3,.4m3.9,0h2.3c.3,0,.4,-.2,.4,-.4c0,-.2,-.1,-.4,-.4,-.4H839c-.2,0,-.4,.2,-.4,.4c0,.2,.2,.4,.4,.4m3.9,0h2.3c.2,0,.4,-.2,.4,-.4c0,-.2,-.2,-.4,-.4,-.4h-2.3c-.2,0,-.4,.2,-.4,.4c0,.2,.2,.4,.4,.4m3.9,0h2.3c.2,0,.4,-.2,.4,-.4c0,-.2,-.2,-.4,-.4,-.4h-2.3c-.2,0,-.4,.2,-.4,.4c0,.2,.2,.4,.4,.4Z" class="g8_24"/>
<path d="M829.5,308.7v.7h4.6c1.1,0,2,-1,2,-2.1v-.4c0,-1.1,-.9,-2,-2,-2h-4.6c-.5,0,-1,.2,-1.4,.5c-.1,.1,-.2,.3,-.2,.5v.3c0,.2,-.1,.3,-.2,.5c-.2,.1,-.3,.3,-.3,.5v.1c0,1.1,1,2.1,2.1,2.1V308c-.4,0,-.7,-.3,-.7,-.7v-.1h-.7l.5,.5c.4,-.4,.7,-.9,.7,-1.5v-.3h-.7l.4,.5c.2,-.1,.3,-.1,.5,-.1h4.6c.3,0,.6,.3,.6,.6v.4c0,.4,-.3,.7,-.6,.7h-4.6Z" class="g8_24"/>
<path d="M828.6,299.3l-.5,.5c.4,.4,.9,.6,1.4,.6h4.6c1.1,0,2,-.9,2,-2.1v-.4c0,-1.1,-.9,-2,-2,-2h-4.6c-1.1,0,-2.1,.9,-2.1,2v.2c0,.2,.1,.4,.3,.5c.1,.1,.2,.3,.2,.5v.2c0,.2,.1,.4,.2,.5l.5,-.5h.7v-.2c0,-.6,-.3,-1.1,-.7,-1.5l-.5,.5h.7v-.2c0,-.3,.3,-.6,.7,-.6h4.6c.3,0,.6,.3,.6,.6v.4c0,.4,-.3,.7,-.6,.7h-4.6c-.2,0,-.3,-.1,-.5,-.2l-.4,.5h.7Z" class="g8_24"/>
<path d="M835.1,308.2v.6H837c1,0,1.8,-.8,1.8,-1.8v-8.7c0,-1,-.8,-1.8,-1.8,-1.8h-1.8c-.3,0,-.5,.1,-.7,.3c-.1,.3,-.1,.5,.1,.8c.1,.1,.1,.2,.1,.3v.4c0,.4,-.3,.7,-.6,.7h-4.6c-.2,0,-.3,-.1,-.5,-.2c-.2,-.2,-.4,-.2,-.7,-.1c-.2,.1,-.4,.4,-.4,.6v6.6c0,.3,.2,.5,.4,.6c.3,.2,.5,.1,.7,-.1c.2,-.1,.3,-.1,.5,-.1h4.6c.3,0,.6,.3,.6,.6v.4c0,.2,0,.3,-.1,.4c-.2,.2,-.2,.5,-.1,.8c.1,.2,.3,.3,.6,.3v-.6l.5,.4c.3,-.4,.5,-.8,.5,-1.3v-.4c0,-1.1,-.9,-2,-2,-2h-4.6c-.5,0,-1,.2,-1.4,.5l.5,.5h.7v-6.6h-.7l-.5,.5c.4,.4,.9,.6,1.4,.6h4.6c1.1,0,2,-.9,2,-2.1v-.4c0,-.4,-.2,-.8,-.4,-1.1l-.5,.4v.6H837c.2,0,.4,.2,.4,.5V307c0,.3,-.2,.5,-.4,.5h-1.9v.7l.5,.4Z" class="g8_24"/>
<path d="M828.6,299.1h.7c0,-1.1,-.9,-2,-2.1,-2h-.6c-1.2,0,-2.1,.9,-2.1,2v7.1c0,1.1,.9,2,2.1,2h.6c1.2,0,2.1,-.9,2.1,-2v-7.1h-1.4v7.1c0,.3,-.3,.6,-.7,.6h-.6c-.4,0,-.7,-.3,-.7,-.6v-7.1c0,-.4,.3,-.7,.7,-.7h.6c.4,0,.7,.3,.7,.7Z" class="g8_24"/>
<path d="M829.5,321.4v.7h4.6c1.1,0,2,-.9,2,-2v-.4c0,-1.1,-.9,-2,-2,-2h-4.6c-.5,0,-1,.2,-1.4,.5c-.1,.1,-.2,.3,-.2,.5v.3c0,.1,-.1,.3,-.2,.4c-.2,.2,-.3,.4,-.3,.6v.1c0,1.1,1,2,2.1,2v-1.3c-.4,0,-.7,-.3,-.7,-.7V320h-.7l.5,.5c.4,-.4,.7,-.9,.7,-1.5v-.3h-.7l.4,.5c.2,-.1,.3,-.2,.5,-.2h4.6c.3,0,.6,.3,.6,.7v.4c0,.4,-.3,.7,-.6,.7h-4.6Z" class="g8_24"/>
<path d="M828.6,312.1l-.5,.5c.4,.4,.9,.6,1.4,.6h4.6c1.1,0,2,-1,2,-2.1v-.4c0,-1.1,-.9,-2,-2,-2h-4.6c-1.1,0,-2.1,.9,-2.1,2v.2c0,.2,.1,.4,.3,.5c.1,.1,.2,.3,.2,.5v.2c0,.2,.1,.4,.2,.5l.5,-.5h.7v-.2c0,-.6,-.3,-1.2,-.7,-1.5l-.5,.5h.7v-.2c0,-.3,.3,-.6,.7,-.6h4.6c.3,0,.6,.3,.6,.6v.4c0,.4,-.3,.7,-.6,.7h-4.6c-.2,0,-.3,-.1,-.5,-.2l-.4,.5h.7Z" class="g8_24"/>
<path d="M835.1,320.9v.7H837c1,0,1.8,-.8,1.8,-1.8v-8.7c0,-1,-.8,-1.9,-1.8,-1.9h-1.8c-.3,0,-.5,.2,-.7,.4c-.1,.3,-.1,.5,.1,.7c.1,.2,.1,.3,.1,.4v.4c0,.4,-.3,.7,-.6,.7h-4.6c-.2,0,-.3,-.1,-.5,-.2c-.2,-.2,-.4,-.2,-.7,-.1c-.2,.1,-.4,.3,-.4,.6v6.6c0,.3,.2,.5,.4,.6c.3,.1,.5,.1,.7,-.1c.2,-.1,.3,-.2,.5,-.2h4.6c.3,0,.6,.3,.6,.7v.4c0,.1,0,.3,-.1,.4c-.2,.2,-.2,.5,-.1,.7c.1,.3,.3,.4,.6,.4v-.7l.5,.5c.3,-.4,.5,-.8,.5,-1.3v-.4c0,-1.1,-.9,-2,-2,-2h-4.6c-.5,0,-1,.2,-1.4,.5l.5,.5h.7v-6.6h-.7l-.5,.5c.4,.3,.9,.6,1.4,.6h4.6c1.1,0,2,-1,2,-2.1v-.4c0,-.4,-.2,-.8,-.4,-1.2l-.5,.4v.7H837c.2,0,.4,.2,.4,.5v8.7c0,.3,-.2,.4,-.4,.4h-1.9v.7l.5,.5Z" class="g8_24"/>
<path d="M828.6,311.9h.7c0,-1.1,-.9,-2.1,-2.1,-2.1h-.6c-1.2,0,-2.1,1,-2.1,2.1V319c0,1.1,.9,2,2.1,2h.6c1.2,0,2.1,-.9,2.1,-2v-7.1h-1.4V319c0,.3,-.3,.6,-.7,.6h-.6c-.4,0,-.7,-.3,-.7,-.6v-7.1c0,-.4,.3,-.7,.7,-.7h.6c.4,0,.7,.3,.7,.7Z" class="g8_24"/>
<path d="M814.2,307.8h3.2c.5,0,.9,-.2,.9,-.5v-.2c0,-.3,-.4,-.6,-.9,-.6h-3.2c-.2,0,-.5,.1,-.6,.2v.1c0,.2,-.1,.3,-.3,.4v.1c0,.3,.4,.5,.9,.5Z" class="g8_24"/>
<path d="M813.7,298c.2,.1,.4,.2,.7,.2h3.3c.5,0,.9,-.3,.9,-.6v-.2c0,-.4,-.4,-.6,-.9,-.6h-3.3c-.6,0,-1,.2,-1,.6v.1c.2,.1,.3,.2,.3,.4Z" class="g8_24"/>
<path d="M819.5,307.9h1.8c.6,0,1.1,-.6,1.1,-1.2V298c0,-.6,-.5,-1.1,-1.1,-1.1h-1.7c.1,.2,.2,.4,.2,.7v.4c0,.8,-.6,1.4,-1.3,1.4h-4.3c-.4,0,-.7,-.1,-.9,-.4v6.6c.2,-.2,.5,-.3,.9,-.3h4.3c.7,0,1.3,.6,1.3,1.3v.4c0,.3,-.1,.6,-.3,.9Z" class="g8_24"/>
<path d="M812,299.5c0,-.5,-.5,-1,-1.1,-1c-.6,0,-1.1,.5,-1.1,1v5.6c0,.6,.5,1.1,1.1,1.1c.6,0,1.1,-.5,1.1,-1.1Z" class="g8_24"/>
<path d="M813.8,321.4v.7h4.5c1.1,0,2.1,-.9,2.1,-2v-.4c0,-1.1,-1,-2,-2.1,-2h-4.5c-.6,0,-1.1,.2,-1.4,.5c-.2,.1,-.2,.3,-.2,.5v.3c0,.1,-.1,.3,-.3,.4c-.1,.2,-.2,.4,-.2,.6v.1c0,1.1,.9,2,2.1,2v-1.3c-.4,0,-.7,-.3,-.7,-.7V320h-.7l.5,.5c.4,-.4,.6,-.9,.6,-1.5v-.3h-.7l.5,.5c.1,-.1,.3,-.2,.5,-.2h4.5c.4,0,.7,.3,.7,.7v.4c0,.4,-.3,.7,-.7,.7h-4.5Z" class="g8_24"/>
<path d="M812.8,312.1l-.4,.5c.3,.4,.8,.6,1.4,.6h4.5c1.1,0,2.1,-1,2.1,-2.1v-.4c0,-1.1,-1,-2,-2.1,-2h-4.5c-1.2,0,-2.1,.9,-2.1,2v.2c0,.2,.1,.4,.2,.5c.2,.1,.3,.3,.3,.5v.2c0,.2,0,.4,.2,.5l.4,-.5h.7v-.2c0,-.6,-.2,-1.2,-.6,-1.5l-.5,.5h.7v-.2c0,-.3,.3,-.6,.7,-.6h4.5c.4,0,.7,.3,.7,.6v.4c0,.4,-.3,.7,-.7,.7h-4.5c-.2,0,-.4,-.1,-.5,-.2l-.5,.5h.7Z" class="g8_24"/>
<path d="M819.4,320.9v.7h1.9c1,0,1.8,-.8,1.8,-1.8v-8.7c0,-1,-.8,-1.9,-1.8,-1.9h-1.9c-.2,0,-.5,.2,-.6,.4c-.1,.3,-.1,.5,.1,.7c0,.2,.1,.3,.1,.4v.4c0,.4,-.3,.7,-.7,.7h-4.5c-.2,0,-.4,-.1,-.5,-.2c-.2,-.2,-.5,-.2,-.7,-.1c-.3,.1,-.4,.3,-.4,.6v6.6c0,.3,.1,.5,.4,.6c.2,.1,.5,.1,.7,-.1c.1,-.1,.3,-.2,.5,-.2h4.5c.4,0,.7,.3,.7,.7v.4c0,.1,-.1,.3,-.2,.4c-.1,.2,-.2,.5,-.1,.7c.2,.3,.4,.4,.7,.4v-.7l.5,.5c.3,-.4,.5,-.8,.5,-1.3v-.4c0,-1.1,-1,-2,-2.1,-2h-4.5c-.6,0,-1.1,.2,-1.4,.5l.4,.5h.7v-6.6h-.7l-.4,.5c.3,.3,.8,.6,1.4,.6h4.5c1.1,0,2.1,-1,2.1,-2.1v-.4c0,-.4,-.2,-.8,-.4,-1.2l-.6,.4v.7h1.9c.2,0,.4,.2,.4,.5v8.7c0,.3,-.2,.4,-.4,.4h-1.9v.7l.5,.5Z" class="g8_24"/>
<path d="M812.8,311.9h.7c0,-1.1,-.9,-2.1,-2,-2.1h-.7c-1.1,0,-2,1,-2,2.1V319c0,1.1,.9,2,2,2h.7c1.1,0,2,-.9,2,-2v-7.1h-1.3V319c0,.3,-.3,.6,-.7,.6h-.7c-.4,0,-.7,-.3,-.7,-.6v-7.1c0,-.4,.3,-.7,.7,-.7h.7c.4,0,.7,.3,.7,.7Z" class="g8_24"/>
<path d="M798,308.7v.7h4.6c1.1,0,2,-1,2,-2.1v-.4c0,-1.1,-.9,-2,-2,-2H798c-.5,0,-1,.2,-1.4,.5c-.1,.1,-.2,.3,-.2,.5v.3c0,.2,-.1,.3,-.2,.5c-.1,.1,-.2,.3,-.2,.5v.1c0,1.1,.9,2.1,2,2.1V308c-.4,0,-.7,-.3,-.7,-.7v-.1h-.6l.4,.5c.4,-.4,.7,-.9,.7,-1.5v-.3h-.7l.5,.5c.1,-.1,.2,-.1,.4,-.1h4.6c.3,0,.6,.3,.6,.6v.4c0,.4,-.2,.7,-.6,.7H798Z" class="g8_24"/>
<path d="M797.1,299.3l-.5,.5c.4,.4,.9,.6,1.4,.6h4.6c1.1,0,2,-.9,2,-2.1v-.4c0,-1.1,-.9,-2,-2,-2H798c-1.1,0,-2,.9,-2,2v.2c0,.2,.1,.4,.2,.5c.1,.1,.2,.3,.2,.5v.2c0,.2,.1,.4,.2,.5l.5,-.5h.7v-.2c0,-.6,-.3,-1.1,-.7,-1.5l-.4,.5h.6v-.2c0,-.3,.3,-.6,.7,-.6h4.6c.3,0,.6,.3,.6,.6v.4c0,.4,-.3,.7,-.6,.7H798c-.2,0,-.3,-.1,-.4,-.2l-.5,.5h.7Z" class="g8_24"/>
<path d="M803.6,308.2v.6h1.9c1,0,1.8,-.8,1.8,-1.8v-8.7c0,-1,-.8,-1.8,-1.8,-1.8h-1.8c-.3,0,-.5,.1,-.6,.3c-.2,.3,-.1,.5,0,.8c.1,.1,.1,.2,.1,.3v.4c0,.4,-.2,.7,-.6,.7H798c-.2,0,-.3,-.1,-.4,-.2c-.2,-.2,-.5,-.2,-.8,-.1c-.2,.1,-.4,.4,-.4,.6v6.6c0,.3,.2,.5,.4,.6c.3,.2,.6,.1,.8,-.1c.1,-.1,.2,-.1,.4,-.1h4.6c.4,0,.6,.3,.6,.6v.4c0,.2,0,.3,-.1,.4c-.2,.2,-.2,.5,-.1,.8c.1,.2,.4,.3,.6,.3v-.6l.6,.4c.2,-.4,.4,-.8,.4,-1.3v-.4c0,-1.1,-.9,-2,-2,-2H798c-.5,0,-1,.2,-1.4,.5l.5,.5h.7v-6.6h-.7l-.5,.5c.4,.4,.9,.6,1.4,.6h4.6c1.1,0,2,-.9,2,-2.1v-.4c0,-.4,-.1,-.8,-.4,-1.1l-.5,.4v.6h1.8c.3,0,.5,.2,.5,.5V307c0,.3,-.2,.5,-.5,.5h-1.9v.7l.6,.4Z" class="g8_24"/>
<path d="M797.1,299.1h.7c0,-1.1,-.9,-2,-2,-2h-.7c-1.2,0,-2.1,.9,-2.1,2v7.1c0,1.1,.9,2,2.1,2h.7c1.1,0,2,-.9,2,-2v-7.1h-1.4v7.1c0,.3,-.3,.6,-.6,.6h-.7c-.4,0,-.7,-.3,-.7,-.6v-7.1c0,-.4,.3,-.7,.7,-.7h.7c.3,0,.6,.3,.6,.7Z" class="g8_24"/>
<path d="M798,321.4v.7h4.6c1.1,0,2,-.9,2,-2v-.4c0,-1.1,-.9,-2,-2,-2H798c-.5,0,-1,.2,-1.4,.5c-.1,.1,-.2,.3,-.2,.5v.3c0,.1,-.1,.3,-.2,.4c-.1,.2,-.2,.4,-.2,.6v.1c0,1.1,.9,2,2,2v-1.3c-.4,0,-.7,-.3,-.7,-.7V320h-.6l.4,.5c.4,-.4,.7,-.9,.7,-1.5v-.3h-.7l.5,.5c.1,-.1,.2,-.2,.4,-.2h4.6c.4,0,.6,.3,.6,.7v.4c0,.4,-.2,.7,-.6,.7H798Z" class="g8_24"/>
<path d="M797.1,312.1l-.5,.5c.4,.4,.9,.6,1.4,.6h4.6c1.1,0,2,-1,2,-2.1v-.4c0,-1.1,-.9,-2,-2,-2H798c-1.1,0,-2,.9,-2,2v.2c0,.2,.1,.4,.2,.5c.1,.1,.2,.3,.2,.5v.2c0,.2,.1,.4,.2,.5l.5,-.5h.7v-.2c0,-.6,-.3,-1.2,-.7,-1.5l-.4,.5h.6v-.2c0,-.3,.3,-.6,.7,-.6h4.6c.3,0,.6,.3,.6,.6v.4c0,.4,-.3,.7,-.6,.7H798c-.2,0,-.3,-.1,-.4,-.2l-.5,.5h.7Z" class="g8_24"/>
<path d="M803.6,320.9v.7h1.9c1,0,1.8,-.8,1.8,-1.8v-8.7c0,-1,-.8,-1.9,-1.8,-1.9h-1.8c-.3,0,-.5,.2,-.6,.4c-.2,.3,-.1,.5,0,.7c.1,.2,.1,.3,.1,.4v.4c0,.4,-.2,.7,-.6,.7H798c-.2,0,-.3,-.1,-.4,-.2c-.2,-.2,-.5,-.2,-.8,-.1c-.2,.1,-.4,.3,-.4,.6v6.6c0,.3,.2,.5,.4,.6c.3,.1,.6,.1,.8,-.1c.1,-.1,.2,-.2,.4,-.2h4.6c.4,0,.6,.3,.6,.7v.4c0,.1,0,.3,-.1,.4c-.2,.2,-.2,.5,-.1,.7c.1,.3,.4,.4,.6,.4v-.7l.6,.5c.2,-.4,.4,-.8,.4,-1.3v-.4c0,-1.1,-.9,-2,-2,-2H798c-.5,0,-1,.2,-1.4,.5l.5,.5h.7v-6.6h-.7l-.5,.5c.4,.3,.9,.6,1.4,.6h4.6c1.1,0,2,-1,2,-2.1v-.4c0,-.4,-.1,-.8,-.4,-1.2l-.5,.4v.7h1.8c.3,0,.5,.2,.5,.5v8.7c0,.3,-.2,.4,-.5,.4h-1.9v.7l.6,.5Z" class="g8_24"/>
<path d="M797.1,311.9h.7c0,-1.1,-.9,-2.1,-2,-2.1h-.7c-1.2,0,-2.1,1,-2.1,2.1V319c0,1.1,.9,2,2.1,2h.7c1.1,0,2,-.9,2,-2v-7.1h-1.4V319c0,.3,-.3,.6,-.6,.6h-.7c-.4,0,-.7,-.3,-.7,-.6v-7.1c0,-.4,.3,-.7,.7,-.7h.7c.3,0,.6,.3,.6,.7Z" class="g8_24"/>
<image clip-path="url(#cz_24)" preserveAspectRatio="none" x="681" y="329" width="89" height="30" xlink:href="img/38.jpg"/>
<image clip-path="url(#c10_24)" preserveAspectRatio="none" x="691" y="257" width="88" height="72" xlink:href="img/39.jpg"/>
<image clip-path="url(#c11_24)" preserveAspectRatio="none" x="690" y="350" width="80" height="4" xlink:href="img/40.jpg"/>
<image clip-path="url(#c12_24)" preserveAspectRatio="none" x="768" y="329" width="11" height="30" xlink:href="img/41.jpg"/>
<image clip-path="url(#c13_24)" preserveAspectRatio="none" x="769" y="257" width="10" height="72" xlink:href="img/42.jpg"/>
<image clip-path="url(#c14_24)" preserveAspectRatio="none" x="768" y="350" width="11" height="4" xlink:href="img/43.jpg"/>
<image clip-path="url(#c15_24)" preserveAspectRatio="none" x="775" y="278" width="4" height="69" xlink:href="img/44.jpg"/>
<image clip-path="url(#c16_24)" preserveAspectRatio="none" x="775" y="346" width="4" height="8" xlink:href="img/45.jpg"/>
<path d="M706.3,269.8c-10.1,0,-18.3,8.2,-18.3,18.4v64.1h79V288.2c0,-10.2,-8.2,-18.4,-18.3,-18.4Z" class="g3_24"/>
<path d="M687.9,353.2H767V346H687.9v7.2Z" class="g7_24"/>
<path d="M693.3,328.3h2.4c.2,0,.3,-.2,.3,-.4c0,-.2,-.1,-.4,-.3,-.4h-2.4c-.2,0,-.3,.2,-.3,.4c0,.2,.1,.4,.3,.4m3.9,0h2.3c.3,0,.4,-.2,.4,-.4c0,-.2,-.1,-.4,-.4,-.4h-2.3c-.2,0,-.4,.2,-.4,.4c0,.2,.2,.4,.4,.4m3.9,0h2.3c.2,0,.4,-.2,.4,-.4c0,-.2,-.2,-.4,-.4,-.4h-2.3c-.2,0,-.4,.2,-.4,.4c0,.2,.2,.4,.4,.4m3.9,0h2.3c.2,0,.4,-.2,.4,-.4c0,-.2,-.2,-.4,-.4,-.4H705c-.2,0,-.4,.2,-.4,.4c0,.2,.2,.4,.4,.4m3.9,0h2.3c.2,0,.4,-.2,.4,-.4c0,-.2,-.2,-.4,-.4,-.4h-2.3c-.2,0,-.4,.2,-.4,.4c0,.2,.2,.4,.4,.4m3.9,0h2.3c.2,0,.4,-.2,.4,-.4c0,-.2,-.2,-.4,-.4,-.4h-2.3c-.3,0,-.4,.2,-.4,.4c0,.2,.1,.4,.4,.4m3.8,0H719c.2,0,.3,-.2,.3,-.4c0,-.2,-.1,-.4,-.3,-.4h-2.4c-.2,0,-.3,.2,-.3,.4c0,.2,.1,.4,.3,.4m3.9,0h2.3c.3,0,.4,-.2,.4,-.4c0,-.2,-.1,-.4,-.4,-.4h-2.3c-.2,0,-.4,.2,-.4,.4c0,.2,.2,.4,.4,.4m3.9,0h2.3c.2,0,.4,-.2,.4,-.4c0,-.2,-.2,-.4,-.4,-.4h-2.3c-.2,0,-.4,.2,-.4,.4c0,.2,.2,.4,.4,.4m3.9,0h2.3c.2,0,.4,-.2,.4,-.4c0,-.2,-.2,-.4,-.4,-.4h-2.3c-.2,0,-.4,.2,-.4,.4c0,.2,.2,.4,.4,.4m3.9,0h2.3c.2,0,.4,-.2,.4,-.4c0,-.2,-.2,-.4,-.4,-.4h-2.3c-.2,0,-.4,.2,-.4,.4c0,.2,.2,.4,.4,.4m3.8,0h2.4c.2,0,.3,-.2,.3,-.4c0,-.2,-.1,-.4,-.3,-.4H736c-.2,0,-.3,.2,-.3,.4c0,.2,.1,.4,.3,.4m3.9,0h2.3c.3,0,.4,-.2,.4,-.4c0,-.2,-.1,-.4,-.4,-.4h-2.3c-.2,0,-.4,.2,-.4,.4c0,.2,.2,.4,.4,.4m3.9,0h2.3c.2,0,.4,-.2,.4,-.4c0,-.2,-.2,-.4,-.4,-.4h-2.3c-.2,0,-.4,.2,-.4,.4c0,.2,.2,.4,.4,.4m3.9,0H750c.2,0,.4,-.2,.4,-.4c0,-.2,-.2,-.4,-.4,-.4h-2.3c-.2,0,-.4,.2,-.4,.4c0,.2,.2,.4,.4,.4m3.9,0h2.3c.2,0,.4,-.2,.4,-.4c0,-.2,-.2,-.4,-.4,-.4h-2.3c-.2,0,-.4,.2,-.4,.4c0,.2,.2,.4,.4,.4m3.9,0h2.3c.2,0,.4,-.2,.4,-.4c0,-.2,-.2,-.4,-.4,-.4h-2.3c-.3,0,-.4,.2,-.4,.4c0,.2,.1,.4,.4,.4m3.8,0h2.4c.2,0,.3,-.2,.3,-.4c0,-.2,-.1,-.4,-.3,-.4h-2.4c-.2,0,-.3,.2,-.3,.4c0,.2,.1,.4,.3,.4Z" class="g9_24"/>
<path d="M740.8,291.9H743c.2,0,.4,-.2,.4,-.4c0,-.2,-.2,-.4,-.4,-.4h-2.2c-.2,0,-.4,.2,-.4,.4c0,.2,.2,.4,.4,.4m3.7,0h2.3c.2,0,.3,-.2,.3,-.4c0,-.2,-.1,-.4,-.3,-.4h-2.3c-.2,0,-.4,.2,-.4,.4c0,.2,.2,.4,.4,.4m3.7,0h2.3c.2,0,.4,-.2,.4,-.4c0,-.2,-.2,-.4,-.4,-.4h-2.3c-.2,0,-.4,.2,-.4,.4c0,.2,.2,.4,.4,.4m3.7,0h2.3c.2,0,.4,-.2,.4,-.4c0,-.2,-.2,-.4,-.4,-.4h-2.3c-.2,0,-.3,.2,-.3,.4c0,.2,.1,.4,.3,.4m3.8,0h2.2c.2,0,.4,-.2,.4,-.4c0,-.2,-.2,-.4,-.4,-.4h-2.2c-.2,0,-.4,.2,-.4,.4c0,.2,.2,.4,.4,.4m3.7,0h2.2c.2,0,.4,-.2,.4,-.4c0,-.2,-.2,-.4,-.4,-.4h-2.2c-.2,0,-.4,.2,-.4,.4c0,.2,.2,.4,.4,.4Z" class="g9_24"/>
<path d="M693.4,291.9h2.2c.2,0,.4,-.2,.4,-.4c0,-.2,-.2,-.4,-.4,-.4h-2.2c-.2,0,-.4,.2,-.4,.4c0,.2,.2,.4,.4,.4m3.7,0h2.2c.2,0,.4,-.2,.4,-.4c0,-.2,-.2,-.4,-.4,-.4h-2.2c-.2,0,-.4,.2,-.4,.4c0,.2,.2,.4,.4,.4m3.7,0h2.3c.2,0,.3,-.2,.3,-.4c0,-.2,-.1,-.4,-.3,-.4h-2.3c-.2,0,-.4,.2,-.4,.4c0,.2,.2,.4,.4,.4m3.7,0h2.3c.2,0,.4,-.2,.4,-.4c0,-.2,-.2,-.4,-.4,-.4h-2.3c-.2,0,-.4,.2,-.4,.4c0,.2,.2,.4,.4,.4m3.8,0h2.2c.2,0,.4,-.2,.4,-.4c0,-.2,-.2,-.4,-.4,-.4h-2.2c-.3,0,-.4,.2,-.4,.4c0,.2,.1,.4,.4,.4m3.7,0h2.2c.2,0,.4,-.2,.4,-.4c0,-.2,-.2,-.4,-.4,-.4H712c-.2,0,-.4,.2,-.4,.4c0,.2,.2,.4,.4,.4Z" class="g9_24"/>
<path d="M718.2,294.5v-.8c-1.1,0,-2,1,-2,2.1v29.3h22.9V295.8c0,-1.1,-.9,-2.1,-2.1,-2.1H718.2v1.5H737c.3,0,.6,.3,.6,.6v27.8H717.7V295.8c0,-.3,.2,-.6,.5,-.6Z" class="g9_24"/>
<path d="M720.2,289.5v-.4c-.5,0,-1,.5,-1,1v4.6h16.9v-4.6c0,-.5,-.5,-1,-1,-1H720.2v.7h14.9c.1,0,.3,.1,.3,.3v4H719.9v-4c0,-.2,.1,-.3,.3,-.3Z" class="g9_24"/>
<path d="M725.1,316.6h-.4v7.6l.1,.3l.3,.1h5.2l.2,-.1l.1,-.3v-7.6l-.1,-.3l-.2,-.1h-5.2l-.3,.1l-.1,.3h.4v.3h4.8v6.9h-4.5v-7.2h-.3v.3Z" class="g9_24"/>
<path d="M732,316.6h-.4v4.1l.1,.2l.3,.1h4.1l.3,-.1l.1,-.2v-4.1l-.1,-.3l-.3,-.1H732l-.3,.1l-.1,.3h.4v.3h3.8v3.4h-3.4v-3.7H732v.3Z" class="g9_24"/>
<path d="M719.2,316.6h-.4v4.1l.1,.2l.3,.1h4.1l.3,-.1l.1,-.2v-4.1l-.1,-.3l-.3,-.1h-4.1l-.3,.1l-.1,.3h.4v.3H723v3.4h-3.4v-3.7h-.4v.3Z" class="g9_24"/>
<path d="M727.3,320.5h.8v-1h-.8v1Z" class="g9_24"/>
<path d="M732,310.2h-.4v4.1l.1,.3l.3,.1h4.1l.3,-.1l.1,-.3v-4.1l-.1,-.2l-.3,-.1H732l-.3,.1l-.1,.2h.4v.4h3.8V314h-3.4v-3.8H732v.4Z" class="g9_24"/>
<path d="M725.6,310.2h-.4v4.1l.1,.3l.3,.1h4.1l.3,-.1l.1,-.3v-4.1L730,310l-.3,-.1h-4.1l-.3,.1l-.1,.2h.4v.4h3.8V314H726v-3.8h-.4v.4Z" class="g9_24"/>
<path d="M719.2,310.2h-.4v4.1l.1,.3l.3,.1h4.1l.3,-.1l.1,-.3v-4.1l-.1,-.2l-.3,-.1h-4.1l-.3,.1l-.1,.2h.4v.4H723V314h-3.4v-3.8h-.4v.4Z" class="g9_24"/>
<path d="M732,303.9h-.4V308l.1,.3l.3,.1h4.1l.3,-.1l.1,-.3v-4.1l-.1,-.2l-.3,-.2H732l-.3,.2l-.1,.2h.4v.4h3.8v3.4h-3.4v-3.8H732v.4Z" class="g9_24"/>
<path d="M725.6,303.9h-.4V308l.1,.3l.3,.1h4.1l.3,-.1l.1,-.3v-4.1l-.1,-.2l-.3,-.2h-4.1l-.3,.2l-.1,.2h.4v.4h3.8v3.4H726v-3.8h-.4v.4Z" class="g9_24"/>
<path d="M719.2,303.9h-.4V308l.1,.3l.3,.1h4.1l.3,-.1l.1,-.3v-4.1l-.1,-.2l-.3,-.2h-4.1l-.3,.2l-.1,.2h.4v.4H723v3.4h-3.4v-3.8h-.4v.4Z" class="g9_24"/>
<path d="M732,297.6h-.4v4.1l.1,.3l.3,.1h4.1l.3,-.1l.1,-.3v-4.1l-.1,-.3l-.3,-.1H732l-.3,.1l-.1,.3h.4v.4h3.8v3.3h-3.4v-3.7H732v.4Z" class="g9_24"/>
<path d="M725.6,297.6h-.4v4.1l.1,.3l.3,.1h4.1l.3,-.1l.1,-.3v-4.1l-.1,-.3l-.3,-.1h-4.1l-.3,.1l-.1,.3h.4v.4h3.8v3.3H726v-3.7h-.4v.4Z" class="g9_24"/>
<path d="M719.2,297.6h-.4v4.1l.1,.3l.3,.1h4.1l.3,-.1l.1,-.3v-4.1l-.1,-.3l-.3,-.1h-4.1l-.3,.1l-.1,.3h.4v.4H723v3.3h-3.4v-3.7h-.4v.4Z" class="g9_24"/>
<path d="M722.8,290.5l-.2,-.1l-.5,.7l-.8,.2l-.2,.2l.1,.2l.5,.6v.9l.1,.2h.2l.8,-.3l.7,.3h.3l.1,-.2l-.1,-.9l.5,-.6l.1,-.2l-.2,-.2l-.8,-.2l-.4,-.7l-.2,-.1l-.2,.1l.2,.1l-.2,.1l.4,.8l.2,.1l.5,.2l-.3,.4l-.1,.2l.1,.5l-.6,-.2h-.1l-.6,.2l.1,-.5l-.1,-.2l-.3,-.4l.5,-.2l.2,-.1l.5,-.8l-.2,-.1l-.2,.1Z" class="g9_24"/>
<path d="M727.6,290.5l-.2,-.1l-.4,.7l-.8,.2l-.2,.2l.1,.2l.5,.6l-.1,.9l.1,.2h.3l.7,-.3l.8,.3h.2l.1,-.2v-.9l.5,-.6l.1,-.2l-.2,-.2l-.8,-.2l-.5,-.7l-.2,-.1l-.2,.1l.2,.1l-.2,.1l.5,.8l.2,.1l.5,.2l-.3,.4l-.1,.2v.5l-.5,-.2h-.2l-.5,.2l.1,-.5l-.1,-.2l-.3,-.4l.5,-.2l.1,-.1l.5,-.8l-.2,-.1l-.2,.1Z" class="g9_24"/>
<path d="M732.5,290.5l-.2,-.1l-.4,.7l-.8,.2l-.2,.2v.2l.6,.6l-.1,.9l.1,.2h.2l.8,-.3l.8,.3h.2l.1,-.2l-.1,-.9l.6,-.6v-.2l-.1,-.2l-.9,-.2l-.4,-.7l-.2,-.1l-.2,.1l.2,.1l-.2,.1l.5,.8l.1,.1l.6,.2l-.4,.4v.7l-.5,-.2h-.2l-.5,.2v-.7l-.4,-.4l.6,-.2l.1,-.1l.5,-.8l-.2,-.1l-.2,.1Z" class="g9_24"/>
<path d="M715.2,325.4h24.6c.5,0,1,-.4,1,-.9c0,-.5,-.5,-.9,-1,-.9H715.2c-.5,0,-.9,.4,-.9,.9c0,.5,.4,.9,.9,.9Z" class="g9_24"/>
<path d="M727.5,316.5v7.3h.3v-7.3Z" class="g9_24"/>
<image clip-path="url(#c17_24)" preserveAspectRatio="none" x="593" y="329" width="89" height="30" xlink:href="img/46.jpg"/>
<image clip-path="url(#c18_24)" preserveAspectRatio="none" x="602" y="257" width="89" height="72" xlink:href="img/47.jpg"/>
<image clip-path="url(#c19_24)" preserveAspectRatio="none" x="602" y="350" width="80" height="4" xlink:href="img/48.jpg"/>
<image clip-path="url(#c1a_24)" preserveAspectRatio="none" x="680" y="329" width="11" height="30" xlink:href="img/49.jpg"/>
<image clip-path="url(#c1b_24)" preserveAspectRatio="none" x="681" y="257" width="10" height="72" xlink:href="img/50.jpg"/>
<image clip-path="url(#c1c_24)" preserveAspectRatio="none" x="680" y="350" width="11" height="4" xlink:href="img/51.jpg"/>
<image clip-path="url(#c1d_24)" preserveAspectRatio="none" x="687" y="278" width="4" height="69" xlink:href="img/52.jpg"/>
<image clip-path="url(#c1e_24)" preserveAspectRatio="none" x="687" y="346" width="4" height="8" xlink:href="img/53.jpg"/>
<path d="M618.4,269.8c-10.1,0,-18.4,8.2,-18.4,18.4v64.1h79.1V288.2c0,-10.2,-8.2,-18.4,-18.4,-18.4Z" class="g3_24"/>
<path d="M600,353.2h79.1V346H600v7.2Z" class="g7_24"/>
<path d="M606.2,296h2.2c.2,0,.4,-.2,.4,-.4c0,-.2,-.2,-.4,-.4,-.4h-2.2c-.2,0,-.4,.2,-.4,.4c0,.2,.2,.4,.4,.4m3.6,0h2.1c.2,0,.4,-.2,.4,-.4c0,-.2,-.2,-.4,-.4,-.4h-2.1c-.2,0,-.4,.2,-.4,.4c0,.2,.2,.4,.4,.4m3.5,0h2.2c.2,0,.4,-.2,.4,-.4c0,-.2,-.2,-.4,-.4,-.4h-2.2c-.2,0,-.4,.2,-.4,.4c0,.2,.2,.4,.4,.4m3.6,0H619c.2,0,.4,-.2,.4,-.4c0,-.2,-.2,-.4,-.4,-.4h-2.1c-.2,0,-.4,.2,-.4,.4c0,.2,.2,.4,.4,.4m3.5,0h2.2c.2,0,.4,-.2,.4,-.4c0,-.2,-.2,-.4,-.4,-.4h-2.2c-.2,0,-.4,.2,-.4,.4c0,.2,.2,.4,.4,.4m3.6,0h2.1c.3,0,.4,-.2,.4,-.4c0,-.2,-.1,-.4,-.4,-.4H624c-.2,0,-.4,.2,-.4,.4c0,.2,.2,.4,.4,.4m3.5,0h2.2c.2,0,.4,-.2,.4,-.4c0,-.2,-.2,-.4,-.4,-.4h-2.2c-.2,0,-.3,.2,-.3,.4c0,.2,.1,.4,.3,.4Z" class="ga_24"/>
<path d="M606.2,328.3h2.3c.2,0,.4,-.2,.4,-.4c0,-.2,-.2,-.4,-.4,-.4h-2.3c-.2,0,-.4,.2,-.4,.4c0,.2,.2,.4,.4,.4m3.9,0h2.3c.2,0,.4,-.2,.4,-.4c0,-.2,-.2,-.4,-.4,-.4h-2.3c-.2,0,-.4,.2,-.4,.4c0,.2,.2,.4,.4,.4m3.9,0h2.3c.2,0,.4,-.2,.4,-.4c0,-.2,-.2,-.4,-.4,-.4H614c-.2,0,-.4,.2,-.4,.4c0,.2,.2,.4,.4,.4m3.9,0h2.3c.2,0,.4,-.2,.4,-.4c0,-.2,-.2,-.4,-.4,-.4h-2.3c-.2,0,-.4,.2,-.4,.4c0,.2,.2,.4,.4,.4m3.8,0h2.4c.2,0,.3,-.2,.3,-.4c0,-.2,-.1,-.4,-.3,-.4h-2.4c-.2,0,-.3,.2,-.3,.4c0,.2,.1,.4,.3,.4m3.9,0h2.3c.3,0,.4,-.2,.4,-.4c0,-.2,-.1,-.4,-.4,-.4h-2.3c-.2,0,-.4,.2,-.4,.4c0,.2,.2,.4,.4,.4m3.9,0h2.3c.2,0,.4,-.2,.4,-.4c0,-.2,-.2,-.4,-.4,-.4h-2.3c-.2,0,-.4,.2,-.4,.4c0,.2,.2,.4,.4,.4m3.9,0h2.3c.2,0,.4,-.2,.4,-.4c0,-.2,-.2,-.4,-.4,-.4h-2.3c-.2,0,-.4,.2,-.4,.4c0,.2,.2,.4,.4,.4m3.9,0h2.3c.2,0,.4,-.2,.4,-.4c0,-.2,-.2,-.4,-.4,-.4h-2.3c-.2,0,-.4,.2,-.4,.4c0,.2,.2,.4,.4,.4m3.9,0h2.3c.2,0,.4,-.2,.4,-.4c0,-.2,-.2,-.4,-.4,-.4h-2.3c-.3,0,-.4,.2,-.4,.4c0,.2,.1,.4,.4,.4m3.8,0h2.4c.2,0,.3,-.2,.3,-.4c0,-.2,-.1,-.4,-.3,-.4H645c-.2,0,-.3,.2,-.3,.4c0,.2,.1,.4,.3,.4m3.9,0h2.3c.3,0,.4,-.2,.4,-.4c0,-.2,-.1,-.4,-.4,-.4h-2.3c-.2,0,-.4,.2,-.4,.4c0,.2,.2,.4,.4,.4m3.9,0h2.3c.2,0,.4,-.2,.4,-.4c0,-.2,-.2,-.4,-.4,-.4h-2.3c-.2,0,-.4,.2,-.4,.4c0,.2,.2,.4,.4,.4m3.9,0H659c.2,0,.4,-.2,.4,-.4c0,-.2,-.2,-.4,-.4,-.4h-2.3c-.2,0,-.4,.2,-.4,.4c0,.2,.2,.4,.4,.4m3.9,0h2.3c.2,0,.4,-.2,.4,-.4c0,-.2,-.2,-.4,-.4,-.4h-2.3c-.2,0,-.4,.2,-.4,.4c0,.2,.2,.4,.4,.4m3.8,0h2.4c.2,0,.4,-.2,.4,-.4c0,-.2,-.2,-.4,-.4,-.4h-2.4c-.2,0,-.3,.2,-.3,.4c0,.2,.1,.4,.3,.4m3.9,0h2.4c.2,0,.3,-.2,.3,-.4c0,-.2,-.1,-.4,-.3,-.4h-2.4c-.2,0,-.4,.2,-.4,.4c0,.2,.2,.4,.4,.4m3.9,0h2.3c.2,0,.4,-.2,.4,-.4c0,-.2,-.2,-.4,-.4,-.4h-2.3c-.2,0,-.4,.2,-.4,.4c0,.2,.2,.4,.4,.4Z" class="ga_24"/>
<path d="M653,296h2.3c.2,0,.4,-.2,.4,-.4c0,-.2,-.2,-.4,-.4,-.4H653c-.2,0,-.4,.2,-.4,.4c0,.2,.2,.4,.4,.4m3.8,0h2.3c.3,0,.4,-.2,.4,-.4c0,-.2,-.1,-.4,-.4,-.4h-2.3c-.2,0,-.3,.2,-.3,.4c0,.2,.1,.4,.3,.4m3.9,0H663c.2,0,.4,-.2,.4,-.4c0,-.2,-.2,-.4,-.4,-.4h-2.3c-.2,0,-.4,.2,-.4,.4c0,.2,.2,.4,.4,.4m3.8,0h2.3c.2,0,.4,-.2,.4,-.4c0,-.2,-.2,-.4,-.4,-.4h-2.3c-.2,0,-.3,.2,-.3,.4c0,.2,.1,.4,.3,.4m3.9,0h2.3c.2,0,.4,-.2,.4,-.4c0,-.2,-.2,-.4,-.4,-.4h-2.3c-.2,0,-.4,.2,-.4,.4c0,.2,.2,.4,.4,.4m3.8,0h2.3c.2,0,.4,-.2,.4,-.4c0,-.2,-.2,-.4,-.4,-.4h-2.3c-.2,0,-.4,.2,-.4,.4c0,.2,.2,.4,.4,.4Z" class="ga_24"/>
<path d="M649.6,307.7c0,3.4,-.1,6.8,0,10.1c0,3.1,-1.4,5.4,-4.5,6.8c-3.3,1.4,-6.5,1.1,-9.6,-.7c-.4,-.3,-.8,-.5,-1.1,-.9c-.1,-.2,-.1,-.7,.1,-.9c.1,-.2,.7,-.1,1,0c.2,0,.4,.3,.6,.4c3.1,2.3,8,2,10.5,-.7c1.1,-1.1,1.4,-2.4,1.4,-3.8c0,-6.8,0,-13.6,0,-20.4c.1,-2.5,-1,-4.4,-3.5,-5.5c-2.6,-1.2,-5.3,-1.1,-7.8,.3c-.4,.2,-.7,.4,-1,.7c-.4,.3,-.9,.5,-1.2,0c-.1,-.2,0,-.8,.2,-1c1.2,-1,2.6,-1.7,4.1,-2c4.8,-1,9.6,1.5,10.6,5.5c.1,.5,.1,1.1,.1,1.7c.1,3.4,.1,6.9,.1,10.4Z" class="ga_24"/>
<path d="M634.5,299.8c-1.7,-.3,-2.3,-1.4,-1.5,-3c.4,-1,1.3,-1.5,2.3,-1.8c1.6,-.5,3.2,-.5,4.8,-.1c2,.7,3.1,2.5,2.9,4.5c-.1,2,-1.7,3.7,-3.6,3.9c-2.1,.2,-4,-.8,-4.7,-2.8c-.1,-.2,-.1,-.4,-.2,-.7m7.1,0c-1.4,-.4,-1.6,-.6,-2.3,-1.8c-.1,-.3,-.3,-.6,-.5,-.9c-.6,-.9,-1.3,-1,-2.1,-.2c-.9,.9,-1.1,2.2,-.7,3.3c.5,1.1,1.6,1.8,2.8,1.7c1.3,0,2.3,-.7,2.8,-2.1m0,-1.6c.2,-1,-1.7,-1.6,-1.7,-1.6c.4,1.7,1.7,2.1,1.7,1.6m-6.4,-1.7c-1.9,.8,-.9,2.3,-.8,1.9c0,0,.2,-1.2,.8,-1.9Z" class="ga_24"/>
<path d="M634.5,309.1c-1.7,-.3,-2.3,-1.4,-1.5,-3c.4,-1,1.3,-1.5,2.3,-1.8c1.6,-.5,3.2,-.5,4.8,0c2,.6,3.1,2.4,2.9,4.5c-.1,1.9,-1.7,3.6,-3.6,3.8c-2.1,.3,-4,-.8,-4.7,-2.8c-.1,-.2,-.1,-.4,-.2,-.7m7.1,0c-1.4,-.4,-1.6,-.6,-2.3,-1.8c-.1,-.3,-.3,-.6,-.5,-.9c-.6,-.9,-1.3,-1,-2.1,-.1c-.9,.8,-1.1,2.1,-.7,3.2c.5,1.1,1.6,1.8,2.8,1.8c1.3,-.1,2.3,-.8,2.8,-2.2m0,-1.6c.2,-1,-1.7,-1.6,-1.7,-1.6c.4,1.7,1.7,2.2,1.7,1.6m-6.4,-1.7c-1.9,.8,-.9,2.3,-.8,1.9c0,0,.2,-1.2,.8,-1.9Z" class="ga_24"/>
<path d="M634.5,318.2c-1.7,-.2,-2.3,-1.4,-1.5,-3c.4,-1,1.3,-1.5,2.3,-1.8c1.6,-.5,3.2,-.5,4.8,0c2,.6,3.1,2.5,2.9,4.5c-.1,1.9,-1.7,3.6,-3.6,3.8c-2.1,.3,-4,-.8,-4.7,-2.8c-.1,-.2,-.1,-.4,-.2,-.7m7.1,0c-1.4,-.4,-1.6,-.6,-2.3,-1.8c-.1,-.3,-.3,-.6,-.5,-.9c-.6,-.9,-1.3,-1,-2.1,-.1c-.9,.8,-1.1,2.1,-.7,3.2c.5,1.1,1.6,1.8,2.8,1.8c1.3,-.1,2.3,-.8,2.8,-2.2m0,-1.6c.2,-1,-1.7,-1.6,-1.7,-1.6c.4,1.7,1.7,2.2,1.7,1.6m-6.4,-1.7c-1.9,.8,-.9,2.3,-.8,1.9c0,0,.2,-1.2,.8,-1.9Z" class="ga_24"/>
<path d="M630.6,312.7l-5.2,-5.5c-.3,-.2,-.7,-.3,-.9,0c-.3,.2,-.3,.6,0,.9l5.2,5.5c.3,.2,.7,.3,.9,0c.3,-.2,.3,-.6,0,-.9Z" class="ga_24"/>
<path d="M630.6,320.4l-5.2,5.5c-.3,.3,-.7,.3,-.9,0c-.3,-.2,-.3,-.6,0,-.8l5.2,-5.6c.3,-.2,.7,-.2,.9,0c.3,.2,.3,.6,0,.9Z" class="ga_24"/>
<path d="M629.4,314.7l-7.2,-1.4c-.4,0,-.7,.2,-.7,.5c-.1,.4,.1,.7,.4,.8l7.3,1.4c.3,0,.7,-.2,.7,-.5c.1,-.4,-.1,-.7,-.5,-.8Z" class="ga_24"/>
<path d="M629.4,318.4l-7.2,1.4c-.4,.1,-.7,-.2,-.7,-.5c-.1,-.3,.1,-.7,.4,-.7l7.3,-1.4c.3,-.1,.7,.1,.7,.5c.1,.3,-.1,.6,-.5,.7Z" class="ga_24"/>
<image clip-path="url(#c1f_24)" preserveAspectRatio="none" x="505" y="329" width="89" height="30" xlink:href="img/54.jpg"/>
<image clip-path="url(#c1g_24)" preserveAspectRatio="none" x="505" y="257" width="98" height="72" xlink:href="img/55.jpg"/>
<image clip-path="url(#c1h_24)" preserveAspectRatio="none" x="505" y="350" width="89" height="4" xlink:href="img/56.jpg"/>
<image clip-path="url(#c1i_24)" preserveAspectRatio="none" x="592" y="329" width="11" height="30" xlink:href="img/57.jpg"/>
<image clip-path="url(#c1j_24)" preserveAspectRatio="none" x="593" y="257" width="10" height="72" xlink:href="img/58.jpg"/>
<image clip-path="url(#c1k_24)" preserveAspectRatio="none" x="592" y="350" width="11" height="4" xlink:href="img/59.jpg"/>
<image clip-path="url(#c1l_24)" preserveAspectRatio="none" x="600" y="279" width="3" height="68" xlink:href="img/60.jpg"/>
<image clip-path="url(#c1m_24)" preserveAspectRatio="none" x="600" y="346" width="3" height="8" xlink:href="img/61.jpg"/>
<path d="M530.1,269.8c-10.1,0,-18.3,8.2,-18.3,18.4v64.1h79V288.2c0,-10.2,-8.2,-18.4,-18.4,-18.4Z" class="g3_24"/>
<path d="M511.7,353.2h79.1V346H511.7v7.2Z" class="g7_24"/>
<path d="M517.9,296h2.6c.2,0,.3,-.2,.3,-.4c0,-.2,-.1,-.4,-.3,-.4h-2.6c-.2,0,-.4,.2,-.4,.4c0,.2,.2,.4,.4,.4m4.3,0h2.6c.2,0,.4,-.2,.4,-.4c0,-.2,-.2,-.4,-.4,-.4h-2.6c-.2,0,-.3,.2,-.3,.4c0,.2,.1,.4,.3,.4m4.3,0h2.6c.2,0,.4,-.2,.4,-.4c0,-.2,-.2,-.4,-.4,-.4h-2.6c-.2,0,-.3,.2,-.3,.4c0,.2,.1,.4,.3,.4m4.4,0h2.5c.2,0,.4,-.2,.4,-.4c0,-.2,-.2,-.4,-.4,-.4h-2.5c-.3,0,-.4,.2,-.4,.4c0,.2,.1,.4,.4,.4Z" class="g4_24"/>
<path d="M569.5,328.3h2.2c.2,0,.3,-.2,.3,-.4c0,-.2,-.1,-.4,-.3,-.4h-2.2c-.3,0,-.4,.2,-.4,.4c0,.2,.1,.4,.4,.4m3.6,0h2.2c.2,0,.4,-.2,.4,-.4c0,-.2,-.2,-.4,-.4,-.4h-2.2c-.2,0,-.4,.2,-.4,.4c0,.2,.2,.4,.4,.4m3.6,0h2.2c.3,0,.4,-.2,.4,-.4c0,-.2,-.1,-.4,-.4,-.4h-2.2c-.2,0,-.3,.2,-.3,.4c0,.2,.1,.4,.3,.4m3.7,0h2.2c.2,0,.4,-.2,.4,-.4c0,-.2,-.2,-.4,-.4,-.4h-2.2c-.2,0,-.4,.2,-.4,.4c0,.2,.2,.4,.4,.4m3.6,0h2.2c.3,0,.4,-.2,.4,-.4c0,-.2,-.1,-.4,-.4,-.4H584c-.2,0,-.3,.2,-.3,.4c0,.2,.1,.4,.3,.4Z" class="g4_24"/>
<path d="M568.6,296h2.3c.2,0,.4,-.2,.4,-.4c0,-.2,-.2,-.4,-.4,-.4h-2.3c-.2,0,-.4,.2,-.4,.4c0,.2,.2,.4,.4,.4m3.8,0h2.3c.2,0,.4,-.2,.4,-.4c0,-.2,-.2,-.4,-.4,-.4h-2.3c-.2,0,-.4,.2,-.4,.4c0,.2,.2,.4,.4,.4m3.9,0h2.3c.2,0,.3,-.2,.3,-.4c0,-.2,-.1,-.4,-.3,-.4h-2.3c-.2,0,-.4,.2,-.4,.4c0,.2,.2,.4,.4,.4m3.8,0h2.3c.2,0,.4,-.2,.4,-.4c0,-.2,-.2,-.4,-.4,-.4h-2.3c-.2,0,-.4,.2,-.4,.4c0,.2,.2,.4,.4,.4m3.8,0h2.3c.3,0,.4,-.2,.4,-.4c0,-.2,-.1,-.4,-.4,-.4h-2.3c-.2,0,-.3,.2,-.3,.4c0,.2,.1,.4,.3,.4Z" class="g4_24"/>
<path d="M564.7,313.4c.1,.9,.3,1.8,.3,2.8c-.1,2.6,-1.3,4.6,-3.5,6c-1.7,1.1,-3.6,1.6,-5.6,1.7c-3.1,0,-6.2,0,-9.3,0c-2.1,-.1,-4.1,-.6,-5.8,-1.8c-2.5,-1.8,-3.6,-4.2,-3.2,-7.3c.3,-2.5,.4,-5,.5,-7.5c0,-2.4,0,-4.7,-.1,-7.1c0,-2.7,1.1,-4.8,3.3,-6.4c1.8,-1.4,4,-2,6.3,-2c2.5,0,4.9,0,7.4,0c2.1,0,4.2,.6,5.9,1.8c2.6,1.8,3.8,4.2,3.5,7.3c-.1,1.5,0,3.1,0,4.6c0,0,.2,5.3,.3,7.9m-13.4,-20v-.1c-1.3,0,-2.5,0,-3.7,0c-1.7,.1,-3.3,.4,-4.7,1.3c-2,1.2,-3.4,2.9,-3.3,5.4c.1,1.1,.4,2.2,.7,3.2c.6,1.8,1.4,3.4,2.8,4.6c.4,.3,.4,.7,0,1.1c-.8,.8,-1.7,1.6,-2.8,2c-.7,.2,-.9,.6,-.9,1.3c-.1,.6,.1,1.1,.5,1.5c1,1,2.2,1.8,3.5,2.3c2.3,1,4.7,1.3,7.2,1.3c2.7,.1,5.3,-.1,7.8,-1c1.7,-.7,3.3,-1.5,4.4,-3c.2,-.2,.3,-.4,.3,-.6c0,-.4,0,-.8,-.1,-1.3l-.3,-.3c-1.3,-.5,-2.4,-1.2,-3.3,-2.2c-.4,-.4,-.3,-.8,0,-1.2c.6,-.6,1.2,-1.2,1.6,-1.9c1,-1.6,1.5,-3.3,1.8,-5.1c.3,-1.5,-.1,-2.9,-1,-4.1c-1.5,-2,-3.6,-3,-5.9,-3.2c-1.6,-.1,-3.1,0,-4.6,0m-12.1,21.3c-.5,2.1,0,3.9,1.6,5.4c1.7,1.6,3.7,2.2,5.9,2.2c3,0,6,0,9,0c1,0,2,-.1,3,-.4c1.8,-.7,3.3,-1.7,4.2,-3.4c.6,-1.3,.6,-2.5,.3,-3.9l-.1,.1c-1.4,1.8,-3.3,2.8,-5.5,3.4c-3.7,1,-7.4,1,-11.1,.4c-1.8,-.3,-3.5,-.9,-5.1,-1.9c-.8,-.6,-1.5,-1.3,-2.2,-1.9Z" class="g4_24"/>
<path d="M544.3,324.4c-.7,.5,-1.3,1,-1.9,1.5c-.6,.5,-2.3,1.8,-2.9,2.3c-.3,.2,-.7,.2,-1,.1c-.2,0,-.4,-.2,-.4,-.4c-.1,-.3,0,-.6,.3,-.8c.4,-.3,1.8,-1.5,2.2,-1.8c.5,-.4,1.1,-.9,1.7,-1.3c.1,0,.3,-.1,.5,0c.5,.1,1,.2,1.5,.4Z" class="g4_24"/>
<path d="M558.1,324.4c.7,-.2,1.2,-.4,1.7,-.5l.4,.1c1,.8,3,2.3,3.9,3c.2,.2,.3,.3,.4,.5c.1,.3,0,.7,-.3,.8c-.2,.1,-.7,.2,-.9,0c-1.4,-1,-3.7,-2.8,-5.2,-3.9Z" class="g4_24"/>
<path d="M551.2,307.2c-1.4,0,-2.8,0,-4.2,-.1c-2.5,-.1,-4.5,-2,-5,-4.5c-.1,-.6,-.2,-1.3,-.3,-1.9c-.5,-2.5,1.2,-4.6,3.7,-4.6c3.9,0,7.8,0,11.6,0c2.4,0,4.2,1.9,3.8,4.3c-.1,1.4,-.3,2.8,-1,4c-1.2,1.8,-2.8,2.8,-5,2.8c-1.2,0,-2.4,0,-3.6,0Z" class="g4_24"/>
<path d="M557.1,310.6c.3,0,.7,0,1,0c.6,.1,1,.4,.7,.8c-.6,1.2,-1.2,2.3,-1.9,3.4c-.1,.2,-.4,.3,-.7,.3c-.7,0,-1.4,0,-2.1,0c-.6,0,-.9,-.4,-.7,-.8c.6,-1.1,1.3,-2.2,1.9,-3.3c.1,-.2,.4,-.4,.8,-.4c.4,.1,.7,0,1,0Z" class="g4_24"/>
<path d="M547.3,315.1c-.3,0,-.6,0,-.9,0c-.5,0,-.8,-.1,-.9,-.4c-.6,-1.1,-1.2,-2.1,-1.8,-3.2c-.3,-.5,0,-.8,.7,-.9c.7,0,1.3,0,1.9,0c.5,0,.7,.2,.9,.5c.6,1,1.3,2.1,1.9,3.2c.2,.4,-.1,.8,-.7,.8c-.4,0,-.7,0,-1.1,0Z" class="g4_24"/>
<path d="M552.6,320.7c0,.7,-.6,1.3,-1.3,1.3c-.8,0,-1.4,-.6,-1.4,-1.3c0,-.7,.6,-1.3,1.3,-1.3c.7,-.1,1.4,.6,1.4,1.3Z" class="g4_24"/>
<path d="M517.9,328.3h2.2c.2,0,.4,-.2,.4,-.4c0,-.2,-.2,-.4,-.4,-.4h-2.2c-.2,0,-.4,.2,-.4,.4c0,.2,.2,.4,.4,.4m3.7,0h2.2c.2,0,.4,-.2,.4,-.4c0,-.2,-.2,-.4,-.4,-.4h-2.2c-.2,0,-.4,.2,-.4,.4c0,.2,.2,.4,.4,.4m3.6,0h2.2c.2,0,.4,-.2,.4,-.4c0,-.2,-.2,-.4,-.4,-.4h-2.2c-.2,0,-.4,.2,-.4,.4c0,.2,.2,.4,.4,.4m3.7,0h2.2c.2,0,.3,-.2,.3,-.4c0,-.2,-.1,-.4,-.3,-.4h-2.2c-.3,0,-.4,.2,-.4,.4c0,.2,.1,.4,.4,.4m3.6,0h2.2c.2,0,.4,-.2,.4,-.4c0,-.2,-.2,-.4,-.4,-.4h-2.2c-.2,0,-.4,.2,-.4,.4c0,.2,.2,.4,.4,.4Z" class="g4_24"/>
<path d="M890,1286.2h19.4V0H890V1286.2Z" class="g3_24"/>
</svg>