<?xml version="1.0" encoding="UTF-8" standalone="no"?>
<!DOCTYPE svg PUBLIC "-//W3C//DTD SVG 1.1//EN"
"http://www.w3.org/Graphics/SVG/1.1/DTD/svg11.dtd">
<svg viewBox="0 0 909 1286" version="1.1" xmlns="http://www.w3.org/2000/svg" xmlns:xlink="http://www.w3.org/1999/xlink">
<defs>
<clipPath id="c0_6"><path d="M5.8,1072.4v-38H28.6v38Z"/></clipPath>
<clipPath id="c1_6"><path d="M603.5,597.6V147.2H909.4V597.6Z"/></clipPath>
<clipPath id="c2_6"><path d="M583,592.2V574.6H549.5v17.6ZM39,597.6V147.2H589.7V597.6Z"/></clipPath>
<clipPath id="c3_6"><path d="M549.5,592.2V574.6H583v17.6Z"/></clipPath>
<clipPath id="c4_6"><path d="M39,1247.2V0H909.4V1247.2Z"/></clipPath>
<style type="text/css"><![CDATA[
.g0_6{
fill: #4BC0B5;
}
.g1_6{
fill: #DCDDDE;
}
.g2_6{
fill: #8FD3D3;
}
.g3_6{
fill: #4D4D4F;
}
.g4_6{
fill: #58595B;
}
.g5_6{
fill: #949698;
}
]]></style>
</defs>
<path d="M0,1286.2H29.9V1029H0v257.2Z" class="g0_6"/>
<image clip-path="url(#c0_6)" preserveAspectRatio="none" x="6" y="1034" width="23" height="39" xlink:href="img/1.jpg"/>
<path d="M39,1247.2H308.2V148.8H39V1247.2Z" class="g1_6"/>
<path d="M603.5,597.6H909.4V147.2H603.5V597.6Z" class="g2_6"/>
<image clip-path="url(#c1_6)" preserveAspectRatio="none" x="602" y="147" width="616" height="451" xlink:href="img/2.jpg"/>
<path d="M39,597.6H589.7V147.2H39V597.6Z" class="g2_6"/>
<image clip-path="url(#c2_6)" preserveAspectRatio="none" x="39" y="147" width="551" height="451" xlink:href="img/3.jpg"/>
<image clip-path="url(#c3_6)" preserveAspectRatio="none" x="549" y="575" width="34" height="17" xlink:href="img/4.jpg"/>
<path clip-path="url(#c4_6)" d="M68.8,54.3h-30V84.4h30V54.3Z" class="g3_6"/>
<path d="M42.8,849.1v0c.4,0,.7,-.3,.7,-.7c0,-.5,-.3,-.8,-.7,-.8c-.4,0,-.8,.3,-.8,.8c0,.4,.4,.7,.8,.7m3,0v0c.4,0,.8,-.3,.8,-.7c0,-.5,-.4,-.8,-.8,-.8c-.4,0,-.7,.3,-.7,.8c0,.4,.3,.7,.7,.7m3.1,0v0c.4,0,.7,-.3,.7,-.7c0,-.5,-.3,-.8,-.7,-.8c-.5,0,-.8,.3,-.8,.8c0,.4,.3,.7,.8,.7m3,0v0c.4,0,.8,-.3,.8,-.7c0,-.5,-.4,-.8,-.8,-.8c-.4,0,-.8,.3,-.8,.8c0,.4,.4,.7,.8,.7m3.1,0v0c.4,0,.7,-.3,.7,-.7c0,-.5,-.3,-.8,-.7,-.8c-.5,0,-.8,.3,-.8,.8c0,.4,.3,.7,.8,.7m3,0v0c.4,0,.8,-.3,.8,-.7c0,-.5,-.4,-.8,-.8,-.8c-.4,0,-.8,.3,-.8,.8c0,.4,.4,.7,.8,.7m3,0v0c.5,0,.8,-.3,.8,-.7c0,-.5,-.3,-.8,-.8,-.8c-.4,0,-.7,.3,-.7,.8c0,.4,.3,.7,.7,.7m3.1,0v0c.4,0,.7,-.3,.7,-.7c0,-.5,-.3,-.8,-.7,-.8c-.4,0,-.8,.3,-.8,.8c0,.4,.4,.7,.8,.7m3,0v0c.4,0,.8,-.3,.8,-.7c0,-.5,-.4,-.8,-.8,-.8c-.4,0,-.7,.3,-.7,.8c0,.4,.3,.7,.7,.7m3.1,0v0c.4,0,.7,-.3,.7,-.7c0,-.5,-.3,-.8,-.7,-.8c-.5,0,-.8,.3,-.8,.8c0,.4,.3,.7,.8,.7m3,0v0c.4,0,.8,-.3,.8,-.7c0,-.5,-.4,-.8,-.8,-.8c-.4,0,-.8,.3,-.8,.8c0,.4,.4,.7,.8,.7m3.1,0v0c.4,0,.7,-.3,.7,-.7c0,-.5,-.3,-.8,-.7,-.8c-.5,0,-.8,.3,-.8,.8c0,.4,.3,.7,.8,.7m3,0v0c.4,0,.8,-.3,.8,-.7c0,-.5,-.4,-.8,-.8,-.8c-.4,0,-.8,.3,-.8,.8c0,.4,.4,.7,.8,.7m3,0v0c.5,0,.8,-.3,.8,-.7c0,-.5,-.3,-.8,-.8,-.8c-.4,0,-.7,.3,-.7,.8c0,.4,.3,.7,.7,.7m3.1,0v0c.4,0,.7,-.3,.7,-.7c0,-.5,-.3,-.8,-.7,-.8c-.4,0,-.8,.3,-.8,.8c0,.4,.4,.7,.8,.7m3,0v0c.4,0,.8,-.3,.8,-.7c0,-.5,-.4,-.8,-.8,-.8c-.4,0,-.7,.3,-.7,.8c0,.4,.3,.7,.7,.7m3.1,0v0c.4,0,.7,-.3,.7,-.7c0,-.5,-.3,-.8,-.7,-.8c-.5,0,-.8,.3,-.8,.8c0,.4,.3,.7,.8,.7m3,0v0c.4,0,.8,-.3,.8,-.7c0,-.5,-.4,-.8,-.8,-.8c-.4,0,-.8,.3,-.8,.8c0,.4,.4,.7,.8,.7m3,0v0c.5,0,.8,-.3,.8,-.7c0,-.5,-.3,-.8,-.8,-.8c-.4,0,-.7,.3,-.7,.8c0,.4,.3,.7,.7,.7m3.1,0v0c.4,0,.8,-.3,.8,-.7c0,-.5,-.4,-.8,-.8,-.8c-.4,0,-.8,.3,-.8,.8c0,.4,.4,.7,.8,.7m3,0v0c.5,0,.8,-.3,.8,-.7c0,-.5,-.3,-.8,-.8,-.8c-.4,0,-.7,.3,-.7,.8c0,.4,.3,.7,.7,.7m3.1,0v0c.4,0,.7,-.3,.7,-.7c0,-.5,-.3,-.8,-.7,-.8c-.4,0,-.8,.3,-.8,.8c0,.4,.4,.7,.8,.7m3,0v0c.4,0,.8,-.3,.8,-.7c0,-.5,-.4,-.8,-.8,-.8c-.4,0,-.7,.3,-.7,.8c0,.4,.3,.7,.7,.7m3.1,0v0c.4,0,.7,-.3,.7,-.7c0,-.5,-.3,-.8,-.7,-.8c-.5,0,-.8,.3,-.8,.8c0,.4,.3,.7,.8,.7m3,0v0c.4,0,.8,-.3,.8,-.7c0,-.5,-.4,-.8,-.8,-.8c-.4,0,-.8,.3,-.8,.8c0,.4,.4,.7,.8,.7m3,0v0c.5,0,.8,-.3,.8,-.7c0,-.5,-.3,-.8,-.8,-.8c-.4,0,-.7,.3,-.7,.8c0,.4,.3,.7,.7,.7m3.1,0v0c.4,0,.8,-.3,.8,-.7c0,-.5,-.4,-.8,-.8,-.8c-.4,0,-.8,.3,-.8,.8c0,.4,.4,.7,.8,.7m3,0v0c.5,0,.8,-.3,.8,-.7c0,-.5,-.3,-.8,-.8,-.8c-.4,0,-.7,.3,-.7,.8c0,.4,.3,.7,.7,.7m3.1,0v0c.4,0,.7,-.3,.7,-.7c0,-.5,-.3,-.8,-.7,-.8c-.4,0,-.8,.3,-.8,.8c0,.4,.4,.7,.8,.7m3,0v0c.4,0,.8,-.3,.8,-.7c0,-.5,-.4,-.8,-.8,-.8c-.4,0,-.7,.3,-.7,.8c0,.4,.3,.7,.7,.7m3.1,0v0c.4,0,.7,-.3,.7,-.7c0,-.5,-.3,-.8,-.7,-.8c-.5,0,-.8,.3,-.8,.8c0,.4,.3,.7,.8,.7m3,0v0c.4,0,.8,-.3,.8,-.7c0,-.5,-.4,-.8,-.8,-.8c-.4,0,-.8,.3,-.8,.8c0,.4,.4,.7,.8,.7m3,0v0c.5,0,.8,-.3,.8,-.7c0,-.5,-.3,-.8,-.8,-.8c-.4,0,-.7,.3,-.7,.8c0,.4,.3,.7,.7,.7m3.1,0v0c.4,0,.7,-.3,.7,-.7c0,-.5,-.3,-.8,-.7,-.8c-.4,0,-.8,.3,-.8,.8c0,.4,.4,.7,.8,.7m3,0v0c.5,0,.8,-.3,.8,-.7c0,-.5,-.3,-.8,-.8,-.8c-.4,0,-.7,.3,-.7,.8c0,.4,.3,.7,.7,.7m3.1,0v0c.4,0,.7,-.3,.7,-.7c0,-.5,-.3,-.8,-.7,-.8c-.5,0,-.8,.3,-.8,.8c0,.4,.3,.7,.8,.7m3,0v0c.4,0,.8,-.3,.8,-.7c0,-.5,-.4,-.8,-.8,-.8c-.4,0,-.8,.3,-.8,.8c0,.4,.4,.7,.8,.7m3.1,0v0c.4,0,.7,-.3,.7,-.7c0,-.5,-.3,-.8,-.7,-.8c-.5,0,-.8,.3,-.8,.8c0,.4,.3,.7,.8,.7m3,0v0c.4,0,.8,-.3,.8,-.7c0,-.5,-.4,-.8,-.8,-.8c-.4,0,-.8,.3,-.8,.8c0,.4,.4,.7,.8,.7m3,0v0c.5,0,.8,-.3,.8,-.7c0,-.5,-.3,-.8,-.8,-.8c-.4,0,-.7,.3,-.7,.8c0,.4,.3,.7,.7,.7m3.1,0v0c.4,0,.7,-.3,.7,-.7c0,-.5,-.3,-.8,-.7,-.8c-.4,0,-.8,.3,-.8,.8c0,.4,.4,.7,.8,.7m3,0v0c.4,0,.8,-.3,.8,-.7c0,-.5,-.4,-.8,-.8,-.8c-.4,0,-.7,.3,-.7,.8c0,.4,.3,.7,.7,.7m3.1,0v0c.4,0,.7,-.3,.7,-.7c0,-.5,-.3,-.8,-.7,-.8c-.5,0,-.8,.3,-.8,.8c0,.4,.3,.7,.8,.7m3,0v0c.4,0,.8,-.3,.8,-.7c0,-.5,-.4,-.8,-.8,-.8c-.4,0,-.8,.3,-.8,.8c0,.4,.4,.7,.8,.7m3.1,0v0c.4,0,.7,-.3,.7,-.7c0,-.5,-.3,-.8,-.7,-.8c-.5,0,-.8,.3,-.8,.8c0,.4,.3,.7,.8,.7m3,0v0c.4,0,.8,-.3,.8,-.7c0,-.5,-.4,-.8,-.8,-.8c-.4,0,-.8,.3,-.8,.8c0,.4,.4,.7,.8,.7m3,0v0c.5,0,.8,-.3,.8,-.7c0,-.5,-.3,-.8,-.8,-.8c-.4,0,-.7,.3,-.7,.8c0,.4,.3,.7,.7,.7m3.1,0v0c.4,0,.7,-.3,.7,-.7c0,-.5,-.3,-.8,-.7,-.8c-.4,0,-.8,.3,-.8,.8c0,.4,.4,.7,.8,.7m3,0v0c.4,0,.8,-.3,.8,-.7c0,-.5,-.4,-.8,-.8,-.8c-.4,0,-.7,.3,-.7,.8c0,.4,.3,.7,.7,.7m3.1,0v0c.4,0,.7,-.3,.7,-.7c0,-.5,-.3,-.8,-.7,-.8c-.5,0,-.8,.3,-.8,.8c0,.4,.3,.7,.8,.7m3,0v0c.4,0,.8,-.3,.8,-.7c0,-.5,-.4,-.8,-.8,-.8c-.4,0,-.8,.3,-.8,.8c0,.4,.4,.7,.8,.7m3.1,0v0c.4,0,.7,-.3,.7,-.7c0,-.5,-.3,-.8,-.7,-.8c-.5,0,-.8,.3,-.8,.8c0,.4,.3,.7,.8,.7m3,0v0c.4,0,.8,-.3,.8,-.7c0,-.5,-.4,-.8,-.8,-.8c-.4,0,-.8,.3,-.8,.8c0,.4,.4,.7,.8,.7m3,0v0c.5,0,.8,-.3,.8,-.7c0,-.5,-.3,-.8,-.8,-.8c-.4,0,-.7,.3,-.7,.8c0,.4,.3,.7,.7,.7m3.1,0v0c.4,0,.7,-.3,.7,-.7c0,-.5,-.3,-.8,-.7,-.8c-.4,0,-.8,.3,-.8,.8c0,.4,.4,.7,.8,.7m3,0v0c.4,0,.8,-.3,.8,-.7c0,-.5,-.4,-.8,-.8,-.8c-.4,0,-.7,.3,-.7,.8c0,.4,.3,.7,.7,.7m3.1,0v0c.4,0,.7,-.3,.7,-.7c0,-.5,-.3,-.8,-.7,-.8c-.5,0,-.8,.3,-.8,.8c0,.4,.3,.7,.8,.7m3,0v0c.4,0,.8,-.3,.8,-.7c0,-.5,-.4,-.8,-.8,-.8c-.4,0,-.8,.3,-.8,.8c0,.4,.4,.7,.8,.7m3,0v0c.5,0,.8,-.3,.8,-.7c0,-.5,-.3,-.8,-.8,-.8c-.4,0,-.7,.3,-.7,.8c0,.4,.3,.7,.7,.7m3.1,0v0c.4,0,.8,-.3,.8,-.7c0,-.5,-.4,-.8,-.8,-.8c-.4,0,-.8,.3,-.8,.8c0,.4,.4,.7,.8,.7m3,0v0c.5,0,.8,-.3,.8,-.7c0,-.5,-.3,-.8,-.8,-.8c-.4,0,-.7,.3,-.7,.8c0,.4,.3,.7,.7,.7m3.1,0v0c.4,0,.7,-.3,.7,-.7c0,-.5,-.3,-.8,-.7,-.8c-.4,0,-.8,.3,-.8,.8c0,.4,.4,.7,.8,.7m3,0v0c.4,0,.8,-.3,.8,-.7c0,-.5,-.4,-.8,-.8,-.8c-.4,0,-.7,.3,-.7,.8c0,.4,.3,.7,.7,.7m3.1,0v0c.4,0,.7,-.3,.7,-.7c0,-.5,-.3,-.8,-.7,-.8c-.5,0,-.8,.3,-.8,.8c0,.4,.3,.7,.8,.7m3,0v0c.4,0,.8,-.3,.8,-.7c0,-.5,-.4,-.8,-.8,-.8c-.4,0,-.8,.3,-.8,.8c0,.4,.4,.7,.8,.7m3,0v0c.5,0,.8,-.3,.8,-.7c0,-.5,-.3,-.8,-.8,-.8c-.4,0,-.7,.3,-.7,.8c0,.4,.3,.7,.7,.7m3.1,0v0c.4,0,.8,-.3,.8,-.7c0,-.5,-.4,-.8,-.8,-.8c-.4,0,-.8,.3,-.8,.8c0,.4,.4,.7,.8,.7m3,0v0c.5,0,.8,-.3,.8,-.7c0,-.5,-.3,-.8,-.8,-.8c-.4,0,-.7,.3,-.7,.8c0,.4,.3,.7,.7,.7m3.1,0v0c.4,0,.7,-.3,.7,-.7c0,-.5,-.3,-.8,-.7,-.8c-.5,0,-.8,.3,-.8,.8c0,.4,.3,.7,.8,.7m3,0v0c.4,0,.8,-.3,.8,-.7c0,-.5,-.4,-.8,-.8,-.8c-.4,0,-.7,.3,-.7,.8c0,.4,.3,.7,.7,.7m3.1,0v0c.4,0,.7,-.3,.7,-.7c0,-.5,-.3,-.8,-.7,-.8c-.5,0,-.8,.3,-.8,.8c0,.4,.3,.7,.8,.7m3,0v0c.4,0,.8,-.3,.8,-.7c0,-.5,-.4,-.8,-.8,-.8c-.4,0,-.8,.3,-.8,.8c0,.4,.4,.7,.8,.7m3,0v0c.5,0,.8,-.3,.8,-.7c0,-.5,-.3,-.8,-.8,-.8c-.4,0,-.7,.3,-.7,.8c0,.4,.3,.7,.7,.7m3.1,0v0c.4,0,.7,-.3,.7,-.7c0,-.5,-.3,-.8,-.7,-.8c-.4,0,-.8,.3,-.8,.8c0,.4,.4,.7,.8,.7m3,0v0c.4,0,.8,-.3,.8,-.7c0,-.5,-.4,-.8,-.8,-.8c-.4,0,-.7,.3,-.7,.8c0,.4,.3,.7,.7,.7m3.1,0v0c.4,0,.7,-.3,.7,-.7c0,-.5,-.3,-.8,-.7,-.8c-.5,0,-.8,.3,-.8,.8c0,.4,.3,.7,.8,.7m3,0v0c.4,0,.8,-.3,.8,-.7c0,-.5,-.4,-.8,-.8,-.8c-.4,0,-.8,.3,-.8,.8c0,.4,.4,.7,.8,.7m3.1,0v0c.4,0,.7,-.3,.7,-.7c0,-.5,-.3,-.8,-.7,-.8c-.5,0,-.8,.3,-.8,.8c0,.4,.3,.7,.8,.7m3,0v0c.4,0,.8,-.3,.8,-.7c0,-.5,-.4,-.8,-.8,-.8c-.4,0,-.8,.3,-.8,.8c0,.4,.4,.7,.8,.7m3,0v0c.5,0,.8,-.3,.8,-.7c0,-.5,-.3,-.8,-.8,-.8c-.4,0,-.7,.3,-.7,.8c0,.4,.3,.7,.7,.7m3.1,0v0c.4,0,.7,-.3,.7,-.7c0,-.5,-.3,-.8,-.7,-.8c-.4,0,-.8,.3,-.8,.8c0,.4,.4,.7,.8,.7m3,0v0c.4,0,.8,-.3,.8,-.7c0,-.5,-.4,-.8,-.8,-.8c-.4,0,-.7,.3,-.7,.8c0,.4,.3,.7,.7,.7m3.1,0v0c.4,0,.7,-.3,.7,-.7c0,-.5,-.3,-.8,-.7,-.8c-.5,0,-.8,.3,-.8,.8c0,.4,.3,.7,.8,.7m3,0v0c.4,0,.8,-.3,.8,-.7c0,-.5,-.4,-.8,-.8,-.8c-.4,0,-.8,.3,-.8,.8c0,.4,.4,.7,.8,.7m3.1,0v0c.4,0,.7,-.3,.7,-.7c0,-.5,-.3,-.8,-.7,-.8c-.5,0,-.8,.3,-.8,.8c0,.4,.3,.7,.8,.7m3,0v0c.4,0,.8,-.3,.8,-.7c0,-.5,-.4,-.8,-.8,-.8c-.4,0,-.8,.3,-.8,.8c0,.4,.4,.7,.8,.7m3,0v0c.5,0,.8,-.3,.8,-.7c0,-.5,-.3,-.8,-.8,-.8c-.4,0,-.7,.3,-.7,.8c0,.4,.3,.7,.7,.7Z" class="g4_6"/>
<path d="M39.7,849.1c.2,0,.4,-.1,.6,-.2c.1,-.1,.2,-.3,.2,-.5c0,-.2,-.1,-.4,-.2,-.6c-.2,-.1,-.4,-.2,-.6,-.2c-.2,0,-.4,.1,-.5,.2c-.1,.2,-.2,.4,-.2,.6c0,.2,.1,.4,.2,.5c.1,.1,.3,.2,.5,.2m267.8,0c.2,0,.4,-.1,.5,-.2c.2,-.1,.2,-.3,.2,-.5c0,-.2,0,-.4,-.2,-.6c-.1,-.1,-.3,-.2,-.5,-.2c-.2,0,-.4,.1,-.6,.2c-.1,.2,-.2,.4,-.2,.6c0,.2,.1,.4,.2,.5c.2,.1,.4,.2,.6,.2Z" class="g4_6"/>
<path d="M39,874.6H308.2v-1.5H39Z" class="g4_6"/>
<path d="M39,638.7H308.2v-2.3H39Z" class="g4_6"/>
<path d="M40.9,894.1v0c.2,0,.4,-.2,.4,-.4c0,-.2,-.2,-.4,-.4,-.4c-.2,0,-.4,.2,-.4,.4c0,.2,.2,.4,.4,.4m1.5,0v0c.2,0,.4,-.2,.4,-.4c0,-.2,-.2,-.4,-.4,-.4c-.2,0,-.4,.2,-.4,.4c0,.2,.2,.4,.4,.4m1.5,0v0c.2,0,.4,-.2,.4,-.4c0,-.2,-.2,-.4,-.4,-.4c-.2,0,-.3,.2,-.3,.4c0,.2,.1,.4,.3,.4m1.6,0v0c.2,0,.3,-.2,.3,-.4c0,-.2,-.1,-.4,-.3,-.4c-.2,0,-.4,.2,-.4,.4c0,.2,.2,.4,.4,.4m1.5,0v0c.2,0,.4,-.2,.4,-.4c0,-.2,-.2,-.4,-.4,-.4c-.2,0,-.4,.2,-.4,.4c0,.2,.2,.4,.4,.4m1.5,0v0c.2,0,.4,-.2,.4,-.4c0,-.2,-.2,-.4,-.4,-.4c-.2,0,-.4,.2,-.4,.4c0,.2,.2,.4,.4,.4m1.5,0v0c.2,0,.4,-.2,.4,-.4c0,-.2,-.2,-.4,-.4,-.4c-.2,0,-.3,.2,-.3,.4c0,.2,.1,.4,.3,.4m1.6,0v0c.2,0,.3,-.2,.3,-.4c0,-.2,-.1,-.4,-.3,-.4c-.2,0,-.4,.2,-.4,.4c0,.2,.2,.4,.4,.4m1.5,0v0c.2,0,.4,-.2,.4,-.4c0,-.2,-.2,-.4,-.4,-.4c-.2,0,-.4,.2,-.4,.4c0,.2,.2,.4,.4,.4m1.5,0v0c.2,0,.4,-.2,.4,-.4c0,-.2,-.2,-.4,-.4,-.4c-.2,0,-.4,.2,-.4,.4c0,.2,.2,.4,.4,.4m1.5,0v0c.3,0,.4,-.2,.4,-.4c0,-.2,-.1,-.4,-.4,-.4c-.2,0,-.3,.2,-.3,.4c0,.2,.1,.4,.3,.4m1.6,0v0c.2,0,.3,-.2,.3,-.4c0,-.2,-.1,-.4,-.3,-.4c-.2,0,-.4,.2,-.4,.4c0,.2,.2,.4,.4,.4m1.5,0v0c.2,0,.4,-.2,.4,-.4c0,-.2,-.2,-.4,-.4,-.4c-.2,0,-.4,.2,-.4,.4c0,.2,.2,.4,.4,.4m1.5,0v0c.2,0,.4,-.2,.4,-.4c0,-.2,-.2,-.4,-.4,-.4c-.2,0,-.4,.2,-.4,.4c0,.2,.2,.4,.4,.4m1.5,0v0c.3,0,.4,-.2,.4,-.4c0,-.2,-.1,-.4,-.4,-.4c-.2,0,-.3,.2,-.3,.4c0,.2,.1,.4,.3,.4m1.6,0v0c.2,0,.4,-.2,.4,-.4c0,-.2,-.2,-.4,-.4,-.4c-.2,0,-.4,.2,-.4,.4c0,.2,.2,.4,.4,.4m1.5,0v0c.2,0,.4,-.2,.4,-.4c0,-.2,-.2,-.4,-.4,-.4c-.2,0,-.4,.2,-.4,.4c0,.2,.2,.4,.4,.4m1.5,0v0c.2,0,.4,-.2,.4,-.4c0,-.2,-.2,-.4,-.4,-.4c-.2,0,-.4,.2,-.4,.4c0,.2,.2,.4,.4,.4m1.5,0v0c.3,0,.4,-.2,.4,-.4c0,-.2,-.1,-.4,-.4,-.4c-.2,0,-.3,.2,-.3,.4c0,.2,.1,.4,.3,.4m1.6,0v0c.2,0,.4,-.2,.4,-.4c0,-.2,-.2,-.4,-.4,-.4c-.2,0,-.4,.2,-.4,.4c0,.2,.2,.4,.4,.4m1.5,0v0c.2,0,.4,-.2,.4,-.4c0,-.2,-.2,-.4,-.4,-.4c-.2,0,-.4,.2,-.4,.4c0,.2,.2,.4,.4,.4m1.5,0v0c.2,0,.4,-.2,.4,-.4c0,-.2,-.2,-.4,-.4,-.4c-.2,0,-.4,.2,-.4,.4c0,.2,.2,.4,.4,.4m1.5,0v0c.3,0,.4,-.2,.4,-.4c0,-.2,-.1,-.4,-.4,-.4c-.2,0,-.3,.2,-.3,.4c0,.2,.1,.4,.3,.4m1.6,0v0c.2,0,.4,-.2,.4,-.4c0,-.2,-.2,-.4,-.4,-.4c-.2,0,-.4,.2,-.4,.4c0,.2,.2,.4,.4,.4m1.5,0v0c.2,0,.4,-.2,.4,-.4c0,-.2,-.2,-.4,-.4,-.4c-.2,0,-.4,.2,-.4,.4c0,.2,.2,.4,.4,.4m1.5,0v0c.2,0,.4,-.2,.4,-.4c0,-.2,-.2,-.4,-.4,-.4c-.2,0,-.4,.2,-.4,.4c0,.2,.2,.4,.4,.4m1.5,0v0c.3,0,.4,-.2,.4,-.4c0,-.2,-.1,-.4,-.4,-.4c-.2,0,-.3,.2,-.3,.4c0,.2,.1,.4,.3,.4m1.6,0v0c.2,0,.4,-.2,.4,-.4c0,-.2,-.2,-.4,-.4,-.4c-.2,0,-.4,.2,-.4,.4c0,.2,.2,.4,.4,.4m1.5,0v0c.2,0,.4,-.2,.4,-.4c0,-.2,-.2,-.4,-.4,-.4c-.2,0,-.4,.2,-.4,.4c0,.2,.2,.4,.4,.4m1.5,0v0c.2,0,.4,-.2,.4,-.4c0,-.2,-.2,-.4,-.4,-.4c-.2,0,-.4,.2,-.4,.4c0,.2,.2,.4,.4,.4m1.6,0v0c.2,0,.3,-.2,.3,-.4c0,-.2,-.1,-.4,-.3,-.4c-.3,0,-.4,.2,-.4,.4c0,.2,.1,.4,.4,.4m1.5,0v0c.2,0,.4,-.2,.4,-.4c0,-.2,-.2,-.4,-.4,-.4c-.2,0,-.4,.2,-.4,.4c0,.2,.2,.4,.4,.4m1.5,0v0c.2,0,.4,-.2,.4,-.4c0,-.2,-.2,-.4,-.4,-.4c-.2,0,-.4,.2,-.4,.4c0,.2,.2,.4,.4,.4m1.5,0v0c.2,0,.4,-.2,.4,-.4c0,-.2,-.2,-.4,-.4,-.4c-.2,0,-.4,.2,-.4,.4c0,.2,.2,.4,.4,.4m1.6,0v0c.2,0,.3,-.2,.3,-.4c0,-.2,-.1,-.4,-.3,-.4c-.3,0,-.4,.2,-.4,.4c0,.2,.1,.4,.4,.4m1.5,0v0c.2,0,.4,-.2,.4,-.4c0,-.2,-.2,-.4,-.4,-.4c-.2,0,-.4,.2,-.4,.4c0,.2,.2,.4,.4,.4m1.5,0v0c.2,0,.4,-.2,.4,-.4c0,-.2,-.2,-.4,-.4,-.4c-.2,0,-.4,.2,-.4,.4c0,.2,.2,.4,.4,.4m1.5,0v0c.2,0,.4,-.2,.4,-.4c0,-.2,-.2,-.4,-.4,-.4c-.2,0,-.4,.2,-.4,.4c0,.2,.2,.4,.4,.4m1.6,0v0c.2,0,.3,-.2,.3,-.4c0,-.2,-.1,-.4,-.3,-.4c-.3,0,-.4,.2,-.4,.4c0,.2,.1,.4,.4,.4m1.5,0v0c.2,0,.4,-.2,.4,-.4c0,-.2,-.2,-.4,-.4,-.4c-.2,0,-.4,.2,-.4,.4c0,.2,.2,.4,.4,.4m1.5,0v0c.2,0,.4,-.2,.4,-.4c0,-.2,-.2,-.4,-.4,-.4c-.2,0,-.4,.2,-.4,.4c0,.2,.2,.4,.4,.4m1.5,0v0c.2,0,.4,-.2,.4,-.4c0,-.2,-.2,-.4,-.4,-.4c-.2,0,-.3,.2,-.3,.4c0,.2,.1,.4,.3,.4m1.6,0v0c.2,0,.3,-.2,.3,-.4c0,-.2,-.1,-.4,-.3,-.4c-.3,0,-.4,.2,-.4,.4c0,.2,.1,.4,.4,.4m1.5,0v0c.2,0,.4,-.2,.4,-.4c0,-.2,-.2,-.4,-.4,-.4c-.2,0,-.4,.2,-.4,.4c0,.2,.2,.4,.4,.4m1.5,0v0c.2,0,.4,-.2,.4,-.4c0,-.2,-.2,-.4,-.4,-.4c-.2,0,-.4,.2,-.4,.4c0,.2,.2,.4,.4,.4m1.5,0v0c.2,0,.4,-.2,.4,-.4c0,-.2,-.2,-.4,-.4,-.4c-.2,0,-.3,.2,-.3,.4c0,.2,.1,.4,.3,.4m1.6,0v0c.2,0,.3,-.2,.3,-.4c0,-.2,-.1,-.4,-.3,-.4c-.2,0,-.4,.2,-.4,.4c0,.2,.2,.4,.4,.4m1.5,0v0c.2,0,.4,-.2,.4,-.4c0,-.2,-.2,-.4,-.4,-.4c-.2,0,-.4,.2,-.4,.4c0,.2,.2,.4,.4,.4m1.5,0v0c.2,0,.4,-.2,.4,-.4c0,-.2,-.2,-.4,-.4,-.4c-.2,0,-.4,.2,-.4,.4c0,.2,.2,.4,.4,.4m1.5,0v0c.2,0,.4,-.2,.4,-.4c0,-.2,-.2,-.4,-.4,-.4c-.2,0,-.3,.2,-.3,.4c0,.2,.1,.4,.3,.4m1.6,0v0c.2,0,.3,-.2,.3,-.4c0,-.2,-.1,-.4,-.3,-.4c-.2,0,-.4,.2,-.4,.4c0,.2,.2,.4,.4,.4m1.5,0v0c.2,0,.4,-.2,.4,-.4c0,-.2,-.2,-.4,-.4,-.4c-.2,0,-.4,.2,-.4,.4c0,.2,.2,.4,.4,.4m1.5,0v0c.2,0,.4,-.2,.4,-.4c0,-.2,-.2,-.4,-.4,-.4c-.2,0,-.4,.2,-.4,.4c0,.2,.2,.4,.4,.4m1.5,0v0c.3,0,.4,-.2,.4,-.4c0,-.2,-.1,-.4,-.4,-.4c-.2,0,-.3,.2,-.3,.4c0,.2,.1,.4,.3,.4m1.6,0v0c.2,0,.3,-.2,.3,-.4c0,-.2,-.1,-.4,-.3,-.4c-.2,0,-.4,.2,-.4,.4c0,.2,.2,.4,.4,.4m1.5,0v0c.2,0,.4,-.2,.4,-.4c0,-.2,-.2,-.4,-.4,-.4c-.2,0,-.4,.2,-.4,.4c0,.2,.2,.4,.4,.4m1.5,0v0c.2,0,.4,-.2,.4,-.4c0,-.2,-.2,-.4,-.4,-.4c-.2,0,-.4,.2,-.4,.4c0,.2,.2,.4,.4,.4m1.5,0v0c.3,0,.4,-.2,.4,-.4c0,-.2,-.1,-.4,-.4,-.4c-.2,0,-.3,.2,-.3,.4c0,.2,.1,.4,.3,.4m1.6,0v0c.2,0,.4,-.2,.4,-.4c0,-.2,-.2,-.4,-.4,-.4c-.2,0,-.4,.2,-.4,.4c0,.2,.2,.4,.4,.4m1.5,0v0c.2,0,.4,-.2,.4,-.4c0,-.2,-.2,-.4,-.4,-.4c-.2,0,-.4,.2,-.4,.4c0,.2,.2,.4,.4,.4m1.5,0v0c.2,0,.4,-.2,.4,-.4c0,-.2,-.2,-.4,-.4,-.4c-.2,0,-.4,.2,-.4,.4c0,.2,.2,.4,.4,.4m1.5,0v0c.3,0,.4,-.2,.4,-.4c0,-.2,-.1,-.4,-.4,-.4c-.2,0,-.3,.2,-.3,.4c0,.2,.1,.4,.3,.4m1.6,0v0c.2,0,.4,-.2,.4,-.4c0,-.2,-.2,-.4,-.4,-.4c-.2,0,-.4,.2,-.4,.4c0,.2,.2,.4,.4,.4m1.5,0v0c.2,0,.4,-.2,.4,-.4c0,-.2,-.2,-.4,-.4,-.4c-.2,0,-.4,.2,-.4,.4c0,.2,.2,.4,.4,.4m1.5,0v0c.2,0,.4,-.2,.4,-.4c0,-.2,-.2,-.4,-.4,-.4c-.2,0,-.4,.2,-.4,.4c0,.2,.2,.4,.4,.4m1.5,0v0c.3,0,.4,-.2,.4,-.4c0,-.2,-.1,-.4,-.4,-.4c-.2,0,-.3,.2,-.3,.4c0,.2,.1,.4,.3,.4m1.6,0v0c.2,0,.4,-.2,.4,-.4c0,-.2,-.2,-.4,-.4,-.4c-.2,0,-.4,.2,-.4,.4c0,.2,.2,.4,.4,.4m1.5,0v0c.2,0,.4,-.2,.4,-.4c0,-.2,-.2,-.4,-.4,-.4c-.2,0,-.4,.2,-.4,.4c0,.2,.2,.4,.4,.4m1.5,0v0c.2,0,.4,-.2,.4,-.4c0,-.2,-.2,-.4,-.4,-.4c-.2,0,-.4,.2,-.4,.4c0,.2,.2,.4,.4,.4m1.5,0v0c.3,0,.4,-.2,.4,-.4c0,-.2,-.1,-.4,-.4,-.4c-.2,0,-.3,.2,-.3,.4c0,.2,.1,.4,.3,.4m1.6,0v0c.2,0,.4,-.2,.4,-.4c0,-.2,-.2,-.4,-.4,-.4c-.2,0,-.4,.2,-.4,.4c0,.2,.2,.4,.4,.4m1.5,0v0c.2,0,.4,-.2,.4,-.4c0,-.2,-.2,-.4,-.4,-.4c-.2,0,-.4,.2,-.4,.4c0,.2,.2,.4,.4,.4m1.5,0v0c.2,0,.4,-.2,.4,-.4c0,-.2,-.2,-.4,-.4,-.4c-.2,0,-.4,.2,-.4,.4c0,.2,.2,.4,.4,.4m1.6,0v0c.2,0,.3,-.2,.3,-.4c0,-.2,-.1,-.4,-.3,-.4c-.3,0,-.4,.2,-.4,.4c0,.2,.1,.4,.4,.4m1.5,0v0c.2,0,.4,-.2,.4,-.4c0,-.2,-.2,-.4,-.4,-.4c-.2,0,-.4,.2,-.4,.4c0,.2,.2,.4,.4,.4m1.5,0v0c.2,0,.4,-.2,.4,-.4c0,-.2,-.2,-.4,-.4,-.4c-.2,0,-.4,.2,-.4,.4c0,.2,.2,.4,.4,.4m1.5,0v0c.2,0,.4,-.2,.4,-.4c0,-.2,-.2,-.4,-.4,-.4c-.2,0,-.4,.2,-.4,.4c0,.2,.2,.4,.4,.4m1.6,0v0c.2,0,.3,-.2,.3,-.4c0,-.2,-.1,-.4,-.3,-.4c-.3,0,-.4,.2,-.4,.4c0,.2,.1,.4,.4,.4m1.5,0v0c.2,0,.4,-.2,.4,-.4c0,-.2,-.2,-.4,-.4,-.4c-.2,0,-.4,.2,-.4,.4c0,.2,.2,.4,.4,.4m1.5,0v0c.2,0,.4,-.2,.4,-.4c0,-.2,-.2,-.4,-.4,-.4c-.2,0,-.4,.2,-.4,.4c0,.2,.2,.4,.4,.4m1.5,0v0c.2,0,.4,-.2,.4,-.4c0,-.2,-.2,-.4,-.4,-.4c-.2,0,-.4,.2,-.4,.4c0,.2,.2,.4,.4,.4m1.6,0v0c.2,0,.3,-.2,.3,-.4c0,-.2,-.1,-.4,-.3,-.4c-.3,0,-.4,.2,-.4,.4c0,.2,.1,.4,.4,.4m1.5,0v0c.2,0,.4,-.2,.4,-.4c0,-.2,-.2,-.4,-.4,-.4c-.2,0,-.4,.2,-.4,.4c0,.2,.2,.4,.4,.4m1.5,0v0c.2,0,.4,-.2,.4,-.4c0,-.2,-.2,-.4,-.4,-.4c-.2,0,-.4,.2,-.4,.4c0,.2,.2,.4,.4,.4m1.5,0v0c.2,0,.4,-.2,.4,-.4c0,-.2,-.2,-.4,-.4,-.4c-.2,0,-.3,.2,-.3,.4c0,.2,.1,.4,.3,.4m1.6,0v0c.2,0,.3,-.2,.3,-.4c0,-.2,-.1,-.4,-.3,-.4c-.3,0,-.4,.2,-.4,.4c0,.2,.1,.4,.4,.4m1.5,0v0c.2,0,.4,-.2,.4,-.4c0,-.2,-.2,-.4,-.4,-.4c-.2,0,-.4,.2,-.4,.4c0,.2,.2,.4,.4,.4m1.5,0v0c.2,0,.4,-.2,.4,-.4c0,-.2,-.2,-.4,-.4,-.4c-.2,0,-.4,.2,-.4,.4c0,.2,.2,.4,.4,.4m1.5,0v0c.2,0,.4,-.2,.4,-.4c0,-.2,-.2,-.4,-.4,-.4c-.2,0,-.3,.2,-.3,.4c0,.2,.1,.4,.3,.4m1.6,0v0c.2,0,.3,-.2,.3,-.4c0,-.2,-.1,-.4,-.3,-.4c-.3,0,-.4,.2,-.4,.4c0,.2,.1,.4,.4,.4m1.5,0v0c.2,0,.4,-.2,.4,-.4c0,-.2,-.2,-.4,-.4,-.4c-.2,0,-.4,.2,-.4,.4c0,.2,.2,.4,.4,.4m1.5,0v0c.2,0,.4,-.2,.4,-.4c0,-.2,-.2,-.4,-.4,-.4c-.2,0,-.4,.2,-.4,.4c0,.2,.2,.4,.4,.4m1.5,0v0c.2,0,.4,-.2,.4,-.4c0,-.2,-.2,-.4,-.4,-.4c-.2,0,-.3,.2,-.3,.4c0,.2,.1,.4,.3,.4m1.6,0v0c.2,0,.3,-.2,.3,-.4c0,-.2,-.1,-.4,-.3,-.4c-.2,0,-.4,.2,-.4,.4c0,.2,.2,.4,.4,.4m1.5,0v0c.2,0,.4,-.2,.4,-.4c0,-.2,-.2,-.4,-.4,-.4c-.2,0,-.4,.2,-.4,.4c0,.2,.2,.4,.4,.4m1.5,0v0c.2,0,.4,-.2,.4,-.4c0,-.2,-.2,-.4,-.4,-.4c-.2,0,-.4,.2,-.4,.4c0,.2,.2,.4,.4,.4m1.5,0v0c.3,0,.4,-.2,.4,-.4c0,-.2,-.1,-.4,-.4,-.4c-.2,0,-.3,.2,-.3,.4c0,.2,.1,.4,.3,.4m1.6,0v0c.2,0,.3,-.2,.3,-.4c0,-.2,-.1,-.4,-.3,-.4c-.2,0,-.4,.2,-.4,.4c0,.2,.2,.4,.4,.4m1.5,0v0c.2,0,.4,-.2,.4,-.4c0,-.2,-.2,-.4,-.4,-.4c-.2,0,-.4,.2,-.4,.4c0,.2,.2,.4,.4,.4m1.5,0v0c.2,0,.4,-.2,.4,-.4c0,-.2,-.2,-.4,-.4,-.4c-.2,0,-.4,.2,-.4,.4c0,.2,.2,.4,.4,.4m1.5,0v0c.3,0,.4,-.2,.4,-.4c0,-.2,-.1,-.4,-.4,-.4c-.2,0,-.3,.2,-.3,.4c0,.2,.1,.4,.3,.4m1.6,0v0c.2,0,.3,-.2,.3,-.4c0,-.2,-.1,-.4,-.3,-.4c-.2,0,-.4,.2,-.4,.4c0,.2,.2,.4,.4,.4m1.5,0v0c.2,0,.4,-.2,.4,-.4c0,-.2,-.2,-.4,-.4,-.4c-.2,0,-.4,.2,-.4,.4c0,.2,.2,.4,.4,.4m1.5,0v0c.2,0,.4,-.2,.4,-.4c0,-.2,-.2,-.4,-.4,-.4c-.2,0,-.4,.2,-.4,.4c0,.2,.2,.4,.4,.4m1.5,0v0c.3,0,.4,-.2,.4,-.4c0,-.2,-.1,-.4,-.4,-.4c-.2,0,-.3,.2,-.3,.4c0,.2,.1,.4,.3,.4m1.6,0v0c.2,0,.4,-.2,.4,-.4c0,-.2,-.2,-.4,-.4,-.4c-.2,0,-.4,.2,-.4,.4c0,.2,.2,.4,.4,.4m1.5,0v0c.2,0,.4,-.2,.4,-.4c0,-.2,-.2,-.4,-.4,-.4c-.2,0,-.4,.2,-.4,.4c0,.2,.2,.4,.4,.4m1.5,0v0c.2,0,.4,-.2,.4,-.4c0,-.2,-.2,-.4,-.4,-.4c-.2,0,-.4,.2,-.4,.4c0,.2,.2,.4,.4,.4m1.5,0v0c.3,0,.4,-.2,.4,-.4c0,-.2,-.1,-.4,-.4,-.4c-.2,0,-.3,.2,-.3,.4c0,.2,.1,.4,.3,.4m1.6,0v0c.2,0,.4,-.2,.4,-.4c0,-.2,-.2,-.4,-.4,-.4c-.2,0,-.4,.2,-.4,.4c0,.2,.2,.4,.4,.4m1.5,0v0c.2,0,.4,-.2,.4,-.4c0,-.2,-.2,-.4,-.4,-.4c-.2,0,-.4,.2,-.4,.4c0,.2,.2,.4,.4,.4m1.5,0v0c.2,0,.4,-.2,.4,-.4c0,-.2,-.2,-.4,-.4,-.4c-.2,0,-.4,.2,-.4,.4c0,.2,.2,.4,.4,.4m1.5,0v0c.3,0,.4,-.2,.4,-.4c0,-.2,-.1,-.4,-.4,-.4c-.2,0,-.3,.2,-.3,.4c0,.2,.1,.4,.3,.4m1.6,0v0c.2,0,.4,-.2,.4,-.4c0,-.2,-.2,-.4,-.4,-.4c-.2,0,-.4,.2,-.4,.4c0,.2,.2,.4,.4,.4m1.5,0v0c.2,0,.4,-.2,.4,-.4c0,-.2,-.2,-.4,-.4,-.4c-.2,0,-.4,.2,-.4,.4c0,.2,.2,.4,.4,.4m1.5,0v0c.2,0,.4,-.2,.4,-.4c0,-.2,-.2,-.4,-.4,-.4c-.2,0,-.4,.2,-.4,.4c0,.2,.2,.4,.4,.4m1.6,0v0c.2,0,.3,-.2,.3,-.4c0,-.2,-.1,-.4,-.3,-.4c-.3,0,-.4,.2,-.4,.4c0,.2,.1,.4,.4,.4m1.5,0v0c.2,0,.4,-.2,.4,-.4c0,-.2,-.2,-.4,-.4,-.4c-.2,0,-.4,.2,-.4,.4c0,.2,.2,.4,.4,.4m1.5,0v0c.2,0,.4,-.2,.4,-.4c0,-.2,-.2,-.4,-.4,-.4c-.2,0,-.4,.2,-.4,.4c0,.2,.2,.4,.4,.4m1.5,0v0c.2,0,.4,-.2,.4,-.4c0,-.2,-.2,-.4,-.4,-.4c-.2,0,-.4,.2,-.4,.4c0,.2,.2,.4,.4,.4m1.6,0v0c.2,0,.3,-.2,.3,-.4c0,-.2,-.1,-.4,-.3,-.4c-.3,0,-.4,.2,-.4,.4c0,.2,.1,.4,.4,.4m1.5,0v0c.2,0,.4,-.2,.4,-.4c0,-.2,-.2,-.4,-.4,-.4c-.2,0,-.4,.2,-.4,.4c0,.2,.2,.4,.4,.4m1.5,0v0c.2,0,.4,-.2,.4,-.4c0,-.2,-.2,-.4,-.4,-.4c-.2,0,-.4,.2,-.4,.4c0,.2,.2,.4,.4,.4m1.5,0v0c.2,0,.4,-.2,.4,-.4c0,-.2,-.2,-.4,-.4,-.4c-.2,0,-.4,.2,-.4,.4c0,.2,.2,.4,.4,.4m1.6,0v0c.2,0,.3,-.2,.3,-.4c0,-.2,-.1,-.4,-.3,-.4c-.3,0,-.4,.2,-.4,.4c0,.2,.1,.4,.4,.4m1.5,0v0c.2,0,.4,-.2,.4,-.4c0,-.2,-.2,-.4,-.4,-.4c-.2,0,-.4,.2,-.4,.4c0,.2,.2,.4,.4,.4m1.5,0v0c.2,0,.4,-.2,.4,-.4c0,-.2,-.2,-.4,-.4,-.4c-.2,0,-.4,.2,-.4,.4c0,.2,.2,.4,.4,.4m1.5,0v0c.2,0,.4,-.2,.4,-.4c0,-.2,-.2,-.4,-.4,-.4c-.2,0,-.3,.2,-.3,.4c0,.2,.1,.4,.3,.4m1.6,0v0c.2,0,.3,-.2,.3,-.4c0,-.2,-.1,-.4,-.3,-.4c-.3,0,-.4,.2,-.4,.4c0,.2,.1,.4,.4,.4m1.5,0v0c.2,0,.4,-.2,.4,-.4c0,-.2,-.2,-.4,-.4,-.4c-.2,0,-.4,.2,-.4,.4c0,.2,.2,.4,.4,.4m1.5,0v0c.2,0,.4,-.2,.4,-.4c0,-.2,-.2,-.4,-.4,-.4c-.2,0,-.4,.2,-.4,.4c0,.2,.2,.4,.4,.4m1.5,0v0c.2,0,.4,-.2,.4,-.4c0,-.2,-.2,-.4,-.4,-.4c-.2,0,-.3,.2,-.3,.4c0,.2,.1,.4,.3,.4m1.6,0v0c.2,0,.3,-.2,.3,-.4c0,-.2,-.1,-.4,-.3,-.4c-.2,0,-.4,.2,-.4,.4c0,.2,.2,.4,.4,.4m1.5,0v0c.2,0,.4,-.2,.4,-.4c0,-.2,-.2,-.4,-.4,-.4c-.2,0,-.4,.2,-.4,.4c0,.2,.2,.4,.4,.4m1.5,0v0c.2,0,.4,-.2,.4,-.4c0,-.2,-.2,-.4,-.4,-.4c-.2,0,-.4,.2,-.4,.4c0,.2,.2,.4,.4,.4m1.5,0v0c.2,0,.4,-.2,.4,-.4c0,-.2,-.2,-.4,-.4,-.4c-.2,0,-.3,.2,-.3,.4c0,.2,.1,.4,.3,.4m1.6,0v0c.2,0,.3,-.2,.3,-.4c0,-.2,-.1,-.4,-.3,-.4c-.2,0,-.4,.2,-.4,.4c0,.2,.2,.4,.4,.4m1.5,0v0c.2,0,.4,-.2,.4,-.4c0,-.2,-.2,-.4,-.4,-.4c-.2,0,-.4,.2,-.4,.4c0,.2,.2,.4,.4,.4m1.5,0v0c.2,0,.4,-.2,.4,-.4c0,-.2,-.2,-.4,-.4,-.4c-.2,0,-.4,.2,-.4,.4c0,.2,.2,.4,.4,.4m1.5,0v0c.3,0,.4,-.2,.4,-.4c0,-.2,-.1,-.4,-.4,-.4c-.2,0,-.3,.2,-.3,.4c0,.2,.1,.4,.3,.4m1.6,0v0c.2,0,.3,-.2,.3,-.4c0,-.2,-.1,-.4,-.3,-.4c-.2,0,-.4,.2,-.4,.4c0,.2,.2,.4,.4,.4m1.5,0v0c.2,0,.4,-.2,.4,-.4c0,-.2,-.2,-.4,-.4,-.4c-.2,0,-.4,.2,-.4,.4c0,.2,.2,.4,.4,.4m1.5,0v0c.2,0,.4,-.2,.4,-.4c0,-.2,-.2,-.4,-.4,-.4c-.2,0,-.4,.2,-.4,.4c0,.2,.2,.4,.4,.4m1.5,0v0c.3,0,.4,-.2,.4,-.4c0,-.2,-.1,-.4,-.4,-.4c-.2,0,-.3,.2,-.3,.4c0,.2,.1,.4,.3,.4m1.6,0v0c.2,0,.4,-.2,.4,-.4c0,-.2,-.2,-.4,-.4,-.4c-.2,0,-.4,.2,-.4,.4c0,.2,.2,.4,.4,.4m1.5,0v0c.2,0,.4,-.2,.4,-.4c0,-.2,-.2,-.4,-.4,-.4c-.2,0,-.4,.2,-.4,.4c0,.2,.2,.4,.4,.4m1.5,0v0c.2,0,.4,-.2,.4,-.4c0,-.2,-.2,-.4,-.4,-.4c-.2,0,-.4,.2,-.4,.4c0,.2,.2,.4,.4,.4m1.5,0v0c.3,0,.4,-.2,.4,-.4c0,-.2,-.1,-.4,-.4,-.4c-.2,0,-.3,.2,-.3,.4c0,.2,.1,.4,.3,.4m1.6,0v0c.2,0,.4,-.2,.4,-.4c0,-.2,-.2,-.4,-.4,-.4c-.2,0,-.4,.2,-.4,.4c0,.2,.2,.4,.4,.4m1.5,0v0c.2,0,.4,-.2,.4,-.4c0,-.2,-.2,-.4,-.4,-.4c-.2,0,-.4,.2,-.4,.4c0,.2,.2,.4,.4,.4m1.5,0v0c.2,0,.4,-.2,.4,-.4c0,-.2,-.2,-.4,-.4,-.4c-.2,0,-.4,.2,-.4,.4c0,.2,.2,.4,.4,.4m1.5,0v0c.3,0,.4,-.2,.4,-.4c0,-.2,-.1,-.4,-.4,-.4c-.2,0,-.3,.2,-.3,.4c0,.2,.1,.4,.3,.4m1.6,0v0c.2,0,.4,-.2,.4,-.4c0,-.2,-.2,-.4,-.4,-.4c-.2,0,-.4,.2,-.4,.4c0,.2,.2,.4,.4,.4m1.5,0v0c.2,0,.4,-.2,.4,-.4c0,-.2,-.2,-.4,-.4,-.4c-.2,0,-.4,.2,-.4,.4c0,.2,.2,.4,.4,.4m1.5,0v0c.2,0,.4,-.2,.4,-.4c0,-.2,-.2,-.4,-.4,-.4c-.2,0,-.4,.2,-.4,.4c0,.2,.2,.4,.4,.4m1.6,0v0c.2,0,.3,-.2,.3,-.4c0,-.2,-.1,-.4,-.3,-.4c-.3,0,-.4,.2,-.4,.4c0,.2,.1,.4,.4,.4m1.5,0v0c.2,0,.4,-.2,.4,-.4c0,-.2,-.2,-.4,-.4,-.4c-.2,0,-.4,.2,-.4,.4c0,.2,.2,.4,.4,.4m1.5,0v0c.2,0,.4,-.2,.4,-.4c0,-.2,-.2,-.4,-.4,-.4c-.2,0,-.4,.2,-.4,.4c0,.2,.2,.4,.4,.4m1.5,0v0c.2,0,.4,-.2,.4,-.4c0,-.2,-.2,-.4,-.4,-.4c-.2,0,-.4,.2,-.4,.4c0,.2,.2,.4,.4,.4m1.6,0v0c.2,0,.3,-.2,.3,-.4c0,-.2,-.1,-.4,-.3,-.4c-.3,0,-.4,.2,-.4,.4c0,.2,.1,.4,.4,.4m1.5,0v0c.2,0,.4,-.2,.4,-.4c0,-.2,-.2,-.4,-.4,-.4c-.2,0,-.4,.2,-.4,.4c0,.2,.2,.4,.4,.4m1.5,0v0c.2,0,.4,-.2,.4,-.4c0,-.2,-.2,-.4,-.4,-.4c-.2,0,-.4,.2,-.4,.4c0,.2,.2,.4,.4,.4m1.5,0v0c.2,0,.4,-.2,.4,-.4c0,-.2,-.2,-.4,-.4,-.4c-.2,0,-.4,.2,-.4,.4c0,.2,.2,.4,.4,.4m1.6,0v0c.2,0,.3,-.2,.3,-.4c0,-.2,-.1,-.4,-.3,-.4c-.3,0,-.4,.2,-.4,.4c0,.2,.1,.4,.4,.4m1.5,0v0c.2,0,.4,-.2,.4,-.4c0,-.2,-.2,-.4,-.4,-.4c-.2,0,-.4,.2,-.4,.4c0,.2,.2,.4,.4,.4m1.5,0v0c.2,0,.4,-.2,.4,-.4c0,-.2,-.2,-.4,-.4,-.4c-.2,0,-.4,.2,-.4,.4c0,.2,.2,.4,.4,.4m1.5,0v0c.2,0,.4,-.2,.4,-.4c0,-.2,-.2,-.4,-.4,-.4c-.2,0,-.4,.2,-.4,.4c0,.2,.2,.4,.4,.4m1.6,0v0c.2,0,.3,-.2,.3,-.4c0,-.2,-.1,-.4,-.3,-.4c-.3,0,-.4,.2,-.4,.4c0,.2,.1,.4,.4,.4m1.5,0v0c.2,0,.4,-.2,.4,-.4c0,-.2,-.2,-.4,-.4,-.4c-.2,0,-.4,.2,-.4,.4c0,.2,.2,.4,.4,.4m1.5,0v0c.2,0,.4,-.2,.4,-.4c0,-.2,-.2,-.4,-.4,-.4c-.2,0,-.4,.2,-.4,.4c0,.2,.2,.4,.4,.4m1.5,0v0c.2,0,.4,-.2,.4,-.4c0,-.2,-.2,-.4,-.4,-.4c-.2,0,-.3,.2,-.3,.4c0,.2,.1,.4,.3,.4m1.6,0v0c.2,0,.3,-.2,.3,-.4c0,-.2,-.1,-.4,-.3,-.4c-.3,0,-.4,.2,-.4,.4c0,.2,.1,.4,.4,.4m1.5,0v0c.2,0,.4,-.2,.4,-.4c0,-.2,-.2,-.4,-.4,-.4c-.2,0,-.4,.2,-.4,.4c0,.2,.2,.4,.4,.4m1.5,0v0c.2,0,.4,-.2,.4,-.4c0,-.2,-.2,-.4,-.4,-.4c-.2,0,-.4,.2,-.4,.4c0,.2,.2,.4,.4,.4m1.5,0v0c.2,0,.4,-.2,.4,-.4c0,-.2,-.2,-.4,-.4,-.4c-.2,0,-.3,.2,-.3,.4c0,.2,.1,.4,.3,.4Z" class="g4_6"/>
<path d="M39.4,894.1l.2,-.2l.1,-.2l-.1,-.3l-.2,-.1l-.3,.1l-.1,.3l.1,.2Zm268.5,0l.2,-.2l.1,-.2l-.1,-.3l-.2,-.1l-.3,.1l-.1,.3l.1,.2Z" class="g4_6"/>
<path d="M42.8,1121.4v0c.4,0,.7,-.4,.7,-.8c0,-.4,-.3,-.8,-.7,-.8c-.4,0,-.8,.4,-.8,.8c0,.4,.4,.8,.8,.8m3,0v0c.4,0,.8,-.4,.8,-.8c0,-.4,-.4,-.8,-.8,-.8c-.4,0,-.7,.4,-.7,.8c0,.4,.3,.8,.7,.8m3.1,0v0c.4,0,.7,-.4,.7,-.8c0,-.4,-.3,-.8,-.7,-.8c-.5,0,-.8,.4,-.8,.8c0,.4,.3,.8,.8,.8m3,0v0c.4,0,.8,-.4,.8,-.8c0,-.4,-.4,-.8,-.8,-.8c-.4,0,-.8,.4,-.8,.8c0,.4,.4,.8,.8,.8m3.1,0v0c.4,0,.7,-.4,.7,-.8c0,-.4,-.3,-.8,-.7,-.8c-.5,0,-.8,.4,-.8,.8c0,.4,.3,.8,.8,.8m3,0v0c.4,0,.8,-.4,.8,-.8c0,-.4,-.4,-.8,-.8,-.8c-.4,0,-.8,.4,-.8,.8c0,.4,.4,.8,.8,.8m3,0v0c.5,0,.8,-.4,.8,-.8c0,-.4,-.3,-.8,-.8,-.8c-.4,0,-.7,.4,-.7,.8c0,.4,.3,.8,.7,.8m3.1,0v0c.4,0,.7,-.4,.7,-.8c0,-.4,-.3,-.8,-.7,-.8c-.4,0,-.8,.4,-.8,.8c0,.4,.4,.8,.8,.8m3,0v0c.4,0,.8,-.4,.8,-.8c0,-.4,-.4,-.8,-.8,-.8c-.4,0,-.7,.4,-.7,.8c0,.4,.3,.8,.7,.8m3.1,0v0c.4,0,.7,-.4,.7,-.8c0,-.4,-.3,-.8,-.7,-.8c-.5,0,-.8,.4,-.8,.8c0,.4,.3,.8,.8,.8m3,0v0c.4,0,.8,-.4,.8,-.8c0,-.4,-.4,-.8,-.8,-.8c-.4,0,-.8,.4,-.8,.8c0,.4,.4,.8,.8,.8m3.1,0v0c.4,0,.7,-.4,.7,-.8c0,-.4,-.3,-.8,-.7,-.8c-.5,0,-.8,.4,-.8,.8c0,.4,.3,.8,.8,.8m3,0v0c.4,0,.8,-.4,.8,-.8c0,-.4,-.4,-.8,-.8,-.8c-.4,0,-.8,.4,-.8,.8c0,.4,.4,.8,.8,.8m3,0v0c.5,0,.8,-.4,.8,-.8c0,-.4,-.3,-.8,-.8,-.8c-.4,0,-.7,.4,-.7,.8c0,.4,.3,.8,.7,.8m3.1,0v0c.4,0,.7,-.4,.7,-.8c0,-.4,-.3,-.8,-.7,-.8c-.4,0,-.8,.4,-.8,.8c0,.4,.4,.8,.8,.8m3,0v0c.4,0,.8,-.4,.8,-.8c0,-.4,-.4,-.8,-.8,-.8c-.4,0,-.7,.4,-.7,.8c0,.4,.3,.8,.7,.8m3.1,0v0c.4,0,.7,-.4,.7,-.8c0,-.4,-.3,-.8,-.7,-.8c-.5,0,-.8,.4,-.8,.8c0,.4,.3,.8,.8,.8m3,0v0c.4,0,.8,-.4,.8,-.8c0,-.4,-.4,-.8,-.8,-.8c-.4,0,-.8,.4,-.8,.8c0,.4,.4,.8,.8,.8m3,0v0c.5,0,.8,-.4,.8,-.8c0,-.4,-.3,-.8,-.8,-.8c-.4,0,-.7,.4,-.7,.8c0,.4,.3,.8,.7,.8m3.1,0v0c.4,0,.8,-.4,.8,-.8c0,-.4,-.4,-.8,-.8,-.8c-.4,0,-.8,.4,-.8,.8c0,.4,.4,.8,.8,.8m3,0v0c.5,0,.8,-.4,.8,-.8c0,-.4,-.3,-.8,-.8,-.8c-.4,0,-.7,.4,-.7,.8c0,.4,.3,.8,.7,.8m3.1,0v0c.4,0,.7,-.4,.7,-.8c0,-.4,-.3,-.8,-.7,-.8c-.4,0,-.8,.4,-.8,.8c0,.4,.4,.8,.8,.8m3,0v0c.4,0,.8,-.4,.8,-.8c0,-.4,-.4,-.8,-.8,-.8c-.4,0,-.7,.4,-.7,.8c0,.4,.3,.8,.7,.8m3.1,0v0c.4,0,.7,-.4,.7,-.8c0,-.4,-.3,-.8,-.7,-.8c-.5,0,-.8,.4,-.8,.8c0,.4,.3,.8,.8,.8m3,0v0c.4,0,.8,-.4,.8,-.8c0,-.4,-.4,-.8,-.8,-.8c-.4,0,-.8,.4,-.8,.8c0,.4,.4,.8,.8,.8m3,0v0c.5,0,.8,-.4,.8,-.8c0,-.4,-.3,-.8,-.8,-.8c-.4,0,-.7,.4,-.7,.8c0,.4,.3,.8,.7,.8m3.1,0v0c.4,0,.8,-.4,.8,-.8c0,-.4,-.4,-.8,-.8,-.8c-.4,0,-.8,.4,-.8,.8c0,.4,.4,.8,.8,.8m3,0v0c.5,0,.8,-.4,.8,-.8c0,-.4,-.3,-.8,-.8,-.8c-.4,0,-.7,.4,-.7,.8c0,.4,.3,.8,.7,.8m3.1,0v0c.4,0,.7,-.4,.7,-.8c0,-.4,-.3,-.8,-.7,-.8c-.4,0,-.8,.4,-.8,.8c0,.4,.4,.8,.8,.8m3,0v0c.4,0,.8,-.4,.8,-.8c0,-.4,-.4,-.8,-.8,-.8c-.4,0,-.7,.4,-.7,.8c0,.4,.3,.8,.7,.8m3.1,0v0c.4,0,.7,-.4,.7,-.8c0,-.4,-.3,-.8,-.7,-.8c-.5,0,-.8,.4,-.8,.8c0,.4,.3,.8,.8,.8m3,0v0c.4,0,.8,-.4,.8,-.8c0,-.4,-.4,-.8,-.8,-.8c-.4,0,-.8,.4,-.8,.8c0,.4,.4,.8,.8,.8m3,0v0c.5,0,.8,-.4,.8,-.8c0,-.4,-.3,-.8,-.8,-.8c-.4,0,-.7,.4,-.7,.8c0,.4,.3,.8,.7,.8m3.1,0v0c.4,0,.7,-.4,.7,-.8c0,-.4,-.3,-.8,-.7,-.8c-.4,0,-.8,.4,-.8,.8c0,.4,.4,.8,.8,.8m3,0v0c.5,0,.8,-.4,.8,-.8c0,-.4,-.3,-.8,-.8,-.8c-.4,0,-.7,.4,-.7,.8c0,.4,.3,.8,.7,.8m3.1,0v0c.4,0,.7,-.4,.7,-.8c0,-.4,-.3,-.8,-.7,-.8c-.5,0,-.8,.4,-.8,.8c0,.4,.3,.8,.8,.8m3,0v0c.4,0,.8,-.4,.8,-.8c0,-.4,-.4,-.8,-.8,-.8c-.4,0,-.8,.4,-.8,.8c0,.4,.4,.8,.8,.8m3.1,0v0c.4,0,.7,-.4,.7,-.8c0,-.4,-.3,-.8,-.7,-.8c-.5,0,-.8,.4,-.8,.8c0,.4,.3,.8,.8,.8m3,0v0c.4,0,.8,-.4,.8,-.8c0,-.4,-.4,-.8,-.8,-.8c-.4,0,-.8,.4,-.8,.8c0,.4,.4,.8,.8,.8m3,0v0c.5,0,.8,-.4,.8,-.8c0,-.4,-.3,-.8,-.8,-.8c-.4,0,-.7,.4,-.7,.8c0,.4,.3,.8,.7,.8m3.1,0v0c.4,0,.7,-.4,.7,-.8c0,-.4,-.3,-.8,-.7,-.8c-.4,0,-.8,.4,-.8,.8c0,.4,.4,.8,.8,.8m3,0v0c.4,0,.8,-.4,.8,-.8c0,-.4,-.4,-.8,-.8,-.8c-.4,0,-.7,.4,-.7,.8c0,.4,.3,.8,.7,.8m3.1,0v0c.4,0,.7,-.4,.7,-.8c0,-.4,-.3,-.8,-.7,-.8c-.5,0,-.8,.4,-.8,.8c0,.4,.3,.8,.8,.8m3,0v0c.4,0,.8,-.4,.8,-.8c0,-.4,-.4,-.8,-.8,-.8c-.4,0,-.8,.4,-.8,.8c0,.4,.4,.8,.8,.8m3.1,0v0c.4,0,.7,-.4,.7,-.8c0,-.4,-.3,-.8,-.7,-.8c-.5,0,-.8,.4,-.8,.8c0,.4,.3,.8,.8,.8m3,0v0c.4,0,.8,-.4,.8,-.8c0,-.4,-.4,-.8,-.8,-.8c-.4,0,-.8,.4,-.8,.8c0,.4,.4,.8,.8,.8m3,0v0c.5,0,.8,-.4,.8,-.8c0,-.4,-.3,-.8,-.8,-.8c-.4,0,-.7,.4,-.7,.8c0,.4,.3,.8,.7,.8m3.1,0v0c.4,0,.7,-.4,.7,-.8c0,-.4,-.3,-.8,-.7,-.8c-.4,0,-.8,.4,-.8,.8c0,.4,.4,.8,.8,.8m3,0v0c.4,0,.8,-.4,.8,-.8c0,-.4,-.4,-.8,-.8,-.8c-.4,0,-.7,.4,-.7,.8c0,.4,.3,.8,.7,.8m3.1,0v0c.4,0,.7,-.4,.7,-.8c0,-.4,-.3,-.8,-.7,-.8c-.5,0,-.8,.4,-.8,.8c0,.4,.3,.8,.8,.8m3,0v0c.4,0,.8,-.4,.8,-.8c0,-.4,-.4,-.8,-.8,-.8c-.4,0,-.8,.4,-.8,.8c0,.4,.4,.8,.8,.8m3.1,0v0c.4,0,.7,-.4,.7,-.8c0,-.4,-.3,-.8,-.7,-.8c-.5,0,-.8,.4,-.8,.8c0,.4,.3,.8,.8,.8m3,0v0c.4,0,.8,-.4,.8,-.8c0,-.4,-.4,-.8,-.8,-.8c-.4,0,-.8,.4,-.8,.8c0,.4,.4,.8,.8,.8m3,0v0c.5,0,.8,-.4,.8,-.8c0,-.4,-.3,-.8,-.8,-.8c-.4,0,-.7,.4,-.7,.8c0,.4,.3,.8,.7,.8m3.1,0v0c.4,0,.7,-.4,.7,-.8c0,-.4,-.3,-.8,-.7,-.8c-.4,0,-.8,.4,-.8,.8c0,.4,.4,.8,.8,.8m3,0v0c.4,0,.8,-.4,.8,-.8c0,-.4,-.4,-.8,-.8,-.8c-.4,0,-.7,.4,-.7,.8c0,.4,.3,.8,.7,.8m3.1,0v0c.4,0,.7,-.4,.7,-.8c0,-.4,-.3,-.8,-.7,-.8c-.5,0,-.8,.4,-.8,.8c0,.4,.3,.8,.8,.8m3,0v0c.4,0,.8,-.4,.8,-.8c0,-.4,-.4,-.8,-.8,-.8c-.4,0,-.8,.4,-.8,.8c0,.4,.4,.8,.8,.8m3,0v0c.5,0,.8,-.4,.8,-.8c0,-.4,-.3,-.8,-.8,-.8c-.4,0,-.7,.4,-.7,.8c0,.4,.3,.8,.7,.8m3.1,0v0c.4,0,.8,-.4,.8,-.8c0,-.4,-.4,-.8,-.8,-.8c-.4,0,-.8,.4,-.8,.8c0,.4,.4,.8,.8,.8m3,0v0c.5,0,.8,-.4,.8,-.8c0,-.4,-.3,-.8,-.8,-.8c-.4,0,-.7,.4,-.7,.8c0,.4,.3,.8,.7,.8m3.1,0v0c.4,0,.7,-.4,.7,-.8c0,-.4,-.3,-.8,-.7,-.8c-.4,0,-.8,.4,-.8,.8c0,.4,.4,.8,.8,.8m3,0v0c.4,0,.8,-.4,.8,-.8c0,-.4,-.4,-.8,-.8,-.8c-.4,0,-.7,.4,-.7,.8c0,.4,.3,.8,.7,.8m3.1,0v0c.4,0,.7,-.4,.7,-.8c0,-.4,-.3,-.8,-.7,-.8c-.5,0,-.8,.4,-.8,.8c0,.4,.3,.8,.8,.8m3,0v0c.4,0,.8,-.4,.8,-.8c0,-.4,-.4,-.8,-.8,-.8c-.4,0,-.8,.4,-.8,.8c0,.4,.4,.8,.8,.8m3,0v0c.5,0,.8,-.4,.8,-.8c0,-.4,-.3,-.8,-.8,-.8c-.4,0,-.7,.4,-.7,.8c0,.4,.3,.8,.7,.8m3.1,0v0c.4,0,.8,-.4,.8,-.8c0,-.4,-.4,-.8,-.8,-.8c-.4,0,-.8,.4,-.8,.8c0,.4,.4,.8,.8,.8m3,0v0c.5,0,.8,-.4,.8,-.8c0,-.4,-.3,-.8,-.8,-.8c-.4,0,-.7,.4,-.7,.8c0,.4,.3,.8,.7,.8m3.1,0v0c.4,0,.7,-.4,.7,-.8c0,-.4,-.3,-.8,-.7,-.8c-.5,0,-.8,.4,-.8,.8c0,.4,.3,.8,.8,.8m3,0v0c.4,0,.8,-.4,.8,-.8c0,-.4,-.4,-.8,-.8,-.8c-.4,0,-.7,.4,-.7,.8c0,.4,.3,.8,.7,.8m3.1,0v0c.4,0,.7,-.4,.7,-.8c0,-.4,-.3,-.8,-.7,-.8c-.5,0,-.8,.4,-.8,.8c0,.4,.3,.8,.8,.8m3,0v0c.4,0,.8,-.4,.8,-.8c0,-.4,-.4,-.8,-.8,-.8c-.4,0,-.8,.4,-.8,.8c0,.4,.4,.8,.8,.8m3,0v0c.5,0,.8,-.4,.8,-.8c0,-.4,-.3,-.8,-.8,-.8c-.4,0,-.7,.4,-.7,.8c0,.4,.3,.8,.7,.8m3.1,0v0c.4,0,.7,-.4,.7,-.8c0,-.4,-.3,-.8,-.7,-.8c-.4,0,-.8,.4,-.8,.8c0,.4,.4,.8,.8,.8m3,0v0c.4,0,.8,-.4,.8,-.8c0,-.4,-.4,-.8,-.8,-.8c-.4,0,-.7,.4,-.7,.8c0,.4,.3,.8,.7,.8m3.1,0v0c.4,0,.7,-.4,.7,-.8c0,-.4,-.3,-.8,-.7,-.8c-.5,0,-.8,.4,-.8,.8c0,.4,.3,.8,.8,.8m3,0v0c.4,0,.8,-.4,.8,-.8c0,-.4,-.4,-.8,-.8,-.8c-.4,0,-.8,.4,-.8,.8c0,.4,.4,.8,.8,.8m3.1,0v0c.4,0,.7,-.4,.7,-.8c0,-.4,-.3,-.8,-.7,-.8c-.5,0,-.8,.4,-.8,.8c0,.4,.3,.8,.8,.8m3,0v0c.4,0,.8,-.4,.8,-.8c0,-.4,-.4,-.8,-.8,-.8c-.4,0,-.8,.4,-.8,.8c0,.4,.4,.8,.8,.8m3,0v0c.5,0,.8,-.4,.8,-.8c0,-.4,-.3,-.8,-.8,-.8c-.4,0,-.7,.4,-.7,.8c0,.4,.3,.8,.7,.8m3.1,0v0c.4,0,.7,-.4,.7,-.8c0,-.4,-.3,-.8,-.7,-.8c-.4,0,-.8,.4,-.8,.8c0,.4,.4,.8,.8,.8m3,0v0c.4,0,.8,-.4,.8,-.8c0,-.4,-.4,-.8,-.8,-.8c-.4,0,-.7,.4,-.7,.8c0,.4,.3,.8,.7,.8m3.1,0v0c.4,0,.7,-.4,.7,-.8c0,-.4,-.3,-.8,-.7,-.8c-.5,0,-.8,.4,-.8,.8c0,.4,.3,.8,.8,.8m3,0v0c.4,0,.8,-.4,.8,-.8c0,-.4,-.4,-.8,-.8,-.8c-.4,0,-.8,.4,-.8,.8c0,.4,.4,.8,.8,.8m3.1,0v0c.4,0,.7,-.4,.7,-.8c0,-.4,-.3,-.8,-.7,-.8c-.5,0,-.8,.4,-.8,.8c0,.4,.3,.8,.8,.8m3,0v0c.4,0,.8,-.4,.8,-.8c0,-.4,-.4,-.8,-.8,-.8c-.4,0,-.8,.4,-.8,.8c0,.4,.4,.8,.8,.8m3,0v0c.5,0,.8,-.4,.8,-.8c0,-.4,-.3,-.8,-.8,-.8c-.4,0,-.7,.4,-.7,.8c0,.4,.3,.8,.7,.8Z" class="g4_6"/>
<path d="M39.7,1121.4c.2,0,.4,-.1,.6,-.3c.1,-.1,.2,-.3,.2,-.5c0,-.2,-.1,-.4,-.2,-.5c-.2,-.2,-.4,-.3,-.6,-.3c-.2,0,-.4,.1,-.5,.3c-.1,.1,-.2,.3,-.2,.5c0,.2,.1,.4,.2,.5c.1,.2,.3,.3,.5,.3m267.8,0c.2,0,.4,-.1,.5,-.3c.2,-.1,.2,-.3,.2,-.5c0,-.2,0,-.4,-.2,-.5c-.1,-.2,-.3,-.3,-.5,-.3c-.2,0,-.4,.1,-.6,.3c-.1,.1,-.2,.3,-.2,.5c0,.2,.1,.4,.2,.5c.2,.2,.4,.3,.6,.3Z" class="g4_6"/>
<path d="M39,937.2H308.2V935H39Z" class="g4_6"/>
<path d="M180.5,1158.7h63.7v-2.3H180.5Z" class="g4_6"/>
<path d="M244.2,1158.7h64v-2.3h-64Z" class="g4_6"/>
<path d="M244.6,1183.9v-25.2h-.8v25.2Z" class="g5_6"/>
<path d="M180.5,1157.5v-21h-.7v21Z" class="g5_6"/>
<path d="M180.5,1183.9v-26.4h-.7v26.4Z" class="g5_6"/>
<path d="M180.2,1187h64v-3.1h-64Z" class="g3_6"/>
<path d="M244.2,1187h64v-3.1h-64Z" class="g3_6"/>
<path d="M181.5,1208.9v0l.2,-.2l-.2,-.2l-.2,.2Zm.8,0v0l.2,-.2l-.2,-.2l-.2,.2Zm.7,0v0l.2,-.2l-.2,-.2l-.2,.2Zm.8,0v0l.2,-.2l-.2,-.2l-.2,.2Zm.8,0v0l.1,-.2l-.1,-.2l-.2,.2Zm.7,0v0l.2,-.2l-.2,-.2l-.2,.2Zm.8,0v0l.2,-.2l-.2,-.2l-.2,.2Zm.7,0v0l.2,-.2l-.2,-.2l-.1,.2Zm.8,0v0l.2,-.2l-.2,-.2l-.2,.2Zm.8,0v0l.2,-.2l-.2,-.2l-.2,.2Zm.7,0v0l.2,-.2l-.2,-.2l-.1,.2Zm.8,0v0l.2,-.2l-.2,-.2l-.2,.2Zm.8,0v0l.2,-.2l-.2,-.2l-.2,.2Zm.7,0v0l.2,-.2l-.2,-.2l-.2,.2Zm.8,0v0l.2,-.2l-.2,-.2l-.2,.2Zm.8,0v0l.2,-.2l-.2,-.2l-.2,.2Zm.7,0v0l.2,-.2l-.2,-.2l-.2,.2Zm.8,0v0l.2,-.2l-.2,-.2l-.2,.2Zm.8,0v0l.2,-.2l-.2,-.2l-.2,.2Zm.7,0v0l.2,-.2l-.2,-.2l-.2,.2Zm.8,0v0l.2,-.2l-.2,-.2l-.2,.2Zm.8,0v0l.1,-.2l-.1,-.2l-.2,.2Zm.7,0v0l.2,-.2l-.2,-.2l-.2,.2Zm.8,0v0l.2,-.2l-.2,-.2l-.2,.2Zm.7,0v0l.2,-.2l-.2,-.2l-.1,.2Zm.8,0v0l.2,-.2l-.2,-.2l-.2,.2Zm.8,0v0l.2,-.2l-.2,-.2l-.2,.2Zm.7,0v0l.2,-.2l-.2,-.2l-.1,.2Zm.8,0v0l.2,-.2l-.2,-.2l-.2,.2Zm.8,0v0l.2,-.2l-.2,-.2l-.2,.2Zm.7,0v0l.2,-.2l-.2,-.2l-.2,.2Zm.8,0v0l.2,-.2l-.2,-.2l-.2,.2Zm.8,0v0l.2,-.2l-.2,-.2l-.2,.2Zm.7,0v0l.2,-.2l-.2,-.2l-.2,.2Zm.8,0v0l.2,-.2l-.2,-.2l-.2,.2Zm.8,0v0l.2,-.2l-.2,-.2l-.2,.2Zm.7,0v0l.2,-.2l-.2,-.2l-.2,.2Zm.8,0v0l.2,-.2l-.2,-.2l-.2,.2Zm.8,0v0l.1,-.2l-.1,-.2l-.2,.2Zm.7,0v0l.2,-.2l-.2,-.2l-.2,.2Zm.8,0v0l.2,-.2l-.2,-.2l-.2,.2Zm.7,0v0l.2,-.2l-.2,-.2l-.1,.2Zm.8,0v0l.2,-.2l-.2,-.2l-.2,.2Zm.8,0v0l.2,-.2l-.2,-.2l-.2,.2Zm.7,0v0l.2,-.2l-.2,-.2l-.1,.2Zm.8,0v0l.2,-.2l-.2,-.2l-.2,.2Zm.8,0v0l.2,-.2l-.2,-.2l-.2,.2Zm.7,0v0l.2,-.2l-.2,-.2l-.2,.2Zm.8,0v0l.2,-.2l-.2,-.2l-.2,.2Zm.8,0v0l.2,-.2l-.2,-.2l-.2,.2Zm.7,0v0l.2,-.2l-.2,-.2l-.2,.2Zm.8,0v0l.2,-.2l-.2,-.2l-.2,.2Zm.8,0v0l.2,-.2l-.2,-.2l-.2,.2Zm.7,0v0l.2,-.2l-.2,-.2l-.2,.2Zm.8,0v0l.2,-.2l-.2,-.2l-.2,.2Zm.8,0v0l.1,-.2l-.1,-.2l-.2,.2Zm.7,0v0l.2,-.2l-.2,-.2l-.2,.2Zm.8,0v0l.2,-.2l-.2,-.2l-.2,.2Zm.7,0v0l.2,-.2l-.2,-.2l-.1,.2Zm.8,0v0l.2,-.2l-.2,-.2l-.2,.2Zm.8,0v0l.2,-.2l-.2,-.2l-.2,.2Zm.7,0v0l.2,-.2l-.2,-.2l-.1,.2Zm.8,0v0l.2,-.2l-.2,-.2l-.2,.2Zm.8,0v0l.2,-.2l-.2,-.2l-.2,.2Zm.7,0v0l.2,-.2l-.2,-.2l-.2,.2Zm.8,0v0l.2,-.2l-.2,-.2l-.2,.2Zm.8,0v0l.2,-.2l-.2,-.2l-.2,.2Zm.7,0v0l.2,-.2l-.2,-.2l-.2,.2Zm.8,0v0l.2,-.2l-.2,-.2l-.2,.2Zm.8,0v0l.2,-.2l-.2,-.2l-.2,.2Zm.7,0v0l.2,-.2l-.2,-.2l-.2,.2Zm.8,0v0l.2,-.2l-.2,-.2l-.2,.2Zm.8,0v0l.1,-.2l-.1,-.2l-.2,.2Zm.7,0v0l.2,-.2l-.2,-.2l-.2,.2Zm.8,0v0l.2,-.2l-.2,-.2l-.2,.2Zm.7,0v0l.2,-.2l-.2,-.2l-.1,.2Zm.8,0v0l.2,-.2l-.2,-.2l-.2,.2Zm.8,0v0l.2,-.2l-.2,-.2l-.2,.2Zm.7,0v0l.2,-.2l-.2,-.2l-.1,.2Zm.8,0v0l.2,-.2l-.2,-.2l-.2,.2Zm.8,0v0l.2,-.2l-.2,-.2l-.2,.2Zm.7,0v0l.2,-.2l-.2,-.2l-.2,.2Z" class="g3_6"/>
<path d="M180.7,1208.9h.2v-.3l-.2,-.1l-.1,.1l-.1,.1l.1,.2Zm63.5,0h.1l.1,-.2l-.1,-.1l-.1,-.1l-.1,.1l-.1,.1l.1,.2Z" class="g3_6"/>
<path d="M245,1208.9v0l.2,-.2l-.2,-.2l-.2,.2Zm.7,0v0l.2,-.2l-.2,-.2l-.2,.2Zm.8,0v0l.2,-.2l-.2,-.2l-.2,.2Zm.7,0v0l.2,-.2l-.2,-.2l-.1,.2Zm.8,0v0l.2,-.2l-.2,-.2l-.2,.2Zm.8,0v0l.2,-.2l-.2,-.2l-.2,.2Zm.7,0v0l.2,-.2l-.2,-.2l-.2,.2Zm.8,0v0l.2,-.2l-.2,-.2l-.2,.2Zm.7,0v0l.2,-.2l-.2,-.2l-.1,.2Zm.8,0v0l.2,-.2l-.2,-.2l-.2,.2Zm.8,0v0l.2,-.2l-.2,-.2l-.2,.2Zm.7,0v0l.2,-.2l-.2,-.2l-.2,.2Zm.8,0v0l.2,-.2l-.2,-.2l-.2,.2Zm.7,0v0l.2,-.2l-.2,-.2l-.1,.2Zm.8,0v0l.2,-.2l-.2,-.2l-.2,.2Zm.8,0v0l.2,-.2l-.2,-.2l-.2,.2Zm.7,0v0l.2,-.2l-.2,-.2l-.2,.2Zm.8,0v0l.2,-.2l-.2,-.2l-.2,.2Zm.7,0v0l.2,-.2l-.2,-.2l-.1,.2Zm.8,0v0l.2,-.2l-.2,-.2l-.2,.2Zm.8,0v0l.2,-.2l-.2,-.2l-.2,.2Zm.7,0v0l.2,-.2l-.2,-.2l-.2,.2Zm.8,0v0l.2,-.2l-.2,-.2l-.2,.2Zm.7,0v0l.2,-.2l-.2,-.2l-.1,.2Zm.8,0v0l.2,-.2l-.2,-.2l-.2,.2Zm.8,0v0l.2,-.2l-.2,-.2l-.2,.2Zm.7,0v0l.2,-.2l-.2,-.2l-.2,.2Zm.8,0v0l.2,-.2l-.2,-.2l-.2,.2Zm.7,0v0l.2,-.2l-.2,-.2l-.1,.2Zm.8,0v0l.2,-.2l-.2,-.2l-.2,.2Zm.8,0v0l.2,-.2l-.2,-.2l-.2,.2Zm.7,0v0l.2,-.2l-.2,-.2l-.2,.2Zm.8,0v0l.2,-.2l-.2,-.2l-.2,.2Zm.7,0v0l.2,-.2l-.2,-.2l-.1,.2Zm.8,0v0l.2,-.2l-.2,-.2l-.2,.2Zm.8,0v0l.2,-.2l-.2,-.2l-.2,.2Zm.7,0v0l.2,-.2l-.2,-.2l-.2,.2Zm.8,0v0l.2,-.2l-.2,-.2l-.2,.2Zm.7,0v0l.2,-.2l-.2,-.2l-.1,.2Zm.8,0v0l.2,-.2l-.2,-.2l-.2,.2Zm.8,0v0l.2,-.2l-.2,-.2l-.2,.2Zm.7,0v0l.2,-.2l-.2,-.2l-.2,.2Zm.8,0v0l.2,-.2l-.2,-.2l-.2,.2Zm.7,0v0l.2,-.2l-.2,-.2l-.1,.2Zm.8,0v0l.2,-.2l-.2,-.2l-.2,.2Zm.8,0v0l.2,-.2l-.2,-.2l-.2,.2Zm.7,0v0l.2,-.2l-.2,-.2l-.2,.2Zm.8,0v0l.2,-.2l-.2,-.2l-.2,.2Zm.7,0v0l.2,-.2l-.2,-.2l-.1,.2Zm.8,0v0l.2,-.2l-.2,-.2l-.2,.2Zm.8,0v0l.2,-.2l-.2,-.2l-.2,.2Zm.7,0v0l.2,-.2l-.2,-.2l-.2,.2Zm.8,0v0l.2,-.2l-.2,-.2l-.2,.2Zm.7,0v0l.2,-.2l-.2,-.2l-.1,.2Zm.8,0v0l.2,-.2l-.2,-.2l-.2,.2Zm.8,0v0l.2,-.2l-.2,-.2l-.2,.2Zm.7,0v0l.2,-.2l-.2,-.2l-.2,.2Zm.8,0v0l.2,-.2l-.2,-.2l-.2,.2Zm.7,0v0l.2,-.2l-.2,-.2l-.1,.2Zm.8,0v0l.2,-.2l-.2,-.2l-.2,.2Zm.8,0v0l.2,-.2l-.2,-.2l-.2,.2Zm.7,0v0l.2,-.2l-.2,-.2l-.2,.2Zm.8,0v0l.2,-.2l-.2,-.2l-.2,.2Zm.8,0v0l.1,-.2l-.1,-.2l-.2,.2Zm.7,0v0l.2,-.2l-.2,-.2l-.2,.2Zm.8,0v0l.2,-.2l-.2,-.2l-.2,.2Zm.7,0v0l.2,-.2l-.2,-.2l-.2,.2Zm.8,0v0l.2,-.2l-.2,-.2l-.2,.2Zm.8,0v0l.1,-.2l-.1,-.2l-.2,.2Zm.7,0v0l.2,-.2l-.2,-.2l-.2,.2Zm.8,0v0l.2,-.2l-.2,-.2l-.2,.2Zm.7,0v0l.2,-.2l-.2,-.2l-.2,.2Zm.8,0v0l.2,-.2l-.2,-.2l-.2,.2Zm.8,0v0l.1,-.2l-.1,-.2l-.2,.2Zm.7,0v0l.2,-.2l-.2,-.2l-.2,.2Zm.8,0v0l.2,-.2l-.2,-.2l-.2,.2Zm.7,0v0l.2,-.2l-.2,-.2l-.2,.2Zm.8,0v0l.2,-.2l-.2,-.2l-.2,.2Zm.8,0v0l.1,-.2l-.1,-.2l-.2,.2Zm.7,0v0l.2,-.2l-.2,-.2l-.2,.2Zm.8,0v0l.2,-.2l-.2,-.2l-.2,.2Zm.7,0v0l.2,-.2l-.2,-.2l-.2,.2Zm.8,0v0l.2,-.2l-.2,-.2l-.2,.2Z" class="g3_6"/>
<path d="M244.2,1208.9h.1l.1,-.2l-.1,-.1l-.1,-.1l-.1,.1l-.1,.1l.1,.2Zm63.9,0h.1v-.3l-.1,-.1l-.2,.1v.3Z" class="g3_6"/>
<path d="M39,1187H180.2v-3.1H39Z" class="g3_6"/>
<path d="M39.9,1208.9v0l.2,-.2l-.2,-.2l-.2,.2Zm.8,0v0l.2,-.2l-.2,-.2l-.2,.2Zm.8,0v0l.1,-.2l-.1,-.2l-.2,.2Zm.7,0v0l.2,-.2l-.2,-.2l-.2,.2Zm.8,0v0l.2,-.2l-.2,-.2l-.2,.2Zm.7,0v0l.2,-.2l-.2,-.2l-.1,.2Zm.8,0v0l.2,-.2l-.2,-.2l-.2,.2Zm.8,0v0l.2,-.2l-.2,-.2l-.2,.2Zm.7,0v0l.2,-.2l-.2,-.2l-.2,.2Zm.8,0v0l.2,-.2l-.2,-.2l-.2,.2Zm.8,0v0l.2,-.2l-.2,-.2l-.2,.2Zm.7,0v0l.2,-.2l-.2,-.2l-.2,.2Zm.8,0v0l.2,-.2l-.2,-.2l-.2,.2Zm.8,0v0l.1,-.2l-.1,-.2l-.2,.2Zm.7,0v0l.2,-.2l-.2,-.2l-.2,.2Zm.8,0v0l.2,-.2l-.2,-.2l-.2,.2Zm.7,0v0l.2,-.2l-.2,-.2l-.2,.2Zm.8,0v0l.2,-.2l-.2,-.2l-.2,.2Zm.8,0v0l.2,-.2l-.2,-.2l-.2,.2Zm.7,0v0l.2,-.2l-.2,-.2l-.2,.2Zm.8,0v0l.2,-.2l-.2,-.2l-.2,.2Zm.8,0v0l.1,-.2l-.1,-.2l-.2,.2Zm.7,0v0l.2,-.2l-.2,-.2l-.2,.2Zm.8,0v0l.2,-.2l-.2,-.2l-.2,.2Zm.7,0v0l.2,-.2l-.2,-.2l-.1,.2Zm.8,0v0l.2,-.2l-.2,-.2l-.2,.2Zm.8,0v0l.2,-.2l-.2,-.2l-.2,.2Zm.7,0v0l.2,-.2l-.2,-.2l-.2,.2Zm.8,0v0l.2,-.2l-.2,-.2l-.2,.2Zm.8,0v0l.2,-.2l-.2,-.2l-.2,.2Zm.7,0v0l.2,-.2l-.2,-.2l-.2,.2Zm.8,0v0l.2,-.2l-.2,-.2l-.2,.2Zm.8,0v0l.1,-.2l-.1,-.2l-.2,.2Zm.7,0v0l.2,-.2l-.2,-.2l-.2,.2Zm.8,0v0l.2,-.2l-.2,-.2l-.2,.2Zm.7,0v0l.2,-.2l-.2,-.2l-.2,.2Zm.8,0v0l.2,-.2l-.2,-.2l-.2,.2Zm.8,0v0l.2,-.2l-.2,-.2l-.2,.2Zm.7,0v0l.2,-.2l-.2,-.2l-.2,.2Zm.8,0v0l.2,-.2l-.2,-.2l-.2,.2Zm.8,0v0l.1,-.2l-.1,-.2l-.2,.2Zm.7,0v0l.2,-.2l-.2,-.2l-.2,.2Zm.8,0v0l.2,-.2l-.2,-.2l-.2,.2Zm.7,0v0l.2,-.2l-.2,-.2l-.1,.2Zm.8,0v0l.2,-.2l-.2,-.2l-.2,.2Zm.8,0v0l.2,-.2l-.2,-.2l-.2,.2Zm.7,0v0l.2,-.2l-.2,-.2l-.2,.2Zm.8,0v0l.2,-.2l-.2,-.2l-.2,.2Zm.8,0v0l.2,-.2l-.2,-.2l-.2,.2Zm.7,0v0l.2,-.2l-.2,-.2l-.2,.2Zm.8,0v0l.2,-.2l-.2,-.2l-.2,.2Zm.8,0v0l.1,-.2l-.1,-.2l-.2,.2Zm.7,0v0l.2,-.2l-.2,-.2l-.2,.2Zm.8,0v0l.2,-.2l-.2,-.2l-.2,.2Zm.7,0v0l.2,-.2l-.2,-.2l-.2,.2Zm.8,0v0l.2,-.2l-.2,-.2l-.2,.2Zm.8,0v0l.2,-.2l-.2,-.2l-.2,.2Zm.7,0v0l.2,-.2l-.2,-.2l-.2,.2Zm.8,0v0l.2,-.2l-.2,-.2l-.2,.2Zm.8,0v0l.1,-.2l-.1,-.2l-.2,.2Zm.7,0v0l.2,-.2l-.2,-.2l-.2,.2Zm.8,0v0l.2,-.2l-.2,-.2l-.2,.2Zm.7,0v0l.2,-.2l-.2,-.2l-.1,.2Zm.8,0v0l.2,-.2l-.2,-.2l-.2,.2Zm.8,0v0l.2,-.2l-.2,-.2l-.2,.2Zm.7,0v0l.2,-.2l-.2,-.2l-.2,.2Zm.8,0v0l.2,-.2l-.2,-.2l-.2,.2Zm.8,0v0l.2,-.2l-.2,-.2l-.2,.2Zm.7,0v0l.2,-.2l-.2,-.2l-.2,.2Zm.8,0v0l.2,-.2l-.2,-.2l-.2,.2Zm.7,0v0l.2,-.2l-.2,-.2l-.1,.2Zm.8,0v0l.2,-.2l-.2,-.2l-.2,.2Zm.8,0v0l.2,-.2l-.2,-.2l-.2,.2Zm.7,0v0l.2,-.2l-.2,-.2l-.2,.2Zm.8,0v0l.2,-.2l-.2,-.2l-.2,.2Zm.8,0v0l.2,-.2l-.2,-.2l-.2,.2Zm.7,0v0l.2,-.2l-.2,-.2l-.2,.2Zm.8,0v0l.2,-.2l-.2,-.2l-.2,.2Zm.8,0v0l.1,-.2l-.1,-.2l-.2,.2Zm.7,0v0l.2,-.2l-.2,-.2l-.2,.2Zm.8,0v0l.2,-.2l-.2,-.2l-.2,.2Zm.7,0v0l.2,-.2l-.2,-.2l-.1,.2Zm.8,0v0l.2,-.2l-.2,-.2l-.2,.2Zm.8,0v0l.2,-.2l-.2,-.2l-.2,.2Zm.7,0v0l.2,-.2l-.2,-.2l-.2,.2Zm.8,0v0l.2,-.2l-.2,-.2l-.2,.2Zm.8,0v0l.2,-.2l-.2,-.2l-.2,.2Zm.7,0v0l.2,-.2l-.2,-.2l-.2,.2Zm.8,0v0l.2,-.2l-.2,-.2l-.2,.2Zm.7,0v0l.2,-.2l-.2,-.2l-.1,.2Zm.8,0v0l.2,-.2l-.2,-.2l-.2,.2Zm.8,0v0l.2,-.2l-.2,-.2l-.2,.2Zm.7,0v0l.2,-.2l-.2,-.2l-.2,.2Zm.8,0v0l.2,-.2l-.2,-.2l-.2,.2Zm.8,0v0l.2,-.2l-.2,-.2l-.2,.2Zm.7,0v0l.2,-.2l-.2,-.2l-.2,.2Zm.8,0v0l.2,-.2l-.2,-.2l-.2,.2Zm.8,0v0l.1,-.2l-.1,-.2l-.2,.2Zm.7,0v0l.2,-.2l-.2,-.2l-.2,.2Zm.8,0v0l.2,-.2l-.2,-.2l-.2,.2Zm.7,0v0l.2,-.2l-.2,-.2l-.1,.2Zm.8,0v0l.2,-.2l-.2,-.2l-.2,.2Zm.8,0v0l.2,-.2l-.2,-.2l-.2,.2Zm.7,0v0l.2,-.2l-.2,-.2l-.2,.2Zm.8,0v0l.2,-.2l-.2,-.2l-.2,.2Zm.8,0v0l.2,-.2l-.2,-.2l-.2,.2Zm.7,0v0l.2,-.2l-.2,-.2l-.2,.2Zm.8,0v0l.2,-.2l-.2,-.2l-.2,.2Zm.7,0v0l.2,-.2l-.2,-.2l-.1,.2Zm.8,0v0l.2,-.2l-.2,-.2l-.2,.2Zm.8,0v0l.2,-.2l-.2,-.2l-.2,.2Zm.7,0v0l.2,-.2l-.2,-.2l-.2,.2Zm.8,0v0l.2,-.2l-.2,-.2l-.2,.2Zm.8,0v0l.2,-.2l-.2,-.2l-.2,.2Zm.7,0v0l.2,-.2l-.2,-.2l-.2,.2Zm.8,0v0l.2,-.2l-.2,-.2l-.2,.2Zm.8,0v0l.1,-.2l-.1,-.2l-.2,.2Zm.7,0v0l.2,-.2l-.2,-.2l-.2,.2Zm.8,0v0l.2,-.2l-.2,-.2l-.2,.2Zm.7,0v0l.2,-.2l-.2,-.2l-.1,.2Zm.8,0v0l.2,-.2l-.2,-.2l-.2,.2Zm.8,0v0l.2,-.2l-.2,-.2l-.2,.2Zm.7,0v0l.2,-.2l-.2,-.2l-.2,.2Zm.8,0v0l.2,-.2l-.2,-.2l-.2,.2Zm.8,0v0l.2,-.2l-.2,-.2l-.2,.2Zm.7,0v0l.2,-.2l-.2,-.2l-.2,.2Zm.8,0v0l.2,-.2l-.2,-.2l-.2,.2Zm.7,0v0l.2,-.2l-.2,-.2l-.1,.2Zm.8,0v0l.2,-.2l-.2,-.2l-.2,.2Zm.8,0v0l.2,-.2l-.2,-.2l-.2,.2Zm.7,0v0l.2,-.2l-.2,-.2l-.2,.2Zm.8,0v0l.2,-.2l-.2,-.2l-.2,.2Zm.8,0v0l.2,-.2l-.2,-.2l-.2,.2Zm.7,0v0l.2,-.2l-.2,-.2l-.2,.2Zm.8,0v0l.2,-.2l-.2,-.2l-.2,.2Zm.8,0v0l.1,-.2l-.1,-.2l-.2,.2Zm.7,0v0l.2,-.2l-.2,-.2l-.2,.2Zm.8,0v0l.2,-.2l-.2,-.2l-.2,.2Zm.7,0v0l.2,-.2l-.2,-.2l-.1,.2Zm.8,0v0l.2,-.2l-.2,-.2l-.2,.2Zm.8,0v0l.2,-.2l-.2,-.2l-.2,.2Zm.7,0v0l.2,-.2l-.2,-.2l-.2,.2Zm.8,0v0l.2,-.2l-.2,-.2l-.2,.2Zm.8,0v0l.1,-.2l-.1,-.2l-.2,.2Zm.7,0v0l.2,-.2l-.2,-.2l-.2,.2Zm.8,0v0l.2,-.2l-.2,-.2l-.2,.2Zm.7,0v0l.2,-.2l-.2,-.2l-.1,.2Zm.8,0v0l.2,-.2l-.2,-.2l-.2,.2Zm.8,0v0l.2,-.2l-.2,-.2l-.2,.2Zm.7,0v0l.2,-.2l-.2,-.2l-.2,.2Zm.8,0v0l.2,-.2l-.2,-.2l-.2,.2Zm.8,0v0l.2,-.2l-.2,-.2l-.2,.2Zm.7,0v0l.2,-.2l-.2,-.2l-.2,.2Zm.8,0v0l.2,-.2l-.2,-.2l-.2,.2Zm.8,0v0l.1,-.2l-.1,-.2l-.2,.2Zm.7,0v0l.2,-.2l-.2,-.2l-.2,.2Zm.8,0v0l.2,-.2l-.2,-.2l-.2,.2Zm.7,0v0l.2,-.2l-.2,-.2l-.1,.2Zm.8,0v0l.2,-.2l-.2,-.2l-.2,.2Zm.8,0v0l.2,-.2l-.2,-.2l-.2,.2Zm.7,0v0l.2,-.2l-.2,-.2l-.2,.2Zm.8,0v0l.2,-.2l-.2,-.2l-.2,.2Zm.8,0v0l.1,-.2l-.1,-.2l-.2,.2Zm.7,0v0l.2,-.2l-.2,-.2l-.2,.2Zm.8,0v0l.2,-.2l-.2,-.2l-.2,.2Zm.7,0v0l.2,-.2l-.2,-.2l-.1,.2Zm.8,0v0l.2,-.2l-.2,-.2l-.2,.2Zm.8,0v0l.2,-.2l-.2,-.2l-.2,.2Zm.7,0v0l.2,-.2l-.2,-.2l-.2,.2Zm.8,0v0l.2,-.2l-.2,-.2l-.2,.2Zm.8,0v0l.2,-.2l-.2,-.2l-.2,.2Zm.7,0v0l.2,-.2l-.2,-.2l-.2,.2Zm.8,0v0l.2,-.2l-.2,-.2l-.2,.2Zm.8,0v0l.1,-.2l-.1,-.2l-.2,.2Zm.7,0v0l.2,-.2l-.2,-.2l-.2,.2Zm.8,0v0l.2,-.2l-.2,-.2l-.2,.2Zm.7,0v0l.2,-.2l-.2,-.2l-.1,.2Zm.8,0v0l.2,-.2l-.2,-.2l-.2,.2Zm.8,0v0l.2,-.2l-.2,-.2l-.2,.2Zm.7,0v0l.2,-.2l-.2,-.2l-.2,.2Zm.8,0v0l.2,-.2l-.2,-.2l-.2,.2Zm.8,0v0l.1,-.2l-.1,-.2l-.2,.2Zm.7,0v0l.2,-.2l-.2,-.2l-.2,.2Z" class="g3_6"/>
<path d="M39.2,1208.9h.1l.1,-.2l-.1,-.1l-.1,-.1l-.2,.1v.3Zm140.4,0h.1l.1,-.2l-.1,-.1l-.1,-.1l-.2,.1v.3Z" class="g3_6"/>
<path d="M180.5,1208.7V1187h-.7v21.7Z" class="g5_6"/>
<path d="M180.5,1246.6v-37.9h-.7v37.9Z" class="g5_6"/>
<path d="M244.6,1156.4v-19.9h-.8v19.9Z" class="g5_6"/>
</svg>