<?xml version="1.0" encoding="UTF-8" standalone="no"?>
<!DOCTYPE svg PUBLIC "-//W3C//DTD SVG 1.1//EN"
"http://www.w3.org/Graphics/SVG/1.1/DTD/svg11.dtd">
<svg viewBox="0 0 909 1286" version="1.1" xmlns="http://www.w3.org/2000/svg" xmlns:xlink="http://www.w3.org/1999/xlink">
<defs>
<clipPath id="c0_15"><path d="M881.7,1072.4v-38h22.8v38Z"/></clipPath>
<clipPath id="c1_15"><path d="M566.4,117.8V109H538.3v8.8Zm-67.8,4V105.1H486.7v16.7Zm38.1,0V105.1H524.9v16.7Zm41.7,0V105.1H566.5v16.7ZM452.1,147.2l.6,-15.9l2.3,-8.2l.3,-2h.8V104.4h-8.5l-.2,-1.3l-2.2,-3.8l-4.5,-7.9L431.6,79.8c0,0,-6,-4.9,-7.9,-7.2c-.6,-.7,-.8,-1.7,-.8,-2.8c0,-2.2,1.1,-4.7,2.3,-6.2c1.9,-2.3,12.5,-10.2,12.5,-10.2c0,0,12,-10.9,14.3,-12c.6,-.4,1.3,-.5,1.9,-.5c1.4,0,2.7,.7,3.7,1.2c.4,.2,.9,.3,1.5,.3c1.6,0,3.7,-.6,3.8,-.6l7.9,-4.9l8.6,-.8l6.4,1.1L493,35.7l-2.7,-5.2l-5.6,-6.4l5.6,-7.2l9.1,-5.3l15.8,-6l8.7,-.7l6.7,1.5l12.8,10.5l5.3,1.9l12,1.5h49.5V147.2Z"/></clipPath>
<clipPath id="c2_15"><path d="M538.3,117.8V109h28.1v8.8Z"/></clipPath>
<clipPath id="c3_15"><path d="M39.7,597.1V147.2H610.2V597.1Z"/></clipPath>
<clipPath id="c4_15"><path d="M851.7,41.7c-1.2,0,-2.5,-.1,-3.8,-.3c-6,-1.2,-21,-6,-27.4,-7.6c-5.9,-1.3,-18.9,-3,-26.3,-3c-.7,0,-1.4,0,-2,0c-3.4,.2,-6.8,.6,-9.7,.6c-2.9,0,-5.1,-.4,-6.1,-1.7c-1.9,-2.6,-4.9,-5.6,-4.9,-5.6c0,0,-.5,-.1,-1.4,-.1c-1.2,0,-3.2,.1,-5,.8c-3,1.1,-9.8,2.3,-9.8,2.3l-19.5,2.2c0,0,-11.3,.4,-15.8,.4c-4.6,0,-27.9,-1.5,-27.9,-1.5L665.8,24.4L646.2,19.2l-9,-3.8l-2.7,-1.1l-5.3,.7l-4.5,3.8l-9,1.5h-5.5V0H870.5V36.2l-.4,-.4c0,0,-4.8,1.8,-7.8,3.3c-2.4,1.2,-6.2,2.6,-10.6,2.6Z"/></clipPath>
<clipPath id="c5_15"><path d="M761.7,138.9c.2,0,.4,-.1,.4,-.4c0,-.2,-.2,-.3,-.4,-.3c-.2,0,-.4,.1,-.4,.3c0,.3,.2,.4,.4,.4Zm18.2,-2l.3,-.1l.1,-.3l-.1,-.2l-.3,-.1l-.2,.1l-.1,.2l.1,.3l.2,.1Zm-18.2,-.4c.2,0,.4,-.1,.4,-.3c0,-.3,-.2,-.4,-.4,-.4c-.2,0,-.4,.1,-.4,.4c0,.2,.2,.3,.4,.3Zm0,-2.4c.2,0,.4,-.1,.4,-.3c0,-.2,-.2,-.4,-.4,-.4c-.2,0,-.4,.2,-.4,.4c0,.2,.2,.3,.4,.3Zm0,-2.3c.2,0,.4,-.2,.4,-.4c0,-.2,-.2,-.4,-.4,-.4c-.2,0,-.4,.2,-.4,.4c0,.2,.2,.4,.4,.4Zm0,-2.4l.3,-.1l.1,-.3l-.1,-.3l-.3,-.1l-.3,.1l-.1,.3l.1,.3l.3,.1ZM743.6,137V123.1c.8,-.3,1.5,-.9,2,-1.6l-.4,1.4l11.4,3.2l2,-6.8L747.1,116l-.9,3.1c0,-2.3,-1.9,-4.2,-4.2,-4.2c-2.4,0,-4.3,1.9,-4.3,4.3c0,1.4,.8,2.7,1.9,3.5H712.8V137Zm-6.5,-15.9l.5,-7.1l-11.9,-.9l-.5,7.1l11.9,.9Zm-23.2,1.4l11.2,-4.1l-2.5,-6.7l-11.2,4.1l2.5,6.7ZM850,125.3V111H795v14.3ZM780.2,107.5v-17H655.9v17Zm-170,39.7V20.3h5.5l9,-1.5L629.2,15l5.3,-.7l2.7,1.1l9,3.8l19.6,5.2l26.3,3.8c0,0,23.3,1.5,27.9,1.5c4.5,0,15.8,-.4,15.8,-.4l19.5,-2.2c0,0,6.8,-1.2,9.8,-2.3c1.8,-.7,3.8,-.8,5,-.8c.9,0,1.4,.1,1.4,.1c0,0,3,3,4.9,5.6c1,1.3,3.2,1.7,6.1,1.7c2.9,0,6.3,-.4,9.7,-.6c.6,0,1.3,0,2,0c7.4,0,20.4,1.7,26.3,3c6.4,1.6,21.4,6.4,27.4,7.6c1.3,.2,2.6,.3,3.8,.3c4.4,0,8.2,-1.4,10.6,-2.6c3,-1.5,7.8,-3.3,7.8,-3.3l.4,.4v111H821.7c4.2,0,7.6,-3.3,7.6,-7.5c0,-4.2,-3.4,-7.6,-7.6,-7.6c-2.6,0,-4.9,1.3,-6.3,3.3L804,132.1l-2,6.8l11.5,3.3l.6,-2.3c.2,4.1,3.5,7.3,7.6,7.3H763.6v-6.6h-1.7q-.1,0,-.2,0q-.1,0,-.2,0H728.4v6.6Z"/></clipPath>
<clipPath id="c6_15"><path d="M610.2,597.6v-.5H870.5v.5Z"/></clipPath>
<clipPath id="c7_15"><path d="M869,592.2V574.6H808.5v17.6ZM783.4,193V178.7h-3.2v-.1l-.3,-.1l-.2,.1l-.1,.1H725.1V193Zm34,-12.5V166.2H787.1v14.3Zm-44.1,-6.4V159.8H712.2v14.3Zm92,-10.7V149.1H807v14.3ZM610.2,597.1V147.2H728.4v7.7h35.2v-7.7H870.5V597.1Z"/></clipPath>
<clipPath id="c8_15"><path d="M808.5,592.2V574.6H869v17.6Z"/></clipPath>
<clipPath id="c9_15"><path d="M586.9,1244.6v-20.4H429.6v20.4Zm-547.2,2.6V1056.7H587.4v190.5Z"/></clipPath>
<clipPath id="ca_15"><path d="M429.6,1244.6v-20.4H586.9v20.4Z"/></clipPath>
<clipPath id="cb_15"><path d="M318.2,121.1V104.4H330v16.7Z"/></clipPath>
<clipPath id="cc_15"><path d="M380.1,121.1V104.4H392v16.7Z"/></clipPath>
<clipPath id="cd_15"><path d="M444.2,121.1V104.4h3.4l1,5.9l7.5,6l-.8,4.8Z"/></clipPath>
<clipPath id="ce_15"><path d="M455.3,121.1l.8,-4.8l-7.5,-6l-1,-5.9h8.5v16.7Z"/></clipPath>
<clipPath id="cf_15"><path d="M524.9,121.8V105.1h11.8v16.7Z"/></clipPath>
<clipPath id="cg_15"><path d="M566.5,121.8V105.1h11.9v16.7Z"/></clipPath>
<clipPath id="ch_15"><path d="M787.1,180.5V166.2h30.3v14.3Z"/></clipPath>
<clipPath id="ci_15"><path d="M655.9,107.5v-17H780.2v17Z"/></clipPath>
<clipPath id="cj_15"><path d="M712.8,137V122.7h26.8c.7,.4,1.5,.7,2.4,.7c.5,0,1.1,-.1,1.6,-.3V137Z"/></clipPath>
<clipPath id="ck_15"><path d="M742,123.4c-.9,0,-1.7,-.3,-2.4,-.7h4v.4c-.5,.2,-1.1,.3,-1.6,.3Z"/></clipPath>
<clipPath id="cl_15"><path d="M713.9,122.5l-2.5,-6.7l11.2,-4.1l2.5,6.7l-11.2,4.1Z"/></clipPath>
<clipPath id="cm_15"><path d="M737.1,121.1l-11.9,-.9l.5,-7.1l11.9,.9l-.5,7.1Z"/></clipPath>
<clipPath id="cn_15"><path d="M756.6,126.1l-11.4,-3.2l.4,-1.4c.4,-.7,.6,-1.5,.6,-2.3q0,-.1,0,-.1l.9,-3.1l11.5,3.3l-2,6.8Z"/></clipPath>
<clipPath id="co_15"><path d="M745.6,121.5l.6,-2.4v.1c0,.8,-.2,1.6,-.6,2.3Z"/></clipPath>
<clipPath id="cp_15"><path d="M486.7,121.8V105.1h11.9v16.7Z"/></clipPath>
<clipPath id="cq_15"><path d="M813.5,142.2L802,138.9l2,-6.8l11.4,3.3c-.8,1.2,-1.3,2.7,-1.3,4.3q0,.1,0,.2l-.6,2.3Z"/></clipPath>
<clipPath id="cr_15"><path d="M814.1,139.9q0,-.1,0,-.2c0,-1.6,.5,-3.1,1.3,-4.3l-.4,1.4l-.9,3.1Z"/></clipPath>
<clipPath id="cs_15"><path d="M277.8,121.1V104.4h11.9v16.7Z"/></clipPath>
<clipPath id="ct_15"><path d="M217.6,121.1V104.4h11.9v16.7Z"/></clipPath>
<clipPath id="cu_15"><path d="M807,163.4V149.1h58.3v14.3Z"/></clipPath>
<clipPath id="cv_15"><path d="M795,125.3V111h55v14.3Z"/></clipPath>
<clipPath id="cw_15"><path d="M761.7,143.7l.3,-.1l.1,-.3l-.1,-.2l-.3,-.2l-.3,.2l-.1,.2l.1,.3l.3,.1Zm-33.3,3.5v-6.6h33.1c-.1,.1,-.2,.2,-.2,.3c0,.2,.2,.4,.4,.4c.2,0,.4,-.2,.4,-.4c0,-.1,-.1,-.2,-.2,-.3h1.7v6.6Z"/></clipPath>
<clipPath id="cx_15"><path d="M728.4,154.9v-7.7h35.2v7.7Z"/></clipPath>
<clipPath id="cy_15"><path d="M761.7,141.3c-.2,0,-.4,-.2,-.4,-.4c0,-.1,.1,-.2,.2,-.3h.4c.1,.1,.2,.2,.2,.3c0,.2,-.2,.4,-.4,.4Z"/></clipPath>
<clipPath id="cz_15"><path d="M761.7,143.7l-.3,-.1l-.1,-.3l.1,-.2l.3,-.2l.3,.2l.1,.2l-.1,.3l-.3,.1Z"/></clipPath>
<clipPath id="c10_15"><path d="M712.2,174.1V159.8h61.1v14.3Z"/></clipPath>
<clipPath id="c11_15"><path d="M725.1,193V178.7h54.5v.2l.1,.3l.2,.1l.3,-.1l.1,-.3l-.1,-.2h3.2V193Z"/></clipPath>
<clipPath id="c12_15"><path d="M779.9,179.3l-.2,-.1l-.1,-.3v-.2h.6l.1,.2l-.1,.3l-.3,.1Z"/></clipPath>
<clipPath id="c13_15"><path d="M0,1286.2V0H909.4V1286.2Z"/></clipPath>
<style type="text/css"><![CDATA[
.g0_15{
fill: #4BC0B5;
}
.g1_15{
fill: #DCDDDE;
}
.g2_15{
fill: #8FD3D3;
}
.g3_15{
fill: #58595B;
}
.g4_15{
fill: #DEF1F0;
}
.g5_15{
fill: #5AC4C1;
}
.g6_15{
fill: #7C7C65;
}
]]></style>
</defs>
<path d="M879.6,1286.2h29.8V1029H879.6v257.2Z" class="g0_15"/>
<image clip-path="url(#c0_15)" preserveAspectRatio="none" x="881" y="1034" width="24" height="39" xlink:href="img/1.jpg"/>
<image clip-path="url(#c1_15)" preserveAspectRatio="none" x="420" y="3" width="192" height="146" xlink:href="img/2.jpg"/>
<image clip-path="url(#c2_15)" preserveAspectRatio="none" x="536" y="106" width="32" height="13" xlink:href="img/3.jpg"/>
<path d="M600.4,1247.2H870.5v-760H600.4v760Z" class="g1_15"/>
<path d="M39.7,597.6H870.5V147.2H39.7V597.6Z" class="g2_15"/>
<image clip-path="url(#c3_15)" preserveAspectRatio="none" x="40" y="147" width="570" height="450" xlink:href="img/4.jpg"/>
<image clip-path="url(#c4_15)" preserveAspectRatio="none" x="609" y="0" width="262" height="42" xlink:href="img/5.jpg"/>
<image clip-path="url(#c5_15)" preserveAspectRatio="none" x="610" y="14" width="261" height="474" xlink:href="img/6.jpg"/>
<image clip-path="url(#c6_15)" preserveAspectRatio="none" x="609" y="597" width="262" height="1" xlink:href="img/7.jpg"/>
<image clip-path="url(#c7_15)" preserveAspectRatio="none" x="610" y="147" width="261" height="451" xlink:href="img/8.jpg"/>
<image clip-path="url(#c8_15)" preserveAspectRatio="none" x="808" y="574" width="61" height="19" xlink:href="img/9.jpg"/>
<path d="M39.7,1247.2H587.4V1056.7H39.7v190.5Z" class="g2_15"/>
<image clip-path="url(#c9_15)" preserveAspectRatio="none" x="40" y="1057" width="547" height="190" xlink:href="img/10.jpg"/>
<image clip-path="url(#ca_15)" preserveAspectRatio="none" x="429" y="1224" width="158" height="21" xlink:href="img/11.jpg"/>
<path d="M600.4,638.7H870.5v-2.3H600.4v2.3Z" class="g3_15"/>
<path d="M304.3,130.5c2.1,0,3.8,-1.7,3.8,-3.8c0,-2.1,-1.7,-3.8,-3.8,-3.8c-2,0,-3.7,1.7,-3.7,3.8c0,2.1,1.7,3.8,3.7,3.8Z" class="g4_15"/>
<path d="M304.3,130.5v.5c2.4,0,4.4,-1.9,4.4,-4.3c0,-2.4,-2,-4.3,-4.4,-4.3c-2.4,0,-4.3,1.9,-4.3,4.3c0,2.4,1.9,4.3,4.3,4.3v-1.1c-1.7,0,-3.2,-1.4,-3.2,-3.2c0,-1.8,1.5,-3.2,3.2,-3.2c1.8,0,3.2,1.4,3.2,3.2c0,1.8,-1.4,3.2,-3.2,3.2Z" class="g5_15"/>
<path d="M312,127.7h33.8v-1.6H312Z" class="g5_15"/>
<image clip-path="url(#cb_15)" preserveAspectRatio="none" x="318" y="104" width="12" height="17" xlink:href="img/12.jpg"/>
<path d="M354.6,130.5c2.1,0,3.8,-1.7,3.8,-3.8c0,-2.1,-1.7,-3.8,-3.8,-3.8c-2.1,0,-3.8,1.7,-3.8,3.8c0,2.1,1.7,3.8,3.8,3.8Z" class="g4_15"/>
<path d="M354.6,130.5v.5c2.4,0,4.3,-1.9,4.3,-4.3c0,-2.4,-1.9,-4.3,-4.3,-4.3c-2.4,0,-4.3,1.9,-4.3,4.3c0,2.4,1.9,4.3,4.3,4.3v-1.1c-1.8,0,-3.2,-1.4,-3.2,-3.2c0,-1.8,1.4,-3.2,3.2,-3.2c1.8,0,3.2,1.4,3.2,3.2c0,1.8,-1.4,3.2,-3.2,3.2Z" class="g5_15"/>
<path d="M362.9,127.7h45.9v-1.6H362.9Z" class="g5_15"/>
<image clip-path="url(#cc_15)" preserveAspectRatio="none" x="380" y="104" width="12" height="17" xlink:href="img/13.jpg"/>
<path d="M417.6,130.5c2.1,0,3.8,-1.7,3.8,-3.8c0,-2.1,-1.7,-3.8,-3.8,-3.8c-2.1,0,-3.7,1.7,-3.7,3.8c0,2.1,1.6,3.8,3.7,3.8Z" class="g4_15"/>
<path d="M417.6,130.5v.5c2.4,0,4.4,-1.9,4.4,-4.3c0,-2.4,-2,-4.3,-4.4,-4.3c-2.4,0,-4.3,1.9,-4.3,4.3c0,2.4,1.9,4.3,4.3,4.3v-1.1c-1.7,0,-3.2,-1.4,-3.2,-3.2c0,-1.8,1.5,-3.2,3.2,-3.2c1.8,0,3.2,1.4,3.2,3.2c0,1.8,-1.4,3.2,-3.2,3.2Z" class="g5_15"/>
<image clip-path="url(#cd_15)" preserveAspectRatio="none" x="444" y="104" width="13" height="17" xlink:href="img/14.jpg"/>
<image clip-path="url(#ce_15)" preserveAspectRatio="none" x="447" y="104" width="10" height="17" xlink:href="img/15.jpg"/>
<path d="M426.4,127.7h35.8v-1.6H426.4Z" class="g5_15"/>
<path d="M511.4,130.5c2,0,3.7,-1.7,3.7,-3.8c0,-2.1,-1.7,-3.8,-3.7,-3.8c-2.1,0,-3.8,1.7,-3.8,3.8c0,2.1,1.7,3.8,3.8,3.8Z" class="g4_15"/>
<path d="M511.4,130.5v.5c2.3,0,4.3,-1.9,4.3,-4.3c0,-2.4,-2,-4.3,-4.3,-4.3c-2.4,0,-4.4,1.9,-4.4,4.3c0,2.4,2,4.3,4.4,4.3v-1.1c-1.8,0,-3.3,-1.4,-3.3,-3.2c0,-1.8,1.5,-3.2,3.3,-3.2c1.7,0,3.2,1.4,3.2,3.2c0,1.8,-1.5,3.2,-3.2,3.2Z" class="g5_15"/>
<image clip-path="url(#cf_15)" preserveAspectRatio="none" x="524" y="105" width="13" height="17" xlink:href="img/16.jpg"/>
<path d="M518.8,127.7h26.4v-1.6H518.8Z" class="g5_15"/>
<path d="M552.3,130.5c2.1,0,3.8,-1.7,3.8,-3.8c0,-2.1,-1.7,-3.8,-3.8,-3.8c-2.1,0,-3.8,1.7,-3.8,3.8c0,2.1,1.7,3.8,3.8,3.8Z" class="g4_15"/>
<path d="M552.3,130.5v.5c2.4,0,4.3,-1.9,4.3,-4.3c0,-2.4,-1.9,-4.3,-4.3,-4.3c-2.4,0,-4.3,1.9,-4.3,4.3c0,2.4,1.9,4.3,4.3,4.3v-1.1c-1.8,0,-3.2,-1.4,-3.2,-3.2c0,-1.8,1.4,-3.2,3.2,-3.2c1.8,0,3.2,1.4,3.2,3.2c0,1.8,-1.4,3.2,-3.2,3.2Z" class="g5_15"/>
<image clip-path="url(#cg_15)" preserveAspectRatio="none" x="566" y="105" width="13" height="17" xlink:href="img/17.jpg"/>
<path d="M559.4,127.7h30.5v-1.6H559.4Z" class="g5_15"/>
<path d="M597.2,130.5c2.1,0,3.8,-1.7,3.8,-3.8c0,-2.1,-1.7,-3.8,-3.8,-3.8c-2.1,0,-3.7,1.7,-3.7,3.8c0,2.1,1.6,3.8,3.7,3.8Z" class="g4_15"/>
<path d="M597.2,130.5v.5c2.4,0,4.3,-1.9,4.3,-4.3c0,-2.4,-1.9,-4.3,-4.3,-4.3c-2.4,0,-4.3,1.9,-4.3,4.3c0,2.4,1.9,4.3,4.3,4.3v-1.1c-1.8,0,-3.2,-1.4,-3.2,-3.2c0,-1.8,1.4,-3.2,3.2,-3.2c1.8,0,3.2,1.4,3.2,3.2c0,1.8,-1.4,3.2,-3.2,3.2Z" class="g5_15"/>
<path d="M771.4,130.2c2.3,0,4.2,-1.9,4.2,-4.2c0,-2.4,-1.9,-4.3,-4.2,-4.3c-2.4,0,-4.3,1.9,-4.3,4.3c0,2.3,1.9,4.2,4.3,4.2Z" class="g5_15"/>
<path d="M789.9,135.2c2.4,0,4.3,-1.9,4.3,-4.2c0,-2.4,-1.9,-4.3,-4.3,-4.3c-2.4,0,-4.3,1.9,-4.3,4.3c0,2.3,1.9,4.2,4.3,4.2Z" class="g5_15"/>
<path d="M702.5,125.7c3.4,0,6.1,-2.7,6.1,-6.1c0,-3.3,-2.7,-6.1,-6.1,-6.1c-3.4,0,-6.1,2.8,-6.1,6.1c0,3.4,2.7,6.1,6.1,6.1Z" class="g2_15"/>
<path d="M702.5,125.7v1.5c4.2,0,7.6,-3.4,7.6,-7.6c0,-4.2,-3.4,-7.5,-7.6,-7.5c-4.2,0,-7.6,3.3,-7.6,7.5c0,4.2,3.4,7.6,7.6,7.6v-3c-2.5,0,-4.6,-2,-4.6,-4.6c0,-2.5,2.1,-4.6,4.6,-4.6c2.5,0,4.6,2.1,4.6,4.6c0,2.6,-2.1,4.6,-4.6,4.6Z" class="g5_15"/>
<path d="M821.7,145.8c3.4,0,6.1,-2.8,6.1,-6.1c0,-3.4,-2.7,-6.1,-6.1,-6.1c-3.4,0,-6.1,2.7,-6.1,6.1c0,3.3,2.7,6.1,6.1,6.1Z" class="g2_15"/>
<path d="M821.7,145.8v1.4c4.2,0,7.6,-3.3,7.6,-7.5c0,-4.2,-3.4,-7.6,-7.6,-7.6c-4.2,0,-7.6,3.4,-7.6,7.6c0,4.2,3.4,7.5,7.6,7.5v-2.9c-2.6,0,-4.6,-2.1,-4.6,-4.6c0,-2.6,2,-4.6,4.6,-4.6c2.5,0,4.6,2,4.6,4.6c0,2.5,-2.1,4.6,-4.6,4.6Z" class="g5_15"/>
<image clip-path="url(#ch_15)" preserveAspectRatio="none" x="786" y="166" width="32" height="15" xlink:href="img/18.jpg"/>
<image clip-path="url(#ci_15)" preserveAspectRatio="none" x="656" y="90" width="125" height="18" xlink:href="img/19.jpg"/>
<path d="M742,123.4c2.3,0,4.2,-1.9,4.2,-4.2c0,-2.4,-1.9,-4.3,-4.2,-4.3c-2.4,0,-4.3,1.9,-4.3,4.3c0,2.3,1.9,4.2,4.3,4.2Z" class="g5_15"/>
<image clip-path="url(#cj_15)" preserveAspectRatio="none" x="712" y="122" width="32" height="15" xlink:href="img/20.jpg"/>
<image clip-path="url(#ck_15)" preserveAspectRatio="none" x="739" y="122" width="5" height="2" xlink:href="img/21.jpg"/>
<path d="M770.6,134.8v0c0,.2,.2,.4,.4,.4c.2,0,.4,-.2,.4,-.4c0,-.2,-.2,-.4,-.4,-.4c-.2,0,-.4,.2,-.4,.4m0,2.2v0c0,.2,.2,.4,.4,.4c.2,0,.4,-.2,.4,-.4c0,-.2,-.2,-.4,-.4,-.4c-.2,0,-.4,.2,-.4,.4m0,2.2v0c0,.2,.2,.4,.4,.4c.2,0,.4,-.2,.4,-.4c0,-.2,-.2,-.4,-.4,-.4c-.2,0,-.4,.2,-.4,.4m0,2.2v0c0,.3,.2,.4,.4,.4c.2,0,.4,-.1,.4,-.4c0,-.2,-.2,-.3,-.4,-.3c-.2,0,-.4,.1,-.4,.3m0,2.3v0c0,.2,.2,.3,.4,.3c.2,0,.4,-.1,.4,-.3c0,-.2,-.2,-.4,-.4,-.4c-.2,0,-.4,.2,-.4,.4m0,2.2v0c0,.2,.2,.4,.4,.4c.2,0,.4,-.2,.4,-.4c0,-.2,-.2,-.4,-.4,-.4c-.2,0,-.4,.2,-.4,.4m0,2.2v0c0,.2,.2,.4,.4,.4c.2,0,.4,-.2,.4,-.4c0,-.2,-.2,-.4,-.4,-.4c-.2,0,-.4,.2,-.4,.4m0,2.2v0c0,.2,.2,.4,.4,.4c.2,0,.4,-.2,.4,-.4c0,-.2,-.2,-.4,-.4,-.4c-.2,0,-.4,.2,-.4,.4m0,2.2v0c0,.3,.2,.4,.4,.4c.2,0,.4,-.1,.4,-.4c0,-.2,-.2,-.3,-.4,-.3c-.2,0,-.4,.1,-.4,.3m0,2.3v0c0,.2,.2,.3,.4,.3c.2,0,.4,-.1,.4,-.3c0,-.3,-.2,-.4,-.4,-.4c-.2,0,-.4,.1,-.4,.4Z" class="g2_15"/>
<path d="M771,133l.3,-.2l.1,-.2l-.1,-.3l-.3,-.1l-.3,.1l-.1,.3l.1,.2Zm0,24.4l.3,-.1l.1,-.3l-.1,-.3l-.3,-.1l-.3,.1l-.1,.3l.1,.3Z" class="g2_15"/>
<path d="M789.5,139.8v0c0,.2,.2,.4,.4,.4c.2,0,.4,-.2,.4,-.4c0,-.2,-.2,-.4,-.4,-.4c-.2,0,-.4,.2,-.4,.4m0,2.3v0c0,.2,.2,.4,.4,.4c.2,0,.4,-.2,.4,-.4c0,-.2,-.2,-.3,-.4,-.3c-.2,0,-.4,.1,-.4,.3m0,2.4v0c0,.2,.2,.4,.4,.4c.2,0,.4,-.2,.4,-.4c0,-.2,-.2,-.4,-.4,-.4c-.2,0,-.4,.2,-.4,.4m0,2.3v0c0,.2,.2,.4,.4,.4c.2,0,.4,-.2,.4,-.4c0,-.2,-.2,-.4,-.4,-.4c-.2,0,-.4,.2,-.4,.4m0,2.4v0c0,.2,.2,.4,.4,.4c.2,0,.4,-.2,.4,-.4c0,-.2,-.2,-.4,-.4,-.4c-.2,0,-.4,.2,-.4,.4m0,2.3v0c0,.2,.2,.4,.4,.4c.2,0,.4,-.2,.4,-.4c0,-.2,-.2,-.4,-.4,-.4c-.2,0,-.4,.2,-.4,.4m0,2.4v0c0,.2,.2,.3,.4,.3c.2,0,.4,-.1,.4,-.3c0,-.3,-.2,-.4,-.4,-.4c-.2,0,-.4,.1,-.4,.4m0,2.3v0c0,.2,.2,.4,.4,.4c.2,0,.4,-.2,.4,-.4c0,-.2,-.2,-.4,-.4,-.4c-.2,0,-.4,.2,-.4,.4m0,2.3v0c0,.3,.2,.4,.4,.4c.2,0,.4,-.1,.4,-.4c0,-.2,-.2,-.3,-.4,-.3c-.2,0,-.4,.1,-.4,.3m0,2.4v0c0,.2,.2,.4,.4,.4c.2,0,.4,-.2,.4,-.4c0,-.2,-.2,-.4,-.4,-.4c-.2,0,-.4,.2,-.4,.4m0,2.3v0c0,.2,.2,.4,.4,.4c.2,0,.4,-.2,.4,-.4c0,-.2,-.2,-.3,-.4,-.3c-.2,0,-.4,.1,-.4,.3Z" class="g2_15"/>
<path d="M789.9,137.8l.2,-.1l.2,-.3l-.2,-.2l-.2,-.1l-.3,.1l-.1,.2l.1,.3Zm0,28.2l.2,-.1l.2,-.3l-.2,-.3l-.2,-.1l-.3,.1l-.1,.3l.1,.3Z" class="g2_15"/>
<image clip-path="url(#cl_15)" preserveAspectRatio="none" x="711" y="112" width="14" height="11" xlink:href="img/22.png"/>
<image clip-path="url(#cm_15)" preserveAspectRatio="none" x="725" y="113" width="13" height="8" xlink:href="img/23.png"/>
<image clip-path="url(#cn_15)" preserveAspectRatio="none" x="745" y="116" width="14" height="10" xlink:href="img/24.png"/>
<image clip-path="url(#co_15)" preserveAspectRatio="none" x="745" y="119" width="2" height="3" xlink:href="img/25.png"/>
<path d="M470,130.5c2,0,3.7,-1.7,3.7,-3.8c0,-2.1,-1.7,-3.8,-3.7,-3.8c-2.1,0,-3.8,1.7,-3.8,3.8c0,2.1,1.7,3.8,3.8,3.8Z" class="g4_15"/>
<path d="M470,130.5v.5c2.4,0,4.3,-1.9,4.3,-4.3c0,-2.4,-1.9,-4.3,-4.3,-4.3c-2.4,0,-4.4,1.9,-4.4,4.3c0,2.4,2,4.3,4.4,4.3v-1.1c-1.8,0,-3.2,-1.4,-3.2,-3.2c0,-1.8,1.4,-3.2,3.2,-3.2c1.7,0,3.2,1.4,3.2,3.2c0,1.8,-1.5,3.2,-3.2,3.2Z" class="g5_15"/>
<image clip-path="url(#cp_15)" preserveAspectRatio="none" x="486" y="105" width="13" height="17" xlink:href="img/26.jpg"/>
<path d="M477.4,127.7h26.4v-1.6H477.4Z" class="g5_15"/>
<path d="M762.1,126.8c2.3,0,4.2,-1.9,4.2,-4.3c0,-2.3,-1.9,-4.2,-4.2,-4.2c-2.4,0,-4.3,1.9,-4.3,4.2c0,2.4,1.9,4.3,4.3,4.3Z" class="g5_15"/>
<path d="M761.3,131.4c0,.2,.2,.4,.4,.4c.2,0,.4,-.2,.4,-.4c0,-.2,-.2,-.4,-.4,-.4c-.2,0,-.4,.2,-.4,.4m0,2.4c0,.2,.2,.3,.4,.3c.2,0,.4,-.1,.4,-.3c0,-.2,-.2,-.4,-.4,-.4c-.2,0,-.4,.2,-.4,.4m0,2.4c0,.2,.2,.3,.4,.3c.2,0,.4,-.1,.4,-.3c0,-.3,-.2,-.4,-.4,-.4c-.2,0,-.4,.1,-.4,.4m0,2.3c0,.3,.2,.4,.4,.4c.2,0,.4,-.1,.4,-.4c0,-.2,-.2,-.3,-.4,-.3c-.2,0,-.4,.1,-.4,.3m0,2.4c0,.2,.2,.4,.4,.4c.2,0,.4,-.2,.4,-.4c0,-.2,-.2,-.3,-.4,-.3c-.2,0,-.4,.1,-.4,.3Z" class="g2_15"/>
<path d="M761.7,129.4l.3,-.1l.1,-.3l-.1,-.3l-.3,-.1l-.3,.1l-.1,.3l.1,.3l.3,.1m0,14.3l.3,-.1l.1,-.3l-.1,-.2l-.3,-.2l-.3,.2l-.1,.2l.1,.3Z" class="g2_15"/>
<image clip-path="url(#cq_15)" preserveAspectRatio="none" x="802" y="132" width="14" height="10" xlink:href="img/27.png"/>
<image clip-path="url(#cr_15)" preserveAspectRatio="none" x="814" y="135" width="2" height="5" xlink:href="img/28.png"/>
<path d="M254.1,130.5c2.1,0,3.8,-1.7,3.8,-3.8c0,-2.1,-1.7,-3.8,-3.8,-3.8c-2.1,0,-3.8,1.7,-3.8,3.8c0,2.1,1.7,3.8,3.8,3.8Z" class="g4_15"/>
<path d="M254.1,130.5v.5c2.4,0,4.3,-1.9,4.3,-4.3c0,-2.4,-1.9,-4.3,-4.3,-4.3c-2.4,0,-4.3,1.9,-4.3,4.3c0,2.4,1.9,4.3,4.3,4.3v-1.1c-1.8,0,-3.2,-1.4,-3.2,-3.2c0,-1.8,1.4,-3.2,3.2,-3.2c1.8,0,3.2,1.4,3.2,3.2c0,1.8,-1.4,3.2,-3.2,3.2Z" class="g5_15"/>
<path d="M262.9,127.7H297v-1.6H262.9Z" class="g5_15"/>
<image clip-path="url(#cs_15)" preserveAspectRatio="none" x="277" y="104" width="13" height="17" xlink:href="img/29.jpg"/>
<path d="M195.3,130.5c2.1,0,3.8,-1.7,3.8,-3.8c0,-2.1,-1.7,-3.8,-3.8,-3.8c-2.1,0,-3.8,1.7,-3.8,3.8c0,2.1,1.7,3.8,3.8,3.8Z" class="g4_15"/>
<path d="M195.3,130.5v.5c2.4,0,4.3,-1.9,4.3,-4.3c0,-2.4,-1.9,-4.3,-4.3,-4.3c-2.4,0,-4.3,1.9,-4.3,4.3c0,2.4,1.9,4.3,4.3,4.3v-1.1c-1.8,0,-3.2,-1.4,-3.2,-3.2c0,-1.8,1.4,-3.2,3.2,-3.2c1.8,0,3.2,1.4,3.2,3.2c0,1.8,-1.4,3.2,-3.2,3.2Z" class="g5_15"/>
<path d="M202.1,127.7h44.3v-1.6H202.1Z" class="g5_15"/>
<image clip-path="url(#ct_15)" preserveAspectRatio="none" x="217" y="104" width="13" height="17" xlink:href="img/30.jpg"/>
<path d="M798.4,138.8c2.4,0,4.3,-1.9,4.3,-4.3c0,-2.3,-1.9,-4.3,-4.3,-4.3c-2.3,0,-4.2,2,-4.2,4.3c0,2.4,1.9,4.3,4.2,4.3Z" class="g5_15"/>
<image clip-path="url(#cu_15)" preserveAspectRatio="none" x="807" y="148" width="59" height="16" xlink:href="img/31.jpg"/>
<image clip-path="url(#cv_15)" preserveAspectRatio="none" x="794" y="111" width="56" height="15" xlink:href="img/32.jpg"/>
<image clip-path="url(#cw_15)" preserveAspectRatio="none" x="728" y="140" width="36" height="8" xlink:href="img/33.jpg"/>
<image clip-path="url(#cx_15)" preserveAspectRatio="none" x="728" y="147" width="36" height="8" xlink:href="img/34.jpg"/>
<image clip-path="url(#cy_15)" preserveAspectRatio="none" x="761" y="140" width="1" height="2" xlink:href="img/35.jpg"/>
<image clip-path="url(#cz_15)" preserveAspectRatio="none" x="761" y="142" width="1" height="2" xlink:href="img/36.jpg"/>
<image clip-path="url(#c10_15)" preserveAspectRatio="none" x="712" y="159" width="62" height="15" xlink:href="img/37.jpg"/>
<path d="M779.9,134.5c2.3,0,4.2,-1.9,4.2,-4.3c0,-2.3,-1.9,-4.2,-4.2,-4.2c-2.4,0,-4.3,1.9,-4.3,4.2c0,2.4,1.9,4.3,4.3,4.3Z" class="g5_15"/>
<path d="M779.6,138.9v0c0,.2,.1,.4,.3,.4c.2,0,.4,-.2,.4,-.4c0,-.2,-.2,-.4,-.4,-.4c-.2,0,-.3,.2,-.3,.4m0,2.3v0c0,.3,.1,.4,.3,.4c.2,0,.4,-.1,.4,-.4c0,-.2,-.2,-.3,-.4,-.3c-.2,0,-.3,.1,-.3,.3m0,2.4v0c0,.2,.1,.4,.3,.4c.2,0,.4,-.2,.4,-.4c0,-.2,-.2,-.4,-.4,-.4c-.2,0,-.3,.2,-.3,.4m0,2.4v0c0,.2,.1,.3,.3,.3c.2,0,.4,-.1,.4,-.3c0,-.3,-.2,-.4,-.4,-.4c-.2,0,-.3,.1,-.3,.4m0,2.3v0c0,.2,.1,.4,.3,.4c.2,0,.4,-.2,.4,-.4c0,-.2,-.2,-.4,-.4,-.4c-.2,0,-.3,.2,-.3,.4m0,2.4v0c0,.2,.1,.3,.3,.3c.2,0,.4,-.1,.4,-.3c0,-.2,-.2,-.4,-.4,-.4c-.2,0,-.3,.2,-.3,.4m0,2.3v0c0,.2,.1,.4,.3,.4c.2,0,.4,-.2,.4,-.4c0,-.2,-.2,-.4,-.4,-.4c-.2,0,-.3,.2,-.3,.4m0,2.4v0c0,.2,.1,.4,.3,.4c.2,0,.4,-.2,.4,-.4c0,-.2,-.2,-.4,-.4,-.4c-.2,0,-.3,.2,-.3,.4m0,2.3v0c0,.2,.1,.4,.3,.4c.2,0,.4,-.2,.4,-.4c0,-.2,-.2,-.4,-.4,-.4c-.2,0,-.3,.2,-.3,.4m0,2.4v0c0,.2,.1,.4,.3,.4c.2,0,.4,-.2,.4,-.4c0,-.2,-.2,-.4,-.4,-.4c-.2,0,-.3,.2,-.3,.4m0,2.3v0c0,.2,.1,.4,.3,.4c.2,0,.4,-.2,.4,-.4c0,-.2,-.2,-.4,-.4,-.4c-.2,0,-.3,.2,-.3,.4m0,2.4v0c0,.2,.1,.4,.3,.4c.2,0,.4,-.2,.4,-.4c0,-.2,-.2,-.4,-.4,-.4c-.2,0,-.3,.2,-.3,.4m0,2.3v0c0,.3,.1,.4,.3,.4c.2,0,.4,-.1,.4,-.4c0,-.2,-.2,-.3,-.4,-.3c-.2,0,-.3,.1,-.3,.3m0,2.4v0c0,.2,.1,.4,.3,.4c.2,0,.4,-.2,.4,-.4c0,-.2,-.2,-.4,-.4,-.4c-.2,0,-.3,.2,-.3,.4m0,2.3v0c0,.3,.1,.4,.3,.4c.2,0,.4,-.1,.4,-.4c0,-.2,-.2,-.3,-.4,-.3c-.2,0,-.3,.1,-.3,.3m0,2.4v0c0,.2,.1,.4,.3,.4c.2,0,.4,-.2,.4,-.4c0,-.2,-.2,-.4,-.4,-.4c-.2,0,-.3,.2,-.3,.4m0,2.4v0c0,.2,.1,.3,.3,.3c.2,0,.4,-.1,.4,-.3c0,-.3,-.2,-.4,-.4,-.4c-.2,0,-.3,.1,-.3,.4Z" class="g2_15"/>
<path d="M779.9,136.9l.3,-.1l.1,-.3l-.1,-.2l-.3,-.1l-.2,.1l-.1,.2l.1,.3l.2,.1m0,42.4l.3,-.1l.1,-.3l-.1,-.3l-.3,-.1l-.2,.1l-.1,.3l.1,.3Z" class="g2_15"/>
<image clip-path="url(#c11_15)" preserveAspectRatio="none" x="725" y="178" width="59" height="16" xlink:href="img/38.jpg"/>
<image clip-path="url(#c12_15)" preserveAspectRatio="none" x="779" y="178" width="2" height="2" xlink:href="img/39.jpg"/>
<path clip-path="url(#c13_15)" d="M853.6,71.6c1.7,-10.2,11.2,-28.6,23.8,-47c-16.5,15.1,-33.9,27,-43.1,30.3c-3.3,1.2,-7.6,2.3,-7.4,6.4c.3,4.4,5.1,9.6,8,12.4c3.6,3.4,8.2,6,12.8,6c4.6,0,5.3,-4.2,5.9,-8.1M820.5,20.9c7.2,1.4,28.2,-4,48.9,-13.7c0,0,-12,3.2,-19.8,2.5c-4.8,-.5,-13.2,-.9,-23,-5.2c-10.2,-4.5,-13,1,-13.1,5.2c0,3.1,-.8,9.7,7,11.2m5.3,30.7c4.2,1.1,25.4,-13.3,46.9,-35.2c0,0,-19.2,8.4,-35.9,10c-9.6,.9,-17.5,-.3,-19.6,3.6c-4.8,9,1.4,19.6,8.6,21.6m54.9,33.3c3.5,-2.6,1.2,-10.3,.7,-19.9c-.8,-16.8,4.8,-37,4.8,-37C867.6,52.5,856.4,75.5,858.1,79.5c3,6.9,14.4,11.5,22.6,5.4m8.5,-4.6c2.6,7.6,9.1,5.8,12.1,5.3c4.1,-.6,9.2,-4.2,3.3,-13.7c-5.7,-9.1,-7.9,-17.2,-8.5,-22c-1,-8.4,-.4,-19.9,-.4,-19.9c-6.6,21.9,-8.9,43.4,-6.5,50.3Z" class="g6_15"/>
</svg>