<?xml version="1.0" encoding="UTF-8" standalone="no"?>
<!DOCTYPE svg PUBLIC "-//W3C//DTD SVG 1.1//EN"
"http://www.w3.org/Graphics/SVG/1.1/DTD/svg11.dtd">
<svg viewBox="0 0 909 1286" version="1.1" xmlns="http://www.w3.org/2000/svg" xmlns:xlink="http://www.w3.org/1999/xlink">
<defs>
<clipPath id="c0_24"><path d="M29.9,1060.2V1036h.3v24.2Z"/></clipPath>
<clipPath id="c1_24"><path d="M3.1,1060.2V1036H4.2v22.4H27.7V1036h2.2v24.2Z"/></clipPath>
<clipPath id="c2_24"><path d="M4.2,1058.4V1036H27.7v22.4Z"/></clipPath>
<clipPath id="c3_24"><path d="M582.9,117.8v-8.7H539v8.7Zm287.6,29.1V46.6V146.9Zm-334.2,.3c.7,-6,1,-12.8,1.1,-13.3v-.1c0,0,-1.6,-8,-2.5,-12c0,-.2,-.1,-.5,-.1,-.7h3V101.8h-6c-.6,-3.4,-.5,-12.2,-.4,-12.8l.4,-12.7l1.3,-4.9l.7,-4l-4.4,-3.5l-.7,-4.2l-1.3,-2.3l-2.7,-4.6l-5.3,-6.9c0,0,-3.6,-2.9,-4.7,-4.2c-.4,-.5,-.5,-1,-.5,-1.7c0,-1.3,.6,-2.8,1.4,-3.7c1.1,-1.3,7.3,-5.9,7.3,-5.9c0,0,7.1,-6.5,8.5,-7.2h.1c0,0,.1,0,.1,0q0,-.1,0,-.1c.3,-.1,.6,-.1,.9,-.1c.3,0,.7,0,1,.1c.4,.2,.8,.4,1.2,.6c0,0,.1,0,.2,.1c.2,0,.4,0,.7,0c.9,0,2,-.3,2.2,-.3l4.7,-2.9l5.1,-.5l3.7,.7l4.3,-.9L554,16.8L550.7,13L554,8.8l5.3,-3.1l9.4,-3.6l5.1,-.4l4,.9l7.5,6.2l3.1,1.1l7.1,.9h15V110h-6.6v-8.2h-20v19.3h18.4v.2h8.2v25.9Z"/></clipPath>
<clipPath id="c4_24"><path d="M539,117.8v-8.7h43.9v8.7Z"/></clipPath>
<clipPath id="c5_24"><path d="M602.3,121.3v-.2h1.6V110h6.6v11.3Z"/></clipPath>
<clipPath id="c6_24"><path d="M307.7,445.4V425H185.6v20.4ZM39,446.1V147.2H308.1V446.1Z"/></clipPath>
<clipPath id="c7_24"><path d="M322.2,446.1V147.2H610.5V444.3h83.3v1.1H868.7v-1.1h1.8v1.8Z"/></clipPath>
<clipPath id="c8_24"><path d="M185.6,445.4V425H307.7v20.4Z"/></clipPath>
<clipPath id="c9_24"><path d="M870.1,147.2h.1l.3,-.3v.3ZM861,55.1L850.8,52.9h-9.6l-5.3,-4.6h-11l-7.8,-6.4l-8.6,-.3l-2.8,-1.1L802.2,37l-4.3,.7l-3.2,-2.1l2.5,-2.2l-4.3,-2.5l-1,-3.1l-6,.3L778,20c0,0,-2.8,1,-4.6,1.9c-1.4,.7,-3.6,1.5,-6.2,1.5c-.7,0,-1.5,0,-2.2,-.2c-3.6,-.6,-12.5,-3.5,-16.2,-4.4C745.3,18,737.6,17,733.3,17c-.4,0,-.8,0,-1.2,0c-2,.1,-4,.4,-5.7,.4c-1.7,0,-3.1,-.3,-3.6,-1C721.7,14.8,719.9,13,719.9,13c0,0,-.3,0,-.8,0c-.8,0,-1.9,.1,-3,.5c-1.8,.6,-5.8,1.3,-5.8,1.3l-11.5,1.3c0,0,-6.7,.3,-9.3,.3c-2.7,0,-16.5,-.9,-16.5,-.9L657.5,13.3L645.9,10.1L640.6,7.9l-1.5,-.6L636,7.7l-2.7,2.2l-5.3,.9H610.5V0h260V46.6h-3.4l-.7,5.3L861,55.1Z"/></clipPath>
<clipPath id="ca_24"><path d="M860,90.5V75.1H695.6V90.5ZM610.5,147.2V121.3h88.3V110H610.5V10.8H628l5.3,-.9L636,7.7l3.1,-.4l1.5,.6l5.3,2.2l11.6,3.2L673,15.5c0,0,13.8,.9,16.5,.9c2.6,0,9.3,-.3,9.3,-.3l11.5,-1.3c0,0,4,-.7,5.8,-1.3c1.1,-.4,2.2,-.5,3,-.5c.5,0,.8,0,.8,0c0,0,1.8,1.8,2.9,3.4c.5,.7,1.9,1,3.6,1c1.7,0,3.7,-.3,5.7,-.4c.4,0,.8,0,1.2,0c4.3,0,12,1,15.5,1.8c3.7,.9,12.6,3.8,16.2,4.4c.7,.2,1.5,.2,2.2,.2c2.6,0,4.8,-.8,6.2,-1.5C775.2,21,778,20,778,20l7.9,8.1l6,-.3l1,3.1l4.3,2.5l-2.5,2.2l3.2,2.1l4.3,-.7l3.5,3.5l2.8,1.1l8.6,.3l7.8,6.4h11l5.3,4.6h9.6L861,55.1l5.4,-3.2l.7,-5.3h3.4V146.9l-.3,.3H797V132.6H732.1v14.6Z"/></clipPath>
<clipPath id="cb_24"><path d="M777.1,243.6V228.2H723.2v15.4Zm-.6,-21.2V207H727.6v15.4Zm35.9,-19.7V187.3H732.1v15.4ZM737.8,182.2V166.8H719.6v15.4ZM610.5,444.3V147.2H732.1v.8H797v-.8h73.5V444.3h-1.8V425H693.8v19.3Z"/></clipPath>
<clipPath id="cc_24"><path d="M610.5,121.3V110h88.3v11.3Z"/></clipPath>
<clipPath id="cd_24"><path d="M693.8,445.4v-1.1H868.7v1.1Z"/></clipPath>
<clipPath id="ce_24"><path d="M693.8,444.3V425H868.7v19.3Z"/></clipPath>
<clipPath id="cf_24"><path d="M695.6,90.5V75.1H860V90.5Z"/></clipPath>
<clipPath id="cg_24"><path d="M732.1,147.2V132.6H797v14.6Z"/></clipPath>
<clipPath id="ch_24"><path d="M732.1,148v-.8H797v.8Z"/></clipPath>
<clipPath id="ci_24"><path d="M719.6,182.2V166.8h18.2v15.4Z"/></clipPath>
<clipPath id="cj_24"><path d="M349.7,121.1V101.8h20.1v19.3Z"/></clipPath>
<clipPath id="ck_24"><path d="M583.9,121.1V101.8h20V110h-1.6v11.1Z"/></clipPath>
<clipPath id="cl_24"><path d="M602.3,121.1V110h1.6v11.1Z"/></clipPath>
<clipPath id="cm_24"><path d="M608.4,118.4c1,0,1.5,-1.4,1.5,-2.4v-.5h-.3c-.7,0,-2.2,0,-2.2,1.5c0,.8,.4,1.4,1,1.4Zm14.5,0c1,0,1.5,-1.4,1.5,-2.4v-.5h-.3c-.7,0,-2.2,0,-2.2,1.5c0,.8,.4,1.4,1,1.4Zm74,0c1,0,1.5,-1.4,1.5,-2.4v-.5H698c-.7,0,-2.2,0,-2.2,1.5c0,.8,.5,1.4,1.1,1.4Zm-68.8,-.2c.8,0,1.4,-.6,1.4,-2.6c0,-2,-.6,-2.6,-1.5,-2.6c-.9,0,-1.4,.9,-1.4,2.6c0,1.6,.6,2.6,1.5,2.6Zm5.4,.2c1.2,0,1.9,-1.2,1.9,-2.8c0,-1.5,-.7,-2.6,-1.9,-2.6c-1.1,0,-1.8,1.1,-1.8,2.6c0,1.6,.7,2.8,1.8,2.8Zm7.4,0c1,0,1.6,-.8,1.6,-2.7c0,-1.4,-.4,-2.7,-1.5,-2.7c-1,0,-1.6,1,-1.6,2.7c0,1.7,.5,2.7,1.5,2.7Zm6.8,-3.3c-.1,-1.5,-.6,-2.1,-1.4,-2.1c-.9,0,-1.5,.7,-1.6,2.1Zm12,3.3c1.1,0,1.8,-1.2,1.8,-2.8c0,-1.5,-.7,-2.6,-1.8,-2.6c-1.2,0,-1.9,1.1,-1.9,2.6c0,1.6,.7,2.8,1.9,2.8Zm13.7,0c1,0,1.5,-1,1.5,-2.7c0,-1.7,-.5,-2.7,-1.5,-2.7c-.9,0,-1.5,.8,-1.5,2.7c0,1.4,.3,2.7,1.5,2.7Zm5.3,0c1.1,0,1.8,-1.2,1.8,-2.8c0,-1.5,-.7,-2.6,-1.8,-2.6c-1.2,0,-1.9,1.1,-1.9,2.6c0,1.6,.7,2.8,1.9,2.8Zm13.2,-3.3c0,-1.5,-.5,-2.1,-1.3,-2.1c-.9,0,-1.5,.7,-1.7,2.1Zm-72.1,3.6v-6.1h.5v6.1Zm-11.4,.1c-.7,0,-1.5,-.5,-1.5,-1.7c0,-2.1,1.9,-2.1,2.7,-2.1h.3v-.2c0,-1.4,-.4,-1.8,-1.1,-1.8c-.5,0,-1,.1,-1.4,.4l-.1,-.4c.4,-.3,1,-.5,1.5,-.5c1.1,0,1.6,.7,1.6,2.3v3.9h-.5v-.6c0,-.3,0,-.5,0,-.5c-.2,.6,-.7,1.2,-1.5,1.2Zm3.5,-.1v-6.1h.4v.7c0,.3,0,.4,0,.4c.2,-.4,.7,-1.2,1.9,-1.2c1.1,0,1.4,.8,1.4,1.9v4.3h-.4v-4.2c0,-.7,-.1,-1.5,-1.1,-1.5c-1,0,-1.8,.9,-1.8,2v3.7Zm11,.1c-.7,0,-1.5,-.5,-1.5,-1.7c0,-2.1,1.9,-2.1,2.7,-2.1h.3v-.2c0,-1.4,-.4,-1.8,-1.2,-1.8c-.4,0,-.9,.1,-1.3,.4l-.2,-.4c.5,-.3,1,-.5,1.5,-.5c1.1,0,1.7,.7,1.7,2.3v3.9h-.5v-.6c0,-.3,0,-.5,0,-.5c-.2,.6,-.7,1.2,-1.5,1.2Zm5,2.5c-.5,0,-1,-.2,-1.5,-.5l.2,-.4c.4,.2,.9,.4,1.3,.4c.9,0,1.6,-.6,1.6,-2.1v-.6c0,-.3,0,-.5,0,-.5c-.3,.7,-.7,1.1,-1.5,1.1c-1.1,0,-1.9,-1.2,-1.9,-3.1c0,-1.9,.7,-3.1,1.9,-3.1c.7,0,1.3,.4,1.5,1.1c0,0,0,-.1,0,-.2v-.8h.5v6.1c0,1.9,-1,2.6,-2.1,2.6Zm5.6,-2.4c-1.4,0,-2.3,-1.4,-2.3,-3.2c0,-1.9,.9,-3.2,2.3,-3.2c1.4,0,2.4,1.4,2.4,3.2c0,1.8,-1,3.2,-2.4,3.2Zm12.9,0c-1.4,0,-2.3,-1.3,-2.3,-3.3c0,-1.9,.9,-3.1,2.2,-3.1c1.4,0,1.9,1.3,1.9,2.7c0,.1,0,.2,-.1,.4h-3.5c0,1.9,.8,2.8,1.8,2.8c.6,0,1.1,-.3,1.5,-.7l.1,.5c-.3,.4,-.9,.7,-1.6,.7Zm13.3,0c-1.4,0,-2.4,-1.4,-2.4,-3.2c0,-1.9,1,-3.2,2.4,-3.2c1.4,0,2.3,1.4,2.3,3.2c0,1.8,-.9,3.2,-2.3,3.2Zm3.5,-.2v-6.1h.5v.7c0,.3,-.1,.4,-.1,.4h.1c.1,-.4,.6,-1.2,1.7,-1.2c.9,0,1.2,.5,1.4,1.2c.1,-.4,.6,-1.2,1.8,-1.2c1,0,1.4,.8,1.4,1.9v4.3h-.5v-4.2c0,-.7,-.1,-1.5,-1,-1.5c-.9,0,-1.7,.9,-1.7,2v3.7h-.5v-4.2c0,-.7,-.1,-1.5,-.9,-1.5c-1,0,-1.7,.9,-1.7,2v3.7Zm8.2,2.5v-8.6h.5v.6c0,.3,0,.5,0,.5c.2,-.6,.6,-1.2,1.6,-1.2c1.3,0,1.9,1.3,1.9,3.2c0,1.9,-.7,3.2,-2,3.2c-.7,0,-1.3,-.4,-1.5,-1.1c0,0,0,.2,0,.5v2.9Zm7.3,-2.3c-1.5,0,-2.4,-1.4,-2.4,-3.2c0,-1.9,.9,-3.2,2.4,-3.2c1.4,0,2.3,1.4,2.3,3.2c0,1.8,-.9,3.2,-2.3,3.2Zm4.6,0c-.6,0,-1.1,-.3,-1.5,-.7l.2,-.4c.2,.2,.7,.6,1.3,.6c.7,0,1.1,-.4,1.1,-1.1c0,-1.7,-2.4,-1.2,-2.4,-3.2c0,-1,.5,-1.6,1.5,-1.6c.5,0,.9,.1,1.2,.4l-.2,.5c-.2,-.3,-.6,-.4,-1,-.4c-.6,0,-1,.3,-1,1.1c0,1.6,2.4,1.1,2.4,3.1c0,.9,-.5,1.7,-1.6,1.7Zm7.4,0c-1.4,0,-2.3,-1.3,-2.3,-3.3c0,-1.9,.9,-3.1,2.2,-3.1c1.3,0,1.8,1.3,1.8,2.7c0,.1,0,.2,0,.4h-3.5c0,1.9,.8,2.8,1.8,2.8c.5,0,1.1,-.3,1.4,-.7l.2,.5c-.3,.4,-1,.7,-1.6,.7Zm6.1,-.1c-.7,0,-1.5,-.5,-1.5,-1.7c0,-2.1,1.9,-2.1,2.7,-2.1h.4v-.2c0,-1.4,-.5,-1.8,-1.2,-1.8c-.4,0,-1,.1,-1.3,.4l-.2,-.4c.4,-.3,1,-.5,1.5,-.5c1.1,0,1.6,.7,1.6,2.3v3.9h-.4v-.6c0,-.3,0,-.5,0,-.5c-.3,.6,-.7,1.2,-1.6,1.2Zm-78.1,0c-.5,0,-1.5,-.2,-1.5,-2.3v-3.4h-.6v-.4h.6v-1.8h.5v1.8h1.1v.4h-1.1v3.4c0,1.6,.7,1.8,1,1.8c.1,0,.2,0,.2,0v.5c0,0,-.1,0,-.2,0Zm68.9,0c-.5,0,-1.5,-.2,-1.5,-2.3v-3.4h-.6v-.4h.6v-1.8h.5v1.8h1.1v.4h-1.1v3.4c0,1.6,.7,1.8,1,1.8c.1,0,.2,0,.2,0v.5c0,0,-.1,0,-.2,0Zm-67.8,-7.7v-.9h.5v.9Zm21.1,7.8c-1.3,0,-2,-1.3,-2,-3.2c0,-2,.8,-3.2,2,-3.2c.8,0,1.3,.4,1.6,1.1c0,0,0,-.2,0,-.5v-2.9h.4v8.5h-.4v-.5c0,-.3,0,-.5,0,-.5c-.2,.6,-.7,1.2,-1.6,1.2Zm53.7,-.1c-.3,0,-1,-.1,-1,-1.3v-7.3h.5v7.1c0,.9,.3,1,.5,1q.1,0,.2,0v.5q-.1,0,-.2,0Zm-90.5,.1c-.7,0,-1.3,-.3,-1.8,-.8l.2,-.4c.4,.4,1,.7,1.6,.7c.9,0,1.5,-.7,1.5,-1.7c0,-2.3,-3.2,-2,-3.2,-4.5c0,-1.2,.8,-2.2,2.1,-2.2c.6,0,1.1,.2,1.5,.5l-.2,.5c-.3,-.3,-.8,-.5,-1.3,-.5c-1,0,-1.6,.8,-1.6,1.7c0,2.1,3.2,1.8,3.2,4.5c0,1.2,-.8,2.2,-2,2.2Zm50.5,0c-2.1,0,-3.3,-2,-3.3,-4.5c0,-2.5,1.2,-4.4,3.3,-4.4c.7,0,1.4,.3,1.9,.7l-.2,.5c-.4,-.4,-1.1,-.7,-1.7,-.7c-1.8,0,-2.8,1.7,-2.8,3.9c0,2.2,1.1,4,2.8,4c.7,0,1.4,-.3,1.9,-.7l.2,.4c-.5,.5,-1.4,.8,-2.1,.8Z"/></clipPath>
<clipPath id="cn_24"><path d="M517.7,121.1V101.8h14.1c0,.1,0,.2,0,.3c.7,3.3,2.7,6.6,2.7,9.3c0,2.5,-.4,6,.3,9.7Z"/></clipPath>
<clipPath id="co_24"><path d="M534.8,121.1c-.7,-3.7,-.3,-7.2,-.3,-9.7c0,-2.7,-2,-6,-2.7,-9.3c0,-.1,0,-.2,0,-.3h6v19.3Z"/></clipPath>
<clipPath id="cp_24"><path d="M481.5,121.1V101.8h20.1v19.3Z"/></clipPath>
<clipPath id="cq_24"><path d="M405.6,121.1V101.8h20.1v7.3h-.4v8.7h.4v3.3Z"/></clipPath>
<clipPath id="cr_24"><path d="M425.3,117.8v-8.7h.4v8.7Z"/></clipPath>
<clipPath id="cs_24"><path d="M479,117.3c1,0,1.5,-1.4,1.5,-2.4v-.5h-.3c-.8,0,-2.2,0,-2.2,1.5c0,.8,.4,1.4,1,1.4Zm-46.7,0c1.2,0,1.9,-1.2,1.9,-2.7c0,-1.6,-.7,-2.7,-1.9,-2.7c-1.1,0,-1.8,1.1,-1.8,2.7c0,1.5,.7,2.7,1.8,2.7ZM447,114c0,-1.5,-.5,-2.1,-1.3,-2.1c-.9,0,-1.5,.7,-1.7,2.1Zm5.6,3.3c1,0,1.5,-.8,1.5,-2.7c0,-1.4,-.3,-2.7,-1.4,-2.7c-1,0,-1.6,1,-1.6,2.7c0,1.7,.5,2.7,1.5,2.7Zm6.8,-3.3c-.1,-1.5,-.6,-2.1,-1.4,-2.1c-.9,0,-1.5,.7,-1.7,2.1Zm8.3,3.7v-6.2h.5v6.2Zm-35.4,.1c-1.4,0,-2.3,-1.4,-2.3,-3.2c0,-1.8,.9,-3.2,2.3,-3.2c1.5,0,2.4,1.4,2.4,3.2c0,1.8,-.9,3.2,-2.4,3.2Zm3.6,-.1v-6.2h.5v.8c0,.2,-.1,.3,-.1,.3c.2,-.4,.8,-1.2,1.9,-1.2c1.2,0,1.5,.8,1.5,1.9v4.4h-.5v-4.3c0,-.7,-.1,-1.5,-1.1,-1.5c-1,0,-1.7,.9,-1.7,2v3.8Zm9.9,.1c-1.4,0,-2.3,-1.2,-2.3,-3.3c0,-1.9,.9,-3.1,2.2,-3.1c1.3,0,1.8,1.3,1.8,2.7c0,.1,0,.3,0,.4H444c0,1.9,.8,2.8,1.8,2.8c.6,0,1.1,-.2,1.5,-.7l.1,.5c-.3,.4,-.9,.7,-1.6,.7Zm12.3,0c-1.4,0,-2.3,-1.2,-2.3,-3.3c0,-1.9,.9,-3.1,2.2,-3.1c1.4,0,1.9,1.3,1.9,2.7c0,.1,-.1,.3,-.1,.4h-3.5c0,1.9,.8,2.8,1.8,2.8c.6,0,1.1,-.2,1.5,-.7l.1,.5c-.3,.4,-.9,.7,-1.6,.7Zm11.6,-.1v-6.2h.4v.8c0,.2,0,.3,0,.3c.2,-.4,.6,-1.2,1.8,-1.2c.8,0,1.2,.5,1.3,1.2h.1c.1,-.4,.6,-1.2,1.7,-1.2c1.1,0,1.4,.8,1.4,1.9v4.4h-.5v-4.3c0,-.7,-.1,-1.5,-.9,-1.5c-1,0,-1.7,.9,-1.7,2v3.8h-.5v-4.3c0,-.7,-.1,-1.5,-1,-1.5c-.9,0,-1.7,.9,-1.7,2v3.8Zm9.3,.1c-.7,0,-1.5,-.5,-1.5,-1.8c0,-2,1.9,-2.1,2.7,-2.1h.3v-.2c0,-1.4,-.5,-1.8,-1.2,-1.8c-.4,0,-.9,.1,-1.3,.4l-.2,-.4c.5,-.3,1,-.5,1.5,-.5c1.1,0,1.7,.7,1.7,2.3v4h-.5v-.6c0,-.4,0,-.6,0,-.6c-.2,.6,-.7,1.3,-1.5,1.3Zm-36.3,-.1c-.5,0,-1.5,-.2,-1.5,-2.3V112h-.6v-.4h.6v-1.8h.5v1.8h1.2v.4h-1.2v3.4c0,1.6,.7,1.8,1.1,1.8c0,0,.1,0,.2,0v.5c-.1,0,-.2,0,-.3,0Zm-15.6,-4.1c1.1,0,1.8,-.7,1.8,-2c0,-1.3,-.7,-2,-1.8,-2h-1.3v4Zm-1.8,4.1v-8.6h1.8c1.3,0,2.3,.9,2.3,2.5c0,1.5,-1,2.5,-2.3,2.5h-1.3v3.6Zm27.3,.1c-1.4,0,-2,-1.3,-2,-3.2c0,-1.9,.7,-3.2,2,-3.2c.8,0,1.3,.4,1.5,1.1h.1c0,0,-.1,-.2,-.1,-.5v-2.9h.5v8.6h-.5v-.6c0,-.3,.1,-.5,.1,-.5h-.1c-.1,.6,-.6,1.2,-1.5,1.2Zm10.8,-.1v-8.6h.4v8.1h3v.5Zm4.2,-7.7v-.9h.6v.9Z"/></clipPath>
<clipPath id="ct_24"><path d="M723.2,243.6V228.2h53.9v15.4Z"/></clipPath>
<clipPath id="cu_24"><path d="M732.1,202.7V187.3h80.3v15.4Z"/></clipPath>
<clipPath id="cv_24"><path d="M727.6,222.4V207h48.9v15.4Z"/></clipPath>
<clipPath id="cw_24"><path d="M39,1247.2V0H870.5V1247.2Z"/></clipPath>
<style type="text/css"><![CDATA[
.g0_24{
fill: #9C1F5F;
}
.g1_24{
fill: #DCDDDE;
}
.g2_24{
fill: #8FD3D3;
}
.g3_24{
fill: #4D4D4F;
}
.g4_24{
fill: #DEF1F0;
}
.g5_24{
fill: #5AC4C1;
}
.g6_24{
fill: #58595B;
}
.g7_24{
fill: #FFF;
}
.g8_24{
fill: #949698;
}
]]></style>
</defs>
<path d="M0,1286.2H29.9V1029H0v257.2Z" class="g0_24"/>
<image clip-path="url(#c0_24)" preserveAspectRatio="none" x="29" y="1035" width="3" height="26" xlink:href="img/1.jpg"/>
<image clip-path="url(#c1_24)" preserveAspectRatio="none" x="2" y="1035" width="29" height="26" xlink:href="img/2.jpg"/>
<image clip-path="url(#c2_24)" preserveAspectRatio="none" x="4" y="1036" width="24" height="22" xlink:href="img/3.jpg"/>
<image clip-path="url(#c3_24)" preserveAspectRatio="none" x="513" y="1" width="359" height="147" xlink:href="img/4.jpg"/>
<image clip-path="url(#c4_24)" preserveAspectRatio="none" x="538" y="108" width="45" height="11" xlink:href="img/5.jpg"/>
<image clip-path="url(#c5_24)" preserveAspectRatio="none" x="602" y="109" width="9" height="13" xlink:href="img/6.jpg"/>
<path d="M603.8,1247.2H870.5V780H603.8v467.2Z" class="g1_24"/>
<path d="M39,1247.2H308.1V147.2H39v1100Z" class="g1_24"/>
<image clip-path="url(#c6_24)" preserveAspectRatio="none" x="39" y="147" width="269" height="299" xlink:href="img/7.jpg"/>
<path d="M322.2,446.1H870.5V147.2H322.2V446.1Z" class="g2_24"/>
<image clip-path="url(#c7_24)" preserveAspectRatio="none" x="322" y="147" width="548" height="300" xlink:href="img/8.jpg"/>
<image clip-path="url(#c8_24)" preserveAspectRatio="none" x="185" y="425" width="123" height="21" xlink:href="img/9.jpg"/>
<image clip-path="url(#c9_24)" preserveAspectRatio="none" x="610" y="0" width="261" height="445" xlink:href="img/10.jpg"/>
<image clip-path="url(#ca_24)" preserveAspectRatio="none" x="610" y="7" width="261" height="141" xlink:href="img/11.jpg"/>
<image clip-path="url(#cb_24)" preserveAspectRatio="none" x="610" y="147" width="261" height="298" xlink:href="img/12.jpg"/>
<image clip-path="url(#cc_24)" preserveAspectRatio="none" x="610" y="110" width="89" height="12" xlink:href="img/13.jpg"/>
<image clip-path="url(#cd_24)" preserveAspectRatio="none" x="693" y="444" width="176" height="2" xlink:href="img/14.jpg"/>
<image clip-path="url(#ce_24)" preserveAspectRatio="none" x="693" y="424" width="176" height="21" xlink:href="img/15.jpg"/>
<path d="M39,79H69.1V48.9H39V79Z" class="g3_24"/>
<path d="M334.8,130.5c2,0,3.7,-1.7,3.7,-3.8c0,-2.1,-1.7,-3.8,-3.7,-3.8c-2.1,0,-3.8,1.7,-3.8,3.8c0,2.1,1.7,3.8,3.8,3.8Z" class="g4_24"/>
<path d="M334.8,130.5v.5c2.4,0,4.3,-1.9,4.3,-4.3c0,-2.4,-1.9,-4.3,-4.3,-4.3c-2.4,0,-4.4,1.9,-4.4,4.3c0,2.4,2,4.3,4.4,4.3v-1.1c-1.8,0,-3.2,-1.4,-3.2,-3.2c0,-1.8,1.4,-3.2,3.2,-3.2c1.7,0,3.2,1.4,3.2,3.2c0,1.8,-1.5,3.2,-3.2,3.2Z" class="g5_24"/>
<path d="M341.7,127.7h36v-1.6h-36Z" class="g5_24"/>
<path d="M385.4,130.5c2.1,0,3.8,-1.7,3.8,-3.8c0,-2.1,-1.7,-3.8,-3.8,-3.8c-2.1,0,-3.8,1.7,-3.8,3.8c0,2.1,1.7,3.8,3.8,3.8Z" class="g4_24"/>
<path d="M385.4,130.5v.5c2.4,0,4.3,-1.9,4.3,-4.3c0,-2.4,-1.9,-4.3,-4.3,-4.3c-2.4,0,-4.3,1.9,-4.3,4.3c0,2.4,1.9,4.3,4.3,4.3v-1.1c-1.8,0,-3.2,-1.4,-3.2,-3.2c0,-1.8,1.4,-3.2,3.2,-3.2c1.8,0,3.2,1.4,3.2,3.2c0,1.8,-1.4,3.2,-3.2,3.2Z" class="g5_24"/>
<path d="M392.8,127.7h52.7v-1.6H392.8Z" class="g5_24"/>
<path d="M453.1,130.5c2,0,3.7,-1.7,3.7,-3.8c0,-2.1,-1.7,-3.8,-3.7,-3.8c-2.1,0,-3.8,1.7,-3.8,3.8c0,2.1,1.7,3.8,3.8,3.8Z" class="g4_24"/>
<path d="M453.1,130.5v.5c2.3,0,4.3,-1.9,4.3,-4.3c0,-2.4,-2,-4.3,-4.3,-4.3c-2.4,0,-4.4,1.9,-4.4,4.3c0,2.4,2,4.3,4.4,4.3v-1.1c-1.8,0,-3.3,-1.4,-3.3,-3.2c0,-1.8,1.5,-3.2,3.3,-3.2c1.7,0,3.2,1.4,3.2,3.2c0,1.8,-1.5,3.2,-3.2,3.2Z" class="g5_24"/>
<path d="M460.2,127.7h41.5v-1.6H460.2Z" class="g5_24"/>
<path d="M561,130.5c2.1,0,3.8,-1.7,3.8,-3.8c0,-2.1,-1.7,-3.8,-3.8,-3.8c-2,0,-3.7,1.7,-3.7,3.8c0,2.1,1.7,3.8,3.7,3.8Z" class="g4_24"/>
<path d="M561,130.5v.5c2.4,0,4.4,-1.9,4.4,-4.3c0,-2.4,-2,-4.3,-4.4,-4.3c-2.3,0,-4.3,1.9,-4.3,4.3c0,2.4,2,4.3,4.3,4.3v-1.1c-1.7,0,-3.2,-1.4,-3.2,-3.2c0,-1.8,1.5,-3.2,3.2,-3.2c1.8,0,3.2,1.4,3.3,3.2c-.1,1.8,-1.5,3.2,-3.3,3.2Z" class="g5_24"/>
<path d="M568.5,127.7h73.4v-1.6H568.5Z" class="g5_24"/>
<path d="M649.6,130.5c2.1,0,3.8,-1.7,3.8,-3.8c0,-2.1,-1.7,-3.8,-3.8,-3.8c-2,0,-3.7,1.7,-3.7,3.8c0,2.1,1.7,3.8,3.7,3.8Z" class="g4_24"/>
<path d="M649.6,130.5v.5c2.4,0,4.4,-1.9,4.4,-4.3c0,-2.4,-2,-4.3,-4.4,-4.3c-2.4,0,-4.3,1.9,-4.3,4.3c0,2.4,1.9,4.3,4.3,4.3v-1.1c-1.7,0,-3.2,-1.4,-3.2,-3.2c0,-1.8,1.5,-3.2,3.2,-3.2c1.8,0,3.2,1.4,3.2,3.2c0,1.8,-1.4,3.2,-3.2,3.2Z" class="g5_24"/>
<image clip-path="url(#cf_24)" preserveAspectRatio="none" x="695" y="75" width="165" height="16" xlink:href="img/16.jpg"/>
<image clip-path="url(#cg_24)" preserveAspectRatio="none" x="731" y="132" width="67" height="16" xlink:href="img/17.jpg"/>
<image clip-path="url(#ch_24)" preserveAspectRatio="none" x="731" y="147" width="66" height="1" xlink:href="img/18.jpg"/>
<image clip-path="url(#ci_24)" preserveAspectRatio="none" x="719" y="166" width="19" height="17" xlink:href="img/19.jpg"/>
<path d="M509.4,130.5c2.1,0,3.7,-1.7,3.7,-3.8c0,-2.1,-1.6,-3.8,-3.7,-3.8c-2.1,0,-3.8,1.7,-3.8,3.8c0,2.1,1.7,3.8,3.8,3.8Z" class="g4_24"/>
<path d="M509.4,130.5v.5c2.4,0,4.3,-1.9,4.3,-4.3c0,-2.4,-1.9,-4.3,-4.3,-4.3c-2.4,0,-4.3,1.9,-4.3,4.3c0,2.4,1.9,4.3,4.3,4.3v-1.1c-1.8,0,-3.2,-1.4,-3.2,-3.2c0,-1.8,1.4,-3.2,3.2,-3.2c1.7,0,3.2,1.4,3.2,3.2c0,1.8,-1.5,3.2,-3.2,3.2Z" class="g5_24"/>
<path d="M516.6,127.7h37.2v-1.6H516.6Z" class="g5_24"/>
<path d="M603.8,808H870.5v-2.3H603.8Z" class="g6_24"/>
<image clip-path="url(#cj_24)" preserveAspectRatio="none" x="350" y="102" width="20" height="19" xlink:href="img/20.jpg"/>
<image clip-path="url(#ck_24)" preserveAspectRatio="none" x="584" y="102" width="20" height="19" xlink:href="img/21.jpg"/>
<image clip-path="url(#cl_24)" preserveAspectRatio="none" x="602" y="110" width="2" height="11" xlink:href="img/22.jpg"/>
<image clip-path="url(#cm_24)" preserveAspectRatio="none" x="602" y="110" width="2" height="11" xlink:href="img/23.jpg"/>
<image clip-path="url(#cn_24)" preserveAspectRatio="none" x="518" y="102" width="17" height="19" xlink:href="img/24.jpg"/>
<image clip-path="url(#co_24)" preserveAspectRatio="none" x="532" y="102" width="6" height="19" xlink:href="img/25.jpg"/>
<image clip-path="url(#cp_24)" preserveAspectRatio="none" x="481" y="102" width="21" height="19" xlink:href="img/26.jpg"/>
<image clip-path="url(#cq_24)" preserveAspectRatio="none" x="406" y="102" width="20" height="19" xlink:href="img/27.jpg"/>
<image clip-path="url(#cr_24)" preserveAspectRatio="none" x="425" y="109" width="1" height="9" xlink:href="img/28.jpg"/>
<image clip-path="url(#cs_24)" preserveAspectRatio="none" x="425" y="109" width="1" height="9" xlink:href="img/29.jpg"/>
<image clip-path="url(#ct_24)" preserveAspectRatio="none" x="723" y="228" width="55" height="16" xlink:href="img/30.jpg"/>
<image clip-path="url(#cu_24)" preserveAspectRatio="none" x="731" y="187" width="82" height="16" xlink:href="img/31.jpg"/>
<image clip-path="url(#cv_24)" preserveAspectRatio="none" x="727" y="206" width="50" height="17" xlink:href="img/32.jpg"/>
<path d="M714.2,234l.4,-1.4l-1.4,-.5l-.5,1.4Zm.9,-2.8l.4,-1.4l-1.4,-.5l-.5,1.4Zm.9,-2.8l.5,-1.4l-1.5,-.5l-.4,1.4Zm.9,-2.8l.5,-1.4l-1.5,-.5l-.4,1.4Zm1,-2.8l.4,-1.4l-1.4,-.5l-.5,1.4Zm.9,-2.8l.4,-1.4l-1.4,-.5l-.5,1.4Zm.9,-2.8l.5,-1.4l-1.5,-.5l-.4,1.4Z" class="g2_24"/>
<path d="M720.2,215.5l.4,-1.6l-1.5,-.4l-.4,1.6Zm.8,-3.2l.3,-1.5l-1.4,-.4l-.4,1.6Zm.7,-3.1l.4,-1.6l-1.5,-.4l-.3,1.6Zm.8,-3.2l.4,-1.6l-1.5,-.3l-.4,1.6Zm.8,-3.1l.4,-1.6l-1.5,-.4l-.4,1.6Zm.8,-3.2l.3,-1.6l-1.4,-.3l-.4,1.5Z" class="g2_24"/>
<path d="M724.4,197.6l-.8,-1.4l-1.3,.8l.7,1.3Zm-1.6,-2.8l-.8,-1.3l-1.3,.7l.8,1.4Zm-1.6,-2.7l-.8,-1.3l-1.3,.7l.8,1.4Zm-1.5,-2.7l-.8,-1.4l-1.3,.8l.7,1.4Zm-1.6,-2.7l-.8,-1.4l-1.3,.8l.8,1.3ZM716.5,184l-.8,-1.4l-1.3,.8l.8,1.3ZM715,181.2l-.8,-1.3l-1.4,.7l.8,1.4Zm-1.6,-2.7l-.8,-1.3l-1.3,.7l.8,1.4Z" class="g2_24"/>
<path d="M714.2,175.3l.4,-1.5l-1.4,-.4l-.5,1.4Zm.9,-2.9l.4,-1.5l-1.4,-.4l-.5,1.4Zm.9,-2.9l.5,-1.5l-1.5,-.4l-.5,1.4Zm.9,-2.9l.5,-1.5l-1.5,-.4l-.5,1.4Zm.9,-2.9l.5,-1.4l-1.5,-.5l-.4,1.4Zm.9,-2.9l.5,-1.4l-1.5,-.5l-.4,1.4Zm.9,-2.9l.5,-1.4l-1.5,-.5l-.4,1.5Zm.9,-2.9l.5,-1.4l-1.5,-.5l-.4,1.5Zm.9,-2.9l.5,-1.4l-1.5,-.5l-.4,1.5Zm.9,-2.9l.5,-1.4l-1.5,-.5l-.4,1.5Zm1,-2.9l.4,-1.4l-1.5,-.5l-.4,1.5Z" class="g2_24"/>
<path d="M723.6,144.4l.3,-1.4l-1.5,-.3l-.2,1.4Zm.6,-2.9l.3,-1.5l-1.5,-.3l-.3,1.5Zm.6,-2.9l.3,-1.5l-1.5,-.3l-.3,1.5Zm.6,-3l.3,-1.4l-1.5,-.3l-.3,1.4Zm.6,-2.9l.3,-1.4l-1.5,-.3l-.3,1.4Zm.6,-2.9l.3,-1.5l-1.5,-.3l-.3,1.5Zm.6,-2.9l.3,-1.5l-1.5,-.3l-.3,1.5Zm.5,-3l.3,-1.4l-1.5,-.3l-.3,1.4Zm.6,-2.9l.3,-1.4l-1.5,-.3l-.3,1.4Zm.6,-2.9l.3,-1.5l-1.5,-.3l-.3,1.5Zm.6,-2.9l.3,-1.5l-1.5,-.3l-.3,1.5Zm.6,-2.9l.3,-1.5l-1.5,-.3l-.3,1.4Zm.6,-3l.3,-1.4l-1.5,-.3l-.3,1.4Zm.6,-2.9l.3,-1.5l-1.5,-.3l-.3,1.5Z" class="g2_24"/>
<path d="M731.6,107.6c3.3,0,6,-2.7,6,-6.1c0,-3.3,-2.7,-6,-6,-6c-3.4,0,-6.1,2.7,-6.1,6c0,3.4,2.7,6.1,6.1,6.1Z" class="g2_24"/>
<path d="M731.6,107.6v1.5c4.1,0,7.5,-3.4,7.5,-7.6c0,-4.1,-3.4,-7.5,-7.5,-7.5c-4.2,0,-7.6,3.4,-7.6,7.5c0,4.2,3.4,7.6,7.6,7.6v-3c-2.6,0,-4.6,-2,-4.7,-4.6c.1,-2.5,2.1,-4.6,4.7,-4.6c2.5,0,4.6,2.1,4.6,4.6c0,2.6,-2.1,4.6,-4.6,4.6Z" class="g5_24"/>
<path d="M723.6,148.5c2.3,0,4.3,-1.9,4.3,-4.2c0,-2.4,-2,-4.3,-4.3,-4.3c-2.4,0,-4.3,1.9,-4.3,4.3c0,2.3,1.9,4.2,4.3,4.2Z" class="g5_24"/>
<path d="M714.7,242.9c3.4,0,6.1,-2.7,6.1,-6.1c0,-3.3,-2.7,-6.1,-6.1,-6.1c-3.3,0,-6.1,2.8,-6.1,6.1c0,3.4,2.8,6.1,6.1,6.1Z" class="g2_24"/>
<path d="M714.7,242.9v1.5c4.2,0,7.6,-3.4,7.6,-7.6c0,-4.2,-3.4,-7.6,-7.6,-7.6c-4.2,0,-7.5,3.4,-7.5,7.6c0,4.2,3.3,7.6,7.5,7.6v-3c-2.5,0,-4.6,-2,-4.6,-4.6c0,-2.5,2.1,-4.6,4.6,-4.6c2.6,0,4.6,2.1,4.6,4.6c0,2.6,-2,4.6,-4.6,4.6Z" class="g5_24"/>
<path d="M712.6,181.4c2.4,0,4.3,-1.9,4.3,-4.2c0,-2.4,-1.9,-4.3,-4.3,-4.3c-2.3,0,-4.2,1.9,-4.2,4.3c0,2.3,1.9,4.2,4.2,4.2Z" class="g5_24"/>
<path d="M725.2,200c2.3,0,4.3,-1.9,4.3,-4.2c0,-2.4,-2,-4.3,-4.3,-4.3c-2.4,0,-4.3,1.9,-4.3,4.3c0,2.3,1.9,4.2,4.3,4.2Z" class="g5_24"/>
<path d="M719.4,219.8c2.4,0,4.3,-1.9,4.3,-4.3c0,-2.3,-1.9,-4.2,-4.3,-4.2c-2.3,0,-4.2,1.9,-4.2,4.2c0,2.4,1.9,4.3,4.2,4.3Z" class="g5_24"/>
<path d="M42.8,658.2v0c.4,0,.7,-.3,.7,-.8c0,-.4,-.3,-.7,-.7,-.7c-.4,0,-.8,.3,-.8,.7c0,.5,.4,.8,.8,.8m3,0v0c.4,0,.8,-.3,.8,-.8c0,-.4,-.4,-.7,-.8,-.7c-.4,0,-.7,.3,-.7,.7c0,.5,.3,.8,.7,.8m3.1,0v0c.4,0,.7,-.3,.7,-.8c0,-.4,-.3,-.7,-.7,-.7c-.5,0,-.8,.3,-.8,.7c0,.5,.3,.8,.8,.8m3,0v0c.4,0,.8,-.3,.8,-.8c0,-.4,-.4,-.7,-.8,-.7c-.4,0,-.8,.3,-.8,.7c0,.5,.4,.8,.8,.8m3,0v0c.5,0,.8,-.3,.8,-.8c0,-.4,-.3,-.7,-.8,-.7c-.4,0,-.7,.3,-.7,.7c0,.5,.3,.8,.7,.8m3.1,0v0c.4,0,.8,-.3,.8,-.8c0,-.4,-.4,-.7,-.8,-.7c-.4,0,-.8,.3,-.8,.7c0,.5,.4,.8,.8,.8m3,0v0c.5,0,.8,-.3,.8,-.8c0,-.4,-.3,-.7,-.8,-.7c-.4,0,-.7,.3,-.7,.7c0,.5,.3,.8,.7,.8m3.1,0v0c.4,0,.7,-.3,.7,-.8c0,-.4,-.3,-.7,-.7,-.7c-.5,0,-.8,.3,-.8,.7c0,.5,.3,.8,.8,.8m3,0v0c.4,0,.8,-.3,.8,-.8c0,-.4,-.4,-.7,-.8,-.7c-.4,0,-.8,.3,-.8,.7c0,.5,.4,.8,.8,.8m3.1,0v0c.4,0,.7,-.3,.7,-.8c0,-.4,-.3,-.7,-.7,-.7c-.5,0,-.8,.3,-.8,.7c0,.5,.3,.8,.8,.8m3,0v0c.4,0,.8,-.3,.8,-.8c0,-.4,-.4,-.7,-.8,-.7c-.4,0,-.8,.3,-.8,.7c0,.5,.4,.8,.8,.8m3,0v0c.5,0,.8,-.3,.8,-.8c0,-.4,-.3,-.7,-.8,-.7c-.4,0,-.7,.3,-.7,.7c0,.5,.3,.8,.7,.8m3.1,0v0c.4,0,.7,-.3,.7,-.8c0,-.4,-.3,-.7,-.7,-.7c-.4,0,-.8,.3,-.8,.7c0,.5,.4,.8,.8,.8m3,0v0c.4,0,.8,-.3,.8,-.8c0,-.4,-.4,-.7,-.8,-.7c-.4,0,-.7,.3,-.7,.7c0,.5,.3,.8,.7,.8m3.1,0v0c.4,0,.7,-.3,.7,-.8c0,-.4,-.3,-.7,-.7,-.7c-.5,0,-.8,.3,-.8,.7c0,.5,.3,.8,.8,.8m3,0v0c.4,0,.8,-.3,.8,-.8c0,-.4,-.4,-.7,-.8,-.7c-.4,0,-.8,.3,-.8,.7c0,.5,.4,.8,.8,.8m3,0v0c.5,0,.8,-.3,.8,-.8c0,-.4,-.3,-.7,-.8,-.7c-.4,0,-.7,.3,-.7,.7c0,.5,.3,.8,.7,.8m3.1,0v0c.4,0,.7,-.3,.7,-.8c0,-.4,-.3,-.7,-.7,-.7c-.4,0,-.8,.3,-.8,.7c0,.5,.4,.8,.8,.8m3,0v0c.4,0,.8,-.3,.8,-.8c0,-.4,-.4,-.7,-.8,-.7c-.4,0,-.7,.3,-.7,.7c0,.5,.3,.8,.7,.8m3.1,0v0c.4,0,.7,-.3,.7,-.8c0,-.4,-.3,-.7,-.7,-.7c-.5,0,-.8,.3,-.8,.7c0,.5,.3,.8,.8,.8m3,0v0c.4,0,.8,-.3,.8,-.8c0,-.4,-.4,-.7,-.8,-.7c-.4,0,-.8,.3,-.8,.7c0,.5,.4,.8,.8,.8m3,0v0c.5,0,.8,-.3,.8,-.8c0,-.4,-.3,-.7,-.8,-.7c-.4,0,-.7,.3,-.7,.7c0,.5,.3,.8,.7,.8m3.1,0v0c.4,0,.8,-.3,.8,-.8c0,-.4,-.4,-.7,-.8,-.7c-.4,0,-.8,.3,-.8,.7c0,.5,.4,.8,.8,.8m3,0v0c.5,0,.8,-.3,.8,-.8c0,-.4,-.3,-.7,-.8,-.7c-.4,0,-.7,.3,-.7,.7c0,.5,.3,.8,.7,.8m3.1,0v0c.4,0,.7,-.3,.7,-.8c0,-.4,-.3,-.7,-.7,-.7c-.5,0,-.8,.3,-.8,.7c0,.5,.3,.8,.8,.8m3,0v0c.4,0,.8,-.3,.8,-.8c0,-.4,-.4,-.7,-.8,-.7c-.4,0,-.8,.3,-.8,.7c0,.5,.4,.8,.8,.8m3.1,0v0c.4,0,.7,-.3,.7,-.8c0,-.4,-.3,-.7,-.7,-.7c-.5,0,-.8,.3,-.8,.7c0,.5,.3,.8,.8,.8m3,0v0c.4,0,.8,-.3,.8,-.8c0,-.4,-.4,-.7,-.8,-.7c-.4,0,-.8,.3,-.8,.7c0,.5,.4,.8,.8,.8m3,0v0c.5,0,.8,-.3,.8,-.8c0,-.4,-.3,-.7,-.8,-.7c-.4,0,-.7,.3,-.7,.7c0,.5,.3,.8,.7,.8m3.1,0v0c.4,0,.7,-.3,.7,-.8c0,-.4,-.3,-.7,-.7,-.7c-.4,0,-.8,.3,-.8,.7c0,.5,.4,.8,.8,.8m3,0v0c.4,0,.8,-.3,.8,-.8c0,-.4,-.4,-.7,-.8,-.7c-.4,0,-.7,.3,-.7,.7c0,.5,.3,.8,.7,.8m3.1,0v0c.4,0,.7,-.3,.7,-.8c0,-.4,-.3,-.7,-.7,-.7c-.5,0,-.8,.3,-.8,.7c0,.5,.3,.8,.8,.8m3,0v0c.4,0,.8,-.3,.8,-.8c0,-.4,-.4,-.7,-.8,-.7c-.4,0,-.8,.3,-.8,.7c0,.5,.4,.8,.8,.8m3,0v0c.5,0,.8,-.3,.8,-.8c0,-.4,-.3,-.7,-.8,-.7c-.4,0,-.7,.3,-.7,.7c0,.5,.3,.8,.7,.8m3.1,0v0c.4,0,.7,-.3,.7,-.8c0,-.4,-.3,-.7,-.7,-.7c-.4,0,-.8,.3,-.8,.7c0,.5,.4,.8,.8,.8m3,0v0c.4,0,.8,-.3,.8,-.8c0,-.4,-.4,-.7,-.8,-.7c-.4,0,-.7,.3,-.7,.7c0,.5,.3,.8,.7,.8m3.1,0v0c.4,0,.7,-.3,.7,-.8c0,-.4,-.3,-.7,-.7,-.7c-.5,0,-.8,.3,-.8,.7c0,.5,.3,.8,.8,.8m3,0v0c.4,0,.8,-.3,.8,-.8c0,-.4,-.4,-.7,-.8,-.7c-.4,0,-.8,.3,-.8,.7c0,.5,.4,.8,.8,.8m3,0v0c.5,0,.8,-.3,.8,-.8c0,-.4,-.3,-.7,-.8,-.7c-.4,0,-.7,.3,-.7,.7c0,.5,.3,.8,.7,.8m3.1,0v0c.4,0,.8,-.3,.8,-.8c0,-.4,-.4,-.7,-.8,-.7c-.4,0,-.8,.3,-.8,.7c0,.5,.4,.8,.8,.8m3,0v0c.5,0,.8,-.3,.8,-.8c0,-.4,-.3,-.7,-.8,-.7c-.4,0,-.7,.3,-.7,.7c0,.5,.3,.8,.7,.8m3.1,0v0c.4,0,.7,-.3,.7,-.8c0,-.4,-.3,-.7,-.7,-.7c-.5,0,-.8,.3,-.8,.7c0,.5,.3,.8,.8,.8m3,0v0c.4,0,.8,-.3,.8,-.8c0,-.4,-.4,-.7,-.8,-.7c-.4,0,-.8,.3,-.8,.7c0,.5,.4,.8,.8,.8m3.1,0v0c.4,0,.7,-.3,.7,-.8c0,-.4,-.3,-.7,-.7,-.7c-.5,0,-.8,.3,-.8,.7c0,.5,.3,.8,.8,.8m3,0v0c.4,0,.8,-.3,.8,-.8c0,-.4,-.4,-.7,-.8,-.7c-.4,0,-.8,.3,-.8,.7c0,.5,.4,.8,.8,.8m3,0v0c.5,0,.8,-.3,.8,-.8c0,-.4,-.3,-.7,-.8,-.7c-.4,0,-.7,.3,-.7,.7c0,.5,.3,.8,.7,.8m3.1,0v0c.4,0,.7,-.3,.7,-.8c0,-.4,-.3,-.7,-.7,-.7c-.4,0,-.8,.3,-.8,.7c0,.5,.4,.8,.8,.8m3,0v0c.4,0,.8,-.3,.8,-.8c0,-.4,-.4,-.7,-.8,-.7c-.4,0,-.7,.3,-.7,.7c0,.5,.3,.8,.7,.8m3.1,0v0c.4,0,.7,-.3,.7,-.8c0,-.4,-.3,-.7,-.7,-.7c-.5,0,-.8,.3,-.8,.7c0,.5,.3,.8,.8,.8m3,0v0c.4,0,.8,-.3,.8,-.8c0,-.4,-.4,-.7,-.8,-.7c-.4,0,-.8,.3,-.8,.7c0,.5,.4,.8,.8,.8m3,0v0c.5,0,.8,-.3,.8,-.8c0,-.4,-.3,-.7,-.8,-.7c-.4,0,-.7,.3,-.7,.7c0,.5,.3,.8,.7,.8m3.1,0v0c.4,0,.7,-.3,.7,-.8c0,-.4,-.3,-.7,-.7,-.7c-.4,0,-.8,.3,-.8,.7c0,.5,.4,.8,.8,.8m3,0v0c.4,0,.8,-.3,.8,-.8c0,-.4,-.4,-.7,-.8,-.7c-.4,0,-.7,.3,-.7,.7c0,.5,.3,.8,.7,.8m3.1,0v0c.4,0,.7,-.3,.7,-.8c0,-.4,-.3,-.7,-.7,-.7c-.5,0,-.8,.3,-.8,.7c0,.5,.3,.8,.8,.8m3,0v0c.4,0,.8,-.3,.8,-.8c0,-.4,-.4,-.7,-.8,-.7c-.4,0,-.8,.3,-.8,.7c0,.5,.4,.8,.8,.8m3,0v0c.5,0,.8,-.3,.8,-.8c0,-.4,-.3,-.7,-.8,-.7c-.4,0,-.7,.3,-.7,.7c0,.5,.3,.8,.7,.8m3.1,0v0c.4,0,.8,-.3,.8,-.8c0,-.4,-.4,-.7,-.8,-.7c-.4,0,-.8,.3,-.8,.7c0,.5,.4,.8,.8,.8m3,0v0c.5,0,.8,-.3,.8,-.8c0,-.4,-.3,-.7,-.8,-.7c-.4,0,-.7,.3,-.7,.7c0,.5,.3,.8,.7,.8m3.1,0v0c.4,0,.7,-.3,.7,-.8c0,-.4,-.3,-.7,-.7,-.7c-.5,0,-.8,.3,-.8,.7c0,.5,.3,.8,.8,.8m3,0v0c.4,0,.8,-.3,.8,-.8c0,-.4,-.4,-.7,-.8,-.7c-.4,0,-.8,.3,-.8,.7c0,.5,.4,.8,.8,.8m3.1,0v0c.4,0,.7,-.3,.7,-.8c0,-.4,-.3,-.7,-.7,-.7c-.5,0,-.8,.3,-.8,.7c0,.5,.3,.8,.8,.8m3,0v0c.4,0,.8,-.3,.8,-.8c0,-.4,-.4,-.7,-.8,-.7c-.4,0,-.8,.3,-.8,.7c0,.5,.4,.8,.8,.8m3,0v0c.5,0,.8,-.3,.8,-.8c0,-.4,-.3,-.7,-.8,-.7c-.4,0,-.7,.3,-.7,.7c0,.5,.3,.8,.7,.8m3.1,0v0c.4,0,.7,-.3,.7,-.8c0,-.4,-.3,-.7,-.7,-.7c-.4,0,-.8,.3,-.8,.7c0,.5,.4,.8,.8,.8m3,0v0c.4,0,.8,-.3,.8,-.8c0,-.4,-.4,-.7,-.8,-.7c-.4,0,-.7,.3,-.7,.7c0,.5,.3,.8,.7,.8m3.1,0v0c.4,0,.7,-.3,.7,-.8c0,-.4,-.3,-.7,-.7,-.7c-.5,0,-.8,.3,-.8,.7c0,.5,.3,.8,.8,.8m3,0v0c.4,0,.8,-.3,.8,-.8c0,-.4,-.4,-.7,-.8,-.7c-.4,0,-.8,.3,-.8,.7c0,.5,.4,.8,.8,.8m3,0v0c.5,0,.8,-.3,.8,-.8c0,-.4,-.3,-.7,-.8,-.7c-.4,0,-.7,.3,-.7,.7c0,.5,.3,.8,.7,.8m3.1,0v0c.4,0,.7,-.3,.7,-.8c0,-.4,-.3,-.7,-.7,-.7c-.4,0,-.8,.3,-.8,.7c0,.5,.4,.8,.8,.8m3,0v0c.4,0,.8,-.3,.8,-.8c0,-.4,-.4,-.7,-.8,-.7c-.4,0,-.7,.3,-.7,.7c0,.5,.3,.8,.7,.8m3.1,0v0c.4,0,.7,-.3,.7,-.8c0,-.4,-.3,-.7,-.7,-.7c-.5,0,-.8,.3,-.8,.7c0,.5,.3,.8,.8,.8m3,0v0c.4,0,.8,-.3,.8,-.8c0,-.4,-.4,-.7,-.8,-.7c-.4,0,-.8,.3,-.8,.7c0,.5,.4,.8,.8,.8m3,0v0c.5,0,.8,-.3,.8,-.8c0,-.4,-.3,-.7,-.8,-.7c-.4,0,-.7,.3,-.7,.7c0,.5,.3,.8,.7,.8m3.1,0v0c.4,0,.8,-.3,.8,-.8c0,-.4,-.4,-.7,-.8,-.7c-.4,0,-.8,.3,-.8,.7c0,.5,.4,.8,.8,.8m3,0v0c.5,0,.8,-.3,.8,-.8c0,-.4,-.3,-.7,-.8,-.7c-.4,0,-.7,.3,-.7,.7c0,.5,.3,.8,.7,.8m3.1,0v0c.4,0,.7,-.3,.7,-.8c0,-.4,-.3,-.7,-.7,-.7c-.5,0,-.8,.3,-.8,.7c0,.5,.3,.8,.8,.8m3,0v0c.4,0,.8,-.3,.8,-.8c0,-.4,-.4,-.7,-.8,-.7c-.4,0,-.8,.3,-.8,.7c0,.5,.4,.8,.8,.8m3.1,0v0c.4,0,.7,-.3,.7,-.8c0,-.4,-.3,-.7,-.7,-.7c-.5,0,-.8,.3,-.8,.7c0,.5,.3,.8,.8,.8m3,0v0c.4,0,.8,-.3,.8,-.8c0,-.4,-.4,-.7,-.8,-.7c-.4,0,-.8,.3,-.8,.7c0,.5,.4,.8,.8,.8m3,0v0c.5,0,.8,-.3,.8,-.8c0,-.4,-.3,-.7,-.8,-.7c-.4,0,-.7,.3,-.7,.7c0,.5,.3,.8,.7,.8m3.1,0v0c.4,0,.7,-.3,.7,-.8c0,-.4,-.3,-.7,-.7,-.7c-.4,0,-.8,.3,-.8,.7c0,.5,.4,.8,.8,.8m3,0v0c.4,0,.8,-.3,.8,-.8c0,-.4,-.4,-.7,-.8,-.7c-.4,0,-.7,.3,-.7,.7c0,.5,.3,.8,.7,.8m3.1,0v0c.4,0,.7,-.3,.7,-.8c0,-.4,-.3,-.7,-.7,-.7c-.5,0,-.8,.3,-.8,.7c0,.5,.3,.8,.8,.8m3,0v0c.4,0,.8,-.3,.8,-.8c0,-.4,-.4,-.7,-.8,-.7c-.4,0,-.8,.3,-.8,.7c0,.5,.4,.8,.8,.8m3,0v0c.5,0,.8,-.3,.8,-.8c0,-.4,-.3,-.7,-.8,-.7c-.4,0,-.7,.3,-.7,.7c0,.5,.3,.8,.7,.8m3.1,0v0c.4,0,.7,-.3,.7,-.8c0,-.4,-.3,-.7,-.7,-.7c-.4,0,-.8,.3,-.8,.7c0,.5,.4,.8,.8,.8m3,0v0c.4,0,.8,-.3,.8,-.8c0,-.4,-.4,-.7,-.8,-.7c-.4,0,-.7,.3,-.7,.7c0,.5,.3,.8,.7,.8Z" class="g6_24"/>
<path d="M39.7,658.2c.2,0,.4,-.1,.6,-.2c.1,-.2,.2,-.4,.2,-.6c0,-.2,-.1,-.4,-.2,-.5c-.2,-.1,-.4,-.2,-.6,-.2c-.2,0,-.4,.1,-.5,.2c-.1,.1,-.2,.3,-.2,.5c0,.2,.1,.4,.2,.6c.1,.1,.3,.2,.5,.2m267.7,0c.2,0,.4,-.1,.5,-.2c.1,-.2,.2,-.4,.2,-.6c0,-.2,-.1,-.4,-.2,-.5c-.1,-.1,-.3,-.2,-.5,-.2c-.2,0,-.4,.1,-.6,.2c-.1,.1,-.2,.3,-.2,.5c0,.2,.1,.4,.2,.6c.2,.1,.4,.2,.6,.2Z" class="g6_24"/>
<path d="M39,682.3H308.1v-1.5H39Z" class="g6_24"/>
<path d="M39,487.1H308.1v-2.3H39Z" class="g6_24"/>
<path d="M39,848.3H308.1v21.5H39V848.3Zm0,21.5H254.9V982.9H39V869.8Zm215.9,0h53.2V982.9H254.9V869.8Z" class="g5_24"/>
<path d="M40.9,787.1v0c.2,0,.4,-.1,.4,-.3c0,-.2,-.2,-.4,-.4,-.4c-.2,0,-.4,.2,-.4,.4c0,.2,.2,.3,.4,.3m1.5,0v0c.2,0,.4,-.1,.4,-.3c0,-.2,-.2,-.4,-.4,-.4c-.2,0,-.4,.2,-.4,.4c0,.2,.2,.3,.4,.3m1.5,0v0c.3,0,.4,-.1,.4,-.3c0,-.2,-.1,-.4,-.4,-.4c-.2,0,-.3,.2,-.3,.4c0,.2,.1,.3,.3,.3m1.6,0v0c.2,0,.4,-.1,.4,-.3c0,-.2,-.2,-.4,-.4,-.4c-.2,0,-.4,.2,-.4,.4c0,.2,.2,.3,.4,.3m1.5,0v0c.2,0,.4,-.1,.4,-.3c0,-.2,-.2,-.4,-.4,-.4c-.2,0,-.4,.2,-.4,.4c0,.2,.2,.3,.4,.3m1.5,0v0c.2,0,.4,-.1,.4,-.3c0,-.2,-.2,-.4,-.4,-.4c-.2,0,-.4,.2,-.4,.4c0,.2,.2,.3,.4,.3m1.6,0v0c.2,0,.3,-.1,.3,-.3c0,-.2,-.1,-.4,-.3,-.4c-.3,0,-.4,.2,-.4,.4c0,.2,.1,.3,.4,.3m1.5,0v0c.2,0,.4,-.1,.4,-.3c0,-.2,-.2,-.4,-.4,-.4c-.2,0,-.4,.2,-.4,.4c0,.2,.2,.3,.4,.3m1.5,0v0c.2,0,.4,-.1,.4,-.3c0,-.2,-.2,-.4,-.4,-.4c-.2,0,-.4,.2,-.4,.4c0,.2,.2,.3,.4,.3m1.5,0v0c.3,0,.4,-.1,.4,-.3c0,-.2,-.1,-.4,-.4,-.4c-.2,0,-.3,.2,-.3,.4c0,.2,.1,.3,.3,.3m1.6,0v0c.2,0,.4,-.1,.4,-.3c0,-.2,-.2,-.4,-.4,-.4c-.2,0,-.4,.2,-.4,.4c0,.2,.2,.3,.4,.3m1.5,0v0c.2,0,.4,-.1,.4,-.3c0,-.2,-.2,-.4,-.4,-.4c-.2,0,-.4,.2,-.4,.4c0,.2,.2,.3,.4,.3m1.5,0v0c.2,0,.4,-.1,.4,-.3c0,-.2,-.2,-.4,-.4,-.4c-.2,0,-.4,.2,-.4,.4c0,.2,.2,.3,.4,.3m1.6,0v0c.2,0,.3,-.1,.3,-.3c0,-.2,-.1,-.4,-.3,-.4c-.3,0,-.4,.2,-.4,.4c0,.2,.1,.3,.4,.3m1.5,0v0c.2,0,.4,-.1,.4,-.3c0,-.2,-.2,-.4,-.4,-.4c-.2,0,-.4,.2,-.4,.4c0,.2,.2,.3,.4,.3m1.5,0v0c.2,0,.4,-.1,.4,-.3c0,-.2,-.2,-.4,-.4,-.4c-.2,0,-.4,.2,-.4,.4c0,.2,.2,.3,.4,.3m1.5,0v0c.3,0,.4,-.1,.4,-.3c0,-.2,-.1,-.4,-.4,-.4c-.2,0,-.3,.2,-.3,.4c0,.2,.1,.3,.3,.3m1.6,0v0c.2,0,.4,-.1,.4,-.3c0,-.2,-.2,-.4,-.4,-.4c-.2,0,-.4,.2,-.4,.4c0,.2,.2,.3,.4,.3m1.5,0v0c.2,0,.4,-.1,.4,-.3c0,-.2,-.2,-.4,-.4,-.4c-.2,0,-.4,.2,-.4,.4c0,.2,.2,.3,.4,.3m1.5,0v0c.2,0,.4,-.1,.4,-.3c0,-.2,-.2,-.4,-.4,-.4c-.2,0,-.4,.2,-.4,.4c0,.2,.2,.3,.4,.3m1.6,0v0c.2,0,.3,-.1,.3,-.3c0,-.2,-.1,-.4,-.3,-.4c-.3,0,-.4,.2,-.4,.4c0,.2,.1,.3,.4,.3m1.5,0v0c.2,0,.4,-.1,.4,-.3c0,-.2,-.2,-.4,-.4,-.4c-.2,0,-.4,.2,-.4,.4c0,.2,.2,.3,.4,.3m1.5,0v0c.2,0,.4,-.1,.4,-.3c0,-.2,-.2,-.4,-.4,-.4c-.2,0,-.4,.2,-.4,.4c0,.2,.2,.3,.4,.3m1.5,0v0c.3,0,.4,-.1,.4,-.3c0,-.2,-.1,-.4,-.4,-.4c-.2,0,-.3,.2,-.3,.4c0,.2,.1,.3,.3,.3m1.6,0v0c.2,0,.4,-.1,.4,-.3c0,-.2,-.2,-.4,-.4,-.4c-.2,0,-.4,.2,-.4,.4c0,.2,.2,.3,.4,.3m1.5,0v0c.2,0,.4,-.1,.4,-.3c0,-.2,-.2,-.4,-.4,-.4c-.2,0,-.4,.2,-.4,.4c0,.2,.2,.3,.4,.3m1.5,0v0c.2,0,.4,-.1,.4,-.3c0,-.2,-.2,-.4,-.4,-.4c-.2,0,-.4,.2,-.4,.4c0,.2,.2,.3,.4,.3m1.6,0v0c.2,0,.3,-.1,.3,-.3c0,-.2,-.1,-.4,-.3,-.4c-.3,0,-.4,.2,-.4,.4c0,.2,.1,.3,.4,.3m1.5,0v0c.2,0,.4,-.1,.4,-.3c0,-.2,-.2,-.4,-.4,-.4c-.2,0,-.4,.2,-.4,.4c0,.2,.2,.3,.4,.3m1.5,0v0c.2,0,.4,-.1,.4,-.3c0,-.2,-.2,-.4,-.4,-.4c-.2,0,-.4,.2,-.4,.4c0,.2,.2,.3,.4,.3m1.5,0v0c.3,0,.4,-.1,.4,-.3c0,-.2,-.1,-.4,-.4,-.4c-.2,0,-.3,.2,-.3,.4c0,.2,.1,.3,.3,.3m1.6,0v0c.2,0,.4,-.1,.4,-.3c0,-.2,-.2,-.4,-.4,-.4c-.2,0,-.4,.2,-.4,.4c0,.2,.2,.3,.4,.3m1.5,0v0c.2,0,.4,-.1,.4,-.3c0,-.2,-.2,-.4,-.4,-.4c-.2,0,-.4,.2,-.4,.4c0,.2,.2,.3,.4,.3m1.5,0v0c.2,0,.4,-.1,.4,-.3c0,-.2,-.2,-.4,-.4,-.4c-.2,0,-.4,.2,-.4,.4c0,.2,.2,.3,.4,.3m1.6,0v0c.2,0,.3,-.1,.3,-.3c0,-.2,-.1,-.4,-.3,-.4c-.3,0,-.4,.2,-.4,.4c0,.2,.1,.3,.4,.3m1.5,0v0c.2,0,.4,-.1,.4,-.3c0,-.2,-.2,-.4,-.4,-.4c-.2,0,-.4,.2,-.4,.4c0,.2,.2,.3,.4,.3m1.5,0v0c.2,0,.4,-.1,.4,-.3c0,-.2,-.2,-.4,-.4,-.4c-.2,0,-.4,.2,-.4,.4c0,.2,.2,.3,.4,.3m1.5,0v0c.3,0,.4,-.1,.4,-.3c0,-.2,-.1,-.4,-.4,-.4c-.2,0,-.3,.2,-.3,.4c0,.2,.1,.3,.3,.3m1.6,0v0c.2,0,.4,-.1,.4,-.3c0,-.2,-.2,-.4,-.4,-.4c-.2,0,-.4,.2,-.4,.4c0,.2,.2,.3,.4,.3m1.5,0v0c.2,0,.4,-.1,.4,-.3c0,-.2,-.2,-.4,-.4,-.4c-.2,0,-.4,.2,-.4,.4c0,.2,.2,.3,.4,.3m1.5,0v0c.2,0,.4,-.1,.4,-.3c0,-.2,-.2,-.4,-.4,-.4c-.2,0,-.4,.2,-.4,.4c0,.2,.2,.3,.4,.3m1.6,0v0c.2,0,.3,-.1,.3,-.3c0,-.2,-.1,-.4,-.3,-.4c-.3,0,-.4,.2,-.4,.4c0,.2,.1,.3,.4,.3m1.5,0v0c.2,0,.4,-.1,.4,-.3c0,-.2,-.2,-.4,-.4,-.4c-.2,0,-.4,.2,-.4,.4c0,.2,.2,.3,.4,.3m1.5,0v0c.2,0,.4,-.1,.4,-.3c0,-.2,-.2,-.4,-.4,-.4c-.2,0,-.4,.2,-.4,.4c0,.2,.2,.3,.4,.3m1.5,0v0c.3,0,.4,-.1,.4,-.3c0,-.2,-.1,-.4,-.4,-.4c-.2,0,-.3,.2,-.3,.4c0,.2,.1,.3,.3,.3m1.6,0v0c.2,0,.4,-.1,.4,-.3c0,-.2,-.2,-.4,-.4,-.4c-.2,0,-.4,.2,-.4,.4c0,.2,.2,.3,.4,.3m1.5,0v0c.2,0,.4,-.1,.4,-.3c0,-.2,-.2,-.4,-.4,-.4c-.2,0,-.4,.2,-.4,.4c0,.2,.2,.3,.4,.3m1.5,0v0c.2,0,.4,-.1,.4,-.3c0,-.2,-.2,-.4,-.4,-.4c-.2,0,-.4,.2,-.4,.4c0,.2,.2,.3,.4,.3m1.6,0v0c.2,0,.3,-.1,.3,-.3c0,-.2,-.1,-.4,-.3,-.4c-.3,0,-.4,.2,-.4,.4c0,.2,.1,.3,.4,.3m1.5,0v0c.2,0,.4,-.1,.4,-.3c0,-.2,-.2,-.4,-.4,-.4c-.2,0,-.4,.2,-.4,.4c0,.2,.2,.3,.4,.3m1.5,0v0c.2,0,.4,-.1,.4,-.3c0,-.2,-.2,-.4,-.4,-.4c-.2,0,-.4,.2,-.4,.4c0,.2,.2,.3,.4,.3m1.5,0v0c.3,0,.4,-.1,.4,-.3c0,-.2,-.1,-.4,-.4,-.4c-.2,0,-.3,.2,-.3,.4c0,.2,.1,.3,.3,.3m1.6,0v0c.2,0,.4,-.1,.4,-.3c0,-.2,-.2,-.4,-.4,-.4c-.2,0,-.4,.2,-.4,.4c0,.2,.2,.3,.4,.3m1.5,0v0c.2,0,.4,-.1,.4,-.3c0,-.2,-.2,-.4,-.4,-.4c-.2,0,-.4,.2,-.4,.4c0,.2,.2,.3,.4,.3m1.5,0v0c.2,0,.4,-.1,.4,-.3c0,-.2,-.2,-.4,-.4,-.4c-.2,0,-.4,.2,-.4,.4c0,.2,.2,.3,.4,.3m1.6,0v0c.2,0,.3,-.1,.3,-.3c0,-.2,-.1,-.4,-.3,-.4c-.3,0,-.4,.2,-.4,.4c0,.2,.1,.3,.4,.3m1.5,0v0c.2,0,.4,-.1,.4,-.3c0,-.2,-.2,-.4,-.4,-.4c-.2,0,-.4,.2,-.4,.4c0,.2,.2,.3,.4,.3m1.5,0v0c.2,0,.4,-.1,.4,-.3c0,-.2,-.2,-.4,-.4,-.4c-.2,0,-.4,.2,-.4,.4c0,.2,.2,.3,.4,.3m1.5,0v0c.3,0,.4,-.1,.4,-.3c0,-.2,-.1,-.4,-.4,-.4c-.2,0,-.3,.2,-.3,.4c0,.2,.1,.3,.3,.3m1.6,0v0c.2,0,.4,-.1,.4,-.3c0,-.2,-.2,-.4,-.4,-.4c-.2,0,-.4,.2,-.4,.4c0,.2,.2,.3,.4,.3m1.5,0v0c.2,0,.4,-.1,.4,-.3c0,-.2,-.2,-.4,-.4,-.4c-.2,0,-.4,.2,-.4,.4c0,.2,.2,.3,.4,.3m1.5,0v0c.2,0,.4,-.1,.4,-.3c0,-.2,-.2,-.4,-.4,-.4c-.2,0,-.4,.2,-.4,.4c0,.2,.2,.3,.4,.3m1.6,0v0c.2,0,.3,-.1,.3,-.3c0,-.2,-.1,-.4,-.3,-.4c-.3,0,-.4,.2,-.4,.4c0,.2,.1,.3,.4,.3m1.5,0v0c.2,0,.4,-.1,.4,-.3c0,-.2,-.2,-.4,-.4,-.4c-.2,0,-.4,.2,-.4,.4c0,.2,.2,.3,.4,.3m1.5,0v0c.2,0,.4,-.1,.4,-.3c0,-.2,-.2,-.4,-.4,-.4c-.2,0,-.4,.2,-.4,.4c0,.2,.2,.3,.4,.3m1.5,0v0c.3,0,.4,-.1,.4,-.3c0,-.2,-.1,-.4,-.4,-.4c-.2,0,-.3,.2,-.3,.4c0,.2,.1,.3,.3,.3m1.6,0v0c.2,0,.4,-.1,.4,-.3c0,-.2,-.2,-.4,-.4,-.4c-.2,0,-.4,.2,-.4,.4c0,.2,.2,.3,.4,.3m1.5,0v0c.2,0,.4,-.1,.4,-.3c0,-.2,-.2,-.4,-.4,-.4c-.2,0,-.4,.2,-.4,.4c0,.2,.2,.3,.4,.3m1.5,0v0c.2,0,.4,-.1,.4,-.3c0,-.2,-.2,-.4,-.4,-.4c-.2,0,-.3,.2,-.3,.4c0,.2,.1,.3,.3,.3m1.6,0v0c.2,0,.3,-.1,.3,-.3c0,-.2,-.1,-.4,-.3,-.4c-.3,0,-.4,.2,-.4,.4c0,.2,.1,.3,.4,.3m1.5,0v0c.2,0,.4,-.1,.4,-.3c0,-.2,-.2,-.4,-.4,-.4c-.2,0,-.4,.2,-.4,.4c0,.2,.2,.3,.4,.3m1.5,0v0c.2,0,.4,-.1,.4,-.3c0,-.2,-.2,-.4,-.4,-.4c-.2,0,-.4,.2,-.4,.4c0,.2,.2,.3,.4,.3m1.5,0v0c.3,0,.4,-.1,.4,-.3c0,-.2,-.1,-.4,-.4,-.4c-.2,0,-.3,.2,-.3,.4c0,.2,.1,.3,.3,.3m1.6,0v0c.2,0,.4,-.1,.4,-.3c0,-.2,-.2,-.4,-.4,-.4c-.2,0,-.4,.2,-.4,.4c0,.2,.2,.3,.4,.3m1.5,0v0c.2,0,.4,-.1,.4,-.3c0,-.2,-.2,-.4,-.4,-.4c-.2,0,-.4,.2,-.4,.4c0,.2,.2,.3,.4,.3m1.5,0v0c.2,0,.4,-.1,.4,-.3c0,-.2,-.2,-.4,-.4,-.4c-.2,0,-.4,.2,-.4,.4c0,.2,.2,.3,.4,.3m1.6,0v0c.2,0,.3,-.1,.3,-.3c0,-.2,-.1,-.4,-.3,-.4c-.3,0,-.4,.2,-.4,.4c0,.2,.1,.3,.4,.3m1.5,0v0c.2,0,.4,-.1,.4,-.3c0,-.2,-.2,-.4,-.4,-.4c-.2,0,-.4,.2,-.4,.4c0,.2,.2,.3,.4,.3m1.5,0v0c.2,0,.4,-.1,.4,-.3c0,-.2,-.2,-.4,-.4,-.4c-.2,0,-.4,.2,-.4,.4c0,.2,.2,.3,.4,.3m1.5,0v0c.3,0,.4,-.1,.4,-.3c0,-.2,-.1,-.4,-.4,-.4c-.2,0,-.3,.2,-.3,.4c0,.2,.1,.3,.3,.3m1.6,0v0c.2,0,.4,-.1,.4,-.3c0,-.2,-.2,-.4,-.4,-.4c-.2,0,-.4,.2,-.4,.4c0,.2,.2,.3,.4,.3m1.5,0v0c.2,0,.4,-.1,.4,-.3c0,-.2,-.2,-.4,-.4,-.4c-.2,0,-.4,.2,-.4,.4c0,.2,.2,.3,.4,.3m1.5,0v0c.2,0,.4,-.1,.4,-.3c0,-.2,-.2,-.4,-.4,-.4c-.2,0,-.4,.2,-.4,.4c0,.2,.2,.3,.4,.3m1.6,0v0c.2,0,.3,-.1,.3,-.3c0,-.2,-.1,-.4,-.3,-.4c-.3,0,-.4,.2,-.4,.4c0,.2,.1,.3,.4,.3m1.5,0v0c.2,0,.4,-.1,.4,-.3c0,-.2,-.2,-.4,-.4,-.4c-.2,0,-.4,.2,-.4,.4c0,.2,.2,.3,.4,.3m1.5,0v0c.2,0,.4,-.1,.4,-.3c0,-.2,-.2,-.4,-.4,-.4c-.2,0,-.4,.2,-.4,.4c0,.2,.2,.3,.4,.3m1.5,0v0c.3,0,.4,-.1,.4,-.3c0,-.2,-.1,-.4,-.4,-.4c-.2,0,-.3,.2,-.3,.4c0,.2,.1,.3,.3,.3m1.6,0v0c.2,0,.4,-.1,.4,-.3c0,-.2,-.2,-.4,-.4,-.4c-.2,0,-.4,.2,-.4,.4c0,.2,.2,.3,.4,.3m1.5,0v0c.2,0,.4,-.1,.4,-.3c0,-.2,-.2,-.4,-.4,-.4c-.2,0,-.4,.2,-.4,.4c0,.2,.2,.3,.4,.3m1.5,0v0c.2,0,.4,-.1,.4,-.3c0,-.2,-.2,-.4,-.4,-.4c-.2,0,-.3,.2,-.3,.4c0,.2,.1,.3,.3,.3m1.6,0v0c.2,0,.3,-.1,.3,-.3c0,-.2,-.1,-.4,-.3,-.4c-.3,0,-.4,.2,-.4,.4c0,.2,.1,.3,.4,.3m1.5,0v0c.2,0,.4,-.1,.4,-.3c0,-.2,-.2,-.4,-.4,-.4c-.2,0,-.4,.2,-.4,.4c0,.2,.2,.3,.4,.3m1.5,0v0c.2,0,.4,-.1,.4,-.3c0,-.2,-.2,-.4,-.4,-.4c-.2,0,-.4,.2,-.4,.4c0,.2,.2,.3,.4,.3m1.5,0v0c.3,0,.4,-.1,.4,-.3c0,-.2,-.1,-.4,-.4,-.4c-.2,0,-.3,.2,-.3,.4c0,.2,.1,.3,.3,.3m1.6,0v0c.2,0,.4,-.1,.4,-.3c0,-.2,-.2,-.4,-.4,-.4c-.2,0,-.4,.2,-.4,.4c0,.2,.2,.3,.4,.3m1.5,0v0c.2,0,.4,-.1,.4,-.3c0,-.2,-.2,-.4,-.4,-.4c-.2,0,-.4,.2,-.4,.4c0,.2,.2,.3,.4,.3m1.5,0v0c.2,0,.4,-.1,.4,-.3c0,-.2,-.2,-.4,-.4,-.4c-.2,0,-.4,.2,-.4,.4c0,.2,.2,.3,.4,.3m1.6,0v0c.2,0,.3,-.1,.3,-.3c0,-.2,-.1,-.4,-.3,-.4c-.3,0,-.4,.2,-.4,.4c0,.2,.1,.3,.4,.3m1.5,0v0c.2,0,.4,-.1,.4,-.3c0,-.2,-.2,-.4,-.4,-.4c-.2,0,-.4,.2,-.4,.4c0,.2,.2,.3,.4,.3m1.5,0v0c.2,0,.4,-.1,.4,-.3c0,-.2,-.2,-.4,-.4,-.4c-.2,0,-.4,.2,-.4,.4c0,.2,.2,.3,.4,.3m1.5,0v0c.3,0,.4,-.1,.4,-.3c0,-.2,-.1,-.4,-.4,-.4c-.2,0,-.3,.2,-.3,.4c0,.2,.1,.3,.3,.3m1.6,0v0c.2,0,.4,-.1,.4,-.3c0,-.2,-.2,-.4,-.4,-.4c-.2,0,-.4,.2,-.4,.4c0,.2,.2,.3,.4,.3m1.5,0v0c.2,0,.4,-.1,.4,-.3c0,-.2,-.2,-.4,-.4,-.4c-.2,0,-.4,.2,-.4,.4c0,.2,.2,.3,.4,.3m1.5,0v0c.2,0,.4,-.1,.4,-.3c0,-.2,-.2,-.4,-.4,-.4c-.2,0,-.3,.2,-.3,.4c0,.2,.1,.3,.3,.3m1.6,0v0c.2,0,.3,-.1,.3,-.3c0,-.2,-.1,-.4,-.3,-.4c-.2,0,-.4,.2,-.4,.4c0,.2,.2,.3,.4,.3m1.5,0v0c.2,0,.4,-.1,.4,-.3c0,-.2,-.2,-.4,-.4,-.4c-.2,0,-.4,.2,-.4,.4c0,.2,.2,.3,.4,.3m1.5,0v0c.2,0,.4,-.1,.4,-.3c0,-.2,-.2,-.4,-.4,-.4c-.2,0,-.4,.2,-.4,.4c0,.2,.2,.3,.4,.3m1.5,0v0c.3,0,.4,-.1,.4,-.3c0,-.2,-.1,-.4,-.4,-.4c-.2,0,-.3,.2,-.3,.4c0,.2,.1,.3,.3,.3m1.6,0v0c.2,0,.4,-.1,.4,-.3c0,-.2,-.2,-.4,-.4,-.4c-.2,0,-.4,.2,-.4,.4c0,.2,.2,.3,.4,.3m1.5,0v0c.2,0,.4,-.1,.4,-.3c0,-.2,-.2,-.4,-.4,-.4c-.2,0,-.4,.2,-.4,.4c0,.2,.2,.3,.4,.3m1.5,0v0c.2,0,.4,-.1,.4,-.3c0,-.2,-.2,-.4,-.4,-.4c-.2,0,-.3,.2,-.3,.4c0,.2,.1,.3,.3,.3m1.6,0v0c.2,0,.3,-.1,.3,-.3c0,-.2,-.1,-.4,-.3,-.4c-.3,0,-.4,.2,-.4,.4c0,.2,.1,.3,.4,.3m1.5,0v0c.2,0,.4,-.1,.4,-.3c0,-.2,-.2,-.4,-.4,-.4c-.2,0,-.4,.2,-.4,.4c0,.2,.2,.3,.4,.3m1.5,0v0c.2,0,.4,-.1,.4,-.3c0,-.2,-.2,-.4,-.4,-.4c-.2,0,-.4,.2,-.4,.4c0,.2,.2,.3,.4,.3m1.5,0v0c.3,0,.4,-.1,.4,-.3c0,-.2,-.1,-.4,-.4,-.4c-.2,0,-.3,.2,-.3,.4c0,.2,.1,.3,.3,.3m1.6,0v0c.2,0,.4,-.1,.4,-.3c0,-.2,-.2,-.4,-.4,-.4c-.2,0,-.4,.2,-.4,.4c0,.2,.2,.3,.4,.3m1.5,0v0c.2,0,.4,-.1,.4,-.3c0,-.2,-.2,-.4,-.4,-.4c-.2,0,-.4,.2,-.4,.4c0,.2,.2,.3,.4,.3m1.5,0v0c.2,0,.4,-.1,.4,-.3c0,-.2,-.2,-.4,-.4,-.4c-.2,0,-.3,.2,-.3,.4c0,.2,.1,.3,.3,.3m1.6,0v0c.2,0,.3,-.1,.3,-.3c0,-.2,-.1,-.4,-.3,-.4c-.2,0,-.4,.2,-.4,.4c0,.2,.2,.3,.4,.3m1.5,0v0c.2,0,.4,-.1,.4,-.3c0,-.2,-.2,-.4,-.4,-.4c-.2,0,-.4,.2,-.4,.4c0,.2,.2,.3,.4,.3m1.5,0v0c.2,0,.4,-.1,.4,-.3c0,-.2,-.2,-.4,-.4,-.4c-.2,0,-.4,.2,-.4,.4c0,.2,.2,.3,.4,.3m1.5,0v0c.3,0,.4,-.1,.4,-.3c0,-.2,-.1,-.4,-.4,-.4c-.2,0,-.3,.2,-.3,.4c0,.2,.1,.3,.3,.3m1.6,0v0c.2,0,.4,-.1,.4,-.3c0,-.2,-.2,-.4,-.4,-.4c-.2,0,-.4,.2,-.4,.4c0,.2,.2,.3,.4,.3m1.5,0v0c.2,0,.4,-.1,.4,-.3c0,-.2,-.2,-.4,-.4,-.4c-.2,0,-.4,.2,-.4,.4c0,.2,.2,.3,.4,.3m1.5,0v0c.2,0,.4,-.1,.4,-.3c0,-.2,-.2,-.4,-.4,-.4c-.2,0,-.3,.2,-.3,.4c0,.2,.1,.3,.3,.3m1.6,0v0c.2,0,.3,-.1,.3,-.3c0,-.2,-.1,-.4,-.3,-.4c-.2,0,-.4,.2,-.4,.4c0,.2,.2,.3,.4,.3m1.5,0v0c.2,0,.4,-.1,.4,-.3c0,-.2,-.2,-.4,-.4,-.4c-.2,0,-.4,.2,-.4,.4c0,.2,.2,.3,.4,.3m1.5,0v0c.2,0,.4,-.1,.4,-.3c0,-.2,-.2,-.4,-.4,-.4c-.2,0,-.4,.2,-.4,.4c0,.2,.2,.3,.4,.3m1.5,0v0c.3,0,.4,-.1,.4,-.3c0,-.2,-.1,-.4,-.4,-.4c-.2,0,-.3,.2,-.3,.4c0,.2,.1,.3,.3,.3m1.6,0v0c.2,0,.4,-.1,.4,-.3c0,-.2,-.2,-.4,-.4,-.4c-.2,0,-.4,.2,-.4,.4c0,.2,.2,.3,.4,.3m1.5,0v0c.2,0,.4,-.1,.4,-.3c0,-.2,-.2,-.4,-.4,-.4c-.2,0,-.4,.2,-.4,.4c0,.2,.2,.3,.4,.3m1.5,0v0c.2,0,.4,-.1,.4,-.3c0,-.2,-.2,-.4,-.4,-.4c-.2,0,-.3,.2,-.3,.4c0,.2,.1,.3,.3,.3m1.6,0v0c.2,0,.3,-.1,.3,-.3c0,-.2,-.1,-.4,-.3,-.4c-.2,0,-.4,.2,-.4,.4c0,.2,.2,.3,.4,.3m1.5,0v0c.2,0,.4,-.1,.4,-.3c0,-.2,-.2,-.4,-.4,-.4c-.2,0,-.4,.2,-.4,.4c0,.2,.2,.3,.4,.3m1.5,0v0c.2,0,.4,-.1,.4,-.3c0,-.2,-.2,-.4,-.4,-.4c-.2,0,-.4,.2,-.4,.4c0,.2,.2,.3,.4,.3m1.5,0v0c.3,0,.4,-.1,.4,-.3c0,-.2,-.1,-.4,-.4,-.4c-.2,0,-.3,.2,-.3,.4c0,.2,.1,.3,.3,.3m1.6,0v0c.2,0,.4,-.1,.4,-.3c0,-.2,-.2,-.4,-.4,-.4c-.2,0,-.4,.2,-.4,.4c0,.2,.2,.3,.4,.3m1.5,0v0c.2,0,.4,-.1,.4,-.3c0,-.2,-.2,-.4,-.4,-.4c-.2,0,-.4,.2,-.4,.4c0,.2,.2,.3,.4,.3m1.5,0v0c.2,0,.4,-.1,.4,-.3c0,-.2,-.2,-.4,-.4,-.4c-.2,0,-.3,.2,-.3,.4c0,.2,.1,.3,.3,.3m1.6,0v0c.2,0,.3,-.1,.3,-.3c0,-.2,-.1,-.4,-.3,-.4c-.2,0,-.4,.2,-.4,.4c0,.2,.2,.3,.4,.3Z" class="g6_24"/>
<path d="M39.4,787.1l.2,-.1l.1,-.2l-.1,-.3l-.2,-.1l-.3,.1l-.1,.3l.1,.2Zm215.5,0l.3,-.1l.1,-.2l-.1,-.3l-.3,-.1l-.3,.1l-.1,.3l.1,.2Z" class="g6_24"/>
<path d="M256.4,787.1v0c.2,0,.4,-.1,.4,-.3c0,-.2,-.2,-.4,-.4,-.4c-.2,0,-.4,.2,-.4,.4c0,.2,.2,.3,.4,.3m1.5,0v0c.2,0,.4,-.1,.4,-.3c0,-.2,-.2,-.4,-.4,-.4c-.2,0,-.4,.2,-.4,.4c0,.2,.2,.3,.4,.3m1.5,0v0c.2,0,.4,-.1,.4,-.3c0,-.2,-.2,-.4,-.4,-.4c-.2,0,-.4,.2,-.4,.4c0,.2,.2,.3,.4,.3m1.5,0v0c.2,0,.4,-.1,.4,-.3c0,-.2,-.2,-.4,-.4,-.4c-.2,0,-.4,.2,-.4,.4c0,.2,.2,.3,.4,.3m1.5,0v0c.3,0,.4,-.1,.4,-.3c0,-.2,-.1,-.4,-.4,-.4c-.2,0,-.3,.2,-.3,.4c0,.2,.1,.3,.3,.3m1.6,0v0c.2,0,.3,-.1,.3,-.3c0,-.2,-.1,-.4,-.3,-.4c-.3,0,-.4,.2,-.4,.4c0,.2,.1,.3,.4,.3m1.5,0v0c.2,0,.3,-.1,.3,-.3c0,-.2,-.1,-.4,-.3,-.4c-.2,0,-.4,.2,-.4,.4c0,.2,.2,.3,.4,.3m1.5,0v0c.2,0,.4,-.1,.4,-.3c0,-.2,-.2,-.4,-.4,-.4c-.2,0,-.4,.2,-.4,.4c0,.2,.2,.3,.4,.3m1.5,0v0c.2,0,.4,-.1,.4,-.3c0,-.2,-.2,-.4,-.4,-.4c-.2,0,-.4,.2,-.4,.4c0,.2,.2,.3,.4,.3m1.5,0v0c.2,0,.4,-.1,.4,-.3c0,-.2,-.2,-.4,-.4,-.4c-.2,0,-.4,.2,-.4,.4c0,.2,.2,.3,.4,.3m1.5,0v0c.2,0,.4,-.1,.4,-.3c0,-.2,-.2,-.4,-.4,-.4c-.2,0,-.4,.2,-.4,.4c0,.2,.2,.3,.4,.3m1.5,0v0c.2,0,.4,-.1,.4,-.3c0,-.2,-.2,-.4,-.4,-.4c-.2,0,-.4,.2,-.4,.4c0,.2,.2,.3,.4,.3m1.5,0v0c.2,0,.4,-.1,.4,-.3c0,-.2,-.2,-.4,-.4,-.4c-.2,0,-.4,.2,-.4,.4c0,.2,.2,.3,.4,.3m1.5,0v0c.2,0,.4,-.1,.4,-.3c0,-.2,-.2,-.4,-.4,-.4c-.2,0,-.3,.2,-.3,.4c0,.2,.1,.3,.3,.3m1.5,0v0c.3,0,.4,-.1,.4,-.3c0,-.2,-.1,-.4,-.4,-.4c-.2,0,-.3,.2,-.3,.4c0,.2,.1,.3,.3,.3m1.6,0v0c.2,0,.3,-.1,.3,-.3c0,-.2,-.1,-.4,-.3,-.4c-.3,0,-.4,.2,-.4,.4c0,.2,.1,.3,.4,.3m1.5,0v0c.2,0,.3,-.1,.3,-.3c0,-.2,-.1,-.4,-.3,-.4c-.2,0,-.4,.2,-.4,.4c0,.2,.2,.3,.4,.3m1.5,0v0c.2,0,.4,-.1,.4,-.3c0,-.2,-.2,-.4,-.4,-.4c-.2,0,-.4,.2,-.4,.4c0,.2,.2,.3,.4,.3m1.5,0v0c.2,0,.4,-.1,.4,-.3c0,-.2,-.2,-.4,-.4,-.4c-.2,0,-.4,.2,-.4,.4c0,.2,.2,.3,.4,.3m1.5,0v0c.2,0,.4,-.1,.4,-.3c0,-.2,-.2,-.4,-.4,-.4c-.2,0,-.4,.2,-.4,.4c0,.2,.2,.3,.4,.3m1.5,0v0c.2,0,.4,-.1,.4,-.3c0,-.2,-.2,-.4,-.4,-.4c-.2,0,-.4,.2,-.4,.4c0,.2,.2,.3,.4,.3m1.5,0v0c.2,0,.4,-.1,.4,-.3c0,-.2,-.2,-.4,-.4,-.4c-.2,0,-.4,.2,-.4,.4c0,.2,.2,.3,.4,.3m1.5,0v0c.2,0,.4,-.1,.4,-.3c0,-.2,-.2,-.4,-.4,-.4c-.2,0,-.4,.2,-.4,.4c0,.2,.2,.3,.4,.3m1.5,0v0c.2,0,.4,-.1,.4,-.3c0,-.2,-.2,-.4,-.4,-.4c-.2,0,-.3,.2,-.3,.4c0,.2,.1,.3,.3,.3m1.5,0v0c.3,0,.4,-.1,.4,-.3c0,-.2,-.1,-.4,-.4,-.4c-.2,0,-.3,.2,-.3,.4c0,.2,.1,.3,.3,.3m1.6,0v0c.2,0,.3,-.1,.3,-.3c0,-.2,-.1,-.4,-.3,-.4c-.3,0,-.4,.2,-.4,.4c0,.2,.1,.3,.4,.3m1.5,0v0c.2,0,.3,-.1,.3,-.3c0,-.2,-.1,-.4,-.3,-.4c-.2,0,-.4,.2,-.4,.4c0,.2,.2,.3,.4,.3m1.5,0v0c.2,0,.4,-.1,.4,-.3c0,-.2,-.2,-.4,-.4,-.4c-.2,0,-.4,.2,-.4,.4c0,.2,.2,.3,.4,.3m1.5,0v0c.2,0,.4,-.1,.4,-.3c0,-.2,-.2,-.4,-.4,-.4c-.2,0,-.4,.2,-.4,.4c0,.2,.2,.3,.4,.3m1.5,0v0c.2,0,.4,-.1,.4,-.3c0,-.2,-.2,-.4,-.4,-.4c-.2,0,-.4,.2,-.4,.4c0,.2,.2,.3,.4,.3m1.5,0v0c.2,0,.4,-.1,.4,-.3c0,-.2,-.2,-.4,-.4,-.4c-.2,0,-.4,.2,-.4,.4c0,.2,.2,.3,.4,.3m1.5,0v0c.2,0,.4,-.1,.4,-.3c0,-.2,-.2,-.4,-.4,-.4c-.2,0,-.4,.2,-.4,.4c0,.2,.2,.3,.4,.3m1.5,0v0c.2,0,.4,-.1,.4,-.3c0,-.2,-.2,-.4,-.4,-.4c-.2,0,-.4,.2,-.4,.4c0,.2,.2,.3,.4,.3m1.5,0v0c.2,0,.4,-.1,.4,-.3c0,-.2,-.2,-.4,-.4,-.4c-.2,0,-.3,.2,-.3,.4c0,.2,.1,.3,.3,.3Z" class="g6_24"/>
<path d="M254.9,787.1l.3,-.1l.1,-.2l-.1,-.3l-.3,-.1l-.3,.1l-.1,.3l.1,.2Zm52.8,0l.3,-.1l.1,-.2l-.1,-.3l-.3,-.1l-.2,.1l-.1,.3l.1,.2Z" class="g6_24"/>
<path d="M39,752.4H254.9v-2.3H39Z" class="g6_24"/>
<path d="M254.9,752.4h53.2v-2.3H254.9Z" class="g6_24"/>
<path d="M40.9,822.7v0c.2,0,.4,-.2,.4,-.4c0,-.2,-.2,-.4,-.4,-.4c-.2,0,-.4,.2,-.4,.4c0,.2,.2,.4,.4,.4m1.5,0v0c.2,0,.4,-.2,.4,-.4c0,-.2,-.2,-.4,-.4,-.4c-.2,0,-.4,.2,-.4,.4c0,.2,.2,.4,.4,.4m1.5,0v0c.3,0,.4,-.2,.4,-.4c0,-.2,-.1,-.4,-.4,-.4c-.2,0,-.3,.2,-.3,.4c0,.2,.1,.4,.3,.4m1.6,0v0c.2,0,.4,-.2,.4,-.4c0,-.2,-.2,-.4,-.4,-.4c-.2,0,-.4,.2,-.4,.4c0,.2,.2,.4,.4,.4m1.5,0v0c.2,0,.4,-.2,.4,-.4c0,-.2,-.2,-.4,-.4,-.4c-.2,0,-.4,.2,-.4,.4c0,.2,.2,.4,.4,.4m1.5,0v0c.2,0,.4,-.2,.4,-.4c0,-.2,-.2,-.4,-.4,-.4c-.2,0,-.4,.2,-.4,.4c0,.2,.2,.4,.4,.4m1.6,0v0c.2,0,.3,-.2,.3,-.4c0,-.2,-.1,-.4,-.3,-.4c-.3,0,-.4,.2,-.4,.4c0,.2,.1,.4,.4,.4m1.5,0v0c.2,0,.4,-.2,.4,-.4c0,-.2,-.2,-.4,-.4,-.4c-.2,0,-.4,.2,-.4,.4c0,.2,.2,.4,.4,.4m1.5,0v0c.2,0,.4,-.2,.4,-.4c0,-.2,-.2,-.4,-.4,-.4c-.2,0,-.4,.2,-.4,.4c0,.2,.2,.4,.4,.4m1.5,0v0c.3,0,.4,-.2,.4,-.4c0,-.2,-.1,-.4,-.4,-.4c-.2,0,-.3,.2,-.3,.4c0,.2,.1,.4,.3,.4m1.6,0v0c.2,0,.4,-.2,.4,-.4c0,-.2,-.2,-.4,-.4,-.4c-.2,0,-.4,.2,-.4,.4c0,.2,.2,.4,.4,.4m1.5,0v0c.2,0,.4,-.2,.4,-.4c0,-.2,-.2,-.4,-.4,-.4c-.2,0,-.4,.2,-.4,.4c0,.2,.2,.4,.4,.4m1.5,0v0c.2,0,.4,-.2,.4,-.4c0,-.2,-.2,-.4,-.4,-.4c-.2,0,-.4,.2,-.4,.4c0,.2,.2,.4,.4,.4m1.6,0v0c.2,0,.3,-.2,.3,-.4c0,-.2,-.1,-.4,-.3,-.4c-.3,0,-.4,.2,-.4,.4c0,.2,.1,.4,.4,.4m1.5,0v0c.2,0,.4,-.2,.4,-.4c0,-.2,-.2,-.4,-.4,-.4c-.2,0,-.4,.2,-.4,.4c0,.2,.2,.4,.4,.4m1.5,0v0c.2,0,.4,-.2,.4,-.4c0,-.2,-.2,-.4,-.4,-.4c-.2,0,-.4,.2,-.4,.4c0,.2,.2,.4,.4,.4m1.5,0v0c.3,0,.4,-.2,.4,-.4c0,-.2,-.1,-.4,-.4,-.4c-.2,0,-.3,.2,-.3,.4c0,.2,.1,.4,.3,.4m1.6,0v0c.2,0,.4,-.2,.4,-.4c0,-.2,-.2,-.4,-.4,-.4c-.2,0,-.4,.2,-.4,.4c0,.2,.2,.4,.4,.4m1.5,0v0c.2,0,.4,-.2,.4,-.4c0,-.2,-.2,-.4,-.4,-.4c-.2,0,-.4,.2,-.4,.4c0,.2,.2,.4,.4,.4m1.5,0v0c.2,0,.4,-.2,.4,-.4c0,-.2,-.2,-.4,-.4,-.4c-.2,0,-.4,.2,-.4,.4c0,.2,.2,.4,.4,.4m1.6,0v0c.2,0,.3,-.2,.3,-.4c0,-.2,-.1,-.4,-.3,-.4c-.3,0,-.4,.2,-.4,.4c0,.2,.1,.4,.4,.4m1.5,0v0c.2,0,.4,-.2,.4,-.4c0,-.2,-.2,-.4,-.4,-.4c-.2,0,-.4,.2,-.4,.4c0,.2,.2,.4,.4,.4m1.5,0v0c.2,0,.4,-.2,.4,-.4c0,-.2,-.2,-.4,-.4,-.4c-.2,0,-.4,.2,-.4,.4c0,.2,.2,.4,.4,.4m1.5,0v0c.3,0,.4,-.2,.4,-.4c0,-.2,-.1,-.4,-.4,-.4c-.2,0,-.3,.2,-.3,.4c0,.2,.1,.4,.3,.4m1.6,0v0c.2,0,.4,-.2,.4,-.4c0,-.2,-.2,-.4,-.4,-.4c-.2,0,-.4,.2,-.4,.4c0,.2,.2,.4,.4,.4m1.5,0v0c.2,0,.4,-.2,.4,-.4c0,-.2,-.2,-.4,-.4,-.4c-.2,0,-.4,.2,-.4,.4c0,.2,.2,.4,.4,.4m1.5,0v0c.2,0,.4,-.2,.4,-.4c0,-.2,-.2,-.4,-.4,-.4c-.2,0,-.4,.2,-.4,.4c0,.2,.2,.4,.4,.4m1.6,0v0c.2,0,.3,-.2,.3,-.4c0,-.2,-.1,-.4,-.3,-.4c-.3,0,-.4,.2,-.4,.4c0,.2,.1,.4,.4,.4m1.5,0v0c.2,0,.4,-.2,.4,-.4c0,-.2,-.2,-.4,-.4,-.4c-.2,0,-.4,.2,-.4,.4c0,.2,.2,.4,.4,.4m1.5,0v0c.2,0,.4,-.2,.4,-.4c0,-.2,-.2,-.4,-.4,-.4c-.2,0,-.4,.2,-.4,.4c0,.2,.2,.4,.4,.4m1.5,0v0c.3,0,.4,-.2,.4,-.4c0,-.2,-.1,-.4,-.4,-.4c-.2,0,-.3,.2,-.3,.4c0,.2,.1,.4,.3,.4m1.6,0v0c.2,0,.4,-.2,.4,-.4c0,-.2,-.2,-.4,-.4,-.4c-.2,0,-.4,.2,-.4,.4c0,.2,.2,.4,.4,.4m1.5,0v0c.2,0,.4,-.2,.4,-.4c0,-.2,-.2,-.4,-.4,-.4c-.2,0,-.4,.2,-.4,.4c0,.2,.2,.4,.4,.4m1.5,0v0c.2,0,.4,-.2,.4,-.4c0,-.2,-.2,-.4,-.4,-.4c-.2,0,-.4,.2,-.4,.4c0,.2,.2,.4,.4,.4m1.6,0v0c.2,0,.3,-.2,.3,-.4c0,-.2,-.1,-.4,-.3,-.4c-.3,0,-.4,.2,-.4,.4c0,.2,.1,.4,.4,.4m1.5,0v0c.2,0,.4,-.2,.4,-.4c0,-.2,-.2,-.4,-.4,-.4c-.2,0,-.4,.2,-.4,.4c0,.2,.2,.4,.4,.4m1.5,0v0c.2,0,.4,-.2,.4,-.4c0,-.2,-.2,-.4,-.4,-.4c-.2,0,-.4,.2,-.4,.4c0,.2,.2,.4,.4,.4m1.5,0v0c.3,0,.4,-.2,.4,-.4c0,-.2,-.1,-.4,-.4,-.4c-.2,0,-.3,.2,-.3,.4c0,.2,.1,.4,.3,.4m1.6,0v0c.2,0,.4,-.2,.4,-.4c0,-.2,-.2,-.4,-.4,-.4c-.2,0,-.4,.2,-.4,.4c0,.2,.2,.4,.4,.4m1.5,0v0c.2,0,.4,-.2,.4,-.4c0,-.2,-.2,-.4,-.4,-.4c-.2,0,-.4,.2,-.4,.4c0,.2,.2,.4,.4,.4m1.5,0v0c.2,0,.4,-.2,.4,-.4c0,-.2,-.2,-.4,-.4,-.4c-.2,0,-.4,.2,-.4,.4c0,.2,.2,.4,.4,.4m1.6,0v0c.2,0,.3,-.2,.3,-.4c0,-.2,-.1,-.4,-.3,-.4c-.3,0,-.4,.2,-.4,.4c0,.2,.1,.4,.4,.4m1.5,0v0c.2,0,.4,-.2,.4,-.4c0,-.2,-.2,-.4,-.4,-.4c-.2,0,-.4,.2,-.4,.4c0,.2,.2,.4,.4,.4m1.5,0v0c.2,0,.4,-.2,.4,-.4c0,-.2,-.2,-.4,-.4,-.4c-.2,0,-.4,.2,-.4,.4c0,.2,.2,.4,.4,.4m1.5,0v0c.3,0,.4,-.2,.4,-.4c0,-.2,-.1,-.4,-.4,-.4c-.2,0,-.3,.2,-.3,.4c0,.2,.1,.4,.3,.4m1.6,0v0c.2,0,.4,-.2,.4,-.4c0,-.2,-.2,-.4,-.4,-.4c-.2,0,-.4,.2,-.4,.4c0,.2,.2,.4,.4,.4m1.5,0v0c.2,0,.4,-.2,.4,-.4c0,-.2,-.2,-.4,-.4,-.4c-.2,0,-.4,.2,-.4,.4c0,.2,.2,.4,.4,.4m1.5,0v0c.2,0,.4,-.2,.4,-.4c0,-.2,-.2,-.4,-.4,-.4c-.2,0,-.4,.2,-.4,.4c0,.2,.2,.4,.4,.4m1.6,0v0c.2,0,.3,-.2,.3,-.4c0,-.2,-.1,-.4,-.3,-.4c-.3,0,-.4,.2,-.4,.4c0,.2,.1,.4,.4,.4m1.5,0v0c.2,0,.4,-.2,.4,-.4c0,-.2,-.2,-.4,-.4,-.4c-.2,0,-.4,.2,-.4,.4c0,.2,.2,.4,.4,.4m1.5,0v0c.2,0,.4,-.2,.4,-.4c0,-.2,-.2,-.4,-.4,-.4c-.2,0,-.4,.2,-.4,.4c0,.2,.2,.4,.4,.4m1.5,0v0c.3,0,.4,-.2,.4,-.4c0,-.2,-.1,-.4,-.4,-.4c-.2,0,-.3,.2,-.3,.4c0,.2,.1,.4,.3,.4m1.6,0v0c.2,0,.4,-.2,.4,-.4c0,-.2,-.2,-.4,-.4,-.4c-.2,0,-.4,.2,-.4,.4c0,.2,.2,.4,.4,.4m1.5,0v0c.2,0,.4,-.2,.4,-.4c0,-.2,-.2,-.4,-.4,-.4c-.2,0,-.4,.2,-.4,.4c0,.2,.2,.4,.4,.4m1.5,0v0c.2,0,.4,-.2,.4,-.4c0,-.2,-.2,-.4,-.4,-.4c-.2,0,-.4,.2,-.4,.4c0,.2,.2,.4,.4,.4m1.6,0v0c.2,0,.3,-.2,.3,-.4c0,-.2,-.1,-.4,-.3,-.4c-.3,0,-.4,.2,-.4,.4c0,.2,.1,.4,.4,.4m1.5,0v0c.2,0,.4,-.2,.4,-.4c0,-.2,-.2,-.4,-.4,-.4c-.2,0,-.4,.2,-.4,.4c0,.2,.2,.4,.4,.4m1.5,0v0c.2,0,.4,-.2,.4,-.4c0,-.2,-.2,-.4,-.4,-.4c-.2,0,-.4,.2,-.4,.4c0,.2,.2,.4,.4,.4m1.5,0v0c.3,0,.4,-.2,.4,-.4c0,-.2,-.1,-.4,-.4,-.4c-.2,0,-.3,.2,-.3,.4c0,.2,.1,.4,.3,.4m1.6,0v0c.2,0,.4,-.2,.4,-.4c0,-.2,-.2,-.4,-.4,-.4c-.2,0,-.4,.2,-.4,.4c0,.2,.2,.4,.4,.4m1.5,0v0c.2,0,.4,-.2,.4,-.4c0,-.2,-.2,-.4,-.4,-.4c-.2,0,-.4,.2,-.4,.4c0,.2,.2,.4,.4,.4m1.5,0v0c.2,0,.4,-.2,.4,-.4c0,-.2,-.2,-.4,-.4,-.4c-.2,0,-.4,.2,-.4,.4c0,.2,.2,.4,.4,.4m1.6,0v0c.2,0,.3,-.2,.3,-.4c0,-.2,-.1,-.4,-.3,-.4c-.3,0,-.4,.2,-.4,.4c0,.2,.1,.4,.4,.4m1.5,0v0c.2,0,.4,-.2,.4,-.4c0,-.2,-.2,-.4,-.4,-.4c-.2,0,-.4,.2,-.4,.4c0,.2,.2,.4,.4,.4m1.5,0v0c.2,0,.4,-.2,.4,-.4c0,-.2,-.2,-.4,-.4,-.4c-.2,0,-.4,.2,-.4,.4c0,.2,.2,.4,.4,.4m1.5,0v0c.3,0,.4,-.2,.4,-.4c0,-.2,-.1,-.4,-.4,-.4c-.2,0,-.3,.2,-.3,.4c0,.2,.1,.4,.3,.4m1.6,0v0c.2,0,.4,-.2,.4,-.4c0,-.2,-.2,-.4,-.4,-.4c-.2,0,-.4,.2,-.4,.4c0,.2,.2,.4,.4,.4m1.5,0v0c.2,0,.4,-.2,.4,-.4c0,-.2,-.2,-.4,-.4,-.4c-.2,0,-.4,.2,-.4,.4c0,.2,.2,.4,.4,.4m1.5,0v0c.2,0,.4,-.2,.4,-.4c0,-.2,-.2,-.4,-.4,-.4c-.2,0,-.3,.2,-.3,.4c0,.2,.1,.4,.3,.4m1.6,0v0c.2,0,.3,-.2,.3,-.4c0,-.2,-.1,-.4,-.3,-.4c-.3,0,-.4,.2,-.4,.4c0,.2,.1,.4,.4,.4m1.5,0v0c.2,0,.4,-.2,.4,-.4c0,-.2,-.2,-.4,-.4,-.4c-.2,0,-.4,.2,-.4,.4c0,.2,.2,.4,.4,.4m1.5,0v0c.2,0,.4,-.2,.4,-.4c0,-.2,-.2,-.4,-.4,-.4c-.2,0,-.4,.2,-.4,.4c0,.2,.2,.4,.4,.4m1.5,0v0c.3,0,.4,-.2,.4,-.4c0,-.2,-.1,-.4,-.4,-.4c-.2,0,-.3,.2,-.3,.4c0,.2,.1,.4,.3,.4m1.6,0v0c.2,0,.4,-.2,.4,-.4c0,-.2,-.2,-.4,-.4,-.4c-.2,0,-.4,.2,-.4,.4c0,.2,.2,.4,.4,.4m1.5,0v0c.2,0,.4,-.2,.4,-.4c0,-.2,-.2,-.4,-.4,-.4c-.2,0,-.4,.2,-.4,.4c0,.2,.2,.4,.4,.4m1.5,0v0c.2,0,.4,-.2,.4,-.4c0,-.2,-.2,-.4,-.4,-.4c-.2,0,-.4,.2,-.4,.4c0,.2,.2,.4,.4,.4m1.6,0v0c.2,0,.3,-.2,.3,-.4c0,-.2,-.1,-.4,-.3,-.4c-.3,0,-.4,.2,-.4,.4c0,.2,.1,.4,.4,.4m1.5,0v0c.2,0,.4,-.2,.4,-.4c0,-.2,-.2,-.4,-.4,-.4c-.2,0,-.4,.2,-.4,.4c0,.2,.2,.4,.4,.4m1.5,0v0c.2,0,.4,-.2,.4,-.4c0,-.2,-.2,-.4,-.4,-.4c-.2,0,-.4,.2,-.4,.4c0,.2,.2,.4,.4,.4m1.5,0v0c.3,0,.4,-.2,.4,-.4c0,-.2,-.1,-.4,-.4,-.4c-.2,0,-.3,.2,-.3,.4c0,.2,.1,.4,.3,.4m1.6,0v0c.2,0,.4,-.2,.4,-.4c0,-.2,-.2,-.4,-.4,-.4c-.2,0,-.4,.2,-.4,.4c0,.2,.2,.4,.4,.4m1.5,0v0c.2,0,.4,-.2,.4,-.4c0,-.2,-.2,-.4,-.4,-.4c-.2,0,-.4,.2,-.4,.4c0,.2,.2,.4,.4,.4m1.5,0v0c.2,0,.4,-.2,.4,-.4c0,-.2,-.2,-.4,-.4,-.4c-.2,0,-.4,.2,-.4,.4c0,.2,.2,.4,.4,.4m1.6,0v0c.2,0,.3,-.2,.3,-.4c0,-.2,-.1,-.4,-.3,-.4c-.3,0,-.4,.2,-.4,.4c0,.2,.1,.4,.4,.4m1.5,0v0c.2,0,.4,-.2,.4,-.4c0,-.2,-.2,-.4,-.4,-.4c-.2,0,-.4,.2,-.4,.4c0,.2,.2,.4,.4,.4m1.5,0v0c.2,0,.4,-.2,.4,-.4c0,-.2,-.2,-.4,-.4,-.4c-.2,0,-.4,.2,-.4,.4c0,.2,.2,.4,.4,.4m1.5,0v0c.3,0,.4,-.2,.4,-.4c0,-.2,-.1,-.4,-.4,-.4c-.2,0,-.3,.2,-.3,.4c0,.2,.1,.4,.3,.4m1.6,0v0c.2,0,.4,-.2,.4,-.4c0,-.2,-.2,-.4,-.4,-.4c-.2,0,-.4,.2,-.4,.4c0,.2,.2,.4,.4,.4m1.5,0v0c.2,0,.4,-.2,.4,-.4c0,-.2,-.2,-.4,-.4,-.4c-.2,0,-.4,.2,-.4,.4c0,.2,.2,.4,.4,.4m1.5,0v0c.2,0,.4,-.2,.4,-.4c0,-.2,-.2,-.4,-.4,-.4c-.2,0,-.3,.2,-.3,.4c0,.2,.1,.4,.3,.4m1.6,0v0c.2,0,.3,-.2,.3,-.4c0,-.2,-.1,-.4,-.3,-.4c-.3,0,-.4,.2,-.4,.4c0,.2,.1,.4,.4,.4m1.5,0v0c.2,0,.4,-.2,.4,-.4c0,-.2,-.2,-.4,-.4,-.4c-.2,0,-.4,.2,-.4,.4c0,.2,.2,.4,.4,.4m1.5,0v0c.2,0,.4,-.2,.4,-.4c0,-.2,-.2,-.4,-.4,-.4c-.2,0,-.4,.2,-.4,.4c0,.2,.2,.4,.4,.4m1.5,0v0c.3,0,.4,-.2,.4,-.4c0,-.2,-.1,-.4,-.4,-.4c-.2,0,-.3,.2,-.3,.4c0,.2,.1,.4,.3,.4m1.6,0v0c.2,0,.4,-.2,.4,-.4c0,-.2,-.2,-.4,-.4,-.4c-.2,0,-.4,.2,-.4,.4c0,.2,.2,.4,.4,.4m1.5,0v0c.2,0,.4,-.2,.4,-.4c0,-.2,-.2,-.4,-.4,-.4c-.2,0,-.4,.2,-.4,.4c0,.2,.2,.4,.4,.4m1.5,0v0c.2,0,.4,-.2,.4,-.4c0,-.2,-.2,-.4,-.4,-.4c-.2,0,-.4,.2,-.4,.4c0,.2,.2,.4,.4,.4m1.6,0v0c.2,0,.3,-.2,.3,-.4c0,-.2,-.1,-.4,-.3,-.4c-.3,0,-.4,.2,-.4,.4c0,.2,.1,.4,.4,.4m1.5,0v0c.2,0,.4,-.2,.4,-.4c0,-.2,-.2,-.4,-.4,-.4c-.2,0,-.4,.2,-.4,.4c0,.2,.2,.4,.4,.4m1.5,0v0c.2,0,.4,-.2,.4,-.4c0,-.2,-.2,-.4,-.4,-.4c-.2,0,-.4,.2,-.4,.4c0,.2,.2,.4,.4,.4m1.5,0v0c.3,0,.4,-.2,.4,-.4c0,-.2,-.1,-.4,-.4,-.4c-.2,0,-.3,.2,-.3,.4c0,.2,.1,.4,.3,.4m1.6,0v0c.2,0,.4,-.2,.4,-.4c0,-.2,-.2,-.4,-.4,-.4c-.2,0,-.4,.2,-.4,.4c0,.2,.2,.4,.4,.4m1.5,0v0c.2,0,.4,-.2,.4,-.4c0,-.2,-.2,-.4,-.4,-.4c-.2,0,-.4,.2,-.4,.4c0,.2,.2,.4,.4,.4m1.5,0v0c.2,0,.4,-.2,.4,-.4c0,-.2,-.2,-.4,-.4,-.4c-.2,0,-.3,.2,-.3,.4c0,.2,.1,.4,.3,.4m1.6,0v0c.2,0,.3,-.2,.3,-.4c0,-.2,-.1,-.4,-.3,-.4c-.2,0,-.4,.2,-.4,.4c0,.2,.2,.4,.4,.4m1.5,0v0c.2,0,.4,-.2,.4,-.4c0,-.2,-.2,-.4,-.4,-.4c-.2,0,-.4,.2,-.4,.4c0,.2,.2,.4,.4,.4m1.5,0v0c.2,0,.4,-.2,.4,-.4c0,-.2,-.2,-.4,-.4,-.4c-.2,0,-.4,.2,-.4,.4c0,.2,.2,.4,.4,.4m1.5,0v0c.3,0,.4,-.2,.4,-.4c0,-.2,-.1,-.4,-.4,-.4c-.2,0,-.3,.2,-.3,.4c0,.2,.1,.4,.3,.4m1.6,0v0c.2,0,.4,-.2,.4,-.4c0,-.2,-.2,-.4,-.4,-.4c-.2,0,-.4,.2,-.4,.4c0,.2,.2,.4,.4,.4m1.5,0v0c.2,0,.4,-.2,.4,-.4c0,-.2,-.2,-.4,-.4,-.4c-.2,0,-.4,.2,-.4,.4c0,.2,.2,.4,.4,.4m1.5,0v0c.2,0,.4,-.2,.4,-.4c0,-.2,-.2,-.4,-.4,-.4c-.2,0,-.3,.2,-.3,.4c0,.2,.1,.4,.3,.4m1.6,0v0c.2,0,.3,-.2,.3,-.4c0,-.2,-.1,-.4,-.3,-.4c-.3,0,-.4,.2,-.4,.4c0,.2,.1,.4,.4,.4m1.5,0v0c.2,0,.4,-.2,.4,-.4c0,-.2,-.2,-.4,-.4,-.4c-.2,0,-.4,.2,-.4,.4c0,.2,.2,.4,.4,.4m1.5,0v0c.2,0,.4,-.2,.4,-.4c0,-.2,-.2,-.4,-.4,-.4c-.2,0,-.4,.2,-.4,.4c0,.2,.2,.4,.4,.4m1.5,0v0c.3,0,.4,-.2,.4,-.4c0,-.2,-.1,-.4,-.4,-.4c-.2,0,-.3,.2,-.3,.4c0,.2,.1,.4,.3,.4m1.6,0v0c.2,0,.4,-.2,.4,-.4c0,-.2,-.2,-.4,-.4,-.4c-.2,0,-.4,.2,-.4,.4c0,.2,.2,.4,.4,.4m1.5,0v0c.2,0,.4,-.2,.4,-.4c0,-.2,-.2,-.4,-.4,-.4c-.2,0,-.4,.2,-.4,.4c0,.2,.2,.4,.4,.4m1.5,0v0c.2,0,.4,-.2,.4,-.4c0,-.2,-.2,-.4,-.4,-.4c-.2,0,-.3,.2,-.3,.4c0,.2,.1,.4,.3,.4m1.6,0v0c.2,0,.3,-.2,.3,-.4c0,-.2,-.1,-.4,-.3,-.4c-.2,0,-.4,.2,-.4,.4c0,.2,.2,.4,.4,.4m1.5,0v0c.2,0,.4,-.2,.4,-.4c0,-.2,-.2,-.4,-.4,-.4c-.2,0,-.4,.2,-.4,.4c0,.2,.2,.4,.4,.4m1.5,0v0c.2,0,.4,-.2,.4,-.4c0,-.2,-.2,-.4,-.4,-.4c-.2,0,-.4,.2,-.4,.4c0,.2,.2,.4,.4,.4m1.5,0v0c.3,0,.4,-.2,.4,-.4c0,-.2,-.1,-.4,-.4,-.4c-.2,0,-.3,.2,-.3,.4c0,.2,.1,.4,.3,.4m1.6,0v0c.2,0,.4,-.2,.4,-.4c0,-.2,-.2,-.4,-.4,-.4c-.2,0,-.4,.2,-.4,.4c0,.2,.2,.4,.4,.4m1.5,0v0c.2,0,.4,-.2,.4,-.4c0,-.2,-.2,-.4,-.4,-.4c-.2,0,-.4,.2,-.4,.4c0,.2,.2,.4,.4,.4m1.5,0v0c.2,0,.4,-.2,.4,-.4c0,-.2,-.2,-.4,-.4,-.4c-.2,0,-.3,.2,-.3,.4c0,.2,.1,.4,.3,.4m1.6,0v0c.2,0,.3,-.2,.3,-.4c0,-.2,-.1,-.4,-.3,-.4c-.2,0,-.4,.2,-.4,.4c0,.2,.2,.4,.4,.4m1.5,0v0c.2,0,.4,-.2,.4,-.4c0,-.2,-.2,-.4,-.4,-.4c-.2,0,-.4,.2,-.4,.4c0,.2,.2,.4,.4,.4m1.5,0v0c.2,0,.4,-.2,.4,-.4c0,-.2,-.2,-.4,-.4,-.4c-.2,0,-.4,.2,-.4,.4c0,.2,.2,.4,.4,.4m1.5,0v0c.3,0,.4,-.2,.4,-.4c0,-.2,-.1,-.4,-.4,-.4c-.2,0,-.3,.2,-.3,.4c0,.2,.1,.4,.3,.4m1.6,0v0c.2,0,.4,-.2,.4,-.4c0,-.2,-.2,-.4,-.4,-.4c-.2,0,-.4,.2,-.4,.4c0,.2,.2,.4,.4,.4m1.5,0v0c.2,0,.4,-.2,.4,-.4c0,-.2,-.2,-.4,-.4,-.4c-.2,0,-.4,.2,-.4,.4c0,.2,.2,.4,.4,.4m1.5,0v0c.2,0,.4,-.2,.4,-.4c0,-.2,-.2,-.4,-.4,-.4c-.2,0,-.3,.2,-.3,.4c0,.2,.1,.4,.3,.4m1.6,0v0c.2,0,.3,-.2,.3,-.4c0,-.2,-.1,-.4,-.3,-.4c-.2,0,-.4,.2,-.4,.4c0,.2,.2,.4,.4,.4m1.5,0v0c.2,0,.4,-.2,.4,-.4c0,-.2,-.2,-.4,-.4,-.4c-.2,0,-.4,.2,-.4,.4c0,.2,.2,.4,.4,.4m1.5,0v0c.2,0,.4,-.2,.4,-.4c0,-.2,-.2,-.4,-.4,-.4c-.2,0,-.4,.2,-.4,.4c0,.2,.2,.4,.4,.4m1.5,0v0c.3,0,.4,-.2,.4,-.4c0,-.2,-.1,-.4,-.4,-.4c-.2,0,-.3,.2,-.3,.4c0,.2,.1,.4,.3,.4m1.6,0v0c.2,0,.4,-.2,.4,-.4c0,-.2,-.2,-.4,-.4,-.4c-.2,0,-.4,.2,-.4,.4c0,.2,.2,.4,.4,.4m1.5,0v0c.2,0,.4,-.2,.4,-.4c0,-.2,-.2,-.4,-.4,-.4c-.2,0,-.4,.2,-.4,.4c0,.2,.2,.4,.4,.4m1.5,0v0c.2,0,.4,-.2,.4,-.4c0,-.2,-.2,-.4,-.4,-.4c-.2,0,-.3,.2,-.3,.4c0,.2,.1,.4,.3,.4m1.6,0v0c.2,0,.3,-.2,.3,-.4c0,-.2,-.1,-.4,-.3,-.4c-.2,0,-.4,.2,-.4,.4c0,.2,.2,.4,.4,.4Z" class="g6_24"/>
<path d="M39.4,822.7l.2,-.1l.1,-.3l-.1,-.3l-.2,-.1l-.3,.1l-.1,.3l.1,.3Zm215.5,0l.3,-.1l.1,-.3l-.1,-.3l-.3,-.1l-.3,.1l-.1,.3l.1,.3Z" class="g6_24"/>
<path d="M256.4,822.7v0c.2,0,.4,-.2,.4,-.4c0,-.2,-.2,-.4,-.4,-.4c-.2,0,-.4,.2,-.4,.4c0,.2,.2,.4,.4,.4m1.5,0v0c.2,0,.4,-.2,.4,-.4c0,-.2,-.2,-.4,-.4,-.4c-.2,0,-.4,.2,-.4,.4c0,.2,.2,.4,.4,.4m1.5,0v0c.2,0,.4,-.2,.4,-.4c0,-.2,-.2,-.4,-.4,-.4c-.2,0,-.4,.2,-.4,.4c0,.2,.2,.4,.4,.4m1.5,0v0c.2,0,.4,-.2,.4,-.4c0,-.2,-.2,-.4,-.4,-.4c-.2,0,-.4,.2,-.4,.4c0,.2,.2,.4,.4,.4m1.5,0v0c.3,0,.4,-.2,.4,-.4c0,-.2,-.1,-.4,-.4,-.4c-.2,0,-.3,.2,-.3,.4c0,.2,.1,.4,.3,.4m1.6,0v0c.2,0,.3,-.2,.3,-.4c0,-.2,-.1,-.4,-.3,-.4c-.3,0,-.4,.2,-.4,.4c0,.2,.1,.4,.4,.4m1.5,0v0c.2,0,.3,-.2,.3,-.4c0,-.2,-.1,-.4,-.3,-.4c-.2,0,-.4,.2,-.4,.4c0,.2,.2,.4,.4,.4m1.5,0v0c.2,0,.4,-.2,.4,-.4c0,-.2,-.2,-.4,-.4,-.4c-.2,0,-.4,.2,-.4,.4c0,.2,.2,.4,.4,.4m1.5,0v0c.2,0,.4,-.2,.4,-.4c0,-.2,-.2,-.4,-.4,-.4c-.2,0,-.4,.2,-.4,.4c0,.2,.2,.4,.4,.4m1.5,0v0c.2,0,.4,-.2,.4,-.4c0,-.2,-.2,-.4,-.4,-.4c-.2,0,-.4,.2,-.4,.4c0,.2,.2,.4,.4,.4m1.5,0v0c.2,0,.4,-.2,.4,-.4c0,-.2,-.2,-.4,-.4,-.4c-.2,0,-.4,.2,-.4,.4c0,.2,.2,.4,.4,.4m1.5,0v0c.2,0,.4,-.2,.4,-.4c0,-.2,-.2,-.4,-.4,-.4c-.2,0,-.4,.2,-.4,.4c0,.2,.2,.4,.4,.4m1.5,0v0c.2,0,.4,-.2,.4,-.4c0,-.2,-.2,-.4,-.4,-.4c-.2,0,-.4,.2,-.4,.4c0,.2,.2,.4,.4,.4m1.5,0v0c.2,0,.4,-.2,.4,-.4c0,-.2,-.2,-.4,-.4,-.4c-.2,0,-.3,.2,-.3,.4c0,.2,.1,.4,.3,.4m1.5,0v0c.3,0,.4,-.2,.4,-.4c0,-.2,-.1,-.4,-.4,-.4c-.2,0,-.3,.2,-.3,.4c0,.2,.1,.4,.3,.4m1.6,0v0c.2,0,.3,-.2,.3,-.4c0,-.2,-.1,-.4,-.3,-.4c-.3,0,-.4,.2,-.4,.4c0,.2,.1,.4,.4,.4m1.5,0v0c.2,0,.3,-.2,.3,-.4c0,-.2,-.1,-.4,-.3,-.4c-.2,0,-.4,.2,-.4,.4c0,.2,.2,.4,.4,.4m1.5,0v0c.2,0,.4,-.2,.4,-.4c0,-.2,-.2,-.4,-.4,-.4c-.2,0,-.4,.2,-.4,.4c0,.2,.2,.4,.4,.4m1.5,0v0c.2,0,.4,-.2,.4,-.4c0,-.2,-.2,-.4,-.4,-.4c-.2,0,-.4,.2,-.4,.4c0,.2,.2,.4,.4,.4m1.5,0v0c.2,0,.4,-.2,.4,-.4c0,-.2,-.2,-.4,-.4,-.4c-.2,0,-.4,.2,-.4,.4c0,.2,.2,.4,.4,.4m1.5,0v0c.2,0,.4,-.2,.4,-.4c0,-.2,-.2,-.4,-.4,-.4c-.2,0,-.4,.2,-.4,.4c0,.2,.2,.4,.4,.4m1.5,0v0c.2,0,.4,-.2,.4,-.4c0,-.2,-.2,-.4,-.4,-.4c-.2,0,-.4,.2,-.4,.4c0,.2,.2,.4,.4,.4m1.5,0v0c.2,0,.4,-.2,.4,-.4c0,-.2,-.2,-.4,-.4,-.4c-.2,0,-.4,.2,-.4,.4c0,.2,.2,.4,.4,.4m1.5,0v0c.2,0,.4,-.2,.4,-.4c0,-.2,-.2,-.4,-.4,-.4c-.2,0,-.3,.2,-.3,.4c0,.2,.1,.4,.3,.4m1.5,0v0c.3,0,.4,-.2,.4,-.4c0,-.2,-.1,-.4,-.4,-.4c-.2,0,-.3,.2,-.3,.4c0,.2,.1,.4,.3,.4m1.6,0v0c.2,0,.3,-.2,.3,-.4c0,-.2,-.1,-.4,-.3,-.4c-.3,0,-.4,.2,-.4,.4c0,.2,.1,.4,.4,.4m1.5,0v0c.2,0,.3,-.2,.3,-.4c0,-.2,-.1,-.4,-.3,-.4c-.2,0,-.4,.2,-.4,.4c0,.2,.2,.4,.4,.4m1.5,0v0c.2,0,.4,-.2,.4,-.4c0,-.2,-.2,-.4,-.4,-.4c-.2,0,-.4,.2,-.4,.4c0,.2,.2,.4,.4,.4m1.5,0v0c.2,0,.4,-.2,.4,-.4c0,-.2,-.2,-.4,-.4,-.4c-.2,0,-.4,.2,-.4,.4c0,.2,.2,.4,.4,.4m1.5,0v0c.2,0,.4,-.2,.4,-.4c0,-.2,-.2,-.4,-.4,-.4c-.2,0,-.4,.2,-.4,.4c0,.2,.2,.4,.4,.4m1.5,0v0c.2,0,.4,-.2,.4,-.4c0,-.2,-.2,-.4,-.4,-.4c-.2,0,-.4,.2,-.4,.4c0,.2,.2,.4,.4,.4m1.5,0v0c.2,0,.4,-.2,.4,-.4c0,-.2,-.2,-.4,-.4,-.4c-.2,0,-.4,.2,-.4,.4c0,.2,.2,.4,.4,.4m1.5,0v0c.2,0,.4,-.2,.4,-.4c0,-.2,-.2,-.4,-.4,-.4c-.2,0,-.4,.2,-.4,.4c0,.2,.2,.4,.4,.4m1.5,0v0c.2,0,.4,-.2,.4,-.4c0,-.2,-.2,-.4,-.4,-.4c-.2,0,-.3,.2,-.3,.4c0,.2,.1,.4,.3,.4Z" class="g6_24"/>
<path d="M254.9,822.7l.3,-.1l.1,-.3l-.1,-.3l-.3,-.1l-.3,.1l-.1,.3l.1,.3Zm52.8,0l.3,-.1l.1,-.3L308,822l-.3,-.1l-.2,.1l-.1,.3l.1,.3Z" class="g6_24"/>
<path d="M40.9,870.2v0c.2,0,.4,-.1,.4,-.4c0,-.2,-.2,-.3,-.4,-.3c-.2,0,-.4,.1,-.4,.3c0,.3,.2,.4,.4,.4m1.5,0v0c.2,0,.4,-.1,.4,-.4c0,-.2,-.2,-.3,-.4,-.3c-.2,0,-.4,.1,-.4,.3c0,.3,.2,.4,.4,.4m1.5,0v0c.3,0,.4,-.1,.4,-.4c0,-.2,-.1,-.3,-.4,-.3c-.2,0,-.3,.1,-.3,.3c0,.3,.1,.4,.3,.4m1.6,0v0c.2,0,.4,-.1,.4,-.4c0,-.2,-.2,-.3,-.4,-.3c-.2,0,-.4,.1,-.4,.3c0,.3,.2,.4,.4,.4m1.5,0v0c.2,0,.4,-.1,.4,-.4c0,-.2,-.2,-.3,-.4,-.3c-.2,0,-.4,.1,-.4,.3c0,.3,.2,.4,.4,.4m1.5,0v0c.2,0,.4,-.1,.4,-.4c0,-.2,-.2,-.3,-.4,-.3c-.2,0,-.4,.1,-.4,.3c0,.3,.2,.4,.4,.4m1.6,0v0c.2,0,.3,-.1,.3,-.4c0,-.2,-.1,-.3,-.3,-.3c-.3,0,-.4,.1,-.4,.3c0,.3,.1,.4,.4,.4m1.5,0v0c.2,0,.4,-.1,.4,-.4c0,-.2,-.2,-.3,-.4,-.3c-.2,0,-.4,.1,-.4,.3c0,.3,.2,.4,.4,.4m1.5,0v0c.2,0,.4,-.1,.4,-.4c0,-.2,-.2,-.3,-.4,-.3c-.2,0,-.4,.1,-.4,.3c0,.3,.2,.4,.4,.4m1.5,0v0c.3,0,.4,-.1,.4,-.4c0,-.2,-.1,-.3,-.4,-.3c-.2,0,-.3,.1,-.3,.3c0,.3,.1,.4,.3,.4m1.6,0v0c.2,0,.4,-.1,.4,-.4c0,-.2,-.2,-.3,-.4,-.3c-.2,0,-.4,.1,-.4,.3c0,.3,.2,.4,.4,.4m1.5,0v0c.2,0,.4,-.1,.4,-.4c0,-.2,-.2,-.3,-.4,-.3c-.2,0,-.4,.1,-.4,.3c0,.3,.2,.4,.4,.4m1.5,0v0c.2,0,.4,-.1,.4,-.4c0,-.2,-.2,-.3,-.4,-.3c-.2,0,-.4,.1,-.4,.3c0,.3,.2,.4,.4,.4m1.6,0v0c.2,0,.3,-.1,.3,-.4c0,-.2,-.1,-.3,-.3,-.3c-.3,0,-.4,.1,-.4,.3c0,.3,.1,.4,.4,.4m1.5,0v0c.2,0,.4,-.1,.4,-.4c0,-.2,-.2,-.3,-.4,-.3c-.2,0,-.4,.1,-.4,.3c0,.3,.2,.4,.4,.4m1.5,0v0c.2,0,.4,-.1,.4,-.4c0,-.2,-.2,-.3,-.4,-.3c-.2,0,-.4,.1,-.4,.3c0,.3,.2,.4,.4,.4m1.5,0v0c.3,0,.4,-.1,.4,-.4c0,-.2,-.1,-.3,-.4,-.3c-.2,0,-.3,.1,-.3,.3c0,.3,.1,.4,.3,.4m1.6,0v0c.2,0,.4,-.1,.4,-.4c0,-.2,-.2,-.3,-.4,-.3c-.2,0,-.4,.1,-.4,.3c0,.3,.2,.4,.4,.4m1.5,0v0c.2,0,.4,-.1,.4,-.4c0,-.2,-.2,-.3,-.4,-.3c-.2,0,-.4,.1,-.4,.3c0,.3,.2,.4,.4,.4m1.5,0v0c.2,0,.4,-.1,.4,-.4c0,-.2,-.2,-.3,-.4,-.3c-.2,0,-.4,.1,-.4,.3c0,.3,.2,.4,.4,.4m1.6,0v0c.2,0,.3,-.1,.3,-.4c0,-.2,-.1,-.3,-.3,-.3c-.3,0,-.4,.1,-.4,.3c0,.3,.1,.4,.4,.4m1.5,0v0c.2,0,.4,-.1,.4,-.4c0,-.2,-.2,-.3,-.4,-.3c-.2,0,-.4,.1,-.4,.3c0,.3,.2,.4,.4,.4m1.5,0v0c.2,0,.4,-.1,.4,-.4c0,-.2,-.2,-.3,-.4,-.3c-.2,0,-.4,.1,-.4,.3c0,.3,.2,.4,.4,.4m1.5,0v0c.3,0,.4,-.1,.4,-.4c0,-.2,-.1,-.3,-.4,-.3c-.2,0,-.3,.1,-.3,.3c0,.3,.1,.4,.3,.4m1.6,0v0c.2,0,.4,-.1,.4,-.4c0,-.2,-.2,-.3,-.4,-.3c-.2,0,-.4,.1,-.4,.3c0,.3,.2,.4,.4,.4m1.5,0v0c.2,0,.4,-.1,.4,-.4c0,-.2,-.2,-.3,-.4,-.3c-.2,0,-.4,.1,-.4,.3c0,.3,.2,.4,.4,.4m1.5,0v0c.2,0,.4,-.1,.4,-.4c0,-.2,-.2,-.3,-.4,-.3c-.2,0,-.4,.1,-.4,.3c0,.3,.2,.4,.4,.4m1.6,0v0c.2,0,.3,-.1,.3,-.4c0,-.2,-.1,-.3,-.3,-.3c-.3,0,-.4,.1,-.4,.3c0,.3,.1,.4,.4,.4m1.5,0v0c.2,0,.4,-.1,.4,-.4c0,-.2,-.2,-.3,-.4,-.3c-.2,0,-.4,.1,-.4,.3c0,.3,.2,.4,.4,.4m1.5,0v0c.2,0,.4,-.1,.4,-.4c0,-.2,-.2,-.3,-.4,-.3c-.2,0,-.4,.1,-.4,.3c0,.3,.2,.4,.4,.4m1.5,0v0c.3,0,.4,-.1,.4,-.4c0,-.2,-.1,-.3,-.4,-.3c-.2,0,-.3,.1,-.3,.3c0,.3,.1,.4,.3,.4m1.6,0v0c.2,0,.4,-.1,.4,-.4c0,-.2,-.2,-.3,-.4,-.3c-.2,0,-.4,.1,-.4,.3c0,.3,.2,.4,.4,.4m1.5,0v0c.2,0,.4,-.1,.4,-.4c0,-.2,-.2,-.3,-.4,-.3c-.2,0,-.4,.1,-.4,.3c0,.3,.2,.4,.4,.4m1.5,0v0c.2,0,.4,-.1,.4,-.4c0,-.2,-.2,-.3,-.4,-.3c-.2,0,-.4,.1,-.4,.3c0,.3,.2,.4,.4,.4m1.6,0v0c.2,0,.3,-.1,.3,-.4c0,-.2,-.1,-.3,-.3,-.3c-.3,0,-.4,.1,-.4,.3c0,.3,.1,.4,.4,.4m1.5,0v0c.2,0,.4,-.1,.4,-.4c0,-.2,-.2,-.3,-.4,-.3c-.2,0,-.4,.1,-.4,.3c0,.3,.2,.4,.4,.4m1.5,0v0c.2,0,.4,-.1,.4,-.4c0,-.2,-.2,-.3,-.4,-.3c-.2,0,-.4,.1,-.4,.3c0,.3,.2,.4,.4,.4m1.5,0v0c.3,0,.4,-.1,.4,-.4c0,-.2,-.1,-.3,-.4,-.3c-.2,0,-.3,.1,-.3,.3c0,.3,.1,.4,.3,.4m1.6,0v0c.2,0,.4,-.1,.4,-.4c0,-.2,-.2,-.3,-.4,-.3c-.2,0,-.4,.1,-.4,.3c0,.3,.2,.4,.4,.4m1.5,0v0c.2,0,.4,-.1,.4,-.4c0,-.2,-.2,-.3,-.4,-.3c-.2,0,-.4,.1,-.4,.3c0,.3,.2,.4,.4,.4m1.5,0v0c.2,0,.4,-.1,.4,-.4c0,-.2,-.2,-.3,-.4,-.3c-.2,0,-.4,.1,-.4,.3c0,.3,.2,.4,.4,.4m1.6,0v0c.2,0,.3,-.1,.3,-.4c0,-.2,-.1,-.3,-.3,-.3c-.3,0,-.4,.1,-.4,.3c0,.3,.1,.4,.4,.4m1.5,0v0c.2,0,.4,-.1,.4,-.4c0,-.2,-.2,-.3,-.4,-.3c-.2,0,-.4,.1,-.4,.3c0,.3,.2,.4,.4,.4m1.5,0v0c.2,0,.4,-.1,.4,-.4c0,-.2,-.2,-.3,-.4,-.3c-.2,0,-.4,.1,-.4,.3c0,.3,.2,.4,.4,.4m1.5,0v0c.3,0,.4,-.1,.4,-.4c0,-.2,-.1,-.3,-.4,-.3c-.2,0,-.3,.1,-.3,.3c0,.3,.1,.4,.3,.4m1.6,0v0c.2,0,.4,-.1,.4,-.4c0,-.2,-.2,-.3,-.4,-.3c-.2,0,-.4,.1,-.4,.3c0,.3,.2,.4,.4,.4m1.5,0v0c.2,0,.4,-.1,.4,-.4c0,-.2,-.2,-.3,-.4,-.3c-.2,0,-.4,.1,-.4,.3c0,.3,.2,.4,.4,.4m1.5,0v0c.2,0,.4,-.1,.4,-.4c0,-.2,-.2,-.3,-.4,-.3c-.2,0,-.4,.1,-.4,.3c0,.3,.2,.4,.4,.4m1.6,0v0c.2,0,.3,-.1,.3,-.4c0,-.2,-.1,-.3,-.3,-.3c-.3,0,-.4,.1,-.4,.3c0,.3,.1,.4,.4,.4m1.5,0v0c.2,0,.4,-.1,.4,-.4c0,-.2,-.2,-.3,-.4,-.3c-.2,0,-.4,.1,-.4,.3c0,.3,.2,.4,.4,.4m1.5,0v0c.2,0,.4,-.1,.4,-.4c0,-.2,-.2,-.3,-.4,-.3c-.2,0,-.4,.1,-.4,.3c0,.3,.2,.4,.4,.4m1.5,0v0c.3,0,.4,-.1,.4,-.4c0,-.2,-.1,-.3,-.4,-.3c-.2,0,-.3,.1,-.3,.3c0,.3,.1,.4,.3,.4m1.6,0v0c.2,0,.4,-.1,.4,-.4c0,-.2,-.2,-.3,-.4,-.3c-.2,0,-.4,.1,-.4,.3c0,.3,.2,.4,.4,.4m1.5,0v0c.2,0,.4,-.1,.4,-.4c0,-.2,-.2,-.3,-.4,-.3c-.2,0,-.4,.1,-.4,.3c0,.3,.2,.4,.4,.4m1.5,0v0c.2,0,.4,-.1,.4,-.4c0,-.2,-.2,-.3,-.4,-.3c-.2,0,-.4,.1,-.4,.3c0,.3,.2,.4,.4,.4m1.6,0v0c.2,0,.3,-.1,.3,-.4c0,-.2,-.1,-.3,-.3,-.3c-.3,0,-.4,.1,-.4,.3c0,.3,.1,.4,.4,.4m1.5,0v0c.2,0,.4,-.1,.4,-.4c0,-.2,-.2,-.3,-.4,-.3c-.2,0,-.4,.1,-.4,.3c0,.3,.2,.4,.4,.4m1.5,0v0c.2,0,.4,-.1,.4,-.4c0,-.2,-.2,-.3,-.4,-.3c-.2,0,-.4,.1,-.4,.3c0,.3,.2,.4,.4,.4m1.5,0v0c.3,0,.4,-.1,.4,-.4c0,-.2,-.1,-.3,-.4,-.3c-.2,0,-.3,.1,-.3,.3c0,.3,.1,.4,.3,.4m1.6,0v0c.2,0,.4,-.1,.4,-.4c0,-.2,-.2,-.3,-.4,-.3c-.2,0,-.4,.1,-.4,.3c0,.3,.2,.4,.4,.4m1.5,0v0c.2,0,.4,-.1,.4,-.4c0,-.2,-.2,-.3,-.4,-.3c-.2,0,-.4,.1,-.4,.3c0,.3,.2,.4,.4,.4m1.5,0v0c.2,0,.4,-.1,.4,-.4c0,-.2,-.2,-.3,-.4,-.3c-.2,0,-.4,.1,-.4,.3c0,.3,.2,.4,.4,.4m1.6,0v0c.2,0,.3,-.1,.3,-.4c0,-.2,-.1,-.3,-.3,-.3c-.3,0,-.4,.1,-.4,.3c0,.3,.1,.4,.4,.4m1.5,0v0c.2,0,.4,-.1,.4,-.4c0,-.2,-.2,-.3,-.4,-.3c-.2,0,-.4,.1,-.4,.3c0,.3,.2,.4,.4,.4m1.5,0v0c.2,0,.4,-.1,.4,-.4c0,-.2,-.2,-.3,-.4,-.3c-.2,0,-.4,.1,-.4,.3c0,.3,.2,.4,.4,.4m1.5,0v0c.3,0,.4,-.1,.4,-.4c0,-.2,-.1,-.3,-.4,-.3c-.2,0,-.3,.1,-.3,.3c0,.3,.1,.4,.3,.4m1.6,0v0c.2,0,.4,-.1,.4,-.4c0,-.2,-.2,-.3,-.4,-.3c-.2,0,-.4,.1,-.4,.3c0,.3,.2,.4,.4,.4m1.5,0v0c.2,0,.4,-.1,.4,-.4c0,-.2,-.2,-.3,-.4,-.3c-.2,0,-.4,.1,-.4,.3c0,.3,.2,.4,.4,.4m1.5,0v0c.2,0,.4,-.1,.4,-.4c0,-.2,-.2,-.3,-.4,-.3c-.2,0,-.3,.1,-.3,.3c0,.3,.1,.4,.3,.4m1.6,0v0c.2,0,.3,-.1,.3,-.4c0,-.2,-.1,-.3,-.3,-.3c-.3,0,-.4,.1,-.4,.3c0,.3,.1,.4,.4,.4m1.5,0v0c.2,0,.4,-.1,.4,-.4c0,-.2,-.2,-.3,-.4,-.3c-.2,0,-.4,.1,-.4,.3c0,.3,.2,.4,.4,.4m1.5,0v0c.2,0,.4,-.1,.4,-.4c0,-.2,-.2,-.3,-.4,-.3c-.2,0,-.4,.1,-.4,.3c0,.3,.2,.4,.4,.4m1.5,0v0c.3,0,.4,-.1,.4,-.4c0,-.2,-.1,-.3,-.4,-.3c-.2,0,-.3,.1,-.3,.3c0,.3,.1,.4,.3,.4m1.6,0v0c.2,0,.4,-.1,.4,-.4c0,-.2,-.2,-.3,-.4,-.3c-.2,0,-.4,.1,-.4,.3c0,.3,.2,.4,.4,.4m1.5,0v0c.2,0,.4,-.1,.4,-.4c0,-.2,-.2,-.3,-.4,-.3c-.2,0,-.4,.1,-.4,.3c0,.3,.2,.4,.4,.4m1.5,0v0c.2,0,.4,-.1,.4,-.4c0,-.2,-.2,-.3,-.4,-.3c-.2,0,-.4,.1,-.4,.3c0,.3,.2,.4,.4,.4m1.6,0v0c.2,0,.3,-.1,.3,-.4c0,-.2,-.1,-.3,-.3,-.3c-.3,0,-.4,.1,-.4,.3c0,.3,.1,.4,.4,.4m1.5,0v0c.2,0,.4,-.1,.4,-.4c0,-.2,-.2,-.3,-.4,-.3c-.2,0,-.4,.1,-.4,.3c0,.3,.2,.4,.4,.4m1.5,0v0c.2,0,.4,-.1,.4,-.4c0,-.2,-.2,-.3,-.4,-.3c-.2,0,-.4,.1,-.4,.3c0,.3,.2,.4,.4,.4m1.5,0v0c.3,0,.4,-.1,.4,-.4c0,-.2,-.1,-.3,-.4,-.3c-.2,0,-.3,.1,-.3,.3c0,.3,.1,.4,.3,.4m1.6,0v0c.2,0,.4,-.1,.4,-.4c0,-.2,-.2,-.3,-.4,-.3c-.2,0,-.4,.1,-.4,.3c0,.3,.2,.4,.4,.4m1.5,0v0c.2,0,.4,-.1,.4,-.4c0,-.2,-.2,-.3,-.4,-.3c-.2,0,-.4,.1,-.4,.3c0,.3,.2,.4,.4,.4m1.5,0v0c.2,0,.4,-.1,.4,-.4c0,-.2,-.2,-.3,-.4,-.3c-.2,0,-.4,.1,-.4,.3c0,.3,.2,.4,.4,.4m1.6,0v0c.2,0,.3,-.1,.3,-.4c0,-.2,-.1,-.3,-.3,-.3c-.3,0,-.4,.1,-.4,.3c0,.3,.1,.4,.4,.4m1.5,0v0c.2,0,.4,-.1,.4,-.4c0,-.2,-.2,-.3,-.4,-.3c-.2,0,-.4,.1,-.4,.3c0,.3,.2,.4,.4,.4m1.5,0v0c.2,0,.4,-.1,.4,-.4c0,-.2,-.2,-.3,-.4,-.3c-.2,0,-.4,.1,-.4,.3c0,.3,.2,.4,.4,.4m1.5,0v0c.3,0,.4,-.1,.4,-.4c0,-.2,-.1,-.3,-.4,-.3c-.2,0,-.3,.1,-.3,.3c0,.3,.1,.4,.3,.4m1.6,0v0c.2,0,.4,-.1,.4,-.4c0,-.2,-.2,-.3,-.4,-.3c-.2,0,-.4,.1,-.4,.3c0,.3,.2,.4,.4,.4m1.5,0v0c.2,0,.4,-.1,.4,-.4c0,-.2,-.2,-.3,-.4,-.3c-.2,0,-.4,.1,-.4,.3c0,.3,.2,.4,.4,.4m1.5,0v0c.2,0,.4,-.1,.4,-.4c0,-.2,-.2,-.3,-.4,-.3c-.2,0,-.3,.1,-.3,.3c0,.3,.1,.4,.3,.4m1.6,0v0c.2,0,.3,-.1,.3,-.4c0,-.2,-.1,-.3,-.3,-.3c-.3,0,-.4,.1,-.4,.3c0,.3,.1,.4,.4,.4m1.5,0v0c.2,0,.4,-.1,.4,-.4c0,-.2,-.2,-.3,-.4,-.3c-.2,0,-.4,.1,-.4,.3c0,.3,.2,.4,.4,.4m1.5,0v0c.2,0,.4,-.1,.4,-.4c0,-.2,-.2,-.3,-.4,-.3c-.2,0,-.4,.1,-.4,.3c0,.3,.2,.4,.4,.4m1.5,0v0c.3,0,.4,-.1,.4,-.4c0,-.2,-.1,-.3,-.4,-.3c-.2,0,-.3,.1,-.3,.3c0,.3,.1,.4,.3,.4m1.6,0v0c.2,0,.4,-.1,.4,-.4c0,-.2,-.2,-.3,-.4,-.3c-.2,0,-.4,.1,-.4,.3c0,.3,.2,.4,.4,.4m1.5,0v0c.2,0,.4,-.1,.4,-.4c0,-.2,-.2,-.3,-.4,-.3c-.2,0,-.4,.1,-.4,.3c0,.3,.2,.4,.4,.4m1.5,0v0c.2,0,.4,-.1,.4,-.4c0,-.2,-.2,-.3,-.4,-.3c-.2,0,-.4,.1,-.4,.3c0,.3,.2,.4,.4,.4m1.6,0v0c.2,0,.3,-.1,.3,-.4c0,-.2,-.1,-.3,-.3,-.3c-.3,0,-.4,.1,-.4,.3c0,.3,.1,.4,.4,.4m1.5,0v0c.2,0,.4,-.1,.4,-.4c0,-.2,-.2,-.3,-.4,-.3c-.2,0,-.4,.1,-.4,.3c0,.3,.2,.4,.4,.4m1.5,0v0c.2,0,.4,-.1,.4,-.4c0,-.2,-.2,-.3,-.4,-.3c-.2,0,-.4,.1,-.4,.3c0,.3,.2,.4,.4,.4m1.5,0v0c.3,0,.4,-.1,.4,-.4c0,-.2,-.1,-.3,-.4,-.3c-.2,0,-.3,.1,-.3,.3c0,.3,.1,.4,.3,.4m1.6,0v0c.2,0,.4,-.1,.4,-.4c0,-.2,-.2,-.3,-.4,-.3c-.2,0,-.4,.1,-.4,.3c0,.3,.2,.4,.4,.4m1.5,0v0c.2,0,.4,-.1,.4,-.4c0,-.2,-.2,-.3,-.4,-.3c-.2,0,-.4,.1,-.4,.3c0,.3,.2,.4,.4,.4m1.5,0v0c.2,0,.4,-.1,.4,-.4c0,-.2,-.2,-.3,-.4,-.3c-.2,0,-.3,.1,-.3,.3c0,.3,.1,.4,.3,.4m1.6,0v0c.2,0,.3,-.1,.3,-.4c0,-.2,-.1,-.3,-.3,-.3c-.2,0,-.4,.1,-.4,.3c0,.3,.2,.4,.4,.4m1.5,0v0c.2,0,.4,-.1,.4,-.4c0,-.2,-.2,-.3,-.4,-.3c-.2,0,-.4,.1,-.4,.3c0,.3,.2,.4,.4,.4m1.5,0v0c.2,0,.4,-.1,.4,-.4c0,-.2,-.2,-.3,-.4,-.3c-.2,0,-.4,.1,-.4,.3c0,.3,.2,.4,.4,.4m1.5,0v0c.3,0,.4,-.1,.4,-.4c0,-.2,-.1,-.3,-.4,-.3c-.2,0,-.3,.1,-.3,.3c0,.3,.1,.4,.3,.4m1.6,0v0c.2,0,.4,-.1,.4,-.4c0,-.2,-.2,-.3,-.4,-.3c-.2,0,-.4,.1,-.4,.3c0,.3,.2,.4,.4,.4m1.5,0v0c.2,0,.4,-.1,.4,-.4c0,-.2,-.2,-.3,-.4,-.3c-.2,0,-.4,.1,-.4,.3c0,.3,.2,.4,.4,.4m1.5,0v0c.2,0,.4,-.1,.4,-.4c0,-.2,-.2,-.3,-.4,-.3c-.2,0,-.3,.1,-.3,.3c0,.3,.1,.4,.3,.4m1.6,0v0c.2,0,.3,-.1,.3,-.4c0,-.2,-.1,-.3,-.3,-.3c-.3,0,-.4,.1,-.4,.3c0,.3,.1,.4,.4,.4m1.5,0v0c.2,0,.4,-.1,.4,-.4c0,-.2,-.2,-.3,-.4,-.3c-.2,0,-.4,.1,-.4,.3c0,.3,.2,.4,.4,.4m1.5,0v0c.2,0,.4,-.1,.4,-.4c0,-.2,-.2,-.3,-.4,-.3c-.2,0,-.4,.1,-.4,.3c0,.3,.2,.4,.4,.4m1.5,0v0c.3,0,.4,-.1,.4,-.4c0,-.2,-.1,-.3,-.4,-.3c-.2,0,-.3,.1,-.3,.3c0,.3,.1,.4,.3,.4m1.6,0v0c.2,0,.4,-.1,.4,-.4c0,-.2,-.2,-.3,-.4,-.3c-.2,0,-.4,.1,-.4,.3c0,.3,.2,.4,.4,.4m1.5,0v0c.2,0,.4,-.1,.4,-.4c0,-.2,-.2,-.3,-.4,-.3c-.2,0,-.4,.1,-.4,.3c0,.3,.2,.4,.4,.4m1.5,0v0c.2,0,.4,-.1,.4,-.4c0,-.2,-.2,-.3,-.4,-.3c-.2,0,-.3,.1,-.3,.3c0,.3,.1,.4,.3,.4m1.6,0v0c.2,0,.3,-.1,.3,-.4c0,-.2,-.1,-.3,-.3,-.3c-.2,0,-.4,.1,-.4,.3c0,.3,.2,.4,.4,.4m1.5,0v0c.2,0,.4,-.1,.4,-.4c0,-.2,-.2,-.3,-.4,-.3c-.2,0,-.4,.1,-.4,.3c0,.3,.2,.4,.4,.4m1.5,0v0c.2,0,.4,-.1,.4,-.4c0,-.2,-.2,-.3,-.4,-.3c-.2,0,-.4,.1,-.4,.3c0,.3,.2,.4,.4,.4m1.5,0v0c.3,0,.4,-.1,.4,-.4c0,-.2,-.1,-.3,-.4,-.3c-.2,0,-.3,.1,-.3,.3c0,.3,.1,.4,.3,.4m1.6,0v0c.2,0,.4,-.1,.4,-.4c0,-.2,-.2,-.3,-.4,-.3c-.2,0,-.4,.1,-.4,.3c0,.3,.2,.4,.4,.4m1.5,0v0c.2,0,.4,-.1,.4,-.4c0,-.2,-.2,-.3,-.4,-.3c-.2,0,-.4,.1,-.4,.3c0,.3,.2,.4,.4,.4m1.5,0v0c.2,0,.4,-.1,.4,-.4c0,-.2,-.2,-.3,-.4,-.3c-.2,0,-.3,.1,-.3,.3c0,.3,.1,.4,.3,.4m1.6,0v0c.2,0,.3,-.1,.3,-.4c0,-.2,-.1,-.3,-.3,-.3c-.2,0,-.4,.1,-.4,.3c0,.3,.2,.4,.4,.4m1.5,0v0c.2,0,.4,-.1,.4,-.4c0,-.2,-.2,-.3,-.4,-.3c-.2,0,-.4,.1,-.4,.3c0,.3,.2,.4,.4,.4m1.5,0v0c.2,0,.4,-.1,.4,-.4c0,-.2,-.2,-.3,-.4,-.3c-.2,0,-.4,.1,-.4,.3c0,.3,.2,.4,.4,.4m1.5,0v0c.3,0,.4,-.1,.4,-.4c0,-.2,-.1,-.3,-.4,-.3c-.2,0,-.3,.1,-.3,.3c0,.3,.1,.4,.3,.4m1.6,0v0c.2,0,.4,-.1,.4,-.4c0,-.2,-.2,-.3,-.4,-.3c-.2,0,-.4,.1,-.4,.3c0,.3,.2,.4,.4,.4m1.5,0v0c.2,0,.4,-.1,.4,-.4c0,-.2,-.2,-.3,-.4,-.3c-.2,0,-.4,.1,-.4,.3c0,.3,.2,.4,.4,.4m1.5,0v0c.2,0,.4,-.1,.4,-.4c0,-.2,-.2,-.3,-.4,-.3c-.2,0,-.3,.1,-.3,.3c0,.3,.1,.4,.3,.4m1.6,0v0c.2,0,.3,-.1,.3,-.4c0,-.2,-.1,-.3,-.3,-.3c-.2,0,-.4,.1,-.4,.3c0,.3,.2,.4,.4,.4m1.5,0v0c.2,0,.4,-.1,.4,-.4c0,-.2,-.2,-.3,-.4,-.3c-.2,0,-.4,.1,-.4,.3c0,.3,.2,.4,.4,.4m1.5,0v0c.2,0,.4,-.1,.4,-.4c0,-.2,-.2,-.3,-.4,-.3c-.2,0,-.4,.1,-.4,.3c0,.3,.2,.4,.4,.4m1.5,0v0c.3,0,.4,-.1,.4,-.4c0,-.2,-.1,-.3,-.4,-.3c-.2,0,-.3,.1,-.3,.3c0,.3,.1,.4,.3,.4m1.6,0v0c.2,0,.4,-.1,.4,-.4c0,-.2,-.2,-.3,-.4,-.3c-.2,0,-.4,.1,-.4,.3c0,.3,.2,.4,.4,.4m1.5,0v0c.2,0,.4,-.1,.4,-.4c0,-.2,-.2,-.3,-.4,-.3c-.2,0,-.4,.1,-.4,.3c0,.3,.2,.4,.4,.4m1.5,0v0c.2,0,.4,-.1,.4,-.4c0,-.2,-.2,-.3,-.4,-.3c-.2,0,-.3,.1,-.3,.3c0,.3,.1,.4,.3,.4m1.6,0v0c.2,0,.3,-.1,.3,-.4c0,-.2,-.1,-.3,-.3,-.3c-.2,0,-.4,.1,-.4,.3c0,.3,.2,.4,.4,.4Z" class="g7_24"/>
<path d="M39.4,870.2l.2,-.1l.1,-.3l-.1,-.2l-.2,-.1l-.3,.1l-.1,.2l.1,.3Zm215.5,0l.3,-.1l.1,-.3l-.1,-.2l-.3,-.1l-.3,.1l-.1,.2l.1,.3Z" class="g7_24"/>
<path d="M256.4,870.2v0c.2,0,.4,-.1,.4,-.4c0,-.2,-.2,-.3,-.4,-.3c-.2,0,-.4,.1,-.4,.3c0,.3,.2,.4,.4,.4m1.5,0v0c.2,0,.4,-.1,.4,-.4c0,-.2,-.2,-.3,-.4,-.3c-.2,0,-.4,.1,-.4,.3c0,.3,.2,.4,.4,.4m1.5,0v0c.2,0,.4,-.1,.4,-.4c0,-.2,-.2,-.3,-.4,-.3c-.2,0,-.4,.1,-.4,.3c0,.3,.2,.4,.4,.4m1.5,0v0c.2,0,.4,-.1,.4,-.4c0,-.2,-.2,-.3,-.4,-.3c-.2,0,-.4,.1,-.4,.3c0,.3,.2,.4,.4,.4m1.5,0v0c.3,0,.4,-.1,.4,-.4c0,-.2,-.1,-.3,-.4,-.3c-.2,0,-.3,.1,-.3,.3c0,.3,.1,.4,.3,.4m1.6,0v0c.2,0,.3,-.1,.3,-.4c0,-.2,-.1,-.3,-.3,-.3c-.3,0,-.4,.1,-.4,.3c0,.3,.1,.4,.4,.4m1.5,0v0c.2,0,.3,-.1,.3,-.4c0,-.2,-.1,-.3,-.3,-.3c-.2,0,-.4,.1,-.4,.3c0,.3,.2,.4,.4,.4m1.5,0v0c.2,0,.4,-.1,.4,-.4c0,-.2,-.2,-.3,-.4,-.3c-.2,0,-.4,.1,-.4,.3c0,.3,.2,.4,.4,.4m1.5,0v0c.2,0,.4,-.1,.4,-.4c0,-.2,-.2,-.3,-.4,-.3c-.2,0,-.4,.1,-.4,.3c0,.3,.2,.4,.4,.4m1.5,0v0c.2,0,.4,-.1,.4,-.4c0,-.2,-.2,-.3,-.4,-.3c-.2,0,-.4,.1,-.4,.3c0,.3,.2,.4,.4,.4m1.5,0v0c.2,0,.4,-.1,.4,-.4c0,-.2,-.2,-.3,-.4,-.3c-.2,0,-.4,.1,-.4,.3c0,.3,.2,.4,.4,.4m1.5,0v0c.2,0,.4,-.1,.4,-.4c0,-.2,-.2,-.3,-.4,-.3c-.2,0,-.4,.1,-.4,.3c0,.3,.2,.4,.4,.4m1.5,0v0c.2,0,.4,-.1,.4,-.4c0,-.2,-.2,-.3,-.4,-.3c-.2,0,-.4,.1,-.4,.3c0,.3,.2,.4,.4,.4m1.5,0v0c.2,0,.4,-.1,.4,-.4c0,-.2,-.2,-.3,-.4,-.3c-.2,0,-.3,.1,-.3,.3c0,.3,.1,.4,.3,.4m1.5,0v0c.3,0,.4,-.1,.4,-.4c0,-.2,-.1,-.3,-.4,-.3c-.2,0,-.3,.1,-.3,.3c0,.3,.1,.4,.3,.4m1.6,0v0c.2,0,.3,-.1,.3,-.4c0,-.2,-.1,-.3,-.3,-.3c-.3,0,-.4,.1,-.4,.3c0,.3,.1,.4,.4,.4m1.5,0v0c.2,0,.3,-.1,.3,-.4c0,-.2,-.1,-.3,-.3,-.3c-.2,0,-.4,.1,-.4,.3c0,.3,.2,.4,.4,.4m1.5,0v0c.2,0,.4,-.1,.4,-.4c0,-.2,-.2,-.3,-.4,-.3c-.2,0,-.4,.1,-.4,.3c0,.3,.2,.4,.4,.4m1.5,0v0c.2,0,.4,-.1,.4,-.4c0,-.2,-.2,-.3,-.4,-.3c-.2,0,-.4,.1,-.4,.3c0,.3,.2,.4,.4,.4m1.5,0v0c.2,0,.4,-.1,.4,-.4c0,-.2,-.2,-.3,-.4,-.3c-.2,0,-.4,.1,-.4,.3c0,.3,.2,.4,.4,.4m1.5,0v0c.2,0,.4,-.1,.4,-.4c0,-.2,-.2,-.3,-.4,-.3c-.2,0,-.4,.1,-.4,.3c0,.3,.2,.4,.4,.4m1.5,0v0c.2,0,.4,-.1,.4,-.4c0,-.2,-.2,-.3,-.4,-.3c-.2,0,-.4,.1,-.4,.3c0,.3,.2,.4,.4,.4m1.5,0v0c.2,0,.4,-.1,.4,-.4c0,-.2,-.2,-.3,-.4,-.3c-.2,0,-.4,.1,-.4,.3c0,.3,.2,.4,.4,.4m1.5,0v0c.2,0,.4,-.1,.4,-.4c0,-.2,-.2,-.3,-.4,-.3c-.2,0,-.3,.1,-.3,.3c0,.3,.1,.4,.3,.4m1.5,0v0c.3,0,.4,-.1,.4,-.4c0,-.2,-.1,-.3,-.4,-.3c-.2,0,-.3,.1,-.3,.3c0,.3,.1,.4,.3,.4m1.6,0v0c.2,0,.3,-.1,.3,-.4c0,-.2,-.1,-.3,-.3,-.3c-.3,0,-.4,.1,-.4,.3c0,.3,.1,.4,.4,.4m1.5,0v0c.2,0,.3,-.1,.3,-.4c0,-.2,-.1,-.3,-.3,-.3c-.2,0,-.4,.1,-.4,.3c0,.3,.2,.4,.4,.4m1.5,0v0c.2,0,.4,-.1,.4,-.4c0,-.2,-.2,-.3,-.4,-.3c-.2,0,-.4,.1,-.4,.3c0,.3,.2,.4,.4,.4m1.5,0v0c.2,0,.4,-.1,.4,-.4c0,-.2,-.2,-.3,-.4,-.3c-.2,0,-.4,.1,-.4,.3c0,.3,.2,.4,.4,.4m1.5,0v0c.2,0,.4,-.1,.4,-.4c0,-.2,-.2,-.3,-.4,-.3c-.2,0,-.4,.1,-.4,.3c0,.3,.2,.4,.4,.4m1.5,0v0c.2,0,.4,-.1,.4,-.4c0,-.2,-.2,-.3,-.4,-.3c-.2,0,-.4,.1,-.4,.3c0,.3,.2,.4,.4,.4m1.5,0v0c.2,0,.4,-.1,.4,-.4c0,-.2,-.2,-.3,-.4,-.3c-.2,0,-.4,.1,-.4,.3c0,.3,.2,.4,.4,.4m1.5,0v0c.2,0,.4,-.1,.4,-.4c0,-.2,-.2,-.3,-.4,-.3c-.2,0,-.4,.1,-.4,.3c0,.3,.2,.4,.4,.4m1.5,0v0c.2,0,.4,-.1,.4,-.4c0,-.2,-.2,-.3,-.4,-.3c-.2,0,-.3,.1,-.3,.3c0,.3,.1,.4,.3,.4Z" class="g7_24"/>
<path d="M254.9,870.2l.3,-.1l.1,-.3l-.1,-.2l-.3,-.1l-.3,.1l-.1,.2l.1,.3Zm52.8,0l.3,-.1l.1,-.3l-.1,-.2l-.3,-.1l-.2,.1l-.1,.2l.1,.3Z" class="g7_24"/>
<path d="M42.8,983.7v0c.4,0,.8,-.3,.8,-.8c0,-.4,-.4,-.7,-.8,-.7c-.4,0,-.8,.3,-.8,.7c0,.5,.4,.8,.8,.8m3.1,0v0c.4,0,.8,-.3,.8,-.8c0,-.4,-.4,-.7,-.8,-.7c-.4,0,-.8,.3,-.8,.7c0,.5,.4,.8,.8,.8m3.1,0v0c.4,0,.7,-.3,.7,-.8c0,-.4,-.3,-.7,-.7,-.7c-.5,0,-.8,.3,-.8,.7c0,.5,.3,.8,.8,.8m3,0v0c.5,0,.8,-.3,.8,-.8c0,-.4,-.3,-.7,-.8,-.7c-.4,0,-.7,.3,-.7,.7c0,.5,.3,.8,.7,.8m3.1,0v0c.4,0,.8,-.3,.8,-.8c0,-.4,-.4,-.7,-.8,-.7c-.4,0,-.8,.3,-.8,.7c0,.5,.4,.8,.8,.8m3.1,0v0c.4,0,.7,-.3,.7,-.8c0,-.4,-.3,-.7,-.7,-.7c-.4,0,-.8,.3,-.8,.7c0,.5,.4,.8,.8,.8m3.1,0v0c.4,0,.7,-.3,.7,-.8c0,-.4,-.3,-.7,-.7,-.7c-.5,0,-.8,.3,-.8,.7c0,.5,.3,.8,.8,.8m3,0v0c.5,0,.8,-.3,.8,-.8c0,-.4,-.3,-.7,-.8,-.7c-.4,0,-.7,.3,-.7,.7c0,.5,.3,.8,.7,.8m3.1,0v0c.4,0,.8,-.3,.8,-.8c0,-.4,-.4,-.7,-.8,-.7c-.4,0,-.8,.3,-.8,.7c0,.5,.4,.8,.8,.8m3.1,0v0c.4,0,.7,-.3,.7,-.8c0,-.4,-.3,-.7,-.7,-.7c-.4,0,-.8,.3,-.8,.7c0,.5,.4,.8,.8,.8m3,0v0c.5,0,.8,-.3,.8,-.8c0,-.4,-.3,-.7,-.8,-.7c-.4,0,-.7,.3,-.7,.7c0,.5,.3,.8,.7,.8m3.1,0v0c.4,0,.8,-.3,.8,-.8c0,-.4,-.4,-.7,-.8,-.7c-.4,0,-.7,.3,-.7,.7c0,.5,.3,.8,.7,.8m3.1,0v0c.4,0,.8,-.3,.8,-.8c0,-.4,-.4,-.7,-.8,-.7c-.4,0,-.8,.3,-.8,.7c0,.5,.4,.8,.8,.8m3.1,0v0c.4,0,.7,-.3,.7,-.8c0,-.4,-.3,-.7,-.7,-.7c-.5,0,-.8,.3,-.8,.7c0,.5,.3,.8,.8,.8m3,0v0c.5,0,.8,-.3,.8,-.8c0,-.4,-.3,-.7,-.8,-.7c-.4,0,-.7,.3,-.7,.7c0,.5,.3,.8,.7,.8m3.1,0v0c.4,0,.8,-.3,.8,-.8c0,-.4,-.4,-.7,-.8,-.7c-.4,0,-.7,.3,-.7,.7c0,.5,.3,.8,.7,.8m3.1,0v0c.4,0,.8,-.3,.8,-.8c0,-.4,-.4,-.7,-.8,-.7c-.4,0,-.8,.3,-.8,.7c0,.5,.4,.8,.8,.8m3.1,0v0c.4,0,.7,-.3,.7,-.8c0,-.4,-.3,-.7,-.7,-.7c-.5,0,-.8,.3,-.8,.7c0,.5,.3,.8,.8,.8m3,0v0c.5,0,.8,-.3,.8,-.8c0,-.4,-.3,-.7,-.8,-.7c-.4,0,-.7,.3,-.7,.7c0,.5,.3,.8,.7,.8m3.1,0v0c.4,0,.8,-.3,.8,-.8c0,-.4,-.4,-.7,-.8,-.7c-.4,0,-.8,.3,-.8,.7c0,.5,.4,.8,.8,.8m3.1,0v0c.4,0,.7,-.3,.7,-.8c0,-.4,-.3,-.7,-.7,-.7c-.4,0,-.8,.3,-.8,.7c0,.5,.4,.8,.8,.8m3.1,0v0c.4,0,.7,-.3,.7,-.8c0,-.4,-.3,-.7,-.7,-.7c-.5,0,-.8,.3,-.8,.7c0,.5,.3,.8,.8,.8m3,0v0c.5,0,.8,-.3,.8,-.8c0,-.4,-.3,-.7,-.8,-.7c-.4,0,-.7,.3,-.7,.7c0,.5,.3,.8,.7,.8m3.1,0v0c.4,0,.8,-.3,.8,-.8c0,-.4,-.4,-.7,-.8,-.7c-.4,0,-.8,.3,-.8,.7c0,.5,.4,.8,.8,.8m3.1,0v0c.4,0,.7,-.3,.7,-.8c0,-.4,-.3,-.7,-.7,-.7c-.4,0,-.8,.3,-.8,.7c0,.5,.4,.8,.8,.8m3.1,0v0c.4,0,.7,-.3,.7,-.8c0,-.4,-.3,-.7,-.7,-.7c-.5,0,-.8,.3,-.8,.7c0,.5,.3,.8,.8,.8m3,0v0c.4,0,.8,-.3,.8,-.8c0,-.4,-.4,-.7,-.8,-.7c-.4,0,-.7,.3,-.7,.7c0,.5,.3,.8,.7,.8m3.1,0v0c.4,0,.8,-.3,.8,-.8c0,-.4,-.4,-.7,-.8,-.7c-.4,0,-.8,.3,-.8,.7c0,.5,.4,.8,.8,.8m3.1,0v0c.4,0,.7,-.3,.7,-.8c0,-.4,-.3,-.7,-.7,-.7c-.4,0,-.8,.3,-.8,.7c0,.5,.4,.8,.8,.8m3,0v0c.5,0,.8,-.3,.8,-.8c0,-.4,-.3,-.7,-.8,-.7c-.4,0,-.7,.3,-.7,.7c0,.5,.3,.8,.7,.8m3.1,0v0c.4,0,.8,-.3,.8,-.8c0,-.4,-.4,-.7,-.8,-.7c-.4,0,-.7,.3,-.7,.7c0,.5,.3,.8,.7,.8m3.1,0v0c.4,0,.8,-.3,.8,-.8c0,-.4,-.4,-.7,-.8,-.7c-.4,0,-.8,.3,-.8,.7c0,.5,.4,.8,.8,.8m3.1,0v0c.4,0,.7,-.3,.7,-.8c0,-.4,-.3,-.7,-.7,-.7c-.5,0,-.8,.3,-.8,.7c0,.5,.3,.8,.8,.8m3,0v0c.5,0,.8,-.3,.8,-.8c0,-.4,-.3,-.7,-.8,-.7c-.4,0,-.7,.3,-.7,.7c0,.5,.3,.8,.7,.8m3.1,0v0c.4,0,.8,-.3,.8,-.8c0,-.4,-.4,-.7,-.8,-.7c-.4,0,-.7,.3,-.7,.7c0,.5,.3,.8,.7,.8m3.1,0v0c.4,0,.8,-.3,.8,-.8c0,-.4,-.4,-.7,-.8,-.7c-.4,0,-.8,.3,-.8,.7c0,.5,.4,.8,.8,.8m3.1,0v0c.4,0,.7,-.3,.7,-.8c0,-.4,-.3,-.7,-.7,-.7c-.5,0,-.8,.3,-.8,.7c0,.5,.3,.8,.8,.8m3,0v0c.5,0,.8,-.3,.8,-.8c0,-.4,-.3,-.7,-.8,-.7c-.4,0,-.7,.3,-.7,.7c0,.5,.3,.8,.7,.8m3.1,0v0c.4,0,.8,-.3,.8,-.8c0,-.4,-.4,-.7,-.8,-.7c-.4,0,-.8,.3,-.8,.7c0,.5,.4,.8,.8,.8m3.1,0v0c.4,0,.7,-.3,.7,-.8c0,-.4,-.3,-.7,-.7,-.7c-.4,0,-.8,.3,-.8,.7c0,.5,.4,.8,.8,.8m3.1,0v0c.4,0,.7,-.3,.7,-.8c0,-.4,-.3,-.7,-.7,-.7c-.5,0,-.8,.3,-.8,.7c0,.5,.3,.8,.8,.8m3,0v0c.5,0,.8,-.3,.8,-.8c0,-.4,-.3,-.7,-.8,-.7c-.4,0,-.7,.3,-.7,.7c0,.5,.3,.8,.7,.8m3.1,0v0c.4,0,.8,-.3,.8,-.8c0,-.4,-.4,-.7,-.8,-.7c-.4,0,-.8,.3,-.8,.7c0,.5,.4,.8,.8,.8m3.1,0v0c.4,0,.7,-.3,.7,-.8c0,-.4,-.3,-.7,-.7,-.7c-.4,0,-.8,.3,-.8,.7c0,.5,.4,.8,.8,.8m3.1,0v0c.4,0,.7,-.3,.7,-.8c0,-.4,-.3,-.7,-.7,-.7c-.5,0,-.8,.3,-.8,.7c0,.5,.3,.8,.8,.8m3,0v0c.4,0,.8,-.3,.8,-.8c0,-.4,-.4,-.7,-.8,-.7c-.4,0,-.7,.3,-.7,.7c0,.5,.3,.8,.7,.8m3.1,0v0c.4,0,.8,-.3,.8,-.8c0,-.4,-.4,-.7,-.8,-.7c-.4,0,-.8,.3,-.8,.7c0,.5,.4,.8,.8,.8m3.1,0v0c.4,0,.7,-.3,.7,-.8c0,-.4,-.3,-.7,-.7,-.7c-.5,0,-.8,.3,-.8,.7c0,.5,.3,.8,.8,.8m3,0v0c.5,0,.8,-.3,.8,-.8c0,-.4,-.3,-.7,-.8,-.7c-.4,0,-.7,.3,-.7,.7c0,.5,.3,.8,.7,.8m3.1,0v0c.4,0,.8,-.3,.8,-.8c0,-.4,-.4,-.7,-.8,-.7c-.4,0,-.7,.3,-.7,.7c0,.5,.3,.8,.7,.8m3.1,0v0c.4,0,.8,-.3,.8,-.8c0,-.4,-.4,-.7,-.8,-.7c-.4,0,-.8,.3,-.8,.7c0,.5,.4,.8,.8,.8m3.1,0v0c.4,0,.7,-.3,.7,-.8c0,-.4,-.3,-.7,-.7,-.7c-.5,0,-.8,.3,-.8,.7c0,.5,.3,.8,.8,.8m3,0v0c.5,0,.8,-.3,.8,-.8c0,-.4,-.3,-.7,-.8,-.7c-.4,0,-.7,.3,-.7,.7c0,.5,.3,.8,.7,.8m3.1,0v0c.4,0,.8,-.3,.8,-.8c0,-.4,-.4,-.7,-.8,-.7c-.4,0,-.8,.3,-.8,.7c0,.5,.4,.8,.8,.8m3.1,0v0c.4,0,.8,-.3,.8,-.8c0,-.4,-.4,-.7,-.8,-.7c-.4,0,-.8,.3,-.8,.7c0,.5,.4,.8,.8,.8m3.1,0v0c.4,0,.7,-.3,.7,-.8c0,-.4,-.3,-.7,-.7,-.7c-.5,0,-.8,.3,-.8,.7c0,.5,.3,.8,.8,.8m3,0v0c.5,0,.8,-.3,.8,-.8c0,-.4,-.3,-.7,-.8,-.7c-.4,0,-.7,.3,-.7,.7c0,.5,.3,.8,.7,.8m3.1,0v0c.4,0,.8,-.3,.8,-.8c0,-.4,-.4,-.7,-.8,-.7c-.4,0,-.8,.3,-.8,.7c0,.5,.4,.8,.8,.8m3.1,0v0c.4,0,.7,-.3,.7,-.8c0,-.4,-.3,-.7,-.7,-.7c-.4,0,-.8,.3,-.8,.7c0,.5,.4,.8,.8,.8m3.1,0v0c.4,0,.7,-.3,.7,-.8c0,-.4,-.3,-.7,-.7,-.7c-.5,0,-.8,.3,-.8,.7c0,.5,.3,.8,.8,.8m3,0v0c.5,0,.8,-.3,.8,-.8c0,-.4,-.3,-.7,-.8,-.7c-.4,0,-.7,.3,-.7,.7c0,.5,.3,.8,.7,.8m3.1,0v0c.4,0,.8,-.3,.8,-.8c0,-.4,-.4,-.7,-.8,-.7c-.4,0,-.8,.3,-.8,.7c0,.5,.4,.8,.8,.8m3.1,0v0c.4,0,.7,-.3,.7,-.8c0,-.4,-.3,-.7,-.7,-.7c-.4,0,-.8,.3,-.8,.7c0,.5,.4,.8,.8,.8m3,0v0c.5,0,.8,-.3,.8,-.8c0,-.4,-.3,-.7,-.8,-.7c-.4,0,-.7,.3,-.7,.7c0,.5,.3,.8,.7,.8m3.1,0v0c.4,0,.8,-.3,.8,-.8c0,-.4,-.4,-.7,-.8,-.7c-.4,0,-.7,.3,-.7,.7c0,.5,.3,.8,.7,.8m3.1,0v0c.4,0,.8,-.3,.8,-.8c0,-.4,-.4,-.7,-.8,-.7c-.4,0,-.8,.3,-.8,.7c0,.5,.4,.8,.8,.8m3.1,0v0c.4,0,.7,-.3,.7,-.8c0,-.4,-.3,-.7,-.7,-.7c-.5,0,-.8,.3,-.8,.7c0,.5,.3,.8,.8,.8m3,0v0c.5,0,.8,-.3,.8,-.8c0,-.4,-.3,-.7,-.8,-.7c-.4,0,-.7,.3,-.7,.7c0,.5,.3,.8,.7,.8m3.1,0v0c.4,0,.8,-.3,.8,-.8c0,-.4,-.4,-.7,-.8,-.7c-.4,0,-.7,.3,-.7,.7c0,.5,.3,.8,.7,.8Z" class="g7_24"/>
<path d="M39.7,983.7c.2,0,.4,-.1,.6,-.2c.1,-.2,.2,-.4,.2,-.6c0,-.2,-.1,-.4,-.2,-.5c-.2,-.1,-.4,-.2,-.6,-.2c-.2,0,-.4,.1,-.5,.2c-.1,.1,-.2,.3,-.2,.5c0,.2,.1,.4,.2,.6c.1,.1,.3,.2,.5,.2m215.2,0c.2,0,.4,-.1,.5,-.2c.2,-.2,.3,-.4,.3,-.6c0,-.2,-.1,-.4,-.3,-.5c-.1,-.1,-.3,-.2,-.5,-.2c-.2,0,-.4,.1,-.5,.2c-.2,.1,-.3,.3,-.3,.5c0,.2,.1,.4,.3,.6c.1,.1,.3,.2,.5,.2Z" class="g7_24"/>
<path d="M258,983.7v0c.4,0,.7,-.3,.7,-.8c0,-.4,-.3,-.7,-.7,-.7c-.4,0,-.8,.3,-.8,.7c0,.5,.4,.8,.8,.8m3.1,0v0c.4,0,.7,-.3,.7,-.8c0,-.4,-.3,-.7,-.7,-.7c-.5,0,-.8,.3,-.8,.7c0,.5,.3,.8,.8,.8m3.1,0v0c.4,0,.7,-.3,.7,-.8c0,-.4,-.3,-.7,-.7,-.7c-.5,0,-.8,.3,-.8,.7c0,.5,.3,.8,.8,.8m3,0v0c.5,0,.8,-.3,.8,-.8c0,-.4,-.3,-.7,-.8,-.7c-.4,0,-.7,.3,-.7,.7c0,.5,.3,.8,.7,.8m3.1,0v0c.4,0,.8,-.3,.8,-.8c0,-.4,-.4,-.7,-.8,-.7c-.4,0,-.7,.3,-.7,.7c0,.5,.3,.8,.7,.8m3.1,0v0c.4,0,.8,-.3,.8,-.8c0,-.4,-.4,-.7,-.8,-.7c-.4,0,-.8,.3,-.8,.7c0,.5,.4,.8,.8,.8m3.1,0v0c.4,0,.8,-.3,.8,-.8c0,-.4,-.4,-.7,-.8,-.7c-.4,0,-.8,.3,-.8,.7c0,.5,.4,.8,.8,.8m3.1,0v0c.4,0,.7,-.3,.7,-.8c0,-.4,-.3,-.7,-.7,-.7c-.4,0,-.8,.3,-.8,.7c0,.5,.4,.8,.8,.8m3.1,0v0c.4,0,.7,-.3,.7,-.8c0,-.4,-.3,-.7,-.7,-.7c-.5,0,-.8,.3,-.8,.7c0,.5,.3,.8,.8,.8m3.1,0v0c.4,0,.7,-.3,.7,-.8c0,-.4,-.3,-.7,-.7,-.7c-.5,0,-.8,.3,-.8,.7c0,.5,.3,.8,.8,.8m3,0v0c.5,0,.8,-.3,.8,-.8c0,-.4,-.3,-.7,-.8,-.7c-.4,0,-.7,.3,-.7,.7c0,.5,.3,.8,.7,.8m3.1,0v0c.5,0,.8,-.3,.8,-.8c0,-.4,-.3,-.7,-.8,-.7c-.4,0,-.7,.3,-.7,.7c0,.5,.3,.8,.7,.8m3.1,0v0c.4,0,.8,-.3,.8,-.8c0,-.4,-.4,-.7,-.8,-.7c-.4,0,-.7,.3,-.7,.7c0,.5,.3,.8,.7,.8m3.1,0v0c.4,0,.8,-.3,.8,-.8c0,-.4,-.4,-.7,-.8,-.7c-.4,0,-.8,.3,-.8,.7c0,.5,.4,.8,.8,.8m3.1,0v0c.4,0,.8,-.3,.8,-.8c0,-.4,-.4,-.7,-.8,-.7c-.4,0,-.8,.3,-.8,.7c0,.5,.4,.8,.8,.8m3.1,0v0c.4,0,.7,-.3,.7,-.8c0,-.4,-.3,-.7,-.7,-.7c-.4,0,-.8,.3,-.8,.7c0,.5,.4,.8,.8,.8Z" class="g7_24"/>
<path d="M254.9,983.7c.2,0,.4,-.1,.5,-.2c.2,-.2,.3,-.4,.3,-.6c0,-.2,-.1,-.4,-.3,-.5c-.1,-.1,-.3,-.2,-.5,-.2c-.2,0,-.4,.1,-.6,.2c-.1,.1,-.2,.3,-.2,.5c0,.2,.1,.4,.2,.6c.2,.1,.4,.2,.6,.2m52.5,0c.2,0,.4,-.1,.5,-.2c.1,-.2,.2,-.4,.2,-.6c0,-.2,-.1,-.4,-.2,-.5c-.1,-.1,-.3,-.2,-.5,-.2c-.2,0,-.4,.1,-.6,.2c-.1,.1,-.2,.3,-.2,.5c0,.2,.1,.4,.2,.6c.2,.1,.4,.2,.6,.2Z" class="g7_24"/>
<path d="M249.4,1189.6v-26h-.8v26Z" class="g8_24"/>
<path d="M180.5,1162.8v-22.4h-.7v22.4Z" class="g8_24"/>
<path d="M180.5,1189.6v-26.8h-.7v26.8Z" class="g8_24"/>
<path d="M180.5,1209.5v-17.6h-.7v17.6Z" class="g8_24"/>
<path d="M180.9,1209.9v0l.2,-.2l-.2,-.2l-.2,.2Zm.8,0v0l.2,-.2l-.2,-.2l-.2,.2Zm.8,0v0l.1,-.2l-.1,-.2l-.2,.2Zm.7,0v0l.2,-.2l-.2,-.2l-.2,.2Zm.8,0v0l.2,-.2l-.2,-.2l-.2,.2Zm.7,0v0l.2,-.2l-.2,-.2l-.1,.2Zm.8,0v0l.2,-.2l-.2,-.2l-.2,.2Zm.8,0v0l.2,-.2l-.2,-.2l-.2,.2Zm.7,0v0l.2,-.2l-.2,-.2l-.1,.2Zm.8,0v0l.2,-.2l-.2,-.2l-.2,.2Zm.8,0v0l.2,-.2l-.2,-.2l-.2,.2Zm.7,0v0l.2,-.2l-.2,-.2l-.2,.2Zm.8,0v0l.2,-.2l-.2,-.2l-.2,.2Zm.8,0v0l.2,-.2l-.2,-.2l-.2,.2Zm.7,0v0l.2,-.2l-.2,-.2l-.2,.2Zm.8,0v0l.2,-.2l-.2,-.2l-.2,.2Zm.8,0v0l.2,-.2l-.2,-.2l-.2,.2Zm.7,0v0l.2,-.2l-.2,-.2l-.2,.2Zm.8,0v0l.2,-.2l-.2,-.2l-.2,.2Zm.8,0v0l.2,-.2l-.2,-.2l-.2,.2Zm.7,0v0l.2,-.2l-.2,-.2l-.2,.2Zm.8,0v0l.2,-.2l-.2,-.2l-.2,.2Zm.8,0v0l.1,-.2l-.1,-.2l-.2,.2Zm.7,0v0l.2,-.2l-.2,-.2l-.2,.2Zm.8,0v0l.2,-.2l-.2,-.2l-.2,.2Zm.8,0v0l.1,-.2l-.1,-.2l-.2,.2Zm.7,0v0l.2,-.2l-.2,-.2l-.2,.2Zm.8,0v0l.2,-.2l-.2,-.2l-.2,.2Zm.7,0v0l.2,-.2l-.2,-.2l-.1,.2Zm.8,0v0l.2,-.2l-.2,-.2l-.2,.2Zm.8,0v0l.2,-.2l-.2,-.2l-.2,.2Zm.7,0v0l.2,-.2l-.2,-.2l-.2,.2Zm.8,0v0l.2,-.2l-.2,-.2l-.2,.2Zm.8,0v0l.2,-.2l-.2,-.2l-.2,.2Zm.7,0v0l.2,-.2l-.2,-.2l-.2,.2Zm.8,0v0l.2,-.2l-.2,-.2l-.2,.2Zm.8,0v0l.2,-.2l-.2,-.2l-.2,.2Zm.7,0v0l.2,-.2l-.2,-.2l-.2,.2Zm.8,0v0l.2,-.2l-.2,-.2l-.2,.2Zm.8,0v0l.2,-.2l-.2,-.2l-.2,.2Zm.7,0v0l.2,-.2l-.2,-.2l-.2,.2Zm.8,0v0l.2,-.2l-.2,-.2l-.2,.2Zm.8,0v0l.1,-.2l-.1,-.2l-.2,.2Zm.7,0v0l.2,-.2l-.2,-.2l-.2,.2Zm.8,0v0l.2,-.2l-.2,-.2l-.2,.2Zm.8,0v0l.1,-.2l-.1,-.2l-.2,.2Zm.7,0v0l.2,-.2l-.2,-.2l-.2,.2Zm.8,0v0l.2,-.2l-.2,-.2l-.2,.2Zm.7,0v0l.2,-.2l-.2,-.2l-.1,.2Zm.8,0v0l.2,-.2l-.2,-.2l-.2,.2Zm.8,0v0l.2,-.2l-.2,-.2l-.2,.2Zm.7,0v0l.2,-.2l-.2,-.2l-.1,.2Zm.8,0v0l.2,-.2l-.2,-.2l-.2,.2Zm.8,0v0l.2,-.2l-.2,-.2l-.2,.2Zm.7,0v0l.2,-.2l-.2,-.2l-.2,.2Zm.8,0v0l.2,-.2l-.2,-.2l-.2,.2Zm.8,0v0l.2,-.2l-.2,-.2l-.2,.2Zm.7,0v0l.2,-.2l-.2,-.2l-.2,.2Zm.8,0v0l.2,-.2l-.2,-.2l-.2,.2Zm.8,0v0l.2,-.2l-.2,-.2l-.2,.2Zm.7,0v0l.2,-.2l-.2,-.2l-.2,.2Zm.8,0v0l.2,-.2l-.2,-.2l-.2,.2Zm.8,0v0l.1,-.2l-.1,-.2l-.2,.2Zm.7,0v0l.2,-.2l-.2,-.2l-.2,.2Zm.8,0v0l.2,-.2l-.2,-.2l-.2,.2Zm.8,0v0l.1,-.2l-.1,-.2l-.2,.2Zm.7,0v0l.2,-.2l-.2,-.2l-.2,.2Zm.8,0v0l.2,-.2l-.2,-.2l-.2,.2Zm.7,0v0l.2,-.2l-.2,-.2l-.1,.2Zm.8,0v0l.2,-.2l-.2,-.2l-.2,.2Zm.8,0v0l.2,-.2l-.2,-.2l-.2,.2Zm.7,0v0l.2,-.2l-.2,-.2l-.1,.2Zm.8,0v0l.2,-.2l-.2,-.2l-.2,.2Zm.8,0v0l.2,-.2l-.2,-.2l-.2,.2Zm.7,0v0l.2,-.2l-.2,-.2l-.2,.2Zm.8,0v0l.2,-.2l-.2,-.2l-.2,.2Zm.8,0v0l.2,-.2l-.2,-.2l-.2,.2Zm.7,0v0l.2,-.2l-.2,-.2l-.2,.2Zm.8,0v0l.2,-.2l-.2,-.2l-.2,.2Zm.8,0v0l.2,-.2l-.2,-.2l-.2,.2Zm.7,0v0l.2,-.2l-.2,-.2l-.2,.2Zm.8,0v0l.2,-.2l-.2,-.2l-.2,.2Zm.8,0v0l.2,-.2l-.2,-.2l-.2,.2Zm.7,0v0l.2,-.2l-.2,-.2l-.2,.2Zm.8,0v0l.2,-.2l-.2,-.2l-.2,.2Zm.8,0v0l.1,-.2l-.1,-.2l-.2,.2Zm.7,0v0l.2,-.2l-.2,-.2l-.2,.2Zm.8,0v0l.2,-.2l-.2,-.2l-.2,.2Zm.8,0v0l.1,-.2l-.1,-.2l-.2,.2Z" class="g3_24"/>
<path d="M180.2,1209.9l.1,-.1v-.2l-.1,-.1l-.2,.1v.2Zm68.8,0l.2,-.1v-.2l-.2,-.1l-.1,.1l-.1,.1l.1,.1Z" class="g3_24"/>
<path d="M249.8,1209.9v0l.2,-.2l-.2,-.2l-.2,.2Zm.7,0v0l.2,-.2l-.2,-.2l-.1,.2Zm.8,0v0l.2,-.2l-.2,-.2l-.2,.2Zm.8,0v0l.2,-.2l-.2,-.2l-.2,.2Zm.7,0v0l.2,-.2l-.2,-.2l-.1,.2Zm.8,0v0l.2,-.2l-.2,-.2l-.2,.2Zm.8,0v0l.2,-.2l-.2,-.2l-.2,.2Zm.7,0v0l.2,-.2l-.2,-.2l-.2,.2Zm.8,0v0l.2,-.2l-.2,-.2l-.2,.2Zm.8,0v0l.2,-.2l-.2,-.2l-.2,.2Zm.7,0v0l.2,-.2l-.2,-.2l-.2,.2Zm.8,0v0l.2,-.2l-.2,-.2l-.2,.2Zm.8,0v0l.2,-.2l-.2,-.2l-.2,.2Zm.7,0v0l.2,-.2l-.2,-.2l-.2,.2Zm.8,0v0l.2,-.2l-.2,-.2l-.2,.2Zm.8,0v0l.2,-.2l-.2,-.2l-.2,.2Zm.7,0v0l.2,-.2l-.2,-.2l-.2,.2Zm.8,0v0l.2,-.2l-.2,-.2l-.2,.2Zm.8,0v0l.1,-.2l-.1,-.2l-.2,.2Zm.7,0v0l.2,-.2l-.2,-.2l-.2,.2Zm.8,0v0l.2,-.2l-.2,-.2l-.2,.2Zm.8,0v0l.1,-.2l-.1,-.2l-.2,.2Zm.7,0v0l.2,-.2l-.2,-.2l-.2,.2Zm.8,0v0l.2,-.2l-.2,-.2l-.2,.2Zm.7,0v0l.2,-.2l-.2,-.2l-.1,.2Zm.8,0v0l.2,-.2l-.2,-.2l-.2,.2Zm.8,0v0l.2,-.2l-.2,-.2l-.2,.2Zm.7,0v0l.2,-.2l-.2,-.2l-.1,.2Zm.8,0v0l.2,-.2l-.2,-.2l-.2,.2Zm.8,0v0l.2,-.2l-.2,-.2l-.2,.2Zm.7,0v0l.2,-.2l-.2,-.2l-.2,.2Zm.8,0v0l.2,-.2l-.2,-.2l-.2,.2Zm.8,0v0l.2,-.2l-.2,-.2l-.2,.2Zm.7,0v0l.2,-.2l-.2,-.2l-.2,.2Zm.8,0v0l.2,-.2l-.2,-.2l-.2,.2Zm.8,0v0l.2,-.2l-.2,-.2l-.2,.2Zm.7,0v0l.2,-.2l-.2,-.2l-.2,.2Zm.8,0v0l.2,-.2l-.2,-.2l-.2,.2Zm.8,0v0l.2,-.2l-.2,-.2l-.2,.2Zm.7,0v0l.2,-.2l-.2,-.2l-.2,.2Zm.8,0v0l.2,-.2l-.2,-.2l-.2,.2Zm.8,0v0l.1,-.2l-.1,-.2l-.2,.2Zm.7,0v0l.2,-.2l-.2,-.2l-.2,.2Zm.8,0v0l.2,-.2l-.2,-.2l-.2,.2Zm.8,0v0l.1,-.2l-.1,-.2l-.2,.2Zm.7,0v0l.2,-.2l-.2,-.2l-.2,.2Zm.8,0v0l.2,-.2l-.2,-.2l-.2,.2Zm.7,0v0l.2,-.2l-.2,-.2l-.1,.2Zm.8,0v0l.2,-.2l-.2,-.2l-.2,.2Zm.8,0v0l.2,-.2l-.2,-.2l-.2,.2Zm.7,0v0l.2,-.2l-.2,-.2l-.1,.2Zm.8,0v0l.2,-.2l-.2,-.2l-.2,.2Zm.8,0v0l.2,-.2l-.2,-.2l-.2,.2Zm.7,0v0l.2,-.2l-.2,-.2l-.2,.2Zm.8,0v0l.2,-.2l-.2,-.2l-.2,.2Zm.8,0v0l.2,-.2l-.2,-.2l-.2,.2Zm.7,0v0l.2,-.2l-.2,-.2l-.2,.2Zm.8,0v0l.2,-.2l-.2,-.2l-.2,.2Zm.8,0v0l.2,-.2l-.2,-.2l-.2,.2Zm.7,0v0l.2,-.2l-.2,-.2l-.2,.2Zm.8,0v0l.2,-.2l-.2,-.2l-.2,.2Zm.8,0v0l.2,-.2l-.2,-.2l-.2,.2Zm.7,0v0l.2,-.2l-.2,-.2l-.2,.2Zm.8,0v0l.2,-.2l-.2,-.2l-.2,.2Zm.8,0v0l.1,-.2l-.1,-.2l-.2,.2Zm.7,0v0l.2,-.2l-.2,-.2l-.2,.2Zm.8,0v0l.2,-.2l-.2,-.2l-.2,.2Zm.8,0v0l.1,-.2l-.1,-.2l-.2,.2Zm.7,0v0l.2,-.2l-.2,-.2l-.2,.2Zm.8,0v0l.2,-.2l-.2,-.2l-.2,.2Zm.7,0v0l.2,-.2l-.2,-.2l-.1,.2Zm.8,0v0l.2,-.2l-.2,-.2l-.2,.2Zm.8,0v0l.2,-.2l-.2,-.2l-.2,.2Zm.7,0v0l.2,-.2l-.2,-.2l-.1,.2Zm.8,0v0l.2,-.2l-.2,-.2l-.2,.2Zm.8,0v0l.2,-.2l-.2,-.2l-.2,.2Z" class="g3_24"/>
<path d="M249,1209.9l.2,-.1v-.2l-.2,-.1l-.1,.1l-.1,.1l.1,.1Zm58.9,0l.2,-.1v-.2l-.2,-.1l-.1,.1l-.1,.1l.1,.1Z" class="g3_24"/>
<path d="M180.5,1243.2v-33.3h-.7v33.3Z" class="g8_24"/>
<path clip-path="url(#cw_24)" d="M38.9,1191.9H180.2v-2.3H38.9Z" class="g3_24"/>
<path d="M39.8,1209.9v0l.2,-.2l-.2,-.2l-.2,.2Zm.8,0v0l.2,-.2l-.2,-.2l-.2,.2Zm.7,0v0l.2,-.2l-.2,-.2l-.2,.2Zm.8,0v0l.2,-.2l-.2,-.2l-.2,.2Zm.8,0v0l.2,-.2l-.2,-.2l-.2,.2Zm.7,0v0l.2,-.2l-.2,-.2l-.2,.2Zm.8,0v0l.2,-.2l-.2,-.2l-.2,.2Zm.8,0v0l.1,-.2l-.1,-.2l-.2,.2Zm.7,0v0l.2,-.2l-.2,-.2l-.2,.2Zm.8,0v0l.2,-.2l-.2,-.2l-.2,.2Zm.7,0v0l.2,-.2l-.2,-.2l-.1,.2Zm.8,0v0l.2,-.2l-.2,-.2l-.2,.2Zm.8,0v0l.2,-.2l-.2,-.2l-.2,.2Zm.7,0v0l.2,-.2l-.2,-.2l-.2,.2Zm.8,0v0l.2,-.2l-.2,-.2l-.2,.2Zm.8,0v0l.1,-.2l-.1,-.2l-.2,.2Zm.7,0v0l.2,-.2l-.2,-.2l-.2,.2Zm.8,0v0l.2,-.2l-.2,-.2l-.2,.2Zm.7,0v0l.2,-.2l-.2,-.2l-.1,.2Zm.8,0v0l.2,-.2l-.2,-.2l-.2,.2Zm.8,0v0l.2,-.2l-.2,-.2l-.2,.2Zm.7,0v0l.2,-.2l-.2,-.2l-.2,.2Zm.8,0v0l.2,-.2l-.2,-.2l-.2,.2Zm.8,0v0l.1,-.2l-.1,-.2l-.2,.2Zm.7,0v0l.2,-.2l-.2,-.2l-.2,.2Zm.8,0v0l.2,-.2l-.2,-.2l-.2,.2Zm.7,0v0l.2,-.2l-.2,-.2l-.1,.2Zm.8,0v0l.2,-.2l-.2,-.2l-.2,.2Zm.8,0v0l.2,-.2l-.2,-.2l-.2,.2Zm.7,0v0l.2,-.2l-.2,-.2l-.2,.2Zm.8,0v0l.2,-.2l-.2,-.2l-.2,.2Zm.8,0v0l.2,-.2l-.2,-.2l-.2,.2Zm.7,0v0l.2,-.2l-.2,-.2l-.2,.2Zm.8,0v0l.2,-.2l-.2,-.2l-.2,.2Zm.7,0v0l.2,-.2l-.2,-.2l-.1,.2Zm.8,0v0l.2,-.2l-.2,-.2l-.2,.2Zm.8,0v0l.2,-.2l-.2,-.2l-.2,.2Zm.7,0v0l.2,-.2l-.2,-.2l-.2,.2Zm.8,0v0l.2,-.2l-.2,-.2l-.2,.2Zm.8,0v0l.2,-.2l-.2,-.2l-.2,.2Zm.7,0v0l.2,-.2l-.2,-.2l-.2,.2Zm.8,0v0l.2,-.2l-.2,-.2l-.2,.2Zm.8,0v0l.1,-.2l-.1,-.2l-.2,.2Zm.7,0v0l.2,-.2l-.2,-.2l-.2,.2Zm.8,0v0l.2,-.2l-.2,-.2l-.2,.2Zm.7,0v0l.2,-.2l-.2,-.2l-.2,.2Zm.8,0v0l.2,-.2l-.2,-.2l-.2,.2Zm.8,0v0l.2,-.2l-.2,-.2l-.2,.2Zm.7,0v0l.2,-.2l-.2,-.2l-.2,.2Zm.8,0v0l.2,-.2l-.2,-.2l-.2,.2Zm.8,0v0l.1,-.2l-.1,-.2l-.2,.2Zm.7,0v0l.2,-.2l-.2,-.2l-.2,.2Zm.8,0v0l.2,-.2l-.2,-.2l-.2,.2Zm.7,0v0l.2,-.2l-.2,-.2l-.2,.2Zm.8,0v0l.2,-.2l-.2,-.2l-.2,.2Zm.8,0v0l.2,-.2l-.2,-.2l-.2,.2Zm.7,0v0l.2,-.2l-.2,-.2l-.2,.2Zm.8,0v0l.2,-.2l-.2,-.2l-.2,.2Zm.8,0v0l.1,-.2l-.1,-.2l-.2,.2Zm.7,0v0l.2,-.2l-.2,-.2l-.2,.2Zm.8,0v0l.2,-.2l-.2,-.2l-.2,.2Zm.7,0v0l.2,-.2l-.2,-.2l-.1,.2Zm.8,0v0l.2,-.2l-.2,-.2l-.2,.2Zm.8,0v0l.2,-.2l-.2,-.2l-.2,.2Zm.7,0v0l.2,-.2l-.2,-.2l-.2,.2Zm.8,0v0l.2,-.2l-.2,-.2l-.2,.2Zm.8,0v0l.1,-.2l-.1,-.2l-.2,.2Zm.7,0v0l.2,-.2l-.2,-.2l-.2,.2Zm.8,0v0l.2,-.2l-.2,-.2l-.2,.2Zm.7,0v0l.2,-.2l-.2,-.2l-.1,.2Zm.8,0v0l.2,-.2l-.2,-.2l-.2,.2Zm.8,0v0l.2,-.2l-.2,-.2l-.2,.2Zm.7,0v0l.2,-.2l-.2,-.2l-.2,.2Zm.8,0v0l.2,-.2l-.2,-.2l-.2,.2Zm.8,0v0l.1,-.2l-.1,-.2l-.2,.2Zm.7,0v0l.2,-.2l-.2,-.2l-.2,.2Zm.8,0v0l.2,-.2l-.2,-.2l-.2,.2Zm.7,0v0l.2,-.2l-.2,-.2l-.1,.2Zm.8,0v0l.2,-.2l-.2,-.2l-.2,.2Zm.8,0v0l.2,-.2l-.2,-.2l-.2,.2Zm.7,0v0l.2,-.2l-.2,-.2l-.2,.2Zm.8,0v0l.2,-.2l-.2,-.2l-.2,.2Zm.8,0v0l.2,-.2l-.2,-.2l-.2,.2Zm.7,0v0l.2,-.2l-.2,-.2l-.2,.2Zm.8,0v0l.2,-.2l-.2,-.2l-.2,.2Zm.7,0v0l.2,-.2l-.2,-.2l-.1,.2Zm.8,0v0l.2,-.2l-.2,-.2l-.2,.2Zm.8,0v0l.2,-.2l-.2,-.2l-.2,.2Zm.7,0v0l.2,-.2l-.2,-.2l-.2,.2Zm.8,0v0l.2,-.2l-.2,-.2l-.2,.2Zm.8,0v0l.2,-.2l-.2,-.2l-.2,.2Zm.7,0v0l.2,-.2l-.2,-.2l-.2,.2Zm.8,0v0l.2,-.2l-.2,-.2l-.2,.2Zm.7,0v0l.2,-.2l-.2,-.2l-.1,.2Zm.8,0v0l.2,-.2l-.2,-.2l-.2,.2Zm.8,0v0l.2,-.2l-.2,-.2l-.2,.2Zm.7,0v0l.2,-.2l-.2,-.2l-.2,.2Zm.8,0v0l.2,-.2l-.2,-.2l-.2,.2Zm.8,0v0l.2,-.2l-.2,-.2l-.2,.2Zm.7,0v0l.2,-.2l-.2,-.2l-.2,.2Zm.8,0v0l.2,-.2l-.2,-.2l-.2,.2Zm.8,0v0l.1,-.2l-.1,-.2l-.2,.2Zm.7,0v0l.2,-.2l-.2,-.2l-.2,.2Zm.8,0v0l.2,-.2l-.2,-.2l-.2,.2Zm.7,0v0l.2,-.2l-.2,-.2l-.2,.2Zm.8,0v0l.2,-.2l-.2,-.2l-.2,.2Zm.8,0v0l.2,-.2l-.2,-.2l-.2,.2Zm.7,0v0l.2,-.2l-.2,-.2l-.2,.2Zm.8,0v0l.2,-.2l-.2,-.2l-.2,.2Zm.8,0v0l.1,-.2l-.1,-.2l-.2,.2Zm.7,0v0l.2,-.2l-.2,-.2l-.2,.2Zm.8,0v0l.2,-.2l-.2,-.2l-.2,.2Zm.7,0v0l.2,-.2l-.2,-.2l-.1,.2Zm.8,0v0l.2,-.2l-.2,-.2l-.2,.2Zm.8,0v0l.2,-.2l-.2,-.2l-.2,.2Zm.7,0v0l.2,-.2l-.2,-.2l-.2,.2Zm.8,0v0l.2,-.2l-.2,-.2l-.2,.2Zm.8,0v0l.1,-.2l-.1,-.2l-.2,.2Zm.7,0v0l.2,-.2l-.2,-.2l-.2,.2Zm.8,0v0l.2,-.2l-.2,-.2l-.2,.2Zm.7,0v0l.2,-.2l-.2,-.2l-.1,.2Zm.8,0v0l.2,-.2l-.2,-.2l-.2,.2Zm.8,0v0l.2,-.2l-.2,-.2l-.2,.2Zm.7,0v0l.2,-.2l-.2,-.2l-.2,.2Zm.8,0v0l.2,-.2l-.2,-.2l-.2,.2Zm.8,0v0l.1,-.2l-.1,-.2l-.2,.2Zm.7,0v0l.2,-.2l-.2,-.2l-.2,.2Zm.8,0v0l.2,-.2l-.2,-.2l-.2,.2Zm.7,0v0l.2,-.2l-.2,-.2l-.1,.2Zm.8,0v0l.2,-.2l-.2,-.2l-.2,.2Zm.8,0v0l.2,-.2l-.2,-.2l-.2,.2Zm.7,0v0l.2,-.2l-.2,-.2l-.2,.2Zm.8,0v0l.2,-.2l-.2,-.2l-.2,.2Zm.8,0v0l.1,-.2l-.1,-.2l-.2,.2Zm.7,0v0l.2,-.2l-.2,-.2l-.2,.2Zm.8,0v0l.2,-.2l-.2,-.2l-.2,.2Zm.7,0v0l.2,-.2l-.2,-.2l-.1,.2Zm.8,0v0l.2,-.2l-.2,-.2l-.2,.2Zm.8,0v0l.2,-.2l-.2,-.2l-.2,.2Zm.7,0v0l.2,-.2l-.2,-.2l-.2,.2Zm.8,0v0l.2,-.2l-.2,-.2l-.2,.2Zm.8,0v0l.2,-.2l-.2,-.2l-.2,.2Zm.7,0v0l.2,-.2l-.2,-.2l-.2,.2Zm.8,0v0l.2,-.2l-.2,-.2l-.2,.2Zm.7,0v0l.2,-.2l-.2,-.2l-.1,.2Zm.8,0v0l.2,-.2l-.2,-.2l-.2,.2Zm.8,0v0l.2,-.2l-.2,-.2l-.2,.2Zm.7,0v0l.2,-.2l-.2,-.2l-.2,.2Zm.8,0v0l.2,-.2l-.2,-.2l-.2,.2Zm.8,0v0l.2,-.2l-.2,-.2l-.2,.2Zm.7,0v0l.2,-.2l-.2,-.2l-.2,.2Zm.8,0v0l.2,-.2l-.2,-.2l-.2,.2Zm.7,0v0l.2,-.2l-.2,-.2l-.1,.2Zm.8,0v0l.2,-.2l-.2,-.2l-.2,.2Zm.8,0v0l.2,-.2l-.2,-.2l-.2,.2Zm.7,0v0l.2,-.2l-.2,-.2l-.2,.2Zm.8,0v0l.2,-.2l-.2,-.2l-.2,.2Zm.8,0v0l.2,-.2l-.2,-.2l-.2,.2Zm.7,0v0l.2,-.2l-.2,-.2l-.2,.2Zm.8,0v0l.2,-.2l-.2,-.2l-.2,.2Zm.8,0v0l.1,-.2l-.1,-.2l-.2,.2Zm.7,0v0l.2,-.2l-.2,-.2l-.2,.2Zm.8,0v0l.2,-.2l-.2,-.2l-.2,.2Zm.7,0v0l.2,-.2l-.2,-.2l-.2,.2Zm.8,0v0l.2,-.2l-.2,-.2l-.2,.2Zm.8,0v0l.2,-.2l-.2,-.2l-.2,.2Zm.7,0v0l.2,-.2l-.2,-.2l-.2,.2Zm.8,0v0l.2,-.2l-.2,-.2l-.2,.2Zm.8,0v0l.1,-.2l-.1,-.2l-.2,.2Zm.7,0v0l.2,-.2l-.2,-.2l-.2,.2Zm.8,0v0l.2,-.2l-.2,-.2l-.2,.2Zm.7,0v0l.2,-.2l-.2,-.2l-.1,.2Zm.8,0v0l.2,-.2l-.2,-.2l-.2,.2Zm.8,0v0l.2,-.2l-.2,-.2l-.2,.2Zm.7,0v0l.2,-.2l-.2,-.2l-.2,.2Zm.8,0v0l.2,-.2l-.2,-.2l-.2,.2Zm.8,0v0l.1,-.2l-.1,-.2l-.2,.2Zm.7,0v0l.2,-.2l-.2,-.2l-.2,.2Zm.8,0v0l.2,-.2l-.2,-.2l-.2,.2Zm.7,0v0l.2,-.2l-.2,-.2l-.1,.2Zm.8,0v0l.2,-.2l-.2,-.2l-.2,.2Zm.8,0v0l.2,-.2l-.2,-.2l-.2,.2Zm.7,0v0l.2,-.2l-.2,-.2l-.2,.2Zm.8,0v0l.2,-.2l-.2,-.2l-.2,.2Z" class="g3_24"/>
<path clip-path="url(#cw_24)" d="M39.1,1209.9l.1,-.1v-.2l-.1,-.1l-.2,.1v.2Zm141.1,0l.1,-.1v-.2l-.1,-.1l-.2,.1v.2Z" class="g3_24"/>
<path d="M180.2,1191.9H249v-2.3H180.2Z" class="g3_24"/>
<path d="M249,1191.9h59.1v-2.3H249Z" class="g3_24"/>
<path d="M180.5,1163.6H249v-1.5H180.5Z" class="g6_24"/>
<path d="M249,1163.6h59.1v-1.5H249Z" class="g6_24"/>
<path d="M249.4,1162.1v-21.7h-.8v21.7Z" class="g8_24"/>
</svg>