<?xml version="1.0" encoding="UTF-8" standalone="no"?>
<!DOCTYPE svg PUBLIC "-//W3C//DTD SVG 1.1//EN"
"http://www.w3.org/Graphics/SVG/1.1/DTD/svg11.dtd">
<svg viewBox="0 0 909 1286" version="1.1" xmlns="http://www.w3.org/2000/svg" xmlns:xlink="http://www.w3.org/1999/xlink">
<defs>
<clipPath id="c0_3"><path d="M114.4,1235.1V856.8h249v378.3Z"/></clipPath>
<style type="text/css"><![CDATA[
.g0_3{
fill: none;
stroke: #58595B;
stroke-width: 2.291;
stroke-miterlimit: 10;
}
.g1_3{
fill: #B1A896;
}
.g2_3{
fill: #7C7C65;
}
.g3_3{
fill: #231F20;
}
.g4_3{
fill: none;
stroke: #211D51;
stroke-width: 0.763;
}
]]></style>
</defs>
<path d="M105,76H866.1M105,492.7H866.1" class="g0_3"/>
<image clip-path="url(#c0_3)" preserveAspectRatio="none" x="114" y="857" width="249" height="378" xlink:href="img/1.jpg"/>
<path d="M89.7,856.8c15.5,0,28.1,-12.6,28.1,-28.1c0,-15.6,-12.6,-28.2,-28.1,-28.2c-15.6,0,-28.2,12.6,-28.2,28.2c0,15.5,12.6,28.1,28.2,28.1Z" class="g1_3"/>
<path d="M129,828.7c0,-5.5,-1.9,-10.4,-6.4,-13.4l-.6,.7c3.1,2.5,4.9,7.4,4.9,12.7c0,5.2,-1.8,10.1,-4.9,12.7l.6,.7c4.6,-3.1,6.4,-7.9,6.4,-13.4m10.9,0c0,-5.5,-1.9,-10.4,-6.4,-13.4l-.6,.7c3,2.5,4.8,7.4,4.8,12.7c0,5.2,-1.7,10.1,-4.8,12.7l.6,.7c4.5,-3.1,6.4,-7.9,6.4,-13.4Z" class="g1_3"/>
<path d="M85,817c1.9,3.2,3.7,10.5,4.7,18.6c.9,-8.1,2.8,-15.5,4.6,-18.7c.6,-1.1,1.6,-2.4,.5,-3.5c-1.1,-1.1,-3.7,-1.4,-5.2,-1.5c-1.8,-.1,-3.7,.3,-4.9,1.4c-1.3,1.1,-.5,2.4,.3,3.7Z" class="g2_3"/>
<path d="M106.3,823c-2.3,1.3,-6.8,7.9,-10.2,15.6c0,0,2.5,-3.8,4.8,-5.5c1.5,-1,3.9,-2.9,7.7,-4.1c3.8,-1.2,3.3,-3.4,2.3,-4.6c-.7,-.8,-2.1,-2.9,-4.6,-1.4Z" class="g2_3"/>
<path d="M97.4,815.8c-1.4,.7,-3.8,9.8,-4.4,21c0,0,3.2,-6.9,7.5,-11.4c2.4,-2.5,4.9,-4.1,4.5,-5.7c-.8,-3.6,-5.1,-5.1,-7.6,-3.9Z" class="g3_3"/>
<path d="M74.3,819.8c-.4,1.6,2.1,3.1,4.6,5.7c4.2,4.4,7.5,11.3,7.5,11.3c-.7,-11.2,-3.1,-20.2,-4.6,-20.9c-2.4,-1.2,-6.7,.2,-7.5,3.9Z" class="g2_3"/>
<path d="M73,823.1c-2.5,-1.5,-3.9,.6,-4.6,1.4c-1,1.2,-1.5,3.4,2.4,4.6c3.8,1.2,6.3,2.9,7.6,4.1c2.3,2,4.9,5.4,4.9,5.4C79.9,830.9,75.4,824.4,73,823.1Z" class="g2_3"/>
<path d="M369.2,111h69.5m-69.5,38.4h69.5m379.8,-4.8h27.3M282.6,187.8H438.7M272.6,224.1H431.8m-30.1,38.4h30.1m-60.2,38.4h60.2m-23,38.6h23M742.2,245H845.8M280.4,378H431.8M757.9,278h87.9m-492,138.6h78M658.3,313.4H845.8M646.4,346.1H845.8" class="g4_3"/>
</svg>