<?xml version="1.0" encoding="UTF-8" standalone="no"?>
<!DOCTYPE svg PUBLIC "-//W3C//DTD SVG 1.1//EN"
"http://www.w3.org/Graphics/SVG/1.1/DTD/svg11.dtd">
<svg viewBox="0 0 909 1286" version="1.1" xmlns="http://www.w3.org/2000/svg" xmlns:xlink="http://www.w3.org/1999/xlink">
<defs>
<clipPath id="c0_27"><path d="M90.5,55.4V42.2H42.6V55.4ZM0,159.6V0H159.5V159.6Z"/></clipPath>
<clipPath id="c1_27"><path d="M159.2,159.6V0H319V159.6Z"/></clipPath>
<clipPath id="c2_27"><path d="M318.6,159.6V0h160V159.6Z"/></clipPath>
<clipPath id="c3_27"><path d="M478.3,246.3V0H584.6V246.3Z"/></clipPath>
<clipPath id="c4_27"><path d="M0,318.5V159.2H159.5v87.1h-24v72.2Z"/></clipPath>
<clipPath id="c5_27"><path d="M159.2,246.3V159.2H425.4v87.1Z"/></clipPath>
<clipPath id="c6_27"><path d="M425.1,246.3V159.2h53.5v87.1Z"/></clipPath>
<clipPath id="c7_27"><path d="M42.6,55.4V42.2H90.5V55.4Z"/></clipPath>
<clipPath id="c8_27"><path d="M135.5,340.1V318.5h88.1v21.6Z"/></clipPath>
<clipPath id="c9_27"><path d="M135.5,318.5V246.3h88.1v72.2Z"/></clipPath>
<clipPath id="ca_27"><path d="M135.5,347.5v-5.1h88.1v5.1Z"/></clipPath>
<clipPath id="cb_27"><path d="M135.5,342.4v-2.3h88.1v2.3Z"/></clipPath>
<clipPath id="cc_27"><path d="M232.8,340.1V318.5h78.9v21.6Z"/></clipPath>
<clipPath id="cd_27"><path d="M232.8,318.5V246.3h78.9v72.2Z"/></clipPath>
<clipPath id="ce_27"><path d="M232.8,347.5v-5.1h78.9v5.1Z"/></clipPath>
<clipPath id="cf_27"><path d="M232.8,342.4v-2.3h78.9v2.3Z"/></clipPath>
<clipPath id="cg_27"><path d="M223.6,340.1V318.5h9.2v21.6Z"/></clipPath>
<clipPath id="ch_27"><path d="M223.6,318.5V246.3h9.2v72.2Z"/></clipPath>
<clipPath id="ci_27"><path d="M223.6,347.5v-5.1h9.2v5.1Z"/></clipPath>
<clipPath id="cj_27"><path d="M223.6,342.4v-2.3h9.2v2.3Z"/></clipPath>
<clipPath id="ck_27"><path d="M497.2,347.5v-5.1h87.4v-2.3h-11V318.5h11V246.3h.7V347.5Z"/></clipPath>
<clipPath id="cl_27"><path d="M573.6,318.5V277.3c0,-3.8,-1.2,-7.4,-3.3,-10.4v-2.6h-2.2C564.8,261,560.3,259,555.3,259H512.9c-5,0,-9.5,2,-12.8,5.3h-2.5v3c-.2,.2,-.3,.4,-.4,.6V246.3h87.4v72.2Z"/></clipPath>
<clipPath id="cm_27"><path d="M573.6,342.4v-2.3h11v2.3Z"/></clipPath>
<clipPath id="cn_27"><path d="M497.6,267.3v-3h2.5c-1,.9,-1.8,1.9,-2.5,3Zm72.7,-.4c-.6,-1,-1.3,-1.8,-2.2,-2.6h2.2v2.6Z"/></clipPath>
<clipPath id="co_27"><path d="M409.1,347.5v-5.1h78.8v5.1Zm76.4,-7.4V318.5h2.4v21.6Z"/></clipPath>
<clipPath id="cp_27"><path d="M485.5,318.5V277.3c0,-10.1,-8.2,-18.3,-18.3,-18.3H424.8c-6.7,0,-12.5,3.6,-15.7,9V246.3h78.8v72.2Z"/></clipPath>
<clipPath id="cq_27"><path d="M485.5,342.4v-2.3h2.4v2.3Z"/></clipPath>
<clipPath id="cr_27"><path d="M487.9,347.5v-5.1h9.3v5.1Zm0,-7.4V318.5h6.7v16.7h-.1v4.9Z"/></clipPath>
<clipPath id="cs_27"><path d="M487.9,318.5V246.3h9.3v21.6c-1.7,2.8,-2.6,6,-2.6,9.4v41.2Z"/></clipPath>
<clipPath id="ct_27"><path d="M487.9,342.4v-2.3h6.6v2.3Z"/></clipPath>
<clipPath id="cu_27"><path d="M494.6,335.2V277.3c0,-3.4,.9,-6.6,2.6,-9.4v67.3Z"/></clipPath>
<clipPath id="cv_27"><path d="M494.5,342.4v-7.2h2.7v7.2Z"/></clipPath>
<clipPath id="cw_27"><path d="M321,347.5v-5.1h78.8v5.1Zm0,-7.4V318.5h78.8v21.6Z"/></clipPath>
<clipPath id="cx_27"><path d="M321,318.5V246.3h78.8v72.2Z"/></clipPath>
<clipPath id="cy_27"><path d="M321,342.4v-2.3h78.8v2.3Z"/></clipPath>
<clipPath id="cz_27"><path d="M311.7,340.1V318.5H321v21.6Z"/></clipPath>
<clipPath id="c10_27"><path d="M311.7,318.5V246.3H321v72.2Z"/></clipPath>
<clipPath id="c11_27"><path d="M311.7,347.5v-5.1H321v5.1Z"/></clipPath>
<clipPath id="c12_27"><path d="M311.7,342.4v-2.3H321v2.3Z"/></clipPath>
<clipPath id="c13_27"><path d="M399.8,347.5v-5.1h9.3v5.1Zm0,-7.4V318.5h6.7v16.7h-.1v4.9Z"/></clipPath>
<clipPath id="c14_27"><path d="M399.8,318.5V246.3h9.3V268c-1.7,2.7,-2.6,5.9,-2.6,9.3v41.2Z"/></clipPath>
<clipPath id="c15_27"><path d="M399.8,342.4v-2.3h6.6v2.3Z"/></clipPath>
<clipPath id="c16_27"><path d="M406.5,335.2V277.3c0,-3.4,.9,-6.6,2.6,-9.3v67.2Z"/></clipPath>
<clipPath id="c17_27"><path d="M406.4,342.4v-7.2h2.7v7.2Z"/></clipPath>
<style type="text/css"><![CDATA[
.g0_27{
fill: #E7E8E8;
}
.g1_27{
fill: #1B1661;
}
.g2_27{
fill: #DCDDDE;
}
.g3_27{
fill: #FFF;
}
.g4_27{
fill: #ED1A40;
}
.g5_27{
fill: #D1232A;
}
.g6_27{
fill: #FCB61D;
}
.g7_27{
fill: #FEE6BB;
}
.g8_27{
fill: #CFCBCA;
}
.g9_27{
fill: #5AC4C1;
}
.ga_27{
fill: #09B795;
}
.gb_27{
fill: #F37537;
}
.gc_27{
fill: #5180C1;
}
]]></style>
</defs>
<path d="M324.8,1240.7H584.6V1074.1H324.8v166.6Z" class="g0_27"/>
<path d="M324.8,1074.1H584.6v26.2H324.8v-26.2Z" class="g1_27"/>
<path d="M324.8,1137H511.6v36.7H324.8V1137Zm186.8,0h73v36.7h-73V1137Zm-186.8,58.8H511.6V1218H324.8v-22.2Zm186.8,0h73V1218h-73v-22.2Z" class="g2_27"/>
<path d="M324.8,1218.8H511.6v-1.6H324.8v1.6Z" class="g3_27"/>
<path d="M511.6,1218.8h73v-1.6h-73v1.6Z" class="g3_27"/>
<path d="M343.9,1084.3l-1,-.7c-.2,-.1,-.6,-.1,-.8,.2l-4.7,6.9l-2.1,-2.1c-.3,-.3,-.6,-.3,-.8,0l-.9,.8c-.2,.2,-.2,.6,0,.8l3.4,3.3c.1,.2,.4,.3,.7,.3c.3,0,.5,-.1,.7,-.4l5.7,-8.3c.1,-.3,.1,-.6,-.2,-.8Z" class="g3_27"/>
<path d="M606.3,1240.7H866.1V870H606.3v370.7Z" class="g0_27"/>
<path d="M606.3,870H866.1v27.7H606.3V870Z" class="g1_27"/>
<path d="M606.3,897.7H866.1v29.6H606.3V897.7Zm0,303.1H866.1v39.9H606.3v-39.9Z" class="g2_27"/>
<path d="M606.3,927.7H866.1v-.8H606.3Z" class="g3_27"/>
<path d="M606.3,1201.2H866.1v-.8H606.3Z" class="g3_27"/>
<path d="M625.4,881.6l-1,-.6c-.2,-.2,-.6,-.1,-.8,.1l-4.7,7l-2.1,-2.2c-.3,-.2,-.6,-.2,-.8,0l-.9,.8c-.2,.3,-.2,.6,0,.9l3.4,3.3c.1,.2,.4,.3,.7,.3c.3,0,.5,-.2,.7,-.4l5.6,-8.4c.2,-.2,.2,-.6,-.1,-.8Z" class="g3_27"/>
<path d="M610.6,217.6c-2.4,0,-4.3,1.9,-4.3,4.3v39.7c0,2.4,1.9,4.4,4.3,4.4H861.8c2.4,0,4.3,-2,4.3,-4.4V221.9c0,-2.4,-1.9,-4.3,-4.3,-4.3Z" class="g4_27"/>
<path d="M727.1,248.1h69.7v-.9H727.1Z" class="g3_27"/>
<image clip-path="url(#c0_27)" preserveAspectRatio="none" x="0" y="0" width="159" height="160" xlink:href="img/1.jpg"/>
<image clip-path="url(#c1_27)" preserveAspectRatio="none" x="159" y="0" width="160" height="160" xlink:href="img/2.jpg"/>
<image clip-path="url(#c2_27)" preserveAspectRatio="none" x="319" y="0" width="160" height="160" xlink:href="img/3.jpg"/>
<image clip-path="url(#c3_27)" preserveAspectRatio="none" x="478" y="0" width="107" height="266" xlink:href="img/4.jpg"/>
<image clip-path="url(#c4_27)" preserveAspectRatio="none" x="0" y="159" width="159" height="160" xlink:href="img/5.jpg"/>
<image clip-path="url(#c5_27)" preserveAspectRatio="none" x="159" y="159" width="266" height="107" xlink:href="img/6.jpg"/>
<image clip-path="url(#c6_27)" preserveAspectRatio="none" x="425" y="159" width="54" height="107" xlink:href="img/7.jpg"/>
<image clip-path="url(#c7_27)" preserveAspectRatio="none" x="42" y="42" width="49" height="14" xlink:href="img/8.jpg"/>
<path d="M325.6,720.4h-.8v340.7H584.6V719.6H324.8v.8h.8v.7H583.1v338.5H326.3V720.4h-.7v.7Z" class="g1_27"/>
<path d="M365.5,726H535.3V712.3H365.5Z" class="g3_27"/>
<path d="M44.1,552.9h-.8v30.4H303.1V552.2H43.3v.7h.8v.8H301.6v28.1H44.8V552.9h-.7v.8Z" class="g5_27"/>
<path d="M64.5,576.7c-5.3,0,-9.7,-4.3,-9.6,-9.7c0,-5.3,4.4,-9.6,9.7,-9.6c5.3,.1,9.6,4.4,9.6,9.7c0,5.3,-4.4,9.7,-9.7,9.6m0,-1.3c4.6,0,8.3,-3.7,8.3,-8.3c0,-4.6,-3.7,-8.3,-8.3,-8.3c-4.5,0,-8.2,3.7,-8.2,8.3c-.1,4.5,3.6,8.2,8.2,8.3Z" class="g5_27"/>
<path d="M51.3,562.6c.4,.1,.5,0,.5,-.4c0,-1.2,0,-2.5,0,-3.7c0,-.2,-.1,-.4,0,-.6c.2,-.2,.4,-.5,.6,-.5c.3,0,.5,.3,.7,.5c.1,.2,.1,.4,.1,.6c0,1.4,0,2.7,0,4.1h.4c0,-.9,0,-1.8,0,-2.7c0,-.6,-.1,-1.2,-.1,-1.8c0,-.5,.3,-.7,.7,-.7c.4,-.1,.7,.2,.7,.6c.1,1.8,.2,3.7,.2,5.5c0,.8,-.4,1.5,-1.1,1.9c-.3,.2,-.4,.5,-.4,.8c.1,3.5,.1,7,.2,10.5c0,.6,-.2,1,-.8,1.3c-.5,.3,-1,.2,-1.4,-.2c-.2,-.3,-.4,-.8,-.4,-1.2c0,-2.3,0,-4.6,.1,-6.9c0,-1.2,0,-2.4,0,-3.6c0,-.2,-.2,-.5,-.4,-.6c-.7,-.6,-1.1,-1.4,-1.1,-2.4c.1,-1.6,.2,-3.3,.2,-4.9c0,-.5,.2,-.8,.7,-.8c.4,-.1,.7,.3,.7,.8c0,1.3,-.1,2.5,-.1,3.8c-.1,.2,0,.4,0,.6m2.1,1.5H51.5c.7,.6,1.3,.6,1.9,0Z" class="g5_27"/>
<path d="M75,567.8c0,-2.8,0,-5.7,0,-8.6c0,-.7,.2,-1.2,.8,-1.6c.9,-.6,2.1,-.1,2.4,1c.5,2.3,.8,4.6,.5,6.9c-.1,1.1,-.3,2.2,-.5,3.3c0,.3,0,.5,0,.8c0,2.3,0,4.7,0,7.1c-.1,.9,-.7,1.5,-1.7,1.5c-.9,-.1,-1.5,-.6,-1.5,-1.5c0,-.2,0,-.3,0,-.5c0,-2.8,0,-5.6,0,-8.4m1.3,.5q.6,.1,.7,-.4c.5,-2.3,.5,-4.7,.2,-7c-.1,-.6,-.2,-1.2,-.3,-1.7l-.3,-.4l-.2,.4l-.1,.3c0,2.7,0,5.5,0,8.2Z" class="g5_27"/>
<path d="M64.5,560.3v.8h.1c3.2,0,5.9,2.7,5.9,6c.1,3.3,-2.6,6,-5.9,6h-.1c-1.6,0,-3.1,-.7,-4.2,-1.8c-1.1,-1.1,-1.8,-2.6,-1.8,-4.2c0,-3.3,2.7,-6,6,-6v-1.6c-4.1,.1,-7.5,3.5,-7.5,7.6c0,4.1,3.4,7.5,7.5,7.5h.1c4.1,0,7.5,-3.4,7.5,-7.5c0,-4.2,-3.4,-7.5,-7.5,-7.6h-.1Z" class="g5_27"/>
<path d="M606.7,159.8h34.6v40.4H606.7V159.8Z" class="g3_27"/>
<image x="641" y="159" width="226" height="42" xlink:href="shade/1.png"/>
<path d="M641.3,180.9H866.1v-1.5H641.3Z" class="g6_27"/>
<path d="M624.5,198.7c9.9,0,17.9,-8,17.9,-17.8c0,-9.9,-8,-17.9,-17.9,-17.9c-9.8,0,-17.8,8,-17.8,17.9c0,9.8,8,17.8,17.8,17.8Z" class="g6_27"/>
<path d="M635,182.7c0,.7,.2,1.4,.2,2.1c-.1,2.1,-1,3.6,-2.7,4.7c-1.3,.9,-2.8,1.3,-4.4,1.3c-2.4,0,-4.8,0,-7.2,0c-1.6,0,-3.1,-.4,-4.5,-1.4c-1.9,-1.4,-2.7,-3.2,-2.5,-5.6c.3,-2,.4,-3.9,.4,-5.9c.1,-1.8,0,-3.6,0,-5.4c-.1,-2.1,.8,-3.8,2.5,-5c1.5,-1.1,3.1,-1.6,4.9,-1.6c1.9,0,3.8,0,5.7,0c1.7,.1,3.3,.5,4.7,1.5c1.9,1.3,2.8,3.2,2.7,5.6c-.1,1.2,-.1,2.4,-.1,3.6c0,0,.1,4,.3,6.1M624.5,167.2v-.1c-.9,0,-1.8,0,-2.8,0c-1.3,0,-2.5,.3,-3.7,1c-1.5,1,-2.6,2.3,-2.5,4.2c.1,.8,.3,1.7,.6,2.5c.4,1.3,1,2.6,2.1,3.5c.3,.3,.3,.6,0,.9c-.6,.6,-1.3,1.2,-2.1,1.5c-.6,.2,-.7,.5,-.7,1c-.1,.5,0,.9,.4,1.2c.7,.8,1.6,1.4,2.6,1.8c1.8,.7,3.7,1,5.7,1c2,.1,4,-.1,6,-.8c1.3,-.5,2.5,-1.2,3.4,-2.3c.1,-.1,.2,-.3,.2,-.4c0,-.4,0,-.7,-.1,-1.1l-.2,-.2c-1,-.4,-1.8,-1,-2.6,-1.7c-.3,-.3,-.2,-.6,.1,-1c.4,-.4,.9,-.9,1.2,-1.4c.7,-1.2,1.2,-2.6,1.4,-4c.2,-1.2,-.1,-2.2,-.8,-3.2c-1.1,-1.5,-2.7,-2.2,-4.6,-2.4c-1.2,-.1,-2.4,0,-3.6,0m-9.3,16.5c-.3,1.6,0,3,1.3,4.2c1.2,1.2,2.8,1.7,4.5,1.7c2.3,0,4.7,0,7,0c.8,0,1.6,-.1,2.3,-.4c1.4,-.5,2.6,-1.2,3.3,-2.6c.4,-1,.5,-2,.2,-3l-.1,.1c-1.1,1.4,-2.5,2.2,-4.2,2.6c-2.9,.8,-5.8,.8,-8.7,.3c-1.4,-.2,-2.7,-.7,-3.9,-1.5c-.6,-.4,-1.1,-.9,-1.7,-1.4Z" class="g7_27"/>
<path d="M619.2,191.2c-.5,.4,-1,.8,-1.5,1.1c-.5,.4,-1.8,1.4,-2.3,1.8c-.2,.2,-.5,.2,-.8,.1l-.3,-.3c0,-.2,0,-.5,.3,-.6c.3,-.3,1.3,-1.2,1.7,-1.4c.4,-.3,.8,-.7,1.3,-1l.4,-.1c.4,.1,.7,.3,1.2,.4Z" class="g7_27"/>
<path d="M629.9,191.2c.5,-.2,.9,-.3,1.3,-.4l.3,.1c.7,.6,2.3,1.8,3,2.3c.1,.1,.2,.3,.3,.4c.1,.2,0,.5,-.2,.6c-.2,.1,-.5,.1,-.7,0c-1.1,-.7,-2.9,-2.2,-4,-3Z" class="g7_27"/>
<path d="M624.5,177.8c-1.1,0,-2.2,.1,-3.2,0c-2,-.1,-3.5,-1.6,-3.9,-3.5c-.1,-.5,-.2,-1,-.3,-1.5c-.4,-1.9,1,-3.5,2.9,-3.6c3,0,6,0,9,.1c1.9,0,3.2,1.4,3,3.3c-.2,1,-.3,2.1,-.9,3.1c-.8,1.4,-2.1,2.2,-3.8,2.2c-.9,-.1,-1.9,-.1,-2.8,-.1Z" class="g7_27"/>
<path d="M629.1,180.5c.2,0,.5,0,.8,0c.4,0,.7,.3,.5,.7c-.4,.8,-1,1.7,-1.5,2.5c-.1,.2,-.3,.3,-.5,.3c-.6,0,-1.1,0,-1.6,0c-.5,0,-.8,-.3,-.6,-.7c.5,-.8,1,-1.6,1.5,-2.5c.1,-.2,.3,-.3,.6,-.3c.3,0,.5,0,.8,0Z" class="g7_27"/>
<path d="M621.5,184c-.3,0,-.5,0,-.7,0c-.4,0,-.6,-.1,-.7,-.3c-.5,-.9,-1,-1.7,-1.4,-2.5c-.3,-.4,0,-.7,.6,-.7c.4,0,.9,0,1.4,0c.4,0,.6,.1,.7,.3c.5,.9,1,1.7,1.5,2.5c.1,.4,-.1,.7,-.6,.7c-.3,0,-.5,0,-.8,0Z" class="g7_27"/>
<path d="M625.6,188.3c0,.6,-.5,1.1,-1.1,1.1c-.5,0,-1,-.5,-1,-1.1c0,-.5,.4,-1,1,-1c.6,0,1.1,.4,1.1,1Z" class="g7_27"/>
<path d="M781.1,328.5V283.3H778v45.2Z" class="g3_27"/>
<path d="M866.1,350.2V329.8h-.7v20.4Z" class="g3_27"/>
<path d="M866.1,375.1V350.2h-.7v24.9Z" class="g3_27"/>
<path d="M780.6,397.2V375.1h-.7v22.1Z" class="g3_27"/>
<path d="M866.1,397.2V375.1h-.7v22.1Z" class="g3_27"/>
<path d="M780.6,419.3V397.2h-.7v22.1Z" class="g3_27"/>
<path d="M866.1,419.3V397.2h-.7v22.1Z" class="g3_27"/>
<path d="M780.6,441.5V419.3h-.7v22.2Z" class="g3_27"/>
<path d="M866.1,441.5V419.3h-.7v22.2Z" class="g3_27"/>
<path d="M780.6,463.6V441.5h-.7v22.1Z" class="g3_27"/>
<path d="M866.1,463.6V441.5h-.7v22.1Z" class="g3_27"/>
<path d="M780.6,485.7V463.6h-.7v22.1Z" class="g3_27"/>
<path d="M866.1,485.7V463.6h-.7v22.1Z" class="g3_27"/>
<path d="M780.6,507.9V485.7h-.7v22.2Z" class="g3_27"/>
<path d="M866.1,507.9V485.7h-.7v22.2Z" class="g3_27"/>
<path d="M780.6,530V507.9h-.7V530Z" class="g3_27"/>
<path d="M866.1,530V507.9h-.7V530Z" class="g3_27"/>
<path d="M780.6,552.1V530h-.7v22.1Z" class="g3_27"/>
<path d="M866.1,552.1V530h-.7v22.1Z" class="g3_27"/>
<path d="M780.6,574.3V552.1h-.7v22.2Z" class="g3_27"/>
<path d="M866.1,574.3V552.1h-.7v22.2Z" class="g3_27"/>
<path d="M640.9,351H780.2v-1.5H640.9Z" class="g6_27"/>
<path d="M780.2,351h85.2v-1.5H780.2Z" class="g6_27"/>
<path d="M624.1,368.8c9.9,0,17.9,-8,17.9,-17.9c0,-9.8,-8,-17.8,-17.9,-17.8c-9.8,0,-17.8,8,-17.8,17.8c0,9.9,8,17.9,17.8,17.9Z" class="g6_27"/>
<path d="M634.6,352.7c0,.7,.2,1.5,.2,2.2c0,2,-1,3.5,-2.7,4.6c-1.3,.9,-2.8,1.3,-4.3,1.3c-2.4,.1,-4.8,.1,-7.2,0c-1.7,0,-3.2,-.4,-4.5,-1.3c-2,-1.4,-2.8,-3.3,-2.5,-5.7c.2,-1.9,.3,-3.9,.3,-5.8c.1,-1.8,0,-3.7,0,-5.5c0,-2.1,.9,-3.7,2.5,-4.9c1.5,-1.1,3.1,-1.6,4.9,-1.6c1.9,0,3.9,0,5.8,0c1.6,0,3.2,.5,4.6,1.4c1.9,1.4,2.8,3.2,2.7,5.6c-.1,1.2,0,2.4,0,3.6c-.1,0,.1,4.1,.2,6.1M624.2,337.2v0c-1,0,-1.9,-.1,-2.9,0c-1.3,0,-2.5,.3,-3.6,1c-1.6,.9,-2.7,2.2,-2.6,4.1c.1,.9,.3,1.7,.6,2.6c.4,1.3,1,2.5,2.1,3.5c.3,.2,.3,.5,0,.8c-.6,.7,-1.3,1.3,-2.1,1.5c-.6,.2,-.7,.5,-.7,1.1c-.1,.4,.1,.8,.4,1.1c.7,.8,1.7,1.4,2.7,1.8c1.8,.8,3.7,1,5.6,1.1c2,0,4.1,-.2,6,-.9c1.4,-.4,2.6,-1.1,3.4,-2.3c.1,-.1,.2,-.2,.2,-.4c0,-.3,0,-.7,0,-1l-.3,-.3c-1,-.3,-1.8,-.9,-2.5,-1.7c-.3,-.3,-.3,-.6,0,-.9c.4,-.5,.9,-.9,1.2,-1.5c.8,-1.2,1.2,-2.5,1.4,-4c.2,-1.1,-.1,-2.2,-.8,-3.1c-1.1,-1.5,-2.7,-2.3,-4.6,-2.5c-1.2,-.1,-2.3,0,-3.5,0m-9.4,16.5c-.3,1.6,0,3.1,1.3,4.2c1.3,1.2,2.8,1.7,4.5,1.7c2.4,.1,4.7,0,7,0c.8,0,1.6,-.1,2.3,-.3c1.4,-.5,2.6,-1.3,3.3,-2.7c.5,-.9,.5,-1.9,.3,-2.9h-.1c-1.1,1.4,-2.6,2.2,-4.3,2.7c-2.9,.7,-5.7,.7,-8.6,.3c-1.4,-.3,-2.8,-.7,-3.9,-1.5c-.7,-.4,-1.2,-1,-1.8,-1.5Z" class="g7_27"/>
<path d="M618.8,361.2c-.5,.4,-1,.8,-1.5,1.2c-.5,.4,-1.8,1.4,-2.3,1.8c-.2,.2,-.5,.2,-.7,.1L614,364c-.1,-.3,0,-.5,.2,-.7c.3,-.2,1.4,-1.1,1.7,-1.4c.4,-.3,.9,-.6,1.3,-.9l.4,-.1c.4,.1,.8,.2,1.2,.3Z" class="g7_27"/>
<path d="M629.5,361.2c.5,-.1,.9,-.2,1.3,-.3l.3,.1c.7,.5,2.3,1.7,3,2.3c.1,.1,.3,.2,.3,.4c.1,.2,.1,.5,-.2,.6c-.2,0,-.5,.1,-.7,0c-1.1,-.8,-2.9,-2.2,-4,-3.1Z" class="g7_27"/>
<path d="M624.1,347.9c-1.1,0,-2.1,0,-3.2,0c-2,-.2,-3.5,-1.6,-3.9,-3.5c-.1,-.5,-.2,-1,-.3,-1.5c-.4,-1.9,1,-3.6,3,-3.6c2.9,0,5.9,0,8.9,0c1.9,0,3.2,1.5,3,3.3c-.1,1.1,-.3,2.2,-.8,3.1c-.9,1.4,-2.2,2.2,-3.9,2.2c-.9,0,-1.9,0,-2.8,0Z" class="g7_27"/>
<path d="M628.7,350.6c.3,0,.5,0,.8,0c.4,0,.7,.3,.5,.6c-.4,.9,-.9,1.7,-1.4,2.6c-.1,.1,-.3,.2,-.6,.2c-.5,0,-1.1,0,-1.6,0c-.5,0,-.7,-.3,-.6,-.6c.5,-.8,1,-1.7,1.5,-2.5c.1,-.2,.3,-.3,.6,-.3c.3,0,.5,0,.8,0Z" class="g7_27"/>
<path d="M621.1,354c-.2,0,-.5,0,-.7,0c-.4,.1,-.6,-.1,-.7,-.3c-.5,-.8,-1,-1.6,-1.4,-2.4c-.2,-.4,0,-.7,.6,-.7c.5,0,1,0,1.5,0c.3,0,.5,.1,.6,.3c.5,.8,1,1.7,1.5,2.5c.2,.3,-.1,.6,-.6,.6c-.2,0,-.5,0,-.8,0Z" class="g7_27"/>
<path d="M625.2,358.4c0,.5,-.5,1,-1,1c-.6,0,-1.1,-.4,-1.1,-1c0,-.6,.5,-1.1,1,-1.1c.6,0,1.1,.5,1.1,1.1Z" class="g7_27"/>
<path d="M866.1,603.3V582.9h-.7v20.4Z" class="g3_27"/>
<path d="M866.1,628.1V603.3h-.7v24.8Z" class="g3_27"/>
<path d="M780.6,650.3V628.1h-.7v22.2Z" class="g3_27"/>
<path d="M866.1,650.3V628.1h-.7v22.2Z" class="g3_27"/>
<path d="M780.6,672.4V650.3h-.7v22.1Z" class="g3_27"/>
<path d="M866.1,672.4V650.3h-.7v22.1Z" class="g3_27"/>
<path d="M780.6,694.5V672.4h-.7v22.1Z" class="g3_27"/>
<path d="M866.1,694.5V672.4h-.7v22.1Z" class="g3_27"/>
<path d="M780.6,716.7V694.5h-.7v22.2Z" class="g3_27"/>
<path d="M866.1,716.7V694.5h-.7v22.2Z" class="g3_27"/>
<path d="M780.6,738.8V716.7h-.7v22.1Z" class="g3_27"/>
<path d="M866.1,738.8V716.7h-.7v22.1Z" class="g3_27"/>
<path d="M780.6,760.9V738.8h-.7v22.1Z" class="g3_27"/>
<path d="M866.1,760.9V738.8h-.7v22.1Z" class="g3_27"/>
<path d="M780.6,783.1V760.9h-.7v22.2Z" class="g3_27"/>
<path d="M866.1,783.1V760.9h-.7v22.2Z" class="g3_27"/>
<path d="M780.6,805.2V783.1h-.7v22.1Z" class="g3_27"/>
<path d="M866.1,805.2V783.1h-.7v22.1Z" class="g3_27"/>
<path d="M780.6,827.3V805.2h-.7v22.1Z" class="g3_27"/>
<path d="M866.1,827.3V805.2h-.7v22.1Z" class="g3_27"/>
<path d="M640.9,604.1H780.2v-1.6H640.9Z" class="g6_27"/>
<path d="M780.2,604.1h85.2v-1.6H780.2Z" class="g6_27"/>
<path d="M624.1,621.8c9.9,0,17.9,-7.9,17.9,-17.8c0,-9.9,-8,-17.9,-17.9,-17.9c-9.8,0,-17.8,8,-17.8,17.9c0,9.9,8,17.8,17.8,17.8Z" class="g6_27"/>
<path d="M634.6,605.8c0,.7,.2,1.4,.2,2.1c0,2.1,-1,3.6,-2.7,4.7c-1.3,.9,-2.8,1.3,-4.3,1.3c-2.4,0,-4.8,0,-7.2,0c-1.7,0,-3.2,-.4,-4.5,-1.4c-2,-1.3,-2.8,-3.2,-2.5,-5.6c.2,-1.9,.3,-3.9,.3,-5.9c.1,-1.8,0,-3.6,0,-5.4c0,-2.1,.9,-3.7,2.5,-5c1.5,-1,3.1,-1.5,4.9,-1.5c1.9,-.1,3.9,-.1,5.8,0c1.6,0,3.2,.4,4.6,1.4c1.9,1.3,2.8,3.2,2.7,5.6c-.1,1.2,0,2.4,0,3.6c-.1,0,.1,4.1,.2,6.1M624.2,590.3v-.1c-1,0,-1.9,0,-2.9,0c-1.3,.1,-2.5,.4,-3.6,1c-1.6,1,-2.7,2.3,-2.6,4.2c.1,.8,.3,1.7,.6,2.5c.4,1.4,1,2.6,2.1,3.5c.3,.3,.3,.6,0,.9c-.6,.6,-1.3,1.3,-2.1,1.5c-.6,.2,-.7,.5,-.7,1c-.1,.5,.1,.9,.4,1.2c.7,.8,1.7,1.4,2.7,1.8c1.8,.8,3.7,1,5.6,1c2,.1,4.1,-.1,6,-.8c1.4,-.5,2.6,-1.1,3.4,-2.3c.1,-.1,.2,-.3,.2,-.4c0,-.4,0,-.7,0,-1L633,604c-1,-.4,-1.8,-.9,-2.5,-1.7c-.3,-.3,-.3,-.6,0,-.9c.4,-.5,.9,-1,1.2,-1.5c.8,-1.2,1.2,-2.6,1.4,-4c.2,-1.2,-.1,-2.2,-.8,-3.1c-1.1,-1.6,-2.7,-2.3,-4.6,-2.5c-1.2,-.1,-2.3,0,-3.5,0m-9.4,16.5c-.3,1.6,0,3.1,1.3,4.2c1.3,1.2,2.8,1.7,4.5,1.7c2.4,0,4.7,0,7,0c.8,0,1.6,-.1,2.3,-.4c1.4,-.4,2.6,-1.2,3.3,-2.6c.5,-.9,.5,-1.9,.3,-3l-.1,.1c-1.1,1.4,-2.6,2.2,-4.3,2.6c-2.9,.8,-5.7,.8,-8.6,.3c-1.4,-.2,-2.8,-.6,-3.9,-1.4c-.7,-.5,-1.2,-1,-1.8,-1.5Z" class="g7_27"/>
<path d="M618.8,614.3c-.5,.4,-1,.8,-1.5,1.1c-.5,.4,-1.8,1.4,-2.3,1.8c-.2,.2,-.5,.2,-.7,.2L614,617c-.1,-.2,0,-.4,.2,-.6c.3,-.3,1.4,-1.1,1.7,-1.4c.4,-.3,.9,-.6,1.3,-1h.4c.4,.1,.8,.2,1.2,.3Z" class="g7_27"/>
<path d="M629.5,614.3c.5,-.1,.9,-.3,1.3,-.4l.3,.1c.7,.6,2.3,1.8,3,2.4c.1,.1,.3,.2,.3,.3c.1,.3,.1,.5,-.2,.6c-.2,.1,-.5,.2,-.7,.1c-1.1,-.8,-2.9,-2.2,-4,-3.1Z" class="g7_27"/>
<path d="M624.1,601c-1.1,0,-2.1,0,-3.2,-.1c-2,-.1,-3.5,-1.5,-3.9,-3.5c-.1,-.5,-.2,-1,-.3,-1.4c-.4,-2,1,-3.6,3,-3.6c2.9,0,5.9,0,8.9,0c1.9,0,3.2,1.4,3,3.3c-.1,1.1,-.3,2.2,-.8,3.1c-.9,1.4,-2.2,2.2,-3.9,2.2c-.9,0,-1.9,0,-2.8,0Z" class="g7_27"/>
<path d="M628.7,603.7c.3,0,.5,-.1,.8,0c.4,0,.7,.3,.5,.6c-.4,.8,-.9,1.7,-1.4,2.5c-.1,.2,-.3,.3,-.6,.3c-.5,0,-1.1,0,-1.6,0c-.5,0,-.7,-.3,-.6,-.6c.5,-.9,1,-1.7,1.5,-2.5c.1,-.3,.3,-.4,.6,-.3c.3,0,.5,0,.8,0Z" class="g7_27"/>
<path d="M621.1,607.1c-.2,0,-.5,0,-.7,0c-.4,0,-.6,-.1,-.7,-.3c-.5,-.8,-1,-1.6,-1.4,-2.5c-.2,-.4,0,-.6,.6,-.6c.5,0,1,0,1.5,0c.3,-.1,.5,.1,.6,.3c.5,.8,1,1.6,1.5,2.5c.2,.3,-.1,.6,-.6,.6c-.2,0,-.5,0,-.8,0Z" class="g7_27"/>
<path d="M625.2,611.4c0,.6,-.5,1.1,-1,1.1c-.6,0,-1.1,-.5,-1.1,-1c0,-.6,.5,-1.1,1,-1.1c.6,0,1.1,.5,1.1,1Z" class="g7_27"/>
<path d="M606.3,833.2H866.1v-1.5H606.3Z" class="g8_27"/>
<path d="M43.3,342.4H584.6v-2.3H43.3v2.3Z" class="g9_27"/>
<image clip-path="url(#c8_27)" preserveAspectRatio="none" x="135" y="318" width="89" height="22" xlink:href="img/9.jpg"/>
<image clip-path="url(#c9_27)" preserveAspectRatio="none" x="135" y="246" width="89" height="73" xlink:href="img/10.jpg"/>
<image clip-path="url(#ca_27)" preserveAspectRatio="none" x="135" y="342" width="98" height="6" xlink:href="img/11.jpg"/>
<image clip-path="url(#cb_27)" preserveAspectRatio="none" x="135" y="339" width="89" height="4" xlink:href="img/12.jpg"/>
<path d="M160.5,259c-10.2,0,-18.4,8.2,-18.4,18.3v64.2h79.1V277.3C221.2,267.2,213,259,202.8,259Z" class="g3_27"/>
<path d="M148.3,285.2h2.3c.2,0,.4,-.2,.4,-.4c0,-.2,-.2,-.4,-.4,-.4h-2.3c-.2,0,-.4,.2,-.4,.4c0,.2,.2,.4,.4,.4m3.9,0h2.3c.2,0,.4,-.2,.4,-.4c0,-.2,-.2,-.4,-.4,-.4h-2.3c-.2,0,-.4,.2,-.4,.4c0,.2,.2,.4,.4,.4m3.9,0h2.3c.2,0,.4,-.2,.4,-.4c0,-.2,-.2,-.4,-.4,-.4h-2.3c-.2,0,-.4,.2,-.4,.4c0,.2,.2,.4,.4,.4m3.8,0h2.4c.2,0,.4,-.2,.4,-.4c0,-.2,-.2,-.4,-.4,-.4h-2.4c-.2,0,-.3,.2,-.3,.4c0,.2,.1,.4,.3,.4m3.9,0h2.4c.2,0,.3,-.2,.3,-.4c0,-.2,-.1,-.4,-.3,-.4h-2.4c-.2,0,-.4,.2,-.4,.4c0,.2,.2,.4,.4,.4m3.9,0H170c.2,0,.4,-.2,.4,-.4c0,-.2,-.2,-.4,-.4,-.4h-2.3c-.2,0,-.4,.2,-.4,.4c0,.2,.2,.4,.4,.4m3.9,0h2.3c.2,0,.4,-.2,.4,-.4c0,-.2,-.2,-.4,-.4,-.4h-2.3c-.2,0,-.4,.2,-.4,.4c0,.2,.2,.4,.4,.4m3.9,0h2.3c.2,0,.4,-.2,.4,-.4c0,-.2,-.2,-.4,-.4,-.4h-2.3c-.2,0,-.4,.2,-.4,.4c0,.2,.2,.4,.4,.4m3.9,0h2.3c.2,0,.4,-.2,.4,-.4c0,-.2,-.2,-.4,-.4,-.4h-2.3c-.3,0,-.4,.2,-.4,.4c0,.2,.1,.4,.4,.4m3.8,0h2.4c.2,0,.3,-.2,.3,-.4c0,-.2,-.1,-.4,-.3,-.4h-2.4c-.2,0,-.3,.2,-.3,.4c0,.2,.1,.4,.3,.4m3.9,0h2.3c.3,0,.4,-.2,.4,-.4c0,-.2,-.1,-.4,-.4,-.4h-2.3c-.2,0,-.4,.2,-.4,.4c0,.2,.2,.4,.4,.4m3.9,0h2.3c.2,0,.4,-.2,.4,-.4c0,-.2,-.2,-.4,-.4,-.4H191c-.2,0,-.4,.2,-.4,.4c0,.2,.2,.4,.4,.4m3.9,0h2.3c.2,0,.4,-.2,.4,-.4c0,-.2,-.2,-.4,-.4,-.4h-2.3c-.2,0,-.4,.2,-.4,.4c0,.2,.2,.4,.4,.4m3.9,0h2.3c.2,0,.4,-.2,.4,-.4c0,-.2,-.2,-.4,-.4,-.4h-2.3c-.2,0,-.4,.2,-.4,.4c0,.2,.2,.4,.4,.4m3.8,0H205c.2,0,.4,-.2,.4,-.4c0,-.2,-.2,-.4,-.4,-.4h-2.4c-.2,0,-.3,.2,-.3,.4c0,.2,.1,.4,.3,.4m3.9,0h2.4c.2,0,.3,-.2,.3,-.4c0,-.2,-.1,-.4,-.3,-.4h-2.4c-.2,0,-.4,.2,-.4,.4c0,.2,.2,.4,.4,.4m3.9,0h2.3c.2,0,.4,-.2,.4,-.4c0,-.2,-.2,-.4,-.4,-.4h-2.3c-.2,0,-.4,.2,-.4,.4c0,.2,.2,.4,.4,.4m3.9,0h2.3c.2,0,.4,-.2,.4,-.4c0,-.2,-.2,-.4,-.4,-.4h-2.3c-.2,0,-.4,.2,-.4,.4c0,.2,.2,.4,.4,.4Z" class="g4_27"/>
<path d="M148.3,317.4h2.3c.2,0,.4,-.1,.4,-.3c0,-.3,-.2,-.4,-.4,-.4h-2.3c-.2,0,-.4,.1,-.4,.4c0,.2,.2,.3,.4,.3m3.9,0h2.3c.2,0,.4,-.1,.4,-.3c0,-.3,-.2,-.4,-.4,-.4h-2.3c-.2,0,-.4,.1,-.4,.4c0,.2,.2,.3,.4,.3m3.9,0h2.3c.2,0,.4,-.1,.4,-.3c0,-.3,-.2,-.4,-.4,-.4h-2.3c-.2,0,-.4,.1,-.4,.4c0,.2,.2,.3,.4,.3m3.8,0h2.4c.2,0,.4,-.1,.4,-.3c0,-.3,-.2,-.4,-.4,-.4h-2.4c-.2,0,-.3,.1,-.3,.4c0,.2,.1,.3,.3,.3m3.9,0h2.4c.2,0,.3,-.1,.3,-.3c0,-.3,-.1,-.4,-.3,-.4h-2.4c-.2,0,-.4,.1,-.4,.4c0,.2,.2,.3,.4,.3m3.9,0H170c.2,0,.4,-.1,.4,-.3c0,-.3,-.2,-.4,-.4,-.4h-2.3c-.2,0,-.4,.1,-.4,.4c0,.2,.2,.3,.4,.3m3.9,0h2.3c.2,0,.4,-.1,.4,-.3c0,-.3,-.2,-.4,-.4,-.4h-2.3c-.2,0,-.4,.1,-.4,.4c0,.2,.2,.3,.4,.3m3.9,0h2.3c.2,0,.4,-.1,.4,-.3c0,-.3,-.2,-.4,-.4,-.4h-2.3c-.2,0,-.4,.1,-.4,.4c0,.2,.2,.3,.4,.3m3.9,0h2.3c.2,0,.4,-.1,.4,-.3c0,-.3,-.2,-.4,-.4,-.4h-2.3c-.3,0,-.4,.1,-.4,.4c0,.2,.1,.3,.4,.3m3.8,0h2.4c.2,0,.3,-.1,.3,-.3c0,-.3,-.1,-.4,-.3,-.4h-2.4c-.2,0,-.3,.1,-.3,.4c0,.2,.1,.3,.3,.3m3.9,0h2.3c.3,0,.4,-.1,.4,-.3c0,-.3,-.1,-.4,-.4,-.4h-2.3c-.2,0,-.4,.1,-.4,.4c0,.2,.2,.3,.4,.3m3.9,0h2.3c.2,0,.4,-.1,.4,-.3c0,-.3,-.2,-.4,-.4,-.4H191c-.2,0,-.4,.1,-.4,.4c0,.2,.2,.3,.4,.3m3.9,0h2.3c.2,0,.4,-.1,.4,-.3c0,-.3,-.2,-.4,-.4,-.4h-2.3c-.2,0,-.4,.1,-.4,.4c0,.2,.2,.3,.4,.3m3.9,0h2.3c.2,0,.4,-.1,.4,-.3c0,-.3,-.2,-.4,-.4,-.4h-2.3c-.2,0,-.4,.1,-.4,.4c0,.2,.2,.3,.4,.3m3.8,0H205c.2,0,.4,-.1,.4,-.3c0,-.3,-.2,-.4,-.4,-.4h-2.4c-.2,0,-.3,.1,-.3,.4c0,.2,.1,.3,.3,.3m3.9,0h2.4c.2,0,.3,-.1,.3,-.3c0,-.3,-.1,-.4,-.3,-.4h-2.4c-.2,0,-.4,.1,-.4,.4c0,.2,.2,.3,.4,.3m3.9,0h2.3c.2,0,.4,-.1,.4,-.3c0,-.3,-.2,-.4,-.4,-.4h-2.3c-.2,0,-.4,.1,-.4,.4c0,.2,.2,.3,.4,.3m3.9,0h2.3c.2,0,.4,-.1,.4,-.3c0,-.3,-.2,-.4,-.4,-.4h-2.3c-.2,0,-.4,.1,-.4,.4c0,.2,.2,.3,.4,.3Z" class="g4_27"/>
<path d="M142.1,342.4h79v-6.8h-79v6.8Z" class="g9_27"/>
<image clip-path="url(#cc_27)" preserveAspectRatio="none" x="232" y="318" width="80" height="22" xlink:href="img/13.jpg"/>
<image clip-path="url(#cd_27)" preserveAspectRatio="none" x="223" y="246" width="89" height="73" xlink:href="img/14.jpg"/>
<image clip-path="url(#ce_27)" preserveAspectRatio="none" x="232" y="342" width="90" height="6" xlink:href="img/15.jpg"/>
<image clip-path="url(#cf_27)" preserveAspectRatio="none" x="232" y="339" width="80" height="4" xlink:href="img/16.jpg"/>
<image clip-path="url(#cg_27)" preserveAspectRatio="none" x="223" y="318" width="11" height="23" xlink:href="img/17.jpg"/>
<image clip-path="url(#ch_27)" preserveAspectRatio="none" x="223" y="246" width="10" height="73" xlink:href="img/18.jpg"/>
<image clip-path="url(#ci_27)" preserveAspectRatio="none" x="223" y="341" width="11" height="7" xlink:href="img/19.jpg"/>
<image clip-path="url(#cj_27)" preserveAspectRatio="none" x="223" y="339" width="11" height="4" xlink:href="img/20.jpg"/>
<path d="M248.6,259c-10.1,0,-18.3,8.2,-18.3,18.3v64.2h79V277.3C309.3,267.2,301.1,259,291,259Z" class="g3_27"/>
<path d="M230.2,342.4h79.1v-7.2H230.2v7.2Z" class="g9_27"/>
<path d="M236.4,285.2H239c.2,0,.3,-.2,.3,-.4c0,-.2,-.1,-.4,-.3,-.4h-2.6c-.2,0,-.4,.2,-.4,.4c0,.2,.2,.4,.4,.4m4.3,0h2.6c.2,0,.4,-.2,.4,-.4c0,-.2,-.2,-.4,-.4,-.4h-2.6c-.2,0,-.3,.2,-.3,.4c0,.2,.1,.4,.3,.4m4.3,0h2.6c.2,0,.4,-.2,.4,-.4c0,-.2,-.2,-.4,-.4,-.4H245c-.2,0,-.3,.2,-.3,.4c0,.2,.1,.4,.3,.4m4.4,0h2.5c.2,0,.4,-.2,.4,-.4c0,-.2,-.2,-.4,-.4,-.4h-2.5c-.3,0,-.4,.2,-.4,.4c0,.2,.1,.4,.4,.4Z" class="g6_27"/>
<path d="M288,317.4h2.2c.2,0,.3,-.1,.3,-.3c0,-.3,-.1,-.4,-.3,-.4H288c-.3,0,-.4,.1,-.4,.4c0,.2,.1,.3,.4,.3m3.6,0h2.2c.2,0,.4,-.1,.4,-.3c0,-.3,-.2,-.4,-.4,-.4h-2.2c-.2,0,-.4,.1,-.4,.4c0,.2,.2,.3,.4,.3m3.6,0h2.3c.2,0,.3,-.1,.3,-.3c0,-.3,-.1,-.4,-.3,-.4h-2.3c-.2,0,-.3,.1,-.3,.4c0,.2,.1,.3,.3,.3m3.7,0h2.2c.2,0,.4,-.1,.4,-.3c0,-.3,-.2,-.4,-.4,-.4h-2.2c-.2,0,-.4,.1,-.4,.4c0,.2,.2,.3,.4,.3m3.6,0h2.2c.3,0,.4,-.1,.4,-.3c0,-.3,-.1,-.4,-.4,-.4h-2.2c-.2,0,-.3,.1,-.3,.4c0,.2,.1,.3,.3,.3Z" class="g6_27"/>
<path d="M287.1,285.2h2.3c.2,0,.4,-.2,.4,-.4c0,-.2,-.2,-.4,-.4,-.4h-2.3c-.2,0,-.4,.2,-.4,.4c0,.2,.2,.4,.4,.4m3.8,0h2.3c.2,0,.4,-.2,.4,-.4c0,-.2,-.2,-.4,-.4,-.4h-2.3c-.2,0,-.4,.2,-.4,.4c0,.2,.2,.4,.4,.4m3.9,0h2.3c.2,0,.3,-.2,.3,-.4c0,-.2,-.1,-.4,-.3,-.4h-2.3c-.2,0,-.4,.2,-.4,.4c0,.2,.2,.4,.4,.4m3.8,0h2.3c.2,0,.4,-.2,.4,-.4c0,-.2,-.2,-.4,-.4,-.4h-2.3c-.2,0,-.4,.2,-.4,.4c0,.2,.2,.4,.4,.4m3.8,0h2.3c.3,0,.4,-.2,.4,-.4c0,-.2,-.1,-.4,-.4,-.4h-2.3c-.2,0,-.3,.2,-.3,.4c0,.2,.1,.4,.3,.4Z" class="g6_27"/>
<path d="M283.2,302.6c.1,.9,.3,1.8,.3,2.8c-.1,2.6,-1.3,4.5,-3.5,6c-1.7,1.1,-3.6,1.6,-5.6,1.6c-3.1,.1,-6.2,.1,-9.3,0c-2.1,0,-4.1,-.5,-5.8,-1.7c-2.5,-1.8,-3.6,-4.2,-3.2,-7.3c.3,-2.5,.4,-5,.5,-7.6c0,-2.3,0,-4.6,-.1,-7c0,-2.7,1.1,-4.8,3.3,-6.4c1.8,-1.4,4,-2,6.3,-2c2.5,-.1,4.9,-.1,7.4,0c2.1,0,4.2,.6,5.9,1.8c2.6,1.8,3.8,4.1,3.5,7.3c-.1,1.5,0,3.1,0,4.6c0,0,.2,5.2,.3,7.9m-13.4,-20v-.1c-1.3,0,-2.5,0,-3.7,0c-1.7,0,-3.3,.4,-4.7,1.3c-2,1.2,-3.4,2.9,-3.3,5.4c.1,1.1,.4,2.2,.7,3.2c.6,1.7,1.4,3.3,2.8,4.6c.4,.3,.4,.7,0,1.1c-.8,.8,-1.7,1.6,-2.8,1.9c-.7,.3,-.9,.7,-.9,1.3c-.1,.7,.1,1.1,.5,1.6c1,1,2.2,1.7,3.5,2.3c2.3,1,4.7,1.3,7.2,1.3c2.7,.1,5.3,-.2,7.8,-1.1c1.7,-.6,3.3,-1.5,4.4,-2.9c.2,-.2,.3,-.4,.3,-.6c0,-.4,0,-.9,-.1,-1.3l-.3,-.3c-1.3,-.5,-2.4,-1.3,-3.3,-2.2c-.4,-.4,-.3,-.8,0,-1.2c.6,-.6,1.2,-1.2,1.6,-1.9c1,-1.6,1.5,-3.4,1.8,-5.2c.3,-1.5,-.1,-2.8,-1,-4c-1.5,-2,-3.5,-3,-5.9,-3.2c-1.6,-.1,-3.1,0,-4.6,0m-12.1,21.3c-.5,2.1,0,3.9,1.6,5.4c1.7,1.6,3.7,2.2,5.9,2.2c3,0,6,0,9,0c1,0,2,-.1,3,-.5c1.8,-.6,3.3,-1.6,4.2,-3.4c.6,-1.2,.6,-2.5,.3,-3.8l-.1,.1c-1.4,1.8,-3.3,2.8,-5.5,3.4c-3.7,1,-7.4,1,-11.1,.4c-1.8,-.3,-3.5,-.9,-5.1,-1.9c-.8,-.6,-1.5,-1.3,-2.2,-1.9Z" class="g6_27"/>
<path d="M262.8,313.6c-.6,.5,-1.3,1,-1.9,1.4c-.6,.5,-2.3,1.8,-2.9,2.4c-.3,.2,-.7,.2,-1,.1c-.2,0,-.4,-.2,-.4,-.4c-.1,-.3,0,-.6,.3,-.8c.4,-.4,1.8,-1.5,2.2,-1.8c.6,-.4,1.1,-.9,1.7,-1.3c.1,-.1,.4,-.1,.5,-.1c.5,.1,1,.3,1.5,.5Z" class="g6_27"/>
<path d="M276.6,313.6c.7,-.2,1.2,-.4,1.7,-.5l.4,.1c1,.7,3,2.3,3.9,3c.2,.1,.3,.3,.4,.5c.1,.3,0,.6,-.2,.8c-.3,.1,-.8,.1,-1,0c-1.4,-1,-3.7,-2.8,-5.2,-3.9Z" class="g6_27"/>
<path d="M269.7,296.3c-1.4,0,-2.8,.1,-4.2,0c-2.5,-.2,-4.5,-2,-5,-4.5c-.1,-.7,-.2,-1.3,-.3,-1.9c-.5,-2.5,1.2,-4.6,3.7,-4.6c3.9,-.1,7.8,0,11.6,0c2.5,0,4.2,1.9,3.8,4.3c-.1,1.3,-.3,2.7,-1,4c-1.2,1.8,-2.8,2.8,-5,2.8c-1.2,0,-2.4,0,-3.6,0Z" class="g6_27"/>
<path d="M275.6,299.8c.3,0,.7,0,1,0c.6,0,1,.4,.8,.8c-.7,1.1,-1.3,2.2,-2,3.3c-.1,.3,-.4,.4,-.7,.4c-.7,0,-1.4,0,-2,0c-.7,0,-1,-.4,-.8,-.9c.6,-1,1.3,-2.1,1.9,-3.2c.1,-.3,.4,-.4,.8,-.4c.4,0,.7,0,1,0Z" class="g6_27"/>
<path d="M265.8,304.3c-.3,0,-.6,0,-.9,0c-.4,0,-.7,-.1,-.9,-.4c-.6,-1.1,-1.2,-2.1,-1.8,-3.2c-.3,-.5,0,-.9,.7,-.9c.7,0,1.3,0,2,0c.4,0,.6,.1,.8,.4c.6,1.1,1.3,2.2,1.9,3.2c.2,.5,-.1,.8,-.7,.9c-.4,0,-.7,0,-1.1,0Z" class="g6_27"/>
<path d="M271.1,309.9c0,.7,-.6,1.3,-1.3,1.3c-.8,0,-1.4,-.6,-1.4,-1.3c0,-.7,.6,-1.4,1.3,-1.4c.7,0,1.4,.6,1.4,1.4Z" class="g6_27"/>
<path d="M236.4,317.4h2.2c.2,0,.4,-.1,.4,-.3c0,-.3,-.2,-.4,-.4,-.4h-2.2c-.2,0,-.4,.1,-.4,.4c0,.2,.2,.3,.4,.3m3.7,0h2.2c.2,0,.4,-.1,.4,-.3c0,-.3,-.2,-.4,-.4,-.4h-2.2c-.2,0,-.4,.1,-.4,.4c0,.2,.2,.3,.4,.3m3.6,0h2.2c.2,0,.4,-.1,.4,-.3c0,-.3,-.2,-.4,-.4,-.4h-2.2c-.2,0,-.4,.1,-.4,.4c0,.2,.2,.3,.4,.3m3.7,0h2.2c.2,0,.4,-.1,.4,-.3c0,-.3,-.2,-.4,-.4,-.4h-2.2c-.2,0,-.4,.1,-.4,.4c0,.2,.2,.3,.4,.3m3.6,0h2.2c.2,0,.4,-.1,.4,-.3c0,-.3,-.2,-.4,-.4,-.4H251c-.2,0,-.4,.1,-.4,.4c0,.2,.2,.3,.4,.3Z" class="g6_27"/>
<image clip-path="url(#ck_27)" preserveAspectRatio="none" x="487" y="246" width="99" height="102" xlink:href="img/21.jpg"/>
<image clip-path="url(#cl_27)" preserveAspectRatio="none" x="497" y="246" width="88" height="73" xlink:href="img/22.jpg"/>
<image clip-path="url(#cm_27)" preserveAspectRatio="none" x="497" y="339" width="88" height="4" xlink:href="img/23.jpg"/>
<image clip-path="url(#cn_27)" preserveAspectRatio="none" x="497" y="264" width="74" height="4" xlink:href="img/24.jpg"/>
<path d="M512.9,259c-10.1,0,-18.3,8.2,-18.3,18.3v64.2h79V277.3c0,-10.1,-8.2,-18.3,-18.3,-18.3Z" class="g3_27"/>
<path d="M494.5,342.4h79.1v-7.2H494.5v7.2Z" class="g9_27"/>
<path d="M499.9,317.4h2.4c.2,0,.3,-.1,.3,-.3c0,-.3,-.1,-.4,-.3,-.4h-2.4c-.2,0,-.3,.1,-.3,.4c0,.2,.1,.3,.3,.3m3.9,0h2.3c.3,0,.4,-.1,.4,-.3c0,-.3,-.1,-.4,-.4,-.4h-2.3c-.2,0,-.4,.1,-.4,.4c0,.2,.2,.3,.4,.3m3.9,0H510c.2,0,.4,-.1,.4,-.3c0,-.3,-.2,-.4,-.4,-.4h-2.3c-.2,0,-.4,.1,-.4,.4c0,.2,.2,.3,.4,.3m3.9,0h2.3c.2,0,.4,-.1,.4,-.3c0,-.3,-.2,-.4,-.4,-.4h-2.3c-.2,0,-.4,.1,-.4,.4c0,.2,.2,.3,.4,.3m3.9,0h2.3c.2,0,.4,-.1,.4,-.3c0,-.3,-.2,-.4,-.4,-.4h-2.3c-.2,0,-.4,.1,-.4,.4c0,.2,.2,.3,.4,.3m3.9,0h2.3c.2,0,.4,-.1,.4,-.3c0,-.3,-.2,-.4,-.4,-.4h-2.3c-.3,0,-.4,.1,-.4,.4c0,.2,.1,.3,.4,.3m3.8,0h2.4c.2,0,.3,-.1,.3,-.3c0,-.3,-.1,-.4,-.3,-.4h-2.4c-.2,0,-.3,.1,-.3,.4c0,.2,.1,.3,.3,.3m3.9,0h2.3c.2,0,.4,-.1,.4,-.3c0,-.3,-.2,-.4,-.4,-.4h-2.3c-.2,0,-.4,.1,-.4,.4c0,.2,.2,.3,.4,.3m3.9,0h2.3c.2,0,.4,-.1,.4,-.3c0,-.3,-.2,-.4,-.4,-.4H531c-.2,0,-.4,.1,-.4,.4c0,.2,.2,.3,.4,.3m3.9,0h2.3c.2,0,.4,-.1,.4,-.3c0,-.3,-.2,-.4,-.4,-.4h-2.3c-.2,0,-.4,.1,-.4,.4c0,.2,.2,.3,.4,.3m3.9,0h2.3c.2,0,.4,-.1,.4,-.3c0,-.3,-.2,-.4,-.4,-.4h-2.3c-.2,0,-.4,.1,-.4,.4c0,.2,.2,.3,.4,.3m3.8,0H545c.2,0,.3,-.1,.3,-.3c0,-.3,-.1,-.4,-.3,-.4h-2.4c-.2,0,-.3,.1,-.3,.4c0,.2,.1,.3,.3,.3m3.9,0h2.3c.3,0,.4,-.1,.4,-.3c0,-.3,-.1,-.4,-.4,-.4h-2.3c-.2,0,-.4,.1,-.4,.4c0,.2,.2,.3,.4,.3m3.9,0h2.3c.2,0,.4,-.1,.4,-.3c0,-.3,-.2,-.4,-.4,-.4h-2.3c-.2,0,-.4,.1,-.4,.4c0,.2,.2,.3,.4,.3m3.9,0h2.3c.2,0,.4,-.1,.4,-.3c0,-.3,-.2,-.4,-.4,-.4h-2.3c-.2,0,-.4,.1,-.4,.4c0,.2,.2,.3,.4,.3m3.9,0h2.3c.2,0,.4,-.1,.4,-.3c0,-.3,-.2,-.4,-.4,-.4h-2.3c-.2,0,-.4,.1,-.4,.4c0,.2,.2,.3,.4,.3m3.9,0h2.3c.2,0,.4,-.1,.4,-.3c0,-.3,-.2,-.4,-.4,-.4h-2.3c-.3,0,-.4,.1,-.4,.4c0,.2,.1,.3,.4,.3m3.8,0h2.4c.2,0,.3,-.1,.3,-.3c0,-.3,-.1,-.4,-.3,-.4h-2.4c-.2,0,-.3,.1,-.3,.4c0,.2,.1,.3,.3,.3Z" class="ga_27"/>
<path d="M499.3,281h2.3c.2,0,.4,-.1,.4,-.3c0,-.3,-.2,-.4,-.4,-.4h-2.3c-.2,0,-.4,.1,-.4,.4c0,.2,.2,.3,.4,.3m3.9,0h2.3c.2,0,.4,-.1,.4,-.3c0,-.3,-.2,-.4,-.4,-.4h-2.3c-.2,0,-.4,.1,-.4,.4c0,.2,.2,.3,.4,.3m3.9,0h2.3c.2,0,.4,-.1,.4,-.3c0,-.3,-.2,-.4,-.4,-.4h-2.3c-.3,0,-.4,.1,-.4,.4c0,.2,.1,.3,.4,.3m3.8,0h2.4c.2,0,.3,-.1,.3,-.3c0,-.3,-.1,-.4,-.3,-.4h-2.4c-.2,0,-.3,.1,-.3,.4c0,.2,.1,.3,.3,.3m3.9,0h2.3c.3,0,.4,-.1,.4,-.3c0,-.3,-.1,-.4,-.4,-.4h-2.3c-.2,0,-.4,.1,-.4,.4c0,.2,.2,.3,.4,.3m3.9,0H521c.2,0,.4,-.1,.4,-.3c0,-.3,-.2,-.4,-.4,-.4h-2.3c-.2,0,-.4,.1,-.4,.4c0,.2,.2,.3,.4,.3m3.9,0h2.3c.2,0,.4,-.1,.4,-.3c0,-.3,-.2,-.4,-.4,-.4h-2.3c-.2,0,-.4,.1,-.4,.4c0,.2,.2,.3,.4,.3m3.9,0h2.3c.2,0,.4,-.1,.4,-.3c0,-.3,-.2,-.4,-.4,-.4h-2.3c-.2,0,-.4,.1,-.4,.4c0,.2,.2,.3,.4,.3m3.8,0h2.4c.2,0,.4,-.1,.4,-.3c0,-.3,-.2,-.4,-.4,-.4h-2.4c-.2,0,-.3,.1,-.3,.4c0,.2,.1,.3,.3,.3m3.9,0h2.4c.2,0,.3,-.1,.3,-.3c0,-.3,-.1,-.4,-.3,-.4h-2.4c-.2,0,-.4,.1,-.4,.4c0,.2,.2,.3,.4,.3m3.9,0h2.3c.2,0,.4,-.1,.4,-.3c0,-.3,-.2,-.4,-.4,-.4h-2.3c-.2,0,-.4,.1,-.4,.4c0,.2,.2,.3,.4,.3m3.9,0h2.3c.2,0,.4,-.1,.4,-.3c0,-.3,-.2,-.4,-.4,-.4H542c-.2,0,-.4,.1,-.4,.4c0,.2,.2,.3,.4,.3m3.9,0h2.3c.2,0,.4,-.1,.4,-.3c0,-.3,-.2,-.4,-.4,-.4h-2.3c-.2,0,-.4,.1,-.4,.4c0,.2,.2,.3,.4,.3m3.9,0h2.3c.2,0,.4,-.1,.4,-.3c0,-.3,-.2,-.4,-.4,-.4h-2.3c-.3,0,-.4,.1,-.4,.4c0,.2,.1,.3,.4,.3m3.8,0H556c.2,0,.3,-.1,.3,-.3c0,-.3,-.1,-.4,-.3,-.4h-2.4c-.2,0,-.3,.1,-.3,.4c0,.2,.1,.3,.3,.3m3.9,0h2.3c.3,0,.4,-.1,.4,-.3c0,-.3,-.1,-.4,-.4,-.4h-2.3c-.2,0,-.4,.1,-.4,.4c0,.2,.2,.3,.4,.3m3.9,0h2.3c.2,0,.4,-.1,.4,-.3c0,-.3,-.2,-.4,-.4,-.4h-2.3c-.2,0,-.4,.1,-.4,.4c0,.2,.2,.3,.4,.3m3.9,0h2.3c.2,0,.4,-.1,.4,-.3c0,-.3,-.2,-.4,-.4,-.4h-2.3c-.2,0,-.4,.1,-.4,.4c0,.2,.2,.3,.4,.3Z" class="ga_27"/>
<path d="M548,297.8v.7h4.6c1.1,0,2,-.9,2,-2v-.4c0,-1.1,-.9,-2,-2,-2H548c-.5,-.1,-1,.2,-1.4,.5c-.1,.1,-.2,.3,-.2,.5v.3c0,.1,-.1,.3,-.2,.4c-.2,.2,-.2,.4,-.2,.6v.1c0,1.1,.9,2,2,2v-1.3c-.4,0,-.7,-.3,-.7,-.7v-.1h-.7l.5,.5c.4,-.4,.7,-.9,.7,-1.5v-.3h-.7l.4,.5c.2,-.1,.3,-.2,.5,-.2h4.6c.3,0,.6,.3,.6,.7v.4c0,.4,-.3,.7,-.6,.7H548Z" class="ga_27"/>
<path d="M547.1,288.5l-.5,.5c.4,.3,.9,.6,1.4,.6h4.6c1.1,0,2,-1,2,-2.1v-.4c0,-1.1,-.9,-2,-2,-2H548c-1.1,0,-2,.9,-2,2v.2c0,.2,0,.4,.2,.5c.1,.1,.2,.3,.2,.5v.2c0,.2,.1,.4,.2,.5l.5,-.5h.7v-.2c0,-.6,-.3,-1.2,-.7,-1.5l-.5,.5h.7v-.2c0,-.3,.3,-.6,.7,-.6h4.6c.3,0,.6,.3,.6,.6v.4c0,.4,-.3,.7,-.6,.7H548c-.2,0,-.3,-.1,-.5,-.2l-.4,.5h.7Z" class="ga_27"/>
<path d="M553.6,297.3v.7h1.9c1,0,1.8,-.8,1.8,-1.8v-8.7c0,-1,-.8,-1.9,-1.8,-1.9h-1.8c-.3,0,-.5,.2,-.7,.4c-.1,.2,-.1,.5,.1,.7c.1,.1,.1,.3,.1,.4v.4c0,.4,-.3,.7,-.6,.7H548c-.2,0,-.3,-.1,-.5,-.2c-.2,-.2,-.4,-.2,-.7,-.1c-.2,.1,-.4,.3,-.4,.6v6.6c0,.3,.2,.5,.4,.6c.3,.1,.5,.1,.7,-.1c.2,-.1,.3,-.2,.5,-.2h4.6c.3,0,.6,.3,.6,.7v.4c0,.1,0,.3,-.1,.4c-.2,.2,-.2,.5,-.1,.7c.1,.3,.3,.4,.6,.4v-.7l.5,.5c.3,-.4,.5,-.8,.5,-1.3v-.4c0,-1.1,-.9,-2,-2,-2H548c-.5,0,-1,.2,-1.4,.5l.5,.5h.7v-6.6h-.7l-.5,.5c.4,.3,.9,.6,1.4,.6h4.6c1.1,0,2,-1,2,-2.1v-.4c0,-.4,-.1,-.8,-.4,-1.2l-.5,.4v.7h1.8c.2,0,.4,.2,.4,.5v8.7c0,.2,-.2,.4,-.4,.4h-1.9v.7l.5,.5Z" class="ga_27"/>
<path d="M547.1,288.3h.7c0,-1.1,-.9,-2.1,-2.1,-2.1h-.6c-1.2,0,-2.1,1,-2.1,2.1v7.1c0,1.1,.9,2,2.1,2h.6c1.2,0,2.1,-.9,2.1,-2v-7.1h-1.4v7.1c0,.3,-.3,.6,-.7,.6h-.6c-.4,0,-.7,-.3,-.7,-.6v-7.1c0,-.4,.3,-.7,.7,-.7h.6c.4,0,.7,.3,.7,.7Z" class="ga_27"/>
<path d="M548,310.6v.7h4.6c1.1,0,2,-.9,2,-2v-.4c0,-1.2,-.9,-2.1,-2,-2.1H548c-.5,0,-1,.2,-1.4,.6c-.1,.1,-.2,.3,-.2,.5v.2c0,.2,-.1,.4,-.2,.5c-.2,.2,-.2,.3,-.2,.5v.2c0,1.1,.9,2,2,2v-1.4c-.4,0,-.7,-.3,-.7,-.6v-.2h-.7l.5,.5c.4,-.3,.7,-.9,.7,-1.5v-.2h-.7l.4,.5c.2,-.1,.3,-.2,.5,-.2h4.6c.3,0,.6,.3,.6,.7v.4c0,.3,-.3,.6,-.6,.6H548Z" class="ga_27"/>
<path d="M547.1,301.3l-.5,.5c.4,.3,.9,.5,1.4,.5h4.6c1.1,0,2,-.9,2,-2v-.4c0,-1.1,-.9,-2,-2,-2H548c-1.1,0,-2,.9,-2,2v.2c0,.2,0,.3,.2,.5c.1,.1,.2,.3,.2,.5v.2c0,.2,.1,.4,.2,.5l.5,-.5h.7v-.2c0,-.6,-.3,-1.2,-.7,-1.5l-.5,.5h.7v-.2c0,-.4,.3,-.7,.7,-.7h4.6c.3,0,.6,.3,.6,.7v.4c0,.4,-.3,.7,-.6,.7H548c-.2,0,-.3,-.1,-.5,-.2l-.4,.5h.7Z" class="ga_27"/>
<path d="M553.6,310.1v.7h1.9c1,0,1.8,-.8,1.8,-1.8v-8.8c0,-1,-.8,-1.8,-1.8,-1.8h-1.8c-.3,0,-.5,.2,-.7,.4c-.1,.2,-.1,.5,.1,.7c.1,.1,.1,.3,.1,.4v.4c0,.4,-.3,.7,-.6,.7H548c-.2,0,-.3,-.1,-.5,-.2c-.2,-.2,-.4,-.2,-.7,-.1c-.2,.1,-.4,.3,-.4,.6v6.6c0,.2,.2,.5,.4,.6c.3,.1,.5,.1,.7,-.1c.2,-.1,.3,-.2,.5,-.2h4.6c.3,0,.6,.3,.6,.7v.4c0,.1,0,.3,-.1,.4c-.2,.2,-.2,.5,-.1,.7c.1,.2,.3,.4,.6,.4v-.7l.5,.4c.3,-.3,.5,-.7,.5,-1.2v-.4c0,-1.2,-.9,-2.1,-2,-2.1H548c-.5,0,-1,.2,-1.4,.6l.5,.5h.7v-6.6h-.7l-.5,.5c.4,.3,.9,.5,1.4,.5h4.6c1.1,0,2,-.9,2,-2v-.4c0,-.4,-.1,-.9,-.4,-1.2l-.5,.4v.7h1.8c.2,0,.4,.2,.4,.4V309c0,.2,-.2,.4,-.4,.4h-1.9v.7l.5,.4Z" class="ga_27"/>
<path d="M547.1,301.1h.7c0,-1.2,-.9,-2.1,-2.1,-2.1h-.6c-1.2,0,-2.1,.9,-2.1,2.1v7c0,1.2,.9,2.1,2.1,2.1h.6c1.2,0,2.1,-.9,2.1,-2.1v-7h-1.4v7c0,.4,-.3,.7,-.7,.7h-.6c-.4,0,-.7,-.3,-.7,-.7v-7c0,-.4,.3,-.7,.7,-.7h.6c.4,0,.7,.3,.7,.7Z" class="ga_27"/>
<path d="M532.7,297h3.2c.5,0,.9,-.2,.9,-.6v-.1c0,-.3,-.4,-.6,-.9,-.6h-3.2c-.2,0,-.5,.1,-.6,.2v.1c0,.1,-.1,.3,-.3,.4c0,.4,.4,.6,.9,.6Z" class="ga_27"/>
<path d="M532.2,287.2c.2,.1,.4,.1,.7,.1h3.3c.5,0,.9,-.2,.9,-.6v-.2c0,-.3,-.4,-.6,-.9,-.6h-3.3c-.6,0,-1,.3,-1,.6v.1c.2,.1,.3,.3,.3,.5Z" class="ga_27"/>
<path d="M538,297h1.8c.6,0,1.1,-.5,1.1,-1.1v-8.7c0,-.7,-.5,-1.2,-1.1,-1.2h-1.7c.1,.3,.2,.5,.2,.8v.4c0,.8,-.6,1.4,-1.3,1.4h-4.3c-.4,0,-.7,-.2,-.9,-.4v6.6c.2,-.2,.5,-.4,.9,-.4H537c.7,0,1.3,.6,1.3,1.4v.4c0,.3,-.1,.6,-.3,.8Z" class="ga_27"/>
<path d="M530.5,288.7c0,-.6,-.5,-1,-1.1,-1c-.6,0,-1.1,.4,-1.1,1v5.6c0,.6,.5,1.1,1.1,1.1c.6,0,1.1,-.5,1.1,-1.1Z" class="ga_27"/>
<path d="M532.3,310.6v.7h4.5c1.2,0,2.1,-.9,2.1,-2v-.4c0,-1.2,-.9,-2.1,-2.1,-2.1h-4.5c-.6,0,-1.1,.2,-1.4,.6c-.2,.1,-.2,.3,-.2,.5v.2c0,.2,-.1,.4,-.3,.5c-.1,.2,-.2,.3,-.2,.5v.2c0,1.1,.9,2,2.1,2v-1.4c-.4,0,-.7,-.3,-.7,-.6v-.2h-.7l.5,.5c.4,-.3,.6,-.9,.6,-1.5v-.2h-.6l.4,.5c.1,-.1,.3,-.2,.5,-.2h4.5c.4,0,.7,.3,.7,.7v.4c0,.3,-.3,.6,-.7,.6h-4.5Z" class="ga_27"/>
<path d="M531.4,301.3l-.5,.5c.3,.3,.8,.5,1.4,.5h4.5c1.2,0,2.1,-.9,2.1,-2v-.4c0,-1.1,-.9,-2,-2.1,-2h-4.5c-1.2,0,-2.1,.9,-2.1,2v.2c0,.2,.1,.3,.2,.5c.2,.1,.3,.3,.3,.5v.2c0,.2,0,.4,.2,.5l.5,-.5h.6v-.2c0,-.6,-.2,-1.2,-.6,-1.5l-.5,.5h.7v-.2c0,-.4,.3,-.7,.7,-.7h4.5c.4,0,.7,.3,.7,.7v.4c0,.4,-.3,.7,-.7,.7h-4.5c-.2,0,-.4,-.1,-.5,-.2l-.4,.5h.6Z" class="ga_27"/>
<path d="M537.9,310.1v.7h1.9c1,0,1.8,-.8,1.8,-1.8v-8.8c0,-1,-.8,-1.8,-1.8,-1.8h-1.9c-.2,0,-.5,.2,-.6,.4c-.1,.2,-.1,.5,.1,.7c0,.1,.1,.3,.1,.4v.4c0,.4,-.3,.7,-.7,.7h-4.5c-.2,0,-.4,-.1,-.5,-.2c-.2,-.2,-.5,-.2,-.7,-.1c-.3,.1,-.4,.3,-.4,.6v6.6c0,.2,.1,.5,.4,.6c.2,.1,.5,.1,.7,-.1c.1,-.1,.3,-.2,.5,-.2h4.5c.4,0,.7,.3,.7,.7v.4c0,.1,-.1,.3,-.2,.4c-.1,.2,-.2,.5,0,.7c.1,.2,.3,.4,.6,.4v-.7l.5,.4c.3,-.3,.5,-.7,.5,-1.2v-.4c0,-1.2,-.9,-2.1,-2.1,-2.1h-4.5c-.6,0,-1.1,.2,-1.4,.6l.5,.5h.6v-6.6h-.6l-.5,.5c.3,.3,.8,.5,1.4,.5h4.5c1.2,0,2.1,-.9,2.1,-2v-.4c0,-.4,-.2,-.9,-.4,-1.2l-.6,.4v.7h1.9c.2,0,.4,.2,.4,.4V309c0,.2,-.2,.4,-.4,.4h-1.9v.7l.5,.4Z" class="ga_27"/>
<path d="M531.4,301.1h.6c0,-1.2,-.9,-2.1,-2,-2.1h-.7c-1.1,0,-2,.9,-2,2.1v7c0,1.2,.9,2.1,2,2.1h.7c1.1,0,2,-.9,2,-2.1v-7h-1.3v7c0,.4,-.3,.7,-.7,.7h-.7c-.3,0,-.6,-.3,-.6,-.7v-7c0,-.4,.3,-.7,.6,-.7h.7c.4,0,.7,.3,.7,.7Z" class="ga_27"/>
<path d="M516.5,297.8v.7h4.6c1.1,0,2,-.9,2,-2v-.4c0,-1.1,-.9,-2,-2,-2h-4.6c-.5,-.1,-1,.2,-1.3,.5c-.2,.1,-.3,.3,-.3,.5v.3c0,.1,-.1,.3,-.2,.4c-.1,.2,-.2,.4,-.2,.6v.1c0,1.1,.9,2,2,2v-1.3c-.3,0,-.6,-.3,-.6,-.7v-.1h-.7l.4,.5c.4,-.4,.7,-.9,.7,-1.5v-.3h-.7l.5,.5c.1,-.1,.2,-.2,.4,-.2h4.6c.4,0,.7,.3,.7,.7v.4c0,.4,-.3,.7,-.7,.7h-4.6Z" class="ga_27"/>
<path d="M515.6,288.5l-.4,.5c.3,.3,.8,.6,1.3,.6h4.6c1.1,0,2,-1,2,-2.1v-.4c0,-1.1,-.9,-2,-2,-2h-4.6c-1.1,0,-2,.9,-2,2v.2c0,.2,.1,.4,.2,.5c.1,.1,.2,.3,.2,.5v.2c0,.2,.1,.4,.3,.5l.4,-.5h.7v-.2c0,-.6,-.3,-1.2,-.7,-1.5l-.4,.5h.7v-.2c0,-.3,.3,-.6,.6,-.6h4.6c.4,0,.7,.3,.7,.6v.4c0,.4,-.3,.7,-.7,.7h-4.6c-.2,0,-.3,-.1,-.4,-.2l-.5,.5h.7Z" class="ga_27"/>
<path d="M522.1,297.3v.7H524c1,0,1.8,-.8,1.8,-1.8v-8.7c0,-1,-.8,-1.9,-1.8,-1.9h-1.8c-.3,0,-.5,.2,-.6,.4c-.1,.2,-.1,.5,0,.7c.1,.1,.2,.3,.2,.4v.4c0,.4,-.3,.7,-.7,.7h-4.6c-.2,0,-.3,-.1,-.4,-.2c-.2,-.2,-.5,-.2,-.8,-.1c-.2,.1,-.4,.3,-.4,.6v6.6c0,.3,.2,.5,.4,.6c.3,.1,.6,.1,.8,-.1c.1,-.1,.2,-.2,.4,-.2h4.6c.4,0,.7,.3,.7,.7v.4c0,.1,-.1,.3,-.2,.4c-.2,.2,-.2,.5,-.1,.7c.1,.3,.4,.4,.6,.4v-.7l.6,.5c.2,-.4,.4,-.8,.4,-1.3v-.4c0,-1.1,-.9,-2,-2,-2h-4.6c-.5,0,-1,.2,-1.3,.5l.4,.5h.7v-6.6h-.7l-.4,.5c.3,.3,.8,.6,1.3,.6h4.6c1.1,0,2,-1,2,-2.1v-.4c0,-.4,-.1,-.8,-.4,-1.2l-.5,.4v.7H524c.3,0,.5,.2,.5,.5v8.7c0,.2,-.2,.4,-.5,.4h-1.9v.7l.6,.5Z" class="ga_27"/>
<path d="M515.6,288.3h.7c0,-1.1,-.9,-2.1,-2,-2.1h-.7c-1.1,0,-2.1,1,-2.1,2.1v7.1c0,1.1,1,2,2.1,2h.7c1.1,0,2,-.9,2,-2v-7.1h-1.4v7.1c0,.3,-.3,.6,-.6,.6h-.7c-.4,0,-.7,-.3,-.7,-.6v-7.1c0,-.4,.3,-.7,.7,-.7h.7c.3,0,.6,.3,.6,.7Z" class="ga_27"/>
<path d="M516.5,310.6v.7h4.6c1.1,0,2,-.9,2,-2v-.4c0,-1.2,-.9,-2.1,-2,-2.1h-4.6c-.5,0,-1,.2,-1.3,.6c-.2,.1,-.3,.3,-.3,.5v.2c0,.2,-.1,.4,-.2,.5c-.1,.2,-.2,.3,-.2,.5v.2c0,1.1,.9,2,2,2v-1.4c-.3,0,-.6,-.3,-.6,-.6v-.2h-.7l.4,.5c.4,-.3,.7,-.9,.7,-1.5v-.2h-.7l.5,.5c.1,-.1,.2,-.2,.4,-.2h4.6c.4,0,.7,.3,.7,.7v.4c0,.3,-.3,.6,-.7,.6h-4.6Z" class="ga_27"/>
<path d="M515.6,301.3l-.4,.5c.3,.3,.8,.5,1.3,.5h4.6c1.1,0,2,-.9,2,-2v-.4c0,-1.1,-.9,-2,-2,-2h-4.6c-1.1,0,-2,.9,-2,2v.2c0,.2,.1,.3,.2,.5c.1,.1,.2,.3,.2,.5v.2c0,.2,.1,.4,.3,.5l.4,-.5h.7v-.2c0,-.6,-.3,-1.2,-.7,-1.5l-.4,.5h.7v-.2c0,-.4,.3,-.7,.6,-.7h4.6c.4,0,.7,.3,.7,.7v.4c0,.4,-.3,.7,-.7,.7h-4.6c-.2,0,-.3,-.1,-.4,-.2l-.5,.5h.7Z" class="ga_27"/>
<path d="M522.1,310.1v.7H524c1,0,1.8,-.8,1.8,-1.8v-8.8c0,-1,-.8,-1.8,-1.8,-1.8h-1.8c-.3,0,-.5,.2,-.6,.4c-.1,.2,-.1,.5,0,.7c.1,.1,.2,.3,.2,.4v.4c0,.4,-.3,.7,-.7,.7h-4.6c-.2,0,-.3,-.1,-.4,-.2c-.2,-.2,-.5,-.2,-.8,-.1c-.2,.1,-.4,.3,-.4,.6v6.6c0,.2,.2,.5,.4,.6c.3,.1,.6,.1,.8,-.1c.1,-.1,.2,-.2,.4,-.2h4.6c.4,0,.7,.3,.7,.7v.4c0,.1,-.1,.3,-.2,.4c-.2,.2,-.2,.5,-.1,.7c.1,.2,.4,.4,.6,.4v-.7l.6,.4c.2,-.3,.4,-.7,.4,-1.2v-.4c0,-1.2,-.9,-2.1,-2,-2.1h-4.6c-.5,0,-1,.2,-1.3,.6l.4,.5h.7v-6.6h-.7l-.4,.5c.3,.3,.8,.5,1.3,.5h4.6c1.1,0,2,-.9,2,-2v-.4c0,-.4,-.1,-.9,-.4,-1.2l-.5,.4v.7H524c.3,0,.5,.2,.5,.4V309c0,.2,-.2,.4,-.5,.4h-1.9v.7l.6,.4Z" class="ga_27"/>
<path d="M515.6,301.1h.7c0,-1.2,-.9,-2.1,-2,-2.1h-.7c-1.1,0,-2.1,.9,-2.1,2.1v7c0,1.2,1,2.1,2.1,2.1h.7c1.1,0,2,-.9,2,-2.1v-7h-1.4v7c0,.4,-.3,.7,-.6,.7h-.7c-.4,0,-.7,-.3,-.7,-.7v-7c0,-.4,.3,-.7,.7,-.7h.7c.3,0,.6,.3,.6,.7Z" class="ga_27"/>
<image clip-path="url(#co_27)" preserveAspectRatio="none" x="399" y="318" width="89" height="30" xlink:href="img/25.jpg"/>
<image clip-path="url(#cp_27)" preserveAspectRatio="none" x="409" y="246" width="88" height="73" xlink:href="img/26.jpg"/>
<image clip-path="url(#cq_27)" preserveAspectRatio="none" x="409" y="339" width="79" height="4" xlink:href="img/27.jpg"/>
<image clip-path="url(#cr_27)" preserveAspectRatio="none" x="487" y="318" width="11" height="30" xlink:href="img/28.jpg"/>
<image clip-path="url(#cs_27)" preserveAspectRatio="none" x="488" y="246" width="9" height="73" xlink:href="img/29.jpg"/>
<image clip-path="url(#ct_27)" preserveAspectRatio="none" x="487" y="339" width="11" height="4" xlink:href="img/30.jpg"/>
<image clip-path="url(#cu_27)" preserveAspectRatio="none" x="494" y="267" width="4" height="69" xlink:href="img/31.jpg"/>
<image clip-path="url(#cv_27)" preserveAspectRatio="none" x="494" y="335" width="4" height="8" xlink:href="img/32.jpg"/>
<path d="M424.8,259c-10.1,0,-18.3,8.2,-18.3,18.3v64.2h79V277.3c0,-10.1,-8.2,-18.3,-18.3,-18.3Z" class="g3_27"/>
<path d="M406.4,342.4h79.1v-7.2H406.4v7.2Z" class="g9_27"/>
<path d="M411.8,317.4h2.4c.2,0,.4,-.1,.4,-.3c0,-.3,-.2,-.4,-.4,-.4h-2.4c-.2,0,-.3,.1,-.3,.4c0,.2,.1,.3,.3,.3m3.9,0h2.4c.2,0,.3,-.1,.3,-.3c0,-.3,-.1,-.4,-.3,-.4h-2.4c-.2,0,-.4,.1,-.4,.4c0,.2,.2,.3,.4,.3m3.9,0h2.3c.2,0,.4,-.1,.4,-.3c0,-.3,-.2,-.4,-.4,-.4h-2.3c-.2,0,-.4,.1,-.4,.4c0,.2,.2,.3,.4,.3m3.9,0h2.3c.2,0,.4,-.1,.4,-.3c0,-.3,-.2,-.4,-.4,-.4h-2.3c-.2,0,-.4,.1,-.4,.4c0,.2,.2,.3,.4,.3m3.9,0h2.3c.2,0,.4,-.1,.4,-.3c0,-.3,-.2,-.4,-.4,-.4h-2.3c-.2,0,-.4,.1,-.4,.4c0,.2,.2,.3,.4,.3m3.9,0h2.3c.2,0,.4,-.1,.4,-.3c0,-.3,-.2,-.4,-.4,-.4h-2.3c-.3,0,-.4,.1,-.4,.4c0,.2,.1,.3,.4,.3m3.8,0h2.4c.2,0,.3,-.1,.3,-.3c0,-.3,-.1,-.4,-.3,-.4h-2.4c-.2,0,-.3,.1,-.3,.4c0,.2,.1,.3,.3,.3m3.9,0h2.3c.3,0,.4,-.1,.4,-.3c0,-.3,-.1,-.4,-.4,-.4H439c-.2,0,-.4,.1,-.4,.4c0,.2,.2,.3,.4,.3m3.9,0h2.3c.2,0,.4,-.1,.4,-.3c0,-.3,-.2,-.4,-.4,-.4h-2.3c-.2,0,-.4,.1,-.4,.4c0,.2,.2,.3,.4,.3m3.9,0h2.3c.2,0,.4,-.1,.4,-.3c0,-.3,-.2,-.4,-.4,-.4h-2.3c-.2,0,-.4,.1,-.4,.4c0,.2,.2,.3,.4,.3m3.9,0H453c.2,0,.4,-.1,.4,-.3c0,-.3,-.2,-.4,-.4,-.4h-2.3c-.2,0,-.4,.1,-.4,.4c0,.2,.2,.3,.4,.3m3.8,0h2.4c.2,0,.4,-.1,.4,-.3c0,-.3,-.2,-.4,-.4,-.4h-2.4c-.2,0,-.3,.1,-.3,.4c0,.2,.1,.3,.3,.3m3.9,0h2.4c.2,0,.3,-.1,.3,-.3c0,-.3,-.1,-.4,-.3,-.4h-2.4c-.2,0,-.4,.1,-.4,.4c0,.2,.2,.3,.4,.3m3.9,0h2.3c.2,0,.4,-.1,.4,-.3c0,-.3,-.2,-.4,-.4,-.4h-2.3c-.2,0,-.4,.1,-.4,.4c0,.2,.2,.3,.4,.3m3.9,0h2.3c.2,0,.4,-.1,.4,-.3c0,-.3,-.2,-.4,-.4,-.4h-2.3c-.2,0,-.4,.1,-.4,.4c0,.2,.2,.3,.4,.3m3.9,0h2.3c.2,0,.4,-.1,.4,-.3c0,-.3,-.2,-.4,-.4,-.4h-2.3c-.2,0,-.4,.1,-.4,.4c0,.2,.2,.3,.4,.3m3.9,0h2.3c.2,0,.4,-.1,.4,-.3c0,-.3,-.2,-.4,-.4,-.4H474c-.3,0,-.4,.1,-.4,.4c0,.2,.1,.3,.4,.3m3.8,0h2.4c.2,0,.3,-.1,.3,-.3c0,-.3,-.1,-.4,-.3,-.4h-2.4c-.2,0,-.3,.1,-.3,.4c0,.2,.1,.3,.3,.3Z" class="gb_27"/>
<path d="M459.3,281h2.2c.2,0,.4,-.1,.4,-.3c0,-.3,-.2,-.4,-.4,-.4h-2.2c-.2,0,-.4,.1,-.4,.4c0,.2,.2,.3,.4,.3m3.7,0h2.3c.2,0,.3,-.1,.3,-.3c0,-.3,-.1,-.4,-.3,-.4H463c-.2,0,-.4,.1,-.4,.4c0,.2,.2,.3,.4,.3m3.7,0H469c.2,0,.4,-.1,.4,-.3c0,-.3,-.2,-.4,-.4,-.4h-2.3c-.2,0,-.3,.1,-.3,.4c0,.2,.1,.3,.3,.3m3.8,0h2.2c.2,0,.4,-.1,.4,-.3c0,-.3,-.2,-.4,-.4,-.4h-2.2c-.3,0,-.4,.1,-.4,.4c0,.2,.1,.3,.4,.3m3.7,0h2.2c.2,0,.4,-.1,.4,-.3c0,-.3,-.2,-.4,-.4,-.4h-2.2c-.2,0,-.4,.1,-.4,.4c0,.2,.2,.3,.4,.3m3.7,0h2.2c.2,0,.4,-.1,.4,-.3c0,-.3,-.2,-.4,-.4,-.4h-2.2c-.2,0,-.4,.1,-.4,.4c0,.2,.2,.3,.4,.3Z" class="gb_27"/>
<path d="M411.9,281h2.2c.2,0,.4,-.1,.4,-.3c0,-.3,-.2,-.4,-.4,-.4h-2.2c-.2,0,-.4,.1,-.4,.4c0,.2,.2,.3,.4,.3m3.7,0h2.2c.2,0,.4,-.1,.4,-.3c0,-.3,-.2,-.4,-.4,-.4h-2.2c-.2,0,-.4,.1,-.4,.4c0,.2,.2,.3,.4,.3m3.7,0h2.3c.2,0,.3,-.1,.3,-.3c0,-.3,-.1,-.4,-.3,-.4h-2.3c-.2,0,-.4,.1,-.4,.4c0,.2,.2,.3,.4,.3m3.7,0h2.3c.2,0,.4,-.1,.4,-.3c0,-.3,-.2,-.4,-.4,-.4H423c-.2,0,-.3,.1,-.3,.4c0,.2,.1,.3,.3,.3m3.8,0H429c.2,0,.4,-.1,.4,-.3c0,-.3,-.2,-.4,-.4,-.4h-2.2c-.3,0,-.4,.1,-.4,.4c0,.2,.1,.3,.4,.3m3.7,0h2.2c.2,0,.4,-.1,.4,-.3c0,-.3,-.2,-.4,-.4,-.4h-2.2c-.2,0,-.4,.1,-.4,.4c0,.2,.2,.3,.4,.3Z" class="gb_27"/>
<path d="M436.7,283.7v-.8c-1.1,0,-2,.9,-2,2.1v29.3h22.9V285c0,-1.2,-.9,-2.1,-2.1,-2.1H436.7v1.5h18.8c.3,0,.6,.3,.6,.6v27.8H436.2V285c0,-.3,.2,-.6,.5,-.6Z" class="gb_27"/>
<path d="M438.7,278.6v-.3c-.5,0,-1,.4,-1,1v4.6h16.9v-4.6c0,-.6,-.5,-1,-1,-1H438.7v.7h14.9c.1,0,.3,.1,.3,.3v3.9H438.4v-3.9c0,-.2,.1,-.3,.3,-.3Z" class="gb_27"/>
<path d="M443.6,305.7h-.4v7.7l.1,.2l.3,.1h5.2l.2,-.1l.1,-.2v-7.7l-.1,-.2l-.2,-.1h-5.2l-.3,.1l-.1,.2h.4v.4h4.8V313H444v-7.3h-.4v.4Z" class="gb_27"/>
<path d="M450.5,305.7h-.4v4.1l.1,.3l.3,.1h4.1l.3,-.1l.1,-.3v-4.1l-.1,-.2l-.3,-.1h-4.1l-.3,.1l-.1,.2h.4v.4h3.8v3.4h-3.4v-3.8h-.4v.4Z" class="gb_27"/>
<path d="M437.7,305.7h-.4v4.1l.1,.3l.3,.1h4.1l.3,-.1l.1,-.3v-4.1l-.1,-.2l-.3,-.1h-4.1l-.3,.1l-.1,.2h.4v.4h3.8v3.4h-3.4v-3.8h-.4v.4Z" class="gb_27"/>
<path d="M445.8,309.7h.8v-1h-.8v1Z" class="gb_27"/>
<path d="M450.5,299.4h-.4v4.1l.1,.3l.3,.1h4.1l.3,-.1l.1,-.3v-4.1l-.1,-.3l-.3,-.1h-4.1l-.3,.1l-.1,.3h.4v.4h3.8v3.3h-3.4v-3.7h-.4v.4Z" class="gb_27"/>
<path d="M444.1,299.4h-.4v4.1l.1,.3l.3,.1h4.1l.3,-.1l.1,-.3v-4.1l-.1,-.3l-.3,-.1h-4.1l-.3,.1l-.1,.3h.4v.4h3.8v3.3h-3.4v-3.7h-.4v.4Z" class="gb_27"/>
<path d="M437.7,299.4h-.4v4.1l.1,.3l.3,.1h4.1l.3,-.1l.1,-.3v-4.1l-.1,-.3l-.3,-.1h-4.1l-.3,.1l-.1,.3h.4v.4h3.8v3.3h-3.4v-3.7h-.4v.4Z" class="gb_27"/>
<path d="M450.5,293.1h-.4v4.1l.1,.3l.3,.1h4.1l.3,-.1l.1,-.3v-4.1l-.1,-.3l-.3,-.1h-4.1l-.3,.1l-.1,.3h.4v.4h3.8v3.3h-3.4v-3.7h-.4v.4Z" class="gb_27"/>
<path d="M444.1,293.1h-.4v4.1l.1,.3l.3,.1h4.1l.3,-.1l.1,-.3v-4.1l-.1,-.3l-.3,-.1h-4.1l-.3,.1l-.1,.3h.4v.4h3.8v3.3h-3.4v-3.7h-.4v.4Z" class="gb_27"/>
<path d="M437.7,293.1h-.4v4.1l.1,.3l.3,.1h4.1l.3,-.1l.1,-.3v-4.1l-.1,-.3l-.3,-.1h-4.1l-.3,.1l-.1,.3h.4v.4h3.8v3.3h-3.4v-3.7h-.4v.4Z" class="gb_27"/>
<path d="M450.5,286.8h-.4v4.1l.1,.3l.3,.1h4.1l.3,-.1l.1,-.3v-4.1l-.1,-.3l-.3,-.1h-4.1l-.3,.1l-.1,.3h.4v.4h3.8v3.3h-3.4v-3.7h-.4v.4Z" class="gb_27"/>
<path d="M444.1,286.8h-.4v4.1l.1,.3l.3,.1h4.1l.3,-.1l.1,-.3v-4.1l-.1,-.3l-.3,-.1h-4.1l-.3,.1l-.1,.3h.4v.4h3.8v3.3h-3.4v-3.7h-.4v.4Z" class="gb_27"/>
<path d="M437.7,286.8h-.4v4.1l.1,.3l.3,.1h4.1l.3,-.1l.1,-.3v-4.1l-.1,-.3l-.3,-.1h-4.1l-.3,.1l-.1,.3h.4v.4h3.8v3.3h-3.4v-3.7h-.4v.4Z" class="gb_27"/>
<path d="M441.3,279.7l-.2,-.1l-.5,.7l-.8,.2l-.2,.1l.1,.3l.5,.6v.8l.1,.2l.2,.1l.8,-.3l.7,.3l.3,-.1l.1,-.2l-.1,-.8l.5,-.6l.1,-.3l-.2,-.1l-.8,-.2l-.4,-.7l-.2,-.1l-.2,.1l.2,.1l-.2,.1l.5,.8l.1,.1l.5,.1l-.3,.5l-.1,.1l.1,.6l-.6,-.2h-.1l-.5,.2v-.6l-.1,-.1l-.3,-.5l.5,-.1l.2,-.1l.5,-.8l-.2,-.1l-.2,.1Z" class="gb_27"/>
<path d="M446.1,279.7l-.2,-.1l-.4,.7l-.8,.2l-.2,.1l.1,.3l.5,.6l-.1,.8l.1,.2l.3,.1l.7,-.3l.8,.3l.2,-.1l.1,-.2v-.8l.5,-.6l.1,-.3l-.2,-.1l-.8,-.2l-.5,-.7l-.2,-.1l-.2,.1l.2,.1l-.2,.1l.5,.8l.2,.1l.5,.1l-.3,.5l-.1,.1v.6l-.5,-.2H446l-.5,.2l.1,-.6l-.1,-.1l-.3,-.5l.5,-.1l.1,-.1l.5,-.8l-.2,-.1l-.2,.1Z" class="gb_27"/>
<path d="M451,279.7l-.2,-.1l-.4,.7l-.8,.2l-.2,.1v.3l.6,.6l-.1,.8l.1,.2l.2,.1l.8,-.3l.8,.3l.2,-.1l.1,-.2l-.1,-.8l.6,-.6v-.3l-.1,-.1l-.8,-.2l-.5,-.7l-.2,-.1l-.2,.1l.2,.1l-.2,.1l.5,.8l.1,.1l.6,.1l-.4,.5v.7l-.5,-.2h-.2l-.5,.2v-.7l-.4,-.5l.6,-.1l.1,-.1l.5,-.8l-.2,-.1l-.2,.1Z" class="gb_27"/>
<path d="M433.7,314.6h24.6c.5,0,1,-.4,1,-.9c0,-.5,-.5,-.9,-1,-.9H433.7c-.5,0,-.9,.4,-.9,.9c0,.5,.4,.9,.9,.9Z" class="gb_27"/>
<path d="M446,305.7V313h.3v-7.3Z" class="gb_27"/>
<image clip-path="url(#cw_27)" preserveAspectRatio="none" x="321" y="318" width="79" height="30" xlink:href="img/33.jpg"/>
<image clip-path="url(#cx_27)" preserveAspectRatio="none" x="312" y="246" width="97" height="73" xlink:href="img/34.jpg"/>
<image clip-path="url(#cy_27)" preserveAspectRatio="none" x="321" y="339" width="79" height="4" xlink:href="img/35.jpg"/>
<image clip-path="url(#cz_27)" preserveAspectRatio="none" x="311" y="318" width="11" height="23" xlink:href="img/36.jpg"/>
<image clip-path="url(#c10_27)" preserveAspectRatio="none" x="312" y="246" width="9" height="73" xlink:href="img/37.jpg"/>
<image clip-path="url(#c11_27)" preserveAspectRatio="none" x="311" y="341" width="11" height="7" xlink:href="img/38.jpg"/>
<image clip-path="url(#c12_27)" preserveAspectRatio="none" x="311" y="339" width="11" height="4" xlink:href="img/39.jpg"/>
<image clip-path="url(#c13_27)" preserveAspectRatio="none" x="399" y="318" width="11" height="30" xlink:href="img/40.jpg"/>
<image clip-path="url(#c14_27)" preserveAspectRatio="none" x="400" y="246" width="9" height="73" xlink:href="img/41.jpg"/>
<image clip-path="url(#c15_27)" preserveAspectRatio="none" x="399" y="339" width="11" height="4" xlink:href="img/42.jpg"/>
<image clip-path="url(#c16_27)" preserveAspectRatio="none" x="406" y="267" width="4" height="69" xlink:href="img/43.jpg"/>
<image clip-path="url(#c17_27)" preserveAspectRatio="none" x="406" y="335" width="4" height="8" xlink:href="img/44.jpg"/>
<path d="M336.7,259c-10.1,0,-18.3,8.2,-18.3,18.3v64.2h79V277.3c0,-10.1,-8.2,-18.3,-18.3,-18.3Z" class="g3_27"/>
<path d="M318.3,342.4h79.1v-7.2H318.3v7.2Z" class="g9_27"/>
<path d="M324.5,285.2h2.2c.2,0,.4,-.2,.4,-.4c0,-.2,-.2,-.4,-.4,-.4h-2.2c-.2,0,-.3,.2,-.3,.4c0,.2,.1,.4,.3,.4m3.6,0h2.2c.2,0,.3,-.2,.3,-.4c0,-.2,-.1,-.4,-.3,-.4h-2.2c-.2,0,-.4,.2,-.4,.4c0,.2,.2,.4,.4,.4m3.6,0h2.1c.2,0,.4,-.2,.4,-.4c0,-.2,-.2,-.4,-.4,-.4h-2.1c-.3,0,-.4,.2,-.4,.4c0,.2,.1,.4,.4,.4m3.5,0h2.2c.2,0,.3,-.2,.3,-.4c0,-.2,-.1,-.4,-.3,-.4h-2.2c-.2,0,-.4,.2,-.4,.4c0,.2,.2,.4,.4,.4m3.6,0h2.1c.2,0,.4,-.2,.4,-.4c0,-.2,-.2,-.4,-.4,-.4h-2.1c-.2,0,-.4,.2,-.4,.4c0,.2,.2,.4,.4,.4m3.5,0h2.2c.2,0,.4,-.2,.4,-.4c0,-.2,-.2,-.4,-.4,-.4h-2.2c-.2,0,-.4,.2,-.4,.4c0,.2,.2,.4,.4,.4m3.6,0H348c.2,0,.4,-.2,.4,-.4c0,-.2,-.2,-.4,-.4,-.4h-2.1c-.2,0,-.4,.2,-.4,.4c0,.2,.2,.4,.4,.4Z" class="gc_27"/>
<path d="M324.5,317.4h2.4c.2,0,.4,-.1,.4,-.3c0,-.3,-.2,-.4,-.4,-.4h-2.4c-.2,0,-.3,.1,-.3,.4c0,.2,.1,.3,.3,.3m3.9,0h2.4c.2,0,.3,-.1,.3,-.3c0,-.3,-.1,-.4,-.3,-.4h-2.4c-.2,0,-.4,.1,-.4,.4c0,.2,.2,.3,.4,.3m3.9,0h2.3c.2,0,.4,-.1,.4,-.3c0,-.3,-.2,-.4,-.4,-.4h-2.3c-.2,0,-.4,.1,-.4,.4c0,.2,.2,.3,.4,.3m3.9,0h2.3c.2,0,.4,-.1,.4,-.3c0,-.3,-.2,-.4,-.4,-.4h-2.3c-.2,0,-.4,.1,-.4,.4c0,.2,.2,.3,.4,.3m3.9,0h2.3c.2,0,.4,-.1,.4,-.3c0,-.3,-.2,-.4,-.4,-.4h-2.3c-.2,0,-.4,.1,-.4,.4c0,.2,.2,.3,.4,.3m3.9,0h2.3c.2,0,.4,-.1,.4,-.3c0,-.3,-.2,-.4,-.4,-.4H344c-.3,0,-.4,.1,-.4,.4c0,.2,.1,.3,.4,.3m3.8,0h2.4c.2,0,.3,-.1,.3,-.3c0,-.3,-.1,-.4,-.3,-.4h-2.4c-.2,0,-.3,.1,-.3,.4c0,.2,.1,.3,.3,.3m3.9,0H354c.3,0,.4,-.1,.4,-.3c0,-.3,-.1,-.4,-.4,-.4h-2.3c-.2,0,-.4,.1,-.4,.4c0,.2,.2,.3,.4,.3m3.9,0h2.3c.2,0,.4,-.1,.4,-.3c0,-.3,-.2,-.4,-.4,-.4h-2.3c-.2,0,-.4,.1,-.4,.4c0,.2,.2,.3,.4,.3m3.9,0h2.3c.2,0,.4,-.1,.4,-.3c0,-.3,-.2,-.4,-.4,-.4h-2.3c-.2,0,-.4,.1,-.4,.4c0,.2,.2,.3,.4,.3m3.9,0h2.3c.2,0,.4,-.1,.4,-.3c0,-.3,-.2,-.4,-.4,-.4h-2.3c-.2,0,-.4,.1,-.4,.4c0,.2,.2,.3,.4,.3m3.8,0h2.4c.2,0,.4,-.1,.4,-.3c0,-.3,-.2,-.4,-.4,-.4h-2.4c-.2,0,-.3,.1,-.3,.4c0,.2,.1,.3,.3,.3m3.9,0h2.4c.2,0,.3,-.1,.3,-.3c0,-.3,-.1,-.4,-.3,-.4h-2.4c-.2,0,-.4,.1,-.4,.4c0,.2,.2,.3,.4,.3m3.9,0h2.3c.2,0,.4,-.1,.4,-.3c0,-.3,-.2,-.4,-.4,-.4H375c-.2,0,-.4,.1,-.4,.4c0,.2,.2,.3,.4,.3m3.9,0h2.3c.2,0,.4,-.1,.4,-.3c0,-.3,-.2,-.4,-.4,-.4h-2.3c-.2,0,-.4,.1,-.4,.4c0,.2,.2,.3,.4,.3m3.9,0h2.3c.2,0,.4,-.1,.4,-.3c0,-.3,-.2,-.4,-.4,-.4h-2.3c-.2,0,-.4,.1,-.4,.4c0,.2,.2,.3,.4,.3m3.9,0H389c.2,0,.4,-.1,.4,-.3c0,-.3,-.2,-.4,-.4,-.4h-2.3c-.3,0,-.4,.1,-.4,.4c0,.2,.1,.3,.4,.3m3.8,0h2.4c.2,0,.3,-.1,.3,-.3c0,-.3,-.1,-.4,-.3,-.4h-2.4c-.2,0,-.3,.1,-.3,.4c0,.2,.1,.3,.3,.3Z" class="gc_27"/>
<path d="M371.3,285.2h2.3c.2,0,.4,-.2,.4,-.4c0,-.2,-.2,-.4,-.4,-.4h-2.3c-.2,0,-.4,.2,-.4,.4c0,.2,.2,.4,.4,.4m3.9,0h2.3c.2,0,.4,-.2,.4,-.4c0,-.2,-.2,-.4,-.4,-.4h-2.3c-.2,0,-.4,.2,-.4,.4c0,.2,.2,.4,.4,.4m3.8,0h2.3c.2,0,.4,-.2,.4,-.4c0,-.2,-.2,-.4,-.4,-.4H379c-.2,0,-.4,.2,-.4,.4c0,.2,.2,.4,.4,.4m3.9,0h2.3c.2,0,.4,-.2,.4,-.4c0,-.2,-.2,-.4,-.4,-.4h-2.3c-.2,0,-.4,.2,-.4,.4c0,.2,.2,.4,.4,.4m3.8,0H389c.2,0,.4,-.2,.4,-.4c0,-.2,-.2,-.4,-.4,-.4h-2.3c-.2,0,-.4,.2,-.4,.4c0,.2,.2,.4,.4,.4m3.9,0h2.3c.2,0,.3,-.2,.3,-.4c0,-.2,-.1,-.4,-.3,-.4h-2.3c-.3,0,-.4,.2,-.4,.4c0,.2,.1,.4,.4,.4Z" class="gc_27"/>
<path d="M367.9,296.9c0,3.3,-.1,6.7,0,10.1c.1,3.1,-1.4,5.4,-4.5,6.7c-3.3,1.4,-6.5,1.2,-9.5,-.6c-.4,-.3,-.9,-.6,-1.1,-.9c-.2,-.3,-.1,-.7,0,-.9c.2,-.2,.7,-.1,1,-.1c.2,.1,.4,.3,.6,.5c3.1,2.3,8,1.9,10.5,-.7c1.1,-1.1,1.5,-2.4,1.5,-3.9c0,-6.8,-.1,-13.6,0,-20.4c0,-2.4,-1.1,-4.3,-3.6,-5.5c-2.6,-1.2,-5.3,-1,-7.8,.4c-.3,.2,-.6,.4,-.9,.7c-.4,.3,-.9,.4,-1.2,0c-.2,-.3,-.1,-.8,.2,-1.1c1.1,-1,2.5,-1.6,4.1,-1.9c4.7,-1,9.6,1.5,10.5,5.5c.2,.5,.2,1.1,.2,1.6c0,3.5,0,7,0,10.5Z" class="gc_27"/>
<path d="M352.8,289c-1.7,-.3,-2.2,-1.5,-1.5,-3c.5,-1,1.4,-1.5,2.4,-1.8c1.5,-.5,3.2,-.6,4.7,-.1c2,.6,3.2,2.5,3,4.5c-.2,2,-1.8,3.7,-3.7,3.9c-2.1,.2,-3.9,-.9,-4.7,-2.8c-.1,-.2,-.1,-.5,-.2,-.7m7.1,0c-1.4,-.5,-1.6,-.6,-2.3,-1.9c-.1,-.3,-.3,-.5,-.4,-.8c-.7,-1,-1.4,-1,-2.2,-.2c-.8,.8,-1.1,2.2,-.6,3.2c.5,1.2,1.5,1.9,2.8,1.8c1.3,0,2.2,-.7,2.7,-2.1m.1,-1.7c.1,-.9,-1.8,-1.6,-1.8,-1.6c.5,1.8,1.7,2.2,1.8,1.6m-6.5,-1.6c-1.9,.8,-.9,2.2,-.8,1.9c0,0,.2,-1.3,.8,-1.9Z" class="gc_27"/>
<path d="M352.8,298.3c-1.7,-.3,-2.2,-1.4,-1.5,-3c.5,-1,1.4,-1.5,2.4,-1.8c1.5,-.5,3.2,-.5,4.7,-.1c2,.6,3.2,2.5,3,4.5c-.2,2,-1.8,3.7,-3.7,3.9c-2.1,.2,-3.9,-.8,-4.7,-2.8c-.1,-.2,-.1,-.4,-.2,-.7m7.1,0c-1.4,-.4,-1.6,-.6,-2.3,-1.8c-.1,-.3,-.3,-.6,-.4,-.9c-.7,-.9,-1.4,-1,-2.2,-.2c-.8,.9,-1.1,2.2,-.6,3.3c.5,1.1,1.5,1.8,2.8,1.7c1.3,0,2.2,-.7,2.7,-2.1m.1,-1.6c.1,-1,-1.8,-1.6,-1.8,-1.6c.5,1.7,1.7,2.1,1.8,1.6M353.5,295c-1.9,.8,-.9,2.3,-.8,1.9c0,0,.2,-1.2,.8,-1.9Z" class="gc_27"/>
<path d="M352.8,307.4c-1.7,-.3,-2.2,-1.4,-1.5,-3c.5,-1,1.4,-1.5,2.4,-1.8c1.5,-.5,3.2,-.5,4.7,-.1c2,.7,3.2,2.5,3,4.5c-.2,2,-1.8,3.7,-3.7,3.9c-2.1,.3,-3.9,-.8,-4.7,-2.8c-.1,-.2,-.1,-.4,-.2,-.7m7.1,0c-1.4,-.4,-1.6,-.6,-2.3,-1.8c-.1,-.3,-.3,-.6,-.4,-.9c-.7,-.9,-1.4,-1,-2.2,-.2c-.8,.9,-1.1,2.2,-.6,3.3c.5,1.1,1.5,1.8,2.8,1.7c1.3,0,2.2,-.7,2.7,-2.1m.1,-1.6c.1,-1,-1.8,-1.6,-1.8,-1.6c.5,1.7,1.7,2.1,1.8,1.6m-6.5,-1.7c-1.9,.8,-.9,2.3,-.8,1.9c0,0,.2,-1.2,.8,-1.9Z" class="gc_27"/>
<path d="M349,301.9l-5.3,-5.5c-.2,-.3,-.6,-.3,-.9,0c-.2,.2,-.2,.6,0,.8l5.3,5.6c.2,.2,.6,.2,.8,0c.3,-.2,.3,-.6,.1,-.9Z" class="gc_27"/>
<path d="M349,309.6l-5.3,5.5c-.2,.2,-.6,.2,-.9,0c-.2,-.2,-.2,-.6,0,-.9l5.3,-5.5c.2,-.3,.6,-.3,.8,0c.3,.2,.3,.6,.1,.9Z" class="gc_27"/>
<path d="M347.8,303.9l-7.3,-1.4c-.3,-.1,-.6,.2,-.7,.5c-.1,.3,.1,.7,.5,.7l7.2,1.4c.4,.1,.7,-.1,.8,-.5c0,-.3,-.2,-.6,-.5,-.7Z" class="gc_27"/>
<path d="M347.8,307.6l-7.3,1.4c-.3,0,-.6,-.2,-.7,-.5c-.1,-.4,.1,-.7,.5,-.8l7.2,-1.4c.4,0,.7,.2,.8,.5c0,.4,-.2,.7,-.5,.8Z" class="gc_27"/>
<path d="M0,0V1286.2Z" class="g3_27"/>
<path d="M0,1286.2H19.5V0H0V1286.2Z" class="g3_27"/>
</svg>