<?xml version="1.0" encoding="UTF-8" standalone="no"?>
<!DOCTYPE svg PUBLIC "-//W3C//DTD SVG 1.1//EN"
"http://www.w3.org/Graphics/SVG/1.1/DTD/svg11.dtd">
<svg viewBox="0 0 909 1286" version="1.1" xmlns="http://www.w3.org/2000/svg" xmlns:xlink="http://www.w3.org/1999/xlink">
<defs>
<clipPath id="c0"><path d="M446.1,1048V0H909.4V1048Z"/></clipPath>
<clipPath id="c1"><path d="M454.7,381.7c-89.3,0,-161.8,-72.5,-161.8,-161.8c0,-89.4,72.5,-161.8,161.8,-161.8c89.4,0,161.8,72.4,161.8,161.8c0,89.3,-72.4,161.8,-161.8,161.8Z"/></clipPath>
<clipPath id="c2"><path d="M104.2,1025.9C64.6,1025.9,28.3,1011.7,0,988.2V737.6C28.3,714.1,64.6,699.9,104.2,699.9c90.1,0,163,73,163,163c0,90,-72.9,163,-163,163Z"/></clipPath>
<clipPath id="c3"><path d="M0,1286.2V0H909.4V1286.2Z"/></clipPath>
<clipPath id="c4"><path d="M474.5,947.8c-90,0,-163,-73,-163,-163c0,-90,73,-163,163,-163c90,0,163,73,163,163c0,90,-73,163,-163,163Z"/></clipPath>
<style type="text/css"><![CDATA[
.g0{
fill: #252123;
}
.g1{
fill: #FFF;
}
.g2{
fill: none;
stroke: #0080B5;
stroke-width: 0.47;
}
.g3{
fill: none;
stroke: #FFF;
stroke-width: 0.763;
}
.g4{
fill: none;
stroke: #FFF;
stroke-width: 3.765;
}
.g5{
fill: #0080B5;
}
.g6{
fill: #95C11E;
}
.g7{
fill: #B0B0B0;
}
.g8{
fill: none;
stroke: #FFF;
stroke-width: 1.527;
}
.g9{
fill: none;
stroke: #FFF;
stroke-width: 0.514;
}
.ga{
fill: none;
stroke: #FFF;
stroke-width: 0.811;
}
.gb{
fill: #009FE3;
}
.gc{
fill: #0054A2;
}
.gd{
fill: #FFD400;
}
.ge{
fill: #000;
}
.gf{
fill: #00A5D7;
}
]]></style>
</defs>
<path d="M0,1286.2H909.4V0H0V1286.2Z" class="g0"/>
<path d="M446.1,1048H909.4V0H446.1V1048Z" class="g0"/>
<image clip-path="url(#c0)" preserveAspectRatio="none" x="446" y="0" width="463" height="1048" xlink:href="img/1.jpg"/>
<path d="M240.2,817.1c3.4,0,6.1,-2.8,6.1,-6.1c0,-3.4,-2.7,-6.1,-6.1,-6.1c-3.4,0,-6.1,2.7,-6.1,6.1c0,3.3,2.7,6.1,6.1,6.1Z" class="g1"/>
<path d="M240.2,817.1c3.4,0,6.1,-2.8,6.1,-6.1c0,-3.4,-2.7,-6.1,-6.1,-6.1c-3.4,0,-6.1,2.7,-6.1,6.1c0,3.3,2.7,6.1,6.1,6.1Z" class="g2"/>
<image clip-path="url(#c1)" preserveAspectRatio="none" x="293" y="58" width="324" height="324" xlink:href="img/2.jpg"/>
<path d="M454.7,366.1C535.5,366.1,601,300.6,601,219.8C601,139,535.5,73.5,454.7,73.5C373.9,73.5,308.4,139,308.4,219.8c0,80.8,65.5,146.3,146.3,146.3Z" class="g3"/>
<path d="M316,276.3c3.3,0,6.1,-2.8,6.1,-6.1c0,-3.4,-2.8,-6.1,-6.1,-6.1c-3.4,0,-6.1,2.7,-6.1,6.1c0,3.3,2.7,6.1,6.1,6.1Z" class="g1"/>
<path d="M316,276.3c3.3,0,6.1,-2.8,6.1,-6.1c0,-3.4,-2.8,-6.1,-6.1,-6.1c-3.4,0,-6.1,2.7,-6.1,6.1c0,3.3,2.7,6.1,6.1,6.1Z" class="g2"/>
<path d="M454.7,382.9c90,0,163,-73,163,-163c0,-90,-73,-163,-163,-163c-90,0,-163,73,-163,163c0,90,73,163,163,163Z" class="g4"/>
<image clip-path="url(#c2)" preserveAspectRatio="none" x="0" y="700" width="267" height="326" xlink:href="img/3.jpg"/>
<g clip-path="url(#c3)">
<path d="M104.2,1025.9c90.1,0,163,-73,163,-163c0,-90,-72.9,-163,-163,-163c-90,0,-162.8,73,-162.8,163c0,90,72.8,163,162.8,163Z" class="g4"/>
<path d="M104.2,1009.1c80.8,0,146.4,-65.5,146.4,-146.3C250.6,782,185,716.5,104.2,716.5C23.4,716.5,-42,782,-42,862.8c0,80.8,65.4,146.3,146.2,146.3Z" class="g3"/>
</g>
<image clip-path="url(#c4)" preserveAspectRatio="none" x="311" y="622" width="327" height="327" xlink:href="img/4.jpg"/>
<path d="M474.5,947.8c90,0,163,-73,163,-163c0,-90,-73,-163,-163,-163c-90,0,-163,73,-163,163c0,90,73,163,163,163Z" class="g4"/>
<path d="M474.5,931c80.8,0,146.3,-65.5,146.3,-146.3c0,-80.8,-65.5,-146.3,-146.3,-146.3c-80.8,0,-146.3,65.5,-146.3,146.3c0,80.8,65.5,146.3,146.3,146.3Z" class="g3"/>
<path d="M380.5,678.6c3.4,0,6.1,-2.7,6.1,-6.1c0,-3.3,-2.7,-6.1,-6.1,-6.1c-3.4,0,-6.1,2.8,-6.1,6.1c0,3.4,2.7,6.1,6.1,6.1Z" class="g1"/>
<path d="M380.5,678.6c3.4,0,6.1,-2.7,6.1,-6.1c0,-3.3,-2.7,-6.1,-6.1,-6.1c-3.4,0,-6.1,2.8,-6.1,6.1c0,3.4,2.7,6.1,6.1,6.1Z" class="g2"/>
<g clip-path="url(#c3)">
<path d="M91.3,239.6c80.8,0,146.3,-65.5,146.3,-146.3C237.6,12.5,172.1,-52.9,91.3,-52.9C10.5,-52.9,-55,12.5,-55,93.3c0,80.8,65.5,146.3,146.3,146.3Z" class="g3"/>
<path d="M91.3,256.4c90,0,162.9,-73,162.9,-163C254.2,3.4,181.3,-69.5,91.3,-69.5C1.2,-69.5,-71.6,3.4,-71.6,93.4c0,90,72.8,163,162.9,163Z" class="g4"/>
<path d="M91.3,239.6c80.8,0,146.3,-65.5,146.3,-146.3C237.6,12.5,172.1,-52.9,91.3,-52.9C10.5,-52.9,-55,12.5,-55,93.3c0,80.8,65.5,146.3,146.3,146.3Z" class="g3"/>
</g>
<path d="M190.4,1215c-.4,.3,-.7,.5,-1.2,.5h-4.5c-.5,0,-.9,-.2,-1.2,-.5c-.3,-.3,-.5,-.7,-.5,-1.2v-28.4c0,-.4,.2,-.8,.5,-1.1c.3,-.4,.7,-.5,1.2,-.5h4.5c.5,0,.8,.1,1.2,.5c.3,.3,.5,.7,.5,1.1v28.4c0,.5,-.2,.9,-.5,1.2M189,1173c.2,-.2,.6,-.2,1,-.2h4.8c.3,0,.5,.1,.7,.3c.2,.2,.3,.4,.3,.7c0,.3,-.1,.5,-.3,.6l-6.2,5.2c-.4,.3,-.8,.6,-1,.7c-.3,.1,-.7,.2,-1.2,.2h-2.8c-.5,0,-.8,-.3,-.8,-.8c0,-.2,.1,-.4,.3,-.7l4.3,-5.2c.4,-.5,.7,-.7,.9,-.8Z" class="g5"/>
<path d="M218.4,1186.4c2.5,2.2,3.7,5.4,3.7,9.5v17.9c0,.5,-.2,.9,-.5,1.2c-.3,.3,-.7,.5,-1.2,.5h-4.5c-.5,0,-.9,-.2,-1.2,-.5c-.3,-.3,-.5,-.7,-.5,-1.2v-2c-.9,1.3,-2.1,2.4,-3.8,3.1c-1.6,.8,-3.6,1.2,-5.8,1.2c-3.4,0,-6.1,-.9,-8,-2.7c-2,-1.7,-3,-4,-3,-6.8c0,-2.7,1,-4.9,2.9,-6.5c1.9,-1.6,4.5,-2.7,7.9,-3.3l9.8,-1.8c0,-1.5,-.5,-2.6,-1.5,-3.4c-1,-.8,-2.4,-1.1,-4.1,-1.1c-.9,0,-1.7,.1,-2.3,.4c-.5,.2,-1.1,.6,-1.7,1.2c-.6,.5,-1.2,.8,-2,.8H197c-.4,0,-.7,-.1,-1,-.4c-.2,-.2,-.3,-.6,-.3,-.9c.3,-1.3,.9,-2.6,1.9,-3.9c1,-1.3,2.5,-2.4,4.3,-3.2c1.9,-.9,4.1,-1.3,6.7,-1.3c4.1,0,7.4,1,9.8,3.2m-4.2,14.9l-8.1,1.5c-1.6,.3,-2.8,.7,-3.6,1.2c-.7,.6,-1.1,1.3,-1.1,2.3c0,.8,.4,1.4,1.3,1.8c.8,.5,1.8,.7,3.1,.7c1.7,0,3.3,-.3,4.5,-1c1.3,-.7,2.3,-1.5,3,-2.5c.6,-1.1,.9,-2.2,.9,-3.4Z" class="g5"/>
<path d="M227.6,1199.3c-1.3,-1.6,-2,-3.7,-2,-6.3c0,-1.7,.5,-3.3,1.5,-4.8c1,-1.5,2.5,-2.7,4.4,-3.6c1.8,-1,4,-1.4,6.5,-1.4c2.5,0,4.7,.3,6.6,1.1c1.9,.7,3.4,1.7,4.4,2.9c1.1,1.2,1.7,2.5,1.8,3.8c0,.5,-.1,.9,-.5,1.2c-.3,.3,-.7,.5,-1.2,.5h-4.6c-.5,0,-.9,-.1,-1.1,-.2c-.3,-.2,-.6,-.4,-.9,-.7c-.5,-.4,-1.1,-.7,-1.7,-1c-.6,-.2,-1.5,-.3,-2.8,-.3c-1.3,0,-2.4,.2,-3.3,.6c-.8,.4,-1.3,1,-1.3,1.9c0,.6,.2,1.1,.7,1.4c.4,.4,1.1,.7,2.2,.9c1,.3,2.9,.7,5.6,1.3c3.5,.8,6,1.9,7.5,3.6c1.5,1.6,2.3,3.7,2.3,6.2c0,1.7,-.6,3.2,-1.7,4.7c-1,1.5,-2.6,2.7,-4.6,3.6c-2,.9,-4.4,1.4,-7.1,1.4c-2.7,0,-5,-.4,-7,-1.3c-2,-.8,-3.5,-1.9,-4.6,-3.2c-1,-1.3,-1.6,-2.6,-1.7,-4c0,-.4,.1,-.8,.5,-1.1c.3,-.4,.7,-.5,1.1,-.5h4.7c.4,0,.8,.1,1.1,.2c.2,.2,.5,.4,.9,.7c.5,.6,1.1,1.1,1.8,1.4c.7,.3,1.8,.5,3.2,.5c1.5,0,2.7,-.2,3.9,-.6c1.1,-.4,1.6,-1,1.6,-1.8c0,-.5,-.2,-.9,-.6,-1.3c-.4,-.3,-1,-.5,-1.8,-.8c-.9,-.2,-2.3,-.6,-4.4,-1l-2.3,-.5c-3.4,-.8,-5.7,-2,-7.1,-3.5Z" class="g5"/>
<path d="M180,1213.5l-8.3,-15.1c2.5,-1,4.5,-2.6,5.9,-4.7c1.3,-2.1,2,-4.6,2,-7.6c0,-4.1,-1.3,-7.4,-4,-9.8c-2.6,-2.3,-6.4,-3.5,-11.3,-3.5H148.7c-.4,0,-.8,.1,-1.1,.5c-.3,.3,-.5,.7,-.5,1.1v6H164c2.4,0,4.3,.4,5.6,1.3c1.2,.8,1.9,2.3,1.9,4.4c0,2.2,-.7,3.7,-1.9,4.6c-1.3,.9,-3.2,1.3,-5.6,1.3H147.1v21.8c0,.5,.2,.9,.5,1.2c.3,.3,.7,.5,1.1,.5h4.9c.5,0,.8,-.2,1.2,-.5c.3,-.3,.4,-.7,.4,-1.2v-14.2h8l7.9,14.2c.6,1.1,1.4,1.7,2.6,1.7h5.1c.4,0,.7,-.1,1,-.4c.2,-.3,.3,-.6,.3,-1c0,-.2,0,-.4,-.1,-.6Z" class="g5"/>
<path d="M67.8,1204.8c-.3,.2,-.5,.3,-.8,.3H65.5c-.3,0,-.5,-.1,-.7,-.3c-.2,-.2,-.3,-.5,-.3,-.8v-18.7c0,-.3,.1,-.5,.3,-.8c.2,-.2,.4,-.3,.7,-.3H67c.3,0,.5,.1,.8,.3c.2,.3,.3,.5,.3,.8V1204c0,.3,-.1,.6,-.3,.8Z" class="g6"/>
<path d="M92,1204.8c-.2,.2,-.5,.3,-.8,.3H89.8c-.3,0,-.6,-.1,-.8,-.3c-.2,-.2,-.3,-.5,-.3,-.8v-10.6c0,-2,-.5,-3.5,-1.5,-4.6c-.9,-1,-2.3,-1.5,-4,-1.5c-1.8,0,-3.1,.5,-4.1,1.5c-1,1.1,-1.5,2.6,-1.5,4.6V1204c0,.3,-.1,.6,-.3,.8c-.2,.2,-.5,.3,-.8,.3H75.1c-.3,0,-.6,-.1,-.8,-.3c-.2,-.2,-.3,-.5,-.3,-.8v-18.7c0,-.3,.1,-.5,.3,-.8c.2,-.2,.5,-.3,.8,-.3h1.4c.3,0,.6,.1,.8,.3c.2,.3,.3,.5,.3,.8v1.3c.6,-.8,1.4,-1.5,2.4,-2c1,-.5,2.3,-.8,3.8,-.8c1.6,0,3.1,.4,4.4,1.1c1.3,.7,2.3,1.8,3,3.1c.7,1.4,1.1,3,1.1,4.8V1204c0,.3,-.1,.6,-.3,.8Z" class="g6"/>
<path d="M103.8,1200.7c.5,.6,1.3,1,2.6,1h2.1c.3,0,.6,.1,.8,.3c.2,.2,.3,.4,.3,.7v1.3c0,.3,-.1,.6,-.3,.8c-.2,.2,-.5,.3,-.8,.3H106c-2.2,0,-3.8,-.6,-4.9,-1.8c-1.1,-1.2,-1.6,-2.9,-1.6,-5.2v-10.4H96.6c-.3,0,-.6,-.1,-.8,-.3c-.2,-.3,-.3,-.5,-.3,-.8v-1.3c0,-.3,.1,-.5,.3,-.8c.2,-.2,.5,-.3,.8,-.3h2.9v-6.5c0,-.3,.1,-.6,.3,-.8c.2,-.2,.5,-.3,.8,-.3H102c.3,0,.6,.1,.8,.3c.2,.2,.3,.5,.3,.8v6.5h5c.3,0,.6,.1,.8,.3c.2,.3,.3,.5,.3,.8v1.3c0,.3,-.1,.5,-.3,.8c-.2,.2,-.5,.3,-.8,.3h-5v10.4c0,1.1,.2,2,.7,2.6Z" class="g6"/>
<path d="M128.4,1186.6c1.6,1.8,2.4,4.2,2.4,7.4v1.1c0,.3,-.1,.5,-.3,.7c-.2,.2,-.4,.4,-.7,.4H116.1v.2c.1,1.8,.6,3.1,1.6,4.1c1.1,1.1,2.4,1.6,4,1.6c1.3,0,2.3,-.2,3.1,-.6c.7,-.3,1.3,-.8,1.9,-1.5c.2,-.2,.4,-.3,.6,-.4c.2,-.1,.4,-.1,.7,-.1h1.2c.3,0,.5,.1,.8,.3c.2,.2,.3,.5,.2,.8c-.1,.7,-.5,1.4,-1.1,2.2c-.7,.8,-1.7,1.4,-2.9,1.9c-1.3,.5,-2.8,.8,-4.5,.8c-1.7,0,-3.2,-.4,-4.5,-1.2c-1.3,-.8,-2.4,-1.9,-3.2,-3.2c-.8,-1.4,-1.2,-3,-1.4,-4.7c0,-.9,-.1,-1.5,-.1,-1.9c0,-.4,.1,-1,.1,-1.8c.2,-1.7,.6,-3.2,1.4,-4.5c.8,-1.4,1.8,-2.4,3.2,-3.2c1.3,-.8,2.8,-1.2,4.5,-1.2c2.8,0,5,.9,6.7,2.8m-1.1,6.2v-.1c0,-1.7,-.5,-3,-1.6,-4c-1,-.9,-2.3,-1.4,-4,-1.4c-1.5,0,-2.8,.5,-3.9,1.5c-1.1,1,-1.6,2.2,-1.7,3.9v.1Z" class="g6"/>
<path d="M146.8,1184.5c.2,.3,.3,.5,.3,.8v1.3c0,.3,-.1,.5,-.3,.8c-.2,.2,-.4,.3,-.7,.3h-2.3c-1.5,0,-2.6,.4,-3.4,1.2c-.8,.8,-1.2,1.9,-1.2,3.4V1204c0,.3,-.1,.6,-.3,.8c-.2,.2,-.5,.3,-.7,.3h-1.5c-.3,0,-.5,-.1,-.8,-.3c-.2,-.2,-.3,-.5,-.3,-.8v-18.7c0,-.3,.1,-.5,.3,-.8c.3,-.2,.5,-.3,.8,-.3h1.5c.2,0,.5,.1,.7,.3c.2,.3,.3,.5,.3,.8v1.3c.6,-.9,1.2,-1.4,1.9,-1.8c.8,-.4,1.7,-.6,2.9,-.6h2.1c.3,0,.5,.1,.7,.3Z" class="g6"/>
<path d="M110.1,1180.4h-.5c-.2,0,-.4,-.1,-.5,-.4l-2.9,-6.8v-.1c0,-.1,.1,-.1,.1,-.2c.1,-.1,.2,-.1,.3,-.1h.5c.2,0,.4,.1,.5,.3l2.2,5.4l2.3,-5.4c0,-.2,.2,-.3,.4,-.3h.6q.1,0,.2,.1q.1,.1,.1,.2q0,.1,0,.1l-2.9,6.8c-.1,.3,-.2,.4,-.4,.4Z" class="g7"/>
<path d="M116.4,1171.5c-.1,.1,-.2,.1,-.3,.1h-.8c-.1,0,-.2,0,-.3,-.1c0,-.1,-.1,-.1,-.1,-.3v-.8c0,-.1,.1,-.2,.1,-.3c.1,0,.2,-.1,.3,-.1h.8c.1,0,.2,.1,.3,.1c.1,.1,.1,.2,.1,.3v.8q0,.2,-.1,.3m-.1,8.8c-.1,.1,-.2,.1,-.3,.1h-.5c-.1,0,-.2,0,-.3,-.1c-.1,-.1,-.1,-.2,-.1,-.3v-6.8c0,-.1,0,-.2,.1,-.3c.1,-.1,.2,-.1,.3,-.1h.5c.1,0,.2,0,.3,.1c0,.1,.1,.2,.1,.3v6.8c0,.1,-.1,.2,-.1,.3Z" class="g7"/>
<path d="M123.1,1175.6v-.2c0,-.4,-.2,-.8,-.5,-1c-.3,-.3,-.7,-.4,-1.2,-.4c-.3,0,-.6,.1,-.8,.2c-.2,.1,-.4,.3,-.6,.6c-.1,0,-.1,.1,-.2,.1c-.1,0,-.2,.1,-.3,.1h-.4c-.1,0,-.2,-.1,-.3,-.2c0,0,-.1,-.1,-.1,-.2c.1,-.3,.2,-.6,.4,-.9c.3,-.2,.6,-.5,1,-.7c.4,-.1,.9,-.2,1.3,-.2c.9,0,1.6,.2,2.1,.7c.6,.5,.8,1.2,.8,2.1v4.3c0,.1,0,.2,-.1,.3c-.1,0,-.1,.1,-.2,.1h-.6c-.1,0,-.1,-.1,-.2,-.1c-.1,-.1,-.1,-.2,-.1,-.3v-.6c-.2,.3,-.5,.6,-1,.8c-.5,.2,-.9,.3,-1.4,.3c-.5,0,-.9,-.1,-1.3,-.3c-.4,-.1,-.7,-.4,-.9,-.7c-.2,-.3,-.3,-.6,-.3,-1c0,-.7,.3,-1.2,.8,-1.6c.5,-.4,1.2,-.7,2.1,-.9Zm0,1.1l-1.7,.3c-.6,.1,-1,.3,-1.4,.5c-.3,.2,-.5,.5,-.5,.8c0,.2,.1,.4,.3,.6c.2,.2,.6,.3,1,.3c.7,0,1.2,-.2,1.6,-.6c.5,-.4,.7,-.9,.7,-1.5Z" class="g7"/>
<path d="M126.9,1172.9c.1,-.1,.2,-.1,.3,-.1h.5c.1,0,.2,0,.3,.1c.1,.1,.1,.2,.1,.3v7.4c0,.8,-.2,1.5,-.6,1.9c-.3,.4,-.9,.6,-1.8,.6h-.2c-.1,0,-.2,0,-.3,-.1c-.1,0,-.1,-.1,-.1,-.2v-.5c0,-.1,0,-.2,.1,-.3c.1,-.1,.2,-.1,.3,-.1h.1c.5,0,.8,-.1,1,-.3c.1,-.3,.2,-.6,.2,-1v-7.4c0,-.1,0,-.2,.1,-.3m1.2,-1.4c0,.1,-.1,.1,-.2,.1h-.8q-.2,0,-.3,-.1c-.1,-.1,-.1,-.2,-.1,-.3v-.8c0,-.1,0,-.2,.1,-.3c.1,0,.1,-.1,.3,-.1h.8c.1,0,.2,.1,.2,.1c.1,.1,.2,.2,.2,.3v.8c0,.1,-.1,.2,-.2,.3Z" class="g7"/>
<path d="M135.7,1173.7c.6,.7,.9,1.5,.9,2.6v.4c0,.1,-.1,.2,-.1,.3c-.1,.1,-.2,.1,-.3,.1h-4.8v.1c0,.6,.2,1.1,.6,1.4c.3,.4,.8,.6,1.4,.6c.4,0,.8,-.1,1,-.2c.3,-.1,.5,-.3,.7,-.5c.1,-.1,.2,-.2,.2,-.2c.1,0,.2,0,.3,0h.4c.1,0,.2,0,.3,.1c0,.1,.1,.1,.1,.2c-.1,.3,-.2,.6,-.4,.8c-.3,.3,-.6,.5,-1.1,.7c-.4,.2,-.9,.3,-1.5,.3c-.6,0,-1.1,-.2,-1.6,-.4c-.5,-.3,-.8,-.7,-1.1,-1.2c-.3,-.5,-.5,-1,-.5,-1.6c0,-.3,0,-.5,0,-.7c0,-.1,0,-.3,0,-.6c0,-.6,.2,-1.1,.5,-1.6c.3,-.5,.6,-.8,1.1,-1.1c.4,-.3,1,-.4,1.6,-.4c1,0,1.7,.3,2.3,.9m-.4,2.2c0,-.6,-.2,-1.1,-.5,-1.4c-.4,-.3,-.8,-.5,-1.4,-.5c-.6,0,-1,.2,-1.4,.5c-.4,.4,-.6,.8,-.6,1.4Z" class="g7"/>
<path d="M138.4,1174.9c0,-.4,.1,-.7,.3,-1.1c.2,-.3,.5,-.5,.9,-.7c.4,-.2,.9,-.3,1.5,-.3c.5,0,1,.1,1.5,.2c.4,.2,.7,.4,.9,.7c.2,.2,.3,.5,.3,.7c0,.1,0,.2,-.1,.3c0,0,-.1,.1,-.2,.1H143c-.2,0,-.3,-.1,-.4,-.2c-.3,-.4,-.8,-.6,-1.5,-.6c-.5,0,-.8,.1,-1.1,.2c-.2,.2,-.4,.4,-.4,.7c0,.2,.1,.4,.2,.5c.2,.2,.4,.3,.6,.3c.3,.1,.7,.2,1.4,.4c.8,.1,1.4,.4,1.7,.8c.4,.4,.5,.8,.5,1.3c0,.4,-.1,.8,-.3,1.1c-.2,.3,-.6,.6,-1,.8c-.5,.2,-1,.3,-1.6,.3c-.5,0,-1,-.1,-1.5,-.3c-.4,-.2,-.8,-.4,-1,-.6c-.3,-.3,-.4,-.6,-.4,-.8c0,-.1,.1,-.2,.1,-.2c.1,-.1,.2,-.1,.3,-.1h.5c.1,0,.2,0,.2,0c.1,0,.2,.1,.2,.1c.3,.5,.9,.7,1.6,.7c.5,0,.9,-.1,1.2,-.3c.3,-.2,.5,-.4,.5,-.7c0,-.2,-.1,-.4,-.3,-.5c-.1,-.1,-.4,-.3,-.7,-.4c-.3,0,-.8,-.2,-1.4,-.3c-1.4,-.3,-2,-1,-2,-2.1Z" class="g7"/>
<path d="M66.3,1182.3c-3.1,0,-5.7,-2.6,-5.7,-5.7c0,-3.2,2.6,-5.7,5.7,-5.7c3.1,0,5.6,2.5,5.6,5.7c0,3.1,-2.5,5.7,-5.6,5.7m0,-8.4c-1.5,0,-2.6,1.2,-2.6,2.7c0,1.5,1.1,2.6,2.6,2.6c1.4,0,2.6,-1.1,2.6,-2.6c0,-1.5,-1.2,-2.7,-2.6,-2.7Z" class="g5"/>
<path d="M138.1,1211.6c-2,0,-3.1,-.7,-4,-1.3c-.7,-.5,-1.3,-.9,-2.6,-.9c-1.3,0,-1.9,.4,-2.7,.9c-.8,.6,-1.9,1.3,-3.9,1.3c-2,0,-3.1,-.7,-4,-1.3c-.7,-.5,-1.3,-.9,-2.6,-.9c-1.3,0,-1.9,.4,-2.6,.9c-.9,.6,-2,1.3,-4,1.3c-2,0,-3.1,-.7,-3.9,-1.3c-.8,-.5,-1.4,-.9,-2.7,-.9c-1.3,0,-1.9,.4,-2.6,.9c-.9,.6,-1.9,1.3,-3.9,1.3c-2,0,-3.1,-.7,-4,-1.3c-.7,-.5,-1.3,-.9,-2.6,-.9c-1.3,0,-1.9,.4,-2.7,.9c-.8,.6,-1.9,1.3,-3.9,1.3c-2,0,-3.1,-.7,-4,-1.3c-.7,-.5,-1.3,-.9,-2.6,-.9c-1.3,0,-1.9,.4,-2.6,.9c-.9,.6,-2,1.3,-4,1.3c-2,0,-3.1,-.7,-3.9,-1.3c-.8,-.5,-1.4,-.9,-2.7,-.9c-.6,0,-1.1,-.5,-1.1,-1.2c0,-.7,.5,-1.2,1.1,-1.2c2,0,3.1,.7,4,1.3c.7,.5,1.3,.9,2.6,.9c1.3,0,1.9,-.4,2.7,-.9c.8,-.6,1.9,-1.3,3.9,-1.3c2,0,3.1,.7,3.9,1.3c.8,.5,1.4,.9,2.7,.9c1.3,0,1.9,-.4,2.6,-.9c.9,-.6,2,-1.3,4,-1.3c2,0,3,.7,3.9,1.3c.8,.5,1.4,.9,2.7,.9c1.2,0,1.8,-.4,2.6,-.9c.9,-.6,1.9,-1.3,3.9,-1.3c2,0,3.1,.7,4,1.3c.7,.5,1.3,.9,2.6,.9c1.3,0,1.9,-.4,2.7,-.9c.8,-.6,1.9,-1.3,3.9,-1.3c2,0,3.1,.7,3.9,1.3c.8,.5,1.4,.9,2.7,.9c1.3,0,1.9,-.4,2.6,-.9c.9,-.6,2,-1.3,4,-1.3c2,0,3,.7,3.9,1.3c.8,.5,1.4,.9,2.7,.9c.6,0,1.1,.6,1.1,1.2c0,.7,-.5,1.2,-1.1,1.2Z" class="g5"/>
<path d="M138.1,1215.5c-2,0,-3.1,-.7,-4,-1.3c-.7,-.5,-1.3,-.9,-2.6,-.9c-1.3,0,-1.9,.4,-2.7,.9c-.8,.6,-1.9,1.3,-3.9,1.3c-2,0,-3.1,-.7,-4,-1.3c-.7,-.5,-1.3,-.9,-2.6,-.9c-1.3,0,-1.9,.4,-2.6,.9c-.9,.6,-2,1.3,-4,1.3c-2,0,-3.1,-.7,-3.9,-1.3c-.8,-.5,-1.4,-.9,-2.7,-.9c-1.3,0,-1.9,.4,-2.6,.9c-.9,.6,-1.9,1.3,-3.9,1.3c-2,0,-3.1,-.7,-4,-1.3c-.7,-.5,-1.3,-.9,-2.6,-.9c-1.3,0,-1.9,.4,-2.7,.9c-.8,.6,-1.9,1.3,-3.9,1.3c-2,0,-3.1,-.7,-4,-1.3c-.7,-.5,-1.3,-.9,-2.6,-.9c-1.3,0,-1.9,.4,-2.6,.9c-.9,.6,-2,1.3,-4,1.3c-2,0,-3.1,-.7,-3.9,-1.3c-.8,-.5,-1.4,-.9,-2.7,-.9c-.6,0,-1.1,-.6,-1.1,-1.2c0,-.7,.5,-1.2,1.1,-1.2c2,0,3.1,.7,4,1.3c.7,.5,1.3,.9,2.6,.9c1.3,0,1.9,-.4,2.7,-.9c.8,-.6,1.9,-1.3,3.9,-1.3c2,0,3.1,.7,3.9,1.3c.8,.5,1.4,.9,2.7,.9c1.3,0,1.9,-.4,2.6,-.9c.9,-.6,2,-1.3,4,-1.3c2,0,3,.7,3.9,1.3c.8,.5,1.4,.9,2.7,.9c1.2,0,1.8,-.4,2.6,-.9c.9,-.6,1.9,-1.3,3.9,-1.3c2,0,3.1,.7,4,1.3c.7,.5,1.3,.9,2.6,.9c1.3,0,1.9,-.4,2.7,-.9c.8,-.6,1.9,-1.3,3.9,-1.3c2,0,3.1,.7,3.9,1.3c.8,.5,1.4,.9,2.7,.9c1.3,0,1.9,-.4,2.6,-.9c.9,-.6,2,-1.3,4,-1.3c2,0,3,.7,3.9,1.3c.8,.5,1.4,.9,2.7,.9c.6,0,1.1,.5,1.1,1.2c0,.7,-.5,1.2,-1.1,1.2Z" class="g5"/>
<path clip-path="url(#c3)" d="M-294.4,1048H1857.9m-2152.3,59.7H1857.9" class="g8"/>
<path d="M208.9,671.2c88.4,0,160.1,-71.7,160.1,-160c0,-88.4,-71.7,-160,-160.1,-160c-88.3,0,-160,71.6,-160,160c0,88.3,71.7,160,160,160Z" class="g1"/>
<path d="M208.9,671.2c88.4,0,160.1,-71.7,160.1,-160c0,-88.4,-71.7,-160,-160.1,-160c-88.3,0,-160,71.6,-160,160c0,88.3,71.7,160,160,160Z" class="g9"/>
<path d="M240.2,817.1c3.4,0,6.1,-2.8,6.1,-6.1c0,-3.4,-2.7,-6.1,-6.1,-6.1c-3.4,0,-6.1,2.7,-6.1,6.1c0,3.3,2.7,6.1,6.1,6.1Z" class="g1"/>
<path d="M240.2,817.1c3.4,0,6.1,-2.8,6.1,-6.1c0,-3.4,-2.7,-6.1,-6.1,-6.1c-3.4,0,-6.1,2.7,-6.1,6.1c0,3.3,2.7,6.1,6.1,6.1Z" class="g2"/>
<path d="M208.9,684.3c95.6,0,173.1,-77.5,173.1,-173c0,-95.6,-77.5,-173,-173.1,-173c-95.5,0,-173,77.4,-173,173c0,95.5,77.5,173,173,173Z" class="ga"/>
<path d="M807.3,1205.4c0,1.8,-1.2,2.8,-3,2.8c-1.8,0,-2.9,-1,-2.9,-2.8c0,-1.6,1.1,-2.7,3,-2.7c1.8,0,2.9,1,2.9,2.7m-2.8,-4.4c-3.3,0,-5.2,2.1,-5.2,4.7c0,1.5,.5,2.7,1.7,3.4c-.8,.3,-1.3,1.1,-1.3,2c0,.6,.3,1.1,.8,1.5c.2,.1,.5,.3,.9,.4c-1.2,2,-2.5,3.6,-3.7,4.9c-.6,.7,-1.3,1.3,-1.9,1.8c-.2,.1,-.3,.2,-.5,.3v.1c-.6,.4,-1.2,.7,-1.8,1.1c0,0,-.1,0,-.1,0c-.1,.1,-.2,.1,-.3,.1c-1.6,.8,-3.2,1.1,-4.6,1.1c-4.2,0,-7.5,-1.1,-10.1,-2.9v2.6c2.7,1.4,5.9,2.2,9.9,2.3c4.2,.1,9.4,-2.4,14.4,-10c.5,-.7,1,-1.1,2,-1.1h.9c1.7,0,2.5,.7,2.5,1.9c0,0,0,.1,0,.1c0,0,1.9,-1.6,1.9,-1.7c-.5,-1.3,-1.8,-2.1,-3.8,-2.1H804c-1.4,0,-2,-.3,-2,-.9c0,-.4,.2,-.8,.7,-1c.4,.1,1,.1,1.5,.1c3.4,0,5.2,-1.8,5.2,-4.4c0,-1,-.4,-1.9,-1,-2.3h2v-1.7h-4c-.7,-.2,-1.2,-.3,-1.9,-.3m56.5,10.8c-1.8,0,-2.9,-1,-2.9,-2.8c0,-1.7,1.2,-2.7,3,-2.7c1.8,0,2.9,.9,2.9,2.7c0,1.6,-1.1,2.8,-3,2.8m3.4,-6.4c.8,-.4,1.3,-1.2,1.3,-2c0,-.7,-.6,-1.6,-1.7,-2c-.9,-.3,-3.3,-.3,-3.3,-.3h-.9c-1.7,0,-2.5,-.7,-2.5,-1.8q0,-.1,0,-.2c0,0,-1.9,1.6,-1.9,1.7c.5,1.4,1.8,2.1,3.8,2.1h2.2c1.5,0,2.1,.3,2.1,1c0,.4,-.3,.7,-.8,1c-.4,-.1,-1,-.2,-1.5,-.2c-3.4,0,-5.2,1.9,-5.2,4.4c0,1.1,.4,1.9,1,2.4h-2v1.7h4c.7,.1,1.2,.2,1.9,.2c3.3,0,5.2,-2.1,5.2,-4.6c0,-1.5,-.5,-2.7,-1.7,-3.4m-45.2,6.4c-1.9,0,-2.9,-1,-2.9,-2.8c0,-1.7,1.1,-2.7,2.9,-2.7c1.9,0,3,.9,3,2.7c0,1.6,-1.1,2.8,-3,2.8m3.4,-6.4c.8,-.4,1.3,-1.2,1.3,-2c0,-.7,-.6,-1.6,-1.7,-2c-1,-.3,-3.3,-.3,-3.3,-.3H818c-1.7,0,-2.5,-.7,-2.5,-1.8q0,-.1,0,-.2c0,0,-1.9,1.6,-2,1.7c.5,1.4,1.9,2.1,3.9,2.1h2.2c1.4,0,2,.3,2,1c0,.4,-.2,.7,-.8,1c-.4,-.1,-1,-.2,-1.5,-.2c-3.4,0,-5.1,1.9,-5.1,4.4c0,1.1,.3,1.9,1,2.4h-2.1v1.7h4.1c.6,.1,1.2,.2,1.9,.2c3.3,0,5.2,-2.1,5.2,-4.6c0,-1.5,-.6,-2.7,-1.7,-3.4m27.5,7.8h2.1v-11.9h-2.1v11.9Zm-5.9,-1.7c-2.6,0,-3.4,-1.8,-3.4,-4.2c0,-2.7,1.2,-4.5,3.6,-4.5c.9,0,1.8,.3,2.6,.5l.2,-1.9c-.8,-.2,-1.8,-.3,-2.7,-.3c-4,0,-5.9,2.7,-5.9,6.5c0,4.4,2.3,5.8,5.2,5.8c1.4,0,2.6,-.3,3.4,-.7l-.1,-1.8c-.8,.4,-1.9,.6,-2.9,.6m-10.8,1.7h2.1v-11.9h-2.1v11.9Zm-6.3,0h2.2v-17.5h-2.2v17.5Z" class="g1"/>
<path d="M807.3,1205.4c0,1.8,-1.2,2.8,-3,2.8c-1.8,0,-2.9,-1,-2.9,-2.8c0,-1.6,1.1,-2.7,3,-2.7c1.8,0,2.9,1,2.9,2.7m-2.8,-4.4c-3.3,0,-5.2,2.1,-5.2,4.7c0,1.5,.5,2.7,1.7,3.4c-.8,.3,-1.3,1.1,-1.3,2c0,.6,.3,1.1,.8,1.5c.2,.1,.5,.3,.9,.4c-1.2,2,-2.5,3.6,-3.7,4.9c-.6,.7,-1.3,1.3,-1.9,1.8c-.2,.1,-.3,.2,-.5,.3v.1c-.6,.4,-1.2,.7,-1.8,1.1c0,0,-.1,0,-.1,0c-.1,.1,-.2,.1,-.3,.1c-1.6,.8,-3.2,1.1,-4.6,1.1c-4.2,0,-7.5,-1.1,-10.1,-2.9v2.6c2.7,1.4,5.9,2.2,9.9,2.3c4.2,.1,9.4,-2.4,14.4,-10c.5,-.7,1,-1.1,2,-1.1h.9c1.7,0,2.5,.7,2.5,1.9c0,0,0,.1,0,.1c0,0,1.9,-1.6,1.9,-1.7c-.5,-1.3,-1.8,-2.1,-3.8,-2.1H804c-1.4,0,-2,-.3,-2,-.9c0,-.4,.2,-.8,.7,-1c.4,.1,1,.1,1.5,.1c3.4,0,5.2,-1.8,5.2,-4.4c0,-1,-.4,-1.9,-1,-2.3h2v-1.7h-4c-.7,-.2,-1.2,-.3,-1.9,-.3m56.5,10.8c-1.8,0,-2.9,-1,-2.9,-2.8c0,-1.7,1.2,-2.7,3,-2.7c1.8,0,2.9,.9,2.9,2.7c0,1.6,-1.1,2.8,-3,2.8m3.4,-6.4c.8,-.4,1.3,-1.2,1.3,-2c0,-.7,-.6,-1.6,-1.7,-2c-.9,-.3,-3.3,-.3,-3.3,-.3h-.9c-1.7,0,-2.5,-.7,-2.5,-1.8q0,-.1,0,-.2c0,0,-1.9,1.6,-1.9,1.7c.5,1.4,1.8,2.1,3.8,2.1h2.2c1.5,0,2.1,.3,2.1,1c0,.4,-.3,.7,-.8,1c-.4,-.1,-1,-.2,-1.5,-.2c-3.4,0,-5.2,1.9,-5.2,4.4c0,1.1,.4,1.9,1,2.4h-2v1.7h4c.7,.1,1.2,.2,1.9,.2c3.3,0,5.2,-2.1,5.2,-4.6c0,-1.5,-.5,-2.7,-1.7,-3.4m-45.2,6.4c-1.9,0,-2.9,-1,-2.9,-2.8c0,-1.7,1.1,-2.7,2.9,-2.7c1.9,0,3,.9,3,2.7c0,1.6,-1.1,2.8,-3,2.8m3.4,-6.4c.8,-.4,1.3,-1.2,1.3,-2c0,-.7,-.6,-1.6,-1.7,-2c-1,-.3,-3.3,-.3,-3.3,-.3H818c-1.7,0,-2.5,-.7,-2.5,-1.8q0,-.1,0,-.2c0,0,-1.9,1.6,-2,1.7c.5,1.4,1.9,2.1,3.9,2.1h2.2c1.4,0,2,.3,2,1c0,.4,-.2,.7,-.8,1c-.4,-.1,-1,-.2,-1.5,-.2c-3.4,0,-5.1,1.9,-5.1,4.4c0,1.1,.3,1.9,1,2.4h-2.1v1.7h4.1c.6,.1,1.2,.2,1.9,.2c3.3,0,5.2,-2.1,5.2,-4.6c0,-1.5,-.6,-2.7,-1.7,-3.4m27.5,7.8h2.1v-11.9h-2.1v11.9Zm-5.9,-1.7c-2.6,0,-3.4,-1.8,-3.4,-4.2c0,-2.7,1.2,-4.5,3.6,-4.5c.9,0,1.8,.3,2.6,.5l.2,-1.9c-.8,-.2,-1.8,-.3,-2.7,-.3c-4,0,-5.9,2.7,-5.9,6.5c0,4.4,2.3,5.8,5.2,5.8c1.4,0,2.6,-.3,3.4,-.7l-.1,-1.8c-.8,.4,-1.9,.6,-2.9,.6m-10.8,1.7h2.1v-11.9h-2.1v11.9Zm-6.3,0h2.2v-17.5h-2.2v17.5Z" class="g1"/>
<path d="M398.7,1231.5h27.9v-37.3H398.7v37.3Z" class="gb"/>
<path d="M405.2,1207.3v1.4h-1.4v-1.4h-1.4v-1.4h1.4v-1.4h1.4v1.4h1.4v1.4Z" class="g1"/>
<path d="M405.2,1215.5v1.4h-1.4v-1.4h-1.4v-1.4h1.4v-1.4h1.4v1.4h1.4v1.4Z" class="g1"/>
<path d="M405.2,1223.6v1.4h-1.4v-1.4h-1.4v-1.4h1.4v-1.4h1.4v1.4h1.4v1.4Z" class="g1"/>
<path d="M421.5,1207.3v1.4h-1.4v-1.4h-1.4v-1.4h1.4v-1.4h1.4v1.4h1.4v1.4Z" class="g1"/>
<path d="M421.5,1215.5v1.4h-1.4v-1.4h-1.4v-1.4h1.4v-1.4h1.4v1.4h1.4v1.4Z" class="g1"/>
<path d="M421.5,1223.6v1.4h-1.4v-1.4h-1.4v-1.4h1.4v-1.4h1.4v1.4h1.4v1.4Z" class="g1"/>
<path d="M408,1215.4c0,1.2,.3,2.2,1.1,3c.7,.9,1.5,1.4,2.6,1.6c.1,.4,.1,.6,.1,.8c.2,1.3,0,2.6,-.5,3.7c-.5,1.2,-1.2,2.2,-2.1,3v.1c0,.1,0,.2,.1,.2H416c.1,0,.1,-.1,.1,-.2q0,-.1,0,-.1c-.9,-.8,-1.7,-1.8,-2.2,-3c-.4,-1.1,-.6,-2.4,-.4,-3.7c0,-.2,0,-.4,.1,-.8c1,-.2,1.9,-.7,2.6,-1.6c.7,-.8,1.1,-1.8,1.1,-3v-.1q0,-.1,-.2,-.1h-9q-.1,0,-.1,.1Z" class="g1"/>
<path d="M410.3,1212.2c0,-1.3,1.1,-2.3,2.3,-2.3c1.3,0,2.4,1,2.4,2.3c0,1.3,-1.1,2.3,-2.4,2.3c-1.2,0,-2.3,-1,-2.3,-2.3Z" class="g1"/>
<path d="M413.3,1207.3v1.4h-1.4v-1.4h-1.4v-1.4h1.4v-1.4h1.4v1.4h1.5v1.4Z" class="g1"/>
<path d="M412.4,1196.1v.4H412v.4h.4v.4h.5v-.4h.4v-.4h-.4v-.4Z" class="g1"/>
<path d="M408.7,1201.7h.8l-1.1,-1.5c-.1,-.2,-.2,-.5,-.2,-.6c0,-.4,.1,-.6,.3,-.8c.3,-.3,.6,-.4,.9,-.4c.2,0,.4,0,.4,0c-.1,.3,-.1,.6,-.1,.8c0,.4,.1,.7,.2,.9l.9,1.6h.7l-1.1,-1.8c-.1,-.2,-.1,-.4,-.1,-.7c0,-.3,.1,-.5,.3,-.8c.2,-.2,.5,-.3,.8,-.3c.4,0,.7,.1,1,.4v3.2h.5v-3.2c.2,-.3,.6,-.4,.9,-.4c.4,0,.6,.1,.8,.3c.3,.3,.4,.5,.4,.8c0,.3,0,.5,-.1,.7l-1.1,1.8h.7l.9,-1.6c.1,-.2,.2,-.5,.2,-.9c0,-.2,-.1,-.5,-.2,-.8c.1,0,.3,0,.5,0c.3,0,.6,.1,.8,.4c.3,.2,.4,.4,.4,.8c0,.1,-.1,.4,-.2,.6l-1.1,1.5h.8l.8,-1.1c.2,-.3,.3,-.6,.3,-1c0,-.5,-.2,-.9,-.6,-1.3c-.3,-.3,-.7,-.5,-1.2,-.5c-.3,0,-.6,.1,-.8,.2c-.4,-.4,-.8,-.5,-1.3,-.5c-.5,0,-.8,.1,-1.1,.4c-.4,-.3,-.8,-.4,-1.3,-.4c-.5,0,-.9,.1,-1.2,.5c-.3,-.1,-.5,-.2,-.8,-.2c-.5,0,-.9,.2,-1.3,.5c-.3,.4,-.5,.8,-.5,1.3c0,.4,.1,.7,.3,1Z" class="g1"/>
<path d="M408.9,1202.3l.2,.6h7.1l.1,-.6Z" class="g1"/>
<path d="M474.8,1199.1c-.3,0,-.7,0,-1.2,0h-1.2v6.5c0,.6,0,1.2,.1,1.8c.1,.6,.3,1.1,.5,1.7h-2.8c.2,-.6,.3,-1.1,.4,-1.7c.1,-.6,.1,-1.2,.1,-1.8v-6.5h-1.2c-.4,0,-.8,0,-1.2,0c-.5,.1,-1,.2,-1.5,.4v-2h9.5v2c-.5,-.2,-1,-.3,-1.5,-.4Z" class="g1"/>
<path d="M465.2,1201v6.1c0,.3,0,.6,0,.9c.1,.5,.1,.7,.3,1.1h-1.9c-.3,-.5,-.6,-1,-.9,-1.4l-5.3,-7.3v5.2c0,.6,0,1.2,.1,1.8c.1,.6,.3,1.1,.5,1.7h-2.8c.2,-.6,.3,-1.1,.4,-1.7c.1,-.6,.1,-1.2,.1,-1.8v-6.1c0,-.2,0,-.5,0,-.9c-.1,-.4,-.1,-.7,-.3,-1.1h2c.3,.5,.6,1,.9,1.4l5.2,7.2V1201c0,-.6,0,-1.2,-.1,-1.8c-.1,-.6,-.3,-1.1,-.5,-1.7h2.8c-.2,.6,-.3,1.1,-.4,1.7c-.1,.6,-.1,1.2,-.1,1.8Z" class="g1"/>
<path d="M444.7,1201c0,-.6,0,-1.2,-.1,-1.8c-.1,-.6,-.2,-1.1,-.5,-1.7H447c-.3,.6,-.4,1.1,-.5,1.7c-.1,.6,-.1,1.2,-.1,1.8v4c0,1.5,1.2,2.7,2.6,2.7c1.5,0,2.7,-1.2,2.7,-2.7v-4c0,-.6,0,-1.2,-.1,-1.8c-.1,-.6,-.2,-1.1,-.5,-1.7H454c-.3,.6,-.4,1.1,-.5,1.7c-.1,.6,-.1,1.2,-.1,1.8v4c0,2.4,-2,4.3,-4.4,4.3c-2.3,0,-4.3,-1.9,-4.3,-4.3v-2.9Z" class="g1"/>
<path d="M433,1197.5h2.8c.1,.2,.1,.4,.2,.6c0,.3,.2,.5,.5,1.1c.4,.6,1.4,2,1.7,2.4l1.5,-2.4c.3,-.3,.4,-.6,.5,-.8c.1,-.3,.2,-.6,.2,-.9H443c-.4,.5,-.8,.9,-1.1,1.5c0,0,-2.1,3.2,-2.7,4.1l3.1,4.6c.6,.7,1.3,1.4,1.3,1.4h-3.2c.1,-.5,.1,-.8,-.2,-1.4c0,0,-2,-3.2,-2,-3.2l-1.5,2.1c-.5,.9,-.9,1.5,-1.1,2.5h-2.7c.9,-.9,1.7,-2,2.4,-3.2l1.9,-2.8l-2.3,-3.2c-.9,-1.4,-1.9,-2.4,-1.9,-2.4Z" class="g1"/>
<path d="M485.4,1209l.1,.1h-2.3c.1,-.4,.2,-.6,.3,-1.1c0,-.3,0,-.6,0,-.9v-2.9h-5.3v2.9c0,.7,.1,1.4,.2,2H476c.2,-.6,.3,-1.1,.5,-1.7c0,-.6,.1,-1.2,.1,-1.8v-2.9c0,-1.5,.4,-2.8,1.4,-3.8c1,-1.1,2.4,-1.6,4.2,-1.6c.4,0,.7,0,1.2,.1c.6,0,1.2,.1,1.8,.2v9.5c0,.3,0,.6,0,.9c.1,.4,.1,.7,.2,1m-1.9,-9.9c-.3,-.1,-.7,-.2,-1.2,-.2c-1.2,0,-2.1,.3,-2.9,1c-.7,.6,-1.2,1.5,-1.2,2.7h5.3Z" class="g1"/>
<path d="M519,1224.9v.1h-2.3c.1,-.4,.2,-.7,.3,-1.1c0,-.4,0,-.7,0,-.9v-3h-5.3v3c0,.7,.1,1.3,.2,2h-2.4c.2,-.6,.3,-1.1,.5,-1.7c0,-.6,.1,-1.2,.1,-1.8v-2.9c0,-1.6,.5,-2.9,1.4,-3.9c1,-1,2.4,-1.5,4.2,-1.5c.4,0,.7,0,1.2,0c.6,.1,1.2,.2,1.8,.2v9.6c0,.2,0,.5,0,.9c.1,.4,.1,.7,.3,1m-2,-10c-.3,-.1,-.7,-.1,-1.2,-.1c-1.2,0,-2.1,.3,-2.9,1c-.7,.6,-1.1,1.4,-1.2,2.7H517Z" class="g1"/>
<path d="M507.4,1216.9v4.6c0,.6,0,1.2,.1,1.8c.1,.6,.3,1.1,.5,1.7h-2.8c.2,-.6,.3,-1.1,.4,-1.7c.1,-.6,.1,-1.2,.1,-1.8v-4.6c0,-.6,0,-1.2,-.1,-1.8c-.1,-.6,-.2,-1.1,-.4,-1.8H508c-.2,.7,-.4,1.2,-.5,1.8c-.1,.6,-.1,1.2,-.1,1.8Z" class="g1"/>
<path d="M490.8,1216.9v4.6c0,.6,0,1.2,.1,1.8c.1,.6,.3,1.1,.5,1.7h-2.8c.2,-.6,.3,-1.1,.5,-1.7c0,-.6,.1,-1.2,.1,-1.8v-4.6c0,-.6,-.1,-1.2,-.1,-1.8c-.2,-.6,-.3,-1.1,-.5,-1.8h2.8c-.2,.7,-.4,1.2,-.5,1.8c-.1,.6,-.1,1.2,-.1,1.8Z" class="g1"/>
<path d="M482.5,1216.9v6.5h1.3c.6,0,1.2,-.1,1.7,-.1c.7,-.2,1.2,-.3,1.8,-.5v2.2h-7c.2,-.6,.4,-1.1,.5,-1.7c.1,-.6,.1,-1.2,.1,-1.8v-4.6c0,-.6,0,-1.2,-.1,-1.8c-.1,-.6,-.3,-1.2,-.5,-1.8h2.8c-.2,.7,-.3,1.2,-.5,1.8c0,.6,-.1,1.2,-.1,1.8Z" class="g1"/>
<path d="M478.3,1224.9v.1H476c.2,-.4,.3,-.7,.3,-1.1c0,-.4,.1,-.7,.1,-.9v-3H471v3c.1,.7,.1,1.3,.2,2h-2.4c.2,-.6,.4,-1.1,.5,-1.7c.1,-.6,.1,-1.2,.1,-1.8v-2.9c0,-1.6,.5,-2.9,1.5,-3.9c1,-1,2.3,-1.5,4.1,-1.5c.4,0,.8,0,1.2,0c.6,.1,1.2,.2,1.8,.3v9.5c0,.2,0,.5,.1,.9c0,.4,.1,.7,.2,1m-1.9,-10c-.3,-.1,-.8,-.1,-1.3,-.1c-1.2,0,-2.1,.3,-2.9,1c-.7,.6,-1.1,1.4,-1.2,2.7h5.4Z" class="g1"/>
<path d="M462.7,1218.3c.7,.1,1.4,.1,2,.2h3v.9c0,3.8,-2.7,5.8,-5.5,5.8c-3.3,-.1,-5.9,-2.7,-5.9,-6c0,-3.6,3.2,-6.5,6.9,-6c1.4,.2,2.7,.9,3.7,2l-1,2c-.8,-1.4,-2,-2.3,-3.7,-2.3c-2.3,0,-4.2,1.9,-4.3,4.3c.1,2.4,2,4.3,4.3,4.3c2,0,3.6,-1.3,3.8,-3.5h-.6c-.4,0,-.8,0,-1.2,.1c-.5,0,-1,.2,-1.5,.4Z" class="g1"/>
<path d="M449.9,1218.1v2.3c-.4,-.2,-.7,-.3,-1.1,-.3c-.3,0,-.6,-.1,-.8,-.1h-2.2v3.4h2.9c.4,0,.8,-.1,1.1,-.1c.5,0,1,-.2,1.5,-.4v2.1h-7.7c.2,-.6,.3,-1.1,.5,-1.7c0,-.6,.1,-1.2,.1,-1.8v-4.6c0,-.6,-.1,-1.2,-.1,-1.8c-.2,-.6,-.3,-1.1,-.5,-1.8h7.7v2.2c-.5,-.2,-1,-.4,-1.5,-.4c-.3,-.1,-.7,-.1,-1.2,-.1h-2.8v3.5h2.1c.2,0,.5,-.1,.9,-.1c.6,0,1.1,-.3,1.1,-.3Z" class="g1"/>
<path d="M433.5,1223.3c.1,-.6,.1,-1.2,.1,-1.8v-4.6c0,-.6,0,-1.2,-.1,-1.8c-.1,-.6,-.3,-1.1,-.5,-1.8h3.6c3.1,.1,5.6,2.7,5.6,5.9c0,3.2,-2.5,5.8,-5.6,5.8H433c.2,-.6,.4,-1.1,.5,-1.7m1.8,.1h1.3c2.2,0,4,-1.9,4,-4.2c0,-2.3,-1.8,-4.2,-4,-4.2h-1.3Z" class="g1"/>
<path d="M498.7,1223.5c1.7,0,2.9,-.9,3.8,-2.3l.9,1.9c-1,1.1,-2.2,1.8,-3.7,2c-3.7,.5,-6.8,-2.3,-6.9,-5.9c.1,-3.6,3.2,-6.5,6.9,-6c1.5,.2,2.7,.9,3.7,2l-.9,2c-.9,-1.4,-2.1,-2.3,-3.8,-2.3c-2.3,0,-4.2,1.9,-4.2,4.3c0,2.4,1.9,4.3,4.2,4.3Z" class="g1"/>
<path d="M398.7,1231.5h27.9v-37.3H398.7v37.3Z" class="gb"/>
<path d="M405.2,1207.3v1.4h-1.4v-1.4h-1.4v-1.4h1.4v-1.4h1.4v1.4h1.4v1.4Z" class="g1"/>
<path d="M405.2,1215.5v1.4h-1.4v-1.4h-1.4v-1.4h1.4v-1.4h1.4v1.4h1.4v1.4Z" class="g1"/>
<path d="M405.2,1223.6v1.4h-1.4v-1.4h-1.4v-1.4h1.4v-1.4h1.4v1.4h1.4v1.4Z" class="g1"/>
<path d="M421.5,1207.3v1.4h-1.4v-1.4h-1.4v-1.4h1.4v-1.4h1.4v1.4h1.4v1.4Z" class="g1"/>
<path d="M421.5,1215.5v1.4h-1.4v-1.4h-1.4v-1.4h1.4v-1.4h1.4v1.4h1.4v1.4Z" class="g1"/>
<path d="M421.5,1223.6v1.4h-1.4v-1.4h-1.4v-1.4h1.4v-1.4h1.4v1.4h1.4v1.4Z" class="g1"/>
<path d="M408,1215.4c0,1.2,.3,2.2,1.1,3c.7,.9,1.5,1.4,2.6,1.6c.1,.4,.1,.6,.1,.8c.2,1.3,0,2.6,-.5,3.7c-.5,1.2,-1.2,2.2,-2.1,3v.1c0,.1,0,.2,.1,.2H416c.1,0,.1,-.1,.1,-.2q0,-.1,0,-.1c-.9,-.8,-1.7,-1.8,-2.2,-3c-.4,-1.1,-.6,-2.4,-.4,-3.7c0,-.2,0,-.4,.1,-.8c1,-.2,1.9,-.7,2.6,-1.6c.7,-.8,1.1,-1.8,1.1,-3v-.1q0,-.1,-.2,-.1h-9q-.1,0,-.1,.1Z" class="g1"/>
<path d="M410.3,1212.2c0,-1.3,1.1,-2.3,2.3,-2.3c1.3,0,2.4,1,2.4,2.3c0,1.3,-1.1,2.3,-2.4,2.3c-1.2,0,-2.3,-1,-2.3,-2.3Z" class="g1"/>
<path d="M413.3,1207.3v1.4h-1.4v-1.4h-1.4v-1.4h1.4v-1.4h1.4v1.4h1.5v1.4Z" class="g1"/>
<path d="M412.4,1196.1v.4H412v.4h.4v.4h.5v-.4h.4v-.4h-.4v-.4Z" class="g1"/>
<path d="M408.7,1201.7h.8l-1.1,-1.5c-.1,-.2,-.2,-.5,-.2,-.6c0,-.4,.1,-.6,.3,-.8c.3,-.3,.6,-.4,.9,-.4c.2,0,.4,0,.4,0c-.1,.3,-.1,.6,-.1,.8c0,.4,.1,.7,.2,.9l.9,1.6h.7l-1.1,-1.8c-.1,-.2,-.1,-.4,-.1,-.7c0,-.3,.1,-.5,.3,-.8c.2,-.2,.5,-.3,.8,-.3c.4,0,.7,.1,1,.4v3.2h.5v-3.2c.2,-.3,.6,-.4,.9,-.4c.4,0,.6,.1,.8,.3c.3,.3,.4,.5,.4,.8c0,.3,0,.5,-.1,.7l-1.1,1.8h.7l.9,-1.6c.1,-.2,.2,-.5,.2,-.9c0,-.2,-.1,-.5,-.2,-.8c.1,0,.3,0,.5,0c.3,0,.6,.1,.8,.4c.3,.2,.4,.4,.4,.8c0,.1,-.1,.4,-.2,.6l-1.1,1.5h.8l.8,-1.1c.2,-.3,.3,-.6,.3,-1c0,-.5,-.2,-.9,-.6,-1.3c-.3,-.3,-.7,-.5,-1.2,-.5c-.3,0,-.6,.1,-.8,.2c-.4,-.4,-.8,-.5,-1.3,-.5c-.5,0,-.8,.1,-1.1,.4c-.4,-.3,-.8,-.4,-1.3,-.4c-.5,0,-.9,.1,-1.2,.5c-.3,-.1,-.5,-.2,-.8,-.2c-.5,0,-.9,.2,-1.3,.5c-.3,.4,-.5,.8,-.5,1.3c0,.4,.1,.7,.3,1Z" class="g1"/>
<path d="M408.9,1202.3l.2,.6h7.1l.1,-.6Z" class="g1"/>
<path d="M474.8,1199.1c-.3,0,-.7,0,-1.2,0h-1.2v6.5c0,.6,0,1.2,.1,1.8c.1,.6,.3,1.1,.5,1.7h-2.8c.2,-.6,.3,-1.1,.4,-1.7c.1,-.6,.1,-1.2,.1,-1.8v-6.5h-1.2c-.4,0,-.8,0,-1.2,0c-.5,.1,-1,.2,-1.5,.4v-2h9.5v2c-.5,-.2,-1,-.3,-1.5,-.4Z" class="g1"/>
<path d="M465.2,1201v6.1c0,.3,0,.6,0,.9c.1,.5,.1,.7,.3,1.1h-1.9c-.3,-.5,-.6,-1,-.9,-1.4l-5.3,-7.3v5.2c0,.6,0,1.2,.1,1.8c.1,.6,.3,1.1,.5,1.7h-2.8c.2,-.6,.3,-1.1,.4,-1.7c.1,-.6,.1,-1.2,.1,-1.8v-6.1c0,-.2,0,-.5,0,-.9c-.1,-.4,-.1,-.7,-.3,-1.1h2c.3,.5,.6,1,.9,1.4l5.2,7.2V1201c0,-.6,0,-1.2,-.1,-1.8c-.1,-.6,-.3,-1.1,-.5,-1.7h2.8c-.2,.6,-.3,1.1,-.4,1.7c-.1,.6,-.1,1.2,-.1,1.8Z" class="g1"/>
<path d="M444.7,1201c0,-.6,0,-1.2,-.1,-1.8c-.1,-.6,-.2,-1.1,-.5,-1.7H447c-.3,.6,-.4,1.1,-.5,1.7c-.1,.6,-.1,1.2,-.1,1.8v4c0,1.5,1.2,2.7,2.6,2.7c1.5,0,2.7,-1.2,2.7,-2.7v-4c0,-.6,0,-1.2,-.1,-1.8c-.1,-.6,-.2,-1.1,-.5,-1.7H454c-.3,.6,-.4,1.1,-.5,1.7c-.1,.6,-.1,1.2,-.1,1.8v4c0,2.4,-2,4.3,-4.4,4.3c-2.3,0,-4.3,-1.9,-4.3,-4.3v-2.9Z" class="g1"/>
<path d="M433,1197.5h2.8c.1,.2,.1,.4,.2,.6c0,.3,.2,.5,.5,1.1c.4,.6,1.4,2,1.7,2.4l1.5,-2.4c.3,-.3,.4,-.6,.5,-.8c.1,-.3,.2,-.6,.2,-.9H443c-.4,.5,-.8,.9,-1.1,1.5c0,0,-2.1,3.2,-2.7,4.1l3.1,4.6c.6,.7,1.3,1.4,1.3,1.4h-3.2c.1,-.5,.1,-.8,-.2,-1.4c0,0,-2,-3.2,-2,-3.2l-1.5,2.1c-.5,.9,-.9,1.5,-1.1,2.5h-2.7c.9,-.9,1.7,-2,2.4,-3.2l1.9,-2.8l-2.3,-3.2c-.9,-1.4,-1.9,-2.4,-1.9,-2.4Z" class="g1"/>
<path d="M485.4,1209l.1,.1h-2.3c.1,-.4,.2,-.6,.3,-1.1c0,-.3,0,-.6,0,-.9v-2.9h-5.3v2.9c0,.7,.1,1.4,.2,2H476c.2,-.6,.3,-1.1,.5,-1.7c0,-.6,.1,-1.2,.1,-1.8v-2.9c0,-1.5,.4,-2.8,1.4,-3.8c1,-1.1,2.4,-1.6,4.2,-1.6c.4,0,.7,0,1.2,.1c.6,0,1.2,.1,1.8,.2v9.5c0,.3,0,.6,0,.9c.1,.4,.1,.7,.2,1m-1.9,-9.9c-.3,-.1,-.7,-.2,-1.2,-.2c-1.2,0,-2.1,.3,-2.9,1c-.7,.6,-1.2,1.5,-1.2,2.7h5.3Z" class="g1"/>
<path d="M519,1224.9v.1h-2.3c.1,-.4,.2,-.7,.3,-1.1c0,-.4,0,-.7,0,-.9v-3h-5.3v3c0,.7,.1,1.3,.2,2h-2.4c.2,-.6,.3,-1.1,.5,-1.7c0,-.6,.1,-1.2,.1,-1.8v-2.9c0,-1.6,.5,-2.9,1.4,-3.9c1,-1,2.4,-1.5,4.2,-1.5c.4,0,.7,0,1.2,0c.6,.1,1.2,.2,1.8,.2v9.6c0,.2,0,.5,0,.9c.1,.4,.1,.7,.3,1m-2,-10c-.3,-.1,-.7,-.1,-1.2,-.1c-1.2,0,-2.1,.3,-2.9,1c-.7,.6,-1.1,1.4,-1.2,2.7H517Z" class="g1"/>
<path d="M507.4,1216.9v4.6c0,.6,0,1.2,.1,1.8c.1,.6,.3,1.1,.5,1.7h-2.8c.2,-.6,.3,-1.1,.4,-1.7c.1,-.6,.1,-1.2,.1,-1.8v-4.6c0,-.6,0,-1.2,-.1,-1.8c-.1,-.6,-.2,-1.1,-.4,-1.8H508c-.2,.7,-.4,1.2,-.5,1.8c-.1,.6,-.1,1.2,-.1,1.8Z" class="g1"/>
<path d="M490.8,1216.9v4.6c0,.6,0,1.2,.1,1.8c.1,.6,.3,1.1,.5,1.7h-2.8c.2,-.6,.3,-1.1,.5,-1.7c0,-.6,.1,-1.2,.1,-1.8v-4.6c0,-.6,-.1,-1.2,-.1,-1.8c-.2,-.6,-.3,-1.1,-.5,-1.8h2.8c-.2,.7,-.4,1.2,-.5,1.8c-.1,.6,-.1,1.2,-.1,1.8Z" class="g1"/>
<path d="M482.5,1216.9v6.5h1.3c.6,0,1.2,-.1,1.7,-.1c.7,-.2,1.2,-.3,1.8,-.5v2.2h-7c.2,-.6,.4,-1.1,.5,-1.7c.1,-.6,.1,-1.2,.1,-1.8v-4.6c0,-.6,0,-1.2,-.1,-1.8c-.1,-.6,-.3,-1.2,-.5,-1.8h2.8c-.2,.7,-.3,1.2,-.5,1.8c0,.6,-.1,1.2,-.1,1.8Z" class="g1"/>
<path d="M478.3,1224.9v.1H476c.2,-.4,.3,-.7,.3,-1.1c0,-.4,.1,-.7,.1,-.9v-3H471v3c.1,.7,.1,1.3,.2,2h-2.4c.2,-.6,.4,-1.1,.5,-1.7c.1,-.6,.1,-1.2,.1,-1.8v-2.9c0,-1.6,.5,-2.9,1.5,-3.9c1,-1,2.3,-1.5,4.1,-1.5c.4,0,.8,0,1.2,0c.6,.1,1.2,.2,1.8,.3v9.5c0,.2,0,.5,.1,.9c0,.4,.1,.7,.2,1m-1.9,-10c-.3,-.1,-.8,-.1,-1.3,-.1c-1.2,0,-2.1,.3,-2.9,1c-.7,.6,-1.1,1.4,-1.2,2.7h5.4Z" class="g1"/>
<path d="M462.7,1218.3c.7,.1,1.4,.1,2,.2h3v.9c0,3.8,-2.7,5.8,-5.5,5.8c-3.3,-.1,-5.9,-2.7,-5.9,-6c0,-3.6,3.2,-6.5,6.9,-6c1.4,.2,2.7,.9,3.7,2l-1,2c-.8,-1.4,-2,-2.3,-3.7,-2.3c-2.3,0,-4.2,1.9,-4.3,4.3c.1,2.4,2,4.3,4.3,4.3c2,0,3.6,-1.3,3.8,-3.5h-.6c-.4,0,-.8,0,-1.2,.1c-.5,0,-1,.2,-1.5,.4Z" class="g1"/>
<path d="M449.9,1218.1v2.3c-.4,-.2,-.7,-.3,-1.1,-.3c-.3,0,-.6,-.1,-.8,-.1h-2.2v3.4h2.9c.4,0,.8,-.1,1.1,-.1c.5,0,1,-.2,1.5,-.4v2.1h-7.7c.2,-.6,.3,-1.1,.5,-1.7c0,-.6,.1,-1.2,.1,-1.8v-4.6c0,-.6,-.1,-1.2,-.1,-1.8c-.2,-.6,-.3,-1.1,-.5,-1.8h7.7v2.2c-.5,-.2,-1,-.4,-1.5,-.4c-.3,-.1,-.7,-.1,-1.2,-.1h-2.8v3.5h2.1c.2,0,.5,-.1,.9,-.1c.6,0,1.1,-.3,1.1,-.3Z" class="g1"/>
<path d="M433.5,1223.3c.1,-.6,.1,-1.2,.1,-1.8v-4.6c0,-.6,0,-1.2,-.1,-1.8c-.1,-.6,-.3,-1.1,-.5,-1.8h3.6c3.1,.1,5.6,2.7,5.6,5.9c0,3.2,-2.5,5.8,-5.6,5.8H433c.2,-.6,.4,-1.1,.5,-1.7m1.8,.1h1.3c2.2,0,4,-1.9,4,-4.2c0,-2.3,-1.8,-4.2,-4,-4.2h-1.3Z" class="g1"/>
<path d="M498.7,1223.5c1.7,0,2.9,-.9,3.8,-2.3l.9,1.9c-1,1.1,-2.2,1.8,-3.7,2c-3.7,.5,-6.8,-2.3,-6.9,-5.9c.1,-3.6,3.2,-6.5,6.9,-6c1.5,.2,2.7,.9,3.7,2l-.9,2c-.9,-1.4,-2.1,-2.3,-3.8,-2.3c-2.3,0,-4.2,1.9,-4.2,4.3c0,2.4,1.9,4.3,4.2,4.3Z" class="g1"/>
<path d="M612.4,1233.8H547.3v-43.7h65.1v43.7Z" class="gc"/>
<path d="M567.4,1202.2l.6,1.7h1.7l-1.4,1.1l.5,1.6l-1.4,-1l-1.4,1l.5,-1.6l-1.4,-1.1h1.8Z" class="gd"/>
<path d="M572.5,1197.1l.6,1.6h1.7l-1.4,1.1l.6,1.7l-1.5,-1.1l-1.4,1.1l.5,-1.7l-1.4,-1.1H572Z" class="gd"/>
<path d="M579.8,1195.1l.5,1.7h1.8l-1.4,1l.5,1.7l-1.4,-1l-1.4,1l.5,-1.7l-1.4,-1h1.7Z" class="gd"/>
<path d="M587,1197.1l.5,1.6h1.8l-1.4,1.1l.5,1.7l-1.4,-1.1l-1.5,1.1l.6,-1.7l-1.4,-1.1h1.7Z" class="gd"/>
<path d="M592.3,1202.4l.5,1.6h1.8l-1.4,1.1l.5,1.7l-1.4,-1.1l-1.5,1.1l.6,-1.7L590,1204h1.7Z" class="gd"/>
<path d="M594.2,1209.6l.6,1.7h1.7l-1.4,1l.6,1.7l-1.5,-1l-1.4,1l.5,-1.7l-1.4,-1h1.8Z" class="gd"/>
<path d="M592.3,1216.9l.5,1.7h1.8l-1.5,1l.6,1.7l-1.4,-1l-1.5,1l.6,-1.7l-1.4,-1h1.7Z" class="gd"/>
<path d="M587,1222.2l.5,1.6h1.8l-1.4,1.1l.5,1.7l-1.4,-1.1l-1.5,1.1l.6,-1.7l-1.4,-1.1h1.7Z" class="gd"/>
<path d="M579.8,1224.1l.6,1.7h1.7l-1.4,1l.5,1.7l-1.4,-1l-1.4,1l.5,-1.7l-1.4,-1h1.8Z" class="gd"/>
<path d="M572.5,1222.1l.6,1.7h1.8l-1.5,1l.6,1.7l-1.5,-1l-1.4,1l.6,-1.7l-1.5,-1H572Z" class="gd"/>
<path d="M567.4,1216.9l.5,1.7h1.8l-1.5,1l.6,1.7l-1.4,-1.1l-1.5,1.1l.6,-1.7l-1.5,-1h1.8Z" class="gd"/>
<path d="M565.4,1209.5l.5,1.7h1.8l-1.4,1l.5,1.7l-1.4,-1l-1.5,1l.6,-1.7l-1.5,-1h1.8Z" class="gd"/>
<path d="M609.1,1240.6l.7,-2l.8,2Zm1.3,-3.3h-1.2l-2.1,5.5h1.2l.4,-1.2h2.2l.5,1.2h1.2Zm-3.7,5.5v-.9h-3.1v-1.5h2.8v-1h-2.8v-1.2h3v-.9h-4.1v5.5Zm-7.7,-4.6c.4,0,.7,0,.8,.1c.2,0,.3,.1,.4,.2c.2,.1,.2,.3,.2,.5c0,.2,0,.3,-.1,.4c-.1,.2,-.2,.2,-.4,.3c-.1,.1,-.4,.1,-.8,.1h-.7v-1.6Zm-.6,4.6v-2.1h.8c.5,0,.9,0,1.1,0c.2,-.1,.4,-.2,.6,-.3c.2,-.1,.4,-.3,.5,-.6c.1,-.2,.2,-.5,.2,-.8c0,-.5,-.1,-.8,-.4,-1.1c-.2,-.3,-.4,-.5,-.8,-.5c-.2,-.1,-.6,-.1,-1.3,-.1h-1.8v5.5Zm-5.7,-4.2c.2,-.3,.6,-.5,1.1,-.5c.4,0,.8,.2,1.1,.5c.3,.3,.4,.8,.4,1.4c0,.7,-.1,1.2,-.4,1.5c-.3,.3,-.7,.5,-1.1,.5c-.5,0,-.8,-.2,-1.1,-.5c-.3,-.3,-.5,-.8,-.5,-1.5c0,-.6,.2,-1.1,.5,-1.4m-.9,3.6c.5,.5,1.1,.7,2,.7c.8,0,1.4,-.2,1.9,-.7c.5,-.5,.8,-1.2,.8,-2.1c0,-.9,-.3,-1.6,-.8,-2.2c-.5,-.5,-1.1,-.7,-1.9,-.7c-.5,0,-.9,.1,-1.2,.2c-.3,.1,-.5,.3,-.8,.5c-.2,.2,-.3,.5,-.5,.8c-.1,.3,-.2,.8,-.2,1.4c0,.9,.2,1.6,.7,2.1m-5,-4h.9c.5,0,.7,0,.8,0c.2,.1,.4,.1,.5,.3c.1,.1,.1,.2,.1,.4c0,.2,0,.3,-.1,.4c-.1,.1,-.2,.2,-.3,.3c-.2,0,-.5,0,-1,0h-.9Zm0,4.6v-2.3h.3c.2,0,.4,0,.5,.1c.1,0,.3,.1,.4,.2c.1,.1,.3,.4,.6,.8l.8,1.2h1.3l-.7,-1.1c-.2,-.4,-.5,-.7,-.6,-.9c-.2,-.1,-.4,-.3,-.6,-.4c.5,-.1,.8,-.3,1.1,-.5c.2,-.3,.4,-.6,.4,-1.1c0,-.3,-.1,-.6,-.3,-.8c-.1,-.3,-.4,-.5,-.6,-.6c-.3,-.1,-.7,-.1,-1.3,-.1h-2.4v5.5Zm-6.7,-2.6c0,.7,.1,1.1,.1,1.4c.1,.3,.2,.5,.3,.7c.2,.2,.4,.3,.7,.4c.3,.2,.7,.2,1.2,.2c.4,0,.8,0,1.1,-.2c.2,-.1,.5,-.2,.6,-.4c.2,-.2,.3,-.4,.3,-.7c.1,-.3,.1,-.7,.1,-1.4v-2.9h-1.1v3c0,.5,0,.8,0,1c-.1,.2,-.2,.3,-.3,.5c-.2,.1,-.4,.2,-.7,.2c-.3,0,-.6,-.1,-.8,-.2c-.2,-.2,-.3,-.4,-.3,-.6c0,-.1,-.1,-.4,-.1,-.9v-3h-1.1Zm-.9,2.6v-.9h-3.1v-1.5h2.8v-1h-2.8v-1.2h3v-.9H575v5.5Zm-10.9,0v-3.6l2.2,3.6h1.1v-5.5h-1v3.7l-2.3,-3.7h-1.1v5.5Zm-4.6,-5.8l1,-1.2h-1.2l-.5,1.2Zm-1.1,1.6c.3,-.3,.6,-.5,1.1,-.5c.4,0,.8,.2,1.1,.5c.3,.3,.4,.8,.4,1.4c0,.7,-.1,1.2,-.4,1.5c-.3,.3,-.7,.5,-1.1,.5c-.5,0,-.8,-.2,-1.1,-.5c-.3,-.3,-.5,-.8,-.5,-1.5c0,-.6,.2,-1.1,.5,-1.4m-.9,3.6c.5,.5,1.2,.7,2,.7c.8,0,1.4,-.2,1.9,-.7c.5,-.5,.8,-1.2,.8,-2.1c0,-.9,-.3,-1.6,-.8,-2.2c-.5,-.5,-1.1,-.7,-1.9,-.7c-.5,0,-.9,.1,-1.2,.2c-.3,.1,-.5,.3,-.7,.5c-.3,.2,-.4,.5,-.6,.8c-.1,.3,-.2,.8,-.2,1.4c0,.9,.2,1.6,.7,2.1m-1.5,-4.9H559v5.5h1.2v-5.5Zm-5.7,5.5v-3.6l2.3,3.6h1.1v-5.5h-1v3.7l-2.3,-3.7h-1.1v5.5Zm-6.6,-2.6c0,.7,0,1.1,.1,1.4c.1,.3,.2,.5,.3,.7c.2,.2,.4,.3,.7,.4c.2,.2,.6,.2,1.2,.2c.4,0,.8,0,1,-.2c.3,-.1,.5,-.2,.7,-.4c.1,-.2,.3,-.4,.3,-.7c.1,-.3,.1,-.7,.1,-1.4v-2.9h-1.1v3c0,.5,0,.8,-.1,1c0,.2,-.1,.3,-.3,.5c-.1,.1,-.4,.2,-.7,.2c-.3,0,-.5,-.1,-.7,-.2c-.2,-.2,-.3,-.4,-.3,-.6c-.1,-.1,-.1,-.4,-.1,-.9v-3h-1.1Z" class="ge"/>
<path d="M612.4,1233.8H547.3v-43.7h65.1v43.7Z" class="gc"/>
<path d="M567.4,1202.2l.6,1.7h1.7l-1.4,1.1l.5,1.6l-1.4,-1l-1.4,1l.5,-1.6l-1.4,-1.1h1.8Z" class="gd"/>
<path d="M572.5,1197.1l.6,1.6h1.7l-1.4,1.1l.6,1.7l-1.5,-1.1l-1.4,1.1l.5,-1.7l-1.4,-1.1H572Z" class="gd"/>
<path d="M579.8,1195.1l.5,1.7h1.8l-1.4,1l.5,1.7l-1.4,-1l-1.4,1l.5,-1.7l-1.4,-1h1.7Z" class="gd"/>
<path d="M587,1197.1l.5,1.6h1.8l-1.4,1.1l.5,1.7l-1.4,-1.1l-1.5,1.1l.6,-1.7l-1.4,-1.1h1.7Z" class="gd"/>
<path d="M592.3,1202.4l.5,1.6h1.8l-1.4,1.1l.5,1.7l-1.4,-1.1l-1.5,1.1l.6,-1.7L590,1204h1.7Z" class="gd"/>
<path d="M594.2,1209.6l.6,1.7h1.7l-1.4,1l.6,1.7l-1.5,-1l-1.4,1l.5,-1.7l-1.4,-1h1.8Z" class="gd"/>
<path d="M592.3,1216.9l.5,1.7h1.8l-1.5,1l.6,1.7l-1.4,-1l-1.5,1l.6,-1.7l-1.4,-1h1.7Z" class="gd"/>
<path d="M587,1222.2l.5,1.6h1.8l-1.4,1.1l.5,1.7l-1.4,-1.1l-1.5,1.1l.6,-1.7l-1.4,-1.1h1.7Z" class="gd"/>
<path d="M579.8,1224.1l.6,1.7h1.7l-1.4,1l.5,1.7l-1.4,-1l-1.4,1l.5,-1.7l-1.4,-1h1.8Z" class="gd"/>
<path d="M572.5,1222.1l.6,1.7h1.8l-1.5,1l.6,1.7l-1.5,-1l-1.4,1l.6,-1.7l-1.5,-1H572Z" class="gd"/>
<path d="M567.4,1216.9l.5,1.7h1.8l-1.5,1l.6,1.7l-1.4,-1.1l-1.5,1.1l.6,-1.7l-1.5,-1h1.8Z" class="gd"/>
<path d="M565.4,1209.5l.5,1.7h1.8l-1.4,1l.5,1.7l-1.4,-1l-1.5,1l.6,-1.7l-1.5,-1h1.8Z" class="gd"/>
<path d="M609.1,1240.6l.7,-2l.8,2Zm1.3,-3.3h-1.2l-2.1,5.5h1.2l.4,-1.2h2.2l.5,1.2h1.2Zm-3.7,5.5v-.9h-3.1v-1.5h2.8v-1h-2.8v-1.2h3v-.9h-4.1v5.5Zm-7.7,-4.6c.4,0,.7,0,.8,.1c.2,0,.3,.1,.4,.2c.2,.1,.2,.3,.2,.5c0,.2,0,.3,-.1,.4c-.1,.2,-.2,.2,-.4,.3c-.1,.1,-.4,.1,-.8,.1h-.7v-1.6Zm-.6,4.6v-2.1h.8c.5,0,.9,0,1.1,0c.2,-.1,.4,-.2,.6,-.3c.2,-.1,.4,-.3,.5,-.6c.1,-.2,.2,-.5,.2,-.8c0,-.5,-.1,-.8,-.4,-1.1c-.2,-.3,-.4,-.5,-.8,-.5c-.2,-.1,-.6,-.1,-1.3,-.1h-1.8v5.5Zm-5.7,-4.2c.2,-.3,.6,-.5,1.1,-.5c.4,0,.8,.2,1.1,.5c.3,.3,.4,.8,.4,1.4c0,.7,-.1,1.2,-.4,1.5c-.3,.3,-.7,.5,-1.1,.5c-.5,0,-.8,-.2,-1.1,-.5c-.3,-.3,-.5,-.8,-.5,-1.5c0,-.6,.2,-1.1,.5,-1.4m-.9,3.6c.5,.5,1.1,.7,2,.7c.8,0,1.4,-.2,1.9,-.7c.5,-.5,.8,-1.2,.8,-2.1c0,-.9,-.3,-1.6,-.8,-2.2c-.5,-.5,-1.1,-.7,-1.9,-.7c-.5,0,-.9,.1,-1.2,.2c-.3,.1,-.5,.3,-.8,.5c-.2,.2,-.3,.5,-.5,.8c-.1,.3,-.2,.8,-.2,1.4c0,.9,.2,1.6,.7,2.1m-5,-4h.9c.5,0,.7,0,.8,0c.2,.1,.4,.1,.5,.3c.1,.1,.1,.2,.1,.4c0,.2,0,.3,-.1,.4c-.1,.1,-.2,.2,-.3,.3c-.2,0,-.5,0,-1,0h-.9Zm0,4.6v-2.3h.3c.2,0,.4,0,.5,.1c.1,0,.3,.1,.4,.2c.1,.1,.3,.4,.6,.8l.8,1.2h1.3l-.7,-1.1c-.2,-.4,-.5,-.7,-.6,-.9c-.2,-.1,-.4,-.3,-.6,-.4c.5,-.1,.8,-.3,1.1,-.5c.2,-.3,.4,-.6,.4,-1.1c0,-.3,-.1,-.6,-.3,-.8c-.1,-.3,-.4,-.5,-.6,-.6c-.3,-.1,-.7,-.1,-1.3,-.1h-2.4v5.5Zm-6.7,-2.6c0,.7,.1,1.1,.1,1.4c.1,.3,.2,.5,.3,.7c.2,.2,.4,.3,.7,.4c.3,.2,.7,.2,1.2,.2c.4,0,.8,0,1.1,-.2c.2,-.1,.5,-.2,.6,-.4c.2,-.2,.3,-.4,.3,-.7c.1,-.3,.1,-.7,.1,-1.4v-2.9h-1.1v3c0,.5,0,.8,0,1c-.1,.2,-.2,.3,-.3,.5c-.2,.1,-.4,.2,-.7,.2c-.3,0,-.6,-.1,-.8,-.2c-.2,-.2,-.3,-.4,-.3,-.6c0,-.1,-.1,-.4,-.1,-.9v-3h-1.1Zm-.9,2.6v-.9h-3.1v-1.5h2.8v-1h-2.8v-1.2h3v-.9H575v5.5Zm-10.9,0v-3.6l2.2,3.6h1.1v-5.5h-1v3.7l-2.3,-3.7h-1.1v5.5Zm-4.6,-5.8l1,-1.2h-1.2l-.5,1.2Zm-1.1,1.6c.3,-.3,.6,-.5,1.1,-.5c.4,0,.8,.2,1.1,.5c.3,.3,.4,.8,.4,1.4c0,.7,-.1,1.2,-.4,1.5c-.3,.3,-.7,.5,-1.1,.5c-.5,0,-.8,-.2,-1.1,-.5c-.3,-.3,-.5,-.8,-.5,-1.5c0,-.6,.2,-1.1,.5,-1.4m-.9,3.6c.5,.5,1.2,.7,2,.7c.8,0,1.4,-.2,1.9,-.7c.5,-.5,.8,-1.2,.8,-2.1c0,-.9,-.3,-1.6,-.8,-2.2c-.5,-.5,-1.1,-.7,-1.9,-.7c-.5,0,-.9,.1,-1.2,.2c-.3,.1,-.5,.3,-.7,.5c-.3,.2,-.4,.5,-.6,.8c-.1,.3,-.2,.8,-.2,1.4c0,.9,.2,1.6,.7,2.1m-1.5,-4.9H559v5.5h1.2v-5.5Zm-5.7,5.5v-3.6l2.3,3.6h1.1v-5.5h-1v3.7l-2.3,-3.7h-1.1v5.5Zm-6.6,-2.6c0,.7,0,1.1,.1,1.4c.1,.3,.2,.5,.3,.7c.2,.2,.4,.3,.7,.4c.2,.2,.6,.2,1.2,.2c.4,0,.8,0,1,-.2c.3,-.1,.5,-.2,.7,-.4c.1,-.2,.3,-.4,.3,-.7c.1,-.3,.1,-.7,.1,-1.4v-2.9h-1.1v3c0,.5,0,.8,-.1,1c0,.2,-.1,.3,-.3,.5c-.1,.1,-.4,.2,-.7,.2c-.3,0,-.5,-.1,-.7,-.2c-.2,-.2,-.3,-.4,-.3,-.6c-.1,-.1,-.1,-.4,-.1,-.9v-3h-1.1Z" class="g1"/>
<path d="M691.6,1211.4c-.6,0,-1.1,-.2,-1.5,-.6c-.4,-.4,-.6,-.9,-.6,-1.5c0,-.6,.2,-1.1,.6,-1.5c.5,-.4,1.2,-.8,2.2,-1.2l1.9,-.7v4.4c-.8,.7,-1.6,1.1,-2.6,1.1m5.5,-.8v-7.4c0,-.7,-.1,-1.1,-.1,-1.4c-.1,-.5,-.2,-.9,-.5,-1.4c-.3,-.4,-.5,-.8,-.9,-1c-.9,-.9,-2.3,-1,-3.8,-1c-2.3,0,-2.8,0,-4.2,0v2.2h4c1.6,0,2.5,1,2.6,2.6v1.1l-3.7,1.3c-1.3,.4,-2.2,1,-2.9,1.7c-.6,.8,-1,1.6,-1,2.5c0,1,.4,1.9,1,2.6c.7,.7,1.6,1,2.6,1c1.4,0,2.8,-.5,4,-1.5c0,.1,0,1.1,0,1.1h2.9v-2.4Z" class="g1"/>
<path d="M677.5,1207.4c-2.8,0,-3.9,-1.6,-3.9,-3.5c0,-2,1.2,-3.6,3.9,-3.6c2.8,0,3.8,1.6,3.8,3.6c0,1.9,-1.3,3.5,-3.8,3.5m7.9,-9h-5.7c-.7,-.2,-1.4,-.3,-2.2,-.3c-3.7,0,-6.7,2.3,-6.7,5.9c0,2.4,.9,3.7,2.2,4.5c-.5,.4,-1.8,1.4,-1.6,2.7c.1,1.6,.9,2,2.2,2.5c-.8,1.3,-2.9,4.4,-4.5,6.1c-1,1,-5.3,5.3,-9.9,6c-2.3,.4,-4.9,.2,-6.9,-.2v2.6c4.7,.7,8,.1,10.6,-1c2.7,-1.2,7.4,-4.9,9.7,-7.9c2.3,-3,3,-4.3,3.5,-4.7c.6,-.3,.9,-.6,2.6,-.5c1.3,0,2.2,.2,2.8,.6l2.5,-1.6c-.5,-.5,-1.1,-.9,-2,-1.1c-2.2,-.4,-4.1,-.3,-5,-.3c-1,.1,-2.7,0,-2.6,-1.1c0,-.8,.5,-1.2,.8,-1.3c.7,.1,1.4,.2,2.3,.2c4,0,6.6,-2.6,6.6,-5.7c0,-1.1,-.4,-2.3,-1.2,-3.2h2.5Z" class="g1"/>
<path d="M704.2,1200.6h-2v9.7c.8,.4,1.8,.6,2.7,.6c1.4,0,2.5,-.5,3.4,-1.5c.9,-.9,1.3,-2.1,1.3,-3.6c0,-1,-.2,-2.4,-.6,-3.1c-.4,-.7,-1,-1.3,-1.7,-1.6c-.7,-.3,-1.7,-.5,-3.1,-.5m-4.9,19.2v-21.4h5c2.6,0,4.6,.6,6.1,1.9c1.4,1.3,2.2,3.2,2.2,5.5c0,2.2,-.7,4,-2.1,5.4c-1.4,1.5,-3.1,2.2,-5.3,2.2c-.9,0,-1.9,-.2,-3,-.7v7.1Z" class="g1"/>
<path d="M665.9,1213h2.9v-14.6h-2.9V1213Z" class="g1"/>
<path d="M716.6,1204.3h7.3c-.1,-1.1,-.4,-2,-1.1,-2.6c-.6,-.7,-1.4,-1,-2.4,-1c-1,0,-1.9,.3,-2.5,1c-.7,.6,-1.1,1.5,-1.3,2.6m10.1,1.6H716.5c.1,1.5,.6,2.8,1.4,3.6c.9,.8,2,1.2,3.3,1.2c1.9,0,3.7,-.7,5.3,-1.9v2.8c-.9,.6,-1.8,1.2,-2.7,1.4c-.8,.3,-1.8,.4,-3,.4c-1.6,0,-2.9,-.3,-3.9,-1c-1,-.7,-1.8,-1.6,-2.4,-2.7c-.6,-1.1,-.9,-2.5,-.9,-4c0,-2.2,.7,-4,1.9,-5.4c1.3,-1.4,2.9,-2.1,4.9,-2.1c1.9,0,3.4,.7,4.6,2.1c1.1,1.3,1.7,3.1,1.7,5.4Z" class="g1"/>
<path d="M726.2,1213h6.6l7.5,-7.1l-7.5,-7.5h-6.6l7.5,7.5Z" class="gf"/>
<path d="M735.9,1213h6.6l7.5,-7.1l-7.5,-7.5h-6.6l7.5,7.5Z" class="gf"/>
</svg>