<?xml version="1.0" encoding="UTF-8" standalone="no"?>
<!DOCTYPE svg PUBLIC "-//W3C//DTD SVG 1.1//EN"
"http://www.w3.org/Graphics/SVG/1.1/DTD/svg11.dtd">
<svg viewBox="0 0 909 1286" version="1.1" xmlns="http://www.w3.org/2000/svg" xmlns:xlink="http://www.w3.org/1999/xlink">
<defs>
<clipPath id="c0_30"><path d="M324.8,50.2V0H431.1V50.2Z"/></clipPath>
<clipPath id="c1_30"><path d="M431,50.2V0H537.4V50.2Z"/></clipPath>
<clipPath id="c2_30"><path d="M537.3,50.2V0H643.8V50.2Z"/></clipPath>
<clipPath id="c3_30"><path d="M643.6,50.2V0H750.1V50.2Z"/></clipPath>
<clipPath id="c4_30"><path d="M749.9,50.2V0H856.4V42.2H834.3v8Z"/></clipPath>
<clipPath id="c5_30"><path d="M856.2,100.4v-45h12.2V42.2H856.2V0h53.2V100.4Z"/></clipPath>
<clipPath id="c6_30"><path d="M324.8,100.4V50H431.1v50.4Z"/></clipPath>
<clipPath id="c7_30"><path d="M749.9,100.4V50h84.4v5.4h22.1v45Z"/></clipPath>
<clipPath id="c8_30"><path d="M324.8,150.5V100.2H431.1v50.3Z"/></clipPath>
<clipPath id="c9_30"><path d="M856.2,200.7V100.2h53.2V200.7Z"/></clipPath>
<clipPath id="ca_30"><path d="M324.8,200.7V150.4H431.1v50.3Z"/></clipPath>
<clipPath id="cb_30"><path d="M324.8,250.8V200.5H431.1v50.3Z"/></clipPath>
<clipPath id="cc_30"><path d="M866.8,301V278.8H856.2V200.5h53.2V301Z"/></clipPath>
<clipPath id="cd_30"><path d="M324.8,301V250.7H431.1V301Z"/></clipPath>
<clipPath id="ce_30"><path d="M431,301V250.7H537.4v28.1H505.1V301Z"/></clipPath>
<clipPath id="cf_30"><path d="M537.3,278.8V250.7H643.8v28.1Z"/></clipPath>
<clipPath id="cg_30"><path d="M643.6,278.8V250.7H750.1v28.1Z"/></clipPath>
<clipPath id="ch_30"><path d="M749.9,278.8V250.7H856.4v28.1Z"/></clipPath>
<clipPath id="ci_30"><path d="M324.8,351V300.9H431.1V351Z"/></clipPath>
<clipPath id="cj_30"><path d="M431,351V300.9h74.1V351Z"/></clipPath>
<clipPath id="ck_30"><path d="M866.8,351V300.9h42.6V351Z"/></clipPath>
<clipPath id="cl_30"><path d="M834.3,55.4V42.2h34.1V55.4Z"/></clipPath>
<clipPath id="cm_30"><path d="M505.1,380v-5.2h88.1V380Zm0,-7.4V351h88.1v21.6Z"/></clipPath>
<clipPath id="cn_30"><path d="M505.1,315V278.8h88.1V315Z"/></clipPath>
<clipPath id="co_30"><path d="M505.1,351V314.9h88.1V351Z"/></clipPath>
<clipPath id="cp_30"><path d="M505.1,374.8v-2.2h88.1v2.2Z"/></clipPath>
<clipPath id="cq_30"><path d="M778.7,380v-5.2h87.4v-2.2h-11V351h11.7v29Z"/></clipPath>
<clipPath id="cr_30"><path d="M855.1,315v-5.2c0,-3.9,-1.2,-7.5,-3.3,-10.4v-2.7h-2.2c-3.3,-3.2,-7.8,-5.2,-12.8,-5.2H794.4c-5,0,-9.5,2,-12.8,5.2h-2.5v3.1c-.2,.2,-.3,.4,-.4,.6V278.8h88.1V315Z"/></clipPath>
<clipPath id="cs_30"><path d="M855.1,351V314.9h11.7V351Z"/></clipPath>
<clipPath id="ct_30"><path d="M855.1,374.8v-2.2h11v2.2Z"/></clipPath>
<clipPath id="cu_30"><path d="M779.1,299.8v-3.1h2.5c-1,1,-1.8,2,-2.5,3.1Zm72.7,-.4c-.6,-1,-1.4,-1.8,-2.2,-2.7h2.2v2.7Z"/></clipPath>
<clipPath id="cv_30"><path d="M690.6,380v-5.2h78.8V380ZM767,372.6V351h2.4v21.6Z"/></clipPath>
<clipPath id="cw_30"><path d="M767,315v-5.2c0,-10.1,-8.2,-18.3,-18.3,-18.3H706.3c-6.7,0,-12.5,3.6,-15.7,8.9V278.8h78.8V315Z"/></clipPath>
<clipPath id="cx_30"><path d="M767,351V314.9h2.4V351Z"/></clipPath>
<clipPath id="cy_30"><path d="M767,374.8v-2.2h2.4v2.2Z"/></clipPath>
<clipPath id="cz_30"><path d="M769.4,380v-5.2h9.3V380Zm0,-7.4V351h6.7v16.7H776v4.9Z"/></clipPath>
<clipPath id="c10_30"><path d="M769.4,351V278.8h9.3v21.6c-1.7,2.8,-2.6,6,-2.6,9.4V351Z"/></clipPath>
<clipPath id="c11_30"><path d="M769.4,374.8v-2.2H776v2.2Z"/></clipPath>
<clipPath id="c12_30"><path d="M776.1,367.7V309.8c0,-3.4,.9,-6.6,2.6,-9.4v67.3Z"/></clipPath>
<clipPath id="c13_30"><path d="M776,374.8v-7.1h2.7v7.1Z"/></clipPath>
<clipPath id="c14_30"><path d="M602.4,380v-5.2h78.9V380Zm0,-7.4V351h78.9v21.6Z"/></clipPath>
<clipPath id="c15_30"><path d="M602.4,315V278.8h78.9V315Z"/></clipPath>
<clipPath id="c16_30"><path d="M602.4,351V314.9h78.9V351Z"/></clipPath>
<clipPath id="c17_30"><path d="M602.4,374.8v-2.2h78.9v2.2Z"/></clipPath>
<clipPath id="c18_30"><path d="M593.2,380v-5.2h9.2V380Zm0,-7.4V351h9.2v21.6Z"/></clipPath>
<clipPath id="c19_30"><path d="M593.2,351V278.8h9.2V351Z"/></clipPath>
<clipPath id="c1a_30"><path d="M593.2,374.8v-2.2h9.2v2.2Z"/></clipPath>
<clipPath id="c1b_30"><path d="M681.3,380v-5.2h9.3V380Zm0,-7.4V351H688v16.7h-.1v4.9Z"/></clipPath>
<clipPath id="c1c_30"><path d="M681.3,351V278.8h9.3v21.6c-1.7,2.8,-2.6,6,-2.6,9.4V351Z"/></clipPath>
<clipPath id="c1d_30"><path d="M681.3,374.8v-2.2h6.6v2.2Z"/></clipPath>
<clipPath id="c1e_30"><path d="M688,367.7V309.8c0,-3.4,.9,-6.6,2.6,-9.4v67.3Z"/></clipPath>
<clipPath id="c1f_30"><path d="M687.9,374.8v-7.1h2.7v7.1Z"/></clipPath>
<style type="text/css"><![CDATA[
.g0_30{
fill: #E7E8E8;
}
.g1_30{
fill: #1B1661;
}
.g2_30{
fill: #DCDDDE;
}
.g3_30{
fill: #FFF;
}
.g4_30{
fill: #D1232A;
}
.g5_30{
fill: #CFCBCA;
}
.g6_30{
fill: #FCB61D;
}
.g7_30{
fill: #FEE6BB;
}
.g8_30{
fill: #5AC4C1;
}
.g9_30{
fill: #09B795;
}
.ga_30{
fill: #F37537;
}
.gb_30{
fill: #5180C1;
}
]]></style>
</defs>
<path d="M43.3,1241.8H303.1V971.2H43.3v270.6Z" class="g0_30"/>
<path d="M43.3,971.2H303.1v27.6H43.3V971.2Z" class="g1_30"/>
<path d="M43.3,998.8H303.1v47H43.3v-47Zm0,203.1H303.1v39.9H43.3v-39.9Z" class="g2_30"/>
<path d="M43.3,1046.2H303.1v-.8H43.3v.8Z" class="g3_30"/>
<path d="M43.3,1202.3H303.1v-.8H43.3v.8Z" class="g3_30"/>
<path d="M62.4,982.8l-1,-.7c-.2,-.1,-.6,-.1,-.8,.2l-4.7,6.9l-2.1,-2.1c-.2,-.3,-.6,-.3,-.8,0l-.9,.8c-.2,.2,-.2,.6,0,.8l3.4,3.3c.1,.2,.4,.3,.7,.3c.3,0,.5,-.1,.7,-.4l5.7,-8.3c.1,-.3,.1,-.6,-.2,-.8Z" class="g3_30"/>
<image clip-path="url(#c0_30)" preserveAspectRatio="none" x="325" y="0" width="106" height="50" xlink:href="img/1.jpg"/>
<image clip-path="url(#c1_30)" preserveAspectRatio="none" x="431" y="0" width="106" height="50" xlink:href="img/2.jpg"/>
<image clip-path="url(#c2_30)" preserveAspectRatio="none" x="537" y="0" width="107" height="50" xlink:href="img/3.jpg"/>
<image clip-path="url(#c3_30)" preserveAspectRatio="none" x="644" y="0" width="106" height="50" xlink:href="img/4.jpg"/>
<image clip-path="url(#c4_30)" preserveAspectRatio="none" x="750" y="0" width="106" height="50" xlink:href="img/5.jpg"/>
<image clip-path="url(#c5_30)" preserveAspectRatio="none" x="856" y="0" width="54" height="100" xlink:href="img/6.jpg"/>
<image clip-path="url(#c6_30)" preserveAspectRatio="none" x="325" y="50" width="106" height="50" xlink:href="img/7.jpg"/>
<image preserveAspectRatio="none" x="431" y="50" width="106" height="50" xlink:href="img/8.jpg"/>
<image preserveAspectRatio="none" x="537" y="50" width="107" height="50" xlink:href="img/9.jpg"/>
<image preserveAspectRatio="none" x="644" y="50" width="106" height="50" xlink:href="img/10.jpg"/>
<image clip-path="url(#c7_30)" preserveAspectRatio="none" x="750" y="50" width="106" height="50" xlink:href="img/11.jpg"/>
<image clip-path="url(#c8_30)" preserveAspectRatio="none" x="325" y="100" width="106" height="51" xlink:href="img/12.jpg"/>
<image preserveAspectRatio="none" x="431" y="100" width="106" height="51" xlink:href="img/13.jpg"/>
<image preserveAspectRatio="none" x="537" y="100" width="107" height="51" xlink:href="img/14.jpg"/>
<image preserveAspectRatio="none" x="644" y="100" width="106" height="51" xlink:href="img/15.jpg"/>
<image preserveAspectRatio="none" x="750" y="100" width="106" height="51" xlink:href="img/16.jpg"/>
<image clip-path="url(#c9_30)" preserveAspectRatio="none" x="856" y="100" width="54" height="101" xlink:href="img/17.jpg"/>
<image clip-path="url(#ca_30)" preserveAspectRatio="none" x="325" y="150" width="106" height="51" xlink:href="img/18.jpg"/>
<image preserveAspectRatio="none" x="431" y="150" width="106" height="51" xlink:href="img/19.jpg"/>
<image preserveAspectRatio="none" x="537" y="150" width="107" height="51" xlink:href="img/20.jpg"/>
<image preserveAspectRatio="none" x="644" y="150" width="106" height="51" xlink:href="img/21.jpg"/>
<image preserveAspectRatio="none" x="750" y="150" width="106" height="51" xlink:href="img/22.jpg"/>
<image clip-path="url(#cb_30)" preserveAspectRatio="none" x="325" y="201" width="106" height="50" xlink:href="img/23.jpg"/>
<image preserveAspectRatio="none" x="431" y="201" width="106" height="50" xlink:href="img/24.jpg"/>
<image preserveAspectRatio="none" x="537" y="201" width="107" height="50" xlink:href="img/25.jpg"/>
<image preserveAspectRatio="none" x="644" y="201" width="106" height="50" xlink:href="img/26.jpg"/>
<image preserveAspectRatio="none" x="750" y="201" width="106" height="50" xlink:href="img/27.jpg"/>
<image clip-path="url(#cc_30)" preserveAspectRatio="none" x="856" y="201" width="54" height="100" xlink:href="img/28.jpg"/>
<image clip-path="url(#cd_30)" preserveAspectRatio="none" x="325" y="251" width="106" height="50" xlink:href="img/29.jpg"/>
<image clip-path="url(#ce_30)" preserveAspectRatio="none" x="431" y="251" width="106" height="50" xlink:href="img/30.jpg"/>
<image clip-path="url(#cf_30)" preserveAspectRatio="none" x="537" y="251" width="107" height="50" xlink:href="img/31.jpg"/>
<image clip-path="url(#cg_30)" preserveAspectRatio="none" x="644" y="251" width="106" height="50" xlink:href="img/32.jpg"/>
<image clip-path="url(#ch_30)" preserveAspectRatio="none" x="750" y="251" width="106" height="50" xlink:href="img/33.jpg"/>
<image clip-path="url(#ci_30)" preserveAspectRatio="none" x="325" y="301" width="106" height="50" xlink:href="img/34.jpg"/>
<image clip-path="url(#cj_30)" preserveAspectRatio="none" x="431" y="301" width="106" height="50" xlink:href="img/35.jpg"/>
<image clip-path="url(#ck_30)" preserveAspectRatio="none" x="856" y="301" width="54" height="50" xlink:href="img/36.jpg"/>
<image clip-path="url(#cl_30)" preserveAspectRatio="none" x="834" y="42" width="35" height="14" xlink:href="img/37.jpg"/>
<path d="M607.1,886.8h-.8v355H866.1V886.1H606.3v.7h.8v.8H864.6v352.7H607.8V886.8h-.7v.8Z" class="g1_30"/>
<path d="M651.3,892.7H821.1V878.9H651.3Z" class="g3_30"/>
<path d="M607.1,624.8h-.8v53.4H866.1V624.1H606.3v.7h.8v.8H864.6v51.1H607.8V624.8h-.7v.8Z" class="g4_30"/>
<path d="M635.6,636.3v.7c.1,0,.2,0,.3,0h.2v-.7v.7c4.1,.1,7.7,.1,11.6,.2v-.7l-.1,.7c.8,.1,1.2,.3,1.3,.4c.2,.2,.3,.4,.3,.8l.7,-.1h-.7c0,.3,-.1,.6,-.4,.8c-.2,.2,-.5,.3,-.9,.4v.7v-.7c-.8,0,-2.1,0,-3.2,.1c-.6,0,-1.1,0,-1.5,0c-.4,0,-.7,0,-.7,0h-1.2l.6,1.1c.2,.4,.3,.7,.3,.9c0,.5,-.2,.8,-.7,1.2l-.6,.3l.3,.6c.2,.3,.3,.6,.3,1c0,.1,0,.3,-.1,.4c-.1,.4,-.3,.7,-.7,.9l-.7,.4l.4,.6c.2,.3,.3,.6,.3,.8c0,.2,-.1,.3,-.1,.5c-.2,.3,-.4,.5,-.5,.7c-.2,.1,-.5,.2,-.8,.2c-.6,0,-1.1,0,-1.7,0c-1.3,0,-2.7,0,-4,0h-.3c-.5,0,-1.1,0,-1.7,0h-.1c-.7,0,-1.3,-.2,-1.9,-.6c-.7,-.5,-1.4,-1,-2.1,-1.4c-.3,-.2,-.7,-.3,-1,-.3c-.8,0,-.9,0,-1,0c-.1,0,-.2,0,-.7,0h-.4l-.1,.1l.1,-.1l-.1,.1l.1,-.1l-.1,.2l.2,-.1l-.1,-.1l-.1,.2l.2,-.1h-.1h.1h-.1h.1v-.2h-.7h.7l-.1,-8.6h-.7l.7,.1v-.2l-.2,-.1l.1,.2l.1,-.1l-.2,-.1l.1,.2v-.1v.1v-.1v.1h.1c.8,0,1,0,1.2,0q.1,0,1.3,0c.2,0,.5,0,.9,-.1c.1,0,.3,0,.5,-.1l.3,-.2c.1,-.1,.3,-.3,.3,-.6c0,-.2,.1,-.5,.2,-.8c0,-.2,.1,-.3,.3,-.5c.1,-.1,.4,-.3,.7,-.4c.8,-.4,1.6,-.7,2.5,-1.2c1.2,-.7,2,-1.8,2.6,-2.9l.1,-.1h-.1h.1h-.1h.1l.2,.2l.4,-.6l-.5,.5c.6,.5,.7,.9,.9,1.8l.7,-.1h-.7v.1c0,.8,-.4,1.5,-1,2.3c-.1,.1,-.2,.2,-.3,.3l-1,1.2h1.6v-.7l.5,.4c.1,-.1,.2,-.2,.3,-.3c.7,-.8,1.3,-1.9,1.3,-3.2v-.3c-.2,-1,-.5,-1.8,-1.3,-2.5v-.1h-.1c-.3,-.2,-.6,-.4,-1.1,-.4c-.2,0,-.5,.1,-.7,.2c-.2,.2,-.4,.4,-.5,.6c-.6,1,-1.3,1.9,-2.1,2.4c-.8,.4,-1.6,.7,-2.4,1.1c-.3,.2,-.7,.3,-1,.6c-.4,.3,-.7,.7,-.8,1.3c-.1,.3,-.2,.6,-.2,1l.5,.1l-.4,-.5c0,.1,-.1,.2,-.1,.4l.5,.1l-.4,-.5l.3,.3l-.2,-.3h-.1l.3,.3l-.2,-.3c0,0,-.2,0,-.4,.1c-.1,0,-.3,0,-.4,0q-1.1,0,-1.3,0c-.2,0,-.4,0,-1.2,0c-.2,0,-.4,0,-.6,.1c-.2,0,-.5,.3,-.6,.6c-.2,.2,-.2,.4,-.2,.6v.1l.1,8.7c0,.3,0,.7,.3,1c.2,.2,.4,.3,.6,.4c.2,0,.4,0,.5,0h.3c.5,0,.6,0,.7,0c.1,0,.2,0,1,0h.2l.1,.1c.7,.4,1.3,.9,2,1.4c.8,.5,1.7,.8,2.7,.8h.2c.5,0,1.1,0,1.6,0h.3c1.3,0,2.7,0,4,0c.6,0,1.1,0,1.7,0c.6,0,1.1,-.1,1.6,-.5c.4,-.3,.7,-.7,1,-1.2c.1,-.3,.2,-.7,.2,-1.1c0,-.5,-.2,-1.1,-.5,-1.5l-.6,.3l.3,.7c.7,-.4,1.3,-1,1.5,-1.8c.1,-.3,.1,-.5,.1,-.8c0,-.6,-.1,-1.2,-.4,-1.7l-.6,.4l.3,.6c.9,-.6,1.4,-1.4,1.4,-2.4c0,-.5,-.2,-1.1,-.5,-1.6l-.6,.3v.8c.1,0,.3,-.1,.7,-.1c1.2,0,3.6,-.1,4.7,-.1h.1c.7,-.1,1.3,-.3,1.8,-.8c.5,-.4,.8,-1.1,.8,-1.8v-.2c-.1,-.4,-.2,-.9,-.6,-1.4c-.5,-.5,-1.2,-.8,-2.2,-.9h-.1c-3.9,-.1,-7.5,-.2,-11.5,-.2h-.3c-.1,0,-.2,0,-.3,0v.7l.5,.4Z" class="g4_30"/>
<path d="M622.9,637.7h.7c0,-.3,0,-.5,-.1,-.7v-.2l-.1,-.1c-.2,-.4,-.4,-.7,-.8,-1c-.4,-.3,-.9,-.5,-1.5,-.5v.7v-.7c-.8,0,-1.3,0,-1.9,0c-.7,0,-1.3,0,-2,0c-.4,0,-.8,0,-1.3,0c-.6,0,-1.2,.2,-1.6,.6c-.5,.4,-.6,1,-.6,1.6v.3c.3,3.2,.7,6.3,1,9.5c0,.5,.1,.9,.4,1.3c.2,.5,.6,.8,1,1.1h.2c.4,.1,.8,.2,1.2,.2v-.2v.2v-.2v.2c.5,0,.9,0,1.3,0c.3,0,.7,0,1,0c.3,0,.7,0,1.1,0c.6,0,1.2,-.1,1.7,-.5c.5,-.3,.7,-.9,.9,-1.5l-.7,-.2l.5,.5q.2,-.2,.2,-.3l.1,-.2c0,-.1,0,-.3,0,-.6c0,-.9,0,-2.5,0,-4.1c0,-1.7,0,-3.4,0,-4.7c0,-.2,0,-.3,0,-.5h-1.4c0,.2,0,.3,0,.5c0,1.3,0,3,0,4.7c0,1.2,0,2.4,0,3.2c0,.5,0,.8,0,1l-.1,.3l.3,.1l-.3,-.1l.3,.1l-.3,-.1l.6,.2l-.5,-.3l-.1,.1l.6,.2l-.5,-.3l.6,.3l-.5,-.5l-.1,.2l.6,.3l-.5,-.5l-.1,.1v.2c-.2,.5,-.4,.7,-.5,.8c-.1,.1,-.3,.1,-.8,.1c-.4,0,-.8,0,-1.1,0c-.3,0,-.7,0,-1,0c-.4,0,-.8,0,-1.3,0v.8v-.8c-.3,0,-.6,0,-.8,0l-.2,.6l.3,-.6c-.2,-.1,-.4,-.3,-.5,-.5c-.1,-.2,-.2,-.4,-.2,-.8c-.3,-3.1,-.7,-6.3,-1,-9.4v-.2c0,-.4,.1,-.5,.2,-.6c0,-.1,.2,-.2,.6,-.2c.5,0,.9,0,1.3,0c.7,0,1.3,0,2,0c.6,0,1.2,0,1.9,0c.3,0,.4,.1,.6,.2c.2,.1,.3,.3,.5,.6l.6,-.3l-.7,.1c.1,.2,.1,.4,.1,.5Zm-1.8,8.6h-.7v.1c0,.2,-.2,.3,-.3,.3H620c-.1,0,-.3,-.1,-.3,-.3v-.1l.1,-.2l.2,-.1c.2,0,.4,.1,.4,.3h1.4c0,-.9,-.8,-1.7,-1.8,-1.7c-1,0,-1.7,.8,-1.7,1.7v.1c0,1,.8,1.7,1.7,1.7h.1c1,0,1.7,-.8,1.7,-1.7v-.1Z" class="g4_30"/>
<path d="M324.8,1241.8H584.6V1076.9H324.8v164.9Z" class="g0_30"/>
<path d="M324.8,1076.9H584.6v26.2H324.8v-26.2Z" class="g1_30"/>
<path d="M324.8,1127.9H511.6v24.8H324.8v-24.8Zm186.8,0h73v24.8h-73v-24.8Zm-186.8,65.6H511.6v24.7H324.8v-24.7Zm186.8,0h73v24.7h-73v-24.7Z" class="g2_30"/>
<path d="M324.8,1219H511.6v-1.5H324.8Z" class="g3_30"/>
<path d="M511.6,1219h73v-1.5h-73Z" class="g3_30"/>
<path d="M343.9,1087.1l-1,-.7c-.2,-.1,-.6,-.1,-.8,.2l-4.7,6.9l-2.1,-2.1c-.3,-.3,-.6,-.3,-.8,0l-.9,.8c-.2,.2,-.2,.6,0,.8l3.4,3.3c.1,.2,.4,.4,.7,.4c.3,0,.5,-.2,.7,-.5l5.7,-8.3c.1,-.3,.1,-.6,-.2,-.8Z" class="g3_30"/>
<path d="M43.3,937.7H303.2v-1.6H43.3Z" class="g5_30"/>
<path d="M303.2,337.1V316.7h-.8v20.4Z" class="g3_30"/>
<path d="M303.2,361.9V337.1h-.8v24.8Z" class="g3_30"/>
<path d="M173.6,383.2V361.9h-.8v21.3Z" class="g3_30"/>
<path d="M238.4,383.2V361.9h-.8v21.3Z" class="g3_30"/>
<path d="M303.2,383.2V361.9h-.8v21.3Z" class="g3_30"/>
<path d="M173.6,404.4V383.2h-.8v21.2Z" class="g3_30"/>
<path d="M238.4,404.4V383.2h-.8v21.2Z" class="g3_30"/>
<path d="M303.2,404.4V383.2h-.8v21.2Z" class="g3_30"/>
<path d="M173.6,425.7V404.4h-.8v21.3Z" class="g3_30"/>
<path d="M238.4,425.7V404.4h-.8v21.3Z" class="g3_30"/>
<path d="M303.2,425.7V404.4h-.8v21.3Z" class="g3_30"/>
<path d="M173.6,447V425.7h-.8V447Z" class="g3_30"/>
<path d="M238.4,447V425.7h-.8V447Z" class="g3_30"/>
<path d="M303.2,447V425.7h-.8V447Z" class="g3_30"/>
<path d="M173.6,468.2V447h-.8v21.2Z" class="g3_30"/>
<path d="M238.4,468.2V447h-.8v21.2Z" class="g3_30"/>
<path d="M303.2,468.2V447h-.8v21.2Z" class="g3_30"/>
<path d="M173.6,489.5V468.2h-.8v21.3Z" class="g3_30"/>
<path d="M238.4,489.5V468.2h-.8v21.3Z" class="g3_30"/>
<path d="M303.2,489.5V468.2h-.8v21.3Z" class="g3_30"/>
<path d="M173.6,510.8V489.5h-.8v21.3Z" class="g3_30"/>
<path d="M238.4,510.8V489.5h-.8v21.3Z" class="g3_30"/>
<path d="M303.2,510.8V489.5h-.8v21.3Z" class="g3_30"/>
<path d="M173.6,532V510.8h-.8V532Z" class="g3_30"/>
<path d="M238.4,532V510.8h-.8V532Z" class="g3_30"/>
<path d="M303.2,532V510.8h-.8V532Z" class="g3_30"/>
<path d="M173.6,553.3V532h-.8v21.3Z" class="g3_30"/>
<path d="M238.4,553.3V532h-.8v21.3Z" class="g3_30"/>
<path d="M303.2,553.3V532h-.8v21.3Z" class="g3_30"/>
<path d="M173.6,574.6V553.3h-.8v21.3Z" class="g3_30"/>
<path d="M238.4,574.6V553.3h-.8v21.3Z" class="g3_30"/>
<path d="M303.2,574.6V553.3h-.8v21.3Z" class="g3_30"/>
<path d="M173.6,595.8V574.6h-.8v21.2Z" class="g3_30"/>
<path d="M238.4,595.8V574.6h-.8v21.2Z" class="g3_30"/>
<path d="M303.2,595.8V574.6h-.8v21.2Z" class="g3_30"/>
<path d="M173.6,617.1V595.8h-.8v21.3Z" class="g3_30"/>
<path d="M238.4,617.1V595.8h-.8v21.3Z" class="g3_30"/>
<path d="M303.2,617.1V595.8h-.8v21.3Z" class="g3_30"/>
<path d="M78,337.8h95.2v-1.5H78Z" class="g6_30"/>
<path d="M173.2,337.8H238v-1.5H173.2Z" class="g6_30"/>
<path d="M238,337.8h64.4v-1.5H238Z" class="g6_30"/>
<path d="M61.2,355.6c9.8,0,17.8,-8,17.8,-17.8c0,-9.9,-8,-17.9,-17.8,-17.9c-9.9,0,-17.9,8,-17.9,17.9c0,9.8,8,17.8,17.9,17.8Z" class="g6_30"/>
<path d="M71.6,339.6c0,.7,.2,1.4,.2,2.1c0,2.1,-1,3.6,-2.7,4.7c-1.3,.9,-2.8,1.3,-4.3,1.3c-2.4,0,-4.8,0,-7.2,0c-1.7,0,-3.2,-.4,-4.5,-1.4c-2,-1.4,-2.8,-3.2,-2.5,-5.6c.2,-2,.3,-3.9,.4,-5.9c0,-1.8,0,-3.6,-.1,-5.4c0,-2.1,.9,-3.8,2.5,-5c1.5,-1.1,3.2,-1.5,5,-1.6c1.9,0,3.8,0,5.7,0c1.6,.1,3.2,.5,4.6,1.5c1.9,1.3,2.9,3.2,2.7,5.6c-.1,1.2,0,2.4,0,3.6c-.1,0,.1,4,.2,6.1M61.2,324.1V324c-1,0,-1.9,0,-2.9,0c-1.3,0,-2.5,.3,-3.6,1c-1.6,1,-2.7,2.3,-2.6,4.2c.1,.8,.3,1.7,.6,2.5c.4,1.3,1.1,2.6,2.2,3.5c.2,.3,.2,.6,-.1,.9c-.6,.6,-1.3,1.2,-2.1,1.5c-.6,.2,-.7,.5,-.7,1c-.1,.5,.1,.9,.4,1.2c.8,.8,1.7,1.4,2.7,1.8c1.8,.7,3.7,1,5.6,1c2,.1,4.1,-.1,6,-.8c1.4,-.5,2.6,-1.2,3.5,-2.3c0,-.1,.1,-.3,.1,-.4c0,-.4,0,-.7,0,-1.1l-.2,-.2c-1,-.4,-1.9,-1,-2.6,-1.7c-.3,-.3,-.3,-.6,0,-1c.4,-.4,.9,-.9,1.2,-1.4c.8,-1.2,1.2,-2.6,1.4,-4c.2,-1.2,0,-2.2,-.7,-3.2c-1.2,-1.5,-2.8,-2.2,-4.7,-2.4c-1.1,-.1,-2.3,0,-3.5,0m-9.4,16.5c-.3,1.6,0,3,1.3,4.2c1.3,1.2,2.8,1.7,4.6,1.7c2.3,0,4.6,0,6.9,0c.8,0,1.6,-.1,2.4,-.4c1.4,-.5,2.5,-1.2,3.2,-2.6c.5,-1,.5,-1.9,.3,-3l-.1,.1c-1.1,1.4,-2.6,2.2,-4.3,2.6c-2.9,.8,-5.7,.8,-8.6,.3c-1.4,-.2,-2.8,-.7,-3.9,-1.5c-.7,-.4,-1.2,-.9,-1.8,-1.4Z" class="g7_30"/>
<path d="M55.8,348.1c-.5,.4,-1,.8,-1.5,1.1c-.5,.4,-1.7,1.4,-2.2,1.8c-.3,.2,-.6,.2,-.8,.2l-.3,-.4c-.1,-.2,0,-.5,.2,-.6c.3,-.3,1.4,-1.1,1.7,-1.4c.4,-.3,.9,-.7,1.3,-1l.4,-.1c.4,.1,.8,.3,1.2,.4Z" class="g7_30"/>
<path d="M66.5,348.1c.5,-.2,.9,-.3,1.3,-.4l.3,.1c.7,.6,2.3,1.8,3,2.3c.1,.1,.3,.3,.3,.4c.1,.2,.1,.5,-.2,.6c-.2,.1,-.5,.1,-.7,0c-1.1,-.7,-2.9,-2.2,-4,-3Z" class="g7_30"/>
<path d="M61.1,334.7c-1.1,0,-2.1,.1,-3.2,0c-2,-.1,-3.5,-1.6,-3.9,-3.5c-.1,-.5,-.2,-1,-.3,-1.5c-.3,-1.9,1,-3.5,3,-3.5c3,-.1,6,-.1,9,0c1.8,0,3.1,1.4,2.9,3.3c-.1,1,-.2,2.1,-.8,3.1c-.9,1.4,-2.2,2.2,-3.9,2.2c-.9,0,-1.8,0,-2.8,0Z" class="g7_30"/>
<path d="M65.7,337.4c.3,0,.5,0,.8,0c.4,0,.7,.3,.6,.7c-.5,.8,-1,1.7,-1.5,2.5c-.1,.2,-.3,.3,-.6,.3c-.5,0,-1.1,0,-1.6,0c-.5,0,-.7,-.3,-.5,-.7c.4,-.8,.9,-1.6,1.4,-2.5c.1,-.2,.3,-.3,.7,-.3c.2,0,.5,0,.7,0Z" class="g7_30"/>
<path d="M58.1,340.9c-.2,0,-.5,0,-.7,0c-.3,0,-.6,-.1,-.7,-.3c-.5,-.8,-.9,-1.7,-1.4,-2.5c-.2,-.4,0,-.7,.6,-.7c.5,0,1,0,1.5,0c.3,0,.5,.1,.6,.4c.5,.8,1,1.6,1.5,2.4c.2,.4,-.1,.7,-.6,.7c-.2,0,-.5,0,-.8,0Z" class="g7_30"/>
<path d="M62.2,345.2c0,.6,-.5,1.1,-1,1.1c-.6,0,-1.1,-.5,-1.1,-1.1c0,-.5,.5,-1,1,-1c.6,0,1.1,.5,1.1,1Z" class="g7_30"/>
<path d="M303.2,646.2V625.8h-.8v20.4Z" class="g3_30"/>
<path d="M303.2,671V646.2h-.8V671Z" class="g3_30"/>
<path d="M173.6,692.7V671h-.8v21.7Z" class="g3_30"/>
<path d="M238.4,692.7V671h-.8v21.7Z" class="g3_30"/>
<path d="M303.2,692.7V671h-.8v21.7Z" class="g3_30"/>
<path d="M173.6,714.4V692.7h-.8v21.7Z" class="g3_30"/>
<path d="M238.4,714.4V692.7h-.8v21.7Z" class="g3_30"/>
<path d="M303.2,714.4V692.7h-.8v21.7Z" class="g3_30"/>
<path d="M173.6,736.1V714.4h-.8v21.7Z" class="g3_30"/>
<path d="M238.4,736.1V714.4h-.8v21.7Z" class="g3_30"/>
<path d="M303.2,736.1V714.4h-.8v21.7Z" class="g3_30"/>
<path d="M173.6,757.8V736.1h-.8v21.7Z" class="g3_30"/>
<path d="M238.4,757.8V736.1h-.8v21.7Z" class="g3_30"/>
<path d="M303.2,757.8V736.1h-.8v21.7Z" class="g3_30"/>
<path d="M173.6,779.5V757.8h-.8v21.7Z" class="g3_30"/>
<path d="M238.4,779.5V757.8h-.8v21.7Z" class="g3_30"/>
<path d="M303.2,779.5V757.8h-.8v21.7Z" class="g3_30"/>
<path d="M173.6,801.2V779.5h-.8v21.7Z" class="g3_30"/>
<path d="M238.4,801.2V779.5h-.8v21.7Z" class="g3_30"/>
<path d="M303.2,801.2V779.5h-.8v21.7Z" class="g3_30"/>
<path d="M173.6,822.9V801.2h-.8v21.7Z" class="g3_30"/>
<path d="M238.4,822.9V801.2h-.8v21.7Z" class="g3_30"/>
<path d="M303.2,822.9V801.2h-.8v21.7Z" class="g3_30"/>
<path d="M173.6,844.6V822.9h-.8v21.7Z" class="g3_30"/>
<path d="M238.4,844.6V822.9h-.8v21.7Z" class="g3_30"/>
<path d="M303.2,844.6V822.9h-.8v21.7Z" class="g3_30"/>
<path d="M173.6,866.3V844.6h-.8v21.7Z" class="g3_30"/>
<path d="M238.4,866.3V844.6h-.8v21.7Z" class="g3_30"/>
<path d="M303.2,866.3V844.6h-.8v21.7Z" class="g3_30"/>
<path d="M173.6,888V866.3h-.8V888Z" class="g3_30"/>
<path d="M238.4,888V866.3h-.8V888Z" class="g3_30"/>
<path d="M303.2,888V866.3h-.8V888Z" class="g3_30"/>
<path d="M173.6,909.7V888h-.8v21.7Z" class="g3_30"/>
<path d="M238.4,909.7V888h-.8v21.7Z" class="g3_30"/>
<path d="M303.2,909.7V888h-.8v21.7Z" class="g3_30"/>
<path d="M173.6,931.4V909.7h-.8v21.7Z" class="g3_30"/>
<path d="M238.4,931.4V909.7h-.8v21.7Z" class="g3_30"/>
<path d="M303.2,931.4V909.7h-.8v21.7Z" class="g3_30"/>
<path d="M78,646.9h95.2v-1.5H78Z" class="g6_30"/>
<path d="M173.2,646.9H238v-1.5H173.2Z" class="g6_30"/>
<path d="M238,646.9h64.4v-1.5H238Z" class="g6_30"/>
<path d="M61.2,664.7c9.8,0,17.8,-8,17.8,-17.9C79,637,71,629,61.2,629c-9.9,0,-17.9,8,-17.9,17.8c0,9.9,8,17.9,17.9,17.9Z" class="g6_30"/>
<path d="M71.6,648.6c0,.8,.2,1.5,.2,2.2c0,2,-1,3.6,-2.7,4.7c-1.3,.8,-2.8,1.2,-4.3,1.3c-2.4,0,-4.8,0,-7.2,0c-1.7,-.1,-3.2,-.5,-4.5,-1.4c-2,-1.4,-2.8,-3.2,-2.5,-5.6c.2,-2,.3,-3.9,.4,-5.9c0,-1.8,0,-3.6,-.1,-5.5c0,-2.1,.9,-3.7,2.5,-4.9c1.5,-1.1,3.2,-1.6,5,-1.6c1.9,0,3.8,0,5.7,0c1.6,0,3.2,.5,4.6,1.4c1.9,1.4,2.9,3.2,2.7,5.6c-.1,1.2,0,2.4,0,3.6c-.1,0,.1,4.1,.2,6.1M61.2,633.1v0c-1,0,-1.9,0,-2.9,0c-1.3,0,-2.5,.3,-3.6,1c-1.6,.9,-2.7,2.2,-2.6,4.1c.1,.9,.3,1.8,.6,2.6c.4,1.3,1.1,2.6,2.2,3.5c.2,.2,.2,.6,-.1,.9c-.6,.6,-1.3,1.2,-2.1,1.5c-.6,.1,-.7,.5,-.7,1c-.1,.5,.1,.8,.4,1.2c.8,.8,1.7,1.3,2.7,1.8c1.8,.7,3.7,1,5.6,1c2,0,4.1,-.1,6,-.8c1.4,-.5,2.6,-1.2,3.5,-2.3c0,-.2,.1,-.3,.1,-.5c0,-.3,0,-.7,0,-1l-.2,-.3c-1,-.3,-1.9,-.9,-2.6,-1.6c-.3,-.3,-.3,-.7,0,-1c.4,-.4,.9,-.9,1.2,-1.5c.8,-1.2,1.2,-2.5,1.4,-3.9c.2,-1.2,0,-2.3,-.7,-3.2c-1.2,-1.5,-2.8,-2.3,-4.7,-2.4c-1.1,-.1,-2.3,-.1,-3.5,-.1m-9.4,16.6c-.3,1.6,0,3,1.3,4.2c1.3,1.2,2.8,1.6,4.6,1.7c2.3,0,4.6,0,6.9,0c.8,0,1.6,-.1,2.4,-.4c1.4,-.5,2.5,-1.3,3.2,-2.6c.5,-1,.5,-2,.3,-3h-.1c-1.1,1.4,-2.6,2.2,-4.3,2.7c-2.9,.8,-5.7,.8,-8.6,.3c-1.4,-.3,-2.8,-.7,-3.9,-1.5c-.7,-.4,-1.2,-1,-1.8,-1.4Z" class="g7_30"/>
<path d="M55.8,657.2c-.5,.4,-1,.7,-1.5,1.1c-.5,.4,-1.7,1.4,-2.2,1.8c-.3,.2,-.6,.2,-.8,.1l-.3,-.3c-.1,-.3,0,-.5,.2,-.6c.3,-.3,1.4,-1.2,1.7,-1.4c.4,-.4,.9,-.7,1.3,-1l.4,-.1c.4,.1,.8,.2,1.2,.4Z" class="g7_30"/>
<path d="M66.5,657.2c.5,-.2,.9,-.3,1.3,-.4l.3,.1c.7,.5,2.3,1.7,3,2.3c.1,.1,.3,.2,.3,.4c.1,.2,.1,.5,-.2,.6c-.2,.1,-.5,.1,-.7,0c-1.1,-.8,-2.9,-2.2,-4,-3Z" class="g7_30"/>
<path d="M61.1,643.8c-1.1,0,-2.1,.1,-3.2,0c-2,-.2,-3.5,-1.6,-3.9,-3.5c-.1,-.5,-.2,-1,-.3,-1.5c-.3,-1.9,1,-3.6,3,-3.6c3,0,6,0,9,0c1.8,0,3.1,1.5,2.9,3.4c-.1,1,-.2,2.1,-.8,3.1c-.9,1.4,-2.2,2.1,-3.9,2.1c-.9,0,-1.8,0,-2.8,0Z" class="g7_30"/>
<path d="M65.7,646.5c.3,0,.5,0,.8,0c.4,0,.7,.3,.6,.6c-.5,.9,-1,1.7,-1.5,2.6c-.1,.2,-.3,.3,-.6,.3c-.5,0,-1.1,0,-1.6,0c-.5,0,-.7,-.3,-.5,-.7c.4,-.8,.9,-1.6,1.4,-2.5c.1,-.2,.3,-.3,.7,-.3c.2,0,.5,0,.7,0Z" class="g7_30"/>
<path d="M58.1,650c-.2,0,-.5,0,-.7,0c-.3,0,-.6,-.1,-.7,-.4c-.5,-.8,-.9,-1.6,-1.4,-2.4c-.2,-.4,0,-.7,.6,-.7c.5,0,1,0,1.5,0c.3,0,.5,.1,.6,.3c.5,.9,1,1.7,1.5,2.5c.2,.3,-.1,.6,-.6,.7c-.2,0,-.5,0,-.8,0Z" class="g7_30"/>
<path d="M62.2,654.3c0,.6,-.5,1,-1,1c-.6,0,-1.1,-.4,-1.1,-1c0,-.5,.5,-1,1,-1c.6,-.1,1.1,.4,1.1,1Z" class="g7_30"/>
<path d="M228.9,316.8v-100h-3.1v100Z" class="g3_30"/>
<path d="M43.3,161.2H78v40.4H43.3V161.2Z" class="g3_30"/>
<image x="77" y="161" width="226" height="41" xlink:href="shade/1.png"/>
<path d="M78,182.3H302.8v-1.5H78Z" class="g6_30"/>
<path d="M61.2,200.1c9.8,0,17.8,-8,17.8,-17.8c0,-9.9,-8,-17.9,-17.8,-17.9c-9.9,0,-17.9,8,-17.9,17.9c0,9.8,8,17.8,17.9,17.8Z" class="g6_30"/>
<path d="M71.6,184c0,.8,.2,1.5,.2,2.2c0,2.1,-1,3.6,-2.7,4.7c-1.3,.9,-2.8,1.3,-4.3,1.3c-2.4,0,-4.8,0,-7.2,0c-1.7,0,-3.2,-.5,-4.5,-1.4c-2,-1.4,-2.8,-3.2,-2.5,-5.6c.2,-2,.3,-3.9,.4,-5.9c0,-1.8,0,-3.6,-.1,-5.4c0,-2.1,.9,-3.8,2.5,-5c1.5,-1.1,3.2,-1.6,5,-1.6c1.9,0,3.8,0,5.7,0c1.6,.1,3.2,.5,4.6,1.4c1.9,1.4,2.9,3.3,2.7,5.7c-.1,1.2,0,2.4,0,3.6c-.1,0,.1,4,.2,6M61.2,168.6v-.1c-1,0,-1.9,0,-2.9,0c-1.3,0,-2.5,.3,-3.6,1c-1.6,1,-2.7,2.3,-2.6,4.2c.1,.8,.3,1.7,.6,2.5c.4,1.3,1.1,2.6,2.2,3.5c.2,.3,.2,.6,-.1,.9c-.6,.6,-1.3,1.2,-2.1,1.5c-.6,.2,-.7,.5,-.7,1c-.1,.5,.1,.8,.4,1.2c.8,.8,1.7,1.4,2.7,1.8c1.8,.7,3.7,1,5.6,1c2,.1,4.1,-.1,6,-.8c1.4,-.5,2.6,-1.2,3.5,-2.3c0,-.1,.1,-.3,.1,-.4c0,-.4,0,-.7,0,-1.1l-.2,-.2c-1.1,-.4,-1.9,-1,-2.6,-1.7c-.3,-.3,-.3,-.6,0,-1c.4,-.4,.9,-.9,1.2,-1.4c.8,-1.3,1.2,-2.6,1.4,-4c.2,-1.2,0,-2.2,-.7,-3.2c-1.2,-1.5,-2.8,-2.2,-4.7,-2.4c-1.1,-.1,-2.3,0,-3.5,0m-9.4,16.5c-.3,1.6,0,3,1.3,4.2c1.3,1.2,2.8,1.7,4.6,1.7c2.3,0,4.6,0,6.9,0c.8,0,1.6,-.1,2.4,-.4c1.4,-.5,2.5,-1.3,3.2,-2.6c.5,-1,.5,-2,.3,-3l-.1,.1c-1.1,1.4,-2.6,2.2,-4.3,2.6c-2.9,.8,-5.7,.8,-8.6,.3c-1.4,-.2,-2.8,-.7,-3.9,-1.5c-.7,-.4,-1.2,-.9,-1.8,-1.4Z" class="g7_30"/>
<path d="M55.8,192.6c-.5,.4,-1,.8,-1.5,1.1c-.5,.4,-1.7,1.4,-2.2,1.8c-.3,.2,-.6,.2,-.8,.1l-.3,-.3c-.1,-.2,0,-.5,.2,-.6c.3,-.3,1.4,-1.2,1.7,-1.4c.4,-.3,.9,-.7,1.3,-1l.4,-.1c.4,.1,.8,.3,1.2,.4Z" class="g7_30"/>
<path d="M66.5,192.6c.5,-.2,.9,-.3,1.3,-.4l.3,.1c.7,.6,2.3,1.8,3,2.3c.1,.1,.3,.3,.3,.4c.1,.2,.1,.5,-.2,.6c-.2,.1,-.5,.1,-.7,0c-1.1,-.7,-2.9,-2.2,-4,-3Z" class="g7_30"/>
<path d="M61.1,179.2c-1.1,0,-2.1,.1,-3.2,0c-2,-.1,-3.5,-1.6,-3.9,-3.5c-.1,-.5,-.2,-1,-.3,-1.5c-.3,-1.9,1,-3.6,3,-3.6c3,0,6,0,9,0c1.8,.1,3.1,1.5,2.9,3.4c-.1,1,-.2,2.1,-.8,3.1c-.9,1.4,-2.2,2.2,-3.9,2.1c-.9,0,-1.8,0,-2.8,0Z" class="g7_30"/>
<path d="M65.7,181.9c.3,0,.5,0,.8,0c.4,0,.7,.3,.6,.6c-.5,.9,-1,1.8,-1.5,2.6c-.1,.2,-.3,.3,-.6,.3c-.5,0,-1.1,0,-1.6,0c-.5,0,-.7,-.3,-.5,-.7c.4,-.8,.9,-1.6,1.4,-2.5c.1,-.2,.3,-.3,.7,-.3c.2,0,.5,0,.7,0Z" class="g7_30"/>
<path d="M58.1,185.4c-.2,0,-.5,0,-.7,0c-.3,0,-.6,-.1,-.7,-.3c-.5,-.9,-.9,-1.7,-1.4,-2.5c-.2,-.4,0,-.7,.6,-.7c.5,0,1,0,1.5,0c.3,0,.5,.1,.6,.3c.5,.9,1,1.7,1.5,2.5c.2,.4,-.1,.7,-.6,.7c-.2,0,-.5,0,-.8,0Z" class="g7_30"/>
<path d="M62.2,189.7c0,.6,-.5,1.1,-1,1.1c-.6,0,-1.1,-.5,-1.1,-1.1c0,-.5,.5,-1,1,-1c.6,0,1.1,.4,1.1,1Z" class="g7_30"/>
<path d="M324.8,374.8H866.1v-2.2H324.8v2.2Z" class="g8_30"/>
<image clip-path="url(#cm_30)" preserveAspectRatio="none" x="505" y="350" width="98" height="31" xlink:href="img/38.jpg"/>
<image clip-path="url(#cn_30)" preserveAspectRatio="none" x="505" y="279" width="88" height="36" xlink:href="img/39.jpg"/>
<image clip-path="url(#co_30)" preserveAspectRatio="none" x="505" y="315" width="88" height="36" xlink:href="img/40.jpg"/>
<image clip-path="url(#cp_30)" preserveAspectRatio="none" x="505" y="372" width="89" height="4" xlink:href="img/41.jpg"/>
<path d="M530.1,291.5c-10.1,0,-18.3,8.2,-18.3,18.3V374h79V309.8c0,-10.1,-8.2,-18.3,-18.4,-18.3Z" class="g3_30"/>
<path d="M511.7,374.8h79.1v-7.1H511.7v7.1Z" class="g8_30"/>
<path d="M517.9,317.7h2.6c.2,0,.3,-.2,.3,-.4c0,-.2,-.1,-.4,-.3,-.4h-2.6c-.2,0,-.4,.2,-.4,.4c0,.2,.2,.4,.4,.4m4.3,0h2.6c.2,0,.4,-.2,.4,-.4c0,-.2,-.2,-.4,-.4,-.4h-2.6c-.2,0,-.3,.2,-.3,.4c0,.2,.1,.4,.3,.4m4.3,0h2.6c.2,0,.4,-.2,.4,-.4c0,-.2,-.2,-.4,-.4,-.4h-2.6c-.2,0,-.3,.2,-.3,.4c0,.2,.1,.4,.3,.4m4.4,0h2.5c.2,0,.4,-.2,.4,-.4c0,-.2,-.2,-.4,-.4,-.4h-2.5c-.3,0,-.4,.2,-.4,.4c0,.2,.1,.4,.4,.4Z" class="g6_30"/>
<path d="M569.4,349.9h2.3c.2,0,.3,-.2,.3,-.4c0,-.2,-.1,-.3,-.3,-.3h-2.3c-.2,0,-.3,.1,-.3,.3c0,.2,.1,.4,.3,.4m3.7,0h2.2c.2,0,.4,-.2,.4,-.4c0,-.2,-.2,-.3,-.4,-.3h-2.2c-.2,0,-.4,.1,-.4,.3c0,.2,.2,.4,.4,.4m3.6,0h2.2c.3,0,.4,-.2,.4,-.4c0,-.2,-.1,-.3,-.4,-.3h-2.2c-.2,0,-.3,.1,-.3,.3c0,.2,.1,.4,.3,.4m3.7,0h2.2c.2,0,.4,-.2,.4,-.4c0,-.2,-.2,-.3,-.4,-.3h-2.2c-.2,0,-.4,.1,-.4,.3c0,.2,.2,.4,.4,.4m3.6,0h2.2c.2,0,.4,-.2,.4,-.4c0,-.2,-.2,-.3,-.4,-.3H584c-.2,0,-.3,.1,-.3,.3c0,.2,.1,.4,.3,.4Z" class="g6_30"/>
<path d="M568.6,317.7h2.3c.2,0,.4,-.2,.4,-.4c0,-.2,-.2,-.4,-.4,-.4h-2.3c-.2,0,-.4,.2,-.4,.4c0,.2,.2,.4,.4,.4m3.8,0h2.3c.2,0,.4,-.2,.4,-.4c0,-.2,-.2,-.4,-.4,-.4h-2.3c-.2,0,-.4,.2,-.4,.4c0,.2,.2,.4,.4,.4m3.9,0h2.3c.2,0,.3,-.2,.3,-.4c0,-.2,-.1,-.4,-.3,-.4h-2.3c-.3,0,-.4,.2,-.4,.4c0,.2,.1,.4,.4,.4m3.8,0h2.3c.2,0,.4,-.2,.4,-.4c0,-.2,-.2,-.4,-.4,-.4h-2.3c-.2,0,-.4,.2,-.4,.4c0,.2,.2,.4,.4,.4m3.8,0h2.3c.2,0,.4,-.2,.4,-.4c0,-.2,-.2,-.4,-.4,-.4h-2.3c-.2,0,-.3,.2,-.3,.4c0,.2,.1,.4,.3,.4Z" class="g6_30"/>
<path d="M564.7,335c.1,1,.3,1.9,.3,2.8c-.1,2.7,-1.3,4.6,-3.5,6.1c-1.7,1.1,-3.6,1.6,-5.6,1.6c-3.1,.1,-6.2,.1,-9.3,0c-2.1,0,-4.1,-.5,-5.8,-1.7c-2.5,-1.8,-3.6,-4.2,-3.2,-7.3c.3,-2.5,.4,-5,.5,-7.6c0,-2.3,0,-4.7,-.1,-7c0,-2.7,1.1,-4.8,3.3,-6.4c1.8,-1.4,4,-2,6.3,-2c2.5,-.1,4.9,-.1,7.4,0c2.1,0,4.2,.6,5.9,1.8c2.6,1.7,3.8,4.1,3.5,7.2c-.1,1.6,0,3.1,0,4.7c0,0,.1,5.2,.3,7.8M551.3,315.1V315c-1.3,0,-2.5,-.1,-3.7,0c-1.7,0,-3.3,.4,-4.7,1.3c-2,1.2,-3.4,2.9,-3.3,5.3c.1,1.1,.4,2.2,.7,3.3c.6,1.7,1.4,3.3,2.8,4.5c.4,.4,.3,.8,0,1.2c-.8,.8,-1.7,1.6,-2.8,1.9c-.7,.2,-.9,.6,-.9,1.3c-.1,.6,.1,1.1,.5,1.5c1,1.1,2.2,1.8,3.5,2.4c2.3,.9,4.7,1.3,7.2,1.3c2.7,.1,5.3,-.2,7.8,-1.1c1.7,-.6,3.3,-1.5,4.4,-3c.2,-.1,.3,-.3,.3,-.5c0,-.4,0,-.9,-.1,-1.3l-.3,-.4c-1.3,-.4,-2.4,-1.2,-3.3,-2.1c-.4,-.4,-.3,-.8,0,-1.3c.6,-.6,1.2,-1.2,1.6,-1.9c1,-1.5,1.5,-3.3,1.8,-5.1c.3,-1.5,-.1,-2.9,-1,-4.1c-1.5,-1.9,-3.6,-2.9,-5.9,-3.1c-1.6,-.2,-3.1,0,-4.6,0m-12.1,21.3c-.5,2,0,3.9,1.6,5.4c1.7,1.5,3.7,2.2,5.9,2.2c3,0,6,0,9,0c1,0,2,-.2,3,-.5c1.8,-.6,3.3,-1.6,4.2,-3.4c.6,-1.2,.6,-2.5,.3,-3.8h-.1c-1.4,1.9,-3.3,2.9,-5.5,3.5c-3.7,.9,-7.4,1,-11.1,.3c-1.8,-.3,-3.6,-.8,-5.1,-1.9c-.8,-.5,-1.5,-1.2,-2.2,-1.8Z" class="g6_30"/>
<path d="M544.3,346.1c-.7,.5,-1.3,.9,-1.9,1.4c-.6,.5,-2.3,1.8,-2.9,2.3c-.3,.3,-.7,.3,-1,.2c-.2,0,-.4,-.3,-.4,-.4c-.1,-.4,0,-.6,.3,-.9c.4,-.3,1.8,-1.4,2.2,-1.7c.5,-.5,1.1,-.9,1.7,-1.3c.1,-.1,.3,-.1,.5,-.1c.5,.1,1,.3,1.5,.5Z" class="g6_30"/>
<path d="M558.1,346.1c.7,-.2,1.2,-.4,1.7,-.5l.4,.1c1,.7,3,2.3,3.9,3c.2,.1,.3,.3,.4,.5c.1,.3,0,.6,-.3,.7c-.2,.2,-.7,.2,-.9,.1c-1.4,-1,-3.7,-2.9,-5.2,-3.9Z" class="g6_30"/>
<path d="M551.2,328.8c-1.4,0,-2.8,.1,-4.2,0c-2.5,-.2,-4.5,-2,-5,-4.5c-.1,-.7,-.2,-1.3,-.3,-1.9c-.5,-2.5,1.2,-4.7,3.7,-4.7c3.9,0,7.8,0,11.6,0c2.4,.1,4.2,1.9,3.8,4.3c-.1,1.4,-.3,2.8,-1,4c-1.2,1.9,-2.8,2.9,-5,2.8c-1.2,0,-2.4,0,-3.6,0Z" class="g6_30"/>
<path d="M557.1,332.3c.3,0,.7,0,1,0c.6,0,1,.4,.7,.8c-.6,1.1,-1.2,2.2,-1.9,3.3c-.1,.2,-.4,.4,-.7,.4c-.7,0,-1.4,0,-2.1,0c-.6,-.1,-.9,-.4,-.7,-.9c.6,-1.1,1.2,-2.1,1.9,-3.2c.1,-.3,.4,-.4,.8,-.4c.4,0,.7,0,1,0Z" class="g6_30"/>
<path d="M547.3,336.8c-.3,0,-.6,0,-.9,0c-.5,0,-.8,-.2,-.9,-.5c-.6,-1,-1.2,-2.1,-1.8,-3.1c-.3,-.5,0,-.9,.7,-.9c.7,0,1.3,0,1.9,0c.5,0,.7,.1,.9,.4c.6,1.1,1.2,2.2,1.9,3.2c.2,.4,-.1,.8,-.7,.9c-.4,0,-.7,0,-1.1,0Z" class="g6_30"/>
<path d="M552.6,342.3c0,.8,-.6,1.4,-1.4,1.4c-.7,0,-1.3,-.6,-1.3,-1.3c0,-.7,.6,-1.4,1.3,-1.4c.7,0,1.4,.6,1.4,1.3Z" class="g6_30"/>
<path d="M517.9,349.9h2.2c.2,0,.4,-.2,.4,-.4c0,-.2,-.2,-.3,-.4,-.3h-2.2c-.2,0,-.4,.1,-.4,.3c0,.2,.2,.4,.4,.4m3.7,0h2.2c.2,0,.4,-.2,.4,-.4c0,-.2,-.2,-.3,-.4,-.3h-2.2c-.2,0,-.4,.1,-.4,.3c0,.2,.2,.4,.4,.4m3.6,0h2.2c.2,0,.4,-.2,.4,-.4c0,-.2,-.2,-.3,-.4,-.3h-2.2c-.2,0,-.4,.1,-.4,.3c0,.2,.2,.4,.4,.4m3.7,0h2.2c.2,0,.3,-.2,.3,-.4c0,-.2,-.1,-.3,-.3,-.3h-2.2c-.3,0,-.4,.1,-.4,.3c0,.2,.1,.4,.4,.4m3.6,0h2.2c.2,0,.4,-.2,.4,-.4c0,-.2,-.2,-.3,-.4,-.3h-2.2c-.2,0,-.4,.1,-.4,.3c0,.2,.2,.4,.4,.4Z" class="g6_30"/>
<image clip-path="url(#cq_30)" preserveAspectRatio="none" x="769" y="350" width="98" height="31" xlink:href="img/42.jpg"/>
<image clip-path="url(#cr_30)" preserveAspectRatio="none" x="779" y="279" width="88" height="36" xlink:href="img/43.jpg"/>
<image clip-path="url(#cs_30)" preserveAspectRatio="none" x="823" y="315" width="44" height="36" xlink:href="img/44.jpg"/>
<image clip-path="url(#ct_30)" preserveAspectRatio="none" x="778" y="372" width="89" height="4" xlink:href="img/45.jpg"/>
<image clip-path="url(#cu_30)" preserveAspectRatio="none" x="779" y="297" width="73" height="3" xlink:href="img/46.jpg"/>
<path d="M794.4,291.5c-10.1,0,-18.3,8.2,-18.3,18.3V374h79V309.8c0,-10.1,-8.2,-18.3,-18.3,-18.3Z" class="g3_30"/>
<path d="M776,374.8h79.1v-7.1H776v7.1Z" class="g8_30"/>
<path d="M781.4,349.9h2.4c.2,0,.3,-.2,.3,-.4c0,-.2,-.1,-.3,-.3,-.3h-2.4c-.2,0,-.3,.1,-.3,.3c0,.2,.1,.4,.3,.4m3.9,0h2.3c.3,0,.4,-.2,.4,-.4c0,-.2,-.1,-.3,-.4,-.3h-2.3c-.2,0,-.4,.1,-.4,.3c0,.2,.2,.4,.4,.4m3.9,0h2.3c.2,0,.4,-.2,.4,-.4c0,-.2,-.2,-.3,-.4,-.3h-2.3c-.2,0,-.4,.1,-.4,.3c0,.2,.2,.4,.4,.4m3.9,0h2.3c.2,0,.4,-.2,.4,-.4c0,-.2,-.2,-.3,-.4,-.3h-2.3c-.2,0,-.4,.1,-.4,.3c0,.2,.2,.4,.4,.4m3.9,0h2.3c.2,0,.4,-.2,.4,-.4c0,-.2,-.2,-.3,-.4,-.3H797c-.2,0,-.4,.1,-.4,.3c0,.2,.2,.4,.4,.4m3.8,0h2.4c.2,0,.4,-.2,.4,-.4c0,-.2,-.2,-.3,-.4,-.3h-2.4c-.2,0,-.3,.1,-.3,.3c0,.2,.1,.4,.3,.4m3.9,0h2.4c.2,0,.3,-.2,.3,-.4c0,-.2,-.1,-.3,-.3,-.3h-2.4c-.2,0,-.4,.1,-.4,.3c0,.2,.2,.4,.4,.4m3.9,0h2.3c.2,0,.4,-.2,.4,-.4c0,-.2,-.2,-.3,-.4,-.3h-2.3c-.2,0,-.4,.1,-.4,.3c0,.2,.2,.4,.4,.4m3.9,0h2.3c.2,0,.4,-.2,.4,-.4c0,-.2,-.2,-.3,-.4,-.3h-2.3c-.2,0,-.4,.1,-.4,.3c0,.2,.2,.4,.4,.4m3.9,0h2.3c.2,0,.4,-.2,.4,-.4c0,-.2,-.2,-.3,-.4,-.3h-2.3c-.2,0,-.4,.1,-.4,.3c0,.2,.2,.4,.4,.4m3.9,0h2.3c.2,0,.4,-.2,.4,-.4c0,-.2,-.2,-.3,-.4,-.3h-2.3c-.3,0,-.4,.1,-.4,.3c0,.2,.1,.4,.4,.4m3.8,0h2.4c.2,0,.3,-.2,.3,-.4c0,-.2,-.1,-.3,-.3,-.3h-2.4c-.2,0,-.3,.1,-.3,.3c0,.2,.1,.4,.3,.4m3.9,0h2.3c.3,0,.4,-.2,.4,-.4c0,-.2,-.1,-.3,-.4,-.3H828c-.2,0,-.4,.1,-.4,.3c0,.2,.2,.4,.4,.4m3.9,0h2.3c.2,0,.4,-.2,.4,-.4c0,-.2,-.2,-.3,-.4,-.3h-2.3c-.2,0,-.4,.1,-.4,.3c0,.2,.2,.4,.4,.4m3.9,0h2.3c.2,0,.4,-.2,.4,-.4c0,-.2,-.2,-.3,-.4,-.3h-2.3c-.2,0,-.4,.1,-.4,.3c0,.2,.2,.4,.4,.4m3.9,0H842c.2,0,.4,-.2,.4,-.4c0,-.2,-.2,-.3,-.4,-.3h-2.3c-.2,0,-.4,.1,-.4,.3c0,.2,.2,.4,.4,.4m3.8,0h2.4c.2,0,.4,-.2,.4,-.4c0,-.2,-.2,-.3,-.4,-.3h-2.4c-.2,0,-.3,.1,-.3,.3c0,.2,.1,.4,.3,.4m3.9,0h2.4c.2,0,.3,-.2,.3,-.4c0,-.2,-.1,-.3,-.3,-.3h-2.4c-.2,0,-.4,.1,-.4,.3c0,.2,.2,.4,.4,.4Z" class="g9_30"/>
<path d="M780.8,313.5h2.3c.2,0,.4,-.2,.4,-.4c0,-.2,-.2,-.3,-.4,-.3h-2.3c-.2,0,-.4,.1,-.4,.3c0,.2,.2,.4,.4,.4m3.9,0H787c.2,0,.4,-.2,.4,-.4c0,-.2,-.2,-.3,-.4,-.3h-2.3c-.2,0,-.4,.1,-.4,.3c0,.2,.2,.4,.4,.4m3.9,0h2.3c.2,0,.4,-.2,.4,-.4c0,-.2,-.2,-.3,-.4,-.3h-2.3c-.3,0,-.4,.1,-.4,.3c0,.2,.1,.4,.4,.4m3.8,0h2.4c.2,0,.3,-.2,.3,-.4c0,-.2,-.1,-.3,-.3,-.3h-2.4c-.2,0,-.3,.1,-.3,.3c0,.2,.1,.4,.3,.4m3.9,0h2.3c.2,0,.4,-.2,.4,-.4c0,-.2,-.2,-.3,-.4,-.3h-2.3c-.2,0,-.4,.1,-.4,.3c0,.2,.2,.4,.4,.4m3.9,0h2.3c.2,0,.4,-.2,.4,-.4c0,-.2,-.2,-.3,-.4,-.3h-2.3c-.2,0,-.4,.1,-.4,.3c0,.2,.2,.4,.4,.4m3.9,0h2.3c.2,0,.4,-.2,.4,-.4c0,-.2,-.2,-.3,-.4,-.3h-2.3c-.2,0,-.4,.1,-.4,.3c0,.2,.2,.4,.4,.4m3.9,0h2.3c.2,0,.4,-.2,.4,-.4c0,-.2,-.2,-.3,-.4,-.3H808c-.2,0,-.4,.1,-.4,.3c0,.2,.2,.4,.4,.4m3.8,0h2.4c.2,0,.3,-.2,.3,-.4c0,-.2,-.1,-.3,-.3,-.3h-2.4c-.2,0,-.3,.1,-.3,.3c0,.2,.1,.4,.3,.4m3.9,0H818c.3,0,.4,-.2,.4,-.4c0,-.2,-.1,-.3,-.4,-.3h-2.3c-.2,0,-.4,.1,-.4,.3c0,.2,.2,.4,.4,.4m3.9,0h2.3c.2,0,.4,-.2,.4,-.4c0,-.2,-.2,-.3,-.4,-.3h-2.3c-.2,0,-.4,.1,-.4,.3c0,.2,.2,.4,.4,.4m3.9,0h2.3c.2,0,.4,-.2,.4,-.4c0,-.2,-.2,-.3,-.4,-.3h-2.3c-.2,0,-.4,.1,-.4,.3c0,.2,.2,.4,.4,.4m3.9,0h2.3c.2,0,.4,-.2,.4,-.4c0,-.2,-.2,-.3,-.4,-.3h-2.3c-.2,0,-.4,.1,-.4,.3c0,.2,.2,.4,.4,.4m3.9,0h2.3c.2,0,.4,-.2,.4,-.4c0,-.2,-.2,-.3,-.4,-.3h-2.3c-.3,0,-.4,.1,-.4,.3c0,.2,.1,.4,.4,.4m3.8,0h2.4c.2,0,.3,-.2,.3,-.4c0,-.2,-.1,-.3,-.3,-.3h-2.4c-.2,0,-.3,.1,-.3,.3c0,.2,.1,.4,.3,.4m3.9,0h2.3c.3,0,.4,-.2,.4,-.4c0,-.2,-.1,-.3,-.4,-.3H839c-.2,0,-.4,.1,-.4,.3c0,.2,.2,.4,.4,.4m3.9,0h2.3c.2,0,.4,-.2,.4,-.4c0,-.2,-.2,-.3,-.4,-.3h-2.3c-.2,0,-.4,.1,-.4,.3c0,.2,.2,.4,.4,.4m3.9,0h2.3c.2,0,.4,-.2,.4,-.4c0,-.2,-.2,-.3,-.4,-.3h-2.3c-.2,0,-.4,.1,-.4,.3c0,.2,.2,.4,.4,.4Z" class="g9_30"/>
<path d="M829.5,330.3v.7h4.6c1.1,0,2,-.9,2,-2v-.4c0,-1.2,-.9,-2.1,-2,-2.1h-4.6c-.5,0,-1,.2,-1.4,.6c-.1,.1,-.2,.3,-.2,.5v.2c0,.2,-.1,.4,-.2,.5c-.2,.2,-.3,.3,-.3,.5v.2c0,1.1,1,2,2.1,2v-1.4c-.4,0,-.7,-.3,-.7,-.6v-.2h-.7l.5,.5c.4,-.3,.7,-.9,.7,-1.5v-.2h-.7l.4,.5c.2,-.1,.3,-.2,.5,-.2h4.6c.3,0,.6,.3,.6,.7v.4c0,.3,-.3,.6,-.6,.6h-4.6Z" class="g9_30"/>
<path d="M828.6,321l-.5,.5c.4,.3,.9,.5,1.4,.5h4.6c1.1,0,2,-.9,2,-2v-.4c0,-1.1,-.9,-2,-2,-2h-4.6c-1.1,0,-2.1,.9,-2.1,2v.2c0,.2,.1,.3,.3,.5c.1,.1,.2,.3,.2,.5v.2c0,.2,.1,.4,.2,.5l.5,-.5h.7v-.2c0,-.6,-.3,-1.2,-.7,-1.5l-.5,.5h.7v-.2c0,-.4,.3,-.7,.7,-.7h4.6c.3,0,.6,.3,.6,.7v.4c0,.4,-.3,.7,-.6,.7h-4.6c-.2,0,-.3,-.1,-.5,-.2l-.4,.5h.7Z" class="g9_30"/>
<path d="M835.1,329.8v.7H837c1,0,1.8,-.8,1.8,-1.8v-8.8c0,-1,-.8,-1.8,-1.8,-1.8h-1.8c-.3,0,-.5,.2,-.7,.4c-.1,.2,-.1,.5,.1,.7c.1,.1,.1,.3,.1,.4v.4c0,.4,-.3,.7,-.6,.7h-4.6c-.2,0,-.3,-.1,-.5,-.2c-.2,-.2,-.4,-.2,-.7,-.1c-.2,.1,-.4,.3,-.4,.6v6.6c0,.2,.2,.5,.4,.6c.3,.1,.5,.1,.7,-.1c.2,-.1,.3,-.2,.5,-.2h4.6c.3,0,.6,.3,.6,.7v.4c0,.1,0,.3,-.1,.4c-.2,.2,-.2,.5,-.1,.7c.1,.2,.3,.4,.6,.4v-.7l.5,.4c.3,-.3,.5,-.7,.5,-1.2v-.4c0,-1.2,-.9,-2.1,-2,-2.1h-4.6c-.5,0,-1,.2,-1.4,.6l.5,.5h.7V321h-.7l-.5,.5c.4,.3,.9,.5,1.4,.5h4.6c1.1,0,2,-.9,2,-2v-.4c0,-.4,-.2,-.9,-.4,-1.2l-.5,.4v.7H837c.2,0,.4,.2,.4,.4v8.8c0,.2,-.2,.4,-.4,.4h-1.9v.7l.5,.4Z" class="g9_30"/>
<path d="M828.6,320.8h.7c0,-1.2,-.9,-2.1,-2.1,-2.1h-.7c-1.1,0,-2,.9,-2,2.1v7c0,1.2,.9,2.1,2,2.1h.7c1.2,0,2.1,-.9,2.1,-2.1v-7h-1.4v7c0,.4,-.3,.7,-.7,.7h-.7c-.3,0,-.6,-.3,-.6,-.7v-7c0,-.4,.3,-.7,.6,-.7h.7c.4,0,.7,.3,.7,.7Z" class="g9_30"/>
<path d="M829.5,343.1v.7h4.6c1.1,0,2,-.9,2,-2.1v-.3c0,-1.2,-.9,-2.1,-2,-2.1h-4.6c-.5,0,-1,.2,-1.4,.5c-.1,.2,-.2,.4,-.2,.6v.2c0,.2,-.1,.4,-.2,.5c-.2,.1,-.3,.3,-.3,.5v.1c0,1.2,1,2.1,2.1,2.1v-1.4c-.4,0,-.7,-.3,-.7,-.7v-.1h-.7l.5,.5c.4,-.3,.7,-.9,.7,-1.5v-.2h-.7l.4,.5c.2,-.2,.3,-.2,.5,-.2h4.6c.3,0,.6,.3,.6,.7v.3c0,.4,-.3,.7,-.6,.7h-4.6Z" class="g9_30"/>
<path d="M828.6,333.8l-.5,.5c.4,.3,.9,.5,1.4,.5h4.6c1.1,0,2,-.9,2,-2v-.4c0,-1.1,-.9,-2.1,-2,-2.1h-4.6c-1.1,0,-2.1,1,-2.1,2.1v.1c0,.2,.1,.4,.3,.6c.1,.1,.2,.2,.2,.4v.3c0,.2,.1,.4,.2,.5l.5,-.5h.7v-.3c0,-.6,-.3,-1.1,-.7,-1.5l-.5,.5h.7v-.1c0,-.4,.3,-.7,.7,-.7h4.6c.3,0,.6,.3,.6,.7v.4c0,.3,-.3,.6,-.6,.6h-4.6c-.2,0,-.3,0,-.5,-.1l-.4,.5h.7Z" class="g9_30"/>
<path d="M835.1,342.6v.7H837c1,0,1.8,-.8,1.8,-1.8v-8.8c0,-1,-.8,-1.8,-1.8,-1.8h-1.8c-.3,0,-.5,.1,-.7,.4c-.1,.2,-.1,.5,.1,.7c.1,.1,.1,.2,.1,.4v.4c0,.3,-.3,.6,-.6,.6h-4.6c-.2,0,-.3,0,-.5,-.1c-.2,-.2,-.4,-.3,-.7,-.2c-.2,.2,-.4,.4,-.4,.7v6.6c0,.2,.2,.5,.4,.6c.3,.1,.5,0,.7,-.1c.2,-.2,.3,-.2,.5,-.2h4.6c.3,0,.6,.3,.6,.7v.3c0,.2,0,.3,-.1,.5c-.2,.2,-.2,.4,-.1,.7c.1,.2,.3,.4,.6,.4v-.7l.5,.4c.3,-.3,.5,-.8,.5,-1.3v-.3c0,-1.2,-.9,-2.1,-2,-2.1h-4.6c-.5,0,-1,.2,-1.4,.5l.5,.6h.7v-6.6h-.7l-.5,.5c.4,.3,.9,.5,1.4,.5h4.6c1.1,0,2,-.9,2,-2v-.4c0,-.5,-.2,-.9,-.4,-1.2l-.5,.4v.7H837c.2,0,.4,.2,.4,.4v8.8c0,.2,-.2,.4,-.4,.4h-1.9v.7l.5,.4Z" class="g9_30"/>
<path d="M828.6,333.5h.7c0,-1.1,-.9,-2,-2.1,-2h-.7c-1.1,0,-2,.9,-2,2v7.1c0,1.1,.9,2.1,2,2.1h.7c1.2,0,2.1,-1,2.1,-2.1v-7.1h-1.4v7.1c0,.4,-.3,.7,-.7,.7h-.7c-.3,0,-.6,-.3,-.6,-.7v-7.1c0,-.3,.3,-.6,.6,-.6h.7c.4,0,.7,.3,.7,.6Z" class="g9_30"/>
<path d="M814.2,329.5h3.2c.5,0,.9,-.3,.9,-.6v-.1c0,-.4,-.4,-.6,-.9,-.6h-3.2c-.2,0,-.5,0,-.6,.1v.1c0,.2,-.2,.4,-.3,.5c0,.3,.4,.6,.9,.6Z" class="g9_30"/>
<path d="M813.7,319.7c.2,.1,.4,.1,.6,.1h3.4c.5,0,.9,-.3,.9,-.6V319c0,-.3,-.4,-.6,-.9,-.6h-3.4c-.5,0,-.9,.3,-.9,.6v.1c.2,.1,.3,.3,.3,.5Z" class="g9_30"/>
<path d="M819.5,329.5h1.8c.6,0,1.1,-.5,1.1,-1.1v-8.8c0,-.6,-.5,-1.1,-1.1,-1.1h-1.7c.1,.2,.2,.5,.2,.8v.4c0,.7,-.6,1.3,-1.3,1.3h-4.3c-.4,0,-.7,-.1,-.9,-.3v6.6c.2,-.2,.5,-.4,.9,-.4h4.3c.7,0,1.3,.6,1.3,1.4v.4c0,.3,-.1,.6,-.3,.8Z" class="g9_30"/>
<path d="M812,321.2c0,-.6,-.5,-1.1,-1.1,-1.1c-.6,0,-1.1,.5,-1.1,1.1v5.6c0,.6,.5,1.1,1.1,1.1c.6,0,1.1,-.5,1.1,-1.1Z" class="g9_30"/>
<path d="M813.8,343.1v.7h4.5c1.1,0,2.1,-.9,2.1,-2.1v-.3c0,-1.2,-1,-2.1,-2.1,-2.1h-4.5c-.6,0,-1.1,.2,-1.4,.5c-.2,.2,-.2,.4,-.2,.6v.2c0,.2,-.1,.4,-.3,.5c-.1,.1,-.2,.3,-.2,.5v.1c0,1.2,.9,2.1,2.1,2.1v-1.4c-.4,0,-.7,-.3,-.7,-.7v-.1h-.7l.5,.5c.4,-.3,.6,-.9,.6,-1.5v-.2h-.7l.5,.5c.1,-.2,.3,-.2,.5,-.2h4.5c.4,0,.7,.3,.7,.7v.3c0,.4,-.3,.7,-.7,.7h-4.5Z" class="g9_30"/>
<path d="M812.8,333.8l-.4,.5c.3,.3,.8,.5,1.4,.5h4.5c1.1,0,2.1,-.9,2.1,-2v-.4c0,-1.1,-1,-2.1,-2.1,-2.1h-4.5c-1.2,0,-2.1,1,-2.1,2.1v.1c0,.2,.1,.4,.2,.6c.2,.1,.3,.2,.3,.4v.3c0,.2,0,.4,.2,.5l.4,-.5h.7v-.3c0,-.6,-.2,-1.1,-.6,-1.5l-.5,.5h.7v-.1c0,-.4,.3,-.7,.7,-.7h4.5c.4,0,.7,.3,.7,.7v.4c0,.3,-.3,.6,-.7,.6h-4.5c-.2,0,-.4,0,-.5,-.1l-.5,.5h.7Z" class="g9_30"/>
<path d="M819.4,342.6v.7h1.9c1,0,1.8,-.8,1.8,-1.8v-8.8c0,-1,-.8,-1.8,-1.8,-1.8h-1.9c-.2,0,-.5,.1,-.6,.4c-.1,.2,-.1,.5,.1,.7c0,.1,.1,.2,.1,.4v.4c0,.3,-.3,.6,-.7,.6h-4.5c-.2,0,-.4,0,-.5,-.1c-.2,-.2,-.5,-.3,-.7,-.2c-.3,.2,-.4,.4,-.4,.7v6.6c0,.2,.1,.5,.4,.6c.2,.1,.5,0,.7,-.1c.1,-.2,.3,-.2,.5,-.2h4.5c.4,0,.7,.3,.7,.7v.3c0,.2,-.1,.3,-.2,.5c-.1,.2,-.2,.4,-.1,.7c.2,.2,.4,.4,.7,.4v-.7l.5,.4c.3,-.3,.5,-.8,.5,-1.3v-.3c0,-1.2,-1,-2.1,-2.1,-2.1h-4.5c-.6,0,-1.1,.2,-1.4,.5l.4,.6h.7v-6.6h-.7l-.4,.5c.3,.3,.8,.5,1.4,.5h4.5c1.1,0,2.1,-.9,2.1,-2v-.4c0,-.5,-.2,-.9,-.4,-1.2l-.6,.4v.7h1.9c.2,0,.4,.2,.4,.4v8.8c0,.2,-.2,.4,-.4,.4h-1.9v.7l.5,.4Z" class="g9_30"/>
<path d="M812.8,333.5h.7c0,-1.1,-.9,-2,-2,-2h-.7c-1.1,0,-2,.9,-2,2v7.1c0,1.1,.9,2.1,2,2.1h.7c1.1,0,2,-1,2,-2.1v-7.1h-1.3v7.1c0,.4,-.3,.7,-.7,.7h-.7c-.4,0,-.7,-.3,-.7,-.7v-7.1c0,-.3,.3,-.6,.7,-.6h.7c.4,0,.7,.3,.7,.6Z" class="g9_30"/>
<path d="M798,330.3v.7h4.6c1.1,0,2,-.9,2,-2v-.4c0,-1.2,-.9,-2.1,-2,-2.1H798c-.5,0,-1,.2,-1.4,.6c-.1,.1,-.2,.3,-.2,.5v.2c0,.2,-.1,.4,-.2,.5c-.1,.2,-.2,.3,-.2,.5v.2c0,1.1,.9,2,2,2v-1.4c-.4,0,-.7,-.3,-.7,-.6v-.2h-.6l.4,.5c.4,-.3,.7,-.9,.7,-1.5v-.2h-.7l.5,.5c.1,-.1,.2,-.2,.4,-.2h4.6c.3,0,.6,.3,.6,.7v.4c0,.3,-.3,.6,-.6,.6H798Z" class="g9_30"/>
<path d="M797.1,321l-.5,.5c.4,.3,.9,.5,1.4,.5h4.6c1.1,0,2,-.9,2,-2v-.4c0,-1.1,-.9,-2,-2,-2H798c-1.1,0,-2,.9,-2,2v.2c0,.2,.1,.3,.2,.5c.1,.1,.2,.3,.2,.5v.2c0,.2,.1,.4,.2,.5l.5,-.5h.7v-.2c0,-.6,-.3,-1.2,-.7,-1.5l-.4,.5h.6v-.2c0,-.4,.3,-.7,.7,-.7h4.6c.3,0,.6,.3,.6,.7v.4c0,.4,-.3,.7,-.6,.7H798c-.2,0,-.3,-.1,-.4,-.2l-.5,.5h.7Z" class="g9_30"/>
<path d="M803.6,329.8v.7h1.9c1,0,1.8,-.8,1.8,-1.8v-8.8c0,-1,-.8,-1.8,-1.8,-1.8h-1.8c-.3,0,-.5,.2,-.6,.4c-.2,.2,-.1,.5,0,.7c.1,.1,.1,.3,.1,.4v.4c0,.4,-.3,.7,-.6,.7H798c-.2,0,-.3,-.1,-.4,-.2c-.2,-.2,-.5,-.2,-.8,-.1c-.2,.1,-.4,.3,-.4,.6v6.6c0,.2,.2,.5,.4,.6c.3,.1,.6,.1,.8,-.1c.1,-.1,.2,-.2,.4,-.2h4.6c.3,0,.6,.3,.6,.7v.4c0,.1,0,.3,-.1,.4c-.2,.2,-.2,.5,-.1,.7c.1,.2,.4,.4,.6,.4v-.7l.6,.4c.2,-.3,.4,-.7,.4,-1.2v-.4c0,-1.2,-.9,-2.1,-2,-2.1H798c-.5,0,-1,.2,-1.4,.6l.5,.5h.7V321h-.7l-.5,.5c.4,.3,.9,.5,1.4,.5h4.6c1.1,0,2,-.9,2,-2v-.4c0,-.4,-.1,-.9,-.4,-1.2l-.5,.4v.7h1.8c.3,0,.5,.2,.5,.4v8.8c0,.2,-.2,.4,-.5,.4h-1.9v.7l.6,.4Z" class="g9_30"/>
<path d="M797.1,320.8h.7c0,-1.2,-.9,-2.1,-2,-2.1h-.7c-1.2,0,-2.1,.9,-2.1,2.1v7c0,1.2,.9,2.1,2.1,2.1h.7c1.1,0,2,-.9,2,-2.1v-7h-1.4v7c0,.4,-.3,.7,-.6,.7h-.7c-.4,0,-.7,-.3,-.7,-.7v-7c0,-.4,.3,-.7,.7,-.7h.7c.3,0,.6,.3,.6,.7Z" class="g9_30"/>
<path d="M798,343.1v.7h4.6c1.1,0,2,-.9,2,-2.1v-.3c0,-1.2,-.9,-2.1,-2,-2.1H798c-.5,0,-1,.2,-1.4,.5c-.1,.2,-.2,.4,-.2,.6v.2c0,.2,-.1,.4,-.2,.5c-.1,.1,-.2,.3,-.2,.5v.1c0,1.2,.9,2.1,2,2.1v-1.4c-.4,0,-.7,-.3,-.7,-.7v-.1h-.6l.4,.5c.4,-.3,.7,-.9,.7,-1.5v-.2h-.7l.5,.5c.1,-.2,.2,-.2,.4,-.2h4.6c.3,0,.6,.3,.6,.7v.3c0,.4,-.3,.7,-.6,.7H798Z" class="g9_30"/>
<path d="M797.1,333.8l-.5,.5c.4,.3,.9,.5,1.4,.5h4.6c1.1,0,2,-.9,2,-2v-.4c0,-1.1,-.9,-2.1,-2,-2.1H798c-1.1,0,-2,1,-2,2.1v.1c0,.2,.1,.4,.2,.6c.1,.1,.2,.2,.2,.4v.3c0,.2,.1,.4,.2,.5l.5,-.5h.7v-.3c0,-.6,-.3,-1.1,-.7,-1.5l-.4,.5h.6v-.1c0,-.4,.3,-.7,.7,-.7h4.6c.3,0,.6,.3,.6,.7v.4c0,.3,-.3,.6,-.6,.6H798c-.2,0,-.3,0,-.4,-.1l-.5,.5h.7Z" class="g9_30"/>
<path d="M803.6,342.6v.7h1.9c1,0,1.8,-.8,1.8,-1.8v-8.8c0,-1,-.8,-1.8,-1.8,-1.8h-1.8c-.3,0,-.5,.1,-.6,.4c-.2,.2,-.1,.5,0,.7c.1,.1,.1,.2,.1,.4v.4c0,.3,-.3,.6,-.6,.6H798c-.2,0,-.3,0,-.4,-.1c-.2,-.2,-.5,-.3,-.8,-.2c-.2,.2,-.4,.4,-.4,.7v6.6c0,.2,.2,.5,.4,.6c.3,.1,.6,0,.8,-.1c.1,-.2,.2,-.2,.4,-.2h4.6c.3,0,.6,.3,.6,.7v.3c0,.2,0,.3,-.1,.5c-.2,.2,-.2,.4,-.1,.7c.1,.2,.4,.4,.6,.4v-.7l.6,.4c.2,-.3,.4,-.8,.4,-1.3v-.3c0,-1.2,-.9,-2.1,-2,-2.1H798c-.5,0,-1,.2,-1.4,.5l.5,.6h.7v-6.6h-.7l-.5,.5c.4,.3,.9,.5,1.4,.5h4.6c1.1,0,2,-.9,2,-2v-.4c0,-.5,-.1,-.9,-.4,-1.2l-.5,.4v.7h1.8c.3,0,.5,.2,.5,.4v8.8c0,.2,-.2,.4,-.5,.4h-1.9v.7l.6,.4Z" class="g9_30"/>
<path d="M797.1,333.5h.7c0,-1.1,-.9,-2,-2,-2h-.7c-1.2,0,-2.1,.9,-2.1,2v7.1c0,1.1,.9,2.1,2.1,2.1h.7c1.1,0,2,-1,2,-2.1v-7.1h-1.4v7.1c0,.4,-.3,.7,-.6,.7h-.7c-.4,0,-.7,-.3,-.7,-.7v-7.1c0,-.3,.3,-.6,.7,-.6h.7c.3,0,.6,.3,.6,.6Z" class="g9_30"/>
<image clip-path="url(#cv_30)" preserveAspectRatio="none" x="681" y="350" width="89" height="31" xlink:href="img/47.jpg"/>
<image clip-path="url(#cw_30)" preserveAspectRatio="none" x="690" y="279" width="89" height="36" xlink:href="img/48.jpg"/>
<image clip-path="url(#cx_30)" preserveAspectRatio="none" x="735" y="315" width="44" height="36" xlink:href="img/49.jpg"/>
<image clip-path="url(#cy_30)" preserveAspectRatio="none" x="690" y="372" width="80" height="4" xlink:href="img/50.jpg"/>
<image clip-path="url(#cz_30)" preserveAspectRatio="none" x="768" y="350" width="11" height="31" xlink:href="img/51.jpg"/>
<image clip-path="url(#c10_30)" preserveAspectRatio="none" x="769" y="279" width="10" height="72" xlink:href="img/52.jpg"/>
<image clip-path="url(#c11_30)" preserveAspectRatio="none" x="768" y="372" width="11" height="3" xlink:href="img/53.jpg"/>
<image clip-path="url(#c12_30)" preserveAspectRatio="none" x="775" y="300" width="4" height="68" xlink:href="img/54.jpg"/>
<image clip-path="url(#c13_30)" preserveAspectRatio="none" x="775" y="367" width="4" height="9" xlink:href="img/55.jpg"/>
<path d="M706.3,291.5c-10.1,0,-18.3,8.2,-18.3,18.3V374h79V309.8c0,-10.1,-8.2,-18.3,-18.3,-18.3Z" class="g3_30"/>
<path d="M687.9,374.8H767v-7.1H687.9v7.1Z" class="g8_30"/>
<path d="M693.3,349.9h2.4c.2,0,.3,-.2,.3,-.4c0,-.2,-.1,-.3,-.3,-.3h-2.4c-.2,0,-.3,.1,-.3,.3c0,.2,.1,.4,.3,.4m3.9,0h2.3c.3,0,.4,-.2,.4,-.4c0,-.2,-.1,-.3,-.4,-.3h-2.3c-.2,0,-.4,.1,-.4,.3c0,.2,.2,.4,.4,.4m3.9,0h2.3c.2,0,.4,-.2,.4,-.4c0,-.2,-.2,-.3,-.4,-.3h-2.3c-.2,0,-.4,.1,-.4,.3c0,.2,.2,.4,.4,.4m3.9,0h2.3c.2,0,.4,-.2,.4,-.4c0,-.2,-.2,-.3,-.4,-.3H705c-.2,0,-.4,.1,-.4,.3c0,.2,.2,.4,.4,.4m3.9,0h2.3c.2,0,.4,-.2,.4,-.4c0,-.2,-.2,-.3,-.4,-.3h-2.3c-.2,0,-.4,.1,-.4,.3c0,.2,.2,.4,.4,.4m3.9,0h2.3c.2,0,.4,-.2,.4,-.4c0,-.2,-.2,-.3,-.4,-.3h-2.3c-.3,0,-.4,.1,-.4,.3c0,.2,.1,.4,.4,.4m3.8,0H719c.2,0,.3,-.2,.3,-.4c0,-.2,-.1,-.3,-.3,-.3h-2.4c-.2,0,-.3,.1,-.3,.3c0,.2,.1,.4,.3,.4m3.9,0h2.3c.2,0,.4,-.2,.4,-.4c0,-.2,-.2,-.3,-.4,-.3h-2.3c-.2,0,-.4,.1,-.4,.3c0,.2,.2,.4,.4,.4m3.9,0h2.3c.2,0,.4,-.2,.4,-.4c0,-.2,-.2,-.3,-.4,-.3h-2.3c-.2,0,-.4,.1,-.4,.3c0,.2,.2,.4,.4,.4m3.9,0h2.3c.2,0,.4,-.2,.4,-.4c0,-.2,-.2,-.3,-.4,-.3h-2.3c-.2,0,-.4,.1,-.4,.3c0,.2,.2,.4,.4,.4m3.9,0h2.3c.2,0,.4,-.2,.4,-.4c0,-.2,-.2,-.3,-.4,-.3h-2.3c-.3,0,-.4,.1,-.4,.3c0,.2,.1,.4,.4,.4m3.8,0h2.4c.2,0,.3,-.2,.3,-.4c0,-.2,-.1,-.3,-.3,-.3H736c-.2,0,-.3,.1,-.3,.3c0,.2,.1,.4,.3,.4m3.9,0h2.3c.3,0,.4,-.2,.4,-.4c0,-.2,-.1,-.3,-.4,-.3h-2.3c-.2,0,-.4,.1,-.4,.3c0,.2,.2,.4,.4,.4m3.9,0h2.3c.2,0,.4,-.2,.4,-.4c0,-.2,-.2,-.3,-.4,-.3h-2.3c-.2,0,-.4,.1,-.4,.3c0,.2,.2,.4,.4,.4m3.9,0H750c.2,0,.4,-.2,.4,-.4c0,-.2,-.2,-.3,-.4,-.3h-2.3c-.2,0,-.4,.1,-.4,.3c0,.2,.2,.4,.4,.4m3.9,0h2.3c.2,0,.4,-.2,.4,-.4c0,-.2,-.2,-.3,-.4,-.3h-2.3c-.2,0,-.4,.1,-.4,.3c0,.2,.2,.4,.4,.4m3.9,0h2.3c.2,0,.4,-.2,.4,-.4c0,-.2,-.2,-.3,-.4,-.3h-2.3c-.3,0,-.4,.1,-.4,.3c0,.2,.1,.4,.4,.4m3.8,0h2.4c.2,0,.3,-.2,.3,-.4c0,-.2,-.1,-.3,-.3,-.3h-2.4c-.2,0,-.3,.1,-.3,.3c0,.2,.1,.4,.3,.4Z" class="ga_30"/>
<path d="M740.8,313.5H743c.2,0,.4,-.2,.4,-.4c0,-.2,-.2,-.3,-.4,-.3h-2.2c-.2,0,-.4,.1,-.4,.3c0,.2,.2,.4,.4,.4m3.7,0h2.2c.3,0,.4,-.2,.4,-.4c0,-.2,-.1,-.3,-.4,-.3h-2.2c-.2,0,-.4,.1,-.4,.3c0,.2,.2,.4,.4,.4m3.7,0h2.3c.2,0,.4,-.2,.4,-.4c0,-.2,-.2,-.3,-.4,-.3h-2.3c-.2,0,-.4,.1,-.4,.3c0,.2,.2,.4,.4,.4m3.7,0h2.3c.2,0,.4,-.2,.4,-.4c0,-.2,-.2,-.3,-.4,-.3h-2.3c-.2,0,-.3,.1,-.3,.3c0,.2,.1,.4,.3,.4m3.8,0h2.2c.2,0,.4,-.2,.4,-.4c0,-.2,-.2,-.3,-.4,-.3h-2.2c-.2,0,-.4,.1,-.4,.3c0,.2,.2,.4,.4,.4m3.7,0h2.2c.2,0,.4,-.2,.4,-.4c0,-.2,-.2,-.3,-.4,-.3h-2.2c-.2,0,-.4,.1,-.4,.3c0,.2,.2,.4,.4,.4Z" class="ga_30"/>
<path d="M693.4,313.5h2.2c.2,0,.4,-.2,.4,-.4c0,-.2,-.2,-.3,-.4,-.3h-2.2c-.2,0,-.4,.1,-.4,.3c0,.2,.2,.4,.4,.4m3.7,0h2.2c.2,0,.4,-.2,.4,-.4c0,-.2,-.2,-.3,-.4,-.3h-2.2c-.2,0,-.4,.1,-.4,.3c0,.2,.2,.4,.4,.4m3.7,0h2.3c.2,0,.3,-.2,.3,-.4c0,-.2,-.1,-.3,-.3,-.3h-2.3c-.2,0,-.4,.1,-.4,.3c0,.2,.2,.4,.4,.4m3.7,0h2.3c.2,0,.4,-.2,.4,-.4c0,-.2,-.2,-.3,-.4,-.3h-2.3c-.2,0,-.4,.1,-.4,.3c0,.2,.2,.4,.4,.4m3.7,0h2.3c.2,0,.4,-.2,.4,-.4c0,-.2,-.2,-.3,-.4,-.3h-2.3c-.2,0,-.3,.1,-.3,.3c0,.2,.1,.4,.3,.4m3.8,0h2.2c.2,0,.4,-.2,.4,-.4c0,-.2,-.2,-.3,-.4,-.3H712c-.2,0,-.4,.1,-.4,.3c0,.2,.2,.4,.4,.4Z" class="ga_30"/>
<path d="M718.2,316.1v-.7c-1.1,0,-2,.9,-2,2.1v29.3h22.9V317.5c0,-1.2,-.9,-2.1,-2.1,-2.1H718.2v1.5H737c.3,0,.6,.2,.6,.6v27.8H717.7V317.5c0,-.4,.2,-.6,.5,-.6Z" class="ga_30"/>
<path d="M720.2,311.1v-.3c-.5,0,-1,.4,-1,1v4.6h16.9v-4.6c0,-.6,-.5,-1,-1,-1H720.2v.7h14.9c.1,0,.3,.1,.3,.3v3.9H719.9v-3.9c0,-.2,.1,-.3,.3,-.3Z" class="ga_30"/>
<path d="M725.1,338.2h-.4v7.6l.1,.3l.3,.1h5.2l.2,-.1l.1,-.3v-7.6l-.1,-.3l-.2,-.1h-5.2l-.3,.1l-.1,.3h.4v.4h4.8v6.9h-4.5v-7.3h-.3v.4Z" class="ga_30"/>
<path d="M732,338.2h-.4v4.1l.1,.3l.3,.1h4.1l.3,-.1l.1,-.3v-4.1l-.1,-.3l-.3,-.1H732l-.3,.1l-.1,.3h.4v.4h3.8v3.3h-3.4v-3.7H732v.4Z" class="ga_30"/>
<path d="M719.2,338.2h-.4v4.1l.1,.3l.3,.1h4.1l.3,-.1l.1,-.3v-4.1l-.1,-.3l-.3,-.1h-4.1l-.3,.1l-.1,.3h.4v.4h3.7v3.3h-3.3v-3.7h-.4v.4Z" class="ga_30"/>
<path d="M727.3,342.2h.8v-1h-.8v1Z" class="ga_30"/>
<path d="M732,331.9h-.4V336l.1,.3l.3,.1h4.1l.3,-.1l.1,-.3v-4.1l-.1,-.3l-.3,-.1H732l-.3,.1l-.1,.3h.4v.4h3.8v3.3h-3.4v-3.7H732v.4Z" class="ga_30"/>
<path d="M725.6,331.9h-.4V336l.1,.3l.3,.1h4.1l.3,-.1l.1,-.3v-4.1l-.1,-.3l-.3,-.1h-4.1l-.3,.1l-.1,.3h.4v.4h3.8v3.3H726v-3.7h-.4v.4Z" class="ga_30"/>
<path d="M719.2,331.9h-.4V336l.1,.3l.3,.1h4.1l.3,-.1l.1,-.3v-4.1l-.1,-.3l-.3,-.1h-4.1l-.3,.1l-.1,.3h.4v.4h3.7v3.3h-3.3v-3.7h-.4v.4Z" class="ga_30"/>
<path d="M732,325.6h-.4v4.1l.1,.3l.3,.1h4.1l.3,-.1l.1,-.3v-4.1l-.1,-.3l-.3,-.1H732l-.3,.1l-.1,.3h.4v.4h3.8v3.3h-3.4v-3.7H732v.4Z" class="ga_30"/>
<path d="M725.6,325.6h-.4v4.1l.1,.3l.3,.1h4.1l.3,-.1l.1,-.3v-4.1l-.1,-.3l-.3,-.1h-4.1l-.3,.1l-.1,.3h.4v.4h3.8v3.3H726v-3.7h-.4v.4Z" class="ga_30"/>
<path d="M719.2,325.6h-.4v4.1l.1,.3l.3,.1h4.1l.3,-.1l.1,-.3v-4.1l-.1,-.3l-.3,-.1h-4.1l-.3,.1l-.1,.3h.4v.4h3.7v3.3h-3.3v-3.7h-.4v.4Z" class="ga_30"/>
<path d="M732,319.3h-.4v4.1l.1,.2l.3,.1h4.1l.3,-.1l.1,-.2v-4.1l-.1,-.3l-.3,-.1H732l-.3,.1l-.1,.3h.4v.3h3.8V323h-3.4v-3.7H732v.3Z" class="ga_30"/>
<path d="M725.6,319.3h-.4v4.1l.1,.2l.3,.1h4.1l.3,-.1l.1,-.2v-4.1L730,319l-.3,-.1h-4.1l-.3,.1l-.1,.3h.4v.3h3.8V323H726v-3.7h-.4v.3Z" class="ga_30"/>
<path d="M719.2,319.3h-.4v4.1l.1,.2l.3,.1h4.1l.3,-.1l.1,-.2v-4.1l-.1,-.3l-.3,-.1h-4.1l-.3,.1l-.1,.3h.4v.3h3.7V323h-3.3v-3.7h-.4v.3Z" class="ga_30"/>
<path d="M722.8,312.2l-.2,-.2l-.5,.8l-.8,.2l-.2,.1l.1,.2l.5,.7v.8l.1,.2l.2,.1l.8,-.4l.7,.4l.3,-.1l.1,-.2l-.1,-.8l.5,-.7l.1,-.2l-.2,-.1l-.8,-.2L723,312l-.2,-.1l-.2,.1l.2,.2l-.2,.1l.4,.8l.2,.1l.5,.1l-.3,.5l-.1,.1l.1,.6l-.6,-.2h-.1l-.6,.2l.1,-.6l-.1,-.1l-.3,-.5l.5,-.1l.2,-.1l.5,-.8l-.2,-.1l-.2,.1Z" class="ga_30"/>
<path d="M727.6,312.2l-.2,-.2l-.4,.8l-.8,.2l-.2,.1l.1,.2l.5,.7l-.1,.8l.1,.2l.3,.1l.7,-.4l.8,.4l.2,-.1l.1,-.2V314l.5,-.7l.1,-.2l-.2,-.1l-.8,-.2l-.5,-.8l-.2,-.1l-.2,.1l.2,.2l-.2,.1l.5,.8l.2,.1l.5,.1l-.4,.5v.7l-.5,-.2h-.2l-.5,.2l.1,-.6l-.1,-.1l-.4,-.5l.6,-.1l.1,-.1l.5,-.8l-.2,-.1l-.2,.1Z" class="ga_30"/>
<path d="M732.5,312.2l-.2,-.2l-.4,.8l-.9,.2l-.1,.1v.2l.6,.7l-.1,.8l.1,.2l.2,.1l.8,-.4l.8,.4l.2,-.1l.1,-.2l-.1,-.8l.6,-.7v-.2L734,313l-.9,-.2l-.4,-.8l-.2,-.1l-.2,.1l.2,.2l-.2,.1l.5,.8l.1,.1l.6,.1l-.4,.5v.7l-.5,-.2h-.2l-.5,.2v-.7l-.4,-.5l.6,-.1l.1,-.1l.5,-.8l-.2,-.1l-.2,.1Z" class="ga_30"/>
<path d="M715.2,347.1h24.6c.5,0,.9,-.4,.9,-.9c0,-.5,-.4,-1,-.9,-1H715.2c-.5,0,-1,.5,-1,1c0,.5,.5,.9,1,.9Z" class="ga_30"/>
<path d="M727.5,338.1v7.4h.3v-7.4Z" class="ga_30"/>
<image clip-path="url(#c14_30)" preserveAspectRatio="none" x="602" y="350" width="80" height="31" xlink:href="img/56.jpg"/>
<image clip-path="url(#c15_30)" preserveAspectRatio="none" x="593" y="279" width="98" height="36" xlink:href="img/57.jpg"/>
<image clip-path="url(#c16_30)" preserveAspectRatio="none" x="593" y="315" width="98" height="36" xlink:href="img/58.jpg"/>
<image clip-path="url(#c17_30)" preserveAspectRatio="none" x="602" y="372" width="80" height="4" xlink:href="img/59.jpg"/>
<image clip-path="url(#c18_30)" preserveAspectRatio="none" x="592" y="350" width="11" height="31" xlink:href="img/60.jpg"/>
<image clip-path="url(#c19_30)" preserveAspectRatio="none" x="593" y="279" width="10" height="72" xlink:href="img/61.jpg"/>
<image clip-path="url(#c1a_30)" preserveAspectRatio="none" x="592" y="372" width="11" height="3" xlink:href="img/62.jpg"/>
<image clip-path="url(#c1b_30)" preserveAspectRatio="none" x="680" y="350" width="11" height="31" xlink:href="img/63.jpg"/>
<image clip-path="url(#c1c_30)" preserveAspectRatio="none" x="681" y="279" width="10" height="72" xlink:href="img/64.jpg"/>
<image clip-path="url(#c1d_30)" preserveAspectRatio="none" x="680" y="372" width="11" height="3" xlink:href="img/65.jpg"/>
<image clip-path="url(#c1e_30)" preserveAspectRatio="none" x="687" y="300" width="4" height="68" xlink:href="img/66.jpg"/>
<image clip-path="url(#c1f_30)" preserveAspectRatio="none" x="687" y="367" width="4" height="9" xlink:href="img/67.jpg"/>
<path d="M618.2,291.5c-10.1,0,-18.3,8.2,-18.3,18.3V374h79V309.8c0,-10.1,-8.2,-18.3,-18.3,-18.3Z" class="g3_30"/>
<path d="M599.8,374.8h79.1v-7.1H599.8v7.1Z" class="g8_30"/>
<path d="M606,317.7h2.2c.2,0,.4,-.2,.4,-.4c0,-.2,-.2,-.4,-.4,-.4H606c-.2,0,-.3,.2,-.3,.4c0,.2,.1,.4,.3,.4m3.6,0h2.2c.2,0,.3,-.2,.3,-.4c0,-.2,-.1,-.4,-.3,-.4h-2.2c-.2,0,-.4,.2,-.4,.4c0,.2,.2,.4,.4,.4m3.5,0h2.2c.2,0,.4,-.2,.4,-.4c0,-.2,-.2,-.4,-.4,-.4h-2.2c-.2,0,-.3,.2,-.3,.4c0,.2,.1,.4,.3,.4m3.6,0h2.2c.2,0,.3,-.2,.3,-.4c0,-.2,-.1,-.4,-.3,-.4h-2.2c-.2,0,-.4,.2,-.4,.4c0,.2,.2,.4,.4,.4m3.6,0h2.1c.2,0,.4,-.2,.4,-.4c0,-.2,-.2,-.4,-.4,-.4h-2.1c-.3,0,-.4,.2,-.4,.4c0,.2,.1,.4,.4,.4m3.5,0H626c.2,0,.4,-.2,.4,-.4c0,-.2,-.2,-.4,-.4,-.4h-2.2c-.2,0,-.4,.2,-.4,.4c0,.2,.2,.4,.4,.4m3.6,0h2.1c.2,0,.4,-.2,.4,-.4c0,-.2,-.2,-.4,-.4,-.4h-2.1c-.2,0,-.4,.2,-.4,.4c0,.2,.2,.4,.4,.4Z" class="gb_30"/>
<path d="M606,349.9h2.4c.2,0,.3,-.2,.3,-.4c0,-.2,-.1,-.3,-.3,-.3H606c-.2,0,-.3,.1,-.3,.3c0,.2,.1,.4,.3,.4m3.9,0h2.3c.3,0,.4,-.2,.4,-.4c0,-.2,-.1,-.3,-.4,-.3h-2.3c-.2,0,-.4,.1,-.4,.3c0,.2,.2,.4,.4,.4m3.9,0h2.3c.2,0,.4,-.2,.4,-.4c0,-.2,-.2,-.3,-.4,-.3h-2.3c-.2,0,-.4,.1,-.4,.3c0,.2,.2,.4,.4,.4m3.9,0H620c.2,0,.4,-.2,.4,-.4c0,-.2,-.2,-.3,-.4,-.3h-2.3c-.2,0,-.4,.1,-.4,.3c0,.2,.2,.4,.4,.4m3.9,0h2.3c.2,0,.4,-.2,.4,-.4c0,-.2,-.2,-.3,-.4,-.3h-2.3c-.2,0,-.4,.1,-.4,.3c0,.2,.2,.4,.4,.4m3.9,0h2.3c.2,0,.4,-.2,.4,-.4c0,-.2,-.2,-.3,-.4,-.3h-2.3c-.3,0,-.4,.1,-.4,.3c0,.2,.1,.4,.4,.4m3.8,0h2.4c.2,0,.3,-.2,.3,-.4c0,-.2,-.1,-.3,-.3,-.3h-2.4c-.2,0,-.3,.1,-.3,.3c0,.2,.1,.4,.3,.4m3.9,0h2.3c.2,0,.4,-.2,.4,-.4c0,-.2,-.2,-.3,-.4,-.3h-2.3c-.2,0,-.4,.1,-.4,.3c0,.2,.2,.4,.4,.4m3.9,0h2.3c.2,0,.4,-.2,.4,-.4c0,-.2,-.2,-.3,-.4,-.3h-2.3c-.2,0,-.4,.1,-.4,.3c0,.2,.2,.4,.4,.4m3.9,0h2.3c.2,0,.4,-.2,.4,-.4c0,-.2,-.2,-.3,-.4,-.3H641c-.2,0,-.4,.1,-.4,.3c0,.2,.2,.4,.4,.4m3.9,0h2.3c.2,0,.4,-.2,.4,-.4c0,-.2,-.2,-.3,-.4,-.3h-2.3c-.2,0,-.4,.1,-.4,.3c0,.2,.2,.4,.4,.4m3.8,0h2.4c.2,0,.3,-.2,.3,-.4c0,-.2,-.1,-.3,-.3,-.3h-2.4c-.2,0,-.3,.1,-.3,.3c0,.2,.1,.4,.3,.4m3.9,0h2.3c.3,0,.4,-.2,.4,-.4c0,-.2,-.1,-.3,-.4,-.3h-2.3c-.2,0,-.4,.1,-.4,.3c0,.2,.2,.4,.4,.4m3.9,0h2.3c.2,0,.4,-.2,.4,-.4c0,-.2,-.2,-.3,-.4,-.3h-2.3c-.2,0,-.4,.1,-.4,.3c0,.2,.2,.4,.4,.4m3.9,0h2.3c.2,0,.4,-.2,.4,-.4c0,-.2,-.2,-.3,-.4,-.3h-2.3c-.2,0,-.4,.1,-.4,.3c0,.2,.2,.4,.4,.4m3.9,0h2.3c.2,0,.4,-.2,.4,-.4c0,-.2,-.2,-.3,-.4,-.3h-2.3c-.2,0,-.4,.1,-.4,.3c0,.2,.2,.4,.4,.4m3.9,0h2.3c.2,0,.4,-.2,.4,-.4c0,-.2,-.2,-.3,-.4,-.3h-2.3c-.3,0,-.4,.1,-.4,.3c0,.2,.1,.4,.4,.4m3.8,0h2.4c.2,0,.3,-.2,.3,-.4c0,-.2,-.1,-.3,-.3,-.3H672c-.2,0,-.3,.1,-.3,.3c0,.2,.1,.4,.3,.4Z" class="gb_30"/>
<path d="M652.8,317.7h2.3c.2,0,.4,-.2,.4,-.4c0,-.2,-.2,-.4,-.4,-.4h-2.3c-.2,0,-.4,.2,-.4,.4c0,.2,.2,.4,.4,.4m3.9,0H659c.2,0,.4,-.2,.4,-.4c0,-.2,-.2,-.4,-.4,-.4h-2.3c-.2,0,-.4,.2,-.4,.4c0,.2,.2,.4,.4,.4m3.8,0h2.3c.2,0,.4,-.2,.4,-.4c0,-.2,-.2,-.4,-.4,-.4h-2.3c-.2,0,-.4,.2,-.4,.4c0,.2,.2,.4,.4,.4m3.9,0h2.3c.2,0,.3,-.2,.3,-.4c0,-.2,-.1,-.4,-.3,-.4h-2.3c-.3,0,-.4,.2,-.4,.4c0,.2,.1,.4,.4,.4m3.8,0h2.3c.2,0,.4,-.2,.4,-.4c0,-.2,-.2,-.4,-.4,-.4h-2.3c-.2,0,-.4,.2,-.4,.4c0,.2,.2,.4,.4,.4m3.9,0h2.3c.2,0,.3,-.2,.3,-.4c0,-.2,-.1,-.4,-.3,-.4h-2.3c-.3,0,-.4,.2,-.4,.4c0,.2,.1,.4,.4,.4Z" class="gb_30"/>
<path d="M649.4,329.3c0,3.4,-.1,6.8,0,10.2c.1,3.1,-1.4,5.4,-4.5,6.7c-3.3,1.4,-6.5,1.2,-9.5,-.7c-.4,-.2,-.9,-.5,-1.1,-.9c-.2,-.2,-.1,-.6,0,-.9c.2,-.1,.7,-.1,1,0c.2,.1,.4,.3,.6,.5c3.1,2.2,8,1.9,10.5,-.7c1.1,-1.1,1.5,-2.4,1.5,-3.9c0,-6.8,-.1,-13.6,0,-20.4c0,-2.5,-1.1,-4.4,-3.6,-5.5c-2.6,-1.2,-5.3,-1.1,-7.8,.4c-.3,.2,-.6,.4,-.9,.6c-.4,.4,-.9,.5,-1.2,.1c-.2,-.3,-.1,-.9,.2,-1.1c1.1,-1,2.5,-1.6,4.1,-1.9c4.7,-1,9.6,1.5,10.5,5.4c.2,.6,.2,1.2,.2,1.7c0,3.5,0,7,0,10.4Z" class="gb_30"/>
<path d="M634.3,321.5c-1.7,-.3,-2.2,-1.5,-1.5,-3c.5,-1.1,1.3,-1.5,2.4,-1.8c1.5,-.5,3.2,-.6,4.7,-.1c2,.6,3.2,2.5,3,4.5c-.2,1.9,-1.8,3.6,-3.7,3.9c-2.1,.2,-4,-.9,-4.7,-2.8c-.1,-.3,-.1,-.5,-.2,-.7m7.1,0c-1.4,-.5,-1.6,-.6,-2.3,-1.9c-.1,-.3,-.3,-.6,-.4,-.8c-.7,-1,-1.4,-1,-2.2,-.2c-.9,.8,-1.1,2.1,-.6,3.2c.5,1.2,1.5,1.8,2.8,1.8c1.3,0,2.2,-.8,2.7,-2.1m.1,-1.7c.1,-1,-1.8,-1.6,-1.8,-1.6c.5,1.8,1.7,2.2,1.8,1.6M635,318.1c-1.9,.8,-.9,2.3,-.8,1.9c0,0,.2,-1.2,.8,-1.9Z" class="gb_30"/>
<path d="M634.3,330.8c-1.7,-.3,-2.2,-1.4,-1.5,-3c.5,-1,1.3,-1.5,2.4,-1.8c1.5,-.5,3.2,-.6,4.7,-.1c2,.6,3.2,2.5,3,4.5c-.2,2,-1.8,3.7,-3.7,3.9c-2.1,.2,-4,-.9,-4.7,-2.8c-.1,-.2,-.1,-.5,-.2,-.7m7.1,0c-1.4,-.5,-1.6,-.6,-2.3,-1.9c-.1,-.3,-.3,-.5,-.4,-.8c-.7,-1,-1.4,-1,-2.2,-.2c-.9,.9,-1.1,2.2,-.6,3.3c.5,1.1,1.5,1.8,2.8,1.7c1.3,0,2.2,-.7,2.7,-2.1m.1,-1.7c.1,-.9,-1.8,-1.6,-1.8,-1.6c.5,1.8,1.7,2.2,1.8,1.6M635,327.5c-1.9,.8,-.9,2.2,-.8,1.9c0,0,.2,-1.3,.8,-1.9Z" class="gb_30"/>
<path d="M634.3,339.9c-1.7,-.3,-2.2,-1.4,-1.5,-3c.5,-1,1.3,-1.5,2.4,-1.8c1.5,-.5,3.2,-.6,4.7,-.1c2,.6,3.2,2.5,3,4.5c-.2,2,-1.8,3.7,-3.7,3.9c-2.1,.2,-4,-.9,-4.7,-2.8c-.1,-.2,-.1,-.5,-.2,-.7m7.1,0c-1.4,-.5,-1.6,-.6,-2.3,-1.9c-.1,-.2,-.3,-.5,-.4,-.8c-.7,-.9,-1.4,-1,-2.2,-.2c-.9,.9,-1.1,2.2,-.6,3.3c.5,1.1,1.5,1.8,2.8,1.7c1.3,0,2.2,-.7,2.7,-2.1m.1,-1.6c.1,-1,-1.8,-1.7,-1.8,-1.7c.5,1.8,1.7,2.2,1.8,1.7M635,336.6c-1.9,.8,-.9,2.2,-.8,1.9c0,0,.2,-1.2,.8,-1.9Z" class="gb_30"/>
<path d="M630.5,334.4l-5.3,-5.5c-.2,-.3,-.6,-.3,-.9,-.1c-.2,.3,-.3,.7,0,.9l5.3,5.6c.2,.2,.6,.2,.8,0c.3,-.3,.3,-.7,.1,-.9Z" class="gb_30"/>
<path d="M630.5,342l-5.3,5.6c-.2,.2,-.6,.2,-.9,0c-.2,-.2,-.3,-.6,0,-.9l5.3,-5.5c.2,-.3,.6,-.3,.8,-.1c.3,.3,.3,.7,.1,.9Z" class="gb_30"/>
<path d="M629.3,336.4L622,335c-.3,-.1,-.7,.1,-.7,.5c-.1,.3,.1,.6,.5,.7l7.2,1.4c.4,.1,.7,-.1,.7,-.5c.1,-.3,-.1,-.6,-.4,-.7Z" class="gb_30"/>
<path d="M629.3,340l-7.3,1.4c-.3,.1,-.7,-.1,-.7,-.4c-.1,-.4,.1,-.7,.5,-.8l7.2,-1.4c.4,-.1,.7,.2,.7,.5c.1,.3,-.1,.7,-.4,.7Z" class="gb_30"/>
<path d="M890,1286.2h19.4V0H890V1286.2Z" class="g3_30"/>
</svg>