<?xml version="1.0" encoding="UTF-8" standalone="no"?>
<!DOCTYPE svg PUBLIC "-//W3C//DTD SVG 1.1//EN"
"http://www.w3.org/Graphics/SVG/1.1/DTD/svg11.dtd">
<svg viewBox="0 0 1818 1286" version="1.1" xmlns="http://www.w3.org/2000/svg" xmlns:xlink="http://www.w3.org/1999/xlink">
<defs>
<clipPath id="c0_48"><path d="M1389.1,1249.2c-90.1,0,-163,-72.9,-163,-163c0,-90,72.9,-163,163,-163c90,0,163,73,163,163c0,90.1,-73,163,-163,163Z"/></clipPath>
<clipPath id="c1_48"><path d="M1366.8,658.8c-90,0,-163,-73,-163,-163c0,-80,57.7,-146.6,133.7,-160.4l18.5,-2.2c3.5,-.3,7.1,-.4,10.8,-.4c90,0,163,73,163,163c0,90,-73,163,-163,163Z"/></clipPath>
<clipPath id="c2_48"><path d="M1632.4,928.8c-90,0,-163,-73,-163,-163c0,-90.1,73,-163,163,-163c90,0,163,72.9,163,163c0,90,-73,163,-163,163Z"/></clipPath>
<clipPath id="c3_48"><path d="M1612.6,377.5c-90.1,0,-163,-73,-163,-163c0,-90.1,72.9,-163,163,-163c90,0,163,72.9,163,163c0,90,-73,163,-163,163Z"/></clipPath>
<style type="text/css"><![CDATA[
.g0_48{
fill: #252123;
}
.g1_48{
fill: none;
stroke: #FFF;
stroke-width: 3.765;
}
.g2_48{
fill: none;
stroke: #FFF;
stroke-width: 0.47;
}
.g3_48{
fill: none;
stroke: #FFF;
stroke-width: 0.763;
}
.g4_48{
fill: #000;
}
.g5_48{
fill: #FFF;
}
.g6_48{
fill: none;
stroke: #0080B5;
stroke-width: 0.47;
}
.g7_48{
fill: #004487;
}
]]></style>
</defs>
<path d="M1364.2,1286.2h454.7V0H1364.2V1286.2Z" class="g0_48"/>
<image clip-path="url(#c0_48)" preserveAspectRatio="none" x="1226" y="923" width="326" height="326" xlink:href="img/1.jpg"/>
<path d="M1389.1,1249.2c90,0,163,-72.9,163,-163c0,-90,-73,-163,-163,-163c-90.1,0,-163,73,-163,163c0,90.1,72.9,163,163,163Z" class="g1_48"/>
<path d="M1389.1,1232.4c80.8,0,146.3,-65.5,146.3,-146.3c0,-80.8,-65.5,-146.3,-146.3,-146.3c-80.8,0,-146.3,65.5,-146.3,146.3c0,80.8,65.5,146.3,146.3,146.3Z" class="g2_48"/>
<image clip-path="url(#c1_48)" preserveAspectRatio="none" x="1166" y="312" width="403" height="387" xlink:href="img/2.png"/>
<path d="M1366.8,658.8c90,0,163,-73,163,-163c0,-90,-73,-163,-163,-163c-90,0,-163,73,-163,163c0,90,73,163,163,163Z" class="g1_48"/>
<path d="M1366.8,642c80.8,0,146.3,-65.5,146.3,-146.3c0,-80.8,-65.5,-146.3,-146.3,-146.3c-80.8,0,-146.3,65.5,-146.3,146.3c0,80.8,65.5,146.3,146.3,146.3Z" class="g2_48"/>
<image clip-path="url(#c2_48)" preserveAspectRatio="none" x="1469" y="603" width="326" height="326" xlink:href="img/3.jpg"/>
<path d="M1632.4,928.8c90,0,163,-73,163,-163c0,-90.1,-73,-163,-163,-163c-90.1,0,-163,72.9,-163,163c0,90,72.9,163,163,163Z" class="g1_48"/>
<path d="M1632.4,912c80.8,0,146.3,-65.5,146.3,-146.3c0,-80.8,-65.5,-146.3,-146.3,-146.3c-80.8,0,-146.3,65.5,-146.3,146.3c0,80.8,65.5,146.3,146.3,146.3Z" class="g3_48"/>
<path d="M1566.6,639.3c2.5,0,4.5,-2,4.5,-4.5c0,-2.5,-2,-4.5,-4.5,-4.5c-2.4,0,-4.5,2,-4.5,4.5c0,2.5,2.1,4.5,4.5,4.5Z" class="g4_48"/>
<path d="M1612.6,360.7c80.8,0,146.3,-65.5,146.3,-146.3c0,-80.8,-65.5,-146.3,-146.3,-146.3c-80.8,0,-146.3,65.5,-146.3,146.3c0,80.8,65.5,146.3,146.3,146.3Z" class="g3_48"/>
<path d="M1473.8,270.8c3.4,0,6.1,-2.7,6.1,-6c0,-3.4,-2.7,-6.1,-6.1,-6.1c-3.3,0,-6.1,2.7,-6.1,6.1c0,3.3,2.8,6,6.1,6Z" class="g5_48"/>
<path d="M1473.8,270.8c3.4,0,6.1,-2.7,6.1,-6c0,-3.4,-2.7,-6.1,-6.1,-6.1c-3.3,0,-6.1,2.7,-6.1,6.1c0,3.3,2.8,6,6.1,6Z" class="g6_48"/>
<path d="M1612.6,377.5c90,0,163,-73,163,-163c0,-90.1,-73,-163,-163,-163c-90.1,0,-163,72.9,-163,163c0,90,72.9,163,163,163Z" class="g7_48"/>
<image clip-path="url(#c3_48)" preserveAspectRatio="none" x="1430" y="90" width="434" height="289" xlink:href="img/4.png"/>
<path d="M1612.6,377.5c90,0,163,-73,163,-163c0,-90.1,-73,-163,-163,-163c-90.1,0,-163,72.9,-163,163c0,90,72.9,163,163,163Z" class="g1_48"/>
<path d="M1612.6,360.8c80.8,0,146.3,-65.5,146.3,-146.3c0,-80.8,-65.5,-146.3,-146.3,-146.3c-80.8,0,-146.3,65.5,-146.3,146.3c0,80.8,65.5,146.3,146.3,146.3Z" class="g3_48"/>
<path d="M1461.2,390.2c2.4,0,4.4,-2.1,4.4,-4.5c0,-2.5,-2,-4.5,-4.4,-4.5c-2.5,0,-4.5,2,-4.5,4.5c0,2.4,2,4.5,4.5,4.5Z" class="g4_48"/>
<path d="M1558.7,82.2c2.4,0,4.5,-2,4.5,-4.5c0,-2.5,-2.1,-4.5,-4.5,-4.5c-2.5,0,-4.5,2,-4.5,4.5c0,2.5,2,4.5,4.5,4.5Z" class="g4_48"/>
<path d="M1479.8,975.4c2.5,0,4.5,-2,4.5,-4.5c0,-2.5,-2,-4.5,-4.5,-4.5c-2.5,0,-4.5,2,-4.5,4.5c0,2.5,2,4.5,4.5,4.5Z" class="g4_48"/>
<path d="M97.8,83H74.6C72.6,83,71,81.4,71,79.5V76.1c0,-.4,.3,-.7,.7,-.7H95.6c.2,0,.4,.1,.6,.3c.1,.2,.1,.4,.1,.6c-.7,1.8,-.8,3.2,-.3,4.1c.3,.6,1,1.1,2,1.3c.3,.1,.5,.4,.5,.7c-.1,.4,-.3,.6,-.7,.6M72.4,76.8v2.7c0,1.2,1,2.2,2.2,2.2H95.3c-.2,-.2,-.4,-.4,-.5,-.7c-.6,-1.1,-.6,-2.5,-.1,-4.2Z" class="g4_48"/>
<path d="M98.3,83H74.6c-.4,0,-.7,-.3,-.7,-.7c0,-.3,.3,-.6,.7,-.6H98.3c1.7,0,3.1,-1.4,3.1,-3.1V49.8c0,-1.1,.3,-2.1,.8,-2.8H78c-1.5,0,-2.7,1,-2.7,2.2v3.4c0,.4,-.3,.7,-.7,.7c-.4,0,-.7,-.3,-.7,-.7V49.2c0,-1.9,1.8,-3.5,4.1,-3.5h26.6c.4,0,.7,.3,.7,.7c0,.3,-.3,.6,-.7,.6c-1.3,0,-1.8,1.5,-1.8,2.8V78.6c0,2.4,-2,4.4,-4.5,4.4Z" class="g4_48"/>
<path d="M74.6,76.8c-.4,0,-.7,-.3,-.7,-.7V52.5c0,-.4,.3,-.7,.7,-.7c.4,0,.7,.3,.7,.7V76.1c0,.4,-.3,.7,-.7,.7Z" class="g4_48"/>
<path d="M107.6,53.5h-5.4c-.3,0,-.6,-.3,-.6,-.7c0,-.4,.3,-.7,.6,-.7h4.7V49.8c0,-.9,-.2,-1.7,-.5,-2.1c-.4,-.4,-1.1,-.7,-2.2,-.7c-.4,0,-.7,-.3,-.7,-.6c0,-.4,.3,-.7,.7,-.7c1.5,0,2.6,.4,3.3,1.2c.7,.9,.8,2.3,.8,2.9v3c0,.4,-.3,.7,-.7,.7Z" class="g4_48"/>
<path d="M96.8,55.3H87.6c-.4,0,-.7,-.3,-.7,-.6c0,-.4,.3,-.7,.7,-.7h9.2c.3,0,.6,.3,.6,.7c0,.3,-.3,.6,-.6,.6Z" class="g4_48"/>
<path d="M83.1,55.3H79.4c-.4,0,-.7,-.3,-.7,-.6c0,-.4,.3,-.7,.7,-.7h3.7c.4,0,.7,.3,.7,.7c0,.3,-.3,.6,-.7,.6Z" class="g4_48"/>
<path d="M96.8,60.6H93.6c-.4,0,-.7,-.3,-.7,-.6c0,-.4,.3,-.7,.7,-.7h3.2c.3,0,.6,.3,.6,.7c0,.3,-.3,.6,-.6,.6Z" class="g4_48"/>
<path d="M89.6,60.6H79.4c-.4,0,-.7,-.3,-.7,-.6c0,-.4,.3,-.7,.7,-.7H89.6c.4,0,.7,.3,.7,.7c0,.3,-.3,.6,-.7,.6Z" class="g4_48"/>
<path d="M96.8,65.9H90.1c-.4,0,-.7,-.3,-.7,-.7c0,-.3,.3,-.6,.7,-.6h6.7c.3,0,.6,.3,.6,.6c0,.4,-.3,.7,-.6,.7Z" class="g4_48"/>
<path d="M85.3,65.9H79.4c-.4,0,-.7,-.3,-.7,-.7c0,-.3,.3,-.6,.7,-.6h5.9c.4,0,.7,.3,.7,.6c0,.4,-.3,.7,-.7,.7Z" class="g4_48"/>
<path d="M96.8,71.2H79.4c-.4,0,-.7,-.3,-.7,-.7c0,-.3,.3,-.6,.7,-.6H96.8c.3,0,.6,.3,.6,.6c0,.4,-.3,.7,-.6,.7Z" class="g4_48"/>
</svg>