<?xml version="1.0" encoding="UTF-8" standalone="no"?>
<!DOCTYPE svg PUBLIC "-//W3C//DTD SVG 1.1//EN"
"http://www.w3.org/Graphics/SVG/1.1/DTD/svg11.dtd">
<svg viewBox="0 0 1818 1286" version="1.1" xmlns="http://www.w3.org/2000/svg" xmlns:xlink="http://www.w3.org/1999/xlink">
<defs>
<clipPath id="c0_9"><path d="M909.4,643.1V130.4h909.5V643.1Z"/></clipPath>
<clipPath id="c1_9"><path d="M0,1286.2V0H1818.9V1286.2Z"/></clipPath>
<clipPath id="c2_9"><path d="M737.5,259.9c-62.9,0,-114,-51.1,-114,-114.1c0,-62.9,51.1,-114,114,-114c63,0,114.1,51.1,114.1,114c0,63,-51.1,114.1,-114.1,114.1Z"/></clipPath>
<clipPath id="c3_9"><path d="M1609.2,834.9c-65.6,0,-118.8,-53.2,-118.8,-118.8c0,-65.6,53.2,-118.8,118.8,-118.8c65.6,0,118.8,53.2,118.8,118.8c0,65.6,-53.2,118.8,-118.8,118.8Z"/></clipPath>
<style type="text/css"><![CDATA[
.g0_9{
fill: #252123;
}
.g1_9{
fill: #FFF;
}
.g2_9{
fill: none;
stroke: #CCC;
stroke-width: 0.381;
stroke-miterlimit: 10;
}
.g3_9{
fill: none;
stroke: #FFF;
stroke-width: 1.527;
stroke-miterlimit: 10;
}
.g4_9{
fill: none;
stroke: #D9D7D6;
stroke-width: 0.763;
stroke-miterlimit: 10;
}
.g5_9{
fill: none;
stroke: #252123;
stroke-width: 1.527;
}
.g6_9{
fill: #000;
}
.g7_9{
fill: none;
stroke: #000;
stroke-width: 3.961;
}
.g8_9{
fill: none;
stroke: #000;
stroke-width: 0.495;
}
.g9_9{
fill: none;
stroke: #000;
stroke-width: 3.164;
}
.ga_9{
fill: none;
stroke: #000;
stroke-width: 0.395;
}
]]></style>
</defs>
<image clip-path="url(#c0_9)" preserveAspectRatio="none" x="909" y="130" width="910" height="513" xlink:href="img/1.jpg"/>
<path d="M909.4,742.4h909.5V643.1H909.4v99.3Z" class="g0_9"/>
<image clip-path="url(#c1_9)" preserveAspectRatio="none" x="0" y="869" width="911" height="417" xlink:href="img/2.png"/>
<path d="M974.9,958.2h268v52h-268v-52Zm268,0h112.2v52H1242.9v-52Z" class="g0_9"/>
<path d="M974.9,1010.2h268v42.9h-268v-42.9Zm268,0h112.2v171.4H1242.9V1010.2Zm-268,42.9h268v42.8h-268v-42.8Zm0,42.8h268v42.9h-268v-42.9Zm0,42.9h268v42.8h-268v-42.8Z" class="g1_9"/>
<path d="M974.7,958.2h268.2m-268,51.6V958.4m268,-.2h112.4m-.2,51.6V958.4" class="g2_9"/>
<path d="M1242.9,1009.8V958.4" class="g3_9"/>
<path d="M974.5,1010.2h268.4m-268,42.5v-42.1m268,-.4h112.6m-.4,42.9v-42.5m0,85.3v-42.8m0,85.7v-42.9m0,85.4v-42.5m-112.2,42.8h112.6m-381,-128.5h268.8m-268.4,42.4v-42.1m-.4,42.5h268.8m-268.4,42.5v-42.1m-.4,42.5h268.8m-268.4,42.5v-42.1m-.4,42.4h268.4m0,-128.9v-42.1m0,84.9v-42.1m0,85v-42.1m0,85v-42.1" class="g4_9"/>
<path d="M0,130.4H1818.9V0H0V130.4Z" class="g0_9"/>
<path d="M980.1,759.8c0,0,-3.5,0,-3.5,3.5v61.5c0,0,0,3.5,3.5,3.5h169.1c0,0,3.4,0,3.4,-3.5V763.3c0,0,0,-3.5,-3.4,-3.5Z" class="g1_9"/>
<path d="M980.1,759.8c0,0,-3.5,0,-3.5,3.5v61.5c0,0,0,3.5,3.5,3.5h169.1c0,0,3.4,0,3.4,-3.5V763.3c0,0,0,-3.5,-3.4,-3.5H980.1Z" class="g5_9"/>
<path d="M1085.6,804.2c-.3,0,-.6,-.3,-.6,-.7c0,-.3,.3,-.6,.6,-.6h38c2.8,0,5.1,-2.5,5.1,-5.5c0,-1.8,-.8,-3.5,-2.2,-4.5v-.1l-7.9,-7.4c-5.2,-3.9,-11.2,-5.9,-17.4,-5.9h-15.6c-.3,0,-.6,-.3,-.6,-.6c0,-.4,.3,-.7,.6,-.7h15.6c6.5,0,12.7,2.2,18.1,6.2l7.9,7.5c1.7,1.2,2.7,3.3,2.7,5.5c0,3.7,-2.8,6.8,-6.3,6.8Z" class="g6_9"/>
<path d="M1124.5,790.8l-22.8,-1.6c-1.1,0,-2,-1,-2,-2.2v-1.7c0,-1.2,.9,-2.2,2,-2.2h15.5c.3,0,.6,.3,.6,.6c0,.4,-.3,.6,-.6,.6h-15.5c-.5,0,-.9,.5,-.9,1V787c0,.5,.4,1,.9,1l22.8,1.5c.2,0,.3,.1,.4,.2c.1,.1,.2,.3,.2,.5c0,.3,-.3,.6,-.6,.6Z" class="g6_9"/>
<path d="M1094.7,789.2c-1.3,0,-2.3,-1.1,-2.3,-2.4v-1.2c0,-1.4,1,-2.5,2.3,-2.5h1.1c1.3,0,2.3,1.1,2.3,2.5v1.2c0,1.3,-1,2.4,-2.3,2.4Zm0,-4.9c-.6,0,-1.1,.6,-1.1,1.3v1.2c0,.6,.5,1.2,1.1,1.2h1.1c.6,0,1.2,-.6,1.2,-1.2v-1.2c0,-.7,-.6,-1.3,-1.2,-1.3Z" class="g6_9"/>
<path d="M1087.6,789.2c-1.2,0,-2.2,-1.1,-2.2,-2.4v-1.2c0,-1.4,1,-2.5,2.2,-2.5h1.2c1.2,0,2.2,1.1,2.2,2.5v1.2c0,1.3,-1,2.4,-2.2,2.4Zm0,-4.9c-.6,0,-1.1,.6,-1.1,1.3v1.2c0,.6,.5,1.2,1.1,1.2h1.2c.6,0,1.1,-.6,1.1,-1.2v-1.2c0,-.7,-.5,-1.3,-1.1,-1.3Z" class="g6_9"/>
<path d="M1085.4,812.2c-.3,0,-.6,-.3,-.6,-.6c0,-.4,.3,-.7,.6,-.7h42c.3,0,.5,.3,.5,.7c0,.3,-.2,.6,-.5,.6Z" class="g6_9"/>
<path d="M1091.9,806.8c-1.4,0,-2.5,-1.4,-2.5,-3.3c0,-.3,.3,-.6,.6,-.6c.3,0,.6,.3,.6,.6c0,1.2,.6,2.1,1.3,2.1h11.3c.7,0,1.3,-.9,1.3,-2.1c0,-.3,.3,-.6,.6,-.6c.3,0,.6,.3,.6,.6c0,1.9,-1.1,3.3,-2.5,3.3Z" class="g6_9"/>
<path d="M1107,806.8c-1.4,0,-2.5,-1.4,-2.5,-3.3c0,-.3,.3,-.6,.6,-.6c.3,0,.6,.3,.6,.6c0,1.2,.6,2.1,1.3,2.1h11.3c.7,0,1.3,-.9,1.3,-2.1c0,-.3,.3,-.6,.6,-.6c.3,0,.6,.3,.6,.6c0,1.9,-1.1,3.3,-2.5,3.3Z" class="g6_9"/>
<path d="M737.5,272.5c70,0,126.7,-56.7,126.7,-126.6C864.2,76,807.5,19.3,737.5,19.3C667.6,19.3,610.9,76,610.9,145.9c0,69.9,56.7,126.6,126.6,126.6Z" class="g1_9"/>
<path d="M737.5,272.5c70,0,126.7,-56.7,126.7,-126.6C864.2,76,807.5,19.3,737.5,19.3C667.6,19.3,610.9,76,610.9,145.9c0,69.9,56.7,126.6,126.6,126.6Z" class="g7_9"/>
<image clip-path="url(#c2_9)" preserveAspectRatio="none" x="623" y="32" width="229" height="228" xlink:href="img/3.jpg"/>
<path d="M737.5,259.9c63,0,114.1,-51.1,114.1,-114.1c0,-62.9,-51.1,-114,-114.1,-114c-62.9,0,-114,51.1,-114,114c0,63,51.1,114.1,114,114.1Z" class="g8_9"/>
<path d="M623.9,165.2c2.7,0,4.9,-2.2,4.9,-4.9c0,-2.7,-2.2,-4.9,-4.9,-4.9c-2.7,0,-4.9,2.2,-4.9,4.9c0,2.7,2.2,4.9,4.9,4.9Z" class="g6_9"/>
<path d="M1609.2,848.5c73.1,0,132.3,-59.3,132.3,-132.3c0,-73.1,-59.2,-132.3,-132.3,-132.3c-73.1,0,-132.3,59.2,-132.3,132.3c0,73,59.2,132.3,132.3,132.3Z" class="g1_9"/>
<path d="M1609.2,848.5c73.1,0,132.3,-59.3,132.3,-132.3c0,-73.1,-59.2,-132.3,-132.3,-132.3c-73.1,0,-132.3,59.2,-132.3,132.3c0,73,59.2,132.3,132.3,132.3Z" class="g9_9"/>
<image clip-path="url(#c3_9)" preserveAspectRatio="none" x="1490" y="597" width="238" height="238" xlink:href="img/4.jpg"/>
<path d="M1609.2,834.9c65.6,0,118.8,-53.2,118.8,-118.8c0,-65.6,-53.2,-118.8,-118.8,-118.8c-65.6,0,-118.8,53.2,-118.8,118.8c0,65.6,53.2,118.8,118.8,118.8Z" class="ga_9"/>
<path d="M1539,815c3,0,5.4,-2.4,5.4,-5.4c0,-3,-2.4,-5.4,-5.4,-5.4c-3,0,-5.4,2.4,-5.4,5.4c0,3,2.4,5.4,5.4,5.4Z" class="g6_9"/>
</svg>