<?xml version="1.0" encoding="UTF-8" standalone="no"?>
<!DOCTYPE svg PUBLIC "-//W3C//DTD SVG 1.1//EN"
"http://www.w3.org/Graphics/SVG/1.1/DTD/svg11.dtd">
<svg viewBox="0 0 909 1286" version="1.1" xmlns="http://www.w3.org/2000/svg" xmlns:xlink="http://www.w3.org/1999/xlink">
<defs>
<clipPath id="c0_8"><path d="M5.8,1072.4v-38H28.6v38Z"/></clipPath>
<clipPath id="c1_8"><path d="M39,1247.2V0H909.4V1247.2Z"/></clipPath>
<clipPath id="c2_8"><path d="M603.5,597.6V147.2H909.4V597.6Z"/></clipPath>
<clipPath id="c3_8"><path d="M584.1,595V574.6h-132V595ZM39,597.6V147.2H589.7V597.6Z"/></clipPath>
<clipPath id="c4_8"><path d="M452.1,595V574.6h132V595Z"/></clipPath>
<style type="text/css"><![CDATA[
.g0_8{
fill: #4BC0B5;
}
.g1_8{
fill: #8FD3D3;
}
.g2_8{
fill: #DCDDDE;
}
.g3_8{
fill: #4D4D4F;
}
.g4_8{
fill: #58595B;
}
.g5_8{
fill: #949698;
}
]]></style>
</defs>
<path d="M0,1286.2H29.9V1029H0v257.2Z" class="g0_8"/>
<image clip-path="url(#c0_8)" preserveAspectRatio="none" x="6" y="1034" width="23" height="39" xlink:href="img/1.jpg"/>
<path clip-path="url(#c1_8)" d="M910.2,1263.8h598.9V598.4H910.2v665.4Z" class="g1_8"/>
<path d="M39,1247.2H308.2V148.8H39V1247.2Z" class="g2_8"/>
<path d="M603.5,597.6H909.4V147.2H603.5V597.6Z" class="g1_8"/>
<image clip-path="url(#c2_8)" preserveAspectRatio="none" x="602" y="147" width="616" height="451" xlink:href="img/2.jpg"/>
<path d="M39,597.6H589.7V147.2H39V597.6Z" class="g1_8"/>
<image clip-path="url(#c3_8)" preserveAspectRatio="none" x="39" y="147" width="551" height="451" xlink:href="img/3.jpg"/>
<image clip-path="url(#c4_8)" preserveAspectRatio="none" x="452" y="574" width="132" height="21" xlink:href="img/4.jpg"/>
<path clip-path="url(#c1_8)" d="M68.8,54.3h-30V84.4h30V54.3Z" class="g3_8"/>
<path d="M42.8,848v0c.5,0,.8,-.4,.8,-.8c0,-.4,-.3,-.7,-.8,-.7c-.4,0,-.7,.3,-.7,.7c0,.4,.3,.8,.7,.8m3.1,0v0c.4,0,.7,-.4,.7,-.8c0,-.4,-.3,-.7,-.7,-.7c-.4,0,-.8,.3,-.8,.7c0,.4,.4,.8,.8,.8m3,0v0c.4,0,.8,-.4,.8,-.8c0,-.4,-.4,-.7,-.8,-.7c-.4,0,-.7,.3,-.7,.7c0,.4,.3,.8,.7,.8m3.1,0v0c.4,0,.7,-.4,.7,-.8c0,-.4,-.3,-.7,-.7,-.7c-.5,0,-.8,.3,-.8,.7c0,.4,.3,.8,.8,.8m3,0v0c.4,0,.8,-.4,.8,-.8c0,-.4,-.4,-.7,-.8,-.7c-.4,0,-.8,.3,-.8,.7c0,.4,.4,.8,.8,.8m3,0v0c.5,0,.8,-.4,.8,-.8c0,-.4,-.3,-.7,-.8,-.7c-.4,0,-.7,.3,-.7,.7c0,.4,.3,.8,.7,.8m3.1,0v0c.4,0,.8,-.4,.8,-.8c0,-.4,-.4,-.7,-.8,-.7c-.4,0,-.8,.3,-.8,.7c0,.4,.4,.8,.8,.8m3,0v0c.4,0,.8,-.4,.8,-.8c0,-.4,-.4,-.7,-.8,-.7c-.4,0,-.7,.3,-.7,.7c0,.4,.3,.8,.7,.8m3.1,0v0c.4,0,.7,-.4,.7,-.8c0,-.4,-.3,-.7,-.7,-.7c-.5,0,-.8,.3,-.8,.7c0,.4,.3,.8,.8,.8m3,0v0c.4,0,.8,-.4,.8,-.8c0,-.4,-.4,-.7,-.8,-.7c-.4,0,-.8,.3,-.8,.7c0,.4,.4,.8,.8,.8m3.1,0v0c.4,0,.7,-.4,.7,-.8c0,-.4,-.3,-.7,-.7,-.7c-.5,0,-.8,.3,-.8,.7c0,.4,.3,.8,.8,.8m3,0v0c.4,0,.8,-.4,.8,-.8c0,-.4,-.4,-.7,-.8,-.7c-.4,0,-.8,.3,-.8,.7c0,.4,.4,.8,.8,.8m3,0v0c.5,0,.8,-.4,.8,-.8c0,-.4,-.3,-.7,-.8,-.7c-.4,0,-.7,.3,-.7,.7c0,.4,.3,.8,.7,.8m3.1,0v0c.4,0,.7,-.4,.7,-.8c0,-.4,-.3,-.7,-.7,-.7c-.4,0,-.8,.3,-.8,.7c0,.4,.4,.8,.8,.8m3,0v0c.4,0,.8,-.4,.8,-.8c0,-.4,-.4,-.7,-.8,-.7c-.4,0,-.7,.3,-.7,.7c0,.4,.3,.8,.7,.8m3.1,0v0c.4,0,.7,-.4,.7,-.8c0,-.4,-.3,-.7,-.7,-.7c-.5,0,-.8,.3,-.8,.7c0,.4,.3,.8,.8,.8m3,0v0c.4,0,.8,-.4,.8,-.8c0,-.4,-.4,-.7,-.8,-.7c-.4,0,-.8,.3,-.8,.7c0,.4,.4,.8,.8,.8m3,0v0c.5,0,.8,-.4,.8,-.8c0,-.4,-.3,-.7,-.8,-.7c-.4,0,-.7,.3,-.7,.7c0,.4,.3,.8,.7,.8m3.1,0v0c.4,0,.7,-.4,.7,-.8c0,-.4,-.3,-.7,-.7,-.7c-.4,0,-.8,.3,-.8,.7c0,.4,.4,.8,.8,.8m3,0v0c.4,0,.8,-.4,.8,-.8c0,-.4,-.4,-.7,-.8,-.7c-.4,0,-.7,.3,-.7,.7c0,.4,.3,.8,.7,.8m3.1,0v0c.4,0,.7,-.4,.7,-.8c0,-.4,-.3,-.7,-.7,-.7c-.5,0,-.8,.3,-.8,.7c0,.4,.3,.8,.8,.8m3,0v0c.4,0,.8,-.4,.8,-.8c0,-.4,-.4,-.7,-.8,-.7c-.4,0,-.8,.3,-.8,.7c0,.4,.4,.8,.8,.8m3,0v0c.5,0,.8,-.4,.8,-.8c0,-.4,-.3,-.7,-.8,-.7c-.4,0,-.7,.3,-.7,.7c0,.4,.3,.8,.7,.8m3.1,0v0c.4,0,.8,-.4,.8,-.8c0,-.4,-.4,-.7,-.8,-.7c-.4,0,-.8,.3,-.8,.7c0,.4,.4,.8,.8,.8m3,0v0c.4,0,.8,-.4,.8,-.8c0,-.4,-.4,-.7,-.8,-.7c-.4,0,-.7,.3,-.7,.7c0,.4,.3,.8,.7,.8m3.1,0v0c.4,0,.7,-.4,.7,-.8c0,-.4,-.3,-.7,-.7,-.7c-.5,0,-.8,.3,-.8,.7c0,.4,.3,.8,.8,.8m3,0v0c.4,0,.8,-.4,.8,-.8c0,-.4,-.4,-.7,-.8,-.7c-.4,0,-.8,.3,-.8,.7c0,.4,.4,.8,.8,.8m3.1,0v0c.4,0,.7,-.4,.7,-.8c0,-.4,-.3,-.7,-.7,-.7c-.5,0,-.8,.3,-.8,.7c0,.4,.3,.8,.8,.8m3,0v0c.4,0,.8,-.4,.8,-.8c0,-.4,-.4,-.7,-.8,-.7c-.4,0,-.8,.3,-.8,.7c0,.4,.4,.8,.8,.8m3,0v0c.5,0,.8,-.4,.8,-.8c0,-.4,-.3,-.7,-.8,-.7c-.4,0,-.7,.3,-.7,.7c0,.4,.3,.8,.7,.8m3.1,0v0c.4,0,.7,-.4,.7,-.8c0,-.4,-.3,-.7,-.7,-.7c-.4,0,-.8,.3,-.8,.7c0,.4,.4,.8,.8,.8m3,0v0c.4,0,.8,-.4,.8,-.8c0,-.4,-.4,-.7,-.8,-.7c-.4,0,-.7,.3,-.7,.7c0,.4,.3,.8,.7,.8m3.1,0v0c.4,0,.7,-.4,.7,-.8c0,-.4,-.3,-.7,-.7,-.7c-.5,0,-.8,.3,-.8,.7c0,.4,.3,.8,.8,.8m3,0v0c.4,0,.8,-.4,.8,-.8c0,-.4,-.4,-.7,-.8,-.7c-.4,0,-.8,.3,-.8,.7c0,.4,.4,.8,.8,.8m3,0v0c.5,0,.8,-.4,.8,-.8c0,-.4,-.3,-.7,-.8,-.7c-.4,0,-.7,.3,-.7,.7c0,.4,.3,.8,.7,.8m3.1,0v0c.4,0,.7,-.4,.7,-.8c0,-.4,-.3,-.7,-.7,-.7c-.4,0,-.8,.3,-.8,.7c0,.4,.4,.8,.8,.8m3,0v0c.4,0,.8,-.4,.8,-.8c0,-.4,-.4,-.7,-.8,-.7c-.4,0,-.7,.3,-.7,.7c0,.4,.3,.8,.7,.8m3.1,0v0c.4,0,.7,-.4,.7,-.8c0,-.4,-.3,-.7,-.7,-.7c-.5,0,-.8,.3,-.8,.7c0,.4,.3,.8,.8,.8m3,0v0c.4,0,.8,-.4,.8,-.8c0,-.4,-.4,-.7,-.8,-.7c-.4,0,-.8,.3,-.8,.7c0,.4,.4,.8,.8,.8m3,0v0c.5,0,.8,-.4,.8,-.8c0,-.4,-.3,-.7,-.8,-.7c-.4,0,-.7,.3,-.7,.7c0,.4,.3,.8,.7,.8m3.1,0v0c.4,0,.8,-.4,.8,-.8c0,-.4,-.4,-.7,-.8,-.7c-.4,0,-.8,.3,-.8,.7c0,.4,.4,.8,.8,.8m3,0v0c.4,0,.8,-.4,.8,-.8c0,-.4,-.4,-.7,-.8,-.7c-.4,0,-.7,.3,-.7,.7c0,.4,.3,.8,.7,.8m3.1,0v0c.4,0,.7,-.4,.7,-.8c0,-.4,-.3,-.7,-.7,-.7c-.5,0,-.8,.3,-.8,.7c0,.4,.3,.8,.8,.8m3,0v0c.4,0,.8,-.4,.8,-.8c0,-.4,-.4,-.7,-.8,-.7c-.4,0,-.8,.3,-.8,.7c0,.4,.4,.8,.8,.8m3.1,0v0c.4,0,.7,-.4,.7,-.8c0,-.4,-.3,-.7,-.7,-.7c-.5,0,-.8,.3,-.8,.7c0,.4,.3,.8,.8,.8m3,0v0c.4,0,.8,-.4,.8,-.8c0,-.4,-.4,-.7,-.8,-.7c-.4,0,-.8,.3,-.8,.7c0,.4,.4,.8,.8,.8m3,0v0c.5,0,.8,-.4,.8,-.8c0,-.4,-.3,-.7,-.8,-.7c-.4,0,-.7,.3,-.7,.7c0,.4,.3,.8,.7,.8m3.1,0v0c.4,0,.7,-.4,.7,-.8c0,-.4,-.3,-.7,-.7,-.7c-.4,0,-.8,.3,-.8,.7c0,.4,.4,.8,.8,.8m3,0v0c.4,0,.8,-.4,.8,-.8c0,-.4,-.4,-.7,-.8,-.7c-.4,0,-.7,.3,-.7,.7c0,.4,.3,.8,.7,.8m3.1,0v0c.4,0,.7,-.4,.7,-.8c0,-.4,-.3,-.7,-.7,-.7c-.5,0,-.8,.3,-.8,.7c0,.4,.3,.8,.8,.8m3,0v0c.4,0,.8,-.4,.8,-.8c0,-.4,-.4,-.7,-.8,-.7c-.4,0,-.8,.3,-.8,.7c0,.4,.4,.8,.8,.8m3,0v0c.5,0,.8,-.4,.8,-.8c0,-.4,-.3,-.7,-.8,-.7c-.4,0,-.7,.3,-.7,.7c0,.4,.3,.8,.7,.8m3.1,0v0c.4,0,.7,-.4,.7,-.8c0,-.4,-.3,-.7,-.7,-.7c-.4,0,-.8,.3,-.8,.7c0,.4,.4,.8,.8,.8m3,0v0c.4,0,.8,-.4,.8,-.8c0,-.4,-.4,-.7,-.8,-.7c-.4,0,-.7,.3,-.7,.7c0,.4,.3,.8,.7,.8m3.1,0v0c.4,0,.7,-.4,.7,-.8c0,-.4,-.3,-.7,-.7,-.7c-.5,0,-.8,.3,-.8,.7c0,.4,.3,.8,.8,.8m3,0v0c.4,0,.8,-.4,.8,-.8c0,-.4,-.4,-.7,-.8,-.7c-.4,0,-.8,.3,-.8,.7c0,.4,.4,.8,.8,.8m3,0v0c.5,0,.8,-.4,.8,-.8c0,-.4,-.3,-.7,-.8,-.7c-.4,0,-.7,.3,-.7,.7c0,.4,.3,.8,.7,.8m3.1,0v0c.4,0,.8,-.4,.8,-.8c0,-.4,-.4,-.7,-.8,-.7c-.4,0,-.8,.3,-.8,.7c0,.4,.4,.8,.8,.8m3,0v0c.4,0,.8,-.4,.8,-.8c0,-.4,-.4,-.7,-.8,-.7c-.4,0,-.7,.3,-.7,.7c0,.4,.3,.8,.7,.8m3.1,0v0c.4,0,.7,-.4,.7,-.8c0,-.4,-.3,-.7,-.7,-.7c-.5,0,-.8,.3,-.8,.7c0,.4,.3,.8,.8,.8m3,0v0c.4,0,.8,-.4,.8,-.8c0,-.4,-.4,-.7,-.8,-.7c-.4,0,-.8,.3,-.8,.7c0,.4,.4,.8,.8,.8m3.1,0v0c.4,0,.7,-.4,.7,-.8c0,-.4,-.3,-.7,-.7,-.7c-.5,0,-.8,.3,-.8,.7c0,.4,.3,.8,.8,.8m3,0v0c.4,0,.8,-.4,.8,-.8c0,-.4,-.4,-.7,-.8,-.7c-.4,0,-.8,.3,-.8,.7c0,.4,.4,.8,.8,.8m3,0v0c.5,0,.8,-.4,.8,-.8c0,-.4,-.3,-.7,-.8,-.7c-.4,0,-.7,.3,-.7,.7c0,.4,.3,.8,.7,.8m3.1,0v0c.4,0,.7,-.4,.7,-.8c0,-.4,-.3,-.7,-.7,-.7c-.4,0,-.8,.3,-.8,.7c0,.4,.4,.8,.8,.8m3,0v0c.4,0,.8,-.4,.8,-.8c0,-.4,-.4,-.7,-.8,-.7c-.4,0,-.7,.3,-.7,.7c0,.4,.3,.8,.7,.8m3.1,0v0c.4,0,.7,-.4,.7,-.8c0,-.4,-.3,-.7,-.7,-.7c-.5,0,-.8,.3,-.8,.7c0,.4,.3,.8,.8,.8m3,0v0c.4,0,.8,-.4,.8,-.8c0,-.4,-.4,-.7,-.8,-.7c-.4,0,-.8,.3,-.8,.7c0,.4,.4,.8,.8,.8m3,0v0c.5,0,.8,-.4,.8,-.8c0,-.4,-.3,-.7,-.8,-.7c-.4,0,-.7,.3,-.7,.7c0,.4,.3,.8,.7,.8m3.1,0v0c.4,0,.7,-.4,.7,-.8c0,-.4,-.3,-.7,-.7,-.7c-.4,0,-.8,.3,-.8,.7c0,.4,.4,.8,.8,.8m3,0v0c.4,0,.8,-.4,.8,-.8c0,-.4,-.4,-.7,-.8,-.7c-.4,0,-.7,.3,-.7,.7c0,.4,.3,.8,.7,.8m3.1,0v0c.4,0,.7,-.4,.7,-.8c0,-.4,-.3,-.7,-.7,-.7c-.5,0,-.8,.3,-.8,.7c0,.4,.3,.8,.8,.8m3,0v0c.4,0,.8,-.4,.8,-.8c0,-.4,-.4,-.7,-.8,-.7c-.4,0,-.8,.3,-.8,.7c0,.4,.4,.8,.8,.8m3,0v0c.5,0,.8,-.4,.8,-.8c0,-.4,-.3,-.7,-.8,-.7c-.4,0,-.7,.3,-.7,.7c0,.4,.3,.8,.7,.8m3.1,0v0c.4,0,.8,-.4,.8,-.8c0,-.4,-.4,-.7,-.8,-.7c-.4,0,-.8,.3,-.8,.7c0,.4,.4,.8,.8,.8m3,0v0c.4,0,.8,-.4,.8,-.8c0,-.4,-.4,-.7,-.8,-.7c-.4,0,-.7,.3,-.7,.7c0,.4,.3,.8,.7,.8m3.1,0v0c.4,0,.7,-.4,.7,-.8c0,-.4,-.3,-.7,-.7,-.7c-.5,0,-.8,.3,-.8,.7c0,.4,.3,.8,.8,.8m3,0v0c.4,0,.8,-.4,.8,-.8c0,-.4,-.4,-.7,-.8,-.7c-.4,0,-.8,.3,-.8,.7c0,.4,.4,.8,.8,.8m3.1,0v0c.4,0,.7,-.4,.7,-.8c0,-.4,-.3,-.7,-.7,-.7c-.5,0,-.8,.3,-.8,.7c0,.4,.3,.8,.8,.8m3,0v0c.4,0,.8,-.4,.8,-.8c0,-.4,-.4,-.7,-.8,-.7c-.4,0,-.8,.3,-.8,.7c0,.4,.4,.8,.8,.8m3,0v0c.5,0,.8,-.4,.8,-.8c0,-.4,-.3,-.7,-.8,-.7c-.4,0,-.7,.3,-.7,.7c0,.4,.3,.8,.7,.8m3.1,0v0c.4,0,.7,-.4,.7,-.8c0,-.4,-.3,-.7,-.7,-.7c-.4,0,-.8,.3,-.8,.7c0,.4,.4,.8,.8,.8m3,0v0c.4,0,.8,-.4,.8,-.8c0,-.4,-.4,-.7,-.8,-.7c-.4,0,-.7,.3,-.7,.7c0,.4,.3,.8,.7,.8m3.1,0v0c.4,0,.7,-.4,.7,-.8c0,-.4,-.3,-.7,-.7,-.7c-.5,0,-.8,.3,-.8,.7c0,.4,.3,.8,.8,.8m3,0v0c.4,0,.8,-.4,.8,-.8c0,-.4,-.4,-.7,-.8,-.7c-.4,0,-.8,.3,-.8,.7c0,.4,.4,.8,.8,.8m3,0v0c.5,0,.8,-.4,.8,-.8c0,-.4,-.3,-.7,-.8,-.7c-.4,0,-.7,.3,-.7,.7c0,.4,.3,.8,.7,.8m3.1,0v0c.4,0,.7,-.4,.7,-.8c0,-.4,-.3,-.7,-.7,-.7c-.4,0,-.8,.3,-.8,.7c0,.4,.4,.8,.8,.8Z" class="g4_8"/>
<path d="M39.8,848c.2,0,.4,-.1,.5,-.2c.2,-.2,.3,-.4,.3,-.6c0,-.2,-.1,-.4,-.3,-.5c-.1,-.2,-.3,-.2,-.5,-.2c-.2,0,-.4,0,-.5,.2c-.2,.1,-.3,.3,-.3,.5c0,.2,.1,.4,.3,.6c.1,.1,.3,.2,.5,.2m267.6,0c.2,0,.4,-.1,.6,-.2c.1,-.2,.2,-.4,.2,-.6c0,-.2,-.1,-.4,-.2,-.5c-.2,-.2,-.4,-.2,-.6,-.2c-.2,0,-.4,0,-.5,.2c-.2,.1,-.2,.3,-.2,.5c0,.2,0,.4,.2,.6c.1,.1,.3,.2,.5,.2Z" class="g4_8"/>
<path d="M39,872.1H308.2v-1.6H39Z" class="g4_8"/>
<path d="M39,638.7H308.2v-2.3H39Z" class="g4_8"/>
<path d="M40.9,891.5v0c.3,0,.4,-.2,.4,-.4c0,-.2,-.1,-.3,-.4,-.3c-.2,0,-.3,.1,-.3,.3c0,.2,.1,.4,.3,.4m1.6,0v0c.2,0,.3,-.2,.3,-.4c0,-.2,-.1,-.3,-.3,-.3c-.2,0,-.4,.1,-.4,.3c0,.2,.2,.4,.4,.4m1.5,0v0c.2,0,.4,-.2,.4,-.4c0,-.2,-.2,-.3,-.4,-.3c-.2,0,-.4,.1,-.4,.3c0,.2,.2,.4,.4,.4m1.5,0v0c.2,0,.4,-.2,.4,-.4c0,-.2,-.2,-.3,-.4,-.3c-.2,0,-.4,.1,-.4,.3c0,.2,.2,.4,.4,.4m1.5,0v0c.3,0,.4,-.2,.4,-.4c0,-.2,-.1,-.3,-.4,-.3c-.2,0,-.3,.1,-.3,.3c0,.2,.1,.4,.3,.4m1.6,0v0c.2,0,.3,-.2,.3,-.4c0,-.2,-.1,-.3,-.3,-.3c-.2,0,-.4,.1,-.4,.3c0,.2,.2,.4,.4,.4m1.5,0v0c.2,0,.4,-.2,.4,-.4c0,-.2,-.2,-.3,-.4,-.3c-.2,0,-.4,.1,-.4,.3c0,.2,.2,.4,.4,.4m1.5,0v0c.2,0,.4,-.2,.4,-.4c0,-.2,-.2,-.3,-.4,-.3c-.2,0,-.4,.1,-.4,.3c0,.2,.2,.4,.4,.4m1.5,0v0c.3,0,.4,-.2,.4,-.4c0,-.2,-.1,-.3,-.4,-.3c-.2,0,-.3,.1,-.3,.3c0,.2,.1,.4,.3,.4m1.6,0v0c.2,0,.3,-.2,.3,-.4c0,-.2,-.1,-.3,-.3,-.3c-.2,0,-.4,.1,-.4,.3c0,.2,.2,.4,.4,.4m1.5,0v0c.2,0,.4,-.2,.4,-.4c0,-.2,-.2,-.3,-.4,-.3c-.2,0,-.4,.1,-.4,.3c0,.2,.2,.4,.4,.4m1.5,0v0c.2,0,.4,-.2,.4,-.4c0,-.2,-.2,-.3,-.4,-.3c-.2,0,-.4,.1,-.4,.3c0,.2,.2,.4,.4,.4m1.5,0v0c.3,0,.4,-.2,.4,-.4c0,-.2,-.1,-.3,-.4,-.3c-.2,0,-.3,.1,-.3,.3c0,.2,.1,.4,.3,.4m1.6,0v0c.2,0,.3,-.2,.3,-.4c0,-.2,-.1,-.3,-.3,-.3c-.2,0,-.4,.1,-.4,.3c0,.2,.2,.4,.4,.4m1.5,0v0c.2,0,.4,-.2,.4,-.4c0,-.2,-.2,-.3,-.4,-.3c-.2,0,-.4,.1,-.4,.3c0,.2,.2,.4,.4,.4m1.5,0v0c.2,0,.4,-.2,.4,-.4c0,-.2,-.2,-.3,-.4,-.3c-.2,0,-.4,.1,-.4,.3c0,.2,.2,.4,.4,.4m1.5,0v0c.2,0,.4,-.2,.4,-.4c0,-.2,-.2,-.3,-.4,-.3c-.2,0,-.3,.1,-.3,.3c0,.2,.1,.4,.3,.4m1.6,0v0c.2,0,.3,-.2,.3,-.4c0,-.2,-.1,-.3,-.3,-.3c-.2,0,-.4,.1,-.4,.3c0,.2,.2,.4,.4,.4m1.5,0v0c.2,0,.4,-.2,.4,-.4c0,-.2,-.2,-.3,-.4,-.3c-.2,0,-.4,.1,-.4,.3c0,.2,.2,.4,.4,.4m1.5,0v0c.2,0,.4,-.2,.4,-.4c0,-.2,-.2,-.3,-.4,-.3c-.2,0,-.4,.1,-.4,.3c0,.2,.2,.4,.4,.4m1.5,0v0c.3,0,.4,-.2,.4,-.4c0,-.2,-.1,-.3,-.4,-.3c-.2,0,-.3,.1,-.3,.3c0,.2,.1,.4,.3,.4m1.6,0v0c.2,0,.3,-.2,.3,-.4c0,-.2,-.1,-.3,-.3,-.3c-.2,0,-.4,.1,-.4,.3c0,.2,.2,.4,.4,.4m1.5,0v0c.2,0,.4,-.2,.4,-.4c0,-.2,-.2,-.3,-.4,-.3c-.2,0,-.4,.1,-.4,.3c0,.2,.2,.4,.4,.4m1.5,0v0c.2,0,.4,-.2,.4,-.4c0,-.2,-.2,-.3,-.4,-.3c-.2,0,-.4,.1,-.4,.3c0,.2,.2,.4,.4,.4m1.5,0v0c.3,0,.4,-.2,.4,-.4c0,-.2,-.1,-.3,-.4,-.3c-.2,0,-.3,.1,-.3,.3c0,.2,.1,.4,.3,.4m1.6,0v0c.2,0,.3,-.2,.3,-.4c0,-.2,-.1,-.3,-.3,-.3c-.2,0,-.4,.1,-.4,.3c0,.2,.2,.4,.4,.4m1.5,0v0c.2,0,.4,-.2,.4,-.4c0,-.2,-.2,-.3,-.4,-.3c-.2,0,-.4,.1,-.4,.3c0,.2,.2,.4,.4,.4m1.5,0v0c.2,0,.4,-.2,.4,-.4c0,-.2,-.2,-.3,-.4,-.3c-.2,0,-.4,.1,-.4,.3c0,.2,.2,.4,.4,.4m1.5,0v0c.2,0,.4,-.2,.4,-.4c0,-.2,-.2,-.3,-.4,-.3c-.2,0,-.3,.1,-.3,.3c0,.2,.1,.4,.3,.4m1.6,0v0c.2,0,.3,-.2,.3,-.4c0,-.2,-.1,-.3,-.3,-.3c-.2,0,-.4,.1,-.4,.3c0,.2,.2,.4,.4,.4m1.5,0v0c.2,0,.4,-.2,.4,-.4c0,-.2,-.2,-.3,-.4,-.3c-.2,0,-.4,.1,-.4,.3c0,.2,.2,.4,.4,.4m1.5,0v0c.2,0,.4,-.2,.4,-.4c0,-.2,-.2,-.3,-.4,-.3c-.2,0,-.4,.1,-.4,.3c0,.2,.2,.4,.4,.4m1.5,0v0c.2,0,.4,-.2,.4,-.4c0,-.2,-.2,-.3,-.4,-.3c-.2,0,-.3,.1,-.3,.3c0,.2,.1,.4,.3,.4m1.6,0v0c.2,0,.3,-.2,.3,-.4c0,-.2,-.1,-.3,-.3,-.3c-.2,0,-.4,.1,-.4,.3c0,.2,.2,.4,.4,.4m1.5,0v0c.2,0,.4,-.2,.4,-.4c0,-.2,-.2,-.3,-.4,-.3c-.2,0,-.4,.1,-.4,.3c0,.2,.2,.4,.4,.4m1.5,0v0c.2,0,.4,-.2,.4,-.4c0,-.2,-.2,-.3,-.4,-.3c-.2,0,-.4,.1,-.4,.3c0,.2,.2,.4,.4,.4m1.5,0v0c.2,0,.4,-.2,.4,-.4c0,-.2,-.2,-.3,-.4,-.3c-.2,0,-.3,.1,-.3,.3c0,.2,.1,.4,.3,.4m1.6,0v0c.2,0,.3,-.2,.3,-.4c0,-.2,-.1,-.3,-.3,-.3c-.2,0,-.4,.1,-.4,.3c0,.2,.2,.4,.4,.4m1.5,0v0c.2,0,.4,-.2,.4,-.4c0,-.2,-.2,-.3,-.4,-.3c-.2,0,-.4,.1,-.4,.3c0,.2,.2,.4,.4,.4m1.5,0v0c.2,0,.4,-.2,.4,-.4c0,-.2,-.2,-.3,-.4,-.3c-.2,0,-.4,.1,-.4,.3c0,.2,.2,.4,.4,.4m1.5,0v0c.2,0,.4,-.2,.4,-.4c0,-.2,-.2,-.3,-.4,-.3c-.2,0,-.3,.1,-.3,.3c0,.2,.1,.4,.3,.4m1.6,0v0c.2,0,.3,-.2,.3,-.4c0,-.2,-.1,-.3,-.3,-.3c-.2,0,-.4,.1,-.4,.3c0,.2,.2,.4,.4,.4m1.5,0v0c.2,0,.4,-.2,.4,-.4c0,-.2,-.2,-.3,-.4,-.3c-.2,0,-.4,.1,-.4,.3c0,.2,.2,.4,.4,.4m1.5,0v0c.2,0,.4,-.2,.4,-.4c0,-.2,-.2,-.3,-.4,-.3c-.2,0,-.4,.1,-.4,.3c0,.2,.2,.4,.4,.4m1.5,0v0c.2,0,.4,-.2,.4,-.4c0,-.2,-.2,-.3,-.4,-.3c-.2,0,-.3,.1,-.3,.3c0,.2,.1,.4,.3,.4m1.6,0v0c.2,0,.3,-.2,.3,-.4c0,-.2,-.1,-.3,-.3,-.3c-.2,0,-.4,.1,-.4,.3c0,.2,.2,.4,.4,.4m1.5,0v0c.2,0,.4,-.2,.4,-.4c0,-.2,-.2,-.3,-.4,-.3c-.2,0,-.4,.1,-.4,.3c0,.2,.2,.4,.4,.4m1.5,0v0c.2,0,.4,-.2,.4,-.4c0,-.2,-.2,-.3,-.4,-.3c-.2,0,-.4,.1,-.4,.3c0,.2,.2,.4,.4,.4m1.5,0v0c.2,0,.4,-.2,.4,-.4c0,-.2,-.2,-.3,-.4,-.3c-.2,0,-.3,.1,-.3,.3c0,.2,.1,.4,.3,.4m1.6,0v0c.2,0,.3,-.2,.3,-.4c0,-.2,-.1,-.3,-.3,-.3c-.2,0,-.4,.1,-.4,.3c0,.2,.2,.4,.4,.4m1.5,0v0c.2,0,.4,-.2,.4,-.4c0,-.2,-.2,-.3,-.4,-.3c-.2,0,-.4,.1,-.4,.3c0,.2,.2,.4,.4,.4m1.5,0v0c.2,0,.4,-.2,.4,-.4c0,-.2,-.2,-.3,-.4,-.3c-.2,0,-.4,.1,-.4,.3c0,.2,.2,.4,.4,.4m1.5,0v0c.2,0,.4,-.2,.4,-.4c0,-.2,-.2,-.3,-.4,-.3c-.2,0,-.3,.1,-.3,.3c0,.2,.1,.4,.3,.4m1.6,0v0c.2,0,.3,-.2,.3,-.4c0,-.2,-.1,-.3,-.3,-.3c-.2,0,-.4,.1,-.4,.3c0,.2,.2,.4,.4,.4m1.5,0v0c.2,0,.4,-.2,.4,-.4c0,-.2,-.2,-.3,-.4,-.3c-.2,0,-.4,.1,-.4,.3c0,.2,.2,.4,.4,.4m1.5,0v0c.2,0,.4,-.2,.4,-.4c0,-.2,-.2,-.3,-.4,-.3c-.2,0,-.4,.1,-.4,.3c0,.2,.2,.4,.4,.4m1.5,0v0c.2,0,.4,-.2,.4,-.4c0,-.2,-.2,-.3,-.4,-.3c-.2,0,-.3,.1,-.3,.3c0,.2,.1,.4,.3,.4m1.6,0v0c.2,0,.3,-.2,.3,-.4c0,-.2,-.1,-.3,-.3,-.3c-.2,0,-.4,.1,-.4,.3c0,.2,.2,.4,.4,.4m1.5,0v0c.2,0,.4,-.2,.4,-.4c0,-.2,-.2,-.3,-.4,-.3c-.2,0,-.4,.1,-.4,.3c0,.2,.2,.4,.4,.4m1.5,0v0c.2,0,.4,-.2,.4,-.4c0,-.2,-.2,-.3,-.4,-.3c-.2,0,-.4,.1,-.4,.3c0,.2,.2,.4,.4,.4m1.5,0v0c.2,0,.4,-.2,.4,-.4c0,-.2,-.2,-.3,-.4,-.3c-.2,0,-.3,.1,-.3,.3c0,.2,.1,.4,.3,.4m1.6,0v0c.2,0,.3,-.2,.3,-.4c0,-.2,-.1,-.3,-.3,-.3c-.2,0,-.4,.1,-.4,.3c0,.2,.2,.4,.4,.4m1.5,0v0c.2,0,.4,-.2,.4,-.4c0,-.2,-.2,-.3,-.4,-.3c-.2,0,-.4,.1,-.4,.3c0,.2,.2,.4,.4,.4m1.5,0v0c.2,0,.4,-.2,.4,-.4c0,-.2,-.2,-.3,-.4,-.3c-.2,0,-.4,.1,-.4,.3c0,.2,.2,.4,.4,.4m1.5,0v0c.2,0,.4,-.2,.4,-.4c0,-.2,-.2,-.3,-.4,-.3c-.2,0,-.3,.1,-.3,.3c0,.2,.1,.4,.3,.4m1.6,0v0c.2,0,.3,-.2,.3,-.4c0,-.2,-.1,-.3,-.3,-.3c-.2,0,-.4,.1,-.4,.3c0,.2,.2,.4,.4,.4m1.5,0v0c.2,0,.4,-.2,.4,-.4c0,-.2,-.2,-.3,-.4,-.3c-.2,0,-.4,.1,-.4,.3c0,.2,.2,.4,.4,.4m1.5,0v0c.2,0,.4,-.2,.4,-.4c0,-.2,-.2,-.3,-.4,-.3c-.2,0,-.4,.1,-.4,.3c0,.2,.2,.4,.4,.4m1.5,0v0c.2,0,.4,-.2,.4,-.4c0,-.2,-.2,-.3,-.4,-.3c-.2,0,-.3,.1,-.3,.3c0,.2,.1,.4,.3,.4m1.6,0v0c.2,0,.3,-.2,.3,-.4c0,-.2,-.1,-.3,-.3,-.3c-.2,0,-.4,.1,-.4,.3c0,.2,.2,.4,.4,.4m1.5,0v0c.2,0,.4,-.2,.4,-.4c0,-.2,-.2,-.3,-.4,-.3c-.2,0,-.4,.1,-.4,.3c0,.2,.2,.4,.4,.4m1.5,0v0c.2,0,.4,-.2,.4,-.4c0,-.2,-.2,-.3,-.4,-.3c-.2,0,-.4,.1,-.4,.3c0,.2,.2,.4,.4,.4m1.5,0v0c.2,0,.4,-.2,.4,-.4c0,-.2,-.2,-.3,-.4,-.3c-.2,0,-.3,.1,-.3,.3c0,.2,.1,.4,.3,.4m1.6,0v0c.2,0,.3,-.2,.3,-.4c0,-.2,-.1,-.3,-.3,-.3c-.3,0,-.4,.1,-.4,.3c0,.2,.1,.4,.4,.4m1.5,0v0c.2,0,.4,-.2,.4,-.4c0,-.2,-.2,-.3,-.4,-.3c-.2,0,-.4,.1,-.4,.3c0,.2,.2,.4,.4,.4m1.5,0v0c.2,0,.4,-.2,.4,-.4c0,-.2,-.2,-.3,-.4,-.3c-.2,0,-.4,.1,-.4,.3c0,.2,.2,.4,.4,.4m1.5,0v0c.2,0,.4,-.2,.4,-.4c0,-.2,-.2,-.3,-.4,-.3c-.2,0,-.3,.1,-.3,.3c0,.2,.1,.4,.3,.4m1.6,0v0c.2,0,.3,-.2,.3,-.4c0,-.2,-.1,-.3,-.3,-.3c-.3,0,-.4,.1,-.4,.3c0,.2,.1,.4,.4,.4m1.5,0v0c.2,0,.4,-.2,.4,-.4c0,-.2,-.2,-.3,-.4,-.3c-.2,0,-.4,.1,-.4,.3c0,.2,.2,.4,.4,.4m1.5,0v0c.2,0,.4,-.2,.4,-.4c0,-.2,-.2,-.3,-.4,-.3c-.2,0,-.4,.1,-.4,.3c0,.2,.2,.4,.4,.4m1.5,0v0c.2,0,.4,-.2,.4,-.4c0,-.2,-.2,-.3,-.4,-.3c-.2,0,-.3,.1,-.3,.3c0,.2,.1,.4,.3,.4m1.6,0v0c.2,0,.3,-.2,.3,-.4c0,-.2,-.1,-.3,-.3,-.3c-.3,0,-.4,.1,-.4,.3c0,.2,.1,.4,.4,.4m1.5,0v0c.2,0,.4,-.2,.4,-.4c0,-.2,-.2,-.3,-.4,-.3c-.2,0,-.4,.1,-.4,.3c0,.2,.2,.4,.4,.4m1.5,0v0c.2,0,.4,-.2,.4,-.4c0,-.2,-.2,-.3,-.4,-.3c-.2,0,-.4,.1,-.4,.3c0,.2,.2,.4,.4,.4m1.5,0v0c.2,0,.4,-.2,.4,-.4c0,-.2,-.2,-.3,-.4,-.3c-.2,0,-.3,.1,-.3,.3c0,.2,.1,.4,.3,.4m1.6,0v0c.2,0,.3,-.2,.3,-.4c0,-.2,-.1,-.3,-.3,-.3c-.3,0,-.4,.1,-.4,.3c0,.2,.1,.4,.4,.4m1.5,0v0c.2,0,.4,-.2,.4,-.4c0,-.2,-.2,-.3,-.4,-.3c-.2,0,-.4,.1,-.4,.3c0,.2,.2,.4,.4,.4m1.5,0v0c.2,0,.4,-.2,.4,-.4c0,-.2,-.2,-.3,-.4,-.3c-.2,0,-.4,.1,-.4,.3c0,.2,.2,.4,.4,.4m1.5,0v0c.2,0,.4,-.2,.4,-.4c0,-.2,-.2,-.3,-.4,-.3c-.2,0,-.3,.1,-.3,.3c0,.2,.1,.4,.3,.4m1.6,0v0c.2,0,.3,-.2,.3,-.4c0,-.2,-.1,-.3,-.3,-.3c-.3,0,-.4,.1,-.4,.3c0,.2,.1,.4,.4,.4m1.5,0v0c.2,0,.4,-.2,.4,-.4c0,-.2,-.2,-.3,-.4,-.3c-.2,0,-.4,.1,-.4,.3c0,.2,.2,.4,.4,.4m1.5,0v0c.2,0,.4,-.2,.4,-.4c0,-.2,-.2,-.3,-.4,-.3c-.2,0,-.4,.1,-.4,.3c0,.2,.2,.4,.4,.4m1.5,0v0c.2,0,.4,-.2,.4,-.4c0,-.2,-.2,-.3,-.4,-.3c-.2,0,-.3,.1,-.3,.3c0,.2,.1,.4,.3,.4m1.6,0v0c.2,0,.3,-.2,.3,-.4c0,-.2,-.1,-.3,-.3,-.3c-.3,0,-.4,.1,-.4,.3c0,.2,.1,.4,.4,.4m1.5,0v0c.2,0,.4,-.2,.4,-.4c0,-.2,-.2,-.3,-.4,-.3c-.2,0,-.4,.1,-.4,.3c0,.2,.2,.4,.4,.4m1.5,0v0c.2,0,.4,-.2,.4,-.4c0,-.2,-.2,-.3,-.4,-.3c-.2,0,-.4,.1,-.4,.3c0,.2,.2,.4,.4,.4m1.5,0v0c.2,0,.4,-.2,.4,-.4c0,-.2,-.2,-.3,-.4,-.3c-.2,0,-.3,.1,-.3,.3c0,.2,.1,.4,.3,.4m1.6,0v0c.2,0,.3,-.2,.3,-.4c0,-.2,-.1,-.3,-.3,-.3c-.3,0,-.4,.1,-.4,.3c0,.2,.1,.4,.4,.4m1.5,0v0c.2,0,.4,-.2,.4,-.4c0,-.2,-.2,-.3,-.4,-.3c-.2,0,-.4,.1,-.4,.3c0,.2,.2,.4,.4,.4m1.5,0v0c.2,0,.4,-.2,.4,-.4c0,-.2,-.2,-.3,-.4,-.3c-.2,0,-.4,.1,-.4,.3c0,.2,.2,.4,.4,.4m1.5,0v0c.2,0,.4,-.2,.4,-.4c0,-.2,-.2,-.3,-.4,-.3c-.2,0,-.3,.1,-.3,.3c0,.2,.1,.4,.3,.4m1.6,0v0c.2,0,.3,-.2,.3,-.4c0,-.2,-.1,-.3,-.3,-.3c-.3,0,-.4,.1,-.4,.3c0,.2,.1,.4,.4,.4m1.5,0v0c.2,0,.4,-.2,.4,-.4c0,-.2,-.2,-.3,-.4,-.3c-.2,0,-.4,.1,-.4,.3c0,.2,.2,.4,.4,.4m1.5,0v0c.2,0,.4,-.2,.4,-.4c0,-.2,-.2,-.3,-.4,-.3c-.2,0,-.4,.1,-.4,.3c0,.2,.2,.4,.4,.4m1.5,0v0c.2,0,.4,-.2,.4,-.4c0,-.2,-.2,-.3,-.4,-.3c-.2,0,-.3,.1,-.3,.3c0,.2,.1,.4,.3,.4m1.6,0v0c.2,0,.3,-.2,.3,-.4c0,-.2,-.1,-.3,-.3,-.3c-.3,0,-.4,.1,-.4,.3c0,.2,.1,.4,.4,.4m1.5,0v0c.2,0,.4,-.2,.4,-.4c0,-.2,-.2,-.3,-.4,-.3c-.2,0,-.4,.1,-.4,.3c0,.2,.2,.4,.4,.4m1.5,0v0c.2,0,.4,-.2,.4,-.4c0,-.2,-.2,-.3,-.4,-.3c-.2,0,-.4,.1,-.4,.3c0,.2,.2,.4,.4,.4m1.5,0v0c.2,0,.4,-.2,.4,-.4c0,-.2,-.2,-.3,-.4,-.3c-.2,0,-.3,.1,-.3,.3c0,.2,.1,.4,.3,.4m1.6,0v0c.2,0,.3,-.2,.3,-.4c0,-.2,-.1,-.3,-.3,-.3c-.3,0,-.4,.1,-.4,.3c0,.2,.1,.4,.4,.4m1.5,0v0c.2,0,.4,-.2,.4,-.4c0,-.2,-.2,-.3,-.4,-.3c-.2,0,-.4,.1,-.4,.3c0,.2,.2,.4,.4,.4m1.5,0v0c.2,0,.4,-.2,.4,-.4c0,-.2,-.2,-.3,-.4,-.3c-.2,0,-.4,.1,-.4,.3c0,.2,.2,.4,.4,.4m1.5,0v0c.2,0,.4,-.2,.4,-.4c0,-.2,-.2,-.3,-.4,-.3c-.2,0,-.3,.1,-.3,.3c0,.2,.1,.4,.3,.4m1.6,0v0c.2,0,.3,-.2,.3,-.4c0,-.2,-.1,-.3,-.3,-.3c-.3,0,-.4,.1,-.4,.3c0,.2,.1,.4,.4,.4m1.5,0v0c.2,0,.4,-.2,.4,-.4c0,-.2,-.2,-.3,-.4,-.3c-.2,0,-.4,.1,-.4,.3c0,.2,.2,.4,.4,.4m1.5,0v0c.2,0,.4,-.2,.4,-.4c0,-.2,-.2,-.3,-.4,-.3c-.2,0,-.4,.1,-.4,.3c0,.2,.2,.4,.4,.4m1.5,0v0c.2,0,.4,-.2,.4,-.4c0,-.2,-.2,-.3,-.4,-.3c-.2,0,-.3,.1,-.3,.3c0,.2,.1,.4,.3,.4m1.6,0v0c.2,0,.3,-.2,.3,-.4c0,-.2,-.1,-.3,-.3,-.3c-.3,0,-.4,.1,-.4,.3c0,.2,.1,.4,.4,.4m1.5,0v0c.2,0,.4,-.2,.4,-.4c0,-.2,-.2,-.3,-.4,-.3c-.2,0,-.4,.1,-.4,.3c0,.2,.2,.4,.4,.4m1.5,0v0c.2,0,.4,-.2,.4,-.4c0,-.2,-.2,-.3,-.4,-.3c-.2,0,-.4,.1,-.4,.3c0,.2,.2,.4,.4,.4m1.5,0v0c.2,0,.4,-.2,.4,-.4c0,-.2,-.2,-.3,-.4,-.3c-.2,0,-.3,.1,-.3,.3c0,.2,.1,.4,.3,.4m1.6,0v0c.2,0,.3,-.2,.3,-.4c0,-.2,-.1,-.3,-.3,-.3c-.3,0,-.4,.1,-.4,.3c0,.2,.1,.4,.4,.4m1.5,0v0c.2,0,.4,-.2,.4,-.4c0,-.2,-.2,-.3,-.4,-.3c-.2,0,-.4,.1,-.4,.3c0,.2,.2,.4,.4,.4m1.5,0v0c.2,0,.4,-.2,.4,-.4c0,-.2,-.2,-.3,-.4,-.3c-.2,0,-.4,.1,-.4,.3c0,.2,.2,.4,.4,.4m1.5,0v0c.2,0,.4,-.2,.4,-.4c0,-.2,-.2,-.3,-.4,-.3c-.2,0,-.4,.1,-.4,.3c0,.2,.2,.4,.4,.4m1.6,0v0c.2,0,.3,-.2,.3,-.4c0,-.2,-.1,-.3,-.3,-.3c-.3,0,-.4,.1,-.4,.3c0,.2,.1,.4,.4,.4m1.5,0v0c.2,0,.4,-.2,.4,-.4c0,-.2,-.2,-.3,-.4,-.3c-.2,0,-.4,.1,-.4,.3c0,.2,.2,.4,.4,.4m1.5,0v0c.2,0,.4,-.2,.4,-.4c0,-.2,-.2,-.3,-.4,-.3c-.2,0,-.4,.1,-.4,.3c0,.2,.2,.4,.4,.4m1.5,0v0c.2,0,.4,-.2,.4,-.4c0,-.2,-.2,-.3,-.4,-.3c-.2,0,-.3,.1,-.3,.3c0,.2,.1,.4,.3,.4m1.6,0v0c.2,0,.3,-.2,.3,-.4c0,-.2,-.1,-.3,-.3,-.3c-.3,0,-.4,.1,-.4,.3c0,.2,.1,.4,.4,.4m1.5,0v0c.2,0,.4,-.2,.4,-.4c0,-.2,-.2,-.3,-.4,-.3c-.2,0,-.4,.1,-.4,.3c0,.2,.2,.4,.4,.4m1.5,0v0c.2,0,.4,-.2,.4,-.4c0,-.2,-.2,-.3,-.4,-.3c-.2,0,-.4,.1,-.4,.3c0,.2,.2,.4,.4,.4m1.5,0v0c.2,0,.4,-.2,.4,-.4c0,-.2,-.2,-.3,-.4,-.3c-.2,0,-.3,.1,-.3,.3c0,.2,.1,.4,.3,.4m1.6,0v0c.2,0,.3,-.2,.3,-.4c0,-.2,-.1,-.3,-.3,-.3c-.3,0,-.4,.1,-.4,.3c0,.2,.1,.4,.4,.4m1.5,0v0c.2,0,.4,-.2,.4,-.4c0,-.2,-.2,-.3,-.4,-.3c-.2,0,-.4,.1,-.4,.3c0,.2,.2,.4,.4,.4m1.5,0v0c.2,0,.4,-.2,.4,-.4c0,-.2,-.2,-.3,-.4,-.3c-.2,0,-.4,.1,-.4,.3c0,.2,.2,.4,.4,.4m1.5,0v0c.2,0,.4,-.2,.4,-.4c0,-.2,-.2,-.3,-.4,-.3c-.2,0,-.4,.1,-.4,.3c0,.2,.2,.4,.4,.4m1.6,0v0c.2,0,.3,-.2,.3,-.4c0,-.2,-.1,-.3,-.3,-.3c-.3,0,-.4,.1,-.4,.3c0,.2,.1,.4,.4,.4m1.5,0v0c.2,0,.4,-.2,.4,-.4c0,-.2,-.2,-.3,-.4,-.3c-.2,0,-.4,.1,-.4,.3c0,.2,.2,.4,.4,.4m1.5,0v0c.2,0,.4,-.2,.4,-.4c0,-.2,-.2,-.3,-.4,-.3c-.2,0,-.4,.1,-.4,.3c0,.2,.2,.4,.4,.4m1.5,0v0c.2,0,.4,-.2,.4,-.4c0,-.2,-.2,-.3,-.4,-.3c-.2,0,-.3,.1,-.3,.3c0,.2,.1,.4,.3,.4m1.6,0v0c.2,0,.3,-.2,.3,-.4c0,-.2,-.1,-.3,-.3,-.3c-.3,0,-.4,.1,-.4,.3c0,.2,.1,.4,.4,.4m1.5,0v0c.2,0,.4,-.2,.4,-.4c0,-.2,-.2,-.3,-.4,-.3c-.2,0,-.4,.1,-.4,.3c0,.2,.2,.4,.4,.4m1.5,0v0c.2,0,.4,-.2,.4,-.4c0,-.2,-.2,-.3,-.4,-.3c-.2,0,-.4,.1,-.4,.3c0,.2,.2,.4,.4,.4m1.5,0v0c.2,0,.4,-.2,.4,-.4c0,-.2,-.2,-.3,-.4,-.3c-.2,0,-.4,.1,-.4,.3c0,.2,.2,.4,.4,.4m1.6,0v0c.2,0,.3,-.2,.3,-.4c0,-.2,-.1,-.3,-.3,-.3c-.3,0,-.4,.1,-.4,.3c0,.2,.1,.4,.4,.4m1.5,0v0c.2,0,.4,-.2,.4,-.4c0,-.2,-.2,-.3,-.4,-.3c-.2,0,-.4,.1,-.4,.3c0,.2,.2,.4,.4,.4m1.5,0v0c.2,0,.4,-.2,.4,-.4c0,-.2,-.2,-.3,-.4,-.3c-.2,0,-.4,.1,-.4,.3c0,.2,.2,.4,.4,.4m1.5,0v0c.2,0,.4,-.2,.4,-.4c0,-.2,-.2,-.3,-.4,-.3c-.2,0,-.4,.1,-.4,.3c0,.2,.2,.4,.4,.4m1.6,0v0c.2,0,.3,-.2,.3,-.4c0,-.2,-.1,-.3,-.3,-.3c-.3,0,-.4,.1,-.4,.3c0,.2,.1,.4,.4,.4m1.5,0v0c.2,0,.4,-.2,.4,-.4c0,-.2,-.2,-.3,-.4,-.3c-.2,0,-.4,.1,-.4,.3c0,.2,.2,.4,.4,.4m1.5,0v0c.2,0,.4,-.2,.4,-.4c0,-.2,-.2,-.3,-.4,-.3c-.2,0,-.4,.1,-.4,.3c0,.2,.2,.4,.4,.4m1.5,0v0c.2,0,.4,-.2,.4,-.4c0,-.2,-.2,-.3,-.4,-.3c-.2,0,-.4,.1,-.4,.3c0,.2,.2,.4,.4,.4m1.6,0v0c.2,0,.3,-.2,.3,-.4c0,-.2,-.1,-.3,-.3,-.3c-.3,0,-.4,.1,-.4,.3c0,.2,.1,.4,.4,.4m1.5,0v0c.2,0,.4,-.2,.4,-.4c0,-.2,-.2,-.3,-.4,-.3c-.2,0,-.4,.1,-.4,.3c0,.2,.2,.4,.4,.4m1.5,0v0c.2,0,.4,-.2,.4,-.4c0,-.2,-.2,-.3,-.4,-.3c-.2,0,-.4,.1,-.4,.3c0,.2,.2,.4,.4,.4m1.5,0v0c.2,0,.4,-.2,.4,-.4c0,-.2,-.2,-.3,-.4,-.3c-.2,0,-.4,.1,-.4,.3c0,.2,.2,.4,.4,.4m1.6,0v0c.2,0,.3,-.2,.3,-.4c0,-.2,-.1,-.3,-.3,-.3c-.3,0,-.4,.1,-.4,.3c0,.2,.1,.4,.4,.4m1.5,0v0c.2,0,.4,-.2,.4,-.4c0,-.2,-.2,-.3,-.4,-.3c-.2,0,-.4,.1,-.4,.3c0,.2,.2,.4,.4,.4m1.5,0v0c.2,0,.4,-.2,.4,-.4c0,-.2,-.2,-.3,-.4,-.3c-.2,0,-.4,.1,-.4,.3c0,.2,.2,.4,.4,.4m1.5,0v0c.2,0,.4,-.2,.4,-.4c0,-.2,-.2,-.3,-.4,-.3c-.2,0,-.4,.1,-.4,.3c0,.2,.2,.4,.4,.4m1.6,0v0c.2,0,.3,-.2,.3,-.4c0,-.2,-.1,-.3,-.3,-.3c-.3,0,-.4,.1,-.4,.3c0,.2,.1,.4,.4,.4m1.5,0v0c.2,0,.4,-.2,.4,-.4c0,-.2,-.2,-.3,-.4,-.3c-.2,0,-.4,.1,-.4,.3c0,.2,.2,.4,.4,.4m1.5,0v0c.2,0,.4,-.2,.4,-.4c0,-.2,-.2,-.3,-.4,-.3c-.2,0,-.4,.1,-.4,.3c0,.2,.2,.4,.4,.4m1.5,0v0c.2,0,.4,-.2,.4,-.4c0,-.2,-.2,-.3,-.4,-.3c-.2,0,-.4,.1,-.4,.3c0,.2,.2,.4,.4,.4m1.6,0v0c.2,0,.3,-.2,.3,-.4c0,-.2,-.1,-.3,-.3,-.3c-.3,0,-.4,.1,-.4,.3c0,.2,.1,.4,.4,.4m1.5,0v0c.2,0,.4,-.2,.4,-.4c0,-.2,-.2,-.3,-.4,-.3c-.2,0,-.4,.1,-.4,.3c0,.2,.2,.4,.4,.4m1.5,0v0c.2,0,.4,-.2,.4,-.4c0,-.2,-.2,-.3,-.4,-.3c-.2,0,-.4,.1,-.4,.3c0,.2,.2,.4,.4,.4m1.5,0v0c.2,0,.4,-.2,.4,-.4c0,-.2,-.2,-.3,-.4,-.3c-.2,0,-.4,.1,-.4,.3c0,.2,.2,.4,.4,.4m1.6,0v0c.2,0,.3,-.2,.3,-.4c0,-.2,-.1,-.3,-.3,-.3c-.3,0,-.4,.1,-.4,.3c0,.2,.1,.4,.4,.4m1.5,0v0c.2,0,.4,-.2,.4,-.4c0,-.2,-.2,-.3,-.4,-.3c-.2,0,-.4,.1,-.4,.3c0,.2,.2,.4,.4,.4m1.5,0v0c.2,0,.4,-.2,.4,-.4c0,-.2,-.2,-.3,-.4,-.3c-.2,0,-.4,.1,-.4,.3c0,.2,.2,.4,.4,.4m1.5,0v0c.2,0,.4,-.2,.4,-.4c0,-.2,-.2,-.3,-.4,-.3c-.2,0,-.4,.1,-.4,.3c0,.2,.2,.4,.4,.4m1.6,0v0c.2,0,.3,-.2,.3,-.4c0,-.2,-.1,-.3,-.3,-.3c-.3,0,-.4,.1,-.4,.3c0,.2,.1,.4,.4,.4m1.5,0v0c.2,0,.4,-.2,.4,-.4c0,-.2,-.2,-.3,-.4,-.3c-.2,0,-.4,.1,-.4,.3c0,.2,.2,.4,.4,.4Z" class="g4_8"/>
<path d="M39.4,891.5l.3,-.1l.1,-.3l-.1,-.2l-.3,-.1l-.3,.1l-.1,.2l.1,.3Zm268.4,0l.3,-.1l.1,-.3l-.1,-.2l-.3,-.1l-.3,.1l-.1,.2l.1,.3Z" class="g4_8"/>
<path d="M42.8,1117.7v0c.4,0,.7,-.4,.7,-.8c0,-.4,-.3,-.8,-.7,-.8c-.4,0,-.8,.4,-.8,.8c0,.4,.4,.8,.8,.8m3,0v0c.4,0,.8,-.4,.8,-.8c0,-.4,-.4,-.8,-.8,-.8c-.4,0,-.7,.4,-.7,.8c0,.4,.3,.8,.7,.8m3.1,0v0c.4,0,.7,-.4,.7,-.8c0,-.4,-.3,-.8,-.7,-.8c-.5,0,-.8,.4,-.8,.8c0,.4,.3,.8,.8,.8m3,0v0c.4,0,.8,-.4,.8,-.8c0,-.4,-.4,-.8,-.8,-.8c-.4,0,-.8,.4,-.8,.8c0,.4,.4,.8,.8,.8m3,0v0c.5,0,.8,-.4,.8,-.8c0,-.4,-.3,-.8,-.8,-.8c-.4,0,-.7,.4,-.7,.8c0,.4,.3,.8,.7,.8m3.1,0v0c.4,0,.8,-.4,.8,-.8c0,-.4,-.4,-.8,-.8,-.8c-.4,0,-.8,.4,-.8,.8c0,.4,.4,.8,.8,.8m3,0v0c.5,0,.8,-.4,.8,-.8c0,-.4,-.3,-.8,-.8,-.8c-.4,0,-.7,.4,-.7,.8c0,.4,.3,.8,.7,.8m3.1,0v0c.4,0,.7,-.4,.7,-.8c0,-.4,-.3,-.8,-.7,-.8c-.5,0,-.8,.4,-.8,.8c0,.4,.3,.8,.8,.8m3,0v0c.4,0,.8,-.4,.8,-.8c0,-.4,-.4,-.8,-.8,-.8c-.4,0,-.8,.4,-.8,.8c0,.4,.4,.8,.8,.8m3.1,0v0c.4,0,.7,-.4,.7,-.8c0,-.4,-.3,-.8,-.7,-.8c-.5,0,-.8,.4,-.8,.8c0,.4,.3,.8,.8,.8m3,0v0c.4,0,.8,-.4,.8,-.8c0,-.4,-.4,-.8,-.8,-.8c-.4,0,-.8,.4,-.8,.8c0,.4,.4,.8,.8,.8m3,0v0c.5,0,.8,-.4,.8,-.8c0,-.4,-.3,-.8,-.8,-.8c-.4,0,-.7,.4,-.7,.8c0,.4,.3,.8,.7,.8m3.1,0v0c.4,0,.7,-.4,.7,-.8c0,-.4,-.3,-.8,-.7,-.8c-.4,0,-.8,.4,-.8,.8c0,.4,.4,.8,.8,.8m3,0v0c.4,0,.8,-.4,.8,-.8c0,-.4,-.4,-.8,-.8,-.8c-.4,0,-.7,.4,-.7,.8c0,.4,.3,.8,.7,.8m3.1,0v0c.4,0,.7,-.4,.7,-.8c0,-.4,-.3,-.8,-.7,-.8c-.5,0,-.8,.4,-.8,.8c0,.4,.3,.8,.8,.8m3,0v0c.4,0,.8,-.4,.8,-.8c0,-.4,-.4,-.8,-.8,-.8c-.4,0,-.8,.4,-.8,.8c0,.4,.4,.8,.8,.8m3,0v0c.5,0,.8,-.4,.8,-.8c0,-.4,-.3,-.8,-.8,-.8c-.4,0,-.7,.4,-.7,.8c0,.4,.3,.8,.7,.8m3.1,0v0c.4,0,.7,-.4,.7,-.8c0,-.4,-.3,-.8,-.7,-.8c-.4,0,-.8,.4,-.8,.8c0,.4,.4,.8,.8,.8m3,0v0c.4,0,.8,-.4,.8,-.8c0,-.4,-.4,-.8,-.8,-.8c-.4,0,-.7,.4,-.7,.8c0,.4,.3,.8,.7,.8m3.1,0v0c.4,0,.7,-.4,.7,-.8c0,-.4,-.3,-.8,-.7,-.8c-.5,0,-.8,.4,-.8,.8c0,.4,.3,.8,.8,.8m3,0v0c.4,0,.8,-.4,.8,-.8c0,-.4,-.4,-.8,-.8,-.8c-.4,0,-.8,.4,-.8,.8c0,.4,.4,.8,.8,.8m3,0v0c.5,0,.8,-.4,.8,-.8c0,-.4,-.3,-.8,-.8,-.8c-.4,0,-.7,.4,-.7,.8c0,.4,.3,.8,.7,.8m3.1,0v0c.4,0,.8,-.4,.8,-.8c0,-.4,-.4,-.8,-.8,-.8c-.4,0,-.8,.4,-.8,.8c0,.4,.4,.8,.8,.8m3,0v0c.5,0,.8,-.4,.8,-.8c0,-.4,-.3,-.8,-.8,-.8c-.4,0,-.7,.4,-.7,.8c0,.4,.3,.8,.7,.8m3.1,0v0c.4,0,.7,-.4,.7,-.8c0,-.4,-.3,-.8,-.7,-.8c-.5,0,-.8,.4,-.8,.8c0,.4,.3,.8,.8,.8m3,0v0c.4,0,.8,-.4,.8,-.8c0,-.4,-.4,-.8,-.8,-.8c-.4,0,-.8,.4,-.8,.8c0,.4,.4,.8,.8,.8m3.1,0v0c.4,0,.7,-.4,.7,-.8c0,-.4,-.3,-.8,-.7,-.8c-.5,0,-.8,.4,-.8,.8c0,.4,.3,.8,.8,.8m3,0v0c.4,0,.8,-.4,.8,-.8c0,-.4,-.4,-.8,-.8,-.8c-.4,0,-.8,.4,-.8,.8c0,.4,.4,.8,.8,.8m3,0v0c.5,0,.8,-.4,.8,-.8c0,-.4,-.3,-.8,-.8,-.8c-.4,0,-.7,.4,-.7,.8c0,.4,.3,.8,.7,.8m3.1,0v0c.4,0,.7,-.4,.7,-.8c0,-.4,-.3,-.8,-.7,-.8c-.4,0,-.8,.4,-.8,.8c0,.4,.4,.8,.8,.8m3,0v0c.4,0,.8,-.4,.8,-.8c0,-.4,-.4,-.8,-.8,-.8c-.4,0,-.7,.4,-.7,.8c0,.4,.3,.8,.7,.8m3.1,0v0c.4,0,.7,-.4,.7,-.8c0,-.4,-.3,-.8,-.7,-.8c-.5,0,-.8,.4,-.8,.8c0,.4,.3,.8,.8,.8m3,0v0c.4,0,.8,-.4,.8,-.8c0,-.4,-.4,-.8,-.8,-.8c-.4,0,-.8,.4,-.8,.8c0,.4,.4,.8,.8,.8m3,0v0c.5,0,.8,-.4,.8,-.8c0,-.4,-.3,-.8,-.8,-.8c-.4,0,-.7,.4,-.7,.8c0,.4,.3,.8,.7,.8m3.1,0v0c.4,0,.7,-.4,.7,-.8c0,-.4,-.3,-.8,-.7,-.8c-.4,0,-.8,.4,-.8,.8c0,.4,.4,.8,.8,.8m3,0v0c.4,0,.8,-.4,.8,-.8c0,-.4,-.4,-.8,-.8,-.8c-.4,0,-.7,.4,-.7,.8c0,.4,.3,.8,.7,.8m3.1,0v0c.4,0,.7,-.4,.7,-.8c0,-.4,-.3,-.8,-.7,-.8c-.5,0,-.8,.4,-.8,.8c0,.4,.3,.8,.8,.8m3,0v0c.4,0,.8,-.4,.8,-.8c0,-.4,-.4,-.8,-.8,-.8c-.4,0,-.8,.4,-.8,.8c0,.4,.4,.8,.8,.8m3,0v0c.5,0,.8,-.4,.8,-.8c0,-.4,-.3,-.8,-.8,-.8c-.4,0,-.7,.4,-.7,.8c0,.4,.3,.8,.7,.8m3.1,0v0c.4,0,.8,-.4,.8,-.8c0,-.4,-.4,-.8,-.8,-.8c-.4,0,-.8,.4,-.8,.8c0,.4,.4,.8,.8,.8m3,0v0c.5,0,.8,-.4,.8,-.8c0,-.4,-.3,-.8,-.8,-.8c-.4,0,-.7,.4,-.7,.8c0,.4,.3,.8,.7,.8m3.1,0v0c.4,0,.7,-.4,.7,-.8c0,-.4,-.3,-.8,-.7,-.8c-.5,0,-.8,.4,-.8,.8c0,.4,.3,.8,.8,.8m3,0v0c.4,0,.8,-.4,.8,-.8c0,-.4,-.4,-.8,-.8,-.8c-.4,0,-.8,.4,-.8,.8c0,.4,.4,.8,.8,.8m3.1,0v0c.4,0,.7,-.4,.7,-.8c0,-.4,-.3,-.8,-.7,-.8c-.5,0,-.8,.4,-.8,.8c0,.4,.3,.8,.8,.8m3,0v0c.4,0,.8,-.4,.8,-.8c0,-.4,-.4,-.8,-.8,-.8c-.4,0,-.8,.4,-.8,.8c0,.4,.4,.8,.8,.8m3,0v0c.5,0,.8,-.4,.8,-.8c0,-.4,-.3,-.8,-.8,-.8c-.4,0,-.7,.4,-.7,.8c0,.4,.3,.8,.7,.8m3.1,0v0c.4,0,.7,-.4,.7,-.8c0,-.4,-.3,-.8,-.7,-.8c-.4,0,-.8,.4,-.8,.8c0,.4,.4,.8,.8,.8m3,0v0c.4,0,.8,-.4,.8,-.8c0,-.4,-.4,-.8,-.8,-.8c-.4,0,-.7,.4,-.7,.8c0,.4,.3,.8,.7,.8m3.1,0v0c.4,0,.7,-.4,.7,-.8c0,-.4,-.3,-.8,-.7,-.8c-.5,0,-.8,.4,-.8,.8c0,.4,.3,.8,.8,.8m3,0v0c.4,0,.8,-.4,.8,-.8c0,-.4,-.4,-.8,-.8,-.8c-.4,0,-.8,.4,-.8,.8c0,.4,.4,.8,.8,.8m3,0v0c.5,0,.8,-.4,.8,-.8c0,-.4,-.3,-.8,-.8,-.8c-.4,0,-.7,.4,-.7,.8c0,.4,.3,.8,.7,.8m3.1,0v0c.4,0,.7,-.4,.7,-.8c0,-.4,-.3,-.8,-.7,-.8c-.4,0,-.8,.4,-.8,.8c0,.4,.4,.8,.8,.8m3,0v0c.4,0,.8,-.4,.8,-.8c0,-.4,-.4,-.8,-.8,-.8c-.4,0,-.7,.4,-.7,.8c0,.4,.3,.8,.7,.8m3.1,0v0c.4,0,.7,-.4,.7,-.8c0,-.4,-.3,-.8,-.7,-.8c-.5,0,-.8,.4,-.8,.8c0,.4,.3,.8,.8,.8m3,0v0c.4,0,.8,-.4,.8,-.8c0,-.4,-.4,-.8,-.8,-.8c-.4,0,-.8,.4,-.8,.8c0,.4,.4,.8,.8,.8m3,0v0c.5,0,.8,-.4,.8,-.8c0,-.4,-.3,-.8,-.8,-.8c-.4,0,-.7,.4,-.7,.8c0,.4,.3,.8,.7,.8m3.1,0v0c.4,0,.8,-.4,.8,-.8c0,-.4,-.4,-.8,-.8,-.8c-.4,0,-.8,.4,-.8,.8c0,.4,.4,.8,.8,.8m3,0v0c.5,0,.8,-.4,.8,-.8c0,-.4,-.3,-.8,-.8,-.8c-.4,0,-.7,.4,-.7,.8c0,.4,.3,.8,.7,.8m3.1,0v0c.4,0,.7,-.4,.7,-.8c0,-.4,-.3,-.8,-.7,-.8c-.5,0,-.8,.4,-.8,.8c0,.4,.3,.8,.8,.8m3,0v0c.4,0,.8,-.4,.8,-.8c0,-.4,-.4,-.8,-.8,-.8c-.4,0,-.8,.4,-.8,.8c0,.4,.4,.8,.8,.8m3.1,0v0c.4,0,.7,-.4,.7,-.8c0,-.4,-.3,-.8,-.7,-.8c-.5,0,-.8,.4,-.8,.8c0,.4,.3,.8,.8,.8m3,0v0c.4,0,.8,-.4,.8,-.8c0,-.4,-.4,-.8,-.8,-.8c-.4,0,-.8,.4,-.8,.8c0,.4,.4,.8,.8,.8m3,0v0c.5,0,.8,-.4,.8,-.8c0,-.4,-.3,-.8,-.8,-.8c-.4,0,-.7,.4,-.7,.8c0,.4,.3,.8,.7,.8m3.1,0v0c.4,0,.7,-.4,.7,-.8c0,-.4,-.3,-.8,-.7,-.8c-.4,0,-.8,.4,-.8,.8c0,.4,.4,.8,.8,.8m3,0v0c.4,0,.8,-.4,.8,-.8c0,-.4,-.4,-.8,-.8,-.8c-.4,0,-.7,.4,-.7,.8c0,.4,.3,.8,.7,.8m3.1,0v0c.4,0,.7,-.4,.7,-.8c0,-.4,-.3,-.8,-.7,-.8c-.5,0,-.8,.4,-.8,.8c0,.4,.3,.8,.8,.8m3,0v0c.4,0,.8,-.4,.8,-.8c0,-.4,-.4,-.8,-.8,-.8c-.4,0,-.8,.4,-.8,.8c0,.4,.4,.8,.8,.8m3,0v0c.5,0,.8,-.4,.8,-.8c0,-.4,-.3,-.8,-.8,-.8c-.4,0,-.7,.4,-.7,.8c0,.4,.3,.8,.7,.8m3.1,0v0c.4,0,.7,-.4,.7,-.8c0,-.4,-.3,-.8,-.7,-.8c-.4,0,-.8,.4,-.8,.8c0,.4,.4,.8,.8,.8m3,0v0c.4,0,.8,-.4,.8,-.8c0,-.4,-.4,-.8,-.8,-.8c-.4,0,-.7,.4,-.7,.8c0,.4,.3,.8,.7,.8m3.1,0v0c.4,0,.7,-.4,.7,-.8c0,-.4,-.3,-.8,-.7,-.8c-.5,0,-.8,.4,-.8,.8c0,.4,.3,.8,.8,.8m3,0v0c.4,0,.8,-.4,.8,-.8c0,-.4,-.4,-.8,-.8,-.8c-.4,0,-.8,.4,-.8,.8c0,.4,.4,.8,.8,.8m3,0v0c.5,0,.8,-.4,.8,-.8c0,-.4,-.3,-.8,-.8,-.8c-.4,0,-.7,.4,-.7,.8c0,.4,.3,.8,.7,.8m3.1,0v0c.4,0,.8,-.4,.8,-.8c0,-.4,-.4,-.8,-.8,-.8c-.4,0,-.8,.4,-.8,.8c0,.4,.4,.8,.8,.8m3,0v0c.5,0,.8,-.4,.8,-.8c0,-.4,-.3,-.8,-.8,-.8c-.4,0,-.7,.4,-.7,.8c0,.4,.3,.8,.7,.8m3.1,0v0c.4,0,.7,-.4,.7,-.8c0,-.4,-.3,-.8,-.7,-.8c-.5,0,-.8,.4,-.8,.8c0,.4,.3,.8,.8,.8m3,0v0c.4,0,.8,-.4,.8,-.8c0,-.4,-.4,-.8,-.8,-.8c-.4,0,-.8,.4,-.8,.8c0,.4,.4,.8,.8,.8m3.1,0v0c.4,0,.7,-.4,.7,-.8c0,-.4,-.3,-.8,-.7,-.8c-.5,0,-.8,.4,-.8,.8c0,.4,.3,.8,.8,.8m3,0v0c.4,0,.8,-.4,.8,-.8c0,-.4,-.4,-.8,-.8,-.8c-.4,0,-.8,.4,-.8,.8c0,.4,.4,.8,.8,.8m3,0v0c.5,0,.8,-.4,.8,-.8c0,-.4,-.3,-.8,-.8,-.8c-.4,0,-.7,.4,-.7,.8c0,.4,.3,.8,.7,.8m3.1,0v0c.4,0,.7,-.4,.7,-.8c0,-.4,-.3,-.8,-.7,-.8c-.4,0,-.8,.4,-.8,.8c0,.4,.4,.8,.8,.8m3,0v0c.4,0,.8,-.4,.8,-.8c0,-.4,-.4,-.8,-.8,-.8c-.4,0,-.7,.4,-.7,.8c0,.4,.3,.8,.7,.8m3.1,0v0c.4,0,.7,-.4,.7,-.8c0,-.4,-.3,-.8,-.7,-.8c-.5,0,-.8,.4,-.8,.8c0,.4,.3,.8,.8,.8m3,0v0c.4,0,.8,-.4,.8,-.8c0,-.4,-.4,-.8,-.8,-.8c-.4,0,-.8,.4,-.8,.8c0,.4,.4,.8,.8,.8m3,0v0c.5,0,.8,-.4,.8,-.8c0,-.4,-.3,-.8,-.8,-.8c-.4,0,-.7,.4,-.7,.8c0,.4,.3,.8,.7,.8m3.1,0v0c.4,0,.7,-.4,.7,-.8c0,-.4,-.3,-.8,-.7,-.8c-.4,0,-.8,.4,-.8,.8c0,.4,.4,.8,.8,.8m3,0v0c.4,0,.8,-.4,.8,-.8c0,-.4,-.4,-.8,-.8,-.8c-.4,0,-.7,.4,-.7,.8c0,.4,.3,.8,.7,.8Z" class="g4_8"/>
<path d="M39.7,1117.7c.2,0,.4,-.1,.6,-.3c.1,-.1,.2,-.3,.2,-.5c0,-.2,-.1,-.4,-.2,-.5c-.2,-.2,-.4,-.3,-.6,-.3c-.2,0,-.4,.1,-.5,.3c-.1,.1,-.2,.3,-.2,.5c0,.2,.1,.4,.2,.5c.1,.2,.3,.3,.5,.3m267.7,0c.2,0,.4,-.1,.5,-.3c.1,-.1,.2,-.3,.2,-.5c0,-.2,-.1,-.4,-.2,-.5c-.1,-.2,-.3,-.3,-.5,-.3c-.2,0,-.4,.1,-.6,.3c-.1,.1,-.2,.3,-.2,.5c0,.2,.1,.4,.2,.5c.2,.2,.4,.3,.6,.3Z" class="g4_8"/>
<path d="M39,932.5H308.1v-2.2H39Z" class="g4_8"/>
<path d="M244.6,1189v-29.9h-.8V1189Z" class="g5_8"/>
<path d="M180.5,1158.3v-27.6h-.7v27.6Z" class="g5_8"/>
<path d="M180.5,1189v-30.7h-.7V1189Z" class="g5_8"/>
<path d="M180.5,1211.5V1192h-.7v19.5Z" class="g5_8"/>
<path d="M180.9,1211.8v0l.2,-.1l-.2,-.2l-.2,.2Zm.8,0v0l.2,-.1l-.2,-.2l-.2,.2Zm.7,0v0l.2,-.1l-.2,-.2l-.1,.2Zm.8,0v0l.2,-.1l-.2,-.2l-.2,.2Zm.8,0v0l.2,-.1l-.2,-.2l-.2,.2Zm.7,0v0l.2,-.1l-.2,-.2l-.2,.2Zm.8,0v0l.2,-.1l-.2,-.2l-.2,.2Zm.8,0v0l.1,-.1l-.1,-.2l-.2,.2Zm.7,0v0l.2,-.1l-.2,-.2l-.2,.2Zm.8,0v0l.2,-.1l-.2,-.2l-.2,.2Zm.7,0v0l.2,-.1l-.2,-.2l-.1,.2Zm.8,0v0l.2,-.1l-.2,-.2l-.2,.2Zm.8,0v0l.2,-.1l-.2,-.2l-.2,.2Zm.7,0v0l.2,-.1l-.2,-.2l-.2,.2Zm.8,0v0l.2,-.1l-.2,-.2l-.2,.2Zm.8,0v0l.1,-.1l-.1,-.2l-.2,.2Zm.7,0v0l.2,-.1l-.2,-.2l-.2,.2Zm.8,0v0l.2,-.1l-.2,-.2l-.2,.2Zm.7,0v0l.2,-.1l-.2,-.2l-.1,.2Zm.8,0v0l.2,-.1l-.2,-.2l-.2,.2Zm.8,0v0l.2,-.1l-.2,-.2l-.2,.2Zm.7,0v0l.2,-.1l-.2,-.2l-.2,.2Zm.8,0v0l.2,-.1l-.2,-.2l-.2,.2Zm.8,0v0l.1,-.1l-.1,-.2l-.2,.2Zm.7,0v0l.2,-.1l-.2,-.2l-.2,.2Zm.8,0v0l.2,-.1l-.2,-.2l-.2,.2Zm.7,0v0l.2,-.1l-.2,-.2l-.1,.2Zm.8,0v0l.2,-.1l-.2,-.2l-.2,.2Zm.8,0v0l.2,-.1l-.2,-.2l-.2,.2Zm.7,0v0l.2,-.1l-.2,-.2l-.2,.2Zm.8,0v0l.2,-.1l-.2,-.2l-.2,.2Zm.8,0v0l.1,-.1l-.1,-.2l-.2,.2Zm.7,0v0l.2,-.1l-.2,-.2l-.2,.2Zm.8,0v0l.2,-.1l-.2,-.2l-.2,.2Zm.7,0v0l.2,-.1l-.2,-.2l-.1,.2Zm.8,0v0l.2,-.1l-.2,-.2l-.2,.2Zm.8,0v0l.2,-.1l-.2,-.2l-.2,.2Zm.7,0v0l.2,-.1l-.2,-.2l-.2,.2Zm.8,0v0l.2,-.1l-.2,-.2l-.2,.2Zm.8,0v0l.1,-.1l-.1,-.2l-.2,.2Zm.7,0v0l.2,-.1l-.2,-.2l-.2,.2Zm.8,0v0l.2,-.1l-.2,-.2l-.2,.2Zm.7,0v0l.2,-.1l-.2,-.2l-.2,.2Zm.8,0v0l.2,-.1l-.2,-.2l-.2,.2Zm.8,0v0l.2,-.1l-.2,-.2l-.2,.2Zm.7,0v0l.2,-.1l-.2,-.2l-.2,.2Zm.8,0v0l.2,-.1l-.2,-.2l-.2,.2Zm.8,0v0l.1,-.1l-.1,-.2l-.2,.2Zm.7,0v0l.2,-.1l-.2,-.2l-.2,.2Zm.8,0v0l.2,-.1l-.2,-.2l-.2,.2Zm.7,0v0l.2,-.1l-.2,-.2l-.2,.2Zm.8,0v0l.2,-.1l-.2,-.2l-.2,.2Zm.8,0v0l.2,-.1l-.2,-.2l-.2,.2Zm.7,0v0l.2,-.1l-.2,-.2l-.2,.2Zm.8,0v0l.2,-.1l-.2,-.2l-.2,.2Zm.8,0v0l.1,-.1l-.1,-.2l-.2,.2Zm.7,0v0l.2,-.1l-.2,-.2l-.2,.2Zm.8,0v0l.2,-.1l-.2,-.2l-.2,.2Zm.7,0v0l.2,-.1l-.2,-.2l-.2,.2Zm.8,0v0l.2,-.1l-.2,-.2l-.2,.2Zm.8,0v0l.2,-.1l-.2,-.2l-.2,.2Zm.7,0v0l.2,-.1l-.2,-.2l-.2,.2Zm.8,0v0l.2,-.1l-.2,-.2l-.2,.2Zm.8,0v0l.1,-.1l-.1,-.2l-.2,.2Zm.7,0v0l.2,-.1l-.2,-.2l-.2,.2Zm.8,0v0l.2,-.1l-.2,-.2l-.2,.2Zm.7,0v0l.2,-.1l-.2,-.2l-.2,.2Zm.8,0v0l.2,-.1l-.2,-.2l-.2,.2Zm.8,0v0l.2,-.1l-.2,-.2l-.2,.2Zm.7,0v0l.2,-.1l-.2,-.2l-.2,.2Zm.8,0v0l.2,-.1l-.2,-.2l-.2,.2Zm.8,0v0l.1,-.1l-.1,-.2l-.2,.2Zm.7,0v0l.2,-.1l-.2,-.2l-.2,.2Zm.8,0v0l.2,-.1l-.2,-.2l-.2,.2Zm.7,0v0l.2,-.1l-.2,-.2l-.2,.2Zm.8,0v0l.2,-.1l-.2,-.2l-.2,.2Zm.8,0v0l.2,-.1l-.2,-.2l-.2,.2Zm.7,0v0l.2,-.1l-.2,-.2l-.2,.2Zm.8,0v0l.2,-.1l-.2,-.2l-.2,.2Zm.7,0v0l.2,-.1l-.2,-.2l-.1,.2Zm.8,0v0l.2,-.1l-.2,-.2l-.2,.2Zm.8,0v0l.2,-.1l-.2,-.2l-.2,.2Zm.7,0v0l.2,-.1l-.2,-.2l-.2,.2Z" class="g3_8"/>
<path d="M180.2,1211.8h.1v-.3H180v.3Zm64,0h.1l.1,-.1l-.1,-.2h-.2l-.1,.2l.1,.1Z" class="g3_8"/>
<path d="M245,1211.8v0l.2,-.1l-.2,-.2l-.2,.2Zm.7,0v0l.2,-.1l-.2,-.2l-.2,.2Zm.8,0v0l.2,-.1l-.2,-.2l-.2,.2Zm.7,0v0l.2,-.1l-.2,-.2l-.2,.2Zm.8,0v0l.2,-.1l-.2,-.2l-.2,.2Zm.8,0v0l.2,-.1l-.2,-.2l-.2,.2Zm.7,0v0l.2,-.1l-.2,-.2l-.2,.2Zm.8,0v0l.2,-.1l-.2,-.2l-.2,.2Zm.7,0v0l.2,-.1l-.2,-.2l-.2,.2Zm.8,0v0l.2,-.1l-.2,-.2l-.2,.2Zm.8,0v0l.2,-.1l-.2,-.2l-.2,.2Zm.7,0v0l.2,-.1l-.2,-.2l-.2,.2Zm.8,0v0l.2,-.1l-.2,-.2l-.2,.2Zm.7,0v0l.2,-.1l-.2,-.2l-.2,.2Zm.8,0v0l.2,-.1l-.2,-.2l-.2,.2Zm.8,0v0l.2,-.1l-.2,-.2l-.2,.2Zm.7,0v0l.2,-.1l-.2,-.2l-.2,.2Zm.8,0v0l.2,-.1l-.2,-.2l-.2,.2Zm.7,0v0l.2,-.1l-.2,-.2l-.1,.2Zm.8,0v0l.2,-.1l-.2,-.2l-.2,.2Zm.8,0v0l.2,-.1l-.2,-.2l-.2,.2Zm.7,0v0l.2,-.1l-.2,-.2l-.2,.2Zm.8,0v0l.2,-.1l-.2,-.2l-.2,.2Zm.7,0v0l.2,-.1l-.2,-.2l-.1,.2Zm.8,0v0l.2,-.1l-.2,-.2l-.2,.2Zm.8,0v0l.2,-.1l-.2,-.2l-.2,.2Zm.7,0v0l.2,-.1l-.2,-.2l-.2,.2Zm.8,0v0l.2,-.1l-.2,-.2l-.2,.2Zm.7,0v0l.2,-.1l-.2,-.2l-.1,.2Zm.8,0v0l.2,-.1l-.2,-.2l-.2,.2Zm.8,0v0l.2,-.1l-.2,-.2l-.2,.2Zm.7,0v0l.2,-.1l-.2,-.2l-.2,.2Zm.8,0v0l.2,-.1l-.2,-.2l-.2,.2Zm.7,0v0l.2,-.1l-.2,-.2l-.1,.2Zm.8,0v0l.2,-.1l-.2,-.2l-.2,.2Zm.8,0v0l.2,-.1l-.2,-.2l-.2,.2Zm.7,0v0l.2,-.1l-.2,-.2l-.2,.2Zm.8,0v0l.2,-.1l-.2,-.2l-.2,.2Zm.7,0v0l.2,-.1l-.2,-.2l-.1,.2Zm.8,0v0l.2,-.1l-.2,-.2l-.2,.2Zm.8,0v0l.2,-.1l-.2,-.2l-.2,.2Zm.7,0v0l.2,-.1l-.2,-.2l-.2,.2Zm.8,0v0l.2,-.1l-.2,-.2l-.2,.2Zm.7,0v0l.2,-.1l-.2,-.2l-.1,.2Zm.8,0v0l.2,-.1l-.2,-.2l-.2,.2Zm.8,0v0l.2,-.1l-.2,-.2l-.2,.2Zm.7,0v0l.2,-.1l-.2,-.2l-.2,.2Zm.8,0v0l.2,-.1l-.2,-.2l-.2,.2Zm.7,0v0l.2,-.1l-.2,-.2l-.1,.2Zm.8,0v0l.2,-.1l-.2,-.2l-.2,.2Zm.8,0v0l.2,-.1l-.2,-.2l-.2,.2Zm.7,0v0l.2,-.1l-.2,-.2l-.2,.2Zm.8,0v0l.2,-.1l-.2,-.2l-.2,.2Zm.7,0v0l.2,-.1l-.2,-.2l-.1,.2Zm.8,0v0l.2,-.1l-.2,-.2l-.2,.2Zm.8,0v0l.2,-.1l-.2,-.2l-.2,.2Zm.7,0v0l.2,-.1l-.2,-.2l-.2,.2Zm.8,0v0l.2,-.1l-.2,-.2l-.2,.2Zm.7,0v0l.2,-.1l-.2,-.2l-.1,.2Zm.8,0v0l.2,-.1l-.2,-.2l-.2,.2Zm.8,0v0l.2,-.1l-.2,-.2l-.2,.2Zm.7,0v0l.2,-.1l-.2,-.2l-.2,.2Zm.8,0v0l.2,-.1l-.2,-.2l-.2,.2Zm.7,0v0l.2,-.1l-.2,-.2l-.1,.2Zm.8,0v0l.2,-.1l-.2,-.2l-.2,.2Zm.8,0v0l.2,-.1l-.2,-.2l-.2,.2Zm.7,0v0l.2,-.1l-.2,-.2l-.2,.2Zm.8,0v0l.2,-.1l-.2,-.2l-.2,.2Zm.7,0v0l.2,-.1l-.2,-.2l-.1,.2Zm.8,0v0l.2,-.1l-.2,-.2l-.2,.2Zm.8,0v0l.2,-.1l-.2,-.2l-.2,.2Zm.7,0v0l.2,-.1l-.2,-.2l-.2,.2Zm.8,0v0l.2,-.1l-.2,-.2l-.2,.2Zm.7,0v0l.2,-.1l-.2,-.2l-.1,.2Zm.8,0v0l.2,-.1l-.2,-.2l-.2,.2Zm.8,0v0l.2,-.1l-.2,-.2l-.2,.2Zm.7,0v0l.2,-.1l-.2,-.2l-.2,.2Zm.8,0v0l.2,-.1l-.2,-.2l-.2,.2Zm.7,0v0l.2,-.1l-.2,-.2l-.1,.2Zm.8,0v0l.2,-.1l-.2,-.2l-.2,.2Zm.8,0v0l.2,-.1l-.2,-.2l-.2,.2Zm.7,0v0l.2,-.1l-.2,-.2l-.2,.2Zm.8,0v0l.2,-.1l-.2,-.2l-.2,.2Z" class="g3_8"/>
<path d="M244.2,1211.8h.1l.1,-.1l-.1,-.2h-.2l-.1,.2l.1,.1Zm63.8,0h.2v-.3h-.3v.3Z" class="g3_8"/>
<path d="M180.5,1245.1v-33.3h-.7v33.3Z" class="g5_8"/>
<path clip-path="url(#c1_8)" d="M39,1192H180.2v-3H39Z" class="g3_8"/>
<path d="M39.9,1211.8v0l.2,-.1l-.2,-.2l-.2,.2Zm.8,0v0l.2,-.1l-.2,-.2l-.2,.2Zm.8,0v0l.1,-.1l-.1,-.2l-.2,.2Zm.7,0v0l.2,-.1l-.2,-.2l-.2,.2Zm.8,0v0l.2,-.1l-.2,-.2l-.2,.2Zm.7,0v0l.2,-.1l-.2,-.2l-.2,.2Zm.8,0v0l.2,-.1l-.2,-.2l-.2,.2Zm.8,0v0l.2,-.1l-.2,-.2l-.2,.2Zm.7,0v0l.2,-.1l-.2,-.2l-.2,.2Zm.8,0v0l.2,-.1l-.2,-.2l-.2,.2Zm.7,0v0l.2,-.1l-.2,-.2l-.1,.2Zm.8,0v0l.2,-.1l-.2,-.2l-.2,.2Zm.8,0v0l.2,-.1l-.2,-.2l-.2,.2Zm.7,0v0l.2,-.1l-.2,-.2l-.2,.2Zm.8,0v0l.2,-.1l-.2,-.2l-.2,.2Zm.8,0v0l.1,-.1l-.1,-.2l-.2,.2Zm.7,0v0l.2,-.1l-.2,-.2l-.2,.2Zm.8,0v0l.2,-.1l-.2,-.2l-.2,.2Zm.7,0v0l.2,-.1l-.2,-.2l-.1,.2Zm.8,0v0l.2,-.1l-.2,-.2l-.2,.2Zm.8,0v0l.2,-.1l-.2,-.2l-.2,.2Zm.7,0v0l.2,-.1l-.2,-.2l-.2,.2Zm.8,0v0l.2,-.1l-.2,-.2l-.2,.2Zm.8,0v0l.1,-.1l-.1,-.2l-.2,.2Zm.7,0v0l.2,-.1l-.2,-.2l-.2,.2Zm.8,0v0l.2,-.1l-.2,-.2l-.2,.2Zm.7,0v0l.2,-.1l-.2,-.2l-.1,.2Zm.8,0v0l.2,-.1l-.2,-.2l-.2,.2Zm.8,0v0l.2,-.1l-.2,-.2l-.2,.2Zm.7,0v0l.2,-.1l-.2,-.2l-.2,.2Zm.8,0v0l.2,-.1l-.2,-.2l-.2,.2Zm.8,0v0l.1,-.1l-.1,-.2l-.2,.2Zm.7,0v0l.2,-.1l-.2,-.2l-.2,.2Zm.8,0v0l.2,-.1l-.2,-.2l-.2,.2Zm.7,0v0l.2,-.1l-.2,-.2l-.2,.2Zm.8,0v0l.2,-.1l-.2,-.2l-.2,.2Zm.8,0v0l.2,-.1l-.2,-.2l-.2,.2Zm.7,0v0l.2,-.1l-.2,-.2l-.2,.2Zm.8,0v0l.2,-.1l-.2,-.2l-.2,.2Zm.7,0v0l.2,-.1l-.2,-.2l-.1,.2Zm.8,0v0l.2,-.1l-.2,-.2l-.2,.2Zm.8,0v0l.2,-.1l-.2,-.2l-.2,.2Zm.7,0v0l.2,-.1l-.2,-.2l-.2,.2Zm.8,0v0l.2,-.1l-.2,-.2l-.2,.2Zm.8,0v0l.2,-.1l-.2,-.2l-.2,.2Zm.7,0v0l.2,-.1l-.2,-.2l-.2,.2Zm.8,0v0l.2,-.1l-.2,-.2l-.2,.2Zm.7,0v0l.2,-.1l-.2,-.2l-.1,.2Zm.8,0v0l.2,-.1l-.2,-.2l-.2,.2Zm.8,0v0l.2,-.1l-.2,-.2l-.2,.2Zm.7,0v0l.2,-.1l-.2,-.2l-.2,.2Zm.8,0v0l.2,-.1l-.2,-.2l-.2,.2Zm.8,0v0l.1,-.1l-.1,-.2l-.2,.2Zm.7,0v0l.2,-.1l-.2,-.2l-.2,.2Zm.8,0v0l.2,-.1l-.2,-.2l-.2,.2Zm.7,0v0l.2,-.1l-.2,-.2l-.1,.2Zm.8,0v0l.2,-.1l-.2,-.2l-.2,.2Zm.8,0v0l.2,-.1l-.2,-.2l-.2,.2Zm.7,0v0l.2,-.1l-.2,-.2l-.2,.2Zm.8,0v0l.2,-.1l-.2,-.2l-.2,.2Zm.8,0v0l.1,-.1l-.1,-.2l-.2,.2Zm.7,0v0l.2,-.1l-.2,-.2l-.2,.2Zm.8,0v0l.2,-.1l-.2,-.2l-.2,.2Zm.7,0v0l.2,-.1l-.2,-.2l-.2,.2Zm.8,0v0l.2,-.1l-.2,-.2l-.2,.2Zm.8,0v0l.2,-.1l-.2,-.2l-.2,.2Zm.7,0v0l.2,-.1l-.2,-.2l-.2,.2Zm.8,0v0l.2,-.1l-.2,-.2l-.2,.2Zm.8,0v0l.1,-.1l-.1,-.2l-.2,.2Zm.7,0v0l.2,-.1l-.2,-.2l-.2,.2Zm.8,0v0l.2,-.1l-.2,-.2l-.2,.2Zm.7,0v0l.2,-.1l-.2,-.2l-.2,.2Zm.8,0v0l.2,-.1l-.2,-.2l-.2,.2Zm.8,0v0l.2,-.1l-.2,-.2l-.2,.2Zm.7,0v0l.2,-.1l-.2,-.2l-.2,.2Zm.8,0v0l.2,-.1l-.2,-.2l-.2,.2Zm.7,0v0l.2,-.1l-.2,-.2l-.1,.2Zm.8,0v0l.2,-.1l-.2,-.2l-.2,.2Zm.8,0v0l.2,-.1l-.2,-.2l-.2,.2Zm.7,0v0l.2,-.1l-.2,-.2l-.2,.2Zm.8,0v0l.2,-.1l-.2,-.2l-.2,.2Zm.8,0v0l.1,-.1l-.1,-.2l-.2,.2Zm.7,0v0l.2,-.1l-.2,-.2l-.2,.2Zm.8,0v0l.2,-.1l-.2,-.2l-.2,.2Zm.7,0v0l.2,-.1l-.2,-.2l-.1,.2Zm.8,0v0l.2,-.1l-.2,-.2l-.2,.2Zm.8,0v0l.2,-.1l-.2,-.2l-.2,.2Zm.7,0v0l.2,-.1l-.2,-.2l-.2,.2Zm.8,0v0l.2,-.1l-.2,-.2l-.2,.2Zm.8,0v0l.1,-.1l-.1,-.2l-.2,.2Zm.7,0v0l.2,-.1l-.2,-.2l-.2,.2Zm.8,0v0l.2,-.1l-.2,-.2l-.2,.2Zm.7,0v0l.2,-.1l-.2,-.2l-.1,.2Zm.8,0v0l.2,-.1l-.2,-.2l-.2,.2Zm.8,0v0l.2,-.1l-.2,-.2l-.2,.2Zm.7,0v0l.2,-.1l-.2,-.2l-.2,.2Zm.8,0v0l.2,-.1l-.2,-.2l-.2,.2Zm.8,0v0l.1,-.1l-.1,-.2l-.2,.2Zm.7,0v0l.2,-.1l-.2,-.2l-.2,.2Zm.8,0v0l.2,-.1l-.2,-.2l-.2,.2Zm.7,0v0l.2,-.1l-.2,-.2l-.2,.2Zm.8,0v0l.2,-.1l-.2,-.2l-.2,.2Zm.8,0v0l.2,-.1l-.2,-.2l-.2,.2Zm.7,0v0l.2,-.1l-.2,-.2l-.2,.2Zm.8,0v0l.2,-.1l-.2,-.2l-.2,.2Zm.7,0v0l.2,-.1l-.2,-.2l-.1,.2Zm.8,0v0l.2,-.1l-.2,-.2l-.2,.2Zm.8,0v0l.2,-.1l-.2,-.2l-.2,.2Zm.7,0v0l.2,-.1l-.2,-.2l-.2,.2Zm.8,0v0l.2,-.1l-.2,-.2l-.2,.2Zm.8,0v0l.2,-.1l-.2,-.2l-.2,.2Zm.7,0v0l.2,-.1l-.2,-.2l-.2,.2Zm.8,0v0l.2,-.1l-.2,-.2l-.2,.2Zm.7,0v0l.2,-.1l-.2,-.2l-.1,.2Zm.8,0v0l.2,-.1l-.2,-.2l-.2,.2Zm.8,0v0l.2,-.1l-.2,-.2l-.2,.2Zm.7,0v0l.2,-.1l-.2,-.2l-.2,.2Zm.8,0v0l.2,-.1l-.2,-.2l-.2,.2Zm.8,0v0l.1,-.1l-.1,-.2l-.2,.2Zm.7,0v0l.2,-.1l-.2,-.2l-.2,.2Zm.8,0v0l.2,-.1l-.2,-.2l-.2,.2Zm.7,0v0l.2,-.1l-.2,-.2l-.1,.2Zm.8,0v0l.2,-.1l-.2,-.2l-.2,.2Zm.8,0v0l.2,-.1l-.2,-.2l-.2,.2Zm.7,0v0l.2,-.1l-.2,-.2l-.2,.2Zm.8,0v0l.2,-.1l-.2,-.2l-.2,.2Zm.8,0v0l.1,-.1l-.1,-.2l-.2,.2Zm.7,0v0l.2,-.1l-.2,-.2l-.2,.2Zm.8,0v0l.2,-.1l-.2,-.2l-.2,.2Zm.7,0v0l.2,-.1l-.2,-.2l-.2,.2Zm.8,0v0l.2,-.1l-.2,-.2l-.2,.2Zm.8,0v0l.2,-.1l-.2,-.2l-.2,.2Zm.7,0v0l.2,-.1l-.2,-.2l-.2,.2Zm.8,0v0l.2,-.1l-.2,-.2l-.2,.2Zm.8,0v0l.1,-.1l-.1,-.2l-.2,.2Zm.7,0v0l.2,-.1l-.2,-.2l-.2,.2Zm.8,0v0l.2,-.1l-.2,-.2l-.2,.2Zm.7,0v0l.2,-.1l-.2,-.2l-.2,.2Zm.8,0v0l.2,-.1l-.2,-.2l-.2,.2Zm.8,0v0l.2,-.1l-.2,-.2l-.2,.2Zm.7,0v0l.2,-.1l-.2,-.2l-.2,.2Zm.8,0v0l.2,-.1l-.2,-.2l-.2,.2Zm.7,0v0l.2,-.1l-.2,-.2l-.1,.2Zm.8,0v0l.2,-.1l-.2,-.2l-.2,.2Zm.8,0v0l.2,-.1l-.2,-.2l-.2,.2Zm.7,0v0l.2,-.1l-.2,-.2l-.2,.2Zm.8,0v0l.2,-.1l-.2,-.2l-.2,.2Zm.8,0v0l.1,-.1l-.1,-.2l-.2,.2Zm.7,0v0l.2,-.1l-.2,-.2l-.2,.2Zm.8,0v0l.2,-.1l-.2,-.2l-.2,.2Zm.7,0v0l.2,-.1l-.2,-.2l-.1,.2Zm.8,0v0l.2,-.1l-.2,-.2l-.2,.2Zm.8,0v0l.2,-.1l-.2,-.2l-.2,.2Zm.7,0v0l.2,-.1l-.2,-.2l-.2,.2Zm.8,0v0l.2,-.1l-.2,-.2l-.2,.2Zm.8,0v0l.1,-.1l-.1,-.2l-.2,.2Zm.7,0v0l.2,-.1l-.2,-.2l-.2,.2Zm.8,0v0l.2,-.1l-.2,-.2l-.2,.2Zm.7,0v0l.2,-.1l-.2,-.2l-.2,.2Zm.8,0v0l.2,-.1l-.2,-.2l-.2,.2Zm.8,0v0l.2,-.1l-.2,-.2l-.2,.2Zm.7,0v0l.2,-.1l-.2,-.2l-.2,.2Zm.8,0v0l.2,-.1l-.2,-.2l-.2,.2Zm.8,0v0l.1,-.1l-.1,-.2l-.2,.2Zm.7,0v0l.2,-.1l-.2,-.2l-.2,.2Zm.8,0v0l.2,-.1l-.2,-.2l-.2,.2Zm.7,0v0l.2,-.1l-.2,-.2l-.2,.2Zm.8,0v0l.2,-.1l-.2,-.2l-.2,.2Zm.8,0v0l.2,-.1l-.2,-.2l-.2,.2Zm.7,0v0l.2,-.1l-.2,-.2l-.2,.2Zm.8,0v0l.2,-.1l-.2,-.2l-.2,.2Zm.7,0v0l.2,-.1l-.2,-.2l-.1,.2Zm.8,0v0l.2,-.1l-.2,-.2l-.2,.2Zm.8,0v0l.2,-.1l-.2,-.2l-.2,.2Zm.7,0v0l.2,-.1l-.2,-.2l-.2,.2Zm.8,0v0l.2,-.1l-.2,-.2l-.2,.2Zm.8,0v0l.2,-.1l-.2,-.2l-.2,.2Zm.7,0v0l.2,-.1l-.2,-.2l-.2,.2Zm.8,0v0l.2,-.1l-.2,-.2l-.2,.2Zm.7,0v0l.2,-.1l-.2,-.2l-.1,.2Zm.8,0v0l.2,-.1l-.2,-.2l-.2,.2Zm.8,0v0l.2,-.1l-.2,-.2l-.2,.2Zm.7,0v0l.2,-.1l-.2,-.2l-.2,.2Zm.8,0v0l.2,-.1l-.2,-.2l-.2,.2Z" class="g3_8"/>
<path clip-path="url(#c1_8)" d="M39.2,1211.8h.1l.1,-.1l-.1,-.2H39v.3Zm141,0h.1v-.3H180v.3Z" class="g3_8"/>
<path d="M180.2,1192h64v-3h-64Z" class="g3_8"/>
<path d="M244.2,1192h64v-3h-64Z" class="g3_8"/>
<path d="M180.5,1159.1h63.7v-1.6H180.5Z" class="g4_8"/>
<path d="M244.2,1159.1h64v-1.6h-64Z" class="g4_8"/>
<path d="M244.6,1157.5v-26.8h-.8v26.8Z" class="g5_8"/>
</svg>