<?xml version="1.0" encoding="UTF-8" standalone="no"?>
<!DOCTYPE svg PUBLIC "-//W3C//DTD SVG 1.1//EN"
"http://www.w3.org/Graphics/SVG/1.1/DTD/svg11.dtd">
<svg viewBox="0 0 1818 1286" version="1.1" xmlns="http://www.w3.org/2000/svg" xmlns:xlink="http://www.w3.org/1999/xlink">
<defs>
<clipPath id="c0_5"><path d="M1622.5,669.3V552.8h133.2V669.3Z"/></clipPath>
<clipPath id="c1_5"><path d="M1630.2,281.6V205.3h117.7v76.3Z"/></clipPath>
<clipPath id="c2_5"><path d="M69.3,1250.6V969.5H452.6v281.1Z"/></clipPath>
<clipPath id="c3_5"><path d="M0,1286.2V0H1818.9V1286.2Z"/></clipPath>
<clipPath id="c4_5"><path d="M1054.6,870.8c-38.3,0,-69.9,-28.5,-74.7,-65.5V785.8c2.3,-17.4,10.4,-32.9,22.4,-44.5h104.6c14.2,13.7,23,32.9,23,54.2c0,41.6,-33.7,75.3,-75.3,75.3Z"/></clipPath>
<clipPath id="c5_5"><path d="M1251.7,870.8c-41.6,0,-75.3,-33.7,-75.3,-75.3c0,-41.6,33.7,-75.3,75.3,-75.3c41.6,0,75.3,33.7,75.3,75.3c0,41.6,-33.7,75.3,-75.3,75.3Z"/></clipPath>
<clipPath id="c6_5"><path d="M1448.8,870.8c-41.6,0,-75.3,-33.7,-75.3,-75.3c0,-41.6,33.7,-75.3,75.3,-75.3c41.6,0,75.3,33.7,75.3,75.3c0,41.6,-33.7,75.3,-75.3,75.3Z"/></clipPath>
<clipPath id="c7_5"><path d="M1645.8,870.8c-41.6,0,-75.3,-33.7,-75.3,-75.3c0,-41.6,33.7,-75.3,75.3,-75.3c41.6,0,75.3,33.7,75.3,75.3c0,41.6,-33.7,75.3,-75.3,75.3Z"/></clipPath>
<clipPath id="c8_5"><path d="M1054.6,477.3c-41.6,0,-75.3,-33.7,-75.3,-75.3c0,-41.6,33.7,-75.3,75.3,-75.3c41.6,0,75.3,33.7,75.3,75.3c0,41.6,-33.7,75.3,-75.3,75.3Z"/></clipPath>
<clipPath id="c9_5"><path d="M1251.7,477.3c-41.6,0,-75.3,-33.7,-75.3,-75.3c0,-41.6,33.7,-75.3,75.3,-75.3c41.6,0,75.3,33.7,75.3,75.3c0,41.6,-33.7,75.3,-75.3,75.3Z"/></clipPath>
<clipPath id="ca_5"><path d="M1448.8,477.3c-41.6,0,-75.3,-33.7,-75.3,-75.3c0,-41.6,33.7,-75.3,75.3,-75.3c41.6,0,75.3,33.7,75.3,75.3c0,41.6,-33.7,75.3,-75.3,75.3Z"/></clipPath>
<clipPath id="cb_5"><path d="M1645.8,477.3c-41.6,0,-75.3,-33.7,-75.3,-75.3c0,-41.6,33.7,-75.3,75.3,-75.3c41.6,0,75.3,33.7,75.3,75.3c0,41.6,-33.7,75.3,-75.3,75.3Z"/></clipPath>
<clipPath id="cc_5"><path d="M1054.6,1244.4c-41.6,0,-75.3,-33.7,-75.3,-75.4c0,-41.6,33.7,-75.3,75.3,-75.3c41.6,0,75.3,33.7,75.3,75.3c0,41.7,-33.7,75.4,-75.3,75.4Z"/></clipPath>
<clipPath id="cd_5"><path d="M1251.7,1244.4c-41.6,0,-75.3,-33.7,-75.3,-75.4c0,-41.6,33.7,-75.3,75.3,-75.3c41.6,0,75.3,33.7,75.3,75.3c0,41.7,-33.7,75.4,-75.3,75.4Z"/></clipPath>
<clipPath id="ce_5"><path d="M1448.8,1244.4c-41.6,0,-75.3,-33.7,-75.3,-75.4c0,-41.6,33.7,-75.3,75.3,-75.3c41.6,0,75.3,33.7,75.3,75.3c0,41.7,-33.7,75.4,-75.3,75.4Z"/></clipPath>
<clipPath id="cf_5"><path d="M1645.8,1244.4c-41.6,0,-75.3,-33.7,-75.3,-75.4c0,-41.6,33.7,-75.3,75.3,-75.3c41.6,0,75.3,33.7,75.3,75.3c0,41.7,-33.7,75.4,-75.3,75.4Z"/></clipPath>
<style type="text/css"><![CDATA[
.g0_5{
fill: #D8D8D8;
}
.g1_5{
fill: #E9E7E7;
}
.g2_5{
fill: none;
stroke: #0080B5;
stroke-width: 0.524;
stroke-dasharray: 3,3;
}
.g3_5{
fill: none;
stroke: #716E74;
stroke-width: 0.507;
stroke-dasharray: 3,3;
}
.g4_5{
fill: none;
stroke: #716E74;
stroke-width: 0.507;
}
.g5_5{
fill: none;
stroke: #716E74;
stroke-width: 0.507;
stroke-dasharray: 2,2;
}
.g6_5{
fill: #0080B5;
}
.g7_5{
fill: #395C97;
}
.g8_5{
fill: #D9D7D6;
}
.g9_5{
fill: #FF4100;
}
.ga_5{
fill: #FFF;
}
.gb_5{
fill: #CCD1D1;
}
.gc_5{
fill: #D9D9D9;
}
.gd_5{
fill: #838688;
}
.ge_5{
fill: #283C8A;
}
.gf_5{
fill: #000;
}
]]></style>
</defs>
<path d="M69.3,1250.6H452.6V969.5H69.3v281.1Z" class="g0_5"/>
<image clip-path="url(#c2_5)" preserveAspectRatio="none" x="69" y="970" width="384" height="281" xlink:href="img/1.jpg"/>
<image x="909" y="0" width="685" height="130" xlink:href="shade/1.png"/>
<path d="M1572.1,129.9h246.8V0H1572.1V129.9Z" class="g1_5"/>
<g clip-path="url(#c3_5)">
<path d="M909.4,130.2H1918.5" class="g2_5"/>
<image preserveAspectRatio="none" x="941" y="696" width="225" height="210" xlink:href="img/2.png"/>
<image preserveAspectRatio="none" x="1335" y="696" width="223" height="210" xlink:href="img/3.png"/>
<image preserveAspectRatio="none" x="1138" y="687" width="225" height="210" xlink:href="img/4.png"/>
<image preserveAspectRatio="none" x="1532" y="687" width="223" height="210" xlink:href="img/5.png"/>
</g>
<path d="M1153.1,798.6c-1.6,52.3,-44,94.4,-96.4,95.4m-5.1,0c-52.4,-1.6,-94.4,-44,-95.5,-96.4" class="g3_5"/>
<path d="M1153.1,795.5c0,.4,0,.7,0,1M1055.6,894c-.3,0,-.6,0,-1,0c-.3,0,-.7,0,-1,0M956.1,796.5c0,-.3,0,-.6,0,-1" class="g4_5"/>
<path d="M1153.2,792.5c1.6,-52.4,44,-94.4,96.5,-95.5m5.1,0c52.3,1.6,94.4,44,95.4,96.5" class="g3_5"/>
<path d="M1153.2,795.5c0,-.3,0,-.7,0,-1M1250.7,697c.3,0,.7,0,1,0c.3,0,.7,0,1,0m97.5,97.5c0,.3,0,.7,0,1" class="g4_5"/>
<path d="M1547.3,792.5c2.1,-60.2,43.9,-94.7,96.5,-95.5" class="g5_5"/>
<path d="M1648.9,697c52.3,1.6,94.4,44,95.4,96.5" class="g3_5"/>
<path d="M1547.3,795.5c0,-.3,0,-.7,0,-1M1644.8,697c.3,0,.7,0,1,0c.4,0,.7,0,1,0m97.5,97.5c0,.3,0,.7,0,1" class="g4_5"/>
<path d="M1547.3,798.6c-1.6,52.3,-44,94.4,-96.5,95.4m-5.1,0c-52.3,-1.6,-94.4,-44,-95.4,-96.4" class="g3_5"/>
<path d="M1547.3,795.5c0,.4,0,.7,0,1M1449.8,894c-.3,0,-.7,0,-1,0c-.3,0,-.7,0,-1,0m-97.5,-97.5c0,-.3,0,-.6,0,-1" class="g4_5"/>
<path d="M1300.3,712.1c0,-1.7,1.4,-3.1,3.1,-3.1c1.7,0,3,1.4,3,3.1c0,1.6,-1.3,3,-3,3c-1.7,0,-3.1,-1.4,-3.1,-3Z" class="g6_5"/>
<path d="M1110.2,873.9c0,-1.7,1.3,-3.1,3,-3.1c1.7,0,3.1,1.4,3.1,3.1c0,1.7,-1.4,3.1,-3.1,3.1c-1.7,0,-3,-1.4,-3,-3.1Z" class="g6_5"/>
<path d="M1051.6,818.5c0,-1.6,1.4,-3,3.1,-3c1.7,0,3,1.4,3,3c0,1.7,-1.3,3.1,-3,3.1c-1.7,0,-3.1,-1.4,-3.1,-3.1Z" class="g6_5"/>
<path d="M952.8,795c0,-1.7,1.3,-3.1,3,-3.1c1.7,0,3.1,1.4,3.1,3.1c0,1.7,-1.4,3,-3.1,3c-1.7,0,-3,-1.3,-3,-3Z" class="g6_5"/>
<path d="M1658.4,815.6c0,-1.7,1.4,-3,3.1,-3c1.7,0,3.1,1.3,3.1,3c0,1.7,-1.4,3.1,-3.1,3.1c-1.7,0,-3.1,-1.4,-3.1,-3.1Z" class="g6_5"/>
<path d="M1518.6,863.1c0,-1.7,1.4,-3.1,3.1,-3.1c1.7,0,3,1.4,3,3.1c0,1.7,-1.3,3,-3,3c-1.7,0,-3.1,-1.3,-3.1,-3Z" class="g6_5"/>
<path d="M1741.2,795c0,-1.7,1.4,-3.1,3.1,-3.1c1.7,0,3,1.4,3,3.1c0,1.7,-1.3,3,-3,3c-1.7,0,-3.1,-1.3,-3.1,-3Z" class="g6_5"/>
<path d="M1129.9,795.5c0,41.6,-33.7,75.3,-75.3,75.3c-41.6,0,-75.3,-33.7,-75.3,-75.3c0,-41.6,33.7,-75.3,75.3,-75.3c41.6,0,75.3,33.7,75.3,75.3Z" class="g7_5"/>
<image clip-path="url(#c4_5)" preserveAspectRatio="none" x="980" y="741" width="150" height="130" xlink:href="img/6.jpg"/>
<path d="M1327,795.5c0,41.6,-33.7,75.3,-75.3,75.3c-41.6,0,-75.3,-33.7,-75.3,-75.3c0,-41.6,33.7,-75.3,75.3,-75.3c41.6,0,75.3,33.7,75.3,75.3Z" class="g7_5"/>
<image clip-path="url(#c5_5)" preserveAspectRatio="none" x="1176" y="720" width="151" height="151" xlink:href="img/7.jpg"/>
<image clip-path="url(#c6_5)" preserveAspectRatio="none" x="1373" y="720" width="151" height="151" xlink:href="img/8.jpg"/>
<path d="M1721.1,795.5c0,41.6,-33.7,75.3,-75.3,75.3c-41.6,0,-75.3,-33.7,-75.3,-75.3c0,-41.6,33.7,-75.3,75.3,-75.3c41.6,0,75.3,33.7,75.3,75.3Z" class="g8_5"/>
<image clip-path="url(#c7_5)" preserveAspectRatio="none" x="1570" y="720" width="151" height="151" xlink:href="img/9.jpg"/>
<g clip-path="url(#c3_5)">
<image preserveAspectRatio="none" x="941" y="293" width="225" height="209" xlink:href="img/10.png"/>
<image preserveAspectRatio="none" x="1335" y="293" width="223" height="209" xlink:href="img/11.png"/>
<image preserveAspectRatio="none" x="1138" y="302" width="225" height="210" xlink:href="img/12.png"/>
<image preserveAspectRatio="none" x="1532" y="302" width="223" height="210" xlink:href="img/13.png"/>
</g>
<path d="M1153.1,398.9c-1.6,-52.3,-44,-94.4,-96.4,-95.4m-5.1,0c-52.4,1.6,-94.4,44,-95.5,96.5" class="g3_5"/>
<path d="M1153.1,402c0,-.4,0,-.7,0,-1m-97.5,-97.5c-.3,0,-.6,0,-1,0c-.3,0,-.7,0,-1,0M956.1,401c0,.3,0,.6,0,1" class="g4_5"/>
<path d="M1153.2,405c1.6,52.4,44,94.4,96.5,95.5m5.1,0c52.3,-1.6,94.4,-44,95.4,-96.5" class="g3_5"/>
<path d="M1153.2,402c0,.3,0,.7,0,1m97.5,97.5c.3,0,.7,0,1,0c.3,0,.7,0,1,0M1350.2,403c0,-.3,0,-.7,0,-1" class="g4_5"/>
<path d="M1547.3,405c2.1,60.2,43.9,94.7,96.5,95.5" class="g5_5"/>
<path d="M1648.9,500.5c52.3,-1.6,94.4,-44,95.4,-96.5" class="g3_5"/>
<path d="M1547.3,402c0,.3,0,.7,0,1m97.5,97.5c.3,0,.7,0,1,0c.4,0,.7,0,1,0M1744.3,403c0,-.3,0,-.7,0,-1" class="g4_5"/>
<path d="M1547.3,398.9c-1.6,-52.3,-44,-94.4,-96.5,-95.4m-5.1,0c-52.3,1.6,-94.4,44,-95.4,96.5" class="g3_5"/>
<path d="M1547.3,402c0,-.4,0,-.7,0,-1m-97.5,-97.5c-.3,0,-.7,0,-1,0c-.3,0,-.7,0,-1,0M1350.3,401c0,.3,0,.6,0,1" class="g4_5"/>
<path d="M1110.2,323.6c0,1.7,1.3,3.1,3,3.1c1.7,0,3.1,-1.4,3.1,-3.1c0,-1.7,-1.4,-3.1,-3.1,-3.1c-1.7,0,-3,1.4,-3,3.1Z" class="g6_5"/>
<path d="M1051.6,379c0,1.6,1.4,3,3.1,3c1.7,0,3,-1.4,3,-3c0,-1.7,-1.3,-3.1,-3,-3.1c-1.7,0,-3.1,1.4,-3.1,3.1Z" class="g6_5"/>
<path d="M952.8,402.5c0,1.7,1.3,3.1,3,3.1c1.7,0,3.1,-1.4,3.1,-3.1c0,-1.7,-1.4,-3,-3.1,-3c-1.7,0,-3,1.3,-3,3Z" class="g6_5"/>
<path d="M1658.4,381.9c0,1.7,1.4,3,3.1,3c1.7,0,3.1,-1.3,3.1,-3c0,-1.7,-1.4,-3.1,-3.1,-3.1c-1.7,0,-3.1,1.4,-3.1,3.1Z" class="g6_5"/>
<path d="M1518.6,334.4c0,1.7,1.4,3.1,3.1,3.1c1.7,0,3,-1.4,3,-3.1c0,-1.7,-1.3,-3,-3,-3c-1.7,0,-3.1,1.3,-3.1,3Z" class="g6_5"/>
<path d="M1741.2,402.5c0,1.7,1.4,3.1,3.1,3.1c1.7,0,3,-1.4,3,-3.1c0,-1.7,-1.3,-3,-3,-3c-1.7,0,-3.1,1.3,-3.1,3Z" class="g6_5"/>
<path d="M1129.9,402c0,41.6,-33.7,75.3,-75.3,75.3c-41.6,0,-75.3,-33.7,-75.3,-75.3c0,-41.6,33.7,-75.3,75.3,-75.3c41.6,0,75.3,33.7,75.3,75.3Z" class="g7_5"/>
<image clip-path="url(#c8_5)" preserveAspectRatio="none" x="979" y="327" width="151" height="150" xlink:href="img/14.jpg"/>
<path d="M1327,402c0,41.6,-33.7,75.3,-75.3,75.3c-41.6,0,-75.3,-33.7,-75.3,-75.3c0,-41.6,33.7,-75.3,75.3,-75.3c41.6,0,75.3,33.7,75.3,75.3Z" class="g7_5"/>
<image clip-path="url(#c9_5)" preserveAspectRatio="none" x="1176" y="327" width="151" height="150" xlink:href="img/15.jpg"/>
<image clip-path="url(#ca_5)" preserveAspectRatio="none" x="1373" y="327" width="151" height="150" xlink:href="img/16.jpg"/>
<path d="M1721.1,402c0,41.6,-33.7,75.3,-75.3,75.3c-41.6,0,-75.3,-33.7,-75.3,-75.3c0,-41.6,33.7,-75.3,75.3,-75.3c41.6,0,75.3,33.7,75.3,75.3Z" class="g8_5"/>
<image clip-path="url(#cb_5)" preserveAspectRatio="none" x="1570" y="327" width="151" height="150" xlink:href="img/17.jpg"/>
<path d="M1294.2,489.7c0,1.7,1.3,3,3,3c1.7,0,3.1,-1.3,3.1,-3c0,-1.7,-1.4,-3.1,-3.1,-3.1c-1.7,0,-3,1.4,-3,3.1Z" class="g6_5"/>
<g clip-path="url(#c3_5)">
<image preserveAspectRatio="none" x="941" y="1060" width="225" height="209" xlink:href="img/18.png"/>
<image preserveAspectRatio="none" x="1335" y="1060" width="223" height="209" xlink:href="img/19.png"/>
<image preserveAspectRatio="none" x="1138" y="1069" width="225" height="210" xlink:href="img/20.png"/>
<image preserveAspectRatio="none" x="1532" y="1069" width="223" height="210" xlink:href="img/21.png"/>
</g>
<path d="M1153.1,1166c-1.6,-52.3,-44,-94.4,-96.4,-95.5m-5.1,.1c-52.4,1.6,-94.4,44,-95.5,96.4" class="g3_5"/>
<path d="M1153.1,1169c0,-.3,0,-.6,0,-1m-97.5,-97.5c-.3,0,-.6,0,-1,0c-.3,0,-.7,0,-1,0M956.1,1168c0,.4,0,.7,0,1" class="g4_5"/>
<path d="M1153.2,1172.1c1.6,52.3,44,94.4,96.5,95.5m5.1,-.1c52.3,-1.6,94.4,-44,95.4,-96.4" class="g3_5"/>
<path d="M1153.2,1169c0,.4,0,.7,0,1.1m97.5,97.5c.3,0,.7,0,1,0c.3,0,.7,0,1,0m97.5,-97.5c0,-.4,0,-.7,0,-1.1" class="g4_5"/>
<path d="M1547.3,1172.1c2.1,60.2,43.9,94.6,96.5,95.5" class="g5_5"/>
<path d="M1648.9,1267.5c52.3,-1.6,94.4,-44,95.4,-96.4" class="g3_5"/>
<path d="M1547.3,1169c0,.4,0,.7,0,1.1m97.5,97.5c.3,0,.7,0,1,0c.4,0,.7,0,1,0m97.5,-97.5c0,-.4,0,-.7,0,-1.1" class="g4_5"/>
<path d="M1547.3,1166c-1.6,-52.3,-44,-94.4,-96.5,-95.5m-5.1,.1c-52.3,1.6,-94.4,44,-95.4,96.4" class="g3_5"/>
<path d="M1547.3,1169c0,-.3,0,-.6,0,-1m-97.5,-97.5c-.3,0,-.7,0,-1,0c-.3,0,-.7,0,-1,0m-97.5,97.5c0,.4,0,.7,0,1" class="g4_5"/>
<path d="M1110.2,1090.7c0,1.6,1.3,3,3,3c1.7,0,3.1,-1.4,3.1,-3c0,-1.7,-1.4,-3.1,-3.1,-3.1c-1.7,0,-3,1.4,-3,3.1Z" class="g6_5"/>
<path d="M1051.6,1146c0,1.7,1.4,3.1,3.1,3.1c1.7,0,3,-1.4,3,-3.1c0,-1.7,-1.3,-3,-3,-3c-1.7,0,-3.1,1.3,-3.1,3Z" class="g6_5"/>
<path d="M952.8,1169.6c0,1.7,1.3,3,3,3c1.7,0,3.1,-1.3,3.1,-3c0,-1.7,-1.4,-3.1,-3.1,-3.1c-1.7,0,-3,1.4,-3,3.1Z" class="g6_5"/>
<path d="M1658.4,1148.9c0,1.7,1.4,3.1,3.1,3.1c1.7,0,3.1,-1.4,3.1,-3.1c0,-1.7,-1.4,-3,-3.1,-3c-1.7,0,-3.1,1.3,-3.1,3Z" class="g6_5"/>
<path d="M1518.6,1101.5c0,1.7,1.4,3,3.1,3c1.7,0,3,-1.3,3,-3c0,-1.7,-1.3,-3.1,-3,-3.1c-1.7,0,-3.1,1.4,-3.1,3.1Z" class="g6_5"/>
<path d="M1741.2,1169.6c0,1.7,1.4,3,3.1,3c1.7,0,3,-1.3,3,-3c0,-1.7,-1.3,-3.1,-3,-3.1c-1.7,0,-3.1,1.4,-3.1,3.1Z" class="g6_5"/>
<path d="M1129.9,1169c0,41.7,-33.7,75.4,-75.3,75.4c-41.6,0,-75.3,-33.7,-75.3,-75.4c0,-41.6,33.7,-75.3,75.3,-75.3c41.6,0,75.3,33.7,75.3,75.3Z" class="g7_5"/>
<image clip-path="url(#cc_5)" preserveAspectRatio="none" x="979" y="1094" width="151" height="150" xlink:href="img/22.jpg"/>
<path d="M1327,1169c0,41.7,-33.7,75.4,-75.3,75.4c-41.6,0,-75.3,-33.7,-75.3,-75.4c0,-41.6,33.7,-75.3,75.3,-75.3c41.6,0,75.3,33.7,75.3,75.3Z" class="g7_5"/>
<image clip-path="url(#cd_5)" preserveAspectRatio="none" x="1176" y="1092" width="151" height="154" xlink:href="img/23.jpg"/>
<image clip-path="url(#ce_5)" preserveAspectRatio="none" x="1373" y="1094" width="151" height="150" xlink:href="img/24.jpg"/>
<path d="M1721.1,1169c0,41.7,-33.7,75.4,-75.3,75.4c-41.6,0,-75.3,-33.7,-75.3,-75.4c0,-41.6,33.7,-75.3,75.3,-75.3c41.6,0,75.3,33.7,75.3,75.3Z" class="g8_5"/>
<image clip-path="url(#cf_5)" preserveAspectRatio="none" x="1570" y="1094" width="151" height="150" xlink:href="img/25.jpg"/>
<path d="M1294.2,1256.7c0,1.7,1.3,3.1,3,3.1c1.7,0,3.1,-1.4,3.1,-3.1c0,-1.7,-1.4,-3,-3.1,-3c-1.7,0,-3,1.3,-3,3Z" class="g6_5"/>
<g clip-path="url(#c3_5)" style="mix-blend-mode: multiply;">
<image clip-path="url(#c0_5)" preserveAspectRatio="none" x="1622" y="553" width="134" height="116" xlink:href="img/26.jpg"/>
</g>
<path d="M1624.2,1011.3c0,0,-4.3,0,-4.3,4.3v29.9c0,0,0,4.3,4.3,4.3h129.7c0,0,4.4,0,4.4,-4.3v-29.9c0,0,0,-4.3,-4.4,-4.3Z" class="g9_5"/>
<g clip-path="url(#c3_5)" style="mix-blend-mode: multiply;">
<image clip-path="url(#c1_5)" preserveAspectRatio="none" x="1630" y="205" width="118" height="77" xlink:href="img/27.jpg"/>
</g>
<path d="M1675.6,42.5l-1.3,25.3l2.1,5.3l20.5,1.9l13.2,-.8l1.3,-3.5l.8,-30.1l-27.4,-.3Z" class="ga_5"/>
<path d="M1712.2,58v5c-.3,-1.2,-.3,-3.8,0,-5Z" class="gb_5"/>
<path d="M1673.8,104.2c9.5,-.3,20.2,-.3,29.7,0Z" class="gc_5"/>
<path d="M1673.8,104.2c-20.6,1.6,-38,6.5,-56.2,10.6c16.9,-12.8,43.4,-20,74.7,-20.1c11.5,-.1,23.6,1.8,34.6,3.3c10.8,1.6,22.4,3,28.2,9.9v2.2c-2.7,7.3,-10.1,3.8,-16.6,1.7c-10.7,-3.4,-22.3,-7.2,-35,-7.6c-9.5,-.3,-20.2,-.3,-29.7,0Z" class="gd_5"/>
<path d="M1711.8,57c-.2,-7.2,.6,-11.2,1.5,-18c-5.5,.1,-11.9,.5,-19.9,.5c-5.9,0,-14.9,.5,-20.3,.4c0,2,.1,5.7,0,8.3c-.4,8.9,-1.6,16.9,-1.3,28.2c10,-.2,17.7,-1.2,28.7,-1.3h12.1c-.4,-4.6,-.9,-8.3,-.8,-13Zm2.5,-19.9c.4,13.3,0,30.1,.1,43c-15.4,.2,-32.7,.6,-47.8,-.1c.7,-13.3,1.5,-26.8,2.8,-41.4c11.9,-3.5,31,-3.2,44.9,-1.5Z" class="gd_5"/>
<path d="M1703.8,55.2c.4,-12,-18.4,-17.6,-22.3,-6.7c7.6,-3.4,18.5,2.1,14.1,9.9c-1,1.7,-3.7,3.6,-7.2,2.9c-5.8,-1.1,-4.1,-11.4,-.2,-4.4c1.6,0,3.4,-1.3,3.5,-3c.6,-6.2,-9.1,-6,-12.1,-3.6c-5.8,4.8,-2.5,15.4,4.3,16.4c-.4,.7,-3.6,1.5,-3,3.4c.7,2,6,-.6,8.8,-.8c5.7,-.4,7.3,3.7,12.1,4.3c4.8,.6,8.7,-2.3,9.1,-5.8c-4,2.3,-10,.3,-12.7,-2.6c2.4,-3.2,5.5,-5.7,5.6,-10M1672.9,39.6c4.6,.1,14.6,-.1,20.5,-.1c8,0,14.4,-.4,19.9,-.5c-1.3,12.6,-1.3,22.3,-.6,36.2c-2.8,0,-8.3,-.1,-12.2,-.1c-11,.1,-18.6,1.1,-28.7,1.3c-.3,-11.3,.7,-19.4,1.1,-28.3c.2,-4.1,.2,-6.9,0,-8.5Z" class="ge_5"/>
<path d="M1637.6,88.3c-.6,-.5,-.8,-1.3,-.8,-1.9c0,-.4,.2,-1.1,.8,-1.7c.4,-.4,1,-.7,2,-.7c.2,0,.6,.1,.9,.1l.7,.1l.1,.1l-.1,.3v.8l-.1,-.1l-.3,-.7c-.2,-.1,-.7,-.3,-1.3,-.3c-.8,0,-1.2,.2,-1.4,.4c-.5,.5,-.6,1,-.6,1.7c0,1.2,.9,2.3,2.3,2.3c.5,0,.9,-.1,1.1,-.3l.3,-.6h.1l-.2,.9l-.1,.1c-.3,.1,-.8,.2,-1.2,.2c-1,0,-1.6,-.2,-2.2,-.7Z" class="gf_5"/>
<path d="M1646.2,86.9v-.1l-.6,-1.7h-.1l-.6,1.7v.1Zm-.7,-2.6l.1,-.3l.2,.2c.1,.3,1.1,2.9,1.5,3.9c.3,.5,.5,.6,.6,.7h.3l-.1,.1c-.1,0,-.6,0,-1,0l-.3,-.1h.1v-.2l-.5,-1.4l-.1,-.1h-1.5l-.1,.1l-.4,1l-.1,.4l.3,.2h.1l-.1,.1h-.6c-.1,0,-.4,0,-.6,0l-.2,-.1h.3c.3,-.1,.4,-.3,.5,-.6Z" class="gf_5"/>
<path d="M1651.3,87.1c0,.9,.1,1.3,.2,1.4c.1,.1,.3,.1,.8,.1c.4,0,.7,0,.8,-.1l.2,-.4l.1,-.1v.1l-.1,.6c0,.2,-.1,.2,-.4,.2c-.5,0,-.8,0,-1.1,0c-.3,0,-.6,0,-.8,0h-.7v-.1h.2l.2,-.4c.1,-.2,.1,-.7,.1,-1.3V86c0,-1,0,-1.2,-.1,-1.4l-.2,-.4h-.3l.1,-.1c.3,0,.7,0,.7,0h.8l.1,.1h-.3l-.2,.4c-.1,.2,-.1,.4,-.1,1.4Z" class="gf_5"/>
<path d="M1657,87.1c0,.6,0,1.1,0,1.3l.2,.4h.4l-.1,.1c-.4,0,-.8,0,-.9,0h-.6l-.1,-.1h.2l.2,-.4c0,-.2,.1,-.7,.1,-1.3V86c0,-1,0,-1.2,-.1,-1.4l-.2,-.3l-.2,-.1l.1,-.1h1.3l.1,.1h-.2l-.2,.4c0,.2,0,.4,0,1.4Z" class="gf_5"/>
<path d="M1661.3,86.6c0,.7,0,1.3,0,1.4l.1,.5c.1,.1,.3,.2,1.1,.2c.6,0,1.1,-.2,1.5,-.6c.4,-.3,.5,-.9,.5,-1.5c0,-.8,-.3,-1.3,-.6,-1.5c-.6,-.7,-1.3,-.7,-2.1,-.7h-.4l-.1,.1Zm-.6,-.6c0,-1,0,-1.2,0,-1.4l-.3,-.4h-.2l.1,-.1c.3,0,.7,0,.7,0c.1,0,.5,0,.9,0c.7,0,1.9,0,2.6,.7c.4,.4,.7,.9,.7,1.7c0,.7,-.4,1.4,-.7,1.7c-.3,.3,-.9,.8,-2,.8c-.3,0,-.7,-.1,-.9,-.1c-.3,0,-.5,0,-.6,0h-.6l-.1,-.1h.2l.2,-.4c0,-.2,0,-.7,0,-1.3Z" class="gf_5"/>
<path d="M1670,86.9v-.1l-.6,-1.7h-.1l-.6,1.7v.1Zm-.7,-2.6l.2,-.3l.1,.2c.1,.3,1.2,2.9,1.6,3.9c.2,.5,.4,.6,.5,.7h.4l-.2,.1c-.1,0,-.6,0,-1,0l-.2,-.1l.1,-.2l-.6,-1.4l-.1,-.1h-1.5l-.1,.1l-.3,1l-.1,.4l.2,.2h.1l-.1,.1h-.6c0,0,-.3,0,-.6,0l-.1,-.1h.2c.3,-.1,.4,-.3,.6,-.6Z" class="gf_5"/>
<path d="M1675.2,86.6c0,.7,0,1.3,0,1.4v.5c.1,.1,.4,.2,1.1,.2c.6,0,1.2,-.2,1.6,-.6c.3,-.3,.5,-.9,.5,-1.5c0,-.8,-.4,-1.3,-.6,-1.5c-.7,-.7,-1.4,-.7,-2.2,-.7h-.4v.1Zm-.6,-.6c0,-1,0,-1.2,0,-1.4l-.3,-.4h-.3l.1,-.1c.3,0,.7,0,.8,0c0,0,.5,0,.8,0c.7,0,1.9,0,2.7,.7c.3,.4,.6,.9,.6,1.7c0,.7,-.3,1.4,-.7,1.7c-.3,.3,-.9,.8,-2,.8c-.3,0,-.6,-.1,-.9,-.1c-.3,0,-.5,0,-.5,0h-.7l-.1,-.1h.3l.1,-.4c.1,-.2,.1,-.7,.1,-1.3Z" class="gf_5"/>
<path d="M1687.7,87.1c0,.6,0,1.1,0,1.3l.3,.4h.3l-.1,.1c-.3,0,-.8,0,-.8,0h-.7l-.1,-.1h.3l.2,-.4c0,-.2,0,-.7,0,-1.3V84.4h-1c-.4,0,-.5,.1,-.6,.2l-.1,.2l-.1,.1v-.1l.1,-.6l.1,-.2l.3,.1h3.6V85l-.1,-.2c0,-.2,-.2,-.4,-.8,-.4h-.8Z" class="gf_5"/>
<path d="M1692.1,86c0,-1,0,-1.2,0,-1.4l-.3,-.4h-.3l.1,-.1c.3,0,.7,0,.8,0h.6l.2,.1h-.3l-.2,.4c0,.2,0,.4,0,1.4v.8c0,1,.2,1.3,.5,1.6c.3,.3,.6,.3,1,.3c.4,0,.7,-.2,1,-.4c.3,-.4,.3,-.9,.3,-1.6V86c0,-1,0,-1.2,0,-1.4l-.2,-.4h-.3l.1,-.1c.3,0,.7,0,.7,0h.5l.2,.1h-.3l-.2,.4c0,.2,0,.4,0,1.4v.6c0,.7,-.1,1.5,-.6,1.9c-.5,.4,-1,.5,-1.4,.5c-.2,0,-.9,0,-1.3,-.5c-.4,-.3,-.6,-.7,-.6,-1.6Z" class="gf_5"/>
<path d="M1700.1,86.5v.1c.1,0,.4,.1,.7,.1l.5,-.2c.2,-.1,.4,-.4,.4,-.9c0,-.8,-.4,-1.3,-1.1,-1.3l-.5,.1v.1Zm-.6,-.5c0,-1,0,-1.2,0,-1.4l-.3,-.4h-.3l.1,-.1c.3,0,.8,0,.8,0h.8c.4,0,.9,.1,1.3,.3c.1,.1,.4,.4,.4,.9c0,.4,-.2,.9,-.8,1.4c.5,.7,1,1.2,1.4,1.6c.3,.4,.5,.5,.7,.5h.3l-.2,.1h-.4c-.4,0,-.5,0,-.7,-.1c-.3,-.2,-.5,-.5,-.9,-1c-.2,-.3,-.5,-.7,-.7,-.9h-.9v.2c0,.6,0,1.1,0,1.3l.3,.4h.3l-.1,.1c-.4,0,-.8,0,-.8,0h-.7l-.1,-.1h.3l.2,-.4c0,-.2,0,-.7,0,-1.3Z" class="gf_5"/>
<path d="M1706.7,87.1c0,.6,0,1.1,0,1.3l.3,.4h.3l-.1,.1c-.3,0,-.8,0,-.8,0h-.6l-.1,-.1h.2l.2,-.4c0,-.2,0,-.7,0,-1.3V86c0,-1,0,-1.2,0,-1.4l-.2,-.3l-.2,-.1h-.1l.2,-.1h1.3l.1,.1h-.2l-.3,.4c0,.2,0,.4,0,1.4Z" class="gf_5"/>
<path d="M1710.1,88.8l-.1,-.2c0,-.3,0,-.6,0,-.7l.1,-.1v.1l.1,.2c.1,.5,.6,.6,1,.6c.6,0,1,-.3,1,-.8c0,-.5,-.3,-.7,-.9,-1.1l-.2,-.2c-.8,-.6,-1,-.9,-1,-1.4c0,-.7,.6,-1.2,1.5,-1.2c.2,0,.5,.1,.6,.1h.3v.1c0,0,0,.2,0,.6V85l-.1,-.1l-.1,-.3c0,-.1,-.3,-.3,-.9,-.3c-.4,0,-.8,.2,-.8,.7c0,.4,.2,.6,.8,1l.2,.2c.8,.5,1.1,.9,1.1,1.5c0,.4,-.2,.8,-.6,1.1c-.3,.1,-.7,.2,-1.1,.2c-.3,0,-.6,-.1,-.9,-.2Z" class="gf_5"/>
<path d="M1717.6,87.1c0,.6,0,1.1,0,1.3l.3,.4h.3l-.1,.1c-.3,0,-.8,0,-.8,0h-.7l-.1,-.1h.3l.2,-.4c0,-.2,0,-.7,0,-1.3V84.4h-.9c-.5,0,-.6,.1,-.7,.2l-.1,.2l-.1,.1v-.1l.1,-.6l.1,-.2l.3,.1h3.6v.8l-.1,.1v-.2c0,-.2,-.2,-.4,-.8,-.4h-.8Z" class="gf_5"/>
<path d="M1722.9,87.1c0,.6,0,1.1,0,1.3l.3,.4h.3l-.1,.1c-.3,0,-.8,0,-.8,0h-.6l-.1,-.1h.2l.2,-.4c0,-.2,0,-.7,0,-1.3V86c0,-1,0,-1.2,0,-1.4l-.2,-.3l-.2,-.1l.1,-.1h1.3l.1,.1h-.2l-.3,.4c0,.2,0,.4,0,1.4Z" class="gf_5"/>
<path d="M1726.8,88.3c-.6,-.5,-.8,-1.3,-.8,-1.9c0,-.4,.2,-1.1,.7,-1.7c.4,-.4,1,-.7,2,-.7c.3,0,.7,.1,1,.1l.7,.1v1.1l-.1,.1v-.1l-.3,-.7c-.2,-.1,-.7,-.3,-1.3,-.3c-.8,0,-1.2,.2,-1.5,.4c-.5,.5,-.6,1,-.6,1.7c0,1.2,1,2.3,2.4,2.3c.5,0,.8,-.1,1.1,-.3l.2,-.6h.2l-.2,.9l-.2,.1c-.2,.1,-.7,.2,-1.1,.2c-1,0,-1.7,-.2,-2.2,-.7Z" class="gf_5"/>
<path d="M1735.4,86.9v-.1l-.7,-1.7h-.1l-.6,1.7v.1Zm-.8,-2.6l.2,-.3l.1,.2c.2,.3,1.2,2.9,1.6,3.9c.2,.5,.4,.6,.6,.7h.3l-.1,.1c-.1,0,-.6,0,-1.1,0l-.2,-.1l.1,-.2l-.6,-1.4v-.1h-1.6v.1l-.4,1l-.1,.4l.2,.2h.2l-.1,.1h-.6c-.1,0,-.4,0,-.7,0l-.1,-.1h.2c.3,-.1,.5,-.3,.6,-.6Z" class="gf_5"/>
</svg>