<?xml version="1.0" encoding="UTF-8" standalone="no"?>
<!DOCTYPE svg PUBLIC "-//W3C//DTD SVG 1.1//EN"
"http://www.w3.org/Graphics/SVG/1.1/DTD/svg11.dtd">
<svg viewBox="0 0 1818 1286" version="1.1" xmlns="http://www.w3.org/2000/svg" xmlns:xlink="http://www.w3.org/1999/xlink">
<defs>
<clipPath id="c0_4"><path d="M909.4,341.3V0h909.5V341.3Z"/></clipPath>
<clipPath id="c1_4"><path d="M686.4,341.1c-80.8,0,-146.3,-65.5,-146.3,-146.3C540.1,114,605.6,48.5,686.4,48.5c80.8,0,146.3,65.5,146.3,146.3c0,80.8,-65.5,146.3,-146.3,146.3Z"/></clipPath>
<style type="text/css"><![CDATA[
.g0_4{
fill: #252123;
}
.g1_4{
fill: #FFF;
}
.g2_4{
fill: none;
stroke: #000;
stroke-width: 3.765;
}
.g3_4{
fill: none;
stroke: #000;
stroke-width: 0.47;
}
.g4_4{
fill: #000;
}
]]></style>
</defs>
<path d="M0,151.6H987.4V0H0V151.6Z" class="g0_4"/>
<path d="M686.4,357.9c90,0,163,-73,163,-163c0,-90,-73,-163,-163,-163c-90,0,-163,73,-163,163c0,90,73,163,163,163Z" class="g1_4"/>
<path d="M686.4,357.9c90,0,163,-73,163,-163c0,-90,-73,-163,-163,-163c-90,0,-163,73,-163,163c0,90,73,163,163,163Z" class="g2_4"/>
<image clip-path="url(#c0_4)" preserveAspectRatio="none" x="909" y="0" width="910" height="341" xlink:href="img/1.jpg"/>
<image clip-path="url(#c1_4)" preserveAspectRatio="none" x="540" y="48" width="293" height="293" xlink:href="img/2.jpg"/>
<path d="M686.4,341.1c80.8,0,146.3,-65.5,146.3,-146.3C832.7,114,767.2,48.5,686.4,48.5C605.6,48.5,540.1,114,540.1,194.8c0,80.8,65.5,146.3,146.3,146.3Z" class="g3_4"/>
<path d="M833,214.7c3.3,0,6.1,-2.8,6.1,-6.1c0,-3.4,-2.8,-6.1,-6.1,-6.1c-3.4,0,-6.1,2.7,-6.1,6.1c0,3.3,2.7,6.1,6.1,6.1Z" class="g4_4"/>
<path d="M76.2,83H53c-2,0,-3.6,-1.6,-3.6,-3.5V76.1c0,-.4,.3,-.7,.6,-.7H74c.2,0,.4,.1,.5,.3c.1,.2,.2,.4,.1,.6c-.7,1.8,-.7,3.2,-.3,4.1c.4,.6,1,1.1,2,1.3c.4,.1,.6,.4,.5,.7c0,.4,-.3,.6,-.6,.6M50.7,76.8v2.7c0,1.2,1,2.2,2.3,2.2H73.6c-.2,-.2,-.3,-.4,-.5,-.7c-.5,-1.1,-.6,-2.5,-.1,-4.2Z" class="g1_4"/>
<path d="M76.6,83H53c-.4,0,-.7,-.3,-.7,-.7c0,-.3,.3,-.6,.7,-.6H76.6c1.8,0,3.2,-1.4,3.2,-3.1V49.8c0,-1.1,.3,-2.1,.7,-2.8H56.3c-1.5,0,-2.7,1,-2.7,2.2v3.4c0,.4,-.3,.7,-.6,.7c-.4,0,-.7,-.3,-.7,-.7V49.2c0,-1.9,1.8,-3.5,4,-3.5H83c.3,0,.6,.3,.6,.7c0,.3,-.3,.6,-.6,.6c-1.4,0,-1.9,1.5,-1.9,2.8V78.6c0,2.4,-2,4.4,-4.5,4.4Z" class="g1_4"/>
<path d="M53,76.8c-.4,0,-.7,-.3,-.7,-.7V52.5c0,-.4,.3,-.7,.7,-.7c.3,0,.6,.3,.6,.7V76.1c0,.4,-.3,.7,-.6,.7Z" class="g1_4"/>
<path d="M86,53.5H80.6c-.4,0,-.7,-.3,-.7,-.7c0,-.4,.3,-.7,.7,-.7h4.7V49.8c0,-.9,-.2,-1.7,-.5,-2.1C84.4,47.3,83.7,47,82.5,47c-.4,0,-.7,-.3,-.7,-.6c0,-.4,.3,-.7,.7,-.7c1.6,0,2.7,.4,3.3,1.2c.8,.9,.8,2.3,.8,2.9v3c0,.4,-.3,.7,-.6,.7Z" class="g1_4"/>
<path d="M75.1,55.3H65.9c-.3,0,-.6,-.3,-.6,-.6c0,-.4,.3,-.7,.6,-.7h9.2c.4,0,.7,.3,.7,.7c0,.3,-.3,.6,-.7,.6Z" class="g1_4"/>
<path d="M61.4,55.3H57.7c-.3,0,-.6,-.3,-.6,-.6c0,-.4,.3,-.7,.6,-.7h3.7c.4,0,.7,.3,.7,.7c0,.3,-.3,.6,-.7,.6Z" class="g1_4"/>
<path d="M75.1,60.6H71.9c-.3,0,-.6,-.3,-.6,-.6c0,-.4,.3,-.7,.6,-.7h3.2c.4,0,.7,.3,.7,.7c0,.3,-.3,.6,-.7,.6Z" class="g1_4"/>
<path d="M68,60.6H57.7c-.3,0,-.6,-.3,-.6,-.6c0,-.4,.3,-.7,.6,-.7H68c.3,0,.7,.3,.7,.7c0,.3,-.4,.6,-.7,.6Z" class="g1_4"/>
<path d="M75.1,65.9H68.4c-.4,0,-.7,-.3,-.7,-.7c0,-.3,.3,-.6,.7,-.6h6.7c.4,0,.7,.3,.7,.6c0,.4,-.3,.7,-.7,.7Z" class="g1_4"/>
<path d="M63.7,65.9h-6c-.3,0,-.6,-.3,-.6,-.7c0,-.3,.3,-.6,.6,-.6h6c.3,0,.6,.3,.6,.6c0,.4,-.3,.7,-.6,.7Z" class="g1_4"/>
<path d="M75.1,71.2H57.7c-.3,0,-.6,-.3,-.6,-.7c0,-.3,.3,-.6,.6,-.6H75.1c.4,0,.7,.3,.7,.6c0,.4,-.3,.7,-.7,.7Z" class="g1_4"/>
</svg>