<?xml version="1.0" encoding="UTF-8" standalone="no"?>
<!DOCTYPE svg PUBLIC "-//W3C//DTD SVG 1.1//EN"
"http://www.w3.org/Graphics/SVG/1.1/DTD/svg11.dtd">
<svg viewBox="0 0 909 1286" version="1.1" xmlns="http://www.w3.org/2000/svg" xmlns:xlink="http://www.w3.org/1999/xlink">
<defs>
<clipPath id="c0_7"><path d="M459.1,723.8v-108H565.3v108Z"/></clipPath>
<clipPath id="c1_7"><path d="M565.1,723.8v-108H671.4v108Z"/></clipPath>
<clipPath id="c2_7"><path d="M671.2,723.8v-108H777.6v108Z"/></clipPath>
<clipPath id="c3_7"><path d="M777.4,723.8v-108H883.5v108Z"/></clipPath>
<clipPath id="c4_7"><path d="M459.1,831.9V723.6H565.3V831.9Z"/></clipPath>
<clipPath id="c5_7"><path d="M565.1,831.9V723.6H671.4V831.9Z"/></clipPath>
<clipPath id="c6_7"><path d="M671.2,831.9V723.6H777.6V831.9Z"/></clipPath>
<clipPath id="c7_7"><path d="M777.4,831.9V723.6H883.5V831.9Z"/></clipPath>
<clipPath id="c8_7"><path d="M459.1,939.9V831.6H565.3V939.9Z"/></clipPath>
<clipPath id="c9_7"><path d="M777.4,939.9V831.6H883.5V939.9Z"/></clipPath>
<clipPath id="ca_7"><path d="M459.1,1047.7v-108H565.3v108Z"/></clipPath>
<clipPath id="cb_7"><path d="M565.1,1047.7v-108H671.4v108Z"/></clipPath>
<clipPath id="cc_7"><path d="M671.2,1047.7v-108H777.6v108Z"/></clipPath>
<clipPath id="cd_7"><path d="M777.4,1047.7v-108H883.5v108Z"/></clipPath>
<clipPath id="ce_7"><path d="M458.3,93.5V91h12.4v2.5Z"/></clipPath>
<clipPath id="cf_7"><path d="M486.5,442.7v-2.5h5v2.5Z"/></clipPath>
<clipPath id="cg_7"><path d="M0,1286.2V0H909.4V1286.2Z"/></clipPath>
<style type="text/css"><![CDATA[
.g0_7{
fill: #FCB61D;
}
.g1_7{
fill: #949698;
}
.g2_7{
fill: #FFF;
}
.g3_7{
fill: #FED892;
}
.g4_7{
fill: #FEF7E8;
}
.g5_7{
fill: #D1D3D4;
}
.g6_7{
fill: #58595B;
}
.g7_7{
fill: #D1232A;
}
.g8_7{
fill: #ADA16E;
}
.g9_7{
fill: #5AC4C1;
}
.ga_7{
fill: #72C161;
}
.gb_7{
fill: #FEE6BB;
}
.gc_7{
fill: #D3E8CB;
}
.gd_7{
fill: #F0F7EC;
}
.ge_7{
fill: #B9DCAC;
}
.gf_7{
fill: #800F57;
}
.gg_7{
fill: #09B795;
}
.gh_7{
fill: #5180C1;
}
.gi_7{
fill: #F37537;
}
]]></style>
</defs>
<path d="M316.8,268.3H866.1v19.8H316.8V268.3Z" class="g0_7"/>
<path d="M316.8,288.1H591.5v18.7H316.8V288.1Zm274.7,0H866.1v18.7H591.5V288.1Z" class="g0_7"/>
<path d="M316.8,306.8H866.1v20.6H316.8V306.8Z" class="g1_7"/>
<path d="M316.8,327.4H591.5v42.9H316.8V327.4Zm274.7,0H866.1v42.9H591.5V327.4Z" class="g2_7"/>
<path d="M316.8,307.2H591.5v-.8H316.8v.8Z" class="g2_7"/>
<path d="M591.5,307.2H866.1v-.8H591.5v.8Z" class="g2_7"/>
<path d="M316.8,327.8H591.5V327H316.8v.8Z" class="g2_7"/>
<path d="M591.5,327.8H866.1V327H591.5v.8Z" class="g2_7"/>
<path d="M316.8,288.9H591.5v-1.5H316.8v1.5Z" class="g2_7"/>
<path d="M591.5,288.9H866.1v-1.5H591.5v1.5Z" class="g2_7"/>
<path d="M590.7,306.4h1.5V288.9h-1.5v17.5Z" class="g2_7"/>
<path d="M590.7,370.3h1.5V327.8h-1.5v42.5Z" class="g3_7"/>
<path d="M317.6,125H454.7v34.3H317.6V125Zm0,34.3H454.7v34.3H317.6V159.3Zm0,34.3H454.7v34.2H317.6V193.6Zm0,34.2H454.7v34.3H317.6V227.8Z" class="g4_7"/>
<path d="M316.8,159.3h1.5V125h-1.5v34.3Z" class="g3_7"/>
<path d="M454,159.3h1.5V125H454v34.3Z" class="g3_7"/>
<path d="M316.8,193.6h1.5V159.3h-1.5v34.3Z" class="g3_7"/>
<path d="M454,193.6h1.5V159.3H454v34.3Z" class="g3_7"/>
<path d="M318.3,159.7H454v-.8H318.3v.8Z" class="g5_7"/>
<path d="M318.3,193.9H454v-.7H318.3v.7Z" class="g5_7"/>
<path d="M318.3,228.2H454v-.8H318.3v.8Z" class="g5_7"/>
<path d="M316.8,227.8h1.5V193.6h-1.5v34.2Z" class="g3_7"/>
<path d="M454,227.8h1.5V193.6H454v34.2Z" class="g3_7"/>
<path d="M316.8,262.1h1.5V227.8h-1.5v34.3Z" class="g3_7"/>
<path d="M454,262.1h1.5V227.8H454v34.3Z" class="g3_7"/>
<image clip-path="url(#c0_7)" preserveAspectRatio="none" x="459" y="616" width="106" height="108" xlink:href="img/1.jpg"/>
<image clip-path="url(#c1_7)" preserveAspectRatio="none" x="565" y="616" width="106" height="108" xlink:href="img/2.jpg"/>
<image clip-path="url(#c2_7)" preserveAspectRatio="none" x="671" y="616" width="107" height="108" xlink:href="img/3.jpg"/>
<image clip-path="url(#c3_7)" preserveAspectRatio="none" x="777" y="616" width="107" height="108" xlink:href="img/4.jpg"/>
<image clip-path="url(#c4_7)" preserveAspectRatio="none" x="459" y="724" width="106" height="108" xlink:href="img/5.jpg"/>
<image clip-path="url(#c5_7)" preserveAspectRatio="none" x="565" y="724" width="106" height="108" xlink:href="img/6.jpg"/>
<image clip-path="url(#c6_7)" preserveAspectRatio="none" x="671" y="724" width="107" height="108" xlink:href="img/7.jpg"/>
<image clip-path="url(#c7_7)" preserveAspectRatio="none" x="777" y="724" width="107" height="108" xlink:href="img/8.jpg"/>
<image clip-path="url(#c8_7)" preserveAspectRatio="none" x="459" y="832" width="106" height="108" xlink:href="img/9.jpg"/>
<image preserveAspectRatio="none" x="565" y="832" width="106" height="108" xlink:href="img/10.jpg"/>
<image preserveAspectRatio="none" x="671" y="832" width="107" height="108" xlink:href="img/11.jpg"/>
<image clip-path="url(#c9_7)" preserveAspectRatio="none" x="777" y="832" width="107" height="108" xlink:href="img/12.jpg"/>
<image clip-path="url(#ca_7)" preserveAspectRatio="none" x="459" y="940" width="106" height="108" xlink:href="img/13.jpg"/>
<image clip-path="url(#cb_7)" preserveAspectRatio="none" x="565" y="940" width="106" height="108" xlink:href="img/14.jpg"/>
<image clip-path="url(#cc_7)" preserveAspectRatio="none" x="671" y="940" width="107" height="108" xlink:href="img/15.jpg"/>
<image clip-path="url(#cd_7)" preserveAspectRatio="none" x="777" y="940" width="107" height="108" xlink:href="img/16.jpg"/>
<path d="M196.2,675H298v-.7H196.2v.7Z" class="g6_7"/>
<path d="M412,631.8c0,0,-16.8,0,-16.8,16.7v36.1c0,0,0,16.8,16.8,16.8h71.9c0,0,16.8,0,16.8,-16.8V648.5c0,0,0,-16.7,-16.8,-16.7Z" class="g7_7"/>
<path d="M412,807.2c-9.3,0,-16.8,7.5,-16.8,16.8v36c0,9.3,7.5,16.8,16.8,16.8h71.9c9.3,0,16.8,-7.5,16.8,-16.8V824c0,-9.3,-7.5,-16.8,-16.8,-16.8Z" class="g8_7"/>
<path d="M412,720.3c-9.3,0,-16.8,7.5,-16.8,16.7v36.1c0,9.2,7.5,16.8,16.8,16.8h71.9c9.3,0,16.8,-7.6,16.8,-16.8V737c0,-9.2,-7.5,-16.7,-16.8,-16.7Z" class="g9_7"/>
<path d="M412,894.1c-9.3,0,-16.8,7.5,-16.8,16.8v36c0,9.3,7.5,16.8,16.8,16.8h71.9c9.3,0,16.8,-7.5,16.8,-16.8v-36c0,-9.3,-7.5,-16.8,-16.8,-16.8Z" class="ga_7"/>
<path d="M412,981c-9.3,0,-16.8,7.5,-16.8,16.8v36.1c0,9.2,7.5,16.7,16.8,16.7h71.9c9.3,0,16.8,-7.5,16.8,-16.7V997.8c0,-9.3,-7.5,-16.8,-16.8,-16.8Z" class="g0_7"/>
<path d="M454.7,125H591.9V262.1H454.7V125Z" class="g4_7"/>
<path d="M591.9,125H729v52H591.9V125ZM729,125H866.1v17.3H729V125Zm0,17.3H866.1v17.4H729V142.3Zm0,17.4H866.1V177H729V159.7ZM591.9,177H729v42.5H591.9V177ZM729,177H866.1v42.5H729V177ZM591.9,219.5H729v42.6H591.9V219.5Zm137.1,0H866.1v42.6H729V219.5Z" class="g2_7"/>
<path d="M729.8,142.7H866.1V142H729.8Z" class="g5_7"/>
<path d="M729.8,160.1H866.1v-.8H729.8Z" class="g5_7"/>
<path d="M729,177.4H866.1v-.8H729Z" class="g5_7"/>
<path d="M729,219.9H866.1v-.7H729Z" class="g5_7"/>
<path d="M455.5,142.3V125H454v17.3Z" class="g3_7"/>
<path d="M455.5,159.7V142.3H454v17.4Z" class="g3_7"/>
<path d="M455.5,177V159.7H454V177Z" class="g3_7"/>
<path d="M455.5,219.5V177H454v42.5Z" class="g3_7"/>
<path d="M455.5,262.1V219.5H454v42.6Z" class="g3_7"/>
<path d="M729.8,142.3V125h-1.6v17.3Z" class="g3_7"/>
<path d="M729.8,159.7V142.3h-1.6v17.4Z" class="g3_7"/>
<path d="M729.8,176.6V159.7h-1.6v16.9Z" class="g3_7"/>
<path d="M729.8,219.2V177.4h-1.6v41.8Z" class="g3_7"/>
<path d="M729.8,262.1V219.9h-1.6v42.2Z" class="g3_7"/>
<path d="M592.6,177.4H729v-.8H592.6Z" class="g5_7"/>
<path d="M592.6,219.9H729v-.7H592.6Z" class="g5_7"/>
<path d="M592.6,142.3V125h-1.5v17.3Z" class="g3_7"/>
<path d="M592.6,159.7V142.3h-1.5v17.4Z" class="g3_7"/>
<path d="M592.6,177V159.7h-1.5V177Z" class="g3_7"/>
<path d="M592.6,219.5V177h-1.5v42.5Z" class="g3_7"/>
<path d="M592.6,262.1V219.5h-1.5v42.6Z" class="g3_7"/>
<path d="M490.9,211.1h64.8v-.5H490.9Z" class="g6_7"/>
<path d="M631.6,168.6h57.7V168H631.6Z" class="g6_7"/>
<path d="M631.3,215.8h58.2v-.5H631.3Z" class="g6_7"/>
<path d="M631.6,258.4h57.7v-.5H631.6Z" class="g6_7"/>
<path d="M43.3,100.8H317.6V125H43.3V100.8Zm274.3,0H591.9V125H317.6V100.8Zm274.3,0H866.1V125H591.9V100.8Z" class="g0_7"/>
<path d="M318.3,125V100.8h-1.5V125Z" class="g2_7"/>
<path d="M592.6,125V100.8h-1.5V125Z" class="g2_7"/>
<image x="43" y="90" width="416" height="4" xlink:href="shade/1.png"/>
<image x="458" y="90" width="13" height="4" xlink:href="shade/2.png"/>
<g clip-path="url(#ce_7)">
<image x="458" y="85" width="6" height="9" xlink:href="shade/3.png"/>
<image x="464" y="88" width="6" height="6" xlink:href="shade/4.png"/>
</g>
<path d="M66,93.1c13.4,0,24.3,-10.9,24.3,-24.2C90.3,55.5,79.4,44.6,66,44.6C52.7,44.6,41.8,55.5,41.8,68.9c0,13.3,10.9,24.2,24.2,24.2Z" class="g0_7"/>
<path d="M66,93.1v1.6C80.3,94.6,91.8,83.1,91.8,68.9C91.8,54.6,80.3,43.1,66,43.1C51.8,43.1,40.3,54.6,40.3,68.9c0,14.2,11.5,25.7,25.7,25.8V91.6C59.8,91.6,54.1,89,50,84.9c-4.1,-4.1,-6.7,-9.8,-6.7,-16c0,-6.3,2.6,-12,6.7,-16.1c4.1,-4.1,9.8,-6.7,16,-6.7c6.3,0,12,2.6,16.1,6.7c4.1,4.1,6.7,9.8,6.7,16.1c0,6.2,-2.6,11.9,-6.7,16C78,89,72.3,91.6,66,91.6Z" class="g2_7"/>
<path d="M79.4,71.1c0,1,.2,1.9,.2,2.8c0,2.6,-1.3,4.5,-3.4,5.9c-1.7,1.1,-3.6,1.7,-5.6,1.7c-3,0,-6.1,0,-9.1,0c-2.1,0,-4,-.6,-5.8,-1.8C53.3,78,52.2,75.6,52.6,72.6c.2,-2.5,.4,-5,.5,-7.5c0,-2.3,-.1,-4.6,-.1,-6.9c-.1,-2.7,1.1,-4.8,3.2,-6.4c1.9,-1.3,4,-2,6.3,-2c2.4,0,4.8,0,7.2,0c2.2,.1,4.2,.6,5.9,1.8c2.5,1.8,3.7,4.1,3.5,7.2c-.1,1.5,-.1,3,-.1,4.6c0,0,.2,5.1,.4,7.7M66.1,51.4v-.1c-1.2,0,-2.4,0,-3.6,0c-1.7,.1,-3.3,.4,-4.7,1.3c-2,1.2,-3.4,2.9,-3.2,5.3c0,1.1,.3,2.2,.7,3.2c.5,1.7,1.3,3.3,2.7,4.5c.4,.3,.4,.7,0,1.1c-.8,.8,-1.7,1.6,-2.7,1.9c-.8,.3,-.9,.7,-1,1.3c0,.6,.2,1.1,.6,1.5c1,1.1,2.1,1.8,3.4,2.3c2.3,1,4.7,1.3,7.1,1.3c2.7,.1,5.2,-.1,7.7,-1c1.7,-.6,3.3,-1.5,4.4,-3c.1,-.1,.2,-.3,.2,-.5c.1,-.4,0,-.9,-.1,-1.3l-.2,-.3C76.1,68.4,75,67.7,74.1,66.7c-.4,-.4,-.3,-.8,0,-1.2c.6,-.6,1.2,-1.2,1.6,-1.9c.9,-1.5,1.5,-3.2,1.8,-5c.2,-1.5,-.1,-2.9,-1,-4.1C75,52.6,73,51.6,70.6,51.4c-1.5,-.1,-3,0,-4.5,0m-11.9,21c-.5,2.1,0,3.9,1.6,5.4c1.6,1.5,3.6,2.1,5.8,2.2c2.9,0,5.9,0,8.8,0c1.1,0,2.1,-.2,3,-.5c1.8,-.6,3.3,-1.6,4.2,-3.4c.6,-1.2,.6,-2.4,.3,-3.7h-.1c-1.4,1.8,-3.3,2.8,-5.5,3.4c-3.6,1,-7.3,1,-10.9,.4c-1.8,-.3,-3.5,-.9,-5,-1.9c-.8,-.5,-1.5,-1.2,-2.2,-1.9Z" class="gb_7"/>
<path d="M59.2,82c-.6,.5,-1.2,1,-1.9,1.4c-.6,.5,-2.2,1.8,-2.8,2.3c-.4,.3,-.7,.3,-1.1,.2c-.1,0,-.3,-.3,-.3,-.4c-.1,-.3,0,-.6,.2,-.8c.5,-.4,1.8,-1.5,2.2,-1.8c.6,-.4,1.1,-.8,1.7,-1.2c.1,-.1,.4,-.2,.5,-.1c.5,.1,1,.2,1.5,.4Z" class="gb_7"/>
<path d="M72.9,82c.6,-.2,1.1,-.4,1.6,-.5l.4,.1c.9,.8,2.9,2.3,3.8,3c.2,.1,.4,.3,.4,.5c.1,.3,.1,.6,-.2,.7c-.3,.2,-.7,.2,-.9,.1C76.6,84.9,74.3,83.1,72.9,82Z" class="gb_7"/>
<path d="M66,65c-1.4,0,-2.7,.1,-4.1,0C59.4,64.8,57.4,63,57,60.5c-.2,-.6,-.3,-1.3,-.4,-1.9c-.5,-2.4,1.2,-4.5,3.7,-4.5c3.8,-.1,7.7,-.1,11.5,0c2.4,0,4,1.8,3.7,4.2c-.1,1.3,-.3,2.8,-1,4C73.3,64,71.7,65,69.6,65c-1.2,0,-2.4,0,-3.6,0Z" class="gb_7"/>
<path d="M71.8,68.4c.4,0,.7,0,1,0c.6,0,1,.4,.8,.8c-.6,1.1,-1.3,2.2,-1.9,3.3c-.2,.2,-.4,.3,-.8,.3c-.6,0,-1.3,0,-2,0c-.6,0,-.9,-.4,-.7,-.8c.6,-1.1,1.2,-2.1,1.8,-3.2c.2,-.3,.5,-.4,.9,-.4c.3,0,.6,0,.9,0Z" class="gb_7"/>
<path d="M62.2,72.8c-.3,0,-.7,0,-1,0c-.4,0,-.7,-.1,-.8,-.4c-.6,-1,-1.2,-2.1,-1.8,-3.1c-.3,-.5,0,-.9,.7,-.9c.7,0,1.3,0,1.9,0c.4,0,.7,.2,.9,.4c.6,1.1,1.2,2.1,1.8,3.2c.2,.4,-.1,.8,-.7,.8c-.3,0,-.7,0,-1,0Z" class="gb_7"/>
<path d="M67.4,78.3c0,.8,-.6,1.4,-1.3,1.4c-.8,0,-1.4,-.6,-1.4,-1.3c0,-.7,.6,-1.4,1.3,-1.4c.7,0,1.4,.6,1.4,1.3Z" class="gb_7"/>
<image x="43" y="440" width="444" height="3" xlink:href="shade/5.png"/>
<image x="486" y="440" width="6" height="3" xlink:href="shade/6.png"/>
<image clip-path="url(#cf_7)" x="486" y="435" width="6" height="8" xlink:href="shade/7.png"/>
<path d="M66,442.4c13.4,0,24.3,-10.9,24.3,-24.3C90.3,404.7,79.4,393.8,66,393.8c-13.3,0,-24.2,10.9,-24.2,24.3c0,13.4,10.9,24.3,24.2,24.3Z" class="ga_7"/>
<path d="M66,442.4v1.5c14.3,0,25.8,-11.6,25.8,-25.8C91.8,403.9,80.3,392.3,66,392.3c-14.2,0,-25.7,11.6,-25.7,25.8c0,14.2,11.5,25.8,25.7,25.8v-3.1c-6.2,0,-11.9,-2.5,-16,-6.6C45.9,430,43.3,424.4,43.3,418.1c0,-6.3,2.6,-12,6.7,-16.1c4.1,-4.1,9.8,-6.6,16,-6.6c6.3,0,12,2.5,16.1,6.6c4.1,4.1,6.7,9.8,6.7,16.1c0,6.3,-2.6,11.9,-6.7,16.1c-4.1,4.1,-9.8,6.6,-16.1,6.6Z" class="g2_7"/>
<path d="M64.2,421.4c-1.7,.8,-3.4,1.5,-5.1,2.1c-2.2,.8,-4.5,1.5,-6.9,1.6c-.6,0,-1.2,0,-1.7,-.2c-.9,-.2,-1.6,-.7,-2,-1.6c-.7,-1.8,-1.6,-3.6,-2.4,-5.4c-.4,-1,-.4,-1.7,.1,-2.2c.7,-.6,2,-.8,2.8,-.3c.8,.6,1.6,1.2,2.4,1.8c.2,.1,.4,.3,.6,.4c.6,.6,1.2,.6,2,.2c1.7,-.8,3.4,-1.5,5.1,-2.3l.2,-.1c-1.2,-.7,-2.4,-1.5,-3.5,-2.2c-.7,-.4,-1.4,-.7,-2,-1.2c-.4,-.3,-.7,-.8,-.7,-1.2c-.1,-.6,.4,-.8,.9,-1c1.5,-.9,3.1,-.8,4.7,-.3c2.6,.8,5.1,1.6,7.6,2.3c.4,.1,.9,.1,1.2,0c2.8,-1.2,5.6,-2.5,8.4,-3.7c2,-.7,4,-.7,5.9,.1c.6,.3,1.2,.7,1.7,1.1c.8,.9,.9,1.7,-.1,2.4c-1,.8,-2.1,1.5,-3.3,2.1C78,415,75.8,416,73.7,417.1c-.4,.2,-.7,.5,-.8,.8c-1.9,3.9,-3.6,7.7,-5.4,11.5c-.7,1.7,-1.9,2.8,-3.6,3.4c-1,.3,-1.7,-.3,-1.5,-1.5c.2,-1.5,.5,-3,.8,-4.5c.4,-1.8,.7,-3.5,1,-5.4M82.5,410.6c-.7,-.8,-1.5,-1.1,-2.4,-1.3c-1.8,-.4,-3.5,.1,-5.1,.8c-6.9,3.1,-13.8,6.2,-20.7,9.3c-1.2,.5,-2.1,.4,-3,-.4c-.9,-.7,-1.8,-1.3,-2.7,-2c-.3,-.2,-.7,-.2,-1.1,-.3l-.1,.1c.8,1.9,1.7,3.8,2.5,5.7c.2,.6,.7,1,1.4,1c.7,0,1.4,0,2.1,-.1c3.6,-.5,6.9,-2,10.2,-3.4c.8,-.4,1.7,-.8,2.7,-1.2c-.8,4.1,-1.5,8.1,-2.3,12.3c1.1,-.5,1.6,-1.3,2,-2.2c1.9,-4.1,3.8,-8.1,5.7,-12.1c.1,-.3,.4,-.6,.7,-.8c1.9,-1,3.8,-1.8,5.7,-2.8c1.5,-.8,2.9,-1.7,4.4,-2.6M64.8,413c-2.5,-.8,-4.8,-1.5,-7.2,-2.2c-.8,-.2,-1.6,-.3,-2.5,.2c2,1.2,3.8,2.4,5.8,3.5c.1,.1,.4,.1,.5,0c1.1,-.5,2.2,-1,3.4,-1.5Z" class="gc_7"/>
<path d="M43.3,454.4H317.6v40.7H43.3V454.4Zm548.6,0H866.1v40.7H591.9V454.4ZM43.3,495.1H317.6v40.8H43.3V495.1Zm548.6,0H866.1v40.8H591.9V495.1Z" class="g2_7"/>
<path d="M317.6,454.4H591.9v40.7H317.6V454.4Zm0,40.7H591.9v40.8H317.6V495.1Z" class="gd_7"/>
<path d="M318.3,494.4v-40h-1.5v40Z" class="ge_7"/>
<path d="M592.6,494.4v-40h-1.5v40Z" class="ge_7"/>
<path d="M318.3,535.9v-40h-1.5v40Z" class="ge_7"/>
<path d="M592.6,535.9v-40h-1.5v40Z" class="ge_7"/>
<path d="M43.3,495.9H317.6v-1.5H43.3Z" class="g5_7"/>
<path d="M317.6,495.9H591.9v-1.5H317.6Z" class="g5_7"/>
<path d="M591.9,495.9H866.1v-1.5H591.9Z" class="g5_7"/>
<path d="M197.6,1228c-3.4,0,-6.2,-2.8,-6.2,-6.2v-15.4c0,-3.4,2.8,-6.2,6.2,-6.2h24.7v1.7H197.6c-2.5,0,-4.5,2.1,-4.5,4.5v15.4c0,2.5,2,4.5,4.5,4.5h24.7c2.4,0,4.4,-2,4.4,-4.5v-15.4c0,-2.4,-2,-4.5,-4.4,-4.5v-1.7c3.4,0,6.1,2.8,6.1,6.2v15.4c0,3.4,-2.7,6.2,-6.1,6.2Zm7.6,-14.1c0,-5.1,4.1,-9.2,9.1,-9.2c5.1,0,9.2,4.1,9.2,9.2c0,5,-4.1,9.1,-9.2,9.1v-1.7c4.1,0,7.4,-3.3,7.4,-7.4c0,-4.1,-3.3,-7.4,-7.4,-7.4c-4.1,0,-7.4,3.3,-7.4,7.4c0,4.1,3.3,7.4,7.4,7.4v1.7c-5,0,-9.1,-4.1,-9.1,-9.1m-8.6,-6.7v-4.3h8.6v4.3Zm7.8,-.9v-.8Zm-6.1,-.8h5.2v-.9h-5.2v.9Zm5.4,-6.7v-6.7h11.6v.9v-.9h.8v6.7Zm1.8,-1.7h8.9v-3.3h-8.9v3.3Z" class="gf_7"/>
<path d="M469.2,1220.8c-6,-6,-9.3,-13.3,-9.3,-18.8c0,-2.3,.6,-4.4,2.1,-5.9c.8,-.7,2.4,-2,3.7,-2.5l.5,-.1l9.5,9.5l-.6,.6c-1.4,1.7,-3.1,3.7,-3.1,6c0,1.5,.7,3.3,2.9,5.6c2.2,2.2,4,2.8,5.5,2.9c2.3,0,4.4,-1.7,6.1,-3.2l.6,-.5l9.1,9.1l-.6,.6l.6,-.6l.3,.4l-.1,.5c-.4,1.3,-1.7,2.9,-2.5,3.7c-1.4,1.4,-3.5,2,-5.9,2c-5.5,0,-12.7,-3.2,-18.8,-9.3m-6,-23.4c-.9,1,-1.5,2.6,-1.5,4.6c0,4.8,3,11.8,8.8,17.6c5.7,5.8,12.7,8.8,17.5,8.8c2.1,0,3.7,-.6,4.7,-1.6c.4,-.4,1.4,-1.7,1.8,-2.5l-7.5,-7.5c-1.6,1.4,-3.8,3,-6.6,3c-2,0,-4.3,-1,-6.8,-3.4c-2.4,-2.4,-3.4,-4.7,-3.4,-6.8c.1,-2.8,1.7,-4.9,3.1,-6.5l-7.6,-7.6c-.8,.5,-2.1,1.5,-2.5,1.9Z" class="g7_7"/>
<path d="M642,1147.4h-3.3v-4.8h-8.1v4.8h-3.3l-3.7,26.2h22.1Zm-13.1,1.9h3.5v-4.8h4.5v4.8h3.4l3.2,22.4H625.8Zm12.1,-9.2v-4H628.2v5H641Zm-1.8,-.9h-9.1v-1.3h9.1v1.3Zm-3.9,13.1c-.2,-.3,-.5,-.4,-.8,-.4c-.3,0,-.6,.1,-.7,.4c0,0,-1.1,1.6,-2.2,3.7c-1.2,2.1,-2.3,4.5,-2.3,6.6c0,1.9,.8,3.3,1.9,4.2c1,.8,2.3,1.1,3.3,1.1c1.1,0,2.4,-.3,3.5,-1.2c1.1,-.8,2,-2.2,2,-4.1c0,-2.1,-1.2,-4.5,-2.4,-6.6c-1.1,-2.1,-2.3,-3.7,-2.3,-3.7m1.6,13c-.7,.5,-1.7,.7,-2.4,.7c-.6,0,-1.5,-.2,-2.2,-.7c-.7,-.5,-1.2,-1.3,-1.2,-2.7c0,-1.4,1,-3.8,2.1,-5.7c.5,-1,1,-1.8,1.4,-2.4c.4,.6,.9,1.5,1.4,2.4c1.1,1.9,2.2,4.4,2.2,5.7c0,1.3,-.6,2.1,-1.3,2.7Z" class="ga_7"/>
<path d="M642,1147.4v-.2h-3v-4.8h-8.7v4.8h-3.2l-3.8,26.6H646l-3.8,-26.6H642v.2l-.3,.1l3.7,25.8H623.9l3.7,-25.6h3.2v-4.8h7.7v4.8H642v-.3l-.3,.1Zm-13.1,1.9v.3h3.8v-4.8h3.9v4.8h3.5l3.1,21.8H626.1l3.1,-22l-.3,-.1v.3v-.3h-.2l-3.2,22.7h18.3l-3.2,-23h-3.5v-4.8h-4.9v4.8h-3.5v.3Zm12.1,-9.2h.3v-4.3H628v5.5h13.3v-1.2h-.5v.7H628.5v-4.5h12.3v3.8Zm-1.8,-.9v-.3h-8.8v-.7h8.5v1h.3v-.3v.3h.3v-1.5h-9.7v1.8h9.7v-.3Zm-3.9,13.1l.2,-.2c-.2,-.3,-.6,-.5,-1,-.5v.3v-.3c-.4,0,-.7,.2,-1,.5c0,0,-1.1,1.7,-2.2,3.7c-1.1,2.1,-2.3,4.6,-2.3,6.8c0,2,.8,3.5,2,4.4c1.1,.9,2.5,1.2,3.5,1.2c1.1,0,2.5,-.4,3.7,-1.2c1.2,-.9,2.1,-2.4,2.1,-4.4v-.1c0,-2.1,-1.3,-4.6,-2.4,-6.7c-1.2,-2,-2.4,-3.7,-2.4,-3.7l-.2,.2l-.2,.1c0,0,1.1,1.7,2.3,3.7c1.1,2.1,2.3,4.5,2.3,6.5h.3l-.3,-.1v.1c0,1.8,-.8,3.2,-1.9,3.9c-1,.8,-2.3,1.1,-3.3,1.1c-.9,0,-2.1,-.3,-3.2,-1.1c-1,-.7,-1.8,-2.1,-1.8,-3.9c.1,-2,1.2,-4.4,2.3,-6.5c1.1,-2,2.2,-3.7,2.2,-3.7c.1,-.1,.3,-.2,.5,-.2v-.1v.1v-.1v.1c.2,0,.4,.1,.6,.2l.2,-.1l-.2,.1Zm1.6,13l-.2,-.3c-.6,.5,-1.5,.8,-2.1,.8h-.1c-.6,0,-1.4,-.2,-2,-.7c-.6,-.5,-1.1,-1.2,-1.1,-2.5v-.1c0,-1.2,1,-3.6,2,-5.5c.5,-.9,1,-1.7,1.4,-2.4l-.2,-.1l-.3,.1c.4,.7,.9,1.5,1.5,2.4c1.1,1.9,2.1,4.3,2.1,5.5c0,1.4,-.5,2,-1.2,2.5l.2,.3l.2,.2c.7,-.6,1.3,-1.5,1.3,-2.9h-.2h.2v-.1c0,-1.4,-1,-3.8,-2.2,-5.8c-.5,-.9,-1,-1.7,-1.4,-2.4l-.2,-.3l-.3,.3c-.4,.7,-.9,1.5,-1.4,2.4l.3,.2l-.3,-.2c-1,2,-2,4.4,-2.1,5.8v.1c.1,1.5,.6,2.3,1.3,2.9c.7,.6,1.7,.8,2.4,.8h.1c.7,0,1.7,-.2,2.5,-.8Z" class="g2_7"/>
<path d="M615.7,1166.1c4,-.4,6.9,-4.5,6.9,-9.3c0,-2.7,-.8,-6.9,-2.3,-10.3l-.1,-.4H610l-.1,.4c-1.4,3.4,-2.3,7.6,-2.3,10.3c0,4.8,2.9,8.9,6.9,9.3v5.9h-4.3v1.2h9.9V1172h-4.4Zm-4.9,-18.8h8.6c.8,2.1,1.4,4.4,1.7,6.4h-12c.3,-2,.9,-4.3,1.7,-6.4m-.1,15.3c-1.2,-1.4,-1.9,-3.5,-1.9,-5.8c0,-.6,0,-1.2,.1,-1.9h12.4c.1,.7,.1,1.3,.1,1.9c0,2.3,-.7,4.4,-1.9,5.8c-1.1,1.5,-2.7,2.4,-4.4,2.4c-1.7,0,-3.2,-.9,-4.4,-2.4Z" class="ga_7"/>
<path d="M352.3,1156.8h-1.9l-.2,.5c-1.1,2.1,-3.4,3.6,-5.9,3.6c-2.6,0,-4.8,-1.5,-5.9,-3.6l-.2,-.5h-1.9c-4.3,0,-7.7,3.5,-7.7,7.7v11.4H360v-11.4c0,-4.2,-3.5,-7.7,-7.7,-7.7m-8,5.9c1,0,1.9,-.2,2.8,-.5l-2.7,5.4l-2.9,-5.4c.9,.3,1.8,.5,2.8,.5m13.9,11.4H330.4v-9.6c0,-3.2,2.7,-5.9,5.9,-5.9h.8c.4,.7,.8,1.2,1.3,1.7l6,11.2l5.7,-11.2c.6,-.5,1,-1,1.4,-1.7h.8c3.2,0,5.9,2.7,5.9,5.9Zm-16.7,-25.5c2.8,-.5,4.7,-1.7,5.8,-2.6c.4,.9,1.1,2.2,2.1,3l1.1,-1.5c-.5,-.3,-1.1,-1.2,-1.4,-2c-.4,-.7,-.6,-1.4,-.6,-1.4l-.6,-1.5l-1,1.3h-.1c-.3,.4,-2.2,2.3,-5.6,2.9c-.7,.1,-1.2,.2,-1.7,.2c-.3,0,-.5,0,-.7,-.1l-.2,1.9c.3,0,.6,0,.9,0c.6,0,1.3,-.1,2,-.2m-7.4,4.4h.8c.2,1.7,1.4,2.8,2.6,3.3c.7,.3,1.4,.4,1.9,.5c.3,.5,.8,.8,1.2,1.1c.8,.4,1.8,.7,2.9,.7c1,0,2,-.3,2.8,-.7c.8,-.4,1.4,-1.1,1.5,-2.1c2.2,-1,3.9,-3,4.6,-5.4v2.6h2.1l2.3,-2.3v-5.3l-2.9,-2.8c-.5,-1.7,-1.4,-3.3,-2.5,-4.5c-1.8,-1.9,-4.3,-3.1,-7.1,-3.1v1.8c2.2,0,4.2,.9,5.7,2.5c1,1.1,1.8,2.4,2.2,4v.2l.2,.2v1.8c-1,-3.5,-4.3,-6,-8.1,-6c-3.9,0,-7.1,2.5,-8.2,6.1v-1.9l.2,-.2l.1,-.2c.4,-1.5,1.1,-2.9,2.1,-4c1.5,-1.6,3.5,-2.5,5.8,-2.5V1135c-2.8,0,-5.3,1.2,-7.1,3.1c-1.1,1.2,-2,2.8,-2.5,4.5l-2.9,2.8v5.3Zm20.2,-7.5l.7,.7v3.7l-.7,.7Zm-8.9,10.8c-.4,.3,-1.1,.5,-1.9,.5c-.8,0,-1.5,-.2,-2,-.5c-.4,-.2,-.5,-.5,-.5,-.5c0,0,.1,-.3,.5,-.5c.5,-.3,1.2,-.5,2,-.5c.8,0,1.5,.2,1.9,.5c.5,.2,.5,.5,.5,.5c0,0,0,.3,-.5,.5m-1.1,-15c3.7,0,6.7,3,6.7,6.7c0,2.7,-1.7,5.1,-4.1,6.1c-.2,-.2,-.4,-.3,-.6,-.4c-.8,-.5,-1.8,-.7,-2.8,-.7c-1.1,0,-2,.2,-2.8,.6c-1.9,-1.2,-3.1,-3.2,-3.1,-5.6c0,-3.7,3,-6.7,6.7,-6.7m-8.2,9.1c.6,1.9,1.7,3.4,3.3,4.5c-.4,0,-.8,-.1,-1.2,-.3c-.8,-.4,-1.4,-.8,-1.4,-2.1c0,-.3,-.2,-.8,-.5,-1.1l-.2,-.1Zm-1.8,-4.9v5.1l-.7,-.7v-3.7Z" class="g0_7"/>
<path d="M83.2,1148.3v.7h4.7c1.2,0,2.2,-.9,2.2,-2.1v-.4c0,-1.2,-1,-2.2,-2.2,-2.2H83.2c-.6,0,-1.1,.3,-1.5,.6c-.1,.1,-.2,.3,-.2,.5v.3c0,.2,-.1,.4,-.2,.5c-.2,.1,-.3,.3,-.3,.5v.2c0,1.2,1,2.1,2.2,2.1v-1.4c-.4,0,-.7,-.3,-.7,-.7v-.2h-.8l.5,.6c.4,-.4,.7,-1,.7,-1.6v-.3h-.7l.5,.6c.1,-.2,.3,-.2,.5,-.2h4.7c.4,0,.7,.3,.7,.7v.4c0,.4,-.3,.7,-.7,.7H83.2Z" class="gg_7"/>
<path d="M82.2,1138.5l-.5,.6c.4,.3,.9,.5,1.5,.5h4.7c1.2,0,2.2,-.9,2.2,-2.1v-.4c0,-1.2,-1,-2.1,-2.2,-2.1H83.2c-1.2,0,-2.2,.9,-2.2,2.1v.2c0,.2,.1,.4,.3,.5c.1,.1,.2,.3,.2,.5v.2c0,.2,.1,.4,.2,.6l.5,-.6h.7v-.2c0,-.6,-.3,-1.2,-.7,-1.6l-.5,.6h.8v-.2c0,-.4,.3,-.7,.7,-.7h4.7c.4,0,.7,.3,.7,.7v.4c0,.4,-.3,.7,-.7,.7H83.2c-.2,0,-.4,-.1,-.5,-.2l-.5,.5h.7Z" class="gg_7"/>
<path d="M89,1147.8v.7h2c1,0,1.9,-.9,1.9,-1.9v-9.2c0,-1,-.9,-1.9,-1.9,-1.9H89.1c-.3,0,-.5,.2,-.7,.4c-.1,.3,-.1,.6,.1,.8c.1,.1,.1,.2,.1,.4v.4c0,.4,-.3,.7,-.7,.7H83.2c-.2,0,-.4,-.1,-.5,-.2c-.2,-.2,-.5,-.2,-.8,-.1c-.2,.1,-.4,.4,-.4,.6v6.9c0,.3,.2,.6,.4,.7c.3,.1,.6,0,.8,-.1c.1,-.2,.3,-.2,.5,-.2h4.7c.4,0,.7,.3,.7,.7v.4c0,.1,0,.3,-.1,.4c-.2,.2,-.2,.5,-.1,.8c.1,.2,.3,.4,.6,.4v-.7l.6,.4c.3,-.3,.5,-.8,.5,-1.3v-.4c0,-1.2,-1,-2.2,-2.2,-2.2H83.2c-.6,0,-1.1,.3,-1.5,.6l.5,.5h.7v-6.9h-.7l-.5,.6c.4,.3,.9,.5,1.5,.5h4.7c1.2,0,2.2,-.9,2.2,-2.1v-.4c0,-.5,-.2,-.9,-.4,-1.3l-.6,.5v.7H91c.2,0,.5,.2,.5,.4v9.2c0,.2,-.3,.4,-.5,.4H89v.8l.6,.4Z" class="gg_7"/>
<path d="M82.2,1138.3h.7c0,-1.2,-.9,-2.1,-2.1,-2.1h-.7c-1.2,0,-2.2,.9,-2.2,2.1v7.4c0,1.2,1,2.1,2.2,2.1h.7c1.2,0,2.1,-.9,2.1,-2.1v-7.4H81.5v7.4c0,.4,-.3,.7,-.7,.7h-.7c-.4,0,-.7,-.3,-.7,-.7v-7.4c0,-.4,.3,-.7,.7,-.7h.7c.4,0,.7,.3,.7,.7Z" class="gg_7"/>
<path d="M83.2,1161.7v.7h4.7c1.2,0,2.2,-1,2.2,-2.2v-.4c0,-1.2,-1,-2.1,-2.2,-2.1H83.2c-.6,0,-1.1,.2,-1.5,.5c-.1,.2,-.2,.4,-.2,.6v.3c0,.2,-.1,.3,-.2,.5c-.2,.1,-.3,.3,-.3,.5v.1c0,1.2,1,2.2,2.2,2.2v-1.5c-.4,0,-.7,-.3,-.7,-.7v-.1h-.8l.5,.5c.4,-.4,.7,-.9,.7,-1.5v-.3h-.7l.5,.5c.1,-.1,.3,-.2,.5,-.2h4.7c.4,0,.7,.3,.7,.7v.4c0,.4,-.3,.7,-.7,.7H83.2Z" class="gg_7"/>
<path d="M82.2,1151.9l-.5,.5c.4,.4,.9,.6,1.5,.6h4.7c1.2,0,2.2,-1,2.2,-2.1v-.5c0,-1.1,-1,-2.1,-2.2,-2.1H83.2c-1.2,0,-2.2,1,-2.2,2.1v.2c0,.2,.1,.4,.3,.5c.1,.2,.2,.4,.2,.6v.2c0,.2,.1,.4,.2,.5l.5,-.5h.7v-.2c0,-.7,-.3,-1.2,-.7,-1.6l-.5,.5h.8v-.2c0,-.3,.3,-.6,.7,-.7h4.7c.4,.1,.7,.4,.7,.7v.5c0,.3,-.3,.7,-.7,.7H83.2c-.2,0,-.4,-.1,-.5,-.2l-.5,.5h.7Z" class="gg_7"/>
<path d="M89,1161.1v.7h2c1,0,1.9,-.8,1.9,-1.9v-9.1c0,-1,-.9,-1.9,-1.9,-1.9H89.1c-.3,0,-.5,.2,-.7,.4c-.1,.2,-.1,.5,.1,.7c.1,.2,.1,.3,.1,.4v.5c0,.3,-.3,.7,-.7,.7H83.2c-.2,0,-.4,-.1,-.5,-.2c-.2,-.2,-.5,-.3,-.8,-.2c-.2,.2,-.4,.4,-.4,.7v6.9c0,.3,.2,.5,.4,.6c.3,.2,.6,.1,.8,-.1c.1,-.1,.3,-.2,.5,-.2h4.7c.4,0,.7,.3,.7,.7v.4c0,.2,0,.3,-.1,.5c-.2,.2,-.2,.5,-.1,.7c.1,.3,.3,.4,.6,.4v-.7l.6,.5c.3,-.4,.5,-.8,.5,-1.4v-.4c0,-1.2,-1,-2.1,-2.2,-2.1H83.2c-.6,0,-1.1,.2,-1.5,.5l.5,.6h.7v-6.9h-.7l-.5,.5c.4,.4,.9,.6,1.5,.6h4.7c1.2,0,2.2,-1,2.2,-2.1v-.5c0,-.4,-.2,-.9,-.4,-1.2l-.6,.4v.7H91c.2,0,.5,.2,.5,.5v9.1c0,.3,-.3,.5,-.5,.5H89v.7l.6,.5Z" class="gg_7"/>
<path d="M82.2,1151.7h.7c0,-1.2,-.9,-2.2,-2.1,-2.2h-.7c-1.2,0,-2.2,1,-2.2,2.2v7.4c0,1.1,1,2.1,2.2,2.1h.7c1.2,0,2.1,-1,2.1,-2.1v-7.4H81.5v7.4c0,.3,-.3,.6,-.7,.6h-.7c-.4,0,-.7,-.3,-.7,-.6v-7.4c0,-.4,.3,-.7,.7,-.7h.7c.4,0,.7,.3,.7,.7Z" class="gg_7"/>
<path d="M67.2,1147.4h3.3c.5,0,1,-.2,1,-.6v-.1c0,-.4,-.5,-.6,-1,-.6H67.2c-.3,0,-.5,0,-.7,.1v.1c0,.2,-.1,.4,-.3,.5c0,.4,.4,.6,1,.6Z" class="gg_7"/>
<path d="M66.6,1137.1c.2,.1,.5,.2,.7,.2h3.5c.6,0,1,-.3,1,-.6v-.2c0,-.4,-.4,-.6,-1,-.6H67.3c-.5,0,-1,.2,-1,.6v.1c.2,.1,.3,.2,.3,.4Z" class="gg_7"/>
<path d="M72.7,1147.4h1.9c.6,0,1.1,-.5,1.1,-1.1v-9.2c0,-.6,-.5,-1.2,-1.1,-1.2H72.8c.1,.3,.2,.6,.2,.9v.4c0,.8,-.6,1.4,-1.3,1.4H67.1c-.3,0,-.6,-.1,-.9,-.4v6.9c.3,-.2,.6,-.4,.9,-.4h4.6c.7,0,1.3,.7,1.3,1.5v.4c0,.3,-.1,.6,-.3,.8Z" class="gg_7"/>
<path d="M64.8,1138.8c0,-.7,-.5,-1.2,-1.1,-1.2c-.6,0,-1.1,.5,-1.1,1.2v5.8c0,.6,.5,1.1,1.1,1.1c.6,0,1.1,-.5,1.1,-1.1Z" class="gg_7"/>
<path d="M66.7,1161.7v.7h4.8c1.2,0,2.1,-1,2.1,-2.2v-.4c0,-1.2,-.9,-2.1,-2.1,-2.1H66.7c-.6,0,-1.1,.2,-1.4,.5c-.2,.2,-.3,.4,-.3,.6v.3c0,.2,-.1,.3,-.2,.5c-.2,.1,-.2,.3,-.2,.5v.1c0,1.2,.9,2.2,2.1,2.2v-1.5c-.4,0,-.7,-.3,-.7,-.7v-.1h-.7l.5,.5c.4,-.4,.7,-.9,.7,-1.5v-.3h-.7l.4,.5c.2,-.1,.3,-.2,.5,-.2h4.8c.4,0,.7,.3,.7,.7v.4c0,.4,-.3,.7,-.7,.7H66.7Z" class="gg_7"/>
<path d="M65.8,1151.9l-.5,.5c.3,.4,.8,.6,1.4,.6h4.8c1.2,0,2.1,-1,2.1,-2.1v-.5c0,-1.1,-.9,-2.1,-2.1,-2.1H66.7c-1.2,0,-2.1,1,-2.1,2.1v.2c0,.2,0,.4,.2,.5c.1,.2,.2,.4,.2,.6v.2c0,.2,.1,.4,.3,.5l.5,-.5h.7v-.2c0,-.7,-.3,-1.2,-.7,-1.6l-.5,.5H66v-.2c0,-.3,.3,-.6,.7,-.7h4.8c.4,.1,.7,.4,.7,.7v.5c0,.3,-.3,.7,-.7,.7H66.7c-.2,0,-.3,-.1,-.5,-.2l-.4,.5h.7Z" class="gg_7"/>
<path d="M72.6,1161.1v.7h1.9c1.1,0,1.9,-.8,1.9,-1.9v-9.1c0,-1,-.8,-1.9,-1.9,-1.9H72.6c-.3,0,-.5,.2,-.6,.4c-.1,.2,-.1,.5,0,.7c.1,.2,.2,.3,.2,.4v.5c0,.3,-.3,.7,-.7,.7H66.7c-.2,0,-.3,-.1,-.5,-.2c-.2,-.2,-.5,-.3,-.7,-.2c-.3,.2,-.5,.4,-.5,.7v6.9c0,.3,.2,.5,.5,.6c.2,.2,.5,.1,.7,-.1c.2,-.1,.3,-.2,.5,-.2h4.8c.4,0,.7,.3,.7,.7v.4c0,.2,-.1,.3,-.2,.5c-.2,.2,-.2,.5,-.1,.7c.1,.3,.4,.4,.7,.4v-.7l.5,.5c.3,-.4,.5,-.8,.5,-1.4v-.4c0,-1.2,-.9,-2.1,-2.1,-2.1H66.7c-.6,0,-1.1,.2,-1.4,.5l.5,.6h.7v-6.9h-.7l-.5,.5c.3,.4,.8,.6,1.4,.6h4.8c1.2,0,2.1,-1,2.1,-2.1v-.5c0,-.4,-.1,-.9,-.4,-1.2l-.6,.4v.7h1.9c.3,0,.5,.2,.5,.5v9.1c0,.3,-.2,.5,-.5,.5H72.6v.7l.5,.5Z" class="gg_7"/>
<path d="M65.8,1151.7h.7c0,-1.2,-1,-2.2,-2.2,-2.2h-.7c-1.2,0,-2.1,1,-2.1,2.2v7.4c0,1.1,.9,2.1,2.1,2.1h.7c1.2,0,2.2,-1,2.2,-2.1v-7.4H65v7.4c0,.3,-.3,.6,-.7,.6h-.7c-.4,0,-.7,-.3,-.7,-.6v-7.4c0,-.4,.3,-.7,.7,-.7h.7c.4,0,.7,.3,.7,.7Z" class="gg_7"/>
<path d="M50.2,1148.3v.7H55c1.2,0,2.2,-.9,2.2,-2.1v-.4c0,-1.2,-1,-2.2,-2.2,-2.2H50.2c-.5,0,-1,.3,-1.4,.6c-.1,.1,-.2,.3,-.2,.5v.3c0,.2,-.1,.4,-.3,.5c-.1,.1,-.2,.3,-.2,.5v.2c0,1.2,1,2.1,2.1,2.1v-1.4c-.3,0,-.7,-.3,-.7,-.7v-.2h-.7l.5,.6c.4,-.4,.7,-1,.7,-1.6v-.3h-.7l.5,.6c.1,-.2,.3,-.2,.4,-.2H55c.4,0,.7,.3,.7,.7v.4c0,.4,-.3,.7,-.7,.7H50.2Z" class="gg_7"/>
<path d="M49.3,1138.5l-.5,.6c.4,.3,.9,.5,1.4,.5H55c1.2,0,2.2,-.9,2.2,-2.1v-.4c0,-1.2,-1,-2.1,-2.2,-2.1H50.2c-1.1,0,-2.1,.9,-2.1,2.1v.2c0,.2,.1,.4,.2,.5c.2,.1,.3,.3,.3,.5v.2c0,.2,.1,.4,.2,.6l.5,-.6H50v-.2c0,-.6,-.3,-1.2,-.7,-1.6l-.5,.6h.7v-.2c0,-.4,.4,-.7,.7,-.7H55c.4,0,.7,.3,.7,.7v.4c0,.4,-.3,.7,-.7,.7H50.2c-.1,0,-.3,-.1,-.4,-.2l-.5,.5H50Z" class="gg_7"/>
<path d="M56.1,1147.8v.7h2c1,0,1.9,-.9,1.9,-1.9v-9.2c0,-1,-.9,-1.9,-1.9,-1.9H56.2c-.3,0,-.6,.2,-.7,.4c-.1,.3,-.1,.6,.1,.8c.1,.1,.1,.2,.1,.4v.4c0,.4,-.3,.7,-.7,.7H50.2c-.1,0,-.3,-.1,-.4,-.2c-.2,-.2,-.5,-.2,-.8,-.1c-.3,.1,-.4,.4,-.4,.6v6.9c0,.3,.1,.6,.4,.7c.3,.1,.6,0,.8,-.1c.1,-.2,.3,-.2,.4,-.2H55c.4,0,.7,.3,.7,.7v.4c0,.1,0,.3,-.1,.4c-.2,.2,-.3,.5,-.1,.8c.1,.2,.3,.4,.6,.4v-.7l.6,.4c.3,-.3,.5,-.8,.5,-1.3v-.4c0,-1.2,-1,-2.2,-2.2,-2.2H50.2c-.5,0,-1,.3,-1.4,.6l.5,.5H50v-6.9h-.7l-.5,.6c.4,.3,.9,.5,1.4,.5H55c1.2,0,2.2,-.9,2.2,-2.1v-.4c0,-.5,-.2,-.9,-.5,-1.3l-.5,.5v.7h1.9c.2,0,.4,.2,.4,.4v9.2c0,.2,-.2,.4,-.4,.4h-2v.8l.6,.4Z" class="gg_7"/>
<path d="M49.3,1138.3H50c0,-1.2,-.9,-2.1,-2.1,-2.1h-.7c-1.2,0,-2.2,.9,-2.2,2.1v7.4c0,1.2,1,2.1,2.2,2.1h.7c1.2,0,2.1,-.9,2.1,-2.1v-7.4H48.6v7.4c0,.4,-.3,.7,-.7,.7h-.7c-.4,0,-.7,-.3,-.7,-.7v-7.4c0,-.4,.3,-.7,.7,-.7h.7c.4,0,.7,.3,.7,.7Z" class="gg_7"/>
<path d="M50.2,1161.7v.7H55c1.2,0,2.2,-1,2.2,-2.2v-.4c0,-1.2,-1,-2.1,-2.2,-2.1H50.2c-.5,0,-1,.2,-1.4,.5c-.1,.2,-.2,.4,-.2,.6v.3c0,.2,-.1,.3,-.3,.5c-.1,.1,-.2,.3,-.2,.5v.1c0,1.2,1,2.2,2.1,2.2v-1.5c-.3,0,-.7,-.3,-.7,-.7v-.1h-.7l.5,.5c.4,-.4,.7,-.9,.7,-1.5v-.3h-.7l.5,.5c.1,-.1,.3,-.2,.4,-.2H55c.4,0,.7,.3,.7,.7v.4c0,.4,-.3,.7,-.7,.7H50.2Z" class="gg_7"/>
<path d="M49.3,1151.9l-.5,.5c.4,.4,.9,.6,1.4,.6H55c1.2,0,2.2,-1,2.2,-2.1v-.5c0,-1.1,-1,-2.1,-2.2,-2.1H50.2c-1.1,0,-2.1,1,-2.1,2.1v.2c0,.2,.1,.4,.2,.5c.2,.2,.3,.4,.3,.6v.2c0,.2,.1,.4,.2,.5l.5,-.5H50v-.2c0,-.7,-.3,-1.2,-.7,-1.6l-.5,.5h.7v-.2c0,-.3,.4,-.6,.7,-.7H55c.4,.1,.7,.4,.7,.7v.5c0,.3,-.3,.7,-.7,.7H50.2c-.1,0,-.3,-.1,-.4,-.2l-.5,.5H50Z" class="gg_7"/>
<path d="M56.1,1161.1v.7h2c1,0,1.9,-.8,1.9,-1.9v-9.1c0,-1,-.9,-1.9,-1.9,-1.9H56.2c-.3,0,-.6,.2,-.7,.4c-.1,.2,-.1,.5,.1,.7c.1,.2,.1,.3,.1,.4v.5c0,.3,-.3,.7,-.7,.7H50.2c-.1,0,-.3,-.1,-.4,-.2c-.2,-.2,-.5,-.3,-.8,-.2c-.3,.2,-.4,.4,-.4,.7v6.9c0,.3,.1,.5,.4,.6c.3,.2,.6,.1,.8,-.1c.1,-.1,.3,-.2,.4,-.2H55c.4,0,.7,.3,.7,.7v.4c0,.2,0,.3,-.1,.5c-.2,.2,-.3,.5,-.1,.7c.1,.3,.3,.4,.6,.4v-.7l.6,.5c.3,-.4,.5,-.8,.5,-1.4v-.4c0,-1.2,-1,-2.1,-2.2,-2.1H50.2c-.5,0,-1,.2,-1.4,.5l.5,.6H50v-6.9h-.7l-.5,.5c.4,.4,.9,.6,1.4,.6H55c1.2,0,2.2,-1,2.2,-2.1v-.5c0,-.4,-.2,-.9,-.5,-1.2l-.5,.4v.7h1.9c.2,0,.4,.2,.4,.5v9.1c0,.3,-.2,.5,-.4,.5h-2v.7l.6,.5Z" class="gg_7"/>
<path d="M49.3,1151.7H50c0,-1.2,-.9,-2.2,-2.1,-2.2h-.7c-1.2,0,-2.2,1,-2.2,2.2v7.4c0,1.1,1,2.1,2.2,2.1h.7c1.2,0,2.1,-1,2.1,-2.1v-7.4H48.6v7.4c0,.3,-.3,.6,-.7,.6h-.7c-.4,0,-.7,-.3,-.7,-.6v-7.4c0,-.4,.3,-.7,.7,-.7h.7c.4,0,.7,.3,.7,.7Z" class="gg_7"/>
<path d="M221.1,1103.4c0,3.4,-.1,6.8,0,10.2c.1,3.1,-1.4,5.3,-4.5,6.7c-3.3,1.4,-6.5,1.2,-9.5,-.7c-.4,-.2,-.9,-.5,-1.1,-.9c-.2,-.2,-.1,-.7,0,-.9c.2,-.1,.7,-.1,1,0c.2,0,.4,.3,.6,.4c3.1,2.3,8,2,10.5,-.7c1.1,-1.1,1.5,-2.4,1.5,-3.8c-.1,-6.8,-.1,-13.6,0,-20.4c0,-2.5,-1.1,-4.4,-3.6,-5.5c-2.6,-1.2,-5.3,-1.1,-7.8,.4c-.3,.1,-.7,.4,-.9,.6c-.5,.3,-1,.5,-1.2,0c-.2,-.2,-.1,-.8,.1,-1c1.2,-1,2.6,-1.6,4.1,-2c4.8,-1,9.7,1.5,10.6,5.5c.2,.6,.2,1.1,.2,1.7c0,3.5,0,6.9,0,10.4Z" class="gh_7"/>
<path d="M206,1095.5c-1.7,-.2,-2.3,-1.4,-1.5,-3c.4,-1,1.3,-1.4,2.3,-1.8c1.6,-.4,3.2,-.5,4.8,0c2,.6,3.2,2.5,3,4.5c-.2,1.9,-1.8,3.6,-3.7,3.8c-2.1,.3,-4,-.8,-4.7,-2.8c-.1,-.2,-.1,-.4,-.2,-.7m7.1,.1c-1.4,-.5,-1.6,-.7,-2.3,-1.9c-.1,-.3,-.3,-.6,-.4,-.8c-.7,-1,-1.4,-1.1,-2.2,-.2c-.9,.8,-1.1,2.1,-.6,3.2c.4,1.1,1.5,1.8,2.7,1.8c1.4,-.1,2.3,-.8,2.8,-2.1m.1,-1.7c.1,-1,-1.8,-1.6,-1.8,-1.6c.5,1.7,1.7,2.2,1.8,1.6m-6.5,-1.7c-1.9,.8,-.9,2.3,-.8,1.9c0,0,.2,-1.2,.8,-1.9Z" class="gh_7"/>
<path d="M206,1104.9c-1.7,-.3,-2.3,-1.5,-1.5,-3c.4,-1.1,1.3,-1.5,2.3,-1.8c1.6,-.5,3.2,-.6,4.8,-.1c2,.6,3.2,2.5,3,4.5c-.2,1.9,-1.8,3.6,-3.7,3.9c-2.1,.2,-4,-.9,-4.7,-2.8c-.1,-.3,-.1,-.5,-.2,-.7m7.1,0c-1.4,-.5,-1.6,-.6,-2.3,-1.9c-.1,-.3,-.3,-.6,-.4,-.8c-.7,-1,-1.4,-1,-2.2,-.2c-.9,.8,-1.1,2.1,-.6,3.2c.4,1.2,1.5,1.8,2.7,1.8c1.4,0,2.3,-.7,2.8,-2.1m.1,-1.7c.1,-.9,-1.8,-1.6,-1.8,-1.6c.5,1.8,1.7,2.2,1.8,1.6m-6.5,-1.7c-1.9,.8,-.9,2.3,-.8,1.9c0,0,.2,-1.2,.8,-1.9Z" class="gh_7"/>
<path d="M206,1114c-1.7,-.3,-2.3,-1.5,-1.5,-3c.4,-1.1,1.3,-1.5,2.3,-1.8c1.6,-.5,3.2,-.6,4.8,-.1c2,.6,3.2,2.5,3,4.5c-.2,2,-1.8,3.6,-3.7,3.9c-2.1,.2,-4,-.9,-4.7,-2.8c-.1,-.3,-.1,-.5,-.2,-.7m7.1,0c-1.4,-.5,-1.6,-.6,-2.3,-1.9c-.1,-.3,-.3,-.6,-.4,-.8c-.7,-1,-1.4,-1,-2.2,-.2c-.9,.8,-1.1,2.1,-.6,3.2c.4,1.2,1.5,1.8,2.7,1.8c1.4,0,2.3,-.7,2.8,-2.1m.1,-1.7c.1,-.9,-1.8,-1.6,-1.8,-1.6c.5,1.8,1.7,2.2,1.8,1.6m-6.5,-1.7c-1.9,.8,-.9,2.3,-.8,1.9c0,0,.2,-1.2,.8,-1.9Z" class="gh_7"/>
<path d="M202.1,1108.5l-5.2,-5.6c-.3,-.2,-.7,-.2,-.9,0c-.3,.3,-.3,.6,0,.9l5.2,5.5c.3,.3,.7,.3,.9,.1c.3,-.3,.3,-.7,0,-.9Z" class="gh_7"/>
<path d="M202.1,1116.1l-5.2,5.5c-.3,.3,-.7,.3,-.9,.1c-.3,-.3,-.3,-.7,0,-.9l5.2,-5.6c.3,-.2,.7,-.2,.9,0c.3,.3,.3,.7,0,.9Z" class="gh_7"/>
<path d="M200.9,1110.5l-7.2,-1.4c-.3,-.1,-.7,.1,-.7,.5c-.1,.3,.1,.6,.5,.7l7.2,1.4c.3,.1,.7,-.2,.7,-.5c.1,-.3,-.1,-.7,-.5,-.7Z" class="gh_7"/>
<path d="M200.9,1114.1l-7.2,1.4c-.3,.1,-.7,-.1,-.7,-.5c-.1,-.3,.1,-.6,.5,-.7l7.2,-1.4c.3,-.1,.7,.1,.7,.5c.1,.3,-.1,.7,-.5,.7Z" class="gh_7"/>
<path d="M462.2,1091v-.8c-1.1,0,-2.1,1,-2.1,2.1v29.4h23v-29.4c0,-1.1,-1,-2.1,-2.1,-2.1H462.2v1.6H481c.3,0,.5,.2,.6,.5v27.8h-20v-27.8c0,-.3,.3,-.5,.6,-.5Z" class="gi_7"/>
<path d="M464.2,1086v-.4c-.6,0,-1,.5,-1,1v4.7H480v-4.7c0,-.5,-.4,-1,-1,-1H464.2v.7H479c.2,0,.3,.2,.3,.3v4H463.9v-4c0,-.1,.1,-.3,.3,-.3Z" class="gi_7"/>
<path d="M469,1113.1h-.3v7.6l.1,.3l.2,.1h5.2l.3,-.1l.1,-.3v-7.6l-.1,-.3l-.3,-.1H469l-.2,.1l-.1,.3h.3v.4h4.8v6.8h-4.4v-7.2H469v.4Z" class="gi_7"/>
<path d="M476,1113.1h-.4v4.1l.1,.3l.3,.1h4.1l.3,-.1l.1,-.3v-4.1l-.1,-.3l-.3,-.1H476l-.3,.1l-.1,.3h.4v.4h3.7v3.3h-3.4v-3.7H476v.4Z" class="gi_7"/>
<path d="M463.2,1113.1h-.4v4.1l.1,.3l.3,.1h4.1l.3,-.1l.1,-.3v-4.1l-.1,-.3l-.3,-.1h-4.1l-.3,.1l-.1,.3h.4v.4h3.7v3.3h-3.4v-3.7h-.3v.4Z" class="gi_7"/>
<path d="M471.2,1117h.8v-1h-.8v1Z" class="gi_7"/>
<path d="M476,1106.8h-.4v4.1l.1,.2l.3,.1h4.1l.3,-.1l.1,-.2v-4.1l-.1,-.3l-.3,-.1H476l-.3,.1l-.1,.3h.4v.3h3.7v3.4h-3.4v-3.7H476v.3Z" class="gi_7"/>
<path d="M469.6,1106.8h-.4v4.1l.1,.2l.3,.1h4.1l.3,-.1l.1,-.2v-4.1l-.1,-.3l-.3,-.1h-4.1l-.3,.1l-.1,.3h.4v.3h3.7v3.4h-3.4v-3.7h-.3v.3Z" class="gi_7"/>
<path d="M463.2,1106.8h-.4v4.1l.1,.2l.3,.1h4.1l.3,-.1l.1,-.2v-4.1l-.1,-.3l-.3,-.1h-4.1l-.3,.1l-.1,.3h.4v.3h3.7v3.4h-3.4v-3.7h-.3v.3Z" class="gi_7"/>
<path d="M476,1100.4h-.4v4.1l.1,.3l.3,.1h4.1l.3,-.1l.1,-.3v-4.1l-.1,-.2l-.3,-.1H476l-.3,.1l-.1,.2h.4v.4h3.7v3.4h-3.4v-3.8H476v.4Z" class="gi_7"/>
<path d="M469.6,1100.4h-.4v4.1l.1,.3l.3,.1h4.1l.3,-.1l.1,-.3v-4.1l-.1,-.2l-.3,-.1h-4.1l-.3,.1l-.1,.2h.4v.4h3.7v3.4h-3.4v-3.8h-.3v.4Z" class="gi_7"/>
<path d="M463.2,1100.4h-.4v4.1l.1,.3l.3,.1h4.1l.3,-.1l.1,-.3v-4.1l-.1,-.2l-.3,-.1h-4.1l-.3,.1l-.1,.2h.4v.4h3.7v3.4h-3.4v-3.8h-.3v.4Z" class="gi_7"/>
<path d="M476,1094.1h-.4v4.1l.1,.3l.3,.1h4.1l.3,-.1l.1,-.3v-4.1l-.1,-.2l-.3,-.2H476l-.3,.2l-.1,.2h.4v.4h3.7v3.4h-3.4v-3.8H476v.4Z" class="gi_7"/>
<path d="M469.6,1094.1h-.4v4.1l.1,.3l.3,.1h4.1l.3,-.1l.1,-.3v-4.1l-.1,-.2l-.3,-.2h-4.1l-.3,.2l-.1,.2h.4v.4h3.7v3.4h-3.4v-3.8h-.3v.4Z" class="gi_7"/>
<path d="M463.2,1094.1h-.4v4.1l.1,.3l.3,.1h4.1l.3,-.1l.1,-.3v-4.1l-.1,-.2l-.3,-.2h-4.1l-.3,.2l-.1,.2h.4v.4h3.7v3.4h-3.4v-3.8h-.3v.4Z" class="gi_7"/>
<path d="M466.7,1087l-.2,-.1l-.4,.7l-.8,.2l-.2,.2v.2l.6,.6l-.1,.9l.1,.2h.2l.8,-.3l.8,.3h.2l.1,-.2v-.9l.5,-.6v-.2l-.1,-.2l-.8,-.2l-.5,-.7l-.2,-.1l-.2,.1l.2,.1l-.2,.2l.5,.8l.2,.1l.5,.1l-.4,.4v.7l-.5,-.2h-.2l-.5,.2l.1,-.5l-.1,-.2l-.4,-.4l.6,-.1l.1,-.1l.5,-.8l-.2,-.2l-.2,.2Z" class="gi_7"/>
<path d="M471.6,1087l-.2,-.1l-.4,.7l-.9,.2l-.1,.2v.2l.6,.6l-.1,.9l.1,.2h.2l.8,-.3l.8,.3h.2l.1,-.2l-.1,-.9l.6,-.6v-.2l-.1,-.2l-.9,-.2l-.4,-.7l-.2,-.1l-.2,.1l.2,.1l-.2,.2l.5,.8l.1,.1l.6,.1l-.4,.4v.7l-.5,-.2h-.2l-.5,.2v-.7l-.4,-.4l.6,-.1l.1,-.1l.5,-.8l-.2,-.2l-.2,.2Z" class="gi_7"/>
<path d="M476.5,1087l-.2,-.1l-.5,.7l-.8,.2l-.2,.2l.1,.2l.5,.6v.9l.1,.2h.2l.8,-.3l.8,.3h.2l.1,-.2l-.1,-.9l.6,-.6v-.2l-.2,-.2l-.8,-.2l-.4,-.7l-.2,-.1l-.2,.1l.2,.1l-.2,.2l.5,.8l.1,.1l.6,.1l-.4,.4l-.1,.2l.1,.5l-.5,-.2h-.2l-.5,.2v-.7l-.4,-.4l.5,-.1l.2,-.1l.5,-.8l-.2,-.2l-.2,.2Z" class="gi_7"/>
<path d="M459.1,1122h24.7c.5,0,.9,-.5,.9,-1c0,-.5,-.4,-.9,-.9,-.9H459.1c-.5,0,-.9,.4,-.9,.9c0,.5,.4,1,.9,1Z" class="gi_7"/>
<path d="M471.5,1113v7.4h.3V1113Z" class="gi_7"/>
<path d="M43.3,125H317.6V370.3H43.3V125Z" class="g2_7"/>
<path d="M318.3,370.3V125h-1.5V370.3Z" class="g3_7"/>
<g clip-path="url(#cg_7)">
<path d="M-19.4,1307.9H0V-21.6H-19.4V1307.9Z" class="g2_7"/>
<path d="M0,1307.9H19.5V-21.6H0V1307.9Z" class="g2_7"/>
</g>
</svg>