<?xml version="1.0" encoding="UTF-8" standalone="no"?>
<!DOCTYPE svg PUBLIC "-//W3C//DTD SVG 1.1//EN"
"http://www.w3.org/Graphics/SVG/1.1/DTD/svg11.dtd">
<svg viewBox="0 0 909 1286" version="1.1" xmlns="http://www.w3.org/2000/svg" xmlns:xlink="http://www.w3.org/1999/xlink">
<defs>
<clipPath id="c0_19"><path d="M881.7,1072.4v-38h22.8v38Z"/></clipPath>
<clipPath id="c1_19"><path d="M556,121.8V105.1H544.1v16.7ZM452.1,147.2l.6,-15.9l2.3,-8.2l.2,-1.3H463V105.1H451.1v7.2l-2.5,-2l-1.2,-7.2l-2.2,-3.8l-4.5,-7.9L431.6,79.8c0,0,-6,-4.9,-7.9,-7.2c-.6,-.7,-.8,-1.7,-.8,-2.8c0,-2.2,1.1,-4.7,2.3,-6.2c1.9,-2.3,12.5,-10.2,12.5,-10.2c0,0,12,-10.9,14.3,-12c.6,-.4,1.3,-.5,1.9,-.5c1.4,0,2.7,.7,3.7,1.2c.4,.2,.9,.3,1.5,.3c1.6,0,3.7,-.6,3.8,-.6l7.9,-4.9l8.6,-.8l6.4,1.1L493,35.7l-2.7,-5.2l-5.6,-6.4l5.6,-7.2l9.1,-5.3l15.8,-6l8.7,-.7l6.7,1.5l12.8,10.5l5.3,1.9l12,1.5h16.5V147.2Z"/></clipPath>
<clipPath id="c2_19"><path d="M39.7,555.8V147.2H577.2V555.8Z"/></clipPath>
<clipPath id="c3_19"><path d="M851.7,41.7c-1.2,0,-2.5,-.1,-3.8,-.3c-6,-1.2,-21,-6,-27.4,-7.6c-5.9,-1.3,-18.9,-3,-26.3,-3c-.7,0,-1.4,0,-2,0c-3.4,.2,-6.8,.6,-9.7,.6c-2.9,0,-5.1,-.4,-6.1,-1.7c-1.9,-2.6,-4.9,-5.6,-4.9,-5.6c0,0,-.5,-.1,-1.4,-.1c-1.2,0,-3.2,.1,-5,.8c-3,1.1,-9.8,2.3,-9.8,2.3l-19.5,2.2c0,0,-11.3,.4,-15.8,.4c-4.6,0,-27.9,-1.5,-27.9,-1.5L665.8,24.4L646.2,19.2l-9,-3.8l-2.7,-1.1l-5.3,.7l-4.5,3.8l-9,1.5H577.2V0H870.5V36.2l-.4,-.4c0,0,-4.8,1.8,-7.8,3.3c-2.4,1.2,-6.2,2.6,-10.6,2.6Z"/></clipPath>
<clipPath id="c4_19"><path d="M794.4,141.9V126.5H732.2v15.4ZM600.9,121.8V105.1H589.1v16.7ZM723,117.2V101.8H647.1v15.4Zm72.9,7.1V105.6H741.6l3,-12l-8.3,-2.1l-3.5,13.8l7,1.8v17.2Zm-.8,-32.4V76.5H753.9V91.9ZM752.1,79l3.5,-13.8l-8.3,-2.1L743.8,77l8.3,2ZM745.6,61.7V43H608.1V61.7ZM577.2,147.2V20.3h38.5l9,-1.5L629.2,15l5.3,-.7l2.7,1.1l9,3.8l19.6,5.2l26.3,3.8c0,0,23.3,1.5,27.9,1.5c4.5,0,15.8,-.4,15.8,-.4l19.5,-2.2c0,0,6.8,-1.2,9.8,-2.3c1.8,-.7,3.8,-.8,5,-.8c.9,0,1.4,.1,1.4,.1c0,0,3,3,4.9,5.6c1,1.3,3.2,1.7,6.1,1.7c2.9,0,6.3,-.4,9.7,-.6c.6,0,1.3,0,2,0c7.4,0,20.4,1.7,26.3,3c6.4,1.6,21.4,6.4,27.4,7.6c1.3,.2,2.6,.3,3.8,.3c4.4,0,8.2,-1.4,10.6,-2.6c3,-1.5,7.8,-3.3,7.8,-3.3l.4,.4v111H701.6v-6H652.1v6Z"/></clipPath>
<clipPath id="c5_19"><path d="M577.2,597.6V555.8h23.2v41.8Z"/></clipPath>
<clipPath id="c6_19"><path d="M600.4,597.6V555.8H870.5v41.8Z"/></clipPath>
<clipPath id="c7_19"><path d="M729.8,177.6V162.2H674.3v15.4Zm-152.6,123V147.2h74.9v9.4h49.5v-9.4H821.8v8.2H757.6v15.4h64.2V300.6Z"/></clipPath>
<clipPath id="c8_19"><path d="M821.5,555.8v-3.6h47V534.6h-47V170.8h1V155.4h-1v-8.2h49V555.8Z"/></clipPath>
<clipPath id="c9_19"><path d="M577.2,453.8V300.2H821.8V453.8Z"/></clipPath>
<clipPath id="ca_19"><path d="M577.2,555.8V453.4H821.8v81.2H807.4v17.6h14.4v3.6Z"/></clipPath>
<clipPath id="cb_19"><path d="M807.4,552.2V534.6h61.1v17.6Z"/></clipPath>
<clipPath id="cc_19"><path d="M183.8,121.1V104.4h11.9v16.7Z"/></clipPath>
<clipPath id="cd_19"><path d="M234.9,121.1V104.4h11.9v16.7Z"/></clipPath>
<clipPath id="ce_19"><path d="M291.5,121.1V104.4h11.9v16.7Z"/></clipPath>
<clipPath id="cf_19"><path d="M451.1,121.8v-9.5l5,4l-.9,5.5Z"/></clipPath>
<clipPath id="cg_19"><path d="M455.2,121.8l.9,-5.5l-5,-4v-7.2H463v16.7Z"/></clipPath>
<clipPath id="ch_19"><path d="M544.1,121.8V105.1H556v16.7Z"/></clipPath>
<clipPath id="ci_19"><path d="M753.9,91.9V76.5h41.2V91.9Z"/></clipPath>
<clipPath id="cj_19"><path d="M608.1,61.7V43H745.6V61.7Z"/></clipPath>
<clipPath id="ck_19"><path d="M732.2,141.9V126.5h62.2v15.4Z"/></clipPath>
<clipPath id="cl_19"><path d="M361.9,121.8V105.1h11.8v16.7Z"/></clipPath>
<clipPath id="cm_19"><path d="M739.8,107.1l-7,-1.8l3.5,-13.8l8.3,2.1l-3,12h-1.8v1.5Z"/></clipPath>
<clipPath id="cn_19"><path d="M135.9,121.1V104.4h11.9v16.7Z"/></clipPath>
<clipPath id="co_19"><path d="M82.2,121.1V104.4H94.1v16.7Z"/></clipPath>
<clipPath id="cp_19"><path d="M757.6,170.8V155.4h64.9v15.4Z"/></clipPath>
<clipPath id="cq_19"><path d="M739.8,124.3V107.1l1.3,.3l.5,-1.8h54.3v18.7Z"/></clipPath>
<clipPath id="cr_19"><path d="M741.1,107.4l-1.3,-.3v-1.5h1.8l-.5,1.8Z"/></clipPath>
<clipPath id="cs_19"><path d="M652.1,147.2v-6h49.5v6Z"/></clipPath>
<clipPath id="ct_19"><path d="M652.1,156.6v-9.4h49.5v9.4Z"/></clipPath>
<clipPath id="cu_19"><path d="M647.1,117.2V101.8H723v15.4Z"/></clipPath>
<clipPath id="cv_19"><path d="M674.3,177.6V162.2h55.5v15.4Z"/></clipPath>
<clipPath id="cw_19"><path d="M752.1,79l-8.3,-2l3.5,-13.9l8.3,2.1L752.1,79Z"/></clipPath>
<clipPath id="cx_19"><path d="M589.1,121.8V105.1h11.8v16.7Z"/></clipPath>
<clipPath id="cy_19"><path d="M0,1286.2V0H909.4V1286.2Z"/></clipPath>
<style type="text/css"><![CDATA[
.g0_19{
fill: #4BC0B5;
}
.g1_19{
fill: #DCDDDE;
}
.g2_19{
fill: #58595B;
}
.g3_19{
fill: #DEF1F0;
}
.g4_19{
fill: #5AC4C1;
}
.g5_19{
fill: #8FD3D3;
}
]]></style>
</defs>
<path d="M879.6,1286.2h29.8V1029H879.6v257.2Z" class="g0_19"/>
<image clip-path="url(#c0_19)" preserveAspectRatio="none" x="881" y="1034" width="24" height="39" xlink:href="img/1.jpg"/>
<image clip-path="url(#c1_19)" preserveAspectRatio="none" x="420" y="3" width="159" height="146" xlink:href="img/2.jpg"/>
<path d="M600.4,1247.2H870.5v-760H600.4v760Z" class="g1_19"/>
<image clip-path="url(#c2_19)" preserveAspectRatio="none" x="40" y="147" width="537" height="409" xlink:href="img/3.jpg"/>
<image clip-path="url(#c3_19)" preserveAspectRatio="none" x="577" y="0" width="294" height="42" xlink:href="img/4.jpg"/>
<image clip-path="url(#c4_19)" preserveAspectRatio="none" x="577" y="14" width="294" height="133" xlink:href="img/5.jpg"/>
<image clip-path="url(#c5_19)" preserveAspectRatio="none" x="577" y="555" width="24" height="44" xlink:href="img/6.jpg"/>
<image clip-path="url(#c6_19)" preserveAspectRatio="none" x="599" y="555" width="272" height="44" xlink:href="img/7.jpg"/>
<image clip-path="url(#c7_19)" preserveAspectRatio="none" x="577" y="147" width="245" height="154" xlink:href="img/8.jpg"/>
<image clip-path="url(#c8_19)" preserveAspectRatio="none" x="821" y="147" width="50" height="409" xlink:href="img/9.jpg"/>
<image clip-path="url(#c9_19)" preserveAspectRatio="none" x="577" y="300" width="245" height="154" xlink:href="img/10.jpg"/>
<image clip-path="url(#ca_19)" preserveAspectRatio="none" x="577" y="453" width="245" height="103" xlink:href="img/11.jpg"/>
<image clip-path="url(#cb_19)" preserveAspectRatio="none" x="807" y="534" width="62" height="18" xlink:href="img/12.jpg"/>
<path d="M600.4,596.8H870.5v-2.3H600.4v2.3Z" class="g2_19"/>
<path d="M165.7,130.5c2,0,3.7,-1.7,3.7,-3.8c0,-2.1,-1.7,-3.8,-3.7,-3.8c-2.1,0,-3.8,1.7,-3.8,3.8c0,2.1,1.7,3.8,3.8,3.8Z" class="g3_19"/>
<path d="M165.7,130.5v.5c2.3,0,4.3,-1.9,4.3,-4.3c0,-2.4,-2,-4.3,-4.3,-4.3c-2.4,0,-4.4,1.9,-4.4,4.3c0,2.4,2,4.3,4.4,4.3v-1.1c-1.8,0,-3.3,-1.4,-3.3,-3.2c0,-1.8,1.5,-3.2,3.3,-3.2c1.7,0,3.2,1.4,3.2,3.2c0,1.8,-1.5,3.2,-3.2,3.2Z" class="g4_19"/>
<path d="M171.9,127.7h36.6v-1.6H171.9Z" class="g4_19"/>
<image clip-path="url(#cc_19)" preserveAspectRatio="none" x="183" y="104" width="13" height="17" xlink:href="img/13.jpg"/>
<path d="M215.4,130.5c2.1,0,3.8,-1.7,3.8,-3.8c0,-2.1,-1.7,-3.8,-3.8,-3.8c-2,0,-3.7,1.7,-3.7,3.8c0,2.1,1.7,3.8,3.7,3.8Z" class="g3_19"/>
<path d="M215.4,130.5v.5c2.4,0,4.4,-1.9,4.4,-4.3c0,-2.4,-2,-4.3,-4.4,-4.3c-2.4,0,-4.3,1.9,-4.3,4.3c0,2.4,1.9,4.3,4.3,4.3v-1.1c-1.7,0,-3.2,-1.4,-3.2,-3.2c0,-1.8,1.5,-3.2,3.2,-3.2c1.8,0,3.2,1.4,3.2,3.2c0,1.8,-1.4,3.2,-3.2,3.2Z" class="g4_19"/>
<path d="M222.3,127.7h40.1v-1.6H222.3Z" class="g4_19"/>
<image clip-path="url(#cd_19)" preserveAspectRatio="none" x="235" y="104" width="12" height="17" xlink:href="img/14.jpg"/>
<path d="M269.2,130.5c2.1,0,3.8,-1.7,3.8,-3.8c0,-2.1,-1.7,-3.8,-3.8,-3.8c-2.1,0,-3.8,1.7,-3.8,3.8c0,2.1,1.7,3.8,3.8,3.8Z" class="g3_19"/>
<path d="M269.2,130.5v.5c2.4,0,4.3,-1.9,4.3,-4.3c0,-2.4,-1.9,-4.3,-4.3,-4.3c-2.4,0,-4.3,1.9,-4.3,4.3c0,2.4,1.9,4.3,4.3,4.3v-1.1c-1.8,0,-3.2,-1.4,-3.2,-3.2c0,-1.8,1.4,-3.2,3.2,-3.2c1.8,0,3.2,1.4,3.2,3.2c0,1.8,-1.4,3.2,-3.2,3.2Z" class="g4_19"/>
<image clip-path="url(#ce_19)" preserveAspectRatio="none" x="291" y="104" width="13" height="17" xlink:href="img/15.jpg"/>
<path d="M276.3,127.7h49.4v-1.6H276.3Z" class="g4_19"/>
<path d="M411.3,130.5c2.1,0,3.8,-1.7,3.8,-3.8c0,-2.1,-1.7,-3.8,-3.8,-3.8c-2.1,0,-3.7,1.7,-3.7,3.8c0,2.1,1.6,3.8,3.7,3.8Z" class="g3_19"/>
<path d="M411.3,130.5v.5c2.4,0,4.4,-1.9,4.4,-4.3c0,-2.4,-2,-4.3,-4.4,-4.3c-2.4,0,-4.3,1.9,-4.3,4.3c0,2.4,1.9,4.3,4.3,4.3v-1.1c-1.7,0,-3.2,-1.4,-3.2,-3.2c0,-1.8,1.5,-3.2,3.2,-3.2c1.8,0,3.2,1.4,3.2,3.2c0,1.8,-1.4,3.2,-3.2,3.2Z" class="g4_19"/>
<image clip-path="url(#cf_19)" preserveAspectRatio="none" x="451" y="112" width="6" height="10" xlink:href="img/16.jpg"/>
<image clip-path="url(#cg_19)" preserveAspectRatio="none" x="451" y="105" width="12" height="17" xlink:href="img/17.jpg"/>
<path d="M418.3,127.7h78.4v-1.6H418.3Z" class="g4_19"/>
<path d="M503.4,130.5c2.1,0,3.8,-1.7,3.8,-3.8c0,-2.1,-1.7,-3.8,-3.8,-3.8c-2.1,0,-3.7,1.7,-3.7,3.8c0,2.1,1.6,3.8,3.7,3.8Z" class="g3_19"/>
<path d="M503.4,130.5v.5c2.4,0,4.4,-1.9,4.4,-4.3c0,-2.4,-2,-4.3,-4.4,-4.3c-2.4,0,-4.3,1.9,-4.3,4.3c0,2.4,1.9,4.3,4.3,4.3v-1.1c-1.7,0,-3.2,-1.4,-3.2,-3.2c0,-1.8,1.5,-3.2,3.2,-3.2c1.8,0,3.2,1.4,3.2,3.2c0,1.8,-1.4,3.2,-3.2,3.2Z" class="g4_19"/>
<image clip-path="url(#ch_19)" preserveAspectRatio="none" x="544" y="105" width="12" height="17" xlink:href="img/18.jpg"/>
<path d="M510.8,127.7h54.1v-1.6H510.8Z" class="g4_19"/>
<path d="M572.3,130.5c2.1,0,3.8,-1.7,3.8,-3.8c0,-2.1,-1.7,-3.8,-3.8,-3.8c-2.1,0,-3.8,1.7,-3.8,3.8c0,2.1,1.7,3.8,3.8,3.8Z" class="g3_19"/>
<path d="M572.3,130.5v.5c2.4,0,4.3,-1.9,4.3,-4.3c0,-2.4,-1.9,-4.3,-4.3,-4.3c-2.4,0,-4.3,1.9,-4.3,4.3c0,2.4,1.9,4.3,4.3,4.3v-1.1c-1.8,0,-3.2,-1.4,-3.2,-3.2c0,-1.8,1.4,-3.2,3.2,-3.2c1.8,0,3.2,1.4,3.2,3.2c0,1.8,-1.4,3.2,-3.2,3.2Z" class="g4_19"/>
<path d="M758,61.3c4.1,0,7.3,-3.2,7.3,-7.3c0,-4,-3.2,-7.3,-7.3,-7.3c-4,0,-7.3,3.3,-7.3,7.3c0,4.1,3.3,7.3,7.3,7.3Z" class="g5_19"/>
<path d="M758,61.3v1.8c5,0,9.1,-4.1,9.1,-9.1c0,-5,-4.1,-9.1,-9.1,-9.1c-5,0,-9.1,4.1,-9.1,9.1c0,5,4.1,9.1,9.1,9.1V59.6c-1.5,0,-2.9,-.7,-3.9,-1.7c-1,-1,-1.6,-2.3,-1.6,-3.9c0,-1.5,.6,-2.9,1.6,-3.9c1,-1,2.4,-1.6,3.9,-1.6c1.5,0,2.9,.6,3.9,1.6c1,1,1.6,2.4,1.6,3.9c0,1.6,-.6,2.9,-1.6,3.9c-1,1,-2.4,1.7,-3.9,1.7Z" class="g4_19"/>
<image clip-path="url(#ci_19)" preserveAspectRatio="none" x="753" y="76" width="43" height="16" xlink:href="img/19.jpg"/>
<image clip-path="url(#cj_19)" preserveAspectRatio="none" x="608" y="43" width="138" height="19" xlink:href="img/20.jpg"/>
<path d="M744.6,90.7c2.8,0,5.1,-2.3,5.1,-5.1c0,-2.8,-2.3,-5.1,-5.1,-5.1c-2.8,0,-5.1,2.3,-5.1,5.1c0,2.8,2.3,5.1,5.1,5.1Z" class="g4_19"/>
<image clip-path="url(#ck_19)" preserveAspectRatio="none" x="732" y="126" width="63" height="16" xlink:href="img/21.jpg"/>
<path d="M332,130.5c2,0,3.7,-1.7,3.7,-3.8c0,-2.1,-1.7,-3.8,-3.7,-3.8c-2.1,0,-3.8,1.7,-3.8,3.8c0,2.1,1.7,3.8,3.8,3.8Z" class="g3_19"/>
<path d="M332,130.5v.5c2.4,0,4.3,-1.9,4.3,-4.3c0,-2.4,-1.9,-4.3,-4.3,-4.3c-2.4,0,-4.4,1.9,-4.4,4.3c0,2.4,2,4.3,4.4,4.3v-1.1c-1.8,0,-3.2,-1.4,-3.2,-3.2c0,-1.8,1.4,-3.2,3.2,-3.2c1.7,0,3.2,1.4,3.2,3.2c0,1.8,-1.5,3.2,-3.2,3.2Z" class="g4_19"/>
<image clip-path="url(#cl_19)" preserveAspectRatio="none" x="361" y="105" width="13" height="17" xlink:href="img/22.jpg"/>
<path d="M338.3,127.7h66.4v-1.6H338.3Z" class="g4_19"/>
<image clip-path="url(#cm_19)" preserveAspectRatio="none" x="733" y="91" width="12" height="17" xlink:href="img/23.png"/>
<path d="M116.5,130.5c2.1,0,3.8,-1.7,3.8,-3.8c0,-2.1,-1.7,-3.8,-3.8,-3.8c-2.1,0,-3.8,1.7,-3.8,3.8c0,2.1,1.7,3.8,3.8,3.8Z" class="g3_19"/>
<path d="M116.5,130.5v.5c2.4,0,4.3,-1.9,4.3,-4.3c0,-2.4,-1.9,-4.3,-4.3,-4.3c-2.4,0,-4.3,1.9,-4.3,4.3c0,2.4,1.9,4.3,4.3,4.3v-1.1c-1.8,0,-3.2,-1.4,-3.2,-3.2c0,-1.8,1.4,-3.2,3.2,-3.2c1.8,0,3.2,1.4,3.2,3.2c0,1.8,-1.4,3.2,-3.2,3.2Z" class="g4_19"/>
<path d="M123.4,127.7h36v-1.6h-36Z" class="g4_19"/>
<image clip-path="url(#cn_19)" preserveAspectRatio="none" x="135" y="104" width="13" height="17" xlink:href="img/24.jpg"/>
<path d="M58.8,130.5c2.1,0,3.8,-1.7,3.8,-3.8c0,-2.1,-1.7,-3.8,-3.8,-3.8c-2.1,0,-3.8,1.7,-3.8,3.8c0,2.1,1.7,3.8,3.8,3.8Z" class="g3_19"/>
<path d="M58.8,130.5v.5c2.4,0,4.3,-1.9,4.3,-4.3c0,-2.4,-1.9,-4.3,-4.3,-4.3c-2.4,0,-4.3,1.9,-4.3,4.3c0,2.4,1.9,4.3,4.3,4.3v-1.1c-1.8,0,-3.2,-1.4,-3.2,-3.2c0,-1.8,1.4,-3.2,3.2,-3.2c1.8,0,3.2,1.4,3.2,3.2c0,1.8,-1.4,3.2,-3.2,3.2Z" class="g4_19"/>
<path d="M66.3,127.7h43.4v-1.6H66.3Z" class="g4_19"/>
<image clip-path="url(#co_19)" preserveAspectRatio="none" x="82" y="104" width="13" height="17" xlink:href="img/25.jpg"/>
<image clip-path="url(#cp_19)" preserveAspectRatio="none" x="757" y="155" width="66" height="16" xlink:href="img/26.jpg"/>
<image clip-path="url(#cq_19)" preserveAspectRatio="none" x="740" y="105" width="56" height="20" xlink:href="img/27.jpg"/>
<image clip-path="url(#cr_19)" preserveAspectRatio="none" x="739" y="105" width="3" height="3" xlink:href="img/28.png"/>
<image clip-path="url(#cs_19)" preserveAspectRatio="none" x="652" y="141" width="50" height="6" xlink:href="img/29.jpg"/>
<image clip-path="url(#ct_19)" preserveAspectRatio="none" x="652" y="147" width="50" height="10" xlink:href="img/30.jpg"/>
<image clip-path="url(#cu_19)" preserveAspectRatio="none" x="647" y="101" width="76" height="16" xlink:href="img/31.jpg"/>
<image clip-path="url(#cv_19)" preserveAspectRatio="none" x="674" y="162" width="56" height="16" xlink:href="img/32.jpg"/>
<image clip-path="url(#cw_19)" preserveAspectRatio="none" x="744" y="63" width="12" height="16" xlink:href="img/33.png"/>
<path d="M737.2,152.7v0c-.3,.2,-.4,.5,-.3,.8c.2,.3,.6,.4,.8,.2c.3,-.2,.4,-.5,.2,-.8c-.1,-.3,-.5,-.4,-.7,-.2m-2.1,1.2v0c-.2,.2,-.3,.5,-.2,.8c.2,.3,.5,.3,.8,.2c.3,-.2,.4,-.5,.2,-.8c-.2,-.3,-.5,-.4,-.8,-.2m-2,1.2v0c-.3,.1,-.4,.5,-.2,.8c.2,.2,.5,.3,.8,.2c.3,-.2,.3,-.5,.2,-.8c-.2,-.3,-.5,-.4,-.8,-.2m-2,1.2v0c-.3,.1,-.4,.5,-.2,.8c.1,.2,.5,.3,.8,.2c.2,-.2,.3,-.5,.2,-.8c-.2,-.3,-.6,-.4,-.8,-.2m-2.1,1.2v0c-.2,.1,-.3,.5,-.2,.8c.2,.2,.6,.3,.8,.2c.3,-.2,.4,-.6,.2,-.8c-.1,-.3,-.5,-.4,-.8,-.2m-2,1.2v0c-.3,.1,-.3,.5,-.2,.7c.2,.3,.5,.4,.8,.2c.3,-.1,.4,-.5,.2,-.7c-.2,-.3,-.5,-.4,-.8,-.2m-2,1.2v0c-.3,.1,-.4,.5,-.2,.7c.2,.3,.5,.4,.8,.2c.2,-.1,.3,-.5,.2,-.7c-.2,-.3,-.5,-.4,-.8,-.2Z" class="g4_19"/>
<path d="M739.5,152.6c.1,0,.3,-.1,.4,-.2c.1,-.1,.1,-.2,.1,-.4c0,-.1,0,-.3,-.1,-.4c-.1,-.1,-.3,-.2,-.4,-.2c-.2,0,-.3,.1,-.4,.2c-.1,.1,-.2,.3,-.2,.4c0,.2,.1,.3,.2,.4c.1,.1,.2,.2,.4,.2m-16.2,9.5c.1,0,.3,-.1,.4,-.2c.1,-.1,.1,-.2,.1,-.4c0,-.1,0,-.3,-.1,-.4c-.1,-.1,-.3,-.1,-.4,-.1c-.2,0,-.3,0,-.4,.1c-.2,.1,-.2,.3,-.2,.4c0,.2,0,.3,.2,.4c.1,.1,.2,.2,.4,.2Z" class="g4_19"/>
<path d="M722.2,159.5v0c-.3,-.2,-.6,-.2,-.9,0c-.2,.2,-.2,.6,0,.8c.2,.2,.6,.2,.8,0c.3,-.2,.3,-.5,.1,-.8m-1.6,-1.6v0c-.2,-.2,-.5,-.2,-.8,0c-.2,.2,-.2,.6,0,.8c.2,.2,.6,.2,.8,0c.2,-.2,.2,-.6,0,-.8m-1.5,-1.6v0c-.2,-.3,-.6,-.3,-.8,0c-.2,.2,-.2,.5,0,.8c.2,.2,.6,.2,.8,0c.2,-.2,.2,-.6,0,-.8m-1.5,-1.6v0c-.2,-.3,-.6,-.3,-.8,-.1c-.3,.2,-.3,.6,0,.8c.2,.3,.5,.3,.8,.1c.2,-.3,.2,-.6,0,-.8M716.1,153v0c-.3,-.2,-.6,-.2,-.8,0c-.3,.2,-.3,.6,-.1,.8c.2,.2,.6,.3,.8,0c.3,-.2,.3,-.5,.1,-.8m-1.6,-1.6v0c-.2,-.2,-.5,-.2,-.8,0c-.2,.2,-.2,.6,0,.8c.2,.2,.6,.2,.8,0c.2,-.2,.3,-.6,0,-.8M713,149.8v0c-.2,-.2,-.6,-.3,-.8,0c-.2,.2,-.2,.5,0,.8c.2,.2,.6,.2,.8,0c.2,-.2,.2,-.6,0,-.8m-1.5,-1.6v0c-.2,-.3,-.6,-.3,-.8,-.1c-.2,.3,-.3,.6,0,.9c.2,.2,.5,.2,.8,0c.2,-.2,.2,-.6,0,-.8M710,146.5v0c-.2,-.2,-.6,-.2,-.8,0c-.3,.2,-.3,.6,-.1,.8c.3,.3,.6,.3,.9,.1c.2,-.3,.2,-.6,0,-.9m-1.5,-1.6v0c-.3,-.2,-.6,-.2,-.9,0c-.2,.2,-.2,.6,0,.8c.2,.2,.6,.2,.8,0c.3,-.2,.3,-.5,.1,-.8m-1.6,-1.6v0c-.2,-.2,-.5,-.2,-.8,0c-.2,.2,-.2,.6,0,.8c.2,.2,.6,.2,.8,0c.2,-.2,.2,-.6,0,-.8Z" class="g4_19"/>
<path d="M723.3,162.1c.1,0,.3,-.1,.4,-.2c.1,-.1,.1,-.2,.1,-.4c0,-.1,0,-.3,-.1,-.4c-.1,-.1,-.3,-.1,-.4,-.1c-.2,0,-.3,0,-.4,.1c-.2,.1,-.2,.3,-.2,.4c0,.2,0,.3,.2,.4c.1,.1,.2,.2,.4,.2M705,142.6c.1,0,.3,0,.4,-.1c.1,-.1,.2,-.3,.2,-.4c0,-.2,-.1,-.3,-.2,-.4c-.1,-.1,-.3,-.2,-.4,-.2c-.2,0,-.3,.1,-.4,.2c-.1,.1,-.2,.2,-.2,.4c0,.1,.1,.3,.2,.4c.1,.1,.2,.1,.4,.1Z" class="g4_19"/>
<path d="M707.4,141.8v0c.3,-.1,.4,-.4,.3,-.7c-.1,-.3,-.4,-.5,-.7,-.4c-.3,.1,-.5,.5,-.4,.8c.1,.3,.5,.4,.8,.3m2.1,-.8v0c.3,-.1,.5,-.5,.4,-.8c-.1,-.3,-.5,-.4,-.8,-.3c-.3,.1,-.4,.5,-.3,.7c.1,.3,.4,.5,.7,.4m2.2,-.8v0c.3,-.1,.5,-.5,.3,-.8c-.1,-.3,-.4,-.4,-.7,-.3c-.3,.1,-.4,.4,-.3,.7c.1,.3,.4,.5,.7,.4m2.2,-.8v0c.3,-.2,.4,-.5,.3,-.8c-.1,-.3,-.4,-.4,-.7,-.3c-.3,.1,-.5,.4,-.4,.7c.2,.3,.5,.5,.8,.4m2.2,-.9v0c.2,-.1,.4,-.4,.3,-.7c-.1,-.3,-.5,-.4,-.7,-.3c-.3,.1,-.5,.4,-.4,.7c.1,.3,.5,.5,.8,.3m2.1,-.8v0c.3,-.1,.5,-.4,.4,-.7c-.2,-.3,-.5,-.4,-.8,-.3c-.3,.1,-.4,.4,-.3,.7c.1,.3,.4,.4,.7,.3m2.2,-.8v0c.3,-.1,.4,-.4,.3,-.7c-.1,-.3,-.4,-.5,-.7,-.3c-.3,.1,-.5,.4,-.3,.7c.1,.3,.4,.4,.7,.3Z" class="g4_19"/>
<path d="M705,142.6c.1,0,.3,0,.4,-.1c.1,-.1,.2,-.3,.2,-.4c0,-.2,-.1,-.3,-.2,-.4c-.1,-.1,-.3,-.2,-.4,-.2c-.2,0,-.3,.1,-.4,.2c-.1,.1,-.2,.2,-.2,.4c0,.1,.1,.3,.2,.4c.1,.1,.2,.1,.4,.1m17.4,-6.5c.1,0,.3,0,.4,-.1c.1,-.1,.1,-.3,.1,-.4c0,-.2,0,-.3,-.1,-.4c-.1,-.1,-.3,-.2,-.4,-.2c-.2,0,-.3,.1,-.4,.2c-.1,.1,-.2,.2,-.2,.4c0,.1,.1,.3,.2,.4c.1,.1,.2,.1,.4,.1Z" class="g4_19"/>
<path d="M721.2,133.7v0c-.2,-.2,-.6,-.2,-.8,0c-.2,.2,-.2,.6,0,.8c.3,.2,.6,.2,.8,0c.3,-.2,.3,-.6,0,-.8m-1.5,-1.5v0c-.2,-.2,-.6,-.2,-.8,0c-.2,.2,-.2,.6,0,.8c.2,.2,.6,.2,.8,0c.2,-.2,.2,-.6,0,-.8m-1.6,-1.5v0c-.2,-.2,-.6,-.2,-.8,0c-.2,.2,-.2,.6,0,.8c.3,.2,.6,.2,.9,0c.2,-.2,.2,-.6,-.1,-.8m-1.5,-1.5v0c-.2,-.2,-.6,-.2,-.8,0c-.2,.2,-.2,.6,0,.8c.2,.2,.6,.2,.8,0c.2,-.2,.2,-.6,0,-.8m-1.5,-1.5v0c-.3,-.2,-.6,-.2,-.9,0c-.2,.3,-.2,.6,.1,.8c.2,.3,.5,.3,.8,0c.2,-.2,.2,-.6,0,-.8m-1.6,-1.5v0c-.2,-.2,-.6,-.2,-.8,0c-.2,.3,-.2,.6,0,.8c.2,.3,.6,.3,.8,0c.2,-.2,.2,-.6,0,-.8Z" class="g4_19"/>
<path d="M722.4,136.1c.1,0,.3,0,.4,-.1c.1,-.1,.1,-.3,.1,-.4c0,-.2,0,-.3,-.1,-.4c-.1,-.1,-.3,-.2,-.4,-.2c-.2,0,-.3,.1,-.4,.2c-.1,.1,-.2,.2,-.2,.4c0,.1,.1,.3,.2,.4c.1,.1,.2,.1,.4,.1M711.6,125.7c.1,0,.3,0,.4,-.1c.1,-.2,.1,-.3,.1,-.5c0,-.1,0,-.3,-.1,-.4c-.1,-.1,-.3,-.1,-.4,-.1c-.2,0,-.3,0,-.4,.1c-.1,.1,-.2,.3,-.2,.4c0,.2,.1,.3,.2,.5c.1,.1,.2,.1,.4,.1Z" class="g4_19"/>
<path d="M714,125.4v0c.3,-.1,.5,-.3,.5,-.7c-.1,-.3,-.4,-.5,-.7,-.4c-.3,0,-.5,.3,-.5,.6c.1,.3,.4,.5,.7,.5m2.3,-.3v0c.3,-.1,.6,-.4,.5,-.7c0,-.3,-.3,-.5,-.6,-.5c-.3,.1,-.6,.4,-.5,.7c0,.3,.3,.5,.6,.5m2.4,-.4v0c.3,0,.5,-.3,.5,-.6c-.1,-.3,-.4,-.5,-.7,-.5c-.3,0,-.5,.3,-.5,.6c.1,.4,.3,.6,.7,.5m2.3,-.3v0c.3,0,.5,-.3,.5,-.6c-.1,-.4,-.3,-.6,-.7,-.5c-.3,0,-.5,.3,-.4,.6c0,.3,.3,.6,.6,.5Z" class="g4_19"/>
<path d="M711.6,125.7c.1,0,.3,0,.4,-.1c.1,-.2,.1,-.3,.1,-.5c0,-.1,0,-.3,-.1,-.4c-.1,-.1,-.3,-.1,-.4,-.1c-.2,0,-.3,0,-.4,.1c-.1,.1,-.2,.3,-.2,.4c0,.2,.1,.3,.2,.5c.1,.1,.2,.1,.4,.1m11.7,-1.6c.1,0,.3,-.1,.4,-.2c.1,-.1,.1,-.2,.1,-.4c0,-.1,0,-.3,-.1,-.4c-.1,-.1,-.3,-.2,-.4,-.2c-.2,0,-.3,.1,-.4,.2c-.2,.1,-.2,.3,-.2,.4c0,.2,0,.3,.2,.4c.1,.1,.2,.2,.4,.2Z" class="g4_19"/>
<path d="M725.1,122.4v0c.2,-.2,.2,-.6,0,-.8c-.2,-.2,-.6,-.2,-.8,0c-.2,.2,-.2,.6,0,.8c.2,.2,.6,.2,.8,0m1.4,-1.5v0c.3,-.2,.3,-.6,0,-.8c-.2,-.2,-.6,-.2,-.8,0c-.2,.2,-.2,.6,0,.8c.3,.2,.6,.2,.8,0m1.5,-1.5v0c.2,-.3,.2,-.6,0,-.8c-.3,-.3,-.6,-.2,-.9,0c-.2,.2,-.2,.6,.1,.8c.2,.2,.6,.2,.8,0m1.4,-1.5v0c.2,-.3,.2,-.6,0,-.9c-.2,-.2,-.6,-.2,-.8,.1c-.2,.2,-.2,.6,0,.8c.2,.2,.6,.2,.8,0Z" class="g4_19"/>
<path d="M723.3,124.1c.1,0,.3,-.1,.4,-.2c.1,-.1,.1,-.2,.1,-.4c0,-.1,0,-.3,-.1,-.4c-.1,-.1,-.3,-.2,-.4,-.2c-.2,0,-.3,.1,-.4,.2c-.2,.1,-.2,.3,-.2,.4c0,.2,0,.3,.2,.4c.1,.1,.2,.2,.4,.2m7.1,-7.6c.2,0,.3,0,.4,-.1c.1,-.2,.2,-.3,.2,-.5c0,-.1,-.1,-.2,-.2,-.4c-.1,-.1,-.2,-.1,-.4,-.1c-.1,0,-.3,0,-.4,.1c-.1,.2,-.1,.3,-.1,.4c0,.2,0,.3,.1,.5c.1,.1,.3,.1,.4,.1Z" class="g4_19"/>
<path d="M710.3,130.5c2.8,0,5.1,-2.3,5.1,-5.1c0,-2.9,-2.3,-5.2,-5.1,-5.2c-2.9,0,-5.1,2.3,-5.1,5.2c0,2.8,2.2,5.1,5.1,5.1Z" class="g4_19"/>
<path d="M705,148.3c2.8,0,5.1,-2.3,5.1,-5.1c0,-2.9,-2.3,-5.2,-5.1,-5.2c-2.8,0,-5.1,2.3,-5.1,5.2c0,2.8,2.3,5.1,5.1,5.1Z" class="g4_19"/>
<path d="M731.7,119.8c2.9,0,5.1,-2.3,5.1,-5.1c0,-2.9,-2.2,-5.2,-5.1,-5.2c-2.8,0,-5.1,2.3,-5.1,5.2c0,2.8,2.3,5.1,5.1,5.1Z" class="g4_19"/>
<path d="M723.3,165.7c2.8,0,5.1,-2.3,5.1,-5.1c0,-2.9,-2.3,-5.2,-5.1,-5.2c-2.9,0,-5.2,2.3,-5.2,5.2c0,2.8,2.3,5.1,5.2,5.1Z" class="g4_19"/>
<path d="M723.7,140.7c2.8,0,5.1,-2.3,5.1,-5.1c0,-2.8,-2.3,-5.1,-5.1,-5.1c-2.9,0,-5.1,2.3,-5.1,5.1c0,2.8,2.2,5.1,5.1,5.1Z" class="g4_19"/>
<path d="M722.8,126.4c1.4,0,2.6,-1.1,2.6,-2.5c0,-1.4,-1.2,-2.6,-2.6,-2.6c-1.4,0,-2.5,1.2,-2.5,2.6c0,1.4,1.1,2.5,2.5,2.5Z" class="g4_19"/>
<image clip-path="url(#cx_19)" preserveAspectRatio="none" x="589" y="105" width="12" height="17" xlink:href="img/34.jpg"/>
<path d="M579.1,127.7h35v-1.6h-35Z" class="g4_19"/>
<path d="M620.8,130.5c2.1,0,3.8,-1.7,3.8,-3.8c0,-2.1,-1.7,-3.8,-3.8,-3.8c-2.1,0,-3.7,1.7,-3.7,3.8c0,2.1,1.6,3.8,3.7,3.8Z" class="g3_19"/>
<path d="M620.8,130.5v.5c2.4,0,4.3,-1.9,4.3,-4.3c0,-2.4,-1.9,-4.3,-4.3,-4.3c-2.4,0,-4.3,1.9,-4.3,4.3c0,2.4,1.9,4.3,4.3,4.3v-1.1c-1.8,0,-3.2,-1.4,-3.2,-3.2c0,-1.8,1.4,-3.2,3.2,-3.2c1.8,0,3.2,1.4,3.2,3.2c0,1.8,-1.4,3.2,-3.2,3.2Z" class="g4_19"/>
<path d="M741.6,153.2v0c.1,.3,.4,.4,.7,.3c.3,-.1,.5,-.4,.4,-.7c-.2,-.3,-.5,-.4,-.8,-.3c-.3,.1,-.4,.4,-.3,.7m.7,2v0c.1,.3,.4,.4,.7,.3c.3,-.1,.5,-.4,.4,-.7c-.1,-.3,-.5,-.5,-.8,-.4c-.3,.2,-.4,.5,-.3,.8m.7,2v0c.1,.3,.5,.4,.8,.3c.3,-.1,.4,-.4,.3,-.7c-.1,-.3,-.4,-.5,-.7,-.4c-.3,.1,-.5,.5,-.4,.8m.7,2v0c.2,.3,.5,.4,.8,.3c.3,-.1,.4,-.4,.3,-.7c-.1,-.3,-.4,-.5,-.7,-.4c-.3,.1,-.5,.5,-.4,.8m.8,1.9v0c.1,.3,.4,.5,.7,.4c.3,-.1,.5,-.5,.3,-.8c-.1,-.2,-.4,-.4,-.7,-.3c-.3,.1,-.4,.4,-.3,.7Z" class="g4_19"/>
<path d="M741.4,151.6c.1,0,.3,-.1,.4,-.2c.1,-.1,.2,-.2,.2,-.4c0,-.1,-.1,-.3,-.2,-.4c-.1,-.1,-.3,-.2,-.4,-.2c-.2,0,-.3,.1,-.4,.2c-.1,.1,-.2,.3,-.2,.4c0,.2,.1,.3,.2,.4c.1,.1,.2,.2,.4,.2m4.3,11.9c.2,0,.3,-.1,.4,-.2c.1,-.1,.2,-.2,.2,-.4c0,-.1,-.1,-.3,-.2,-.4c-.1,-.1,-.2,-.1,-.4,-.1c-.1,0,-.3,0,-.4,.1c-.1,.1,-.1,.3,-.1,.4c0,.2,0,.3,.1,.4c.1,.1,.3,.2,.4,.2Z" class="g4_19"/>
<path d="M745.6,169.7c4,0,7.3,-3.3,7.3,-7.4c0,-4,-3.3,-7.3,-7.3,-7.3c-4,0,-7.3,3.3,-7.3,7.3c0,4.1,3.3,7.4,7.3,7.4Z" class="g5_19"/>
<path d="M745.6,169.7v1.7c5,0,9.1,-4,9.1,-9.1c0,-5,-4.1,-9,-9.1,-9c-5,0,-9.1,4,-9.1,9c0,5.1,4.1,9.1,9.1,9.1v-3.5c-1.5,0,-2.9,-.6,-3.9,-1.6c-1,-1,-1.6,-2.4,-1.6,-4c0,-1.5,.6,-2.9,1.6,-3.9c1,-1,2.4,-1.6,3.9,-1.6c1.5,0,2.9,.6,3.9,1.6c1,1,1.6,2.4,1.6,3.9c0,1.6,-.6,3,-1.6,4c-1,1,-2.4,1.6,-3.9,1.6Z" class="g4_19"/>
<path clip-path="url(#cy_19)" d="M853.6,71.6c1.7,-10.2,11.2,-28.6,23.8,-47c-16.5,15.1,-33.9,27,-43.1,30.3c-3.3,1.2,-7.6,2.3,-7.4,6.4c.3,4.4,5.1,9.6,8,12.4c3.6,3.4,8.2,6,12.8,6c4.6,0,5.3,-4.2,5.9,-8.1M820.5,20.9c7.2,1.4,28.2,-4,48.9,-13.7c0,0,-12,3.2,-19.8,2.5c-4.8,-.5,-13.2,-.9,-23,-5.2c-10.2,-4.5,-13,1,-13.1,5.2c0,3.1,-.8,9.7,7,11.2m5.3,30.7c4.2,1.1,25.4,-13.3,46.9,-35.2c0,0,-19.2,8.4,-35.9,10c-9.6,.9,-17.5,-.3,-19.6,3.6c-4.8,9,1.4,19.6,8.6,21.6m54.9,33.3c3.5,-2.6,1.2,-10.3,.7,-19.9c-.8,-16.8,4.8,-37,4.8,-37C867.6,52.5,856.4,75.5,858.1,79.5c3,6.9,14.4,11.5,22.6,5.4m8.5,-4.6c2.6,7.6,9.1,5.8,12.1,5.3c4.1,-.6,9.2,-4.2,3.3,-13.7c-5.7,-9.1,-7.9,-17.2,-8.5,-22c-1,-8.4,-.4,-19.9,-.4,-19.9c-6.6,21.9,-8.9,43.4,-6.5,50.3Z" class="g0_19"/>
</svg>