<?xml version="1.0" encoding="UTF-8" standalone="no"?>
<!DOCTYPE svg PUBLIC "-//W3C//DTD SVG 1.1//EN"
"http://www.w3.org/Graphics/SVG/1.1/DTD/svg11.dtd">
<svg viewBox="0 0 909 1286" version="1.1" xmlns="http://www.w3.org/2000/svg" xmlns:xlink="http://www.w3.org/1999/xlink">
<defs>
<clipPath id="c0_12"><path d="M324.8,109.7V0H537.5V109.7Z"/></clipPath>
<clipPath id="c1_12"><path d="M537.2,109.7V0H750.3V43.3H737.2V57.1h13.1v52.6Z"/></clipPath>
<clipPath id="c2_12"><path d="M750,109.7V57.1H868.7V43.3H750V0H909.4V109.7Z"/></clipPath>
<clipPath id="c3_12"><path d="M324.8,219.5V109.4H537.5V219.5Z"/></clipPath>
<clipPath id="c4_12"><path d="M537.2,219.5V109.4H750.3V219.5Z"/></clipPath>
<clipPath id="c5_12"><path d="M750,219.5V109.4H909.4V219.5Z"/></clipPath>
<clipPath id="c6_12"><path d="M324.8,329V219.2H537.5v37.9H505.1V329Z"/></clipPath>
<clipPath id="c7_12"><path d="M866.8,274.4V257.1H537.2V219.2H909.4v55.2Z"/></clipPath>
<clipPath id="c8_12"><path d="M866.8,329V274.1h42.6V329Z"/></clipPath>
<clipPath id="c9_12"><path d="M737.2,57.1V43.3H868.7V57.1Z"/></clipPath>
<clipPath id="ca_12"><path d="M778.7,358.3v-5.1h87.4v-2.3h-11V329h11.7v29.3Z"/></clipPath>
<clipPath id="cb_12"><path d="M855.1,329V288.2c0,-3.9,-1.2,-7.5,-3.3,-10.5v-2.6h-2.2c-3.3,-3.3,-7.8,-5.3,-12.8,-5.3H794.4c-5,0,-9.5,2,-12.8,5.3h-2.5v3.1c-.2,.2,-.3,.4,-.4,.6V257.1h88.1V329Z"/></clipPath>
<clipPath id="cc_12"><path d="M779.1,278.2v-3.1h2.5c-1,.9,-1.8,1.9,-2.5,3.1Zm72.7,-.5c-.6,-.9,-1.4,-1.8,-2.2,-2.6h2.2v2.6Z"/></clipPath>
<clipPath id="cd_12"><path d="M690.6,358.3v-5.1h78.8v5.1ZM767,350.9V329h2.4v21.9Z"/></clipPath>
<clipPath id="ce_12"><path d="M767,329V288.2c0,-10.2,-8.2,-18.4,-18.3,-18.4H706.3c-6.7,0,-12.5,3.6,-15.7,9V257.1h78.8V329Z"/></clipPath>
<clipPath id="cf_12"><path d="M769.4,358.3v-5.1h9.3v5.1Zm0,-7.4V329h6.7v17H776v4.9Z"/></clipPath>
<clipPath id="cg_12"><path d="M769.4,329V257.1h9.3v21.7c-1.7,2.7,-2.6,5.9,-2.6,9.4V329Z"/></clipPath>
<clipPath id="ch_12"><path d="M776.1,346V288.2c0,-3.5,.9,-6.7,2.6,-9.4V346Z"/></clipPath>
<clipPath id="ci_12"><path d="M776,350.9V346h2.7v4.9Z"/></clipPath>
<clipPath id="cj_12"><path d="M505.1,350.9V329h88.1v21.9Z"/></clipPath>
<clipPath id="ck_12"><path d="M505.1,329V257.1h88.1V329Z"/></clipPath>
<clipPath id="cl_12"><path d="M505.1,358.3v-5.1h88.1v5.1Z"/></clipPath>
<clipPath id="cm_12"><path d="M505.1,353.2v-2.3h88.1v2.3Z"/></clipPath>
<clipPath id="cn_12"><path d="M602.5,350.9V329h78.8v21.9Z"/></clipPath>
<clipPath id="co_12"><path d="M602.5,329V257.1h78.8V329Z"/></clipPath>
<clipPath id="cp_12"><path d="M681.3,350.9V329H688v17h-.1v4.9Z"/></clipPath>
<clipPath id="cq_12"><path d="M681.3,329V257.1h9.3v21.7c-1.7,2.7,-2.6,5.9,-2.6,9.4V329Z"/></clipPath>
<clipPath id="cr_12"><path d="M602.5,358.3v-5.1h78.8v5.1Z"/></clipPath>
<clipPath id="cs_12"><path d="M681.3,358.3v-5.1h9.3v5.1Z"/></clipPath>
<clipPath id="ct_12"><path d="M688,346V288.2c0,-3.5,.9,-6.7,2.6,-9.4V346Z"/></clipPath>
<clipPath id="cu_12"><path d="M687.9,350.9V346h2.7v4.9Z"/></clipPath>
<clipPath id="cv_12"><path d="M602.5,353.2v-2.3h88.1v2.3Z"/></clipPath>
<clipPath id="cw_12"><path d="M593.2,350.9V329h9.3v21.9Z"/></clipPath>
<clipPath id="cx_12"><path d="M593.2,329V257.1h9.3V329Z"/></clipPath>
<clipPath id="cy_12"><path d="M593.2,358.3v-5.1h9.3v5.1Z"/></clipPath>
<clipPath id="cz_12"><path d="M593.2,353.2v-2.3h9.3v2.3Z"/></clipPath>
<style type="text/css"><![CDATA[
.g0_12{
fill: #E7E8E8;
}
.g1_12{
fill: #1B1661;
}
.g2_12{
fill: #DCDDDE;
}
.g3_12{
fill: #FFF;
}
.g4_12{
fill: #D1232A;
}
.g5_12{
fill: #FCB61D;
}
.g6_12{
fill: #FEE6BB;
}
.g7_12{
fill: #CFCBCA;
}
.g8_12{
fill: #5AC4C1;
}
.g9_12{
fill: #09B795;
}
.ga_12{
fill: #F37537;
}
.gb_12{
fill: #5180C1;
}
]]></style>
</defs>
<image clip-path="url(#c0_12)" preserveAspectRatio="none" x="324" y="0" width="213" height="110" xlink:href="img/1.jpg"/>
<image clip-path="url(#c1_12)" preserveAspectRatio="none" x="537" y="0" width="213" height="110" xlink:href="img/2.jpg"/>
<image clip-path="url(#c2_12)" preserveAspectRatio="none" x="750" y="0" width="160" height="110" xlink:href="img/3.jpg"/>
<image clip-path="url(#c3_12)" preserveAspectRatio="none" x="324" y="109" width="213" height="111" xlink:href="img/4.jpg"/>
<image clip-path="url(#c4_12)" preserveAspectRatio="none" x="537" y="109" width="213" height="111" xlink:href="img/5.jpg"/>
<image clip-path="url(#c5_12)" preserveAspectRatio="none" x="750" y="109" width="160" height="111" xlink:href="img/6.jpg"/>
<image clip-path="url(#c6_12)" preserveAspectRatio="none" x="324" y="219" width="213" height="110" xlink:href="img/7.jpg"/>
<image clip-path="url(#c7_12)" preserveAspectRatio="none" x="537" y="219" width="373" height="55" xlink:href="img/8.jpg"/>
<image clip-path="url(#c8_12)" preserveAspectRatio="none" x="856" y="274" width="54" height="55" xlink:href="img/9.jpg"/>
<path d="M43.3,1242.9H303.1V931.4H43.3v311.5Z" class="g0_12"/>
<path d="M43.3,931.4H303.1V959H43.3V931.4Z" class="g1_12"/>
<path d="M43.3,983.9H303.1V959H43.3v24.9Zm0,259H303.1v-34.1H43.3v34.1Z" class="g2_12"/>
<path d="M43.3,984.2H303.1v-.7H43.3v.7Z" class="g3_12"/>
<path d="M43.3,1209.2H303.1v-.7H43.3v.7Z" class="g3_12"/>
<path d="M62.4,943l-1,-.7c-.2,-.1,-.6,-.1,-.8,.2l-4.7,6.9l-2.1,-2.1c-.2,-.3,-.6,-.3,-.8,0l-.9,.8c-.2,.2,-.2,.6,0,.8l3.4,3.3c.1,.2,.4,.4,.7,.4c.3,0,.5,-.2,.7,-.5l5.7,-8.3c.1,-.3,.1,-.6,-.2,-.8Z" class="g3_12"/>
<image clip-path="url(#c9_12)" preserveAspectRatio="none" x="737" y="43" width="132" height="14" xlink:href="img/10.jpg"/>
<path d="M607.1,936.2h-.8v305.6H866.1V935.4H606.3v.8h.8v.8H864.6v303.3H607.8V936.2h-.7v.8Z" class="g1_12"/>
<path d="M651.3,941.2H821.1V927.4H651.3Z" class="g3_12"/>
<path d="M324.8,1242.9H584.6V1070.6H324.8v172.3Z" class="g0_12"/>
<path d="M324.8,1070.6H584.6v26.3H324.8v-26.3Z" class="g1_12"/>
<path d="M324.8,1135.9H511.6V1175H324.8v-39.1Zm186.8,0h73V1175h-73v-39.1ZM324.8,1198H511.6v23H324.8v-23Zm186.8,0h73v23h-73v-23Z" class="g2_12"/>
<path d="M324.8,1221.8H511.6v-1.5H324.8Z" class="g3_12"/>
<path d="M511.6,1221.8h73v-1.5h-73Z" class="g3_12"/>
<path d="M343.9,1080.8l-1,-.7c-.2,-.1,-.6,-.1,-.8,.2l-4.7,6.9l-2.1,-2.1c-.3,-.3,-.6,-.3,-.8,0l-.9,.8c-.2,.2,-.2,.6,0,.8l3.4,3.3c.1,.2,.4,.4,.7,.4c.3,0,.5,-.2,.7,-.5l5.7,-8.3c.1,-.3,.1,-.6,-.2,-.8Z" class="g3_12"/>
<path d="M607.1,368.9h-.8v34.7H866.1V368.1H606.3v.8h.8v.7H864.6v32.5H607.8V368.9h-.7v.7Z" class="g4_12"/>
<path d="M628.4,394.9c-5.4,-.1,-9.7,-4.4,-9.7,-9.7c.1,-5.4,4.4,-9.7,9.7,-9.7c5.3,.1,9.7,4.4,9.6,9.7c0,5.4,-4.3,9.7,-9.6,9.7m0,-1.4c4.5,0,8.3,-3.7,8.3,-8.3c0,-4.5,-3.8,-8.3,-8.3,-8.3c-4.6,0,-8.3,3.7,-8.3,8.3c0,4.5,3.7,8.3,8.3,8.3Z" class="g4_12"/>
<path d="M615.1,380.7c.4,.1,.5,0,.5,-.4c0,-1.2,0,-2.5,0,-3.7c0,-.2,0,-.4,.1,-.6c.1,-.2,.4,-.5,.6,-.5c.2,0,.5,.3,.7,.5c.1,.2,0,.4,0,.6c0,1.4,0,2.7,0,4.1h.5c0,-.9,0,-1.8,0,-2.7c-.1,-.6,-.1,-1.2,-.1,-1.8c0,-.5,.2,-.7,.6,-.7c.5,-.1,.7,.2,.8,.6c0,1.9,.1,3.7,.2,5.5c0,.8,-.4,1.5,-1.1,1.9c-.3,.2,-.4,.5,-.4,.9c.1,3.4,.1,6.9,.1,10.4c0,.6,-.2,1.1,-.7,1.3c-.5,.3,-1.1,.2,-1.4,-.2c-.3,-.3,-.4,-.8,-.4,-1.1c-.1,-2.4,0,-4.7,0,-7c0,-1.2,.1,-2.4,0,-3.6c0,-.2,-.1,-.5,-.3,-.6c-.8,-.6,-1.2,-1.4,-1.1,-2.3c0,-1.7,.1,-3.4,.2,-5c0,-.5,.2,-.8,.7,-.8c.4,-.1,.7,.3,.7,.8c-.1,1.3,-.1,2.5,-.2,3.8c0,.2,0,.4,0,.6m2.2,1.5h-2c.7,.6,1.3,.6,2,0Z" class="g4_12"/>
<path d="M638.8,386c0,-2.9,0,-5.8,0,-8.7c0,-.7,.2,-1.2,.8,-1.6c.9,-.6,2.2,-.1,2.4,1c.5,2.3,.8,4.6,.6,6.9c-.1,1.1,-.3,2.2,-.5,3.3c-.1,.3,-.1,.5,-.1,.8c0,2.3,0,4.7,0,7.1c0,1,-.6,1.5,-1.6,1.5c-1,0,-1.5,-.6,-1.6,-1.5c0,-.2,0,-.3,0,-.5c0,-2.8,0,-5.5,0,-8.3m1.4,.4q.6,.1,.7,-.4c.4,-2.3,.5,-4.7,.1,-7c-.1,-.6,-.2,-1.2,-.3,-1.7l-.3,-.4l-.2,.4v.3c0,2.7,0,5.5,0,8.2Z" class="g4_12"/>
<path d="M628.4,378.4v.8c3.3,0,6,2.7,6,6c0,3.3,-2.7,6,-6,6c-1.7,0,-3.2,-.7,-4.3,-1.8c-1.1,-1,-1.7,-2.5,-1.7,-4.2c0,-3.3,2.7,-6,6,-6v-1.5c-4.2,0,-7.6,3.4,-7.6,7.5c0,4.2,3.4,7.5,7.6,7.5c4.2,0,7.5,-3.4,7.5,-7.5c0,-4.2,-3.4,-7.5,-7.5,-7.5Z" class="g4_12"/>
<path d="M303.1,296.3V275.9h-.7v20.4Z" class="g3_12"/>
<path d="M303.1,321.2V296.3h-.7v24.9Z" class="g3_12"/>
<path d="M173.6,341.1V321.2h-.8v19.9Z" class="g3_12"/>
<path d="M238.4,341.1V321.2h-.8v19.9Z" class="g3_12"/>
<path d="M303.1,341.1V321.2h-.7v19.9Z" class="g3_12"/>
<path d="M173.6,361.1v-20h-.8v20Z" class="g3_12"/>
<path d="M238.4,361.1v-20h-.8v20Z" class="g3_12"/>
<path d="M303.1,361.1v-20h-.7v20Z" class="g3_12"/>
<path d="M173.6,381.1v-20h-.8v20Z" class="g3_12"/>
<path d="M238.4,381.1v-20h-.8v20Z" class="g3_12"/>
<path d="M303.1,381.1v-20h-.7v20Z" class="g3_12"/>
<path d="M173.6,401V381.1h-.8V401Z" class="g3_12"/>
<path d="M238.4,401V381.1h-.8V401Z" class="g3_12"/>
<path d="M303.1,401V381.1h-.7V401Z" class="g3_12"/>
<path d="M173.6,421V401h-.8v20Z" class="g3_12"/>
<path d="M238.4,421V401h-.8v20Z" class="g3_12"/>
<path d="M303.1,421V401h-.7v20Z" class="g3_12"/>
<path d="M173.6,441V421h-.8v20Z" class="g3_12"/>
<path d="M238.4,441V421h-.8v20Z" class="g3_12"/>
<path d="M303.1,441V421h-.7v20Z" class="g3_12"/>
<path d="M173.6,460.9V441h-.8v19.9Z" class="g3_12"/>
<path d="M238.4,460.9V441h-.8v19.9Z" class="g3_12"/>
<path d="M303.1,460.9V441h-.7v19.9Z" class="g3_12"/>
<path d="M173.6,480.9v-20h-.8v20Z" class="g3_12"/>
<path d="M238.4,480.9v-20h-.8v20Z" class="g3_12"/>
<path d="M303.1,480.9v-20h-.7v20Z" class="g3_12"/>
<path d="M173.6,500.9v-20h-.8v20Z" class="g3_12"/>
<path d="M238.4,500.9v-20h-.8v20Z" class="g3_12"/>
<path d="M303.1,500.9v-20h-.7v20Z" class="g3_12"/>
<path d="M173.6,520.8V500.9h-.8v19.9Z" class="g3_12"/>
<path d="M238.4,520.8V500.9h-.8v19.9Z" class="g3_12"/>
<path d="M303.1,520.8V500.9h-.7v19.9Z" class="g3_12"/>
<path d="M173.6,540.8v-20h-.8v20Z" class="g3_12"/>
<path d="M238.4,540.8v-20h-.8v20Z" class="g3_12"/>
<path d="M303.1,540.8v-20h-.7v20Z" class="g3_12"/>
<path d="M173.6,560.8v-20h-.8v20Z" class="g3_12"/>
<path d="M238.4,560.8v-20h-.8v20Z" class="g3_12"/>
<path d="M303.1,560.8v-20h-.7v20Z" class="g3_12"/>
<path d="M173.6,580.7V560.8h-.8v19.9Z" class="g3_12"/>
<path d="M238.4,580.7V560.8h-.8v19.9Z" class="g3_12"/>
<path d="M303.1,580.7V560.8h-.7v19.9Z" class="g3_12"/>
<path d="M78,297.1h95.2v-1.5H78Z" class="g5_12"/>
<path d="M173.2,297.1H238v-1.5H173.2Z" class="g5_12"/>
<path d="M238,297.1h64.4v-1.5H238Z" class="g5_12"/>
<path d="M61.2,314.9C71,314.9,79,306.9,79,297c0,-9.8,-8,-17.8,-17.8,-17.8c-9.9,0,-17.9,8,-17.9,17.8c0,9.9,8,17.9,17.9,17.9Z" class="g5_12"/>
<path d="M71.6,298.8c0,.7,.2,1.5,.2,2.2c0,2,-1,3.5,-2.7,4.6c-1.3,.9,-2.8,1.3,-4.3,1.3c-2.4,.1,-4.8,.1,-7.2,0c-1.7,0,-3.2,-.4,-4.5,-1.3c-2,-1.4,-2.8,-3.3,-2.5,-5.7c.2,-1.9,.3,-3.9,.4,-5.8c0,-1.8,0,-3.7,-.1,-5.5c0,-2.1,.9,-3.7,2.5,-4.9c1.5,-1.1,3.2,-1.6,5,-1.6c1.9,0,3.8,0,5.7,0c1.6,0,3.2,.5,4.6,1.4c1.9,1.4,2.9,3.2,2.7,5.6c-.1,1.2,0,2.4,0,3.6c-.1,0,.1,4.1,.2,6.1M61.2,283.3v0c-1,0,-1.9,-.1,-2.9,0c-1.3,0,-2.5,.3,-3.6,1c-1.6,.9,-2.7,2.2,-2.6,4.1c.1,.9,.3,1.7,.6,2.6c.4,1.3,1.1,2.5,2.2,3.5c.2,.2,.2,.5,-.1,.8c-.6,.7,-1.3,1.3,-2.1,1.5c-.6,.2,-.7,.5,-.7,1.1c-.1,.4,.1,.8,.4,1.1c.8,.8,1.7,1.4,2.7,1.8c1.8,.8,3.7,1,5.6,1.1c2,0,4.1,-.2,6,-.9c1.4,-.4,2.6,-1.1,3.5,-2.3c0,-.1,.1,-.2,.1,-.4c0,-.3,0,-.7,0,-1l-.2,-.3c-1.1,-.3,-1.9,-.9,-2.6,-1.7c-.3,-.3,-.3,-.6,0,-.9c.4,-.5,.9,-.9,1.2,-1.5c.8,-1.2,1.2,-2.6,1.4,-4c.2,-1.1,0,-2.2,-.7,-3.1c-1.2,-1.5,-2.8,-2.3,-4.7,-2.5c-1.1,-.1,-2.3,0,-3.5,0m-9.4,16.5c-.3,1.6,0,3.1,1.3,4.2c1.3,1.2,2.8,1.7,4.6,1.7c2.3,.1,4.6,0,6.9,0c.8,0,1.6,-.1,2.4,-.3c1.4,-.5,2.5,-1.3,3.2,-2.7c.5,-.9,.5,-1.9,.3,-2.9h-.1c-1.1,1.4,-2.6,2.2,-4.3,2.7c-2.9,.7,-5.7,.7,-8.6,.3c-1.4,-.3,-2.8,-.7,-3.9,-1.5c-.7,-.4,-1.2,-1,-1.8,-1.5Z" class="g6_12"/>
<path d="M55.8,307.3c-.5,.4,-1,.8,-1.5,1.2c-.5,.4,-1.7,1.4,-2.2,1.8c-.3,.2,-.6,.2,-.8,.1l-.3,-.3c-.1,-.3,0,-.5,.2,-.7c.3,-.2,1.4,-1.1,1.7,-1.4c.4,-.3,.9,-.6,1.3,-.9l.4,-.1c.4,.1,.8,.2,1.2,.3Z" class="g6_12"/>
<path d="M66.5,307.3c.5,-.1,.9,-.2,1.3,-.3l.3,.1c.7,.5,2.3,1.7,3,2.3c.1,.1,.3,.2,.3,.4c.1,.2,.1,.5,-.2,.6c-.2,0,-.5,.1,-.7,0c-1.1,-.8,-2.9,-2.2,-4,-3.1Z" class="g6_12"/>
<path d="M61.1,294c-1.1,0,-2.1,0,-3.2,0c-2,-.2,-3.5,-1.6,-3.9,-3.5c-.1,-.5,-.2,-1,-.3,-1.5c-.3,-1.9,1,-3.6,3,-3.6c3,0,6,0,9,0c1.8,0,3.1,1.5,2.9,3.3c-.1,1.1,-.2,2.2,-.8,3.1c-.9,1.4,-2.2,2.2,-3.9,2.2c-.9,0,-1.8,0,-2.8,0Z" class="g6_12"/>
<path d="M65.7,296.7c.3,0,.5,0,.8,0c.4,0,.7,.3,.6,.6c-.5,.9,-1,1.7,-1.5,2.6c-.1,.1,-.3,.2,-.6,.2c-.5,0,-1.1,0,-1.6,0c-.5,0,-.7,-.3,-.5,-.6c.4,-.8,.9,-1.7,1.4,-2.5c.1,-.2,.3,-.3,.7,-.3c.2,0,.5,0,.7,0Z" class="g6_12"/>
<path d="M58.1,300.1c-.2,0,-.5,0,-.7,0c-.3,.1,-.6,-.1,-.7,-.3c-.5,-.8,-.9,-1.6,-1.4,-2.4c-.2,-.4,0,-.7,.6,-.7c.5,0,1,0,1.5,0c.3,0,.5,.1,.6,.3c.5,.8,1,1.7,1.5,2.5c.2,.3,-.1,.6,-.6,.6c-.2,0,-.5,0,-.8,0Z" class="g6_12"/>
<path d="M62.2,304.5c0,.5,-.5,1,-1,1c-.6,0,-1.1,-.4,-1.1,-1c0,-.6,.5,-1.1,1,-1.1c.6,0,1.1,.5,1.1,1.1Z" class="g6_12"/>
<path d="M43.3,900H303.1v-1.5H43.3Z" class="g7_12"/>
<path d="M303.1,609.8V589.4h-.7v20.4Z" class="g3_12"/>
<path d="M303.1,634.6V609.8h-.7v24.8Z" class="g3_12"/>
<path d="M173.6,654.6v-20h-.8v20Z" class="g3_12"/>
<path d="M238.4,654.6v-20h-.8v20Z" class="g3_12"/>
<path d="M303.1,654.6v-20h-.7v20Z" class="g3_12"/>
<path d="M173.6,674.5V654.6h-.8v19.9Z" class="g3_12"/>
<path d="M238.4,674.5V654.6h-.8v19.9Z" class="g3_12"/>
<path d="M303.1,674.5V654.6h-.7v19.9Z" class="g3_12"/>
<path d="M173.6,694.5v-20h-.8v20Z" class="g3_12"/>
<path d="M238.4,694.5v-20h-.8v20Z" class="g3_12"/>
<path d="M303.1,694.5v-20h-.7v20Z" class="g3_12"/>
<path d="M173.6,714.5v-20h-.8v20Z" class="g3_12"/>
<path d="M238.4,714.5v-20h-.8v20Z" class="g3_12"/>
<path d="M303.1,714.5v-20h-.7v20Z" class="g3_12"/>
<path d="M173.6,734.4V714.5h-.8v19.9Z" class="g3_12"/>
<path d="M238.4,734.4V714.5h-.8v19.9Z" class="g3_12"/>
<path d="M303.1,734.4V714.5h-.7v19.9Z" class="g3_12"/>
<path d="M173.6,754.4v-20h-.8v20Z" class="g3_12"/>
<path d="M238.4,754.4v-20h-.8v20Z" class="g3_12"/>
<path d="M303.1,754.4v-20h-.7v20Z" class="g3_12"/>
<path d="M173.6,774.4v-20h-.8v20Z" class="g3_12"/>
<path d="M238.4,774.4v-20h-.8v20Z" class="g3_12"/>
<path d="M303.1,774.4v-20h-.7v20Z" class="g3_12"/>
<path d="M173.6,794.3V774.4h-.8v19.9Z" class="g3_12"/>
<path d="M238.4,794.3V774.4h-.8v19.9Z" class="g3_12"/>
<path d="M303.1,794.3V774.4h-.7v19.9Z" class="g3_12"/>
<path d="M173.6,814.3v-20h-.8v20Z" class="g3_12"/>
<path d="M238.4,814.3v-20h-.8v20Z" class="g3_12"/>
<path d="M303.1,814.3v-20h-.7v20Z" class="g3_12"/>
<path d="M173.6,834.3v-20h-.8v20Z" class="g3_12"/>
<path d="M238.4,834.3v-20h-.8v20Z" class="g3_12"/>
<path d="M303.1,834.3v-20h-.7v20Z" class="g3_12"/>
<path d="M173.6,854.2V834.3h-.8v19.9Z" class="g3_12"/>
<path d="M238.4,854.2V834.3h-.8v19.9Z" class="g3_12"/>
<path d="M303.1,854.2V834.3h-.7v19.9Z" class="g3_12"/>
<path d="M173.6,874.2v-20h-.8v20Z" class="g3_12"/>
<path d="M238.4,874.2v-20h-.8v20Z" class="g3_12"/>
<path d="M303.1,874.2v-20h-.7v20Z" class="g3_12"/>
<path d="M173.6,894.2v-20h-.8v20Z" class="g3_12"/>
<path d="M238.4,894.2v-20h-.8v20Z" class="g3_12"/>
<path d="M303.1,894.2v-20h-.7v20Z" class="g3_12"/>
<path d="M78,610.5h95.2V609H78Z" class="g5_12"/>
<path d="M173.2,610.5H238V609H173.2Z" class="g5_12"/>
<path d="M238,610.5h64.4V609H238Z" class="g5_12"/>
<path d="M61.2,628.3c9.8,0,17.8,-8,17.8,-17.8c0,-9.9,-8,-17.9,-17.8,-17.9c-9.9,0,-17.9,8,-17.9,17.9c0,9.8,8,17.8,17.9,17.8Z" class="g5_12"/>
<path d="M71.6,612.3c0,.7,.2,1.4,.2,2.1c0,2.1,-1,3.6,-2.7,4.7c-1.3,.9,-2.8,1.3,-4.3,1.3c-2.4,0,-4.8,0,-7.2,0c-1.7,0,-3.2,-.4,-4.5,-1.4c-2,-1.4,-2.8,-3.2,-2.5,-5.6c.2,-2,.3,-3.9,.4,-5.9c0,-1.8,0,-3.6,-.1,-5.4c0,-2.1,.9,-3.8,2.5,-5c1.5,-1.1,3.2,-1.5,5,-1.6c1.9,0,3.8,0,5.7,0c1.6,.1,3.2,.5,4.6,1.5c1.9,1.3,2.9,3.2,2.7,5.6c-.1,1.2,0,2.4,0,3.6c-.1,0,.1,4,.2,6.1M61.2,596.8v-.1c-1,0,-1.9,0,-2.9,0c-1.3,0,-2.5,.3,-3.6,1c-1.6,1,-2.7,2.3,-2.6,4.2c.1,.8,.3,1.7,.6,2.5c.4,1.3,1.1,2.6,2.2,3.5c.2,.3,.2,.6,-.1,.9c-.6,.6,-1.3,1.2,-2.1,1.5c-.6,.2,-.7,.5,-.7,1c-.1,.5,.1,.9,.4,1.2c.8,.8,1.7,1.4,2.7,1.8c1.8,.7,3.7,1,5.6,1c2,.1,4.1,-.1,6,-.8c1.4,-.5,2.6,-1.2,3.5,-2.3c0,-.1,.1,-.3,.1,-.4c0,-.4,0,-.7,0,-1.1l-.2,-.2c-1.1,-.4,-1.9,-1,-2.6,-1.7c-.3,-.3,-.3,-.6,0,-1c.4,-.4,.9,-.9,1.2,-1.4c.8,-1.2,1.2,-2.6,1.4,-4c.2,-1.2,0,-2.2,-.7,-3.2c-1.2,-1.5,-2.8,-2.2,-4.7,-2.4c-1.1,-.1,-2.3,0,-3.5,0m-9.4,16.5c-.3,1.6,0,3,1.3,4.2c1.3,1.2,2.8,1.7,4.6,1.7c2.3,0,4.6,0,6.9,0c.8,0,1.6,-.1,2.4,-.4c1.4,-.5,2.5,-1.2,3.2,-2.6c.5,-1,.5,-1.9,.3,-3l-.1,.1c-1.1,1.4,-2.6,2.2,-4.3,2.6c-2.9,.8,-5.7,.8,-8.6,.3c-1.4,-.2,-2.8,-.7,-3.9,-1.5c-.7,-.4,-1.2,-.9,-1.8,-1.4Z" class="g6_12"/>
<path d="M55.8,620.8c-.5,.4,-1,.8,-1.5,1.1c-.5,.4,-1.7,1.4,-2.2,1.8c-.3,.2,-.6,.2,-.8,.2l-.3,-.4c-.1,-.2,0,-.5,.2,-.6c.3,-.3,1.4,-1.2,1.7,-1.4c.4,-.3,.9,-.7,1.3,-1l.4,-.1c.4,.1,.8,.3,1.2,.4Z" class="g6_12"/>
<path d="M66.5,620.8c.5,-.2,.9,-.3,1.3,-.4l.3,.1c.7,.6,2.3,1.8,3,2.3c.1,.1,.3,.3,.3,.4c.1,.2,.1,.5,-.2,.6c-.2,.1,-.5,.1,-.7,0c-1.1,-.7,-2.9,-2.2,-4,-3Z" class="g6_12"/>
<path d="M61.1,607.4c-1.1,0,-2.1,.1,-3.2,0c-2,-.1,-3.5,-1.6,-3.9,-3.5c-.1,-.5,-.2,-1,-.3,-1.5c-.3,-1.9,1,-3.5,3,-3.5c3,-.1,6,-.1,9,0c1.8,0,3.1,1.4,2.9,3.3c-.1,1,-.2,2.1,-.8,3.1c-.9,1.4,-2.2,2.2,-3.9,2.2c-.9,-.1,-1.8,0,-2.8,0Z" class="g6_12"/>
<path d="M65.7,610.1c.3,0,.5,0,.8,0c.4,0,.7,.3,.6,.7c-.5,.8,-1,1.7,-1.5,2.5c-.1,.2,-.3,.3,-.6,.3c-.5,0,-1.1,0,-1.6,0c-.5,0,-.7,-.3,-.5,-.7c.4,-.8,.9,-1.6,1.4,-2.5c.1,-.2,.3,-.3,.7,-.3c.2,0,.5,0,.7,0Z" class="g6_12"/>
<path d="M58.1,613.6c-.2,0,-.5,0,-.7,0c-.3,0,-.6,-.1,-.7,-.3c-.5,-.9,-.9,-1.7,-1.4,-2.5c-.2,-.4,0,-.7,.6,-.7c.5,0,1,0,1.5,0c.3,0,.5,.1,.6,.4c.5,.8,1,1.6,1.5,2.4c.2,.4,-.1,.7,-.6,.7c-.2,0,-.5,0,-.8,0Z" class="g6_12"/>
<path d="M62.2,617.9c0,.6,-.5,1.1,-1,1.1c-.6,0,-1.1,-.5,-1.1,-1.1c0,-.5,.5,-1,1,-1c.6,0,1.1,.5,1.1,1Z" class="g6_12"/>
<path d="M246.4,280.1V234.9h-3.1v45.2Z" class="g3_12"/>
<path d="M303.1,280.1V234.9h-3v45.2Z" class="g3_12"/>
<path d="M43.5,181.4H78.1v40.5H43.5V181.4Z" class="g3_12"/>
<image x="78" y="181" width="225" height="41" xlink:href="shade/1.png"/>
<path d="M78.1,202.6H303V201H78.1Z" class="g5_12"/>
<path d="M61.3,220.4c9.9,0,17.9,-8,17.9,-17.9c0,-9.9,-8,-17.8,-17.9,-17.8c-9.8,0,-17.8,7.9,-17.8,17.8c0,9.9,8,17.9,17.8,17.9Z" class="g5_12"/>
<path d="M71.8,204.3c0,.7,.2,1.4,.2,2.2c0,2,-1,3.5,-2.7,4.6c-1.3,.9,-2.8,1.3,-4.3,1.3c-2.4,0,-4.8,0,-7.2,0c-1.7,0,-3.2,-.4,-4.5,-1.4c-2,-1.3,-2.8,-3.2,-2.5,-5.6c.2,-1.9,.3,-3.9,.3,-5.8c.1,-1.9,0,-3.7,0,-5.5c0,-2.1,.9,-3.7,2.5,-5c1.5,-1,3.1,-1.5,4.9,-1.5c1.9,-.1,3.8,-.1,5.8,0c1.6,0,3.2,.4,4.6,1.4c1.9,1.3,2.8,3.2,2.7,5.6c-.1,1.2,0,2.4,0,3.6c-.1,0,.1,4.1,.2,6.1M61.4,188.8v-.1c-1,0,-1.9,0,-2.9,0c-1.3,.1,-2.5,.4,-3.6,1.1c-1.6,.9,-2.7,2.2,-2.6,4.1c.1,.9,.3,1.7,.6,2.5c.4,1.4,1,2.6,2.1,3.6c.3,.2,.3,.5,0,.8c-.6,.7,-1.3,1.3,-2.1,1.5c-.6,.2,-.7,.5,-.7,1c-.1,.5,.1,.9,.4,1.2c.7,.8,1.7,1.4,2.7,1.8c1.8,.8,3.7,1,5.6,1.1c2,0,4.1,-.2,6,-.9c1.4,-.5,2.6,-1.1,3.4,-2.3c.1,-.1,.2,-.3,.2,-.4c0,-.4,0,-.7,0,-1l-.3,-.3c-1,-.3,-1.8,-.9,-2.5,-1.7c-.3,-.3,-.3,-.6,0,-.9c.4,-.5,.9,-1,1.2,-1.5c.8,-1.2,1.2,-2.6,1.4,-4c.2,-1.1,-.1,-2.2,-.8,-3.1c-1.1,-1.6,-2.7,-2.3,-4.6,-2.5c-1.2,-.1,-2.3,0,-3.5,0M52,205.3c-.3,1.6,0,3.1,1.3,4.2c1.3,1.2,2.8,1.7,4.5,1.7c2.4,0,4.7,0,7,0c.8,0,1.6,-.1,2.3,-.4c1.4,-.4,2.6,-1.2,3.3,-2.6c.5,-.9,.5,-1.9,.3,-2.9h-.1c-1.1,1.4,-2.6,2.2,-4.3,2.6c-2.9,.8,-5.7,.8,-8.6,.3c-1.4,-.2,-2.8,-.6,-4,-1.4c-.6,-.5,-1.1,-1,-1.7,-1.5Z" class="g6_12"/>
<path d="M56,212.8c-.5,.4,-1,.8,-1.5,1.2c-.5,.3,-1.8,1.3,-2.3,1.8c-.2,.2,-.5,.1,-.7,.1l-.3,-.4c-.1,-.2,0,-.4,.2,-.6c.3,-.2,1.4,-1.1,1.7,-1.4c.4,-.3,.9,-.6,1.3,-.9l.4,-.1c.4,.1,.8,.2,1.2,.3Z" class="g6_12"/>
<path d="M66.7,212.8c.5,-.1,.9,-.3,1.3,-.4l.3,.1c.7,.6,2.3,1.8,3,2.4c.1,.1,.3,.2,.3,.3c.1,.3,.1,.5,-.2,.6c-.2,.1,-.5,.2,-.7,.1c-1.1,-.8,-2.9,-2.2,-4,-3.1Z" class="g6_12"/>
<path d="M61.3,199.5c-1.1,0,-2.1,0,-3.2,-.1c-2,-.1,-3.5,-1.5,-3.9,-3.5c-.1,-.5,-.2,-.9,-.3,-1.4c-.4,-2,1,-3.6,3,-3.6c2.9,0,5.9,0,8.9,0c1.9,0,3.2,1.5,3,3.3c-.1,1.1,-.3,2.2,-.8,3.1c-.9,1.4,-2.2,2.2,-3.9,2.2c-.9,0,-1.9,0,-2.8,0Z" class="g6_12"/>
<path d="M65.9,202.2c.2,0,.5,0,.8,0c.4,0,.7,.3,.5,.6c-.4,.8,-.9,1.7,-1.4,2.5c-.1,.2,-.3,.3,-.6,.3c-.5,0,-1.1,0,-1.6,0c-.5,0,-.7,-.3,-.6,-.6c.5,-.9,1,-1.7,1.5,-2.5c.1,-.2,.3,-.3,.6,-.3c.3,0,.5,0,.8,0Z" class="g6_12"/>
<path d="M58.3,205.6c-.2,0,-.5,0,-.7,0c-.4,0,-.6,-.1,-.7,-.3c-.5,-.8,-1,-1.6,-1.4,-2.5c-.2,-.3,0,-.6,.6,-.6c.5,0,1,0,1.5,0c.3,0,.5,.1,.6,.3c.5,.8,1,1.6,1.5,2.5c.2,.3,-.1,.6,-.6,.6c-.2,0,-.5,0,-.8,0Z" class="g6_12"/>
<path d="M62.4,210c0,.5,-.5,1,-1,1c-.6,0,-1.1,-.5,-1.1,-1c0,-.6,.5,-1.1,1,-1.1c.6,0,1.1,.5,1.1,1.1Z" class="g6_12"/>
<image clip-path="url(#ca_12)" preserveAspectRatio="none" x="769" y="329" width="98" height="30" xlink:href="img/11.jpg"/>
<image clip-path="url(#cb_12)" preserveAspectRatio="none" x="778" y="257" width="89" height="72" xlink:href="img/12.jpg"/>
<image clip-path="url(#cc_12)" preserveAspectRatio="none" x="779" y="275" width="73" height="3" xlink:href="img/13.jpg"/>
<path d="M794.4,269.8c-10.1,0,-18.3,8.2,-18.3,18.4v64.1h79V288.2c0,-10.2,-8.2,-18.4,-18.3,-18.4Z" class="g3_12"/>
<path d="M776,353.2h79.1V346H776v7.2Z" class="g8_12"/>
<path d="M781.4,328.3h2.4c.2,0,.3,-.2,.3,-.4c0,-.2,-.1,-.4,-.3,-.4h-2.4c-.2,0,-.3,.2,-.3,.4c0,.2,.1,.4,.3,.4m3.9,0h2.3c.3,0,.4,-.2,.4,-.4c0,-.2,-.1,-.4,-.4,-.4h-2.3c-.2,0,-.4,.2,-.4,.4c0,.2,.2,.4,.4,.4m3.9,0h2.3c.2,0,.4,-.2,.4,-.4c0,-.2,-.2,-.4,-.4,-.4h-2.3c-.2,0,-.4,.2,-.4,.4c0,.2,.2,.4,.4,.4m3.9,0h2.3c.2,0,.4,-.2,.4,-.4c0,-.2,-.2,-.4,-.4,-.4h-2.3c-.2,0,-.4,.2,-.4,.4c0,.2,.2,.4,.4,.4m3.9,0h2.3c.2,0,.4,-.2,.4,-.4c0,-.2,-.2,-.4,-.4,-.4H797c-.2,0,-.4,.2,-.4,.4c0,.2,.2,.4,.4,.4m3.8,0h2.4c.2,0,.4,-.2,.4,-.4c0,-.2,-.2,-.4,-.4,-.4h-2.4c-.2,0,-.3,.2,-.3,.4c0,.2,.1,.4,.3,.4m3.9,0h2.4c.2,0,.3,-.2,.3,-.4c0,-.2,-.1,-.4,-.3,-.4h-2.4c-.2,0,-.4,.2,-.4,.4c0,.2,.2,.4,.4,.4m3.9,0h2.3c.2,0,.4,-.2,.4,-.4c0,-.2,-.2,-.4,-.4,-.4h-2.3c-.2,0,-.4,.2,-.4,.4c0,.2,.2,.4,.4,.4m3.9,0h2.3c.2,0,.4,-.2,.4,-.4c0,-.2,-.2,-.4,-.4,-.4h-2.3c-.2,0,-.4,.2,-.4,.4c0,.2,.2,.4,.4,.4m3.9,0h2.3c.2,0,.4,-.2,.4,-.4c0,-.2,-.2,-.4,-.4,-.4h-2.3c-.2,0,-.4,.2,-.4,.4c0,.2,.2,.4,.4,.4m3.9,0h2.3c.2,0,.4,-.2,.4,-.4c0,-.2,-.2,-.4,-.4,-.4h-2.3c-.3,0,-.4,.2,-.4,.4c0,.2,.1,.4,.4,.4m3.8,0h2.4c.2,0,.3,-.2,.3,-.4c0,-.2,-.1,-.4,-.3,-.4h-2.4c-.2,0,-.3,.2,-.3,.4c0,.2,.1,.4,.3,.4m3.9,0h2.3c.3,0,.4,-.2,.4,-.4c0,-.2,-.1,-.4,-.4,-.4H828c-.2,0,-.4,.2,-.4,.4c0,.2,.2,.4,.4,.4m3.9,0h2.3c.2,0,.4,-.2,.4,-.4c0,-.2,-.2,-.4,-.4,-.4h-2.3c-.2,0,-.4,.2,-.4,.4c0,.2,.2,.4,.4,.4m3.9,0h2.3c.2,0,.4,-.2,.4,-.4c0,-.2,-.2,-.4,-.4,-.4h-2.3c-.2,0,-.4,.2,-.4,.4c0,.2,.2,.4,.4,.4m3.9,0H842c.2,0,.4,-.2,.4,-.4c0,-.2,-.2,-.4,-.4,-.4h-2.3c-.2,0,-.4,.2,-.4,.4c0,.2,.2,.4,.4,.4m3.8,0h2.4c.2,0,.4,-.2,.4,-.4c0,-.2,-.2,-.4,-.4,-.4h-2.4c-.2,0,-.3,.2,-.3,.4c0,.2,.1,.4,.3,.4m3.9,0h2.4c.2,0,.3,-.2,.3,-.4c0,-.2,-.1,-.4,-.3,-.4h-2.4c-.2,0,-.4,.2,-.4,.4c0,.2,.2,.4,.4,.4Z" class="g9_12"/>
<path d="M780.8,291.9h2.3c.2,0,.4,-.2,.4,-.4c0,-.2,-.2,-.4,-.4,-.4h-2.3c-.2,0,-.4,.2,-.4,.4c0,.2,.2,.4,.4,.4m3.9,0H787c.2,0,.4,-.2,.4,-.4c0,-.2,-.2,-.4,-.4,-.4h-2.3c-.2,0,-.4,.2,-.4,.4c0,.2,.2,.4,.4,.4m3.9,0h2.3c.2,0,.4,-.2,.4,-.4c0,-.2,-.2,-.4,-.4,-.4h-2.3c-.3,0,-.4,.2,-.4,.4c0,.2,.1,.4,.4,.4m3.8,0h2.4c.2,0,.3,-.2,.3,-.4c0,-.2,-.1,-.4,-.3,-.4h-2.4c-.2,0,-.3,.2,-.3,.4c0,.2,.1,.4,.3,.4m3.9,0h2.3c.2,0,.4,-.2,.4,-.4c0,-.2,-.2,-.4,-.4,-.4h-2.3c-.2,0,-.4,.2,-.4,.4c0,.2,.2,.4,.4,.4m3.9,0h2.3c.2,0,.4,-.2,.4,-.4c0,-.2,-.2,-.4,-.4,-.4h-2.3c-.2,0,-.4,.2,-.4,.4c0,.2,.2,.4,.4,.4m3.9,0h2.3c.2,0,.4,-.2,.4,-.4c0,-.2,-.2,-.4,-.4,-.4h-2.3c-.2,0,-.4,.2,-.4,.4c0,.2,.2,.4,.4,.4m3.9,0h2.3c.2,0,.4,-.2,.4,-.4c0,-.2,-.2,-.4,-.4,-.4H808c-.2,0,-.4,.2,-.4,.4c0,.2,.2,.4,.4,.4m3.8,0h2.4c.2,0,.3,-.2,.3,-.4c0,-.2,-.1,-.4,-.3,-.4h-2.4c-.2,0,-.3,.2,-.3,.4c0,.2,.1,.4,.3,.4m3.9,0H818c.3,0,.4,-.2,.4,-.4c0,-.2,-.1,-.4,-.4,-.4h-2.3c-.2,0,-.4,.2,-.4,.4c0,.2,.2,.4,.4,.4m3.9,0h2.3c.2,0,.4,-.2,.4,-.4c0,-.2,-.2,-.4,-.4,-.4h-2.3c-.2,0,-.4,.2,-.4,.4c0,.2,.2,.4,.4,.4m3.9,0h2.3c.2,0,.4,-.2,.4,-.4c0,-.2,-.2,-.4,-.4,-.4h-2.3c-.2,0,-.4,.2,-.4,.4c0,.2,.2,.4,.4,.4m3.9,0h2.3c.2,0,.4,-.2,.4,-.4c0,-.2,-.2,-.4,-.4,-.4h-2.3c-.2,0,-.4,.2,-.4,.4c0,.2,.2,.4,.4,.4m3.9,0h2.3c.2,0,.4,-.2,.4,-.4c0,-.2,-.2,-.4,-.4,-.4h-2.3c-.3,0,-.4,.2,-.4,.4c0,.2,.1,.4,.4,.4m3.8,0h2.4c.2,0,.3,-.2,.3,-.4c0,-.2,-.1,-.4,-.3,-.4h-2.4c-.2,0,-.3,.2,-.3,.4c0,.2,.1,.4,.3,.4m3.9,0h2.3c.3,0,.4,-.2,.4,-.4c0,-.2,-.1,-.4,-.4,-.4H839c-.2,0,-.4,.2,-.4,.4c0,.2,.2,.4,.4,.4m3.9,0h2.3c.2,0,.4,-.2,.4,-.4c0,-.2,-.2,-.4,-.4,-.4h-2.3c-.2,0,-.4,.2,-.4,.4c0,.2,.2,.4,.4,.4m3.9,0h2.3c.2,0,.4,-.2,.4,-.4c0,-.2,-.2,-.4,-.4,-.4h-2.3c-.2,0,-.4,.2,-.4,.4c0,.2,.2,.4,.4,.4Z" class="g9_12"/>
<path d="M829.5,308.7v.7h4.6c1.1,0,2,-1,2,-2.1v-.4c0,-1.1,-.9,-2,-2,-2h-4.6c-.5,0,-1,.2,-1.4,.5c-.1,.1,-.2,.3,-.2,.5v.3c0,.2,-.1,.3,-.2,.5c-.2,.1,-.3,.3,-.3,.5v.1c0,1.1,1,2.1,2.1,2.1V308c-.4,0,-.7,-.3,-.7,-.7v-.1h-.7l.5,.5c.4,-.4,.7,-.9,.7,-1.5v-.3h-.7l.4,.5c.2,-.1,.3,-.1,.5,-.1h4.6c.3,0,.6,.3,.6,.6v.4c0,.4,-.3,.7,-.6,.7h-4.6Z" class="g9_12"/>
<path d="M828.6,299.3l-.5,.5c.4,.4,.9,.6,1.4,.6h4.6c1.1,0,2,-.9,2,-2.1v-.4c0,-1.1,-.9,-2,-2,-2h-4.6c-1.1,0,-2.1,.9,-2.1,2v.2c0,.2,.1,.4,.3,.5c.1,.1,.2,.3,.2,.5v.2c0,.2,.1,.4,.2,.5l.5,-.5h.7v-.2c0,-.6,-.3,-1.1,-.7,-1.5l-.5,.5h.7v-.2c0,-.3,.3,-.6,.7,-.6h4.6c.3,0,.6,.3,.6,.6v.4c0,.4,-.3,.7,-.6,.7h-4.6c-.2,0,-.3,-.1,-.5,-.2l-.4,.5h.7Z" class="g9_12"/>
<path d="M835.1,308.2v.6H837c1,0,1.8,-.8,1.8,-1.8v-8.7c0,-1,-.8,-1.8,-1.8,-1.8h-1.8c-.3,0,-.5,.1,-.7,.3c-.1,.3,-.1,.5,.1,.8c.1,.1,.1,.2,.1,.3v.4c0,.4,-.3,.7,-.6,.7h-4.6c-.2,0,-.3,-.1,-.5,-.2c-.2,-.2,-.4,-.2,-.7,-.1c-.2,.1,-.4,.4,-.4,.6v6.6c0,.3,.2,.5,.4,.6c.3,.2,.5,.1,.7,-.1c.2,-.1,.3,-.1,.5,-.1h4.6c.3,0,.6,.3,.6,.6v.4c0,.2,0,.3,-.1,.4c-.2,.2,-.2,.5,-.1,.8c.1,.2,.3,.3,.6,.3v-.6l.5,.4c.3,-.4,.5,-.8,.5,-1.3v-.4c0,-1.1,-.9,-2,-2,-2h-4.6c-.5,0,-1,.2,-1.4,.5l.5,.5h.7v-6.6h-.7l-.5,.5c.4,.4,.9,.6,1.4,.6h4.6c1.1,0,2,-.9,2,-2.1v-.4c0,-.4,-.2,-.8,-.4,-1.1l-.5,.4v.6H837c.2,0,.4,.2,.4,.5V307c0,.3,-.2,.5,-.4,.5h-1.9v.7l.5,.4Z" class="g9_12"/>
<path d="M828.6,299.1h.7c0,-1.1,-.9,-2,-2.1,-2h-.6c-1.2,0,-2.1,.9,-2.1,2v7.1c0,1.1,.9,2,2.1,2h.6c1.2,0,2.1,-.9,2.1,-2v-7.1h-1.4v7.1c0,.3,-.3,.6,-.7,.6h-.6c-.4,0,-.7,-.3,-.7,-.6v-7.1c0,-.4,.3,-.7,.7,-.7h.6c.4,0,.7,.3,.7,.7Z" class="g9_12"/>
<path d="M829.5,321.4v.7h4.6c1.1,0,2,-.9,2,-2v-.4c0,-1.1,-.9,-2,-2,-2h-4.6c-.5,0,-1,.2,-1.4,.5c-.1,.1,-.2,.3,-.2,.5v.3c0,.1,-.1,.3,-.2,.4c-.2,.2,-.3,.4,-.3,.6v.1c0,1.1,1,2,2.1,2v-1.3c-.4,0,-.7,-.3,-.7,-.7V320h-.7l.5,.5c.4,-.4,.7,-.9,.7,-1.5v-.3h-.7l.4,.5c.2,-.1,.3,-.2,.5,-.2h4.6c.3,0,.6,.3,.6,.7v.4c0,.4,-.3,.7,-.6,.7h-4.6Z" class="g9_12"/>
<path d="M828.6,312.1l-.5,.5c.4,.4,.9,.6,1.4,.6h4.6c1.1,0,2,-1,2,-2.1v-.4c0,-1.1,-.9,-2,-2,-2h-4.6c-1.1,0,-2.1,.9,-2.1,2v.2c0,.2,.1,.4,.3,.5c.1,.1,.2,.3,.2,.5v.2c0,.2,.1,.4,.2,.5l.5,-.5h.7v-.2c0,-.6,-.3,-1.2,-.7,-1.5l-.5,.5h.7v-.2c0,-.3,.3,-.6,.7,-.6h4.6c.3,0,.6,.3,.6,.6v.4c0,.4,-.3,.7,-.6,.7h-4.6c-.2,0,-.3,-.1,-.5,-.2l-.4,.5h.7Z" class="g9_12"/>
<path d="M835.1,320.9v.7H837c1,0,1.8,-.8,1.8,-1.8v-8.7c0,-1,-.8,-1.9,-1.8,-1.9h-1.8c-.3,0,-.5,.2,-.7,.4c-.1,.3,-.1,.5,.1,.7c.1,.2,.1,.3,.1,.4v.4c0,.4,-.3,.7,-.6,.7h-4.6c-.2,0,-.3,-.1,-.5,-.2c-.2,-.2,-.4,-.2,-.7,-.1c-.2,.1,-.4,.3,-.4,.6v6.6c0,.3,.2,.5,.4,.6c.3,.1,.5,.1,.7,-.1c.2,-.1,.3,-.2,.5,-.2h4.6c.3,0,.6,.3,.6,.7v.4c0,.1,0,.3,-.1,.4c-.2,.2,-.2,.5,-.1,.7c.1,.3,.3,.4,.6,.4v-.7l.5,.5c.3,-.4,.5,-.8,.5,-1.3v-.4c0,-1.1,-.9,-2,-2,-2h-4.6c-.5,0,-1,.2,-1.4,.5l.5,.5h.7v-6.6h-.7l-.5,.5c.4,.3,.9,.6,1.4,.6h4.6c1.1,0,2,-1,2,-2.1v-.4c0,-.4,-.2,-.8,-.4,-1.2l-.5,.4v.7H837c.2,0,.4,.2,.4,.5v8.7c0,.3,-.2,.4,-.4,.4h-1.9v.7l.5,.5Z" class="g9_12"/>
<path d="M828.6,311.9h.7c0,-1.1,-.9,-2.1,-2.1,-2.1h-.6c-1.2,0,-2.1,1,-2.1,2.1V319c0,1.1,.9,2,2.1,2h.6c1.2,0,2.1,-.9,2.1,-2v-7.1h-1.4V319c0,.3,-.3,.6,-.7,.6h-.6c-.4,0,-.7,-.3,-.7,-.6v-7.1c0,-.4,.3,-.7,.7,-.7h.6c.4,0,.7,.3,.7,.7Z" class="g9_12"/>
<path d="M814.2,307.8h3.2c.5,0,.9,-.2,.9,-.5v-.2c0,-.3,-.4,-.6,-.9,-.6h-3.2c-.2,0,-.5,.1,-.6,.2v.1c0,.2,-.2,.3,-.3,.4v.1c0,.3,.4,.5,.9,.5Z" class="g9_12"/>
<path d="M813.7,298c.2,.1,.4,.2,.7,.2h3.3c.5,0,.9,-.3,.9,-.6v-.2c0,-.4,-.4,-.6,-.9,-.6h-3.3c-.6,0,-1,.2,-1,.6v.1c.2,.1,.3,.2,.3,.4Z" class="g9_12"/>
<path d="M819.5,307.9h1.8c.6,0,1.1,-.6,1.1,-1.2V298c0,-.6,-.5,-1.1,-1.1,-1.1h-1.7c.1,.2,.2,.4,.2,.7v.4c0,.8,-.6,1.4,-1.3,1.4h-4.3c-.4,0,-.7,-.1,-.9,-.4v6.6c.2,-.2,.5,-.3,.9,-.3h4.3c.7,0,1.3,.6,1.3,1.3v.4c0,.3,-.1,.6,-.3,.9Z" class="g9_12"/>
<path d="M812,299.5c0,-.5,-.5,-1,-1.1,-1c-.6,0,-1.1,.5,-1.1,1v5.6c0,.6,.5,1.1,1.1,1.1c.6,0,1.1,-.5,1.1,-1.1Z" class="g9_12"/>
<path d="M813.8,321.4v.7h4.5c1.1,0,2.1,-.9,2.1,-2v-.4c0,-1.1,-1,-2,-2.1,-2h-4.5c-.6,0,-1.1,.2,-1.4,.5c-.2,.1,-.2,.3,-.2,.5v.3c0,.1,-.1,.3,-.3,.4c-.1,.2,-.2,.4,-.2,.6v.1c0,1.1,.9,2,2.1,2v-1.3c-.4,0,-.7,-.3,-.7,-.7V320h-.7l.5,.5c.4,-.4,.6,-.9,.6,-1.5v-.3h-.7l.5,.5c.1,-.1,.3,-.2,.5,-.2h4.5c.4,0,.7,.3,.7,.7v.4c0,.4,-.3,.7,-.7,.7h-4.5Z" class="g9_12"/>
<path d="M812.8,312.1l-.4,.5c.3,.4,.8,.6,1.4,.6h4.5c1.1,0,2.1,-1,2.1,-2.1v-.4c0,-1.1,-1,-2,-2.1,-2h-4.5c-1.2,0,-2.1,.9,-2.1,2v.2c0,.2,.1,.4,.2,.5c.2,.1,.3,.3,.3,.5v.2c0,.2,0,.4,.2,.5l.4,-.5h.7v-.2c0,-.6,-.2,-1.2,-.6,-1.5l-.5,.5h.7v-.2c0,-.3,.3,-.6,.7,-.6h4.5c.4,0,.7,.3,.7,.6v.4c0,.4,-.3,.7,-.7,.7h-4.5c-.2,0,-.4,-.1,-.5,-.2l-.5,.5h.7Z" class="g9_12"/>
<path d="M819.4,320.9v.7h1.9c1,0,1.8,-.8,1.8,-1.8v-8.7c0,-1,-.8,-1.9,-1.8,-1.9h-1.9c-.2,0,-.5,.2,-.6,.4c-.1,.3,-.1,.5,.1,.7c0,.2,.1,.3,.1,.4v.4c0,.4,-.3,.7,-.7,.7h-4.5c-.2,0,-.4,-.1,-.5,-.2c-.2,-.2,-.5,-.2,-.7,-.1c-.3,.1,-.4,.3,-.4,.6v6.6c0,.3,.1,.5,.4,.6c.2,.1,.5,.1,.7,-.1c.1,-.1,.3,-.2,.5,-.2h4.5c.4,0,.7,.3,.7,.7v.4c0,.1,-.1,.3,-.2,.4c-.1,.2,-.2,.5,-.1,.7c.2,.3,.4,.4,.7,.4v-.7l.5,.5c.3,-.4,.5,-.8,.5,-1.3v-.4c0,-1.1,-1,-2,-2.1,-2h-4.5c-.6,0,-1.1,.2,-1.4,.5l.4,.5h.7v-6.6h-.7l-.4,.5c.3,.3,.8,.6,1.4,.6h4.5c1.1,0,2.1,-1,2.1,-2.1v-.4c0,-.4,-.2,-.8,-.4,-1.2l-.6,.4v.7h1.9c.2,0,.4,.2,.4,.5v8.7c0,.3,-.2,.4,-.4,.4h-1.9v.7l.5,.5Z" class="g9_12"/>
<path d="M812.8,311.9h.7c0,-1.1,-.9,-2.1,-2,-2.1h-.7c-1.1,0,-2,1,-2,2.1V319c0,1.1,.9,2,2,2h.7c1.1,0,2,-.9,2,-2v-7.1h-1.3V319c0,.3,-.3,.6,-.7,.6h-.7c-.4,0,-.7,-.3,-.7,-.6v-7.1c0,-.4,.3,-.7,.7,-.7h.7c.4,0,.7,.3,.7,.7Z" class="g9_12"/>
<path d="M798,308.7v.7h4.6c1.1,0,2,-1,2,-2.1v-.4c0,-1.1,-.9,-2,-2,-2H798c-.5,0,-1,.2,-1.4,.5c-.1,.1,-.2,.3,-.2,.5v.3c0,.2,-.1,.3,-.2,.5c-.1,.1,-.2,.3,-.2,.5v.1c0,1.1,.9,2.1,2,2.1V308c-.4,0,-.7,-.3,-.7,-.7v-.1h-.6l.4,.5c.4,-.4,.7,-.9,.7,-1.5v-.3h-.7l.5,.5c.1,-.1,.2,-.1,.4,-.1h4.6c.3,0,.6,.3,.6,.6v.4c0,.4,-.3,.7,-.6,.7H798Z" class="g9_12"/>
<path d="M797.1,299.3l-.5,.5c.4,.4,.9,.6,1.4,.6h4.6c1.1,0,2,-.9,2,-2.1v-.4c0,-1.1,-.9,-2,-2,-2H798c-1.1,0,-2,.9,-2,2v.2c0,.2,.1,.4,.2,.5c.1,.1,.2,.3,.2,.5v.2c0,.2,.1,.4,.2,.5l.5,-.5h.7v-.2c0,-.6,-.3,-1.1,-.7,-1.5l-.4,.5h.6v-.2c0,-.3,.3,-.6,.7,-.6h4.6c.3,0,.6,.3,.6,.6v.4c0,.4,-.3,.7,-.6,.7H798c-.2,0,-.3,-.1,-.4,-.2l-.5,.5h.7Z" class="g9_12"/>
<path d="M803.6,308.2v.6h1.9c1,0,1.8,-.8,1.8,-1.8v-8.7c0,-1,-.8,-1.8,-1.8,-1.8h-1.8c-.3,0,-.5,.1,-.6,.3c-.2,.3,-.1,.5,0,.8c.1,.1,.1,.2,.1,.3v.4c0,.4,-.3,.7,-.6,.7H798c-.2,0,-.3,-.1,-.4,-.2c-.2,-.2,-.5,-.2,-.8,-.1c-.2,.1,-.4,.4,-.4,.6v6.6c0,.3,.2,.5,.4,.6c.3,.2,.6,.1,.8,-.1c.1,-.1,.2,-.1,.4,-.1h4.6c.3,0,.6,.3,.6,.6v.4c0,.2,0,.3,-.1,.4c-.2,.2,-.2,.5,-.1,.8c.1,.2,.4,.3,.6,.3v-.6l.6,.4c.2,-.4,.4,-.8,.4,-1.3v-.4c0,-1.1,-.9,-2,-2,-2H798c-.5,0,-1,.2,-1.4,.5l.5,.5h.7v-6.6h-.7l-.5,.5c.4,.4,.9,.6,1.4,.6h4.6c1.1,0,2,-.9,2,-2.1v-.4c0,-.4,-.1,-.8,-.4,-1.1l-.5,.4v.6h1.8c.3,0,.5,.2,.5,.5V307c0,.3,-.2,.5,-.5,.5h-1.9v.7l.6,.4Z" class="g9_12"/>
<path d="M797.1,299.1h.7c0,-1.1,-.9,-2,-2,-2h-.7c-1.2,0,-2.1,.9,-2.1,2v7.1c0,1.1,.9,2,2.1,2h.7c1.1,0,2,-.9,2,-2v-7.1h-1.4v7.1c0,.3,-.3,.6,-.6,.6h-.7c-.4,0,-.7,-.3,-.7,-.6v-7.1c0,-.4,.3,-.7,.7,-.7h.7c.3,0,.6,.3,.6,.7Z" class="g9_12"/>
<path d="M798,321.4v.7h4.6c1.1,0,2,-.9,2,-2v-.4c0,-1.1,-.9,-2,-2,-2H798c-.5,0,-1,.2,-1.4,.5c-.1,.1,-.2,.3,-.2,.5v.3c0,.1,-.1,.3,-.2,.4c-.1,.2,-.2,.4,-.2,.6v.1c0,1.1,.9,2,2,2v-1.3c-.4,0,-.7,-.3,-.7,-.7V320h-.6l.4,.5c.4,-.4,.7,-.9,.7,-1.5v-.3h-.7l.5,.5c.1,-.1,.2,-.2,.4,-.2h4.6c.3,0,.6,.3,.6,.7v.4c0,.4,-.3,.7,-.6,.7H798Z" class="g9_12"/>
<path d="M797.1,312.1l-.5,.5c.4,.4,.9,.6,1.4,.6h4.6c1.1,0,2,-1,2,-2.1v-.4c0,-1.1,-.9,-2,-2,-2H798c-1.1,0,-2,.9,-2,2v.2c0,.2,.1,.4,.2,.5c.1,.1,.2,.3,.2,.5v.2c0,.2,.1,.4,.2,.5l.5,-.5h.7v-.2c0,-.6,-.3,-1.2,-.7,-1.5l-.4,.5h.6v-.2c0,-.3,.3,-.6,.7,-.6h4.6c.3,0,.6,.3,.6,.6v.4c0,.4,-.3,.7,-.6,.7H798c-.2,0,-.3,-.1,-.4,-.2l-.5,.5h.7Z" class="g9_12"/>
<path d="M803.6,320.9v.7h1.9c1,0,1.8,-.8,1.8,-1.8v-8.7c0,-1,-.8,-1.9,-1.8,-1.9h-1.8c-.3,0,-.5,.2,-.6,.4c-.2,.3,-.1,.5,0,.7c.1,.2,.1,.3,.1,.4v.4c0,.4,-.3,.7,-.6,.7H798c-.2,0,-.3,-.1,-.4,-.2c-.2,-.2,-.5,-.2,-.8,-.1c-.2,.1,-.4,.3,-.4,.6v6.6c0,.3,.2,.5,.4,.6c.3,.1,.6,.1,.8,-.1c.1,-.1,.2,-.2,.4,-.2h4.6c.3,0,.6,.3,.6,.7v.4c0,.1,0,.3,-.1,.4c-.2,.2,-.2,.5,-.1,.7c.1,.3,.4,.4,.6,.4v-.7l.6,.5c.2,-.4,.4,-.8,.4,-1.3v-.4c0,-1.1,-.9,-2,-2,-2H798c-.5,0,-1,.2,-1.4,.5l.5,.5h.7v-6.6h-.7l-.5,.5c.4,.3,.9,.6,1.4,.6h4.6c1.1,0,2,-1,2,-2.1v-.4c0,-.4,-.1,-.8,-.4,-1.2l-.5,.4v.7h1.8c.3,0,.5,.2,.5,.5v8.7c0,.3,-.2,.4,-.5,.4h-1.9v.7l.6,.5Z" class="g9_12"/>
<path d="M797.1,311.9h.7c0,-1.1,-.9,-2.1,-2,-2.1h-.7c-1.2,0,-2.1,1,-2.1,2.1V319c0,1.1,.9,2,2.1,2h.7c1.1,0,2,-.9,2,-2v-7.1h-1.4V319c0,.3,-.3,.6,-.6,.6h-.7c-.4,0,-.7,-.3,-.7,-.6v-7.1c0,-.4,.3,-.7,.7,-.7h.7c.3,0,.6,.3,.6,.7Z" class="g9_12"/>
<image clip-path="url(#cd_12)" preserveAspectRatio="none" x="681" y="329" width="89" height="30" xlink:href="img/14.jpg"/>
<image clip-path="url(#ce_12)" preserveAspectRatio="none" x="690" y="257" width="89" height="72" xlink:href="img/15.jpg"/>
<image clip-path="url(#cf_12)" preserveAspectRatio="none" x="768" y="328" width="11" height="31" xlink:href="img/16.jpg"/>
<image clip-path="url(#cg_12)" preserveAspectRatio="none" x="769" y="257" width="10" height="72" xlink:href="img/17.jpg"/>
<image clip-path="url(#ch_12)" preserveAspectRatio="none" x="775" y="278" width="4" height="69" xlink:href="img/18.jpg"/>
<image clip-path="url(#ci_12)" preserveAspectRatio="none" x="775" y="346" width="4" height="5" xlink:href="img/19.jpg"/>
<path d="M706.3,269.8c-10.1,0,-18.3,8.2,-18.3,18.4v64.1h79V288.2c0,-10.2,-8.2,-18.4,-18.3,-18.4Z" class="g3_12"/>
<path d="M687.9,353.2H767V346H687.9v7.2Z" class="g8_12"/>
<path d="M693.3,328.3h2.4c.2,0,.3,-.2,.3,-.4c0,-.2,-.1,-.4,-.3,-.4h-2.4c-.2,0,-.3,.2,-.3,.4c0,.2,.1,.4,.3,.4m3.9,0h2.3c.3,0,.4,-.2,.4,-.4c0,-.2,-.1,-.4,-.4,-.4h-2.3c-.2,0,-.4,.2,-.4,.4c0,.2,.2,.4,.4,.4m3.9,0h2.3c.2,0,.4,-.2,.4,-.4c0,-.2,-.2,-.4,-.4,-.4h-2.3c-.2,0,-.4,.2,-.4,.4c0,.2,.2,.4,.4,.4m3.9,0h2.3c.2,0,.4,-.2,.4,-.4c0,-.2,-.2,-.4,-.4,-.4H705c-.2,0,-.4,.2,-.4,.4c0,.2,.2,.4,.4,.4m3.9,0h2.3c.2,0,.4,-.2,.4,-.4c0,-.2,-.2,-.4,-.4,-.4h-2.3c-.2,0,-.4,.2,-.4,.4c0,.2,.2,.4,.4,.4m3.9,0h2.3c.2,0,.4,-.2,.4,-.4c0,-.2,-.2,-.4,-.4,-.4h-2.3c-.3,0,-.4,.2,-.4,.4c0,.2,.1,.4,.4,.4m3.8,0H719c.2,0,.3,-.2,.3,-.4c0,-.2,-.1,-.4,-.3,-.4h-2.4c-.2,0,-.3,.2,-.3,.4c0,.2,.1,.4,.3,.4m3.9,0h2.3c.2,0,.4,-.2,.4,-.4c0,-.2,-.2,-.4,-.4,-.4h-2.3c-.2,0,-.4,.2,-.4,.4c0,.2,.2,.4,.4,.4m3.9,0h2.3c.2,0,.4,-.2,.4,-.4c0,-.2,-.2,-.4,-.4,-.4h-2.3c-.2,0,-.4,.2,-.4,.4c0,.2,.2,.4,.4,.4m3.9,0h2.3c.2,0,.4,-.2,.4,-.4c0,-.2,-.2,-.4,-.4,-.4h-2.3c-.2,0,-.4,.2,-.4,.4c0,.2,.2,.4,.4,.4m3.9,0h2.3c.2,0,.4,-.2,.4,-.4c0,-.2,-.2,-.4,-.4,-.4h-2.3c-.2,0,-.4,.2,-.4,.4c0,.2,.2,.4,.4,.4m3.8,0h2.4c.2,0,.3,-.2,.3,-.4c0,-.2,-.1,-.4,-.3,-.4H736c-.2,0,-.3,.2,-.3,.4c0,.2,.1,.4,.3,.4m3.9,0h2.3c.3,0,.4,-.2,.4,-.4c0,-.2,-.1,-.4,-.4,-.4h-2.3c-.2,0,-.4,.2,-.4,.4c0,.2,.2,.4,.4,.4m3.9,0h2.3c.2,0,.4,-.2,.4,-.4c0,-.2,-.2,-.4,-.4,-.4h-2.3c-.2,0,-.4,.2,-.4,.4c0,.2,.2,.4,.4,.4m3.9,0H750c.2,0,.4,-.2,.4,-.4c0,-.2,-.2,-.4,-.4,-.4h-2.3c-.2,0,-.4,.2,-.4,.4c0,.2,.2,.4,.4,.4m3.9,0h2.3c.2,0,.4,-.2,.4,-.4c0,-.2,-.2,-.4,-.4,-.4h-2.3c-.2,0,-.4,.2,-.4,.4c0,.2,.2,.4,.4,.4m3.9,0h2.3c.2,0,.4,-.2,.4,-.4c0,-.2,-.2,-.4,-.4,-.4h-2.3c-.3,0,-.4,.2,-.4,.4c0,.2,.1,.4,.4,.4m3.8,0h2.4c.2,0,.3,-.2,.3,-.4c0,-.2,-.1,-.4,-.3,-.4h-2.4c-.2,0,-.3,.2,-.3,.4c0,.2,.1,.4,.3,.4Z" class="ga_12"/>
<path d="M740.8,291.9H743c.2,0,.4,-.2,.4,-.4c0,-.2,-.2,-.4,-.4,-.4h-2.2c-.2,0,-.4,.2,-.4,.4c0,.2,.2,.4,.4,.4m3.7,0h2.3c.2,0,.3,-.2,.3,-.4c0,-.2,-.1,-.4,-.3,-.4h-2.3c-.2,0,-.4,.2,-.4,.4c0,.2,.2,.4,.4,.4m3.7,0h2.3c.2,0,.4,-.2,.4,-.4c0,-.2,-.2,-.4,-.4,-.4h-2.3c-.2,0,-.4,.2,-.4,.4c0,.2,.2,.4,.4,.4m3.7,0h2.3c.2,0,.4,-.2,.4,-.4c0,-.2,-.2,-.4,-.4,-.4h-2.3c-.2,0,-.3,.2,-.3,.4c0,.2,.1,.4,.3,.4m3.8,0h2.2c.2,0,.4,-.2,.4,-.4c0,-.2,-.2,-.4,-.4,-.4h-2.2c-.2,0,-.4,.2,-.4,.4c0,.2,.2,.4,.4,.4m3.7,0h2.2c.2,0,.4,-.2,.4,-.4c0,-.2,-.2,-.4,-.4,-.4h-2.2c-.2,0,-.4,.2,-.4,.4c0,.2,.2,.4,.4,.4Z" class="ga_12"/>
<path d="M693.4,291.9h2.2c.2,0,.4,-.2,.4,-.4c0,-.2,-.2,-.4,-.4,-.4h-2.2c-.2,0,-.4,.2,-.4,.4c0,.2,.2,.4,.4,.4m3.7,0h2.2c.2,0,.4,-.2,.4,-.4c0,-.2,-.2,-.4,-.4,-.4h-2.2c-.2,0,-.4,.2,-.4,.4c0,.2,.2,.4,.4,.4m3.7,0h2.3c.2,0,.3,-.2,.3,-.4c0,-.2,-.1,-.4,-.3,-.4h-2.3c-.2,0,-.4,.2,-.4,.4c0,.2,.2,.4,.4,.4m3.7,0h2.3c.2,0,.4,-.2,.4,-.4c0,-.2,-.2,-.4,-.4,-.4h-2.3c-.2,0,-.4,.2,-.4,.4c0,.2,.2,.4,.4,.4m3.8,0h2.2c.2,0,.4,-.2,.4,-.4c0,-.2,-.2,-.4,-.4,-.4h-2.2c-.3,0,-.4,.2,-.4,.4c0,.2,.1,.4,.4,.4m3.7,0h2.2c.2,0,.4,-.2,.4,-.4c0,-.2,-.2,-.4,-.4,-.4H712c-.2,0,-.4,.2,-.4,.4c0,.2,.2,.4,.4,.4Z" class="ga_12"/>
<path d="M718.2,294.5v-.8c-1.1,0,-2,1,-2,2.1v29.3h22.9V295.8c0,-1.1,-.9,-2.1,-2.1,-2.1H718.2v1.5H737c.3,0,.6,.3,.6,.6v27.8H717.7V295.8c0,-.3,.2,-.6,.5,-.6Z" class="ga_12"/>
<path d="M720.2,289.5v-.4c-.5,0,-1,.5,-1,1v4.6h16.9v-4.6c0,-.5,-.5,-1,-1,-1H720.2v.7h14.9c.1,0,.3,.1,.3,.3v4H719.9v-4c0,-.2,.1,-.3,.3,-.3Z" class="ga_12"/>
<path d="M725.1,316.6h-.4v7.6l.1,.3l.3,.1h5.2l.2,-.1l.1,-.3v-7.6l-.1,-.3l-.2,-.1h-5.2l-.3,.1l-.1,.3h.4v.3h4.8v6.9h-4.5v-7.2h-.3v.3Z" class="ga_12"/>
<path d="M732,316.6h-.4v4.1l.1,.2l.3,.1h4.1l.3,-.1l.1,-.2v-4.1l-.1,-.3l-.3,-.1H732l-.3,.1l-.1,.3h.4v.3h3.8v3.4h-3.4v-3.7H732v.3Z" class="ga_12"/>
<path d="M719.2,316.6h-.4v4.1l.1,.2l.3,.1h4.1l.3,-.1l.1,-.2v-4.1l-.1,-.3l-.3,-.1h-4.1l-.3,.1l-.1,.3h.4v.3H723v3.4h-3.4v-3.7h-.4v.3Z" class="ga_12"/>
<path d="M727.3,320.5h.8v-1h-.8v1Z" class="ga_12"/>
<path d="M732,310.2h-.4v4.1l.1,.3l.3,.1h4.1l.3,-.1l.1,-.3v-4.1l-.1,-.2l-.3,-.1H732l-.3,.1l-.1,.2h.4v.4h3.8V314h-3.4v-3.8H732v.4Z" class="ga_12"/>
<path d="M725.6,310.2h-.4v4.1l.1,.3l.3,.1h4.1l.3,-.1l.1,-.3v-4.1L730,310l-.3,-.1h-4.1l-.3,.1l-.1,.2h.4v.4h3.8V314H726v-3.8h-.4v.4Z" class="ga_12"/>
<path d="M719.2,310.2h-.4v4.1l.1,.3l.3,.1h4.1l.3,-.1l.1,-.3v-4.1l-.1,-.2l-.3,-.1h-4.1l-.3,.1l-.1,.2h.4v.4H723V314h-3.4v-3.8h-.4v.4Z" class="ga_12"/>
<path d="M732,303.9h-.4V308l.1,.3l.3,.1h4.1l.3,-.1l.1,-.3v-4.1l-.1,-.2l-.3,-.2H732l-.3,.2l-.1,.2h.4v.4h3.8v3.4h-3.4v-3.8H732v.4Z" class="ga_12"/>
<path d="M725.6,303.9h-.4V308l.1,.3l.3,.1h4.1l.3,-.1l.1,-.3v-4.1l-.1,-.2l-.3,-.2h-4.1l-.3,.2l-.1,.2h.4v.4h3.8v3.4H726v-3.8h-.4v.4Z" class="ga_12"/>
<path d="M719.2,303.9h-.4V308l.1,.3l.3,.1h4.1l.3,-.1l.1,-.3v-4.1l-.1,-.2l-.3,-.2h-4.1l-.3,.2l-.1,.2h.4v.4H723v3.4h-3.4v-3.8h-.4v.4Z" class="ga_12"/>
<path d="M732,297.6h-.4v4.1l.1,.3l.3,.1h4.1l.3,-.1l.1,-.3v-4.1l-.1,-.3l-.3,-.1H732l-.3,.1l-.1,.3h.4v.4h3.8v3.3h-3.4v-3.7H732v.4Z" class="ga_12"/>
<path d="M725.6,297.6h-.4v4.1l.1,.3l.3,.1h4.1l.3,-.1l.1,-.3v-4.1l-.1,-.3l-.3,-.1h-4.1l-.3,.1l-.1,.3h.4v.4h3.8v3.3H726v-3.7h-.4v.4Z" class="ga_12"/>
<path d="M719.2,297.6h-.4v4.1l.1,.3l.3,.1h4.1l.3,-.1l.1,-.3v-4.1l-.1,-.3l-.3,-.1h-4.1l-.3,.1l-.1,.3h.4v.4H723v3.3h-3.4v-3.7h-.4v.4Z" class="ga_12"/>
<path d="M722.8,290.5l-.2,-.1l-.5,.7l-.8,.2l-.2,.2l.1,.2l.5,.6v.9l.1,.2h.2l.8,-.3l.7,.3h.3l.1,-.2l-.1,-.9l.5,-.6l.1,-.2l-.2,-.2l-.8,-.2l-.4,-.7l-.2,-.1l-.2,.1l.2,.1l-.2,.1l.4,.8l.2,.1l.5,.2l-.3,.4l-.1,.2l.1,.5l-.6,-.2h-.1l-.6,.2l.1,-.5l-.1,-.2l-.3,-.4l.5,-.2l.2,-.1l.5,-.8l-.2,-.1l-.2,.1Z" class="ga_12"/>
<path d="M727.6,290.5l-.2,-.1l-.4,.7l-.8,.2l-.2,.2l.1,.2l.5,.6l-.1,.9l.1,.2h.3l.7,-.3l.8,.3h.2l.1,-.2v-.9l.5,-.6l.1,-.2l-.2,-.2l-.8,-.2l-.5,-.7l-.2,-.1l-.2,.1l.2,.1l-.2,.1l.5,.8l.2,.1l.5,.2l-.3,.4l-.1,.2v.5l-.5,-.2h-.2l-.5,.2l.1,-.5l-.1,-.2l-.4,-.4l.6,-.2l.1,-.1l.5,-.8l-.2,-.1l-.2,.1Z" class="ga_12"/>
<path d="M732.5,290.5l-.2,-.1l-.4,.7l-.8,.2l-.2,.2v.2l.6,.6l-.1,.9l.1,.2h.2l.8,-.3l.8,.3h.2l.1,-.2l-.1,-.9l.6,-.6v-.2l-.1,-.2l-.9,-.2l-.4,-.7l-.2,-.1l-.2,.1l.2,.1l-.2,.1l.5,.8l.1,.1l.6,.2l-.4,.4v.7l-.5,-.2h-.2l-.5,.2v-.7l-.4,-.4l.6,-.2l.1,-.1l.5,-.8l-.2,-.1l-.2,.1Z" class="ga_12"/>
<path d="M715.2,325.4h24.6c.5,0,1,-.4,1,-.9c0,-.5,-.5,-.9,-1,-.9H715.2c-.5,0,-.9,.4,-.9,.9c0,.5,.4,.9,.9,.9Z" class="ga_12"/>
<path d="M727.5,316.5v7.3h.3v-7.3Z" class="ga_12"/>
<path d="M324.8,353.2H866.1v-2.3H324.8v2.3Z" class="g8_12"/>
<image clip-path="url(#cj_12)" preserveAspectRatio="none" x="505" y="329" width="89" height="22" xlink:href="img/20.jpg"/>
<image clip-path="url(#ck_12)" preserveAspectRatio="none" x="505" y="257" width="88" height="72" xlink:href="img/21.jpg"/>
<image clip-path="url(#cl_12)" preserveAspectRatio="none" x="505" y="353" width="98" height="6" xlink:href="img/22.jpg"/>
<image clip-path="url(#cm_12)" preserveAspectRatio="none" x="505" y="350" width="89" height="4" xlink:href="img/23.jpg"/>
<path d="M530.1,269.8c-10.1,0,-18.3,8.2,-18.3,18.4v64.1h79V288.2c0,-10.2,-8.2,-18.4,-18.4,-18.4Z" class="g3_12"/>
<path d="M511.7,353.2h79.1V346H511.7v7.2Z" class="g8_12"/>
<path d="M517.9,296h2.6c.2,0,.3,-.2,.3,-.4c0,-.2,-.1,-.4,-.3,-.4h-2.6c-.2,0,-.4,.2,-.4,.4c0,.2,.2,.4,.4,.4m4.3,0h2.6c.2,0,.4,-.2,.4,-.4c0,-.2,-.2,-.4,-.4,-.4h-2.6c-.2,0,-.3,.2,-.3,.4c0,.2,.1,.4,.3,.4m4.3,0h2.6c.2,0,.4,-.2,.4,-.4c0,-.2,-.2,-.4,-.4,-.4h-2.6c-.2,0,-.3,.2,-.3,.4c0,.2,.1,.4,.3,.4m4.4,0h2.5c.2,0,.4,-.2,.4,-.4c0,-.2,-.2,-.4,-.4,-.4h-2.5c-.3,0,-.4,.2,-.4,.4c0,.2,.1,.4,.4,.4Z" class="g5_12"/>
<path d="M569.5,328.3h2.2c.2,0,.3,-.2,.3,-.4c0,-.2,-.1,-.4,-.3,-.4h-2.2c-.3,0,-.4,.2,-.4,.4c0,.2,.1,.4,.4,.4m3.6,0h2.2c.2,0,.4,-.2,.4,-.4c0,-.2,-.2,-.4,-.4,-.4h-2.2c-.2,0,-.4,.2,-.4,.4c0,.2,.2,.4,.4,.4m3.6,0h2.2c.3,0,.4,-.2,.4,-.4c0,-.2,-.1,-.4,-.4,-.4h-2.2c-.2,0,-.3,.2,-.3,.4c0,.2,.1,.4,.3,.4m3.7,0h2.2c.2,0,.4,-.2,.4,-.4c0,-.2,-.2,-.4,-.4,-.4h-2.2c-.2,0,-.4,.2,-.4,.4c0,.2,.2,.4,.4,.4m3.6,0h2.2c.3,0,.4,-.2,.4,-.4c0,-.2,-.1,-.4,-.4,-.4H584c-.2,0,-.3,.2,-.3,.4c0,.2,.1,.4,.3,.4Z" class="g5_12"/>
<path d="M568.6,296h2.3c.2,0,.4,-.2,.4,-.4c0,-.2,-.2,-.4,-.4,-.4h-2.3c-.2,0,-.4,.2,-.4,.4c0,.2,.2,.4,.4,.4m3.8,0h2.3c.2,0,.4,-.2,.4,-.4c0,-.2,-.2,-.4,-.4,-.4h-2.3c-.2,0,-.4,.2,-.4,.4c0,.2,.2,.4,.4,.4m3.9,0h2.3c.2,0,.3,-.2,.3,-.4c0,-.2,-.1,-.4,-.3,-.4h-2.3c-.2,0,-.4,.2,-.4,.4c0,.2,.2,.4,.4,.4m3.8,0h2.3c.2,0,.4,-.2,.4,-.4c0,-.2,-.2,-.4,-.4,-.4h-2.3c-.2,0,-.4,.2,-.4,.4c0,.2,.2,.4,.4,.4m3.8,0h2.3c.3,0,.4,-.2,.4,-.4c0,-.2,-.1,-.4,-.4,-.4h-2.3c-.2,0,-.3,.2,-.3,.4c0,.2,.1,.4,.3,.4Z" class="g5_12"/>
<path d="M564.7,313.4c.1,.9,.3,1.8,.3,2.8c-.1,2.6,-1.3,4.6,-3.5,6c-1.7,1.1,-3.6,1.6,-5.6,1.7c-3.1,0,-6.2,0,-9.3,0c-2.1,-.1,-4.1,-.6,-5.8,-1.8c-2.5,-1.8,-3.6,-4.2,-3.2,-7.3c.3,-2.5,.4,-5,.5,-7.5c0,-2.4,0,-4.7,-.1,-7.1c0,-2.7,1.1,-4.8,3.3,-6.4c1.8,-1.4,4,-2,6.3,-2c2.5,0,4.9,0,7.4,0c2.1,0,4.2,.6,5.9,1.8c2.6,1.8,3.8,4.2,3.5,7.3c-.1,1.5,0,3.1,0,4.6c0,0,.2,5.3,.3,7.9m-13.4,-20v-.1c-1.3,0,-2.5,0,-3.7,0c-1.7,.1,-3.3,.4,-4.7,1.3c-2,1.2,-3.4,2.9,-3.3,5.4c.1,1.1,.4,2.2,.7,3.2c.6,1.8,1.4,3.4,2.8,4.6c.4,.3,.4,.7,0,1.1c-.8,.8,-1.7,1.6,-2.8,2c-.7,.2,-.9,.6,-.9,1.3c-.1,.6,.1,1.1,.5,1.5c1,1,2.2,1.8,3.5,2.3c2.3,1,4.7,1.3,7.2,1.3c2.7,.1,5.3,-.1,7.8,-1c1.7,-.7,3.3,-1.5,4.4,-3c.2,-.2,.3,-.4,.3,-.6c0,-.4,0,-.8,-.1,-1.3l-.3,-.3c-1.3,-.5,-2.4,-1.2,-3.3,-2.2c-.4,-.4,-.3,-.8,0,-1.2c.6,-.6,1.2,-1.2,1.6,-1.9c1,-1.6,1.5,-3.3,1.8,-5.1c.3,-1.5,-.1,-2.9,-1,-4.1c-1.5,-2,-3.6,-3,-5.9,-3.2c-1.6,-.1,-3.1,0,-4.6,0m-12.1,21.3c-.5,2.1,0,3.9,1.6,5.4c1.7,1.6,3.7,2.2,5.9,2.2c3,0,6,0,9,0c1,0,2,-.1,3,-.4c1.8,-.7,3.3,-1.7,4.2,-3.4c.6,-1.3,.6,-2.5,.3,-3.9l-.1,.1c-1.4,1.8,-3.3,2.8,-5.5,3.4c-3.7,1,-7.4,1,-11.1,.4c-1.8,-.3,-3.6,-.9,-5.1,-1.9c-.8,-.6,-1.5,-1.3,-2.2,-1.9Z" class="g5_12"/>
<path d="M544.3,324.4c-.7,.5,-1.3,1,-1.9,1.5c-.6,.5,-2.3,1.8,-2.9,2.3c-.3,.2,-.7,.2,-1,.1c-.2,0,-.4,-.2,-.4,-.4c-.1,-.3,0,-.6,.3,-.8c.4,-.3,1.8,-1.5,2.2,-1.8c.5,-.4,1.1,-.9,1.7,-1.3c.1,0,.3,-.1,.5,0c.5,.1,1,.2,1.5,.4Z" class="g5_12"/>
<path d="M558.1,324.4c.7,-.2,1.2,-.4,1.7,-.5l.4,.1c1,.8,3,2.3,3.9,3c.2,.2,.3,.3,.4,.5c.1,.3,0,.7,-.3,.8c-.2,.1,-.7,.2,-.9,0c-1.4,-1,-3.7,-2.8,-5.2,-3.9Z" class="g5_12"/>
<path d="M551.2,307.2c-1.4,0,-2.8,0,-4.2,-.1c-2.5,-.1,-4.5,-2,-5,-4.5c-.1,-.6,-.2,-1.3,-.3,-1.9c-.5,-2.5,1.2,-4.6,3.7,-4.6c3.9,0,7.8,0,11.6,0c2.4,0,4.2,1.9,3.8,4.3c-.1,1.4,-.3,2.8,-1,4c-1.2,1.8,-2.8,2.8,-5,2.8c-1.2,0,-2.4,0,-3.6,0Z" class="g5_12"/>
<path d="M557.1,310.6c.3,0,.7,0,1,0c.6,.1,1,.4,.7,.8c-.6,1.2,-1.2,2.3,-1.9,3.4c-.1,.2,-.4,.3,-.7,.3c-.7,0,-1.4,0,-2.1,0c-.6,0,-.9,-.4,-.7,-.8c.6,-1.1,1.3,-2.2,1.9,-3.3c.1,-.2,.4,-.4,.8,-.4c.4,.1,.7,0,1,0Z" class="g5_12"/>
<path d="M547.3,315.1c-.3,0,-.6,0,-.9,0c-.5,0,-.8,-.1,-.9,-.4c-.6,-1.1,-1.2,-2.1,-1.8,-3.2c-.3,-.5,0,-.8,.7,-.9c.7,0,1.3,0,1.9,0c.5,0,.7,.2,.9,.5c.6,1,1.2,2.1,1.9,3.2c.2,.4,-.1,.8,-.7,.8c-.4,0,-.7,0,-1.1,0Z" class="g5_12"/>
<path d="M552.6,320.7c0,.7,-.6,1.3,-1.3,1.3c-.8,0,-1.4,-.6,-1.4,-1.3c0,-.7,.6,-1.3,1.3,-1.3c.7,-.1,1.4,.6,1.4,1.3Z" class="g5_12"/>
<path d="M517.9,328.3h2.2c.2,0,.4,-.2,.4,-.4c0,-.2,-.2,-.4,-.4,-.4h-2.2c-.2,0,-.4,.2,-.4,.4c0,.2,.2,.4,.4,.4m3.7,0h2.2c.2,0,.4,-.2,.4,-.4c0,-.2,-.2,-.4,-.4,-.4h-2.2c-.2,0,-.4,.2,-.4,.4c0,.2,.2,.4,.4,.4m3.6,0h2.2c.2,0,.4,-.2,.4,-.4c0,-.2,-.2,-.4,-.4,-.4h-2.2c-.2,0,-.4,.2,-.4,.4c0,.2,.2,.4,.4,.4m3.7,0h2.2c.2,0,.3,-.2,.3,-.4c0,-.2,-.1,-.4,-.3,-.4h-2.2c-.3,0,-.4,.2,-.4,.4c0,.2,.1,.4,.4,.4m3.6,0h2.2c.2,0,.4,-.2,.4,-.4c0,-.2,-.2,-.4,-.4,-.4h-2.2c-.2,0,-.4,.2,-.4,.4c0,.2,.2,.4,.4,.4Z" class="g5_12"/>
<image clip-path="url(#cn_12)" preserveAspectRatio="none" x="602" y="329" width="80" height="22" xlink:href="img/24.jpg"/>
<image clip-path="url(#co_12)" preserveAspectRatio="none" x="593" y="257" width="98" height="72" xlink:href="img/25.jpg"/>
<image clip-path="url(#cp_12)" preserveAspectRatio="none" x="680" y="328" width="9" height="24" xlink:href="img/26.jpg"/>
<image clip-path="url(#cq_12)" preserveAspectRatio="none" x="681" y="257" width="10" height="72" xlink:href="img/27.jpg"/>
<image clip-path="url(#cr_12)" preserveAspectRatio="none" x="602" y="353" width="80" height="6" xlink:href="img/28.jpg"/>
<image clip-path="url(#cs_12)" preserveAspectRatio="none" x="680" y="352" width="11" height="7" xlink:href="img/29.jpg"/>
<image clip-path="url(#ct_12)" preserveAspectRatio="none" x="687" y="278" width="4" height="69" xlink:href="img/30.jpg"/>
<image clip-path="url(#cu_12)" preserveAspectRatio="none" x="687" y="346" width="4" height="5" xlink:href="img/31.jpg"/>
<image clip-path="url(#cv_12)" preserveAspectRatio="none" x="602" y="350" width="89" height="4" xlink:href="img/32.jpg"/>
<image clip-path="url(#cw_12)" preserveAspectRatio="none" x="592" y="328" width="11" height="24" xlink:href="img/33.jpg"/>
<image clip-path="url(#cx_12)" preserveAspectRatio="none" x="593" y="257" width="10" height="72" xlink:href="img/34.jpg"/>
<image clip-path="url(#cy_12)" preserveAspectRatio="none" x="592" y="352" width="11" height="7" xlink:href="img/35.jpg"/>
<image clip-path="url(#cz_12)" preserveAspectRatio="none" x="592" y="350" width="11" height="4" xlink:href="img/36.jpg"/>
<path d="M618.2,269.8c-10.1,0,-18.3,8.2,-18.3,18.4v64.1h79V288.2c0,-10.2,-8.2,-18.4,-18.3,-18.4Z" class="g3_12"/>
<path d="M599.8,353.2h79.1V346H599.8v7.2Z" class="g8_12"/>
<path d="M606,296h2.2c.2,0,.4,-.2,.4,-.4c0,-.2,-.2,-.4,-.4,-.4H606c-.2,0,-.3,.2,-.3,.4c0,.2,.1,.4,.3,.4m3.6,0h2.2c.2,0,.3,-.2,.3,-.4c0,-.2,-.1,-.4,-.3,-.4h-2.2c-.2,0,-.4,.2,-.4,.4c0,.2,.2,.4,.4,.4m3.6,0h2.1c.2,0,.4,-.2,.4,-.4c0,-.2,-.2,-.4,-.4,-.4h-2.1c-.3,0,-.4,.2,-.4,.4c0,.2,.1,.4,.4,.4m3.5,0h2.2c.2,0,.3,-.2,.3,-.4c0,-.2,-.1,-.4,-.3,-.4h-2.2c-.2,0,-.4,.2,-.4,.4c0,.2,.2,.4,.4,.4m3.6,0h2.1c.2,0,.4,-.2,.4,-.4c0,-.2,-.2,-.4,-.4,-.4h-2.1c-.3,0,-.4,.2,-.4,.4c0,.2,.1,.4,.4,.4m3.5,0H626c.2,0,.4,-.2,.4,-.4c0,-.2,-.2,-.4,-.4,-.4h-2.2c-.2,0,-.4,.2,-.4,.4c0,.2,.2,.4,.4,.4m3.6,0h2.1c.2,0,.4,-.2,.4,-.4c0,-.2,-.2,-.4,-.4,-.4h-2.1c-.2,0,-.4,.2,-.4,.4c0,.2,.2,.4,.4,.4Z" class="gb_12"/>
<path d="M606,328.3h2.4c.2,0,.3,-.2,.3,-.4c0,-.2,-.1,-.4,-.3,-.4H606c-.2,0,-.3,.2,-.3,.4c0,.2,.1,.4,.3,.4m3.9,0h2.3c.3,0,.4,-.2,.4,-.4c0,-.2,-.1,-.4,-.4,-.4h-2.3c-.2,0,-.4,.2,-.4,.4c0,.2,.2,.4,.4,.4m3.9,0h2.3c.2,0,.4,-.2,.4,-.4c0,-.2,-.2,-.4,-.4,-.4h-2.3c-.2,0,-.4,.2,-.4,.4c0,.2,.2,.4,.4,.4m3.9,0H620c.2,0,.4,-.2,.4,-.4c0,-.2,-.2,-.4,-.4,-.4h-2.3c-.2,0,-.4,.2,-.4,.4c0,.2,.2,.4,.4,.4m3.9,0h2.3c.2,0,.4,-.2,.4,-.4c0,-.2,-.2,-.4,-.4,-.4h-2.3c-.2,0,-.4,.2,-.4,.4c0,.2,.2,.4,.4,.4m3.9,0h2.3c.2,0,.4,-.2,.4,-.4c0,-.2,-.2,-.4,-.4,-.4h-2.3c-.3,0,-.4,.2,-.4,.4c0,.2,.1,.4,.4,.4m3.8,0h2.4c.2,0,.3,-.2,.3,-.4c0,-.2,-.1,-.4,-.3,-.4h-2.4c-.2,0,-.3,.2,-.3,.4c0,.2,.1,.4,.3,.4m3.9,0h2.3c.3,0,.4,-.2,.4,-.4c0,-.2,-.1,-.4,-.4,-.4h-2.3c-.2,0,-.4,.2,-.4,.4c0,.2,.2,.4,.4,.4m3.9,0h2.3c.2,0,.4,-.2,.4,-.4c0,-.2,-.2,-.4,-.4,-.4h-2.3c-.2,0,-.4,.2,-.4,.4c0,.2,.2,.4,.4,.4m3.9,0h2.3c.2,0,.4,-.2,.4,-.4c0,-.2,-.2,-.4,-.4,-.4H641c-.2,0,-.4,.2,-.4,.4c0,.2,.2,.4,.4,.4m3.9,0h2.3c.2,0,.4,-.2,.4,-.4c0,-.2,-.2,-.4,-.4,-.4h-2.3c-.2,0,-.4,.2,-.4,.4c0,.2,.2,.4,.4,.4m3.8,0h2.4c.2,0,.4,-.2,.4,-.4c0,-.2,-.2,-.4,-.4,-.4h-2.4c-.2,0,-.3,.2,-.3,.4c0,.2,.1,.4,.3,.4m3.9,0H655c.2,0,.3,-.2,.3,-.4c0,-.2,-.1,-.4,-.3,-.4h-2.4c-.2,0,-.4,.2,-.4,.4c0,.2,.2,.4,.4,.4m3.9,0h2.3c.2,0,.4,-.2,.4,-.4c0,-.2,-.2,-.4,-.4,-.4h-2.3c-.2,0,-.4,.2,-.4,.4c0,.2,.2,.4,.4,.4m3.9,0h2.3c.2,0,.4,-.2,.4,-.4c0,-.2,-.2,-.4,-.4,-.4h-2.3c-.2,0,-.4,.2,-.4,.4c0,.2,.2,.4,.4,.4m3.9,0h2.3c.2,0,.4,-.2,.4,-.4c0,-.2,-.2,-.4,-.4,-.4h-2.3c-.2,0,-.4,.2,-.4,.4c0,.2,.2,.4,.4,.4m3.9,0h2.3c.2,0,.4,-.2,.4,-.4c0,-.2,-.2,-.4,-.4,-.4h-2.3c-.3,0,-.4,.2,-.4,.4c0,.2,.1,.4,.4,.4m3.8,0h2.4c.2,0,.3,-.2,.3,-.4c0,-.2,-.1,-.4,-.3,-.4H672c-.2,0,-.3,.2,-.3,.4c0,.2,.1,.4,.3,.4Z" class="gb_12"/>
<path d="M652.8,296h2.3c.2,0,.4,-.2,.4,-.4c0,-.2,-.2,-.4,-.4,-.4h-2.3c-.2,0,-.4,.2,-.4,.4c0,.2,.2,.4,.4,.4m3.9,0H659c.2,0,.4,-.2,.4,-.4c0,-.2,-.2,-.4,-.4,-.4h-2.3c-.2,0,-.4,.2,-.4,.4c0,.2,.2,.4,.4,.4m3.8,0h2.3c.2,0,.4,-.2,.4,-.4c0,-.2,-.2,-.4,-.4,-.4h-2.3c-.2,0,-.4,.2,-.4,.4c0,.2,.2,.4,.4,.4m3.9,0h2.3c.2,0,.3,-.2,.3,-.4c0,-.2,-.1,-.4,-.3,-.4h-2.3c-.2,0,-.4,.2,-.4,.4c0,.2,.2,.4,.4,.4m3.8,0h2.3c.2,0,.4,-.2,.4,-.4c0,-.2,-.2,-.4,-.4,-.4h-2.3c-.2,0,-.4,.2,-.4,.4c0,.2,.2,.4,.4,.4m3.9,0h2.3c.2,0,.3,-.2,.3,-.4c0,-.2,-.1,-.4,-.3,-.4h-2.3c-.3,0,-.4,.2,-.4,.4c0,.2,.1,.4,.4,.4Z" class="gb_12"/>
<path d="M649.4,307.7c0,3.4,-.1,6.8,0,10.1c.1,3.1,-1.4,5.4,-4.5,6.8c-3.3,1.4,-6.5,1.1,-9.5,-.7c-.4,-.3,-.9,-.5,-1.1,-.9c-.2,-.2,-.1,-.7,0,-.9c.2,-.2,.7,-.1,1,0c.2,0,.4,.3,.6,.4c3.1,2.3,8,2,10.5,-.7c1.1,-1.1,1.5,-2.4,1.5,-3.8c0,-6.8,-.1,-13.6,0,-20.4c0,-2.5,-1.1,-4.4,-3.6,-5.5c-2.6,-1.2,-5.3,-1.1,-7.8,.3c-.3,.2,-.6,.4,-.9,.7c-.4,.3,-.9,.5,-1.2,0c-.2,-.2,-.1,-.8,.2,-1c1.1,-1,2.5,-1.7,4.1,-2c4.7,-1,9.6,1.5,10.5,5.5c.2,.5,.2,1.1,.2,1.7c0,3.4,0,6.9,0,10.4Z" class="gb_12"/>
<path d="M634.3,299.8c-1.7,-.3,-2.2,-1.4,-1.5,-3c.5,-1,1.3,-1.5,2.4,-1.8c1.5,-.5,3.2,-.5,4.7,-.1c2,.7,3.2,2.5,3,4.5c-.2,2,-1.8,3.7,-3.7,3.9c-2.1,.2,-3.9,-.8,-4.7,-2.8c-.1,-.2,-.1,-.4,-.2,-.7m7.1,0c-1.4,-.4,-1.6,-.6,-2.3,-1.8c-.1,-.3,-.3,-.6,-.4,-.9c-.7,-.9,-1.4,-1,-2.2,-.2c-.9,.9,-1.1,2.2,-.6,3.3c.5,1.1,1.5,1.8,2.8,1.7c1.3,0,2.2,-.7,2.7,-2.1m.1,-1.6c.1,-1,-1.8,-1.6,-1.8,-1.6c.5,1.7,1.7,2.1,1.8,1.6M635,296.5c-1.9,.8,-.9,2.3,-.8,1.9c0,0,.2,-1.2,.8,-1.9Z" class="gb_12"/>
<path d="M634.3,309.1c-1.7,-.3,-2.2,-1.4,-1.5,-3c.5,-1,1.3,-1.5,2.4,-1.8c1.5,-.5,3.2,-.5,4.7,0c2,.6,3.2,2.4,3,4.5c-.2,1.9,-1.8,3.6,-3.7,3.8c-2.1,.3,-3.9,-.8,-4.7,-2.8c-.1,-.2,-.1,-.4,-.2,-.7m7.1,0c-1.4,-.4,-1.6,-.6,-2.3,-1.8c-.1,-.3,-.3,-.6,-.4,-.9c-.7,-.9,-1.4,-1,-2.2,-.1c-.9,.8,-1.1,2.1,-.6,3.2c.5,1.1,1.5,1.8,2.8,1.8c1.3,-.1,2.2,-.8,2.7,-2.2m.1,-1.6c.1,-1,-1.8,-1.6,-1.8,-1.6c.5,1.7,1.7,2.2,1.8,1.6M635,305.8c-1.9,.8,-.9,2.3,-.8,1.9c0,0,.2,-1.2,.8,-1.9Z" class="gb_12"/>
<path d="M634.3,318.2c-1.7,-.2,-2.2,-1.4,-1.5,-3c.5,-1,1.3,-1.5,2.4,-1.8c1.5,-.5,3.2,-.5,4.7,0c2,.6,3.2,2.5,3,4.5c-.2,1.9,-1.8,3.6,-3.7,3.8c-2.1,.3,-3.9,-.8,-4.7,-2.8c-.1,-.2,-.1,-.4,-.2,-.7m7.1,0c-1.4,-.4,-1.6,-.6,-2.3,-1.8c-.1,-.3,-.3,-.6,-.4,-.9c-.7,-.9,-1.4,-1,-2.2,-.1c-.9,.8,-1.1,2.1,-.6,3.2c.5,1.1,1.5,1.8,2.8,1.8c1.3,-.1,2.2,-.8,2.7,-2.2m.1,-1.6c.1,-1,-1.8,-1.6,-1.8,-1.6c.5,1.7,1.7,2.2,1.8,1.6M635,314.9c-1.9,.8,-.9,2.3,-.8,1.9c0,0,.2,-1.2,.8,-1.9Z" class="gb_12"/>
<path d="M630.5,312.7l-5.3,-5.5c-.2,-.2,-.6,-.3,-.9,0c-.2,.2,-.2,.6,0,.9l5.3,5.5c.2,.2,.6,.3,.8,0c.3,-.2,.3,-.6,.1,-.9Z" class="gb_12"/>
<path d="M630.5,320.4l-5.3,5.5c-.2,.3,-.6,.3,-.9,0c-.2,-.2,-.2,-.6,0,-.8l5.3,-5.6c.2,-.2,.6,-.2,.8,0c.3,.2,.3,.6,.1,.9Z" class="gb_12"/>
<path d="M629.3,314.7L622,313.3c-.3,0,-.7,.2,-.7,.5c-.1,.4,.1,.7,.5,.8L629,316c.4,0,.7,-.2,.7,-.5c.1,-.4,-.1,-.7,-.4,-.8Z" class="gb_12"/>
<path d="M629.3,318.4l-7.3,1.4c-.3,.1,-.7,-.2,-.7,-.5c-.1,-.3,.1,-.7,.5,-.7l7.2,-1.4c.4,-.1,.7,.1,.7,.5c.1,.3,-.1,.6,-.4,.7Z" class="gb_12"/>
<path d="M890,1286.2h19.4V0H890V1286.2Z" class="g3_12"/>
</svg>