<?xml version="1.0" encoding="UTF-8" standalone="no"?>
<!DOCTYPE svg PUBLIC "-//W3C//DTD SVG 1.1//EN"
"http://www.w3.org/Graphics/SVG/1.1/DTD/svg11.dtd">
<svg viewBox="0 0 909 1286" version="1.1" xmlns="http://www.w3.org/2000/svg" xmlns:xlink="http://www.w3.org/1999/xlink">
<defs>
<clipPath id="c0_28"><path d="M324.8,48.7V0H431.1V48.7Z"/></clipPath>
<clipPath id="c1_28"><path d="M431,48.7V0H537.4V48.7Z"/></clipPath>
<clipPath id="c2_28"><path d="M537.3,48.7V0H643.8V48.7Z"/></clipPath>
<clipPath id="c3_28"><path d="M643.6,48.7V0H750.1V48.7Z"/></clipPath>
<clipPath id="c4_28"><path d="M749.9,48.7V0H856.4V43.3H832v5.4Z"/></clipPath>
<clipPath id="c5_28"><path d="M856.3,97.2V55.4h12V43.3h-12V0h53.1V97.2Z"/></clipPath>
<clipPath id="c6_28"><path d="M324.8,97.2V48.5H431.1V97.2Z"/></clipPath>
<clipPath id="c7_28"><path d="M749.9,97.2V48.5H832v6.9h24.4V97.2Z"/></clipPath>
<clipPath id="c8_28"><path d="M324.8,145.9V97.1H431.1v48.8Z"/></clipPath>
<clipPath id="c9_28"><path d="M431,145.9V97.1H537.4v48.8Z"/></clipPath>
<clipPath id="ca_28"><path d="M537.3,145.9V97.1H643.8v48.8Z"/></clipPath>
<clipPath id="cb_28"><path d="M643.6,145.9V97.1H750.1v48.8Z"/></clipPath>
<clipPath id="cc_28"><path d="M749.9,145.9V97.1H856.4v48.8Z"/></clipPath>
<clipPath id="cd_28"><path d="M856.3,194.5V97.1h53.1v97.4Z"/></clipPath>
<clipPath id="ce_28"><path d="M324.8,194.5V145.7H431.1v48.8Z"/></clipPath>
<clipPath id="cf_28"><path d="M324.8,243.1V194.3H431.1v48.8Z"/></clipPath>
<clipPath id="cg_28"><path d="M431,243.1V194.3H537.4v48.8Z"/></clipPath>
<clipPath id="ch_28"><path d="M537.3,243.1V194.3H643.8v48.8Z"/></clipPath>
<clipPath id="ci_28"><path d="M643.6,243.1V194.3H750.1v48.8Z"/></clipPath>
<clipPath id="cj_28"><path d="M749.9,243.1V194.3H856.4v48.8Z"/></clipPath>
<clipPath id="ck_28"><path d="M866.8,291.7V268H856.3V194.3h53.1v97.4Z"/></clipPath>
<clipPath id="cl_28"><path d="M324.8,291.7V242.9H431.1V268H417v23.7Z"/></clipPath>
<clipPath id="cm_28"><path d="M431,268V242.9H537.4V268Z"/></clipPath>
<clipPath id="cn_28"><path d="M537.3,268V242.9H643.8V268Z"/></clipPath>
<clipPath id="co_28"><path d="M643.6,268V242.9H750.1V268Z"/></clipPath>
<clipPath id="cp_28"><path d="M749.9,268V242.9H856.4V268Z"/></clipPath>
<clipPath id="cq_28"><path d="M324.8,340.2V291.5H417v48.7Z"/></clipPath>
<clipPath id="cr_28"><path d="M866.8,340.2V291.5h42.6v48.7Z"/></clipPath>
<clipPath id="cs_28"><path d="M832,55.4V43.3h36.3V55.4Z"/></clipPath>
<clipPath id="ct_28"><path d="M417,361.7V340.2h88.1v21.5Z"/></clipPath>
<clipPath id="cu_28"><path d="M417,304.1V268h88.1v36.1Z"/></clipPath>
<clipPath id="cv_28"><path d="M417,340.2V304h88.1v36.2Z"/></clipPath>
<clipPath id="cw_28"><path d="M417,369.2V364h88.1v5.2Z"/></clipPath>
<clipPath id="cx_28"><path d="M417,364v-2.3h88.1V364Z"/></clipPath>
<clipPath id="cy_28"><path d="M514.3,361.7V340.2h78.8v21.5Z"/></clipPath>
<clipPath id="cz_28"><path d="M514.3,304.1V268h78.8v36.1Z"/></clipPath>
<clipPath id="c10_28"><path d="M514.3,340.2V304h78.8v36.2Z"/></clipPath>
<clipPath id="c11_28"><path d="M514.3,369.2V364h78.8v5.2Z"/></clipPath>
<clipPath id="c12_28"><path d="M514.3,364v-2.3h78.8V364Z"/></clipPath>
<clipPath id="c13_28"><path d="M505.1,361.7V340.2h9.2v21.5Z"/></clipPath>
<clipPath id="c14_28"><path d="M505.1,340.2V268h9.2v72.2Z"/></clipPath>
<clipPath id="c15_28"><path d="M505.1,369.2V364h9.2v5.2Z"/></clipPath>
<clipPath id="c16_28"><path d="M505.1,364v-2.3h9.2V364Z"/></clipPath>
<clipPath id="c17_28"><path d="M778.7,369.2V364h87.4v-2.3h-11V340.2h11.7v29Z"/></clipPath>
<clipPath id="c18_28"><path d="M855.1,304.1V299c0,-3.9,-1.2,-7.5,-3.3,-10.5v-2.6h-2.2c-3.3,-3.2,-7.8,-5.2,-12.8,-5.2H794.4c-5,0,-9.5,2,-12.8,5.2h-2.5V289c-.2,.2,-.3,.4,-.4,.6V268h88.1v36.1Z"/></clipPath>
<clipPath id="c19_28"><path d="M855.1,340.2V304h11.7v36.2Z"/></clipPath>
<clipPath id="c1a_28"><path d="M855.1,364v-2.3h11V364Z"/></clipPath>
<clipPath id="c1b_28"><path d="M779.1,289v-3.1h2.5c-1,.9,-1.8,2,-2.5,3.1Zm72.7,-.5c-.6,-.9,-1.4,-1.8,-2.2,-2.6h2.2v2.6Z"/></clipPath>
<clipPath id="c1c_28"><path d="M690.5,369.2V364h78.9v5.2ZM767,361.7V340.2h2.4v21.5Z"/></clipPath>
<clipPath id="c1d_28"><path d="M767,304.1V299c0,-10.1,-8.2,-18.3,-18.3,-18.3H706.3c-6.7,0,-12.6,3.6,-15.8,9.1V268h78.9v36.1Z"/></clipPath>
<clipPath id="c1e_28"><path d="M767,340.2V304h2.4v36.2Z"/></clipPath>
<clipPath id="c1f_28"><path d="M767,364v-2.3h2.4V364Z"/></clipPath>
<clipPath id="c1g_28"><path d="M769.4,369.2V364h9.3v5.2Zm0,-7.5V340.2h6.7v16.7H776v4.8Z"/></clipPath>
<clipPath id="c1h_28"><path d="M769.4,340.2V268h9.3v21.6c-1.7,2.7,-2.6,6,-2.6,9.4v41.2Z"/></clipPath>
<clipPath id="c1i_28"><path d="M769.4,364v-2.3H776V364Z"/></clipPath>
<clipPath id="c1j_28"><path d="M776.1,356.9V299c0,-3.4,.9,-6.7,2.6,-9.4v67.3Z"/></clipPath>
<clipPath id="c1k_28"><path d="M776,364v-7.1h2.7V364Z"/></clipPath>
<clipPath id="c1l_28"><path d="M602.5,369.2V364h78.8v5.2Zm0,-7.5V340.2h78.8v21.5Z"/></clipPath>
<clipPath id="c1m_28"><path d="M602.5,304.1V268h78.8v36.1Z"/></clipPath>
<clipPath id="c1n_28"><path d="M602.5,340.2V304h78.8v36.2Z"/></clipPath>
<clipPath id="c1o_28"><path d="M602.5,364v-2.3h78.8V364Z"/></clipPath>
<clipPath id="c1p_28"><path d="M593.1,361.7V340.2h9.4v21.5Z"/></clipPath>
<clipPath id="c1q_28"><path d="M593.1,340.2V268h9.4v72.2Z"/></clipPath>
<clipPath id="c1r_28"><path d="M593.1,369.2V364h9.4v5.2Z"/></clipPath>
<clipPath id="c1s_28"><path d="M593.1,364v-2.3h9.4V364Z"/></clipPath>
<clipPath id="c1t_28"><path d="M681.3,369.2V364h9.2v5.2Zm0,-7.5V340.2H688v16.7h-.1v4.8Z"/></clipPath>
<clipPath id="c1u_28"><path d="M681.3,340.2V268h9.2v21.8c-1.6,2.7,-2.5,5.8,-2.5,9.2v41.2Z"/></clipPath>
<clipPath id="c1v_28"><path d="M681.3,364v-2.3h6.6V364Z"/></clipPath>
<clipPath id="c1w_28"><path d="M688,356.9V299c0,-3.4,.9,-6.5,2.5,-9.2v67.1Z"/></clipPath>
<clipPath id="c1x_28"><path d="M687.9,364v-7.1h2.6V364Z"/></clipPath>
<style type="text/css"><![CDATA[
.g0_28{
fill: #E7E8E8;
}
.g1_28{
fill: #1B1661;
}
.g2_28{
fill: #DCDDDE;
}
.g3_28{
fill: #FFF;
}
.g4_28{
fill: #ED1A40;
}
.g5_28{
fill: #FCB61D;
}
.g6_28{
fill: #FEE6BB;
}
.g7_28{
fill: #5AC4C1;
}
.g8_28{
fill: #09B795;
}
.g9_28{
fill: #F37537;
}
.ga_28{
fill: #5180C1;
}
.gb_28{
fill: #CFCBCA;
}
]]></style>
</defs>
<path d="M43.3,1241.3H303.1V895H43.3v346.3Z" class="g0_28"/>
<path d="M43.3,895H303.1v27.7H43.3V895Z" class="g1_28"/>
<path d="M43.3,922.7H303.1v26.1H43.3V922.7Zm0,280.3H303.1v38.3H43.3V1203Z" class="g2_28"/>
<path d="M43.3,949.2H303.1v-.8H43.3v.8Z" class="g3_28"/>
<path d="M43.3,1203.4H303.1v-.8H43.3v.8Z" class="g3_28"/>
<path d="M62.4,906.6l-1,-.6c-.2,-.2,-.6,-.1,-.8,.1l-4.7,7l-2.1,-2.2c-.2,-.2,-.6,-.2,-.8,0l-.9,.8c-.2,.3,-.2,.6,0,.8l3.4,3.4c.1,.2,.4,.3,.7,.3c.3,0,.5,-.2,.7,-.4l5.7,-8.4c.1,-.2,.1,-.6,-.2,-.8Z" class="g3_28"/>
<path d="M47.6,238.4c-2.4,0,-4.3,2,-4.3,4.4v39.7c0,2.4,1.9,4.3,4.3,4.3H298.8c2.4,0,4.3,-1.9,4.3,-4.3V242.8c0,-2.4,-1.9,-4.4,-4.3,-4.4Z" class="g4_28"/>
<path d="M164.1,269h69.7v-.9H164.1Z" class="g3_28"/>
<image clip-path="url(#c0_28)" preserveAspectRatio="none" x="325" y="0" width="106" height="49" xlink:href="img/1.jpg"/>
<image clip-path="url(#c1_28)" preserveAspectRatio="none" x="431" y="0" width="106" height="49" xlink:href="img/2.jpg"/>
<image clip-path="url(#c2_28)" preserveAspectRatio="none" x="537" y="0" width="107" height="49" xlink:href="img/3.jpg"/>
<image clip-path="url(#c3_28)" preserveAspectRatio="none" x="644" y="0" width="106" height="49" xlink:href="img/4.jpg"/>
<image clip-path="url(#c4_28)" preserveAspectRatio="none" x="750" y="0" width="106" height="49" xlink:href="img/5.jpg"/>
<image clip-path="url(#c5_28)" preserveAspectRatio="none" x="856" y="0" width="54" height="97" xlink:href="img/6.jpg"/>
<image clip-path="url(#c6_28)" preserveAspectRatio="none" x="325" y="49" width="106" height="48" xlink:href="img/7.jpg"/>
<image preserveAspectRatio="none" x="431" y="49" width="106" height="48" xlink:href="img/8.jpg"/>
<image preserveAspectRatio="none" x="537" y="49" width="107" height="48" xlink:href="img/9.jpg"/>
<image preserveAspectRatio="none" x="644" y="49" width="106" height="48" xlink:href="img/10.jpg"/>
<image clip-path="url(#c7_28)" preserveAspectRatio="none" x="750" y="49" width="106" height="48" xlink:href="img/11.jpg"/>
<image clip-path="url(#c8_28)" preserveAspectRatio="none" x="325" y="97" width="106" height="49" xlink:href="img/12.jpg"/>
<image clip-path="url(#c9_28)" preserveAspectRatio="none" x="431" y="97" width="106" height="49" xlink:href="img/13.jpg"/>
<image clip-path="url(#ca_28)" preserveAspectRatio="none" x="537" y="97" width="107" height="49" xlink:href="img/14.jpg"/>
<image clip-path="url(#cb_28)" preserveAspectRatio="none" x="644" y="97" width="106" height="49" xlink:href="img/15.jpg"/>
<image clip-path="url(#cc_28)" preserveAspectRatio="none" x="750" y="97" width="106" height="49" xlink:href="img/16.jpg"/>
<image clip-path="url(#cd_28)" preserveAspectRatio="none" x="856" y="97" width="54" height="97" xlink:href="img/17.jpg"/>
<image clip-path="url(#ce_28)" preserveAspectRatio="none" x="325" y="146" width="106" height="48" xlink:href="img/18.jpg"/>
<image preserveAspectRatio="none" x="431" y="146" width="106" height="48" xlink:href="img/19.jpg"/>
<image preserveAspectRatio="none" x="537" y="146" width="107" height="48" xlink:href="img/20.jpg"/>
<image preserveAspectRatio="none" x="644" y="146" width="106" height="48" xlink:href="img/21.jpg"/>
<image preserveAspectRatio="none" x="750" y="146" width="106" height="48" xlink:href="img/22.jpg"/>
<image clip-path="url(#cf_28)" preserveAspectRatio="none" x="325" y="194" width="106" height="49" xlink:href="img/23.jpg"/>
<image clip-path="url(#cg_28)" preserveAspectRatio="none" x="431" y="194" width="106" height="49" xlink:href="img/24.jpg"/>
<image clip-path="url(#ch_28)" preserveAspectRatio="none" x="537" y="194" width="107" height="49" xlink:href="img/25.jpg"/>
<image clip-path="url(#ci_28)" preserveAspectRatio="none" x="644" y="194" width="106" height="49" xlink:href="img/26.jpg"/>
<image clip-path="url(#cj_28)" preserveAspectRatio="none" x="750" y="194" width="106" height="49" xlink:href="img/27.jpg"/>
<image clip-path="url(#ck_28)" preserveAspectRatio="none" x="856" y="194" width="54" height="98" xlink:href="img/28.jpg"/>
<image clip-path="url(#cl_28)" preserveAspectRatio="none" x="325" y="243" width="106" height="49" xlink:href="img/29.jpg"/>
<image clip-path="url(#cm_28)" preserveAspectRatio="none" x="431" y="243" width="106" height="49" xlink:href="img/30.jpg"/>
<image clip-path="url(#cn_28)" preserveAspectRatio="none" x="537" y="243" width="107" height="49" xlink:href="img/31.jpg"/>
<image clip-path="url(#co_28)" preserveAspectRatio="none" x="644" y="243" width="106" height="49" xlink:href="img/32.jpg"/>
<image clip-path="url(#cp_28)" preserveAspectRatio="none" x="750" y="243" width="106" height="49" xlink:href="img/33.jpg"/>
<image clip-path="url(#cq_28)" preserveAspectRatio="none" x="325" y="292" width="106" height="48" xlink:href="img/34.jpg"/>
<image clip-path="url(#cr_28)" preserveAspectRatio="none" x="856" y="292" width="54" height="48" xlink:href="img/35.jpg"/>
<image clip-path="url(#cs_28)" preserveAspectRatio="none" x="832" y="43" width="36" height="13" xlink:href="img/36.jpg"/>
<path d="M607.1,976.4h-.8v266.4H866.1V975.6H606.3v.8h.8v.7H864.6v264.2H607.8V976.4h-.7v.7Z" class="g1_28"/>
<path d="M651.3,982.3H821.1V968.6H651.3Z" class="g3_28"/>
<path d="M324.8,1242.8H584.6V1068.7H324.8v174.1Z" class="g0_28"/>
<path d="M324.8,1068.7H584.6V1095H324.8v-26.3Z" class="g1_28"/>
<path d="M324.8,1095H511.6v22.1H324.8V1095Zm186.8,0h73v22.1h-73V1095Zm-186.8,44.3H511.6v22.1H324.8v-22.1Zm186.8,0h73v22.1h-73v-22.1Zm-186.8,44.3H511.6v38.2H324.8v-38.2Zm186.8,0h73v38.2h-73v-38.2Z" class="g2_28"/>
<path d="M324.8,1222.6H511.6V1221H324.8Z" class="g3_28"/>
<path d="M511.6,1222.6h73V1221h-73Z" class="g3_28"/>
<path d="M343.9,1078.9l-1,-.6c-.2,-.2,-.6,-.2,-.8,.1l-4.7,6.9l-2.1,-2.1c-.3,-.2,-.6,-.2,-.8,0l-.9,.8c-.2,.2,-.2,.6,0,.8l3.4,3.3c.1,.2,.4,.4,.7,.4c.3,0,.5,-.2,.7,-.4l5.7,-8.4c.1,-.2,.1,-.6,-.2,-.8Z" class="g3_28"/>
<path d="M43.3,185H78v40.4H43.3V185Z" class="g3_28"/>
<image x="77" y="184" width="226" height="42" xlink:href="shade/1.png"/>
<path d="M78,206.1H302.8v-1.5H78Z" class="g5_28"/>
<path d="M61.2,223.9c9.8,0,17.8,-8,17.8,-17.8c0,-9.9,-8,-17.9,-17.8,-17.9c-9.9,0,-17.9,8,-17.9,17.9c0,9.8,8,17.8,17.9,17.8Z" class="g5_28"/>
<path d="M71.6,207.8c0,.8,.2,1.5,.2,2.2c0,2,-1,3.6,-2.7,4.7c-1.3,.8,-2.8,1.2,-4.3,1.3c-2.4,0,-4.8,0,-7.2,0c-1.7,-.1,-3.2,-.5,-4.5,-1.4c-2,-1.4,-2.8,-3.2,-2.5,-5.6c.2,-2,.3,-3.9,.4,-5.9c0,-1.8,0,-3.6,-.1,-5.4c0,-2.2,.9,-3.8,2.5,-5c1.5,-1.1,3.2,-1.6,4.9,-1.6c2,0,3.9,0,5.8,0c1.6,0,3.2,.5,4.6,1.4c1.9,1.4,2.9,3.2,2.7,5.6c-.1,1.2,0,2.4,0,3.6c-.1,.1,.1,4.1,.2,6.1M61.2,192.4v-.1c-1,0,-1.9,0,-2.9,0c-1.3,0,-2.5,.3,-3.6,1c-1.6,.9,-2.7,2.2,-2.6,4.2c.1,.8,.3,1.7,.6,2.5c.4,1.3,1.1,2.6,2.2,3.5c.2,.2,.2,.6,-.1,.9c-.6,.6,-1.3,1.2,-2.1,1.5c-.6,.2,-.7,.5,-.7,1c-.1,.5,.1,.8,.4,1.2c.8,.8,1.7,1.4,2.7,1.8c1.8,.7,3.7,1,5.6,1c2,0,4.1,-.1,6,-.8c1.4,-.5,2.6,-1.2,3.4,-2.3c.1,-.2,.2,-.3,.2,-.5c0,-.3,0,-.6,0,-1l-.2,-.2c-1.1,-.4,-1.9,-1,-2.6,-1.7c-.3,-.3,-.3,-.7,0,-1c.4,-.4,.9,-.9,1.2,-1.4c.8,-1.3,1.2,-2.6,1.4,-4c.2,-1.2,0,-2.2,-.7,-3.2c-1.2,-1.5,-2.8,-2.3,-4.7,-2.4c-1.1,-.1,-2.3,0,-3.5,0m-9.4,16.5c-.3,1.6,0,3,1.3,4.2c1.3,1.2,2.8,1.7,4.6,1.7c2.3,0,4.6,0,6.9,0c.8,0,1.6,-.1,2.4,-.4c1.4,-.5,2.5,-1.3,3.2,-2.6c.5,-1,.5,-2,.3,-3l-.1,.1c-1.1,1.4,-2.6,2.1,-4.3,2.6c-2.9,.8,-5.7,.8,-8.6,.3c-1.4,-.2,-2.8,-.7,-3.9,-1.5c-.7,-.4,-1.2,-.9,-1.8,-1.4Z" class="g6_28"/>
<path d="M55.8,216.4c-.5,.4,-1,.7,-1.5,1.1c-.5,.4,-1.7,1.4,-2.2,1.8c-.3,.2,-.6,.2,-.8,.1l-.3,-.3c-.1,-.3,0,-.5,.2,-.6c.3,-.3,1.4,-1.2,1.7,-1.4c.4,-.4,.9,-.7,1.3,-1l.4,-.1c.4,.1,.8,.2,1.2,.4Z" class="g6_28"/>
<path d="M66.5,216.4c.5,-.2,.9,-.3,1.3,-.4l.3,.1c.7,.6,2.3,1.7,3,2.3c.1,.1,.3,.3,.3,.4c.1,.2,.1,.5,-.2,.6c-.2,.1,-.5,.1,-.7,0c-1.1,-.7,-2.9,-2.2,-4,-3Z" class="g6_28"/>
<path d="M61.1,203c-1.1,0,-2.1,.1,-3.2,0c-2,-.1,-3.5,-1.6,-3.9,-3.5c-.1,-.5,-.2,-1,-.3,-1.5c-.3,-1.9,1,-3.6,3,-3.6c3,0,6,0,8.9,0c1.9,0,3.2,1.5,3,3.4c-.1,1,-.2,2.1,-.8,3.1c-.9,1.4,-2.2,2.1,-3.9,2.1c-.9,0,-1.9,0,-2.8,0Z" class="g6_28"/>
<path d="M65.7,205.7c.3,0,.5,0,.8,0c.4,0,.7,.3,.6,.6c-.5,.9,-1,1.7,-1.5,2.6c-.1,.2,-.3,.3,-.6,.3c-.5,0,-1.1,0,-1.6,0c-.5,0,-.7,-.3,-.6,-.7c.5,-.8,1,-1.6,1.5,-2.5c.1,-.2,.3,-.3,.7,-.3c.2,0,.4,0,.7,0Z" class="g6_28"/>
<path d="M58.1,209.2c-.2,0,-.5,0,-.7,0c-.3,0,-.6,-.1,-.7,-.4c-.5,-.8,-1,-1.6,-1.4,-2.4c-.2,-.4,0,-.7,.6,-.7c.5,0,1,0,1.5,0c.3,0,.5,.1,.6,.3c.5,.9,1,1.7,1.5,2.5c.2,.3,-.1,.6,-.6,.7c-.2,0,-.5,0,-.8,0Z" class="g6_28"/>
<path d="M62.2,213.5c0,.6,-.5,1,-1,1c-.6,0,-1.1,-.4,-1.1,-1c0,-.5,.5,-1,1,-1c.6,0,1.1,.4,1.1,1Z" class="g6_28"/>
<path d="M324.8,364H866.1v-2.3H324.8V364Z" class="g7_28"/>
<image clip-path="url(#ct_28)" preserveAspectRatio="none" x="416" y="339" width="90" height="23" xlink:href="img/37.jpg"/>
<image clip-path="url(#cu_28)" preserveAspectRatio="none" x="417" y="268" width="88" height="36" xlink:href="img/38.jpg"/>
<image clip-path="url(#cv_28)" preserveAspectRatio="none" x="417" y="304" width="88" height="36" xlink:href="img/39.jpg"/>
<image clip-path="url(#cw_28)" preserveAspectRatio="none" x="416" y="364" width="99" height="6" xlink:href="img/40.jpg"/>
<image clip-path="url(#cx_28)" preserveAspectRatio="none" x="416" y="361" width="90" height="4" xlink:href="img/41.jpg"/>
<path d="M442,280.7c-10.2,0,-18.4,8.2,-18.4,18.3v64.1h79.1V299c0,-10.1,-8.3,-18.3,-18.4,-18.3Z" class="g3_28"/>
<path d="M429.8,306.8h2.3c.2,0,.4,-.1,.4,-.3c0,-.3,-.2,-.4,-.4,-.4h-2.3c-.2,0,-.4,.1,-.4,.4c0,.2,.2,.3,.4,.3m3.9,0H436c.2,0,.4,-.1,.4,-.3c0,-.3,-.2,-.4,-.4,-.4h-2.3c-.2,0,-.4,.1,-.4,.4c0,.2,.2,.3,.4,.3m3.9,0h2.3c.2,0,.4,-.1,.4,-.3c0,-.3,-.2,-.4,-.4,-.4h-2.3c-.2,0,-.4,.1,-.4,.4c0,.2,.2,.3,.4,.3m3.8,0h2.4c.2,0,.3,-.1,.3,-.3c0,-.3,-.1,-.4,-.3,-.4h-2.4c-.2,0,-.3,.1,-.3,.4c0,.2,.1,.3,.3,.3m3.9,0h2.3c.3,0,.4,-.1,.4,-.3c0,-.3,-.1,-.4,-.4,-.4h-2.3c-.2,0,-.4,.1,-.4,.4c0,.2,.2,.3,.4,.3m3.9,0h2.3c.2,0,.4,-.1,.4,-.3c0,-.3,-.2,-.4,-.4,-.4h-2.3c-.2,0,-.4,.1,-.4,.4c0,.2,.2,.3,.4,.3m3.9,0h2.3c.2,0,.4,-.1,.4,-.3c0,-.3,-.2,-.4,-.4,-.4h-2.3c-.2,0,-.4,.1,-.4,.4c0,.2,.2,.3,.4,.3m3.9,0h2.3c.2,0,.4,-.1,.4,-.3c0,-.3,-.2,-.4,-.4,-.4H457c-.2,0,-.4,.1,-.4,.4c0,.2,.2,.3,.4,.3m3.9,0h2.3c.2,0,.4,-.1,.4,-.3c0,-.3,-.2,-.4,-.4,-.4h-2.3c-.3,0,-.4,.1,-.4,.4c0,.2,.1,.3,.4,.3m3.8,0h2.4c.2,0,.3,-.1,.3,-.3c0,-.3,-.1,-.4,-.3,-.4h-2.4c-.2,0,-.3,.1,-.3,.4c0,.2,.1,.3,.3,.3m3.9,0h2.3c.3,0,.4,-.1,.4,-.3c0,-.3,-.1,-.4,-.4,-.4h-2.3c-.2,0,-.4,.1,-.4,.4c0,.2,.2,.3,.4,.3m3.9,0h2.3c.2,0,.4,-.1,.4,-.3c0,-.3,-.2,-.4,-.4,-.4h-2.3c-.2,0,-.4,.1,-.4,.4c0,.2,.2,.3,.4,.3m3.9,0h2.3c.2,0,.4,-.1,.4,-.3c0,-.3,-.2,-.4,-.4,-.4h-2.3c-.2,0,-.4,.1,-.4,.4c0,.2,.2,.3,.4,.3m3.9,0h2.3c.2,0,.4,-.1,.4,-.3c0,-.3,-.2,-.4,-.4,-.4h-2.3c-.2,0,-.4,.1,-.4,.4c0,.2,.2,.3,.4,.3m3.8,0h2.4c.2,0,.4,-.1,.4,-.3c0,-.3,-.2,-.4,-.4,-.4h-2.4c-.2,0,-.3,.1,-.3,.4c0,.2,.1,.3,.3,.3m3.9,0h2.4c.2,0,.3,-.1,.3,-.3c0,-.3,-.1,-.4,-.3,-.4H488c-.2,0,-.4,.1,-.4,.4c0,.2,.2,.3,.4,.3m3.9,0h2.3c.2,0,.4,-.1,.4,-.3c0,-.3,-.2,-.4,-.4,-.4h-2.3c-.2,0,-.4,.1,-.4,.4c0,.2,.2,.3,.4,.3m3.9,0h2.3c.2,0,.4,-.1,.4,-.3c0,-.3,-.2,-.4,-.4,-.4h-2.3c-.2,0,-.4,.1,-.4,.4c0,.2,.2,.3,.4,.3Z" class="g4_28"/>
<path d="M429.8,339.1h2.3c.2,0,.4,-.2,.4,-.4c0,-.2,-.2,-.4,-.4,-.4h-2.3c-.2,0,-.4,.2,-.4,.4c0,.2,.2,.4,.4,.4m3.9,0H436c.2,0,.4,-.2,.4,-.4c0,-.2,-.2,-.4,-.4,-.4h-2.3c-.2,0,-.4,.2,-.4,.4c0,.2,.2,.4,.4,.4m3.9,0h2.3c.2,0,.4,-.2,.4,-.4c0,-.2,-.2,-.4,-.4,-.4h-2.3c-.2,0,-.4,.2,-.4,.4c0,.2,.2,.4,.4,.4m3.8,0h2.4c.2,0,.3,-.2,.3,-.4c0,-.2,-.1,-.4,-.3,-.4h-2.4c-.2,0,-.3,.2,-.3,.4c0,.2,.1,.4,.3,.4m3.9,0h2.3c.3,0,.4,-.2,.4,-.4c0,-.2,-.1,-.4,-.4,-.4h-2.3c-.2,0,-.4,.2,-.4,.4c0,.2,.2,.4,.4,.4m3.9,0h2.3c.2,0,.4,-.2,.4,-.4c0,-.2,-.2,-.4,-.4,-.4h-2.3c-.2,0,-.4,.2,-.4,.4c0,.2,.2,.4,.4,.4m3.9,0h2.3c.2,0,.4,-.2,.4,-.4c0,-.2,-.2,-.4,-.4,-.4h-2.3c-.2,0,-.4,.2,-.4,.4c0,.2,.2,.4,.4,.4m3.9,0h2.3c.2,0,.4,-.2,.4,-.4c0,-.2,-.2,-.4,-.4,-.4H457c-.2,0,-.4,.2,-.4,.4c0,.2,.2,.4,.4,.4m3.9,0h2.3c.2,0,.4,-.2,.4,-.4c0,-.2,-.2,-.4,-.4,-.4h-2.3c-.3,0,-.4,.2,-.4,.4c0,.2,.1,.4,.4,.4m3.8,0h2.4c.2,0,.3,-.2,.3,-.4c0,-.2,-.1,-.4,-.3,-.4h-2.4c-.2,0,-.3,.2,-.3,.4c0,.2,.1,.4,.3,.4m3.9,0h2.3c.3,0,.4,-.2,.4,-.4c0,-.2,-.1,-.4,-.4,-.4h-2.3c-.2,0,-.4,.2,-.4,.4c0,.2,.2,.4,.4,.4m3.9,0h2.3c.2,0,.4,-.2,.4,-.4c0,-.2,-.2,-.4,-.4,-.4h-2.3c-.2,0,-.4,.2,-.4,.4c0,.2,.2,.4,.4,.4m3.9,0h2.3c.2,0,.4,-.2,.4,-.4c0,-.2,-.2,-.4,-.4,-.4h-2.3c-.2,0,-.4,.2,-.4,.4c0,.2,.2,.4,.4,.4m3.9,0h2.3c.2,0,.4,-.2,.4,-.4c0,-.2,-.2,-.4,-.4,-.4h-2.3c-.2,0,-.4,.2,-.4,.4c0,.2,.2,.4,.4,.4m3.8,0h2.4c.2,0,.4,-.2,.4,-.4c0,-.2,-.2,-.4,-.4,-.4h-2.4c-.2,0,-.3,.2,-.3,.4c0,.2,.1,.4,.3,.4m3.9,0h2.4c.2,0,.3,-.2,.3,-.4c0,-.2,-.1,-.4,-.3,-.4H488c-.2,0,-.4,.2,-.4,.4c0,.2,.2,.4,.4,.4m3.9,0h2.3c.2,0,.4,-.2,.4,-.4c0,-.2,-.2,-.4,-.4,-.4h-2.3c-.2,0,-.4,.2,-.4,.4c0,.2,.2,.4,.4,.4m3.9,0h2.3c.2,0,.4,-.2,.4,-.4c0,-.2,-.2,-.4,-.4,-.4h-2.3c-.2,0,-.4,.2,-.4,.4c0,.2,.2,.4,.4,.4Z" class="g4_28"/>
<path d="M423.6,364h79v-6.7h-79V364Z" class="g7_28"/>
<image clip-path="url(#cy_28)" preserveAspectRatio="none" x="514" y="339" width="80" height="23" xlink:href="img/42.jpg"/>
<image clip-path="url(#cz_28)" preserveAspectRatio="none" x="505" y="268" width="88" height="36" xlink:href="img/43.jpg"/>
<image clip-path="url(#c10_28)" preserveAspectRatio="none" x="505" y="304" width="88" height="36" xlink:href="img/44.jpg"/>
<image clip-path="url(#c11_28)" preserveAspectRatio="none" x="514" y="364" width="89" height="6" xlink:href="img/45.jpg"/>
<image clip-path="url(#c12_28)" preserveAspectRatio="none" x="514" y="361" width="80" height="4" xlink:href="img/46.jpg"/>
<image clip-path="url(#c13_28)" preserveAspectRatio="none" x="504" y="339" width="11" height="24" xlink:href="img/47.jpg"/>
<image clip-path="url(#c14_28)" preserveAspectRatio="none" x="505" y="268" width="9" height="72" xlink:href="img/48.jpg"/>
<image clip-path="url(#c15_28)" preserveAspectRatio="none" x="504" y="363" width="11" height="7" xlink:href="img/49.jpg"/>
<image clip-path="url(#c16_28)" preserveAspectRatio="none" x="504" y="361" width="11" height="4" xlink:href="img/50.jpg"/>
<path d="M530.1,280.7c-10.1,0,-18.3,8.2,-18.3,18.3v64.1h79V299c0,-10.1,-8.2,-18.3,-18.4,-18.3Z" class="g3_28"/>
<path d="M511.7,364h79.1v-7.1H511.7V364Z" class="g7_28"/>
<path d="M517.9,306.8h2.6c.2,0,.3,-.1,.3,-.3c0,-.3,-.1,-.4,-.3,-.4h-2.6c-.2,0,-.4,.1,-.4,.4c0,.2,.2,.3,.4,.3m4.3,0h2.6c.2,0,.4,-.1,.4,-.3c0,-.3,-.2,-.4,-.4,-.4h-2.6c-.2,0,-.3,.1,-.3,.4c0,.2,.1,.3,.3,.3m4.3,0h2.6c.2,0,.4,-.1,.4,-.3c0,-.3,-.2,-.4,-.4,-.4h-2.6c-.2,0,-.3,.1,-.3,.4c0,.2,.1,.3,.3,.3m4.4,0h2.5c.2,0,.4,-.1,.4,-.3c0,-.3,-.2,-.4,-.4,-.4h-2.5c-.3,0,-.4,.1,-.4,.4c0,.2,.1,.3,.4,.3Z" class="g5_28"/>
<path d="M569.5,339.1h2.2c.2,0,.3,-.2,.3,-.4c0,-.2,-.1,-.4,-.3,-.4h-2.2c-.3,0,-.4,.2,-.4,.4c0,.2,.1,.4,.4,.4m3.6,0h2.2c.2,0,.4,-.2,.4,-.4c0,-.2,-.2,-.4,-.4,-.4h-2.2c-.2,0,-.4,.2,-.4,.4c0,.2,.2,.4,.4,.4m3.6,0h2.2c.3,0,.4,-.2,.4,-.4c0,-.2,-.1,-.4,-.4,-.4h-2.2c-.2,0,-.3,.2,-.3,.4c0,.2,.1,.4,.3,.4m3.7,0h2.2c.2,0,.4,-.2,.4,-.4c0,-.2,-.2,-.4,-.4,-.4h-2.2c-.2,0,-.4,.2,-.4,.4c0,.2,.2,.4,.4,.4m3.6,0h2.2c.3,0,.4,-.2,.4,-.4c0,-.2,-.1,-.4,-.4,-.4H584c-.2,0,-.3,.2,-.3,.4c0,.2,.1,.4,.3,.4Z" class="g5_28"/>
<path d="M568.6,306.8h2.3c.2,0,.4,-.1,.4,-.3c0,-.3,-.2,-.4,-.4,-.4h-2.3c-.2,0,-.4,.1,-.4,.4c0,.2,.2,.3,.4,.3m3.8,0h2.3c.2,0,.4,-.1,.4,-.3c0,-.3,-.2,-.4,-.4,-.4h-2.3c-.2,0,-.4,.1,-.4,.4c0,.2,.2,.3,.4,.3m3.9,0h2.3c.2,0,.3,-.1,.3,-.3c0,-.3,-.1,-.4,-.3,-.4h-2.3c-.2,0,-.4,.1,-.4,.4c0,.2,.2,.3,.4,.3m3.8,0h2.3c.2,0,.4,-.1,.4,-.3c0,-.3,-.2,-.4,-.4,-.4h-2.3c-.2,0,-.4,.1,-.4,.4c0,.2,.2,.3,.4,.3m3.8,0h2.3c.3,0,.4,-.1,.4,-.3c0,-.3,-.1,-.4,-.4,-.4h-2.3c-.2,0,-.3,.1,-.3,.4c0,.2,.1,.3,.3,.3Z" class="g5_28"/>
<path d="M564.7,324.2c.1,.9,.3,1.9,.3,2.8c-.1,2.6,-1.3,4.6,-3.5,6c-1.7,1.2,-3.6,1.7,-5.6,1.7c-3.1,0,-6.2,0,-9.3,0c-2.1,0,-4.1,-.6,-5.8,-1.8c-2.5,-1.7,-3.6,-4.1,-3.2,-7.2c.3,-2.5,.4,-5.1,.5,-7.6c0,-2.3,0,-4.7,-.1,-7c0,-2.7,1.1,-4.8,3.3,-6.4c1.8,-1.4,4,-2,6.3,-2.1c2.5,0,4.9,0,7.4,0c2.1,.1,4.2,.6,5.9,1.9c2.6,1.7,3.8,4.1,3.5,7.2c-.1,1.5,0,3.1,0,4.7c0,0,.2,5.2,.3,7.8m-13.4,-20v-.1c-1.3,0,-2.5,0,-3.7,0c-1.7,.1,-3.3,.5,-4.7,1.4c-2,1.2,-3.4,2.8,-3.3,5.3c.1,1.1,.4,2.2,.7,3.3c.6,1.7,1.4,3.3,2.8,4.5c.4,.3,.4,.8,0,1.1c-.8,.9,-1.7,1.6,-2.8,2c-.7,.2,-.9,.6,-.9,1.3c-.1,.6,.1,1.1,.5,1.5c1,1.1,2.2,1.8,3.5,2.3c2.3,1,4.7,1.3,7.2,1.4c2.7,0,5.3,-.2,7.8,-1.1c1.7,-.6,3.3,-1.5,4.4,-3c.2,-.1,.3,-.3,.3,-.5c0,-.5,0,-.9,-.1,-1.4l-.3,-.3c-1.3,-.4,-2.4,-1.2,-3.3,-2.2c-.4,-.4,-.3,-.8,0,-1.2c.6,-.6,1.2,-1.2,1.6,-1.9c1,-1.6,1.5,-3.3,1.8,-5.1c.3,-1.5,-.1,-2.9,-1,-4.1c-1.5,-2,-3.6,-2.9,-5.9,-3.1c-1.6,-.2,-3.1,-.1,-4.6,-.1m-12.1,21.3c-.5,2.1,0,4,1.6,5.5c1.7,1.5,3.7,2.1,5.9,2.1c3,.1,6,.1,9,.1c1,0,2,-.2,3,-.5c1.8,-.6,3.3,-1.7,4.2,-3.4c.6,-1.2,.6,-2.5,.3,-3.8h-.1c-1.4,1.8,-3.3,2.8,-5.5,3.4c-3.7,1,-7.4,1,-11.1,.4c-1.8,-.3,-3.6,-.8,-5.1,-1.9c-.8,-.5,-1.5,-1.2,-2.2,-1.9Z" class="g5_28"/>
<path d="M544.3,335.2c-.7,.5,-1.3,1,-1.9,1.5c-.6,.5,-2.3,1.8,-2.9,2.3c-.3,.3,-.7,.3,-1,.2c-.2,-.1,-.4,-.3,-.4,-.5c-.1,-.3,0,-.6,.3,-.8c.4,-.3,1.8,-1.4,2.2,-1.8c.5,-.4,1.1,-.8,1.7,-1.2c.1,-.1,.3,-.2,.5,-.1c.5,.1,1,.3,1.5,.4Z" class="g5_28"/>
<path d="M558.1,335.2c.7,-.2,1.2,-.3,1.7,-.5l.4,.2c1,.7,3,2.2,3.9,3c.2,.1,.3,.3,.4,.4c.1,.3,0,.7,-.3,.8c-.2,.1,-.7,.2,-.9,0c-1.4,-.9,-3.7,-2.8,-5.2,-3.9Z" class="g5_28"/>
<path d="M551.2,318c-1.4,0,-2.8,.1,-4.2,0c-2.5,-.2,-4.5,-2.1,-5,-4.6c-.1,-.6,-.2,-1.2,-.3,-1.9c-.5,-2.4,1.2,-4.6,3.7,-4.6c3.9,0,7.8,0,11.6,0c2.4,0,4.2,1.9,3.8,4.3c-.1,1.4,-.3,2.8,-1,4c-1.2,1.8,-2.8,2.8,-5,2.8c-1.2,0,-2.4,0,-3.6,0Z" class="g5_28"/>
<path d="M557.1,321.5c.3,0,.7,0,1,0c.6,0,1,.4,.7,.8c-.6,1.1,-1.2,2.2,-1.9,3.3c-.1,.2,-.4,.3,-.7,.3c-.7,0,-1.4,0,-2.1,0c-.6,0,-.9,-.4,-.7,-.8c.6,-1.1,1.3,-2.2,1.9,-3.2c.1,-.3,.4,-.4,.8,-.4c.4,0,.7,0,1,0Z" class="g5_28"/>
<path d="M547.3,325.9c-.3,0,-.6,0,-.9,0c-.5,0,-.8,-.1,-.9,-.4c-.6,-1,-1.2,-2.1,-1.8,-3.2c-.3,-.5,0,-.8,.7,-.8c.7,0,1.3,0,1.9,0c.5,0,.7,.1,.9,.4c.6,1.1,1.2,2.1,1.9,3.2c.2,.4,-.1,.8,-.7,.8c-.4,0,-.7,0,-1.1,0Z" class="g5_28"/>
<path d="M552.6,331.5c0,.7,-.6,1.4,-1.3,1.4c-.8,0,-1.4,-.6,-1.4,-1.3c0,-.8,.6,-1.4,1.3,-1.4c.7,0,1.4,.6,1.4,1.3Z" class="g5_28"/>
<path d="M517.9,339.1h2.2c.2,0,.4,-.2,.4,-.4c0,-.2,-.2,-.4,-.4,-.4h-2.2c-.2,0,-.4,.2,-.4,.4c0,.2,.2,.4,.4,.4m3.7,0h2.2c.2,0,.4,-.2,.4,-.4c0,-.2,-.2,-.4,-.4,-.4h-2.2c-.2,0,-.4,.2,-.4,.4c0,.2,.2,.4,.4,.4m3.6,0h2.2c.2,0,.4,-.2,.4,-.4c0,-.2,-.2,-.4,-.4,-.4h-2.2c-.2,0,-.4,.2,-.4,.4c0,.2,.2,.4,.4,.4m3.7,0h2.2c.2,0,.3,-.2,.3,-.4c0,-.2,-.1,-.4,-.3,-.4h-2.2c-.3,0,-.4,.2,-.4,.4c0,.2,.1,.4,.4,.4m3.6,0h2.2c.2,0,.4,-.2,.4,-.4c0,-.2,-.2,-.4,-.4,-.4h-2.2c-.2,0,-.4,.2,-.4,.4c0,.2,.2,.4,.4,.4Z" class="g5_28"/>
<image clip-path="url(#c17_28)" preserveAspectRatio="none" x="769" y="339" width="98" height="31" xlink:href="img/51.jpg"/>
<image clip-path="url(#c18_28)" preserveAspectRatio="none" x="779" y="268" width="88" height="36" xlink:href="img/52.jpg"/>
<image clip-path="url(#c19_28)" preserveAspectRatio="none" x="823" y="304" width="44" height="36" xlink:href="img/53.jpg"/>
<image clip-path="url(#c1a_28)" preserveAspectRatio="none" x="778" y="361" width="89" height="4" xlink:href="img/54.jpg"/>
<image clip-path="url(#c1b_28)" preserveAspectRatio="none" x="779" y="286" width="73" height="3" xlink:href="img/55.jpg"/>
<path d="M794.4,280.7c-10.1,0,-18.3,8.2,-18.3,18.3v64.1h79V299c0,-10.1,-8.2,-18.3,-18.3,-18.3Z" class="g3_28"/>
<path d="M776,364h79.1v-7.1H776V364Z" class="g7_28"/>
<path d="M781.4,339.1h2.4c.2,0,.3,-.2,.3,-.4c0,-.2,-.1,-.4,-.3,-.4h-2.4c-.2,0,-.3,.2,-.3,.4c0,.2,.1,.4,.3,.4m3.9,0h2.3c.3,0,.4,-.2,.4,-.4c0,-.2,-.1,-.4,-.4,-.4h-2.3c-.2,0,-.4,.2,-.4,.4c0,.2,.2,.4,.4,.4m3.9,0h2.3c.2,0,.4,-.2,.4,-.4c0,-.2,-.2,-.4,-.4,-.4h-2.3c-.2,0,-.4,.2,-.4,.4c0,.2,.2,.4,.4,.4m3.9,0h2.3c.2,0,.4,-.2,.4,-.4c0,-.2,-.2,-.4,-.4,-.4h-2.3c-.2,0,-.4,.2,-.4,.4c0,.2,.2,.4,.4,.4m3.9,0h2.3c.2,0,.4,-.2,.4,-.4c0,-.2,-.2,-.4,-.4,-.4H797c-.2,0,-.4,.2,-.4,.4c0,.2,.2,.4,.4,.4m3.8,0h2.4c.2,0,.4,-.2,.4,-.4c0,-.2,-.2,-.4,-.4,-.4h-2.4c-.2,0,-.3,.2,-.3,.4c0,.2,.1,.4,.3,.4m3.9,0h2.4c.2,0,.3,-.2,.3,-.4c0,-.2,-.1,-.4,-.3,-.4h-2.4c-.2,0,-.4,.2,-.4,.4c0,.2,.2,.4,.4,.4m3.9,0h2.3c.2,0,.4,-.2,.4,-.4c0,-.2,-.2,-.4,-.4,-.4h-2.3c-.2,0,-.4,.2,-.4,.4c0,.2,.2,.4,.4,.4m3.9,0h2.3c.2,0,.4,-.2,.4,-.4c0,-.2,-.2,-.4,-.4,-.4h-2.3c-.2,0,-.4,.2,-.4,.4c0,.2,.2,.4,.4,.4m3.9,0h2.3c.2,0,.4,-.2,.4,-.4c0,-.2,-.2,-.4,-.4,-.4h-2.3c-.2,0,-.4,.2,-.4,.4c0,.2,.2,.4,.4,.4m3.9,0h2.3c.2,0,.4,-.2,.4,-.4c0,-.2,-.2,-.4,-.4,-.4h-2.3c-.3,0,-.4,.2,-.4,.4c0,.2,.1,.4,.4,.4m3.8,0h2.4c.2,0,.3,-.2,.3,-.4c0,-.2,-.1,-.4,-.3,-.4h-2.4c-.2,0,-.3,.2,-.3,.4c0,.2,.1,.4,.3,.4m3.9,0h2.3c.3,0,.4,-.2,.4,-.4c0,-.2,-.1,-.4,-.4,-.4H828c-.2,0,-.4,.2,-.4,.4c0,.2,.2,.4,.4,.4m3.9,0h2.3c.2,0,.4,-.2,.4,-.4c0,-.2,-.2,-.4,-.4,-.4h-2.3c-.2,0,-.4,.2,-.4,.4c0,.2,.2,.4,.4,.4m3.9,0h2.3c.2,0,.4,-.2,.4,-.4c0,-.2,-.2,-.4,-.4,-.4h-2.3c-.2,0,-.4,.2,-.4,.4c0,.2,.2,.4,.4,.4m3.9,0H842c.2,0,.4,-.2,.4,-.4c0,-.2,-.2,-.4,-.4,-.4h-2.3c-.2,0,-.4,.2,-.4,.4c0,.2,.2,.4,.4,.4m3.8,0h2.4c.2,0,.4,-.2,.4,-.4c0,-.2,-.2,-.4,-.4,-.4h-2.4c-.2,0,-.3,.2,-.3,.4c0,.2,.1,.4,.3,.4m3.9,0h2.4c.2,0,.3,-.2,.3,-.4c0,-.2,-.1,-.4,-.3,-.4h-2.4c-.2,0,-.4,.2,-.4,.4c0,.2,.2,.4,.4,.4Z" class="g8_28"/>
<path d="M780.8,302.7h2.3c.2,0,.4,-.2,.4,-.4c0,-.2,-.2,-.4,-.4,-.4h-2.3c-.2,0,-.4,.2,-.4,.4c0,.2,.2,.4,.4,.4m3.9,0H787c.2,0,.4,-.2,.4,-.4c0,-.2,-.2,-.4,-.4,-.4h-2.3c-.2,0,-.4,.2,-.4,.4c0,.2,.2,.4,.4,.4m3.9,0h2.3c.2,0,.4,-.2,.4,-.4c0,-.2,-.2,-.4,-.4,-.4h-2.3c-.3,0,-.4,.2,-.4,.4c0,.2,.1,.4,.4,.4m3.8,0h2.4c.2,0,.3,-.2,.3,-.4c0,-.2,-.1,-.4,-.3,-.4h-2.4c-.2,0,-.3,.2,-.3,.4c0,.2,.1,.4,.3,.4m3.9,0h2.3c.2,0,.4,-.2,.4,-.4c0,-.2,-.2,-.4,-.4,-.4h-2.3c-.2,0,-.4,.2,-.4,.4c0,.2,.2,.4,.4,.4m3.9,0h2.3c.2,0,.4,-.2,.4,-.4c0,-.2,-.2,-.4,-.4,-.4h-2.3c-.2,0,-.4,.2,-.4,.4c0,.2,.2,.4,.4,.4m3.9,0h2.3c.2,0,.4,-.2,.4,-.4c0,-.2,-.2,-.4,-.4,-.4h-2.3c-.2,0,-.4,.2,-.4,.4c0,.2,.2,.4,.4,.4m3.9,0h2.3c.2,0,.4,-.2,.4,-.4c0,-.2,-.2,-.4,-.4,-.4H808c-.2,0,-.4,.2,-.4,.4c0,.2,.2,.4,.4,.4m3.8,0h2.4c.2,0,.3,-.2,.3,-.4c0,-.2,-.1,-.4,-.3,-.4h-2.4c-.2,0,-.3,.2,-.3,.4c0,.2,.1,.4,.3,.4m3.9,0H818c.3,0,.4,-.2,.4,-.4c0,-.2,-.1,-.4,-.4,-.4h-2.3c-.2,0,-.4,.2,-.4,.4c0,.2,.2,.4,.4,.4m3.9,0h2.3c.2,0,.4,-.2,.4,-.4c0,-.2,-.2,-.4,-.4,-.4h-2.3c-.2,0,-.4,.2,-.4,.4c0,.2,.2,.4,.4,.4m3.9,0h2.3c.2,0,.4,-.2,.4,-.4c0,-.2,-.2,-.4,-.4,-.4h-2.3c-.2,0,-.4,.2,-.4,.4c0,.2,.2,.4,.4,.4m3.9,0h2.3c.2,0,.4,-.2,.4,-.4c0,-.2,-.2,-.4,-.4,-.4h-2.3c-.2,0,-.4,.2,-.4,.4c0,.2,.2,.4,.4,.4m3.9,0h2.3c.2,0,.4,-.2,.4,-.4c0,-.2,-.2,-.4,-.4,-.4h-2.3c-.3,0,-.4,.2,-.4,.4c0,.2,.1,.4,.4,.4m3.8,0h2.4c.2,0,.3,-.2,.3,-.4c0,-.2,-.1,-.4,-.3,-.4h-2.4c-.2,0,-.3,.2,-.3,.4c0,.2,.1,.4,.3,.4m3.9,0h2.3c.3,0,.4,-.2,.4,-.4c0,-.2,-.1,-.4,-.4,-.4H839c-.2,0,-.4,.2,-.4,.4c0,.2,.2,.4,.4,.4m3.9,0h2.3c.2,0,.4,-.2,.4,-.4c0,-.2,-.2,-.4,-.4,-.4h-2.3c-.2,0,-.4,.2,-.4,.4c0,.2,.2,.4,.4,.4m3.9,0h2.3c.2,0,.4,-.2,.4,-.4c0,-.2,-.2,-.4,-.4,-.4h-2.3c-.2,0,-.4,.2,-.4,.4c0,.2,.2,.4,.4,.4Z" class="g8_28"/>
<path d="M829.5,319.5v.7h4.6c1.1,0,2,-.9,2,-2.1v-.4c0,-1.1,-.9,-2,-2,-2h-4.6c-.5,0,-1,.2,-1.4,.5c-.1,.2,-.2,.4,-.2,.5v.3c0,.2,-.1,.4,-.2,.5c-.2,.1,-.3,.3,-.3,.5v.1c0,1.2,1,2.1,2.1,2.1v-1.4c-.4,0,-.7,-.3,-.7,-.7V318h-.7l.5,.5c.4,-.4,.7,-.9,.7,-1.5v-.3h-.7l.4,.6c.2,-.2,.3,-.2,.5,-.2h4.6c.3,0,.6,.3,.6,.6v.4c0,.4,-.3,.7,-.6,.7h-4.6Z" class="g8_28"/>
<path d="M828.6,310.2l-.5,.5c.4,.3,.9,.5,1.4,.5h4.6c1.1,0,2,-.9,2,-2v-.4c0,-1.2,-.9,-2.1,-2,-2.1h-4.6c-1.1,0,-2.1,.9,-2.1,2.1v.1c0,.2,.1,.4,.3,.5c.1,.2,.2,.3,.2,.5v.3c0,.2,.1,.3,.2,.5l.5,-.5h.7v-.3c0,-.6,-.3,-1.1,-.7,-1.5l-.5,.5h.7v-.1c0,-.4,.3,-.7,.7,-.7h4.6c.3,0,.6,.3,.6,.7v.4c0,.3,-.3,.6,-.6,.6h-4.6c-.2,0,-.3,0,-.5,-.1l-.4,.5h.7Z" class="g8_28"/>
<path d="M835.1,319v.7H837c1,0,1.8,-.8,1.8,-1.8v-8.8c0,-1,-.8,-1.8,-1.8,-1.8h-1.8c-.3,0,-.5,.1,-.7,.4c-.1,.2,-.1,.5,.1,.7c.1,.1,.1,.2,.1,.4v.4c0,.3,-.3,.6,-.6,.6h-4.6c-.2,0,-.3,0,-.5,-.1c-.2,-.2,-.4,-.3,-.7,-.2c-.2,.1,-.4,.4,-.4,.7v6.5c0,.3,.2,.6,.4,.7c.3,.1,.5,0,.7,-.1c.2,-.2,.3,-.2,.5,-.2h4.6c.3,0,.6,.3,.6,.6v.4c0,.2,0,.3,-.1,.5c-.2,.2,-.2,.4,-.1,.7c.1,.2,.3,.4,.6,.4V319l.5,.4c.3,-.3,.5,-.8,.5,-1.3v-.4c0,-1.1,-.9,-2,-2,-2h-4.6c-.5,0,-1,.2,-1.4,.5l.5,.5h.7v-6.5h-.7l-.5,.5c.4,.3,.9,.5,1.4,.5h4.6c1.1,0,2,-.9,2,-2v-.4c0,-.5,-.2,-.9,-.4,-1.2l-.5,.4v.7H837c.2,0,.4,.2,.4,.4v8.8c0,.2,-.2,.4,-.4,.4h-1.9v.7l.5,.4Z" class="g8_28"/>
<path d="M828.6,309.9h.7c0,-1.1,-.9,-2,-2.1,-2h-.6c-1.2,0,-2.1,.9,-2.1,2V317c0,1.1,.9,2,2.1,2h.6c1.2,0,2.1,-.9,2.1,-2v-7.1h-1.4V317c0,.4,-.3,.7,-.7,.7h-.6c-.4,0,-.7,-.3,-.7,-.7v-7.1c0,-.3,.3,-.6,.7,-.6h.6c.4,0,.7,.3,.7,.6Z" class="g8_28"/>
<path d="M829.5,332.3v.7h4.6c1.1,0,2,-1,2,-2.1v-.4c0,-1.1,-.9,-2,-2,-2h-4.6c-.5,0,-1,.2,-1.4,.5c-.1,.1,-.2,.3,-.2,.5v.3c0,.2,-.1,.3,-.2,.5c-.2,.1,-.3,.3,-.3,.5v.1c0,1.1,1,2.1,2.1,2.1v-1.4c-.4,0,-.7,-.3,-.7,-.7v-.1h-.7l.5,.5c.4,-.4,.7,-.9,.7,-1.5v-.3h-.7l.4,.5c.2,-.1,.3,-.1,.5,-.1h4.6c.3,0,.6,.3,.6,.6v.4c0,.4,-.3,.7,-.6,.7h-4.6Z" class="g8_28"/>
<path d="M828.6,322.9l-.5,.6c.4,.3,.9,.5,1.4,.5h4.6c1.1,0,2,-.9,2,-2.1v-.3c0,-1.2,-.9,-2.1,-2,-2.1h-4.6c-1.1,0,-2.1,.9,-2.1,2.1v.1c0,.2,.1,.4,.3,.5c.1,.2,.2,.3,.2,.5v.2c0,.2,.1,.4,.2,.6l.5,-.6h.7v-.2c0,-.6,-.3,-1.1,-.7,-1.5l-.5,.5h.7v-.1c0,-.4,.3,-.7,.7,-.7h4.6c.3,0,.6,.3,.6,.7v.3c0,.4,-.3,.7,-.6,.7h-4.6c-.2,0,-.3,-.1,-.5,-.2l-.4,.5h.7Z" class="g8_28"/>
<path d="M835.1,331.8v.7H837c1,0,1.8,-.9,1.8,-1.9v-8.7c0,-1,-.8,-1.8,-1.8,-1.8h-1.8c-.3,0,-.5,.1,-.7,.3c-.1,.3,-.1,.6,.1,.8c.1,.1,.1,.2,.1,.4v.3c0,.4,-.3,.7,-.6,.7h-4.6c-.2,0,-.3,-.1,-.5,-.2c-.2,-.1,-.4,-.2,-.7,-.1c-.2,.1,-.4,.4,-.4,.6v6.6c0,.3,.2,.5,.4,.7c.3,.1,.5,0,.7,-.2c.2,-.1,.3,-.1,.5,-.1h4.6c.3,0,.6,.3,.6,.6v.4c0,.2,0,.3,-.1,.4c-.2,.2,-.2,.5,-.1,.8c.1,.2,.3,.4,.6,.4v-.7l.5,.4c.3,-.3,.5,-.8,.5,-1.3v-.4c0,-1.1,-.9,-2,-2,-2h-4.6c-.5,0,-1,.2,-1.4,.5l.5,.5h.7v-6.6h-.7l-.5,.6c.4,.3,.9,.5,1.4,.5h4.6c1.1,0,2,-.9,2,-2.1v-.3c0,-.5,-.2,-.9,-.4,-1.2l-.5,.4v.7H837c.2,0,.4,.1,.4,.4v8.7c0,.3,-.2,.5,-.4,.5h-1.9v.7l.5,.4Z" class="g8_28"/>
<path d="M828.6,322.7h.7c0,-1.1,-.9,-2,-2.1,-2h-.6c-1.2,0,-2.1,.9,-2.1,2v7.1c0,1.1,.9,2,2.1,2h.6c1.2,0,2.1,-.9,2.1,-2v-7.1h-1.4v7.1c0,.4,-.3,.6,-.7,.6h-.6c-.4,0,-.7,-.2,-.7,-.6v-7.1c0,-.4,.3,-.7,.7,-.7h.6c.4,0,.7,.3,.7,.7Z" class="g8_28"/>
<path d="M814.2,318.7h3.2c.5,0,.9,-.3,.9,-.6v-.2c0,-.3,-.4,-.5,-.9,-.5h-3.2c-.2,0,-.5,0,-.6,.1v.1c0,.2,-.2,.3,-.3,.4v.1c0,.3,.4,.6,.9,.6Z" class="g8_28"/>
<path d="M813.7,308.8c.2,.1,.4,.2,.7,.2h3.3c.5,0,.9,-.3,.9,-.6v-.2c0,-.3,-.4,-.6,-.9,-.6h-3.3c-.6,0,-1,.3,-1,.6v.1c.2,.1,.3,.2,.3,.4Z" class="g8_28"/>
<path d="M819.5,318.7h1.8c.6,0,1.1,-.5,1.1,-1.1v-8.8c0,-.6,-.5,-1.1,-1.1,-1.1h-1.7c.1,.2,.2,.5,.2,.8v.4c0,.7,-.6,1.3,-1.3,1.3h-4.3c-.4,0,-.7,-.1,-.9,-.3v6.5c.2,-.2,.5,-.3,.9,-.3h4.3c.7,0,1.3,.6,1.3,1.3v.4c0,.4,-.1,.6,-.3,.9Z" class="g8_28"/>
<path d="M812,310.4c0,-.6,-.5,-1.1,-1.1,-1.1c-.6,0,-1.1,.5,-1.1,1.1V316c0,.6,.5,1,1.1,1c.6,0,1.1,-.4,1.1,-1Z" class="g8_28"/>
<path d="M813.8,332.3v.7h4.5c1.1,0,2.1,-1,2.1,-2.1v-.4c0,-1.1,-1,-2,-2.1,-2h-4.5c-.6,0,-1.1,.2,-1.4,.5c-.2,.1,-.2,.3,-.2,.5v.3c0,.2,-.1,.3,-.3,.5c-.1,.1,-.2,.3,-.2,.5v.1c0,1.1,.9,2.1,2.1,2.1v-1.4c-.4,0,-.7,-.3,-.7,-.7v-.1h-.7l.5,.5c.4,-.4,.6,-.9,.6,-1.5v-.3h-.7l.5,.5c.1,-.1,.3,-.1,.5,-.1h4.5c.4,0,.7,.3,.7,.6v.4c0,.4,-.3,.7,-.7,.7h-4.5Z" class="g8_28"/>
<path d="M812.8,322.9l-.4,.6c.3,.3,.8,.5,1.4,.5h4.5c1.1,0,2.1,-.9,2.1,-2.1v-.3c0,-1.2,-1,-2.1,-2.1,-2.1h-4.5c-1.2,0,-2.1,.9,-2.1,2.1v.1c0,.2,.1,.4,.2,.5c.2,.2,.3,.3,.3,.5v.2c0,.2,0,.4,.2,.6l.4,-.6h.7v-.2c0,-.6,-.2,-1.1,-.6,-1.5l-.5,.5h.7v-.1c0,-.4,.3,-.7,.7,-.7h4.5c.4,0,.7,.3,.7,.7v.3c0,.4,-.3,.7,-.7,.7h-4.5c-.2,0,-.4,-.1,-.5,-.2l-.5,.5h.7Z" class="g8_28"/>
<path d="M819.4,331.8v.7h1.9c1,0,1.8,-.9,1.8,-1.9v-8.7c0,-1,-.8,-1.8,-1.8,-1.8h-1.9c-.2,0,-.5,.1,-.6,.3c-.1,.3,-.1,.6,.1,.8c0,.1,.1,.2,.1,.4v.3c0,.4,-.3,.7,-.7,.7h-4.5c-.2,0,-.4,-.1,-.5,-.2c-.2,-.1,-.5,-.2,-.7,-.1c-.3,.1,-.4,.4,-.4,.6v6.6c0,.3,.1,.5,.4,.7c.2,.1,.5,0,.7,-.2c.1,-.1,.3,-.1,.5,-.1h4.5c.4,0,.7,.3,.7,.6v.4c0,.2,-.1,.3,-.2,.4c-.1,.2,-.2,.5,-.1,.8c.2,.2,.4,.4,.7,.4v-.7l.5,.4c.3,-.3,.5,-.8,.5,-1.3v-.4c0,-1.1,-1,-2,-2.1,-2h-4.5c-.6,0,-1.1,.2,-1.4,.5l.4,.5h.7v-6.6h-.7l-.4,.6c.3,.3,.8,.5,1.4,.5h4.5c1.1,0,2.1,-.9,2.1,-2.1v-.3c0,-.5,-.2,-.9,-.4,-1.2l-.6,.4v.7h1.9c.2,0,.4,.1,.4,.4v8.7c0,.3,-.2,.5,-.4,.5h-1.9v.7l.5,.4Z" class="g8_28"/>
<path d="M812.8,322.7h.7c0,-1.1,-.9,-2,-2,-2h-.7c-1.1,0,-2,.9,-2,2v7.1c0,1.1,.9,2,2,2h.7c1.1,0,2,-.9,2,-2v-7.1h-1.3v7.1c0,.4,-.3,.6,-.7,.6h-.7c-.4,0,-.7,-.2,-.7,-.6v-7.1c0,-.4,.3,-.7,.7,-.7h.7c.4,0,.7,.3,.7,.7Z" class="g8_28"/>
<path d="M798,319.5v.7h4.6c1.1,0,2,-.9,2,-2.1v-.4c0,-1.1,-.9,-2,-2,-2H798c-.5,0,-1,.2,-1.4,.5c-.1,.2,-.2,.4,-.2,.5v.3c0,.2,-.1,.4,-.2,.5c-.1,.1,-.2,.3,-.2,.5v.1c0,1.2,.9,2.1,2,2.1v-1.4c-.4,0,-.7,-.3,-.7,-.7V318h-.6l.4,.5c.4,-.4,.7,-.9,.7,-1.5v-.3h-.7l.5,.6c.1,-.2,.2,-.2,.4,-.2h4.6c.3,0,.6,.3,.6,.6v.4c0,.4,-.3,.7,-.6,.7H798Z" class="g8_28"/>
<path d="M797.1,310.2l-.5,.5c.4,.3,.9,.5,1.4,.5h4.6c1.1,0,2,-.9,2,-2v-.4c0,-1.2,-.9,-2.1,-2,-2.1H798c-1.1,0,-2,.9,-2,2.1v.1c0,.2,.1,.4,.2,.5c.1,.2,.2,.3,.2,.5v.3c0,.2,.1,.3,.2,.5l.5,-.5h.7v-.3c0,-.6,-.3,-1.1,-.7,-1.5l-.4,.5h.6v-.1c0,-.4,.3,-.7,.7,-.7h4.6c.3,0,.6,.3,.6,.7v.4c0,.3,-.3,.6,-.6,.6H798c-.2,0,-.3,0,-.4,-.1l-.5,.5h.7Z" class="g8_28"/>
<path d="M803.6,319v.7h1.9c1,0,1.8,-.8,1.8,-1.8v-8.8c0,-1,-.8,-1.8,-1.8,-1.8h-1.8c-.3,0,-.5,.1,-.6,.4c-.2,.2,-.1,.5,0,.7c.1,.1,.1,.2,.1,.4v.4c0,.3,-.3,.6,-.6,.6H798c-.2,0,-.3,0,-.4,-.1c-.2,-.2,-.5,-.3,-.8,-.2c-.2,.1,-.4,.4,-.4,.7v6.5c0,.3,.2,.6,.4,.7c.3,.1,.6,0,.8,-.1c.1,-.2,.2,-.2,.4,-.2h4.6c.3,0,.6,.3,.6,.6v.4c0,.2,0,.3,-.1,.5c-.2,.2,-.2,.4,-.1,.7c.1,.2,.4,.4,.6,.4V319l.6,.4c.2,-.3,.4,-.8,.4,-1.3v-.4c0,-1.1,-.9,-2,-2,-2H798c-.5,0,-1,.2,-1.4,.5l.5,.5h.7v-6.5h-.7l-.5,.5c.4,.3,.9,.5,1.4,.5h4.6c1.1,0,2,-.9,2,-2v-.4c0,-.5,-.1,-.9,-.4,-1.2l-.5,.4v.7h1.8c.3,0,.5,.2,.5,.4v8.8c0,.2,-.2,.4,-.5,.4h-1.9v.7l.6,.4Z" class="g8_28"/>
<path d="M797.1,309.9h.7c0,-1.1,-.9,-2,-2,-2h-.7c-1.2,0,-2.1,.9,-2.1,2V317c0,1.1,.9,2,2.1,2h.7c1.1,0,2,-.9,2,-2v-7.1h-1.4V317c0,.4,-.3,.7,-.6,.7h-.7c-.4,0,-.7,-.3,-.7,-.7v-7.1c0,-.3,.3,-.6,.7,-.6h.7c.3,0,.6,.3,.6,.6Z" class="g8_28"/>
<path d="M798,332.3v.7h4.6c1.1,0,2,-1,2,-2.1v-.4c0,-1.1,-.9,-2,-2,-2H798c-.5,0,-1,.2,-1.4,.5c-.1,.1,-.2,.3,-.2,.5v.3c0,.2,-.1,.3,-.2,.5c-.1,.1,-.2,.3,-.2,.5v.1c0,1.1,.9,2.1,2,2.1v-1.4c-.4,0,-.7,-.3,-.7,-.7v-.1h-.6l.4,.5c.4,-.4,.7,-.9,.7,-1.5v-.3h-.7l.5,.5c.1,-.1,.2,-.1,.4,-.1h4.6c.3,0,.6,.3,.6,.6v.4c0,.4,-.3,.7,-.6,.7H798Z" class="g8_28"/>
<path d="M797.1,322.9l-.5,.6c.4,.3,.9,.5,1.4,.5h4.6c1.1,0,2,-.9,2,-2.1v-.3c0,-1.2,-.9,-2.1,-2,-2.1H798c-1.1,0,-2,.9,-2,2.1v.1c0,.2,.1,.4,.2,.5c.1,.2,.2,.3,.2,.5v.2c0,.2,.1,.4,.2,.6l.5,-.6h.7v-.2c0,-.6,-.3,-1.1,-.7,-1.5l-.4,.5h.6v-.1c0,-.4,.3,-.7,.7,-.7h4.6c.3,0,.6,.3,.6,.7v.3c0,.4,-.3,.7,-.6,.7H798c-.2,0,-.3,-.1,-.4,-.2l-.5,.5h.7Z" class="g8_28"/>
<path d="M803.6,331.8v.7h1.9c1,0,1.8,-.9,1.8,-1.9v-8.7c0,-1,-.8,-1.8,-1.8,-1.8h-1.8c-.3,0,-.5,.1,-.6,.3c-.2,.3,-.1,.6,0,.8c.1,.1,.1,.2,.1,.4v.3c0,.4,-.3,.7,-.6,.7H798c-.2,0,-.3,-.1,-.4,-.2c-.2,-.1,-.5,-.2,-.8,-.1c-.2,.1,-.4,.4,-.4,.6v6.6c0,.3,.2,.5,.4,.7c.3,.1,.6,0,.8,-.2c.1,-.1,.2,-.1,.4,-.1h4.6c.3,0,.6,.3,.6,.6v.4c0,.2,0,.3,-.1,.4c-.2,.2,-.2,.5,-.1,.8c.1,.2,.4,.4,.6,.4v-.7l.6,.4c.2,-.3,.4,-.8,.4,-1.3v-.4c0,-1.1,-.9,-2,-2,-2H798c-.5,0,-1,.2,-1.4,.5l.5,.5h.7v-6.6h-.7l-.5,.6c.4,.3,.9,.5,1.4,.5h4.6c1.1,0,2,-.9,2,-2.1v-.3c0,-.5,-.1,-.9,-.4,-1.2l-.5,.4v.7h1.8c.3,0,.5,.1,.5,.4v8.7c0,.3,-.2,.5,-.5,.5h-1.9v.7l.6,.4Z" class="g8_28"/>
<path d="M797.1,322.7h.7c0,-1.1,-.9,-2,-2,-2h-.7c-1.2,0,-2.1,.9,-2.1,2v7.1c0,1.1,.9,2,2.1,2h.7c1.1,0,2,-.9,2,-2v-7.1h-1.4v7.1c0,.4,-.3,.6,-.6,.6h-.7c-.4,0,-.7,-.2,-.7,-.6v-7.1c0,-.4,.3,-.7,.7,-.7h.7c.3,0,.6,.3,.6,.7Z" class="g8_28"/>
<image clip-path="url(#c1c_28)" preserveAspectRatio="none" x="681" y="339" width="89" height="31" xlink:href="img/56.jpg"/>
<image clip-path="url(#c1d_28)" preserveAspectRatio="none" x="690" y="268" width="89" height="36" xlink:href="img/57.jpg"/>
<image clip-path="url(#c1e_28)" preserveAspectRatio="none" x="734" y="304" width="45" height="36" xlink:href="img/58.jpg"/>
<image clip-path="url(#c1f_28)" preserveAspectRatio="none" x="690" y="361" width="80" height="4" xlink:href="img/59.jpg"/>
<image clip-path="url(#c1g_28)" preserveAspectRatio="none" x="768" y="339" width="11" height="31" xlink:href="img/60.jpg"/>
<image clip-path="url(#c1h_28)" preserveAspectRatio="none" x="769" y="268" width="10" height="72" xlink:href="img/61.jpg"/>
<image clip-path="url(#c1i_28)" preserveAspectRatio="none" x="768" y="361" width="11" height="4" xlink:href="img/62.jpg"/>
<image clip-path="url(#c1j_28)" preserveAspectRatio="none" x="775" y="289" width="4" height="69" xlink:href="img/63.jpg"/>
<image clip-path="url(#c1k_28)" preserveAspectRatio="none" x="775" y="357" width="4" height="8" xlink:href="img/64.jpg"/>
<path d="M706.3,280.7c-10.1,0,-18.3,8.2,-18.3,18.3v64.1h79V299c0,-10.1,-8.2,-18.3,-18.3,-18.3Z" class="g3_28"/>
<path d="M687.9,364H767v-7.1H687.9V364Z" class="g7_28"/>
<path d="M693.3,339.1h2.4c.2,0,.3,-.2,.3,-.4c0,-.2,-.1,-.4,-.3,-.4h-2.4c-.2,0,-.3,.2,-.3,.4c0,.2,.1,.4,.3,.4m3.9,0h2.3c.3,0,.4,-.2,.4,-.4c0,-.2,-.1,-.4,-.4,-.4h-2.3c-.2,0,-.4,.2,-.4,.4c0,.2,.2,.4,.4,.4m3.9,0h2.3c.2,0,.4,-.2,.4,-.4c0,-.2,-.2,-.4,-.4,-.4h-2.3c-.2,0,-.4,.2,-.4,.4c0,.2,.2,.4,.4,.4m3.9,0h2.3c.2,0,.4,-.2,.4,-.4c0,-.2,-.2,-.4,-.4,-.4H705c-.2,0,-.4,.2,-.4,.4c0,.2,.2,.4,.4,.4m3.9,0h2.3c.2,0,.4,-.2,.4,-.4c0,-.2,-.2,-.4,-.4,-.4h-2.3c-.2,0,-.4,.2,-.4,.4c0,.2,.2,.4,.4,.4m3.9,0h2.3c.2,0,.4,-.2,.4,-.4c0,-.2,-.2,-.4,-.4,-.4h-2.3c-.3,0,-.4,.2,-.4,.4c0,.2,.1,.4,.4,.4m3.8,0H719c.2,0,.3,-.2,.3,-.4c0,-.2,-.1,-.4,-.3,-.4h-2.4c-.2,0,-.3,.2,-.3,.4c0,.2,.1,.4,.3,.4m3.9,0h2.3c.2,0,.4,-.2,.4,-.4c0,-.2,-.2,-.4,-.4,-.4h-2.3c-.2,0,-.4,.2,-.4,.4c0,.2,.2,.4,.4,.4m3.9,0h2.3c.2,0,.4,-.2,.4,-.4c0,-.2,-.2,-.4,-.4,-.4h-2.3c-.2,0,-.4,.2,-.4,.4c0,.2,.2,.4,.4,.4m3.9,0h2.3c.2,0,.4,-.2,.4,-.4c0,-.2,-.2,-.4,-.4,-.4h-2.3c-.2,0,-.4,.2,-.4,.4c0,.2,.2,.4,.4,.4m3.9,0h2.3c.2,0,.4,-.2,.4,-.4c0,-.2,-.2,-.4,-.4,-.4h-2.3c-.2,0,-.4,.2,-.4,.4c0,.2,.2,.4,.4,.4m3.8,0h2.4c.2,0,.3,-.2,.3,-.4c0,-.2,-.1,-.4,-.3,-.4H736c-.2,0,-.3,.2,-.3,.4c0,.2,.1,.4,.3,.4m3.9,0h2.3c.3,0,.4,-.2,.4,-.4c0,-.2,-.1,-.4,-.4,-.4h-2.3c-.2,0,-.4,.2,-.4,.4c0,.2,.2,.4,.4,.4m3.9,0h2.3c.2,0,.4,-.2,.4,-.4c0,-.2,-.2,-.4,-.4,-.4h-2.3c-.2,0,-.4,.2,-.4,.4c0,.2,.2,.4,.4,.4m3.9,0H750c.2,0,.4,-.2,.4,-.4c0,-.2,-.2,-.4,-.4,-.4h-2.3c-.2,0,-.4,.2,-.4,.4c0,.2,.2,.4,.4,.4m3.9,0h2.3c.2,0,.4,-.2,.4,-.4c0,-.2,-.2,-.4,-.4,-.4h-2.3c-.2,0,-.4,.2,-.4,.4c0,.2,.2,.4,.4,.4m3.9,0h2.3c.2,0,.4,-.2,.4,-.4c0,-.2,-.2,-.4,-.4,-.4h-2.3c-.3,0,-.4,.2,-.4,.4c0,.2,.1,.4,.4,.4m3.8,0h2.4c.2,0,.3,-.2,.3,-.4c0,-.2,-.1,-.4,-.3,-.4h-2.4c-.2,0,-.3,.2,-.3,.4c0,.2,.1,.4,.3,.4Z" class="g9_28"/>
<path d="M740.8,302.7H743c.2,0,.4,-.2,.4,-.4c0,-.2,-.2,-.4,-.4,-.4h-2.2c-.2,0,-.4,.2,-.4,.4c0,.2,.2,.4,.4,.4m3.7,0h2.3c.2,0,.3,-.2,.3,-.4c0,-.2,-.1,-.4,-.3,-.4h-2.3c-.2,0,-.4,.2,-.4,.4c0,.2,.2,.4,.4,.4m3.7,0h2.3c.2,0,.4,-.2,.4,-.4c0,-.2,-.2,-.4,-.4,-.4h-2.3c-.2,0,-.4,.2,-.4,.4c0,.2,.2,.4,.4,.4m3.7,0h2.3c.2,0,.4,-.2,.4,-.4c0,-.2,-.2,-.4,-.4,-.4h-2.3c-.2,0,-.3,.2,-.3,.4c0,.2,.1,.4,.3,.4m3.8,0h2.2c.2,0,.4,-.2,.4,-.4c0,-.2,-.2,-.4,-.4,-.4h-2.2c-.2,0,-.4,.2,-.4,.4c0,.2,.2,.4,.4,.4m3.7,0h2.2c.2,0,.4,-.2,.4,-.4c0,-.2,-.2,-.4,-.4,-.4h-2.2c-.2,0,-.4,.2,-.4,.4c0,.2,.2,.4,.4,.4Z" class="g9_28"/>
<path d="M693.4,302.7h2.2c.2,0,.4,-.2,.4,-.4c0,-.2,-.2,-.4,-.4,-.4h-2.2c-.2,0,-.4,.2,-.4,.4c0,.2,.2,.4,.4,.4m3.7,0h2.2c.2,0,.4,-.2,.4,-.4c0,-.2,-.2,-.4,-.4,-.4h-2.2c-.2,0,-.4,.2,-.4,.4c0,.2,.2,.4,.4,.4m3.7,0h2.3c.2,0,.3,-.2,.3,-.4c0,-.2,-.1,-.4,-.3,-.4h-2.3c-.2,0,-.4,.2,-.4,.4c0,.2,.2,.4,.4,.4m3.7,0h2.3c.2,0,.4,-.2,.4,-.4c0,-.2,-.2,-.4,-.4,-.4h-2.3c-.2,0,-.4,.2,-.4,.4c0,.2,.2,.4,.4,.4m3.8,0h2.2c.2,0,.4,-.2,.4,-.4c0,-.2,-.2,-.4,-.4,-.4h-2.2c-.3,0,-.4,.2,-.4,.4c0,.2,.1,.4,.4,.4m3.7,0h2.2c.2,0,.4,-.2,.4,-.4c0,-.2,-.2,-.4,-.4,-.4H712c-.2,0,-.4,.2,-.4,.4c0,.2,.2,.4,.4,.4Z" class="g9_28"/>
<path d="M718.2,305.3v-.7c-1.1,0,-2,.9,-2,2V336h22.9V306.6c0,-1.1,-.9,-2,-2.1,-2H718.2v1.5H737c.3,0,.6,.2,.6,.5v27.9H717.7V306.6c0,-.3,.2,-.5,.5,-.5Z" class="g9_28"/>
<path d="M720.2,300.3v-.4c-.5,0,-1,.5,-1,1v4.7h16.9v-4.7c0,-.5,-.5,-1,-1,-1H720.2v.7h14.9c.1,0,.3,.2,.3,.3v4H719.9v-4c0,-.1,.1,-.3,.3,-.3Z" class="g9_28"/>
<path d="M725.1,327.4h-.4V335l.1,.3l.3,.1h5.2l.2,-.1l.1,-.3v-7.6l-.1,-.3l-.2,-.1h-5.2l-.3,.1l-.1,.3h.4v.4h4.8v6.8h-4.5v-7.2h-.3v.4Z" class="g9_28"/>
<path d="M732,327.4h-.4v4.1l.1,.3l.3,.1h4.1l.3,-.1l.1,-.3v-4.1l-.1,-.3l-.3,-.1H732l-.3,.1l-.1,.3h.4v.4h3.8v3.3h-3.4v-3.7H732v.4Z" class="g9_28"/>
<path d="M719.2,327.4h-.4v4.1l.1,.3l.3,.1h4.1l.3,-.1l.1,-.3v-4.1l-.1,-.3l-.3,-.1h-4.1l-.3,.1l-.1,.3h.4v.4H723v3.3h-3.4v-3.7h-.4v.4Z" class="g9_28"/>
<path d="M727.3,331.3h.8v-1h-.8v1Z" class="g9_28"/>
<path d="M732,321.1h-.4v4.1l.1,.2l.3,.2h4.1l.3,-.2l.1,-.2v-4.1l-.1,-.3l-.3,-.1H732l-.3,.1l-.1,.3h.4v.3h3.8v3.4h-3.4v-3.7H732v.3Z" class="g9_28"/>
<path d="M725.6,321.1h-.4v4.1l.1,.2l.3,.2h4.1l.3,-.2l.1,-.2v-4.1l-.1,-.3l-.3,-.1h-4.1l-.3,.1l-.1,.3h.4v.3h3.8v3.4H726v-3.7h-.4v.3Z" class="g9_28"/>
<path d="M719.2,321.1h-.4v4.1l.1,.2l.3,.2h4.1l.3,-.2l.1,-.2v-4.1l-.1,-.3l-.3,-.1h-4.1l-.3,.1l-.1,.3h.4v.3H723v3.4h-3.4v-3.7h-.4v.3Z" class="g9_28"/>
<path d="M732,314.8h-.4v4.1l.1,.2l.3,.1h4.1l.3,-.1l.1,-.2v-4.1l-.1,-.3l-.3,-.1H732l-.3,.1l-.1,.3h.4v.3h3.8v3.4h-3.4v-3.7H732v.3Z" class="g9_28"/>
<path d="M725.6,314.8h-.4v4.1l.1,.2l.3,.1h4.1l.3,-.1l.1,-.2v-4.1l-.1,-.3l-.3,-.1h-4.1l-.3,.1l-.1,.3h.4v.3h3.8v3.4H726v-3.7h-.4v.3Z" class="g9_28"/>
<path d="M719.2,314.8h-.4v4.1l.1,.2l.3,.1h4.1l.3,-.1l.1,-.2v-4.1l-.1,-.3l-.3,-.1h-4.1l-.3,.1l-.1,.3h.4v.3H723v3.4h-3.4v-3.7h-.4v.3Z" class="g9_28"/>
<path d="M732,308.4h-.4v4.1l.1,.3l.3,.1h4.1l.3,-.1l.1,-.3v-4.1l-.1,-.2l-.3,-.1H732l-.3,.1l-.1,.2h.4v.4h3.8v3.4h-3.4v-3.8H732v.4Z" class="g9_28"/>
<path d="M725.6,308.4h-.4v4.1l.1,.3l.3,.1h4.1l.3,-.1l.1,-.3v-4.1l-.1,-.2l-.3,-.1h-4.1l-.3,.1l-.1,.2h.4v.4h3.8v3.4H726v-3.8h-.4v.4Z" class="g9_28"/>
<path d="M719.2,308.4h-.4v4.1l.1,.3l.3,.1h4.1l.3,-.1l.1,-.3v-4.1l-.1,-.2l-.3,-.1h-4.1l-.3,.1l-.1,.2h.4v.4H723v3.4h-3.4v-3.8h-.4v.4Z" class="g9_28"/>
<path d="M722.8,301.3l-.2,-.1l-.5,.7l-.8,.2l-.2,.2l.1,.2l.5,.7v.8l.1,.2h.2l.8,-.3l.7,.3h.3l.1,-.2l-.1,-.8l.5,-.7l.1,-.2l-.2,-.2l-.8,-.2l-.4,-.7l-.2,-.1l-.2,.1l.2,.1l-.2,.2l.4,.8l.2,.1l.5,.1l-.3,.4l-.1,.2l.1,.6l-.6,-.3h-.1l-.6,.3l.1,-.6l-.1,-.2l-.3,-.4l.5,-.1l.2,-.1l.5,-.8l-.2,-.2l-.2,.2Z" class="g9_28"/>
<path d="M727.6,301.3l-.2,-.1l-.4,.7l-.8,.2l-.2,.2l.1,.2l.5,.7l-.1,.8l.1,.2h.3l.7,-.3l.8,.3h.2l.1,-.2v-.8l.5,-.7l.1,-.2l-.2,-.2l-.8,-.2l-.5,-.7l-.2,-.1l-.2,.1l.2,.1l-.2,.2l.5,.8l.2,.1l.5,.1l-.3,.4l-.1,.2v.6l-.5,-.3h-.2l-.5,.3l.1,-.6l-.1,-.2l-.4,-.4l.6,-.1l.1,-.1l.5,-.8l-.2,-.2l-.2,.2Z" class="g9_28"/>
<path d="M732.5,301.3l-.2,-.1l-.4,.7l-.8,.2l-.2,.2v.2l.6,.7l-.1,.8l.1,.2h.2l.8,-.3l.8,.3h.2l.1,-.2l-.1,-.8l.6,-.7v-.2l-.1,-.2l-.9,-.2l-.4,-.7l-.2,-.1l-.2,.1l.2,.1l-.2,.2l.5,.8l.1,.1l.6,.1l-.4,.4v.8l-.5,-.3h-.2l-.5,.3v-.8l-.4,-.4l.6,-.1l.1,-.1l.5,-.8l-.2,-.2l-.2,.2Z" class="g9_28"/>
<path d="M715.2,336.3h24.6c.5,0,.9,-.4,.9,-1c0,-.5,-.4,-.9,-.9,-.9H715.2c-.5,0,-.9,.4,-.9,.9c0,.6,.4,1,.9,1Z" class="g9_28"/>
<path d="M727.5,327.3v7.4h.3v-7.4Z" class="g9_28"/>
<image clip-path="url(#c1l_28)" preserveAspectRatio="none" x="602" y="339" width="80" height="31" xlink:href="img/65.jpg"/>
<image clip-path="url(#c1m_28)" preserveAspectRatio="none" x="593" y="268" width="98" height="36" xlink:href="img/66.jpg"/>
<image clip-path="url(#c1n_28)" preserveAspectRatio="none" x="593" y="304" width="98" height="36" xlink:href="img/67.jpg"/>
<image clip-path="url(#c1o_28)" preserveAspectRatio="none" x="602" y="361" width="80" height="4" xlink:href="img/68.jpg"/>
<image clip-path="url(#c1p_28)" preserveAspectRatio="none" x="592" y="339" width="11" height="24" xlink:href="img/69.jpg"/>
<image clip-path="url(#c1q_28)" preserveAspectRatio="none" x="593" y="268" width="10" height="72" xlink:href="img/70.jpg"/>
<image clip-path="url(#c1r_28)" preserveAspectRatio="none" x="592" y="363" width="11" height="7" xlink:href="img/71.jpg"/>
<image clip-path="url(#c1s_28)" preserveAspectRatio="none" x="592" y="361" width="11" height="4" xlink:href="img/72.jpg"/>
<image clip-path="url(#c1t_28)" preserveAspectRatio="none" x="680" y="339" width="11" height="31" xlink:href="img/73.jpg"/>
<image clip-path="url(#c1u_28)" preserveAspectRatio="none" x="681" y="268" width="10" height="72" xlink:href="img/74.jpg"/>
<image clip-path="url(#c1v_28)" preserveAspectRatio="none" x="680" y="361" width="11" height="4" xlink:href="img/75.jpg"/>
<image clip-path="url(#c1w_28)" preserveAspectRatio="none" x="687" y="289" width="4" height="69" xlink:href="img/76.jpg"/>
<image clip-path="url(#c1x_28)" preserveAspectRatio="none" x="687" y="357" width="4" height="8" xlink:href="img/77.jpg"/>
<path d="M618.1,280.7c-10.1,0,-18.3,8.2,-18.3,18.3v64.1h79V299c0,-10.1,-8.2,-18.3,-18.3,-18.3Z" class="g3_28"/>
<path d="M599.7,364h79.1v-7.1H599.7V364Z" class="g7_28"/>
<path d="M606,306.8h2.1c.2,0,.4,-.1,.4,-.3c0,-.3,-.2,-.4,-.4,-.4H606c-.3,0,-.4,.1,-.4,.4c0,.2,.1,.3,.4,.3m3.5,0h2.2c.2,0,.4,-.1,.4,-.3c0,-.3,-.2,-.4,-.4,-.4h-2.2c-.2,0,-.4,.1,-.4,.4c0,.2,.2,.3,.4,.3m3.6,0h2.1c.2,0,.4,-.1,.4,-.3c0,-.3,-.2,-.4,-.4,-.4h-2.1c-.2,0,-.4,.1,-.4,.4c0,.2,.2,.3,.4,.3m3.5,0h2.2c.2,0,.4,-.1,.4,-.3c0,-.3,-.2,-.4,-.4,-.4h-2.2c-.2,0,-.4,.1,-.4,.4c0,.2,.2,.3,.4,.3m3.6,0h2.1c.2,0,.4,-.1,.4,-.3c0,-.3,-.2,-.4,-.4,-.4h-2.1c-.2,0,-.4,.1,-.4,.4c0,.2,.2,.3,.4,.3m3.5,0h2.2c.2,0,.4,-.1,.4,-.3c0,-.3,-.2,-.4,-.4,-.4h-2.2c-.2,0,-.4,.1,-.4,.4c0,.2,.2,.3,.4,.3m3.6,0h2.1c.2,0,.4,-.1,.4,-.3c0,-.3,-.2,-.4,-.4,-.4h-2.1c-.2,0,-.4,.1,-.4,.4c0,.2,.2,.3,.4,.3Z" class="ga_28"/>
<path d="M606,339.1h2.3c.2,0,.4,-.2,.4,-.4c0,-.2,-.2,-.4,-.4,-.4H606c-.3,0,-.4,.2,-.4,.4c0,.2,.1,.4,.4,.4m3.8,0h2.4c.2,0,.3,-.2,.3,-.4c0,-.2,-.1,-.4,-.3,-.4h-2.4c-.2,0,-.3,.2,-.3,.4c0,.2,.1,.4,.3,.4m3.9,0H616c.3,0,.4,-.2,.4,-.4c0,-.2,-.1,-.4,-.4,-.4h-2.3c-.2,0,-.4,.2,-.4,.4c0,.2,.2,.4,.4,.4m3.9,0h2.3c.2,0,.4,-.2,.4,-.4c0,-.2,-.2,-.4,-.4,-.4h-2.3c-.2,0,-.4,.2,-.4,.4c0,.2,.2,.4,.4,.4m3.9,0h2.3c.2,0,.4,-.2,.4,-.4c0,-.2,-.2,-.4,-.4,-.4h-2.3c-.2,0,-.4,.2,-.4,.4c0,.2,.2,.4,.4,.4m3.9,0h2.3c.2,0,.4,-.2,.4,-.4c0,-.2,-.2,-.4,-.4,-.4h-2.3c-.2,0,-.4,.2,-.4,.4c0,.2,.2,.4,.4,.4m3.8,0h2.4c.2,0,.4,-.2,.4,-.4c0,-.2,-.2,-.4,-.4,-.4h-2.4c-.2,0,-.3,.2,-.3,.4c0,.2,.1,.4,.3,.4m3.9,0h2.4c.2,0,.3,-.2,.3,-.4c0,-.2,-.1,-.4,-.3,-.4h-2.4c-.2,0,-.4,.2,-.4,.4c0,.2,.2,.4,.4,.4m3.9,0h2.3c.2,0,.4,-.2,.4,-.4c0,-.2,-.2,-.4,-.4,-.4H637c-.2,0,-.4,.2,-.4,.4c0,.2,.2,.4,.4,.4m3.9,0h2.3c.2,0,.4,-.2,.4,-.4c0,-.2,-.2,-.4,-.4,-.4h-2.3c-.2,0,-.4,.2,-.4,.4c0,.2,.2,.4,.4,.4m3.9,0h2.3c.2,0,.4,-.2,.4,-.4c0,-.2,-.2,-.4,-.4,-.4h-2.3c-.2,0,-.4,.2,-.4,.4c0,.2,.2,.4,.4,.4m3.9,0H651c.2,0,.4,-.2,.4,-.4c0,-.2,-.2,-.4,-.4,-.4h-2.3c-.3,0,-.4,.2,-.4,.4c0,.2,.1,.4,.4,.4m3.8,0h2.4c.2,0,.3,-.2,.3,-.4c0,-.2,-.1,-.4,-.3,-.4h-2.4c-.2,0,-.3,.2,-.3,.4c0,.2,.1,.4,.3,.4m3.9,0h2.3c.3,0,.4,-.2,.4,-.4c0,-.2,-.1,-.4,-.4,-.4h-2.3c-.2,0,-.4,.2,-.4,.4c0,.2,.2,.4,.4,.4m3.9,0h2.3c.2,0,.4,-.2,.4,-.4c0,-.2,-.2,-.4,-.4,-.4h-2.3c-.2,0,-.4,.2,-.4,.4c0,.2,.2,.4,.4,.4m3.9,0h2.3c.2,0,.4,-.2,.4,-.4c0,-.2,-.2,-.4,-.4,-.4h-2.3c-.2,0,-.4,.2,-.4,.4c0,.2,.2,.4,.4,.4m3.9,0h2.3c.2,0,.4,-.2,.4,-.4c0,-.2,-.2,-.4,-.4,-.4h-2.3c-.2,0,-.4,.2,-.4,.4c0,.2,.2,.4,.4,.4m3.8,0h2.4c.2,0,.4,-.2,.4,-.4c0,-.2,-.2,-.4,-.4,-.4h-2.4c-.2,0,-.3,.2,-.3,.4c0,.2,.1,.4,.3,.4Z" class="ga_28"/>
<path d="M652.7,306.8H655c.3,0,.4,-.1,.4,-.3c0,-.3,-.1,-.4,-.4,-.4h-2.3c-.2,0,-.3,.1,-.3,.4c0,.2,.1,.3,.3,.3m3.9,0h2.3c.2,0,.4,-.1,.4,-.3c0,-.3,-.2,-.4,-.4,-.4h-2.3c-.2,0,-.4,.1,-.4,.4c0,.2,.2,.3,.4,.3m3.8,0h2.3c.2,0,.4,-.1,.4,-.3c0,-.3,-.2,-.4,-.4,-.4h-2.3c-.2,0,-.4,.1,-.4,.4c0,.2,.2,.3,.4,.3m3.9,0h2.3c.2,0,.4,-.1,.4,-.3c0,-.3,-.2,-.4,-.4,-.4h-2.3c-.2,0,-.4,.1,-.4,.4c0,.2,.2,.3,.4,.3m3.8,0h2.3c.2,0,.4,-.1,.4,-.3c0,-.3,-.2,-.4,-.4,-.4h-2.3c-.2,0,-.4,.1,-.4,.4c0,.2,.2,.3,.4,.3m3.9,0h2.3c.2,0,.4,-.1,.4,-.3c0,-.3,-.2,-.4,-.4,-.4H672c-.2,0,-.4,.1,-.4,.4c0,.2,.2,.3,.4,.3Z" class="ga_28"/>
<path d="M649.3,318.5c0,3.4,-.1,6.8,0,10.2c.1,3.1,-1.4,5.3,-4.5,6.7c-3.3,1.4,-6.5,1.1,-9.5,-.7c-.4,-.2,-.9,-.5,-1.1,-.9c-.2,-.2,-.1,-.7,.1,-.9c.1,-.1,.6,-.1,.9,0c.2,0,.4,.3,.6,.4c3.1,2.3,8,2,10.5,-.7c1.1,-1.1,1.5,-2.4,1.5,-3.8c0,-6.8,-.1,-13.6,0,-20.4c0,-2.5,-1.1,-4.4,-3.6,-5.5c-2.6,-1.2,-5.3,-1.1,-7.8,.4c-.3,.1,-.6,.4,-.9,.6c-.4,.3,-.9,.5,-1.2,0c-.2,-.2,-.1,-.8,.2,-1c1.1,-1,2.5,-1.6,4.1,-2c4.7,-1,9.6,1.5,10.6,5.5c.1,.6,.1,1.1,.1,1.7c0,3.5,0,6.9,0,10.4Z" class="ga_28"/>
<path d="M634.2,310.6c-1.7,-.2,-2.2,-1.4,-1.5,-3c.5,-1,1.4,-1.5,2.4,-1.8c1.6,-.5,3.2,-.5,4.7,0c2,.6,3.2,2.5,3,4.5c-.2,1.9,-1.8,3.6,-3.7,3.8c-2.1,.3,-3.9,-.8,-4.7,-2.8c0,-.2,-.1,-.4,-.2,-.7m7.1,0c-1.4,-.4,-1.6,-.6,-2.2,-1.8c-.2,-.3,-.3,-.6,-.5,-.9c-.7,-.9,-1.4,-1,-2.2,-.1c-.8,.8,-1.1,2.1,-.6,3.2c.5,1.1,1.5,1.8,2.8,1.8c1.3,-.1,2.2,-.8,2.7,-2.2m.1,-1.6c.2,-1,-1.8,-1.6,-1.8,-1.6c.5,1.7,1.7,2.2,1.8,1.6m-6.5,-1.7c-1.9,.8,-.9,2.3,-.8,1.9c0,0,.2,-1.2,.8,-1.9Z" class="ga_28"/>
<path d="M634.2,320c-1.7,-.3,-2.2,-1.5,-1.5,-3c.5,-1.1,1.4,-1.5,2.4,-1.8c1.6,-.5,3.2,-.6,4.7,-.1c2,.6,3.2,2.5,3,4.5c-.2,1.9,-1.8,3.6,-3.7,3.9c-2.1,.2,-3.9,-.9,-4.7,-2.9c0,-.2,-.1,-.4,-.2,-.6m7.1,0c-1.4,-.5,-1.6,-.6,-2.2,-1.9c-.2,-.3,-.3,-.6,-.5,-.8c-.7,-1,-1.4,-1,-2.2,-.2c-.8,.8,-1.1,2.1,-.6,3.2c.5,1.2,1.5,1.8,2.8,1.8c1.3,0,2.2,-.8,2.7,-2.1m.1,-1.7c.2,-1,-1.8,-1.6,-1.8,-1.6c.5,1.8,1.7,2.2,1.8,1.6m-6.5,-1.7c-1.9,.8,-.9,2.3,-.8,1.9c0,0,.2,-1.2,.8,-1.9Z" class="ga_28"/>
<path d="M634.2,329.1c-1.7,-.3,-2.2,-1.5,-1.5,-3c.5,-1.1,1.4,-1.5,2.4,-1.8c1.6,-.5,3.2,-.6,4.7,-.1c2,.6,3.2,2.5,3,4.5c-.2,1.9,-1.8,3.6,-3.7,3.9c-2.1,.2,-3.9,-.9,-4.7,-2.8c0,-.3,-.1,-.5,-.2,-.7m7.1,0c-1.4,-.5,-1.6,-.6,-2.2,-1.9c-.2,-.3,-.3,-.6,-.5,-.8c-.7,-1,-1.4,-1,-2.2,-.2c-.8,.8,-1.1,2.1,-.6,3.2c.5,1.2,1.5,1.8,2.8,1.8c1.3,0,2.2,-.8,2.7,-2.1m.1,-1.7c.2,-1,-1.8,-1.6,-1.8,-1.6c.5,1.8,1.7,2.2,1.8,1.6m-6.5,-1.7c-1.9,.8,-.9,2.3,-.8,1.9c0,0,.2,-1.2,.8,-1.9Z" class="ga_28"/>
<path d="M630.4,323.6L625.1,318c-.2,-.2,-.6,-.2,-.9,0c-.2,.2,-.2,.6,0,.9l5.3,5.5c.2,.3,.6,.3,.9,0c.2,-.2,.2,-.6,0,-.8Z" class="ga_28"/>
<path d="M630.4,331.2l-5.3,5.5c-.2,.3,-.6,.3,-.9,.1c-.2,-.3,-.2,-.7,0,-.9l5.3,-5.6c.2,-.2,.6,-.2,.9,0c.2,.3,.2,.7,0,.9Z" class="ga_28"/>
<path d="M629.2,325.6l-7.3,-1.4c-.3,-.1,-.6,.1,-.7,.4c-.1,.4,.2,.7,.5,.8l7.2,1.4c.4,.1,.7,-.2,.8,-.5c0,-.3,-.2,-.7,-.5,-.7Z" class="ga_28"/>
<path d="M629.2,329.2l-7.3,1.4c-.3,.1,-.6,-.1,-.7,-.5c-.1,-.3,.1,-.6,.5,-.7l7.2,-1.4c.4,-.1,.7,.1,.8,.5c0,.3,-.2,.6,-.5,.7Z" class="ga_28"/>
<path d="M303.1,375.4V355.1h-.7v20.3Z" class="g3_28"/>
<path d="M303.1,400.3V375.4h-.7v24.9Z" class="g3_28"/>
<path d="M195.3,420.5V400.3h-.8v20.2Z" class="g3_28"/>
<path d="M303.1,420.5V400.3h-.7v20.2Z" class="g3_28"/>
<path d="M195.3,440.6V420.5h-.8v20.1Z" class="g3_28"/>
<path d="M303.1,440.6V420.5h-.7v20.1Z" class="g3_28"/>
<path d="M195.3,460.8V440.6h-.8v20.2Z" class="g3_28"/>
<path d="M303.1,460.8V440.6h-.7v20.2Z" class="g3_28"/>
<path d="M195.3,481V460.8h-.8V481Z" class="g3_28"/>
<path d="M303.1,481V460.8h-.7V481Z" class="g3_28"/>
<path d="M195.3,501.2V481h-.8v20.2Z" class="g3_28"/>
<path d="M303.1,501.2V481h-.7v20.2Z" class="g3_28"/>
<path d="M195.3,521.4V501.2h-.8v20.2Z" class="g3_28"/>
<path d="M303.1,521.4V501.2h-.7v20.2Z" class="g3_28"/>
<path d="M195.3,541.6V521.4h-.8v20.2Z" class="g3_28"/>
<path d="M303.1,541.6V521.4h-.7v20.2Z" class="g3_28"/>
<path d="M195.3,561.7V541.6h-.8v20.1Z" class="g3_28"/>
<path d="M303.1,561.7V541.6h-.7v20.1Z" class="g3_28"/>
<path d="M195.3,581.9V561.7h-.8v20.2Z" class="g3_28"/>
<path d="M303.1,581.9V561.7h-.7v20.2Z" class="g3_28"/>
<path d="M195.3,602.1V581.9h-.8v20.2Z" class="g3_28"/>
<path d="M303.1,602.1V581.9h-.7v20.2Z" class="g3_28"/>
<path d="M78,376.2H194.9v-1.5H78Z" class="g5_28"/>
<path d="M194.9,376.2H302.4v-1.5H194.9Z" class="g5_28"/>
<path d="M61.2,394C71,394,79,386,79,376.1c0,-9.8,-8,-17.8,-17.8,-17.8c-9.9,0,-17.9,8,-17.9,17.8c0,9.9,8,17.9,17.9,17.9Z" class="g5_28"/>
<path d="M71.6,377.9c0,.7,.2,1.5,.2,2.2c0,2,-1,3.5,-2.7,4.7c-1.3,.8,-2.8,1.2,-4.3,1.2c-2.4,.1,-4.8,.1,-7.2,0c-1.7,0,-3.2,-.4,-4.5,-1.3c-2,-1.4,-2.8,-3.2,-2.5,-5.7c.2,-1.9,.3,-3.9,.4,-5.8c0,-1.8,0,-3.6,-.1,-5.5c0,-2.1,.9,-3.7,2.5,-4.9c1.5,-1.1,3.2,-1.6,4.9,-1.6c2,0,3.9,0,5.8,0c1.6,0,3.2,.5,4.6,1.4c1.9,1.4,2.9,3.2,2.7,5.6c-.1,1.2,0,2.4,0,3.6c-.1,0,.1,4.1,.2,6.1M61.2,362.4v0c-1,0,-1.9,0,-2.9,0c-1.3,0,-2.5,.3,-3.6,1c-1.6,.9,-2.7,2.2,-2.6,4.1c.1,.9,.3,1.7,.6,2.6c.4,1.3,1.1,2.5,2.2,3.5c.2,.2,.2,.6,-.1,.9c-.6,.6,-1.3,1.2,-2.1,1.5c-.6,.1,-.7,.5,-.7,1c-.1,.5,.1,.8,.4,1.2c.8,.8,1.7,1.3,2.7,1.8c1.8,.7,3.7,1,5.6,1c2,0,4.1,-.1,6,-.8c1.4,-.5,2.6,-1.2,3.4,-2.3c.1,-.2,.2,-.3,.2,-.5c0,-.3,0,-.7,0,-1l-.2,-.3c-1.1,-.3,-1.9,-.9,-2.6,-1.6c-.3,-.4,-.3,-.7,0,-1c.4,-.5,.9,-.9,1.2,-1.5c.8,-1.2,1.2,-2.5,1.4,-3.9c.2,-1.2,0,-2.3,-.7,-3.2c-1.2,-1.5,-2.8,-2.3,-4.7,-2.4c-1.1,-.2,-2.3,-.1,-3.5,-.1M51.8,379c-.3,1.6,0,3,1.3,4.2c1.3,1.2,2.8,1.6,4.6,1.7c2.3,0,4.6,0,6.9,0c.8,0,1.6,-.2,2.4,-.4c1.4,-.5,2.5,-1.3,3.2,-2.6c.5,-1,.5,-2,.3,-3h-.1c-1.1,1.4,-2.6,2.2,-4.3,2.7c-2.9,.7,-5.7,.8,-8.6,.3c-1.4,-.3,-2.8,-.7,-3.9,-1.5c-.7,-.4,-1.2,-1,-1.8,-1.4Z" class="g6_28"/>
<path d="M55.8,386.5c-.5,.4,-1,.7,-1.5,1.1c-.5,.4,-1.7,1.4,-2.2,1.8c-.3,.2,-.6,.2,-.8,.1l-.3,-.3c-.1,-.3,0,-.5,.2,-.7c.3,-.2,1.4,-1.1,1.7,-1.3c.4,-.4,.9,-.7,1.3,-1l.4,-.1c.4,.1,.8,.2,1.2,.4Z" class="g6_28"/>
<path d="M66.5,386.5c.5,-.2,.9,-.3,1.3,-.4l.3,.1c.7,.5,2.3,1.7,3,2.3c.1,.1,.3,.2,.3,.4c.1,.2,.1,.5,-.2,.6c-.2,.1,-.5,.1,-.7,0c-1.1,-.8,-2.9,-2.2,-4,-3Z" class="g6_28"/>
<path d="M61.1,373.1c-1.1,0,-2.1,.1,-3.2,0c-2,-.2,-3.5,-1.6,-3.9,-3.5c-.1,-.5,-.2,-1,-.3,-1.5c-.3,-1.9,1,-3.6,3,-3.6c3,0,6,0,8.9,0c1.9,0,3.2,1.5,3,3.3c-.1,1.1,-.2,2.2,-.8,3.2c-.9,1.4,-2.2,2.1,-3.9,2.1c-.9,0,-1.9,0,-2.8,0Z" class="g6_28"/>
<path d="M65.7,375.8c.3,0,.5,0,.8,0c.4,0,.7,.3,.6,.6c-.5,.9,-1,1.7,-1.5,2.6c-.1,.2,-.3,.3,-.6,.3c-.5,0,-1.1,0,-1.6,0c-.5,-.1,-.7,-.4,-.6,-.7c.5,-.8,1,-1.7,1.5,-2.5c.1,-.2,.3,-.3,.7,-.3c.2,0,.4,0,.7,0Z" class="g6_28"/>
<path d="M58.1,379.3c-.2,0,-.5,0,-.7,0c-.3,0,-.6,-.1,-.7,-.4c-.5,-.8,-1,-1.6,-1.4,-2.4c-.2,-.4,0,-.7,.6,-.7c.5,0,1,0,1.5,0c.3,0,.5,.1,.6,.3c.5,.9,1,1.7,1.5,2.5c.2,.3,-.1,.6,-.6,.7c-.2,0,-.5,0,-.8,0Z" class="g6_28"/>
<path d="M62.2,383.6c0,.5,-.5,1,-1,1c-.6,0,-1.1,-.4,-1.1,-1c0,-.5,.5,-1,1,-1.1c.6,0,1.1,.5,1.1,1.1Z" class="g6_28"/>
<path d="M303.1,631.2V610.8h-.7v20.4Z" class="g3_28"/>
<path d="M303.1,656V631.2h-.7V656Z" class="g3_28"/>
<path d="M195.3,676.2V656h-.8v20.2Z" class="g3_28"/>
<path d="M303.1,676.2V656h-.7v20.2Z" class="g3_28"/>
<path d="M195.3,696.4V676.2h-.8v20.2Z" class="g3_28"/>
<path d="M303.1,696.4V676.2h-.7v20.2Z" class="g3_28"/>
<path d="M195.3,716.5V696.4h-.8v20.1Z" class="g3_28"/>
<path d="M303.1,716.5V696.4h-.7v20.1Z" class="g3_28"/>
<path d="M195.3,736.7V716.5h-.8v20.2Z" class="g3_28"/>
<path d="M303.1,736.7V716.5h-.7v20.2Z" class="g3_28"/>
<path d="M195.3,756.9V736.7h-.8v20.2Z" class="g3_28"/>
<path d="M303.1,756.9V736.7h-.7v20.2Z" class="g3_28"/>
<path d="M195.3,777.1V756.9h-.8v20.2Z" class="g3_28"/>
<path d="M303.1,777.1V756.9h-.7v20.2Z" class="g3_28"/>
<path d="M195.3,797.3V777.1h-.8v20.2Z" class="g3_28"/>
<path d="M303.1,797.3V777.1h-.7v20.2Z" class="g3_28"/>
<path d="M195.3,817.5V797.3h-.8v20.2Z" class="g3_28"/>
<path d="M303.1,817.5V797.3h-.7v20.2Z" class="g3_28"/>
<path d="M195.3,837.6V817.5h-.8v20.1Z" class="g3_28"/>
<path d="M303.1,837.6V817.5h-.7v20.1Z" class="g3_28"/>
<path d="M195.3,857.8V837.6h-.8v20.2Z" class="g3_28"/>
<path d="M303.1,857.8V837.6h-.7v20.2Z" class="g3_28"/>
<path d="M78.2,631.9H194.9v-1.5H78.2Z" class="g5_28"/>
<path d="M194.9,631.9H302.4v-1.5H194.9Z" class="g5_28"/>
<path d="M61.2,649.7c9.8,0,17.8,-8,17.8,-17.8C79,622,71,614,61.2,614c-9.9,0,-17.9,8,-17.9,17.9c0,9.8,8,17.8,17.9,17.8Z" class="g5_28"/>
<path d="M71.6,633.6c0,.8,.2,1.5,.2,2.2c0,2,-1,3.6,-2.7,4.7c-1.3,.8,-2.8,1.2,-4.3,1.3c-2.4,0,-4.8,0,-7.2,0c-1.7,-.1,-3.2,-.5,-4.5,-1.4c-2,-1.4,-2.8,-3.2,-2.5,-5.6c.2,-2,.3,-3.9,.4,-5.9c0,-1.8,0,-3.6,-.1,-5.4c0,-2.2,.9,-3.8,2.5,-5c1.5,-1.1,3.2,-1.6,4.9,-1.6c2,0,3.9,0,5.8,0c1.6,0,3.2,.5,4.6,1.4c1.9,1.4,2.9,3.2,2.7,5.6c-.1,1.2,0,2.4,0,3.6c-.1,0,.1,4.1,.2,6.1M61.2,618.2v-.1c-1,0,-1.9,0,-2.9,0c-1.3,0,-2.5,.3,-3.6,1c-1.6,.9,-2.7,2.2,-2.6,4.2c.1,.8,.3,1.7,.6,2.5c.4,1.3,1.1,2.6,2.2,3.5c.2,.2,.2,.6,-.1,.9c-.6,.6,-1.3,1.2,-2.1,1.5c-.6,.2,-.7,.5,-.7,1c-.1,.5,.1,.8,.4,1.2c.8,.8,1.7,1.3,2.7,1.8c1.8,.7,3.7,1,5.6,1c2,0,4.1,-.1,6,-.8c1.4,-.5,2.6,-1.2,3.4,-2.3c.1,-.2,.2,-.3,.2,-.5c0,-.3,0,-.6,0,-1l-.2,-.2c-1.1,-.4,-1.9,-1,-2.6,-1.7c-.3,-.3,-.3,-.7,0,-1c.4,-.4,.9,-.9,1.2,-1.4c.8,-1.3,1.2,-2.6,1.4,-4c.2,-1.2,0,-2.2,-.7,-3.2c-1.2,-1.5,-2.8,-2.3,-4.7,-2.4c-1.1,-.1,-2.3,0,-3.5,0m-9.4,16.5c-.3,1.6,0,3,1.3,4.2c1.3,1.2,2.8,1.7,4.6,1.7c2.3,0,4.6,0,6.9,0c.8,0,1.6,-.1,2.4,-.4c1.4,-.5,2.5,-1.3,3.2,-2.6c.5,-1,.5,-2,.3,-3h-.1c-1.1,1.5,-2.6,2.2,-4.3,2.7c-2.9,.8,-5.7,.8,-8.6,.3c-1.4,-.2,-2.8,-.7,-3.9,-1.5c-.7,-.4,-1.2,-.9,-1.8,-1.4Z" class="g6_28"/>
<path d="M55.8,642.2c-.5,.4,-1,.7,-1.5,1.1c-.5,.4,-1.7,1.4,-2.2,1.8c-.3,.2,-.6,.2,-.8,.1l-.3,-.3c-.1,-.3,0,-.5,.2,-.6c.3,-.3,1.4,-1.2,1.7,-1.4c.4,-.4,.9,-.7,1.3,-1l.4,-.1c.4,.1,.8,.2,1.2,.4Z" class="g6_28"/>
<path d="M66.5,642.2c.5,-.2,.9,-.3,1.3,-.4l.3,.1c.7,.5,2.3,1.7,3,2.3c.1,.1,.3,.2,.3,.4c.1,.2,.1,.5,-.2,.6c-.2,.1,-.5,.1,-.7,0c-1.1,-.7,-2.9,-2.2,-4,-3Z" class="g6_28"/>
<path d="M61.1,628.8c-1.1,0,-2.1,.1,-3.2,0c-2,-.1,-3.5,-1.6,-3.9,-3.5c-.1,-.5,-.2,-1,-.3,-1.5c-.3,-1.9,1,-3.6,3,-3.6c3,0,6,0,8.9,0c1.9,0,3.2,1.5,3,3.4c-.1,1,-.2,2.1,-.8,3.1c-.9,1.4,-2.2,2.1,-3.9,2.1c-.9,0,-1.9,0,-2.8,0Z" class="g6_28"/>
<path d="M65.7,631.5c.3,0,.5,0,.8,0c.4,0,.7,.3,.6,.6c-.5,.9,-1,1.7,-1.5,2.6c-.1,.2,-.3,.3,-.6,.3c-.5,0,-1.1,0,-1.6,0c-.5,0,-.7,-.3,-.6,-.7c.5,-.8,1,-1.6,1.5,-2.5c.1,-.2,.3,-.3,.7,-.3c.2,0,.4,0,.7,0Z" class="g6_28"/>
<path d="M58.1,635c-.2,0,-.5,0,-.7,0c-.3,0,-.6,-.1,-.7,-.4c-.5,-.8,-1,-1.6,-1.4,-2.4c-.2,-.4,0,-.7,.6,-.7c.5,0,1,0,1.5,0c.3,0,.5,.1,.6,.3c.5,.9,1,1.7,1.5,2.5c.2,.3,-.1,.6,-.6,.7c-.2,0,-.5,0,-.8,0Z" class="g6_28"/>
<path d="M62.2,639.3c0,.6,-.5,1,-1,1c-.6,0,-1.1,-.4,-1.1,-1c0,-.5,.5,-1,1,-1c.6,0,1.1,.4,1.1,1Z" class="g6_28"/>
<path d="M43.3,863.7H303.1v-1.5H43.3Z" class="gb_28"/>
<path d="M200.7,355.1V299.8h-3v55.3Z" class="g3_28"/>
<path d="M890,1286.2h19.4V0H890V1286.2Z" class="g3_28"/>
</svg>