<?xml version="1.0" encoding="UTF-8" standalone="no"?>
<!DOCTYPE svg PUBLIC "-//W3C//DTD SVG 1.1//EN"
"http://www.w3.org/Graphics/SVG/1.1/DTD/svg11.dtd">
<svg viewBox="0 0 909 1286" version="1.1" xmlns="http://www.w3.org/2000/svg" xmlns:xlink="http://www.w3.org/1999/xlink">
<defs>
<clipPath id="c0_10"><path d="M868.1,55.4V43.3H810.4V55.4ZM324.8,340V0H909.4V340H866.8V268H505.5v72Z"/></clipPath>
<clipPath id="c1_10"><path d="M810.4,55.4V43.3h57.7V55.4Z"/></clipPath>
<clipPath id="c2_10"><path d="M778.7,369.2V364h87.4v-2.3h-11V340h11.7v29.2Z"/></clipPath>
<clipPath id="c3_10"><path d="M855.1,340V299c0,-3.9,-1.2,-7.5,-3.3,-10.5v-2.6h-2.2c-3.3,-3.2,-7.8,-5.2,-12.8,-5.2H794.4c-5,0,-9.5,2,-12.8,5.2h-2.5V289c-.2,.2,-.3,.4,-.4,.6V268h88.1v72Z"/></clipPath>
<clipPath id="c4_10"><path d="M855.1,364v-2.3h11V364Z"/></clipPath>
<clipPath id="c5_10"><path d="M779.1,289v-3.1h2.5c-1,.9,-1.8,2,-2.5,3.1Zm72.7,-.5c-.6,-.9,-1.4,-1.8,-2.2,-2.6h2.2v2.6Z"/></clipPath>
<clipPath id="c6_10"><path d="M690.6,369.2V364h78.8v5.2ZM767,361.7V340h2.4v21.7Z"/></clipPath>
<clipPath id="c7_10"><path d="M767,340V299c0,-10.1,-8.2,-18.3,-18.3,-18.3H706.3c-6.7,0,-12.5,3.6,-15.7,8.9V268h78.8v72Z"/></clipPath>
<clipPath id="c8_10"><path d="M767,364v-2.3h2.4V364Z"/></clipPath>
<clipPath id="c9_10"><path d="M769.4,369.2V364h9.3v5.2Zm0,-7.5V340h6.7v16.9H776v4.8Z"/></clipPath>
<clipPath id="ca_10"><path d="M769.4,340V268h9.3v21.6c-1.7,2.7,-2.6,6,-2.6,9.4v41Z"/></clipPath>
<clipPath id="cb_10"><path d="M769.4,364v-2.3H776V364Z"/></clipPath>
<clipPath id="cc_10"><path d="M776.1,356.9V299c0,-3.4,.9,-6.7,2.6,-9.4v67.3Z"/></clipPath>
<clipPath id="cd_10"><path d="M776,364v-7.1h2.7V364Z"/></clipPath>
<clipPath id="ce_10"><path d="M602.8,369.2V364h78.5v5.2Zm76.1,-7.5V340h2.4v21.7Z"/></clipPath>
<clipPath id="cf_10"><path d="M678.9,340V299c0,-10.1,-8.2,-18.3,-18.3,-18.3H618.2c-6.4,0,-12.1,3.3,-15.4,8.3V268h78.5v72Z"/></clipPath>
<clipPath id="cg_10"><path d="M678.9,364v-2.3h2.4V364Z"/></clipPath>
<clipPath id="ch_10"><path d="M681.3,369.2V364h9.3v5.2Zm0,-7.5V340H688v16.9h-.1v4.8Z"/></clipPath>
<clipPath id="ci_10"><path d="M681.3,340V268h9.3v21.6c-1.7,2.8,-2.6,6,-2.6,9.4v41Z"/></clipPath>
<clipPath id="cj_10"><path d="M681.3,364v-2.3h6.6V364Z"/></clipPath>
<clipPath id="ck_10"><path d="M688,356.9V299c0,-3.4,.9,-6.6,2.6,-9.4v67.3Z"/></clipPath>
<clipPath id="cl_10"><path d="M687.9,364v-7.1h2.7V364Z"/></clipPath>
<clipPath id="cm_10"><path d="M505.5,369.2V364h87.7v5.2Zm0,-7.5V340h87.7v21.7Z"/></clipPath>
<clipPath id="cn_10"><path d="M505.5,340V268h87.7v72Z"/></clipPath>
<clipPath id="co_10"><path d="M505.5,364v-2.3h87.7V364Z"/></clipPath>
<clipPath id="cp_10"><path d="M593.2,369.2V364h9.6v5.2Zm0,-7.5V340h6.7v16.9h-.1v4.8Z"/></clipPath>
<clipPath id="cq_10"><path d="M593.2,340V268h9.6v21c-1.8,2.9,-2.9,6.3,-2.9,10v41Z"/></clipPath>
<clipPath id="cr_10"><path d="M593.2,364v-2.3h6.6V364Z"/></clipPath>
<clipPath id="cs_10"><path d="M599.9,356.9V299c0,-3.7,1.1,-7.1,2.9,-10v67.9Z"/></clipPath>
<clipPath id="ct_10"><path d="M599.8,364v-7.1h3V364Z"/></clipPath>
<style type="text/css"><![CDATA[
.g0_10{
fill: #1B1661;
}
.g1_10{
fill: #FFF;
}
.g2_10{
fill: #E7E8E8;
}
.g3_10{
fill: #DCDDDE;
}
.g4_10{
fill: #D1232A;
}
.g5_10{
fill: #CFCBCA;
}
.g6_10{
fill: #FCB61D;
}
.g7_10{
fill: #FEE6BB;
}
.g8_10{
fill: #5AC4C1;
}
.g9_10{
fill: #09B795;
}
.ga_10{
fill: #F37537;
}
.gb_10{
fill: #5180C1;
}
]]></style>
</defs>
<image clip-path="url(#c0_10)" preserveAspectRatio="none" x="325" y="0" width="585" height="340" xlink:href="img/1.jpg"/>
<image clip-path="url(#c1_10)" preserveAspectRatio="none" x="810" y="43" width="58" height="13" xlink:href="img/2.jpg"/>
<path d="M607.1,893.3h-.8v347.8H866.1V892.6H606.3v.7h.8v.8H864.6v345.4H607.8V893.3h-.7v.8Z" class="g0_10"/>
<path d="M651.3,899H821.1V885.2H651.3Z" class="g1_10"/>
<path d="M43.3,1237.9H303.1v-270H43.3v270Z" class="g2_10"/>
<path d="M43.3,967.9H303.1v27.7H43.3V967.9Z" class="g0_10"/>
<path d="M43.3,995.6H303.1v25.2H43.3V995.6Zm0,206.9H303.1v35.4H43.3v-35.4Z" class="g3_10"/>
<path d="M43.3,1021.2H303.1v-.8H43.3v.8Z" class="g1_10"/>
<path d="M43.3,1202.9H303.1v-.7H43.3v.7Z" class="g1_10"/>
<path d="M62.4,979.5l-1,-.7c-.2,-.1,-.6,-.1,-.8,.2l-4.7,6.9l-2.1,-2.1c-.2,-.3,-.6,-.3,-.8,0l-.9,.8c-.2,.2,-.2,.6,0,.8l3.4,3.3c.1,.2,.4,.4,.7,.4c.3,0,.5,-.2,.7,-.5l5.7,-8.3c.1,-.3,.1,-.6,-.2,-.8Z" class="g1_10"/>
<path d="M324.8,1241.1H584.6V1066.9H324.8v174.2Z" class="g2_10"/>
<path d="M324.8,1066.9H584.6v26.3H324.8v-26.3Z" class="g0_10"/>
<path d="M324.8,1093.2H511.6v38.2H324.8v-38.2Zm186.8,0h73v38.2h-73v-38.2Zm-186.8,60.4H511.6v22.1H324.8v-22.1Zm186.8,0h73v22.1h-73v-22.1Zm-186.8,44.3H511.6V1220H324.8v-22.1Zm186.8,0h73V1220h-73v-22.1Z" class="g3_10"/>
<path d="M324.8,1220.8H511.6v-1.5H324.8Z" class="g1_10"/>
<path d="M511.6,1220.8h73v-1.5h-73Z" class="g1_10"/>
<path d="M343.9,1077.2l-1,-.7c-.2,-.2,-.6,-.1,-.8,.2l-4.7,6.9l-2.1,-2.2c-.3,-.2,-.6,-.2,-.8,0l-.9,.8c-.2,.3,-.2,.6,0,.9l3.4,3.3c.1,.2,.4,.3,.7,.3c.3,0,.5,-.1,.7,-.4l5.7,-8.3c.1,-.3,.1,-.7,-.2,-.8Z" class="g1_10"/>
<path d="M325.6,551.6h-.8v27.6H584.6V550.8H324.8v.8h.8v.8H583.1v25.3H326.3V551.6h-.7v.8Z" class="g4_10"/>
<path d="M346,574c-5.3,0,-9.7,-4.3,-9.6,-9.7c0,-5.3,4.3,-9.6,9.7,-9.6c5.3,0,9.6,4.4,9.6,9.7c0,5.3,-4.4,9.6,-9.7,9.6m0,-1.4c4.6,0,8.3,-3.7,8.3,-8.2c0,-4.6,-3.7,-8.3,-8.3,-8.3c-4.5,0,-8.2,3.7,-8.2,8.2c-.1,4.6,3.6,8.3,8.2,8.3Z" class="g4_10"/>
<path d="M332.8,559.8c.4,.2,.5,0,.5,-.3c0,-1.3,0,-2.5,0,-3.7c0,-.2,-.1,-.5,0,-.6c.2,-.2,.4,-.5,.6,-.5c.3,0,.5,.3,.7,.5c.1,.1,.1,.4,.1,.6c0,1.3,0,2.7,0,4.1h.4c0,-.9,0,-1.8,0,-2.7c0,-.7,-.1,-1.3,-.1,-1.9c0,-.4,.3,-.6,.7,-.7c.4,0,.7,.3,.7,.7c.1,1.8,.2,3.6,.2,5.5c0,.8,-.4,1.4,-1.1,1.9c-.3,.2,-.4,.4,-.4,.8c.1,3.5,.1,7,.2,10.5c0,.6,-.2,1,-.8,1.3c-.5,.2,-1,.2,-1.4,-.2c-.2,-.3,-.4,-.8,-.4,-1.2c0,-2.3,0,-4.6,.1,-6.9c0,-1.2,0,-2.4,0,-3.6c0,-.2,-.2,-.5,-.4,-.6c-.7,-.6,-1.1,-1.4,-1.1,-2.4c.1,-1.6,.2,-3.3,.2,-5c0,-.4,.2,-.7,.7,-.8c.4,0,.7,.3,.7,.9c0,1.2,-.1,2.5,-.1,3.8c-.1,.2,0,.3,0,.5m2.1,1.5H333c.7,.7,1.3,.7,1.9,0Z" class="g4_10"/>
<path d="M356.5,565.1c0,-2.9,0,-5.7,0,-8.6c0,-.7,.2,-1.3,.8,-1.6c.9,-.6,2.1,-.1,2.4,1c.5,2.3,.8,4.6,.5,6.9c-.1,1.1,-.3,2.2,-.5,3.3c0,.2,0,.5,0,.7c0,2.4,0,4.8,-.1,7.2c0,.9,-.6,1.4,-1.6,1.4c-.9,0,-1.5,-.5,-1.5,-1.5c-.1,-.1,0,-.3,0,-.4c0,-2.8,0,-5.6,0,-8.4m1.3,.4q.6,.1,.7,-.3c.5,-2.3,.5,-4.7,.2,-7c-.1,-.6,-.2,-1.2,-.3,-1.8l-.3,-.3l-.3,.4v.2c0,2.8,0,5.5,0,8.3Z" class="g4_10"/>
<path d="M346,557.6v.8h.1c3.2,-.1,5.9,2.7,5.9,5.9v.1c.1,3.2,-2.7,6,-5.9,6H346c-1.6,0,-3.1,-.7,-4.2,-1.8C340.7,567.5,340,566,340,564.4c0,-3.3,2.7,-6,6,-6v-1.6c-4.1,0,-7.5,3.4,-7.5,7.6c0,4.1,3.4,7.5,7.5,7.5h.1c4.1,0,7.5,-3.4,7.5,-7.5v-.1c0,-4.1,-3.4,-7.5,-7.5,-7.5H346Z" class="g4_10"/>
<path d="M43.3,934.4H303.1v-1.6H43.3Z" class="g5_10"/>
<path d="M303.1,313.8V293.4h-.7v20.4Z" class="g1_10"/>
<path d="M303.1,338.6V313.8h-.7v24.8Z" class="g1_10"/>
<path d="M173.6,359.2V338.6h-.8v20.6Z" class="g1_10"/>
<path d="M238.4,359.2V338.6h-.8v20.6Z" class="g1_10"/>
<path d="M303.1,359.2V338.6h-.7v20.6Z" class="g1_10"/>
<path d="M173.6,379.8V359.2h-.8v20.6Z" class="g1_10"/>
<path d="M238.4,379.8V359.2h-.8v20.6Z" class="g1_10"/>
<path d="M303.1,379.8V359.2h-.7v20.6Z" class="g1_10"/>
<path d="M173.6,400.5V379.8h-.8v20.7Z" class="g1_10"/>
<path d="M238.4,400.5V379.8h-.8v20.7Z" class="g1_10"/>
<path d="M303.1,400.5V379.8h-.7v20.7Z" class="g1_10"/>
<path d="M173.6,421.1V400.5h-.8v20.6Z" class="g1_10"/>
<path d="M238.4,421.1V400.5h-.8v20.6Z" class="g1_10"/>
<path d="M303.1,421.1V400.5h-.7v20.6Z" class="g1_10"/>
<path d="M173.6,441.7V421.1h-.8v20.6Z" class="g1_10"/>
<path d="M238.4,441.7V421.1h-.8v20.6Z" class="g1_10"/>
<path d="M303.1,441.7V421.1h-.7v20.6Z" class="g1_10"/>
<path d="M173.6,462.3V441.7h-.8v20.6Z" class="g1_10"/>
<path d="M238.4,462.3V441.7h-.8v20.6Z" class="g1_10"/>
<path d="M303.1,462.3V441.7h-.7v20.6Z" class="g1_10"/>
<path d="M173.6,482.9V462.3h-.8v20.6Z" class="g1_10"/>
<path d="M238.4,482.9V462.3h-.8v20.6Z" class="g1_10"/>
<path d="M303.1,482.9V462.3h-.7v20.6Z" class="g1_10"/>
<path d="M173.6,503.5V482.9h-.8v20.6Z" class="g1_10"/>
<path d="M238.4,503.5V482.9h-.8v20.6Z" class="g1_10"/>
<path d="M303.1,503.5V482.9h-.7v20.6Z" class="g1_10"/>
<path d="M173.6,524.2V503.5h-.8v20.7Z" class="g1_10"/>
<path d="M238.4,524.2V503.5h-.8v20.7Z" class="g1_10"/>
<path d="M303.1,524.2V503.5h-.7v20.7Z" class="g1_10"/>
<path d="M173.6,544.8V524.2h-.8v20.6Z" class="g1_10"/>
<path d="M238.4,544.8V524.2h-.8v20.6Z" class="g1_10"/>
<path d="M303.1,544.8V524.2h-.7v20.6Z" class="g1_10"/>
<path d="M173.6,565.4V544.8h-.8v20.6Z" class="g1_10"/>
<path d="M238.4,565.4V544.8h-.8v20.6Z" class="g1_10"/>
<path d="M303.1,565.4V544.8h-.7v20.6Z" class="g1_10"/>
<path d="M173.6,586V565.4h-.8V586Z" class="g1_10"/>
<path d="M238.4,586V565.4h-.8V586Z" class="g1_10"/>
<path d="M303.1,586V565.4h-.7V586Z" class="g1_10"/>
<path d="M173.6,606.6V586h-.8v20.6Z" class="g1_10"/>
<path d="M238.4,606.6V586h-.8v20.6Z" class="g1_10"/>
<path d="M303.1,606.6V586h-.7v20.6Z" class="g1_10"/>
<path d="M78,314.5h95.2V313H78Z" class="g6_10"/>
<path d="M173.2,314.5H238V313H173.2Z" class="g6_10"/>
<path d="M238,314.5h64.4V313H238Z" class="g6_10"/>
<path d="M61.2,332.3c9.8,0,17.8,-8,17.8,-17.8c0,-9.9,-8,-17.9,-17.8,-17.9c-9.9,0,-17.9,8,-17.9,17.9c0,9.8,8,17.8,17.9,17.8Z" class="g6_10"/>
<path d="M71.6,316.3c0,.7,.2,1.4,.2,2.1c0,2.1,-1,3.6,-2.7,4.7c-1.3,.9,-2.8,1.3,-4.3,1.3c-2.4,0,-4.8,0,-7.2,0c-1.7,0,-3.2,-.4,-4.5,-1.4c-2,-1.4,-2.8,-3.2,-2.5,-5.6c.2,-2,.3,-3.9,.4,-5.9c0,-1.8,0,-3.6,-.1,-5.4c0,-2.1,.9,-3.8,2.5,-5c1.5,-1.1,3.2,-1.5,4.9,-1.6c2,0,3.9,0,5.8,0c1.6,.1,3.2,.5,4.6,1.5c1.9,1.3,2.9,3.2,2.7,5.6c-.1,1.2,0,2.4,0,3.6c-.1,0,.1,4,.2,6.1M61.2,300.8v-.1c-1,0,-1.9,0,-2.9,0c-1.3,0,-2.5,.3,-3.6,1c-1.6,1,-2.7,2.3,-2.6,4.2c.1,.8,.3,1.7,.6,2.5c.4,1.3,1.1,2.6,2.2,3.5c.2,.3,.2,.6,-.1,.9c-.6,.6,-1.3,1.2,-2.1,1.5c-.6,.2,-.7,.5,-.7,1c-.1,.5,.1,.9,.4,1.2c.8,.8,1.7,1.4,2.7,1.8c1.8,.7,3.7,1,5.6,1c2,.1,4.1,-.1,6,-.8c1.4,-.5,2.6,-1.2,3.4,-2.3c.1,-.1,.2,-.3,.2,-.4c0,-.4,0,-.7,0,-1.1l-.2,-.2c-1.1,-.4,-1.9,-1,-2.6,-1.7c-.3,-.3,-.3,-.6,0,-1c.4,-.4,.9,-.9,1.2,-1.4c.8,-1.2,1.2,-2.6,1.4,-4c.2,-1.2,0,-2.2,-.7,-3.2c-1.2,-1.5,-2.8,-2.2,-4.7,-2.4c-1.1,-.1,-2.3,0,-3.5,0m-9.4,16.5c-.3,1.6,0,3,1.3,4.2c1.3,1.2,2.8,1.7,4.6,1.7c2.3,0,4.6,0,6.9,0c.8,0,1.6,-.1,2.4,-.4c1.4,-.5,2.5,-1.2,3.2,-2.6c.5,-1,.5,-2,.3,-3l-.1,.1c-1.1,1.4,-2.6,2.2,-4.3,2.6c-2.9,.8,-5.7,.8,-8.6,.3c-1.4,-.2,-2.8,-.7,-3.9,-1.5c-.7,-.4,-1.2,-.9,-1.8,-1.4Z" class="g7_10"/>
<path d="M55.8,324.8c-.5,.4,-1,.8,-1.5,1.1c-.5,.4,-1.7,1.4,-2.2,1.8c-.3,.2,-.6,.2,-.8,.2l-.3,-.4c-.1,-.2,0,-.5,.2,-.6c.3,-.3,1.4,-1.2,1.7,-1.4c.4,-.3,.9,-.7,1.3,-1l.4,-.1c.4,.1,.8,.3,1.2,.4Z" class="g7_10"/>
<path d="M66.5,324.8c.5,-.2,.9,-.3,1.3,-.4l.3,.1c.7,.6,2.3,1.8,3,2.3c.1,.1,.3,.3,.3,.4c.1,.2,.1,.5,-.2,.6c-.2,.1,-.5,.1,-.7,0c-1.1,-.7,-2.9,-2.2,-4,-3Z" class="g7_10"/>
<path d="M61.1,311.4c-1.1,0,-2.1,.1,-3.2,0c-2,-.1,-3.5,-1.6,-3.9,-3.5c-.1,-.5,-.2,-1,-.3,-1.5c-.3,-1.9,1,-3.5,3,-3.5c3,-.1,6,-.1,8.9,0c1.9,0,3.2,1.4,3,3.3c-.1,1,-.2,2.1,-.8,3.1c-.9,1.4,-2.2,2.2,-3.9,2.2c-.9,-.1,-1.9,0,-2.8,0Z" class="g7_10"/>
<path d="M65.7,314.1c.3,0,.5,0,.8,0c.4,0,.7,.3,.6,.7c-.5,.8,-1,1.7,-1.5,2.5c-.1,.2,-.3,.3,-.6,.3c-.5,0,-1.1,0,-1.6,0c-.5,0,-.7,-.3,-.6,-.7c.5,-.8,1,-1.6,1.5,-2.5c.1,-.2,.3,-.3,.7,-.3c.2,0,.4,0,.7,0Z" class="g7_10"/>
<path d="M58.1,317.6c-.2,0,-.5,0,-.7,0c-.3,0,-.6,-.1,-.7,-.3c-.5,-.9,-1,-1.7,-1.4,-2.5c-.2,-.4,0,-.7,.6,-.7c.5,0,1,0,1.5,0c.3,0,.5,.1,.6,.4c.5,.8,1,1.6,1.5,2.4c.2,.4,-.1,.7,-.6,.7c-.2,0,-.5,0,-.8,0Z" class="g7_10"/>
<path d="M62.2,321.9c0,.6,-.5,1.1,-1,1.1c-.6,0,-1.1,-.5,-1.1,-1.1c0,-.5,.5,-1,1,-1c.6,0,1.1,.5,1.1,1Z" class="g7_10"/>
<path d="M303.1,635.7V615.3h-.7v20.4Z" class="g1_10"/>
<path d="M303.1,660.5V635.7h-.7v24.8Z" class="g1_10"/>
<path d="M173.6,681.1V660.5h-.8v20.6Z" class="g1_10"/>
<path d="M238.4,681.1V660.5h-.8v20.6Z" class="g1_10"/>
<path d="M303.1,681.1V660.5h-.7v20.6Z" class="g1_10"/>
<path d="M173.6,701.7V681.1h-.8v20.6Z" class="g1_10"/>
<path d="M238.4,701.7V681.1h-.8v20.6Z" class="g1_10"/>
<path d="M303.1,701.7V681.1h-.7v20.6Z" class="g1_10"/>
<path d="M173.6,722.4V701.7h-.8v20.7Z" class="g1_10"/>
<path d="M238.4,722.4V701.7h-.8v20.7Z" class="g1_10"/>
<path d="M303.1,722.4V701.7h-.7v20.7Z" class="g1_10"/>
<path d="M173.6,743V722.4h-.8V743Z" class="g1_10"/>
<path d="M238.4,743V722.4h-.8V743Z" class="g1_10"/>
<path d="M303.1,743V722.4h-.7V743Z" class="g1_10"/>
<path d="M173.6,763.6V743h-.8v20.6Z" class="g1_10"/>
<path d="M238.4,763.6V743h-.8v20.6Z" class="g1_10"/>
<path d="M303.1,763.6V743h-.7v20.6Z" class="g1_10"/>
<path d="M173.6,784.2V763.6h-.8v20.6Z" class="g1_10"/>
<path d="M238.4,784.2V763.6h-.8v20.6Z" class="g1_10"/>
<path d="M303.1,784.2V763.6h-.7v20.6Z" class="g1_10"/>
<path d="M173.6,804.8V784.2h-.8v20.6Z" class="g1_10"/>
<path d="M238.4,804.8V784.2h-.8v20.6Z" class="g1_10"/>
<path d="M303.1,804.8V784.2h-.7v20.6Z" class="g1_10"/>
<path d="M173.6,825.4V804.8h-.8v20.6Z" class="g1_10"/>
<path d="M238.4,825.4V804.8h-.8v20.6Z" class="g1_10"/>
<path d="M303.1,825.4V804.8h-.7v20.6Z" class="g1_10"/>
<path d="M173.6,846V825.4h-.8V846Z" class="g1_10"/>
<path d="M238.4,846V825.4h-.8V846Z" class="g1_10"/>
<path d="M303.1,846V825.4h-.7V846Z" class="g1_10"/>
<path d="M173.6,866.7V846h-.8v20.7Z" class="g1_10"/>
<path d="M238.4,866.7V846h-.8v20.7Z" class="g1_10"/>
<path d="M303.1,866.7V846h-.7v20.7Z" class="g1_10"/>
<path d="M173.6,887.3V866.7h-.8v20.6Z" class="g1_10"/>
<path d="M238.4,887.3V866.7h-.8v20.6Z" class="g1_10"/>
<path d="M303.1,887.3V866.7h-.7v20.6Z" class="g1_10"/>
<path d="M173.6,907.9V887.3h-.8v20.6Z" class="g1_10"/>
<path d="M238.4,907.9V887.3h-.8v20.6Z" class="g1_10"/>
<path d="M303.1,907.9V887.3h-.7v20.6Z" class="g1_10"/>
<path d="M173.6,928.5V907.9h-.8v20.6Z" class="g1_10"/>
<path d="M238.4,928.5V907.9h-.8v20.6Z" class="g1_10"/>
<path d="M303.1,928.5V907.9h-.7v20.6Z" class="g1_10"/>
<path d="M78,636.4h95.2v-1.5H78Z" class="g6_10"/>
<path d="M173.2,636.4H238v-1.5H173.2Z" class="g6_10"/>
<path d="M238,636.4h64.4v-1.5H238Z" class="g6_10"/>
<path d="M61.2,654.2c9.8,0,17.8,-8,17.8,-17.8c0,-9.9,-8,-17.9,-17.8,-17.9c-9.9,0,-17.9,8,-17.9,17.9c0,9.8,8,17.8,17.9,17.8Z" class="g6_10"/>
<path d="M71.6,638.1c0,.8,.2,1.5,.2,2.2c0,2.1,-1,3.6,-2.7,4.7c-1.3,.9,-2.8,1.3,-4.3,1.3c-2.4,0,-4.8,0,-7.2,0c-1.7,0,-3.2,-.5,-4.5,-1.4c-2,-1.4,-2.8,-3.2,-2.5,-5.6c.2,-2,.3,-3.9,.4,-5.9c0,-1.8,0,-3.6,-.1,-5.4c0,-2.1,.9,-3.8,2.5,-5c1.5,-1.1,3.2,-1.6,4.9,-1.6c2,0,3.9,0,5.8,0c1.6,0,3.2,.5,4.6,1.4c1.9,1.4,2.9,3.2,2.7,5.7c-.1,1.2,0,2.4,0,3.6c-.1,0,.1,4,.2,6M61.2,622.7v-.1c-1,0,-1.9,0,-2.9,0c-1.3,0,-2.5,.3,-3.6,1c-1.6,1,-2.7,2.3,-2.6,4.2c.1,.8,.3,1.7,.6,2.5c.4,1.3,1.1,2.6,2.2,3.5c.2,.3,.2,.6,-.1,.9c-.6,.6,-1.3,1.2,-2.1,1.5c-.6,.2,-.7,.5,-.7,1c-.1,.5,.1,.8,.4,1.2c.8,.8,1.7,1.4,2.7,1.8c1.8,.7,3.7,1,5.6,1c2,.1,4.1,-.1,6,-.8c1.4,-.5,2.6,-1.2,3.4,-2.3c.1,-.1,.2,-.3,.2,-.4c0,-.4,0,-.7,0,-1.1l-.2,-.2c-1.1,-.4,-1.9,-1,-2.6,-1.7c-.3,-.3,-.3,-.6,0,-1c.4,-.4,.9,-.9,1.2,-1.4c.8,-1.3,1.2,-2.6,1.4,-4c.2,-1.2,0,-2.2,-.7,-3.2c-1.2,-1.5,-2.8,-2.2,-4.7,-2.4c-1.1,-.1,-2.3,0,-3.5,0m-9.4,16.5c-.3,1.6,0,3,1.3,4.2c1.3,1.2,2.8,1.7,4.6,1.7c2.3,0,4.6,0,6.9,0c.8,0,1.6,-.1,2.4,-.4c1.4,-.5,2.5,-1.3,3.2,-2.6c.5,-1,.5,-2,.3,-3l-.1,.1c-1.1,1.4,-2.6,2.2,-4.3,2.6c-2.9,.8,-5.7,.8,-8.6,.3c-1.4,-.2,-2.8,-.7,-3.9,-1.5c-.7,-.4,-1.2,-.9,-1.8,-1.4Z" class="g7_10"/>
<path d="M55.8,646.7c-.5,.4,-1,.8,-1.5,1.1c-.5,.4,-1.7,1.4,-2.2,1.8c-.3,.2,-.6,.2,-.8,.1l-.3,-.3c-.1,-.2,0,-.5,.2,-.6c.3,-.3,1.4,-1.2,1.7,-1.4c.4,-.3,.9,-.7,1.3,-1l.4,-.1c.4,.1,.8,.3,1.2,.4Z" class="g7_10"/>
<path d="M66.5,646.7c.5,-.2,.9,-.3,1.3,-.4l.3,.1c.7,.6,2.3,1.8,3,2.3c.1,.1,.3,.3,.3,.4c.1,.2,.1,.5,-.2,.6c-.2,.1,-.5,.1,-.7,0c-1.1,-.7,-2.9,-2.2,-4,-3Z" class="g7_10"/>
<path d="M61.1,633.3c-1.1,0,-2.1,.1,-3.2,0c-2,-.1,-3.5,-1.6,-3.9,-3.5c-.1,-.5,-.2,-1,-.3,-1.5c-.3,-1.9,1,-3.6,3,-3.6c3,0,6,0,8.9,0c1.9,.1,3.2,1.5,3,3.4c-.1,1,-.2,2.1,-.8,3.1c-.9,1.4,-2.2,2.2,-3.9,2.1c-.9,0,-1.9,0,-2.8,0Z" class="g7_10"/>
<path d="M65.7,636c.3,0,.5,0,.8,0c.4,0,.7,.3,.6,.6c-.5,.9,-1,1.8,-1.5,2.6c-.1,.2,-.3,.3,-.6,.3c-.5,0,-1.1,0,-1.6,0c-.5,0,-.7,-.3,-.6,-.7c.5,-.8,1,-1.6,1.5,-2.5c.1,-.2,.3,-.3,.7,-.3c.2,0,.4,0,.7,0Z" class="g7_10"/>
<path d="M58.1,639.5c-.2,0,-.5,0,-.7,0c-.3,0,-.6,-.1,-.7,-.3c-.5,-.9,-1,-1.7,-1.4,-2.5c-.2,-.4,0,-.7,.6,-.7c.5,0,1,0,1.5,0c.3,0,.5,.1,.6,.3c.5,.9,1,1.7,1.5,2.5c.2,.4,-.1,.7,-.6,.7c-.2,0,-.5,0,-.8,0Z" class="g7_10"/>
<path d="M62.2,643.8c0,.6,-.5,1.1,-1,1.1c-.6,0,-1.1,-.5,-1.1,-1.1c0,-.5,.5,-1,1,-1c.6,0,1.1,.4,1.1,1Z" class="g7_10"/>
<path d="M236.5,290V244.7h-3.1V290Z" class="g1_10"/>
<path d="M43.7,189.1H78.3v40.5H43.7V189.1Z" class="g1_10"/>
<image x="78" y="189" width="226" height="41" xlink:href="shade/1.png"/>
<path d="M78.3,210.3H303.1v-1.5H78.3Z" class="g6_10"/>
<path d="M61.5,228.1c9.9,0,17.9,-8,17.9,-17.9c0,-9.8,-8,-17.8,-17.9,-17.8c-9.8,0,-17.8,8,-17.8,17.8c0,9.9,8,17.9,17.8,17.9Z" class="g6_10"/>
<path d="M72,212c0,.7,.2,1.4,.2,2.2c0,2,-1,3.5,-2.7,4.6c-1.3,.9,-2.8,1.3,-4.3,1.3c-2.4,0,-4.9,0,-7.3,0c-1.6,0,-3.1,-.4,-4.5,-1.4c-1.9,-1.3,-2.7,-3.2,-2.4,-5.6c.2,-1.9,.3,-3.9,.3,-5.8c.1,-1.9,0,-3.7,0,-5.5c0,-2.1,.8,-3.7,2.5,-5c1.5,-1,3.1,-1.5,4.9,-1.5c1.9,-.1,3.8,-.1,5.7,0c1.7,0,3.3,.4,4.7,1.4c1.9,1.3,2.8,3.2,2.7,5.6c-.1,1.2,-.1,2.4,-.1,3.6c0,0,.2,4.1,.3,6.1M61.6,196.5v-.1c-1,0,-1.9,0,-2.9,0c-1.3,.1,-2.5,.4,-3.7,1.1c-1.5,.9,-2.6,2.2,-2.5,4.1c.1,.9,.3,1.7,.6,2.5c.4,1.4,1,2.6,2.1,3.6c.3,.2,.3,.5,0,.8c-.6,.7,-1.3,1.3,-2.1,1.5c-.6,.2,-.7,.5,-.7,1c-.1,.5,.1,.9,.4,1.2c.7,.8,1.6,1.4,2.7,1.8c1.7,.8,3.6,1,5.6,1.1c2,0,4.1,-.2,6,-.9c1.3,-.5,2.5,-1.1,3.4,-2.3c.1,-.1,.2,-.3,.2,-.4c0,-.3,0,-.7,-.1,-1l-.2,-.3c-1,-.3,-1.8,-.9,-2.5,-1.7c-.3,-.3,-.3,-.6,0,-.9c.4,-.5,.9,-1,1.2,-1.5c.8,-1.2,1.2,-2.6,1.4,-4c.2,-1.1,-.1,-2.2,-.8,-3.1c-1.1,-1.6,-2.7,-2.3,-4.6,-2.5c-1.2,-.1,-2.4,0,-3.5,0M52.2,213c-.3,1.6,0,3.1,1.3,4.2c1.2,1.2,2.8,1.7,4.5,1.7c2.4,0,4.7,0,7,0c.8,0,1.6,-.1,2.3,-.3c1.4,-.5,2.6,-1.3,3.3,-2.7c.4,-.9,.5,-1.9,.2,-2.9c-1.1,1.4,-2.6,2.2,-4.3,2.6c-2.9,.8,-5.8,.8,-8.6,.3c-1.4,-.2,-2.8,-.6,-4,-1.4c-.6,-.5,-1.1,-1,-1.7,-1.5Z" class="g7_10"/>
<path d="M56.2,220.5c-.5,.4,-1,.8,-1.5,1.2c-.5,.4,-1.8,1.3,-2.3,1.8c-.2,.2,-.5,.1,-.8,.1l-.3,-.4c0,-.2,.1,-.4,.3,-.6c.3,-.2,1.4,-1.1,1.7,-1.4c.4,-.3,.8,-.6,1.3,-.9l.4,-.1c.4,.1,.8,.2,1.2,.3Z" class="g7_10"/>
<path d="M66.9,220.5c.5,-.1,.9,-.3,1.3,-.4l.3,.1c.7,.6,2.3,1.8,3,2.4c.1,.1,.2,.2,.3,.3c.1,.3,0,.6,-.2,.6c-.2,.1,-.5,.2,-.7,.1c-1.1,-.8,-2.9,-2.2,-4,-3.1Z" class="g7_10"/>
<path d="M61.5,207.2c-1.1,0,-2.1,0,-3.2,0c-2,-.2,-3.5,-1.6,-3.9,-3.6c-.1,-.5,-.2,-.9,-.3,-1.4c-.4,-1.9,1,-3.6,2.9,-3.6c3,0,6,0,9,0c1.9,0,3.2,1.5,3,3.3c-.2,1.1,-.3,2.2,-.9,3.1c-.8,1.4,-2.1,2.2,-3.8,2.2c-.9,0,-1.9,0,-2.8,0Z" class="g7_10"/>
<path d="M66.1,209.9c.2,0,.5,0,.8,0c.4,0,.7,.3,.5,.6c-.4,.8,-.9,1.7,-1.4,2.5c-.2,.2,-.4,.3,-.6,.3c-.5,0,-1.1,0,-1.6,0c-.5,0,-.8,-.3,-.6,-.6c.5,-.9,1,-1.7,1.5,-2.5c.1,-.2,.3,-.3,.6,-.3c.3,0,.5,0,.8,0Z" class="g7_10"/>
<path d="M58.5,213.3c-.3,0,-.5,0,-.7,0c-.4,0,-.6,-.1,-.7,-.3c-.5,-.8,-1,-1.6,-1.4,-2.5c-.2,-.3,0,-.6,.6,-.6c.5,0,1,0,1.5,0c.3,0,.5,.1,.6,.3c.5,.8,1,1.6,1.5,2.5c.1,.3,-.1,.6,-.6,.6c-.3,0,-.5,0,-.8,0Z" class="g7_10"/>
<path d="M62.6,217.7c0,.5,-.5,1,-1,1c-.6,0,-1.1,-.5,-1.1,-1c0,-.6,.5,-1.1,1,-1.1c.6,0,1.1,.5,1.1,1.1Z" class="g7_10"/>
<path d="M324.8,364H866.1v-2.3H324.8V364Z" class="g8_10"/>
<image clip-path="url(#c2_10)" preserveAspectRatio="none" x="769" y="339" width="98" height="31" xlink:href="img/3.jpg"/>
<image clip-path="url(#c3_10)" preserveAspectRatio="none" x="778" y="268" width="89" height="72" xlink:href="img/4.jpg"/>
<image clip-path="url(#c4_10)" preserveAspectRatio="none" x="778" y="361" width="89" height="4" xlink:href="img/5.jpg"/>
<image clip-path="url(#c5_10)" preserveAspectRatio="none" x="779" y="286" width="73" height="3" xlink:href="img/6.jpg"/>
<path d="M794.4,280.7c-10.1,0,-18.3,8.2,-18.3,18.3v64.1h79V299c0,-10.1,-8.2,-18.3,-18.3,-18.3Z" class="g1_10"/>
<path d="M776,364h79.1v-7.1H776V364Z" class="g8_10"/>
<path d="M781.4,339.1h2.4c.2,0,.3,-.2,.3,-.4c0,-.2,-.1,-.4,-.3,-.4h-2.4c-.2,0,-.3,.2,-.3,.4c0,.2,.1,.4,.3,.4m3.9,0h2.3c.3,0,.4,-.2,.4,-.4c0,-.2,-.1,-.4,-.4,-.4h-2.3c-.2,0,-.4,.2,-.4,.4c0,.2,.2,.4,.4,.4m3.9,0h2.3c.2,0,.4,-.2,.4,-.4c0,-.2,-.2,-.4,-.4,-.4h-2.3c-.2,0,-.4,.2,-.4,.4c0,.2,.2,.4,.4,.4m3.9,0h2.3c.2,0,.4,-.2,.4,-.4c0,-.2,-.2,-.4,-.4,-.4h-2.3c-.2,0,-.4,.2,-.4,.4c0,.2,.2,.4,.4,.4m3.9,0h2.3c.2,0,.4,-.2,.4,-.4c0,-.2,-.2,-.4,-.4,-.4H797c-.2,0,-.4,.2,-.4,.4c0,.2,.2,.4,.4,.4m3.8,0h2.4c.2,0,.4,-.2,.4,-.4c0,-.2,-.2,-.4,-.4,-.4h-2.4c-.2,0,-.3,.2,-.3,.4c0,.2,.1,.4,.3,.4m3.9,0h2.4c.2,0,.3,-.2,.3,-.4c0,-.2,-.1,-.4,-.3,-.4h-2.4c-.2,0,-.4,.2,-.4,.4c0,.2,.2,.4,.4,.4m3.9,0h2.3c.2,0,.4,-.2,.4,-.4c0,-.2,-.2,-.4,-.4,-.4h-2.3c-.2,0,-.4,.2,-.4,.4c0,.2,.2,.4,.4,.4m3.9,0h2.3c.2,0,.4,-.2,.4,-.4c0,-.2,-.2,-.4,-.4,-.4h-2.3c-.2,0,-.4,.2,-.4,.4c0,.2,.2,.4,.4,.4m3.9,0h2.3c.2,0,.4,-.2,.4,-.4c0,-.2,-.2,-.4,-.4,-.4h-2.3c-.2,0,-.4,.2,-.4,.4c0,.2,.2,.4,.4,.4m3.9,0h2.3c.2,0,.4,-.2,.4,-.4c0,-.2,-.2,-.4,-.4,-.4h-2.3c-.3,0,-.4,.2,-.4,.4c0,.2,.1,.4,.4,.4m3.8,0h2.4c.2,0,.3,-.2,.3,-.4c0,-.2,-.1,-.4,-.3,-.4h-2.4c-.2,0,-.3,.2,-.3,.4c0,.2,.1,.4,.3,.4m3.9,0h2.3c.3,0,.4,-.2,.4,-.4c0,-.2,-.1,-.4,-.4,-.4H828c-.2,0,-.4,.2,-.4,.4c0,.2,.2,.4,.4,.4m3.9,0h2.3c.2,0,.4,-.2,.4,-.4c0,-.2,-.2,-.4,-.4,-.4h-2.3c-.2,0,-.4,.2,-.4,.4c0,.2,.2,.4,.4,.4m3.9,0h2.3c.2,0,.4,-.2,.4,-.4c0,-.2,-.2,-.4,-.4,-.4h-2.3c-.2,0,-.4,.2,-.4,.4c0,.2,.2,.4,.4,.4m3.9,0H842c.2,0,.4,-.2,.4,-.4c0,-.2,-.2,-.4,-.4,-.4h-2.3c-.2,0,-.4,.2,-.4,.4c0,.2,.2,.4,.4,.4m3.9,0h2.3c.2,0,.4,-.2,.4,-.4c0,-.2,-.2,-.4,-.4,-.4h-2.3c-.3,0,-.4,.2,-.4,.4c0,.2,.1,.4,.4,.4m3.8,0h2.4c.2,0,.3,-.2,.3,-.4c0,-.2,-.1,-.4,-.3,-.4h-2.4c-.2,0,-.3,.2,-.3,.4c0,.2,.1,.4,.3,.4Z" class="g9_10"/>
<path d="M780.8,302.7h2.3c.2,0,.4,-.2,.4,-.4c0,-.2,-.2,-.4,-.4,-.4h-2.3c-.2,0,-.4,.2,-.4,.4c0,.2,.2,.4,.4,.4m3.9,0H787c.2,0,.4,-.2,.4,-.4c0,-.2,-.2,-.4,-.4,-.4h-2.3c-.2,0,-.4,.2,-.4,.4c0,.2,.2,.4,.4,.4m3.9,0h2.3c.2,0,.4,-.2,.4,-.4c0,-.2,-.2,-.4,-.4,-.4h-2.3c-.3,0,-.4,.2,-.4,.4c0,.2,.1,.4,.4,.4m3.8,0h2.4c.2,0,.3,-.2,.3,-.4c0,-.2,-.1,-.4,-.3,-.4h-2.4c-.2,0,-.3,.2,-.3,.4c0,.2,.1,.4,.3,.4m3.9,0h2.3c.2,0,.4,-.2,.4,-.4c0,-.2,-.2,-.4,-.4,-.4h-2.3c-.2,0,-.4,.2,-.4,.4c0,.2,.2,.4,.4,.4m3.9,0h2.3c.2,0,.4,-.2,.4,-.4c0,-.2,-.2,-.4,-.4,-.4h-2.3c-.2,0,-.4,.2,-.4,.4c0,.2,.2,.4,.4,.4m3.9,0h2.3c.2,0,.4,-.2,.4,-.4c0,-.2,-.2,-.4,-.4,-.4h-2.3c-.2,0,-.4,.2,-.4,.4c0,.2,.2,.4,.4,.4m3.9,0h2.3c.2,0,.4,-.2,.4,-.4c0,-.2,-.2,-.4,-.4,-.4H808c-.2,0,-.4,.2,-.4,.4c0,.2,.2,.4,.4,.4m3.8,0h2.4c.2,0,.3,-.2,.3,-.4c0,-.2,-.1,-.4,-.3,-.4h-2.4c-.2,0,-.3,.2,-.3,.4c0,.2,.1,.4,.3,.4m3.9,0H818c.3,0,.4,-.2,.4,-.4c0,-.2,-.1,-.4,-.4,-.4h-2.3c-.2,0,-.4,.2,-.4,.4c0,.2,.2,.4,.4,.4m3.9,0h2.3c.2,0,.4,-.2,.4,-.4c0,-.2,-.2,-.4,-.4,-.4h-2.3c-.2,0,-.4,.2,-.4,.4c0,.2,.2,.4,.4,.4m3.9,0h2.3c.2,0,.4,-.2,.4,-.4c0,-.2,-.2,-.4,-.4,-.4h-2.3c-.2,0,-.4,.2,-.4,.4c0,.2,.2,.4,.4,.4m3.9,0h2.3c.2,0,.4,-.2,.4,-.4c0,-.2,-.2,-.4,-.4,-.4h-2.3c-.2,0,-.4,.2,-.4,.4c0,.2,.2,.4,.4,.4m3.9,0h2.3c.2,0,.4,-.2,.4,-.4c0,-.2,-.2,-.4,-.4,-.4h-2.3c-.3,0,-.4,.2,-.4,.4c0,.2,.1,.4,.4,.4m3.8,0h2.4c.2,0,.3,-.2,.3,-.4c0,-.2,-.1,-.4,-.3,-.4h-2.4c-.2,0,-.3,.2,-.3,.4c0,.2,.1,.4,.3,.4m3.9,0h2.3c.3,0,.4,-.2,.4,-.4c0,-.2,-.1,-.4,-.4,-.4H839c-.2,0,-.4,.2,-.4,.4c0,.2,.2,.4,.4,.4m3.9,0h2.3c.2,0,.4,-.2,.4,-.4c0,-.2,-.2,-.4,-.4,-.4h-2.3c-.2,0,-.4,.2,-.4,.4c0,.2,.2,.4,.4,.4m3.9,0h2.3c.2,0,.4,-.2,.4,-.4c0,-.2,-.2,-.4,-.4,-.4h-2.3c-.2,0,-.4,.2,-.4,.4c0,.2,.2,.4,.4,.4Z" class="g9_10"/>
<path d="M829.5,319.5v.7h4.6c1.1,0,2,-.9,2,-2.1v-.4c0,-1.1,-.9,-2,-2,-2h-4.6c-.5,0,-1,.2,-1.4,.5c-.1,.2,-.2,.4,-.2,.5v.3c0,.2,-.1,.4,-.2,.5c-.2,.1,-.3,.3,-.3,.5v.1c0,1.2,1,2.1,2.1,2.1v-1.4c-.4,0,-.7,-.3,-.7,-.7V318h-.7l.5,.5c.4,-.4,.7,-.9,.7,-1.5v-.3h-.7l.4,.6c.2,-.2,.3,-.2,.5,-.2h4.6c.3,0,.6,.3,.6,.6v.4c0,.4,-.3,.7,-.6,.7h-4.6Z" class="g9_10"/>
<path d="M828.6,310.2l-.5,.5c.4,.3,.9,.5,1.4,.5h4.6c1.1,0,2,-.9,2,-2v-.4c0,-1.2,-.9,-2.1,-2,-2.1h-4.6c-1.1,0,-2.1,.9,-2.1,2.1v.1c0,.2,.1,.4,.3,.5c.1,.2,.2,.3,.2,.5v.3c0,.2,.1,.3,.2,.5l.5,-.5h.7v-.3c0,-.6,-.3,-1.1,-.7,-1.5l-.5,.5h.7v-.1c0,-.4,.3,-.7,.7,-.7h4.6c.3,0,.6,.3,.6,.7v.4c0,.3,-.3,.6,-.6,.6h-4.6c-.2,0,-.3,0,-.5,-.1l-.4,.5h.7Z" class="g9_10"/>
<path d="M835.1,319v.7H837c1,0,1.8,-.8,1.8,-1.8v-8.8c0,-1,-.8,-1.8,-1.8,-1.8h-1.8c-.3,0,-.5,.1,-.7,.4c-.1,.2,-.1,.5,.1,.7c.1,.1,.1,.2,.1,.4v.4c0,.3,-.3,.6,-.6,.6h-4.6c-.2,0,-.3,0,-.5,-.1c-.2,-.2,-.4,-.3,-.7,-.2c-.2,.1,-.4,.4,-.4,.7v6.5c0,.3,.2,.6,.4,.7c.3,.1,.5,0,.7,-.1c.2,-.2,.3,-.2,.5,-.2h4.6c.3,0,.6,.3,.6,.6v.4c0,.2,0,.3,-.1,.5c-.2,.2,-.2,.4,-.1,.7c.1,.2,.3,.4,.6,.4V319l.5,.4c.3,-.3,.5,-.8,.5,-1.3v-.4c0,-1.1,-.9,-2,-2,-2h-4.6c-.5,0,-1,.2,-1.4,.5l.5,.5h.7v-6.5h-.7l-.5,.5c.4,.3,.9,.5,1.4,.5h4.6c1.1,0,2,-.9,2,-2v-.4c0,-.5,-.2,-.9,-.4,-1.2l-.5,.4v.7H837c.2,0,.4,.2,.4,.4v8.8c0,.2,-.2,.4,-.4,.4h-1.9v.7l.5,.4Z" class="g9_10"/>
<path d="M828.6,309.9h.7c0,-1.1,-.9,-2,-2.1,-2h-.6c-1.2,0,-2.1,.9,-2.1,2V317c0,1.1,.9,2,2.1,2h.6c1.2,0,2.1,-.9,2.1,-2v-7.1h-1.4V317c0,.4,-.3,.7,-.7,.7h-.6c-.4,0,-.7,-.3,-.7,-.7v-7.1c0,-.3,.3,-.6,.7,-.6h.6c.4,0,.7,.3,.7,.6Z" class="g9_10"/>
<path d="M829.5,332.3v.7h4.6c1.1,0,2,-1,2,-2.1v-.4c0,-1.1,-.9,-2,-2,-2h-4.6c-.5,0,-1,.2,-1.4,.5c-.1,.1,-.2,.3,-.2,.5v.3c0,.2,-.1,.3,-.2,.5c-.2,.1,-.3,.3,-.3,.5v.1c0,1.1,1,2.1,2.1,2.1v-1.4c-.4,0,-.7,-.3,-.7,-.7v-.1h-.7l.5,.5c.4,-.4,.7,-.9,.7,-1.5v-.3h-.7l.4,.5c.2,-.1,.3,-.1,.5,-.1h4.6c.3,0,.6,.3,.6,.6v.4c0,.4,-.3,.7,-.6,.7h-4.6Z" class="g9_10"/>
<path d="M828.6,322.9l-.5,.6c.4,.3,.9,.5,1.4,.5h4.6c1.1,0,2,-.9,2,-2.1v-.3c0,-1.2,-.9,-2.1,-2,-2.1h-4.6c-1.1,0,-2.1,.9,-2.1,2.1v.1c0,.2,.1,.4,.3,.5c.1,.2,.2,.3,.2,.5v.2c0,.2,.1,.4,.2,.6l.5,-.6h.7v-.2c0,-.6,-.3,-1.1,-.7,-1.5l-.5,.5h.7v-.1c0,-.4,.3,-.7,.7,-.7h4.6c.3,0,.6,.3,.6,.7v.3c0,.4,-.3,.7,-.6,.7h-4.6c-.2,0,-.3,-.1,-.5,-.2l-.4,.5h.7Z" class="g9_10"/>
<path d="M835.1,331.8v.7H837c1,0,1.8,-.9,1.8,-1.9v-8.7c0,-1,-.8,-1.8,-1.8,-1.8h-1.8c-.3,0,-.5,.1,-.7,.3c-.1,.3,-.1,.6,.1,.8c.1,.1,.1,.2,.1,.4v.3c0,.4,-.3,.7,-.6,.7h-4.6c-.2,0,-.3,-.1,-.5,-.2c-.2,-.1,-.4,-.2,-.7,-.1c-.2,.1,-.4,.4,-.4,.6v6.6c0,.3,.2,.5,.4,.7c.3,.1,.5,0,.7,-.2c.2,-.1,.3,-.1,.5,-.1h4.6c.3,0,.6,.3,.6,.6v.4c0,.2,0,.3,-.1,.4c-.2,.2,-.2,.5,-.1,.8c.1,.2,.3,.4,.6,.4v-.7l.5,.4c.3,-.3,.5,-.8,.5,-1.3v-.4c0,-1.1,-.9,-2,-2,-2h-4.6c-.5,0,-1,.2,-1.4,.5l.5,.5h.7v-6.6h-.7l-.5,.6c.4,.3,.9,.5,1.4,.5h4.6c1.1,0,2,-.9,2,-2.1v-.3c0,-.5,-.2,-.9,-.4,-1.2l-.5,.4v.7H837c.2,0,.4,.1,.4,.4v8.7c0,.3,-.2,.5,-.4,.5h-1.9v.7l.5,.4Z" class="g9_10"/>
<path d="M828.6,322.7h.7c0,-1.1,-.9,-2,-2.1,-2h-.6c-1.2,0,-2.1,.9,-2.1,2v7.1c0,1.1,.9,2,2.1,2h.6c1.2,0,2.1,-.9,2.1,-2v-7.1h-1.4v7.1c0,.4,-.3,.6,-.7,.6h-.6c-.4,0,-.7,-.2,-.7,-.6v-7.1c0,-.4,.3,-.7,.7,-.7h.6c.4,0,.7,.3,.7,.7Z" class="g9_10"/>
<path d="M814.2,318.7h3.2c.5,0,.9,-.3,.9,-.6v-.2c0,-.3,-.4,-.5,-.9,-.5h-3.2c-.2,0,-.5,0,-.6,.1v.1c0,.2,-.1,.3,-.3,.4v.1c0,.3,.4,.6,.9,.6Z" class="g9_10"/>
<path d="M813.7,308.8c.2,.1,.4,.2,.7,.2h3.3c.5,0,.9,-.3,.9,-.6v-.2c0,-.3,-.4,-.6,-.9,-.6h-3.3c-.6,0,-1,.3,-1,.6v.1c.2,.1,.3,.2,.3,.4Z" class="g9_10"/>
<path d="M819.5,318.7h1.8c.6,0,1.1,-.5,1.1,-1.1v-8.8c0,-.6,-.5,-1.1,-1.1,-1.1h-1.7c.1,.2,.2,.5,.2,.8v.4c0,.7,-.6,1.3,-1.3,1.3h-4.3c-.4,0,-.7,-.1,-.9,-.3v6.5c.2,-.2,.5,-.3,.9,-.3h4.3c.7,0,1.3,.6,1.3,1.3v.4c0,.4,-.1,.6,-.3,.9Z" class="g9_10"/>
<path d="M812,310.4c0,-.6,-.5,-1.1,-1.1,-1.1c-.6,0,-1.1,.5,-1.1,1.1V316c0,.6,.5,1,1.1,1c.6,0,1.1,-.4,1.1,-1Z" class="g9_10"/>
<path d="M813.8,332.3v.7h4.5c1.1,0,2.1,-1,2.1,-2.1v-.4c0,-1.1,-1,-2,-2.1,-2h-4.5c-.6,0,-1.1,.2,-1.4,.5c-.2,.1,-.2,.3,-.2,.5v.3c0,.2,-.1,.3,-.3,.5c-.1,.1,-.2,.3,-.2,.5v.1c0,1.1,.9,2.1,2.1,2.1v-1.4c-.4,0,-.7,-.3,-.7,-.7v-.1h-.7l.5,.5c.4,-.4,.6,-.9,.6,-1.5v-.3h-.7l.5,.5c.1,-.1,.3,-.1,.5,-.1h4.5c.4,0,.7,.3,.7,.6v.4c0,.4,-.3,.7,-.7,.7h-4.5Z" class="g9_10"/>
<path d="M812.8,322.9l-.4,.6c.3,.3,.8,.5,1.4,.5h4.5c1.1,0,2.1,-.9,2.1,-2.1v-.3c0,-1.2,-1,-2.1,-2.1,-2.1h-4.5c-1.2,0,-2.1,.9,-2.1,2.1v.1c0,.2,.1,.4,.2,.5c.2,.2,.3,.3,.3,.5v.2c0,.2,0,.4,.2,.6l.4,-.6h.7v-.2c0,-.6,-.2,-1.1,-.6,-1.5l-.5,.5h.7v-.1c0,-.4,.3,-.7,.7,-.7h4.5c.4,0,.7,.3,.7,.7v.3c0,.4,-.3,.7,-.7,.7h-4.5c-.2,0,-.4,-.1,-.5,-.2l-.5,.5h.7Z" class="g9_10"/>
<path d="M819.4,331.8v.7h1.9c1,0,1.8,-.9,1.8,-1.9v-8.7c0,-1,-.8,-1.8,-1.8,-1.8h-1.9c-.2,0,-.5,.1,-.6,.3c-.1,.3,-.1,.6,.1,.8c0,.1,.1,.2,.1,.4v.3c0,.4,-.3,.7,-.7,.7h-4.5c-.2,0,-.4,-.1,-.5,-.2c-.2,-.1,-.5,-.2,-.7,-.1c-.3,.1,-.4,.4,-.4,.6v6.6c0,.3,.1,.5,.4,.7c.2,.1,.5,0,.7,-.2c.1,-.1,.3,-.1,.5,-.1h4.5c.4,0,.7,.3,.7,.6v.4c0,.2,-.1,.3,-.2,.4c-.1,.2,-.2,.5,-.1,.8c.2,.2,.4,.4,.7,.4v-.7l.5,.4c.3,-.3,.5,-.8,.5,-1.3v-.4c0,-1.1,-1,-2,-2.1,-2h-4.5c-.6,0,-1.1,.2,-1.4,.5l.4,.5h.7v-6.6h-.7l-.4,.6c.3,.3,.8,.5,1.4,.5h4.5c1.1,0,2.1,-.9,2.1,-2.1v-.3c0,-.5,-.2,-.9,-.4,-1.2l-.6,.4v.7h1.9c.2,0,.4,.1,.4,.4v8.7c0,.3,-.2,.5,-.4,.5h-1.9v.7l.5,.4Z" class="g9_10"/>
<path d="M812.8,322.7h.7c0,-1.1,-.9,-2,-2,-2h-.7c-1.1,0,-2,.9,-2,2v7.1c0,1.1,.9,2,2,2h.7c1.1,0,2,-.9,2,-2v-7.1h-1.3v7.1c0,.4,-.3,.6,-.7,.6h-.7c-.4,0,-.7,-.2,-.7,-.6v-7.1c0,-.4,.3,-.7,.7,-.7h.7c.4,0,.7,.3,.7,.7Z" class="g9_10"/>
<path d="M798,319.5v.7h4.6c1.1,0,2,-.9,2,-2.1v-.4c0,-1.1,-.9,-2,-2,-2H798c-.5,0,-1,.2,-1.4,.5c-.1,.2,-.2,.4,-.2,.5v.3c0,.2,-.1,.4,-.2,.5c-.1,.1,-.2,.3,-.2,.5v.1c0,1.2,.9,2.1,2,2.1v-1.4c-.4,0,-.7,-.3,-.7,-.7V318h-.6l.4,.5c.4,-.4,.7,-.9,.7,-1.5v-.3h-.7l.5,.6c.1,-.2,.2,-.2,.4,-.2h4.6c.3,0,.6,.3,.6,.6v.4c0,.4,-.3,.7,-.6,.7H798Z" class="g9_10"/>
<path d="M797.1,310.2l-.5,.5c.4,.3,.9,.5,1.4,.5h4.6c1.1,0,2,-.9,2,-2v-.4c0,-1.2,-.9,-2.1,-2,-2.1H798c-1.1,0,-2,.9,-2,2.1v.1c0,.2,.1,.4,.2,.5c.1,.2,.2,.3,.2,.5v.3c0,.2,.1,.3,.2,.5l.5,-.5h.7v-.3c0,-.6,-.3,-1.1,-.7,-1.5l-.4,.5h.6v-.1c0,-.4,.3,-.7,.7,-.7h4.6c.3,0,.6,.3,.6,.7v.4c0,.3,-.3,.6,-.6,.6H798c-.2,0,-.3,0,-.4,-.1l-.5,.5h.7Z" class="g9_10"/>
<path d="M803.6,319v.7h1.9c1,0,1.8,-.8,1.8,-1.8v-8.8c0,-1,-.8,-1.8,-1.8,-1.8h-1.8c-.3,0,-.5,.1,-.6,.4c-.2,.2,-.1,.5,0,.7c.1,.1,.1,.2,.1,.4v.4c0,.3,-.2,.6,-.6,.6H798c-.2,0,-.3,0,-.4,-.1c-.2,-.2,-.5,-.3,-.8,-.2c-.2,.1,-.4,.4,-.4,.7v6.5c0,.3,.2,.6,.4,.7c.3,.1,.6,0,.8,-.1c.1,-.2,.2,-.2,.4,-.2h4.6c.4,0,.6,.3,.6,.6v.4c0,.2,0,.3,-.1,.5c-.2,.2,-.2,.4,-.1,.7c.1,.2,.4,.4,.6,.4V319l.6,.4c.2,-.3,.4,-.8,.4,-1.3v-.4c0,-1.1,-.9,-2,-2,-2H798c-.5,0,-1,.2,-1.4,.5l.5,.5h.7v-6.5h-.7l-.5,.5c.4,.3,.9,.5,1.4,.5h4.6c1.1,0,2,-.9,2,-2v-.4c0,-.5,-.1,-.9,-.4,-1.2l-.5,.4v.7h1.8c.3,0,.5,.2,.5,.4v8.8c0,.2,-.2,.4,-.5,.4h-1.9v.7l.6,.4Z" class="g9_10"/>
<path d="M797.1,309.9h.7c0,-1.1,-.9,-2,-2,-2h-.7c-1.2,0,-2.1,.9,-2.1,2V317c0,1.1,.9,2,2.1,2h.7c1.1,0,2,-.9,2,-2v-7.1h-1.4V317c0,.4,-.3,.7,-.6,.7h-.7c-.4,0,-.7,-.3,-.7,-.7v-7.1c0,-.3,.3,-.6,.7,-.6h.7c.3,0,.6,.3,.6,.6Z" class="g9_10"/>
<path d="M798,332.3v.7h4.6c1.1,0,2,-1,2,-2.1v-.4c0,-1.1,-.9,-2,-2,-2H798c-.5,0,-1,.2,-1.4,.5c-.1,.1,-.2,.3,-.2,.5v.3c0,.2,-.1,.3,-.2,.5c-.1,.1,-.2,.3,-.2,.5v.1c0,1.1,.9,2.1,2,2.1v-1.4c-.4,0,-.7,-.3,-.7,-.7v-.1h-.6l.4,.5c.4,-.4,.7,-.9,.7,-1.5v-.3h-.7l.5,.5c.1,-.1,.2,-.1,.4,-.1h4.6c.3,0,.6,.3,.6,.6v.4c0,.4,-.3,.7,-.6,.7H798Z" class="g9_10"/>
<path d="M797.1,322.9l-.5,.6c.4,.3,.9,.5,1.4,.5h4.6c1.1,0,2,-.9,2,-2.1v-.3c0,-1.2,-.9,-2.1,-2,-2.1H798c-1.1,0,-2,.9,-2,2.1v.1c0,.2,.1,.4,.2,.5c.1,.2,.2,.3,.2,.5v.2c0,.2,.1,.4,.2,.6l.5,-.6h.7v-.2c0,-.6,-.3,-1.1,-.7,-1.5l-.4,.5h.6v-.1c0,-.4,.3,-.7,.7,-.7h4.6c.3,0,.6,.3,.6,.7v.3c0,.4,-.3,.7,-.6,.7H798c-.2,0,-.3,-.1,-.4,-.2l-.5,.5h.7Z" class="g9_10"/>
<path d="M803.6,331.8v.7h1.9c1,0,1.8,-.9,1.8,-1.9v-8.7c0,-1,-.8,-1.8,-1.8,-1.8h-1.8c-.3,0,-.5,.1,-.6,.3c-.2,.3,-.1,.6,0,.8c.1,.1,.1,.2,.1,.4v.3c0,.4,-.2,.7,-.6,.7H798c-.2,0,-.3,-.1,-.4,-.2c-.2,-.1,-.5,-.2,-.8,-.1c-.2,.1,-.4,.4,-.4,.6v6.6c0,.3,.2,.5,.4,.7c.3,.1,.6,0,.8,-.2c.1,-.1,.2,-.1,.4,-.1h4.6c.4,0,.6,.3,.6,.6v.4c0,.2,0,.3,-.1,.4c-.2,.2,-.2,.5,-.1,.8c.1,.2,.4,.4,.6,.4v-.7l.6,.4c.2,-.3,.4,-.8,.4,-1.3v-.4c0,-1.1,-.9,-2,-2,-2H798c-.5,0,-1,.2,-1.4,.5l.5,.5h.7v-6.6h-.7l-.5,.6c.4,.3,.9,.5,1.4,.5h4.6c1.1,0,2,-.9,2,-2.1v-.3c0,-.5,-.1,-.9,-.4,-1.2l-.5,.4v.7h1.8c.3,0,.5,.1,.5,.4v8.7c0,.3,-.2,.5,-.5,.5h-1.9v.7l.6,.4Z" class="g9_10"/>
<path d="M797.1,322.7h.7c0,-1.1,-.9,-2,-2,-2h-.7c-1.2,0,-2.1,.9,-2.1,2v7.1c0,1.1,.9,2,2.1,2h.7c1.1,0,2,-.9,2,-2v-7.1h-1.4v7.1c0,.4,-.3,.6,-.6,.6h-.7c-.4,0,-.7,-.2,-.7,-.6v-7.1c0,-.4,.3,-.7,.7,-.7h.7c.3,0,.6,.3,.6,.7Z" class="g9_10"/>
<image clip-path="url(#c6_10)" preserveAspectRatio="none" x="681" y="339" width="89" height="31" xlink:href="img/7.jpg"/>
<image clip-path="url(#c7_10)" preserveAspectRatio="none" x="690" y="268" width="89" height="72" xlink:href="img/8.jpg"/>
<image clip-path="url(#c8_10)" preserveAspectRatio="none" x="690" y="361" width="80" height="4" xlink:href="img/9.jpg"/>
<image clip-path="url(#c9_10)" preserveAspectRatio="none" x="768" y="339" width="11" height="31" xlink:href="img/10.jpg"/>
<image clip-path="url(#ca_10)" preserveAspectRatio="none" x="769" y="268" width="10" height="72" xlink:href="img/11.jpg"/>
<image clip-path="url(#cb_10)" preserveAspectRatio="none" x="768" y="361" width="11" height="4" xlink:href="img/12.jpg"/>
<image clip-path="url(#cc_10)" preserveAspectRatio="none" x="775" y="289" width="4" height="69" xlink:href="img/13.jpg"/>
<image clip-path="url(#cd_10)" preserveAspectRatio="none" x="775" y="357" width="4" height="8" xlink:href="img/14.jpg"/>
<path d="M706.3,280.7c-10.1,0,-18.3,8.2,-18.3,18.3v64.1h79V299c0,-10.1,-8.2,-18.3,-18.3,-18.3Z" class="g1_10"/>
<path d="M687.9,364H767v-7.1H687.9V364Z" class="g8_10"/>
<path d="M693.3,339.1h2.4c.2,0,.3,-.2,.3,-.4c0,-.2,-.1,-.4,-.3,-.4h-2.4c-.2,0,-.3,.2,-.3,.4c0,.2,.1,.4,.3,.4m3.9,0h2.3c.3,0,.4,-.2,.4,-.4c0,-.2,-.1,-.4,-.4,-.4h-2.3c-.2,0,-.4,.2,-.4,.4c0,.2,.2,.4,.4,.4m3.9,0h2.3c.2,0,.4,-.2,.4,-.4c0,-.2,-.2,-.4,-.4,-.4h-2.3c-.2,0,-.4,.2,-.4,.4c0,.2,.2,.4,.4,.4m3.9,0h2.3c.2,0,.4,-.2,.4,-.4c0,-.2,-.2,-.4,-.4,-.4H705c-.2,0,-.4,.2,-.4,.4c0,.2,.2,.4,.4,.4m3.9,0h2.3c.2,0,.4,-.2,.4,-.4c0,-.2,-.2,-.4,-.4,-.4h-2.3c-.2,0,-.4,.2,-.4,.4c0,.2,.2,.4,.4,.4m3.9,0h2.3c.2,0,.4,-.2,.4,-.4c0,-.2,-.2,-.4,-.4,-.4h-2.3c-.3,0,-.4,.2,-.4,.4c0,.2,.1,.4,.4,.4m3.8,0H719c.2,0,.3,-.2,.3,-.4c0,-.2,-.1,-.4,-.3,-.4h-2.4c-.2,0,-.3,.2,-.3,.4c0,.2,.1,.4,.3,.4m3.9,0h2.3c.3,0,.4,-.2,.4,-.4c0,-.2,-.1,-.4,-.4,-.4h-2.3c-.2,0,-.4,.2,-.4,.4c0,.2,.2,.4,.4,.4m3.9,0h2.3c.2,0,.4,-.2,.4,-.4c0,-.2,-.2,-.4,-.4,-.4h-2.3c-.2,0,-.4,.2,-.4,.4c0,.2,.2,.4,.4,.4m3.9,0h2.3c.2,0,.4,-.2,.4,-.4c0,-.2,-.2,-.4,-.4,-.4h-2.3c-.2,0,-.4,.2,-.4,.4c0,.2,.2,.4,.4,.4m3.9,0h2.3c.2,0,.4,-.2,.4,-.4c0,-.2,-.2,-.4,-.4,-.4h-2.3c-.2,0,-.4,.2,-.4,.4c0,.2,.2,.4,.4,.4m3.8,0h2.4c.2,0,.3,-.2,.3,-.4c0,-.2,-.1,-.4,-.3,-.4H736c-.2,0,-.3,.2,-.3,.4c0,.2,.1,.4,.3,.4m3.9,0h2.3c.3,0,.4,-.2,.4,-.4c0,-.2,-.1,-.4,-.4,-.4h-2.3c-.2,0,-.4,.2,-.4,.4c0,.2,.2,.4,.4,.4m3.9,0h2.3c.2,0,.4,-.2,.4,-.4c0,-.2,-.2,-.4,-.4,-.4h-2.3c-.2,0,-.4,.2,-.4,.4c0,.2,.2,.4,.4,.4m3.9,0H750c.2,0,.4,-.2,.4,-.4c0,-.2,-.2,-.4,-.4,-.4h-2.3c-.2,0,-.4,.2,-.4,.4c0,.2,.2,.4,.4,.4m3.9,0h2.3c.2,0,.4,-.2,.4,-.4c0,-.2,-.2,-.4,-.4,-.4h-2.3c-.2,0,-.4,.2,-.4,.4c0,.2,.2,.4,.4,.4m3.9,0h2.3c.2,0,.4,-.2,.4,-.4c0,-.2,-.2,-.4,-.4,-.4h-2.3c-.3,0,-.4,.2,-.4,.4c0,.2,.1,.4,.4,.4m3.8,0h2.4c.2,0,.3,-.2,.3,-.4c0,-.2,-.1,-.4,-.3,-.4h-2.4c-.2,0,-.3,.2,-.3,.4c0,.2,.1,.4,.3,.4Z" class="ga_10"/>
<path d="M740.8,302.7H743c.2,0,.4,-.2,.4,-.4c0,-.2,-.2,-.4,-.4,-.4h-2.2c-.2,0,-.4,.2,-.4,.4c0,.2,.2,.4,.4,.4m3.7,0h2.3c.2,0,.3,-.2,.3,-.4c0,-.2,-.1,-.4,-.3,-.4h-2.3c-.2,0,-.4,.2,-.4,.4c0,.2,.2,.4,.4,.4m3.7,0h2.3c.2,0,.4,-.2,.4,-.4c0,-.2,-.2,-.4,-.4,-.4h-2.3c-.2,0,-.4,.2,-.4,.4c0,.2,.2,.4,.4,.4m3.7,0h2.3c.2,0,.4,-.2,.4,-.4c0,-.2,-.2,-.4,-.4,-.4h-2.3c-.2,0,-.3,.2,-.3,.4c0,.2,.1,.4,.3,.4m3.8,0h2.2c.2,0,.4,-.2,.4,-.4c0,-.2,-.2,-.4,-.4,-.4h-2.2c-.2,0,-.4,.2,-.4,.4c0,.2,.2,.4,.4,.4m3.7,0h2.2c.2,0,.4,-.2,.4,-.4c0,-.2,-.2,-.4,-.4,-.4h-2.2c-.2,0,-.4,.2,-.4,.4c0,.2,.2,.4,.4,.4Z" class="ga_10"/>
<path d="M693.4,302.7h2.2c.2,0,.4,-.2,.4,-.4c0,-.2,-.2,-.4,-.4,-.4h-2.2c-.2,0,-.4,.2,-.4,.4c0,.2,.2,.4,.4,.4m3.7,0h2.2c.2,0,.4,-.2,.4,-.4c0,-.2,-.2,-.4,-.4,-.4h-2.2c-.2,0,-.4,.2,-.4,.4c0,.2,.2,.4,.4,.4m3.7,0h2.3c.2,0,.3,-.2,.3,-.4c0,-.2,-.1,-.4,-.3,-.4h-2.3c-.2,0,-.4,.2,-.4,.4c0,.2,.2,.4,.4,.4m3.7,0h2.3c.2,0,.4,-.2,.4,-.4c0,-.2,-.2,-.4,-.4,-.4h-2.3c-.2,0,-.4,.2,-.4,.4c0,.2,.2,.4,.4,.4m3.8,0h2.2c.2,0,.4,-.2,.4,-.4c0,-.2,-.2,-.4,-.4,-.4h-2.2c-.3,0,-.4,.2,-.4,.4c0,.2,.1,.4,.4,.4m3.7,0h2.2c.2,0,.4,-.2,.4,-.4c0,-.2,-.2,-.4,-.4,-.4H712c-.2,0,-.4,.2,-.4,.4c0,.2,.2,.4,.4,.4Z" class="ga_10"/>
<path d="M718.2,305.3v-.7c-1.1,0,-2,.9,-2,2V336h22.9V306.6c0,-1.1,-.9,-2,-2.1,-2H718.2v1.5H737c.3,0,.6,.2,.6,.5v27.9H717.7V306.6c0,-.3,.2,-.5,.5,-.5Z" class="ga_10"/>
<path d="M720.2,300.3v-.4c-.5,0,-1,.5,-1,1v4.7h16.9v-4.7c0,-.5,-.5,-1,-1,-1H720.2v.7h14.9c.1,0,.3,.2,.3,.3v4H719.9v-4c0,-.1,.1,-.3,.3,-.3Z" class="ga_10"/>
<path d="M725.1,327.4h-.4V335l.1,.3l.3,.1h5.2l.2,-.1l.1,-.3v-7.6l-.1,-.3l-.2,-.1h-5.2l-.3,.1l-.1,.3h.4v.4h4.8v6.8h-4.5v-7.2h-.3v.4Z" class="ga_10"/>
<path d="M732,327.4h-.4v4.1l.1,.3l.3,.1h4.1l.3,-.1l.1,-.3v-4.1l-.1,-.3l-.3,-.1H732l-.3,.1l-.1,.3h.4v.4h3.8v3.3h-3.4v-3.7H732v.4Z" class="ga_10"/>
<path d="M719.2,327.4h-.4v4.1l.1,.3l.3,.1h4.1l.3,-.1l.1,-.3v-4.1l-.1,-.3l-.3,-.1h-4.1l-.3,.1l-.1,.3h.4v.4H723v3.3h-3.4v-3.7h-.4v.4Z" class="ga_10"/>
<path d="M727.3,331.3h.8v-1h-.8v1Z" class="ga_10"/>
<path d="M732,321.1h-.4v4.1l.1,.2l.3,.2h4.1l.3,-.2l.1,-.2v-4.1l-.1,-.3l-.3,-.1H732l-.3,.1l-.1,.3h.4v.3h3.8v3.4h-3.4v-3.7H732v.3Z" class="ga_10"/>
<path d="M725.6,321.1h-.4v4.1l.1,.2l.3,.2h4.1l.3,-.2l.1,-.2v-4.1l-.1,-.3l-.3,-.1h-4.1l-.3,.1l-.1,.3h.4v.3h3.8v3.4H726v-3.7h-.4v.3Z" class="ga_10"/>
<path d="M719.2,321.1h-.4v4.1l.1,.2l.3,.2h4.1l.3,-.2l.1,-.2v-4.1l-.1,-.3l-.3,-.1h-4.1l-.3,.1l-.1,.3h.4v.3H723v3.4h-3.4v-3.7h-.4v.3Z" class="ga_10"/>
<path d="M732,314.8h-.4v4.1l.1,.2l.3,.1h4.1l.3,-.1l.1,-.2v-4.1l-.1,-.3l-.3,-.1H732l-.3,.1l-.1,.3h.4v.3h3.8v3.4h-3.4v-3.7H732v.3Z" class="ga_10"/>
<path d="M725.6,314.8h-.4v4.1l.1,.2l.3,.1h4.1l.3,-.1l.1,-.2v-4.1l-.1,-.3l-.3,-.1h-4.1l-.3,.1l-.1,.3h.4v.3h3.8v3.4H726v-3.7h-.4v.3Z" class="ga_10"/>
<path d="M719.2,314.8h-.4v4.1l.1,.2l.3,.1h4.1l.3,-.1l.1,-.2v-4.1l-.1,-.3l-.3,-.1h-4.1l-.3,.1l-.1,.3h.4v.3H723v3.4h-3.4v-3.7h-.4v.3Z" class="ga_10"/>
<path d="M732,308.4h-.4v4.1l.1,.3l.3,.1h4.1l.3,-.1l.1,-.3v-4.1l-.1,-.2l-.3,-.1H732l-.3,.1l-.1,.2h.4v.4h3.8v3.4h-3.4v-3.8H732v.4Z" class="ga_10"/>
<path d="M725.6,308.4h-.4v4.1l.1,.3l.3,.1h4.1l.3,-.1l.1,-.3v-4.1l-.1,-.2l-.3,-.1h-4.1l-.3,.1l-.1,.2h.4v.4h3.8v3.4H726v-3.8h-.4v.4Z" class="ga_10"/>
<path d="M719.2,308.4h-.4v4.1l.1,.3l.3,.1h4.1l.3,-.1l.1,-.3v-4.1l-.1,-.2l-.3,-.1h-4.1l-.3,.1l-.1,.2h.4v.4H723v3.4h-3.4v-3.8h-.4v.4Z" class="ga_10"/>
<path d="M722.8,301.3l-.2,-.1l-.5,.7l-.8,.2l-.2,.2l.1,.2l.5,.7v.8l.1,.2h.2l.8,-.3l.7,.3h.3l.1,-.2l-.1,-.8l.5,-.7l.1,-.2l-.2,-.2l-.8,-.2l-.4,-.7l-.2,-.1l-.2,.1l.2,.1l-.2,.2l.4,.8l.2,.1l.5,.1l-.3,.4l-.1,.2l.1,.6l-.6,-.3h-.1l-.6,.3l.1,-.6l-.1,-.2l-.3,-.4l.5,-.1l.2,-.1l.5,-.8l-.2,-.2l-.2,.2Z" class="ga_10"/>
<path d="M727.6,301.3l-.2,-.1l-.4,.7l-.8,.2l-.2,.2l.1,.2l.5,.7l-.1,.8l.1,.2h.3l.7,-.3l.8,.3h.2l.1,-.2v-.8l.5,-.7l.1,-.2l-.2,-.2l-.8,-.2l-.5,-.7l-.2,-.1l-.2,.1l.2,.1l-.2,.2l.5,.8l.2,.1l.5,.1l-.3,.4l-.1,.2v.6l-.5,-.3h-.2l-.5,.3l.1,-.6l-.1,-.2l-.4,-.4l.6,-.1l.1,-.1l.5,-.8l-.2,-.2l-.2,.2Z" class="ga_10"/>
<path d="M732.5,301.3l-.2,-.1l-.4,.7l-.8,.2l-.2,.2v.2l.6,.7l-.1,.8l.1,.2h.2l.8,-.3l.8,.3h.2l.1,-.2l-.1,-.8l.6,-.7v-.2l-.1,-.2l-.9,-.2l-.4,-.7l-.2,-.1l-.2,.1l.2,.1l-.2,.2l.5,.8l.1,.1l.6,.1l-.4,.4v.8l-.5,-.3h-.2l-.5,.3v-.8l-.4,-.4l.6,-.1l.1,-.1l.5,-.8l-.2,-.2l-.2,.2Z" class="ga_10"/>
<path d="M715.2,336.3h24.6c.5,0,1,-.4,1,-1c0,-.5,-.5,-.9,-1,-.9H715.2c-.5,0,-.9,.4,-.9,.9c0,.6,.4,1,.9,1Z" class="ga_10"/>
<path d="M727.5,327.3v7.4h.3v-7.4Z" class="ga_10"/>
<image clip-path="url(#ce_10)" preserveAspectRatio="none" x="593" y="339" width="89" height="31" xlink:href="img/15.jpg"/>
<image clip-path="url(#cf_10)" preserveAspectRatio="none" x="603" y="268" width="88" height="72" xlink:href="img/16.jpg"/>
<image clip-path="url(#cg_10)" preserveAspectRatio="none" x="602" y="361" width="80" height="4" xlink:href="img/17.jpg"/>
<image clip-path="url(#ch_10)" preserveAspectRatio="none" x="680" y="339" width="11" height="31" xlink:href="img/18.jpg"/>
<image clip-path="url(#ci_10)" preserveAspectRatio="none" x="681" y="268" width="10" height="72" xlink:href="img/19.jpg"/>
<image clip-path="url(#cj_10)" preserveAspectRatio="none" x="680" y="361" width="11" height="4" xlink:href="img/20.jpg"/>
<image clip-path="url(#ck_10)" preserveAspectRatio="none" x="687" y="289" width="4" height="69" xlink:href="img/21.jpg"/>
<image clip-path="url(#cl_10)" preserveAspectRatio="none" x="687" y="357" width="4" height="8" xlink:href="img/22.jpg"/>
<path d="M618.2,280.7c-10.1,0,-18.3,8.2,-18.3,18.3v64.1h79V299c0,-10.1,-8.2,-18.3,-18.3,-18.3Z" class="g1_10"/>
<path d="M599.8,364h79.1v-7.1H599.8V364Z" class="g8_10"/>
<path d="M606,306.8h2.2c.2,0,.4,-.1,.4,-.3c0,-.3,-.2,-.4,-.4,-.4H606c-.2,0,-.3,.1,-.3,.4c0,.2,.1,.3,.3,.3m3.6,0h2.2c.2,0,.3,-.1,.3,-.3c0,-.3,-.1,-.4,-.3,-.4h-2.2c-.2,0,-.4,.1,-.4,.4c0,.2,.2,.3,.4,.3m3.5,0h2.2c.2,0,.4,-.1,.4,-.3c0,-.3,-.2,-.4,-.4,-.4h-2.2c-.2,0,-.3,.1,-.3,.4c0,.2,.1,.3,.3,.3m3.6,0h2.2c.2,0,.3,-.1,.3,-.3c0,-.3,-.1,-.4,-.3,-.4h-2.2c-.2,0,-.4,.1,-.4,.4c0,.2,.2,.3,.4,.3m3.6,0h2.1c.2,0,.4,-.1,.4,-.3c0,-.3,-.2,-.4,-.4,-.4h-2.1c-.3,0,-.4,.1,-.4,.4c0,.2,.1,.3,.4,.3m3.5,0H626c.2,0,.3,-.1,.3,-.3c0,-.3,-.1,-.4,-.3,-.4h-2.2c-.2,0,-.4,.1,-.4,.4c0,.2,.2,.3,.4,.3m3.6,0h2.1c.2,0,.4,-.1,.4,-.3c0,-.3,-.2,-.4,-.4,-.4h-2.1c-.2,0,-.4,.1,-.4,.4c0,.2,.2,.3,.4,.3Z" class="gb_10"/>
<path d="M606,339.1h2.4c.2,0,.3,-.2,.3,-.4c0,-.2,-.1,-.4,-.3,-.4H606c-.2,0,-.3,.2,-.3,.4c0,.2,.1,.4,.3,.4m3.9,0h2.3c.3,0,.4,-.2,.4,-.4c0,-.2,-.1,-.4,-.4,-.4h-2.3c-.2,0,-.4,.2,-.4,.4c0,.2,.2,.4,.4,.4m3.9,0h2.3c.2,0,.4,-.2,.4,-.4c0,-.2,-.2,-.4,-.4,-.4h-2.3c-.2,0,-.4,.2,-.4,.4c0,.2,.2,.4,.4,.4m3.9,0H620c.2,0,.4,-.2,.4,-.4c0,-.2,-.2,-.4,-.4,-.4h-2.3c-.2,0,-.4,.2,-.4,.4c0,.2,.2,.4,.4,.4m3.9,0h2.3c.2,0,.4,-.2,.4,-.4c0,-.2,-.2,-.4,-.4,-.4h-2.3c-.2,0,-.4,.2,-.4,.4c0,.2,.2,.4,.4,.4m3.8,0h2.4c.2,0,.4,-.2,.4,-.4c0,-.2,-.2,-.4,-.4,-.4h-2.4c-.2,0,-.3,.2,-.3,.4c0,.2,.1,.4,.3,.4m3.9,0h2.4c.2,0,.3,-.2,.3,-.4c0,-.2,-.1,-.4,-.3,-.4h-2.4c-.2,0,-.4,.2,-.4,.4c0,.2,.2,.4,.4,.4m3.9,0h2.3c.2,0,.4,-.2,.4,-.4c0,-.2,-.2,-.4,-.4,-.4h-2.3c-.2,0,-.4,.2,-.4,.4c0,.2,.2,.4,.4,.4m3.9,0h2.3c.2,0,.4,-.2,.4,-.4c0,-.2,-.2,-.4,-.4,-.4h-2.3c-.2,0,-.4,.2,-.4,.4c0,.2,.2,.4,.4,.4m3.9,0h2.3c.2,0,.4,-.2,.4,-.4c0,-.2,-.2,-.4,-.4,-.4H641c-.2,0,-.4,.2,-.4,.4c0,.2,.2,.4,.4,.4m3.9,0h2.3c.2,0,.4,-.2,.4,-.4c0,-.2,-.2,-.4,-.4,-.4h-2.3c-.3,0,-.4,.2,-.4,.4c0,.2,.1,.4,.4,.4m3.8,0h2.4c.2,0,.3,-.2,.3,-.4c0,-.2,-.1,-.4,-.3,-.4h-2.4c-.2,0,-.3,.2,-.3,.4c0,.2,.1,.4,.3,.4m3.9,0h2.3c.3,0,.4,-.2,.4,-.4c0,-.2,-.1,-.4,-.4,-.4h-2.3c-.2,0,-.4,.2,-.4,.4c0,.2,.2,.4,.4,.4m3.9,0h2.3c.2,0,.4,-.2,.4,-.4c0,-.2,-.2,-.4,-.4,-.4h-2.3c-.2,0,-.4,.2,-.4,.4c0,.2,.2,.4,.4,.4m3.9,0h2.3c.2,0,.4,-.2,.4,-.4c0,-.2,-.2,-.4,-.4,-.4h-2.3c-.2,0,-.4,.2,-.4,.4c0,.2,.2,.4,.4,.4m3.9,0h2.3c.2,0,.4,-.2,.4,-.4c0,-.2,-.2,-.4,-.4,-.4h-2.3c-.2,0,-.4,.2,-.4,.4c0,.2,.2,.4,.4,.4m3.9,0h2.3c.2,0,.4,-.2,.4,-.4c0,-.2,-.2,-.4,-.4,-.4h-2.3c-.3,0,-.4,.2,-.4,.4c0,.2,.1,.4,.4,.4m3.8,0h2.4c.2,0,.3,-.2,.3,-.4c0,-.2,-.1,-.4,-.3,-.4H672c-.2,0,-.3,.2,-.3,.4c0,.2,.1,.4,.3,.4Z" class="gb_10"/>
<path d="M652.8,306.8h2.3c.2,0,.4,-.1,.4,-.3c0,-.3,-.2,-.4,-.4,-.4h-2.3c-.2,0,-.4,.1,-.4,.4c0,.2,.2,.3,.4,.3m3.9,0H659c.2,0,.4,-.1,.4,-.3c0,-.3,-.2,-.4,-.4,-.4h-2.3c-.2,0,-.4,.1,-.4,.4c0,.2,.2,.3,.4,.3m3.8,0h2.3c.2,0,.4,-.1,.4,-.3c0,-.3,-.2,-.4,-.4,-.4h-2.3c-.2,0,-.4,.1,-.4,.4c0,.2,.2,.3,.4,.3m3.9,0h2.3c.2,0,.3,-.1,.3,-.3c0,-.3,-.1,-.4,-.3,-.4h-2.3c-.3,0,-.4,.1,-.4,.4c0,.2,.1,.3,.4,.3m3.8,0h2.3c.2,0,.4,-.1,.4,-.3c0,-.3,-.2,-.4,-.4,-.4h-2.3c-.2,0,-.4,.1,-.4,.4c0,.2,.2,.3,.4,.3m3.9,0h2.3c.2,0,.3,-.1,.3,-.3c0,-.3,-.1,-.4,-.3,-.4h-2.3c-.3,0,-.4,.1,-.4,.4c0,.2,.1,.3,.4,.3Z" class="gb_10"/>
<path d="M649.4,318.5c0,3.4,-.1,6.8,0,10.2c.1,3.1,-1.4,5.3,-4.5,6.7c-3.3,1.4,-6.5,1.1,-9.5,-.7c-.4,-.2,-.9,-.5,-1.1,-.9c-.2,-.2,-.1,-.7,0,-.9c.2,-.1,.7,-.1,1,0c.2,0,.4,.3,.6,.4c3.1,2.3,8,2,10.5,-.7c1.1,-1.1,1.5,-2.4,1.5,-3.8c-.1,-6.8,-.1,-13.6,0,-20.4c0,-2.5,-1.1,-4.4,-3.6,-5.5c-2.6,-1.2,-5.3,-1.1,-7.8,.4c-.3,.1,-.6,.4,-.9,.6c-.4,.3,-.9,.5,-1.2,0c-.2,-.2,-.1,-.8,.2,-1c1.1,-1,2.5,-1.6,4,-2c4.8,-1,9.7,1.5,10.6,5.5c.2,.6,.2,1.1,.2,1.7c0,3.5,0,6.9,0,10.4Z" class="gb_10"/>
<path d="M634.3,310.6c-1.7,-.2,-2.2,-1.4,-1.5,-3c.5,-1,1.3,-1.5,2.4,-1.8c1.5,-.5,3.1,-.5,4.7,0c2,.6,3.2,2.5,3,4.5c-.2,1.9,-1.8,3.6,-3.7,3.8c-2.1,.3,-4,-.8,-4.7,-2.8c-.1,-.2,-.1,-.4,-.2,-.7m7.1,0c-1.4,-.4,-1.6,-.6,-2.3,-1.8c-.1,-.3,-.3,-.6,-.4,-.9c-.7,-.9,-1.4,-1,-2.2,-.1c-.9,.8,-1.1,2.1,-.6,3.2c.5,1.1,1.5,1.8,2.7,1.8c1.4,-.1,2.3,-.8,2.8,-2.2m.1,-1.6c.1,-1,-1.8,-1.6,-1.8,-1.6c.5,1.7,1.7,2.2,1.8,1.6M635,307.3c-1.9,.8,-.9,2.3,-.8,1.9c0,0,.2,-1.2,.8,-1.9Z" class="gb_10"/>
<path d="M634.3,320c-1.7,-.3,-2.2,-1.5,-1.5,-3c.5,-1.1,1.3,-1.5,2.4,-1.8c1.5,-.5,3.1,-.6,4.7,-.1c2,.6,3.2,2.5,3,4.5c-.2,1.9,-1.8,3.6,-3.7,3.9c-2.1,.2,-4,-.9,-4.7,-2.9c-.1,-.2,-.1,-.4,-.2,-.6m7.1,0c-1.4,-.5,-1.6,-.6,-2.3,-1.9c-.1,-.3,-.3,-.6,-.4,-.8c-.7,-1,-1.4,-1,-2.2,-.2c-.9,.8,-1.1,2.1,-.6,3.2c.5,1.2,1.5,1.8,2.7,1.8c1.4,0,2.3,-.8,2.8,-2.1m.1,-1.7c.1,-1,-1.8,-1.6,-1.8,-1.6c.5,1.8,1.7,2.2,1.8,1.6M635,316.6c-1.9,.8,-.9,2.3,-.8,1.9c0,0,.2,-1.2,.8,-1.9Z" class="gb_10"/>
<path d="M634.3,329.1c-1.7,-.3,-2.2,-1.5,-1.5,-3c.5,-1.1,1.3,-1.5,2.4,-1.8c1.5,-.5,3.1,-.6,4.7,-.1c2,.6,3.2,2.5,3,4.5c-.2,1.9,-1.8,3.6,-3.7,3.9c-2.1,.2,-4,-.9,-4.7,-2.8c-.1,-.3,-.1,-.5,-.2,-.7m7.1,0c-1.4,-.5,-1.6,-.6,-2.3,-1.9c-.1,-.3,-.3,-.6,-.4,-.8c-.7,-1,-1.4,-1,-2.2,-.2c-.9,.8,-1.1,2.1,-.6,3.2c.5,1.2,1.5,1.8,2.7,1.8c1.4,0,2.3,-.8,2.8,-2.1m.1,-1.7c.1,-1,-1.8,-1.6,-1.8,-1.6c.5,1.8,1.7,2.2,1.8,1.6M635,325.7c-1.9,.8,-.9,2.3,-.8,1.9c0,0,.2,-1.2,.8,-1.9Z" class="gb_10"/>
<path d="M630.5,323.6L625.2,318c-.2,-.2,-.6,-.2,-.9,0c-.2,.2,-.3,.6,0,.9l5.3,5.5c.2,.3,.6,.3,.8,0c.3,-.2,.3,-.6,.1,-.8Z" class="gb_10"/>
<path d="M630.5,331.2l-5.3,5.5c-.2,.3,-.6,.3,-.9,.1c-.2,-.3,-.3,-.7,0,-.9l5.3,-5.6c.2,-.2,.6,-.2,.8,0c.3,.3,.3,.7,.1,.9Z" class="gb_10"/>
<path d="M629.2,325.6L622,324.2c-.3,-.1,-.7,.1,-.7,.4c-.1,.4,.1,.7,.5,.8l7.2,1.4c.3,.1,.7,-.2,.7,-.5c.1,-.3,-.1,-.7,-.5,-.7Z" class="gb_10"/>
<path d="M629.2,329.2l-7.2,1.4c-.3,.1,-.7,-.1,-.7,-.5c-.1,-.3,.1,-.6,.5,-.7L629,328c.3,-.1,.7,.1,.7,.5c.1,.3,-.1,.6,-.5,.7Z" class="gb_10"/>
<image clip-path="url(#cm_10)" preserveAspectRatio="none" x="505" y="339" width="89" height="31" xlink:href="img/23.jpg"/>
<image clip-path="url(#cn_10)" preserveAspectRatio="none" x="505" y="268" width="98" height="72" xlink:href="img/24.jpg"/>
<image clip-path="url(#co_10)" preserveAspectRatio="none" x="505" y="361" width="89" height="4" xlink:href="img/25.jpg"/>
<image clip-path="url(#cp_10)" preserveAspectRatio="none" x="592" y="339" width="12" height="31" xlink:href="img/26.jpg"/>
<image clip-path="url(#cq_10)" preserveAspectRatio="none" x="593" y="268" width="10" height="72" xlink:href="img/27.jpg"/>
<image clip-path="url(#cr_10)" preserveAspectRatio="none" x="592" y="361" width="12" height="4" xlink:href="img/28.jpg"/>
<image clip-path="url(#cs_10)" preserveAspectRatio="none" x="600" y="288" width="3" height="70" xlink:href="img/29.jpg"/>
<image clip-path="url(#ct_10)" preserveAspectRatio="none" x="600" y="357" width="3" height="8" xlink:href="img/30.jpg"/>
<path d="M530.5,280.7c-10.2,0,-18.4,8.2,-18.4,18.3v64.1h79V299c0,-10.1,-8.2,-18.3,-18.3,-18.3Z" class="g1_10"/>
<path d="M512,364h79.1v-7.1H512V364Z" class="g8_10"/>
<path d="M518.3,306.8h2.5c.2,0,.4,-.1,.4,-.3c0,-.3,-.2,-.4,-.4,-.4h-2.5c-.2,0,-.4,.1,-.4,.4c0,.2,.2,.3,.4,.3m4.3,0h2.5c.2,0,.4,-.1,.4,-.3c0,-.3,-.2,-.4,-.4,-.4h-2.5c-.2,0,-.4,.1,-.4,.4c0,.2,.2,.3,.4,.3m4.3,0h2.5c.3,0,.4,-.1,.4,-.3c0,-.3,-.1,-.4,-.4,-.4h-2.5c-.2,0,-.4,.1,-.4,.4c0,.2,.2,.3,.4,.3m4.3,0h2.6c.2,0,.3,-.1,.3,-.3c0,-.3,-.1,-.4,-.3,-.4h-2.6c-.2,0,-.4,.1,-.4,.4c0,.2,.2,.3,.4,.3Z" class="g6_10"/>
<path d="M569.8,339.1H572c.2,0,.4,-.2,.4,-.4c0,-.2,-.2,-.4,-.4,-.4h-2.2c-.2,0,-.4,.2,-.4,.4c0,.2,.2,.4,.4,.4m3.7,0h2.2c.2,0,.3,-.2,.3,-.4c0,-.2,-.1,-.4,-.3,-.4h-2.2c-.3,0,-.4,.2,-.4,.4c0,.2,.1,.4,.4,.4m3.6,0h2.2c.2,0,.4,-.2,.4,-.4c0,-.2,-.2,-.4,-.4,-.4h-2.2c-.2,0,-.4,.2,-.4,.4c0,.2,.2,.4,.4,.4m3.6,0H583c.2,0,.3,-.2,.3,-.4c0,-.2,-.1,-.4,-.3,-.4h-2.3c-.2,0,-.3,.2,-.3,.4c0,.2,.1,.4,.3,.4m3.7,0h2.2c.2,0,.4,-.2,.4,-.4c0,-.2,-.2,-.4,-.4,-.4h-2.2c-.2,0,-.4,.2,-.4,.4c0,.2,.2,.4,.4,.4Z" class="g6_10"/>
<path d="M568.9,306.8h2.3c.3,0,.4,-.1,.4,-.3c0,-.3,-.1,-.4,-.4,-.4h-2.3c-.2,0,-.3,.1,-.3,.4c0,.2,.1,.3,.3,.3m3.9,0h2.3c.2,0,.4,-.1,.4,-.3c0,-.3,-.2,-.4,-.4,-.4h-2.3c-.2,0,-.4,.1,-.4,.4c0,.2,.2,.3,.4,.3m3.8,0h2.3c.2,0,.4,-.1,.4,-.3c0,-.3,-.2,-.4,-.4,-.4h-2.3c-.2,0,-.4,.1,-.4,.4c0,.2,.2,.3,.4,.3m3.9,0h2.3c.2,0,.3,-.1,.3,-.3c0,-.3,-.1,-.4,-.3,-.4h-2.3c-.3,0,-.4,.1,-.4,.4c0,.2,.1,.3,.4,.3m3.8,0h2.3c.2,0,.4,-.1,.4,-.3c0,-.3,-.2,-.4,-.4,-.4h-2.3c-.2,0,-.4,.1,-.4,.4c0,.2,.2,.3,.4,.3Z" class="g6_10"/>
<path d="M565.1,324.2c0,.9,.2,1.9,.2,2.8c0,2.6,-1.3,4.6,-3.4,6c-1.7,1.2,-3.6,1.7,-5.6,1.7c-3.1,0,-6.2,0,-9.3,0c-2.1,0,-4.1,-.6,-5.8,-1.8c-2.6,-1.7,-3.6,-4.1,-3.3,-7.2c.3,-2.5,.5,-5.1,.5,-7.6c.1,-2.3,0,-4.7,0,-7c-.1,-2.7,1.1,-4.8,3.2,-6.4c1.9,-1.4,4.1,-2,6.4,-2.1c2.4,0,4.9,0,7.3,0c2.2,.1,4.2,.6,6,1.9c2.5,1.7,3.7,4.1,3.5,7.2c-.1,1.5,0,3.1,0,4.7c-.1,0,.1,5.2,.3,7.8m-13.5,-20v-.1c-1.2,0,-2.4,0,-3.6,0c-1.7,.1,-3.3,.5,-4.8,1.4c-2,1.2,-3.4,2.8,-3.2,5.3c0,1.1,.3,2.2,.7,3.3c.5,1.7,1.3,3.3,2.8,4.5c.3,.3,.3,.8,0,1.1c-.9,.9,-1.7,1.6,-2.8,2c-.8,.2,-.9,.6,-1,1.3c0,.6,.2,1.1,.6,1.5c1,1.1,2.1,1.8,3.4,2.3c2.4,1,4.8,1.3,7.3,1.4c2.6,0,5.3,-.2,7.8,-1.1c1.7,-.6,3.3,-1.5,4.4,-3c.1,-.1,.2,-.3,.3,-.5c0,-.5,-.1,-.9,-.1,-1.4l-.3,-.3c-1.3,-.4,-2.4,-1.2,-3.4,-2.2c-.3,-.4,-.3,-.8,.1,-1.2c.6,-.6,1.1,-1.2,1.6,-1.9c.9,-1.6,1.5,-3.3,1.8,-5.1c.2,-1.5,-.1,-2.9,-1,-4.1c-1.5,-2,-3.6,-2.9,-6,-3.1c-1.5,-.2,-3.1,-.1,-4.6,-.1m-12,21.3c-.5,2.1,0,4,1.6,5.5c1.6,1.5,3.7,2.1,5.9,2.1c3,.1,6,.1,8.9,.1c1.1,0,2.1,-.2,3.1,-.5c1.8,-.6,3.3,-1.7,4.2,-3.4c.6,-1.2,.6,-2.5,.3,-3.8h-.1c-1.4,1.8,-3.4,2.8,-5.5,3.4c-3.7,1,-7.4,1,-11.2,.4c-1.8,-.3,-3.5,-.8,-5,-1.9c-.8,-.5,-1.5,-1.2,-2.2,-1.9Z" class="g6_10"/>
<path d="M544.7,335.2c-.7,.5,-1.3,1,-1.9,1.5c-.7,.5,-2.3,1.8,-2.9,2.3c-.4,.3,-.7,.3,-1.1,.2c-.1,-.1,-.3,-.3,-.4,-.5c-.1,-.3,0,-.6,.3,-.8c.4,-.3,1.8,-1.4,2.3,-1.8c.5,-.4,1.1,-.8,1.6,-1.2c.2,-.1,.4,-.2,.6,-.1c.5,.1,.9,.3,1.5,.4Z" class="g6_10"/>
<path d="M558.5,335.2c.6,-.2,1.2,-.3,1.7,-.5l.4,.2c.9,.7,2.9,2.2,3.9,3c.1,.1,.3,.3,.3,.4c.1,.3,.1,.7,-.2,.8c-.3,.1,-.7,.2,-.9,0c-1.4,-.9,-3.8,-2.8,-5.2,-3.9Z" class="g6_10"/>
<path d="M551.5,318c-1.3,0,-2.7,.1,-4.1,0c-2.5,-.2,-4.5,-2.1,-5,-4.6c-.1,-.6,-.3,-1.2,-.4,-1.9c-.5,-2.4,1.3,-4.6,3.8,-4.6c3.9,0,7.7,0,11.6,0c2.4,0,4.1,1.9,3.8,4.3c-.2,1.4,-.3,2.8,-1.1,4c-1.1,1.8,-2.8,2.8,-4.9,2.8c-1.2,0,-2.4,0,-3.7,0Z" class="g6_10"/>
<path d="M557.5,321.5c.3,0,.6,0,1,0c.6,0,.9,.4,.7,.8c-.6,1.1,-1.3,2.2,-1.9,3.3c-.1,.2,-.4,.3,-.7,.3c-.7,0,-1.4,0,-2.1,0c-.6,0,-1,-.4,-.7,-.8c.6,-1.1,1.2,-2.2,1.8,-3.2c.2,-.3,.5,-.4,.9,-.4c.3,0,.6,0,1,0Z" class="g6_10"/>
<path d="M547.7,325.9c-.4,0,-.7,0,-1,0c-.4,0,-.7,-.1,-.9,-.4c-.6,-1,-1.2,-2.1,-1.8,-3.2c-.3,-.5,.1,-.8,.8,-.8c.6,0,1.3,0,1.9,0c.4,0,.7,.1,.9,.4c.6,1.1,1.2,2.1,1.8,3.2c.3,.4,-.1,.8,-.7,.8c-.3,0,-.7,0,-1,0Z" class="g6_10"/>
<path d="M552.9,331.5c0,.7,-.6,1.4,-1.3,1.4c-.7,0,-1.3,-.6,-1.3,-1.3c-.1,-.8,.5,-1.4,1.3,-1.4c.7,0,1.3,.6,1.3,1.3Z" class="g6_10"/>
<path d="M518.3,339.1h2.2c.2,0,.4,-.2,.4,-.4c0,-.2,-.2,-.4,-.4,-.4h-2.2c-.2,0,-.4,.2,-.4,.4c0,.2,.2,.4,.4,.4m3.6,0h2.2c.2,0,.4,-.2,.4,-.4c0,-.2,-.2,-.4,-.4,-.4h-2.2c-.2,0,-.4,.2,-.4,.4c0,.2,.2,.4,.4,.4m3.7,0h2.2c.2,0,.4,-.2,.4,-.4c0,-.2,-.2,-.4,-.4,-.4h-2.2c-.2,0,-.4,.2,-.4,.4c0,.2,.2,.4,.4,.4m3.6,0h2.2c.2,0,.4,-.2,.4,-.4c0,-.2,-.2,-.4,-.4,-.4h-2.2c-.2,0,-.4,.2,-.4,.4c0,.2,.2,.4,.4,.4m3.7,0h2.2c.2,0,.4,-.2,.4,-.4c0,-.2,-.2,-.4,-.4,-.4h-2.2c-.2,0,-.4,.2,-.4,.4c0,.2,.2,.4,.4,.4Z" class="g6_10"/>
<path d="M890,1286.2h19.4V0H890V1286.2Z" class="g1_10"/>
</svg>