<?xml version="1.0" encoding="UTF-8" standalone="no"?>
<!DOCTYPE svg PUBLIC "-//W3C//DTD SVG 1.1//EN"
"http://www.w3.org/Graphics/SVG/1.1/DTD/svg11.dtd">
<svg viewBox="0 0 909 1286" version="1.1" xmlns="http://www.w3.org/2000/svg" xmlns:xlink="http://www.w3.org/1999/xlink">
<defs>
<clipPath id="c0_22"><path d="M29.9,1060.2V1036h.3v24.2Z"/></clipPath>
<clipPath id="c1_22"><path d="M3.1,1060.2V1036H4.2v22.4H27.7V1036h2.2v24.2Z"/></clipPath>
<clipPath id="c2_22"><path d="M4.2,1058.4V1036H27.7v22.4Z"/></clipPath>
<clipPath id="c3_22"><path d="M536.3,147.2c.7,-6,1,-12.8,1.1,-13.3v-.1c0,0,-1.6,-8,-2.5,-12c-.4,-2,-.5,-3.9,-.5,-5.7c0,-1.7,.1,-3.4,.1,-4.7c0,-2.7,-2,-6,-2.7,-9.3c-.4,-2,-.5,-6.4,-.5,-9.5c0,-2.1,.1,-3.6,.1,-3.6l.4,-12.7l1.3,-4.9l.7,-4l-4.4,-3.5l-.7,-4.2l-1.3,-2.3l-2.7,-4.6l-5.3,-6.9c0,0,-3.6,-2.9,-4.7,-4.2c-.4,-.5,-.5,-1,-.5,-1.7c0,-1.3,.6,-2.8,1.4,-3.7c1.1,-1.3,7.3,-5.9,7.3,-5.9c0,0,7.1,-6.5,8.5,-7.2c0,0,.1,0,.1,0c.4,-.2,.7,-.2,1,-.2c.8,0,1.6,.4,2.2,.7c0,0,.1,0,.2,.1c.2,0,.4,0,.7,0c.9,0,2,-.3,2.2,-.3l.8,-.5V147.2Z"/></clipPath>
<clipPath id="c4_22"><path d="M39,446.1V147.2H308.1V446.1h-1.2V429.7h-44v16.4Z"/></clipPath>
<clipPath id="c5_22"><path d="M322.2,446.1V147.2H538.6V446.1Z"/></clipPath>
<clipPath id="c6_22"><path d="M262.9,450.1v-4h44v4Z"/></clipPath>
<clipPath id="c7_22"><path d="M262.9,446.1V429.7h44v16.4Z"/></clipPath>
<clipPath id="c8_22"><path d="M870.5,446.1V147.2h-.4h.1l.3,-.3V446.1ZM861,55.1L850.8,52.9h-9.6l-5.3,-4.6h-11l-7.8,-6.4l-8.6,-.3l-2.8,-1.1L802.2,37l-4.3,.7l-3.2,-2.1l2.5,-2.2l-4.3,-2.5l-1,-3.1l-6,.3L778,20c0,0,-2.8,1,-4.6,1.9c-1.4,.7,-3.6,1.5,-6.2,1.5c-.7,0,-1.5,0,-2.2,-.2c-3.6,-.6,-12.5,-3.5,-16.2,-4.4C745.3,18,737.6,17,733.3,17c-.4,0,-.8,0,-1.2,0c-2,.1,-4,.4,-5.7,.4c-1.7,0,-3.1,-.3,-3.6,-1C721.7,14.8,719.9,13,719.9,13c0,0,-.3,0,-.8,0c-.8,0,-1.9,.1,-3,.5c-1.8,.6,-5.8,1.3,-5.8,1.3l-11.5,1.3c0,0,-6.7,.3,-9.3,.3c-2.7,0,-16.5,-.9,-16.5,-.9L657.5,13.3L646,10.1L640.6,7.9l-1.5,-.6L636,7.7l-2.7,2.2l-5.3,.9H595.5l-7.1,-.9L585.3,8.8L577.8,2.6l-4,-.9l-5.1,.4l-9.4,3.6L554,8.8L550.7,13l3.3,3.8l1.6,3.1l-4.3,.9l-3.7,-.7l-5.1,.5L538.6,23V0H870.5V46.6h-3.4l-.7,5.3L861,55.1Z"/></clipPath>
<clipPath id="c9_22"><path d="M795.8,136.4V122.1H737.5v14.3ZM732.1,124.5V110.2h-61v14.3ZM599.4,121.1V101.8H579.3v19.3Zm233.1,-11V95.8H775.3v14.3Zm31.6,-2.5V91.1H833.8v16.5ZM759.3,102V87.7H729V102ZM783.6,86.8V72.5H635.1V86.8Zm-245,60.4V23l3.9,-2.4l5.1,-.5l3.7,.7l4.3,-.9L554,16.8L550.7,13L554,8.8l5.3,-3.1l9.4,-3.6l5.1,-.4l4,.9l7.5,6.2l3.1,1.1l7.1,.9H628l5.3,-.9L636,7.7l3.1,-.4l1.5,.6l5.4,2.2l11.5,3.2L673,15.5c0,0,13.8,.9,16.5,.9c2.6,0,9.3,-.3,9.3,-.3l11.5,-1.3c0,0,4,-.7,5.8,-1.3c1.1,-.4,2.2,-.5,3,-.5c.5,0,.8,0,.8,0c0,0,1.8,1.8,2.9,3.4c.5,.7,1.9,1,3.6,1c1.7,0,3.7,-.3,5.7,-.4c.4,0,.8,0,1.2,0c4.3,0,12,1,15.5,1.8c3.7,.9,12.6,3.8,16.2,4.4c.7,.2,1.5,.2,2.2,.2c2.6,0,4.8,-.8,6.2,-1.5C775.2,21,778,20,778,20l7.9,8.1l6,-.3l1,3.1l4.3,2.5l-2.5,2.2l3.2,2.1l4.3,-.7l3.5,3.5l2.8,1.1l8.6,.3l7.8,6.4h11l5.3,4.6h9.6L861,55.1l5.4,-3.2l.7,-5.3h3.4V146.9l-.3,.3H845.5V133.1H804.8v14.1Z"/></clipPath>
<clipPath id="ca_22"><path d="M538.6,246.9V147.2h94.9v99.7Z"/></clipPath>
<clipPath id="cb_22"><path d="M633.2,246.9V147.2h95.1v99.7Z"/></clipPath>
<clipPath id="cc_22"><path d="M728.1,246.9V147.2h76.7v2.9h18.4v96.8Z"/></clipPath>
<clipPath id="cd_22"><path d="M823,346.6V150.1h22.5v-2.9h25V346.6Z"/></clipPath>
<clipPath id="ce_22"><path d="M538.6,346.6V246.7h94.9v99.9Z"/></clipPath>
<clipPath id="cf_22"><path d="M633.2,346.6V246.7h95.1v99.9Z"/></clipPath>
<clipPath id="cg_22"><path d="M538.6,446.1V346.4h94.9v99.7Z"/></clipPath>
<clipPath id="ch_22"><path d="M633.2,446.1V346.4h95.1v99.7Z"/></clipPath>
<clipPath id="ci_22"><path d="M728.1,446.1V346.4h95.1v83.3H759.6v16.4Z"/></clipPath>
<clipPath id="cj_22"><path d="M869,446.1V429.7H823V346.4h47.5v99.7Z"/></clipPath>
<clipPath id="ck_22"><path d="M759.6,447.3v-1.2H869v1.2Z"/></clipPath>
<clipPath id="cl_22"><path d="M759.6,446.1V429.7H869v16.4Z"/></clipPath>
<clipPath id="cm_22"><path d="M579.3,121.1V101.8h20.1v19.3Z"/></clipPath>
<clipPath id="cn_22"><path d="M729,102V87.7h30.3V102Z"/></clipPath>
<clipPath id="co_22"><path d="M635.1,86.8V72.5H783.6V86.8Z"/></clipPath>
<clipPath id="cp_22"><path d="M671.1,124.5V110.2h61v14.3Z"/></clipPath>
<clipPath id="cq_22"><path d="M511.1,121.1V101.8h20.1v19.3Z"/></clipPath>
<clipPath id="cr_22"><path d="M465.2,121.1v-5.9h1.2v-8.8h-1.2v-4.6h20.1v19.3Z"/></clipPath>
<clipPath id="cs_22"><path d="M465.2,115.2v-8.8h1.2v8.8Z"/></clipPath>
<clipPath id="ct_22"><path d="M442.5,111.5c0,-1.5,-.5,-2.2,-1.3,-2.2c-.9,0,-1.6,.8,-1.7,2.2Zm3.7,3.3c.9,0,1.5,-1,1.5,-2.8c0,-1.6,-.5,-2.7,-1.5,-2.7c-1,0,-1.5,.8,-1.5,2.8c0,1.3,.3,2.7,1.5,2.7Zm9.3,-3.3c0,-1.5,-.5,-2.2,-1.3,-2.2c-.9,0,-1.5,.8,-1.7,2.2Zm8.6,3.3c1.1,0,1.8,-1.2,1.8,-2.8c0,-1.5,-.7,-2.7,-1.8,-2.7c-1.2,0,-1.9,1.2,-1.9,2.7c0,1.6,.7,2.8,1.9,2.8Zm-6.9,.3V109h.5v6.1Zm-7.8,0V109h.5v.9c0,.3,-.1,.5,-.1,.5h.1c.2,-.8,.7,-1.5,1.4,-1.5c.1,0,.2,.1,.2,.1v.5c0,0,-.1,0,-.2,0c-1,0,-1.4,1.7,-1.4,2.9v2.7Zm9.8,0V109h.5v.9c0,.3,-.1,.5,-.1,.5h.1c.2,-.8,.7,-1.5,1.4,-1.5c.1,0,.2,.1,.2,.1v.5c0,0,-.1,0,-.2,0c-1,0,-1.4,1.7,-1.4,2.9v2.7Zm-18,.1c-1.3,0,-2.2,-1.2,-2.2,-3.2c0,-2,.9,-3.2,2.2,-3.2c1.3,0,1.8,1.4,1.8,2.7c0,.2,0,.3,0,.5h-3.5c0,1.8,.8,2.8,1.8,2.8c.5,0,1.1,-.3,1.4,-.7l.2,.4c-.3,.4,-1,.7,-1.7,.7Zm13.1,0c-1.4,0,-2.3,-1.2,-2.3,-3.2c0,-2,.9,-3.2,2.2,-3.2c1.3,0,1.8,1.4,1.8,2.7c0,.2,0,.3,0,.5h-3.5c0,1.8,.8,2.8,1.8,2.8c.6,0,1.1,-.3,1.4,-.7l.2,.4c-.3,.4,-.9,.7,-1.6,.7Zm9.8,0c-1.4,0,-2.4,-1.4,-2.4,-3.2c0,-1.8,1,-3.2,2.4,-3.2c1.4,0,2.3,1.4,2.3,3.2c0,1.8,-.9,3.2,-2.3,3.2Zm-37.6,-.4c1.5,0,2.7,-1.5,2.7,-4c0,-2.5,-1.2,-3.9,-2.7,-3.9c-1.4,0,-2.6,1.4,-2.6,3.9c0,2.5,1.2,4,2.6,4Zm19.7,.4c-.8,0,-1.3,-.4,-1.5,-1.1h-.1c0,0,.1,.3,.1,.5v.5h-.5v-8.6h.5v3.1c0,.2,-.1,.4,-.1,.4h.1c.1,-.5,.6,-1.2,1.5,-1.2c1.4,0,2,1.4,2,3.2c0,2,-.7,3.2,-2,3.2Zm11,-7.8v-.9h.5v.9Zm-30.7,7.8c-1.7,0,-3.1,-1.6,-3.1,-4.4c0,-2.8,1.4,-4.4,3.1,-4.4c1.8,0,3.2,1.6,3.2,4.4c0,2.8,-1.4,4.4,-3.2,4.4Zm9.7,0c-2,0,-3.3,-1.9,-3.3,-4.4c0,-2.5,1.3,-4.4,3.4,-4.4c.6,0,1.4,.2,1.9,.7l-.3,.4c-.4,-.3,-1.1,-.6,-1.7,-.6c-1.7,0,-2.8,1.7,-2.8,3.9c0,2.2,1.1,4,2.8,4c.7,0,1.4,-.3,1.9,-.8l.2,.5c-.5,.5,-1.4,.7,-2.1,.7Z"/></clipPath>
<clipPath id="cu_22"><path d="M403.8,121.1v-5.8h.3v-8.8h-.3v-4.7h20v4.6h-.4v8.8h.4v5.9Z"/></clipPath>
<clipPath id="cv_22"><path d="M423.4,115.2v-8.8h.4v8.8Z"/></clipPath>
<clipPath id="cw_22"><path d="M341.8,121.1V101.8h20.1v4.7h-.2v8.8h.2v5.8Z"/></clipPath>
<clipPath id="cx_22"><path d="M290.2,121.1V101.8h20.1v19.3Z"/></clipPath>
<clipPath id="cy_22"><path d="M737.5,136.4V122.1h58.3v14.3Z"/></clipPath>
<clipPath id="cz_22"><path d="M775.3,110.1V95.8h57.2v14.3Z"/></clipPath>
<clipPath id="c10_22"><path d="M804.8,147.2V133.1h40.7v14.1Z"/></clipPath>
<clipPath id="c11_22"><path d="M804.8,150.1v-2.9h40.7v2.9Z"/></clipPath>
<clipPath id="c12_22"><path d="M833.8,107.6V91.1h30.3v16.5Z"/></clipPath>
<clipPath id="c13_22"><path d="M39,1247.2V0H870.5V1247.2Z"/></clipPath>
<style type="text/css"><![CDATA[
.g0_22{
fill: #9C1F5F;
}
.g1_22{
fill: #DCDDDE;
}
.g2_22{
fill: #8FD3D3;
}
.g3_22{
fill: #58595B;
}
.g4_22{
fill: #4D4D4F;
}
.g5_22{
fill: #DEF1F0;
}
.g6_22{
fill: #5AC4C1;
}
.g7_22{
fill: #FFF;
}
.g8_22{
fill: #949698;
}
]]></style>
</defs>
<path d="M0,1286.2H29.9V1029H0v257.2Z" class="g0_22"/>
<image clip-path="url(#c0_22)" preserveAspectRatio="none" x="29" y="1035" width="3" height="26" xlink:href="img/1.jpg"/>
<image clip-path="url(#c1_22)" preserveAspectRatio="none" x="2" y="1035" width="29" height="26" xlink:href="img/2.jpg"/>
<image clip-path="url(#c2_22)" preserveAspectRatio="none" x="4" y="1036" width="24" height="22" xlink:href="img/3.jpg"/>
<image clip-path="url(#c3_22)" preserveAspectRatio="none" x="513" y="22" width="26" height="126" xlink:href="img/4.jpg"/>
<path d="M39,1247.2H308.1V147.2H39v1100Z" class="g1_22"/>
<image clip-path="url(#c4_22)" preserveAspectRatio="none" x="39" y="147" width="269" height="299" xlink:href="img/5.jpg"/>
<path d="M322.2,446.1H870.5V147.2H322.2V446.1Z" class="g2_22"/>
<image clip-path="url(#c5_22)" preserveAspectRatio="none" x="322" y="147" width="438" height="299" xlink:href="img/6.jpg"/>
<image clip-path="url(#c6_22)" preserveAspectRatio="none" x="262" y="446" width="45" height="5" xlink:href="img/7.jpg"/>
<image clip-path="url(#c7_22)" preserveAspectRatio="none" x="263" y="430" width="44" height="16" xlink:href="img/8.jpg"/>
<image clip-path="url(#c8_22)" preserveAspectRatio="none" x="538" y="0" width="333" height="446" xlink:href="img/9.jpg"/>
<image clip-path="url(#c9_22)" preserveAspectRatio="none" x="538" y="1" width="333" height="147" xlink:href="img/10.jpg"/>
<image clip-path="url(#ca_22)" preserveAspectRatio="none" x="538" y="147" width="95" height="100" xlink:href="img/11.jpg"/>
<image clip-path="url(#cb_22)" preserveAspectRatio="none" x="633" y="147" width="95" height="100" xlink:href="img/12.jpg"/>
<image clip-path="url(#cc_22)" preserveAspectRatio="none" x="728" y="147" width="95" height="100" xlink:href="img/13.jpg"/>
<image clip-path="url(#cd_22)" preserveAspectRatio="none" x="823" y="147" width="48" height="200" xlink:href="img/14.jpg"/>
<image clip-path="url(#ce_22)" preserveAspectRatio="none" x="538" y="247" width="95" height="100" xlink:href="img/15.jpg"/>
<image clip-path="url(#cf_22)" preserveAspectRatio="none" x="633" y="247" width="95" height="100" xlink:href="img/16.jpg"/>
<image preserveAspectRatio="none" x="728" y="247" width="95" height="100" xlink:href="img/17.jpg"/>
<image clip-path="url(#cg_22)" preserveAspectRatio="none" x="538" y="346" width="95" height="100" xlink:href="img/18.jpg"/>
<image clip-path="url(#ch_22)" preserveAspectRatio="none" x="633" y="346" width="95" height="100" xlink:href="img/19.jpg"/>
<image clip-path="url(#ci_22)" preserveAspectRatio="none" x="728" y="346" width="95" height="100" xlink:href="img/20.jpg"/>
<image clip-path="url(#cj_22)" preserveAspectRatio="none" x="823" y="346" width="48" height="100" xlink:href="img/21.jpg"/>
<image clip-path="url(#ck_22)" preserveAspectRatio="none" x="759" y="446" width="111" height="2" xlink:href="img/22.jpg"/>
<image clip-path="url(#cl_22)" preserveAspectRatio="none" x="760" y="430" width="109" height="16" xlink:href="img/23.jpg"/>
<path d="M42.8,658.2v0c.4,0,.7,-.3,.7,-.8c0,-.4,-.3,-.7,-.7,-.7c-.4,0,-.8,.3,-.8,.7c0,.5,.4,.8,.8,.8m3,0v0c.4,0,.8,-.3,.8,-.8c0,-.4,-.4,-.7,-.8,-.7c-.4,0,-.7,.3,-.7,.7c0,.5,.3,.8,.7,.8m3.1,0v0c.4,0,.7,-.3,.7,-.8c0,-.4,-.3,-.7,-.7,-.7c-.5,0,-.8,.3,-.8,.7c0,.5,.3,.8,.8,.8m3,0v0c.4,0,.8,-.3,.8,-.8c0,-.4,-.4,-.7,-.8,-.7c-.4,0,-.8,.3,-.8,.7c0,.5,.4,.8,.8,.8m3,0v0c.5,0,.8,-.3,.8,-.8c0,-.4,-.3,-.7,-.8,-.7c-.4,0,-.7,.3,-.7,.7c0,.5,.3,.8,.7,.8m3.1,0v0c.4,0,.8,-.3,.8,-.8c0,-.4,-.4,-.7,-.8,-.7c-.4,0,-.8,.3,-.8,.7c0,.5,.4,.8,.8,.8m3,0v0c.5,0,.8,-.3,.8,-.8c0,-.4,-.3,-.7,-.8,-.7c-.4,0,-.7,.3,-.7,.7c0,.5,.3,.8,.7,.8m3.1,0v0c.4,0,.7,-.3,.7,-.8c0,-.4,-.3,-.7,-.7,-.7c-.5,0,-.8,.3,-.8,.7c0,.5,.3,.8,.8,.8m3,0v0c.4,0,.8,-.3,.8,-.8c0,-.4,-.4,-.7,-.8,-.7c-.4,0,-.8,.3,-.8,.7c0,.5,.4,.8,.8,.8m3.1,0v0c.4,0,.7,-.3,.7,-.8c0,-.4,-.3,-.7,-.7,-.7c-.5,0,-.8,.3,-.8,.7c0,.5,.3,.8,.8,.8m3,0v0c.4,0,.8,-.3,.8,-.8c0,-.4,-.4,-.7,-.8,-.7c-.4,0,-.8,.3,-.8,.7c0,.5,.4,.8,.8,.8m3,0v0c.5,0,.8,-.3,.8,-.8c0,-.4,-.3,-.7,-.8,-.7c-.4,0,-.7,.3,-.7,.7c0,.5,.3,.8,.7,.8m3.1,0v0c.4,0,.7,-.3,.7,-.8c0,-.4,-.3,-.7,-.7,-.7c-.4,0,-.8,.3,-.8,.7c0,.5,.4,.8,.8,.8m3,0v0c.4,0,.8,-.3,.8,-.8c0,-.4,-.4,-.7,-.8,-.7c-.4,0,-.7,.3,-.7,.7c0,.5,.3,.8,.7,.8m3.1,0v0c.4,0,.7,-.3,.7,-.8c0,-.4,-.3,-.7,-.7,-.7c-.5,0,-.8,.3,-.8,.7c0,.5,.3,.8,.8,.8m3,0v0c.4,0,.8,-.3,.8,-.8c0,-.4,-.4,-.7,-.8,-.7c-.4,0,-.8,.3,-.8,.7c0,.5,.4,.8,.8,.8m3,0v0c.5,0,.8,-.3,.8,-.8c0,-.4,-.3,-.7,-.8,-.7c-.4,0,-.7,.3,-.7,.7c0,.5,.3,.8,.7,.8m3.1,0v0c.4,0,.7,-.3,.7,-.8c0,-.4,-.3,-.7,-.7,-.7c-.4,0,-.8,.3,-.8,.7c0,.5,.4,.8,.8,.8m3,0v0c.4,0,.8,-.3,.8,-.8c0,-.4,-.4,-.7,-.8,-.7c-.4,0,-.7,.3,-.7,.7c0,.5,.3,.8,.7,.8m3.1,0v0c.4,0,.7,-.3,.7,-.8c0,-.4,-.3,-.7,-.7,-.7c-.5,0,-.8,.3,-.8,.7c0,.5,.3,.8,.8,.8m3,0v0c.4,0,.8,-.3,.8,-.8c0,-.4,-.4,-.7,-.8,-.7c-.4,0,-.8,.3,-.8,.7c0,.5,.4,.8,.8,.8m3,0v0c.5,0,.8,-.3,.8,-.8c0,-.4,-.3,-.7,-.8,-.7c-.4,0,-.7,.3,-.7,.7c0,.5,.3,.8,.7,.8m3.1,0v0c.4,0,.8,-.3,.8,-.8c0,-.4,-.4,-.7,-.8,-.7c-.4,0,-.8,.3,-.8,.7c0,.5,.4,.8,.8,.8m3,0v0c.5,0,.8,-.3,.8,-.8c0,-.4,-.3,-.7,-.8,-.7c-.4,0,-.7,.3,-.7,.7c0,.5,.3,.8,.7,.8m3.1,0v0c.4,0,.7,-.3,.7,-.8c0,-.4,-.3,-.7,-.7,-.7c-.5,0,-.8,.3,-.8,.7c0,.5,.3,.8,.8,.8m3,0v0c.4,0,.8,-.3,.8,-.8c0,-.4,-.4,-.7,-.8,-.7c-.4,0,-.8,.3,-.8,.7c0,.5,.4,.8,.8,.8m3.1,0v0c.4,0,.7,-.3,.7,-.8c0,-.4,-.3,-.7,-.7,-.7c-.5,0,-.8,.3,-.8,.7c0,.5,.3,.8,.8,.8m3,0v0c.4,0,.8,-.3,.8,-.8c0,-.4,-.4,-.7,-.8,-.7c-.4,0,-.8,.3,-.8,.7c0,.5,.4,.8,.8,.8m3,0v0c.5,0,.8,-.3,.8,-.8c0,-.4,-.3,-.7,-.8,-.7c-.4,0,-.7,.3,-.7,.7c0,.5,.3,.8,.7,.8m3.1,0v0c.4,0,.7,-.3,.7,-.8c0,-.4,-.3,-.7,-.7,-.7c-.4,0,-.8,.3,-.8,.7c0,.5,.4,.8,.8,.8m3,0v0c.4,0,.8,-.3,.8,-.8c0,-.4,-.4,-.7,-.8,-.7c-.4,0,-.7,.3,-.7,.7c0,.5,.3,.8,.7,.8m3.1,0v0c.4,0,.7,-.3,.7,-.8c0,-.4,-.3,-.7,-.7,-.7c-.5,0,-.8,.3,-.8,.7c0,.5,.3,.8,.8,.8m3,0v0c.4,0,.8,-.3,.8,-.8c0,-.4,-.4,-.7,-.8,-.7c-.4,0,-.8,.3,-.8,.7c0,.5,.4,.8,.8,.8m3,0v0c.5,0,.8,-.3,.8,-.8c0,-.4,-.3,-.7,-.8,-.7c-.4,0,-.7,.3,-.7,.7c0,.5,.3,.8,.7,.8m3.1,0v0c.4,0,.7,-.3,.7,-.8c0,-.4,-.3,-.7,-.7,-.7c-.4,0,-.8,.3,-.8,.7c0,.5,.4,.8,.8,.8m3,0v0c.4,0,.8,-.3,.8,-.8c0,-.4,-.4,-.7,-.8,-.7c-.4,0,-.7,.3,-.7,.7c0,.5,.3,.8,.7,.8m3.1,0v0c.4,0,.7,-.3,.7,-.8c0,-.4,-.3,-.7,-.7,-.7c-.5,0,-.8,.3,-.8,.7c0,.5,.3,.8,.8,.8m3,0v0c.4,0,.8,-.3,.8,-.8c0,-.4,-.4,-.7,-.8,-.7c-.4,0,-.8,.3,-.8,.7c0,.5,.4,.8,.8,.8m3,0v0c.5,0,.8,-.3,.8,-.8c0,-.4,-.3,-.7,-.8,-.7c-.4,0,-.7,.3,-.7,.7c0,.5,.3,.8,.7,.8m3.1,0v0c.4,0,.8,-.3,.8,-.8c0,-.4,-.4,-.7,-.8,-.7c-.4,0,-.8,.3,-.8,.7c0,.5,.4,.8,.8,.8m3,0v0c.5,0,.8,-.3,.8,-.8c0,-.4,-.3,-.7,-.8,-.7c-.4,0,-.7,.3,-.7,.7c0,.5,.3,.8,.7,.8m3.1,0v0c.4,0,.7,-.3,.7,-.8c0,-.4,-.3,-.7,-.7,-.7c-.5,0,-.8,.3,-.8,.7c0,.5,.3,.8,.8,.8m3,0v0c.4,0,.8,-.3,.8,-.8c0,-.4,-.4,-.7,-.8,-.7c-.4,0,-.8,.3,-.8,.7c0,.5,.4,.8,.8,.8m3.1,0v0c.4,0,.7,-.3,.7,-.8c0,-.4,-.3,-.7,-.7,-.7c-.5,0,-.8,.3,-.8,.7c0,.5,.3,.8,.8,.8m3,0v0c.4,0,.8,-.3,.8,-.8c0,-.4,-.4,-.7,-.8,-.7c-.4,0,-.8,.3,-.8,.7c0,.5,.4,.8,.8,.8m3,0v0c.5,0,.8,-.3,.8,-.8c0,-.4,-.3,-.7,-.8,-.7c-.4,0,-.7,.3,-.7,.7c0,.5,.3,.8,.7,.8m3.1,0v0c.4,0,.7,-.3,.7,-.8c0,-.4,-.3,-.7,-.7,-.7c-.4,0,-.8,.3,-.8,.7c0,.5,.4,.8,.8,.8m3,0v0c.4,0,.8,-.3,.8,-.8c0,-.4,-.4,-.7,-.8,-.7c-.4,0,-.7,.3,-.7,.7c0,.5,.3,.8,.7,.8m3.1,0v0c.4,0,.7,-.3,.7,-.8c0,-.4,-.3,-.7,-.7,-.7c-.5,0,-.8,.3,-.8,.7c0,.5,.3,.8,.8,.8m3,0v0c.4,0,.8,-.3,.8,-.8c0,-.4,-.4,-.7,-.8,-.7c-.4,0,-.8,.3,-.8,.7c0,.5,.4,.8,.8,.8m3,0v0c.5,0,.8,-.3,.8,-.8c0,-.4,-.3,-.7,-.8,-.7c-.4,0,-.7,.3,-.7,.7c0,.5,.3,.8,.7,.8m3.1,0v0c.4,0,.7,-.3,.7,-.8c0,-.4,-.3,-.7,-.7,-.7c-.4,0,-.8,.3,-.8,.7c0,.5,.4,.8,.8,.8m3,0v0c.4,0,.8,-.3,.8,-.8c0,-.4,-.4,-.7,-.8,-.7c-.4,0,-.7,.3,-.7,.7c0,.5,.3,.8,.7,.8m3.1,0v0c.4,0,.7,-.3,.7,-.8c0,-.4,-.3,-.7,-.7,-.7c-.5,0,-.8,.3,-.8,.7c0,.5,.3,.8,.8,.8m3,0v0c.4,0,.8,-.3,.8,-.8c0,-.4,-.4,-.7,-.8,-.7c-.4,0,-.8,.3,-.8,.7c0,.5,.4,.8,.8,.8m3,0v0c.5,0,.8,-.3,.8,-.8c0,-.4,-.3,-.7,-.8,-.7c-.4,0,-.7,.3,-.7,.7c0,.5,.3,.8,.7,.8m3.1,0v0c.4,0,.8,-.3,.8,-.8c0,-.4,-.4,-.7,-.8,-.7c-.4,0,-.8,.3,-.8,.7c0,.5,.4,.8,.8,.8m3,0v0c.5,0,.8,-.3,.8,-.8c0,-.4,-.3,-.7,-.8,-.7c-.4,0,-.7,.3,-.7,.7c0,.5,.3,.8,.7,.8m3.1,0v0c.4,0,.7,-.3,.7,-.8c0,-.4,-.3,-.7,-.7,-.7c-.5,0,-.8,.3,-.8,.7c0,.5,.3,.8,.8,.8m3,0v0c.4,0,.8,-.3,.8,-.8c0,-.4,-.4,-.7,-.8,-.7c-.4,0,-.8,.3,-.8,.7c0,.5,.4,.8,.8,.8m3.1,0v0c.4,0,.7,-.3,.7,-.8c0,-.4,-.3,-.7,-.7,-.7c-.5,0,-.8,.3,-.8,.7c0,.5,.3,.8,.8,.8m3,0v0c.4,0,.8,-.3,.8,-.8c0,-.4,-.4,-.7,-.8,-.7c-.4,0,-.8,.3,-.8,.7c0,.5,.4,.8,.8,.8m3,0v0c.5,0,.8,-.3,.8,-.8c0,-.4,-.3,-.7,-.8,-.7c-.4,0,-.7,.3,-.7,.7c0,.5,.3,.8,.7,.8m3.1,0v0c.4,0,.7,-.3,.7,-.8c0,-.4,-.3,-.7,-.7,-.7c-.4,0,-.8,.3,-.8,.7c0,.5,.4,.8,.8,.8m3,0v0c.4,0,.8,-.3,.8,-.8c0,-.4,-.4,-.7,-.8,-.7c-.4,0,-.7,.3,-.7,.7c0,.5,.3,.8,.7,.8m3.1,0v0c.4,0,.7,-.3,.7,-.8c0,-.4,-.3,-.7,-.7,-.7c-.5,0,-.8,.3,-.8,.7c0,.5,.3,.8,.8,.8m3,0v0c.4,0,.8,-.3,.8,-.8c0,-.4,-.4,-.7,-.8,-.7c-.4,0,-.8,.3,-.8,.7c0,.5,.4,.8,.8,.8m3,0v0c.5,0,.8,-.3,.8,-.8c0,-.4,-.3,-.7,-.8,-.7c-.4,0,-.7,.3,-.7,.7c0,.5,.3,.8,.7,.8m3.1,0v0c.4,0,.7,-.3,.7,-.8c0,-.4,-.3,-.7,-.7,-.7c-.4,0,-.8,.3,-.8,.7c0,.5,.4,.8,.8,.8m3,0v0c.4,0,.8,-.3,.8,-.8c0,-.4,-.4,-.7,-.8,-.7c-.4,0,-.7,.3,-.7,.7c0,.5,.3,.8,.7,.8m3.1,0v0c.4,0,.7,-.3,.7,-.8c0,-.4,-.3,-.7,-.7,-.7c-.5,0,-.8,.3,-.8,.7c0,.5,.3,.8,.8,.8m3,0v0c.4,0,.8,-.3,.8,-.8c0,-.4,-.4,-.7,-.8,-.7c-.4,0,-.8,.3,-.8,.7c0,.5,.4,.8,.8,.8m3,0v0c.5,0,.8,-.3,.8,-.8c0,-.4,-.3,-.7,-.8,-.7c-.4,0,-.7,.3,-.7,.7c0,.5,.3,.8,.7,.8m3.1,0v0c.4,0,.8,-.3,.8,-.8c0,-.4,-.4,-.7,-.8,-.7c-.4,0,-.8,.3,-.8,.7c0,.5,.4,.8,.8,.8m3,0v0c.5,0,.8,-.3,.8,-.8c0,-.4,-.3,-.7,-.8,-.7c-.4,0,-.7,.3,-.7,.7c0,.5,.3,.8,.7,.8m3.1,0v0c.4,0,.7,-.3,.7,-.8c0,-.4,-.3,-.7,-.7,-.7c-.5,0,-.8,.3,-.8,.7c0,.5,.3,.8,.8,.8m3,0v0c.4,0,.8,-.3,.8,-.8c0,-.4,-.4,-.7,-.8,-.7c-.4,0,-.8,.3,-.8,.7c0,.5,.4,.8,.8,.8m3.1,0v0c.4,0,.7,-.3,.7,-.8c0,-.4,-.3,-.7,-.7,-.7c-.5,0,-.8,.3,-.8,.7c0,.5,.3,.8,.8,.8m3,0v0c.4,0,.8,-.3,.8,-.8c0,-.4,-.4,-.7,-.8,-.7c-.4,0,-.8,.3,-.8,.7c0,.5,.4,.8,.8,.8m3,0v0c.5,0,.8,-.3,.8,-.8c0,-.4,-.3,-.7,-.8,-.7c-.4,0,-.7,.3,-.7,.7c0,.5,.3,.8,.7,.8m3.1,0v0c.4,0,.7,-.3,.7,-.8c0,-.4,-.3,-.7,-.7,-.7c-.4,0,-.8,.3,-.8,.7c0,.5,.4,.8,.8,.8m3,0v0c.4,0,.8,-.3,.8,-.8c0,-.4,-.4,-.7,-.8,-.7c-.4,0,-.7,.3,-.7,.7c0,.5,.3,.8,.7,.8m3.1,0v0c.4,0,.7,-.3,.7,-.8c0,-.4,-.3,-.7,-.7,-.7c-.5,0,-.8,.3,-.8,.7c0,.5,.3,.8,.8,.8m3,0v0c.4,0,.8,-.3,.8,-.8c0,-.4,-.4,-.7,-.8,-.7c-.4,0,-.8,.3,-.8,.7c0,.5,.4,.8,.8,.8m3,0v0c.5,0,.8,-.3,.8,-.8c0,-.4,-.3,-.7,-.8,-.7c-.4,0,-.7,.3,-.7,.7c0,.5,.3,.8,.7,.8m3.1,0v0c.4,0,.7,-.3,.7,-.8c0,-.4,-.3,-.7,-.7,-.7c-.4,0,-.8,.3,-.8,.7c0,.5,.4,.8,.8,.8m3,0v0c.4,0,.8,-.3,.8,-.8c0,-.4,-.4,-.7,-.8,-.7c-.4,0,-.7,.3,-.7,.7c0,.5,.3,.8,.7,.8Z" class="g3_22"/>
<path d="M39.7,658.2c.2,0,.4,-.1,.6,-.2c.1,-.2,.2,-.4,.2,-.6c0,-.2,-.1,-.4,-.2,-.5c-.2,-.1,-.4,-.2,-.6,-.2c-.2,0,-.4,.1,-.5,.2c-.1,.1,-.2,.3,-.2,.5c0,.2,.1,.4,.2,.6c.1,.1,.3,.2,.5,.2m267.7,0c.2,0,.4,-.1,.5,-.2c.1,-.2,.2,-.4,.2,-.6c0,-.2,-.1,-.4,-.2,-.5c-.1,-.1,-.3,-.2,-.5,-.2c-.2,0,-.4,.1,-.6,.2c-.1,.1,-.2,.3,-.2,.5c0,.2,.1,.4,.2,.6c.2,.1,.4,.2,.6,.2Z" class="g3_22"/>
<path d="M39,681H308.1v-1.6H39Z" class="g3_22"/>
<path d="M39,487.1H308.1v-2.3H39Z" class="g3_22"/>
<path d="M69.4,48.9H39.3V79H69.4V48.9Z" class="g4_22"/>
<path d="M279.2,127.9c2.1,0,3.8,-1.7,3.8,-3.7c0,-2.1,-1.7,-3.8,-3.8,-3.8c-2,0,-3.7,1.7,-3.7,3.8c0,2,1.7,3.7,3.7,3.7Z" class="g5_22"/>
<path d="M279.2,127.9v.6c2.4,0,4.4,-2,4.4,-4.3c0,-2.4,-2,-4.4,-4.4,-4.4c-2.4,0,-4.3,2,-4.3,4.4c0,2.3,1.9,4.3,4.3,4.3v-1.1c-1.7,0,-3.2,-1.5,-3.2,-3.2c0,-1.8,1.5,-3.3,3.2,-3.3c1.8,0,3.2,1.5,3.3,3.3c-.1,1.7,-1.5,3.2,-3.3,3.2Z" class="g6_22"/>
<path d="M285.8,125.2h33.8v-1.6H285.8Z" class="g6_22"/>
<path d="M39,849.3H308.3v24.6H39V849.3Zm0,24.6H260.7v110H39v-110Zm221.7,0h47.6v110H260.7v-110Z" class="g6_22"/>
<path d="M40.9,793.4v0c.2,0,.4,-.1,.4,-.3c0,-.3,-.2,-.4,-.4,-.4c-.2,0,-.4,.1,-.4,.4c0,.2,.2,.3,.4,.3m1.5,0v0c.2,0,.4,-.1,.4,-.3c0,-.3,-.2,-.4,-.4,-.4c-.2,0,-.4,.1,-.4,.4c0,.2,.2,.3,.4,.3m1.5,0v0c.2,0,.4,-.1,.4,-.3c0,-.3,-.2,-.4,-.4,-.4c-.2,0,-.3,.1,-.3,.4c0,.2,.1,.3,.3,.3m1.6,0v0c.2,0,.3,-.1,.3,-.3c0,-.3,-.1,-.4,-.3,-.4c-.2,0,-.4,.1,-.4,.4c0,.2,.2,.3,.4,.3m1.5,0v0c.2,0,.4,-.1,.4,-.3c0,-.3,-.2,-.4,-.4,-.4c-.2,0,-.4,.1,-.4,.4c0,.2,.2,.3,.4,.3m1.5,0v0c.2,0,.4,-.1,.4,-.3c0,-.3,-.2,-.4,-.4,-.4c-.2,0,-.4,.1,-.4,.4c0,.2,.2,.3,.4,.3m1.5,0v0c.3,0,.4,-.1,.4,-.3c0,-.3,-.1,-.4,-.4,-.4c-.2,0,-.3,.1,-.3,.4c0,.2,.1,.3,.3,.3m1.6,0v0c.2,0,.4,-.1,.4,-.3c0,-.3,-.2,-.4,-.4,-.4c-.2,0,-.4,.1,-.4,.4c0,.2,.2,.3,.4,.3m1.5,0v0c.2,0,.4,-.1,.4,-.3c0,-.3,-.2,-.4,-.4,-.4c-.2,0,-.4,.1,-.4,.4c0,.2,.2,.3,.4,.3m1.5,0v0c.2,0,.4,-.1,.4,-.3c0,-.3,-.2,-.4,-.4,-.4c-.2,0,-.4,.1,-.4,.4c0,.2,.2,.3,.4,.3m1.6,0v0c.2,0,.3,-.1,.3,-.3c0,-.3,-.1,-.4,-.3,-.4c-.3,0,-.4,.1,-.4,.4c0,.2,.1,.3,.4,.3m1.5,0v0c.2,0,.4,-.1,.4,-.3c0,-.3,-.2,-.4,-.4,-.4c-.2,0,-.4,.1,-.4,.4c0,.2,.2,.3,.4,.3m1.5,0v0c.2,0,.4,-.1,.4,-.3c0,-.3,-.2,-.4,-.4,-.4c-.2,0,-.4,.1,-.4,.4c0,.2,.2,.3,.4,.3m1.5,0v0c.2,0,.4,-.1,.4,-.3c0,-.3,-.2,-.4,-.4,-.4c-.2,0,-.4,.1,-.4,.4c0,.2,.2,.3,.4,.3m1.6,0v0c.2,0,.3,-.1,.3,-.3c0,-.3,-.1,-.4,-.3,-.4c-.3,0,-.4,.1,-.4,.4c0,.2,.1,.3,.4,.3m1.5,0v0c.2,0,.4,-.1,.4,-.3c0,-.3,-.2,-.4,-.4,-.4c-.2,0,-.4,.1,-.4,.4c0,.2,.2,.3,.4,.3m1.5,0v0c.2,0,.4,-.1,.4,-.3c0,-.3,-.2,-.4,-.4,-.4c-.2,0,-.4,.1,-.4,.4c0,.2,.2,.3,.4,.3m1.5,0v0c.2,0,.4,-.1,.4,-.3c0,-.3,-.2,-.4,-.4,-.4c-.2,0,-.3,.1,-.3,.4c0,.2,.1,.3,.3,.3m1.6,0v0c.2,0,.3,-.1,.3,-.3c0,-.3,-.1,-.4,-.3,-.4c-.2,0,-.4,.1,-.4,.4c0,.2,.2,.3,.4,.3m1.5,0v0c.2,0,.4,-.1,.4,-.3c0,-.3,-.2,-.4,-.4,-.4c-.2,0,-.4,.1,-.4,.4c0,.2,.2,.3,.4,.3m1.5,0v0c.2,0,.4,-.1,.4,-.3c0,-.3,-.2,-.4,-.4,-.4c-.2,0,-.4,.1,-.4,.4c0,.2,.2,.3,.4,.3m1.5,0v0c.3,0,.4,-.1,.4,-.3c0,-.3,-.1,-.4,-.4,-.4c-.2,0,-.3,.1,-.3,.4c0,.2,.1,.3,.3,.3m1.6,0v0c.2,0,.4,-.1,.4,-.3c0,-.3,-.2,-.4,-.4,-.4c-.2,0,-.4,.1,-.4,.4c0,.2,.2,.3,.4,.3m1.5,0v0c.2,0,.4,-.1,.4,-.3c0,-.3,-.2,-.4,-.4,-.4c-.2,0,-.4,.1,-.4,.4c0,.2,.2,.3,.4,.3m1.5,0v0c.2,0,.4,-.1,.4,-.3c0,-.3,-.2,-.4,-.4,-.4c-.2,0,-.4,.1,-.4,.4c0,.2,.2,.3,.4,.3m1.5,0v0c.3,0,.4,-.1,.4,-.3c0,-.3,-.1,-.4,-.4,-.4c-.2,0,-.3,.1,-.3,.4c0,.2,.1,.3,.3,.3m1.6,0v0c.2,0,.4,-.1,.4,-.3c0,-.3,-.2,-.4,-.4,-.4c-.2,0,-.4,.1,-.4,.4c0,.2,.2,.3,.4,.3m1.5,0v0c.2,0,.4,-.1,.4,-.3c0,-.3,-.2,-.4,-.4,-.4c-.2,0,-.4,.1,-.4,.4c0,.2,.2,.3,.4,.3m1.5,0v0c.2,0,.4,-.1,.4,-.3c0,-.3,-.2,-.4,-.4,-.4c-.2,0,-.4,.1,-.4,.4c0,.2,.2,.3,.4,.3m1.6,0v0c.2,0,.3,-.1,.3,-.3c0,-.3,-.1,-.4,-.3,-.4c-.3,0,-.4,.1,-.4,.4c0,.2,.1,.3,.4,.3m1.5,0v0c.2,0,.4,-.1,.4,-.3c0,-.3,-.2,-.4,-.4,-.4c-.2,0,-.4,.1,-.4,.4c0,.2,.2,.3,.4,.3m1.5,0v0c.2,0,.4,-.1,.4,-.3c0,-.3,-.2,-.4,-.4,-.4c-.2,0,-.4,.1,-.4,.4c0,.2,.2,.3,.4,.3m1.5,0v0c.2,0,.4,-.1,.4,-.3c0,-.3,-.2,-.4,-.4,-.4c-.2,0,-.3,.1,-.3,.4c0,.2,.1,.3,.3,.3m1.6,0v0c.2,0,.3,-.1,.3,-.3c0,-.3,-.1,-.4,-.3,-.4c-.3,0,-.4,.1,-.4,.4c0,.2,.1,.3,.4,.3m1.5,0v0c.2,0,.4,-.1,.4,-.3c0,-.3,-.2,-.4,-.4,-.4c-.2,0,-.4,.1,-.4,.4c0,.2,.2,.3,.4,.3m1.5,0v0c.2,0,.4,-.1,.4,-.3c0,-.3,-.2,-.4,-.4,-.4c-.2,0,-.4,.1,-.4,.4c0,.2,.2,.3,.4,.3m1.5,0v0c.3,0,.4,-.1,.4,-.3c0,-.3,-.1,-.4,-.4,-.4c-.2,0,-.3,.1,-.3,.4c0,.2,.1,.3,.3,.3m1.6,0v0c.2,0,.3,-.1,.3,-.3c0,-.3,-.1,-.4,-.3,-.4c-.2,0,-.4,.1,-.4,.4c0,.2,.2,.3,.4,.3m1.5,0v0c.2,0,.4,-.1,.4,-.3c0,-.3,-.2,-.4,-.4,-.4c-.2,0,-.4,.1,-.4,.4c0,.2,.2,.3,.4,.3m1.5,0v0c.2,0,.4,-.1,.4,-.3c0,-.3,-.2,-.4,-.4,-.4c-.2,0,-.4,.1,-.4,.4c0,.2,.2,.3,.4,.3m1.5,0v0c.3,0,.4,-.1,.4,-.3c0,-.3,-.1,-.4,-.4,-.4c-.2,0,-.3,.1,-.3,.4c0,.2,.1,.3,.3,.3m1.6,0v0c.2,0,.4,-.1,.4,-.3c0,-.3,-.2,-.4,-.4,-.4c-.2,0,-.4,.1,-.4,.4c0,.2,.2,.3,.4,.3m1.5,0v0c.2,0,.4,-.1,.4,-.3c0,-.3,-.2,-.4,-.4,-.4c-.2,0,-.4,.1,-.4,.4c0,.2,.2,.3,.4,.3m1.5,0v0c.2,0,.4,-.1,.4,-.3c0,-.3,-.2,-.4,-.4,-.4c-.2,0,-.4,.1,-.4,.4c0,.2,.2,.3,.4,.3m1.6,0v0c.2,0,.3,-.1,.3,-.3c0,-.3,-.1,-.4,-.3,-.4c-.3,0,-.4,.1,-.4,.4c0,.2,.1,.3,.4,.3m1.5,0v0c.2,0,.4,-.1,.4,-.3c0,-.3,-.2,-.4,-.4,-.4c-.2,0,-.4,.1,-.4,.4c0,.2,.2,.3,.4,.3m1.5,0v0c.2,0,.4,-.1,.4,-.3c0,-.3,-.2,-.4,-.4,-.4c-.2,0,-.4,.1,-.4,.4c0,.2,.2,.3,.4,.3m1.5,0v0c.2,0,.4,-.1,.4,-.3c0,-.3,-.2,-.4,-.4,-.4c-.2,0,-.3,.1,-.3,.4c0,.2,.1,.3,.3,.3m1.6,0v0c.2,0,.3,-.1,.3,-.3c0,-.3,-.1,-.4,-.3,-.4c-.3,0,-.4,.1,-.4,.4c0,.2,.1,.3,.4,.3m1.5,0v0c.2,0,.4,-.1,.4,-.3c0,-.3,-.2,-.4,-.4,-.4c-.2,0,-.4,.1,-.4,.4c0,.2,.2,.3,.4,.3m1.5,0v0c.2,0,.4,-.1,.4,-.3c0,-.3,-.2,-.4,-.4,-.4c-.2,0,-.4,.1,-.4,.4c0,.2,.2,.3,.4,.3m1.5,0v0c.2,0,.4,-.1,.4,-.3c0,-.3,-.2,-.4,-.4,-.4c-.2,0,-.3,.1,-.3,.4c0,.2,.1,.3,.3,.3m1.6,0v0c.2,0,.3,-.1,.3,-.3c0,-.3,-.1,-.4,-.3,-.4c-.2,0,-.4,.1,-.4,.4c0,.2,.2,.3,.4,.3m1.5,0v0c.2,0,.4,-.1,.4,-.3c0,-.3,-.2,-.4,-.4,-.4c-.2,0,-.4,.1,-.4,.4c0,.2,.2,.3,.4,.3m1.5,0v0c.2,0,.4,-.1,.4,-.3c0,-.3,-.2,-.4,-.4,-.4c-.2,0,-.4,.1,-.4,.4c0,.2,.2,.3,.4,.3m1.5,0v0c.3,0,.4,-.1,.4,-.3c0,-.3,-.1,-.4,-.4,-.4c-.2,0,-.3,.1,-.3,.4c0,.2,.1,.3,.3,.3m1.6,0v0c.2,0,.4,-.1,.4,-.3c0,-.3,-.2,-.4,-.4,-.4c-.2,0,-.4,.1,-.4,.4c0,.2,.2,.3,.4,.3m1.5,0v0c.2,0,.4,-.1,.4,-.3c0,-.3,-.2,-.4,-.4,-.4c-.2,0,-.4,.1,-.4,.4c0,.2,.2,.3,.4,.3m1.5,0v0c.2,0,.4,-.1,.4,-.3c0,-.3,-.2,-.4,-.4,-.4c-.2,0,-.4,.1,-.4,.4c0,.2,.2,.3,.4,.3m1.6,0v0c.2,0,.3,-.1,.3,-.3c0,-.3,-.1,-.4,-.3,-.4c-.3,0,-.4,.1,-.4,.4c0,.2,.1,.3,.4,.3m1.5,0v0c.2,0,.4,-.1,.4,-.3c0,-.3,-.2,-.4,-.4,-.4c-.2,0,-.4,.1,-.4,.4c0,.2,.2,.3,.4,.3m1.5,0v0c.2,0,.4,-.1,.4,-.3c0,-.3,-.2,-.4,-.4,-.4c-.2,0,-.4,.1,-.4,.4c0,.2,.2,.3,.4,.3m1.5,0v0c.2,0,.4,-.1,.4,-.3c0,-.3,-.2,-.4,-.4,-.4c-.2,0,-.4,.1,-.4,.4c0,.2,.2,.3,.4,.3m1.6,0v0c.2,0,.3,-.1,.3,-.3c0,-.3,-.1,-.4,-.3,-.4c-.3,0,-.4,.1,-.4,.4c0,.2,.1,.3,.4,.3m1.5,0v0c.2,0,.4,-.1,.4,-.3c0,-.3,-.2,-.4,-.4,-.4c-.2,0,-.4,.1,-.4,.4c0,.2,.2,.3,.4,.3m1.5,0v0c.2,0,.4,-.1,.4,-.3c0,-.3,-.2,-.4,-.4,-.4c-.2,0,-.4,.1,-.4,.4c0,.2,.2,.3,.4,.3m1.5,0v0c.2,0,.4,-.1,.4,-.3c0,-.3,-.2,-.4,-.4,-.4c-.2,0,-.3,.1,-.3,.4c0,.2,.1,.3,.3,.3m1.6,0v0c.2,0,.3,-.1,.3,-.3c0,-.3,-.1,-.4,-.3,-.4c-.2,0,-.4,.1,-.4,.4c0,.2,.2,.3,.4,.3m1.5,0v0c.2,0,.4,-.1,.4,-.3c0,-.3,-.2,-.4,-.4,-.4c-.2,0,-.4,.1,-.4,.4c0,.2,.2,.3,.4,.3m1.5,0v0c.2,0,.4,-.1,.4,-.3c0,-.3,-.2,-.4,-.4,-.4c-.2,0,-.4,.1,-.4,.4c0,.2,.2,.3,.4,.3m1.5,0v0c.3,0,.4,-.1,.4,-.3c0,-.3,-.1,-.4,-.4,-.4c-.2,0,-.3,.1,-.3,.4c0,.2,.1,.3,.3,.3m1.6,0v0c.2,0,.4,-.1,.4,-.3c0,-.3,-.2,-.4,-.4,-.4c-.2,0,-.4,.1,-.4,.4c0,.2,.2,.3,.4,.3m1.5,0v0c.2,0,.4,-.1,.4,-.3c0,-.3,-.2,-.4,-.4,-.4c-.2,0,-.4,.1,-.4,.4c0,.2,.2,.3,.4,.3m1.5,0v0c.2,0,.4,-.1,.4,-.3c0,-.3,-.2,-.4,-.4,-.4c-.2,0,-.4,.1,-.4,.4c0,.2,.2,.3,.4,.3m1.6,0v0c.2,0,.3,-.1,.3,-.3c0,-.3,-.1,-.4,-.3,-.4c-.3,0,-.4,.1,-.4,.4c0,.2,.1,.3,.4,.3m1.5,0v0c.2,0,.4,-.1,.4,-.3c0,-.3,-.2,-.4,-.4,-.4c-.2,0,-.4,.1,-.4,.4c0,.2,.2,.3,.4,.3m1.5,0v0c.2,0,.4,-.1,.4,-.3c0,-.3,-.2,-.4,-.4,-.4c-.2,0,-.4,.1,-.4,.4c0,.2,.2,.3,.4,.3m1.5,0v0c.2,0,.4,-.1,.4,-.3c0,-.3,-.2,-.4,-.4,-.4c-.2,0,-.4,.1,-.4,.4c0,.2,.2,.3,.4,.3m1.6,0v0c.2,0,.3,-.1,.3,-.3c0,-.3,-.1,-.4,-.3,-.4c-.3,0,-.4,.1,-.4,.4c0,.2,.1,.3,.4,.3m1.5,0v0c.2,0,.4,-.1,.4,-.3c0,-.3,-.2,-.4,-.4,-.4c-.2,0,-.4,.1,-.4,.4c0,.2,.2,.3,.4,.3m1.5,0v0c.2,0,.4,-.1,.4,-.3c0,-.3,-.2,-.4,-.4,-.4c-.2,0,-.4,.1,-.4,.4c0,.2,.2,.3,.4,.3m1.5,0v0c.2,0,.4,-.1,.4,-.3c0,-.3,-.2,-.4,-.4,-.4c-.2,0,-.3,.1,-.3,.4c0,.2,.1,.3,.3,.3m1.6,0v0c.2,0,.3,-.1,.3,-.3c0,-.3,-.1,-.4,-.3,-.4c-.2,0,-.4,.1,-.4,.4c0,.2,.2,.3,.4,.3m1.5,0v0c.2,0,.4,-.1,.4,-.3c0,-.3,-.2,-.4,-.4,-.4c-.2,0,-.4,.1,-.4,.4c0,.2,.2,.3,.4,.3m1.5,0v0c.2,0,.4,-.1,.4,-.3c0,-.3,-.2,-.4,-.4,-.4c-.2,0,-.4,.1,-.4,.4c0,.2,.2,.3,.4,.3m1.5,0v0c.3,0,.4,-.1,.4,-.3c0,-.3,-.1,-.4,-.4,-.4c-.2,0,-.3,.1,-.3,.4c0,.2,.1,.3,.3,.3m1.6,0v0c.2,0,.4,-.1,.4,-.3c0,-.3,-.2,-.4,-.4,-.4c-.2,0,-.4,.1,-.4,.4c0,.2,.2,.3,.4,.3m1.5,0v0c.2,0,.4,-.1,.4,-.3c0,-.3,-.2,-.4,-.4,-.4c-.2,0,-.4,.1,-.4,.4c0,.2,.2,.3,.4,.3m1.5,0v0c.2,0,.4,-.1,.4,-.3c0,-.3,-.2,-.4,-.4,-.4c-.2,0,-.4,.1,-.4,.4c0,.2,.2,.3,.4,.3m1.5,0v0c.3,0,.4,-.1,.4,-.3c0,-.3,-.1,-.4,-.4,-.4c-.2,0,-.3,.1,-.3,.4c0,.2,.1,.3,.3,.3m1.6,0v0c.2,0,.4,-.1,.4,-.3c0,-.3,-.2,-.4,-.4,-.4c-.2,0,-.4,.1,-.4,.4c0,.2,.2,.3,.4,.3m1.5,0v0c.2,0,.4,-.1,.4,-.3c0,-.3,-.2,-.4,-.4,-.4c-.2,0,-.4,.1,-.4,.4c0,.2,.2,.3,.4,.3m1.5,0v0c.2,0,.4,-.1,.4,-.3c0,-.3,-.2,-.4,-.4,-.4c-.2,0,-.4,.1,-.4,.4c0,.2,.2,.3,.4,.3m1.6,0v0c.2,0,.3,-.1,.3,-.3c0,-.3,-.1,-.4,-.3,-.4c-.3,0,-.4,.1,-.4,.4c0,.2,.1,.3,.4,.3m1.5,0v0c.2,0,.4,-.1,.4,-.3c0,-.3,-.2,-.4,-.4,-.4c-.2,0,-.4,.1,-.4,.4c0,.2,.2,.3,.4,.3m1.5,0v0c.2,0,.4,-.1,.4,-.3c0,-.3,-.2,-.4,-.4,-.4c-.2,0,-.4,.1,-.4,.4c0,.2,.2,.3,.4,.3m1.5,0v0c.2,0,.4,-.1,.4,-.3c0,-.3,-.2,-.4,-.4,-.4c-.2,0,-.3,.1,-.3,.4c0,.2,.1,.3,.3,.3m1.6,0v0c.2,0,.3,-.1,.3,-.3c0,-.3,-.1,-.4,-.3,-.4c-.3,0,-.4,.1,-.4,.4c0,.2,.1,.3,.4,.3m1.5,0v0c.2,0,.4,-.1,.4,-.3c0,-.3,-.2,-.4,-.4,-.4c-.2,0,-.4,.1,-.4,.4c0,.2,.2,.3,.4,.3m1.5,0v0c.2,0,.4,-.1,.4,-.3c0,-.3,-.2,-.4,-.4,-.4c-.2,0,-.4,.1,-.4,.4c0,.2,.2,.3,.4,.3m1.5,0v0c.3,0,.4,-.1,.4,-.3c0,-.3,-.1,-.4,-.4,-.4c-.2,0,-.3,.1,-.3,.4c0,.2,.1,.3,.3,.3m1.6,0v0c.2,0,.3,-.1,.3,-.3c0,-.3,-.1,-.4,-.3,-.4c-.2,0,-.4,.1,-.4,.4c0,.2,.2,.3,.4,.3m1.5,0v0c.2,0,.4,-.1,.4,-.3c0,-.3,-.2,-.4,-.4,-.4c-.2,0,-.4,.1,-.4,.4c0,.2,.2,.3,.4,.3m1.5,0v0c.2,0,.4,-.1,.4,-.3c0,-.3,-.2,-.4,-.4,-.4c-.2,0,-.4,.1,-.4,.4c0,.2,.2,.3,.4,.3m1.5,0v0c.3,0,.4,-.1,.4,-.3c0,-.3,-.1,-.4,-.4,-.4c-.2,0,-.3,.1,-.3,.4c0,.2,.1,.3,.3,.3m1.6,0v0c.2,0,.4,-.1,.4,-.3c0,-.3,-.2,-.4,-.4,-.4c-.2,0,-.4,.1,-.4,.4c0,.2,.2,.3,.4,.3m1.5,0v0c.2,0,.4,-.1,.4,-.3c0,-.3,-.2,-.4,-.4,-.4c-.2,0,-.4,.1,-.4,.4c0,.2,.2,.3,.4,.3m1.5,0v0c.2,0,.4,-.1,.4,-.3c0,-.3,-.2,-.4,-.4,-.4c-.2,0,-.4,.1,-.4,.4c0,.2,.2,.3,.4,.3m1.6,0v0c.2,0,.3,-.1,.3,-.3c0,-.3,-.1,-.4,-.3,-.4c-.3,0,-.4,.1,-.4,.4c0,.2,.1,.3,.4,.3m1.5,0v0c.2,0,.4,-.1,.4,-.3c0,-.3,-.2,-.4,-.4,-.4c-.2,0,-.4,.1,-.4,.4c0,.2,.2,.3,.4,.3m1.5,0v0c.2,0,.4,-.1,.4,-.3c0,-.3,-.2,-.4,-.4,-.4c-.2,0,-.4,.1,-.4,.4c0,.2,.2,.3,.4,.3m1.5,0v0c.2,0,.4,-.1,.4,-.3c0,-.3,-.2,-.4,-.4,-.4c-.2,0,-.3,.1,-.3,.4c0,.2,.1,.3,.3,.3m1.6,0v0c.2,0,.3,-.1,.3,-.3c0,-.3,-.1,-.4,-.3,-.4c-.3,0,-.4,.1,-.4,.4c0,.2,.1,.3,.4,.3m1.5,0v0c.2,0,.4,-.1,.4,-.3c0,-.3,-.2,-.4,-.4,-.4c-.2,0,-.4,.1,-.4,.4c0,.2,.2,.3,.4,.3m1.5,0v0c.2,0,.4,-.1,.4,-.3c0,-.3,-.2,-.4,-.4,-.4c-.2,0,-.4,.1,-.4,.4c0,.2,.2,.3,.4,.3m1.5,0v0c.2,0,.4,-.1,.4,-.3c0,-.3,-.2,-.4,-.4,-.4c-.2,0,-.3,.1,-.3,.4c0,.2,.1,.3,.3,.3m1.6,0v0c.2,0,.3,-.1,.3,-.3c0,-.3,-.1,-.4,-.3,-.4c-.2,0,-.4,.1,-.4,.4c0,.2,.2,.3,.4,.3m1.5,0v0c.2,0,.4,-.1,.4,-.3c0,-.3,-.2,-.4,-.4,-.4c-.2,0,-.4,.1,-.4,.4c0,.2,.2,.3,.4,.3m1.5,0v0c.2,0,.4,-.1,.4,-.3c0,-.3,-.2,-.4,-.4,-.4c-.2,0,-.4,.1,-.4,.4c0,.2,.2,.3,.4,.3m1.5,0v0c.3,0,.4,-.1,.4,-.3c0,-.3,-.1,-.4,-.4,-.4c-.2,0,-.3,.1,-.3,.4c0,.2,.1,.3,.3,.3m1.6,0v0c.2,0,.4,-.1,.4,-.3c0,-.3,-.2,-.4,-.4,-.4c-.2,0,-.4,.1,-.4,.4c0,.2,.2,.3,.4,.3m1.5,0v0c.2,0,.4,-.1,.4,-.3c0,-.3,-.2,-.4,-.4,-.4c-.2,0,-.4,.1,-.4,.4c0,.2,.2,.3,.4,.3m1.5,0v0c.2,0,.4,-.1,.4,-.3c0,-.3,-.2,-.4,-.4,-.4c-.2,0,-.4,.1,-.4,.4c0,.2,.2,.3,.4,.3m1.6,0v0c.2,0,.3,-.1,.3,-.3c0,-.3,-.1,-.4,-.3,-.4c-.3,0,-.4,.1,-.4,.4c0,.2,.1,.3,.4,.3m1.5,0v0c.2,0,.4,-.1,.4,-.3c0,-.3,-.2,-.4,-.4,-.4c-.2,0,-.4,.1,-.4,.4c0,.2,.2,.3,.4,.3m1.5,0v0c.2,0,.4,-.1,.4,-.3c0,-.3,-.2,-.4,-.4,-.4c-.2,0,-.4,.1,-.4,.4c0,.2,.2,.3,.4,.3m1.5,0v0c.2,0,.4,-.1,.4,-.3c0,-.3,-.2,-.4,-.4,-.4c-.2,0,-.4,.1,-.4,.4c0,.2,.2,.3,.4,.3m1.6,0v0c.2,0,.3,-.1,.3,-.3c0,-.3,-.1,-.4,-.3,-.4c-.3,0,-.4,.1,-.4,.4c0,.2,.1,.3,.4,.3m1.5,0v0c.2,0,.4,-.1,.4,-.3c0,-.3,-.2,-.4,-.4,-.4c-.2,0,-.4,.1,-.4,.4c0,.2,.2,.3,.4,.3m1.5,0v0c.2,0,.4,-.1,.4,-.3c0,-.3,-.2,-.4,-.4,-.4c-.2,0,-.4,.1,-.4,.4c0,.2,.2,.3,.4,.3m1.5,0v0c.2,0,.4,-.1,.4,-.3c0,-.3,-.2,-.4,-.4,-.4c-.2,0,-.3,.1,-.3,.4c0,.2,.1,.3,.3,.3m1.6,0v0c.2,0,.3,-.1,.3,-.3c0,-.3,-.1,-.4,-.3,-.4c-.2,0,-.4,.1,-.4,.4c0,.2,.2,.3,.4,.3m1.5,0v0c.2,0,.4,-.1,.4,-.3c0,-.3,-.2,-.4,-.4,-.4c-.2,0,-.4,.1,-.4,.4c0,.2,.2,.3,.4,.3m1.5,0v0c.2,0,.4,-.1,.4,-.3c0,-.3,-.2,-.4,-.4,-.4c-.2,0,-.4,.1,-.4,.4c0,.2,.2,.3,.4,.3m1.5,0v0c.3,0,.4,-.1,.4,-.3c0,-.3,-.1,-.4,-.4,-.4c-.2,0,-.3,.1,-.3,.4c0,.2,.1,.3,.3,.3m1.6,0v0c.2,0,.4,-.1,.4,-.3c0,-.3,-.2,-.4,-.4,-.4c-.2,0,-.4,.1,-.4,.4c0,.2,.2,.3,.4,.3m1.5,0v0c.2,0,.4,-.1,.4,-.3c0,-.3,-.2,-.4,-.4,-.4c-.2,0,-.4,.1,-.4,.4c0,.2,.2,.3,.4,.3m1.5,0v0c.2,0,.4,-.1,.4,-.3c0,-.3,-.2,-.4,-.4,-.4c-.2,0,-.4,.1,-.4,.4c0,.2,.2,.3,.4,.3m1.5,0v0c.3,0,.4,-.1,.4,-.3c0,-.3,-.1,-.4,-.4,-.4c-.2,0,-.3,.1,-.3,.4c0,.2,.1,.3,.3,.3m1.6,0v0c.2,0,.4,-.1,.4,-.3c0,-.3,-.2,-.4,-.4,-.4c-.2,0,-.4,.1,-.4,.4c0,.2,.2,.3,.4,.3m1.5,0v0c.2,0,.4,-.1,.4,-.3c0,-.3,-.2,-.4,-.4,-.4c-.2,0,-.4,.1,-.4,.4c0,.2,.2,.3,.4,.3m1.5,0v0c.2,0,.4,-.1,.4,-.3c0,-.3,-.2,-.4,-.4,-.4c-.2,0,-.4,.1,-.4,.4c0,.2,.2,.3,.4,.3m1.6,0v0c.2,0,.3,-.1,.3,-.3c0,-.3,-.1,-.4,-.3,-.4c-.3,0,-.4,.1,-.4,.4c0,.2,.1,.3,.4,.3m1.5,0v0c.2,0,.4,-.1,.4,-.3c0,-.3,-.2,-.4,-.4,-.4c-.2,0,-.4,.1,-.4,.4c0,.2,.2,.3,.4,.3Z" class="g3_22"/>
<path d="M39.4,793.4l.2,-.1l.1,-.2l-.1,-.3l-.2,-.1l-.3,.1l-.1,.3l.1,.2Zm221.3,0l.3,-.1l.1,-.2l-.1,-.3l-.3,-.1l-.3,.1l-.1,.3l.1,.2Z" class="g3_22"/>
<path d="M262.2,793.4v0c.2,0,.4,-.1,.4,-.3c0,-.3,-.2,-.4,-.4,-.4c-.2,0,-.3,.1,-.3,.4c0,.2,.1,.3,.3,.3m1.6,0v0c.2,0,.3,-.1,.3,-.3c0,-.3,-.1,-.4,-.3,-.4c-.3,0,-.4,.1,-.4,.4c0,.2,.1,.3,.4,.3m1.5,0v0c.2,0,.4,-.1,.4,-.3c0,-.3,-.2,-.4,-.4,-.4c-.2,0,-.4,.1,-.4,.4c0,.2,.2,.3,.4,.3m1.5,0v0c.2,0,.4,-.1,.4,-.3c0,-.3,-.2,-.4,-.4,-.4c-.2,0,-.4,.1,-.4,.4c0,.2,.2,.3,.4,.3m1.5,0v0c.2,0,.4,-.1,.4,-.3c0,-.3,-.2,-.4,-.4,-.4c-.2,0,-.4,.1,-.4,.4c0,.2,.2,.3,.4,.3m1.6,0v0c.2,0,.3,-.1,.3,-.3c0,-.3,-.1,-.4,-.3,-.4c-.3,0,-.4,.1,-.4,.4c0,.2,.1,.3,.4,.3m1.5,0v0c.2,0,.4,-.1,.4,-.3c0,-.3,-.2,-.4,-.4,-.4c-.2,0,-.4,.1,-.4,.4c0,.2,.2,.3,.4,.3m1.5,0v0c.2,0,.4,-.1,.4,-.3c0,-.3,-.2,-.4,-.4,-.4c-.2,0,-.4,.1,-.4,.4c0,.2,.2,.3,.4,.3m1.5,0v0c.2,0,.4,-.1,.4,-.3c0,-.3,-.2,-.4,-.4,-.4c-.2,0,-.4,.1,-.4,.4c0,.2,.2,.3,.4,.3m1.6,0v0c.2,0,.3,-.1,.3,-.3c0,-.3,-.1,-.4,-.3,-.4c-.3,0,-.4,.1,-.4,.4c0,.2,.1,.3,.4,.3m1.5,0v0c.2,0,.4,-.1,.4,-.3c0,-.3,-.2,-.4,-.4,-.4c-.2,0,-.4,.1,-.4,.4c0,.2,.2,.3,.4,.3m1.5,0v0c.2,0,.4,-.1,.4,-.3c0,-.3,-.2,-.4,-.4,-.4c-.2,0,-.4,.1,-.4,.4c0,.2,.2,.3,.4,.3m1.5,0v0c.2,0,.4,-.1,.4,-.3c0,-.3,-.2,-.4,-.4,-.4c-.2,0,-.4,.1,-.4,.4c0,.2,.2,.3,.4,.3m1.5,0v0c.3,0,.4,-.1,.4,-.3c0,-.3,-.1,-.4,-.4,-.4c-.2,0,-.3,.1,-.3,.4c0,.2,.1,.3,.3,.3m1.6,0v0c.2,0,.4,-.1,.4,-.3c0,-.3,-.2,-.4,-.4,-.4c-.2,0,-.4,.1,-.4,.4c0,.2,.2,.3,.4,.3m1.5,0v0c.2,0,.4,-.1,.4,-.3c0,-.3,-.2,-.4,-.4,-.4c-.2,0,-.4,.1,-.4,.4c0,.2,.2,.3,.4,.3m1.5,0v0c.2,0,.4,-.1,.4,-.3c0,-.3,-.2,-.4,-.4,-.4c-.2,0,-.4,.1,-.4,.4c0,.2,.2,.3,.4,.3m1.5,0v0c.3,0,.4,-.1,.4,-.3c0,-.3,-.1,-.4,-.4,-.4c-.2,0,-.3,.1,-.3,.4c0,.2,.1,.3,.3,.3m1.6,0v0c.2,0,.4,-.1,.4,-.3c0,-.3,-.2,-.4,-.4,-.4c-.2,0,-.4,.1,-.4,.4c0,.2,.2,.3,.4,.3m1.5,0v0c.2,0,.4,-.1,.4,-.3c0,-.3,-.2,-.4,-.4,-.4c-.2,0,-.4,.1,-.4,.4c0,.2,.2,.3,.4,.3m1.5,0v0c.2,0,.4,-.1,.4,-.3c0,-.3,-.2,-.4,-.4,-.4c-.2,0,-.4,.1,-.4,.4c0,.2,.2,.3,.4,.3m1.5,0v0c.3,0,.4,-.1,.4,-.3c0,-.3,-.1,-.4,-.4,-.4c-.2,0,-.3,.1,-.3,.4c0,.2,.1,.3,.3,.3m1.6,0v0c.2,0,.4,-.1,.4,-.3c0,-.3,-.2,-.4,-.4,-.4c-.2,0,-.4,.1,-.4,.4c0,.2,.2,.3,.4,.3m1.5,0v0c.2,0,.4,-.1,.4,-.3c0,-.3,-.2,-.4,-.4,-.4c-.2,0,-.4,.1,-.4,.4c0,.2,.2,.3,.4,.3m1.5,0v0c.2,0,.4,-.1,.4,-.3c0,-.3,-.2,-.4,-.4,-.4c-.2,0,-.4,.1,-.4,.4c0,.2,.2,.3,.4,.3m1.5,0v0c.3,0,.4,-.1,.4,-.3c0,-.3,-.1,-.4,-.4,-.4c-.2,0,-.3,.1,-.3,.4c0,.2,.1,.3,.3,.3m1.6,0v0c.2,0,.3,-.1,.3,-.3c0,-.3,-.1,-.4,-.3,-.4c-.2,0,-.4,.1,-.4,.4c0,.2,.2,.3,.4,.3m1.5,0v0c.2,0,.4,-.1,.4,-.3c0,-.3,-.2,-.4,-.4,-.4c-.2,0,-.4,.1,-.4,.4c0,.2,.2,.3,.4,.3m1.5,0v0c.2,0,.4,-.1,.4,-.3c0,-.3,-.2,-.4,-.4,-.4c-.2,0,-.4,.1,-.4,.4c0,.2,.2,.3,.4,.3m1.5,0v0c.3,0,.4,-.1,.4,-.3c0,-.3,-.1,-.4,-.4,-.4c-.2,0,-.3,.1,-.3,.4c0,.2,.1,.3,.3,.3Z" class="g3_22"/>
<path d="M260.7,793.4l.3,-.1l.1,-.2l-.1,-.3l-.3,-.1l-.3,.1l-.1,.3l.1,.2Zm47.3,0l.2,-.1l.1,-.2l-.1,-.3l-.2,-.1l-.3,.1l-.1,.3l.1,.2Z" class="g3_22"/>
<path d="M39,758.7H260.7v-2.3H39Z" class="g3_22"/>
<path d="M260.7,758.7h47.6v-2.3H260.7Z" class="g3_22"/>
<path d="M40.9,829v0c.2,0,.4,-.2,.4,-.4c0,-.2,-.2,-.4,-.4,-.4c-.2,0,-.4,.2,-.4,.4c0,.2,.2,.4,.4,.4m1.5,0v0c.2,0,.4,-.2,.4,-.4c0,-.2,-.2,-.4,-.4,-.4c-.2,0,-.4,.2,-.4,.4c0,.2,.2,.4,.4,.4m1.5,0v0c.2,0,.4,-.2,.4,-.4c0,-.2,-.2,-.4,-.4,-.4c-.2,0,-.3,.2,-.3,.4c0,.2,.1,.4,.3,.4m1.6,0v0c.2,0,.3,-.2,.3,-.4c0,-.2,-.1,-.4,-.3,-.4c-.2,0,-.4,.2,-.4,.4c0,.2,.2,.4,.4,.4m1.5,0v0c.2,0,.4,-.2,.4,-.4c0,-.2,-.2,-.4,-.4,-.4c-.2,0,-.4,.2,-.4,.4c0,.2,.2,.4,.4,.4m1.5,0v0c.2,0,.4,-.2,.4,-.4c0,-.2,-.2,-.4,-.4,-.4c-.2,0,-.4,.2,-.4,.4c0,.2,.2,.4,.4,.4m1.5,0v0c.3,0,.4,-.2,.4,-.4c0,-.2,-.1,-.4,-.4,-.4c-.2,0,-.3,.2,-.3,.4c0,.2,.1,.4,.3,.4m1.6,0v0c.2,0,.4,-.2,.4,-.4c0,-.2,-.2,-.4,-.4,-.4c-.2,0,-.4,.2,-.4,.4c0,.2,.2,.4,.4,.4m1.5,0v0c.2,0,.4,-.2,.4,-.4c0,-.2,-.2,-.4,-.4,-.4c-.2,0,-.4,.2,-.4,.4c0,.2,.2,.4,.4,.4m1.5,0v0c.2,0,.4,-.2,.4,-.4c0,-.2,-.2,-.4,-.4,-.4c-.2,0,-.4,.2,-.4,.4c0,.2,.2,.4,.4,.4m1.6,0v0c.2,0,.3,-.2,.3,-.4c0,-.2,-.1,-.4,-.3,-.4c-.3,0,-.4,.2,-.4,.4c0,.2,.1,.4,.4,.4m1.5,0v0c.2,0,.4,-.2,.4,-.4c0,-.2,-.2,-.4,-.4,-.4c-.2,0,-.4,.2,-.4,.4c0,.2,.2,.4,.4,.4m1.5,0v0c.2,0,.4,-.2,.4,-.4c0,-.2,-.2,-.4,-.4,-.4c-.2,0,-.4,.2,-.4,.4c0,.2,.2,.4,.4,.4m1.5,0v0c.2,0,.4,-.2,.4,-.4c0,-.2,-.2,-.4,-.4,-.4c-.2,0,-.4,.2,-.4,.4c0,.2,.2,.4,.4,.4m1.6,0v0c.2,0,.3,-.2,.3,-.4c0,-.2,-.1,-.4,-.3,-.4c-.3,0,-.4,.2,-.4,.4c0,.2,.1,.4,.4,.4m1.5,0v0c.2,0,.4,-.2,.4,-.4c0,-.2,-.2,-.4,-.4,-.4c-.2,0,-.4,.2,-.4,.4c0,.2,.2,.4,.4,.4m1.5,0v0c.2,0,.4,-.2,.4,-.4c0,-.2,-.2,-.4,-.4,-.4c-.2,0,-.4,.2,-.4,.4c0,.2,.2,.4,.4,.4m1.5,0v0c.2,0,.4,-.2,.4,-.4c0,-.2,-.2,-.4,-.4,-.4c-.2,0,-.3,.2,-.3,.4c0,.2,.1,.4,.3,.4m1.6,0v0c.2,0,.3,-.2,.3,-.4c0,-.2,-.1,-.4,-.3,-.4c-.2,0,-.4,.2,-.4,.4c0,.2,.2,.4,.4,.4m1.5,0v0c.2,0,.4,-.2,.4,-.4c0,-.2,-.2,-.4,-.4,-.4c-.2,0,-.4,.2,-.4,.4c0,.2,.2,.4,.4,.4m1.5,0v0c.2,0,.4,-.2,.4,-.4c0,-.2,-.2,-.4,-.4,-.4c-.2,0,-.4,.2,-.4,.4c0,.2,.2,.4,.4,.4m1.5,0v0c.3,0,.4,-.2,.4,-.4c0,-.2,-.1,-.4,-.4,-.4c-.2,0,-.3,.2,-.3,.4c0,.2,.1,.4,.3,.4m1.6,0v0c.2,0,.4,-.2,.4,-.4c0,-.2,-.2,-.4,-.4,-.4c-.2,0,-.4,.2,-.4,.4c0,.2,.2,.4,.4,.4m1.5,0v0c.2,0,.4,-.2,.4,-.4c0,-.2,-.2,-.4,-.4,-.4c-.2,0,-.4,.2,-.4,.4c0,.2,.2,.4,.4,.4m1.5,0v0c.2,0,.4,-.2,.4,-.4c0,-.2,-.2,-.4,-.4,-.4c-.2,0,-.4,.2,-.4,.4c0,.2,.2,.4,.4,.4m1.5,0v0c.3,0,.4,-.2,.4,-.4c0,-.2,-.1,-.4,-.4,-.4c-.2,0,-.3,.2,-.3,.4c0,.2,.1,.4,.3,.4m1.6,0v0c.2,0,.4,-.2,.4,-.4c0,-.2,-.2,-.4,-.4,-.4c-.2,0,-.4,.2,-.4,.4c0,.2,.2,.4,.4,.4m1.5,0v0c.2,0,.4,-.2,.4,-.4c0,-.2,-.2,-.4,-.4,-.4c-.2,0,-.4,.2,-.4,.4c0,.2,.2,.4,.4,.4m1.5,0v0c.2,0,.4,-.2,.4,-.4c0,-.2,-.2,-.4,-.4,-.4c-.2,0,-.4,.2,-.4,.4c0,.2,.2,.4,.4,.4m1.6,0v0c.2,0,.3,-.2,.3,-.4c0,-.2,-.1,-.4,-.3,-.4c-.3,0,-.4,.2,-.4,.4c0,.2,.1,.4,.4,.4m1.5,0v0c.2,0,.4,-.2,.4,-.4c0,-.2,-.2,-.4,-.4,-.4c-.2,0,-.4,.2,-.4,.4c0,.2,.2,.4,.4,.4m1.5,0v0c.2,0,.4,-.2,.4,-.4c0,-.2,-.2,-.4,-.4,-.4c-.2,0,-.4,.2,-.4,.4c0,.2,.2,.4,.4,.4m1.5,0v0c.2,0,.4,-.2,.4,-.4c0,-.2,-.2,-.4,-.4,-.4c-.2,0,-.3,.2,-.3,.4c0,.2,.1,.4,.3,.4m1.6,0v0c.2,0,.3,-.2,.3,-.4c0,-.2,-.1,-.4,-.3,-.4c-.3,0,-.4,.2,-.4,.4c0,.2,.1,.4,.4,.4m1.5,0v0c.2,0,.4,-.2,.4,-.4c0,-.2,-.2,-.4,-.4,-.4c-.2,0,-.4,.2,-.4,.4c0,.2,.2,.4,.4,.4m1.5,0v0c.2,0,.4,-.2,.4,-.4c0,-.2,-.2,-.4,-.4,-.4c-.2,0,-.4,.2,-.4,.4c0,.2,.2,.4,.4,.4m1.5,0v0c.3,0,.4,-.2,.4,-.4c0,-.2,-.1,-.4,-.4,-.4c-.2,0,-.3,.2,-.3,.4c0,.2,.1,.4,.3,.4m1.6,0v0c.2,0,.3,-.2,.3,-.4c0,-.2,-.1,-.4,-.3,-.4c-.2,0,-.4,.2,-.4,.4c0,.2,.2,.4,.4,.4m1.5,0v0c.2,0,.4,-.2,.4,-.4c0,-.2,-.2,-.4,-.4,-.4c-.2,0,-.4,.2,-.4,.4c0,.2,.2,.4,.4,.4m1.5,0v0c.2,0,.4,-.2,.4,-.4c0,-.2,-.2,-.4,-.4,-.4c-.2,0,-.4,.2,-.4,.4c0,.2,.2,.4,.4,.4m1.5,0v0c.3,0,.4,-.2,.4,-.4c0,-.2,-.1,-.4,-.4,-.4c-.2,0,-.3,.2,-.3,.4c0,.2,.1,.4,.3,.4m1.6,0v0c.2,0,.4,-.2,.4,-.4c0,-.2,-.2,-.4,-.4,-.4c-.2,0,-.4,.2,-.4,.4c0,.2,.2,.4,.4,.4m1.5,0v0c.2,0,.4,-.2,.4,-.4c0,-.2,-.2,-.4,-.4,-.4c-.2,0,-.4,.2,-.4,.4c0,.2,.2,.4,.4,.4m1.5,0v0c.2,0,.4,-.2,.4,-.4c0,-.2,-.2,-.4,-.4,-.4c-.2,0,-.4,.2,-.4,.4c0,.2,.2,.4,.4,.4m1.6,0v0c.2,0,.3,-.2,.3,-.4c0,-.2,-.1,-.4,-.3,-.4c-.3,0,-.4,.2,-.4,.4c0,.2,.1,.4,.4,.4m1.5,0v0c.2,0,.4,-.2,.4,-.4c0,-.2,-.2,-.4,-.4,-.4c-.2,0,-.4,.2,-.4,.4c0,.2,.2,.4,.4,.4m1.5,0v0c.2,0,.4,-.2,.4,-.4c0,-.2,-.2,-.4,-.4,-.4c-.2,0,-.4,.2,-.4,.4c0,.2,.2,.4,.4,.4m1.5,0v0c.2,0,.4,-.2,.4,-.4c0,-.2,-.2,-.4,-.4,-.4c-.2,0,-.3,.2,-.3,.4c0,.2,.1,.4,.3,.4m1.6,0v0c.2,0,.3,-.2,.3,-.4c0,-.2,-.1,-.4,-.3,-.4c-.3,0,-.4,.2,-.4,.4c0,.2,.1,.4,.4,.4m1.5,0v0c.2,0,.4,-.2,.4,-.4c0,-.2,-.2,-.4,-.4,-.4c-.2,0,-.4,.2,-.4,.4c0,.2,.2,.4,.4,.4m1.5,0v0c.2,0,.4,-.2,.4,-.4c0,-.2,-.2,-.4,-.4,-.4c-.2,0,-.4,.2,-.4,.4c0,.2,.2,.4,.4,.4m1.5,0v0c.2,0,.4,-.2,.4,-.4c0,-.2,-.2,-.4,-.4,-.4c-.2,0,-.3,.2,-.3,.4c0,.2,.1,.4,.3,.4m1.6,0v0c.2,0,.3,-.2,.3,-.4c0,-.2,-.1,-.4,-.3,-.4c-.2,0,-.4,.2,-.4,.4c0,.2,.2,.4,.4,.4m1.5,0v0c.2,0,.4,-.2,.4,-.4c0,-.2,-.2,-.4,-.4,-.4c-.2,0,-.4,.2,-.4,.4c0,.2,.2,.4,.4,.4m1.5,0v0c.2,0,.4,-.2,.4,-.4c0,-.2,-.2,-.4,-.4,-.4c-.2,0,-.4,.2,-.4,.4c0,.2,.2,.4,.4,.4m1.5,0v0c.3,0,.4,-.2,.4,-.4c0,-.2,-.1,-.4,-.4,-.4c-.2,0,-.3,.2,-.3,.4c0,.2,.1,.4,.3,.4m1.6,0v0c.2,0,.4,-.2,.4,-.4c0,-.2,-.2,-.4,-.4,-.4c-.2,0,-.4,.2,-.4,.4c0,.2,.2,.4,.4,.4m1.5,0v0c.2,0,.4,-.2,.4,-.4c0,-.2,-.2,-.4,-.4,-.4c-.2,0,-.4,.2,-.4,.4c0,.2,.2,.4,.4,.4m1.5,0v0c.2,0,.4,-.2,.4,-.4c0,-.2,-.2,-.4,-.4,-.4c-.2,0,-.4,.2,-.4,.4c0,.2,.2,.4,.4,.4m1.6,0v0c.2,0,.3,-.2,.3,-.4c0,-.2,-.1,-.4,-.3,-.4c-.3,0,-.4,.2,-.4,.4c0,.2,.1,.4,.4,.4m1.5,0v0c.2,0,.4,-.2,.4,-.4c0,-.2,-.2,-.4,-.4,-.4c-.2,0,-.4,.2,-.4,.4c0,.2,.2,.4,.4,.4m1.5,0v0c.2,0,.4,-.2,.4,-.4c0,-.2,-.2,-.4,-.4,-.4c-.2,0,-.4,.2,-.4,.4c0,.2,.2,.4,.4,.4m1.5,0v0c.2,0,.4,-.2,.4,-.4c0,-.2,-.2,-.4,-.4,-.4c-.2,0,-.4,.2,-.4,.4c0,.2,.2,.4,.4,.4m1.6,0v0c.2,0,.3,-.2,.3,-.4c0,-.2,-.1,-.4,-.3,-.4c-.3,0,-.4,.2,-.4,.4c0,.2,.1,.4,.4,.4m1.5,0v0c.2,0,.4,-.2,.4,-.4c0,-.2,-.2,-.4,-.4,-.4c-.2,0,-.4,.2,-.4,.4c0,.2,.2,.4,.4,.4m1.5,0v0c.2,0,.4,-.2,.4,-.4c0,-.2,-.2,-.4,-.4,-.4c-.2,0,-.4,.2,-.4,.4c0,.2,.2,.4,.4,.4m1.5,0v0c.2,0,.4,-.2,.4,-.4c0,-.2,-.2,-.4,-.4,-.4c-.2,0,-.3,.2,-.3,.4c0,.2,.1,.4,.3,.4m1.6,0v0c.2,0,.3,-.2,.3,-.4c0,-.2,-.1,-.4,-.3,-.4c-.2,0,-.4,.2,-.4,.4c0,.2,.2,.4,.4,.4m1.5,0v0c.2,0,.4,-.2,.4,-.4c0,-.2,-.2,-.4,-.4,-.4c-.2,0,-.4,.2,-.4,.4c0,.2,.2,.4,.4,.4m1.5,0v0c.2,0,.4,-.2,.4,-.4c0,-.2,-.2,-.4,-.4,-.4c-.2,0,-.4,.2,-.4,.4c0,.2,.2,.4,.4,.4m1.5,0v0c.3,0,.4,-.2,.4,-.4c0,-.2,-.1,-.4,-.4,-.4c-.2,0,-.3,.2,-.3,.4c0,.2,.1,.4,.3,.4m1.6,0v0c.2,0,.4,-.2,.4,-.4c0,-.2,-.2,-.4,-.4,-.4c-.2,0,-.4,.2,-.4,.4c0,.2,.2,.4,.4,.4m1.5,0v0c.2,0,.4,-.2,.4,-.4c0,-.2,-.2,-.4,-.4,-.4c-.2,0,-.4,.2,-.4,.4c0,.2,.2,.4,.4,.4m1.5,0v0c.2,0,.4,-.2,.4,-.4c0,-.2,-.2,-.4,-.4,-.4c-.2,0,-.4,.2,-.4,.4c0,.2,.2,.4,.4,.4m1.6,0v0c.2,0,.3,-.2,.3,-.4c0,-.2,-.1,-.4,-.3,-.4c-.3,0,-.4,.2,-.4,.4c0,.2,.1,.4,.4,.4m1.5,0v0c.2,0,.4,-.2,.4,-.4c0,-.2,-.2,-.4,-.4,-.4c-.2,0,-.4,.2,-.4,.4c0,.2,.2,.4,.4,.4m1.5,0v0c.2,0,.4,-.2,.4,-.4c0,-.2,-.2,-.4,-.4,-.4c-.2,0,-.4,.2,-.4,.4c0,.2,.2,.4,.4,.4m1.5,0v0c.2,0,.4,-.2,.4,-.4c0,-.2,-.2,-.4,-.4,-.4c-.2,0,-.4,.2,-.4,.4c0,.2,.2,.4,.4,.4m1.6,0v0c.2,0,.3,-.2,.3,-.4c0,-.2,-.1,-.4,-.3,-.4c-.3,0,-.4,.2,-.4,.4c0,.2,.1,.4,.4,.4m1.5,0v0c.2,0,.4,-.2,.4,-.4c0,-.2,-.2,-.4,-.4,-.4c-.2,0,-.4,.2,-.4,.4c0,.2,.2,.4,.4,.4m1.5,0v0c.2,0,.4,-.2,.4,-.4c0,-.2,-.2,-.4,-.4,-.4c-.2,0,-.4,.2,-.4,.4c0,.2,.2,.4,.4,.4m1.5,0v0c.2,0,.4,-.2,.4,-.4c0,-.2,-.2,-.4,-.4,-.4c-.2,0,-.3,.2,-.3,.4c0,.2,.1,.4,.3,.4m1.6,0v0c.2,0,.3,-.2,.3,-.4c0,-.2,-.1,-.4,-.3,-.4c-.2,0,-.4,.2,-.4,.4c0,.2,.2,.4,.4,.4m1.5,0v0c.2,0,.4,-.2,.4,-.4c0,-.2,-.2,-.4,-.4,-.4c-.2,0,-.4,.2,-.4,.4c0,.2,.2,.4,.4,.4m1.5,0v0c.2,0,.4,-.2,.4,-.4c0,-.2,-.2,-.4,-.4,-.4c-.2,0,-.4,.2,-.4,.4c0,.2,.2,.4,.4,.4m1.5,0v0c.3,0,.4,-.2,.4,-.4c0,-.2,-.1,-.4,-.4,-.4c-.2,0,-.3,.2,-.3,.4c0,.2,.1,.4,.3,.4m1.6,0v0c.2,0,.4,-.2,.4,-.4c0,-.2,-.2,-.4,-.4,-.4c-.2,0,-.4,.2,-.4,.4c0,.2,.2,.4,.4,.4m1.5,0v0c.2,0,.4,-.2,.4,-.4c0,-.2,-.2,-.4,-.4,-.4c-.2,0,-.4,.2,-.4,.4c0,.2,.2,.4,.4,.4m1.5,0v0c.2,0,.4,-.2,.4,-.4c0,-.2,-.2,-.4,-.4,-.4c-.2,0,-.4,.2,-.4,.4c0,.2,.2,.4,.4,.4m1.5,0v0c.3,0,.4,-.2,.4,-.4c0,-.2,-.1,-.4,-.4,-.4c-.2,0,-.3,.2,-.3,.4c0,.2,.1,.4,.3,.4m1.6,0v0c.2,0,.4,-.2,.4,-.4c0,-.2,-.2,-.4,-.4,-.4c-.2,0,-.4,.2,-.4,.4c0,.2,.2,.4,.4,.4m1.5,0v0c.2,0,.4,-.2,.4,-.4c0,-.2,-.2,-.4,-.4,-.4c-.2,0,-.4,.2,-.4,.4c0,.2,.2,.4,.4,.4m1.5,0v0c.2,0,.4,-.2,.4,-.4c0,-.2,-.2,-.4,-.4,-.4c-.2,0,-.4,.2,-.4,.4c0,.2,.2,.4,.4,.4m1.6,0v0c.2,0,.3,-.2,.3,-.4c0,-.2,-.1,-.4,-.3,-.4c-.3,0,-.4,.2,-.4,.4c0,.2,.1,.4,.4,.4m1.5,0v0c.2,0,.4,-.2,.4,-.4c0,-.2,-.2,-.4,-.4,-.4c-.2,0,-.4,.2,-.4,.4c0,.2,.2,.4,.4,.4m1.5,0v0c.2,0,.4,-.2,.4,-.4c0,-.2,-.2,-.4,-.4,-.4c-.2,0,-.4,.2,-.4,.4c0,.2,.2,.4,.4,.4m1.5,0v0c.2,0,.4,-.2,.4,-.4c0,-.2,-.2,-.4,-.4,-.4c-.2,0,-.3,.2,-.3,.4c0,.2,.1,.4,.3,.4m1.6,0v0c.2,0,.3,-.2,.3,-.4c0,-.2,-.1,-.4,-.3,-.4c-.3,0,-.4,.2,-.4,.4c0,.2,.1,.4,.4,.4m1.5,0v0c.2,0,.4,-.2,.4,-.4c0,-.2,-.2,-.4,-.4,-.4c-.2,0,-.4,.2,-.4,.4c0,.2,.2,.4,.4,.4m1.5,0v0c.2,0,.4,-.2,.4,-.4c0,-.2,-.2,-.4,-.4,-.4c-.2,0,-.4,.2,-.4,.4c0,.2,.2,.4,.4,.4m1.5,0v0c.3,0,.4,-.2,.4,-.4c0,-.2,-.1,-.4,-.4,-.4c-.2,0,-.3,.2,-.3,.4c0,.2,.1,.4,.3,.4m1.6,0v0c.2,0,.3,-.2,.3,-.4c0,-.2,-.1,-.4,-.3,-.4c-.2,0,-.4,.2,-.4,.4c0,.2,.2,.4,.4,.4m1.5,0v0c.2,0,.4,-.2,.4,-.4c0,-.2,-.2,-.4,-.4,-.4c-.2,0,-.4,.2,-.4,.4c0,.2,.2,.4,.4,.4m1.5,0v0c.2,0,.4,-.2,.4,-.4c0,-.2,-.2,-.4,-.4,-.4c-.2,0,-.4,.2,-.4,.4c0,.2,.2,.4,.4,.4m1.5,0v0c.3,0,.4,-.2,.4,-.4c0,-.2,-.1,-.4,-.4,-.4c-.2,0,-.3,.2,-.3,.4c0,.2,.1,.4,.3,.4m1.6,0v0c.2,0,.4,-.2,.4,-.4c0,-.2,-.2,-.4,-.4,-.4c-.2,0,-.4,.2,-.4,.4c0,.2,.2,.4,.4,.4m1.5,0v0c.2,0,.4,-.2,.4,-.4c0,-.2,-.2,-.4,-.4,-.4c-.2,0,-.4,.2,-.4,.4c0,.2,.2,.4,.4,.4m1.5,0v0c.2,0,.4,-.2,.4,-.4c0,-.2,-.2,-.4,-.4,-.4c-.2,0,-.4,.2,-.4,.4c0,.2,.2,.4,.4,.4m1.6,0v0c.2,0,.3,-.2,.3,-.4c0,-.2,-.1,-.4,-.3,-.4c-.3,0,-.4,.2,-.4,.4c0,.2,.1,.4,.4,.4m1.5,0v0c.2,0,.4,-.2,.4,-.4c0,-.2,-.2,-.4,-.4,-.4c-.2,0,-.4,.2,-.4,.4c0,.2,.2,.4,.4,.4m1.5,0v0c.2,0,.4,-.2,.4,-.4c0,-.2,-.2,-.4,-.4,-.4c-.2,0,-.4,.2,-.4,.4c0,.2,.2,.4,.4,.4m1.5,0v0c.2,0,.4,-.2,.4,-.4c0,-.2,-.2,-.4,-.4,-.4c-.2,0,-.3,.2,-.3,.4c0,.2,.1,.4,.3,.4m1.6,0v0c.2,0,.3,-.2,.3,-.4c0,-.2,-.1,-.4,-.3,-.4c-.3,0,-.4,.2,-.4,.4c0,.2,.1,.4,.4,.4m1.5,0v0c.2,0,.4,-.2,.4,-.4c0,-.2,-.2,-.4,-.4,-.4c-.2,0,-.4,.2,-.4,.4c0,.2,.2,.4,.4,.4m1.5,0v0c.2,0,.4,-.2,.4,-.4c0,-.2,-.2,-.4,-.4,-.4c-.2,0,-.4,.2,-.4,.4c0,.2,.2,.4,.4,.4m1.5,0v0c.2,0,.4,-.2,.4,-.4c0,-.2,-.2,-.4,-.4,-.4c-.2,0,-.3,.2,-.3,.4c0,.2,.1,.4,.3,.4m1.6,0v0c.2,0,.3,-.2,.3,-.4c0,-.2,-.1,-.4,-.3,-.4c-.2,0,-.4,.2,-.4,.4c0,.2,.2,.4,.4,.4m1.5,0v0c.2,0,.4,-.2,.4,-.4c0,-.2,-.2,-.4,-.4,-.4c-.2,0,-.4,.2,-.4,.4c0,.2,.2,.4,.4,.4m1.5,0v0c.2,0,.4,-.2,.4,-.4c0,-.2,-.2,-.4,-.4,-.4c-.2,0,-.4,.2,-.4,.4c0,.2,.2,.4,.4,.4m1.5,0v0c.3,0,.4,-.2,.4,-.4c0,-.2,-.1,-.4,-.4,-.4c-.2,0,-.3,.2,-.3,.4c0,.2,.1,.4,.3,.4m1.6,0v0c.2,0,.4,-.2,.4,-.4c0,-.2,-.2,-.4,-.4,-.4c-.2,0,-.4,.2,-.4,.4c0,.2,.2,.4,.4,.4m1.5,0v0c.2,0,.4,-.2,.4,-.4c0,-.2,-.2,-.4,-.4,-.4c-.2,0,-.4,.2,-.4,.4c0,.2,.2,.4,.4,.4m1.5,0v0c.2,0,.4,-.2,.4,-.4c0,-.2,-.2,-.4,-.4,-.4c-.2,0,-.4,.2,-.4,.4c0,.2,.2,.4,.4,.4m1.6,0v0c.2,0,.3,-.2,.3,-.4c0,-.2,-.1,-.4,-.3,-.4c-.3,0,-.4,.2,-.4,.4c0,.2,.1,.4,.4,.4m1.5,0v0c.2,0,.4,-.2,.4,-.4c0,-.2,-.2,-.4,-.4,-.4c-.2,0,-.4,.2,-.4,.4c0,.2,.2,.4,.4,.4m1.5,0v0c.2,0,.4,-.2,.4,-.4c0,-.2,-.2,-.4,-.4,-.4c-.2,0,-.4,.2,-.4,.4c0,.2,.2,.4,.4,.4m1.5,0v0c.2,0,.4,-.2,.4,-.4c0,-.2,-.2,-.4,-.4,-.4c-.2,0,-.4,.2,-.4,.4c0,.2,.2,.4,.4,.4m1.6,0v0c.2,0,.3,-.2,.3,-.4c0,-.2,-.1,-.4,-.3,-.4c-.3,0,-.4,.2,-.4,.4c0,.2,.1,.4,.4,.4m1.5,0v0c.2,0,.4,-.2,.4,-.4c0,-.2,-.2,-.4,-.4,-.4c-.2,0,-.4,.2,-.4,.4c0,.2,.2,.4,.4,.4m1.5,0v0c.2,0,.4,-.2,.4,-.4c0,-.2,-.2,-.4,-.4,-.4c-.2,0,-.4,.2,-.4,.4c0,.2,.2,.4,.4,.4m1.5,0v0c.2,0,.4,-.2,.4,-.4c0,-.2,-.2,-.4,-.4,-.4c-.2,0,-.3,.2,-.3,.4c0,.2,.1,.4,.3,.4m1.6,0v0c.2,0,.3,-.2,.3,-.4c0,-.2,-.1,-.4,-.3,-.4c-.2,0,-.4,.2,-.4,.4c0,.2,.2,.4,.4,.4m1.5,0v0c.2,0,.4,-.2,.4,-.4c0,-.2,-.2,-.4,-.4,-.4c-.2,0,-.4,.2,-.4,.4c0,.2,.2,.4,.4,.4m1.5,0v0c.2,0,.4,-.2,.4,-.4c0,-.2,-.2,-.4,-.4,-.4c-.2,0,-.4,.2,-.4,.4c0,.2,.2,.4,.4,.4m1.5,0v0c.3,0,.4,-.2,.4,-.4c0,-.2,-.1,-.4,-.4,-.4c-.2,0,-.3,.2,-.3,.4c0,.2,.1,.4,.3,.4m1.6,0v0c.2,0,.4,-.2,.4,-.4c0,-.2,-.2,-.4,-.4,-.4c-.2,0,-.4,.2,-.4,.4c0,.2,.2,.4,.4,.4m1.5,0v0c.2,0,.4,-.2,.4,-.4c0,-.2,-.2,-.4,-.4,-.4c-.2,0,-.4,.2,-.4,.4c0,.2,.2,.4,.4,.4m1.5,0v0c.2,0,.4,-.2,.4,-.4c0,-.2,-.2,-.4,-.4,-.4c-.2,0,-.4,.2,-.4,.4c0,.2,.2,.4,.4,.4m1.5,0v0c.3,0,.4,-.2,.4,-.4c0,-.2,-.1,-.4,-.4,-.4c-.2,0,-.3,.2,-.3,.4c0,.2,.1,.4,.3,.4m1.6,0v0c.2,0,.4,-.2,.4,-.4c0,-.2,-.2,-.4,-.4,-.4c-.2,0,-.4,.2,-.4,.4c0,.2,.2,.4,.4,.4m1.5,0v0c.2,0,.4,-.2,.4,-.4c0,-.2,-.2,-.4,-.4,-.4c-.2,0,-.4,.2,-.4,.4c0,.2,.2,.4,.4,.4m1.5,0v0c.2,0,.4,-.2,.4,-.4c0,-.2,-.2,-.4,-.4,-.4c-.2,0,-.4,.2,-.4,.4c0,.2,.2,.4,.4,.4m1.6,0v0c.2,0,.3,-.2,.3,-.4c0,-.2,-.1,-.4,-.3,-.4c-.3,0,-.4,.2,-.4,.4c0,.2,.1,.4,.4,.4m1.5,0v0c.2,0,.4,-.2,.4,-.4c0,-.2,-.2,-.4,-.4,-.4c-.2,0,-.4,.2,-.4,.4c0,.2,.2,.4,.4,.4Z" class="g3_22"/>
<path d="M39.4,829l.2,-.1l.1,-.3l-.1,-.3l-.2,-.1l-.3,.1l-.1,.3l.1,.3Zm221.3,0l.3,-.1l.1,-.3l-.1,-.3l-.3,-.1l-.3,.1l-.1,.3l.1,.3Z" class="g3_22"/>
<path d="M262.2,829v0c.2,0,.4,-.2,.4,-.4c0,-.2,-.2,-.4,-.4,-.4c-.2,0,-.3,.2,-.3,.4c0,.2,.1,.4,.3,.4m1.6,0v0c.2,0,.3,-.2,.3,-.4c0,-.2,-.1,-.4,-.3,-.4c-.3,0,-.4,.2,-.4,.4c0,.2,.1,.4,.4,.4m1.5,0v0c.2,0,.4,-.2,.4,-.4c0,-.2,-.2,-.4,-.4,-.4c-.2,0,-.4,.2,-.4,.4c0,.2,.2,.4,.4,.4m1.5,0v0c.2,0,.4,-.2,.4,-.4c0,-.2,-.2,-.4,-.4,-.4c-.2,0,-.4,.2,-.4,.4c0,.2,.2,.4,.4,.4m1.5,0v0c.2,0,.4,-.2,.4,-.4c0,-.2,-.2,-.4,-.4,-.4c-.2,0,-.4,.2,-.4,.4c0,.2,.2,.4,.4,.4m1.6,0v0c.2,0,.3,-.2,.3,-.4c0,-.2,-.1,-.4,-.3,-.4c-.3,0,-.4,.2,-.4,.4c0,.2,.1,.4,.4,.4m1.5,0v0c.2,0,.4,-.2,.4,-.4c0,-.2,-.2,-.4,-.4,-.4c-.2,0,-.4,.2,-.4,.4c0,.2,.2,.4,.4,.4m1.5,0v0c.2,0,.4,-.2,.4,-.4c0,-.2,-.2,-.4,-.4,-.4c-.2,0,-.4,.2,-.4,.4c0,.2,.2,.4,.4,.4m1.5,0v0c.2,0,.4,-.2,.4,-.4c0,-.2,-.2,-.4,-.4,-.4c-.2,0,-.4,.2,-.4,.4c0,.2,.2,.4,.4,.4m1.6,0v0c.2,0,.3,-.2,.3,-.4c0,-.2,-.1,-.4,-.3,-.4c-.3,0,-.4,.2,-.4,.4c0,.2,.1,.4,.4,.4m1.5,0v0c.2,0,.4,-.2,.4,-.4c0,-.2,-.2,-.4,-.4,-.4c-.2,0,-.4,.2,-.4,.4c0,.2,.2,.4,.4,.4m1.5,0v0c.2,0,.4,-.2,.4,-.4c0,-.2,-.2,-.4,-.4,-.4c-.2,0,-.4,.2,-.4,.4c0,.2,.2,.4,.4,.4m1.5,0v0c.2,0,.4,-.2,.4,-.4c0,-.2,-.2,-.4,-.4,-.4c-.2,0,-.4,.2,-.4,.4c0,.2,.2,.4,.4,.4m1.5,0v0c.3,0,.4,-.2,.4,-.4c0,-.2,-.1,-.4,-.4,-.4c-.2,0,-.3,.2,-.3,.4c0,.2,.1,.4,.3,.4m1.6,0v0c.2,0,.4,-.2,.4,-.4c0,-.2,-.2,-.4,-.4,-.4c-.2,0,-.4,.2,-.4,.4c0,.2,.2,.4,.4,.4m1.5,0v0c.2,0,.4,-.2,.4,-.4c0,-.2,-.2,-.4,-.4,-.4c-.2,0,-.4,.2,-.4,.4c0,.2,.2,.4,.4,.4m1.5,0v0c.2,0,.4,-.2,.4,-.4c0,-.2,-.2,-.4,-.4,-.4c-.2,0,-.4,.2,-.4,.4c0,.2,.2,.4,.4,.4m1.5,0v0c.3,0,.4,-.2,.4,-.4c0,-.2,-.1,-.4,-.4,-.4c-.2,0,-.3,.2,-.3,.4c0,.2,.1,.4,.3,.4m1.6,0v0c.2,0,.4,-.2,.4,-.4c0,-.2,-.2,-.4,-.4,-.4c-.2,0,-.4,.2,-.4,.4c0,.2,.2,.4,.4,.4m1.5,0v0c.2,0,.4,-.2,.4,-.4c0,-.2,-.2,-.4,-.4,-.4c-.2,0,-.4,.2,-.4,.4c0,.2,.2,.4,.4,.4m1.5,0v0c.2,0,.4,-.2,.4,-.4c0,-.2,-.2,-.4,-.4,-.4c-.2,0,-.4,.2,-.4,.4c0,.2,.2,.4,.4,.4m1.5,0v0c.3,0,.4,-.2,.4,-.4c0,-.2,-.1,-.4,-.4,-.4c-.2,0,-.3,.2,-.3,.4c0,.2,.1,.4,.3,.4m1.6,0v0c.2,0,.4,-.2,.4,-.4c0,-.2,-.2,-.4,-.4,-.4c-.2,0,-.4,.2,-.4,.4c0,.2,.2,.4,.4,.4m1.5,0v0c.2,0,.4,-.2,.4,-.4c0,-.2,-.2,-.4,-.4,-.4c-.2,0,-.4,.2,-.4,.4c0,.2,.2,.4,.4,.4m1.5,0v0c.2,0,.4,-.2,.4,-.4c0,-.2,-.2,-.4,-.4,-.4c-.2,0,-.4,.2,-.4,.4c0,.2,.2,.4,.4,.4m1.5,0v0c.3,0,.4,-.2,.4,-.4c0,-.2,-.1,-.4,-.4,-.4c-.2,0,-.3,.2,-.3,.4c0,.2,.1,.4,.3,.4m1.6,0v0c.2,0,.3,-.2,.3,-.4c0,-.2,-.1,-.4,-.3,-.4c-.2,0,-.4,.2,-.4,.4c0,.2,.2,.4,.4,.4m1.5,0v0c.2,0,.4,-.2,.4,-.4c0,-.2,-.2,-.4,-.4,-.4c-.2,0,-.4,.2,-.4,.4c0,.2,.2,.4,.4,.4m1.5,0v0c.2,0,.4,-.2,.4,-.4c0,-.2,-.2,-.4,-.4,-.4c-.2,0,-.4,.2,-.4,.4c0,.2,.2,.4,.4,.4m1.5,0v0c.3,0,.4,-.2,.4,-.4c0,-.2,-.1,-.4,-.4,-.4c-.2,0,-.3,.2,-.3,.4c0,.2,.1,.4,.3,.4Z" class="g3_22"/>
<path d="M260.7,829l.3,-.1l.1,-.3l-.1,-.3l-.3,-.1l-.3,.1l-.1,.3l.1,.3Zm47.3,0l.2,-.1l.1,-.3l-.1,-.3l-.2,-.1l-.3,.1l-.1,.3l.1,.3Z" class="g3_22"/>
<path d="M40.9,874.3v0c.2,0,.4,-.2,.4,-.4c0,-.2,-.2,-.4,-.4,-.4c-.2,0,-.4,.2,-.4,.4c0,.2,.2,.4,.4,.4m1.5,0v0c.2,0,.4,-.2,.4,-.4c0,-.2,-.2,-.4,-.4,-.4c-.2,0,-.4,.2,-.4,.4c0,.2,.2,.4,.4,.4m1.5,0v0c.2,0,.4,-.2,.4,-.4c0,-.2,-.2,-.4,-.4,-.4c-.2,0,-.3,.2,-.3,.4c0,.2,.1,.4,.3,.4m1.6,0v0c.2,0,.3,-.2,.3,-.4c0,-.2,-.1,-.4,-.3,-.4c-.2,0,-.4,.2,-.4,.4c0,.2,.2,.4,.4,.4m1.5,0v0c.2,0,.4,-.2,.4,-.4c0,-.2,-.2,-.4,-.4,-.4c-.2,0,-.4,.2,-.4,.4c0,.2,.2,.4,.4,.4m1.5,0v0c.2,0,.4,-.2,.4,-.4c0,-.2,-.2,-.4,-.4,-.4c-.2,0,-.4,.2,-.4,.4c0,.2,.2,.4,.4,.4m1.5,0v0c.3,0,.4,-.2,.4,-.4c0,-.2,-.1,-.4,-.4,-.4c-.2,0,-.3,.2,-.3,.4c0,.2,.1,.4,.3,.4m1.6,0v0c.2,0,.4,-.2,.4,-.4c0,-.2,-.2,-.4,-.4,-.4c-.2,0,-.4,.2,-.4,.4c0,.2,.2,.4,.4,.4m1.5,0v0c.2,0,.4,-.2,.4,-.4c0,-.2,-.2,-.4,-.4,-.4c-.2,0,-.4,.2,-.4,.4c0,.2,.2,.4,.4,.4m1.5,0v0c.2,0,.4,-.2,.4,-.4c0,-.2,-.2,-.4,-.4,-.4c-.2,0,-.4,.2,-.4,.4c0,.2,.2,.4,.4,.4m1.6,0v0c.2,0,.3,-.2,.3,-.4c0,-.2,-.1,-.4,-.3,-.4c-.3,0,-.4,.2,-.4,.4c0,.2,.1,.4,.4,.4m1.5,0v0c.2,0,.4,-.2,.4,-.4c0,-.2,-.2,-.4,-.4,-.4c-.2,0,-.4,.2,-.4,.4c0,.2,.2,.4,.4,.4m1.5,0v0c.2,0,.4,-.2,.4,-.4c0,-.2,-.2,-.4,-.4,-.4c-.2,0,-.4,.2,-.4,.4c0,.2,.2,.4,.4,.4m1.5,0v0c.2,0,.4,-.2,.4,-.4c0,-.2,-.2,-.4,-.4,-.4c-.2,0,-.4,.2,-.4,.4c0,.2,.2,.4,.4,.4m1.6,0v0c.2,0,.3,-.2,.3,-.4c0,-.2,-.1,-.4,-.3,-.4c-.3,0,-.4,.2,-.4,.4c0,.2,.1,.4,.4,.4m1.5,0v0c.2,0,.4,-.2,.4,-.4c0,-.2,-.2,-.4,-.4,-.4c-.2,0,-.4,.2,-.4,.4c0,.2,.2,.4,.4,.4m1.5,0v0c.2,0,.4,-.2,.4,-.4c0,-.2,-.2,-.4,-.4,-.4c-.2,0,-.4,.2,-.4,.4c0,.2,.2,.4,.4,.4m1.5,0v0c.2,0,.4,-.2,.4,-.4c0,-.2,-.2,-.4,-.4,-.4c-.2,0,-.3,.2,-.3,.4c0,.2,.1,.4,.3,.4m1.6,0v0c.2,0,.3,-.2,.3,-.4c0,-.2,-.1,-.4,-.3,-.4c-.2,0,-.4,.2,-.4,.4c0,.2,.2,.4,.4,.4m1.5,0v0c.2,0,.4,-.2,.4,-.4c0,-.2,-.2,-.4,-.4,-.4c-.2,0,-.4,.2,-.4,.4c0,.2,.2,.4,.4,.4m1.5,0v0c.2,0,.4,-.2,.4,-.4c0,-.2,-.2,-.4,-.4,-.4c-.2,0,-.4,.2,-.4,.4c0,.2,.2,.4,.4,.4m1.5,0v0c.3,0,.4,-.2,.4,-.4c0,-.2,-.1,-.4,-.4,-.4c-.2,0,-.3,.2,-.3,.4c0,.2,.1,.4,.3,.4m1.6,0v0c.2,0,.4,-.2,.4,-.4c0,-.2,-.2,-.4,-.4,-.4c-.2,0,-.4,.2,-.4,.4c0,.2,.2,.4,.4,.4m1.5,0v0c.2,0,.4,-.2,.4,-.4c0,-.2,-.2,-.4,-.4,-.4c-.2,0,-.4,.2,-.4,.4c0,.2,.2,.4,.4,.4m1.5,0v0c.2,0,.4,-.2,.4,-.4c0,-.2,-.2,-.4,-.4,-.4c-.2,0,-.4,.2,-.4,.4c0,.2,.2,.4,.4,.4m1.5,0v0c.3,0,.4,-.2,.4,-.4c0,-.2,-.1,-.4,-.4,-.4c-.2,0,-.3,.2,-.3,.4c0,.2,.1,.4,.3,.4m1.6,0v0c.2,0,.4,-.2,.4,-.4c0,-.2,-.2,-.4,-.4,-.4c-.2,0,-.4,.2,-.4,.4c0,.2,.2,.4,.4,.4m1.5,0v0c.2,0,.4,-.2,.4,-.4c0,-.2,-.2,-.4,-.4,-.4c-.2,0,-.4,.2,-.4,.4c0,.2,.2,.4,.4,.4m1.5,0v0c.2,0,.4,-.2,.4,-.4c0,-.2,-.2,-.4,-.4,-.4c-.2,0,-.4,.2,-.4,.4c0,.2,.2,.4,.4,.4m1.6,0v0c.2,0,.3,-.2,.3,-.4c0,-.2,-.1,-.4,-.3,-.4c-.3,0,-.4,.2,-.4,.4c0,.2,.1,.4,.4,.4m1.5,0v0c.2,0,.4,-.2,.4,-.4c0,-.2,-.2,-.4,-.4,-.4c-.2,0,-.4,.2,-.4,.4c0,.2,.2,.4,.4,.4m1.5,0v0c.2,0,.4,-.2,.4,-.4c0,-.2,-.2,-.4,-.4,-.4c-.2,0,-.4,.2,-.4,.4c0,.2,.2,.4,.4,.4m1.5,0v0c.2,0,.4,-.2,.4,-.4c0,-.2,-.2,-.4,-.4,-.4c-.2,0,-.3,.2,-.3,.4c0,.2,.1,.4,.3,.4m1.6,0v0c.2,0,.3,-.2,.3,-.4c0,-.2,-.1,-.4,-.3,-.4c-.3,0,-.4,.2,-.4,.4c0,.2,.1,.4,.4,.4m1.5,0v0c.2,0,.4,-.2,.4,-.4c0,-.2,-.2,-.4,-.4,-.4c-.2,0,-.4,.2,-.4,.4c0,.2,.2,.4,.4,.4m1.5,0v0c.2,0,.4,-.2,.4,-.4c0,-.2,-.2,-.4,-.4,-.4c-.2,0,-.4,.2,-.4,.4c0,.2,.2,.4,.4,.4m1.5,0v0c.3,0,.4,-.2,.4,-.4c0,-.2,-.1,-.4,-.4,-.4c-.2,0,-.3,.2,-.3,.4c0,.2,.1,.4,.3,.4m1.6,0v0c.2,0,.3,-.2,.3,-.4c0,-.2,-.1,-.4,-.3,-.4c-.2,0,-.4,.2,-.4,.4c0,.2,.2,.4,.4,.4m1.5,0v0c.2,0,.4,-.2,.4,-.4c0,-.2,-.2,-.4,-.4,-.4c-.2,0,-.4,.2,-.4,.4c0,.2,.2,.4,.4,.4m1.5,0v0c.2,0,.4,-.2,.4,-.4c0,-.2,-.2,-.4,-.4,-.4c-.2,0,-.4,.2,-.4,.4c0,.2,.2,.4,.4,.4m1.5,0v0c.3,0,.4,-.2,.4,-.4c0,-.2,-.1,-.4,-.4,-.4c-.2,0,-.3,.2,-.3,.4c0,.2,.1,.4,.3,.4m1.6,0v0c.2,0,.4,-.2,.4,-.4c0,-.2,-.2,-.4,-.4,-.4c-.2,0,-.4,.2,-.4,.4c0,.2,.2,.4,.4,.4m1.5,0v0c.2,0,.4,-.2,.4,-.4c0,-.2,-.2,-.4,-.4,-.4c-.2,0,-.4,.2,-.4,.4c0,.2,.2,.4,.4,.4m1.5,0v0c.2,0,.4,-.2,.4,-.4c0,-.2,-.2,-.4,-.4,-.4c-.2,0,-.4,.2,-.4,.4c0,.2,.2,.4,.4,.4m1.6,0v0c.2,0,.3,-.2,.3,-.4c0,-.2,-.1,-.4,-.3,-.4c-.3,0,-.4,.2,-.4,.4c0,.2,.1,.4,.4,.4m1.5,0v0c.2,0,.4,-.2,.4,-.4c0,-.2,-.2,-.4,-.4,-.4c-.2,0,-.4,.2,-.4,.4c0,.2,.2,.4,.4,.4m1.5,0v0c.2,0,.4,-.2,.4,-.4c0,-.2,-.2,-.4,-.4,-.4c-.2,0,-.4,.2,-.4,.4c0,.2,.2,.4,.4,.4m1.5,0v0c.2,0,.4,-.2,.4,-.4c0,-.2,-.2,-.4,-.4,-.4c-.2,0,-.3,.2,-.3,.4c0,.2,.1,.4,.3,.4m1.6,0v0c.2,0,.3,-.2,.3,-.4c0,-.2,-.1,-.4,-.3,-.4c-.3,0,-.4,.2,-.4,.4c0,.2,.1,.4,.4,.4m1.5,0v0c.2,0,.4,-.2,.4,-.4c0,-.2,-.2,-.4,-.4,-.4c-.2,0,-.4,.2,-.4,.4c0,.2,.2,.4,.4,.4m1.5,0v0c.2,0,.4,-.2,.4,-.4c0,-.2,-.2,-.4,-.4,-.4c-.2,0,-.4,.2,-.4,.4c0,.2,.2,.4,.4,.4m1.5,0v0c.2,0,.4,-.2,.4,-.4c0,-.2,-.2,-.4,-.4,-.4c-.2,0,-.3,.2,-.3,.4c0,.2,.1,.4,.3,.4m1.6,0v0c.2,0,.3,-.2,.3,-.4c0,-.2,-.1,-.4,-.3,-.4c-.2,0,-.4,.2,-.4,.4c0,.2,.2,.4,.4,.4m1.5,0v0c.2,0,.4,-.2,.4,-.4c0,-.2,-.2,-.4,-.4,-.4c-.2,0,-.4,.2,-.4,.4c0,.2,.2,.4,.4,.4m1.5,0v0c.2,0,.4,-.2,.4,-.4c0,-.2,-.2,-.4,-.4,-.4c-.2,0,-.4,.2,-.4,.4c0,.2,.2,.4,.4,.4m1.5,0v0c.3,0,.4,-.2,.4,-.4c0,-.2,-.1,-.4,-.4,-.4c-.2,0,-.3,.2,-.3,.4c0,.2,.1,.4,.3,.4m1.6,0v0c.2,0,.4,-.2,.4,-.4c0,-.2,-.2,-.4,-.4,-.4c-.2,0,-.4,.2,-.4,.4c0,.2,.2,.4,.4,.4m1.5,0v0c.2,0,.4,-.2,.4,-.4c0,-.2,-.2,-.4,-.4,-.4c-.2,0,-.4,.2,-.4,.4c0,.2,.2,.4,.4,.4m1.5,0v0c.2,0,.4,-.2,.4,-.4c0,-.2,-.2,-.4,-.4,-.4c-.2,0,-.4,.2,-.4,.4c0,.2,.2,.4,.4,.4m1.6,0v0c.2,0,.3,-.2,.3,-.4c0,-.2,-.1,-.4,-.3,-.4c-.3,0,-.4,.2,-.4,.4c0,.2,.1,.4,.4,.4m1.5,0v0c.2,0,.4,-.2,.4,-.4c0,-.2,-.2,-.4,-.4,-.4c-.2,0,-.4,.2,-.4,.4c0,.2,.2,.4,.4,.4m1.5,0v0c.2,0,.4,-.2,.4,-.4c0,-.2,-.2,-.4,-.4,-.4c-.2,0,-.4,.2,-.4,.4c0,.2,.2,.4,.4,.4m1.5,0v0c.2,0,.4,-.2,.4,-.4c0,-.2,-.2,-.4,-.4,-.4c-.2,0,-.4,.2,-.4,.4c0,.2,.2,.4,.4,.4m1.6,0v0c.2,0,.3,-.2,.3,-.4c0,-.2,-.1,-.4,-.3,-.4c-.3,0,-.4,.2,-.4,.4c0,.2,.1,.4,.4,.4m1.5,0v0c.2,0,.4,-.2,.4,-.4c0,-.2,-.2,-.4,-.4,-.4c-.2,0,-.4,.2,-.4,.4c0,.2,.2,.4,.4,.4m1.5,0v0c.2,0,.4,-.2,.4,-.4c0,-.2,-.2,-.4,-.4,-.4c-.2,0,-.4,.2,-.4,.4c0,.2,.2,.4,.4,.4m1.5,0v0c.2,0,.4,-.2,.4,-.4c0,-.2,-.2,-.4,-.4,-.4c-.2,0,-.3,.2,-.3,.4c0,.2,.1,.4,.3,.4m1.6,0v0c.2,0,.3,-.2,.3,-.4c0,-.2,-.1,-.4,-.3,-.4c-.2,0,-.4,.2,-.4,.4c0,.2,.2,.4,.4,.4m1.5,0v0c.2,0,.4,-.2,.4,-.4c0,-.2,-.2,-.4,-.4,-.4c-.2,0,-.4,.2,-.4,.4c0,.2,.2,.4,.4,.4m1.5,0v0c.2,0,.4,-.2,.4,-.4c0,-.2,-.2,-.4,-.4,-.4c-.2,0,-.4,.2,-.4,.4c0,.2,.2,.4,.4,.4m1.5,0v0c.3,0,.4,-.2,.4,-.4c0,-.2,-.1,-.4,-.4,-.4c-.2,0,-.3,.2,-.3,.4c0,.2,.1,.4,.3,.4m1.6,0v0c.2,0,.4,-.2,.4,-.4c0,-.2,-.2,-.4,-.4,-.4c-.2,0,-.4,.2,-.4,.4c0,.2,.2,.4,.4,.4m1.5,0v0c.2,0,.4,-.2,.4,-.4c0,-.2,-.2,-.4,-.4,-.4c-.2,0,-.4,.2,-.4,.4c0,.2,.2,.4,.4,.4m1.5,0v0c.2,0,.4,-.2,.4,-.4c0,-.2,-.2,-.4,-.4,-.4c-.2,0,-.4,.2,-.4,.4c0,.2,.2,.4,.4,.4m1.6,0v0c.2,0,.3,-.2,.3,-.4c0,-.2,-.1,-.4,-.3,-.4c-.3,0,-.4,.2,-.4,.4c0,.2,.1,.4,.4,.4m1.5,0v0c.2,0,.4,-.2,.4,-.4c0,-.2,-.2,-.4,-.4,-.4c-.2,0,-.4,.2,-.4,.4c0,.2,.2,.4,.4,.4m1.5,0v0c.2,0,.4,-.2,.4,-.4c0,-.2,-.2,-.4,-.4,-.4c-.2,0,-.4,.2,-.4,.4c0,.2,.2,.4,.4,.4m1.5,0v0c.2,0,.4,-.2,.4,-.4c0,-.2,-.2,-.4,-.4,-.4c-.2,0,-.4,.2,-.4,.4c0,.2,.2,.4,.4,.4m1.6,0v0c.2,0,.3,-.2,.3,-.4c0,-.2,-.1,-.4,-.3,-.4c-.3,0,-.4,.2,-.4,.4c0,.2,.1,.4,.4,.4m1.5,0v0c.2,0,.4,-.2,.4,-.4c0,-.2,-.2,-.4,-.4,-.4c-.2,0,-.4,.2,-.4,.4c0,.2,.2,.4,.4,.4m1.5,0v0c.2,0,.4,-.2,.4,-.4c0,-.2,-.2,-.4,-.4,-.4c-.2,0,-.4,.2,-.4,.4c0,.2,.2,.4,.4,.4m1.5,0v0c.2,0,.4,-.2,.4,-.4c0,-.2,-.2,-.4,-.4,-.4c-.2,0,-.3,.2,-.3,.4c0,.2,.1,.4,.3,.4m1.6,0v0c.2,0,.3,-.2,.3,-.4c0,-.2,-.1,-.4,-.3,-.4c-.2,0,-.4,.2,-.4,.4c0,.2,.2,.4,.4,.4m1.5,0v0c.2,0,.4,-.2,.4,-.4c0,-.2,-.2,-.4,-.4,-.4c-.2,0,-.4,.2,-.4,.4c0,.2,.2,.4,.4,.4m1.5,0v0c.2,0,.4,-.2,.4,-.4c0,-.2,-.2,-.4,-.4,-.4c-.2,0,-.4,.2,-.4,.4c0,.2,.2,.4,.4,.4m1.5,0v0c.3,0,.4,-.2,.4,-.4c0,-.2,-.1,-.4,-.4,-.4c-.2,0,-.3,.2,-.3,.4c0,.2,.1,.4,.3,.4m1.6,0v0c.2,0,.4,-.2,.4,-.4c0,-.2,-.2,-.4,-.4,-.4c-.2,0,-.4,.2,-.4,.4c0,.2,.2,.4,.4,.4m1.5,0v0c.2,0,.4,-.2,.4,-.4c0,-.2,-.2,-.4,-.4,-.4c-.2,0,-.4,.2,-.4,.4c0,.2,.2,.4,.4,.4m1.5,0v0c.2,0,.4,-.2,.4,-.4c0,-.2,-.2,-.4,-.4,-.4c-.2,0,-.4,.2,-.4,.4c0,.2,.2,.4,.4,.4m1.5,0v0c.3,0,.4,-.2,.4,-.4c0,-.2,-.1,-.4,-.4,-.4c-.2,0,-.3,.2,-.3,.4c0,.2,.1,.4,.3,.4m1.6,0v0c.2,0,.4,-.2,.4,-.4c0,-.2,-.2,-.4,-.4,-.4c-.2,0,-.4,.2,-.4,.4c0,.2,.2,.4,.4,.4m1.5,0v0c.2,0,.4,-.2,.4,-.4c0,-.2,-.2,-.4,-.4,-.4c-.2,0,-.4,.2,-.4,.4c0,.2,.2,.4,.4,.4m1.5,0v0c.2,0,.4,-.2,.4,-.4c0,-.2,-.2,-.4,-.4,-.4c-.2,0,-.4,.2,-.4,.4c0,.2,.2,.4,.4,.4m1.6,0v0c.2,0,.3,-.2,.3,-.4c0,-.2,-.1,-.4,-.3,-.4c-.3,0,-.4,.2,-.4,.4c0,.2,.1,.4,.4,.4m1.5,0v0c.2,0,.4,-.2,.4,-.4c0,-.2,-.2,-.4,-.4,-.4c-.2,0,-.4,.2,-.4,.4c0,.2,.2,.4,.4,.4m1.5,0v0c.2,0,.4,-.2,.4,-.4c0,-.2,-.2,-.4,-.4,-.4c-.2,0,-.4,.2,-.4,.4c0,.2,.2,.4,.4,.4m1.5,0v0c.2,0,.4,-.2,.4,-.4c0,-.2,-.2,-.4,-.4,-.4c-.2,0,-.3,.2,-.3,.4c0,.2,.1,.4,.3,.4m1.6,0v0c.2,0,.3,-.2,.3,-.4c0,-.2,-.1,-.4,-.3,-.4c-.3,0,-.4,.2,-.4,.4c0,.2,.1,.4,.4,.4m1.5,0v0c.2,0,.4,-.2,.4,-.4c0,-.2,-.2,-.4,-.4,-.4c-.2,0,-.4,.2,-.4,.4c0,.2,.2,.4,.4,.4m1.5,0v0c.2,0,.4,-.2,.4,-.4c0,-.2,-.2,-.4,-.4,-.4c-.2,0,-.4,.2,-.4,.4c0,.2,.2,.4,.4,.4m1.5,0v0c.3,0,.4,-.2,.4,-.4c0,-.2,-.1,-.4,-.4,-.4c-.2,0,-.3,.2,-.3,.4c0,.2,.1,.4,.3,.4m1.6,0v0c.2,0,.3,-.2,.3,-.4c0,-.2,-.1,-.4,-.3,-.4c-.2,0,-.4,.2,-.4,.4c0,.2,.2,.4,.4,.4m1.5,0v0c.2,0,.4,-.2,.4,-.4c0,-.2,-.2,-.4,-.4,-.4c-.2,0,-.4,.2,-.4,.4c0,.2,.2,.4,.4,.4m1.5,0v0c.2,0,.4,-.2,.4,-.4c0,-.2,-.2,-.4,-.4,-.4c-.2,0,-.4,.2,-.4,.4c0,.2,.2,.4,.4,.4m1.5,0v0c.3,0,.4,-.2,.4,-.4c0,-.2,-.1,-.4,-.4,-.4c-.2,0,-.3,.2,-.3,.4c0,.2,.1,.4,.3,.4m1.6,0v0c.2,0,.4,-.2,.4,-.4c0,-.2,-.2,-.4,-.4,-.4c-.2,0,-.4,.2,-.4,.4c0,.2,.2,.4,.4,.4m1.5,0v0c.2,0,.4,-.2,.4,-.4c0,-.2,-.2,-.4,-.4,-.4c-.2,0,-.4,.2,-.4,.4c0,.2,.2,.4,.4,.4m1.5,0v0c.2,0,.4,-.2,.4,-.4c0,-.2,-.2,-.4,-.4,-.4c-.2,0,-.4,.2,-.4,.4c0,.2,.2,.4,.4,.4m1.6,0v0c.2,0,.3,-.2,.3,-.4c0,-.2,-.1,-.4,-.3,-.4c-.3,0,-.4,.2,-.4,.4c0,.2,.1,.4,.4,.4m1.5,0v0c.2,0,.4,-.2,.4,-.4c0,-.2,-.2,-.4,-.4,-.4c-.2,0,-.4,.2,-.4,.4c0,.2,.2,.4,.4,.4m1.5,0v0c.2,0,.4,-.2,.4,-.4c0,-.2,-.2,-.4,-.4,-.4c-.2,0,-.4,.2,-.4,.4c0,.2,.2,.4,.4,.4m1.5,0v0c.2,0,.4,-.2,.4,-.4c0,-.2,-.2,-.4,-.4,-.4c-.2,0,-.3,.2,-.3,.4c0,.2,.1,.4,.3,.4m1.6,0v0c.2,0,.3,-.2,.3,-.4c0,-.2,-.1,-.4,-.3,-.4c-.3,0,-.4,.2,-.4,.4c0,.2,.1,.4,.4,.4m1.5,0v0c.2,0,.4,-.2,.4,-.4c0,-.2,-.2,-.4,-.4,-.4c-.2,0,-.4,.2,-.4,.4c0,.2,.2,.4,.4,.4m1.5,0v0c.2,0,.4,-.2,.4,-.4c0,-.2,-.2,-.4,-.4,-.4c-.2,0,-.4,.2,-.4,.4c0,.2,.2,.4,.4,.4m1.5,0v0c.2,0,.4,-.2,.4,-.4c0,-.2,-.2,-.4,-.4,-.4c-.2,0,-.3,.2,-.3,.4c0,.2,.1,.4,.3,.4m1.6,0v0c.2,0,.3,-.2,.3,-.4c0,-.2,-.1,-.4,-.3,-.4c-.2,0,-.4,.2,-.4,.4c0,.2,.2,.4,.4,.4m1.5,0v0c.2,0,.4,-.2,.4,-.4c0,-.2,-.2,-.4,-.4,-.4c-.2,0,-.4,.2,-.4,.4c0,.2,.2,.4,.4,.4m1.5,0v0c.2,0,.4,-.2,.4,-.4c0,-.2,-.2,-.4,-.4,-.4c-.2,0,-.4,.2,-.4,.4c0,.2,.2,.4,.4,.4m1.5,0v0c.3,0,.4,-.2,.4,-.4c0,-.2,-.1,-.4,-.4,-.4c-.2,0,-.3,.2,-.3,.4c0,.2,.1,.4,.3,.4m1.6,0v0c.2,0,.4,-.2,.4,-.4c0,-.2,-.2,-.4,-.4,-.4c-.2,0,-.4,.2,-.4,.4c0,.2,.2,.4,.4,.4m1.5,0v0c.2,0,.4,-.2,.4,-.4c0,-.2,-.2,-.4,-.4,-.4c-.2,0,-.4,.2,-.4,.4c0,.2,.2,.4,.4,.4m1.5,0v0c.2,0,.4,-.2,.4,-.4c0,-.2,-.2,-.4,-.4,-.4c-.2,0,-.4,.2,-.4,.4c0,.2,.2,.4,.4,.4m1.6,0v0c.2,0,.3,-.2,.3,-.4c0,-.2,-.1,-.4,-.3,-.4c-.3,0,-.4,.2,-.4,.4c0,.2,.1,.4,.4,.4m1.5,0v0c.2,0,.4,-.2,.4,-.4c0,-.2,-.2,-.4,-.4,-.4c-.2,0,-.4,.2,-.4,.4c0,.2,.2,.4,.4,.4m1.5,0v0c.2,0,.4,-.2,.4,-.4c0,-.2,-.2,-.4,-.4,-.4c-.2,0,-.4,.2,-.4,.4c0,.2,.2,.4,.4,.4m1.5,0v0c.2,0,.4,-.2,.4,-.4c0,-.2,-.2,-.4,-.4,-.4c-.2,0,-.4,.2,-.4,.4c0,.2,.2,.4,.4,.4m1.6,0v0c.2,0,.3,-.2,.3,-.4c0,-.2,-.1,-.4,-.3,-.4c-.3,0,-.4,.2,-.4,.4c0,.2,.1,.4,.4,.4m1.5,0v0c.2,0,.4,-.2,.4,-.4c0,-.2,-.2,-.4,-.4,-.4c-.2,0,-.4,.2,-.4,.4c0,.2,.2,.4,.4,.4m1.5,0v0c.2,0,.4,-.2,.4,-.4c0,-.2,-.2,-.4,-.4,-.4c-.2,0,-.4,.2,-.4,.4c0,.2,.2,.4,.4,.4m1.5,0v0c.2,0,.4,-.2,.4,-.4c0,-.2,-.2,-.4,-.4,-.4c-.2,0,-.3,.2,-.3,.4c0,.2,.1,.4,.3,.4m1.6,0v0c.2,0,.3,-.2,.3,-.4c0,-.2,-.1,-.4,-.3,-.4c-.2,0,-.4,.2,-.4,.4c0,.2,.2,.4,.4,.4m1.5,0v0c.2,0,.4,-.2,.4,-.4c0,-.2,-.2,-.4,-.4,-.4c-.2,0,-.4,.2,-.4,.4c0,.2,.2,.4,.4,.4m1.5,0v0c.2,0,.4,-.2,.4,-.4c0,-.2,-.2,-.4,-.4,-.4c-.2,0,-.4,.2,-.4,.4c0,.2,.2,.4,.4,.4m1.5,0v0c.3,0,.4,-.2,.4,-.4c0,-.2,-.1,-.4,-.4,-.4c-.2,0,-.3,.2,-.3,.4c0,.2,.1,.4,.3,.4m1.6,0v0c.2,0,.4,-.2,.4,-.4c0,-.2,-.2,-.4,-.4,-.4c-.2,0,-.4,.2,-.4,.4c0,.2,.2,.4,.4,.4m1.5,0v0c.2,0,.4,-.2,.4,-.4c0,-.2,-.2,-.4,-.4,-.4c-.2,0,-.4,.2,-.4,.4c0,.2,.2,.4,.4,.4m1.5,0v0c.2,0,.4,-.2,.4,-.4c0,-.2,-.2,-.4,-.4,-.4c-.2,0,-.4,.2,-.4,.4c0,.2,.2,.4,.4,.4m1.5,0v0c.3,0,.4,-.2,.4,-.4c0,-.2,-.1,-.4,-.4,-.4c-.2,0,-.3,.2,-.3,.4c0,.2,.1,.4,.3,.4m1.6,0v0c.2,0,.4,-.2,.4,-.4c0,-.2,-.2,-.4,-.4,-.4c-.2,0,-.4,.2,-.4,.4c0,.2,.2,.4,.4,.4m1.5,0v0c.2,0,.4,-.2,.4,-.4c0,-.2,-.2,-.4,-.4,-.4c-.2,0,-.4,.2,-.4,.4c0,.2,.2,.4,.4,.4m1.5,0v0c.2,0,.4,-.2,.4,-.4c0,-.2,-.2,-.4,-.4,-.4c-.2,0,-.4,.2,-.4,.4c0,.2,.2,.4,.4,.4m1.6,0v0c.2,0,.3,-.2,.3,-.4c0,-.2,-.1,-.4,-.3,-.4c-.3,0,-.4,.2,-.4,.4c0,.2,.1,.4,.4,.4m1.5,0v0c.2,0,.4,-.2,.4,-.4c0,-.2,-.2,-.4,-.4,-.4c-.2,0,-.4,.2,-.4,.4c0,.2,.2,.4,.4,.4Z" class="g7_22"/>
<path d="M39.4,874.3l.2,-.1l.1,-.3l-.1,-.3l-.2,-.1l-.3,.1l-.1,.3l.1,.3Zm221.3,0l.3,-.1l.1,-.3l-.1,-.3l-.3,-.1l-.3,.1l-.1,.3l.1,.3Z" class="g7_22"/>
<path d="M262.2,874.3v0c.2,0,.4,-.2,.4,-.4c0,-.2,-.2,-.4,-.4,-.4c-.2,0,-.3,.2,-.3,.4c0,.2,.1,.4,.3,.4m1.6,0v0c.2,0,.3,-.2,.3,-.4c0,-.2,-.1,-.4,-.3,-.4c-.3,0,-.4,.2,-.4,.4c0,.2,.1,.4,.4,.4m1.5,0v0c.2,0,.4,-.2,.4,-.4c0,-.2,-.2,-.4,-.4,-.4c-.2,0,-.4,.2,-.4,.4c0,.2,.2,.4,.4,.4m1.5,0v0c.2,0,.4,-.2,.4,-.4c0,-.2,-.2,-.4,-.4,-.4c-.2,0,-.4,.2,-.4,.4c0,.2,.2,.4,.4,.4m1.5,0v0c.2,0,.4,-.2,.4,-.4c0,-.2,-.2,-.4,-.4,-.4c-.2,0,-.4,.2,-.4,.4c0,.2,.2,.4,.4,.4m1.6,0v0c.2,0,.3,-.2,.3,-.4c0,-.2,-.1,-.4,-.3,-.4c-.3,0,-.4,.2,-.4,.4c0,.2,.1,.4,.4,.4m1.5,0v0c.2,0,.4,-.2,.4,-.4c0,-.2,-.2,-.4,-.4,-.4c-.2,0,-.4,.2,-.4,.4c0,.2,.2,.4,.4,.4m1.5,0v0c.2,0,.4,-.2,.4,-.4c0,-.2,-.2,-.4,-.4,-.4c-.2,0,-.4,.2,-.4,.4c0,.2,.2,.4,.4,.4m1.5,0v0c.2,0,.4,-.2,.4,-.4c0,-.2,-.2,-.4,-.4,-.4c-.2,0,-.4,.2,-.4,.4c0,.2,.2,.4,.4,.4m1.6,0v0c.2,0,.3,-.2,.3,-.4c0,-.2,-.1,-.4,-.3,-.4c-.3,0,-.4,.2,-.4,.4c0,.2,.1,.4,.4,.4m1.5,0v0c.2,0,.4,-.2,.4,-.4c0,-.2,-.2,-.4,-.4,-.4c-.2,0,-.4,.2,-.4,.4c0,.2,.2,.4,.4,.4m1.5,0v0c.2,0,.4,-.2,.4,-.4c0,-.2,-.2,-.4,-.4,-.4c-.2,0,-.4,.2,-.4,.4c0,.2,.2,.4,.4,.4m1.5,0v0c.2,0,.4,-.2,.4,-.4c0,-.2,-.2,-.4,-.4,-.4c-.2,0,-.4,.2,-.4,.4c0,.2,.2,.4,.4,.4m1.5,0v0c.3,0,.4,-.2,.4,-.4c0,-.2,-.1,-.4,-.4,-.4c-.2,0,-.3,.2,-.3,.4c0,.2,.1,.4,.3,.4m1.6,0v0c.2,0,.4,-.2,.4,-.4c0,-.2,-.2,-.4,-.4,-.4c-.2,0,-.4,.2,-.4,.4c0,.2,.2,.4,.4,.4m1.5,0v0c.2,0,.4,-.2,.4,-.4c0,-.2,-.2,-.4,-.4,-.4c-.2,0,-.4,.2,-.4,.4c0,.2,.2,.4,.4,.4m1.5,0v0c.2,0,.4,-.2,.4,-.4c0,-.2,-.2,-.4,-.4,-.4c-.2,0,-.4,.2,-.4,.4c0,.2,.2,.4,.4,.4m1.5,0v0c.3,0,.4,-.2,.4,-.4c0,-.2,-.1,-.4,-.4,-.4c-.2,0,-.3,.2,-.3,.4c0,.2,.1,.4,.3,.4m1.6,0v0c.2,0,.4,-.2,.4,-.4c0,-.2,-.2,-.4,-.4,-.4c-.2,0,-.4,.2,-.4,.4c0,.2,.2,.4,.4,.4m1.5,0v0c.2,0,.4,-.2,.4,-.4c0,-.2,-.2,-.4,-.4,-.4c-.2,0,-.4,.2,-.4,.4c0,.2,.2,.4,.4,.4m1.5,0v0c.2,0,.4,-.2,.4,-.4c0,-.2,-.2,-.4,-.4,-.4c-.2,0,-.4,.2,-.4,.4c0,.2,.2,.4,.4,.4m1.5,0v0c.3,0,.4,-.2,.4,-.4c0,-.2,-.1,-.4,-.4,-.4c-.2,0,-.3,.2,-.3,.4c0,.2,.1,.4,.3,.4m1.6,0v0c.2,0,.4,-.2,.4,-.4c0,-.2,-.2,-.4,-.4,-.4c-.2,0,-.4,.2,-.4,.4c0,.2,.2,.4,.4,.4m1.5,0v0c.2,0,.4,-.2,.4,-.4c0,-.2,-.2,-.4,-.4,-.4c-.2,0,-.4,.2,-.4,.4c0,.2,.2,.4,.4,.4m1.5,0v0c.2,0,.4,-.2,.4,-.4c0,-.2,-.2,-.4,-.4,-.4c-.2,0,-.4,.2,-.4,.4c0,.2,.2,.4,.4,.4m1.5,0v0c.3,0,.4,-.2,.4,-.4c0,-.2,-.1,-.4,-.4,-.4c-.2,0,-.3,.2,-.3,.4c0,.2,.1,.4,.3,.4m1.6,0v0c.2,0,.3,-.2,.3,-.4c0,-.2,-.1,-.4,-.3,-.4c-.2,0,-.4,.2,-.4,.4c0,.2,.2,.4,.4,.4m1.5,0v0c.2,0,.4,-.2,.4,-.4c0,-.2,-.2,-.4,-.4,-.4c-.2,0,-.4,.2,-.4,.4c0,.2,.2,.4,.4,.4m1.5,0v0c.2,0,.4,-.2,.4,-.4c0,-.2,-.2,-.4,-.4,-.4c-.2,0,-.4,.2,-.4,.4c0,.2,.2,.4,.4,.4m1.5,0v0c.3,0,.4,-.2,.4,-.4c0,-.2,-.1,-.4,-.4,-.4c-.2,0,-.3,.2,-.3,.4c0,.2,.1,.4,.3,.4Z" class="g7_22"/>
<path d="M260.7,874.3l.3,-.1l.1,-.3l-.1,-.3l-.3,-.1l-.3,.1l-.1,.3l.1,.3Zm47.3,0l.2,-.1l.1,-.3l-.1,-.3l-.2,-.1l-.3,.1l-.1,.3l.1,.3Z" class="g7_22"/>
<path d="M42.8,984.7v0c.4,0,.8,-.3,.8,-.8c0,-.4,-.4,-.7,-.8,-.7c-.4,0,-.8,.3,-.8,.7c0,.5,.4,.8,.8,.8m3.1,0v0c.4,0,.7,-.3,.7,-.8c0,-.4,-.3,-.7,-.7,-.7c-.4,0,-.8,.3,-.8,.7c0,.5,.4,.8,.8,.8m3,0v0c.5,0,.8,-.3,.8,-.8c0,-.4,-.3,-.7,-.8,-.7c-.4,0,-.7,.3,-.7,.7c0,.5,.3,.8,.7,.8m3.1,0v0c.4,0,.8,-.3,.8,-.8c0,-.4,-.4,-.7,-.8,-.7c-.4,0,-.7,.3,-.7,.7c0,.5,.3,.8,.7,.8m3.1,0v0c.4,0,.7,-.3,.7,-.8c0,-.4,-.3,-.7,-.7,-.7c-.4,0,-.8,.3,-.8,.7c0,.5,.4,.8,.8,.8m3.1,0v0c.4,0,.7,-.3,.7,-.8c0,-.4,-.3,-.7,-.7,-.7c-.5,0,-.8,.3,-.8,.7c0,.5,.3,.8,.8,.8m3,0v0c.4,0,.8,-.3,.8,-.8c0,-.4,-.4,-.7,-.8,-.7c-.4,0,-.7,.3,-.7,.7c0,.5,.3,.8,.7,.8m3.1,0v0c.4,0,.8,-.3,.8,-.8c0,-.4,-.4,-.7,-.8,-.7c-.4,0,-.8,.3,-.8,.7c0,.5,.4,.8,.8,.8m3.1,0v0c.4,0,.7,-.3,.7,-.8c0,-.4,-.3,-.7,-.7,-.7c-.5,0,-.8,.3,-.8,.7c0,.5,.3,.8,.8,.8m3,0v0c.5,0,.8,-.3,.8,-.8c0,-.4,-.3,-.7,-.8,-.7c-.4,0,-.7,.3,-.7,.7c0,.5,.3,.8,.7,.8m3.1,0v0c.4,0,.8,-.3,.8,-.8c0,-.4,-.4,-.7,-.8,-.7c-.4,0,-.8,.3,-.8,.7c0,.5,.4,.8,.8,.8m3.1,0v0c.4,0,.7,-.3,.7,-.8c0,-.4,-.3,-.7,-.7,-.7c-.5,0,-.8,.3,-.8,.7c0,.5,.3,.8,.8,.8m3,0v0c.5,0,.8,-.3,.8,-.8c0,-.4,-.3,-.7,-.8,-.7c-.4,0,-.7,.3,-.7,.7c0,.5,.3,.8,.7,.8m3.1,0v0c.4,0,.8,-.3,.8,-.8c0,-.4,-.4,-.7,-.8,-.7c-.4,0,-.8,.3,-.8,.7c0,.5,.4,.8,.8,.8m3.1,0v0c.4,0,.7,-.3,.7,-.8c0,-.4,-.3,-.7,-.7,-.7c-.4,0,-.8,.3,-.8,.7c0,.5,.4,.8,.8,.8m3,0v0c.5,0,.8,-.3,.8,-.8c0,-.4,-.3,-.7,-.8,-.7c-.4,0,-.7,.3,-.7,.7c0,.5,.3,.8,.7,.8m3.1,0v0c.4,0,.8,-.3,.8,-.8c0,-.4,-.4,-.7,-.8,-.7c-.4,0,-.8,.3,-.8,.7c0,.5,.4,.8,.8,.8m3.1,0v0c.4,0,.7,-.3,.7,-.8c0,-.4,-.3,-.7,-.7,-.7c-.4,0,-.8,.3,-.8,.7c0,.5,.4,.8,.8,.8m3.1,0v0c.4,0,.7,-.3,.7,-.8c0,-.4,-.3,-.7,-.7,-.7c-.5,0,-.8,.3,-.8,.7c0,.5,.3,.8,.8,.8m3,0v0c.4,0,.8,-.3,.8,-.8c0,-.4,-.4,-.7,-.8,-.7c-.4,0,-.7,.3,-.7,.7c0,.5,.3,.8,.7,.8m3.1,0v0c.4,0,.8,-.3,.8,-.8c0,-.4,-.4,-.7,-.8,-.7c-.4,0,-.8,.3,-.8,.7c0,.5,.4,.8,.8,.8m3.1,0v0c.4,0,.7,-.3,.7,-.8c0,-.4,-.3,-.7,-.7,-.7c-.5,0,-.8,.3,-.8,.7c0,.5,.3,.8,.8,.8m3,0v0c.4,0,.8,-.3,.8,-.8c0,-.4,-.4,-.7,-.8,-.7c-.4,0,-.7,.3,-.7,.7c0,.5,.3,.8,.7,.8m3.1,0v0c.4,0,.8,-.3,.8,-.8c0,-.4,-.4,-.7,-.8,-.7c-.4,0,-.8,.3,-.8,.7c0,.5,.4,.8,.8,.8m3.1,0v0c.4,0,.7,-.3,.7,-.8c0,-.4,-.3,-.7,-.7,-.7c-.5,0,-.8,.3,-.8,.7c0,.5,.3,.8,.8,.8m3,0v0c.5,0,.8,-.3,.8,-.8c0,-.4,-.3,-.7,-.8,-.7c-.4,0,-.7,.3,-.7,.7c0,.5,.3,.8,.7,.8m3.1,0v0c.4,0,.8,-.3,.8,-.8c0,-.4,-.4,-.7,-.8,-.7c-.4,0,-.8,.3,-.8,.7c0,.5,.4,.8,.8,.8m3.1,0v0c.4,0,.7,-.3,.7,-.8c0,-.4,-.3,-.7,-.7,-.7c-.4,0,-.8,.3,-.8,.7c0,.5,.4,.8,.8,.8m3,0v0c.5,0,.8,-.3,.8,-.8c0,-.4,-.3,-.7,-.8,-.7c-.4,0,-.7,.3,-.7,.7c0,.5,.3,.8,.7,.8m3.1,0v0c.4,0,.8,-.3,.8,-.8c0,-.4,-.4,-.7,-.8,-.7c-.4,0,-.8,.3,-.8,.7c0,.5,.4,.8,.8,.8m3.1,0v0c.4,0,.7,-.3,.7,-.8c0,-.4,-.3,-.7,-.7,-.7c-.4,0,-.8,.3,-.8,.7c0,.5,.4,.8,.8,.8m3,0v0c.5,0,.8,-.3,.8,-.8c0,-.4,-.3,-.7,-.8,-.7c-.4,0,-.7,.3,-.7,.7c0,.5,.3,.8,.7,.8m3.1,0v0c.4,0,.8,-.3,.8,-.8c0,-.4,-.4,-.7,-.8,-.7c-.4,0,-.7,.3,-.7,.7c0,.5,.3,.8,.7,.8m3.1,0v0c.4,0,.7,-.3,.7,-.8c0,-.4,-.3,-.7,-.7,-.7c-.4,0,-.8,.3,-.8,.7c0,.5,.4,.8,.8,.8m3.1,0v0c.4,0,.7,-.3,.7,-.8c0,-.4,-.3,-.7,-.7,-.7c-.5,0,-.8,.3,-.8,.7c0,.5,.3,.8,.8,.8m3,0v0c.4,0,.8,-.3,.8,-.8c0,-.4,-.4,-.7,-.8,-.7c-.4,0,-.7,.3,-.7,.7c0,.5,.3,.8,.7,.8m3.1,0v0c.4,0,.8,-.3,.8,-.8c0,-.4,-.4,-.7,-.8,-.7c-.4,0,-.8,.3,-.8,.7c0,.5,.4,.8,.8,.8m3.1,0v0c.4,0,.7,-.3,.7,-.8c0,-.4,-.3,-.7,-.7,-.7c-.5,0,-.8,.3,-.8,.7c0,.5,.3,.8,.8,.8m3,0v0c.5,0,.8,-.3,.8,-.8c0,-.4,-.3,-.7,-.8,-.7c-.4,0,-.7,.3,-.7,.7c0,.5,.3,.8,.7,.8m3.1,0v0c.4,0,.8,-.3,.8,-.8c0,-.4,-.4,-.7,-.8,-.7c-.4,0,-.8,.3,-.8,.7c0,.5,.4,.8,.8,.8m3.1,0v0c.4,0,.7,-.3,.7,-.8c0,-.4,-.3,-.7,-.7,-.7c-.5,0,-.8,.3,-.8,.7c0,.5,.3,.8,.8,.8m3,0v0c.5,0,.8,-.3,.8,-.8c0,-.4,-.3,-.7,-.8,-.7c-.4,0,-.7,.3,-.7,.7c0,.5,.3,.8,.7,.8m3.1,0v0c.4,0,.8,-.3,.8,-.8c0,-.4,-.4,-.7,-.8,-.7c-.4,0,-.8,.3,-.8,.7c0,.5,.4,.8,.8,.8m3.1,0v0c.4,0,.7,-.3,.7,-.8c0,-.4,-.3,-.7,-.7,-.7c-.4,0,-.8,.3,-.8,.7c0,.5,.4,.8,.8,.8m3,0v0c.5,0,.8,-.3,.8,-.8c0,-.4,-.3,-.7,-.8,-.7c-.4,0,-.7,.3,-.7,.7c0,.5,.3,.8,.7,.8m3.1,0v0c.4,0,.8,-.3,.8,-.8c0,-.4,-.4,-.7,-.8,-.7c-.4,0,-.7,.3,-.7,.7c0,.5,.3,.8,.7,.8m3.1,0v0c.4,0,.7,-.3,.7,-.8c0,-.4,-.3,-.7,-.7,-.7c-.4,0,-.8,.3,-.8,.7c0,.5,.4,.8,.8,.8m3.1,0v0c.4,0,.7,-.3,.7,-.8c0,-.4,-.3,-.7,-.7,-.7c-.5,0,-.8,.3,-.8,.7c0,.5,.3,.8,.8,.8m3,0v0c.4,0,.8,-.3,.8,-.8c0,-.4,-.4,-.7,-.8,-.7c-.4,0,-.7,.3,-.7,.7c0,.5,.3,.8,.7,.8m3.1,0v0c.4,0,.8,-.3,.8,-.8c0,-.4,-.4,-.7,-.8,-.7c-.4,0,-.8,.3,-.8,.7c0,.5,.4,.8,.8,.8m3.1,0v0c.4,0,.7,-.3,.7,-.8c0,-.4,-.3,-.7,-.7,-.7c-.5,0,-.8,.3,-.8,.7c0,.5,.3,.8,.8,.8m3,0v0c.5,0,.8,-.3,.8,-.8c0,-.4,-.3,-.7,-.8,-.7c-.4,0,-.7,.3,-.7,.7c0,.5,.3,.8,.7,.8m3.1,0v0c.4,0,.8,-.3,.8,-.8c0,-.4,-.4,-.7,-.8,-.7c-.4,0,-.8,.3,-.8,.7c0,.5,.4,.8,.8,.8m3.1,0v0c.4,0,.7,-.3,.7,-.8c0,-.4,-.3,-.7,-.7,-.7c-.5,0,-.8,.3,-.8,.7c0,.5,.3,.8,.8,.8m3,0v0c.5,0,.8,-.3,.8,-.8c0,-.4,-.3,-.7,-.8,-.7c-.4,0,-.7,.3,-.7,.7c0,.5,.3,.8,.7,.8m3.1,0v0c.4,0,.8,-.3,.8,-.8c0,-.4,-.4,-.7,-.8,-.7c-.4,0,-.8,.3,-.8,.7c0,.5,.4,.8,.8,.8m3.1,0v0c.4,0,.7,-.3,.7,-.8c0,-.4,-.3,-.7,-.7,-.7c-.4,0,-.8,.3,-.8,.7c0,.5,.4,.8,.8,.8m3,0v0c.5,0,.8,-.3,.8,-.8c0,-.4,-.3,-.7,-.8,-.7c-.4,0,-.7,.3,-.7,.7c0,.5,.3,.8,.7,.8m3.1,0v0c.4,0,.8,-.3,.8,-.8c0,-.4,-.4,-.7,-.8,-.7c-.4,0,-.8,.3,-.8,.7c0,.5,.4,.8,.8,.8m3.1,0v0c.4,0,.7,-.3,.7,-.8c0,-.4,-.3,-.7,-.7,-.7c-.4,0,-.8,.3,-.8,.7c0,.5,.4,.8,.8,.8m3,0v0c.5,0,.8,-.3,.8,-.8c0,-.4,-.3,-.7,-.8,-.7c-.4,0,-.7,.3,-.7,.7c0,.5,.3,.8,.7,.8m3.1,0v0c.4,0,.8,-.3,.8,-.8c0,-.4,-.4,-.7,-.8,-.7c-.4,0,-.7,.3,-.7,.7c0,.5,.3,.8,.7,.8m3.1,0v0c.4,0,.8,-.3,.8,-.8c0,-.4,-.4,-.7,-.8,-.7c-.4,0,-.8,.3,-.8,.7c0,.5,.4,.8,.8,.8m3.1,0v0c.4,0,.7,-.3,.7,-.8c0,-.4,-.3,-.7,-.7,-.7c-.5,0,-.8,.3,-.8,.7c0,.5,.3,.8,.8,.8m3,0v0c.4,0,.8,-.3,.8,-.8c0,-.4,-.4,-.7,-.8,-.7c-.4,0,-.7,.3,-.7,.7c0,.5,.3,.8,.7,.8m3.1,0v0c.4,0,.8,-.3,.8,-.8c0,-.4,-.4,-.7,-.8,-.7c-.4,0,-.8,.3,-.8,.7c0,.5,.4,.8,.8,.8m3.1,0v0c.4,0,.7,-.3,.7,-.8c0,-.4,-.3,-.7,-.7,-.7c-.5,0,-.8,.3,-.8,.7c0,.5,.3,.8,.8,.8m3,0v0c.5,0,.8,-.3,.8,-.8c0,-.4,-.3,-.7,-.8,-.7c-.4,0,-.7,.3,-.7,.7c0,.5,.3,.8,.7,.8m3.1,0v0c.4,0,.8,-.3,.8,-.8c0,-.4,-.4,-.7,-.8,-.7c-.4,0,-.8,.3,-.8,.7c0,.5,.4,.8,.8,.8m3.1,0v0c.4,0,.7,-.3,.7,-.8c0,-.4,-.3,-.7,-.7,-.7c-.5,0,-.8,.3,-.8,.7c0,.5,.3,.8,.8,.8m3,0v0c.5,0,.8,-.3,.8,-.8c0,-.4,-.3,-.7,-.8,-.7c-.4,0,-.7,.3,-.7,.7c0,.5,.3,.8,.7,.8Z" class="g7_22"/>
<path d="M39.7,984.7c.2,0,.4,-.1,.6,-.2c.1,-.2,.2,-.4,.2,-.6c0,-.2,-.1,-.4,-.2,-.5c-.2,-.1,-.4,-.2,-.6,-.2c-.2,0,-.4,.1,-.5,.2c-.1,.1,-.2,.3,-.2,.5c0,.2,.1,.4,.2,.6c.1,.1,.3,.2,.5,.2m221,0c.2,0,.4,-.1,.5,-.2c.2,-.2,.3,-.4,.3,-.6c0,-.2,-.1,-.4,-.3,-.5c-.1,-.1,-.3,-.2,-.5,-.2c-.2,0,-.4,.1,-.5,.2c-.2,.1,-.3,.3,-.3,.5c0,.2,.1,.4,.3,.6c.1,.1,.3,.2,.5,.2Z" class="g7_22"/>
<path d="M263.8,984.7v0c.5,0,.8,-.3,.8,-.8c0,-.4,-.3,-.7,-.8,-.7c-.4,0,-.7,.3,-.7,.7c0,.5,.3,.8,.7,.8m3.2,0v0c.4,0,.7,-.3,.7,-.8c0,-.4,-.3,-.7,-.7,-.7c-.5,0,-.8,.3,-.8,.7c0,.5,.3,.8,.8,.8m3.1,0v0c.4,0,.7,-.3,.7,-.8c0,-.4,-.3,-.7,-.7,-.7c-.4,0,-.8,.3,-.8,.7c0,.5,.4,.8,.8,.8m3.1,0v0c.4,0,.8,-.3,.8,-.8c0,-.4,-.4,-.7,-.8,-.7c-.4,0,-.8,.3,-.8,.7c0,.5,.4,.8,.8,.8m3.1,0v0c.5,0,.8,-.3,.8,-.8c0,-.4,-.3,-.7,-.8,-.7c-.4,0,-.7,.3,-.7,.7c0,.5,.3,.8,.7,.8m3.2,0v0c.4,0,.7,-.3,.7,-.8c0,-.4,-.3,-.7,-.7,-.7c-.5,0,-.8,.3,-.8,.7c0,.5,.3,.8,.8,.8m3.1,0v0c.4,0,.7,-.3,.7,-.8c0,-.4,-.3,-.7,-.7,-.7c-.4,0,-.8,.3,-.8,.7c0,.5,.4,.8,.8,.8m3.1,0v0c.4,0,.8,-.3,.8,-.8c0,-.4,-.4,-.7,-.8,-.7c-.4,0,-.8,.3,-.8,.7c0,.5,.4,.8,.8,.8m3.1,0v0c.5,0,.8,-.3,.8,-.8c0,-.4,-.3,-.7,-.8,-.7c-.4,0,-.7,.3,-.7,.7c0,.5,.3,.8,.7,.8m3.2,0v0c.4,0,.7,-.3,.7,-.8c0,-.4,-.3,-.7,-.7,-.7c-.5,0,-.8,.3,-.8,.7c0,.5,.3,.8,.8,.8m3.1,0v0c.4,0,.7,-.3,.7,-.8c0,-.4,-.3,-.7,-.7,-.7c-.4,0,-.8,.3,-.8,.7c0,.5,.4,.8,.8,.8m3.1,0v0c.4,0,.8,-.3,.8,-.8c0,-.4,-.4,-.7,-.8,-.7c-.4,0,-.8,.3,-.8,.7c0,.5,.4,.8,.8,.8m3.1,0v0c.5,0,.8,-.3,.8,-.8c0,-.4,-.3,-.7,-.8,-.7c-.4,0,-.7,.3,-.7,.7c0,.5,.3,.8,.7,.8m3.2,0v0c.4,0,.7,-.3,.7,-.8c0,-.4,-.3,-.7,-.7,-.7c-.5,0,-.8,.3,-.8,.7c0,.5,.3,.8,.8,.8Z" class="g7_22"/>
<path d="M260.7,984.7c.2,0,.4,-.1,.5,-.2c.2,-.2,.3,-.4,.3,-.6c0,-.2,-.1,-.4,-.3,-.5c-.1,-.1,-.3,-.2,-.5,-.2c-.2,0,-.4,.1,-.5,.2c-.2,.1,-.3,.3,-.3,.5c0,.2,.1,.4,.3,.6c.1,.1,.3,.2,.5,.2m46.9,0c.2,0,.4,-.1,.5,-.2c.2,-.2,.2,-.4,.2,-.6c0,-.2,0,-.4,-.2,-.5c-.1,-.1,-.3,-.2,-.5,-.2c-.2,0,-.4,.1,-.6,.2c-.1,.1,-.2,.3,-.2,.5c0,.2,.1,.4,.2,.6c.2,.1,.4,.2,.6,.2Z" class="g7_22"/>
<path d="M326.2,127.9c2.1,0,3.8,-1.7,3.8,-3.7c0,-2.1,-1.7,-3.8,-3.8,-3.8c-2,0,-3.7,1.7,-3.7,3.8c0,2,1.7,3.7,3.7,3.7Z" class="g5_22"/>
<path d="M326.2,127.9v.6c2.4,0,4.4,-2,4.4,-4.3c0,-2.4,-2,-4.4,-4.4,-4.4c-2.3,0,-4.3,2,-4.3,4.4c0,2.3,2,4.3,4.3,4.3v-1.1c-1.7,0,-3.2,-1.5,-3.2,-3.2c0,-1.8,1.5,-3.3,3.2,-3.3c1.8,0,3.2,1.5,3.3,3.3c-.1,1.7,-1.5,3.2,-3.3,3.2Z" class="g6_22"/>
<path d="M332.8,125.2h43.3v-1.6H332.8Z" class="g6_22"/>
<path d="M382.8,127.9c2.1,0,3.8,-1.7,3.8,-3.7c0,-2.1,-1.7,-3.8,-3.8,-3.8c-2.1,0,-3.8,1.7,-3.8,3.8c0,2,1.7,3.7,3.8,3.7Z" class="g5_22"/>
<path d="M382.8,127.9v.6c2.4,0,4.3,-2,4.3,-4.3c0,-2.4,-1.9,-4.4,-4.3,-4.4c-2.4,0,-4.3,2,-4.3,4.4c0,2.3,1.9,4.3,4.3,4.3v-1.1c-1.8,0,-3.2,-1.5,-3.2,-3.2c0,-1.8,1.4,-3.3,3.2,-3.3c1.8,0,3.2,1.5,3.2,3.3c0,1.7,-1.4,3.2,-3.2,3.2Z" class="g6_22"/>
<path d="M389.5,125.2h48.1v-1.6H389.5Z" class="g6_22"/>
<path d="M498.2,127.9c2,0,3.7,-1.7,3.7,-3.7c0,-2.1,-1.7,-3.8,-3.7,-3.8c-2.1,0,-3.8,1.7,-3.8,3.8c0,2,1.7,3.7,3.8,3.7Z" class="g5_22"/>
<path d="M498.2,127.9v.6c2.4,0,4.3,-2,4.3,-4.3c0,-2.4,-1.9,-4.4,-4.3,-4.4c-2.4,0,-4.4,2,-4.4,4.4c0,2.3,2,4.3,4.4,4.3v-1.1c-1.8,0,-3.2,-1.5,-3.2,-3.2c0,-1.8,1.4,-3.3,3.2,-3.3c1.7,0,3.2,1.5,3.2,3.3c0,1.7,-1.5,3.2,-3.2,3.2Z" class="g6_22"/>
<path d="M505,125.2h43v-1.6H505Z" class="g6_22"/>
<path d="M555.1,127.9c2.1,0,3.8,-1.7,3.8,-3.7c0,-2.1,-1.7,-3.8,-3.8,-3.8c-2,0,-3.7,1.7,-3.7,3.8c0,2,1.7,3.7,3.7,3.7Z" class="g5_22"/>
<path d="M555.1,127.9v.6c2.4,0,4.4,-2,4.4,-4.3c0,-2.4,-2,-4.4,-4.4,-4.4c-2.3,0,-4.3,2,-4.3,4.4c0,2.3,2,4.3,4.3,4.3v-1.1c-1.7,0,-3.2,-1.5,-3.2,-3.2c0,-1.8,1.5,-3.3,3.2,-3.3c1.8,0,3.3,1.5,3.3,3.3c0,1.7,-1.5,3.2,-3.3,3.2Z" class="g6_22"/>
<image clip-path="url(#cm_22)" preserveAspectRatio="none" x="579" y="102" width="20" height="19" xlink:href="img/24.jpg"/>
<path d="M562.4,125.2h49.3v-1.6H562.4Z" class="g6_22"/>
<path d="M618.5,127.9c2.1,0,3.8,-1.7,3.8,-3.7c0,-2.1,-1.7,-3.8,-3.8,-3.8c-2.1,0,-3.7,1.7,-3.7,3.8c0,2,1.6,3.7,3.7,3.7Z" class="g5_22"/>
<path d="M618.5,127.9v.6c2.4,0,4.4,-2,4.4,-4.3c0,-2.4,-2,-4.4,-4.4,-4.4c-2.4,0,-4.3,2,-4.3,4.4c0,2.3,1.9,4.3,4.3,4.3v-1.1c-1.7,0,-3.2,-1.5,-3.2,-3.2c0,-1.8,1.5,-3.3,3.2,-3.3c1.8,0,3.2,1.5,3.2,3.3c0,1.7,-1.4,3.2,-3.2,3.2Z" class="g6_22"/>
<image clip-path="url(#cn_22)" preserveAspectRatio="none" x="729" y="87" width="31" height="16" xlink:href="img/25.jpg"/>
<image clip-path="url(#co_22)" preserveAspectRatio="none" x="635" y="72" width="149" height="15" xlink:href="img/26.jpg"/>
<image clip-path="url(#cp_22)" preserveAspectRatio="none" x="670" y="110" width="63" height="15" xlink:href="img/27.jpg"/>
<path d="M444.9,127.9c2,0,3.7,-1.7,3.7,-3.7c0,-2.1,-1.7,-3.8,-3.7,-3.8c-2.1,0,-3.8,1.7,-3.8,3.8c0,2,1.7,3.7,3.8,3.7Z" class="g5_22"/>
<path d="M444.9,127.9v.6c2.4,0,4.3,-2,4.3,-4.3c0,-2.4,-1.9,-4.4,-4.3,-4.4c-2.4,0,-4.4,2,-4.4,4.4c0,2.3,2,4.3,4.4,4.3v-1.1c-1.8,0,-3.2,-1.5,-3.2,-3.2c0,-1.8,1.4,-3.3,3.2,-3.3c1.7,0,3.2,1.5,3.2,3.3c0,1.7,-1.5,3.2,-3.2,3.2Z" class="g6_22"/>
<path d="M451.9,125.2h39.4v-1.6H451.9Z" class="g6_22"/>
<image clip-path="url(#cq_22)" preserveAspectRatio="none" x="511" y="102" width="20" height="19" xlink:href="img/28.jpg"/>
<image clip-path="url(#cr_22)" preserveAspectRatio="none" x="465" y="102" width="20" height="19" xlink:href="img/29.jpg"/>
<image clip-path="url(#cs_22)" preserveAspectRatio="none" x="465" y="106" width="1" height="9" xlink:href="img/30.jpg"/>
<image clip-path="url(#ct_22)" preserveAspectRatio="none" x="465" y="106" width="1" height="9" xlink:href="img/31.jpg"/>
<image clip-path="url(#cu_22)" preserveAspectRatio="none" x="404" y="102" width="20" height="19" xlink:href="img/32.jpg"/>
<image clip-path="url(#cv_22)" preserveAspectRatio="none" x="423" y="106" width="1" height="9" xlink:href="img/33.jpg"/>
<image clip-path="url(#ct_22)" preserveAspectRatio="none" x="423" y="106" width="1" height="9" xlink:href="img/34.jpg"/>
<image clip-path="url(#cw_22)" preserveAspectRatio="none" x="342" y="102" width="20" height="19" xlink:href="img/35.jpg"/>
<image clip-path="url(#cx_22)" preserveAspectRatio="none" x="290" y="102" width="20" height="19" xlink:href="img/36.jpg"/>
<image clip-path="url(#cy_22)" preserveAspectRatio="none" x="737" y="122" width="59" height="15" xlink:href="img/37.jpg"/>
<image clip-path="url(#cz_22)" preserveAspectRatio="none" x="775" y="95" width="58" height="16" xlink:href="img/38.jpg"/>
<image clip-path="url(#c10_22)" preserveAspectRatio="none" x="804" y="132" width="42" height="16" xlink:href="img/39.jpg"/>
<image clip-path="url(#c11_22)" preserveAspectRatio="none" x="805" y="147" width="41" height="3" xlink:href="img/40.jpg"/>
<image clip-path="url(#c12_22)" preserveAspectRatio="none" x="834" y="90" width="31" height="18" xlink:href="img/41.jpg"/>
<path d="M848.8,120.1h3v-1.5h-3Z" class="g2_22"/>
<path d="M851.6,118.6l-1.4,.3l.3,1.5l1.5,-.3Zm-2.9,.7l-1.4,.4l.4,1.5l1.4,-.4Zm-2.9,.7l-1.4,.4l.4,1.5l1.4,-.4Zm-2.8,.8l-1.5,.4l.4,1.4l1.4,-.3Zm-2.9,.7l-1.5,.4l.4,1.5l1.5,-.4Zm-2.9,.8l-1.4,.3l.3,1.5l1.5,-.4Zm-2.9,.7l-1.4,.4l.4,1.4l1.4,-.3Zm-2.9,.7l-1.4,.4l.4,1.5l1.4,-.4Zm-2.8,.8l-1.5,.3l.4,1.5l1.4,-.4Zm-2.9,.7l-1.5,.4l.4,1.4l1.5,-.3Z" class="g2_22"/>
<path d="M824.4,125.6l-1.4,-.4l-.4,1.5l1.5,.3Zm-2.9,-.8l-1.4,-.3l-.4,1.4l1.5,.4Zm-2.9,-.7l-1.4,-.4l-.4,1.5l1.5,.4Zm-2.9,-.7l-1.4,-.4l-.4,1.5l1.5,.3Zm-2.9,-.8l-1.4,-.3l-.4,1.4l1.5,.4Zm-2.9,-.7l-1.4,-.4l-.4,1.5l1.5,.4Zm-2.9,-.7l-1.4,-.4l-.4,1.5l1.5,.3Zm-2.9,-.8l-1.4,-.4l-.4,1.5l1.5,.4Zm-2.9,-.7l-1.4,-.4l-.4,1.5l1.5,.4Zm-2.9,-.8l-1.4,-.3l-.4,1.5l1.4,.3Z" class="g2_22"/>
<path d="M796.8,118.6l-1.4,-.3l-.3,1.5l1.5,.3Zm-2.9,-.5l-1.4,-.3l-.3,1.5l1.5,.3Zm-2.8,-.5l-1.5,-.3l-.2,1.5l1.4,.3Zm-2.9,-.5l-1.5,-.3l-.2,1.5l1.4,.3Zm-2.9,-.5l-1.4,-.3l-.3,1.5l1.4,.3Zm-2.9,-.5l-1.4,-.3l-.3,1.5l1.5,.3Zm-2.9,-.5l-1.4,-.3l-.3,1.5l1.5,.3Zm-2.8,-.5l-1.5,-.3l-.2,1.5l1.4,.3Zm-2.9,-.5l-1.5,-.3l-.2,1.5l1.4,.3Z" class="g2_22"/>
<path d="M771.2,114.3l-1.4,-.2l-.2,1.5l1.4,.2Zm-2.9,-.4l-1.4,-.2l-.2,1.6l1.4,.1Zm-2.9,-.3l-1.4,-.2l-.2,1.5l1.5,.2Zm-2.8,-.4l-1.5,-.2l-.2,1.5l1.5,.2Zm-2.9,-.4l-1.4,-.2l-.2,1.5l1.4,.2Zm-2.9,-.4l-1.4,-.1l-.2,1.5l1.4,.2Zm-2.8,-.3l-1.5,-.2l-.2,1.5l1.5,.2Zm-2.9,-.4l-1.5,-.2l-.2,1.5l1.5,.2Zm-2.9,-.4l-1.4,-.2l-.2,1.6l1.4,.1Z" class="g2_22"/>
<path d="M746.8,111.1l-1.6,-.3l-.3,1.5l1.6,.3Zm-3.1,-.5l-1.5,-.3l-.3,1.5l1.5,.3Zm-3.1,-.6l-1.5,-.3l-.3,1.5l1.5,.3Zm-3.1,-.6l-1.5,-.3l-.3,1.5l1.6,.3Zm-3,-.6l-1.6,-.3l-.3,1.5l1.6,.3Zm-3.1,-.6l-1.5,-.3l-.3,1.5l1.5,.3Zm-3.1,-.6l-1.5,-.3l-.3,1.5l1.5,.3Zm-3,-.6l-1.6,-.3l-.3,1.5l1.6,.3Zm-3.1,-.6l-1.6,-.3l-.2,1.5l1.5,.3Zm-3.1,-.6l-1.5,-.3l-.3,1.5l1.5,.3Zm-3.1,-.6l-1.5,-.3l-.3,1.5l1.5,.3Zm-3,-.6l-1.6,-.3l-.3,1.5l1.6,.3Zm-3.1,-.6l-1.5,-.3l-.3,1.5l1.5,.3Zm-3.1,-.6l-1.5,-.3l-.3,1.5l1.5,.3Zm-3.1,-.6l-1.5,-.3l-.3,1.5l1.6,.3Z" class="g2_22"/>
<path d="M701.8,102.5l-1.5,-.2l-.2,1.5l1.5,.2Zm-2.9,-.4l-1.5,-.3l-.3,1.5l1.5,.3Zm-3,-.5l-1.5,-.2l-.3,1.5l1.5,.2Zm-3,-.5l-1.5,-.2l-.2,1.5l1.5,.2Zm-3,-.5l-1.5,-.2l-.2,1.5l1.5,.3Zm-3,-.4l-1.5,-.3l-.2,1.5l1.5,.3Zm-3,-.5l-1.4,-.2l-.3,1.5l1.5,.2ZM681,99.2L679.5,99l-.3,1.5l1.5,.2Zm-3,-.4l-1.5,-.3l-.2,1.5l1.4,.3Zm-3,-.5l-1.5,-.2l-.2,1.5l1.5,.2Zm-3,-.5l-1.5,-.2l-.2,1.5l1.5,.2Zm-3,-.5l-1.5,-.2l-.2,1.5l1.5,.3Zm-2.9,-.4l-1.5,-.3l-.3,1.5l1.5,.3Zm-3,-.5l-1.5,-.2l-.3,1.5l1.5,.2Z" class="g2_22"/>
<path d="M701.9,107.5c2.4,0,4.3,-1.9,4.3,-4.2c0,-2.4,-1.9,-4.3,-4.3,-4.3c-2.3,0,-4.2,1.9,-4.2,4.3c0,2.3,1.9,4.2,4.2,4.2Z" class="g6_22"/>
<path d="M746.7,116.1c2.3,0,4.2,-1.9,4.2,-4.3c0,-2.3,-1.9,-4.3,-4.2,-4.3c-2.4,0,-4.3,2,-4.3,4.3c0,2.4,1.9,4.3,4.3,4.3Z" class="g6_22"/>
<path d="M661.5,103c3.3,0,6,-2.7,6,-6.1c0,-3.3,-2.7,-6.1,-6,-6.1c-3.4,0,-6.1,2.8,-6.1,6.1c0,3.4,2.7,6.1,6.1,6.1Z" class="g2_22"/>
<path d="M661.5,103v1.5c4.1,0,7.5,-3.4,7.5,-7.6c0,-4.2,-3.4,-7.5,-7.5,-7.5c-4.2,0,-7.6,3.3,-7.6,7.5c0,4.2,3.4,7.6,7.6,7.6v-3c-2.6,0,-4.6,-2,-4.6,-4.6c0,-2.5,2,-4.6,4.6,-4.6c2.5,0,4.6,2.1,4.6,4.6c0,2.6,-2.1,4.6,-4.6,4.6Z" class="g6_22"/>
<path d="M772.2,119.3c2.4,0,4.3,-1.9,4.3,-4.2c0,-2.4,-1.9,-4.3,-4.3,-4.3c-2.3,0,-4.2,1.9,-4.2,4.3c0,2.3,1.9,4.2,4.2,4.2Z" class="g6_22"/>
<path d="M798.9,123.6c2.3,0,4.2,-1.9,4.2,-4.2c0,-2.4,-1.9,-4.3,-4.2,-4.3c-2.4,0,-4.3,1.9,-4.3,4.3c0,2.3,1.9,4.2,4.3,4.2Z" class="g6_22"/>
<path d="M824.4,130c2.4,0,4.3,-1.9,4.3,-4.3c0,-2.3,-1.9,-4.2,-4.3,-4.2c-2.3,0,-4.2,1.9,-4.2,4.2c0,2.4,1.9,4.3,4.2,4.3Z" class="g6_22"/>
<path d="M851.8,125.6c3.3,0,6.1,-2.8,6.1,-6.1c0,-3.4,-2.8,-6.1,-6.1,-6.1c-3.4,0,-6.1,2.7,-6.1,6.1c0,3.3,2.7,6.1,6.1,6.1Z" class="g2_22"/>
<path d="M851.8,125.6V127c4.2,0,7.6,-3.3,7.6,-7.5c0,-4.2,-3.4,-7.6,-7.6,-7.6c-4.2,0,-7.6,3.4,-7.6,7.6c0,4.2,3.4,7.5,7.6,7.5v-2.9c-2.6,0,-4.6,-2.1,-4.6,-4.6c0,-2.6,2,-4.6,4.6,-4.6c2.5,0,4.6,2,4.6,4.6c0,2.5,-2.1,4.6,-4.6,4.6Z" class="g6_22"/>
<path d="M249.4,1192.4v-24.2h-.8v24.2Z" class="g8_22"/>
<path d="M180.5,1167.4V1145h-.7v22.4Z" class="g8_22"/>
<path d="M180.5,1192.4v-25h-.7v25Z" class="g8_22"/>
<path d="M180.5,1212.3v-17.6h-.7v17.6Z" class="g8_22"/>
<path d="M180.9,1212.7v0l.2,-.2l-.2,-.2l-.2,.2Zm.8,0v0l.2,-.2l-.2,-.2l-.2,.2Zm.8,0v0l.1,-.2l-.1,-.2l-.2,.2Zm.7,0v0l.2,-.2l-.2,-.2l-.2,.2Zm.8,0v0l.2,-.2l-.2,-.2l-.2,.2Zm.7,0v0l.2,-.2l-.2,-.2l-.1,.2Zm.8,0v0l.2,-.2l-.2,-.2l-.2,.2Zm.8,0v0l.2,-.2l-.2,-.2l-.2,.2Zm.7,0v0l.2,-.2l-.2,-.2l-.1,.2Zm.8,0v0l.2,-.2l-.2,-.2l-.2,.2Zm.8,0v0l.2,-.2l-.2,-.2l-.2,.2Zm.7,0v0l.2,-.2l-.2,-.2l-.2,.2Zm.8,0v0l.2,-.2l-.2,-.2l-.2,.2Zm.8,0v0l.2,-.2l-.2,-.2l-.2,.2Zm.7,0v0l.2,-.2l-.2,-.2l-.2,.2Zm.8,0v0l.2,-.2l-.2,-.2l-.2,.2Zm.8,0v0l.2,-.2l-.2,-.2l-.2,.2Zm.7,0v0l.2,-.2l-.2,-.2l-.2,.2Zm.8,0v0l.2,-.2l-.2,-.2l-.2,.2Zm.8,0v0l.2,-.2l-.2,-.2l-.2,.2Zm.7,0v0l.2,-.2l-.2,-.2l-.2,.2Zm.8,0v0l.2,-.2l-.2,-.2l-.2,.2Zm.8,0v0l.1,-.2l-.1,-.2l-.2,.2Zm.7,0v0l.2,-.2l-.2,-.2l-.2,.2Zm.8,0v0l.2,-.2l-.2,-.2l-.2,.2Zm.8,0v0l.1,-.2l-.1,-.2l-.2,.2Zm.7,0v0l.2,-.2l-.2,-.2l-.2,.2Zm.8,0v0l.2,-.2l-.2,-.2l-.2,.2Zm.7,0v0l.2,-.2l-.2,-.2l-.1,.2Zm.8,0v0l.2,-.2l-.2,-.2l-.2,.2Zm.8,0v0l.2,-.2l-.2,-.2l-.2,.2Zm.7,0v0l.2,-.2l-.2,-.2l-.2,.2Zm.8,0v0l.2,-.2l-.2,-.2l-.2,.2Zm.8,0v0l.2,-.2l-.2,-.2l-.2,.2Zm.7,0v0l.2,-.2l-.2,-.2l-.2,.2Zm.8,0v0l.2,-.2l-.2,-.2l-.2,.2Zm.8,0v0l.2,-.2l-.2,-.2l-.2,.2Zm.7,0v0l.2,-.2l-.2,-.2l-.2,.2Zm.8,0v0l.2,-.2l-.2,-.2l-.2,.2Zm.8,0v0l.2,-.2l-.2,-.2l-.2,.2Zm.7,0v0l.2,-.2l-.2,-.2l-.2,.2Zm.8,0v0l.2,-.2l-.2,-.2l-.2,.2Zm.8,0v0l.1,-.2l-.1,-.2l-.2,.2Zm.7,0v0l.2,-.2l-.2,-.2l-.2,.2Zm.8,0v0l.2,-.2l-.2,-.2l-.2,.2Zm.8,0v0l.1,-.2l-.1,-.2l-.2,.2Zm.7,0v0l.2,-.2l-.2,-.2l-.2,.2Zm.8,0v0l.2,-.2l-.2,-.2l-.2,.2Zm.7,0v0l.2,-.2l-.2,-.2l-.1,.2Zm.8,0v0l.2,-.2l-.2,-.2l-.2,.2Zm.8,0v0l.2,-.2l-.2,-.2l-.2,.2Zm.7,0v0l.2,-.2l-.2,-.2l-.1,.2Zm.8,0v0l.2,-.2l-.2,-.2l-.2,.2Zm.8,0v0l.2,-.2l-.2,-.2l-.2,.2Zm.7,0v0l.2,-.2l-.2,-.2l-.2,.2Zm.8,0v0l.2,-.2l-.2,-.2l-.2,.2Zm.8,0v0l.2,-.2l-.2,-.2l-.2,.2Zm.7,0v0l.2,-.2l-.2,-.2l-.2,.2Zm.8,0v0l.2,-.2l-.2,-.2l-.2,.2Zm.8,0v0l.2,-.2l-.2,-.2l-.2,.2Zm.7,0v0l.2,-.2l-.2,-.2l-.2,.2Zm.8,0v0l.2,-.2l-.2,-.2l-.2,.2Zm.8,0v0l.1,-.2l-.1,-.2l-.2,.2Zm.7,0v0l.2,-.2l-.2,-.2l-.2,.2Zm.8,0v0l.2,-.2l-.2,-.2l-.2,.2Zm.8,0v0l.1,-.2l-.1,-.2l-.2,.2Zm.7,0v0l.2,-.2l-.2,-.2l-.2,.2Zm.8,0v0l.2,-.2l-.2,-.2l-.2,.2Zm.7,0v0l.2,-.2l-.2,-.2l-.1,.2Zm.8,0v0l.2,-.2l-.2,-.2l-.2,.2Zm.8,0v0l.2,-.2l-.2,-.2l-.2,.2Zm.7,0v0l.2,-.2l-.2,-.2l-.1,.2Zm.8,0v0l.2,-.2l-.2,-.2l-.2,.2Zm.8,0v0l.2,-.2l-.2,-.2l-.2,.2Zm.7,0v0l.2,-.2l-.2,-.2l-.2,.2Zm.8,0v0l.2,-.2l-.2,-.2l-.2,.2Zm.8,0v0l.2,-.2l-.2,-.2l-.2,.2Zm.7,0v0l.2,-.2l-.2,-.2l-.2,.2Zm.8,0v0l.2,-.2l-.2,-.2l-.2,.2Zm.8,0v0l.2,-.2l-.2,-.2l-.2,.2Zm.7,0v0l.2,-.2l-.2,-.2l-.2,.2Zm.8,0v0l.2,-.2l-.2,-.2l-.2,.2Zm.8,0v0l.2,-.2l-.2,-.2l-.2,.2Zm.7,0v0l.2,-.2l-.2,-.2l-.2,.2Zm.8,0v0l.2,-.2l-.2,-.2l-.2,.2Zm.8,0v0l.1,-.2l-.1,-.2l-.2,.2Zm.7,0v0l.2,-.2l-.2,-.2l-.2,.2Zm.8,0v0l.2,-.2l-.2,-.2l-.2,.2Zm.8,0v0l.1,-.2l-.1,-.2l-.2,.2Z" class="g4_22"/>
<path d="M180.2,1212.7h.1v-.3l-.1,-.1l-.2,.1v.3Zm68.8,0h.2v-.3l-.2,-.1l-.1,.1l-.1,.1l.1,.2Z" class="g4_22"/>
<path d="M249.8,1212.7v0l.2,-.2l-.2,-.2l-.2,.2Zm.7,0v0l.2,-.2l-.2,-.2l-.1,.2Zm.8,0v0l.2,-.2l-.2,-.2l-.2,.2Zm.8,0v0l.2,-.2l-.2,-.2l-.2,.2Zm.7,0v0l.2,-.2l-.2,-.2l-.1,.2Zm.8,0v0l.2,-.2l-.2,-.2l-.2,.2Zm.8,0v0l.2,-.2l-.2,-.2l-.2,.2Zm.7,0v0l.2,-.2l-.2,-.2l-.2,.2Zm.8,0v0l.2,-.2l-.2,-.2l-.2,.2Zm.8,0v0l.2,-.2l-.2,-.2l-.2,.2Zm.7,0v0l.2,-.2l-.2,-.2l-.2,.2Zm.8,0v0l.2,-.2l-.2,-.2l-.2,.2Zm.8,0v0l.2,-.2l-.2,-.2l-.2,.2Zm.7,0v0l.2,-.2l-.2,-.2l-.2,.2Zm.8,0v0l.2,-.2l-.2,-.2l-.2,.2Zm.8,0v0l.2,-.2l-.2,-.2l-.2,.2Zm.7,0v0l.2,-.2l-.2,-.2l-.2,.2Zm.8,0v0l.2,-.2l-.2,-.2l-.2,.2Zm.8,0v0l.1,-.2l-.1,-.2l-.2,.2Zm.7,0v0l.2,-.2l-.2,-.2l-.2,.2Zm.8,0v0l.2,-.2l-.2,-.2l-.2,.2Zm.8,0v0l.1,-.2l-.1,-.2l-.2,.2Zm.7,0v0l.2,-.2l-.2,-.2l-.2,.2Zm.8,0v0l.2,-.2l-.2,-.2l-.2,.2Zm.7,0v0l.2,-.2l-.2,-.2l-.1,.2Zm.8,0v0l.2,-.2l-.2,-.2l-.2,.2Zm.8,0v0l.2,-.2l-.2,-.2l-.2,.2Zm.7,0v0l.2,-.2l-.2,-.2l-.1,.2Zm.8,0v0l.2,-.2l-.2,-.2l-.2,.2Zm.8,0v0l.2,-.2l-.2,-.2l-.2,.2Zm.7,0v0l.2,-.2l-.2,-.2l-.2,.2Zm.8,0v0l.2,-.2l-.2,-.2l-.2,.2Zm.8,0v0l.2,-.2l-.2,-.2l-.2,.2Zm.7,0v0l.2,-.2l-.2,-.2l-.2,.2Zm.8,0v0l.2,-.2l-.2,-.2l-.2,.2Zm.8,0v0l.2,-.2l-.2,-.2l-.2,.2Zm.7,0v0l.2,-.2l-.2,-.2l-.2,.2Zm.8,0v0l.2,-.2l-.2,-.2l-.2,.2Zm.8,0v0l.2,-.2l-.2,-.2l-.2,.2Zm.7,0v0l.2,-.2l-.2,-.2l-.2,.2Zm.8,0v0l.2,-.2l-.2,-.2l-.2,.2Zm.8,0v0l.1,-.2l-.1,-.2l-.2,.2Zm.7,0v0l.2,-.2l-.2,-.2l-.2,.2Zm.8,0v0l.2,-.2l-.2,-.2l-.2,.2Zm.8,0v0l.1,-.2l-.1,-.2l-.2,.2Zm.7,0v0l.2,-.2l-.2,-.2l-.2,.2Zm.8,0v0l.2,-.2l-.2,-.2l-.2,.2Zm.7,0v0l.2,-.2l-.2,-.2l-.1,.2Zm.8,0v0l.2,-.2l-.2,-.2l-.2,.2Zm.8,0v0l.2,-.2l-.2,-.2l-.2,.2Zm.7,0v0l.2,-.2l-.2,-.2l-.1,.2Zm.8,0v0l.2,-.2l-.2,-.2l-.2,.2Zm.8,0v0l.2,-.2l-.2,-.2l-.2,.2Zm.7,0v0l.2,-.2l-.2,-.2l-.2,.2Zm.8,0v0l.2,-.2l-.2,-.2l-.2,.2Zm.8,0v0l.2,-.2l-.2,-.2l-.2,.2Zm.7,0v0l.2,-.2l-.2,-.2l-.2,.2Zm.8,0v0l.2,-.2l-.2,-.2l-.2,.2Zm.8,0v0l.2,-.2l-.2,-.2l-.2,.2Zm.7,0v0l.2,-.2l-.2,-.2l-.2,.2Zm.8,0v0l.2,-.2l-.2,-.2l-.2,.2Zm.8,0v0l.2,-.2l-.2,-.2l-.2,.2Zm.7,0v0l.2,-.2l-.2,-.2l-.2,.2Zm.8,0v0l.2,-.2l-.2,-.2l-.2,.2Zm.8,0v0l.1,-.2l-.1,-.2l-.2,.2Zm.7,0v0l.2,-.2l-.2,-.2l-.2,.2Zm.8,0v0l.2,-.2l-.2,-.2l-.2,.2Zm.8,0v0l.1,-.2l-.1,-.2l-.2,.2Zm.7,0v0l.2,-.2l-.2,-.2l-.2,.2Zm.8,0v0l.2,-.2l-.2,-.2l-.2,.2Zm.7,0v0l.2,-.2l-.2,-.2l-.1,.2Zm.8,0v0l.2,-.2l-.2,-.2l-.2,.2Zm.8,0v0l.2,-.2l-.2,-.2l-.2,.2Zm.7,0v0l.2,-.2l-.2,-.2l-.1,.2Zm.8,0v0l.2,-.2l-.2,-.2l-.2,.2Zm.8,0v0l.2,-.2l-.2,-.2l-.2,.2Z" class="g4_22"/>
<path d="M249,1212.7h.2v-.3l-.2,-.1l-.1,.1l-.1,.1l.1,.2Zm58.9,0h.2v-.3l-.2,-.1l-.1,.1l-.1,.1l.1,.2Z" class="g4_22"/>
<path d="M180.5,1246v-33.3h-.7V1246Z" class="g8_22"/>
<path clip-path="url(#c13_22)" d="M38.9,1194.7H180.2v-2.3H38.9Z" class="g4_22"/>
<path d="M39.8,1212.7v0l.2,-.2l-.2,-.2l-.2,.2Zm.8,0v0l.2,-.2l-.2,-.2l-.2,.2Zm.7,0v0l.2,-.2l-.2,-.2l-.2,.2Zm.8,0v0l.2,-.2l-.2,-.2l-.2,.2Zm.8,0v0l.2,-.2l-.2,-.2l-.2,.2Zm.7,0v0l.2,-.2l-.2,-.2l-.2,.2Zm.8,0v0l.2,-.2l-.2,-.2l-.2,.2Zm.8,0v0l.1,-.2l-.1,-.2l-.2,.2Zm.7,0v0l.2,-.2l-.2,-.2l-.2,.2Zm.8,0v0l.2,-.2l-.2,-.2l-.2,.2Zm.7,0v0l.2,-.2l-.2,-.2l-.1,.2Zm.8,0v0l.2,-.2l-.2,-.2l-.2,.2Zm.8,0v0l.2,-.2l-.2,-.2l-.2,.2Zm.7,0v0l.2,-.2l-.2,-.2l-.2,.2Zm.8,0v0l.2,-.2l-.2,-.2l-.2,.2Zm.8,0v0l.1,-.2l-.1,-.2l-.2,.2Zm.7,0v0l.2,-.2l-.2,-.2l-.2,.2Zm.8,0v0l.2,-.2l-.2,-.2l-.2,.2Zm.7,0v0l.2,-.2l-.2,-.2l-.1,.2Zm.8,0v0l.2,-.2l-.2,-.2l-.2,.2Zm.8,0v0l.2,-.2l-.2,-.2l-.2,.2Zm.7,0v0l.2,-.2l-.2,-.2l-.2,.2Zm.8,0v0l.2,-.2l-.2,-.2l-.2,.2Zm.8,0v0l.1,-.2l-.1,-.2l-.2,.2Zm.7,0v0l.2,-.2l-.2,-.2l-.2,.2Zm.8,0v0l.2,-.2l-.2,-.2l-.2,.2Zm.7,0v0l.2,-.2l-.2,-.2l-.1,.2Zm.8,0v0l.2,-.2l-.2,-.2l-.2,.2Zm.8,0v0l.2,-.2l-.2,-.2l-.2,.2Zm.7,0v0l.2,-.2l-.2,-.2l-.2,.2Zm.8,0v0l.2,-.2l-.2,-.2l-.2,.2Zm.8,0v0l.2,-.2l-.2,-.2l-.2,.2Zm.7,0v0l.2,-.2l-.2,-.2l-.2,.2Zm.8,0v0l.2,-.2l-.2,-.2l-.2,.2Zm.7,0v0l.2,-.2l-.2,-.2l-.1,.2Zm.8,0v0l.2,-.2l-.2,-.2l-.2,.2Zm.8,0v0l.2,-.2l-.2,-.2l-.2,.2Zm.7,0v0l.2,-.2l-.2,-.2l-.2,.2Zm.8,0v0l.2,-.2l-.2,-.2l-.2,.2Zm.8,0v0l.2,-.2l-.2,-.2l-.2,.2Zm.7,0v0l.2,-.2l-.2,-.2l-.2,.2Zm.8,0v0l.2,-.2l-.2,-.2l-.2,.2Zm.8,0v0l.1,-.2l-.1,-.2l-.2,.2Zm.7,0v0l.2,-.2l-.2,-.2l-.2,.2Zm.8,0v0l.2,-.2l-.2,-.2l-.2,.2Zm.7,0v0l.2,-.2l-.2,-.2l-.2,.2Zm.8,0v0l.2,-.2l-.2,-.2l-.2,.2Zm.8,0v0l.2,-.2l-.2,-.2l-.2,.2Zm.7,0v0l.2,-.2l-.2,-.2l-.2,.2Zm.8,0v0l.2,-.2l-.2,-.2l-.2,.2Zm.8,0v0l.1,-.2l-.1,-.2l-.2,.2Zm.7,0v0l.2,-.2l-.2,-.2l-.2,.2Zm.8,0v0l.2,-.2l-.2,-.2l-.2,.2Zm.7,0v0l.2,-.2l-.2,-.2l-.2,.2Zm.8,0v0l.2,-.2l-.2,-.2l-.2,.2Zm.8,0v0l.2,-.2l-.2,-.2l-.2,.2Zm.7,0v0l.2,-.2l-.2,-.2l-.2,.2Zm.8,0v0l.2,-.2l-.2,-.2l-.2,.2Zm.8,0v0l.1,-.2l-.1,-.2l-.2,.2Zm.7,0v0l.2,-.2l-.2,-.2l-.2,.2Zm.8,0v0l.2,-.2l-.2,-.2l-.2,.2Zm.7,0v0l.2,-.2l-.2,-.2l-.1,.2Zm.8,0v0l.2,-.2l-.2,-.2l-.2,.2Zm.8,0v0l.2,-.2l-.2,-.2l-.2,.2Zm.7,0v0l.2,-.2l-.2,-.2l-.2,.2Zm.8,0v0l.2,-.2l-.2,-.2l-.2,.2Zm.8,0v0l.1,-.2l-.1,-.2l-.2,.2Zm.7,0v0l.2,-.2l-.2,-.2l-.2,.2Zm.8,0v0l.2,-.2l-.2,-.2l-.2,.2Zm.7,0v0l.2,-.2l-.2,-.2l-.1,.2Zm.8,0v0l.2,-.2l-.2,-.2l-.2,.2Zm.8,0v0l.2,-.2l-.2,-.2l-.2,.2Zm.7,0v0l.2,-.2l-.2,-.2l-.2,.2Zm.8,0v0l.2,-.2l-.2,-.2l-.2,.2Zm.8,0v0l.1,-.2l-.1,-.2l-.2,.2Zm.7,0v0l.2,-.2l-.2,-.2l-.2,.2Zm.8,0v0l.2,-.2l-.2,-.2l-.2,.2Zm.7,0v0l.2,-.2l-.2,-.2l-.1,.2Zm.8,0v0l.2,-.2l-.2,-.2l-.2,.2Zm.8,0v0l.2,-.2l-.2,-.2l-.2,.2Zm.7,0v0l.2,-.2l-.2,-.2l-.2,.2Zm.8,0v0l.2,-.2l-.2,-.2l-.2,.2Zm.8,0v0l.2,-.2l-.2,-.2l-.2,.2Zm.7,0v0l.2,-.2l-.2,-.2l-.2,.2Zm.8,0v0l.2,-.2l-.2,-.2l-.2,.2Zm.7,0v0l.2,-.2l-.2,-.2l-.1,.2Zm.8,0v0l.2,-.2l-.2,-.2l-.2,.2Zm.8,0v0l.2,-.2l-.2,-.2l-.2,.2Zm.7,0v0l.2,-.2l-.2,-.2l-.2,.2Zm.8,0v0l.2,-.2l-.2,-.2l-.2,.2Zm.8,0v0l.2,-.2l-.2,-.2l-.2,.2Zm.7,0v0l.2,-.2l-.2,-.2l-.2,.2Zm.8,0v0l.2,-.2l-.2,-.2l-.2,.2Zm.7,0v0l.2,-.2l-.2,-.2l-.1,.2Zm.8,0v0l.2,-.2l-.2,-.2l-.2,.2Zm.8,0v0l.2,-.2l-.2,-.2l-.2,.2Zm.7,0v0l.2,-.2l-.2,-.2l-.2,.2Zm.8,0v0l.2,-.2l-.2,-.2l-.2,.2Zm.8,0v0l.2,-.2l-.2,-.2l-.2,.2Zm.7,0v0l.2,-.2l-.2,-.2l-.2,.2Zm.8,0v0l.2,-.2l-.2,-.2l-.2,.2Zm.8,0v0l.1,-.2l-.1,-.2l-.2,.2Zm.7,0v0l.2,-.2l-.2,-.2l-.2,.2Zm.8,0v0l.2,-.2l-.2,-.2l-.2,.2Zm.7,0v0l.2,-.2l-.2,-.2l-.2,.2Zm.8,0v0l.2,-.2l-.2,-.2l-.2,.2Zm.8,0v0l.2,-.2l-.2,-.2l-.2,.2Zm.7,0v0l.2,-.2l-.2,-.2l-.2,.2Zm.8,0v0l.2,-.2l-.2,-.2l-.2,.2Zm.8,0v0l.1,-.2l-.1,-.2l-.2,.2Zm.7,0v0l.2,-.2l-.2,-.2l-.2,.2Zm.8,0v0l.2,-.2l-.2,-.2l-.2,.2Zm.7,0v0l.2,-.2l-.2,-.2l-.1,.2Zm.8,0v0l.2,-.2l-.2,-.2l-.2,.2Zm.8,0v0l.2,-.2l-.2,-.2l-.2,.2Zm.7,0v0l.2,-.2l-.2,-.2l-.2,.2Zm.8,0v0l.2,-.2l-.2,-.2l-.2,.2Zm.8,0v0l.1,-.2l-.1,-.2l-.2,.2Zm.7,0v0l.2,-.2l-.2,-.2l-.2,.2Zm.8,0v0l.2,-.2l-.2,-.2l-.2,.2Zm.7,0v0l.2,-.2l-.2,-.2l-.1,.2Zm.8,0v0l.2,-.2l-.2,-.2l-.2,.2Zm.8,0v0l.2,-.2l-.2,-.2l-.2,.2Zm.7,0v0l.2,-.2l-.2,-.2l-.2,.2Zm.8,0v0l.2,-.2l-.2,-.2l-.2,.2Zm.8,0v0l.1,-.2l-.1,-.2l-.2,.2Zm.7,0v0l.2,-.2l-.2,-.2l-.2,.2Zm.8,0v0l.2,-.2l-.2,-.2l-.2,.2Zm.7,0v0l.2,-.2l-.2,-.2l-.1,.2Zm.8,0v0l.2,-.2l-.2,-.2l-.2,.2Zm.8,0v0l.2,-.2l-.2,-.2l-.2,.2Zm.7,0v0l.2,-.2l-.2,-.2l-.2,.2Zm.8,0v0l.2,-.2l-.2,-.2l-.2,.2Zm.8,0v0l.1,-.2l-.1,-.2l-.2,.2Zm.7,0v0l.2,-.2l-.2,-.2l-.2,.2Zm.8,0v0l.2,-.2l-.2,-.2l-.2,.2Zm.7,0v0l.2,-.2l-.2,-.2l-.1,.2Zm.8,0v0l.2,-.2l-.2,-.2l-.2,.2Zm.8,0v0l.2,-.2l-.2,-.2l-.2,.2Zm.7,0v0l.2,-.2l-.2,-.2l-.2,.2Zm.8,0v0l.2,-.2l-.2,-.2l-.2,.2Zm.8,0v0l.2,-.2l-.2,-.2l-.2,.2Zm.7,0v0l.2,-.2l-.2,-.2l-.2,.2Zm.8,0v0l.2,-.2l-.2,-.2l-.2,.2Zm.7,0v0l.2,-.2l-.2,-.2l-.1,.2Zm.8,0v0l.2,-.2l-.2,-.2l-.2,.2Zm.8,0v0l.2,-.2l-.2,-.2l-.2,.2Zm.7,0v0l.2,-.2l-.2,-.2l-.2,.2Zm.8,0v0l.2,-.2l-.2,-.2l-.2,.2Zm.8,0v0l.2,-.2l-.2,-.2l-.2,.2Zm.7,0v0l.2,-.2l-.2,-.2l-.2,.2Zm.8,0v0l.2,-.2l-.2,-.2l-.2,.2Zm.7,0v0l.2,-.2l-.2,-.2l-.1,.2Zm.8,0v0l.2,-.2l-.2,-.2l-.2,.2Zm.8,0v0l.2,-.2l-.2,-.2l-.2,.2Zm.7,0v0l.2,-.2l-.2,-.2l-.2,.2Zm.8,0v0l.2,-.2l-.2,-.2l-.2,.2Zm.8,0v0l.2,-.2l-.2,-.2l-.2,.2Zm.7,0v0l.2,-.2l-.2,-.2l-.2,.2Zm.8,0v0l.2,-.2l-.2,-.2l-.2,.2Zm.8,0v0l.1,-.2l-.1,-.2l-.2,.2Zm.7,0v0l.2,-.2l-.2,-.2l-.2,.2Zm.8,0v0l.2,-.2l-.2,-.2l-.2,.2Zm.7,0v0l.2,-.2l-.2,-.2l-.2,.2Zm.8,0v0l.2,-.2l-.2,-.2l-.2,.2Zm.8,0v0l.2,-.2l-.2,-.2l-.2,.2Zm.7,0v0l.2,-.2l-.2,-.2l-.2,.2Zm.8,0v0l.2,-.2l-.2,-.2l-.2,.2Zm.8,0v0l.1,-.2l-.1,-.2l-.2,.2Zm.7,0v0l.2,-.2l-.2,-.2l-.2,.2Zm.8,0v0l.2,-.2l-.2,-.2l-.2,.2Zm.7,0v0l.2,-.2l-.2,-.2l-.1,.2Zm.8,0v0l.2,-.2l-.2,-.2l-.2,.2Zm.8,0v0l.2,-.2l-.2,-.2l-.2,.2Zm.7,0v0l.2,-.2l-.2,-.2l-.2,.2Zm.8,0v0l.2,-.2l-.2,-.2l-.2,.2Zm.8,0v0l.1,-.2l-.1,-.2l-.2,.2Zm.7,0v0l.2,-.2l-.2,-.2l-.2,.2Zm.8,0v0l.2,-.2l-.2,-.2l-.2,.2Zm.7,0v0l.2,-.2l-.2,-.2l-.1,.2Zm.8,0v0l.2,-.2l-.2,-.2l-.2,.2Zm.8,0v0l.2,-.2l-.2,-.2l-.2,.2Zm.7,0v0l.2,-.2l-.2,-.2l-.2,.2Zm.8,0v0l.2,-.2l-.2,-.2l-.2,.2Z" class="g4_22"/>
<path clip-path="url(#c13_22)" d="M39.1,1212.7h.1v-.3l-.1,-.1l-.2,.1v.3Zm141.1,0h.1v-.3l-.1,-.1l-.2,.1v.3Z" class="g4_22"/>
<path d="M180.2,1194.7H249v-2.3H180.2Z" class="g4_22"/>
<path d="M249,1194.7h59.1v-2.3H249Z" class="g4_22"/>
<path d="M180.5,1168.2H249v-1.6H180.5Z" class="g3_22"/>
<path d="M249,1168.2h59.1v-1.6H249Z" class="g3_22"/>
<path d="M249.4,1166.6V1145h-.8v21.6Z" class="g8_22"/>
</svg>