<?xml version="1.0" encoding="UTF-8" standalone="no"?>
<!DOCTYPE svg PUBLIC "-//W3C//DTD SVG 1.1//EN"
"http://www.w3.org/Graphics/SVG/1.1/DTD/svg11.dtd">
<svg viewBox="0 0 1818 1286" version="1.1" xmlns="http://www.w3.org/2000/svg" xmlns:xlink="http://www.w3.org/1999/xlink">
<defs>
<clipPath id="c0_46"><path d="M1569.1,1243.4c-72.8,0,-131.8,-59,-131.8,-131.8c0,-72.9,59,-131.9,131.8,-131.9c72.8,0,131.9,59,131.9,131.9c0,72.8,-59.1,131.8,-131.9,131.8Z"/></clipPath>
<clipPath id="c1_46"><path d="M60.6,1250.1V975.7H866.1v274.4Z"/></clipPath>
<clipPath id="c2_46"><path d="M597,1109.5c0,0,-67.4,-48,-74.7,-58.4c-7.4,-10.4,-5.2,-4.8,-5.2,-43.8h1.7c0,0,1.6,-4.3,3.3,-4.3c0,0,.1,0,.2,0c2.6,-1.7,20.4,-23,21.6,-23c2.6,-2.6,6.1,-6.9,6.1,-6.9l3,-3c.5,-1.2,.6,-4.6,3.8,-4.6c2.5,0,6.9,2.1,14.9,8.9c18.1,15.6,97.8,77.1,105.2,84c-24.7,19.5,-79.9,51.1,-79.9,51.1Z"/></clipPath>
<style type="text/css"><![CDATA[
.g0_46{
fill: #FFF;
}
.g1_46{
fill: #F4F4F4;
}
.g2_46{
fill: #252123;
}
.g3_46{
fill: none;
stroke: #C6C6C6;
stroke-width: 0.381;
stroke-miterlimit: 10;
}
.g4_46{
fill: none;
stroke: #ADACAD;
stroke-width: 0.381;
stroke-miterlimit: 10;
}
.g5_46{
fill: none;
stroke: #000;
stroke-width: 3.393;
}
.g6_46{
fill: none;
stroke: #000;
stroke-width: 0.458;
}
.g7_46{
fill: #000;
}
]]></style>
</defs>
<path d="M58.8,970.1H949.5V94.3H58.8V970.1Z" class="g0_46"/>
<path d="M59,94.5h89.7V230.6H59V94.5Zm89.7,0H359.8V230.6H148.7V94.5Zm211.1,0h31.6V230.6H359.8V94.5Zm31.6,0h31.7V230.6H391.4V94.5Zm31.7,0h31.6V230.6H423.1V94.5Zm31.6,0h31.6V230.6H454.7V94.5Zm31.6,0H518V230.6H486.3V94.5Zm31.7,0h31.6V230.6H518V94.5Zm31.6,0h31.6V230.6H549.6V94.5Zm31.6,0h31.7V230.6H581.2V94.5Zm31.7,0h31.6V230.6H612.9V94.5Zm31.6,0h31.6V230.6H644.5V94.5Zm31.6,0h31.7V230.6H676.1V94.5Zm31.7,0h31.6V230.6H707.8V94.5Zm31.6,0H771V230.6H739.4V94.5Zm31.6,0h31.7V230.6H771V94.5Zm31.7,0h31.6V230.6H802.7V94.5Zm31.6,0H866V230.6H834.3V94.5Z" class="g1_46"/>
<path d="M59,230.6H866v31.6H59V230.6Zm0,233.7H866v31.6H59V464.3Zm0,170.5H866v31.6H59V634.8Z" class="g2_46"/>
<path d="M59,729.7H866v31.6H59V729.7Zm0,126.4H866v31.6H59V856.1Z" class="g2_46"/>
<path d="M359.8,293.6V262.2m31.6,31.4V262.2m31.7,31.4V262.2m31.6,31.4V262.2m31.6,31.4V262.2M518,293.6V262.2m31.6,31.4V262.2m31.6,31.4V262.2m31.7,31.4V262.2m31.6,31.4V262.2m31.6,31.4V262.2m31.7,31.4V262.2m31.6,31.4V262.2M771,293.6V262.2m31.7,31.4V262.2M59,293.8h89.7m0,0H359.8m0,0h31.6m-31.6,31.5V294m31.6,-.2h31.7m-31.7,31.5V294m31.7,-.2h31.6m-31.6,31.5V294m31.6,-.2h31.6m-31.6,31.5V294m31.6,-.2H518m-31.7,31.5V294m31.7,-.2h31.6M518,325.3V294m31.6,-.2h31.6m-31.6,31.5V294m31.6,-.2h31.7m-31.7,31.5V294m31.7,-.2h31.6m-31.6,31.5V294m31.6,-.2h31.6m-31.6,31.5V294m31.6,-.2h31.7m-31.7,31.5V294m31.7,-.2h31.6m-31.6,31.5V294m31.6,-.2H771m-31.6,31.5V294m31.6,-.2h31.7M771,325.3V294m31.7,-.2h31.6m-31.6,31.5V294M59,325.5h89.7m0,0H359.8m0,0h31.6m-31.6,31.4V325.6m31.6,-.1h31.7m-31.7,31.4V325.6m31.7,-.1h31.6m-31.6,31.4V325.6m31.6,-.1h31.6m-31.6,31.4V325.6m31.6,-.1H518m-31.7,31.4V325.6m31.7,-.1h31.6M518,356.9V325.6m31.6,-.1h31.6m-31.6,31.4V325.6m31.6,-.1h31.7m-31.7,31.4V325.6m31.7,-.1h31.6m-31.6,31.4V325.6m31.6,-.1h31.6m-31.6,31.4V325.6m31.6,-.1h31.7m-31.7,31.4V325.6m31.7,-.1h31.6m-31.6,31.4V325.6m31.6,-.1H771m-31.6,31.4V325.6m31.6,-.1h31.7M771,356.9V325.6m31.7,-.1h31.6m-31.6,31.4V325.6M59,357.1h89.7m0,0H359.8m0,0h31.6m-31.6,31.4V357.3m31.6,-.2h31.7m-31.7,31.4V357.3m31.7,-.2h31.6m-31.6,31.4V357.3m31.6,-.2h31.6m-31.6,31.4V357.3m31.6,-.2H518m-31.7,31.4V357.3m31.7,-.2h31.6M518,388.5V357.3m31.6,-.2h31.6m-31.6,31.4V357.3m31.6,-.2h31.7m-31.7,31.4V357.3m31.7,-.2h31.6m-31.6,31.4V357.3m31.6,-.2h31.6m-31.6,31.4V357.3m31.6,-.2h31.7m-31.7,31.4V357.3m31.7,-.2h31.6m-31.6,31.4V357.3m31.6,-.2H771m-31.6,31.4V357.3m31.6,-.2h31.7M771,388.5V357.3m31.7,-.2h31.6m-31.6,31.4V357.3M59,388.7h89.7m0,0H359.8m0,0h31.6m-31.6,43.8V388.9m31.6,-.2h31.7m-31.7,43.8V388.9m31.7,-.2h31.6m-31.6,43.8V388.9m31.6,-.2h31.6m-31.6,43.8V388.9m31.6,-.2H518m-31.7,43.8V388.9m31.7,-.2h31.6M518,432.5V388.9m31.6,-.2h31.6m-31.6,43.8V388.9m31.6,-.2h31.7m-31.7,43.8V388.9m31.7,-.2h31.6m-31.6,43.8V388.9m31.6,-.2h31.6m-31.6,43.8V388.9m31.6,-.2h31.7m-31.7,43.8V388.9m31.7,-.2h31.6m-31.6,43.8V388.9m31.6,-.2H771m-31.6,43.8V388.9m31.6,-.2h31.7M771,432.5V388.9m31.7,-.2h31.6m-31.6,43.8V388.9M59,432.7h89.7m0,0H359.8m0,0h31.6m-31.6,31.4V432.9m31.6,-.2h31.7m-31.7,31.4V432.9m31.7,-.2h31.6m-31.6,31.4V432.9m31.6,-.2h31.6m-31.6,31.4V432.9m31.6,-.2H518m-31.7,31.4V432.9m31.7,-.2h31.6M518,464.1V432.9m31.6,-.2h31.6m-31.6,31.4V432.9m31.6,-.2h31.7m-31.7,31.4V432.9m31.7,-.2h31.6m-31.6,31.4V432.9m31.6,-.2h31.6m-31.6,31.4V432.9m31.6,-.2h31.7m-31.7,31.4V432.9m31.7,-.2h31.6m-31.6,31.4V432.9m31.6,-.2H771m-31.6,31.4V432.9m31.6,-.2h31.7M771,464.1V432.9m31.7,-.2h31.6m-31.6,31.4V432.9M359.8,539.8V495.9m31.6,43.9V495.9m31.7,43.9V495.9m31.6,43.9V495.9m31.6,43.9V495.9M518,539.8V495.9m31.6,43.9V495.9m31.6,43.9V495.9m31.7,43.9V495.9m31.6,43.9V495.9m31.6,43.9V495.9m31.7,43.9V495.9m31.6,43.9V495.9M771,539.8V495.9m31.7,43.9V495.9M59,540h89.7m0,0H359.8m0,0h31.6m-31.6,31.4V540.2m31.6,-.2h31.7m-31.7,31.4V540.2m31.7,-.2h31.6m-31.6,31.4V540.2m31.6,-.2h31.6m-31.6,31.4V540.2m31.6,-.2H518m-31.7,31.4V540.2M518,540h31.6M518,571.4V540.2m31.6,-.2h31.6m-31.6,31.4V540.2m31.6,-.2h31.7m-31.7,31.4V540.2m31.7,-.2h31.6m-31.6,31.4V540.2m31.6,-.2h31.6m-31.6,31.4V540.2m31.6,-.2h31.7m-31.7,31.4V540.2m31.7,-.2h31.6m-31.6,31.4V540.2m31.6,-.2H771m-31.6,31.4V540.2M771,540h31.7M771,571.4V540.2m31.7,-.2h31.6m-31.6,31.4V540.2M59,571.6h89.7m0,0H359.8m0,0h31.6M359.8,603V571.8m31.6,-.2h31.7M391.4,603V571.8m31.7,-.2h31.6M423.1,603V571.8m31.6,-.2h31.6M454.7,603V571.8m31.6,-.2H518M486.3,603V571.8m31.7,-.2h31.6M518,603V571.8m31.6,-.2h31.6M549.6,603V571.8m31.6,-.2h31.7M581.2,603V571.8m31.7,-.2h31.6M612.9,603V571.8m31.6,-.2h31.6M644.5,603V571.8m31.6,-.2h31.7M676.1,603V571.8m31.7,-.2h31.6M707.8,603V571.8m31.6,-.2H771M739.4,603V571.8m31.6,-.2h31.7M771,603V571.8m31.7,-.2h31.6M802.7,603V571.8M59,603.2h89.7m0,0H359.8m0,0h31.6m-31.6,31.4V603.4m31.6,-.2h31.7m-31.7,31.4V603.4m31.7,-.2h31.6m-31.6,31.4V603.4m31.6,-.2h31.6m-31.6,31.4V603.4m31.6,-.2H518m-31.7,31.4V603.4m31.7,-.2h31.6M518,634.6V603.4m31.6,-.2h31.6m-31.6,31.4V603.4m31.6,-.2h31.7m-31.7,31.4V603.4m31.7,-.2h31.6m-31.6,31.4V603.4m31.6,-.2h31.6m-31.6,31.4V603.4m31.6,-.2h31.7m-31.7,31.4V603.4m31.7,-.2h31.6m-31.6,31.4V603.4m31.6,-.2H771m-31.6,31.4V603.4m31.6,-.2h31.7M771,634.6V603.4m31.7,-.2h31.6m-31.6,31.4V603.4M59,634.8h89.7m0,0H359.8m0,0h31.6m0,0h31.7m0,0h31.6m0,0h31.6m0,0H518m0,0h31.6m0,0h31.6m0,0h31.7m0,0h31.6m0,0h31.6m0,0h31.7m0,0h31.6m0,0H771m0,0h31.7m0,0h31.6M59,666.4h89.7m0,0H359.8m0,0h31.6m-31.6,31.4V666.6m31.6,-.2h31.7m-31.7,31.4V666.6m31.7,-.2h31.6m-31.6,31.4V666.6m31.6,-.2h31.6m-31.6,31.4V666.6m31.6,-.2H518m-31.7,31.4V666.6m31.7,-.2h31.6M518,697.8V666.6m31.6,-.2h31.6m-31.6,31.4V666.6m31.6,-.2h31.7m-31.7,31.4V666.6m31.7,-.2h31.6m-31.6,31.4V666.6m31.6,-.2h31.6m-31.6,31.4V666.6m31.6,-.2h31.7m-31.7,31.4V666.6m31.7,-.2h31.6m-31.6,31.4V666.6m31.6,-.2H771m-31.6,31.4V666.6m31.6,-.2h31.7M771,697.8V666.6m31.7,-.2h31.6m-31.6,31.4V666.6M59,698h89.7m0,0H359.8m0,0h31.6m-31.6,31.5V698.2m31.6,-.2h31.7m-31.7,31.5V698.2m31.7,-.2h31.6m-31.6,31.5V698.2m31.6,-.2h31.6m-31.6,31.5V698.2m31.6,-.2H518m-31.7,31.5V698.2M518,698h31.6M518,729.5V698.2m31.6,-.2h31.6m-31.6,31.5V698.2m31.6,-.2h31.7m-31.7,31.5V698.2m31.7,-.2h31.6m-31.6,31.5V698.2m31.6,-.2h31.6m-31.6,31.5V698.2m31.6,-.2h31.7m-31.7,31.5V698.2m31.7,-.2h31.6m-31.6,31.5V698.2m31.6,-.2H771m-31.6,31.5V698.2M771,698h31.7M771,729.5V698.2m31.7,-.2h31.6m-31.6,31.5V698.2M59,729.7h89.7m0,0H359.8m0,0h31.6m0,0h31.7m0,0h31.6m0,0h31.6m0,0H518m0,0h31.6m0,0h31.6m0,0h31.7m0,0h31.6m0,0h31.6m0,0h31.7m0,0h31.6m0,0H771m0,0h31.7m0,0h31.6M59,761.3h89.7m0,0H359.8m0,0h31.6m-31.6,31.4V761.5m31.6,-.2h31.7m-31.7,31.4V761.5m31.7,-.2h31.6m-31.6,31.4V761.5m31.6,-.2h31.6m-31.6,31.4V761.5m31.6,-.2H518m-31.7,31.4V761.5m31.7,-.2h31.6M518,792.7V761.5m31.6,-.2h31.6m-31.6,31.4V761.5m31.6,-.2h31.7m-31.7,31.4V761.5m31.7,-.2h31.6m-31.6,31.4V761.5m31.6,-.2h31.6m-31.6,31.4V761.5m31.6,-.2h31.7m-31.7,31.4V761.5m31.7,-.2h31.6m-31.6,31.4V761.5m31.6,-.2H771m-31.6,31.4V761.5m31.6,-.2h31.7M771,792.7V761.5m31.7,-.2h31.6m-31.6,31.4V761.5M59,792.9h89.7m0,0H359.8m0,0h31.6m-31.6,31.4V793.1m31.6,-.2h31.7m-31.7,31.4V793.1m31.7,-.2h31.6m-31.6,31.4V793.1m31.6,-.2h31.6m-31.6,31.4V793.1m31.6,-.2H518m-31.7,31.4V793.1m31.7,-.2h31.6M518,824.3V793.1m31.6,-.2h31.6m-31.6,31.4V793.1m31.6,-.2h31.7m-31.7,31.4V793.1m31.7,-.2h31.6m-31.6,31.4V793.1m31.6,-.2h31.6m-31.6,31.4V793.1m31.6,-.2h31.7m-31.7,31.4V793.1m31.7,-.2h31.6m-31.6,31.4V793.1m31.6,-.2H771m-31.6,31.4V793.1m31.6,-.2h31.7M771,824.3V793.1m31.7,-.2h31.6m-31.6,31.4V793.1M59,824.5h89.7m0,0H359.8m0,0h31.6m-31.6,31.4V824.7m31.6,-.2h31.7m-31.7,31.4V824.7m31.7,-.2h31.6m-31.6,31.4V824.7m31.6,-.2h31.6m-31.6,31.4V824.7m31.6,-.2H518m-31.7,31.4V824.7m31.7,-.2h31.6M518,855.9V824.7m31.6,-.2h31.6m-31.6,31.4V824.7m31.6,-.2h31.7m-31.7,31.4V824.7m31.7,-.2h31.6m-31.6,31.4V824.7m31.6,-.2h31.6m-31.6,31.4V824.7m31.6,-.2h31.7m-31.7,31.4V824.7m31.7,-.2h31.6m-31.6,31.4V824.7m31.6,-.2H771m-31.6,31.4V824.7m31.6,-.2h31.7M771,855.9V824.7m31.7,-.2h31.6m-31.6,31.4V824.7M59,856.1h89.7m0,0H359.8m0,0h31.6m0,0h31.7m0,0h31.6m0,0h31.6m0,0H518m0,0h31.6m0,0h31.6m0,0h31.7m0,0h31.6m0,0h31.6m0,0h31.7m0,0h31.6m0,0H771m0,0h31.7m0,0h31.6M59,887.7h89.7m0,0H359.8m0,0h31.6m-31.6,31.4V887.9m31.6,-.2h31.7m-31.7,31.4V887.9m31.7,-.2h31.6m-31.6,31.4V887.9m31.6,-.2h31.6m-31.6,31.4V887.9m31.6,-.2H518m-31.7,31.4V887.9m31.7,-.2h31.6M518,919.1V887.9m31.6,-.2h31.6m-31.6,31.4V887.9m31.6,-.2h31.7m-31.7,31.4V887.9m31.7,-.2h31.6m-31.6,31.4V887.9m31.6,-.2h31.6m-31.6,31.4V887.9m31.6,-.2h31.7m-31.7,31.4V887.9m31.7,-.2h31.6m-31.6,31.4V887.9m31.6,-.2H771m-31.6,31.4V887.9m31.6,-.2h31.7M771,919.1V887.9m31.7,-.2h31.6m-31.6,31.4V887.9M59,919.3h89.7m0,0H359.8m0,0h31.6m-31.6,31.5V919.5m31.6,-.2h31.7m-31.7,31.5V919.5m31.7,-.2h31.6m-31.6,31.5V919.5m31.6,-.2h31.6m-31.6,31.5V919.5m31.6,-.2H518m-31.7,31.5V919.5m31.7,-.2h31.6M518,950.8V919.5m31.6,-.2h31.6m-31.6,31.5V919.5m31.6,-.2h31.7m-31.7,31.5V919.5m31.7,-.2h31.6m-31.6,31.5V919.5m31.6,-.2h31.6m-31.6,31.5V919.5m31.6,-.2h31.7m-31.7,31.5V919.5m31.7,-.2h31.6m-31.6,31.5V919.5m31.6,-.2H771m-31.6,31.5V919.5m31.6,-.2h31.7M771,950.8V919.5m31.7,-.2h31.6m-31.6,31.5V919.5M59,951h89.7m0,0H359.8m0,0h31.6m0,0h31.7m0,0h31.6m0,0h31.6m0,0H518m0,0h31.6m0,0h31.6m0,0h31.7m0,0h31.6m0,0h31.6m0,0h31.7m0,0h31.6m0,0H771m0,0h31.7m0,0h31.6M148.7,293.6V262.2m0,63.1V294m0,62.9V325.6m0,62.9V357.3m0,75.2V388.9m0,75.2V432.9m0,106.9V495.9m0,75.5V540.2m0,62.8V571.8m0,62.8V603.4m0,94.4V666.6m0,62.9V698.2m0,94.5V761.5m0,62.8V793.1m0,62.8V824.7m0,94.4V887.9m0,62.9V919.5M866,262.2V230.8m-31.7,62.8V262.2M866,293.6V262.2m-31.7,31.6h31.8m-31.8,31.5V294M866,325.3V294m-31.7,31.5h31.8m-31.8,31.4V325.6M866,356.9V325.6m-31.7,31.5h31.8m-31.8,31.4V357.3M866,388.5V357.3m-31.7,31.4h31.8m-31.8,43.8V388.9M866,432.5V388.9m-31.7,43.8h31.8m-31.8,31.4V432.9M866,464.1V432.9m0,63V464.5m-31.7,75.3V495.9M866,539.8V495.9M834.3,540h31.8m-31.8,31.4V540.2M866,571.4V540.2m-31.7,31.4h31.8M834.3,603V571.8M866,603V571.8m-31.7,31.4h31.8m-31.8,31.4V603.4M866,634.6V603.4m-31.7,31.4h31.8m-.1,31.4V635m-31.7,31.4h31.8m-31.8,31.4V666.6M866,697.8V666.6M834.3,698h31.8m-31.8,31.5V698.2M866,729.5V698.2m-31.7,94.5V761.5M866,792.7V761.5m-31.7,31.4h31.8m-31.8,31.4V793.1M866,824.3V793.1m-31.7,31.4h31.8m-31.8,31.4V824.7M866,855.9V824.7m-31.7,-95h31.8m-.1,31.4V729.8m-31.7,31.5h31.8m-31.8,94.8h31.8m-.1,31.4V856.3m-31.7,31.4h31.8m-31.8,31.4V887.9M866,919.1V887.9m-31.7,31.4h31.8m-31.8,31.5V919.5M866,950.8V919.5M834.3,951h31.8" class="g3_46"/>
<path d="M58.8,94.5h89.9M59,230.4V94.7m89.7,-.2H359.8M148.7,230.4V94.7m211.1,-.2h31.6M359.8,230.4V94.7m31.6,-.2h31.7M391.4,230.4V94.7m31.7,-.2h31.6M423.1,230.4V94.7m31.6,-.2h31.6M454.7,230.4V94.7m31.6,-.2H518M486.3,230.4V94.7M518,94.5h31.6M518,230.4V94.7m31.6,-.2h31.6M549.6,230.4V94.7m31.6,-.2h31.7M581.2,230.4V94.7m31.7,-.2h31.6M612.9,230.4V94.7m31.6,-.2h31.6M644.5,230.4V94.7m31.6,-.2h31.7M676.1,230.4V94.7m31.7,-.2h31.6M707.8,230.4V94.7m31.6,-.2H771M739.4,230.4V94.7M771,94.5h31.7M771,230.4V94.7m31.7,-.2h31.6M802.7,230.4V94.7m31.6,-.2h31.8M834.3,230.4V94.7M866,230.4V94.7M58.8,230.6h89.9m0,0H359.8m0,0h31.6m0,0h31.7m0,0h31.6m0,0h31.6m0,0H518m0,0h31.6m0,0h31.6m0,0h31.7m0,0h31.6m0,0h31.6m0,0h31.7m0,0h31.6m0,0H771m0,0h31.7m0,0h31.6m0,0h31.8" class="g4_46"/>
<path d="M59,464.3h89.7m0,0H359.8m0,0h31.6m0,0h31.7m0,0h31.6m0,0h31.6m0,0H518m0,0h31.6m0,0h31.6m0,0h31.7m0,0h31.6m0,0h31.6m0,0h31.7m0,0h31.6m0,0H771m0,0h31.7m0,0h31.6m0,0h31.8" class="g3_46"/>
<path d="M949.7,94.5h89.7V230.6H949.7V94.5Zm89.7,0h211.1V230.6H1039.4V94.5Zm211.1,0h31.6V230.6h-31.6V94.5Zm31.6,0h31.7V230.6h-31.7V94.5Zm31.7,0h31.6V230.6h-31.6V94.5Zm31.6,0H1377V230.6h-31.6V94.5Zm31.6,0h31.7V230.6H1377V94.5Zm31.7,0h31.6V230.6h-31.6V94.5Zm31.6,0h31.6V230.6h-31.6V94.5Zm31.6,0h31.7V230.6h-31.7V94.5Zm31.7,0h31.6V230.6h-31.6V94.5Zm31.6,0h31.6V230.6h-31.6V94.5Zm31.6,0h31.7V230.6h-31.7V94.5Zm31.7,0h31.6V230.6h-31.6V94.5Zm31.6,0h31.6V230.6h-31.6V94.5Zm31.6,0h31.7V230.6h-31.7V94.5Zm31.7,0H1725V230.6h-31.6V94.5Zm31.6,0h31.6V230.6H1725V94.5Z" class="g1_46"/>
<path d="M949.7,230.6h806.9v30.3H949.7V230.6Zm0,526.2h806.9v30.3H949.7V756.8Z" class="g2_46"/>
<path d="M949.7,260.9h89.7m0,0h211.1m0,0h31.6m-31.6,43.9V261.1m31.6,-.2h31.7m-31.7,43.9V261.1m31.7,-.2h31.6m-31.6,43.9V261.1m31.6,-.2H1377m-31.6,43.9V261.1m31.6,-.2h31.7M1377,304.8V261.1m31.7,-.2h31.6m-31.6,43.9V261.1m31.6,-.2h31.6m-31.6,43.9V261.1m31.6,-.2h31.7m-31.7,43.9V261.1m31.7,-.2h31.6m-31.6,43.9V261.1m31.6,-.2h31.6m-31.6,43.9V261.1m31.6,-.2h31.7m-31.7,43.9V261.1m31.7,-.2h31.6m-31.6,43.9V261.1m31.6,-.2h31.6m-31.6,43.9V261.1m31.6,-.2h31.7m-31.7,43.9V261.1m31.7,-.2H1725m-31.6,43.9V261.1M949.7,305h89.7m0,0h211.1m0,0h31.6m-31.6,30.1v-30m31.6,-.1h31.7m-31.7,30.1v-30m31.7,-.1h31.6m-31.6,30.1v-30m31.6,-.1H1377m-31.6,30.1v-30M1377,305h31.7M1377,335.1v-30m31.7,-.1h31.6m-31.6,30.1v-30m31.6,-.1h31.6m-31.6,30.1v-30m31.6,-.1h31.7m-31.7,30.1v-30m31.7,-.1h31.6m-31.6,30.1v-30m31.6,-.1h31.6m-31.6,30.1v-30m31.6,-.1h31.7m-31.7,30.1v-30m31.7,-.1h31.6m-31.6,30.1v-30m31.6,-.1h31.6m-31.6,30.1v-30m31.6,-.1h31.7m-31.7,30.1v-30m31.7,-.1H1725m-31.6,30.1v-30M949.7,335.3h89.7m0,0h211.1m0,0h31.6m-31.6,30.1V335.5m31.6,-.2h31.7m-31.7,30.1V335.5m31.7,-.2h31.6m-31.6,30.1V335.5m31.6,-.2H1377m-31.6,30.1V335.5m31.6,-.2h31.7M1377,365.4V335.5m31.7,-.2h31.6m-31.6,30.1V335.5m31.6,-.2h31.6m-31.6,30.1V335.5m31.6,-.2h31.7m-31.7,30.1V335.5m31.7,-.2h31.6m-31.6,30.1V335.5m31.6,-.2h31.6m-31.6,30.1V335.5m31.6,-.2h31.7m-31.7,30.1V335.5m31.7,-.2h31.6m-31.6,30.1V335.5m31.6,-.2h31.6m-31.6,30.1V335.5m31.6,-.2h31.7m-31.7,30.1V335.5m31.7,-.2H1725m-31.6,30.1V335.5M949.7,365.6h89.7m0,0h211.1m0,0h31.6m-31.6,30.1V365.8m31.6,-.2h31.7m-31.7,30.1V365.8m31.7,-.2h31.6m-31.6,30.1V365.8m31.6,-.2H1377m-31.6,30.1V365.8m31.6,-.2h31.7M1377,395.7V365.8m31.7,-.2h31.6m-31.6,30.1V365.8m31.6,-.2h31.6m-31.6,30.1V365.8m31.6,-.2h31.7m-31.7,30.1V365.8m31.7,-.2h31.6m-31.6,30.1V365.8m31.6,-.2h31.6m-31.6,30.1V365.8m31.6,-.2h31.7m-31.7,30.1V365.8m31.7,-.2h31.6m-31.6,30.1V365.8m31.6,-.2h31.6m-31.6,30.1V365.8m31.6,-.2h31.7m-31.7,30.1V365.8m31.7,-.2H1725m-31.6,30.1V365.8M949.7,395.9h89.7m0,0h211.1m0,0h31.6M1250.5,426V396.1m31.6,-.2h31.7M1282.1,426V396.1m31.7,-.2h31.6M1313.8,426V396.1m31.6,-.2H1377M1345.4,426V396.1m31.6,-.2h31.7M1377,426V396.1m31.7,-.2h31.6M1408.7,426V396.1m31.6,-.2h31.6M1440.3,426V396.1m31.6,-.2h31.7M1471.9,426V396.1m31.7,-.2h31.6M1503.6,426V396.1m31.6,-.2h31.6M1535.2,426V396.1m31.6,-.2h31.7M1566.8,426V396.1m31.7,-.2h31.6M1598.5,426V396.1m31.6,-.2h31.6M1630.1,426V396.1m31.6,-.2h31.7M1661.7,426V396.1m31.7,-.2H1725M1693.4,426V396.1M949.7,426.2h89.7m0,0h211.1m0,0h31.6m-31.6,30.1V426.4m31.6,-.2h31.7m-31.7,30.1V426.4m31.7,-.2h31.6m-31.6,30.1V426.4m31.6,-.2H1377m-31.6,30.1V426.4m31.6,-.2h31.7M1377,456.3V426.4m31.7,-.2h31.6m-31.6,30.1V426.4m31.6,-.2h31.6m-31.6,30.1V426.4m31.6,-.2h31.7m-31.7,30.1V426.4m31.7,-.2h31.6m-31.6,30.1V426.4m31.6,-.2h31.6m-31.6,30.1V426.4m31.6,-.2h31.7m-31.7,30.1V426.4m31.7,-.2h31.6m-31.6,30.1V426.4m31.6,-.2h31.6m-31.6,30.1V426.4m31.6,-.2h31.7m-31.7,30.1V426.4m31.7,-.2H1725m-31.6,30.1V426.4M949.7,456.5h89.7m0,0h211.1m0,0h31.6m-31.6,30.2v-30m31.6,-.2h31.7m-31.7,30.2v-30m31.7,-.2h31.6m-31.6,30.2v-30m31.6,-.2H1377m-31.6,30.2v-30m31.6,-.2h31.7M1377,486.7v-30m31.7,-.2h31.6m-31.6,30.2v-30m31.6,-.2h31.6m-31.6,30.2v-30m31.6,-.2h31.7m-31.7,30.2v-30m31.7,-.2h31.6m-31.6,30.2v-30m31.6,-.2h31.6m-31.6,30.2v-30m31.6,-.2h31.7m-31.7,30.2v-30m31.7,-.2h31.6m-31.6,30.2v-30m31.6,-.2h31.6m-31.6,30.2v-30m31.6,-.2h31.7m-31.7,30.2v-30m31.7,-.2H1725m-31.6,30.2v-30M949.7,486.8h89.7m0,0h211.1m0,0h31.6M1250.5,517V487m31.6,-.2h31.7M1282.1,517V487m31.7,-.2h31.6M1313.8,517V487m31.6,-.2H1377M1345.4,517V487m31.6,-.2h31.7M1377,517V487m31.7,-.2h31.6M1408.7,517V487m31.6,-.2h31.6M1440.3,517V487m31.6,-.2h31.7M1471.9,517V487m31.7,-.2h31.6M1503.6,517V487m31.6,-.2h31.6M1535.2,517V487m31.6,-.2h31.7M1566.8,517V487m31.7,-.2h31.6M1598.5,517V487m31.6,-.2h31.6M1630.1,517V487m31.6,-.2h31.7M1661.7,517V487m31.7,-.2H1725M1693.4,517V487M949.7,517.2h89.7m0,0h211.1m0,0h31.6m-31.6,30.1v-30m31.6,-.1h31.7m-31.7,30.1v-30m31.7,-.1h31.6m-31.6,30.1v-30m31.6,-.1H1377m-31.6,30.1v-30m31.6,-.1h31.7M1377,547.3v-30m31.7,-.1h31.6m-31.6,30.1v-30m31.6,-.1h31.6m-31.6,30.1v-30m31.6,-.1h31.7m-31.7,30.1v-30m31.7,-.1h31.6m-31.6,30.1v-30m31.6,-.1h31.6m-31.6,30.1v-30m31.6,-.1h31.7m-31.7,30.1v-30m31.7,-.1h31.6m-31.6,30.1v-30m31.6,-.1h31.6m-31.6,30.1v-30m31.6,-.1h31.7m-31.7,30.1v-30m31.7,-.1H1725m-31.6,30.1v-30M949.7,547.5h89.7m0,0h211.1m0,0h31.6m-31.6,43.8V547.7m31.6,-.2h31.7m-31.7,43.8V547.7m31.7,-.2h31.6m-31.6,43.8V547.7m31.6,-.2H1377m-31.6,43.8V547.7m31.6,-.2h31.7M1377,591.3V547.7m31.7,-.2h31.6m-31.6,43.8V547.7m31.6,-.2h31.6m-31.6,43.8V547.7m31.6,-.2h31.7m-31.7,43.8V547.7m31.7,-.2h31.6m-31.6,43.8V547.7m31.6,-.2h31.6m-31.6,43.8V547.7m31.6,-.2h31.7m-31.7,43.8V547.7m31.7,-.2h31.6m-31.6,43.8V547.7m31.6,-.2h31.6m-31.6,43.8V547.7m31.6,-.2h31.7m-31.7,43.8V547.7m31.7,-.2H1725m-31.6,43.8V547.7M949.7,591.5h89.7m0,0h211.1m0,0h31.6m-31.6,30.1V591.7m31.6,-.2h31.7m-31.7,30.1V591.7m31.7,-.2h31.6m-31.6,30.1V591.7m31.6,-.2H1377m-31.6,30.1V591.7m31.6,-.2h31.7M1377,621.6V591.7m31.7,-.2h31.6m-31.6,30.1V591.7m31.6,-.2h31.6m-31.6,30.1V591.7m31.6,-.2h31.7m-31.7,30.1V591.7m31.7,-.2h31.6m-31.6,30.1V591.7m31.6,-.2h31.6m-31.6,30.1V591.7m31.6,-.2h31.7m-31.7,30.1V591.7m31.7,-.2h31.6m-31.6,30.1V591.7m31.6,-.2h31.6m-31.6,30.1V591.7m31.6,-.2h31.7m-31.7,30.1V591.7m31.7,-.2H1725m-31.6,30.1V591.7M949.7,621.8h89.7m0,0h211.1m0,0h31.6m-31.6,30.1V622m31.6,-.2h31.7m-31.7,30.1V622m31.7,-.2h31.6m-31.6,30.1V622m31.6,-.2H1377m-31.6,30.1V622m31.6,-.2h31.7M1377,651.9V622m31.7,-.2h31.6m-31.6,30.1V622m31.6,-.2h31.6m-31.6,30.1V622m31.6,-.2h31.7m-31.7,30.1V622m31.7,-.2h31.6m-31.6,30.1V622m31.6,-.2h31.6m-31.6,30.1V622m31.6,-.2h31.7m-31.7,30.1V622m31.7,-.2h31.6m-31.6,30.1V622m31.6,-.2h31.6m-31.6,30.1V622m31.6,-.2h31.7m-31.7,30.1V622m31.7,-.2H1725m-31.6,30.1V622M949.7,652.1h89.7m0,0h211.1m0,0h31.6m-31.6,30.2v-30m31.6,-.2h31.7m-31.7,30.2v-30m31.7,-.2h31.6m-31.6,30.2v-30m31.6,-.2H1377m-31.6,30.2v-30m31.6,-.2h31.7M1377,682.3v-30m31.7,-.2h31.6m-31.6,30.2v-30m31.6,-.2h31.6m-31.6,30.2v-30m31.6,-.2h31.7m-31.7,30.2v-30m31.7,-.2h31.6m-31.6,30.2v-30m31.6,-.2h31.6m-31.6,30.2v-30m31.6,-.2h31.7m-31.7,30.2v-30m31.7,-.2h31.6m-31.6,30.2v-30m31.6,-.2h31.6m-31.6,30.2v-30m31.6,-.2h31.7m-31.7,30.2v-30m31.7,-.2H1725m-31.6,30.2v-30M949.7,682.4h89.7m0,0h211.1m0,0h31.6m-31.6,30.2v-30m31.6,-.2h31.7m-31.7,30.2v-30m31.7,-.2h31.6m-31.6,30.2v-30m31.6,-.2H1377m-31.6,30.2v-30m31.6,-.2h31.7M1377,712.6v-30m31.7,-.2h31.6m-31.6,30.2v-30m31.6,-.2h31.6m-31.6,30.2v-30m31.6,-.2h31.7m-31.7,30.2v-30m31.7,-.2h31.6m-31.6,30.2v-30m31.6,-.2h31.6m-31.6,30.2v-30m31.6,-.2h31.7m-31.7,30.2v-30m31.7,-.2h31.6m-31.6,30.2v-30m31.6,-.2h31.6m-31.6,30.2v-30m31.6,-.2h31.7m-31.7,30.2v-30m31.7,-.2H1725m-31.6,30.2v-30M949.7,712.8h89.7m0,0h211.1m0,0h31.6m-31.6,43.8V713m31.6,-.2h31.7m-31.7,43.8V713m31.7,-.2h31.6m-31.6,43.8V713m31.6,-.2H1377m-31.6,43.8V713m31.6,-.2h31.7M1377,756.6V713m31.7,-.2h31.6m-31.6,43.8V713m31.6,-.2h31.6m-31.6,43.8V713m31.6,-.2h31.7m-31.7,43.8V713m31.7,-.2h31.6m-31.6,43.8V713m31.6,-.2h31.6m-31.6,43.8V713m31.6,-.2h31.7m-31.7,43.8V713m31.7,-.2h31.6m-31.6,43.8V713m31.6,-.2h31.6m-31.6,43.8V713m31.6,-.2h31.7m-31.7,43.8V713m31.7,-.2H1725m-31.6,43.8V713M949.7,756.8h89.7m0,0h211.1m0,0h31.6m0,0h31.7m0,0h31.6m0,0H1377m0,0h31.7m0,0h31.6m0,0h31.6m0,0h31.7m0,0h31.6m0,0h31.6m0,0h31.7m0,0h31.6m0,0h31.6m0,0h31.7m0,0H1725M949.7,787.1h89.7m0,0h211.1m0,0h31.6m-31.6,30.1V787.3m31.6,-.2h31.7m-31.7,30.1V787.3m31.7,-.2h31.6m-31.6,30.1V787.3m31.6,-.2H1377m-31.6,30.1V787.3m31.6,-.2h31.7M1377,817.2V787.3m31.7,-.2h31.6m-31.6,30.1V787.3m31.6,-.2h31.6m-31.6,30.1V787.3m31.6,-.2h31.7m-31.7,30.1V787.3m31.7,-.2h31.6m-31.6,30.1V787.3m31.6,-.2h31.6m-31.6,30.1V787.3m31.6,-.2h31.7m-31.7,30.1V787.3m31.7,-.2h31.6m-31.6,30.1V787.3m31.6,-.2h31.6m-31.6,30.1V787.3m31.6,-.2h31.7m-31.7,30.1V787.3m31.7,-.2H1725m-31.6,30.1V787.3M949.7,817.4h89.7m0,0h211.1m0,0h31.6m-31.6,43.9V817.6m31.6,-.2h31.7m-31.7,43.9V817.6m31.7,-.2h31.6m-31.6,43.9V817.6m31.6,-.2H1377m-31.6,43.9V817.6m31.6,-.2h31.7M1377,861.3V817.6m31.7,-.2h31.6m-31.6,43.9V817.6m31.6,-.2h31.6m-31.6,43.9V817.6m31.6,-.2h31.7m-31.7,43.9V817.6m31.7,-.2h31.6m-31.6,43.9V817.6m31.6,-.2h31.6m-31.6,43.9V817.6m31.6,-.2h31.7m-31.7,43.9V817.6m31.7,-.2h31.6m-31.6,43.9V817.6m31.6,-.2h31.6m-31.6,43.9V817.6m31.6,-.2h31.7m-31.7,43.9V817.6m31.7,-.2H1725m-31.6,43.9V817.6M949.7,861.4h89.7m0,0h211.1m0,0h31.6m-31.6,30.2v-30m31.6,-.2h31.7m-31.7,30.2v-30m31.7,-.2h31.6m-31.6,30.2v-30m31.6,-.2H1377m-31.6,30.2v-30m31.6,-.2h31.7M1377,891.6v-30m31.7,-.2h31.6m-31.6,30.2v-30m31.6,-.2h31.6m-31.6,30.2v-30m31.6,-.2h31.7m-31.7,30.2v-30m31.7,-.2h31.6m-31.6,30.2v-30m31.6,-.2h31.6m-31.6,30.2v-30m31.6,-.2h31.7m-31.7,30.2v-30m31.7,-.2h31.6m-31.6,30.2v-30m31.6,-.2h31.6m-31.6,30.2v-30m31.6,-.2h31.7m-31.7,30.2v-30m31.7,-.2H1725m-31.6,30.2v-30M949.7,891.8h89.7m0,0h211.1m0,0h31.6m-31.6,30.1V892m31.6,-.2h31.7m-31.7,30.1V892m31.7,-.2h31.6m-31.6,30.1V892m31.6,-.2H1377m-31.6,30.1V892m31.6,-.2h31.7M1377,921.9V892m31.7,-.2h31.6m-31.6,30.1V892m31.6,-.2h31.6m-31.6,30.1V892m31.6,-.2h31.7m-31.7,30.1V892m31.7,-.2h31.6m-31.6,30.1V892m31.6,-.2h31.6m-31.6,30.1V892m31.6,-.2h31.7m-31.7,30.1V892m31.7,-.2h31.6m-31.6,30.1V892m31.6,-.2h31.6m-31.6,30.1V892m31.6,-.2h31.7m-31.7,30.1V892m31.7,-.2H1725m-31.6,30.1V892M949.7,922.1h89.7m0,0h211.1m0,0h31.6m-31.6,30.1V922.3m31.6,-.2h31.7m-31.7,30.1V922.3m31.7,-.2h31.6m-31.6,30.1V922.3m31.6,-.2H1377m-31.6,30.1V922.3m31.6,-.2h31.7M1377,952.2V922.3m31.7,-.2h31.6m-31.6,30.1V922.3m31.6,-.2h31.6m-31.6,30.1V922.3m31.6,-.2h31.7m-31.7,30.1V922.3m31.7,-.2h31.6m-31.6,30.1V922.3m31.6,-.2h31.6m-31.6,30.1V922.3m31.6,-.2h31.7m-31.7,30.1V922.3m31.7,-.2h31.6m-31.6,30.1V922.3m31.6,-.2h31.6m-31.6,30.1V922.3m31.6,-.2h31.7m-31.7,30.1V922.3m31.7,-.2H1725m-31.6,30.1V922.3M949.7,952.4h89.7m0,0h211.1m0,0h31.6m0,0h31.7m0,0h31.6m0,0H1377m0,0h31.7m0,0h31.6m0,0h31.6m0,0h31.7m0,0h31.6m0,0h31.6m0,0h31.7m0,0h31.6m0,0h31.6m0,0h31.7m0,0H1725M1039.4,304.8V261.1m0,74v-30m0,60.3V335.5m0,60.2V365.8m0,60.2V396.1m0,60.2V426.4m0,60.3v-30m0,60.3V487m0,60.3v-30m0,74V547.7m0,73.9V591.7m0,60.2V622m0,60.3v-30m0,60.3v-30m0,74V713m0,104.2V787.3m0,74V817.6m0,74v-30m0,60.3V892m0,60.2V922.3M1725,756.8h31.8m-.2,-496.1V230.8m0,556.1V757M1725,260.9h31.8M1725,304.8V261.1m0,526h31.8M1725,817.2V787.3m31.6,-482.5V261.1m0,556.1V787.3M1725,305h31.8M1725,335.1v-30m0,512.3h31.8M1725,861.3V817.6m31.6,-482.5v-30m0,556.2V817.6M1725,335.3h31.8M1725,365.4V335.5m0,525.9h31.8M1725,891.6v-30m31.6,-496.2V335.5m0,556.1v-30M1725,365.6h31.8M1725,395.7V365.8m0,526h31.8M1725,921.9V892m31.6,-496.3V365.8m0,556.1V892M1725,395.9h31.8M1725,426V396.1m0,526h31.8M1725,952.2V922.3M1756.6,426V396.1m0,556.1V922.3M1725,426.2h31.8M1725,456.3V426.4m0,30.1h31.8M1725,486.7v-30m0,30.1h31.8M1725,517V487m0,30.2h31.8M1725,547.3v-30m0,30.2h31.8M1725,591.3V547.7m0,43.8h31.8M1725,621.6V591.7m0,30.1h31.8M1725,651.9V622m0,330.4h31.8m-.2,-496.1V426.4m0,60.3v-30m0,60.3V487m0,60.3v-30m0,74V547.7m0,73.9V591.7m0,60.2V622M1725,652.1h31.8M1725,682.3v-30m31.6,30v-30M1725,682.4h31.8M1725,712.6v-30m31.6,30v-30M1725,712.8h31.8M1725,756.6V713m31.6,43.6V713" class="g3_46"/>
<path d="M949.5,94.5h89.9M949.7,230.4V94.7m89.7,-.2h211.1M1039.4,230.4V94.7m211.1,-.2h31.6m-31.6,135.9V94.7m31.6,-.2h31.7m-31.7,135.9V94.7m31.7,-.2h31.6m-31.6,135.9V94.7m31.6,-.2H1377m-31.6,135.9V94.7m31.6,-.2h31.7M1377,230.4V94.7m31.7,-.2h31.6m-31.6,135.9V94.7m31.6,-.2h31.6m-31.6,135.9V94.7m31.6,-.2h31.7m-31.7,135.9V94.7m31.7,-.2h31.6m-31.6,135.9V94.7m31.6,-.2h31.6m-31.6,135.9V94.7m31.6,-.2h31.7m-31.7,135.9V94.7m31.7,-.2h31.6m-31.6,135.9V94.7m31.6,-.2h31.6m-31.6,135.9V94.7m31.6,-.2h31.7m-31.7,135.9V94.7m31.7,-.2H1725m-31.6,135.9V94.7m31.6,-.2h31.8M1725,230.4V94.7m31.6,135.7V94.7M949.5,230.6h89.9m0,0h211.1m0,0h31.6m0,0h31.7m0,0h31.6m0,0H1377m0,0h31.7m0,0h31.6m0,0h31.6m0,0h31.7m0,0h31.6m0,0h31.6m0,0h31.7m0,0h31.6m0,0h31.6m0,0h31.7m0,0H1725m0,0h31.8" class="g4_46"/>
<path d="M1569.1,1258.5c81.2,0,146.9,-65.7,146.9,-146.8c0,-81.2,-65.7,-146.9,-146.9,-146.9c-81.1,0,-146.9,65.7,-146.9,146.9c0,81.1,65.8,146.8,146.9,146.8Z" class="g0_46"/>
<path d="M1569.1,1258.5c81.2,0,146.9,-65.7,146.9,-146.8c0,-81.2,-65.7,-146.9,-146.9,-146.9c-81.1,0,-146.9,65.7,-146.9,146.9c0,81.1,65.8,146.8,146.9,146.8Z" class="g5_46"/>
<image clip-path="url(#c0_46)" preserveAspectRatio="none" x="1437" y="980" width="264" height="263" xlink:href="img/1.jpg"/>
<path d="M1569.1,1243.4c72.9,0,131.9,-59,131.9,-131.8c0,-72.9,-59,-131.9,-131.9,-131.9c-72.8,0,-131.8,59,-131.8,131.9c0,72.8,59,131.8,131.8,131.8Z" class="g6_46"/>
<path d="M92.3,83C82,83,73.6,74.6,73.6,64.4C73.6,54.1,82,45.7,92.3,45.7c10.2,0,18.6,8.4,18.6,18.7C110.9,74.6,102.5,83,92.3,83m0,-35.8c-9.5,0,-17.2,7.7,-17.2,17.2c0,9.4,7.7,17.1,17.2,17.1c9.4,0,17.1,-7.7,17.1,-17.1c0,-9.5,-7.7,-17.2,-17.1,-17.2Z" class="g2_46"/>
<path d="M92.3,79.4c-.3,0,-.5,-.3,-.5,-.5V75.6c0,-.3,.2,-.5,.5,-.5c.2,0,.5,.2,.5,.5v3.3c0,.2,-.3,.5,-.5,.5Z" class="g2_46"/>
<path d="M92.3,53.6c-.3,0,-.5,-.2,-.5,-.4V49.9c0,-.3,.2,-.5,.5,-.5c.2,0,.5,.2,.5,.5v3.3c0,.2,-.3,.4,-.5,.4Z" class="g2_46"/>
<path d="M106.8,64.9h-3.3c-.3,0,-.5,-.3,-.5,-.5c0,-.3,.2,-.5,.5,-.5h3.3c.2,0,.4,.2,.4,.5c0,.2,-.2,.5,-.4,.5Z" class="g2_46"/>
<path d="M81.1,64.9H77.8c-.3,0,-.5,-.3,-.5,-.5c0,-.3,.2,-.5,.5,-.5h3.3c.2,0,.4,.2,.4,.5c0,.2,-.2,.5,-.4,.5Z" class="g2_46"/>
<path d="M94,66.6c-.2,0,-.3,-.1,-.4,-.2L83.2,56c-.1,-.1,-.1,-.5,0,-.6c.2,-.2,.6,-.2,.7,0L94.3,65.7c.2,.2,.2,.5,0,.7c-.1,.1,-.2,.2,-.3,.2Z" class="g2_46"/>
<path d="M91.1,66c-.1,0,-.2,-.1,-.3,-.2c-.2,-.2,-.2,-.5,0,-.7l6.4,-6.4c.2,-.1,.5,-.1,.7,0c.2,.2,.2,.5,0,.7l-6.4,6.4c-.1,.1,-.2,.2,-.4,.2Z" class="g2_46"/>
<image clip-path="url(#c1_46)" preserveAspectRatio="none" x="61" y="976" width="805" height="274" xlink:href="img/2.jpg"/>
<path d="M517.1,1007.3h1.7c0,0,1.8,-4.7,3.5,-4.3c2.6,-1.7,20.8,-23.4,21.6,-23c2.6,-2.6,6.1,-6.9,6.1,-6.9l3,-3c.9,-2.2,.5,-11.3,18.7,4.3c18.1,15.6,97.8,77.1,105.2,84c-24.7,19.5,-79.9,51.1,-79.9,51.1c0,0,-67.4,-48,-74.7,-58.4c-7.4,-10.4,-5.2,-4.8,-5.2,-43.8Z" class="g7_46"/>
<image clip-path="url(#c2_46)" preserveAspectRatio="none" x="515" y="965" width="162" height="145" xlink:href="img/3.jpg"/>
<path d="M1438.1,1130.6c4,0,7.3,-3.2,7.3,-7.2c0,-4,-3.3,-7.3,-7.3,-7.3c-4,0,-7.2,3.3,-7.2,7.3c0,4,3.2,7.2,7.2,7.2Z" class="g7_46"/>
</svg>