<?xml version="1.0" encoding="UTF-8" standalone="no"?>
<!DOCTYPE svg PUBLIC "-//W3C//DTD SVG 1.1//EN"
"http://www.w3.org/Graphics/SVG/1.1/DTD/svg11.dtd">
<svg viewBox="0 0 909 1286" version="1.1" xmlns="http://www.w3.org/2000/svg" xmlns:xlink="http://www.w3.org/1999/xlink">
<defs>
<clipPath id="c0_29"><path d="M0,50.1V0H159.5V50.1H115.2V43.3h-72v6.8Z"/></clipPath>
<clipPath id="c1_29"><path d="M159.3,50.1V0H319V50.1Z"/></clipPath>
<clipPath id="c2_29"><path d="M318.8,50.1V0H478.5V50.1Z"/></clipPath>
<clipPath id="c3_29"><path d="M478.3,50.1V0H584.6V50.1Z"/></clipPath>
<clipPath id="c4_29"><path d="M0,100.4V49.9H43.2v5.5h72V49.9h44.3v50.5Z"/></clipPath>
<clipPath id="c5_29"><path d="M159.3,100.4V49.9H319v50.5Z"/></clipPath>
<clipPath id="c6_29"><path d="M478.3,100.4V49.9H584.6v50.5Z"/></clipPath>
<clipPath id="c7_29"><path d="M0,150.5V100.2H159.5v50.3Z"/></clipPath>
<clipPath id="c8_29"><path d="M159.3,150.5V100.2H319v50.3Z"/></clipPath>
<clipPath id="c9_29"><path d="M478.3,150.5V100.2H584.6v50.3Z"/></clipPath>
<clipPath id="ca_29"><path d="M0,200.7V150.3H159.5v50.4Z"/></clipPath>
<clipPath id="cb_29"><path d="M159.3,200.7V150.3H319v50.4Z"/></clipPath>
<clipPath id="cc_29"><path d="M318.8,200.7V150.3H478.5v50.4Z"/></clipPath>
<clipPath id="cd_29"><path d="M478.3,200.7V150.3H584.6v50.4Z"/></clipPath>
<clipPath id="ce_29"><path d="M0,250.8V200.5H159.5v50.3Z"/></clipPath>
<clipPath id="cf_29"><path d="M159.3,250.8V200.5H319v50.3Z"/></clipPath>
<clipPath id="cg_29"><path d="M478.3,250.8V200.5H584.6v50.3Z"/></clipPath>
<clipPath id="ch_29"><path d="M0,301V250.6H159.5v28.2h-24V301Z"/></clipPath>
<clipPath id="ci_29"><path d="M159.3,278.8V250.6H319v28.2Z"/></clipPath>
<clipPath id="cj_29"><path d="M318.8,278.8V250.6H478.5v28.2Z"/></clipPath>
<clipPath id="ck_29"><path d="M478.3,278.8V250.6H584.6v28.2Z"/></clipPath>
<clipPath id="cl_29"><path d="M0,351V300.8H135.5V351Z"/></clipPath>
<clipPath id="cm_29"><path d="M43.2,55.4V43.3h72V55.4Z"/></clipPath>
<clipPath id="cn_29"><path d="M135.5,380v-5.2h88.1V380Zm0,-7.4V351h88.1v21.6Z"/></clipPath>
<clipPath id="co_29"><path d="M135.5,351V278.8h88.1V351Z"/></clipPath>
<clipPath id="cp_29"><path d="M135.5,374.8v-2.2h88.1v2.2Z"/></clipPath>
<clipPath id="cq_29"><path d="M232.8,380v-5.2h78.9V380Zm0,-7.4V351h78.9v21.6Z"/></clipPath>
<clipPath id="cr_29"><path d="M232.8,351V278.8h78.9V351Z"/></clipPath>
<clipPath id="cs_29"><path d="M232.8,374.8v-2.2h78.9v2.2Z"/></clipPath>
<clipPath id="ct_29"><path d="M223.6,380v-5.2h9.2V380Zm0,-7.4V351h9.2v21.6Z"/></clipPath>
<clipPath id="cu_29"><path d="M223.6,351V278.8h9.2V351Z"/></clipPath>
<clipPath id="cv_29"><path d="M223.6,374.8v-2.2h9.2v2.2Z"/></clipPath>
<clipPath id="cw_29"><path d="M497.2,380v-5.2h87.4v-2.2h-11V351h11V278.8h.7V380Z"/></clipPath>
<clipPath id="cx_29"><path d="M573.6,351V309.8c0,-3.9,-1.2,-7.5,-3.3,-10.4v-2.7h-2.2c-3.3,-3.2,-7.8,-5.2,-12.8,-5.2H512.9c-5,0,-9.5,2,-12.8,5.2h-2.5v3.1c-.2,.2,-.3,.4,-.4,.6V278.8h87.4V351Z"/></clipPath>
<clipPath id="cy_29"><path d="M573.6,374.8v-2.2h11v2.2Z"/></clipPath>
<clipPath id="cz_29"><path d="M497.6,299.8v-3.1h2.5c-1,1,-1.8,2,-2.5,3.1Zm72.7,-.4c-.6,-1,-1.3,-1.8,-2.2,-2.7h2.2v2.7Z"/></clipPath>
<clipPath id="c10_29"><path d="M409.1,380v-5.2h78.8V380Zm76.4,-7.4V351h2.4v21.6Z"/></clipPath>
<clipPath id="c11_29"><path d="M485.5,351V309.8c0,-10.1,-8.2,-18.3,-18.3,-18.3H424.8c-6.7,0,-12.5,3.6,-15.7,8.9V278.8h78.8V351Z"/></clipPath>
<clipPath id="c12_29"><path d="M485.5,374.8v-2.2h2.4v2.2Z"/></clipPath>
<clipPath id="c13_29"><path d="M487.9,380v-5.2h9.3V380Zm0,-7.4V351h6.7v16.7h-.1v4.9Z"/></clipPath>
<clipPath id="c14_29"><path d="M487.9,351V278.8h9.3v21.6c-1.7,2.8,-2.6,6,-2.6,9.4V351Z"/></clipPath>
<clipPath id="c15_29"><path d="M487.9,374.8v-2.2h6.6v2.2Z"/></clipPath>
<clipPath id="c16_29"><path d="M494.6,367.7V309.8c0,-3.4,.9,-6.6,2.6,-9.4v67.3Z"/></clipPath>
<clipPath id="c17_29"><path d="M494.5,374.8v-7.1h2.7v7.1Z"/></clipPath>
<clipPath id="c18_29"><path d="M321,380v-5.2h78.8V380Zm0,-7.4V351h78.8v21.6Z"/></clipPath>
<clipPath id="c19_29"><path d="M321,351V278.8h78.8V351Z"/></clipPath>
<clipPath id="c1a_29"><path d="M321,374.8v-2.2h78.8v2.2Z"/></clipPath>
<clipPath id="c1b_29"><path d="M311.7,380v-5.2H321V380Zm0,-7.4V351H321v21.6Z"/></clipPath>
<clipPath id="c1c_29"><path d="M311.7,351V278.8H321V351Z"/></clipPath>
<clipPath id="c1d_29"><path d="M311.7,374.8v-2.2H321v2.2Z"/></clipPath>
<clipPath id="c1e_29"><path d="M399.8,380v-5.2h9.3V380Zm0,-7.4V351h6.7v16.7h-.1v4.9Z"/></clipPath>
<clipPath id="c1f_29"><path d="M399.8,351V278.8h9.3v21.6c-1.7,2.8,-2.6,6,-2.6,9.4V351Z"/></clipPath>
<clipPath id="c1g_29"><path d="M399.8,374.8v-2.2h6.6v2.2Z"/></clipPath>
<clipPath id="c1h_29"><path d="M406.5,367.7V309.8c0,-3.4,.9,-6.6,2.6,-9.4v67.3Z"/></clipPath>
<clipPath id="c1i_29"><path d="M406.4,374.8v-7.1h2.7v7.1Z"/></clipPath>
<style type="text/css"><![CDATA[
.g0_29{
fill: #E7E8E8;
}
.g1_29{
fill: #1B1661;
}
.g2_29{
fill: #DCDDDE;
}
.g3_29{
fill: #FFF;
}
.g4_29{
fill: #ED1A40;
}
.g5_29{
fill: #D1232A;
}
.g6_29{
fill: #58595B;
}
.g7_29{
fill: #CFCBCA;
}
.g8_29{
fill: #FCB61D;
}
.g9_29{
fill: #FEE6BB;
}
.ga_29{
fill: #5AC4C1;
}
.gb_29{
fill: #09B795;
}
.gc_29{
fill: #F37537;
}
.gd_29{
fill: #5180C1;
}
]]></style>
</defs>
<image clip-path="url(#c0_29)" preserveAspectRatio="none" x="0" y="0" width="159" height="50" xlink:href="img/1.jpg"/>
<image clip-path="url(#c1_29)" preserveAspectRatio="none" x="159" y="0" width="160" height="50" xlink:href="img/2.jpg"/>
<image clip-path="url(#c2_29)" preserveAspectRatio="none" x="319" y="0" width="159" height="50" xlink:href="img/3.jpg"/>
<image clip-path="url(#c3_29)" preserveAspectRatio="none" x="478" y="0" width="107" height="50" xlink:href="img/4.jpg"/>
<image clip-path="url(#c4_29)" preserveAspectRatio="none" x="0" y="50" width="159" height="50" xlink:href="img/5.jpg"/>
<image clip-path="url(#c5_29)" preserveAspectRatio="none" x="159" y="50" width="160" height="50" xlink:href="img/6.jpg"/>
<image preserveAspectRatio="none" x="319" y="50" width="159" height="50" xlink:href="img/7.jpg"/>
<image clip-path="url(#c6_29)" preserveAspectRatio="none" x="478" y="50" width="107" height="50" xlink:href="img/8.jpg"/>
<image clip-path="url(#c7_29)" preserveAspectRatio="none" x="0" y="100" width="159" height="51" xlink:href="img/9.jpg"/>
<image clip-path="url(#c8_29)" preserveAspectRatio="none" x="159" y="100" width="160" height="51" xlink:href="img/10.jpg"/>
<image preserveAspectRatio="none" x="319" y="100" width="159" height="51" xlink:href="img/11.jpg"/>
<image clip-path="url(#c9_29)" preserveAspectRatio="none" x="478" y="100" width="107" height="51" xlink:href="img/12.jpg"/>
<image clip-path="url(#ca_29)" preserveAspectRatio="none" x="0" y="150" width="159" height="51" xlink:href="img/13.jpg"/>
<image clip-path="url(#cb_29)" preserveAspectRatio="none" x="159" y="150" width="160" height="51" xlink:href="img/14.jpg"/>
<image clip-path="url(#cc_29)" preserveAspectRatio="none" x="319" y="150" width="159" height="51" xlink:href="img/15.jpg"/>
<image clip-path="url(#cd_29)" preserveAspectRatio="none" x="478" y="150" width="107" height="51" xlink:href="img/16.jpg"/>
<image clip-path="url(#ce_29)" preserveAspectRatio="none" x="0" y="200" width="159" height="51" xlink:href="img/17.jpg"/>
<image clip-path="url(#cf_29)" preserveAspectRatio="none" x="159" y="200" width="160" height="51" xlink:href="img/18.jpg"/>
<image preserveAspectRatio="none" x="319" y="200" width="159" height="51" xlink:href="img/19.jpg"/>
<image clip-path="url(#cg_29)" preserveAspectRatio="none" x="478" y="200" width="107" height="51" xlink:href="img/20.jpg"/>
<image clip-path="url(#ch_29)" preserveAspectRatio="none" x="0" y="251" width="159" height="50" xlink:href="img/21.jpg"/>
<image clip-path="url(#ci_29)" preserveAspectRatio="none" x="159" y="251" width="160" height="50" xlink:href="img/22.jpg"/>
<image clip-path="url(#cj_29)" preserveAspectRatio="none" x="319" y="251" width="159" height="50" xlink:href="img/23.jpg"/>
<image clip-path="url(#ck_29)" preserveAspectRatio="none" x="478" y="251" width="107" height="50" xlink:href="img/24.jpg"/>
<image clip-path="url(#cl_29)" preserveAspectRatio="none" x="0" y="301" width="159" height="50" xlink:href="img/25.jpg"/>
<path d="M324.8,1241.7H584.6V1090.6H324.8v151.1Z" class="g0_29"/>
<path d="M324.8,1090.6H584.6v26.3H324.8v-26.3Z" class="g1_29"/>
<path d="M324.8,1139.1H511.6v38.2H324.8v-38.2Zm186.8,0h73v38.2h-73v-38.2Zm-186.8,60.3H511.6v22.2H324.8v-22.2Zm186.8,0h73v22.2h-73v-22.2Z" class="g2_29"/>
<path d="M324.8,1222.3H511.6v-1.5H324.8v1.5Z" class="g3_29"/>
<path d="M511.6,1222.3h73v-1.5h-73v1.5Z" class="g3_29"/>
<path d="M343.9,1100.8l-1,-.6c-.2,-.2,-.6,-.1,-.8,.1l-4.7,7l-2.1,-2.2c-.3,-.2,-.6,-.2,-.8,0l-.9,.8c-.2,.3,-.2,.6,0,.9l3.4,3.3c.1,.2,.4,.3,.7,.3c.3,0,.5,-.2,.7,-.4l5.7,-8.3c.1,-.3,.1,-.7,-.2,-.9Z" class="g3_29"/>
<path d="M606.3,1241.7H866.1V922.2H606.3v319.5Z" class="g0_29"/>
<path d="M606.3,922.2H866.1v27.6H606.3V922.2Z" class="g1_29"/>
<path d="M606.3,949.8H866.1v40.6H606.3V949.8Zm0,255H866.1v36.9H606.3v-36.9Z" class="g2_29"/>
<path d="M606.3,990.8H866.1V990H606.3Z" class="g3_29"/>
<path d="M606.3,1205.2H866.1v-.7H606.3Z" class="g3_29"/>
<path d="M625.4,933.8l-1,-.7c-.2,-.1,-.6,-.1,-.8,.2l-4.7,6.9l-2.1,-2.1c-.3,-.3,-.6,-.3,-.8,0l-.9,.8c-.2,.2,-.2,.6,0,.8l3.4,3.3c.1,.2,.4,.4,.7,.4c.3,0,.5,-.2,.7,-.5l5.6,-8.3c.2,-.3,.2,-.6,-.1,-.8Z" class="g3_29"/>
<path d="M610.6,211.2c-2.4,0,-4.3,1.9,-4.3,4.3v36.4c0,2.4,1.9,4.3,4.3,4.3H861.8c2.4,0,4.3,-1.9,4.3,-4.3V215.5c0,-2.4,-1.9,-4.3,-4.3,-4.3Z" class="g4_29"/>
<path d="M727.1,240.1h69.7v-.9H727.1Z" class="g3_29"/>
<image clip-path="url(#cm_29)" preserveAspectRatio="none" x="43" y="43" width="72" height="13" xlink:href="img/26.jpg"/>
<path d="M325.6,649.9h-.8v427.7H584.6V649.1H324.8v.8h.8v.7H583.1v425.5H326.3V649.9h-.7v.7Z" class="g1_29"/>
<path d="M369.8,656.1H539.6V642.3H369.8Z" class="g3_29"/>
<path d="M44.1,633.3h-.8v27.6H303.1V632.5H43.3v.8h.8v.7H301.6v25.4H44.8V633.3h-.7v.7Z" class="g5_29"/>
<path d="M64.5,655.7c-5.3,0,-9.6,-4.4,-9.6,-9.7c0,-5.3,4.4,-9.6,9.7,-9.6c5.3,0,9.6,4.3,9.6,9.7c0,5.3,-4.4,9.6,-9.7,9.6m0,-1.4c4.6,0,8.3,-3.7,8.3,-8.3c0,-4.5,-3.7,-8.3,-8.3,-8.2c-4.5,0,-8.2,3.7,-8.2,8.2c-.1,4.6,3.6,8.3,8.2,8.3Z" class="g5_29"/>
<path d="M51.3,641.5c.4,.2,.5,0,.5,-.3c0,-1.3,0,-2.5,0,-3.8c0,-.2,-.1,-.4,0,-.5c.2,-.2,.4,-.6,.6,-.6c.3,.1,.5,.3,.7,.6c.1,.1,.1,.4,.1,.6c0,1.3,0,2.7,0,4h.4c0,-.9,0,-1.8,0,-2.7c0,-.6,-.1,-1.2,-.1,-1.8c0,-.4,.3,-.7,.7,-.7c.4,0,.7,.3,.7,.7c.1,1.8,.2,3.6,.2,5.4c0,.8,-.4,1.5,-1.1,2c-.3,.2,-.4,.4,-.4,.8c.1,3.5,.1,7,.2,10.5c0,.5,-.2,1,-.8,1.3c-.5,.2,-1,.2,-1.4,-.3c-.2,-.3,-.4,-.7,-.4,-1.1c0,-2.3,0,-4.6,.1,-6.9c0,-1.2,0,-2.4,0,-3.6c0,-.3,-.2,-.5,-.3,-.7c-.8,-.6,-1.2,-1.3,-1.2,-2.3c.1,-1.7,.2,-3.3,.2,-5c0,-.4,.2,-.8,.7,-.8c.4,0,.7,.3,.7,.8c0,1.3,-.1,2.6,-.1,3.8c0,.2,0,.4,0,.6m2.1,1.5H51.5c.7,.7,1.3,.7,1.9,0Z" class="g5_29"/>
<path d="M75,646.8c0,-2.9,0,-5.8,0,-8.7c0,-.6,.2,-1.2,.8,-1.5c.9,-.6,2.1,-.1,2.4,1c.5,2.3,.8,4.6,.5,6.9c-.1,1.1,-.3,2.2,-.5,3.3c0,.2,0,.5,0,.7c0,2.4,0,4.8,0,7.1c-.1,1,-.7,1.5,-1.7,1.5c-.9,0,-1.5,-.6,-1.5,-1.5c0,-.1,0,-.3,0,-.4c0,-2.8,0,-5.6,0,-8.4m1.3,.4q.6,.1,.7,-.3c.5,-2.4,.5,-4.7,.2,-7.1c-.1,-.5,-.2,-1.1,-.3,-1.7l-.3,-.4l-.2,.4l-.1,.3c0,2.8,0,5.5,0,8.3Z" class="g5_29"/>
<path d="M64.5,639.3v.7h.1c3.2,0,5.9,2.7,6,6c0,3.3,-2.7,6,-6,6h-.1c-1.6,0,-3.1,-.6,-4.2,-1.7c-1.1,-1.1,-1.8,-2.6,-1.8,-4.3c0,-3.2,2.7,-6,6,-6v-1.5c-4.1,0,-7.5,3.4,-7.5,7.5c0,4.2,3.4,7.6,7.5,7.6h.1c4.1,0,7.5,-3.4,7.5,-7.6c0,-4.1,-3.4,-7.5,-7.5,-7.5h-.1Z" class="g5_29"/>
<path d="M44.1,1037.3h-.8v151.3H303.1v-152H43.3v.7h.8v.8H301.6V1187H44.8V1037.3h-.7v.8Z" class="g5_29"/>
<path d="M122.1,1101.4H291.8v-.5H122.1Z" class="g6_29"/>
<path d="M72.6,1047.3v.7c.1,0,.2,0,.4,0h.1v-.7v.7c4.1,0,7.7,.1,11.6,.2v-.7v.7c.8,.1,1.1,.3,1.2,.4c.2,.2,.3,.4,.3,.8l.7,-.2h-.7c0,.4,-.1,.6,-.4,.9c-.2,.2,-.5,.3,-.9,.4v.7v-.7c-.8,0,-2.1,0,-3.2,0c-.6,.1,-1.1,.1,-1.5,.1c-.4,0,-.7,0,-.7,0H78.3l.6,1.1c.2,.3,.3,.7,.3,.9c0,.5,-.2,.8,-.7,1.1l-.6,.4l.4,.6c.1,.2,.2,.6,.2,1c0,.1,0,.3,-.1,.4c-.1,.4,-.3,.7,-.7,.9l-.7,.3l.4,.7c.2,.3,.3,.6,.3,.8c0,.2,-.1,.3,-.1,.5c-.2,.3,-.3,.5,-.5,.7c-.2,.1,-.5,.2,-.8,.2c-.6,0,-1.1,0,-1.7,0c-1.3,0,-2.7,0,-4,0h-.3c-.5,0,-1.1,0,-1.7,0h-.1c-.7,0,-1.3,-.2,-1.9,-.6c-.6,-.5,-1.3,-1,-2.1,-1.4c-.3,-.3,-.7,-.3,-1,-.3c-.8,0,-.9,0,-1,0c-.1,0,-.2,0,-.7,0h-.4l-.1,.1l.1,-.1l-.1,.1l.1,-.1l-.1,.2l.2,-.1l-.1,-.1l-.1,.2l.2,-.1h-.1h.1h-.1h.1v-.2h-.7h.7l-.1,-8.6h-.7l.7,.1v-.2h.1l-.3,-.2l.1,.3l.2,-.1l-.3,-.2l.1,.3v-.1v.1v-.1v.1h.1c.8,0,1,0,1.2,0c.1,0,.2,0,1.3,0c.2,0,.5,0,.9,-.1c.1,0,.3,0,.5,-.1l.3,-.2c.1,-.1,.3,-.3,.3,-.6c0,-.2,.1,-.5,.2,-.8c0,-.2,.1,-.4,.3,-.5c.1,-.1,.4,-.3,.7,-.4c.8,-.4,1.6,-.7,2.5,-1.2c1.2,-.7,2,-1.8,2.6,-2.9l.1,-.1l-.1,-.1v.1h.1l-.1,-.1v.1h.1l.2,.1l.4,-.5l-.5,.5c.6,.5,.7,.9,.9,1.8l.7,-.2l-.7,.1v.1c0,.8,-.4,1.5,-1,2.3c-.1,.1,-.2,.2,-.3,.3l-1,1.2h1.6v-.7l.5,.4c.1,-.1,.2,-.2,.3,-.3c.7,-.9,1.3,-1.9,1.3,-3.2v-.3c-.2,-1,-.5,-1.8,-1.3,-2.5v-.1h-.1c-.3,-.2,-.6,-.4,-1.1,-.4c-.2,0,-.5,.1,-.7,.2c-.2,.2,-.4,.4,-.5,.6c-.6,1,-1.2,1.8,-2.1,2.4c-.7,.4,-1.6,.7,-2.4,1.1c-.3,.2,-.7,.3,-1,.6c-.4,.3,-.7,.7,-.8,1.2c-.1,.3,-.2,.7,-.2,1.1l.5,.1l-.4,-.5c0,.1,-.1,.2,-.1,.4l.5,.1l-.4,-.5l.3,.3l-.2,-.3h-.1l.3,.3l-.2,-.3c0,0,-.2,0,-.3,.1c-.2,0,-.4,0,-.5,0q-1.1,0,-1.3,0c-.2,0,-.4,0,-1.2,0c-.2,0,-.4,0,-.6,.1c-.2,0,-.5,.3,-.6,.5c-.1,.3,-.2,.5,-.2,.7v.1l.1,8.6v.1c0,.3,0,.7,.4,1c.1,.2,.3,.3,.5,.3c.2,.1,.4,.1,.5,.1h.3c.5,0,.6,0,.7,0c.1,0,.2,0,1,0h.2l.1,.1c.7,.4,1.3,.9,2,1.3c.8,.6,1.7,.9,2.7,.9h.2c.5,0,1.1,0,1.6,0h.3c1.3,0,2.7,0,4,0c.6,0,1.1,0,1.7,0c.6,0,1.1,-.2,1.6,-.5c.4,-.3,.7,-.7,1,-1.2c.1,-.4,.2,-.7,.2,-1.1c0,-.5,-.2,-1.1,-.5,-1.6l-.6,.4l.3,.7c.7,-.4,1.3,-1,1.5,-1.8c.1,-.3,.1,-.6,.1,-.8c0,-.6,-.1,-1.2,-.4,-1.7l-.6,.3l.3,.6c.9,-.5,1.4,-1.3,1.4,-2.3c0,-.5,-.2,-1.1,-.5,-1.6l-.6,.3v.7c.1,0,.3,0,.7,0c1.2,0,3.6,-.1,4.7,-.1H85c.7,-.1,1.3,-.3,1.8,-.8c.5,-.4,.8,-1.1,.8,-1.9v-.1c0,-.4,-.2,-1,-.6,-1.5c-.5,-.4,-1.2,-.7,-2.2,-.8h-.1c-3.8,-.1,-7.5,-.2,-11.5,-.2H73c-.2,0,-.3,0,-.4,0v.7l.5,.4Z" class="g5_29"/>
<path d="M59.9,1048.7h.7c0,-.3,0,-.6,-.1,-.8v-.1l-.1,-.1c-.2,-.4,-.4,-.7,-.8,-1c-.4,-.3,-.9,-.5,-1.5,-.5v.7v-.7c-.7,0,-1.3,0,-1.9,0c-.7,0,-1.3,0,-2,0c-.4,0,-.8,0,-1.3,0c-.6,0,-1.2,.1,-1.6,.6c-.5,.4,-.6,.9,-.6,1.5v.4c.3,3.2,.7,6.3,1,9.5c0,.4,.1,.9,.4,1.3c.2,.4,.6,.8,1.1,1v.1h.1c.4,.1,.8,.2,1.2,.2v-.2v.2v-.2v.2c.5,-.1,.9,-.1,1.3,-.1c.3,0,.7,0,1,0c.3,0,.7,0,1.1,0c.6,0,1.2,0,1.7,-.4c.5,-.4,.7,-.9,.9,-1.5l-.7,-.2l.5,.5q.2,-.2,.2,-.3l.1,-.2c0,-.2,0,-.4,0,-.6c0,-.9,0,-2.5,0,-4.2c0,-1.6,0,-3.3,0,-4.6c0,-.2,0,-.3,0,-.5H59.2c0,.2,0,.3,0,.5c0,1.3,0,3,0,4.6c0,1.3,0,2.4,0,3.3c0,.4,0,.8,0,1v.3h-.1l.3,.1l-.2,-.1h-.1l.3,.1l-.2,-.1l.5,.1l-.5,-.2v.1l.5,.1l-.5,-.2l.6,.3l-.5,-.5l-.1,.2l.6,.3l-.5,-.5l-.1,.1v.2c-.2,.5,-.4,.7,-.5,.8c-.1,0,-.3,.1,-.8,.1c-.4,0,-.8,0,-1.1,0c-.3,0,-.7,0,-1,0c-.4,0,-.8,0,-1.3,0v.7v-.7c-.3,0,-.6,0,-.8,-.1l-.2,.7l.3,-.6c-.2,-.1,-.4,-.3,-.5,-.5c-.1,-.2,-.2,-.4,-.2,-.8c-.3,-3.1,-.7,-6.3,-1,-9.5v-.2c0,-.3,.1,-.4,.2,-.5c0,-.1,.2,-.2,.6,-.2c.5,0,.9,0,1.3,0c.7,0,1.3,0,2,0c.6,0,1.2,0,1.9,0c.3,0,.4,.1,.6,.2c.2,.1,.3,.3,.5,.6l.6,-.3l-.7,.1c.1,.2,.1,.4,.1,.5Zm-1.8,8.6h-.7c0,.3,-.1,.4,-.3,.4H57c-.1,0,-.3,-.1,-.3,-.4l.1,-.2l.2,-.1c.2,0,.4,.1,.4,.3h1.4c0,-1,-.8,-1.7,-1.8,-1.8c-.9,.1,-1.7,.9,-1.7,1.8v.1c0,1,.8,1.7,1.7,1.7h.1c1,0,1.7,-.8,1.7,-1.8Z" class="g5_29"/>
<path d="M606.3,890.8H866.1v-1.5H606.3Z" class="g7_29"/>
<path d="M866.1,369.4V349h-.7v20.4Z" class="g3_29"/>
<path d="M866.1,394.2V369.4h-.7v24.8Z" class="g3_29"/>
<path d="M736.6,414.2v-20h-.8v20Z" class="g3_29"/>
<path d="M801.4,414.2v-20h-.8v20Z" class="g3_29"/>
<path d="M866.1,414.2v-20h-.7v20Z" class="g3_29"/>
<path d="M736.6,434.1V414.2h-.8v19.9Z" class="g3_29"/>
<path d="M801.4,434.1V414.2h-.8v19.9Z" class="g3_29"/>
<path d="M866.1,434.1V414.2h-.7v19.9Z" class="g3_29"/>
<path d="M736.6,454.1v-20h-.8v20Z" class="g3_29"/>
<path d="M801.4,454.1v-20h-.8v20Z" class="g3_29"/>
<path d="M866.1,454.1v-20h-.7v20Z" class="g3_29"/>
<path d="M736.6,474.1v-20h-.8v20Z" class="g3_29"/>
<path d="M801.4,474.1v-20h-.8v20Z" class="g3_29"/>
<path d="M866.1,474.1v-20h-.7v20Z" class="g3_29"/>
<path d="M736.6,494V474.1h-.8V494Z" class="g3_29"/>
<path d="M801.4,494V474.1h-.8V494Z" class="g3_29"/>
<path d="M866.1,494V474.1h-.7V494Z" class="g3_29"/>
<path d="M736.6,514V494h-.8v20Z" class="g3_29"/>
<path d="M801.4,514V494h-.8v20Z" class="g3_29"/>
<path d="M866.1,514V494h-.7v20Z" class="g3_29"/>
<path d="M736.6,534V514h-.8v20Z" class="g3_29"/>
<path d="M801.4,534V514h-.8v20Z" class="g3_29"/>
<path d="M866.1,534V514h-.7v20Z" class="g3_29"/>
<path d="M736.6,553.9V534h-.8v19.9Z" class="g3_29"/>
<path d="M801.4,553.9V534h-.8v19.9Z" class="g3_29"/>
<path d="M866.1,553.9V534h-.7v19.9Z" class="g3_29"/>
<path d="M736.6,573.9v-20h-.8v20Z" class="g3_29"/>
<path d="M801.4,573.9v-20h-.8v20Z" class="g3_29"/>
<path d="M866.1,573.9v-20h-.7v20Z" class="g3_29"/>
<path d="M736.6,593.9v-20h-.8v20Z" class="g3_29"/>
<path d="M801.4,593.9v-20h-.8v20Z" class="g3_29"/>
<path d="M866.1,593.9v-20h-.7v20Z" class="g3_29"/>
<path d="M736.6,613.8V593.9h-.8v19.9Z" class="g3_29"/>
<path d="M801.4,613.8V593.9h-.8v19.9Z" class="g3_29"/>
<path d="M866.1,613.8V593.9h-.7v19.9Z" class="g3_29"/>
<path d="M640.9,370.1h95.3v-1.5H640.9Z" class="g8_29"/>
<path d="M736.2,370.1H801v-1.5H736.2Z" class="g8_29"/>
<path d="M801,370.1h64.4v-1.5H801Z" class="g8_29"/>
<path d="M624.1,387.9c9.9,0,17.9,-8,17.9,-17.8c0,-9.9,-8,-17.9,-17.9,-17.9c-9.8,0,-17.8,8,-17.8,17.9c0,9.8,8,17.8,17.8,17.8Z" class="g8_29"/>
<path d="M634.6,371.9c0,.7,.2,1.4,.2,2.1c0,2.1,-1,3.6,-2.7,4.7c-1.3,.9,-2.8,1.3,-4.3,1.3c-2.4,0,-4.8,0,-7.2,0c-1.7,0,-3.2,-.4,-4.5,-1.4c-2,-1.4,-2.8,-3.2,-2.5,-5.6c.2,-2,.3,-3.9,.4,-5.9c0,-1.8,-.1,-3.6,-.1,-5.4c0,-2.1,.9,-3.8,2.5,-5c1.5,-1.1,3.1,-1.6,4.9,-1.6c1.9,0,3.9,0,5.8,0c1.6,.1,3.2,.5,4.6,1.5c1.9,1.3,2.8,3.2,2.7,5.6c-.1,1.2,0,2.4,0,3.6c-.1,0,.1,4,.2,6.1M624.2,356.4v-.1c-1,0,-1.9,0,-2.9,0c-1.3,0,-2.5,.3,-3.6,1c-1.6,1,-2.7,2.3,-2.6,4.2c.1,.8,.3,1.7,.6,2.5c.4,1.3,1,2.6,2.1,3.5c.3,.3,.3,.6,0,.9c-.6,.6,-1.3,1.2,-2.1,1.5c-.6,.2,-.7,.5,-.7,1c-.1,.5,.1,.9,.4,1.2c.7,.8,1.7,1.4,2.7,1.8c1.8,.7,3.7,1,5.6,1c2,.1,4.1,-.1,6,-.8c1.4,-.5,2.6,-1.2,3.4,-2.3c.1,-.1,.2,-.3,.2,-.4c0,-.4,0,-.7,0,-1.1l-.3,-.2c-1,-.4,-1.8,-1,-2.5,-1.7c-.3,-.3,-.3,-.6,0,-1c.4,-.4,.9,-.9,1.2,-1.4c.8,-1.2,1.2,-2.6,1.4,-4c.2,-1.2,-.1,-2.2,-.8,-3.2c-1.1,-1.5,-2.7,-2.2,-4.6,-2.4c-1.2,-.1,-2.3,0,-3.5,0m-9.4,16.5c-.3,1.6,0,3,1.3,4.2c1.3,1.2,2.8,1.7,4.5,1.7c2.4,0,4.7,0,7,0c.8,0,1.6,-.1,2.4,-.4c1.3,-.5,2.5,-1.2,3.2,-2.6c.5,-1,.5,-2,.3,-3l-.1,.1c-1.1,1.4,-2.6,2.2,-4.3,2.6c-2.9,.8,-5.7,.8,-8.6,.3c-1.4,-.2,-2.8,-.7,-3.9,-1.5c-.7,-.4,-1.2,-.9,-1.8,-1.4Z" class="g9_29"/>
<path d="M618.8,380.4c-.5,.4,-1,.8,-1.5,1.1c-.5,.4,-1.8,1.4,-2.3,1.8c-.2,.2,-.5,.2,-.7,.2l-.3,-.4c-.1,-.2,0,-.5,.2,-.6c.3,-.3,1.4,-1.2,1.7,-1.4c.4,-.3,.9,-.7,1.3,-1l.4,-.1c.4,.1,.8,.3,1.2,.4Z" class="g9_29"/>
<path d="M629.5,380.4c.5,-.2,.9,-.3,1.3,-.4l.3,.1c.7,.6,2.3,1.8,3,2.3c.1,.1,.3,.3,.3,.4c.1,.2,.1,.5,-.2,.6c-.2,.1,-.5,.1,-.7,0c-1.1,-.7,-2.9,-2.2,-4,-3Z" class="g9_29"/>
<path d="M624.1,367c-1.1,0,-2.1,.1,-3.2,0c-2,-.1,-3.5,-1.6,-3.9,-3.5c-.1,-.5,-.2,-1,-.3,-1.5c-.4,-1.9,1,-3.5,3,-3.5c2.9,-.1,5.9,-.1,8.9,0c1.9,0,3.2,1.4,3,3.3c-.1,1,-.3,2.1,-.8,3.1c-.9,1.4,-2.2,2.2,-3.9,2.2c-.9,-.1,-1.9,0,-2.8,0Z" class="g9_29"/>
<path d="M628.7,369.7c.3,0,.5,0,.8,0c.4,0,.7,.3,.5,.7c-.4,.8,-.9,1.7,-1.4,2.5c-.1,.2,-.3,.3,-.6,.3c-.5,0,-1.1,0,-1.6,0c-.5,0,-.7,-.3,-.6,-.7c.5,-.8,1,-1.6,1.5,-2.5c.1,-.2,.3,-.3,.6,-.3c.3,0,.5,0,.8,0Z" class="g9_29"/>
<path d="M621.1,373.2c-.2,0,-.5,0,-.7,0c-.4,0,-.6,-.1,-.7,-.3c-.5,-.9,-1,-1.7,-1.4,-2.5c-.2,-.4,0,-.7,.6,-.7c.5,0,1,0,1.5,0c.3,0,.5,.1,.6,.4c.5,.8,1,1.6,1.5,2.4c.2,.4,-.1,.7,-.6,.7c-.2,0,-.5,0,-.8,0Z" class="g9_29"/>
<path d="M625.2,377.5c0,.6,-.5,1.1,-1,1.1c-.6,0,-1.1,-.5,-1.1,-1.1c0,-.5,.5,-1,1,-1c.6,0,1.1,.5,1.1,1Z" class="g9_29"/>
<path d="M866.1,642.9V622.5h-.7v20.4Z" class="g3_29"/>
<path d="M866.1,667.7V642.9h-.7v24.8Z" class="g3_29"/>
<path d="M736.6,687.5V667.7h-.8v19.8Z" class="g3_29"/>
<path d="M801.4,687.5V667.7h-.8v19.8Z" class="g3_29"/>
<path d="M866.1,687.5V667.7h-.7v19.8Z" class="g3_29"/>
<path d="M736.6,707.2V687.5h-.8v19.7Z" class="g3_29"/>
<path d="M801.4,707.2V687.5h-.8v19.7Z" class="g3_29"/>
<path d="M866.1,707.2V687.5h-.7v19.7Z" class="g3_29"/>
<path d="M736.6,727V707.2h-.8V727Z" class="g3_29"/>
<path d="M801.4,727V707.2h-.8V727Z" class="g3_29"/>
<path d="M866.1,727V707.2h-.7V727Z" class="g3_29"/>
<path d="M736.6,746.7V727h-.8v19.7Z" class="g3_29"/>
<path d="M801.4,746.7V727h-.8v19.7Z" class="g3_29"/>
<path d="M866.1,746.7V727h-.7v19.7Z" class="g3_29"/>
<path d="M736.6,766.5V746.7h-.8v19.8Z" class="g3_29"/>
<path d="M801.4,766.5V746.7h-.8v19.8Z" class="g3_29"/>
<path d="M866.1,766.5V746.7h-.7v19.8Z" class="g3_29"/>
<path d="M736.6,786.2V766.5h-.8v19.7Z" class="g3_29"/>
<path d="M801.4,786.2V766.5h-.8v19.7Z" class="g3_29"/>
<path d="M866.1,786.2V766.5h-.7v19.7Z" class="g3_29"/>
<path d="M736.6,806V786.2h-.8V806Z" class="g3_29"/>
<path d="M801.4,806V786.2h-.8V806Z" class="g3_29"/>
<path d="M866.1,806V786.2h-.7V806Z" class="g3_29"/>
<path d="M736.6,825.7V806h-.8v19.7Z" class="g3_29"/>
<path d="M801.4,825.7V806h-.8v19.7Z" class="g3_29"/>
<path d="M866.1,825.7V806h-.7v19.7Z" class="g3_29"/>
<path d="M736.6,845.5V825.7h-.8v19.8Z" class="g3_29"/>
<path d="M801.4,845.5V825.7h-.8v19.8Z" class="g3_29"/>
<path d="M866.1,845.5V825.7h-.7v19.8Z" class="g3_29"/>
<path d="M736.6,865.2V845.5h-.8v19.7Z" class="g3_29"/>
<path d="M801.4,865.2V845.5h-.8v19.7Z" class="g3_29"/>
<path d="M866.1,865.2V845.5h-.7v19.7Z" class="g3_29"/>
<path d="M736.6,885V865.2h-.8V885Z" class="g3_29"/>
<path d="M801.4,885V865.2h-.8V885Z" class="g3_29"/>
<path d="M866.1,885V865.2h-.7V885Z" class="g3_29"/>
<path d="M640.9,643.7h95.3v-1.6H640.9Z" class="g8_29"/>
<path d="M736.2,643.7H801v-1.6H736.2Z" class="g8_29"/>
<path d="M801,643.7h64.4v-1.6H801Z" class="g8_29"/>
<path d="M624.1,661.4c9.9,0,17.9,-8,17.9,-17.8c0,-9.9,-8,-17.9,-17.9,-17.9c-9.8,0,-17.8,8,-17.8,17.9c0,9.8,8,17.8,17.8,17.8Z" class="g8_29"/>
<path d="M634.6,645.4c0,.7,.2,1.4,.2,2.1c0,2.1,-1,3.6,-2.7,4.7c-1.3,.9,-2.8,1.3,-4.3,1.3c-2.4,0,-4.8,0,-7.2,0c-1.7,0,-3.2,-.4,-4.5,-1.4c-2,-1.3,-2.8,-3.2,-2.5,-5.6c.2,-2,.3,-3.9,.4,-5.9c0,-1.8,-.1,-3.6,-.1,-5.4c0,-2.1,.9,-3.7,2.5,-5c1.5,-1.1,3.1,-1.5,4.9,-1.6c1.9,0,3.9,0,5.8,0c1.6,.1,3.2,.5,4.6,1.5c1.9,1.3,2.8,3.2,2.7,5.6c-.1,1.2,0,2.4,0,3.6c-.1,0,.1,4,.2,6.1M624.2,629.9v-.1c-1,0,-1.9,0,-2.9,0c-1.3,.1,-2.5,.4,-3.6,1c-1.6,1,-2.7,2.3,-2.6,4.2c.1,.8,.3,1.7,.6,2.5c.4,1.4,1,2.6,2.1,3.5c.3,.3,.3,.6,0,.9c-.6,.6,-1.3,1.2,-2.1,1.5c-.6,.2,-.7,.5,-.7,1c-.1,.5,.1,.9,.4,1.2c.7,.8,1.7,1.4,2.7,1.8c1.8,.8,3.7,1,5.6,1c2,.1,4.1,-.1,6,-.8c1.4,-.5,2.6,-1.2,3.4,-2.3c.1,-.1,.2,-.3,.2,-.4c0,-.4,0,-.7,0,-1.1l-.3,-.2c-1,-.4,-1.8,-1,-2.5,-1.7c-.3,-.3,-.3,-.6,0,-.9c.4,-.5,.9,-1,1.2,-1.5c.8,-1.2,1.2,-2.6,1.4,-4c.2,-1.2,-.1,-2.2,-.8,-3.1c-1.1,-1.6,-2.7,-2.3,-4.6,-2.5c-1.2,-.1,-2.3,0,-3.5,0m-9.4,16.5c-.3,1.6,0,3,1.3,4.2c1.3,1.2,2.8,1.7,4.5,1.7c2.4,0,4.7,0,7,0c.8,0,1.6,-.1,2.4,-.4c1.3,-.5,2.5,-1.2,3.2,-2.6c.5,-.9,.5,-1.9,.3,-3l-.1,.1c-1.1,1.4,-2.6,2.2,-4.3,2.6c-2.9,.8,-5.7,.8,-8.6,.3c-1.4,-.2,-2.8,-.6,-3.9,-1.5c-.7,-.4,-1.2,-.9,-1.8,-1.4Z" class="g9_29"/>
<path d="M618.8,653.9c-.5,.4,-1,.8,-1.5,1.1c-.5,.4,-1.8,1.4,-2.3,1.8c-.2,.2,-.5,.2,-.7,.2l-.3,-.4c-.1,-.2,0,-.4,.2,-.6c.3,-.3,1.4,-1.1,1.7,-1.4c.4,-.3,.9,-.7,1.3,-1h.4c.4,0,.8,.2,1.2,.3Z" class="g9_29"/>
<path d="M629.5,653.9c.5,-.1,.9,-.3,1.3,-.4l.3,.1c.7,.6,2.3,1.8,3,2.4c.1,0,.3,.2,.3,.3c.1,.2,.1,.5,-.2,.6c-.2,.1,-.5,.2,-.7,0c-1.1,-.7,-2.9,-2.2,-4,-3Z" class="g9_29"/>
<path d="M624.1,640.5c-1.1,0,-2.1,.1,-3.2,0c-2,-.1,-3.5,-1.5,-3.9,-3.5c-.1,-.5,-.2,-1,-.3,-1.5c-.4,-1.9,1,-3.5,3,-3.5c2.9,0,5.9,0,8.9,0c1.9,0,3.2,1.4,3,3.3c-.1,1.1,-.3,2.2,-.8,3.1c-.9,1.4,-2.2,2.2,-3.9,2.2c-.9,0,-1.9,0,-2.8,0Z" class="g9_29"/>
<path d="M628.7,643.2c.3,0,.5,0,.8,0c.4,.1,.7,.3,.5,.7c-.4,.8,-.9,1.7,-1.4,2.5c-.1,.2,-.3,.3,-.6,.3c-.5,0,-1.1,0,-1.6,0c-.5,0,-.7,-.3,-.6,-.6c.5,-.9,1,-1.7,1.5,-2.5c.1,-.3,.3,-.4,.6,-.4c.3,.1,.5,0,.8,0Z" class="g9_29"/>
<path d="M621.1,646.7c-.2,0,-.5,0,-.7,0c-.4,0,-.6,-.1,-.7,-.3c-.5,-.8,-1,-1.7,-1.4,-2.5c-.2,-.4,0,-.6,.6,-.7c.5,0,1,0,1.5,0c.3,0,.5,.1,.6,.4c.5,.8,1,1.6,1.5,2.5c.2,.3,-.1,.6,-.6,.6c-.2,0,-.5,0,-.8,0Z" class="g9_29"/>
<path d="M625.2,651c0,.6,-.5,1.1,-1,1.1c-.6,0,-1.1,-.5,-1.1,-1c0,-.6,.5,-1.1,1,-1.1c.6,0,1.1,.5,1.1,1Z" class="g9_29"/>
<path d="M791.3,348V269.2h-3.1V348Z" class="g3_29"/>
<path d="M606.7,157.7h34.6v40.5H606.7V157.7Z" class="g3_29"/>
<image x="641" y="157" width="226" height="42" xlink:href="shade/1.png"/>
<path d="M641.3,178.9H866.1v-1.6H641.3Z" class="g8_29"/>
<path d="M624.5,196.6c9.9,0,17.9,-7.9,17.9,-17.8c0,-9.9,-8,-17.9,-17.9,-17.9c-9.8,0,-17.8,8,-17.8,17.9c0,9.9,8,17.8,17.8,17.8Z" class="g8_29"/>
<path d="M635,180.6c0,.7,.2,1.4,.2,2.1c-.1,2.1,-1,3.6,-2.7,4.7c-1.3,.9,-2.8,1.3,-4.4,1.3c-2.4,0,-4.8,0,-7.2,0c-1.6,0,-3.1,-.4,-4.5,-1.4c-1.9,-1.3,-2.7,-3.2,-2.5,-5.6c.3,-1.9,.4,-3.9,.4,-5.9c.1,-1.8,0,-3.6,0,-5.4c-.1,-2.1,.8,-3.7,2.5,-5c1.5,-1,3.1,-1.5,4.9,-1.6c1.9,0,3.8,0,5.7,.1c1.7,0,3.3,.4,4.7,1.4c1.9,1.3,2.8,3.2,2.7,5.6c-.1,1.2,-.1,2.4,-.1,3.6c0,0,.1,4,.3,6.1M624.5,165.1V165c-.9,0,-1.8,0,-2.8,0c-1.3,.1,-2.5,.4,-3.7,1c-1.5,1,-2.6,2.3,-2.5,4.2c.1,.8,.3,1.7,.6,2.5c.4,1.4,1,2.6,2.1,3.5c.3,.3,.3,.6,0,.9c-.6,.6,-1.3,1.3,-2.1,1.5c-.6,.2,-.7,.5,-.8,1c0,.5,.1,.9,.5,1.2c.7,.8,1.6,1.4,2.6,1.8c1.8,.8,3.7,1,5.7,1c2,.1,4,-.1,6,-.8c1.3,-.5,2.5,-1.2,3.4,-2.3c.1,-.1,.2,-.3,.2,-.4c0,-.4,0,-.7,-.1,-1.1l-.2,-.2c-1,-.4,-1.8,-1,-2.6,-1.7c-.3,-.3,-.2,-.6,.1,-.9c.4,-.5,.9,-1,1.2,-1.5c.7,-1.2,1.2,-2.6,1.4,-4c.2,-1.2,-.1,-2.2,-.8,-3.1c-1.1,-1.6,-2.7,-2.3,-4.6,-2.5c-1.2,-.1,-2.4,0,-3.6,0m-9.3,16.5c-.4,1.6,0,3,1.3,4.2c1.2,1.2,2.8,1.7,4.5,1.7c2.3,0,4.7,0,7,0c.8,0,1.6,-.1,2.3,-.4c1.4,-.4,2.6,-1.2,3.3,-2.6c.4,-.9,.5,-1.9,.2,-3l-.1,.1c-1.1,1.4,-2.6,2.2,-4.2,2.6c-2.9,.8,-5.8,.8,-8.7,.3c-1.4,-.2,-2.7,-.6,-3.9,-1.4c-.6,-.5,-1.1,-1,-1.7,-1.5Z" class="g9_29"/>
<path d="M619.2,189.1c-.5,.4,-1,.8,-1.5,1.1c-.5,.4,-1.8,1.4,-2.3,1.8c-.2,.2,-.5,.2,-.8,.2l-.3,-.4c0,-.2,0,-.4,.3,-.6c.3,-.3,1.3,-1.1,1.7,-1.4c.4,-.3,.8,-.7,1.3,-1h.4c.4,.1,.7,.2,1.2,.3Z" class="g9_29"/>
<path d="M629.9,189.1c.5,-.1,.9,-.3,1.3,-.4l.3,.1c.7,.6,2.3,1.8,3,2.4c.1,.1,.2,.2,.3,.3c.1,.3,0,.5,-.2,.6c-.2,.1,-.6,.2,-.7,0c-1.1,-.7,-2.9,-2.1,-4,-3Z" class="g9_29"/>
<path d="M624.5,175.8c-1.1,0,-2.2,0,-3.2,-.1c-2,-.1,-3.5,-1.5,-3.9,-3.5c-.1,-.5,-.2,-1,-.3,-1.4c-.4,-2,1,-3.6,2.9,-3.6c3,0,6,0,9,0c1.9,0,3.2,1.4,3,3.3c-.2,1.1,-.3,2.2,-.9,3.1c-.8,1.4,-2.1,2.2,-3.8,2.2c-.9,0,-1.9,0,-2.8,0Z" class="g9_29"/>
<path d="M629.1,178.5c.2,0,.5,-.1,.8,0c.4,0,.7,.3,.5,.6c-.4,.8,-1,1.7,-1.5,2.5c-.1,.2,-.3,.3,-.5,.3c-.6,0,-1.1,0,-1.6,0c-.5,0,-.8,-.3,-.6,-.6c.5,-.9,1,-1.7,1.5,-2.5c.1,-.3,.3,-.4,.6,-.3c.3,0,.5,0,.8,0Z" class="g9_29"/>
<path d="M621.5,181.9c-.3,0,-.5,0,-.7,0c-.4,0,-.6,-.1,-.7,-.3c-.5,-.8,-1,-1.6,-1.4,-2.5c-.3,-.4,0,-.6,.6,-.6c.4,-.1,.9,0,1.4,-.1c.4,0,.6,.2,.7,.4c.5,.8,1,1.6,1.5,2.5c.1,.3,-.1,.6,-.6,.6c-.3,0,-.5,0,-.8,0Z" class="g9_29"/>
<path d="M625.6,186.2c0,.6,-.5,1.1,-1.1,1.1c-.5,0,-1,-.5,-1,-1c0,-.6,.4,-1.1,1,-1.1c.6,0,1.1,.5,1.1,1Z" class="g9_29"/>
<path d="M43.3,374.8H584.6v-2.2H43.3v2.2Z" class="ga_29"/>
<image clip-path="url(#cn_29)" preserveAspectRatio="none" x="135" y="350" width="98" height="31" xlink:href="img/27.jpg"/>
<image clip-path="url(#co_29)" preserveAspectRatio="none" x="135" y="279" width="89" height="72" xlink:href="img/28.jpg"/>
<image clip-path="url(#cp_29)" preserveAspectRatio="none" x="135" y="372" width="89" height="4" xlink:href="img/29.jpg"/>
<path d="M160.5,291.5c-10.2,0,-18.4,8.2,-18.4,18.3V374h79.1V309.8c0,-10.1,-8.2,-18.3,-18.4,-18.3Z" class="g3_29"/>
<path d="M148.3,317.7h2.3c.2,0,.4,-.2,.4,-.4c0,-.2,-.2,-.4,-.4,-.4h-2.3c-.2,0,-.4,.2,-.4,.4c0,.2,.2,.4,.4,.4m3.9,0h2.3c.2,0,.4,-.2,.4,-.4c0,-.2,-.2,-.4,-.4,-.4h-2.3c-.2,0,-.4,.2,-.4,.4c0,.2,.2,.4,.4,.4m3.9,0h2.3c.2,0,.4,-.2,.4,-.4c0,-.2,-.2,-.4,-.4,-.4h-2.3c-.2,0,-.4,.2,-.4,.4c0,.2,.2,.4,.4,.4m3.8,0h2.4c.2,0,.4,-.2,.4,-.4c0,-.2,-.2,-.4,-.4,-.4h-2.4c-.2,0,-.3,.2,-.3,.4c0,.2,.1,.4,.3,.4m3.9,0h2.4c.2,0,.3,-.2,.3,-.4c0,-.2,-.1,-.4,-.3,-.4h-2.4c-.2,0,-.4,.2,-.4,.4c0,.2,.2,.4,.4,.4m3.9,0H170c.2,0,.4,-.2,.4,-.4c0,-.2,-.2,-.4,-.4,-.4h-2.3c-.2,0,-.4,.2,-.4,.4c0,.2,.2,.4,.4,.4m3.9,0h2.3c.2,0,.4,-.2,.4,-.4c0,-.2,-.2,-.4,-.4,-.4h-2.3c-.2,0,-.4,.2,-.4,.4c0,.2,.2,.4,.4,.4m3.9,0h2.3c.2,0,.4,-.2,.4,-.4c0,-.2,-.2,-.4,-.4,-.4h-2.3c-.2,0,-.4,.2,-.4,.4c0,.2,.2,.4,.4,.4m3.9,0h2.3c.2,0,.4,-.2,.4,-.4c0,-.2,-.2,-.4,-.4,-.4h-2.3c-.3,0,-.4,.2,-.4,.4c0,.2,.1,.4,.4,.4m3.8,0h2.4c.2,0,.3,-.2,.3,-.4c0,-.2,-.1,-.4,-.3,-.4h-2.4c-.2,0,-.3,.2,-.3,.4c0,.2,.1,.4,.3,.4m3.9,0h2.3c.3,0,.4,-.2,.4,-.4c0,-.2,-.1,-.4,-.4,-.4h-2.3c-.2,0,-.4,.2,-.4,.4c0,.2,.2,.4,.4,.4m3.9,0h2.3c.2,0,.4,-.2,.4,-.4c0,-.2,-.2,-.4,-.4,-.4H191c-.2,0,-.4,.2,-.4,.4c0,.2,.2,.4,.4,.4m3.9,0h2.3c.2,0,.4,-.2,.4,-.4c0,-.2,-.2,-.4,-.4,-.4h-2.3c-.2,0,-.4,.2,-.4,.4c0,.2,.2,.4,.4,.4m3.9,0h2.3c.2,0,.4,-.2,.4,-.4c0,-.2,-.2,-.4,-.4,-.4h-2.3c-.2,0,-.4,.2,-.4,.4c0,.2,.2,.4,.4,.4m3.8,0H205c.2,0,.4,-.2,.4,-.4c0,-.2,-.2,-.4,-.4,-.4h-2.4c-.2,0,-.3,.2,-.3,.4c0,.2,.1,.4,.3,.4m3.9,0h2.4c.2,0,.3,-.2,.3,-.4c0,-.2,-.1,-.4,-.3,-.4h-2.4c-.2,0,-.4,.2,-.4,.4c0,.2,.2,.4,.4,.4m3.9,0h2.3c.2,0,.4,-.2,.4,-.4c0,-.2,-.2,-.4,-.4,-.4h-2.3c-.2,0,-.4,.2,-.4,.4c0,.2,.2,.4,.4,.4m3.9,0h2.3c.2,0,.4,-.2,.4,-.4c0,-.2,-.2,-.4,-.4,-.4h-2.3c-.2,0,-.4,.2,-.4,.4c0,.2,.2,.4,.4,.4Z" class="g4_29"/>
<path d="M148.3,349.9h2.3c.2,0,.4,-.2,.4,-.4c0,-.2,-.2,-.3,-.4,-.3h-2.3c-.2,0,-.4,.1,-.4,.3c0,.2,.2,.4,.4,.4m3.9,0h2.3c.2,0,.4,-.2,.4,-.4c0,-.2,-.2,-.3,-.4,-.3h-2.3c-.2,0,-.4,.1,-.4,.3c0,.2,.2,.4,.4,.4m3.9,0h2.3c.2,0,.4,-.2,.4,-.4c0,-.2,-.2,-.3,-.4,-.3h-2.3c-.2,0,-.4,.1,-.4,.3c0,.2,.2,.4,.4,.4m3.8,0h2.4c.2,0,.4,-.2,.4,-.4c0,-.2,-.2,-.3,-.4,-.3h-2.4c-.2,0,-.3,.1,-.3,.3c0,.2,.1,.4,.3,.4m3.9,0h2.4c.2,0,.3,-.2,.3,-.4c0,-.2,-.1,-.3,-.3,-.3h-2.4c-.2,0,-.4,.1,-.4,.3c0,.2,.2,.4,.4,.4m3.9,0H170c.2,0,.4,-.2,.4,-.4c0,-.2,-.2,-.3,-.4,-.3h-2.3c-.2,0,-.4,.1,-.4,.3c0,.2,.2,.4,.4,.4m3.9,0h2.3c.2,0,.4,-.2,.4,-.4c0,-.2,-.2,-.3,-.4,-.3h-2.3c-.2,0,-.4,.1,-.4,.3c0,.2,.2,.4,.4,.4m3.9,0h2.3c.2,0,.4,-.2,.4,-.4c0,-.2,-.2,-.3,-.4,-.3h-2.3c-.2,0,-.4,.1,-.4,.3c0,.2,.2,.4,.4,.4m3.9,0h2.3c.2,0,.4,-.2,.4,-.4c0,-.2,-.2,-.3,-.4,-.3h-2.3c-.3,0,-.4,.1,-.4,.3c0,.2,.1,.4,.4,.4m3.8,0h2.4c.2,0,.3,-.2,.3,-.4c0,-.2,-.1,-.3,-.3,-.3h-2.4c-.2,0,-.3,.1,-.3,.3c0,.2,.1,.4,.3,.4m3.9,0h2.3c.3,0,.4,-.2,.4,-.4c0,-.2,-.1,-.3,-.4,-.3h-2.3c-.2,0,-.4,.1,-.4,.3c0,.2,.2,.4,.4,.4m3.9,0h2.3c.2,0,.4,-.2,.4,-.4c0,-.2,-.2,-.3,-.4,-.3H191c-.2,0,-.4,.1,-.4,.3c0,.2,.2,.4,.4,.4m3.9,0h2.3c.2,0,.4,-.2,.4,-.4c0,-.2,-.2,-.3,-.4,-.3h-2.3c-.2,0,-.4,.1,-.4,.3c0,.2,.2,.4,.4,.4m3.9,0h2.3c.2,0,.4,-.2,.4,-.4c0,-.2,-.2,-.3,-.4,-.3h-2.3c-.2,0,-.4,.1,-.4,.3c0,.2,.2,.4,.4,.4m3.8,0H205c.2,0,.4,-.2,.4,-.4c0,-.2,-.2,-.3,-.4,-.3h-2.4c-.2,0,-.3,.1,-.3,.3c0,.2,.1,.4,.3,.4m3.9,0h2.4c.2,0,.3,-.2,.3,-.4c0,-.2,-.1,-.3,-.3,-.3h-2.4c-.2,0,-.4,.1,-.4,.3c0,.2,.2,.4,.4,.4m3.9,0h2.3c.2,0,.4,-.2,.4,-.4c0,-.2,-.2,-.3,-.4,-.3h-2.3c-.2,0,-.4,.1,-.4,.3c0,.2,.2,.4,.4,.4m3.9,0h2.3c.2,0,.4,-.2,.4,-.4c0,-.2,-.2,-.3,-.4,-.3h-2.3c-.2,0,-.4,.1,-.4,.3c0,.2,.2,.4,.4,.4Z" class="g4_29"/>
<path d="M142.1,374.8h79v-6.7h-79v6.7Z" class="ga_29"/>
<image clip-path="url(#cq_29)" preserveAspectRatio="none" x="232" y="350" width="90" height="31" xlink:href="img/30.jpg"/>
<image clip-path="url(#cr_29)" preserveAspectRatio="none" x="223" y="279" width="89" height="72" xlink:href="img/31.jpg"/>
<image clip-path="url(#cs_29)" preserveAspectRatio="none" x="232" y="372" width="80" height="4" xlink:href="img/32.jpg"/>
<image clip-path="url(#ct_29)" preserveAspectRatio="none" x="223" y="350" width="11" height="31" xlink:href="img/33.jpg"/>
<image clip-path="url(#cu_29)" preserveAspectRatio="none" x="223" y="279" width="10" height="72" xlink:href="img/34.jpg"/>
<image clip-path="url(#cv_29)" preserveAspectRatio="none" x="223" y="372" width="11" height="3" xlink:href="img/35.jpg"/>
<path d="M248.6,291.5c-10.1,0,-18.3,8.2,-18.3,18.3V374h79V309.8c0,-10.1,-8.2,-18.3,-18.3,-18.3Z" class="g3_29"/>
<path d="M230.2,374.8h79.1v-7.1H230.2v7.1Z" class="ga_29"/>
<path d="M236.4,317.7H239c.2,0,.3,-.2,.3,-.4c0,-.2,-.1,-.4,-.3,-.4h-2.6c-.2,0,-.4,.2,-.4,.4c0,.2,.2,.4,.4,.4m4.3,0h2.6c.2,0,.4,-.2,.4,-.4c0,-.2,-.2,-.4,-.4,-.4h-2.6c-.2,0,-.3,.2,-.3,.4c0,.2,.1,.4,.3,.4m4.3,0h2.6c.2,0,.4,-.2,.4,-.4c0,-.2,-.2,-.4,-.4,-.4H245c-.2,0,-.3,.2,-.3,.4c0,.2,.1,.4,.3,.4m4.4,0h2.5c.2,0,.4,-.2,.4,-.4c0,-.2,-.2,-.4,-.4,-.4h-2.5c-.3,0,-.4,.2,-.4,.4c0,.2,.1,.4,.4,.4Z" class="g8_29"/>
<path d="M288,349.9h2.2c.2,0,.3,-.2,.3,-.4c0,-.2,-.1,-.3,-.3,-.3H288c-.3,0,-.4,.1,-.4,.3c0,.2,.1,.4,.4,.4m3.6,0h2.2c.2,0,.4,-.2,.4,-.4c0,-.2,-.2,-.3,-.4,-.3h-2.2c-.2,0,-.4,.1,-.4,.3c0,.2,.2,.4,.4,.4m3.6,0h2.3c.2,0,.3,-.2,.3,-.4c0,-.2,-.1,-.3,-.3,-.3h-2.3c-.2,0,-.3,.1,-.3,.3c0,.2,.1,.4,.3,.4m3.7,0h2.2c.2,0,.4,-.2,.4,-.4c0,-.2,-.2,-.3,-.4,-.3h-2.2c-.2,0,-.4,.1,-.4,.3c0,.2,.2,.4,.4,.4m3.6,0h2.2c.3,0,.4,-.2,.4,-.4c0,-.2,-.1,-.3,-.4,-.3h-2.2c-.2,0,-.3,.1,-.3,.3c0,.2,.1,.4,.3,.4Z" class="g8_29"/>
<path d="M287.1,317.7h2.3c.2,0,.4,-.2,.4,-.4c0,-.2,-.2,-.4,-.4,-.4h-2.3c-.2,0,-.4,.2,-.4,.4c0,.2,.2,.4,.4,.4m3.8,0h2.3c.2,0,.4,-.2,.4,-.4c0,-.2,-.2,-.4,-.4,-.4h-2.3c-.2,0,-.4,.2,-.4,.4c0,.2,.2,.4,.4,.4m3.9,0h2.3c.2,0,.3,-.2,.3,-.4c0,-.2,-.1,-.4,-.3,-.4h-2.3c-.2,0,-.4,.2,-.4,.4c0,.2,.2,.4,.4,.4m3.8,0h2.3c.2,0,.4,-.2,.4,-.4c0,-.2,-.2,-.4,-.4,-.4h-2.3c-.2,0,-.4,.2,-.4,.4c0,.2,.2,.4,.4,.4m3.8,0h2.3c.3,0,.4,-.2,.4,-.4c0,-.2,-.1,-.4,-.4,-.4h-2.3c-.2,0,-.3,.2,-.3,.4c0,.2,.1,.4,.3,.4Z" class="g8_29"/>
<path d="M283.2,335c.1,1,.3,1.9,.3,2.8c-.1,2.7,-1.3,4.6,-3.5,6.1c-1.7,1.1,-3.6,1.6,-5.6,1.6c-3.1,.1,-6.2,.1,-9.3,0c-2.1,0,-4.1,-.5,-5.8,-1.7c-2.5,-1.8,-3.6,-4.2,-3.2,-7.3c.3,-2.5,.4,-5,.5,-7.6c0,-2.3,0,-4.7,-.1,-7c0,-2.7,1.1,-4.8,3.3,-6.4c1.8,-1.4,4,-2,6.3,-2c2.5,-.1,4.9,-.1,7.4,0c2.1,0,4.2,.6,5.9,1.8c2.6,1.7,3.8,4.1,3.5,7.2c-.1,1.6,0,3.1,0,4.7c0,0,.2,5.2,.3,7.8M269.8,315.1V315c-1.3,0,-2.5,-.1,-3.7,0c-1.7,0,-3.3,.4,-4.7,1.3c-2,1.2,-3.4,2.9,-3.3,5.3c.1,1.1,.4,2.2,.7,3.3c.6,1.7,1.4,3.3,2.8,4.5c.4,.4,.4,.8,0,1.2c-.8,.8,-1.7,1.6,-2.8,1.9c-.7,.2,-.9,.6,-.9,1.3c-.1,.6,.1,1.1,.5,1.5c1,1.1,2.2,1.8,3.5,2.4c2.3,.9,4.7,1.3,7.2,1.3c2.7,.1,5.3,-.2,7.8,-1.1c1.7,-.6,3.3,-1.5,4.4,-3c.2,-.1,.3,-.3,.3,-.5c0,-.4,0,-.9,-.1,-1.3l-.3,-.4c-1.3,-.4,-2.4,-1.2,-3.3,-2.1c-.4,-.4,-.3,-.8,0,-1.3c.6,-.6,1.2,-1.2,1.6,-1.9c1,-1.5,1.5,-3.3,1.8,-5.1c.3,-1.5,-.1,-2.9,-1,-4.1c-1.5,-1.9,-3.5,-2.9,-5.9,-3.1c-1.6,-.2,-3.1,0,-4.6,0m-12.1,21.3c-.5,2,0,3.9,1.6,5.4c1.7,1.5,3.7,2.2,5.9,2.2c3,0,6,0,9,0c1,0,2,-.2,3,-.5c1.8,-.6,3.3,-1.6,4.2,-3.4c.6,-1.2,.6,-2.5,.3,-3.8h-.1c-1.4,1.9,-3.3,2.9,-5.5,3.5c-3.7,.9,-7.4,1,-11.1,.3c-1.8,-.3,-3.5,-.8,-5.1,-1.9c-.8,-.5,-1.5,-1.2,-2.2,-1.8Z" class="g8_29"/>
<path d="M262.8,346.1c-.6,.5,-1.3,.9,-1.9,1.4c-.6,.5,-2.3,1.8,-2.9,2.3c-.3,.3,-.7,.3,-1,.2c-.2,0,-.4,-.3,-.4,-.4c-.1,-.4,0,-.6,.3,-.9c.4,-.3,1.8,-1.4,2.2,-1.7c.5,-.5,1.1,-.9,1.7,-1.3c.1,-.1,.4,-.1,.5,-.1c.5,.1,1,.3,1.5,.5Z" class="g8_29"/>
<path d="M276.6,346.1c.7,-.2,1.2,-.4,1.7,-.5l.4,.1c1,.7,3,2.3,3.9,3c.2,.1,.3,.3,.4,.5c.1,.3,0,.6,-.2,.7c-.3,.2,-.8,.2,-1,.1c-1.4,-1,-3.7,-2.9,-5.2,-3.9Z" class="g8_29"/>
<path d="M269.7,328.8c-1.4,0,-2.8,.1,-4.2,0c-2.5,-.2,-4.5,-2,-5,-4.5c-.1,-.7,-.2,-1.3,-.3,-1.9c-.5,-2.5,1.2,-4.7,3.7,-4.7c3.9,0,7.8,0,11.6,0c2.4,.1,4.2,1.9,3.8,4.3c-.1,1.4,-.3,2.8,-1,4c-1.2,1.9,-2.8,2.9,-5,2.8c-1.2,0,-2.4,0,-3.6,0Z" class="g8_29"/>
<path d="M275.6,332.3c.3,0,.7,0,1,0c.6,0,1,.4,.8,.8c-.7,1.1,-1.3,2.2,-2,3.3c-.1,.2,-.4,.4,-.7,.4c-.7,0,-1.4,0,-2,0c-.7,-.1,-1,-.4,-.8,-.9c.6,-1.1,1.3,-2.1,1.9,-3.2c.1,-.3,.4,-.4,.8,-.4c.4,0,.7,0,1,0Z" class="g8_29"/>
<path d="M265.8,336.8c-.3,0,-.6,0,-.9,0c-.4,0,-.7,-.2,-.9,-.5c-.6,-1,-1.2,-2.1,-1.8,-3.1c-.3,-.5,0,-.9,.7,-.9c.7,0,1.3,0,2,0c.4,0,.6,.1,.8,.4c.6,1.1,1.3,2.2,1.9,3.2c.2,.4,-.1,.8,-.7,.9c-.4,0,-.7,0,-1.1,0Z" class="g8_29"/>
<path d="M271.1,342.3c0,.8,-.6,1.4,-1.3,1.4c-.8,0,-1.4,-.6,-1.4,-1.3c0,-.7,.6,-1.4,1.3,-1.4c.7,0,1.4,.6,1.4,1.3Z" class="g8_29"/>
<path d="M236.4,349.9h2.2c.2,0,.4,-.2,.4,-.4c0,-.2,-.2,-.3,-.4,-.3h-2.2c-.2,0,-.4,.1,-.4,.3c0,.2,.2,.4,.4,.4m3.7,0h2.2c.2,0,.4,-.2,.4,-.4c0,-.2,-.2,-.3,-.4,-.3h-2.2c-.2,0,-.4,.1,-.4,.3c0,.2,.2,.4,.4,.4m3.6,0h2.2c.2,0,.4,-.2,.4,-.4c0,-.2,-.2,-.3,-.4,-.3h-2.2c-.2,0,-.4,.1,-.4,.3c0,.2,.2,.4,.4,.4m3.7,0h2.2c.2,0,.4,-.2,.4,-.4c0,-.2,-.2,-.3,-.4,-.3h-2.2c-.2,0,-.4,.1,-.4,.3c0,.2,.2,.4,.4,.4m3.6,0h2.2c.2,0,.4,-.2,.4,-.4c0,-.2,-.2,-.3,-.4,-.3H251c-.2,0,-.4,.1,-.4,.3c0,.2,.2,.4,.4,.4Z" class="g8_29"/>
<image clip-path="url(#cw_29)" preserveAspectRatio="none" x="487" y="278" width="99" height="103" xlink:href="img/36.jpg"/>
<image clip-path="url(#cx_29)" preserveAspectRatio="none" x="497" y="279" width="88" height="72" xlink:href="img/37.jpg"/>
<image clip-path="url(#cy_29)" preserveAspectRatio="none" x="497" y="372" width="88" height="4" xlink:href="img/38.jpg"/>
<image clip-path="url(#cz_29)" preserveAspectRatio="none" x="497" y="297" width="73" height="3" xlink:href="img/39.jpg"/>
<path d="M512.9,291.5c-10.1,0,-18.3,8.2,-18.3,18.3V374h79V309.8c0,-10.1,-8.2,-18.3,-18.3,-18.3Z" class="g3_29"/>
<path d="M494.5,374.8h79.1v-7.1H494.5v7.1Z" class="ga_29"/>
<path d="M499.9,349.9h2.4c.2,0,.3,-.2,.3,-.4c0,-.2,-.1,-.3,-.3,-.3h-2.4c-.2,0,-.3,.1,-.3,.3c0,.2,.1,.4,.3,.4m3.9,0h2.3c.3,0,.4,-.2,.4,-.4c0,-.2,-.1,-.3,-.4,-.3h-2.3c-.2,0,-.4,.1,-.4,.3c0,.2,.2,.4,.4,.4m3.9,0H510c.2,0,.4,-.2,.4,-.4c0,-.2,-.2,-.3,-.4,-.3h-2.3c-.2,0,-.4,.1,-.4,.3c0,.2,.2,.4,.4,.4m3.9,0h2.3c.2,0,.4,-.2,.4,-.4c0,-.2,-.2,-.3,-.4,-.3h-2.3c-.2,0,-.4,.1,-.4,.3c0,.2,.2,.4,.4,.4m3.9,0h2.3c.2,0,.4,-.2,.4,-.4c0,-.2,-.2,-.3,-.4,-.3h-2.3c-.2,0,-.4,.1,-.4,.3c0,.2,.2,.4,.4,.4m3.9,0h2.3c.2,0,.4,-.2,.4,-.4c0,-.2,-.2,-.3,-.4,-.3h-2.3c-.3,0,-.4,.1,-.4,.3c0,.2,.1,.4,.4,.4m3.8,0h2.4c.2,0,.3,-.2,.3,-.4c0,-.2,-.1,-.3,-.3,-.3h-2.4c-.2,0,-.3,.1,-.3,.3c0,.2,.1,.4,.3,.4m3.9,0h2.3c.2,0,.4,-.2,.4,-.4c0,-.2,-.2,-.3,-.4,-.3h-2.3c-.2,0,-.4,.1,-.4,.3c0,.2,.2,.4,.4,.4m3.9,0h2.3c.2,0,.4,-.2,.4,-.4c0,-.2,-.2,-.3,-.4,-.3H531c-.2,0,-.4,.1,-.4,.3c0,.2,.2,.4,.4,.4m3.9,0h2.3c.2,0,.4,-.2,.4,-.4c0,-.2,-.2,-.3,-.4,-.3h-2.3c-.2,0,-.4,.1,-.4,.3c0,.2,.2,.4,.4,.4m3.9,0h2.3c.2,0,.4,-.2,.4,-.4c0,-.2,-.2,-.3,-.4,-.3h-2.3c-.2,0,-.4,.1,-.4,.3c0,.2,.2,.4,.4,.4m3.8,0H545c.2,0,.3,-.2,.3,-.4c0,-.2,-.1,-.3,-.3,-.3h-2.4c-.2,0,-.3,.1,-.3,.3c0,.2,.1,.4,.3,.4m3.9,0h2.3c.3,0,.4,-.2,.4,-.4c0,-.2,-.1,-.3,-.4,-.3h-2.3c-.2,0,-.4,.1,-.4,.3c0,.2,.2,.4,.4,.4m3.9,0h2.3c.2,0,.4,-.2,.4,-.4c0,-.2,-.2,-.3,-.4,-.3h-2.3c-.2,0,-.4,.1,-.4,.3c0,.2,.2,.4,.4,.4m3.9,0h2.3c.2,0,.4,-.2,.4,-.4c0,-.2,-.2,-.3,-.4,-.3h-2.3c-.2,0,-.4,.1,-.4,.3c0,.2,.2,.4,.4,.4m3.9,0h2.3c.2,0,.4,-.2,.4,-.4c0,-.2,-.2,-.3,-.4,-.3h-2.3c-.2,0,-.4,.1,-.4,.3c0,.2,.2,.4,.4,.4m3.9,0h2.3c.2,0,.4,-.2,.4,-.4c0,-.2,-.2,-.3,-.4,-.3h-2.3c-.3,0,-.4,.1,-.4,.3c0,.2,.1,.4,.4,.4m3.8,0h2.4c.2,0,.3,-.2,.3,-.4c0,-.2,-.1,-.3,-.3,-.3h-2.4c-.2,0,-.3,.1,-.3,.3c0,.2,.1,.4,.3,.4Z" class="gb_29"/>
<path d="M499.3,313.5h2.3c.2,0,.4,-.2,.4,-.4c0,-.2,-.2,-.3,-.4,-.3h-2.3c-.2,0,-.4,.1,-.4,.3c0,.2,.2,.4,.4,.4m3.9,0h2.3c.2,0,.4,-.2,.4,-.4c0,-.2,-.2,-.3,-.4,-.3h-2.3c-.2,0,-.4,.1,-.4,.3c0,.2,.2,.4,.4,.4m3.9,0h2.3c.2,0,.4,-.2,.4,-.4c0,-.2,-.2,-.3,-.4,-.3h-2.3c-.3,0,-.4,.1,-.4,.3c0,.2,.1,.4,.4,.4m3.8,0h2.4c.2,0,.3,-.2,.3,-.4c0,-.2,-.1,-.3,-.3,-.3h-2.4c-.2,0,-.3,.1,-.3,.3c0,.2,.1,.4,.3,.4m3.9,0h2.3c.3,0,.4,-.2,.4,-.4c0,-.2,-.1,-.3,-.4,-.3h-2.3c-.2,0,-.4,.1,-.4,.3c0,.2,.2,.4,.4,.4m3.9,0H521c.2,0,.4,-.2,.4,-.4c0,-.2,-.2,-.3,-.4,-.3h-2.3c-.2,0,-.4,.1,-.4,.3c0,.2,.2,.4,.4,.4m3.9,0h2.3c.2,0,.4,-.2,.4,-.4c0,-.2,-.2,-.3,-.4,-.3h-2.3c-.2,0,-.4,.1,-.4,.3c0,.2,.2,.4,.4,.4m3.9,0h2.3c.2,0,.4,-.2,.4,-.4c0,-.2,-.2,-.3,-.4,-.3h-2.3c-.2,0,-.4,.1,-.4,.3c0,.2,.2,.4,.4,.4m3.8,0h2.4c.2,0,.4,-.2,.4,-.4c0,-.2,-.2,-.3,-.4,-.3h-2.4c-.2,0,-.3,.1,-.3,.3c0,.2,.1,.4,.3,.4m3.9,0h2.4c.2,0,.3,-.2,.3,-.4c0,-.2,-.1,-.3,-.3,-.3h-2.4c-.2,0,-.4,.1,-.4,.3c0,.2,.2,.4,.4,.4m3.9,0h2.3c.2,0,.4,-.2,.4,-.4c0,-.2,-.2,-.3,-.4,-.3h-2.3c-.2,0,-.4,.1,-.4,.3c0,.2,.2,.4,.4,.4m3.9,0h2.3c.2,0,.4,-.2,.4,-.4c0,-.2,-.2,-.3,-.4,-.3H542c-.2,0,-.4,.1,-.4,.3c0,.2,.2,.4,.4,.4m3.9,0h2.3c.2,0,.4,-.2,.4,-.4c0,-.2,-.2,-.3,-.4,-.3h-2.3c-.2,0,-.4,.1,-.4,.3c0,.2,.2,.4,.4,.4m3.9,0h2.3c.2,0,.4,-.2,.4,-.4c0,-.2,-.2,-.3,-.4,-.3h-2.3c-.3,0,-.4,.1,-.4,.3c0,.2,.1,.4,.4,.4m3.8,0H556c.2,0,.3,-.2,.3,-.4c0,-.2,-.1,-.3,-.3,-.3h-2.4c-.2,0,-.3,.1,-.3,.3c0,.2,.1,.4,.3,.4m3.9,0h2.3c.3,0,.4,-.2,.4,-.4c0,-.2,-.1,-.3,-.4,-.3h-2.3c-.2,0,-.4,.1,-.4,.3c0,.2,.2,.4,.4,.4m3.9,0h2.3c.2,0,.4,-.2,.4,-.4c0,-.2,-.2,-.3,-.4,-.3h-2.3c-.2,0,-.4,.1,-.4,.3c0,.2,.2,.4,.4,.4m3.9,0h2.3c.2,0,.4,-.2,.4,-.4c0,-.2,-.2,-.3,-.4,-.3h-2.3c-.2,0,-.4,.1,-.4,.3c0,.2,.2,.4,.4,.4Z" class="gb_29"/>
<path d="M548,330.3v.7h4.6c1.1,0,2,-.9,2,-2v-.4c0,-1.2,-.9,-2.1,-2,-2.1H548c-.5,0,-1,.2,-1.4,.6c-.1,.1,-.2,.3,-.2,.5v.2c0,.2,-.1,.4,-.2,.5c-.2,.2,-.2,.3,-.2,.5v.2c0,1.1,.9,2,2,2v-1.4c-.4,0,-.7,-.3,-.7,-.6v-.2h-.7l.5,.5c.4,-.3,.7,-.9,.7,-1.5v-.2h-.7l.4,.5c.2,-.1,.3,-.2,.5,-.2h4.6c.3,0,.6,.3,.6,.7v.4c0,.3,-.3,.6,-.6,.6H548Z" class="gb_29"/>
<path d="M547.1,321l-.5,.5c.4,.3,.9,.5,1.4,.5h4.6c1.1,0,2,-.9,2,-2v-.4c0,-1.1,-.9,-2,-2,-2H548c-1.1,0,-2,.9,-2,2v.2c0,.2,0,.3,.2,.5c.1,.1,.2,.3,.2,.5v.2c0,.2,.1,.4,.2,.5l.5,-.5h.7v-.2c0,-.6,-.3,-1.2,-.7,-1.5l-.5,.5h.7v-.2c0,-.4,.3,-.7,.7,-.7h4.6c.3,0,.6,.3,.6,.7v.4c0,.4,-.3,.7,-.6,.7H548c-.2,0,-.3,-.1,-.5,-.2l-.4,.5h.7Z" class="gb_29"/>
<path d="M553.6,329.8v.7h1.9c1,0,1.8,-.8,1.8,-1.8v-8.8c0,-1,-.8,-1.8,-1.8,-1.8h-1.8c-.3,0,-.5,.2,-.7,.4c-.1,.2,-.1,.5,.1,.7c.1,.1,.1,.3,.1,.4v.4c0,.4,-.3,.7,-.6,.7H548c-.2,0,-.3,-.1,-.5,-.2c-.2,-.2,-.4,-.2,-.7,-.1c-.2,.1,-.4,.3,-.4,.6v6.6c0,.2,.2,.5,.4,.6c.3,.1,.5,.1,.7,-.1c.2,-.1,.3,-.2,.5,-.2h4.6c.3,0,.6,.3,.6,.7v.4c0,.1,0,.3,-.1,.4c-.2,.2,-.2,.5,-.1,.7c.1,.2,.3,.4,.6,.4v-.7l.5,.4c.3,-.3,.5,-.7,.5,-1.2v-.4c0,-1.2,-.9,-2.1,-2,-2.1H548c-.5,0,-1,.2,-1.4,.6l.5,.5h.7V321h-.7l-.5,.5c.4,.3,.9,.5,1.4,.5h4.6c1.1,0,2,-.9,2,-2v-.4c0,-.4,-.1,-.9,-.4,-1.2l-.5,.4v.7h1.8c.2,0,.4,.2,.4,.4v8.8c0,.2,-.2,.4,-.4,.4h-1.9v.7l.5,.4Z" class="gb_29"/>
<path d="M547.1,320.8h.7c0,-1.2,-.9,-2.1,-2.1,-2.1h-.6c-1.2,0,-2.1,.9,-2.1,2.1v7c0,1.2,.9,2.1,2.1,2.1h.6c1.2,0,2.1,-.9,2.1,-2.1v-7h-1.4v7c0,.4,-.3,.7,-.7,.7h-.6c-.4,0,-.7,-.3,-.7,-.7v-7c0,-.4,.3,-.7,.7,-.7h.6c.4,0,.7,.3,.7,.7Z" class="gb_29"/>
<path d="M548,343.1v.7h4.6c1.1,0,2,-.9,2,-2.1v-.3c0,-1.2,-.9,-2.1,-2,-2.1H548c-.5,0,-1,.2,-1.4,.5c-.1,.2,-.2,.4,-.2,.6v.2c0,.2,-.1,.4,-.2,.5c-.2,.1,-.2,.3,-.2,.5v.1c0,1.2,.9,2.1,2,2.1v-1.4c-.4,0,-.7,-.3,-.7,-.7v-.1h-.7l.5,.5c.4,-.3,.7,-.9,.7,-1.5v-.2h-.7l.4,.5c.2,-.2,.3,-.2,.5,-.2h4.6c.3,0,.6,.3,.6,.7v.3c0,.4,-.3,.7,-.6,.7H548Z" class="gb_29"/>
<path d="M547.1,333.8l-.5,.5c.4,.3,.9,.5,1.4,.5h4.6c1.1,0,2,-.9,2,-2v-.4c0,-1.1,-.9,-2.1,-2,-2.1H548c-1.1,0,-2,1,-2,2.1v.1c0,.2,0,.4,.2,.6c.1,.1,.2,.2,.2,.4v.3c0,.2,.1,.4,.2,.5l.5,-.5h.7v-.3c0,-.6,-.3,-1.1,-.7,-1.5l-.5,.5h.7v-.1c0,-.4,.3,-.7,.7,-.7h4.6c.3,0,.6,.3,.6,.7v.4c0,.3,-.3,.6,-.6,.6H548c-.2,0,-.3,0,-.5,-.1l-.4,.5h.7Z" class="gb_29"/>
<path d="M553.6,342.6v.7h1.9c1,0,1.8,-.8,1.8,-1.8v-8.8c0,-1,-.8,-1.8,-1.8,-1.8h-1.8c-.3,0,-.5,.1,-.7,.4c-.1,.2,-.1,.5,.1,.7c.1,.1,.1,.2,.1,.4v.4c0,.3,-.3,.6,-.6,.6H548c-.2,0,-.3,0,-.5,-.1c-.2,-.2,-.4,-.3,-.7,-.2c-.2,.2,-.4,.4,-.4,.7v6.6c0,.2,.2,.5,.4,.6c.3,.1,.5,0,.7,-.1c.2,-.2,.3,-.2,.5,-.2h4.6c.3,0,.6,.3,.6,.7v.3c0,.2,0,.3,-.1,.5c-.2,.2,-.2,.4,-.1,.7c.1,.2,.3,.4,.6,.4v-.7l.5,.4c.3,-.3,.5,-.8,.5,-1.3v-.3c0,-1.2,-.9,-2.1,-2,-2.1H548c-.5,0,-1,.2,-1.4,.5l.5,.6h.7v-6.6h-.7l-.5,.5c.4,.3,.9,.5,1.4,.5h4.6c1.1,0,2,-.9,2,-2v-.4c0,-.5,-.1,-.9,-.4,-1.2l-.5,.4v.7h1.8c.2,0,.4,.2,.4,.4v8.8c0,.2,-.2,.4,-.4,.4h-1.9v.7l.5,.4Z" class="gb_29"/>
<path d="M547.1,333.5h.7c0,-1.1,-.9,-2,-2.1,-2h-.6c-1.2,0,-2.1,.9,-2.1,2v7.1c0,1.1,.9,2.1,2.1,2.1h.6c1.2,0,2.1,-1,2.1,-2.1v-7.1h-1.4v7.1c0,.4,-.3,.7,-.7,.7h-.6c-.4,0,-.7,-.3,-.7,-.7v-7.1c0,-.3,.3,-.6,.7,-.6h.6c.4,0,.7,.3,.7,.6Z" class="gb_29"/>
<path d="M532.7,329.5h3.2c.5,0,.9,-.3,.9,-.6v-.1c0,-.4,-.4,-.6,-.9,-.6h-3.2c-.2,0,-.5,0,-.6,.1v.1c0,.2,-.1,.4,-.3,.5c0,.3,.4,.6,.9,.6Z" class="gb_29"/>
<path d="M532.2,319.7c.2,.1,.4,.1,.7,.1h3.3c.5,0,.9,-.3,.9,-.6V319c0,-.3,-.4,-.6,-.9,-.6h-3.3c-.6,0,-1,.3,-1,.6v.1c.2,.1,.3,.3,.3,.5Z" class="gb_29"/>
<path d="M538,329.5h1.8c.6,0,1.1,-.5,1.1,-1.1v-8.8c0,-.6,-.5,-1.1,-1.1,-1.1h-1.7c.1,.2,.2,.5,.2,.8v.4c0,.7,-.6,1.3,-1.3,1.3h-4.3c-.4,0,-.7,-.1,-.9,-.3v6.6c.2,-.2,.5,-.4,.9,-.4H537c.7,0,1.3,.6,1.3,1.4v.4c0,.3,-.1,.6,-.3,.8Z" class="gb_29"/>
<path d="M530.5,321.2c0,-.6,-.5,-1.1,-1.1,-1.1c-.6,0,-1.1,.5,-1.1,1.1v5.6c0,.6,.5,1.1,1.1,1.1c.6,0,1.1,-.5,1.1,-1.1Z" class="gb_29"/>
<path d="M532.3,343.1v.7h4.5c1.2,0,2.1,-.9,2.1,-2.1v-.3c0,-1.2,-.9,-2.1,-2.1,-2.1h-4.5c-.6,0,-1.1,.2,-1.4,.5c-.2,.2,-.2,.4,-.2,.6v.2c0,.2,-.1,.4,-.3,.5c-.1,.1,-.2,.3,-.2,.5v.1c0,1.2,.9,2.1,2.1,2.1v-1.4c-.4,0,-.7,-.3,-.7,-.7v-.1h-.7l.5,.5c.4,-.3,.6,-.9,.6,-1.5v-.2h-.7l.5,.5c.1,-.2,.3,-.2,.5,-.2h4.5c.4,0,.7,.3,.7,.7v.3c0,.4,-.3,.7,-.7,.7h-4.5Z" class="gb_29"/>
<path d="M531.3,333.8l-.4,.5c.3,.3,.8,.5,1.4,.5h4.5c1.2,0,2.1,-.9,2.1,-2v-.4c0,-1.1,-.9,-2.1,-2.1,-2.1h-4.5c-1.2,0,-2.1,1,-2.1,2.1v.1c0,.2,.1,.4,.2,.6c.2,.1,.3,.2,.3,.4v.3c0,.2,0,.4,.2,.5l.4,-.5h.7v-.3c0,-.6,-.2,-1.1,-.6,-1.5l-.5,.5h.7v-.1c0,-.4,.3,-.7,.7,-.7h4.5c.4,0,.7,.3,.7,.7v.4c0,.3,-.3,.6,-.7,.6h-4.5c-.2,0,-.4,0,-.5,-.1l-.5,.5h.7Z" class="gb_29"/>
<path d="M537.9,342.6v.7h1.9c1,0,1.8,-.8,1.8,-1.8v-8.8c0,-1,-.8,-1.8,-1.8,-1.8h-1.9c-.2,0,-.5,.1,-.6,.4c-.1,.2,-.1,.5,.1,.7c0,.1,.1,.2,.1,.4v.4c0,.3,-.3,.6,-.7,.6h-4.5c-.2,0,-.4,0,-.5,-.1c-.2,-.2,-.5,-.3,-.7,-.2c-.3,.2,-.4,.4,-.4,.7v6.6c0,.2,.1,.5,.4,.6c.2,.1,.5,0,.7,-.1c.1,-.2,.3,-.2,.5,-.2h4.5c.4,0,.7,.3,.7,.7v.3c0,.2,-.1,.3,-.2,.5c-.1,.2,-.2,.4,0,.7c.1,.2,.3,.4,.6,.4v-.7l.5,.4c.3,-.3,.5,-.8,.5,-1.3v-.3c0,-1.2,-.9,-2.1,-2.1,-2.1h-4.5c-.6,0,-1.1,.2,-1.4,.5l.5,.6h.6v-6.6h-.6l-.5,.5c.3,.3,.8,.5,1.4,.5h4.5c1.2,0,2.1,-.9,2.1,-2v-.4c0,-.5,-.2,-.9,-.4,-1.2l-.6,.4v.7h1.9c.2,0,.4,.2,.4,.4v8.8c0,.2,-.2,.4,-.4,.4h-1.9v.7l.5,.4Z" class="gb_29"/>
<path d="M531.3,333.5h.7c0,-1.1,-.9,-2,-2,-2h-.7c-1.1,0,-2,.9,-2,2v7.1c0,1.1,.9,2.1,2,2.1h.7c1.1,0,2,-1,2,-2.1v-7.1h-1.3v7.1c0,.4,-.3,.7,-.7,.7h-.7c-.3,0,-.6,-.3,-.6,-.7v-7.1c0,-.3,.3,-.6,.6,-.6h.7c.4,0,.7,.3,.7,.6Z" class="gb_29"/>
<path d="M516.5,330.3v.7h4.6c1.1,0,2,-.9,2,-2v-.4c0,-1.2,-.9,-2.1,-2,-2.1h-4.6c-.5,0,-1,.2,-1.3,.6c-.2,.1,-.3,.3,-.3,.5v.2c0,.2,-.1,.4,-.2,.5c-.1,.2,-.2,.3,-.2,.5v.2c0,1.1,.9,2,2,2v-1.4c-.3,0,-.6,-.3,-.6,-.6v-.2h-.7l.4,.5c.4,-.3,.7,-.9,.7,-1.5v-.2h-.7l.5,.5c.1,-.1,.2,-.2,.4,-.2h4.6c.4,0,.7,.3,.7,.7v.4c0,.3,-.3,.6,-.7,.6h-4.6Z" class="gb_29"/>
<path d="M515.6,321l-.4,.5c.3,.3,.8,.5,1.3,.5h4.6c1.1,0,2,-.9,2,-2v-.4c0,-1.1,-.9,-2,-2,-2h-4.6c-1.1,0,-2,.9,-2,2v.2c0,.2,.1,.3,.2,.5c.1,.1,.2,.3,.2,.5v.2c0,.2,.1,.4,.3,.5l.4,-.5h.7v-.2c0,-.6,-.3,-1.2,-.7,-1.5l-.4,.5h.7v-.2c0,-.4,.3,-.7,.6,-.7h4.6c.4,0,.7,.3,.7,.7v.4c0,.4,-.3,.7,-.7,.7h-4.6c-.2,0,-.3,-.1,-.4,-.2l-.5,.5h.7Z" class="gb_29"/>
<path d="M522.1,329.8v.7H524c1,0,1.8,-.8,1.8,-1.8v-8.8c0,-1,-.8,-1.8,-1.8,-1.8h-1.8c-.3,0,-.5,.2,-.6,.4c-.1,.2,-.1,.5,0,.7c.1,.1,.2,.3,.2,.4v.4c0,.4,-.3,.7,-.7,.7h-4.6c-.2,0,-.3,-.1,-.4,-.2c-.2,-.2,-.5,-.2,-.8,-.1c-.2,.1,-.4,.3,-.4,.6v6.6c0,.2,.2,.5,.4,.6c.3,.1,.6,.1,.8,-.1c.1,-.1,.2,-.2,.4,-.2h4.6c.4,0,.7,.3,.7,.7v.4c0,.1,-.1,.3,-.2,.4c-.2,.2,-.2,.5,-.1,.7c.1,.2,.4,.4,.6,.4v-.7l.6,.4c.2,-.3,.4,-.7,.4,-1.2v-.4c0,-1.2,-.9,-2.1,-2,-2.1h-4.6c-.5,0,-1,.2,-1.3,.6l.4,.5h.7V321h-.7l-.4,.5c.3,.3,.8,.5,1.3,.5h4.6c1.1,0,2,-.9,2,-2v-.4c0,-.4,-.1,-.9,-.4,-1.2l-.5,.4v.7H524c.3,0,.5,.2,.5,.4v8.8c0,.2,-.2,.4,-.5,.4h-1.9v.7l.6,.4Z" class="gb_29"/>
<path d="M515.6,320.8h.7c0,-1.2,-.9,-2.1,-2,-2.1h-.7c-1.1,0,-2.1,.9,-2.1,2.1v7c0,1.2,1,2.1,2.1,2.1h.7c1.1,0,2,-.9,2,-2.1v-7h-1.4v7c0,.4,-.3,.7,-.6,.7h-.7c-.4,0,-.7,-.3,-.7,-.7v-7c0,-.4,.3,-.7,.7,-.7h.7c.3,0,.6,.3,.6,.7Z" class="gb_29"/>
<path d="M516.5,343.1v.7h4.6c1.1,0,2,-.9,2,-2.1v-.3c0,-1.2,-.9,-2.1,-2,-2.1h-4.6c-.5,0,-1,.2,-1.3,.5c-.2,.2,-.3,.4,-.3,.6v.2c0,.2,-.1,.4,-.2,.5c-.1,.1,-.2,.3,-.2,.5v.1c0,1.2,.9,2.1,2,2.1v-1.4c-.3,0,-.6,-.3,-.6,-.7v-.1h-.7l.4,.5c.4,-.3,.7,-.9,.7,-1.5v-.2h-.7l.5,.5c.1,-.2,.2,-.2,.4,-.2h4.6c.4,0,.7,.3,.7,.7v.3c0,.4,-.3,.7,-.7,.7h-4.6Z" class="gb_29"/>
<path d="M515.6,333.8l-.4,.5c.3,.3,.8,.5,1.3,.5h4.6c1.1,0,2,-.9,2,-2v-.4c0,-1.1,-.9,-2.1,-2,-2.1h-4.6c-1.1,0,-2,1,-2,2.1v.1c0,.2,.1,.4,.2,.6c.1,.1,.2,.2,.2,.4v.3c0,.2,.1,.4,.3,.5l.4,-.5h.7v-.3c0,-.6,-.3,-1.1,-.7,-1.5l-.4,.5h.7v-.1c0,-.4,.3,-.7,.6,-.7h4.6c.4,0,.7,.3,.7,.7v.4c0,.3,-.3,.6,-.7,.6h-4.6c-.2,0,-.3,0,-.4,-.1l-.5,.5h.7Z" class="gb_29"/>
<path d="M522.1,342.6v.7H524c1,0,1.8,-.8,1.8,-1.8v-8.8c0,-1,-.8,-1.8,-1.8,-1.8h-1.8c-.3,0,-.5,.1,-.6,.4c-.1,.2,-.1,.5,0,.7c.1,.1,.2,.2,.2,.4v.4c0,.3,-.3,.6,-.7,.6h-4.6c-.2,0,-.3,0,-.4,-.1c-.2,-.2,-.5,-.3,-.8,-.2c-.2,.2,-.4,.4,-.4,.7v6.6c0,.2,.2,.5,.4,.6c.3,.1,.6,0,.8,-.1c.1,-.2,.2,-.2,.4,-.2h4.6c.4,0,.7,.3,.7,.7v.3c0,.2,-.1,.3,-.2,.5c-.2,.2,-.2,.4,-.1,.7c.1,.2,.4,.4,.6,.4v-.7l.6,.4c.2,-.3,.4,-.8,.4,-1.3v-.3c0,-1.2,-.9,-2.1,-2,-2.1h-4.6c-.5,0,-1,.2,-1.3,.5l.4,.6h.7v-6.6h-.7l-.4,.5c.3,.3,.8,.5,1.3,.5h4.6c1.1,0,2,-.9,2,-2v-.4c0,-.5,-.1,-.9,-.4,-1.2l-.5,.4v.7H524c.3,0,.5,.2,.5,.4v8.8c0,.2,-.2,.4,-.5,.4h-1.9v.7l.6,.4Z" class="gb_29"/>
<path d="M515.6,333.5h.7c0,-1.1,-.9,-2,-2,-2h-.7c-1.1,0,-2.1,.9,-2.1,2v7.1c0,1.1,1,2.1,2.1,2.1h.7c1.1,0,2,-1,2,-2.1v-7.1h-1.4v7.1c0,.4,-.3,.7,-.6,.7h-.7c-.4,0,-.7,-.3,-.7,-.7v-7.1c0,-.3,.3,-.6,.7,-.6h.7c.3,0,.6,.3,.6,.6Z" class="gb_29"/>
<image clip-path="url(#c10_29)" preserveAspectRatio="none" x="399" y="350" width="89" height="31" xlink:href="img/40.jpg"/>
<image clip-path="url(#c11_29)" preserveAspectRatio="none" x="409" y="279" width="88" height="72" xlink:href="img/41.jpg"/>
<image clip-path="url(#c12_29)" preserveAspectRatio="none" x="409" y="372" width="79" height="4" xlink:href="img/42.jpg"/>
<image clip-path="url(#c13_29)" preserveAspectRatio="none" x="487" y="350" width="11" height="31" xlink:href="img/43.jpg"/>
<image clip-path="url(#c14_29)" preserveAspectRatio="none" x="488" y="279" width="9" height="72" xlink:href="img/44.jpg"/>
<image clip-path="url(#c15_29)" preserveAspectRatio="none" x="487" y="372" width="11" height="3" xlink:href="img/45.jpg"/>
<image clip-path="url(#c16_29)" preserveAspectRatio="none" x="494" y="300" width="4" height="68" xlink:href="img/46.jpg"/>
<image clip-path="url(#c17_29)" preserveAspectRatio="none" x="494" y="367" width="4" height="9" xlink:href="img/47.jpg"/>
<path d="M424.8,291.5c-10.1,0,-18.3,8.2,-18.3,18.3V374h79V309.8c0,-10.1,-8.2,-18.3,-18.3,-18.3Z" class="g3_29"/>
<path d="M406.4,374.8h79.1v-7.1H406.4v7.1Z" class="ga_29"/>
<path d="M411.8,349.9h2.4c.2,0,.4,-.2,.4,-.4c0,-.2,-.2,-.3,-.4,-.3h-2.4c-.2,0,-.3,.1,-.3,.3c0,.2,.1,.4,.3,.4m3.9,0h2.4c.2,0,.3,-.2,.3,-.4c0,-.2,-.1,-.3,-.3,-.3h-2.4c-.2,0,-.4,.1,-.4,.3c0,.2,.2,.4,.4,.4m3.9,0h2.3c.2,0,.4,-.2,.4,-.4c0,-.2,-.2,-.3,-.4,-.3h-2.3c-.2,0,-.4,.1,-.4,.3c0,.2,.2,.4,.4,.4m3.9,0h2.3c.2,0,.4,-.2,.4,-.4c0,-.2,-.2,-.3,-.4,-.3h-2.3c-.2,0,-.4,.1,-.4,.3c0,.2,.2,.4,.4,.4m3.9,0h2.3c.2,0,.4,-.2,.4,-.4c0,-.2,-.2,-.3,-.4,-.3h-2.3c-.2,0,-.4,.1,-.4,.3c0,.2,.2,.4,.4,.4m3.9,0h2.3c.2,0,.4,-.2,.4,-.4c0,-.2,-.2,-.3,-.4,-.3h-2.3c-.3,0,-.4,.1,-.4,.3c0,.2,.1,.4,.4,.4m3.8,0h2.4c.2,0,.3,-.2,.3,-.4c0,-.2,-.1,-.3,-.3,-.3h-2.4c-.2,0,-.3,.1,-.3,.3c0,.2,.1,.4,.3,.4m3.9,0h2.3c.3,0,.4,-.2,.4,-.4c0,-.2,-.1,-.3,-.4,-.3H439c-.2,0,-.4,.1,-.4,.3c0,.2,.2,.4,.4,.4m3.9,0h2.3c.2,0,.4,-.2,.4,-.4c0,-.2,-.2,-.3,-.4,-.3h-2.3c-.2,0,-.4,.1,-.4,.3c0,.2,.2,.4,.4,.4m3.9,0h2.3c.2,0,.4,-.2,.4,-.4c0,-.2,-.2,-.3,-.4,-.3h-2.3c-.2,0,-.4,.1,-.4,.3c0,.2,.2,.4,.4,.4m3.9,0H453c.2,0,.4,-.2,.4,-.4c0,-.2,-.2,-.3,-.4,-.3h-2.3c-.2,0,-.4,.1,-.4,.3c0,.2,.2,.4,.4,.4m3.8,0h2.4c.2,0,.4,-.2,.4,-.4c0,-.2,-.2,-.3,-.4,-.3h-2.4c-.2,0,-.3,.1,-.3,.3c0,.2,.1,.4,.3,.4m3.9,0h2.4c.2,0,.3,-.2,.3,-.4c0,-.2,-.1,-.3,-.3,-.3h-2.4c-.2,0,-.4,.1,-.4,.3c0,.2,.2,.4,.4,.4m3.9,0h2.3c.2,0,.4,-.2,.4,-.4c0,-.2,-.2,-.3,-.4,-.3h-2.3c-.2,0,-.4,.1,-.4,.3c0,.2,.2,.4,.4,.4m3.9,0h2.3c.2,0,.4,-.2,.4,-.4c0,-.2,-.2,-.3,-.4,-.3h-2.3c-.2,0,-.4,.1,-.4,.3c0,.2,.2,.4,.4,.4m3.9,0h2.3c.2,0,.4,-.2,.4,-.4c0,-.2,-.2,-.3,-.4,-.3h-2.3c-.2,0,-.4,.1,-.4,.3c0,.2,.2,.4,.4,.4m3.9,0h2.3c.2,0,.4,-.2,.4,-.4c0,-.2,-.2,-.3,-.4,-.3H474c-.3,0,-.4,.1,-.4,.3c0,.2,.1,.4,.4,.4m3.8,0h2.4c.2,0,.3,-.2,.3,-.4c0,-.2,-.1,-.3,-.3,-.3h-2.4c-.2,0,-.3,.1,-.3,.3c0,.2,.1,.4,.3,.4Z" class="gc_29"/>
<path d="M459.3,313.5h2.2c.2,0,.4,-.2,.4,-.4c0,-.2,-.2,-.3,-.4,-.3h-2.2c-.2,0,-.4,.1,-.4,.3c0,.2,.2,.4,.4,.4m3.7,0h2.3c.2,0,.3,-.2,.3,-.4c0,-.2,-.1,-.3,-.3,-.3H463c-.2,0,-.4,.1,-.4,.3c0,.2,.2,.4,.4,.4m3.7,0H469c.2,0,.4,-.2,.4,-.4c0,-.2,-.2,-.3,-.4,-.3h-2.3c-.2,0,-.4,.1,-.4,.3c0,.2,.2,.4,.4,.4m3.8,0h2.2c.2,0,.4,-.2,.4,-.4c0,-.2,-.2,-.3,-.4,-.3h-2.2c-.3,0,-.4,.1,-.4,.3c0,.2,.1,.4,.4,.4m3.7,0h2.2c.2,0,.4,-.2,.4,-.4c0,-.2,-.2,-.3,-.4,-.3h-2.2c-.2,0,-.4,.1,-.4,.3c0,.2,.2,.4,.4,.4m3.7,0h2.2c.2,0,.4,-.2,.4,-.4c0,-.2,-.2,-.3,-.4,-.3h-2.2c-.2,0,-.4,.1,-.4,.3c0,.2,.2,.4,.4,.4Z" class="gc_29"/>
<path d="M411.9,313.5h2.2c.2,0,.4,-.2,.4,-.4c0,-.2,-.2,-.3,-.4,-.3h-2.2c-.2,0,-.4,.1,-.4,.3c0,.2,.2,.4,.4,.4m3.7,0h2.2c.2,0,.4,-.2,.4,-.4c0,-.2,-.2,-.3,-.4,-.3h-2.2c-.2,0,-.4,.1,-.4,.3c0,.2,.2,.4,.4,.4m3.7,0h2.3c.2,0,.3,-.2,.3,-.4c0,-.2,-.1,-.3,-.3,-.3h-2.3c-.2,0,-.4,.1,-.4,.3c0,.2,.2,.4,.4,.4m3.7,0h2.3c.2,0,.4,-.2,.4,-.4c0,-.2,-.2,-.3,-.4,-.3H423c-.2,0,-.3,.1,-.3,.3c0,.2,.1,.4,.3,.4m3.8,0H429c.2,0,.4,-.2,.4,-.4c0,-.2,-.2,-.3,-.4,-.3h-2.2c-.3,0,-.4,.1,-.4,.3c0,.2,.1,.4,.4,.4m3.7,0h2.2c.2,0,.4,-.2,.4,-.4c0,-.2,-.2,-.3,-.4,-.3h-2.2c-.2,0,-.4,.1,-.4,.3c0,.2,.2,.4,.4,.4Z" class="gc_29"/>
<path d="M436.7,316.1v-.7c-1.1,0,-2,.9,-2,2.1v29.3h22.9V317.5c0,-1.2,-.9,-2.1,-2.1,-2.1H436.7v1.5h18.8c.3,0,.6,.2,.6,.6v27.8H436.2V317.5c0,-.4,.2,-.6,.5,-.6Z" class="gc_29"/>
<path d="M438.7,311.1v-.3c-.5,0,-1,.4,-1,1v4.6h16.9v-4.6c0,-.6,-.5,-1,-1,-1H438.7v.7h14.9c.1,0,.3,.1,.3,.3v3.9H438.4v-3.9c0,-.2,.1,-.3,.3,-.3Z" class="gc_29"/>
<path d="M443.6,338.2h-.4v7.6l.1,.3l.3,.1h5.2l.2,-.1l.1,-.3v-7.6l-.1,-.3l-.2,-.1h-5.2l-.3,.1l-.1,.3h.4v.4h4.8v6.9H444v-7.3h-.4v.4Z" class="gc_29"/>
<path d="M450.5,338.2h-.4v4.1l.1,.3l.3,.1h4.1l.3,-.1l.1,-.3v-4.1l-.1,-.3l-.3,-.1h-4.1l-.3,.1l-.1,.3h.4v.4h3.8v3.3h-3.4v-3.7h-.4v.4Z" class="gc_29"/>
<path d="M437.7,338.2h-.4v4.1l.1,.3l.3,.1h4.1l.3,-.1l.1,-.3v-4.1l-.1,-.3l-.3,-.1h-4.1l-.3,.1l-.1,.3h.4v.4h3.8v3.3h-3.4v-3.7h-.4v.4Z" class="gc_29"/>
<path d="M445.8,342.2h.8v-1h-.8v1Z" class="gc_29"/>
<path d="M450.5,331.9h-.4V336l.1,.3l.3,.1h4.1l.3,-.1l.1,-.3v-4.1l-.1,-.3l-.3,-.1h-4.1l-.3,.1l-.1,.3h.4v.4h3.8v3.3h-3.4v-3.7h-.4v.4Z" class="gc_29"/>
<path d="M444.1,331.9h-.4V336l.1,.3l.3,.1h4.1l.3,-.1l.1,-.3v-4.1l-.1,-.3l-.3,-.1h-4.1l-.3,.1l-.1,.3h.4v.4h3.8v3.3h-3.4v-3.7h-.4v.4Z" class="gc_29"/>
<path d="M437.7,331.9h-.4V336l.1,.3l.3,.1h4.1l.3,-.1l.1,-.3v-4.1l-.1,-.3l-.3,-.1h-4.1l-.3,.1l-.1,.3h.4v.4h3.8v3.3h-3.4v-3.7h-.4v.4Z" class="gc_29"/>
<path d="M450.5,325.6h-.4v4.1l.1,.3l.3,.1h4.1l.3,-.1l.1,-.3v-4.1l-.1,-.3l-.3,-.1h-4.1l-.3,.1l-.1,.3h.4v.4h3.8v3.3h-3.4v-3.7h-.4v.4Z" class="gc_29"/>
<path d="M444.1,325.6h-.4v4.1l.1,.3l.3,.1h4.1l.3,-.1l.1,-.3v-4.1l-.1,-.3l-.3,-.1h-4.1l-.3,.1l-.1,.3h.4v.4h3.8v3.3h-3.4v-3.7h-.4v.4Z" class="gc_29"/>
<path d="M437.7,325.6h-.4v4.1l.1,.3l.3,.1h4.1l.3,-.1l.1,-.3v-4.1l-.1,-.3l-.3,-.1h-4.1l-.3,.1l-.1,.3h.4v.4h3.8v3.3h-3.4v-3.7h-.4v.4Z" class="gc_29"/>
<path d="M450.5,319.3h-.4v4.1l.1,.2l.3,.1h4.1l.3,-.1l.1,-.2v-4.1l-.1,-.3l-.3,-.1h-4.1l-.3,.1l-.1,.3h.4v.3h3.8V323h-3.4v-3.7h-.4v.3Z" class="gc_29"/>
<path d="M444.1,319.3h-.4v4.1l.1,.2l.3,.1h4.1l.3,-.1l.1,-.2v-4.1l-.1,-.3l-.3,-.1h-4.1l-.3,.1l-.1,.3h.4v.3h3.8V323h-3.4v-3.7h-.4v.3Z" class="gc_29"/>
<path d="M437.7,319.3h-.4v4.1l.1,.2l.3,.1h4.1l.3,-.1l.1,-.2v-4.1l-.1,-.3l-.3,-.1h-4.1l-.3,.1l-.1,.3h.4v.3h3.8V323h-3.4v-3.7h-.4v.3Z" class="gc_29"/>
<path d="M441.3,312.2l-.2,-.2l-.5,.8l-.8,.2l-.2,.1l.1,.2l.5,.7v.8l.1,.2l.2,.1l.8,-.4l.7,.4l.3,-.1l.1,-.2l-.1,-.8l.5,-.7l.1,-.2l-.2,-.1l-.8,-.2l-.4,-.8l-.2,-.1l-.2,.1l.2,.2l-.2,.1l.5,.8l.1,.1l.5,.1l-.3,.5l-.1,.1l.1,.6l-.6,-.2h-.1l-.5,.2v-.6l-.1,-.1l-.3,-.5l.5,-.1l.2,-.1l.5,-.8l-.2,-.1l-.2,.1Z" class="gc_29"/>
<path d="M446.1,312.2l-.2,-.2l-.4,.8l-.8,.2l-.2,.1l.1,.2l.5,.7l-.1,.8l.1,.2l.3,.1l.7,-.4l.8,.4l.2,-.1l.1,-.2V314l.5,-.7l.1,-.2l-.2,-.1l-.8,-.2l-.5,-.8l-.2,-.1l-.2,.1l.2,.2l-.2,.1l.5,.8l.2,.1l.5,.1l-.3,.5l-.1,.1v.6l-.5,-.2H446l-.5,.2l.1,-.6l-.1,-.1l-.3,-.5l.5,-.1l.1,-.1l.5,-.8l-.2,-.1l-.2,.1Z" class="gc_29"/>
<path d="M451,312.2l-.2,-.2l-.4,.8l-.8,.2l-.2,.1v.2l.6,.7l-.1,.8l.1,.2l.2,.1l.8,-.4l.8,.4l.2,-.1l.1,-.2L452,314l.6,-.7v-.2l-.1,-.1l-.8,-.2l-.5,-.8l-.2,-.1l-.2,.1l.2,.2l-.2,.1l.5,.8l.1,.1l.6,.1l-.4,.5v.7l-.5,-.2h-.2l-.5,.2v-.7l-.4,-.5l.6,-.1l.1,-.1l.5,-.8l-.2,-.1l-.2,.1Z" class="gc_29"/>
<path d="M433.7,347.1h24.6c.5,0,1,-.4,1,-.9c0,-.5,-.5,-1,-1,-1H433.7c-.5,0,-.9,.5,-.9,1c0,.5,.4,.9,.9,.9Z" class="gc_29"/>
<path d="M446,338.1v7.4h.3v-7.4Z" class="gc_29"/>
<image clip-path="url(#c18_29)" preserveAspectRatio="none" x="321" y="350" width="79" height="31" xlink:href="img/48.jpg"/>
<image clip-path="url(#c19_29)" preserveAspectRatio="none" x="312" y="279" width="97" height="72" xlink:href="img/49.jpg"/>
<image clip-path="url(#c1a_29)" preserveAspectRatio="none" x="321" y="372" width="79" height="4" xlink:href="img/50.jpg"/>
<image clip-path="url(#c1b_29)" preserveAspectRatio="none" x="311" y="350" width="11" height="31" xlink:href="img/51.jpg"/>
<image clip-path="url(#c1c_29)" preserveAspectRatio="none" x="312" y="279" width="9" height="72" xlink:href="img/52.jpg"/>
<image clip-path="url(#c1d_29)" preserveAspectRatio="none" x="311" y="372" width="11" height="3" xlink:href="img/53.jpg"/>
<image clip-path="url(#c1e_29)" preserveAspectRatio="none" x="399" y="350" width="11" height="31" xlink:href="img/54.jpg"/>
<image clip-path="url(#c1f_29)" preserveAspectRatio="none" x="400" y="279" width="9" height="72" xlink:href="img/55.jpg"/>
<image clip-path="url(#c1g_29)" preserveAspectRatio="none" x="399" y="372" width="11" height="3" xlink:href="img/56.jpg"/>
<image clip-path="url(#c1h_29)" preserveAspectRatio="none" x="406" y="300" width="4" height="68" xlink:href="img/57.jpg"/>
<image clip-path="url(#c1i_29)" preserveAspectRatio="none" x="406" y="367" width="4" height="9" xlink:href="img/58.jpg"/>
<path d="M336.7,291.5c-10.1,0,-18.3,8.2,-18.3,18.3V374h79V309.8c0,-10.1,-8.2,-18.3,-18.3,-18.3Z" class="g3_29"/>
<path d="M318.3,374.8h79.1v-7.1H318.3v7.1Z" class="ga_29"/>
<path d="M324.5,317.7h2.2c.2,0,.4,-.2,.4,-.4c0,-.2,-.2,-.4,-.4,-.4h-2.2c-.2,0,-.3,.2,-.3,.4c0,.2,.1,.4,.3,.4m3.6,0h2.2c.2,0,.3,-.2,.3,-.4c0,-.2,-.1,-.4,-.3,-.4h-2.2c-.2,0,-.4,.2,-.4,.4c0,.2,.2,.4,.4,.4m3.6,0h2.1c.2,0,.4,-.2,.4,-.4c0,-.2,-.2,-.4,-.4,-.4h-2.1c-.3,0,-.4,.2,-.4,.4c0,.2,.1,.4,.4,.4m3.5,0h2.2c.2,0,.3,-.2,.3,-.4c0,-.2,-.1,-.4,-.3,-.4h-2.2c-.2,0,-.4,.2,-.4,.4c0,.2,.2,.4,.4,.4m3.6,0h2.1c.2,0,.4,-.2,.4,-.4c0,-.2,-.2,-.4,-.4,-.4h-2.1c-.2,0,-.4,.2,-.4,.4c0,.2,.2,.4,.4,.4m3.5,0h2.2c.2,0,.4,-.2,.4,-.4c0,-.2,-.2,-.4,-.4,-.4h-2.2c-.2,0,-.4,.2,-.4,.4c0,.2,.2,.4,.4,.4m3.6,0H348c.2,0,.4,-.2,.4,-.4c0,-.2,-.2,-.4,-.4,-.4h-2.1c-.2,0,-.4,.2,-.4,.4c0,.2,.2,.4,.4,.4Z" class="gd_29"/>
<path d="M324.5,349.9h2.4c.2,0,.4,-.2,.4,-.4c0,-.2,-.2,-.3,-.4,-.3h-2.4c-.2,0,-.3,.1,-.3,.3c0,.2,.1,.4,.3,.4m3.9,0h2.4c.2,0,.3,-.2,.3,-.4c0,-.2,-.1,-.3,-.3,-.3h-2.4c-.2,0,-.4,.1,-.4,.3c0,.2,.2,.4,.4,.4m3.9,0h2.3c.2,0,.4,-.2,.4,-.4c0,-.2,-.2,-.3,-.4,-.3h-2.3c-.2,0,-.4,.1,-.4,.3c0,.2,.2,.4,.4,.4m3.9,0h2.3c.2,0,.4,-.2,.4,-.4c0,-.2,-.2,-.3,-.4,-.3h-2.3c-.2,0,-.4,.1,-.4,.3c0,.2,.2,.4,.4,.4m3.9,0h2.3c.2,0,.4,-.2,.4,-.4c0,-.2,-.2,-.3,-.4,-.3h-2.3c-.2,0,-.4,.1,-.4,.3c0,.2,.2,.4,.4,.4m3.9,0h2.3c.2,0,.4,-.2,.4,-.4c0,-.2,-.2,-.3,-.4,-.3H344c-.3,0,-.4,.1,-.4,.3c0,.2,.1,.4,.4,.4m3.8,0h2.4c.2,0,.3,-.2,.3,-.4c0,-.2,-.1,-.3,-.3,-.3h-2.4c-.2,0,-.3,.1,-.3,.3c0,.2,.1,.4,.3,.4m3.9,0H354c.3,0,.4,-.2,.4,-.4c0,-.2,-.1,-.3,-.4,-.3h-2.3c-.2,0,-.4,.1,-.4,.3c0,.2,.2,.4,.4,.4m3.9,0h2.3c.2,0,.4,-.2,.4,-.4c0,-.2,-.2,-.3,-.4,-.3h-2.3c-.2,0,-.4,.1,-.4,.3c0,.2,.2,.4,.4,.4m3.9,0h2.3c.2,0,.4,-.2,.4,-.4c0,-.2,-.2,-.3,-.4,-.3h-2.3c-.2,0,-.4,.1,-.4,.3c0,.2,.2,.4,.4,.4m3.9,0h2.3c.2,0,.4,-.2,.4,-.4c0,-.2,-.2,-.3,-.4,-.3h-2.3c-.2,0,-.4,.1,-.4,.3c0,.2,.2,.4,.4,.4m3.8,0h2.4c.2,0,.4,-.2,.4,-.4c0,-.2,-.2,-.3,-.4,-.3h-2.4c-.2,0,-.3,.1,-.3,.3c0,.2,.1,.4,.3,.4m3.9,0h2.4c.2,0,.3,-.2,.3,-.4c0,-.2,-.1,-.3,-.3,-.3h-2.4c-.2,0,-.4,.1,-.4,.3c0,.2,.2,.4,.4,.4m3.9,0h2.3c.2,0,.4,-.2,.4,-.4c0,-.2,-.2,-.3,-.4,-.3H375c-.2,0,-.4,.1,-.4,.3c0,.2,.2,.4,.4,.4m3.9,0h2.3c.2,0,.4,-.2,.4,-.4c0,-.2,-.2,-.3,-.4,-.3h-2.3c-.2,0,-.4,.1,-.4,.3c0,.2,.2,.4,.4,.4m3.9,0h2.3c.2,0,.4,-.2,.4,-.4c0,-.2,-.2,-.3,-.4,-.3h-2.3c-.2,0,-.4,.1,-.4,.3c0,.2,.2,.4,.4,.4m3.9,0H389c.2,0,.4,-.2,.4,-.4c0,-.2,-.2,-.3,-.4,-.3h-2.3c-.3,0,-.4,.1,-.4,.3c0,.2,.1,.4,.4,.4m3.8,0h2.4c.2,0,.3,-.2,.3,-.4c0,-.2,-.1,-.3,-.3,-.3h-2.4c-.2,0,-.3,.1,-.3,.3c0,.2,.1,.4,.3,.4Z" class="gd_29"/>
<path d="M371.3,317.7h2.3c.2,0,.4,-.2,.4,-.4c0,-.2,-.2,-.4,-.4,-.4h-2.3c-.2,0,-.4,.2,-.4,.4c0,.2,.2,.4,.4,.4m3.9,0h2.3c.2,0,.4,-.2,.4,-.4c0,-.2,-.2,-.4,-.4,-.4h-2.3c-.2,0,-.4,.2,-.4,.4c0,.2,.2,.4,.4,.4m3.8,0h2.3c.2,0,.4,-.2,.4,-.4c0,-.2,-.2,-.4,-.4,-.4H379c-.2,0,-.4,.2,-.4,.4c0,.2,.2,.4,.4,.4m3.9,0h2.3c.2,0,.4,-.2,.4,-.4c0,-.2,-.2,-.4,-.4,-.4h-2.3c-.2,0,-.4,.2,-.4,.4c0,.2,.2,.4,.4,.4m3.8,0H389c.2,0,.4,-.2,.4,-.4c0,-.2,-.2,-.4,-.4,-.4h-2.3c-.2,0,-.4,.2,-.4,.4c0,.2,.2,.4,.4,.4m3.9,0h2.3c.2,0,.3,-.2,.3,-.4c0,-.2,-.1,-.4,-.3,-.4h-2.3c-.3,0,-.4,.2,-.4,.4c0,.2,.1,.4,.4,.4Z" class="gd_29"/>
<path d="M367.9,329.3c0,3.4,-.1,6.8,0,10.2c.1,3.1,-1.4,5.4,-4.5,6.7c-3.3,1.4,-6.5,1.2,-9.5,-.7c-.4,-.2,-.9,-.5,-1.1,-.9c-.2,-.2,-.1,-.6,0,-.9c.2,-.1,.7,-.1,1,0c.2,.1,.4,.3,.6,.5c3.1,2.2,8,1.9,10.5,-.7c1.1,-1.1,1.5,-2.4,1.5,-3.9c0,-6.8,-.1,-13.6,0,-20.4c0,-2.5,-1.1,-4.4,-3.6,-5.5c-2.6,-1.2,-5.3,-1.1,-7.8,.4c-.3,.2,-.6,.4,-.9,.6c-.4,.4,-.9,.5,-1.2,.1c-.2,-.3,-.1,-.9,.2,-1.1c1.1,-1,2.5,-1.6,4.1,-1.9c4.7,-1,9.6,1.5,10.5,5.4c.2,.6,.2,1.2,.2,1.7c0,3.5,0,7,0,10.4Z" class="gd_29"/>
<path d="M352.8,321.5c-1.7,-.3,-2.2,-1.5,-1.5,-3c.5,-1.1,1.4,-1.5,2.4,-1.8c1.5,-.5,3.2,-.6,4.7,-.1c2,.6,3.2,2.5,3,4.5c-.2,1.9,-1.8,3.6,-3.7,3.9c-2.1,.2,-3.9,-.9,-4.7,-2.8c-.1,-.3,-.1,-.5,-.2,-.7m7.1,0c-1.4,-.5,-1.6,-.6,-2.3,-1.9c-.1,-.3,-.3,-.6,-.4,-.8c-.7,-1,-1.4,-1,-2.2,-.2c-.8,.8,-1.1,2.1,-.6,3.2c.5,1.2,1.5,1.8,2.8,1.8c1.3,0,2.2,-.8,2.7,-2.1m.1,-1.7c.1,-1,-1.8,-1.6,-1.8,-1.6c.5,1.8,1.7,2.2,1.8,1.6m-6.5,-1.7c-1.9,.8,-.9,2.3,-.8,1.9c0,0,.2,-1.2,.8,-1.9Z" class="gd_29"/>
<path d="M352.8,330.8c-1.7,-.3,-2.2,-1.4,-1.5,-3c.5,-1,1.4,-1.5,2.4,-1.8c1.5,-.5,3.2,-.6,4.7,-.1c2,.6,3.2,2.5,3,4.5c-.2,2,-1.8,3.7,-3.7,3.9c-2.1,.2,-3.9,-.9,-4.7,-2.8c-.1,-.2,-.1,-.5,-.2,-.7m7.1,0c-1.4,-.5,-1.6,-.6,-2.3,-1.9c-.1,-.3,-.3,-.5,-.4,-.8c-.7,-1,-1.4,-1,-2.2,-.2c-.8,.9,-1.1,2.2,-.6,3.3c.5,1.1,1.5,1.8,2.8,1.7c1.3,0,2.2,-.7,2.7,-2.1m.1,-1.7c.1,-.9,-1.8,-1.6,-1.8,-1.6c.5,1.8,1.7,2.2,1.8,1.6m-6.5,-1.6c-1.9,.8,-.9,2.2,-.8,1.9c0,0,.2,-1.3,.8,-1.9Z" class="gd_29"/>
<path d="M352.8,339.9c-1.7,-.3,-2.2,-1.4,-1.5,-3c.5,-1,1.4,-1.5,2.4,-1.8c1.5,-.5,3.2,-.6,4.7,-.1c2,.6,3.2,2.5,3,4.5c-.2,2,-1.8,3.7,-3.7,3.9c-2.1,.2,-3.9,-.9,-4.7,-2.8c-.1,-.2,-.1,-.5,-.2,-.7m7.1,0c-1.4,-.5,-1.6,-.6,-2.3,-1.9c-.1,-.2,-.3,-.5,-.4,-.8c-.7,-.9,-1.4,-1,-2.2,-.2c-.8,.9,-1.1,2.2,-.6,3.3c.5,1.1,1.5,1.8,2.8,1.7c1.3,0,2.2,-.7,2.7,-2.1m.1,-1.6c.1,-1,-1.8,-1.7,-1.8,-1.7c.5,1.8,1.7,2.2,1.8,1.7m-6.5,-1.7c-1.9,.8,-.9,2.2,-.8,1.9c0,0,.2,-1.2,.8,-1.9Z" class="gd_29"/>
<path d="M349,334.4l-5.3,-5.5c-.2,-.3,-.6,-.3,-.9,-.1c-.2,.3,-.2,.7,0,.9l5.3,5.6c.2,.2,.6,.2,.8,0c.3,-.3,.3,-.7,.1,-.9Z" class="gd_29"/>
<path d="M349,342l-5.3,5.6c-.2,.2,-.6,.2,-.9,0c-.2,-.2,-.2,-.6,0,-.9l5.3,-5.5c.2,-.3,.6,-.3,.8,-.1c.3,.3,.3,.7,.1,.9Z" class="gd_29"/>
<path d="M347.8,336.4L340.5,335c-.3,-.1,-.6,.1,-.7,.5c-.1,.3,.1,.6,.5,.7l7.2,1.4c.4,.1,.7,-.1,.7,-.5c.1,-.3,-.1,-.6,-.4,-.7Z" class="gd_29"/>
<path d="M347.8,340l-7.3,1.4c-.3,.1,-.6,-.1,-.7,-.4c-.1,-.4,.1,-.7,.5,-.8l7.2,-1.4c.4,-.1,.7,.2,.7,.5c.1,.3,-.1,.7,-.4,.7Z" class="gd_29"/>
<path d="M0,0V1286.2Z" class="g3_29"/>
<path d="M0,1286.2H19.5V0H0V1286.2Z" class="g3_29"/>
</svg>