<?xml version="1.0" encoding="UTF-8" standalone="no"?>
<!DOCTYPE svg PUBLIC "-//W3C//DTD SVG 1.1//EN"
"http://www.w3.org/Graphics/SVG/1.1/DTD/svg11.dtd">
<svg viewBox="0 0 1818 1286" version="1.1" xmlns="http://www.w3.org/2000/svg" xmlns:xlink="http://www.w3.org/1999/xlink">
<defs>
<clipPath id="c0_10"><path d="M909.4,351.4V0h909.5V351.4Z"/></clipPath>
<clipPath id="c1_10"><path d="M0,1286.2V0H1818.9V1286.2Z"/></clipPath>
<clipPath id="c2_10"><path d="M356.2,351.4V0H909.4V351.4Z"/></clipPath>
<clipPath id="c3_10"><path d="M297,285.6V271h17.5v14.6Z"/></clipPath>
<clipPath id="c4_10"><path d="M60.6,1242.9V897.2H866.1v345.7Z"/></clipPath>
<clipPath id="c5_10"><path d="M951.6,1242.9V897.2H1459v345.7Z"/></clipPath>
<style type="text/css"><![CDATA[
.g0_10{
fill: #B9D8F3;
}
.g1_10{
fill: #000;
}
.g2_10{
fill: #FFF;
}
.g3_10{
fill: none;
stroke: #59B1E4;
stroke-width: 0.152;
}
.g4_10{
fill: none;
stroke: #59B1E4;
stroke-width: 0.381;
}
.g5_10{
fill: #292223;
}
.g6_10{
fill: #D6E8F8;
}
.g7_10{
fill: none;
stroke: #FFF;
stroke-width: 0.763;
stroke-miterlimit: 10;
}
.g8_10{
fill: none;
stroke: #D9D7D6;
stroke-width: 0.763;
stroke-miterlimit: 10;
}
.g9_10{
fill: none;
stroke: #000;
stroke-width: 0.572;
stroke-miterlimit: 10;
}
]]></style>
</defs>
<path d="M909.4,55.6h340V-14.3h-340V55.6Z" class="g0_10"/>
<path d="M192.9,254.4c23.9,0,43.3,-19.4,43.3,-43.3c0,-23.9,-19.4,-43.3,-43.3,-43.3c-23.9,0,-43.3,19.4,-43.3,43.3c0,23.9,19.4,43.3,43.3,43.3Z" class="g1_10"/>
<path d="M909.4,351.4h909.5V0H909.4V351.4Z" class="g0_10"/>
<image clip-path="url(#c0_10)" preserveAspectRatio="none" x="909" y="0" width="910" height="351" xlink:href="img/1.jpg"/>
<path d="M1497.4,307.5h257.4V162H1497.4V307.5Z" class="g2_10"/>
<path d="M1497,162V307.8h258.1V161.7H1497v.3Z" class="g3_10"/>
<path d="M1497.6,307.3h257V162.2h-257V307.3Z" class="g4_10"/>
<path d="M1497.8,330.9h141.7v50.9H1497.8V330.9Zm141.7,0h50.6v50.9h-50.6V330.9Zm50.6,0h64.7v50.9h-64.7V330.9Z" class="g5_10"/>
<path d="M1639.5,381.8h50.6v26h-50.6v-26Zm50.6,0h64.7v26h-64.7v-26Zm-50.6,26h50.6v26h-50.6v-26Zm50.6,0h64.7v26h-64.7v-26Zm-50.6,26h50.6v25.9h-50.6V433.8Zm50.6,0h64.7v25.9h-64.7V433.8Zm-50.6,25.9h50.6v26h-50.6v-26Zm50.6,0h64.7v26h-64.7v-26Zm-50.6,26h50.6v26h-50.6v-26Zm50.6,0h64.7v26h-64.7v-26Zm-50.6,26h50.6v26h-50.6v-26Zm50.6,0h64.7v26h-64.7v-26Zm-50.6,26h50.6v26h-50.6v-26Zm50.6,0h64.7v26h-64.7v-26Zm-50.6,26h50.6v26h-50.6v-26Zm50.6,0h64.7v26h-64.7v-26Zm-50.6,26h50.6v25.9h-50.6V589.7Zm50.6,0h64.7v25.9h-64.7V589.7Zm-50.6,25.9h50.6v26h-50.6v-26Zm50.6,0h64.7v26h-64.7v-26Zm-50.6,26h50.6v26h-50.6v-26Zm50.6,0h64.7v26h-64.7v-26Zm-50.6,26h50.6v26h-50.6v-26Zm50.6,0h64.7v26h-64.7v-26Zm-50.6,26h50.6v26h-50.6v-26Zm50.6,0h64.7v26h-64.7v-26Zm-50.6,26h50.6v26h-50.6v-26Zm50.6,0h64.7v26h-64.7v-26Zm-50.6,26h50.6v26h-50.6v-26Zm50.6,0h64.7v26h-64.7v-26Zm-50.6,26h50.6v25.9h-50.6V771.6Zm50.6,0h64.7v25.9h-64.7V771.6Z" class="g6_10"/>
<path d="M1497.4,330.9h142.1m-141.7,50.5V331.3m192.3,-.4h65m-.3,50.9V331.3m-115.3,-.4h50.6" class="g7_10"/>
<path d="M1639.5,381.4V331.3m50.6,50.1V331.3" class="g8_10"/>
<path d="M1639.1,407.8h51m0,0h65m-116,26h51m0,0h65m-116,25.9h51m0,0h65m-116,26h51m0,0h65m-116,26h51m0,0h65m-116,26h51m0,0h65m-116,26h51m0,0h65m-116,26h51m0,0h65m-116,25.9h51m0,0h65m-116,26h51m0,0h65m-116,26h51m0,0h65m-116,26h51m0,0h65m-116,26h51m0,0h65m-116,26h51m0,0h65m-116,26h51m0,0h65" class="g7_10"/>
<path d="M1497.8,797.5h141.7m0,0h50.6m0,0h65" class="g8_10"/>
<path d="M1690.1,407.4V382.2m0,51.2V408.2m0,51.2V434.1m0,51.2V460.1m0,51.2V486.1m0,51.2V512.1m0,51.2V538.1m0,51.2V564.1m0,51.2V590m0,51.2V616m0,51.2V642m0,51.2V668m0,51.2V694m0,51.2V720m0,51.2V745.9m0,51.3V771.9M1639.5,407.4V382.2m115.3,25.2V381.8m-115.3,51.6V408.2m115.3,25.2V408.2m-115.3,51.2V434.1m115.3,25.3V434.1m-115.3,51.2V460.1m115.3,25.2V460.1m-115.3,51.2V486.1m115.3,25.2V486.1m-115.3,51.2V512.1m115.3,25.2V512.1m-115.3,51.2V538.1m115.3,25.2V538.1m-115.3,51.2V564.1m115.3,25.2V564.1m-115.3,51.2V590m115.3,25.3V590m-115.3,51.2V616m115.3,25.2V616m-115.3,51.2V642m115.3,25.2V642m-115.3,51.2V668m115.3,25.2V668m-115.3,51.2V694m115.3,25.2V694m-115.3,51.2V720m115.3,25.2V720m-115.3,51.2V745.9m115.3,25.3V745.9m-115.3,51.3V771.9m115.3,25.3V771.9" class="g7_10"/>
<path d="M1497.4,381.8h142.4m-142,26h141.3m-141.3,26h141.3m-141.3,25.9h141.3m-141.3,26h141.3m-141.3,26h141.3m-141.3,26h141.3m-141.3,26h141.3m-141.3,26h141.3m-141.3,25.9h141.3m-141.3,26h141.3m-141.3,26h141.3m-141.3,26h141.3m-141.3,26h141.3m-141.3,26h141.3m-141.3,26h141.3" class="g8_10"/>
<g clip-path="url(#c1_10)" opacity="0.75">
<path d="M-5.7,144.5H909.4V55.8H-5.7v88.7Z" class="g2_10"/>
</g>
<path d="M0,55.6H356.6V0H0V55.6Z" class="g0_10"/>
<path d="M356.2,351.4H909.4V0H356.2V351.4Z" class="g0_10"/>
<path d="M356.2,351.4H909.4V0H356.2V351.4Z" class="g0_10"/>
<image clip-path="url(#c2_10)" preserveAspectRatio="none" x="356" y="0" width="554" height="351" xlink:href="img/2.jpg"/>
<g clip-path="url(#c1_10)" opacity="0.75">
<path d="M-5.7,144.5H909.4V55.8H-5.7v88.7Z" class="g2_10"/>
</g>
<path d="M181.3,342.4c-.2,0,-.4,-.2,-.4,-.4V327.3c0,-.2,.2,-.3,.4,-.3h1.3c0,0,.1,-.1,.1,-.2v-4.3c0,-3.7,3.2,-6.7,7.2,-6.7c1.9,0,3.7,.7,5.1,2c1.4,1.2,2.1,2.9,2.1,4.7v4.3c0,.1,.1,.2,.1,.2h1.3c.2,0,.4,.1,.4,.3V342c0,.2,-.2,.4,-.4,.4Zm.5,-14.7q-.1,0,-.1,.1v13.8c0,0,0,.1,.1,.1H198c.1,0,.1,-.1,.1,-.1V327.8q0,-.1,-.1,-.1Zm8.1,-9.6c1.3,0,2.5,.4,3.4,1.2c.9,.9,1.4,2,1.4,3.2v4.3c0,.1,0,.2,.1,.2h1.4c.1,0,.1,-.1,.1,-.2v-4.3c0,-1.6,-.6,-3.1,-1.9,-4.2c-1.2,-1.1,-2.8,-1.8,-4.5,-1.8c-3.5,0,-6.4,2.7,-6.4,6v4.3c0,.1,0,.2,.1,.2H185c.1,0,.1,-.1,.1,-.2v-4.3c0,-2.5,2.2,-4.4,4.8,-4.4m0,.7c-2.2,0,-4,1.6,-4,3.7v4.3c0,.1,.1,.2,.1,.2h7.8c0,0,.1,-.1,.1,-.2v-4.3c0,-1,-.4,-1.9,-1.2,-2.6c-.7,-.7,-1.7,-1.1,-2.8,-1.1Z" class="g1_10"/>
<path d="M196.7,340.8c-.2,0,-.4,-.1,-.4,-.3V330.3c0,-.2,.2,-.4,.4,-.4c.2,0,.4,.2,.4,.4v10.2c0,.2,-.2,.3,-.4,.3Z" class="g1_10"/>
<path d="M196.7,329.3c-.1,0,-.3,-.1,-.3,-.3c-.1,-.1,-.1,-.3,.1,-.4q.1,-.1,.2,-.1c.1,0,.2,.1,.3,.1c.1,.1,.1,.2,.1,.3c0,.1,0,.2,-.1,.2c-.1,.1,-.2,.2,-.3,.2Z" class="g1_10"/>
<path d="M189.1,337.7c-.1,0,-.2,0,-.3,-.1l-2.5,-2.4q-.1,-.1,-.1,-.2c0,-.1,0,-.2,.1,-.3c.1,-.1,.2,-.1,.3,-.1c.1,0,.2,0,.2,.1l2.2,2h.2l3.7,-4.4c.1,-.1,.2,-.1,.4,-.1c0,0,.1,0,.2,.1c.1,0,.1,.1,.1,.2c.1,.1,0,.2,0,.3l-4.2,4.8c-.1,0,-.2,.1,-.3,.1Z" class="g1_10"/>
<path d="M204.8,298.2c-.2,0,-.4,-.2,-.4,-.4v-5.2c0,-.1,-.1,-.2,-.2,-.2H176.3c-.1,0,-.2,.1,-.2,.2v5.2c0,.2,-.2,.4,-.4,.4c-.2,0,-.4,-.2,-.4,-.4V279.7c0,-.2,.2,-.3,.4,-.3c.2,0,.4,.1,.4,.3v7.1c0,.1,.1,.2,.2,.2h1.2c.1,0,.2,0,.2,-.1q0,-.1,0,-.2c-.3,-.3,-.4,-.6,-.4,-1c0,-1.2,1.4,-2.1,3.2,-2.1c1.8,0,3.2,.9,3.2,2.1c0,.4,-.1,.7,-.4,1c0,.1,-.1,.1,0,.2c0,.1,.1,.1,.1,.1h20.8c.1,0,.2,-.1,.2,-.2v-2.1c0,-.2,.2,-.3,.4,-.3c.2,0,.4,.1,.4,.3v13.1c0,.2,-.2,.4,-.4,.4M176.3,287.8c-.1,0,-.2,.1,-.2,.2v3.5c0,.1,.1,.1,.2,.1h27.9c.1,0,.2,0,.2,-.1V288c0,-.1,-.1,-.2,-.2,-.2Zm4.2,-3.4c-1.5,0,-2.5,.6,-2.5,1.3c0,.6,1,1.3,2.5,1.3c1.5,0,2.4,-.7,2.4,-1.3c0,-.7,-.9,-1.3,-2.4,-1.3Z" class="g1_10"/>
<path d="M195.3,274.3c0,-1.4,-1.1,-2.5,-2.5,-2.5c-.4,0,-.7,.1,-.9,.2c.9,.3,1.6,1.3,1.6,2.3c0,1.1,-.7,2.1,-1.6,2.4c.2,.1,.5,.2,.9,.2c1.4,0,2.5,-1.1,2.5,-2.6Z" class="g1_10"/>
<path d="M127.5,275.4c-.1,0,-.2,0,-.3,0c-1.6,-.2,-2.7,-1.6,-2.6,-3.1c.2,-1.5,1.4,-2.6,2.9,-2.6c0,0,.1,0,.2,0c1.6,.2,2.7,1.6,2.6,3.1c-.2,1.5,-1.4,2.6,-2.8,2.6m0,-4.9c-.5,0,-1,.1,-1.4,.4c-.4,.4,-.6,.9,-.7,1.4c-.1,.6,.1,1.1,.5,1.6c.3,.4,.8,.7,1.3,.7c.1,0,.2,0,.3,0c1,0,1.9,-.8,2,-1.8c.1,-.6,-.1,-1.1,-.4,-1.6c-.4,-.4,-.9,-.7,-1.4,-.7c-.1,0,-.2,0,-.2,0Z" class="g1_10"/>
<path d="M131.8,299.3c-.3,0,-.5,-.1,-.8,-.2c-.3,-.2,-.5,-.5,-.6,-.9l-1.9,-5.7l-2.3,-2.8l-1.4,3.3c0,0,-.1,.1,-.1,.1l-5.4,4.7c-.3,.3,-.6,.4,-1,.4c-.4,0,-.8,-.2,-1,-.4c-.3,-.3,-.5,-.7,-.4,-1.1c0,-.4,.1,-.7,.4,-1l4.3,-4.5l1.6,-5.2l.6,-5.1l-1.9,1.5l-1,3.4c-.1,.4,-.4,.8,-.8,.9c-.2,.1,-.4,.2,-.7,.2c-.2,0,-.4,0,-.5,-.1c-.8,-.3,-1.2,-1.1,-1,-1.9l1.3,-4.2c0,-.1,.1,-.1,.1,-.2l4.3,-3.4c.5,-.4,1.1,-.6,1.7,-.6c.1,0,.2,0,.2,0l3.3,.3c.5,0,1,.3,1.4,.6l3.3,2.7l3.5,.4c.9,.1,1.5,.8,1.4,1.6c0,.5,-.2,.8,-.5,1.1c-.3,.3,-.7,.4,-1,.4q-.1,0,-.2,0l-4.3,-.5c-.1,0,-.2,0,-.2,-.1l-2.7,-2.2l-.6,5.7l3,4.1q.1,.1,.1,.2l1.2,6.7c.1,.4,.1,.8,-.1,1.1c-.3,.4,-.6,.6,-1,.7c-.1,0,-.2,0,-.3,0m-7.6,-19.6c.1,0,.2,0,.2,0c.1,.1,.2,.2,.2,.4L124,286l5.2,6q0,.1,0,.2l1.9,5.8c.1,.2,.2,.4,.4,.5c.1,0,.2,.1,.3,.1c.1,0,.1,-.1,.2,-.1c.2,0,.3,-.1,.4,-.3c.1,-.1,.1,-.3,.1,-.5L131.3,291l-3.1,-4.2c-.1,0,-.1,-.1,-.1,-.2l.7,-6.6c0,-.1,.1,-.2,.2,-.3q.1,0,.2,0c0,0,.1,0,.2,.1l3.2,2.6l4.2,.4c0,0,.1,0,.1,0c.2,0,.3,-.1,.5,-.2c.1,-.1,.3,-.3,.3,-.5c0,-.4,-.3,-.8,-.8,-.9l-3.6,-.3c-.1,0,-.1,-.1,-.2,-.1L129.7,278c-.3,-.3,-.6,-.4,-1,-.4l-3.2,-.4c-.1,0,-.2,0,-.2,0c-.5,0,-.9,.2,-1.2,.4l-4.2,3.4l-1.2,4.1c-.2,.4,.1,.8,.4,1c.1,0,.2,0,.3,0c.1,0,.3,0,.4,0c.2,-.1,.3,-.3,.4,-.5l1.1,-3.5c0,-.1,0,-.2,.1,-.2l2.6,-2.1q.1,-.1,.2,-.1m-1.9,11.8q0,.1,-.1,.1l-4.4,4.6v.1c-.1,.1,-.2,.3,-.2,.4c0,.2,.1,.4,.2,.5c.1,.2,.3,.2,.5,.2c.2,0,.4,0,.5,-.1l5.3,-4.7l1.5,-3.6l-1.8,-2.1Z" class="g1_10"/>
<path d="M136.7,275.6v-6.8c0,-.2,.2,-.3,.4,-.3c.2,0,.3,.1,.3,.3v.6c1.6,-1.8,3.1,-1,4.7,-.2c1.5,.8,3,1.6,4.4,-.7c.1,-.2,.3,-.2,.5,-.1c.1,.1,.2,.2,.1,.4l-.8,3l.8,1.9c.1,.1,0,.3,0,.4c-1.8,2.8,-3.6,1.9,-5.3,.9c-1.5,-.8,-2.9,-1.6,-4.4,.7v4.9c0,.2,-.1,.3,-.3,.3c-.2,0,-.4,-.1,-.4,-.3Zm.7,-5.1v4c1.6,-1.7,3.1,-.9,4.7,-.1c1.4,.8,2.9,1.6,4.3,-.6l-.7,-1.8q-.1,-.1,0,-.2l.4,-1.7c-1.5,1.3,-2.9,.5,-4.3,-.3c-1.5,-.7,-2.9,-1.5,-4.4,.7Z" class="g1_10"/>
<g clip-path="url(#c1_10)" opacity="0.2">
<path d="M130.9,344.3c-5.7,0,-10.3,-4.6,-10.3,-10.3c0,-5.7,4.6,-10.3,10.3,-10.3c5.6,0,10.2,4.6,10.2,10.3c0,5.7,-4.6,10.3,-10.2,10.3m0,-19.8c-5.3,0,-9.5,4.3,-9.5,9.5c0,5.3,4.2,9.6,9.5,9.6c5.2,0,9.4,-4.3,9.4,-9.6c0,-5.2,-4.2,-9.5,-9.4,-9.5Z" class="g1_10"/>
<path d="M148.8,345c-.2,0,-.4,-.2,-.4,-.4V332.7h-3.8c-.3,0,-.4,-.2,-.4,-.4c0,-9.6,4.2,-12.4,4.4,-12.5q.1,-.1,.2,-.1q.1,0,.2,0c.1,.1,.2,.2,.2,.4v24.5c0,.2,-.2,.4,-.4,.4M148,321.4c-.4,.4,-.7,.9,-1,1.5c-.9,1.6,-2,4.4,-2.1,8.8v.2h3.5v-11Z" class="g1_10"/>
<path d="M115.5,345c-.2,0,-.4,-.2,-.4,-.4V329h-1.7c-.7,0,-1.2,-.5,-1.2,-1.2v-7.7c0,-.2,.2,-.4,.4,-.4c.2,0,.4,.2,.4,.4v7.7c0,.3,.2,.5,.4,.5h1.7v-8.2c0,-.2,.2,-.4,.4,-.4c.2,0,.4,.2,.4,.4v8.2h1.8c.2,0,.4,-.2,.4,-.5v-7.7c0,-.2,.2,-.4,.4,-.4c.2,0,.4,.2,.4,.4v7.7c0,.7,-.6,1.2,-1.2,1.2h-1.8v15.6c0,.2,-.2,.4,-.4,.4Z" class="g1_10"/>
</g>
<path d="M237.4,332.1c-.2,0,-.3,-.1,-.3,-.3c0,-.2,.1,-.3,.3,-.3h19.9c1.5,0,2.7,-1.3,2.7,-2.9c0,-1,-.5,-1.9,-1.2,-2.4l-4.1,-3.9c-2.7,-2.1,-5.9,-3.1,-9.2,-3.1h-8.1c-.2,0,-.3,-.2,-.3,-.4c0,-.1,.1,-.3,.3,-.3h8.1c3.4,0,6.7,1.1,9.5,3.2v.1l4.2,3.9c.9,.6,1.4,1.7,1.4,2.9c0,1.9,-1.5,3.5,-3.3,3.5Z" class="g1_10"/>
<path d="M257.8,325.1c0,0,-.1,0,-.1,0l-11.9,-.8c-.6,0,-1.1,-.5,-1.1,-1.2v-.9c0,-.6,.5,-1.1,1.1,-1.1h8.1c.2,0,.4,.1,.4,.3c0,.2,-.2,.3,-.4,.3h-8.1c-.2,0,-.4,.2,-.4,.5v.9c0,.3,.2,.5,.4,.5l12,.8c.1,0,.1,.1,.2,.1c0,.1,.1,.2,.1,.3c0,.1,-.2,.3,-.3,.3Z" class="g1_10"/>
<path d="M242.1,324.3c-.6,0,-1.2,-.6,-1.2,-1.3v-.6c0,-.8,.6,-1.3,1.2,-1.3h.6c.7,0,1.2,.5,1.2,1.3v.6c0,.7,-.5,1.3,-1.2,1.3Zm0,-2.6c-.3,0,-.5,.3,-.5,.7v.6c0,.3,.2,.6,.5,.6h.6c.4,0,.6,-.3,.6,-.6v-.6c0,-.4,-.2,-.7,-.6,-.7Z" class="g1_10"/>
<path d="M238.4,324.3c-.6,0,-1.2,-.6,-1.2,-1.3v-.6c0,-.8,.6,-1.3,1.2,-1.3h.6c.7,0,1.2,.5,1.2,1.3v.6c0,.7,-.5,1.3,-1.2,1.3Zm0,-2.6c-.3,0,-.5,.3,-.5,.7v.6c0,.3,.2,.6,.5,.6h.6c.4,0,.6,-.3,.6,-.6v-.6c0,-.4,-.2,-.7,-.6,-.7Z" class="g1_10"/>
<path d="M237.3,336.3c-.2,0,-.3,-.1,-.3,-.3c0,-.2,.1,-.3,.3,-.3h22c.1,0,.3,.1,.3,.3c0,.2,-.2,.3,-.3,.3Z" class="g1_10"/>
<path d="M240.7,333.5c-.8,0,-1.3,-.8,-1.3,-1.7c0,-.2,.1,-.3,.3,-.3c.1,0,.3,.1,.3,.3c0,.6,.3,1.1,.7,1.1h5.9c.4,0,.7,-.5,.7,-1.1c0,-.2,.1,-.3,.3,-.3c.2,0,.3,.1,.3,.3c0,.9,-.6,1.7,-1.3,1.7Z" class="g1_10"/>
<path d="M248.6,333.5c-.7,0,-1.3,-.8,-1.3,-1.7c0,-.2,.1,-.3,.3,-.3c.2,0,.3,.1,.3,.3c0,.6,.3,1.1,.7,1.1h5.9c.4,0,.7,-.5,.7,-1.1c0,-.2,.1,-.3,.3,-.3c.2,0,.3,.1,.3,.3c0,.9,-.6,1.7,-1.3,1.7Z" class="g1_10"/>
<path d="M260,299.4c0,0,5.8,-8.6,5.8,-11.7c0,-3.1,-2.6,-5.6,-5.8,-5.6c-3.1,0,-5.7,2.5,-5.7,5.6c0,3.1,5.7,11.7,5.7,11.7Z" class="g9_10"/>
<path d="M259.3,271.5H248.9c-.5,0,-1,.2,-1.3,.5c0,-.1,-.1,-.1,-.1,-.1c-1.2,-.6,-2.6,-1,-4,-1c-4.6,0,-8.4,3.7,-8.4,8.2v13.4c0,.1,.1,.2,.2,.3c-.9,.6,-1.6,1.7,-1.6,3V300c0,.2,.2,.3,.4,.3c.2,0,.3,-.1,.3,-.3v-4.2c0,-1.7,1.4,-3,3,-3h1.5c.5,0,1,-.2,1.3,-.5c.9,.7,2.1,1.2,3.3,1.2V300c0,.2,.2,.3,.4,.3c.2,0,.3,-.1,.3,-.3v-6.6c1.1,-.1,2.1,-.6,2.9,-1.3c.2,.4,.6,.7,1.1,.7h2.1c1.6,0,3,1.3,3,3V300c0,.2,.2,.3,.3,.3c.2,0,.4,-.1,.4,-.3v-4.2c0,-1.5,-.9,-2.7,-2.1,-3.3V280.4h7.4c1.1,0,2,-.8,2,-1.9v-5.1c0,-1,-.9,-1.9,-2,-1.9m-15.4,18.3c-2.9,0,-5.3,-2.3,-5.3,-5.1v-2.8h3.2c.2,0,.3,-.2,.3,-.4v-1.7h4.8v3.3c0,.2,.1,.3,.2,.3c0,.1,.1,.1,.1,.1c.1,0,.2,-.1,.3,-.1l1.6,-1.3v2.6c0,2.8,-2.3,5.1,-5.2,5.1m-5,2.3h-1.5c-.5,0,-1.1,.2,-1.6,.4V279.1c0,-4.1,3.5,-7.5,7.7,-7.5c1.3,0,2.5,.3,3.6,.9c-.1,.3,-.2,.6,-.2,.9v5.7h-5.1c-.2,0,-.4,.2,-.4,.4v1.7h-3.1c-.2,0,-.4,.1,-.4,.3v3.2c0,1.7,.8,3.3,2.1,4.4v2c0,.1,0,.3,-.1,.4c0,.1,-.1,.1,-.1,.2c-.2,.2,-.5,.4,-.9,.4m4.7,.7c-1.1,0,-2.2,-.4,-3,-1.1c.1,-.2,.1,-.4,.1,-.6v-1.5c.9,.6,2,.9,3.2,.9c1.1,0,2.2,-.3,3.1,-.9v1.7c-.9,1,-2.1,1.5,-3.4,1.5m6.7,-.7h-2.1c-.3,0,-.5,-.2,-.5,-.5v-2.5c1.3,-1.1,2.1,-2.7,2.1,-4.4v-3.1l1.4,-1.1v11.7c-.3,0,-.6,-.1,-.9,-.1m10.3,-13.6c0,.7,-.6,1.3,-1.3,1.3h-8.1c-.1,0,-.2,0,-.3,0l-3.3,2.6v-9c0,-.7,.6,-1.2,1.3,-1.2h10.4c.7,0,1.3,.5,1.3,1.2Z" class="g1_10"/>
<path d="M257.9,274.6h-7.6c-.2,0,-.3,.2,-.3,.4c0,.2,.1,.3,.3,.3h7.6c.2,0,.3,-.1,.3,-.3c0,-.2,-.1,-.4,-.3,-.4Z" class="g1_10"/>
<path d="M255.7,277.4h-5.4c-.2,0,-.3,.1,-.3,.3c0,.2,.1,.4,.3,.4h5.4c.2,0,.3,-.2,.3,-.4c0,-.2,-.1,-.3,-.3,-.3Z" class="g1_10"/>
<path d="M246.3,286.2c-.6,.7,-1.5,1.1,-2.4,1.1c-.9,0,-1.9,-.5,-2.5,-1.2c-.1,-.1,-.3,-.1,-.5,0c-.1,.1,-.1,.3,0,.5c.8,.8,1.9,1.3,3,1.3c1.1,0,2.2,-.4,2.9,-1.2c.2,-.1,.2,-.4,0,-.5c-.1,-.1,-.3,-.1,-.5,0Z" class="g1_10"/>
<path d="M84,294.6c-1.5,0,-2.8,-.8,-3.4,-2.1l-.1,-.1H66.9l-.1,.1c-.6,1.3,-1.9,2.1,-3.3,2.1c-1.5,0,-2.8,-.8,-3.4,-2.1l-.1,-.1H54.4c-.7,0,-1.4,-.7,-1.4,-1.4V278.5c.1,-2,1.8,-3.7,3.8,-3.7H89.4c1.9,0,3.3,1.6,3.3,3.8V291c0,.7,-.6,1.4,-1.4,1.4H87.4v.1c-.7,1.3,-2,2.1,-3.4,2.1M84,288c-1.6,0,-3,1.3,-3,2.9c0,1.6,1.4,3,3,3c1.6,0,2.9,-1.4,2.9,-3C86.9,289.3,85.6,288,84,288m-20.5,0c-1.7,0,-3,1.3,-3,2.9c0,1.6,1.3,3,3,3c1.6,0,2.9,-1.4,2.9,-3c0,-1.6,-1.3,-2.9,-2.9,-2.9M84,287.2c2,0,3.7,1.7,3.7,3.7c0,.1,0,.3,0,.4v.3h3.6c.3,0,.6,-.3,.6,-.6v-4.2h-.2c-3.2,-.9,-5.6,-1.8,-6.2,-2.5l-.1,-.1v-5.3H80.7v4.4h2v.8H56.3v-.8h2v-4.4H53.8V291c0,.3,.3,.6,.6,.6h5.4l-.1,-.3c0,-.1,0,-.3,0,-.4c0,-2,1.7,-3.7,3.8,-3.7c2,0,3.7,1.7,3.7,3.7c0,.1,0,.3,0,.4v.3H80.3v-.3c-.1,-.1,-.1,-.3,-.1,-.4c0,-2,1.7,-3.7,3.8,-3.7m2.2,-3.3h.1c.8,.6,3.4,1.5,5.3,2l.3,.1v-7.1H86.2Zm-10.9,-.6H80v-4.4H75.3v4.4Zm-5.4,0h4.6v-4.4H69.9v4.4Zm-5.4,0h4.6v-4.4H64.5v4.4Zm-5.5,0h4.7v-4.4H59v4.4Zm-2.2,-7.7c-1.3,0,-2.5,.9,-2.8,2.2l-.1,.3h38l-.1,-.3c-.3,-1.4,-1.1,-2.2,-2.4,-2.2Z" class="g1_10"/>
<path d="M62.3,331.1c0,-.7,.1,-1.3,.2,-1.9c.1,-.3,.5,-.3,.5,0c-.1,.7,-.2,1.3,-.3,2c0,.3,-.5,.2,-.4,-.1m.6,-2.5c.3,0,.3,-.5,0,-.5c-.3,0,-.3,.5,0,.5m7.6,16.7c-.1,.6,-1.5,.8,-2,.9c-1.2,.2,-2.5,.3,-3.7,.2c-.8,0,-3.9,0,-4.1,-1.2c-.2,-1.4,3.4,-1.4,4.2,-1.4c0,-1.5,0,-3,0,-4.4v-.1C63.1,339,61.5,337.7,61,335.8c-.7,-2.7,.4,-5.8,.9,-8.5c.1,0,.1,-.1,.2,-.1h.1c2.3,.1,4.6,.1,6.9,-.1c.1,0,.2,.1,.2,.2c1.4,3.8,2.7,11.5,-3,12.1c.1,1.4,.1,2.9,0,4.4c.9,0,4.6,0,4.2,1.5M61.4,333.2c1.1,-.4,2.3,-.5,3.5,-.3c1.8,.4,3.2,.6,5,-.3q.1,0,.1,0c-.1,-1.8,-.6,-3.6,-1.1,-5c-2.2,.2,-4.3,.1,-6.5,.1c-.4,1.8,-.9,3.6,-1,5.5m4.6,5.7c3.3,-.1,4.2,-2.8,4,-5.8c-1.1,.5,-2.3,.9,-3.6,.7c-.8,-.2,-1.6,-.4,-2.3,-.5c-1,-.1,-1.9,.1,-2.8,.4c0,.2,0,.5,0,.8c.1,2.5,2,4.5,4.7,4.4m3.7,5.9c-.1,-.2,-.7,-.3,-.9,-.3c-.8,-.2,-1.7,-.2,-2.5,-.3c0,.2,0,.4,0,.6c0,.3,-.5,.3,-.5,0c.1,-1.8,.1,-3.6,0,-5.4c-.1,0,-.3,0,-.4,0c0,1.8,0,3.6,0,5.4c0,.3,-.5,.3,-.5,0c0,-.2,0,-.3,0,-.5c-.8,0,-1.6,0,-2.4,.2c-.5,.1,-1.6,.5,-.8,1c.8,.4,2.2,.4,3.1,.4c1.3,.1,2.9,.1,4.2,-.3c.3,-.1,1.1,-.2,.7,-.8m12.1,-.2c-.4,2.2,-3.6,1.6,-5.2,1.6c-1.8,.1,-4,.3,-4.1,-2.2c-.1,-3.1,-.1,-6.3,0,-9.5c.1,-.9,.2,-1.8,.6,-2.6c.4,-.7,.9,-.8,1,-1.5c.4,-2.1,.8,-4.2,1,-6.2v-.1c0,0,-.1,0,-.1,-.1c-.1,-.1,-.2,-.2,-.3,-.3c-.1,-.2,0,-.5,.2,-.7q-.1,0,-.2,0c-.1,0,-.2,0,-.3,-.1c0,-.1,-.1,-.2,-.1,-.3c.2,-.4,.3,-1,.8,-1.2c.5,-.3,1.6,-.2,2.2,-.2c.6,0,1.5,-.1,2,.3c.4,.2,.5,.8,.6,1.2c0,.1,-.1,.4,-.3,.3c-.1,0,-.2,0,-.2,0c.1,.2,.2,.5,.1,.7c-.1,.2,-.3,.3,-.4,.4c.1,1.1,.3,2.3,.5,3.4c.2,.9,.1,2.4,.6,3.3c.2,.5,1,.9,1.3,1.7c.3,.7,.3,1.5,.3,2.3c.1,1.6,0,3.2,0,4.9c0,1.5,.2,3.3,0,4.9M79.3,329.2c-.2,-.9,-.3,-1.9,-.5,-2.8c-1.1,.1,-2.2,.2,-3.4,.1c-.2,1.1,-.4,2.3,-.6,3.5c1.5,.1,3,.1,4.6,-.1c-.1,-.2,-.1,-.5,-.1,-.7M75.5,323c-.1,.1,-.1,.3,-.2,.4c0,0,0,.1,0,.1c0,0,.1,.1,.2,.1c1,.2,2.2,.2,3.3,0c0,0,.1,-.1,.1,-.1v-.1c0,0,-.1,-.1,-.2,-.2c0,0,-.1,0,-.2,0c-.1,0,-.3,-.1,-.4,-.2c0,0,-.1,0,-.2,0c-.1,0,-.4,.1,-.5,.2c-.3,0,-.5,-.1,-.7,-.2c-.1,0,-.3,.1,-.5,.1c-.3,0,-.5,-.1,-.7,-.1m0,2.9c1.1,.1,2.1,0,3.2,-.1c-.1,-.5,-.1,-1,-.2,-1.6c-.9,.2,-1.9,.2,-2.8,.1c0,.5,-.1,1,-.2,1.6m-.4,-3.6c.2,0,.3,0,.4,0c.1,0,.5,.2,.6,.2c.1,0,.4,-.1,.6,-.1c.2,0,.5,.2,.6,.2c.1,0,.4,-.3,.7,-.2c.2,0,.4,.1,.6,.2v-.1c.1,0,.2,-.1,.3,-.1c.1,0,.2,0,.3,0c-.1,-.2,-.2,-.4,-.5,-.5c-.4,-.1,-1,-.1,-1.4,-.1c-.8,0,-1.7,-.1,-2.2,.5m6,11c-.1,-.4,-.2,-.8,-.5,-1.1c-.2,-.4,-.6,-.5,-.9,-.9c-.1,0,-.1,-.1,-.1,-.2c-.1,-.2,-.1,-.4,-.2,-.6c-1.5,.2,-3.1,.2,-4.7,.1c0,.2,-.1,.5,-.2,.7c-.5,.7,-1,1.1,-1.2,2.1c-.2,.4,-.2,.9,-.2,1.4c-.1,2.9,0,5.8,0,8.7c0,1,0,1.7,1.3,2.1c1.2,.3,2.9,0,4.2,0c1.2,0,2.5,-.1,2.6,-1.5c0,-.7,0,-1.4,0,-2.1c0,-1.9,0,-3.7,0,-5.5c0,-1.1,.1,-2.2,-.1,-3.2m-3.7,10c-4.5,.6,-4.6,-8.3,-.4,-8.8c0,0,0,-.1,0,-.1c4.5,0,4.7,8.3,.4,8.9M77.1,335c-3.4,.6,-3.5,8,.2,7.7c3.5,-.4,3.4,-7.7,-.2,-7.7m-2.7,-.3c.1,-.6,.4,-1.2,.9,-1.7c.2,-.3,-.2,-.7,-.5,-.4c-.5,.5,-.9,1.2,-1,2c-.1,.4,.5,.5,.6,.1m1.1,-2.3c.4,0,.4,-.6,0,-.6c-.3,0,-.3,.6,0,.6Z" class="g1_10"/>
<path d="M331.1,281.9c.1,0,.3,-.1,.3,-.3v-2c0,-.2,-.2,-.3,-.3,-.3H322c-.4,-.3,-.7,-.7,-.7,-1.3c0,-.8,.7,-1.5,1.5,-1.5c.2,0,.3,-.2,.3,-.3v-2.1c0,-.1,-.1,-.3,-.3,-.3c-.8,0,-1.5,-.7,-1.5,-1.5c0,-.9,.7,-1.6,1.5,-1.6c.2,0,.3,-.1,.3,-.3v-2c0,-.2,-.1,-.3,-.3,-.3H289.4c-.2,0,-.3,.1,-.3,.3v2c0,.2,.1,.3,.3,.3c.8,0,1.5,.7,1.5,1.6c0,.8,-.7,1.5,-1.5,1.5c-.2,0,-.3,.2,-.3,.3v2.1c0,.1,.1,.3,.3,.3c.8,0,1.5,.7,1.5,1.5c0,.9,-.7,1.5,-1.5,1.5c-.2,0,-.3,.2,-.3,.4v2c0,.2,.1,.3,.3,.3c.8,0,1.5,.7,1.5,1.6c0,.8,-.7,1.5,-1.5,1.5c-.2,0,-.3,.1,-.3,.3v2c0,.2,.1,.3,.3,.3h33.4c.2,0,.3,-.1,.3,-.3v-2c0,-.2,-.1,-.3,-.3,-.3c-.8,0,-1.5,-.7,-1.5,-1.5c0,-.9,.7,-1.6,1.5,-1.6c.2,0,.3,-.1,.3,-.3v-2h2v18.6H302.3V288h-.6v10.5H298v-1.4h.1c1,-.3,1.7,-1.2,1.7,-2.2c0,-1,-.7,-1.9,-1.7,-2.1H298v-1.4l.1,-.1c1,-.2,1.7,-1.1,1.7,-2.1c0,-.4,-.2,-.8,-.4,-1.2h-.9l.1,.1c.3,.3,.5,.7,.5,1.1c0,.8,-.6,1.5,-1.5,1.5c-.1,0,-.3,.2,-.3,.4v2c0,.2,.2,.3,.3,.3c.9,0,1.5,.7,1.5,1.5c0,.9,-.6,1.6,-1.5,1.6c-.1,0,-.3,.1,-.3,.3v2c0,.2,.2,.3,.3,.3h33.5c.1,0,.3,-.1,.3,-.3v-2c0,-.1,-.1,-.2,-.1,-.2q-.1,-.1,-.2,-.1c-.9,0,-1.5,-.7,-1.5,-1.6c0,-.4,.2,-.8,.5,-1.1c.3,-.2,.6,-.4,1,-.4c.1,0,.3,-.1,.3,-.3v-2c0,-.2,-.2,-.4,-.3,-.4c-.9,0,-1.5,-.7,-1.5,-1.5c0,-.4,.2,-.8,.5,-1.1c.3,-.3,.6,-.4,1,-.4c.1,0,.3,-.2,.3,-.4v-2c0,-.2,-.2,-.3,-.3,-.3c-.9,0,-1.5,-.7,-1.5,-1.5c0,-.9,.6,-1.6,1.5,-1.6m-2.1,1.6c0,1,.6,1.9,1.6,2.1h.2V287l-.2,.1c-.5,.1,-1,.4,-1.2,.9h-.1c-.1,.2,-.2,.4,-.2,.6c-.1,.2,-.1,.4,-.1,.6c0,.4,.1,.7,.3,1.1c.2,.4,.6,.7,1,.9c.1,0,.2,.1,.3,.1l.2,.1v1.4h-.2c-1,.2,-1.6,1.1,-1.6,2.1c0,1,.6,1.9,1.6,2.2h.2v1.4h-5V279.9h5v1.4h-.2c-1,.3,-1.6,1.2,-1.6,2.2m-12.1,3.8H294.1V268.7h22.8v18.6Zm5,-7.4c.1,.1,.3,.2,.4,.2l.2,.1v1.4h-.2c-.9,.3,-1.6,1.1,-1.6,2.2c0,1,.7,1.9,1.6,2.1h.2v1.4h-5V268.7h5v1.4l-.2,.1c-.9,.2,-1.6,1.1,-1.6,2.1c0,1,.7,1.9,1.6,2.1h.2v1.5h-.2c-.9,.2,-1.6,1.1,-1.6,2.1c0,.8,.5,1.5,1.1,1.9Zm-30.4,3.9c0,-1.1,-.7,-1.9,-1.6,-2.2h-.2v-1.4l.2,-.1c.9,-.2,1.6,-1.1,1.6,-2.1c0,-1,-.7,-1.9,-1.6,-2.1h-.2v-1.5h.2c.9,-.2,1.6,-1.1,1.6,-2.1c0,-1,-.7,-1.9,-1.6,-2.1l-.2,-.1v-1.4h3.7v18.6h-3.7v-1.4h.2c.9,-.2,1.6,-1.1,1.6,-2.1Z" class="g1_10"/>
<g clip-path="url(#c3_10)">
<path d="M299,278.3h14.6v-1.4H299v1.4Zm1.2,7h1.5v-6.5h-1.5v6.5Zm2,0H305v-6.5h-2.8v6.5Zm3.3,0H307v-6.5h-1.5v6.5Zm2,0h2.8v-6.5h-2.8v6.5Zm3.3,0h1.5v-6.5h-1.5v6.5Zm-12.3,.4c-.1,0,-.2,-.1,-.2,-.2c0,-.1,.1,-.2,.2,-.2h1.2v-6.5h-.9c-.2,0,-.3,-.1,-.3,-.3v-1.6h-1.2c-.1,0,-.2,-.1,-.3,-.2c0,-.1,0,-.2,.1,-.3l9.1,-5.3h.1c0,0,.1,0,.1,0l3.5,2c.1,.1,.1,.3,0,.4c0,.1,-.1,.1,-.2,.1c0,0,-.1,0,-.1,0l-3.3,-2l-8.1,4.8h16.2l-3.5,-2.1c-.1,0,-.2,-.2,-.1,-.3q.1,-.1,.2,-.1q.1,0,.1,0l4.3,2.5c.1,.1,.2,.2,.1,.3c0,.1,-.1,.2,-.2,.2h-1.2v1.6c0,.2,-.2,.3,-.3,.3h-1v6.5h1.1c.1,0,.2,.1,.2,.2c0,.1,-.1,.2,-.2,.2Z" class="g1_10"/>
<path d="M313.9,285.7H298.5c-.1,0,-.2,-.1,-.2,-.2c0,-.2,.1,-.3,.2,-.3h1.1v-6.4h-.8c-.2,0,-.3,-.1,-.3,-.3v-1.6h-1.2c-.2,0,-.3,-.1,-.3,-.2c-.1,-.1,0,-.2,.1,-.3l9,-5.3c.1,-.1,.2,-.1,.3,0l3.5,2c.1,.1,.2,.3,.1,.4c-.1,.1,-.3,.2,-.4,.1l-3.3,-1.9l-8,4.7h15.9l-3.3,-2c-.2,-.1,-.2,-.3,-.1,-.4c0,-.2,.2,-.2,.4,-.1l4.3,2.5c.1,.1,.1,.2,.1,.3c0,.1,-.2,.2,-.3,.2h-1.2v1.6c0,.2,-.1,.3,-.3,.3h-.9v6.4h1c.1,0,.2,.1,.2,.3c0,.1,-.1,.2,-.2,.2m-15.4,-.4c-.1,0,-.1,.1,-.1,.2c0,0,0,.1,.1,.1h15.4c.1,0,.1,-.1,.1,-.1c0,-.1,0,-.2,-.1,-.2h-1.1v-6.6h1c.1,0,.2,-.1,.2,-.2v-1.7h1.3c.1,0,.2,0,.2,-.1c0,-.1,0,-.2,-.1,-.2l-4.3,-2.6c-.1,0,-.2,0,-.3,.1c0,.1,0,.2,.1,.3l3.7,2.1H298h.1l8.2,-4.8l3.3,1.9c.1,.1,.3,0,.3,0c.1,-.1,0,-.3,-.1,-.3l-3.4,-2c-.1,-.1,-.2,-.1,-.2,0l-9,5.3c-.1,0,-.2,.1,-.1,.2c0,.1,.1,.1,.2,.1h1.3v1.7c0,.1,0,.2,.2,.2h.9v6.6Zm13.9,0h-1.7v-6.6h1.7v6.6Zm-1.6,-.1h1.5v-6.4h-1.5v6.4Zm-.5,.1h-2.8v-6.6h2.8v6.6Zm-2.7,-.1h2.6v-6.4h-2.6v6.4Zm-.5,.1h-1.7v-6.6h1.7v6.6Zm-1.6,-.1H307v-6.4h-1.5v6.4Zm-.5,.1h-2.8v-6.6H305v6.6Zm-2.7,-.1h2.6v-6.4h-2.6v6.4Zm-.5,.1h-1.7v-6.6h1.7v6.6Zm-1.6,-.1h1.5v-6.4h-1.5v6.4Zm13.4,-6.9H299v-1.5h14.6v1.5ZM299,278.2h14.5v-1.3H299v1.3Z" class="g1_10"/>
</g>
<path d="M60.6,1242.9H866.1V897.2H60.6v345.7Z" class="g0_10"/>
<image clip-path="url(#c4_10)" preserveAspectRatio="none" x="61" y="897" width="805" height="346" xlink:href="img/3.jpg"/>
<path d="M951.6,1242.9H1459V897.2H951.6v345.7Z" class="g0_10"/>
<image clip-path="url(#c5_10)" preserveAspectRatio="none" x="952" y="897" width="507" height="346" xlink:href="img/4.jpg"/>
</svg>