<?xml version="1.0" encoding="UTF-8" standalone="no"?>
<!DOCTYPE svg PUBLIC "-//W3C//DTD SVG 1.1//EN"
"http://www.w3.org/Graphics/SVG/1.1/DTD/svg11.dtd">
<svg viewBox="0 0 909 1286" version="1.1" xmlns="http://www.w3.org/2000/svg" xmlns:xlink="http://www.w3.org/1999/xlink">
<defs>
<clipPath id="c0_17"><path d="M71.8,54.9V42.8H42.6V54.9ZM0,97.2V0H212.6V97.2Z"/></clipPath>
<clipPath id="c1_17"><path d="M212.4,97.2V0h213V97.2Z"/></clipPath>
<clipPath id="c2_17"><path d="M425.2,97.2V0H584.6V97.2Z"/></clipPath>
<clipPath id="c3_17"><path d="M0,194.5V96.9H212.6v97.6Z"/></clipPath>
<clipPath id="c4_17"><path d="M425.2,194.5V96.9H584.6v97.6Z"/></clipPath>
<clipPath id="c5_17"><path d="M0,291.8V194.2H212.6V268H135.5v23.8Z"/></clipPath>
<clipPath id="c6_17"><path d="M212.4,268V194.2h213V268Z"/></clipPath>
<clipPath id="c7_17"><path d="M425.2,268V194.2H584.6V268Z"/></clipPath>
<clipPath id="c8_17"><path d="M0,340.2V291.5H135.5v48.7Z"/></clipPath>
<clipPath id="c9_17"><path d="M42.6,54.9V42.8H71.8V54.9Z"/></clipPath>
<clipPath id="ca_17"><path d="M135.5,369.2V364h88.1v5.2Zm0,-7.5V340.2h88.1v21.5Z"/></clipPath>
<clipPath id="cb_17"><path d="M135.5,340.2V268h88.1v72.2Z"/></clipPath>
<clipPath id="cc_17"><path d="M135.5,364v-2.3h88.1V364Z"/></clipPath>
<clipPath id="cd_17"><path d="M497.2,369.2V364h87.4v-2.3h-11V340.2h11V268h.7V369.2Z"/></clipPath>
<clipPath id="ce_17"><path d="M573.6,340.2V299c0,-3.9,-1.2,-7.5,-3.3,-10.5v-2.6h-2.2c-3.3,-3.2,-7.8,-5.2,-12.8,-5.2H512.9c-5,0,-9.5,2,-12.8,5.2h-2.5V289c-.2,.2,-.3,.4,-.4,.6V268h87.4v72.2Z"/></clipPath>
<clipPath id="cf_17"><path d="M573.6,364v-2.3h11V364Z"/></clipPath>
<clipPath id="cg_17"><path d="M497.6,289v-3.1h2.5c-1,.9,-1.8,2,-2.5,3.1Zm72.7,-.5c-.6,-.9,-1.3,-1.8,-2.2,-2.6h2.2v2.6Z"/></clipPath>
<clipPath id="ch_17"><path d="M409.1,369.2V364h78.8v5.2Zm76.4,-7.5V340.2h2.4v21.5Z"/></clipPath>
<clipPath id="ci_17"><path d="M485.5,340.2V299c0,-10.1,-8.2,-18.3,-18.3,-18.3H424.8c-6.7,0,-12.5,3.5,-15.7,8.9V268h78.8v72.2Z"/></clipPath>
<clipPath id="cj_17"><path d="M485.5,364v-2.3h2.4V364Z"/></clipPath>
<clipPath id="ck_17"><path d="M487.9,369.2V364h9.3v5.2Zm0,-7.5V340.2h6.7v16.7h-.1v4.8Z"/></clipPath>
<clipPath id="cl_17"><path d="M487.9,340.2V268h9.3v21.6c-1.7,2.7,-2.6,6,-2.6,9.4v41.2Z"/></clipPath>
<clipPath id="cm_17"><path d="M487.9,364v-2.3h6.6V364Z"/></clipPath>
<clipPath id="cn_17"><path d="M494.6,356.9V299c0,-3.4,.9,-6.7,2.6,-9.4v67.3Z"/></clipPath>
<clipPath id="co_17"><path d="M494.5,364v-7.1h2.7V364Z"/></clipPath>
<clipPath id="cp_17"><path d="M321,369.2V364h78.8v5.2Zm76.4,-7.5V340.2h2.4v21.5Z"/></clipPath>
<clipPath id="cq_17"><path d="M397.4,340.2V299c0,-10.1,-8.2,-18.3,-18.3,-18.3H336.7c-6.7,0,-12.5,3.6,-15.7,8.9V268h78.8v72.2Z"/></clipPath>
<clipPath id="cr_17"><path d="M397.4,364v-2.3h2.4V364Z"/></clipPath>
<clipPath id="cs_17"><path d="M399.8,369.2V364h9.3v5.2Zm0,-7.5V340.2h6.7v16.7h-.1v4.8Z"/></clipPath>
<clipPath id="ct_17"><path d="M399.8,340.2V268h9.3v21.6c-1.7,2.8,-2.6,6,-2.6,9.4v41.2Z"/></clipPath>
<clipPath id="cu_17"><path d="M399.8,364v-2.3h6.6V364Z"/></clipPath>
<clipPath id="cv_17"><path d="M406.5,356.9V299c0,-3.4,.9,-6.6,2.6,-9.4v67.3Z"/></clipPath>
<clipPath id="cw_17"><path d="M406.4,364v-7.1h2.7V364Z"/></clipPath>
<clipPath id="cx_17"><path d="M232.8,369.2V364h78.9v5.2Zm0,-7.5V340.2h78.9v21.5Z"/></clipPath>
<clipPath id="cy_17"><path d="M232.8,340.2V268h78.9v72.2Z"/></clipPath>
<clipPath id="cz_17"><path d="M232.8,364v-2.3h78.9V364Z"/></clipPath>
<clipPath id="c10_17"><path d="M223.6,369.2V364h9.2v5.2Zm0,-7.5V340.2h9.2v21.5Z"/></clipPath>
<clipPath id="c11_17"><path d="M223.6,340.2V268h9.2v72.2Z"/></clipPath>
<clipPath id="c12_17"><path d="M223.6,364v-2.3h9.2V364Z"/></clipPath>
<clipPath id="c13_17"><path d="M311.7,369.2V364H321v5.2Zm0,-7.5V340.2h6.7v16.7h-.1v4.8Z"/></clipPath>
<clipPath id="c14_17"><path d="M311.7,340.2V268H321v21.6c-1.7,2.8,-2.6,6,-2.6,9.4v41.2Z"/></clipPath>
<clipPath id="c15_17"><path d="M311.7,364v-2.3h6.6V364Z"/></clipPath>
<clipPath id="c16_17"><path d="M318.4,356.9V299c0,-3.4,.9,-6.6,2.6,-9.4v67.3Z"/></clipPath>
<clipPath id="c17_17"><path d="M318.3,364v-7.1H321V364Z"/></clipPath>
<style type="text/css"><![CDATA[
.g0_17{
fill: #1B1661;
}
.g1_17{
fill: #FFF;
}
.g2_17{
fill: #E7E8E8;
}
.g3_17{
fill: #DCDDDE;
}
.g4_17{
fill: #ED1A40;
}
.g5_17{
fill: #D1232A;
}
.g6_17{
fill: #CFCBCA;
}
.g7_17{
fill: #FCB61D;
}
.g8_17{
fill: #FEE6BB;
}
.g9_17{
fill: #5AC4C1;
}
.ga_17{
fill: #09B795;
}
.gb_17{
fill: #F37537;
}
.gc_17{
fill: #5180C1;
}
]]></style>
</defs>
<image clip-path="url(#c0_17)" preserveAspectRatio="none" x="0" y="0" width="213" height="97" xlink:href="img/1.jpg"/>
<image clip-path="url(#c1_17)" preserveAspectRatio="none" x="212" y="0" width="213" height="97" xlink:href="img/2.jpg"/>
<image clip-path="url(#c2_17)" preserveAspectRatio="none" x="425" y="0" width="160" height="97" xlink:href="img/3.jpg"/>
<image clip-path="url(#c3_17)" preserveAspectRatio="none" x="0" y="97" width="213" height="97" xlink:href="img/4.jpg"/>
<image preserveAspectRatio="none" x="212" y="97" width="213" height="97" xlink:href="img/5.jpg"/>
<image clip-path="url(#c4_17)" preserveAspectRatio="none" x="425" y="97" width="160" height="97" xlink:href="img/6.jpg"/>
<image clip-path="url(#c5_17)" preserveAspectRatio="none" x="0" y="194" width="213" height="98" xlink:href="img/7.jpg"/>
<image clip-path="url(#c6_17)" preserveAspectRatio="none" x="212" y="194" width="213" height="98" xlink:href="img/8.jpg"/>
<image clip-path="url(#c7_17)" preserveAspectRatio="none" x="425" y="194" width="160" height="98" xlink:href="img/9.jpg"/>
<image clip-path="url(#c8_17)" preserveAspectRatio="none" x="0" y="291" width="159" height="49" xlink:href="img/10.jpg"/>
<image clip-path="url(#c9_17)" preserveAspectRatio="none" x="42" y="43" width="30" height="12" xlink:href="img/11.jpg"/>
<path d="M325.6,782.4h-.8v279.7H584.6V781.7H324.8v.7h.8v.8H583.1v277.4H326.3V782.4h-.7v.8Z" class="g0_17"/>
<path d="M369.8,787.6H539.6V773.8H369.8Z" class="g1_17"/>
<path d="M606.3,1241.4H866.1V901H606.3v340.4Z" class="g2_17"/>
<path d="M606.3,901H866.1v27.6H606.3V901Z" class="g0_17"/>
<path d="M606.3,928.6H866.1V953H606.3V928.6Zm0,275.9H866.1v36.9H606.3v-36.9Z" class="g3_17"/>
<path d="M606.3,953.4H866.1v-.8H606.3v.8Z" class="g1_17"/>
<path d="M606.3,1204.9H866.1v-.7H606.3v.7Z" class="g1_17"/>
<path d="M625.4,912.6l-1,-.7c-.2,-.2,-.6,-.1,-.8,.2l-4.7,6.9l-2.1,-2.2c-.3,-.2,-.6,-.2,-.8,0l-.9,.9c-.2,.2,-.2,.6,0,.8l3.4,3.3c.1,.2,.4,.3,.7,.3c.3,0,.5,-.1,.7,-.4l5.6,-8.3c.2,-.3,.2,-.6,-.1,-.8Z" class="g1_17"/>
<path d="M610.6,240.3c-2.4,0,-4.3,1.9,-4.3,4.3v35.3c0,2.3,1.9,4.3,4.3,4.3H861.8c2.4,0,4.3,-2,4.3,-4.3V244.6c0,-2.4,-1.9,-4.3,-4.3,-4.3Z" class="g4_17"/>
<path d="M727.1,268.6h69.7v-.9H727.1Z" class="g1_17"/>
<path d="M324.8,1241.4H584.6V1075.1H324.8v166.3Z" class="g2_17"/>
<path d="M324.8,1075.1H584.6v26.3H324.8v-26.3Z" class="g0_17"/>
<path d="M324.8,1101.4H511.6v39H324.8v-39Zm186.8,0h73v39h-73v-39Zm-186.8,78.1H511.6v38.3H324.8v-38.3Zm186.8,0h73v38.3h-73v-38.3Z" class="g3_17"/>
<path d="M324.8,1218.6H511.6v-1.5H324.8Z" class="g1_17"/>
<path d="M511.6,1218.6h73v-1.5h-73Z" class="g1_17"/>
<path d="M343.9,1085.3l-1,-.6c-.2,-.2,-.6,-.1,-.8,.1l-4.7,7l-2.1,-2.2c-.3,-.2,-.6,-.2,-.8,0l-.9,.8c-.2,.2,-.2,.6,0,.8l3.4,3.4c.1,.1,.4,.3,.7,.3c.3,0,.5,-.2,.7,-.4l5.7,-8.4c.1,-.2,.1,-.6,-.2,-.8Z" class="g1_17"/>
<path d="M44.1,973.4h-.8v34.3H303.1v-35H43.3v.7h.8v.8H301.6v32H44.8V973.4h-.7v.8Z" class="g5_17"/>
<path d="M64.5,999.2c-5.3,0,-9.6,-4.4,-9.6,-9.7c0,-5.3,4.4,-9.6,9.7,-9.6c5.3,0,9.6,4.3,9.6,9.6c0,5.4,-4.4,9.7,-9.7,9.7m0,-1.4c4.6,0,8.3,-3.7,8.3,-8.3c0,-4.5,-3.7,-8.3,-8.3,-8.3c-4.5,.1,-8.2,3.8,-8.2,8.3c-.1,4.6,3.6,8.3,8.2,8.3Z" class="g5_17"/>
<path d="M51.3,985c.4,.2,.5,0,.5,-.3c0,-1.3,0,-2.5,0,-3.8c0,-.2,-.1,-.4,0,-.5c.2,-.3,.4,-.6,.6,-.6c.3,0,.5,.3,.7,.6c.1,.1,.1,.3,.1,.6c0,1.3,0,2.7,0,4h.4c0,-.9,0,-1.8,0,-2.7c0,-.6,-.1,-1.2,-.1,-1.8c0,-.4,.3,-.7,.7,-.7c.4,0,.7,.2,.7,.7c.1,1.8,.2,3.6,.2,5.4c0,.8,-.4,1.5,-1.1,1.9c-.3,.3,-.4,.5,-.4,.9c.1,3.5,.1,7,.2,10.4c0,.6,-.2,1.1,-.8,1.3c-.5,.3,-1,.3,-1.4,-.2c-.2,-.3,-.4,-.7,-.4,-1.1c0,-2.3,0,-4.6,.1,-6.9c0,-1.2,0,-2.4,0,-3.7c0,-.2,-.2,-.4,-.3,-.6c-.8,-.6,-1.2,-1.3,-1.2,-2.3c.1,-1.7,.2,-3.3,.2,-5c0,-.4,.2,-.8,.7,-.8c.4,0,.7,.3,.7,.8c0,1.3,-.1,2.6,-.1,3.8c0,.2,0,.4,0,.6m2.1,1.5H51.5c.7,.7,1.3,.7,1.9,0Z" class="g5_17"/>
<path d="M75,990.3c0,-2.9,0,-5.8,0,-8.7c0,-.6,.2,-1.2,.8,-1.6c.9,-.5,2.1,0,2.4,1.1c.5,2.2,.8,4.5,.5,6.9c-.1,1.1,-.3,2.2,-.5,3.3c0,.2,0,.4,0,.7c0,2.4,0,4.7,0,7.1c-.1,1,-.7,1.5,-1.7,1.5c-.9,0,-1.5,-.6,-1.5,-1.5c0,-.1,0,-.3,0,-.4c0,-2.8,0,-5.6,0,-8.4m1.3,.4q.6,.1,.7,-.4c.5,-2.3,.5,-4.6,.2,-7c-.1,-.6,-.2,-1.1,-.3,-1.7l-.3,-.4l-.2,.4l-.1,.3c0,2.7,0,5.5,0,8.3Z" class="g5_17"/>
<path d="M64.5,982.7v.8h.1c3.2,0,5.9,2.7,6,6c0,3.3,-2.7,6,-6,6h-.1c-1.6,0,-3.1,-.6,-4.2,-1.7c-1.1,-1.1,-1.8,-2.6,-1.8,-4.3c0,-3.3,2.7,-6,6,-6V982c-4.1,0,-7.5,3.4,-7.5,7.5c0,4.2,3.4,7.6,7.5,7.6h.1c4.1,-.1,7.5,-3.4,7.5,-7.6c0,-4.1,-3.4,-7.5,-7.5,-7.5h-.1Z" class="g5_17"/>
<path d="M606.3,869.6H866.1v-1.5H606.3Z" class="g6_17"/>
<path d="M736.6,390.6v-20h-.8v20Z" class="g1_17"/>
<path d="M801.4,390.6v-20h-.8v20Z" class="g1_17"/>
<path d="M736.6,410.6v-20h-.8v20Z" class="g1_17"/>
<path d="M801.4,410.6v-20h-.8v20Z" class="g1_17"/>
<path d="M736.6,430.5V410.6h-.8v19.9Z" class="g1_17"/>
<path d="M801.4,430.5V410.6h-.8v19.9Z" class="g1_17"/>
<path d="M736.6,450.5v-20h-.8v20Z" class="g1_17"/>
<path d="M801.4,450.5v-20h-.8v20Z" class="g1_17"/>
<path d="M736.6,470.5v-20h-.8v20Z" class="g1_17"/>
<path d="M801.4,470.5v-20h-.8v20Z" class="g1_17"/>
<path d="M736.6,490.4V470.5h-.8v19.9Z" class="g1_17"/>
<path d="M801.4,490.4V470.5h-.8v19.9Z" class="g1_17"/>
<path d="M736.6,510.4v-20h-.8v20Z" class="g1_17"/>
<path d="M801.4,510.4v-20h-.8v20Z" class="g1_17"/>
<path d="M736.6,530.4v-20h-.8v20Z" class="g1_17"/>
<path d="M801.4,530.4v-20h-.8v20Z" class="g1_17"/>
<path d="M736.6,550.3v-20h-.8v20Z" class="g1_17"/>
<path d="M801.4,550.3v-20h-.8v20Z" class="g1_17"/>
<path d="M736.6,570.3v-20h-.8v20Z" class="g1_17"/>
<path d="M801.4,570.3v-20h-.8v20Z" class="g1_17"/>
<path d="M736.6,590.2V570.3h-.8v19.9Z" class="g1_17"/>
<path d="M801.4,590.2V570.3h-.8v19.9Z" class="g1_17"/>
<path d="M640.9,346.5h95.3V345H640.9Z" class="g7_17"/>
<path d="M736.2,346.5H801V345H736.2Z" class="g7_17"/>
<path d="M801,346.5h65.1V345H801Z" class="g7_17"/>
<path d="M624.1,364.3c9.9,0,17.9,-8,17.9,-17.8c0,-9.9,-8,-17.9,-17.9,-17.9c-9.8,0,-17.8,8,-17.8,17.9c0,9.8,8,17.8,17.8,17.8Z" class="g7_17"/>
<path d="M634.6,348.3c0,.7,.2,1.4,.2,2.1c0,2.1,-1,3.6,-2.7,4.7c-1.3,.9,-2.8,1.3,-4.3,1.3c-2.4,0,-4.8,0,-7.2,0c-1.7,0,-3.2,-.4,-4.5,-1.4c-2,-1.4,-2.8,-3.2,-2.5,-5.6c.2,-2,.3,-3.9,.4,-5.9c0,-1.8,-.1,-3.6,-.1,-5.4c0,-2.1,.9,-3.8,2.5,-5c1.5,-1.1,3.1,-1.5,4.9,-1.6c1.9,0,3.9,0,5.8,0c1.6,.1,3.2,.5,4.6,1.5c1.9,1.3,2.8,3.2,2.7,5.6c-.1,1.2,0,2.4,0,3.6c-.1,0,.1,4,.2,6.1M624.2,332.8v-.1c-1,0,-1.9,0,-2.9,0c-1.3,0,-2.5,.3,-3.6,1c-1.6,1,-2.7,2.3,-2.6,4.2c.1,.8,.3,1.7,.6,2.5c.4,1.3,1,2.6,2.1,3.5c.3,.3,.3,.6,0,.9c-.6,.6,-1.3,1.2,-2.1,1.5c-.6,.2,-.7,.5,-.7,1c-.1,.5,.1,.9,.4,1.2c.8,.8,1.7,1.4,2.7,1.8c1.8,.7,3.7,1,5.6,1c2,.1,4.1,-.1,6,-.8c1.4,-.5,2.6,-1.2,3.4,-2.3c.1,-.1,.2,-.3,.2,-.4c0,-.4,0,-.7,0,-1.1l-.2,-.2c-1.1,-.4,-1.9,-1,-2.6,-1.7c-.3,-.3,-.3,-.6,0,-.9c.4,-.5,.9,-1,1.2,-1.5c.8,-1.2,1.2,-2.6,1.4,-4c.2,-1.2,0,-2.2,-.8,-3.2c-1.1,-1.5,-2.7,-2.2,-4.6,-2.4c-1.1,-.1,-2.3,0,-3.5,0m-9.4,16.5c-.3,1.6,0,3,1.3,4.2c1.3,1.2,2.8,1.7,4.6,1.7c2.3,0,4.6,0,6.9,0c.8,0,1.6,-.1,2.4,-.4c1.4,-.5,2.5,-1.2,3.2,-2.6c.5,-1,.5,-1.9,.3,-3l-.1,.1c-1.1,1.4,-2.6,2.2,-4.3,2.6c-2.9,.8,-5.7,.8,-8.6,.3c-1.4,-.2,-2.8,-.7,-3.9,-1.5c-.7,-.4,-1.2,-.9,-1.8,-1.4Z" class="g8_17"/>
<path d="M618.8,356.8c-.5,.4,-1,.8,-1.5,1.1c-.5,.4,-1.7,1.4,-2.3,1.8c-.2,.2,-.5,.2,-.7,.2l-.3,-.4c-.1,-.2,0,-.5,.2,-.6c.3,-.3,1.4,-1.1,1.7,-1.4c.4,-.3,.9,-.7,1.3,-1h.4c.4,0,.8,.2,1.2,.3Z" class="g8_17"/>
<path d="M629.5,356.8c.5,-.1,.9,-.3,1.3,-.4l.3,.1c.7,.6,2.3,1.8,3,2.3c.1,.1,.3,.3,.3,.4c.1,.2,.1,.5,-.2,.6c-.2,.1,-.5,.2,-.7,0c-1.1,-.7,-2.9,-2.2,-4,-3Z" class="g8_17"/>
<path d="M624.1,343.4c-1.1,0,-2.1,.1,-3.2,0c-2,-.1,-3.5,-1.6,-3.9,-3.5c-.1,-.5,-.2,-1,-.3,-1.5c-.4,-1.9,1,-3.5,3,-3.5c3,0,5.9,0,8.9,0c1.9,0,3.2,1.4,3,3.3c-.1,1,-.2,2.2,-.8,3.1c-.9,1.4,-2.2,2.2,-3.9,2.2c-.9,0,-1.9,0,-2.8,0Z" class="g8_17"/>
<path d="M628.7,346.1c.3,0,.5,0,.8,0c.4,.1,.7,.3,.5,.7c-.4,.8,-.9,1.7,-1.4,2.5c-.1,.2,-.3,.3,-.6,.3c-.5,0,-1.1,0,-1.6,0c-.5,0,-.7,-.3,-.6,-.7c.5,-.8,1,-1.6,1.5,-2.4c.1,-.3,.3,-.4,.6,-.4c.3,0,.5,0,.8,0Z" class="g8_17"/>
<path d="M621.1,349.6c-.2,0,-.5,0,-.7,0c-.3,0,-.6,-.1,-.7,-.3c-.5,-.8,-1,-1.7,-1.4,-2.5c-.2,-.4,0,-.7,.6,-.7c.5,0,1,0,1.5,0c.3,0,.5,.1,.6,.4c.5,.8,1,1.6,1.5,2.4c.2,.4,-.1,.7,-.6,.7c-.2,0,-.5,0,-.8,0Z" class="g8_17"/>
<path d="M625.2,353.9c0,.6,-.5,1.1,-1,1.1c-.6,0,-1.1,-.5,-1.1,-1c0,-.6,.5,-1.1,1,-1.1c.6,0,1.1,.5,1.1,1Z" class="g8_17"/>
<path d="M736.6,664.1v-20h-.8v20Z" class="g1_17"/>
<path d="M801.4,664.1v-20h-.8v20Z" class="g1_17"/>
<path d="M736.6,684.1v-20h-.8v20Z" class="g1_17"/>
<path d="M801.4,684.1v-20h-.8v20Z" class="g1_17"/>
<path d="M736.6,704V684.1h-.8V704Z" class="g1_17"/>
<path d="M801.4,704V684.1h-.8V704Z" class="g1_17"/>
<path d="M736.6,724V704h-.8v20Z" class="g1_17"/>
<path d="M801.4,724V704h-.8v20Z" class="g1_17"/>
<path d="M736.6,744V724h-.8v20Z" class="g1_17"/>
<path d="M801.4,744V724h-.8v20Z" class="g1_17"/>
<path d="M736.6,763.9V744h-.8v19.9Z" class="g1_17"/>
<path d="M801.4,763.9V744h-.8v19.9Z" class="g1_17"/>
<path d="M736.6,783.9v-20h-.8v20Z" class="g1_17"/>
<path d="M801.4,783.9v-20h-.8v20Z" class="g1_17"/>
<path d="M736.6,803.9v-20h-.8v20Z" class="g1_17"/>
<path d="M801.4,803.9v-20h-.8v20Z" class="g1_17"/>
<path d="M736.6,823.8V803.9h-.8v19.9Z" class="g1_17"/>
<path d="M801.4,823.8V803.9h-.8v19.9Z" class="g1_17"/>
<path d="M736.6,843.8v-20h-.8v20Z" class="g1_17"/>
<path d="M801.4,843.8v-20h-.8v20Z" class="g1_17"/>
<path d="M736.6,863.8v-20h-.8v20Z" class="g1_17"/>
<path d="M801.4,863.8v-20h-.8v20Z" class="g1_17"/>
<path d="M640.9,620.1h95.3v-1.6H640.9Z" class="g7_17"/>
<path d="M736.2,620.1H801v-1.6H736.2Z" class="g7_17"/>
<path d="M801,620.1h65.1v-1.6H801Z" class="g7_17"/>
<path d="M624.1,637.8c9.9,0,17.9,-7.9,17.9,-17.8c0,-9.9,-8,-17.9,-17.9,-17.9c-9.8,0,-17.8,8,-17.8,17.9c0,9.9,8,17.8,17.8,17.8Z" class="g7_17"/>
<path d="M634.6,621.8c0,.7,.2,1.4,.2,2.1c0,2.1,-1,3.6,-2.7,4.7c-1.3,.9,-2.8,1.3,-4.3,1.3c-2.4,0,-4.8,0,-7.2,0c-1.7,0,-3.2,-.4,-4.5,-1.4c-2,-1.3,-2.8,-3.2,-2.5,-5.6c.2,-1.9,.3,-3.9,.4,-5.9c0,-1.8,-.1,-3.6,-.1,-5.4c0,-2.1,.9,-3.7,2.5,-5c1.5,-1,3.1,-1.5,4.9,-1.5c1.9,-.1,3.9,-.1,5.8,0c1.6,0,3.2,.4,4.6,1.4c1.9,1.3,2.8,3.2,2.7,5.6c-.1,1.2,0,2.4,0,3.6c-.1,0,.1,4,.2,6.1M624.2,606.3v-.1c-1,0,-1.9,0,-2.9,0c-1.3,.1,-2.5,.4,-3.6,1c-1.6,1,-2.7,2.3,-2.6,4.2c.1,.8,.3,1.7,.6,2.5c.4,1.4,1,2.6,2.1,3.5c.3,.3,.3,.6,0,.9c-.6,.6,-1.3,1.3,-2.1,1.5c-.6,.2,-.7,.5,-.7,1c-.1,.5,.1,.9,.4,1.2c.8,.8,1.7,1.4,2.7,1.8c1.8,.8,3.7,1,5.6,1c2,.1,4.1,-.1,6,-.8c1.4,-.5,2.6,-1.1,3.4,-2.3c.1,-.1,.2,-.3,.2,-.4c0,-.4,0,-.7,0,-1.1l-.2,-.2c-1.1,-.4,-1.9,-.9,-2.6,-1.7c-.3,-.3,-.3,-.6,0,-.9c.4,-.5,.9,-1,1.2,-1.5c.8,-1.2,1.2,-2.6,1.4,-4c.2,-1.2,0,-2.2,-.8,-3.1c-1.1,-1.6,-2.7,-2.3,-4.6,-2.5c-1.1,-.1,-2.3,0,-3.5,0m-9.4,16.5c-.3,1.6,0,3,1.3,4.2c1.3,1.2,2.8,1.7,4.6,1.7c2.3,0,4.6,0,6.9,0c.8,0,1.6,-.1,2.4,-.4c1.4,-.4,2.5,-1.2,3.2,-2.6c.5,-.9,.5,-1.9,.3,-3l-.1,.1c-1.1,1.4,-2.6,2.2,-4.3,2.6c-2.9,.8,-5.7,.8,-8.6,.3c-1.4,-.2,-2.8,-.6,-3.9,-1.4c-.7,-.5,-1.2,-1,-1.8,-1.5Z" class="g8_17"/>
<path d="M618.8,630.3c-.5,.4,-1,.8,-1.5,1.1c-.5,.4,-1.7,1.4,-2.3,1.8c-.2,.2,-.5,.2,-.7,.2L614,633c-.1,-.2,0,-.4,.2,-.6c.3,-.3,1.4,-1.1,1.7,-1.4c.4,-.3,.9,-.7,1.3,-1h.4c.4,.1,.8,.2,1.2,.3Z" class="g8_17"/>
<path d="M629.5,630.3c.5,-.1,.9,-.3,1.3,-.4l.3,.1c.7,.6,2.3,1.8,3,2.4c.1,.1,.3,.2,.3,.3c.1,.3,.1,.5,-.2,.6c-.2,.1,-.5,.2,-.7,0c-1.1,-.7,-2.9,-2.1,-4,-3Z" class="g8_17"/>
<path d="M624.1,617c-1.1,0,-2.1,0,-3.2,-.1c-2,-.1,-3.5,-1.5,-3.9,-3.5c-.1,-.5,-.2,-1,-.3,-1.4c-.4,-2,1,-3.6,3,-3.6c3,0,5.9,0,8.9,0c1.9,0,3.2,1.4,3,3.3c-.1,1.1,-.2,2.2,-.8,3.1c-.9,1.4,-2.2,2.2,-3.9,2.2c-.9,0,-1.9,0,-2.8,0Z" class="g8_17"/>
<path d="M628.7,619.7c.3,0,.5,-.1,.8,0c.4,0,.7,.3,.5,.6c-.4,.8,-.9,1.7,-1.4,2.5c-.1,.2,-.3,.3,-.6,.3c-.5,0,-1.1,0,-1.6,0c-.5,0,-.7,-.3,-.6,-.6c.5,-.9,1,-1.7,1.5,-2.5c.1,-.3,.3,-.4,.6,-.3c.3,0,.5,0,.8,0Z" class="g8_17"/>
<path d="M621.1,623.1c-.2,0,-.5,0,-.7,0c-.3,0,-.6,-.1,-.7,-.3c-.5,-.8,-1,-1.6,-1.4,-2.5c-.2,-.4,0,-.6,.6,-.6c.5,-.1,1,0,1.5,-.1c.3,0,.5,.2,.6,.4c.5,.8,1,1.6,1.5,2.5c.2,.3,-.1,.6,-.6,.6c-.2,0,-.5,0,-.8,0Z" class="g8_17"/>
<path d="M625.2,627.4c0,.6,-.5,1.1,-1,1.1c-.6,0,-1.1,-.5,-1.1,-1c0,-.6,.5,-1.1,1,-1.1c.6,0,1.1,.5,1.1,1Z" class="g8_17"/>
<path d="M798.4,328.6V297.2h-3.1v31.4Z" class="g1_17"/>
<path d="M606.5,186.9h34.6v40.4H606.5V186.9Z" class="g1_17"/>
<image x="641" y="186" width="225" height="42" xlink:href="shade/1.png"/>
<path d="M641.1,208H866v-1.5H641.1Z" class="g7_17"/>
<path d="M624.3,225.8c9.9,0,17.9,-8,17.9,-17.9c0,-9.8,-8,-17.8,-17.9,-17.8c-9.8,0,-17.8,8,-17.8,17.8c0,9.9,8,17.9,17.8,17.9Z" class="g7_17"/>
<path d="M634.8,209.7c0,.7,.2,1.5,.2,2.2c0,2,-1,3.5,-2.7,4.7c-1.3,.8,-2.8,1.2,-4.3,1.2c-2.4,.1,-4.8,.1,-7.3,0c-1.6,0,-3.1,-.4,-4.4,-1.3c-2,-1.4,-2.8,-3.3,-2.5,-5.7c.2,-1.9,.3,-3.9,.3,-5.8c.1,-1.8,0,-3.6,0,-5.5c0,-2.1,.8,-3.7,2.5,-4.9c1.5,-1.1,3.1,-1.6,4.9,-1.6c1.9,0,3.8,0,5.7,0c1.7,0,3.3,.5,4.7,1.4c1.9,1.4,2.8,3.2,2.7,5.6c-.1,1.2,-.1,2.4,-.1,3.6c0,0,.2,4.1,.3,6.1M624.4,194.2v0c-1,0,-1.9,0,-2.9,0c-1.3,0,-2.5,.3,-3.7,1c-1.5,.9,-2.6,2.2,-2.5,4.1c.1,.9,.3,1.7,.6,2.6c.4,1.3,1,2.5,2.1,3.5c.3,.2,.3,.6,0,.8c-.6,.7,-1.3,1.3,-2.1,1.6c-.6,.1,-.7,.5,-.7,1c-.1,.5,.1,.8,.4,1.2c.7,.8,1.6,1.3,2.7,1.8c1.8,.7,3.6,1,5.6,1c2,0,4.1,-.2,6,-.8c1.3,-.5,2.5,-1.2,3.4,-2.3c.1,-.2,.2,-.3,.2,-.5c0,-.3,0,-.7,-.1,-1l-.2,-.3c-1,-.3,-1.8,-.9,-2.5,-1.7c-.3,-.3,-.3,-.6,0,-.9c.4,-.5,.9,-.9,1.2,-1.5c.8,-1.2,1.2,-2.5,1.4,-3.9c.2,-1.2,-.1,-2.3,-.8,-3.2c-1.1,-1.5,-2.7,-2.3,-4.6,-2.4c-1.2,-.2,-2.4,-.1,-3.5,-.1M615,210.8c-.3,1.5,0,3,1.3,4.2c1.2,1.2,2.8,1.6,4.5,1.6c2.4,.1,4.7,.1,7,.1c.8,0,1.6,-.2,2.3,-.4c1.4,-.5,2.6,-1.3,3.3,-2.6c.5,-1,.5,-2,.2,-3c-1.1,1.4,-2.6,2.2,-4.3,2.7c-2.9,.7,-5.8,.7,-8.6,.3c-1.4,-.3,-2.8,-.7,-4,-1.5c-.6,-.4,-1.1,-1,-1.7,-1.4Z" class="g8_17"/>
<path d="M619,218.3c-.5,.4,-1,.7,-1.5,1.1c-.5,.4,-1.8,1.4,-2.3,1.8c-.2,.2,-.5,.2,-.8,.1l-.3,-.3c0,-.3,.1,-.5,.3,-.7c.3,-.2,1.4,-1.1,1.7,-1.3c.4,-.4,.8,-.7,1.3,-1l.4,-.1c.4,.1,.8,.2,1.2,.4Z" class="g8_17"/>
<path d="M629.7,218.3c.5,-.2,.9,-.3,1.3,-.4l.3,.1c.7,.5,2.3,1.7,3,2.3c.1,.1,.2,.2,.3,.4c.1,.2,.1,.5,-.2,.6c-.2,.1,-.5,.1,-.7,0c-1.1,-.8,-2.9,-2.2,-4,-3Z" class="g8_17"/>
<path d="M624.3,204.9c-1.1,0,-2.1,.1,-3.2,0c-2,-.2,-3.5,-1.6,-3.9,-3.5c-.1,-.5,-.2,-1,-.3,-1.5c-.4,-1.9,1,-3.6,2.9,-3.6c3,0,6,0,9,0c1.9,0,3.2,1.5,3,3.3c-.2,1.1,-.3,2.2,-.9,3.1c-.8,1.5,-2.1,2.2,-3.8,2.2c-.9,0,-1.9,0,-2.8,0Z" class="g8_17"/>
<path d="M628.9,207.6c.2,0,.5,0,.8,0c.4,0,.7,.3,.5,.6c-.4,.9,-.9,1.7,-1.4,2.6c-.2,.2,-.4,.2,-.6,.2c-.5,.1,-1.1,.1,-1.6,.1c-.5,-.1,-.8,-.4,-.6,-.7c.5,-.8,1,-1.7,1.5,-2.5c.1,-.2,.3,-.3,.6,-.3c.3,0,.5,0,.8,0Z" class="g8_17"/>
<path d="M621.3,211.1c-.3,0,-.5,-.1,-.7,0c-.4,0,-.6,-.1,-.7,-.4c-.5,-.8,-1,-1.6,-1.4,-2.4c-.2,-.4,0,-.7,.6,-.7c.5,0,1,0,1.5,0c.3,0,.5,.1,.6,.3c.5,.8,1,1.7,1.5,2.5c.1,.3,-.1,.6,-.6,.6c-.3,.1,-.5,.1,-.8,.1Z" class="g8_17"/>
<path d="M625.4,215.4c0,.5,-.5,1,-1,1c-.6,0,-1.1,-.4,-1.1,-1c0,-.6,.5,-1,1,-1.1c.6,0,1.1,.5,1.1,1.1Z" class="g8_17"/>
<path d="M43.3,364H584.6v-2.3H43.3V364Z" class="g9_17"/>
<image clip-path="url(#ca_17)" preserveAspectRatio="none" x="135" y="339" width="98" height="31" xlink:href="img/12.jpg"/>
<image clip-path="url(#cb_17)" preserveAspectRatio="none" x="135" y="268" width="89" height="72" xlink:href="img/13.jpg"/>
<image clip-path="url(#cc_17)" preserveAspectRatio="none" x="135" y="361" width="89" height="4" xlink:href="img/14.jpg"/>
<path d="M160.5,280.7c-10.2,0,-18.4,8.2,-18.4,18.3v64.1h79.1V299c0,-10.1,-8.2,-18.3,-18.4,-18.3Z" class="g1_17"/>
<path d="M148.3,306.8h2.3c.2,0,.4,-.1,.4,-.3c0,-.3,-.2,-.4,-.4,-.4h-2.3c-.2,0,-.4,.1,-.4,.4c0,.2,.2,.3,.4,.3m3.9,0h2.3c.2,0,.4,-.1,.4,-.3c0,-.3,-.2,-.4,-.4,-.4h-2.3c-.2,0,-.4,.1,-.4,.4c0,.2,.2,.3,.4,.3m3.9,0h2.3c.2,0,.4,-.1,.4,-.3c0,-.3,-.2,-.4,-.4,-.4h-2.3c-.2,0,-.4,.1,-.4,.4c0,.2,.2,.3,.4,.3m3.8,0h2.4c.2,0,.4,-.1,.4,-.3c0,-.3,-.2,-.4,-.4,-.4h-2.4c-.2,0,-.3,.1,-.3,.4c0,.2,.1,.3,.3,.3m3.9,0h2.4c.2,0,.3,-.1,.3,-.3c0,-.3,-.1,-.4,-.3,-.4h-2.4c-.2,0,-.4,.1,-.4,.4c0,.2,.2,.3,.4,.3m3.9,0H170c.2,0,.4,-.1,.4,-.3c0,-.3,-.2,-.4,-.4,-.4h-2.3c-.2,0,-.4,.1,-.4,.4c0,.2,.2,.3,.4,.3m3.9,0h2.3c.2,0,.4,-.1,.4,-.3c0,-.3,-.2,-.4,-.4,-.4h-2.3c-.2,0,-.4,.1,-.4,.4c0,.2,.2,.3,.4,.3m3.9,0h2.3c.2,0,.4,-.1,.4,-.3c0,-.3,-.2,-.4,-.4,-.4h-2.3c-.2,0,-.4,.1,-.4,.4c0,.2,.2,.3,.4,.3m3.9,0h2.3c.2,0,.4,-.1,.4,-.3c0,-.3,-.2,-.4,-.4,-.4h-2.3c-.3,0,-.4,.1,-.4,.4c0,.2,.1,.3,.4,.3m3.8,0h2.4c.2,0,.3,-.1,.3,-.3c0,-.3,-.1,-.4,-.3,-.4h-2.4c-.2,0,-.3,.1,-.3,.4c0,.2,.1,.3,.3,.3m3.9,0h2.3c.3,0,.4,-.1,.4,-.3c0,-.3,-.1,-.4,-.4,-.4h-2.3c-.2,0,-.4,.1,-.4,.4c0,.2,.2,.3,.4,.3m3.9,0h2.3c.2,0,.4,-.1,.4,-.3c0,-.3,-.2,-.4,-.4,-.4H191c-.2,0,-.4,.1,-.4,.4c0,.2,.2,.3,.4,.3m3.9,0h2.3c.2,0,.4,-.1,.4,-.3c0,-.3,-.2,-.4,-.4,-.4h-2.3c-.2,0,-.4,.1,-.4,.4c0,.2,.2,.3,.4,.3m3.9,0h2.3c.2,0,.4,-.1,.4,-.3c0,-.3,-.2,-.4,-.4,-.4h-2.3c-.2,0,-.4,.1,-.4,.4c0,.2,.2,.3,.4,.3m3.8,0H205c.2,0,.4,-.1,.4,-.3c0,-.3,-.2,-.4,-.4,-.4h-2.4c-.2,0,-.3,.1,-.3,.4c0,.2,.1,.3,.3,.3m3.9,0h2.4c.2,0,.3,-.1,.3,-.3c0,-.3,-.1,-.4,-.3,-.4h-2.4c-.2,0,-.4,.1,-.4,.4c0,.2,.2,.3,.4,.3m3.9,0h2.3c.2,0,.4,-.1,.4,-.3c0,-.3,-.2,-.4,-.4,-.4h-2.3c-.2,0,-.4,.1,-.4,.4c0,.2,.2,.3,.4,.3m3.9,0h2.3c.2,0,.4,-.1,.4,-.3c0,-.3,-.2,-.4,-.4,-.4h-2.3c-.2,0,-.4,.1,-.4,.4c0,.2,.2,.3,.4,.3Z" class="g4_17"/>
<path d="M148.3,339.1h2.3c.2,0,.4,-.2,.4,-.4c0,-.2,-.2,-.4,-.4,-.4h-2.3c-.2,0,-.4,.2,-.4,.4c0,.2,.2,.4,.4,.4m3.9,0h2.3c.2,0,.4,-.2,.4,-.4c0,-.2,-.2,-.4,-.4,-.4h-2.3c-.2,0,-.4,.2,-.4,.4c0,.2,.2,.4,.4,.4m3.9,0h2.3c.2,0,.4,-.2,.4,-.4c0,-.2,-.2,-.4,-.4,-.4h-2.3c-.2,0,-.4,.2,-.4,.4c0,.2,.2,.4,.4,.4m3.8,0h2.4c.2,0,.4,-.2,.4,-.4c0,-.2,-.2,-.4,-.4,-.4h-2.4c-.2,0,-.3,.2,-.3,.4c0,.2,.1,.4,.3,.4m3.9,0h2.4c.2,0,.3,-.2,.3,-.4c0,-.2,-.1,-.4,-.3,-.4h-2.4c-.2,0,-.4,.2,-.4,.4c0,.2,.2,.4,.4,.4m3.9,0H170c.2,0,.4,-.2,.4,-.4c0,-.2,-.2,-.4,-.4,-.4h-2.3c-.2,0,-.4,.2,-.4,.4c0,.2,.2,.4,.4,.4m3.9,0h2.3c.2,0,.4,-.2,.4,-.4c0,-.2,-.2,-.4,-.4,-.4h-2.3c-.2,0,-.4,.2,-.4,.4c0,.2,.2,.4,.4,.4m3.9,0h2.3c.2,0,.4,-.2,.4,-.4c0,-.2,-.2,-.4,-.4,-.4h-2.3c-.2,0,-.4,.2,-.4,.4c0,.2,.2,.4,.4,.4m3.9,0h2.3c.2,0,.4,-.2,.4,-.4c0,-.2,-.2,-.4,-.4,-.4h-2.3c-.3,0,-.4,.2,-.4,.4c0,.2,.1,.4,.4,.4m3.8,0h2.4c.2,0,.3,-.2,.3,-.4c0,-.2,-.1,-.4,-.3,-.4h-2.4c-.2,0,-.3,.2,-.3,.4c0,.2,.1,.4,.3,.4m3.9,0h2.3c.3,0,.4,-.2,.4,-.4c0,-.2,-.1,-.4,-.4,-.4h-2.3c-.2,0,-.4,.2,-.4,.4c0,.2,.2,.4,.4,.4m3.9,0h2.3c.2,0,.4,-.2,.4,-.4c0,-.2,-.2,-.4,-.4,-.4H191c-.2,0,-.4,.2,-.4,.4c0,.2,.2,.4,.4,.4m3.9,0h2.3c.2,0,.4,-.2,.4,-.4c0,-.2,-.2,-.4,-.4,-.4h-2.3c-.2,0,-.4,.2,-.4,.4c0,.2,.2,.4,.4,.4m3.9,0h2.3c.2,0,.4,-.2,.4,-.4c0,-.2,-.2,-.4,-.4,-.4h-2.3c-.2,0,-.4,.2,-.4,.4c0,.2,.2,.4,.4,.4m3.8,0H205c.2,0,.4,-.2,.4,-.4c0,-.2,-.2,-.4,-.4,-.4h-2.4c-.2,0,-.3,.2,-.3,.4c0,.2,.1,.4,.3,.4m3.9,0h2.4c.2,0,.3,-.2,.3,-.4c0,-.2,-.1,-.4,-.3,-.4h-2.4c-.2,0,-.4,.2,-.4,.4c0,.2,.2,.4,.4,.4m3.9,0h2.3c.2,0,.4,-.2,.4,-.4c0,-.2,-.2,-.4,-.4,-.4h-2.3c-.2,0,-.4,.2,-.4,.4c0,.2,.2,.4,.4,.4m3.9,0h2.3c.2,0,.4,-.2,.4,-.4c0,-.2,-.2,-.4,-.4,-.4h-2.3c-.2,0,-.4,.2,-.4,.4c0,.2,.2,.4,.4,.4Z" class="g4_17"/>
<path d="M142.1,364h79v-6.7h-79V364Z" class="g9_17"/>
<image clip-path="url(#cd_17)" preserveAspectRatio="none" x="487" y="267" width="99" height="103" xlink:href="img/15.jpg"/>
<image clip-path="url(#ce_17)" preserveAspectRatio="none" x="497" y="268" width="88" height="72" xlink:href="img/16.jpg"/>
<image clip-path="url(#cf_17)" preserveAspectRatio="none" x="497" y="361" width="88" height="4" xlink:href="img/17.jpg"/>
<image clip-path="url(#cg_17)" preserveAspectRatio="none" x="497" y="286" width="74" height="3" xlink:href="img/18.jpg"/>
<path d="M512.9,280.7c-10.1,0,-18.3,8.2,-18.3,18.3v64.1h79V299c0,-10.1,-8.2,-18.3,-18.3,-18.3Z" class="g1_17"/>
<path d="M494.5,364h79.1v-7.1H494.5V364Z" class="g9_17"/>
<path d="M499.9,339.1h2.4c.2,0,.3,-.2,.3,-.4c0,-.2,-.1,-.4,-.3,-.4h-2.4c-.2,0,-.3,.2,-.3,.4c0,.2,.1,.4,.3,.4m3.9,0h2.3c.3,0,.4,-.2,.4,-.4c0,-.2,-.1,-.4,-.4,-.4h-2.3c-.2,0,-.4,.2,-.4,.4c0,.2,.2,.4,.4,.4m3.9,0H510c.2,0,.4,-.2,.4,-.4c0,-.2,-.2,-.4,-.4,-.4h-2.3c-.2,0,-.4,.2,-.4,.4c0,.2,.2,.4,.4,.4m3.9,0h2.3c.2,0,.4,-.2,.4,-.4c0,-.2,-.2,-.4,-.4,-.4h-2.3c-.2,0,-.4,.2,-.4,.4c0,.2,.2,.4,.4,.4m3.9,0h2.3c.2,0,.4,-.2,.4,-.4c0,-.2,-.2,-.4,-.4,-.4h-2.3c-.2,0,-.4,.2,-.4,.4c0,.2,.2,.4,.4,.4m3.9,0h2.3c.2,0,.4,-.2,.4,-.4c0,-.2,-.2,-.4,-.4,-.4h-2.3c-.3,0,-.4,.2,-.4,.4c0,.2,.1,.4,.4,.4m3.8,0h2.4c.2,0,.3,-.2,.3,-.4c0,-.2,-.1,-.4,-.3,-.4h-2.4c-.2,0,-.3,.2,-.3,.4c0,.2,.1,.4,.3,.4m3.9,0h2.3c.2,0,.4,-.2,.4,-.4c0,-.2,-.2,-.4,-.4,-.4h-2.3c-.2,0,-.4,.2,-.4,.4c0,.2,.2,.4,.4,.4m3.9,0h2.3c.2,0,.4,-.2,.4,-.4c0,-.2,-.2,-.4,-.4,-.4H531c-.2,0,-.4,.2,-.4,.4c0,.2,.2,.4,.4,.4m3.9,0h2.3c.2,0,.4,-.2,.4,-.4c0,-.2,-.2,-.4,-.4,-.4h-2.3c-.2,0,-.4,.2,-.4,.4c0,.2,.2,.4,.4,.4m3.9,0h2.3c.2,0,.4,-.2,.4,-.4c0,-.2,-.2,-.4,-.4,-.4h-2.3c-.2,0,-.4,.2,-.4,.4c0,.2,.2,.4,.4,.4m3.8,0H545c.2,0,.3,-.2,.3,-.4c0,-.2,-.1,-.4,-.3,-.4h-2.4c-.2,0,-.3,.2,-.3,.4c0,.2,.1,.4,.3,.4m3.9,0h2.3c.3,0,.4,-.2,.4,-.4c0,-.2,-.1,-.4,-.4,-.4h-2.3c-.2,0,-.4,.2,-.4,.4c0,.2,.2,.4,.4,.4m3.9,0h2.3c.2,0,.4,-.2,.4,-.4c0,-.2,-.2,-.4,-.4,-.4h-2.3c-.2,0,-.4,.2,-.4,.4c0,.2,.2,.4,.4,.4m3.9,0h2.3c.2,0,.4,-.2,.4,-.4c0,-.2,-.2,-.4,-.4,-.4h-2.3c-.2,0,-.4,.2,-.4,.4c0,.2,.2,.4,.4,.4m3.9,0h2.3c.2,0,.4,-.2,.4,-.4c0,-.2,-.2,-.4,-.4,-.4h-2.3c-.2,0,-.4,.2,-.4,.4c0,.2,.2,.4,.4,.4m3.9,0h2.3c.2,0,.4,-.2,.4,-.4c0,-.2,-.2,-.4,-.4,-.4h-2.3c-.3,0,-.4,.2,-.4,.4c0,.2,.1,.4,.4,.4m3.8,0h2.4c.2,0,.3,-.2,.3,-.4c0,-.2,-.1,-.4,-.3,-.4h-2.4c-.2,0,-.3,.2,-.3,.4c0,.2,.1,.4,.3,.4Z" class="ga_17"/>
<path d="M499.3,302.7h2.3c.2,0,.4,-.2,.4,-.4c0,-.2,-.2,-.4,-.4,-.4h-2.3c-.2,0,-.4,.2,-.4,.4c0,.2,.2,.4,.4,.4m3.9,0h2.3c.2,0,.4,-.2,.4,-.4c0,-.2,-.2,-.4,-.4,-.4h-2.3c-.2,0,-.4,.2,-.4,.4c0,.2,.2,.4,.4,.4m3.9,0h2.3c.2,0,.4,-.2,.4,-.4c0,-.2,-.2,-.4,-.4,-.4h-2.3c-.3,0,-.4,.2,-.4,.4c0,.2,.1,.4,.4,.4m3.8,0h2.4c.2,0,.3,-.2,.3,-.4c0,-.2,-.1,-.4,-.3,-.4h-2.4c-.2,0,-.3,.2,-.3,.4c0,.2,.1,.4,.3,.4m3.9,0h2.3c.3,0,.4,-.2,.4,-.4c0,-.2,-.1,-.4,-.4,-.4h-2.3c-.2,0,-.4,.2,-.4,.4c0,.2,.2,.4,.4,.4m3.9,0H521c.2,0,.4,-.2,.4,-.4c0,-.2,-.2,-.4,-.4,-.4h-2.3c-.2,0,-.4,.2,-.4,.4c0,.2,.2,.4,.4,.4m3.9,0h2.3c.2,0,.4,-.2,.4,-.4c0,-.2,-.2,-.4,-.4,-.4h-2.3c-.2,0,-.4,.2,-.4,.4c0,.2,.2,.4,.4,.4m3.9,0h2.3c.2,0,.4,-.2,.4,-.4c0,-.2,-.2,-.4,-.4,-.4h-2.3c-.2,0,-.4,.2,-.4,.4c0,.2,.2,.4,.4,.4m3.8,0h2.4c.2,0,.4,-.2,.4,-.4c0,-.2,-.2,-.4,-.4,-.4h-2.4c-.2,0,-.3,.2,-.3,.4c0,.2,.1,.4,.3,.4m3.9,0h2.4c.2,0,.3,-.2,.3,-.4c0,-.2,-.1,-.4,-.3,-.4h-2.4c-.2,0,-.4,.2,-.4,.4c0,.2,.2,.4,.4,.4m3.9,0h2.3c.2,0,.4,-.2,.4,-.4c0,-.2,-.2,-.4,-.4,-.4h-2.3c-.2,0,-.4,.2,-.4,.4c0,.2,.2,.4,.4,.4m3.9,0h2.3c.2,0,.4,-.2,.4,-.4c0,-.2,-.2,-.4,-.4,-.4H542c-.2,0,-.4,.2,-.4,.4c0,.2,.2,.4,.4,.4m3.9,0h2.3c.2,0,.4,-.2,.4,-.4c0,-.2,-.2,-.4,-.4,-.4h-2.3c-.2,0,-.4,.2,-.4,.4c0,.2,.2,.4,.4,.4m3.9,0h2.3c.2,0,.4,-.2,.4,-.4c0,-.2,-.2,-.4,-.4,-.4h-2.3c-.3,0,-.4,.2,-.4,.4c0,.2,.1,.4,.4,.4m3.8,0H556c.2,0,.3,-.2,.3,-.4c0,-.2,-.1,-.4,-.3,-.4h-2.4c-.2,0,-.3,.2,-.3,.4c0,.2,.1,.4,.3,.4m3.9,0h2.3c.3,0,.4,-.2,.4,-.4c0,-.2,-.1,-.4,-.4,-.4h-2.3c-.2,0,-.4,.2,-.4,.4c0,.2,.2,.4,.4,.4m3.9,0h2.3c.2,0,.4,-.2,.4,-.4c0,-.2,-.2,-.4,-.4,-.4h-2.3c-.2,0,-.4,.2,-.4,.4c0,.2,.2,.4,.4,.4m3.9,0h2.3c.2,0,.4,-.2,.4,-.4c0,-.2,-.2,-.4,-.4,-.4h-2.3c-.2,0,-.4,.2,-.4,.4c0,.2,.2,.4,.4,.4Z" class="ga_17"/>
<path d="M548,319.5v.7h4.6c1.1,0,2,-.9,2,-2.1v-.4c0,-1.1,-.9,-2,-2,-2H548c-.5,0,-1,.2,-1.4,.5c-.1,.2,-.2,.4,-.2,.5v.3c0,.2,-.1,.4,-.2,.5c-.2,.1,-.2,.3,-.2,.5v.1c0,1.2,.9,2.1,2,2.1v-1.4c-.4,0,-.7,-.3,-.7,-.7V318h-.7l.5,.5c.4,-.4,.7,-.9,.7,-1.5v-.3h-.7l.4,.6c.2,-.2,.3,-.2,.5,-.2h4.6c.3,0,.6,.3,.6,.6v.4c0,.4,-.3,.7,-.6,.7H548Z" class="ga_17"/>
<path d="M547.1,310.2l-.5,.5c.4,.3,.9,.5,1.4,.5h4.6c1.1,0,2,-.9,2,-2v-.4c0,-1.2,-.9,-2.1,-2,-2.1H548c-1.1,0,-2,.9,-2,2.1v.1c0,.2,0,.4,.2,.5c.1,.2,.2,.3,.2,.5v.3c0,.2,.1,.3,.2,.5l.5,-.5h.7v-.3c0,-.6,-.3,-1.1,-.7,-1.5l-.5,.5h.7v-.1c0,-.4,.3,-.7,.7,-.7h4.6c.3,0,.6,.3,.6,.7v.4c0,.3,-.3,.6,-.6,.6H548c-.2,0,-.3,0,-.5,-.1l-.4,.5h.7Z" class="ga_17"/>
<path d="M553.6,319v.7h1.9c1,0,1.8,-.8,1.8,-1.8v-8.8c0,-1,-.8,-1.8,-1.8,-1.8h-1.8c-.3,0,-.5,.1,-.7,.4c-.1,.2,-.1,.5,.1,.7c.1,.1,.1,.2,.1,.4v.4c0,.3,-.3,.6,-.6,.6H548c-.2,0,-.3,0,-.5,-.1c-.2,-.2,-.4,-.3,-.7,-.2c-.2,.1,-.4,.4,-.4,.7v6.5c0,.3,.2,.6,.4,.7c.3,.1,.5,0,.7,-.1c.2,-.2,.3,-.2,.5,-.2h4.6c.3,0,.6,.3,.6,.6v.4c0,.2,0,.3,-.1,.5c-.2,.2,-.2,.4,-.1,.7c.1,.2,.3,.4,.6,.4V319l.5,.4c.3,-.3,.5,-.8,.5,-1.3v-.4c0,-1.1,-.9,-2,-2,-2H548c-.5,0,-1,.2,-1.4,.5l.5,.5h.7v-6.5h-.7l-.5,.5c.4,.3,.9,.5,1.4,.5h4.6c1.1,0,2,-.9,2,-2v-.4c0,-.5,-.1,-.9,-.4,-1.2l-.5,.4v.7h1.8c.2,0,.4,.2,.4,.4v8.8c0,.2,-.2,.4,-.4,.4h-1.9v.7l.5,.4Z" class="ga_17"/>
<path d="M547.1,309.9h.7c0,-1.1,-.9,-2,-2.1,-2h-.6c-1.2,0,-2.1,.9,-2.1,2V317c0,1.1,.9,2,2.1,2h.6c1.2,0,2.1,-.9,2.1,-2v-7.1h-1.4V317c0,.4,-.3,.7,-.7,.7h-.6c-.4,0,-.7,-.3,-.7,-.7v-7.1c0,-.3,.3,-.6,.7,-.6h.6c.4,0,.7,.3,.7,.6Z" class="ga_17"/>
<path d="M548,332.3v.7h4.6c1.1,0,2,-1,2,-2.1v-.4c0,-1.1,-.9,-2,-2,-2H548c-.5,0,-1,.2,-1.4,.5c-.1,.1,-.2,.3,-.2,.5v.3c0,.2,-.1,.3,-.2,.5c-.2,.1,-.2,.3,-.2,.5v.1c0,1.1,.9,2.1,2,2.1v-1.4c-.4,0,-.7,-.3,-.7,-.7v-.1h-.7l.5,.5c.4,-.4,.7,-.9,.7,-1.5v-.3h-.7l.4,.5c.2,-.1,.3,-.1,.5,-.1h4.6c.3,0,.6,.3,.6,.6v.4c0,.4,-.3,.7,-.6,.7H548Z" class="ga_17"/>
<path d="M547.1,322.9l-.5,.6c.4,.3,.9,.5,1.4,.5h4.6c1.1,0,2,-.9,2,-2.1v-.3c0,-1.2,-.9,-2.1,-2,-2.1H548c-1.1,0,-2,.9,-2,2.1v.1c0,.2,0,.4,.2,.5c.1,.2,.2,.3,.2,.5v.2c0,.2,.1,.4,.2,.6l.5,-.6h.7v-.2c0,-.6,-.3,-1.1,-.7,-1.5l-.5,.5h.7v-.1c0,-.4,.3,-.7,.7,-.7h4.6c.3,0,.6,.3,.6,.7v.3c0,.4,-.3,.7,-.6,.7H548c-.2,0,-.3,-.1,-.5,-.2l-.4,.5h.7Z" class="ga_17"/>
<path d="M553.6,331.8v.7h1.9c1,0,1.8,-.9,1.8,-1.9v-8.7c0,-1,-.8,-1.8,-1.8,-1.8h-1.8c-.3,0,-.5,.1,-.7,.3c-.1,.3,-.1,.6,.1,.8c.1,.1,.1,.2,.1,.4v.3c0,.4,-.3,.7,-.6,.7H548c-.2,0,-.3,-.1,-.5,-.2c-.2,-.1,-.4,-.2,-.7,-.1c-.2,.1,-.4,.4,-.4,.6v6.6c0,.3,.2,.5,.4,.7c.3,.1,.5,0,.7,-.2c.2,-.1,.3,-.1,.5,-.1h4.6c.3,0,.6,.3,.6,.6v.4c0,.2,0,.3,-.1,.4c-.2,.2,-.2,.5,-.1,.8c.1,.2,.3,.4,.6,.4v-.7l.5,.4c.3,-.3,.5,-.8,.5,-1.3v-.4c0,-1.1,-.9,-2,-2,-2H548c-.5,0,-1,.2,-1.4,.5l.5,.5h.7v-6.6h-.7l-.5,.6c.4,.3,.9,.5,1.4,.5h4.6c1.1,0,2,-.9,2,-2.1v-.3c0,-.5,-.1,-.9,-.4,-1.2l-.5,.4v.7h1.8c.2,0,.4,.1,.4,.4v8.7c0,.3,-.2,.5,-.4,.5h-1.9v.7l.5,.4Z" class="ga_17"/>
<path d="M547.1,322.7h.7c0,-1.1,-.9,-2,-2.1,-2h-.6c-1.2,0,-2.1,.9,-2.1,2v7.1c0,1.1,.9,2,2.1,2h.6c1.2,0,2.1,-.9,2.1,-2v-7.1h-1.4v7.1c0,.4,-.3,.6,-.7,.6h-.6c-.4,0,-.7,-.2,-.7,-.6v-7.1c0,-.4,.3,-.7,.7,-.7h.6c.4,0,.7,.3,.7,.7Z" class="ga_17"/>
<path d="M532.7,318.7h3.2c.5,0,.9,-.3,.9,-.6v-.2c0,-.3,-.4,-.5,-.9,-.5h-3.2c-.2,0,-.5,0,-.6,.1v.1c0,.2,-.1,.3,-.3,.4v.1c0,.3,.4,.6,.9,.6Z" class="ga_17"/>
<path d="M532.2,308.8c.2,.1,.4,.2,.7,.2h3.3c.5,0,.9,-.3,.9,-.6v-.2c0,-.3,-.4,-.6,-.9,-.6h-3.3c-.6,0,-1,.3,-1,.6v.1c.2,.1,.3,.2,.3,.4Z" class="ga_17"/>
<path d="M538,318.7h1.8c.6,0,1.1,-.5,1.1,-1.1v-8.8c0,-.6,-.5,-1.1,-1.1,-1.1h-1.7c.1,.2,.2,.5,.2,.8v.4c0,.7,-.6,1.3,-1.3,1.3h-4.3c-.4,0,-.7,-.1,-.9,-.3v6.5c.2,-.2,.5,-.3,.9,-.3H537c.7,0,1.3,.6,1.3,1.3v.4c0,.4,-.1,.6,-.3,.9Z" class="ga_17"/>
<path d="M530.5,310.4c0,-.6,-.5,-1.1,-1.1,-1.1c-.6,0,-1.1,.5,-1.1,1.1V316c0,.6,.5,1,1.1,1c.6,0,1.1,-.4,1.1,-1Z" class="ga_17"/>
<path d="M532.3,332.3v.7h4.5c1.2,0,2.1,-1,2.1,-2.1v-.4c0,-1.1,-.9,-2,-2.1,-2h-4.5c-.6,0,-1.1,.2,-1.4,.5c-.2,.1,-.2,.3,-.2,.5v.3c0,.2,-.1,.3,-.3,.5c-.1,.1,-.2,.3,-.2,.5v.1c0,1.1,.9,2.1,2.1,2.1v-1.4c-.4,0,-.7,-.3,-.7,-.7v-.1h-.7l.5,.5c.4,-.4,.6,-.9,.6,-1.5v-.3h-.7l.5,.5c.1,-.1,.3,-.1,.5,-.1h4.5c.4,0,.7,.3,.7,.6v.4c0,.4,-.3,.7,-.7,.7h-4.5Z" class="ga_17"/>
<path d="M531.3,322.9l-.4,.6c.3,.3,.8,.5,1.4,.5h4.5c1.2,0,2.1,-.9,2.1,-2.1v-.3c0,-1.2,-.9,-2.1,-2.1,-2.1h-4.5c-1.2,0,-2.1,.9,-2.1,2.1v.1c0,.2,.1,.4,.2,.5c.2,.2,.3,.3,.3,.5v.2c0,.2,0,.4,.2,.6l.4,-.6h.7v-.2c0,-.6,-.2,-1.1,-.6,-1.5l-.5,.5h.7v-.1c0,-.4,.3,-.7,.7,-.7h4.5c.4,0,.7,.3,.7,.7v.3c0,.4,-.3,.7,-.7,.7h-4.5c-.2,0,-.4,-.1,-.5,-.2l-.5,.5h.7Z" class="ga_17"/>
<path d="M537.9,331.8v.7h1.9c1,0,1.8,-.9,1.8,-1.9v-8.7c0,-1,-.8,-1.8,-1.8,-1.8h-1.9c-.2,0,-.5,.1,-.6,.3c-.1,.3,-.1,.6,.1,.8c0,.1,.1,.2,.1,.4v.3c0,.4,-.3,.7,-.7,.7h-4.5c-.2,0,-.4,-.1,-.5,-.2c-.2,-.1,-.5,-.2,-.7,-.1c-.3,.1,-.4,.4,-.4,.6v6.6c0,.3,.1,.5,.4,.7c.2,.1,.5,0,.7,-.2c.1,-.1,.3,-.1,.5,-.1h4.5c.4,0,.7,.3,.7,.6v.4c0,.2,-.1,.3,-.2,.4c-.1,.2,-.2,.5,0,.8c.1,.2,.3,.4,.6,.4v-.7l.5,.4c.3,-.3,.5,-.8,.5,-1.3v-.4c0,-1.1,-.9,-2,-2.1,-2h-4.5c-.6,0,-1.1,.2,-1.4,.5l.5,.5h.6v-6.6h-.6l-.5,.6c.3,.3,.8,.5,1.4,.5h4.5c1.2,0,2.1,-.9,2.1,-2.1v-.3c0,-.5,-.2,-.9,-.4,-1.2l-.6,.4v.7h1.9c.2,0,.4,.1,.4,.4v8.7c0,.3,-.2,.5,-.4,.5h-1.9v.7l.5,.4Z" class="ga_17"/>
<path d="M531.3,322.7h.7c0,-1.1,-.9,-2,-2,-2h-.7c-1.1,0,-2,.9,-2,2v7.1c0,1.1,.9,2,2,2h.7c1.1,0,2,-.9,2,-2v-7.1h-1.3v7.1c0,.4,-.3,.6,-.7,.6h-.7c-.3,0,-.6,-.2,-.6,-.6v-7.1c0,-.4,.3,-.7,.6,-.7h.7c.4,0,.7,.3,.7,.7Z" class="ga_17"/>
<path d="M516.5,319.5v.7h4.6c1.1,0,2,-.9,2,-2.1v-.4c0,-1.1,-.9,-2,-2,-2h-4.6c-.5,0,-1,.2,-1.3,.5c-.2,.2,-.3,.4,-.3,.5v.3c0,.2,-.1,.4,-.2,.5c-.1,.1,-.2,.3,-.2,.5v.1c0,1.2,.9,2.1,2,2.1v-1.4c-.4,0,-.6,-.3,-.6,-.7V318h-.7l.4,.5c.4,-.4,.7,-.9,.7,-1.5v-.3h-.7l.5,.6c.1,-.2,.2,-.2,.4,-.2h4.6c.4,0,.7,.3,.7,.6v.4c0,.4,-.3,.7,-.7,.7h-4.6Z" class="ga_17"/>
<path d="M515.6,310.2l-.4,.5c.3,.3,.8,.5,1.3,.5h4.6c1.1,0,2,-.9,2,-2v-.4c0,-1.2,-.9,-2.1,-2,-2.1h-4.6c-1.1,0,-2,.9,-2,2.1v.1c0,.2,.1,.4,.2,.5c.1,.2,.2,.3,.2,.5v.3c0,.2,.1,.3,.3,.5l.4,-.5h.7v-.3c0,-.6,-.3,-1.1,-.7,-1.5l-.4,.5h.7v-.1c0,-.4,.2,-.7,.6,-.7h4.6c.4,0,.7,.3,.7,.7v.4c0,.3,-.3,.6,-.7,.6h-4.6c-.2,0,-.3,0,-.4,-.1l-.5,.5h.7Z" class="ga_17"/>
<path d="M522.1,319v.7H524c1,0,1.8,-.8,1.8,-1.8v-8.8c0,-1,-.8,-1.8,-1.8,-1.8h-1.8c-.3,0,-.5,.1,-.6,.4c-.1,.2,-.1,.5,0,.7c.1,.1,.2,.2,.2,.4v.4c0,.3,-.3,.6,-.7,.6h-4.6c-.2,0,-.3,0,-.4,-.1c-.2,-.2,-.5,-.3,-.8,-.2c-.2,.1,-.4,.4,-.4,.7v6.5c0,.3,.2,.6,.4,.7c.3,.1,.6,0,.8,-.1c.1,-.2,.2,-.2,.4,-.2h4.6c.4,0,.7,.3,.7,.6v.4c0,.2,-.1,.3,-.2,.5c-.2,.2,-.2,.4,-.1,.7c.1,.2,.4,.4,.6,.4V319l.6,.4c.2,-.3,.4,-.8,.4,-1.3v-.4c0,-1.1,-.9,-2,-2,-2h-4.6c-.5,0,-1,.2,-1.4,.5l.5,.5h.7v-6.5h-.7l-.5,.5c.4,.3,.9,.5,1.4,.5h4.6c1.1,0,2,-.9,2,-2v-.4c0,-.5,-.1,-.9,-.4,-1.2l-.5,.4v.7H524c.3,0,.5,.2,.5,.4v8.8c0,.2,-.2,.4,-.5,.4h-1.9v.7l.6,.4Z" class="ga_17"/>
<path d="M515.6,309.9h.7c0,-1.1,-.9,-2,-2,-2h-.7c-1.1,0,-2.1,.9,-2.1,2V317c0,1.1,1,2,2.1,2h.7c1.1,0,2,-.9,2,-2v-7.1h-1.4V317c0,.4,-.3,.7,-.6,.7h-.7c-.4,0,-.7,-.3,-.7,-.7v-7.1c0,-.3,.3,-.6,.7,-.6h.7c.3,0,.6,.3,.6,.6Z" class="ga_17"/>
<path d="M516.5,332.3v.7h4.6c1.1,0,2,-1,2,-2.1v-.4c0,-1.1,-.9,-2,-2,-2h-4.6c-.5,0,-1,.2,-1.3,.5c-.2,.1,-.3,.3,-.3,.5v.3c0,.2,-.1,.3,-.2,.5c-.1,.1,-.2,.3,-.2,.5v.1c0,1.1,.9,2.1,2,2.1v-1.4c-.4,0,-.6,-.3,-.6,-.7v-.1h-.7l.4,.5c.4,-.4,.7,-.9,.7,-1.5v-.3h-.7l.5,.5c.1,-.1,.2,-.1,.4,-.1h4.6c.4,0,.7,.3,.7,.6v.4c0,.4,-.3,.7,-.7,.7h-4.6Z" class="ga_17"/>
<path d="M515.6,322.9l-.4,.6c.3,.3,.8,.5,1.3,.5h4.6c1.1,0,2,-.9,2,-2.1v-.3c0,-1.2,-.9,-2.1,-2,-2.1h-4.6c-1.1,0,-2,.9,-2,2.1v.1c0,.2,.1,.4,.2,.5c.1,.2,.2,.3,.2,.5v.2c0,.2,.1,.4,.3,.6l.4,-.6h.7v-.2c0,-.6,-.3,-1.1,-.7,-1.5l-.4,.5h.7v-.1c0,-.4,.2,-.7,.6,-.7h4.6c.4,0,.7,.3,.7,.7v.3c0,.4,-.3,.7,-.7,.7h-4.6c-.2,0,-.3,-.1,-.4,-.2l-.5,.5h.7Z" class="ga_17"/>
<path d="M522.1,331.8v.7H524c1,0,1.8,-.9,1.8,-1.9v-8.7c0,-1,-.8,-1.8,-1.8,-1.8h-1.8c-.3,0,-.5,.1,-.6,.3c-.1,.3,-.1,.6,0,.8c.1,.1,.2,.2,.2,.4v.3c0,.4,-.3,.7,-.7,.7h-4.6c-.2,0,-.3,-.1,-.4,-.2c-.2,-.1,-.5,-.2,-.8,-.1c-.2,.1,-.4,.4,-.4,.6v6.6c0,.3,.2,.5,.4,.7c.3,.1,.6,0,.8,-.2c.1,-.1,.2,-.1,.4,-.1h4.6c.4,0,.7,.3,.7,.6v.4c0,.2,-.1,.3,-.2,.4c-.2,.2,-.2,.5,-.1,.8c.1,.2,.4,.4,.6,.4v-.7l.6,.4c.2,-.3,.4,-.8,.4,-1.3v-.4c0,-1.1,-.9,-2,-2,-2h-4.6c-.5,0,-1,.2,-1.4,.5l.5,.5h.7v-6.6h-.7l-.5,.6c.4,.3,.9,.5,1.4,.5h4.6c1.1,0,2,-.9,2,-2.1v-.3c0,-.5,-.1,-.9,-.4,-1.2l-.5,.4v.7H524c.3,0,.5,.1,.5,.4v8.7c0,.3,-.2,.5,-.5,.5h-1.9v.7l.6,.4Z" class="ga_17"/>
<path d="M515.6,322.7h.7c0,-1.1,-.9,-2,-2,-2h-.7c-1.1,0,-2.1,.9,-2.1,2v7.1c0,1.1,1,2,2.1,2h.7c1.1,0,2,-.9,2,-2v-7.1h-1.4v7.1c0,.4,-.3,.6,-.6,.6h-.7c-.4,0,-.7,-.2,-.7,-.6v-7.1c0,-.4,.3,-.7,.7,-.7h.7c.3,0,.6,.3,.6,.7Z" class="ga_17"/>
<image clip-path="url(#ch_17)" preserveAspectRatio="none" x="399" y="339" width="89" height="31" xlink:href="img/19.jpg"/>
<image clip-path="url(#ci_17)" preserveAspectRatio="none" x="409" y="268" width="88" height="72" xlink:href="img/20.jpg"/>
<image clip-path="url(#cj_17)" preserveAspectRatio="none" x="409" y="361" width="79" height="4" xlink:href="img/21.jpg"/>
<image clip-path="url(#ck_17)" preserveAspectRatio="none" x="487" y="339" width="11" height="31" xlink:href="img/22.jpg"/>
<image clip-path="url(#cl_17)" preserveAspectRatio="none" x="488" y="268" width="9" height="72" xlink:href="img/23.jpg"/>
<image clip-path="url(#cm_17)" preserveAspectRatio="none" x="487" y="361" width="11" height="4" xlink:href="img/24.jpg"/>
<image clip-path="url(#cn_17)" preserveAspectRatio="none" x="494" y="289" width="4" height="69" xlink:href="img/25.jpg"/>
<image clip-path="url(#co_17)" preserveAspectRatio="none" x="494" y="357" width="4" height="8" xlink:href="img/26.jpg"/>
<path d="M424.8,280.7c-10.1,0,-18.3,8.2,-18.3,18.3v64.1h79V299c0,-10.1,-8.2,-18.3,-18.3,-18.3Z" class="g1_17"/>
<path d="M406.4,364h79.1v-7.1H406.4V364Z" class="g9_17"/>
<path d="M411.8,339.1h2.4c.2,0,.3,-.2,.3,-.4c0,-.2,-.1,-.4,-.3,-.4h-2.4c-.2,0,-.3,.2,-.3,.4c0,.2,.1,.4,.3,.4m3.9,0H418c.3,0,.4,-.2,.4,-.4c0,-.2,-.1,-.4,-.4,-.4h-2.3c-.2,0,-.4,.2,-.4,.4c0,.2,.2,.4,.4,.4m3.9,0h2.3c.2,0,.4,-.2,.4,-.4c0,-.2,-.2,-.4,-.4,-.4h-2.3c-.2,0,-.4,.2,-.4,.4c0,.2,.2,.4,.4,.4m3.9,0h2.3c.2,0,.4,-.2,.4,-.4c0,-.2,-.2,-.4,-.4,-.4h-2.3c-.2,0,-.4,.2,-.4,.4c0,.2,.2,.4,.4,.4m3.9,0h2.3c.2,0,.4,-.2,.4,-.4c0,-.2,-.2,-.4,-.4,-.4h-2.3c-.2,0,-.4,.2,-.4,.4c0,.2,.2,.4,.4,.4m3.9,0h2.3c.2,0,.4,-.2,.4,-.4c0,-.2,-.2,-.4,-.4,-.4h-2.3c-.3,0,-.4,.2,-.4,.4c0,.2,.1,.4,.4,.4m3.8,0h2.4c.2,0,.3,-.2,.3,-.4c0,-.2,-.1,-.4,-.3,-.4h-2.4c-.2,0,-.3,.2,-.3,.4c0,.2,.1,.4,.3,.4m3.9,0h2.3c.3,0,.4,-.2,.4,-.4c0,-.2,-.1,-.4,-.4,-.4H439c-.2,0,-.4,.2,-.4,.4c0,.2,.2,.4,.4,.4m3.9,0h2.3c.2,0,.4,-.2,.4,-.4c0,-.2,-.2,-.4,-.4,-.4h-2.3c-.2,0,-.4,.2,-.4,.4c0,.2,.2,.4,.4,.4m3.9,0h2.3c.2,0,.4,-.2,.4,-.4c0,-.2,-.2,-.4,-.4,-.4h-2.3c-.2,0,-.4,.2,-.4,.4c0,.2,.2,.4,.4,.4m3.9,0H453c.2,0,.4,-.2,.4,-.4c0,-.2,-.2,-.4,-.4,-.4h-2.3c-.2,0,-.4,.2,-.4,.4c0,.2,.2,.4,.4,.4m3.8,0h2.4c.2,0,.4,-.2,.4,-.4c0,-.2,-.2,-.4,-.4,-.4h-2.4c-.2,0,-.3,.2,-.3,.4c0,.2,.1,.4,.3,.4m3.9,0h2.4c.2,0,.3,-.2,.3,-.4c0,-.2,-.1,-.4,-.3,-.4h-2.4c-.2,0,-.4,.2,-.4,.4c0,.2,.2,.4,.4,.4m3.9,0h2.3c.2,0,.4,-.2,.4,-.4c0,-.2,-.2,-.4,-.4,-.4h-2.3c-.2,0,-.4,.2,-.4,.4c0,.2,.2,.4,.4,.4m3.9,0h2.3c.2,0,.4,-.2,.4,-.4c0,-.2,-.2,-.4,-.4,-.4h-2.3c-.2,0,-.4,.2,-.4,.4c0,.2,.2,.4,.4,.4m3.9,0h2.3c.2,0,.4,-.2,.4,-.4c0,-.2,-.2,-.4,-.4,-.4h-2.3c-.2,0,-.4,.2,-.4,.4c0,.2,.2,.4,.4,.4m3.9,0h2.3c.2,0,.4,-.2,.4,-.4c0,-.2,-.2,-.4,-.4,-.4H474c-.3,0,-.4,.2,-.4,.4c0,.2,.1,.4,.4,.4m3.8,0h2.4c.2,0,.3,-.2,.3,-.4c0,-.2,-.1,-.4,-.3,-.4h-2.4c-.2,0,-.3,.2,-.3,.4c0,.2,.1,.4,.3,.4Z" class="gb_17"/>
<path d="M459.3,302.7h2.2c.2,0,.4,-.2,.4,-.4c0,-.2,-.2,-.4,-.4,-.4h-2.2c-.2,0,-.4,.2,-.4,.4c0,.2,.2,.4,.4,.4m3.7,0h2.3c.2,0,.3,-.2,.3,-.4c0,-.2,-.1,-.4,-.3,-.4H463c-.2,0,-.4,.2,-.4,.4c0,.2,.2,.4,.4,.4m3.7,0H469c.2,0,.4,-.2,.4,-.4c0,-.2,-.2,-.4,-.4,-.4h-2.3c-.2,0,-.4,.2,-.4,.4c0,.2,.2,.4,.4,.4m3.8,0h2.2c.2,0,.4,-.2,.4,-.4c0,-.2,-.2,-.4,-.4,-.4h-2.2c-.3,0,-.4,.2,-.4,.4c0,.2,.1,.4,.4,.4m3.7,0h2.2c.2,0,.4,-.2,.4,-.4c0,-.2,-.2,-.4,-.4,-.4h-2.2c-.2,0,-.4,.2,-.4,.4c0,.2,.2,.4,.4,.4m3.7,0h2.2c.2,0,.4,-.2,.4,-.4c0,-.2,-.2,-.4,-.4,-.4h-2.2c-.2,0,-.4,.2,-.4,.4c0,.2,.2,.4,.4,.4Z" class="gb_17"/>
<path d="M411.9,302.7h2.2c.2,0,.4,-.2,.4,-.4c0,-.2,-.2,-.4,-.4,-.4h-2.2c-.2,0,-.4,.2,-.4,.4c0,.2,.2,.4,.4,.4m3.7,0h2.2c.2,0,.4,-.2,.4,-.4c0,-.2,-.2,-.4,-.4,-.4h-2.2c-.2,0,-.4,.2,-.4,.4c0,.2,.2,.4,.4,.4m3.7,0h2.3c.2,0,.3,-.2,.3,-.4c0,-.2,-.1,-.4,-.3,-.4h-2.3c-.2,0,-.4,.2,-.4,.4c0,.2,.2,.4,.4,.4m3.7,0h2.3c.2,0,.4,-.2,.4,-.4c0,-.2,-.2,-.4,-.4,-.4H423c-.2,0,-.3,.2,-.3,.4c0,.2,.1,.4,.3,.4m3.8,0H429c.2,0,.4,-.2,.4,-.4c0,-.2,-.2,-.4,-.4,-.4h-2.2c-.3,0,-.4,.2,-.4,.4c0,.2,.1,.4,.4,.4m3.7,0h2.2c.2,0,.4,-.2,.4,-.4c0,-.2,-.2,-.4,-.4,-.4h-2.2c-.2,0,-.4,.2,-.4,.4c0,.2,.2,.4,.4,.4Z" class="gb_17"/>
<path d="M436.7,305.3v-.7c-1.1,0,-2,.9,-2,2V336h22.9V306.6c0,-1.1,-.9,-2,-2.1,-2H436.7v1.5h18.8c.3,0,.6,.2,.6,.5v27.9H436.2V306.6c0,-.3,.2,-.5,.5,-.5Z" class="gb_17"/>
<path d="M438.7,300.3v-.4c-.5,0,-1,.5,-1,1v4.7h16.9v-4.7c0,-.5,-.5,-1,-1,-1H438.7v.7h14.9c.1,0,.3,.2,.3,.3v4H438.4v-4c0,-.1,.1,-.3,.3,-.3Z" class="gb_17"/>
<path d="M443.6,327.4h-.4V335l.1,.3l.3,.1h5.2l.2,-.1l.1,-.3v-7.6l-.1,-.3l-.2,-.1h-5.2l-.3,.1l-.1,.3h.4v.4h4.8v6.8H444v-7.2h-.4v.4Z" class="gb_17"/>
<path d="M450.5,327.4h-.4v4.1l.1,.3l.3,.1h4.1l.3,-.1l.1,-.3v-4.1l-.1,-.3l-.3,-.1h-4.1l-.3,.1l-.1,.3h.4v.4h3.8v3.3h-3.4v-3.7h-.4v.4Z" class="gb_17"/>
<path d="M437.7,327.4h-.4v4.1l.1,.3l.3,.1h4.1l.3,-.1l.1,-.3v-4.1l-.1,-.3l-.3,-.1h-4.1l-.3,.1l-.1,.3h.4v.4h3.8v3.3h-3.4v-3.7h-.4v.4Z" class="gb_17"/>
<path d="M445.8,331.3h.8v-1h-.8v1Z" class="gb_17"/>
<path d="M450.5,321.1h-.4v4.1l.1,.2l.3,.2h4.1l.3,-.2l.1,-.2v-4.1l-.1,-.3l-.3,-.1h-4.1l-.3,.1l-.1,.3h.4v.3h3.8v3.4h-3.4v-3.7h-.4v.3Z" class="gb_17"/>
<path d="M444.1,321.1h-.4v4.1l.1,.2l.3,.2h4.1l.3,-.2l.1,-.2v-4.1l-.1,-.3l-.3,-.1h-4.1l-.3,.1l-.1,.3h.4v.3h3.8v3.4h-3.4v-3.7h-.4v.3Z" class="gb_17"/>
<path d="M437.7,321.1h-.4v4.1l.1,.2l.3,.2h4.1l.3,-.2l.1,-.2v-4.1l-.1,-.3l-.3,-.1h-4.1l-.3,.1l-.1,.3h.4v.3h3.8v3.4h-3.4v-3.7h-.4v.3Z" class="gb_17"/>
<path d="M450.5,314.8h-.4v4.1l.1,.2l.3,.1h4.1l.3,-.1l.1,-.2v-4.1l-.1,-.3l-.3,-.1h-4.1l-.3,.1l-.1,.3h.4v.3h3.8v3.4h-3.4v-3.7h-.4v.3Z" class="gb_17"/>
<path d="M444.1,314.8h-.4v4.1l.1,.2l.3,.1h4.1l.3,-.1l.1,-.2v-4.1l-.1,-.3l-.3,-.1h-4.1l-.3,.1l-.1,.3h.4v.3h3.8v3.4h-3.4v-3.7h-.4v.3Z" class="gb_17"/>
<path d="M437.7,314.8h-.4v4.1l.1,.2l.3,.1h4.1l.3,-.1l.1,-.2v-4.1l-.1,-.3l-.3,-.1h-4.1l-.3,.1l-.1,.3h.4v.3h3.8v3.4h-3.4v-3.7h-.4v.3Z" class="gb_17"/>
<path d="M450.5,308.4h-.4v4.1l.1,.3l.3,.1h4.1l.3,-.1l.1,-.3v-4.1l-.1,-.2l-.3,-.1h-4.1l-.3,.1l-.1,.2h.4v.4h3.8v3.4h-3.4v-3.8h-.4v.4Z" class="gb_17"/>
<path d="M444.1,308.4h-.4v4.1l.1,.3l.3,.1h4.1l.3,-.1l.1,-.3v-4.1l-.1,-.2l-.3,-.1h-4.1l-.3,.1l-.1,.2h.4v.4h3.8v3.4h-3.4v-3.8h-.4v.4Z" class="gb_17"/>
<path d="M437.7,308.4h-.4v4.1l.1,.3l.3,.1h4.1l.3,-.1l.1,-.3v-4.1l-.1,-.2l-.3,-.1h-4.1l-.3,.1l-.1,.2h.4v.4h3.8v3.4h-3.4v-3.8h-.4v.4Z" class="gb_17"/>
<path d="M441.3,301.3l-.2,-.1l-.5,.7l-.8,.2l-.2,.2l.1,.2l.5,.7v.8l.1,.2h.2l.8,-.3l.7,.3h.3l.1,-.2l-.1,-.8l.5,-.7l.1,-.2l-.2,-.2l-.8,-.2l-.4,-.7l-.2,-.1l-.2,.1l.2,.1l-.2,.2l.5,.8l.1,.1l.5,.1l-.3,.4l-.1,.2l.1,.6l-.6,-.3h-.1l-.5,.3v-.6l-.1,-.2l-.3,-.4l.5,-.1l.2,-.1l.5,-.8l-.2,-.2l-.2,.2Z" class="gb_17"/>
<path d="M446.1,301.3l-.2,-.1l-.4,.7l-.8,.2l-.2,.2l.1,.2l.5,.7l-.1,.8l.1,.2h.3l.7,-.3l.8,.3h.2l.1,-.2v-.8l.5,-.7l.1,-.2l-.2,-.2l-.8,-.2l-.5,-.7l-.2,-.1l-.2,.1l.2,.1l-.2,.2l.5,.8l.2,.1l.5,.1l-.3,.4l-.1,.2v.6l-.5,-.3H446l-.5,.3l.1,-.6l-.1,-.2l-.3,-.4l.5,-.1l.1,-.1l.5,-.8l-.2,-.2l-.2,.2Z" class="gb_17"/>
<path d="M451,301.3l-.2,-.1l-.4,.7l-.8,.2l-.2,.2v.2l.6,.7l-.1,.8l.1,.2h.2l.8,-.3l.8,.3h.2l.1,-.2l-.1,-.8l.6,-.7v-.2l-.1,-.2l-.8,-.2l-.5,-.7l-.2,-.1l-.2,.1l.2,.1l-.2,.2l.5,.8l.1,.1l.6,.1l-.4,.4v.8l-.5,-.3h-.2l-.5,.3v-.8l-.4,-.4l.6,-.1l.1,-.1l.5,-.8l-.2,-.2l-.2,.2Z" class="gb_17"/>
<path d="M433.7,336.3h24.6c.5,0,1,-.4,1,-1c0,-.5,-.5,-.9,-1,-.9H433.7c-.5,0,-.9,.4,-.9,.9c0,.6,.4,1,.9,1Z" class="gb_17"/>
<path d="M446,327.3v7.4h.3v-7.4Z" class="gb_17"/>
<image clip-path="url(#cp_17)" preserveAspectRatio="none" x="311" y="339" width="89" height="31" xlink:href="img/27.jpg"/>
<image clip-path="url(#cq_17)" preserveAspectRatio="none" x="321" y="268" width="88" height="72" xlink:href="img/28.jpg"/>
<image clip-path="url(#cr_17)" preserveAspectRatio="none" x="321" y="361" width="79" height="4" xlink:href="img/29.jpg"/>
<image clip-path="url(#cs_17)" preserveAspectRatio="none" x="399" y="339" width="11" height="31" xlink:href="img/30.jpg"/>
<image clip-path="url(#ct_17)" preserveAspectRatio="none" x="400" y="268" width="9" height="72" xlink:href="img/31.jpg"/>
<image clip-path="url(#cu_17)" preserveAspectRatio="none" x="399" y="361" width="11" height="4" xlink:href="img/32.jpg"/>
<image clip-path="url(#cv_17)" preserveAspectRatio="none" x="406" y="289" width="4" height="69" xlink:href="img/33.jpg"/>
<image clip-path="url(#cw_17)" preserveAspectRatio="none" x="406" y="357" width="4" height="8" xlink:href="img/34.jpg"/>
<path d="M336.7,280.7c-10.1,0,-18.3,8.2,-18.3,18.3v64.1h79V299c0,-10.1,-8.2,-18.3,-18.3,-18.3Z" class="g1_17"/>
<path d="M318.3,364h79.1v-7.1H318.3V364Z" class="g9_17"/>
<path d="M324.5,306.8h2.2c.2,0,.4,-.1,.4,-.3c0,-.3,-.2,-.4,-.4,-.4h-2.2c-.2,0,-.3,.1,-.3,.4c0,.2,.1,.3,.3,.3m3.6,0h2.2c.2,0,.3,-.1,.3,-.3c0,-.3,-.1,-.4,-.3,-.4h-2.2c-.2,0,-.4,.1,-.4,.4c0,.2,.2,.3,.4,.3m3.6,0h2.1c.2,0,.4,-.1,.4,-.3c0,-.3,-.2,-.4,-.4,-.4h-2.1c-.3,0,-.4,.1,-.4,.4c0,.2,.1,.3,.4,.3m3.5,0h2.2c.2,0,.3,-.1,.3,-.3c0,-.3,-.1,-.4,-.3,-.4h-2.2c-.2,0,-.4,.1,-.4,.4c0,.2,.2,.3,.4,.3m3.6,0h2.1c.2,0,.4,-.1,.4,-.3c0,-.3,-.2,-.4,-.4,-.4h-2.1c-.2,0,-.4,.1,-.4,.4c0,.2,.2,.3,.4,.3m3.5,0h2.2c.2,0,.4,-.1,.4,-.3c0,-.3,-.2,-.4,-.4,-.4h-2.2c-.2,0,-.4,.1,-.4,.4c0,.2,.2,.3,.4,.3m3.6,0H348c.2,0,.4,-.1,.4,-.3c0,-.3,-.2,-.4,-.4,-.4h-2.1c-.2,0,-.4,.1,-.4,.4c0,.2,.2,.3,.4,.3Z" class="gc_17"/>
<path d="M324.5,339.1h2.4c.2,0,.4,-.2,.4,-.4c0,-.2,-.2,-.4,-.4,-.4h-2.4c-.2,0,-.3,.2,-.3,.4c0,.2,.1,.4,.3,.4m3.9,0h2.4c.2,0,.3,-.2,.3,-.4c0,-.2,-.1,-.4,-.3,-.4h-2.4c-.2,0,-.4,.2,-.4,.4c0,.2,.2,.4,.4,.4m3.9,0h2.3c.2,0,.4,-.2,.4,-.4c0,-.2,-.2,-.4,-.4,-.4h-2.3c-.2,0,-.4,.2,-.4,.4c0,.2,.2,.4,.4,.4m3.9,0h2.3c.2,0,.4,-.2,.4,-.4c0,-.2,-.2,-.4,-.4,-.4h-2.3c-.2,0,-.4,.2,-.4,.4c0,.2,.2,.4,.4,.4m3.9,0h2.3c.2,0,.4,-.2,.4,-.4c0,-.2,-.2,-.4,-.4,-.4h-2.3c-.2,0,-.4,.2,-.4,.4c0,.2,.2,.4,.4,.4m3.9,0h2.3c.2,0,.4,-.2,.4,-.4c0,-.2,-.2,-.4,-.4,-.4H344c-.3,0,-.4,.2,-.4,.4c0,.2,.1,.4,.4,.4m3.8,0h2.4c.2,0,.3,-.2,.3,-.4c0,-.2,-.1,-.4,-.3,-.4h-2.4c-.2,0,-.3,.2,-.3,.4c0,.2,.1,.4,.3,.4m3.9,0H354c.3,0,.4,-.2,.4,-.4c0,-.2,-.1,-.4,-.4,-.4h-2.3c-.2,0,-.4,.2,-.4,.4c0,.2,.2,.4,.4,.4m3.9,0h2.3c.2,0,.4,-.2,.4,-.4c0,-.2,-.2,-.4,-.4,-.4h-2.3c-.2,0,-.4,.2,-.4,.4c0,.2,.2,.4,.4,.4m3.9,0h2.3c.2,0,.4,-.2,.4,-.4c0,-.2,-.2,-.4,-.4,-.4h-2.3c-.2,0,-.4,.2,-.4,.4c0,.2,.2,.4,.4,.4m3.9,0h2.3c.2,0,.4,-.2,.4,-.4c0,-.2,-.2,-.4,-.4,-.4h-2.3c-.2,0,-.4,.2,-.4,.4c0,.2,.2,.4,.4,.4m3.8,0h2.4c.2,0,.4,-.2,.4,-.4c0,-.2,-.2,-.4,-.4,-.4h-2.4c-.2,0,-.3,.2,-.3,.4c0,.2,.1,.4,.3,.4m3.9,0h2.4c.2,0,.3,-.2,.3,-.4c0,-.2,-.1,-.4,-.3,-.4h-2.4c-.2,0,-.4,.2,-.4,.4c0,.2,.2,.4,.4,.4m3.9,0h2.3c.2,0,.4,-.2,.4,-.4c0,-.2,-.2,-.4,-.4,-.4H375c-.2,0,-.4,.2,-.4,.4c0,.2,.2,.4,.4,.4m3.9,0h2.3c.2,0,.4,-.2,.4,-.4c0,-.2,-.2,-.4,-.4,-.4h-2.3c-.2,0,-.4,.2,-.4,.4c0,.2,.2,.4,.4,.4m3.9,0h2.3c.2,0,.4,-.2,.4,-.4c0,-.2,-.2,-.4,-.4,-.4h-2.3c-.2,0,-.4,.2,-.4,.4c0,.2,.2,.4,.4,.4m3.9,0H389c.2,0,.4,-.2,.4,-.4c0,-.2,-.2,-.4,-.4,-.4h-2.3c-.3,0,-.4,.2,-.4,.4c0,.2,.1,.4,.4,.4m3.8,0h2.4c.2,0,.3,-.2,.3,-.4c0,-.2,-.1,-.4,-.3,-.4h-2.4c-.2,0,-.3,.2,-.3,.4c0,.2,.1,.4,.3,.4Z" class="gc_17"/>
<path d="M371.3,306.8h2.3c.2,0,.4,-.1,.4,-.3c0,-.3,-.2,-.4,-.4,-.4h-2.3c-.2,0,-.4,.1,-.4,.4c0,.2,.2,.3,.4,.3m3.9,0h2.3c.2,0,.4,-.1,.4,-.3c0,-.3,-.2,-.4,-.4,-.4h-2.3c-.2,0,-.4,.1,-.4,.4c0,.2,.2,.3,.4,.3m3.8,0h2.3c.2,0,.4,-.1,.4,-.3c0,-.3,-.2,-.4,-.4,-.4H379c-.2,0,-.4,.1,-.4,.4c0,.2,.2,.3,.4,.3m3.9,0h2.3c.2,0,.4,-.1,.4,-.3c0,-.3,-.2,-.4,-.4,-.4h-2.3c-.2,0,-.4,.1,-.4,.4c0,.2,.2,.3,.4,.3m3.8,0H389c.2,0,.4,-.1,.4,-.3c0,-.3,-.2,-.4,-.4,-.4h-2.3c-.2,0,-.4,.1,-.4,.4c0,.2,.2,.3,.4,.3m3.9,0h2.3c.2,0,.3,-.1,.3,-.3c0,-.3,-.1,-.4,-.3,-.4h-2.3c-.3,0,-.4,.1,-.4,.4c0,.2,.1,.3,.4,.3Z" class="gc_17"/>
<path d="M367.9,318.5c0,3.4,-.1,6.8,0,10.2c.1,3.1,-1.4,5.3,-4.5,6.7c-3.3,1.4,-6.5,1.1,-9.5,-.7c-.4,-.2,-.9,-.5,-1.1,-.9c-.2,-.2,-.1,-.7,0,-.9c.2,-.1,.7,-.1,1,0c.2,0,.4,.3,.6,.4c3.1,2.3,8,2,10.5,-.7c1.1,-1.1,1.5,-2.4,1.5,-3.8c0,-6.8,-.1,-13.6,0,-20.4c0,-2.5,-1.1,-4.4,-3.6,-5.5c-2.6,-1.2,-5.3,-1.1,-7.8,.4c-.3,.1,-.6,.4,-.9,.6c-.4,.3,-.9,.5,-1.2,0c-.2,-.2,-.1,-.8,.2,-1c1.1,-1,2.5,-1.6,4.1,-2c4.7,-1,9.6,1.5,10.5,5.5c.2,.6,.2,1.1,.2,1.7c0,3.5,0,6.9,0,10.4Z" class="gc_17"/>
<path d="M352.8,310.6c-1.7,-.2,-2.2,-1.4,-1.5,-3c.5,-1,1.4,-1.5,2.4,-1.8c1.5,-.5,3.2,-.5,4.7,0c2,.6,3.2,2.5,3,4.5c-.2,1.9,-1.8,3.6,-3.7,3.8c-2.1,.3,-3.9,-.8,-4.7,-2.8c-.1,-.2,-.1,-.4,-.2,-.7m7.1,0c-1.4,-.4,-1.6,-.6,-2.3,-1.8c-.1,-.3,-.3,-.6,-.4,-.9c-.7,-.9,-1.4,-1,-2.2,-.1c-.8,.8,-1.1,2.1,-.6,3.2c.5,1.1,1.5,1.8,2.8,1.8c1.3,-.1,2.2,-.8,2.7,-2.2M360,309c.1,-1,-1.8,-1.6,-1.8,-1.6c.5,1.7,1.7,2.2,1.8,1.6m-6.5,-1.7c-1.9,.8,-.9,2.3,-.8,1.9c0,0,.2,-1.2,.8,-1.9Z" class="gc_17"/>
<path d="M352.8,320c-1.7,-.3,-2.2,-1.5,-1.5,-3c.5,-1.1,1.4,-1.5,2.4,-1.8c1.5,-.5,3.2,-.6,4.7,-.1c2,.6,3.2,2.5,3,4.5c-.2,1.9,-1.8,3.6,-3.7,3.9c-2.1,.2,-3.9,-.9,-4.7,-2.9c-.1,-.2,-.1,-.4,-.2,-.6m7.1,0c-1.4,-.5,-1.6,-.6,-2.3,-1.9c-.1,-.3,-.3,-.6,-.4,-.8c-.7,-1,-1.4,-1,-2.2,-.2c-.8,.8,-1.1,2.1,-.6,3.2c.5,1.2,1.5,1.8,2.8,1.8c1.3,0,2.2,-.8,2.7,-2.1m.1,-1.7c.1,-1,-1.8,-1.6,-1.8,-1.6c.5,1.8,1.7,2.2,1.8,1.6m-6.5,-1.7c-1.9,.8,-.9,2.3,-.8,1.9c0,0,.2,-1.2,.8,-1.9Z" class="gc_17"/>
<path d="M352.8,329.1c-1.7,-.3,-2.2,-1.5,-1.5,-3c.5,-1.1,1.4,-1.5,2.4,-1.8c1.5,-.5,3.2,-.6,4.7,-.1c2,.6,3.2,2.5,3,4.5c-.2,1.9,-1.8,3.6,-3.7,3.9c-2.1,.2,-3.9,-.9,-4.7,-2.8c-.1,-.3,-.1,-.5,-.2,-.7m7.1,0c-1.4,-.5,-1.6,-.6,-2.3,-1.9c-.1,-.3,-.3,-.6,-.4,-.8c-.7,-1,-1.4,-1,-2.2,-.2c-.8,.8,-1.1,2.1,-.6,3.2c.5,1.2,1.5,1.8,2.8,1.8c1.3,0,2.2,-.8,2.7,-2.1m.1,-1.7c.1,-1,-1.8,-1.6,-1.8,-1.6c.5,1.8,1.7,2.2,1.8,1.6m-6.5,-1.7c-1.9,.8,-.9,2.3,-.8,1.9c0,0,.2,-1.2,.8,-1.9Z" class="gc_17"/>
<path d="M349,323.6L343.7,318c-.2,-.2,-.6,-.2,-.9,0c-.2,.2,-.2,.6,0,.9l5.3,5.5c.2,.3,.6,.3,.8,0c.3,-.2,.3,-.6,.1,-.8Z" class="gc_17"/>
<path d="M349,331.2l-5.3,5.5c-.2,.3,-.6,.3,-.9,.1c-.2,-.3,-.2,-.7,0,-.9l5.3,-5.6c.2,-.2,.6,-.2,.8,0c.3,.3,.3,.7,.1,.9Z" class="gc_17"/>
<path d="M347.8,325.6l-7.3,-1.4c-.3,-.1,-.6,.1,-.7,.4c-.1,.4,.1,.7,.5,.8l7.2,1.4c.4,.1,.7,-.2,.7,-.5c.1,-.3,-.1,-.7,-.4,-.7Z" class="gc_17"/>
<path d="M347.8,329.2l-7.3,1.4c-.3,.1,-.6,-.1,-.7,-.5c-.1,-.3,.1,-.6,.5,-.7l7.2,-1.4c.4,-.1,.7,.1,.7,.5c.1,.3,-.1,.6,-.4,.7Z" class="gc_17"/>
<image clip-path="url(#cx_17)" preserveAspectRatio="none" x="232" y="339" width="80" height="31" xlink:href="img/35.jpg"/>
<image clip-path="url(#cy_17)" preserveAspectRatio="none" x="224" y="268" width="97" height="72" xlink:href="img/36.jpg"/>
<image clip-path="url(#cz_17)" preserveAspectRatio="none" x="232" y="361" width="80" height="4" xlink:href="img/37.jpg"/>
<image clip-path="url(#c10_17)" preserveAspectRatio="none" x="223" y="339" width="11" height="31" xlink:href="img/38.jpg"/>
<image clip-path="url(#c11_17)" preserveAspectRatio="none" x="224" y="268" width="9" height="72" xlink:href="img/39.jpg"/>
<image clip-path="url(#c12_17)" preserveAspectRatio="none" x="223" y="361" width="11" height="4" xlink:href="img/40.jpg"/>
<image clip-path="url(#c13_17)" preserveAspectRatio="none" x="311" y="339" width="11" height="31" xlink:href="img/41.jpg"/>
<image clip-path="url(#c14_17)" preserveAspectRatio="none" x="312" y="268" width="9" height="72" xlink:href="img/42.jpg"/>
<image clip-path="url(#c15_17)" preserveAspectRatio="none" x="311" y="361" width="11" height="4" xlink:href="img/43.jpg"/>
<image clip-path="url(#c16_17)" preserveAspectRatio="none" x="318" y="289" width="4" height="69" xlink:href="img/44.jpg"/>
<image clip-path="url(#c17_17)" preserveAspectRatio="none" x="318" y="357" width="4" height="8" xlink:href="img/45.jpg"/>
<path d="M248.6,280.7c-10.1,0,-18.3,8.2,-18.3,18.3v64.1h79V299c0,-10.1,-8.2,-18.3,-18.3,-18.3Z" class="g1_17"/>
<path d="M230.2,364h79.1v-7.1H230.2V364Z" class="g9_17"/>
<path d="M236.4,306.8H239c.2,0,.3,-.1,.3,-.3c0,-.3,-.1,-.4,-.3,-.4h-2.6c-.2,0,-.4,.1,-.4,.4c0,.2,.2,.3,.4,.3m4.3,0h2.6c.2,0,.4,-.1,.4,-.3c0,-.3,-.2,-.4,-.4,-.4h-2.6c-.2,0,-.3,.1,-.3,.4c0,.2,.1,.3,.3,.3m4.3,0h2.6c.2,0,.4,-.1,.4,-.3c0,-.3,-.2,-.4,-.4,-.4H245c-.2,0,-.3,.1,-.3,.4c0,.2,.1,.3,.3,.3m4.4,0h2.5c.2,0,.4,-.1,.4,-.3c0,-.3,-.2,-.4,-.4,-.4h-2.5c-.3,0,-.4,.1,-.4,.4c0,.2,.1,.3,.4,.3Z" class="g7_17"/>
<path d="M288,339.1h2.2c.2,0,.3,-.2,.3,-.4c0,-.2,-.1,-.4,-.3,-.4H288c-.3,0,-.4,.2,-.4,.4c0,.2,.1,.4,.4,.4m3.6,0h2.2c.2,0,.4,-.2,.4,-.4c0,-.2,-.2,-.4,-.4,-.4h-2.2c-.2,0,-.4,.2,-.4,.4c0,.2,.2,.4,.4,.4m3.6,0h2.3c.2,0,.3,-.2,.3,-.4c0,-.2,-.1,-.4,-.3,-.4h-2.3c-.2,0,-.3,.2,-.3,.4c0,.2,.1,.4,.3,.4m3.7,0h2.2c.2,0,.4,-.2,.4,-.4c0,-.2,-.2,-.4,-.4,-.4h-2.2c-.2,0,-.4,.2,-.4,.4c0,.2,.2,.4,.4,.4m3.6,0h2.2c.3,0,.4,-.2,.4,-.4c0,-.2,-.1,-.4,-.4,-.4h-2.2c-.2,0,-.3,.2,-.3,.4c0,.2,.1,.4,.3,.4Z" class="g7_17"/>
<path d="M287.1,306.8h2.3c.2,0,.4,-.1,.4,-.3c0,-.3,-.2,-.4,-.4,-.4h-2.3c-.2,0,-.4,.1,-.4,.4c0,.2,.2,.3,.4,.3m3.8,0h2.3c.2,0,.4,-.1,.4,-.3c0,-.3,-.2,-.4,-.4,-.4h-2.3c-.2,0,-.4,.1,-.4,.4c0,.2,.2,.3,.4,.3m3.9,0h2.3c.2,0,.3,-.1,.3,-.3c0,-.3,-.1,-.4,-.3,-.4h-2.3c-.2,0,-.4,.1,-.4,.4c0,.2,.2,.3,.4,.3m3.8,0h2.3c.2,0,.4,-.1,.4,-.3c0,-.3,-.2,-.4,-.4,-.4h-2.3c-.2,0,-.4,.1,-.4,.4c0,.2,.2,.3,.4,.3m3.8,0h2.3c.3,0,.4,-.1,.4,-.3c0,-.3,-.1,-.4,-.4,-.4h-2.3c-.2,0,-.3,.1,-.3,.4c0,.2,.1,.3,.3,.3Z" class="g7_17"/>
<path d="M283.2,324.2c.1,.9,.3,1.9,.3,2.8c-.1,2.6,-1.3,4.6,-3.5,6c-1.7,1.2,-3.6,1.7,-5.6,1.7c-3.1,0,-6.2,0,-9.3,0c-2.1,0,-4.1,-.6,-5.8,-1.8c-2.5,-1.7,-3.6,-4.1,-3.2,-7.2c.3,-2.5,.4,-5.1,.5,-7.6c0,-2.3,0,-4.7,-.1,-7c0,-2.7,1.1,-4.8,3.3,-6.4c1.8,-1.4,4,-2,6.3,-2.1c2.5,0,4.9,0,7.4,0c2.1,.1,4.2,.6,5.9,1.9c2.6,1.7,3.8,4.1,3.5,7.2c-.1,1.5,0,3.1,0,4.7c0,0,.2,5.2,.3,7.8m-13.4,-20v-.1c-1.3,0,-2.5,0,-3.7,0c-1.7,.1,-3.3,.5,-4.7,1.4c-2,1.2,-3.4,2.8,-3.3,5.3c.1,1.1,.4,2.2,.7,3.3c.6,1.7,1.4,3.3,2.8,4.5c.4,.3,.4,.8,0,1.1c-.8,.9,-1.7,1.6,-2.8,2c-.7,.2,-.9,.6,-.9,1.3c-.1,.6,.1,1.1,.5,1.5c1,1.1,2.2,1.8,3.5,2.3c2.3,1,4.7,1.3,7.2,1.4c2.7,0,5.3,-.2,7.8,-1.1c1.7,-.6,3.3,-1.5,4.4,-3c.2,-.1,.3,-.3,.3,-.5c0,-.5,0,-.9,-.1,-1.4l-.3,-.3c-1.3,-.4,-2.4,-1.2,-3.3,-2.2c-.4,-.4,-.3,-.8,0,-1.2c.6,-.6,1.2,-1.2,1.6,-1.9c1,-1.6,1.5,-3.3,1.8,-5.1c.3,-1.5,-.1,-2.9,-1,-4.1c-1.5,-2,-3.5,-2.9,-5.9,-3.1c-1.6,-.2,-3.1,-.1,-4.6,-.1m-12.1,21.3c-.5,2.1,0,4,1.6,5.5c1.7,1.5,3.7,2.1,5.9,2.1c3,.1,6,.1,9,.1c1,0,2,-.2,3,-.5c1.8,-.6,3.3,-1.7,4.2,-3.4c.6,-1.2,.6,-2.5,.3,-3.8h-.1c-1.4,1.8,-3.3,2.8,-5.5,3.4c-3.7,1,-7.4,1,-11.1,.4c-1.8,-.3,-3.5,-.8,-5.1,-1.9c-.8,-.5,-1.5,-1.2,-2.2,-1.9Z" class="g7_17"/>
<path d="M262.8,335.2c-.6,.5,-1.3,1,-1.9,1.5c-.6,.5,-2.3,1.8,-2.9,2.3c-.3,.3,-.7,.3,-1,.2c-.2,-.1,-.4,-.3,-.4,-.5c-.1,-.3,0,-.6,.3,-.8c.4,-.3,1.8,-1.4,2.2,-1.8c.5,-.4,1.1,-.8,1.7,-1.2c.1,-.1,.4,-.2,.5,-.1c.5,.1,1,.3,1.5,.4Z" class="g7_17"/>
<path d="M276.6,335.2c.7,-.2,1.2,-.3,1.7,-.5l.4,.2c1,.7,3,2.2,3.9,3c.2,.1,.3,.3,.4,.4c.1,.3,0,.7,-.2,.8c-.3,.1,-.8,.2,-1,0c-1.4,-.9,-3.7,-2.8,-5.2,-3.9Z" class="g7_17"/>
<path d="M269.7,318c-1.4,0,-2.8,.1,-4.2,0c-2.5,-.2,-4.5,-2.1,-5,-4.6c-.1,-.6,-.2,-1.2,-.3,-1.9c-.5,-2.4,1.2,-4.6,3.7,-4.6c3.9,0,7.8,0,11.6,0c2.4,0,4.2,1.9,3.8,4.3c-.1,1.4,-.3,2.8,-1,4c-1.2,1.8,-2.8,2.8,-5,2.8c-1.2,0,-2.4,0,-3.6,0Z" class="g7_17"/>
<path d="M275.6,321.5c.3,0,.7,0,1,0c.6,0,1,.4,.8,.8c-.7,1.1,-1.3,2.2,-2,3.3c-.1,.2,-.4,.3,-.7,.3c-.7,0,-1.4,0,-2,0c-.7,0,-1,-.4,-.8,-.8c.6,-1.1,1.3,-2.2,1.9,-3.2c.1,-.3,.4,-.4,.8,-.4c.4,0,.7,0,1,0Z" class="g7_17"/>
<path d="M265.8,325.9c-.3,0,-.6,0,-.9,0c-.4,0,-.7,-.1,-.9,-.4c-.6,-1,-1.2,-2.1,-1.8,-3.2c-.3,-.5,0,-.8,.7,-.8c.7,0,1.3,0,2,0c.4,0,.6,.1,.8,.4c.6,1.1,1.3,2.1,1.9,3.2c.2,.4,-.1,.8,-.7,.8c-.4,0,-.7,0,-1.1,0Z" class="g7_17"/>
<path d="M271.1,331.5c0,.7,-.6,1.4,-1.3,1.4c-.8,0,-1.4,-.6,-1.4,-1.3c0,-.8,.6,-1.4,1.3,-1.4c.7,0,1.4,.6,1.4,1.3Z" class="g7_17"/>
<path d="M236.4,339.1h2.2c.2,0,.4,-.2,.4,-.4c0,-.2,-.2,-.4,-.4,-.4h-2.2c-.2,0,-.4,.2,-.4,.4c0,.2,.2,.4,.4,.4m3.7,0h2.2c.2,0,.4,-.2,.4,-.4c0,-.2,-.2,-.4,-.4,-.4h-2.2c-.2,0,-.4,.2,-.4,.4c0,.2,.2,.4,.4,.4m3.6,0h2.2c.2,0,.4,-.2,.4,-.4c0,-.2,-.2,-.4,-.4,-.4h-2.2c-.2,0,-.4,.2,-.4,.4c0,.2,.2,.4,.4,.4m3.7,0h2.2c.2,0,.4,-.2,.4,-.4c0,-.2,-.2,-.4,-.4,-.4h-2.2c-.2,0,-.4,.2,-.4,.4c0,.2,.2,.4,.4,.4m3.6,0h2.2c.2,0,.4,-.2,.4,-.4c0,-.2,-.2,-.4,-.4,-.4H251c-.2,0,-.4,.2,-.4,.4c0,.2,.2,.4,.4,.4Z" class="g7_17"/>
<path d="M0,0V1286.2Z" class="g1_17"/>
<path d="M0,1286.2H19.5V0H0V1286.2Z" class="g1_17"/>
</svg>