<?xml version="1.0" encoding="UTF-8" standalone="no"?>
<!DOCTYPE svg PUBLIC "-//W3C//DTD SVG 1.1//EN"
"http://www.w3.org/Graphics/SVG/1.1/DTD/svg11.dtd">
<svg viewBox="0 0 909 1286" version="1.1" xmlns="http://www.w3.org/2000/svg" xmlns:xlink="http://www.w3.org/1999/xlink">
<defs>
<clipPath id="c0_9"><path d="M78.4,55.4V43.3H43.2V55.4ZM0,361.6V0H584.6V289.6H312.2v72Z"/></clipPath>
<clipPath id="c1_9"><path d="M575.5,1063.5v-12.1H515v12.1Zm-250.7,6V717.1H584.6v352.4Z"/></clipPath>
<clipPath id="c2_9"><path d="M43.2,55.4V43.3H78.4V55.4Z"/></clipPath>
<clipPath id="c3_9"><path d="M515,1063.5v-12.1h60.5v12.1Z"/></clipPath>
<clipPath id="c4_9"><path d="M624.1,207.6c-9.8,0,-17.8,-8,-17.8,-17.9c0,-9.8,8,-17.8,17.8,-17.8c9.9,0,17.9,8,17.9,17.8c0,9.9,-8,17.9,-17.9,17.9Z"/></clipPath>
<clipPath id="c5_9"><path d="M497.5,390.8v-5.1h87.1v-2.3H573.8V361.6h10.8v-72h.9V390.8Z"/></clipPath>
<clipPath id="c6_9"><path d="M573.8,361.6v-41c0,-10.1,-8.2,-18.3,-18.3,-18.3H513.1c-6.6,0,-12.3,3.5,-15.6,8.7V289.6h87.1v72Z"/></clipPath>
<clipPath id="c7_9"><path d="M573.8,385.7v-2.3h10.8v2.3Z"/></clipPath>
<clipPath id="c8_9"><path d="M409.6,390.8v-5.1h78.5v5.1Zm76.3,-7.4V361.6h2.2v21.8Z"/></clipPath>
<clipPath id="c9_9"><path d="M485.9,361.6v-41c0,-10.1,-8.2,-18.3,-18.4,-18.3H425.2c-6.6,0,-12.4,3.5,-15.6,8.7V289.6h78.5v72Z"/></clipPath>
<clipPath id="ca_9"><path d="M485.9,385.7v-2.3h2.2v2.3Z"/></clipPath>
<clipPath id="cb_9"><path d="M488.1,390.8v-5.1h9.4v5.1Zm0,-7.4V361.6h6.7v16.9h-.1v4.9Z"/></clipPath>
<clipPath id="cc_9"><path d="M488.1,361.6v-72h9.4V311c-1.7,2.8,-2.7,6.1,-2.7,9.6v41Z"/></clipPath>
<clipPath id="cd_9"><path d="M488.1,385.7v-2.3h6.6v2.3Z"/></clipPath>
<clipPath id="ce_9"><path d="M494.8,378.5V320.6c0,-3.5,1,-6.8,2.7,-9.6v67.5Z"/></clipPath>
<clipPath id="cf_9"><path d="M494.7,385.7v-7.2h2.8v7.2Z"/></clipPath>
<clipPath id="cg_9"><path d="M312.2,390.8v-5.1h88v5.1Zm0,-7.4V361.6h88v21.8Z"/></clipPath>
<clipPath id="ch_9"><path d="M312.2,361.6v-72h88v72Z"/></clipPath>
<clipPath id="ci_9"><path d="M312.2,385.7v-2.3h88v2.3Z"/></clipPath>
<clipPath id="cj_9"><path d="M400.2,390.8v-5.1h9.4v5.1Zm0,-7.4V361.6h6.7v16.9h-.1v4.9Z"/></clipPath>
<clipPath id="ck_9"><path d="M400.2,361.6v-72h9.4V311c-1.7,2.8,-2.7,6.1,-2.7,9.6v41Z"/></clipPath>
<clipPath id="cl_9"><path d="M400.2,385.7v-2.3h6.6v2.3Z"/></clipPath>
<clipPath id="cm_9"><path d="M406.9,378.5V320.6c0,-3.5,1,-6.8,2.7,-9.6v67.5Z"/></clipPath>
<clipPath id="cn_9"><path d="M406.8,385.7v-7.2h2.8v7.2Z"/></clipPath>
<style type="text/css"><![CDATA[
.g0_9{
fill: #1B1661;
}
.g1_9{
fill: #FFF;
}
.g2_9{
fill: #E7E8E8;
}
.g3_9{
fill: #DCDDDE;
}
.g4_9{
fill: #72C161;
}
.g5_9{
fill: #D3E8CB;
}
.g6_9{
fill: #5AC4C1;
}
.g7_9{
fill: #F37537;
}
.g8_9{
fill: #5180C1;
}
.g9_9{
fill: #CFCBCA;
}
]]></style>
</defs>
<image clip-path="url(#c0_9)" preserveAspectRatio="none" x="0" y="0" width="585" height="362" xlink:href="img/1.jpg"/>
<image clip-path="url(#c1_9)" preserveAspectRatio="none" x="325" y="717" width="260" height="353" xlink:href="img/2.jpg"/>
<image clip-path="url(#c2_9)" preserveAspectRatio="none" x="43" y="43" width="36" height="13" xlink:href="img/3.jpg"/>
<image clip-path="url(#c3_9)" preserveAspectRatio="none" x="515" y="1051" width="61" height="13" xlink:href="img/4.jpg"/>
<path d="M325.6,1104.2h-.8v136.9H584.6V1103.5H324.8v.7h.8v.8H583.1v134.5H326.3V1104.2h-.7v.8Z" class="g0_9"/>
<path d="M369.8,1110.3H539.6v-13.7H369.8Z" class="g1_9"/>
<path d="M606.3,1052.3H866.1V582.4H606.3v469.9Z" class="g2_9"/>
<path d="M606.3,582.4H866.1v27.7H606.3V582.4Z" class="g0_9"/>
<path d="M606.3,610.1H866.1V686H606.3V610.1Zm0,392.4H866.1v49.8H606.3v-49.8Z" class="g3_9"/>
<path d="M606.3,686.4H866.1v-.7H606.3v.7Z" class="g1_9"/>
<path d="M606.3,1002.9H866.1v-.7H606.3v.7Z" class="g1_9"/>
<path d="M625.4,594l-1,-.6c-.2,-.2,-.6,-.2,-.8,.1l-4.7,6.9l-2.1,-2.1c-.3,-.2,-.6,-.2,-.8,0l-.9,.8c-.2,.2,-.2,.6,0,.8l3.4,3.3c.1,.2,.4,.4,.7,.4c.3,0,.5,-.2,.7,-.4l5.7,-8.4c.1,-.3,.1,-.6,-.2,-.8Z" class="g1_9"/>
<path d="M606.3,1241.1H866.1V1067.4H606.3v173.7Z" class="g2_9"/>
<path d="M606.3,1067.4H866.1v26.3H606.3v-26.3Z" class="g0_9"/>
<path d="M606.3,1120.2H793.1v26.5H606.3v-26.5Zm186.8,0h73v26.5h-73v-26.5Zm-186.8,53H793.1v42.5H606.3v-42.5Zm186.8,0h73v42.5h-73v-42.5Z" class="g3_9"/>
<path d="M606.3,1216.5H793.1V1215H606.3Z" class="g1_9"/>
<path d="M793.1,1216.5h73V1215h-73Z" class="g1_9"/>
<path d="M625.4,1077.7l-1,-.7c-.2,-.2,-.6,-.1,-.8,.2l-4.7,6.9l-2.1,-2.2c-.3,-.2,-.6,-.2,-.8,0l-.9,.9c-.2,.2,-.2,.5,0,.8l3.4,3.3c.1,.2,.4,.3,.7,.3c.3,0,.5,-.1,.7,-.4l5.7,-8.3c.1,-.3,.1,-.7,-.2,-.8Z" class="g1_9"/>
<path d="M637.5,187.6H865.3v-1.5H637.5Z" class="g4_9"/>
<path d="M624.1,207.6c9.9,0,17.9,-8,17.9,-17.9c0,-9.8,-8,-17.8,-17.9,-17.8c-9.8,0,-17.8,8,-17.8,17.8c0,9.9,8,17.9,17.8,17.9Z" class="g4_9"/>
<path clip-path="url(#c4_9)" d="M623.2,194c-1.5,.6,-2.9,1.2,-4.4,1.8c-1.9,.7,-3.9,1.3,-5.9,1.3c-.5,0,-1,0,-1.5,-.1c-.7,-.2,-1.3,-.7,-1.6,-1.4c-.7,-1.6,-1.4,-3.1,-2.1,-4.6c-.4,-.9,-.4,-1.5,.1,-1.9c.6,-.5,1.7,-.7,2.4,-.2c.7,.4,1.4,1,2.1,1.5c.1,.1,.3,.2,.4,.3c.5,.5,1.1,.5,1.8,.2c1.4,-.7,2.9,-1.3,4.3,-2l.1,-.1c-1,-.6,-1.9,-1.2,-2.9,-1.8c-.6,-.4,-1.2,-.7,-1.7,-1.1c-.3,-.2,-.6,-.6,-.6,-1c-.1,-.5,.3,-.7,.7,-.9c1.4,-.7,2.7,-.6,4.1,-.2c2.2,.7,4.3,1.3,6.5,2c.3,.1,.7,0,1,-.1c2.4,-1,4.8,-2.1,7.2,-3.1c1.6,-.6,3.4,-.6,5,.1c.5,.2,1,.6,1.4,1c.8,.7,.8,1.4,0,2c-.9,.7,-1.9,1.3,-2.8,1.8c-1.9,1,-3.7,1.8,-5.6,2.8c-.2,.1,-.5,.4,-.6,.7c-1.6,3.3,-3.1,6.5,-4.6,9.8c-.7,1.4,-1.6,2.4,-3.1,2.9c-.8,.3,-1.4,-.3,-1.3,-1.3c.2,-1.3,.5,-2.5,.7,-3.8c.3,-1.5,.6,-3,.9,-4.6m15.6,-9.2c-.6,-.8,-1.3,-1,-2,-1.2c-1.6,-.3,-3,.1,-4.4,.7c-5.9,2.7,-11.8,5.3,-17.7,8c-1,.4,-1.8,.3,-2.6,-.4c-.7,-.6,-1.5,-1.1,-2.3,-1.7c-.2,-.2,-.6,-.2,-.9,-.3l-.1,.2c.7,1.6,1.4,3.2,2.1,4.8c.3,.5,.6,.8,1.2,.9c.6,0,1.2,0,1.8,-.1c3.1,-.5,5.9,-1.7,8.7,-3c.8,-.3,1.5,-.6,2.4,-1c-.7,3.5,-1.3,7,-2,10.5c.9,-.4,1.4,-1.1,1.7,-1.9c1.6,-3.4,3.2,-6.9,4.8,-10.3c.2,-.3,.4,-.5,.7,-.7c1.6,-.8,3.2,-1.5,4.9,-2.4c1.2,-.6,2.4,-1.4,3.7,-2.1m-15.1,2c-2.2,-.7,-4.1,-1.3,-6.1,-1.9c-.7,-.2,-1.5,-.3,-2.2,.2c1.7,1,3.3,2,4.9,3c.1,0,.4,0,.5,-.1c.9,-.3,1.8,-.8,2.9,-1.2Z" class="g5_9"/>
<path d="M43.3,385.7H584.6v-2.3H43.3v2.3Z" class="g6_9"/>
<image clip-path="url(#c5_9)" preserveAspectRatio="none" x="488" y="289" width="98" height="102" xlink:href="img/5.jpg"/>
<image clip-path="url(#c6_9)" preserveAspectRatio="none" x="497" y="289" width="88" height="73" xlink:href="img/6.jpg"/>
<image clip-path="url(#c7_9)" preserveAspectRatio="none" x="497" y="383" width="88" height="3" xlink:href="img/7.jpg"/>
<path d="M513.1,302.3c-10.1,0,-18.3,8.2,-18.3,18.3v64.2h79V320.6c0,-10.1,-8.2,-18.3,-18.3,-18.3Z" class="g1_9"/>
<path d="M494.7,385.7h79.1v-7.2H494.7v7.2Z" class="g6_9"/>
<path d="M500.1,360.7h2.4c.2,0,.3,-.1,.3,-.3c0,-.2,-.1,-.4,-.3,-.4h-2.4c-.2,0,-.3,.2,-.3,.4c0,.2,.1,.3,.3,.3m3.9,0h2.3c.3,0,.4,-.1,.4,-.3c0,-.2,-.1,-.4,-.4,-.4H504c-.2,0,-.4,.2,-.4,.4c0,.2,.2,.3,.4,.3m3.9,0h2.3c.2,0,.4,-.1,.4,-.3c0,-.2,-.2,-.4,-.4,-.4h-2.3c-.2,0,-.4,.2,-.4,.4c0,.2,.2,.3,.4,.3m3.9,0h2.3c.2,0,.4,-.1,.4,-.3c0,-.2,-.2,-.4,-.4,-.4h-2.3c-.2,0,-.4,.2,-.4,.4c0,.2,.2,.3,.4,.3m3.9,0H518c.2,0,.4,-.1,.4,-.3c0,-.2,-.2,-.4,-.4,-.4h-2.3c-.2,0,-.4,.2,-.4,.4c0,.2,.2,.3,.4,.3m3.9,0h2.3c.2,0,.4,-.1,.4,-.3c0,-.2,-.2,-.4,-.4,-.4h-2.3c-.3,0,-.4,.2,-.4,.4c0,.2,.1,.3,.4,.3m3.8,0h2.4c.2,0,.3,-.1,.3,-.3c0,-.2,-.1,-.4,-.3,-.4h-2.4c-.2,0,-.3,.2,-.3,.4c0,.2,.1,.3,.3,.3m3.9,0h2.3c.3,0,.4,-.1,.4,-.3c0,-.2,-.1,-.4,-.4,-.4h-2.3c-.2,0,-.4,.2,-.4,.4c0,.2,.2,.3,.4,.3m3.9,0h2.3c.2,0,.4,-.1,.4,-.3c0,-.2,-.2,-.4,-.4,-.4h-2.3c-.2,0,-.4,.2,-.4,.4c0,.2,.2,.3,.4,.3m3.9,0h2.3c.2,0,.4,-.1,.4,-.3c0,-.2,-.2,-.4,-.4,-.4h-2.3c-.2,0,-.4,.2,-.4,.4c0,.2,.2,.3,.4,.3m3.9,0h2.3c.2,0,.4,-.1,.4,-.3c0,-.2,-.2,-.4,-.4,-.4H539c-.2,0,-.4,.2,-.4,.4c0,.2,.2,.3,.4,.3m3.8,0h2.4c.2,0,.4,-.1,.4,-.3c0,-.2,-.2,-.4,-.4,-.4h-2.4c-.2,0,-.3,.2,-.3,.4c0,.2,.1,.3,.3,.3m3.9,0h2.4c.2,0,.3,-.1,.3,-.3c0,-.2,-.1,-.4,-.3,-.4h-2.4c-.2,0,-.4,.2,-.4,.4c0,.2,.2,.3,.4,.3m3.9,0h2.3c.2,0,.4,-.1,.4,-.3c0,-.2,-.2,-.4,-.4,-.4h-2.3c-.2,0,-.4,.2,-.4,.4c0,.2,.2,.3,.4,.3m3.9,0h2.3c.2,0,.4,-.1,.4,-.3c0,-.2,-.2,-.4,-.4,-.4h-2.3c-.2,0,-.4,.2,-.4,.4c0,.2,.2,.3,.4,.3m3.9,0h2.3c.2,0,.4,-.1,.4,-.3c0,-.2,-.2,-.4,-.4,-.4h-2.3c-.2,0,-.4,.2,-.4,.4c0,.2,.2,.3,.4,.3m3.9,0h2.3c.2,0,.4,-.1,.4,-.3c0,-.2,-.2,-.4,-.4,-.4h-2.3c-.3,0,-.4,.2,-.4,.4c0,.2,.1,.3,.4,.3m3.8,0h2.4c.2,0,.3,-.1,.3,-.3c0,-.2,-.1,-.4,-.3,-.4h-2.4c-.2,0,-.3,.2,-.3,.4c0,.2,.1,.3,.3,.3Z" class="g7_9"/>
<path d="M547.6,324.3h2.2c.2,0,.4,-.1,.4,-.3c0,-.2,-.2,-.4,-.4,-.4h-2.2c-.2,0,-.4,.2,-.4,.4c0,.2,.2,.3,.4,.3m3.7,0h2.3c.2,0,.3,-.1,.3,-.3c0,-.2,-.1,-.4,-.3,-.4h-2.3c-.2,0,-.4,.2,-.4,.4c0,.2,.2,.3,.4,.3m3.7,0h2.3c.2,0,.4,-.1,.4,-.3c0,-.2,-.2,-.4,-.4,-.4H555c-.2,0,-.4,.2,-.4,.4c0,.2,.2,.3,.4,.3m3.7,0H561c.2,0,.4,-.1,.4,-.3c0,-.2,-.2,-.4,-.4,-.4h-2.3c-.2,0,-.3,.2,-.3,.4c0,.2,.1,.3,.3,.3m3.8,0h2.2c.2,0,.4,-.1,.4,-.3c0,-.2,-.2,-.4,-.4,-.4h-2.2c-.2,0,-.4,.2,-.4,.4c0,.2,.2,.3,.4,.3m3.7,0h2.2c.2,0,.4,-.1,.4,-.3c0,-.2,-.2,-.4,-.4,-.4h-2.2c-.2,0,-.4,.2,-.4,.4c0,.2,.2,.3,.4,.3Z" class="g7_9"/>
<path d="M500.2,324.3h2.2c.2,0,.4,-.1,.4,-.3c0,-.2,-.2,-.4,-.4,-.4h-2.2c-.2,0,-.4,.2,-.4,.4c0,.2,.2,.3,.4,.3m3.7,0h2.2c.2,0,.4,-.1,.4,-.3c0,-.2,-.2,-.4,-.4,-.4h-2.2c-.2,0,-.4,.2,-.4,.4c0,.2,.2,.3,.4,.3m3.7,0h2.3c.2,0,.3,-.1,.3,-.3c0,-.2,-.1,-.4,-.3,-.4h-2.3c-.2,0,-.4,.2,-.4,.4c0,.2,.2,.3,.4,.3m3.7,0h2.3c.2,0,.4,-.1,.4,-.3c0,-.2,-.2,-.4,-.4,-.4h-2.3c-.2,0,-.3,.2,-.3,.4c0,.2,.1,.3,.3,.3m3.8,0h2.2c.2,0,.4,-.1,.4,-.3c0,-.2,-.2,-.4,-.4,-.4h-2.2c-.3,0,-.4,.2,-.4,.4c0,.2,.1,.3,.4,.3m3.7,0H521c.2,0,.4,-.1,.4,-.3c0,-.2,-.2,-.4,-.4,-.4h-2.2c-.2,0,-.4,.2,-.4,.4c0,.2,.2,.3,.4,.3Z" class="g7_9"/>
<path d="M525,327v-.8c-1.1,0,-2,.9,-2,2.1v29.3h22.9V328.3c0,-1.2,-.9,-2.1,-2.1,-2.1H525v1.5h18.8c.3,0,.6,.3,.6,.6v27.8H524.5V328.3c0,-.3,.2,-.6,.5,-.6Z" class="g7_9"/>
<path d="M527,321.9v-.3c-.5,0,-1,.4,-1,1v4.6h16.9v-4.6c0,-.6,-.5,-1,-1,-1H527v.7h14.9c.1,0,.3,.1,.3,.3v3.9H526.7v-3.9c0,-.2,.1,-.3,.3,-.3Z" class="g7_9"/>
<path d="M531.9,349h-.4v7.7l.1,.2l.3,.1h5.2l.2,-.1l.1,-.2V349l-.1,-.2l-.2,-.1h-5.2l-.3,.1l-.1,.2h.4v.4h4.8v6.9h-4.5V349h-.3v.4Z" class="g7_9"/>
<path d="M538.8,349h-.4v4.1l.1,.3l.3,.1h4.1l.3,-.1l.1,-.3V349l-.1,-.2l-.3,-.1h-4.1l-.3,.1l-.1,.2h.4v.4h3.8v3.4h-3.4V349h-.4v.4Z" class="g7_9"/>
<path d="M526,349h-.4v4.1l.1,.3l.3,.1h4.1l.3,-.1l.1,-.3V349l-.1,-.2l-.3,-.1H526l-.3,.1l-.1,.2h.4v.4h3.8v3.4h-3.4V349H526v.4Z" class="g7_9"/>
<path d="M534.1,353h.8v-1h-.8v1Z" class="g7_9"/>
<path d="M538.8,342.7h-.4v4.1l.1,.3l.3,.1h4.1l.3,-.1l.1,-.3v-4.1l-.1,-.2l-.3,-.2h-4.1l-.3,.2l-.1,.2h.4v.4h3.8v3.3h-3.4v-3.7h-.4v.4Z" class="g7_9"/>
<path d="M532.4,342.7H532v4.1l.1,.3l.3,.1h4.1l.3,-.1l.1,-.3v-4.1l-.1,-.2l-.3,-.2h-4.1l-.3,.2l-.1,.2h.4v.4h3.8v3.3h-3.4v-3.7h-.4v.4Z" class="g7_9"/>
<path d="M526,342.7h-.4v4.1l.1,.3l.3,.1h4.1l.3,-.1l.1,-.3v-4.1l-.1,-.2l-.3,-.2H526l-.3,.2l-.1,.2h.4v.4h3.8v3.3h-3.4v-3.7H526v.4Z" class="g7_9"/>
<path d="M538.8,336.4h-.4v4.1l.1,.3l.3,.1h4.1l.3,-.1l.1,-.3v-4.1l-.1,-.3l-.3,-.1h-4.1l-.3,.1l-.1,.3h.4v.4h3.8v3.3h-3.4v-3.7h-.4v.4Z" class="g7_9"/>
<path d="M532.4,336.4H532v4.1l.1,.3l.3,.1h4.1l.3,-.1l.1,-.3v-4.1l-.1,-.3l-.3,-.1h-4.1l-.3,.1l-.1,.3h.4v.4h3.8v3.3h-3.4v-3.7h-.4v.4Z" class="g7_9"/>
<path d="M526,336.4h-.4v4.1l.1,.3l.3,.1h4.1l.3,-.1l.1,-.3v-4.1l-.1,-.3l-.3,-.1H526l-.3,.1l-.1,.3h.4v.4h3.8v3.3h-3.4v-3.7H526v.4Z" class="g7_9"/>
<path d="M538.8,330.1h-.4v4.1l.1,.3l.3,.1h4.1l.3,-.1l.1,-.3v-4.1l-.1,-.3l-.3,-.1h-4.1l-.3,.1l-.1,.3h.4v.4h3.8v3.3h-3.4v-3.7h-.4v.4Z" class="g7_9"/>
<path d="M532.4,330.1H532v4.1l.1,.3l.3,.1h4.1l.3,-.1l.1,-.3v-4.1l-.1,-.3l-.3,-.1h-4.1l-.3,.1l-.1,.3h.4v.4h3.8v3.3h-3.4v-3.7h-.4v.4Z" class="g7_9"/>
<path d="M526,330.1h-.4v4.1l.1,.3l.3,.1h4.1l.3,-.1l.1,-.3v-4.1l-.1,-.3l-.3,-.1H526l-.3,.1l-.1,.3h.4v.4h3.8v3.3h-3.4v-3.7H526v.4Z" class="g7_9"/>
<path d="M529.6,323l-.2,-.1l-.5,.7l-.8,.2l-.2,.1l.1,.3l.5,.6v.8l.1,.3h.2l.8,-.3l.7,.3h.3l.1,-.3l-.1,-.8l.5,-.6l.1,-.3l-.2,-.1l-.8,-.2l-.4,-.7l-.2,-.1l-.2,.1l.2,.1l-.2,.1l.5,.8l.1,.1l.5,.2l-.3,.4l-.1,.1l.1,.6l-.6,-.2h-.1l-.5,.2v-.6l-.1,-.1l-.3,-.4l.5,-.2l.2,-.1l.5,-.8l-.2,-.1l-.2,.1Z" class="g7_9"/>
<path d="M534.4,323l-.2,-.1l-.4,.7l-.8,.2l-.2,.1l.1,.3l.5,.6l-.1,.8l.1,.3h.3l.7,-.3l.8,.3h.2l.1,-.3v-.8l.5,-.6l.1,-.3l-.2,-.1l-.8,-.2l-.5,-.7l-.2,-.1l-.2,.1l.2,.1l-.2,.1l.5,.8l.2,.1l.5,.2l-.3,.4l-.1,.1v.6l-.5,-.2h-.2l-.5,.2l.1,-.6l-.1,-.1l-.3,-.4l.5,-.2l.1,-.1l.5,-.8l-.2,-.1l-.2,.1Z" class="g7_9"/>
<path d="M539.3,323l-.2,-.1l-.4,.7l-.8,.2l-.2,.1v.3l.6,.6l-.1,.8l.1,.3h.2l.8,-.3l.8,.3h.2l.1,-.3l-.1,-.8l.6,-.6v-.3l-.1,-.1l-.9,-.2l-.4,-.7l-.2,-.1l-.2,.1l.2,.1l-.2,.1l.5,.8l.1,.1l.6,.2l-.4,.4v.7l-.5,-.2h-.2l-.5,.2v-.7l-.4,-.4l.6,-.2l.1,-.1l.5,-.8l-.2,-.1l-.2,.1Z" class="g7_9"/>
<path d="M522,357.9h24.6c.5,0,1,-.4,1,-.9c0,-.5,-.5,-.9,-1,-.9H522c-.5,0,-.9,.4,-.9,.9c0,.5,.4,.9,.9,.9Z" class="g7_9"/>
<path d="M534.3,349v7.3h.3V349Z" class="g7_9"/>
<image clip-path="url(#c8_9)" preserveAspectRatio="none" x="400" y="361" width="89" height="30" xlink:href="img/8.jpg"/>
<image clip-path="url(#c9_9)" preserveAspectRatio="none" x="409" y="289" width="89" height="73" xlink:href="img/9.jpg"/>
<image clip-path="url(#ca_9)" preserveAspectRatio="none" x="409" y="383" width="80" height="3" xlink:href="img/10.jpg"/>
<image clip-path="url(#cb_9)" preserveAspectRatio="none" x="487" y="361" width="11" height="31" xlink:href="img/11.jpg"/>
<image clip-path="url(#cc_9)" preserveAspectRatio="none" x="488" y="289" width="10" height="73" xlink:href="img/12.jpg"/>
<image clip-path="url(#cd_9)" preserveAspectRatio="none" x="487" y="383" width="11" height="3" xlink:href="img/13.jpg"/>
<image clip-path="url(#ce_9)" preserveAspectRatio="none" x="494" y="311" width="4" height="68" xlink:href="img/14.jpg"/>
<image clip-path="url(#cf_9)" preserveAspectRatio="none" x="494" y="378" width="4" height="8" xlink:href="img/15.jpg"/>
<path d="M425.2,302.3c-10.1,0,-18.3,8.2,-18.3,18.3v64.2h79V320.6c0,-10.1,-8.2,-18.3,-18.4,-18.3Z" class="g1_9"/>
<path d="M406.8,385.7h79.1v-7.2H406.8v7.2Z" class="g6_9"/>
<path d="M413,328.5h2.2c.2,0,.4,-.2,.4,-.4c0,-.2,-.2,-.4,-.4,-.4H413c-.2,0,-.4,.2,-.4,.4c0,.2,.2,.4,.4,.4m3.6,0h2.1c.2,0,.4,-.2,.4,-.4c0,-.2,-.2,-.4,-.4,-.4h-2.1c-.2,0,-.4,.2,-.4,.4c0,.2,.2,.4,.4,.4m3.5,0h2.2c.2,0,.4,-.2,.4,-.4c0,-.2,-.2,-.4,-.4,-.4h-2.2c-.2,0,-.4,.2,-.4,.4c0,.2,.2,.4,.4,.4m3.6,0h2.1c.2,0,.4,-.2,.4,-.4c0,-.2,-.2,-.4,-.4,-.4h-2.1c-.2,0,-.4,.2,-.4,.4c0,.2,.2,.4,.4,.4m3.5,0h2.2c.2,0,.4,-.2,.4,-.4c0,-.2,-.2,-.4,-.4,-.4h-2.2c-.2,0,-.4,.2,-.4,.4c0,.2,.2,.4,.4,.4m3.6,0h2.1c.3,0,.4,-.2,.4,-.4c0,-.2,-.1,-.4,-.4,-.4h-2.1c-.2,0,-.4,.2,-.4,.4c0,.2,.2,.4,.4,.4m3.5,0h2.2c.2,0,.4,-.2,.4,-.4c0,-.2,-.2,-.4,-.4,-.4h-2.2c-.2,0,-.3,.2,-.3,.4c0,.2,.1,.4,.3,.4Z" class="g8_9"/>
<path d="M413,360.7h2.3c.3,0,.4,-.1,.4,-.3c0,-.2,-.1,-.4,-.4,-.4H413c-.2,0,-.4,.2,-.4,.4c0,.2,.2,.3,.4,.3m3.9,0h2.3c.2,0,.4,-.1,.4,-.3c0,-.2,-.2,-.4,-.4,-.4h-2.3c-.2,0,-.4,.2,-.4,.4c0,.2,.2,.3,.4,.3m3.9,0h2.3c.2,0,.4,-.1,.4,-.3c0,-.2,-.2,-.4,-.4,-.4h-2.3c-.2,0,-.4,.2,-.4,.4c0,.2,.2,.3,.4,.3m3.9,0H427c.2,0,.4,-.1,.4,-.3c0,-.2,-.2,-.4,-.4,-.4h-2.3c-.2,0,-.4,.2,-.4,.4c0,.2,.2,.3,.4,.3m3.8,0h2.4c.2,0,.3,-.1,.3,-.3c0,-.2,-.1,-.4,-.3,-.4h-2.4c-.2,0,-.3,.2,-.3,.4c0,.2,.1,.3,.3,.3m3.9,0h2.3c.3,0,.4,-.1,.4,-.3c0,-.2,-.1,-.4,-.4,-.4h-2.3c-.2,0,-.4,.2,-.4,.4c0,.2,.2,.3,.4,.3m3.9,0h2.3c.2,0,.4,-.1,.4,-.3c0,-.2,-.2,-.4,-.4,-.4h-2.3c-.2,0,-.4,.2,-.4,.4c0,.2,.2,.3,.4,.3m3.9,0h2.3c.2,0,.4,-.1,.4,-.3c0,-.2,-.2,-.4,-.4,-.4h-2.3c-.2,0,-.4,.2,-.4,.4c0,.2,.2,.3,.4,.3m3.9,0h2.3c.2,0,.4,-.1,.4,-.3c0,-.2,-.2,-.4,-.4,-.4h-2.3c-.2,0,-.4,.2,-.4,.4c0,.2,.2,.3,.4,.3m3.9,0h2.3c.2,0,.4,-.1,.4,-.3c0,-.2,-.2,-.4,-.4,-.4H448c-.3,0,-.4,.2,-.4,.4c0,.2,.1,.3,.4,.3m3.8,0h2.4c.2,0,.3,-.1,.3,-.3c0,-.2,-.1,-.4,-.3,-.4h-2.4c-.2,0,-.3,.2,-.3,.4c0,.2,.1,.3,.3,.3m3.9,0H458c.3,0,.4,-.1,.4,-.3c0,-.2,-.1,-.4,-.4,-.4h-2.3c-.2,0,-.4,.2,-.4,.4c0,.2,.2,.3,.4,.3m3.9,0h2.3c.2,0,.4,-.1,.4,-.3c0,-.2,-.2,-.4,-.4,-.4h-2.3c-.2,0,-.4,.2,-.4,.4c0,.2,.2,.3,.4,.3m3.9,0h2.3c.2,0,.4,-.1,.4,-.3c0,-.2,-.2,-.4,-.4,-.4h-2.3c-.2,0,-.4,.2,-.4,.4c0,.2,.2,.3,.4,.3m3.9,0h2.3c.2,0,.4,-.1,.4,-.3c0,-.2,-.2,-.4,-.4,-.4h-2.3c-.2,0,-.4,.2,-.4,.4c0,.2,.2,.3,.4,.3m3.8,0h2.4c.2,0,.4,-.1,.4,-.3c0,-.2,-.2,-.4,-.4,-.4h-2.4c-.2,0,-.3,.2,-.3,.4c0,.2,.1,.3,.3,.3m3.9,0h2.4c.2,0,.3,-.1,.3,-.3c0,-.2,-.1,-.4,-.3,-.4h-2.4c-.2,0,-.4,.2,-.4,.4c0,.2,.2,.3,.4,.3m3.9,0h2.3c.2,0,.4,-.1,.4,-.3c0,-.2,-.2,-.4,-.4,-.4H479c-.2,0,-.4,.2,-.4,.4c0,.2,.2,.3,.4,.3Z" class="g8_9"/>
<path d="M459.8,328.5h2.3c.2,0,.4,-.2,.4,-.4c0,-.2,-.2,-.4,-.4,-.4h-2.3c-.2,0,-.4,.2,-.4,.4c0,.2,.2,.4,.4,.4m3.8,0h2.3c.3,0,.4,-.2,.4,-.4c0,-.2,-.1,-.4,-.4,-.4h-2.3c-.2,0,-.3,.2,-.3,.4c0,.2,.1,.4,.3,.4m3.9,0h2.3c.2,0,.4,-.2,.4,-.4c0,-.2,-.2,-.4,-.4,-.4h-2.3c-.2,0,-.4,.2,-.4,.4c0,.2,.2,.4,.4,.4m3.8,0h2.3c.3,0,.4,-.2,.4,-.4c0,-.2,-.1,-.4,-.4,-.4h-2.3c-.2,0,-.3,.2,-.3,.4c0,.2,.1,.4,.3,.4m3.9,0h2.3c.2,0,.4,-.2,.4,-.4c0,-.2,-.2,-.4,-.4,-.4h-2.3c-.2,0,-.4,.2,-.4,.4c0,.2,.2,.4,.4,.4m3.8,0h2.3c.2,0,.4,-.2,.4,-.4c0,-.2,-.2,-.4,-.4,-.4H479c-.2,0,-.4,.2,-.4,.4c0,.2,.2,.4,.4,.4Z" class="g8_9"/>
<path d="M456.4,340.2c0,3.3,-.1,6.7,0,10.1c0,3.1,-1.4,5.4,-4.5,6.7c-3.3,1.5,-6.5,1.2,-9.6,-.6c-.4,-.3,-.8,-.6,-1.1,-.9c-.1,-.2,-.1,-.7,.1,-.9c.1,-.2,.7,-.1,1,-.1c.2,.1,.4,.3,.6,.5c3.1,2.3,8,2,10.5,-.7c1.1,-1.1,1.4,-2.4,1.4,-3.9c0,-6.8,0,-13.6,0,-20.4c.1,-2.4,-1,-4.3,-3.5,-5.5c-2.6,-1.2,-5.3,-1,-7.8,.4c-.4,.2,-.7,.4,-1,.7c-.4,.3,-.9,.4,-1.2,0c-.1,-.3,0,-.8,.2,-1.1c1.2,-1,2.6,-1.6,4.1,-1.9c4.8,-1,9.6,1.5,10.6,5.5c.1,.5,.1,1.1,.2,1.6c0,3.5,0,7,0,10.5Z" class="g8_9"/>
<path d="M441.3,332.3c-1.7,-.3,-2.3,-1.4,-1.5,-3c.4,-1,1.3,-1.5,2.3,-1.8c1.6,-.5,3.2,-.6,4.8,-.1c2,.6,3.1,2.5,3,4.5c-.2,2,-1.8,3.7,-3.7,3.9c-2.1,.2,-4,-.9,-4.7,-2.8c-.1,-.2,-.1,-.5,-.2,-.7m7.1,0c-1.4,-.5,-1.6,-.6,-2.3,-1.9c-.1,-.2,-.3,-.5,-.5,-.8c-.6,-.9,-1.3,-1,-2.1,-.2c-.9,.9,-1.1,2.2,-.7,3.3c.5,1.1,1.6,1.8,2.8,1.7c1.3,0,2.3,-.7,2.8,-2.1m0,-1.6c.2,-1,-1.7,-1.7,-1.7,-1.7c.4,1.8,1.7,2.2,1.7,1.7M442,329c-1.9,.8,-.9,2.2,-.8,1.9c0,0,.2,-1.2,.8,-1.9Z" class="g8_9"/>
<path d="M441.3,341.6c-1.7,-.3,-2.3,-1.4,-1.5,-3c.4,-1,1.3,-1.5,2.3,-1.8c1.6,-.5,3.2,-.5,4.8,0c2,.6,3.1,2.4,3,4.5c-.2,1.9,-1.8,3.6,-3.7,3.8c-2.1,.3,-4,-.8,-4.7,-2.8c-.1,-.2,-.1,-.4,-.2,-.7m7.1,0c-1.4,-.4,-1.6,-.6,-2.3,-1.8c-.1,-.3,-.3,-.6,-.5,-.9c-.6,-.9,-1.3,-1,-2.1,-.2c-.9,.9,-1.1,2.2,-.7,3.3c.5,1.1,1.6,1.8,2.8,1.8c1.3,-.1,2.3,-.8,2.8,-2.2m0,-1.6c.2,-1,-1.7,-1.6,-1.7,-1.6c.4,1.7,1.7,2.2,1.7,1.6M442,338.3c-1.9,.8,-.9,2.3,-.8,1.9c0,0,.2,-1.2,.8,-1.9Z" class="g8_9"/>
<path d="M441.3,350.7c-1.7,-.3,-2.3,-1.4,-1.5,-3c.4,-1,1.3,-1.5,2.3,-1.8c1.6,-.5,3.2,-.5,4.8,0c2,.6,3.1,2.4,3,4.5c-.2,1.9,-1.8,3.6,-3.7,3.8c-2.1,.3,-4,-.8,-4.7,-2.8c-.1,-.2,-.1,-.4,-.2,-.7m7.1,0c-1.4,-.4,-1.6,-.6,-2.3,-1.8c-.1,-.3,-.3,-.6,-.5,-.9c-.6,-.9,-1.3,-1,-2.1,-.2c-.9,.9,-1.1,2.2,-.7,3.3c.5,1.1,1.6,1.8,2.8,1.8c1.3,-.1,2.3,-.8,2.8,-2.2m0,-1.6c.2,-1,-1.7,-1.6,-1.7,-1.6c.4,1.7,1.7,2.2,1.7,1.6M442,347.4c-1.9,.8,-.9,2.3,-.8,1.9c0,0,.2,-1.2,.8,-1.9Z" class="g8_9"/>
<path d="M437.4,345.2l-5.2,-5.5c-.3,-.3,-.7,-.3,-.9,0c-.3,.2,-.3,.6,0,.8l5.2,5.6c.3,.2,.7,.2,.9,0c.3,-.2,.3,-.6,0,-.9Z" class="g8_9"/>
<path d="M437.4,352.9l-5.2,5.5c-.3,.2,-.7,.3,-.9,0c-.3,-.2,-.3,-.6,0,-.9l5.2,-5.5c.3,-.3,.7,-.3,.9,0c.3,.2,.3,.6,0,.9Z" class="g8_9"/>
<path d="M436.2,347.2L429,345.8c-.4,-.1,-.7,.2,-.7,.5c-.1,.3,.1,.7,.4,.7l7.3,1.4c.3,.1,.7,-.1,.7,-.5c.1,-.3,-.1,-.6,-.5,-.7Z" class="g8_9"/>
<path d="M436.2,350.9l-7.2,1.4c-.4,0,-.7,-.2,-.7,-.5c-.1,-.4,.1,-.7,.4,-.8l7.3,-1.4c.3,0,.7,.2,.7,.5c.1,.4,-.1,.7,-.5,.8Z" class="g8_9"/>
<image clip-path="url(#cg_9)" preserveAspectRatio="none" x="312" y="361" width="89" height="30" xlink:href="img/16.jpg"/>
<image clip-path="url(#ch_9)" preserveAspectRatio="none" x="312" y="289" width="98" height="73" xlink:href="img/17.jpg"/>
<image clip-path="url(#ci_9)" preserveAspectRatio="none" x="312" y="383" width="89" height="3" xlink:href="img/18.jpg"/>
<image clip-path="url(#cj_9)" preserveAspectRatio="none" x="399" y="361" width="11" height="31" xlink:href="img/19.jpg"/>
<image clip-path="url(#ck_9)" preserveAspectRatio="none" x="400" y="289" width="10" height="73" xlink:href="img/20.jpg"/>
<image clip-path="url(#cl_9)" preserveAspectRatio="none" x="399" y="383" width="11" height="3" xlink:href="img/21.jpg"/>
<image clip-path="url(#cm_9)" preserveAspectRatio="none" x="406" y="311" width="4" height="68" xlink:href="img/22.jpg"/>
<image clip-path="url(#cn_9)" preserveAspectRatio="none" x="406" y="378" width="4" height="8" xlink:href="img/23.jpg"/>
<path d="M337.2,302.3c-10.1,0,-18.3,8.2,-18.3,18.3v64.2h79V320.6c0,-10.1,-8.2,-18.3,-18.3,-18.3Z" class="g1_9"/>
<path d="M318.8,385.7h79.1v-7.2H318.8v7.2Z" class="g6_9"/>
<path d="M325.1,360.7h2.3c.2,0,.4,-.1,.4,-.3c0,-.2,-.2,-.4,-.4,-.4h-2.3c-.3,0,-.4,.2,-.4,.4c0,.2,.1,.3,.4,.3m3.8,0h2.4c.2,0,.3,-.1,.3,-.3c0,-.2,-.1,-.4,-.3,-.4h-2.4c-.2,0,-.3,.2,-.3,.4c0,.2,.1,.3,.3,.3m3.9,0h2.3c.3,0,.4,-.1,.4,-.3c0,-.2,-.1,-.4,-.4,-.4h-2.3c-.2,0,-.4,.2,-.4,.4c0,.2,.2,.3,.4,.3m3.9,0H339c.2,0,.4,-.1,.4,-.3c0,-.2,-.2,-.4,-.4,-.4h-2.3c-.2,0,-.4,.2,-.4,.4c0,.2,.2,.3,.4,.3m3.9,0h2.3c.2,0,.4,-.1,.4,-.3c0,-.2,-.2,-.4,-.4,-.4h-2.3c-.2,0,-.4,.2,-.4,.4c0,.2,.2,.3,.4,.3m3.9,0h2.3c.2,0,.4,-.1,.4,-.3c0,-.2,-.2,-.4,-.4,-.4h-2.3c-.2,0,-.4,.2,-.4,.4c0,.2,.2,.3,.4,.3m3.9,0h2.3c.2,0,.4,-.1,.4,-.3c0,-.2,-.2,-.4,-.4,-.4h-2.3c-.3,0,-.4,.2,-.4,.4c0,.2,.1,.3,.4,.3m3.8,0h2.4c.2,0,.3,-.1,.3,-.3c0,-.2,-.1,-.4,-.3,-.4h-2.4c-.2,0,-.3,.2,-.3,.4c0,.2,.1,.3,.3,.3m3.9,0h2.3c.3,0,.4,-.1,.4,-.3c0,-.2,-.1,-.4,-.4,-.4h-2.3c-.2,0,-.4,.2,-.4,.4c0,.2,.2,.3,.4,.3m3.9,0h2.3c.2,0,.4,-.1,.4,-.3c0,-.2,-.2,-.4,-.4,-.4H360c-.2,0,-.4,.2,-.4,.4c0,.2,.2,.3,.4,.3m3.9,0h2.3c.2,0,.4,-.1,.4,-.3c0,-.2,-.2,-.4,-.4,-.4h-2.3c-.2,0,-.4,.2,-.4,.4c0,.2,.2,.3,.4,.3m3.9,0h2.3c.2,0,.4,-.1,.4,-.3c0,-.2,-.2,-.4,-.4,-.4h-2.3c-.2,0,-.4,.2,-.4,.4c0,.2,.2,.3,.4,.3m3.8,0H374c.2,0,.3,-.1,.3,-.3c0,-.2,-.1,-.4,-.3,-.4h-2.4c-.2,0,-.3,.2,-.3,.4c0,.2,.1,.3,.3,.3m3.9,0h2.3c.3,0,.4,-.1,.4,-.3c0,-.2,-.1,-.4,-.4,-.4h-2.3c-.2,0,-.4,.2,-.4,.4c0,.2,.2,.3,.4,.3m3.9,0h2.3c.2,0,.4,-.1,.4,-.3c0,-.2,-.2,-.4,-.4,-.4h-2.3c-.2,0,-.4,.2,-.4,.4c0,.2,.2,.3,.4,.3m3.9,0h2.3c.2,0,.4,-.1,.4,-.3c0,-.2,-.2,-.4,-.4,-.4h-2.3c-.2,0,-.4,.2,-.4,.4c0,.2,.2,.3,.4,.3m3.9,0h2.3c.2,0,.4,-.1,.4,-.3c0,-.2,-.2,-.4,-.4,-.4h-2.3c-.2,0,-.4,.2,-.4,.4c0,.2,.2,.3,.4,.3m3.9,0h2.3c.2,0,.4,-.1,.4,-.3c0,-.2,-.2,-.4,-.4,-.4h-2.3c-.3,0,-.4,.2,-.4,.4c0,.2,.1,.3,.4,.3Z" class="g4_9"/>
<path d="M325.1,328.5h2.4c.2,0,.3,-.2,.3,-.4c0,-.2,-.1,-.4,-.3,-.4h-2.4c-.2,0,-.4,.2,-.4,.4c0,.2,.2,.4,.4,.4m3.9,0h2.3c.2,0,.4,-.2,.4,-.4c0,-.2,-.2,-.4,-.4,-.4H329c-.2,0,-.4,.2,-.4,.4c0,.2,.2,.4,.4,.4m3.9,0h2.3c.2,0,.4,-.2,.4,-.4c0,-.2,-.2,-.4,-.4,-.4h-2.3c-.2,0,-.4,.2,-.4,.4c0,.2,.2,.4,.4,.4m3.9,0h2.3c.2,0,.4,-.2,.4,-.4c0,-.2,-.2,-.4,-.4,-.4h-2.3c-.2,0,-.4,.2,-.4,.4c0,.2,.2,.4,.4,.4m3.8,0H343c.2,0,.3,-.2,.3,-.4c0,-.2,-.1,-.4,-.3,-.4h-2.4c-.2,0,-.3,.2,-.3,.4c0,.2,.1,.4,.3,.4m3.9,0h2.3c.3,0,.4,-.2,.4,-.4c0,-.2,-.1,-.4,-.4,-.4h-2.3c-.2,0,-.4,.2,-.4,.4c0,.2,.2,.4,.4,.4m3.9,0h2.3c.2,0,.4,-.2,.4,-.4c0,-.2,-.2,-.4,-.4,-.4h-2.3c-.2,0,-.4,.2,-.4,.4c0,.2,.2,.4,.4,.4m3.9,0h2.3c.2,0,.4,-.2,.4,-.4c0,-.2,-.2,-.4,-.4,-.4h-2.3c-.2,0,-.4,.2,-.4,.4c0,.2,.2,.4,.4,.4m3.9,0h2.3c.2,0,.4,-.2,.4,-.4c0,-.2,-.2,-.4,-.4,-.4h-2.3c-.3,0,-.4,.2,-.4,.4c0,.2,.1,.4,.4,.4m3.8,0h2.4c.2,0,.3,-.2,.3,-.4c0,-.2,-.1,-.4,-.3,-.4H360c-.2,0,-.3,.2,-.3,.4c0,.2,.1,.4,.3,.4m3.9,0h2.3c.2,0,.4,-.2,.4,-.4c0,-.2,-.2,-.4,-.4,-.4h-2.3c-.2,0,-.4,.2,-.4,.4c0,.2,.2,.4,.4,.4m3.9,0h2.3c.2,0,.4,-.2,.4,-.4c0,-.2,-.2,-.4,-.4,-.4h-2.3c-.2,0,-.4,.2,-.4,.4c0,.2,.2,.4,.4,.4m3.9,0H374c.2,0,.4,-.2,.4,-.4c0,-.2,-.2,-.4,-.4,-.4h-2.3c-.2,0,-.4,.2,-.4,.4c0,.2,.2,.4,.4,.4m3.8,0h2.4c.2,0,.3,-.2,.3,-.4c0,-.2,-.1,-.4,-.3,-.4h-2.4c-.2,0,-.3,.2,-.3,.4c0,.2,.1,.4,.3,.4m3.9,0h2.3c.3,0,.4,-.2,.4,-.4c0,-.2,-.1,-.4,-.4,-.4h-2.3c-.2,0,-.4,.2,-.4,.4c0,.2,.2,.4,.4,.4m3.9,0h2.3c.2,0,.4,-.2,.4,-.4c0,-.2,-.2,-.4,-.4,-.4h-2.3c-.2,0,-.4,.2,-.4,.4c0,.2,.2,.4,.4,.4m3.9,0h2.3c.2,0,.4,-.2,.4,-.4c0,-.2,-.2,-.4,-.4,-.4h-2.3c-.2,0,-.4,.2,-.4,.4c0,.2,.2,.4,.4,.4m3.9,0h2.3c.2,0,.4,-.2,.4,-.4c0,-.2,-.2,-.4,-.4,-.4h-2.3c-.3,0,-.4,.2,-.4,.4c0,.2,.1,.4,.4,.4Z" class="g4_9"/>
<path d="M358.4,345.3c-1.9,.7,-3.7,1.5,-5.5,2.2c-2.4,.9,-4.8,1.6,-7.4,1.7c-.6,0,-1.2,-.1,-1.8,-.2c-.9,-.3,-1.6,-.8,-2,-1.8c-.9,-1.9,-1.7,-3.8,-2.6,-5.7c-.5,-1.1,-.4,-1.8,.1,-2.3c.7,-.7,2.1,-.9,2.9,-.3c1,.6,1.8,1.2,2.7,1.9c.2,.1,.4,.2,.5,.4c.7,.6,1.4,.7,2.2,.2c1.8,-.8,3.6,-1.6,5.4,-2.4l.2,-.2c-1.3,-.7,-2.5,-1.5,-3.7,-2.2c-.7,-.5,-1.5,-.8,-2.1,-1.4c-.4,-.3,-.7,-.8,-.8,-1.2c-.1,-.6,.5,-.9,1,-1.2c1.6,-.8,3.3,-.7,5,-.2c2.7,.8,5.4,1.7,8.1,2.5c.4,.1,.9,0,1.3,-.1c3,-1.3,5.9,-2.7,8.9,-3.9c2.1,-.8,4.2,-.8,6.3,.1c.6,.3,1.2,.7,1.7,1.2c1,.9,1,1.8,0,2.6c-1.1,.8,-2.3,1.5,-3.5,2.2c-2.3,1.2,-4.6,2.3,-6.9,3.5c-.3,.2,-.7,.5,-.9,.8c-1.9,4.1,-3.8,8.2,-5.6,12.3c-.8,1.7,-2.1,3,-3.9,3.6c-1,.3,-1.8,-.4,-1.6,-1.6c.3,-1.6,.6,-3.2,.9,-4.8c.4,-1.9,.7,-3.8,1.1,-5.7m19.5,-11.5c-.8,-.9,-1.7,-1.2,-2.6,-1.4c-1.9,-.4,-3.7,.1,-5.5,.9c-7.3,3.2,-14.7,6.5,-22,9.8c-1.2,.6,-2.2,.4,-3.2,-.4c-.9,-.7,-1.9,-1.5,-2.9,-2.1c-.3,-.2,-.7,-.3,-1.1,-.4l-.2,.2c.9,2,1.8,4,2.7,6c.3,.7,.8,1,1.5,1.1c.7,0,1.5,0,2.2,-.1c3.9,-.6,7.3,-2.1,10.9,-3.7c.9,-.4,1.8,-.8,2.9,-1.3c-.8,4.4,-1.6,8.7,-2.5,13.1c1.2,-.5,1.8,-1.4,2.2,-2.3c2,-4.3,4,-8.6,6,-12.9c.1,-.3,.4,-.6,.8,-.8c2,-1,4,-2,6,-3c1.6,-.9,3.1,-1.8,4.8,-2.7M359,336.3c-2.7,-.8,-5.2,-1.6,-7.6,-2.3c-.9,-.2,-1.8,-.4,-2.7,.2c2,1.3,4.1,2.5,6.1,3.7c.1,.1,.4,0,.6,0c1.1,-.5,2.3,-1,3.6,-1.6Z" class="g4_9"/>
<path d="M606.3,548.9H866.1v-1.5H606.3Z" class="g9_9"/>
<path d="M736.4,376V352.1h-.8V376Z" class="g1_9"/>
<path d="M866.1,376V352.1h-.7V376Z" class="g1_9"/>
<path d="M736.4,399.8V376h-.8v23.8Z" class="g1_9"/>
<path d="M866.1,399.8V376h-.7v23.8Z" class="g1_9"/>
<path d="M736.4,423.7V399.8h-.8v23.9Z" class="g1_9"/>
<path d="M866.1,423.7V399.8h-.7v23.9Z" class="g1_9"/>
<path d="M736.4,447.6V423.7h-.8v23.9Z" class="g1_9"/>
<path d="M866.1,447.6V423.7h-.7v23.9Z" class="g1_9"/>
<path d="M736.4,471.4V447.6h-.8v23.8Z" class="g1_9"/>
<path d="M866.1,471.4V447.6h-.7v23.8Z" class="g1_9"/>
<path d="M736.4,495.3V471.4h-.8v23.9Z" class="g1_9"/>
<path d="M866.1,495.3V471.4h-.7v23.9Z" class="g1_9"/>
<path d="M736.4,519.2V495.3h-.8v23.9Z" class="g1_9"/>
<path d="M866.1,519.2V495.3h-.7v23.9Z" class="g1_9"/>
<path d="M736.4,543V519.2h-.8V543Z" class="g1_9"/>
<path d="M866.1,543V519.2h-.7V543Z" class="g1_9"/>
<path d="M0,0V1286.2Z" class="g1_9"/>
<path d="M0,1286.2H19.5V0H0V1286.2Z" class="g1_9"/>
</svg>