<?xml version="1.0" encoding="UTF-8" standalone="no"?>
<!DOCTYPE svg PUBLIC "-//W3C//DTD SVG 1.1//EN"
"http://www.w3.org/Graphics/SVG/1.1/DTD/svg11.dtd">
<svg viewBox="0 0 909 1286" version="1.1" xmlns="http://www.w3.org/2000/svg" xmlns:xlink="http://www.w3.org/1999/xlink">
<defs>
<clipPath id="c0_33"><path d="M92.1,55.4V42.2H42.6V55.4ZM0,145.9V0H159.6V145.9Z"/></clipPath>
<clipPath id="c1_33"><path d="M159.2,145.9V0H319.1V145.9Z"/></clipPath>
<clipPath id="c2_33"><path d="M318.8,145.9V0H478.6V145.9Z"/></clipPath>
<clipPath id="c3_33"><path d="M478.3,243.2V0H584.6V243.2Z"/></clipPath>
<clipPath id="c4_33"><path d="M0,291.8V145.6H159.6V268H135.5v23.8Z"/></clipPath>
<clipPath id="c5_33"><path d="M159.2,268V145.6H319.1V268Z"/></clipPath>
<clipPath id="c6_33"><path d="M318.8,268V145.6H478.6V268Z"/></clipPath>
<clipPath id="c7_33"><path d="M478.3,268V242.9H584.6V268Z"/></clipPath>
<clipPath id="c8_33"><path d="M0,340.2V291.5H135.5v48.7Z"/></clipPath>
<clipPath id="c9_33"><path d="M42.6,55.4V42.2H92.1V55.4Z"/></clipPath>
<clipPath id="ca_33"><path d="M135.5,369.2V364h88.1v5.2Zm0,-7.5V340.2h88.1v21.5Z"/></clipPath>
<clipPath id="cb_33"><path d="M135.5,340.2V268h88.1v72.2Z"/></clipPath>
<clipPath id="cc_33"><path d="M135.5,364v-2.3h88.1V364Z"/></clipPath>
<clipPath id="cd_33"><path d="M232.8,369.2V364h78.9v5.2Zm0,-7.5V340.2h78.9v21.5Z"/></clipPath>
<clipPath id="ce_33"><path d="M232.8,340.2V268h78.9v72.2Z"/></clipPath>
<clipPath id="cf_33"><path d="M232.8,364v-2.3h78.9V364Z"/></clipPath>
<clipPath id="cg_33"><path d="M223.6,369.2V364h9.2v5.2Zm0,-7.5V340.2h9.2v21.5Z"/></clipPath>
<clipPath id="ch_33"><path d="M223.6,340.2V268h9.2v72.2Z"/></clipPath>
<clipPath id="ci_33"><path d="M223.6,364v-2.3h9.2V364Z"/></clipPath>
<clipPath id="cj_33"><path d="M497.2,369.2V364h87.4v-2.3h-11V340.2h11V268h.7V369.2Z"/></clipPath>
<clipPath id="ck_33"><path d="M573.6,340.2V299c0,-3.9,-1.2,-7.5,-3.3,-10.5v-2.6h-2.2c-3.3,-3.2,-7.8,-5.2,-12.8,-5.2H512.9c-5,0,-9.5,2,-12.8,5.2h-2.5V289c-.2,.2,-.3,.4,-.4,.6V268h87.4v72.2Z"/></clipPath>
<clipPath id="cl_33"><path d="M573.6,364v-2.3h11V364Z"/></clipPath>
<clipPath id="cm_33"><path d="M497.6,289v-3.1h2.5c-1,.9,-1.8,2,-2.5,3.1Zm72.7,-.5c-.6,-.9,-1.3,-1.8,-2.2,-2.6h2.2v2.6Z"/></clipPath>
<clipPath id="cn_33"><path d="M409.1,369.2V364h78.8v5.2Zm76.4,-7.5V340.2h2.4v21.5Z"/></clipPath>
<clipPath id="co_33"><path d="M485.5,340.2V299c0,-10.1,-8.2,-18.3,-18.3,-18.3H424.8c-6.7,0,-12.5,3.5,-15.7,8.9V268h78.8v72.2Z"/></clipPath>
<clipPath id="cp_33"><path d="M485.5,364v-2.3h2.4V364Z"/></clipPath>
<clipPath id="cq_33"><path d="M487.9,369.2V364h9.3v5.2Zm0,-7.5V340.2h6.7v16.7h-.1v4.8Z"/></clipPath>
<clipPath id="cr_33"><path d="M487.9,340.2V268h9.3v21.6c-1.7,2.7,-2.6,6,-2.6,9.4v41.2Z"/></clipPath>
<clipPath id="cs_33"><path d="M487.9,364v-2.3h6.6V364Z"/></clipPath>
<clipPath id="ct_33"><path d="M494.6,356.9V299c0,-3.4,.9,-6.7,2.6,-9.4v67.3Z"/></clipPath>
<clipPath id="cu_33"><path d="M494.5,364v-7.1h2.7V364Z"/></clipPath>
<clipPath id="cv_33"><path d="M321,369.2V364h78.8v5.2Zm0,-7.5V340.2h78.8v21.5Z"/></clipPath>
<clipPath id="cw_33"><path d="M321,340.2V268h78.8v72.2Z"/></clipPath>
<clipPath id="cx_33"><path d="M321,364v-2.3h78.8V364Z"/></clipPath>
<clipPath id="cy_33"><path d="M311.7,369.2V364H321v5.2Zm0,-7.5V340.2H321v21.5Z"/></clipPath>
<clipPath id="cz_33"><path d="M311.7,340.2V268H321v72.2Z"/></clipPath>
<clipPath id="c10_33"><path d="M311.7,364v-2.3H321V364Z"/></clipPath>
<clipPath id="c11_33"><path d="M399.8,369.2V364h9.3v5.2Zm0,-7.5V340.2h6.7v16.7h-.1v4.8Z"/></clipPath>
<clipPath id="c12_33"><path d="M399.8,340.2V268h9.3v21.6c-1.7,2.8,-2.6,6,-2.6,9.4v41.2Z"/></clipPath>
<clipPath id="c13_33"><path d="M399.8,364v-2.3h6.6V364Z"/></clipPath>
<clipPath id="c14_33"><path d="M406.5,356.9V299c0,-3.4,.9,-6.6,2.6,-9.4v67.3Z"/></clipPath>
<clipPath id="c15_33"><path d="M406.4,364v-7.1h2.7V364Z"/></clipPath>
<style type="text/css"><![CDATA[
.g0_33{
fill: #E7E8E8;
}
.g1_33{
fill: #1B1661;
}
.g2_33{
fill: #DCDDDE;
}
.g3_33{
fill: #FFF;
}
.g4_33{
fill: #ED1A40;
}
.g5_33{
fill: #FCB61D;
}
.g6_33{
fill: #FEE6BB;
}
.g7_33{
fill: #CFCBCA;
}
.g8_33{
fill: #5AC4C1;
}
.g9_33{
fill: #09B795;
}
.ga_33{
fill: #F37537;
}
.gb_33{
fill: #5180C1;
}
]]></style>
</defs>
<path d="M324.8,1242.3H584.6V1068.2H324.8v174.1Z" class="g0_33"/>
<path d="M324.8,1068.2H584.6v26.2H324.8v-26.2Z" class="g1_33"/>
<path d="M324.8,1094.4H511.6v22.2H324.8v-22.2Zm186.8,0h73v22.2h-73v-22.2Zm-186.8,44.4H511.6V1177H324.8v-38.2Zm186.8,0h73V1177h-73v-38.2Zm-186.8,60.3H511.6v22.2H324.8v-22.2Zm186.8,0h73v22.2h-73v-22.2Z" class="g2_33"/>
<path d="M324.8,1222H511.6v-1.5H324.8v1.5Z" class="g3_33"/>
<path d="M511.6,1222h73v-1.5h-73v1.5Z" class="g3_33"/>
<path d="M343.9,1078.4l-1,-.7c-.2,-.1,-.6,-.1,-.8,.2l-4.7,6.9l-2.1,-2.1c-.3,-.3,-.6,-.3,-.8,0l-.9,.8c-.2,.2,-.2,.6,0,.8l3.4,3.3c.1,.2,.4,.4,.7,.4c.3,0,.5,-.2,.7,-.5l5.7,-8.3c.1,-.3,.1,-.6,-.2,-.8Z" class="g3_33"/>
<path d="M606.3,1242.3H866.1V979.9H606.3v262.4Z" class="g0_33"/>
<path d="M606.3,979.9H866.1v27.7H606.3V979.9Z" class="g1_33"/>
<path d="M606.3,1007.6H866.1v25.2H606.3v-25.2Zm0,195.6H866.1v39.1H606.3v-39.1Z" class="g2_33"/>
<path d="M606.3,1033.2H866.1v-.8H606.3Z" class="g3_33"/>
<path d="M606.3,1203.6H866.1v-.7H606.3Z" class="g3_33"/>
<path d="M625.4,991.5l-1,-.6c-.2,-.2,-.6,-.1,-.8,.1l-4.7,6.9l-2.1,-2.1c-.3,-.2,-.6,-.2,-.8,0l-.9,.8c-.2,.2,-.2,.6,0,.8l3.4,3.4c.1,.1,.4,.3,.7,.3c.3,0,.5,-.2,.7,-.4l5.6,-8.4c.2,-.2,.2,-.6,-.1,-.8Z" class="g3_33"/>
<path d="M610.6,237.3c-2.4,0,-4.3,2,-4.3,4.4v39.7c0,2.4,1.9,4.3,4.3,4.3H861.8c2.4,0,4.3,-1.9,4.3,-4.3V241.7c0,-2.4,-1.9,-4.4,-4.3,-4.4Z" class="g4_33"/>
<path d="M727.1,267.9h69.7V267H727.1Z" class="g3_33"/>
<image clip-path="url(#c0_33)" preserveAspectRatio="none" x="0" y="0" width="160" height="146" xlink:href="img/1.jpg"/>
<image clip-path="url(#c1_33)" preserveAspectRatio="none" x="159" y="0" width="160" height="146" xlink:href="img/2.jpg"/>
<image clip-path="url(#c2_33)" preserveAspectRatio="none" x="319" y="0" width="160" height="146" xlink:href="img/3.jpg"/>
<image clip-path="url(#c3_33)" preserveAspectRatio="none" x="478" y="0" width="107" height="243" xlink:href="img/4.jpg"/>
<image clip-path="url(#c4_33)" preserveAspectRatio="none" x="0" y="146" width="160" height="146" xlink:href="img/5.jpg"/>
<image clip-path="url(#c5_33)" preserveAspectRatio="none" x="159" y="146" width="160" height="146" xlink:href="img/6.jpg"/>
<image clip-path="url(#c6_33)" preserveAspectRatio="none" x="319" y="146" width="160" height="146" xlink:href="img/7.jpg"/>
<image clip-path="url(#c7_33)" preserveAspectRatio="none" x="478" y="243" width="107" height="49" xlink:href="img/8.jpg"/>
<image clip-path="url(#c8_33)" preserveAspectRatio="none" x="0" y="291" width="160" height="50" xlink:href="img/9.jpg"/>
<image clip-path="url(#c9_33)" preserveAspectRatio="none" x="42" y="42" width="50" height="14" xlink:href="img/10.jpg"/>
<path d="M325.6,750.5h-.8v304.7H584.6V749.8H324.8v.7h.8v.8H583.1v302.4H326.3V750.5h-.7v.8Z" class="g1_33"/>
<path d="M365.5,757H535.3V743.2H365.5Z" class="g3_33"/>
<path d="M606.7,183.9h34.6v40.4H606.7V183.9Z" class="g3_33"/>
<image x="641" y="183" width="226" height="42" xlink:href="shade/1.png"/>
<path d="M641.3,205H866.1v-1.5H641.3Z" class="g5_33"/>
<path d="M624.5,222.8c9.9,0,17.9,-8,17.9,-17.8c0,-9.9,-8,-17.9,-17.9,-17.9c-9.8,0,-17.8,8,-17.8,17.9c0,9.8,8,17.8,17.8,17.8Z" class="g5_33"/>
<path d="M635,206.8c0,.7,.2,1.4,.2,2.1c-.1,2.1,-1,3.6,-2.7,4.7c-1.3,.9,-2.8,1.3,-4.4,1.3c-2.4,0,-4.8,0,-7.2,0c-1.6,0,-3.1,-.4,-4.5,-1.4c-1.9,-1.4,-2.7,-3.2,-2.5,-5.6c.3,-2,.4,-3.9,.4,-5.9c.1,-1.8,0,-3.6,0,-5.4c-.1,-2.1,.8,-3.8,2.5,-5c1.5,-1.1,3.1,-1.6,4.9,-1.6c1.9,0,3.8,0,5.7,0c1.7,.1,3.3,.5,4.7,1.5c1.9,1.3,2.8,3.2,2.7,5.6c-.1,1.2,-.1,2.4,-.1,3.6c0,0,.1,4,.3,6.1M624.5,191.3v-.1c-.9,0,-1.8,0,-2.8,0c-1.3,0,-2.5,.3,-3.7,1c-1.5,1,-2.6,2.3,-2.5,4.2c.1,.8,.3,1.7,.6,2.5c.4,1.3,1,2.6,2.1,3.5c.3,.3,.3,.6,0,.9c-.6,.6,-1.3,1.2,-2.1,1.5c-.6,.2,-.7,.5,-.8,1c0,.5,.1,.9,.5,1.2c.7,.8,1.6,1.4,2.6,1.8c1.8,.7,3.7,1,5.7,1c2,.1,4,-.1,6,-.8c1.3,-.5,2.5,-1.2,3.4,-2.3c.1,-.1,.2,-.3,.2,-.4c0,-.4,0,-.7,-.1,-1.1l-.2,-.2c-1,-.4,-1.8,-1,-2.6,-1.7c-.3,-.3,-.2,-.6,.1,-1c.4,-.4,.9,-.9,1.2,-1.4c.7,-1.2,1.2,-2.6,1.4,-4c.2,-1.2,-.1,-2.2,-.8,-3.2c-1.1,-1.5,-2.7,-2.2,-4.6,-2.4c-1.2,-.1,-2.4,0,-3.6,0m-9.3,16.5c-.4,1.6,0,3,1.3,4.2c1.2,1.2,2.8,1.7,4.5,1.7c2.3,0,4.7,0,7,0c.8,0,1.6,-.1,2.3,-.4c1.4,-.5,2.6,-1.2,3.3,-2.6c.4,-1,.5,-2,.2,-3l-.1,.1c-1.1,1.4,-2.6,2.2,-4.2,2.6c-2.9,.8,-5.8,.8,-8.7,.3c-1.4,-.2,-2.7,-.7,-3.9,-1.5c-.6,-.4,-1.1,-.9,-1.7,-1.4Z" class="g6_33"/>
<path d="M619.2,215.3c-.5,.4,-1,.8,-1.5,1.1c-.5,.4,-1.8,1.4,-2.3,1.8c-.2,.2,-.5,.2,-.8,.2l-.3,-.4c0,-.2,0,-.5,.3,-.6c.3,-.3,1.3,-1.2,1.7,-1.4c.4,-.3,.8,-.7,1.3,-1l.4,-.1c.4,.1,.7,.3,1.2,.4Z" class="g6_33"/>
<path d="M629.9,215.3c.5,-.2,.9,-.3,1.3,-.4l.3,.1c.7,.6,2.3,1.8,3,2.3c.1,.1,.2,.3,.3,.4c.1,.2,0,.5,-.2,.6c-.2,.1,-.6,.1,-.7,0c-1.1,-.7,-2.9,-2.2,-4,-3Z" class="g6_33"/>
<path d="M624.5,201.9c-1.1,0,-2.2,.1,-3.2,0c-2,-.1,-3.5,-1.6,-3.9,-3.5c-.1,-.5,-.2,-1,-.3,-1.5c-.4,-1.9,1,-3.5,2.9,-3.5c3,-.1,6,-.1,9,0c1.9,0,3.2,1.4,3,3.3c-.2,1,-.3,2.1,-.9,3.1c-.8,1.4,-2.1,2.2,-3.8,2.2c-.9,-.1,-1.9,0,-2.8,0Z" class="g6_33"/>
<path d="M629.1,204.6c.2,0,.5,0,.8,0c.4,0,.7,.3,.5,.7c-.4,.8,-1,1.7,-1.5,2.5c-.1,.2,-.3,.3,-.5,.3c-.6,0,-1.1,0,-1.6,0c-.5,0,-.8,-.3,-.6,-.7c.5,-.8,1,-1.6,1.5,-2.5c.1,-.2,.3,-.3,.6,-.3c.3,0,.5,0,.8,0Z" class="g6_33"/>
<path d="M621.5,208.1c-.3,0,-.5,0,-.7,0c-.4,0,-.6,-.1,-.7,-.3c-.5,-.9,-1,-1.7,-1.4,-2.5c-.3,-.4,0,-.7,.6,-.7c.4,0,.9,0,1.4,0c.4,0,.6,.1,.7,.4c.5,.8,1,1.6,1.5,2.4c.1,.4,-.1,.7,-.6,.7c-.3,0,-.5,0,-.8,0Z" class="g6_33"/>
<path d="M625.6,212.4c0,.6,-.5,1.1,-1.1,1.1c-.5,0,-1,-.5,-1,-1.1c0,-.5,.4,-1,1,-1c.6,0,1.1,.5,1.1,1Z" class="g6_33"/>
<path d="M747.3,340.9V298.7h-3.1v42.2Z" class="g3_33"/>
<path d="M866.1,356.1V335.7h-.7v20.4Z" class="g3_33"/>
<path d="M866.1,381V356.1h-.7V381Z" class="g3_33"/>
<path d="M754.8,400.5V381H754v19.5Z" class="g3_33"/>
<path d="M866.1,400.5V381h-.7v19.5Z" class="g3_33"/>
<path d="M754.8,420V400.5H754V420Z" class="g3_33"/>
<path d="M866.1,420V400.5h-.7V420Z" class="g3_33"/>
<path d="M754.8,439.6V420H754v19.6Z" class="g3_33"/>
<path d="M866.1,439.6V420h-.7v19.6Z" class="g3_33"/>
<path d="M754.8,459.1V439.6H754v19.5Z" class="g3_33"/>
<path d="M866.1,459.1V439.6h-.7v19.5Z" class="g3_33"/>
<path d="M754.8,478.6V459.1H754v19.5Z" class="g3_33"/>
<path d="M866.1,478.6V459.1h-.7v19.5Z" class="g3_33"/>
<path d="M754.8,498.2V478.6H754v19.6Z" class="g3_33"/>
<path d="M866.1,498.2V478.6h-.7v19.6Z" class="g3_33"/>
<path d="M754.8,517.7V498.2H754v19.5Z" class="g3_33"/>
<path d="M866.1,517.7V498.2h-.7v19.5Z" class="g3_33"/>
<path d="M754.8,537.2V517.7H754v19.5Z" class="g3_33"/>
<path d="M866.1,537.2V517.7h-.7v19.5Z" class="g3_33"/>
<path d="M754.8,556.8V537.2H754v19.6Z" class="g3_33"/>
<path d="M866.1,556.8V537.2h-.7v19.6Z" class="g3_33"/>
<path d="M754.8,576.3V556.8H754v19.5Z" class="g3_33"/>
<path d="M866.1,576.3V556.8h-.7v19.5Z" class="g3_33"/>
<path d="M754.8,595.8V576.3H754v19.5Z" class="g3_33"/>
<path d="M866.1,595.8V576.3h-.7v19.5Z" class="g3_33"/>
<path d="M754.8,615.4V595.8H754v19.6Z" class="g3_33"/>
<path d="M866.1,615.4V595.8h-.7v19.6Z" class="g3_33"/>
<path d="M754.8,634.9V615.4H754v19.5Z" class="g3_33"/>
<path d="M866.1,634.9V615.4h-.7v19.5Z" class="g3_33"/>
<path d="M640.9,356.9H754.4v-1.5H640.9Z" class="g5_33"/>
<path d="M754.4,356.9h111v-1.5h-111Z" class="g5_33"/>
<path d="M624.1,374.7c9.9,0,17.9,-8,17.9,-17.9C642,347,634,339,624.1,339c-9.8,0,-17.8,8,-17.8,17.8c0,9.9,8,17.9,17.8,17.9Z" class="g5_33"/>
<path d="M634.6,358.6c0,.7,.2,1.4,.2,2.2c0,2,-1,3.5,-2.7,4.6c-1.3,.9,-2.8,1.3,-4.3,1.3c-2.4,0,-4.8,.1,-7.2,0c-1.7,0,-3.2,-.4,-4.5,-1.3c-2,-1.4,-2.8,-3.3,-2.5,-5.7c.2,-1.9,.3,-3.9,.4,-5.8c0,-1.8,-.1,-3.7,-.1,-5.5c0,-2.1,.9,-3.7,2.5,-5c1.5,-1,3.1,-1.5,4.9,-1.5c1.9,-.1,3.9,-.1,5.8,0c1.6,0,3.2,.4,4.6,1.4c1.9,1.4,2.8,3.2,2.7,5.6c-.1,1.2,0,2.4,0,3.6c-.1,0,.1,4.1,.2,6.1M624.2,343.1V343c-1,0,-1.9,0,-2.9,.1c-1.3,0,-2.5,.3,-3.6,1c-1.6,.9,-2.7,2.2,-2.6,4.1c.1,.9,.3,1.7,.6,2.5c.4,1.4,1,2.6,2.1,3.6c.3,.2,.3,.5,0,.8c-.6,.7,-1.3,1.3,-2.1,1.5c-.6,.2,-.7,.5,-.7,1c-.1,.5,.1,.9,.4,1.2c.7,.8,1.7,1.4,2.7,1.8c1.8,.8,3.7,1,5.6,1.1c2,0,4.1,-.2,6,-.9c1.4,-.4,2.6,-1.1,3.4,-2.3c.1,-.1,.2,-.3,.2,-.4c0,-.3,0,-.7,0,-1l-.3,-.3c-1,-.3,-1.8,-.9,-2.5,-1.7c-.3,-.3,-.3,-.6,0,-.9c.4,-.5,.9,-.9,1.2,-1.5c.8,-1.2,1.2,-2.6,1.4,-4c.2,-1.1,-.1,-2.2,-.8,-3.1c-1.1,-1.6,-2.7,-2.3,-4.6,-2.5c-1.2,-.1,-2.3,0,-3.5,0m-9.4,16.5c-.3,1.6,0,3.1,1.3,4.2c1.3,1.2,2.8,1.7,4.5,1.7c2.4,0,4.7,0,7,0c.8,0,1.6,-.1,2.4,-.3c1.3,-.5,2.5,-1.3,3.2,-2.7c.5,-.9,.5,-1.9,.3,-2.9h-.1c-1.1,1.4,-2.6,2.2,-4.3,2.7c-2.9,.7,-5.7,.7,-8.6,.2c-1.4,-.2,-2.8,-.6,-3.9,-1.4c-.7,-.4,-1.2,-1,-1.8,-1.5Z" class="g6_33"/>
<path d="M618.8,367.1c-.5,.4,-1,.8,-1.5,1.2c-.5,.4,-1.8,1.4,-2.3,1.8c-.2,.2,-.5,.2,-.7,.1l-.3,-.3c-.1,-.3,0,-.5,.2,-.7c.3,-.2,1.4,-1.1,1.7,-1.4c.4,-.3,.9,-.6,1.3,-.9l.4,-.1c.4,.1,.8,.2,1.2,.3Z" class="g6_33"/>
<path d="M629.5,367.1c.5,-.1,.9,-.2,1.3,-.4l.3,.2c.7,.5,2.3,1.7,3,2.3c.1,.1,.3,.2,.3,.4c.1,.2,.1,.5,-.2,.5c-.2,.1,-.5,.2,-.7,.1c-1.1,-.8,-2.9,-2.2,-4,-3.1Z" class="g6_33"/>
<path d="M624.1,353.8c-1.1,0,-2.1,0,-3.2,0c-2,-.2,-3.5,-1.6,-3.9,-3.6c-.1,-.4,-.2,-.9,-.3,-1.4c-.4,-1.9,1,-3.6,3,-3.6c2.9,0,5.9,0,8.9,0c1.9,0,3.2,1.5,3,3.3c-.1,1.1,-.3,2.2,-.8,3.1c-.9,1.4,-2.2,2.2,-3.9,2.2c-.9,0,-1.9,0,-2.8,0Z" class="g6_33"/>
<path d="M628.7,356.5c.3,0,.5,0,.8,0c.4,0,.7,.3,.5,.6c-.4,.9,-.9,1.7,-1.4,2.6c-.1,.1,-.3,.2,-.6,.2c-.5,0,-1.1,0,-1.6,0c-.5,0,-.7,-.3,-.6,-.6c.5,-.9,1,-1.7,1.5,-2.5c.1,-.2,.3,-.3,.6,-.3c.3,0,.5,0,.8,0Z" class="g6_33"/>
<path d="M621.1,359.9c-.2,0,-.5,0,-.7,0c-.3,0,-.6,-.1,-.7,-.3c-.5,-.8,-1,-1.6,-1.4,-2.4c-.2,-.4,0,-.7,.6,-.7c.5,0,1,0,1.5,0c.3,0,.5,.1,.6,.3c.5,.8,1,1.7,1.5,2.5c.2,.3,-.1,.6,-.6,.6c-.2,0,-.5,0,-.8,0Z" class="g6_33"/>
<path d="M625.2,364.3c0,.5,-.5,1,-1,1c-.6,0,-1.1,-.5,-1.1,-1c0,-.6,.5,-1.1,1,-1.1c.6,0,1.1,.5,1.1,1.1Z" class="g6_33"/>
<path d="M866.1,663.9V643.5h-.7v20.4Z" class="g3_33"/>
<path d="M866.1,688.8V663.9h-.7v24.9Z" class="g3_33"/>
<path d="M755.7,708.3V688.8h-.8v19.5Z" class="g3_33"/>
<path d="M866.1,708.3V688.8h-.7v19.5Z" class="g3_33"/>
<path d="M755.7,727.8V708.3h-.8v19.5Z" class="g3_33"/>
<path d="M866.1,727.8V708.3h-.7v19.5Z" class="g3_33"/>
<path d="M755.7,747.4V727.8h-.8v19.6Z" class="g3_33"/>
<path d="M866.1,747.4V727.8h-.7v19.6Z" class="g3_33"/>
<path d="M755.7,766.9V747.4h-.8v19.5Z" class="g3_33"/>
<path d="M866.1,766.9V747.4h-.7v19.5Z" class="g3_33"/>
<path d="M755.7,786.4V766.9h-.8v19.5Z" class="g3_33"/>
<path d="M866.1,786.4V766.9h-.7v19.5Z" class="g3_33"/>
<path d="M755.7,806V786.4h-.8V806Z" class="g3_33"/>
<path d="M866.1,806V786.4h-.7V806Z" class="g3_33"/>
<path d="M755.7,825.5V806h-.8v19.5Z" class="g3_33"/>
<path d="M866.1,825.5V806h-.7v19.5Z" class="g3_33"/>
<path d="M755.7,845V825.5h-.8V845Z" class="g3_33"/>
<path d="M866.1,845V825.5h-.7V845Z" class="g3_33"/>
<path d="M755.7,864.6V845h-.8v19.6Z" class="g3_33"/>
<path d="M866.1,864.6V845h-.7v19.6Z" class="g3_33"/>
<path d="M755.7,884.1V864.6h-.8v19.5Z" class="g3_33"/>
<path d="M866.1,884.1V864.6h-.7v19.5Z" class="g3_33"/>
<path d="M755.7,903.6V884.1h-.8v19.5Z" class="g3_33"/>
<path d="M866.1,903.6V884.1h-.7v19.5Z" class="g3_33"/>
<path d="M755.7,923.2V903.6h-.8v19.6Z" class="g3_33"/>
<path d="M866.1,923.2V903.6h-.7v19.6Z" class="g3_33"/>
<path d="M755.7,942.7V923.2h-.8v19.5Z" class="g3_33"/>
<path d="M866.1,942.7V923.2h-.7v19.5Z" class="g3_33"/>
<path d="M640.9,664.7H755.3v-1.5H640.9Z" class="g5_33"/>
<path d="M755.3,664.7H865.4v-1.5H755.3Z" class="g5_33"/>
<path d="M624.1,682.5c9.9,0,17.9,-8,17.9,-17.9c0,-9.8,-8,-17.8,-17.9,-17.8c-9.8,0,-17.8,8,-17.8,17.8c0,9.9,8,17.9,17.8,17.9Z" class="g5_33"/>
<path d="M634.6,666.4c0,.7,.2,1.5,.2,2.2c0,2,-1,3.5,-2.7,4.6c-1.3,.9,-2.8,1.3,-4.3,1.3c-2.4,.1,-4.8,.1,-7.2,0c-1.7,0,-3.2,-.4,-4.5,-1.3c-2,-1.4,-2.8,-3.3,-2.5,-5.7c.2,-1.9,.3,-3.9,.4,-5.8c0,-1.8,-.1,-3.6,-.1,-5.5c0,-2.1,.9,-3.7,2.5,-4.9c1.5,-1.1,3.1,-1.6,4.9,-1.6c1.9,0,3.9,0,5.8,0c1.6,0,3.2,.5,4.6,1.4c1.9,1.4,2.8,3.2,2.7,5.6c-.1,1.2,0,2.4,0,3.6c-.1,0,.1,4.1,.2,6.1M624.2,650.9v0c-1,0,-1.9,-.1,-2.9,0c-1.3,0,-2.5,.3,-3.6,1c-1.6,.9,-2.7,2.2,-2.6,4.1c.1,.9,.3,1.7,.6,2.6c.4,1.3,1,2.5,2.1,3.5c.3,.2,.3,.6,0,.8c-.6,.7,-1.3,1.3,-2.1,1.6c-.6,.1,-.7,.4,-.7,1c-.1,.5,.1,.8,.4,1.2c.7,.8,1.7,1.3,2.7,1.7c1.8,.8,3.7,1,5.6,1.1c2,0,4.1,-.2,6,-.9c1.4,-.4,2.6,-1.1,3.4,-2.3c.1,-.1,.2,-.2,.2,-.4c0,-.3,0,-.7,0,-1l-.3,-.3c-1,-.3,-1.8,-.9,-2.5,-1.7c-.3,-.3,-.3,-.6,0,-.9c.4,-.5,.9,-.9,1.2,-1.5c.8,-1.2,1.2,-2.5,1.4,-4c.2,-1.1,-.1,-2.2,-.8,-3.1c-1.1,-1.5,-2.7,-2.3,-4.6,-2.4c-1.2,-.2,-2.3,-.1,-3.5,-.1m-9.4,16.6c-.3,1.5,0,3,1.3,4.2c1.3,1.2,2.8,1.6,4.5,1.6c2.4,.1,4.7,.1,7,.1c.8,0,1.6,-.2,2.4,-.4c1.3,-.5,2.5,-1.3,3.2,-2.7c.5,-.9,.5,-1.9,.3,-2.9h-.1c-1.1,1.4,-2.6,2.2,-4.3,2.7c-2.9,.7,-5.7,.7,-8.6,.3c-1.4,-.3,-2.8,-.7,-3.9,-1.5c-.7,-.4,-1.2,-1,-1.8,-1.4Z" class="g6_33"/>
<path d="M618.8,675c-.5,.4,-1,.7,-1.5,1.1c-.5,.4,-1.8,1.4,-2.3,1.8c-.2,.2,-.5,.2,-.7,.1l-.3,-.3c-.1,-.3,0,-.5,.2,-.7c.3,-.2,1.4,-1.1,1.7,-1.3c.4,-.4,.9,-.7,1.3,-1l.4,-.1c.4,.1,.8,.2,1.2,.4Z" class="g6_33"/>
<path d="M629.5,675c.5,-.2,.9,-.3,1.3,-.4l.3,.1c.7,.5,2.3,1.7,3,2.3c.1,.1,.3,.2,.3,.4c.1,.2,.1,.5,-.2,.6c-.2,.1,-.5,.1,-.7,0c-1.1,-.8,-2.9,-2.2,-4,-3Z" class="g6_33"/>
<path d="M624.1,661.6c-1.1,0,-2.1,.1,-3.2,0c-2,-.2,-3.5,-1.6,-3.9,-3.5c-.1,-.5,-.2,-1,-.3,-1.5c-.4,-1.9,1,-3.6,3,-3.6c2.9,0,5.9,0,8.9,0c1.9,0,3.2,1.5,3,3.3c-.1,1.1,-.3,2.2,-.8,3.1c-.9,1.5,-2.2,2.2,-3.9,2.2c-.9,0,-1.9,0,-2.8,0Z" class="g6_33"/>
<path d="M628.7,664.3c.3,0,.5,0,.8,0c.4,0,.7,.3,.5,.6c-.4,.9,-.9,1.7,-1.4,2.6c-.1,.2,-.3,.2,-.6,.2c-.5,0,-1.1,.1,-1.6,0c-.5,0,-.7,-.3,-.6,-.6c.5,-.8,1,-1.7,1.5,-2.5c.1,-.2,.3,-.3,.6,-.3c.3,0,.5,0,.8,0Z" class="g6_33"/>
<path d="M621.1,667.7c-.2,0,-.5,0,-.7,.1c-.3,0,-.6,-.1,-.7,-.4c-.5,-.8,-1,-1.6,-1.4,-2.4c-.2,-.4,0,-.7,.6,-.7c.5,0,1,0,1.5,0c.3,0,.5,.1,.6,.3c.5,.8,1,1.7,1.5,2.5c.2,.3,-.1,.6,-.6,.6c-.2,.1,-.5,0,-.8,0Z" class="g6_33"/>
<path d="M625.2,672.1c0,.5,-.5,1,-1,1c-.6,0,-1.1,-.4,-1.1,-1c0,-.6,.5,-1,1,-1.1c.6,0,1.1,.5,1.1,1.1Z" class="g6_33"/>
<path d="M606.3,948.6H866.1V947H606.3Z" class="g7_33"/>
<path d="M43.3,364H584.6v-2.3H43.3V364Z" class="g8_33"/>
<image clip-path="url(#ca_33)" preserveAspectRatio="none" x="135" y="339" width="98" height="31" xlink:href="img/11.jpg"/>
<image clip-path="url(#cb_33)" preserveAspectRatio="none" x="135" y="268" width="89" height="72" xlink:href="img/12.jpg"/>
<image clip-path="url(#cc_33)" preserveAspectRatio="none" x="135" y="361" width="89" height="4" xlink:href="img/13.jpg"/>
<path d="M160.5,280.7c-10.2,0,-18.4,8.2,-18.4,18.3v64.1h79.1V299c0,-10.1,-8.2,-18.3,-18.4,-18.3Z" class="g3_33"/>
<path d="M148.3,306.8h2.3c.2,0,.4,-.1,.4,-.3c0,-.3,-.2,-.4,-.4,-.4h-2.3c-.2,0,-.4,.1,-.4,.4c0,.2,.2,.3,.4,.3m3.9,0h2.3c.2,0,.4,-.1,.4,-.3c0,-.3,-.2,-.4,-.4,-.4h-2.3c-.2,0,-.4,.1,-.4,.4c0,.2,.2,.3,.4,.3m3.9,0h2.3c.2,0,.4,-.1,.4,-.3c0,-.3,-.2,-.4,-.4,-.4h-2.3c-.2,0,-.4,.1,-.4,.4c0,.2,.2,.3,.4,.3m3.8,0h2.4c.2,0,.4,-.1,.4,-.3c0,-.3,-.2,-.4,-.4,-.4h-2.4c-.2,0,-.3,.1,-.3,.4c0,.2,.1,.3,.3,.3m3.9,0h2.4c.2,0,.3,-.1,.3,-.3c0,-.3,-.1,-.4,-.3,-.4h-2.4c-.2,0,-.4,.1,-.4,.4c0,.2,.2,.3,.4,.3m3.9,0H170c.2,0,.4,-.1,.4,-.3c0,-.3,-.2,-.4,-.4,-.4h-2.3c-.2,0,-.4,.1,-.4,.4c0,.2,.2,.3,.4,.3m3.9,0h2.3c.2,0,.4,-.1,.4,-.3c0,-.3,-.2,-.4,-.4,-.4h-2.3c-.2,0,-.4,.1,-.4,.4c0,.2,.2,.3,.4,.3m3.9,0h2.3c.2,0,.4,-.1,.4,-.3c0,-.3,-.2,-.4,-.4,-.4h-2.3c-.2,0,-.4,.1,-.4,.4c0,.2,.2,.3,.4,.3m3.9,0h2.3c.2,0,.4,-.1,.4,-.3c0,-.3,-.2,-.4,-.4,-.4h-2.3c-.3,0,-.4,.1,-.4,.4c0,.2,.1,.3,.4,.3m3.8,0h2.4c.2,0,.3,-.1,.3,-.3c0,-.3,-.1,-.4,-.3,-.4h-2.4c-.2,0,-.3,.1,-.3,.4c0,.2,.1,.3,.3,.3m3.9,0h2.3c.3,0,.4,-.1,.4,-.3c0,-.3,-.1,-.4,-.4,-.4h-2.3c-.2,0,-.4,.1,-.4,.4c0,.2,.2,.3,.4,.3m3.9,0h2.3c.2,0,.4,-.1,.4,-.3c0,-.3,-.2,-.4,-.4,-.4H191c-.2,0,-.4,.1,-.4,.4c0,.2,.2,.3,.4,.3m3.9,0h2.3c.2,0,.4,-.1,.4,-.3c0,-.3,-.2,-.4,-.4,-.4h-2.3c-.2,0,-.4,.1,-.4,.4c0,.2,.2,.3,.4,.3m3.9,0h2.3c.2,0,.4,-.1,.4,-.3c0,-.3,-.2,-.4,-.4,-.4h-2.3c-.2,0,-.4,.1,-.4,.4c0,.2,.2,.3,.4,.3m3.8,0H205c.2,0,.4,-.1,.4,-.3c0,-.3,-.2,-.4,-.4,-.4h-2.4c-.2,0,-.3,.1,-.3,.4c0,.2,.1,.3,.3,.3m3.9,0h2.4c.2,0,.3,-.1,.3,-.3c0,-.3,-.1,-.4,-.3,-.4h-2.4c-.2,0,-.4,.1,-.4,.4c0,.2,.2,.3,.4,.3m3.9,0h2.3c.2,0,.4,-.1,.4,-.3c0,-.3,-.2,-.4,-.4,-.4h-2.3c-.2,0,-.4,.1,-.4,.4c0,.2,.2,.3,.4,.3m3.9,0h2.3c.2,0,.4,-.1,.4,-.3c0,-.3,-.2,-.4,-.4,-.4h-2.3c-.2,0,-.4,.1,-.4,.4c0,.2,.2,.3,.4,.3Z" class="g4_33"/>
<path d="M148.3,339.1h2.3c.2,0,.4,-.2,.4,-.4c0,-.2,-.2,-.4,-.4,-.4h-2.3c-.2,0,-.4,.2,-.4,.4c0,.2,.2,.4,.4,.4m3.9,0h2.3c.2,0,.4,-.2,.4,-.4c0,-.2,-.2,-.4,-.4,-.4h-2.3c-.2,0,-.4,.2,-.4,.4c0,.2,.2,.4,.4,.4m3.9,0h2.3c.2,0,.4,-.2,.4,-.4c0,-.2,-.2,-.4,-.4,-.4h-2.3c-.2,0,-.4,.2,-.4,.4c0,.2,.2,.4,.4,.4m3.8,0h2.4c.2,0,.4,-.2,.4,-.4c0,-.2,-.2,-.4,-.4,-.4h-2.4c-.2,0,-.3,.2,-.3,.4c0,.2,.1,.4,.3,.4m3.9,0h2.4c.2,0,.3,-.2,.3,-.4c0,-.2,-.1,-.4,-.3,-.4h-2.4c-.2,0,-.4,.2,-.4,.4c0,.2,.2,.4,.4,.4m3.9,0H170c.2,0,.4,-.2,.4,-.4c0,-.2,-.2,-.4,-.4,-.4h-2.3c-.2,0,-.4,.2,-.4,.4c0,.2,.2,.4,.4,.4m3.9,0h2.3c.2,0,.4,-.2,.4,-.4c0,-.2,-.2,-.4,-.4,-.4h-2.3c-.2,0,-.4,.2,-.4,.4c0,.2,.2,.4,.4,.4m3.9,0h2.3c.2,0,.4,-.2,.4,-.4c0,-.2,-.2,-.4,-.4,-.4h-2.3c-.2,0,-.4,.2,-.4,.4c0,.2,.2,.4,.4,.4m3.9,0h2.3c.2,0,.4,-.2,.4,-.4c0,-.2,-.2,-.4,-.4,-.4h-2.3c-.3,0,-.4,.2,-.4,.4c0,.2,.1,.4,.4,.4m3.8,0h2.4c.2,0,.3,-.2,.3,-.4c0,-.2,-.1,-.4,-.3,-.4h-2.4c-.2,0,-.3,.2,-.3,.4c0,.2,.1,.4,.3,.4m3.9,0h2.3c.3,0,.4,-.2,.4,-.4c0,-.2,-.1,-.4,-.4,-.4h-2.3c-.2,0,-.4,.2,-.4,.4c0,.2,.2,.4,.4,.4m3.9,0h2.3c.2,0,.4,-.2,.4,-.4c0,-.2,-.2,-.4,-.4,-.4H191c-.2,0,-.4,.2,-.4,.4c0,.2,.2,.4,.4,.4m3.9,0h2.3c.2,0,.4,-.2,.4,-.4c0,-.2,-.2,-.4,-.4,-.4h-2.3c-.2,0,-.4,.2,-.4,.4c0,.2,.2,.4,.4,.4m3.9,0h2.3c.2,0,.4,-.2,.4,-.4c0,-.2,-.2,-.4,-.4,-.4h-2.3c-.2,0,-.4,.2,-.4,.4c0,.2,.2,.4,.4,.4m3.8,0H205c.2,0,.4,-.2,.4,-.4c0,-.2,-.2,-.4,-.4,-.4h-2.4c-.2,0,-.3,.2,-.3,.4c0,.2,.1,.4,.3,.4m3.9,0h2.4c.2,0,.3,-.2,.3,-.4c0,-.2,-.1,-.4,-.3,-.4h-2.4c-.2,0,-.4,.2,-.4,.4c0,.2,.2,.4,.4,.4m3.9,0h2.3c.2,0,.4,-.2,.4,-.4c0,-.2,-.2,-.4,-.4,-.4h-2.3c-.2,0,-.4,.2,-.4,.4c0,.2,.2,.4,.4,.4m3.9,0h2.3c.2,0,.4,-.2,.4,-.4c0,-.2,-.2,-.4,-.4,-.4h-2.3c-.2,0,-.4,.2,-.4,.4c0,.2,.2,.4,.4,.4Z" class="g4_33"/>
<path d="M142.1,364h79v-6.7h-79V364Z" class="g8_33"/>
<image clip-path="url(#cd_33)" preserveAspectRatio="none" x="232" y="339" width="90" height="31" xlink:href="img/14.jpg"/>
<image clip-path="url(#ce_33)" preserveAspectRatio="none" x="223" y="268" width="89" height="72" xlink:href="img/15.jpg"/>
<image clip-path="url(#cf_33)" preserveAspectRatio="none" x="232" y="361" width="80" height="4" xlink:href="img/16.jpg"/>
<image clip-path="url(#cg_33)" preserveAspectRatio="none" x="223" y="339" width="11" height="31" xlink:href="img/17.jpg"/>
<image clip-path="url(#ch_33)" preserveAspectRatio="none" x="223" y="268" width="10" height="72" xlink:href="img/18.jpg"/>
<image clip-path="url(#ci_33)" preserveAspectRatio="none" x="223" y="361" width="11" height="4" xlink:href="img/19.jpg"/>
<path d="M248.6,280.7c-10.1,0,-18.3,8.2,-18.3,18.3v64.1h79V299c0,-10.1,-8.2,-18.3,-18.3,-18.3Z" class="g3_33"/>
<path d="M230.2,364h79.1v-7.1H230.2V364Z" class="g8_33"/>
<path d="M236.4,306.8H239c.2,0,.3,-.1,.3,-.3c0,-.3,-.1,-.4,-.3,-.4h-2.6c-.2,0,-.4,.1,-.4,.4c0,.2,.2,.3,.4,.3m4.3,0h2.6c.2,0,.4,-.1,.4,-.3c0,-.3,-.2,-.4,-.4,-.4h-2.6c-.2,0,-.3,.1,-.3,.4c0,.2,.1,.3,.3,.3m4.3,0h2.6c.2,0,.4,-.1,.4,-.3c0,-.3,-.2,-.4,-.4,-.4H245c-.2,0,-.3,.1,-.3,.4c0,.2,.1,.3,.3,.3m4.4,0h2.5c.2,0,.4,-.1,.4,-.3c0,-.3,-.2,-.4,-.4,-.4h-2.5c-.3,0,-.4,.1,-.4,.4c0,.2,.1,.3,.4,.3Z" class="g5_33"/>
<path d="M288,339.1h2.2c.2,0,.3,-.2,.3,-.4c0,-.2,-.1,-.4,-.3,-.4H288c-.3,0,-.4,.2,-.4,.4c0,.2,.1,.4,.4,.4m3.6,0h2.2c.2,0,.4,-.2,.4,-.4c0,-.2,-.2,-.4,-.4,-.4h-2.2c-.2,0,-.4,.2,-.4,.4c0,.2,.2,.4,.4,.4m3.6,0h2.3c.2,0,.3,-.2,.3,-.4c0,-.2,-.1,-.4,-.3,-.4h-2.3c-.2,0,-.3,.2,-.3,.4c0,.2,.1,.4,.3,.4m3.7,0h2.2c.2,0,.4,-.2,.4,-.4c0,-.2,-.2,-.4,-.4,-.4h-2.2c-.2,0,-.4,.2,-.4,.4c0,.2,.2,.4,.4,.4m3.6,0h2.2c.3,0,.4,-.2,.4,-.4c0,-.2,-.1,-.4,-.4,-.4h-2.2c-.2,0,-.3,.2,-.3,.4c0,.2,.1,.4,.3,.4Z" class="g5_33"/>
<path d="M287.1,306.8h2.3c.2,0,.4,-.1,.4,-.3c0,-.3,-.2,-.4,-.4,-.4h-2.3c-.2,0,-.4,.1,-.4,.4c0,.2,.2,.3,.4,.3m3.8,0h2.3c.2,0,.4,-.1,.4,-.3c0,-.3,-.2,-.4,-.4,-.4h-2.3c-.2,0,-.4,.1,-.4,.4c0,.2,.2,.3,.4,.3m3.9,0h2.3c.2,0,.3,-.1,.3,-.3c0,-.3,-.1,-.4,-.3,-.4h-2.3c-.2,0,-.4,.1,-.4,.4c0,.2,.2,.3,.4,.3m3.8,0h2.3c.2,0,.4,-.1,.4,-.3c0,-.3,-.2,-.4,-.4,-.4h-2.3c-.2,0,-.4,.1,-.4,.4c0,.2,.2,.3,.4,.3m3.8,0h2.3c.3,0,.4,-.1,.4,-.3c0,-.3,-.1,-.4,-.4,-.4h-2.3c-.2,0,-.3,.1,-.3,.4c0,.2,.1,.3,.3,.3Z" class="g5_33"/>
<path d="M283.2,324.2c.1,.9,.3,1.9,.3,2.8c-.1,2.6,-1.3,4.6,-3.5,6c-1.7,1.2,-3.6,1.7,-5.6,1.7c-3.1,0,-6.2,0,-9.3,0c-2.1,0,-4.1,-.6,-5.8,-1.8c-2.5,-1.7,-3.6,-4.1,-3.2,-7.2c.3,-2.5,.4,-5.1,.5,-7.6c0,-2.3,0,-4.7,-.1,-7c0,-2.7,1.1,-4.8,3.3,-6.4c1.8,-1.4,4,-2,6.3,-2.1c2.5,0,4.9,0,7.4,0c2.1,.1,4.2,.6,5.9,1.9c2.6,1.7,3.8,4.1,3.5,7.2c-.1,1.5,0,3.1,0,4.7c0,0,.2,5.2,.3,7.8m-13.4,-20v-.1c-1.3,0,-2.5,0,-3.7,0c-1.7,.1,-3.3,.5,-4.7,1.4c-2,1.2,-3.4,2.8,-3.3,5.3c.1,1.1,.4,2.2,.7,3.3c.6,1.7,1.4,3.3,2.8,4.5c.4,.3,.4,.8,0,1.1c-.8,.9,-1.7,1.6,-2.8,2c-.7,.2,-.9,.6,-.9,1.3c-.1,.6,.1,1.1,.5,1.5c1,1.1,2.2,1.8,3.5,2.3c2.3,1,4.7,1.3,7.2,1.4c2.7,0,5.3,-.2,7.8,-1.1c1.7,-.6,3.3,-1.5,4.4,-3c.2,-.1,.3,-.3,.3,-.5c0,-.5,0,-.9,-.1,-1.4l-.3,-.3c-1.3,-.4,-2.4,-1.2,-3.3,-2.2c-.4,-.4,-.3,-.8,0,-1.2c.6,-.6,1.2,-1.2,1.6,-1.9c1,-1.6,1.5,-3.3,1.8,-5.1c.3,-1.5,-.1,-2.9,-1,-4.1c-1.5,-2,-3.5,-2.9,-5.9,-3.1c-1.6,-.2,-3.1,-.1,-4.6,-.1m-12.1,21.3c-.5,2.1,0,4,1.6,5.5c1.7,1.5,3.7,2.1,5.9,2.1c3,.1,6,.1,9,.1c1,0,2,-.2,3,-.5c1.8,-.6,3.3,-1.7,4.2,-3.4c.6,-1.2,.6,-2.5,.3,-3.8h-.1c-1.4,1.8,-3.3,2.8,-5.5,3.4c-3.7,1,-7.4,1,-11.1,.4c-1.8,-.3,-3.5,-.8,-5.1,-1.9c-.8,-.5,-1.5,-1.2,-2.2,-1.9Z" class="g5_33"/>
<path d="M262.8,335.2c-.6,.5,-1.3,1,-1.9,1.5c-.6,.5,-2.3,1.8,-2.9,2.3c-.3,.3,-.7,.3,-1,.2c-.2,-.1,-.4,-.3,-.4,-.5c-.1,-.3,0,-.6,.3,-.8c.4,-.3,1.8,-1.4,2.2,-1.8c.6,-.4,1.1,-.8,1.7,-1.2c.1,-.1,.4,-.2,.5,-.1c.5,.1,1,.3,1.5,.4Z" class="g5_33"/>
<path d="M276.6,335.2c.7,-.2,1.2,-.3,1.7,-.5l.4,.2c1,.7,3,2.2,3.9,3c.2,.1,.3,.3,.4,.4c.1,.3,0,.7,-.2,.8c-.3,.1,-.8,.2,-1,0c-1.4,-.9,-3.7,-2.8,-5.2,-3.9Z" class="g5_33"/>
<path d="M269.7,318c-1.4,0,-2.8,.1,-4.2,0c-2.5,-.2,-4.5,-2.1,-5,-4.6c-.1,-.6,-.2,-1.2,-.3,-1.9c-.5,-2.4,1.2,-4.6,3.7,-4.6c3.9,0,7.8,0,11.6,0c2.5,0,4.2,1.9,3.8,4.3c-.1,1.4,-.3,2.8,-1,4c-1.2,1.8,-2.8,2.8,-5,2.8c-1.2,0,-2.4,0,-3.6,0Z" class="g5_33"/>
<path d="M275.6,321.5c.3,0,.7,0,1,0c.6,0,1,.4,.8,.8c-.7,1.1,-1.3,2.2,-2,3.3c-.1,.2,-.4,.3,-.7,.3c-.7,0,-1.4,0,-2,0c-.7,0,-1,-.4,-.8,-.8c.6,-1.1,1.3,-2.2,1.9,-3.2c.1,-.3,.4,-.4,.8,-.4c.4,0,.7,0,1,0Z" class="g5_33"/>
<path d="M265.8,325.9c-.3,0,-.6,0,-.9,0c-.4,0,-.7,-.1,-.9,-.4c-.6,-1,-1.2,-2.1,-1.8,-3.2c-.3,-.5,0,-.8,.7,-.8c.7,0,1.3,0,2,0c.4,0,.6,.1,.8,.4c.6,1.1,1.3,2.1,1.9,3.2c.2,.4,-.1,.8,-.7,.8c-.4,0,-.7,0,-1.1,0Z" class="g5_33"/>
<path d="M271.1,331.5c0,.7,-.6,1.4,-1.3,1.4c-.8,0,-1.4,-.6,-1.4,-1.3c0,-.8,.6,-1.4,1.3,-1.4c.7,0,1.4,.6,1.4,1.3Z" class="g5_33"/>
<path d="M236.4,339.1h2.2c.2,0,.4,-.2,.4,-.4c0,-.2,-.2,-.4,-.4,-.4h-2.2c-.2,0,-.4,.2,-.4,.4c0,.2,.2,.4,.4,.4m3.7,0h2.2c.2,0,.4,-.2,.4,-.4c0,-.2,-.2,-.4,-.4,-.4h-2.2c-.2,0,-.4,.2,-.4,.4c0,.2,.2,.4,.4,.4m3.6,0h2.2c.2,0,.4,-.2,.4,-.4c0,-.2,-.2,-.4,-.4,-.4h-2.2c-.2,0,-.4,.2,-.4,.4c0,.2,.2,.4,.4,.4m3.7,0h2.2c.2,0,.4,-.2,.4,-.4c0,-.2,-.2,-.4,-.4,-.4h-2.2c-.2,0,-.4,.2,-.4,.4c0,.2,.2,.4,.4,.4m3.6,0h2.2c.2,0,.4,-.2,.4,-.4c0,-.2,-.2,-.4,-.4,-.4H251c-.2,0,-.4,.2,-.4,.4c0,.2,.2,.4,.4,.4Z" class="g5_33"/>
<image clip-path="url(#cj_33)" preserveAspectRatio="none" x="487" y="267" width="99" height="103" xlink:href="img/20.jpg"/>
<image clip-path="url(#ck_33)" preserveAspectRatio="none" x="497" y="268" width="88" height="72" xlink:href="img/21.jpg"/>
<image clip-path="url(#cl_33)" preserveAspectRatio="none" x="497" y="361" width="88" height="4" xlink:href="img/22.jpg"/>
<image clip-path="url(#cm_33)" preserveAspectRatio="none" x="497" y="286" width="73" height="3" xlink:href="img/23.jpg"/>
<path d="M512.9,280.7c-10.1,0,-18.3,8.2,-18.3,18.3v64.1h79V299c0,-10.1,-8.2,-18.3,-18.3,-18.3Z" class="g3_33"/>
<path d="M494.5,364h79.1v-7.1H494.5V364Z" class="g8_33"/>
<path d="M499.9,339.1h2.4c.2,0,.3,-.2,.3,-.4c0,-.2,-.1,-.4,-.3,-.4h-2.4c-.2,0,-.3,.2,-.3,.4c0,.2,.1,.4,.3,.4m3.9,0h2.3c.3,0,.4,-.2,.4,-.4c0,-.2,-.1,-.4,-.4,-.4h-2.3c-.2,0,-.4,.2,-.4,.4c0,.2,.2,.4,.4,.4m3.9,0H510c.2,0,.4,-.2,.4,-.4c0,-.2,-.2,-.4,-.4,-.4h-2.3c-.2,0,-.4,.2,-.4,.4c0,.2,.2,.4,.4,.4m3.9,0h2.3c.2,0,.4,-.2,.4,-.4c0,-.2,-.2,-.4,-.4,-.4h-2.3c-.2,0,-.4,.2,-.4,.4c0,.2,.2,.4,.4,.4m3.9,0h2.3c.2,0,.4,-.2,.4,-.4c0,-.2,-.2,-.4,-.4,-.4h-2.3c-.2,0,-.4,.2,-.4,.4c0,.2,.2,.4,.4,.4m3.9,0h2.3c.2,0,.4,-.2,.4,-.4c0,-.2,-.2,-.4,-.4,-.4h-2.3c-.3,0,-.4,.2,-.4,.4c0,.2,.1,.4,.4,.4m3.8,0h2.4c.2,0,.3,-.2,.3,-.4c0,-.2,-.1,-.4,-.3,-.4h-2.4c-.2,0,-.3,.2,-.3,.4c0,.2,.1,.4,.3,.4m3.9,0h2.3c.2,0,.4,-.2,.4,-.4c0,-.2,-.2,-.4,-.4,-.4h-2.3c-.2,0,-.4,.2,-.4,.4c0,.2,.2,.4,.4,.4m3.9,0h2.3c.2,0,.4,-.2,.4,-.4c0,-.2,-.2,-.4,-.4,-.4H531c-.2,0,-.4,.2,-.4,.4c0,.2,.2,.4,.4,.4m3.9,0h2.3c.2,0,.4,-.2,.4,-.4c0,-.2,-.2,-.4,-.4,-.4h-2.3c-.2,0,-.4,.2,-.4,.4c0,.2,.2,.4,.4,.4m3.9,0h2.3c.2,0,.4,-.2,.4,-.4c0,-.2,-.2,-.4,-.4,-.4h-2.3c-.2,0,-.4,.2,-.4,.4c0,.2,.2,.4,.4,.4m3.8,0H545c.2,0,.3,-.2,.3,-.4c0,-.2,-.1,-.4,-.3,-.4h-2.4c-.2,0,-.3,.2,-.3,.4c0,.2,.1,.4,.3,.4m3.9,0h2.3c.3,0,.4,-.2,.4,-.4c0,-.2,-.1,-.4,-.4,-.4h-2.3c-.2,0,-.4,.2,-.4,.4c0,.2,.2,.4,.4,.4m3.9,0h2.3c.2,0,.4,-.2,.4,-.4c0,-.2,-.2,-.4,-.4,-.4h-2.3c-.2,0,-.4,.2,-.4,.4c0,.2,.2,.4,.4,.4m3.9,0h2.3c.2,0,.4,-.2,.4,-.4c0,-.2,-.2,-.4,-.4,-.4h-2.3c-.2,0,-.4,.2,-.4,.4c0,.2,.2,.4,.4,.4m3.9,0h2.3c.2,0,.4,-.2,.4,-.4c0,-.2,-.2,-.4,-.4,-.4h-2.3c-.2,0,-.4,.2,-.4,.4c0,.2,.2,.4,.4,.4m3.9,0h2.3c.2,0,.4,-.2,.4,-.4c0,-.2,-.2,-.4,-.4,-.4h-2.3c-.3,0,-.4,.2,-.4,.4c0,.2,.1,.4,.4,.4m3.8,0h2.4c.2,0,.3,-.2,.3,-.4c0,-.2,-.1,-.4,-.3,-.4h-2.4c-.2,0,-.3,.2,-.3,.4c0,.2,.1,.4,.3,.4Z" class="g9_33"/>
<path d="M499.3,302.7h2.3c.2,0,.4,-.2,.4,-.4c0,-.2,-.2,-.4,-.4,-.4h-2.3c-.2,0,-.4,.2,-.4,.4c0,.2,.2,.4,.4,.4m3.9,0h2.3c.2,0,.4,-.2,.4,-.4c0,-.2,-.2,-.4,-.4,-.4h-2.3c-.2,0,-.4,.2,-.4,.4c0,.2,.2,.4,.4,.4m3.9,0h2.3c.2,0,.4,-.2,.4,-.4c0,-.2,-.2,-.4,-.4,-.4h-2.3c-.3,0,-.4,.2,-.4,.4c0,.2,.1,.4,.4,.4m3.8,0h2.4c.2,0,.3,-.2,.3,-.4c0,-.2,-.1,-.4,-.3,-.4h-2.4c-.2,0,-.3,.2,-.3,.4c0,.2,.1,.4,.3,.4m3.9,0h2.3c.3,0,.4,-.2,.4,-.4c0,-.2,-.1,-.4,-.4,-.4h-2.3c-.2,0,-.4,.2,-.4,.4c0,.2,.2,.4,.4,.4m3.9,0H521c.2,0,.4,-.2,.4,-.4c0,-.2,-.2,-.4,-.4,-.4h-2.3c-.2,0,-.4,.2,-.4,.4c0,.2,.2,.4,.4,.4m3.9,0h2.3c.2,0,.4,-.2,.4,-.4c0,-.2,-.2,-.4,-.4,-.4h-2.3c-.2,0,-.4,.2,-.4,.4c0,.2,.2,.4,.4,.4m3.9,0h2.3c.2,0,.4,-.2,.4,-.4c0,-.2,-.2,-.4,-.4,-.4h-2.3c-.2,0,-.4,.2,-.4,.4c0,.2,.2,.4,.4,.4m3.8,0h2.4c.2,0,.4,-.2,.4,-.4c0,-.2,-.2,-.4,-.4,-.4h-2.4c-.2,0,-.3,.2,-.3,.4c0,.2,.1,.4,.3,.4m3.9,0h2.4c.2,0,.3,-.2,.3,-.4c0,-.2,-.1,-.4,-.3,-.4h-2.4c-.2,0,-.4,.2,-.4,.4c0,.2,.2,.4,.4,.4m3.9,0h2.3c.2,0,.4,-.2,.4,-.4c0,-.2,-.2,-.4,-.4,-.4h-2.3c-.2,0,-.4,.2,-.4,.4c0,.2,.2,.4,.4,.4m3.9,0h2.3c.2,0,.4,-.2,.4,-.4c0,-.2,-.2,-.4,-.4,-.4H542c-.2,0,-.4,.2,-.4,.4c0,.2,.2,.4,.4,.4m3.9,0h2.3c.2,0,.4,-.2,.4,-.4c0,-.2,-.2,-.4,-.4,-.4h-2.3c-.2,0,-.4,.2,-.4,.4c0,.2,.2,.4,.4,.4m3.9,0h2.3c.2,0,.4,-.2,.4,-.4c0,-.2,-.2,-.4,-.4,-.4h-2.3c-.3,0,-.4,.2,-.4,.4c0,.2,.1,.4,.4,.4m3.8,0H556c.2,0,.3,-.2,.3,-.4c0,-.2,-.1,-.4,-.3,-.4h-2.4c-.2,0,-.3,.2,-.3,.4c0,.2,.1,.4,.3,.4m3.9,0h2.3c.3,0,.4,-.2,.4,-.4c0,-.2,-.1,-.4,-.4,-.4h-2.3c-.2,0,-.4,.2,-.4,.4c0,.2,.2,.4,.4,.4m3.9,0h2.3c.2,0,.4,-.2,.4,-.4c0,-.2,-.2,-.4,-.4,-.4h-2.3c-.2,0,-.4,.2,-.4,.4c0,.2,.2,.4,.4,.4m3.9,0h2.3c.2,0,.4,-.2,.4,-.4c0,-.2,-.2,-.4,-.4,-.4h-2.3c-.2,0,-.4,.2,-.4,.4c0,.2,.2,.4,.4,.4Z" class="g9_33"/>
<path d="M548,319.5v.7h4.6c1.1,0,2,-.9,2,-2.1v-.4c0,-1.1,-.9,-2,-2,-2H548c-.5,0,-1,.2,-1.4,.5c-.1,.2,-.2,.4,-.2,.5v.3c0,.2,-.1,.4,-.2,.5c-.2,.1,-.2,.3,-.2,.5v.1c0,1.2,.9,2.1,2,2.1v-1.4c-.4,0,-.7,-.3,-.7,-.7V318h-.7l.5,.5c.4,-.4,.7,-.9,.7,-1.5v-.3h-.7l.4,.6c.2,-.2,.3,-.2,.5,-.2h4.6c.3,0,.6,.3,.6,.6v.4c0,.4,-.3,.7,-.6,.7H548Z" class="g9_33"/>
<path d="M547.1,310.2l-.5,.5c.4,.3,.9,.5,1.4,.5h4.6c1.1,0,2,-.9,2,-2v-.4c0,-1.2,-.9,-2.1,-2,-2.1H548c-1.1,0,-2,.9,-2,2.1v.1c0,.2,0,.4,.2,.5c.1,.2,.2,.3,.2,.5v.3c0,.2,.1,.3,.2,.5l.5,-.5h.7v-.3c0,-.6,-.3,-1.1,-.7,-1.5l-.5,.5h.7v-.1c0,-.4,.3,-.7,.7,-.7h4.6c.3,0,.6,.3,.6,.7v.4c0,.3,-.3,.6,-.6,.6H548c-.2,0,-.3,0,-.5,-.1l-.4,.5h.7Z" class="g9_33"/>
<path d="M553.6,319v.7h1.9c1,0,1.8,-.8,1.8,-1.8v-8.8c0,-1,-.8,-1.8,-1.8,-1.8h-1.8c-.3,0,-.5,.1,-.7,.4c-.1,.2,-.1,.5,.1,.7c.1,.1,.1,.2,.1,.4v.4c0,.3,-.3,.6,-.6,.6H548c-.2,0,-.3,0,-.5,-.1c-.2,-.2,-.4,-.3,-.7,-.2c-.2,.1,-.4,.4,-.4,.7v6.5c0,.3,.2,.6,.4,.7c.3,.1,.5,0,.7,-.1c.2,-.2,.3,-.2,.5,-.2h4.6c.3,0,.6,.3,.6,.6v.4c0,.2,0,.3,-.1,.5c-.2,.2,-.2,.4,-.1,.7c.1,.2,.3,.4,.6,.4V319l.5,.4c.3,-.3,.5,-.8,.5,-1.3v-.4c0,-1.1,-.9,-2,-2,-2H548c-.5,0,-1,.2,-1.4,.5l.5,.5h.7v-6.5h-.7l-.5,.5c.4,.3,.9,.5,1.4,.5h4.6c1.1,0,2,-.9,2,-2v-.4c0,-.5,-.1,-.9,-.4,-1.2l-.5,.4v.7h1.8c.2,0,.4,.2,.4,.4v8.8c0,.2,-.2,.4,-.4,.4h-1.9v.7l.5,.4Z" class="g9_33"/>
<path d="M547.1,309.9h.7c0,-1.1,-.9,-2,-2.1,-2h-.6c-1.2,0,-2.1,.9,-2.1,2V317c0,1.1,.9,2,2.1,2h.6c1.2,0,2.1,-.9,2.1,-2v-7.1h-1.4V317c0,.4,-.3,.7,-.7,.7h-.6c-.4,0,-.7,-.3,-.7,-.7v-7.1c0,-.3,.3,-.6,.7,-.6h.6c.4,0,.7,.3,.7,.6Z" class="g9_33"/>
<path d="M548,332.3v.7h4.6c1.1,0,2,-1,2,-2.1v-.4c0,-1.1,-.9,-2,-2,-2H548c-.5,0,-1,.2,-1.4,.5c-.1,.1,-.2,.3,-.2,.5v.3c0,.2,-.1,.3,-.2,.5c-.2,.1,-.2,.3,-.2,.5v.1c0,1.1,.9,2.1,2,2.1v-1.4c-.4,0,-.7,-.3,-.7,-.7v-.1h-.7l.5,.5c.4,-.4,.7,-.9,.7,-1.5v-.3h-.7l.4,.5c.2,-.1,.3,-.1,.5,-.1h4.6c.3,0,.6,.3,.6,.6v.4c0,.4,-.3,.7,-.6,.7H548Z" class="g9_33"/>
<path d="M547.1,322.9l-.5,.6c.4,.3,.9,.5,1.4,.5h4.6c1.1,0,2,-.9,2,-2.1v-.3c0,-1.2,-.9,-2.1,-2,-2.1H548c-1.1,0,-2,.9,-2,2.1v.1c0,.2,0,.4,.2,.5c.1,.2,.2,.3,.2,.5v.2c0,.2,.1,.4,.2,.6l.5,-.6h.7v-.2c0,-.6,-.3,-1.1,-.7,-1.5l-.5,.5h.7v-.1c0,-.4,.3,-.7,.7,-.7h4.6c.3,0,.6,.3,.6,.7v.3c0,.4,-.3,.7,-.6,.7H548c-.2,0,-.3,-.1,-.5,-.2l-.4,.5h.7Z" class="g9_33"/>
<path d="M553.6,331.8v.7h1.9c1,0,1.8,-.9,1.8,-1.9v-8.7c0,-1,-.8,-1.8,-1.8,-1.8h-1.8c-.3,0,-.5,.1,-.7,.3c-.1,.3,-.1,.6,.1,.8c.1,.1,.1,.2,.1,.4v.3c0,.4,-.3,.7,-.6,.7H548c-.2,0,-.3,-.1,-.5,-.2c-.2,-.1,-.4,-.2,-.7,-.1c-.2,.1,-.4,.4,-.4,.6v6.6c0,.3,.2,.5,.4,.7c.3,.1,.5,0,.7,-.2c.2,-.1,.3,-.1,.5,-.1h4.6c.3,0,.6,.3,.6,.6v.4c0,.2,0,.3,-.1,.4c-.2,.2,-.2,.5,-.1,.8c.1,.2,.3,.4,.6,.4v-.7l.5,.4c.3,-.3,.5,-.8,.5,-1.3v-.4c0,-1.1,-.9,-2,-2,-2H548c-.5,0,-1,.2,-1.4,.5l.5,.5h.7v-6.6h-.7l-.5,.6c.4,.3,.9,.5,1.4,.5h4.6c1.1,0,2,-.9,2,-2.1v-.3c0,-.5,-.1,-.9,-.4,-1.2l-.5,.4v.7h1.8c.2,0,.4,.1,.4,.4v8.7c0,.3,-.2,.5,-.4,.5h-1.9v.7l.5,.4Z" class="g9_33"/>
<path d="M547.1,322.7h.7c0,-1.1,-.9,-2,-2.1,-2h-.6c-1.2,0,-2.1,.9,-2.1,2v7.1c0,1.1,.9,2,2.1,2h.6c1.2,0,2.1,-.9,2.1,-2v-7.1h-1.4v7.1c0,.4,-.3,.6,-.7,.6h-.6c-.4,0,-.7,-.2,-.7,-.6v-7.1c0,-.4,.3,-.7,.7,-.7h.6c.4,0,.7,.3,.7,.7Z" class="g9_33"/>
<path d="M532.7,318.7h3.2c.5,0,.9,-.3,.9,-.6v-.2c0,-.3,-.4,-.5,-.9,-.5h-3.2c-.2,0,-.5,0,-.6,.1v.1c0,.2,-.1,.3,-.3,.4v.1c0,.3,.4,.6,.9,.6Z" class="g9_33"/>
<path d="M532.2,308.8c.2,.1,.4,.2,.7,.2h3.3c.5,0,.9,-.3,.9,-.6v-.2c0,-.3,-.4,-.6,-.9,-.6h-3.3c-.6,0,-1,.3,-1,.6v.1c.2,.1,.3,.2,.3,.4Z" class="g9_33"/>
<path d="M538,318.7h1.8c.6,0,1.1,-.5,1.1,-1.1v-8.8c0,-.6,-.5,-1.1,-1.1,-1.1h-1.7c.1,.2,.2,.5,.2,.8v.4c0,.7,-.6,1.3,-1.3,1.3h-4.3c-.4,0,-.7,-.1,-.9,-.3v6.5c.2,-.2,.5,-.3,.9,-.3H537c.7,0,1.3,.6,1.3,1.3v.4c0,.4,-.1,.6,-.3,.9Z" class="g9_33"/>
<path d="M530.5,310.4c0,-.6,-.5,-1.1,-1.1,-1.1c-.6,0,-1.1,.5,-1.1,1.1V316c0,.6,.5,1,1.1,1c.6,0,1.1,-.4,1.1,-1Z" class="g9_33"/>
<path d="M532.3,332.3v.7h4.5c1.2,0,2.1,-1,2.1,-2.1v-.4c0,-1.1,-.9,-2,-2.1,-2h-4.5c-.6,0,-1.1,.2,-1.4,.5c-.2,.1,-.2,.3,-.2,.5v.3c0,.2,-.1,.3,-.3,.5c-.1,.1,-.2,.3,-.2,.5v.1c0,1.1,.9,2.1,2.1,2.1v-1.4c-.4,0,-.7,-.3,-.7,-.7v-.1h-.7l.5,.5c.4,-.4,.6,-.9,.6,-1.5v-.3h-.6l.4,.5c.1,-.1,.3,-.1,.5,-.1h4.5c.4,0,.7,.3,.7,.6v.4c0,.4,-.3,.7,-.7,.7h-4.5Z" class="g9_33"/>
<path d="M531.4,322.9l-.5,.6c.3,.3,.8,.5,1.4,.5h4.5c1.2,0,2.1,-.9,2.1,-2.1v-.3c0,-1.2,-.9,-2.1,-2.1,-2.1h-4.5c-1.2,0,-2.1,.9,-2.1,2.1v.1c0,.2,.1,.4,.2,.5c.2,.2,.3,.3,.3,.5v.2c0,.2,0,.4,.2,.6l.5,-.6h.6v-.2c0,-.6,-.2,-1.1,-.6,-1.5l-.5,.5h.7v-.1c0,-.4,.3,-.7,.7,-.7h4.5c.4,0,.7,.3,.7,.7v.3c0,.4,-.3,.7,-.7,.7h-4.5c-.2,0,-.4,-.1,-.5,-.2l-.4,.5h.6Z" class="g9_33"/>
<path d="M537.9,331.8v.7h1.9c1,0,1.8,-.9,1.8,-1.9v-8.7c0,-1,-.8,-1.8,-1.8,-1.8h-1.9c-.2,0,-.5,.1,-.6,.3c-.1,.3,-.1,.6,.1,.8c0,.1,.1,.2,.1,.4v.3c0,.4,-.3,.7,-.7,.7h-4.5c-.2,0,-.4,-.1,-.5,-.2c-.2,-.1,-.5,-.2,-.7,-.1c-.3,.1,-.4,.4,-.4,.6v6.6c0,.3,.1,.5,.4,.7c.2,.1,.5,0,.7,-.2c.1,-.1,.3,-.1,.5,-.1h4.5c.4,0,.7,.3,.7,.6v.4c0,.2,-.1,.3,-.2,.4c-.1,.2,-.2,.5,0,.8c.1,.2,.3,.4,.6,.4v-.7l.5,.4c.3,-.3,.5,-.8,.5,-1.3v-.4c0,-1.1,-.9,-2,-2.1,-2h-4.5c-.6,0,-1.1,.2,-1.4,.5l.5,.5h.6v-6.6h-.6l-.5,.6c.3,.3,.8,.5,1.4,.5h4.5c1.2,0,2.1,-.9,2.1,-2.1v-.3c0,-.5,-.2,-.9,-.4,-1.2l-.6,.4v.7h1.9c.2,0,.4,.1,.4,.4v8.7c0,.3,-.2,.5,-.4,.5h-1.9v.7l.5,.4Z" class="g9_33"/>
<path d="M531.4,322.7h.6c0,-1.1,-.9,-2,-2,-2h-.7c-1.1,0,-2,.9,-2,2v7.1c0,1.1,.9,2,2,2h.7c1.1,0,2,-.9,2,-2v-7.1h-1.3v7.1c0,.4,-.3,.6,-.7,.6h-.7c-.3,0,-.6,-.2,-.6,-.6v-7.1c0,-.4,.3,-.7,.6,-.7h.7c.4,0,.7,.3,.7,.7Z" class="g9_33"/>
<path d="M516.5,319.5v.7h4.6c1.1,0,2,-.9,2,-2.1v-.4c0,-1.1,-.9,-2,-2,-2h-4.6c-.5,0,-1,.2,-1.3,.5c-.2,.2,-.3,.4,-.3,.5v.3c0,.2,-.1,.4,-.2,.5c-.1,.1,-.2,.3,-.2,.5v.1c0,1.2,.9,2.1,2,2.1v-1.4c-.3,0,-.6,-.3,-.6,-.7V318h-.7l.4,.5c.4,-.4,.7,-.9,.7,-1.5v-.3h-.7l.5,.6c.1,-.2,.2,-.2,.4,-.2h4.6c.4,0,.7,.3,.7,.6v.4c0,.4,-.3,.7,-.7,.7h-4.6Z" class="g9_33"/>
<path d="M515.6,310.2l-.4,.5c.3,.3,.8,.5,1.3,.5h4.6c1.1,0,2,-.9,2,-2v-.4c0,-1.2,-.9,-2.1,-2,-2.1h-4.6c-1.1,0,-2,.9,-2,2.1v.1c0,.2,.1,.4,.2,.5c.1,.2,.2,.3,.2,.5v.3c0,.2,.1,.3,.3,.5l.4,-.5h.7v-.3c0,-.6,-.3,-1.1,-.7,-1.5l-.4,.5h.7v-.1c0,-.4,.3,-.7,.6,-.7h4.6c.4,0,.7,.3,.7,.7v.4c0,.3,-.3,.6,-.7,.6h-4.6c-.2,0,-.3,0,-.4,-.1l-.5,.5h.7Z" class="g9_33"/>
<path d="M522.1,319v.7H524c1,0,1.8,-.8,1.8,-1.8v-8.8c0,-1,-.8,-1.8,-1.8,-1.8h-1.8c-.3,0,-.5,.1,-.6,.4c-.1,.2,-.1,.5,0,.7c.1,.1,.2,.2,.2,.4v.4c0,.3,-.3,.6,-.7,.6h-4.6c-.2,0,-.3,0,-.4,-.1c-.2,-.2,-.5,-.3,-.8,-.2c-.2,.1,-.4,.4,-.4,.7v6.5c0,.3,.2,.6,.4,.7c.3,.1,.6,0,.8,-.1c.1,-.2,.2,-.2,.4,-.2h4.6c.4,0,.7,.3,.7,.6v.4c0,.2,-.1,.3,-.2,.5c-.2,.2,-.2,.4,-.1,.7c.1,.2,.4,.4,.6,.4V319l.6,.4c.2,-.3,.4,-.8,.4,-1.3v-.4c0,-1.1,-.9,-2,-2,-2h-4.6c-.5,0,-1,.2,-1.3,.5l.4,.5h.7v-6.5h-.7l-.4,.5c.3,.3,.8,.5,1.3,.5h4.6c1.1,0,2,-.9,2,-2v-.4c0,-.5,-.1,-.9,-.4,-1.2l-.5,.4v.7H524c.3,0,.5,.2,.5,.4v8.8c0,.2,-.2,.4,-.5,.4h-1.9v.7l.6,.4Z" class="g9_33"/>
<path d="M515.6,309.9h.7c0,-1.1,-.9,-2,-2,-2h-.7c-1.1,0,-2.1,.9,-2.1,2V317c0,1.1,1,2,2.1,2h.7c1.1,0,2,-.9,2,-2v-7.1h-1.4V317c0,.4,-.3,.7,-.6,.7h-.7c-.4,0,-.7,-.3,-.7,-.7v-7.1c0,-.3,.3,-.6,.7,-.6h.7c.3,0,.6,.3,.6,.6Z" class="g9_33"/>
<path d="M516.5,332.3v.7h4.6c1.1,0,2,-1,2,-2.1v-.4c0,-1.1,-.9,-2,-2,-2h-4.6c-.5,0,-1,.2,-1.3,.5c-.2,.1,-.3,.3,-.3,.5v.3c0,.2,-.1,.3,-.2,.5c-.1,.1,-.2,.3,-.2,.5v.1c0,1.1,.9,2.1,2,2.1v-1.4c-.3,0,-.6,-.3,-.6,-.7v-.1h-.7l.4,.5c.4,-.4,.7,-.9,.7,-1.5v-.3h-.7l.5,.5c.1,-.1,.2,-.1,.4,-.1h4.6c.4,0,.7,.3,.7,.6v.4c0,.4,-.3,.7,-.7,.7h-4.6Z" class="g9_33"/>
<path d="M515.6,322.9l-.4,.6c.3,.3,.8,.5,1.3,.5h4.6c1.1,0,2,-.9,2,-2.1v-.3c0,-1.2,-.9,-2.1,-2,-2.1h-4.6c-1.1,0,-2,.9,-2,2.1v.1c0,.2,.1,.4,.2,.5c.1,.2,.2,.3,.2,.5v.2c0,.2,.1,.4,.3,.6l.4,-.6h.7v-.2c0,-.6,-.3,-1.1,-.7,-1.5l-.4,.5h.7v-.1c0,-.4,.3,-.7,.6,-.7h4.6c.4,0,.7,.3,.7,.7v.3c0,.4,-.3,.7,-.7,.7h-4.6c-.2,0,-.3,-.1,-.4,-.2l-.5,.5h.7Z" class="g9_33"/>
<path d="M522.1,331.8v.7H524c1,0,1.8,-.9,1.8,-1.9v-8.7c0,-1,-.8,-1.8,-1.8,-1.8h-1.8c-.3,0,-.5,.1,-.6,.3c-.1,.3,-.1,.6,0,.8c.1,.1,.2,.2,.2,.4v.3c0,.4,-.3,.7,-.7,.7h-4.6c-.2,0,-.3,-.1,-.4,-.2c-.2,-.1,-.5,-.2,-.8,-.1c-.2,.1,-.4,.4,-.4,.6v6.6c0,.3,.2,.5,.4,.7c.3,.1,.6,0,.8,-.2c.1,-.1,.2,-.1,.4,-.1h4.6c.4,0,.7,.3,.7,.6v.4c0,.2,-.1,.3,-.2,.4c-.2,.2,-.2,.5,-.1,.8c.1,.2,.4,.4,.6,.4v-.7l.6,.4c.2,-.3,.4,-.8,.4,-1.3v-.4c0,-1.1,-.9,-2,-2,-2h-4.6c-.5,0,-1,.2,-1.3,.5l.4,.5h.7v-6.6h-.7l-.4,.6c.3,.3,.8,.5,1.3,.5h4.6c1.1,0,2,-.9,2,-2.1v-.3c0,-.5,-.1,-.9,-.4,-1.2l-.5,.4v.7H524c.3,0,.5,.1,.5,.4v8.7c0,.3,-.2,.5,-.5,.5h-1.9v.7l.6,.4Z" class="g9_33"/>
<path d="M515.6,322.7h.7c0,-1.1,-.9,-2,-2,-2h-.7c-1.1,0,-2.1,.9,-2.1,2v7.1c0,1.1,1,2,2.1,2h.7c1.1,0,2,-.9,2,-2v-7.1h-1.4v7.1c0,.4,-.3,.6,-.6,.6h-.7c-.4,0,-.7,-.2,-.7,-.6v-7.1c0,-.4,.3,-.7,.7,-.7h.7c.3,0,.6,.3,.6,.7Z" class="g9_33"/>
<image clip-path="url(#cn_33)" preserveAspectRatio="none" x="399" y="339" width="89" height="31" xlink:href="img/24.jpg"/>
<image clip-path="url(#co_33)" preserveAspectRatio="none" x="409" y="268" width="88" height="72" xlink:href="img/25.jpg"/>
<image clip-path="url(#cp_33)" preserveAspectRatio="none" x="409" y="361" width="79" height="4" xlink:href="img/26.jpg"/>
<image clip-path="url(#cq_33)" preserveAspectRatio="none" x="487" y="339" width="11" height="31" xlink:href="img/27.jpg"/>
<image clip-path="url(#cr_33)" preserveAspectRatio="none" x="488" y="268" width="9" height="72" xlink:href="img/28.jpg"/>
<image clip-path="url(#cs_33)" preserveAspectRatio="none" x="487" y="361" width="11" height="4" xlink:href="img/29.jpg"/>
<image clip-path="url(#ct_33)" preserveAspectRatio="none" x="494" y="289" width="4" height="69" xlink:href="img/30.jpg"/>
<image clip-path="url(#cu_33)" preserveAspectRatio="none" x="494" y="357" width="4" height="8" xlink:href="img/31.jpg"/>
<path d="M424.8,280.7c-10.1,0,-18.3,8.2,-18.3,18.3v64.1h79V299c0,-10.1,-8.2,-18.3,-18.3,-18.3Z" class="g3_33"/>
<path d="M406.4,364h79.1v-7.1H406.4V364Z" class="g8_33"/>
<path d="M411.8,339.1h2.4c.2,0,.4,-.2,.4,-.4c0,-.2,-.2,-.4,-.4,-.4h-2.4c-.2,0,-.3,.2,-.3,.4c0,.2,.1,.4,.3,.4m3.9,0h2.4c.2,0,.3,-.2,.3,-.4c0,-.2,-.1,-.4,-.3,-.4h-2.4c-.2,0,-.4,.2,-.4,.4c0,.2,.2,.4,.4,.4m3.9,0h2.3c.2,0,.4,-.2,.4,-.4c0,-.2,-.2,-.4,-.4,-.4h-2.3c-.2,0,-.4,.2,-.4,.4c0,.2,.2,.4,.4,.4m3.9,0h2.3c.2,0,.4,-.2,.4,-.4c0,-.2,-.2,-.4,-.4,-.4h-2.3c-.2,0,-.4,.2,-.4,.4c0,.2,.2,.4,.4,.4m3.9,0h2.3c.2,0,.4,-.2,.4,-.4c0,-.2,-.2,-.4,-.4,-.4h-2.3c-.2,0,-.4,.2,-.4,.4c0,.2,.2,.4,.4,.4m3.9,0h2.3c.2,0,.4,-.2,.4,-.4c0,-.2,-.2,-.4,-.4,-.4h-2.3c-.3,0,-.4,.2,-.4,.4c0,.2,.1,.4,.4,.4m3.8,0h2.4c.2,0,.3,-.2,.3,-.4c0,-.2,-.1,-.4,-.3,-.4h-2.4c-.2,0,-.3,.2,-.3,.4c0,.2,.1,.4,.3,.4m3.9,0h2.3c.3,0,.4,-.2,.4,-.4c0,-.2,-.1,-.4,-.4,-.4H439c-.2,0,-.4,.2,-.4,.4c0,.2,.2,.4,.4,.4m3.9,0h2.3c.2,0,.4,-.2,.4,-.4c0,-.2,-.2,-.4,-.4,-.4h-2.3c-.2,0,-.4,.2,-.4,.4c0,.2,.2,.4,.4,.4m3.9,0h2.3c.2,0,.4,-.2,.4,-.4c0,-.2,-.2,-.4,-.4,-.4h-2.3c-.2,0,-.4,.2,-.4,.4c0,.2,.2,.4,.4,.4m3.9,0H453c.2,0,.4,-.2,.4,-.4c0,-.2,-.2,-.4,-.4,-.4h-2.3c-.2,0,-.4,.2,-.4,.4c0,.2,.2,.4,.4,.4m3.8,0h2.4c.2,0,.4,-.2,.4,-.4c0,-.2,-.2,-.4,-.4,-.4h-2.4c-.2,0,-.3,.2,-.3,.4c0,.2,.1,.4,.3,.4m3.9,0h2.4c.2,0,.3,-.2,.3,-.4c0,-.2,-.1,-.4,-.3,-.4h-2.4c-.2,0,-.4,.2,-.4,.4c0,.2,.2,.4,.4,.4m3.9,0h2.3c.2,0,.4,-.2,.4,-.4c0,-.2,-.2,-.4,-.4,-.4h-2.3c-.2,0,-.4,.2,-.4,.4c0,.2,.2,.4,.4,.4m3.9,0h2.3c.2,0,.4,-.2,.4,-.4c0,-.2,-.2,-.4,-.4,-.4h-2.3c-.2,0,-.4,.2,-.4,.4c0,.2,.2,.4,.4,.4m3.9,0h2.3c.2,0,.4,-.2,.4,-.4c0,-.2,-.2,-.4,-.4,-.4h-2.3c-.2,0,-.4,.2,-.4,.4c0,.2,.2,.4,.4,.4m3.9,0h2.3c.2,0,.4,-.2,.4,-.4c0,-.2,-.2,-.4,-.4,-.4H474c-.3,0,-.4,.2,-.4,.4c0,.2,.1,.4,.4,.4m3.8,0h2.4c.2,0,.3,-.2,.3,-.4c0,-.2,-.1,-.4,-.3,-.4h-2.4c-.2,0,-.3,.2,-.3,.4c0,.2,.1,.4,.3,.4Z" class="ga_33"/>
<path d="M459.3,302.7h2.2c.2,0,.4,-.2,.4,-.4c0,-.2,-.2,-.4,-.4,-.4h-2.2c-.2,0,-.4,.2,-.4,.4c0,.2,.2,.4,.4,.4m3.7,0h2.3c.2,0,.3,-.2,.3,-.4c0,-.2,-.1,-.4,-.3,-.4H463c-.2,0,-.4,.2,-.4,.4c0,.2,.2,.4,.4,.4m3.7,0H469c.2,0,.4,-.2,.4,-.4c0,-.2,-.2,-.4,-.4,-.4h-2.3c-.2,0,-.3,.2,-.3,.4c0,.2,.1,.4,.3,.4m3.8,0h2.2c.2,0,.4,-.2,.4,-.4c0,-.2,-.2,-.4,-.4,-.4h-2.2c-.3,0,-.4,.2,-.4,.4c0,.2,.1,.4,.4,.4m3.7,0h2.2c.2,0,.4,-.2,.4,-.4c0,-.2,-.2,-.4,-.4,-.4h-2.2c-.2,0,-.4,.2,-.4,.4c0,.2,.2,.4,.4,.4m3.7,0h2.2c.2,0,.4,-.2,.4,-.4c0,-.2,-.2,-.4,-.4,-.4h-2.2c-.2,0,-.4,.2,-.4,.4c0,.2,.2,.4,.4,.4Z" class="ga_33"/>
<path d="M411.9,302.7h2.2c.2,0,.4,-.2,.4,-.4c0,-.2,-.2,-.4,-.4,-.4h-2.2c-.2,0,-.4,.2,-.4,.4c0,.2,.2,.4,.4,.4m3.7,0h2.2c.2,0,.4,-.2,.4,-.4c0,-.2,-.2,-.4,-.4,-.4h-2.2c-.2,0,-.4,.2,-.4,.4c0,.2,.2,.4,.4,.4m3.7,0h2.3c.2,0,.3,-.2,.3,-.4c0,-.2,-.1,-.4,-.3,-.4h-2.3c-.2,0,-.4,.2,-.4,.4c0,.2,.2,.4,.4,.4m3.7,0h2.3c.2,0,.4,-.2,.4,-.4c0,-.2,-.2,-.4,-.4,-.4H423c-.2,0,-.3,.2,-.3,.4c0,.2,.1,.4,.3,.4m3.8,0H429c.2,0,.4,-.2,.4,-.4c0,-.2,-.2,-.4,-.4,-.4h-2.2c-.3,0,-.4,.2,-.4,.4c0,.2,.1,.4,.4,.4m3.7,0h2.2c.2,0,.4,-.2,.4,-.4c0,-.2,-.2,-.4,-.4,-.4h-2.2c-.2,0,-.4,.2,-.4,.4c0,.2,.2,.4,.4,.4Z" class="ga_33"/>
<path d="M436.7,305.3v-.7c-1.1,0,-2,.9,-2,2V336h22.9V306.6c0,-1.1,-.9,-2,-2.1,-2H436.7v1.5h18.8c.3,0,.6,.2,.6,.5v27.9H436.2V306.6c0,-.3,.2,-.5,.5,-.5Z" class="ga_33"/>
<path d="M438.7,300.3v-.4c-.5,0,-1,.5,-1,1v4.7h16.9v-4.7c0,-.5,-.5,-1,-1,-1H438.7v.7h14.9c.1,0,.3,.2,.3,.3v4H438.4v-4c0,-.1,.1,-.3,.3,-.3Z" class="ga_33"/>
<path d="M443.6,327.4h-.4V335l.1,.3l.3,.1h5.2l.2,-.1l.1,-.3v-7.6l-.1,-.3l-.2,-.1h-5.2l-.3,.1l-.1,.3h.4v.4h4.8v6.8H444v-7.2h-.4v.4Z" class="ga_33"/>
<path d="M450.5,327.4h-.4v4.1l.1,.3l.3,.1h4.1l.3,-.1l.1,-.3v-4.1l-.1,-.3l-.3,-.1h-4.1l-.3,.1l-.1,.3h.4v.4h3.8v3.3h-3.4v-3.7h-.4v.4Z" class="ga_33"/>
<path d="M437.7,327.4h-.4v4.1l.1,.3l.3,.1h4.1l.3,-.1l.1,-.3v-4.1l-.1,-.3l-.3,-.1h-4.1l-.3,.1l-.1,.3h.4v.4h3.8v3.3h-3.4v-3.7h-.4v.4Z" class="ga_33"/>
<path d="M445.8,331.3h.8v-1h-.8v1Z" class="ga_33"/>
<path d="M450.5,321.1h-.4v4.1l.1,.2l.3,.2h4.1l.3,-.2l.1,-.2v-4.1l-.1,-.3l-.3,-.1h-4.1l-.3,.1l-.1,.3h.4v.3h3.8v3.4h-3.4v-3.7h-.4v.3Z" class="ga_33"/>
<path d="M444.1,321.1h-.4v4.1l.1,.2l.3,.2h4.1l.3,-.2l.1,-.2v-4.1l-.1,-.3l-.3,-.1h-4.1l-.3,.1l-.1,.3h.4v.3h3.8v3.4h-3.4v-3.7h-.4v.3Z" class="ga_33"/>
<path d="M437.7,321.1h-.4v4.1l.1,.2l.3,.2h4.1l.3,-.2l.1,-.2v-4.1l-.1,-.3l-.3,-.1h-4.1l-.3,.1l-.1,.3h.4v.3h3.8v3.4h-3.4v-3.7h-.4v.3Z" class="ga_33"/>
<path d="M450.5,314.8h-.4v4.1l.1,.2l.3,.1h4.1l.3,-.1l.1,-.2v-4.1l-.1,-.3l-.3,-.1h-4.1l-.3,.1l-.1,.3h.4v.3h3.8v3.4h-3.4v-3.7h-.4v.3Z" class="ga_33"/>
<path d="M444.1,314.8h-.4v4.1l.1,.2l.3,.1h4.1l.3,-.1l.1,-.2v-4.1l-.1,-.3l-.3,-.1h-4.1l-.3,.1l-.1,.3h.4v.3h3.8v3.4h-3.4v-3.7h-.4v.3Z" class="ga_33"/>
<path d="M437.7,314.8h-.4v4.1l.1,.2l.3,.1h4.1l.3,-.1l.1,-.2v-4.1l-.1,-.3l-.3,-.1h-4.1l-.3,.1l-.1,.3h.4v.3h3.8v3.4h-3.4v-3.7h-.4v.3Z" class="ga_33"/>
<path d="M450.5,308.4h-.4v4.1l.1,.3l.3,.1h4.1l.3,-.1l.1,-.3v-4.1l-.1,-.2l-.3,-.1h-4.1l-.3,.1l-.1,.2h.4v.4h3.8v3.4h-3.4v-3.8h-.4v.4Z" class="ga_33"/>
<path d="M444.1,308.4h-.4v4.1l.1,.3l.3,.1h4.1l.3,-.1l.1,-.3v-4.1l-.1,-.2l-.3,-.1h-4.1l-.3,.1l-.1,.2h.4v.4h3.8v3.4h-3.4v-3.8h-.4v.4Z" class="ga_33"/>
<path d="M437.7,308.4h-.4v4.1l.1,.3l.3,.1h4.1l.3,-.1l.1,-.3v-4.1l-.1,-.2l-.3,-.1h-4.1l-.3,.1l-.1,.2h.4v.4h3.8v3.4h-3.4v-3.8h-.4v.4Z" class="ga_33"/>
<path d="M441.3,301.3l-.2,-.1l-.5,.7l-.8,.2l-.2,.2l.1,.2l.5,.7v.8l.1,.2h.2l.8,-.3l.7,.3h.3l.1,-.2l-.1,-.8l.5,-.7l.1,-.2l-.2,-.2l-.8,-.2l-.4,-.7l-.2,-.1l-.2,.1l.2,.1l-.2,.2l.5,.8l.1,.1l.5,.1l-.3,.4l-.1,.2l.1,.6l-.6,-.3h-.1l-.5,.3v-.6l-.1,-.2l-.3,-.4l.5,-.1l.2,-.1l.5,-.8l-.2,-.2l-.2,.2Z" class="ga_33"/>
<path d="M446.1,301.3l-.2,-.1l-.4,.7l-.8,.2l-.2,.2l.1,.2l.5,.7l-.1,.8l.1,.2h.3l.7,-.3l.8,.3h.2l.1,-.2v-.8l.5,-.7l.1,-.2l-.2,-.2l-.8,-.2l-.5,-.7l-.2,-.1l-.2,.1l.2,.1l-.2,.2l.5,.8l.2,.1l.5,.1l-.3,.4l-.1,.2v.6l-.5,-.3H446l-.5,.3l.1,-.6l-.1,-.2l-.3,-.4l.5,-.1l.1,-.1l.5,-.8l-.2,-.2l-.2,.2Z" class="ga_33"/>
<path d="M451,301.3l-.2,-.1l-.4,.7l-.8,.2l-.2,.2v.2l.6,.7l-.1,.8l.1,.2h.2l.8,-.3l.8,.3h.2l.1,-.2l-.1,-.8l.6,-.7v-.2l-.1,-.2l-.8,-.2l-.5,-.7l-.2,-.1l-.2,.1l.2,.1l-.2,.2l.5,.8l.1,.1l.6,.1l-.4,.4v.8l-.5,-.3h-.2l-.5,.3v-.8l-.4,-.4l.6,-.1l.1,-.1l.5,-.8l-.2,-.2l-.2,.2Z" class="ga_33"/>
<path d="M433.7,336.3h24.6c.5,0,1,-.4,1,-1c0,-.5,-.5,-.9,-1,-.9H433.7c-.5,0,-.9,.4,-.9,.9c0,.6,.4,1,.9,1Z" class="ga_33"/>
<path d="M446,327.3v7.4h.3v-7.4Z" class="ga_33"/>
<image clip-path="url(#cv_33)" preserveAspectRatio="none" x="321" y="339" width="79" height="31" xlink:href="img/32.jpg"/>
<image clip-path="url(#cw_33)" preserveAspectRatio="none" x="312" y="268" width="97" height="72" xlink:href="img/33.jpg"/>
<image clip-path="url(#cx_33)" preserveAspectRatio="none" x="321" y="361" width="79" height="4" xlink:href="img/34.jpg"/>
<image clip-path="url(#cy_33)" preserveAspectRatio="none" x="311" y="339" width="11" height="31" xlink:href="img/35.jpg"/>
<image clip-path="url(#cz_33)" preserveAspectRatio="none" x="312" y="268" width="9" height="72" xlink:href="img/36.jpg"/>
<image clip-path="url(#c10_33)" preserveAspectRatio="none" x="311" y="361" width="11" height="4" xlink:href="img/37.jpg"/>
<image clip-path="url(#c11_33)" preserveAspectRatio="none" x="399" y="339" width="11" height="31" xlink:href="img/38.jpg"/>
<image clip-path="url(#c12_33)" preserveAspectRatio="none" x="400" y="268" width="9" height="72" xlink:href="img/39.jpg"/>
<image clip-path="url(#c13_33)" preserveAspectRatio="none" x="399" y="361" width="11" height="4" xlink:href="img/40.jpg"/>
<image clip-path="url(#c14_33)" preserveAspectRatio="none" x="406" y="289" width="4" height="69" xlink:href="img/41.jpg"/>
<image clip-path="url(#c15_33)" preserveAspectRatio="none" x="406" y="357" width="4" height="8" xlink:href="img/42.jpg"/>
<path d="M336.7,280.7c-10.1,0,-18.3,8.2,-18.3,18.3v64.1h79V299c0,-10.1,-8.2,-18.3,-18.3,-18.3Z" class="g3_33"/>
<path d="M318.3,364h79.1v-7.1H318.3V364Z" class="g8_33"/>
<path d="M324.5,306.8h2.2c.2,0,.4,-.1,.4,-.3c0,-.3,-.2,-.4,-.4,-.4h-2.2c-.2,0,-.3,.1,-.3,.4c0,.2,.1,.3,.3,.3m3.6,0h2.2c.2,0,.3,-.1,.3,-.3c0,-.3,-.1,-.4,-.3,-.4h-2.2c-.2,0,-.4,.1,-.4,.4c0,.2,.2,.3,.4,.3m3.6,0h2.1c.2,0,.4,-.1,.4,-.3c0,-.3,-.2,-.4,-.4,-.4h-2.1c-.3,0,-.4,.1,-.4,.4c0,.2,.1,.3,.4,.3m3.5,0h2.2c.2,0,.3,-.1,.3,-.3c0,-.3,-.1,-.4,-.3,-.4h-2.2c-.2,0,-.4,.1,-.4,.4c0,.2,.2,.3,.4,.3m3.6,0h2.1c.2,0,.4,-.1,.4,-.3c0,-.3,-.2,-.4,-.4,-.4h-2.1c-.2,0,-.4,.1,-.4,.4c0,.2,.2,.3,.4,.3m3.5,0h2.2c.2,0,.4,-.1,.4,-.3c0,-.3,-.2,-.4,-.4,-.4h-2.2c-.2,0,-.4,.1,-.4,.4c0,.2,.2,.3,.4,.3m3.6,0H348c.2,0,.4,-.1,.4,-.3c0,-.3,-.2,-.4,-.4,-.4h-2.1c-.2,0,-.4,.1,-.4,.4c0,.2,.2,.3,.4,.3Z" class="gb_33"/>
<path d="M324.5,339.1h2.4c.2,0,.4,-.2,.4,-.4c0,-.2,-.2,-.4,-.4,-.4h-2.4c-.2,0,-.3,.2,-.3,.4c0,.2,.1,.4,.3,.4m3.9,0h2.4c.2,0,.3,-.2,.3,-.4c0,-.2,-.1,-.4,-.3,-.4h-2.4c-.2,0,-.4,.2,-.4,.4c0,.2,.2,.4,.4,.4m3.9,0h2.3c.2,0,.4,-.2,.4,-.4c0,-.2,-.2,-.4,-.4,-.4h-2.3c-.2,0,-.4,.2,-.4,.4c0,.2,.2,.4,.4,.4m3.9,0h2.3c.2,0,.4,-.2,.4,-.4c0,-.2,-.2,-.4,-.4,-.4h-2.3c-.2,0,-.4,.2,-.4,.4c0,.2,.2,.4,.4,.4m3.9,0h2.3c.2,0,.4,-.2,.4,-.4c0,-.2,-.2,-.4,-.4,-.4h-2.3c-.2,0,-.4,.2,-.4,.4c0,.2,.2,.4,.4,.4m3.9,0h2.3c.2,0,.4,-.2,.4,-.4c0,-.2,-.2,-.4,-.4,-.4H344c-.3,0,-.4,.2,-.4,.4c0,.2,.1,.4,.4,.4m3.8,0h2.4c.2,0,.3,-.2,.3,-.4c0,-.2,-.1,-.4,-.3,-.4h-2.4c-.2,0,-.3,.2,-.3,.4c0,.2,.1,.4,.3,.4m3.9,0H354c.3,0,.4,-.2,.4,-.4c0,-.2,-.1,-.4,-.4,-.4h-2.3c-.2,0,-.4,.2,-.4,.4c0,.2,.2,.4,.4,.4m3.9,0h2.3c.2,0,.4,-.2,.4,-.4c0,-.2,-.2,-.4,-.4,-.4h-2.3c-.2,0,-.4,.2,-.4,.4c0,.2,.2,.4,.4,.4m3.9,0h2.3c.2,0,.4,-.2,.4,-.4c0,-.2,-.2,-.4,-.4,-.4h-2.3c-.2,0,-.4,.2,-.4,.4c0,.2,.2,.4,.4,.4m3.9,0h2.3c.2,0,.4,-.2,.4,-.4c0,-.2,-.2,-.4,-.4,-.4h-2.3c-.2,0,-.4,.2,-.4,.4c0,.2,.2,.4,.4,.4m3.8,0h2.4c.2,0,.4,-.2,.4,-.4c0,-.2,-.2,-.4,-.4,-.4h-2.4c-.2,0,-.3,.2,-.3,.4c0,.2,.1,.4,.3,.4m3.9,0h2.4c.2,0,.3,-.2,.3,-.4c0,-.2,-.1,-.4,-.3,-.4h-2.4c-.2,0,-.4,.2,-.4,.4c0,.2,.2,.4,.4,.4m3.9,0h2.3c.2,0,.4,-.2,.4,-.4c0,-.2,-.2,-.4,-.4,-.4H375c-.2,0,-.4,.2,-.4,.4c0,.2,.2,.4,.4,.4m3.9,0h2.3c.2,0,.4,-.2,.4,-.4c0,-.2,-.2,-.4,-.4,-.4h-2.3c-.2,0,-.4,.2,-.4,.4c0,.2,.2,.4,.4,.4m3.9,0h2.3c.2,0,.4,-.2,.4,-.4c0,-.2,-.2,-.4,-.4,-.4h-2.3c-.2,0,-.4,.2,-.4,.4c0,.2,.2,.4,.4,.4m3.9,0H389c.2,0,.4,-.2,.4,-.4c0,-.2,-.2,-.4,-.4,-.4h-2.3c-.3,0,-.4,.2,-.4,.4c0,.2,.1,.4,.4,.4m3.8,0h2.4c.2,0,.3,-.2,.3,-.4c0,-.2,-.1,-.4,-.3,-.4h-2.4c-.2,0,-.3,.2,-.3,.4c0,.2,.1,.4,.3,.4Z" class="gb_33"/>
<path d="M371.3,306.8h2.3c.2,0,.4,-.1,.4,-.3c0,-.3,-.2,-.4,-.4,-.4h-2.3c-.2,0,-.4,.1,-.4,.4c0,.2,.2,.3,.4,.3m3.9,0h2.3c.2,0,.4,-.1,.4,-.3c0,-.3,-.2,-.4,-.4,-.4h-2.3c-.2,0,-.4,.1,-.4,.4c0,.2,.2,.3,.4,.3m3.8,0h2.3c.2,0,.4,-.1,.4,-.3c0,-.3,-.2,-.4,-.4,-.4H379c-.2,0,-.4,.1,-.4,.4c0,.2,.2,.3,.4,.3m3.9,0h2.3c.2,0,.4,-.1,.4,-.3c0,-.3,-.2,-.4,-.4,-.4h-2.3c-.2,0,-.4,.1,-.4,.4c0,.2,.2,.3,.4,.3m3.8,0H389c.2,0,.4,-.1,.4,-.3c0,-.3,-.2,-.4,-.4,-.4h-2.3c-.2,0,-.4,.1,-.4,.4c0,.2,.2,.3,.4,.3m3.9,0h2.3c.2,0,.3,-.1,.3,-.3c0,-.3,-.1,-.4,-.3,-.4h-2.3c-.3,0,-.4,.1,-.4,.4c0,.2,.1,.3,.4,.3Z" class="gb_33"/>
<path d="M367.9,318.5c0,3.4,-.1,6.8,0,10.2c.1,3.1,-1.4,5.3,-4.5,6.7c-3.3,1.4,-6.5,1.1,-9.5,-.7c-.4,-.2,-.9,-.5,-1.1,-.9c-.2,-.2,-.1,-.7,0,-.9c.2,-.1,.7,-.1,1,0c.2,0,.4,.3,.6,.4c3.1,2.3,8,2,10.5,-.7c1.1,-1.1,1.5,-2.4,1.5,-3.8c0,-6.8,-.1,-13.6,0,-20.4c0,-2.5,-1.1,-4.4,-3.6,-5.5c-2.6,-1.2,-5.3,-1.1,-7.8,.4c-.3,.1,-.6,.4,-.9,.6c-.4,.3,-.9,.5,-1.2,0c-.2,-.2,-.1,-.8,.2,-1c1.1,-1,2.5,-1.6,4.1,-2c4.7,-1,9.6,1.5,10.5,5.5c.2,.6,.2,1.1,.2,1.7c0,3.5,0,6.9,0,10.4Z" class="gb_33"/>
<path d="M352.8,310.6c-1.7,-.2,-2.2,-1.4,-1.5,-3c.5,-1,1.4,-1.5,2.4,-1.8c1.5,-.5,3.2,-.5,4.7,0c2,.6,3.2,2.5,3,4.5c-.2,1.9,-1.8,3.6,-3.7,3.8c-2.1,.3,-3.9,-.8,-4.7,-2.8c-.1,-.2,-.1,-.4,-.2,-.7m7.1,0c-1.4,-.4,-1.6,-.6,-2.3,-1.8c-.1,-.3,-.3,-.6,-.4,-.9c-.7,-.9,-1.4,-1,-2.2,-.1c-.8,.8,-1.1,2.1,-.6,3.2c.5,1.1,1.5,1.8,2.8,1.8c1.3,-.1,2.2,-.8,2.7,-2.2M360,309c.1,-1,-1.8,-1.6,-1.8,-1.6c.5,1.7,1.7,2.2,1.8,1.6m-6.5,-1.7c-1.9,.8,-.9,2.3,-.8,1.9c0,0,.2,-1.2,.8,-1.9Z" class="gb_33"/>
<path d="M352.8,320c-1.7,-.3,-2.2,-1.5,-1.5,-3c.5,-1.1,1.4,-1.5,2.4,-1.8c1.5,-.5,3.2,-.6,4.7,-.1c2,.6,3.2,2.5,3,4.5c-.2,1.9,-1.8,3.6,-3.7,3.9c-2.1,.2,-3.9,-.9,-4.7,-2.9c-.1,-.2,-.1,-.4,-.2,-.6m7.1,0c-1.4,-.5,-1.6,-.6,-2.3,-1.9c-.1,-.3,-.3,-.6,-.4,-.8c-.7,-1,-1.4,-1,-2.2,-.2c-.8,.8,-1.1,2.1,-.6,3.2c.5,1.2,1.5,1.8,2.8,1.8c1.3,0,2.2,-.8,2.7,-2.1m.1,-1.7c.1,-1,-1.8,-1.6,-1.8,-1.6c.5,1.8,1.7,2.2,1.8,1.6m-6.5,-1.7c-1.9,.8,-.9,2.3,-.8,1.9c0,0,.2,-1.2,.8,-1.9Z" class="gb_33"/>
<path d="M352.8,329.1c-1.7,-.3,-2.2,-1.5,-1.5,-3c.5,-1.1,1.4,-1.5,2.4,-1.8c1.5,-.5,3.2,-.6,4.7,-.1c2,.6,3.2,2.5,3,4.5c-.2,1.9,-1.8,3.6,-3.7,3.9c-2.1,.2,-3.9,-.9,-4.7,-2.8c-.1,-.3,-.1,-.5,-.2,-.7m7.1,0c-1.4,-.5,-1.6,-.6,-2.3,-1.9c-.1,-.3,-.3,-.6,-.4,-.8c-.7,-1,-1.4,-1,-2.2,-.2c-.8,.8,-1.1,2.1,-.6,3.2c.5,1.2,1.5,1.8,2.8,1.8c1.3,0,2.2,-.8,2.7,-2.1m.1,-1.7c.1,-1,-1.8,-1.6,-1.8,-1.6c.5,1.8,1.7,2.2,1.8,1.6m-6.5,-1.7c-1.9,.8,-.9,2.3,-.8,1.9c0,0,.2,-1.2,.8,-1.9Z" class="gb_33"/>
<path d="M349,323.6L343.7,318c-.2,-.2,-.6,-.2,-.9,0c-.2,.2,-.2,.6,0,.9l5.3,5.5c.2,.3,.6,.3,.8,0c.3,-.2,.3,-.6,.1,-.8Z" class="gb_33"/>
<path d="M349,331.2l-5.3,5.5c-.2,.3,-.6,.3,-.9,.1c-.2,-.3,-.2,-.7,0,-.9l5.3,-5.6c.2,-.2,.6,-.2,.8,0c.3,.3,.3,.7,.1,.9Z" class="gb_33"/>
<path d="M347.8,325.6l-7.3,-1.4c-.3,-.1,-.6,.1,-.7,.4c-.1,.4,.1,.7,.5,.8l7.2,1.4c.4,.1,.7,-.2,.8,-.5c0,-.3,-.2,-.7,-.5,-.7Z" class="gb_33"/>
<path d="M347.8,329.2l-7.3,1.4c-.3,.1,-.6,-.1,-.7,-.5c-.1,-.3,.1,-.6,.5,-.7l7.2,-1.4c.4,-.1,.7,.1,.8,.5c0,.3,-.2,.6,-.5,.7Z" class="gb_33"/>
<path d="M0,0V1286.2Z" class="g3_33"/>
<path d="M0,1286.2H19.5V0H0V1286.2Z" class="g3_33"/>
</svg>