<?xml version="1.0" encoding="UTF-8" standalone="no"?>
<!DOCTYPE svg PUBLIC "-//W3C//DTD SVG 1.1//EN"
"http://www.w3.org/Graphics/SVG/1.1/DTD/svg11.dtd">
<svg viewBox="0 0 909 1286" version="1.1" xmlns="http://www.w3.org/2000/svg" xmlns:xlink="http://www.w3.org/1999/xlink">
<defs>
<clipPath id="c0_26"><path d="M43.3,1242.9V1100H303.1v142.9Z"/></clipPath>
<clipPath id="c1_26"><path d="M867.9,55.4V42.8H813.4V55.4ZM324.8,361.9V0H909.4V361.9H867V289.6H505.3v72.3Z"/></clipPath>
<clipPath id="c2_26"><path d="M813.4,55.4V42.8h54.5V55.4Z"/></clipPath>
<clipPath id="c3_26"><path d="M505.3,383.4V361.9h88.1v21.5Z"/></clipPath>
<clipPath id="c4_26"><path d="M505.3,361.9V289.6h88.1v72.3Z"/></clipPath>
<clipPath id="c5_26"><path d="M505.3,390.8v-5.1h88.1v5.1Z"/></clipPath>
<clipPath id="c6_26"><path d="M505.3,385.7v-2.3h88.1v2.3Z"/></clipPath>
<clipPath id="c7_26"><path d="M778.9,390.8v-5.1h87.2v-2.3H855.3V361.9H867v28.9Z"/></clipPath>
<clipPath id="c8_26"><path d="M855.3,361.9V320.6c0,-10.1,-8.2,-18.3,-18.3,-18.3H794.6c-6.7,0,-12.5,3.6,-15.7,8.9V289.6H867v72.3Z"/></clipPath>
<clipPath id="c9_26"><path d="M855.3,385.7v-2.3h10.8v2.3Z"/></clipPath>
<clipPath id="ca_26"><path d="M690.7,390.8v-5.1h78.9v5.1Zm76.5,-7.4V361.9h2.4v21.5Z"/></clipPath>
<clipPath id="cb_26"><path d="M767.2,361.9V320.6c0,-10.1,-8.2,-18.3,-18.3,-18.3H706.5c-6.7,0,-12.6,3.6,-15.8,9V289.6h78.9v72.3Z"/></clipPath>
<clipPath id="cc_26"><path d="M767.2,385.7v-2.3h2.4v2.3Z"/></clipPath>
<clipPath id="cd_26"><path d="M769.6,390.8v-5.1h9.3v5.1Zm0,-7.4V361.9h6.7v16.6h-.1v4.9Z"/></clipPath>
<clipPath id="ce_26"><path d="M769.6,361.9V289.6h9.3v21.6c-1.7,2.8,-2.6,6,-2.6,9.4v41.3Z"/></clipPath>
<clipPath id="cf_26"><path d="M769.6,385.7v-2.3h6.6v2.3Z"/></clipPath>
<clipPath id="cg_26"><path d="M776.3,378.5V320.6c0,-3.4,.9,-6.6,2.6,-9.4v67.3Z"/></clipPath>
<clipPath id="ch_26"><path d="M776.2,385.7v-7.2h2.7v7.2Z"/></clipPath>
<clipPath id="ci_26"><path d="M602.6,390.8v-5.1h78.9v5.1Zm0,-7.4V361.9h78.9v21.5Z"/></clipPath>
<clipPath id="cj_26"><path d="M602.6,361.9V289.6h78.9v72.3Z"/></clipPath>
<clipPath id="ck_26"><path d="M602.6,385.7v-2.3h78.9v2.3Z"/></clipPath>
<clipPath id="cl_26"><path d="M593.4,383.4V361.9h9.2v21.5Z"/></clipPath>
<clipPath id="cm_26"><path d="M593.4,361.9V289.6h9.2v72.3Z"/></clipPath>
<clipPath id="cn_26"><path d="M593.4,390.8v-5.1h9.2v5.1Z"/></clipPath>
<clipPath id="co_26"><path d="M593.4,385.7v-2.3h9.2v2.3Z"/></clipPath>
<clipPath id="cp_26"><path d="M681.5,390.8v-5.1h9.2v5.1Zm0,-7.4V361.9h6.7v16.6h-.1v4.9Z"/></clipPath>
<clipPath id="cq_26"><path d="M681.5,361.9V289.6h9.2v21.7c-1.6,2.7,-2.5,5.9,-2.5,9.3v41.3Z"/></clipPath>
<clipPath id="cr_26"><path d="M681.5,385.7v-2.3h6.6v2.3Z"/></clipPath>
<clipPath id="cs_26"><path d="M688.2,378.5V320.6c0,-3.4,.9,-6.6,2.5,-9.3v67.2Z"/></clipPath>
<clipPath id="ct_26"><path d="M688.1,385.7v-7.2h2.6v7.2Z"/></clipPath>
<style type="text/css"><![CDATA[
.g0_26{
fill: #E7E8E8;
}
.g1_26{
fill: #1B1661;
}
.g2_26{
fill: #DCDDDE;
}
.g3_26{
fill: #FFF;
}
.g4_26{
fill: #D1232A;
}
.g5_26{
fill: #FCB61D;
}
.g6_26{
fill: #FEE6BB;
}
.g7_26{
fill: #CFCBCA;
}
.g8_26{
fill: #5AC4C1;
}
.g9_26{
fill: #09B795;
}
.ga_26{
fill: #F37537;
}
.gb_26{
fill: #5180C1;
}
]]></style>
</defs>
<image clip-path="url(#c0_26)" preserveAspectRatio="none" x="43" y="1098" width="260" height="146" xlink:href="img/1.jpg"/>
<path d="M43.3,869.8H303.2V553.6H43.3V869.8Z" class="g0_26"/>
<path d="M43.3,553.6H303.2v27.7H43.3V553.6Z" class="g1_26"/>
<path d="M43.3,581.3H303.2v27H43.3v-27Zm0,249.4H303.2v39.1H43.3V830.7Z" class="g2_26"/>
<path d="M43.3,608.6H303.1v-.7H43.3v.7Z" class="g3_26"/>
<path d="M43.3,831.1H303.1v-.8H43.3v.8Z" class="g3_26"/>
<path d="M62.4,565.2l-1,-.6c-.2,-.2,-.6,-.1,-.8,.1l-4.7,7l-2.1,-2.2c-.2,-.2,-.6,-.2,-.8,0l-.9,.8c-.2,.2,-.2,.6,0,.8l3.4,3.4c.1,.1,.4,.3,.7,.3c.3,0,.5,-.2,.7,-.4L62.6,566c.1,-.2,.1,-.6,-.2,-.8Z" class="g3_26"/>
<image clip-path="url(#c1_26)" preserveAspectRatio="none" x="324" y="0" width="586" height="362" xlink:href="img/2.jpg"/>
<image clip-path="url(#c2_26)" preserveAspectRatio="none" x="813" y="43" width="55" height="13" xlink:href="img/3.jpg"/>
<path d="M607.1,911.5h-.8v330H866.1V910.7H606.3v.8h.8v.8H864.6v327.6H607.8V911.5h-.7v.8Z" class="g1_26"/>
<path d="M647,918.1H816.8V904.4H647Z" class="g3_26"/>
<path d="M43.3,1087H303.1V882.8H43.3V1087Z" class="g0_26"/>
<path d="M43.3,882.8H303.1V909H43.3V882.8Z" class="g1_26"/>
<path d="M43.3,909H236.5v24.8H43.3V909Zm193.2,0h66.6v24.8H236.5V909ZM43.3,958.5H236.5v55.3H43.3V958.5Zm193.2,0h66.6v55.3H236.5V958.5ZM43.3,1038.6H236.5v24.8H43.3v-24.8Zm193.2,0h66.6v24.8H236.5v-24.8Z" class="g2_26"/>
<path d="M43.3,1064.1H236.5v-1.5H43.3Z" class="g3_26"/>
<path d="M236.5,1064.1h66.6v-1.5H236.5Z" class="g3_26"/>
<path d="M62.4,893l-1,-.7c-.2,-.2,-.6,-.1,-.8,.2l-4.7,6.9l-2.1,-2.2c-.2,-.2,-.6,-.2,-.8,0l-.9,.9c-.2,.2,-.2,.5,0,.8l3.4,3.3c.1,.2,.4,.3,.7,.3c.3,0,.5,-.1,.7,-.4l5.7,-8.3c.1,-.3,.1,-.7,-.2,-.8Z" class="g3_26"/>
<path d="M325.6,1055h-.8v27.7H584.6v-28.4H324.8v.7h.8v.8H583.1v25.4H326.3V1055h-.7v.8Z" class="g4_26"/>
<path d="M346,1077.5c-5.3,0,-9.7,-4.4,-9.6,-9.7c0,-5.4,4.3,-9.7,9.7,-9.6c5.3,0,9.6,4.3,9.6,9.6c0,5.4,-4.4,9.7,-9.7,9.7m0,-1.4c4.6,0,8.3,-3.7,8.3,-8.3c0,-4.5,-3.7,-8.3,-8.3,-8.3c-4.5,0,-8.2,3.8,-8.2,8.3c-.1,4.5,3.6,8.3,8.2,8.3Z" class="g4_26"/>
<path d="M332.8,1063.3c.4,.1,.5,0,.5,-.4c0,-1.2,0,-2.5,0,-3.7c0,-.2,-.1,-.4,0,-.6c.2,-.2,.4,-.5,.6,-.5c.3,0,.5,.3,.7,.5c.1,.2,.1,.4,.1,.6c0,1.4,0,2.7,0,4.1h.4c0,-.9,0,-1.8,0,-2.7c0,-.6,-.1,-1.2,-.1,-1.8c0,-.4,.3,-.7,.7,-.7c.4,0,.7,.2,.7,.6c.1,1.9,.2,3.7,.2,5.5c0,.8,-.4,1.5,-1.1,1.9c-.3,.2,-.4,.5,-.4,.9c.1,3.4,.1,6.9,.2,10.4c0,.6,-.2,1.1,-.8,1.3c-.5,.3,-1,.2,-1.4,-.2c-.2,-.3,-.4,-.7,-.4,-1.1c0,-2.3,0,-4.6,.1,-6.9c0,-1.3,0,-2.5,0,-3.7c0,-.2,-.2,-.5,-.4,-.6c-.7,-.6,-1.1,-1.4,-1.1,-2.3c.1,-1.7,.2,-3.3,.2,-5c0,-.5,.2,-.8,.7,-.8c.4,-.1,.7,.3,.7,.8c0,1.3,-.1,2.5,-.1,3.8c-.1,.2,0,.4,0,.6m2.1,1.5H333c.7,.6,1.3,.6,1.9,0Z" class="g4_26"/>
<path d="M356.5,1068.6c0,-2.9,0,-5.8,0,-8.7c0,-.7,.2,-1.2,.8,-1.6c.9,-.5,2.1,-.1,2.4,1.1c.5,2.2,.8,4.5,.5,6.9c-.1,1.1,-.3,2.1,-.5,3.2c0,.3,0,.5,0,.8c0,2.4,0,4.7,0,7.1c-.1,1,-.7,1.5,-1.7,1.5c-.9,0,-1.5,-.6,-1.5,-1.5c-.1,-.2,0,-.3,0,-.5c0,-2.7,0,-5.5,0,-8.3m1.3,.4q.6,.1,.7,-.4c.5,-2.3,.5,-4.6,.2,-7c-.1,-.6,-.2,-1.2,-.3,-1.7l-.3,-.4l-.3,.4v.3c0,2.7,0,5.5,0,8.2Z" class="g4_26"/>
<path d="M346,1061v.8h.1c3.2,0,5.9,2.7,5.9,6c.1,3.3,-2.7,6,-5.9,6H346c-1.6,0,-3.1,-.7,-4.2,-1.7c-1.1,-1.1,-1.8,-2.6,-1.8,-4.3c0,-3.3,2.7,-6,6,-6v-1.5c-4.1,0,-7.5,3.4,-7.5,7.5c0,4.2,3.4,7.5,7.5,7.5h.1c4.1,0,7.5,-3.4,7.5,-7.5c0,-4.1,-3.4,-7.5,-7.5,-7.5H346Z" class="g4_26"/>
<path d="M43.3,154.6H78v40.5H43.3V154.6Z" class="g3_26"/>
<image x="77" y="154" width="226" height="42" xlink:href="shade/1.png"/>
<path d="M78,175.8H302.8v-1.6H78Z" class="g5_26"/>
<path d="M61.2,193.5C71,193.5,79,185.6,79,175.7c0,-9.9,-8,-17.9,-17.8,-17.9c-9.9,0,-17.9,8,-17.9,17.9c0,9.9,8,17.8,17.9,17.8Z" class="g5_26"/>
<path d="M71.6,177.5c0,.7,.2,1.4,.2,2.1c0,2.1,-1,3.6,-2.7,4.7c-1.3,.9,-2.8,1.3,-4.3,1.3c-2.4,0,-4.8,0,-7.2,0c-1.7,0,-3.2,-.4,-4.5,-1.4c-2,-1.3,-2.8,-3.2,-2.5,-5.6c.2,-1.9,.3,-3.9,.4,-5.9c0,-1.8,0,-3.6,-.1,-5.4c0,-2.1,.9,-3.7,2.5,-5c1.5,-1,3.2,-1.5,5,-1.5c1.9,-.1,3.8,-.1,5.7,0c1.6,0,3.2,.4,4.6,1.4c1.9,1.3,2.9,3.2,2.7,5.6c-.1,1.2,0,2.4,0,3.6c-.1,0,.1,4,.2,6.1M61.2,162v-.1c-1,0,-1.9,0,-2.9,0c-1.3,.1,-2.5,.4,-3.6,1c-1.6,1,-2.7,2.3,-2.6,4.2c.1,.8,.3,1.7,.6,2.5c.4,1.4,1.1,2.6,2.2,3.5c.2,.3,.2,.6,-.1,.9c-.6,.6,-1.3,1.3,-2.1,1.5c-.6,.2,-.7,.5,-.7,1c-.1,.5,.1,.9,.4,1.2c.8,.8,1.7,1.4,2.7,1.8c1.8,.8,3.7,1,5.6,1c2,.1,4.1,-.1,6,-.8c1.4,-.5,2.6,-1.1,3.5,-2.3c0,-.1,.1,-.3,.1,-.4c0,-.4,0,-.7,0,-1.1l-.2,-.2c-1.1,-.4,-1.9,-.9,-2.6,-1.7c-.3,-.3,-.3,-.6,0,-.9c.4,-.5,.9,-1,1.2,-1.5c.8,-1.2,1.2,-2.6,1.4,-4c.2,-1.2,0,-2.2,-.7,-3.1c-1.2,-1.6,-2.8,-2.3,-4.7,-2.5c-1.1,-.1,-2.3,0,-3.5,0m-9.4,16.5c-.3,1.6,0,3,1.3,4.2c1.3,1.2,2.8,1.7,4.6,1.7c2.3,0,4.6,0,6.9,0c.8,0,1.6,-.1,2.4,-.4c1.4,-.4,2.5,-1.2,3.2,-2.6c.5,-.9,.5,-1.9,.3,-3l-.1,.1c-1.1,1.4,-2.6,2.2,-4.3,2.6c-2.9,.8,-5.7,.8,-8.6,.3c-1.4,-.2,-2.8,-.6,-3.9,-1.4c-.7,-.5,-1.2,-1,-1.8,-1.5Z" class="g6_26"/>
<path d="M55.8,186c-.5,.4,-1,.8,-1.5,1.1c-.5,.4,-1.7,1.4,-2.2,1.8c-.3,.2,-.6,.2,-.8,.2l-.3,-.4c-.1,-.2,0,-.4,.2,-.6c.3,-.3,1.4,-1.1,1.7,-1.4c.4,-.3,.9,-.7,1.3,-1h.4c.4,.1,.8,.2,1.2,.3Z" class="g6_26"/>
<path d="M66.5,186c.5,-.1,.9,-.3,1.3,-.4l.3,.1c.7,.6,2.3,1.8,3,2.4c.1,.1,.3,.2,.3,.3c.1,.3,.1,.5,-.2,.6c-.2,.1,-.5,.2,-.7,0c-1.1,-.7,-2.9,-2.1,-4,-3Z" class="g6_26"/>
<path d="M61.1,172.7c-1.1,0,-2.1,0,-3.2,-.1c-2,-.1,-3.5,-1.5,-3.9,-3.5c-.1,-.5,-.2,-1,-.3,-1.4c-.3,-2,1,-3.6,3,-3.6c3,0,6,0,9,0c1.8,0,3.1,1.4,2.9,3.3c-.1,1.1,-.2,2.2,-.8,3.1c-.9,1.4,-2.2,2.2,-3.9,2.2c-.9,0,-1.9,0,-2.8,0Z" class="g6_26"/>
<path d="M65.7,175.4c.3,0,.5,-.1,.8,0c.4,0,.7,.3,.6,.6c-.5,.8,-1,1.7,-1.5,2.5c-.1,.2,-.3,.3,-.6,.3c-.5,0,-1.1,0,-1.6,0c-.5,0,-.7,-.3,-.5,-.6c.4,-.9,.9,-1.7,1.4,-2.5c.1,-.3,.3,-.4,.7,-.3c.2,0,.5,0,.7,0Z" class="g6_26"/>
<path d="M58.1,178.8c-.2,0,-.5,0,-.7,0c-.3,0,-.6,-.1,-.7,-.3c-.5,-.8,-1,-1.6,-1.4,-2.5c-.2,-.4,0,-.6,.6,-.6c.5,-.1,1,0,1.5,-.1c.3,0,.5,.2,.6,.4c.5,.8,1,1.6,1.5,2.5c.2,.3,-.1,.6,-.6,.6c-.2,0,-.5,0,-.8,0Z" class="g6_26"/>
<path d="M62.2,183.1c0,.6,-.5,1.1,-1,1.1c-.6,0,-1.1,-.5,-1.1,-1c0,-.6,.5,-1.1,1,-1.1c.6,0,1.1,.5,1.1,1Z" class="g6_26"/>
<path d="M43.3,522.3H303.1v-1.6H43.3Z" class="g7_26"/>
<path d="M303.1,272.8V252.4h-.7v20.4Z" class="g3_26"/>
<path d="M303.1,297.6V272.8h-.7v24.8Z" class="g3_26"/>
<path d="M218.6,318.2V297.6h-.8v20.6Z" class="g3_26"/>
<path d="M303.1,318.2V297.6h-.7v20.6Z" class="g3_26"/>
<path d="M218.6,338.8V318.2h-.8v20.6Z" class="g3_26"/>
<path d="M303.1,338.8V318.2h-.7v20.6Z" class="g3_26"/>
<path d="M218.6,359.4V338.8h-.8v20.6Z" class="g3_26"/>
<path d="M303.1,359.4V338.8h-.7v20.6Z" class="g3_26"/>
<path d="M218.6,380.1V359.4h-.8v20.7Z" class="g3_26"/>
<path d="M303.1,380.1V359.4h-.7v20.7Z" class="g3_26"/>
<path d="M78,273.5H218.2V272H78Z" class="g5_26"/>
<path d="M218.2,273.5h84.2V272H218.2Z" class="g5_26"/>
<path d="M61.2,291.3c9.8,0,17.8,-8,17.8,-17.8c0,-9.9,-8,-17.9,-17.8,-17.9c-9.9,0,-17.9,8,-17.9,17.9c0,9.8,8,17.8,17.9,17.8Z" class="g5_26"/>
<path d="M71.6,275.2c0,.8,.2,1.5,.2,2.2c0,2,-1,3.6,-2.7,4.7c-1.3,.9,-2.8,1.2,-4.3,1.3c-2.4,0,-4.8,0,-7.2,0c-1.7,0,-3.2,-.5,-4.5,-1.4c-2,-1.4,-2.8,-3.2,-2.5,-5.6c.2,-2,.3,-3.9,.4,-5.9c0,-1.8,0,-3.6,-.1,-5.4c0,-2.1,.9,-3.8,2.5,-5c1.5,-1.1,3.2,-1.6,5,-1.6c1.9,0,3.8,0,5.7,0c1.6,0,3.2,.5,4.6,1.4c1.9,1.4,2.9,3.2,2.7,5.7c-.1,1.2,0,2.4,0,3.6c-.1,0,.1,4,.2,6M61.2,259.8v-.1c-1,0,-1.9,0,-2.9,0c-1.3,0,-2.5,.3,-3.6,1c-1.6,1,-2.7,2.3,-2.6,4.2c.1,.8,.3,1.7,.6,2.5c.4,1.3,1.1,2.6,2.2,3.5c.2,.3,.2,.6,-.1,.9c-.6,.6,-1.3,1.2,-2.1,1.5c-.6,.2,-.7,.5,-.7,1c-.1,.5,.1,.8,.4,1.2c.8,.8,1.7,1.4,2.7,1.8c1.8,.7,3.7,1,5.6,1c2,.1,4.1,-.1,6,-.8c1.4,-.5,2.6,-1.2,3.5,-2.3c0,-.1,.1,-.3,.1,-.4c0,-.4,0,-.7,0,-1.1l-.2,-.2c-1.1,-.4,-1.9,-1,-2.6,-1.7c-.3,-.3,-.3,-.6,0,-1c.4,-.4,.9,-.9,1.2,-1.4c.8,-1.3,1.2,-2.6,1.4,-4c.2,-1.2,0,-2.2,-.7,-3.2c-1.2,-1.5,-2.8,-2.2,-4.7,-2.4c-1.1,-.1,-2.3,0,-3.5,0m-9.4,16.5c-.3,1.6,0,3,1.3,4.2c1.3,1.2,2.8,1.7,4.6,1.7c2.3,0,4.6,0,6.9,0c.8,0,1.6,-.1,2.4,-.4c1.4,-.5,2.5,-1.3,3.2,-2.6c.5,-1,.5,-2,.3,-3l-.1,.1c-1.1,1.4,-2.6,2.1,-4.3,2.6c-2.9,.8,-5.7,.8,-8.6,.3c-1.4,-.2,-2.8,-.7,-3.9,-1.5c-.7,-.4,-1.2,-.9,-1.8,-1.4Z" class="g6_26"/>
<path d="M55.8,283.8c-.5,.4,-1,.7,-1.5,1.1c-.5,.4,-1.7,1.4,-2.2,1.8c-.3,.2,-.6,.2,-.8,.1l-.3,-.3c-.1,-.2,0,-.5,.2,-.6c.3,-.3,1.4,-1.2,1.7,-1.4c.4,-.3,.9,-.7,1.3,-1l.4,-.1c.4,.1,.8,.3,1.2,.4Z" class="g6_26"/>
<path d="M66.5,283.8c.5,-.2,.9,-.3,1.3,-.4l.3,.1c.7,.6,2.3,1.8,3,2.3c.1,.1,.3,.3,.3,.4c.1,.2,.1,.5,-.2,.6c-.2,.1,-.5,.1,-.7,0c-1.1,-.7,-2.9,-2.2,-4,-3Z" class="g6_26"/>
<path d="M61.1,270.4c-1.1,0,-2.1,.1,-3.2,0c-2,-.1,-3.5,-1.6,-3.9,-3.5c-.1,-.5,-.2,-1,-.3,-1.5c-.3,-1.9,1,-3.6,3,-3.6c3,0,6,0,9,0c1.8,.1,3.1,1.5,2.9,3.4c-.1,1,-.2,2.1,-.8,3.1c-.9,1.4,-2.2,2.2,-3.9,2.1c-.9,0,-1.8,0,-2.8,0Z" class="g6_26"/>
<path d="M65.7,273.1c.3,0,.5,0,.8,0c.4,0,.7,.3,.6,.6c-.5,.9,-1,1.8,-1.5,2.6c-.1,.2,-.3,.3,-.6,.3c-.5,0,-1.1,0,-1.6,0c-.5,0,-.7,-.3,-.5,-.7c.4,-.8,.9,-1.6,1.4,-2.5c.1,-.2,.3,-.3,.7,-.3c.2,0,.5,0,.7,0Z" class="g6_26"/>
<path d="M58.1,276.6c-.2,0,-.5,0,-.7,0c-.3,0,-.6,-.1,-.7,-.3c-.5,-.9,-.9,-1.7,-1.4,-2.5c-.2,-.4,0,-.7,.6,-.7c.5,0,1,0,1.5,0c.3,0,.5,.1,.6,.3c.5,.9,1,1.7,1.5,2.5c.2,.4,-.1,.7,-.6,.7c-.2,0,-.5,0,-.8,0Z" class="g6_26"/>
<path d="M62.2,280.9c0,.6,-.5,1.1,-1,1.1c-.6,0,-1.1,-.5,-1.1,-1.1c0,-.5,.5,-1,1,-1c.6,0,1.1,.4,1.1,1Z" class="g6_26"/>
<path d="M217.1,253.3V208.1H214v45.2Z" class="g3_26"/>
<path d="M303.1,409.1V388.7h-.7v20.4Z" class="g3_26"/>
<path d="M303.1,434V409.1h-.7V434Z" class="g3_26"/>
<path d="M218.6,454.6V434h-.8v20.6Z" class="g3_26"/>
<path d="M303.1,454.6V434h-.7v20.6Z" class="g3_26"/>
<path d="M218.6,475.2V454.6h-.8v20.6Z" class="g3_26"/>
<path d="M303.1,475.2V454.6h-.7v20.6Z" class="g3_26"/>
<path d="M218.6,495.8V475.2h-.8v20.6Z" class="g3_26"/>
<path d="M303.1,495.8V475.2h-.7v20.6Z" class="g3_26"/>
<path d="M218.6,516.4V495.8h-.8v20.6Z" class="g3_26"/>
<path d="M303.1,516.4V495.8h-.7v20.6Z" class="g3_26"/>
<path d="M78,409.9H218.2v-1.5H78Z" class="g5_26"/>
<path d="M218.2,409.9h84.2v-1.5H218.2Z" class="g5_26"/>
<path d="M61.2,427.7c9.8,0,17.8,-8,17.8,-17.9C79,400,71,392,61.2,392c-9.9,0,-17.9,8,-17.9,17.8c0,9.9,8,17.9,17.9,17.9Z" class="g5_26"/>
<path d="M71.6,411.6c0,.7,.2,1.4,.2,2.2c0,2,-1,3.5,-2.7,4.6c-1.3,.9,-2.8,1.3,-4.3,1.3c-2.4,0,-4.8,0,-7.2,0c-1.7,0,-3.2,-.4,-4.5,-1.3c-2,-1.4,-2.8,-3.3,-2.5,-5.7c.2,-1.9,.3,-3.9,.4,-5.8c0,-1.9,0,-3.7,-.1,-5.5c0,-2.1,.9,-3.7,2.5,-5c1.5,-1,3.2,-1.5,5,-1.5c1.9,-.1,3.8,-.1,5.7,0c1.6,0,3.2,.4,4.6,1.4c1.9,1.3,2.9,3.2,2.7,5.6c-.1,1.2,0,2.4,0,3.6c-.1,0,.1,4.1,.2,6.1M61.2,396.1V396c-1,0,-1.9,0,-2.9,0c-1.3,.1,-2.5,.4,-3.6,1.1c-1.6,.9,-2.7,2.2,-2.6,4.1c.1,.9,.3,1.7,.6,2.5c.4,1.4,1.1,2.6,2.2,3.6c.2,.2,.2,.5,-.1,.8c-.6,.7,-1.3,1.3,-2.1,1.5c-.6,.2,-.7,.5,-.7,1c-.1,.5,.1,.9,.4,1.2c.8,.8,1.7,1.4,2.7,1.8c1.8,.8,3.7,1,5.6,1.1c2,0,4.1,-.2,6,-.9c1.4,-.5,2.6,-1.1,3.5,-2.3c0,-.1,.1,-.3,.1,-.4c0,-.3,0,-.7,0,-1l-.2,-.3c-1.1,-.3,-1.9,-.9,-2.6,-1.7c-.3,-.3,-.3,-.6,0,-.9c.4,-.5,.9,-1,1.2,-1.5c.8,-1.2,1.2,-2.6,1.4,-4c.2,-1.1,0,-2.2,-.7,-3.1c-1.2,-1.6,-2.8,-2.3,-4.7,-2.5c-1.1,-.1,-2.3,0,-3.5,0m-9.4,16.5c-.3,1.6,0,3.1,1.3,4.2c1.3,1.2,2.8,1.7,4.6,1.7c2.3,0,4.6,0,6.9,0c.8,0,1.6,-.1,2.4,-.3c1.4,-.5,2.5,-1.3,3.2,-2.7c.5,-.9,.5,-1.9,.3,-2.9h-.1c-1.1,1.4,-2.6,2.2,-4.3,2.7c-2.9,.7,-5.7,.7,-8.6,.2c-1.4,-.2,-2.8,-.6,-3.9,-1.4c-.7,-.4,-1.2,-1,-1.8,-1.5Z" class="g6_26"/>
<path d="M55.8,420.1c-.5,.4,-1,.8,-1.5,1.2c-.5,.4,-1.7,1.3,-2.2,1.8c-.3,.2,-.6,.1,-.8,.1l-.3,-.4c-.1,-.2,0,-.4,.2,-.6c.3,-.2,1.4,-1.1,1.7,-1.4c.4,-.3,.9,-.6,1.3,-.9l.4,-.1c.4,.1,.8,.2,1.2,.3Z" class="g6_26"/>
<path d="M66.5,420.1c.5,-.1,.9,-.3,1.3,-.4l.3,.1c.7,.6,2.3,1.8,3,2.4c.1,.1,.3,.2,.3,.3c.1,.3,.1,.6,-.2,.6c-.2,.1,-.5,.2,-.7,.1c-1.1,-.8,-2.9,-2.2,-4,-3.1Z" class="g6_26"/>
<path d="M61.1,406.8c-1.1,0,-2.1,0,-3.2,0c-2,-.2,-3.5,-1.6,-3.9,-3.6c-.1,-.5,-.2,-.9,-.3,-1.4c-.3,-1.9,1,-3.6,3,-3.6c3,0,6,0,9,0c1.8,0,3.1,1.5,2.9,3.3c-.1,1.1,-.2,2.2,-.8,3.1c-.9,1.4,-2.2,2.2,-3.9,2.2c-.9,0,-1.8,0,-2.8,0Z" class="g6_26"/>
<path d="M65.7,409.5c.3,0,.5,0,.8,0c.4,0,.7,.3,.6,.6c-.5,.9,-1,1.7,-1.5,2.6c-.1,.1,-.3,.2,-.6,.2c-.5,0,-1.1,0,-1.6,0c-.5,0,-.7,-.3,-.5,-.6c.4,-.9,.9,-1.7,1.4,-2.5c.1,-.2,.3,-.3,.7,-.3c.2,0,.5,0,.7,0Z" class="g6_26"/>
<path d="M58.1,412.9c-.2,0,-.5,0,-.7,0c-.3,0,-.6,-.1,-.7,-.3c-.5,-.8,-.9,-1.6,-1.4,-2.4c-.2,-.4,0,-.7,.6,-.7c.5,0,1,0,1.5,0c.3,0,.5,.1,.6,.3c.5,.8,1,1.6,1.5,2.5c.2,.3,-.1,.6,-.6,.6c-.2,0,-.5,0,-.8,0Z" class="g6_26"/>
<path d="M62.2,417.3c0,.5,-.5,1,-1,1c-.6,0,-1.1,-.5,-1.1,-1c0,-.6,.5,-1.1,1,-1.1c.6,0,1.1,.5,1.1,1.1Z" class="g6_26"/>
<path d="M324.8,385.7H866.1v-2.3H324.8v2.3Z" class="g8_26"/>
<image clip-path="url(#c3_26)" preserveAspectRatio="none" x="505" y="361" width="89" height="23" xlink:href="img/4.jpg"/>
<image clip-path="url(#c4_26)" preserveAspectRatio="none" x="505" y="289" width="89" height="73" xlink:href="img/5.jpg"/>
<image clip-path="url(#c5_26)" preserveAspectRatio="none" x="505" y="385" width="98" height="6" xlink:href="img/6.jpg"/>
<image clip-path="url(#c6_26)" preserveAspectRatio="none" x="505" y="383" width="89" height="3" xlink:href="img/7.jpg"/>
<path d="M530.3,302.3c-10.2,0,-18.4,8.2,-18.4,18.3v64.2H591V320.6c0,-10.1,-8.3,-18.3,-18.4,-18.3Z" class="g3_26"/>
<path d="M511.9,385.7h79v-7.2h-79v7.2Z" class="g8_26"/>
<path d="M518.1,328.5h2.5c.2,0,.4,-.2,.4,-.4c0,-.2,-.2,-.4,-.4,-.4h-2.5c-.2,0,-.4,.2,-.4,.4c0,.2,.2,.4,.4,.4m4.3,0h2.5c.3,0,.4,-.2,.4,-.4c0,-.2,-.1,-.4,-.4,-.4h-2.5c-.2,0,-.4,.2,-.4,.4c0,.2,.2,.4,.4,.4m4.3,0h2.6c.2,0,.3,-.2,.3,-.4c0,-.2,-.1,-.4,-.3,-.4h-2.6c-.2,0,-.4,.2,-.4,.4c0,.2,.2,.4,.4,.4m4.3,0h2.6c.2,0,.4,-.2,.4,-.4c0,-.2,-.2,-.4,-.4,-.4H531c-.2,0,-.3,.2,-.3,.4c0,.2,.1,.4,.3,.4Z" class="g5_26"/>
<path d="M569.6,360.7h2.2c.2,0,.4,-.1,.4,-.3c0,-.2,-.2,-.4,-.4,-.4h-2.2c-.2,0,-.4,.2,-.4,.4c0,.2,.2,.3,.4,.3m3.7,0h2.2c.2,0,.4,-.1,.4,-.3c0,-.2,-.2,-.4,-.4,-.4h-2.2c-.2,0,-.4,.2,-.4,.4c0,.2,.2,.3,.4,.3m3.6,0h2.2c.2,0,.4,-.1,.4,-.3c0,-.2,-.2,-.4,-.4,-.4h-2.2c-.2,0,-.4,.2,-.4,.4c0,.2,.2,.3,.4,.3m3.7,0h2.2c.2,0,.4,-.1,.4,-.3c0,-.2,-.2,-.4,-.4,-.4h-2.2c-.2,0,-.4,.2,-.4,.4c0,.2,.2,.3,.4,.3m3.6,0h2.2c.2,0,.4,-.1,.4,-.3c0,-.2,-.2,-.4,-.4,-.4h-2.2c-.2,0,-.4,.2,-.4,.4c0,.2,.2,.3,.4,.3Z" class="g5_26"/>
<path d="M568.8,328.5h2.3c.2,0,.3,-.2,.3,-.4c0,-.2,-.1,-.4,-.3,-.4h-2.3c-.2,0,-.4,.2,-.4,.4c0,.2,.2,.4,.4,.4m3.8,0h2.3c.2,0,.4,-.2,.4,-.4c0,-.2,-.2,-.4,-.4,-.4h-2.3c-.2,0,-.4,.2,-.4,.4c0,.2,.2,.4,.4,.4m3.8,0h2.3c.3,0,.4,-.2,.4,-.4c0,-.2,-.1,-.4,-.4,-.4h-2.3c-.2,0,-.3,.2,-.3,.4c0,.2,.1,.4,.3,.4m3.9,0h2.3c.2,0,.4,-.2,.4,-.4c0,-.2,-.2,-.4,-.4,-.4h-2.3c-.2,0,-.4,.2,-.4,.4c0,.2,.2,.4,.4,.4m3.8,0h2.3c.2,0,.4,-.2,.4,-.4c0,-.2,-.2,-.4,-.4,-.4h-2.3c-.2,0,-.4,.2,-.4,.4c0,.2,.2,.4,.4,.4Z" class="g5_26"/>
<path d="M564.9,345.9c0,.9,.2,1.8,.2,2.8c0,2.6,-1.3,4.6,-3.4,6c-1.7,1.1,-3.6,1.6,-5.6,1.6c-3.1,.1,-6.2,.1,-9.3,0c-2.1,0,-4.1,-.5,-5.8,-1.7c-2.5,-1.8,-3.6,-4.2,-3.2,-7.3c.2,-2.5,.4,-5,.5,-7.5c0,-2.4,-.1,-4.7,-.1,-7.1c-.1,-2.7,1.1,-4.8,3.2,-6.4c1.9,-1.4,4.1,-2,6.4,-2c2.4,-.1,4.9,-.1,7.4,0c2.1,0,4.1,.6,5.9,1.8c2.5,1.8,3.7,4.2,3.5,7.3c-.1,1.5,0,3.1,0,4.6c-.1,0,.1,5.2,.3,7.9m-13.5,-20v-.1c-1.2,0,-2.4,0,-3.6,0c-1.7,0,-3.3,.4,-4.8,1.3c-2,1.2,-3.3,2.9,-3.2,5.4c0,1.1,.4,2.2,.7,3.2c.6,1.8,1.4,3.4,2.8,4.6c.3,.3,.3,.7,0,1.1c-.8,.8,-1.7,1.6,-2.8,1.9c-.8,.3,-.9,.7,-.9,1.3c-.1,.7,.1,1.1,.5,1.6c1,1,2.2,1.7,3.5,2.3c2.3,1,4.7,1.3,7.2,1.3c2.7,.1,5.3,-.2,7.8,-1.1c1.7,-.6,3.3,-1.5,4.4,-2.9c.1,-.2,.3,-.4,.3,-.6c0,-.4,-.1,-.9,-.1,-1.3l-.3,-.3c-1.3,-.5,-2.4,-1.3,-3.3,-2.2c-.4,-.4,-.4,-.8,0,-1.2c.6,-.6,1.1,-1.2,1.6,-1.9c.9,-1.6,1.5,-3.4,1.8,-5.2c.2,-1.5,-.1,-2.8,-1,-4c-1.5,-2,-3.6,-3,-6,-3.2c-1.5,-.1,-3,0,-4.6,0m-12,21.3c-.5,2.1,0,3.9,1.6,5.4c1.6,1.6,3.7,2.2,5.9,2.2c3,0,6,0,9,0c1,0,2,-.1,3,-.5c1.8,-.6,3.3,-1.6,4.2,-3.4c.6,-1.2,.6,-2.5,.3,-3.8l-.1,.1c-1.4,1.8,-3.3,2.8,-5.5,3.4c-3.7,1,-7.4,1,-11.1,.4c-1.8,-.3,-3.6,-.9,-5.1,-1.9c-.8,-.6,-1.5,-1.3,-2.2,-1.9Z" class="g5_26"/>
<path d="M544.5,356.9c-.7,.5,-1.3,1,-1.9,1.4c-.7,.5,-2.3,1.8,-2.9,2.4c-.4,.2,-.7,.2,-1.1,.1c-.1,0,-.3,-.2,-.3,-.4c-.1,-.3,0,-.6,.2,-.8c.5,-.4,1.8,-1.5,2.3,-1.8c.5,-.4,1.1,-.9,1.6,-1.3c.2,-.1,.4,-.1,.6,-.1c.5,.1,.9,.3,1.5,.5Z" class="g5_26"/>
<path d="M558.3,356.9c.6,-.2,1.2,-.4,1.7,-.5l.4,.1c.9,.7,2.9,2.3,3.9,3c.1,.1,.3,.3,.4,.5c.1,.3,0,.7,-.3,.8c-.3,.1,-.7,.1,-.9,0c-1.4,-1,-3.8,-2.8,-5.2,-3.9Z" class="g5_26"/>
<path d="M551.4,339.6c-1.4,0,-2.8,.1,-4.2,0c-2.5,-.2,-4.5,-2,-5,-4.5c-.1,-.7,-.2,-1.3,-.4,-1.9c-.5,-2.5,1.3,-4.6,3.8,-4.6c3.9,0,7.7,0,11.6,0c2.4,0,4.1,1.9,3.8,4.3c-.2,1.3,-.3,2.8,-1.1,4c-1.1,1.8,-2.7,2.8,-4.9,2.8c-1.2,0,-2.4,0,-3.6,0Z" class="g5_26"/>
<path d="M557.3,343.1c.3,0,.6,0,1,0c.6,0,1,.4,.7,.8c-.6,1.1,-1.2,2.2,-1.9,3.3c-.1,.3,-.4,.4,-.7,.4c-.7,0,-1.4,0,-2.1,0c-.6,0,-.9,-.4,-.7,-.9c.6,-1,1.2,-2.1,1.8,-3.2c.2,-.3,.5,-.4,.9,-.4c.3,0,.7,0,1,0Z" class="g5_26"/>
<path d="M547.5,347.6c-.3,0,-.6,0,-.9,0c-.5,0,-.8,-.1,-.9,-.4c-.7,-1.1,-1.3,-2.1,-1.9,-3.2c-.2,-.5,.1,-.9,.8,-.9c.6,0,1.3,0,1.9,0c.4,0,.7,.2,.9,.4c.6,1.1,1.2,2.2,1.8,3.3c.3,.4,0,.8,-.6,.8c-.4,0,-.8,0,-1.1,0Z" class="g5_26"/>
<path d="M552.8,353.2c0,.7,-.7,1.3,-1.4,1.3c-.7,0,-1.3,-.6,-1.3,-1.3c0,-.7,.6,-1.4,1.3,-1.4c.7,0,1.3,.6,1.4,1.4Z" class="g5_26"/>
<path d="M518.1,360.7h2.2c.2,0,.4,-.1,.4,-.3c0,-.2,-.2,-.4,-.4,-.4h-2.2c-.2,0,-.4,.2,-.4,.4c0,.2,.2,.3,.4,.3m3.6,0H524c.2,0,.3,-.1,.3,-.3c0,-.2,-.1,-.4,-.3,-.4h-2.3c-.2,0,-.3,.2,-.3,.4c0,.2,.1,.3,.3,.3m3.7,0h2.2c.2,0,.4,-.1,.4,-.3c0,-.2,-.2,-.4,-.4,-.4h-2.2c-.2,0,-.4,.2,-.4,.4c0,.2,.2,.3,.4,.3m3.6,0h2.2c.3,0,.4,-.1,.4,-.3c0,-.2,-.1,-.4,-.4,-.4H529c-.2,0,-.3,.2,-.3,.4c0,.2,.1,.3,.3,.3m3.7,0h2.2c.2,0,.4,-.1,.4,-.3c0,-.2,-.2,-.4,-.4,-.4h-2.2c-.2,0,-.4,.2,-.4,.4c0,.2,.2,.3,.4,.3Z" class="g5_26"/>
<image clip-path="url(#c7_26)" preserveAspectRatio="none" x="769" y="361" width="99" height="30" xlink:href="img/8.jpg"/>
<image clip-path="url(#c8_26)" preserveAspectRatio="none" x="778" y="289" width="89" height="73" xlink:href="img/9.jpg"/>
<image clip-path="url(#c9_26)" preserveAspectRatio="none" x="778" y="383" width="89" height="3" xlink:href="img/10.jpg"/>
<path d="M794.6,302.3c-10.1,0,-18.3,8.2,-18.3,18.3v64.2h79V320.6c0,-10.1,-8.2,-18.3,-18.3,-18.3Z" class="g3_26"/>
<path d="M776.2,385.7h79.1v-7.2H776.2v7.2Z" class="g8_26"/>
<path d="M781.6,360.7h2.3c.2,0,.4,-.1,.4,-.3c0,-.2,-.2,-.4,-.4,-.4h-2.3c-.2,0,-.4,.2,-.4,.4c0,.2,.2,.3,.4,.3m3.9,0h2.3c.2,0,.4,-.1,.4,-.3c0,-.2,-.2,-.4,-.4,-.4h-2.3c-.2,0,-.4,.2,-.4,.4c0,.2,.2,.3,.4,.3m3.9,0h2.3c.2,0,.4,-.1,.4,-.3c0,-.2,-.2,-.4,-.4,-.4h-2.3c-.2,0,-.4,.2,-.4,.4c0,.2,.2,.3,.4,.3m3.9,0h2.3c.2,0,.4,-.1,.4,-.3c0,-.2,-.2,-.4,-.4,-.4h-2.3c-.2,0,-.4,.2,-.4,.4c0,.2,.2,.3,.4,.3m3.8,0h2.4c.2,0,.3,-.1,.3,-.3c0,-.2,-.1,-.4,-.3,-.4h-2.4c-.2,0,-.3,.2,-.3,.4c0,.2,.1,.3,.3,.3m3.9,0h2.3c.3,0,.4,-.1,.4,-.3c0,-.2,-.1,-.4,-.4,-.4H801c-.2,0,-.4,.2,-.4,.4c0,.2,.2,.3,.4,.3m3.9,0h2.3c.2,0,.4,-.1,.4,-.3c0,-.2,-.2,-.4,-.4,-.4h-2.3c-.2,0,-.4,.2,-.4,.4c0,.2,.2,.3,.4,.3m3.9,0h2.3c.2,0,.4,-.1,.4,-.3c0,-.2,-.2,-.4,-.4,-.4h-2.3c-.2,0,-.4,.2,-.4,.4c0,.2,.2,.3,.4,.3m3.9,0H815c.2,0,.4,-.1,.4,-.3c0,-.2,-.2,-.4,-.4,-.4h-2.3c-.2,0,-.4,.2,-.4,.4c0,.2,.2,.3,.4,.3m3.9,0h2.3c.2,0,.4,-.1,.4,-.3c0,-.2,-.2,-.4,-.4,-.4h-2.3c-.3,0,-.4,.2,-.4,.4c0,.2,.1,.3,.4,.3m3.8,0h2.4c.2,0,.3,-.1,.3,-.3c0,-.2,-.1,-.4,-.3,-.4h-2.4c-.2,0,-.3,.2,-.3,.4c0,.2,.1,.3,.3,.3m3.9,0h2.3c.3,0,.4,-.1,.4,-.3c0,-.2,-.1,-.4,-.4,-.4h-2.3c-.2,0,-.4,.2,-.4,.4c0,.2,.2,.3,.4,.3m3.9,0h2.3c.2,0,.4,-.1,.4,-.3c0,-.2,-.2,-.4,-.4,-.4h-2.3c-.2,0,-.4,.2,-.4,.4c0,.2,.2,.3,.4,.3m3.9,0h2.3c.2,0,.4,-.1,.4,-.3c0,-.2,-.2,-.4,-.4,-.4h-2.3c-.2,0,-.4,.2,-.4,.4c0,.2,.2,.3,.4,.3m3.9,0h2.3c.2,0,.4,-.1,.4,-.3c0,-.2,-.2,-.4,-.4,-.4H836c-.2,0,-.4,.2,-.4,.4c0,.2,.2,.3,.4,.3m3.8,0h2.4c.2,0,.4,-.1,.4,-.3c0,-.2,-.2,-.4,-.4,-.4h-2.4c-.2,0,-.3,.2,-.3,.4c0,.2,.1,.3,.3,.3m3.9,0h2.4c.2,0,.3,-.1,.3,-.3c0,-.2,-.1,-.4,-.3,-.4h-2.4c-.2,0,-.4,.2,-.4,.4c0,.2,.2,.3,.4,.3m3.9,0h2.3c.2,0,.4,-.1,.4,-.3c0,-.2,-.2,-.4,-.4,-.4h-2.3c-.2,0,-.4,.2,-.4,.4c0,.2,.2,.3,.4,.3Z" class="g9_26"/>
<path d="M781,324.3h2.3c.2,0,.4,-.1,.4,-.3c0,-.2,-.2,-.4,-.4,-.4H781c-.2,0,-.4,.2,-.4,.4c0,.2,.2,.3,.4,.3m3.8,0h2.4c.2,0,.4,-.1,.4,-.3c0,-.2,-.2,-.4,-.4,-.4h-2.4c-.2,0,-.3,.2,-.3,.4c0,.2,.1,.3,.3,.3m3.9,0h2.4c.2,0,.3,-.1,.3,-.3c0,-.2,-.1,-.4,-.3,-.4h-2.4c-.2,0,-.4,.2,-.4,.4c0,.2,.2,.3,.4,.3m3.9,0h2.3c.2,0,.4,-.1,.4,-.3c0,-.2,-.2,-.4,-.4,-.4h-2.3c-.2,0,-.4,.2,-.4,.4c0,.2,.2,.3,.4,.3m3.9,0h2.3c.2,0,.4,-.1,.4,-.3c0,-.2,-.2,-.4,-.4,-.4h-2.3c-.2,0,-.4,.2,-.4,.4c0,.2,.2,.3,.4,.3m3.9,0h2.3c.2,0,.4,-.1,.4,-.3c0,-.2,-.2,-.4,-.4,-.4h-2.3c-.2,0,-.4,.2,-.4,.4c0,.2,.2,.3,.4,.3m3.9,0h2.3c.2,0,.4,-.1,.4,-.3c0,-.2,-.2,-.4,-.4,-.4h-2.3c-.3,0,-.4,.2,-.4,.4c0,.2,.1,.3,.4,.3m3.8,0h2.4c.2,0,.3,-.1,.3,-.3c0,-.2,-.1,-.4,-.3,-.4h-2.4c-.2,0,-.3,.2,-.3,.4c0,.2,.1,.3,.3,.3m3.9,0h2.3c.3,0,.4,-.1,.4,-.3c0,-.2,-.1,-.4,-.4,-.4H812c-.2,0,-.4,.2,-.4,.4c0,.2,.2,.3,.4,.3m3.9,0h2.3c.2,0,.4,-.1,.4,-.3c0,-.2,-.2,-.4,-.4,-.4h-2.3c-.2,0,-.4,.2,-.4,.4c0,.2,.2,.3,.4,.3m3.9,0h2.3c.2,0,.4,-.1,.4,-.3c0,-.2,-.2,-.4,-.4,-.4h-2.3c-.2,0,-.4,.2,-.4,.4c0,.2,.2,.3,.4,.3m3.9,0H826c.2,0,.4,-.1,.4,-.3c0,-.2,-.2,-.4,-.4,-.4h-2.3c-.2,0,-.4,.2,-.4,.4c0,.2,.2,.3,.4,.3m3.8,0h2.4c.2,0,.4,-.1,.4,-.3c0,-.2,-.2,-.4,-.4,-.4h-2.4c-.2,0,-.3,.2,-.3,.4c0,.2,.1,.3,.3,.3m3.9,0h2.4c.2,0,.3,-.1,.3,-.3c0,-.2,-.1,-.4,-.3,-.4h-2.4c-.2,0,-.4,.2,-.4,.4c0,.2,.2,.3,.4,.3m3.9,0h2.3c.2,0,.4,-.1,.4,-.3c0,-.2,-.2,-.4,-.4,-.4h-2.3c-.2,0,-.4,.2,-.4,.4c0,.2,.2,.3,.4,.3m3.9,0h2.3c.2,0,.4,-.1,.4,-.3c0,-.2,-.2,-.4,-.4,-.4h-2.3c-.2,0,-.4,.2,-.4,.4c0,.2,.2,.3,.4,.3m3.9,0h2.3c.2,0,.4,-.1,.4,-.3c0,-.2,-.2,-.4,-.4,-.4h-2.3c-.2,0,-.4,.2,-.4,.4c0,.2,.2,.3,.4,.3m3.9,0h2.3c.2,0,.4,-.1,.4,-.3c0,-.2,-.2,-.4,-.4,-.4H847c-.3,0,-.4,.2,-.4,.4c0,.2,.1,.3,.4,.3Z" class="g9_26"/>
<path d="M829.7,341.1v.7h4.5c1.2,0,2.1,-.9,2.1,-2v-.4c0,-1.1,-.9,-2,-2.1,-2h-4.5c-.6,0,-1,.2,-1.4,.5c-.1,.1,-.2,.3,-.2,.5v.3c0,.2,-.1,.3,-.3,.4c-.1,.2,-.2,.4,-.2,.6v.1c0,1.1,.9,2,2.1,2v-1.3c-.4,0,-.7,-.3,-.7,-.7v-.1h-.7l.5,.5c.4,-.4,.6,-.9,.6,-1.5v-.3h-.6l.4,.5c.1,-.1,.3,-.2,.5,-.2h4.5c.4,0,.7,.3,.7,.7v.4c0,.4,-.3,.7,-.7,.7h-4.5Z" class="g9_26"/>
<path d="M828.8,331.8l-.5,.5c.4,.4,.8,.6,1.4,.6h4.5c1.2,0,2.1,-1,2.1,-2.1v-.4c0,-1.1,-.9,-2,-2.1,-2h-4.5c-1.2,0,-2.1,.9,-2.1,2v.2c0,.2,.1,.4,.2,.5c.2,.1,.3,.3,.3,.5v.2c0,.2,.1,.4,.2,.5l.5,-.5h.6v-.2c0,-.6,-.2,-1.2,-.6,-1.5l-.5,.5h.7v-.2c0,-.3,.3,-.6,.7,-.6h4.5c.4,0,.7,.3,.7,.6v.4c0,.4,-.3,.7,-.7,.7h-4.5c-.2,0,-.4,-.1,-.5,-.2l-.4,.5h.6Z" class="g9_26"/>
<path d="M835.3,340.6v.7h1.9c1,0,1.8,-.8,1.8,-1.8v-8.7c0,-1,-.8,-1.9,-1.8,-1.9h-1.9c-.2,0,-.5,.2,-.6,.4c-.1,.3,-.1,.5,.1,.7c.1,.2,.1,.3,.1,.4v.4c0,.4,-.3,.7,-.7,.7h-4.5c-.2,0,-.4,-.1,-.5,-.2c-.2,-.2,-.5,-.2,-.7,-.1c-.3,.1,-.4,.3,-.4,.6v6.6c0,.3,.1,.5,.4,.6c.2,.1,.5,.1,.7,-.1c.1,-.1,.3,-.2,.5,-.2h4.5c.4,0,.7,.3,.7,.7v.4c0,.1,-.1,.3,-.2,.4c-.1,.2,-.2,.5,0,.7c.1,.3,.3,.4,.6,.4v-.7l.5,.5c.3,-.4,.5,-.8,.5,-1.3v-.4c0,-1.1,-.9,-2,-2.1,-2h-4.5c-.6,0,-1,.2,-1.4,.5l.5,.5h.6v-6.6h-.6l-.5,.5c.4,.4,.8,.6,1.4,.6h4.5c1.2,0,2.1,-1,2.1,-2.1v-.4c0,-.4,-.2,-.8,-.4,-1.2l-.6,.4v.7h1.9c.2,0,.4,.2,.4,.5v8.7c0,.3,-.2,.4,-.4,.4h-1.9v.7l.5,.5Z" class="g9_26"/>
<path d="M828.8,331.6h.6c0,-1.1,-.9,-2.1,-2,-2.1h-.7c-1.1,0,-2,1,-2,2.1v7.1c0,1.1,.9,2,2,2h.7c1.1,0,2,-.9,2,-2v-7.1h-1.3v7.1c0,.3,-.3,.6,-.7,.6h-.7c-.3,0,-.6,-.3,-.6,-.6v-7.1c0,-.4,.3,-.7,.6,-.7h.7c.4,0,.7,.3,.7,.7Z" class="g9_26"/>
<path d="M829.7,353.9v.7h4.5c1.2,0,2.1,-.9,2.1,-2v-.4c0,-1.1,-.9,-2.1,-2.1,-2.1h-4.5c-.6,0,-1,.2,-1.4,.6c-.1,.1,-.2,.3,-.2,.5v.2c0,.2,-.1,.4,-.3,.5c-.1,.2,-.2,.3,-.2,.5v.2c0,1.1,.9,2,2.1,2v-1.4c-.4,0,-.7,-.3,-.7,-.6v-.2h-.7l.5,.5c.4,-.3,.6,-.9,.6,-1.5v-.2h-.6l.4,.5c.1,-.1,.3,-.2,.5,-.2h4.5c.4,0,.7,.3,.7,.7v.4c0,.3,-.3,.6,-.7,.6h-4.5Z" class="g9_26"/>
<path d="M828.8,344.6l-.5,.5c.4,.3,.8,.5,1.4,.5h4.5c1.2,0,2.1,-.9,2.1,-2v-.4c0,-1.1,-.9,-2,-2.1,-2h-4.5c-1.2,0,-2.1,.9,-2.1,2v.2c0,.2,.1,.3,.2,.5c.2,.1,.3,.3,.3,.5v.2c0,.2,.1,.4,.2,.5l.5,-.5h.6v-.2c0,-.6,-.2,-1.2,-.6,-1.5l-.5,.5h.7v-.2c0,-.4,.3,-.7,.7,-.7h4.5c.4,0,.7,.3,.7,.7v.4c0,.4,-.3,.7,-.7,.7h-4.5c-.2,0,-.4,-.1,-.5,-.2l-.4,.5h.6Z" class="g9_26"/>
<path d="M835.3,353.4v.7h1.9c1,0,1.8,-.8,1.8,-1.8v-8.8c0,-1,-.8,-1.8,-1.8,-1.8h-1.9c-.2,0,-.5,.2,-.6,.4c-.1,.2,-.1,.5,.1,.7c.1,.1,.1,.3,.1,.4v.4c0,.4,-.3,.7,-.7,.7h-4.5c-.2,0,-.4,-.1,-.5,-.2c-.2,-.2,-.5,-.2,-.7,-.1c-.3,.1,-.4,.3,-.4,.6v6.6c0,.3,.1,.5,.4,.6c.2,.1,.5,.1,.7,-.1c.1,-.1,.3,-.2,.5,-.2h4.5c.4,0,.7,.3,.7,.7v.4c0,.1,-.1,.3,-.2,.4c-.1,.2,-.2,.5,0,.7c.1,.3,.3,.4,.6,.4v-.7l.5,.4c.3,-.3,.5,-.7,.5,-1.2v-.4c0,-1.1,-.9,-2.1,-2.1,-2.1h-4.5c-.6,0,-1,.2,-1.4,.6l.5,.5h.6v-6.6h-.6l-.5,.5c.4,.3,.8,.5,1.4,.5h4.5c1.2,0,2.1,-.9,2.1,-2v-.4c0,-.4,-.2,-.9,-.4,-1.2l-.6,.4v.7h1.9c.2,0,.4,.2,.4,.4v8.8c0,.2,-.2,.4,-.4,.4h-1.9v.7l.5,.4Z" class="g9_26"/>
<path d="M828.8,344.4h.6c0,-1.2,-.9,-2.1,-2,-2.1h-.7c-1.1,0,-2,.9,-2,2.1v7c0,1.2,.9,2.1,2,2.1h.7c1.1,0,2,-.9,2,-2.1v-7h-1.3v7c0,.4,-.3,.7,-.7,.7h-.7c-.3,0,-.6,-.3,-.6,-.7v-7c0,-.4,.3,-.7,.6,-.7h.7c.4,0,.7,.3,.7,.7Z" class="g9_26"/>
<path d="M814.4,340.3h3.2c.5,0,.9,-.2,.9,-.6v-.1c0,-.3,-.4,-.6,-.9,-.6h-3.2c-.3,0,-.5,.1,-.7,.2v.1c0,.1,-.1,.3,-.3,.4c0,.4,.5,.6,1,.6Z" class="g9_26"/>
<path d="M813.9,330.5c.1,.1,.4,.1,.6,.1h3.3c.6,0,1,-.2,1,-.6v-.1c0,-.4,-.4,-.7,-1,-.7h-3.3c-.5,0,-1,.3,-1,.7c.2,.1,.4,.3,.4,.5Z" class="g9_26"/>
<path d="M819.7,340.3h1.8c.6,0,1.1,-.5,1.1,-1.1v-8.7c0,-.7,-.5,-1.2,-1.1,-1.2h-1.8c.2,.3,.3,.5,.3,.8v.4c0,.8,-.6,1.4,-1.3,1.4h-4.3c-.4,0,-.7,-.2,-.9,-.4v6.6c.2,-.2,.5,-.4,.9,-.4h4.3c.7,0,1.3,.6,1.3,1.4v.4c0,.3,-.1,.6,-.3,.8Z" class="g9_26"/>
<path d="M812.1,332c0,-.6,-.4,-1,-1,-1c-.6,0,-1.1,.4,-1.1,1v5.6c0,.6,.5,1.1,1.1,1.1c.6,0,1,-.5,1,-1.1Z" class="g9_26"/>
<path d="M813.9,353.9v.7h4.6c1.1,0,2,-.9,2,-2v-.4c0,-1.1,-.9,-2.1,-2,-2.1h-4.6c-.5,0,-1,.2,-1.3,.6c-.2,.1,-.3,.3,-.3,.5v.2c0,.2,0,.4,-.2,.5c-.1,.2,-.2,.3,-.2,.5v.2c0,1.1,.9,2,2,2v-1.4c-.3,0,-.6,-.3,-.6,-.6v-.2h-.7l.4,.5c.4,-.3,.7,-.9,.7,-1.5v-.2H813l.5,.5c.1,-.1,.3,-.2,.4,-.2h4.6c.4,0,.7,.3,.7,.7v.4c0,.3,-.3,.6,-.7,.6h-4.6Z" class="g9_26"/>
<path d="M813,344.6l-.4,.5c.3,.3,.8,.5,1.3,.5h4.6c1.1,0,2,-.9,2,-2v-.4c0,-1.1,-.9,-2,-2,-2h-4.6c-1.1,0,-2,.9,-2,2v.2c0,.2,.1,.3,.2,.5c.2,.1,.2,.3,.2,.5v.2c0,.2,.1,.4,.3,.5l.4,-.5h.7v-.2c0,-.6,-.3,-1.2,-.7,-1.5l-.4,.5h.7v-.2c0,-.4,.3,-.7,.6,-.7h4.6c.4,0,.7,.3,.7,.7v.4c0,.4,-.3,.7,-.7,.7h-4.6c-.1,0,-.3,-.1,-.4,-.2l-.5,.5h.7Z" class="g9_26"/>
<path d="M819.5,353.4v.7h1.9c1,0,1.8,-.8,1.8,-1.8v-8.8c0,-1,-.8,-1.8,-1.8,-1.8h-1.8c-.3,0,-.5,.2,-.6,.4c-.1,.2,-.1,.5,0,.7c.1,.1,.2,.3,.2,.4v.4c0,.4,-.3,.7,-.7,.7h-4.6c-.1,0,-.3,-.1,-.4,-.2c-.2,-.2,-.5,-.2,-.8,-.1c-.2,.1,-.4,.3,-.4,.6v6.6c0,.3,.2,.5,.4,.6c.3,.1,.6,.1,.8,-.1c.1,-.1,.3,-.2,.4,-.2h4.6c.4,0,.7,.3,.7,.7v.4c0,.1,-.1,.3,-.2,.4c-.2,.2,-.2,.5,-.1,.7c.1,.3,.4,.4,.6,.4v-.7l.6,.4c.3,-.3,.4,-.7,.4,-1.2v-.4c0,-1.1,-.9,-2.1,-2,-2.1h-4.6c-.5,0,-1,.2,-1.3,.6l.4,.5h.7v-6.6H813l-.4,.5c.3,.3,.8,.5,1.3,.5h4.6c1.1,0,2,-.9,2,-2v-.4c0,-.4,-.1,-.9,-.4,-1.2l-.5,.4v.7h1.8c.3,0,.5,.2,.5,.4v8.8c0,.2,-.2,.4,-.5,.4h-1.9v.7l.6,.4Z" class="g9_26"/>
<path d="M813,344.4h.7c0,-1.2,-.9,-2.1,-2,-2.1H811c-1.1,0,-2.1,.9,-2.1,2.1v7c0,1.2,1,2.1,2.1,2.1h.7c1.1,0,2,-.9,2,-2.1v-7h-1.4v7c0,.4,-.3,.7,-.6,.7H811c-.4,0,-.7,-.3,-.7,-.7v-7c0,-.4,.3,-.7,.7,-.7h.7c.3,0,.6,.3,.6,.7Z" class="g9_26"/>
<path d="M798.2,341.1v.7h4.6c1.1,0,2,-.9,2,-2v-.4c0,-1.1,-.9,-2,-2,-2h-4.6c-.5,0,-1,.2,-1.4,.5c-.1,.1,-.2,.3,-.2,.5v.3c0,.2,-.1,.3,-.2,.4c-.2,.2,-.2,.4,-.2,.6v.1c0,1.1,.9,2,2,2v-1.3c-.4,0,-.7,-.3,-.7,-.7v-.1h-.7l.5,.5c.4,-.4,.7,-.9,.7,-1.5v-.3h-.7l.4,.5c.2,-.1,.3,-.2,.5,-.2h4.6c.3,0,.6,.3,.6,.7v.4c0,.4,-.3,.7,-.6,.7h-4.6Z" class="g9_26"/>
<path d="M797.3,331.8l-.5,.5c.4,.4,.9,.6,1.4,.6h4.6c1.1,0,2,-1,2,-2.1v-.4c0,-1.1,-.9,-2,-2,-2h-4.6c-1.1,0,-2,.9,-2,2v.2c0,.2,0,.4,.2,.5c.1,.1,.2,.3,.2,.5v.2c0,.2,.1,.4,.2,.5l.5,-.5h.7v-.2c0,-.6,-.3,-1.2,-.7,-1.5l-.5,.5h.7v-.2c0,-.3,.3,-.6,.7,-.6h4.6c.3,0,.6,.3,.6,.6v.4c0,.4,-.3,.7,-.6,.7h-4.6c-.2,0,-.3,-.1,-.5,-.2l-.4,.5h.7Z" class="g9_26"/>
<path d="M803.8,340.6v.7h1.9c1,0,1.8,-.8,1.8,-1.8v-8.7c0,-1,-.8,-1.9,-1.8,-1.9h-1.8c-.3,0,-.5,.2,-.7,.4c-.1,.3,-.1,.5,.1,.7c.1,.2,.1,.3,.1,.4v.4c0,.4,-.3,.7,-.6,.7h-4.6c-.2,0,-.3,-.1,-.5,-.2c-.2,-.2,-.4,-.2,-.7,-.1c-.2,.1,-.4,.3,-.4,.6v6.6c0,.3,.2,.5,.4,.6c.3,.1,.5,.1,.7,-.1c.2,-.1,.3,-.2,.5,-.2h4.6c.3,0,.6,.3,.6,.7v.4c0,.1,0,.3,-.1,.4c-.2,.2,-.2,.5,-.1,.7c.1,.3,.3,.4,.6,.4v-.7l.5,.5c.3,-.4,.5,-.8,.5,-1.3v-.4c0,-1.1,-.9,-2,-2,-2h-4.6c-.5,0,-1,.2,-1.4,.5l.5,.5h.7v-6.6h-.7l-.5,.5c.4,.4,.9,.6,1.4,.6h4.6c1.1,0,2,-1,2,-2.1v-.4c0,-.4,-.1,-.8,-.4,-1.2l-.5,.4v.7h1.8c.2,0,.4,.2,.4,.5v8.7c0,.3,-.2,.4,-.4,.4h-1.9v.7l.5,.5Z" class="g9_26"/>
<path d="M797.3,331.6h.7c0,-1.1,-.9,-2.1,-2.1,-2.1h-.6c-1.2,0,-2.1,1,-2.1,2.1v7.1c0,1.1,.9,2,2.1,2h.6c1.2,0,2.1,-.9,2.1,-2v-7.1h-1.4v7.1c0,.3,-.3,.6,-.7,.6h-.6c-.4,0,-.7,-.3,-.7,-.6v-7.1c0,-.4,.3,-.7,.7,-.7h.6c.4,0,.7,.3,.7,.7Z" class="g9_26"/>
<path d="M798.2,353.9v.7h4.6c1.1,0,2,-.9,2,-2v-.4c0,-1.1,-.9,-2.1,-2,-2.1h-4.6c-.5,0,-1,.2,-1.4,.6c-.1,.1,-.2,.3,-.2,.5v.2c0,.2,-.1,.4,-.2,.5c-.2,.2,-.2,.3,-.2,.5v.2c0,1.1,.9,2,2,2v-1.4c-.4,0,-.7,-.3,-.7,-.6v-.2h-.7l.5,.5c.4,-.3,.7,-.9,.7,-1.5v-.2h-.7l.4,.5c.2,-.1,.3,-.2,.5,-.2h4.6c.3,0,.6,.3,.6,.7v.4c0,.3,-.3,.6,-.6,.6h-4.6Z" class="g9_26"/>
<path d="M797.3,344.6l-.5,.5c.4,.3,.9,.5,1.4,.5h4.6c1.1,0,2,-.9,2,-2v-.4c0,-1.1,-.9,-2,-2,-2h-4.6c-1.1,0,-2,.9,-2,2v.2c0,.2,0,.3,.2,.5c.1,.1,.2,.3,.2,.5v.2c0,.2,.1,.4,.2,.5l.5,-.5h.7v-.2c0,-.6,-.3,-1.2,-.7,-1.5l-.5,.5h.7v-.2c0,-.4,.3,-.7,.7,-.7h4.6c.3,0,.6,.3,.6,.7v.4c0,.4,-.3,.7,-.6,.7h-4.6c-.2,0,-.3,-.1,-.5,-.2l-.4,.5h.7Z" class="g9_26"/>
<path d="M803.8,353.4v.7h1.9c1,0,1.8,-.8,1.8,-1.8v-8.8c0,-1,-.8,-1.8,-1.8,-1.8h-1.8c-.3,0,-.5,.2,-.7,.4c-.1,.2,-.1,.5,.1,.7c.1,.1,.1,.3,.1,.4v.4c0,.4,-.3,.7,-.6,.7h-4.6c-.2,0,-.3,-.1,-.5,-.2c-.2,-.2,-.4,-.2,-.7,-.1c-.2,.1,-.4,.3,-.4,.6v6.6c0,.3,.2,.5,.4,.6c.3,.1,.5,.1,.7,-.1c.2,-.1,.3,-.2,.5,-.2h4.6c.3,0,.6,.3,.6,.7v.4c0,.1,0,.3,-.1,.4c-.2,.2,-.2,.5,-.1,.7c.1,.3,.3,.4,.6,.4v-.7l.5,.4c.3,-.3,.5,-.7,.5,-1.2v-.4c0,-1.1,-.9,-2.1,-2,-2.1h-4.6c-.5,0,-1,.2,-1.4,.6l.5,.5h.7v-6.6h-.7l-.5,.5c.4,.3,.9,.5,1.4,.5h4.6c1.1,0,2,-.9,2,-2v-.4c0,-.4,-.1,-.9,-.4,-1.2l-.5,.4v.7h1.8c.2,0,.4,.2,.4,.4v8.8c0,.2,-.2,.4,-.4,.4h-1.9v.7l.5,.4Z" class="g9_26"/>
<path d="M797.3,344.4h.7c0,-1.2,-.9,-2.1,-2.1,-2.1h-.6c-1.2,0,-2.1,.9,-2.1,2.1v7c0,1.2,.9,2.1,2.1,2.1h.6c1.2,0,2.1,-.9,2.1,-2.1v-7h-1.4v7c0,.4,-.3,.7,-.7,.7h-.6c-.4,0,-.7,-.3,-.7,-.7v-7c0,-.4,.3,-.7,.7,-.7h.6c.4,0,.7,.3,.7,.7Z" class="g9_26"/>
<image clip-path="url(#ca_26)" preserveAspectRatio="none" x="681" y="361" width="89" height="30" xlink:href="img/11.jpg"/>
<image clip-path="url(#cb_26)" preserveAspectRatio="none" x="690" y="289" width="89" height="73" xlink:href="img/12.jpg"/>
<image clip-path="url(#cc_26)" preserveAspectRatio="none" x="690" y="383" width="80" height="3" xlink:href="img/13.jpg"/>
<image clip-path="url(#cd_26)" preserveAspectRatio="none" x="769" y="361" width="11" height="31" xlink:href="img/14.jpg"/>
<image clip-path="url(#ce_26)" preserveAspectRatio="none" x="769" y="289" width="10" height="73" xlink:href="img/15.jpg"/>
<image clip-path="url(#cf_26)" preserveAspectRatio="none" x="769" y="383" width="11" height="3" xlink:href="img/16.jpg"/>
<image clip-path="url(#cg_26)" preserveAspectRatio="none" x="776" y="311" width="3" height="68" xlink:href="img/17.jpg"/>
<image clip-path="url(#ch_26)" preserveAspectRatio="none" x="776" y="378" width="3" height="8" xlink:href="img/18.jpg"/>
<path d="M706.5,302.3c-10.1,0,-18.3,8.2,-18.3,18.3v64.2h79V320.6c0,-10.1,-8.2,-18.3,-18.3,-18.3Z" class="g3_26"/>
<path d="M688.1,385.7h79.1v-7.2H688.1v7.2Z" class="g8_26"/>
<path d="M693.5,360.7h2.3c.3,0,.4,-.1,.4,-.3c0,-.2,-.1,-.4,-.4,-.4h-2.3c-.2,0,-.4,.2,-.4,.4c0,.2,.2,.3,.4,.3m3.9,0h2.3c.2,0,.4,-.1,.4,-.3c0,-.2,-.2,-.4,-.4,-.4h-2.3c-.2,0,-.4,.2,-.4,.4c0,.2,.2,.3,.4,.3m3.9,0h2.3c.2,0,.4,-.1,.4,-.3c0,-.2,-.2,-.4,-.4,-.4h-2.3c-.2,0,-.4,.2,-.4,.4c0,.2,.2,.3,.4,.3m3.9,0h2.3c.2,0,.4,-.1,.4,-.3c0,-.2,-.2,-.4,-.4,-.4h-2.3c-.2,0,-.4,.2,-.4,.4c0,.2,.2,.3,.4,.3m3.8,0h2.4c.2,0,.4,-.1,.4,-.3c0,-.2,-.2,-.4,-.4,-.4H709c-.2,0,-.3,.2,-.3,.4c0,.2,.1,.3,.3,.3m3.9,0h2.4c.2,0,.3,-.1,.3,-.3c0,-.2,-.1,-.4,-.3,-.4h-2.4c-.2,0,-.4,.2,-.4,.4c0,.2,.2,.3,.4,.3m3.9,0h2.3c.2,0,.4,-.1,.4,-.3c0,-.2,-.2,-.4,-.4,-.4h-2.3c-.2,0,-.4,.2,-.4,.4c0,.2,.2,.3,.4,.3m3.9,0H723c.2,0,.4,-.1,.4,-.3c0,-.2,-.2,-.4,-.4,-.4h-2.3c-.2,0,-.4,.2,-.4,.4c0,.2,.2,.3,.4,.3m3.9,0h2.3c.2,0,.4,-.1,.4,-.3c0,-.2,-.2,-.4,-.4,-.4h-2.3c-.2,0,-.4,.2,-.4,.4c0,.2,.2,.3,.4,.3m3.9,0h2.3c.2,0,.4,-.1,.4,-.3c0,-.2,-.2,-.4,-.4,-.4h-2.3c-.3,0,-.4,.2,-.4,.4c0,.2,.1,.3,.4,.3m3.8,0h2.4c.2,0,.3,-.1,.3,-.3c0,-.2,-.1,-.4,-.3,-.4h-2.4c-.2,0,-.3,.2,-.3,.4c0,.2,.1,.3,.3,.3m3.9,0h2.3c.3,0,.4,-.1,.4,-.3c0,-.2,-.1,-.4,-.4,-.4h-2.3c-.2,0,-.4,.2,-.4,.4c0,.2,.2,.3,.4,.3m3.9,0h2.3c.2,0,.4,-.1,.4,-.3c0,-.2,-.2,-.4,-.4,-.4h-2.3c-.2,0,-.4,.2,-.4,.4c0,.2,.2,.3,.4,.3m3.9,0h2.3c.2,0,.4,-.1,.4,-.3c0,-.2,-.2,-.4,-.4,-.4H744c-.2,0,-.4,.2,-.4,.4c0,.2,.2,.3,.4,.3m3.9,0h2.3c.2,0,.4,-.1,.4,-.3c0,-.2,-.2,-.4,-.4,-.4h-2.3c-.2,0,-.4,.2,-.4,.4c0,.2,.2,.3,.4,.3m3.8,0h2.4c.2,0,.4,-.1,.4,-.3c0,-.2,-.2,-.4,-.4,-.4h-2.4c-.2,0,-.3,.2,-.3,.4c0,.2,.1,.3,.3,.3m3.9,0H758c.2,0,.3,-.1,.3,-.3c0,-.2,-.1,-.4,-.3,-.4h-2.4c-.2,0,-.4,.2,-.4,.4c0,.2,.2,.3,.4,.3m3.9,0h2.3c.2,0,.4,-.1,.4,-.3c0,-.2,-.2,-.4,-.4,-.4h-2.3c-.2,0,-.4,.2,-.4,.4c0,.2,.2,.3,.4,.3Z" class="ga_26"/>
<path d="M741,324.3h2.2c.2,0,.4,-.1,.4,-.3c0,-.2,-.2,-.4,-.4,-.4H741c-.2,0,-.4,.2,-.4,.4c0,.2,.2,.3,.4,.3m3.7,0h2.2c.2,0,.4,-.1,.4,-.3c0,-.2,-.2,-.4,-.4,-.4h-2.2c-.2,0,-.4,.2,-.4,.4c0,.2,.2,.3,.4,.3m3.7,0h2.2c.3,0,.4,-.1,.4,-.3c0,-.2,-.1,-.4,-.4,-.4h-2.2c-.2,0,-.4,.2,-.4,.4c0,.2,.2,.3,.4,.3m3.7,0h2.3c.2,0,.3,-.1,.3,-.3c0,-.2,-.1,-.4,-.3,-.4h-2.3c-.2,0,-.4,.2,-.4,.4c0,.2,.2,.3,.4,.3m3.7,0h2.3c.2,0,.4,-.1,.4,-.3c0,-.2,-.2,-.4,-.4,-.4h-2.3c-.2,0,-.3,.2,-.3,.4c0,.2,.1,.3,.3,.3m3.8,0h2.2c.2,0,.4,-.1,.4,-.3c0,-.2,-.2,-.4,-.4,-.4h-2.2c-.2,0,-.4,.2,-.4,.4c0,.2,.2,.3,.4,.3Z" class="ga_26"/>
<path d="M693.5,324.3h2.3c.2,0,.4,-.1,.4,-.3c0,-.2,-.2,-.4,-.4,-.4h-2.3c-.2,0,-.3,.2,-.3,.4c0,.2,.1,.3,.3,.3m3.8,0h2.2c.2,0,.4,-.1,.4,-.3c0,-.2,-.2,-.4,-.4,-.4h-2.2c-.2,0,-.4,.2,-.4,.4c0,.2,.2,.3,.4,.3m3.7,0h2.2c.2,0,.4,-.1,.4,-.3c0,-.2,-.2,-.4,-.4,-.4H701c-.2,0,-.4,.2,-.4,.4c0,.2,.2,.3,.4,.3m3.7,0H707c.2,0,.3,-.1,.3,-.3c0,-.2,-.1,-.4,-.3,-.4h-2.3c-.2,0,-.4,.2,-.4,.4c0,.2,.2,.3,.4,.3m3.7,0h2.3c.2,0,.4,-.1,.4,-.3c0,-.2,-.2,-.4,-.4,-.4h-2.3c-.2,0,-.4,.2,-.4,.4c0,.2,.2,.3,.4,.3m3.7,0h2.3c.2,0,.4,-.1,.4,-.3c0,-.2,-.2,-.4,-.4,-.4h-2.3c-.2,0,-.3,.2,-.3,.4c0,.2,.1,.3,.3,.3Z" class="ga_26"/>
<path d="M718.4,327v-.8c-1.1,0,-2.1,.9,-2.1,2.1v29.3h23V328.3c0,-1.2,-1,-2.1,-2.1,-2.1H718.4v1.5h18.8c.3,0,.6,.3,.6,.6v27.8H717.9V328.3c0,-.3,.2,-.6,.5,-.6Z" class="ga_26"/>
<path d="M720.4,321.9v-.3c-.6,0,-1,.4,-1,1v4.6h16.8v-4.6c0,-.6,-.4,-1,-1,-1H720.4v.7h14.8c.2,0,.3,.1,.3,.3v3.9H720.1v-3.9c0,-.2,.1,-.3,.3,-.3Z" class="ga_26"/>
<path d="M725.2,349h-.3v7.7l.1,.2l.2,.1h5.2l.3,-.1l.1,-.2V349l-.1,-.2l-.3,-.1h-5.2l-.2,.1l-.1,.2h.3v.4h4.9v6.9h-4.5V349h-.4v.4Z" class="ga_26"/>
<path d="M732.2,349h-.4v4.1l.1,.3l.3,.1h4.1l.3,-.1l.1,-.3V349l-.1,-.2l-.3,-.1h-4.1l-.3,.1l-.1,.2h.4v.4h3.7v3.4h-3.3V349h-.4v.4Z" class="ga_26"/>
<path d="M719.4,349H719v4.1l.1,.3l.3,.1h4.1l.3,-.1l.1,-.3V349l-.1,-.2l-.3,-.1h-4.1l-.3,.1l-.1,.2h.4v.4h3.7v3.4h-3.4V349h-.3v.4Z" class="ga_26"/>
<path d="M727.4,353h.8v-1h-.8v1Z" class="ga_26"/>
<path d="M732.2,342.7h-.4v4.1l.1,.3l.3,.1h4.1l.3,-.1l.1,-.3v-4.1l-.1,-.2l-.3,-.2h-4.1l-.3,.2l-.1,.2h.4v.4h3.7v3.3h-3.3v-3.7h-.4v.4Z" class="ga_26"/>
<path d="M725.8,342.7h-.4v4.1l.1,.3l.3,.1h4.1l.3,-.1l.1,-.3v-4.1l-.1,-.2l-.3,-.2h-4.1l-.3,.2l-.1,.2h.4v.4h3.7v3.3h-3.3v-3.7h-.4v.4Z" class="ga_26"/>
<path d="M719.4,342.7H719v4.1l.1,.3l.3,.1h4.1l.3,-.1l.1,-.3v-4.1l-.1,-.2l-.3,-.2h-4.1l-.3,.2l-.1,.2h.4v.4h3.7v3.3h-3.4v-3.7h-.3v.4Z" class="ga_26"/>
<path d="M732.2,336.4h-.4v4.1l.1,.3l.3,.1h4.1l.3,-.1l.1,-.3v-4.1l-.1,-.3l-.3,-.1h-4.1l-.3,.1l-.1,.3h.4v.4h3.7v3.3h-3.3v-3.7h-.4v.4Z" class="ga_26"/>
<path d="M725.8,336.4h-.4v4.1l.1,.3l.3,.1h4.1l.3,-.1l.1,-.3v-4.1l-.1,-.3l-.3,-.1h-4.1l-.3,.1l-.1,.3h.4v.4h3.7v3.3h-3.3v-3.7h-.4v.4Z" class="ga_26"/>
<path d="M719.4,336.4H719v4.1l.1,.3l.3,.1h4.1l.3,-.1l.1,-.3v-4.1l-.1,-.3l-.3,-.1h-4.1l-.3,.1l-.1,.3h.4v.4h3.7v3.3h-3.4v-3.7h-.3v.4Z" class="ga_26"/>
<path d="M732.2,330.1h-.4v4.1l.1,.3l.3,.1h4.1l.3,-.1l.1,-.3v-4.1l-.1,-.3l-.3,-.1h-4.1l-.3,.1l-.1,.3h.4v.4h3.7v3.3h-3.3v-3.7h-.4v.4Z" class="ga_26"/>
<path d="M725.8,330.1h-.4v4.1l.1,.3l.3,.1h4.1l.3,-.1l.1,-.3v-4.1l-.1,-.3l-.3,-.1h-4.1l-.3,.1l-.1,.3h.4v.4h3.7v3.3h-3.3v-3.7h-.4v.4Z" class="ga_26"/>
<path d="M719.4,330.1H719v4.1l.1,.3l.3,.1h4.1l.3,-.1l.1,-.3v-4.1l-.1,-.3l-.3,-.1h-4.1l-.3,.1l-.1,.3h.4v.4h3.7v3.3h-3.4v-3.7h-.3v.4Z" class="ga_26"/>
<path d="M722.9,323l-.2,-.1l-.4,.7l-.8,.2l-.2,.1l.1,.3l.5,.6l-.1,.8l.1,.3h.3l.7,-.3l.8,.3h.2l.1,-.3v-.8l.5,-.6l.1,-.3l-.2,-.1l-.8,-.2l-.5,-.7l-.2,-.1l-.2,.1l.2,.1l-.2,.1l.5,.8l.2,.1l.5,.2l-.3,.4l-.1,.1v.6l-.5,-.2h-.2l-.5,.2l.1,-.6l-.1,-.1l-.3,-.4l.5,-.2l.1,-.1l.5,-.8l-.2,-.1l-.2,.1Z" class="ga_26"/>
<path d="M727.8,323l-.2,-.1l-.4,.7l-.8,.2l-.2,.1v.3l.6,.6l-.1,.8l.1,.3h.2l.8,-.3l.8,.3h.2l.1,-.3l-.1,-.8l.6,-.6v-.3l-.1,-.1l-.9,-.2l-.4,-.7l-.2,-.1l-.2,.1l.2,.1l-.2,.1l.5,.8l.1,.1l.6,.2l-.4,.4v.7l-.5,-.2h-.2l-.5,.2v-.7l-.4,-.4l.6,-.2l.1,-.1l.5,-.8l-.2,-.1l-.2,.1Z" class="ga_26"/>
<path d="M732.7,323l-.2,-.1l-.5,.7l-.8,.2l-.1,.1v.3l.6,.6l-.1,.8l.1,.3h.2l.8,-.3l.8,.3h.2l.1,-.3l-.1,-.8l.6,-.6v-.3l-.2,-.1l-.8,-.2l-.4,-.7l-.2,-.1l-.2,.1l.2,.1l-.2,.1l.5,.8l.1,.1l.6,.2l-.4,.4l-.1,.1l.1,.6l-.5,-.2h-.2l-.5,.2v-.7l-.4,-.4l.5,-.2l.2,-.1l.5,-.8l-.2,-.1l-.2,.1Z" class="ga_26"/>
<path d="M715.4,357.9H740c.5,0,.9,-.4,.9,-.9c0,-.5,-.4,-.9,-.9,-.9H715.4c-.6,0,-1,.4,-1,.9c0,.5,.4,.9,1,.9Z" class="ga_26"/>
<path d="M727.7,349v7.3h.3V349Z" class="ga_26"/>
<image clip-path="url(#ci_26)" preserveAspectRatio="none" x="602" y="361" width="80" height="30" xlink:href="img/19.jpg"/>
<image clip-path="url(#cj_26)" preserveAspectRatio="none" x="593" y="289" width="98" height="73" xlink:href="img/20.jpg"/>
<image clip-path="url(#ck_26)" preserveAspectRatio="none" x="602" y="383" width="80" height="3" xlink:href="img/21.jpg"/>
<image clip-path="url(#cl_26)" preserveAspectRatio="none" x="592" y="361" width="11" height="23" xlink:href="img/22.jpg"/>
<image clip-path="url(#cm_26)" preserveAspectRatio="none" x="593" y="289" width="10" height="73" xlink:href="img/23.jpg"/>
<image clip-path="url(#cn_26)" preserveAspectRatio="none" x="592" y="385" width="11" height="7" xlink:href="img/24.jpg"/>
<image clip-path="url(#co_26)" preserveAspectRatio="none" x="592" y="383" width="11" height="3" xlink:href="img/25.jpg"/>
<image clip-path="url(#cp_26)" preserveAspectRatio="none" x="681" y="361" width="10" height="31" xlink:href="img/26.jpg"/>
<image clip-path="url(#cq_26)" preserveAspectRatio="none" x="681" y="289" width="10" height="73" xlink:href="img/27.jpg"/>
<image clip-path="url(#cr_26)" preserveAspectRatio="none" x="681" y="383" width="10" height="3" xlink:href="img/28.jpg"/>
<image clip-path="url(#cs_26)" preserveAspectRatio="none" x="687" y="311" width="4" height="68" xlink:href="img/29.jpg"/>
<image clip-path="url(#ct_26)" preserveAspectRatio="none" x="687" y="378" width="4" height="8" xlink:href="img/30.jpg"/>
<path d="M618.4,302.3c-10.1,0,-18.3,8.2,-18.3,18.3v64.2h79V320.6c0,-10.1,-8.2,-18.3,-18.4,-18.3Z" class="g3_26"/>
<path d="M600,385.7h79.1v-7.2H600v7.2Z" class="g8_26"/>
<path d="M606.2,328.5h2.2c.2,0,.4,-.2,.4,-.4c0,-.2,-.2,-.4,-.4,-.4h-2.2c-.2,0,-.4,.2,-.4,.4c0,.2,.2,.4,.4,.4m3.6,0h2.1c.2,0,.4,-.2,.4,-.4c0,-.2,-.2,-.4,-.4,-.4h-2.1c-.2,0,-.4,.2,-.4,.4c0,.2,.2,.4,.4,.4m3.5,0h2.2c.2,0,.4,-.2,.4,-.4c0,-.2,-.2,-.4,-.4,-.4h-2.2c-.2,0,-.4,.2,-.4,.4c0,.2,.2,.4,.4,.4m3.6,0H619c.3,0,.4,-.2,.4,-.4c0,-.2,-.1,-.4,-.4,-.4h-2.1c-.2,0,-.4,.2,-.4,.4c0,.2,.2,.4,.4,.4m3.5,0h2.2c.2,0,.4,-.2,.4,-.4c0,-.2,-.2,-.4,-.4,-.4h-2.2c-.2,0,-.3,.2,-.3,.4c0,.2,.1,.4,.3,.4m3.6,0h2.1c.3,0,.4,-.2,.4,-.4c0,-.2,-.1,-.4,-.4,-.4H624c-.2,0,-.4,.2,-.4,.4c0,.2,.2,.4,.4,.4m3.5,0h2.2c.2,0,.4,-.2,.4,-.4c0,-.2,-.2,-.4,-.4,-.4h-2.2c-.2,0,-.3,.2,-.3,.4c0,.2,.1,.4,.3,.4Z" class="gb_26"/>
<path d="M606.2,360.7h2.3c.3,0,.4,-.1,.4,-.3c0,-.2,-.1,-.4,-.4,-.4h-2.3c-.2,0,-.4,.2,-.4,.4c0,.2,.2,.3,.4,.3m3.9,0h2.3c.2,0,.4,-.1,.4,-.3c0,-.2,-.2,-.4,-.4,-.4h-2.3c-.2,0,-.4,.2,-.4,.4c0,.2,.2,.3,.4,.3m3.9,0h2.3c.2,0,.4,-.1,.4,-.3c0,-.2,-.2,-.4,-.4,-.4H614c-.2,0,-.4,.2,-.4,.4c0,.2,.2,.3,.4,.3m3.9,0h2.3c.2,0,.4,-.1,.4,-.3c0,-.2,-.2,-.4,-.4,-.4h-2.3c-.2,0,-.4,.2,-.4,.4c0,.2,.2,.3,.4,.3m3.8,0h2.4c.2,0,.4,-.1,.4,-.3c0,-.2,-.2,-.4,-.4,-.4h-2.4c-.2,0,-.3,.2,-.3,.4c0,.2,.1,.3,.3,.3m3.9,0H628c.2,0,.3,-.1,.3,-.3c0,-.2,-.1,-.4,-.3,-.4h-2.4c-.2,0,-.4,.2,-.4,.4c0,.2,.2,.3,.4,.3m3.9,0h2.3c.2,0,.4,-.1,.4,-.3c0,-.2,-.2,-.4,-.4,-.4h-2.3c-.2,0,-.4,.2,-.4,.4c0,.2,.2,.3,.4,.3m3.9,0h2.3c.2,0,.4,-.1,.4,-.3c0,-.2,-.2,-.4,-.4,-.4h-2.3c-.2,0,-.4,.2,-.4,.4c0,.2,.2,.3,.4,.3m3.9,0h2.3c.2,0,.4,-.1,.4,-.3c0,-.2,-.2,-.4,-.4,-.4h-2.3c-.2,0,-.4,.2,-.4,.4c0,.2,.2,.3,.4,.3m3.9,0h2.3c.2,0,.4,-.1,.4,-.3c0,-.2,-.2,-.4,-.4,-.4h-2.3c-.3,0,-.4,.2,-.4,.4c0,.2,.1,.3,.4,.3m3.8,0h2.4c.2,0,.3,-.1,.3,-.3c0,-.2,-.1,-.4,-.3,-.4H645c-.2,0,-.3,.2,-.3,.4c0,.2,.1,.3,.3,.3m3.9,0h2.3c.3,0,.4,-.1,.4,-.3c0,-.2,-.1,-.4,-.4,-.4h-2.3c-.2,0,-.4,.2,-.4,.4c0,.2,.2,.3,.4,.3m3.9,0h2.3c.2,0,.4,-.1,.4,-.3c0,-.2,-.2,-.4,-.4,-.4h-2.3c-.2,0,-.4,.2,-.4,.4c0,.2,.2,.3,.4,.3m3.9,0H659c.2,0,.4,-.1,.4,-.3c0,-.2,-.2,-.4,-.4,-.4h-2.3c-.2,0,-.4,.2,-.4,.4c0,.2,.2,.3,.4,.3m3.9,0h2.3c.2,0,.4,-.1,.4,-.3c0,-.2,-.2,-.4,-.4,-.4h-2.3c-.2,0,-.4,.2,-.4,.4c0,.2,.2,.3,.4,.3m3.9,0h2.3c.2,0,.4,-.1,.4,-.3c0,-.2,-.2,-.4,-.4,-.4h-2.3c-.3,0,-.4,.2,-.4,.4c0,.2,.1,.3,.4,.3m3.8,0h2.4c.2,0,.3,-.1,.3,-.3c0,-.2,-.1,-.4,-.3,-.4h-2.4c-.2,0,-.3,.2,-.3,.4c0,.2,.1,.3,.3,.3m3.9,0h2.3c.2,0,.4,-.1,.4,-.3c0,-.2,-.2,-.4,-.4,-.4h-2.3c-.2,0,-.4,.2,-.4,.4c0,.2,.2,.3,.4,.3Z" class="gb_26"/>
<path d="M653,328.5h2.3c.2,0,.4,-.2,.4,-.4c0,-.2,-.2,-.4,-.4,-.4H653c-.2,0,-.4,.2,-.4,.4c0,.2,.2,.4,.4,.4m3.8,0h2.4c.2,0,.3,-.2,.3,-.4c0,-.2,-.1,-.4,-.3,-.4h-2.4c-.2,0,-.3,.2,-.3,.4c0,.2,.1,.4,.3,.4m3.9,0H663c.2,0,.4,-.2,.4,-.4c0,-.2,-.2,-.4,-.4,-.4h-2.3c-.2,0,-.4,.2,-.4,.4c0,.2,.2,.4,.4,.4m3.8,0h2.3c.3,0,.4,-.2,.4,-.4c0,-.2,-.1,-.4,-.4,-.4h-2.3c-.2,0,-.3,.2,-.3,.4c0,.2,.1,.4,.3,.4m3.9,0h2.3c.2,0,.4,-.2,.4,-.4c0,-.2,-.2,-.4,-.4,-.4h-2.3c-.2,0,-.4,.2,-.4,.4c0,.2,.2,.4,.4,.4m3.8,0h2.3c.2,0,.4,-.2,.4,-.4c0,-.2,-.2,-.4,-.4,-.4h-2.3c-.2,0,-.3,.2,-.3,.4c0,.2,.1,.4,.3,.4Z" class="gb_26"/>
<path d="M649.6,340.2c0,3.3,-.1,6.7,0,10.1c0,3.1,-1.4,5.4,-4.5,6.7c-3.3,1.5,-6.5,1.2,-9.5,-.6c-.5,-.3,-.9,-.6,-1.1,-.9c-.2,-.2,-.2,-.7,0,-.9c.1,-.2,.7,-.1,1,-.1c.2,.1,.4,.3,.6,.5c3.1,2.3,8,2,10.5,-.7c1.1,-1.1,1.4,-2.4,1.4,-3.9c0,-6.8,0,-13.6,.1,-20.4c0,-2.4,-1.1,-4.3,-3.6,-5.5c-2.6,-1.2,-5.3,-1,-7.8,.4c-.4,.2,-.7,.4,-1,.7c-.4,.3,-.9,.4,-1.1,0c-.2,-.3,-.1,-.8,.1,-1.1c1.2,-1,2.6,-1.6,4.1,-1.9c4.8,-1,9.6,1.5,10.6,5.5c.1,.5,.2,1.1,.2,1.6c0,3.5,0,7,0,10.5Z" class="gb_26"/>
<path d="M634.5,332.3c-1.7,-.3,-2.3,-1.4,-1.5,-3c.4,-1,1.3,-1.5,2.3,-1.8c1.6,-.5,3.2,-.6,4.8,-.1c2,.6,3.1,2.5,3,4.5c-.2,2,-1.8,3.7,-3.7,3.9c-2.1,.2,-4,-.9,-4.7,-2.8c-.1,-.2,-.1,-.5,-.2,-.7m7.1,0c-1.4,-.5,-1.6,-.6,-2.3,-1.9c-.1,-.2,-.3,-.5,-.5,-.8c-.6,-.9,-1.3,-1,-2.1,-.2c-.9,.9,-1.1,2.2,-.7,3.3c.5,1.1,1.6,1.8,2.8,1.7c1.3,0,2.3,-.7,2.8,-2.1m.1,-1.6c.1,-1,-1.8,-1.7,-1.8,-1.7c.5,1.8,1.7,2.2,1.8,1.7M635.2,329c-1.9,.8,-.9,2.2,-.8,1.9c0,0,.2,-1.2,.8,-1.9Z" class="gb_26"/>
<path d="M634.5,341.6c-1.7,-.3,-2.3,-1.4,-1.5,-3c.4,-1,1.3,-1.5,2.3,-1.8c1.6,-.5,3.2,-.5,4.8,0c2,.6,3.1,2.4,3,4.5c-.2,1.9,-1.8,3.6,-3.7,3.8c-2.1,.3,-4,-.8,-4.7,-2.8c-.1,-.2,-.1,-.4,-.2,-.7m7.1,0c-1.4,-.4,-1.6,-.6,-2.3,-1.8c-.1,-.3,-.3,-.6,-.5,-.9c-.6,-.9,-1.3,-1,-2.1,-.2c-.9,.9,-1.1,2.2,-.7,3.3c.5,1.1,1.6,1.8,2.8,1.8c1.3,-.1,2.3,-.8,2.8,-2.2m.1,-1.6c.1,-1,-1.8,-1.6,-1.8,-1.6c.5,1.7,1.7,2.2,1.8,1.6m-6.5,-1.7c-1.9,.8,-.9,2.3,-.8,1.9c0,0,.2,-1.2,.8,-1.9Z" class="gb_26"/>
<path d="M634.5,350.7c-1.7,-.3,-2.3,-1.4,-1.5,-3c.4,-1,1.3,-1.5,2.3,-1.8c1.6,-.5,3.2,-.5,4.8,0c2,.6,3.1,2.4,3,4.5c-.2,1.9,-1.8,3.6,-3.7,3.8c-2.1,.3,-4,-.8,-4.7,-2.8c-.1,-.2,-.1,-.4,-.2,-.7m7.1,0c-1.4,-.4,-1.6,-.6,-2.3,-1.8c-.1,-.3,-.3,-.6,-.5,-.9c-.6,-.9,-1.3,-1,-2.1,-.2c-.9,.9,-1.1,2.2,-.7,3.3c.5,1.1,1.6,1.8,2.8,1.8c1.3,-.1,2.3,-.8,2.8,-2.2m.1,-1.6c.1,-1,-1.8,-1.6,-1.8,-1.6c.5,1.7,1.7,2.2,1.8,1.6m-6.5,-1.7c-1.9,.8,-.9,2.3,-.8,1.9c0,0,.2,-1.2,.8,-1.9Z" class="gb_26"/>
<path d="M630.6,345.2l-5.2,-5.5c-.3,-.3,-.7,-.3,-.9,0c-.3,.2,-.3,.6,0,.8l5.2,5.6c.3,.2,.7,.2,.9,0c.3,-.2,.3,-.6,0,-.9Z" class="gb_26"/>
<path d="M630.6,352.9l-5.2,5.5c-.3,.2,-.7,.3,-.9,0c-.3,-.2,-.3,-.6,0,-.9l5.2,-5.5c.3,-.3,.7,-.3,.9,0c.3,.2,.3,.6,0,.9Z" class="gb_26"/>
<path d="M629.4,347.2l-7.2,-1.4c-.3,-.1,-.7,.2,-.7,.5c-.1,.3,.1,.7,.5,.7l7.2,1.4c.3,.1,.7,-.1,.7,-.5c.1,-.3,-.1,-.6,-.5,-.7Z" class="gb_26"/>
<path d="M629.4,350.9l-7.2,1.4c-.3,0,-.7,-.2,-.7,-.5c-.1,-.4,.1,-.7,.5,-.8l7.2,-1.4c.3,0,.7,.2,.7,.5c.1,.4,-.1,.7,-.5,.8Z" class="gb_26"/>
<path d="M890,1286.2h19.4V0H890V1286.2Z" class="g3_26"/>
</svg>