<?xml version="1.0" encoding="UTF-8" standalone="no"?>
<!DOCTYPE svg PUBLIC "-//W3C//DTD SVG 1.1//EN"
"http://www.w3.org/Graphics/SVG/1.1/DTD/svg11.dtd">
<svg viewBox="0 0 909 1286" version="1.1" xmlns="http://www.w3.org/2000/svg" xmlns:xlink="http://www.w3.org/1999/xlink">
<defs>
<style type="text/css"><![CDATA[
.g0_6{
fill: #FCB61D;
}
.g1_6{
fill: #FFF;
}
.g2_6{
fill: #FEF7E8;
}
.g3_6{
fill: none;
stroke: #FED892;
stroke-width: 1.527;
stroke-miterlimit: 10;
}
.g4_6{
fill: none;
stroke: #FFF;
stroke-width: 1.527;
stroke-miterlimit: 10;
}
.g5_6{
fill: none;
stroke: #D1D3D4;
stroke-width: 0.763;
stroke-miterlimit: 10;
}
.g6_6{
fill: none;
stroke: #58595B;
stroke-width: 0.534;
stroke-miterlimit: 10;
}
.g7_6{
fill: none;
stroke: #58595B;
stroke-width: 0.458;
stroke-miterlimit: 10;
}
.g8_6{
fill: #949698;
}
.g9_6{
fill: none;
stroke: #FFF;
stroke-width: 0.763;
stroke-miterlimit: 10;
}
.ga_6{
fill: none;
stroke: #FFF;
stroke-width: 3.055;
}
.gb_6{
fill: #FEE6BB;
}
]]></style>
</defs>
<image x="43" y="90" width="824" height="4" xlink:href="shade/1.png"/>
<path d="M43.3,103.7H173.2v37.9H43.3V103.7Zm129.9,0h207v37.9h-207V103.7Zm207,0H584.6v37.9H380.2V103.7Z" class="g0_6"/>
<path d="M43.3,141.6H173.2v89H43.3v-89Zm336.9,0H482.4v89H380.2v-89Zm102.2,0H584.6v22.3H482.4V141.6Zm0,22.3H584.6v22.2H482.4V163.9Zm0,22.2H584.6v22.3H482.4V186.1Zm0,22.3H584.6v22.2H482.4V208.4Z" class="g1_6"/>
<path d="M173.2,141.6H281.5v22.3H173.2V141.6Zm108.3,0h98.7v89H281.5v-89ZM173.2,163.9H281.5v22.2H173.2V163.9Zm0,22.2H281.5v22.3H173.2V186.1Zm0,22.3H281.5v22.2H173.2V208.4Z" class="g2_6"/>
<path d="M173.2,163.9V141.6m108.3,22.3V141.6m98.7,22.3V141.6m0,44.5V163.9m0,44.5V186.1m0,44.5V208.4M482.4,163.9V141.6M173.2,186.1V163.9m108.3,22.2V163.9" class="g3_6"/>
<path d="M173.2,141.6V103.7m207,37.9V103.7" class="g4_6"/>
<path d="M482.4,186.1V163.9M173.2,208.4V186.1m108.3,22.3V186.1m200.9,22.3V186.1M173.2,230.6V208.4m108.3,22.2V208.4m200.9,22.2V208.4" class="g3_6"/>
<path d="M174,163.9H280.7M174,186.1H280.7M174,208.4H280.7M483.2,163.9H584.6M483.2,186.1H584.6M483.2,208.4H584.6" class="g5_6"/>
<path d="M297.4,203.4h66.9m37.5,-19.8h59.1" class="g6_6"/>
<path d="M444.8,223.1h23.8" class="g7_6"/>
<path d="M43.3,585.2H317.6v20.7H43.3V585.2Zm274.3,0H591.9v20.7H317.6V585.2Zm274.3,0H866.1v20.7H591.9V585.2Z" class="g0_6"/>
<path d="M43.3,605.9H317.6v80.6H43.3V605.9Zm548.6,0H729v80.6H591.9V605.9Zm137.1,0H866.1v20.2H729V605.9Zm0,20.2H866.1v20.1H729V626.1Zm0,20.1H866.1v20.2H729V646.2Zm0,20.2H866.1v20.1H729V666.4Z" class="g1_6"/>
<path d="M317.6,605.9H454.7v20.2H317.6V605.9Zm137.1,0H591.9v80.6H454.7V605.9ZM317.6,626.1H454.7v20.1H317.6V626.1Zm0,20.1H454.7v20.2H317.6V646.2Zm0,20.2H454.7v20.1H317.6V666.4Z" class="g2_6"/>
<path d="M317.6,626.1V605.9m137.1,20.2V605.9m137.2,20.2V605.9m0,40.3V626.1m0,40.3V646.2m0,40.3V666.4M729,626.1V605.9M317.6,646.2V626.1m137.1,20.1V626.1" class="g3_6"/>
<path d="M317.6,605.9V585.2m274.3,20.7V585.2" class="g4_6"/>
<path d="M729,646.2V626.1M317.6,666.4V646.2m137.1,20.2V646.2M729,666.4V646.2M317.6,686.5V666.4m137.1,20.1V666.4M729,686.5V666.4" class="g3_6"/>
<path d="M318.3,626.1H454M318.3,646.2H454M318.3,666.4H454M729.8,626.1H866.1M729.8,646.2H866.1M729.8,666.4H866.1" class="g5_6"/>
<path d="M490.2,663.5h66.2m75.1,0h57.9" class="g6_6"/>
<path d="M43.3,695.2H317.6v20.7H43.3V695.2Zm274.3,0H591.9v20.7H317.6V695.2Zm274.3,0H866.1v20.7H591.9V695.2Z" class="g0_6"/>
<path d="M43.3,715.9H317.6v80.6H43.3V715.9Zm548.6,0H729v80.6H591.9V715.9Zm137.1,0H866.1V736H729V715.9Zm0,20.1H866.1v20.2H729V736Zm0,20.2H866.1v20.1H729V756.2Zm0,20.1H866.1v20.2H729V776.3Z" class="g1_6"/>
<path d="M317.6,715.9H454.7V736H317.6V715.9Zm137.1,0H591.9v80.6H454.7V715.9ZM317.6,736H454.7v20.2H317.6V736Zm0,20.2H454.7v20.1H317.6V756.2Zm0,20.1H454.7v20.2H317.6V776.3Z" class="g2_6"/>
<path d="M317.6,736V715.9M454.7,736V715.9M591.9,736V715.9m0,40.3V736m0,40.3V756.2m0,40.3V776.3M729,736V715.9M317.6,756.2V736m137.1,20.2V736" class="g3_6"/>
<path d="M317.6,715.9V695.2m274.3,20.7V695.2" class="g4_6"/>
<path d="M729,756.2V736M317.6,776.3V756.2m137.1,20.1V756.2M729,776.3V756.2M317.6,796.5V776.3m137.1,20.2V776.3M729,796.5V776.3" class="g3_6"/>
<path d="M318.3,736H454M318.3,756.2H454M318.3,776.3H454M729.8,736H866.1M729.8,756.2H866.1M729.8,776.3H866.1" class="g5_6"/>
<path d="M490.4,773.5h65.8m75.7,0H689" class="g6_6"/>
<path d="M43.3,360.4H317.6v20.8H43.3V360.4Zm274.3,0H591.9v20.8H317.6V360.4Zm274.3,0H866.1v20.8H591.9V360.4Z" class="g0_6"/>
<path d="M43.3,381.2H317.6v80.6H43.3V381.2Zm548.6,0H729v80.6H591.9V381.2Zm137.1,0H866.1v20.1H729V381.2Zm0,20.1H866.1v20.2H729V401.3Zm0,20.2H866.1v20.1H729V421.5Zm0,20.1H866.1v20.2H729V441.6Z" class="g1_6"/>
<path d="M317.6,381.2H454.7v20.1H317.6V381.2Zm137.1,0H591.9v80.6H454.7V381.2ZM317.6,401.3H454.7v20.2H317.6V401.3Zm0,20.2H454.7v20.1H317.6V421.5Zm0,20.1H454.7v20.2H317.6V441.6Z" class="g2_6"/>
<path d="M317.6,401.3V381.2m137.1,20.1V381.2m137.2,20.1V381.2m0,40.3V401.3m0,40.3V421.5m0,40.3V441.6M729,401.3V381.2M317.6,421.5V401.3m137.1,20.2V401.3" class="g3_6"/>
<path d="M317.6,381.2V360.4m274.3,20.8V360.4" class="g4_6"/>
<path d="M729,421.5V401.3M317.6,441.6V421.5m137.1,20.1V421.5M729,441.6V421.5M317.6,461.8V441.6m137.1,20.2V441.6M729,461.8V441.6" class="g3_6"/>
<path d="M318.3,401.3H454M318.3,421.5H454M318.3,441.6H454M729.8,401.3H866.1M729.8,421.5H866.1M729.8,441.6H866.1" class="g5_6"/>
<path d="M490.1,438.8h66.4m54.3,-13.7h99.3" class="g6_6"/>
<path d="M664.1,456.6h44.2" class="g7_6"/>
<path d="M43.3,915.1H317.6v20.8H43.3V915.1Zm274.3,0H591.9v20.8H317.6V915.1Zm274.3,0H866.1v20.8H591.9V915.1Z" class="g0_6"/>
<path d="M43.3,935.9H317.6v80.5H43.3V935.9Zm548.6,0H729v80.5H591.9V935.9Zm137.1,0H866.1V956H729V935.9Zm0,20.1H866.1v20.2H729V956Zm0,20.2H866.1v20.1H729V976.2Zm0,20.1H866.1v20.1H729V996.3Z" class="g1_6"/>
<path d="M317.6,935.9H454.7V956H317.6V935.9Zm137.1,0H591.9v80.5H454.7V935.9ZM317.6,956H454.7v20.2H317.6V956Zm0,20.2H454.7v20.1H317.6V976.2Zm0,20.1H454.7v20.1H317.6V996.3Z" class="g2_6"/>
<path d="M317.6,956V935.9M454.7,956V935.9M591.9,956V935.9m0,40.3V956m0,40.3V976.2m0,40.2V996.3M729,956V935.9M317.6,976.2V956m137.1,20.2V956" class="g3_6"/>
<path d="M317.6,935.9V915.1m274.3,20.8V915.1" class="g4_6"/>
<path d="M729,976.2V956M317.6,996.3V976.2m137.1,20.1V976.2M729,996.3V976.2m-411.4,40.2V996.3m137.1,20.1V996.3M729,1016.4V996.3" class="g3_6"/>
<path d="M318.3,956H454m275.8,0H866.1M318.3,976.2H454m275.8,0H866.1M318.3,996.3H454m275.8,0H866.1" class="g5_6"/>
<path d="M513.4,966.2h64.8" class="g6_6"/>
<path d="M511.9,1008.4h57.2" class="g7_6"/>
<path d="M631.6,993.5h57.7" class="g6_6"/>
<path d="M43.3,1025.1H317.6v20.7H43.3v-20.7Zm274.3,0H591.9v20.7H317.6v-20.7Zm274.3,0H866.1v20.7H591.9v-20.7Z" class="g0_6"/>
<path d="M43.3,1045.8H317.6v80.6H43.3v-80.6Zm548.6,0H729v80.6H591.9v-80.6Zm137.1,0H866.1V1066H729v-20.2Zm0,20.2H866.1v20.1H729V1066Zm0,20.1H866.1v20.2H729v-20.2Zm0,20.2H866.1v20.1H729v-20.1Z" class="g1_6"/>
<path d="M317.6,1045.8H454.7V1066H317.6v-20.2Zm137.1,0H591.9v80.6H454.7v-80.6ZM317.6,1066H454.7v20.1H317.6V1066Zm0,20.1H454.7v20.2H317.6v-20.2Zm0,20.2H454.7v20.1H317.6v-20.1Z" class="g2_6"/>
<path d="M317.6,1066v-20.2M454.7,1066v-20.2M591.9,1066v-20.2m0,40.3V1066m0,40.3v-20.2m0,40.3v-20.1M729,1066v-20.2m-411.4,40.3V1066m137.1,20.1V1066" class="g3_6"/>
<path d="M317.6,1045.8v-20.7m274.3,20.7v-20.7" class="g4_6"/>
<path d="M729,1086.1V1066m-411.4,40.3v-20.2m137.1,20.2v-20.2M729,1106.3v-20.2m-411.4,40.3v-20.1m137.1,20.1v-20.1M729,1126.4v-20.1" class="g3_6"/>
<path d="M318.3,1066H454m275.8,0H866.1m-547.8,20.1H454m275.8,0H866.1m-547.8,20.2H454m275.8,0H866.1" class="g5_6"/>
<path d="M489.2,1103.4h68.2m72.8,0h60.5" class="g6_6"/>
<path d="M43.3,1135.1H317.6v20.7H43.3v-20.7Zm274.3,0H591.9v20.7H317.6v-20.7Zm274.3,0H866.1v20.7H591.9v-20.7Z" class="g0_6"/>
<path d="M43.3,1155.8H317.6v80.6H43.3v-80.6Zm548.6,0H729v80.6H591.9v-80.6Zm137.1,0H866.1V1176H729v-20.2Zm0,20.2H866.1v20.1H729V1176Zm0,20.1H866.1v20.2H729v-20.2Zm0,20.2H866.1v20.1H729v-20.1Z" class="g1_6"/>
<path d="M317.6,1155.8H454.7V1176H317.6v-20.2Zm137.1,0H591.9v80.6H454.7v-80.6ZM317.6,1176H454.7v20.1H317.6V1176Zm0,20.1H454.7v20.2H317.6v-20.2Zm0,20.2H454.7v20.1H317.6v-20.1Z" class="g2_6"/>
<path d="M317.6,1176v-20.2M454.7,1176v-20.2M591.9,1176v-20.2m0,40.3V1176m0,40.3v-20.2m0,40.3v-20.1M729,1176v-20.2m-411.4,40.3V1176m137.1,20.1V1176" class="g3_6"/>
<path d="M317.6,1155.8v-20.7m274.3,20.7v-20.7" class="g4_6"/>
<path d="M729,1196.1V1176m-411.4,40.3v-20.2m137.1,20.2v-20.2M729,1216.3v-20.2m-411.4,40.3v-20.1m137.1,20.1v-20.1M729,1236.4v-20.1" class="g3_6"/>
<path d="M318.3,1176H454m275.8,0H866.1m-547.8,20.1H454m275.8,0H866.1m-547.8,20.2H454m275.8,0H866.1" class="g5_6"/>
<path d="M489.2,1213.4h68.2m73.7,0h58.7" class="g6_6"/>
<path d="M606.3,103.7H866.1v19.8H606.3V103.7Z" class="g0_6"/>
<path d="M606.3,123.5H736.2v18.7H606.3V123.5Zm129.9,0H866.1v18.7H736.2V123.5Z" class="g0_6"/>
<path d="M606.3,142.2H866.1V158H606.3V142.2Z" class="g8_6"/>
<path d="M606.3,158H736.2v30.2H606.3V158Zm129.9,0H866.1v30.2H736.2V158ZM606.3,188.2H736.2v42.4H606.3V188.2Zm129.9,0H866.1v42.4H736.2V188.2Z" class="g1_6"/>
<path d="M606.3,142.2H736.2m0,0H866.1M606.3,158H736.2m0,0H866.1" class="g9_6"/>
<path d="M606.3,123.5H736.2m0,0H866.1M736.2,141.8V124.3" class="g4_6"/>
<path d="M736.2,187.8V158.4m0,72.2v-42" class="g3_6"/>
<path d="M606.3,188.2H736.2m0,0H866.1" class="g5_6"/>
<path d="M43.3,470.4H317.6v20.7H43.3V470.4Zm274.3,0H591.9v20.7H317.6V470.4Zm274.3,0H866.1v20.7H591.9V470.4Z" class="g0_6"/>
<path d="M43.3,491.1H317.6v85.4H43.3V491.1Zm548.6,0H729v85.4H591.9V491.1Zm137.1,0H866.1v21.4H729V491.1Zm0,21.4H866.1v21.3H729V512.5Zm0,21.3H866.1v21.4H729V533.8Zm0,21.4H866.1v21.3H729V555.2Z" class="g1_6"/>
<path d="M317.6,491.1H454.7v21.4H317.6V491.1Zm137.1,0H591.9v85.4H454.7V491.1ZM317.6,512.5H454.7v21.3H317.6V512.5Zm0,21.3H454.7v21.4H317.6V533.8Zm0,21.4H454.7v21.3H317.6V555.2Z" class="g2_6"/>
<path d="M317.6,512.5V491.1m137.1,21.4V491.1m137.2,21.4V491.1m0,42.7V512.5m0,42.7V533.8m0,42.7V555.2M729,512.5V491.1M317.6,533.8V512.5m137.1,21.3V512.5" class="g3_6"/>
<path d="M317.6,491.1V470.4m274.3,20.7V470.4" class="g4_6"/>
<path d="M729,533.8V512.5M317.6,555.2V533.8m137.1,21.4V533.8M729,555.2V533.8M317.6,576.5V555.2m137.1,21.3V555.2M729,576.5V555.2" class="g3_6"/>
<path d="M318.3,512.5H454M318.3,533.8H454M318.3,555.2H454M729.8,512.5H866.1M729.8,533.8H866.1M729.8,555.2H866.1" class="g5_6"/>
<path d="M490,530.7h66.6m74.9,20.4h57.9" class="g6_6"/>
<path d="M43.3,805.1H317.6v20.8H43.3V805.1Zm274.3,0H591.9v20.8H317.6V805.1Zm274.3,0H866.1v20.8H591.9V805.1Z" class="g0_6"/>
<path d="M43.3,825.9H317.6v80.6H43.3V825.9Zm548.6,0H729v80.6H591.9V825.9Zm137.1,0H866.1V846H729V825.9Zm0,20.1H866.1v20.2H729V846Zm0,20.2H866.1v20.1H729V866.2Zm0,20.1H866.1v20.2H729V886.3Z" class="g1_6"/>
<path d="M317.6,825.9H454.7V846H317.6V825.9Zm137.1,0H591.9v80.6H454.7V825.9ZM317.6,846H454.7v20.2H317.6V846Zm0,20.2H454.7v20.1H317.6V866.2Zm0,20.1H454.7v20.2H317.6V886.3Z" class="g2_6"/>
<path d="M317.6,846V825.9M454.7,846V825.9M591.9,846V825.9m0,40.3V846m0,40.3V866.2m0,40.3V886.3M729,846V825.9M317.6,866.2V846m137.1,20.2V846" class="g3_6"/>
<path d="M317.6,825.9V805.1m274.3,20.8V805.1" class="g4_6"/>
<path d="M729,866.2V846M317.6,886.3V866.2m137.1,20.1V866.2M729,886.3V866.2M317.6,906.5V886.3m137.1,20.2V886.3M729,906.5V886.3" class="g3_6"/>
<path d="M318.3,846H454M318.3,866.2H454M318.3,886.3H454M729.8,846H866.1M729.8,866.2H866.1M729.8,886.3H866.1" class="g5_6"/>
<path d="M490.2,883.5h66.2m75.5,0H689" class="g6_6"/>
<path d="M43.3,239.3H317.6V260H43.3V239.3Zm274.3,0H591.9V260H317.6V239.3Zm274.3,0H866.1V260H591.9V239.3Z" class="g0_6"/>
<path d="M43.3,260H317.6v91.8H43.3V260Zm548.6,0H729v91.8H591.9V260ZM729,260H866.1v23H729V260Zm0,23H866.1v22.9H729V283Zm0,22.9H866.1v22.9H729V305.9Zm0,22.9H866.1v23H729v-23Z" class="g1_6"/>
<path d="M317.6,260H454.7v23H317.6V260Zm137.1,0H591.9v91.8H454.7V260ZM317.6,283H454.7v22.9H317.6V283Zm0,22.9H454.7v22.9H317.6V305.9Zm0,22.9H454.7v23H317.6v-23Z" class="g2_6"/>
<path d="M317.6,283V260m137.1,23V260m137.2,23V260m0,45.9V283m0,45.8V305.9m0,45.9v-23M729,283V260M317.6,305.9V283m137.1,22.9V283" class="g3_6"/>
<path d="M317.6,260V239.3M591.9,260V239.3" class="g4_6"/>
<path d="M729,305.9V283M317.6,328.8V305.9m137.1,22.9V305.9M729,328.8V305.9M317.6,351.8v-23m137.1,23v-23m274.3,23v-23" class="g3_6"/>
<path d="M318.3,283H454M318.3,305.9H454M318.3,328.8H454M729.8,283H866.1M729.8,305.9H866.1M729.8,328.8H866.1" class="g5_6"/>
<path d="M490.4,298.8h65.8" class="g6_6"/>
<path d="M552.6,338.3h33.2m-91.9,9.2h58.8" class="g7_6"/>
<path d="M609.8,329.3H711.1" class="g6_6"/>
<path d="M69.1,93.1c13.4,0,24.3,-10.9,24.3,-24.2C93.4,55.5,82.5,44.6,69.1,44.6C55.7,44.6,44.8,55.5,44.8,68.9c0,13.3,10.9,24.2,24.3,24.2Z" class="g0_6"/>
<path d="M69.1,93.1c13.4,0,24.3,-10.9,24.3,-24.2C93.4,55.5,82.5,44.6,69.1,44.6C55.7,44.6,44.8,55.5,44.8,68.9c0,13.3,10.9,24.2,24.3,24.2Z" class="ga_6"/>
<path d="M82.4,71.1c.1,1,.3,1.9,.2,2.8c0,2.6,-1.2,4.5,-3.3,5.9c-1.7,1.1,-3.6,1.7,-5.6,1.7c-3.1,0,-6.1,0,-9.2,0c-2,0,-4,-.6,-5.7,-1.8C56.3,78,55.3,75.6,55.6,72.6c.3,-2.5,.4,-5,.5,-7.5c.1,-2.3,0,-4.6,0,-6.9c-.1,-2.7,1,-4.8,3.2,-6.4c1.8,-1.3,3.9,-2,6.2,-2c2.5,0,4.9,0,7.3,0c2.1,.1,4.1,.6,5.9,1.8c2.5,1.8,3.6,4.1,3.4,7.2c-.1,1.5,0,3,0,4.6c0,0,.1,5.1,.3,7.7M69.1,51.4c0,0,0,-.1,0,-.1c-1.2,0,-2.4,0,-3.6,0c-1.6,.1,-3.2,.4,-4.7,1.3c-1.9,1.2,-3.3,2.9,-3.2,5.3c.1,1.1,.4,2.2,.7,3.2c.6,1.7,1.4,3.3,2.8,4.5c.3,.3,.3,.7,0,1.1c-.8,.8,-1.7,1.6,-2.8,1.9c-.7,.3,-.8,.7,-.9,1.3c0,.6,.1,1.1,.5,1.5c1,1.1,2.2,1.8,3.4,2.3c2.3,1,4.7,1.3,7.2,1.3c2.6,.1,5.2,-.1,7.7,-1c1.7,-.6,3.2,-1.5,4.4,-3c.1,-.1,.2,-.3,.2,-.5c0,-.4,0,-.9,-.1,-1.3c0,-.1,-.1,-.3,-.3,-.3c-1.2,-.5,-2.3,-1.2,-3.3,-2.2c-.3,-.4,-.3,-.8,.1,-1.2c.5,-.6,1.1,-1.2,1.5,-1.9c1,-1.5,1.5,-3.2,1.8,-5c.3,-1.5,-.1,-2.9,-1,-4.1C78.1,52.6,76,51.6,73.7,51.4c-1.5,-.1,-3.1,0,-4.6,0m-11.9,21c-.4,2.1,0,3.9,1.6,5.4c1.7,1.5,3.6,2.1,5.8,2.2c3,0,5.9,0,8.9,0c1,0,2,-.2,3,-.5c1.8,-.6,3.2,-1.6,4.1,-3.4c.6,-1.2,.6,-2.4,.4,-3.7q-.1,0,-.2,0c-1.4,1.8,-3.3,2.8,-5.4,3.4c-3.6,1,-7.3,1,-11,.4c-1.8,-.3,-3.5,-.9,-5,-1.9C58.6,73.8,58,73.1,57.2,72.4Z" class="gb_6"/>
<path d="M62.3,82c-.7,.5,-1.3,1,-1.9,1.4c-.7,.5,-2.3,1.8,-2.9,2.3c-.3,.3,-.7,.3,-1,.2c-.2,0,-.3,-.3,-.4,-.4c-.1,-.3,0,-.6,.3,-.8c.4,-.4,1.8,-1.5,2.2,-1.8c.5,-.4,1.1,-.8,1.6,-1.2c.2,-.1,.4,-.2,.6,-.1c.5,.1,.9,.2,1.5,.4Z" class="gb_6"/>
<path d="M75.9,82c.6,-.2,1.2,-.4,1.7,-.5c.1,0,.2,.1,.3,.1c1,.8,3,2.3,3.9,3c.2,.1,.3,.3,.4,.5c.1,.3,0,.6,-.3,.7c-.2,.2,-.7,.2,-.9,.1C79.7,84.9,77.3,83.1,75.9,82Z" class="gb_6"/>
<path d="M69.1,65c-1.4,0,-2.8,.1,-4.1,0c-2.5,-.2,-4.5,-2,-5,-4.5c-.1,-.6,-.2,-1.3,-.4,-1.9c-.4,-2.4,1.3,-4.5,3.8,-4.5c3.8,-.1,7.6,-.1,11.4,0c2.4,0,4.1,1.8,3.8,4.2c-.2,1.3,-.3,2.8,-1.1,4C76.4,64,74.8,65,72.6,65c-1.2,0,-2.4,0,-3.5,0Z" class="gb_6"/>
<path d="M74.9,68.4c.3,0,.7,0,1,0c.6,0,.9,.4,.7,.8c-.6,1.1,-1.2,2.2,-1.9,3.3c-.1,.2,-.4,.3,-.7,.3c-.7,0,-1.3,0,-2,0c-.6,0,-1,-.4,-.7,-.8c.6,-1.1,1.2,-2.1,1.8,-3.2c.1,-.3,.4,-.4,.8,-.4c.4,0,.7,0,1,0Z" class="gb_6"/>
<path d="M65.2,72.8c-.3,0,-.6,0,-.9,0c-.4,0,-.7,-.1,-.9,-.4c-.6,-1,-1.2,-2.1,-1.8,-3.1c-.3,-.5,.1,-.9,.8,-.9c.6,0,1.2,0,1.9,0c.4,0,.7,.2,.8,.4c.6,1.1,1.3,2.1,1.9,3.2c.2,.4,-.1,.8,-.7,.8c-.4,0,-.7,0,-1.1,0Z" class="gb_6"/>
<path d="M70.4,78.3c0,.8,-.6,1.4,-1.3,1.4c-.7,0,-1.3,-.6,-1.3,-1.3c0,-.7,.6,-1.4,1.3,-1.4c.7,0,1.3,.6,1.3,1.3Z" class="gb_6"/>
<path d="M890,1307.9h19.4V-21.6H890V1307.9Z" class="g1_6"/>
</svg>