<?xml version="1.0" encoding="UTF-8" standalone="no"?>
<!DOCTYPE svg PUBLIC "-//W3C//DTD SVG 1.1//EN"
"http://www.w3.org/Graphics/SVG/1.1/DTD/svg11.dtd">
<svg viewBox="0 0 1818 1286" version="1.1" xmlns="http://www.w3.org/2000/svg" xmlns:xlink="http://www.w3.org/1999/xlink">
<defs>
<clipPath id="c0_8"><path d="M1603.3,840.9c-93.7,0,-169.6,-76,-169.6,-169.6c0,-93.7,75.9,-169.7,169.6,-169.7c93.7,0,169.6,76,169.6,169.7c0,93.6,-75.9,169.6,-169.6,169.6Z"/></clipPath>
<clipPath id="c1_8"><path d="M0,581.9v-478H909.1v478Z"/></clipPath>
<clipPath id="c2_8"><path d="M1538.3,445.1c-93.6,0,-169.6,-75.9,-169.6,-169.6c0,-93.7,76,-169.6,169.6,-169.6c93.7,0,169.6,75.9,169.6,169.6c0,93.7,-75.9,169.6,-169.6,169.6Z"/></clipPath>
<clipPath id="c3_8"><path d="M1538.3,1236.6c-93.6,0,-169.6,-75.9,-169.6,-169.6c0,-93.7,76,-169.6,169.6,-169.6c93.7,0,169.6,75.9,169.6,169.6c0,93.7,-75.9,169.6,-169.6,169.6Z"/></clipPath>
<clipPath id="c4_8"><path d="M961.4,1250.5V1026.4h389.8v224.1Z"/></clipPath>
<style type="text/css"><![CDATA[
.g0_8{
fill: #FFF;
}
.g1_8{
fill: #252123;
}
.g2_8{
fill: none;
stroke: #FFF;
stroke-width: 3.918;
}
.g3_8{
fill: none;
stroke: #FFF;
stroke-width: 0.794;
}
.g4_8{
fill: #000;
}
.g5_8{
fill: none;
stroke: #FFF;
stroke-width: 0.49;
}
]]></style>
</defs>
<path d="M60.6,1242.9H866.1V623.6H60.6v619.3Z" class="g0_8"/>
<path d="M961.4,1010.1h394.1V103.9H961.4v906.2Z" class="g0_8"/>
<path d="M1419.4,1286.2h399.5V0H1419.4V1286.2Z" class="g1_8"/>
<image clip-path="url(#c0_8)" preserveAspectRatio="none" x="1434" y="502" width="339" height="339" xlink:href="img/1.jpg"/>
<path d="M1603.3,840.9c93.7,0,169.6,-76,169.6,-169.6c0,-93.7,-75.9,-169.7,-169.6,-169.7c-93.7,0,-169.6,76,-169.6,169.7c0,93.6,75.9,169.6,169.6,169.6Z" class="g2_8"/>
<path d="M1603.3,823.4c84.1,0,152.2,-68.2,152.2,-152.2c0,-84.1,-68.1,-152.3,-152.2,-152.3c-84.1,0,-152.3,68.2,-152.3,152.3c0,84,68.2,152.2,152.3,152.2Z" class="g3_8"/>
<path d="M1534.9,539.7c2.6,0,4.7,-2.1,4.7,-4.7c0,-2.6,-2.1,-4.7,-4.7,-4.7c-2.6,0,-4.7,2.1,-4.7,4.7c0,2.6,2.1,4.7,4.7,4.7Z" class="g4_8"/>
<image clip-path="url(#c1_8)" preserveAspectRatio="none" x="0" y="104" width="909" height="478" xlink:href="img/2.jpg"/>
<path d="M0,103.9H1818.9V0H0V103.9Z" class="g1_8"/>
<image clip-path="url(#c2_8)" preserveAspectRatio="none" x="1369" y="106" width="339" height="339" xlink:href="img/3.jpg"/>
<path d="M1538.3,445.1c93.7,0,169.6,-75.9,169.6,-169.6c0,-93.7,-75.9,-169.6,-169.6,-169.6c-93.6,0,-169.6,75.9,-169.6,169.6c0,93.7,76,169.6,169.6,169.6Z" class="g2_8"/>
<path d="M1538.3,427.8c84.1,0,152.3,-68.2,152.3,-152.3c0,-84.1,-68.2,-152.2,-152.3,-152.2c-84,0,-152.2,68.1,-152.2,152.2c0,84.1,68.2,152.3,152.2,152.3Z" class="g5_8"/>
<path d="M1636.5,165.6c2.6,0,4.7,-2.1,4.7,-4.7c0,-2.6,-2.1,-4.7,-4.7,-4.7c-2.5,0,-4.6,2.1,-4.6,4.7c0,2.6,2.1,4.7,4.6,4.7Z" class="g4_8"/>
<image clip-path="url(#c3_8)" preserveAspectRatio="none" x="1369" y="897" width="339" height="340" xlink:href="img/4.jpg"/>
<path d="M1538.3,1236.6c93.7,0,169.6,-75.9,169.6,-169.6c0,-93.7,-75.9,-169.6,-169.6,-169.6c-93.6,0,-169.6,75.9,-169.6,169.6c0,93.7,76,169.6,169.6,169.6Z" class="g2_8"/>
<path d="M1538.3,1219.3c84.1,0,152.3,-68.2,152.3,-152.3c0,-84.1,-68.2,-152.2,-152.3,-152.2c-84,0,-152.2,68.1,-152.2,152.2c0,84.1,68.2,152.3,152.2,152.3Z" class="g5_8"/>
<path d="M1636.5,957.1c2.6,0,4.7,-2.1,4.7,-4.7c0,-2.6,-2.1,-4.7,-4.7,-4.7c-2.5,0,-4.6,2.1,-4.6,4.7c0,2.6,2.1,4.7,4.6,4.7Z" class="g4_8"/>
<image clip-path="url(#c4_8)" preserveAspectRatio="none" x="961" y="1026" width="390" height="225" xlink:href="img/5.jpg"/>
<path d="M1389.1,1097.6c2.6,-.3,4.4,-2.6,4.1,-5.2c-.3,-2.6,-2.7,-4.4,-5.2,-4.1c-2.6,.4,-4.4,2.7,-4.1,5.2c.3,2.6,2.7,4.4,5.2,4.1Z" class="g4_8"/>
</svg>