<?xml version="1.0" encoding="UTF-8" standalone="no"?>
<!DOCTYPE svg PUBLIC "-//W3C//DTD SVG 1.1//EN"
"http://www.w3.org/Graphics/SVG/1.1/DTD/svg11.dtd">
<svg viewBox="0 0 909 1286" version="1.1" xmlns="http://www.w3.org/2000/svg" xmlns:xlink="http://www.w3.org/1999/xlink">
<defs>
<clipPath id="c0_13"><path d="M881.7,1072.4v-38h22.8v38Z"/></clipPath>
<clipPath id="c1_13"><path d="M530.3,147.2c-.1,-.2,-.2,-.5,-.3,-.7v-.1c0,0,0,-.1,0,-.1c-.1,-.3,-.2,-.5,-.2,-.7q0,-.1,0,-.1h-.1c0,-.1,0,-.2,0,-.3v-.1c0,0,-.1,0,-.1,0q0,-.1,0,-.1q0,-.1,0,-.1q0,-.1,0,-.1q0,-.1,0,-.1q0,-.1,0,-.1q-.1,0,-.1,-.1c-.5,-2.7,-.6,-8.7,-.6,-13c0,-2.9,0,-5,0,-5l.6,-17.4l1.9,-6.7l.9,-5.5L526.2,92l-.9,-5.8l-1.9,-3.1l-3.6,-6.4l-7.4,-9.5c0,0,-4.9,-3.9,-6.4,-5.8c-.5,-.6,-.7,-1.4,-.7,-2.2c0,-1.8,.9,-3.9,1.9,-5.1c1.6,-1.8,10.1,-8.3,10.1,-8.3c0,0,9.8,-8.8,11.6,-9.7c.4,-.2,.7,-.3,1.1,-.4c.2,0,.3,0,.5,0c1.2,0,2.2,.6,3,1c.3,.1,.7,.2,1.2,.2c1.4,0,3.1,-.5,3.1,-.5l6.4,-4l7,-.6l5.2,.9l5.8,-1.2l-2.1,-4.3L555.5,22l4.6,-5.8l7.3,-4.3L580.3,7l7,-.6l5.5,1.3l7.6,6.3V147.2Z"/></clipPath>
<clipPath id="c2_13"><path d="M299.5,594.9V574H105.9v20.9ZM0,597.6V147.2H306.7V597.6Z"/></clipPath>
<clipPath id="c3_13"><path d="M320.5,597.6V147.2H600.4V597.6Z"/></clipPath>
<clipPath id="c4_13"><path d="M105.9,594.9V574H299.5v20.9Z"/></clipPath>
<clipPath id="c5_13"><path d="M67.4,121.1V104.4H79.2v16.7Z"/></clipPath>
<clipPath id="c6_13"><path d="M107.8,121.1V104.4h11.8v16.7Z"/></clipPath>
<clipPath id="c7_13"><path d="M146.1,121.1V104.4h11.8v16.7Z"/></clipPath>
<clipPath id="c8_13"><path d="M275.2,121.8V105.1h11.9v16.7Z"/></clipPath>
<clipPath id="c9_13"><path d="M379.4,121.8V105.1h11.7v16.7Z"/></clipPath>
<clipPath id="ca_13"><path d="M197.7,121.8V105.1h11.8v16.7Z"/></clipPath>
<clipPath id="cb_13"><path d="M853.4,36.3c-1,0,-2,0,-3.1,-.2C845.4,35.1,833.2,31.2,828,30c-4.7,-1.2,-15.3,-2.5,-21.3,-2.5c-.6,0,-1.1,0,-1.6,0c-2.7,.2,-5.6,.5,-7.9,.5c-2.3,0,-4.2,-.3,-4.9,-1.4c-1.5,-2.1,-4,-4.6,-4,-4.6c0,0,-.4,0,-1.1,0c-1,0,-2.6,.1,-4.1,.6c-2.4,.9,-7.9,1.9,-7.9,1.9l-15.9,1.8c0,0,-9.2,.3,-12.8,.3c-3.7,0,-22.7,-1.2,-22.7,-1.2L702.5,22.3L686.6,18l-7.4,-3l-2.1,-.9l-4.3,.6l-3.6,3L661.8,19H617.2l-9.8,-1.3l-4.2,-1.5L600.4,14V0H870.5V33.8l-2.2,-2.3c0,0,-3.9,1.5,-6.4,2.7c-1.9,1,-4.9,2.1,-8.5,2.1Z"/></clipPath>
<clipPath id="cc_13"><path d="M844.5,141.8V126.4H714.2v15.4ZM707.8,133.5c2.3,0,4.2,-1.9,4.2,-4.2c0,-2.4,-1.9,-4.3,-4.2,-4.3c-2.4,0,-4.3,1.9,-4.3,4.3c0,2.3,1.9,4.2,4.3,4.2Zm2.7,-8.6l2.6,-8.4l-5,-1.6l-2.6,8.5l5,1.5Zm105.2,-2V107.5H723.3v15.4ZM713.6,116.2c2.3,0,4.2,-1.9,4.2,-4.2c0,-.6,-.1,-1.2,-.3,-1.7l6.9,-4.5l-2.9,-4.5l-7.4,4.8l1.3,2c-.6,-.2,-1.2,-.4,-1.8,-.4c-2.4,0,-4.3,1.9,-4.3,4.3c0,2.3,1.9,4.2,4.3,4.2Zm13.7,-10.3c2.3,0,4.2,-1.9,4.2,-4.2c0,-2.4,-1.9,-4.3,-4.2,-4.3c-2.4,0,-4.3,1.9,-4.3,4.3c0,2.3,1.9,4.2,4.3,4.2Zm4.5,-8.4L734.4,89l-5,-1.5l-2.6,8.4l5,1.6Zm-13.9,1.9V84H665.7V99.4Zm52.9,-3.5V80.5H741.1V95.9ZM735.9,89c2.4,0,4.3,-1.9,4.3,-4.3c0,-2.3,-1.9,-4.2,-4.3,-4.2c-2.3,0,-4.2,1.9,-4.2,4.2c0,2.4,1.9,4.3,4.2,4.3ZM781.1,79V63.6H750.3V79Zm8.1,-18.3V45.3H743V60.7ZM600.4,147.2V14l2.8,2.2l4.2,1.5l9.8,1.3h44.6l7.4,-1.3l3.6,-3l4.3,-.6l2.1,.9l7.4,3l15.9,4.3l21.3,3.1c0,0,19,1.2,22.7,1.2c3.6,0,12.8,-.3,12.8,-.3l15.9,-1.8c0,0,5.5,-1,7.9,-1.9c1.5,-.5,3.1,-.6,4.1,-.6c.7,0,1.1,0,1.1,0c0,0,2.5,2.5,4,4.6c.7,1.1,2.6,1.4,4.9,1.4c2.3,0,5.2,-.3,7.9,-.5c.5,0,1,0,1.6,0c6,0,16.6,1.3,21.3,2.5c5.2,1.2,17.4,5.1,22.3,6.1c1.1,.2,2.1,.2,3.1,.2c3.6,0,6.6,-1.1,8.5,-2.1c2.5,-1.2,6.4,-2.7,6.4,-2.7l2.2,2.3V147.2H701c.3,-.8,.4,-1.7,.4,-2.6c0,-1.8,-.6,-3.4,-1.6,-4.7l6.8,-4.4L703.7,131l-7.4,4.9l1.4,2.1c-1.1,-.6,-2.4,-1,-3.8,-1c-4.2,0,-7.6,3.4,-7.6,7.6c0,.9,.2,1.8,.5,2.6Z"/></clipPath>
<clipPath id="cd_13"><path d="M869.1,592.1V574H783.8v18.1Zm-16,-422.9V153.8H688.6v15.4ZM600.4,597.6V147.2h86.4c1.1,2.9,3.8,4.9,7.1,4.9c3.2,0,6,-2,7.1,-4.9H870.5V597.6Z"/></clipPath>
<clipPath id="ce_13"><path d="M861.8,585.6v-9.9H784.6v9.9Zm-78,6.5V574h85.3v18.1Z"/></clipPath>
<clipPath id="cf_13"><path d="M784.6,585.6v-9.9h77.2v9.9Z"/></clipPath>
<clipPath id="cg_13"><path d="M822.9,584.7c1.1,0,1.6,-1.3,1.6,-2.3v-.5h-.4c-.8,0,-2.3,0,-2.3,1.5c0,.8,.5,1.3,1.1,1.3Zm8.4,0c1,0,1.5,-1.3,1.5,-2.3v-.5h-.3c-.8,0,-2.3,0,-2.3,1.5c0,.8,.5,1.3,1.1,1.3Zm-14.1,.1c1,0,1.6,-.9,1.6,-2.9c0,-1.4,-.4,-2.8,-1.6,-2.8c-1,0,-1.6,1.1,-1.6,2.8c0,1.8,.5,2.9,1.6,2.9Zm41.7,0c1.2,0,2,-1.3,2,-2.9c0,-1.6,-.8,-2.8,-2,-2.8c-1.2,0,-1.9,1.2,-1.9,2.8c0,1.6,.7,2.9,1.9,2.9ZM796,581.2c0,-1.4,-.5,-2.1,-1.4,-2.1c-.9,0,-1.6,.8,-1.7,2.1Zm16.7,0c0,-1.4,-.5,-2.1,-1.4,-2.1c-1,0,-1.6,.8,-1.7,2.1Zm34.6,4.2v-6.9h.9v6.9Zm-52.5,.2c-1.8,0,-2.8,-1.5,-2.8,-3.7c0,-2.2,1,-3.6,2.6,-3.6c1.7,0,2.3,1.5,2.3,3.1c0,.2,0,.4,0,.6h-4c0,1.8,.9,2.7,1.9,2.7c.7,0,1.3,-.2,1.7,-.7l.3,.8c-.5,.4,-1.2,.8,-2,.8Zm16.6,0c-1.7,0,-2.8,-1.5,-2.8,-3.7c0,-2.2,1.1,-3.6,2.7,-3.6c1.6,0,2.3,1.5,2.3,3.1c0,.2,0,.4,-.1,.6h-3.9c0,1.8,.8,2.7,1.9,2.7c.6,0,1.3,-.2,1.7,-.7l.3,.8c-.5,.4,-1.3,.8,-2.1,.8Zm11.4,-.1c-.9,0,-1.8,-.6,-1.8,-2c0,-2.2,2.1,-2.4,3.1,-2.4h.4v-.2c0,-1.4,-.5,-1.8,-1.3,-1.8c-.5,0,-1.1,.2,-1.5,.5l-.3,-.7c.5,-.4,1.2,-.6,1.9,-.6c1.4,0,2.1,.9,2.1,2.7v4.4h-.9v-.6c0,-.4,.1,-.6,.1,-.6h-.1c-.3,.6,-.8,1.3,-1.7,1.3Zm8.3,0c-.8,0,-1.8,-.6,-1.8,-2c0,-2.2,2.1,-2.4,3.2,-2.4h.3v-.2c0,-1.4,-.5,-1.8,-1.2,-1.8c-.5,0,-1.1,.2,-1.6,.5l-.2,-.7c.4,-.4,1.2,-.6,1.8,-.6c1.4,0,2.1,.9,2.1,2.7v4.4h-.8v-.6c0,-.4,0,-.6,0,-.6c-.3,.6,-.8,1.3,-1.8,1.3Zm18.8,-.1v-6.9h.9v.7c0,.2,0,.4,0,.4c.2,-.5,.9,-1.3,2.1,-1.3c1.3,0,1.8,.9,1.8,2.2v4.9h-.9v-4.7c0,-.7,-.1,-1.5,-1.1,-1.5c-1.1,0,-1.9,1.1,-1.9,2.1v4.1Zm9,.2c-1.7,0,-2.8,-1.6,-2.8,-3.7c0,-2.1,1.1,-3.6,2.8,-3.6c1.8,0,2.9,1.6,2.9,3.6c0,2.1,-1.1,3.7,-2.9,3.7Zm-72,-1c1.8,0,2.9,-1.4,2.9,-4c0,-2.6,-1.1,-4,-2.9,-4h-1.4v8Zm-2.3,.8v-9.7H787c2.3,0,3.8,1.8,3.8,4.9c0,3,-1.5,4.8,-3.8,4.8Zm16.6,0v-9.7h.9l3.6,6.9c.3,.4,.6,1.2,.6,1.2c0,0,-.1,-.8,-.1,-1.3v-6.8h.9v9.7h-.9l-3.6,-6.9c-.3,-.5,-.6,-1.3,-.6,-1.3c0,0,.1,.8,.1,1.3v6.9Zm15.8,.2c-1.6,0,-2.3,-1.5,-2.3,-3.7c0,-2.2,.8,-3.6,2.4,-3.6c.8,0,1.4,.4,1.7,1.1c0,0,0,-.2,0,-.5v-3.2h.9v9.7h-.9v-.6c0,-.3,0,-.5,0,-.5c-.2,.7,-.8,1.3,-1.8,1.3Zm21.1,-.2l.6,-9.7h1l1.8,5.6c.1,.5,.3,1.3,.3,1.3h.1c0,0,.1,-.8,.3,-1.3l1.8,-5.6h1l.6,9.7h-.9l-.4,-6.7c0,-.6,0,-1.4,0,-1.4c0,0,-.2,1,-.4,1.5l-1.6,4.8h-.9l-1.6,-4.8c-.2,-.5,-.4,-1.5,-.4,-1.5c0,0,0,.8,-.1,1.4l-.4,6.7Zm9.1,-8.5v-1.2h1v1.2Zm5.9,.5c-.7,0,-.9,-1,-1.3,-1c-.4,0,-.4,.6,-.4,.9h-.7c0,-1,.3,-1.6,1,-1.6c.8,0,.9,1,1.4,1c.3,0,.4,-.6,.4,-1h.7c0,1.1,-.4,1.7,-1.1,1.7Z"/></clipPath>
<clipPath id="ch_13"><path d="M665.7,99.4V84h52.2V99.4Z"/></clipPath>
<clipPath id="ci_13"><path d="M688.6,169.2V153.8H853.1v15.4Z"/></clipPath>
<clipPath id="cj_13"><path d="M750.3,79V63.6h30.8V79Z"/></clipPath>
<clipPath id="ck_13"><path d="M741.1,95.9V80.5h29.7V95.9Z"/></clipPath>
<clipPath id="cl_13"><path d="M743,60.7V45.3h46.2V60.7Z"/></clipPath>
<clipPath id="cm_13"><path d="M723.3,122.9V107.5h92.4v15.4Z"/></clipPath>
<clipPath id="cn_13"><path d="M731.8,97.5l-5,-1.6l2.6,-8.4l5,1.5l-2.6,8.5Z"/></clipPath>
<clipPath id="co_13"><path d="M714.2,141.8V126.4H844.5v15.4Z"/></clipPath>
<clipPath id="cp_13"><path d="M717.5,110.3c-.4,-1,-1.2,-1.7,-2.1,-2.2l-1.3,-2l7.4,-4.8l2.9,4.5l-6.9,4.5Z"/></clipPath>
<clipPath id="cq_13"><path d="M717,110.6l-1.6,-2.5c.9,.5,1.7,1.2,2.1,2.2l-.5,.3Z"/></clipPath>
<clipPath id="cr_13"><path d="M710.5,124.9l-5,-1.5l2.6,-8.5l5,1.6l-2.6,8.4Z"/></clipPath>
<clipPath id="cs_13"><path d="M699.8,139.9c-.6,-.7,-1.3,-1.4,-2.1,-1.9l-1.4,-2.1l7.4,-4.9l2.9,4.5l-6.8,4.4Z"/></clipPath>
<clipPath id="ct_13"><path d="M699.2,140.3L697.7,138c.8,.5,1.5,1.2,2.1,1.9l-.6,.4Z"/></clipPath>
<clipPath id="cu_13"><path d="M0,1286.2V0H909.4V1286.2Z"/></clipPath>
<style type="text/css"><![CDATA[
.g0_13{
fill: #4BC0B5;
}
.g1_13{
fill: #DCDDDE;
}
.g2_13{
fill: #8FD3D3;
}
.g3_13{
fill: #DEF1F0;
}
.g4_13{
fill: #5AC4C1;
}
.g5_13{
fill: #58595B;
}
.g6_13{
fill: #7C7C65;
}
]]></style>
</defs>
<path d="M879.6,1286.2h29.8V1029H879.6v257.2Z" class="g0_13"/>
<image clip-path="url(#c0_13)" preserveAspectRatio="none" x="881" y="1034" width="24" height="39" xlink:href="img/1.jpg"/>
<image clip-path="url(#c1_13)" preserveAspectRatio="none" x="503" y="5" width="99" height="144" xlink:href="img/2.jpg"/>
<path d="M600.4,1247.2H870.5v-760H600.4v760Z" class="g1_13"/>
<path d="M0,597.6H306.7V147.2H0V597.6Z" class="g2_13"/>
<image clip-path="url(#c2_13)" preserveAspectRatio="none" x="0" y="147" width="307" height="451" xlink:href="img/3.jpg"/>
<path d="M320.5,597.6h550V147.2h-550V597.6Z" class="g2_13"/>
<image clip-path="url(#c3_13)" preserveAspectRatio="none" x="320" y="147" width="551" height="451" xlink:href="img/4.jpg"/>
<image clip-path="url(#c4_13)" preserveAspectRatio="none" x="106" y="574" width="194" height="21" xlink:href="img/5.jpg"/>
<path d="M52.6,130.5c2.1,0,3.8,-1.7,3.8,-3.8c0,-2.1,-1.7,-3.8,-3.8,-3.8c-2.1,0,-3.8,1.7,-3.8,3.8c0,2.1,1.7,3.8,3.8,3.8Z" class="g3_13"/>
<path d="M52.6,130.5v.5c2.4,0,4.3,-1.9,4.3,-4.3c0,-2.4,-1.9,-4.3,-4.3,-4.3c-2.4,0,-4.3,1.9,-4.3,4.3c0,2.4,1.9,4.3,4.3,4.3v-1.1c-1.8,0,-3.2,-1.4,-3.2,-3.2c0,-1.8,1.4,-3.2,3.2,-3.2c1.8,0,3.2,1.4,3.2,3.2c0,1.8,-1.4,3.2,-3.2,3.2Z" class="g4_13"/>
<path d="M59.7,127.7H84.8v-1.6H59.7Z" class="g4_13"/>
<image clip-path="url(#c5_13)" preserveAspectRatio="none" x="67" y="104" width="13" height="17" xlink:href="img/6.jpg"/>
<path d="M92,130.5c2.1,0,3.8,-1.7,3.8,-3.8c0,-2.1,-1.7,-3.8,-3.8,-3.8c-2.1,0,-3.8,1.7,-3.8,3.8c0,2.1,1.7,3.8,3.8,3.8Z" class="g3_13"/>
<path d="M92,130.5v.5c2.4,0,4.3,-1.9,4.3,-4.3c0,-2.4,-1.9,-4.3,-4.3,-4.3c-2.4,0,-4.3,1.9,-4.3,4.3c0,2.4,1.9,4.3,4.3,4.3v-1.1c-1.8,0,-3.2,-1.4,-3.2,-3.2c0,-1.8,1.4,-3.2,3.2,-3.2c1.8,0,3.2,1.4,3.2,3.2c0,1.8,-1.4,3.2,-3.2,3.2Z" class="g4_13"/>
<path d="M99.4,127.7h26.1v-1.6H99.4Z" class="g4_13"/>
<image clip-path="url(#c6_13)" preserveAspectRatio="none" x="107" y="104" width="13" height="17" xlink:href="img/7.jpg"/>
<path d="M133.4,130.5c2.1,0,3.7,-1.7,3.7,-3.8c0,-2.1,-1.6,-3.8,-3.7,-3.8c-2.1,0,-3.8,1.7,-3.8,3.8c0,2.1,1.7,3.8,3.8,3.8Z" class="g3_13"/>
<path d="M133.4,130.5v.5c2.4,0,4.3,-1.9,4.3,-4.3c0,-2.4,-1.9,-4.3,-4.3,-4.3c-2.4,0,-4.3,1.9,-4.3,4.3c0,2.4,1.9,4.3,4.3,4.3v-1.1c-1.8,0,-3.2,-1.4,-3.2,-3.2c0,-1.8,1.4,-3.2,3.2,-3.2c1.8,0,3.2,1.4,3.2,3.2c0,1.8,-1.4,3.2,-3.2,3.2Z" class="g4_13"/>
<image clip-path="url(#c7_13)" preserveAspectRatio="none" x="146" y="104" width="12" height="17" xlink:href="img/8.jpg"/>
<path d="M140.4,127.7h30.3v-1.6H140.4Z" class="g4_13"/>
<path d="M242.4,130.5c2.1,0,3.8,-1.7,3.8,-3.8c0,-2.1,-1.7,-3.8,-3.8,-3.8c-2,0,-3.7,1.7,-3.7,3.8c0,2.1,1.7,3.8,3.7,3.8Z" class="g3_13"/>
<path d="M242.4,130.5v.5c2.4,0,4.4,-1.9,4.4,-4.3c0,-2.4,-2,-4.3,-4.4,-4.3c-2.3,0,-4.3,1.9,-4.3,4.3c0,2.4,2,4.3,4.3,4.3v-1.1c-1.7,0,-3.2,-1.4,-3.2,-3.2c0,-1.8,1.5,-3.2,3.2,-3.2c1.8,0,3.3,1.4,3.3,3.2c0,1.8,-1.5,3.2,-3.3,3.2Z" class="g4_13"/>
<image clip-path="url(#c8_13)" preserveAspectRatio="none" x="275" y="105" width="13" height="17" xlink:href="img/9.jpg"/>
<path d="M250.6,127.7h74.3v-1.6H250.6Z" class="g4_13"/>
<path d="M332.7,130.5c2.1,0,3.8,-1.7,3.8,-3.8c0,-2.1,-1.7,-3.8,-3.8,-3.8c-2,0,-3.7,1.7,-3.7,3.8c0,2.1,1.7,3.8,3.7,3.8Z" class="g3_13"/>
<path d="M332.7,130.5v.5c2.4,0,4.4,-1.9,4.4,-4.3c0,-2.4,-2,-4.3,-4.4,-4.3c-2.3,0,-4.3,1.9,-4.3,4.3c0,2.4,2,4.3,4.3,4.3v-1.1c-1.7,0,-3.2,-1.4,-3.2,-3.2c0,-1.8,1.5,-3.2,3.2,-3.2c1.8,0,3.3,1.4,3.3,3.2c0,1.8,-1.5,3.2,-3.3,3.2Z" class="g4_13"/>
<image clip-path="url(#c9_13)" preserveAspectRatio="none" x="379" y="105" width="13" height="17" xlink:href="img/10.jpg"/>
<path d="M340.9,127.7h63.5v-1.6H340.9Z" class="g4_13"/>
<path d="M412.2,130.5c2.1,0,3.8,-1.7,3.8,-3.8c0,-2.1,-1.7,-3.8,-3.8,-3.8c-2.1,0,-3.8,1.7,-3.8,3.8c0,2.1,1.7,3.8,3.8,3.8Z" class="g3_13"/>
<path d="M412.2,130.5v.5c2.4,0,4.3,-1.9,4.3,-4.3c0,-2.4,-1.9,-4.3,-4.3,-4.3c-2.4,0,-4.3,1.9,-4.3,4.3c0,2.4,1.9,4.3,4.3,4.3v-1.1c-1.8,0,-3.2,-1.4,-3.2,-3.2c0,-1.8,1.4,-3.2,3.2,-3.2c1.8,0,3.2,1.4,3.2,3.2c0,1.8,-1.4,3.2,-3.2,3.2Z" class="g4_13"/>
<path d="M177.7,130.5c2.1,0,3.8,-1.7,3.8,-3.8c0,-2.1,-1.7,-3.8,-3.8,-3.8c-2.1,0,-3.8,1.7,-3.8,3.8c0,2.1,1.7,3.8,3.8,3.8Z" class="g3_13"/>
<path d="M177.7,130.5v.5c2.4,0,4.3,-1.9,4.3,-4.3c0,-2.4,-1.9,-4.3,-4.3,-4.3c-2.4,0,-4.3,1.9,-4.3,4.3c0,2.4,1.9,4.3,4.3,4.3v-1.1c-1.8,0,-3.2,-1.4,-3.2,-3.2c0,-1.8,1.4,-3.2,3.2,-3.2c1.8,0,3.2,1.4,3.2,3.2c0,1.8,-1.4,3.2,-3.2,3.2Z" class="g4_13"/>
<image clip-path="url(#ca_13)" preserveAspectRatio="none" x="197" y="105" width="13" height="17" xlink:href="img/11.jpg"/>
<path d="M184.7,127.7h49.6v-1.6H184.7Z" class="g4_13"/>
<path d="M602.4,1227.8v0c.2,0,.3,-.2,.3,-.4c0,-.2,-.1,-.4,-.3,-.4c-.3,0,-.4,.2,-.4,.4c0,.2,.1,.4,.4,.4m1.5,0v0c.2,0,.4,-.2,.4,-.4c0,-.2,-.2,-.4,-.4,-.4c-.2,0,-.4,.2,-.4,.4c0,.2,.2,.4,.4,.4m1.5,0v0c.2,0,.4,-.2,.4,-.4c0,-.2,-.2,-.4,-.4,-.4c-.2,0,-.4,.2,-.4,.4c0,.2,.2,.4,.4,.4m1.6,0v0c.2,0,.3,-.2,.3,-.4c0,-.2,-.1,-.4,-.3,-.4c-.3,0,-.4,.2,-.4,.4c0,.2,.1,.4,.4,.4m1.5,0v0c.2,0,.4,-.2,.4,-.4c0,-.2,-.2,-.4,-.4,-.4c-.2,0,-.4,.2,-.4,.4c0,.2,.2,.4,.4,.4m1.5,0v0c.2,0,.4,-.2,.4,-.4c0,-.2,-.2,-.4,-.4,-.4c-.2,0,-.4,.2,-.4,.4c0,.2,.2,.4,.4,.4m1.5,0v0c.3,0,.4,-.2,.4,-.4c0,-.2,-.1,-.4,-.4,-.4c-.2,0,-.3,.2,-.3,.4c0,.2,.1,.4,.3,.4m1.6,0v0c.2,0,.4,-.2,.4,-.4c0,-.2,-.2,-.4,-.4,-.4c-.2,0,-.4,.2,-.4,.4c0,.2,.2,.4,.4,.4m1.5,0v0c.2,0,.4,-.2,.4,-.4c0,-.2,-.2,-.4,-.4,-.4c-.2,0,-.4,.2,-.4,.4c0,.2,.2,.4,.4,.4m1.5,0v0c.3,0,.4,-.2,.4,-.4c0,-.2,-.1,-.4,-.4,-.4c-.2,0,-.3,.2,-.3,.4c0,.2,.1,.4,.3,.4m1.6,0v0c.2,0,.4,-.2,.4,-.4c0,-.2,-.2,-.4,-.4,-.4c-.2,0,-.4,.2,-.4,.4c0,.2,.2,.4,.4,.4m1.5,0v0c.2,0,.4,-.2,.4,-.4c0,-.2,-.2,-.4,-.4,-.4c-.2,0,-.4,.2,-.4,.4c0,.2,.2,.4,.4,.4m1.5,0v0c.3,0,.4,-.2,.4,-.4c0,-.2,-.1,-.4,-.4,-.4c-.2,0,-.3,.2,-.3,.4c0,.2,.1,.4,.3,.4m1.6,0v0c.2,0,.4,-.2,.4,-.4c0,-.2,-.2,-.4,-.4,-.4c-.2,0,-.4,.2,-.4,.4c0,.2,.2,.4,.4,.4m1.5,0v0c.2,0,.4,-.2,.4,-.4c0,-.2,-.2,-.4,-.4,-.4c-.2,0,-.4,.2,-.4,.4c0,.2,.2,.4,.4,.4m1.5,0v0c.3,0,.4,-.2,.4,-.4c0,-.2,-.1,-.4,-.4,-.4c-.2,0,-.3,.2,-.3,.4c0,.2,.1,.4,.3,.4m1.6,0v0c.2,0,.4,-.2,.4,-.4c0,-.2,-.2,-.4,-.4,-.4c-.2,0,-.4,.2,-.4,.4c0,.2,.2,.4,.4,.4m1.5,0v0c.2,0,.4,-.2,.4,-.4c0,-.2,-.2,-.4,-.4,-.4c-.2,0,-.4,.2,-.4,.4c0,.2,.2,.4,.4,.4m1.5,0v0c.3,0,.4,-.2,.4,-.4c0,-.2,-.1,-.4,-.4,-.4c-.2,0,-.3,.2,-.3,.4c0,.2,.1,.4,.3,.4m1.6,0v0c.2,0,.4,-.2,.4,-.4c0,-.2,-.2,-.4,-.4,-.4c-.2,0,-.4,.2,-.4,.4c0,.2,.2,.4,.4,.4m1.5,0v0c.2,0,.4,-.2,.4,-.4c0,-.2,-.2,-.4,-.4,-.4c-.2,0,-.4,.2,-.4,.4c0,.2,.2,.4,.4,.4m1.5,0v0c.3,0,.4,-.2,.4,-.4c0,-.2,-.1,-.4,-.4,-.4c-.2,0,-.3,.2,-.3,.4c0,.2,.1,.4,.3,.4m1.6,0v0c.2,0,.4,-.2,.4,-.4c0,-.2,-.2,-.4,-.4,-.4c-.2,0,-.4,.2,-.4,.4c0,.2,.2,.4,.4,.4m1.5,0v0c.2,0,.4,-.2,.4,-.4c0,-.2,-.2,-.4,-.4,-.4c-.2,0,-.4,.2,-.4,.4c0,.2,.2,.4,.4,.4m1.5,0v0c.3,0,.4,-.2,.4,-.4c0,-.2,-.1,-.4,-.4,-.4c-.2,0,-.3,.2,-.3,.4c0,.2,.1,.4,.3,.4m1.6,0v0c.2,0,.4,-.2,.4,-.4c0,-.2,-.2,-.4,-.4,-.4c-.2,0,-.4,.2,-.4,.4c0,.2,.2,.4,.4,.4m1.5,0v0c.2,0,.4,-.2,.4,-.4c0,-.2,-.2,-.4,-.4,-.4c-.2,0,-.4,.2,-.4,.4c0,.2,.2,.4,.4,.4m1.5,0v0c.3,0,.4,-.2,.4,-.4c0,-.2,-.1,-.4,-.4,-.4c-.2,0,-.3,.2,-.3,.4c0,.2,.1,.4,.3,.4m1.6,0v0c.2,0,.4,-.2,.4,-.4c0,-.2,-.2,-.4,-.4,-.4c-.2,0,-.4,.2,-.4,.4c0,.2,.2,.4,.4,.4m1.5,0v0c.2,0,.4,-.2,.4,-.4c0,-.2,-.2,-.4,-.4,-.4c-.2,0,-.4,.2,-.4,.4c0,.2,.2,.4,.4,.4m1.5,0v0c.3,0,.4,-.2,.4,-.4c0,-.2,-.1,-.4,-.4,-.4c-.2,0,-.3,.2,-.3,.4c0,.2,.1,.4,.3,.4m1.6,0v0c.2,0,.4,-.2,.4,-.4c0,-.2,-.2,-.4,-.4,-.4c-.2,0,-.4,.2,-.4,.4c0,.2,.2,.4,.4,.4m1.5,0v0c.2,0,.4,-.2,.4,-.4c0,-.2,-.2,-.4,-.4,-.4c-.2,0,-.4,.2,-.4,.4c0,.2,.2,.4,.4,.4m1.5,0v0c.3,0,.4,-.2,.4,-.4c0,-.2,-.1,-.4,-.4,-.4c-.2,0,-.3,.2,-.3,.4c0,.2,.1,.4,.3,.4m1.6,0v0c.2,0,.4,-.2,.4,-.4c0,-.2,-.2,-.4,-.4,-.4c-.2,0,-.4,.2,-.4,.4c0,.2,.2,.4,.4,.4m1.5,0v0c.2,0,.4,-.2,.4,-.4c0,-.2,-.2,-.4,-.4,-.4c-.2,0,-.4,.2,-.4,.4c0,.2,.2,.4,.4,.4m1.5,0v0c.3,0,.4,-.2,.4,-.4c0,-.2,-.1,-.4,-.4,-.4c-.2,0,-.3,.2,-.3,.4c0,.2,.1,.4,.3,.4m1.6,0v0c.2,0,.4,-.2,.4,-.4c0,-.2,-.2,-.4,-.4,-.4c-.2,0,-.4,.2,-.4,.4c0,.2,.2,.4,.4,.4m1.5,0v0c.2,0,.4,-.2,.4,-.4c0,-.2,-.2,-.4,-.4,-.4c-.2,0,-.4,.2,-.4,.4c0,.2,.2,.4,.4,.4m1.5,0v0c.2,0,.4,-.2,.4,-.4c0,-.2,-.2,-.4,-.4,-.4c-.2,0,-.3,.2,-.3,.4c0,.2,.1,.4,.3,.4m1.6,0v0c.2,0,.4,-.2,.4,-.4c0,-.2,-.2,-.4,-.4,-.4c-.2,0,-.4,.2,-.4,.4c0,.2,.2,.4,.4,.4m1.5,0v0c.2,0,.4,-.2,.4,-.4c0,-.2,-.2,-.4,-.4,-.4c-.2,0,-.4,.2,-.4,.4c0,.2,.2,.4,.4,.4m1.5,0v0c.2,0,.4,-.2,.4,-.4c0,-.2,-.2,-.4,-.4,-.4c-.2,0,-.3,.2,-.3,.4c0,.2,.1,.4,.3,.4m1.6,0v0c.2,0,.4,-.2,.4,-.4c0,-.2,-.2,-.4,-.4,-.4c-.2,0,-.4,.2,-.4,.4c0,.2,.2,.4,.4,.4m1.5,0v0c.2,0,.4,-.2,.4,-.4c0,-.2,-.2,-.4,-.4,-.4c-.2,0,-.4,.2,-.4,.4c0,.2,.2,.4,.4,.4m1.5,0v0c.2,0,.4,-.2,.4,-.4c0,-.2,-.2,-.4,-.4,-.4c-.2,0,-.3,.2,-.3,.4c0,.2,.1,.4,.3,.4m1.6,0v0c.2,0,.4,-.2,.4,-.4c0,-.2,-.2,-.4,-.4,-.4c-.2,0,-.4,.2,-.4,.4c0,.2,.2,.4,.4,.4m1.5,0v0c.2,0,.4,-.2,.4,-.4c0,-.2,-.2,-.4,-.4,-.4c-.2,0,-.4,.2,-.4,.4c0,.2,.2,.4,.4,.4m1.5,0v0c.2,0,.4,-.2,.4,-.4c0,-.2,-.2,-.4,-.4,-.4c-.2,0,-.3,.2,-.3,.4c0,.2,.1,.4,.3,.4m1.6,0v0c.2,0,.4,-.2,.4,-.4c0,-.2,-.2,-.4,-.4,-.4c-.2,0,-.4,.2,-.4,.4c0,.2,.2,.4,.4,.4m1.5,0v0c.2,0,.4,-.2,.4,-.4c0,-.2,-.2,-.4,-.4,-.4c-.2,0,-.4,.2,-.4,.4c0,.2,.2,.4,.4,.4m1.5,0v0c.2,0,.4,-.2,.4,-.4c0,-.2,-.2,-.4,-.4,-.4c-.2,0,-.3,.2,-.3,.4c0,.2,.1,.4,.3,.4m1.6,0v0c.2,0,.3,-.2,.3,-.4c0,-.2,-.1,-.4,-.3,-.4c-.2,0,-.4,.2,-.4,.4c0,.2,.2,.4,.4,.4m1.5,0v0c.2,0,.4,-.2,.4,-.4c0,-.2,-.2,-.4,-.4,-.4c-.2,0,-.4,.2,-.4,.4c0,.2,.2,.4,.4,.4m1.5,0v0c.2,0,.4,-.2,.4,-.4c0,-.2,-.2,-.4,-.4,-.4c-.2,0,-.3,.2,-.3,.4c0,.2,.1,.4,.3,.4m1.6,0v0c.2,0,.3,-.2,.3,-.4c0,-.2,-.1,-.4,-.3,-.4c-.2,0,-.4,.2,-.4,.4c0,.2,.2,.4,.4,.4m1.5,0v0c.2,0,.4,-.2,.4,-.4c0,-.2,-.2,-.4,-.4,-.4c-.2,0,-.4,.2,-.4,.4c0,.2,.2,.4,.4,.4m1.5,0v0c.2,0,.4,-.2,.4,-.4c0,-.2,-.2,-.4,-.4,-.4c-.2,0,-.3,.2,-.3,.4c0,.2,.1,.4,.3,.4m1.6,0v0c.2,0,.3,-.2,.3,-.4c0,-.2,-.1,-.4,-.3,-.4c-.2,0,-.4,.2,-.4,.4c0,.2,.2,.4,.4,.4m1.5,0v0c.2,0,.4,-.2,.4,-.4c0,-.2,-.2,-.4,-.4,-.4c-.2,0,-.4,.2,-.4,.4c0,.2,.2,.4,.4,.4m1.5,0v0c.2,0,.4,-.2,.4,-.4c0,-.2,-.2,-.4,-.4,-.4c-.2,0,-.3,.2,-.3,.4c0,.2,.1,.4,.3,.4m1.6,0v0c.2,0,.3,-.2,.3,-.4c0,-.2,-.1,-.4,-.3,-.4c-.2,0,-.4,.2,-.4,.4c0,.2,.2,.4,.4,.4m1.5,0v0c.2,0,.4,-.2,.4,-.4c0,-.2,-.2,-.4,-.4,-.4c-.2,0,-.4,.2,-.4,.4c0,.2,.2,.4,.4,.4m1.5,0v0c.2,0,.4,-.2,.4,-.4c0,-.2,-.2,-.4,-.4,-.4c-.2,0,-.4,.2,-.4,.4c0,.2,.2,.4,.4,.4m1.6,0v0c.2,0,.3,-.2,.3,-.4c0,-.2,-.1,-.4,-.3,-.4c-.2,0,-.4,.2,-.4,.4c0,.2,.2,.4,.4,.4m1.5,0v0c.2,0,.4,-.2,.4,-.4c0,-.2,-.2,-.4,-.4,-.4c-.2,0,-.4,.2,-.4,.4c0,.2,.2,.4,.4,.4m1.5,0v0c.2,0,.4,-.2,.4,-.4c0,-.2,-.2,-.4,-.4,-.4c-.2,0,-.4,.2,-.4,.4c0,.2,.2,.4,.4,.4m1.6,0v0c.2,0,.3,-.2,.3,-.4c0,-.2,-.1,-.4,-.3,-.4c-.2,0,-.4,.2,-.4,.4c0,.2,.2,.4,.4,.4m1.5,0v0c.2,0,.4,-.2,.4,-.4c0,-.2,-.2,-.4,-.4,-.4c-.2,0,-.4,.2,-.4,.4c0,.2,.2,.4,.4,.4m1.5,0v0c.2,0,.4,-.2,.4,-.4c0,-.2,-.2,-.4,-.4,-.4c-.2,0,-.4,.2,-.4,.4c0,.2,.2,.4,.4,.4m1.6,0v0c.2,0,.3,-.2,.3,-.4c0,-.2,-.1,-.4,-.3,-.4c-.2,0,-.4,.2,-.4,.4c0,.2,.2,.4,.4,.4m1.5,0v0c.2,0,.4,-.2,.4,-.4c0,-.2,-.2,-.4,-.4,-.4c-.2,0,-.4,.2,-.4,.4c0,.2,.2,.4,.4,.4m1.5,0v0c.2,0,.4,-.2,.4,-.4c0,-.2,-.2,-.4,-.4,-.4c-.2,0,-.4,.2,-.4,.4c0,.2,.2,.4,.4,.4m1.6,0v0c.2,0,.3,-.2,.3,-.4c0,-.2,-.1,-.4,-.3,-.4c-.3,0,-.4,.2,-.4,.4c0,.2,.1,.4,.4,.4m1.5,0v0c.2,0,.4,-.2,.4,-.4c0,-.2,-.2,-.4,-.4,-.4c-.2,0,-.4,.2,-.4,.4c0,.2,.2,.4,.4,.4m1.5,0v0c.2,0,.4,-.2,.4,-.4c0,-.2,-.2,-.4,-.4,-.4c-.2,0,-.4,.2,-.4,.4c0,.2,.2,.4,.4,.4m1.6,0v0c.2,0,.3,-.2,.3,-.4c0,-.2,-.1,-.4,-.3,-.4c-.3,0,-.4,.2,-.4,.4c0,.2,.1,.4,.4,.4m1.5,0v0c.2,0,.4,-.2,.4,-.4c0,-.2,-.2,-.4,-.4,-.4c-.2,0,-.4,.2,-.4,.4c0,.2,.2,.4,.4,.4m1.5,0v0c.2,0,.4,-.2,.4,-.4c0,-.2,-.2,-.4,-.4,-.4c-.2,0,-.4,.2,-.4,.4c0,.2,.2,.4,.4,.4m1.6,0v0c.2,0,.3,-.2,.3,-.4c0,-.2,-.1,-.4,-.3,-.4c-.3,0,-.4,.2,-.4,.4c0,.2,.1,.4,.4,.4m1.5,0v0c.2,0,.4,-.2,.4,-.4c0,-.2,-.2,-.4,-.4,-.4c-.2,0,-.4,.2,-.4,.4c0,.2,.2,.4,.4,.4m1.5,0v0c.2,0,.4,-.2,.4,-.4c0,-.2,-.2,-.4,-.4,-.4c-.2,0,-.4,.2,-.4,.4c0,.2,.2,.4,.4,.4m1.6,0v0c.2,0,.3,-.2,.3,-.4c0,-.2,-.1,-.4,-.3,-.4c-.3,0,-.4,.2,-.4,.4c0,.2,.1,.4,.4,.4m1.5,0v0c.2,0,.4,-.2,.4,-.4c0,-.2,-.2,-.4,-.4,-.4c-.2,0,-.4,.2,-.4,.4c0,.2,.2,.4,.4,.4m1.5,0v0c.2,0,.4,-.2,.4,-.4c0,-.2,-.2,-.4,-.4,-.4c-.2,0,-.4,.2,-.4,.4c0,.2,.2,.4,.4,.4m1.6,0v0c.2,0,.3,-.2,.3,-.4c0,-.2,-.1,-.4,-.3,-.4c-.3,0,-.4,.2,-.4,.4c0,.2,.1,.4,.4,.4m1.5,0v0c.2,0,.4,-.2,.4,-.4c0,-.2,-.2,-.4,-.4,-.4c-.2,0,-.4,.2,-.4,.4c0,.2,.2,.4,.4,.4m1.5,0v0c.2,0,.4,-.2,.4,-.4c0,-.2,-.2,-.4,-.4,-.4c-.2,0,-.4,.2,-.4,.4c0,.2,.2,.4,.4,.4m1.6,0v0c.2,0,.3,-.2,.3,-.4c0,-.2,-.1,-.4,-.3,-.4c-.3,0,-.4,.2,-.4,.4c0,.2,.1,.4,.4,.4m1.5,0v0c.2,0,.4,-.2,.4,-.4c0,-.2,-.2,-.4,-.4,-.4c-.2,0,-.4,.2,-.4,.4c0,.2,.2,.4,.4,.4m1.5,0v0c.2,0,.4,-.2,.4,-.4c0,-.2,-.2,-.4,-.4,-.4c-.2,0,-.4,.2,-.4,.4c0,.2,.2,.4,.4,.4m1.6,0v0c.2,0,.3,-.2,.3,-.4c0,-.2,-.1,-.4,-.3,-.4c-.3,0,-.4,.2,-.4,.4c0,.2,.1,.4,.4,.4m1.5,0v0c.2,0,.4,-.2,.4,-.4c0,-.2,-.2,-.4,-.4,-.4c-.2,0,-.4,.2,-.4,.4c0,.2,.2,.4,.4,.4m1.5,0v0c.2,0,.4,-.2,.4,-.4c0,-.2,-.2,-.4,-.4,-.4c-.2,0,-.4,.2,-.4,.4c0,.2,.2,.4,.4,.4m1.6,0v0c.2,0,.3,-.2,.3,-.4c0,-.2,-.1,-.4,-.3,-.4c-.3,0,-.4,.2,-.4,.4c0,.2,.1,.4,.4,.4m1.5,0v0c.2,0,.4,-.2,.4,-.4c0,-.2,-.2,-.4,-.4,-.4c-.2,0,-.4,.2,-.4,.4c0,.2,.2,.4,.4,.4m1.5,0v0c.2,0,.4,-.2,.4,-.4c0,-.2,-.2,-.4,-.4,-.4c-.2,0,-.4,.2,-.4,.4c0,.2,.2,.4,.4,.4m1.6,0v0c.2,0,.3,-.2,.3,-.4c0,-.2,-.1,-.4,-.3,-.4c-.3,0,-.4,.2,-.4,.4c0,.2,.1,.4,.4,.4m1.5,0v0c.2,0,.4,-.2,.4,-.4c0,-.2,-.2,-.4,-.4,-.4c-.2,0,-.4,.2,-.4,.4c0,.2,.2,.4,.4,.4m1.5,0v0c.2,0,.4,-.2,.4,-.4c0,-.2,-.2,-.4,-.4,-.4c-.2,0,-.4,.2,-.4,.4c0,.2,.2,.4,.4,.4m1.6,0v0c.2,0,.3,-.2,.3,-.4c0,-.2,-.1,-.4,-.3,-.4c-.3,0,-.4,.2,-.4,.4c0,.2,.1,.4,.4,.4m1.5,0v0c.2,0,.4,-.2,.4,-.4c0,-.2,-.2,-.4,-.4,-.4c-.2,0,-.4,.2,-.4,.4c0,.2,.2,.4,.4,.4m1.5,0v0c.2,0,.4,-.2,.4,-.4c0,-.2,-.2,-.4,-.4,-.4c-.2,0,-.4,.2,-.4,.4c0,.2,.2,.4,.4,.4m1.5,0v0c.3,0,.4,-.2,.4,-.4c0,-.2,-.1,-.4,-.4,-.4c-.2,0,-.3,.2,-.3,.4c0,.2,.1,.4,.3,.4m1.6,0v0c.2,0,.4,-.2,.4,-.4c0,-.2,-.2,-.4,-.4,-.4c-.2,0,-.4,.2,-.4,.4c0,.2,.2,.4,.4,.4m1.5,0v0c.2,0,.4,-.2,.4,-.4c0,-.2,-.2,-.4,-.4,-.4c-.2,0,-.4,.2,-.4,.4c0,.2,.2,.4,.4,.4m1.5,0v0c.3,0,.4,-.2,.4,-.4c0,-.2,-.1,-.4,-.4,-.4c-.2,0,-.3,.2,-.3,.4c0,.2,.1,.4,.3,.4m1.6,0v0c.2,0,.4,-.2,.4,-.4c0,-.2,-.2,-.4,-.4,-.4c-.2,0,-.4,.2,-.4,.4c0,.2,.2,.4,.4,.4m1.5,0v0c.2,0,.4,-.2,.4,-.4c0,-.2,-.2,-.4,-.4,-.4c-.2,0,-.4,.2,-.4,.4c0,.2,.2,.4,.4,.4m1.5,0v0c.3,0,.4,-.2,.4,-.4c0,-.2,-.1,-.4,-.4,-.4c-.2,0,-.3,.2,-.3,.4c0,.2,.1,.4,.3,.4m1.6,0v0c.2,0,.4,-.2,.4,-.4c0,-.2,-.2,-.4,-.4,-.4c-.2,0,-.4,.2,-.4,.4c0,.2,.2,.4,.4,.4m1.5,0v0c.2,0,.4,-.2,.4,-.4c0,-.2,-.2,-.4,-.4,-.4c-.2,0,-.4,.2,-.4,.4c0,.2,.2,.4,.4,.4m1.5,0v0c.3,0,.4,-.2,.4,-.4c0,-.2,-.1,-.4,-.4,-.4c-.2,0,-.3,.2,-.3,.4c0,.2,.1,.4,.3,.4m1.6,0v0c.2,0,.4,-.2,.4,-.4c0,-.2,-.2,-.4,-.4,-.4c-.2,0,-.4,.2,-.4,.4c0,.2,.2,.4,.4,.4m1.5,0v0c.2,0,.4,-.2,.4,-.4c0,-.2,-.2,-.4,-.4,-.4c-.2,0,-.4,.2,-.4,.4c0,.2,.2,.4,.4,.4m1.5,0v0c.3,0,.4,-.2,.4,-.4c0,-.2,-.1,-.4,-.4,-.4c-.2,0,-.3,.2,-.3,.4c0,.2,.1,.4,.3,.4m1.6,0v0c.2,0,.4,-.2,.4,-.4c0,-.2,-.2,-.4,-.4,-.4c-.2,0,-.4,.2,-.4,.4c0,.2,.2,.4,.4,.4m1.5,0v0c.2,0,.4,-.2,.4,-.4c0,-.2,-.2,-.4,-.4,-.4c-.2,0,-.4,.2,-.4,.4c0,.2,.2,.4,.4,.4m1.5,0v0c.3,0,.4,-.2,.4,-.4c0,-.2,-.1,-.4,-.4,-.4c-.2,0,-.3,.2,-.3,.4c0,.2,.1,.4,.3,.4m1.6,0v0c.2,0,.4,-.2,.4,-.4c0,-.2,-.2,-.4,-.4,-.4c-.2,0,-.4,.2,-.4,.4c0,.2,.2,.4,.4,.4m1.5,0v0c.2,0,.4,-.2,.4,-.4c0,-.2,-.2,-.4,-.4,-.4c-.2,0,-.4,.2,-.4,.4c0,.2,.2,.4,.4,.4m1.5,0v0c.3,0,.4,-.2,.4,-.4c0,-.2,-.1,-.4,-.4,-.4c-.2,0,-.3,.2,-.3,.4c0,.2,.1,.4,.3,.4m1.6,0v0c.2,0,.4,-.2,.4,-.4c0,-.2,-.2,-.4,-.4,-.4c-.2,0,-.4,.2,-.4,.4c0,.2,.2,.4,.4,.4m1.5,0v0c.2,0,.4,-.2,.4,-.4c0,-.2,-.2,-.4,-.4,-.4c-.2,0,-.4,.2,-.4,.4c0,.2,.2,.4,.4,.4m1.5,0v0c.3,0,.4,-.2,.4,-.4c0,-.2,-.1,-.4,-.4,-.4c-.2,0,-.3,.2,-.3,.4c0,.2,.1,.4,.3,.4m1.6,0v0c.2,0,.4,-.2,.4,-.4c0,-.2,-.2,-.4,-.4,-.4c-.2,0,-.4,.2,-.4,.4c0,.2,.2,.4,.4,.4m1.5,0v0c.2,0,.4,-.2,.4,-.4c0,-.2,-.2,-.4,-.4,-.4c-.2,0,-.4,.2,-.4,.4c0,.2,.2,.4,.4,.4m1.5,0v0c.3,0,.4,-.2,.4,-.4c0,-.2,-.1,-.4,-.4,-.4c-.2,0,-.3,.2,-.3,.4c0,.2,.1,.4,.3,.4m1.6,0v0c.2,0,.4,-.2,.4,-.4c0,-.2,-.2,-.4,-.4,-.4c-.2,0,-.4,.2,-.4,.4c0,.2,.2,.4,.4,.4m1.5,0v0c.2,0,.4,-.2,.4,-.4c0,-.2,-.2,-.4,-.4,-.4c-.2,0,-.4,.2,-.4,.4c0,.2,.2,.4,.4,.4m1.5,0v0c.3,0,.4,-.2,.4,-.4c0,-.2,-.1,-.4,-.4,-.4c-.2,0,-.3,.2,-.3,.4c0,.2,.1,.4,.3,.4m1.6,0v0c.2,0,.4,-.2,.4,-.4c0,-.2,-.2,-.4,-.4,-.4c-.2,0,-.4,.2,-.4,.4c0,.2,.2,.4,.4,.4m1.5,0v0c.2,0,.4,-.2,.4,-.4c0,-.2,-.2,-.4,-.4,-.4c-.2,0,-.4,.2,-.4,.4c0,.2,.2,.4,.4,.4m1.5,0v0c.3,0,.4,-.2,.4,-.4c0,-.2,-.1,-.4,-.4,-.4c-.2,0,-.3,.2,-.3,.4c0,.2,.1,.4,.3,.4m1.6,0v0c.2,0,.4,-.2,.4,-.4c0,-.2,-.2,-.4,-.4,-.4c-.2,0,-.4,.2,-.4,.4c0,.2,.2,.4,.4,.4m1.5,0v0c.2,0,.4,-.2,.4,-.4c0,-.2,-.2,-.4,-.4,-.4c-.2,0,-.4,.2,-.4,.4c0,.2,.2,.4,.4,.4m1.5,0v0c.2,0,.4,-.2,.4,-.4c0,-.2,-.2,-.4,-.4,-.4c-.2,0,-.3,.2,-.3,.4c0,.2,.1,.4,.3,.4m1.6,0v0c.2,0,.4,-.2,.4,-.4c0,-.2,-.2,-.4,-.4,-.4c-.2,0,-.4,.2,-.4,.4c0,.2,.2,.4,.4,.4m1.5,0v0c.2,0,.4,-.2,.4,-.4c0,-.2,-.2,-.4,-.4,-.4c-.2,0,-.4,.2,-.4,.4c0,.2,.2,.4,.4,.4m1.5,0v0c.2,0,.4,-.2,.4,-.4c0,-.2,-.2,-.4,-.4,-.4c-.2,0,-.3,.2,-.3,.4c0,.2,.1,.4,.3,.4m1.6,0v0c.2,0,.4,-.2,.4,-.4c0,-.2,-.2,-.4,-.4,-.4c-.2,0,-.4,.2,-.4,.4c0,.2,.2,.4,.4,.4Z" class="g5_13"/>
<path d="M600.8,1227.8l.3,-.2l.1,-.2l-.1,-.3l-.3,-.1l-.3,.1l-.1,.3l.1,.2Zm217.7,0l.3,-.2l.1,-.2l-.1,-.3l-.3,-.1l-.3,.1l-.1,.3l.1,.2Z" class="g5_13"/>
<path d="M820,1227.8v0c.2,0,.4,-.2,.4,-.4c0,-.2,-.2,-.4,-.4,-.4c-.2,0,-.4,.2,-.4,.4c0,.2,.2,.4,.4,.4m1.5,0v0c.2,0,.4,-.2,.4,-.4c0,-.2,-.2,-.4,-.4,-.4c-.2,0,-.3,.2,-.3,.4c0,.2,.1,.4,.3,.4m1.6,0v0c.2,0,.3,-.2,.3,-.4c0,-.2,-.1,-.4,-.3,-.4c-.3,0,-.4,.2,-.4,.4c0,.2,.1,.4,.4,.4m1.5,0v0c.2,0,.4,-.2,.4,-.4c0,-.2,-.2,-.4,-.4,-.4c-.2,0,-.4,.2,-.4,.4c0,.2,.2,.4,.4,.4m1.5,0v0c.2,0,.4,-.2,.4,-.4c0,-.2,-.2,-.4,-.4,-.4c-.2,0,-.4,.2,-.4,.4c0,.2,.2,.4,.4,.4m1.5,0v0c.2,0,.4,-.2,.4,-.4c0,-.2,-.2,-.4,-.4,-.4c-.2,0,-.4,.2,-.4,.4c0,.2,.2,.4,.4,.4m1.5,0v0c.2,0,.4,-.2,.4,-.4c0,-.2,-.2,-.4,-.4,-.4c-.2,0,-.4,.2,-.4,.4c0,.2,.2,.4,.4,.4m1.5,0v0c.3,0,.4,-.2,.4,-.4c0,-.2,-.1,-.4,-.4,-.4c-.2,0,-.3,.2,-.3,.4c0,.2,.1,.4,.3,.4m1.6,0v0c.2,0,.3,-.2,.3,-.4c0,-.2,-.1,-.4,-.3,-.4c-.3,0,-.4,.2,-.4,.4c0,.2,.1,.4,.4,.4m1.5,0v0c.2,0,.4,-.2,.4,-.4c0,-.2,-.2,-.4,-.4,-.4c-.2,0,-.4,.2,-.4,.4c0,.2,.2,.4,.4,.4m1.5,0v0c.2,0,.4,-.2,.4,-.4c0,-.2,-.2,-.4,-.4,-.4c-.2,0,-.4,.2,-.4,.4c0,.2,.2,.4,.4,.4m1.5,0v0c.2,0,.4,-.2,.4,-.4c0,-.2,-.2,-.4,-.4,-.4c-.2,0,-.4,.2,-.4,.4c0,.2,.2,.4,.4,.4m1.5,0v0c.2,0,.4,-.2,.4,-.4c0,-.2,-.2,-.4,-.4,-.4c-.2,0,-.4,.2,-.4,.4c0,.2,.2,.4,.4,.4m1.5,0v0c.3,0,.4,-.2,.4,-.4c0,-.2,-.1,-.4,-.4,-.4c-.2,0,-.3,.2,-.3,.4c0,.2,.1,.4,.3,.4m1.6,0v0c.2,0,.3,-.2,.3,-.4c0,-.2,-.1,-.4,-.3,-.4c-.2,0,-.4,.2,-.4,.4c0,.2,.2,.4,.4,.4m1.5,0v0c.2,0,.4,-.2,.4,-.4c0,-.2,-.2,-.4,-.4,-.4c-.2,0,-.4,.2,-.4,.4c0,.2,.2,.4,.4,.4m1.5,0v0c.2,0,.4,-.2,.4,-.4c0,-.2,-.2,-.4,-.4,-.4c-.2,0,-.4,.2,-.4,.4c0,.2,.2,.4,.4,.4m1.5,0v0c.2,0,.4,-.2,.4,-.4c0,-.2,-.2,-.4,-.4,-.4c-.2,0,-.4,.2,-.4,.4c0,.2,.2,.4,.4,.4m1.5,0v0c.2,0,.4,-.2,.4,-.4c0,-.2,-.2,-.4,-.4,-.4c-.2,0,-.4,.2,-.4,.4c0,.2,.2,.4,.4,.4m1.5,0v0c.3,0,.4,-.2,.4,-.4c0,-.2,-.1,-.4,-.4,-.4c-.2,0,-.3,.2,-.3,.4c0,.2,.1,.4,.3,.4m1.6,0v0c.2,0,.3,-.2,.3,-.4c0,-.2,-.1,-.4,-.3,-.4c-.2,0,-.4,.2,-.4,.4c0,.2,.2,.4,.4,.4m1.5,0v0c.2,0,.4,-.2,.4,-.4c0,-.2,-.2,-.4,-.4,-.4c-.2,0,-.4,.2,-.4,.4c0,.2,.2,.4,.4,.4m1.5,0v0c.2,0,.4,-.2,.4,-.4c0,-.2,-.2,-.4,-.4,-.4c-.2,0,-.4,.2,-.4,.4c0,.2,.2,.4,.4,.4m1.5,0v0c.2,0,.4,-.2,.4,-.4c0,-.2,-.2,-.4,-.4,-.4c-.2,0,-.4,.2,-.4,.4c0,.2,.2,.4,.4,.4m1.5,0v0c.2,0,.4,-.2,.4,-.4c0,-.2,-.2,-.4,-.4,-.4c-.2,0,-.3,.2,-.3,.4c0,.2,.1,.4,.3,.4m1.6,0v0c.2,0,.3,-.2,.3,-.4c0,-.2,-.1,-.4,-.3,-.4c-.3,0,-.4,.2,-.4,.4c0,.2,.1,.4,.4,.4m1.5,0v0c.2,0,.4,-.2,.4,-.4c0,-.2,-.2,-.4,-.4,-.4c-.2,0,-.4,.2,-.4,.4c0,.2,.2,.4,.4,.4m1.5,0v0c.2,0,.4,-.2,.4,-.4c0,-.2,-.2,-.4,-.4,-.4c-.2,0,-.4,.2,-.4,.4c0,.2,.2,.4,.4,.4m1.5,0v0c.2,0,.4,-.2,.4,-.4c0,-.2,-.2,-.4,-.4,-.4c-.2,0,-.4,.2,-.4,.4c0,.2,.2,.4,.4,.4m1.5,0v0c.2,0,.4,-.2,.4,-.4c0,-.2,-.2,-.4,-.4,-.4c-.2,0,-.4,.2,-.4,.4c0,.2,.2,.4,.4,.4m1.5,0v0c.2,0,.4,-.2,.4,-.4c0,-.2,-.2,-.4,-.4,-.4c-.2,0,-.3,.2,-.3,.4c0,.2,.1,.4,.3,.4m1.6,0v0c.2,0,.3,-.2,.3,-.4c0,-.2,-.1,-.4,-.3,-.4c-.3,0,-.4,.2,-.4,.4c0,.2,.1,.4,.4,.4m1.5,0v0c.2,0,.4,-.2,.4,-.4c0,-.2,-.2,-.4,-.4,-.4c-.2,0,-.4,.2,-.4,.4c0,.2,.2,.4,.4,.4Z" class="g5_13"/>
<path d="M818.5,1227.8l.3,-.2l.1,-.2l-.1,-.3l-.3,-.1l-.3,.1l-.1,.3l.1,.2Zm51.6,0l.3,-.2l.1,-.2l-.1,-.3l-.3,-.1l-.3,.1l-.1,.3l.1,.2Z" class="g5_13"/>
<path d="M603.1,1008.6v0c.2,0,.4,-.1,.4,-.3c0,-.3,-.2,-.4,-.4,-.4c-.2,0,-.4,.1,-.4,.4c0,.2,.2,.3,.4,.3m2.3,0v0c.2,0,.4,-.1,.4,-.3c0,-.3,-.2,-.4,-.4,-.4c-.2,0,-.4,.1,-.4,.4c0,.2,.2,.3,.4,.3m2.3,0v0c.2,0,.4,-.1,.4,-.3c0,-.3,-.2,-.4,-.4,-.4c-.2,0,-.4,.1,-.4,.4c0,.2,.2,.3,.4,.3m2.3,0v0c.2,0,.4,-.1,.4,-.3c0,-.3,-.2,-.4,-.4,-.4c-.2,0,-.4,.1,-.4,.4c0,.2,.2,.3,.4,.3m2.3,0v0c.2,0,.4,-.1,.4,-.3c0,-.3,-.2,-.4,-.4,-.4c-.2,0,-.4,.1,-.4,.4c0,.2,.2,.3,.4,.3m2.3,0v0c.2,0,.3,-.1,.3,-.3c0,-.3,-.1,-.4,-.3,-.4c-.2,0,-.4,.1,-.4,.4c0,.2,.2,.3,.4,.3m2.3,0v0c.2,0,.3,-.1,.3,-.3c0,-.3,-.1,-.4,-.3,-.4c-.3,0,-.4,.1,-.4,.4c0,.2,.1,.3,.4,.3m2.3,0v0c.2,0,.3,-.1,.3,-.3c0,-.3,-.1,-.4,-.3,-.4c-.3,0,-.4,.1,-.4,.4c0,.2,.1,.3,.4,.3m2.2,0v0c.3,0,.4,-.1,.4,-.3c0,-.3,-.1,-.4,-.4,-.4c-.2,0,-.3,.1,-.3,.4c0,.2,.1,.3,.3,.3m2.3,0v0c.2,0,.4,-.1,.4,-.3c0,-.3,-.2,-.4,-.4,-.4c-.2,0,-.3,.1,-.3,.4c0,.2,.1,.3,.3,.3m2.3,0v0c.2,0,.4,-.1,.4,-.3c0,-.3,-.2,-.4,-.4,-.4c-.2,0,-.4,.1,-.4,.4c0,.2,.2,.3,.4,.3m2.3,0v0c.2,0,.4,-.1,.4,-.3c0,-.3,-.2,-.4,-.4,-.4c-.2,0,-.4,.1,-.4,.4c0,.2,.2,.3,.4,.3m2.3,0v0c.2,0,.4,-.1,.4,-.3c0,-.3,-.2,-.4,-.4,-.4c-.2,0,-.4,.1,-.4,.4c0,.2,.2,.3,.4,.3m2.3,0v0c.2,0,.4,-.1,.4,-.3c0,-.3,-.2,-.4,-.4,-.4c-.2,0,-.4,.1,-.4,.4c0,.2,.2,.3,.4,.3m2.3,0v0c.2,0,.4,-.1,.4,-.3c0,-.3,-.2,-.4,-.4,-.4c-.2,0,-.4,.1,-.4,.4c0,.2,.2,.3,.4,.3m2.3,0v0c.2,0,.4,-.1,.4,-.3c0,-.3,-.2,-.4,-.4,-.4c-.2,0,-.4,.1,-.4,.4c0,.2,.2,.3,.4,.3m2.3,0v0c.2,0,.4,-.1,.4,-.3c0,-.3,-.2,-.4,-.4,-.4c-.2,0,-.4,.1,-.4,.4c0,.2,.2,.3,.4,.3m2.3,0v0c.2,0,.3,-.1,.3,-.3c0,-.3,-.1,-.4,-.3,-.4c-.2,0,-.4,.1,-.4,.4c0,.2,.2,.3,.4,.3m2.3,0v0c.2,0,.3,-.1,.3,-.3c0,-.3,-.1,-.4,-.3,-.4c-.3,0,-.4,.1,-.4,.4c0,.2,.1,.3,.4,.3m2.2,0v0c.3,0,.4,-.1,.4,-.3c0,-.3,-.1,-.4,-.4,-.4c-.2,0,-.3,.1,-.3,.4c0,.2,.1,.3,.3,.3m2.3,0v0c.3,0,.4,-.1,.4,-.3c0,-.3,-.1,-.4,-.4,-.4c-.2,0,-.3,.1,-.3,.4c0,.2,.1,.3,.3,.3m2.3,0v0c.2,0,.4,-.1,.4,-.3c0,-.3,-.2,-.4,-.4,-.4c-.2,0,-.4,.1,-.4,.4c0,.2,.2,.3,.4,.3m2.3,0v0c.2,0,.4,-.1,.4,-.3c0,-.3,-.2,-.4,-.4,-.4c-.2,0,-.4,.1,-.4,.4c0,.2,.2,.3,.4,.3m2.3,0v0c.2,0,.4,-.1,.4,-.3c0,-.3,-.2,-.4,-.4,-.4c-.2,0,-.4,.1,-.4,.4c0,.2,.2,.3,.4,.3m2.3,0v0c.2,0,.4,-.1,.4,-.3c0,-.3,-.2,-.4,-.4,-.4c-.2,0,-.4,.1,-.4,.4c0,.2,.2,.3,.4,.3m2.3,0v0c.2,0,.4,-.1,.4,-.3c0,-.3,-.2,-.4,-.4,-.4c-.2,0,-.4,.1,-.4,.4c0,.2,.2,.3,.4,.3m2.3,0v0c.2,0,.4,-.1,.4,-.3c0,-.3,-.2,-.4,-.4,-.4c-.2,0,-.4,.1,-.4,.4c0,.2,.2,.3,.4,.3m2.3,0v0c.2,0,.4,-.1,.4,-.3c0,-.3,-.2,-.4,-.4,-.4c-.2,0,-.4,.1,-.4,.4c0,.2,.2,.3,.4,.3m2.3,0v0c.2,0,.4,-.1,.4,-.3c0,-.3,-.2,-.4,-.4,-.4c-.2,0,-.4,.1,-.4,.4c0,.2,.2,.3,.4,.3m2.3,0v0c.2,0,.3,-.1,.3,-.3c0,-.3,-.1,-.4,-.3,-.4c-.2,0,-.4,.1,-.4,.4c0,.2,.2,.3,.4,.3m2.3,0v0c.2,0,.3,-.1,.3,-.3c0,-.3,-.1,-.4,-.3,-.4c-.3,0,-.4,.1,-.4,.4c0,.2,.1,.3,.4,.3m2.2,0v0c.3,0,.4,-.1,.4,-.3c0,-.3,-.1,-.4,-.4,-.4c-.2,0,-.3,.1,-.3,.4c0,.2,.1,.3,.3,.3m2.3,0v0c.2,0,.4,-.1,.4,-.3c0,-.3,-.2,-.4,-.4,-.4c-.2,0,-.3,.1,-.3,.4c0,.2,.1,.3,.3,.3m2.3,0v0c.2,0,.4,-.1,.4,-.3c0,-.3,-.2,-.4,-.4,-.4c-.2,0,-.4,.1,-.4,.4c0,.2,.2,.3,.4,.3m2.3,0v0c.2,0,.4,-.1,.4,-.3c0,-.3,-.2,-.4,-.4,-.4c-.2,0,-.4,.1,-.4,.4c0,.2,.2,.3,.4,.3m2.3,0v0c.2,0,.4,-.1,.4,-.3c0,-.3,-.2,-.4,-.4,-.4c-.2,0,-.4,.1,-.4,.4c0,.2,.2,.3,.4,.3m2.3,0v0c.2,0,.4,-.1,.4,-.3c0,-.3,-.2,-.4,-.4,-.4c-.2,0,-.4,.1,-.4,.4c0,.2,.2,.3,.4,.3m2.3,0v0c.2,0,.4,-.1,.4,-.3c0,-.3,-.2,-.4,-.4,-.4c-.2,0,-.4,.1,-.4,.4c0,.2,.2,.3,.4,.3m2.3,0v0c.2,0,.4,-.1,.4,-.3c0,-.3,-.2,-.4,-.4,-.4c-.2,0,-.4,.1,-.4,.4c0,.2,.2,.3,.4,.3m2.3,0v0c.2,0,.4,-.1,.4,-.3c0,-.3,-.2,-.4,-.4,-.4c-.2,0,-.4,.1,-.4,.4c0,.2,.2,.3,.4,.3m2.3,0v0c.2,0,.3,-.1,.3,-.3c0,-.3,-.1,-.4,-.3,-.4c-.2,0,-.4,.1,-.4,.4c0,.2,.2,.3,.4,.3m2.3,0v0c.2,0,.3,-.1,.3,-.3c0,-.3,-.1,-.4,-.3,-.4c-.3,0,-.4,.1,-.4,.4c0,.2,.1,.3,.4,.3m2.3,0v0c.2,0,.3,-.1,.3,-.3c0,-.3,-.1,-.4,-.3,-.4c-.3,0,-.4,.1,-.4,.4c0,.2,.1,.3,.4,.3m2.2,0v0c.3,0,.4,-.1,.4,-.3c0,-.3,-.1,-.4,-.4,-.4c-.2,0,-.3,.1,-.3,.4c0,.2,.1,.3,.3,.3m2.3,0v0c.2,0,.4,-.1,.4,-.3c0,-.3,-.2,-.4,-.4,-.4c-.2,0,-.3,.1,-.3,.4c0,.2,.1,.3,.3,.3m2.3,0v0c.2,0,.4,-.1,.4,-.3c0,-.3,-.2,-.4,-.4,-.4c-.2,0,-.4,.1,-.4,.4c0,.2,.2,.3,.4,.3m2.3,0v0c.2,0,.4,-.1,.4,-.3c0,-.3,-.2,-.4,-.4,-.4c-.2,0,-.4,.1,-.4,.4c0,.2,.2,.3,.4,.3m2.3,0v0c.2,0,.4,-.1,.4,-.3c0,-.3,-.2,-.4,-.4,-.4c-.2,0,-.4,.1,-.4,.4c0,.2,.2,.3,.4,.3m2.3,0v0c.2,0,.4,-.1,.4,-.3c0,-.3,-.2,-.4,-.4,-.4c-.2,0,-.4,.1,-.4,.4c0,.2,.2,.3,.4,.3m2.3,0v0c.2,0,.4,-.1,.4,-.3c0,-.3,-.2,-.4,-.4,-.4c-.2,0,-.4,.1,-.4,.4c0,.2,.2,.3,.4,.3m2.3,0v0c.2,0,.4,-.1,.4,-.3c0,-.3,-.2,-.4,-.4,-.4c-.2,0,-.4,.1,-.4,.4c0,.2,.2,.3,.4,.3m2.3,0v0c.2,0,.4,-.1,.4,-.3c0,-.3,-.2,-.4,-.4,-.4c-.2,0,-.4,.1,-.4,.4c0,.2,.2,.3,.4,.3m2.3,0v0c.2,0,.3,-.1,.3,-.3c0,-.3,-.1,-.4,-.3,-.4c-.2,0,-.4,.1,-.4,.4c0,.2,.2,.3,.4,.3m2.3,0v0c.2,0,.3,-.1,.3,-.3c0,-.3,-.1,-.4,-.3,-.4c-.3,0,-.4,.1,-.4,.4c0,.2,.1,.3,.4,.3m2.2,0v0c.3,0,.4,-.1,.4,-.3c0,-.3,-.1,-.4,-.4,-.4c-.2,0,-.3,.1,-.3,.4c0,.2,.1,.3,.3,.3m2.3,0v0c.2,0,.4,-.1,.4,-.3c0,-.3,-.2,-.4,-.4,-.4c-.2,0,-.3,.1,-.3,.4c0,.2,.1,.3,.3,.3m2.3,0v0c.2,0,.4,-.1,.4,-.3c0,-.3,-.2,-.4,-.4,-.4c-.2,0,-.4,.1,-.4,.4c0,.2,.2,.3,.4,.3m2.3,0v0c.2,0,.4,-.1,.4,-.3c0,-.3,-.2,-.4,-.4,-.4c-.2,0,-.4,.1,-.4,.4c0,.2,.2,.3,.4,.3m2.3,0v0c.2,0,.4,-.1,.4,-.3c0,-.3,-.2,-.4,-.4,-.4c-.2,0,-.4,.1,-.4,.4c0,.2,.2,.3,.4,.3m2.3,0v0c.2,0,.4,-.1,.4,-.3c0,-.3,-.2,-.4,-.4,-.4c-.2,0,-.4,.1,-.4,.4c0,.2,.2,.3,.4,.3m2.3,0v0c.2,0,.4,-.1,.4,-.3c0,-.3,-.2,-.4,-.4,-.4c-.2,0,-.4,.1,-.4,.4c0,.2,.2,.3,.4,.3m2.3,0v0c.2,0,.4,-.1,.4,-.3c0,-.3,-.2,-.4,-.4,-.4c-.2,0,-.4,.1,-.4,.4c0,.2,.2,.3,.4,.3m2.3,0v0c.2,0,.4,-.1,.4,-.3c0,-.3,-.2,-.4,-.4,-.4c-.2,0,-.4,.1,-.4,.4c0,.2,.2,.3,.4,.3m2.3,0v0c.2,0,.4,-.1,.4,-.3c0,-.3,-.2,-.4,-.4,-.4c-.2,0,-.4,.1,-.4,.4c0,.2,.2,.3,.4,.3m2.3,0v0c.2,0,.3,-.1,.3,-.3c0,-.3,-.1,-.4,-.3,-.4c-.3,0,-.4,.1,-.4,.4c0,.2,.1,.3,.4,.3m2.3,0v0c.2,0,.3,-.1,.3,-.3c0,-.3,-.1,-.4,-.3,-.4c-.3,0,-.4,.1,-.4,.4c0,.2,.1,.3,.4,.3m2.2,0v0c.3,0,.4,-.1,.4,-.3c0,-.3,-.1,-.4,-.4,-.4c-.2,0,-.3,.1,-.3,.4c0,.2,.1,.3,.3,.3m2.3,0v0c.2,0,.4,-.1,.4,-.3c0,-.3,-.2,-.4,-.4,-.4c-.2,0,-.3,.1,-.3,.4c0,.2,.1,.3,.3,.3m2.3,0v0c.2,0,.4,-.1,.4,-.3c0,-.3,-.2,-.4,-.4,-.4c-.2,0,-.4,.1,-.4,.4c0,.2,.2,.3,.4,.3m2.3,0v0c.2,0,.4,-.1,.4,-.3c0,-.3,-.2,-.4,-.4,-.4c-.2,0,-.4,.1,-.4,.4c0,.2,.2,.3,.4,.3m2.3,0v0c.2,0,.4,-.1,.4,-.3c0,-.3,-.2,-.4,-.4,-.4c-.2,0,-.4,.1,-.4,.4c0,.2,.2,.3,.4,.3m2.3,0v0c.2,0,.4,-.1,.4,-.3c0,-.3,-.2,-.4,-.4,-.4c-.2,0,-.4,.1,-.4,.4c0,.2,.2,.3,.4,.3m2.3,0v0c.2,0,.4,-.1,.4,-.3c0,-.3,-.2,-.4,-.4,-.4c-.2,0,-.4,.1,-.4,.4c0,.2,.2,.3,.4,.3m2.3,0v0c.2,0,.4,-.1,.4,-.3c0,-.3,-.2,-.4,-.4,-.4c-.2,0,-.4,.1,-.4,.4c0,.2,.2,.3,.4,.3m2.3,0v0c.2,0,.4,-.1,.4,-.3c0,-.3,-.2,-.4,-.4,-.4c-.2,0,-.4,.1,-.4,.4c0,.2,.2,.3,.4,.3m2.3,0v0c.2,0,.3,-.1,.3,-.3c0,-.3,-.1,-.4,-.3,-.4c-.2,0,-.4,.1,-.4,.4c0,.2,.2,.3,.4,.3m2.3,0v0c.2,0,.3,-.1,.3,-.3c0,-.3,-.1,-.4,-.3,-.4c-.3,0,-.4,.1,-.4,.4c0,.2,.1,.3,.4,.3m2.2,0v0c.3,0,.4,-.1,.4,-.3c0,-.3,-.1,-.4,-.4,-.4c-.2,0,-.3,.1,-.3,.4c0,.2,.1,.3,.3,.3m2.3,0v0c.3,0,.4,-.1,.4,-.3c0,-.3,-.1,-.4,-.4,-.4c-.2,0,-.3,.1,-.3,.4c0,.2,.1,.3,.3,.3m2.3,0v0c.2,0,.4,-.1,.4,-.3c0,-.3,-.2,-.4,-.4,-.4c-.2,0,-.3,.1,-.3,.4c0,.2,.1,.3,.3,.3m2.3,0v0c.2,0,.4,-.1,.4,-.3c0,-.3,-.2,-.4,-.4,-.4c-.2,0,-.4,.1,-.4,.4c0,.2,.2,.3,.4,.3m2.3,0v0c.2,0,.4,-.1,.4,-.3c0,-.3,-.2,-.4,-.4,-.4c-.2,0,-.4,.1,-.4,.4c0,.2,.2,.3,.4,.3m2.3,0v0c.2,0,.4,-.1,.4,-.3c0,-.3,-.2,-.4,-.4,-.4c-.2,0,-.4,.1,-.4,.4c0,.2,.2,.3,.4,.3m2.3,0v0c.2,0,.4,-.1,.4,-.3c0,-.3,-.2,-.4,-.4,-.4c-.2,0,-.4,.1,-.4,.4c0,.2,.2,.3,.4,.3m2.3,0v0c.2,0,.4,-.1,.4,-.3c0,-.3,-.2,-.4,-.4,-.4c-.2,0,-.4,.1,-.4,.4c0,.2,.2,.3,.4,.3m2.3,0v0c.2,0,.4,-.1,.4,-.3c0,-.3,-.2,-.4,-.4,-.4c-.2,0,-.4,.1,-.4,.4c0,.2,.2,.3,.4,.3m2.3,0v0c.2,0,.4,-.1,.4,-.3c0,-.3,-.2,-.4,-.4,-.4c-.2,0,-.4,.1,-.4,.4c0,.2,.2,.3,.4,.3m2.3,0v0c.2,0,.3,-.1,.3,-.3c0,-.3,-.1,-.4,-.3,-.4c-.2,0,-.4,.1,-.4,.4c0,.2,.2,.3,.4,.3m2.3,0v0c.2,0,.3,-.1,.3,-.3c0,-.3,-.1,-.4,-.3,-.4c-.3,0,-.4,.1,-.4,.4c0,.2,.1,.3,.4,.3m2.2,0v0c.3,0,.4,-.1,.4,-.3c0,-.3,-.1,-.4,-.4,-.4c-.2,0,-.3,.1,-.3,.4c0,.2,.1,.3,.3,.3m2.3,0v0c.2,0,.4,-.1,.4,-.3c0,-.3,-.2,-.4,-.4,-.4c-.2,0,-.3,.1,-.3,.4c0,.2,.1,.3,.3,.3m2.3,0v0c.2,0,.4,-.1,.4,-.3c0,-.3,-.2,-.4,-.4,-.4c-.2,0,-.4,.1,-.4,.4c0,.2,.2,.3,.4,.3m2.3,0v0c.2,0,.4,-.1,.4,-.3c0,-.3,-.2,-.4,-.4,-.4c-.2,0,-.4,.1,-.4,.4c0,.2,.2,.3,.4,.3m2.3,0v0c.2,0,.4,-.1,.4,-.3c0,-.3,-.2,-.4,-.4,-.4c-.2,0,-.4,.1,-.4,.4c0,.2,.2,.3,.4,.3Z" class="g5_13"/>
<path d="M600.8,1008.6l.3,-.1l.1,-.2l-.1,-.3l-.3,-.1l-.3,.1l-.1,.3l.1,.2Zm217.7,0l.3,-.1l.1,-.2l-.1,-.3l-.3,-.1l-.3,.1l-.1,.3l.1,.2Z" class="g5_13"/>
<path d="M820.7,1008.6v0c.3,0,.4,-.1,.4,-.3c0,-.3,-.1,-.4,-.4,-.4c-.2,0,-.3,.1,-.3,.4c0,.2,.1,.3,.3,.3m2.3,0v0c.2,0,.4,-.1,.4,-.3c0,-.3,-.2,-.4,-.4,-.4c-.2,0,-.4,.1,-.4,.4c0,.2,.2,.3,.4,.3m2.2,0v0c.2,0,.4,-.1,.4,-.3c0,-.3,-.2,-.4,-.4,-.4c-.2,0,-.3,.1,-.3,.4c0,.2,.1,.3,.3,.3m2.3,0v0c.2,0,.4,-.1,.4,-.3c0,-.3,-.2,-.4,-.4,-.4c-.2,0,-.4,.1,-.4,.4c0,.2,.2,.3,.4,.3m2.2,0v0c.2,0,.4,-.1,.4,-.3c0,-.3,-.2,-.4,-.4,-.4c-.2,0,-.4,.1,-.4,.4c0,.2,.2,.3,.4,.3m2.3,0v0c.2,0,.3,-.1,.3,-.3c0,-.3,-.1,-.4,-.3,-.4c-.3,0,-.4,.1,-.4,.4c0,.2,.1,.3,.4,.3m2.2,0v0c.2,0,.4,-.1,.4,-.3c0,-.3,-.2,-.4,-.4,-.4c-.2,0,-.4,.1,-.4,.4c0,.2,.2,.3,.4,.3m2.2,0v0c.3,0,.4,-.1,.4,-.3c0,-.3,-.1,-.4,-.4,-.4c-.2,0,-.3,.1,-.3,.4c0,.2,.1,.3,.3,.3m2.3,0v0c.2,0,.4,-.1,.4,-.3c0,-.3,-.2,-.4,-.4,-.4c-.2,0,-.4,.1,-.4,.4c0,.2,.2,.3,.4,.3m2.2,0v0c.2,0,.4,-.1,.4,-.3c0,-.3,-.2,-.4,-.4,-.4c-.2,0,-.3,.1,-.3,.4c0,.2,.1,.3,.3,.3m2.3,0v0c.2,0,.4,-.1,.4,-.3c0,-.3,-.2,-.4,-.4,-.4c-.2,0,-.4,.1,-.4,.4c0,.2,.2,.3,.4,.3m2.2,0v0c.2,0,.4,-.1,.4,-.3c0,-.3,-.2,-.4,-.4,-.4c-.2,0,-.4,.1,-.4,.4c0,.2,.2,.3,.4,.3m2.3,0v0c.2,0,.3,-.1,.3,-.3c0,-.3,-.1,-.4,-.3,-.4c-.2,0,-.4,.1,-.4,.4c0,.2,.2,.3,.4,.3m2.2,0v0c.2,0,.4,-.1,.4,-.3c0,-.3,-.2,-.4,-.4,-.4c-.2,0,-.4,.1,-.4,.4c0,.2,.2,.3,.4,.3m2.2,0v0c.3,0,.4,-.1,.4,-.3c0,-.3,-.1,-.4,-.4,-.4c-.2,0,-.3,.1,-.3,.4c0,.2,.1,.3,.3,.3m2.3,0v0c.2,0,.4,-.1,.4,-.3c0,-.3,-.2,-.4,-.4,-.4c-.2,0,-.4,.1,-.4,.4c0,.2,.2,.3,.4,.3m2.2,0v0c.2,0,.4,-.1,.4,-.3c0,-.3,-.2,-.4,-.4,-.4c-.2,0,-.3,.1,-.3,.4c0,.2,.1,.3,.3,.3m2.3,0v0c.2,0,.4,-.1,.4,-.3c0,-.3,-.2,-.4,-.4,-.4c-.2,0,-.4,.1,-.4,.4c0,.2,.2,.3,.4,.3m2.2,0v0c.2,0,.4,-.1,.4,-.3c0,-.3,-.2,-.4,-.4,-.4c-.2,0,-.4,.1,-.4,.4c0,.2,.2,.3,.4,.3m2.3,0v0c.2,0,.3,-.1,.3,-.3c0,-.3,-.1,-.4,-.3,-.4c-.2,0,-.4,.1,-.4,.4c0,.2,.2,.3,.4,.3m2.2,0v0c.2,0,.4,-.1,.4,-.3c0,-.3,-.2,-.4,-.4,-.4c-.2,0,-.4,.1,-.4,.4c0,.2,.2,.3,.4,.3m2.2,0v0c.3,0,.4,-.1,.4,-.3c0,-.3,-.1,-.4,-.4,-.4c-.2,0,-.3,.1,-.3,.4c0,.2,.1,.3,.3,.3Z" class="g5_13"/>
<path d="M818.5,1008.6l.3,-.1l.1,-.2l-.1,-.3l-.3,-.1l-.3,.1l-.1,.3l.1,.2Zm51.6,0l.3,-.1l.1,-.2l-.1,-.3l-.3,-.1l-.3,.1l-.1,.3l.1,.2Z" class="g5_13"/>
<path d="M603.1,1047.6v0c.2,0,.4,-.1,.4,-.4c0,-.2,-.2,-.3,-.4,-.3c-.2,0,-.4,.1,-.4,.3c0,.3,.2,.4,.4,.4m2.3,0v0c.2,0,.4,-.1,.4,-.4c0,-.2,-.2,-.3,-.4,-.3c-.2,0,-.4,.1,-.4,.3c0,.3,.2,.4,.4,.4m2.3,0v0c.2,0,.4,-.1,.4,-.4c0,-.2,-.2,-.3,-.4,-.3c-.2,0,-.4,.1,-.4,.3c0,.3,.2,.4,.4,.4m2.3,0v0c.2,0,.4,-.1,.4,-.4c0,-.2,-.2,-.3,-.4,-.3c-.2,0,-.4,.1,-.4,.3c0,.3,.2,.4,.4,.4m2.3,0v0c.2,0,.4,-.1,.4,-.4c0,-.2,-.2,-.3,-.4,-.3c-.2,0,-.4,.1,-.4,.3c0,.3,.2,.4,.4,.4m2.3,0v0c.2,0,.3,-.1,.3,-.4c0,-.2,-.1,-.3,-.3,-.3c-.2,0,-.4,.1,-.4,.3c0,.3,.2,.4,.4,.4m2.3,0v0c.2,0,.3,-.1,.3,-.4c0,-.2,-.1,-.3,-.3,-.3c-.3,0,-.4,.1,-.4,.3c0,.3,.1,.4,.4,.4m2.3,0v0c.2,0,.3,-.1,.3,-.4c0,-.2,-.1,-.3,-.3,-.3c-.3,0,-.4,.1,-.4,.3c0,.3,.1,.4,.4,.4m2.2,0v0c.3,0,.4,-.1,.4,-.4c0,-.2,-.1,-.3,-.4,-.3c-.2,0,-.3,.1,-.3,.3c0,.3,.1,.4,.3,.4m2.3,0v0c.2,0,.4,-.1,.4,-.4c0,-.2,-.2,-.3,-.4,-.3c-.2,0,-.3,.1,-.3,.3c0,.3,.1,.4,.3,.4m2.3,0v0c.2,0,.4,-.1,.4,-.4c0,-.2,-.2,-.3,-.4,-.3c-.2,0,-.4,.1,-.4,.3c0,.3,.2,.4,.4,.4m2.3,0v0c.2,0,.4,-.1,.4,-.4c0,-.2,-.2,-.3,-.4,-.3c-.2,0,-.4,.1,-.4,.3c0,.3,.2,.4,.4,.4m2.3,0v0c.2,0,.4,-.1,.4,-.4c0,-.2,-.2,-.3,-.4,-.3c-.2,0,-.4,.1,-.4,.3c0,.3,.2,.4,.4,.4m2.3,0v0c.2,0,.4,-.1,.4,-.4c0,-.2,-.2,-.3,-.4,-.3c-.2,0,-.4,.1,-.4,.3c0,.3,.2,.4,.4,.4m2.3,0v0c.2,0,.4,-.1,.4,-.4c0,-.2,-.2,-.3,-.4,-.3c-.2,0,-.4,.1,-.4,.3c0,.3,.2,.4,.4,.4m2.3,0v0c.2,0,.4,-.1,.4,-.4c0,-.2,-.2,-.3,-.4,-.3c-.2,0,-.4,.1,-.4,.3c0,.3,.2,.4,.4,.4m2.3,0v0c.2,0,.4,-.1,.4,-.4c0,-.2,-.2,-.3,-.4,-.3c-.2,0,-.4,.1,-.4,.3c0,.3,.2,.4,.4,.4m2.3,0v0c.2,0,.3,-.1,.3,-.4c0,-.2,-.1,-.3,-.3,-.3c-.2,0,-.4,.1,-.4,.3c0,.3,.2,.4,.4,.4m2.3,0v0c.2,0,.3,-.1,.3,-.4c0,-.2,-.1,-.3,-.3,-.3c-.3,0,-.4,.1,-.4,.3c0,.3,.1,.4,.4,.4m2.2,0v0c.3,0,.4,-.1,.4,-.4c0,-.2,-.1,-.3,-.4,-.3c-.2,0,-.3,.1,-.3,.3c0,.3,.1,.4,.3,.4m2.3,0v0c.3,0,.4,-.1,.4,-.4c0,-.2,-.1,-.3,-.4,-.3c-.2,0,-.3,.1,-.3,.3c0,.3,.1,.4,.3,.4m2.3,0v0c.2,0,.4,-.1,.4,-.4c0,-.2,-.2,-.3,-.4,-.3c-.2,0,-.4,.1,-.4,.3c0,.3,.2,.4,.4,.4m2.3,0v0c.2,0,.4,-.1,.4,-.4c0,-.2,-.2,-.3,-.4,-.3c-.2,0,-.4,.1,-.4,.3c0,.3,.2,.4,.4,.4m2.3,0v0c.2,0,.4,-.1,.4,-.4c0,-.2,-.2,-.3,-.4,-.3c-.2,0,-.4,.1,-.4,.3c0,.3,.2,.4,.4,.4m2.3,0v0c.2,0,.4,-.1,.4,-.4c0,-.2,-.2,-.3,-.4,-.3c-.2,0,-.4,.1,-.4,.3c0,.3,.2,.4,.4,.4m2.3,0v0c.2,0,.4,-.1,.4,-.4c0,-.2,-.2,-.3,-.4,-.3c-.2,0,-.4,.1,-.4,.3c0,.3,.2,.4,.4,.4m2.3,0v0c.2,0,.4,-.1,.4,-.4c0,-.2,-.2,-.3,-.4,-.3c-.2,0,-.4,.1,-.4,.3c0,.3,.2,.4,.4,.4m2.3,0v0c.2,0,.4,-.1,.4,-.4c0,-.2,-.2,-.3,-.4,-.3c-.2,0,-.4,.1,-.4,.3c0,.3,.2,.4,.4,.4m2.3,0v0c.2,0,.4,-.1,.4,-.4c0,-.2,-.2,-.3,-.4,-.3c-.2,0,-.4,.1,-.4,.3c0,.3,.2,.4,.4,.4m2.3,0v0c.2,0,.3,-.1,.3,-.4c0,-.2,-.1,-.3,-.3,-.3c-.2,0,-.4,.1,-.4,.3c0,.3,.2,.4,.4,.4m2.3,0v0c.2,0,.3,-.1,.3,-.4c0,-.2,-.1,-.3,-.3,-.3c-.3,0,-.4,.1,-.4,.3c0,.3,.1,.4,.4,.4m2.2,0v0c.3,0,.4,-.1,.4,-.4c0,-.2,-.1,-.3,-.4,-.3c-.2,0,-.3,.1,-.3,.3c0,.3,.1,.4,.3,.4m2.3,0v0c.2,0,.4,-.1,.4,-.4c0,-.2,-.2,-.3,-.4,-.3c-.2,0,-.3,.1,-.3,.3c0,.3,.1,.4,.3,.4m2.3,0v0c.2,0,.4,-.1,.4,-.4c0,-.2,-.2,-.3,-.4,-.3c-.2,0,-.4,.1,-.4,.3c0,.3,.2,.4,.4,.4m2.3,0v0c.2,0,.4,-.1,.4,-.4c0,-.2,-.2,-.3,-.4,-.3c-.2,0,-.4,.1,-.4,.3c0,.3,.2,.4,.4,.4m2.3,0v0c.2,0,.4,-.1,.4,-.4c0,-.2,-.2,-.3,-.4,-.3c-.2,0,-.4,.1,-.4,.3c0,.3,.2,.4,.4,.4m2.3,0v0c.2,0,.4,-.1,.4,-.4c0,-.2,-.2,-.3,-.4,-.3c-.2,0,-.4,.1,-.4,.3c0,.3,.2,.4,.4,.4m2.3,0v0c.2,0,.4,-.1,.4,-.4c0,-.2,-.2,-.3,-.4,-.3c-.2,0,-.4,.1,-.4,.3c0,.3,.2,.4,.4,.4m2.3,0v0c.2,0,.4,-.1,.4,-.4c0,-.2,-.2,-.3,-.4,-.3c-.2,0,-.4,.1,-.4,.3c0,.3,.2,.4,.4,.4m2.3,0v0c.2,0,.4,-.1,.4,-.4c0,-.2,-.2,-.3,-.4,-.3c-.2,0,-.4,.1,-.4,.3c0,.3,.2,.4,.4,.4m2.3,0v0c.2,0,.3,-.1,.3,-.4c0,-.2,-.1,-.3,-.3,-.3c-.2,0,-.4,.1,-.4,.3c0,.3,.2,.4,.4,.4m2.3,0v0c.2,0,.3,-.1,.3,-.4c0,-.2,-.1,-.3,-.3,-.3c-.3,0,-.4,.1,-.4,.3c0,.3,.1,.4,.4,.4m2.3,0v0c.2,0,.3,-.1,.3,-.4c0,-.2,-.1,-.3,-.3,-.3c-.3,0,-.4,.1,-.4,.3c0,.3,.1,.4,.4,.4m2.2,0v0c.3,0,.4,-.1,.4,-.4c0,-.2,-.1,-.3,-.4,-.3c-.2,0,-.3,.1,-.3,.3c0,.3,.1,.4,.3,.4m2.3,0v0c.2,0,.4,-.1,.4,-.4c0,-.2,-.2,-.3,-.4,-.3c-.2,0,-.3,.1,-.3,.3c0,.3,.1,.4,.3,.4m2.3,0v0c.2,0,.4,-.1,.4,-.4c0,-.2,-.2,-.3,-.4,-.3c-.2,0,-.4,.1,-.4,.3c0,.3,.2,.4,.4,.4m2.3,0v0c.2,0,.4,-.1,.4,-.4c0,-.2,-.2,-.3,-.4,-.3c-.2,0,-.4,.1,-.4,.3c0,.3,.2,.4,.4,.4m2.3,0v0c.2,0,.4,-.1,.4,-.4c0,-.2,-.2,-.3,-.4,-.3c-.2,0,-.4,.1,-.4,.3c0,.3,.2,.4,.4,.4m2.3,0v0c.2,0,.4,-.1,.4,-.4c0,-.2,-.2,-.3,-.4,-.3c-.2,0,-.4,.1,-.4,.3c0,.3,.2,.4,.4,.4m2.3,0v0c.2,0,.4,-.1,.4,-.4c0,-.2,-.2,-.3,-.4,-.3c-.2,0,-.4,.1,-.4,.3c0,.3,.2,.4,.4,.4m2.3,0v0c.2,0,.4,-.1,.4,-.4c0,-.2,-.2,-.3,-.4,-.3c-.2,0,-.4,.1,-.4,.3c0,.3,.2,.4,.4,.4m2.3,0v0c.2,0,.4,-.1,.4,-.4c0,-.2,-.2,-.3,-.4,-.3c-.2,0,-.4,.1,-.4,.3c0,.3,.2,.4,.4,.4m2.3,0v0c.2,0,.3,-.1,.3,-.4c0,-.2,-.1,-.3,-.3,-.3c-.2,0,-.4,.1,-.4,.3c0,.3,.2,.4,.4,.4m2.3,0v0c.2,0,.3,-.1,.3,-.4c0,-.2,-.1,-.3,-.3,-.3c-.3,0,-.4,.1,-.4,.3c0,.3,.1,.4,.4,.4m2.2,0v0c.3,0,.4,-.1,.4,-.4c0,-.2,-.1,-.3,-.4,-.3c-.2,0,-.3,.1,-.3,.3c0,.3,.1,.4,.3,.4m2.3,0v0c.2,0,.4,-.1,.4,-.4c0,-.2,-.2,-.3,-.4,-.3c-.2,0,-.3,.1,-.3,.3c0,.3,.1,.4,.3,.4m2.3,0v0c.2,0,.4,-.1,.4,-.4c0,-.2,-.2,-.3,-.4,-.3c-.2,0,-.4,.1,-.4,.3c0,.3,.2,.4,.4,.4m2.3,0v0c.2,0,.4,-.1,.4,-.4c0,-.2,-.2,-.3,-.4,-.3c-.2,0,-.4,.1,-.4,.3c0,.3,.2,.4,.4,.4m2.3,0v0c.2,0,.4,-.1,.4,-.4c0,-.2,-.2,-.3,-.4,-.3c-.2,0,-.4,.1,-.4,.3c0,.3,.2,.4,.4,.4m2.3,0v0c.2,0,.4,-.1,.4,-.4c0,-.2,-.2,-.3,-.4,-.3c-.2,0,-.4,.1,-.4,.3c0,.3,.2,.4,.4,.4m2.3,0v0c.2,0,.4,-.1,.4,-.4c0,-.2,-.2,-.3,-.4,-.3c-.2,0,-.4,.1,-.4,.3c0,.3,.2,.4,.4,.4m2.3,0v0c.2,0,.4,-.1,.4,-.4c0,-.2,-.2,-.3,-.4,-.3c-.2,0,-.4,.1,-.4,.3c0,.3,.2,.4,.4,.4m2.3,0v0c.2,0,.4,-.1,.4,-.4c0,-.2,-.2,-.3,-.4,-.3c-.2,0,-.4,.1,-.4,.3c0,.3,.2,.4,.4,.4m2.3,0v0c.2,0,.4,-.1,.4,-.4c0,-.2,-.2,-.3,-.4,-.3c-.2,0,-.4,.1,-.4,.3c0,.3,.2,.4,.4,.4m2.3,0v0c.2,0,.3,-.1,.3,-.4c0,-.2,-.1,-.3,-.3,-.3c-.3,0,-.4,.1,-.4,.3c0,.3,.1,.4,.4,.4m2.3,0v0c.2,0,.3,-.1,.3,-.4c0,-.2,-.1,-.3,-.3,-.3c-.3,0,-.4,.1,-.4,.3c0,.3,.1,.4,.4,.4m2.2,0v0c.3,0,.4,-.1,.4,-.4c0,-.2,-.1,-.3,-.4,-.3c-.2,0,-.3,.1,-.3,.3c0,.3,.1,.4,.3,.4m2.3,0v0c.2,0,.4,-.1,.4,-.4c0,-.2,-.2,-.3,-.4,-.3c-.2,0,-.3,.1,-.3,.3c0,.3,.1,.4,.3,.4m2.3,0v0c.2,0,.4,-.1,.4,-.4c0,-.2,-.2,-.3,-.4,-.3c-.2,0,-.4,.1,-.4,.3c0,.3,.2,.4,.4,.4m2.3,0v0c.2,0,.4,-.1,.4,-.4c0,-.2,-.2,-.3,-.4,-.3c-.2,0,-.4,.1,-.4,.3c0,.3,.2,.4,.4,.4m2.3,0v0c.2,0,.4,-.1,.4,-.4c0,-.2,-.2,-.3,-.4,-.3c-.2,0,-.4,.1,-.4,.3c0,.3,.2,.4,.4,.4m2.3,0v0c.2,0,.4,-.1,.4,-.4c0,-.2,-.2,-.3,-.4,-.3c-.2,0,-.4,.1,-.4,.3c0,.3,.2,.4,.4,.4m2.3,0v0c.2,0,.4,-.1,.4,-.4c0,-.2,-.2,-.3,-.4,-.3c-.2,0,-.4,.1,-.4,.3c0,.3,.2,.4,.4,.4m2.3,0v0c.2,0,.4,-.1,.4,-.4c0,-.2,-.2,-.3,-.4,-.3c-.2,0,-.4,.1,-.4,.3c0,.3,.2,.4,.4,.4m2.3,0v0c.2,0,.4,-.1,.4,-.4c0,-.2,-.2,-.3,-.4,-.3c-.2,0,-.4,.1,-.4,.3c0,.3,.2,.4,.4,.4m2.3,0v0c.2,0,.3,-.1,.3,-.4c0,-.2,-.1,-.3,-.3,-.3c-.2,0,-.4,.1,-.4,.3c0,.3,.2,.4,.4,.4m2.3,0v0c.2,0,.3,-.1,.3,-.4c0,-.2,-.1,-.3,-.3,-.3c-.3,0,-.4,.1,-.4,.3c0,.3,.1,.4,.4,.4m2.2,0v0c.3,0,.4,-.1,.4,-.4c0,-.2,-.1,-.3,-.4,-.3c-.2,0,-.3,.1,-.3,.3c0,.3,.1,.4,.3,.4m2.3,0v0c.3,0,.4,-.1,.4,-.4c0,-.2,-.1,-.3,-.4,-.3c-.2,0,-.3,.1,-.3,.3c0,.3,.1,.4,.3,.4m2.3,0v0c.2,0,.4,-.1,.4,-.4c0,-.2,-.2,-.3,-.4,-.3c-.2,0,-.3,.1,-.3,.3c0,.3,.1,.4,.3,.4m2.3,0v0c.2,0,.4,-.1,.4,-.4c0,-.2,-.2,-.3,-.4,-.3c-.2,0,-.4,.1,-.4,.3c0,.3,.2,.4,.4,.4m2.3,0v0c.2,0,.4,-.1,.4,-.4c0,-.2,-.2,-.3,-.4,-.3c-.2,0,-.4,.1,-.4,.3c0,.3,.2,.4,.4,.4m2.3,0v0c.2,0,.4,-.1,.4,-.4c0,-.2,-.2,-.3,-.4,-.3c-.2,0,-.4,.1,-.4,.3c0,.3,.2,.4,.4,.4m2.3,0v0c.2,0,.4,-.1,.4,-.4c0,-.2,-.2,-.3,-.4,-.3c-.2,0,-.4,.1,-.4,.3c0,.3,.2,.4,.4,.4m2.3,0v0c.2,0,.4,-.1,.4,-.4c0,-.2,-.2,-.3,-.4,-.3c-.2,0,-.4,.1,-.4,.3c0,.3,.2,.4,.4,.4m2.3,0v0c.2,0,.4,-.1,.4,-.4c0,-.2,-.2,-.3,-.4,-.3c-.2,0,-.4,.1,-.4,.3c0,.3,.2,.4,.4,.4m2.3,0v0c.2,0,.4,-.1,.4,-.4c0,-.2,-.2,-.3,-.4,-.3c-.2,0,-.4,.1,-.4,.3c0,.3,.2,.4,.4,.4m2.3,0v0c.2,0,.3,-.1,.3,-.4c0,-.2,-.1,-.3,-.3,-.3c-.2,0,-.4,.1,-.4,.3c0,.3,.2,.4,.4,.4m2.3,0v0c.2,0,.3,-.1,.3,-.4c0,-.2,-.1,-.3,-.3,-.3c-.3,0,-.4,.1,-.4,.3c0,.3,.1,.4,.4,.4m2.2,0v0c.3,0,.4,-.1,.4,-.4c0,-.2,-.1,-.3,-.4,-.3c-.2,0,-.3,.1,-.3,.3c0,.3,.1,.4,.3,.4m2.3,0v0c.2,0,.4,-.1,.4,-.4c0,-.2,-.2,-.3,-.4,-.3c-.2,0,-.3,.1,-.3,.3c0,.3,.1,.4,.3,.4m2.3,0v0c.2,0,.4,-.1,.4,-.4c0,-.2,-.2,-.3,-.4,-.3c-.2,0,-.4,.1,-.4,.3c0,.3,.2,.4,.4,.4m2.3,0v0c.2,0,.4,-.1,.4,-.4c0,-.2,-.2,-.3,-.4,-.3c-.2,0,-.4,.1,-.4,.3c0,.3,.2,.4,.4,.4m2.3,0v0c.2,0,.4,-.1,.4,-.4c0,-.2,-.2,-.3,-.4,-.3c-.2,0,-.4,.1,-.4,.3c0,.3,.2,.4,.4,.4Z" class="g5_13"/>
<path d="M600.8,1047.6l.3,-.1l.1,-.3l-.1,-.2l-.3,-.1l-.3,.1l-.1,.2l.1,.3Zm217.7,0l.3,-.1l.1,-.3l-.1,-.2l-.3,-.1l-.3,.1l-.1,.2l.1,.3Z" class="g5_13"/>
<path d="M820.7,1047.6v0c.3,0,.4,-.1,.4,-.4c0,-.2,-.1,-.3,-.4,-.3c-.2,0,-.3,.1,-.3,.3c0,.3,.1,.4,.3,.4m2.3,0v0c.2,0,.4,-.1,.4,-.4c0,-.2,-.2,-.3,-.4,-.3c-.2,0,-.4,.1,-.4,.3c0,.3,.2,.4,.4,.4m2.2,0v0c.2,0,.4,-.1,.4,-.4c0,-.2,-.2,-.3,-.4,-.3c-.2,0,-.3,.1,-.3,.3c0,.3,.1,.4,.3,.4m2.3,0v0c.2,0,.4,-.1,.4,-.4c0,-.2,-.2,-.3,-.4,-.3c-.2,0,-.4,.1,-.4,.3c0,.3,.2,.4,.4,.4m2.2,0v0c.2,0,.4,-.1,.4,-.4c0,-.2,-.2,-.3,-.4,-.3c-.2,0,-.4,.1,-.4,.3c0,.3,.2,.4,.4,.4m2.3,0v0c.2,0,.3,-.1,.3,-.4c0,-.2,-.1,-.3,-.3,-.3c-.3,0,-.4,.1,-.4,.3c0,.3,.1,.4,.4,.4m2.2,0v0c.2,0,.4,-.1,.4,-.4c0,-.2,-.2,-.3,-.4,-.3c-.2,0,-.4,.1,-.4,.3c0,.3,.2,.4,.4,.4m2.2,0v0c.3,0,.4,-.1,.4,-.4c0,-.2,-.1,-.3,-.4,-.3c-.2,0,-.3,.1,-.3,.3c0,.3,.1,.4,.3,.4m2.3,0v0c.2,0,.4,-.1,.4,-.4c0,-.2,-.2,-.3,-.4,-.3c-.2,0,-.4,.1,-.4,.3c0,.3,.2,.4,.4,.4m2.2,0v0c.2,0,.4,-.1,.4,-.4c0,-.2,-.2,-.3,-.4,-.3c-.2,0,-.3,.1,-.3,.3c0,.3,.1,.4,.3,.4m2.3,0v0c.2,0,.4,-.1,.4,-.4c0,-.2,-.2,-.3,-.4,-.3c-.2,0,-.4,.1,-.4,.3c0,.3,.2,.4,.4,.4m2.2,0v0c.2,0,.4,-.1,.4,-.4c0,-.2,-.2,-.3,-.4,-.3c-.2,0,-.4,.1,-.4,.3c0,.3,.2,.4,.4,.4m2.3,0v0c.2,0,.3,-.1,.3,-.4c0,-.2,-.1,-.3,-.3,-.3c-.2,0,-.4,.1,-.4,.3c0,.3,.2,.4,.4,.4m2.2,0v0c.2,0,.4,-.1,.4,-.4c0,-.2,-.2,-.3,-.4,-.3c-.2,0,-.4,.1,-.4,.3c0,.3,.2,.4,.4,.4m2.2,0v0c.3,0,.4,-.1,.4,-.4c0,-.2,-.1,-.3,-.4,-.3c-.2,0,-.3,.1,-.3,.3c0,.3,.1,.4,.3,.4m2.3,0v0c.2,0,.4,-.1,.4,-.4c0,-.2,-.2,-.3,-.4,-.3c-.2,0,-.4,.1,-.4,.3c0,.3,.2,.4,.4,.4m2.2,0v0c.2,0,.4,-.1,.4,-.4c0,-.2,-.2,-.3,-.4,-.3c-.2,0,-.3,.1,-.3,.3c0,.3,.1,.4,.3,.4m2.3,0v0c.2,0,.4,-.1,.4,-.4c0,-.2,-.2,-.3,-.4,-.3c-.2,0,-.4,.1,-.4,.3c0,.3,.2,.4,.4,.4m2.2,0v0c.2,0,.4,-.1,.4,-.4c0,-.2,-.2,-.3,-.4,-.3c-.2,0,-.4,.1,-.4,.3c0,.3,.2,.4,.4,.4m2.3,0v0c.2,0,.3,-.1,.3,-.4c0,-.2,-.1,-.3,-.3,-.3c-.2,0,-.4,.1,-.4,.3c0,.3,.2,.4,.4,.4m2.2,0v0c.2,0,.4,-.1,.4,-.4c0,-.2,-.2,-.3,-.4,-.3c-.2,0,-.4,.1,-.4,.3c0,.3,.2,.4,.4,.4m2.2,0v0c.3,0,.4,-.1,.4,-.4c0,-.2,-.1,-.3,-.4,-.3c-.2,0,-.3,.1,-.3,.3c0,.3,.1,.4,.3,.4Z" class="g5_13"/>
<path d="M818.5,1047.6l.3,-.1l.1,-.3l-.1,-.2l-.3,-.1l-.3,.1l-.1,.2l.1,.3Zm51.6,0l.3,-.1l.1,-.3l-.1,-.2l-.3,-.1l-.3,.1l-.1,.2l.1,.3Z" class="g5_13"/>
<path d="M603.1,1086.6v0c.2,0,.4,-.2,.4,-.4c0,-.2,-.2,-.3,-.4,-.3c-.2,0,-.4,.1,-.4,.3c0,.2,.2,.4,.4,.4m2.3,0v0c.2,0,.4,-.2,.4,-.4c0,-.2,-.2,-.3,-.4,-.3c-.2,0,-.4,.1,-.4,.3c0,.2,.2,.4,.4,.4m2.3,0v0c.2,0,.4,-.2,.4,-.4c0,-.2,-.2,-.3,-.4,-.3c-.2,0,-.4,.1,-.4,.3c0,.2,.2,.4,.4,.4m2.3,0v0c.2,0,.4,-.2,.4,-.4c0,-.2,-.2,-.3,-.4,-.3c-.2,0,-.4,.1,-.4,.3c0,.2,.2,.4,.4,.4m2.3,0v0c.2,0,.4,-.2,.4,-.4c0,-.2,-.2,-.3,-.4,-.3c-.2,0,-.4,.1,-.4,.3c0,.2,.2,.4,.4,.4m2.3,0v0c.2,0,.3,-.2,.3,-.4c0,-.2,-.1,-.3,-.3,-.3c-.2,0,-.4,.1,-.4,.3c0,.2,.2,.4,.4,.4m2.3,0v0c.2,0,.3,-.2,.3,-.4c0,-.2,-.1,-.3,-.3,-.3c-.3,0,-.4,.1,-.4,.3c0,.2,.1,.4,.4,.4m2.3,0v0c.2,0,.3,-.2,.3,-.4c0,-.2,-.1,-.3,-.3,-.3c-.3,0,-.4,.1,-.4,.3c0,.2,.1,.4,.4,.4m2.2,0v0c.3,0,.4,-.2,.4,-.4c0,-.2,-.1,-.3,-.4,-.3c-.2,0,-.3,.1,-.3,.3c0,.2,.1,.4,.3,.4m2.3,0v0c.2,0,.4,-.2,.4,-.4c0,-.2,-.2,-.3,-.4,-.3c-.2,0,-.3,.1,-.3,.3c0,.2,.1,.4,.3,.4m2.3,0v0c.2,0,.4,-.2,.4,-.4c0,-.2,-.2,-.3,-.4,-.3c-.2,0,-.4,.1,-.4,.3c0,.2,.2,.4,.4,.4m2.3,0v0c.2,0,.4,-.2,.4,-.4c0,-.2,-.2,-.3,-.4,-.3c-.2,0,-.4,.1,-.4,.3c0,.2,.2,.4,.4,.4m2.3,0v0c.2,0,.4,-.2,.4,-.4c0,-.2,-.2,-.3,-.4,-.3c-.2,0,-.4,.1,-.4,.3c0,.2,.2,.4,.4,.4m2.3,0v0c.2,0,.4,-.2,.4,-.4c0,-.2,-.2,-.3,-.4,-.3c-.2,0,-.4,.1,-.4,.3c0,.2,.2,.4,.4,.4m2.3,0v0c.2,0,.4,-.2,.4,-.4c0,-.2,-.2,-.3,-.4,-.3c-.2,0,-.4,.1,-.4,.3c0,.2,.2,.4,.4,.4m2.3,0v0c.2,0,.4,-.2,.4,-.4c0,-.2,-.2,-.3,-.4,-.3c-.2,0,-.4,.1,-.4,.3c0,.2,.2,.4,.4,.4m2.3,0v0c.2,0,.4,-.2,.4,-.4c0,-.2,-.2,-.3,-.4,-.3c-.2,0,-.4,.1,-.4,.3c0,.2,.2,.4,.4,.4m2.3,0v0c.2,0,.3,-.2,.3,-.4c0,-.2,-.1,-.3,-.3,-.3c-.2,0,-.4,.1,-.4,.3c0,.2,.2,.4,.4,.4m2.3,0v0c.2,0,.3,-.2,.3,-.4c0,-.2,-.1,-.3,-.3,-.3c-.3,0,-.4,.1,-.4,.3c0,.2,.1,.4,.4,.4m2.2,0v0c.3,0,.4,-.2,.4,-.4c0,-.2,-.1,-.3,-.4,-.3c-.2,0,-.3,.1,-.3,.3c0,.2,.1,.4,.3,.4m2.3,0v0c.3,0,.4,-.2,.4,-.4c0,-.2,-.1,-.3,-.4,-.3c-.2,0,-.3,.1,-.3,.3c0,.2,.1,.4,.3,.4m2.3,0v0c.2,0,.4,-.2,.4,-.4c0,-.2,-.2,-.3,-.4,-.3c-.2,0,-.4,.1,-.4,.3c0,.2,.2,.4,.4,.4m2.3,0v0c.2,0,.4,-.2,.4,-.4c0,-.2,-.2,-.3,-.4,-.3c-.2,0,-.4,.1,-.4,.3c0,.2,.2,.4,.4,.4m2.3,0v0c.2,0,.4,-.2,.4,-.4c0,-.2,-.2,-.3,-.4,-.3c-.2,0,-.4,.1,-.4,.3c0,.2,.2,.4,.4,.4m2.3,0v0c.2,0,.4,-.2,.4,-.4c0,-.2,-.2,-.3,-.4,-.3c-.2,0,-.4,.1,-.4,.3c0,.2,.2,.4,.4,.4m2.3,0v0c.2,0,.4,-.2,.4,-.4c0,-.2,-.2,-.3,-.4,-.3c-.2,0,-.4,.1,-.4,.3c0,.2,.2,.4,.4,.4m2.3,0v0c.2,0,.4,-.2,.4,-.4c0,-.2,-.2,-.3,-.4,-.3c-.2,0,-.4,.1,-.4,.3c0,.2,.2,.4,.4,.4m2.3,0v0c.2,0,.4,-.2,.4,-.4c0,-.2,-.2,-.3,-.4,-.3c-.2,0,-.4,.1,-.4,.3c0,.2,.2,.4,.4,.4m2.3,0v0c.2,0,.4,-.2,.4,-.4c0,-.2,-.2,-.3,-.4,-.3c-.2,0,-.4,.1,-.4,.3c0,.2,.2,.4,.4,.4m2.3,0v0c.2,0,.3,-.2,.3,-.4c0,-.2,-.1,-.3,-.3,-.3c-.2,0,-.4,.1,-.4,.3c0,.2,.2,.4,.4,.4m2.3,0v0c.2,0,.3,-.2,.3,-.4c0,-.2,-.1,-.3,-.3,-.3c-.3,0,-.4,.1,-.4,.3c0,.2,.1,.4,.4,.4m2.2,0v0c.3,0,.4,-.2,.4,-.4c0,-.2,-.1,-.3,-.4,-.3c-.2,0,-.3,.1,-.3,.3c0,.2,.1,.4,.3,.4m2.3,0v0c.2,0,.4,-.2,.4,-.4c0,-.2,-.2,-.3,-.4,-.3c-.2,0,-.3,.1,-.3,.3c0,.2,.1,.4,.3,.4m2.3,0v0c.2,0,.4,-.2,.4,-.4c0,-.2,-.2,-.3,-.4,-.3c-.2,0,-.4,.1,-.4,.3c0,.2,.2,.4,.4,.4m2.3,0v0c.2,0,.4,-.2,.4,-.4c0,-.2,-.2,-.3,-.4,-.3c-.2,0,-.4,.1,-.4,.3c0,.2,.2,.4,.4,.4m2.3,0v0c.2,0,.4,-.2,.4,-.4c0,-.2,-.2,-.3,-.4,-.3c-.2,0,-.4,.1,-.4,.3c0,.2,.2,.4,.4,.4m2.3,0v0c.2,0,.4,-.2,.4,-.4c0,-.2,-.2,-.3,-.4,-.3c-.2,0,-.4,.1,-.4,.3c0,.2,.2,.4,.4,.4m2.3,0v0c.2,0,.4,-.2,.4,-.4c0,-.2,-.2,-.3,-.4,-.3c-.2,0,-.4,.1,-.4,.3c0,.2,.2,.4,.4,.4m2.3,0v0c.2,0,.4,-.2,.4,-.4c0,-.2,-.2,-.3,-.4,-.3c-.2,0,-.4,.1,-.4,.3c0,.2,.2,.4,.4,.4m2.3,0v0c.2,0,.4,-.2,.4,-.4c0,-.2,-.2,-.3,-.4,-.3c-.2,0,-.4,.1,-.4,.3c0,.2,.2,.4,.4,.4m2.3,0v0c.2,0,.3,-.2,.3,-.4c0,-.2,-.1,-.3,-.3,-.3c-.2,0,-.4,.1,-.4,.3c0,.2,.2,.4,.4,.4m2.3,0v0c.2,0,.3,-.2,.3,-.4c0,-.2,-.1,-.3,-.3,-.3c-.3,0,-.4,.1,-.4,.3c0,.2,.1,.4,.4,.4m2.3,0v0c.2,0,.3,-.2,.3,-.4c0,-.2,-.1,-.3,-.3,-.3c-.3,0,-.4,.1,-.4,.3c0,.2,.1,.4,.4,.4m2.2,0v0c.3,0,.4,-.2,.4,-.4c0,-.2,-.1,-.3,-.4,-.3c-.2,0,-.3,.1,-.3,.3c0,.2,.1,.4,.3,.4m2.3,0v0c.2,0,.4,-.2,.4,-.4c0,-.2,-.2,-.3,-.4,-.3c-.2,0,-.3,.1,-.3,.3c0,.2,.1,.4,.3,.4m2.3,0v0c.2,0,.4,-.2,.4,-.4c0,-.2,-.2,-.3,-.4,-.3c-.2,0,-.4,.1,-.4,.3c0,.2,.2,.4,.4,.4m2.3,0v0c.2,0,.4,-.2,.4,-.4c0,-.2,-.2,-.3,-.4,-.3c-.2,0,-.4,.1,-.4,.3c0,.2,.2,.4,.4,.4m2.3,0v0c.2,0,.4,-.2,.4,-.4c0,-.2,-.2,-.3,-.4,-.3c-.2,0,-.4,.1,-.4,.3c0,.2,.2,.4,.4,.4m2.3,0v0c.2,0,.4,-.2,.4,-.4c0,-.2,-.2,-.3,-.4,-.3c-.2,0,-.4,.1,-.4,.3c0,.2,.2,.4,.4,.4m2.3,0v0c.2,0,.4,-.2,.4,-.4c0,-.2,-.2,-.3,-.4,-.3c-.2,0,-.4,.1,-.4,.3c0,.2,.2,.4,.4,.4m2.3,0v0c.2,0,.4,-.2,.4,-.4c0,-.2,-.2,-.3,-.4,-.3c-.2,0,-.4,.1,-.4,.3c0,.2,.2,.4,.4,.4m2.3,0v0c.2,0,.4,-.2,.4,-.4c0,-.2,-.2,-.3,-.4,-.3c-.2,0,-.4,.1,-.4,.3c0,.2,.2,.4,.4,.4m2.3,0v0c.2,0,.3,-.2,.3,-.4c0,-.2,-.1,-.3,-.3,-.3c-.2,0,-.4,.1,-.4,.3c0,.2,.2,.4,.4,.4m2.3,0v0c.2,0,.3,-.2,.3,-.4c0,-.2,-.1,-.3,-.3,-.3c-.3,0,-.4,.1,-.4,.3c0,.2,.1,.4,.4,.4m2.2,0v0c.3,0,.4,-.2,.4,-.4c0,-.2,-.1,-.3,-.4,-.3c-.2,0,-.3,.1,-.3,.3c0,.2,.1,.4,.3,.4m2.3,0v0c.2,0,.4,-.2,.4,-.4c0,-.2,-.2,-.3,-.4,-.3c-.2,0,-.3,.1,-.3,.3c0,.2,.1,.4,.3,.4m2.3,0v0c.2,0,.4,-.2,.4,-.4c0,-.2,-.2,-.3,-.4,-.3c-.2,0,-.4,.1,-.4,.3c0,.2,.2,.4,.4,.4m2.3,0v0c.2,0,.4,-.2,.4,-.4c0,-.2,-.2,-.3,-.4,-.3c-.2,0,-.4,.1,-.4,.3c0,.2,.2,.4,.4,.4m2.3,0v0c.2,0,.4,-.2,.4,-.4c0,-.2,-.2,-.3,-.4,-.3c-.2,0,-.4,.1,-.4,.3c0,.2,.2,.4,.4,.4m2.3,0v0c.2,0,.4,-.2,.4,-.4c0,-.2,-.2,-.3,-.4,-.3c-.2,0,-.4,.1,-.4,.3c0,.2,.2,.4,.4,.4m2.3,0v0c.2,0,.4,-.2,.4,-.4c0,-.2,-.2,-.3,-.4,-.3c-.2,0,-.4,.1,-.4,.3c0,.2,.2,.4,.4,.4m2.3,0v0c.2,0,.4,-.2,.4,-.4c0,-.2,-.2,-.3,-.4,-.3c-.2,0,-.4,.1,-.4,.3c0,.2,.2,.4,.4,.4m2.3,0v0c.2,0,.4,-.2,.4,-.4c0,-.2,-.2,-.3,-.4,-.3c-.2,0,-.4,.1,-.4,.3c0,.2,.2,.4,.4,.4m2.3,0v0c.2,0,.4,-.2,.4,-.4c0,-.2,-.2,-.3,-.4,-.3c-.2,0,-.4,.1,-.4,.3c0,.2,.2,.4,.4,.4m2.3,0v0c.2,0,.3,-.2,.3,-.4c0,-.2,-.1,-.3,-.3,-.3c-.3,0,-.4,.1,-.4,.3c0,.2,.1,.4,.4,.4m2.3,0v0c.2,0,.3,-.2,.3,-.4c0,-.2,-.1,-.3,-.3,-.3c-.3,0,-.4,.1,-.4,.3c0,.2,.1,.4,.4,.4m2.2,0v0c.3,0,.4,-.2,.4,-.4c0,-.2,-.1,-.3,-.4,-.3c-.2,0,-.3,.1,-.3,.3c0,.2,.1,.4,.3,.4m2.3,0v0c.2,0,.4,-.2,.4,-.4c0,-.2,-.2,-.3,-.4,-.3c-.2,0,-.3,.1,-.3,.3c0,.2,.1,.4,.3,.4m2.3,0v0c.2,0,.4,-.2,.4,-.4c0,-.2,-.2,-.3,-.4,-.3c-.2,0,-.4,.1,-.4,.3c0,.2,.2,.4,.4,.4m2.3,0v0c.2,0,.4,-.2,.4,-.4c0,-.2,-.2,-.3,-.4,-.3c-.2,0,-.4,.1,-.4,.3c0,.2,.2,.4,.4,.4m2.3,0v0c.2,0,.4,-.2,.4,-.4c0,-.2,-.2,-.3,-.4,-.3c-.2,0,-.4,.1,-.4,.3c0,.2,.2,.4,.4,.4m2.3,0v0c.2,0,.4,-.2,.4,-.4c0,-.2,-.2,-.3,-.4,-.3c-.2,0,-.4,.1,-.4,.3c0,.2,.2,.4,.4,.4m2.3,0v0c.2,0,.4,-.2,.4,-.4c0,-.2,-.2,-.3,-.4,-.3c-.2,0,-.4,.1,-.4,.3c0,.2,.2,.4,.4,.4m2.3,0v0c.2,0,.4,-.2,.4,-.4c0,-.2,-.2,-.3,-.4,-.3c-.2,0,-.4,.1,-.4,.3c0,.2,.2,.4,.4,.4m2.3,0v0c.2,0,.4,-.2,.4,-.4c0,-.2,-.2,-.3,-.4,-.3c-.2,0,-.4,.1,-.4,.3c0,.2,.2,.4,.4,.4m2.3,0v0c.2,0,.3,-.2,.3,-.4c0,-.2,-.1,-.3,-.3,-.3c-.2,0,-.4,.1,-.4,.3c0,.2,.2,.4,.4,.4m2.3,0v0c.2,0,.3,-.2,.3,-.4c0,-.2,-.1,-.3,-.3,-.3c-.3,0,-.4,.1,-.4,.3c0,.2,.1,.4,.4,.4m2.2,0v0c.3,0,.4,-.2,.4,-.4c0,-.2,-.1,-.3,-.4,-.3c-.2,0,-.3,.1,-.3,.3c0,.2,.1,.4,.3,.4m2.3,0v0c.3,0,.4,-.2,.4,-.4c0,-.2,-.1,-.3,-.4,-.3c-.2,0,-.3,.1,-.3,.3c0,.2,.1,.4,.3,.4m2.3,0v0c.2,0,.4,-.2,.4,-.4c0,-.2,-.2,-.3,-.4,-.3c-.2,0,-.3,.1,-.3,.3c0,.2,.1,.4,.3,.4m2.3,0v0c.2,0,.4,-.2,.4,-.4c0,-.2,-.2,-.3,-.4,-.3c-.2,0,-.4,.1,-.4,.3c0,.2,.2,.4,.4,.4m2.3,0v0c.2,0,.4,-.2,.4,-.4c0,-.2,-.2,-.3,-.4,-.3c-.2,0,-.4,.1,-.4,.3c0,.2,.2,.4,.4,.4m2.3,0v0c.2,0,.4,-.2,.4,-.4c0,-.2,-.2,-.3,-.4,-.3c-.2,0,-.4,.1,-.4,.3c0,.2,.2,.4,.4,.4m2.3,0v0c.2,0,.4,-.2,.4,-.4c0,-.2,-.2,-.3,-.4,-.3c-.2,0,-.4,.1,-.4,.3c0,.2,.2,.4,.4,.4m2.3,0v0c.2,0,.4,-.2,.4,-.4c0,-.2,-.2,-.3,-.4,-.3c-.2,0,-.4,.1,-.4,.3c0,.2,.2,.4,.4,.4m2.3,0v0c.2,0,.4,-.2,.4,-.4c0,-.2,-.2,-.3,-.4,-.3c-.2,0,-.4,.1,-.4,.3c0,.2,.2,.4,.4,.4m2.3,0v0c.2,0,.4,-.2,.4,-.4c0,-.2,-.2,-.3,-.4,-.3c-.2,0,-.4,.1,-.4,.3c0,.2,.2,.4,.4,.4m2.3,0v0c.2,0,.3,-.2,.3,-.4c0,-.2,-.1,-.3,-.3,-.3c-.2,0,-.4,.1,-.4,.3c0,.2,.2,.4,.4,.4m2.3,0v0c.2,0,.3,-.2,.3,-.4c0,-.2,-.1,-.3,-.3,-.3c-.3,0,-.4,.1,-.4,.3c0,.2,.1,.4,.4,.4m2.2,0v0c.3,0,.4,-.2,.4,-.4c0,-.2,-.1,-.3,-.4,-.3c-.2,0,-.3,.1,-.3,.3c0,.2,.1,.4,.3,.4m2.3,0v0c.2,0,.4,-.2,.4,-.4c0,-.2,-.2,-.3,-.4,-.3c-.2,0,-.3,.1,-.3,.3c0,.2,.1,.4,.3,.4m2.3,0v0c.2,0,.4,-.2,.4,-.4c0,-.2,-.2,-.3,-.4,-.3c-.2,0,-.4,.1,-.4,.3c0,.2,.2,.4,.4,.4m2.3,0v0c.2,0,.4,-.2,.4,-.4c0,-.2,-.2,-.3,-.4,-.3c-.2,0,-.4,.1,-.4,.3c0,.2,.2,.4,.4,.4m2.3,0v0c.2,0,.4,-.2,.4,-.4c0,-.2,-.2,-.3,-.4,-.3c-.2,0,-.4,.1,-.4,.3c0,.2,.2,.4,.4,.4Z" class="g5_13"/>
<path d="M600.8,1086.6l.3,-.1l.1,-.3l-.1,-.2l-.3,-.1l-.3,.1l-.1,.2l.1,.3Zm217.7,0l.3,-.1l.1,-.3l-.1,-.2l-.3,-.1l-.3,.1l-.1,.2l.1,.3Z" class="g5_13"/>
<path d="M820.7,1086.6v0c.3,0,.4,-.2,.4,-.4c0,-.2,-.1,-.3,-.4,-.3c-.2,0,-.3,.1,-.3,.3c0,.2,.1,.4,.3,.4m2.3,0v0c.2,0,.4,-.2,.4,-.4c0,-.2,-.2,-.3,-.4,-.3c-.2,0,-.4,.1,-.4,.3c0,.2,.2,.4,.4,.4m2.2,0v0c.2,0,.4,-.2,.4,-.4c0,-.2,-.2,-.3,-.4,-.3c-.2,0,-.3,.1,-.3,.3c0,.2,.1,.4,.3,.4m2.3,0v0c.2,0,.4,-.2,.4,-.4c0,-.2,-.2,-.3,-.4,-.3c-.2,0,-.4,.1,-.4,.3c0,.2,.2,.4,.4,.4m2.2,0v0c.2,0,.4,-.2,.4,-.4c0,-.2,-.2,-.3,-.4,-.3c-.2,0,-.4,.1,-.4,.3c0,.2,.2,.4,.4,.4m2.3,0v0c.2,0,.3,-.2,.3,-.4c0,-.2,-.1,-.3,-.3,-.3c-.3,0,-.4,.1,-.4,.3c0,.2,.1,.4,.4,.4m2.2,0v0c.2,0,.4,-.2,.4,-.4c0,-.2,-.2,-.3,-.4,-.3c-.2,0,-.4,.1,-.4,.3c0,.2,.2,.4,.4,.4m2.2,0v0c.3,0,.4,-.2,.4,-.4c0,-.2,-.1,-.3,-.4,-.3c-.2,0,-.3,.1,-.3,.3c0,.2,.1,.4,.3,.4m2.3,0v0c.2,0,.4,-.2,.4,-.4c0,-.2,-.2,-.3,-.4,-.3c-.2,0,-.4,.1,-.4,.3c0,.2,.2,.4,.4,.4m2.2,0v0c.2,0,.4,-.2,.4,-.4c0,-.2,-.2,-.3,-.4,-.3c-.2,0,-.3,.1,-.3,.3c0,.2,.1,.4,.3,.4m2.3,0v0c.2,0,.4,-.2,.4,-.4c0,-.2,-.2,-.3,-.4,-.3c-.2,0,-.4,.1,-.4,.3c0,.2,.2,.4,.4,.4m2.2,0v0c.2,0,.4,-.2,.4,-.4c0,-.2,-.2,-.3,-.4,-.3c-.2,0,-.4,.1,-.4,.3c0,.2,.2,.4,.4,.4m2.3,0v0c.2,0,.3,-.2,.3,-.4c0,-.2,-.1,-.3,-.3,-.3c-.2,0,-.4,.1,-.4,.3c0,.2,.2,.4,.4,.4m2.2,0v0c.2,0,.4,-.2,.4,-.4c0,-.2,-.2,-.3,-.4,-.3c-.2,0,-.4,.1,-.4,.3c0,.2,.2,.4,.4,.4m2.2,0v0c.3,0,.4,-.2,.4,-.4c0,-.2,-.1,-.3,-.4,-.3c-.2,0,-.3,.1,-.3,.3c0,.2,.1,.4,.3,.4m2.3,0v0c.2,0,.4,-.2,.4,-.4c0,-.2,-.2,-.3,-.4,-.3c-.2,0,-.4,.1,-.4,.3c0,.2,.2,.4,.4,.4m2.2,0v0c.2,0,.4,-.2,.4,-.4c0,-.2,-.2,-.3,-.4,-.3c-.2,0,-.3,.1,-.3,.3c0,.2,.1,.4,.3,.4m2.3,0v0c.2,0,.4,-.2,.4,-.4c0,-.2,-.2,-.3,-.4,-.3c-.2,0,-.4,.1,-.4,.3c0,.2,.2,.4,.4,.4m2.2,0v0c.2,0,.4,-.2,.4,-.4c0,-.2,-.2,-.3,-.4,-.3c-.2,0,-.4,.1,-.4,.3c0,.2,.2,.4,.4,.4m2.3,0v0c.2,0,.3,-.2,.3,-.4c0,-.2,-.1,-.3,-.3,-.3c-.2,0,-.4,.1,-.4,.3c0,.2,.2,.4,.4,.4m2.2,0v0c.2,0,.4,-.2,.4,-.4c0,-.2,-.2,-.3,-.4,-.3c-.2,0,-.4,.1,-.4,.3c0,.2,.2,.4,.4,.4m2.2,0v0c.3,0,.4,-.2,.4,-.4c0,-.2,-.1,-.3,-.4,-.3c-.2,0,-.3,.1,-.3,.3c0,.2,.1,.4,.3,.4Z" class="g5_13"/>
<path d="M818.5,1086.6l.3,-.1l.1,-.3l-.1,-.2l-.3,-.1l-.3,.1l-.1,.2l.1,.3Zm51.6,0l.3,-.1l.1,-.3l-.1,-.2l-.3,-.1l-.3,.1l-.1,.2l.1,.3Z" class="g5_13"/>
<path d="M603.1,1125.6v0c.2,0,.4,-.2,.4,-.4c0,-.2,-.2,-.4,-.4,-.4c-.2,0,-.4,.2,-.4,.4c0,.2,.2,.4,.4,.4m2.3,0v0c.2,0,.4,-.2,.4,-.4c0,-.2,-.2,-.4,-.4,-.4c-.2,0,-.4,.2,-.4,.4c0,.2,.2,.4,.4,.4m2.3,0v0c.2,0,.4,-.2,.4,-.4c0,-.2,-.2,-.4,-.4,-.4c-.2,0,-.4,.2,-.4,.4c0,.2,.2,.4,.4,.4m2.3,0v0c.2,0,.4,-.2,.4,-.4c0,-.2,-.2,-.4,-.4,-.4c-.2,0,-.4,.2,-.4,.4c0,.2,.2,.4,.4,.4m2.3,0v0c.2,0,.4,-.2,.4,-.4c0,-.2,-.2,-.4,-.4,-.4c-.2,0,-.4,.2,-.4,.4c0,.2,.2,.4,.4,.4m2.3,0v0c.2,0,.3,-.2,.3,-.4c0,-.2,-.1,-.4,-.3,-.4c-.2,0,-.4,.2,-.4,.4c0,.2,.2,.4,.4,.4m2.3,0v0c.2,0,.3,-.2,.3,-.4c0,-.2,-.1,-.4,-.3,-.4c-.3,0,-.4,.2,-.4,.4c0,.2,.1,.4,.4,.4m2.3,0v0c.2,0,.3,-.2,.3,-.4c0,-.2,-.1,-.4,-.3,-.4c-.3,0,-.4,.2,-.4,.4c0,.2,.1,.4,.4,.4m2.2,0v0c.3,0,.4,-.2,.4,-.4c0,-.2,-.1,-.4,-.4,-.4c-.2,0,-.3,.2,-.3,.4c0,.2,.1,.4,.3,.4m2.3,0v0c.2,0,.4,-.2,.4,-.4c0,-.2,-.2,-.4,-.4,-.4c-.2,0,-.3,.2,-.3,.4c0,.2,.1,.4,.3,.4m2.3,0v0c.2,0,.4,-.2,.4,-.4c0,-.2,-.2,-.4,-.4,-.4c-.2,0,-.4,.2,-.4,.4c0,.2,.2,.4,.4,.4m2.3,0v0c.2,0,.4,-.2,.4,-.4c0,-.2,-.2,-.4,-.4,-.4c-.2,0,-.4,.2,-.4,.4c0,.2,.2,.4,.4,.4m2.3,0v0c.2,0,.4,-.2,.4,-.4c0,-.2,-.2,-.4,-.4,-.4c-.2,0,-.4,.2,-.4,.4c0,.2,.2,.4,.4,.4m2.3,0v0c.2,0,.4,-.2,.4,-.4c0,-.2,-.2,-.4,-.4,-.4c-.2,0,-.4,.2,-.4,.4c0,.2,.2,.4,.4,.4m2.3,0v0c.2,0,.4,-.2,.4,-.4c0,-.2,-.2,-.4,-.4,-.4c-.2,0,-.4,.2,-.4,.4c0,.2,.2,.4,.4,.4m2.3,0v0c.2,0,.4,-.2,.4,-.4c0,-.2,-.2,-.4,-.4,-.4c-.2,0,-.4,.2,-.4,.4c0,.2,.2,.4,.4,.4m2.3,0v0c.2,0,.4,-.2,.4,-.4c0,-.2,-.2,-.4,-.4,-.4c-.2,0,-.4,.2,-.4,.4c0,.2,.2,.4,.4,.4m2.3,0v0c.2,0,.3,-.2,.3,-.4c0,-.2,-.1,-.4,-.3,-.4c-.2,0,-.4,.2,-.4,.4c0,.2,.2,.4,.4,.4m2.3,0v0c.2,0,.3,-.2,.3,-.4c0,-.2,-.1,-.4,-.3,-.4c-.3,0,-.4,.2,-.4,.4c0,.2,.1,.4,.4,.4m2.2,0v0c.3,0,.4,-.2,.4,-.4c0,-.2,-.1,-.4,-.4,-.4c-.2,0,-.3,.2,-.3,.4c0,.2,.1,.4,.3,.4m2.3,0v0c.3,0,.4,-.2,.4,-.4c0,-.2,-.1,-.4,-.4,-.4c-.2,0,-.3,.2,-.3,.4c0,.2,.1,.4,.3,.4m2.3,0v0c.2,0,.4,-.2,.4,-.4c0,-.2,-.2,-.4,-.4,-.4c-.2,0,-.4,.2,-.4,.4c0,.2,.2,.4,.4,.4m2.3,0v0c.2,0,.4,-.2,.4,-.4c0,-.2,-.2,-.4,-.4,-.4c-.2,0,-.4,.2,-.4,.4c0,.2,.2,.4,.4,.4m2.3,0v0c.2,0,.4,-.2,.4,-.4c0,-.2,-.2,-.4,-.4,-.4c-.2,0,-.4,.2,-.4,.4c0,.2,.2,.4,.4,.4m2.3,0v0c.2,0,.4,-.2,.4,-.4c0,-.2,-.2,-.4,-.4,-.4c-.2,0,-.4,.2,-.4,.4c0,.2,.2,.4,.4,.4m2.3,0v0c.2,0,.4,-.2,.4,-.4c0,-.2,-.2,-.4,-.4,-.4c-.2,0,-.4,.2,-.4,.4c0,.2,.2,.4,.4,.4m2.3,0v0c.2,0,.4,-.2,.4,-.4c0,-.2,-.2,-.4,-.4,-.4c-.2,0,-.4,.2,-.4,.4c0,.2,.2,.4,.4,.4m2.3,0v0c.2,0,.4,-.2,.4,-.4c0,-.2,-.2,-.4,-.4,-.4c-.2,0,-.4,.2,-.4,.4c0,.2,.2,.4,.4,.4m2.3,0v0c.2,0,.4,-.2,.4,-.4c0,-.2,-.2,-.4,-.4,-.4c-.2,0,-.4,.2,-.4,.4c0,.2,.2,.4,.4,.4m2.3,0v0c.2,0,.3,-.2,.3,-.4c0,-.2,-.1,-.4,-.3,-.4c-.2,0,-.4,.2,-.4,.4c0,.2,.2,.4,.4,.4m2.3,0v0c.2,0,.3,-.2,.3,-.4c0,-.2,-.1,-.4,-.3,-.4c-.3,0,-.4,.2,-.4,.4c0,.2,.1,.4,.4,.4m2.2,0v0c.3,0,.4,-.2,.4,-.4c0,-.2,-.1,-.4,-.4,-.4c-.2,0,-.3,.2,-.3,.4c0,.2,.1,.4,.3,.4m2.3,0v0c.2,0,.4,-.2,.4,-.4c0,-.2,-.2,-.4,-.4,-.4c-.2,0,-.3,.2,-.3,.4c0,.2,.1,.4,.3,.4m2.3,0v0c.2,0,.4,-.2,.4,-.4c0,-.2,-.2,-.4,-.4,-.4c-.2,0,-.4,.2,-.4,.4c0,.2,.2,.4,.4,.4m2.3,0v0c.2,0,.4,-.2,.4,-.4c0,-.2,-.2,-.4,-.4,-.4c-.2,0,-.4,.2,-.4,.4c0,.2,.2,.4,.4,.4m2.3,0v0c.2,0,.4,-.2,.4,-.4c0,-.2,-.2,-.4,-.4,-.4c-.2,0,-.4,.2,-.4,.4c0,.2,.2,.4,.4,.4m2.3,0v0c.2,0,.4,-.2,.4,-.4c0,-.2,-.2,-.4,-.4,-.4c-.2,0,-.4,.2,-.4,.4c0,.2,.2,.4,.4,.4m2.3,0v0c.2,0,.4,-.2,.4,-.4c0,-.2,-.2,-.4,-.4,-.4c-.2,0,-.4,.2,-.4,.4c0,.2,.2,.4,.4,.4m2.3,0v0c.2,0,.4,-.2,.4,-.4c0,-.2,-.2,-.4,-.4,-.4c-.2,0,-.4,.2,-.4,.4c0,.2,.2,.4,.4,.4m2.3,0v0c.2,0,.4,-.2,.4,-.4c0,-.2,-.2,-.4,-.4,-.4c-.2,0,-.4,.2,-.4,.4c0,.2,.2,.4,.4,.4m2.3,0v0c.2,0,.3,-.2,.3,-.4c0,-.2,-.1,-.4,-.3,-.4c-.2,0,-.4,.2,-.4,.4c0,.2,.2,.4,.4,.4m2.3,0v0c.2,0,.3,-.2,.3,-.4c0,-.2,-.1,-.4,-.3,-.4c-.3,0,-.4,.2,-.4,.4c0,.2,.1,.4,.4,.4m2.3,0v0c.2,0,.3,-.2,.3,-.4c0,-.2,-.1,-.4,-.3,-.4c-.3,0,-.4,.2,-.4,.4c0,.2,.1,.4,.4,.4m2.2,0v0c.3,0,.4,-.2,.4,-.4c0,-.2,-.1,-.4,-.4,-.4c-.2,0,-.3,.2,-.3,.4c0,.2,.1,.4,.3,.4m2.3,0v0c.2,0,.4,-.2,.4,-.4c0,-.2,-.2,-.4,-.4,-.4c-.2,0,-.3,.2,-.3,.4c0,.2,.1,.4,.3,.4m2.3,0v0c.2,0,.4,-.2,.4,-.4c0,-.2,-.2,-.4,-.4,-.4c-.2,0,-.4,.2,-.4,.4c0,.2,.2,.4,.4,.4m2.3,0v0c.2,0,.4,-.2,.4,-.4c0,-.2,-.2,-.4,-.4,-.4c-.2,0,-.4,.2,-.4,.4c0,.2,.2,.4,.4,.4m2.3,0v0c.2,0,.4,-.2,.4,-.4c0,-.2,-.2,-.4,-.4,-.4c-.2,0,-.4,.2,-.4,.4c0,.2,.2,.4,.4,.4m2.3,0v0c.2,0,.4,-.2,.4,-.4c0,-.2,-.2,-.4,-.4,-.4c-.2,0,-.4,.2,-.4,.4c0,.2,.2,.4,.4,.4m2.3,0v0c.2,0,.4,-.2,.4,-.4c0,-.2,-.2,-.4,-.4,-.4c-.2,0,-.4,.2,-.4,.4c0,.2,.2,.4,.4,.4m2.3,0v0c.2,0,.4,-.2,.4,-.4c0,-.2,-.2,-.4,-.4,-.4c-.2,0,-.4,.2,-.4,.4c0,.2,.2,.4,.4,.4m2.3,0v0c.2,0,.4,-.2,.4,-.4c0,-.2,-.2,-.4,-.4,-.4c-.2,0,-.4,.2,-.4,.4c0,.2,.2,.4,.4,.4m2.3,0v0c.2,0,.3,-.2,.3,-.4c0,-.2,-.1,-.4,-.3,-.4c-.2,0,-.4,.2,-.4,.4c0,.2,.2,.4,.4,.4m2.3,0v0c.2,0,.3,-.2,.3,-.4c0,-.2,-.1,-.4,-.3,-.4c-.3,0,-.4,.2,-.4,.4c0,.2,.1,.4,.4,.4m2.2,0v0c.3,0,.4,-.2,.4,-.4c0,-.2,-.1,-.4,-.4,-.4c-.2,0,-.3,.2,-.3,.4c0,.2,.1,.4,.3,.4m2.3,0v0c.2,0,.4,-.2,.4,-.4c0,-.2,-.2,-.4,-.4,-.4c-.2,0,-.3,.2,-.3,.4c0,.2,.1,.4,.3,.4m2.3,0v0c.2,0,.4,-.2,.4,-.4c0,-.2,-.2,-.4,-.4,-.4c-.2,0,-.4,.2,-.4,.4c0,.2,.2,.4,.4,.4m2.3,0v0c.2,0,.4,-.2,.4,-.4c0,-.2,-.2,-.4,-.4,-.4c-.2,0,-.4,.2,-.4,.4c0,.2,.2,.4,.4,.4m2.3,0v0c.2,0,.4,-.2,.4,-.4c0,-.2,-.2,-.4,-.4,-.4c-.2,0,-.4,.2,-.4,.4c0,.2,.2,.4,.4,.4m2.3,0v0c.2,0,.4,-.2,.4,-.4c0,-.2,-.2,-.4,-.4,-.4c-.2,0,-.4,.2,-.4,.4c0,.2,.2,.4,.4,.4m2.3,0v0c.2,0,.4,-.2,.4,-.4c0,-.2,-.2,-.4,-.4,-.4c-.2,0,-.4,.2,-.4,.4c0,.2,.2,.4,.4,.4m2.3,0v0c.2,0,.4,-.2,.4,-.4c0,-.2,-.2,-.4,-.4,-.4c-.2,0,-.4,.2,-.4,.4c0,.2,.2,.4,.4,.4m2.3,0v0c.2,0,.4,-.2,.4,-.4c0,-.2,-.2,-.4,-.4,-.4c-.2,0,-.4,.2,-.4,.4c0,.2,.2,.4,.4,.4m2.3,0v0c.2,0,.4,-.2,.4,-.4c0,-.2,-.2,-.4,-.4,-.4c-.2,0,-.4,.2,-.4,.4c0,.2,.2,.4,.4,.4m2.3,0v0c.2,0,.3,-.2,.3,-.4c0,-.2,-.1,-.4,-.3,-.4c-.3,0,-.4,.2,-.4,.4c0,.2,.1,.4,.4,.4m2.3,0v0c.2,0,.3,-.2,.3,-.4c0,-.2,-.1,-.4,-.3,-.4c-.3,0,-.4,.2,-.4,.4c0,.2,.1,.4,.4,.4m2.2,0v0c.3,0,.4,-.2,.4,-.4c0,-.2,-.1,-.4,-.4,-.4c-.2,0,-.3,.2,-.3,.4c0,.2,.1,.4,.3,.4m2.3,0v0c.2,0,.4,-.2,.4,-.4c0,-.2,-.2,-.4,-.4,-.4c-.2,0,-.3,.2,-.3,.4c0,.2,.1,.4,.3,.4m2.3,0v0c.2,0,.4,-.2,.4,-.4c0,-.2,-.2,-.4,-.4,-.4c-.2,0,-.4,.2,-.4,.4c0,.2,.2,.4,.4,.4m2.3,0v0c.2,0,.4,-.2,.4,-.4c0,-.2,-.2,-.4,-.4,-.4c-.2,0,-.4,.2,-.4,.4c0,.2,.2,.4,.4,.4m2.3,0v0c.2,0,.4,-.2,.4,-.4c0,-.2,-.2,-.4,-.4,-.4c-.2,0,-.4,.2,-.4,.4c0,.2,.2,.4,.4,.4m2.3,0v0c.2,0,.4,-.2,.4,-.4c0,-.2,-.2,-.4,-.4,-.4c-.2,0,-.4,.2,-.4,.4c0,.2,.2,.4,.4,.4m2.3,0v0c.2,0,.4,-.2,.4,-.4c0,-.2,-.2,-.4,-.4,-.4c-.2,0,-.4,.2,-.4,.4c0,.2,.2,.4,.4,.4m2.3,0v0c.2,0,.4,-.2,.4,-.4c0,-.2,-.2,-.4,-.4,-.4c-.2,0,-.4,.2,-.4,.4c0,.2,.2,.4,.4,.4m2.3,0v0c.2,0,.4,-.2,.4,-.4c0,-.2,-.2,-.4,-.4,-.4c-.2,0,-.4,.2,-.4,.4c0,.2,.2,.4,.4,.4m2.3,0v0c.2,0,.3,-.2,.3,-.4c0,-.2,-.1,-.4,-.3,-.4c-.2,0,-.4,.2,-.4,.4c0,.2,.2,.4,.4,.4m2.3,0v0c.2,0,.3,-.2,.3,-.4c0,-.2,-.1,-.4,-.3,-.4c-.3,0,-.4,.2,-.4,.4c0,.2,.1,.4,.4,.4m2.2,0v0c.3,0,.4,-.2,.4,-.4c0,-.2,-.1,-.4,-.4,-.4c-.2,0,-.3,.2,-.3,.4c0,.2,.1,.4,.3,.4m2.3,0v0c.3,0,.4,-.2,.4,-.4c0,-.2,-.1,-.4,-.4,-.4c-.2,0,-.3,.2,-.3,.4c0,.2,.1,.4,.3,.4m2.3,0v0c.2,0,.4,-.2,.4,-.4c0,-.2,-.2,-.4,-.4,-.4c-.2,0,-.3,.2,-.3,.4c0,.2,.1,.4,.3,.4m2.3,0v0c.2,0,.4,-.2,.4,-.4c0,-.2,-.2,-.4,-.4,-.4c-.2,0,-.4,.2,-.4,.4c0,.2,.2,.4,.4,.4m2.3,0v0c.2,0,.4,-.2,.4,-.4c0,-.2,-.2,-.4,-.4,-.4c-.2,0,-.4,.2,-.4,.4c0,.2,.2,.4,.4,.4m2.3,0v0c.2,0,.4,-.2,.4,-.4c0,-.2,-.2,-.4,-.4,-.4c-.2,0,-.4,.2,-.4,.4c0,.2,.2,.4,.4,.4m2.3,0v0c.2,0,.4,-.2,.4,-.4c0,-.2,-.2,-.4,-.4,-.4c-.2,0,-.4,.2,-.4,.4c0,.2,.2,.4,.4,.4m2.3,0v0c.2,0,.4,-.2,.4,-.4c0,-.2,-.2,-.4,-.4,-.4c-.2,0,-.4,.2,-.4,.4c0,.2,.2,.4,.4,.4m2.3,0v0c.2,0,.4,-.2,.4,-.4c0,-.2,-.2,-.4,-.4,-.4c-.2,0,-.4,.2,-.4,.4c0,.2,.2,.4,.4,.4m2.3,0v0c.2,0,.4,-.2,.4,-.4c0,-.2,-.2,-.4,-.4,-.4c-.2,0,-.4,.2,-.4,.4c0,.2,.2,.4,.4,.4m2.3,0v0c.2,0,.3,-.2,.3,-.4c0,-.2,-.1,-.4,-.3,-.4c-.2,0,-.4,.2,-.4,.4c0,.2,.2,.4,.4,.4m2.3,0v0c.2,0,.3,-.2,.3,-.4c0,-.2,-.1,-.4,-.3,-.4c-.3,0,-.4,.2,-.4,.4c0,.2,.1,.4,.4,.4m2.2,0v0c.3,0,.4,-.2,.4,-.4c0,-.2,-.1,-.4,-.4,-.4c-.2,0,-.3,.2,-.3,.4c0,.2,.1,.4,.3,.4m2.3,0v0c.2,0,.4,-.2,.4,-.4c0,-.2,-.2,-.4,-.4,-.4c-.2,0,-.3,.2,-.3,.4c0,.2,.1,.4,.3,.4m2.3,0v0c.2,0,.4,-.2,.4,-.4c0,-.2,-.2,-.4,-.4,-.4c-.2,0,-.4,.2,-.4,.4c0,.2,.2,.4,.4,.4m2.3,0v0c.2,0,.4,-.2,.4,-.4c0,-.2,-.2,-.4,-.4,-.4c-.2,0,-.4,.2,-.4,.4c0,.2,.2,.4,.4,.4m2.3,0v0c.2,0,.4,-.2,.4,-.4c0,-.2,-.2,-.4,-.4,-.4c-.2,0,-.4,.2,-.4,.4c0,.2,.2,.4,.4,.4Z" class="g5_13"/>
<path d="M600.8,1125.6l.3,-.1l.1,-.3l-.1,-.2l-.3,-.2l-.3,.2l-.1,.2l.1,.3Zm217.7,0l.3,-.1l.1,-.3l-.1,-.2l-.3,-.2l-.3,.2l-.1,.2l.1,.3Z" class="g5_13"/>
<path d="M820.7,1125.6v0c.3,0,.4,-.2,.4,-.4c0,-.2,-.1,-.4,-.4,-.4c-.2,0,-.3,.2,-.3,.4c0,.2,.1,.4,.3,.4m2.3,0v0c.2,0,.4,-.2,.4,-.4c0,-.2,-.2,-.4,-.4,-.4c-.2,0,-.4,.2,-.4,.4c0,.2,.2,.4,.4,.4m2.2,0v0c.2,0,.4,-.2,.4,-.4c0,-.2,-.2,-.4,-.4,-.4c-.2,0,-.3,.2,-.3,.4c0,.2,.1,.4,.3,.4m2.3,0v0c.2,0,.4,-.2,.4,-.4c0,-.2,-.2,-.4,-.4,-.4c-.2,0,-.4,.2,-.4,.4c0,.2,.2,.4,.4,.4m2.2,0v0c.2,0,.4,-.2,.4,-.4c0,-.2,-.2,-.4,-.4,-.4c-.2,0,-.4,.2,-.4,.4c0,.2,.2,.4,.4,.4m2.3,0v0c.2,0,.3,-.2,.3,-.4c0,-.2,-.1,-.4,-.3,-.4c-.3,0,-.4,.2,-.4,.4c0,.2,.1,.4,.4,.4m2.2,0v0c.2,0,.4,-.2,.4,-.4c0,-.2,-.2,-.4,-.4,-.4c-.2,0,-.4,.2,-.4,.4c0,.2,.2,.4,.4,.4m2.2,0v0c.3,0,.4,-.2,.4,-.4c0,-.2,-.1,-.4,-.4,-.4c-.2,0,-.3,.2,-.3,.4c0,.2,.1,.4,.3,.4m2.3,0v0c.2,0,.4,-.2,.4,-.4c0,-.2,-.2,-.4,-.4,-.4c-.2,0,-.4,.2,-.4,.4c0,.2,.2,.4,.4,.4m2.2,0v0c.2,0,.4,-.2,.4,-.4c0,-.2,-.2,-.4,-.4,-.4c-.2,0,-.3,.2,-.3,.4c0,.2,.1,.4,.3,.4m2.3,0v0c.2,0,.4,-.2,.4,-.4c0,-.2,-.2,-.4,-.4,-.4c-.2,0,-.4,.2,-.4,.4c0,.2,.2,.4,.4,.4m2.2,0v0c.2,0,.4,-.2,.4,-.4c0,-.2,-.2,-.4,-.4,-.4c-.2,0,-.4,.2,-.4,.4c0,.2,.2,.4,.4,.4m2.3,0v0c.2,0,.3,-.2,.3,-.4c0,-.2,-.1,-.4,-.3,-.4c-.2,0,-.4,.2,-.4,.4c0,.2,.2,.4,.4,.4m2.2,0v0c.2,0,.4,-.2,.4,-.4c0,-.2,-.2,-.4,-.4,-.4c-.2,0,-.4,.2,-.4,.4c0,.2,.2,.4,.4,.4m2.2,0v0c.3,0,.4,-.2,.4,-.4c0,-.2,-.1,-.4,-.4,-.4c-.2,0,-.3,.2,-.3,.4c0,.2,.1,.4,.3,.4m2.3,0v0c.2,0,.4,-.2,.4,-.4c0,-.2,-.2,-.4,-.4,-.4c-.2,0,-.4,.2,-.4,.4c0,.2,.2,.4,.4,.4m2.2,0v0c.2,0,.4,-.2,.4,-.4c0,-.2,-.2,-.4,-.4,-.4c-.2,0,-.3,.2,-.3,.4c0,.2,.1,.4,.3,.4m2.3,0v0c.2,0,.4,-.2,.4,-.4c0,-.2,-.2,-.4,-.4,-.4c-.2,0,-.4,.2,-.4,.4c0,.2,.2,.4,.4,.4m2.2,0v0c.2,0,.4,-.2,.4,-.4c0,-.2,-.2,-.4,-.4,-.4c-.2,0,-.4,.2,-.4,.4c0,.2,.2,.4,.4,.4m2.3,0v0c.2,0,.3,-.2,.3,-.4c0,-.2,-.1,-.4,-.3,-.4c-.2,0,-.4,.2,-.4,.4c0,.2,.2,.4,.4,.4m2.2,0v0c.2,0,.4,-.2,.4,-.4c0,-.2,-.2,-.4,-.4,-.4c-.2,0,-.4,.2,-.4,.4c0,.2,.2,.4,.4,.4m2.2,0v0c.3,0,.4,-.2,.4,-.4c0,-.2,-.1,-.4,-.4,-.4c-.2,0,-.3,.2,-.3,.4c0,.2,.1,.4,.3,.4Z" class="g5_13"/>
<path d="M818.5,1125.6l.3,-.1l.1,-.3l-.1,-.2l-.3,-.2l-.3,.2l-.1,.2l.1,.3Zm51.6,0l.3,-.1l.1,-.3l-.1,-.2l-.3,-.2l-.3,.2l-.1,.2l.1,.3Z" class="g5_13"/>
<path d="M603.1,1164.6v0c.2,0,.4,-.2,.4,-.4c0,-.2,-.2,-.4,-.4,-.4c-.2,0,-.4,.2,-.4,.4c0,.2,.2,.4,.4,.4m2.3,0v0c.2,0,.4,-.2,.4,-.4c0,-.2,-.2,-.4,-.4,-.4c-.2,0,-.4,.2,-.4,.4c0,.2,.2,.4,.4,.4m2.3,0v0c.2,0,.4,-.2,.4,-.4c0,-.2,-.2,-.4,-.4,-.4c-.2,0,-.4,.2,-.4,.4c0,.2,.2,.4,.4,.4m2.3,0v0c.2,0,.4,-.2,.4,-.4c0,-.2,-.2,-.4,-.4,-.4c-.2,0,-.4,.2,-.4,.4c0,.2,.2,.4,.4,.4m2.3,0v0c.2,0,.4,-.2,.4,-.4c0,-.2,-.2,-.4,-.4,-.4c-.2,0,-.4,.2,-.4,.4c0,.2,.2,.4,.4,.4m2.3,0v0c.2,0,.3,-.2,.3,-.4c0,-.2,-.1,-.4,-.3,-.4c-.2,0,-.4,.2,-.4,.4c0,.2,.2,.4,.4,.4m2.3,0v0c.2,0,.3,-.2,.3,-.4c0,-.2,-.1,-.4,-.3,-.4c-.3,0,-.4,.2,-.4,.4c0,.2,.1,.4,.4,.4m2.3,0v0c.2,0,.3,-.2,.3,-.4c0,-.2,-.1,-.4,-.3,-.4c-.3,0,-.4,.2,-.4,.4c0,.2,.1,.4,.4,.4m2.2,0v0c.3,0,.4,-.2,.4,-.4c0,-.2,-.1,-.4,-.4,-.4c-.2,0,-.3,.2,-.3,.4c0,.2,.1,.4,.3,.4m2.3,0v0c.2,0,.4,-.2,.4,-.4c0,-.2,-.2,-.4,-.4,-.4c-.2,0,-.3,.2,-.3,.4c0,.2,.1,.4,.3,.4m2.3,0v0c.2,0,.4,-.2,.4,-.4c0,-.2,-.2,-.4,-.4,-.4c-.2,0,-.4,.2,-.4,.4c0,.2,.2,.4,.4,.4m2.3,0v0c.2,0,.4,-.2,.4,-.4c0,-.2,-.2,-.4,-.4,-.4c-.2,0,-.4,.2,-.4,.4c0,.2,.2,.4,.4,.4m2.3,0v0c.2,0,.4,-.2,.4,-.4c0,-.2,-.2,-.4,-.4,-.4c-.2,0,-.4,.2,-.4,.4c0,.2,.2,.4,.4,.4m2.3,0v0c.2,0,.4,-.2,.4,-.4c0,-.2,-.2,-.4,-.4,-.4c-.2,0,-.4,.2,-.4,.4c0,.2,.2,.4,.4,.4m2.3,0v0c.2,0,.4,-.2,.4,-.4c0,-.2,-.2,-.4,-.4,-.4c-.2,0,-.4,.2,-.4,.4c0,.2,.2,.4,.4,.4m2.3,0v0c.2,0,.4,-.2,.4,-.4c0,-.2,-.2,-.4,-.4,-.4c-.2,0,-.4,.2,-.4,.4c0,.2,.2,.4,.4,.4m2.3,0v0c.2,0,.4,-.2,.4,-.4c0,-.2,-.2,-.4,-.4,-.4c-.2,0,-.4,.2,-.4,.4c0,.2,.2,.4,.4,.4m2.3,0v0c.2,0,.3,-.2,.3,-.4c0,-.2,-.1,-.4,-.3,-.4c-.2,0,-.4,.2,-.4,.4c0,.2,.2,.4,.4,.4m2.3,0v0c.2,0,.3,-.2,.3,-.4c0,-.2,-.1,-.4,-.3,-.4c-.3,0,-.4,.2,-.4,.4c0,.2,.1,.4,.4,.4m2.2,0v0c.3,0,.4,-.2,.4,-.4c0,-.2,-.1,-.4,-.4,-.4c-.2,0,-.3,.2,-.3,.4c0,.2,.1,.4,.3,.4m2.3,0v0c.3,0,.4,-.2,.4,-.4c0,-.2,-.1,-.4,-.4,-.4c-.2,0,-.3,.2,-.3,.4c0,.2,.1,.4,.3,.4m2.3,0v0c.2,0,.4,-.2,.4,-.4c0,-.2,-.2,-.4,-.4,-.4c-.2,0,-.4,.2,-.4,.4c0,.2,.2,.4,.4,.4m2.3,0v0c.2,0,.4,-.2,.4,-.4c0,-.2,-.2,-.4,-.4,-.4c-.2,0,-.4,.2,-.4,.4c0,.2,.2,.4,.4,.4m2.3,0v0c.2,0,.4,-.2,.4,-.4c0,-.2,-.2,-.4,-.4,-.4c-.2,0,-.4,.2,-.4,.4c0,.2,.2,.4,.4,.4m2.3,0v0c.2,0,.4,-.2,.4,-.4c0,-.2,-.2,-.4,-.4,-.4c-.2,0,-.4,.2,-.4,.4c0,.2,.2,.4,.4,.4m2.3,0v0c.2,0,.4,-.2,.4,-.4c0,-.2,-.2,-.4,-.4,-.4c-.2,0,-.4,.2,-.4,.4c0,.2,.2,.4,.4,.4m2.3,0v0c.2,0,.4,-.2,.4,-.4c0,-.2,-.2,-.4,-.4,-.4c-.2,0,-.4,.2,-.4,.4c0,.2,.2,.4,.4,.4m2.3,0v0c.2,0,.4,-.2,.4,-.4c0,-.2,-.2,-.4,-.4,-.4c-.2,0,-.4,.2,-.4,.4c0,.2,.2,.4,.4,.4m2.3,0v0c.2,0,.4,-.2,.4,-.4c0,-.2,-.2,-.4,-.4,-.4c-.2,0,-.4,.2,-.4,.4c0,.2,.2,.4,.4,.4m2.3,0v0c.2,0,.3,-.2,.3,-.4c0,-.2,-.1,-.4,-.3,-.4c-.2,0,-.4,.2,-.4,.4c0,.2,.2,.4,.4,.4m2.3,0v0c.2,0,.3,-.2,.3,-.4c0,-.2,-.1,-.4,-.3,-.4c-.3,0,-.4,.2,-.4,.4c0,.2,.1,.4,.4,.4m2.2,0v0c.3,0,.4,-.2,.4,-.4c0,-.2,-.1,-.4,-.4,-.4c-.2,0,-.3,.2,-.3,.4c0,.2,.1,.4,.3,.4m2.3,0v0c.2,0,.4,-.2,.4,-.4c0,-.2,-.2,-.4,-.4,-.4c-.2,0,-.3,.2,-.3,.4c0,.2,.1,.4,.3,.4m2.3,0v0c.2,0,.4,-.2,.4,-.4c0,-.2,-.2,-.4,-.4,-.4c-.2,0,-.4,.2,-.4,.4c0,.2,.2,.4,.4,.4m2.3,0v0c.2,0,.4,-.2,.4,-.4c0,-.2,-.2,-.4,-.4,-.4c-.2,0,-.4,.2,-.4,.4c0,.2,.2,.4,.4,.4m2.3,0v0c.2,0,.4,-.2,.4,-.4c0,-.2,-.2,-.4,-.4,-.4c-.2,0,-.4,.2,-.4,.4c0,.2,.2,.4,.4,.4m2.3,0v0c.2,0,.4,-.2,.4,-.4c0,-.2,-.2,-.4,-.4,-.4c-.2,0,-.4,.2,-.4,.4c0,.2,.2,.4,.4,.4m2.3,0v0c.2,0,.4,-.2,.4,-.4c0,-.2,-.2,-.4,-.4,-.4c-.2,0,-.4,.2,-.4,.4c0,.2,.2,.4,.4,.4m2.3,0v0c.2,0,.4,-.2,.4,-.4c0,-.2,-.2,-.4,-.4,-.4c-.2,0,-.4,.2,-.4,.4c0,.2,.2,.4,.4,.4m2.3,0v0c.2,0,.4,-.2,.4,-.4c0,-.2,-.2,-.4,-.4,-.4c-.2,0,-.4,.2,-.4,.4c0,.2,.2,.4,.4,.4m2.3,0v0c.2,0,.3,-.2,.3,-.4c0,-.2,-.1,-.4,-.3,-.4c-.2,0,-.4,.2,-.4,.4c0,.2,.2,.4,.4,.4m2.3,0v0c.2,0,.3,-.2,.3,-.4c0,-.2,-.1,-.4,-.3,-.4c-.3,0,-.4,.2,-.4,.4c0,.2,.1,.4,.4,.4m2.3,0v0c.2,0,.3,-.2,.3,-.4c0,-.2,-.1,-.4,-.3,-.4c-.3,0,-.4,.2,-.4,.4c0,.2,.1,.4,.4,.4m2.2,0v0c.3,0,.4,-.2,.4,-.4c0,-.2,-.1,-.4,-.4,-.4c-.2,0,-.3,.2,-.3,.4c0,.2,.1,.4,.3,.4m2.3,0v0c.2,0,.4,-.2,.4,-.4c0,-.2,-.2,-.4,-.4,-.4c-.2,0,-.3,.2,-.3,.4c0,.2,.1,.4,.3,.4m2.3,0v0c.2,0,.4,-.2,.4,-.4c0,-.2,-.2,-.4,-.4,-.4c-.2,0,-.4,.2,-.4,.4c0,.2,.2,.4,.4,.4m2.3,0v0c.2,0,.4,-.2,.4,-.4c0,-.2,-.2,-.4,-.4,-.4c-.2,0,-.4,.2,-.4,.4c0,.2,.2,.4,.4,.4m2.3,0v0c.2,0,.4,-.2,.4,-.4c0,-.2,-.2,-.4,-.4,-.4c-.2,0,-.4,.2,-.4,.4c0,.2,.2,.4,.4,.4m2.3,0v0c.2,0,.4,-.2,.4,-.4c0,-.2,-.2,-.4,-.4,-.4c-.2,0,-.4,.2,-.4,.4c0,.2,.2,.4,.4,.4m2.3,0v0c.2,0,.4,-.2,.4,-.4c0,-.2,-.2,-.4,-.4,-.4c-.2,0,-.4,.2,-.4,.4c0,.2,.2,.4,.4,.4m2.3,0v0c.2,0,.4,-.2,.4,-.4c0,-.2,-.2,-.4,-.4,-.4c-.2,0,-.4,.2,-.4,.4c0,.2,.2,.4,.4,.4m2.3,0v0c.2,0,.4,-.2,.4,-.4c0,-.2,-.2,-.4,-.4,-.4c-.2,0,-.4,.2,-.4,.4c0,.2,.2,.4,.4,.4m2.3,0v0c.2,0,.3,-.2,.3,-.4c0,-.2,-.1,-.4,-.3,-.4c-.2,0,-.4,.2,-.4,.4c0,.2,.2,.4,.4,.4m2.3,0v0c.2,0,.3,-.2,.3,-.4c0,-.2,-.1,-.4,-.3,-.4c-.3,0,-.4,.2,-.4,.4c0,.2,.1,.4,.4,.4m2.2,0v0c.3,0,.4,-.2,.4,-.4c0,-.2,-.1,-.4,-.4,-.4c-.2,0,-.3,.2,-.3,.4c0,.2,.1,.4,.3,.4m2.3,0v0c.2,0,.4,-.2,.4,-.4c0,-.2,-.2,-.4,-.4,-.4c-.2,0,-.3,.2,-.3,.4c0,.2,.1,.4,.3,.4m2.3,0v0c.2,0,.4,-.2,.4,-.4c0,-.2,-.2,-.4,-.4,-.4c-.2,0,-.4,.2,-.4,.4c0,.2,.2,.4,.4,.4m2.3,0v0c.2,0,.4,-.2,.4,-.4c0,-.2,-.2,-.4,-.4,-.4c-.2,0,-.4,.2,-.4,.4c0,.2,.2,.4,.4,.4m2.3,0v0c.2,0,.4,-.2,.4,-.4c0,-.2,-.2,-.4,-.4,-.4c-.2,0,-.4,.2,-.4,.4c0,.2,.2,.4,.4,.4m2.3,0v0c.2,0,.4,-.2,.4,-.4c0,-.2,-.2,-.4,-.4,-.4c-.2,0,-.4,.2,-.4,.4c0,.2,.2,.4,.4,.4m2.3,0v0c.2,0,.4,-.2,.4,-.4c0,-.2,-.2,-.4,-.4,-.4c-.2,0,-.4,.2,-.4,.4c0,.2,.2,.4,.4,.4m2.3,0v0c.2,0,.4,-.2,.4,-.4c0,-.2,-.2,-.4,-.4,-.4c-.2,0,-.4,.2,-.4,.4c0,.2,.2,.4,.4,.4m2.3,0v0c.2,0,.4,-.2,.4,-.4c0,-.2,-.2,-.4,-.4,-.4c-.2,0,-.4,.2,-.4,.4c0,.2,.2,.4,.4,.4m2.3,0v0c.2,0,.4,-.2,.4,-.4c0,-.2,-.2,-.4,-.4,-.4c-.2,0,-.4,.2,-.4,.4c0,.2,.2,.4,.4,.4m2.3,0v0c.2,0,.3,-.2,.3,-.4c0,-.2,-.1,-.4,-.3,-.4c-.3,0,-.4,.2,-.4,.4c0,.2,.1,.4,.4,.4m2.3,0v0c.2,0,.3,-.2,.3,-.4c0,-.2,-.1,-.4,-.3,-.4c-.3,0,-.4,.2,-.4,.4c0,.2,.1,.4,.4,.4m2.2,0v0c.3,0,.4,-.2,.4,-.4c0,-.2,-.1,-.4,-.4,-.4c-.2,0,-.3,.2,-.3,.4c0,.2,.1,.4,.3,.4m2.3,0v0c.2,0,.4,-.2,.4,-.4c0,-.2,-.2,-.4,-.4,-.4c-.2,0,-.3,.2,-.3,.4c0,.2,.1,.4,.3,.4m2.3,0v0c.2,0,.4,-.2,.4,-.4c0,-.2,-.2,-.4,-.4,-.4c-.2,0,-.4,.2,-.4,.4c0,.2,.2,.4,.4,.4m2.3,0v0c.2,0,.4,-.2,.4,-.4c0,-.2,-.2,-.4,-.4,-.4c-.2,0,-.4,.2,-.4,.4c0,.2,.2,.4,.4,.4m2.3,0v0c.2,0,.4,-.2,.4,-.4c0,-.2,-.2,-.4,-.4,-.4c-.2,0,-.4,.2,-.4,.4c0,.2,.2,.4,.4,.4m2.3,0v0c.2,0,.4,-.2,.4,-.4c0,-.2,-.2,-.4,-.4,-.4c-.2,0,-.4,.2,-.4,.4c0,.2,.2,.4,.4,.4m2.3,0v0c.2,0,.4,-.2,.4,-.4c0,-.2,-.2,-.4,-.4,-.4c-.2,0,-.4,.2,-.4,.4c0,.2,.2,.4,.4,.4m2.3,0v0c.2,0,.4,-.2,.4,-.4c0,-.2,-.2,-.4,-.4,-.4c-.2,0,-.4,.2,-.4,.4c0,.2,.2,.4,.4,.4m2.3,0v0c.2,0,.4,-.2,.4,-.4c0,-.2,-.2,-.4,-.4,-.4c-.2,0,-.4,.2,-.4,.4c0,.2,.2,.4,.4,.4m2.3,0v0c.2,0,.3,-.2,.3,-.4c0,-.2,-.1,-.4,-.3,-.4c-.2,0,-.4,.2,-.4,.4c0,.2,.2,.4,.4,.4m2.3,0v0c.2,0,.3,-.2,.3,-.4c0,-.2,-.1,-.4,-.3,-.4c-.3,0,-.4,.2,-.4,.4c0,.2,.1,.4,.4,.4m2.2,0v0c.3,0,.4,-.2,.4,-.4c0,-.2,-.1,-.4,-.4,-.4c-.2,0,-.3,.2,-.3,.4c0,.2,.1,.4,.3,.4m2.3,0v0c.3,0,.4,-.2,.4,-.4c0,-.2,-.1,-.4,-.4,-.4c-.2,0,-.3,.2,-.3,.4c0,.2,.1,.4,.3,.4m2.3,0v0c.2,0,.4,-.2,.4,-.4c0,-.2,-.2,-.4,-.4,-.4c-.2,0,-.3,.2,-.3,.4c0,.2,.1,.4,.3,.4m2.3,0v0c.2,0,.4,-.2,.4,-.4c0,-.2,-.2,-.4,-.4,-.4c-.2,0,-.4,.2,-.4,.4c0,.2,.2,.4,.4,.4m2.3,0v0c.2,0,.4,-.2,.4,-.4c0,-.2,-.2,-.4,-.4,-.4c-.2,0,-.4,.2,-.4,.4c0,.2,.2,.4,.4,.4m2.3,0v0c.2,0,.4,-.2,.4,-.4c0,-.2,-.2,-.4,-.4,-.4c-.2,0,-.4,.2,-.4,.4c0,.2,.2,.4,.4,.4m2.3,0v0c.2,0,.4,-.2,.4,-.4c0,-.2,-.2,-.4,-.4,-.4c-.2,0,-.4,.2,-.4,.4c0,.2,.2,.4,.4,.4m2.3,0v0c.2,0,.4,-.2,.4,-.4c0,-.2,-.2,-.4,-.4,-.4c-.2,0,-.4,.2,-.4,.4c0,.2,.2,.4,.4,.4m2.3,0v0c.2,0,.4,-.2,.4,-.4c0,-.2,-.2,-.4,-.4,-.4c-.2,0,-.4,.2,-.4,.4c0,.2,.2,.4,.4,.4m2.3,0v0c.2,0,.4,-.2,.4,-.4c0,-.2,-.2,-.4,-.4,-.4c-.2,0,-.4,.2,-.4,.4c0,.2,.2,.4,.4,.4m2.3,0v0c.2,0,.3,-.2,.3,-.4c0,-.2,-.1,-.4,-.3,-.4c-.2,0,-.4,.2,-.4,.4c0,.2,.2,.4,.4,.4m2.3,0v0c.2,0,.3,-.2,.3,-.4c0,-.2,-.1,-.4,-.3,-.4c-.3,0,-.4,.2,-.4,.4c0,.2,.1,.4,.4,.4m2.2,0v0c.3,0,.4,-.2,.4,-.4c0,-.2,-.1,-.4,-.4,-.4c-.2,0,-.3,.2,-.3,.4c0,.2,.1,.4,.3,.4m2.3,0v0c.2,0,.4,-.2,.4,-.4c0,-.2,-.2,-.4,-.4,-.4c-.2,0,-.3,.2,-.3,.4c0,.2,.1,.4,.3,.4m2.3,0v0c.2,0,.4,-.2,.4,-.4c0,-.2,-.2,-.4,-.4,-.4c-.2,0,-.4,.2,-.4,.4c0,.2,.2,.4,.4,.4m2.3,0v0c.2,0,.4,-.2,.4,-.4c0,-.2,-.2,-.4,-.4,-.4c-.2,0,-.4,.2,-.4,.4c0,.2,.2,.4,.4,.4m2.3,0v0c.2,0,.4,-.2,.4,-.4c0,-.2,-.2,-.4,-.4,-.4c-.2,0,-.4,.2,-.4,.4c0,.2,.2,.4,.4,.4Z" class="g5_13"/>
<path d="M600.8,1164.6l.3,-.1l.1,-.3l-.1,-.3l-.3,-.1l-.3,.1l-.1,.3l.1,.3Zm217.7,0l.3,-.1l.1,-.3l-.1,-.3l-.3,-.1l-.3,.1l-.1,.3l.1,.3Z" class="g5_13"/>
<path d="M820.7,1164.6v0c.3,0,.4,-.2,.4,-.4c0,-.2,-.1,-.4,-.4,-.4c-.2,0,-.3,.2,-.3,.4c0,.2,.1,.4,.3,.4m2.3,0v0c.2,0,.4,-.2,.4,-.4c0,-.2,-.2,-.4,-.4,-.4c-.2,0,-.4,.2,-.4,.4c0,.2,.2,.4,.4,.4m2.2,0v0c.2,0,.4,-.2,.4,-.4c0,-.2,-.2,-.4,-.4,-.4c-.2,0,-.3,.2,-.3,.4c0,.2,.1,.4,.3,.4m2.3,0v0c.2,0,.4,-.2,.4,-.4c0,-.2,-.2,-.4,-.4,-.4c-.2,0,-.4,.2,-.4,.4c0,.2,.2,.4,.4,.4m2.2,0v0c.2,0,.4,-.2,.4,-.4c0,-.2,-.2,-.4,-.4,-.4c-.2,0,-.4,.2,-.4,.4c0,.2,.2,.4,.4,.4m2.3,0v0c.2,0,.3,-.2,.3,-.4c0,-.2,-.1,-.4,-.3,-.4c-.3,0,-.4,.2,-.4,.4c0,.2,.1,.4,.4,.4m2.2,0v0c.2,0,.4,-.2,.4,-.4c0,-.2,-.2,-.4,-.4,-.4c-.2,0,-.4,.2,-.4,.4c0,.2,.2,.4,.4,.4m2.2,0v0c.3,0,.4,-.2,.4,-.4c0,-.2,-.1,-.4,-.4,-.4c-.2,0,-.3,.2,-.3,.4c0,.2,.1,.4,.3,.4m2.3,0v0c.2,0,.4,-.2,.4,-.4c0,-.2,-.2,-.4,-.4,-.4c-.2,0,-.4,.2,-.4,.4c0,.2,.2,.4,.4,.4m2.2,0v0c.2,0,.4,-.2,.4,-.4c0,-.2,-.2,-.4,-.4,-.4c-.2,0,-.3,.2,-.3,.4c0,.2,.1,.4,.3,.4m2.3,0v0c.2,0,.4,-.2,.4,-.4c0,-.2,-.2,-.4,-.4,-.4c-.2,0,-.4,.2,-.4,.4c0,.2,.2,.4,.4,.4m2.2,0v0c.2,0,.4,-.2,.4,-.4c0,-.2,-.2,-.4,-.4,-.4c-.2,0,-.4,.2,-.4,.4c0,.2,.2,.4,.4,.4m2.3,0v0c.2,0,.3,-.2,.3,-.4c0,-.2,-.1,-.4,-.3,-.4c-.2,0,-.4,.2,-.4,.4c0,.2,.2,.4,.4,.4m2.2,0v0c.2,0,.4,-.2,.4,-.4c0,-.2,-.2,-.4,-.4,-.4c-.2,0,-.4,.2,-.4,.4c0,.2,.2,.4,.4,.4m2.2,0v0c.3,0,.4,-.2,.4,-.4c0,-.2,-.1,-.4,-.4,-.4c-.2,0,-.3,.2,-.3,.4c0,.2,.1,.4,.3,.4m2.3,0v0c.2,0,.4,-.2,.4,-.4c0,-.2,-.2,-.4,-.4,-.4c-.2,0,-.4,.2,-.4,.4c0,.2,.2,.4,.4,.4m2.2,0v0c.2,0,.4,-.2,.4,-.4c0,-.2,-.2,-.4,-.4,-.4c-.2,0,-.3,.2,-.3,.4c0,.2,.1,.4,.3,.4m2.3,0v0c.2,0,.4,-.2,.4,-.4c0,-.2,-.2,-.4,-.4,-.4c-.2,0,-.4,.2,-.4,.4c0,.2,.2,.4,.4,.4m2.2,0v0c.2,0,.4,-.2,.4,-.4c0,-.2,-.2,-.4,-.4,-.4c-.2,0,-.4,.2,-.4,.4c0,.2,.2,.4,.4,.4m2.3,0v0c.2,0,.3,-.2,.3,-.4c0,-.2,-.1,-.4,-.3,-.4c-.2,0,-.4,.2,-.4,.4c0,.2,.2,.4,.4,.4m2.2,0v0c.2,0,.4,-.2,.4,-.4c0,-.2,-.2,-.4,-.4,-.4c-.2,0,-.4,.2,-.4,.4c0,.2,.2,.4,.4,.4m2.2,0v0c.3,0,.4,-.2,.4,-.4c0,-.2,-.1,-.4,-.4,-.4c-.2,0,-.3,.2,-.3,.4c0,.2,.1,.4,.3,.4Z" class="g5_13"/>
<path d="M818.5,1164.6l.3,-.1l.1,-.3l-.1,-.3l-.3,-.1l-.3,.1l-.1,.3l.1,.3Zm51.6,0l.3,-.1l.1,-.3l-.1,-.3l-.3,-.1l-.3,.1l-.1,.3l.1,.3Z" class="g5_13"/>
<path d="M603.1,1203.6v0c.2,0,.4,-.2,.4,-.4c0,-.2,-.2,-.4,-.4,-.4c-.2,0,-.4,.2,-.4,.4c0,.2,.2,.4,.4,.4m2.3,0v0c.2,0,.4,-.2,.4,-.4c0,-.2,-.2,-.4,-.4,-.4c-.2,0,-.4,.2,-.4,.4c0,.2,.2,.4,.4,.4m2.3,0v0c.2,0,.4,-.2,.4,-.4c0,-.2,-.2,-.4,-.4,-.4c-.2,0,-.4,.2,-.4,.4c0,.2,.2,.4,.4,.4m2.3,0v0c.2,0,.4,-.2,.4,-.4c0,-.2,-.2,-.4,-.4,-.4c-.2,0,-.4,.2,-.4,.4c0,.2,.2,.4,.4,.4m2.3,0v0c.2,0,.4,-.2,.4,-.4c0,-.2,-.2,-.4,-.4,-.4c-.2,0,-.4,.2,-.4,.4c0,.2,.2,.4,.4,.4m2.3,0v0c.2,0,.3,-.2,.3,-.4c0,-.2,-.1,-.4,-.3,-.4c-.2,0,-.4,.2,-.4,.4c0,.2,.2,.4,.4,.4m2.3,0v0c.2,0,.3,-.2,.3,-.4c0,-.2,-.1,-.4,-.3,-.4c-.3,0,-.4,.2,-.4,.4c0,.2,.1,.4,.4,.4m2.3,0v0c.2,0,.3,-.2,.3,-.4c0,-.2,-.1,-.4,-.3,-.4c-.3,0,-.4,.2,-.4,.4c0,.2,.1,.4,.4,.4m2.2,0v0c.3,0,.4,-.2,.4,-.4c0,-.2,-.1,-.4,-.4,-.4c-.2,0,-.3,.2,-.3,.4c0,.2,.1,.4,.3,.4m2.3,0v0c.2,0,.4,-.2,.4,-.4c0,-.2,-.2,-.4,-.4,-.4c-.2,0,-.3,.2,-.3,.4c0,.2,.1,.4,.3,.4m2.3,0v0c.2,0,.4,-.2,.4,-.4c0,-.2,-.2,-.4,-.4,-.4c-.2,0,-.4,.2,-.4,.4c0,.2,.2,.4,.4,.4m2.3,0v0c.2,0,.4,-.2,.4,-.4c0,-.2,-.2,-.4,-.4,-.4c-.2,0,-.4,.2,-.4,.4c0,.2,.2,.4,.4,.4m2.3,0v0c.2,0,.4,-.2,.4,-.4c0,-.2,-.2,-.4,-.4,-.4c-.2,0,-.4,.2,-.4,.4c0,.2,.2,.4,.4,.4m2.3,0v0c.2,0,.4,-.2,.4,-.4c0,-.2,-.2,-.4,-.4,-.4c-.2,0,-.4,.2,-.4,.4c0,.2,.2,.4,.4,.4m2.3,0v0c.2,0,.4,-.2,.4,-.4c0,-.2,-.2,-.4,-.4,-.4c-.2,0,-.4,.2,-.4,.4c0,.2,.2,.4,.4,.4m2.3,0v0c.2,0,.4,-.2,.4,-.4c0,-.2,-.2,-.4,-.4,-.4c-.2,0,-.4,.2,-.4,.4c0,.2,.2,.4,.4,.4m2.3,0v0c.2,0,.4,-.2,.4,-.4c0,-.2,-.2,-.4,-.4,-.4c-.2,0,-.4,.2,-.4,.4c0,.2,.2,.4,.4,.4m2.3,0v0c.2,0,.3,-.2,.3,-.4c0,-.2,-.1,-.4,-.3,-.4c-.2,0,-.4,.2,-.4,.4c0,.2,.2,.4,.4,.4m2.3,0v0c.2,0,.3,-.2,.3,-.4c0,-.2,-.1,-.4,-.3,-.4c-.3,0,-.4,.2,-.4,.4c0,.2,.1,.4,.4,.4m2.2,0v0c.3,0,.4,-.2,.4,-.4c0,-.2,-.1,-.4,-.4,-.4c-.2,0,-.3,.2,-.3,.4c0,.2,.1,.4,.3,.4m2.3,0v0c.3,0,.4,-.2,.4,-.4c0,-.2,-.1,-.4,-.4,-.4c-.2,0,-.3,.2,-.3,.4c0,.2,.1,.4,.3,.4m2.3,0v0c.2,0,.4,-.2,.4,-.4c0,-.2,-.2,-.4,-.4,-.4c-.2,0,-.4,.2,-.4,.4c0,.2,.2,.4,.4,.4m2.3,0v0c.2,0,.4,-.2,.4,-.4c0,-.2,-.2,-.4,-.4,-.4c-.2,0,-.4,.2,-.4,.4c0,.2,.2,.4,.4,.4m2.3,0v0c.2,0,.4,-.2,.4,-.4c0,-.2,-.2,-.4,-.4,-.4c-.2,0,-.4,.2,-.4,.4c0,.2,.2,.4,.4,.4m2.3,0v0c.2,0,.4,-.2,.4,-.4c0,-.2,-.2,-.4,-.4,-.4c-.2,0,-.4,.2,-.4,.4c0,.2,.2,.4,.4,.4m2.3,0v0c.2,0,.4,-.2,.4,-.4c0,-.2,-.2,-.4,-.4,-.4c-.2,0,-.4,.2,-.4,.4c0,.2,.2,.4,.4,.4m2.3,0v0c.2,0,.4,-.2,.4,-.4c0,-.2,-.2,-.4,-.4,-.4c-.2,0,-.4,.2,-.4,.4c0,.2,.2,.4,.4,.4m2.3,0v0c.2,0,.4,-.2,.4,-.4c0,-.2,-.2,-.4,-.4,-.4c-.2,0,-.4,.2,-.4,.4c0,.2,.2,.4,.4,.4m2.3,0v0c.2,0,.4,-.2,.4,-.4c0,-.2,-.2,-.4,-.4,-.4c-.2,0,-.4,.2,-.4,.4c0,.2,.2,.4,.4,.4m2.3,0v0c.2,0,.3,-.2,.3,-.4c0,-.2,-.1,-.4,-.3,-.4c-.2,0,-.4,.2,-.4,.4c0,.2,.2,.4,.4,.4m2.3,0v0c.2,0,.3,-.2,.3,-.4c0,-.2,-.1,-.4,-.3,-.4c-.3,0,-.4,.2,-.4,.4c0,.2,.1,.4,.4,.4m2.2,0v0c.3,0,.4,-.2,.4,-.4c0,-.2,-.1,-.4,-.4,-.4c-.2,0,-.3,.2,-.3,.4c0,.2,.1,.4,.3,.4m2.3,0v0c.2,0,.4,-.2,.4,-.4c0,-.2,-.2,-.4,-.4,-.4c-.2,0,-.3,.2,-.3,.4c0,.2,.1,.4,.3,.4m2.3,0v0c.2,0,.4,-.2,.4,-.4c0,-.2,-.2,-.4,-.4,-.4c-.2,0,-.4,.2,-.4,.4c0,.2,.2,.4,.4,.4m2.3,0v0c.2,0,.4,-.2,.4,-.4c0,-.2,-.2,-.4,-.4,-.4c-.2,0,-.4,.2,-.4,.4c0,.2,.2,.4,.4,.4m2.3,0v0c.2,0,.4,-.2,.4,-.4c0,-.2,-.2,-.4,-.4,-.4c-.2,0,-.4,.2,-.4,.4c0,.2,.2,.4,.4,.4m2.3,0v0c.2,0,.4,-.2,.4,-.4c0,-.2,-.2,-.4,-.4,-.4c-.2,0,-.4,.2,-.4,.4c0,.2,.2,.4,.4,.4m2.3,0v0c.2,0,.4,-.2,.4,-.4c0,-.2,-.2,-.4,-.4,-.4c-.2,0,-.4,.2,-.4,.4c0,.2,.2,.4,.4,.4m2.3,0v0c.2,0,.4,-.2,.4,-.4c0,-.2,-.2,-.4,-.4,-.4c-.2,0,-.4,.2,-.4,.4c0,.2,.2,.4,.4,.4m2.3,0v0c.2,0,.4,-.2,.4,-.4c0,-.2,-.2,-.4,-.4,-.4c-.2,0,-.4,.2,-.4,.4c0,.2,.2,.4,.4,.4m2.3,0v0c.2,0,.3,-.2,.3,-.4c0,-.2,-.1,-.4,-.3,-.4c-.2,0,-.4,.2,-.4,.4c0,.2,.2,.4,.4,.4m2.3,0v0c.2,0,.3,-.2,.3,-.4c0,-.2,-.1,-.4,-.3,-.4c-.3,0,-.4,.2,-.4,.4c0,.2,.1,.4,.4,.4m2.3,0v0c.2,0,.3,-.2,.3,-.4c0,-.2,-.1,-.4,-.3,-.4c-.3,0,-.4,.2,-.4,.4c0,.2,.1,.4,.4,.4m2.2,0v0c.3,0,.4,-.2,.4,-.4c0,-.2,-.1,-.4,-.4,-.4c-.2,0,-.3,.2,-.3,.4c0,.2,.1,.4,.3,.4m2.3,0v0c.2,0,.4,-.2,.4,-.4c0,-.2,-.2,-.4,-.4,-.4c-.2,0,-.3,.2,-.3,.4c0,.2,.1,.4,.3,.4m2.3,0v0c.2,0,.4,-.2,.4,-.4c0,-.2,-.2,-.4,-.4,-.4c-.2,0,-.4,.2,-.4,.4c0,.2,.2,.4,.4,.4m2.3,0v0c.2,0,.4,-.2,.4,-.4c0,-.2,-.2,-.4,-.4,-.4c-.2,0,-.4,.2,-.4,.4c0,.2,.2,.4,.4,.4m2.3,0v0c.2,0,.4,-.2,.4,-.4c0,-.2,-.2,-.4,-.4,-.4c-.2,0,-.4,.2,-.4,.4c0,.2,.2,.4,.4,.4m2.3,0v0c.2,0,.4,-.2,.4,-.4c0,-.2,-.2,-.4,-.4,-.4c-.2,0,-.4,.2,-.4,.4c0,.2,.2,.4,.4,.4m2.3,0v0c.2,0,.4,-.2,.4,-.4c0,-.2,-.2,-.4,-.4,-.4c-.2,0,-.4,.2,-.4,.4c0,.2,.2,.4,.4,.4m2.3,0v0c.2,0,.4,-.2,.4,-.4c0,-.2,-.2,-.4,-.4,-.4c-.2,0,-.4,.2,-.4,.4c0,.2,.2,.4,.4,.4m2.3,0v0c.2,0,.4,-.2,.4,-.4c0,-.2,-.2,-.4,-.4,-.4c-.2,0,-.4,.2,-.4,.4c0,.2,.2,.4,.4,.4m2.3,0v0c.2,0,.3,-.2,.3,-.4c0,-.2,-.1,-.4,-.3,-.4c-.2,0,-.4,.2,-.4,.4c0,.2,.2,.4,.4,.4m2.3,0v0c.2,0,.3,-.2,.3,-.4c0,-.2,-.1,-.4,-.3,-.4c-.3,0,-.4,.2,-.4,.4c0,.2,.1,.4,.4,.4m2.2,0v0c.3,0,.4,-.2,.4,-.4c0,-.2,-.1,-.4,-.4,-.4c-.2,0,-.3,.2,-.3,.4c0,.2,.1,.4,.3,.4m2.3,0v0c.2,0,.4,-.2,.4,-.4c0,-.2,-.2,-.4,-.4,-.4c-.2,0,-.3,.2,-.3,.4c0,.2,.1,.4,.3,.4m2.3,0v0c.2,0,.4,-.2,.4,-.4c0,-.2,-.2,-.4,-.4,-.4c-.2,0,-.4,.2,-.4,.4c0,.2,.2,.4,.4,.4m2.3,0v0c.2,0,.4,-.2,.4,-.4c0,-.2,-.2,-.4,-.4,-.4c-.2,0,-.4,.2,-.4,.4c0,.2,.2,.4,.4,.4m2.3,0v0c.2,0,.4,-.2,.4,-.4c0,-.2,-.2,-.4,-.4,-.4c-.2,0,-.4,.2,-.4,.4c0,.2,.2,.4,.4,.4m2.3,0v0c.2,0,.4,-.2,.4,-.4c0,-.2,-.2,-.4,-.4,-.4c-.2,0,-.4,.2,-.4,.4c0,.2,.2,.4,.4,.4m2.3,0v0c.2,0,.4,-.2,.4,-.4c0,-.2,-.2,-.4,-.4,-.4c-.2,0,-.4,.2,-.4,.4c0,.2,.2,.4,.4,.4m2.3,0v0c.2,0,.4,-.2,.4,-.4c0,-.2,-.2,-.4,-.4,-.4c-.2,0,-.4,.2,-.4,.4c0,.2,.2,.4,.4,.4m2.3,0v0c.2,0,.4,-.2,.4,-.4c0,-.2,-.2,-.4,-.4,-.4c-.2,0,-.4,.2,-.4,.4c0,.2,.2,.4,.4,.4m2.3,0v0c.2,0,.4,-.2,.4,-.4c0,-.2,-.2,-.4,-.4,-.4c-.2,0,-.4,.2,-.4,.4c0,.2,.2,.4,.4,.4m2.3,0v0c.2,0,.3,-.2,.3,-.4c0,-.2,-.1,-.4,-.3,-.4c-.3,0,-.4,.2,-.4,.4c0,.2,.1,.4,.4,.4m2.3,0v0c.2,0,.3,-.2,.3,-.4c0,-.2,-.1,-.4,-.3,-.4c-.3,0,-.4,.2,-.4,.4c0,.2,.1,.4,.4,.4m2.2,0v0c.3,0,.4,-.2,.4,-.4c0,-.2,-.1,-.4,-.4,-.4c-.2,0,-.3,.2,-.3,.4c0,.2,.1,.4,.3,.4m2.3,0v0c.2,0,.4,-.2,.4,-.4c0,-.2,-.2,-.4,-.4,-.4c-.2,0,-.3,.2,-.3,.4c0,.2,.1,.4,.3,.4m2.3,0v0c.2,0,.4,-.2,.4,-.4c0,-.2,-.2,-.4,-.4,-.4c-.2,0,-.4,.2,-.4,.4c0,.2,.2,.4,.4,.4m2.3,0v0c.2,0,.4,-.2,.4,-.4c0,-.2,-.2,-.4,-.4,-.4c-.2,0,-.4,.2,-.4,.4c0,.2,.2,.4,.4,.4m2.3,0v0c.2,0,.4,-.2,.4,-.4c0,-.2,-.2,-.4,-.4,-.4c-.2,0,-.4,.2,-.4,.4c0,.2,.2,.4,.4,.4m2.3,0v0c.2,0,.4,-.2,.4,-.4c0,-.2,-.2,-.4,-.4,-.4c-.2,0,-.4,.2,-.4,.4c0,.2,.2,.4,.4,.4m2.3,0v0c.2,0,.4,-.2,.4,-.4c0,-.2,-.2,-.4,-.4,-.4c-.2,0,-.4,.2,-.4,.4c0,.2,.2,.4,.4,.4m2.3,0v0c.2,0,.4,-.2,.4,-.4c0,-.2,-.2,-.4,-.4,-.4c-.2,0,-.4,.2,-.4,.4c0,.2,.2,.4,.4,.4m2.3,0v0c.2,0,.4,-.2,.4,-.4c0,-.2,-.2,-.4,-.4,-.4c-.2,0,-.4,.2,-.4,.4c0,.2,.2,.4,.4,.4m2.3,0v0c.2,0,.3,-.2,.3,-.4c0,-.2,-.1,-.4,-.3,-.4c-.2,0,-.4,.2,-.4,.4c0,.2,.2,.4,.4,.4m2.3,0v0c.2,0,.3,-.2,.3,-.4c0,-.2,-.1,-.4,-.3,-.4c-.3,0,-.4,.2,-.4,.4c0,.2,.1,.4,.4,.4m2.2,0v0c.3,0,.4,-.2,.4,-.4c0,-.2,-.1,-.4,-.4,-.4c-.2,0,-.3,.2,-.3,.4c0,.2,.1,.4,.3,.4m2.3,0v0c.3,0,.4,-.2,.4,-.4c0,-.2,-.1,-.4,-.4,-.4c-.2,0,-.3,.2,-.3,.4c0,.2,.1,.4,.3,.4m2.3,0v0c.2,0,.4,-.2,.4,-.4c0,-.2,-.2,-.4,-.4,-.4c-.2,0,-.3,.2,-.3,.4c0,.2,.1,.4,.3,.4m2.3,0v0c.2,0,.4,-.2,.4,-.4c0,-.2,-.2,-.4,-.4,-.4c-.2,0,-.4,.2,-.4,.4c0,.2,.2,.4,.4,.4m2.3,0v0c.2,0,.4,-.2,.4,-.4c0,-.2,-.2,-.4,-.4,-.4c-.2,0,-.4,.2,-.4,.4c0,.2,.2,.4,.4,.4m2.3,0v0c.2,0,.4,-.2,.4,-.4c0,-.2,-.2,-.4,-.4,-.4c-.2,0,-.4,.2,-.4,.4c0,.2,.2,.4,.4,.4m2.3,0v0c.2,0,.4,-.2,.4,-.4c0,-.2,-.2,-.4,-.4,-.4c-.2,0,-.4,.2,-.4,.4c0,.2,.2,.4,.4,.4m2.3,0v0c.2,0,.4,-.2,.4,-.4c0,-.2,-.2,-.4,-.4,-.4c-.2,0,-.4,.2,-.4,.4c0,.2,.2,.4,.4,.4m2.3,0v0c.2,0,.4,-.2,.4,-.4c0,-.2,-.2,-.4,-.4,-.4c-.2,0,-.4,.2,-.4,.4c0,.2,.2,.4,.4,.4m2.3,0v0c.2,0,.4,-.2,.4,-.4c0,-.2,-.2,-.4,-.4,-.4c-.2,0,-.4,.2,-.4,.4c0,.2,.2,.4,.4,.4m2.3,0v0c.2,0,.3,-.2,.3,-.4c0,-.2,-.1,-.4,-.3,-.4c-.2,0,-.4,.2,-.4,.4c0,.2,.2,.4,.4,.4m2.3,0v0c.2,0,.3,-.2,.3,-.4c0,-.2,-.1,-.4,-.3,-.4c-.3,0,-.4,.2,-.4,.4c0,.2,.1,.4,.4,.4m2.2,0v0c.3,0,.4,-.2,.4,-.4c0,-.2,-.1,-.4,-.4,-.4c-.2,0,-.3,.2,-.3,.4c0,.2,.1,.4,.3,.4m2.3,0v0c.2,0,.4,-.2,.4,-.4c0,-.2,-.2,-.4,-.4,-.4c-.2,0,-.3,.2,-.3,.4c0,.2,.1,.4,.3,.4m2.3,0v0c.2,0,.4,-.2,.4,-.4c0,-.2,-.2,-.4,-.4,-.4c-.2,0,-.4,.2,-.4,.4c0,.2,.2,.4,.4,.4m2.3,0v0c.2,0,.4,-.2,.4,-.4c0,-.2,-.2,-.4,-.4,-.4c-.2,0,-.4,.2,-.4,.4c0,.2,.2,.4,.4,.4m2.3,0v0c.2,0,.4,-.2,.4,-.4c0,-.2,-.2,-.4,-.4,-.4c-.2,0,-.4,.2,-.4,.4c0,.2,.2,.4,.4,.4Z" class="g5_13"/>
<path d="M600.8,1203.6l.3,-.1l.1,-.3l-.1,-.3l-.3,-.1l-.3,.1l-.1,.3l.1,.3Zm217.7,0l.3,-.1l.1,-.3l-.1,-.3l-.3,-.1l-.3,.1l-.1,.3l.1,.3Z" class="g5_13"/>
<path d="M820.7,1203.6v0c.3,0,.4,-.2,.4,-.4c0,-.2,-.1,-.4,-.4,-.4c-.2,0,-.3,.2,-.3,.4c0,.2,.1,.4,.3,.4m2.3,0v0c.2,0,.4,-.2,.4,-.4c0,-.2,-.2,-.4,-.4,-.4c-.2,0,-.4,.2,-.4,.4c0,.2,.2,.4,.4,.4m2.2,0v0c.2,0,.4,-.2,.4,-.4c0,-.2,-.2,-.4,-.4,-.4c-.2,0,-.3,.2,-.3,.4c0,.2,.1,.4,.3,.4m2.3,0v0c.2,0,.4,-.2,.4,-.4c0,-.2,-.2,-.4,-.4,-.4c-.2,0,-.4,.2,-.4,.4c0,.2,.2,.4,.4,.4m2.2,0v0c.2,0,.4,-.2,.4,-.4c0,-.2,-.2,-.4,-.4,-.4c-.2,0,-.4,.2,-.4,.4c0,.2,.2,.4,.4,.4m2.3,0v0c.2,0,.3,-.2,.3,-.4c0,-.2,-.1,-.4,-.3,-.4c-.3,0,-.4,.2,-.4,.4c0,.2,.1,.4,.4,.4m2.2,0v0c.2,0,.4,-.2,.4,-.4c0,-.2,-.2,-.4,-.4,-.4c-.2,0,-.4,.2,-.4,.4c0,.2,.2,.4,.4,.4m2.2,0v0c.3,0,.4,-.2,.4,-.4c0,-.2,-.1,-.4,-.4,-.4c-.2,0,-.3,.2,-.3,.4c0,.2,.1,.4,.3,.4m2.3,0v0c.2,0,.4,-.2,.4,-.4c0,-.2,-.2,-.4,-.4,-.4c-.2,0,-.4,.2,-.4,.4c0,.2,.2,.4,.4,.4m2.2,0v0c.2,0,.4,-.2,.4,-.4c0,-.2,-.2,-.4,-.4,-.4c-.2,0,-.3,.2,-.3,.4c0,.2,.1,.4,.3,.4m2.3,0v0c.2,0,.4,-.2,.4,-.4c0,-.2,-.2,-.4,-.4,-.4c-.2,0,-.4,.2,-.4,.4c0,.2,.2,.4,.4,.4m2.2,0v0c.2,0,.4,-.2,.4,-.4c0,-.2,-.2,-.4,-.4,-.4c-.2,0,-.4,.2,-.4,.4c0,.2,.2,.4,.4,.4m2.3,0v0c.2,0,.3,-.2,.3,-.4c0,-.2,-.1,-.4,-.3,-.4c-.2,0,-.4,.2,-.4,.4c0,.2,.2,.4,.4,.4m2.2,0v0c.2,0,.4,-.2,.4,-.4c0,-.2,-.2,-.4,-.4,-.4c-.2,0,-.4,.2,-.4,.4c0,.2,.2,.4,.4,.4m2.2,0v0c.3,0,.4,-.2,.4,-.4c0,-.2,-.1,-.4,-.4,-.4c-.2,0,-.3,.2,-.3,.4c0,.2,.1,.4,.3,.4m2.3,0v0c.2,0,.4,-.2,.4,-.4c0,-.2,-.2,-.4,-.4,-.4c-.2,0,-.4,.2,-.4,.4c0,.2,.2,.4,.4,.4m2.2,0v0c.2,0,.4,-.2,.4,-.4c0,-.2,-.2,-.4,-.4,-.4c-.2,0,-.3,.2,-.3,.4c0,.2,.1,.4,.3,.4m2.3,0v0c.2,0,.4,-.2,.4,-.4c0,-.2,-.2,-.4,-.4,-.4c-.2,0,-.4,.2,-.4,.4c0,.2,.2,.4,.4,.4m2.2,0v0c.2,0,.4,-.2,.4,-.4c0,-.2,-.2,-.4,-.4,-.4c-.2,0,-.4,.2,-.4,.4c0,.2,.2,.4,.4,.4m2.3,0v0c.2,0,.3,-.2,.3,-.4c0,-.2,-.1,-.4,-.3,-.4c-.2,0,-.4,.2,-.4,.4c0,.2,.2,.4,.4,.4m2.2,0v0c.2,0,.4,-.2,.4,-.4c0,-.2,-.2,-.4,-.4,-.4c-.2,0,-.4,.2,-.4,.4c0,.2,.2,.4,.4,.4m2.2,0v0c.3,0,.4,-.2,.4,-.4c0,-.2,-.1,-.4,-.4,-.4c-.2,0,-.3,.2,-.3,.4c0,.2,.1,.4,.3,.4Z" class="g5_13"/>
<path d="M818.5,1203.6l.3,-.1l.1,-.3l-.1,-.3l-.3,-.1l-.3,.1l-.1,.3l.1,.3Zm51.6,0l.3,-.1l.1,-.3l-.1,-.3l-.3,-.1l-.3,.1l-.1,.3l.1,.3Z" class="g5_13"/>
<path d="M600.4,970.4H818.5v-2.3H600.4Z" class="g5_13"/>
<path d="M818.5,970.4h52v-2.3h-52Z" class="g5_13"/>
<path d="M600.4,639.4H870.5v-2.3H600.4Z" class="g5_13"/>
<image clip-path="url(#cb_13)" preserveAspectRatio="none" x="600" y="0" width="271" height="37" xlink:href="img/12.jpg"/>
<image clip-path="url(#cc_13)" preserveAspectRatio="none" x="600" y="13" width="271" height="135" xlink:href="img/13.jpg"/>
<image clip-path="url(#cd_13)" preserveAspectRatio="none" x="600" y="147" width="271" height="451" xlink:href="img/14.jpg"/>
<image clip-path="url(#ce_13)" preserveAspectRatio="none" x="783" y="574" width="87" height="19" xlink:href="img/15.jpg"/>
<image clip-path="url(#cf_13)" preserveAspectRatio="none" x="784" y="575" width="78" height="11" xlink:href="img/16.jpg"/>
<image clip-path="url(#cg_13)" preserveAspectRatio="none" x="784" y="575" width="78" height="11" xlink:href="img/17.jpg"/>
<path d="M735.9,89c2.4,0,4.3,-1.9,4.3,-4.3c0,-2.3,-1.9,-4.2,-4.3,-4.2c-2.3,0,-4.2,1.9,-4.2,4.2c0,2.4,1.9,4.3,4.2,4.3Z" class="g4_13"/>
<path d="M713.6,116.2c2.3,0,4.2,-1.9,4.2,-4.2c0,-2.4,-1.9,-4.3,-4.2,-4.3c-2.4,0,-4.3,1.9,-4.3,4.3c0,2.3,1.9,4.2,4.3,4.2Z" class="g4_13"/>
<path d="M693.9,150.7c3.3,0,6.1,-2.8,6.1,-6.1c0,-3.4,-2.8,-6.1,-6.1,-6.1c-3.4,0,-6.1,2.7,-6.1,6.1c0,3.3,2.7,6.1,6.1,6.1Z" class="g2_13"/>
<path d="M693.9,150.7v1.4c4.2,0,7.5,-3.3,7.5,-7.5c0,-4.2,-3.3,-7.6,-7.5,-7.6c-4.2,0,-7.6,3.4,-7.6,7.6c0,4.2,3.4,7.5,7.6,7.5v-2.9c-2.6,0,-4.6,-2.1,-4.6,-4.6c0,-2.6,2,-4.6,4.6,-4.6c2.5,0,4.6,2,4.6,4.6c0,2.5,-2.1,4.6,-4.6,4.6Z" class="g4_13"/>
<image clip-path="url(#ch_13)" preserveAspectRatio="none" x="665" y="84" width="53" height="16" xlink:href="img/18.jpg"/>
<image clip-path="url(#ci_13)" preserveAspectRatio="none" x="688" y="153" width="165" height="17" xlink:href="img/19.jpg"/>
<path d="M727.3,105.9c2.3,0,4.2,-1.9,4.2,-4.2c0,-2.4,-1.9,-4.3,-4.2,-4.3c-2.4,0,-4.3,1.9,-4.3,4.3c0,2.3,1.9,4.2,4.3,4.2Z" class="g4_13"/>
<image clip-path="url(#cj_13)" preserveAspectRatio="none" x="750" y="63" width="31" height="16" xlink:href="img/20.jpg"/>
<image clip-path="url(#ck_13)" preserveAspectRatio="none" x="741" y="80" width="30" height="16" xlink:href="img/21.jpg"/>
<image clip-path="url(#cl_13)" preserveAspectRatio="none" x="743" y="45" width="47" height="16" xlink:href="img/22.jpg"/>
<path d="M739.1,76.6c2.4,0,4.3,-2,4.3,-4.3c0,-2.4,-1.9,-4.3,-4.3,-4.3c-2.3,0,-4.2,1.9,-4.2,4.3c0,2.3,1.9,4.3,4.2,4.3Z" class="g4_13"/>
<image clip-path="url(#cm_13)" preserveAspectRatio="none" x="723" y="107" width="93" height="16" xlink:href="img/23.jpg"/>
<path d="M729.5,66.5c3.4,0,6.1,-2.7,6.1,-6c0,-3.4,-2.7,-6.1,-6.1,-6.1c-3.4,0,-6.1,2.7,-6.1,6.1c0,3.3,2.7,6,6.1,6Z" class="g2_13"/>
<path d="M729.5,66.5V68c4.2,0,7.6,-3.4,7.6,-7.5c0,-4.2,-3.4,-7.6,-7.6,-7.6c-4.2,0,-7.6,3.4,-7.6,7.6c0,4.1,3.4,7.5,7.6,7.5V65.1c-2.5,0,-4.6,-2.1,-4.6,-4.6c0,-2.6,2.1,-4.6,4.6,-4.6c2.5,0,4.6,2,4.6,4.6c0,2.5,-2.1,4.6,-4.6,4.6Z" class="g4_13"/>
<image clip-path="url(#cn_13)" preserveAspectRatio="none" x="727" y="87" width="8" height="11" xlink:href="img/24.png"/>
<path d="M707.8,133.5c2.3,0,4.3,-1.9,4.3,-4.2c0,-2.4,-2,-4.3,-4.3,-4.3c-2.4,0,-4.3,1.9,-4.3,4.3c0,2.3,1.9,4.2,4.3,4.2Z" class="g4_13"/>
<image clip-path="url(#co_13)" preserveAspectRatio="none" x="714" y="126" width="131" height="16" xlink:href="img/25.jpg"/>
<image clip-path="url(#cp_13)" preserveAspectRatio="none" x="714" y="101" width="10" height="10" xlink:href="img/26.png"/>
<image clip-path="url(#cq_13)" preserveAspectRatio="none" x="715" y="108" width="3" height="3" xlink:href="img/27.png"/>
<image clip-path="url(#cr_13)" preserveAspectRatio="none" x="705" y="115" width="8" height="10" xlink:href="img/28.png"/>
<image clip-path="url(#cs_13)" preserveAspectRatio="none" x="696" y="131" width="11" height="9" xlink:href="img/29.png"/>
<image clip-path="url(#ct_13)" preserveAspectRatio="none" x="698" y="138" width="2" height="2" xlink:href="img/30.png"/>
<path clip-path="url(#cu_13)" d="M853.6,71.6c1.7,-10.2,11.2,-28.6,23.8,-47c-16.5,15.1,-33.9,27,-43.1,30.3c-3.3,1.2,-7.6,2.3,-7.4,6.4c.3,4.4,5.1,9.6,8,12.4c3.6,3.4,8.2,6,12.8,6c4.6,0,5.3,-4.2,5.9,-8.1M820.5,20.9c7.2,1.4,28.2,-4,48.9,-13.7c0,0,-12,3.2,-19.8,2.5c-4.8,-.5,-13.2,-.9,-23,-5.2c-10.2,-4.5,-13,1,-13.1,5.2c0,3.1,-.8,9.7,7,11.2m5.3,30.7c4.2,1.1,25.4,-13.3,46.9,-35.2c0,0,-19.2,8.4,-35.9,10c-9.6,.9,-17.5,-.3,-19.6,3.6c-4.8,9,1.4,19.6,8.6,21.6m54.9,33.3c3.5,-2.6,1.2,-10.3,.7,-19.9c-.8,-16.8,4.8,-37,4.8,-37C867.6,52.5,856.4,75.5,858.1,79.5c3,6.9,14.4,11.5,22.6,5.4m8.5,-4.6c2.6,7.6,9.1,5.8,12.1,5.3c4.1,-.6,9.2,-4.2,3.3,-13.7c-5.7,-9.1,-7.9,-17.2,-8.5,-22c-1,-8.4,-.4,-19.9,-.4,-19.9c-6.6,21.9,-8.9,43.4,-6.5,50.3Z" class="g6_13"/>
</svg>