<?xml version="1.0" encoding="UTF-8" standalone="no"?>
<!DOCTYPE svg PUBLIC "-//W3C//DTD SVG 1.1//EN"
"http://www.w3.org/Graphics/SVG/1.1/DTD/svg11.dtd">
<svg viewBox="0 0 909 1286" version="1.1" xmlns="http://www.w3.org/2000/svg" xmlns:xlink="http://www.w3.org/1999/xlink">
<defs>
<clipPath id="c0_12"><path d="M5.8,1072.4v-38H28.6v38Z"/></clipPath>
<clipPath id="c1_12"><path d="M603.5,597.6V147.2H909.4V597.6Z"/></clipPath>
<clipPath id="c2_12"><path d="M583,592.1V574H453.8v18.1ZM39,597.6V147.2H589.7V597.6Z"/></clipPath>
<clipPath id="c3_12"><path d="M453.8,592.1V574H583v18.1Z"/></clipPath>
<clipPath id="c4_12"><path d="M39,1247.2V0H909.4V1247.2Z"/></clipPath>
<style type="text/css"><![CDATA[
.g0_12{
fill: #4BC0B5;
}
.g1_12{
fill: #DCDDDE;
}
.g2_12{
fill: #8FD3D3;
}
.g3_12{
fill: #4D4D4F;
}
.g4_12{
fill: #58595B;
}
.g5_12{
fill: #949698;
}
]]></style>
</defs>
<path d="M0,1286.2H29.9V1029H0v257.2Z" class="g0_12"/>
<image clip-path="url(#c0_12)" preserveAspectRatio="none" x="6" y="1034" width="23" height="39" xlink:href="img/1.jpg"/>
<path d="M39,1247.2H308.2V148.8H39V1247.2Z" class="g1_12"/>
<path d="M603.5,597.6H909.4V147.2H603.5V597.6Z" class="g2_12"/>
<image clip-path="url(#c1_12)" preserveAspectRatio="none" x="602" y="147" width="616" height="451" xlink:href="img/2.jpg"/>
<path d="M39,597.6H589.7V147.2H39V597.6Z" class="g2_12"/>
<image clip-path="url(#c2_12)" preserveAspectRatio="none" x="39" y="147" width="551" height="451" xlink:href="img/3.jpg"/>
<image clip-path="url(#c3_12)" preserveAspectRatio="none" x="453" y="573" width="131" height="20" xlink:href="img/4.jpg"/>
<path clip-path="url(#c4_12)" d="M68.8,54.3h-30V84.4h30V54.3Z" class="g3_12"/>
<path d="M42.6,843.7v0c.4,0,.7,-.4,.7,-.8c0,-.4,-.3,-.8,-.7,-.8c-.4,0,-.8,.4,-.8,.8c0,.4,.4,.8,.8,.8m3,0v0c.4,0,.8,-.4,.8,-.8c0,-.4,-.4,-.8,-.8,-.8c-.4,0,-.7,.4,-.7,.8c0,.4,.3,.8,.7,.8m3.1,0v0c.4,0,.7,-.4,.7,-.8c0,-.4,-.3,-.8,-.7,-.8c-.5,0,-.8,.4,-.8,.8c0,.4,.3,.8,.8,.8m3,0v0c.4,0,.8,-.4,.8,-.8c0,-.4,-.4,-.8,-.8,-.8c-.4,0,-.8,.4,-.8,.8c0,.4,.4,.8,.8,.8m3,0v0c.5,0,.8,-.4,.8,-.8c0,-.4,-.3,-.8,-.8,-.8c-.4,0,-.7,.4,-.7,.8c0,.4,.3,.8,.7,.8m3.1,0v0c.4,0,.8,-.4,.8,-.8c0,-.4,-.4,-.8,-.8,-.8c-.4,0,-.8,.4,-.8,.8c0,.4,.4,.8,.8,.8m3,0v0c.4,0,.8,-.4,.8,-.8c0,-.4,-.4,-.8,-.8,-.8c-.4,0,-.7,.4,-.7,.8c0,.4,.3,.8,.7,.8m3.1,0v0c.4,0,.7,-.4,.7,-.8c0,-.4,-.3,-.8,-.7,-.8c-.5,0,-.8,.4,-.8,.8c0,.4,.3,.8,.8,.8m3,0v0c.4,0,.8,-.4,.8,-.8c0,-.4,-.4,-.8,-.8,-.8c-.4,0,-.8,.4,-.8,.8c0,.4,.4,.8,.8,.8m3.1,0v0c.4,0,.7,-.4,.7,-.8c0,-.4,-.3,-.8,-.7,-.8c-.5,0,-.8,.4,-.8,.8c0,.4,.3,.8,.8,.8m3,0v0c.4,0,.8,-.4,.8,-.8c0,-.4,-.4,-.8,-.8,-.8c-.4,0,-.8,.4,-.8,.8c0,.4,.4,.8,.8,.8m3,0v0c.5,0,.8,-.4,.8,-.8c0,-.4,-.3,-.8,-.8,-.8c-.4,0,-.7,.4,-.7,.8c0,.4,.3,.8,.7,.8m3.1,0v0c.4,0,.7,-.4,.7,-.8c0,-.4,-.3,-.8,-.7,-.8c-.4,0,-.8,.4,-.8,.8c0,.4,.4,.8,.8,.8m3,0v0c.4,0,.8,-.4,.8,-.8c0,-.4,-.4,-.8,-.8,-.8c-.4,0,-.7,.4,-.7,.8c0,.4,.3,.8,.7,.8m3.1,0v0c.4,0,.7,-.4,.7,-.8c0,-.4,-.3,-.8,-.7,-.8c-.5,0,-.8,.4,-.8,.8c0,.4,.3,.8,.8,.8m3,0v0c.4,0,.8,-.4,.8,-.8c0,-.4,-.4,-.8,-.8,-.8c-.4,0,-.8,.4,-.8,.8c0,.4,.4,.8,.8,.8m3,0v0c.5,0,.8,-.4,.8,-.8c0,-.4,-.3,-.8,-.8,-.8c-.4,0,-.7,.4,-.7,.8c0,.4,.3,.8,.7,.8m3.1,0v0c.4,0,.7,-.4,.7,-.8c0,-.4,-.3,-.8,-.7,-.8c-.4,0,-.8,.4,-.8,.8c0,.4,.4,.8,.8,.8m3,0v0c.4,0,.8,-.4,.8,-.8c0,-.4,-.4,-.8,-.8,-.8c-.4,0,-.7,.4,-.7,.8c0,.4,.3,.8,.7,.8m3.1,0v0c.4,0,.7,-.4,.7,-.8c0,-.4,-.3,-.8,-.7,-.8c-.5,0,-.8,.4,-.8,.8c0,.4,.3,.8,.8,.8m3,0v0c.4,0,.8,-.4,.8,-.8c0,-.4,-.4,-.8,-.8,-.8c-.4,0,-.8,.4,-.8,.8c0,.4,.4,.8,.8,.8m3,0v0c.5,0,.8,-.4,.8,-.8c0,-.4,-.3,-.8,-.8,-.8c-.4,0,-.7,.4,-.7,.8c0,.4,.3,.8,.7,.8m3.1,0v0c.4,0,.8,-.4,.8,-.8c0,-.4,-.4,-.8,-.8,-.8c-.4,0,-.8,.4,-.8,.8c0,.4,.4,.8,.8,.8m3,0v0c.4,0,.8,-.4,.8,-.8c0,-.4,-.4,-.8,-.8,-.8c-.4,0,-.7,.4,-.7,.8c0,.4,.3,.8,.7,.8m3.1,0v0c.4,0,.7,-.4,.7,-.8c0,-.4,-.3,-.8,-.7,-.8c-.5,0,-.8,.4,-.8,.8c0,.4,.3,.8,.8,.8m3,0v0c.4,0,.8,-.4,.8,-.8c0,-.4,-.4,-.8,-.8,-.8c-.4,0,-.8,.4,-.8,.8c0,.4,.4,.8,.8,.8m3.1,0v0c.4,0,.7,-.4,.7,-.8c0,-.4,-.3,-.8,-.7,-.8c-.5,0,-.8,.4,-.8,.8c0,.4,.3,.8,.8,.8m3,0v0c.4,0,.8,-.4,.8,-.8c0,-.4,-.4,-.8,-.8,-.8c-.4,0,-.8,.4,-.8,.8c0,.4,.4,.8,.8,.8m3,0v0c.5,0,.8,-.4,.8,-.8c0,-.4,-.3,-.8,-.8,-.8c-.4,0,-.7,.4,-.7,.8c0,.4,.3,.8,.7,.8m3.1,0v0c.4,0,.7,-.4,.7,-.8c0,-.4,-.3,-.8,-.7,-.8c-.4,0,-.8,.4,-.8,.8c0,.4,.4,.8,.8,.8m3,0v0c.4,0,.8,-.4,.8,-.8c0,-.4,-.4,-.8,-.8,-.8c-.4,0,-.7,.4,-.7,.8c0,.4,.3,.8,.7,.8m3.1,0v0c.4,0,.7,-.4,.7,-.8c0,-.4,-.3,-.8,-.7,-.8c-.5,0,-.8,.4,-.8,.8c0,.4,.3,.8,.8,.8m3,0v0c.4,0,.8,-.4,.8,-.8c0,-.4,-.4,-.8,-.8,-.8c-.4,0,-.8,.4,-.8,.8c0,.4,.4,.8,.8,.8m3,0v0c.5,0,.8,-.4,.8,-.8c0,-.4,-.3,-.8,-.8,-.8c-.4,0,-.7,.4,-.7,.8c0,.4,.3,.8,.7,.8m3.1,0v0c.4,0,.7,-.4,.7,-.8c0,-.4,-.3,-.8,-.7,-.8c-.4,0,-.8,.4,-.8,.8c0,.4,.4,.8,.8,.8m3,0v0c.4,0,.8,-.4,.8,-.8c0,-.4,-.4,-.8,-.8,-.8c-.4,0,-.7,.4,-.7,.8c0,.4,.3,.8,.7,.8m3.1,0v0c.4,0,.7,-.4,.7,-.8c0,-.4,-.3,-.8,-.7,-.8c-.5,0,-.8,.4,-.8,.8c0,.4,.3,.8,.8,.8m3,0v0c.4,0,.8,-.4,.8,-.8c0,-.4,-.4,-.8,-.8,-.8c-.4,0,-.8,.4,-.8,.8c0,.4,.4,.8,.8,.8m3,0v0c.5,0,.8,-.4,.8,-.8c0,-.4,-.3,-.8,-.8,-.8c-.4,0,-.7,.4,-.7,.8c0,.4,.3,.8,.7,.8m3.1,0v0c.4,0,.8,-.4,.8,-.8c0,-.4,-.4,-.8,-.8,-.8c-.4,0,-.8,.4,-.8,.8c0,.4,.4,.8,.8,.8m3,0v0c.4,0,.8,-.4,.8,-.8c0,-.4,-.4,-.8,-.8,-.8c-.4,0,-.7,.4,-.7,.8c0,.4,.3,.8,.7,.8m3.1,0v0c.4,0,.7,-.4,.7,-.8c0,-.4,-.3,-.8,-.7,-.8c-.5,0,-.8,.4,-.8,.8c0,.4,.3,.8,.8,.8m3,0v0c.4,0,.8,-.4,.8,-.8c0,-.4,-.4,-.8,-.8,-.8c-.4,0,-.8,.4,-.8,.8c0,.4,.4,.8,.8,.8m3.1,0v0c.4,0,.7,-.4,.7,-.8c0,-.4,-.3,-.8,-.7,-.8c-.5,0,-.8,.4,-.8,.8c0,.4,.3,.8,.8,.8m3,0v0c.4,0,.8,-.4,.8,-.8c0,-.4,-.4,-.8,-.8,-.8c-.4,0,-.8,.4,-.8,.8c0,.4,.4,.8,.8,.8m3,0v0c.5,0,.8,-.4,.8,-.8c0,-.4,-.3,-.8,-.8,-.8c-.4,0,-.7,.4,-.7,.8c0,.4,.3,.8,.7,.8m3.1,0v0c.4,0,.7,-.4,.7,-.8c0,-.4,-.3,-.8,-.7,-.8c-.4,0,-.8,.4,-.8,.8c0,.4,.4,.8,.8,.8m3,0v0c.4,0,.8,-.4,.8,-.8c0,-.4,-.4,-.8,-.8,-.8c-.4,0,-.7,.4,-.7,.8c0,.4,.3,.8,.7,.8m3.1,0v0c.4,0,.7,-.4,.7,-.8c0,-.4,-.3,-.8,-.7,-.8c-.5,0,-.8,.4,-.8,.8c0,.4,.3,.8,.8,.8m3,0v0c.4,0,.8,-.4,.8,-.8c0,-.4,-.4,-.8,-.8,-.8c-.4,0,-.8,.4,-.8,.8c0,.4,.4,.8,.8,.8m3,0v0c.5,0,.8,-.4,.8,-.8c0,-.4,-.3,-.8,-.8,-.8c-.4,0,-.7,.4,-.7,.8c0,.4,.3,.8,.7,.8m3.1,0v0c.4,0,.7,-.4,.7,-.8c0,-.4,-.3,-.8,-.7,-.8c-.4,0,-.8,.4,-.8,.8c0,.4,.4,.8,.8,.8m3,0v0c.4,0,.8,-.4,.8,-.8c0,-.4,-.4,-.8,-.8,-.8c-.4,0,-.7,.4,-.7,.8c0,.4,.3,.8,.7,.8m3.1,0v0c.4,0,.7,-.4,.7,-.8c0,-.4,-.3,-.8,-.7,-.8c-.5,0,-.8,.4,-.8,.8c0,.4,.3,.8,.8,.8m3,0v0c.4,0,.8,-.4,.8,-.8c0,-.4,-.4,-.8,-.8,-.8c-.4,0,-.8,.4,-.8,.8c0,.4,.4,.8,.8,.8m3,0v0c.5,0,.8,-.4,.8,-.8c0,-.4,-.3,-.8,-.8,-.8c-.4,0,-.7,.4,-.7,.8c0,.4,.3,.8,.7,.8m3.1,0v0c.4,0,.8,-.4,.8,-.8c0,-.4,-.4,-.8,-.8,-.8c-.4,0,-.8,.4,-.8,.8c0,.4,.4,.8,.8,.8m3,0v0c.4,0,.8,-.4,.8,-.8c0,-.4,-.4,-.8,-.8,-.8c-.4,0,-.7,.4,-.7,.8c0,.4,.3,.8,.7,.8m3.1,0v0c.4,0,.7,-.4,.7,-.8c0,-.4,-.3,-.8,-.7,-.8c-.5,0,-.8,.4,-.8,.8c0,.4,.3,.8,.8,.8m3,0v0c.4,0,.8,-.4,.8,-.8c0,-.4,-.4,-.8,-.8,-.8c-.4,0,-.8,.4,-.8,.8c0,.4,.4,.8,.8,.8m3.1,0v0c.4,0,.7,-.4,.7,-.8c0,-.4,-.3,-.8,-.7,-.8c-.5,0,-.8,.4,-.8,.8c0,.4,.3,.8,.8,.8m3,0v0c.4,0,.8,-.4,.8,-.8c0,-.4,-.4,-.8,-.8,-.8c-.4,0,-.8,.4,-.8,.8c0,.4,.4,.8,.8,.8m3,0v0c.5,0,.8,-.4,.8,-.8c0,-.4,-.3,-.8,-.8,-.8c-.4,0,-.7,.4,-.7,.8c0,.4,.3,.8,.7,.8m3.1,0v0c.4,0,.7,-.4,.7,-.8c0,-.4,-.3,-.8,-.7,-.8c-.4,0,-.8,.4,-.8,.8c0,.4,.4,.8,.8,.8m3,0v0c.4,0,.8,-.4,.8,-.8c0,-.4,-.4,-.8,-.8,-.8c-.4,0,-.7,.4,-.7,.8c0,.4,.3,.8,.7,.8m3.1,0v0c.4,0,.7,-.4,.7,-.8c0,-.4,-.3,-.8,-.7,-.8c-.5,0,-.8,.4,-.8,.8c0,.4,.3,.8,.8,.8m3,0v0c.4,0,.8,-.4,.8,-.8c0,-.4,-.4,-.8,-.8,-.8c-.4,0,-.8,.4,-.8,.8c0,.4,.4,.8,.8,.8m3,0v0c.5,0,.8,-.4,.8,-.8c0,-.4,-.3,-.8,-.8,-.8c-.4,0,-.7,.4,-.7,.8c0,.4,.3,.8,.7,.8m3.1,0v0c.4,0,.7,-.4,.7,-.8c0,-.4,-.3,-.8,-.7,-.8c-.4,0,-.8,.4,-.8,.8c0,.4,.4,.8,.8,.8m3,0v0c.4,0,.8,-.4,.8,-.8c0,-.4,-.4,-.8,-.8,-.8c-.4,0,-.7,.4,-.7,.8c0,.4,.3,.8,.7,.8m3.1,0v0c.4,0,.7,-.4,.7,-.8c0,-.4,-.3,-.8,-.7,-.8c-.5,0,-.8,.4,-.8,.8c0,.4,.3,.8,.8,.8m3,0v0c.4,0,.8,-.4,.8,-.8c0,-.4,-.4,-.8,-.8,-.8c-.4,0,-.8,.4,-.8,.8c0,.4,.4,.8,.8,.8m3,0v0c.5,0,.8,-.4,.8,-.8c0,-.4,-.3,-.8,-.8,-.8c-.4,0,-.7,.4,-.7,.8c0,.4,.3,.8,.7,.8m3.1,0v0c.4,0,.8,-.4,.8,-.8c0,-.4,-.4,-.8,-.8,-.8c-.4,0,-.8,.4,-.8,.8c0,.4,.4,.8,.8,.8m3,0v0c.5,0,.8,-.4,.8,-.8c0,-.4,-.3,-.8,-.8,-.8c-.4,0,-.7,.4,-.7,.8c0,.4,.3,.8,.7,.8m3.1,0v0c.4,0,.7,-.4,.7,-.8c0,-.4,-.3,-.8,-.7,-.8c-.5,0,-.8,.4,-.8,.8c0,.4,.3,.8,.8,.8m3,0v0c.4,0,.8,-.4,.8,-.8c0,-.4,-.4,-.8,-.8,-.8c-.4,0,-.8,.4,-.8,.8c0,.4,.4,.8,.8,.8m3.1,0v0c.4,0,.7,-.4,.7,-.8c0,-.4,-.3,-.8,-.7,-.8c-.5,0,-.8,.4,-.8,.8c0,.4,.3,.8,.8,.8m3,0v0c.4,0,.8,-.4,.8,-.8c0,-.4,-.4,-.8,-.8,-.8c-.4,0,-.8,.4,-.8,.8c0,.4,.4,.8,.8,.8m3,0v0c.5,0,.8,-.4,.8,-.8c0,-.4,-.3,-.8,-.8,-.8c-.4,0,-.7,.4,-.7,.8c0,.4,.3,.8,.7,.8m3.1,0v0c.4,0,.7,-.4,.7,-.8c0,-.4,-.3,-.8,-.7,-.8c-.4,0,-.8,.4,-.8,.8c0,.4,.4,.8,.8,.8m3,0v0c.4,0,.8,-.4,.8,-.8c0,-.4,-.4,-.8,-.8,-.8c-.4,0,-.7,.4,-.7,.8c0,.4,.3,.8,.7,.8m3.1,0v0c.4,0,.7,-.4,.7,-.8c0,-.4,-.3,-.8,-.7,-.8c-.5,0,-.8,.4,-.8,.8c0,.4,.3,.8,.8,.8m3,0v0c.4,0,.8,-.4,.8,-.8c0,-.4,-.4,-.8,-.8,-.8c-.4,0,-.8,.4,-.8,.8c0,.4,.4,.8,.8,.8m3,0v0c.5,0,.8,-.4,.8,-.8c0,-.4,-.3,-.8,-.8,-.8c-.4,0,-.7,.4,-.7,.8c0,.4,.3,.8,.7,.8m3.1,0v0c.4,0,.7,-.4,.7,-.8c0,-.4,-.3,-.8,-.7,-.8c-.4,0,-.8,.4,-.8,.8c0,.4,.4,.8,.8,.8m3,0v0c.4,0,.8,-.4,.8,-.8c0,-.4,-.4,-.8,-.8,-.8c-.4,0,-.7,.4,-.7,.8c0,.4,.3,.8,.7,.8Z" class="g4_12"/>
<g clip-path="url(#c4_12)">
<path d="M39.5,843.7c.2,0,.4,-.1,.6,-.3c.1,-.1,.2,-.3,.2,-.5c0,-.2,-.1,-.4,-.2,-.6c-.2,-.1,-.4,-.2,-.6,-.2c-.2,0,-.4,.1,-.5,.2c-.1,.2,-.2,.4,-.2,.6c0,.2,.1,.4,.2,.5c.1,.2,.3,.3,.5,.3m267.7,0c.2,0,.4,-.1,.5,-.3c.1,-.1,.2,-.3,.2,-.5c0,-.2,-.1,-.4,-.2,-.6c-.1,-.1,-.3,-.2,-.5,-.2c-.2,0,-.4,.1,-.6,.2c-.1,.2,-.2,.4,-.2,.6c0,.2,.1,.4,.2,.5c.2,.2,.4,.3,.6,.3Z" class="g4_12"/>
<path d="M38.8,867.7H307.9v-1.5H38.8Z" class="g4_12"/>
<path d="M38.8,638.7H307.9v-2.3H38.8Z" class="g4_12"/>
</g>
<path d="M39,932.2H308.1v-2.3H39Z" class="g4_12"/>
<path d="M244.2,1188.1V1163h-.8v25.1Z" class="g5_12"/>
<path d="M180.1,1162.3V1139h-.8v23.3Z" class="g5_12"/>
<path d="M180.1,1188.1v-25.8h-.8v25.8Z" class="g5_12"/>
<path d="M180.1,1163h63.7v-1.5H180.1Z" class="g4_12"/>
<path d="M243.8,1163h64.1v-1.5H243.8Z" class="g4_12"/>
<path d="M39.6,1211.9v0l.2,-.2l-.2,-.2l-.2,.2Zm.8,0v0l.2,-.2l-.2,-.2l-.2,.2Zm.7,0v0l.2,-.2l-.2,-.2l-.1,.2Zm.8,0v0l.2,-.2l-.2,-.2l-.2,.2Zm.8,0v0l.2,-.2l-.2,-.2l-.2,.2Zm.7,0v0l.2,-.2l-.2,-.2l-.1,.2Zm.8,0v0l.2,-.2l-.2,-.2l-.2,.2Zm.8,0v0l.2,-.2l-.2,-.2l-.2,.2Zm.7,0v0l.2,-.2l-.2,-.2l-.1,.2Zm.8,0v0l.2,-.2l-.2,-.2l-.2,.2Zm.8,0v0l.2,-.2l-.2,-.2l-.2,.2Zm.7,0v0l.2,-.2l-.2,-.2l-.2,.2Zm.8,0v0l.2,-.2l-.2,-.2l-.2,.2Zm.8,0v0l.2,-.2l-.2,-.2l-.2,.2Zm.7,0v0l.2,-.2l-.2,-.2l-.2,.2Zm.8,0v0l.2,-.2l-.2,-.2l-.2,.2Zm.8,0v0l.2,-.2l-.2,-.2l-.2,.2Zm.7,0v0l.2,-.2l-.2,-.2l-.2,.2Zm.8,0v0l.2,-.2l-.2,-.2l-.2,.2Zm.8,0v0l.2,-.2l-.2,-.2l-.2,.2Zm.7,0v0l.2,-.2l-.2,-.2l-.2,.2Zm.8,0v0l.2,-.2l-.2,-.2l-.2,.2Zm.8,0v0l.2,-.2l-.2,-.2l-.2,.2Zm.7,0v0l.2,-.2l-.2,-.2l-.2,.2Zm.8,0v0l.2,-.2l-.2,-.2l-.2,.2Zm.8,0v0l.1,-.2l-.1,-.2l-.2,.2Zm.7,0v0l.2,-.2l-.2,-.2l-.2,.2Zm.8,0v0l.2,-.2l-.2,-.2l-.2,.2Zm.8,0v0l.1,-.2l-.1,-.2l-.2,.2Zm.7,0v0l.2,-.2l-.2,-.2l-.2,.2Zm.8,0v0l.2,-.2l-.2,-.2l-.2,.2Zm.8,0v0l.1,-.2l-.1,-.2l-.2,.2Zm.7,0v0l.2,-.2l-.2,-.2l-.2,.2Zm.8,0v0l.2,-.2l-.2,-.2l-.2,.2Zm.7,0v0l.2,-.2l-.2,-.2l-.1,.2Zm.8,0v0l.2,-.2l-.2,-.2l-.2,.2Zm.8,0v0l.2,-.2l-.2,-.2l-.2,.2Zm.7,0v0l.2,-.2l-.2,-.2l-.1,.2Zm.8,0v0l.2,-.2l-.2,-.2l-.2,.2Zm.8,0v0l.2,-.2l-.2,-.2l-.2,.2Zm.7,0v0l.2,-.2l-.2,-.2l-.1,.2Zm.8,0v0l.2,-.2l-.2,-.2l-.2,.2Zm.8,0v0l.2,-.2l-.2,-.2l-.2,.2Zm.7,0v0l.2,-.2l-.2,-.2l-.2,.2Zm.8,0v0l.2,-.2l-.2,-.2l-.2,.2Zm.8,0v0l.2,-.2l-.2,-.2l-.2,.2Zm.7,0v0l.2,-.2l-.2,-.2l-.2,.2Zm.8,0v0l.2,-.2l-.2,-.2l-.2,.2Zm.8,0v0l.2,-.2l-.2,-.2l-.2,.2Zm.7,0v0l.2,-.2l-.2,-.2l-.2,.2Zm.8,0v0l.2,-.2l-.2,-.2l-.2,.2Zm.8,0v0l.2,-.2l-.2,-.2l-.2,.2Zm.7,0v0l.2,-.2l-.2,-.2l-.2,.2Zm.8,0v0l.2,-.2l-.2,-.2l-.2,.2Zm.8,0v0l.2,-.2l-.2,-.2l-.2,.2Zm.7,0v0l.2,-.2l-.2,-.2l-.2,.2Zm.8,0v0l.2,-.2l-.2,-.2l-.2,.2Zm.8,0v0l.1,-.2l-.1,-.2l-.2,.2Zm.7,0v0l.2,-.2l-.2,-.2l-.2,.2Zm.8,0v0l.2,-.2l-.2,-.2l-.2,.2Zm.8,0v0l.1,-.2l-.1,-.2l-.2,.2Zm.7,0v0l.2,-.2l-.2,-.2l-.2,.2Zm.8,0v0l.2,-.2l-.2,-.2l-.2,.2Zm.8,0v0l.1,-.2l-.1,-.2l-.2,.2Zm.7,0v0l.2,-.2l-.2,-.2l-.2,.2Zm.8,0v0l.2,-.2l-.2,-.2l-.2,.2Zm.7,0v0l.2,-.2l-.2,-.2l-.1,.2Zm.8,0v0l.2,-.2l-.2,-.2l-.2,.2Zm.8,0v0l.2,-.2l-.2,-.2l-.2,.2Zm.7,0v0l.2,-.2l-.2,-.2l-.1,.2Zm.8,0v0l.2,-.2l-.2,-.2l-.2,.2Zm.8,0v0l.2,-.2l-.2,-.2l-.2,.2Zm.7,0v0l.2,-.2l-.2,-.2l-.1,.2Zm.8,0v0l.2,-.2l-.2,-.2l-.2,.2Zm.8,0v0l.2,-.2l-.2,-.2l-.2,.2Zm.7,0v0l.2,-.2l-.2,-.2l-.2,.2Zm.8,0v0l.2,-.2l-.2,-.2l-.2,.2Zm.8,0v0l.2,-.2l-.2,-.2l-.2,.2Zm.7,0v0l.2,-.2l-.2,-.2l-.2,.2Zm.8,0v0l.2,-.2l-.2,-.2l-.2,.2Zm.8,0v0l.2,-.2l-.2,-.2l-.2,.2Zm.7,0v0l.2,-.2l-.2,-.2l-.2,.2Zm.8,0v0l.2,-.2l-.2,-.2l-.2,.2Zm.8,0v0l.2,-.2l-.2,-.2l-.2,.2Zm.7,0v0l.2,-.2l-.2,-.2l-.2,.2Zm.8,0v0l.2,-.2l-.2,-.2l-.2,.2Zm.8,0v0l.2,-.2l-.2,-.2l-.2,.2Zm.7,0v0l.2,-.2l-.2,-.2l-.2,.2Zm.8,0v0l.2,-.2l-.2,-.2l-.2,.2Zm.8,0v0l.1,-.2l-.1,-.2l-.2,.2Zm.7,0v0l.2,-.2l-.2,-.2l-.2,.2Zm.8,0v0l.2,-.2l-.2,-.2l-.2,.2Zm.8,0v0l.1,-.2l-.1,-.2l-.2,.2Zm.7,0v0l.2,-.2l-.2,-.2l-.2,.2Zm.8,0v0l.2,-.2l-.2,-.2l-.2,.2Zm.8,0v0l.1,-.2l-.1,-.2l-.2,.2Zm.7,0v0l.2,-.2l-.2,-.2l-.2,.2Zm.8,0v0l.2,-.2l-.2,-.2l-.2,.2Zm.7,0v0l.2,-.2l-.2,-.2l-.1,.2Zm.8,0v0l.2,-.2l-.2,-.2l-.2,.2Zm.8,0v0l.2,-.2l-.2,-.2l-.2,.2Zm.7,0v0l.2,-.2l-.2,-.2l-.1,.2Zm.8,0v0l.2,-.2l-.2,-.2l-.2,.2Zm.8,0v0l.2,-.2l-.2,-.2l-.2,.2Zm.7,0v0l.2,-.2l-.2,-.2l-.2,.2Zm.8,0v0l.2,-.2l-.2,-.2l-.2,.2Zm.8,0v0l.2,-.2l-.2,-.2l-.2,.2Zm.7,0v0l.2,-.2l-.2,-.2l-.2,.2Zm.8,0v0l.2,-.2l-.2,-.2l-.2,.2Zm.8,0v0l.2,-.2l-.2,-.2l-.2,.2Zm.7,0v0l.2,-.2l-.2,-.2l-.2,.2Zm.8,0v0l.2,-.2l-.2,-.2l-.2,.2Zm.8,0v0l.2,-.2l-.2,-.2l-.2,.2Zm.7,0v0l.2,-.2l-.2,-.2l-.2,.2Zm.8,0v0l.2,-.2l-.2,-.2l-.2,.2Zm.8,0v0l.2,-.2l-.2,-.2l-.2,.2Zm.7,0v0l.2,-.2l-.2,-.2l-.2,.2Zm.8,0v0l.2,-.2l-.2,-.2l-.2,.2Zm.8,0v0l.2,-.2l-.2,-.2l-.2,.2Zm.7,0v0l.2,-.2l-.2,-.2l-.2,.2Zm.8,0v0l.2,-.2l-.2,-.2l-.2,.2Zm.8,0v0l.1,-.2l-.1,-.2l-.2,.2Zm.7,0v0l.2,-.2l-.2,-.2l-.2,.2Zm.8,0v0l.2,-.2l-.2,-.2l-.2,.2Zm.8,0v0l.1,-.2l-.1,-.2l-.2,.2Zm.7,0v0l.2,-.2l-.2,-.2l-.2,.2Zm.8,0v0l.2,-.2l-.2,-.2l-.2,.2Zm.7,0v0l.2,-.2l-.2,-.2l-.1,.2Zm.8,0v0l.2,-.2l-.2,-.2l-.2,.2Zm.8,0v0l.2,-.2l-.2,-.2l-.2,.2Zm.7,0v0l.2,-.2l-.2,-.2l-.1,.2Zm.8,0v0l.2,-.2l-.2,-.2l-.2,.2Zm.8,0v0l.2,-.2l-.2,-.2l-.2,.2Zm.7,0v0l.2,-.2l-.2,-.2l-.1,.2Zm.8,0v0l.2,-.2l-.2,-.2l-.2,.2Zm.8,0v0l.2,-.2l-.2,-.2l-.2,.2Zm.7,0v0l.2,-.2l-.2,-.2l-.2,.2Zm.8,0v0l.2,-.2l-.2,-.2l-.2,.2Zm.8,0v0l.2,-.2l-.2,-.2l-.2,.2Zm.7,0v0l.2,-.2l-.2,-.2l-.2,.2Zm.8,0v0l.2,-.2l-.2,-.2l-.2,.2Zm.8,0v0l.2,-.2l-.2,-.2l-.2,.2Zm.7,0v0l.2,-.2l-.2,-.2l-.2,.2Zm.8,0v0l.2,-.2l-.2,-.2l-.2,.2Zm.8,0v0l.2,-.2l-.2,-.2l-.2,.2Zm.7,0v0l.2,-.2l-.2,-.2l-.2,.2Zm.8,0v0l.2,-.2l-.2,-.2l-.2,.2Zm.8,0v0l.2,-.2l-.2,-.2l-.2,.2Zm.7,0v0l.2,-.2l-.2,-.2l-.2,.2Zm.8,0v0l.2,-.2l-.2,-.2l-.2,.2Zm.8,0v0l.2,-.2l-.2,-.2l-.2,.2Zm.7,0v0l.2,-.2l-.2,-.2l-.2,.2Zm.8,0v0l.2,-.2l-.2,-.2l-.2,.2Zm.8,0v0l.1,-.2l-.1,-.2l-.2,.2Zm.7,0v0l.2,-.2l-.2,-.2l-.2,.2Zm.8,0v0l.2,-.2l-.2,-.2l-.2,.2Zm.8,0v0l.1,-.2l-.1,-.2l-.2,.2Zm.7,0v0l.2,-.2l-.2,-.2l-.2,.2Zm.8,0v0l.2,-.2l-.2,-.2l-.2,.2Zm.7,0v0l.2,-.2l-.2,-.2l-.1,.2Zm.8,0v0l.2,-.2l-.2,-.2l-.2,.2Zm.8,0v0l.2,-.2l-.2,-.2l-.2,.2Zm.7,0v0l.2,-.2l-.2,-.2l-.1,.2Zm.8,0v0l.2,-.2l-.2,-.2l-.2,.2Zm.8,0v0l.2,-.2l-.2,-.2l-.2,.2Zm.7,0v0l.2,-.2l-.2,-.2l-.1,.2Zm.8,0v0l.2,-.2l-.2,-.2l-.2,.2Zm.8,0v0l.2,-.2l-.2,-.2l-.2,.2Zm.7,0v0l.2,-.2l-.2,-.2l-.2,.2Zm.8,0v0l.2,-.2l-.2,-.2l-.2,.2Zm.8,0v0l.2,-.2l-.2,-.2l-.2,.2Zm.7,0v0l.2,-.2l-.2,-.2l-.2,.2Zm.8,0v0l.2,-.2l-.2,-.2l-.2,.2Zm.8,0v0l.2,-.2l-.2,-.2l-.2,.2Zm.7,0v0l.2,-.2l-.2,-.2l-.2,.2Zm.8,0v0l.2,-.2l-.2,-.2l-.2,.2Zm.8,0v0l.2,-.2l-.2,-.2l-.2,.2Zm.7,0v0l.2,-.2l-.2,-.2l-.2,.2Zm.8,0v0l.2,-.2l-.2,-.2l-.2,.2Zm.8,0v0l.2,-.2l-.2,-.2l-.2,.2Zm.7,0v0l.2,-.2l-.2,-.2l-.2,.2Zm.8,0v0l.2,-.2l-.2,-.2l-.2,.2Zm.8,0v0l.1,-.2l-.1,-.2l-.2,.2Z" class="g3_12"/>
<path clip-path="url(#c4_12)" d="M38.9,1211.9H39v-.3l-.1,-.1l-.2,.1v.3Zm140.8,0h.2v-.3l-.2,-.1l-.1,.1l-.1,.1l.1,.2Z" class="g3_12"/>
<path d="M180.1,1211.5v-21.1h-.8v21.1Z" class="g5_12"/>
<path d="M180.1,1246.9v-35h-.8v35Z" class="g5_12"/>
<path d="M180.5,1211.9v0l.2,-.2l-.2,-.2l-.2,.2Zm.7,0v0l.2,-.2l-.2,-.2l-.1,.2Zm.8,0v0l.2,-.2l-.2,-.2l-.2,.2Zm.8,0v0l.2,-.2l-.2,-.2l-.2,.2Zm.7,0v0l.2,-.2l-.2,-.2l-.2,.2Zm.8,0v0l.2,-.2l-.2,-.2l-.2,.2Zm.8,0v0l.2,-.2l-.2,-.2l-.2,.2Zm.7,0v0l.2,-.2l-.2,-.2l-.2,.2Zm.8,0v0l.2,-.2l-.2,-.2l-.2,.2Zm.8,0v0l.1,-.2l-.1,-.2l-.2,.2Zm.7,0v0l.2,-.2l-.2,-.2l-.2,.2Zm.8,0v0l.2,-.2l-.2,-.2l-.2,.2Zm.7,0v0l.2,-.2l-.2,-.2l-.1,.2Zm.8,0v0l.2,-.2l-.2,-.2l-.2,.2Zm.8,0v0l.2,-.2l-.2,-.2l-.2,.2Zm.7,0v0l.2,-.2l-.2,-.2l-.2,.2Zm.8,0v0l.2,-.2l-.2,-.2l-.2,.2Zm.8,0v0l.2,-.2l-.2,-.2l-.2,.2Zm.7,0v0l.2,-.2l-.2,-.2l-.2,.2Zm.8,0v0l.2,-.2l-.2,-.2l-.2,.2Zm.8,0v0l.1,-.2l-.1,-.2l-.2,.2Zm.7,0v0l.2,-.2l-.2,-.2l-.2,.2Zm.8,0v0l.2,-.2l-.2,-.2l-.2,.2Zm.7,0v0l.2,-.2l-.2,-.2l-.2,.2Zm.8,0v0l.2,-.2l-.2,-.2l-.2,.2Zm.8,0v0l.2,-.2l-.2,-.2l-.2,.2Zm.7,0v0l.2,-.2l-.2,-.2l-.2,.2Zm.8,0v0l.2,-.2l-.2,-.2l-.2,.2Zm.8,0v0l.1,-.2l-.1,-.2l-.2,.2Zm.7,0v0l.2,-.2l-.2,-.2l-.2,.2Zm.8,0v0l.2,-.2l-.2,-.2l-.2,.2Zm.7,0v0l.2,-.2l-.2,-.2l-.1,.2Zm.8,0v0l.2,-.2l-.2,-.2l-.2,.2Zm.8,0v0l.2,-.2l-.2,-.2l-.2,.2Zm.7,0v0l.2,-.2l-.2,-.2l-.2,.2Zm.8,0v0l.2,-.2l-.2,-.2l-.2,.2Zm.8,0v0l.2,-.2l-.2,-.2l-.2,.2Zm.7,0v0l.2,-.2l-.2,-.2l-.2,.2Zm.8,0v0l.2,-.2l-.2,-.2l-.2,.2Zm.7,0v0l.2,-.2l-.2,-.2l-.1,.2Zm.8,0v0l.2,-.2l-.2,-.2l-.2,.2Zm.8,0v0l.2,-.2l-.2,-.2l-.2,.2Zm.7,0v0l.2,-.2l-.2,-.2l-.2,.2Zm.8,0v0l.2,-.2l-.2,-.2l-.2,.2Zm.8,0v0l.2,-.2l-.2,-.2l-.2,.2Zm.7,0v0l.2,-.2l-.2,-.2l-.2,.2Zm.8,0v0l.2,-.2l-.2,-.2l-.2,.2Zm.8,0v0l.1,-.2l-.1,-.2l-.2,.2Zm.7,0v0l.2,-.2l-.2,-.2l-.2,.2Zm.8,0v0l.2,-.2l-.2,-.2l-.2,.2Zm.7,0v0l.2,-.2l-.2,-.2l-.1,.2Zm.8,0v0l.2,-.2l-.2,-.2l-.2,.2Zm.8,0v0l.2,-.2l-.2,-.2l-.2,.2Zm.7,0v0l.2,-.2l-.2,-.2l-.2,.2Zm.8,0v0l.2,-.2l-.2,-.2l-.2,.2Zm.8,0v0l.1,-.2l-.1,-.2l-.2,.2Zm.7,0v0l.2,-.2l-.2,-.2l-.2,.2Zm.8,0v0l.2,-.2l-.2,-.2l-.2,.2Zm.7,0v0l.2,-.2l-.2,-.2l-.1,.2Zm.8,0v0l.2,-.2l-.2,-.2l-.2,.2Zm.8,0v0l.2,-.2l-.2,-.2l-.2,.2Zm.7,0v0l.2,-.2l-.2,-.2l-.2,.2Zm.8,0v0l.2,-.2l-.2,-.2l-.2,.2Zm.8,0v0l.2,-.2l-.2,-.2l-.2,.2Zm.7,0v0l.2,-.2l-.2,-.2l-.2,.2Zm.8,0v0l.2,-.2l-.2,-.2l-.2,.2Zm.8,0v0l.1,-.2l-.1,-.2l-.2,.2Zm.7,0v0l.2,-.2l-.2,-.2l-.2,.2Zm.8,0v0l.2,-.2l-.2,-.2l-.2,.2Zm.7,0v0l.2,-.2l-.2,-.2l-.1,.2Zm.8,0v0l.2,-.2l-.2,-.2l-.2,.2Zm.8,0v0l.2,-.2l-.2,-.2l-.2,.2Zm.7,0v0l.2,-.2l-.2,-.2l-.2,.2Zm.8,0v0l.2,-.2l-.2,-.2l-.2,.2Zm.8,0v0l.1,-.2l-.1,-.2l-.2,.2Zm.7,0v0l.2,-.2l-.2,-.2l-.2,.2Zm.8,0v0l.2,-.2l-.2,-.2l-.2,.2Zm.7,0v0l.2,-.2l-.2,-.2l-.1,.2Zm.8,0v0l.2,-.2l-.2,-.2l-.2,.2Zm.8,0v0l.2,-.2l-.2,-.2l-.2,.2Zm.7,0v0l.2,-.2l-.2,-.2l-.2,.2Zm.8,0v0l.2,-.2l-.2,-.2l-.2,.2Zm.8,0v0l.2,-.2l-.2,-.2l-.2,.2Z" class="g3_12"/>
<path d="M179.7,1211.9h.2v-.3l-.2,-.1l-.1,.1l-.1,.1l.1,.2Zm64.1,0h.2v-.3l-.2,-.1l-.1,.1l-.1,.1l.1,.2Z" class="g3_12"/>
<path d="M244.6,1211.9v0l.2,-.2l-.2,-.2l-.2,.2Zm.7,0v0l.2,-.2l-.2,-.2l-.1,.2Zm.8,0v0l.2,-.2l-.2,-.2l-.2,.2Zm.8,0v0l.2,-.2l-.2,-.2l-.2,.2Zm.7,0v0l.2,-.2l-.2,-.2l-.2,.2Zm.8,0v0l.2,-.2l-.2,-.2l-.2,.2Zm.8,0v0l.1,-.2l-.1,-.2l-.2,.2Zm.7,0v0l.2,-.2l-.2,-.2l-.2,.2Zm.8,0v0l.2,-.2l-.2,-.2l-.2,.2Zm.7,0v0l.2,-.2l-.2,-.2l-.2,.2Zm.8,0v0l.2,-.2l-.2,-.2l-.2,.2Zm.8,0v0l.1,-.2l-.1,-.2l-.2,.2Zm.7,0v0l.2,-.2l-.2,-.2l-.2,.2Zm.8,0v0l.2,-.2l-.2,-.2l-.2,.2Zm.7,0v0l.2,-.2l-.2,-.2l-.2,.2Zm.8,0v0l.2,-.2l-.2,-.2l-.2,.2Zm.8,0v0l.2,-.2l-.2,-.2l-.2,.2Zm.7,0v0l.2,-.2l-.2,-.2l-.2,.2Zm.8,0v0l.2,-.2l-.2,-.2l-.2,.2Zm.7,0v0l.2,-.2l-.2,-.2l-.1,.2Zm.8,0v0l.2,-.2l-.2,-.2l-.2,.2Zm.8,0v0l.2,-.2l-.2,-.2l-.2,.2Zm.7,0v0l.2,-.2l-.2,-.2l-.2,.2Zm.8,0v0l.2,-.2l-.2,-.2l-.2,.2Zm.7,0v0l.2,-.2l-.2,-.2l-.1,.2Zm.8,0v0l.2,-.2l-.2,-.2l-.2,.2Zm.8,0v0l.2,-.2l-.2,-.2l-.2,.2Zm.7,0v0l.2,-.2l-.2,-.2l-.2,.2Zm.8,0v0l.2,-.2l-.2,-.2l-.2,.2Zm.8,0v0l.1,-.2l-.1,-.2l-.2,.2Zm.7,0v0l.2,-.2l-.2,-.2l-.2,.2Zm.8,0v0l.2,-.2l-.2,-.2l-.2,.2Zm.7,0v0l.2,-.2l-.2,-.2l-.2,.2Zm.8,0v0l.2,-.2l-.2,-.2l-.2,.2Zm.8,0v0l.1,-.2l-.1,-.2l-.2,.2Zm.7,0v0l.2,-.2l-.2,-.2l-.2,.2Zm.8,0v0l.2,-.2l-.2,-.2l-.2,.2Zm.7,0v0l.2,-.2l-.2,-.2l-.2,.2Zm.8,0v0l.2,-.2l-.2,-.2l-.2,.2Zm.8,0v0l.2,-.2l-.2,-.2l-.2,.2Zm.7,0v0l.2,-.2l-.2,-.2l-.2,.2Zm.8,0v0l.2,-.2l-.2,-.2l-.2,.2Zm.7,0v0l.2,-.2l-.2,-.2l-.1,.2Zm.8,0v0l.2,-.2l-.2,-.2l-.2,.2Zm.8,0v0l.2,-.2l-.2,-.2l-.2,.2Zm.7,0v0l.2,-.2l-.2,-.2l-.2,.2Zm.8,0v0l.2,-.2l-.2,-.2l-.2,.2Zm.7,0v0l.2,-.2l-.2,-.2l-.1,.2Zm.8,0v0l.2,-.2l-.2,-.2l-.2,.2Zm.8,0v0l.2,-.2l-.2,-.2l-.2,.2Zm.7,0v0l.2,-.2l-.2,-.2l-.2,.2Zm.8,0v0l.2,-.2l-.2,-.2l-.2,.2Zm.8,0v0l.1,-.2l-.1,-.2l-.2,.2Zm.7,0v0l.2,-.2l-.2,-.2l-.2,.2Zm.8,0v0l.2,-.2l-.2,-.2l-.2,.2Zm.7,0v0l.2,-.2l-.2,-.2l-.2,.2Zm.8,0v0l.2,-.2l-.2,-.2l-.2,.2Zm.8,0v0l.1,-.2l-.1,-.2l-.2,.2Zm.7,0v0l.2,-.2l-.2,-.2l-.2,.2Zm.8,0v0l.2,-.2l-.2,-.2l-.2,.2Zm.7,0v0l.2,-.2l-.2,-.2l-.2,.2Zm.8,0v0l.2,-.2l-.2,-.2l-.2,.2Zm.8,0v0l.2,-.2l-.2,-.2l-.2,.2Zm.7,0v0l.2,-.2l-.2,-.2l-.2,.2Zm.8,0v0l.2,-.2l-.2,-.2l-.2,.2Zm.7,0v0l.2,-.2l-.2,-.2l-.1,.2Zm.8,0v0l.2,-.2l-.2,-.2l-.2,.2Zm.8,0v0l.2,-.2l-.2,-.2l-.2,.2Zm.7,0v0l.2,-.2l-.2,-.2l-.2,.2Zm.8,0v0l.2,-.2l-.2,-.2l-.2,.2Zm.7,0v0l.2,-.2l-.2,-.2l-.1,.2Zm.8,0v0l.2,-.2l-.2,-.2l-.2,.2Zm.8,0v0l.2,-.2l-.2,-.2l-.2,.2Zm.7,0v0l.2,-.2l-.2,-.2l-.2,.2Zm.8,0v0l.2,-.2l-.2,-.2l-.2,.2Zm.8,0v0l.1,-.2l-.1,-.2l-.2,.2Zm.7,0v0l.2,-.2l-.2,-.2l-.2,.2Zm.8,0v0l.2,-.2l-.2,-.2l-.2,.2Zm.7,0v0l.2,-.2l-.2,-.2l-.2,.2Zm.8,0v0l.2,-.2l-.2,-.2l-.2,.2Zm.8,0v0l.1,-.2l-.1,-.2l-.2,.2Zm.7,0v0l.2,-.2l-.2,-.2l-.2,.2Zm.8,0v0l.2,-.2l-.2,-.2l-.2,.2Z" class="g3_12"/>
<path d="M243.8,1211.9h.2v-.3l-.2,-.1l-.1,.1l-.1,.1l.1,.2Zm63.9,0h.2v-.3l-.2,-.1l-.1,.1l-.1,.1l.1,.2Z" class="g3_12"/>
<path clip-path="url(#c4_12)" d="M38.7,1190.4h141v-2.3H38.7Z" class="g3_12"/>
<path d="M179.7,1190.4h64.1v-2.3H179.7Z" class="g3_12"/>
<path d="M243.8,1190.4h64.1v-2.3H243.8Z" class="g3_12"/>
<path d="M244.2,1161.5V1139h-.8v22.5Z" class="g5_12"/>
</svg>