<?xml version="1.0" encoding="UTF-8" standalone="no"?>
<!DOCTYPE svg PUBLIC "-//W3C//DTD SVG 1.1//EN"
"http://www.w3.org/Graphics/SVG/1.1/DTD/svg11.dtd">
<svg viewBox="0 0 1818 1286" version="1.1" xmlns="http://www.w3.org/2000/svg" xmlns:xlink="http://www.w3.org/1999/xlink">
<defs>
<clipPath id="c0_7"><path d="M909.4,494.4V0h909.5V494.4Z"/></clipPath>
<clipPath id="c1_7"><path d="M232.2,1245.3c-93.7,0,-169.6,-76,-169.6,-169.6C62.6,982,138.5,906.1,232.2,906.1c93.7,0,169.6,75.9,169.6,169.6c0,93.6,-75.9,169.6,-169.6,169.6Z"/></clipPath>
<clipPath id="c2_7"><path d="M291.8,853.9c-93.7,0,-169.6,-76,-169.6,-169.6c0,-93.7,75.9,-169.7,169.6,-169.7c93.7,0,169.6,76,169.6,169.7c0,93.6,-75.9,169.6,-169.6,169.6Z"/></clipPath>
<clipPath id="c3_7"><path d="M199,462.4C105.3,462.4,29.4,386.5,29.4,292.8C29.4,199.2,105.3,123.2,199,123.2c93.7,0,169.6,76,169.6,169.6c0,93.7,-75.9,169.6,-169.6,169.6Z"/></clipPath>
<style type="text/css"><![CDATA[
.g0_7{
fill: #252123;
}
.g1_7{
fill: none;
stroke: #FFF;
stroke-width: 3.918;
}
.g2_7{
fill: none;
stroke: #FFF;
stroke-width: 0.49;
}
.g3_7{
fill: #000;
}
.g4_7{
fill: none;
stroke: #FFF;
stroke-width: 0.794;
}
]]></style>
</defs>
<image clip-path="url(#c0_7)" preserveAspectRatio="none" x="909" y="0" width="910" height="494" xlink:href="img/1.jpg"/>
<path d="M0,1286.2H415.7V0H0V1286.2Z" class="g0_7"/>
<image clip-path="url(#c1_7)" preserveAspectRatio="none" x="63" y="906" width="339" height="339" xlink:href="img/2.jpg"/>
<path d="M232.2,1245.3c93.7,0,169.6,-76,169.6,-169.6C401.8,982,325.9,906.1,232.2,906.1C138.5,906.1,62.6,982,62.6,1075.7c0,93.6,75.9,169.6,169.6,169.6Z" class="g1_7"/>
<path d="M232.2,1227.9c84.1,0,152.2,-68.1,152.2,-152.2c0,-84.1,-68.1,-152.3,-152.2,-152.3C148.1,923.4,80,991.6,80,1075.7c0,84.1,68.1,152.2,152.2,152.2Z" class="g2_7"/>
<path d="M330.4,965.7c2.6,0,4.7,-2.1,4.7,-4.6c0,-2.6,-2.1,-4.7,-4.7,-4.7c-2.6,0,-4.7,2.1,-4.7,4.7c0,2.5,2.1,4.6,4.7,4.6Z" class="g3_7"/>
<path d="M0,103.9H1818.9V0H0V103.9Z" class="g0_7"/>
<image clip-path="url(#c2_7)" preserveAspectRatio="none" x="122" y="515" width="339" height="339" xlink:href="img/3.jpg"/>
<path d="M291.8,853.9c93.7,0,169.6,-76,169.6,-169.6c0,-93.7,-75.9,-169.7,-169.6,-169.7c-93.7,0,-169.6,76,-169.6,169.7c0,93.6,75.9,169.6,169.6,169.6Z" class="g1_7"/>
<path d="M291.8,836.4c84.1,0,152.3,-68.2,152.3,-152.3c0,-84,-68.2,-152.2,-152.3,-152.2c-84.1,0,-152.2,68.2,-152.2,152.2c0,84.1,68.1,152.3,152.2,152.3Z" class="g4_7"/>
<path d="M223.4,552.7c2.6,0,4.7,-2.1,4.7,-4.7c0,-2.6,-2.1,-4.7,-4.7,-4.7c-2.6,0,-4.7,2.1,-4.7,4.7c0,2.6,2.1,4.7,4.7,4.7Z" class="g3_7"/>
<path d="M199,445c84.1,0,152.2,-68.2,152.2,-152.3C351.2,208.6,283.1,140.5,199,140.5c-84.1,0,-152.2,68.1,-152.2,152.2C46.8,376.8,114.9,445,199,445Z" class="g4_7"/>
<image clip-path="url(#c3_7)" preserveAspectRatio="none" x="29" y="123" width="340" height="339" xlink:href="img/4.jpg"/>
<path d="M199,462.4c93.7,0,169.6,-75.9,169.6,-169.6C368.6,199.2,292.7,123.2,199,123.2c-93.7,0,-169.6,76,-169.6,169.6c0,93.7,75.9,169.6,169.6,169.6Z" class="g1_7"/>
<path d="M199,445.1c84.1,0,152.2,-68.2,152.2,-152.3C351.2,208.7,283.1,140.6,199,140.6c-84.1,0,-152.2,68.1,-152.2,152.2c0,84.1,68.1,152.3,152.2,152.3Z" class="g4_7"/>
<path d="M326.1,211.6c2.5,0,4.6,-2.1,4.6,-4.7c0,-2.6,-2.1,-4.7,-4.6,-4.7c-2.6,0,-4.7,2.1,-4.7,4.7c0,2.6,2.1,4.7,4.7,4.7Z" class="g3_7"/>
</svg>